  0
SECTION
  2
HEADER
  9
$ACADVER
  1
AC1015
  9
$ACADMAINTVER
 70
     6
  9
$DWGCODEPAGE
  3
ANSI_1252
  9
$INSBASE
 10
0.0
 20
0.0
 30
0.0
  9
$EXTMIN
 10
-107.95
 20
-63.5
 30
0.0
  9
$EXTMAX
 10
107.95
 20
0.0
 30
0.0
  9
$LIMMIN
 10
0.0
 20
0.0
  9
$LIMMAX
 10
420.0
 20
297.0
  9
$ORTHOMODE
 70
     0
  9
$REGENMODE
 70
     1
  9
$FILLMODE
 70
     1
  9
$QTEXTMODE
 70
     0
  9
$MIRRTEXT
 70
     1
  9
$LTSCALE
 40
1.0
  9
$ATTMODE
 70
     1
  9
$TEXTSIZE
 40
6.35
  9
$TRACEWID
 40
1.0
  9
$TEXTSTYLE
  7
Standard
  9
$CLAYER
  8
0
  9
$CELTYPE
  6
ByLayer
  9
$CECOLOR
 62
   256
  9
$CELTSCALE
 40
1.0
  9
$DISPSILH
 70
     0
  9
$DIMSCALE
 40
1.0
  9
$DIMASZ
 40
5.9944
  9
$DIMEXO
 40
0.9906
  9
$DIMDLI
 40
3.75
  9
$DIMRND
 40
0.0
  9
$DIMDLE
 40
0.0
  9
$DIMEXE
 40
0.9906
  9
$DIMTP
 40
0.0
  9
$DIMTM
 40
0.0
  9
$DIMTXT
 40
6.35
  9
$DIMCEN
 40
2.5
  9
$DIMTSZ
 40
0.0
  9
$DIMTOL
 70
     0
  9
$DIMLIM
 70
     0
  9
$DIMTIH
 70
     1
  9
$DIMTOH
 70
     1
  9
$DIMSE1
 70
     0
  9
$DIMSE2
 70
     0
  9
$DIMTAD
 70
     1
  9
$DIMZIN
 70
     0
  9
$DIMBLK
  1

  9
$DIMASO
 70
     1
  9
$DIMSHO
 70
     1
  9
$DIMPOST
  1

  9
$DIMAPOST
  1

  9
$DIMALT
 70
     0
  9
$DIMALTD
 70
     3
  9
$DIMALTF
 40
0.0393700787
  9
$DIMLFAC
 40
1.0
  9
$DIMTOFL
 70
     1
  9
$DIMTVP
 40
0.0
  9
$DIMTIX
 70
     0
  9
$DIMSOXD
 70
     0
  9
$DIMSAH
 70
     0
  9
$DIMBLK1
  1

  9
$DIMBLK2
  1

  9
$DIMSTYLE
  2
ISO-25
  9
$DIMCLRD
 70
     0
  9
$DIMCLRE
 70
     0
  9
$DIMCLRT
 70
     0
  9
$DIMTFAC
 40
1.0
  9
$DIMGAP
 40
1.524
  9
$DIMJUST
 70
     0
  9
$DIMSD1
 70
     0
  9
$DIMSD2
 70
     0
  9
$DIMTOLJ
 70
     0
  9
$DIMTZIN
 70
     0
  9
$DIMALTZ
 70
     0
  9
$DIMALTTZ
 70
     0
  9
$DIMUPT
 70
     0
  9
$DIMDEC
 70
     3
  9
$DIMTDEC
 70
     2
  9
$DIMALTU
 70
     2
  9
$DIMALTTD
 70
     3
  9
$DIMTXSTY
  7
Standard
  9
$DIMAUNIT
 70
     0
  9
$DIMADEC
 70
     2
  9
$DIMALTRND
 40
0.0
  9
$DIMAZIN
 70
     0
  9
$DIMDSEP
 70
    44
  9
$DIMATFIT
 70
     3
  9
$DIMFRAC
 70
     0
  9
$DIMLDRBLK
  1

  9
$DIMLUNIT
 70
     2
  9
$DIMLWD
 70
    -2
  9
$DIMLWE
 70
    -2
  9
$DIMTMOVE
 70
     0
  9
$LUNITS
 70
     2
  9
$LUPREC
 70
     3
  9
$SKETCHINC
 40
1.0
  9
$FILLETRAD
 40
10.0
  9
$AUNITS
 70
     0
  9
$AUPREC
 70
     2
  9
$MENU
  1
.
  9
$ELEVATION
 40
0.0
  9
$PELEVATION
 40
0.0
  9
$THICKNESS
 40
0.0
  9
$LIMCHECK
 70
     0
  9
$CHAMFERA
 40
0.0
  9
$CHAMFERB
 40
0.0
  9
$CHAMFERC
 40
0.0
  9
$CHAMFERD
 40
0.0
  9
$SKPOLY
 70
     0
  9
$TDCREATE
 40
2458414.720318958
  9
$TDUCREATE
 40
2458414.886985625
  9
$TDUPDATE
 40
2458414.720344965
  9
$TDUUPDATE
 40
2458414.887011632
  9
$TDINDWG
 40
0.0000000116
  9
$TDUSRTIMER
 40
0.0000000116
  9
$USRTIMER
 70
     1
  9
$ANGBASE
 50
0.0
  9
$ANGDIR
 70
     0
  9
$PDMODE
 70
     0
  9
$PDSIZE
 40
-1.0
  9
$PLINEWID
 40
0.0
  9
$SPLFRAME
 70
     0
  9
$SPLINETYPE
 70
     6
  9
$SPLINESEGS
 70
     8
  9
$HANDSEED
  5
1E8
  9
$SURFTAB1
 70
     6
  9
$SURFTAB2
 70
     6
  9
$SURFTYPE
 70
     6
  9
$SURFU
 70
     6
  9
$SURFV
 70
     6
  9
$UCSBASE
  2

  9
$UCSNAME
  2

  9
$UCSORG
 10
0.0
 20
0.0
 30
0.0
  9
$UCSXDIR
 10
1.0
 20
0.0
 30
0.0
  9
$UCSYDIR
 10
0.0
 20
1.0
 30
0.0
  9
$UCSORTHOREF
  2

  9
$UCSORTHOVIEW
 70
     0
  9
$UCSORGTOP
 10
0.0
 20
0.0
 30
0.0
  9
$UCSORGBOTTOM
 10
0.0
 20
0.0
 30
0.0
  9
$UCSORGLEFT
 10
0.0
 20
0.0
 30
0.0
  9
$UCSORGRIGHT
 10
0.0
 20
0.0
 30
0.0
  9
$UCSORGFRONT
 10
0.0
 20
0.0
 30
0.0
  9
$UCSORGBACK
 10
0.0
 20
0.0
 30
0.0
  9
$PUCSBASE
  2

  9
$PUCSNAME
  2

  9
$PUCSORG
 10
0.0
 20
0.0
 30
0.0
  9
$PUCSXDIR
 10
1.0
 20
0.0
 30
0.0
  9
$PUCSYDIR
 10
0.0
 20
1.0
 30
0.0
  9
$PUCSORTHOREF
  2

  9
$PUCSORTHOVIEW
 70
     0
  9
$PUCSORGTOP
 10
0.0
 20
0.0
 30
0.0
  9
$PUCSORGBOTTOM
 10
0.0
 20
0.0
 30
0.0
  9
$PUCSORGLEFT
 10
0.0
 20
0.0
 30
0.0
  9
$PUCSORGRIGHT
 10
0.0
 20
0.0
 30
0.0
  9
$PUCSORGFRONT
 10
0.0
 20
0.0
 30
0.0
  9
$PUCSORGBACK
 10
0.0
 20
0.0
 30
0.0
  9
$USERI1
 70
     0
  9
$USERI2
 70
     0
  9
$USERI3
 70
     0
  9
$USERI4
 70
     0
  9
$USERI5
 70
     0
  9
$USERR1
 40
0.0
  9
$USERR2
 40
0.0
  9
$USERR3
 40
0.0
  9
$USERR4
 40
0.0
  9
$USERR5
 40
0.0
  9
$WORLDVIEW
 70
     1
  9
$SHADEDGE
 70
     3
  9
$SHADEDIF
 70
    70
  9
$TILEMODE
 70
     1
  9
$MAXACTVP
 70
    64
  9
$PINSBASE
 10
0.0
 20
0.0
 30
0.0
  9
$PLIMCHECK
 70
     0
  9
$PEXTMIN
 10
1.0000000000E+20
 20
1.0000000000E+20
 30
1.0000000000E+20
  9
$PEXTMAX
 10
-1.0000000000E+20
 20
-1.0000000000E+20
 30
-1.0000000000E+20
  9
$PLIMMIN
 10
0.0
 20
0.0
  9
$PLIMMAX
 10
420.0
 20
297.0
  9
$UNITMODE
 70
     0
  9
$VISRETAIN
 70
     1
  9
$PLINEGEN
 70
     0
  9
$PSLTSCALE
 70
     1
  9
$TREEDEPTH
 70
  3020
  9
$CMLSTYLE
  2
Standard
  9
$CMLJUST
 70
     0
  9
$CMLSCALE
 40
20.0
  9
$PROXYGRAPHICS
 70
     1
  9
$MEASUREMENT
 70
     1
  9
$CELWEIGHT
370
    -1
  9
$ENDCAPS
280
     0
  9
$JOINSTYLE
280
     0
  9
$LWDISPLAY
290
     1
  9
$INSUNITS
 70
     4
  9
$HYPERLINKBASE
  1

  9
$STYLESHEET
  1

  9
$XEDIT
290
     1
  9
$CEPSNTYPE
380
     0
  9
$PSTYLEMODE
290
     1
  9
$FINGERPRINTGUID
  2
{DF3D6AA1-C6D4-48A2-B8BD-18827D62D5FA}
  9
$VERSIONGUID
  2
{FAEB1C32-E019-11D5-929B-00C0DF256EC4}
  9
$EXTNAMES
290
     1
  9
$PSVPSCALE
 40
0.0
  9
$OLESTARTUP
290
     0
  0
ENDSEC
  0
SECTION
  2
CLASSES
  0
CLASS
  1
ACDBDICTIONARYWDFLT
  2
AcDbDictionaryWithDefault
  3
ObjectDBX Classes
 90
        0
280
     0
281
     0
  0
CLASS
  1
VISUALSTYLE
  2
AcDbVisualStyle
  3
ObjectDBX Classes
 90
     4095
280
     0
281
     0
  0
CLASS
  1
MATERIAL
  2
AcDbMaterial
  3
ObjectDBX Classes
 90
     1153
280
     0
281
     0
  0
CLASS
  1
SCALE
  2
AcDbScale
  3
ObjectDBX Classes
 90
     1153
280
     0
281
     0
  0
CLASS
  1
TABLESTYLE
  2
AcDbTableStyle
  3
ObjectDBX Classes
 90
     4095
280
     0
281
     0
  0
CLASS
  1
MLEADERSTYLE
  2
AcDbMLeaderStyle
  3
ACDB_MLEADERSTYLE_CLASS
 90
     4095
280
     0
281
     0
  0
CLASS
  1
SUN
  2
AcDbSun
  3
SCENEOE
 90
     1153
280
     0
281
     0
  0
CLASS
  1
ACDBPLACEHOLDER
  2
AcDbPlaceHolder
  3
ObjectDBX Classes
 90
        0
280
     0
281
     0
  0
CLASS
  1
LAYOUT
  2
AcDbLayout
  3
ObjectDBX Classes
 90
        0
280
     0
281
     0
  0
ENDSEC
  0
SECTION
  2
TABLES
  0
TABLE
  2
VPORT
  5
8
330
0
100
AcDbSymbolTable
 70
     1
  0
VPORT
  5
29
330
8
100
AcDbSymbolTableRecord
100
AcDbViewportTableRecord
  2
*Active
 70
     0
 10
0.0
 20
0.0
 11
1.0
 21
1.0
 12
0.0
 22
-31.75
 13
0.0
 23
0.0
 14
10.0
 24
10.0
 15
10.0
 25
10.0
 16
0.0
 26
0.0
 36
1.0
 17
0.0
 27
0.0
 37
0.0
 40
64.77
 41
3.4
 42
50.0
 43
0.0
 44
0.0
 50
0.0
 51
0.0
 71
     0
 72
   100
 73
     1
 74
     3
 75
     0
 76
     0
 77
     0
 78
     0
281
     0
 65
     1
110
0.0
120
0.0
130
0.0
111
1.0
121
0.0
131
0.0
112
0.0
122
1.0
132
0.0
 79
     0
146
0.0
  0
ENDTAB
  0
TABLE
  2
LTYPE
  5
5
330
0
100
AcDbSymbolTable
 70
     6
  0
LTYPE
  5
14
330
5
100
AcDbSymbolTableRecord
100
AcDbLinetypeTableRecord
  2
ByBlock
 70
     0
  3

 72
    65
 73
     0
 40
0.0
  0
LTYPE
  5
15
330
5
100
AcDbSymbolTableRecord
100
AcDbLinetypeTableRecord
  2
ByLayer
 70
     0
  3

 72
    65
 73
     0
 40
0.0
  0
LTYPE
  5
16
330
5
100
AcDbSymbolTableRecord
100
AcDbLinetypeTableRecord
  2
Continuous
 70
     0
  3
Solid line
 72
    65
 73
     0
 40
0.0
  0
LTYPE
  5
6E
330
5
100
AcDbSymbolTableRecord
100
AcDbLinetypeTableRecord
  2
HIDDEN
 70
     0
  3
Hidden __ __ __ __ __ __ __ __ __ __ __ __ __ __
 72
    65
 73
     2
 40
1.905
 49
1.27
 74
     0
 49
-0.635
 74
     0
  0
LTYPE
  5
6F
330
5
100
AcDbSymbolTableRecord
100
AcDbLinetypeTableRecord
  2
PHANTOM
 70
     0
  3
Phantom ______  __  __  ______  __  __  ______
 72
    65
 73
     6
 40
12.7
 49
6.35
 74
     0
 49
-1.27
 74
     0
 49
1.27
 74
     0
 49
-1.27
 74
     0
 49
1.27
 74
     0
 49
-1.27
 74
     0
  0
LTYPE
  5
70
330
5
100
AcDbSymbolTableRecord
100
AcDbLinetypeTableRecord
  2
CENTER
 70
     0
  3
Center ____ _ ____ _ ____ _ ____ _ ____ _ ____
 72
    65
 73
     4
 40
10.16
 49
6.35
 74
     0
 49
-1.27
 74
     0
 49
1.27
 74
     0
 49
-1.27
 74
     0
  0
LTYPE
  5
71
330
5
100
AcDbSymbolTableRecord
100
AcDbLinetypeTableRecord
  2
CENTERX2
 70
     0
  3
Center (2x) ________  __  ________  __  _____
 72
    65
 73
     4
 40
20.32
 49
12.7
 74
     0
 49
-2.54
 74
     0
 49
2.54
 74
     0
 49
-2.54
 74
     0
  0
LTYPE
  5
72
330
5
100
AcDbSymbolTableRecord
100
AcDbLinetypeTableRecord
  2
DOT2
 70
     0
  3
Dot (.5x) ........................................
 72
    65
 73
     2
 40
0.635
 49
0.0
 74
     0
 49
-0.635
 74
     0
  0
ENDTAB
  0
TABLE
  2
LAYER
  5
2
330
0
100
AcDbSymbolTable
 70
     1
  0
LAYER
  5
10
330
2
100
AcDbSymbolTableRecord
100
AcDbLayerTableRecord
  2
0
 70
     0
 62
     7
  6
Continuous
370
    -3
390
F
  0
ENDTAB
  0
TABLE
  2
STYLE
  5
3
330
0
100
AcDbSymbolTable
 70
     1
  0
STYLE
  5
11
330
3
100
AcDbSymbolTableRecord
100
AcDbTextStyleTableRecord
  2
Standard
 70
     0
 40
0.0
 41
1.0
 50
0.0
 71
     0
 42
6.35
  3
txt
  4

  0
ENDTAB
  0
TABLE
  2
VIEW
  5
6
330
0
100
AcDbSymbolTable
 70
     0
  0
ENDTAB
  0
TABLE
  2
UCS
  5
7
330
0
100
AcDbSymbolTable
 70
     0
  0
ENDTAB
  0
TABLE
  2
APPID
  5
9
330
0
100
AcDbSymbolTable
 70
     1
  0
APPID
  5
12
330
9
100
AcDbSymbolTableRecord
100
AcDbRegAppTableRecord
  2
ACAD
 70
     0
  0
ENDTAB
  0
TABLE
  2
DIMSTYLE
  5
A
330
0
100
AcDbSymbolTable
 70
     1
100
AcDbDimStyleTable
  0
DIMSTYLE
105
27
330
A
100
AcDbSymbolTableRecord
100
AcDbDimStyleTableRecord
  2
ISO-25
 70
     0
 41
2.5
 42
0.625
 43
3.75
 44
1.25
 73
     0
 74
     0
 77
     1
 78
     8
140
2.5
141
2.5
143
0.0393700787
147
0.625
171
     3
172
     1
178
     0
271
     2
272
     2
274
     3
278
    44
283
     0
284
     8
340
11
  0
ENDTAB
  0
TABLE
  2
BLOCK_RECORD
  5
1
330
0
100
AcDbSymbolTable
 70
     1
  0
BLOCK_RECORD
  5
1F
330
1
100
AcDbSymbolTableRecord
100
AcDbBlockTableRecord
  2
*Model_Space
340
22
  0
BLOCK_RECORD
  5
1B
330
1
100
AcDbSymbolTableRecord
100
AcDbBlockTableRecord
  2
*Paper_Space
340
1E
  0
BLOCK_RECORD
  5
23
330
1
100
AcDbSymbolTableRecord
100
AcDbBlockTableRecord
  2
*Paper_Space0
340
26
  0
ENDTAB
  0
ENDSEC
  0
SECTION
  2
BLOCKS
  0
BLOCK
  5
20
330
1F
100
AcDbEntity
  8
0
100
AcDbBlockBegin
  2
*Model_Space
 70
     0
 10
0.0
 20
0.0
 30
0.0
  3
*Model_Space
  1

  0
ENDBLK
  5
21
330
1F
100
AcDbEntity
  8
0
100
AcDbBlockEnd
  0
BLOCK
  5
1C
330
1B
100
AcDbEntity
 67
     1
  8
0
100
AcDbBlockBegin
  2
*Paper_Space
 70
     0
 10
0.0
 20
0.0
 30
0.0
  3
*Paper_Space
  1

  0
ENDBLK
  5
1D
330
1B
100
AcDbEntity
 67
     1
  8
0
100
AcDbBlockEnd
  0
BLOCK
  5
24
330
23
100
AcDbEntity
  8
0
100
AcDbBlockBegin
  2
*Paper_Space0
 70
     0
 10
0.0
 20
0.0
 30
0.0
  3
*Paper_Space0
  1

  0
ENDBLK
  5
25
330
23
100
AcDbEntity
  8
0
100
AcDbBlockEnd
  0
ENDSEC
  0
SECTION
  2
ENTITIES
  0
SPLINE
  5
73
330
1F
100
AcDbEntity
  8
0
  6
Continuous
 62
     7
370
    25
100
AcDbSpline
210
0.0
220
0.0
230
1.0
 70
     8
 71
     3
 72
    23
 73
    19
 74
     0
 42
0.000000001
 43
0.00000001
 40
0.0
 40
0.0
 40
0.0
 40
0.0
 40
0.0522800676147021
 40
0.1033607875332684
 40
0.1531235091174655
 40
0.2028305557084906
 40
0.2532016409138802
 40
0.3043781776240809
 40
0.3579222618393173
 40
0.4139962654952025
 40
0.4728285412026496
 40
0.5344200615991231
 40
0.5997473266424992
 40
0.6697674316906769
 40
0.7437544502145594
 40
0.8235050332611576
 40
0.9092555881896194
 40
1.0
 40
1.0
 40
1.0
 40
1.0
 10
-55.13155279192532
 20
-30.88269151425331
 30
0.0
 10
-55.18107123241878
 20
-30.8837555448487
 30
0.0
 10
-55.27897211970425
 20
-30.88585919630356
 30
0.0
 10
-55.42178874865013
 20
-30.91339192683085
 30
0.0
 10
-55.55826501690958
 20
-30.95443443986736
 30
0.0
 10
-55.68947835502408
 20
-31.00929543856485
 30
0.0
 10
-55.81152570347219
 20
-31.08482964192046
 30
0.0
 10
-55.92776162396066
 20
-31.17470011712127
 30
0.0
 10
-56.03725836511457
 20
-31.2807561006304
 30
0.0
 10
-56.13918819070314
 20
-31.40356403090058
 30
0.0
 10
-56.23244583098418
 20
-31.54251603553217
 30
0.0
 10
-56.31145931228222
 20
-31.69983113865231
 30
0.0
 10
-56.38073384982567
 20
-31.87302254578571
 30
0.0
 10
-56.43522459354808
 20
-32.06371010278229
 30
0.0
 10
-56.4775132000295
 20
-32.27124433207614
 30
0.0
 10
-56.50891739426806
 20
-32.4957297970496
 30
0.0
 10
-56.52731367603717
 20
-32.73762012210417
 30
0.0
 10
-56.52904042592886
 20
-32.90459290518033
 30
0.0
 10
-56.5299282297352
 20
-32.99044151190581
 30
0.0
  0
SPLINE
  5
74
330
1F
100
AcDbEntity
  8
0
  6
Continuous
 62
     7
370
    25
100
AcDbSpline
210
0.0
220
0.0
230
1.0
 70
     8
 71
     3
 72
    23
 73
    19
 74
     0
 42
0.000000001
 43
0.00000001
 40
0.0
 40
0.0
 40
0.0
 40
0.0
 40
0.0909648505659198
 40
0.1758387162307834
 40
0.2554376449586797
 40
0.3301508386576022
 40
0.3999608205665999
 40
0.4650328907057406
 40
0.5267620731585961
 40
0.5853273161303816
 40
0.641271685927208
 40
0.6948034987262718
 40
0.7460658422526738
 40
0.7965650504589065
 40
0.8464193899639841
 40
0.8961274810915306
 40
0.9471525709060598
 40
1.0
 40
1.0
 40
1.0
 40
1.0
 10
-53.68502137877366
 20
-33.03674533434985
 30
0.0
 10
-53.68563933709476
 20
-32.94840776057353
 30
0.0
 10
-53.68683387539378
 20
-32.7776476760889
 30
0.0
 10
-53.70866735487549
 20
-32.53042825278128
 30
0.0
 10
-53.73912354863017
 20
-32.30018334361821
 30
0.0
 10
-53.78235828758176
 20
-32.0866440562928
 30
0.0
 10
-53.84224835057305
 20
-31.89190676593879
 30
0.0
 10
-53.91233988598056
 20
-31.71416217825425
 30
0.0
 10
-53.99512472183211
 20
-31.55388798794352
 30
0.0
 10
-54.09246956062441
 20
-31.41273644573561
 30
0.0
 10
-54.1980898315129
 20
-31.28807966230099
 30
0.0
 10
-54.31129723226029
 20
-31.18021471147033
 30
0.0
 10
-54.43121968071456
 20
-31.08847677783801
 30
0.0
 10
-54.55700436926125
 20
-31.01128011711578
 30
0.0
 10
-54.69152764890967
 20
-30.95402292513699
 30
0.0
 10
-54.83215527003749
 20
-30.91351873025475
 30
0.0
 10
-54.97920100241347
 20
-30.88571665232815
 30
0.0
 10
-55.08017834664131
 20
-30.88371161904499
 30
0.0
 10
-55.13155279192532
 20
-30.88269151425331
 30
0.0
  0
SPLINE
  5
75
330
1F
100
AcDbEntity
  8
0
  6
Continuous
 62
     7
370
    25
100
AcDbSpline
210
0.0
220
0.0
230
1.0
 70
     8
 71
     3
 72
    23
 73
    19
 74
     0
 42
0.000000001
 43
0.00000001
 40
0.0
 40
0.0
 40
0.0
 40
0.0
 40
0.0945353758333461
 40
0.182814822825211
 40
0.2651219966617061
 40
0.3410434206571731
 40
0.4123595262087623
 40
0.4783591091870862
 40
0.5406039403034913
 40
0.598956716112767
 40
0.6545737005777447
 40
0.7072177267722108
 40
0.7574668352422238
 40
0.8063247385301016
 40
0.8538477470986868
 40
0.9019666787406141
 40
0.9500856103825391
 40
1.0
 40
1.0
 40
1.0
 40
1.0
 10
-56.5299282297352
 20
-32.99044151190581
 30
0.0
 10
-56.52906728695936
 20
-33.08061191917355
 30
0.0
 10
-56.52740237475439
 20
-33.254985658987
 30
0.0
 10
-56.5088608143222
 20
-33.50734069839071
 30
0.0
 10
-56.47763025962675
 20
-33.74048486375685
 30
0.0
 10
-56.43537271493271
 20
-33.9554164748299
 30
0.0
 10
-56.38107946398301
 20
-34.15174983607195
 30
0.0
 10
-56.31126932727243
 20
-34.32902948693068
 30
0.0
 10
-56.23343574323574
 20
-34.48949281769581
 30
0.0
 10
-56.13917247902963
 20
-34.62921080503424
 30
0.0
 10
-56.0372780060016
 20
-34.75137236782537
 30
0.0
 10
-55.92975100489875
 20
-34.85808779742501
 30
0.0
 10
-55.81554100579688
 20
-34.94735912737654
 30
0.0
 10
-55.69742174929623
 20
-35.02289819791172
 30
0.0
 10
-55.57087181982181
 20
-35.07875876272297
 30
0.0
 10
-55.4396073561779
 20
-35.11873160088899
 30
0.0
 10
-55.30253171754203
 20
-35.14710735364022
 30
0.0
 10
-55.20887383895317
 20
-35.14905840068292
 30
0.0
 10
-55.16118723828951
 20
-35.15005179069562
 30
0.0
  0
SPLINE
  5
76
330
1F
100
AcDbEntity
  8
0
  6
Continuous
 62
     7
370
    25
100
AcDbSpline
210
0.0
220
0.0
230
1.0
 70
     8
 71
     3
 72
    23
 73
    19
 74
     0
 42
0.000000001
 43
0.00000001
 40
0.0
 40
0.0
 40
0.0
 40
0.0
 40
0.052720070452232
 40
0.1040990273175268
 40
0.1550554361453208
 40
0.2053611378760432
 40
0.2568681820871682
 40
0.3096194894376855
 40
0.3650098770477832
 40
0.4223007485293034
 40
0.4821303523037632
 40
0.5444613679962408
 40
0.6100190067918899
 40
0.6786217344584353
 40
0.7517824302819056
 40
0.8296522505448841
 40
0.9120447297031216
 40
1.0
 40
1.0
 40
1.0
 40
1.0
 10
-55.16118723828951
 20
-35.15005179069562
 30
0.0
 10
-55.1104883410117
 20
-35.14796980347889
 30
0.0
 10
-55.0103802446564
 20
-35.14385879144325
 30
0.0
 10
-54.86254782118036
 20
-35.12022727701738
 30
0.0
 10
-54.72202138404572
 20
-35.07654985475628
 30
0.0
 10
-54.58617113831598
 20
-35.01942994525757
 30
0.0
 10
-54.45887662148996
 20
-34.94184996772134
 30
0.0
 10
-54.33474812200694
 20
-34.8509517935397
 30
0.0
 10
-54.21918211296406
 20
-34.74100051538348
 30
0.0
 10
-54.10903666752596
 20
-34.61660271679207
 30
0.0
 10
-54.00861818563443
 20
-34.47566341978494
 30
0.0
 10
-53.92173233351576
 20
-34.31695730654947
 30
0.0
 10
-53.84744385915014
 20
-34.14274830835728
 30
0.0
 10
-53.78925283741737
 20
-33.95171971521376
 30
0.0
 10
-53.74026908244323
 20
-33.7459968078627
 30
0.0
 10
-53.70777784114623
 20
-33.52351442265153
 30
0.0
 10
-53.68991771928754
 20
-33.28523011894089
 30
0.0
 10
-53.68668864133132
 20
-33.12135737804314
 30
0.0
 10
-53.68502137877365
 20
-33.03674533434984
 30
0.0
  0
SPLINE
  5
B2
330
1F
100
AcDbEntity
  8
0
  6
Continuous
 62
     7
370
    25
100
AcDbSpline
210
0.0
220
0.0
230
1.0
 70
     8
 71
     3
 72
    15
 73
    11
 74
     0
 42
0.000000001
 43
0.00000001
 40
0.0
 40
0.0
 40
0.0
 40
0.0
 40
0.1150516684036823
 40
0.2308606849120193
 40
0.3496119430348383
 40
0.4707600735745728
 40
0.5962048296815161
 40
0.7255946583858617
 40
0.8602811944219654
 40
1.0
 40
1.0
 40
1.0
 40
1.0
 10
-57.71901039009803
 20
-35.30748478700534
 30
0.0
 10
-57.76685668664903
 20
-35.23054847557849
 30
0.0
 10
-57.86286423652229
 20
-35.07616940574798
 30
0.0
 10
-57.98004100764567
 20
-34.82675630678211
 30
0.0
 10
-58.08311598469266
 20
-34.56628698346938
 30
0.0
 10
-58.16354197627131
 20
-34.28994572172511
 30
0.0
 10
-58.22879051495018
 20
-34.00119483557272
 30
0.0
 10
-58.27457740350155
 20
-33.69791199470814
 30
0.0
 10
-58.30291622876699
 20
-33.38117263516968
 30
0.0
 10
-58.30628151220657
 20
-33.16522221242148
 30
0.0
 10
-58.30799501158616
 20
-33.05526686332746
 30
0.0
  0
SPLINE
  5
B4
330
1F
100
AcDbEntity
  8
0
  6
Continuous
 62
     7
370
    25
100
AcDbSpline
210
0.0
220
0.0
230
1.0
 70
     8
 71
     3
 72
     9
 73
     5
 74
     0
 42
0.000000001
 43
0.00000001
 40
0.0
 40
0.0
 40
0.0
 40
0.0
 40
0.460784576795577
 40
1.0
 40
1.0
 40
1.0
 40
1.0
 10
-58.07647589936599
 20
-37.02257837033242
 30
0.0
 10
-58.07595937682739
 20
-36.98985442425882
 30
0.0
 10
-58.07483841366021
 20
-36.91883653928279
 30
0.0
 10
-58.07229232886374
 20
-36.84785508305136
 30
0.0
 10
-58.0709194406727
 20
-36.80958078708985
 30
0.0
  0
SPLINE
  5
E6
330
1F
100
AcDbEntity
  8
0
  6
Continuous
 62
     7
370
    25
100
AcDbSpline
210
0.0
220
0.0
230
1.0
 70
     8
 71
     3
 72
    11
 73
     7
 74
     0
 42
0.000000001
 43
0.00000001
 40
0.0
 40
0.0
 40
0.0
 40
0.0
 40
0.231192471474551
 40
0.4699595450103631
 40
0.7243798062779084
 40
1.0
 40
1.0
 40
1.0
 40
1.0
 10
-54.09619932207669
 20
-37.55044194619442
 30
0.0
 10
-54.06057492741853
 20
-37.52512771234984
 30
0.0
 10
-53.98815896941592
 20
-37.47366986969604
 30
0.0
 10
-53.89661887802625
 20
-37.3707895493064
 30
0.0
 10
-53.82025710835859
 20
-37.24677061444839
 30
0.0
 10
-53.78246410311019
 20
-37.15410909400926
 30
0.0
 10
-53.76281180047963
 20
-37.10592525073168
 30
0.0
  0
SPLINE
  5
FE
330
1F
100
AcDbEntity
  8
0
  6
Continuous
 62
     7
370
    25
100
AcDbSpline
210
0.0
220
0.0
230
1.0
 70
     8
 71
     3
 72
    11
 73
     7
 74
     0
 42
0.000000001
 43
0.00000001
 40
0.0
 40
0.0
 40
0.0
 40
0.0
 40
0.2348867703394556
 40
0.4778227816290637
 40
0.7327367990482517
 40
0.9999999999999999
 40
0.9999999999999999
 40
0.9999999999999999
 40
0.9999999999999999
 10
-19.66467695269194
 20
-36.33728179816069
 30
0.0
 10
-19.77265193241254
 20
-36.37432399941579
 30
0.0
 10
-19.99230204332291
 20
-36.44967778633107
 30
0.0
 10
-20.34216787813631
 20
-36.51823363127078
 30
0.0
 10
-20.71110588113645
 20
-36.5647982305902
 30
0.0
 10
-20.96472861084937
 20
-36.56989603429638
 30
0.0
 10
-21.09453898976376
 20
-36.5725052161764
 30
0.0
  0
SPLINE
  5
FF
330
1F
100
AcDbEntity
  8
0
  6
Continuous
 62
     7
370
    25
100
AcDbSpline
210
0.0
220
0.0
230
1.0
 70
     8
 71
     3
 72
    19
 73
    15
 74
     0
 42
0.000000001
 43
0.00000001
 40
0.0
 40
0.0
 40
0.0
 40
0.0
 40
0.1333755170341898
 40
0.247685916245508
 40
0.3496543478192382
 40
0.4439650803583772
 40
0.4924088607515295
 40
0.5456062717372835
 40
0.6039566264275457
 40
0.6685411681925955
 40
0.7406478637845656
 40
0.819803849081665
 40
0.9061573136876049
 40
1.0
 40
1.0
 40
1.0
 40
1.0
 10
-61.50851521891791
 20
-31.7809856696676
 30
0.0
 10
-61.51088455082383
 20
-31.70542419948783
 30
0.0
 10
-61.51528453484682
 20
-31.56510225442249
 30
0.0
 10
-61.55902767879509
 20
-31.37052576754652
 30
0.0
 10
-61.63496107628845
 20
-31.21026117065985
 30
0.0
 10
-61.72661732487247
 20
-31.10344581272344
 30
0.0
 10
-61.81730214450834
 20
-31.03900981487029
 30
0.0
 10
-61.89737605683958
 20
-30.99612545923888
 30
0.0
 10
-61.99120797501178
 20
-30.96190064676138
 30
0.0
 10
-62.09747987387377
 20
-30.93156644342037
 30
0.0
 10
-62.21801819495104
 20
-30.91083789820583
 30
0.0
 10
-62.35143147773921
 20
-30.89362578011968
 30
0.0
 10
-62.49807736327526
 20
-30.88518016340446
 30
0.0
 10
-62.60004363726615
 20
-30.88354373477794
 30
0.0
 10
-62.65314570973446
 20
-30.88269151425331
 30
0.0
  0
SPLINE
  5
100
330
1F
100
AcDbEntity
  8
0
  6
Continuous
 62
     7
370
    25
100
AcDbSpline
210
0.0
220
0.0
230
1.0
 70
     8
 71
     3
 72
    23
 73
    19
 74
     0
 42
0.000000001
 43
0.00000001
 40
0.0
 40
0.0
 40
0.0
 40
0.0
 40
0.0816398038765736
 40
0.1587741103509073
 40
0.2317627479458937
 40
0.3014815314516416
 40
0.3684712540037184
 40
0.4328471181421841
 40
0.4952480569489769
 40
0.5568948781600931
 40
0.6167286759110224
 40
0.674020778860016
 40
0.7293834629283873
 40
0.7831694142508051
 40
0.8365510072728572
 40
0.8901986648052599
 40
0.9442855831135697
 40
1.0
 40
1.0
 40
1.0
 40
1.0
 10
-50.7215767423554
 20
-21.82442063445382
 30
0.0
 10
-50.72404602588287
 20
-21.96033619191859
 30
0.0
 10
-50.72884831933121
 20
-22.22466646581223
 30
0.0
 10
-50.76653976022746
 20
-22.60900223333269
 30
0.0
 10
-50.82653810594906
 20
-22.97031230014039
 30
0.0
 10
-50.91340148124203
 20
-23.30889020427101
 30
0.0
 10
-51.02624825280177
 20
-23.62452915868075
 30
0.0
 10
-51.16348099478873
 20
-23.9169589499141
 30
0.0
 10
-51.32527756041986
 20
-24.1864190197766
 30
0.0
 10
-51.51252181961534
 20
-24.42926719939899
 30
0.0
 10
-51.71533352201367
 20
-24.64757289524913
 30
0.0
 10
-51.93089297762717
 20
-24.83803062504146
 30
0.0
 10
-52.15765893891496
 20
-24.99816223254113
 30
0.0
 10
-52.39498213156208
 20
-25.12922238741448
 30
0.0
 10
-52.64292241382513
 20
-25.23154731961402
 30
0.0
 10
-52.90100446201591
 20
-25.30651447528358
 30
0.0
 10
-53.17053164311073
 20
-25.34953728255461
 30
0.0
 10
-53.35333646047596
 20
-25.35536918918936
 30
0.0
 10
-53.44609365496245
 20
-25.3583283633826
 30
0.0
  0
SPLINE
  5
101
330
1F
100
AcDbEntity
  8
0
  6
Continuous
 62
     7
370
    25
100
AcDbSpline
210
0.0
220
0.0
230
1.0
 70
     8
 71
     3
 72
    15
 73
    11
 74
     0
 42
0.000000001
 43
0.00000001
 40
0.0
 40
0.0
 40
0.0
 40
0.0
 40
0.1707017126434648
 40
0.3285947932752677
 40
0.4728947885344953
 40
0.6047107102146151
 40
0.722510031153217
 40
0.8279568844720837
 40
0.9201795762499113
 40
1.0
 40
1.0
 40
1.0
 40
1.0
 10
-63.17545282690318
 20
-32.39404827882663
 30
0.0
 10
-63.079109687118
 20
-32.37444388192436
 30
0.0
 10
-62.89365253141083
 20
-32.33670610737232
 30
0.0
 10
-62.62725219395879
 20
-32.27996593067883
 30
0.0
 10
-62.38387456932846
 20
-32.2227762084672
 30
0.0
 10
-62.16455248200463
 20
-32.16467844024022
 30
0.0
 10
-61.96696660442979
 20
-32.11189281118434
 30
0.0
 10
-61.79317911033814
 20
-32.05870165613713
 30
0.0
 10
-61.64250423180988
 20
-32.00516744419809
 30
0.0
 10
-61.55097892691451
 20
-31.96716366302186
 30
0.0
 10
-61.50851521891791
 20
-31.9495315833639
 30
0.0
  0
SPLINE
  5
102
330
1F
100
AcDbEntity
  8
0
  6
Continuous
 62
     7
370
    25
100
AcDbSpline
210
0.0
220
0.0
230
1.0
 70
     8
 71
     3
 72
    11
 73
     7
 74
     0
 42
0.000000001
 43
0.00000001
 40
0.0
 40
0.0
 40
0.0
 40
0.0
 40
0.3021129224185804
 40
0.5667237703865811
 40
0.7975099069435991
 40
1.0
 40
1.0
 40
1.0
 40
1.0
 10
-55.08154466368577
 20
-37.75788307074369
 30
0.0
 10
-54.97887393103195
 20
-37.75582247197476
 30
0.0
 10
-54.7862772547557
 20
-37.75195706200079
 30
0.0
 10
-54.5179970798737
 20
-37.71292768055086
 30
0.0
 10
-54.28697610837131
 20
-37.65285317303054
 30
0.0
 10
-54.15696128418814
 20
-37.58305968342369
 30
0.0
 10
-54.0961993220767
 20
-37.55044194619443
 30
0.0
  0
SPLINE
  5
103
330
1F
100
AcDbEntity
  8
0
  6
Continuous
 62
     7
370
    25
100
AcDbSpline
210
0.0
220
0.0
230
1.0
 70
     8
 71
     3
 72
    11
 73
     7
 74
     0
 42
0.000000001
 43
0.00000001
 40
0.0
 40
0.0
 40
0.0
 40
0.0
 40
0.2849354896977348
 40
0.5428569850774593
 40
0.7792940405709912
 40
1.0
 40
1.0
 40
1.0
 40
1.0
 10
-7.158940587006849
 20
-31.64392635523325
 30
0.0
 10
-7.228871548290189
 20
-31.59994386833027
 30
0.0
 10
-7.362103497901358
 20
-31.5161487599649
 30
0.0
 10
-7.570062202550248
 20
-31.42712692795939
 30
0.0
 10
-7.770082995855294
 20
-31.36884434005665
 30
0.0
 10
-7.902533112818356
 20
-31.36075037487456
 30
0.0
 10
-7.966479250430828
 20
-31.35684265608024
 30
0.0
  0
SPLINE
  5
104
330
1F
100
AcDbEntity
  8
0
  6
Continuous
 62
     7
370
    25
100
AcDbSpline
210
0.0
220
0.0
230
1.0
 70
     8
 71
     3
 72
    19
 73
    15
 74
     0
 42
0.000000001
 43
0.00000001
 40
0.0
 40
0.0
 40
0.0
 40
0.0
 40
0.079715766650966
 40
0.1564176668982485
 40
0.2307532430561151
 40
0.3047414202679195
 40
0.3779231982712854
 40
0.4494476725313887
 40
0.5216453286650449
 40
0.5949094553782202
 40
0.6762386241368786
 40
0.7706191423467944
 40
0.8787072634056695
 40
1.0
 40
1.0
 40
1.0
 40
1.0
 10
-65.53879992444675
 20
-34.54810209892316
 30
0.0
 10
-65.53577382081232
 20
-34.45401662427124
 30
0.0
 10
-65.5298360234332
 20
-34.26940282636971
 30
0.0
 10
-65.47795942554824
 20
-34.00119531915773
 30
0.0
 10
-65.39672320652897
 20
-33.74784804808671
 30
0.0
 10
-65.2812614521755
 20
-33.51253900621362
 30
0.0
 10
-65.13759234125257
 20
-33.29737481468577
 30
0.0
 10
-64.96475691338676
 20
-33.10745474962823
 30
0.0
 10
-64.76524609635983
 20
-32.94574457816369
 30
0.0
 10
-64.5347031362444
 20
-32.80841577914807
 30
0.0
 10
-64.26431392648152
 20
-32.69273283088099
 30
0.0
 10
-63.94853560235192
 20
-32.58128982634766
 30
0.0
 10
-63.57967974328374
 20
-32.48141067521193
 30
0.0
 10
-63.31526885439192
 20
-32.42426562141197
 30
0.0
 10
-63.17545282690318
 20
-32.39404827882663
 30
0.0
  0
SPLINE
  5
105
330
1F
100
AcDbEntity
  8
0
  6
Continuous
 62
     7
370
    25
100
AcDbSpline
210
0.0
220
0.0
230
1.0
 70
     8
 71
     3
 72
    23
 73
    19
 74
     0
 42
0.000000001
 43
0.00000001
 40
0.0
 40
0.0
 40
0.0
 40
0.0
 40
0.0555670561420422
 40
0.1098589562120471
 40
0.163156191206765
 40
0.2166522189584857
 40
0.2707656012676929
 40
0.3260316553019366
 40
0.3830912952095882
 40
0.443064438529725
 40
0.5046298557896424
 40
0.5673284205023339
 40
0.6315888169906265
 40
0.6984129420736833
 40
0.7682799088103829
 40
0.841501796453274
 40
0.9186424347239394
 40
1.0
 40
1.0
 40
1.0
 40
1.0
 10
-53.36830323325646
 20
-18.36459902143549
 30
0.0
 10
-53.277993666161
 20
-18.36750727651626
 30
0.0
 10
-53.09944696122657
 20
-18.37325704786918
 30
0.0
 10
-52.8372656631561
 20
-18.41716316015695
 30
0.0
 10
-52.58469216664099
 20
-18.48746989304578
 30
0.0
 10
-52.34262709463721
 20
-18.58803281380657
 30
0.0
 10
-52.11204761461325
 20
-18.7190202272765
 30
0.0
 10
-51.89239125683486
 20
-18.87756319601788
 30
0.0
 10
-51.6836021731301
 20
-19.06477044078009
 30
0.0
 10
-51.48720960210723
 20
-19.27877491779251
 30
0.0
 10
-51.30398911539553
 20
-19.51631761280719
 30
0.0
 10
-51.15016124486426
 20
-19.78184667545143
 30
0.0
 10
-51.01422785162957
 20
-20.06635478511352
 30
0.0
 10
-50.90898407696594
 20
-20.37596100321527
 30
0.0
 10
-50.82232649720806
 20
-20.70618448791859
 30
0.0
 10
-50.76556092024803
 20
-21.05979833547502
 30
0.0
 10
-50.72638036083608
 20
-21.43458431353103
 30
0.0
 10
-50.7232060994729
 20
-21.69219061104384
 30
0.0
 10
-50.7215767423554
 20
-21.82442063445382
 30
0.0
  0
SPLINE
  5
106
330
1F
100
AcDbEntity
  8
0
  6
Continuous
 62
     7
370
    25
100
AcDbSpline
210
0.0
220
0.0
230
1.0
 70
     8
 71
     3
 72
    15
 73
    11
 74
     0
 42
0.000000001
 43
0.00000001
 40
0.0
 40
0.0
 40
0.0
 40
0.0
 40
0.1255537959067632
 40
0.2431789692633479
 40
0.3564663603207643
 40
0.4686298639679493
 40
0.5848157460958078
 40
0.7100801562317292
 40
0.8477660935748014
 40
1.0
 40
1.0
 40
1.0
 40
1.0
 10
-3.262010890116817
 20
-35.26858957615235
 30
0.0
 10
-3.194522449809512
 20
-35.26559710912689
 30
0.0
 10
-3.063807410629745
 20
-35.2598011469933
 30
0.0
 10
-2.875390474379489
 20
-35.2191918102294
 30
0.0
 10
-2.704433711075721
 20
-35.14762735362426
 30
0.0
 10
-2.549145767462031
 20
-35.04785800894079
 30
0.0
 10
-2.4109704254598
 20
-34.91536419251125
 30
0.0
 10
-2.29512471678895
 20
-34.74660654409743
 30
0.0
 10
-2.193837494277347
 20
-34.54685349259807
 30
0.0
 10
-2.14613355132991
 20
-34.39829422490602
 30
0.0
 10
-2.121084705095784
 20
-34.32028729249851
 30
0.0
  0
SPLINE
  5
107
330
1F
100
AcDbEntity
  8
0
  6
Continuous
 62
     7
370
    25
100
AcDbSpline
210
0.0
220
0.0
230
1.0
 70
     8
 71
     3
 72
    11
 73
     7
 74
     0
 42
0.000000001
 43
0.00000001
 40
0.0
 40
0.0
 40
0.0
 40
0.0
 40
0.1688786740682668
 40
0.3896378701970248
 40
0.6677061032716067
 40
0.9999999999999999
 40
0.9999999999999999
 40
0.9999999999999999
 40
0.9999999999999999
 10
-53.76281180047963
 20
-37.10592525073168
 30
0.0
 10
-53.75085130836948
 20
-37.06165856439705
 30
0.0
 10
-53.72325599061829
 20
-36.95952620529803
 30
0.0
 10
-53.69916214407312
 20
-36.77944392794666
 30
0.0
 10
-53.68884652095566
 20
-36.55412451821895
 30
0.0
 10
-53.68636977242461
 20
-36.38853628264933
 30
0.0
 10
-53.68502137877366
 20
-36.2983865873077
 30
0.0
  0
SPLINE
  5
108
330
1F
100
AcDbEntity
  8
0
  6
Continuous
 62
     7
370
    25
100
AcDbSpline
210
0.0
220
0.0
230
1.0
 70
     8
 71
     3
 72
    11
 73
     7
 74
     0
 42
0.000000001
 43
0.00000001
 40
0.0
 40
0.0
 40
0.0
 40
0.0
 40
0.2044780555222298
 40
0.4332550270695757
 40
0.6963335513064083
 40
1.0
 40
1.0
 40
1.0
 40
1.0
 10
-55.83537089307467
 20
-37.55785055778546
 30
0.0
 10
-55.79082214865502
 20
-37.58898062087097
 30
0.0
 10
-55.69643076068844
 20
-37.65494005250946
 30
0.0
 10
-55.52009645021982
 20
-37.71521178428809
 30
0.0
 10
-55.31214628062672
 20
-37.75141517831597
 30
0.0
 10
-55.16199624363954
 20
-37.75562657240823
 30
0.0
 10
-55.08154466368577
 20
-37.75788307074369
 30
0.0
  0
SPLINE
  5
109
330
1F
100
AcDbEntity
  8
0
  6
Continuous
 62
     7
370
    25
100
AcDbSpline
210
0.0
220
0.0
230
1.0
 70
     8
 71
     3
 72
    11
 73
     7
 74
     0
 42
0.000000001
 43
0.00000001
 40
0.0
 40
0.0
 40
0.0
 40
0.0
 40
0.1883552563926337
 40
0.4165212857606049
 40
0.6868850359799664
 40
1.0
 40
1.0
 40
1.0
 40
1.0
 10
-20.57964048418608
 20
-35.26858957615235
 30
0.0
 10
-20.53198597085094
 20
-35.26589440234758
 30
0.0
 10
-20.42660468472811
 20
-35.25993440271706
 30
0.0
 10
-20.25562495108768
 20
-35.22569199218081
 30
0.0
 10
-20.05745921213171
 20
-35.171196542552
 30
0.0
 10
-19.91755896658587
 20
-35.12368685804601
 30
0.0
 10
-19.84248363087704
 20
-35.0981915095583
 30
0.0
  0
SPLINE
  5
10A
330
1F
100
AcDbEntity
  8
0
  6
Continuous
 62
     7
370
    25
100
AcDbSpline
210
0.0
220
0.0
230
1.0
 70
     8
 71
     3
 72
    15
 73
    11
 74
     0
 42
0.000000001
 43
0.00000001
 40
0.0
 40
0.0
 40
0.0
 40
0.0
 40
0.1255537959067632
 40
0.2431789692633484
 40
0.3564663603207656
 40
0.4686298639679473
 40
0.5848157460958074
 40
0.7100801562317304
 40
0.8477660935748005
 40
0.9999999999999999
 40
0.9999999999999999
 40
0.9999999999999999
 40
0.9999999999999999
 10
-46.64684036728028
 20
-24.05441272335856
 30
0.0
 10
-46.57935192697298
 20
-24.05142025633311
 30
0.0
 10
-46.4486368877932
 20
-24.0456242941995
 30
0.0
 10
-46.26021995154295
 20
-24.00501495743562
 30
0.0
 10
-46.08926318823919
 20
-23.93345050083047
 30
0.0
 10
-45.93397524462549
 20
-23.833681156147
 30
0.0
 10
-45.79579990262325
 20
-23.70118733971747
 30
0.0
 10
-45.67995419395241
 20
-23.53242969130364
 30
0.0
 10
-45.5786669714408
 20
-23.3326766398043
 30
0.0
 10
-45.53096302849337
 20
-23.18411737211223
 30
0.0
 10
-45.50591418225925
 20
-23.10611043970471
 30
0.0
  0
SPLINE
  5
10B
330
1F
100
AcDbEntity
  8
0
  6
Continuous
 62
     7
370
    25
100
AcDbSpline
210
0.0
220
0.0
230
1.0
 70
     8
 71
     3
 72
    15
 73
    11
 74
     0
 42
0.000000001
 43
0.00000001
 40
0.0
 40
0.0
 40
0.0
 40
0.0
 40
0.1400850011537516
 40
0.2661978057440475
 40
0.3806885794117291
 40
0.487391356186935
 40
0.5951124128148603
 40
0.7134067815281052
 40
0.8484621838515242
 40
1.0
 40
1.0
 40
1.0
 40
1.0
 10
-62.65314570973446
 20
-30.88269151425331
 30
0.0
 10
-62.72370805484728
 20
-30.88437760005782
 30
0.0
 10
-62.85779479705725
 20
-30.88758160004184
 30
0.0
 10
-63.04675491328807
 20
-30.92343023993646
 30
0.0
 10
-63.2130238288168
 20
-30.97962461563503
 30
0.0
 10
-63.35714390469166
 20
-31.06352156415334
 30
0.0
 10
-63.48138631614101
 20
-31.17749463673656
 30
0.0
 10
-63.5895713557158
 20
-31.32446623229306
 30
0.0
 10
-63.68541138532985
 20
-31.50507629063278
 30
0.0
 10
-63.73468135967556
 20
-31.64072890874284
 30
0.0
 10
-63.76073314259578
 20
-31.71245601245043
 30
0.0
  0
SPLINE
  5
10C
330
1F
100
AcDbEntity
  8
0
  6
Continuous
 62
     7
370
    25
100
AcDbSpline
210
0.0
220
0.0
230
1.0
 70
     8
 71
     3
 72
    27
 73
    23
 74
     0
 42
0.000000001
 43
0.00000001
 40
0.0
 40
0.0
 40
0.0
 40
0.0
 40
0.0809920034575292
 40
0.1621409984536653
 40
0.2441348426659438
 40
0.3287450587946307
 40
0.3713963883349111
 40
0.4131934519565386
 40
0.4544367753729108
 40
0.4951692505333259
 40
0.5356199666614245
 40
0.5762731690468619
 40
0.61712641848975
 40
0.6585952370592827
 40
0.7004105388902883
 40
0.7421444087027632
 40
0.7838459424762341
 40
0.825811057691517
 40
0.8681989218319847
 40
0.9114524368641356
 40
0.9551121984851576
 40
1.0
 40
1.0
 40
1.0
 40
1.0
 10
-65.42026213899003
 20
-21.76700389462321
 30
0.0
 10
-65.41455751932679
 20
-21.62097424078886
 30
0.0
 10
-65.40313722240224
 20
-21.32863187529891
 30
0.0
 10
-65.32156351373436
 20
-20.89437258947079
 30
0.0
 10
-65.1834872286015
 20
-20.4688306542903
 30
0.0
 10
-65.0289321602364
 20
-20.12356287683396
 30
0.0
 10
-64.87632424056483
 20
-19.85960801419398
 30
0.0
 10
-64.75308361269616
 20
-19.66926877861804
 30
0.0
 10
-64.61549889509324
 20
-19.49322888945096
 30
0.0
 10
-64.46638607298716
 20
-19.33037275491291
 30
0.0
 10
-64.30909939376373
 20
-19.17679619051962
 30
0.0
 10
-64.13810057516665
 20
-19.03814888671075
 30
0.0
 10
-63.95560123200303
 20
-18.91204173196766
 30
0.0
 10
-63.76338332676907
 20
-18.79708354428767
 30
0.0
 10
-63.56172165126451
 20
-18.69614712589567
 30
0.0
 10
-63.35436008689796
 20
-18.60642489865818
 30
0.0
 10
-63.14046066960416
 20
-18.53270348509722
 30
0.0
 10
-62.92151371111942
 20
-18.47156776897329
 30
0.0
 10
-62.69656980857302
 20
-18.42253475513449
 30
0.0
 10
-62.46556692154054
 20
-18.39043209872486
 30
0.0
 10
-62.22878479858306
 20
-18.36902618210125
 30
0.0
 10
-62.06914813035657
 20
-18.36608832308921
 30
0.0
 10
-61.98822281943811
 20
-18.36459902143549
 30
0.0
  0
SPLINE
  5
10D
330
1F
100
AcDbEntity
  8
0
  6
Continuous
 62
     7
370
    25
100
AcDbSpline
210
0.0
220
0.0
230
1.0
 70
     8
 71
     3
 72
    23
 73
    19
 74
     0
 42
0.000000001
 43
0.00000001
 40
0.0
 40
0.0
 40
0.0
 40
0.0
 40
0.083277199886466
 40
0.1615886148200389
 40
0.2353710634480788
 40
0.3053004304781081
 40
0.3720611839680677
 40
0.435642445353968
 40
0.4973715628122253
 40
0.5572886637726654
 40
0.6156367328359847
 40
0.6720020000825185
 40
0.7267080026959645
 40
0.7807209398054419
 40
0.8339143290848489
 40
0.8879428798785348
 40
0.9429308212168269
 40
0.9999999999999999
 40
0.9999999999999999
 40
0.9999999999999999
 40
0.9999999999999999
 10
-58.30799501158616
 20
-33.05526686332746
 30
0.0
 10
-58.30527784641632
 20
-32.91814564225794
 30
0.0
 10
-58.30000553951082
 20
-32.65207968176378
 30
0.0
 10
-58.26592735743517
 20
-32.26554473488106
 30
0.0
 10
-58.20386823495078
 20
-31.90497179979801
 30
0.0
 10
-58.12240573966852
 20
-31.56765354850694
 30
0.0
 10
-58.01237679634848
 20
-31.25624858168759
 30
0.0
 10
-57.88137495366063
 20
-30.96780236303869
 30
0.0
 10
-57.72334440416905
 20
-30.7061102904567
 30
0.0
 10
-57.54311530826347
 20
-30.47012325404414
 30
0.0
 10
-57.34498821729165
 20
-30.26100093062181
 30
0.0
 10
-57.13325261214532
 20
-30.07863423751572
 30
0.0
 10
-56.90959006708618
 20
-29.92321831520912
 30
0.0
 10
-56.67413325583314
 20
-29.79675565041543
 30
0.0
 10
-56.42633287259864
 20
-29.69996501577463
 30
0.0
 10
-56.16837473487188
 20
-29.62874904375279
 30
0.0
 10
-55.89716951022048
 20
-29.58790050026556
 30
0.0
 10
-55.71264489827392
 20
-29.58185484490366
 30
0.0
 10
-55.61866900403658
 20
-29.57877587422927
 30
0.0
  0
SPLINE
  5
10E
330
1F
100
AcDbEntity
  8
0
  6
Continuous
 62
     7
370
    25
100
AcDbSpline
210
0.0
220
0.0
230
1.0
 70
     8
 71
     3
 72
    23
 73
    19
 74
     0
 42
0.000000001
 43
0.00000001
 40
0.0
 40
0.0
 40
0.0
 40
0.0
 40
0.0660002316370082
 40
0.1286198671314164
 40
0.1891328139529689
 40
0.2478322866766228
 40
0.3055847124222849
 40
0.3626127982063141
 40
0.4202639630457733
 40
0.4787380013690837
 40
0.5379731669754169
 40
0.5974881780513606
 40
0.6581859099255535
 40
0.7207092471188415
 40
0.7855521430240656
 40
0.8537073642789914
 40
0.9249477925864373
 40
1.0
 40
1.0
 40
1.0
 40
1.0
 10
-38.8122336097495
 20
-36.57250521617639
 30
0.0
 10
-38.92905546544165
 20
-36.5696713633926
 30
0.0
 10
-39.15671544760367
 20
-36.56414881052452
 30
0.0
 10
-39.48920245831732
 20
-36.52075820450106
 30
0.0
 10
-39.80353237214486
 20
-36.44942904036886
 30
0.0
 10
-40.09977118601234
 20
-36.34623056714866
 30
0.0
 10
-40.37917325572764
 20
-36.21755355251368
 30
0.0
 10
-40.63886521522718
 20
-36.05594398712326
 30
0.0
 10
-40.88025971032241
 20
-35.86631839250293
 30
0.0
 10
-41.10279310292972
 20
-35.64922347500782
 30
0.0
 10
-41.30306198779755
 20
-35.40702149623012
 30
0.0
 10
-41.47594590887552
 20
-35.13987344433106
 30
0.0
 10
-41.62264165075297
 20
-34.85111426904825
 30
0.0
 10
-41.74352972080153
 20
-34.54045092630059
 30
0.0
 10
-41.83573096601234
 20
-34.20640339579082
 30
0.0
 10
-41.90117319632121
 20
-33.85066502521656
 30
0.0
 10
-41.94339588613098
 20
-33.47301370453343
 30
0.0
 10
-41.94761572392706
 20
-33.21405172898429
 30
0.0
 10
-41.94978061855733
 20
-33.08119700389611
 30
0.0
  0
SPLINE
  5
10F
330
1F
100
AcDbEntity
  8
0
  6
Continuous
 62
     7
370
    25
100
AcDbSpline
210
0.0
220
0.0
230
1.0
 70
     8
 71
     3
 72
    19
 73
    15
 74
     0
 42
0.000000001
 43
0.00000001
 40
0.0
 40
0.0
 40
0.0
 40
0.0
 40
0.1015823127736484
 40
0.1959762903121479
 40
0.2820741806822891
 40
0.3609077849540855
 40
0.4328316250140561
 40
0.4971314585975556
 40
0.5556584150134491
 40
0.6075362992081405
 40
0.7044377126006983
 40
0.8017257451595352
 40
0.8986540569324549
 40
1.0
 40
1.0
 40
1.0
 40
1.0
 10
-48.23228324776405
 20
-30.64005948464657
 30
0.0
 10
-48.201561280391
 20
-30.58687985634547
 30
0.0
 10
-48.14229134419376
 20
-30.48428378435161
 30
0.0
 10
-48.05461599460148
 20
-30.33797366583223
 30
0.0
 10
-47.96736575572853
 20
-30.20758010323799
 30
0.0
 10
-47.88134855702395
 20
-30.09310170557738
 30
0.0
 10
-47.80159314235883
 20
-29.99024419222317
 30
0.0
 10
-47.72045322999649
 20
-29.90481149760747
 30
0.0
 10
-47.64422252282062
 20
-29.83140888780446
 30
0.0
 10
-47.54222746653756
 20
-29.75802893077388
 30
0.0
 10
-47.41132598176257
 20
-29.68641191790518
 30
0.0
 10
-47.24680015487716
 20
-29.62203615068666
 30
0.0
 10
-47.07059795624658
 20
-29.58685138021074
 30
0.0
 10
-46.95073776135542
 20
-29.58150739825587
 30
0.0
 10
-46.88947239688702
 20
-29.57877587422927
 30
0.0
  0
SPLINE
  5
110
330
1F
100
AcDbEntity
  8
0
  6
Continuous
 62
     7
370
    25
100
AcDbSpline
210
0.0
220
0.0
230
1.0
 70
     8
 71
     3
 72
    23
 73
    19
 74
     0
 42
0.000000001
 43
0.00000001
 40
0.0
 40
0.0
 40
0.0
 40
0.0
 40
0.0669483066585516
 40
0.1316346426994928
 40
0.194402181268241
 40
0.2553585890331229
 40
0.3155260221793563
 40
0.3745679929736583
 40
0.433280145692846
 40
0.4917915038679455
 40
0.5504715756324976
 40
0.6101479981780902
 40
0.6704209643053426
 40
0.7320990473767413
 40
0.7955231524141867
 40
0.860925995796189
 40
0.929140333523816
 40
1.0
 40
1.0
 40
1.0
 40
1.0
 10
-0.3430179232448219
 20
-34.55736286341197
 30
0.0
 10
-0.3721006902267022
 20
-34.63747400379629
 30
0.0
 10
-0.429283609876895
 20
-34.79498958360808
 30
0.0
 10
-0.5337571779330564
 20
-35.01958782772681
 30
0.0
 10
-0.6505380625525443
 20
-35.2292083876283
 30
0.0
 10
-0.7790648367057623
 20
-35.42497126044999
 30
0.0
 10
-0.9188591763723275
 20
-35.60713185947085
 30
0.0
 10
-1.074543544461821
 20
-35.77185829829283
 30
0.0
 10
-1.238533724429972
 20
-35.92528279234836
 30
0.0
 10
-1.417689355557757
 20
-36.06009976574675
 30
0.0
 10
-1.607521444899132
 20
-36.18134492068301
 30
0.0
 10
-1.808983985635544
 20
-36.2874331480977
 30
0.0
 10
-2.023688117117085
 20
-36.3738325533627
 30
0.0
 10
-2.248382524723678
 20
-36.44618621012061
 30
0.0
 10
-2.484087123206581
 20
-36.50393899022838
 30
0.0
 10
-2.731763537927263
 20
-36.54431386050432
 30
0.0
 10
-2.991094007058592
 20
-36.56884444122201
 30
0.0
 10
-3.16811336261586
 20
-36.5712695816473
 30
0.0
 10
-3.258306584321294
 20
-36.57250521617639
 30
0.0
  0
SPLINE
  5
111
330
1F
100
AcDbEntity
  8
0
  6
Continuous
 62
     7
370
    25
100
AcDbSpline
210
0.0
220
0.0
230
1.0
 70
     8
 71
     3
 72
    21
 73
    17
 74
     0
 42
0.000000001
 43
0.00000001
 40
0.0
 40
0.0
 40
0.0
 40
0.0
 40
0.1266148494168479
 40
0.2386689910107073
 40
0.3372971678903568
 40
0.4224835391181206
 40
0.4931096808886712
 40
0.5504299288782468
 40
0.5932436156323659
 40
0.6227189843515004
 40
0.7099802689228238
 40
0.8011260910646791
 40
0.8483994215865076
 40
0.8966714096318348
 40
0.9472300150590324
 40
1.0
 40
1.0
 40
1.0
 40
1.0
 10
-21.08713037817271
 20
-33.90540504339995
 30
0.0
 10
-21.08726567860725
 20
-33.97516960991284
 30
0.0
 10
-21.08752071992618
 20
-34.10667581771248
 30
0.0
 10
-21.08584289389457
 20
-34.29252386353198
 30
0.0
 10
-21.08189942815112
 20
-34.45550616663029
 30
0.0
 10
-21.0778044796336
 20
-34.59563061351097
 30
0.0
 10
-21.07574477358946
 20
-34.71308635161237
 30
0.0
 10
-21.06773957317591
 20
-34.80689824104786
 30
0.0
 10
-21.06046739419925
 20
-34.87788270801449
 30
0.0
 10
-21.04918137250005
 20
-34.9653035726121
 30
0.0
 10
-20.99734139112132
 20
-35.07106163052092
 30
0.0
 10
-20.91124336952263
 20
-35.16349341169604
 30
0.0
 10
-20.8227379232715
 20
-35.21714790979922
 30
0.0
 10
-20.74760928972154
 20
-35.24674616281098
 30
0.0
 10
-20.66580462974257
 20
-35.26606844878222
 30
0.0
 10
-20.6087687491588
 20
-35.26773729512998
 30
0.0
 10
-20.57964048418608
 20
-35.26858957615235
 30
0.0
  0
SPLINE
  5
112
330
1F
100
AcDbEntity
  8
0
  6
Continuous
 62
     7
370
    25
100
AcDbSpline
210
0.0
220
0.0
230
1.0
 70
     8
 71
     3
 72
    27
 73
    23
 74
     0
 42
0.000000001
 43
0.00000001
 40
0.0
 40
0.0
 40
0.0
 40
0.0
 40
0.0626629532347216
 40
0.1212429670680552
 40
0.1758290112477684
 40
0.2265310852046091
 40
0.2734075865816547
 40
0.3166839126961943
 40
0.3565752690086995
 40
0.3933563252848608
 40
0.4608313373677047
 40
0.522993569324328
 40
0.581116207962366
 40
0.6365908550713127
 40
0.6661252728081734
 40
0.6994558626958449
 40
0.7378045216619872
 40
0.7803748375485519
 40
0.8279857223266929
 40
0.8800201937908867
 40
0.937751960179278
 40
1.0
 40
1.0
 40
1.0
 40
1.0
 10
-62.47533903154935
 20
-29.57877587422927
 30
0.0
 10
-62.38209721392256
 20
-29.57929355848313
 30
0.0
 10
-62.20168894970391
 20
-29.58029519616061
 30
0.0
 10
-61.94033066067188
 20
-29.59342709289647
 30
0.0
 10
-61.69738098703107
 20
-29.6149597596679
 30
0.0
 10
-61.47315779638517
 20
-29.64678885262213
 30
0.0
 10
-61.26692209118932
 20
-29.68463894154349
 30
0.0
 10
-61.07933252409975
 20
-29.73263698919504
 30
0.0
 10
-60.90983061316183
 20
-29.78928003433632
 30
0.0
 10
-60.71398217872265
 20
-29.87733053031328
 30
0.0
 10
-60.49885417730732
 20
-30.00106385690721
 30
0.0
 10
-60.27432162886205
 20
-30.16907220630772
 30
0.0
 10
-60.09417895342526
 20
-30.36019002967365
 30
0.0
 10
-59.97495880334307
 20
-30.53856348070847
 30
0.0
 10
-59.90455215913881
 20
-30.70023905460309
 30
0.0
 10
-59.85487082459279
 20
-30.84268475076614
 30
0.0
 10
-59.81917445060817
 20
-31.00911799012241
 30
0.0
 10
-59.78404078611808
 20
-31.19715583308611
 30
0.0
 10
-59.76248035876812
 20
-31.40781569998174
 30
0.0
 10
-59.74302267469447
 20
-31.64114929899524
 30
0.0
 10
-59.73248463526345
 20
-31.89695981084204
 30
0.0
 10
-59.73114399128207
 20
-32.07547052358787
 30
0.0
 10
-59.73044843706695
 20
-32.16808562529974
 30
0.0
  0
SPLINE
  5
113
330
1F
100
AcDbEntity
  8
0
  6
Continuous
 62
     7
370
    25
100
AcDbSpline
210
0.0
220
0.0
230
1.0
 70
     8
 71
     3
 72
    23
 73
    19
 74
     0
 42
0.000000001
 43
0.00000001
 40
0.0
 40
0.0
 40
0.0
 40
0.0
 40
0.1124956511051162
 40
0.2133808240586177
 40
0.3032870060337943
 40
0.3809924661160109
 40
0.4477702064033503
 40
0.5036772566221385
 40
0.5475136987831339
 40
0.5806073973699084
 40
0.63399039297529
 40
0.6851311831323331
 40
0.7347849065046131
 40
0.7849628128005781
 40
0.8353266051383796
 40
0.8872111552599781
 40
0.9411929615125934
 40
1.0
 40
1.0
 40
1.0
 40
1.0
 10
-32.58529556747559
 20
-32.81448698661847
 30
0.0
 10
-32.58477422086508
 20
-32.92808535622261
 30
0.0
 10
-32.58378533491013
 20
-33.14355780764382
 30
0.0
 10
-32.58090645813613
 20
-33.44982296868837
 30
0.0
 10
-32.57300686542716
 20
-33.72084849750026
 30
0.0
 10
-32.56456808750836
 20
-33.95740015615016
 30
0.0
 10
-32.55205526268887
 20
-34.15939715664695
 30
0.0
 10
-32.53583064588912
 20
-34.3268316224586
 30
0.0
 10
-32.51771930638936
 20
-34.45972073323854
 30
0.0
 10
-32.49295695574942
 20
-34.58927097164052
 30
0.0
 10
-32.44211519934239
 20
-34.71929489089328
 30
0.0
 10
-32.37208488112404
 20
-34.85896483486233
 30
0.0
 10
-32.27635089992793
 20
-34.97885608594528
 30
0.0
 10
-32.16560500179349
 20
-35.08298456883119
 30
0.0
 10
-32.03655277966457
 20
-35.16926920112273
 30
0.0
 10
-31.8876906227749
 20
-35.22375303508397
 30
0.0
 10
-31.72558390276135
 20
-35.26442131624675
 30
0.0
 10
-31.61135310808921
 20
-35.2671610860506
 30
0.0
 10
-31.55179425052473
 20
-35.26858957615236
 30
0.0
  0
SPLINE
  5
114
330
1F
100
AcDbEntity
  8
0
  6
Continuous
 62
     7
370
    25
100
AcDbSpline
210
0.0
220
0.0
230
1.0
 70
     8
 71
     3
 72
    15
 73
    11
 74
     0
 42
0.000000001
 43
0.00000001
 40
0.0
 40
0.0
 40
0.0
 40
0.0
 40
0.0700652130149751
 40
0.155883301301549
 40
0.2572498361196402
 40
0.3743898858445198
 40
0.507401452648987
 40
0.6562040682759631
 40
0.8194483356678571
 40
1.0
 40
1.0
 40
1.0
 40
1.0
 10
-22.80778042019307
 20
-35.27414603484564
 30
0.0
 10
-22.81222041366464
 20
-35.24452959729961
 30
0.0
 10
-22.82209865152795
 20
-35.17863801060764
 30
0.0
 10
-22.83550129673749
 20
-35.0694576521157
 30
0.0
 10
-22.84377126083098
 20
-34.93959459645209
 30
0.0
 10
-22.85054820470415
 20
-34.7895137740161
 30
0.0
 10
-22.85924131628833
 20
-34.61918345941557
 30
0.0
 10
-22.86107926840231
 20
-34.42893678601986
 30
0.0
 10
-22.86639873120275
 20
-34.21844264324652
 30
0.0
 10
-22.86561090403209
 20
-34.07148583904493
 30
0.0
 10
-22.86519716002367
 20
-33.9943083824925
 30
0.0
  0
SPLINE
  5
115
330
1F
100
AcDbEntity
  8
0
  6
Continuous
 62
     7
370
    25
100
AcDbSpline
210
0.0
220
0.0
230
1.0
 70
     8
 71
     3
 72
    11
 73
     7
 74
     0
 42
0.000000001
 43
0.00000001
 40
0.0
 40
0.0
 40
0.0
 40
0.0
 40
0.3078199082007687
 40
0.5693512298526867
 40
0.7995810272580155
 40
1.0
 40
1.0
 40
1.0
 40
1.0
 10
-56.05577708790828
 20
-37.04665635800331
 30
0.0
 10
-56.04721531424443
 20
-37.10456113770532
 30
0.0
 10
-56.03137924830018
 20
-37.21166323428639
 30
0.0
 10
-55.98126720342963
 20
-37.3550400579262
 30
0.0
 10
-55.92210606603666
 20
-37.47426790586367
 30
0.0
 10
-55.86291686490023
 20
-37.53130578596664
 30
0.0
 10
-55.83537089307467
 20
-37.55785055778546
 30
0.0
  0
SPLINE
  5
116
330
1F
100
AcDbEntity
  8
0
  6
Continuous
 62
     7
370
    25
100
AcDbSpline
210
0.0
220
0.0
230
1.0
 70
     8
 71
     3
 72
    15
 73
    11
 74
     0
 42
0.000000001
 43
0.00000001
 40
0.0
 40
0.0
 40
0.0
 40
0.0
 40
0.1370326170436923
 40
0.2669519978672159
 40
0.3922510666566296
 40
0.5135719721882764
 40
0.6328122822067579
 40
0.7529242936391961
 40
0.8742596907285604
 40
1.0
 40
1.0
 40
1.0
 40
1.0
 10
-40.40878940761982
 20
-19.45736923111472
 30
0.0
 10
-40.34004712934326
 20
-19.37075456698288
 30
0.0
 10
-40.20613092078087
 20
-19.20202132570484
 30
0.0
 10
-39.98193078597755
 20
-18.97777200857388
 30
0.0
 10
-39.74448209336303
 20
-18.78746052754372
 30
0.0
 10
-39.49271397789748
 20
-18.63211131255481
 30
0.0
 10
-39.22675558990693
 20
-18.51219725104989
 30
0.0
 10
-38.9478250571387
 20
-18.42774202941822
 30
0.0
 10
-38.65569248077268
 20
-18.37310666385288
 30
0.0
 10
-38.45625061860754
 20
-18.36746840886489
 30
0.0
 10
-38.35475184400241
 20
-18.36459902143549
 30
0.0
  0
SPLINE
  5
117
330
1F
100
AcDbEntity
  8
0
  6
Continuous
 62
     7
370
    25
100
AcDbSpline
210
0.0
220
0.0
230
1.0
 70
     8
 71
     3
 72
    23
 73
    19
 74
     0
 42
0.000000001
 43
0.00000001
 40
0.0
 40
0.0
 40
0.0
 40
0.0
 40
0.0654462607211137
 40
0.1281097227973885
 40
0.1880337335302552
 40
0.2458243803674653
 40
0.3021238636356469
 40
0.3566979528768803
 40
0.4100331418274052
 40
0.463347553981393
 40
0.5175776949600094
 40
0.5746071294648507
 40
0.6350628995204501
 40
0.6989943828786369
 40
0.7669198212133869
 40
0.8399743670527313
 40
0.9176086172957334
 40
1.0
 40
1.0
 40
1.0
 40
1.0
 10
-65.30172435353329
 20
-31.47538044153696
 30
0.0
 10
-65.27863037923152
 20
-31.39727516008923
 30
0.0
 10
-65.23342439475677
 20
-31.2443856619723
 30
0.0
 10
-65.15047068493193
 20
-31.0252936288597
 30
0.0
 10
-65.05333273160052
 20
-30.82274323266078
 30
0.0
 10
-64.94620334442605
 20
-30.63431467828211
 30
0.0
 10
-64.82578150634538
 20
-30.46206785686632
 30
0.0
 10
-64.69399192218084
 20
-30.30555468713048
 30
0.0
 10
-64.55008977184515
 20
-30.16531083528088
 30
0.0
 10
-64.39338731618483
 20
-30.04025056926616
 30
0.0
 10
-64.22086976375508
 20
-29.92915465562556
 30
0.0
 10
-64.02862093567605
 20
-29.83496743026332
 30
0.0
 10
-63.81692895753016
 20
-29.75566044742684
 30
0.0
 10
-63.58609105615173
 20
-29.69192542080977
 30
0.0
 10
-63.33649451555767
 20
-29.63864047231911
 30
0.0
 10
-63.06622888283317
 20
-29.60602023285372
 30
0.0
 10
-62.77703732817494
 20
-29.58247348474977
 30
0.0
 10
-62.57787861505054
 20
-29.58003259807214
 30
0.0
 10
-62.47533903154935
 20
-29.57877587422927
 30
0.0
  0
SPLINE
  5
118
330
1F
100
AcDbEntity
  8
0
  6
Continuous
 62
     7
370
    25
100
AcDbSpline
210
0.0
220
0.0
230
1.0
 70
     8
 71
     3
 72
    23
 73
    19
 74
     0
 42
0.000000001
 43
0.00000001
 40
0.0
 40
0.0
 40
0.0
 40
0.0
 40
0.0805936362987983
 40
0.158056405958523
 40
0.2337634999242747
 40
0.3096193553119457
 40
0.3843789904500521
 40
0.4566921633506146
 40
0.5291999448279621
 40
0.6037582492134642
 40
0.6430099055287916
 40
0.6848816421833995
 40
0.7296695142269845
 40
0.77787207073075
 40
0.82818448497586
 40
0.8821544244922517
 40
0.9394140860851516
 40
1.0
 40
1.0
 40
1.0
 40
1.0
 10
-32.28524679803824
 20
-36.57250521617639
 30
0.0
 10
-32.38799154779323
 20
-36.56910408599682
 30
0.0
 10
-32.58948966381287
 20
-36.56243395126823
 30
0.0
 10
-32.88308381545963
 20
-36.5052523125015
 30
0.0
 10
-33.16022396851399
 20
-36.41179217328854
 30
0.0
 10
-33.41953129832757
 20
-36.28327856086393
 30
0.0
 10
-33.65233820465992
 20
-36.11879040011591
 30
0.0
 10
-33.85501358879453
 20
-35.92403262759017
 30
0.0
 10
-34.0188005827645
 20
-35.69597668384344
 30
0.0
 10
-34.12758960176021
 20
-35.4839253485349
 30
0.0
 10
-34.1958580525073
 20
-35.29749031460349
 30
0.0
 10
-34.23950405635137
 20
-35.14304835157987
 30
0.0
 10
-34.27907185348778
 20
-34.97577559149862
 30
0.0
 10
-34.30943190167194
 20
-34.79566085440826
 30
0.0
 10
-34.33406199576074
 20
-34.60290652573234
 30
0.0
 10
-34.34953726970967
 20
-34.3976452965481
 30
0.0
 10
-34.36155484585337
 20
-34.17904596232646
 30
0.0
 10
-34.36274861657017
 20
-34.02890054205377
 30
0.0
 10
-34.36336234932655
 20
-33.95170886584398
 30
0.0
  0
SPLINE
  5
119
330
1F
100
AcDbEntity
  8
0
  6
Continuous
 62
     7
370
    25
100
AcDbSpline
210
0.0
220
0.0
230
1.0
 70
     8
 71
     3
 72
    19
 73
    15
 74
     0
 42
0.000000001
 43
0.00000001
 40
0.0
 40
0.0
 40
0.0
 40
0.0
 40
0.1002512679208534
 40
0.1957711653072965
 40
0.2884084686465204
 40
0.3782786703583213
 40
0.4636895720034382
 40
0.5418651860194705
 40
0.6139443485765762
 40
0.6822324867804581
 40
0.7518620921635963
 40
0.8277017080977305
 40
0.9097183377679816
 40
1.0
 40
1.0
 40
1.0
 40
1.0
 10
-21.09453898976376
 20
-36.57250521617639
 30
0.0
 10
-21.17426344138867
 20
-36.57013631305595
 30
0.0
 10
-21.32994973964492
 20
-36.56551030748007
 30
0.0
 10
-21.55792557200512
 20
-36.53618868355401
 30
0.0
 10
-21.77325333072736
 20
-36.48419853658944
 30
0.0
 10
-21.97438560144615
 20
-36.4125407440394
 30
0.0
 10
-22.15602787093441
 20
-36.32448435156025
 30
0.0
 10
-22.31600898907101
 20
-36.2256431508252
 30
0.0
 10
-22.4472388984786
 20
-36.11065247102663
 30
0.0
 10
-22.55685691429071
 20
-35.9837329904561
 30
0.0
 10
-22.64331857918731
 20
-35.83636316077405
 30
0.0
 10
-22.71196001385926
 20
-35.66866341777271
 30
0.0
 10
-22.7709514857202
 20
-35.4798951765912
 30
0.0
 10
-22.79511769643944
 20
-35.34488781930837
 30
0.0
 10
-22.80778042019307
 20
-35.27414603484564
 30
0.0
  0
SPLINE
  5
11A
330
1F
100
AcDbEntity
  8
0
  6
Continuous
 62
     7
370
    25
100
AcDbSpline
210
0.0
220
0.0
230
1.0
 70
     8
 71
     3
 72
    15
 73
    11
 74
     0
 42
0.000000001
 43
0.00000001
 40
0.0
 40
0.0
 40
0.0
 40
0.0
 40
0.1265376195843024
 40
0.2510980205551672
 40
0.375871519745496
 40
0.5023910780080406
 40
0.6285647159417761
 40
0.7521581614259238
 40
0.8758093754368167
 40
1.0
 40
1.0
 40
1.0
 40
1.0
 10
-30.21453985834097
 20
-35.45936132462177
 30
0.0
 10
-30.27340952914785
 20
-35.54448980309843
 30
0.0
 10
-30.39022900037627
 20
-35.71341658162153
 30
0.0
 10
-30.60490927078618
 20
-35.93478039287404
 30
0.0
 10
-30.84531503394834
 20
-36.12685911165399
 30
0.0
 10
-31.10977077075307
 20
-36.28694124884741
 30
0.0
 10
-31.39015624160203
 20
-36.41461995146624
 30
0.0
 10
-31.68177613693221
 20
-36.50629285201732
 30
0.0
 10
-31.98126270277126
 20
-36.56136232061967
 30
0.0
 10
-32.18377185058304
 20
-36.56878553228923
 30
0.0
 10
-32.28524679803824
 20
-36.57250521617639
 30
0.0
  0
SPLINE
  5
11B
330
1F
100
AcDbEntity
  8
0
  6
Continuous
 62
     7
370
    25
100
AcDbSpline
210
0.0
220
0.0
230
1.0
 70
     8
 71
     3
 72
    23
 73
    19
 74
     0
 42
0.000000001
 43
0.00000001
 40
0.0
 40
0.0
 40
0.0
 40
0.0
 40
0.0679669892977358
 40
0.1338467330702308
 40
0.1978944383452329
 40
0.2613634924272743
 40
0.3227335625080074
 40
0.3796232478317348
 40
0.4336926959688703
 40
0.4856042334632033
 40
0.5368760466408544
 40
0.5881088319176743
 40
0.6404722274142327
 40
0.6941021211934258
 40
0.7538574856407088
 40
0.8245053255583066
 40
0.9066448990581112
 40
1.0
 40
1.0
 40
1.0
 40
1.0
 10
-38.35475184400241
 20
-18.36459902143549
 30
0.0
 10
-38.26568017891965
 20
-18.36683868641235
 30
0.0
 10
-38.09027221244011
 20
-18.37124923693727
 30
0.0
 10
-37.83382431704514
 20
-18.41358427759131
 30
0.0
 10
-37.58896302849665
 20
-18.48005631336044
 30
0.0
 10
-37.35910225954161
 20
-18.57277341665039
 30
0.0
 10
-37.14778335102068
 20
-18.68333782690257
 30
0.0
 10
-36.96212647182114
 20
-18.81261023561053
 30
0.0
 10
-36.80254443994756
 20
-18.95517227062142
 30
0.0
 10
-36.67166706269338
 20
-19.11522693042256
 30
0.0
 10
-36.56511288742054
 20
-19.28745480856793
 30
0.0
 10
-36.47236758800621
 20
-19.46818789514155
 30
0.0
 10
-36.40069944044694
 20
-19.6616865529999
 30
0.0
 10
-36.3453812196236
 20
-19.8719414410326
 30
0.0
 10
-36.30787916179209
 20
-20.11026355501085
 30
0.0
 10
-36.27798333748306
 20
-20.3870901281381
 30
0.0
 10
-36.26289947242078
 20
-20.70926145751537
 30
0.0
 10
-36.26098521408709
 20
-20.9390804821289
 30
0.0
 10
-36.25996691663426
 20
-21.06133364057612
 30
0.0
  0
SPLINE
  5
11C
330
1F
100
AcDbEntity
  8
0
  6
Continuous
 62
     7
370
    25
100
AcDbSpline
210
0.0
220
0.0
230
1.0
 70
     8
 71
     3
 72
    23
 73
    19
 74
     0
 42
0.000000001
 43
0.00000001
 40
0.0
 40
0.0
 40
0.0
 40
0.0
 40
0.0763845234194742
 40
0.1493235336735436
 40
0.2184235994851378
 40
0.2847118239282925
 40
0.3482500707493438
 40
0.4105908918799367
 40
0.4712990898669429
 40
0.5319668696084645
 40
0.5916512643505563
 40
0.6499541942573334
 40
0.706789277486983
 40
0.7634850045536319
 40
0.8204235733402988
 40
0.8785210417955093
 40
0.9382998869255071
 40
1.0
 40
1.0
 40
1.0
 40
1.0
 10
-6.506982766994822
 20
-33.12564867344239
 30
0.0
 10
-6.50502687559745
 20
-32.99091602789807
 30
0.0
 10
-6.501203318129747
 20
-32.72752818657609
 30
0.0
 10
-6.455935469021616
 20
-32.34465249284116
 30
0.0
 10
-6.392059940667266
 20
-31.9825921807133
 30
0.0
 10
-6.294645454200836
 20
-31.64510866982149
 30
0.0
 10
-6.172890377920672
 20
-31.32835227441116
 30
0.0
 10
-6.02008302590928
 20
-31.03639632719612
 30
0.0
 10
-5.843823981218335
 20
-30.7639302021334
 30
0.0
 10
-5.637736877388574
 20
-30.51918268568791
 30
0.0
 10
-5.411890592883465
 20
-30.29911627170549
 30
0.0
 10
-5.171547781822596
 20
-30.10520083731591
 30
0.0
 10
-4.914909216032956
 20
-29.94323014221816
 30
0.0
 10
-4.645797461443478
 20
-29.80804192350901
 30
0.0
 10
-4.359734701867128
 20
-29.70685054173125
 30
0.0
 10
-4.060301270772336
 20
-29.63236039924331
 30
0.0
 10
-3.746187940497816
 20
-29.58699690658749
 30
0.0
 10
-3.531957505736998
 20
-29.58154496036204
 30
0.0
 10
-3.42314819222206
 20
-29.57877587422927
 30
0.0
  0
SPLINE
  5
11D
330
1F
100
AcDbEntity
  8
0
  6
Continuous
 62
     7
370
    25
100
AcDbSpline
210
0.0
220
0.0
230
1.0
 70
     8
 71
     3
 72
    23
 73
    19
 74
     0
 42
0.000000001
 43
0.00000001
 40
0.0
 40
0.0
 40
0.0
 40
0.0
 40
0.076984766320383
 40
0.1499140338706281
 40
0.2201641160562671
 40
0.2864884647452806
 40
0.3507795777884868
 40
0.4125353062152474
 40
0.4737931789478682
 40
0.5346544088815021
 40
0.5942958882119939
 40
0.6522134790637097
 40
0.7089265476957176
 40
0.7659968135960997
 40
0.8224146021830702
 40
0.8799657443920198
 40
0.9387421272673803
 40
1.0
 40
1.0
 40
1.0
 40
1.0
 10
-48.11374546230731
 20
-22.39488372696433
 30
0.0
 10
-48.11082944621298
 20
-22.45852528995788
 30
0.0
 10
-48.105151027528
 20
-22.58245582694865
 30
0.0
 10
-48.08364167079564
 20
-22.76360878640413
 30
0.0
 10
-48.04640529988972
 20
-22.93317632570702
 30
0.0
 10
-47.9976749485424
 20
-23.09218718914388
 30
0.0
 10
-47.93972981535971
 20
-23.2407529563191
 30
0.0
 10
-47.86601902050623
 20
-23.37744702384954
 30
0.0
 10
-47.78109470810386
 20
-23.50401324592258
 30
0.0
 10
-47.68291685040958
 20
-23.61838769875766
 30
0.0
 10
-47.57542010473995
 20
-23.71991858123076
 30
0.0
 10
-47.46198683306898
 20
-23.80914499043748
 30
0.0
 10
-47.34279114866114
 20
-23.88716640181653
 30
0.0
 10
-47.21475354741659
 20
-23.94650666395865
 30
0.0
 10
-47.08213089648996
 20
-23.99661282236013
 30
0.0
 10
-46.9425357255257
 20
-24.02873014747652
 30
0.0
 10
-46.79690238632331
 20
-24.05007204403216
 30
0.0
 10
-46.69754571311452
 20
-24.05294602547055
 30
0.0
 10
-46.64684036728028
 20
-24.05441272335856
 30
0.0
  0
SPLINE
  5
11E
330
1F
100
AcDbEntity
  8
0
  6
Continuous
 62
     7
370
    25
100
AcDbSpline
210
0.0
220
0.0
230
1.0
 70
     8
 71
     3
 72
    23
 73
    19
 74
     0
 42
0.000000001
 43
0.00000001
 40
0.0
 40
0.0
 40
0.0
 40
0.0
 40
0.073658043555172
 40
0.1438276431904292
 40
0.2107202264854361
 40
0.2742615014540526
 40
0.3357608541988413
 40
0.3947642180161719
 40
0.4517976215845822
 40
0.5082222848758086
 40
0.5641850524865494
 40
0.6209247198347952
 40
0.6785797592426366
 40
0.7382850548715318
 40
0.7995830167209317
 40
0.8633448063206245
 40
0.9301390634562644
 40
1.0
 40
1.0
 40
1.0
 40
1.0
 10
-38.79926853946517
 20
-29.57877587422928
 30
0.0
 10
-38.70288232601737
 20
-29.57975855188776
 30
0.0
 10
-38.51467474885217
 20
-29.58167736760445
 30
0.0
 10
-38.24017850764299
 20
-29.6094058133358
 30
0.0
 10
-37.98056065720873
 20
-29.64852146007895
 30
0.0
 10
-37.73601967577568
 20
-29.70657485140069
 30
0.0
 10
-37.50644667242562
 20
-29.7798331652639
 30
0.0
 10
-37.29223419095997
 20
-29.87051437833185
 30
0.0
 10
-37.09425482629102
 20
-29.97929575347773
 30
0.0
 10
-36.91000020476562
 20
-30.10309255424178
 30
0.0
 10
-36.74055406957758
 20
-30.24583557754698
 30
0.0
 10
-36.58242062619541
 20
-30.40324634065392
 30
0.0
 10
-36.43736472075288
 20
-30.57918214813443
 30
0.0
 10
-36.30368065936663
 20
-30.77125581093395
 30
0.0
 10
-36.18581351647825
 20
-30.98255618284429
 30
0.0
 10
-36.07747124343764
 20
-31.20909693389656
 30
0.0
 10
-35.98345002037306
 20
-31.45412882685284
 30
0.0
 10
-35.93111056357678
 20
-31.62506826650992
 30
0.0
 10
-35.90435356026407
 20
-31.71245601245043
 30
0.0
  0
SPLINE
  5
11F
330
1F
100
AcDbEntity
  8
0
  6
Continuous
 62
     7
370
    25
100
AcDbSpline
210
0.0
220
0.0
230
1.0
 70
     8
 71
     3
 72
    15
 73
    11
 74
     0
 42
0.000000001
 43
0.00000001
 40
0.0
 40
0.0
 40
0.0
 40
0.0
 40
0.1438681131250082
 40
0.2793809281031443
 40
0.4072018562414328
 40
0.5294610055533092
 40
0.6481661389661175
 40
0.7649848817576292
 40
0.8814305286840762
 40
1.0
 40
1.0
 40
1.0
 40
1.0
 10
-3.258306584321294
 20
-36.57250521617639
 30
0.0
 10
-3.399248594942624
 20
-36.56902650490442
 30
0.0
 10
-3.672947254644204
 20
-36.56227111232538
 30
0.0
 10
-4.06892561161172
 20
-36.50798455554752
 30
0.0
 10
-4.436705317738725
 20
-36.41959929584839
 30
0.0
 10
-4.776994707454428
 20
-36.29579852870638
 30
0.0
 10
-5.08866272844193
 20
-36.13340299427183
 30
0.0
 10
-5.372178690075529
 20
-35.93593357228185
 30
0.0
 10
-5.628098607062826
 20
-35.70296109705514
 30
0.0
 10
-5.771542123869766
 20
-35.5225830766613
 30
0.0
 10
-5.843912029596236
 20
-35.43157903115536
 30
0.0
  0
SPLINE
  5
120
330
1F
100
AcDbEntity
  8
0
  6
Continuous
 62
     7
370
    25
100
AcDbSpline
210
0.0
220
0.0
230
1.0
 70
     8
 71
     3
 72
    23
 73
    19
 74
     0
 42
0.000000001
 43
0.00000001
 40
0.0
 40
0.0
 40
0.0
 40
0.0
 40
0.0672534245612617
 40
0.1323012442841844
 40
0.1950460122999025
 40
0.256021148150712
 40
0.3166107563520511
 40
0.3768975443285287
 40
0.4376806910247986
 40
0.4998090683505547
 40
0.5617563947180373
 40
0.6229555330468548
 40
0.6834801768846696
 40
0.7439294123221218
 40
0.8054380029145671
 40
0.8680335690320379
 40
0.9327465754387382
 40
0.9999999999999999
 40
0.9999999999999999
 40
0.9999999999999999
 40
0.9999999999999999
 10
-61.98822281943811
 20
-18.36459902143549
 30
0.0
 10
-61.86521753806999
 20
-18.36722970581143
 30
0.0
 10
-61.62324098617401
 20
-18.37240480014344
 30
0.0
 10
-61.26900096476877
 20
-18.41954381888425
 30
0.0
 10
-60.93223527309231
 20
-18.49720432135344
 30
0.0
 10
-60.61248944387059
 20
-18.60533947074443
 30
0.0
 10
-60.3095224732018
 20
-18.74396029182675
 30
0.0
 10
-60.02485831941227
 20
-18.91626381492645
 30
0.0
 10
-59.75614512030777
 20
-19.11719475235662
 30
0.0
 10
-59.50846879064904
 20
-19.3479786760182
 30
0.0
 10
-59.2820811985222
 20
-19.60067320500704
 30
0.0
 10
-59.08573716415322
 20
-19.87385981277647
 30
0.0
 10
-58.91815496434945
 20
-20.16225393456833
 30
0.0
 10
-58.77935987547401
 20
-20.46631404557071
 30
0.0
 10
-58.67400582746852
 20
-20.78764477318967
 30
0.0
 10
-58.60122137075889
 20
-21.1254595347278
 30
0.0
 10
-58.55248265985232
 20
-21.47850534138997
 30
0.0
 10
-58.54757278080589
 20
-21.71991414369212
 30
0.0
 10
-58.54507058249963
 20
-21.84294216343143
 30
0.0
  0
SPLINE
  5
121
330
1F
100
AcDbEntity
  8
0
  6
Continuous
 62
     7
370
    25
100
AcDbSpline
210
0.0
220
0.0
230
1.0
 70
     8
 71
     3
 72
    23
 73
    19
 74
     0
 42
0.000000001
 43
0.00000001
 40
0.0
 40
0.0
 40
0.0
 40
0.0
 40
0.1124956511051161
 40
0.2133808240586175
 40
0.303287006033794
 40
0.3809924661160106
 40
0.4477702064033499
 40
0.5036772566221381
 40
0.5475136987831333
 40
0.5806073973699079
 40
0.6339903929752896
 40
0.6851311831323326
 40
0.734784906504613
 40
0.7849628128005771
 40
0.8353266051383785
 40
0.887211155259977
 40
0.9411929615125922
 40
1.0
 40
1.0
 40
1.0
 40
1.0
 10
-16.93830788718714
 20
-32.81448698661848
 30
0.0
 10
-16.93778654057663
 20
-32.92808535622261
 30
0.0
 10
-16.93679765462168
 20
-33.14355780764382
 30
0.0
 10
-16.93391877784767
 20
-33.44982296868836
 30
0.0
 10
-16.92601918513873
 20
-33.72084849750027
 30
0.0
 10
-16.9175804072199
 20
-33.95740015615016
 30
0.0
 10
-16.90506758240042
 20
-34.15939715664694
 30
0.0
 10
-16.88884296560065
 20
-34.32683162245859
 30
0.0
 10
-16.87073162610092
 20
-34.45972073323855
 30
0.0
 10
-16.84596927546096
 20
-34.58927097164052
 30
0.0
 10
-16.79512751905394
 20
-34.71929489089328
 30
0.0
 10
-16.72509720083558
 20
-34.85896483486233
 30
0.0
 10
-16.62936321963947
 20
-34.97885608594528
 30
0.0
 10
-16.51861732150506
 20
-35.08298456883121
 30
0.0
 10
-16.3895650993761
 20
-35.16926920112272
 30
0.0
 10
-16.24070294248645
 20
-35.22375303508396
 30
0.0
 10
-16.07859622247291
 20
-35.26442131624677
 30
0.0
 10
-15.96436542780074
 20
-35.26716108605059
 30
0.0
 10
-15.90480657023626
 20
-35.26858957615235
 30
0.0
  0
SPLINE
  5
122
330
1F
100
AcDbEntity
  8
0
  6
Continuous
 62
     7
370
    25
100
AcDbSpline
210
0.0
220
0.0
230
1.0
 70
     8
 71
     3
 72
    23
 73
    19
 74
     0
 42
0.000000001
 43
0.00000001
 40
0.0
 40
0.0
 40
0.0
 40
0.0
 40
0.0645261290897472
 40
0.1270693973810661
 40
0.190336157550259
 40
0.2543774777052794
 40
0.3190465559072063
 40
0.3819185240820376
 40
0.4467378683477276
 40
0.5130784398205441
 40
0.5504063155738077
 40
0.594220902224735
 40
0.6445805969906035
 40
0.7022945213784432
 40
0.7661656762852409
 40
0.8374590914865674
 40
0.9150053581887369
 40
1.0
 40
1.0
 40
1.0
 40
1.0
 10
-39.05486563935622
 20
-19.66851466145953
 30
0.0
 10
-39.1242443389755
 20
-19.6719584791634
 30
0.0
 10
-39.26086975996491
 20
-19.67874028750204
 30
0.0
 10
-39.46148279339819
 20
-19.72571481838224
 30
0.0
 10
-39.64885188014908
 20
-19.80891107607829
 30
0.0
 10
-39.82375604965662
 20
-19.91997193312701
 30
0.0
 10
-39.97798259710483
 20
-20.05787824077167
 30
0.0
 10
-40.10911366436035
 20
-20.21893834878957
 30
0.0
 10
-40.21253961360888
 20
-20.40113163111783
 30
0.0
 10
-40.27697687560861
 20
-20.57124724685069
 30
0.0
 10
-40.3152132736221
 20
-20.72522539723499
 30
0.0
 10
-40.34123438970261
 20
-20.86429814324488
 30
0.0
 10
-40.35987680736951
 20
-21.02657418971736
 30
0.0
 10
-40.3795675919384
 20
-21.2104040135576
 30
0.0
 10
-40.390674829327
 20
-21.41751730207235
 30
0.0
 10
-40.40306843099651
 20
-21.64586401596364
 30
0.0
 10
-40.40763149229498
 20
-21.897255434362
 30
0.0
 10
-40.40839182190677
 20
-22.07199246864392
 30
0.0
 10
-40.40878940761982
 20
-22.16336461474416
 30
0.0
  0
SPLINE
  5
123
330
1F
100
AcDbEntity
  8
0
  6
Continuous
 62
     7
370
    25
100
AcDbSpline
210
0.0
220
0.0
230
1.0
 70
     8
 71
     3
 72
    23
 73
    19
 74
     0
 42
0.000000001
 43
0.00000001
 40
0.0
 40
0.0
 40
0.0
 40
0.0
 40
0.053879888708702
 40
0.1050243233594233
 40
0.1548765600489936
 40
0.2037471427127124
 40
0.2528331799772517
 40
0.3016640860078487
 40
0.3522666672968665
 40
0.4048724283214548
 40
0.4602075665094315
 40
0.5200849449157584
 40
0.5844550588386662
 40
0.654506292893264
 40
0.7313484645271893
 40
0.8140542069656913
 40
0.9035050694277625
 40
1.0
 40
1.0
 40
1.0
 40
1.0
 10
-38.81408576264726
 20
-30.88269151425331
 30
0.0
 10
-38.86478140111863
 20
-30.88408345356537
 30
0.0
 10
-38.96359888673958
 20
-30.88679666415117
 30
0.0
 10
-39.10814363812196
 20
-30.90891117211958
 30
0.0
 10
-39.24354860964161
 20
-30.94900246307528
 30
0.0
 10
-39.37327559574971
 20
-31.00002836413332
 30
0.0
 10
-39.4930592041021
 20
-31.06953039779692
 30
0.0
 10
-39.60644797757482
 20
-31.15168188366914
 30
0.0
 10
-39.70989134088533
 20
-31.25102151274587
 30
0.0
 10
-39.80686480553175
 20
-31.3645622229608
 30
0.0
 10
-39.89602722048355
 20
-31.49550419783264
 30
0.0
 10
-39.96828126583686
 20
-31.6487471176197
 30
0.0
 10
-40.03163660632003
 20
-31.82037318932104
 30
0.0
 10
-40.08312737141674
 20
-32.01261527220596
 30
0.0
 10
-40.12282544252444
 20
-32.22506486121579
 30
0.0
 10
-40.15270377991376
 20
-32.45752817871534
 30
0.0
 10
-40.16866947491578
 20
-32.7099215573994
 30
0.0
 10
-40.1706737406612
 20
-32.88484783735153
 30
0.0
 10
-40.17171383670638
 20
-32.97562428872372
 30
0.0
  0
SPLINE
  5
124
330
1F
100
AcDbEntity
  8
0
  6
Continuous
 62
     7
370
    25
100
AcDbSpline
210
0.0
220
0.0
230
1.0
 70
     8
 71
     3
 72
    15
 73
    11
 74
     0
 42
0.000000001
 43
0.00000001
 40
0.0
 40
0.0
 40
0.0
 40
0.0
 40
0.1155988900274716
 40
0.2327824179116743
 40
0.3508113395176481
 40
0.4722911269149967
 40
0.5967634583957364
 40
0.7260665793035934
 40
0.8602349086217689
 40
1.0
 40
1.0
 40
1.0
 40
1.0
 10
-49.22874150675969
 20
-24.21740217836157
 30
0.0
 10
-49.28215051531494
 20
-24.13995828661554
 30
0.0
 10
-49.38970066693666
 20
-23.98400889671356
 30
0.0
 10
-49.5233894570777
 20
-23.73131603827649
 30
0.0
 10
-49.63770455224453
 20
-23.46437318512051
 30
0.0
 10
-49.72877515405678
 20
-23.18241570164786
 30
0.0
 10
-49.80448005966507
 20
-22.88651488544824
 30
0.0
 10
-49.85541535065586
 20
-22.5747908881095
 30
0.0
 10
-49.88477290192942
 20
-22.24789788580594
 30
0.0
 10
-49.88943405259814
 20
-22.02513096702294
 30
0.0
 10
-49.89181224415828
 20
-21.9114718206486
 30
0.0
  0
SPLINE
  5
125
330
1F
100
AcDbEntity
  8
0
  6
Continuous
 62
     7
370
    25
100
AcDbSpline
210
0.0
220
0.0
230
1.0
 70
     8
 71
     3
 72
    11
 73
     7
 74
     0
 42
0.000000001
 43
0.00000001
 40
0.0
 40
0.0
 40
0.0
 40
0.0
 40
0.2390145061485174
 40
0.4800549131243823
 40
0.7317568716973839
 40
1.0
 40
1.0
 40
1.0
 40
1.0
 10
-7.772003196165878
 20
-29.57877587422927
 30
0.0
 10
-7.683302865481012
 20
-29.58375562183357
 30
0.0
 10
-7.505150374959923
 20
-29.59375732567191
 30
0.0
 10
-7.241233206550058
 20
-29.665197866154
 30
0.0
 10
-6.984622396082659
 20
-29.78613063969293
 30
0.0
 10
-6.825929208696777
 20
-29.89615068598693
 30
0.0
 10
-6.744058337908291
 20
-29.95291075957708
 30
0.0
  0
SPLINE
  5
126
330
1F
100
AcDbEntity
  8
0
  6
Continuous
 62
     7
370
    25
100
AcDbSpline
210
0.0
220
0.0
230
1.0
 70
     8
 71
     3
 72
    23
 73
    19
 74
     0
 42
0.000000001
 43
0.00000001
 40
0.0
 40
0.0
 40
0.0
 40
0.0
 40
0.0996449021967485
 40
0.1921405205440246
 40
0.2776603856357914
 40
0.3552365365460004
 40
0.4271342215779788
 40
0.4924684921182987
 40
0.5523613156444799
 40
0.6073027023977224
 40
0.6590397967192881
 40
0.7083175177956563
 40
0.7566189666456079
 40
0.8040029069708132
 40
0.8513553000619445
 40
0.8989594856525124
 40
0.9485997699577656
 40
0.9999999999999999
 40
0.9999999999999999
 40
0.9999999999999999
 40
0.9999999999999999
 10
-40.17171383670637
 20
-32.97562428872371
 30
0.0
 10
-40.17091452907856
 20
-33.07629250312323
 30
0.0
 10
-40.16937326223702
 20
-33.27040622786517
 30
0.0
 10
-40.15017495014843
 20
-33.55036077183709
 30
0.0
 10
-40.12156426171747
 20
-33.80703322425794
 30
0.0
 10
-40.08124827015931
 20
-34.04112896422183
 30
0.0
 10
-40.02828261489357
 20
-34.2518239968984
 30
0.0
 10
-39.96333571403913
 20
-34.4402150971676
 30
0.0
 10
-39.88903479469742
 20
-34.60693624405095
 30
0.0
 10
-39.79786606885821
 20
-34.74883738280963
 30
0.0
 10
-39.70017425306362
 20
-34.87298534364227
 30
0.0
 10
-39.59017002130485
 20
-34.97655299317916
 30
0.0
 10
-39.47658581441984
 20
-35.06964069000275
 30
0.0
 10
-39.3503443385137
 20
-35.1408130334989
 30
0.0
 10
-39.21896125807016
 20
-35.20028801808049
 30
0.0
 10
-39.07729876914421
 20
-35.23726992502818
 30
0.0
 10
-38.9294385867133
 20
-35.26572974821184
 30
0.0
 10
-38.82720016713786
 20
-35.26762529449253
 30
0.0
 10
-38.77519055179427
 20
-35.26858957615235
 30
0.0
  0
SPLINE
  5
127
330
1F
100
AcDbEntity
  8
0
  6
Continuous
 62
     7
370
    25
100
AcDbSpline
210
0.0
220
0.0
230
1.0
 70
     8
 71
     3
 72
    15
 73
    11
 74
     0
 42
0.000000001
 43
0.00000001
 40
0.0
 40
0.0
 40
0.0
 40
0.0
 40
0.1352825672970526
 40
0.2647252533984629
 40
0.3909873386288897
 40
0.5129784179734985
 40
0.6337570418427365
 40
0.7536636448717778
 40
0.8758460294496889
 40
1.0
 40
1.0
 40
1.0
 40
1.0
 10
-61.26588318931115
 20
-35.66309814337553
 30
0.0
 10
-61.34110314464568
 20
-35.73561837999897
 30
0.0
 10
-61.48829595843099
 20
-35.87752829788589
 30
0.0
 10
-61.72835544262986
 20
-36.06131592462459
 30
0.0
 10
-61.97361198560794
 20
-36.2195339516589
 30
0.0
 10
-62.22804981632288
 20
-36.34865796834022
 30
0.0
 10
-62.48975554930598
 20
-36.44957458329401
 30
0.0
 10
-62.76132007457694
 20
-36.51994691849232
 30
0.0
 10
-63.04129168290753
 20
-36.56373464100298
 30
0.0
 10
-63.23147608188908
 20
-36.56956613340873
 30
0.0
 10
-63.32732936451963
 20
-36.57250521617639
 30
0.0
  0
SPLINE
  5
128
330
1F
100
AcDbEntity
  8
0
  6
Continuous
 62
     7
370
    25
100
AcDbSpline
210
0.0
220
0.0
230
1.0
 70
     8
 71
     3
 72
    23
 73
    19
 74
     0
 42
0.000000001
 43
0.00000001
 40
0.0
 40
0.0
 40
0.0
 40
0.0
 40
0.0621839064835634
 40
0.121687387130522
 40
0.178755473512357
 40
0.2340224358857844
 40
0.2883307500002966
 40
0.3422253680126712
 40
0.3964603667861443
 40
0.4517759044382101
 40
0.5086772842185373
 40
0.5672048311629054
 40
0.6286258147844155
 40
0.6936552138821995
 40
0.7628266051046738
 40
0.8367346234175808
 40
0.9157873337980953
 40
1.0
 40
1.0
 40
1.0
 40
1.0
 10
-3.423148192222061
 20
-29.57877587422928
 30
0.0
 10
-3.301368483266861
 20
-29.58135064693449
 30
0.0
 10
-3.063058357282885
 20
-29.58638920724163
 30
0.0
 10
-2.715603059008799
 20
-29.63369073076142
 30
0.0
 10
-2.38754547213043
 20
-29.71062777646591
 30
0.0
 10
-2.079957196675305
 20
-29.82118189725222
 30
0.0
 10
-1.790832490636969
 20
-29.95981140130862
 30
0.0
 10
-1.522321675164078
 20
-30.13161468042461
 30
0.0
 10
-1.274410967217306
 20
-30.33502277909395
 30
0.0
 10
-1.047712585113459
 20
-30.56994896673653
 30
0.0
 10
-0.842546685252053
 20
-30.83484849906622
 30
0.0
 10
-0.6679185198467472
 20
-31.1348310797532
 30
0.0
 10
-0.521730613618868
 20
-31.46679613496286
 30
0.0
 10
-0.4032141032632083
 20
-31.83159951959739
 30
0.0
 10
-0.3155962310865779
 20
-32.23000495695914
 30
0.0
 10
-0.2556444255359868
 20
-32.6609756324864
 30
0.0
 10
-0.2214548958481769
 20
-33.12447199746094
 30
0.0
 10
-0.2234506982192318
 20
-33.44416313646529
 30
0.0
 10
-0.2244801377880908
 20
-33.60906057975813
 30
0.0
  0
SPLINE
  5
129
330
1F
100
AcDbEntity
  8
0
  6
Continuous
 62
     7
370
    25
100
AcDbSpline
210
0.0
220
0.0
230
1.0
 70
     8
 71
     3
 72
    15
 73
    11
 74
     0
 42
0.000000001
 43
0.00000001
 40
0.0
 40
0.0
 40
0.0
 40
0.0
 40
0.1155988900274715
 40
0.2327824179116748
 40
0.3508113395176485
 40
0.4722911269149955
 40
0.596763458395737
 40
0.7260665793035926
 40
0.8602349086217699
 40
1.0
 40
1.0
 40
1.0
 40
1.0
 10
-5.843912029596235
 20
-35.43157903115535
 30
0.0
 10
-5.897321038151487
 20
-35.35413513940932
 30
0.0
 10
-6.004871189773207
 20
-35.19818574950734
 30
0.0
 10
-6.138559979914247
 20
-34.94549289107028
 30
0.0
 10
-6.25287507508108
 20
-34.6785500379143
 30
0.0
 10
-6.34394567689331
 20
-34.39659255444164
 30
0.0
 10
-6.419650582501617
 20
-34.10069173824203
 30
0.0
 10
-6.470585873492392
 20
-33.78896774090329
 30
0.0
 10
-6.499943424765956
 20
-33.46207473859973
 30
0.0
 10
-6.504604575434679
 20
-33.23930781981673
 30
0.0
 10
-6.506982766994822
 20
-33.12564867344239
 30
0.0
  0
SPLINE
  5
12A
330
1F
100
AcDbEntity
  8
0
  6
Continuous
 62
     7
370
    25
100
AcDbSpline
210
0.0
220
0.0
230
1.0
 70
     8
 71
     3
 72
    23
 73
    19
 74
     0
 42
0.000000001
 43
0.00000001
 40
0.0
 40
0.0
 40
0.0
 40
0.0
 40
0.0470511600976129
 40
0.091595912516618
 40
0.1347888381470945
 40
0.1781669842654462
 40
0.2238290553762308
 40
0.2758805814759146
 40
0.3357121657298399
 40
0.4047917457861286
 40
0.446160694696874
 40
0.4962562380769356
 40
0.5561473477989328
 40
0.625989087061615
 40
0.7047944089695994
 40
0.7936378808592625
 40
0.8920359546000713
 40
1.0
 40
1.0
 40
1.0
 40
1.0
 10
-47.08394845115197
 20
-31.35684265608024
 30
0.0
 10
-47.14157986665784
 20
-31.35930456269941
 30
0.0
 10
-47.25377268149885
 20
-31.36409723057085
 30
0.0
 10
-47.41527944225997
 20
-31.40226515489813
 30
0.0
 10
-47.56417914818948
 20
-31.46375934835363
 30
0.0
 10
-47.70106377645153
 20
-31.55215854396046
 30
0.0
 10
-47.82347994182175
 20
-31.67579810896216
 30
0.0
 10
-47.92887006253492
 20
-31.83867709431963
 30
0.0
 10
-48.01707340994701
 20
-32.04229871021941
 30
0.0
 10
-48.08448928586657
 20
-32.23994446840194
 30
0.0
 10
-48.12652564315563
 20
-32.43204857728035
 30
0.0
 10
-48.15617030865261
 20
-32.61497053363767
 30
0.0
 10
-48.17869432794818
 20
-32.83395486004945
 30
0.0
 10
-48.1993134722364
 20
-33.08833788432911
 30
0.0
 10
-48.21313459261356
 20
-33.37868183287457
 30
0.0
 10
-48.22401504681314
 20
-33.70407272011428
 30
0.0
 10
-48.23187359495584
 20
-34.06527053190581
 30
0.0
 10
-48.23214254113707
 20
-34.31781327849882
 30
0.0
 10
-48.23228324776404
 20
-34.4499379953418
 30
0.0
  0
SPLINE
  5
12B
330
1F
100
AcDbEntity
  8
0
  6
Continuous
 62
     7
370
    25
100
AcDbSpline
210
0.0
220
0.0
230
1.0
 70
     8
 71
     3
 72
    23
 73
    19
 74
     0
 42
0.000000001
 43
0.00000001
 40
0.0
 40
0.0
 40
0.0
 40
0.0
 40
0.0693917767873292
 40
0.1359958948407074
 40
0.1997221980893042
 40
0.261342569418686
 40
0.3211119315048671
 40
0.379301264486269
 40
0.4364219545692124
 40
0.4933045105549106
 40
0.5505363272143964
 40
0.6081186298749415
 40
0.6674206766185823
 40
0.7281994686927226
 40
0.7916289886090727
 40
0.857923069060927
 40
0.9271273020399585
 40
1.0
 40
1.0
 40
1.0
 40
1.0
 10
-35.78581577480733
 20
-34.20174950704178
 30
0.0
 10
-35.80922344516212
 20
-34.29656686708159
 30
0.0
 10
-35.85509843530382
 20
-34.48239251274229
 30
0.0
 10
-35.94426075460687
 20
-34.74924343212287
 30
0.0
 10
-36.04833660657186
 20
-34.99866393049469
 30
0.0
 10
-36.16611835929736
 20
-35.23135859412762
 30
0.0
 10
-36.30200643874959
 20
-35.44481409198738
 30
0.0
 10
-36.45222986857325
 20
-35.64050287492778
 30
0.0
 10
-36.61843815430385
 20
-35.81726615619576
 30
0.0
 10
-36.79849268498884
 20
-35.97787389287527
 30
0.0
 10
-36.99520133587588
 20
-36.11901359916929
 30
0.0
 10
-37.20886569211965
 20
-36.2395478237103
 30
0.0
 10
-37.43636388898799
 20
-36.34410000980921
 30
0.0
 10
-37.68144469005796
 20
-36.42642103099127
 30
0.0
 10
-37.94106101414864
 20
-36.49425663709343
 30
0.0
 10
-38.2176771662534
 20
-36.5389342789708
 30
0.0
 10
-38.50972251350989
 20
-36.56762591877358
 30
0.0
 10
-38.70967562973001
 20
-36.57085102599372
 30
0.0
 10
-38.8122336097495
 20
-36.57250521617639
 30
0.0
  0
SPLINE
  5
12C
330
1F
100
AcDbEntity
  8
0
  6
Continuous
 62
     7
370
    25
100
AcDbSpline
210
0.0
220
0.0
230
1.0
 70
     8
 71
     3
 72
    23
 73
    19
 74
     0
 42
0.000000001
 43
0.00000001
 40
0.0
 40
0.0
 40
0.0
 40
0.0
 40
0.0763845234194742
 40
0.149323533673543
 40
0.2184235994851373
 40
0.2847118239282923
 40
0.3482500707493433
 40
0.4105908918799366
 40
0.4712990898669426
 40
0.5319668696084643
 40
0.5916512643505564
 40
0.6499541942573338
 40
0.706789277486983
 40
0.7634850045536321
 40
0.8204235733402984
 40
0.8785210417955093
 40
0.9382998869255077
 40
1.0
 40
1.0
 40
1.0
 40
1.0
 10
-49.89181224415828
 20
-21.9114718206486
 30
0.0
 10
-49.8898563527609
 20
-21.77673917510428
 30
0.0
 10
-49.8860327952932
 20
-21.5133513337823
 30
0.0
 10
-49.84076494618508
 20
-21.13047564004737
 30
0.0
 10
-49.77688941783072
 20
-20.76841532791951
 30
0.0
 10
-49.67947493136428
 20
-20.43093181702771
 30
0.0
 10
-49.55771985508413
 20
-20.11417542161736
 30
0.0
 10
-49.40491250307274
 20
-19.82221947440235
 30
0.0
 10
-49.22865345838178
 20
-19.54975334933961
 30
0.0
 10
-49.02256635455204
 20
-19.30500583289412
 30
0.0
 10
-48.79672007004692
 20
-19.08493941891171
 30
0.0
 10
-48.55637725898606
 20
-18.89102398452214
 30
0.0
 10
-48.29973869319642
 20
-18.72905328942438
 30
0.0
 10
-48.03062693860694
 20
-18.59386507071521
 30
0.0
 10
-47.74456417903058
 20
-18.49267368893746
 30
0.0
 10
-47.44513074793581
 20
-18.41818354644953
 30
0.0
 10
-47.13101741766128
 20
-18.3728200537937
 30
0.0
 10
-46.91678698290045
 20
-18.36736810756825
 30
0.0
 10
-46.80797766938552
 20
-18.36459902143549
 30
0.0
  0
SPLINE
  5
12D
330
1F
100
AcDbEntity
  8
0
  6
Continuous
 62
     7
370
    25
100
AcDbSpline
210
0.0
220
0.0
230
1.0
 70
     8
 71
     3
 72
    23
 73
    19
 74
     0
 42
0.000000001
 43
0.00000001
 40
0.0
 40
0.0
 40
0.0
 40
0.0
 40
0.0805936362987966
 40
0.1580564059585222
 40
0.233763499924274
 40
0.3096193553119451
 40
0.3843789904500515
 40
0.4566921633506134
 40
0.5291999448279615
 40
0.6037582492134638
 40
0.6430099055287908
 40
0.6848816421833988
 40
0.7296695142269842
 40
0.7778720707307498
 40
0.8281844849758596
 40
0.8821544244922516
 40
0.9394140860851515
 40
1.0
 40
1.0
 40
1.0
 40
1.0
 10
-16.63825911774979
 20
-36.57250521617639
 30
0.0
 10
-16.74100386750477
 20
-36.56910408599682
 30
0.0
 10
-16.94250198352442
 20
-36.56243395126823
 30
0.0
 10
-17.23609613517117
 20
-36.50525231250148
 30
0.0
 10
-17.51323628822553
 20
-36.41179217328854
 30
0.0
 10
-17.77254361803912
 20
-36.28327856086393
 30
0.0
 10
-18.00535052437145
 20
-36.1187904001159
 30
0.0
 10
-18.20802590850608
 20
-35.92403262759017
 30
0.0
 10
-18.37181290247605
 20
-35.69597668384344
 30
0.0
 10
-18.48060192147175
 20
-35.48392534853488
 30
0.0
 10
-18.54887037221885
 20
-35.29749031460349
 30
0.0
 10
-18.59251637606293
 20
-35.14304835157988
 30
0.0
 10
-18.63208417319933
 20
-34.9757755914986
 30
0.0
 10
-18.66244422138349
 20
-34.79566085440827
 30
0.0
 10
-18.68707431547229
 20
-34.60290652573234
 30
0.0
 10
-18.70254958942123
 20
-34.3976452965481
 30
0.0
 10
-18.71456716556492
 20
-34.17904596232646
 30
0.0
 10
-18.71576093628173
 20
-34.02890054205377
 30
0.0
 10
-18.7163746690381
 20
-33.95170886584398
 30
0.0
  0
SPLINE
  5
12E
330
1F
100
AcDbEntity
  8
0
  6
Continuous
 62
     7
370
    25
100
AcDbSpline
210
0.0
220
0.0
230
1.0
 70
     8
 71
     3
 72
    11
 73
     7
 74
     0
 42
0.000000001
 43
0.00000001
 40
0.0
 40
0.0
 40
0.0
 40
0.0
 40
0.1921270506834801
 40
0.4209897403589516
 40
0.6915591005385586
 40
1.0
 40
1.0
 40
1.0
 40
1.0
 10
-61.03436407709097
 20
-36.45396743071966
 30
0.0
 10
-61.04705517010632
 20
-36.41827011209477
 30
0.0
 10
-61.07486395566985
 20
-36.34004997158912
 30
0.0
 10
-61.11241982130473
 20
-36.20893213470374
 30
0.0
 10
-61.15742807258595
 20
-36.05616395733504
 30
0.0
 10
-61.18710237859887
 20
-35.94593044325851
 30
0.0
 10
-61.20290999078726
 20
-35.88720864400467
 30
0.0
  0
SPLINE
  5
12F
330
1F
100
AcDbEntity
  8
0
  6
Continuous
 62
     7
370
    25
100
AcDbSpline
210
0.0
220
0.0
230
1.0
 70
     8
 71
     3
 72
    23
 73
    19
 74
     0
 42
0.000000001
 43
0.00000001
 40
0.0
 40
0.0
 40
0.0
 40
0.0
 40
0.0990681297156723
 40
0.1890887435263358
 40
0.26936650314207
 40
0.3413458139191196
 40
0.4036866053133512
 40
0.4578564378370544
 40
0.5025983154708039
 40
0.5386403366760005
 40
0.6006994310735996
 40
0.6588514444624404
 40
0.714963144452839
 40
0.770814020130592
 40
0.8259809817397403
 40
0.8819537266801509
 40
0.9391606647526987
 40
1.0
 40
1.0
 40
1.0
 40
1.0
 10
-38.03803369848521
 20
-21.7725603533165
 30
0.0
 10
-38.03829957329665
 20
-21.68488683405532
 30
0.0
 10
-38.03880704158311
 20
-21.51754668495583
 30
0.0
 10
-38.0450026306975
 20
-21.27923920505308
 30
0.0
 10
-38.05167281244519
 20
-21.06493364008159
 30
0.0
 10
-38.06239567815723
 20
-20.87529489397533
 30
0.0
 10
-38.07712362623183
 20
-20.70911941612233
 30
0.0
 10
-38.09464934783216
 20
-20.56744124151793
 30
0.0
 10
-38.11672516634996
 20
-20.44997242962374
 30
0.0
 10
-38.14804716800928
 20
-20.32745129445895
 30
0.0
 10
-38.19722683773519
 20
-20.19743908406661
 30
0.0
 10
-38.27704202772582
 20
-20.06278088938835
 30
0.0
 10
-38.36956740189044
 20
-19.94321347223465
 30
0.0
 10
-38.48165136219314
 20
-19.84540091473761
 30
0.0
 10
-38.60726719895533
 20
-19.76652668646639
 30
0.0
 10
-38.74518869696497
 20
-19.70838021534561
 30
0.0
 10
-38.89642370151208
 20
-19.67442546919149
 30
0.0
 10
-39.00097923535233
 20
-19.6705249383961
 30
0.0
 10
-39.05486563935623
 20
-19.66851466145953
 30
0.0
  0
SPLINE
  5
130
330
1F
100
AcDbEntity
  8
0
  6
Continuous
 62
     7
370
    25
100
AcDbSpline
210
0.0
220
0.0
230
1.0
 70
     8
 71
     3
 72
    23
 73
    19
 74
     0
 42
0.000000001
 43
0.00000001
 40
0.0
 40
0.0
 40
0.0
 40
0.0
 40
0.0753913745179707
 40
0.1469853583946985
 40
0.2151595678067788
 40
0.2800302998454366
 40
0.3424571987129899
 40
0.4028678613080897
 40
0.4621013967704114
 40
0.5210564102893017
 40
0.5792538962685819
 40
0.6364187035115386
 40
0.6934726637400592
 40
0.7509519500007229
 40
0.8097020801422576
 40
0.8706057369047604
 40
0.9336180404378567
 40
1.0
 40
1.0
 40
1.0
 40
1.0
 10
-41.94978061855733
 20
-33.08119700389611
 30
0.0
 10
-41.94761009427723
 20
-32.94710814431777
 30
0.0
 10
-41.94337837292642
 20
-32.68568435137234
 30
0.0
 10
-41.90127629523056
 20
-32.30495201473951
 30
0.0
 10
-41.83590507933683
 20
-31.94667475212446
 30
0.0
 10
-41.74291554072813
 20
-31.61134002354228
 30
0.0
 10
-41.62539930433906
 20
-31.29833984795473
 30
0.0
 10
-41.47759997519798
 20
-31.0096375095915
 30
0.0
 10
-41.30498670595619
 20
-30.74236119952088
 30
0.0
 10
-41.10455145660653
 20
-30.50030849092497
 30
0.0
 10
-40.88268144485189
 20
-30.28301778730088
 30
0.0
 10
-40.63984053787575
 20
-30.09492157518666
 30
0.0
 10
-40.37952597607006
 20
-29.93419578413491
 30
0.0
 10
-40.09932157853791
 20
-29.80461570767168
 30
0.0
 10
-39.80107282662554
 20
-29.70162533811579
 30
0.0
 10
-39.48360761023363
 20
-29.63055699647477
 30
0.0
 10
-39.14744262794848
 20
-29.58713135943125
 30
0.0
 10
-38.91732413349271
 20
-29.58160897353659
 30
0.0
 10
-38.79926853946517
 20
-29.57877587422927
 30
0.0
  0
SPLINE
  5
131
330
1F
100
AcDbEntity
  8
0
  6
Continuous
 62
     7
370
    25
100
AcDbSpline
210
0.0
220
0.0
230
1.0
 70
     8
 71
     3
 72
    15
 73
    11
 74
     0
 42
0.000000001
 43
0.00000001
 40
0.0
 40
0.0
 40
0.0
 40
0.0
 40
0.1283228340489343
 40
0.2515757523731303
 40
0.3716744743371255
 40
0.4910125462132937
 40
0.611476677321327
 40
0.7345523337683004
 40
0.86385641402349
 40
1.0
 40
1.0
 40
1.0
 40
1.0
 10
-55.68349435545822
 20
-36.45396743071966
 30
0.0
 10
-55.78807990865324
 20
-36.45045150437369
 30
0.0
 10
-55.99311893718939
 20
-36.44355856265894
 30
0.0
 10
-56.29182270549519
 20
-36.38809713108179
 30
0.0
 10
-56.57456176853816
 20
-36.29973820366208
 30
0.0
 10
-56.8394319743062
 20
-36.17189394243113
 30
0.0
 10
-57.08773602780536
 20
-36.00993473099347
 30
0.0
 10
-57.31733460925432
 20
-35.81002713288376
 30
0.0
 10
-57.53189601014805
 20
-35.57615339938323
 30
0.0
 10
-57.65557668098686
 20
-35.3985662239822
 30
0.0
 10
-57.71901039009803
 20
-35.30748478700534
 30
0.0
  0
SPLINE
  5
132
330
1F
100
AcDbEntity
  8
0
  6
Continuous
 62
     7
370
    25
100
AcDbSpline
210
0.0
220
0.0
230
1.0
 70
     8
 71
     3
 72
    15
 73
    11
 74
     0
 42
0.000000001
 43
0.00000001
 40
0.0
 40
0.0
 40
0.0
 40
0.0
 40
0.1265376195843017
 40
0.2510980205551668
 40
0.3758715197454955
 40
0.5023910780080405
 40
0.6285647159417751
 40
0.7521581614259227
 40
0.8758093754368168
 40
1.0
 40
1.0
 40
1.0
 40
1.0
 10
-14.56755217805252
 20
-35.45936132462177
 30
0.0
 10
-14.6264218488594
 20
-35.54448980309843
 30
0.0
 10
-14.74324132008781
 20
-35.71341658162153
 30
0.0
 10
-14.95792159049772
 20
-35.93478039287402
 30
0.0
 10
-15.19832735365988
 20
-36.126859111654
 30
0.0
 10
-15.46278309046462
 20
-36.28694124884741
 30
0.0
 10
-15.74316856131358
 20
-36.41461995146625
 30
0.0
 10
-16.03478845664376
 20
-36.50629285201732
 30
0.0
 10
-16.3342750224828
 20
-36.56136232061966
 30
0.0
 10
-16.53678417029459
 20
-36.56878553228923
 30
0.0
 10
-16.63825911774979
 20
-36.57250521617639
 30
0.0
  0
SPLINE
  5
133
330
1F
100
AcDbEntity
  8
0
  6
Continuous
 62
     7
370
    25
100
AcDbSpline
210
0.0
220
0.0
230
1.0
 70
     8
 71
     3
 72
    23
 73
    19
 74
     0
 42
0.000000001
 43
0.00000001
 40
0.0
 40
0.0
 40
0.0
 40
0.0
 40
0.0677691596782051
 40
0.1326646320925918
 40
0.1958444707217905
 40
0.2579544696560774
 40
0.3188762862685047
 40
0.379842798377993
 40
0.4413689540360601
 40
0.5041225028945179
 40
0.5665814601868961
 40
0.6276288994782225
 40
0.6877744908715157
 40
0.7477537929635056
 40
0.8086951678894329
 40
0.8703088843157736
 40
0.9339139400757965
 40
1.0
 40
1.0
 40
1.0
 40
1.0
 10
-58.54507058249963
 20
-21.84294216343143
 30
0.0
 10
-58.54758274468166
 20
-21.96719924396731
 30
0.0
 10
-58.55250054317908
 20
-22.21044440079774
 30
0.0
 10
-58.60094903374844
 20
-22.56676836178474
 30
0.0
 10
-58.6758649379775
 20
-22.90756893910253
 30
0.0
 10
-58.783369579608
 20
-23.23215484668732
 30
0.0
 10
-58.92186717338624
 20
-23.54015369615116
 30
0.0
 10
-59.08872101386616
 20
-23.83261751697211
 30
0.0
 10
-59.28835126755612
 20
-24.10800825753726
 30
0.0
 10
-59.51693081488087
 20
-24.36345563532048
 30
0.0
 10
-59.76780666101357
 20
-24.5955025619276
 30
0.0
 10
-60.03459008774199
 20
-24.80178844936784
 30
0.0
 10
-60.32050015321541
 20
-24.97185173722534
 30
0.0
 10
-60.62052151009491
 20
-25.11485655996304
 30
0.0
 10
-60.93774092396171
 20
-25.2233803953051
 30
0.0
 10
-61.27035108690862
 20
-25.30078889311333
 30
0.0
 10
-61.61809836931408
 20
-25.35127394420773
 30
0.0
 10
-61.85592285564413
 20
-25.35594709106691
 30
0.0
 10
-61.97710990205153
 20
-25.3583283633826
 30
0.0
  0
SPLINE
  5
134
330
1F
100
AcDbEntity
  8
0
  6
Continuous
 62
     7
370
    25
100
AcDbSpline
210
0.0
220
0.0
230
1.0
 70
     8
 71
     3
 72
    15
 73
    11
 74
     0
 42
0.000000001
 43
0.00000001
 40
0.0
 40
0.0
 40
0.0
 40
0.0
 40
0.1438681131250099
 40
0.2793809281031452
 40
0.4072018562414331
 40
0.5294610055533108
 40
0.6481661389661182
 40
0.7649848817576301
 40
0.881430528684078
 40
1.0
 40
1.0
 40
1.0
 40
1.0
 10
-46.64313606148475
 20
-25.3583283633826
 30
0.0
 10
-46.78407807210608
 20
-25.35484965211064
 30
0.0
 10
-47.05777673180767
 20
-25.34809425953162
 30
0.0
 10
-47.45375508877516
 20
-25.29380770275372
 30
0.0
 10
-47.82153479490218
 20
-25.2054224430546
 30
0.0
 10
-48.16182418461791
 20
-25.0816216759126
 30
0.0
 10
-48.47349220560537
 20
-24.91922614147805
 30
0.0
 10
-48.757008167239
 20
-24.72175671948806
 30
0.0
 10
-49.01292808422629
 20
-24.48878424426137
 30
0.0
 10
-49.15637160103322
 20
-24.30840622386751
 30
0.0
 10
-49.2287415067597
 20
-24.21740217836157
 30
0.0
  0
SPLINE
  5
135
330
1F
100
AcDbEntity
  8
0
  6
Continuous
 62
     7
370
    25
100
AcDbSpline
210
0.0
220
0.0
230
1.0
 70
     8
 71
     3
 72
    19
 73
    15
 74
     0
 42
0.000000001
 43
0.00000001
 40
0.0
 40
0.0
 40
0.0
 40
0.0
 40
0.093684879503605
 40
0.1809204461800087
 40
0.2617811592767392
 40
0.3362380401967971
 40
0.4043114362800604
 40
0.4669198373036668
 40
0.5225504040887515
 40
0.5729201983549688
 40
0.6703186917647563
 40
0.7730647440462395
 40
0.8829456033641501
 40
1.0
 40
1.0
 40
1.0
 40
1.0
 10
-59.73044843706694
 20
-34.24434902369028
 30
0.0
 10
-59.72987248092216
 20
-34.31596334960511
 30
0.0
 10
-59.72876021773466
 20
-34.45426203628797
 30
0.0
 10
-59.72648017657791
 20
-34.65440850608697
 30
0.0
 10
-59.71615600301834
 20
-34.83957994004572
 30
0.0
 10
-59.70530908324711
 20
-35.01000450349547
 30
0.0
 10
-59.69281248312069
 20
-35.16634712522485
 30
0.0
 10
-59.67659561045534
 20
-35.30788610479625
 30
0.0
 10
-59.65630271221536
 20
-35.43523423191376
 30
0.0
 10
-59.62374554113012
 20
-35.58732630554717
 30
0.0
 10
-59.57137550967977
 20
-35.77185513112979
 30
0.0
 10
-59.48574974441521
 20
-35.99304173609299
 30
0.0
 10
-59.38303468036869
 20
-36.22342745702972
 30
0.0
 10
-59.2994240812807
 20
-36.37551821773442
 30
0.0
 10
-59.25629729524001
 20
-36.45396743071966
 30
0.0
  0
SPLINE
  5
136
330
1F
100
AcDbEntity
  8
0
  6
Continuous
 62
     7
370
    25
100
AcDbSpline
210
0.0
220
0.0
230
1.0
 70
     8
 71
     3
 72
    23
 73
    19
 74
     0
 42
0.000000001
 43
0.00000001
 40
0.0
 40
0.0
 40
0.0
 40
0.0
 40
0.062183906483563
 40
0.1216873871305228
 40
0.1787554735123572
 40
0.2340224358857843
 40
0.2883307500002967
 40
0.3422253680126717
 40
0.3964603667861447
 40
0.45177590443821
 40
0.5086772842185372
 40
0.5672048311629053
 40
0.6286258147844158
 40
0.6936552138821991
 40
0.7628266051046739
 40
0.8367346234175802
 40
0.9157873337980953
 40
1.0
 40
1.0
 40
1.0
 40
1.0
 10
-46.80797766938552
 20
-18.36459902143549
 30
0.0
 10
-46.68619796043033
 20
-18.36717379414069
 30
0.0
 10
-46.44788783444633
 20
-18.37221235444784
 30
0.0
 10
-46.10043253617228
 20
-18.41951387796765
 30
0.0
 10
-45.77237494929387
 20
-18.49645092367211
 30
0.0
 10
-45.46478667383876
 20
-18.60700504445844
 30
0.0
 10
-45.17566196780042
 20
-18.74563454851483
 30
0.0
 10
-44.90715115232753
 20
-18.91743782763082
 30
0.0
 10
-44.65924044438078
 20
-19.12084592630017
 30
0.0
 10
-44.43254206227691
 20
-19.35577211394274
 30
0.0
 10
-44.22737616241552
 20
-19.62067164627242
 30
0.0
 10
-44.05274799701022
 20
-19.92065422695943
 30
0.0
 10
-43.90656009078232
 20
-20.25261928216906
 30
0.0
 10
-43.78804358042667
 20
-20.61742266680361
 30
0.0
 10
-43.70042570825004
 20
-21.01582810416536
 30
0.0
 10
-43.64047390269945
 20
-21.44679877969261
 30
0.0
 10
-43.60628437301163
 20
-21.91029514466713
 30
0.0
 10
-43.60828017538269
 20
-22.22998628367151
 30
0.0
 10
-43.60930961495156
 20
-22.39488372696434
 30
0.0
  0
SPLINE
  5
137
330
1F
100
AcDbEntity
  8
0
  6
Continuous
 62
     7
370
    25
100
AcDbSpline
210
0.0
220
0.0
230
1.0
 70
     8
 71
     3
 72
    23
 73
    19
 74
     0
 42
0.000000001
 43
0.00000001
 40
0.0
 40
0.0
 40
0.0
 40
0.0
 40
0.0741519753371742
 40
0.1448298617090363
 40
0.2121118056249836
 40
0.2768840420209588
 40
0.3396722594900254
 40
0.4008269352647193
 40
0.461578761086973
 40
0.5226644246310065
 40
0.5828557398207819
 40
0.6415903422851588
 40
0.6992010557853853
 40
0.7573971400734871
 40
0.8155517925974742
 40
0.8753312464874744
 40
0.9362687634992318
 40
1.0
 40
1.0
 40
1.0
 40
1.0
 10
-63.32732936451963
 20
-36.57250521617639
 30
0.0
 10
-63.41072816955243
 20
-36.57057481170479
 30
0.0
 10
-63.57361846808704
 20
-36.56680444400531
 30
0.0
 10
-63.81131053360334
 20
-36.54189819002266
 30
0.0
 10
-64.03473789175021
 20
-36.49466092203807
 30
0.0
 10
-64.24492388452957
 20
-36.43183736849665
 30
0.0
 10
-64.44237820823048
 20
-36.35285591658729
 30
0.0
 10
-64.62539482771813
 20
-36.25362260929646
 30
0.0
 10
-64.79504741235434
 20
-36.13636233614771
 30
0.0
 10
-64.94965203353017
 20
-36.00150442177848
 30
0.0
 10
-65.08821820973004
 20
-35.85349099403896
 30
0.0
 10
-65.20982563656152
 20
-35.6960054561908
 30
0.0
 10
-65.31042546644755
 20
-35.52693586392571
 30
0.0
 10
-65.39365124641498
 20
-35.34954139515102
 30
0.0
 10
-65.4594996178417
 20
-35.16226900773333
 30
0.0
 10
-65.50492131220156
 20
-34.96597064552645
 30
0.0
 10
-65.53387457453303
 20
-34.76010754824414
 30
0.0
 10
-65.53713379569496
 20
-34.61981850097379
 30
0.0
 10
-65.53879992444675
 20
-34.54810209892316
 30
0.0
  0
SPLINE
  5
138
330
1F
100
AcDbEntity
  8
0
  6
Continuous
 62
     7
370
    25
100
AcDbSpline
210
0.0
220
0.0
230
1.0
 70
     8
 71
     3
 72
    27
 73
    23
 74
     0
 42
0.000000001
 43
0.00000001
 40
0.0
 40
0.0
 40
0.0
 40
0.0
 40
0.0528707417157188
 40
0.1023232176328613
 40
0.1484273882106426
 40
0.1911622080366673
 40
0.2306343063066065
 40
0.2668100395193153
 40
0.299951070669277
 40
0.3299411242447606
 40
0.3847059807526424
 40
0.4355229757657439
 40
0.483509615602874
 40
0.5287246397895314
 40
0.574041197769987
 40
0.6214608785997549
 40
0.6722790331166952
 40
0.7266009670515856
 40
0.7855545457324301
 40
0.8503441039050204
 40
0.9217033402737161
 40
1.0
 40
1.0
 40
1.0
 40
1.0
 10
-51.9069545969227
 20
-35.6742110607621
 30
0.0
 10
-51.9080648897096
 20
-35.76928356970299
 30
0.0
 10
-51.91021369123541
 20
-35.95328183996687
 30
0.0
 10
-51.91535960067887
 20
-36.22026109797066
 30
0.0
 10
-51.93415921534213
 20
-36.46830007129539
 30
0.0
 10
-51.95224367082954
 20
-36.69842642250846
 30
0.0
 10
-51.98175555305939
 20
-36.90930702424065
 30
0.0
 10
-52.01054254348119
 20
-37.10296310520286
 30
0.0
 10
-52.05277865178515
 20
-37.27664828522278
 30
0.0
 10
-52.10975192204976
 20
-37.48095139052143
 30
0.0
 10
-52.19825049907077
 20
-37.70875331129006
 30
0.0
 10
-52.3218710450912
 20
-37.9562231638344
 30
0.0
 10
-52.46588457988291
 20
-38.17249707808038
 30
0.0
 10
-52.63275142516557
 20
-38.35867980968358
 30
0.0
 10
-52.82382111121873
 20
-38.51803377170732
 30
0.0
 10
-53.04120542962804
 20
-38.65860991322885
 30
0.0
 10
-53.28929499735766
 20
-38.77693774556422
 30
0.0
 10
-53.56522069972848
 20
-38.88277005280584
 30
0.0
 10
-53.87586635020574
 20
-38.96308346869804
 30
0.0
 10
-54.22211998170596
 20
-39.02173079067818
 30
0.0
 10
-54.60668226509286
 20
-39.05655523840269
 30
0.0
 10
-54.87588065817721
 20
-39.05999769401637
 30
0.0
 10
-55.01671931226412
 20
-39.06179871076774
 30
0.0
  0
SPLINE
  5
139
330
1F
100
AcDbEntity
  8
0
  6
Continuous
 62
     7
370
    25
100
AcDbSpline
210
0.0
220
0.0
230
1.0
 70
     8
 71
     3
 72
    23
 73
    19
 74
     0
 42
0.000000001
 43
0.00000001
 40
0.0
 40
0.0
 40
0.0
 40
0.0
 40
0.0769847663203829
 40
0.1499140338706294
 40
0.2201641160562654
 40
0.2864884647452791
 40
0.3507795777884877
 40
0.412535306215247
 40
0.4737931789478689
 40
0.5346544088815023
 40
0.594295888211995
 40
0.6522134790637094
 40
0.7089265476957177
 40
0.7659968135960988
 40
0.8224146021830703
 40
0.8799657443920185
 40
0.9387421272673787
 40
1.0
 40
1.0
 40
1.0
 40
1.0
 10
-4.72891598514386
 20
-33.60906057975812
 30
0.0
 10
-4.725999969049531
 20
-33.67270214275166
 30
0.0
 10
-4.720321550364549
 20
-33.79663267974244
 30
0.0
 10
-4.698812193632158
 20
-33.9777856391979
 30
0.0
 10
-4.66157582272625
 20
-34.1473531785008
 30
0.0
 10
-4.612845471378954
 20
-34.30636404193767
 30
0.0
 10
-4.55490033819625
 20
-34.45492980911288
 30
0.0
 10
-4.481189543342776
 20
-34.59162387664333
 30
0.0
 10
-4.396265230940395
 20
-34.71819009871638
 30
0.0
 10
-4.298087373246117
 20
-34.83256455155144
 30
0.0
 10
-4.190590627576494
 20
-34.93409543402456
 30
0.0
 10
-4.077157355905507
 20
-35.02332184323125
 30
0.0
 10
-3.957961671497706
 20
-35.10134325461033
 30
0.0
 10
-3.82992407025312
 20
-35.16068351675244
 30
0.0
 10
-3.697301419326502
 20
-35.21078967515393
 30
0.0
 10
-3.557706248362243
 20
-35.24290700027029
 30
0.0
 10
-3.412072909159838
 20
-35.26424889682594
 30
0.0
 10
-3.312716235951068
 20
-35.26712287826435
 30
0.0
 10
-3.262010890116817
 20
-35.26858957615235
 30
0.0
  0
SPLINE
  5
13A
330
1F
100
AcDbEntity
  8
0
  6
Continuous
 62
     7
370
    25
100
AcDbSpline
210
0.0
220
0.0
230
1.0
 70
     8
 71
     3
 72
    23
 73
    19
 74
     0
 42
0.000000001
 43
0.00000001
 40
0.0
 40
0.0
 40
0.0
 40
0.0
 40
0.0600087154216056
 40
0.1181696570696876
 40
0.1763305987177702
 40
0.2356776119542369
 40
0.2952395097467896
 40
0.3521667356217458
 40
0.4085429861613284
 40
0.4645834609296093
 40
0.4980443117128466
 40
0.5406544242254246
 40
0.5927866648314517
 40
0.6544067832362391
 40
0.7262034600892323
 40
0.8076145132740987
 40
0.8986946317384756
 40
1.0
 40
1.0
 40
1.0
 40
1.0
 10
-15.90480657023627
 20
-35.26858957615236
 30
0.0
 10
-15.83603763393297
 20
-35.26516235644121
 30
0.0
 10
-15.70061727769116
 20
-35.25841344713491
 30
0.0
 10
-15.50269916197822
 20
-35.21138125694235
 30
0.0
 10
-15.31786135259398
 20
-35.12970115944844
 30
0.0
 10
-15.14550666470291
 20
-35.02105032178371
 30
0.0
 10
-14.99461005565427
 20
-34.88652930471388
 30
0.0
 10
-14.86357763902817
 20
-34.73711588628278
 30
0.0
 10
-14.76150798815122
 20
-34.57107599215853
 30
0.0
 10
-14.69642415043421
 20
-34.41632694018493
 30
0.0
 10
-14.65742259576962
 20
-34.26976169603722
 30
0.0
 10
-14.63602342096592
 20
-34.12429183152108
 30
0.0
 10
-14.61254453308818
 20
-33.94667093766436
 30
0.0
 10
-14.59818805557996
 20
-33.73447088022802
 30
0.0
 10
-14.58204424113589
 20
-33.48886783949213
 30
0.0
 10
-14.57424943794275
 20
-33.20903294338319
 30
0.0
 10
-14.56838350228259
 20
-32.89539181242557
 30
0.0
 10
-14.56783893402684
 20
-32.67496245393426
 30
0.0
 10
-14.56755217805252
 20
-32.55888988672739
 30
0.0
  0
SPLINE
  5
13B
330
1F
100
AcDbEntity
  8
0
  6
Continuous
 62
     7
370
    25
100
AcDbSpline
210
0.0
220
0.0
230
1.0
 70
     8
 71
     3
 72
    23
 73
    19
 74
     0
 42
0.000000001
 43
0.00000001
 40
0.0
 40
0.0
 40
0.0
 40
0.0
 40
0.0669483066585529
 40
0.1316346426994931
 40
0.1944021812682421
 40
0.2553585890331233
 40
0.3155260221793577
 40
0.3745679929736582
 40
0.4332801456928471
 40
0.4917915038679457
 40
0.5504715756324982
 40
0.6101479981780907
 40
0.6704209643053436
 40
0.7320990473767414
 40
0.7955231524141881
 40
0.8609259957961901
 40
0.9291403335238171
 40
0.9999999999999999
 40
0.9999999999999999
 40
0.9999999999999999
 40
0.9999999999999999
 10
-43.72784740040828
 20
-23.34318601061818
 30
0.0
 10
-43.75693016739016
 20
-23.4232971510025
 30
0.0
 10
-43.81411308704036
 20
-23.5808127308143
 30
0.0
 10
-43.91858665509651
 20
-23.80541097493301
 30
0.0
 10
-44.03536753971601
 20
-24.01503153483451
 30
0.0
 10
-44.16389431386921
 20
-24.21079440765621
 30
0.0
 10
-44.3036886535358
 20
-24.39295500667707
 30
0.0
 10
-44.45937302162527
 20
-24.55768144549903
 30
0.0
 10
-44.62336320159344
 20
-24.71110593955459
 30
0.0
 10
-44.8025188327212
 20
-24.84592291295295
 30
0.0
 10
-44.99235092206259
 20
-24.96716806788922
 30
0.0
 10
-45.19381346279901
 20
-25.07325629530391
 30
0.0
 10
-45.40851759428054
 20
-25.15965570056892
 30
0.0
 10
-45.63321200188715
 20
-25.23200935732682
 30
0.0
 10
-45.86891660037003
 20
-25.28976213743458
 30
0.0
 10
-46.11659301509073
 20
-25.33013700771053
 30
0.0
 10
-46.37592348422204
 20
-25.35466758842823
 30
0.0
 10
-46.55294283977931
 20
-25.35709272885351
 30
0.0
 10
-46.64313606148475
 20
-25.3583283633826
 30
0.0
  0
SPLINE
  5
13C
330
1F
100
AcDbEntity
  8
0
  6
Continuous
 62
     7
370
    25
100
AcDbSpline
210
0.0
220
0.0
230
1.0
 70
     8
 71
     3
 72
    15
 73
    11
 74
     0
 42
0.000000001
 43
0.00000001
 40
0.0
 40
0.0
 40
0.0
 40
0.0
 40
0.1263016714495319
 40
0.2485555039110696
 40
0.3681867118803003
 40
0.4879270923562546
 40
0.6085643763376156
 40
0.7332836359026496
 40
0.8630349392776849
 40
1.0
 40
1.0
 40
1.0
 40
1.0
 10
-55.61866900403658
 20
-29.57877587422927
 30
0.0
 10
-55.52218897619213
 20
-29.58211813361271
 30
0.0
 10
-55.33232100640984
 20
-29.58869553639542
 30
0.0
 10
-55.05396117884629
 20
-29.63654625211006
 30
0.0
 10
-54.79100260862457
 20
-29.72283882359796
 30
0.0
 10
-54.53841308816308
 20
-29.83364610839937
 30
0.0
 10
-54.30383502089914
 20
-29.9861693025495
 30
0.0
 10
-54.08014736220203
 20
-30.16587911492572
 30
0.0
 10
-53.87099582500285
 20
-30.3808971654368
 30
0.0
 10
-53.74812064407169
 20
-30.54356215581504
 30
0.0
 10
-53.68502137877366
 20
-30.62709441436224
 30
0.0
  0
SPLINE
  5
13D
330
1F
100
AcDbEntity
  8
0
  6
Continuous
 62
     7
370
    25
100
AcDbSpline
210
0.0
220
0.0
230
1.0
 70
     8
 71
     3
 72
    19
 73
    15
 74
     0
 42
0.000000001
 43
0.00000001
 40
0.0
 40
0.0
 40
0.0
 40
0.0
 40
0.1015823127736494
 40
0.1959762903121489
 40
0.2820741806822902
 40
0.3609077849540867
 40
0.4328316250140568
 40
0.4971314585975576
 40
0.5556584150134491
 40
0.607536299208142
 40
0.7044377126006982
 40
0.8017257451595369
 40
0.8986540569324567
 40
0.9999999999999999
 40
0.9999999999999999
 40
0.9999999999999999
 40
0.9999999999999999
 10
-9.114814047042907
 20
-30.64005948464657
 30
0.0
 10
-9.08409207966985
 20
-30.58687985634547
 30
0.0
 10
-9.024822143472601
 20
-30.4842837843516
 30
0.0
 10
-8.937146793880354
 20
-30.33797366583225
 30
0.0
 10
-8.849896555007366
 20
-30.20758010323798
 30
0.0
 10
-8.763879356302812
 20
-30.09310170557737
 30
0.0
 10
-8.684123941637688
 20
-29.99024419222318
 30
0.0
 10
-8.602984029275346
 20
-29.90481149760747
 30
0.0
 10
-8.526753322099486
 20
-29.83140888780446
 30
0.0
 10
-8.424758265816404
 20
-29.75802893077388
 30
0.0
 10
-8.293856781041425
 20
-29.68641191790518
 30
0.0
 10
-8.129330954156003
 20
-29.62203615068666
 30
0.0
 10
-7.953128755525448
 20
-29.58685138021075
 30
0.0
 10
-7.83326856063429
 20
-29.58150739825587
 30
0.0
 10
-7.772003196165878
 20
-29.57877587422927
 30
0.0
  0
SPLINE
  5
13E
330
1F
100
AcDbEntity
  8
0
  6
Continuous
 62
     7
370
    25
100
AcDbSpline
210
0.0
220
0.0
230
1.0
 70
     8
 71
     3
 72
    11
 73
     7
 74
     0
 42
0.000000001
 43
0.00000001
 40
0.0
 40
0.0
 40
0.0
 40
0.0
 40
0.2849354896977365
 40
0.5428569850774593
 40
0.779294040570993
 40
1.0
 40
1.0
 40
1.0
 40
1.0
 10
-46.27640978772799
 20
-31.64392635523325
 30
0.0
 10
-46.34634074901133
 20
-31.59994386833027
 30
0.0
 10
-46.47957269862249
 20
-31.5161487599649
 30
0.0
 10
-46.68753140327139
 20
-31.42712692795938
 30
0.0
 10
-46.88755219657643
 20
-31.36884434005665
 30
0.0
 10
-47.02000231353951
 20
-31.36075037487455
 30
0.0
 10
-47.08394845115197
 20
-31.35684265608024
 30
0.0
  0
SPLINE
  5
13F
330
1F
100
AcDbEntity
  8
0
  6
Continuous
 62
     7
370
    25
100
AcDbSpline
210
0.0
220
0.0
230
1.0
 70
     8
 71
     3
 72
    15
 73
    11
 74
     0
 42
0.000000001
 43
0.00000001
 40
0.0
 40
0.0
 40
0.0
 40
0.0
 40
0.1435251274712936
 40
0.2775539868208899
 40
0.4055586558594677
 40
0.5285900532944611
 40
0.6467172165863622
 40
0.7638904022788725
 40
0.8808961000726454
 40
1.0
 40
1.0
 40
1.0
 40
1.0
 10
-53.68502137877365
 20
-35.32600631598296
 30
0.0
 10
-53.75557639378948
 20
-35.4157340550059
 30
0.0
 10
-53.89201818661608
 20
-35.58925274217252
 30
0.0
 10
-54.11890885309793
 20
-35.81916062023814
 30
0.0
 10
-54.35430036332317
 20
-36.01556353657036
 30
0.0
 10
-54.60099214419252
 20
-36.17588658874645
 30
0.0
 10
-54.85828140467555
 20
-36.29967115855776
 30
0.0
 10
-55.12414798909746
 20
-36.38977859861182
 30
0.0
 10
-55.40112776706771
 20
-36.44256016151153
 30
0.0
 10
-55.58881619117356
 20
-36.45014254720818
 30
0.0
 10
-55.68349435545822
 20
-36.45396743071966
 30
0.0
  0
SPLINE
  5
140
330
1F
100
AcDbEntity
  8
0
  6
Continuous
 62
     7
370
    25
100
AcDbSpline
210
0.0
220
0.0
230
1.0
 70
     8
 71
     3
 72
    15
 73
    11
 74
     0
 42
0.000000001
 43
0.00000001
 40
0.0
 40
0.0
 40
0.0
 40
0.0
 40
0.1194664467756378
 40
0.2345405276451616
 40
0.3470801524623162
 40
0.4585195581689293
 40
0.5752567423316651
 40
0.7026490971142181
 40
0.844307583053409
 40
1.0
 40
1.0
 40
1.0
 40
1.0
 10
-53.44609365496245
 20
-25.3583283633826
 30
0.0
 10
-53.53398217200732
 20
-25.35636812790136
 30
0.0
 10
-53.70652785088207
 20
-25.3525197279825
 30
0.0
 10
-53.95810263510279
 20
-25.30641774648644
 30
0.0
 10
-54.1991987061504
 20
-25.2420489970394
 30
0.0
 10
-54.42994874636558
 20
-25.14269499502127
 30
0.0
 10
-54.65553286114275
 20
-25.00983630618887
 30
0.0
 10
-54.88312054140413
 20
-24.84015640233155
 30
0.0
 10
-55.11641487672577
 20
-24.632209763535
 30
0.0
 10
-55.266149556551
 20
-24.47300942102976
 30
0.0
 10
-55.3445503751679
 20
-24.38965239785338
 30
0.0
  0
SPLINE
  5
141
330
1F
100
AcDbEntity
  8
0
  6
Continuous
 62
     7
370
    25
100
AcDbSpline
210
0.0
220
0.0
230
1.0
 70
     8
 71
     3
 72
    11
 73
     7
 74
     0
 42
0.000000001
 43
0.00000001
 40
0.0
 40
0.0
 40
0.0
 40
0.0
 40
0.2390145061485154
 40
0.4800549131243806
 40
0.7317568716973855
 40
1.0
 40
1.0
 40
1.0
 40
1.0
 10
-46.88947239688702
 20
-29.57877587422927
 30
0.0
 10
-46.80077206620214
 20
-29.58375562183356
 30
0.0
 10
-46.62261957568106
 20
-29.59375732567189
 30
0.0
 10
-46.35870240727121
 20
-29.66519786615401
 30
0.0
 10
-46.1020915968038
 20
-29.78613063969294
 30
0.0
 10
-45.94339840941792
 20
-29.89615068598693
 30
0.0
 10
-45.86152753862943
 20
-29.95291075957708
 30
0.0
  0
SPLINE
  5
142
330
1F
100
AcDbEntity
  8
0
  6
Continuous
 62
     7
370
    25
100
AcDbSpline
210
0.0
220
0.0
230
1.0
 70
     8
 71
     3
 72
    11
 73
     7
 74
     0
 42
0.000000001
 43
0.00000001
 40
0.0
 40
0.0
 40
0.0
 40
0.0
 40
0.3453393420212099
 40
0.625092649451818
 40
0.849081795278816
 40
1.0
 40
1.0
 40
1.0
 40
1.0
 10
-61.20290999078726
 20
-35.88720864400467
 30
0.0
 10
-61.20972499471957
 20
-35.86128473901265
 30
0.0
 10
-61.22206071308613
 20
-35.81436033601601
 30
0.0
 10
-61.23849923473023
 20
-35.75053828149801
 30
0.0
 10
-61.25275050149838
 20
-35.70174433650907
 30
0.0
 10
-61.26211395130435
 20
-35.67419006165255
 30
0.0
 10
-61.26588318931115
 20
-35.66309814337553
 30
0.0
  0
SPLINE
  5
143
330
1F
100
AcDbEntity
  8
0
  6
Continuous
 62
     7
370
    25
100
AcDbSpline
210
0.0
220
0.0
230
1.0
 70
     8
 71
     3
 72
    27
 73
    23
 74
     0
 42
0.000000001
 43
0.00000001
 40
0.0
 40
0.0
 40
0.0
 40
0.0
 40
0.0805423417684138
 40
0.1605115993343215
 40
0.2406870160108291
 40
0.3221684340746965
 40
0.3631718680431638
 40
0.4032090869968031
 40
0.4427550331248553
 40
0.4817269672431414
 40
0.5208865515273526
 40
0.5602121842635889
 40
0.5995212437184533
 40
0.6397060246480797
 40
0.6805302846513457
 40
0.7223882670718501
 40
0.7650124154463797
 40
0.8088932715703094
 40
0.8541388767665113
 40
0.9009824646737707
 40
0.9495616902810519
 40
1.0
 40
1.0
 40
1.0
 40
1.0
 10
-61.97710990205155
 20
-25.3583283633826
 30
0.0
 10
-62.12808358535928
 20
-25.3533827388457
 30
0.0
 10
-62.42895672653008
 20
-25.34352667945263
 30
0.0
 10
-62.87418572109113
 20
-25.26268273846792
 30
0.0
 10
-63.30841733868736
 20
-25.13224484007266
 30
0.0
 10
-63.65825572349201
 20
-24.98210610686076
 30
0.0
 10
-63.92549385203117
 20
-24.83570102157377
 30
0.0
 10
-64.11501223836055
 20
-24.71246201411152
 30
0.0
 10
-64.29374504938536
 20
-24.58020374318628
 30
0.0
 10
-64.45751025275578
 20
-24.43212421811053
 30
0.0
 10
-64.60913423406741
 20
-24.2724754873505
 30
0.0
 10
-64.75062559748953
 20
-24.10280331276417
 30
0.0
 10
-64.87694631497578
 20
-23.91919129517651
 30
0.0
 10
-64.99162470620445
 20
-23.72497533008812
 30
0.0
 10
-65.09452700462329
 20
-23.51876726241047
 30
0.0
 10
-65.18031087021367
 20
-23.30000059500081
 30
0.0
 10
-65.2548413860235
 20
-23.07124489734921
 30
0.0
 10
-65.31631169545201
 20
-22.83198071848615
 30
0.0
 10
-65.36189140627299
 20
-22.58118209981399
 30
0.0
 10
-65.39503231402183
 20
-22.31965265185116
 30
0.0
 10
-65.41580010670333
 20
-22.04701155600515
 30
0.0
 10
-65.41875629379284
 20
-21.86150078863357
 30
0.0
 10
-65.42026213899005
 20
-21.76700389462322
 30
0.0
  0
SPLINE
  5
144
330
1F
100
AcDbEntity
  8
0
  6
Continuous
 62
     7
370
    25
100
AcDbSpline
210
0.0
220
0.0
230
1.0
 70
     8
 71
     3
 72
    15
 73
    11
 74
     0
 42
0.000000001
 43
0.00000001
 40
0.0
 40
0.0
 40
0.0
 40
0.0
 40
0.1223183994719745
 40
0.2439706762174677
 40
0.3659261870591076
 40
0.4906195840510718
 40
0.6162425689835217
 40
0.7417871253240109
 40
0.8687384077538651
 40
1.0
 40
1.0
 40
1.0
 40
1.0
 10
-55.3445503751679
 20
-19.45736923111472
 30
0.0
 10
-55.29163498919258
 20
-19.37683780242749
 30
0.0
 10
-55.18609238436427
 20
-19.21621350388862
 30
0.0
 10
-54.99142054211229
 20
-19.00225933937779
 30
0.0
 10
-54.76822203997444
 20
-18.81637702036761
 30
0.0
 10
-54.52284579644381
 20
-18.65517255330142
 30
0.0
 10
-54.25624777886511
 20
-18.52489825394589
 30
0.0
 10
-53.9726431303221
 20
-18.43248735351796
 30
0.0
 10
-53.67501499900269
 20
-18.37468715493418
 30
0.0
 10
-53.47167194713038
 20
-18.36799894769071
 30
0.0
 10
-53.36830323325646
 20
-18.36459902143549
 30
0.0
  0
SPLINE
  5
145
330
1F
100
AcDbEntity
  8
0
  6
Continuous
 62
     7
370
    25
100
AcDbSpline
210
0.0
220
0.0
230
1.0
 70
     8
 71
     3
 72
    23
 73
    19
 74
     0
 42
0.000000001
 43
0.00000001
 40
0.0
 40
0.0
 40
0.0
 40
0.0
 40
0.0967888526078265
 40
0.1861897280320972
 40
0.2689916235703716
 40
0.3449868027158602
 40
0.4154255682201055
 40
0.4802611057538637
 40
0.5403022907074356
 40
0.5962337465871695
 40
0.6495665341601636
 40
0.7004104196399562
 40
0.7502769974421187
 40
0.7995660435248501
 40
0.8481726304529557
 40
0.8971764448002143
 40
0.9477595957138292
 40
1.0
 40
1.0
 40
1.0
 40
1.0
 10
-55.01671931226412
 20
-39.06179871076774
 30
0.0
 10
-55.15072708433501
 20
-39.05993268194453
 30
0.0
 10
-55.40851369884486
 20
-39.05634305989891
 30
0.0
 10
-55.78037519239621
 20
-39.03157572323811
 30
0.0
 10
-56.12118755806377
 20
-38.9854059436347
 30
0.0
 10
-56.43239966406021
 20
-38.92239787760182
 30
0.0
 10
-56.71509389916047
 20
-38.84536575765569
 30
0.0
 10
-56.96636829972107
 20
-38.74414625544738
 30
0.0
 10
-57.18933418373151
 20
-38.62901540776654
 30
0.0
 10
-57.38038470656219
 20
-38.49173082366869
 30
0.0
 10
-57.54287806739405
 20
-38.3404050998527
 30
0.0
 10
-57.68596800595977
 20
-38.18184681652033
 30
0.0
 10
-57.80744145901002
 20
-38.01273005083532
 30
0.0
 10
-57.90530430497898
 20
-37.83256619810317
 30
0.0
 10
-57.9825715430307
 20
-37.64388219894056
 30
0.0
 10
-58.03571801218017
 20
-37.44531443574957
 30
0.0
 10
-58.07047637219224
 20
-37.23741198273611
 30
0.0
 10
-58.07445468356495
 20
-37.09495492258499
 30
0.0
 10
-58.07647589936598
 20
-37.02257837033241
 30
0.0
  0
SPLINE
  5
146
330
1F
100
AcDbEntity
  8
0
  6
Continuous
 62
     7
370
    25
100
AcDbSpline
210
0.0
220
0.0
230
1.0
 70
     8
 71
     3
 72
    19
 73
    15
 74
     0
 42
0.000000001
 43
0.00000001
 40
0.0
 40
0.0
 40
0.0
 40
0.0
 40
0.1159753861378749
 40
0.224942233423398
 40
0.3287537759320271
 40
0.4338463384754277
 40
0.4890384146086176
 40
0.5477056113015665
 40
0.6100795386673922
 40
0.67735815772844
 40
0.7499594817692062
 40
0.8275532388435634
 40
0.9109776678003345
 40
1.0
 40
1.0
 40
1.0
 40
1.0
 10
-38.77519055179427
 20
-35.26858957615235
 30
0.0
 10
-38.69887979421772
 20
-35.26530860291839
 30
0.0
 10
-38.55086983438804
 20
-35.25894492980095
 30
0.0
 10
-38.34069672193916
 20
-35.20192881869703
 30
0.0
 10
-38.15191362210911
 20
-35.10959634160081
 30
0.0
 10
-38.01501786259808
 20
-35.00103890848988
 30
0.0
 10
-37.91560078061485
 20
-34.89649196743085
 30
0.0
 10
-37.85084455522024
 20
-34.80019284232063
 30
0.0
 10
-37.78569916528191
 20
-34.69483046833033
 30
0.0
 10
-37.73224272594042
 20
-34.57290823419957
 30
0.0
 10
-37.67900491232587
 20
-34.4402489239446
 30
0.0
 10
-37.63641513193869
 20
-34.29264852117636
 30
0.0
 10
-37.59411228457999
 20
-34.13385068637652
 30
0.0
 10
-37.5741748663413
 20
-34.02227351192425
 30
0.0
 10
-37.5638825566583
 20
-33.96467393612832
 30
0.0
  0
SPLINE
  5
147
330
1F
100
AcDbEntity
  8
0
  6
Continuous
 62
     7
370
    25
100
AcDbSpline
210
0.0
220
0.0
230
1.0
 70
     8
 71
     3
 72
    23
 73
    19
 74
     0
 42
0.000000001
 43
0.00000001
 40
0.0
 40
0.0
 40
0.0
 40
0.0
 40
0.0470511600976129
 40
0.091595912516618
 40
0.1347888381470944
 40
0.1781669842654464
 40
0.2238290553762314
 40
0.2758805814759154
 40
0.33571216572984
 40
0.404791745786129
 40
0.4461606946968742
 40
0.4962562380769358
 40
0.556147347798933
 40
0.6259890870616152
 40
0.7047944089695994
 40
0.7936378808592623
 40
0.8920359546000713
 40
1.0
 40
1.0
 40
1.0
 40
1.0
 10
-7.966479250430828
 20
-31.35684265608024
 30
0.0
 10
-8.024110665936703
 20
-31.35930456269941
 30
0.0
 10
-8.13630348077769
 20
-31.36409723057084
 30
0.0
 10
-8.297810241538825
 20
-31.40226515489814
 30
0.0
 10
-8.446709947468353
 20
-31.46375934835364
 30
0.0
 10
-8.583594575730395
 20
-31.55215854396047
 30
0.0
 10
-8.706010741100616
 20
-31.67579810896218
 30
0.0
 10
-8.811400861813768
 20
-31.83867709431962
 30
0.0
 10
-8.899604209225869
 20
-32.04229871021943
 30
0.0
 10
-8.967020085145446
 20
-32.23994446840195
 30
0.0
 10
-9.009056442434487
 20
-32.43204857728034
 30
0.0
 10
-9.038701107931475
 20
-32.61497053363767
 30
0.0
 10
-9.061225127227035
 20
-32.83395486004945
 30
0.0
 10
-9.081844271515251
 20
-33.0883378843291
 30
0.0
 10
-9.095665391892434
 20
-33.3786818328746
 30
0.0
 10
-9.10654584609198
 20
-33.70407272011425
 30
0.0
 10
-9.114404394234715
 20
-34.06527053190582
 30
0.0
 10
-9.114673340415932
 20
-34.31781327849883
 30
0.0
 10
-9.114814047042907
 20
-34.4499379953418
 30
0.0
  0
SPLINE
  5
148
330
1F
100
AcDbEntity
  8
0
  6
Continuous
 62
     7
370
    25
100
AcDbSpline
210
0.0
220
0.0
230
1.0
 70
     8
 71
     3
 72
    23
 73
    19
 74
     0
 42
0.000000001
 43
0.00000001
 40
0.0
 40
0.0
 40
0.0
 40
0.0
 40
0.0600087154216076
 40
0.1181696570696885
 40
0.1763305987177715
 40
0.2356776119542382
 40
0.2952395097467904
 40
0.3521667356217463
 40
0.4085429861613288
 40
0.4645834609296099
 40
0.4980443117128471
 40
0.5406544242254252
 40
0.5927866648314521
 40
0.6544067832362395
 40
0.7262034600892326
 40
0.8076145132740989
 40
0.8986946317384759
 40
1.0
 40
1.0
 40
1.0
 40
1.0
 10
-31.55179425052472
 20
-35.26858957615235
 30
0.0
 10
-31.48302531422142
 20
-35.26516235644121
 30
0.0
 10
-31.34760495797961
 20
-35.25841344713491
 30
0.0
 10
-31.14968684226668
 20
-35.21138125694235
 30
0.0
 10
-30.96484903288242
 20
-35.12970115944843
 30
0.0
 10
-30.79249434499136
 20
-35.02105032178371
 30
0.0
 10
-30.64159773594273
 20
-34.88652930471388
 30
0.0
 10
-30.51056531931662
 20
-34.73711588628277
 30
0.0
 10
-30.40849566843968
 20
-34.57107599215855
 30
0.0
 10
-30.34341183072266
 20
-34.41632694018492
 30
0.0
 10
-30.30441027605807
 20
-34.26976169603722
 30
0.0
 10
-30.28301110125438
 20
-34.12429183152108
 30
0.0
 10
-30.25953221337663
 20
-33.94667093766434
 30
0.0
 10
-30.24517573586841
 20
-33.73447088022801
 30
0.0
 10
-30.22903192142434
 20
-33.48886783949213
 30
0.0
 10
-30.22123711823119
 20
-33.20903294338317
 30
0.0
 10
-30.21537118257103
 20
-32.89539181242557
 30
0.0
 10
-30.21482661431529
 20
-32.67496245393424
 30
0.0
 10
-30.21453985834097
 20
-32.55888988672739
 30
0.0
  0
SPLINE
  5
149
330
1F
100
AcDbEntity
  8
0
  6
Continuous
 62
     7
370
    25
100
AcDbSpline
210
0.0
220
0.0
230
1.0
 70
     8
 71
     3
 72
    15
 73
    11
 74
     0
 42
0.000000001
 43
0.00000001
 40
0.0
 40
0.0
 40
0.0
 40
0.0
 40
0.1479400458926838
 40
0.2822346375108209
 40
0.4058497009432475
 40
0.5226079234753649
 40
0.6357307540076107
 40
0.750417768454962
 40
0.8703536659000953
 40
1.0
 40
1.0
 40
1.0
 40
1.0
 10
-37.68242034211504
 20
-31.9495315833639
 30
0.0
 10
-37.69876253117488
 20
-31.8662642875084
 30
0.0
 10
-37.72993956493612
 20
-31.70740996973073
 30
0.0
 10
-37.80898938720111
 20
-31.48742350246663
 30
0.0
 10
-37.91710303659953
 20
-31.30044703199514
 30
0.0
 10
-38.05230874719453
 20
-31.14768535283175
 30
0.0
 10
-38.21145578077172
 20
-31.02864337106994
 30
0.0
 10
-38.39222032511077
 20
-30.94183558763341
 30
0.0
 10
-38.59653872322483
 20
-30.89133966130167
 30
0.0
 10
-38.73971326355178
 20
-30.88564804406976
 30
0.0
 10
-38.81408576264726
 20
-30.88269151425331
 30
0.0
  0
SPLINE
  5
14B
330
1F
100
AcDbEntity
  8
0
  6
Continuous
 62
     7
370
    25
100
AcDbSpline
210
0.0
220
0.0
230
1.0
 70
     8
 71
     3
 72
    11
 73
     7
 74
     0
 42
0.000000001
 43
0.00000001
 40
0.0
 40
0.0
 40
0.0
 40
0.0
 40
0.2406259868091239
 40
0.4844255629709898
 40
0.7350098609111846
 40
1.0
 40
1.0
 40
1.0
 40
1.0
 10
-62.83280454081733
 20
-35.26858957615235
 30
0.0
 10
-62.75830666125343
 20
-35.26521866967079
 30
0.0
 10
-62.60832835788546
 20
-35.25843239819737
 30
0.0
 10
-62.38836541930448
 20
-35.19642629385707
 30
0.0
 10
-62.17119364610561
 20
-35.10490617350747
 30
0.0
 10
-62.03932834208202
 20
-35.01483483365246
 30
0.0
 10
-61.97155344335825
 20
-34.968540806715
 30
0.0
  0
SPLINE
  5
14C
330
1F
100
AcDbEntity
  8
0
  6
Continuous
 62
     7
370
    25
100
AcDbSpline
210
0.0
220
0.0
230
1.0
 70
     8
 71
     3
 72
    11
 73
     7
 74
     0
 42
0.000000001
 43
0.00000001
 40
0.0
 40
0.0
 40
0.0
 40
0.0
 40
0.2687570584183936
 40
0.5157779659724897
 40
0.7534145204212109
 40
1.0
 40
1.0
 40
1.0
 40
1.0
 10
-63.43475423258979
 20
-33.80538878692083
 30
0.0
 10
-63.48448437280055
 20
-33.84455648749171
 30
0.0
 10
-63.57992264972017
 20
-33.91972413909185
 30
0.0
 10
-63.68396143093846
 20
-34.06498401600538
 30
0.0
 10
-63.74998057844034
 20
-34.22602612446842
 30
0.0
 10
-63.75710506524354
 20
-34.34002491236888
 30
0.0
 10
-63.76073314259578
 20
-34.39807771420448
 30
0.0
  0
SPLINE
  5
14D
330
1F
100
AcDbEntity
  8
0
  6
Continuous
 62
     7
370
    25
100
AcDbSpline
210
0.0
220
0.0
230
1.0
 70
     8
 71
     3
 72
    11
 73
     7
 74
     0
 42
0.000000001
 43
0.00000001
 40
0.0
 40
0.0
 40
0.0
 40
0.0
 40
0.2638498772130427
 40
0.5130136766556218
 40
0.7551135787706392
 40
0.9999999999999999
 40
0.9999999999999999
 40
0.9999999999999999
 40
0.9999999999999999
 10
-61.97155344335825
 20
-34.968540806715
 30
0.0
 10
-61.92368830814495
 20
-34.93000632669227
 30
0.0
 10
-61.83062224626623
 20
-34.85508222408028
 30
0.0
 10
-61.719700574547
 20
-34.7181656113673
 30
0.0
 10
-61.62816560784025
 20
-34.57251898636335
 30
0.0
 10
-61.59168516279344
 20
-34.46507311897516
 30
0.0
 10
-61.57334057033955
 20
-34.41104278448881
 30
0.0
  0
SPLINE
  5
14E
330
1F
100
AcDbEntity
  8
0
  6
Continuous
 62
     7
370
    25
100
AcDbSpline
210
0.0
220
0.0
230
1.0
 70
     8
 71
     3
 72
    15
 73
    11
 74
     0
 42
0.000000001
 43
0.00000001
 40
0.0
 40
0.0
 40
0.0
 40
0.0
 40
0.1221012151271774
 40
0.2395107697832577
 40
0.3576814847117836
 40
0.482842351135632
 40
0.6091779526486505
 40
0.7348290604433434
 40
0.8622816855471997
 40
1.0
 40
1.0
 40
1.0
 40
1.0
 10
-63.76073314259578
 20
-34.39807771420448
 30
0.0
 10
-63.75753316548771
 20
-34.45583901181322
 30
0.0
 10
-63.75125616832889
 20
-34.56914216640948
 30
0.0
 10
-63.70125968500481
 20
-34.73240754846901
 30
0.0
 10
-63.61718559498048
 20
-34.88198376702715
 30
0.0
 10
-63.50267779671262
 20
-35.01495578311395
 30
0.0
 10
-63.36489026582196
 20
-35.13007493036156
 30
0.0
 10
-63.20247044710667
 20
-35.20897841146377
 30
0.0
 10
-63.02353332037844
 20
-35.25992735359641
 30
0.0
 10
-62.89800073500071
 20
-35.26562859698016
 30
0.0
 10
-62.83280454081733
 20
-35.26858957615235
 30
0.0
  0
SPLINE
  5
14F
330
1F
100
AcDbEntity
  8
0
  6
Continuous
 62
     7
370
    25
100
AcDbSpline
210
0.0
220
0.0
230
1.0
 70
     8
 71
     3
 72
    19
 73
    15
 74
     0
 42
0.000000001
 43
0.00000001
 40
0.0
 40
0.0
 40
0.0
 40
0.0
 40
0.0953519569691982
 40
0.2147580112310538
 40
0.3569481273475383
 40
0.5222131315249569
 40
0.607195120542157
 40
0.6840998848720403
 40
0.7547573938399774
 40
0.8174437891789977
 40
0.8739950427182863
 40
0.9227786581197843
 40
0.9644315632932985
 40
1.0
 40
1.0
 40
1.0
 40
1.0
 10
-61.5085152189179
 20
-33.25344722338792
 30
0.0
 10
-61.56954054615406
 20
-33.27229240751647
 30
0.0
 10
-61.70698584175712
 20
-33.31473678300038
 30
0.0
 10
-61.9378540185644
 20
-33.37709683507192
 30
0.0
 10
-62.21613220661084
 20
-33.44281016975008
 30
0.0
 10
-62.47275121642421
 20
-33.49967096241893
 30
0.0
 10
-62.68697310714377
 20
-33.5458530562378
 30
0.0
 10
-62.83809198297696
 20
-33.58361255764862
 30
0.0
 10
-62.97426854653587
 20
-33.61961733780572
 30
0.0
 10
-63.09570642989581
 20
-33.65742796941191
 30
0.0
 10
-63.20256816185613
 20
-33.6930202051167
 30
0.0
 10
-63.29329800292191
 20
-33.73115813375727
 30
0.0
 10
-63.37105396374787
 20
-33.76455343837408
 30
0.0
 10
-63.41466625113534
 20
-33.7925112945773
 30
0.0
 10
-63.43475423258979
 20
-33.80538878692083
 30
0.0
  0
SPLINE
  5
150
330
1F
100
AcDbEntity
  8
0
  6
Continuous
 62
     7
370
    25
100
AcDbSpline
210
0.0
220
0.0
230
1.0
 70
     8
 71
     3
 72
    11
 73
     7
 74
     0
 42
0.000000001
 43
0.00000001
 40
0.0
 40
0.0
 40
0.0
 40
0.0
 40
0.1647636762527393
 40
0.3856901637451234
 40
0.6639276039318293
 40
0.9999999999999999
 40
0.9999999999999999
 40
0.9999999999999999
 40
0.9999999999999999
 10
-61.57334057033955
 20
-34.41104278448881
 30
0.0
 10
-61.56323017799646
 20
-34.36673425769376
 30
0.0
 10
-61.53956307510694
 20
-34.26301380581046
 30
0.0
 10
-61.52286536174388
 20
-34.080418599533
 30
0.0
 10
-61.50935795915115
 20
-33.85067863566812
 30
0.0
 10
-61.5088132271506
 20
-33.68133192855885
 30
0.0
 10
-61.5085152189179
 20
-33.58868689788275
 30
0.0
  0
SPLINE
  5
152
330
1F
100
AcDbEntity
  8
0
  6
Continuous
 62
     7
370
    25
100
AcDbSpline
210
0.0
220
0.0
230
1.0
 70
     8
 71
     3
 72
    23
 73
    19
 74
     0
 42
0.000000001
 43
0.00000001
 40
0.0
 40
0.0
 40
0.0
 40
0.0
 40
0.0823140672842404
 40
0.1603123936247481
 40
0.2345153670157926
 40
0.3037394508152232
 40
0.3702578792919092
 40
0.4340595492448032
 40
0.4957829276322226
 40
0.5558429355079806
 40
0.6145055367761243
 40
0.6712937801088532
 40
0.7265585249081574
 40
0.7799647251548162
 40
0.8339585931870462
 40
0.8884952381274686
 40
0.9433177049747237
 40
1.0
 40
1.0
 40
1.0
 40
1.0
 10
-2.002546919639053
 20
-32.54222051064754
 30
0.0
 10
-2.005607083179409
 20
-32.47674048608908
 30
0.0
 10
-2.011566965350505
 20
-32.34921356611164
 30
0.0
 10
-2.031007900156
 20
-32.16327962870628
 30
0.0
 10
-2.064381387904336
 20
-31.98997585634229
 30
0.0
 10
-2.108277319408865
 20
-31.82836761394467
 30
0.0
 10
-2.166848145660606
 20
-31.68044436001938
 30
0.0
 10
-2.232239612060958
 20
-31.54196639791892
 30
0.0
 10
-2.312433900906465
 20
-31.41724559923496
 30
0.0
 10
-2.404297715005332
 20
-31.30656851973763
 30
0.0
 10
-2.5011997327316
 20
-31.20540610170809
 30
0.0
 10
-2.60831630778401
 20
-31.12128299756175
 30
0.0
 10
-2.716623786114673
 20
-31.04599914864729
 30
0.0
 10
-2.831724278943446
 20
-30.98575935944449
 30
0.0
 10
-2.95242538116682
 20
-30.93973611717985
 30
0.0
 10
-3.078320612752206
 20
-30.90589865178947
 30
0.0
 10
-3.209629878671729
 20
-30.88776710973525
 30
0.0
 10
-3.298386901162581
 20
-30.88440208821687
 30
0.0
 10
-3.34350561761832
 20
-30.88269151425331
 30
0.0
  0
SPLINE
  5
153
330
1F
100
AcDbEntity
  8
0
  6
Continuous
 62
     7
370
    25
100
AcDbSpline
210
0.0
220
0.0
230
1.0
 70
     8
 71
     3
 72
    15
 73
    11
 74
     0
 42
0.000000001
 43
0.00000001
 40
0.0
 40
0.0
 40
0.0
 40
0.0
 40
0.1129842427903393
 40
0.2269994259657062
 40
0.3443914823446693
 40
0.463956298353459
 40
0.58957177017282
 40
0.7197302167382376
 40
0.8558571493596449
 40
1.0
 40
1.0
 40
1.0
 40
1.0
 10
-4.319590194738587
 20
-31.32906036261381
 30
0.0
 10
-4.350053660748022
 20
-31.36736538741897
 30
0.0
 10
-4.411258560885293
 20
-31.44432495653789
 30
0.0
 10
-4.488884420205878
 20
-31.57192698396805
 30
0.0
 10
-4.556501934534236
 20
-31.70831860736305
 30
0.0
 10
-4.606891677541705
 20
-31.85718226511647
 30
0.0
 10
-4.651144095475876
 20
-32.01369360818094
 30
0.0
 10
-4.677102291624831
 20
-32.18159306249942
 30
0.0
 10
-4.69458890818014
 20
-32.35847851624443
 30
0.0
 10
-4.696464677198882
 20
-32.47981639554828
 30
0.0
 10
-4.697429385881916
 20
-32.54222051064754
 30
0.0
  0
SPLINE
  5
154
330
1F
100
AcDbEntity
  8
0
  6
Continuous
 62
     7
370
    25
100
AcDbSpline
210
0.0
220
0.0
230
1.0
 70
     8
 71
     3
 72
    15
 73
    11
 74
     0
 42
0.000000001
 43
0.00000001
 40
0.0
 40
0.0
 40
0.0
 40
0.0
 40
0.1304396078860089
 40
0.2570377633131922
 40
0.3797878639989855
 40
0.4998150792138798
 40
0.6208489508693384
 40
0.7445384648572331
 40
0.8700746107040367
 40
1.0
 40
1.0
 40
1.0
 40
1.0
 10
-3.34350561761832
 20
-30.88269151425331
 30
0.0
 10
-3.39172279166542
 20
-30.88425665865143
 30
0.0
 10
-3.486737141763596
 20
-30.88734085387308
 30
0.0
 10
-3.626072855515828
 20
-30.9074646572917
 30
0.0
 10
-3.758142705611107
 20
-30.94315773227525
 30
0.0
 10
-3.883953199787754
 20
-30.99146650364254
 30
0.0
 10
-4.003234721644363
 20
-31.05508409560956
 30
0.0
 10
-4.115989938113282
 20
-31.13310322591611
 30
0.0
 10
-4.222643043790333
 20
-31.22454710380405
 30
0.0
 10
-4.286906428037288
 20
-31.29382583602155
 30
0.0
 10
-4.319590194738587
 20
-31.32906036261381
 30
0.0
  0
SPLINE
  5
156
330
1F
100
AcDbEntity
  8
0
  6
Continuous
 62
     7
370
    25
100
AcDbSpline
210
0.0
220
0.0
230
1.0
 70
     8
 71
     3
 72
    15
 73
    11
 74
     0
 42
0.000000001
 43
0.00000001
 40
0.0
 40
0.0
 40
0.0
 40
0.0
 40
0.1129842427903389
 40
0.2269994259657044
 40
0.3443914823446712
 40
0.4639562983534566
 40
0.5895717701728227
 40
0.7197302167382369
 40
0.8558571493596449
 40
1.0
 40
1.0
 40
1.0
 40
1.0
 10
-47.70441967190204
 20
-20.11488350982003
 30
0.0
 10
-47.7348831379115
 20
-20.15318853462519
 30
0.0
 10
-47.79608803804876
 20
-20.23014810374411
 30
0.0
 10
-47.87371389736933
 20
-20.35775013117427
 30
0.0
 10
-47.94133141169769
 20
-20.49414175456926
 30
0.0
 10
-47.99172115470519
 20
-20.64300541232271
 30
0.0
 10
-48.03597357263934
 20
-20.79951675538715
 30
0.0
 10
-48.06193176878828
 20
-20.96741620970563
 30
0.0
 10
-48.0794183853436
 20
-21.14430166345064
 30
0.0
 10
-48.08129415436233
 20
-21.26563954275449
 30
0.0
 10
-48.08225886304538
 20
-21.32804365785375
 30
0.0
  0
SPLINE
  5
157
330
1F
100
AcDbEntity
  8
0
  6
Continuous
 62
     7
370
    25
100
AcDbSpline
210
0.0
220
0.0
230
1.0
 70
     8
 71
     3
 72
    15
 73
    11
 74
     0
 42
0.000000001
 43
0.00000001
 40
0.0
 40
0.0
 40
0.0
 40
0.0
 40
0.1304396078860086
 40
0.2570377633131938
 40
0.3797878639989864
 40
0.4998150792138826
 40
0.6208489508693402
 40
0.7445384648572352
 40
0.8700746107040367
 40
1.0
 40
1.0
 40
1.0
 40
1.0
 10
-46.72833509478178
 20
-19.66851466145953
 30
0.0
 10
-46.77655226882887
 20
-19.67007980585764
 30
0.0
 10
-46.87156661892706
 20
-19.67316400107929
 30
0.0
 10
-47.01090233267929
 20
-19.69328780449792
 30
0.0
 10
-47.14297218277456
 20
-19.72898087948145
 30
0.0
 10
-47.2687826769512
 20
-19.77728965084875
 30
0.0
 10
-47.38806419880784
 20
-19.84090724281579
 30
0.0
 10
-47.50081941527674
 20
-19.91892637312232
 30
0.0
 10
-47.6074725209538
 20
-20.01037025101026
 30
0.0
 10
-47.67173590520074
 20
-20.07964898322776
 30
0.0
 10
-47.70441967190204
 20
-20.11488350982003
 30
0.0
  0
SPLINE
  5
158
330
1F
100
AcDbEntity
  8
0
  6
Continuous
 62
     7
370
    25
100
AcDbSpline
210
0.0
220
0.0
230
1.0
 70
     8
 71
     3
 72
    23
 73
    19
 74
     0
 42
0.000000001
 43
0.00000001
 40
0.0
 40
0.0
 40
0.0
 40
0.0
 40
0.0823140672842419
 40
0.1603123936247499
 40
0.2345153670157944
 40
0.303739450815225
 40
0.3702578792919082
 40
0.4340595492448042
 40
0.4957829276322228
 40
0.5558429355079815
 40
0.6145055367761244
 40
0.6712937801088551
 40
0.7265585249081576
 40
0.7799647251548172
 40
0.8339585931870463
 40
0.8884952381274696
 40
0.9433177049747248
 40
1.0
 40
1.0
 40
1.0
 40
1.0
 10
-45.38737639680251
 20
-21.32804365785375
 30
0.0
 10
-45.39043656034287
 20
-21.26256363329529
 30
0.0
 10
-45.39639644251396
 20
-21.13503671331786
 30
0.0
 10
-45.41583737731947
 20
-20.94910277591249
 30
0.0
 10
-45.44921086506778
 20
-20.77579900354851
 30
0.0
 10
-45.49310679657232
 20
-20.61419076115089
 30
0.0
 10
-45.55167762282407
 20
-20.46626750722561
 30
0.0
 10
-45.61706908922442
 20
-20.32778954512514
 30
0.0
 10
-45.69726337806992
 20
-20.20306874644117
 30
0.0
 10
-45.78912719216878
 20
-20.09239166694385
 30
0.0
 10
-45.88602920989507
 20
-19.9912292489143
 30
0.0
 10
-45.99314578494746
 20
-19.90710614476797
 30
0.0
 10
-46.10145326327813
 20
-19.83182229585349
 30
0.0
 10
-46.2165537561069
 20
-19.77158250665071
 30
0.0
 10
-46.33725485833027
 20
-19.72555926438606
 30
0.0
 10
-46.46315008991566
 20
-19.69172179899569
 30
0.0
 10
-46.59445935583518
 20
-19.67359025694147
 30
0.0
 10
-46.68321637832605
 20
-19.67022523542308
 30
0.0
 10
-46.72833509478178
 20
-19.66851466145953
 30
0.0
  0
SPLINE
  5
159
330
1F
100
AcDbEntity
  8
0
  6
Continuous
 62
     7
370
    25
100
AcDbSpline
210
0.0
220
0.0
230
1.0
 70
     8
 71
     3
 72
    23
 73
    19
 74
     0
 42
0.000000001
 43
0.00000001
 40
0.0
 40
0.0
 40
0.0
 40
0.0
 40
0.0557109093311798
 40
0.1096034069599868
 40
0.1630123745867642
 40
0.2153315940068398
 40
0.2686097598587022
 40
0.3230571158220599
 40
0.3789923695950096
 40
0.4369786367010857
 40
0.497276061421234
 40
0.558934852818439
 40
0.6234410921491529
 40
0.6904049909511438
 40
0.7612051292367551
 40
0.83633782767882
 40
0.915622949841195
 40
1.0
 40
1.0
 40
1.0
 40
1.0
 10
-61.97896205494931
 20
-24.05441272335856
 30
0.0
 10
-61.92145069468723
 20
-24.05253785932909
 30
0.0
 10
-61.8083051528302
 20
-24.04884932708857
 30
0.0
 10
-61.64165865468284
 20
-24.02243150157795
 30
0.0
 10
-61.48264211595934
 20
-23.97809762597915
 30
0.0
 10
-61.33029960592444
 20
-23.91610754224493
 30
0.0
 10
-61.18524987504817
 20
-23.83622583637824
 30
0.0
 10
-61.04799873255096
 20
-23.73713050670823
 30
0.0
 10
-60.91800171466878
 20
-23.62146132990217
 30
0.0
 10
-60.79489006394539
 20
-23.48996516997708
 30
0.0
 10
-60.68430230988654
 20
-23.34020081740159
 30
0.0
 10
-60.5876739279144
 20
-23.17342545353184
 30
0.0
 10
-60.50393406254685
 20
-22.99214951072659
 30
0.0
 10
-60.4376586780127
 20
-22.79381123500754
 30
0.0
 10
-60.3859504740863
 20
-22.58000369512348
 30
0.0
 10
-60.34968793964578
 20
-22.35020638803829
 30
0.0
 10
-60.32701668544166
 20
-22.10455148828358
 30
0.0
 10
-60.3244570172144
 20
-21.93560172346159
 30
0.0
 10
-60.3231373643506
 20
-21.84849862212472
 30
0.0
  0
SPLINE
  5
15A
330
1F
100
AcDbEntity
  8
0
  6
Continuous
 62
     7
370
    25
100
AcDbSpline
210
0.0
220
0.0
230
1.0
 70
     8
 71
     3
 72
    23
 73
    19
 74
     0
 42
0.000000001
 43
0.00000001
 40
0.0
 40
0.0
 40
0.0
 40
0.0
 40
0.0833929666630174
 40
0.1622827343428173
 40
0.2370147369504028
 40
0.3075580489328061
 40
0.3741248756102319
 40
0.4387953520613248
 40
0.5006111307895273
 40
0.5609429731659842
 40
0.6194868293968927
 40
0.6755644979982771
 40
0.7301504805045642
 40
0.7835642960645692
 40
0.8365725852052507
 40
0.8901175355700751
 40
0.9441472470360617
 40
1.0
 40
1.0
 40
1.0
 40
1.0
 10
-63.64219535713905
 20
-21.86146369240905
 30
0.0
 10
-63.64087757518833
 20
-21.94733618707353
 30
0.0
 10
-63.63831317117693
 20
-22.11444408353804
 30
0.0
 10
-63.61545742462182
 20
-22.35757553865679
 30
0.0
 10
-63.58003219113995
 20
-22.58588993391713
 30
0.0
 10
-63.52532577474893
 20
-22.79726485864193
 30
0.0
 10
-63.45935520453158
 20
-22.99455666260303
 30
0.0
 10
-63.37561275468786
 20
-23.1751413434381
 30
0.0
 10
-63.27992207954986
 20
-23.342438978017
 30
0.0
 10
-63.1660394796228
 20
-23.49019146885684
 30
0.0
 10
-63.04191849440527
 20
-23.6209819891486
 30
0.0
 10
-62.91182764984949
 20
-23.73719673865835
 30
0.0
 10
-62.77449098877022
 20
-23.836152803883
 30
0.0
 10
-62.62906498762813
 20
-23.9166066051623
 30
0.0
 10
-62.47572940103521
 20
-23.97768370448347
 30
0.0
 10
-62.31629381224858
 20
-24.02250173621311
 30
0.0
 10
-62.14961156052044
 20
-24.04883100733524
 30
0.0
 10
-62.0364709225754
 20
-24.05253168557391
 30
0.0
 10
-61.97896205494931
 20
-24.05441272335856
 30
0.0
  0
SPLINE
  5
15B
330
1F
100
AcDbEntity
  8
0
  6
Continuous
 62
     7
370
    25
100
AcDbSpline
210
0.0
220
0.0
230
1.0
 70
     8
 71
     3
 72
    23
 73
    19
 74
     0
 42
0.000000001
 43
0.00000001
 40
0.0
 40
0.0
 40
0.0
 40
0.0
 40
0.0832565776802707
 40
0.1613865696335124
 40
0.2353463243913122
 40
0.306137922338382
 40
0.3725068862437659
 40
0.4369915145278434
 40
0.4991530274676073
 40
0.5594585530438052
 40
0.617917598564544
 40
0.6743089082611172
 40
0.7292001888969815
 40
0.7829127466841188
 40
0.8356585394783442
 40
0.8895029655042145
 40
0.9438348638887994
 40
1.0
 40
1.0
 40
1.0
 40
1.0
 10
-60.32313736435059
 20
-21.84849862212472
 30
0.0
 10
-60.32446356607304
 20
-21.76324852786916
 30
0.0
 10
-60.32703430765996
 20
-21.5979976773517
 30
0.0
 10
-60.3495777414035
 20
-21.35785552030583
 30
0.0
 10
-60.38644601284133
 20
-21.1325064213821
 30
0.0
 10
-60.43726203784813
 20
-20.9221777886199
 30
0.0
 10
-60.50427805143559
 20
-20.72651035319444
 30
0.0
 10
-60.58819824059514
 20
-20.54731387289659
 30
0.0
 10
-60.68366695690057
 20
-20.38102384425138
 30
0.0
 10
-60.79553649158922
 20
-20.23282666112756
 30
0.0
 10
-60.91792352575677
 20
-20.1014084782978
 30
0.0
 10
-61.04801876814438
 20
-19.98581163188608
 30
0.0
 10
-61.1852446917758
 20
-19.88669773159055
 30
0.0
 10
-61.33030095343975
 20
-19.8068208348542
 30
0.0
 10
-61.48264174960698
 20
-19.74482948906499
 30
0.0
 10
-61.64165875411222
 20
-19.7004959564578
 30
0.0
 10
-61.80830512689541
 20
-19.67407803863168
 30
0.0
 10
-61.92145068594722
 20
-19.67038951905302
 30
0.0
 10
-61.97896205494931
 20
-19.66851466145953
 30
0.0
  0
SPLINE
  5
15C
330
1F
100
AcDbEntity
  8
0
  6
Continuous
 62
     7
370
    25
100
AcDbSpline
210
0.0
220
0.0
230
1.0
 70
     8
 71
     3
 72
    23
 73
    19
 74
     0
 42
0.000000001
 43
0.00000001
 40
0.0
 40
0.0
 40
0.0
 40
0.0
 40
0.0558527529639384
 40
0.1098824644299247
 40
0.1634274147947494
 40
0.2164357039354305
 40
0.2698495194954356
 40
0.3244355020017227
 40
0.380513170603107
 40
0.4390570268340157
 40
0.4993888692104725
 40
0.5612046479386751
 40
0.6258751243897679
 40
0.6924419510671938
 40
0.7629852630495971
 40
0.8377172656571826
 40
0.9166070333369826
 40
1.0
 40
1.0
 40
1.0
 40
1.0
 10
-61.97896205494931
 20
-19.66851466145953
 30
0.0
 10
-62.03647092257538
 20
-19.67039569924418
 30
0.0
 10
-62.14961156052041
 20
-19.67409637748285
 30
0.0
 10
-62.31629381224861
 20
-19.70042564860497
 30
0.0
 10
-62.47572940103522
 20
-19.74524368033463
 30
0.0
 10
-62.62906498762813
 20
-19.80632077965578
 30
0.0
 10
-62.77449098877022
 20
-19.8867745809351
 30
0.0
 10
-62.91182764984949
 20
-19.98573064615972
 30
0.0
 10
-63.04191849440527
 20
-20.10194539566951
 30
0.0
 10
-63.16603947962277
 20
-20.23273591596124
 30
0.0
 10
-63.27992207954988
 20
-20.38048840680108
 30
0.0
 10
-63.37561275468784
 20
-20.54778604137999
 30
0.0
 10
-63.45935520453161
 20
-20.72837072221506
 30
0.0
 10
-63.5253257747489
 20
-20.92566252617616
 30
0.0
 10
-63.58003219113997
 20
-21.13703745090096
 30
0.0
 10
-63.61545742462179
 20
-21.3653518461613
 30
0.0
 10
-63.63831317117693
 20
-21.60848330128004
 30
0.0
 10
-63.64087757518833
 20
-21.77559119774455
 30
0.0
 10
-63.64219535713905
 20
-21.86146369240905
 30
0.0
  0
SPLINE
  5
15D
330
1F
100
AcDbEntity
  8
0
  6
Continuous
 62
     7
370
    25
100
AcDbSpline
210
0.0
220
0.0
230
1.0
 70
     8
 71
     3
 72
    23
 73
    19
 74
     0
 42
0.000000001
 43
0.00000001
 40
0.0
 40
0.0
 40
0.0
 40
0.0
 40
0.0922684865104274
 40
0.178399559259706
 40
0.2592135129017054
 40
0.3343431320534058
 40
0.405092601793755
 40
0.4712342906039071
 40
0.5331190978210623
 40
0.5922849593669978
 40
0.6487172316708192
 40
0.7017181510987723
 40
0.7532428251260181
 40
0.8030173662865298
 40
0.8514759373992811
 40
0.8998963838380943
 40
0.9492902029315451
 40
1.0
 40
1.0
 40
1.0
 40
1.0
 10
-52.49964352420636
 20
-21.83923785763591
 30
0.0
 10
-52.50027185979984
 20
-21.75028471317905
 30
0.0
 10
-52.50148673605048
 20
-21.57829531174809
 30
0.0
 10
-52.52319457566034
 20
-21.32920732048465
 30
0.0
 10
-52.5540016752273
 20
-21.09790403113376
 30
0.0
 10
-52.59549147470904
 20
-20.88317953194094
 30
0.0
 10
-52.65274379233616
 20
-20.6866926043529
 30
0.0
 10
-52.72320909719992
 20
-20.50830785407088
 30
0.0
 10
-52.80457932611839
 20
-20.34689286234689
 30
0.0
 10
-52.89963491620935
 20
-20.20425265882131
 30
0.0
 10
-53.00281522017828
 20
-20.07839044600768
 30
0.0
 10
-53.11358847463006
 20
-19.9693585875314
 30
0.0
 10
-53.23014882900468
 20
-19.87664678793147
 30
0.0
 10
-53.35256458019918
 20
-19.79930850443857
 30
0.0
 10
-53.48231569501871
 20
-19.74241774943985
 30
0.0
 10
-53.61648097189256
 20
-19.69804554356477
 30
0.0
 10
-53.7583099309495
 20
-19.67475596784289
 30
0.0
 10
-53.85473106828095
 20
-19.6706132505264
 30
0.0
 10
-53.90357542070951
 20
-19.66851466145953
 30
0.0
  0
SPLINE
  5
15E
330
1F
100
AcDbEntity
  8
0
  6
Continuous
 62
     7
370
    25
100
AcDbSpline
210
0.0
220
0.0
230
1.0
 70
     8
 71
     3
 72
    23
 73
    19
 74
     0
 42
0.000000001
 43
0.00000001
 40
0.0
 40
0.0
 40
0.0
 40
0.0
 40
0.0536129912776518
 40
0.1053641302520171
 40
0.1564058329047382
 40
0.2075977076125502
 40
0.2591175923352199
 40
0.3113608292804571
 40
0.366328839706363
 40
0.4232783114287754
 40
0.4828769750469647
 40
0.5451079963493639
 40
0.6101109498050564
 40
0.6784808867693678
 40
0.7513673409311463
 40
0.8292217062531363
 40
0.9118177723262642
 40
1.0
 40
1.0
 40
1.0
 40
1.0
 10
-53.90357542070951
 20
-19.66851466145953
 30
0.0
 10
-53.95433889981492
 20
-19.66951855947525
 30
0.0
 10
-54.05410296253637
 20
-19.6714914925045
 30
0.0
 10
-54.19982286230905
 20
-19.6996290810614
 30
0.0
 10
-54.33995404870515
 20
-19.73972300566593
 30
0.0
 10
-54.47392555691015
 20
-19.79735562279041
 30
0.0
 10
-54.60011716723464
 20
-19.87235177856894
 30
0.0
 10
-54.72072568231173
 20
-19.96221852551047
 30
0.0
 10
-54.83266118954864
 20
-20.07019102556411
 30
0.0
 10
-54.93907727309025
 20
-20.19281093707468
 30
0.0
 10
-55.03580771834861
 20
-20.33191090814893
 30
0.0
 10
-55.11865211415574
 20
-20.48831567032087
 30
0.0
 10
-55.18906549133274
 20
-20.65958890123217
 30
0.0
 10
-55.24646396774589
 20
-20.84620514251977
 30
0.0
 10
-55.29071918865288
 20
-21.04882451269625
 30
0.0
 10
-55.32075144099658
 20
-21.26747113895522
 30
0.0
 10
-55.34274229801616
 20
-21.50170332817966
 30
0.0
 10
-55.34393468181754
 20
-21.66322677279519
 30
0.0
 10
-55.3445503751679
 20
-21.74663021274784
 30
0.0
  0
SPLINE
  5
15F
330
1F
100
AcDbEntity
  8
0
  6
Continuous
 62
     7
370
    25
100
AcDbSpline
210
0.0
220
0.0
230
1.0
 70
     8
 71
     3
 72
    23
 73
    19
 74
     0
 42
0.000000001
 43
0.00000001
 40
0.0
 40
0.0
 40
0.0
 40
0.0
 40
0.0494705645305276
 40
0.0976843459055017
 40
0.1447656073117896
 40
0.1921018232612113
 40
0.2401154773882561
 40
0.2892809790023492
 40
0.340789752663102
 40
0.3943153429382288
 40
0.4519378553081657
 40
0.5128403954308207
 40
0.5789698891473698
 40
0.6505783544694276
 40
0.727970575045703
 40
0.812270659580565
 40
0.9024370194907783
 40
1.0
 40
1.0
 40
1.0
 40
1.0
 10
-53.87394097434533
 20
-24.05441272335856
 30
0.0
 10
-53.82568320860103
 20
-24.05315720209909
 30
0.0
 10
-53.73039364952024
 20
-24.05067805567805
 30
0.0
 10
-53.59094156514031
 20
-24.0259593487609
 30
0.0
 10
-53.4577026075052
 20
-23.98500013109178
 30
0.0
 10
-53.33143301275518
 20
-23.92653745226317
 30
0.0
 10
-53.20994953174554
 20
-23.85459109209504
 30
0.0
 10
-53.09626937002807
 20
-23.7640423724532
 30
0.0
 10
-52.98916511324688
 20
-23.65829017835476
 30
0.0
 10
-52.88745717031449
 20
-23.53629774379666
 30
0.0
 10
-52.79510049316592
 20
-23.3958570778148
 30
0.0
 10
-52.71463920186461
 20
-23.23434417394779
 30
0.0
 10
-52.64939745711023
 20
-23.05173515235749
 30
0.0
 10
-52.59347892729767
 20
-22.8494299678682
 30
0.0
 10
-52.55199073405873
 20
-22.6256223124825
 30
0.0
 10
-52.52072538875877
 20
-22.38204154955833
 30
0.0
 10
-52.5021019487314
 20
-22.11735083029939
 30
0.0
 10
-52.50048424513162
 20
-21.93434567702272
 30
0.0
 10
-52.49964352420636
 20
-21.83923785763591
 30
0.0
  0
SPLINE
  5
160
330
1F
100
AcDbEntity
  8
0
  6
Continuous
 62
     7
370
    25
100
AcDbSpline
210
0.0
220
0.0
230
1.0
 70
     8
 71
     3
 72
    23
 73
    19
 74
     0
 42
0.000000001
 43
0.00000001
 40
0.0
 40
0.0
 40
0.0
 40
0.0
 40
0.0933321263856953
 40
0.1807844121062161
 40
0.2620968561701851
 40
0.3382628723614524
 40
0.4094158957776161
 40
0.4757943269801787
 40
0.5383846575605754
 40
0.5973639327299872
 40
0.6532926366982894
 40
0.7068442923962276
 40
0.7572754888052569
 40
0.8065321216484587
 40
0.854516694637851
 40
0.9022250951293449
 40
0.950832870500599
 40
1.0
 40
1.0
 40
1.0
 40
1.0
 10
-55.3445503751679
 20
-21.74663021274784
 30
0.0
 10
-55.3428686975101
 20
-21.84173330265538
 30
0.0
 10
-55.33961128638611
 20
-22.025948072684
 30
0.0
 10
-55.32203204071214
 20
-22.29259540032249
 30
0.0
 10
-55.2893896539145
 20
-22.54031892924854
 30
0.0
 10
-55.24028314944097
 20
-22.76820327538279
 30
0.0
 10
-55.18309166288756
 20
-22.97861404763427
 30
0.0
 10
-55.10802039935745
 20
-23.16859601829739
 30
0.0
 10
-55.02195322949796
 20
-23.34010922823412
 30
0.0
 10
-54.92095050378277
 20
-23.49068097707003
 30
0.0
 10
-54.81111480970775
 20
-23.62295354553019
 30
0.0
 10
-54.69488106192353
 20
-23.73755063982936
 30
0.0
 10
-54.57309272150429
 20
-23.83574103473594
 30
0.0
 10
-54.44525939493475
 20
-23.9159682864616
 30
0.0
 10
-54.31045119324672
 20
-23.97722819312225
 30
0.0
 10
-54.1702646610422
 20
-24.02277261848554
 30
0.0
 10
-54.02367820365147
 20
-24.04857789873294
 30
0.0
 10
-53.92404338224881
 20
-24.05246037814159
 30
0.0
 10
-53.87394097434533
 20
-24.05441272335856
 30
0.0
  0
LINE
  5
161
330
1F
100
AcDbEntity
  8
0
  6
Continuous
 62
     7
370
    25
100
AcDbLine
 10
-40.4087894076
 20
-18.4831368069
 30
0.0
 11
-40.4087894076
 21
-19.4573692311
 31
0.0
  0
LINE
  5
162
330
1F
100
AcDbEntity
  8
0
  6
Continuous
 62
     7
370
    25
100
AcDbLine
 10
-42.1868561895
 20
-18.4831368069
 30
0.0
 11
-40.4087894076
 21
-18.4831368069
 31
0.0
  0
LINE
  5
163
330
1F
100
AcDbEntity
  8
0
  6
Continuous
 62
     7
370
    25
100
AcDbLine
 10
-42.1868561895
 20
-25.2397905779
 30
0.0
 11
-42.1868561895
 21
-18.4831368069
 31
0.0
  0
LINE
  5
164
330
1F
100
AcDbEntity
  8
0
  6
Continuous
 62
     7
370
    25
100
AcDbLine
 10
-40.4087894076
 20
-25.2397905779
 30
0.0
 11
-42.1868561895
 21
-25.2397905779
 31
0.0
  0
LINE
  5
165
330
1F
100
AcDbEntity
  8
0
  6
Continuous
 62
     7
370
    25
100
AcDbLine
 10
-40.4087894076
 20
-22.1633646147
 30
0.0
 11
-40.4087894076
 21
-25.2397905779
 31
0.0
  0
LINE
  5
166
330
1F
100
AcDbEntity
  8
0
  6
Continuous
 62
     7
370
    25
100
AcDbLine
 10
-38.0380336985
 20
-25.2397905779
 30
0.0
 11
-38.0380336985
 21
-21.7725603533
 31
0.0
  0
LINE
  5
167
330
1F
100
AcDbEntity
  8
0
  6
Continuous
 62
     7
370
    25
100
AcDbLine
 10
-36.2599669166
 20
-25.2397905779
 30
0.0
 11
-38.0380336985
 21
-25.2397905779
 31
0.0
  0
LINE
  5
168
330
1F
100
AcDbEntity
  8
0
  6
Continuous
 62
     7
370
    25
100
AcDbLine
 10
-36.2599669166
 20
-21.0613336406
 30
0.0
 11
-36.2599669166
 21
-25.2397905779
 31
0.0
  0
LINE
  5
169
330
1F
100
AcDbEntity
  8
0
  6
Continuous
 62
     7
370
    25
100
AcDbLine
 10
-55.3445503752
 20
-27.7290840725
 30
0.0
 11
-57.122617157
 21
-27.7290840725
 31
0.0
  0
LINE
  5
16A
330
1F
100
AcDbEntity
  8
0
  6
Continuous
 62
     7
370
    25
100
AcDbLine
 10
-55.3445503752
 20
-24.3896523979
 30
0.0
 11
-55.3445503752
 21
-27.7290840725
 31
0.0
  0
LINE
  5
16B
330
1F
100
AcDbEntity
  8
0
  6
Continuous
 62
     7
370
    25
100
AcDbLine
 10
-57.122617157
 20
-18.4831368069
 30
0.0
 11
-55.3445503752
 21
-18.4831368069
 31
0.0
  0
LINE
  5
16C
330
1F
100
AcDbEntity
  8
0
  6
Continuous
 62
     7
370
    25
100
AcDbLine
 10
-21.0871303782
 20
-27.3265579506
 30
0.0
 11
-21.0871303782
 21
-29.6973136597
 31
0.0
  0
LINE
  5
16D
330
1F
100
AcDbEntity
  8
0
  6
Continuous
 62
     7
370
    25
100
AcDbLine
 10
-22.86519716
 20
-28.3933980197
 30
0.0
 11
-21.0871303782
 21
-27.3265579506
 31
0.0
  0
LINE
  5
16E
330
1F
100
AcDbEntity
  8
0
  6
Continuous
 62
     7
370
    25
100
AcDbLine
 10
-22.86519716
 20
-29.6973136597
 30
0.0
 11
-22.86519716
 21
-28.3933980197
 31
0.0
  0
LINE
  5
16F
330
1F
100
AcDbEntity
  8
0
  6
Continuous
 62
     7
370
    25
100
AcDbLine
 10
-23.6949616582
 20
-31.0012292997
 30
0.0
 11
-23.6949616582
 21
-29.6973136597
 31
0.0
  0
LINE
  5
170
330
1F
100
AcDbEntity
  8
0
  6
Continuous
 62
     7
370
    25
100
AcDbLine
 10
-22.86519716
 20
-31.0012292997
 30
0.0
 11
-23.6949616582
 21
-31.0012292997
 31
0.0
  0
LINE
  5
171
330
1F
100
AcDbEntity
  8
0
  6
Continuous
 62
     7
370
    25
100
AcDbLine
 10
-22.86519716
 20
-33.9943083825
 30
0.0
 11
-22.86519716
 21
-31.0012292997
 31
0.0
  0
LINE
  5
172
330
1F
100
AcDbEntity
  8
0
  6
Continuous
 62
     7
370
    25
100
AcDbLine
 10
-19.8424836309
 20
-35.0981915096
 30
0.0
 11
-19.6646769527
 21
-36.3372817982
 31
0.0
  0
LINE
  5
173
330
1F
100
AcDbEntity
  8
0
  6
Continuous
 62
     7
370
    25
100
AcDbLine
 10
-21.0871303782
 20
-31.0012292997
 30
0.0
 11
-21.0871303782
 21
-33.9054050434
 31
0.0
  0
LINE
  5
174
330
1F
100
AcDbEntity
  8
0
  6
Continuous
 62
     7
370
    25
100
AcDbLine
 10
-19.7832147381
 20
-31.0012292997
 30
0.0
 11
-21.0871303782
 21
-31.0012292997
 31
0.0
  0
LINE
  5
175
330
1F
100
AcDbEntity
  8
0
  6
Continuous
 62
     7
370
    25
100
AcDbLine
 10
-19.7832147381
 20
-29.6973136597
 30
0.0
 11
-19.7832147381
 21
-31.0012292997
 31
0.0
  0
LINE
  5
176
330
1F
100
AcDbEntity
  8
0
  6
Continuous
 62
     7
370
    25
100
AcDbLine
 10
-21.0871303782
 20
-29.6973136597
 30
0.0
 11
-19.7832147381
 21
-29.6973136597
 31
0.0
  0
LINE
  5
177
330
1F
100
AcDbEntity
  8
0
  6
Continuous
 62
     7
370
    25
100
AcDbLine
 10
-6.7440583379
 20
-29.9529107596
 30
0.0
 11
-7.158940587
 21
-31.6439263552
 31
0.0
  0
LINE
  5
178
330
1F
100
AcDbEntity
  8
0
  6
Continuous
 62
     7
370
    25
100
AcDbLine
 10
-9.114814047
 20
-29.6973136597
 30
0.0
 11
-9.114814047
 21
-30.6400594846
 31
0.0
  0
LINE
  5
179
330
1F
100
AcDbEntity
  8
0
  6
Continuous
 62
     7
370
    25
100
AcDbLine
 10
-10.8928808289
 20
-36.4539674307
 30
0.0
 11
-10.8928808289
 21
-29.6973136597
 31
0.0
  0
LINE
  5
17A
330
1F
100
AcDbEntity
  8
0
  6
Continuous
 62
     7
370
    25
100
AcDbLine
 10
-9.114814047
 20
-36.4539674307
 30
0.0
 11
-10.8928808289
 21
-36.4539674307
 31
0.0
  0
LINE
  5
17B
330
1F
100
AcDbEntity
  8
0
  6
Continuous
 62
     7
370
    25
100
AcDbLine
 10
-9.114814047
 20
-34.4499379953
 30
0.0
 11
-9.114814047
 21
-36.4539674307
 31
0.0
  0
LINE
  5
17C
330
1F
100
AcDbEntity
  8
0
  6
Continuous
 62
     7
370
    25
100
AcDbLine
 10
-61.5085152189
 20
-31.9495315834
 30
0.0
 11
-61.5085152189
 21
-31.7809856697
 31
0.0
  0
LINE
  5
17D
330
1F
100
AcDbEntity
  8
0
  6
Continuous
 62
     7
370
    25
100
AcDbLine
 10
-59.2562972952
 20
-36.4539674307
 30
0.0
 11
-61.0343640771
 21
-36.4539674307
 31
0.0
  0
LINE
  5
17E
330
1F
100
AcDbEntity
  8
0
  6
Continuous
 62
     7
370
    25
100
AcDbLine
 10
-63.7607331426
 20
-31.7124560125
 30
0.0
 11
-65.3017243535
 21
-31.4753804415
 31
0.0
  0
LINE
  5
17F
330
1F
100
AcDbEntity
  8
0
  6
Continuous
 62
     7
370
    25
100
AcDbLine
 10
-45.8615275386
 20
-29.9529107596
 30
0.0
 11
-46.2764097877
 21
-31.6439263552
 31
0.0
  0
LINE
  5
180
330
1F
100
AcDbEntity
  8
0
  6
Continuous
 62
     7
370
    25
100
AcDbLine
 10
-48.2322832478
 20
-29.6973136597
 30
0.0
 11
-48.2322832478
 21
-30.6400594846
 31
0.0
  0
LINE
  5
181
330
1F
100
AcDbEntity
  8
0
  6
Continuous
 62
     7
370
    25
100
AcDbLine
 10
-50.0103500296
 20
-36.4539674307
 30
0.0
 11
-50.0103500296
 21
-29.6973136597
 31
0.0
  0
LINE
  5
182
330
1F
100
AcDbEntity
  8
0
  6
Continuous
 62
     7
370
    25
100
AcDbLine
 10
-48.2322832478
 20
-36.4539674307
 30
0.0
 11
-50.0103500296
 21
-36.4539674307
 31
0.0
  0
LINE
  5
183
330
1F
100
AcDbEntity
  8
0
  6
Continuous
 62
     7
370
    25
100
AcDbLine
 10
-48.2322832478
 20
-34.4499379953
 30
0.0
 11
-48.2322832478
 21
-36.4539674307
 31
0.0
  0
LINE
  5
184
330
1F
100
AcDbEntity
  8
0
  6
Continuous
 62
     7
370
    25
100
AcDbLine
 10
-43.2536962586
 20
-36.4539674307
 30
0.0
 11
-45.0317630404
 21
-36.4539674307
 31
0.0
  0
LINE
  5
185
330
1F
100
AcDbEntity
  8
0
  6
Continuous
 62
     7
370
    25
100
AcDbLine
 10
-30.2145398583
 20
-29.6973136597
 30
0.0
 11
-28.4364730765
 21
-29.6973136597
 31
0.0
  0
LINE
  5
186
330
1F
100
AcDbEntity
  8
0
  6
Continuous
 62
     7
370
    25
100
AcDbLine
 10
-30.2145398583
 20
-32.5588898867
 30
0.0
 11
-30.2145398583
 21
-29.6973136597
 31
0.0
  0
LINE
  5
187
330
1F
100
AcDbEntity
  8
0
  6
Continuous
 62
     7
370
    25
100
AcDbLine
 10
-34.3633623493
 20
-29.6973136597
 30
0.0
 11
-32.5852955675
 21
-29.6973136597
 31
0.0
  0
LINE
  5
188
330
1F
100
AcDbEntity
  8
0
  6
Continuous
 62
     7
370
    25
100
AcDbLine
 10
-34.3633623493
 20
-33.9517088658
 30
0.0
 11
-34.3633623493
 21
-29.6973136597
 31
0.0
  0
LINE
  5
189
330
1F
100
AcDbEntity
  8
0
  6
Continuous
 62
     7
370
    25
100
AcDbLine
 10
-30.2145398583
 20
-36.4539674307
 30
0.0
 11
-30.2145398583
 21
-35.4593613246
 31
0.0
  0
LINE
  5
18A
330
1F
100
AcDbEntity
  8
0
  6
Continuous
 62
     7
370
    25
100
AcDbLine
 10
-28.4364730765
 20
-36.4539674307
 30
0.0
 11
-30.2145398583
 21
-36.4539674307
 31
0.0
  0
LINE
  5
18B
330
1F
100
AcDbEntity
  8
0
  6
Continuous
 62
     7
370
    25
100
AcDbLine
 10
40.3105
 20
-47.4002
 30
0.0
 11
40.3105
 21
-60.96
 31
0.0
  0
LINE
  5
18C
330
1F
100
AcDbEntity
  8
0
  6
Continuous
 62
     7
370
    25
100
AcDbLine
 10
-49.8895
 20
-47.4002
 30
0.0
 11
-49.8895
 21
-60.96
 31
0.0
  0
LINE
  5
18D
330
1F
100
AcDbEntity
  8
0
  6
Continuous
 62
     7
370
    25
100
AcDbLine
 10
-52.4295
 20
-63.5
 30
0.0
 11
-100.711
 21
-63.5
 31
0.0
  0
LINE
  5
18E
330
1F
100
AcDbEntity
  8
0
  6
Continuous
 62
     7
370
    25
100
AcDbLine
 10
-107.95
 20
-56.261
 30
0.0
 11
-107.95
 21
-7.239
 31
0.0
  0
LINE
  5
18F
330
1F
100
AcDbEntity
  8
0
  6
Continuous
 62
     7
370
    25
100
AcDbLine
 10
-24.7618017273
 20
-27.2080201651
 30
0.0
 11
-24.7618017273
 21
-36.4539674307
 31
0.0
  0
LINE
  5
190
330
1F
100
AcDbEntity
  8
0
  6
Continuous
 62
     7
370
    25
100
AcDbLine
 10
-26.5398685092
 20
-27.2080201651
 30
0.0
 11
-24.7618017273
 21
-27.2080201651
 31
0.0
  0
LINE
  5
191
330
1F
100
AcDbEntity
  8
0
  6
Continuous
 62
     7
370
    25
100
AcDbLine
 10
-26.5398685092
 20
-36.4539674307
 30
0.0
 11
-26.5398685092
 21
-27.2080201651
 31
0.0
  0
LINE
  5
192
330
1F
100
AcDbEntity
  8
0
  6
Continuous
 62
     7
370
    25
100
AcDbLine
 10
-24.7618017273
 20
-36.4539674307
 30
0.0
 11
-26.5398685092
 21
-36.4539674307
 31
0.0
  0
LINE
  5
193
330
1F
100
AcDbEntity
  8
0
  6
Continuous
 62
     7
370
    25
100
AcDbLine
 10
-37.5638825567
 20
-33.9646739361
 30
0.0
 11
-35.7858157748
 21
-34.201749507
 31
0.0
  0
LINE
  5
194
330
1F
100
AcDbEntity
  8
0
  6
Continuous
 62
     7
370
    25
100
AcDbLine
 10
-35.9043535603
 20
-31.7124560125
 30
0.0
 11
-37.6824203421
 21
-31.9495315834
 31
0.0
  0
LINE
  5
195
330
1F
100
AcDbEntity
  8
0
  6
Continuous
 62
     7
370
    25
100
AcDbLine
 10
-51.9069545969
 20
-29.6973136597
 30
0.0
 11
-51.9069545969
 21
-35.6742110608
 31
0.0
  0
LINE
  5
196
330
1F
100
AcDbEntity
  8
0
  6
Continuous
 62
     7
370
    25
100
AcDbLine
 10
-53.6850213788
 20
-29.6973136597
 30
0.0
 11
-51.9069545969
 21
-29.6973136597
 31
0.0
  0
LINE
  5
197
330
1F
100
AcDbEntity
  8
0
  6
Continuous
 62
     7
370
    25
100
AcDbLine
 10
-53.6850213788
 20
-30.6270944144
 30
0.0
 11
-53.6850213788
 21
-29.6973136597
 31
0.0
  0
LINE
  5
198
330
1F
100
AcDbEntity
  8
0
  6
Continuous
 62
     7
370
    25
100
AcDbLine
 10
-58.0709194407
 20
-36.8095807871
 30
0.0
 11
-56.0557770879
 21
-37.046656358
 31
0.0
  0
LINE
  5
199
330
1F
100
AcDbEntity
  8
0
  6
Continuous
 62
     7
370
    25
100
AcDbLine
 10
-68.9399503457
 20
-36.2003302928
 30
0.0
 11
-68.9399503457
 21
-25.2397905779
 31
0.0
  0
LINE
  5
19A
330
1F
100
AcDbEntity
  8
0
  6
Continuous
 62
     7
370
    25
100
AcDbLine
 10
-77.0488098162
 20
-36.2003302928
 30
0.0
 11
-77.0488098162
 21
-33.4456459751
 31
0.0
  0
LINE
  5
19B
330
1F
100
AcDbEntity
  8
0
  6
Continuous
 62
     7
370
    25
100
AcDbLine
 10
-77.0488098162
 20
-33.4456459751
 30
0.0
 11
-85.235266028
 21
-33.4456459751
 31
0.0
  0
LINE
  5
19C
330
1F
100
AcDbEntity
  8
0
  6
Continuous
 62
     7
370
    25
100
AcDbLine
 10
-12.7894853962
 20
-29.6973136597
 30
0.0
 11
-12.7894853962
 21
-36.4539674307
 31
0.0
  0
LINE
  5
19D
330
1F
100
AcDbEntity
  8
0
  6
Continuous
 62
     7
370
    25
100
AcDbLine
 10
-14.5675521781
 20
-32.5588898867
 30
0.0
 11
-14.5675521781
 21
-29.6973136597
 31
0.0
  0
LINE
  5
19E
330
1F
100
AcDbEntity
  8
0
  6
Continuous
 62
     7
370
    25
100
AcDbLine
 10
-16.9383078872
 20
-29.6973136597
 30
0.0
 11
-16.9383078872
 21
-32.8144869866
 31
0.0
  0
LINE
  5
19F
330
1F
100
AcDbEntity
  8
0
  6
Continuous
 62
     7
370
    25
100
AcDbLine
 10
-18.716374669
 20
-29.6973136597
 30
0.0
 11
-16.9383078872
 21
-29.6973136597
 31
0.0
  0
LINE
  5
1A0
330
1F
100
AcDbEntity
  8
0
  6
Continuous
 62
     7
370
    25
100
AcDbLine
 10
-18.716374669
 20
-33.9517088658
 30
0.0
 11
-18.716374669
 21
-29.6973136597
 31
0.0
  0
LINE
  5
1A1
330
1F
100
AcDbEntity
  8
0
  6
Continuous
 62
     7
370
    25
100
AcDbLine
 10
-14.5675521781
 20
-36.4539674307
 30
0.0
 11
-14.5675521781
 21
-35.4593613246
 31
0.0
  0
LINE
  5
1A2
330
1F
100
AcDbEntity
  8
0
  6
Continuous
 62
     7
370
    25
100
AcDbLine
 10
-12.7894853962
 20
-36.4539674307
 30
0.0
 11
-14.5675521781
 21
-36.4539674307
 31
0.0
  0
LINE
  5
1A3
330
1F
100
AcDbEntity
  8
0
  6
Continuous
 62
     7
370
    25
100
AcDbLine
 10
-45.5059141823
 20
-23.1061104397
 30
0.0
 11
-43.7278474004
 21
-23.3431860106
 31
0.0
  0
LINE
  5
1A4
330
1F
100
AcDbEntity
  8
0
  6
Continuous
 62
     7
370
    25
100
AcDbLine
 10
-101.6
 20
-44.467
 30
0.0
 11
-101.6
 21
-34.261
 31
0.0
  0
LINE
  5
1A5
330
1F
100
AcDbEntity
  8
0
  6
Continuous
 62
     7
370
    25
100
AcDbLine
 10
-101.6
 20
-34.261
 30
0.0
 11
-104.775
 21
-34.261
 31
0.0
  0
LINE
  5
1A6
330
1F
100
AcDbEntity
  8
0
  6
Continuous
 62
     7
370
    25
100
AcDbLine
 10
-104.775
 20
-34.261
 30
0.0
 11
-104.775
 21
-44.467
 31
0.0
  0
LINE
  5
1A7
330
1F
100
AcDbEntity
  8
0
  6
Continuous
 62
     7
370
    25
100
AcDbLine
 10
-104.775
 20
-44.467
 30
0.0
 11
-101.6
 21
-44.467
 31
0.0
  0
LINE
  5
1A8
330
1F
100
AcDbEntity
  8
0
  6
Continuous
 62
     7
370
    25
100
AcDbLine
 10
101.6
 20
-13.239
 30
0.0
 11
101.6
 21
-23.445
 31
0.0
  0
LINE
  5
1A9
330
1F
100
AcDbEntity
  8
0
  6
Continuous
 62
     7
370
    25
100
AcDbLine
 10
101.6
 20
-23.445
 30
0.0
 11
104.775
 21
-23.445
 31
0.0
  0
LINE
  5
1AA
330
1F
100
AcDbEntity
  8
0
  6
Continuous
 62
     7
370
    25
100
AcDbLine
 10
104.775
 20
-23.445
 30
0.0
 11
104.775
 21
-13.239
 31
0.0
  0
LINE
  5
1AB
330
1F
100
AcDbEntity
  8
0
  6
Continuous
 62
     7
370
    25
100
AcDbLine
 10
104.775
 20
-13.239
 30
0.0
 11
101.6
 21
-13.239
 31
0.0
  0
LINE
  5
1AC
330
1F
100
AcDbEntity
  8
0
  6
Continuous
 62
     7
370
    25
100
AcDbLine
 10
104.775
 20
-34.261
 30
0.0
 11
101.6
 21
-34.261
 31
0.0
  0
LINE
  5
1AD
330
1F
100
AcDbEntity
  8
0
  6
Continuous
 62
     7
370
    25
100
AcDbLine
 10
101.6
 20
-34.261
 30
0.0
 11
101.6
 21
-44.467
 31
0.0
  0
LINE
  5
1AE
330
1F
100
AcDbEntity
  8
0
  6
Continuous
 62
     7
370
    25
100
AcDbLine
 10
101.6
 20
-44.467
 30
0.0
 11
104.775
 21
-44.467
 31
0.0
  0
LINE
  5
1AF
330
1F
100
AcDbEntity
  8
0
  6
Continuous
 62
     7
370
    25
100
AcDbLine
 10
104.775
 20
-44.467
 30
0.0
 11
104.775
 21
-34.261
 31
0.0
  0
LINE
  5
1B0
330
1F
100
AcDbEntity
  8
0
  6
Continuous
 62
     7
370
    25
100
AcDbLine
 10
-101.6
 20
-23.445
 30
0.0
 11
-101.6
 21
-13.239
 31
0.0
  0
LINE
  5
1B1
330
1F
100
AcDbEntity
  8
0
  6
Continuous
 62
     7
370
    25
100
AcDbLine
 10
-101.6
 20
-13.239
 30
0.0
 11
-104.775
 21
-13.239
 31
0.0
  0
LINE
  5
1B2
330
1F
100
AcDbEntity
  8
0
  6
Continuous
 62
     7
370
    25
100
AcDbLine
 10
-104.775
 20
-13.239
 30
0.0
 11
-104.775
 21
-23.445
 31
0.0
  0
LINE
  5
1B3
330
1F
100
AcDbEntity
  8
0
  6
Continuous
 62
     7
370
    25
100
AcDbLine
 10
-104.775
 20
-23.445
 30
0.0
 11
-101.6
 21
-23.445
 31
0.0
  0
LINE
  5
1B4
330
1F
100
AcDbEntity
  8
0
  6
Continuous
 62
     7
370
    25
100
AcDbLine
 10
-85.235266028
 20
-33.4456459751
 30
0.0
 11
-85.235266028
 21
-25.2397905779
 31
0.0
  0
LINE
  5
1B5
330
1F
100
AcDbEntity
  8
0
  6
Continuous
 62
     7
370
    25
100
AcDbLine
 10
-85.235266028
 20
-25.2397905779
 30
0.0
 11
-87.9899503457
 21
-25.2397905779
 31
0.0
  0
LINE
  5
1B6
330
1F
100
AcDbEntity
  8
0
  6
Continuous
 62
     7
370
    25
100
AcDbLine
 10
-53.6850213788
 20
-36.2983865873
 30
0.0
 11
-53.6850213788
 21
-35.326006316
 31
0.0
  0
LINE
  5
1B7
330
1F
100
AcDbEntity
  8
0
  6
Continuous
 62
     7
370
    25
100
AcDbLine
 10
-40.1105
 20
-60.96
 30
0.0
 11
-40.1105
 21
-47.4002
 31
0.0
  0
LINE
  5
1B8
330
1F
100
AcDbEntity
  8
0
  6
Continuous
 62
     7
370
    25
100
AcDbLine
 10
-0.2244801378
 20
-33.6090605798
 30
0.0
 11
-4.7289159851
 21
-33.6090605798
 31
0.0
  0
LINE
  5
1B9
330
1F
100
AcDbEntity
  8
0
  6
Continuous
 62
     7
370
    25
100
AcDbLine
 10
37.7705
 20
-63.5
 30
0.0
 11
-37.5705
 21
-63.5
 31
0.0
  0
LINE
  5
1BA
330
1F
100
AcDbEntity
  8
0
  6
Continuous
 62
     7
370
    25
100
AcDbLine
 10
-79.7646957632
 20
-28.013874081
 30
0.0
 11
-71.6752354781
 21
-28.013874081
 31
0.0
  0
LINE
  5
1BB
330
1F
100
AcDbEntity
  8
0
  6
Continuous
 62
     7
370
    25
100
AcDbLine
 10
-71.6752354781
 20
-28.013874081
 30
0.0
 11
-71.6752354781
 21
-36.2003302928
 31
0.0
  0
LINE
  5
1BC
330
1F
100
AcDbEntity
  8
0
  6
Continuous
 62
     7
370
    25
100
AcDbLine
 10
50.0895
 20
-60.96
 30
0.0
 11
50.0895
 21
-47.4002
 31
0.0
  0
LINE
  5
1BD
330
1F
100
AcDbEntity
  8
0
  6
Continuous
 62
     7
370
    25
100
AcDbLine
 10
-2.1210847051
 20
-34.3202872925
 30
0.0
 11
-0.3430179232
 21
-34.5573628634
 31
0.0
  0
LINE
  5
1BE
330
1F
100
AcDbEntity
  8
0
  6
Continuous
 62
     7
370
    25
100
AcDbLine
 10
100.711
 20
-63.5
 30
0.0
 11
52.6295
 21
-63.5
 31
0.0
  0
LINE
  5
1BF
330
1F
100
AcDbEntity
  8
0
  6
Continuous
 62
     7
370
    25
100
AcDbLine
 10
-57.122617157
 20
-27.7290840725
 30
0.0
 11
-57.122617157
 21
-18.4831368069
 31
0.0
  0
LINE
  5
1C0
330
1F
100
AcDbEntity
  8
0
  6
Continuous
 62
     7
370
    25
100
AcDbLine
 10
-87.9899503457
 20
-36.2003302928
 30
0.0
 11
-77.0488098162
 21
-36.2003302928
 31
0.0
  0
LINE
  5
1C1
330
1F
100
AcDbEntity
  8
0
  6
Continuous
 62
     7
370
    25
100
AcDbLine
 10
107.95
 20
-7.239
 30
0.0
 11
107.95
 21
-56.261
 31
0.0
  0
LINE
  5
1C2
330
1F
100
AcDbEntity
  8
0
  6
Continuous
 62
     7
370
    25
100
AcDbLine
 10
-45.0317630404
 20
-36.4539674307
 30
0.0
 11
-45.0317630404
 21
-29.6973136597
 31
0.0
  0
LINE
  5
1C3
330
1F
100
AcDbEntity
  8
0
  6
Continuous
 62
     7
370
    25
100
AcDbLine
 10
-59.7304484371
 20
-32.1680856253
 30
0.0
 11
-59.7304484371
 21
-34.2443490237
 31
0.0
  0
LINE
  5
1C4
330
1F
100
AcDbEntity
  8
0
  6
Continuous
 62
     7
370
    25
100
AcDbLine
 10
-32.5852955675
 20
-29.6973136597
 30
0.0
 11
-32.5852955675
 21
-32.8144869866
 31
0.0
  0
LINE
  5
1C5
330
1F
100
AcDbEntity
  8
0
  6
Continuous
 62
     7
370
    25
100
AcDbLine
 10
-87.9899503457
 20
-25.2397905779
 30
0.0
 11
-87.9899503457
 21
-36.2003302928
 31
0.0
  0
LINE
  5
1C6
330
1F
100
AcDbEntity
  8
0
  6
Continuous
 62
     7
370
    25
100
AcDbLine
 10
-87.9899503457
 20
-19.8468170545
 30
0.0
 11
-79.7646957632
 21
-19.8468170545
 31
0.0
  0
LINE
  5
1C7
330
1F
100
AcDbEntity
  8
0
  6
Continuous
 62
     7
370
    25
100
AcDbLine
 10
-79.7646957632
 20
-19.8468170545
 30
0.0
 11
-79.7646957632
 21
-28.013874081
 31
0.0
  0
LINE
  5
1C8
330
1F
100
AcDbEntity
  8
0
  6
Continuous
 62
     7
370
    25
100
AcDbLine
 10
-43.2536962586
 20
-27.2080201651
 30
0.0
 11
-43.2536962586
 21
-28.749011376
 31
0.0
  0
LINE
  5
1C9
330
1F
100
AcDbEntity
  8
0
  6
Continuous
 62
     7
370
    25
100
AcDbLine
 10
-71.6752354781
 20
-36.2003302928
 30
0.0
 11
-68.9399503457
 21
-36.2003302928
 31
0.0
  0
LINE
  5
1CA
330
1F
100
AcDbEntity
  8
0
  6
Continuous
 62
     7
370
    25
100
AcDbLine
 10
-43.2536962586
 20
-28.749011376
 30
0.0
 11
-45.0317630404
 21
-28.749011376
 31
0.0
  0
LINE
  5
1CB
330
1F
100
AcDbEntity
  8
0
  6
Continuous
 62
     7
370
    25
100
AcDbLine
 10
-68.9399503457
 20
-25.2397905779
 30
0.0
 11
-77.0488098162
 21
-25.2397905779
 31
0.0
  0
LINE
  5
1CC
330
1F
100
AcDbEntity
  8
0
  6
Continuous
 62
     7
370
    25
100
AcDbLine
 10
-77.0488098162
 20
-25.2397905779
 30
0.0
 11
-77.0488098162
 21
-17.1115319221
 31
0.0
  0
LINE
  5
1CD
330
1F
100
AcDbEntity
  8
0
  6
Continuous
 62
     7
370
    25
100
AcDbLine
 10
-77.0488098162
 20
-17.1115319221
 30
0.0
 11
-87.9899503457
 21
-17.1115319221
 31
0.0
  0
LINE
  5
1CE
330
1F
100
AcDbEntity
  8
0
  6
Continuous
 62
     7
370
    25
100
AcDbLine
 10
-87.9899503457
 20
-17.1115319221
 30
0.0
 11
-87.9899503457
 21
-19.8468170545
 31
0.0
  0
LINE
  5
1CF
330
1F
100
AcDbEntity
  8
0
  6
Continuous
 62
     7
370
    25
100
AcDbLine
 10
-45.0317630404
 20
-27.2080201651
 30
0.0
 11
-43.2536962586
 21
-27.2080201651
 31
0.0
  0
LINE
  5
1D0
330
1F
100
AcDbEntity
  8
0
  6
Continuous
 62
     7
370
    25
100
AcDbLine
 10
-43.609309615
 20
-22.394883727
 30
0.0
 11
-48.1137454623
 21
-22.394883727
 31
0.0
  0
LINE
  5
1D1
330
1F
100
AcDbEntity
  8
0
  6
Continuous
 62
     7
370
    25
100
AcDbLine
 10
-50.0103500296
 20
-29.6973136597
 30
0.0
 11
-48.2322832478
 21
-29.6973136597
 31
0.0
  0
LINE
  5
1D2
330
1F
100
AcDbEntity
  8
0
  6
Continuous
 62
     7
370
    25
100
AcDbLine
 10
-28.4364730765
 20
-29.6973136597
 30
0.0
 11
-28.4364730765
 21
-36.4539674307
 31
0.0
  0
LINE
  5
1D3
330
1F
100
AcDbEntity
  8
0
  6
Continuous
 62
     7
370
    25
100
AcDbLine
 10
-45.0317630404
 20
-29.6973136597
 30
0.0
 11
-43.2536962586
 21
-29.6973136597
 31
0.0
  0
LINE
  5
1D4
330
1F
100
AcDbEntity
  8
0
  6
Continuous
 62
     7
370
    25
100
AcDbLine
 10
-23.6949616582
 20
-29.6973136597
 30
0.0
 11
-22.86519716
 21
-29.6973136597
 31
0.0
  0
LINE
  5
1D5
330
1F
100
AcDbEntity
  8
0
  6
Continuous
 62
     7
370
    25
100
AcDbLine
 10
-10.8928808289
 20
-29.6973136597
 30
0.0
 11
-9.114814047
 21
-29.6973136597
 31
0.0
  0
LINE
  5
1D6
330
1F
100
AcDbEntity
  8
0
  6
Continuous
 62
     7
370
    25
100
AcDbLine
 10
-14.5675521781
 20
-29.6973136597
 30
0.0
 11
-12.7894853962
 21
-29.6973136597
 31
0.0
  0
LINE
  5
1D7
330
1F
100
AcDbEntity
  8
0
  6
Continuous
 62
     7
370
    25
100
AcDbLine
 10
-100.711
 20
0.0
 30
0.0
 11
100.711
 21
0.0
 31
0.0
  0
LINE
  5
1D8
330
1F
100
AcDbEntity
  8
0
  6
Continuous
 62
     7
370
    25
100
AcDbLine
 10
-55.3445503752
 20
-18.4831368069
 30
0.0
 11
-55.3445503752
 21
-19.4573692311
 31
0.0
  0
LINE
  5
1D9
330
1F
100
AcDbEntity
  8
0
  6
Continuous
 62
     7
370
    25
100
AcDbLine
 10
-43.2536962586
 20
-29.6973136597
 30
0.0
 11
-43.2536962586
 21
-36.4539674307
 31
0.0
  0
LINE
  5
1DA
330
1F
100
AcDbEntity
  8
0
  6
Continuous
 62
     7
370
    25
100
AcDbLine
 10
-45.0317630404
 20
-28.749011376
 30
0.0
 11
-45.0317630404
 21
-27.2080201651
 31
0.0
  0
LINE
  5
1DB
330
1F
100
AcDbEntity
  8
0
  6
Continuous
 62
     7
370
    25
100
AcDbLine
 10
-61.5085152189
 20
-33.5886868979
 30
0.0
 11
-61.5085152189
 21
-33.2534472234
 31
0.0
  0
LINE
  5
1DC
330
1F
100
AcDbEntity
  8
0
  6
Continuous
 62
     7
370
    25
100
AcDbLine
 10
-4.6974293859
 20
-32.5422205106
 30
0.0
 11
-2.0025469196
 21
-32.5422205106
 31
0.0
  0
LINE
  5
1DD
330
1F
100
AcDbEntity
  8
0
  6
Continuous
 62
     7
370
    25
100
AcDbLine
 10
-48.082258863
 20
-21.3280436579
 30
0.0
 11
-45.3873763968
 21
-21.3280436579
 31
0.0
  0
ARC
  5
1DE
330
1F
100
AcDbEntity
  8
0
  6
Continuous
 62
     7
370
    25
100
AcDbCircle
 10
37.7705
 20
-60.96
 30
0.0
 40
2.540000000000013
100
AcDbArc
 50
270.0
 51
0.0
  0
ARC
  5
1DF
330
1F
100
AcDbEntity
  8
0
  6
Continuous
 62
     7
370
    25
100
AcDbCircle
 10
-52.4295
 20
-60.96
 30
0.0
 40
2.540000000000006
100
AcDbArc
 50
270.0
 51
0.0
  0
ARC
  5
1E0
330
1F
100
AcDbEntity
  8
0
  6
Continuous
 62
     7
370
    25
100
AcDbCircle
 10
-100.711
 20
-56.261
 30
0.0
 40
7.239000000000026
100
AcDbArc
 50
180.0
 51
270.0
  0
ARC
  5
1E1
330
1F
100
AcDbEntity
  8
0
  6
Continuous
 62
     7
370
    25
100
AcDbCircle
 10
100.711
 20
-7.239
 30
0.0
 40
7.239000000000309
100
AcDbArc
 50
0.0
 51
90.0
  0
ARC
  5
1E2
330
1F
100
AcDbEntity
  8
0
  6
Continuous
 62
     7
370
    25
100
AcDbCircle
 10
45.2
 20
-47.4002
 30
0.0
 40
4.889499999999998
100
AcDbArc
 50
0.0
 51
180.0
  0
ARC
  5
1E3
330
1F
100
AcDbEntity
  8
0
  6
Continuous
 62
     7
370
    25
100
AcDbCircle
 10
-45.0
 20
-47.4002
 30
0.0
 40
4.889500000000005
100
AcDbArc
 50
0.0
 51
180.0
  0
ARC
  5
1E4
330
1F
100
AcDbEntity
  8
0
  6
Continuous
 62
     7
370
    25
100
AcDbCircle
 10
-100.711
 20
-7.239
 30
0.0
 40
7.238999999999937
100
AcDbArc
 50
90.0
 51
180.0
  0
ARC
  5
1E5
330
1F
100
AcDbEntity
  8
0
  6
Continuous
 62
     7
370
    25
100
AcDbCircle
 10
-37.5705
 20
-60.96
 30
0.0
 40
2.539999999999985
100
AcDbArc
 50
180.0
 51
270.0
  0
ARC
  5
1E6
330
1F
100
AcDbEntity
  8
0
  6
Continuous
 62
     7
370
    25
100
AcDbCircle
 10
100.711
 20
-56.261
 30
0.0
 40
7.239000000000026
100
AcDbArc
 50
270.0
 51
0.0
  0
ARC
  5
1E7
330
1F
100
AcDbEntity
  8
0
  6
Continuous
 62
     7
370
    25
100
AcDbCircle
 10
52.6295
 20
-60.96
 30
0.0
 40
2.539999999999992
100
AcDbArc
 50
180.0
 51
270.0
  0
ENDSEC
  0
SECTION
  2
OBJECTS
  0
DICTIONARY
  5
C
330
0
100
AcDbDictionary
281
     1
  3
ACAD_GROUP
350
D
  3
ACAD_LAYOUT
350
1A
  3
ACAD_MLINESTYLE
350
17
  3
ACAD_PLOTSETTINGS
350
19
  3
ACAD_PLOTSTYLENAME
350
E
  3
ACAD_SCALELIST
350
47
  0
DICTIONARY
  5
D
102
{ACAD_REACTORS
330
C
102
}
330
C
100
AcDbDictionary
281
     1
  0
DICTIONARY
  5
1A
102
{ACAD_REACTORS
330
C
102
}
330
C
100
AcDbDictionary
281
     1
  3
Layout1
350
1E
  3
Layout2
350
26
  3
Model
350
22
  0
DICTIONARY
  5
17
102
{ACAD_REACTORS
330
C
102
}
330
C
100
AcDbDictionary
281
     1
  3
Standard
350
18
  0
DICTIONARY
  5
19
102
{ACAD_REACTORS
330
C
102
}
330
C
100
AcDbDictionary
281
     1
  0
ACDBDICTIONARYWDFLT
  5
E
102
{ACAD_REACTORS
330
C
102
}
330
C
100
AcDbDictionary
281
     1
  3
Normal
350
F
100
AcDbDictionaryWithDefault
340
F
  0
DICTIONARY
  5
47
102
{ACAD_REACTORS
330
C
102
}
330
C
100
AcDbDictionary
281
     1
  3
A0
350
48
  3
A1
350
49
  3
A2
350
4A
  3
A3
350
4B
  3
A4
350
4C
  3
A5
350
4D
  3
A6
350
4E
  3
A7
350
4F
  3
A8
350
50
  3
A9
350
51
  3
B0
350
52
  3
B1
350
53
  3
B2
350
54
  3
B3
350
55
  3
B4
350
56
  3
B5
350
57
  3
B6
350
58
  3
B7
350
59
  3
B8
350
5A
  3
B9
350
5B
  3
C0
350
5C
  3
C1
350
5D
  3
C2
350
5E
  3
C3
350
5F
  3
C4
350
60
  3
C5
350
61
  3
C6
350
62
  3
C7
350
63
  3
C8
350
64
  3
C9
350
65
  3
D0
350
66
  3
D1
350
67
  3
D2
350
68
  0
LAYOUT
  5
1E
102
{ACAD_REACTORS
330
1A
102
}
330
1A
100
AcDbPlotSettings
  1

  2
none_device
  4

  6

 40
0.0
 41
0.0
 42
0.0
 43
0.0
 44
0.0
 45
0.0
 46
0.0
 47
0.0
 48
0.0
 49
0.0
140
0.0
141
0.0
142
1.0
143
1.0
 70
   688
 72
     1
 73
     0
 74
     5
  7

 75
    16
147
1.0
148
0.0
149
0.0
100
AcDbLayout
  1
Layout1
 70
     1
 71
     1
 10
0.0
 20
0.0
 11
420.0
 21
297.0
 12
0.0
 22
0.0
 32
0.0
 14
1.0000000000E+20
 24
1.0000000000E+20
 34
1.0000000000E+20
 15
-1.0000000000E+20
 25
-1.0000000000E+20
 35
-1.0000000000E+20
146
0.0
 13
0.0
 23
0.0
 33
0.0
 16
1.0
 26
0.0
 36
0.0
 17
0.0
 27
1.0
 37
0.0
 76
     0
330
1B
  0
LAYOUT
  5
26
102
{ACAD_REACTORS
330
1A
102
}
330
1A
100
AcDbPlotSettings
  1

  2
none_device
  4

  6

 40
0.0
 41
0.0
 42
0.0
 43
0.0
 44
0.0
 45
0.0
 46
0.0
 47
0.0
 48
0.0
 49
0.0
140
0.0
141
0.0
142
1.0
143
1.0
 70
   688
 72
     1
 73
     0
 74
     5
  7

 75
    16
147
1.0
148
0.0
149
0.0
100
AcDbLayout
  1
Layout2
 70
     1
 71
     2
 10
0.0
 20
0.0
 11
0.0
 21
0.0
 12
0.0
 22
0.0
 32
0.0
 14
0.0
 24
0.0
 34
0.0
 15
0.0
 25
0.0
 35
0.0
146
0.0
 13
0.0
 23
0.0
 33
0.0
 16
1.0
 26
0.0
 36
0.0
 17
0.0
 27
1.0
 37
0.0
 76
     0
330
23
  0
LAYOUT
  5
22
102
{ACAD_REACTORS
330
1A
102
}
330
1A
100
AcDbPlotSettings
  1

  2
none_device
  4
ANSI_A_(11.00_x_8.50_Inches)
  6

 40
6.35
 41
19.05
 42
6.35000508
 43
19.05000254
 44
279.4
 45
215.9
 46
133.34999746
 47
129.5773516712
 48
0.0
 49
0.0
140
0.0
141
0.0
142
0.0504400185
143
1.0
 70
  1696
 72
     0
 73
     0
 74
     0
  7

 75
     0
147
0.0179189148
148
-1300.4909072572
149
0.0
100
AcDbLayout
  1
Model
 70
     1
 71
     0
 10
0.0
 20
0.0
 11
420.0
 21
297.0
 12
0.0
 22
0.0
 32
0.0
 14
-107.95
 24
-63.5
 34
0.0
 15
107.95
 25
0.0
 35
0.0
146
0.0
 13
0.0
 23
0.0
 33
0.0
 16
1.0
 26
0.0
 36
0.0
 17
0.0
 27
1.0
 37
0.0
 76
     0
330
1F
331
29
  0
MLINESTYLE
  5
18
102
{ACAD_REACTORS
330
17
102
}
330
17
100
AcDbMlineStyle
  2
Standard
 70
     0
  3

 62
   256
 51
90.0
 52
90.0
 71
     2
 49
0.5
 62
   256
  6
BYLAYER
 49
-0.5
 62
   256
  6
BYLAYER
  0
ACDBPLACEHOLDER
  5
F
102
{ACAD_REACTORS
330
E
102
}
330
E
  0
SCALE
  5
48
102
{ACAD_REACTORS
330
47
102
}
330
47
100
AcDbScale
 70
     0
300
1:1
140
1.0
141
1.0
290
     1
  0
SCALE
  5
49
102
{ACAD_REACTORS
330
47
102
}
330
47
100
AcDbScale
 70
     0
300
1:2
140
1.0
141
2.0
290
     0
  0
SCALE
  5
4A
102
{ACAD_REACTORS
330
47
102
}
330
47
100
AcDbScale
 70
     0
300
1:4
140
1.0
141
4.0
290
     0
  0
SCALE
  5
4B
102
{ACAD_REACTORS
330
47
102
}
330
47
100
AcDbScale
 70
     0
300
1:5
140
1.0
141
5.0
290
     0
  0
SCALE
  5
4C
102
{ACAD_REACTORS
330
47
102
}
330
47
100
AcDbScale
 70
     0
300
1:8
140
1.0
141
8.0
290
     0
  0
SCALE
  5
4D
102
{ACAD_REACTORS
330
47
102
}
330
47
100
AcDbScale
 70
     0
300
1:10
140
1.0
141
10.0
290
     0
  0
SCALE
  5
4E
102
{ACAD_REACTORS
330
47
102
}
330
47
100
AcDbScale
 70
     0
300
1:16
140
1.0
141
16.0
290
     0
  0
SCALE
  5
4F
102
{ACAD_REACTORS
330
47
102
}
330
47
100
AcDbScale
 70
     0
300
1:20
140
1.0
141
20.0
290
     0
  0
SCALE
  5
50
102
{ACAD_REACTORS
330
47
102
}
330
47
100
AcDbScale
 70
     0
300
1:30
140
1.0
141
30.0
290
     0
  0
SCALE
  5
51
102
{ACAD_REACTORS
330
47
102
}
330
47
100
AcDbScale
 70
     0
300
1:40
140
1.0
141
40.0
290
     0
  0
SCALE
  5
52
102
{ACAD_REACTORS
330
47
102
}
330
47
100
AcDbScale
 70
     0
300
1:50
140
1.0
141
50.0
290
     0
  0
SCALE
  5
53
102
{ACAD_REACTORS
330
47
102
}
330
47
100
AcDbScale
 70
     0
300
1:100
140
1.0
141
100.0
290
     0
  0
SCALE
  5
54
102
{ACAD_REACTORS
330
47
102
}
330
47
100
AcDbScale
 70
     0
300
2:1
140
2.0
141
1.0
290
     0
  0
SCALE
  5
55
102
{ACAD_REACTORS
330
47
102
}
330
47
100
AcDbScale
 70
     0
300
4:1
140
4.0
141
1.0
290
     0
  0
SCALE
  5
56
102
{ACAD_REACTORS
330
47
102
}
330
47
100
AcDbScale
 70
     0
300
8:1
140
8.0
141
1.0
290
     0
  0
SCALE
  5
57
102
{ACAD_REACTORS
330
47
102
}
330
47
100
AcDbScale
 70
     0
300
10:1
140
10.0
141
1.0
290
     0
  0
SCALE
  5
58
102
{ACAD_REACTORS
330
47
102
}
330
47
100
AcDbScale
 70
     0
300
100:1
140
100.0
141
1.0
290
     0
  0
SCALE
  5
59
102
{ACAD_REACTORS
330
47
102
}
330
47
100
AcDbScale
 70
     0
300
1/128" = 1'-0"
140
0.0078125
141
12.0
290
     0
  0
SCALE
  5
5A
102
{ACAD_REACTORS
330
47
102
}
330
47
100
AcDbScale
 70
     0
300
1/64" = 1'-0"
140
0.015625
141
12.0
290
     0
  0
SCALE
  5
5B
102
{ACAD_REACTORS
330
47
102
}
330
47
100
AcDbScale
 70
     0
300
1/32" = 1'-0"
140
0.03125
141
12.0
290
     0
  0
SCALE
  5
5C
102
{ACAD_REACTORS
330
47
102
}
330
47
100
AcDbScale
 70
     0
300
1/16" = 1'-0"
140
0.0625
141
12.0
290
     0
  0
SCALE
  5
5D
102
{ACAD_REACTORS
330
47
102
}
330
47
100
AcDbScale
 70
     0
300
3/32" = 1'-0"
140
0.09375
141
12.0
290
     0
  0
SCALE
  5
5E
102
{ACAD_REACTORS
330
47
102
}
330
47
100
AcDbScale
 70
     0
300
1/8" = 1'-0"
140
0.125
141
12.0
290
     0
  0
SCALE
  5
5F
102
{ACAD_REACTORS
330
47
102
}
330
47
100
AcDbScale
 70
     0
300
3/16" = 1'-0"
140
0.1875
141
12.0
290
     0
  0
SCALE
  5
60
102
{ACAD_REACTORS
330
47
102
}
330
47
100
AcDbScale
 70
     0
300
1/4" = 1'-0"
140
0.25
141
12.0
290
     0
  0
SCALE
  5
61
102
{ACAD_REACTORS
330
47
102
}
330
47
100
AcDbScale
 70
     0
300
3/8" = 1'-0"
140
0.375
141
12.0
290
     0
  0
SCALE
  5
62
102
{ACAD_REACTORS
330
47
102
}
330
47
100
AcDbScale
 70
     0
300
1/2" = 1'-0"
140
0.5
141
12.0
290
     0
  0
SCALE
  5
63
102
{ACAD_REACTORS
330
47
102
}
330
47
100
AcDbScale
 70
     0
300
3/4" = 1'-0"
140
0.75
141
12.0
290
     0
  0
SCALE
  5
64
102
{ACAD_REACTORS
330
47
102
}
330
47
100
AcDbScale
 70
     0
300
1" = 1'-0"
140
1.0
141
12.0
290
     0
  0
SCALE
  5
65
102
{ACAD_REACTORS
330
47
102
}
330
47
100
AcDbScale
 70
     0
300
1-1/2" = 1'-0"
140
1.5
141
12.0
290
     0
  0
SCALE
  5
66
102
{ACAD_REACTORS
330
47
102
}
330
47
100
AcDbScale
 70
     0
300
3" = 1'-0"
140
3.0
141
12.0
290
     0
  0
SCALE
  5
67
102
{ACAD_REACTORS
330
47
102
}
330
47
100
AcDbScale
 70
     0
300
6" = 1'-0"
140
6.0
141
12.0
290
     0
  0
SCALE
  5
68
102
{ACAD_REACTORS
330
47
102
}
330
47
100
AcDbScale
 70
     0
300
1'-0" = 1'-0"
140
12.0
141
12.0
290
     0
  0
ENDSEC
  0
EOF
