  0
SECTION
  2
HEADER
  9
$ACADVER
  1
AC1015
  9
$ACADMAINTVER
 70
     6
  9
$DWGCODEPAGE
  3
ANSI_1252
  9
$INSBASE
 10
0.0
 20
0.0
 30
0.0
  9
$EXTMIN
 10
-102.5
 20
-58.45
 30
0.0
  9
$EXTMAX
 10
102.5
 20
-5.45
 30
0.0
  9
$LIMMIN
 10
0.0
 20
0.0
  9
$LIMMAX
 10
420.0
 20
297.0
  9
$ORTHOMODE
 70
     0
  9
$REGENMODE
 70
     1
  9
$FILLMODE
 70
     1
  9
$QTEXTMODE
 70
     0
  9
$MIRRTEXT
 70
     1
  9
$LTSCALE
 40
1.0
  9
$ATTMODE
 70
     1
  9
$TEXTSIZE
 40
6.35
  9
$TRACEWID
 40
1.0
  9
$TEXTSTYLE
  7
Standard
  9
$CLAYER
  8
0
  9
$CELTYPE
  6
ByLayer
  9
$CECOLOR
 62
   256
  9
$CELTSCALE
 40
1.0
  9
$DISPSILH
 70
     0
  9
$DIMSCALE
 40
1.0
  9
$DIMASZ
 40
5.9944
  9
$DIMEXO
 40
0.9906
  9
$DIMDLI
 40
3.75
  9
$DIMRND
 40
0.0
  9
$DIMDLE
 40
0.0
  9
$DIMEXE
 40
0.9906
  9
$DIMTP
 40
0.0
  9
$DIMTM
 40
0.0
  9
$DIMTXT
 40
6.35
  9
$DIMCEN
 40
2.5
  9
$DIMTSZ
 40
0.0
  9
$DIMTOL
 70
     0
  9
$DIMLIM
 70
     0
  9
$DIMTIH
 70
     1
  9
$DIMTOH
 70
     1
  9
$DIMSE1
 70
     0
  9
$DIMSE2
 70
     0
  9
$DIMTAD
 70
     1
  9
$DIMZIN
 70
     0
  9
$DIMBLK
  1

  9
$DIMASO
 70
     1
  9
$DIMSHO
 70
     1
  9
$DIMPOST
  1

  9
$DIMAPOST
  1

  9
$DIMALT
 70
     0
  9
$DIMALTD
 70
     3
  9
$DIMALTF
 40
0.0393700787
  9
$DIMLFAC
 40
1.0
  9
$DIMTOFL
 70
     1
  9
$DIMTVP
 40
0.0
  9
$DIMTIX
 70
     0
  9
$DIMSOXD
 70
     0
  9
$DIMSAH
 70
     0
  9
$DIMBLK1
  1

  9
$DIMBLK2
  1

  9
$DIMSTYLE
  2
ISO-25
  9
$DIMCLRD
 70
     0
  9
$DIMCLRE
 70
     0
  9
$DIMCLRT
 70
     0
  9
$DIMTFAC
 40
1.0
  9
$DIMGAP
 40
1.524
  9
$DIMJUST
 70
     0
  9
$DIMSD1
 70
     0
  9
$DIMSD2
 70
     0
  9
$DIMTOLJ
 70
     0
  9
$DIMTZIN
 70
     0
  9
$DIMALTZ
 70
     0
  9
$DIMALTTZ
 70
     0
  9
$DIMUPT
 70
     0
  9
$DIMDEC
 70
     3
  9
$DIMTDEC
 70
     2
  9
$DIMALTU
 70
     2
  9
$DIMALTTD
 70
     3
  9
$DIMTXSTY
  7
Standard
  9
$DIMAUNIT
 70
     0
  9
$DIMADEC
 70
     2
  9
$DIMALTRND
 40
0.0
  9
$DIMAZIN
 70
     0
  9
$DIMDSEP
 70
    44
  9
$DIMATFIT
 70
     3
  9
$DIMFRAC
 70
     0
  9
$DIMLDRBLK
  1

  9
$DIMLUNIT
 70
     2
  9
$DIMLWD
 70
    -2
  9
$DIMLWE
 70
    -2
  9
$DIMTMOVE
 70
     0
  9
$LUNITS
 70
     2
  9
$LUPREC
 70
     3
  9
$SKETCHINC
 40
1.0
  9
$FILLETRAD
 40
10.0
  9
$AUNITS
 70
     0
  9
$AUPREC
 70
     2
  9
$MENU
  1
.
  9
$ELEVATION
 40
0.0
  9
$PELEVATION
 40
0.0
  9
$THICKNESS
 40
0.0
  9
$LIMCHECK
 70
     0
  9
$CHAMFERA
 40
0.0
  9
$CHAMFERB
 40
0.0
  9
$CHAMFERC
 40
0.0
  9
$CHAMFERD
 40
0.0
  9
$SKPOLY
 70
     0
  9
$TDCREATE
 40
2458409.455926401
  9
$TDUCREATE
 40
2458409.622593067
  9
$TDUPDATE
 40
2458409.455952222
  9
$TDUUPDATE
 40
2458409.622618889
  9
$TDINDWG
 40
0.0000000116
  9
$TDUSRTIMER
 40
0.0000000116
  9
$USRTIMER
 70
     1
  9
$ANGBASE
 50
0.0
  9
$ANGDIR
 70
     0
  9
$PDMODE
 70
     0
  9
$PDSIZE
 40
-1.0
  9
$PLINEWID
 40
0.0
  9
$SPLFRAME
 70
     0
  9
$SPLINETYPE
 70
     6
  9
$SPLINESEGS
 70
     8
  9
$HANDSEED
  5
18E
  9
$SURFTAB1
 70
     6
  9
$SURFTAB2
 70
     6
  9
$SURFTYPE
 70
     6
  9
$SURFU
 70
     6
  9
$SURFV
 70
     6
  9
$UCSBASE
  2

  9
$UCSNAME
  2

  9
$UCSORG
 10
0.0
 20
0.0
 30
0.0
  9
$UCSXDIR
 10
1.0
 20
0.0
 30
0.0
  9
$UCSYDIR
 10
0.0
 20
1.0
 30
0.0
  9
$UCSORTHOREF
  2

  9
$UCSORTHOVIEW
 70
     0
  9
$UCSORGTOP
 10
0.0
 20
0.0
 30
0.0
  9
$UCSORGBOTTOM
 10
0.0
 20
0.0
 30
0.0
  9
$UCSORGLEFT
 10
0.0
 20
0.0
 30
0.0
  9
$UCSORGRIGHT
 10
0.0
 20
0.0
 30
0.0
  9
$UCSORGFRONT
 10
0.0
 20
0.0
 30
0.0
  9
$UCSORGBACK
 10
0.0
 20
0.0
 30
0.0
  9
$PUCSBASE
  2

  9
$PUCSNAME
  2

  9
$PUCSORG
 10
0.0
 20
0.0
 30
0.0
  9
$PUCSXDIR
 10
1.0
 20
0.0
 30
0.0
  9
$PUCSYDIR
 10
0.0
 20
1.0
 30
0.0
  9
$PUCSORTHOREF
  2

  9
$PUCSORTHOVIEW
 70
     0
  9
$PUCSORGTOP
 10
0.0
 20
0.0
 30
0.0
  9
$PUCSORGBOTTOM
 10
0.0
 20
0.0
 30
0.0
  9
$PUCSORGLEFT
 10
0.0
 20
0.0
 30
0.0
  9
$PUCSORGRIGHT
 10
0.0
 20
0.0
 30
0.0
  9
$PUCSORGFRONT
 10
0.0
 20
0.0
 30
0.0
  9
$PUCSORGBACK
 10
0.0
 20
0.0
 30
0.0
  9
$USERI1
 70
     0
  9
$USERI2
 70
     0
  9
$USERI3
 70
     0
  9
$USERI4
 70
     0
  9
$USERI5
 70
     0
  9
$USERR1
 40
0.0
  9
$USERR2
 40
0.0
  9
$USERR3
 40
0.0
  9
$USERR4
 40
0.0
  9
$USERR5
 40
0.0
  9
$WORLDVIEW
 70
     1
  9
$SHADEDGE
 70
     3
  9
$SHADEDIF
 70
    70
  9
$TILEMODE
 70
     1
  9
$MAXACTVP
 70
    64
  9
$PINSBASE
 10
0.0
 20
0.0
 30
0.0
  9
$PLIMCHECK
 70
     0
  9
$PEXTMIN
 10
1.0000000000E+20
 20
1.0000000000E+20
 30
1.0000000000E+20
  9
$PEXTMAX
 10
-1.0000000000E+20
 20
-1.0000000000E+20
 30
-1.0000000000E+20
  9
$PLIMMIN
 10
0.0
 20
0.0
  9
$PLIMMAX
 10
420.0
 20
297.0
  9
$UNITMODE
 70
     0
  9
$VISRETAIN
 70
     1
  9
$PLINEGEN
 70
     0
  9
$PSLTSCALE
 70
     1
  9
$TREEDEPTH
 70
  3020
  9
$CMLSTYLE
  2
Standard
  9
$CMLJUST
 70
     0
  9
$CMLSCALE
 40
20.0
  9
$PROXYGRAPHICS
 70
     1
  9
$MEASUREMENT
 70
     1
  9
$CELWEIGHT
370
    -1
  9
$ENDCAPS
280
     0
  9
$JOINSTYLE
280
     0
  9
$LWDISPLAY
290
     1
  9
$INSUNITS
 70
     4
  9
$HYPERLINKBASE
  1

  9
$STYLESHEET
  1

  9
$XEDIT
290
     1
  9
$CEPSNTYPE
380
     0
  9
$PSTYLEMODE
290
     1
  9
$FINGERPRINTGUID
  2
{313B6AC9-B25F-43C5-8179-5676AA7FA311}
  9
$VERSIONGUID
  2
{FAEB1C32-E019-11D5-929B-00C0DF256EC4}
  9
$EXTNAMES
290
     1
  9
$PSVPSCALE
 40
0.0
  9
$OLESTARTUP
290
     0
  0
ENDSEC
  0
SECTION
  2
CLASSES
  0
CLASS
  1
ACDBDICTIONARYWDFLT
  2
AcDbDictionaryWithDefault
  3
ObjectDBX Classes
 90
        0
280
     0
281
     0
  0
CLASS
  1
VISUALSTYLE
  2
AcDbVisualStyle
  3
ObjectDBX Classes
 90
     4095
280
     0
281
     0
  0
CLASS
  1
MATERIAL
  2
AcDbMaterial
  3
ObjectDBX Classes
 90
     1153
280
     0
281
     0
  0
CLASS
  1
SCALE
  2
AcDbScale
  3
ObjectDBX Classes
 90
     1153
280
     0
281
     0
  0
CLASS
  1
TABLESTYLE
  2
AcDbTableStyle
  3
ObjectDBX Classes
 90
     4095
280
     0
281
     0
  0
CLASS
  1
MLEADERSTYLE
  2
AcDbMLeaderStyle
  3
ACDB_MLEADERSTYLE_CLASS
 90
     4095
280
     0
281
     0
  0
CLASS
  1
SUN
  2
AcDbSun
  3
SCENEOE
 90
     1153
280
     0
281
     0
  0
CLASS
  1
ACDBPLACEHOLDER
  2
AcDbPlaceHolder
  3
ObjectDBX Classes
 90
        0
280
     0
281
     0
  0
CLASS
  1
LAYOUT
  2
AcDbLayout
  3
ObjectDBX Classes
 90
        0
280
     0
281
     0
  0
ENDSEC
  0
SECTION
  2
TABLES
  0
TABLE
  2
VPORT
  5
8
330
0
100
AcDbSymbolTable
 70
     1
  0
VPORT
  5
29
330
8
100
AcDbSymbolTableRecord
100
AcDbViewportTableRecord
  2
*Active
 70
     0
 10
0.0
 20
0.0
 11
1.0
 21
1.0
 12
0.0
 22
-31.95
 13
0.0
 23
0.0
 14
10.0
 24
10.0
 15
10.0
 25
10.0
 16
0.0
 26
0.0
 36
1.0
 17
0.0
 27
0.0
 37
0.0
 40
54.06
 41
3.8679245283
 42
50.0
 43
0.0
 44
0.0
 50
0.0
 51
0.0
 71
     0
 72
   100
 73
     1
 74
     3
 75
     0
 76
     0
 77
     0
 78
     0
281
     0
 65
     1
110
0.0
120
0.0
130
0.0
111
1.0
121
0.0
131
0.0
112
0.0
122
1.0
132
0.0
 79
     0
146
0.0
  0
ENDTAB
  0
TABLE
  2
LTYPE
  5
5
330
0
100
AcDbSymbolTable
 70
     6
  0
LTYPE
  5
14
330
5
100
AcDbSymbolTableRecord
100
AcDbLinetypeTableRecord
  2
ByBlock
 70
     0
  3

 72
    65
 73
     0
 40
0.0
  0
LTYPE
  5
15
330
5
100
AcDbSymbolTableRecord
100
AcDbLinetypeTableRecord
  2
ByLayer
 70
     0
  3

 72
    65
 73
     0
 40
0.0
  0
LTYPE
  5
16
330
5
100
AcDbSymbolTableRecord
100
AcDbLinetypeTableRecord
  2
Continuous
 70
     0
  3
Solid line
 72
    65
 73
     0
 40
0.0
  0
LTYPE
  5
6E
330
5
100
AcDbSymbolTableRecord
100
AcDbLinetypeTableRecord
  2
HIDDEN
 70
     0
  3
Hidden __ __ __ __ __ __ __ __ __ __ __ __ __ __
 72
    65
 73
     2
 40
1.905
 49
1.27
 74
     0
 49
-0.635
 74
     0
  0
LTYPE
  5
6F
330
5
100
AcDbSymbolTableRecord
100
AcDbLinetypeTableRecord
  2
PHANTOM
 70
     0
  3
Phantom ______  __  __  ______  __  __  ______
 72
    65
 73
     6
 40
12.7
 49
6.35
 74
     0
 49
-1.27
 74
     0
 49
1.27
 74
     0
 49
-1.27
 74
     0
 49
1.27
 74
     0
 49
-1.27
 74
     0
  0
LTYPE
  5
70
330
5
100
AcDbSymbolTableRecord
100
AcDbLinetypeTableRecord
  2
CENTER
 70
     0
  3
Center ____ _ ____ _ ____ _ ____ _ ____ _ ____
 72
    65
 73
     4
 40
10.16
 49
6.35
 74
     0
 49
-1.27
 74
     0
 49
1.27
 74
     0
 49
-1.27
 74
     0
  0
LTYPE
  5
71
330
5
100
AcDbSymbolTableRecord
100
AcDbLinetypeTableRecord
  2
CENTERX2
 70
     0
  3
Center (2x) ________  __  ________  __  _____
 72
    65
 73
     4
 40
20.32
 49
12.7
 74
     0
 49
-2.54
 74
     0
 49
2.54
 74
     0
 49
-2.54
 74
     0
  0
LTYPE
  5
72
330
5
100
AcDbSymbolTableRecord
100
AcDbLinetypeTableRecord
  2
DOT2
 70
     0
  3
Dot (.5x) ........................................
 72
    65
 73
     2
 40
0.635
 49
0.0
 74
     0
 49
-0.635
 74
     0
  0
ENDTAB
  0
TABLE
  2
LAYER
  5
2
330
0
100
AcDbSymbolTable
 70
     1
  0
LAYER
  5
10
330
2
100
AcDbSymbolTableRecord
100
AcDbLayerTableRecord
  2
0
 70
     0
 62
     7
  6
Continuous
370
    -3
390
F
  0
ENDTAB
  0
TABLE
  2
STYLE
  5
3
330
0
100
AcDbSymbolTable
 70
     1
  0
STYLE
  5
11
330
3
100
AcDbSymbolTableRecord
100
AcDbTextStyleTableRecord
  2
Standard
 70
     0
 40
0.0
 41
1.0
 50
0.0
 71
     0
 42
6.35
  3
txt
  4

  0
ENDTAB
  0
TABLE
  2
VIEW
  5
6
330
0
100
AcDbSymbolTable
 70
     0
  0
ENDTAB
  0
TABLE
  2
UCS
  5
7
330
0
100
AcDbSymbolTable
 70
     0
  0
ENDTAB
  0
TABLE
  2
APPID
  5
9
330
0
100
AcDbSymbolTable
 70
     1
  0
APPID
  5
12
330
9
100
AcDbSymbolTableRecord
100
AcDbRegAppTableRecord
  2
ACAD
 70
     0
  0
ENDTAB
  0
TABLE
  2
DIMSTYLE
  5
A
330
0
100
AcDbSymbolTable
 70
     1
100
AcDbDimStyleTable
  0
DIMSTYLE
105
27
330
A
100
AcDbSymbolTableRecord
100
AcDbDimStyleTableRecord
  2
ISO-25
 70
     0
 41
2.5
 42
0.625
 43
3.75
 44
1.25
 73
     0
 74
     0
 77
     1
 78
     8
140
2.5
141
2.5
143
0.0393700787
147
0.625
171
     3
172
     1
178
     0
271
     2
272
     2
274
     3
278
    44
283
     0
284
     8
340
11
  0
ENDTAB
  0
TABLE
  2
BLOCK_RECORD
  5
1
330
0
100
AcDbSymbolTable
 70
     1
  0
BLOCK_RECORD
  5
1F
330
1
100
AcDbSymbolTableRecord
100
AcDbBlockTableRecord
  2
*Model_Space
340
22
  0
BLOCK_RECORD
  5
1B
330
1
100
AcDbSymbolTableRecord
100
AcDbBlockTableRecord
  2
*Paper_Space
340
1E
  0
BLOCK_RECORD
  5
23
330
1
100
AcDbSymbolTableRecord
100
AcDbBlockTableRecord
  2
*Paper_Space0
340
26
  0
ENDTAB
  0
ENDSEC
  0
SECTION
  2
BLOCKS
  0
BLOCK
  5
20
330
1F
100
AcDbEntity
  8
0
100
AcDbBlockBegin
  2
*Model_Space
 70
     0
 10
0.0
 20
0.0
 30
0.0
  3
*Model_Space
  1

  0
ENDBLK
  5
21
330
1F
100
AcDbEntity
  8
0
100
AcDbBlockEnd
  0
BLOCK
  5
1C
330
1B
100
AcDbEntity
 67
     1
  8
0
100
AcDbBlockBegin
  2
*Paper_Space
 70
     0
 10
0.0
 20
0.0
 30
0.0
  3
*Paper_Space
  1

  0
ENDBLK
  5
1D
330
1B
100
AcDbEntity
 67
     1
  8
0
100
AcDbBlockEnd
  0
BLOCK
  5
24
330
23
100
AcDbEntity
  8
0
100
AcDbBlockBegin
  2
*Paper_Space0
 70
     0
 10
0.0
 20
0.0
 30
0.0
  3
*Paper_Space0
  1

  0
ENDBLK
  5
25
330
23
100
AcDbEntity
  8
0
100
AcDbBlockEnd
  0
ENDSEC
  0
SECTION
  2
ENTITIES
  0
CIRCLE
  5
B8
330
1F
100
AcDbEntity
  8
0
  6
Continuous
 62
     7
370
    25
100
AcDbCircle
 10
-66.273
 20
-29.45
 30
0.0
 40
1.904999999999987
  0
CIRCLE
  5
B9
330
1F
100
AcDbEntity
  8
0
  6
Continuous
 62
     7
370
    25
100
AcDbCircle
 10
-50.648
 20
-29.45
 30
0.0
 40
11.1125
  0
CIRCLE
  5
BF
330
1F
100
AcDbEntity
  8
0
  6
Continuous
 62
     7
370
    25
100
AcDbCircle
 10
-35.023
 20
-29.45
 30
0.0
 40
1.905000000000001
  0
CIRCLE
  5
C0
330
1F
100
AcDbEntity
  8
0
  6
Continuous
 62
     7
370
    25
100
AcDbCircle
 10
-12.5
 20
-29.45
 30
0.0
 40
9.249999999999995
  0
SPLINE
  5
CB
330
1F
100
AcDbEntity
  8
0
  6
Continuous
 62
     7
370
    25
100
AcDbSpline
210
0.0
220
0.0
230
1.0
 70
     8
 71
     3
 72
    11
 73
     7
 74
     0
 42
0.000000001
 43
0.00000001
 40
0.0
 40
0.0
 40
0.0
 40
0.0
 40
0.3556804465405276
 40
0.6442780330475614
 40
0.8590950904898708
 40
0.9999999999999999
 40
0.9999999999999999
 40
0.9999999999999999
 40
0.9999999999999999
 10
68.1123536529544
 20
-40.83597889454319
 30
0.0
 10
68.11278399989196
 20
-40.81350640127952
 30
0.0
 10
68.11356352848611
 20
-40.7727998235117
 30
0.0
 10
68.11451981730136
 20
-40.7185190390178
 30
0.0
 10
68.11638891485624
 20
-40.67783269126404
 30
0.0
 10
68.11623193855418
 20
-40.65535089725396
 30
0.0
 10
68.11616975872361
 20
-40.64644564133806
 30
0.0
  0
SPLINE
  5
D5
330
1F
100
AcDbEntity
  8
0
  6
Continuous
 62
     7
370
    25
100
AcDbSpline
210
0.0
220
0.0
230
1.0
 70
     8
 71
     3
 72
    11
 73
     7
 74
     0
 42
0.000000001
 43
0.00000001
 40
0.0
 40
0.0
 40
0.0
 40
0.0
 40
0.2753332836171066
 40
0.5329132699999239
 40
0.7736079853173017
 40
1.0
 40
1.0
 40
1.0
 40
1.0
 10
73.9744518100057
 20
-29.95765911315773
 30
0.0
 10
73.92239762255221
 20
-29.96841304634603
 30
0.0
 10
73.82164566518404
 20
-29.98922750664464
 30
0.0
 10
73.67376887371998
 20
-30.01001873821194
 30
0.0
 10
73.53467132241795
 20
-30.02590281413251
 30
0.0
 10
73.44447911946236
 20
-30.02706011885832
 30
0.0
 10
73.40076390936467
 20
-30.0276210522603
 30
0.0
  0
SPLINE
  5
D6
330
1F
100
AcDbEntity
  8
0
  6
Continuous
 62
     7
370
    25
100
AcDbSpline
210
0.0
220
0.0
230
1.0
 70
     8
 71
     3
 72
    15
 73
    11
 74
     0
 42
0.000000001
 43
0.00000001
 40
0.0
 40
0.0
 40
0.0
 40
0.0
 40
0.1576937362009008
 40
0.3027499425532334
 40
0.4381682001453405
 40
0.5647048489007901
 40
0.6817627038951829
 40
0.7918313926672655
 40
0.8965243972894279
 40
1.0
 40
1.0
 40
1.0
 40
1.0
 10
84.8020159125698
 20
-33.38663031263215
 30
0.0
 10
84.80109327164078
 20
-33.35100169035069
 30
0.0
 10
84.79932192995668
 20
-33.28259971314581
 30
0.0
 10
84.79116671563527
 20
-33.18378813969777
 30
0.0
 10
84.77441295240575
 20
-33.09318530650712
 30
0.0
 10
84.75183693169392
 20
-33.01049299081303
 30
0.0
 10
84.72318509416682
 20
-32.93554234558449
 30
0.0
 10
84.68523007470036
 20
-32.87070255406814
 30
0.0
 10
84.64375967446885
 20
-32.8115173834532
 30
0.0
 10
84.60927272667942
 20
-32.7793317436274
 30
0.0
 10
84.59213009526209
 20
-32.76333303699112
 30
0.0
  0
SPLINE
  5
D7
330
1F
100
AcDbEntity
  8
0
  6
Continuous
 62
     7
370
    25
100
AcDbSpline
210
0.0
220
0.0
230
1.0
 70
     8
 71
     3
 72
    15
 73
    11
 74
     0
 42
0.000000001
 43
0.00000001
 40
0.0
 40
0.0
 40
0.0
 40
0.0
 40
0.1576937362009008
 40
0.3027499425532334
 40
0.4381682001453405
 40
0.5647048489007901
 40
0.6817627038951829
 40
0.7918313926672655
 40
0.8965243972894279
 40
1.0
 40
1.0
 40
1.0
 40
1.0
 10
68.11616975872361
 20
-40.64644564133806
 30
0.0
 10
68.11524711779462
 20
-40.61081701905659
 30
0.0
 10
68.11347577611052
 20
-40.54241504185172
 30
0.0
 10
68.10532056178909
 20
-40.44360346840369
 30
0.0
 10
68.08856679855957
 20
-40.35300063521303
 30
0.0
 10
68.06599077784774
 20
-40.27030831951895
 30
0.0
 10
68.03733894032065
 20
-40.19535767429041
 30
0.0
 10
67.99938392085417
 20
-40.13051788277406
 30
0.0
 10
67.9579135206227
 20
-40.07133271215911
 30
0.0
 10
67.92342657283326
 20
-40.03914707233331
 30
0.0
 10
67.90628394141594
 20
-40.02314836569704
 30
0.0
  0
SPLINE
  5
D8
330
1F
100
AcDbEntity
  8
0
  6
Continuous
 62
     7
370
    25
100
AcDbSpline
210
0.0
220
0.0
230
1.0
 70
     8
 71
     3
 72
    15
 73
    11
 74
     0
 42
0.000000001
 43
0.00000001
 40
0.0
 40
0.0
 40
0.0
 40
0.0
 40
0.1428250587215684
 40
0.274788942765689
 40
0.3980100116351029
 40
0.5174379727098223
 40
0.6346044449490663
 40
0.7519488386867865
 40
0.8730097295444739
 40
1.0
 40
1.0
 40
1.0
 40
1.0
 10
65.75578113692876
 20
-25.22441592405517
 30
0.0
 10
65.83317385264617
 20
-25.22675335780406
 30
0.0
 10
65.98207393166669
 20
-25.23125047444727
 30
0.0
 10
66.19416387706545
 20
-25.27518776348024
 30
0.0
 10
66.38475407685418
 20
-25.34675936892141
 30
0.0
 10
66.55334054643427
 20
-25.44659802601101
 30
0.0
 10
66.69805539496166
 20
-25.57348476998808
 30
0.0
 10
66.82254600385454
 20
-25.72129735964659
 30
0.0
 10
66.9214616557345
 20
-25.89407928027279
 30
0.0
 10
66.96656472985799
 20
-26.02073973073714
 30
0.0
 10
66.98965533564672
 20
-26.08558379264491
 30
0.0
  0
SPLINE
  5
DA
330
1F
100
AcDbEntity
  8
0
  6
Continuous
 62
     7
370
    25
100
AcDbSpline
210
0.0
220
0.0
230
1.0
 70
     8
 71
     3
 72
    19
 73
    15
 74
     0
 42
0.000000001
 43
0.00000001
 40
0.0
 40
0.0
 40
0.0
 40
0.0
 40
0.1277015071003543
 40
0.2433675130499652
 40
0.3471885755802544
 40
0.4412827405881252
 40
0.5260554750250693
 40
0.6028203240880913
 40
0.6721135485315826
 40
0.7357752349647725
 40
0.7977781204612839
 40
0.8617653921994171
 40
0.9285338459256564
 40
1.0
 40
1.0
 40
1.0
 40
1.0
 10
83.89251070423646
 20
-31.78513792481164
 30
0.0
 10
83.98754858032333
 20
-31.78679905699119
 30
0.0
 10
84.16866728498071
 20
-31.78996476440189
 30
0.0
 10
84.42613071647683
 20
-31.81479594145689
 30
0.0
 10
84.65601332856629
 20
-31.8569774247869
 30
0.0
 10
84.85778815094238
 20
-31.91808180578372
 30
0.0
 10
85.03318649750014
 20
-31.99241042338212
 30
0.0
 10
85.1846226400181
 20
-32.07420642259882
 30
0.0
 10
85.31138767229196
 20
-32.16617457956112
 30
0.0
 10
85.41471034217798
 20
-32.2689033645297
 30
0.0
 10
85.49759934112886
 20
-32.38383151317322
 30
0.0
 10
85.56460674257943
 20
-32.51098710365647
 30
0.0
 10
85.62057351764477
 20
-32.65113752731161
 30
0.0
 10
85.64530807673628
 20
-32.75109100496357
 30
0.0
 10
85.65809564013391
 20
-32.80276612993984
 30
0.0
  0
SPLINE
  5
DB
330
1F
100
AcDbEntity
  8
0
  6
Continuous
 62
     7
370
    25
100
AcDbSpline
210
0.0
220
0.0
230
1.0
 70
     8
 71
     3
 72
    15
 73
    11
 74
     0
 42
0.000000001
 43
0.00000001
 40
0.0
 40
0.0
 40
0.0
 40
0.0
 40
0.1379202549009408
 40
0.2682360565522925
 40
0.3919093139823092
 40
0.5112398685206886
 40
0.6296940546172894
 40
0.748331351328832
 40
0.8714308163135046
 40
1.0
 40
1.0
 40
1.0
 40
1.0
 10
78.39665693821082
 20
-35.80604137032446
 30
0.0
 10
78.36091590835778
 20
-35.8681428316835
 30
0.0
 10
78.29140448734296
 20
-35.98892169127196
 30
0.0
 10
78.16378120846751
 20
-36.14808197740327
 30
0.0
 10
78.02640065872257
 20
-36.28539485932064
 30
0.0
 10
77.8738826882149
 20
-36.39573232679376
 30
0.0
 10
77.71035694857062
 20
-36.48340248242967
 30
0.0
 10
77.53320289509746
 20
-36.54516296328968
 30
0.0
 10
77.34356586401023
 20
-36.58072356714886
 30
0.0
 10
77.21296562240754
 20
-36.58576668897621
 30
0.0
 10
77.14624628115955
 20
-36.58834305301676
 30
0.0
  0
SPLINE
  5
DC
330
1F
100
AcDbEntity
  8
0
  6
Continuous
 62
     7
370
    25
100
AcDbSpline
210
0.0
220
0.0
230
1.0
 70
     8
 71
     3
 72
    23
 73
    19
 74
     0
 42
0.000000001
 43
0.00000001
 40
0.0
 40
0.0
 40
0.0
 40
0.0
 40
0.0947478707804532
 40
0.1790846350486399
 40
0.2542870520841948
 40
0.3215603789604561
 40
0.3834996598249721
 40
0.4417190015224959
 40
0.499014036521455
 40
0.5551995843708987
 40
0.5867006486205659
 40
0.624960183661603
 40
0.6695051206017155
 40
0.7219128617320271
 40
0.7802733573506389
 40
0.8465379283818045
 40
0.9195770186060356
 40
1.0
 40
1.0
 40
1.0
 40
1.0
 10
73.40076390936467
 20
-30.0276210522603
 30
0.0
 10
73.33582319087232
 20
-30.02584935705893
 30
0.0
 10
73.2130775842934
 20
-30.02250064446051
 30
0.0
 10
73.03980623418185
 20
-29.99953879245112
 30
0.0
 10
72.88950749268456
 20
-29.95786436919743
 30
0.0
 10
72.76093277193208
 20
-29.90054800065911
 30
0.0
 10
72.65417326337484
 20
-29.82807055830544
 30
0.0
 10
72.56435081592755
 20
-29.7453529879277
 30
0.0
 10
72.4916356185152
 20
-29.65222761921226
 30
0.0
 10
72.44345209443561
 20
-29.56457573082416
 30
0.0
 10
72.41508768457517
 20
-29.48287527380769
 30
0.0
 10
72.39634314545634
 20
-29.40668988808145
 30
0.0
 10
72.38201981903799
 20
-29.3150770565753
 30
0.0
 10
72.36771448053422
 20
-29.20957895395712
 30
0.0
 10
72.35769545388027
 20
-29.08858548806337
 30
0.0
 10
72.35247033841735
 20
-28.95319948624699
 30
0.0
 10
72.34636533874641
 20
-28.80270117645574
 30
0.0
 10
72.3462874828061
 20
-28.69750403223404
 30
0.0
 10
72.34624668180057
 20
-28.64237465802952
 30
0.0
  0
SPLINE
  5
DD
330
1F
100
AcDbEntity
  8
0
  6
Continuous
 62
     7
370
    25
100
AcDbSpline
210
0.0
220
0.0
230
1.0
 70
     8
 71
     3
 72
    15
 73
    11
 74
     0
 42
0.000000001
 43
0.00000001
 40
0.0
 40
0.0
 40
0.0
 40
0.0
 40
0.1428250587215684
 40
0.2747889427656891
 40
0.3980100116351022
 40
0.5174379727098238
 40
0.6346044449490679
 40
0.7519488386867866
 40
0.873009729544474
 40
1.0
 40
1.0
 40
1.0
 40
1.0
 10
65.75578113692876
 20
-31.78513792481164
 30
0.0
 10
65.83317385264617
 20
-31.78747535856053
 30
0.0
 10
65.98207393166669
 20
-31.79197247520374
 30
0.0
 10
66.19416387706548
 20
-31.83590976423672
 30
0.0
 10
66.38475407685415
 20
-31.90748136967787
 30
0.0
 10
66.5533405464343
 20
-32.00732002676749
 30
0.0
 10
66.69805539496163
 20
-32.13420677074454
 30
0.0
 10
66.82254600385448
 20
-32.28201936040305
 30
0.0
 10
66.92146165573453
 20
-32.45480128102926
 30
0.0
 10
66.966564729858
 20
-32.58146173149362
 30
0.0
 10
66.98965533564672
 20
-32.64630579340138
 30
0.0
  0
SPLINE
  5
DE
330
1F
100
AcDbEntity
  8
0
  6
Continuous
 62
     7
370
    25
100
AcDbSpline
210
0.0
220
0.0
230
1.0
 70
     8
 71
     3
 72
    11
 73
     7
 74
     0
 42
0.000000001
 43
0.00000001
 40
0.0
 40
0.0
 40
0.0
 40
0.0
 40
0.3556804465405278
 40
0.6442780330475635
 40
0.8590950904898708
 40
1.0
 40
1.0
 40
1.0
 40
1.0
 10
84.79819980680057
 20
-33.57616356583728
 30
0.0
 10
84.79863015373812
 20
-33.55369107257361
 30
0.0
 10
84.79940968233227
 20
-33.51298449480579
 30
0.0
 10
84.80036597114754
 20
-33.45870371031189
 30
0.0
 10
84.80223506870239
 20
-33.41801736255812
 30
0.0
 10
84.80207809240036
 20
-33.39553556854805
 30
0.0
 10
84.8020159125698
 20
-33.38663031263215
 30
0.0
  0
SPLINE
  5
DF
330
1F
100
AcDbEntity
  8
0
  6
Continuous
 62
     7
370
    25
100
AcDbSpline
210
0.0
220
0.0
230
1.0
 70
     8
 71
     3
 72
    15
 73
    11
 74
     0
 42
0.000000001
 43
0.00000001
 40
0.0
 40
0.0
 40
0.0
 40
0.0
 40
0.1370390155820391
 40
0.2654791971992616
 40
0.3867575550777044
 40
0.5038673484005999
 40
0.6203204603896461
 40
0.7397674030522728
 40
0.8654537421739
 40
1.0
 40
1.0
 40
1.0
 40
1.0
 10
72.71350870103133
 20
-35.85565074532446
 30
0.0
 10
72.78231171216939
 20
-35.85334710826535
 30
0.0
 10
72.91560052838162
 20
-35.84888438124928
 30
0.0
 10
73.10792421317991
 20
-35.81757514124523
 30
0.0
 10
73.28421910360841
 20
-35.76237066837015
 30
0.0
 10
73.44572411927098
 20
-35.68573963099431
 30
0.0
 10
73.59217125392786
 20
-35.58415897256855
 30
0.0
 10
73.71995867156383
 20
-35.45413760634526
 30
0.0
 10
73.83357115632991
 20
-35.30003894999855
 30
0.0
 10
73.89266259333463
 20
-35.18330999898029
 30
0.0
 10
73.92321422987749
 20
-35.12295843763215
 30
0.0
  0
SPLINE
  5
E0
330
1F
100
AcDbEntity
  8
0
  6
Continuous
 62
     7
370
    25
100
AcDbSpline
210
0.0
220
0.0
230
1.0
 70
     8
 71
     3
 72
    19
 73
    15
 74
     0
 42
0.000000001
 43
0.00000001
 40
0.0
 40
0.0
 40
0.0
 40
0.0
 40
0.1277015071003543
 40
0.2433675130499652
 40
0.3471885755802544
 40
0.4412827405881252
 40
0.5260554750250693
 40
0.6028203240880913
 40
0.6721135485315826
 40
0.7357752349647725
 40
0.7977781204612839
 40
0.8617653921994171
 40
0.9285338459256564
 40
1.0
 40
1.0
 40
1.0
 40
1.0
 10
67.20666455039029
 20
-39.04495325351755
 30
0.0
 10
67.30170242647715
 20
-39.0466143856971
 30
0.0
 10
67.48282113113454
 20
-39.04978009310781
 30
0.0
 10
67.74028456263065
 20
-39.07461127016279
 30
0.0
 10
67.9701671747201
 20
-39.11679275349282
 30
0.0
 10
68.17194199709623
 20
-39.17789713448963
 30
0.0
 10
68.34734034365391
 20
-39.25222575208802
 30
0.0
 10
68.49877648617195
 20
-39.33402175130474
 30
0.0
 10
68.6255415184458
 20
-39.42598990826703
 30
0.0
 10
68.72886418833183
 20
-39.5287186932356
 30
0.0
 10
68.81175318728269
 20
-39.64364684187913
 30
0.0
 10
68.87876058873324
 20
-39.77080243236238
 30
0.0
 10
68.93472736379863
 20
-39.91095285601753
 30
0.0
 10
68.95946192289013
 20
-40.01090633366948
 30
0.0
 10
68.97224948628772
 20
-40.06258145864575
 30
0.0
  0
SPLINE
  5
E1
330
1F
100
AcDbEntity
  8
0
  6
Continuous
 62
     7
370
    25
100
AcDbSpline
210
0.0
220
0.0
230
1.0
 70
     8
 71
     3
 72
    19
 73
    15
 74
     0
 42
0.000000001
 43
0.00000001
 40
0.0
 40
0.0
 40
0.0
 40
0.0
 40
0.085104453018851
 40
0.1643314998230946
 40
0.2380773820525844
 40
0.3082779440134504
 40
0.3780989755694151
 40
0.4508414657082244
 40
0.5285405729277672
 40
0.6119430152696538
 40
0.7014543501110879
 40
0.7954789558948215
 40
0.8947745344629723
 40
0.9999999999999999
 40
0.9999999999999999
 40
0.9999999999999999
 40
0.9999999999999999
 10
65.10399027154412
 20
-40.42892761249191
 30
0.0
 10
65.12266999012775
 20
-40.35253751148198
 30
0.0
 10
65.15873938558514
 20
-40.20503289303599
 30
0.0
 10
65.23810426199574
 20
-39.99930661142672
 30
0.0
 10
65.3341622838575
 20
-39.81660455799027
 30
0.0
 10
65.44670224435731
 20
-39.65350989915236
 30
0.0
 10
65.58503391130965
 20
-39.51283401727093
 30
0.0
 10
65.74728890467945
 20
-39.38900247854146
 30
0.0
 10
65.93770157792083
 20
-39.28576395683518
 30
0.0
 10
66.15228012531055
 20
-39.1981691131007
 30
0.0
 10
66.38934117297127
 20
-39.1291104841721
 30
0.0
 10
66.64614497508084
 20
-39.08002586108179
 30
0.0
 10
66.92062350893247
 20
-39.05070905473166
 30
0.0
 10
67.10949218262135
 20
-39.04690858422651
 30
0.0
 10
67.20666455039029
 20
-39.04495325351755
 30
0.0
  0
SPLINE
  5
E2
330
1F
100
AcDbEntity
  8
0
  6
Continuous
 62
     7
370
    25
100
AcDbSpline
210
0.0
220
0.0
230
1.0
 70
     8
 71
     3
 72
    11
 73
     7
 74
     0
 42
0.000000001
 43
0.00000001
 40
0.0
 40
0.0
 40
0.0
 40
0.0
 40
0.1888117805854905
 40
0.4192996053475306
 40
0.6884945673211867
 40
1.0
 40
1.0
 40
1.0
 40
1.0
 10
66.10126591256976
 20
-41.22013354197909
 30
0.0
 10
66.14271386539436
 20
-41.20948095990699
 30
0.0
 10
66.23475849421953
 20
-41.18582447276982
 30
0.0
 10
66.38845242502306
 20
-41.15855120074428
 30
0.0
 10
66.5697634362153
 20
-41.12842725957034
 30
0.0
 10
66.7003212548512
 20
-41.11194687836192
 30
0.0
 10
66.77035645744157
 20
-41.10310629838934
 30
0.0
  0
SPLINE
  5
E3
330
1F
100
AcDbEntity
  8
0
  6
Continuous
 62
     7
370
    25
100
AcDbSpline
210
0.0
220
0.0
230
1.0
 70
     8
 71
     3
 72
    17
 73
    13
 74
     0
 42
0.000000001
 43
0.00000001
 40
0.0
 40
0.0
 40
0.0
 40
0.0
 40
0.1693748016950677
 40
0.3057107119986368
 40
0.4093010577798258
 40
0.4812810099687792
 40
0.5929870972808703
 40
0.7047775512215008
 40
0.7662723095067928
 40
0.8354621927706741
 40
0.9130453249045929
 40
1.0
 40
1.0
 40
1.0
 40
1.0
 10
73.16034924590315
 20
-28.67163146892696
 30
0.0
 10
73.16066136830169
 20
-28.72125768494438
 30
0.0
 10
73.16122472931954
 20
-28.81082983901128
 30
0.0
 10
73.1689913074205
 20
-28.93053323042745
 30
0.0
 10
73.17858505952898
 20
-29.02143454729017
 30
0.0
 10
73.19877916205512
 20
-29.10374020496319
 30
0.0
 10
73.24598669542911
 20
-29.17838659563189
 30
0.0
 10
73.30896857614385
 20
-29.23503068595119
 30
0.0
 10
73.37293035102444
 20
-29.26709911213122
 30
0.0
 10
73.43223472312913
 20
-29.28254119207841
 30
0.0
 10
73.5000498760735
 20
-29.29283039243699
 30
0.0
 10
73.54827484853743
 20
-29.29420322972913
 30
0.0
 10
73.57376070423649
 20
-29.29492874456799
 30
0.0
  0
SPLINE
  5
E4
330
1F
100
AcDbEntity
  8
0
  6
Continuous
 62
     7
370
    25
100
AcDbSpline
210
0.0
220
0.0
230
1.0
 70
     8
 71
     3
 72
    23
 73
    19
 74
     0
 42
0.000000001
 43
0.00000001
 40
0.0
 40
0.0
 40
0.0
 40
0.0
 40
0.0684926851390415
 40
0.1336448985184784
 40
0.1953466000273899
 40
0.2542475050093699
 40
0.3113035050924229
 40
0.3666490750652282
 40
0.4212985754017498
 40
0.4757287284935649
 40
0.5310920965139093
 40
0.588187551005749
 40
0.6472697780619282
 40
0.7093693758273892
 40
0.7752605143705027
 40
0.8452130337113041
 40
0.9203888085482186
 40
1.0
 40
1.0
 40
1.0
 40
1.0
 10
68.39652632923645
 20
-31.78513792481164
 30
0.0
 10
68.45127702793962
 20
-31.7863823960413
 30
0.0
 10
68.5581081670189
 20
-31.78881064412154
 30
0.0
 10
68.71337363147623
 20
-31.80697806697028
 30
0.0
 10
68.85930009223307
 20
-31.8353981504497
 30
0.0
 10
68.99503274562798
 20
-31.87798170761253
 30
0.0
 10
69.12140135467499
 20
-31.93116070555537
 30
0.0
 10
69.23842340915768
 20
-31.99613821908187
 30
0.0
 10
69.34433974098516
 20
-32.07444725562716
 30
0.0
 10
69.44089528721983
 20
-32.16406976126552
 30
0.0
 10
69.52636819130223
 20
-32.26687114655151
 30
0.0
 10
69.60206691318777
 20
-32.38157034640187
 30
0.0
 10
69.66427920367188
 20
-32.510180384186
 30
0.0
 10
69.7146441765507
 20
-32.65112569662228
 30
0.0
 10
69.75602752424842
 20
-32.80407663948341
 30
0.0
 10
69.78256545414052
 20
-32.97080048185574
 30
0.0
 10
69.80144473305374
 20
-33.14959763431327
 30
0.0
 10
69.8027341435602
 20
-33.2733643260492
 30
0.0
 10
69.8033973228262
 20
-33.33702093763215
 30
0.0
  0
SPLINE
  5
E5
330
1F
100
AcDbEntity
  8
0
  6
Continuous
 62
     7
370
    25
100
AcDbSpline
210
0.0
220
0.0
230
1.0
 70
     8
 71
     3
 72
    15
 73
    11
 74
     0
 42
0.000000001
 43
0.00000001
 40
0.0
 40
0.0
 40
0.0
 40
0.0
 40
0.1257000604853576
 40
0.2459430424908672
 40
0.3633986562990213
 40
0.481887463050395
 40
0.6023765347623894
 40
0.7272668283285585
 40
0.8592379354332207
 40
1.0
 40
1.0
 40
1.0
 40
1.0
 10
71.91523025551852
 20
-43.84815838172268
 30
0.0
 10
71.85062725933602
 20
-43.84559150515234
 30
0.0
 10
71.72422590858251
 20
-43.84056918908524
 30
0.0
 10
71.54005864820328
 20
-43.80475435032488
 30
0.0
 10
71.36735656448778
 20
-43.7423704304199
 30
0.0
 10
71.20471299687955
 20
-43.65685175954151
 30
0.0
 10
71.05325009231406
 20
-43.54604626778288
 30
0.0
 10
70.91401037731663
 20
-43.41044107441211
 30
0.0
 10
70.78433798275152
 20
-43.25178677296735
 30
0.0
 10
70.71054010532792
 20
-43.13250705796311
 30
0.0
 10
70.6724518100057
 20
-43.07094484005601
 30
0.0
  0
SPLINE
  5
E6
330
1F
100
AcDbEntity
  8
0
  6
Continuous
 62
     7
370
    25
100
AcDbSpline
210
0.0
220
0.0
230
1.0
 70
     8
 71
     3
 72
    15
 73
    11
 74
     0
 42
0.000000001
 43
0.00000001
 40
0.0
 40
0.0
 40
0.0
 40
0.0
 40
0.1049703496517389
 40
0.2146398276404133
 40
0.3285607599507887
 40
0.4466648476790211
 40
0.573273911738075
 40
0.7065365026034098
 40
0.8485731287121384
 40
1.0
 40
1.0
 40
1.0
 40
1.0
 10
84.59213009526209
 20
-32.76333303699112
 30
0.0
 10
84.56761124124601
 20
-32.74352963646934
 30
0.0
 10
84.5174759162003
 20
-32.70303631155623
 30
0.0
 10
84.43117227410049
 20
-32.65493053869668
 30
0.0
 10
84.33865331587589
 20
-32.61080335810851
 30
0.0
 10
84.23647669183882
 20
-32.57660233666363
 30
0.0
 10
84.12616684765342
 20
-32.55033458395361
 30
0.0
 10
84.0071040298681
 20
-32.53138350809575
 30
0.0
 10
83.87959537983139
 20
-32.51984484340143
 30
0.0
 10
83.79162122545944
 20
-32.51851594351623
 30
0.0
 10
83.74622664974929
 20
-32.51783023250395
 30
0.0
  0
SPLINE
  5
E7
330
1F
100
AcDbEntity
  8
0
  6
Continuous
 62
     7
370
    25
100
AcDbSpline
210
0.0
220
0.0
230
1.0
 70
     8
 71
     3
 72
    15
 73
    11
 74
     0
 42
0.000000001
 43
0.00000001
 40
0.0
 40
0.0
 40
0.0
 40
0.0
 40
0.1496309535200392
 40
0.28828197392464
 40
0.415682384348473
 40
0.5340256197082257
 40
0.6478974760960479
 40
0.7625629189046175
 40
0.8796415697285567
 40
1.0
 40
1.0
 40
1.0
 40
1.0
 10
84.88342616898007
 20
-35.93706100173472
 30
0.0
 10
84.81207803914987
 20
-35.99317618998224
 30
0.0
 10
84.67461731181092
 20
-36.10128882880852
 30
0.0
 10
84.4646250544929
 20
-36.24122471874786
 30
0.0
 10
84.26167590743194
 20
-36.3564629136643
 30
0.0
 10
84.06171902705628
 20
-36.44457568649129
 30
0.0
 10
83.86103534605493
 20
-36.50879210389352
 30
0.0
 10
83.65630368854676
 20
-36.55459502104259
 30
0.0
 10
83.4443224149658
 20
-36.58374930029085
 30
0.0
 10
83.30026163129244
 20
-36.58679776569599
 30
0.0
 10
83.22723626513393
 20
-36.58834305301677
 30
0.0
  0
SPLINE
  5
E8
330
1F
100
AcDbEntity
  8
0
  6
Continuous
 62
     7
370
    25
100
AcDbSpline
210
0.0
220
0.0
230
1.0
 70
     8
 71
     3
 72
    23
 73
    19
 74
     0
 42
0.000000001
 43
0.00000001
 40
0.0
 40
0.0
 40
0.0
 40
0.0
 40
0.0698735162998742
 40
0.1383708820290633
 40
0.2067322146693841
 40
0.2770646561280096
 40
0.3475918732820797
 40
0.4179823400302232
 40
0.4907456693150409
 40
0.5672272266896239
 40
0.6080729413239261
 40
0.652844180630887
 40
0.7011525269561746
 40
0.7525563376302044
 40
0.8089156725594518
 40
0.8684868137539741
 40
0.9319883439885606
 40
1.0
 40
1.0
 40
1.0
 40
1.0
 10
65.52172664974928
 20
-25.95710823174748
 30
0.0
 10
65.46980039911399
 20
-25.95877955288069
 30
0.0
 10
65.36697057915711
 20
-25.96208927867669
 30
0.0
 10
65.21679776579947
 20
-25.99728047073561
 30
0.0
 10
65.07240331961037
 20
-26.05100575543873
 30
0.0
 10
64.9356924582924
 20
-26.12567517431897
 30
0.0
 10
64.80994380130286
 20
-26.2204828078525
 30
0.0
 10
64.70297106383174
 20
-26.33872821677973
 30
0.0
 10
64.61500599042247
 20
-26.47661318031535
 30
0.0
 10
64.55686988454248
 20
-26.60570093050888
 30
0.0
 10
64.52004154613805
 20
-26.72028671396172
 30
0.0
 10
64.49630485096789
 20
-26.81683693352205
 30
0.0
 10
64.47610791230204
 20
-26.92215981549201
 30
0.0
 10
64.4599265472838
 20
-27.03683409539341
 30
0.0
 10
64.4453680575244
 20
-27.16017315866184
 30
0.0
 10
64.4376770047467
 20
-27.29310847392215
 30
0.0
 10
64.43019648809509
 20
-27.43470712042033
 30
0.0
 10
64.43027816221783
 20
-27.53229961762487
 30
0.0
 10
64.43032039974928
 20
-27.58276928943978
 30
0.0
  0
SPLINE
  5
E9
330
1F
100
AcDbEntity
  8
0
  6
Continuous
 62
     7
370
    25
100
AcDbSpline
210
0.0
220
0.0
230
1.0
 70
     8
 71
     3
 72
    15
 73
    11
 74
     0
 42
0.000000001
 43
0.00000001
 40
0.0
 40
0.0
 40
0.0
 40
0.0
 40
0.1325440422566749
 40
0.2596085780212151
 40
0.3845776641744597
 40
0.508577364241254
 40
0.6326800636152085
 40
0.7544238012059896
 40
0.8761033848670212
 40
1.0
 40
1.0
 40
1.0
 40
1.0
 10
77.1424301753903
 20
-31.78513792481164
 30
0.0
 10
77.20918286089152
 20
-31.78755594768688
 30
0.0
 10
77.33992860749025
 20
-31.79229202989454
 30
0.0
 10
77.53049480907859
 20
-31.83037319428717
 30
0.0
 10
77.71018101600471
 20
-31.89206619482166
 30
0.0
 10
77.87561509781956
 20
-31.98212912699382
 30
0.0
 10
78.02936051352994
 20
-32.0877841562891
 30
0.0
 10
78.16703824048807
 20
-32.21178650272295
 30
0.0
 10
78.29308156811769
 20
-32.34781889782478
 30
0.0
 10
78.36192464592307
 20
-32.45067398456981
 30
0.0
 10
78.39665693821082
 20
-32.50256580942703
 30
0.0
  0
SPLINE
  5
EA
330
1F
100
AcDbEntity
  8
0
  6
Continuous
 62
     7
370
    25
100
AcDbSpline
210
0.0
220
0.0
230
1.0
 70
     8
 71
     3
 72
    11
 73
     7
 74
     0
 42
0.000000001
 43
0.00000001
 40
0.0
 40
0.0
 40
0.0
 40
0.0
 40
0.1714607416066631
 40
0.3944860454859543
 40
0.669994737624106
 40
1.0
 40
1.0
 40
1.0
 40
1.0
 10
68.97224948628775
 20
-40.06258145864576
 30
0.0
 10
68.97882467574115
 20
-40.10194008793144
 30
0.0
 10
68.99395245637183
 20
-40.19249393645192
 30
0.0
 10
69.0024104093507
 20
-40.34829885917399
 30
0.0
 10
69.01086378824003
 20
-40.5407652070404
 30
0.0
 10
69.01139374996096
 20
-40.68161925254332
 30
0.0
 10
69.01168257923645
 20
-40.75838474390216
 30
0.0
  0
SPLINE
  5
EB
330
1F
100
AcDbEntity
  8
0
  6
Continuous
 62
     7
370
    25
100
AcDbSpline
210
0.0
220
0.0
230
1.0
 70
     8
 71
     3
 72
    15
 73
    11
 74
     0
 42
0.000000001
 43
0.00000001
 40
0.0
 40
0.0
 40
0.0
 40
0.0
 40
0.1619610642351105
 40
0.312890090042978
 40
0.4540140652861536
 40
0.5843347598539969
 40
0.7037294930768501
 40
0.8126687828164957
 40
0.9110788799666389
 40
1.0
 40
1.0
 40
1.0
 40
1.0
 10
66.7703564574416
 20
-41.10310629838935
 30
0.0
 10
66.84372270188918
 20
-41.09345011850009
 30
0.0
 10
66.98545782162141
 20
-41.07479549302396
 30
0.0
 10
67.19092186499542
 20
-41.0461658652231
 30
0.0
 10
67.38129319289231
 20
-41.01436052608926
 30
0.0
 10
67.55670087871812
 20
-40.98090670459021
 30
0.0
 10
67.71744249768699
 20
-40.94887554197225
 30
0.0
 10
67.86236686615833
 20
-40.91291240466995
 30
0.0
 10
67.99281139454621
 20
-40.87655292703637
 30
0.0
 10
68.07387495041719
 20
-40.84903901359924
 30
0.0
 10
68.1123536529544
 20
-40.83597889454319
 30
0.0
  0
SPLINE
  5
EC
330
1F
100
AcDbEntity
  8
0
  6
Continuous
 62
     7
370
    25
100
AcDbSpline
210
0.0
220
0.0
230
1.0
 70
     8
 71
     3
 72
    19
 73
    15
 74
     0
 42
0.000000001
 43
0.00000001
 40
0.0
 40
0.0
 40
0.0
 40
0.0
 40
0.1364249452617784
 40
0.2529160181544773
 40
0.349371206444401
 40
0.427088741288505
 40
0.4942803049249901
 40
0.5612047814637943
 40
0.6285512538099505
 40
0.6994085365156167
 40
0.7712878959125817
 40
0.8443044513049341
 40
0.9199582073922743
 40
1.0
 40
1.0
 40
1.0
 40
1.0
 10
68.98929475872364
 20
-33.63722125814498
 30
0.0
 10
68.98811954354342
 20
-33.56556251676832
 30
0.0
 10
68.98594083096788
 20
-33.43271552533163
 30
0.0
 10
68.97551308413522
 20
-33.2492151153672
 30
0.0
 10
68.95119825030474
 20
-33.09829456902251
 30
0.0
 10
68.92055508604975
 20
-32.97481792748776
 30
0.0
 10
68.87484668041377
 20
-32.87275917871127
 30
0.0
 10
68.81628535651966
 20
-32.78389380928613
 30
0.0
 10
68.74033699496307
 20
-32.70663111687184
 30
0.0
 10
68.65192110300669
 20
-32.64001112546456
 30
0.0
 10
68.5524220463278
 20
-32.58480785880874
 30
0.0
 10
68.44309170557389
 20
-32.54503625381411
 30
0.0
 10
68.32456580701879
 20
-32.52195196798264
 30
0.0
 10
68.24271283501163
 20
-32.51922971845109
 30
0.0
 10
68.20063289974928
 20
-32.51783023250395
 30
0.0
  0
SPLINE
  5
ED
330
1F
100
AcDbEntity
  8
0
  6
Continuous
 62
     7
370
    25
100
AcDbSpline
210
0.0
220
0.0
230
1.0
 70
     8
 71
     3
 72
    11
 73
     7
 74
     0
 42
0.000000001
 43
0.00000001
 40
0.0
 40
0.0
 40
0.0
 40
0.0
 40
0.2027395082954185
 40
0.4375391642580462
 40
0.7045725240956743
 40
1.0
 40
1.0
 40
1.0
 40
1.0
 10
73.57376070423649
 20
-29.29492874456799
 30
0.0
 10
73.59538974447976
 20
-29.29464677022911
 30
0.0
 10
73.64206812636651
 20
-29.29403823162894
 30
0.0
 10
73.71713474599514
 20
-29.28986242184796
 30
0.0
 10
73.80196101657616
 20
-29.28359253361128
 30
0.0
 10
73.86167652298442
 20
-29.2776811049825
 30
0.0
 10
73.89304155359544
 20
-29.27457618046542
 30
0.0
  0
SPLINE
  5
EE
330
1F
100
AcDbEntity
  8
0
  6
Continuous
 62
     7
370
    25
100
AcDbSpline
210
0.0
220
0.0
230
1.0
 70
     8
 71
     3
 72
    19
 73
    15
 74
     0
 42
0.000000001
 43
0.00000001
 40
0.0
 40
0.0
 40
0.0
 40
0.0
 40
0.085104453018851
 40
0.1643314998230946
 40
0.2380773820525844
 40
0.3082779440134504
 40
0.3780989755694151
 40
0.4508414657082244
 40
0.5285405729277672
 40
0.6119430152696538
 40
0.7014543501110879
 40
0.7954789558948215
 40
0.8947745344629723
 40
0.9999999999999999
 40
0.9999999999999999
 40
0.9999999999999999
 40
0.9999999999999999
 10
81.7898364253903
 20
-33.16911228378599
 30
0.0
 10
81.80851614397395
 20
-33.09272218277606
 30
0.0
 10
81.84458553943134
 20
-32.94521756433006
 30
0.0
 10
81.92395041584192
 20
-32.73949128272082
 30
0.0
 10
82.02000843770368
 20
-32.55678922928435
 30
0.0
 10
82.13254839820347
 20
-32.39369457044646
 30
0.0
 10
82.27088006515582
 20
-32.25301868856501
 30
0.0
 10
82.43313505852562
 20
-32.12918714983555
 30
0.0
 10
82.623547731767
 20
-32.02594862812926
 30
0.0
 10
82.83812627915674
 20
-31.93835378439479
 30
0.0
 10
83.07518732681746
 20
-31.86929515546618
 30
0.0
 10
83.331991128927
 20
-31.82021053237589
 30
0.0
 10
83.60646966277862
 20
-31.79089372602574
 30
0.0
 10
83.79533833646752
 20
-31.78709325552058
 30
0.0
 10
83.89251070423646
 20
-31.78513792481164
 30
0.0
  0
SPLINE
  5
EF
330
1F
100
AcDbEntity
  8
0
  6
Continuous
 62
     7
370
    25
100
AcDbSpline
210
0.0
220
0.0
230
1.0
 70
     8
 71
     3
 72
    11
 73
     7
 74
     0
 42
0.000000001
 43
0.00000001
 40
0.0
 40
0.0
 40
0.0
 40
0.0
 40
0.1888117805854905
 40
0.4192996053475306
 40
0.6884945673211867
 40
1.0
 40
1.0
 40
1.0
 40
1.0
 10
82.78711206641596
 20
-33.96031821327318
 30
0.0
 10
82.82856001924056
 20
-33.94966563120107
 30
0.0
 10
82.92060464806569
 20
-33.9260091440639
 30
0.0
 10
83.07429857886922
 20
-33.89873587203837
 30
0.0
 10
83.25560959006148
 20
-33.86861193086443
 30
0.0
 10
83.38616740869736
 20
-33.85213154965601
 30
0.0
 10
83.45620261128775
 20
-33.84329096968343
 30
0.0
  0
SPLINE
  5
F0
330
1F
100
AcDbEntity
  8
0
  6
Continuous
 62
     7
370
    25
100
AcDbSpline
210
0.0
220
0.0
230
1.0
 70
     8
 71
     3
 72
    15
 73
    11
 74
     0
 42
0.000000001
 43
0.00000001
 40
0.0
 40
0.0
 40
0.0
 40
0.0
 40
0.1619610642351105
 40
0.312890090042978
 40
0.4540140652861536
 40
0.5843347598539969
 40
0.7037294930768501
 40
0.8126687828164957
 40
0.9110788799666389
 40
1.0
 40
1.0
 40
1.0
 40
1.0
 10
83.45620261128775
 20
-33.84329096968344
 30
0.0
 10
83.52956885573536
 20
-33.83363478979417
 30
0.0
 10
83.6713039754676
 20
-33.81498016431805
 30
0.0
 10
83.87676801884159
 20
-33.78635053651718
 30
0.0
 10
84.06713934673849
 20
-33.75454519738336
 30
0.0
 10
84.24254703256429
 20
-33.7210913758843
 30
0.0
 10
84.40328865153319
 20
-33.68906021326633
 30
0.0
 10
84.54821302000451
 20
-33.65309707596404
 30
0.0
 10
84.67865754839238
 20
-33.61673759833045
 30
0.0
 10
84.75972110426339
 20
-33.58922368489332
 30
0.0
 10
84.79819980680057
 20
-33.57616356583728
 30
0.0
  0
SPLINE
  5
F1
330
1F
100
AcDbEntity
  8
0
  6
Continuous
 62
     7
370
    25
100
AcDbSpline
210
0.0
220
0.0
230
1.0
 70
     8
 71
     3
 72
    15
 73
    11
 74
     0
 42
0.000000001
 43
0.00000001
 40
0.0
 40
0.0
 40
0.0
 40
0.0
 40
0.1496309535200392
 40
0.28828197392464
 40
0.415682384348473
 40
0.5340256197082257
 40
0.6478974760960479
 40
0.7625629189046175
 40
0.8796415697285567
 40
1.0
 40
1.0
 40
1.0
 40
1.0
 10
68.19758001513388
 20
-43.19687633044063
 30
0.0
 10
68.1262318853037
 20
-43.25299151868814
 30
0.0
 10
67.98877115796475
 20
-43.36110415751443
 30
0.0
 10
67.77877890064671
 20
-43.50104004745378
 30
0.0
 10
67.57582975358578
 20
-43.6162782423702
 30
0.0
 10
67.37587287321008
 20
-43.70439101519721
 30
0.0
 10
67.17518919220878
 20
-43.76860743259944
 30
0.0
 10
66.97045753470054
 20
-43.81441034974851
 30
0.0
 10
66.75847626111967
 20
-43.84356462899677
 30
0.0
 10
66.61441547744626
 20
-43.8466130944019
 30
0.0
 10
66.54139011128774
 20
-43.84815838172268
 30
0.0
  0
SPLINE
  5
F2
330
1F
100
AcDbEntity
  8
0
  6
Continuous
 62
     7
370
    25
100
AcDbSpline
210
0.0
220
0.0
230
1.0
 70
     8
 71
     3
 72
    15
 73
    11
 74
     0
 42
0.000000001
 43
0.00000001
 40
0.0
 40
0.0
 40
0.0
 40
0.0
 40
0.1049703496517389
 40
0.2146398276404133
 40
0.3285607599507887
 40
0.4466648476790211
 40
0.573273911738075
 40
0.7065365026034098
 40
0.8485731287121384
 40
1.0
 40
1.0
 40
1.0
 40
1.0
 10
67.90628394141594
 20
-40.02314836569704
 30
0.0
 10
67.88176508739984
 20
-40.00334496517525
 30
0.0
 10
67.83162976235413
 20
-39.96285164026214
 30
0.0
 10
67.74532612025428
 20
-39.91474586740259
 30
0.0
 10
67.6528071620297
 20
-39.87061868681442
 30
0.0
 10
67.55063053799265
 20
-39.83641766536954
 30
0.0
 10
67.44032069380727
 20
-39.81014991265953
 30
0.0
 10
67.32125787602195
 20
-39.79119883680166
 30
0.0
 10
67.1937492259852
 20
-39.77966017210734
 30
0.0
 10
67.10577507161328
 20
-39.77833127222215
 30
0.0
 10
67.0603804959031
 20
-39.77764556120986
 30
0.0
  0
SPLINE
  5
F3
330
1F
100
AcDbEntity
  8
0
  6
Continuous
 62
     7
370
    25
100
AcDbSpline
210
0.0
220
0.0
230
1.0
 70
     8
 71
     3
 72
    19
 73
    15
 74
     0
 42
0.000000001
 43
0.00000001
 40
0.0
 40
0.0
 40
0.0
 40
0.0
 40
0.0851827668127365
 40
0.1637016951596532
 40
0.2382837371174055
 40
0.3066129873470337
 40
0.3706460675668859
 40
0.4288211849073688
 40
0.484512022401745
 40
0.5356398443200491
 40
0.6372693692268099
 40
0.7452788635791542
 40
0.8653142197383725
 40
1.0
 40
1.0
 40
1.0
 40
1.0
 10
67.0603804959031
 20
-39.77764556120986
 30
0.0
 10
67.01796555349357
 20
-39.77807868729342
 30
0.0
 10
66.93645378494764
 20
-39.77891105605475
 30
0.0
 10
66.81802750847962
 20
-39.7868138816791
 30
0.0
 10
66.70841089261462
 20
-39.79898233497491
 30
0.0
 10
66.60685400701838
 20
-39.81682128841605
 30
0.0
 10
66.51467858495732
 20
-39.83950686692745
 30
0.0
 10
66.43014741035228
 20
-39.86621802479235
 30
0.0
 10
66.35443533955326
 20
-39.8985912478855
 30
0.0
 10
66.26443607006763
 20
-39.95059277667134
 30
0.0
 10
66.16316156889496
 20
-40.03393099651146
 30
0.0
 10
66.0640084294033
 20
-40.16590096335977
 30
0.0
 10
65.97697716787923
 20
-40.32518023804803
 30
0.0
 10
65.93845940309106
 20
-40.44629663359119
 30
0.0
 10
65.9180928356467
 20
-40.51033786890216
 30
0.0
  0
SPLINE
  5
F4
330
1F
100
AcDbEntity
  8
0
  6
Continuous
 62
     7
370
    25
100
AcDbSpline
210
0.0
220
0.0
230
1.0
 70
     8
 71
     3
 72
    23
 73
    19
 74
     0
 42
0.000000001
 43
0.00000001
 40
0.0
 40
0.0
 40
0.0
 40
0.0
 40
0.0770192486680558
 40
0.1495479024162737
 40
0.2187135099120817
 40
0.2849231121352797
 40
0.3481592766058941
 40
0.4097277041995573
 40
0.4698385380871194
 40
0.5294209545713838
 40
0.588276456634095
 40
0.6457897074994379
 40
0.7024689920772322
 40
0.7593896103244631
 40
0.8167479402414017
 40
0.8756208054666024
 40
0.936482090960317
 40
1.0
 40
1.0
 40
1.0
 40
1.0
 10
70.5128877074416
 20
-34.22617358186292
 30
0.0
 10
70.51439486612269
 20
-34.13197109877405
 30
0.0
 10
70.51732130884014
 20
-33.94905859323844
 30
0.0
 10
70.54576730140883
 20
-33.68273833352931
 30
0.0
 10
70.5928110960329
 20
-33.43268957032021
 30
0.0
 10
70.65664816800724
 20
-33.19800510979501
 30
0.0
 10
70.74123651273534
 20
-32.9798186564125
 30
0.0
 10
70.84444962740524
 20
-32.77820975465382
 30
0.0
 10
70.96564932014054
 20
-32.59208683258367
 30
0.0
 10
71.10600633648225
 20
-32.42417533106249
 30
0.0
 10
71.2613123257084
 20
-32.2748610458524
 30
0.0
 10
71.42663284078523
 20
-32.14208772362606
 30
0.0
 10
71.60543750195784
 20
-32.03251430889622
 30
0.0
 10
71.79407142386631
 20
-31.94153890862725
 30
0.0
 10
71.99435267183385
 20
-31.87164246620762
 30
0.0
 10
72.20504749031825
 20
-31.82016717487252
 30
0.0
 10
72.4277601591739
 20
-31.79112107880512
 30
0.0
 10
72.57986322635796
 20
-31.78716050751197
 30
0.0
 10
72.65753914974928
 20
-31.78513792481164
 30
0.0
  0
SPLINE
  5
F5
330
1F
100
AcDbEntity
  8
0
  6
Continuous
 62
     7
370
    25
100
AcDbSpline
210
0.0
220
0.0
230
1.0
 70
     8
 71
     3
 72
    23
 73
    19
 74
     0
 42
0.000000001
 43
0.00000001
 40
0.0
 40
0.0
 40
0.0
 40
0.0
 40
0.0585611614659568
 40
0.1150060130467063
 40
0.1697212884800861
 40
0.2235921357043514
 40
0.2768039995842367
 40
0.3307610590291462
 40
0.3849798294230236
 40
0.4410867972467162
 40
0.4982679656459608
 40
0.5575961644186551
 40
0.6201148054024272
 40
0.6857042391013396
 40
0.7568083997193521
 40
0.8319348943756383
 40
0.9128561250450171
 40
1.0
 40
1.0
 40
1.0
 40
1.0
 10
68.20063289974928
 20
-25.95710823174748
 30
0.0
 10
68.16240859830769
 20
-25.9580037884468
 30
0.0
 10
68.08734136261343
 20
-25.95976253781015
 30
0.0
 10
67.97764001145536
 20
-25.97602634056132
 30
0.0
 10
67.87230967955982
 20
-25.99914585537076
 30
0.0
 10
67.77301624275367
 20
-26.03569339303723
 30
0.0
 10
67.6778557433137
 20
-26.0804136906365
 30
0.0
 10
67.58739070221348
 20
-26.13476530817928
 30
0.0
 10
67.50291189352947
 20
-26.20100636481503
 30
0.0
 10
67.42272696399019
 20
-26.27542477108326
 30
0.0
 10
67.34910492330856
 20
-26.36106805564181
 30
0.0
 10
67.2865578568041
 20
-26.46018001448886
 30
0.0
 10
67.23523862627975
 20
-26.57139835877446
 30
0.0
 10
67.19129120017928
 20
-26.69386767164481
 30
0.0
 10
67.15765477943143
 20
-26.82809375649801
 30
0.0
 10
67.13350526023152
 20
-26.97442299942709
 30
0.0
 10
67.11987494010849
 20
-27.13263305460796
 30
0.0
 10
67.11788873411983
 20
-27.24226162970685
 30
0.0
 10
67.11685886128774
 20
-27.2991054272603
 30
0.0
  0
SPLINE
  5
F6
330
1F
100
AcDbEntity
  8
0
  6
Continuous
 62
     7
370
    25
100
AcDbSpline
210
0.0
220
0.0
230
1.0
 70
     8
 71
     3
 72
    19
 73
    15
 74
     0
 42
0.000000001
 43
0.00000001
 40
0.0
 40
0.0
 40
0.0
 40
0.0
 40
0.0900967267208088
 40
0.1772509756632297
 40
0.2626286458387952
 40
0.3477956973146738
 40
0.4319444412211251
 40
0.51333896033433
 40
0.593598768129418
 40
0.6729312755166925
 40
0.7531851158179738
 40
0.8336683852273186
 40
0.9161820128050487
 40
1.0
 40
1.0
 40
1.0
 40
1.0
 10
65.0225800151339
 20
-42.5366900323637
 30
0.0
 10
65.02409755991273
 20
-42.48143508582099
 30
0.0
 10
65.02708308782753
 20
-42.37272976941955
 30
0.0
 10
65.05646198190368
 20
-42.2139589921255
 30
0.0
 10
65.10172751294019
 20
-42.06231322455143
 30
0.0
 10
65.16730821459268
 20
-41.9202043244702
 30
0.0
 10
65.24687846844645
 20
-41.78844564976676
 30
0.0
 10
65.33938235484052
 20
-41.66923675507002
 30
0.0
 10
65.4421367942844
 20
-41.56263968490334
 30
0.0
 10
65.55844949192763
 20
-41.47214900074681
 30
0.0
 10
65.68324800682932
 20
-41.39401653269066
 30
0.0
 10
65.8152221654997
 20
-41.32445990693773
 30
0.0
 10
65.95495175409016
 20
-41.26595784252219
 30
0.0
 10
66.05224021688439
 20
-41.23548795632126
 30
0.0
 10
66.10126591256976
 20
-41.22013354197909
 30
0.0
  0
SPLINE
  5
F7
330
1F
100
AcDbEntity
  8
0
  6
Continuous
 62
     7
370
    25
100
AcDbSpline
210
0.0
220
0.0
230
1.0
 70
     8
 71
     3
 72
    19
 73
    15
 74
     0
 42
0.000000001
 43
0.00000001
 40
0.0
 40
0.0
 40
0.0
 40
0.0
 40
0.1364249452617766
 40
0.2529160181544781
 40
0.3493712064443997
 40
0.4270887412885019
 40
0.4942803049249913
 40
0.5612047814637918
 40
0.6285512538099484
 40
0.699408536515616
 40
0.7712878959125822
 40
0.8443044513049333
 40
0.9199582073922741
 40
1.0
 40
1.0
 40
1.0
 40
1.0
 10
68.98929475872364
 20
-27.0764992573885
 30
0.0
 10
68.98811954354342
 20
-27.00484051601185
 30
0.0
 10
68.98594083096788
 20
-26.87199352457515
 30
0.0
 10
68.97551308413522
 20
-26.68849311461073
 30
0.0
 10
68.9511982503048
 20
-26.53757256826606
 30
0.0
 10
68.92055508604972
 20
-26.41409592673129
 30
0.0
 10
68.8748466804138
 20
-26.3120371779548
 30
0.0
 10
68.81628535651966
 20
-26.22317180852966
 30
0.0
 10
68.7403369949631
 20
-26.14590911611539
 30
0.0
 10
68.65192110300669
 20
-26.07928912470809
 30
0.0
 10
68.5524220463278
 20
-26.02408585805227
 30
0.0
 10
68.44309170557389
 20
-25.98431425305764
 30
0.0
 10
68.32456580701881
 20
-25.96122996722617
 30
0.0
 10
68.24271283501163
 20
-25.95850771769461
 30
0.0
 10
68.20063289974928
 20
-25.95710823174748
 30
0.0
  0
SPLINE
  5
F8
330
1F
100
AcDbEntity
  8
0
  6
Continuous
 62
     7
370
    25
100
AcDbSpline
210
0.0
220
0.0
230
1.0
 70
     8
 71
     3
 72
    15
 73
    11
 74
     0
 42
0.000000001
 43
0.00000001
 40
0.0
 40
0.0
 40
0.0
 40
0.0
 40
0.1423153202033209
 40
0.2758893603343633
 40
0.4024548018034095
 40
0.5233628519927483
 40
0.6412279460412293
 40
0.7590240660699312
 40
0.8775424113033148
 40
1.0
 40
1.0
 40
1.0
 40
1.0
 10
66.98965533564672
 20
-26.08558379264491
 30
0.0
 10
67.03469499211056
 20
-26.01696988549632
 30
0.0
 10
67.12200788290643
 20
-25.8839564690474
 30
0.0
 10
67.27571704132379
 20
-25.70959306114807
 30
0.0
 10
67.43545937751885
 20
-25.55842016933811
 30
0.0
 10
67.60778800818346
 20
-25.43638048077223
 30
0.0
 10
67.79029094928433
 20
-25.34071678076719
 30
0.0
 10
67.98348692381128
 20
-25.27309739754395
 30
0.0
 10
68.18709405267212
 20
-25.23274499482571
 30
0.0
 10
68.32595889396528
 20
-25.22722237381597
 30
0.0
 10
68.39652632923645
 20
-25.22441592405517
 30
0.0
  0
SPLINE
  5
F9
330
1F
100
AcDbEntity
  8
0
  6
Continuous
 62
     7
370
    25
100
AcDbSpline
210
0.0
220
0.0
230
1.0
 70
     8
 71
     3
 72
    11
 73
     7
 74
     0
 42
0.000000001
 43
0.00000001
 40
0.0
 40
0.0
 40
0.0
 40
0.0
 40
0.1714607416066632
 40
0.3944860454859545
 40
0.6699947376241062
 40
1.0
 40
1.0
 40
1.0
 40
1.0
 10
85.65809564013391
 20
-32.80276612993984
 30
0.0
 10
85.66467082958731
 20
-32.84212475922553
 30
0.0
 10
85.67979861021799
 20
-32.93267860774601
 30
0.0
 10
85.6882565631969
 20
-33.08848353046808
 30
0.0
 10
85.69670994208623
 20
-33.28094987833449
 30
0.0
 10
85.69723990380712
 20
-33.42180392383741
 30
0.0
 10
85.69752873308262
 20
-33.49856941519625
 30
0.0
  0
SPLINE
  5
FA
330
1F
100
AcDbEntity
  8
0
  6
Continuous
 62
     7
370
    25
100
AcDbSpline
210
0.0
220
0.0
230
1.0
 70
     8
 71
     3
 72
    23
 73
    19
 74
     0
 42
0.000000001
 43
0.00000001
 40
0.0
 40
0.0
 40
0.0
 40
0.0
 40
0.0673510228838028
 40
0.1313136075111424
 40
0.1930714529961515
 40
0.2525019830750445
 40
0.3107047505741031
 40
0.3679301358078659
 40
0.4254606235585177
 40
0.4834247854969381
 40
0.5420438126713593
 40
0.6011296842101999
 40
0.6610197184695095
 40
0.7228533048760725
 40
0.787413701342367
 40
0.8544970481116891
 40
0.9253447936235359
 40
1.0
 40
1.0
 40
1.0
 40
1.0
 10
72.70078834846721
 20
-36.58834305301676
 30
0.0
 10
72.61885948191052
 20
-36.58641776191349
 30
0.0
 10
72.45912360016418
 20
-36.58266404133945
 30
0.0
 10
72.22584879944147
 20
-36.55255073141715
 30
0.0
 10
72.0055015427563
 20
-36.50491482692971
 30
0.0
 10
71.79760196092344
 20
-36.43742311738995
 30
0.0
 10
71.60348235760225
 20
-36.34946906108966
 30
0.0
 10
71.42264978036536
 20
-36.24129500610604
 30
0.0
 10
71.25397943200565
 20
-36.11540013762524
 30
0.0
 10
71.09989931175251
 20
-35.96956734836851
 30
0.0
 10
70.96049377665179
 20
-35.80703449773618
 30
0.0
 10
70.84143575103651
 20
-35.62631220897584
 30
0.0
 10
70.73817875954028
 20
-35.43173161191304
 30
0.0
 10
70.65605468911906
 20
-35.22013196471504
 30
0.0
 10
70.59114331921815
 20
-34.99363187618059
 30
0.0
 10
70.54610510203635
 20
-34.75126741900956
 30
0.0
 10
70.517289657409
 20
-34.49400016920557
 30
0.0
 10
70.51438040017608
 20
-34.31699306049938
 30
0.0
 10
70.5128877074416
 20
-34.22617358186292
 30
0.0
  0
SPLINE
  5
FB
330
1F
100
AcDbEntity
  8
0
  6
Continuous
 62
     7
370
    25
100
AcDbSpline
210
0.0
220
0.0
230
1.0
 70
     8
 71
     3
 72
    23
 73
    19
 74
     0
 42
0.000000001
 43
0.00000001
 40
0.0
 40
0.0
 40
0.0
 40
0.0
 40
0.0765455721216763
 40
0.1497537367217174
 40
0.2188821459239501
 40
0.2850992357786227
 40
0.3487657214459056
 40
0.4102328089334388
 40
0.4708571804914982
 40
0.5303866472297849
 40
0.5895376681109503
 40
0.646884044427284
 40
0.7042887151122111
 40
0.7613678447253154
 40
0.8184804485645133
 40
0.8769435490068925
 40
0.9372887989248874
 40
1.0
 40
1.0
 40
1.0
 40
1.0
 10
71.32699027154416
 20
-34.39026612993984
 30
0.0
 10
71.3317033038699
 20
-34.4475999369455
 30
0.0
 10
71.34092387904506
 20
-34.5597677815588
 30
0.0
 10
71.36781242375149
 20
-34.7221661300547
 30
0.0
 10
71.40409916435448
 20
-34.87478728039243
 30
0.0
 10
71.4529453948503
 20
-35.01628739024675
 30
0.0
 10
71.51064905749708
 20
-35.1482512192699
 30
0.0
 10
71.58196107257383
 20
-35.26850816093301
 30
0.0
 10
71.66140872026209
 20
-35.37972914419524
 30
0.0
 10
71.75269209014878
 20
-35.47920253395426
 30
0.0
 10
71.85120455161939
 20
-35.56768329653091
 30
0.0
 10
71.95662470215791
 20
-35.64530085928815
 30
0.0
 10
72.0687655899274
 20
-35.70967848866702
 30
0.0
 10
72.18600491524153
 20
-35.76379935588466
 30
0.0
 10
72.30943825409425
 20
-35.80452537686485
 30
0.0
 10
72.43850230060292
 20
-35.83367012172898
 30
0.0
 10
72.57391736995231
 20
-35.8519039813633
 30
0.0
 10
72.66638564201553
 20
-35.85438591764572
 30
0.0
 10
72.71350870103133
 20
-35.85565074532446
 30
0.0
  0
SPLINE
  5
FC
330
1F
100
AcDbEntity
  8
0
  6
Continuous
 62
     7
370
    25
100
AcDbSpline
210
0.0
220
0.0
230
1.0
 70
     8
 71
     3
 72
    23
 73
    19
 74
     0
 42
0.000000001
 43
0.00000001
 40
0.0
 40
0.0
 40
0.0
 40
0.0
 40
0.0786682929692161
 40
0.1525937767191653
 40
0.2228626577967849
 40
0.2898954155805922
 40
0.3540434730085116
 40
0.4158251014519003
 40
0.4762572346307641
 40
0.5356471748304316
 40
0.594030342173683
 40
0.6512128675007184
 40
0.7074640869910768
 40
0.7637209122634467
 40
0.820382679080521
 40
0.8786793608029685
 40
0.938164800342823
 40
1.0
 40
1.0
 40
1.0
 40
1.0
 10
66.54139011128774
 20
-43.84815838172268
 30
0.0
 10
66.48199509971548
 20
-43.84677361058502
 30
0.0
 10
66.36678592468436
 20
-43.84408755436323
 30
0.0
 10
66.19907339399606
 20
-43.82804316776931
 30
0.0
 10
66.04205037195518
 20
-43.79880200338815
 30
0.0
 10
65.89545245639847
 20
-43.75775566704717
 30
0.0
 10
65.7582472081652
 20
-43.70791500421487
 30
0.0
 10
65.63287471477322
 20
-43.64332337095949
 30
0.0
 10
65.5176231152084
 20
-43.56852466224826
 30
0.0
 10
65.41453843224707
 20
-43.48150928484136
 30
0.0
 10
65.32316445982686
 20
-43.38586019070917
 30
0.0
 10
65.24225492301485
 20
-43.28413114136328
 30
0.0
 10
65.17469575664903
 20
-43.17496611637169
 30
0.0
 10
65.11816082361557
 20
-43.06018099831275
 30
0.0
 10
65.07456852624041
 20
-42.93814818705756
 30
0.0
 10
65.04447518167709
 20
-42.80968988326577
 30
0.0
 10
65.02636536391124
 20
-42.67500875882496
 30
0.0
 10
65.0238579858439
 20
-42.58338778505652
 30
0.0
 10
65.0225800151339
 20
-42.5366900323637
 30
0.0
  0
SPLINE
  5
FD
330
1F
100
AcDbEntity
  8
0
  6
Continuous
 62
     7
370
    25
100
AcDbSpline
210
0.0
220
0.0
230
1.0
 70
     8
 71
     3
 72
    23
 73
    19
 74
     0
 42
0.000000001
 43
0.00000001
 40
0.0
 40
0.0
 40
0.0
 40
0.0
 40
0.0786682929692161
 40
0.1525937767191653
 40
0.2228626577967849
 40
0.2898954155805922
 40
0.3540434730085116
 40
0.4158251014519003
 40
0.4762572346307641
 40
0.5356471748304316
 40
0.594030342173683
 40
0.6512128675007184
 40
0.7074640869910768
 40
0.7637209122634467
 40
0.820382679080521
 40
0.8786793608029685
 40
0.938164800342823
 40
1.0
 40
1.0
 40
1.0
 40
1.0
 10
83.2272362651339
 20
-36.58834305301676
 30
0.0
 10
83.16784125356166
 20
-36.58695828187911
 30
0.0
 10
83.05263207853056
 20
-36.58427222565732
 30
0.0
 10
82.88491954784222
 20
-36.5682278390634
 30
0.0
 10
82.72789652580137
 20
-36.53898667468224
 30
0.0
 10
82.58129861024466
 20
-36.49794033834127
 30
0.0
 10
82.44409336201139
 20
-36.44809967550896
 30
0.0
 10
82.31872086861941
 20
-36.38350804225357
 30
0.0
 10
82.20346926905455
 20
-36.30870933354235
 30
0.0
 10
82.10038458609323
 20
-36.22169395613545
 30
0.0
 10
82.00901061367306
 20
-36.12604486200324
 30
0.0
 10
81.92810107686103
 20
-36.02431581265737
 30
0.0
 10
81.86054191049521
 20
-35.91515078766577
 30
0.0
 10
81.80400697746174
 20
-35.80036566960684
 30
0.0
 10
81.76041468008657
 20
-35.67833285835166
 30
0.0
 10
81.73032133552327
 20
-35.54987455455986
 30
0.0
 10
81.71221151775742
 20
-35.41519343011904
 30
0.0
 10
81.70970413969006
 20
-35.32357245635061
 30
0.0
 10
81.70842616898005
 20
-35.27687470365779
 30
0.0
  0
SPLINE
  5
FE
330
1F
100
AcDbEntity
  8
0
  6
Continuous
 62
     7
370
    25
100
AcDbSpline
210
0.0
220
0.0
230
1.0
 70
     8
 71
     3
 72
    19
 73
    15
 74
     0
 42
0.000000001
 43
0.00000001
 40
0.0
 40
0.0
 40
0.0
 40
0.0
 40
0.0900967267208088
 40
0.1772509756632297
 40
0.2626286458387952
 40
0.3477956973146738
 40
0.4319444412211251
 40
0.51333896033433
 40
0.593598768129418
 40
0.6729312755166925
 40
0.7531851158179738
 40
0.8336683852273186
 40
0.9161820128050487
 40
1.0
 40
1.0
 40
1.0
 40
1.0
 10
81.70842616898005
 20
-35.27687470365779
 30
0.0
 10
81.70994371375889
 20
-35.22161975711506
 30
0.0
 10
81.71292924167372
 20
-35.11291444071363
 30
0.0
 10
81.74230813574984
 20
-34.95414366341959
 30
0.0
 10
81.78757366678637
 20
-34.80249789584552
 30
0.0
 10
81.85315436843888
 20
-34.66038899576428
 30
0.0
 10
81.93272462229262
 20
-34.52863032106086
 30
0.0
 10
82.02522850868671
 20
-34.40942142636411
 30
0.0
 10
82.12798294813057
 20
-34.30282435619743
 30
0.0
 10
82.24429564577382
 20
-34.21233367204089
 30
0.0
 10
82.36909416067547
 20
-34.13420120398476
 30
0.0
 10
82.50106831934589
 20
-34.06464457823181
 30
0.0
 10
82.64079790793636
 20
-34.00614251381629
 30
0.0
 10
82.73808637073057
 20
-33.97567262761535
 30
0.0
 10
82.78711206641596
 20
-33.96031821327318
 30
0.0
  0
SPLINE
  5
FF
330
1F
100
AcDbEntity
  8
0
  6
Continuous
 62
     7
370
    25
100
AcDbSpline
210
0.0
220
0.0
230
1.0
 70
     8
 71
     3
 72
    19
 73
    15
 74
     0
 42
0.000000001
 43
0.00000001
 40
0.0
 40
0.0
 40
0.0
 40
0.0
 40
0.0851827668127365
 40
0.1637016951596625
 40
0.2382837371174056
 40
0.3066129873470337
 40
0.370646067566886
 40
0.4288211849073689
 40
0.4845120224017451
 40
0.5356398443200491
 40
0.6372693692268099
 40
0.7452788635791542
 40
0.8653142197383725
 40
1.0
 40
1.0
 40
1.0
 40
1.0
 10
83.74622664974929
 20
-32.51783023250395
 30
0.0
 10
83.70381170733975
 20
-32.51826335858752
 30
0.0
 10
83.62229993879383
 20
-32.51909572734884
 30
0.0
 10
83.50387366232573
 20
-32.52699855297317
 30
0.0
 10
83.39425704646084
 20
-32.53916700626901
 30
0.0
 10
83.29270016086451
 20
-32.55700595971012
 30
0.0
 10
83.20052473880354
 20
-32.57969153822155
 30
0.0
 10
83.1159935641984
 20
-32.60640269608643
 30
0.0
 10
83.04028149339948
 20
-32.63877591917959
 30
0.0
 10
82.95028222391373
 20
-32.6907774479654
 30
0.0
 10
82.84900772274118
 20
-32.77411566780555
 30
0.0
 10
82.74985458324946
 20
-32.90608563465385
 30
0.0
 10
82.66282332172543
 20
-33.06536490934213
 30
0.0
 10
82.62430555693726
 20
-33.18648130488528
 30
0.0
 10
82.60393898949286
 20
-33.25052254019625
 30
0.0
  0
SPLINE
  5
100
330
1F
100
AcDbEntity
  8
0
  6
Continuous
 62
     7
370
    25
100
AcDbSpline
210
0.0
220
0.0
230
1.0
 70
     8
 71
     3
 72
    23
 73
    19
 74
     0
 42
0.000000001
 43
0.00000001
 40
0.0
 40
0.0
 40
0.0
 40
0.0
 40
0.0684926851390414
 40
0.1336448985184782
 40
0.1953466000273896
 40
0.2542475050093691
 40
0.3113035050924225
 40
0.3666490750652278
 40
0.4212985754017492
 40
0.4757287284935633
 40
0.5310920965139099
 40
0.5881875510057484
 40
0.6472697780619274
 40
0.7093693758273897
 40
0.7752605143705031
 40
0.8452130337113043
 40
0.9203888085482171
 40
1.0
 40
1.0
 40
1.0
 40
1.0
 10
68.39652632923645
 20
-25.22441592405517
 30
0.0
 10
68.45127702793962
 20
-25.22566039528484
 30
0.0
 10
68.55810816701887
 20
-25.22808864336508
 30
0.0
 10
68.71337363147626
 20
-25.24625606621381
 30
0.0
 10
68.8593000922331
 20
-25.27467614969324
 30
0.0
 10
68.99503274562798
 20
-25.31725970685606
 30
0.0
 10
69.12140135467502
 20
-25.37043870479891
 30
0.0
 10
69.23842340915768
 20
-25.4354162183254
 30
0.0
 10
69.34433974098513
 20
-25.51372525487068
 30
0.0
 10
69.44089528721986
 20
-25.60334776050906
 30
0.0
 10
69.5263681913022
 20
-25.70614914579504
 30
0.0
 10
69.60206691318777
 20
-25.82084834564539
 30
0.0
 10
69.66427920367188
 20
-25.94945838342954
 30
0.0
 10
69.71464417655068
 20
-26.0904036958658
 30
0.0
 10
69.75602752424842
 20
-26.24335463872696
 30
0.0
 10
69.78256545414052
 20
-26.41007848109926
 30
0.0
 10
69.80144473305374
 20
-26.58887563355681
 30
0.0
 10
69.8027341435602
 20
-26.71264232529273
 30
0.0
 10
69.8033973228262
 20
-26.77629893687568
 30
0.0
  0
SPLINE
  5
101
330
1F
100
AcDbEntity
  8
0
  6
Continuous
 62
     7
370
    25
100
AcDbSpline
210
0.0
220
0.0
230
1.0
 70
     8
 71
     3
 72
    23
 73
    19
 74
     0
 42
0.000000001
 43
0.00000001
 40
0.0
 40
0.0
 40
0.0
 40
0.0
 40
0.0815457429155466
 40
0.1590791459377822
 40
0.2322734213360543
 40
0.3019508242635131
 40
0.3686462021915808
 40
0.4324855514133103
 40
0.4951140005823356
 40
0.5564980518852111
 40
0.6164458176966494
 40
0.6737329210679252
 40
0.7289021007664481
 40
0.7828786043876498
 40
0.8364928659668791
 40
0.8901866150049991
 40
0.9444999979041683
 40
1.0
 40
1.0
 40
1.0
 40
1.0
 10
73.84745181000571
 20
-41.37786591377397
 30
0.0
 10
73.84582305772736
 20
-41.47333265570106
 30
0.0
 10
73.84264569356195
 20
-41.65956883711588
 30
0.0
 10
73.81567996821644
 20
-41.9304260822603
 30
0.0
 10
73.77162643648519
 20
-42.18485361658463
 30
0.0
 10
73.70956425290845
 20
-42.42251713090789
 30
0.0
 10
73.62947950899928
 20
-42.64311519493585
 30
0.0
 10
73.53242342815389
 20
-42.84773308628149
 30
0.0
 10
73.4167937338349
 20
-43.03536239940991
 30
0.0
 10
73.2825509534043
 20
-43.20427607162799
 30
0.0
 10
73.13695958182376
 20
-43.35472078893969
 30
0.0
 10
72.98393199447919
 20
-43.48669684978411
 30
0.0
 10
72.82406649024983
 20
-43.59876178142264
 30
0.0
 10
72.65604681111331
 20
-43.68927113904174
 30
0.0
 10
72.48127060120615
 20
-43.76190979711809
 30
0.0
 10
72.29802735656585
 20
-43.81038439544778
 30
0.0
 10
72.10886655111801
 20
-43.84260825534793
 30
0.0
 10
71.98023899437945
 20
-43.8462950599987
 30
0.0
 10
71.91523025551852
 20
-43.84815838172268
 30
0.0
  0
SPLINE
  5
102
330
1F
100
AcDbEntity
  8
0
  6
Continuous
 62
     7
370
    25
100
AcDbSpline
210
0.0
220
0.0
230
1.0
 70
     8
 71
     3
 72
    23
 73
    19
 74
     0
 42
0.000000001
 43
0.00000001
 40
0.0
 40
0.0
 40
0.0
 40
0.0
 40
0.0628327012163923
 40
0.1229654286939641
 40
0.1816288039489563
 40
0.2388323520060566
 40
0.2952935041873493
 40
0.3521674350071304
 40
0.40949067311895
 40
0.4684235402869522
 40
0.5283583088828304
 40
0.5885537443107105
 40
0.6502482991009652
 40
0.713670673668288
 40
0.7802618417620748
 40
0.8495363583234038
 40
0.9226519106314431
 40
0.9999999999999999
 40
0.9999999999999999
 40
0.9999999999999999
 40
0.9999999999999999
 10
72.65753914974928
 20
-31.78513792481164
 30
0.0
 10
72.73269355763212
 20
-31.78707053208327
 30
0.0
 10
72.87977292561484
 20
-31.79085270087522
 30
0.0
 10
73.09524916895485
 20
-31.82120876310151
 30
0.0
 10
73.30057197488149
 20
-31.86864523035679
 30
0.0
 10
73.49531026929917
 20
-31.93754410537305
 30
0.0
 10
73.67848395050486
 20
-32.02798535729474
 30
0.0
 10
73.85207130220078
 20
-32.13592907651567
 30
0.0
 10
74.0148597045792
 20
-32.26449934166553
 30
0.0
 10
74.16580512125995
 20
-32.41194428673461
 30
0.0
 10
74.30333886357144
 20
-32.576608445234
 30
0.0
 10
74.42230761523533
 20
-32.75913041664143
 30
0.0
 10
74.52304455198849
 20
-32.95694366188799
 30
0.0
 10
74.6047069148924
 20
-33.1715604873471
 30
0.0
 10
74.66756760269388
 20
-33.40174387665716
 30
0.0
 10
74.71310849941828
 20
-33.6476445322562
 30
0.0
 10
74.74182874426114
 20
-33.90917884747235
 30
0.0
 10
74.74472974029744
 20
-34.08914041022817
 30
0.0
 10
74.74622104077494
 20
-34.18165234788857
 30
0.0
  0
SPLINE
  5
103
330
1F
100
AcDbEntity
  8
0
  6
Continuous
 62
     7
370
    25
100
AcDbSpline
210
0.0
220
0.0
230
1.0
 70
     8
 71
     3
 72
    27
 73
    23
 74
     0
 42
0.000000001
 43
0.00000001
 40
0.0
 40
0.0
 40
0.0
 40
0.0
 40
0.0971286236501869
 40
0.1902369814696202
 40
0.2803878713282284
 40
0.3686200266084674
 40
0.4117287700943238
 40
0.4536568805886893
 40
0.4942587993832112
 40
0.5339604912591257
 40
0.5733134961187571
 40
0.6123025686318005
 40
0.6511788428796224
 40
0.6901505830635087
 40
0.7292365745853185
 40
0.7677075490226305
 40
0.8055981167306661
 40
0.8439582919989514
 40
0.8822955640903096
 40
0.9207313987920837
 40
0.9599054472147939
 40
1.0
 40
1.0
 40
1.0
 40
1.0
 10
75.22165693821081
 20
-34.19055659468343
 30
0.0
 10
75.2240616272261
 20
-34.07845995541514
 30
0.0
 10
75.22877147240307
 20
-33.85890648615059
 30
0.0
 10
75.27403822289969
 20
-33.53798157727705
 30
0.0
 10
75.34302229526254
 20
-33.23218590449466
 30
0.0
 10
75.42531396194462
 20
-32.98959767746445
 30
0.0
 10
75.50722990655059
 20
-32.80717324883042
 30
0.0
 10
75.57438241756756
 20
-32.6786442438124
 30
0.0
 10
75.64811207024677
 20
-32.55830110826139
 30
0.0
 10
75.73006760888751
 20
-32.44702486237846
 30
0.0
 10
75.81942400906391
 20
-32.3441617646228
 30
0.0
 10
75.91459554969529
 20
-32.24788126803132
 30
0.0
 10
76.01844083606085
 20
-32.16174178659716
 30
0.0
 10
76.12759463233931
 20
-32.08227806858801
 30
0.0
 10
76.24313814545455
 20
-32.01333384621705
 30
0.0
 10
76.3612745642671
 20
-31.9516772996838
 30
0.0
 10
76.4834276372923
 20
-31.90034802070162
 30
0.0
 10
76.60901866760761
 20
-31.85885872624195
 30
0.0
 10
76.7376295073861
 20
-31.82519871517865
 30
0.0
 10
76.86959366341969
 20
-31.8027328891328
 30
0.0
 10
77.00472730032214
 20
-31.78822815556545
 30
0.0
 10
77.09617523818066
 20
-31.78617594547322
 30
0.0
 10
77.1424301753903
 20
-31.78513792481164
 30
0.0
  0
SPLINE
  5
104
330
1F
100
AcDbEntity
  8
0
  6
Continuous
 62
     7
370
    25
100
AcDbSpline
210
0.0
220
0.0
230
1.0
 70
     8
 71
     3
 72
     9
 73
     5
 74
     0
 42
0.000000001
 43
0.00000001
 40
0.0
 40
0.0
 40
0.0
 40
0.0
 40
0.4146077280383717
 40
1.0
 40
1.0
 40
1.0
 40
1.0
 10
74.74622104077494
 20
-34.18165234788857
 30
0.0
 10
74.74583364016723
 20
-34.21048579759344
 30
0.0
 10
74.74489926152087
 20
-34.28002972491312
 30
0.0
 10
74.74332594332114
 20
-34.34956229863402
 30
0.0
 10
74.7424049350057
 20
-34.39026612993984
 30
0.0
  0
SPLINE
  5
105
330
1F
100
AcDbEntity
  8
0
  6
Continuous
 62
     7
370
    25
100
AcDbSpline
210
0.0
220
0.0
230
1.0
 70
     8
 71
     3
 72
    23
 73
    19
 74
     0
 42
0.000000001
 43
0.00000001
 40
0.0
 40
0.0
 40
0.0
 40
0.0
 40
0.0698735162998743
 40
0.1383708820290631
 40
0.2067322146693839
 40
0.2770646561280087
 40
0.3475918732820806
 40
0.417982340030223
 40
0.4907456693150406
 40
0.5672272266896222
 40
0.608072941323926
 40
0.6528441806308869
 40
0.701152526956176
 40
0.7525563376302027
 40
0.8089156725594502
 40
0.8684868137539724
 40
0.931988343988559
 40
1.0
 40
1.0
 40
1.0
 40
1.0
 10
65.52172664974928
 20
-32.51783023250395
 30
0.0
 10
65.46980039911396
 20
-32.51950155363715
 30
0.0
 10
65.36697057915711
 20
-32.52281127943317
 30
0.0
 10
65.2167977657995
 20
-32.55800247149208
 30
0.0
 10
65.07240331961037
 20
-32.61172775619519
 30
0.0
 10
64.9356924582924
 20
-32.68639717507544
 30
0.0
 10
64.80994380130286
 20
-32.78120480860898
 30
0.0
 10
64.70297106383177
 20
-32.8994502175362
 30
0.0
 10
64.61500599042247
 20
-33.03733518107184
 30
0.0
 10
64.55686988454245
 20
-33.16642293126533
 30
0.0
 10
64.52004154613807
 20
-33.2810087147182
 30
0.0
 10
64.49630485096789
 20
-33.37755893427852
 30
0.0
 10
64.47610791230204
 20
-33.48288181624848
 30
0.0
 10
64.4599265472838
 20
-33.59755609614987
 30
0.0
 10
64.4453680575244
 20
-33.7208951594183
 30
0.0
 10
64.43767700474667
 20
-33.85383047467862
 30
0.0
 10
64.43019648809509
 20
-33.9954291211768
 30
0.0
 10
64.43027816221783
 20
-34.09302161838132
 30
0.0
 10
64.43032039974928
 20
-34.14349129019625
 30
0.0
  0
SPLINE
  5
106
330
1F
100
AcDbEntity
  8
0
  6
Continuous
 62
     7
370
    25
100
AcDbSpline
210
0.0
220
0.0
230
1.0
 70
     8
 71
     3
 72
    23
 73
    19
 74
     0
 42
0.000000001
 43
0.00000001
 40
0.0
 40
0.0
 40
0.0
 40
0.0
 40
0.084109515142198
 40
0.1624256296947323
 40
0.2368218560929546
 40
0.3059866465664424
 40
0.3701078016338663
 40
0.4306679461857585
 40
0.4878512204212725
 40
0.542607321549775
 40
0.5956767428670663
 40
0.6472830623447317
 40
0.6996541713763461
 40
0.7533785827348186
 40
0.8098296631517234
 40
0.8689377279335719
 40
0.9321626864520849
 40
1.0
 40
1.0
 40
1.0
 40
1.0
 10
66.30275629718518
 20
-33.54690675493984
 30
0.0
 10
66.30244887473546
 20
-33.50533051585062
 30
0.0
 10
66.30185520486481
 20
-33.42504177797134
 30
0.0
 10
66.29217132797102
 20
-33.30835478567503
 30
0.0
 10
66.27921457688294
 20
-33.19941097580419
 30
0.0
 10
66.25850288517624
 20
-33.09880942764633
 30
0.0
 10
66.23357095776397
 20
-33.00620627996813
 30
0.0
 10
66.20140772016086
 20
-32.92216492473401
 30
0.0
 10
66.16486947774212
 20
-32.84500407829962
 30
0.0
 10
66.12131517525994
 20
-32.77585364582474
 30
0.0
 10
66.07185511637783
 20
-32.71423838702916
 30
0.0
 10
66.01480340416217
 20
-32.66126569757679
 30
0.0
 10
65.9508830048378
 20
-32.61619063261747
 30
0.0
 10
65.87852886810572
 20
-32.58069390104389
 30
0.0
 10
65.79946663027012
 20
-32.5528674202631
 30
0.0
 10
65.71334040824739
 20
-32.53265352373843
 30
0.0
 10
65.62008006320433
 20
-32.51946037877216
 30
0.0
 10
65.555271371959
 20
-32.5183862152788
 30
0.0
 10
65.52172664974928
 20
-32.51783023250395
 30
0.0
  0
SPLINE
  5
107
330
1F
100
AcDbEntity
  8
0
  6
Continuous
 62
     7
370
    25
100
AcDbSpline
210
0.0
220
0.0
230
1.0
 70
     8
 71
     3
 72
    19
 73
    15
 74
     0
 42
0.000000001
 43
0.00000001
 40
0.0
 40
0.0
 40
0.0
 40
0.0
 40
0.1217293659998128
 40
0.2322798102196403
 40
0.3322878453389926
 40
0.4211537130402118
 40
0.5000894513783434
 40
0.5678874862432379
 40
0.6252406305038766
 40
0.6715377354662713
 40
0.7536399089500625
 40
0.8352921912177418
 40
0.9173896665713774
 40
1.0
 40
1.0
 40
1.0
 40
1.0
 10
69.01168257923645
 20
-41.75184427915858
 30
0.0
 10
69.01215065047661
 20
-41.83495038335248
 30
0.0
 10
69.01304380799813
 20
-41.99353060720975
 30
0.0
 10
69.0136330271025
 20
-42.22039063422207
 30
0.0
 10
69.01712984681186
 20
-42.42480013123114
 30
0.0
 10
69.02421632250599
 20
-42.60750837192476
 30
0.0
 10
69.03006927524521
 20
-42.76824774244879
 30
0.0
 10
69.03714420978827
 20
-42.90742078116924
 30
0.0
 10
69.0472376787233
 20
-43.02406130177334
 30
0.0
 10
69.06217116525585
 20
-43.15001623070249
 30
0.0
 10
69.08820955045711
 20
-43.29125016822451
 30
0.0
 10
69.13232373412617
 20
-43.4532961129648
 30
0.0
 10
69.18593275667124
 20
-43.61297070384458
 30
0.0
 10
69.23253811214155
 20
-43.71538268989514
 30
0.0
 10
69.2559133484672
 20
-43.76674812531242
 30
0.0
  0
SPLINE
  5
108
330
1F
100
AcDbEntity
  8
0
  6
Continuous
 62
     7
370
    25
100
AcDbSpline
210
0.0
220
0.0
230
1.0
 70
     8
 71
     3
 72
    27
 73
    23
 74
     0
 42
0.000000001
 43
0.00000001
 40
0.0
 40
0.0
 40
0.0
 40
0.0
 40
0.0385266484761198
 40
0.0765034125805574
 40
0.1141158001552218
 40
0.1517445785544452
 40
0.1893223397989317
 40
0.2269456553833891
 40
0.2653583194426146
 40
0.3042830450239595
 40
0.3435285625368877
 40
0.382635918890016
 40
0.421902380378916
 40
0.4612525062982302
 40
0.5013819182832119
 40
0.5422439231745013
 40
0.5840261534890873
 40
0.6269041628322984
 40
0.7147690440001484
 40
0.80535983697763
 40
0.9003239353442873
 40
1.0
 40
1.0
 40
1.0
 40
1.0
 10
77.14624628115955
 20
-36.58834305301676
 30
0.0
 10
77.10210682765758
 20
-36.58730834970635
 30
0.0
 10
77.01445791564713
 20
-36.58525371123179
 30
0.0
 10
76.88446218364025
 20
-36.57051941409983
 30
0.0
 10
76.75643819141825
 20
-36.54872198576472
 30
0.0
 10
76.6321461678163
 20
-36.5128450685201
 30
0.0
 10
76.50936475977207
 20
-36.47212294261919
 30
0.0
 10
76.39065739760869
 20
-36.41843835890609
 30
0.0
 10
76.27330449689765
 20
-36.35842983226707
 30
0.0
 10
76.16086389834021
 20
-36.28618160926113
 30
0.0
 10
76.05088573944147
 20
-36.20877276062791
 30
0.0
 10
75.94980036936374
 20
-36.11947600808295
 30
0.0
 10
75.85222083338248
 20
-36.02627047195523
 30
0.0
 10
75.76328952578149
 20
-35.92314180528995
 30
0.0
 10
75.67898724241626
 20
-35.81399476032527
 30
0.0
 10
75.60138640803912
 20
-35.69655588416498
 30
0.0
 10
75.53012172440945
 20
-35.57158098899748
 30
0.0
 10
75.44296170511491
 20
-35.39407616929269
 30
0.0
 10
75.35429005892676
 20
-35.15586650236646
 30
0.0
 10
75.27588882544833
 20
-34.85213887859951
 30
0.0
 10
75.23003399846328
 20
-34.52777167057697
 30
0.0
 10
75.22449399686008
 20
-34.30476121049011
 30
0.0
 10
75.22165693821081
 20
-34.19055659468343
 30
0.0
  0
SPLINE
  5
109
330
1F
100
AcDbEntity
  8
0
  6
Continuous
 62
     7
370
    25
100
AcDbSpline
210
0.0
220
0.0
230
1.0
 70
     8
 71
     3
 72
    19
 73
    15
 74
     0
 42
0.000000001
 43
0.00000001
 40
0.0
 40
0.0
 40
0.0
 40
0.0
 40
0.1217293659998129
 40
0.2322798102196404
 40
0.3322878453389927
 40
0.4211537130402119
 40
0.5000894513783434
 40
0.5678874862432379
 40
0.6252406305038766
 40
0.6715377354662713
 40
0.7536399089500625
 40
0.8352921912177418
 40
0.9173896665713774
 40
1.0
 40
1.0
 40
1.0
 40
1.0
 10
85.69752873308262
 20
-34.49202895045266
 30
0.0
 10
85.69799680432277
 20
-34.57513505464657
 30
0.0
 10
85.69888996184433
 20
-34.73371527850382
 30
0.0
 10
85.69947918094867
 20
-34.96057530551617
 30
0.0
 10
85.70297600065804
 20
-35.16498480252523
 30
0.0
 10
85.71006247635218
 20
-35.34769304321887
 30
0.0
 10
85.71591542909141
 20
-35.50843241374287
 30
0.0
 10
85.72299036363442
 20
-35.64760545246333
 30
0.0
 10
85.73308383256948
 20
-35.76424597306742
 30
0.0
 10
85.74801731910203
 20
-35.89020090199657
 30
0.0
 10
85.7740557043033
 20
-36.0314348395186
 30
0.0
 10
85.81816988797236
 20
-36.19348078425889
 30
0.0
 10
85.87177891051742
 20
-36.35315537513865
 30
0.0
 10
85.91838426598774
 20
-36.45556736118923
 30
0.0
 10
85.94175950231339
 20
-36.50693279660651
 30
0.0
  0
SPLINE
  5
10A
330
1F
100
AcDbEntity
  8
0
  6
Continuous
 62
     7
370
    25
100
AcDbSpline
210
0.0
220
0.0
230
1.0
 70
     8
 71
     3
 72
    23
 73
    19
 74
     0
 42
0.000000001
 43
0.00000001
 40
0.0
 40
0.0
 40
0.0
 40
0.0
 40
0.0635748979767535
 40
0.1250642597775944
 40
0.1849336484558772
 40
0.244032893673602
 40
0.302280729427489
 40
0.3603762054010033
 40
0.4187937394674626
 40
0.477623596136856
 40
0.5373852229070678
 40
0.5974753024433825
 40
0.6592224510758339
 40
0.7221933847447825
 40
0.7877173144012649
 40
0.8557136680026795
 40
0.9260858329442817
 40
1.0
 40
1.0
 40
1.0
 40
1.0
 10
74.72078033564672
 20
-35.20436869404241
 30
0.0
 10
74.70442706963223
 20
-35.2581665647287
 30
0.0
 10
74.67225699662963
 20
-35.36399749940754
 30
0.0
 10
74.60698374772332
 20
-35.5140977703619
 30
0.0
 10
74.53525726293081
 20
-35.65670014955012
 30
0.0
 10
74.45051388106059
 20
-35.7886971720836
 30
0.0
 10
74.35752979847912
 20
-35.91289813378983
 30
0.0
 10
74.25446267411611
 20
-36.0283123589544
 30
0.0
 10
74.13905959012979
 20
-36.13202776976263
 30
0.0
 10
74.01561011001651
 20
-36.22837562053995
 30
0.0
 10
73.88206017713972
 20
-36.31304914577044
 30
0.0
 10
73.73981759174372
 20
-36.38780577603312
 30
0.0
 10
73.58836151211906
 20
-36.44950231446767
 30
0.0
 10
73.428124197441
 20
-36.50089898300149
 30
0.0
 10
73.2587393753854
 20
-36.54009898315918
 30
0.0
 10
73.08052130011689
 20
-36.5671801321999
 30
0.0
 10
72.89370510932389
 20
-36.58636609258905
 30
0.0
 10
72.76613779428281
 20
-36.58767336901535
 30
0.0
 10
72.70078834846721
 20
-36.58834305301676
 30
0.0
  0
SPLINE
  5
10B
330
1F
100
AcDbEntity
  8
0
  6
Continuous
 62
     7
370
    25
100
AcDbSpline
210
0.0
220
0.0
230
1.0
 70
     8
 71
     3
 72
    23
 73
    19
 74
     0
 42
0.000000001
 43
0.00000001
 40
0.0
 40
0.0
 40
0.0
 40
0.0
 40
0.0610885324198126
 40
0.1210274171309681
 40
0.180778992369383
 40
0.2411151401471154
 40
0.3007223210615889
 40
0.358655799417194
 40
0.4156677051721768
 40
0.4732080312189255
 40
0.5317801362817501
 40
0.5921383420498406
 40
0.6549648716341497
 40
0.7209110321600992
 40
0.7887394277223652
 40
0.8573095209865952
 40
0.9277076371715962
 40
1.0
 40
1.0
 40
1.0
 40
1.0
 10
71.91904636128774
 20
-39.04495325351755
 30
0.0
 10
71.98830936535772
 20
-39.04662094322727
 30
0.0
 10
72.12553188738055
 20
-39.04992493777664
 30
0.0
 10
72.32787928181116
 20
-39.08519014368339
 30
0.0
 10
72.52507067673477
 20
-39.13815611229093
 30
0.0
 10
72.71484364263355
 20
-39.21304823854345
 30
0.0
 10
72.89364139001684
 20
-39.30667467114046
 30
0.0
 10
73.05813535871941
 20
-39.41733587390888
 30
0.0
 10
73.20438969996748
 20
-39.54769037050645
 30
0.0
 10
73.33481092731628
 20
-39.69475866192735
 30
0.0
 10
73.44901241697913
 20
-39.85923269884179
 30
0.0
 10
73.5517150358229
 20
-40.03800803247216
 30
0.0
 10
73.63895909840373
 20
-40.23401634966186
 30
0.0
 10
73.71362631370192
 20
-40.44404488519976
 30
0.0
 10
73.77280142576636
 20
-40.66572332897161
 30
0.0
 10
73.81656018221044
 20
-40.89605215695727
 30
0.0
 10
73.84211617554695
 20
-41.13432757995152
 30
0.0
 10
73.84565759415615
 20
-41.29597118468544
 30
0.0
 10
73.84745181000568
 20
-41.37786591377396
 30
0.0
  0
SPLINE
  5
10C
330
1F
100
AcDbEntity
  8
0
  6
Continuous
 62
     7
370
    25
100
AcDbSpline
210
0.0
220
0.0
230
1.0
 70
     8
 71
     3
 72
    15
 73
    11
 74
     0
 42
0.000000001
 43
0.00000001
 40
0.0
 40
0.0
 40
0.0
 40
0.0
 40
0.1396143826259424
 40
0.2713505314704638
 40
0.3968733207624538
 40
0.518321352192357
 40
0.6373492886183211
 40
0.7553891711776763
 40
0.875625728094466
 40
0.9999999999999999
 40
0.9999999999999999
 40
0.9999999999999999
 40
0.9999999999999999
 10
70.6724518100057
 20
-39.75347689133806
 30
0.0
 10
70.71322237500338
 20
-39.69697467900443
 30
0.0
 10
70.79246288212305
 20
-39.58715859087928
 30
0.0
 10
70.9283577975741
 20
-39.44239967149921
 30
0.0
 10
71.0733789906959
 20
-39.32092291892812
 30
0.0
 10
71.2251203477047
 20
-39.21867418979936
 30
0.0
 10
71.3866626520889
 20
-39.14054102632268
 30
0.0
 10
71.5566260912883
 20
-39.08566814890966
 30
0.0
 10
71.73493217355679
 20
-39.0514878822021
 30
0.0
 10
71.85698676050345
 20
-39.04715588902562
 30
0.0
 10
71.91904636128774
 20
-39.04495325351755
 30
0.0
  0
SPLINE
  5
10D
330
1F
100
AcDbEntity
  8
0
  6
Continuous
 62
     7
370
    25
100
AcDbSpline
210
0.0
220
0.0
230
1.0
 70
     8
 71
     3
 72
    15
 73
    11
 74
     0
 42
0.000000001
 43
0.00000001
 40
0.0
 40
0.0
 40
0.0
 40
0.0
 40
0.1266046417732673
 40
0.2497905393020244
 40
0.372524358735548
 40
0.496014844388383
 40
0.6198313715740466
 40
0.7439657028780251
 40
0.8691950232938124
 40
1.0
 40
1.0
 40
1.0
 40
1.0
 10
64.43032039974928
 20
-32.59033624211933
 30
0.0
 10
64.46615836807992
 20
-32.53163824738064
 30
0.0
 10
64.53686656101357
 20
-32.41582729798448
 30
0.0
 10
64.66800700676917
 20
-32.26109338410506
 30
0.0
 10
64.81343021057775
 20
-32.12272469897491
 30
0.0
 10
64.97491710591055
 20
-32.00247871268993
 30
0.0
 10
65.15219923975334
 20
-31.90519395040219
 30
0.0
 10
65.34275025953346
 20
-31.83473625221785
 30
0.0
 10
65.54579378335623
 20
-31.79305811199537
 30
0.0
 10
65.6847764774979
 20
-31.78781603939349
 30
0.0
 10
65.75578113692876
 20
-31.78513792481164
 30
0.0
  0
SPLINE
  5
10E
330
1F
100
AcDbEntity
  8
0
  6
Continuous
 62
     7
370
    25
100
AcDbSpline
210
0.0
220
0.0
230
1.0
 70
     8
 71
     3
 72
    15
 73
    11
 74
     0
 42
0.000000001
 43
0.00000001
 40
0.0
 40
0.0
 40
0.0
 40
0.0
 40
0.1423153202033225
 40
0.2758893603343634
 40
0.4024548018034096
 40
0.5233628519927485
 40
0.6412279460412293
 40
0.7590240660699312
 40
0.8775424113033148
 40
1.0
 40
1.0
 40
1.0
 40
1.0
 10
66.98965533564672
 20
-32.64630579340138
 30
0.0
 10
67.03469499211054
 20
-32.57769188625278
 30
0.0
 10
67.1220078829064
 20
-32.44467846980385
 30
0.0
 10
67.27571704132384
 20
-32.27031506190455
 30
0.0
 10
67.43545937751885
 20
-32.11914217009459
 30
0.0
 10
67.60778800818349
 20
-31.99710248152871
 30
0.0
 10
67.7902909492843
 20
-31.90143878152366
 30
0.0
 10
67.98348692381128
 20
-31.83381939830041
 30
0.0
 10
68.18709405267212
 20
-31.79346699558219
 30
0.0
 10
68.32595889396528
 20
-31.78794437457243
 30
0.0
 10
68.39652632923645
 20
-31.78513792481164
 30
0.0
  0
SPLINE
  5
10F
330
1F
100
AcDbEntity
  8
0
  6
Continuous
 62
     7
370
    25
100
AcDbSpline
210
0.0
220
0.0
230
1.0
 70
     8
 71
     3
 72
    23
 73
    19
 74
     0
 42
0.000000001
 43
0.00000001
 40
0.0
 40
0.0
 40
0.0
 40
0.0
 40
0.084109515142198
 40
0.1624256296947323
 40
0.2368218560929546
 40
0.3059866465664424
 40
0.3701078016338663
 40
0.4306679461857585
 40
0.4878512204212725
 40
0.542607321549775
 40
0.5956767428670663
 40
0.6472830623447317
 40
0.6996541713763461
 40
0.7533785827348186
 40
0.8098296631517234
 40
0.8689377279335719
 40
0.9321626864520849
 40
1.0
 40
1.0
 40
1.0
 40
1.0
 10
66.30275629718518
 20
-26.98618475418337
 30
0.0
 10
66.30244887473546
 20
-26.94460851509415
 30
0.0
 10
66.30185520486481
 20
-26.86431977721487
 30
0.0
 10
66.29217132797102
 20
-26.74763278491857
 30
0.0
 10
66.27921457688294
 20
-26.63868897504772
 30
0.0
 10
66.25850288517624
 20
-26.53808742688986
 30
0.0
 10
66.23357095776397
 20
-26.44548427921167
 30
0.0
 10
66.20140772016086
 20
-26.36144292397754
 30
0.0
 10
66.16486947774212
 20
-26.28428207754315
 30
0.0
 10
66.12131517525994
 20
-26.21513164506827
 30
0.0
 10
66.07185511637783
 20
-26.1535163862727
 30
0.0
 10
66.01480340416217
 20
-26.10054369682032
 30
0.0
 10
65.9508830048378
 20
-26.05546863186101
 30
0.0
 10
65.87852886810572
 20
-26.01997190028743
 30
0.0
 10
65.79946663027012
 20
-25.99214541950663
 30
0.0
 10
65.71334040824739
 20
-25.97193152298197
 30
0.0
 10
65.62008006320433
 20
-25.95873837801569
 30
0.0
 10
65.555271371959
 20
-25.95766421452232
 30
0.0
 10
65.52172664974928
 20
-25.95710823174748
 30
0.0
  0
SPLINE
  5
110
330
1F
100
AcDbEntity
  8
0
  6
Continuous
 62
     7
370
    25
100
AcDbSpline
210
0.0
220
0.0
230
1.0
 70
     8
 71
     3
 72
    15
 73
    11
 74
     0
 42
0.000000001
 43
0.00000001
 40
0.0
 40
0.0
 40
0.0
 40
0.0
 40
0.1266046417732672
 40
0.2497905393020227
 40
0.3725243587355492
 40
0.4960148443883828
 40
0.6198313715740464
 40
0.7439657028780257
 40
0.8691950232938124
 40
0.9999999999999999
 40
0.9999999999999999
 40
0.9999999999999999
 40
0.9999999999999999
 10
64.43032039974928
 20
-26.02961424136286
 30
0.0
 10
64.46615836807992
 20
-25.97091624662418
 30
0.0
 10
64.53686656101357
 20
-25.85510529722801
 30
0.0
 10
64.66800700676917
 20
-25.70037138334859
 30
0.0
 10
64.81343021057775
 20
-25.56200269821845
 30
0.0
 10
64.97491710591055
 20
-25.44175671193345
 30
0.0
 10
65.15219923975334
 20
-25.34447194964573
 30
0.0
 10
65.34275025953346
 20
-25.27401425146137
 30
0.0
 10
65.54579378335626
 20
-25.2323361112389
 30
0.0
 10
65.6847764774979
 20
-25.22709403863702
 30
0.0
 10
65.75578113692876
 20
-25.22441592405517
 30
0.0
  0
SPLINE
  5
111
330
1F
100
AcDbEntity
  8
0
  6
Continuous
 62
     7
370
    25
100
AcDbSpline
210
0.0
220
0.0
230
1.0
 70
     8
 71
     3
 72
    23
 73
    19
 74
     0
 42
0.000000001
 43
0.00000001
 40
0.0
 40
0.0
 40
0.0
 40
0.0
 40
0.0585611614659569
 40
0.1150060130467065
 40
0.1697212884800864
 40
0.2235921357043518
 40
0.2768039995842372
 40
0.3307610590291458
 40
0.3849798294230233
 40
0.4410867972467186
 40
0.4982679656459605
 40
0.5575961644186563
 40
0.6201148054024301
 40
0.6857042391013393
 40
0.7568083997193535
 40
0.8319348943756398
 40
0.9128561250450206
 40
1.0
 40
1.0
 40
1.0
 40
1.0
 10
68.20063289974928
 20
-32.51783023250395
 30
0.0
 10
68.16240859830769
 20
-32.51872578920327
 30
0.0
 10
68.08734136261343
 20
-32.52048453856663
 30
0.0
 10
67.97764001145536
 20
-32.5367483413178
 30
0.0
 10
67.87230967955979
 20
-32.55986785612722
 30
0.0
 10
67.7730162427537
 20
-32.59641539379372
 30
0.0
 10
67.67785574331364
 20
-32.64113569139295
 30
0.0
 10
67.58739070221351
 20
-32.69548730893575
 30
0.0
 10
67.50291189352944
 20
-32.76172836557147
 30
0.0
 10
67.42272696399021
 20
-32.83614677183975
 30
0.0
 10
67.34910492330853
 20
-32.92179005639826
 30
0.0
 10
67.28655785680415
 20
-33.02090201524535
 30
0.0
 10
67.2352386262797
 20
-33.13212035953091
 30
0.0
 10
67.19129120017931
 20
-33.25458967240128
 30
0.0
 10
67.15765477943143
 20
-33.38881575725448
 30
0.0
 10
67.13350526023152
 20
-33.53514500018355
 30
0.0
 10
67.11987494010849
 20
-33.69335505536443
 30
0.0
 10
67.11788873411983
 20
-33.80298363046332
 30
0.0
 10
67.11685886128774
 20
-33.85982742801676
 30
0.0
  0
SPLINE
  5
112
330
1F
100
AcDbEntity
  8
0
  6
Continuous
 62
     7
370
    25
100
AcDbSpline
210
0.0
220
0.0
230
1.0
 70
     8
 71
     3
 72
    11
 73
     7
 74
     0
 42
0.000000001
 43
0.00000001
 40
0.0
 40
0.0
 40
0.0
 40
0.0
 40
0.2457078601239457
 40
0.4910458046940697
 40
0.7417105671363002
 40
0.9999999999999999
 40
0.9999999999999999
 40
0.9999999999999999
 40
0.9999999999999999
 10
85.1276569382108
 20
-36.50693279660651
 30
0.0
 10
85.09752300486726
 20
-36.46532398386523
 30
0.0
 10
85.03730050510752
 20
-36.38216900085168
 30
0.0
 10
84.96988456806254
 20
-36.24222531565114
 30
0.0
 10
84.91437753933168
 20
-36.09443231472481
 30
0.0
 10
84.89384582135767
 20
-35.99003941131525
 30
0.0
 10
84.88342616898007
 20
-35.93706100173472
 30
0.0
  0
SPLINE
  5
113
330
1F
100
AcDbEntity
  8
0
  6
Continuous
 62
     7
370
    25
100
AcDbSpline
210
0.0
220
0.0
230
1.0
 70
     8
 71
     3
 72
    11
 73
     7
 74
     0
 42
0.000000001
 43
0.00000001
 40
0.0
 40
0.0
 40
0.0
 40
0.0
 40
0.2457078601239457
 40
0.4910458046940697
 40
0.7417105671363002
 40
0.9999999999999999
 40
0.9999999999999999
 40
0.9999999999999999
 40
0.9999999999999999
 10
68.44181078436465
 20
-43.76674812531242
 30
0.0
 10
68.41167685102108
 20
-43.72513931257114
 30
0.0
 10
68.35145435126134
 20
-43.64198432955758
 30
0.0
 10
68.28403841421637
 20
-43.50204064435705
 30
0.0
 10
68.22853138548548
 20
-43.35424764343072
 30
0.0
 10
68.20799966751152
 20
-43.24985474002116
 30
0.0
 10
68.19758001513388
 20
-43.19687633044063
 30
0.0
  0
SPLINE
  5
114
330
1F
100
AcDbEntity
  8
0
  6
Continuous
 62
     7
370
    25
100
AcDbSpline
210
0.0
220
0.0
230
1.0
 70
     8
 71
     3
 72
    23
 73
    19
 74
     0
 42
0.000000001
 43
0.00000001
 40
0.0
 40
0.0
 40
0.0
 40
0.0
 40
0.0520312445462355
 40
0.1031023768123335
 40
0.1536684966592891
 40
0.20440351252176
 40
0.2558917048226305
 40
0.3092907484153461
 40
0.3648791671596455
 40
0.4227721810677864
 40
0.4832438255672999
 40
0.5459088335737372
 40
0.6112354190573205
 40
0.6799291021232149
 40
0.7527255180689452
 40
0.8299672012434466
 40
0.9126387050865583
 40
0.9999999999999999
 40
0.9999999999999999
 40
0.9999999999999999
 40
0.9999999999999999
 10
71.8363640696211
 20
-43.11546607403038
 30
0.0
 10
71.87633189409625
 20
-43.11443713043846
 30
0.0
 10
71.95553003235614
 20
-43.11239822994977
 30
0.0
 10
72.07162666953771
 20
-43.09020282520907
 30
0.0
 10
72.18485814974784
 20
-43.06002130332242
 30
0.0
 10
72.29172316695926
 20
-43.01097816301849
 30
0.0
 10
72.39614629229135
 20
-42.95278882814645
 30
0.0
 10
72.49526363942665
 20
-42.87926231393451
 30
0.0
 10
72.59082873250902
 20
-42.79388466956871
 30
0.0
 10
72.68167863342134
 20
-42.69580075966262
 30
0.0
 10
72.764202012354
 20
-42.58375143508373
 30
0.0
 10
72.83698730135619
 20
-42.45851031998179
 30
0.0
 10
72.89807729444095
 20
-42.32022050263589
 30
0.0
 10
72.94715434333749
 20
-42.16914469895578
 30
0.0
 10
72.98676820395184
 20
-42.00591696203978
 30
0.0
 10
73.0142652572865
 20
-41.82936707469106
 30
0.0
 10
73.03089723877285
 20
-41.64022973848021
 30
0.0
 10
73.03251701811195
 20
-41.5097691615668
 30
0.0
 10
73.03334924590312
 20
-41.44273971185088
 30
0.0
  0
SPLINE
  5
115
330
1F
100
AcDbEntity
  8
0
  6
Continuous
 62
     7
370
    25
100
AcDbSpline
210
0.0
220
0.0
230
1.0
 70
     8
 71
     3
 72
    15
 73
    11
 74
     0
 42
0.000000001
 43
0.00000001
 40
0.0
 40
0.0
 40
0.0
 40
0.0
 40
0.1626930956499405
 40
0.3135976891584663
 40
0.4529653465928317
 40
0.5811155949830202
 40
0.6997625406570753
 40
0.8092410986891856
 40
0.908169117985536
 40
1.0
 40
1.0
 40
1.0
 40
1.0
 10
70.6724518100057
 20
-41.41348290095345
 30
0.0
 10
70.67322570565726
 20
-41.47667484014025
 30
0.0
 10
70.67471742162107
 20
-41.59847992365197
 30
0.0
 10
70.68489203386363
 20
-41.7741886418299
 30
0.0
 10
70.70118710449985
 20
-41.93592783457947
 30
0.0
 10
70.7234417480741
 20
-42.08435566047726
 30
0.0
 10
70.75408174681961
 20
-42.21943838884398
 30
0.0
 10
70.79034895724138
 20
-42.34122984798911
 30
0.0
 10
70.83291553052437
 20
-42.45018455665579
 30
0.0
 10
70.86971202384889
 20
-42.51458976488673
 30
0.0
 10
70.88742576833903
 20
-42.54559427915858
 30
0.0
  0
SPLINE
  5
116
330
1F
100
AcDbEntity
  8
0
  6
Continuous
 62
     7
370
    25
100
AcDbSpline
210
0.0
220
0.0
230
1.0
 70
     8
 71
     3
 72
    23
 73
    19
 74
     0
 42
0.000000001
 43
0.00000001
 40
0.0
 40
0.0
 40
0.0
 40
0.0
 40
0.0528601371436422
 40
0.1047448667750422
 40
0.1562728284378029
 40
0.2075922981474896
 40
0.2599007318595389
 40
0.3141504580051758
 40
0.3706244375158945
 40
0.4298537821304854
 40
0.4908380029059234
 40
0.553533024846325
 40
0.6188756005135415
 40
0.6870661251940007
 40
0.7588411038139778
 40
0.8345418622345367
 40
0.9146151475731429
 40
1.0
 40
1.0
 40
1.0
 40
1.0
 10
71.86943698628775
 20
-39.77764556120987
 30
0.0
 10
71.82948365368446
 20
-39.7787201038325
 30
0.0
 10
71.75031423175545
 20
-39.78084936096146
 30
0.0
 10
71.63388952600542
 20
-39.80240041586583
 30
0.0
 10
71.5215057512349
 20
-39.8350841355735
 30
0.0
 10
71.41372466091747
 20
-39.8816986840141
 30
0.0
 10
71.30969798472567
 20
-39.9404549997983
 30
0.0
 10
71.21058238959263
 20
-40.01386344268062
 30
0.0
 10
71.11449832281703
 20
-40.099225924508
 30
0.0
 10
71.02491447896523
 20
-40.19840953658579
 30
0.0
 10
70.94186276001096
 20
-40.30901278807291
 30
0.0
 10
70.86878190610568
 20
-40.4319748616751
 30
0.0
 10
70.80797319172075
 20
-40.56741719337633
 30
0.0
 10
70.75878457349663
 20
-40.71462291436755
 30
0.0
 10
70.71912985570889
 20
-40.87275191689955
 30
0.0
 10
70.6916829392897
 20
-41.04252713270093
 30
0.0
 10
70.67482711530596
 20
-41.22402846180331
 30
0.0
 10
70.6732603440308
 20
-41.34899419701938
 30
0.0
 10
70.6724518100057
 20
-41.41348290095345
 30
0.0
  0
SPLINE
  5
117
330
1F
100
AcDbEntity
  8
0
  6
Continuous
 62
     7
370
    25
100
AcDbSpline
210
0.0
220
0.0
230
1.0
 70
     8
 71
     3
 72
    23
 73
    19
 74
     0
 42
0.000000001
 43
0.00000001
 40
0.0
 40
0.0
 40
0.0
 40
0.0
 40
0.090431689914752
 40
0.1755649903812632
 40
0.2545660615340954
 40
0.3283511910158054
 40
0.3975314146688918
 40
0.4630399507814303
 40
0.5245065926244757
 40
0.5835492556027517
 40
0.6404211172771345
 40
0.6945519888794293
 40
0.7461256125266403
 40
0.7968621687958893
 40
0.8471300740068816
 40
0.8971090718915257
 40
0.9480263766618618
 40
1.0
 40
1.0
 40
1.0
 40
1.0
 10
73.03334924590312
 20
-41.44273971185088
 30
0.0
 10
73.03254459933336
 20
-41.37401342662762
 30
0.0
 10
73.0309824504073
 20
-41.24058752675185
 30
0.0
 10
73.01410261827162
 20
-41.04771886674119
 30
0.0
 10
72.98770485911248
 20
-40.86879729492766
 30
0.0
 10
72.95158877566627
 20
-40.70383408973455
 30
0.0
 10
72.90279586032378
 20
-40.55290238222302
 30
0.0
 10
72.84501195465867
 20
-40.41529904078088
 30
0.0
 10
72.77618273143668
 20
-40.29140949444374
 30
0.0
 10
72.69525154801629
 20
-40.18318852252107
 30
0.0
 10
72.60739192417954
 20
-40.08826763878778
 30
0.0
 10
72.51612503124652
 20
-40.00468331651521
 30
0.0
 10
72.41925785996825
 20
-39.93537845614331
 30
0.0
 10
72.31858875060313
 20
-39.877423638471
 30
0.0
 10
72.2125372472903
 20
-39.83288705614149
 30
0.0
 10
72.10204181917874
 20
-39.80080290050559
 30
0.0
 10
71.98716124649063
 20
-39.78122628947605
 30
0.0
 10
71.90894606890471
 20
-39.77884727858445
 30
0.0
 10
71.86943698628775
 20
-39.77764556120986
 30
0.0
  0
SPLINE
  5
118
330
1F
100
AcDbEntity
  8
0
  6
Continuous
 62
     7
370
    25
100
AcDbSpline
210
0.0
220
0.0
230
1.0
 70
     8
 71
     3
 72
    15
 73
    11
 74
     0
 42
0.000000001
 43
0.00000001
 40
0.0
 40
0.0
 40
0.0
 40
0.0
 40
0.1395015132535484
 40
0.270828392069277
 40
0.3956879475755937
 40
0.5169622686190899
 40
0.6350616988110755
 40
0.7532221097800165
 40
0.8748523066747254
 40
1.0
 40
1.0
 40
1.0
 40
1.0
 10
70.88742576833903
 20
-42.54559427915858
 30
0.0
 10
70.91696014044926
 20
-42.59084127983957
 30
0.0
 10
70.97429820311856
 20
-42.67868385698866
 30
0.0
 10
71.07449946170632
 20
-42.7950346722012
 30
0.0
 10
71.18182497253567
 20
-42.8946821301461
 30
0.0
 10
71.29825703190984
 20
-42.97491609893181
 30
0.0
 10
71.42165625894623
 20
-43.03844376076024
 30
0.0
 10
71.55316490152691
 20
-43.08321049241453
 30
0.0
 10
71.6923421625918
 20
-43.11051089880169
 30
0.0
 10
71.78790273689637
 20
-43.11379872771884
 30
0.0
 10
71.83636406962107
 20
-43.11546607403037
 30
0.0
  0
SPLINE
  5
11A
330
1F
100
AcDbEntity
  8
0
  6
Continuous
 62
     7
370
    25
100
AcDbSpline
210
0.0
220
0.0
230
1.0
 70
     8
 71
     3
 72
    15
 73
    11
 74
     0
 42
0.000000001
 43
0.00000001
 40
0.0
 40
0.0
 40
0.0
 40
0.0
 40
0.1481645315864633
 40
0.2896940731271307
 40
0.4223767178539503
 40
0.5484618558405235
 40
0.667394076398945
 40
0.7829662373357288
 40
0.8927208011042111
 40
1.0
 40
1.0
 40
1.0
 40
1.0
 10
73.93211847667236
 20
-33.65757382224754
 30
0.0
 10
73.92699391160079
 20
-33.61723783230191
 30
0.0
 10
73.91697426578747
 20
-33.5383721476752
 30
0.0
 10
73.89588452223633
 20
-33.42430278929713
 30
0.0
 10
73.86775751191418
 20
-33.31802524911098
 30
0.0
 10
73.83388283772722
 20
-33.21993870829689
 30
0.0
 10
73.79257497244765
 20
-33.12985538812912
 30
0.0
 10
73.7459038122299
 20
-33.04763706590688
 30
0.0
 10
73.69375465191565
 20
-32.97240570331327
 30
0.0
 10
73.65322425595875
 20
-32.9286843614135
 30
0.0
 10
73.63319019141595
 20
-32.90707302096548
 30
0.0
  0
SPLINE
  5
11B
330
1F
100
AcDbEntity
  8
0
  6
Continuous
 62
     7
370
    25
100
AcDbSpline
210
0.0
220
0.0
230
1.0
 70
     8
 71
     3
 72
    15
 73
    11
 74
     0
 42
0.000000001
 43
0.00000001
 40
0.0
 40
0.0
 40
0.0
 40
0.0
 40
0.1236858458754493
 40
0.2443006868683323
 40
0.3642287799698394
 40
0.4860022042768661
 40
0.608440784856476
 40
0.7336696181582777
 40
0.8637723073991362
 40
1.0
 40
1.0
 40
1.0
 40
1.0
 10
73.63319019141595
 20
-32.90707302096549
 30
0.0
 10
73.60118032322508
 20
-32.87583037105779
 30
0.0
 10
73.53795536219374
 20
-32.8141207972742
 30
0.0
 10
73.43254223890273
 20
-32.73457320845999
 30
0.0
 10
73.31925426341682
 20
-32.66860534821673
 30
0.0
 10
73.20029388995312
 20
-32.61168721552895
 30
0.0
 10
73.0730002963708
 20
-32.57045151963766
 30
0.0
 10
72.93992208154087
 20
-32.53930034314001
 30
0.0
 10
72.79920676677563
 20
-32.5216537398336
 30
0.0
 10
72.70295547310191
 20
-32.51912412676226
 30
0.0
 10
72.65372304398005
 20
-32.51783023250395
 30
0.0
  0
SPLINE
  5
11C
330
1F
100
AcDbEntity
  8
0
  6
Continuous
 62
     7
370
    25
100
AcDbSpline
210
0.0
220
0.0
230
1.0
 70
     8
 71
     3
 72
    23
 73
    19
 74
     0
 42
0.000000001
 43
0.00000001
 40
0.0
 40
0.0
 40
0.0
 40
0.0
 40
0.0689192924954845
 40
0.134904763031072
 40
0.1997359372185605
 40
0.2626235683021066
 40
0.3245009044534112
 40
0.3855135641469302
 40
0.4473909002982393
 40
0.509177787717324
 40
0.5709054639226042
 40
0.6308224246856547
 40
0.6901440794890981
 40
0.7497767565007384
 40
0.8097188419376887
 40
0.8709145541025346
 40
0.9345907756292989
 40
1.0
 40
1.0
 40
1.0
 40
1.0
 10
72.65372304398005
 20
-32.51783023250395
 30
0.0
 10
72.60916414157501
 20
-32.51886498490175
 30
0.0
 10
72.52194316248162
 20
-32.52089044137364
 30
0.0
 10
72.39344746541543
 20
-32.53514356161794
 30
0.0
 10
72.27029252833562
 20
-32.55877157741666
 30
0.0
 10
72.15269666439453
 20
-32.59382876494121
 30
0.0
 10
72.0402303305591
 20
-32.63643662112708
 30
0.0
 10
71.93368431267159
 20
-32.69090261471874
 30
0.0
 10
71.83231280839355
 20
-32.75419020581711
 30
0.0
 10
71.73651957873908
 20
-32.82658260595842
 30
0.0
 10
71.64986198012782
 20
-32.90771162525899
 30
0.0
 10
71.57061247744323
 20
-32.99413208111431
 30
0.0
 10
71.50500182846709
 20
-33.0896465029326
 30
0.0
 10
71.44682808142363
 20
-33.18980454727931
 30
0.0
 10
71.40127764398035
 20
-33.29773200937097
 30
0.0
 10
71.3654183317558
 20
-33.41183898382038
 30
0.0
 10
71.33989209805566
 20
-33.53243994420104
 30
0.0
 10
71.33132920002954
 20
-33.61549087008112
 30
0.0
 10
71.32699027154416
 20
-33.65757382224754
 30
0.0
  0
SPLINE
  5
11E
330
1F
100
AcDbEntity
  8
0
  6
Continuous
 62
     7
370
    25
100
AcDbSpline
210
0.0
220
0.0
230
1.0
 70
     8
 71
     3
 72
    19
 73
    15
 74
     0
 42
0.000000001
 43
0.00000001
 40
0.0
 40
0.0
 40
0.0
 40
0.0
 40
0.1571850368536672
 40
0.2901195170051205
 40
0.3988967841290916
 40
0.4848126105638861
 40
0.5565266501923408
 40
0.6244701388391327
 40
0.6897920827620871
 40
0.7538159800697634
 40
0.8166770462256439
 40
0.8773833296569102
 40
0.9381315035705071
 40
1.0
 40
1.0
 40
1.0
 40
1.0
 10
83.57704596064674
 20
-34.56199088955523
 30
0.0
 10
83.5052937806462
 20
-34.57154801256165
 30
0.0
 10
83.37285936944205
 20
-34.58918778264458
 30
0.0
 10
83.19209367312384
 20
-34.62214178600922
 30
0.0
 10
83.04495334393089
 20
-34.65572907285779
 30
0.0
 10
82.92738043407779
 20
-34.69121480918625
 30
0.0
 10
82.83185090812358
 20
-34.73305396903069
 30
0.0
 10
82.75271989688198
 20
-34.78502471373925
 30
0.0
 10
82.68259047427972
 20
-34.84331399053406
 30
0.0
 10
82.62561843137054
 20
-34.91150547494409
 30
0.0
 10
82.57908400269514
 20
-34.98476393083477
 30
0.0
 10
82.54773036260218
 20
-35.0639203767961
 30
0.0
 10
82.52563227356599
 20
-35.14592777692828
 30
0.0
 10
82.52356952886406
 20
-35.20252451114107
 30
0.0
 10
82.52252873308261
 20
-35.23108143442702
 30
0.0
  0
SPLINE
  5
11F
330
1F
100
AcDbEntity
  8
0
  6
Continuous
 62
     7
370
    25
100
AcDbSpline
210
0.0
220
0.0
230
1.0
 70
     8
 71
     3
 72
    15
 73
    11
 74
     0
 42
0.000000001
 43
0.00000001
 40
0.0
 40
0.0
 40
0.0
 40
0.0
 40
0.1061584963516576
 40
0.2086435109056544
 40
0.3126827790177236
 40
0.4257489628073025
 40
0.5481445367771989
 40
0.6816950906413721
 40
0.8315091938917116
 40
1.0
 40
1.0
 40
1.0
 40
1.0
 10
82.52252873308264
 20
-35.23108143442703
 30
0.0
 10
82.52492695808627
 20
-35.27432422905812
 30
0.0
 10
82.52964042052125
 20
-35.35931345557575
 30
0.0
 10
82.57605580947117
 20
-35.47942970461616
 30
0.0
 10
82.64828885895034
 20
-35.58807029524714
 30
0.0
 10
82.74874400771648
 20
-35.68415003460743
 30
0.0
 10
82.87810022697131
 20
-35.76177563394455
 30
0.0
 10
83.03395818643119
 20
-35.81753617924259
 30
0.0
 10
83.21532983401656
 20
-35.84968336394339
 30
0.0
 10
83.3445515039283
 20
-35.85358530212661
 30
0.0
 10
83.41295341256979
 20
-35.85565074532446
 30
0.0
  0
SPLINE
  5
120
330
1F
100
AcDbEntity
  8
0
  6
Continuous
 62
     7
370
    25
100
AcDbSpline
210
0.0
220
0.0
230
1.0
 70
     8
 71
     3
 72
    15
 73
    11
 74
     0
 42
0.000000001
 43
0.00000001
 40
0.0
 40
0.0
 40
0.0
 40
0.0
 40
0.1405533665078929
 40
0.2755162036336234
 40
0.4067860130531348
 40
0.5361320360399964
 40
0.6616486639717325
 40
0.7793756319066607
 40
0.8907748783485179
 40
1.0
 40
1.0
 40
1.0
 40
1.0
 10
83.41295341256979
 20
-35.85565074532446
 30
0.0
 10
83.48310531803985
 20
-35.85380690095633
 30
0.0
 10
83.62061882734226
 20
-35.85019255138204
 30
0.0
 10
83.82041753451314
 20
-35.81128884554803
 30
0.0
 10
84.00919174990057
 20
-35.75251371427555
 30
0.0
 10
84.1826899659709
 20
-35.667693691271
 30
0.0
 10
84.33945598127649
 20
-35.56723698538411
 30
0.0
 10
84.47516627955154
 20
-35.45340641891816
 30
0.0
 10
84.59074315940876
 20
-35.32927754834298
 30
0.0
 10
84.64867565511084
 20
-35.23552072377154
 30
0.0
 10
84.67735645744159
 20
-35.18910427096549
 30
0.0
  0
SPLINE
  5
121
330
1F
100
AcDbEntity
  8
0
  6
Continuous
 62
     7
370
    25
100
AcDbSpline
210
0.0
220
0.0
230
1.0
 70
     8
 71
     3
 72
    11
 73
     7
 74
     0
 42
0.000000001
 43
0.00000001
 40
0.0
 40
0.0
 40
0.0
 40
0.0
 40
0.2016553881025816
 40
0.4336305399409008
 40
0.697639380637461
 40
1.0
 40
1.0
 40
1.0
 40
1.0
 10
84.67735645744159
 20
-35.18910427096549
 30
0.0
 10
84.69669660260212
 20
-35.14894998230137
 30
0.0
 10
84.73828476777537
 20
-35.0626040332137
 30
0.0
 10
84.77101002810838
 20
-34.91139421274372
 30
0.0
 10
84.79494642064245
 20
-34.73705763069674
 30
0.0
 10
84.79706746906172
 20
-34.61214172965598
 30
0.0
 10
84.79819980680057
 20
-34.54545443122189
 30
0.0
  0
SPLINE
  5
122
330
1F
100
AcDbEntity
  8
0
  6
Continuous
 62
     7
370
    25
100
AcDbSpline
210
0.0
220
0.0
230
1.0
 70
     8
 71
     3
 72
    15
 73
    11
 74
     0
 42
0.000000001
 43
0.00000001
 40
0.0
 40
0.0
 40
0.0
 40
0.0
 40
0.091169036894903
 40
0.1924016976612082
 40
0.3024570329705534
 40
0.4219227089474573
 40
0.5523214475357278
 40
0.691337583848815
 40
0.8412185572400873
 40
0.9999999999999999
 40
0.9999999999999999
 40
0.9999999999999999
 40
0.9999999999999999
 10
84.8020159125698
 20
-34.30885587352959
 30
0.0
 10
84.76612244027754
 20
-34.32162435118519
 30
0.0
 10
84.69037342241809
 20
-34.34857074506143
 30
0.0
 10
84.56819672166388
 20
-34.38101399930297
 30
0.0
 10
84.43470501104241
 20
-34.41664402619281
 30
0.0
 10
84.28746959464847
 20
-34.4472621553457
 30
0.0
 10
84.12830319515486
 20
-34.47968760649323
 30
0.0
 10
83.95551270431523
 20
-34.50845400954639
 30
0.0
 10
83.77061423496413
 20
-34.53638872856067
 30
0.0
 10
83.64279727876279
 20
-34.55329434133239
 30
0.0
 10
83.57704596064671
 20
-34.56199088955523
 30
0.0
  0
SPLINE
  5
123
330
1F
100
AcDbEntity
  8
0
  6
Continuous
 62
     7
370
    25
100
AcDbSpline
210
0.0
220
0.0
230
1.0
 70
     8
 71
     3
 72
    23
 73
    19
 74
     0
 42
0.000000001
 43
0.00000001
 40
0.0
 40
0.0
 40
0.0
 40
0.0
 40
0.053699017515034
 40
0.1056578451374625
 40
0.1572962658342888
 40
0.2084630350834937
 40
0.2597727063714855
 40
0.3129571757207384
 40
0.3675338041413694
 40
0.4248359063145211
 40
0.4842787928110712
 40
0.5456264228873429
 40
0.6104985023747161
 40
0.6790486774330955
 40
0.7516944304642289
 40
0.8290690409534626
 40
0.9115493078345159
 40
1.0
 40
1.0
 40
1.0
 40
1.0
 10
77.2289285728262
 20
-35.85565074532446
 30
0.0
 10
77.26884151209862
 20
-35.85433028117079
 30
0.0
 10
77.34737395741651
 20
-35.85173214430511
 30
0.0
 10
77.46332234921069
 20
-35.83403878530065
 30
0.0
 10
77.57398651576922
 20
-35.8016604862133
 30
0.0
 10
77.68018388898923
 20
-35.75824385642279
 30
0.0
 10
77.78222882621083
 20
-35.70310681232295
 30
0.0
 10
77.87842793260108
 20
-35.63390467428625
 30
0.0
 10
77.9707583507753
 20
-35.55287835525989
 30
0.0
 10
78.05852802115254
 20
-35.46035084700053
 30
0.0
 10
78.13913007020396
 20
-35.35492635301856
 30
0.0
 10
78.20806348302958
 20
-35.23496071361279
 30
0.0
 10
78.26616898685864
 20
-35.10213113809763
 30
0.0
 10
78.31471940280635
 20
-34.95662063012927
 30
0.0
 10
78.35095341728172
 20
-34.79803426217049
 30
0.0
 10
78.37727034276287
 20
-34.62714765717399
 30
0.0
 10
78.39436979247749
 20
-34.44318928005025
 30
0.0
 10
78.39587700785624
 20
-34.31610424012849
 30
0.0
 10
78.39665693821082
 20
-34.25034225173471
 30
0.0
  0
SPLINE
  5
124
330
1F
100
AcDbEntity
  8
0
  6
Continuous
 62
     7
370
    25
100
AcDbSpline
210
0.0
220
0.0
230
1.0
 70
     8
 71
     3
 72
    23
 73
    19
 74
     0
 42
0.000000001
 43
0.00000001
 40
0.0
 40
0.0
 40
0.0
 40
0.0
 40
0.0528608631848389
 40
0.1046567006777465
 40
0.1549555373671304
 40
0.2053095902139169
 40
0.2558289294363781
 40
0.3071817523228664
 40
0.3610808748878995
 40
0.4165496547051818
 40
0.4746846555230531
 40
0.5356176474766479
 40
0.6001174273576033
 40
0.6693635863979956
 40
0.7437993576080671
 40
0.823011759916178
 40
0.9082889883486667
 40
1.0
 40
1.0
 40
1.0
 40
1.0
 10
77.19585565615952
 20
-32.51783023250395
 30
0.0
 10
77.15550678496896
 20
-32.51905157445736
 30
0.0
 10
77.07562198021064
 20
-32.52146965111262
 30
0.0
 10
76.95852359390271
 20
-32.54069754732958
 30
0.0
 10
76.84675832557669
 20
-32.57346613327336
 30
0.0
 10
76.73905144291707
 20
-32.61568873488098
 30
0.0
 10
76.63845347330323
 20
-32.6744268184931
 30
0.0
 10
76.54155616204183
 20
-32.74359439948826
 30
0.0
 10
76.45077560002619
 20
-32.82643390836493
 30
0.0
 10
76.36451876525588
 20
-32.9210294580563
 30
0.0
 10
76.28668404459327
 20
-33.02953246311782
 30
0.0
 10
76.21927447786791
 20
-33.15267370302745
 30
0.0
 10
76.1620199462
 20
-33.28999523479576
 30
0.0
 10
76.1147906020385
 20
-33.44195658914565
 30
0.0
 10
76.08074621679195
 20
-33.60876696186207
 30
0.0
 10
76.05319135842106
 20
-33.78908645354613
 30
0.0
 10
76.03856291626013
 20
-33.98424427685507
 30
0.0
 10
76.03671634877823
 20
-34.11930129143309
 30
0.0
 10
76.03575950231337
 20
-34.18928455942702
 30
0.0
  0
SPLINE
  5
125
330
1F
100
AcDbEntity
  8
0
  6
Continuous
 62
     7
370
    25
100
AcDbSpline
210
0.0
220
0.0
230
1.0
 70
     8
 71
     3
 72
    23
 73
    19
 74
     0
 42
0.000000001
 43
0.00000001
 40
0.0
 40
0.0
 40
0.0
 40
0.0
 40
0.0913044138713145
 40
0.1769621433012194
 40
0.2561615942224508
 40
0.3304161982913145
 40
0.4002117053740799
 40
0.4649342333611766
 40
0.5262132137901376
 40
0.5846381862058662
 40
0.6405130968592972
 40
0.6941126681854248
 40
0.7456697259607956
 40
0.7964180064786043
 40
0.8464770472760687
 40
0.8961138854001127
 40
0.9473118125852527
 40
1.0
 40
1.0
 40
1.0
 40
1.0
 10
78.39665693821082
 20
-34.25034225173471
 30
0.0
 10
78.39586664688694
 20
-34.17822313055701
 30
0.0
 10
78.39433493948559
 20
-34.03844506599825
 30
0.0
 10
78.37734218277633
 20
-33.83671488434127
 30
0.0
 10
78.3513724930744
 20
-33.64955991822194
 30
0.0
 10
78.31338492241119
 20
-33.47720154073838
 30
0.0
 10
78.2644014531661
 20
-33.31952067601905
 30
0.0
 10
78.20406959694118
 20
-33.17693418535681
 30
0.0
 10
78.13478745943758
 20
-33.04843064222846
 30
0.0
 10
78.05252071825771
 20
-32.93631704746955
 30
0.0
 10
77.9629757189312
 20
-32.83833341758059
 30
0.0
 10
77.8691127131717
 20
-32.75213635224891
 30
0.0
 10
77.76851441220906
 20
-32.68074553055465
 30
0.0
 10
77.66437720104274
 20
-32.62005132571607
 30
0.0
 10
77.55440622293533
 20
-32.57402163578311
 30
0.0
 10
77.43930375588299
 20
-32.54257061320702
 30
0.0
 10
77.31963139530163
 20
-32.52091976458059
 30
0.0
 10
77.23750693135226
 20
-32.518869878493
 30
0.0
 10
77.19585565615955
 20
-32.51783023250395
 30
0.0
  0
SPLINE
  5
126
330
1F
100
AcDbEntity
  8
0
  6
Continuous
 62
     7
370
    25
100
AcDbSpline
210
0.0
220
0.0
230
1.0
 70
     8
 71
     3
 72
    23
 73
    19
 74
     0
 42
0.000000001
 43
0.00000001
 40
0.0
 40
0.0
 40
0.0
 40
0.0
 40
0.0881798381694838
 40
0.1711014583648723
 40
0.2491243802953848
 40
0.3221410362654087
 40
0.3910425468490643
 40
0.4560605322404887
 40
0.5184365051726989
 40
0.578646050661039
 40
0.6363078515262154
 40
0.6920644488069975
 40
0.7448504412559733
 40
0.7962228854631256
 40
0.8468904500664485
 40
0.8972324096990164
 40
0.9483649625920657
 40
1.0
 40
1.0
 40
1.0
 40
1.0
 10
76.0357595023134
 20
-34.18928455942702
 30
0.0
 10
76.0365723465233
 20
-34.25673984004972
 30
0.0
 10
76.03814956454313
 20
-34.38762800143161
 30
0.0
 10
76.05497089628554
 20
-34.57758639951876
 30
0.0
 10
76.08217235772017
 20
-34.75461232001174
 30
0.0
 10
76.12201087831949
 20
-34.9182143085766
 30
0.0
 10
76.17076246907162
 20
-35.06900003756625
 30
0.0
 10
76.23214598496448
 20
-35.2063576949835
 30
0.0
 10
76.30492766389312
 20
-35.33031925893894
 30
0.0
 10
76.38738854454527
 20
-35.44118230453364
 30
0.0
 10
76.47869480378431
 20
-35.53791347501024
 30
0.0
 10
76.57332672030937
 20
-35.62295151850686
 30
0.0
 10
76.67195090073677
 20
-35.69582076485227
 30
0.0
 10
76.776109439191
 20
-35.75269711729223
 30
0.0
 10
76.88317462084399
 20
-35.79917694374161
 30
0.0
 10
76.9948819105761
 20
-35.83277828584991
 30
0.0
 10
77.11081021887772
 20
-35.85191898880651
 30
0.0
 10
77.18942765425248
 20
-35.85440277830303
 30
0.0
 10
77.2289285728262
 20
-35.85565074532446
 30
0.0
  0
SPLINE
  5
128
330
1F
100
AcDbEntity
  8
0
  6
Continuous
 62
     7
370
    25
100
AcDbSpline
210
0.0
220
0.0
230
1.0
 70
     8
 71
     3
 72
    19
 73
    15
 74
     0
 42
0.000000001
 43
0.00000001
 40
0.0
 40
0.0
 40
0.0
 40
0.0
 40
0.1571850368536672
 40
0.2901195170051205
 40
0.3988967841290916
 40
0.4848126105638861
 40
0.5565266501923408
 40
0.6244701388391327
 40
0.6897920827620871
 40
0.7538159800697634
 40
0.8166770462256439
 40
0.8773833296569102
 40
0.9381315035705071
 40
1.0
 40
1.0
 40
1.0
 40
1.0
 10
66.89119980680056
 20
-41.82180621826114
 30
0.0
 10
66.81944762680003
 20
-41.83136334126755
 30
0.0
 10
66.68701321559587
 20
-41.84900311135048
 30
0.0
 10
66.50624751927766
 20
-41.88195711471513
 30
0.0
 10
66.3591071900847
 20
-41.9155444015637
 30
0.0
 10
66.2415342802316
 20
-41.95103013789215
 30
0.0
 10
66.14600475427743
 20
-41.9928692977366
 30
0.0
 10
66.0668737430358
 20
-42.04484004244517
 30
0.0
 10
65.99674432043354
 20
-42.10312931923998
 30
0.0
 10
65.93977227752437
 20
-42.17132080364999
 30
0.0
 10
65.89323784884898
 20
-42.24457925954069
 30
0.0
 10
65.861884208756
 20
-42.32373570550202
 30
0.0
 10
65.8397861197198
 20
-42.40574310563419
 30
0.0
 10
65.83772337501789
 20
-42.46233983984699
 30
0.0
 10
65.83668257923644
 20
-42.49089676313293
 30
0.0
  0
SPLINE
  5
129
330
1F
100
AcDbEntity
  8
0
  6
Continuous
 62
     7
370
    25
100
AcDbSpline
210
0.0
220
0.0
230
1.0
 70
     8
 71
     3
 72
    11
 73
     7
 74
     0
 42
0.000000001
 43
0.00000001
 40
0.0
 40
0.0
 40
0.0
 40
0.0
 40
0.2016553881025816
 40
0.4336305399409008
 40
0.697639380637461
 40
1.0
 40
1.0
 40
1.0
 40
1.0
 10
67.99151030359543
 20
-42.44891959967141
 30
0.0
 10
68.01085044875593
 20
-42.40876531100729
 30
0.0
 10
68.05243861392921
 20
-42.32241936191961
 30
0.0
 10
68.08516387426222
 20
-42.17120954144963
 30
0.0
 10
68.10910026679626
 20
-41.99687295940265
 30
0.0
 10
68.11122131521554
 20
-41.87195705836189
 30
0.0
 10
68.1123536529544
 20
-41.80526975992781
 30
0.0
  0
SPLINE
  5
12A
330
1F
100
AcDbEntity
  8
0
  6
Continuous
 62
     7
370
    25
100
AcDbSpline
210
0.0
220
0.0
230
1.0
 70
     8
 71
     3
 72
    15
 73
    11
 74
     0
 42
0.000000001
 43
0.00000001
 40
0.0
 40
0.0
 40
0.0
 40
0.0
 40
0.1405533665078929
 40
0.2755162036336234
 40
0.4067860130531348
 40
0.5361320360399964
 40
0.6616486639717325
 40
0.7793756319066607
 40
0.8907748783485179
 40
1.0
 40
1.0
 40
1.0
 40
1.0
 10
66.72710725872363
 20
-43.11546607403037
 30
0.0
 10
66.79725916419369
 20
-43.11362222966223
 30
0.0
 10
66.9347726734961
 20
-43.11000788008796
 30
0.0
 10
67.13457138066691
 20
-43.07110417425395
 30
0.0
 10
67.32334559605441
 20
-43.01232904298146
 30
0.0
 10
67.4968438121247
 20
-42.92750901997692
 30
0.0
 10
67.65360982743034
 20
-42.82705231409002
 30
0.0
 10
67.78932012570534
 20
-42.71322174762407
 30
0.0
 10
67.9048970055626
 20
-42.58909287704889
 30
0.0
 10
67.96282950126465
 20
-42.49533605247746
 30
0.0
 10
67.9915103035954
 20
-42.4489195996714
 30
0.0
  0
SPLINE
  5
12B
330
1F
100
AcDbEntity
  8
0
  6
Continuous
 62
     7
370
    25
100
AcDbSpline
210
0.0
220
0.0
230
1.0
 70
     8
 71
     3
 72
    15
 73
    11
 74
     0
 42
0.000000001
 43
0.00000001
 40
0.0
 40
0.0
 40
0.0
 40
0.0
 40
0.1061584963516576
 40
0.2086435109056544
 40
0.3126827790177236
 40
0.4257489628073025
 40
0.5481445367771989
 40
0.6816950906413721
 40
0.8315091938917116
 40
1.0
 40
1.0
 40
1.0
 40
1.0
 10
65.83668257923644
 20
-42.49089676313294
 30
0.0
 10
65.83908080424011
 20
-42.53413955776403
 30
0.0
 10
65.84379426667505
 20
-42.61912878428167
 30
0.0
 10
65.890209655625
 20
-42.73924503332206
 30
0.0
 10
65.96244270510418
 20
-42.84788562395306
 30
0.0
 10
66.06289785387031
 20
-42.94396536331334
 30
0.0
 10
66.19225407312513
 20
-43.02159096265047
 30
0.0
 10
66.34811203258501
 20
-43.0773515079485
 30
0.0
 10
66.52948368017036
 20
-43.1094986926493
 30
0.0
 10
66.65870535008212
 20
-43.11340063083253
 30
0.0
 10
66.72710725872363
 20
-43.11546607403037
 30
0.0
  0
SPLINE
  5
12C
330
1F
100
AcDbEntity
  8
0
  6
Continuous
 62
     7
370
    25
100
AcDbSpline
210
0.0
220
0.0
230
1.0
 70
     8
 71
     3
 72
    15
 73
    11
 74
     0
 42
0.000000001
 43
0.00000001
 40
0.0
 40
0.0
 40
0.0
 40
0.0
 40
0.091169036894903
 40
0.1924016976612082
 40
0.3024570329705534
 40
0.4219227089474573
 40
0.5523214475357278
 40
0.691337583848815
 40
0.8412185572400873
 40
0.9999999999999999
 40
0.9999999999999999
 40
0.9999999999999999
 40
0.9999999999999999
 10
68.11616975872361
 20
-41.5686712022355
 30
0.0
 10
68.08027628643137
 20
-41.58143967989109
 30
0.0
 10
68.00452726857192
 20
-41.60838607376734
 30
0.0
 10
67.8823505678177
 20
-41.64082932800888
 30
0.0
 10
67.74885885719623
 20
-41.67645935489872
 30
0.0
 10
67.60162344080229
 20
-41.70707748405162
 30
0.0
 10
67.44245704130866
 20
-41.73950293519915
 30
0.0
 10
67.26966655046904
 20
-41.7682693382523
 30
0.0
 10
67.08476808111793
 20
-41.79620405726659
 30
0.0
 10
66.95695112491659
 20
-41.8131096700383
 30
0.0
 10
66.89119980680056
 20
-41.82180621826114
 30
0.0
  0
LINE
  5
12D
330
1F
100
AcDbEntity
  8
0
  6
Continuous
 62
     7
370
    25
100
AcDbLine
 10
80.1746569382
 20
-31.8665481812
 30
0.0
 11
80.9887595023
 21
-31.8665481812
 31
0.0
  0
LINE
  5
12E
330
1F
100
AcDbEntity
  8
0
  6
Continuous
 62
     7
370
    25
100
AcDbLine
 10
80.1746569382
 20
-36.5069327966
 30
0.0
 11
80.1746569382
 21
-31.8665481812
 31
0.0
  0
LINE
  5
12F
330
1F
100
AcDbEntity
  8
0
  6
Continuous
 62
     7
370
    25
100
AcDbLine
 10
80.9887595023
 20
-36.5069327966
 30
0.0
 11
80.1746569382
 21
-36.5069327966
 31
0.0
  0
LINE
  5
130
330
1F
100
AcDbEntity
  8
0
  6
Continuous
 62
     7
370
    25
100
AcDbLine
 10
80.9887595023
 20
-31.8665481812
 30
0.0
 11
80.9887595023
 21
-36.5069327966
 31
0.0
  0
LINE
  5
131
330
1F
100
AcDbEntity
  8
0
  6
Continuous
 62
     7
370
    25
100
AcDbLine
 10
80.1746569382
 20
-30.1569327966
 30
0.0
 11
80.9887595023
 21
-30.1569327966
 31
0.0
  0
LINE
  5
132
330
1F
100
AcDbEntity
  8
0
  6
Continuous
 62
     7
370
    25
100
AcDbLine
 10
80.1746569382
 20
-30.9710353607
 30
0.0
 11
80.1746569382
 21
-30.1569327966
 31
0.0
  0
LINE
  5
133
330
1F
100
AcDbEntity
  8
0
  6
Continuous
 62
     7
370
    25
100
AcDbLine
 10
80.9887595023
 20
-30.9710353607
 30
0.0
 11
80.1746569382
 21
-30.9710353607
 31
0.0
  0
LINE
  5
134
330
1F
100
AcDbEntity
  8
0
  6
Continuous
 62
     7
370
    25
100
AcDbLine
 10
80.9887595023
 20
-30.1569327966
 30
0.0
 11
80.9887595023
 21
-30.9710353607
 31
0.0
  0
LINE
  5
135
330
1F
100
AcDbEntity
  8
0
  6
Continuous
 62
     7
370
    25
100
AcDbLine
 10
78.3966569382
 20
-30.1569327966
 30
0.0
 11
79.2107595023
 21
-30.1569327966
 31
0.0
  0
LINE
  5
136
330
1F
100
AcDbEntity
  8
0
  6
Continuous
 62
     7
370
    25
100
AcDbLine
 10
78.3966569382
 20
-32.5025658094
 30
0.0
 11
78.3966569382
 21
-30.1569327966
 31
0.0
  0
LINE
  5
137
330
1F
100
AcDbEntity
  8
0
  6
Continuous
 62
     7
370
    25
100
AcDbLine
 10
78.3966569382
 20
-36.5069327966
 30
0.0
 11
78.3966569382
 21
-35.8060413703
 31
0.0
  0
LINE
  5
138
330
1F
100
AcDbEntity
  8
0
  6
Continuous
 62
     7
370
    25
100
AcDbLine
 10
79.2107595023
 20
-36.5069327966
 30
0.0
 11
78.3966569382
 21
-36.5069327966
 31
0.0
  0
LINE
  5
139
330
1F
100
AcDbEntity
  8
0
  6
Continuous
 62
     7
370
    25
100
AcDbLine
 10
79.2107595023
 20
-30.1569327966
 30
0.0
 11
79.2107595023
 21
-36.5069327966
 31
0.0
  0
LINE
  5
13A
330
1F
100
AcDbEntity
  8
0
  6
Continuous
 62
     7
370
    25
100
AcDbLine
 10
70.5812723228
 20
-23.5962107959
 30
0.0
 11
71.3953748869
 21
-23.5962107959
 31
0.0
  0
LINE
  5
13B
330
1F
100
AcDbEntity
  8
0
  6
Continuous
 62
     7
370
    25
100
AcDbLine
 10
70.5812723228
 20
-24.41031336
 30
0.0
 11
70.5812723228
 21
-23.5962107959
 31
0.0
  0
LINE
  5
13C
330
1F
100
AcDbEntity
  8
0
  6
Continuous
 62
     7
370
    25
100
AcDbLine
 10
71.3953748869
 20
-24.41031336
 30
0.0
 11
70.5812723228
 21
-24.41031336
 31
0.0
  0
LINE
  5
13D
330
1F
100
AcDbEntity
  8
0
  6
Continuous
 62
     7
370
    25
100
AcDbLine
 10
71.3953748869
 20
-23.5962107959
 30
0.0
 11
71.3953748869
 21
-24.41031336
 31
0.0
  0
LINE
  5
13E
330
1F
100
AcDbEntity
  8
0
  6
Continuous
 62
     7
370
    25
100
AcDbLine
 10
70.5812723228
 20
-25.3058261805
 30
0.0
 11
71.3953748869
 21
-25.3058261805
 31
0.0
  0
LINE
  5
13F
330
1F
100
AcDbEntity
  8
0
  6
Continuous
 62
     7
370
    25
100
AcDbLine
 10
70.5812723228
 20
-29.9462107959
 30
0.0
 11
70.5812723228
 21
-25.3058261805
 31
0.0
  0
LINE
  5
140
330
1F
100
AcDbEntity
  8
0
  6
Continuous
 62
     7
370
    25
100
AcDbLine
 10
71.3953748869
 20
-29.9462107959
 30
0.0
 11
70.5812723228
 21
-29.9462107959
 31
0.0
  0
LINE
  5
141
330
1F
100
AcDbEntity
  8
0
  6
Continuous
 62
     7
370
    25
100
AcDbLine
 10
71.3953748869
 20
-25.3058261805
 30
0.0
 11
71.3953748869
 21
-29.9462107959
 31
0.0
  0
LINE
  5
142
330
1F
100
AcDbEntity
  8
0
  6
Continuous
 62
     7
370
    25
100
AcDbLine
 10
73.1603492459
 20
-26.0385184882
 30
0.0
 11
73.1603492459
 21
-28.6716314689
 31
0.0
  0
LINE
  5
143
330
1F
100
AcDbEntity
  8
0
  6
Continuous
 62
     7
370
    25
100
AcDbLine
 10
73.8930415536
 20
-26.0385184882
 30
0.0
 11
73.1603492459
 21
-26.0385184882
 31
0.0
  0
LINE
  5
144
330
1F
100
AcDbEntity
  8
0
  6
Continuous
 62
     7
370
    25
100
AcDbLine
 10
73.8930415536
 20
-25.3058261805
 30
0.0
 11
73.8930415536
 21
-26.0385184882
 31
0.0
  0
LINE
  5
145
330
1F
100
AcDbEntity
  8
0
  6
Continuous
 62
     7
370
    25
100
AcDbLine
 10
73.1603492459
 20
-25.3058261805
 30
0.0
 11
73.8930415536
 21
-25.3058261805
 31
0.0
  0
LINE
  5
146
330
1F
100
AcDbEntity
  8
0
  6
Continuous
 62
     7
370
    25
100
AcDbLine
 10
73.1603492459
 20
-23.7132380394
 30
0.0
 11
73.1603492459
 21
-25.3058261805
 31
0.0
  0
LINE
  5
147
330
1F
100
AcDbEntity
  8
0
  6
Continuous
 62
     7
370
    25
100
AcDbLine
 10
72.3462466818
 20
-24.1762588728
 30
0.0
 11
73.1603492459
 21
-23.7132380394
 31
0.0
  0
LINE
  5
148
330
1F
100
AcDbEntity
  8
0
  6
Continuous
 62
     7
370
    25
100
AcDbLine
 10
72.3462466818
 20
-25.3058261805
 30
0.0
 11
72.3462466818
 21
-24.1762588728
 31
0.0
  0
LINE
  5
149
330
1F
100
AcDbEntity
  8
0
  6
Continuous
 62
     7
370
    25
100
AcDbLine
 10
71.7763748869
 20
-25.3058261805
 30
0.0
 11
72.3462466818
 21
-25.3058261805
 31
0.0
  0
LINE
  5
14A
330
1F
100
AcDbEntity
  8
0
  6
Continuous
 62
     7
370
    25
100
AcDbLine
 10
71.7763748869
 20
-26.0385184882
 30
0.0
 11
71.7763748869
 21
-25.3058261805
 31
0.0
  0
LINE
  5
14B
330
1F
100
AcDbEntity
  8
0
  6
Continuous
 62
     7
370
    25
100
AcDbLine
 10
72.3462466818
 20
-26.0385184882
 30
0.0
 11
71.7763748869
 21
-26.0385184882
 31
0.0
  0
LINE
  5
14C
330
1F
100
AcDbEntity
  8
0
  6
Continuous
 62
     7
370
    25
100
AcDbLine
 10
72.3462466818
 20
-28.642374658
 30
0.0
 11
72.3462466818
 21
-26.0385184882
 31
0.0
  0
LINE
  5
14D
330
1F
100
AcDbEntity
  8
0
  6
Continuous
 62
     7
370
    25
100
AcDbLine
 10
73.8930415536
 20
-29.2745761805
 30
0.0
 11
73.97445181
 21
-29.9576591132
 31
0.0
  0
LINE
  5
14E
330
1F
100
AcDbEntity
  8
0
  6
Continuous
 62
     7
370
    25
100
AcDbLine
 10
66.3027562972
 20
-36.5069327966
 30
0.0
 11
66.3027562972
 21
-33.5469067549
 31
0.0
  0
LINE
  5
14F
330
1F
100
AcDbEntity
  8
0
  6
Continuous
 62
     7
370
    25
100
AcDbLine
 10
67.1168588613
 20
-36.5069327966
 30
0.0
 11
66.3027562972
 21
-36.5069327966
 31
0.0
  0
LINE
  5
150
330
1F
100
AcDbEntity
  8
0
  6
Continuous
 62
     7
370
    25
100
AcDbLine
 10
67.1168588613
 20
-33.859827428
 30
0.0
 11
67.1168588613
 21
-36.5069327966
 31
0.0
  0
LINE
  5
151
330
1F
100
AcDbEntity
  8
0
  6
Continuous
 62
     7
370
    25
100
AcDbLine
 10
68.9892947587
 20
-36.5069327966
 30
0.0
 11
68.9892947587
 21
-33.6372212581
 31
0.0
  0
LINE
  5
152
330
1F
100
AcDbEntity
  8
0
  6
Continuous
 62
     7
370
    25
100
AcDbLine
 10
69.8033973228
 20
-36.5069327966
 30
0.0
 11
68.9892947587
 21
-36.5069327966
 31
0.0
  0
LINE
  5
153
330
1F
100
AcDbEntity
  8
0
  6
Continuous
 62
     7
370
    25
100
AcDbLine
 10
69.8033973228
 20
-33.3370209376
 30
0.0
 11
69.8033973228
 21
-36.5069327966
 31
0.0
  0
LINE
  5
154
330
1F
100
AcDbEntity
  8
0
  6
Continuous
 62
     7
370
    25
100
AcDbLine
 10
64.4303203997
 20
-31.8665481812
 30
0.0
 11
64.4303203997
 21
-32.5903362421
 31
0.0
  0
LINE
  5
155
330
1F
100
AcDbEntity
  8
0
  6
Continuous
 62
     7
370
    25
100
AcDbLine
 10
63.6162178356
 20
-31.8665481812
 30
0.0
 11
64.4303203997
 21
-31.8665481812
 31
0.0
  0
LINE
  5
156
330
1F
100
AcDbEntity
  8
0
  6
Continuous
 62
     7
370
    25
100
AcDbLine
 10
63.6162178356
 20
-36.5069327966
 30
0.0
 11
63.6162178356
 21
-31.8665481812
 31
0.0
  0
LINE
  5
157
330
1F
100
AcDbEntity
  8
0
  6
Continuous
 62
     7
370
    25
100
AcDbLine
 10
64.4303203997
 20
-36.5069327966
 30
0.0
 11
63.6162178356
 21
-36.5069327966
 31
0.0
  0
LINE
  5
158
330
1F
100
AcDbEntity
  8
0
  6
Continuous
 62
     7
370
    25
100
AcDbLine
 10
64.4303203997
 20
-34.1434912902
 30
0.0
 11
64.4303203997
 21
-36.5069327966
 31
0.0
  0
LINE
  5
159
330
1F
100
AcDbEntity
  8
0
  6
Continuous
 62
     7
370
    25
100
AcDbLine
 10
70.67245181
 20
-37.4167481253
 30
0.0
 11
70.67245181
 21
-39.7534768913
 31
0.0
  0
LINE
  5
15A
330
1F
100
AcDbEntity
  8
0
  6
Continuous
 62
     7
370
    25
100
AcDbLine
 10
69.8583492459
 20
-37.4167481253
 30
0.0
 11
70.67245181
 21
-37.4167481253
 31
0.0
  0
LINE
  5
15B
330
1F
100
AcDbEntity
  8
0
  6
Continuous
 62
     7
370
    25
100
AcDbLine
 10
70.67245181
 20
-43.7667481253
 30
0.0
 11
69.8583492459
 21
-43.7667481253
 31
0.0
  0
LINE
  5
15C
330
1F
100
AcDbEntity
  8
0
  6
Continuous
 62
     7
370
    25
100
AcDbLine
 10
70.67245181
 20
-43.0709448401
 30
0.0
 11
70.67245181
 21
-43.7667481253
 31
0.0
  0
LINE
  5
15D
330
1F
100
AcDbEntity
  8
0
  6
Continuous
 62
     7
370
    25
100
AcDbLine
 10
63.6060415536
 20
-37.4167481253
 30
0.0
 11
64.4201441177
 21
-37.4167481253
 31
0.0
  0
LINE
  5
15E
330
1F
100
AcDbEntity
  8
0
  6
Continuous
 62
     7
370
    25
100
AcDbLine
 10
63.6060415536
 20
-43.7667481253
 30
0.0
 11
63.6060415536
 21
-37.4167481253
 31
0.0
  0
LINE
  5
15F
330
1F
100
AcDbEntity
  8
0
  6
Continuous
 62
     7
370
    25
100
AcDbLine
 10
64.4201441177
 20
-43.7667481253
 30
0.0
 11
63.6060415536
 21
-43.7667481253
 31
0.0
  0
LINE
  5
160
330
1F
100
AcDbEntity
  8
0
  6
Continuous
 62
     7
370
    25
100
AcDbLine
 10
64.4201441177
 20
-37.4167481253
 30
0.0
 11
64.4201441177
 21
-43.7667481253
 31
0.0
  0
LINE
  5
161
330
1F
100
AcDbEntity
  8
0
  6
Continuous
 62
     7
370
    25
100
AcDbLine
 10
85.6975287331
 20
-33.4985694152
 30
0.0
 11
85.6975287331
 21
-34.4920289505
 31
0.0
  0
LINE
  5
162
330
1F
100
AcDbEntity
  8
0
  6
Continuous
 62
     7
370
    25
100
AcDbLine
 10
82.6039389895
 20
-33.2505225402
 30
0.0
 11
81.7898364254
 21
-33.1691122838
 31
0.0
  0
LINE
  5
163
330
1F
100
AcDbEntity
  8
0
  6
Continuous
 62
     7
370
    25
100
AcDbLine
 10
85.9417595023
 20
-36.5069327966
 30
0.0
 11
85.1276569382
 21
-36.5069327966
 31
0.0
  0
LINE
  5
164
330
1F
100
AcDbEntity
  8
0
  6
Continuous
 62
     7
370
    25
100
AcDbLine
 10
27.237094819
 20
-43.878722913
 30
0.0
 11
45.4723290348
 21
-43.878722913
 31
0.0
  0
LINE
  5
165
330
1F
100
AcDbEntity
  8
0
  6
Continuous
 62
     7
370
    25
100
AcDbLine
 10
45.4723290348
 20
-43.878722913
 30
0.0
 11
45.4723290348
 21
-39.2875823835
 31
0.0
  0
LINE
  5
166
330
1F
100
AcDbEntity
  8
0
  6
Continuous
 62
     7
370
    25
100
AcDbLine
 10
45.4723290348
 20
-39.2875823835
 30
0.0
 11
31.8282353485
 21
-39.2875823835
 31
0.0
  0
LINE
  5
167
330
1F
100
AcDbEntity
  8
0
  6
Continuous
 62
     7
370
    25
100
AcDbLine
 10
31.8282353485
 20
-39.2875823835
 30
0.0
 11
31.8282353485
 21
-25.6111567216
 31
0.0
  0
LINE
  5
168
330
1F
100
AcDbEntity
  8
0
  6
Continuous
 62
     7
370
    25
100
AcDbLine
 10
31.8282353485
 20
-25.6111567216
 30
0.0
 11
27.237094819
 21
-25.6111567216
 31
0.0
  0
LINE
  5
169
330
1F
100
AcDbEntity
  8
0
  6
Continuous
 62
     7
370
    25
100
AcDbLine
 10
27.237094819
 20
-25.6111567216
 30
0.0
 11
27.237094819
 21
-43.878722913
 31
0.0
  0
LINE
  5
16A
330
1F
100
AcDbEntity
  8
0
  6
Continuous
 62
     7
370
    25
100
AcDbLine
 10
40.9458524564
 20
-16.6228675159
 30
0.0
 11
40.9458524564
 21
-30.2346292267
 31
0.0
  0
LINE
  5
16B
330
1F
100
AcDbEntity
  8
0
  6
Continuous
 62
     7
370
    25
100
AcDbLine
 10
40.9458524564
 20
-30.2346292267
 30
0.0
 11
54.428286265
 21
-30.2346292267
 31
0.0
  0
LINE
  5
16C
330
1F
100
AcDbEntity
  8
0
  6
Continuous
 62
     7
370
    25
100
AcDbLine
 10
54.428286265
 20
-43.7667481253
 30
0.0
 11
58.987094819
 21
-43.7667481253
 31
0.0
  0
LINE
  5
16D
330
1F
100
AcDbEntity
  8
0
  6
Continuous
 62
     7
370
    25
100
AcDbLine
 10
58.987094819
 20
-43.7667481253
 30
0.0
 11
58.987094819
 21
-25.6111567216
 31
0.0
  0
LINE
  5
16E
330
1F
100
AcDbEntity
  8
0
  6
Continuous
 62
     7
370
    25
100
AcDbLine
 10
58.987094819
 20
-25.6111567216
 30
0.0
 11
45.4723290348
 21
-25.6111567216
 31
0.0
  0
LINE
  5
16F
330
1F
100
AcDbEntity
  8
0
  6
Continuous
 62
     7
370
    25
100
AcDbLine
 10
45.4723290348
 20
-25.6111567216
 30
0.0
 11
45.4723290348
 21
-12.0640589619
 31
0.0
  0
LINE
  5
170
330
1F
100
AcDbEntity
  8
0
  6
Continuous
 62
     7
370
    25
100
AcDbLine
 10
45.4723290348
 20
-12.0640589619
 30
0.0
 11
27.237094819
 21
-12.0640589619
 31
0.0
  0
LINE
  5
171
330
1F
100
AcDbEntity
  8
0
  6
Continuous
 62
     7
370
    25
100
AcDbLine
 10
27.237094819
 20
-12.0640589619
 30
0.0
 11
27.237094819
 21
-16.6228675159
 31
0.0
  0
LINE
  5
172
330
1F
100
AcDbEntity
  8
0
  6
Continuous
 62
     7
370
    25
100
AcDbLine
 10
100.711
 20
-5.45
 30
0.0
 11
-100.711
 21
-5.45
 31
0.0
  0
LINE
  5
173
330
1F
100
AcDbEntity
  8
0
  6
Continuous
 62
     7
370
    25
100
AcDbLine
 10
102.5
 20
-58.45
 30
0.0
 11
102.5
 21
-7.239
 31
0.0
  0
LINE
  5
174
330
1F
100
AcDbEntity
  8
0
  6
Continuous
 62
     7
370
    25
100
AcDbLine
 10
-102.5
 20
-58.45
 30
0.0
 11
102.5
 21
-58.45
 31
0.0
  0
LINE
  5
175
330
1F
100
AcDbEntity
  8
0
  6
Continuous
 62
     7
370
    25
100
AcDbLine
 10
66.3027562972
 20
-29.9462107959
 30
0.0
 11
66.3027562972
 21
-26.9861847542
 31
0.0
  0
LINE
  5
176
330
1F
100
AcDbEntity
  8
0
  6
Continuous
 62
     7
370
    25
100
AcDbLine
 10
67.1168588613
 20
-29.9462107959
 30
0.0
 11
66.3027562972
 21
-29.9462107959
 31
0.0
  0
LINE
  5
177
330
1F
100
AcDbEntity
  8
0
  6
Continuous
 62
     7
370
    25
100
AcDbLine
 10
67.1168588613
 20
-27.2991054273
 30
0.0
 11
67.1168588613
 21
-29.9462107959
 31
0.0
  0
LINE
  5
178
330
1F
100
AcDbEntity
  8
0
  6
Continuous
 62
     7
370
    25
100
AcDbLine
 10
69.8033973228
 20
-29.9462107959
 30
0.0
 11
68.9892947587
 21
-29.9462107959
 31
0.0
  0
LINE
  5
179
330
1F
100
AcDbEntity
  8
0
  6
Continuous
 62
     7
370
    25
100
AcDbLine
 10
64.4303203997
 20
-25.3058261805
 30
0.0
 11
64.4303203997
 21
-26.0296142414
 31
0.0
  0
LINE
  5
17A
330
1F
100
AcDbEntity
  8
0
  6
Continuous
 62
     7
370
    25
100
AcDbLine
 10
63.6162178356
 20
-29.9462107959
 30
0.0
 11
63.6162178356
 21
-25.3058261805
 31
0.0
  0
LINE
  5
17B
330
1F
100
AcDbEntity
  8
0
  6
Continuous
 62
     7
370
    25
100
AcDbLine
 10
64.4303203997
 20
-29.9462107959
 30
0.0
 11
63.6162178356
 21
-29.9462107959
 31
0.0
  0
LINE
  5
17C
330
1F
100
AcDbEntity
  8
0
  6
Continuous
 62
     7
370
    25
100
AcDbLine
 10
64.4303203997
 20
-27.5827692894
 30
0.0
 11
64.4303203997
 21
-29.9462107959
 31
0.0
  0
LINE
  5
17D
330
1F
100
AcDbEntity
  8
0
  6
Continuous
 62
     7
370
    25
100
AcDbLine
 10
69.0116825792
 20
-40.7583847439
 30
0.0
 11
69.0116825792
 21
-41.7518442792
 31
0.0
  0
LINE
  5
17E
330
1F
100
AcDbEntity
  8
0
  6
Continuous
 62
     7
370
    25
100
AcDbLine
 10
65.9180928356
 20
-40.5103378689
 30
0.0
 11
65.1039902715
 21
-40.4289276125
 31
0.0
  0
LINE
  5
17F
330
1F
100
AcDbEntity
  8
0
  6
Continuous
 62
     7
370
    25
100
AcDbLine
 10
69.2559133485
 20
-43.7667481253
 30
0.0
 11
68.4418107844
 21
-43.7667481253
 31
0.0
  0
LINE
  5
180
330
1F
100
AcDbEntity
  8
0
  6
Continuous
 62
     7
370
    25
100
AcDbLine
 10
74.742404935
 20
-34.3902661299
 30
0.0
 11
71.3269902715
 21
-34.3902661299
 31
0.0
  0
LINE
  5
181
330
1F
100
AcDbEntity
  8
0
  6
Continuous
 62
     7
370
    25
100
AcDbLine
 10
73.9232142299
 20
-35.1229584376
 30
0.0
 11
74.7207803356
 21
-35.204368694
 31
0.0
  0
LINE
  5
182
330
1F
100
AcDbEntity
  8
0
  6
Continuous
 62
     7
370
    25
100
AcDbLine
 10
54.428286265
 20
-30.2346292267
 30
0.0
 11
54.428286265
 21
-43.7667481253
 31
0.0
  0
LINE
  5
183
330
1F
100
AcDbEntity
  8
0
  6
Continuous
 62
     7
370
    25
100
AcDbLine
 10
69.8583492459
 20
-43.7667481253
 30
0.0
 11
69.8583492459
 21
-37.4167481253
 31
0.0
  0
LINE
  5
184
330
1F
100
AcDbEntity
  8
0
  6
Continuous
 62
     7
370
    25
100
AcDbLine
 10
68.9892947587
 20
-29.9462107959
 30
0.0
 11
68.9892947587
 21
-27.0764992574
 31
0.0
  0
LINE
  5
185
330
1F
100
AcDbEntity
  8
0
  6
Continuous
 62
     7
370
    25
100
AcDbLine
 10
27.237094819
 20
-16.6228675159
 30
0.0
 11
40.9458524564
 21
-16.6228675159
 31
0.0
  0
LINE
  5
186
330
1F
100
AcDbEntity
  8
0
  6
Continuous
 62
     7
370
    25
100
AcDbLine
 10
63.6162178356
 20
-25.3058261805
 30
0.0
 11
64.4303203997
 21
-25.3058261805
 31
0.0
  0
LINE
  5
187
330
1F
100
AcDbEntity
  8
0
  6
Continuous
 62
     7
370
    25
100
AcDbLine
 10
-102.5
 20
-7.239
 30
0.0
 11
-102.5
 21
-58.45
 31
0.0
  0
LINE
  5
188
330
1F
100
AcDbEntity
  8
0
  6
Continuous
 62
     7
370
    25
100
AcDbLine
 10
69.8033973228
 20
-26.7762989369
 30
0.0
 11
69.8033973228
 21
-29.9462107959
 31
0.0
  0
LINE
  5
189
330
1F
100
AcDbEntity
  8
0
  6
Continuous
 62
     7
370
    25
100
AcDbLine
 10
71.3269902715
 20
-33.6575738222
 30
0.0
 11
73.9321184767
 21
-33.6575738222
 31
0.0
  0
LINE
  5
18A
330
1F
100
AcDbEntity
  8
0
  6
Continuous
 62
     7
370
    25
100
AcDbLine
 10
84.7981998068
 20
-34.5454544312
 30
0.0
 11
84.8020159126
 21
-34.3088558735
 31
0.0
  0
LINE
  5
18B
330
1F
100
AcDbEntity
  8
0
  6
Continuous
 62
     7
370
    25
100
AcDbLine
 10
68.112353653
 20
-41.8052697599
 30
0.0
 11
68.1161697587
 21
-41.5686712022
 31
0.0
  0
ARC
  5
18C
330
1F
100
AcDbEntity
  8
0
  6
Continuous
 62
     7
370
    25
100
AcDbCircle
 10
100.711
 20
-7.239
 30
0.0
 40
1.789000000000044
100
AcDbArc
 50
0.0
 51
90.0
  0
ARC
  5
18D
330
1F
100
AcDbEntity
  8
0
  6
Continuous
 62
     7
370
    25
100
AcDbCircle
 10
-100.711
 20
-7.239
 30
0.0
 40
1.789000000000058
100
AcDbArc
 50
90.0
 51
180.0
  0
ENDSEC
  0
SECTION
  2
OBJECTS
  0
DICTIONARY
  5
C
330
0
100
AcDbDictionary
281
     1
  3
ACAD_GROUP
350
D
  3
ACAD_LAYOUT
350
1A
  3
ACAD_MLINESTYLE
350
17
  3
ACAD_PLOTSETTINGS
350
19
  3
ACAD_PLOTSTYLENAME
350
E
  3
ACAD_SCALELIST
350
47
  0
DICTIONARY
  5
D
102
{ACAD_REACTORS
330
C
102
}
330
C
100
AcDbDictionary
281
     1
  0
DICTIONARY
  5
1A
102
{ACAD_REACTORS
330
C
102
}
330
C
100
AcDbDictionary
281
     1
  3
Layout1
350
1E
  3
Layout2
350
26
  3
Model
350
22
  0
DICTIONARY
  5
17
102
{ACAD_REACTORS
330
C
102
}
330
C
100
AcDbDictionary
281
     1
  3
Standard
350
18
  0
DICTIONARY
  5
19
102
{ACAD_REACTORS
330
C
102
}
330
C
100
AcDbDictionary
281
     1
  0
ACDBDICTIONARYWDFLT
  5
E
102
{ACAD_REACTORS
330
C
102
}
330
C
100
AcDbDictionary
281
     1
  3
Normal
350
F
100
AcDbDictionaryWithDefault
340
F
  0
DICTIONARY
  5
47
102
{ACAD_REACTORS
330
C
102
}
330
C
100
AcDbDictionary
281
     1
  3
A0
350
48
  3
A1
350
49
  3
A2
350
4A
  3
A3
350
4B
  3
A4
350
4C
  3
A5
350
4D
  3
A6
350
4E
  3
A7
350
4F
  3
A8
350
50
  3
A9
350
51
  3
B0
350
52
  3
B1
350
53
  3
B2
350
54
  3
B3
350
55
  3
B4
350
56
  3
B5
350
57
  3
B6
350
58
  3
B7
350
59
  3
B8
350
5A
  3
B9
350
5B
  3
C0
350
5C
  3
C1
350
5D
  3
C2
350
5E
  3
C3
350
5F
  3
C4
350
60
  3
C5
350
61
  3
C6
350
62
  3
C7
350
63
  3
C8
350
64
  3
C9
350
65
  3
D0
350
66
  3
D1
350
67
  3
D2
350
68
  0
LAYOUT
  5
1E
102
{ACAD_REACTORS
330
1A
102
}
330
1A
100
AcDbPlotSettings
  1

  2
none_device
  4

  6

 40
0.0
 41
0.0
 42
0.0
 43
0.0
 44
0.0
 45
0.0
 46
0.0
 47
0.0
 48
0.0
 49
0.0
140
0.0
141
0.0
142
1.0
143
1.0
 70
   688
 72
     1
 73
     0
 74
     5
  7

 75
    16
147
1.0
148
0.0
149
0.0
100
AcDbLayout
  1
Layout1
 70
     1
 71
     1
 10
0.0
 20
0.0
 11
420.0
 21
297.0
 12
0.0
 22
0.0
 32
0.0
 14
1.0000000000E+20
 24
1.0000000000E+20
 34
1.0000000000E+20
 15
-1.0000000000E+20
 25
-1.0000000000E+20
 35
-1.0000000000E+20
146
0.0
 13
0.0
 23
0.0
 33
0.0
 16
1.0
 26
0.0
 36
0.0
 17
0.0
 27
1.0
 37
0.0
 76
     0
330
1B
  0
LAYOUT
  5
26
102
{ACAD_REACTORS
330
1A
102
}
330
1A
100
AcDbPlotSettings
  1

  2
none_device
  4

  6

 40
0.0
 41
0.0
 42
0.0
 43
0.0
 44
0.0
 45
0.0
 46
0.0
 47
0.0
 48
0.0
 49
0.0
140
0.0
141
0.0
142
1.0
143
1.0
 70
   688
 72
     1
 73
     0
 74
     5
  7

 75
    16
147
1.0
148
0.0
149
0.0
100
AcDbLayout
  1
Layout2
 70
     1
 71
     2
 10
0.0
 20
0.0
 11
0.0
 21
0.0
 12
0.0
 22
0.0
 32
0.0
 14
0.0
 24
0.0
 34
0.0
 15
0.0
 25
0.0
 35
0.0
146
0.0
 13
0.0
 23
0.0
 33
0.0
 16
1.0
 26
0.0
 36
0.0
 17
0.0
 27
1.0
 37
0.0
 76
     0
330
23
  0
LAYOUT
  5
22
102
{ACAD_REACTORS
330
1A
102
}
330
1A
100
AcDbPlotSettings
  1

  2
none_device
  4
ANSI_A_(11.00_x_8.50_Inches)
  6

 40
6.35
 41
19.05
 42
6.35000508
 43
19.05000254
 44
279.4
 45
215.9
 46
133.34999746
 47
132.0100558032
 48
0.0
 49
0.0
140
0.0
141
0.0
142
0.0531219512
143
1.0
 70
  1696
 72
     0
 73
     0
 74
     0
  7

 75
     0
147
0.0179189148
148
-1300.4909072572
149
0.0
100
AcDbLayout
  1
Model
 70
     1
 71
     0
 10
0.0
 20
0.0
 11
420.0
 21
297.0
 12
0.0
 22
0.0
 32
0.0
 14
-102.5
 24
-58.45
 34
0.0
 15
102.5
 25
-5.45
 35
0.0
146
0.0
 13
0.0
 23
0.0
 33
0.0
 16
1.0
 26
0.0
 36
0.0
 17
0.0
 27
1.0
 37
0.0
 76
     0
330
1F
331
29
  0
MLINESTYLE
  5
18
102
{ACAD_REACTORS
330
17
102
}
330
17
100
AcDbMlineStyle
  2
Standard
 70
     0
  3

 62
   256
 51
90.0
 52
90.0
 71
     2
 49
0.5
 62
   256
  6
BYLAYER
 49
-0.5
 62
   256
  6
BYLAYER
  0
ACDBPLACEHOLDER
  5
F
102
{ACAD_REACTORS
330
E
102
}
330
E
  0
SCALE
  5
48
102
{ACAD_REACTORS
330
47
102
}
330
47
100
AcDbScale
 70
     0
300
1:1
140
1.0
141
1.0
290
     1
  0
SCALE
  5
49
102
{ACAD_REACTORS
330
47
102
}
330
47
100
AcDbScale
 70
     0
300
1:2
140
1.0
141
2.0
290
     0
  0
SCALE
  5
4A
102
{ACAD_REACTORS
330
47
102
}
330
47
100
AcDbScale
 70
     0
300
1:4
140
1.0
141
4.0
290
     0
  0
SCALE
  5
4B
102
{ACAD_REACTORS
330
47
102
}
330
47
100
AcDbScale
 70
     0
300
1:5
140
1.0
141
5.0
290
     0
  0
SCALE
  5
4C
102
{ACAD_REACTORS
330
47
102
}
330
47
100
AcDbScale
 70
     0
300
1:8
140
1.0
141
8.0
290
     0
  0
SCALE
  5
4D
102
{ACAD_REACTORS
330
47
102
}
330
47
100
AcDbScale
 70
     0
300
1:10
140
1.0
141
10.0
290
     0
  0
SCALE
  5
4E
102
{ACAD_REACTORS
330
47
102
}
330
47
100
AcDbScale
 70
     0
300
1:16
140
1.0
141
16.0
290
     0
  0
SCALE
  5
4F
102
{ACAD_REACTORS
330
47
102
}
330
47
100
AcDbScale
 70
     0
300
1:20
140
1.0
141
20.0
290
     0
  0
SCALE
  5
50
102
{ACAD_REACTORS
330
47
102
}
330
47
100
AcDbScale
 70
     0
300
1:30
140
1.0
141
30.0
290
     0
  0
SCALE
  5
51
102
{ACAD_REACTORS
330
47
102
}
330
47
100
AcDbScale
 70
     0
300
1:40
140
1.0
141
40.0
290
     0
  0
SCALE
  5
52
102
{ACAD_REACTORS
330
47
102
}
330
47
100
AcDbScale
 70
     0
300
1:50
140
1.0
141
50.0
290
     0
  0
SCALE
  5
53
102
{ACAD_REACTORS
330
47
102
}
330
47
100
AcDbScale
 70
     0
300
1:100
140
1.0
141
100.0
290
     0
  0
SCALE
  5
54
102
{ACAD_REACTORS
330
47
102
}
330
47
100
AcDbScale
 70
     0
300
2:1
140
2.0
141
1.0
290
     0
  0
SCALE
  5
55
102
{ACAD_REACTORS
330
47
102
}
330
47
100
AcDbScale
 70
     0
300
4:1
140
4.0
141
1.0
290
     0
  0
SCALE
  5
56
102
{ACAD_REACTORS
330
47
102
}
330
47
100
AcDbScale
 70
     0
300
8:1
140
8.0
141
1.0
290
     0
  0
SCALE
  5
57
102
{ACAD_REACTORS
330
47
102
}
330
47
100
AcDbScale
 70
     0
300
10:1
140
10.0
141
1.0
290
     0
  0
SCALE
  5
58
102
{ACAD_REACTORS
330
47
102
}
330
47
100
AcDbScale
 70
     0
300
100:1
140
100.0
141
1.0
290
     0
  0
SCALE
  5
59
102
{ACAD_REACTORS
330
47
102
}
330
47
100
AcDbScale
 70
     0
300
1/128" = 1'-0"
140
0.0078125
141
12.0
290
     0
  0
SCALE
  5
5A
102
{ACAD_REACTORS
330
47
102
}
330
47
100
AcDbScale
 70
     0
300
1/64" = 1'-0"
140
0.015625
141
12.0
290
     0
  0
SCALE
  5
5B
102
{ACAD_REACTORS
330
47
102
}
330
47
100
AcDbScale
 70
     0
300
1/32" = 1'-0"
140
0.03125
141
12.0
290
     0
  0
SCALE
  5
5C
102
{ACAD_REACTORS
330
47
102
}
330
47
100
AcDbScale
 70
     0
300
1/16" = 1'-0"
140
0.0625
141
12.0
290
     0
  0
SCALE
  5
5D
102
{ACAD_REACTORS
330
47
102
}
330
47
100
AcDbScale
 70
     0
300
3/32" = 1'-0"
140
0.09375
141
12.0
290
     0
  0
SCALE
  5
5E
102
{ACAD_REACTORS
330
47
102
}
330
47
100
AcDbScale
 70
     0
300
1/8" = 1'-0"
140
0.125
141
12.0
290
     0
  0
SCALE
  5
5F
102
{ACAD_REACTORS
330
47
102
}
330
47
100
AcDbScale
 70
     0
300
3/16" = 1'-0"
140
0.1875
141
12.0
290
     0
  0
SCALE
  5
60
102
{ACAD_REACTORS
330
47
102
}
330
47
100
AcDbScale
 70
     0
300
1/4" = 1'-0"
140
0.25
141
12.0
290
     0
  0
SCALE
  5
61
102
{ACAD_REACTORS
330
47
102
}
330
47
100
AcDbScale
 70
     0
300
3/8" = 1'-0"
140
0.375
141
12.0
290
     0
  0
SCALE
  5
62
102
{ACAD_REACTORS
330
47
102
}
330
47
100
AcDbScale
 70
     0
300
1/2" = 1'-0"
140
0.5
141
12.0
290
     0
  0
SCALE
  5
63
102
{ACAD_REACTORS
330
47
102
}
330
47
100
AcDbScale
 70
     0
300
3/4" = 1'-0"
140
0.75
141
12.0
290
     0
  0
SCALE
  5
64
102
{ACAD_REACTORS
330
47
102
}
330
47
100
AcDbScale
 70
     0
300
1" = 1'-0"
140
1.0
141
12.0
290
     0
  0
SCALE
  5
65
102
{ACAD_REACTORS
330
47
102
}
330
47
100
AcDbScale
 70
     0
300
1-1/2" = 1'-0"
140
1.5
141
12.0
290
     0
  0
SCALE
  5
66
102
{ACAD_REACTORS
330
47
102
}
330
47
100
AcDbScale
 70
     0
300
3" = 1'-0"
140
3.0
141
12.0
290
     0
  0
SCALE
  5
67
102
{ACAD_REACTORS
330
47
102
}
330
47
100
AcDbScale
 70
     0
300
6" = 1'-0"
140
6.0
141
12.0
290
     0
  0
SCALE
  5
68
102
{ACAD_REACTORS
330
47
102
}
330
47
100
AcDbScale
 70
     0
300
1'-0" = 1'-0"
140
12.0
141
12.0
290
     0
  0
ENDSEC
  0
EOF
