  0
SECTION
  2
HEADER
  9
$ACADVER
  1
AC1009
  9
$FILLMODE
 70
1
  9
$EXTMIN
 10
-1.073418
 20
-4.702559
 30
0.000000
  9
$EXTMAX
 10
20.952559
 20
13.988000
 30
0.000000
  0
ENDSEC
  0
SECTION
  2
TABLES
  0
TABLE
  2
LTYPE
 70
1
  0
LTYPE
  2
CONTINUOUS
 70
64
  3
Solid line
 72
65
 73
0
 40
0
  0
ENDTAB
  0
TABLE
  2
LAYER
 70
255
  0
LAYER
  2
20
 70
64
 62
53
  6
CONTINUOUS
  0
ENDTAB
  0
ENDSEC
  0
SECTION
  2
BLOCKS
  0
BLOCK
  8
0
  2
RECT
 70
64
 10
0.000000
 20
0.000000
 30
0.000000
  3
RECT
  0
SOLID
  8
0
 10
-0.500000
 20
-0.500000
 30
0.000000
 11
0.500000
 21
-0.500000
 31
0.000000
 12
-0.500000
 22
0.500000
 32
0.000000
 13
0.500000
 23
0.500000
 33
0.000000
  0
ENDBLK
  8
0
  0
BLOCK
  8
0
  2
PIE
 70
64
 10
0.000000
 20
0.000000
 30
0.000000
  3
PIE
  0
POLYLINE
  8
0
 66
1
 10
0.000000
 20
0.000000
 30
0.000000
 40
0.500000
 41
0.500000
 70
0
  0
VERTEX
  8
0
 10
0.000000
 20
-0.250000
 30
0.000000
 42
1.000000
  0
VERTEX
  8
0
 10
0.000000
 20
0.250000
 30
0.000000
 42
1.000000
  0
VERTEX
  8
0
 10
0.000000
 20
-0.250000
 30
0.000000
  0
SEQEND
  8
0
  0
ENDBLK
  8
0
  0
BLOCK
  8
0
  2
OCTAGONP
 70
64
 10
0.000000
 20
0.000000
 30
0.000000
  3
OCTAGONP
  0
POLYLINE
  8
0
 66
1
 10
0.000000
 20
0.000000
 30
0.000000
 40
0.500000
 41
0.500000
 70
0
  0
VERTEX
  8
0
 10
-0.250000
 20
-0.103553
 30
0.000000
  0
VERTEX
  8
0
 10
-0.250000
 20
0.103553
 30
0.000000
  0
VERTEX
  8
0
 10
-0.103553
 20
0.250000
 30
0.000000
  0
VERTEX
  8
0
 10
0.103553
 20
0.250000
 30
0.000000
  0
VERTEX
  8
0
 10
0.250000
 20
0.103553
 30
0.000000
  0
VERTEX
  8
0
 10
0.250000
 20
-0.103553
 30
0.000000
  0
VERTEX
  8
0
 10
0.103553
 20
-0.250000
 30
0.000000
  0
VERTEX
  8
0
 10
-0.103553
 20
-0.250000
 30
0.000000
  0
VERTEX
  8
0
 10
-0.250000
 20
-0.103553
 30
0.000000
  0
VERTEX
  8
0
 10
-0.250000
 20
0.103553
 30
0.000000
  0
SEQEND
  8
0
  0
ENDBLK
  8
0
  0
BLOCK
  8
0
  2
SQUAREP
 70
64
 10
0.000000
 20
0.000000
 30
0.000000
  3
SQUAREP
  0
SOLID
  8
0
 10
-0.500000
 20
-0.500000
 30
0.000000
 11
0.500000
 21
-0.500000
 31
0.000000
 12
-0.500000
 22
0.500000
 32
0.000000
 13
0.500000
 23
0.500000
 33
0.000000
  0
ENDBLK
  8
0
  0
BLOCK
  8
0
  2
ROUNDP
 70
64
 10
0.000000
 20
0.000000
 30
0.000000
  3
ROUNDP
  0
POLYLINE
  8
0
 66
1
 10
0.000000
 20
0.000000
 30
0.000000
 40
0.500000
 41
0.500000
 70
0
  0
VERTEX
  8
0
 10
0.000000
 20
-0.250000
 30
0.000000
 42
1.000000
  0
VERTEX
  8
0
 10
0.000000
 20
0.250000
 30
0.000000
 42
1.000000
  0
VERTEX
  8
0
 10
0.000000
 20
-0.250000
 30
0.000000
  0
SEQEND
  8
0
  0
ENDBLK
  8
0
  0
BLOCK
  8
0
  2
ANNULUSP
 70
64
 10
0.000000
 20
0.000000
 30
0.000000
  3
ANNULUSP
  0
POLYLINE
  8
0
 66
1
 10
0.000000
 20
0.000000
 30
0.000000
 40
0.500000
 41
0.500000
 70
0
  0
VERTEX
  8
0
 10
0.000000
 20
-0.250000
 30
0.000000
 42
1.000000
  0
VERTEX
  8
0
 10
0.000000
 20
0.250000
 30
0.000000
 42
1.000000
  0
VERTEX
  8
0
 10
0.000000
 20
-0.250000
 30
0.000000
  0
SEQEND
  8
0
  0
ENDBLK
  8
0
  0
BLOCK
  8
0
  2
THERMALP
 70
64
 10
0.000000
 20
0.000000
 30
0.000000
  3
THERMALP
  0
POLYLINE
  8
0
 66
1
 10
0.000000
 20
0.000000
 30
0.000000
 40
0.100000
 41
0.100000
 70
0
  0
VERTEX
  8
0
 10
-0.237868
 20
0.450000
 30
0.000000
  0
VERTEX
  8
0
 10
0.237868
 20
0.450000
 30
0.000000
  0
SEQEND
  8
0
  0
POLYLINE
  8
0
 66
1
 10
0.000000
 20
0.000000
 30
0.000000
 40
0.050000
 41
0.050000
 70
0
  0
VERTEX
  8
0
 10
0.237868
 20
0.425000
 30
0.000000
 42
1.000000
  0
VERTEX
  8
0
 10
0.237868
 20
0.475000
 30
0.000000
  0
SEQEND
  8
0
  0
POLYLINE
  8
0
 66
1
 10
0.000000
 20
0.000000
 30
0.000000
 40
0.050000
 41
0.050000
 70
0
  0
VERTEX
  8
0
 10
-0.237868
 20
0.475000
 30
0.000000
 42
1.000000
  0
VERTEX
  8
0
 10
-0.237868
 20
0.425000
 30
0.000000
  0
SEQEND
  8
0
  0
POLYLINE
  8
0
 66
1
 10
0.000000
 20
0.000000
 30
0.000000
 40
0.100000
 41
0.100000
 70
0
  0
VERTEX
  8
0
 10
0.450000
 20
0.237868
 30
0.000000
  0
VERTEX
  8
0
 10
0.450000
 20
-0.237868
 30
0.000000
  0
SEQEND
  8
0
  0
POLYLINE
  8
0
 66
1
 10
0.000000
 20
0.000000
 30
0.000000
 40
0.050000
 41
0.050000
 70
0
  0
VERTEX
  8
0
 10
0.425000
 20
-0.237868
 30
0.000000
 42
1.000000
  0
VERTEX
  8
0
 10
0.475000
 20
-0.237868
 30
0.000000
  0
SEQEND
  8
0
  0
POLYLINE
  8
0
 66
1
 10
0.000000
 20
0.000000
 30
0.000000
 40
0.050000
 41
0.050000
 70
0
  0
VERTEX
  8
0
 10
0.475000
 20
0.237868
 30
0.000000
 42
1.000000
  0
VERTEX
  8
0
 10
0.425000
 20
0.237868
 30
0.000000
  0
SEQEND
  8
0
  0
POLYLINE
  8
0
 66
1
 10
0.000000
 20
0.000000
 30
0.000000
 40
0.100000
 41
0.100000
 70
0
  0
VERTEX
  8
0
 10
0.237868
 20
-0.450000
 30
0.000000
  0
VERTEX
  8
0
 10
-0.237868
 20
-0.450000
 30
0.000000
  0
SEQEND
  8
0
  0
POLYLINE
  8
0
 66
1
 10
0.000000
 20
0.000000
 30
0.000000
 40
0.050000
 41
0.050000
 70
0
  0
VERTEX
  8
0
 10
-0.237868
 20
-0.425000
 30
0.000000
 42
1.000000
  0
VERTEX
  8
0
 10
-0.237868
 20
-0.475000
 30
0.000000
  0
SEQEND
  8
0
  0
POLYLINE
  8
0
 66
1
 10
0.000000
 20
0.000000
 30
0.000000
 40
0.050000
 41
0.050000
 70
0
  0
VERTEX
  8
0
 10
0.237868
 20
-0.475000
 30
0.000000
 42
1.000000
  0
VERTEX
  8
0
 10
0.237868
 20
-0.425000
 30
0.000000
  0
SEQEND
  8
0
  0
POLYLINE
  8
0
 66
1
 10
0.000000
 20
0.000000
 30
0.000000
 40
0.100000
 41
0.100000
 70
0
  0
VERTEX
  8
0
 10
-0.450000
 20
-0.237868
 30
0.000000
  0
VERTEX
  8
0
 10
-0.450000
 20
0.237868
 30
0.000000
  0
SEQEND
  8
0
  0
POLYLINE
  8
0
 66
1
 10
0.000000
 20
0.000000
 30
0.000000
 40
0.050000
 41
0.050000
 70
0
  0
VERTEX
  8
0
 10
-0.425000
 20
0.237868
 30
0.000000
 42
1.000000
  0
VERTEX
  8
0
 10
-0.475000
 20
0.237868
 30
0.000000
  0
SEQEND
  8
0
  0
POLYLINE
  8
0
 66
1
 10
0.000000
 20
0.000000
 30
0.000000
 40
0.050000
 41
0.050000
 70
0
  0
VERTEX
  8
0
 10
-0.475000
 20
-0.237868
 30
0.000000
 42
1.000000
  0
VERTEX
  8
0
 10
-0.425000
 20
-0.237868
 30
0.000000
  0
SEQEND
  8
0
  0
ENDBLK
  8
0
  0
BLOCK
  8
0
  2
OCTAGONV
 70
64
 10
0.000000
 20
0.000000
 30
0.000000
  3
OCTAGONV
  0
POLYLINE
  8
0
 66
1
 10
0.000000
 20
0.000000
 30
0.000000
 40
0.500000
 41
0.500000
 70
0
  0
VERTEX
  8
0
 10
-0.250000
 20
-0.103553
 30
0.000000
  0
VERTEX
  8
0
 10
-0.250000
 20
0.103553
 30
0.000000
  0
VERTEX
  8
0
 10
-0.103553
 20
0.250000
 30
0.000000
  0
VERTEX
  8
0
 10
0.103553
 20
0.250000
 30
0.000000
  0
VERTEX
  8
0
 10
0.250000
 20
0.103553
 30
0.000000
  0
VERTEX
  8
0
 10
0.250000
 20
-0.103553
 30
0.000000
  0
VERTEX
  8
0
 10
0.103553
 20
-0.250000
 30
0.000000
  0
VERTEX
  8
0
 10
-0.103553
 20
-0.250000
 30
0.000000
  0
VERTEX
  8
0
 10
-0.250000
 20
-0.103553
 30
0.000000
  0
VERTEX
  8
0
 10
-0.250000
 20
0.103553
 30
0.000000
  0
SEQEND
  8
0
  0
ENDBLK
  8
0
  0
BLOCK
  8
0
  2
SQUAREV
 70
64
 10
0.000000
 20
0.000000
 30
0.000000
  3
SQUAREV
  0
SOLID
  8
0
 10
-0.500000
 20
-0.500000
 30
0.000000
 11
0.500000
 21
-0.500000
 31
0.000000
 12
-0.500000
 22
0.500000
 32
0.000000
 13
0.500000
 23
0.500000
 33
0.000000
  0
ENDBLK
  8
0
  0
BLOCK
  8
0
  2
ROUNDV
 70
64
 10
0.000000
 20
0.000000
 30
0.000000
  3
ROUNDV
  0
POLYLINE
  8
0
 66
1
 10
0.000000
 20
0.000000
 30
0.000000
 40
0.500000
 41
0.500000
 70
0
  0
VERTEX
  8
0
 10
0.000000
 20
-0.250000
 30
0.000000
 42
1.000000
  0
VERTEX
  8
0
 10
0.000000
 20
0.250000
 30
0.000000
 42
1.000000
  0
VERTEX
  8
0
 10
0.000000
 20
-0.250000
 30
0.000000
  0
SEQEND
  8
0
  0
ENDBLK
  8
0
  0
BLOCK
  8
0
  2
ANNULUSV
 70
64
 10
0.000000
 20
0.000000
 30
0.000000
  3
ANNULUSV
  0
POLYLINE
  8
0
 66
1
 10
0.000000
 20
0.000000
 30
0.000000
 40
0.500000
 41
0.500000
 70
0
  0
VERTEX
  8
0
 10
0.000000
 20
-0.250000
 30
0.000000
 42
1.000000
  0
VERTEX
  8
0
 10
0.000000
 20
0.250000
 30
0.000000
 42
1.000000
  0
VERTEX
  8
0
 10
0.000000
 20
-0.250000
 30
0.000000
  0
SEQEND
  8
0
  0
ENDBLK
  8
0
  0
BLOCK
  8
0
  2
THERMALV
 70
64
 10
0.000000
 20
0.000000
 30
0.000000
  3
THERMALV
  0
POLYLINE
  8
0
 66
1
 10
0.000000
 20
0.000000
 30
0.000000
 40
0.100000
 41
0.100000
 70
0
  0
VERTEX
  8
0
 10
-0.237868
 20
0.450000
 30
0.000000
  0
VERTEX
  8
0
 10
0.237868
 20
0.450000
 30
0.000000
  0
SEQEND
  8
0
  0
POLYLINE
  8
0
 66
1
 10
0.000000
 20
0.000000
 30
0.000000
 40
0.050000
 41
0.050000
 70
0
  0
VERTEX
  8
0
 10
0.237868
 20
0.425000
 30
0.000000
 42
1.000000
  0
VERTEX
  8
0
 10
0.237868
 20
0.475000
 30
0.000000
  0
SEQEND
  8
0
  0
POLYLINE
  8
0
 66
1
 10
0.000000
 20
0.000000
 30
0.000000
 40
0.050000
 41
0.050000
 70
0
  0
VERTEX
  8
0
 10
-0.237868
 20
0.475000
 30
0.000000
 42
1.000000
  0
VERTEX
  8
0
 10
-0.237868
 20
0.425000
 30
0.000000
  0
SEQEND
  8
0
  0
POLYLINE
  8
0
 66
1
 10
0.000000
 20
0.000000
 30
0.000000
 40
0.100000
 41
0.100000
 70
0
  0
VERTEX
  8
0
 10
0.450000
 20
0.237868
 30
0.000000
  0
VERTEX
  8
0
 10
0.450000
 20
-0.237868
 30
0.000000
  0
SEQEND
  8
0
  0
POLYLINE
  8
0
 66
1
 10
0.000000
 20
0.000000
 30
0.000000
 40
0.050000
 41
0.050000
 70
0
  0
VERTEX
  8
0
 10
0.425000
 20
-0.237868
 30
0.000000
 42
1.000000
  0
VERTEX
  8
0
 10
0.475000
 20
-0.237868
 30
0.000000
  0
SEQEND
  8
0
  0
POLYLINE
  8
0
 66
1
 10
0.000000
 20
0.000000
 30
0.000000
 40
0.050000
 41
0.050000
 70
0
  0
VERTEX
  8
0
 10
0.475000
 20
0.237868
 30
0.000000
 42
1.000000
  0
VERTEX
  8
0
 10
0.425000
 20
0.237868
 30
0.000000
  0
SEQEND
  8
0
  0
POLYLINE
  8
0
 66
1
 10
0.000000
 20
0.000000
 30
0.000000
 40
0.100000
 41
0.100000
 70
0
  0
VERTEX
  8
0
 10
0.237868
 20
-0.450000
 30
0.000000
  0
VERTEX
  8
0
 10
-0.237868
 20
-0.450000
 30
0.000000
  0
SEQEND
  8
0
  0
POLYLINE
  8
0
 66
1
 10
0.000000
 20
0.000000
 30
0.000000
 40
0.050000
 41
0.050000
 70
0
  0
VERTEX
  8
0
 10
-0.237868
 20
-0.425000
 30
0.000000
 42
1.000000
  0
VERTEX
  8
0
 10
-0.237868
 20
-0.475000
 30
0.000000
  0
SEQEND
  8
0
  0
POLYLINE
  8
0
 66
1
 10
0.000000
 20
0.000000
 30
0.000000
 40
0.050000
 41
0.050000
 70
0
  0
VERTEX
  8
0
 10
0.237868
 20
-0.475000
 30
0.000000
 42
1.000000
  0
VERTEX
  8
0
 10
0.237868
 20
-0.425000
 30
0.000000
  0
SEQEND
  8
0
  0
POLYLINE
  8
0
 66
1
 10
0.000000
 20
0.000000
 30
0.000000
 40
0.100000
 41
0.100000
 70
0
  0
VERTEX
  8
0
 10
-0.450000
 20
-0.237868
 30
0.000000
  0
VERTEX
  8
0
 10
-0.450000
 20
0.237868
 30
0.000000
  0
SEQEND
  8
0
  0
POLYLINE
  8
0
 66
1
 10
0.000000
 20
0.000000
 30
0.000000
 40
0.050000
 41
0.050000
 70
0
  0
VERTEX
  8
0
 10
-0.425000
 20
0.237868
 30
0.000000
 42
1.000000
  0
VERTEX
  8
0
 10
-0.475000
 20
0.237868
 30
0.000000
  0
SEQEND
  8
0
  0
POLYLINE
  8
0
 66
1
 10
0.000000
 20
0.000000
 30
0.000000
 40
0.050000
 41
0.050000
 70
0
  0
VERTEX
  8
0
 10
-0.475000
 20
-0.237868
 30
0.000000
 42
1.000000
  0
VERTEX
  8
0
 10
-0.425000
 20
-0.237868
 30
0.000000
  0
SEQEND
  8
0
  0
ENDBLK
  8
0
  0
BLOCK
  8
0
  2
LONGP100
 70
64
 10
0.000000
 20
0.000000
 30
0.000000
  3
LONGP100
  0
POLYLINE
  8
0
 66
1
 10
0.000000
 20
0.000000
 30
0.000000
 40
1.000000
 41
1.000000
 70
0
  0
VERTEX
  8
0
 10
-0.500000
 20
0.000000
 30
0.000000
  0
VERTEX
  8
0
 10
0.500000
 20
0.000000
 30
0.000000
  0
SEQEND
  8
0
  0
POLYLINE
  8
0
 66
1
 10
0.000000
 20
0.000000
 30
0.000000
 40
0.500000
 41
0.500000
 70
0
  0
VERTEX
  8
0
 10
0.500000
 20
-0.250000
 30
0.000000
 42
1.000000
  0
VERTEX
  8
0
 10
0.500000
 20
0.250000
 30
0.000000
  0
SEQEND
  8
0
  0
POLYLINE
  8
0
 66
1
 10
0.000000
 20
0.000000
 30
0.000000
 40
0.500000
 41
0.500000
 70
0
  0
VERTEX
  8
0
 10
-0.500000
 20
0.250000
 30
0.000000
 42
1.000000
  0
VERTEX
  8
0
 10
-0.500000
 20
-0.250000
 30
0.000000
  0
SEQEND
  8
0
  0
ENDBLK
  8
0
  0
ENDSEC
  0
SECTION
  2
ENTITIES
  0
POLYLINE
  8
20
 66
1
 10
0.000000
 20
0.000000
 30
0.000000
 40
0.000984
 41
0.000984
 70
0
  0
VERTEX
  8
20
 10
7.479865
 20
11.100000
 30
0.000000
  0
VERTEX
  8
20
 10
5.969397
 20
11.100000
 30
0.000000
  0
SEQEND
  8
0
  0
POLYLINE
  8
20
 66
1
 10
0.000000
 20
0.000000
 30
0.000000
 40
0.000492
 41
0.000492
 70
0
  0
VERTEX
  8
20
 10
5.969397
 20
11.100246
 30
0.000000
 42
1.000000
  0
VERTEX
  8
20
 10
5.969397
 20
11.099754
 30
0.000000
  0
SEQEND
  8
0
  0
POLYLINE
  8
20
 66
1
 10
0.000000
 20
0.000000
 30
0.000000
 40
0.000492
 41
0.000492
 70
0
  0
VERTEX
  8
20
 10
7.479865
 20
11.099754
 30
0.000000
 42
1.000000
  0
VERTEX
  8
20
 10
7.479865
 20
11.100246
 30
0.000000
  0
SEQEND
  8
0
  0
POLYLINE
  8
20
 66
1
 10
0.000000
 20
0.000000
 30
0.000000
 40
0.000984
 41
0.000984
 70
0
  0
VERTEX
  8
20
 10
5.969397
 20
11.210000
 30
0.000000
  0
VERTEX
  8
20
 10
5.969397
 20
11.100000
 30
0.000000
  0
SEQEND
  8
0
  0
POLYLINE
  8
20
 66
1
 10
0.000000
 20
0.000000
 30
0.000000
 40
0.000492
 41
0.000492
 70
0
  0
VERTEX
  8
20
 10
5.969151
 20
11.100000
 30
0.000000
 42
1.000000
  0
VERTEX
  8
20
 10
5.969643
 20
11.100000
 30
0.000000
  0
SEQEND
  8
0
  0
POLYLINE
  8
20
 66
1
 10
0.000000
 20
0.000000
 30
0.000000
 40
0.000492
 41
0.000492
 70
0
  0
VERTEX
  8
20
 10
5.969643
 20
11.210000
 30
0.000000
 42
1.000000
  0
VERTEX
  8
20
 10
5.969151
 20
11.210000
 30
0.000000
  0
SEQEND
  8
0
  0
LINE
  8
20
 10
5.969397
 20
11.210000
 30
0.000000
 11
0.000000
 21
11.210000
 31
0.000000
  0
LINE
  8
20
 10
0.000000
 20
11.210000
 30
0.000000
 11
0.000000
 21
10.440000
 31
0.000000
  0
LINE
  8
20
 10
0.000000
 20
0.780000
 30
0.000000
 11
0.000000
 21
0.000000
 31
0.000000
  0
LINE
  8
20
 10
0.000000
 20
0.000000
 30
0.000000
 11
11.210000
 21
0.000000
 31
0.000000
  0
LINE
  8
20
 10
11.210000
 20
0.000000
 30
0.000000
 11
11.210000
 21
11.210000
 31
0.000000
  0
LINE
  8
20
 10
11.210000
 20
11.210000
 30
0.000000
 11
8.840000
 21
11.210000
 31
0.000000
  0
LINE
  8
20
 10
8.847519
 20
11.210000
 30
0.000000
 11
7.479865
 21
11.212234
 31
0.000000
  0
POLYLINE
  8
20
 66
1
 10
0.000000
 20
0.000000
 30
0.000000
 40
0.000984
 41
0.000984
 70
0
  0
VERTEX
  8
20
 10
7.479865
 20
11.212234
 30
0.000000
  0
VERTEX
  8
20
 10
7.479865
 20
11.100000
 30
0.000000
  0
SEQEND
  8
0
  0
POLYLINE
  8
20
 66
1
 10
0.000000
 20
0.000000
 30
0.000000
 40
0.000492
 41
0.000492
 70
0
  0
VERTEX
  8
20
 10
7.479619
 20
11.100000
 30
0.000000
 42
1.000000
  0
VERTEX
  8
20
 10
7.480111
 20
11.100000
 30
0.000000
  0
SEQEND
  8
0
  0
POLYLINE
  8
20
 66
1
 10
0.000000
 20
0.000000
 30
0.000000
 40
0.000492
 41
0.000492
 70
0
  0
VERTEX
  8
20
 10
7.480111
 20
11.212234
 30
0.000000
 42
1.000000
  0
VERTEX
  8
20
 10
7.479619
 20
11.212234
 30
0.000000
  0
SEQEND
  8
0
  0
POLYLINE
  8
20
 66
1
 10
0.000000
 20
0.000000
 30
0.000000
 40
0.000984
 41
0.000984
 70
0
  0
VERTEX
  8
20
 10
3.608784
 20
11.012234
 30
0.000000
  0
VERTEX
  8
20
 10
3.258784
 20
11.012234
 30
0.000000
  0
SEQEND
  8
0
  0
POLYLINE
  8
20
 66
1
 10
0.000000
 20
0.000000
 30
0.000000
 40
0.000492
 41
0.000492
 70
0
  0
VERTEX
  8
20
 10
3.258784
 20
11.012480
 30
0.000000
 42
1.000000
  0
VERTEX
  8
20
 10
3.258784
 20
11.011988
 30
0.000000
  0
SEQEND
  8
0
  0
POLYLINE
  8
20
 66
1
 10
0.000000
 20
0.000000
 30
0.000000
 40
0.000492
 41
0.000492
 70
0
  0
VERTEX
  8
20
 10
3.608784
 20
11.011988
 30
0.000000
 42
1.000000
  0
VERTEX
  8
20
 10
3.608784
 20
11.012480
 30
0.000000
  0
SEQEND
  8
0
  0
POLYLINE
  8
20
 66
1
 10
0.000000
 20
0.000000
 30
0.000000
 40
0.000984
 41
0.000984
 70
0
  0
VERTEX
  8
20
 10
3.608784
 20
10.762234
 30
0.000000
  0
VERTEX
  8
20
 10
3.608784
 20
11.012234
 30
0.000000
  0
SEQEND
  8
0
  0
POLYLINE
  8
20
 66
1
 10
0.000000
 20
0.000000
 30
0.000000
 40
0.000492
 41
0.000492
 70
0
  0
VERTEX
  8
20
 10
3.609030
 20
11.012234
 30
0.000000
 42
1.000000
  0
VERTEX
  8
20
 10
3.608538
 20
11.012234
 30
0.000000
  0
SEQEND
  8
0
  0
POLYLINE
  8
20
 66
1
 10
0.000000
 20
0.000000
 30
0.000000
 40
0.000492
 41
0.000492
 70
0
  0
VERTEX
  8
20
 10
3.608538
 20
10.762234
 30
0.000000
 42
1.000000
  0
VERTEX
  8
20
 10
3.609030
 20
10.762234
 30
0.000000
  0
SEQEND
  8
0
  0
POLYLINE
  8
20
 66
1
 10
0.000000
 20
0.000000
 30
0.000000
 40
0.000984
 41
0.000984
 70
0
  0
VERTEX
  8
20
 10
3.258784
 20
10.762234
 30
0.000000
  0
VERTEX
  8
20
 10
3.608784
 20
10.762234
 30
0.000000
  0
SEQEND
  8
0
  0
POLYLINE
  8
20
 66
1
 10
0.000000
 20
0.000000
 30
0.000000
 40
0.000492
 41
0.000492
 70
0
  0
VERTEX
  8
20
 10
3.608784
 20
10.761988
 30
0.000000
 42
1.000000
  0
VERTEX
  8
20
 10
3.608784
 20
10.762480
 30
0.000000
  0
SEQEND
  8
0
  0
POLYLINE
  8
20
 66
1
 10
0.000000
 20
0.000000
 30
0.000000
 40
0.000492
 41
0.000492
 70
0
  0
VERTEX
  8
20
 10
3.258784
 20
10.762480
 30
0.000000
 42
1.000000
  0
VERTEX
  8
20
 10
3.258784
 20
10.761988
 30
0.000000
  0
SEQEND
  8
0
  0
POLYLINE
  8
20
 66
1
 10
0.000000
 20
0.000000
 30
0.000000
 40
0.000984
 41
0.000984
 70
0
  0
VERTEX
  8
20
 10
3.258784
 20
11.012234
 30
0.000000
  0
VERTEX
  8
20
 10
3.258784
 20
10.762234
 30
0.000000
  0
SEQEND
  8
0
  0
POLYLINE
  8
20
 66
1
 10
0.000000
 20
0.000000
 30
0.000000
 40
0.000492
 41
0.000492
 70
0
  0
VERTEX
  8
20
 10
3.258538
 20
10.762234
 30
0.000000
 42
1.000000
  0
VERTEX
  8
20
 10
3.259030
 20
10.762234
 30
0.000000
  0
SEQEND
  8
0
  0
POLYLINE
  8
20
 66
1
 10
0.000000
 20
0.000000
 30
0.000000
 40
0.000492
 41
0.000492
 70
0
  0
VERTEX
  8
20
 10
3.259030
 20
11.012234
 30
0.000000
 42
1.000000
  0
VERTEX
  8
20
 10
3.258538
 20
11.012234
 30
0.000000
  0
SEQEND
  8
0
  0
POLYLINE
  8
20
 66
1
 10
0.000000
 20
0.000000
 30
0.000000
 40
0.000984
 41
0.000984
 70
0
  0
VERTEX
  8
20
 10
3.608784
 20
9.462234
 30
0.000000
  0
VERTEX
  8
20
 10
3.258784
 20
9.462234
 30
0.000000
  0
SEQEND
  8
0
  0
POLYLINE
  8
20
 66
1
 10
0.000000
 20
0.000000
 30
0.000000
 40
0.000492
 41
0.000492
 70
0
  0
VERTEX
  8
20
 10
3.258784
 20
9.462480
 30
0.000000
 42
1.000000
  0
VERTEX
  8
20
 10
3.258784
 20
9.461988
 30
0.000000
  0
SEQEND
  8
0
  0
POLYLINE
  8
20
 66
1
 10
0.000000
 20
0.000000
 30
0.000000
 40
0.000492
 41
0.000492
 70
0
  0
VERTEX
  8
20
 10
3.608784
 20
9.461988
 30
0.000000
 42
1.000000
  0
VERTEX
  8
20
 10
3.608784
 20
9.462480
 30
0.000000
  0
SEQEND
  8
0
  0
POLYLINE
  8
20
 66
1
 10
0.000000
 20
0.000000
 30
0.000000
 40
0.000984
 41
0.000984
 70
0
  0
VERTEX
  8
20
 10
3.608784
 20
9.212234
 30
0.000000
  0
VERTEX
  8
20
 10
3.608784
 20
9.462234
 30
0.000000
  0
SEQEND
  8
0
  0
POLYLINE
  8
20
 66
1
 10
0.000000
 20
0.000000
 30
0.000000
 40
0.000492
 41
0.000492
 70
0
  0
VERTEX
  8
20
 10
3.609030
 20
9.462234
 30
0.000000
 42
1.000000
  0
VERTEX
  8
20
 10
3.608538
 20
9.462234
 30
0.000000
  0
SEQEND
  8
0
  0
POLYLINE
  8
20
 66
1
 10
0.000000
 20
0.000000
 30
0.000000
 40
0.000492
 41
0.000492
 70
0
  0
VERTEX
  8
20
 10
3.608538
 20
9.212234
 30
0.000000
 42
1.000000
  0
VERTEX
  8
20
 10
3.609030
 20
9.212234
 30
0.000000
  0
SEQEND
  8
0
  0
POLYLINE
  8
20
 66
1
 10
0.000000
 20
0.000000
 30
0.000000
 40
0.000984
 41
0.000984
 70
0
  0
VERTEX
  8
20
 10
3.258784
 20
9.212234
 30
0.000000
  0
VERTEX
  8
20
 10
3.608784
 20
9.212234
 30
0.000000
  0
SEQEND
  8
0
  0
POLYLINE
  8
20
 66
1
 10
0.000000
 20
0.000000
 30
0.000000
 40
0.000492
 41
0.000492
 70
0
  0
VERTEX
  8
20
 10
3.608784
 20
9.211988
 30
0.000000
 42
1.000000
  0
VERTEX
  8
20
 10
3.608784
 20
9.212480
 30
0.000000
  0
SEQEND
  8
0
  0
POLYLINE
  8
20
 66
1
 10
0.000000
 20
0.000000
 30
0.000000
 40
0.000492
 41
0.000492
 70
0
  0
VERTEX
  8
20
 10
3.258784
 20
9.212480
 30
0.000000
 42
1.000000
  0
VERTEX
  8
20
 10
3.258784
 20
9.211988
 30
0.000000
  0
SEQEND
  8
0
  0
POLYLINE
  8
20
 66
1
 10
0.000000
 20
0.000000
 30
0.000000
 40
0.000984
 41
0.000984
 70
0
  0
VERTEX
  8
20
 10
3.258784
 20
9.462234
 30
0.000000
  0
VERTEX
  8
20
 10
3.258784
 20
9.212234
 30
0.000000
  0
SEQEND
  8
0
  0
POLYLINE
  8
20
 66
1
 10
0.000000
 20
0.000000
 30
0.000000
 40
0.000492
 41
0.000492
 70
0
  0
VERTEX
  8
20
 10
3.258538
 20
9.212234
 30
0.000000
 42
1.000000
  0
VERTEX
  8
20
 10
3.259030
 20
9.212234
 30
0.000000
  0
SEQEND
  8
0
  0
POLYLINE
  8
20
 66
1
 10
0.000000
 20
0.000000
 30
0.000000
 40
0.000492
 41
0.000492
 70
0
  0
VERTEX
  8
20
 10
3.259030
 20
9.462234
 30
0.000000
 42
1.000000
  0
VERTEX
  8
20
 10
3.258538
 20
9.462234
 30
0.000000
  0
SEQEND
  8
0
  0
POLYLINE
  8
20
 66
1
 10
0.000000
 20
0.000000
 30
0.000000
 40
0.000984
 41
0.000984
 70
0
  0
VERTEX
  8
20
 10
7.958784
 20
9.462234
 30
0.000000
  0
VERTEX
  8
20
 10
7.608784
 20
9.462234
 30
0.000000
  0
SEQEND
  8
0
  0
POLYLINE
  8
20
 66
1
 10
0.000000
 20
0.000000
 30
0.000000
 40
0.000492
 41
0.000492
 70
0
  0
VERTEX
  8
20
 10
7.608784
 20
9.462480
 30
0.000000
 42
1.000000
  0
VERTEX
  8
20
 10
7.608784
 20
9.461988
 30
0.000000
  0
SEQEND
  8
0
  0
POLYLINE
  8
20
 66
1
 10
0.000000
 20
0.000000
 30
0.000000
 40
0.000492
 41
0.000492
 70
0
  0
VERTEX
  8
20
 10
7.958784
 20
9.461988
 30
0.000000
 42
1.000000
  0
VERTEX
  8
20
 10
7.958784
 20
9.462480
 30
0.000000
  0
SEQEND
  8
0
  0
POLYLINE
  8
20
 66
1
 10
0.000000
 20
0.000000
 30
0.000000
 40
0.000984
 41
0.000984
 70
0
  0
VERTEX
  8
20
 10
7.958784
 20
9.212234
 30
0.000000
  0
VERTEX
  8
20
 10
7.958784
 20
9.462234
 30
0.000000
  0
SEQEND
  8
0
  0
POLYLINE
  8
20
 66
1
 10
0.000000
 20
0.000000
 30
0.000000
 40
0.000492
 41
0.000492
 70
0
  0
VERTEX
  8
20
 10
7.959030
 20
9.462234
 30
0.000000
 42
1.000000
  0
VERTEX
  8
20
 10
7.958538
 20
9.462234
 30
0.000000
  0
SEQEND
  8
0
  0
POLYLINE
  8
20
 66
1
 10
0.000000
 20
0.000000
 30
0.000000
 40
0.000492
 41
0.000492
 70
0
  0
VERTEX
  8
20
 10
7.958538
 20
9.212234
 30
0.000000
 42
1.000000
  0
VERTEX
  8
20
 10
7.959030
 20
9.212234
 30
0.000000
  0
SEQEND
  8
0
  0
POLYLINE
  8
20
 66
1
 10
0.000000
 20
0.000000
 30
0.000000
 40
0.000984
 41
0.000984
 70
0
  0
VERTEX
  8
20
 10
7.608784
 20
9.212234
 30
0.000000
  0
VERTEX
  8
20
 10
7.958784
 20
9.212234
 30
0.000000
  0
SEQEND
  8
0
  0
POLYLINE
  8
20
 66
1
 10
0.000000
 20
0.000000
 30
0.000000
 40
0.000492
 41
0.000492
 70
0
  0
VERTEX
  8
20
 10
7.958784
 20
9.211988
 30
0.000000
 42
1.000000
  0
VERTEX
  8
20
 10
7.958784
 20
9.212480
 30
0.000000
  0
SEQEND
  8
0
  0
POLYLINE
  8
20
 66
1
 10
0.000000
 20
0.000000
 30
0.000000
 40
0.000492
 41
0.000492
 70
0
  0
VERTEX
  8
20
 10
7.608784
 20
9.212480
 30
0.000000
 42
1.000000
  0
VERTEX
  8
20
 10
7.608784
 20
9.211988
 30
0.000000
  0
SEQEND
  8
0
  0
POLYLINE
  8
20
 66
1
 10
0.000000
 20
0.000000
 30
0.000000
 40
0.000984
 41
0.000984
 70
0
  0
VERTEX
  8
20
 10
7.608784
 20
9.462234
 30
0.000000
  0
VERTEX
  8
20
 10
7.608784
 20
9.212234
 30
0.000000
  0
SEQEND
  8
0
  0
POLYLINE
  8
20
 66
1
 10
0.000000
 20
0.000000
 30
0.000000
 40
0.000492
 41
0.000492
 70
0
  0
VERTEX
  8
20
 10
7.608538
 20
9.212234
 30
0.000000
 42
1.000000
  0
VERTEX
  8
20
 10
7.609030
 20
9.212234
 30
0.000000
  0
SEQEND
  8
0
  0
POLYLINE
  8
20
 66
1
 10
0.000000
 20
0.000000
 30
0.000000
 40
0.000492
 41
0.000492
 70
0
  0
VERTEX
  8
20
 10
7.609030
 20
9.462234
 30
0.000000
 42
1.000000
  0
VERTEX
  8
20
 10
7.608538
 20
9.462234
 30
0.000000
  0
SEQEND
  8
0
  0
POLYLINE
  8
20
 66
1
 10
0.000000
 20
0.000000
 30
0.000000
 40
0.000984
 41
0.000984
 70
0
  0
VERTEX
  8
20
 10
7.608784
 20
10.762234
 30
0.000000
  0
VERTEX
  8
20
 10
7.958784
 20
10.762234
 30
0.000000
  0
SEQEND
  8
0
  0
POLYLINE
  8
20
 66
1
 10
0.000000
 20
0.000000
 30
0.000000
 40
0.000492
 41
0.000492
 70
0
  0
VERTEX
  8
20
 10
7.958784
 20
10.761988
 30
0.000000
 42
1.000000
  0
VERTEX
  8
20
 10
7.958784
 20
10.762480
 30
0.000000
  0
SEQEND
  8
0
  0
POLYLINE
  8
20
 66
1
 10
0.000000
 20
0.000000
 30
0.000000
 40
0.000492
 41
0.000492
 70
0
  0
VERTEX
  8
20
 10
7.608784
 20
10.762480
 30
0.000000
 42
1.000000
  0
VERTEX
  8
20
 10
7.608784
 20
10.761988
 30
0.000000
  0
SEQEND
  8
0
  0
POLYLINE
  8
20
 66
1
 10
0.000000
 20
0.000000
 30
0.000000
 40
0.000984
 41
0.000984
 70
0
  0
VERTEX
  8
20
 10
7.608784
 20
11.012234
 30
0.000000
  0
VERTEX
  8
20
 10
7.608784
 20
10.762234
 30
0.000000
  0
SEQEND
  8
0
  0
POLYLINE
  8
20
 66
1
 10
0.000000
 20
0.000000
 30
0.000000
 40
0.000492
 41
0.000492
 70
0
  0
VERTEX
  8
20
 10
7.608538
 20
10.762234
 30
0.000000
 42
1.000000
  0
VERTEX
  8
20
 10
7.609030
 20
10.762234
 30
0.000000
  0
SEQEND
  8
0
  0
POLYLINE
  8
20
 66
1
 10
0.000000
 20
0.000000
 30
0.000000
 40
0.000492
 41
0.000492
 70
0
  0
VERTEX
  8
20
 10
7.609030
 20
11.012234
 30
0.000000
 42
1.000000
  0
VERTEX
  8
20
 10
7.608538
 20
11.012234
 30
0.000000
  0
SEQEND
  8
0
  0
POLYLINE
  8
20
 66
1
 10
0.000000
 20
0.000000
 30
0.000000
 40
0.000984
 41
0.000984
 70
0
  0
VERTEX
  8
20
 10
7.608784
 20
11.012234
 30
0.000000
  0
VERTEX
  8
20
 10
7.958784
 20
11.012234
 30
0.000000
  0
SEQEND
  8
0
  0
POLYLINE
  8
20
 66
1
 10
0.000000
 20
0.000000
 30
0.000000
 40
0.000492
 41
0.000492
 70
0
  0
VERTEX
  8
20
 10
7.958784
 20
11.011988
 30
0.000000
 42
1.000000
  0
VERTEX
  8
20
 10
7.958784
 20
11.012480
 30
0.000000
  0
SEQEND
  8
0
  0
POLYLINE
  8
20
 66
1
 10
0.000000
 20
0.000000
 30
0.000000
 40
0.000492
 41
0.000492
 70
0
  0
VERTEX
  8
20
 10
7.608784
 20
11.012480
 30
0.000000
 42
1.000000
  0
VERTEX
  8
20
 10
7.608784
 20
11.011988
 30
0.000000
  0
SEQEND
  8
0
  0
POLYLINE
  8
20
 66
1
 10
0.000000
 20
0.000000
 30
0.000000
 40
0.000984
 41
0.000984
 70
0
  0
VERTEX
  8
20
 10
7.958784
 20
11.012234
 30
0.000000
  0
VERTEX
  8
20
 10
7.958784
 20
10.762234
 30
0.000000
  0
SEQEND
  8
0
  0
POLYLINE
  8
20
 66
1
 10
0.000000
 20
0.000000
 30
0.000000
 40
0.000492
 41
0.000492
 70
0
  0
VERTEX
  8
20
 10
7.958538
 20
10.762234
 30
0.000000
 42
1.000000
  0
VERTEX
  8
20
 10
7.959030
 20
10.762234
 30
0.000000
  0
SEQEND
  8
0
  0
POLYLINE
  8
20
 66
1
 10
0.000000
 20
0.000000
 30
0.000000
 40
0.000492
 41
0.000492
 70
0
  0
VERTEX
  8
20
 10
7.959030
 20
11.012234
 30
0.000000
 42
1.000000
  0
VERTEX
  8
20
 10
7.958538
 20
11.012234
 30
0.000000
  0
SEQEND
  8
0
  0
POLYLINE
  8
20
 66
1
 10
0.000000
 20
0.000000
 30
0.000000
 40
0.000984
 41
0.000984
 70
0
  0
VERTEX
  8
20
 10
7.958784
 20
0.450026
 30
0.000000
  0
VERTEX
  8
20
 10
7.958784
 20
0.200026
 30
0.000000
  0
SEQEND
  8
0
  0
POLYLINE
  8
20
 66
1
 10
0.000000
 20
0.000000
 30
0.000000
 40
0.000492
 41
0.000492
 70
0
  0
VERTEX
  8
20
 10
7.958538
 20
0.200026
 30
0.000000
 42
1.000000
  0
VERTEX
  8
20
 10
7.959030
 20
0.200026
 30
0.000000
  0
SEQEND
  8
0
  0
POLYLINE
  8
20
 66
1
 10
0.000000
 20
0.000000
 30
0.000000
 40
0.000492
 41
0.000492
 70
0
  0
VERTEX
  8
20
 10
7.959030
 20
0.450026
 30
0.000000
 42
1.000000
  0
VERTEX
  8
20
 10
7.958538
 20
0.450026
 30
0.000000
  0
SEQEND
  8
0
  0
POLYLINE
  8
20
 66
1
 10
0.000000
 20
0.000000
 30
0.000000
 40
0.000984
 41
0.000984
 70
0
  0
VERTEX
  8
20
 10
7.958784
 20
0.200026
 30
0.000000
  0
VERTEX
  8
20
 10
7.608784
 20
0.200026
 30
0.000000
  0
SEQEND
  8
0
  0
POLYLINE
  8
20
 66
1
 10
0.000000
 20
0.000000
 30
0.000000
 40
0.000492
 41
0.000492
 70
0
  0
VERTEX
  8
20
 10
7.608784
 20
0.200272
 30
0.000000
 42
1.000000
  0
VERTEX
  8
20
 10
7.608784
 20
0.199780
 30
0.000000
  0
SEQEND
  8
0
  0
POLYLINE
  8
20
 66
1
 10
0.000000
 20
0.000000
 30
0.000000
 40
0.000492
 41
0.000492
 70
0
  0
VERTEX
  8
20
 10
7.958784
 20
0.199780
 30
0.000000
 42
1.000000
  0
VERTEX
  8
20
 10
7.958784
 20
0.200272
 30
0.000000
  0
SEQEND
  8
0
  0
POLYLINE
  8
20
 66
1
 10
0.000000
 20
0.000000
 30
0.000000
 40
0.000984
 41
0.000984
 70
0
  0
VERTEX
  8
20
 10
7.608784
 20
0.200026
 30
0.000000
  0
VERTEX
  8
20
 10
7.608784
 20
0.450026
 30
0.000000
  0
SEQEND
  8
0
  0
POLYLINE
  8
20
 66
1
 10
0.000000
 20
0.000000
 30
0.000000
 40
0.000492
 41
0.000492
 70
0
  0
VERTEX
  8
20
 10
7.609030
 20
0.450026
 30
0.000000
 42
1.000000
  0
VERTEX
  8
20
 10
7.608538
 20
0.450026
 30
0.000000
  0
SEQEND
  8
0
  0
POLYLINE
  8
20
 66
1
 10
0.000000
 20
0.000000
 30
0.000000
 40
0.000492
 41
0.000492
 70
0
  0
VERTEX
  8
20
 10
7.608538
 20
0.200026
 30
0.000000
 42
1.000000
  0
VERTEX
  8
20
 10
7.609030
 20
0.200026
 30
0.000000
  0
SEQEND
  8
0
  0
POLYLINE
  8
20
 66
1
 10
0.000000
 20
0.000000
 30
0.000000
 40
0.000984
 41
0.000984
 70
0
  0
VERTEX
  8
20
 10
7.608784
 20
0.450026
 30
0.000000
  0
VERTEX
  8
20
 10
7.958784
 20
0.450026
 30
0.000000
  0
SEQEND
  8
0
  0
POLYLINE
  8
20
 66
1
 10
0.000000
 20
0.000000
 30
0.000000
 40
0.000492
 41
0.000492
 70
0
  0
VERTEX
  8
20
 10
7.958784
 20
0.449780
 30
0.000000
 42
1.000000
  0
VERTEX
  8
20
 10
7.958784
 20
0.450272
 30
0.000000
  0
SEQEND
  8
0
  0
POLYLINE
  8
20
 66
1
 10
0.000000
 20
0.000000
 30
0.000000
 40
0.000492
 41
0.000492
 70
0
  0
VERTEX
  8
20
 10
7.608784
 20
0.450272
 30
0.000000
 42
1.000000
  0
VERTEX
  8
20
 10
7.608784
 20
0.449780
 30
0.000000
  0
SEQEND
  8
0
  0
POLYLINE
  8
20
 66
1
 10
0.000000
 20
0.000000
 30
0.000000
 40
0.000984
 41
0.000984
 70
0
  0
VERTEX
  8
20
 10
7.958784
 20
2.000026
 30
0.000000
  0
VERTEX
  8
20
 10
7.958784
 20
1.750026
 30
0.000000
  0
SEQEND
  8
0
  0
POLYLINE
  8
20
 66
1
 10
0.000000
 20
0.000000
 30
0.000000
 40
0.000492
 41
0.000492
 70
0
  0
VERTEX
  8
20
 10
7.958538
 20
1.750026
 30
0.000000
 42
1.000000
  0
VERTEX
  8
20
 10
7.959030
 20
1.750026
 30
0.000000
  0
SEQEND
  8
0
  0
POLYLINE
  8
20
 66
1
 10
0.000000
 20
0.000000
 30
0.000000
 40
0.000492
 41
0.000492
 70
0
  0
VERTEX
  8
20
 10
7.959030
 20
2.000026
 30
0.000000
 42
1.000000
  0
VERTEX
  8
20
 10
7.958538
 20
2.000026
 30
0.000000
  0
SEQEND
  8
0
  0
POLYLINE
  8
20
 66
1
 10
0.000000
 20
0.000000
 30
0.000000
 40
0.000984
 41
0.000984
 70
0
  0
VERTEX
  8
20
 10
7.958784
 20
1.750026
 30
0.000000
  0
VERTEX
  8
20
 10
7.608784
 20
1.750026
 30
0.000000
  0
SEQEND
  8
0
  0
POLYLINE
  8
20
 66
1
 10
0.000000
 20
0.000000
 30
0.000000
 40
0.000492
 41
0.000492
 70
0
  0
VERTEX
  8
20
 10
7.608784
 20
1.750272
 30
0.000000
 42
1.000000
  0
VERTEX
  8
20
 10
7.608784
 20
1.749780
 30
0.000000
  0
SEQEND
  8
0
  0
POLYLINE
  8
20
 66
1
 10
0.000000
 20
0.000000
 30
0.000000
 40
0.000492
 41
0.000492
 70
0
  0
VERTEX
  8
20
 10
7.958784
 20
1.749780
 30
0.000000
 42
1.000000
  0
VERTEX
  8
20
 10
7.958784
 20
1.750272
 30
0.000000
  0
SEQEND
  8
0
  0
POLYLINE
  8
20
 66
1
 10
0.000000
 20
0.000000
 30
0.000000
 40
0.000984
 41
0.000984
 70
0
  0
VERTEX
  8
20
 10
7.608784
 20
1.750026
 30
0.000000
  0
VERTEX
  8
20
 10
7.608784
 20
2.000026
 30
0.000000
  0
SEQEND
  8
0
  0
POLYLINE
  8
20
 66
1
 10
0.000000
 20
0.000000
 30
0.000000
 40
0.000492
 41
0.000492
 70
0
  0
VERTEX
  8
20
 10
7.609030
 20
2.000026
 30
0.000000
 42
1.000000
  0
VERTEX
  8
20
 10
7.608538
 20
2.000026
 30
0.000000
  0
SEQEND
  8
0
  0
POLYLINE
  8
20
 66
1
 10
0.000000
 20
0.000000
 30
0.000000
 40
0.000492
 41
0.000492
 70
0
  0
VERTEX
  8
20
 10
7.608538
 20
1.750026
 30
0.000000
 42
1.000000
  0
VERTEX
  8
20
 10
7.609030
 20
1.750026
 30
0.000000
  0
SEQEND
  8
0
  0
POLYLINE
  8
20
 66
1
 10
0.000000
 20
0.000000
 30
0.000000
 40
0.000984
 41
0.000984
 70
0
  0
VERTEX
  8
20
 10
7.608784
 20
2.000026
 30
0.000000
  0
VERTEX
  8
20
 10
7.958784
 20
2.000026
 30
0.000000
  0
SEQEND
  8
0
  0
POLYLINE
  8
20
 66
1
 10
0.000000
 20
0.000000
 30
0.000000
 40
0.000492
 41
0.000492
 70
0
  0
VERTEX
  8
20
 10
7.958784
 20
1.999780
 30
0.000000
 42
1.000000
  0
VERTEX
  8
20
 10
7.958784
 20
2.000272
 30
0.000000
  0
SEQEND
  8
0
  0
POLYLINE
  8
20
 66
1
 10
0.000000
 20
0.000000
 30
0.000000
 40
0.000492
 41
0.000492
 70
0
  0
VERTEX
  8
20
 10
7.608784
 20
2.000272
 30
0.000000
 42
1.000000
  0
VERTEX
  8
20
 10
7.608784
 20
1.999780
 30
0.000000
  0
SEQEND
  8
0
  0
POLYLINE
  8
20
 66
1
 10
0.000000
 20
0.000000
 30
0.000000
 40
0.000984
 41
0.000984
 70
0
  0
VERTEX
  8
20
 10
3.608784
 20
0.450026
 30
0.000000
  0
VERTEX
  8
20
 10
3.608784
 20
0.200026
 30
0.000000
  0
SEQEND
  8
0
  0
POLYLINE
  8
20
 66
1
 10
0.000000
 20
0.000000
 30
0.000000
 40
0.000492
 41
0.000492
 70
0
  0
VERTEX
  8
20
 10
3.608538
 20
0.200026
 30
0.000000
 42
1.000000
  0
VERTEX
  8
20
 10
3.609030
 20
0.200026
 30
0.000000
  0
SEQEND
  8
0
  0
POLYLINE
  8
20
 66
1
 10
0.000000
 20
0.000000
 30
0.000000
 40
0.000492
 41
0.000492
 70
0
  0
VERTEX
  8
20
 10
3.609030
 20
0.450026
 30
0.000000
 42
1.000000
  0
VERTEX
  8
20
 10
3.608538
 20
0.450026
 30
0.000000
  0
SEQEND
  8
0
  0
POLYLINE
  8
20
 66
1
 10
0.000000
 20
0.000000
 30
0.000000
 40
0.000984
 41
0.000984
 70
0
  0
VERTEX
  8
20
 10
3.608784
 20
0.200026
 30
0.000000
  0
VERTEX
  8
20
 10
3.258784
 20
0.200026
 30
0.000000
  0
SEQEND
  8
0
  0
POLYLINE
  8
20
 66
1
 10
0.000000
 20
0.000000
 30
0.000000
 40
0.000492
 41
0.000492
 70
0
  0
VERTEX
  8
20
 10
3.258784
 20
0.200272
 30
0.000000
 42
1.000000
  0
VERTEX
  8
20
 10
3.258784
 20
0.199780
 30
0.000000
  0
SEQEND
  8
0
  0
POLYLINE
  8
20
 66
1
 10
0.000000
 20
0.000000
 30
0.000000
 40
0.000492
 41
0.000492
 70
0
  0
VERTEX
  8
20
 10
3.608784
 20
0.199780
 30
0.000000
 42
1.000000
  0
VERTEX
  8
20
 10
3.608784
 20
0.200272
 30
0.000000
  0
SEQEND
  8
0
  0
POLYLINE
  8
20
 66
1
 10
0.000000
 20
0.000000
 30
0.000000
 40
0.000984
 41
0.000984
 70
0
  0
VERTEX
  8
20
 10
3.258784
 20
0.200026
 30
0.000000
  0
VERTEX
  8
20
 10
3.258784
 20
0.450026
 30
0.000000
  0
SEQEND
  8
0
  0
POLYLINE
  8
20
 66
1
 10
0.000000
 20
0.000000
 30
0.000000
 40
0.000492
 41
0.000492
 70
0
  0
VERTEX
  8
20
 10
3.259030
 20
0.450026
 30
0.000000
 42
1.000000
  0
VERTEX
  8
20
 10
3.258538
 20
0.450026
 30
0.000000
  0
SEQEND
  8
0
  0
POLYLINE
  8
20
 66
1
 10
0.000000
 20
0.000000
 30
0.000000
 40
0.000492
 41
0.000492
 70
0
  0
VERTEX
  8
20
 10
3.258538
 20
0.200026
 30
0.000000
 42
1.000000
  0
VERTEX
  8
20
 10
3.259030
 20
0.200026
 30
0.000000
  0
SEQEND
  8
0
  0
POLYLINE
  8
20
 66
1
 10
0.000000
 20
0.000000
 30
0.000000
 40
0.000984
 41
0.000984
 70
0
  0
VERTEX
  8
20
 10
3.258784
 20
0.450026
 30
0.000000
  0
VERTEX
  8
20
 10
3.608784
 20
0.450026
 30
0.000000
  0
SEQEND
  8
0
  0
POLYLINE
  8
20
 66
1
 10
0.000000
 20
0.000000
 30
0.000000
 40
0.000492
 41
0.000492
 70
0
  0
VERTEX
  8
20
 10
3.608784
 20
0.449780
 30
0.000000
 42
1.000000
  0
VERTEX
  8
20
 10
3.608784
 20
0.450272
 30
0.000000
  0
SEQEND
  8
0
  0
POLYLINE
  8
20
 66
1
 10
0.000000
 20
0.000000
 30
0.000000
 40
0.000492
 41
0.000492
 70
0
  0
VERTEX
  8
20
 10
3.258784
 20
0.450272
 30
0.000000
 42
1.000000
  0
VERTEX
  8
20
 10
3.258784
 20
0.449780
 30
0.000000
  0
SEQEND
  8
0
  0
POLYLINE
  8
20
 66
1
 10
0.000000
 20
0.000000
 30
0.000000
 40
0.000984
 41
0.000984
 70
0
  0
VERTEX
  8
20
 10
3.608784
 20
2.000026
 30
0.000000
  0
VERTEX
  8
20
 10
3.608784
 20
1.750026
 30
0.000000
  0
SEQEND
  8
0
  0
POLYLINE
  8
20
 66
1
 10
0.000000
 20
0.000000
 30
0.000000
 40
0.000492
 41
0.000492
 70
0
  0
VERTEX
  8
20
 10
3.608538
 20
1.750026
 30
0.000000
 42
1.000000
  0
VERTEX
  8
20
 10
3.609030
 20
1.750026
 30
0.000000
  0
SEQEND
  8
0
  0
POLYLINE
  8
20
 66
1
 10
0.000000
 20
0.000000
 30
0.000000
 40
0.000492
 41
0.000492
 70
0
  0
VERTEX
  8
20
 10
3.609030
 20
2.000026
 30
0.000000
 42
1.000000
  0
VERTEX
  8
20
 10
3.608538
 20
2.000026
 30
0.000000
  0
SEQEND
  8
0
  0
POLYLINE
  8
20
 66
1
 10
0.000000
 20
0.000000
 30
0.000000
 40
0.000984
 41
0.000984
 70
0
  0
VERTEX
  8
20
 10
3.608784
 20
1.750026
 30
0.000000
  0
VERTEX
  8
20
 10
3.258784
 20
1.750026
 30
0.000000
  0
SEQEND
  8
0
  0
POLYLINE
  8
20
 66
1
 10
0.000000
 20
0.000000
 30
0.000000
 40
0.000492
 41
0.000492
 70
0
  0
VERTEX
  8
20
 10
3.258784
 20
1.750272
 30
0.000000
 42
1.000000
  0
VERTEX
  8
20
 10
3.258784
 20
1.749780
 30
0.000000
  0
SEQEND
  8
0
  0
POLYLINE
  8
20
 66
1
 10
0.000000
 20
0.000000
 30
0.000000
 40
0.000492
 41
0.000492
 70
0
  0
VERTEX
  8
20
 10
3.608784
 20
1.749780
 30
0.000000
 42
1.000000
  0
VERTEX
  8
20
 10
3.608784
 20
1.750272
 30
0.000000
  0
SEQEND
  8
0
  0
POLYLINE
  8
20
 66
1
 10
0.000000
 20
0.000000
 30
0.000000
 40
0.000984
 41
0.000984
 70
0
  0
VERTEX
  8
20
 10
3.258784
 20
1.750026
 30
0.000000
  0
VERTEX
  8
20
 10
3.258784
 20
2.000026
 30
0.000000
  0
SEQEND
  8
0
  0
POLYLINE
  8
20
 66
1
 10
0.000000
 20
0.000000
 30
0.000000
 40
0.000492
 41
0.000492
 70
0
  0
VERTEX
  8
20
 10
3.259030
 20
2.000026
 30
0.000000
 42
1.000000
  0
VERTEX
  8
20
 10
3.258538
 20
2.000026
 30
0.000000
  0
SEQEND
  8
0
  0
POLYLINE
  8
20
 66
1
 10
0.000000
 20
0.000000
 30
0.000000
 40
0.000492
 41
0.000492
 70
0
  0
VERTEX
  8
20
 10
3.258538
 20
1.750026
 30
0.000000
 42
1.000000
  0
VERTEX
  8
20
 10
3.259030
 20
1.750026
 30
0.000000
  0
SEQEND
  8
0
  0
POLYLINE
  8
20
 66
1
 10
0.000000
 20
0.000000
 30
0.000000
 40
0.000984
 41
0.000984
 70
0
  0
VERTEX
  8
20
 10
3.258784
 20
2.000026
 30
0.000000
  0
VERTEX
  8
20
 10
3.608784
 20
2.000026
 30
0.000000
  0
SEQEND
  8
0
  0
POLYLINE
  8
20
 66
1
 10
0.000000
 20
0.000000
 30
0.000000
 40
0.000492
 41
0.000492
 70
0
  0
VERTEX
  8
20
 10
3.608784
 20
1.999780
 30
0.000000
 42
1.000000
  0
VERTEX
  8
20
 10
3.608784
 20
2.000272
 30
0.000000
  0
SEQEND
  8
0
  0
POLYLINE
  8
20
 66
1
 10
0.000000
 20
0.000000
 30
0.000000
 40
0.000492
 41
0.000492
 70
0
  0
VERTEX
  8
20
 10
3.258784
 20
2.000272
 30
0.000000
 42
1.000000
  0
VERTEX
  8
20
 10
3.258784
 20
1.999780
 30
0.000000
  0
SEQEND
  8
0
  0
LINE
  8
20
 10
0.000000
 20
10.440000
 30
0.000000
 11
0.380000
 21
10.060000
 31
0.000000
  0
LINE
  8
20
 10
0.380000
 20
10.060000
 30
0.000000
 11
0.380000
 21
1.160000
 31
0.000000
  0
LINE
  8
20
 10
0.380000
 20
1.160000
 30
0.000000
 11
0.000000
 21
0.780000
 31
0.000000
  0
LINE
  8
20
 10
9.330000
 20
9.970000
 30
0.000000
 11
9.330000
 21
9.170000
 31
0.000000
  0
LINE
  8
20
 10
9.330000
 20
9.170000
 30
0.000000
 11
10.030000
 21
9.170000
 31
0.000000
  0
LINE
  8
20
 10
10.030000
 20
9.170000
 30
0.000000
 11
10.030000
 21
9.740000
 31
0.000000
  0
LINE
  8
20
 10
10.670000
 20
9.970000
 30
0.000000
 11
9.330000
 21
9.970000
 31
0.000000
  0
LINE
  8
20
 10
10.030000
 20
9.740000
 30
0.000000
 11
10.670000
 21
9.740000
 31
0.000000
  0
LINE
  8
20
 10
10.670000
 20
9.740000
 30
0.000000
 11
10.670000
 21
9.970000
 31
0.000000
  0
POLYLINE
  8
20
 66
1
 10
0.000000
 20
0.000000
 30
0.000000
 40
0.000984
 41
0.000984
 70
0
  0
VERTEX
  8
20
 10
10.814770
 20
0.126552
 30
0.000000
 42
1.000000
  0
VERTEX
  8
20
 10
10.814770
 20
0.826541
 30
0.000000
 42
1.000000
  0
VERTEX
  8
20
 10
10.814770
 20
0.126552
 30
0.000000
  0
SEQEND
  8
0
  0
POLYLINE
  8
20
 66
1
 10
0.000000
 20
0.000000
 30
0.000000
 40
0.000984
 41
0.000984
 70
0
  0
VERTEX
  8
20
 10
0.550131
 20
0.126552
 30
0.000000
 42
1.000000
  0
VERTEX
  8
20
 10
0.550131
 20
0.826541
 30
0.000000
 42
1.000000
  0
VERTEX
  8
20
 10
0.550131
 20
0.126552
 30
0.000000
  0
SEQEND
  8
0
  0
POLYLINE
  8
20
 66
1
 10
0.000000
 20
0.000000
 30
0.000000
 40
0.000984
 41
0.000984
 70
0
  0
VERTEX
  8
20
 10
4.714480
 20
9.232159
 30
0.000000
 42
1.000000
  0
VERTEX
  8
20
 10
4.714480
 20
9.326600
 30
0.000000
 42
1.000000
  0
VERTEX
  8
20
 10
4.714480
 20
9.232159
 30
0.000000
  0
SEQEND
  8
0
  0
POLYLINE
  8
20
 66
1
 10
0.000000
 20
0.000000
 30
0.000000
 40
0.000984
 41
0.000984
 70
0
  0
VERTEX
  8
20
 10
3.769981
 20
10.176569
 30
0.000000
 42
1.000000
  0
VERTEX
  8
20
 10
3.769981
 20
10.271009
 30
0.000000
 42
1.000000
  0
VERTEX
  8
20
 10
3.769981
 20
10.176569
 30
0.000000
  0
SEQEND
  8
0
  0
POLYLINE
  8
20
 66
1
 10
0.000000
 20
0.000000
 30
0.000000
 40
0.000984
 41
0.000984
 70
0
  0
VERTEX
  8
20
 10
2.312910
 20
2.627230
 30
0.000000
 42
1.000000
  0
VERTEX
  8
20
 10
2.312910
 20
2.721671
 30
0.000000
 42
1.000000
  0
VERTEX
  8
20
 10
2.312910
 20
2.627230
 30
0.000000
  0
SEQEND
  8
0
  0
POLYLINE
  8
20
 66
1
 10
0.000000
 20
0.000000
 30
0.000000
 40
0.000984
 41
0.000984
 70
0
  0
VERTEX
  8
20
 10
1.368500
 20
1.682730
 30
0.000000
 42
1.000000
  0
VERTEX
  8
20
 10
1.368500
 20
1.777171
 30
0.000000
 42
1.000000
  0
VERTEX
  8
20
 10
1.368500
 20
1.682730
 30
0.000000
  0
SEQEND
  8
0
  0
POLYLINE
  8
20
 66
1
 10
0.000000
 20
0.000000
 30
0.000000
 40
0.000984
 41
0.000984
 70
0
  0
VERTEX
  8
20
 10
1.880000
 20
6.210000
 30
0.000000
 42
1.000000
  0
VERTEX
  8
20
 10
1.880000
 20
7.210000
 30
0.000000
 42
1.000000
  0
VERTEX
  8
20
 10
1.880000
 20
6.210000
 30
0.000000
  0
SEQEND
  8
0
  0
POLYLINE
  8
20
 66
1
 10
0.000000
 20
0.000000
 30
0.000000
 40
0.000984
 41
0.000984
 70
0
  0
VERTEX
  8
20
 10
1.880055
 20
1.710026
 30
0.000000
 42
1.000000
  0
VERTEX
  8
20
 10
1.880055
 20
2.710026
 30
0.000000
 42
1.000000
  0
VERTEX
  8
20
 10
1.880055
 20
1.710026
 30
0.000000
  0
SEQEND
  8
0
  0
POLYLINE
  8
20
 66
1
 10
0.000000
 20
0.000000
 30
0.000000
 40
0.000984
 41
0.000984
 70
0
  0
VERTEX
  8
20
 10
10.814770
 20
10.385719
 30
0.000000
 42
1.000000
  0
VERTEX
  8
20
 10
10.814770
 20
11.085708
 30
0.000000
 42
1.000000
  0
VERTEX
  8
20
 10
10.814770
 20
10.385719
 30
0.000000
  0
SEQEND
  8
0
  0
POLYLINE
  8
20
 66
1
 10
0.000000
 20
0.000000
 30
0.000000
 40
0.000984
 41
0.000984
 70
0
  0
VERTEX
  8
20
 10
6.613784
 20
0.270026
 30
0.000000
 42
1.000000
  0
VERTEX
  8
20
 10
6.613784
 20
1.770026
 30
0.000000
 42
1.000000
  0
VERTEX
  8
20
 10
6.613784
 20
0.270026
 30
0.000000
  0
SEQEND
  8
0
  0
POLYLINE
  8
20
 66
1
 10
0.000000
 20
0.000000
 30
0.000000
 40
0.000984
 41
0.000984
 70
0
  0
VERTEX
  8
20
 10
4.250055
 20
9.212234
 30
0.000000
 42
1.000000
  0
VERTEX
  8
20
 10
4.250055
 20
10.212234
 30
0.000000
 42
1.000000
  0
VERTEX
  8
20
 10
4.250055
 20
9.212234
 30
0.000000
  0
SEQEND
  8
0
  0
POLYLINE
  8
20
 66
1
 10
0.000000
 20
0.000000
 30
0.000000
 40
0.000984
 41
0.000984
 70
0
  0
VERTEX
  8
20
 10
0.550131
 20
10.385719
 30
0.000000
 42
1.000000
  0
VERTEX
  8
20
 10
0.550131
 20
11.085708
 30
0.000000
 42
1.000000
  0
VERTEX
  8
20
 10
0.550131
 20
10.385719
 30
0.000000
  0
SEQEND
  8
0
  0
CIRCLE
  8
20
 10
4.505000
 20
2.263000
 30
0.000000
 40
0.062500
  0
CIRCLE
  8
20
 10
6.705000
 20
2.263000
 30
0.000000
 40
0.062500
  0
CIRCLE
  8
20
 10
8.144000
 20
3.406000
 30
0.000000
 40
0.062500
  0
CIRCLE
  8
20
 10
8.144000
 20
5.606000
 30
0.000000
 40
0.062500
  0
CIRCLE
  8
20
 10
8.144000
 20
7.806000
 30
0.000000
 40
0.062500
  0
CIRCLE
  8
20
 10
6.705000
 20
8.948000
 30
0.000000
 40
0.062500
  0
CIRCLE
  8
20
 10
4.505000
 20
8.948000
 30
0.000000
 40
0.062500
  0
CIRCLE
  8
20
 10
3.066000
 20
7.806000
 30
0.000000
 40
0.062500
  0
CIRCLE
  8
20
 10
3.066000
 20
5.606000
 30
0.000000
 40
0.062500
  0
CIRCLE
  8
20
 10
3.066000
 20
3.406000
 30
0.000000
 40
0.062500
  0
CIRCLE
  8
20
 10
5.605000
 20
5.605000
 30
0.000000
 40
0.280000
  0
CIRCLE
  8
20
 10
9.623000
 20
1.305000
 30
0.000000
 40
0.100000
  0
CIRCLE
  8
20
 10
10.122700
 20
1.713400
 30
0.000000
 40
0.055000
  0
CIRCLE
  8
20
 10
6.534600
 20
11.081700
 30
0.000000
 40
0.062992
  0
CIRCLE
  8
20
 10
6.084600
 20
11.081700
 30
0.000000
 40
0.062992
  0
CIRCLE
  8
20
 10
7.364600
 20
11.081700
 30
0.000000
 40
0.062992
  0
CIRCLE
  8
20
 10
6.914600
 20
11.081700
 30
0.000000
 40
0.062992
  0
ENDSEC
  0
EOF
