  0
SECTION
  2
HEADER
  9
$ACADVER
  1
AC1015
  9
$ACADMAINTVER
 70
     6
  9
$DWGCODEPAGE
  3
ANSI_1252
  9
$INSBASE
 10
0.0
 20
0.0
 30
0.0
  9
$EXTMIN
 10
0.0025
 20
-8.12375
 30
0.0
  9
$EXTMAX
 10
8.2475
 20
-0.00125
 30
0.0
  9
$LIMMIN
 10
0.0
 20
0.0
  9
$LIMMAX
 10
12.0
 20
9.0
  9
$ORTHOMODE
 70
     0
  9
$REGENMODE
 70
     1
  9
$FILLMODE
 70
     1
  9
$QTEXTMODE
 70
     0
  9
$MIRRTEXT
 70
     1
  9
$LTSCALE
 40
1.0
  9
$ATTMODE
 70
     1
  9
$TEXTSIZE
 40
0.1377952756
  9
$TRACEWID
 40
0.05
  9
$TEXTSTYLE
  7
Standard
  9
$CLAYER
  8
0
  9
$CELTYPE
  6
ByLayer
  9
$CECOLOR
 62
   256
  9
$CELTSCALE
 40
1.0
  9
$DISPSILH
 70
     0
  9
$DIMSCALE
 40
1.0
  9
$DIMASZ
 40
0.14
  9
$DIMEXO
 40
0.0393700787
  9
$DIMDLI
 40
0.38
  9
$DIMRND
 40
0.0
  9
$DIMDLE
 40
0.0
  9
$DIMEXE
 40
0.0393700787
  9
$DIMTP
 40
0.0
  9
$DIMTM
 40
0.0
  9
$DIMTXT
 40
0.1377952756
  9
$DIMCEN
 40
0.09
  9
$DIMTSZ
 40
0.0
  9
$DIMTOL
 70
     0
  9
$DIMLIM
 70
     0
  9
$DIMTIH
 70
     1
  9
$DIMTOH
 70
     1
  9
$DIMSE1
 70
     0
  9
$DIMSE2
 70
     0
  9
$DIMTAD
 70
     1
  9
$DIMZIN
 70
     1
  9
$DIMBLK
  1

  9
$DIMASO
 70
     1
  9
$DIMSHO
 70
     1
  9
$DIMPOST
  1

  9
$DIMAPOST
  1

  9
$DIMALT
 70
     0
  9
$DIMALTD
 70
     2
  9
$DIMALTF
 40
25.4
  9
$DIMLFAC
 40
1.0
  9
$DIMTOFL
 70
     0
  9
$DIMTVP
 40
0.0
  9
$DIMTIX
 70
     0
  9
$DIMSOXD
 70
     0
  9
$DIMSAH
 70
     0
  9
$DIMBLK1
  1

  9
$DIMBLK2
  1

  9
$DIMSTYLE
  2
Standard
  9
$DIMCLRD
 70
     0
  9
$DIMCLRE
 70
     0
  9
$DIMCLRT
 70
     0
  9
$DIMTFAC
 40
1.0
  9
$DIMGAP
 40
0.06
  9
$DIMJUST
 70
     0
  9
$DIMSD1
 70
     0
  9
$DIMSD2
 70
     0
  9
$DIMTOLJ
 70
     1
  9
$DIMTZIN
 70
     1
  9
$DIMALTZ
 70
     0
  9
$DIMALTTZ
 70
     0
  9
$DIMUPT
 70
     0
  9
$DIMDEC
 70
     2
  9
$DIMTDEC
 70
     2
  9
$DIMALTU
 70
     2
  9
$DIMALTTD
 70
     2
  9
$DIMTXSTY
  7
Standard
  9
$DIMAUNIT
 70
     0
  9
$DIMADEC
 70
     2
  9
$DIMALTRND
 40
0.0
  9
$DIMAZIN
 70
     0
  9
$DIMDSEP
 70
    46
  9
$DIMATFIT
 70
     3
  9
$DIMFRAC
 70
     0
  9
$DIMLDRBLK
  1

  9
$DIMLUNIT
 70
     2
  9
$DIMLWD
 70
    -2
  9
$DIMLWE
 70
    -2
  9
$DIMTMOVE
 70
     0
  9
$LUNITS
 70
     2
  9
$LUPREC
 70
     2
  9
$SKETCHINC
 40
0.1
  9
$FILLETRAD
 40
0.5
  9
$AUNITS
 70
     0
  9
$AUPREC
 70
     2
  9
$MENU
  1
.
  9
$ELEVATION
 40
0.0
  9
$PELEVATION
 40
0.0
  9
$THICKNESS
 40
0.0
  9
$LIMCHECK
 70
     0
  9
$CHAMFERA
 40
0.0
  9
$CHAMFERB
 40
0.0
  9
$CHAMFERC
 40
0.0
  9
$CHAMFERD
 40
0.0
  9
$SKPOLY
 70
     0
  9
$TDCREATE
 40
2458304.552143299
  9
$TDUCREATE
 40
2458304.718809965
  9
$TDUPDATE
 40
2458304.552173762
  9
$TDUUPDATE
 40
2458304.718840428
  9
$TDINDWG
 40
0.0000000116
  9
$TDUSRTIMER
 40
0.0000000116
  9
$USRTIMER
 70
     1
  9
$ANGBASE
 50
0.0
  9
$ANGDIR
 70
     0
  9
$PDMODE
 70
     0
  9
$PDSIZE
 40
-1.0
  9
$PLINEWID
 40
0.0
  9
$SPLFRAME
 70
     0
  9
$SPLINETYPE
 70
     6
  9
$SPLINESEGS
 70
     8
  9
$HANDSEED
  5
1A5
  9
$SURFTAB1
 70
     6
  9
$SURFTAB2
 70
     6
  9
$SURFTYPE
 70
     6
  9
$SURFU
 70
     6
  9
$SURFV
 70
     6
  9
$UCSBASE
  2

  9
$UCSNAME
  2

  9
$UCSORG
 10
0.0
 20
0.0
 30
0.0
  9
$UCSXDIR
 10
1.0
 20
0.0
 30
0.0
  9
$UCSYDIR
 10
0.0
 20
1.0
 30
0.0
  9
$UCSORTHOREF
  2

  9
$UCSORTHOVIEW
 70
     0
  9
$UCSORGTOP
 10
0.0
 20
0.0
 30
0.0
  9
$UCSORGBOTTOM
 10
0.0
 20
0.0
 30
0.0
  9
$UCSORGLEFT
 10
0.0
 20
0.0
 30
0.0
  9
$UCSORGRIGHT
 10
0.0
 20
0.0
 30
0.0
  9
$UCSORGFRONT
 10
0.0
 20
0.0
 30
0.0
  9
$UCSORGBACK
 10
0.0
 20
0.0
 30
0.0
  9
$PUCSBASE
  2

  9
$PUCSNAME
  2

  9
$PUCSORG
 10
0.0
 20
0.0
 30
0.0
  9
$PUCSXDIR
 10
1.0
 20
0.0
 30
0.0
  9
$PUCSYDIR
 10
0.0
 20
1.0
 30
0.0
  9
$PUCSORTHOREF
  2

  9
$PUCSORTHOVIEW
 70
     0
  9
$PUCSORGTOP
 10
0.0
 20
0.0
 30
0.0
  9
$PUCSORGBOTTOM
 10
0.0
 20
0.0
 30
0.0
  9
$PUCSORGLEFT
 10
0.0
 20
0.0
 30
0.0
  9
$PUCSORGRIGHT
 10
0.0
 20
0.0
 30
0.0
  9
$PUCSORGFRONT
 10
0.0
 20
0.0
 30
0.0
  9
$PUCSORGBACK
 10
0.0
 20
0.0
 30
0.0
  9
$USERI1
 70
     0
  9
$USERI2
 70
     0
  9
$USERI3
 70
     0
  9
$USERI4
 70
     0
  9
$USERI5
 70
     0
  9
$USERR1
 40
0.0
  9
$USERR2
 40
0.0
  9
$USERR3
 40
0.0
  9
$USERR4
 40
0.0
  9
$USERR5
 40
0.0
  9
$WORLDVIEW
 70
     1
  9
$SHADEDGE
 70
     3
  9
$SHADEDIF
 70
    70
  9
$TILEMODE
 70
     1
  9
$MAXACTVP
 70
    64
  9
$PINSBASE
 10
0.0
 20
0.0
 30
0.0
  9
$PLIMCHECK
 70
     0
  9
$PEXTMIN
 10
1.0000000000E+20
 20
1.0000000000E+20
 30
1.0000000000E+20
  9
$PEXTMAX
 10
-1.0000000000E+20
 20
-1.0000000000E+20
 30
-1.0000000000E+20
  9
$PLIMMIN
 10
0.0
 20
0.0
  9
$PLIMMAX
 10
12.0
 20
9.0
  9
$UNITMODE
 70
     0
  9
$VISRETAIN
 70
     1
  9
$PLINEGEN
 70
     0
  9
$PSLTSCALE
 70
     1
  9
$TREEDEPTH
 70
  3020
  9
$CMLSTYLE
  2
Standard
  9
$CMLJUST
 70
     0
  9
$CMLSCALE
 40
1.0
  9
$PROXYGRAPHICS
 70
     1
  9
$MEASUREMENT
 70
     0
  9
$CELWEIGHT
370
    -1
  9
$ENDCAPS
280
     0
  9
$JOINSTYLE
280
     0
  9
$LWDISPLAY
290
     1
  9
$INSUNITS
 70
     1
  9
$HYPERLINKBASE
  1

  9
$STYLESHEET
  1

  9
$XEDIT
290
     1
  9
$CEPSNTYPE
380
     0
  9
$PSTYLEMODE
290
     1
  9
$FINGERPRINTGUID
  2
{DA7265A1-09DB-4C8F-8E26-98CBC3A20A27}
  9
$VERSIONGUID
  2
{FAEB1C32-E019-11D5-929B-00C0DF256EC4}
  9
$EXTNAMES
290
     1
  9
$PSVPSCALE
 40
0.0
  9
$OLESTARTUP
290
     0
  0
ENDSEC
  0
SECTION
  2
CLASSES
  0
CLASS
  1
ACDBDICTIONARYWDFLT
  2
AcDbDictionaryWithDefault
  3
ObjectDBX Classes
 90
        0
280
     0
281
     0
  0
CLASS
  1
VISUALSTYLE
  2
AcDbVisualStyle
  3
ObjectDBX Classes
 90
     4095
280
     0
281
     0
  0
CLASS
  1
MATERIAL
  2
AcDbMaterial
  3
ObjectDBX Classes
 90
     1153
280
     0
281
     0
  0
CLASS
  1
SCALE
  2
AcDbScale
  3
ObjectDBX Classes
 90
     1153
280
     0
281
     0
  0
CLASS
  1
TABLESTYLE
  2
AcDbTableStyle
  3
ObjectDBX Classes
 90
     4095
280
     0
281
     0
  0
CLASS
  1
MLEADERSTYLE
  2
AcDbMLeaderStyle
  3
ACDB_MLEADERSTYLE_CLASS
 90
     4095
280
     0
281
     0
  0
CLASS
  1
SUN
  2
AcDbSun
  3
SCENEOE
 90
     1153
280
     0
281
     0
  0
CLASS
  1
ACDBPLACEHOLDER
  2
AcDbPlaceHolder
  3
ObjectDBX Classes
 90
        0
280
     0
281
     0
  0
CLASS
  1
LAYOUT
  2
AcDbLayout
  3
ObjectDBX Classes
 90
        0
280
     0
281
     0
  0
ENDSEC
  0
SECTION
  2
TABLES
  0
TABLE
  2
VPORT
  5
8
330
0
100
AcDbSymbolTable
 70
     1
  0
VPORT
  5
29
330
8
100
AcDbSymbolTableRecord
100
AcDbViewportTableRecord
  2
*Active
 70
     0
 10
0.0
 20
0.0
 11
1.0
 21
1.0
 12
4.125
 22
-4.0625
 13
0.0
 23
0.0
 14
0.5
 24
0.5
 15
0.5
 25
0.5
 16
0.0
 26
0.0
 36
1.0
 17
0.0
 27
0.0
 37
0.0
 40
8.28495
 41
1.0150815636
 42
50.0
 43
0.0
 44
0.0
 50
0.0
 51
0.0
 71
     0
 72
   100
 73
     1
 74
     3
 75
     0
 76
     0
 77
     0
 78
     0
281
     0
 65
     1
110
0.0
120
0.0
130
0.0
111
1.0
121
0.0
131
0.0
112
0.0
122
1.0
132
0.0
 79
     0
146
0.0
  0
ENDTAB
  0
TABLE
  2
LTYPE
  5
5
330
0
100
AcDbSymbolTable
 70
     6
  0
LTYPE
  5
14
330
5
100
AcDbSymbolTableRecord
100
AcDbLinetypeTableRecord
  2
ByBlock
 70
     0
  3

 72
    65
 73
     0
 40
0.0
  0
LTYPE
  5
15
330
5
100
AcDbSymbolTableRecord
100
AcDbLinetypeTableRecord
  2
ByLayer
 70
     0
  3

 72
    65
 73
     0
 40
0.0
  0
LTYPE
  5
16
330
5
100
AcDbSymbolTableRecord
100
AcDbLinetypeTableRecord
  2
Continuous
 70
     0
  3
Solid line
 72
    65
 73
     0
 40
0.0
  0
LTYPE
  5
6E
330
5
100
AcDbSymbolTableRecord
100
AcDbLinetypeTableRecord
  2
HIDDEN
 70
     0
  3
Hidden __ __ __ __ __ __ __ __ __ __ __ __ __ __
 72
    65
 73
     2
 40
0.075
 49
0.05
 74
     0
 49
-0.025
 74
     0
  0
LTYPE
  5
6F
330
5
100
AcDbSymbolTableRecord
100
AcDbLinetypeTableRecord
  2
PHANTOM
 70
     0
  3
Phantom ______  __  __  ______  __  __  ______
 72
    65
 73
     6
 40
0.5
 49
0.25
 74
     0
 49
-0.05
 74
     0
 49
0.05
 74
     0
 49
-0.05
 74
     0
 49
0.05
 74
     0
 49
-0.05
 74
     0
  0
LTYPE
  5
70
330
5
100
AcDbSymbolTableRecord
100
AcDbLinetypeTableRecord
  2
CENTER
 70
     0
  3
Center ____ _ ____ _ ____ _ ____ _ ____ _ ____
 72
    65
 73
     4
 40
0.4
 49
0.25
 74
     0
 49
-0.05
 74
     0
 49
0.05
 74
     0
 49
-0.05
 74
     0
  0
LTYPE
  5
71
330
5
100
AcDbSymbolTableRecord
100
AcDbLinetypeTableRecord
  2
CENTERX2
 70
     0
  3
Center (2x) ________  __  ________  __  _____
 72
    65
 73
     4
 40
0.8
 49
0.5
 74
     0
 49
-0.1
 74
     0
 49
0.1
 74
     0
 49
-0.1
 74
     0
  0
LTYPE
  5
72
330
5
100
AcDbSymbolTableRecord
100
AcDbLinetypeTableRecord
  2
DOT2
 70
     0
  3
Dot (.5x) ........................................
 72
    65
 73
     2
 40
0.025
 49
0.0
 74
     0
 49
-0.025
 74
     0
  0
ENDTAB
  0
TABLE
  2
LAYER
  5
2
330
0
100
AcDbSymbolTable
 70
     1
  0
LAYER
  5
10
330
2
100
AcDbSymbolTableRecord
100
AcDbLayerTableRecord
  2
0
 70
     0
 62
     7
  6
Continuous
370
    -3
390
F
  0
ENDTAB
  0
TABLE
  2
STYLE
  5
3
330
0
100
AcDbSymbolTable
 70
     1
  0
STYLE
  5
11
330
3
100
AcDbSymbolTableRecord
100
AcDbTextStyleTableRecord
  2
Standard
 70
     0
 40
0.0
 41
1.0
 50
0.0
 71
     0
 42
0.1377952756
  3
txt
  4

  0
ENDTAB
  0
TABLE
  2
VIEW
  5
6
330
0
100
AcDbSymbolTable
 70
     0
  0
ENDTAB
  0
TABLE
  2
UCS
  5
7
330
0
100
AcDbSymbolTable
 70
     0
  0
ENDTAB
  0
TABLE
  2
APPID
  5
9
330
0
100
AcDbSymbolTable
 70
     1
  0
APPID
  5
12
330
9
100
AcDbSymbolTableRecord
100
AcDbRegAppTableRecord
  2
ACAD
 70
     0
  0
ENDTAB
  0
TABLE
  2
DIMSTYLE
  5
A
330
0
100
AcDbSymbolTable
 70
     1
100
AcDbDimStyleTable
  0
DIMSTYLE
105
27
330
A
100
AcDbSymbolTableRecord
100
AcDbDimStyleTableRecord
  2
Standard
 70
     0
178
     0
340
11
  0
ENDTAB
  0
TABLE
  2
BLOCK_RECORD
  5
1
330
0
100
AcDbSymbolTable
 70
     1
  0
BLOCK_RECORD
  5
1F
330
1
100
AcDbSymbolTableRecord
100
AcDbBlockTableRecord
  2
*Model_Space
340
22
  0
BLOCK_RECORD
  5
1B
330
1
100
AcDbSymbolTableRecord
100
AcDbBlockTableRecord
  2
*Paper_Space
340
1E
  0
BLOCK_RECORD
  5
23
330
1
100
AcDbSymbolTableRecord
100
AcDbBlockTableRecord
  2
*Paper_Space0
340
26
  0
ENDTAB
  0
ENDSEC
  0
SECTION
  2
BLOCKS
  0
BLOCK
  5
20
330
1F
100
AcDbEntity
  8
0
100
AcDbBlockBegin
  2
*Model_Space
 70
     0
 10
0.0
 20
0.0
 30
0.0
  3
*Model_Space
  1

  0
ENDBLK
  5
21
330
1F
100
AcDbEntity
  8
0
100
AcDbBlockEnd
  0
BLOCK
  5
1C
330
1B
100
AcDbEntity
 67
     1
  8
0
100
AcDbBlockBegin
  2
*Paper_Space
 70
     0
 10
0.0
 20
0.0
 30
0.0
  3
*Paper_Space
  1

  0
ENDBLK
  5
1D
330
1B
100
AcDbEntity
 67
     1
  8
0
100
AcDbBlockEnd
  0
BLOCK
  5
24
330
23
100
AcDbEntity
  8
0
100
AcDbBlockBegin
  2
*Paper_Space0
 70
     0
 10
0.0
 20
0.0
 30
0.0
  3
*Paper_Space0
  1

  0
ENDBLK
  5
25
330
23
100
AcDbEntity
  8
0
100
AcDbBlockEnd
  0
ENDSEC
  0
SECTION
  2
ENTITIES
  0
SPLINE
  5
74
330
1F
100
AcDbEntity
  8
0
  6
Continuous
 62
     7
370
    25
100
AcDbSpline
210
0.0
220
0.0
230
1.0
 70
     8
 71
     3
 72
    17
 73
    13
 74
     0
 42
0.000000001
 43
0.00000001
 40
0.0
 40
0.0
 40
0.0
 40
0.0
 40
0.1369635289454066
 40
0.2671950928647384
 40
0.3919768706084532
 40
0.5111291310158633
 40
0.6280858786100619
 40
0.7447240499558696
 40
0.8047561791511112
 40
0.8670450387006061
 40
0.9321351746682024
 40
1.0
 40
1.0
 40
1.0
 40
1.0
 10
1.50025529926974
 20
-8.035806373388095
 30
0.0
 10
1.500815085092855
 20
-8.037503919354538
 30
0.0
 10
1.501907142417479
 20
-8.04081557433042
 30
0.0
 10
1.504063324809183
 20
-8.045463597613045
 30
0.0
 10
1.506648427599064
 20
-8.049626328333817
 30
0.0
 10
1.509824474076205
 20
-8.053129264609709
 30
0.0
 10
1.513425336630284
 20
-8.056033460263082
 30
0.0
 10
1.5168652469008
 20
-8.057776166187539
 30
0.0
 10
1.519804103103666
 20
-8.058822134293465
 30
0.0
 10
1.5221880571683
 20
-8.059388002785703
 30
0.0
 10
1.524721843563488
 20
-8.059685058266453
 30
0.0
 10
1.526455262093673
 20
-8.059741804100426
 30
0.0
 10
1.527340059055202
 20
-8.059770769142974
 30
0.0
  0
SPLINE
  5
75
330
1F
100
AcDbEntity
  8
0
  6
Continuous
 62
     7
370
    25
100
AcDbSpline
210
0.0
220
0.0
230
1.0
 70
     8
 71
     3
 72
    11
 73
     7
 74
     0
 42
0.000000001
 43
0.00000001
 40
0.0
 40
0.0
 40
0.0
 40
0.0
 40
0.2539187888215199
 40
0.5082690783223827
 40
0.7561564653974546
 40
1.0
 40
1.0
 40
1.0
 40
1.0
 10
1.55826286659828
 20
-8.005975693255719
 30
0.0
 10
1.55825547577733
 20
-8.004779036006344
 30
0.0
 10
1.558240681575728
 20
-8.002383687950257
 30
0.0
 10
1.557978834259543
 20
-7.998829365201487
 30
0.0
 10
1.557751970605424
 20
-7.995321646816158
 30
0.0
 10
1.55753029474249
 20
-7.993015325324039
 30
0.0
 10
1.557420368310023
 20
-7.991871647837483
 30
0.0
  0
SPLINE
  5
76
330
1F
100
AcDbEntity
  8
0
  6
Continuous
 62
     7
370
    25
100
AcDbSpline
210
0.0
220
0.0
230
1.0
 70
     8
 71
     3
 72
    23
 73
    19
 74
     0
 42
0.000000001
 43
0.00000001
 40
0.0
 40
0.0
 40
0.0
 40
0.0
 40
0.0497703177215132
 40
0.0981213906708493
 40
0.1458143641531145
 40
0.1936801658877679
 40
0.2426576094568622
 40
0.2925036577654569
 40
0.344713166747743
 40
0.4000673873688878
 40
0.4588479512838081
 40
0.5215784588691904
 40
0.588978124250633
 40
0.6610400881690423
 40
0.7377361484837156
 40
0.8196189073590037
 40
0.9069643866908126
 40
1.0
 40
1.0
 40
1.0
 40
1.0
 10
1.527340059055202
 20
-8.059770769142974
 30
0.0
 10
1.528487836315574
 20
-8.059731341186426
 30
0.0
 10
1.53075066094929
 20
-8.0596536095965
 30
0.0
 10
1.534050217327319
 20
-8.058959683102303
 30
0.0
 10
1.537210501425687
 20
-8.057923139089118
 30
0.0
 10
1.540156835166373
 20
-8.056346279031048
 30
0.0
 10
1.542949721756507
 20
-8.054428211996138
 30
0.0
 10
1.545491106283504
 20
-8.05203627624134
 30
0.0
 10
1.547852911577784
 20
-8.049275414318283
 30
0.0
 10
1.549964851939845
 20
-8.046067553698473
 30
0.0
 10
1.551866055644186
 20
-8.042458801613838
 30
0.0
 10
1.553557341548542
 20
-8.038443233035355
 30
0.0
 10
1.554979506082253
 20
-8.034002312412303
 30
0.0
 10
1.556142620013585
 20
-8.02915815721079
 30
0.0
 10
1.557125511293052
 20
-8.023933934932533
 30
0.0
 10
1.557792432112413
 20
-8.018305069920823
 30
0.0
 10
1.558204375330762
 20
-8.012274689644663
 30
0.0
 10
1.558242963750985
 20
-8.008119055309042
 30
0.0
 10
1.558262866598281
 20
-8.005975693255719
 30
0.0
  0
SPLINE
  5
DB
330
1F
100
AcDbEntity
  8
0
  6
Continuous
 62
     7
370
    25
100
AcDbSpline
210
0.0
220
0.0
230
1.0
 70
     8
 71
     3
 72
    11
 73
     7
 74
     0
 42
0.000000001
 43
0.00000001
 40
0.0
 40
0.0
 40
0.0
 40
0.0
 40
0.2205694034808595
 40
0.4688718329297377
 40
0.7334646236784891
 40
0.9999999999999999
 40
0.9999999999999999
 40
0.9999999999999999
 40
0.9999999999999999
 10
1.130897808969614
 20
-8.057773736163401
 30
0.0
 10
1.132912176015705
 20
-8.058103671031583
 30
0.0
 10
1.137194184101089
 20
-8.058805024727748
 30
0.0
 10
1.143966157146743
 20
-8.059302034628788
 30
0.0
 10
1.151164897068898
 20
-8.059703850469736
 30
0.0
 10
1.156078464800437
 20
-8.05974840859522
 30
0.0
 10
1.158544234280581
 20
-8.059770769142975
 30
0.0
  0
SPLINE
  5
E7
330
1F
100
AcDbEntity
  8
0
  6
Continuous
 62
     7
370
    25
100
AcDbSpline
210
0.0
220
0.0
230
1.0
 70
     8
 71
     3
 72
    15
 73
    11
 74
     0
 42
0.000000001
 43
0.00000001
 40
0.0
 40
0.0
 40
0.0
 40
0.0
 40
0.1293289278595482
 40
0.2560372341349947
 40
0.3796195647618942
 40
0.5016535418694636
 40
0.62283598713901
 40
0.7450137874869665
 40
0.8706710721404619
 40
1.0
 40
1.0
 40
1.0
 40
1.0
 10
1.037037258929675
 20
-8.057929754364933
 30
0.0
 10
1.037097697112521
 20
-8.05670427709448
 30
0.0
 10
1.037217348805522
 20
-8.054278154679217
 30
0.0
 10
1.03833572277195
 20
-8.050829806917925
 30
0.0
 10
1.039992674812606
 20
-8.047709597782823
 30
0.0
 10
1.0421892680443
 20
-8.04499403041573
 30
0.0
 10
1.044885303131045
 20
-8.042802833314454
 30
0.0
 10
1.047937203378855
 20
-8.041084008116533
 30
0.0
 10
1.051370239320218
 20
-8.039980909565884
 30
0.0
 10
1.053785524070167
 20
-8.039861170808058
 30
0.0
 10
1.055010555745833
 20
-8.039800439347244
 30
0.0
  0
SPLINE
  5
E8
330
1F
100
AcDbEntity
  8
0
  6
Continuous
 62
     7
370
    25
100
AcDbSpline
210
0.0
220
0.0
230
1.0
 70
     8
 71
     3
 72
    15
 73
    11
 74
     0
 42
0.000000001
 43
0.00000001
 40
0.0
 40
0.0
 40
0.0
 40
0.0
 40
0.1205665457744871
 40
0.2495365503988436
 40
0.3821068069872894
 40
0.5148245160398599
 40
0.645275466559809
 40
0.7734740670754902
 40
0.8925188579878193
 40
1.0
 40
1.0
 40
1.0
 40
1.0
 10
1.15720247774743
 20
-8.07574703297956
 30
0.0
 10
1.156141287962468
 20
-8.075746282158478
 30
0.0
 10
1.153944943723217
 20
-8.075744728184263
 30
0.0
 10
1.150586991417424
 20
-8.075552445765927
 30
0.0
 10
1.147121506093389
 20
-8.075388477440587
 30
0.0
 10
1.14364837809867
 20
-8.075128617899884
 30
0.0
 10
1.140216013926956
 20
-8.074847249678136
 30
0.0
 10
1.136904903580495
 20
-8.074555602243263
 30
0.0
 10
1.133805008030836
 20
-8.074183272895265
 30
0.0
 10
1.131833325306255
 20
-8.073889424189119
 30
0.0
 10
1.130897808969614
 20
-8.073749999999988
 30
0.0
  0
SPLINE
  5
E9
330
1F
100
AcDbEntity
  8
0
  6
Continuous
 62
     7
370
    25
100
AcDbSpline
210
0.0
220
0.0
230
1.0
 70
     8
 71
     3
 72
    11
 73
     7
 74
     0
 42
0.000000001
 43
0.00000001
 40
0.0
 40
0.0
 40
0.0
 40
0.0
 40
0.2529718016997031
 40
0.502242667010101
 40
0.7524256417325339
 40
1.0
 40
1.0
 40
1.0
 40
1.0
 10
0.4700983182130238
 20
-7.965910219103042
 30
0.0
 10
0.4717843645245371
 20
-7.965940410157131
 30
0.0
 10
0.4751317905637527
 20
-7.96600035057509
 30
0.0
 10
0.4801280788863416
 20
-7.966476613793413
 30
0.0
 10
0.4850444795573081
 20
-7.967299265499525
 30
0.0
 10
0.4882539148080779
 20
-7.968142914634279
 30
0.0
 10
0.4898502225266151
 20
-7.968562528529038
 30
0.0
  0
SPLINE
  5
EA
330
1F
100
AcDbEntity
  8
0
  6
Continuous
 62
     7
370
    25
100
AcDbSpline
210
0.0
220
0.0
230
1.0
 70
     8
 71
     3
 72
    15
 73
    11
 74
     0
 42
0.000000001
 43
0.00000001
 40
0.0
 40
0.0
 40
0.0
 40
0.0
 40
0.1202380359275237
 40
0.2397260305954453
 40
0.3589241442989173
 40
0.4787848979890275
 40
0.601319817777147
 40
0.7278337666085795
 40
0.860177148471683
 40
1.0
 40
1.0
 40
1.0
 40
1.0
 10
0.8932508844004025
 20
-7.951899784605721
 30
0.0
 10
0.894557638311169
 20
-7.950583243957251
 30
0.0
 10
0.8971629946410254
 20
-7.947958375201364
 30
0.0
 10
0.9015030565737662
 20
-7.944506686151375
 30
0.0
 10
0.9061052399770709
 20
-7.941436438121993
 30
0.0
 10
0.9109975164107986
 20
-7.938746873734127
 30
0.0
 10
0.9162652588290946
 20
-7.936562449558039
 30
0.0
 10
0.9219612887345624
 20
-7.93504807004902
 30
0.0
 10
0.9280547765336425
 20
-7.934131850865159
 30
0.0
 10
0.9322521332767337
 20
-7.934016798502733
 30
0.0
 10
0.9344084859637938
 20
-7.933957691429867
 30
0.0
  0
SPLINE
  5
EB
330
1F
100
AcDbEntity
  8
0
  6
Continuous
 62
     7
370
    25
100
AcDbSpline
210
0.0
220
0.0
230
1.0
 70
     8
 71
     3
 72
    15
 73
    11
 74
     0
 42
0.000000001
 43
0.00000001
 40
0.0
 40
0.0
 40
0.0
 40
0.0
 40
0.1273015036560745
 40
0.2520937778231236
 40
0.3759319838170924
 40
0.4974691839919297
 40
0.6198623440206457
 40
0.7446793662839807
 40
0.8715920731133923
 40
0.9999999999999999
 40
0.9999999999999999
 40
0.9999999999999999
 40
0.9999999999999999
 10
1.072983852561992
 20
-8.057929754364933
 30
0.0
 10
1.072924270352652
 20
-8.059124765205652
 30
0.0
 10
1.072806280354009
 20
-8.061491232126501
 30
0.0
 10
1.071668378321879
 20
-8.064857523287063
 30
0.0
 10
1.07004084767972
 20
-8.067933985212985
 30
0.0
 10
1.067806982873531
 20
-8.070582176036234
 30
0.0
 10
1.065137618000828
 20
-8.07280390198107
 30
0.0
 10
1.06202288840935
 20
-8.074439246514602
 30
0.0
 10
1.058611381667874
 20
-8.075565174644098
 30
0.0
 10
1.056215507993856
 20
-8.07568617732731
 30
0.0
 10
1.055010555745834
 20
-8.075747032979564
 30
0.0
  0
SPLINE
  5
EC
330
1F
100
AcDbEntity
  8
0
  6
Continuous
 62
     7
370
    25
100
AcDbSpline
210
0.0
220
0.0
230
1.0
 70
     8
 71
     3
 72
    23
 73
    19
 74
     0
 42
0.000000001
 43
0.00000001
 40
0.0
 40
0.0
 40
0.0
 40
0.0
 40
0.0560754448420639
 40
0.1104504311077547
 40
0.163100829541847
 40
0.2149963896352521
 40
0.2662585443541058
 40
0.3176519471404182
 40
0.3701298582871814
 40
0.42433130394234
 40
0.4810042448570457
 40
0.5407912682880618
 40
0.6049185446651468
 40
0.6731779438993841
 40
0.7464698986733892
 40
0.8249713920767526
 40
0.9095805018795878
 40
1.0
 40
1.0
 40
1.0
 40
1.0
 10
1.761897823234136
 20
-8.075747032979557
 30
0.0
 10
1.760064435672153
 20
-8.075702634005198
 30
0.0
 10
1.756453257068418
 20
-8.075615182432193
 30
0.0
 10
1.751168349466445
 20
-8.074819004733744
 30
0.0
 10
1.746134505346982
 20
-8.07350666047388
 30
0.0
 10
1.741371956104279
 20
-8.071669617667258
 30
0.0
 10
1.736910888815361
 20
-8.069276692310751
 30
0.0
 10
1.732744738215026
 20
-8.066362922018394
 30
0.0
 10
1.728955755398778
 20
-8.062828492230139
 30
0.0
 10
1.725511804024001
 20
-8.058736186010044
 30
0.0
 10
1.722398641380315
 20
-8.054093300744617
 30
0.0
 10
1.719723762614922
 20
-8.048819518453762
 30
0.0
 10
1.717400019349233
 20
-8.04297842099091
 30
0.0
 10
1.715417936143474
 20
-8.03654677579328
 30
0.0
 10
1.713925632606089
 20
-8.029504728168279
 30
0.0
 10
1.71279325992231
 20
-8.021858060509427
 30
0.0
 10
1.712153215347339
 20
-8.013589950631875
 30
0.0
 10
1.712074876004353
 20
-8.007869793490073
 30
0.0
 10
1.712034406025416
 20
-8.00491476948532
 30
0.0
  0
SPLINE
  5
ED
330
1F
100
AcDbEntity
  8
0
  6
Continuous
 62
     7
370
    25
100
AcDbSpline
210
0.0
220
0.0
230
1.0
 70
     8
 71
     3
 72
    23
 73
    19
 74
     0
 42
0.000000001
 43
0.00000001
 40
0.0
 40
0.0
 40
0.0
 40
0.0
 40
0.0711051341112836
 40
0.1396666098105347
 40
0.2057540422823752
 40
0.2702052712879931
 40
0.3327152954966479
 40
0.3931619705096966
 40
0.452297101711722
 40
0.5101303837657755
 40
0.5676286403677706
 40
0.6249469479130656
 40
0.6828752647825956
 40
0.7425018086467524
 40
0.8033367640790458
 40
0.8659668639087892
 40
0.9314424380737635
 40
1.0
 40
1.0
 40
1.0
 40
1.0
 10
0.6336365970558862
 20
-8.019986127753047
 30
0.0
 10
0.6335961625799524
 20
-8.022005791035738
 30
0.0
 10
0.6335167400988092
 20
-8.025972867776087
 30
0.0
 10
0.6328477138327868
 20
-8.03178591762424
 30
0.0
 10
0.6317624695159586
 20
-8.037340805583218
 30
0.0
 10
0.6302325589839705
 20
-8.042612036022955
 30
0.0
 10
0.6283155489640175
 20
-8.047585643528778
 30
0.0
 10
0.6259528211115082
 20
-8.052194398411174
 30
0.0
 10
0.6232506385788289
 20
-8.056456538204388
 30
0.0
 10
0.620134467729219
 20
-8.060322020599937
 30
0.0
 10
0.6166609824538523
 20
-8.063793527308377
 30
0.0
 10
0.6128379099156454
 20
-8.066885904816909
 30
0.0
 10
0.6086067635970076
 20
-8.069504802454425
 30
0.0
 10
0.6040619599730932
 20
-8.0717596904791
 30
0.0
 10
0.5991665969005665
 20
-8.07354634100581
 30
0.0
 10
0.5939458199476407
 20
-8.074817356609758
 30
0.0
 10
0.588405858083098
 20
-8.075620703713035
 30
0.0
 10
0.5845977070492719
 20
-8.075704282613446
 30
0.0
 10
0.5826498487961582
 20
-8.075747032979569
 30
0.0
  0
SPLINE
  5
EE
330
1F
100
AcDbEntity
  8
0
  6
Continuous
 62
     7
370
    25
100
AcDbSpline
210
0.0
220
0.0
230
1.0
 70
     8
 71
     3
 72
    15
 73
    11
 74
     0
 42
0.000000001
 43
0.00000001
 40
0.0
 40
0.0
 40
0.0
 40
0.0
 40
0.1253157288424488
 40
0.2466569982708374
 40
0.3658196397756533
 40
0.486368987666717
 40
0.6094467556062093
 40
0.7344849298911665
 40
0.8651346712863754
 40
1.0
 40
1.0
 40
1.0
 40
1.0
 10
0.2142596713455125
 20
-7.937951757389021
 30
0.0
 10
0.2143081359406187
 20
-7.936997958074707
 30
0.0
 10
0.2144035280487098
 20
-7.935120609732291
 30
0.0
 10
0.2153232082087721
 20
-7.932461935459886
 30
0.0
 10
0.2167352736415923
 20
-7.930103403820763
 30
0.0
 10
0.2185051568928249
 20
-7.927968614485639
 30
0.0
 10
0.2207545874887983
 20
-7.926273367177726
 30
0.0
 10
0.2233051558938312
 20
-7.924913969038126
 30
0.0
 10
0.2261992644821754
 20
-7.924146769636336
 30
0.0
 10
0.2282140377589846
 20
-7.924031219099403
 30
0.0
 10
0.2292374186923117
 20
-7.923972526532008
 30
0.0
  0
SPLINE
  5
EF
330
1F
100
AcDbEntity
  8
0
  6
Continuous
 62
     7
370
    25
100
AcDbSpline
210
0.0
220
0.0
230
1.0
 70
     8
 71
     3
 72
    23
 73
    19
 74
     0
 42
0.000000001
 43
0.00000001
 40
0.0
 40
0.0
 40
0.0
 40
0.0
 40
0.063655555987727
 40
0.1227665780776434
 40
0.1795771244218449
 40
0.2332310164398697
 40
0.2862459719746572
 40
0.3378673466847786
 40
0.390852396728237
 40
0.4448632860324756
 40
0.5012362157355477
 40
0.560678132451187
 40
0.6231841571230112
 40
0.6896027279103938
 40
0.7599809721483146
 40
0.8354821017882346
 40
0.9149989291947298
 40
1.0
 40
1.0
 40
1.0
 40
1.0
 10
1.194802864315957
 20
-8.03068897637794
 30
0.0
 10
1.194768472736191
 20
-8.029637562219811
 30
0.0
 10
1.19470214488001
 20
-8.027609797065095
 30
0.0
 10
1.194317615730464
 20
-8.02465823135521
 30
0.0
 10
1.193552303964357
 20
-8.021955723823329
 30
0.0
 10
1.192558538024754
 20
-8.019436184206299
 30
0.0
 10
1.191239360226397
 20
-8.017168642537888
 30
0.0
 10
1.189664599429323
 20
-8.015081568035395
 30
0.0
 10
1.187736407795151
 20
-8.013292255419792
 30
0.0
 10
1.185568396959113
 20
-8.011673020338435
 30
0.0
 10
1.183101636258444
 20
-8.010323526058928
 30
0.0
 10
1.180423676579649
 20
-8.009085196293032
 30
0.0
 10
1.177461564514958
 20
-8.00811510173376
 30
0.0
 10
1.174281158242648
 20
-8.007251105766239
 30
0.0
 10
1.170820509651956
 20
-8.006654530817626
 30
0.0
 10
1.167125493231529
 20
-8.006183460483546
 30
0.0
 10
1.163166728101604
 20
-8.005900286174379
 30
0.0
 10
1.160448112945854
 20
-8.005867709834481
 30
0.0
 10
1.159043492525474
 20
-8.005850878694499
 30
0.0
  0
SPLINE
  5
F0
330
1F
100
AcDbEntity
  8
0
  6
Continuous
 62
     7
370
    25
100
AcDbSpline
210
0.0
220
0.0
230
1.0
 70
     8
 71
     3
 72
    23
 73
    19
 74
     0
 42
0.000000001
 43
0.00000001
 40
0.0
 40
0.0
 40
0.0
 40
0.0
 40
0.0560754448420639
 40
0.1104504311077547
 40
0.163100829541847
 40
0.2149963896352521
 40
0.2662585443541058
 40
0.3176519471404182
 40
0.3701298582871814
 40
0.42433130394234
 40
0.4810042448570457
 40
0.5407912682880618
 40
0.6049185446651468
 40
0.6731779438993841
 40
0.7464698986733892
 40
0.8249713920767526
 40
0.9095805018795878
 40
1.0
 40
1.0
 40
1.0
 40
1.0
 10
1.526247931644499
 20
-8.075747032979558
 30
0.0
 10
1.524414544082515
 20
-8.0757026340052
 30
0.0
 10
1.52080336547878
 20
-8.075615182432195
 30
0.0
 10
1.515518457876808
 20
-8.074819004733747
 30
0.0
 10
1.510484613757345
 20
-8.073506660473884
 30
0.0
 10
1.505722064514641
 20
-8.071669617667261
 30
0.0
 10
1.501260997225723
 20
-8.069276692310753
 30
0.0
 10
1.497094846625388
 20
-8.066362922018397
 30
0.0
 10
1.49330586380914
 20
-8.06282849223014
 30
0.0
 10
1.489861912434364
 20
-8.058736186010048
 30
0.0
 10
1.486748749790677
 20
-8.054093300744618
 30
0.0
 10
1.484073871025285
 20
-8.048819518453765
 30
0.0
 10
1.481750127759595
 20
-8.042978420990913
 30
0.0
 10
1.479768044553837
 20
-8.036546775793282
 30
0.0
 10
1.478275741016452
 20
-8.029504728168282
 30
0.0
 10
1.477143368332672
 20
-8.02185806050943
 30
0.0
 10
1.476503323757702
 20
-8.013589950631877
 30
0.0
 10
1.476424984414715
 20
-8.007869793490075
 30
0.0
 10
1.476384514435779
 20
-8.004914769485321
 30
0.0
  0
SPLINE
  5
F1
330
1F
100
AcDbEntity
  8
0
  6
Continuous
 62
     7
370
    25
100
AcDbSpline
210
0.0
220
0.0
230
1.0
 70
     8
 71
     3
 72
    15
 73
    11
 74
     0
 42
0.000000001
 43
0.00000001
 40
0.0
 40
0.0
 40
0.0
 40
0.0
 40
0.1349482024531737
 40
0.2660444888117078
 40
0.3905342393234701
 40
0.5136876376342506
 40
0.6343110622013232
 40
0.7559203247742197
 40
0.8773361575085463
 40
1.0
 40
1.0
 40
1.0
 40
1.0
 10
0.2292374186923117
 20
-7.951930988246033
 30
0.0
 10
0.2282126539498204
 20
-7.951876517367297
 30
0.0
 10
0.226192375004919
 20
-7.951769130408266
 30
0.0
 10
0.2233199606870384
 20
-7.950941575939382
 30
0.0
 10
0.2207447151057429
 20
-7.949639329147256
 30
0.0
 10
0.2185090417324681
 20
-7.947930431939868
 30
0.0
 10
0.2167142371732611
 20
-7.945792199977153
 30
0.0
 10
0.2153401718877457
 20
-7.943389874645129
 30
0.0
 10
0.214407688241484
 20
-7.940742049903853
 30
0.0
 10
0.2143091782088556
 20
-7.938885019969022
 30
0.0
 10
0.2142596713455125
 20
-7.937951757389021
 30
0.0
  0
SPLINE
  5
F2
330
1F
100
AcDbEntity
  8
0
  6
Continuous
 62
     7
370
    25
100
AcDbSpline
210
0.0
220
0.0
230
1.0
 70
     8
 71
     3
 72
    15
 73
    11
 74
     0
 42
0.000000001
 43
0.00000001
 40
0.0
 40
0.0
 40
0.0
 40
0.0
 40
0.1349046938023531
 40
0.2642702301459265
 40
0.3905634202535216
 40
0.5125963066140785
 40
0.6340735831696631
 40
0.7532710063934049
 40
0.8746476934482749
 40
1.0
 40
1.0
 40
1.0
 40
1.0
 10
0.2292374186923117
 20
-7.923972526532008
 30
0.0
 10
0.2302615088044367
 20
-7.924029382280975
 30
0.0
 10
0.2322676401108683
 20
-7.924140759294189
 30
0.0
 10
0.235151312564757
 20
-7.924930715962375
 30
0.0
 10
0.237714405637926
 20
-7.926251540212927
 30
0.0
 10
0.2399377525427562
 20
-7.927991354171339
 30
0.0
 10
0.241743410138108
 20
-7.930090618817624
 30
0.0
 10
0.2431496507566562
 20
-7.932463810906086
 30
0.0
 10
0.2440718267430599
 20
-7.935120119255216
 30
0.0
 10
0.2441668757558531
 20
-7.936997792835464
 30
0.0
 10
0.2442151660391109
 20
-7.937951757389021
 30
0.0
  0
SPLINE
  5
F3
330
1F
100
AcDbEntity
  8
0
  6
Continuous
 62
     7
370
    25
100
AcDbSpline
210
0.0
220
0.0
230
1.0
 70
     8
 71
     3
 72
    23
 73
    19
 74
     0
 42
0.000000001
 43
0.00000001
 40
0.0
 40
0.0
 40
0.0
 40
0.0
 40
0.067489850736879
 40
0.1316503276119227
 40
0.1930698715452516
 40
0.2525212601990556
 40
0.3105163372389531
 40
0.3669245519811196
 40
0.4225370314641583
 40
0.4782311252696424
 40
0.5347198046749998
 40
0.592511385287721
 40
0.6524940089883831
 40
0.7153300412997131
 40
0.7810543447451284
 40
0.8503702573695947
 40
0.9230977047341895
 40
1.0
 40
1.0
 40
1.0
 40
1.0
 10
0.5847716963369535
 20
-7.965910219103042
 30
0.0
 10
0.5866352505530454
 20
-7.965951054878971
 30
0.0
 10
0.590270427107629
 20
-7.966030711941782
 30
0.0
 10
0.5955724631047765
 20
-7.966682786351246
 30
0.0
 10
0.6005568273997853
 20
-7.967826320322656
 30
0.0
 10
0.6052725023234738
 20
-7.969325866527292
 30
0.0
 10
0.6096341687877379
 20
-7.971350439580281
 30
0.0
 10
0.6137087912666315
 20
-7.973702405519181
 30
0.0
 10
0.6173645805793646
 20
-7.976561779802776
 30
0.0
 10
0.6207460965518766
 20
-7.979740650006967
 30
0.0
 10
0.6237153849020369
 20
-7.98339261111613
 30
0.0
 10
0.6263077675371076
 20
-7.987454026520048
 30
0.0
 10
0.6285803281362076
 20
-7.991903923949708
 30
0.0
 10
0.6303886950611312
 20
-7.99679401183732
 30
0.0
 10
0.6318794817369479
 20
-8.0020570556623
 30
0.0
 10
0.6328729298325464
 20
-8.007713740464325
 30
0.0
 10
0.6335151556109353
 20
-8.013730605985751
 30
0.0
 10
0.63359537054354
 20
-8.017862525341407
 30
0.0
 10
0.6336365970558862
 20
-8.019986127753047
 30
0.0
  0
SPLINE
  5
F4
330
1F
100
AcDbEntity
  8
0
  6
Continuous
 62
     7
370
    25
100
AcDbSpline
210
0.0
220
0.0
230
1.0
 70
     8
 71
     3
 72
    23
 73
    19
 74
     0
 42
0.000000001
 43
0.00000001
 40
0.0
 40
0.0
 40
0.0
 40
0.0
 40
0.0564378817259516
 40
0.1112990574483756
 40
0.1640310687297248
 40
0.2157806805368568
 40
0.2677139154250324
 40
0.3209381028139445
 40
0.3754606319067608
 40
0.4317167190758579
 40
0.4905125344808695
 40
0.5521201901629541
 40
0.6168418859798591
 40
0.6849338172105787
 40
0.7567530499624988
 40
0.8330433711476203
 40
0.9141139781271502
 40
1.0
 40
1.0
 40
1.0
 40
1.0
 10
0.9751292365629041
 20
-7.973991961942248
 30
0.0
 10
0.9751049198545961
 20
-7.975282473458277
 30
0.0
 10
0.9750569657742493
 20
-7.977827443449488
 30
0.0
 10
0.9746890252692781
 20
-7.981565100218899
 30
0.0
 10
0.9740224614173111
 20
-7.985150554013814
 30
0.0
 10
0.9731116068932036
 20
-7.988612561729439
 30
0.0
 10
0.9719373976394986
 20
-7.992005081274631
 30
0.0
 10
0.9705444746024178
 20
-7.995383401096045
 30
0.0
 10
0.9688349932681998
 20
-7.998724176774633
 30
0.0
 10
0.9668970584476336
 20
-8.002084781859942
 30
0.0
 10
0.9646558927070499
 20
-8.005446955603526
 30
0.0
 10
0.9622070811103426
 20
-8.008901791630823
 30
0.0
 10
0.9593936462245395
 20
-8.012345994819754
 30
0.0
 10
0.9563765736704719
 20
-8.015922683536964
 30
0.0
 10
0.9530292516972875
 20
-8.019561359135254
 30
0.0
 10
0.949487513588562
 20
-8.023423460201052
 30
0.0
 10
0.9456025347147586
 20
-8.027404321341475
 30
0.0
 10
0.9429086877968238
 20
-8.030108951866815
 30
0.0
 10
0.9415229159535243
 20
-8.031500271025894
 30
0.0
  0
SPLINE
  5
F5
330
1F
100
AcDbEntity
  8
0
  6
Continuous
 62
     7
370
    25
100
AcDbSpline
210
0.0
220
0.0
230
1.0
 70
     8
 71
     3
 72
    15
 73
    11
 74
     0
 42
0.000000001
 43
0.00000001
 40
0.0
 40
0.0
 40
0.0
 40
0.0
 40
0.1279802245559522
 40
0.2529055881459064
 40
0.375016251888681
 40
0.497004036008226
 40
0.6197975925026179
 40
0.7447047652859775
 40
0.8705579846406792
 40
1.0
 40
1.0
 40
1.0
 40
1.0
 10
0.931756176537798
 20
-7.949933955266452
 30
0.0
 10
0.9303595374400379
 20
-7.949983876159108
 30
0.0
 10
0.927599596725195
 20
-7.950082526343244
 30
0.0
 10
0.9235570408602533
 20
-7.950807093481785
 30
0.0
 10
0.9197129645030762
 20
-7.952038423077291
 30
0.0
 10
0.9160778293239652
 20
-7.953739389466515
 30
0.0
 10
0.9126420539118587
 20
-7.955864116172995
 30
0.0
 10
0.9093486543461055
 20
-7.958268073344383
 30
0.0
 10
0.9061565677079002
 20
-7.960925918023856
 30
0.0
 10
0.9041979308111461
 20
-7.96290814176356
 30
0.0
 10
0.9032048456579627
 20
-7.963913186123465
 30
0.0
  0
SPLINE
  5
F6
330
1F
100
AcDbEntity
  8
0
  6
Continuous
 62
     7
370
    25
100
AcDbSpline
210
0.0
220
0.0
230
1.0
 70
     8
 71
     3
 72
    15
 73
    11
 74
     0
 42
0.000000001
 43
0.00000001
 40
0.0
 40
0.0
 40
0.0
 40
0.0
 40
0.1485943343261461
 40
0.2864230146477337
 40
0.415895117916424
 40
0.5371702906684092
 40
0.6541148754728622
 40
0.7690587667243277
 40
0.8830617526821966
 40
1.0
 40
1.0
 40
1.0
 40
1.0
 10
0.4913792009016018
 20
-8.053654855643039
 30
0.0
 10
0.4900924080941671
 20
-8.055439571906529
 30
0.0
 10
0.4876120505704174
 20
-8.05887970180649
 30
0.0
 10
0.4834575991148899
 20
-8.063439323895357
 30
0.0
 10
0.4791568661277071
 20
-8.067272187774176
 30
0.0
 10
0.4746759416715436
 20
-8.070385356086286
 30
0.0
 10
0.4700132536234625
 20
-8.072778200224127
 30
0.0
 10
0.4651853606944636
 20
-8.07451956894015
 30
0.0
 10
0.46014604884391
 20
-8.075547479405364
 30
0.0
 10
0.4567270058217789
 20
-8.075679953871674
 30
0.0
 10
0.4549957563050026
 20
-8.07574703297957
 30
0.0
  0
SPLINE
  5
F7
330
1F
100
AcDbEntity
  8
0
  6
Continuous
 62
     7
370
    25
100
AcDbSpline
210
0.0
220
0.0
230
1.0
 70
     8
 71
     3
 72
    15
 73
    11
 74
     0
 42
0.000000001
 43
0.00000001
 40
0.0
 40
0.0
 40
0.0
 40
0.0
 40
0.1226984658863316
 40
0.2441485697492629
 40
0.3657921580487413
 40
0.4873429122556572
 40
0.6094496123378351
 40
0.7351998220774137
 40
0.8650137067385939
 40
1.0
 40
1.0
 40
1.0
 40
1.0
 10
0.2442151660391109
 20
-7.937951757389021
 30
0.0
 10
0.2441658272672835
 20
-7.938885179617117
 30
0.0
 10
0.2440676517074845
 20
-7.94074252722383
 30
0.0
 10
0.24313267776068
 20
-7.943387986755124
 30
0.0
 10
0.241764693263297
 20
-7.945805191806548
 30
0.0
 10
0.2399339115473091
 20
-7.947907709274991
 30
0.0
 10
0.2377241005072362
 20
-7.949661034835094
 30
0.0
 10
0.2351365660909578
 20
-7.950924766654777
 30
0.0
 10
0.2322745838111173
 20
-7.951775193204294
 30
0.0
 10
0.2302629052731767
 20
-7.951878384677108
 30
0.0
 10
0.2292374186923117
 20
-7.951930988246033
 30
0.0
  0
SPLINE
  5
F8
330
1F
100
AcDbEntity
  8
0
  6
Continuous
 62
     7
370
    25
100
AcDbSpline
210
0.0
220
0.0
230
1.0
 70
     8
 71
     3
 72
    23
 73
    19
 74
     0
 42
0.000000001
 43
0.00000001
 40
0.0
 40
0.0
 40
0.0
 40
0.0
 40
0.056075444842064
 40
0.1104504311077548
 40
0.1631008295418471
 40
0.2149963896352522
 40
0.266258544354106
 40
0.3176519471404183
 40
0.3701298582871795
 40
0.4243313039423399
 40
0.4810042448570457
 40
0.5407912682880618
 40
0.6049185446651459
 40
0.673177943899384
 40
0.7464698986733891
 40
0.8249713920767526
 40
0.9095805018795878
 40
1.0
 40
1.0
 40
1.0
 40
1.0
 10
1.644072877439318
 20
-8.075747032979557
 30
0.0
 10
1.642239489877335
 20
-8.075702634005198
 30
0.0
 10
1.638628311273599
 20
-8.075615182432193
 30
0.0
 10
1.633343403671627
 20
-8.074819004733747
 30
0.0
 10
1.628309559552164
 20
-8.073506660473882
 30
0.0
 10
1.62354701030946
 20
-8.07166961766726
 30
0.0
 10
1.619085943020544
 20
-8.069276692310751
 30
0.0
 10
1.614919792420207
 20
-8.066362922018397
 30
0.0
 10
1.61113080960396
 20
-8.062828492230143
 30
0.0
 10
1.607686858229183
 20
-8.058736186010046
 30
0.0
 10
1.604573695585496
 20
-8.054093300744618
 30
0.0
 10
1.601898816820104
 20
-8.048819518453762
 30
0.0
 10
1.599575073554416
 20
-8.04297842099091
 30
0.0
 10
1.597592990348656
 20
-8.036546775793283
 30
0.0
 10
1.596100686811271
 20
-8.029504728168277
 30
0.0
 10
1.594968314127491
 20
-8.02185806050943
 30
0.0
 10
1.594328269552521
 20
-8.013589950631877
 30
0.0
 10
1.594249930209535
 20
-8.007869793490073
 30
0.0
 10
1.594209460230598
 20
-8.004914769485321
 30
0.0
  0
SPLINE
  5
F9
330
1F
100
AcDbEntity
  8
0
  6
Continuous
 62
     7
370
    25
100
AcDbSpline
210
0.0
220
0.0
230
1.0
 70
     8
 71
     3
 72
    17
 73
    13
 74
     0
 42
0.000000001
 43
0.00000001
 40
0.0
 40
0.0
 40
0.0
 40
0.0
 40
0.0861448011437992
 40
0.1719143497003908
 40
0.2631313461976002
 40
0.3672944429201064
 40
0.4891215890255871
 40
0.6326054317450749
 40
0.7131579175432698
 40
0.8015608798548486
 40
0.8967632108394512
 40
0.9999999999999999
 40
0.9999999999999999
 40
0.9999999999999999
 40
0.9999999999999999
 10
0.3525230015406515
 20
-7.98188648293963
 30
0.0
 10
0.3514581806699957
 20
-7.981935354768225
 30
0.0
 10
0.3493331773605035
 20
-7.98203288553642
 30
0.0
 10
0.346151923809812
 20
-7.982810110242531
 30
0.0
 10
0.3429779832036236
 20
-7.984255953762195
 30
0.0
 10
0.3396783577641299
 20
-7.986398068674159
 30
0.0
 10
0.3362554580341209
 20
-7.989430462370972
 30
0.0
 10
0.333225885865387
 20
-7.992448537835967
 30
0.0
 10
0.3307109456714021
 20
-7.995377914518796
 30
0.0
 10
0.3285841403830594
 20
-7.997852813176541
 30
0.0
 10
0.3263645470534139
 20
-8.000615918343438
 30
0.0
 10
0.3248726407381608
 20
-8.002561062898387
 30
0.0
 10
0.3240964852220393
 20
-8.003573012952183
 30
0.0
  0
SPLINE
  5
FA
330
1F
100
AcDbEntity
  8
0
  6
Continuous
 62
     7
370
    25
100
AcDbSpline
210
0.0
220
0.0
230
1.0
 70
     8
 71
     3
 72
    15
 73
    11
 74
     0
 42
0.000000001
 43
0.00000001
 40
0.0
 40
0.0
 40
0.0
 40
0.0
 40
0.1305873764067406
 40
0.2574673823023687
 40
0.3802973726694521
 40
0.5026589962923885
 40
0.6241648806121438
 40
0.7479711778628887
 40
0.8727312974569548
 40
1.0
 40
1.0
 40
1.0
 40
1.0
 10
1.055010555745834
 20
-8.075747032979564
 30
0.0
 10
1.053785034503238
 20
-8.075687123256747
 30
0.0
 10
1.051368784518214
 20
-8.075569004645798
 30
0.0
 10
1.047947593603703
 20
-8.074455699053539
 30
0.0
 10
1.044873812015527
 20
-8.072783721659457
 30
0.0
 10
1.042212942000347
 20
-8.070584403931669
 30
0.0
 10
1.039980587305293
 20
-8.06793337784863
 30
0.0
 10
1.038352645532909
 20
-8.064857687826823
 30
0.0
 10
1.037214853633081
 20
-8.061491189890951
 30
0.0
 10
1.037096848687082
 20
-8.059124751034023
 30
0.0
 10
1.037037258929675
 20
-8.057929754364933
 30
0.0
  0
SPLINE
  5
FB
330
1F
100
AcDbEntity
  8
0
  6
Continuous
 62
     7
370
    25
100
AcDbSpline
210
0.0
220
0.0
230
1.0
 70
     8
 71
     3
 72
    21
 73
    17
 74
     0
 42
0.000000001
 43
0.00000001
 40
0.0
 40
0.0
 40
0.0
 40
0.0
 40
0.1048415448491094
 40
0.2009274975499309
 40
0.2883333822009484
 40
0.3674554304849008
 40
0.4395632897903746
 40
0.5064207254496139
 40
0.5680290368979259
 40
0.624682321666531
 40
0.6771417259486769
 40
0.7265952150679912
 40
0.7735061725636205
 40
0.8178076339002344
 40
0.90631366588159
 40
1.0
 40
1.0
 40
1.0
 40
1.0
 10
0.9279493324204876
 20
-8.021733531610172
 30
0.0
 10
0.929302331183327
 20
-8.020351067458996
 30
0.0
 10
0.9318953362367787
 20
-8.017701592360664
 30
0.0
 10
0.9356030315525137
 20
-8.01388537648737
 30
0.0
 10
0.9388400482489978
 20
-8.010278603823245
 30
0.0
 10
0.9417339529304967
 20
-8.006960308587594
 30
0.0
 10
0.9442982515999752
 20
-8.003857258986052
 30
0.0
 10
0.9465025403659932
 20
-8.00088376111645
 30
0.0
 10
0.9484650227309623
 20
-7.998085886012431
 30
0.0
 10
0.9500821826065724
 20
-7.995380965764
 30
0.0
 10
0.9514872169754551
 20
-7.992812192419045
 30
0.0
 10
0.9526021462612222
 20
-7.990301232165848
 30
0.0
 10
0.9535396449384914
 20
-7.987876500236833
 30
0.0
 10
0.9543506458275233
 20
-7.984656849813728
 30
0.0
 10
0.9550358374450141
 20
-7.980521432208061
 30
0.0
 10
0.9551171133498971
 20
-7.977157248442901
 30
0.0
 10
0.9551589067671717
 20
-7.975427329396316
 30
0.0
  0
SPLINE
  5
FC
330
1F
100
AcDbEntity
  8
0
  6
Continuous
 62
     7
370
    25
100
AcDbSpline
210
0.0
220
0.0
230
1.0
 70
     8
 71
     3
 72
    23
 73
    19
 74
     0
 42
0.000000001
 43
0.00000001
 40
0.0
 40
0.0
 40
0.0
 40
0.0
 40
0.0613960963630828
 40
0.1192558417129217
 40
0.1752612810268751
 40
0.2301113321924738
 40
0.2842294994182494
 40
0.3381282091418387
 40
0.3933089368143264
 40
0.4496366392862883
 40
0.5078636311805144
 40
0.5686460820569726
 40
0.6325183647549988
 40
0.6997052570281173
 40
0.7701564677775108
 40
0.8432700444194771
 40
0.9198094923535366
 40
0.9999999999999999
 40
0.9999999999999999
 40
0.9999999999999999
 40
0.9999999999999999
 10
0.4549957563050026
 20
-8.075747032979569
 30
0.0
 10
0.4535050486321204
 20
-8.075700664090428
 30
0.0
 10
0.4506094964910496
 20
-8.075610597111725
 30
0.0
 10
0.446409584135269
 20
-8.074865410067762
 30
0.0
 10
0.4424721464600973
 20
-8.07370157434774
 30
0.0
 10
0.4388430908644514
 20
-8.071982692865436
 30
0.0
 10
0.4354755933777538
 20
-8.069895943386602
 30
0.0
 10
0.4324240476247456
 20
-8.067354799901707
 30
0.0
 10
0.42964117680653
 20
-8.06445187317693
 30
0.0
 10
0.4271605149000069
 20
-8.061150432451326
 30
0.0
 10
0.4250249642758969
 20
-8.05746373585682
 30
0.0
 10
0.4230965442380566
 20
-8.053460712741467
 30
0.0
 10
0.4215275307330491
 20
-8.049070573460066
 30
0.0
 10
0.4202239680100625
 20
-8.04435496317533
 30
0.0
 10
0.4191962120291676
 20
-8.039341005794876
 30
0.0
 10
0.4184946036575927
 20
-8.034043720125533
 30
0.0
 10
0.4180475203489832
 20
-8.028481187519903
 30
0.0
 10
0.4179876617640659
 20
-8.024677960252655
 30
0.0
 10
0.4179570352619802
 20
-8.022732048099963
 30
0.0
  0
SPLINE
  5
FD
330
1F
100
AcDbEntity
  8
0
  6
Continuous
 62
     7
370
    25
100
AcDbSpline
210
0.0
220
0.0
230
1.0
 70
     8
 71
     3
 72
    21
 73
    17
 74
     0
 42
0.000000001
 43
0.00000001
 40
0.0
 40
0.0
 40
0.0
 40
0.0
 40
0.1275868784809133
 40
0.2519382228986877
 40
0.3123154730173071
 40
0.3710455186959473
 40
0.4287701642956875
 40
0.4863850671239232
 40
0.5432703580929944
 40
0.6007477878004235
 40
0.6598805585102379
 40
0.7210906376275742
 40
0.7847785807825423
 40
0.8521181269041955
 40
0.9235618820457592
 40
1.0
 40
1.0
 40
1.0
 40
1.0
 10
0.9551589067671717
 20
-7.975427329396316
 30
0.0
 10
0.955093179023244
 20
-7.973757867840914
 30
0.0
 10
0.9549633903553377
 20
-7.970461281370003
 30
0.0
 10
0.9540965096452473
 20
-7.966451047061633
 30
0.0
 10
0.9531247051714336
 20
-7.963415093940523
 30
0.0
 10
0.9521307357769856
 20
-7.961321923055943
 30
0.0
 10
0.9510104543331775
 20
-7.959339391110494
 30
0.0
 10
0.9497105096793494
 20
-7.957493005531854
 30
0.0
 10
0.9481873876832988
 20
-7.955834686058138
 30
0.0
 10
0.9465077076375158
 20
-7.954298164704269
 30
0.0
 10
0.9445386161008215
 20
-7.953050021339822
 30
0.0
 10
0.9424250647122079
 20
-7.95189079007902
 30
0.0
 10
0.9400525594472116
 20
-7.951037408794448
 30
0.0
 10
0.9374878443051357
 20
-7.95036667188648
 30
0.0
 10
0.9346892806662069
 20
-7.950002443892773
 30
0.0
 10
0.9327556459042592
 20
-7.94995729309592
 30
0.0
 10
0.931756176537798
 20
-7.949933955266452
 30
0.0
  0
SPLINE
  5
FE
330
1F
100
AcDbEntity
  8
0
  6
Continuous
 62
     7
370
    25
100
AcDbSpline
210
0.0
220
0.0
230
1.0
 70
     8
 71
     3
 72
    17
 73
    13
 74
     0
 42
0.000000001
 43
0.00000001
 40
0.0
 40
0.0
 40
0.0
 40
0.0
 40
0.0854410729132508
 40
0.1658290848491287
 40
0.2413189533741657
 40
0.3120566751403818
 40
0.4430777516884071
 40
0.5626275646785852
 40
0.6738912042463546
 40
0.7819923861304798
 40
0.8900612877625003
 40
1.0
 40
1.0
 40
1.0
 40
1.0
 10
0.3227235250485822
 20
-7.984975643329907
 30
0.0
 10
0.3234741131539201
 20
-7.984083797117848
 30
0.0
 10
0.3249308989170521
 20
-7.98235284927123
 30
0.0
 10
0.3271939341572766
 20
-7.979961263899406
 30
0.0
 10
0.3293638263643832
 20
-7.977758757662254
 30
0.0
 10
0.3321820130540082
 20
-7.97523365638665
 30
0.0
 10
0.3356568536992502
 20
-7.97255437181505
 30
0.0
 10
0.3398242335466403
 20
-7.969889295023628
 30
0.0
 10
0.3440531355295218
 20
-7.967979914999078
 30
0.0
 10
0.3483512901490693
 20
-7.966722224266331
 30
0.0
 10
0.3527599627711365
 20
-7.966030792174474
 30
0.0
 10
0.3557346506274616
 20
-7.965950639278994
 30
0.0
 10
0.3572347512268318
 20
-7.965910219103044
 30
0.0
  0
SPLINE
  5
FF
330
1F
100
AcDbEntity
  8
0
  6
Continuous
 62
     7
370
    25
100
AcDbSpline
210
0.0
220
0.0
230
1.0
 70
     8
 71
     3
 72
    23
 73
    19
 74
     0
 42
0.000000001
 43
0.00000001
 40
0.0
 40
0.0
 40
0.0
 40
0.0
 40
0.0661944766921655
 40
0.1312684000522401
 40
0.1962002106050498
 40
0.2602949024627569
 40
0.3230677390668128
 40
0.3843788273404191
 40
0.4432660538046415
 40
0.5015620433011233
 40
0.5589860613407379
 40
0.6159737663530204
 40
0.673073584560754
 40
0.7317568261776692
 40
0.7926448687772145
 40
0.8569153202114383
 40
0.9257218729551665
 40
0.9999999999999999
 40
0.9999999999999999
 40
0.9999999999999999
 40
0.9999999999999999
 10
1.162819133002479
 20
-7.989874614857913
 30
0.0
 10
1.16445273929324
 20
-7.989900290936362
 30
0.0
 10
1.167692297860955
 20
-7.989951208443472
 30
0.0
 10
1.172523443165214
 20
-7.990308191594866
 30
0.0
 10
1.177282162715574
 20
-7.99086526776795
 30
0.0
 10
1.181954742736348
 20
-7.991630947825815
 30
0.0
 10
1.186488107015655
 20
-7.992662287451189
 30
0.0
 10
1.190777179716876
 20
-7.994097512120288
 30
0.0
 10
1.194817482564043
 20
-7.995863997178948
 30
0.0
 10
1.198604580084213
 20
-7.99793584870509
 30
0.0
 10
1.202085910940688
 20
-8.000411934819935
 30
0.0
 10
1.205230134988642
 20
-8.003261616537843
 30
0.0
 10
1.207999249572714
 20
-8.006518416972018
 30
0.0
 10
1.210420073518214
 20
-8.010154846405339
 30
0.0
 10
1.212436222659009
 20
-8.014242177584064
 30
0.0
 10
1.213763037497054
 20
-8.018858920925442
 30
0.0
 10
1.21463269279418
 20
-8.023916174791752
 30
0.0
 10
1.214725181414099
 20
-8.027450219220785
 30
0.0
 10
1.214773194111689
 20
-8.029284812564176
 30
0.0
  0
SPLINE
  5
100
330
1F
100
AcDbEntity
  8
0
  6
Continuous
 62
     7
370
    25
100
AcDbSpline
210
0.0
220
0.0
230
1.0
 70
     8
 71
     3
 72
    23
 73
    19
 74
     0
 42
0.000000001
 43
0.00000001
 40
0.0
 40
0.0
 40
0.0
 40
0.0
 40
0.061363357185827
 40
0.1208038210218675
 40
0.1793080414518639
 40
0.2372163364652025
 40
0.2950121340707844
 40
0.3525748231586265
 40
0.4103792821839564
 40
0.4693328625456192
 40
0.5297850297713066
 40
0.5909569470107088
 40
0.6547489233526008
 40
0.7204398486777635
 40
0.7879763506196489
 40
0.856585536298092
 40
0.9273367877060257
 40
1.0
 40
1.0
 40
1.0
 40
1.0
 10
1.214773194111689
 20
-8.029284812564176
 30
0.0
 10
1.214717615371994
 20
-8.030972852294523
 30
0.0
 10
1.214608199518128
 20
-8.03429603503443
 30
0.0
 10
1.213789445724244
 20
-8.039176087835347
 30
0.0
 10
1.212375342074498
 20
-8.043814162383118
 30
0.0
 10
1.210419597275723
 20
-8.04819926290398
 30
0.0
 10
1.208019725169444
 20
-8.052327030885024
 30
0.0
 10
1.205161420450496
 20
-8.05614919856566
 30
0.0
 10
1.201887393298083
 20
-8.059662358738784
 30
0.0
 10
1.198224163277692
 20
-8.062889132882715
 30
0.0
 10
1.194174421266027
 20
-8.065778165375521
 30
0.0
 10
1.189750979717616
 20
-8.068329992515269
 30
0.0
 10
1.184983486704229
 20
-8.070527478458333
 30
0.0
 10
1.17989353532806
 20
-8.072402273739197
 30
0.0
 10
1.174539004809876
 20
-8.073886220646298
 30
0.0
 10
1.168952898939879
 20
-8.075000233308975
 30
0.0
 10
1.16314501611883
 20
-8.07561353830277
 30
0.0
 10
1.15920085136588
 20
-8.075702141011917
 30
0.0
 10
1.15720247774743
 20
-8.07574703297956
 30
0.0
  0
SPLINE
  5
101
330
1F
100
AcDbEntity
  8
0
  6
Continuous
 62
     7
370
    25
100
AcDbSpline
210
0.0
220
0.0
230
1.0
 70
     8
 71
     3
 72
    23
 73
    19
 74
     0
 42
0.000000001
 43
0.00000001
 40
0.0
 40
0.0
 40
0.0
 40
0.0
 40
0.067342644526657
 40
0.1313631770909082
 40
0.1930154591315569
 40
0.25245498175215
 40
0.3098256690486041
 40
0.3663025999461471
 40
0.4217937796743863
 40
0.477626446808699
 40
0.5342832569117959
 40
0.5919487847999682
 40
0.6521361077906841
 40
0.7148350846176684
 40
0.7807781386127458
 40
0.8495730630849353
 40
0.9228897324916725
 40
1.0
 40
1.0
 40
1.0
 40
1.0
 10
0.5826498487961582
 20
-8.075747032979569
 30
0.0
 10
0.5807861183686951
 20
-8.075706787352566
 30
0.0
 10
0.5771505980841359
 20
-8.075628281474692
 30
0.0
 10
0.5718409202551302
 20
-8.074966758843724
 30
0.0
 10
0.5668349817797843
 20
-8.07384810166543
 30
0.0
 10
0.5621410977208154
 20
-8.072287905584236
 30
0.0
 10
0.5577619139732101
 20
-8.07031461054753
 30
0.0
 10
0.5537239483992672
 20
-8.067915087412969
 30
0.0
 10
0.5500456598559589
 20
-8.065067237646373
 30
0.0
 10
0.546675009984211
 20
-8.06185163918258
 30
0.0
 10
0.5437158112259877
 20
-8.0581743710929
 30
0.0
 10
0.5411032723096662
 20
-8.054104726085376
 30
0.0
 10
0.5388506942437277
 20
-8.049634215605524
 30
0.0
 10
0.537024736458774
 20
-8.044730613522132
 30
0.0
 10
0.53555250052659
 20
-8.039462410550986
 30
0.0
 10
0.5345387379731469
 20
-8.033789053662383
 30
0.0
 10
0.5339094658004094
 20
-8.027749279777952
 30
0.0
 10
0.5338271459892925
 20
-8.023586552259092
 30
0.0
 10
0.5337849480772255
 20
-8.02145269884742
 30
0.0
  0
SPLINE
  5
102
330
1F
100
AcDbEntity
  8
0
  6
Continuous
 62
     7
370
    25
100
AcDbSpline
210
0.0
220
0.0
230
1.0
 70
     8
 71
     3
 72
    23
 73
    19
 74
     0
 42
0.000000001
 43
0.00000001
 40
0.0
 40
0.0
 40
0.0
 40
0.0
 40
0.0712603614114833
 40
0.139606758766791
 40
0.2054783933233928
 40
0.2697178426631244
 40
0.3316809016563985
 40
0.3919327836418687
 40
0.450690079322009
 40
0.508649615328708
 40
0.5662733945002161
 40
0.6240034745335232
 40
0.6822540536430279
 40
0.7416817623923198
 40
0.8029944418393571
 40
0.8656742605389401
 40
0.9312927722953349
 40
1.0
 40
1.0
 40
1.0
 40
1.0
 10
0.5337849480772255
 20
-8.02145269884742
 30
0.0
 10
0.5338250550115925
 20
-8.019433017752165
 30
0.0
 10
0.533903628835808
 20
-8.015476243945997
 30
0.0
 10
0.5345734763965845
 20
-8.009683797096013
 30
0.0
 10
0.5356601148802512
 20
-8.004160467253099
 30
0.0
 10
0.5371825023404134
 20
-7.998927894079443
 30
0.0
 10
0.5391120169196665
 20
-7.994000021082683
 30
0.0
 10
0.5414724753084995
 20
-7.989439972550532
 30
0.0
 10
0.5441443781427451
 20
-7.985186470690723
 30
0.0
 10
0.5472584030247546
 20
-7.981337846444966
 30
0.0
 10
0.5507293291609062
 20
-7.977850548080809
 30
0.0
 10
0.5545904503421831
 20
-7.974785194370652
 30
0.0
 10
0.5587975505719518
 20
-7.972123092474401
 30
0.0
 10
0.5633447812606736
 20
-7.969856034811124
 30
0.0
 10
0.5682422080014593
 20
-7.968077074388852
 30
0.0
 10
0.5734804351912951
 20
-7.966849404729982
 30
0.0
 10
0.5790150784611066
 20
-7.966033897287171
 30
0.0
 10
0.5828236321347406
 20
-7.965952072331498
 30
0.0
 10
0.5847716963369535
 20
-7.965910219103042
 30
0.0
  0
SPLINE
  5
103
330
1F
100
AcDbEntity
  8
0
  6
Continuous
 62
     7
370
    25
100
AcDbSpline
210
0.0
220
0.0
230
1.0
 70
     8
 71
     3
 72
    23
 73
    19
 74
     0
 42
0.000000001
 43
0.00000001
 40
0.0
 40
0.0
 40
0.0
 40
0.0
 40
0.0754947570176012
 40
0.1474857922437656
 40
0.2156530753385474
 40
0.2812799188142823
 40
0.3441653913672232
 40
0.4043067958767255
 40
0.4631205781319809
 40
0.5204903169734884
 40
0.5774113889386434
 40
0.6340565888777633
 40
0.6912779079126343
 40
0.7495214433322022
 40
0.8091160381960703
 40
0.8707102085424001
 40
0.9337824841116741
 40
1.0
 40
1.0
 40
1.0
 40
1.0
 10
0.4179570352619802
 20
-8.022732048099963
 30
0.0
 10
0.4179910893037742
 20
-8.020535146873582
 30
0.0
 10
0.4180576169347182
 20
-8.01624330290118
 30
0.0
 10
0.4188036997291816
 20
-8.010005375362251
 30
0.0
 10
0.4199397953391031
 20
-8.004122902353087
 30
0.0
 10
0.4215571397098653
 20
-7.998625237261242
 30
0.0
 10
0.4236184113137474
 20
-7.993531042255148
 30
0.0
 10
0.4260652459705968
 20
-7.988831786032359
 30
0.0
 10
0.4289045748112597
 20
-7.984550046666463
 30
0.0
 10
0.4321298378763779
 20
-7.980666381466981
 30
0.0
 10
0.4357830395766912
 20
-7.977280310178847
 30
0.0
 10
0.4397191295975738
 20
-7.974231849994807
 30
0.0
 10
0.4440675981312007
 20
-7.971728217521116
 30
0.0
 10
0.4486925208771579
 20
-7.969580600150858
 30
0.0
 10
0.4536560711155795
 20
-7.967932101040208
 30
0.0
 10
0.4588917637483372
 20
-7.966752271620851
 30
0.0
 10
0.4644112591345784
 20
-7.966060639785026
 30
0.0
 10
0.4681721348391281
 20
-7.965961165965514
 30
0.0
 10
0.4700983182130238
 20
-7.965910219103042
 30
0.0
  0
SPLINE
  5
104
330
1F
100
AcDbEntity
  8
0
  6
Continuous
 62
     7
370
    25
100
AcDbSpline
210
0.0
220
0.0
230
1.0
 70
     8
 71
     3
 72
    23
 73
    19
 74
     0
 42
0.000000001
 43
0.00000001
 40
0.0
 40
0.0
 40
0.0
 40
0.0
 40
0.068814009094793
 40
0.1347116073323507
 40
0.1985408021104771
 40
0.2608884424823365
 40
0.3214285748928412
 40
0.3807989851133271
 40
0.4385675241984733
 40
0.4966135207460344
 40
0.5545138659958441
 40
0.6130186994986346
 40
0.6723219105915074
 40
0.7334461844199688
 40
0.7968513827421875
 40
0.8618314019202452
 40
0.9292317042679427
 40
1.0
 40
1.0
 40
1.0
 40
1.0
 10
0.9344084859637938
 20
-7.933957691429867
 30
0.0
 10
0.9358873714697402
 20
-7.933980159016653
 30
0.0
 10
0.9387824657417824
 20
-7.934024141990012
 30
0.0
 10
0.9430168989063231
 20
-7.934589472387429
 30
0.0
 10
0.9470610939620318
 20
-7.935416458889021
 30
0.0
 10
0.9509050253668297
 20
-7.936589494801684
 30
0.0
 10
0.954501453768596
 20
-7.938146818044842
 30
0.0
 10
0.9578860013171666
 20
-7.939924125322762
 30
0.0
 10
0.9609733337449133
 20
-7.942090117513127
 30
0.0
 10
0.9638125211991505
 20
-7.944517409185347
 30
0.0
 10
0.9664008589571408
 20
-7.947240052008747
 30
0.0
 10
0.9686290977800064
 20
-7.950293639075634
 30
0.0
 10
0.9706364745787661
 20
-7.95357960257546
 30
0.0
 10
0.9722346168045225
 20
-7.957198675545841
 30
0.0
 10
0.9735669366881305
 20
-7.961052225338738
 30
0.0
 10
0.9744405529318283
 20
-7.965172502206307
 30
0.0
 10
0.9750323643320393
 20
-7.969502256246541
 30
0.0
 10
0.9750964253032122
 20
-7.972471269188437
 30
0.0
 10
0.9751292365629041
 20
-7.973991961942248
 30
0.0
  0
SPLINE
  5
105
330
1F
100
AcDbEntity
  8
0
  6
Continuous
 62
     7
370
    25
100
AcDbSpline
210
0.0
220
0.0
230
1.0
 70
     8
 71
     3
 72
    15
 73
    11
 74
     0
 42
0.000000001
 43
0.00000001
 40
0.0
 40
0.0
 40
0.0
 40
0.0
 40
0.1271712201305866
 40
0.2528616207849442
 40
0.3769998692767682
 40
0.4982142512380284
 40
0.6202803894519137
 40
0.7438952892416665
 40
0.8706369885065558
 40
1.0
 40
1.0
 40
1.0
 40
1.0
 10
1.055010555745833
 20
-8.039800439347244
 30
0.0
 10
1.056215042888655
 20
-8.03986208948486
 30
0.0
 10
1.058609991768092
 20
-8.039984671887563
 30
0.0
 10
1.062033086794364
 20
-8.041100471187859
 30
0.0
 10
1.065126264180143
 20
-8.042782692310153
 30
0.0
 10
1.067830593137184
 20
-8.044996323079333
 30
0.0
 10
1.070028777023892
 20
-8.047708973700718
 30
0.0
 10
1.071685294961794
 20
-8.050829978839566
 30
0.0
 10
1.072803786940846
 20
-8.054278110203954
 30
0.0
 10
1.072923422519025
 20
-8.056704262168576
 30
0.0
 10
1.072983852561992
 20
-8.057929754364935
 30
0.0
  0
SPLINE
  5
106
330
1F
100
AcDbEntity
  8
0
  6
Continuous
 62
     7
370
    25
100
AcDbSpline
210
0.0
220
0.0
230
1.0
 70
     8
 71
     3
 72
    23
 73
    19
 74
     0
 42
0.000000001
 43
0.00000001
 40
0.0
 40
0.0
 40
0.0
 40
0.0
 40
0.0560216341234772
 40
0.1103444414525164
 40
0.1626368215680761
 40
0.2143683701891718
 40
0.2658619002169304
 40
0.317131099369691
 40
0.3697751665062468
 40
0.4239245997565486
 40
0.4808077286428025
 40
0.5409658086217151
 40
0.6049138631207696
 40
0.6731077597569718
 40
0.7463977034550189
 40
0.8251384505022383
 40
0.9093493893785952
 40
1.0
 40
1.0
 40
1.0
 40
1.0
 10
1.528369779185293
 20
-7.93395769142986
 30
0.0
 10
1.530203029420428
 20
-7.934002568464822
 30
0.0
 10
1.533813937534833
 20
-7.934090961662101
 30
0.0
 10
1.539090829023712
 20
-7.934878823835419
 30
0.0
 10
1.544104536732569
 20
-7.936210851485641
 30
0.0
 10
1.5488755507016
 20
-7.938006537318033
 30
0.0
 10
1.553356037269462
 20
-7.940377328733888
 30
0.0
 10
1.557495262354744
 20
-7.943355257422864
 30
0.0
 10
1.561271079588902
 20
-7.946905732890702
 30
0.0
 10
1.564737521837697
 20
-7.951001654680013
 30
0.0
 10
1.56782881007279
 20
-7.955685150898974
 30
0.0
 10
1.570551652743373
 20
-7.960955336846873
 30
0.0
 10
1.572827718887253
 20
-7.966828259156109
 30
0.0
 10
1.574812373303714
 20
-7.973254411783415
 30
0.0
 10
1.576355959975441
 20
-7.98029913246047
 30
0.0
 10
1.577466253647867
 20
-7.987951911583933
 30
0.0
 10
1.578117923480478
 20
-7.996228789648629
 30
0.0
 10
1.578193840155129
 20
-8.001949220277751
 30
0.0
 10
1.578233196394012
 20
-8.004914769485321
 30
0.0
  0
SPLINE
  5
107
330
1F
100
AcDbEntity
  8
0
  6
Continuous
 62
     7
370
    25
100
AcDbSpline
210
0.0
220
0.0
230
1.0
 70
     8
 71
     3
 72
    23
 73
    19
 74
     0
 42
0.000000001
 43
0.00000001
 40
0.0
 40
0.0
 40
0.0
 40
0.0
 40
0.0780571773226007
 40
0.1528953797159965
 40
0.2244050960279733
 40
0.2935217579714743
 40
0.3596501501458854
 40
0.422407773133539
 40
0.4827763733646402
 40
0.5410112827101435
 40
0.5977233569694076
 40
0.6526799259337914
 40
0.7075716004456983
 40
0.7623441021026188
 40
0.818125894970528
 40
0.8757832932928912
 40
0.936047660364246
 40
1.0
 40
1.0
 40
1.0
 40
1.0
 10
1.81388308798365
 20
-8.004914769485318
 30
0.0
 10
1.813854621067428
 20
-8.007495746015403
 30
0.0
 10
1.813798861173023
 20
-8.012551263011286
 30
0.0
 10
1.813143646655775
 20
-8.01994633521015
 30
0.0
 10
1.812164711345637
 20
-8.02700462525138
 30
0.0
 10
1.810767288010101
 20
-8.033699904637706
 30
0.0
 10
1.808991901893011
 20
-8.040007860211565
 30
0.0
 10
1.806723904123061
 20
-8.045847615544409
 30
0.0
 10
1.804081985054728
 20
-8.051238654517984
 30
0.0
 10
1.801011366638645
 20
-8.056165257819005
 30
0.0
 10
1.797561468174743
 20
-8.060612072274157
 30
0.0
 10
1.793676028286342
 20
-8.064532141759749
 30
0.0
 10
1.789394007377856
 20
-8.067913476670045
 30
0.0
 10
1.784698612151616
 20
-8.07074202625997
 30
0.0
 10
1.779609979109017
 20
-8.073028139030926
 30
0.0
 10
1.774068796869597
 20
-8.074588755904669
 30
0.0
 10
1.768123044468323
 20
-8.075592798288966
 30
0.0
 10
1.764013566872178
 20
-8.075694613787833
 30
0.0
 10
1.761897823234136
 20
-8.075747032979555
 30
0.0
  0
SPLINE
  5
108
330
1F
100
AcDbEntity
  8
0
  6
Continuous
 62
     7
370
    25
100
AcDbSpline
210
0.0
220
0.0
230
1.0
 70
     8
 71
     3
 72
    23
 73
    19
 74
     0
 42
0.000000001
 43
0.00000001
 40
0.0
 40
0.0
 40
0.0
 40
0.0
 40
0.0780065135541098
 40
0.1530758765287814
 40
0.2248876845832054
 40
0.2943247787641617
 40
0.3604907329736251
 40
0.4234943169228323
 40
0.4839614067162753
 40
0.541986497165534
 40
0.5984083934619008
 40
0.6533234923758039
 40
0.7081737458063755
 40
0.7631742877461447
 40
0.8192014514173998
 40
0.8768153416521206
 40
0.9367239837759295
 40
1.0
 40
1.0
 40
1.0
 40
1.0
 10
1.712034406025416
 20
-8.00491476948532
 30
0.0
 10
1.712080971723947
 20
-8.002334307567553
 30
0.0
 10
1.712172349799878
 20
-7.997270544916027
 30
0.0
 10
1.71275198728979
 20
-7.989847551527689
 30
0.0
 10
1.713790565538998
 20
-7.982762513366084
 30
0.0
 10
1.715203696744681
 20
-7.976043185033448
 30
0.0
 10
1.717030515072871
 20
-7.969724140797385
 30
0.0
 10
1.719290699894109
 20
-7.963864682440585
 30
0.0
 10
1.721891573531625
 20
-7.958444566740889
 30
0.0
 10
1.724925327644861
 20
-7.953502765173897
 30
0.0
 10
1.728399273448307
 20
-7.949091464845038
 30
0.0
 10
1.732271605877876
 20
-7.945172286194501
 30
0.0
 10
1.736559764360641
 20
-7.941782310010958
 30
0.0
 10
1.741282793543623
 20
-7.938963092728866
 30
0.0
 10
1.746393112298017
 20
-7.936682116159397
 30
0.0
 10
1.751932278440568
 20
-7.935119170043274
 30
0.0
 10
1.757846304988325
 20
-7.934113169439234
 30
0.0
 10
1.761924719683677
 20
-7.934010453381225
 30
0.0
 10
1.76401967077493
 20
-7.933957691429858
 30
0.0
  0
SPLINE
  5
109
330
1F
100
AcDbEntity
  8
0
  6
Continuous
 62
     7
370
    25
100
AcDbSpline
210
0.0
220
0.0
230
1.0
 70
     8
 71
     3
 72
    23
 73
    19
 74
     0
 42
0.000000001
 43
0.00000001
 40
0.0
 40
0.0
 40
0.0
 40
0.0
 40
0.0780571773226007
 40
0.1528953797159965
 40
0.2244050960279733
 40
0.2935217579714743
 40
0.3596501501458854
 40
0.422407773133539
 40
0.4827763733646402
 40
0.5410112827101435
 40
0.5977233569694076
 40
0.6526799259337914
 40
0.7075716004456983
 40
0.7623441021026188
 40
0.818125894970528
 40
0.8757832932928912
 40
0.936047660364246
 40
1.0
 40
1.0
 40
1.0
 40
1.0
 10
1.578233196394012
 20
-8.004914769485321
 30
0.0
 10
1.578204729477791
 20
-8.007495746015405
 30
0.0
 10
1.578148969583385
 20
-8.012551263011288
 30
0.0
 10
1.577493755066137
 20
-8.019946335210152
 30
0.0
 10
1.576514819755999
 20
-8.027004625251383
 30
0.0
 10
1.575117396420464
 20
-8.033699904637707
 30
0.0
 10
1.573342010303374
 20
-8.040007860211567
 30
0.0
 10
1.571074012533423
 20
-8.04584761554441
 30
0.0
 10
1.568432093465091
 20
-8.051238654517986
 30
0.0
 10
1.565361475049007
 20
-8.056165257819007
 30
0.0
 10
1.561911576585106
 20
-8.060612072274159
 30
0.0
 10
1.558026136696704
 20
-8.064532141759752
 30
0.0
 10
1.553744115788219
 20
-8.067913476670048
 30
0.0
 10
1.549048720561978
 20
-8.070742026259971
 30
0.0
 10
1.543960087519379
 20
-8.073028139030928
 30
0.0
 10
1.538418905279959
 20
-8.07458875590467
 30
0.0
 10
1.532473152878685
 20
-8.075592798288968
 30
0.0
 10
1.52836367528254
 20
-8.075694613787835
 30
0.0
 10
1.526247931644499
 20
-8.075747032979558
 30
0.0
  0
SPLINE
  5
10A
330
1F
100
AcDbEntity
  8
0
  6
Continuous
 62
     7
370
    25
100
AcDbSpline
210
0.0
220
0.0
230
1.0
 70
     8
 71
     3
 72
    23
 73
    19
 74
     0
 42
0.000000001
 43
0.00000001
 40
0.0
 40
0.0
 40
0.0
 40
0.0
 40
0.0780571773226007
 40
0.1528953797159965
 40
0.2244050960279733
 40
0.2935217579714743
 40
0.3596501501458854
 40
0.422407773133539
 40
0.4827763733646402
 40
0.5410112827101435
 40
0.5977233569694076
 40
0.6526799259337914
 40
0.7075716004456983
 40
0.7623441021026188
 40
0.818125894970528
 40
0.8757832932928912
 40
0.936047660364246
 40
1.0
 40
1.0
 40
1.0
 40
1.0
 10
1.696058142188832
 20
-8.00491476948532
 30
0.0
 10
1.69602967527261
 20
-8.007495746015403
 30
0.0
 10
1.695973915378205
 20
-8.012551263011286
 30
0.0
 10
1.695318700860956
 20
-8.01994633521015
 30
0.0
 10
1.694339765550819
 20
-8.027004625251381
 30
0.0
 10
1.692942342215283
 20
-8.033699904637707
 30
0.0
 10
1.691166956098193
 20
-8.040007860211565
 30
0.0
 10
1.688898958328243
 20
-8.04584761554441
 30
0.0
 10
1.68625703925991
 20
-8.051238654517984
 30
0.0
 10
1.683186420843826
 20
-8.056165257819005
 30
0.0
 10
1.679736522379925
 20
-8.060612072274157
 30
0.0
 10
1.675851082491524
 20
-8.06453214175975
 30
0.0
 10
1.671569061583038
 20
-8.067913476670046
 30
0.0
 10
1.666873666356797
 20
-8.070742026259971
 30
0.0
 10
1.661785033314198
 20
-8.073028139030926
 30
0.0
 10
1.656243851074778
 20
-8.07458875590467
 30
0.0
 10
1.650298098673505
 20
-8.075592798288966
 30
0.0
 10
1.64618862107736
 20
-8.075694613787833
 30
0.0
 10
1.644072877439318
 20
-8.075747032979557
 30
0.0
  0
SPLINE
  5
10B
330
1F
100
AcDbEntity
  8
0
  6
Continuous
 62
     7
370
    25
100
AcDbSpline
210
0.0
220
0.0
230
1.0
 70
     8
 71
     3
 72
    23
 73
    19
 74
     0
 42
0.000000001
 43
0.00000001
 40
0.0
 40
0.0
 40
0.0
 40
0.0
 40
0.0560216341234772
 40
0.1103444414525164
 40
0.1626368215680761
 40
0.2143683701891718
 40
0.2658619002169304
 40
0.317131099369691
 40
0.3697751665062468
 40
0.4239245997565486
 40
0.4808077286428025
 40
0.5409658086217151
 40
0.6049138631207696
 40
0.6731077597569718
 40
0.7463977034550189
 40
0.8251384505022383
 40
0.9093493893785952
 40
1.0
 40
1.0
 40
1.0
 40
1.0
 10
1.76401967077493
 20
-7.933957691429858
 30
0.0
 10
1.765852921010066
 20
-7.93400256846482
 30
0.0
 10
1.769463829124471
 20
-7.9340909616621
 30
0.0
 10
1.774740720613349
 20
-7.934878823835417
 30
0.0
 10
1.779754428322207
 20
-7.936210851485639
 30
0.0
 10
1.784525442291238
 20
-7.938006537318031
 30
0.0
 10
1.789005928859099
 20
-7.940377328733886
 30
0.0
 10
1.793145153944381
 20
-7.943355257422861
 30
0.0
 10
1.796920971178539
 20
-7.9469057328907
 30
0.0
 10
1.800387413427335
 20
-7.951001654680011
 30
0.0
 10
1.803478701662427
 20
-7.955685150898971
 30
0.0
 10
1.806201544333011
 20
-7.960955336846871
 30
0.0
 10
1.808477610476892
 20
-7.966828259156107
 30
0.0
 10
1.810462264893351
 20
-7.973254411783413
 30
0.0
 10
1.812005851565078
 20
-7.980299132460468
 30
0.0
 10
1.813116145237505
 20
-7.987951911583932
 30
0.0
 10
1.813767815070116
 20
-7.996228789648627
 30
0.0
 10
1.813843731744767
 20
-8.00194922027775
 30
0.0
 10
1.81388308798365
 20
-8.004914769485318
 30
0.0
  0
SPLINE
  5
10C
330
1F
100
AcDbEntity
  8
0
  6
Continuous
 62
     7
370
    25
100
AcDbSpline
210
0.0
220
0.0
230
1.0
 70
     8
 71
     3
 72
    23
 73
    19
 74
     0
 42
0.000000001
 43
0.00000001
 40
0.0
 40
0.0
 40
0.0
 40
0.0
 40
0.0678059476218379
 40
0.1317018369788027
 40
0.1922424321680553
 40
0.2500566278520061
 40
0.3058655639362485
 40
0.3601858534001644
 40
0.4141000840573309
 40
0.4680973772168727
 40
0.523375332896358
 40
0.5812020302986277
 40
0.6408791758160304
 40
0.7044757003760492
 40
0.7713823222133293
 40
0.8431713642003787
 40
0.9187759122737494
 40
1.0
 40
1.0
 40
1.0
 40
1.0
 10
0.3572347512268318
 20
-7.965910219103044
 30
0.0
 10
0.3585464769294644
 20
-7.965941268631769
 30
0.0
 10
0.3610942871247076
 20
-7.966001577205189
 30
0.0
 10
0.3647938971112456
 20
-7.966435823717015
 30
0.0
 10
0.3682455135023028
 20
-7.967179043123286
 30
0.0
 10
0.3714522526321498
 20
-7.968236931059118
 30
0.0
 10
0.3743985245606654
 20
-7.969621203680433
 30
0.0
 10
0.3771146250305274
 20
-7.971277186351224
 30
0.0
 10
0.3795562590866966
 20
-7.973262213616589
 30
0.0
 10
0.3817647714681665
 20
-7.975527249328577
 30
0.0
 10
0.383719146209709
 20
-7.978113816990142
 30
0.0
 10
0.3853798460541182
 20
-7.981021594153978
 30
0.0
 10
0.386840284917026
 20
-7.984211458880089
 30
0.0
 10
0.3880100213391886
 20
-7.98770558605178
 30
0.0
 10
0.3889244380470877
 20
-7.991516141944165
 30
0.0
 10
0.3895058463480861
 20
-7.995623435265851
 30
0.0
 10
0.3899470574234797
 20
-8.000027175177651
 30
0.0
 10
0.3899809961384141
 20
-8.003062100037342
 30
0.0
 10
0.3899985735479551
 20
-8.00463393672258
 30
0.0
  0
SPLINE
  5
10D
330
1F
100
AcDbEntity
  8
0
  6
Continuous
 62
     7
370
    25
100
AcDbSpline
210
0.0
220
0.0
230
1.0
 70
     8
 71
     3
 72
    23
 73
    19
 74
     0
 42
0.000000001
 43
0.00000001
 40
0.0
 40
0.0
 40
0.0
 40
0.0
 40
0.0780065135541098
 40
0.1530758765287814
 40
0.2248876845832054
 40
0.2943247787641617
 40
0.3604907329736251
 40
0.4234943169228323
 40
0.4839614067162753
 40
0.541986497165534
 40
0.5984083934619008
 40
0.6533234923758039
 40
0.7081737458063755
 40
0.7631742877461447
 40
0.8192014514174023
 40
0.8768153416521206
 40
0.9367239837759295
 40
1.0
 40
1.0
 40
1.0
 40
1.0
 10
1.594209460230598
 20
-8.004914769485321
 30
0.0
 10
1.594256025929129
 20
-8.002334307567555
 30
0.0
 10
1.59434740400506
 20
-7.997270544916028
 30
0.0
 10
1.594927041494971
 20
-7.989847551527689
 30
0.0
 10
1.595965619744179
 20
-7.982762513366085
 30
0.0
 10
1.597378750949863
 20
-7.976043185033449
 30
0.0
 10
1.599205569278052
 20
-7.969724140797386
 30
0.0
 10
1.601465754099291
 20
-7.963864682440586
 30
0.0
 10
1.604066627736806
 20
-7.958444566740892
 30
0.0
 10
1.607100381850043
 20
-7.9535027651739
 30
0.0
 10
1.610574327653489
 20
-7.949091464845041
 30
0.0
 10
1.614446660083057
 20
-7.945172286194503
 30
0.0
 10
1.618734818565822
 20
-7.941782310010962
 30
0.0
 10
1.623457847748806
 20
-7.938963092728867
 30
0.0
 10
1.628568166503199
 20
-7.936682116159398
 30
0.0
 10
1.634107332645749
 20
-7.935119170043276
 30
0.0
 10
1.640021359193506
 20
-7.934113169439239
 30
0.0
 10
1.644099773888859
 20
-7.934010453381227
 30
0.0
 10
1.646194724980112
 20
-7.933957691429859
 30
0.0
  0
SPLINE
  5
10E
330
1F
100
AcDbEntity
  8
0
  6
Continuous
 62
     7
370
    25
100
AcDbSpline
210
0.0
220
0.0
230
1.0
 70
     8
 71
     3
 72
    23
 73
    19
 74
     0
 42
0.000000001
 43
0.00000001
 40
0.0
 40
0.0
 40
0.0
 40
0.0
 40
0.0780065135541098
 40
0.1530758765287814
 40
0.2248876845832054
 40
0.2943247787641617
 40
0.3604907329736251
 40
0.4234943169228323
 40
0.4839614067162753
 40
0.541986497165534
 40
0.5984083934619008
 40
0.6533234923758039
 40
0.7081737458063755
 40
0.7631742877461447
 40
0.8192014514173998
 40
0.8768153416521206
 40
0.9367239837759295
 40
1.0
 40
1.0
 40
1.0
 40
1.0
 10
1.476384514435779
 20
-8.004914769485321
 30
0.0
 10
1.476431080134309
 20
-8.002334307567555
 30
0.0
 10
1.476522458210241
 20
-7.997270544916029
 30
0.0
 10
1.477102095700151
 20
-7.98984755152769
 30
0.0
 10
1.47814067394936
 20
-7.982762513366086
 30
0.0
 10
1.479553805155043
 20
-7.97604318503345
 30
0.0
 10
1.481380623483233
 20
-7.969724140797387
 30
0.0
 10
1.483640808304471
 20
-7.963864682440587
 30
0.0
 10
1.486241681941987
 20
-7.958444566740893
 30
0.0
 10
1.489275436055224
 20
-7.953502765173901
 30
0.0
 10
1.492749381858669
 20
-7.949091464845042
 30
0.0
 10
1.496621714288238
 20
-7.945172286194504
 30
0.0
 10
1.500909872771002
 20
-7.941782310010962
 30
0.0
 10
1.505632901953986
 20
-7.938963092728869
 30
0.0
 10
1.51074322070838
 20
-7.936682116159401
 30
0.0
 10
1.516282386850929
 20
-7.935119170043276
 30
0.0
 10
1.522196413398687
 20
-7.934113169439237
 30
0.0
 10
1.526274828094039
 20
-7.934010453381227
 30
0.0
 10
1.528369779185293
 20
-7.93395769142986
 30
0.0
  0
SPLINE
  5
10F
330
1F
100
AcDbEntity
  8
0
  6
Continuous
 62
     7
370
    25
100
AcDbSpline
210
0.0
220
0.0
230
1.0
 70
     8
 71
     3
 72
    23
 73
    19
 74
     0
 42
0.000000001
 43
0.00000001
 40
0.0
 40
0.0
 40
0.0
 40
0.0
 40
0.0560216341234772
 40
0.1103444414525164
 40
0.1626368215680761
 40
0.2143683701891718
 40
0.2658619002169304
 40
0.317131099369691
 40
0.3697751665062468
 40
0.4239245997565486
 40
0.4808077286428025
 40
0.5409658086217151
 40
0.6049138631207696
 40
0.6731077597569718
 40
0.7463977034550189
 40
0.8251384505022383
 40
0.9093493893785952
 40
1.0
 40
1.0
 40
1.0
 40
1.0
 10
1.646194724980112
 20
-7.933957691429859
 30
0.0
 10
1.648027975215248
 20
-7.934002568464821
 30
0.0
 10
1.651638883329652
 20
-7.9340909616621
 30
0.0
 10
1.656915774818531
 20
-7.934878823835418
 30
0.0
 10
1.661929482527388
 20
-7.93621085148564
 30
0.0
 10
1.66670049649642
 20
-7.938006537318032
 30
0.0
 10
1.671180983064281
 20
-7.940377328733887
 30
0.0
 10
1.675320208149563
 20
-7.943355257422862
 30
0.0
 10
1.679096025383721
 20
-7.946905732890701
 30
0.0
 10
1.682562467632517
 20
-7.951001654680012
 30
0.0
 10
1.685653755867608
 20
-7.955685150898972
 30
0.0
 10
1.688376598538192
 20
-7.960955336846872
 30
0.0
 10
1.690652664682073
 20
-7.966828259156108
 30
0.0
 10
1.692637319098533
 20
-7.973254411783414
 30
0.0
 10
1.69418090577026
 20
-7.980299132460469
 30
0.0
 10
1.695291199442686
 20
-7.987951911583933
 30
0.0
 10
1.695942869275298
 20
-7.996228789648628
 30
0.0
 10
1.696018785949948
 20
-8.00194922027775
 30
0.0
 10
1.696058142188832
 20
-8.00491476948532
 30
0.0
  0
SPLINE
  5
110
330
1F
100
AcDbEntity
  8
0
  6
Continuous
 62
     7
370
    25
100
AcDbSpline
210
0.0
220
0.0
230
1.0
 70
     8
 71
     3
 72
    23
 73
    19
 74
     0
 42
0.000000001
 43
0.00000001
 40
0.0
 40
0.0
 40
0.0
 40
0.0
 40
0.0876768172299474
 40
0.1701041931752628
 40
0.2465543401171549
 40
0.3181848531143607
 40
0.3855381220132261
 40
0.4479505003621278
 40
0.506346213907375
 40
0.5618129356648207
 40
0.6150084772114774
 40
0.6673428474460704
 40
0.7185091623695268
 40
0.770395538312926
 40
0.8241523613707467
 40
0.8797392061097298
 40
0.9378486644333618
 40
1.0
 40
1.0
 40
1.0
 40
1.0
 10
0.3700282437522229
 20
-8.006225322378178
 30
0.0
 10
0.3700198576406413
 20
-8.005226345385156
 30
0.0
 10
0.3700035875159997
 20
-8.003288202774971
 30
0.0
 10
0.3697767824402147
 20
-8.000486535466703
 30
0.0
 10
0.3694360578679132
 20
-7.997882465348956
 30
0.0
 10
0.3689824527476998
 20
-7.995467932641288
 30
0.0
 10
0.3683547554525605
 20
-7.993259112516261
 30
0.0
 10
0.3676213017116918
 20
-7.991241094773121
 30
0.0
 10
0.3667018990507517
 20
-7.989450905641819
 30
0.0
 10
0.3656723095015968
 20
-7.987846939063584
 30
0.0
 10
0.3645107290267259
 20
-7.986421976703926
 30
0.0
 10
0.3632018280188158
 20
-7.985197879729019
 30
0.0
 10
0.3617357583676619
 20
-7.98419843943338
 30
0.0
 10
0.3601669101535637
 20
-7.983336047327957
 30
0.0
 10
0.3584416608772892
 20
-7.982689277269174
 30
0.0
 10
0.3565893123860551
 20
-7.982222596799859
 30
0.0
 10
0.3546017950004295
 20
-7.981935045087311
 30
0.0
 10
0.3532312866216764
 20
-7.981903029001259
 30
0.0
 10
0.3525230015406515
 20
-7.98188648293963
 30
0.0
  0
SPLINE
  5
111
330
1F
100
AcDbEntity
  8
0
  6
Continuous
 62
     7
370
    25
100
AcDbSpline
210
0.0
220
0.0
230
1.0
 70
     8
 71
     3
 72
    23
 73
    19
 74
     0
 42
0.000000001
 43
0.00000001
 40
0.0
 40
0.0
 40
0.0
 40
0.0
 40
0.0780848440505833
 40
0.1529009613470063
 40
0.2237223063448684
 40
0.2919265821737986
 40
0.3574959536232689
 40
0.4196240080665477
 40
0.4799254746027383
 40
0.5379653131490366
 40
0.5949154670310118
 40
0.6506273919194058
 40
0.7066601510257843
 40
0.7626295246377625
 40
0.8196077197384353
 40
0.8777147941794434
 40
0.9373711801021779
 40
1.0
 40
1.0
 40
1.0
 40
1.0
 10
1.158544234280581
 20
-8.059770769142975
 30
0.0
 10
1.159907458650473
 20
-8.059746526335124
 30
0.0
 10
1.162576841156418
 20
-8.059699055552906
 30
0.0
 10
1.166471440638253
 20
-8.059337378236139
 30
0.0
 10
1.170146098249535
 20
-8.058661130167428
 30
0.0
 10
1.173617184160362
 20
-8.057806453389627
 30
0.0
 10
1.176855767219634
 20
-8.056689997173871
 30
0.0
 10
1.179848211455359
 20
-8.055332777955062
 30
0.0
 10
1.182600796178138
 20
-8.053788662934794
 30
0.0
 10
1.185085859339518
 20
-8.051991919198448
 30
0.0
 10
1.187307861694595
 20
-8.049996933394128
 30
0.0
 10
1.189262354264176
 20
-8.047786087230476
 30
0.0
 10
1.190956566732388
 20
-8.045389294521136
 30
0.0
 10
1.192333245950176
 20
-8.04277125138536
 30
0.0
 10
1.193420559806555
 20
-8.039984792487544
 30
0.0
 10
1.19424706694104
 20
-8.037042131892072
 30
0.0
 10
1.194716836077784
 20
-8.03391809626869
 30
0.0
 10
1.194773727277738
 20
-8.03178265203224
 30
0.0
 10
1.194802864315957
 20
-8.03068897637794
 30
0.0
  0
SPLINE
  5
113
330
1F
100
AcDbEntity
  8
0
  6
Continuous
 62
     7
370
    25
100
AcDbSpline
210
0.0
220
0.0
230
1.0
 70
     8
 71
     3
 72
    17
 73
    13
 74
     0
 42
0.000000001
 43
0.00000001
 40
0.0
 40
0.0
 40
0.0
 40
0.0
 40
0.1369635289454066
 40
0.2671950928647384
 40
0.3919768706084532
 40
0.5111291310158633
 40
0.6280858786100619
 40
0.7447240499558696
 40
0.8047561791511112
 40
0.8670450387006061
 40
0.9321351746682024
 40
1.0
 40
1.0
 40
1.0
 40
1.0
 10
1.735905190859378
 20
-8.035806373388091
 30
0.0
 10
1.736464976682492
 20
-8.037503919354535
 30
0.0
 10
1.737557034007118
 20
-8.040815574330416
 30
0.0
 10
1.73971321639882
 20
-8.045463597613042
 30
0.0
 10
1.742298319188702
 20
-8.049626328333813
 30
0.0
 10
1.745474365665843
 20
-8.053129264609705
 30
0.0
 10
1.749075228219921
 20
-8.05603346026308
 30
0.0
 10
1.752515138490437
 20
-8.057776166187537
 30
0.0
 10
1.755453994693303
 20
-8.058822134293463
 30
0.0
 10
1.757837948757938
 20
-8.059388002785699
 30
0.0
 10
1.760371735153126
 20
-8.05968505826645
 30
0.0
 10
1.762105153683312
 20
-8.059741804100424
 30
0.0
 10
1.76298995064484
 20
-8.05977076914297
 30
0.0
  0
SPLINE
  5
114
330
1F
100
AcDbEntity
  8
0
  6
Continuous
 62
     7
370
    25
100
AcDbSpline
210
0.0
220
0.0
230
1.0
 70
     8
 71
     3
 72
    11
 73
     7
 74
     0
 42
0.000000001
 43
0.00000001
 40
0.0
 40
0.0
 40
0.0
 40
0.0
 40
0.2539187888215199
 40
0.5082690783223827
 40
0.7561564653974546
 40
1.0
 40
1.0
 40
1.0
 40
1.0
 10
1.793912758187918
 20
-8.005975693255715
 30
0.0
 10
1.793905367366968
 20
-8.004779036006342
 30
0.0
 10
1.793890573165365
 20
-8.002383687950255
 30
0.0
 10
1.793628725849181
 20
-7.998829365201486
 30
0.0
 10
1.793401862195062
 20
-7.995321646816156
 30
0.0
 10
1.793180186332127
 20
-7.993015325324038
 30
0.0
 10
1.79307025989966
 20
-7.991871647837481
 30
0.0
  0
SPLINE
  5
115
330
1F
100
AcDbEntity
  8
0
  6
Continuous
 62
     7
370
    25
100
AcDbSpline
210
0.0
220
0.0
230
1.0
 70
     8
 71
     3
 72
    23
 73
    19
 74
     0
 42
0.000000001
 43
0.00000001
 40
0.0
 40
0.0
 40
0.0
 40
0.0
 40
0.0497703177215132
 40
0.0981213906708493
 40
0.1458143641531145
 40
0.1936801658877679
 40
0.2426576094568622
 40
0.2925036577654569
 40
0.344713166747743
 40
0.4000673873688878
 40
0.4588479512838081
 40
0.5215784588691904
 40
0.588978124250633
 40
0.6610400881690423
 40
0.7377361484837156
 40
0.8196189073590037
 40
0.9069643866908126
 40
1.0
 40
1.0
 40
1.0
 40
1.0
 10
1.76298995064484
 20
-8.05977076914297
 30
0.0
 10
1.764137727905212
 20
-8.059731341186424
 30
0.0
 10
1.766400552538927
 20
-8.059653609596499
 30
0.0
 10
1.769700108916957
 20
-8.058959683102302
 30
0.0
 10
1.772860393015325
 20
-8.057923139089116
 30
0.0
 10
1.775806726756011
 20
-8.056346279031047
 30
0.0
 10
1.778599613346145
 20
-8.054428211996136
 30
0.0
 10
1.781140997873142
 20
-8.052036276241338
 30
0.0
 10
1.783502803167421
 20
-8.04927541431828
 30
0.0
 10
1.785614743529482
 20
-8.046067553698471
 30
0.0
 10
1.787515947233824
 20
-8.042458801613835
 30
0.0
 10
1.78920723313818
 20
-8.038443233035354
 30
0.0
 10
1.79062939767189
 20
-8.034002312412301
 30
0.0
 10
1.791792511603223
 20
-8.029158157210789
 30
0.0
 10
1.79277540288269
 20
-8.02393393493253
 30
0.0
 10
1.79344232370205
 20
-8.018305069920821
 30
0.0
 10
1.793854266920399
 20
-8.012274689644661
 30
0.0
 10
1.793892855340622
 20
-8.00811905530904
 30
0.0
 10
1.793912758187918
 20
-8.005975693255717
 30
0.0
  0
SPLINE
  5
117
330
1F
100
AcDbEntity
  8
0
  6
Continuous
 62
     7
370
    25
100
AcDbSpline
210
0.0
220
0.0
230
1.0
 70
     8
 71
     3
 72
    17
 73
    13
 74
     0
 42
0.000000001
 43
0.00000001
 40
0.0
 40
0.0
 40
0.0
 40
0.0
 40
0.1369635289454066
 40
0.2671950928647384
 40
0.3919768706084532
 40
0.5111291310158633
 40
0.6280858786100619
 40
0.7447240499558696
 40
0.8047561791511112
 40
0.8670450387006061
 40
0.9321351746682024
 40
1.0
 40
1.0
 40
1.0
 40
1.0
 10
1.61808024506456
 20
-8.035806373388091
 30
0.0
 10
1.618640030887674
 20
-8.037503919354537
 30
0.0
 10
1.6197320882123
 20
-8.040815574330418
 30
0.0
 10
1.621888270604002
 20
-8.045463597613043
 30
0.0
 10
1.624473373393883
 20
-8.049626328333815
 30
0.0
 10
1.627649419871025
 20
-8.053129264609707
 30
0.0
 10
1.631250282425103
 20
-8.056033460263082
 30
0.0
 10
1.634690192695619
 20
-8.057776166187537
 30
0.0
 10
1.637629048898486
 20
-8.058822134293465
 30
0.0
 10
1.640013002963119
 20
-8.0593880027857
 30
0.0
 10
1.642546789358307
 20
-8.059685058266451
 30
0.0
 10
1.644280207888493
 20
-8.059741804100426
 30
0.0
 10
1.645165004850021
 20
-8.059770769142972
 30
0.0
  0
SPLINE
  5
118
330
1F
100
AcDbEntity
  8
0
  6
Continuous
 62
     7
370
    25
100
AcDbSpline
210
0.0
220
0.0
230
1.0
 70
     8
 71
     3
 72
    11
 73
     7
 74
     0
 42
0.000000001
 43
0.00000001
 40
0.0
 40
0.0
 40
0.0
 40
0.0
 40
0.2539187888215194
 40
0.5082690783223818
 40
0.7561564653974533
 40
1.0
 40
1.0
 40
1.0
 40
1.0
 10
1.6760878123931
 20
-8.005975693255717
 30
0.0
 10
1.676080421572149
 20
-8.004779036006344
 30
0.0
 10
1.676065627370547
 20
-8.002383687950255
 30
0.0
 10
1.675803780054362
 20
-7.99882936520149
 30
0.0
 10
1.675576916400243
 20
-7.995321646816154
 30
0.0
 10
1.675355240537309
 20
-7.993015325324042
 30
0.0
 10
1.675245314104842
 20
-7.991871647837482
 30
0.0
  0
SPLINE
  5
119
330
1F
100
AcDbEntity
  8
0
  6
Continuous
 62
     7
370
    25
100
AcDbSpline
210
0.0
220
0.0
230
1.0
 70
     8
 71
     3
 72
    23
 73
    19
 74
     0
 42
0.000000001
 43
0.00000001
 40
0.0
 40
0.0
 40
0.0
 40
0.0
 40
0.0497703177215132
 40
0.0981213906708493
 40
0.1458143641531145
 40
0.1936801658877644
 40
0.242657609456862
 40
0.2925036577654566
 40
0.3447131667477428
 40
0.4000673873688875
 40
0.458847951283808
 40
0.5215784588691902
 40
0.5889781242506329
 40
0.6610400881690421
 40
0.7377361484837155
 40
0.8196189073590036
 40
0.9069643866908125
 40
1.0
 40
1.0
 40
1.0
 40
1.0
 10
1.645165004850021
 20
-8.05977076914297
 30
0.0
 10
1.646312782110394
 20
-8.059731341186424
 30
0.0
 10
1.648575606744109
 20
-8.059653609596499
 30
0.0
 10
1.651875163122138
 20
-8.058959683102303
 30
0.0
 10
1.655035447220506
 20
-8.057923139089114
 30
0.0
 10
1.657981780961193
 20
-8.056346279031048
 30
0.0
 10
1.660774667551327
 20
-8.054428211996141
 30
0.0
 10
1.663316052078324
 20
-8.052036276241342
 30
0.0
 10
1.665677857372602
 20
-8.04927541431828
 30
0.0
 10
1.667789797734665
 20
-8.046067553698473
 30
0.0
 10
1.669691001439006
 20
-8.042458801613838
 30
0.0
 10
1.671382287343361
 20
-8.038443233035352
 30
0.0
 10
1.672804451877073
 20
-8.034002312412307
 30
0.0
 10
1.673967565808404
 20
-8.02915815721079
 30
0.0
 10
1.674950457087871
 20
-8.023933934932533
 30
0.0
 10
1.675617377907232
 20
-8.01830506992082
 30
0.0
 10
1.676029321125581
 20
-8.012274689644663
 30
0.0
 10
1.676067909545804
 20
-8.00811905530904
 30
0.0
 10
1.6760878123931
 20
-8.005975693255717
 30
0.0
  0
SPLINE
  5
11B
330
1F
100
AcDbEntity
  8
0
  6
Continuous
 62
     7
370
    25
100
AcDbSpline
210
0.0
220
0.0
230
1.0
 70
     8
 71
     3
 72
    11
 73
     7
 74
     0
 42
0.000000001
 43
0.00000001
 40
0.0
 40
0.0
 40
0.0
 40
0.0
 40
0.2539190867665449
 40
0.5078492624291698
 40
0.7572029382484667
 40
1.0
 40
1.0
 40
1.0
 40
1.0
 10
1.496354844231511
 20
-8.00469634400318
 30
0.0
 10
1.496353546538278
 20
-8.005809279706321
 30
0.0
 10
1.496350951095142
 20
-8.008035199715598
 30
0.0
 10
1.496370300622742
 20
-8.01135394013053
 30
0.0
 10
1.496480386110742
 20
-8.014623494709934
 30
0.0
 10
1.496667956032519
 20
-8.016772760388577
 30
0.0
 10
1.496760491555487
 20
-8.017833076571936
 30
0.0
  0
SPLINE
  5
11C
330
1F
100
AcDbEntity
  8
0
  6
Continuous
 62
     7
370
    25
100
AcDbSpline
210
0.0
220
0.0
230
1.0
 70
     8
 71
     3
 72
    23
 73
    19
 74
     0
 42
0.000000001
 43
0.00000001
 40
0.0
 40
0.0
 40
0.0
 40
0.0
 40
0.0491505322326707
 40
0.0968994934263284
 40
0.1437233254424918
 40
0.1913889259559637
 40
0.2400127248240437
 40
0.2898482659348939
 40
0.3423761739130013
 40
0.3977853390988997
 40
0.4570190293977501
 40
0.5200344720648574
 40
0.5874438107696599
 40
0.6595811003141725
 40
0.7365590059663134
 40
0.819192878211366
 40
0.9067854365879743
 40
1.0
 40
1.0
 40
1.0
 40
1.0
 10
1.527277651774589
 20
-7.949933955266445
 30
0.0
 10
1.526130379069385
 20
-7.949974766640613
 30
0.0
 10
1.523868549158166
 20
-7.950055225616405
 30
0.0
 10
1.520568048486436
 20
-7.950727945298954
 30
0.0
 10
1.517431835793254
 20
-7.951838469719851
 30
0.0
 10
1.514457128704977
 20
-7.953374536636982
 30
0.0
 10
1.511657116066224
 20
-7.955342437227877
 30
0.0
 10
1.509128020530304
 20
-7.957806370739856
 30
0.0
 10
1.506729936051217
 20
-7.960607577648608
 30
0.0
 10
1.50461759050783
 20
-7.963897253277085
 30
0.0
 10
1.502714393226388
 20
-7.967584275900615
 30
0.0
 10
1.50107313004587
 20
-7.971698875533191
 30
0.0
 10
1.499646543101784
 20
-7.976206082097055
 30
0.0
 10
1.498420826046491
 20
-7.981109937951421
 30
0.0
 10
1.497505163184657
 20
-7.986441433721417
 30
0.0
 10
1.496823253594597
 20
-7.99216899865942
 30
0.0
 10
1.496414247699025
 20
-7.998304021144265
 30
0.0
 10
1.49637505164059
 20
-8.00252185338195
 30
0.0
 10
1.496354844231511
 20
-8.00469634400318
 30
0.0
  0
SPLINE
  5
11D
330
1F
100
AcDbEntity
  8
0
  6
Continuous
 62
     7
370
    25
100
AcDbSpline
210
0.0
220
0.0
230
1.0
 70
     8
 71
     3
 72
    17
 73
    13
 74
     0
 42
0.000000001
 43
0.00000001
 40
0.0
 40
0.0
 40
0.0
 40
0.0
 40
0.1387365904530871
 40
0.2705246439382422
 40
0.3946796776022856
 40
0.5150076000519827
 40
0.6312935000296496
 40
0.7486775075559183
 40
0.8085107281699964
 40
0.8698149290498726
 40
0.9339144989468157
 40
1.0
 40
1.0
 40
1.0
 40
1.0
 10
1.553956764236075
 20
-7.973898351021324
 30
0.0
 10
1.553413470576497
 20
-7.972188166075621
 30
0.0
 10
1.552354093786773
 20
-7.968853449747408
 30
0.0
 10
1.550156608320442
 20
-7.964234372633817
 30
0.0
 10
1.547568102392652
 20
-7.96010231696583
 30
0.0
 10
1.544476441302619
 20
-7.956582562280703
 30
0.0
 10
1.540888830565901
 20
-7.953705121213764
 30
0.0
 10
1.537508929959296
 20
-7.951929863315852
 30
0.0
 10
1.5346044136824
 20
-7.950888408949005
 30
0.0
 10
1.532274672110012
 20
-7.950315533848201
 30
0.0
 10
1.529812674439293
 20
-7.950021252697457
 30
0.0
 10
1.528131209397967
 20
-7.949963348844964
 30
0.0
 10
1.527277651774589
 20
-7.949933955266445
 30
0.0
  0
SPLINE
  5
11E
330
1F
100
AcDbEntity
  8
0
  6
Continuous
 62
     7
370
    25
100
AcDbSpline
210
0.0
220
0.0
230
1.0
 70
     8
 71
     3
 72
    23
 73
    19
 74
     0
 42
0.000000001
 43
0.00000001
 40
0.0
 40
0.0
 40
0.0
 40
0.0
 40
0.0845898078992149
 40
0.1644424881550798
 40
0.2387392311760434
 40
0.308962993651885
 40
0.3755489675437754
 40
0.4377569830751876
 40
0.4974253410286484
 40
0.5541294128800269
 40
0.609240449497999
 40
0.663186885191215
 40
0.7164606092776824
 40
0.7700600439458163
 40
0.8246594190858901
 40
0.8811612676083878
 40
0.9388957093794706
 40
1.0
 40
1.0
 40
1.0
 40
1.0
 10
0.5537552778729578
 20
-8.020766218760693
 30
0.0
 10
0.5537750717252482
 20
-8.022337771039258
 30
0.0
 10
0.5538135509510759
 20
-8.02539286684065
 30
0.0
 10
0.5542284189153583
 20
-8.029812334840207
 30
0.0
 10
0.5548768713923845
 20
-8.033931694517346
 30
0.0
 10
0.5557764527425361
 20
-8.037752713588638
 30
0.0
 10
0.5569224907065945
 20
-8.041271273790878
 30
0.0
 10
0.5582965619765081
 20
-8.044497794776332
 30
0.0
 10
0.5599266899494781
 20
-8.04739155370104
 30
0.0
 10
0.5617288912911909
 20
-8.05002760486947
 30
0.0
 10
0.5638178831500954
 20
-8.052298640976037
 30
0.0
 10
0.5660542316603288
 20
-8.054332069585072
 30
0.0
 10
0.5685566463140461
 20
-8.055981772699658
 30
0.0
 10
0.5712238419733181
 20
-8.057360231989064
 30
0.0
 10
0.5740807711666519
 20
-8.058480826342374
 30
0.0
 10
0.5771420506077407
 20
-8.059188634225785
 30
0.0
 10
0.5803658404681576
 20
-8.059693005590885
 30
0.0
 10
0.5825749146731789
 20
-8.059744362524892
 30
0.0
 10
0.5837107725665561
 20
-8.05977076914298
 30
0.0
  0
SPLINE
  5
11F
330
1F
100
AcDbEntity
  8
0
  6
Continuous
 62
     7
370
    25
100
AcDbSpline
210
0.0
220
0.0
230
1.0
 70
     8
 71
     3
 72
    23
 73
    19
 74
     0
 42
0.000000001
 43
0.00000001
 40
0.0
 40
0.0
 40
0.0
 40
0.0
 40
0.0847824514993376
 40
0.1636991757076144
 40
0.2387193742497254
 40
0.308557122874512
 40
0.3747615590799624
 40
0.4371112462425985
 40
0.4964262280525643
 40
0.5535827873238458
 40
0.608444494451476
 40
0.6629345660245146
 40
0.7166443376812506
 40
0.7708649058254526
 40
0.8259157819314336
 40
0.881456616506247
 40
0.939877902758988
 40
1.0
 40
1.0
 40
1.0
 40
1.0
 10
0.6136662672601539
 20
-8.020766218760693
 30
0.0
 10
0.6136476073895165
 20
-8.019194549864586
 30
0.0
 10
0.6136115786431413
 20
-8.01615994897457
 30
0.0
 10
0.6131848149737937
 20
-8.011752355395254
 30
0.0
 10
0.6125522181643218
 20
-8.0076513773737
 30
0.0
 10
0.6116456971559407
 20
-8.003841372133582
 30
0.0
 10
0.6104921827219371
 20
-8.000346710096757
 30
0.0
 10
0.6091316074721037
 20
-7.99713560776931
 30
0.0
 10
0.6074923679797393
 20
-7.99424772839428
 30
0.0
 10
0.6056549461807169
 20
-7.991652373547319
 30
0.0
 10
0.603607712304509
 20
-7.989333426096043
 30
0.0
 10
0.6013252715153565
 20
-7.987341554460458
 30
0.0
 10
0.5988391592592764
 20
-7.985631559618217
 30
0.0
 10
0.5961393118208707
 20
-7.98425951448144
 30
0.0
 10
0.5932667374488181
 20
-7.983202009715367
 30
0.0
 10
0.5902210904123454
 20
-7.982452386494617
 30
0.0
 10
0.5870232214546154
 20
-7.981972208207943
 30
0.0
 10
0.5848254331788616
 20
-7.981915330050421
 30
0.0
 10
0.5837107725665556
 20
-7.981886482939627
 30
0.0
  0
SPLINE
  5
120
330
1F
100
AcDbEntity
  8
0
  6
Continuous
 62
     7
370
    25
100
AcDbSpline
210
0.0
220
0.0
230
1.0
 70
     8
 71
     3
 72
    23
 73
    19
 74
     0
 42
0.000000001
 43
0.00000001
 40
0.0
 40
0.0
 40
0.0
 40
0.0
 40
0.0694148555325561
 40
0.1346555816847989
 40
0.1963674015016221
 40
0.2561305804665467
 40
0.3136727079370336
 40
0.3709824527894835
 40
0.427992028146084
 40
0.4858343080079992
 40
0.5445137200312623
 40
0.6045183137748809
 40
0.6660728992026332
 40
0.730492708010492
 40
0.7961606101474755
 40
0.8632832969540273
 40
0.9306469656364903
 40
0.9999999999999999
 40
0.9999999999999999
 40
0.9999999999999999
 40
0.9999999999999999
 10
0.5837107725665556
 20
-7.981886482939627
 30
0.0
 10
0.5824279853064113
 20
-7.98191268945279
 30
0.0
 10
0.579939548740963
 20
-7.981963526600646
 30
0.0
 10
0.5763672771696129
 20
-7.982633636955005
 30
0.0
 10
0.5730398090033036
 20
-7.983560950099152
 30
0.0
 10
0.5700439408784453
 20
-7.98498942035799
 30
0.0
 10
0.5673328278000946
 20
-7.986738969413914
 30
0.0
 10
0.5648483472995021
 20
-7.988724162469219
 30
0.0
 10
0.5626649560728287
 20
-7.991041550420971
 30
0.0
 10
0.5606800867257091
 20
-7.993561412484848
 30
0.0
 10
0.5590005158399437
 20
-7.996362022194889
 30
0.0
 10
0.5575761986332417
 20
-7.99937046728114
 30
0.0
 10
0.5563330732170421
 20
-8.002574724588845
 30
0.0
 10
0.5554048428098984
 20
-8.005990822396408
 30
0.0
 10
0.5546313091393861
 20
-8.009550180786913
 30
0.0
 10
0.5541813474825984
 20
-8.013218045404674
 30
0.0
 10
0.5537854046764195
 20
-8.016961402024108
 30
0.0
 10
0.5537654170872935
 20
-8.019485702809169
 30
0.0
 10
0.5537552778729578
 20
-8.020766218760693
 30
0.0
  0
SPLINE
  5
121
330
1F
100
AcDbEntity
  8
0
  6
Continuous
 62
     7
370
    25
100
AcDbSpline
210
0.0
220
0.0
230
1.0
 70
     8
 71
     3
 72
    23
 73
    19
 74
     0
 42
0.000000001
 43
0.00000001
 40
0.0
 40
0.0
 40
0.0
 40
0.0
 40
0.0692587599818927
 40
0.1342579533714989
 40
0.1959926056736282
 40
0.2551126353384242
 40
0.312999961339559
 40
0.370180831816164
 40
0.4270622077982777
 40
0.4844308467535862
 40
0.543272006799056
 40
0.6031416661682942
 40
0.6645578317025745
 40
0.7288327774915252
 40
0.7949034583491331
 40
0.8613964728442509
 40
0.9302406774209568
 40
1.0
 40
1.0
 40
1.0
 40
1.0
 10
0.5837107725665561
 20
-8.05977076914298
 30
0.0
 10
0.5849926978824831
 20
-8.059739952162833
 30
0.0
 10
0.5874777072782115
 20
-8.059680213514826
 30
0.0
 10
0.591062982298879
 20
-8.059073123152292
 30
0.0
 10
0.5943698826967982
 20
-8.058094177757939
 30
0.0
 10
0.5973576013228504
 20
-8.056652522162405
 30
0.0
 10
0.6000858504682755
 20
-8.054929314085557
 30
0.0
 10
0.6025698053241778
 20
-8.052929907694013
 30
0.0
 10
0.6047618154688998
 20
-8.050627582156823
 30
0.0
 10
0.6067014613874119
 20
-8.04807542200158
 30
0.0
 10
0.6084289340110937
 20
-8.045306796680794
 30
0.0
 10
0.6098428786207231
 20
-8.042284997377967
 30
0.0
 10
0.6110877331423221
 20
-8.039082812592289
 30
0.0
 10
0.612025313565842
 20
-8.035657404746418
 30
0.0
 10
0.6127687169596682
 20
-8.032092105674609
 30
0.0
 10
0.6133032977196413
 20
-8.028403584910635
 30
0.0
 10
0.6136189149711535
 20
-8.024620330229908
 30
0.0
 10
0.613650413840951
 20
-8.022056564931225
 30
0.0
 10
0.6136662672601539
 20
-8.020766218760693
 30
0.0
  0
SPLINE
  5
123
330
1F
100
AcDbEntity
  8
0
  6
Continuous
 62
     7
370
    25
100
AcDbSpline
210
0.0
220
0.0
230
1.0
 70
     8
 71
     3
 72
    11
 73
     7
 74
     0
 42
0.000000001
 43
0.00000001
 40
0.0
 40
0.0
 40
0.0
 40
0.0
 40
0.2539190867665449
 40
0.5078492624291698
 40
0.7572029382484667
 40
1.0
 40
1.0
 40
1.0
 40
1.0
 10
1.61417979002633
 20
-8.004696344003179
 30
0.0
 10
1.614178492333098
 20
-8.005809279706321
 30
0.0
 10
1.614175896889962
 20
-8.008035199715598
 30
0.0
 10
1.614195246417562
 20
-8.011353940130528
 30
0.0
 10
1.614305331905562
 20
-8.014623494709932
 30
0.0
 10
1.614492901827338
 20
-8.016772760388577
 30
0.0
 10
1.614585437350306
 20
-8.017833076571934
 30
0.0
  0
SPLINE
  5
124
330
1F
100
AcDbEntity
  8
0
  6
Continuous
 62
     7
370
    25
100
AcDbSpline
210
0.0
220
0.0
230
1.0
 70
     8
 71
     3
 72
    17
 73
    13
 74
     0
 42
0.000000001
 43
0.00000001
 40
0.0
 40
0.0
 40
0.0
 40
0.0
 40
0.1387365904530871
 40
0.2705246439382422
 40
0.3946796776022856
 40
0.5150076000519827
 40
0.6312935000296496
 40
0.7486775075559183
 40
0.8085107281699964
 40
0.8698149290498726
 40
0.9339144989468157
 40
1.0
 40
1.0
 40
1.0
 40
1.0
 10
1.671781710030894
 20
-7.973898351021323
 30
0.0
 10
1.671238416371316
 20
-7.97218816607562
 30
0.0
 10
1.670179039581593
 20
-7.968853449747407
 30
0.0
 10
1.667981554115261
 20
-7.964234372633817
 30
0.0
 10
1.665393048187472
 20
-7.960102316965829
 30
0.0
 10
1.662301387097439
 20
-7.956582562280702
 30
0.0
 10
1.658713776360721
 20
-7.953705121213763
 30
0.0
 10
1.655333875754116
 20
-7.951929863315851
 30
0.0
 10
1.652429359477219
 20
-7.950888408949004
 30
0.0
 10
1.650099617904832
 20
-7.9503155338482
 30
0.0
 10
1.647637620234112
 20
-7.950021252697456
 30
0.0
 10
1.645956155192786
 20
-7.949963348844963
 30
0.0
 10
1.645102597569408
 20
-7.949933955266444
 30
0.0
  0
SPLINE
  5
125
330
1F
100
AcDbEntity
  8
0
  6
Continuous
 62
     7
370
    25
100
AcDbSpline
210
0.0
220
0.0
230
1.0
 70
     8
 71
     3
 72
    23
 73
    19
 74
     0
 42
0.000000001
 43
0.00000001
 40
0.0
 40
0.0
 40
0.0
 40
0.0
 40
0.0491505322326707
 40
0.0968994934263284
 40
0.1437233254424918
 40
0.1913889259559637
 40
0.2400127248240437
 40
0.2898482659348939
 40
0.3423761739130013
 40
0.3977853390988997
 40
0.4570190293977501
 40
0.5200344720648574
 40
0.5874438107696599
 40
0.6595811003141725
 40
0.7365590059663134
 40
0.819192878211366
 40
0.9067854365879743
 40
1.0
 40
1.0
 40
1.0
 40
1.0
 10
1.645102597569408
 20
-7.949933955266444
 30
0.0
 10
1.643955324864204
 20
-7.949974766640612
 30
0.0
 10
1.641693494952985
 20
-7.950055225616404
 30
0.0
 10
1.638392994281256
 20
-7.950727945298953
 30
0.0
 10
1.635256781588073
 20
-7.951838469719849
 30
0.0
 10
1.632282074499796
 20
-7.953374536636981
 30
0.0
 10
1.629482061861043
 20
-7.955342437227874
 30
0.0
 10
1.626952966325123
 20
-7.957806370739855
 30
0.0
 10
1.624554881846036
 20
-7.960607577648605
 30
0.0
 10
1.62244253630265
 20
-7.963897253277083
 30
0.0
 10
1.620539339021208
 20
-7.967584275900612
 30
0.0
 10
1.618898075840689
 20
-7.971698875533188
 30
0.0
 10
1.617471488896604
 20
-7.976206082097052
 30
0.0
 10
1.61624577184131
 20
-7.981109937951421
 30
0.0
 10
1.615330108979476
 20
-7.986441433721416
 30
0.0
 10
1.614648199389416
 20
-7.992168998659419
 30
0.0
 10
1.614239193493844
 20
-7.998304021144264
 30
0.0
 10
1.614199997435409
 20
-8.002521853381948
 30
0.0
 10
1.61417979002633
 20
-8.004696344003179
 30
0.0
  0
SPLINE
  5
126
330
1F
100
AcDbEntity
  8
0
  6
Continuous
 62
     7
370
    25
100
AcDbSpline
210
0.0
220
0.0
230
1.0
 70
     8
 71
     3
 72
    11
 73
     7
 74
     0
 42
0.000000001
 43
0.00000001
 40
0.0
 40
0.0
 40
0.0
 40
0.0
 40
0.2387446587693829
 40
0.4916491671923983
 40
0.7478254505933378
 40
1.0
 40
1.0
 40
1.0
 40
1.0
 10
0.4898502225266151
 20
-7.986192585301833
 30
0.0
 10
0.4882928122889408
 20
-7.985541176407283
 30
0.0
 10
0.4850856224390135
 20
-7.984199723818741
 30
0.0
 10
0.4799523960001376
 20
-7.982889565301448
 30
0.0
 10
0.4746289149449107
 20
-7.982060675330237
 30
0.0
 10
0.4710374275440665
 20
-7.981944241547875
 30
0.0
 10
0.4692558199247668
 20
-7.981886482939629
 30
0.0
  0
SPLINE
  5
128
330
1F
100
AcDbEntity
  8
0
  6
Continuous
 62
     7
370
    25
100
AcDbSpline
210
0.0
220
0.0
230
1.0
 70
     8
 71
     3
 72
    23
 73
    19
 74
     0
 42
0.000000001
 43
0.00000001
 40
0.0
 40
0.0
 40
0.0
 40
0.0
 40
0.0620911149973776
 40
0.1213701401113635
 40
0.178018793157403
 40
0.2329542541983506
 40
0.2862716343566358
 40
0.3389383597022869
 40
0.3921874804801903
 40
0.4467429262722316
 40
0.5026262314552434
 40
0.5611021982728668
 40
0.6227229192604171
 40
0.6885666838929854
 40
0.7583096945203076
 40
0.8335264032140962
 40
0.9136669315493543
 40
1.0
 40
1.0
 40
1.0
 40
1.0
 10
0.4692558199247668
 20
-7.981886482939629
 30
0.0
 10
0.4680586658016097
 20
-7.981919054988824
 30
0.0
 10
0.4657185763432615
 20
-7.981982723907872
 30
0.0
 10
0.4623033246072082
 20
-7.982402850098554
 30
0.0
 10
0.4591005645120286
 20
-7.983202324510061
 30
0.0
 10
0.4560954564859607
 20
-7.984255451610113
 30
0.0
 10
0.4532894094289632
 20
-7.985598205100684
 30
0.0
 10
0.4507068715448507
 20
-7.98727411289633
 30
0.0
 10
0.4483232768170647
 20
-7.989256762741371
 30
0.0
 10
0.4461277960407785
 20
-7.991535078333174
 30
0.0
 10
0.4441801335665357
 20
-7.994155753325132
 30
0.0
 10
0.4424840164223878
 20
-7.997105050345108
 30
0.0
 10
0.4410992849926005
 20
-8.000419213481193
 30
0.0
 10
0.4399074215266384
 20
-8.004034128171119
 30
0.0
 10
0.4390013807893755
 20
-8.008003796143903
 30
0.0
 10
0.4384162252806509
 20
-8.01230708093839
 30
0.0
 10
0.4379790981578702
 20
-8.016950550850959
 30
0.0
 10
0.4379450318279808
 20
-8.020161794337314
 30
0.0
 10
0.4379273650577125
 20
-8.021827142531093
 30
0.0
  0
SPLINE
  5
129
330
1F
100
AcDbEntity
  8
0
  6
Continuous
 62
     7
370
    25
100
AcDbSpline
210
0.0
220
0.0
230
1.0
 70
     8
 71
     3
 72
    15
 73
    11
 74
     0
 42
0.000000001
 43
0.00000001
 40
0.0
 40
0.0
 40
0.0
 40
0.0
 40
0.0866522868097653
 40
0.1790937987740106
 40
0.2816360189581741
 40
0.3962817064059433
 40
0.5243081875869303
 40
0.6668926160659969
 40
0.8259696079683513
 40
1.0
 40
1.0
 40
1.0
 40
1.0
 10
0.4592706550269012
 20
-8.059770769142984
 30
0.0
 10
0.4604457045240033
 20
-8.059700055003919
 30
0.0
 10
0.4628743083835347
 20
-8.059553902325689
 30
0.0
 10
0.4664896227494735
 20
-8.058233806945081
 30
0.0
 10
0.4702008762724741
 20
-8.056283969840038
 30
0.0
 10
0.4739743199886438
 20
-8.053509456950183
 30
0.0
 10
0.47784608834891
 20
-8.050016537619495
 30
0.0
 10
0.4818083721250593
 20
-8.045759789668574
 30
0.0
 10
0.485885522479327
 20
-8.040778901266119
 30
0.0
 10
0.4884896882966349
 20
-8.037102841029306
 30
0.0
 10
0.4898502225266157
 20
-8.035182300581988
 30
0.0
  0
SPLINE
  5
12A
330
1F
100
AcDbEntity
  8
0
  6
Continuous
 62
     7
370
    25
100
AcDbSpline
210
0.0
220
0.0
230
1.0
 70
     8
 71
     3
 72
    23
 73
    19
 74
     0
 42
0.000000001
 43
0.00000001
 40
0.0
 40
0.0
 40
0.0
 40
0.0
 40
0.0948615558037575
 40
0.1840836117436313
 40
0.2672354164972742
 40
0.3445630865487787
 40
0.4162266725088907
 40
0.4831307478360172
 40
0.5452477986023412
 40
0.6031494328676545
 40
0.6577137000770594
 40
0.7090797169128823
 40
0.7580514808472661
 40
0.8058777960051762
 40
0.853164415311732
 40
0.9003815082152367
 40
0.94927354427748
 40
1.0
 40
1.0
 40
1.0
 40
1.0
 10
0.4379273650577125
 20
-8.021827142531093
 30
0.0
 10
0.4379472150442712
 20
-8.023366829418457
 30
0.0
 10
0.4379857349397958
 20
-8.026354669126329
 30
0.0
 10
0.4382278570512641
 20
-8.030687096340145
 30
0.0
 10
0.438655490480403
 20
-8.034719475056473
 30
0.0
 10
0.4392793049848626
 20
-8.038437750471017
 30
0.0
 10
0.4400585146886066
 20
-8.041856067129055
 30
0.0
 10
0.4409773630997711
 20
-8.044984067591585
 30
0.0
 10
0.4420942349596008
 20
-8.04781119611575
 30
0.0
 10
0.4434177884489274
 20
-8.050321502738095
 30
0.0
 10
0.4448715552074752
 20
-8.052555099934763
 30
0.0
 10
0.446512002171513
 20
-8.054468680301417
 30
0.0
 10
0.4482693729659641
 20
-8.056118114300679
 30
0.0
 10
0.4501831722608449
 20
-8.05747714499038
 30
0.0
 10
0.4522586651679227
 20
-8.058513412481155
 30
0.0
 10
0.4544791545235273
 20
-8.05923197548469
 30
0.0
 10
0.4568293528096065
 20
-8.05967861095525
 30
0.0
 10
0.4584469585150857
 20
-8.059739674927268
 30
0.0
 10
0.4592706550269012
 20
-8.059770769142984
 30
0.0
  0
SPLINE
  5
12C
330
1F
100
AcDbEntity
  8
0
  6
Continuous
 62
     7
370
    25
100
AcDbSpline
210
0.0
220
0.0
230
1.0
 70
     8
 71
     3
 72
    11
 73
     7
 74
     0
 42
0.000000001
 43
0.00000001
 40
0.0
 40
0.0
 40
0.0
 40
0.0
 40
0.2539190867665449
 40
0.5078492624291698
 40
0.7572029382484667
 40
1.0
 40
1.0
 40
1.0
 40
1.0
 10
1.732004735821149
 20
-8.004696344003177
 30
0.0
 10
1.732003438127916
 20
-8.00580927970632
 30
0.0
 10
1.73200084268478
 20
-8.008035199715597
 30
0.0
 10
1.73202019221238
 20
-8.011353940130526
 30
0.0
 10
1.73213027770038
 20
-8.01462349470993
 30
0.0
 10
1.732317847622156
 20
-8.016772760388573
 30
0.0
 10
1.732410383145124
 20
-8.017833076571932
 30
0.0
  0
SPLINE
  5
12D
330
1F
100
AcDbEntity
  8
0
  6
Continuous
 62
     7
370
    25
100
AcDbSpline
210
0.0
220
0.0
230
1.0
 70
     8
 71
     3
 72
    17
 73
    13
 74
     0
 42
0.000000001
 43
0.00000001
 40
0.0
 40
0.0
 40
0.0
 40
0.0
 40
0.1387365904530871
 40
0.2705246439382422
 40
0.3946796776022856
 40
0.5150076000519827
 40
0.6312935000296496
 40
0.7486775075559183
 40
0.8085107281699964
 40
0.8698149290498726
 40
0.9339144989468157
 40
1.0
 40
1.0
 40
1.0
 40
1.0
 10
1.789606655825713
 20
-7.973898351021322
 30
0.0
 10
1.789063362166134
 20
-7.972188166075619
 30
0.0
 10
1.788003985376411
 20
-7.968853449747405
 30
0.0
 10
1.785806499910079
 20
-7.964234372633816
 30
0.0
 10
1.78321799398229
 20
-7.960102316965828
 30
0.0
 10
1.780126332892257
 20
-7.956582562280701
 30
0.0
 10
1.776538722155539
 20
-7.953705121213761
 30
0.0
 10
1.773158821548934
 20
-7.95192986331585
 30
0.0
 10
1.770254305272038
 20
-7.950888408949004
 30
0.0
 10
1.76792456369965
 20
-7.950315533848199
 30
0.0
 10
1.765462566028931
 20
-7.950021252697455
 30
0.0
 10
1.763781100987604
 20
-7.949963348844961
 30
0.0
 10
1.762927543364227
 20
-7.949933955266443
 30
0.0
  0
SPLINE
  5
12E
330
1F
100
AcDbEntity
  8
0
  6
Continuous
 62
     7
370
    25
100
AcDbSpline
210
0.0
220
0.0
230
1.0
 70
     8
 71
     3
 72
    23
 73
    19
 74
     0
 42
0.000000001
 43
0.00000001
 40
0.0
 40
0.0
 40
0.0
 40
0.0
 40
0.0491505322326707
 40
0.0968994934263284
 40
0.1437233254424918
 40
0.1913889259559637
 40
0.2400127248240437
 40
0.2898482659348939
 40
0.3423761739130013
 40
0.3977853390988997
 40
0.4570190293977501
 40
0.5200344720648574
 40
0.5874438107696599
 40
0.6595811003141725
 40
0.7365590059663134
 40
0.819192878211366
 40
0.9067854365879743
 40
1.0
 40
1.0
 40
1.0
 40
1.0
 10
1.762927543364227
 20
-7.949933955266443
 30
0.0
 10
1.761780270659022
 20
-7.949974766640611
 30
0.0
 10
1.759518440747803
 20
-7.950055225616403
 30
0.0
 10
1.756217940076074
 20
-7.950727945298953
 30
0.0
 10
1.753081727382891
 20
-7.951838469719848
 30
0.0
 10
1.750107020294615
 20
-7.95337453663698
 30
0.0
 10
1.747307007655862
 20
-7.955342437227873
 30
0.0
 10
1.744777912119942
 20
-7.957806370739854
 30
0.0
 10
1.742379827640855
 20
-7.960607577648604
 30
0.0
 10
1.740267482097468
 20
-7.963897253277081
 30
0.0
 10
1.738364284816026
 20
-7.967584275900611
 30
0.0
 10
1.736723021635507
 20
-7.971698875533187
 30
0.0
 10
1.735296434691421
 20
-7.976206082097051
 30
0.0
 10
1.734070717636128
 20
-7.981109937951419
 30
0.0
 10
1.733155054774294
 20
-7.986441433721414
 30
0.0
 10
1.732473145184235
 20
-7.992168998659416
 30
0.0
 10
1.732064139288662
 20
-7.998304021144262
 30
0.0
 10
1.732024943230228
 20
-8.002521853381946
 30
0.0
 10
1.732004735821149
 20
-8.004696344003177
 30
0.0
  0
LINE
  5
12F
330
1F
100
AcDbEntity
  8
0
  6
Continuous
 62
     7
370
    25
100
AcDbLine
 10
1.5574203683
 20
-7.9918716478
 30
0.0
 11
1.5002552993
 21
-8.0358063734
 31
0.0
  0
LINE
  5
130
330
1F
100
AcDbEntity
  8
0
  6
Continuous
 62
     7
370
    25
100
AcDbLine
 10
0.1409623203
 20
-8.0411733995
 30
0.0
 11
0.1492000813
 21
-7.9679072521
 31
0.0
  0
LINE
  5
131
330
1F
100
AcDbEntity
  8
0
  6
Continuous
 62
     7
370
    25
100
AcDbLine
 10
0.1393709346
 20
-8.0550902231
 30
0.0
 11
0.1409623203
 21
-8.0411733995
 31
0.0
  0
LINE
  5
132
330
1F
100
AcDbEntity
  8
0
  6
Continuous
 62
     7
370
    25
100
AcDbLine
 10
0.1346591849
 20
-8.0420158978
 30
0.0
 11
0.1393709346
 21
-8.0550902231
 31
0.0
  0
LINE
  5
133
330
1F
100
AcDbEntity
  8
0
  6
Continuous
 62
     7
370
    25
100
AcDbLine
 10
0.104984523
 20
-7.9938686808
 30
0.0
 11
0.1181524592
 21
-7.9938686808
 31
0.0
  0
LINE
  5
134
330
1F
100
AcDbEntity
  8
0
  6
Continuous
 62
     7
370
    25
100
AcDbLine
 10
0.089975572
 20
-8.0426399706
 30
0.0
 11
0.104984523
 21
-7.9938686808
 31
0.0
  0
LINE
  5
135
330
1F
100
AcDbEntity
  8
0
  6
Continuous
 62
     7
370
    25
100
AcDbLine
 10
0.0854510442
 20
-8.0557454995
 30
0.0
 11
0.089975572
 21
-8.0426399706
 31
0.0
  0
LINE
  5
136
330
1F
100
AcDbEntity
  8
0
  6
Continuous
 62
     7
370
    25
100
AcDbLine
 10
0.0835476221
 20
-8.0406429376
 30
0.0
 11
0.0854510442
 21
-8.0557454995
 31
0.0
  0
LINE
  5
137
330
1F
100
AcDbEntity
  8
0
  6
Continuous
 62
     7
370
    25
100
AcDbLine
 10
0.073406439
 20
-7.9679072521
 30
0.0
 11
0.0835476221
 21
-8.0406429376
 31
0.0
  0
LINE
  5
138
330
1F
100
AcDbEntity
  8
0
  6
Continuous
 62
     7
370
    25
100
AcDbLine
 10
0.0554955495
 20
-7.9679072521
 30
0.0
 11
0.073406439
 21
-7.9679072521
 31
0.0
  0
LINE
  5
139
330
1F
100
AcDbEntity
  8
0
  6
Continuous
 62
     7
370
    25
100
AcDbLine
 10
0.0720646825
 20
-8.07375
 30
0.0
 11
0.0554955495
 21
-7.9679072521
 31
0.0
  0
LINE
  5
13A
330
1F
100
AcDbEntity
  8
0
  6
Continuous
 62
     7
370
    25
100
AcDbLine
 10
0.0936576016
 20
-8.07375
 30
0.0
 11
0.0720646825
 21
-8.07375
 31
0.0
  0
LINE
  5
13B
330
1F
100
AcDbEntity
  8
0
  6
Continuous
 62
     7
370
    25
100
AcDbLine
 10
0.1080112761
 20
-8.0290975907
 30
0.0
 11
0.0936576016
 21
-8.07375
 31
0.0
  0
LINE
  5
13C
330
1F
100
AcDbEntity
  8
0
  6
Continuous
 62
     7
370
    25
100
AcDbLine
 10
0.1114124729
 20
-8.0174586329
 30
0.0
 11
0.1080112761
 21
-8.0290975907
 31
0.0
  0
LINE
  5
13D
330
1F
100
AcDbEntity
  8
0
  6
Continuous
 62
     7
370
    25
100
AcDbLine
 10
0.1144704296
 20
-8.0284735179
 30
0.0
 11
0.1114124729
 21
-8.0174586329
 31
0.0
  0
LINE
  5
13E
330
1F
100
AcDbEntity
  8
0
  6
Continuous
 62
     7
370
    25
100
AcDbLine
 10
0.1296978061
 20
-8.07375
 30
0.0
 11
0.1144704296
 21
-8.0284735179
 31
0.0
  0
LINE
  5
13F
330
1F
100
AcDbEntity
  8
0
  6
Continuous
 62
     7
370
    25
100
AcDbLine
 10
0.151914798
 20
-8.07375
 30
0.0
 11
0.1296978061
 21
-8.07375
 31
0.0
  0
LINE
  5
140
330
1F
100
AcDbEntity
  8
0
  6
Continuous
 62
     7
370
    25
100
AcDbLine
 10
0.1673293963
 20
-7.9679072521
 30
0.0
 11
0.151914798
 21
-8.07375
 31
0.0
  0
LINE
  5
141
330
1F
100
AcDbEntity
  8
0
  6
Continuous
 62
     7
370
    25
100
AcDbLine
 10
0.1492000813
 20
-7.9679072521
 30
0.0
 11
0.1673293963
 21
-7.9679072521
 31
0.0
  0
LINE
  5
142
330
1F
100
AcDbEntity
  8
0
  6
Continuous
 62
     7
370
    25
100
AcDbLine
 10
0.4920032737
 20
-8.07375
 30
0.0
 11
0.4913792009
 21
-8.0536548556
 31
0.0
  0
LINE
  5
143
330
1F
100
AcDbEntity
  8
0
  6
Continuous
 62
     7
370
    25
100
AcDbLine
 10
0.5098205523
 20
-8.07375
 30
0.0
 11
0.4920032737
 21
-8.07375
 31
0.0
  0
LINE
  5
144
330
1F
100
AcDbEntity
  8
0
  6
Continuous
 62
     7
370
    25
100
AcDbLine
 10
0.5098205523
 20
-7.9239725265
 30
0.0
 11
0.5098205523
 21
-8.07375
 31
0.0
  0
LINE
  5
145
330
1F
100
AcDbEntity
  8
0
  6
Continuous
 62
     7
370
    25
100
AcDbLine
 10
0.4898502225
 20
-7.9239725265
 30
0.0
 11
0.5098205523
 21
-7.9239725265
 31
0.0
  0
LINE
  5
146
330
1F
100
AcDbEntity
  8
0
  6
Continuous
 62
     7
370
    25
100
AcDbLine
 10
0.4898502225
 20
-7.9685625285
 30
0.0
 11
0.4898502225
 21
-7.9239725265
 31
0.0
  0
LINE
  5
147
330
1F
100
AcDbEntity
  8
0
  6
Continuous
 62
     7
370
    25
100
AcDbLine
 10
0.7300870492
 20
-8.0411733995
 30
0.0
 11
0.7383248103
 21
-7.9679072521
 31
0.0
  0
LINE
  5
148
330
1F
100
AcDbEntity
  8
0
  6
Continuous
 62
     7
370
    25
100
AcDbLine
 10
0.7284956636
 20
-8.0550902231
 30
0.0
 11
0.7300870492
 21
-8.0411733995
 31
0.0
  0
LINE
  5
149
330
1F
100
AcDbEntity
  8
0
  6
Continuous
 62
     7
370
    25
100
AcDbLine
 10
0.7237839139
 20
-8.0420158978
 30
0.0
 11
0.7284956636
 21
-8.0550902231
 31
0.0
  0
LINE
  5
14A
330
1F
100
AcDbEntity
  8
0
  6
Continuous
 62
     7
370
    25
100
AcDbLine
 10
0.7072771882
 20
-7.9938686808
 30
0.0
 11
0.7237839139
 21
-8.0420158978
 31
0.0
  0
LINE
  5
14B
330
1F
100
AcDbEntity
  8
0
  6
Continuous
 62
     7
370
    25
100
AcDbLine
 10
0.679100301
 20
-8.0426399706
 30
0.0
 11
0.694109252
 21
-7.9938686808
 31
0.0
  0
LINE
  5
14C
330
1F
100
AcDbEntity
  8
0
  6
Continuous
 62
     7
370
    25
100
AcDbLine
 10
0.6745757731
 20
-8.0557454995
 30
0.0
 11
0.679100301
 21
-8.0426399706
 31
0.0
  0
LINE
  5
14D
330
1F
100
AcDbEntity
  8
0
  6
Continuous
 62
     7
370
    25
100
AcDbLine
 10
0.6726723511
 20
-8.0406429376
 30
0.0
 11
0.6745757731
 21
-8.0557454995
 31
0.0
  0
LINE
  5
14E
330
1F
100
AcDbEntity
  8
0
  6
Continuous
 62
     7
370
    25
100
AcDbLine
 10
0.662531168
 20
-7.9679072521
 30
0.0
 11
0.6726723511
 21
-8.0406429376
 31
0.0
  0
LINE
  5
14F
330
1F
100
AcDbEntity
  8
0
  6
Continuous
 62
     7
370
    25
100
AcDbLine
 10
0.6611894114
 20
-8.07375
 30
0.0
 11
0.6446202784
 21
-7.9679072521
 31
0.0
  0
LINE
  5
150
330
1F
100
AcDbEntity
  8
0
  6
Continuous
 62
     7
370
    25
100
AcDbLine
 10
0.6827823305
 20
-8.07375
 30
0.0
 11
0.6611894114
 21
-8.07375
 31
0.0
  0
LINE
  5
151
330
1F
100
AcDbEntity
  8
0
  6
Continuous
 62
     7
370
    25
100
AcDbLine
 10
0.6971360051
 20
-8.0290975907
 30
0.0
 11
0.6827823305
 21
-8.07375
 31
0.0
  0
LINE
  5
152
330
1F
100
AcDbEntity
  8
0
  6
Continuous
 62
     7
370
    25
100
AcDbLine
 10
0.7005372019
 20
-8.0174586329
 30
0.0
 11
0.6971360051
 21
-8.0290975907
 31
0.0
  0
LINE
  5
153
330
1F
100
AcDbEntity
  8
0
  6
Continuous
 62
     7
370
    25
100
AcDbLine
 10
0.7188225351
 20
-8.07375
 30
0.0
 11
0.7035951586
 21
-8.0284735179
 31
0.0
  0
LINE
  5
154
330
1F
100
AcDbEntity
  8
0
  6
Continuous
 62
     7
370
    25
100
AcDbLine
 10
0.9172152802
 20
-8.0557767032
 30
0.0
 11
0.9831173685
 21
-8.0557767032
 31
0.0
  0
LINE
  5
155
330
1F
100
AcDbEntity
  8
0
  6
Continuous
 62
     7
370
    25
100
AcDbLine
 10
1.1508681388
 20
-7.9519309882
 30
0.0
 11
1.1508681388
 21
-7.9898746149
 31
0.0
  0
LINE
  5
156
330
1F
100
AcDbEntity
  8
0
  6
Continuous
 62
     7
370
    25
100
AcDbLine
 10
1.2067850622
 20
-7.9519309882
 30
0.0
 11
1.1508681388
 21
-7.9519309882
 31
0.0
  0
LINE
  5
157
330
1F
100
AcDbEntity
  8
0
  6
Continuous
 62
     7
370
    25
100
AcDbLine
 10
1.2067850622
 20
-7.9359547244
 30
0.0
 11
1.2067850622
 21
-7.9519309882
 31
0.0
  0
LINE
  5
158
330
1F
100
AcDbEntity
  8
0
  6
Continuous
 62
     7
370
    25
100
AcDbLine
 10
1.1590434925
 20
-8.0058508787
 30
0.0
 11
1.1328948419
 21
-8.0058508787
 31
0.0
  0
LINE
  5
159
330
1F
100
AcDbEntity
  8
0
  6
Continuous
 62
     7
370
    25
100
AcDbLine
 10
1.4066131747
 20
-7.9359547244
 30
0.0
 11
1.424461657
 21
-7.9359547244
 31
0.0
  0
LINE
  5
15A
330
1F
100
AcDbEntity
  8
0
  6
Continuous
 62
     7
370
    25
100
AcDbLine
 10
1.3625536346
 20
-7.9579220872
 30
0.0
 11
1.4066131747
 21
-7.9359547244
 31
0.0
  0
LINE
  5
15B
330
1F
100
AcDbEntity
  8
0
  6
Continuous
 62
     7
370
    25
100
AcDbLine
 10
1.3693248245
 20
-7.973898351
 30
0.0
 11
1.3625536346
 21
-7.9579220872
 31
0.0
  0
LINE
  5
15C
330
1F
100
AcDbEntity
  8
0
  6
Continuous
 62
     7
370
    25
100
AcDbLine
 10
1.4024942942
 20
-7.9539280212
 30
0.0
 11
1.3693248245
 21
-7.973898351
 31
0.0
  0
LINE
  5
15D
330
1F
100
AcDbEntity
  8
0
  6
Continuous
 62
     7
370
    25
100
AcDbLine
 10
1.4544171517
 20
-8.0557767032
 30
0.0
 11
1.4544171517
 21
-8.07375
 31
0.0
  0
LINE
  5
15E
330
1F
100
AcDbEntity
  8
0
  6
Continuous
 62
     7
370
    25
100
AcDbLine
 10
8.21625
 20
-0.00125
 30
0.0
 11
0.03375
 21
-0.00125
 31
0.0
  0
LINE
  5
15F
330
1F
100
AcDbEntity
  8
0
  6
Continuous
 62
     7
370
    25
100
AcDbLine
 10
1.8909248759
 20
-7.973898351
 30
0.0
 11
1.8877733082
 21
-7.9239725265
 31
0.0
  0
LINE
  5
160
330
1F
100
AcDbEntity
  8
0
  6
Continuous
 62
     7
370
    25
100
AcDbLine
 10
1.2427316558
 20
-8.0957173628
 30
0.0
 11
1.3146248431
 21
-7.9239725265
 31
0.0
  0
LINE
  5
161
330
1F
100
AcDbEntity
  8
0
  6
Continuous
 62
     7
370
    25
100
AcDbLine
 10
1.2602056944
 20
-8.0957173628
 30
0.0
 11
1.2427316558
 21
-8.0957173628
 31
0.0
  0
LINE
  5
162
330
1F
100
AcDbEntity
  8
0
  6
Continuous
 62
     7
370
    25
100
AcDbLine
 10
0.3240964852
 20
-8.07375
 30
0.0
 11
0.3041261554
 21
-8.07375
 31
0.0
  0
LINE
  5
163
330
1F
100
AcDbEntity
  8
0
  6
Continuous
 62
     7
370
    25
100
AcDbLine
 10
0.3240964852
 20
-8.003573013
 30
0.0
 11
0.3240964852
 21
-8.07375
 31
0.0
  0
LINE
  5
164
330
1F
100
AcDbEntity
  8
0
  6
Continuous
 62
     7
370
    25
100
AcDbLine
 10
0.3700282438
 20
-8.07375
 30
0.0
 11
0.3700282438
 21
-8.0062253224
 31
0.0
  0
LINE
  5
165
330
1F
100
AcDbEntity
  8
0
  6
Continuous
 62
     7
370
    25
100
AcDbLine
 10
0.3899985735
 20
-8.07375
 30
0.0
 11
0.3700282438
 21
-8.07375
 31
0.0
  0
LINE
  5
166
330
1F
100
AcDbEntity
  8
0
  6
Continuous
 62
     7
370
    25
100
AcDbLine
 10
0.3219122304
 20
-7.9679072521
 30
0.0
 11
0.322723525
 21
-7.9849756433
 31
0.0
  0
LINE
  5
167
330
1F
100
AcDbEntity
  8
0
  6
Continuous
 62
     7
370
    25
100
AcDbLine
 10
0.3041261554
 20
-7.9679072521
 30
0.0
 11
0.3219122304
 21
-7.9679072521
 31
0.0
  0
LINE
  5
168
330
1F
100
AcDbEntity
  8
0
  6
Continuous
 62
     7
370
    25
100
AcDbLine
 10
0.3041261554
 20
-8.07375
 30
0.0
 11
0.3041261554
 21
-7.9679072521
 31
0.0
  0
LINE
  5
169
330
1F
100
AcDbEntity
  8
0
  6
Continuous
 62
     7
370
    25
100
AcDbLine
 10
0.1882982426
 20
-8.0577737362
 30
0.0
 11
0.2222478033
 21
-8.0577737362
 31
0.0
  0
LINE
  5
16A
330
1F
100
AcDbEntity
  8
0
  6
Continuous
 62
     7
370
    25
100
AcDbLine
 10
0.1882982426
 20
-8.07375
 30
0.0
 11
0.1882982426
 21
-8.0577737362
 31
0.0
  0
LINE
  5
16B
330
1F
100
AcDbEntity
  8
0
  6
Continuous
 62
     7
370
    25
100
AcDbLine
 10
0.2721736278
 20
-8.07375
 30
0.0
 11
0.1882982426
 21
-8.07375
 31
0.0
  0
LINE
  5
16C
330
1F
100
AcDbEntity
  8
0
  6
Continuous
 62
     7
370
    25
100
AcDbLine
 10
0.2721736278
 20
-8.0577737362
 30
0.0
 11
0.2721736278
 21
-8.07375
 31
0.0
  0
LINE
  5
16D
330
1F
100
AcDbEntity
  8
0
  6
Continuous
 62
     7
370
    25
100
AcDbLine
 10
0.2422181331
 20
-8.0577737362
 30
0.0
 11
0.2721736278
 21
-8.0577737362
 31
0.0
  0
LINE
  5
16E
330
1F
100
AcDbEntity
  8
0
  6
Continuous
 62
     7
370
    25
100
AcDbLine
 10
0.2422181331
 20
-7.9679072521
 30
0.0
 11
0.2422181331
 21
-8.0577737362
 31
0.0
  0
LINE
  5
16F
330
1F
100
AcDbEntity
  8
0
  6
Continuous
 62
     7
370
    25
100
AcDbLine
 10
0.1922923086
 20
-7.9679072521
 30
0.0
 11
0.2422181331
 21
-7.9679072521
 31
0.0
  0
LINE
  5
170
330
1F
100
AcDbEntity
  8
0
  6
Continuous
 62
     7
370
    25
100
AcDbLine
 10
0.1922923086
 20
-7.9838835159
 30
0.0
 11
0.1922923086
 21
-7.9679072521
 31
0.0
  0
LINE
  5
171
330
1F
100
AcDbEntity
  8
0
  6
Continuous
 62
     7
370
    25
100
AcDbLine
 10
0.2222478033
 20
-8.0577737362
 30
0.0
 11
0.2222478033
 21
-7.9838835159
 31
0.0
  0
LINE
  5
172
330
1F
100
AcDbEntity
  8
0
  6
Continuous
 62
     7
370
    25
100
AcDbLine
 10
0.741039527
 20
-8.07375
 30
0.0
 11
0.7188225351
 21
-8.07375
 31
0.0
  0
LINE
  5
173
330
1F
100
AcDbEntity
  8
0
  6
Continuous
 62
     7
370
    25
100
AcDbLine
 10
0.7564541253
 20
-7.9679072521
 30
0.0
 11
0.741039527
 21
-8.07375
 31
0.0
  0
LINE
  5
174
330
1F
100
AcDbEntity
  8
0
  6
Continuous
 62
     7
370
    25
100
AcDbLine
 10
0.7383248103
 20
-7.9679072521
 30
0.0
 11
0.7564541253
 21
-7.9679072521
 31
0.0
  0
LINE
  5
175
330
1F
100
AcDbEntity
  8
0
  6
Continuous
 62
     7
370
    25
100
AcDbLine
 10
1.4544171517
 20
-8.07375
 30
0.0
 11
1.3665477006
 21
-8.07375
 31
0.0
  0
LINE
  5
176
330
1F
100
AcDbEntity
  8
0
  6
Continuous
 62
     7
370
    25
100
AcDbLine
 10
0.7594496748
 20
-8.1017084617
 30
0.0
 11
0.8772746206
 21
-8.1017084617
 31
0.0
  0
LINE
  5
177
330
1F
100
AcDbEntity
  8
0
  6
Continuous
 62
     7
370
    25
100
AcDbLine
 10
0.7594496748
 20
-8.1176847256
 30
0.0
 11
0.7594496748
 21
-8.1017084617
 31
0.0
  0
LINE
  5
178
330
1F
100
AcDbEntity
  8
0
  6
Continuous
 62
     7
370
    25
100
AcDbLine
 10
0.8772746206
 20
-8.1176847256
 30
0.0
 11
0.7594496748
 21
-8.1176847256
 31
0.0
  0
LINE
  5
179
330
1F
100
AcDbEntity
  8
0
  6
Continuous
 62
     7
370
    25
100
AcDbLine
 10
0.3899985735
 20
-8.0046339367
 30
0.0
 11
0.3899985735
 21
-8.07375
 31
0.0
  0
LINE
  5
17A
330
1F
100
AcDbEntity
  8
0
  6
Continuous
 62
     7
370
    25
100
AcDbLine
 10
0.0025
 20
-0.0325
 30
0.0
 11
0.0025
 21
-8.0925
 31
0.0
  0
LINE
  5
17B
330
1F
100
AcDbEntity
  8
0
  6
Continuous
 62
     7
370
    25
100
AcDbLine
 10
0.1181524592
 20
-7.9938686808
 30
0.0
 11
0.1346591849
 21
-8.0420158978
 31
0.0
  0
LINE
  5
17C
330
1F
100
AcDbEntity
  8
0
  6
Continuous
 62
     7
370
    25
100
AcDbLine
 10
0.941522916
 20
-8.031500271
 30
0.0
 11
0.9172152802
 21
-8.0557767032
 31
0.0
  0
LINE
  5
17D
330
1F
100
AcDbEntity
  8
0
  6
Continuous
 62
     7
370
    25
100
AcDbLine
 10
0.03375
 20
-8.12375
 30
0.0
 11
8.21625
 21
-8.12375
 31
0.0
  0
LINE
  5
17E
330
1F
100
AcDbEntity
  8
0
  6
Continuous
 62
     7
370
    25
100
AcDbLine
 10
0.7035951586
 20
-8.0284735179
 30
0.0
 11
0.7005372019
 21
-8.0174586329
 31
0.0
  0
LINE
  5
17F
330
1F
100
AcDbEntity
  8
0
  6
Continuous
 62
     7
370
    25
100
AcDbLine
 10
0.9032048457
 20
-7.9639131861
 30
0.0
 11
0.8932508844
 21
-7.9518997846
 31
0.0
  0
LINE
  5
180
330
1F
100
AcDbEntity
  8
0
  6
Continuous
 62
     7
370
    25
100
AcDbLine
 10
0.694109252
 20
-7.9938686808
 30
0.0
 11
0.7072771882
 21
-7.9938686808
 31
0.0
  0
LINE
  5
181
330
1F
100
AcDbEntity
  8
0
  6
Continuous
 62
     7
370
    25
100
AcDbLine
 10
1.3665477006
 20
-8.07375
 30
0.0
 11
1.3665477006
 21
-8.0557767032
 31
0.0
  0
LINE
  5
182
330
1F
100
AcDbEntity
  8
0
  6
Continuous
 62
     7
370
    25
100
AcDbLine
 10
0.8932508844
 20
-8.0568064233
 30
0.0
 11
0.9279493324
 21
-8.0217335316
 31
0.0
  0
LINE
  5
183
330
1F
100
AcDbEntity
  8
0
  6
Continuous
 62
     7
370
    25
100
AcDbLine
 10
0.8932508844
 20
-8.07375
 30
0.0
 11
0.8932508844
 21
-8.0568064233
 31
0.0
  0
LINE
  5
184
330
1F
100
AcDbEntity
  8
0
  6
Continuous
 62
     7
370
    25
100
AcDbLine
 10
0.9831173685
 20
-8.07375
 30
0.0
 11
0.8932508844
 21
-8.07375
 31
0.0
  0
LINE
  5
185
330
1F
100
AcDbEntity
  8
0
  6
Continuous
 62
     7
370
    25
100
AcDbLine
 10
0.9831173685
 20
-8.0557767032
 30
0.0
 11
0.9831173685
 21
-8.07375
 31
0.0
  0
LINE
  5
186
330
1F
100
AcDbEntity
  8
0
  6
Continuous
 62
     7
370
    25
100
AcDbLine
 10
1.424461657
 20
-8.0557767032
 30
0.0
 11
1.4544171517
 21
-8.0557767032
 31
0.0
  0
LINE
  5
187
330
1F
100
AcDbEntity
  8
0
  6
Continuous
 62
     7
370
    25
100
AcDbLine
 10
1.8698000114
 20
-7.9239725265
 30
0.0
 11
1.8667732583
 21
-7.973898351
 31
0.0
  0
LINE
  5
188
330
1F
100
AcDbEntity
  8
0
  6
Continuous
 62
     7
370
    25
100
AcDbLine
 10
1.8458356157
 20
-7.9239725265
 30
0.0
 11
1.8698000114
 21
-7.9239725265
 31
0.0
  0
LINE
  5
189
330
1F
100
AcDbEntity
  8
0
  6
Continuous
 62
     7
370
    25
100
AcDbLine
 10
1.130897809
 20
-8.07375
 30
0.0
 11
1.130897809
 21
-8.0577737362
 31
0.0
  0
LINE
  5
18A
330
1F
100
AcDbEntity
  8
0
  6
Continuous
 62
     7
370
    25
100
AcDbLine
 10
1.4024942942
 20
-8.0557767032
 30
0.0
 11
1.4024942942
 21
-7.9539280212
 31
0.0
  0
LINE
  5
18B
330
1F
100
AcDbEntity
  8
0
  6
Continuous
 62
     7
370
    25
100
AcDbLine
 10
1.1508681388
 20
-7.9898746149
 30
0.0
 11
1.162819133
 21
-7.9898746149
 31
0.0
  0
LINE
  5
18C
330
1F
100
AcDbEntity
  8
0
  6
Continuous
 62
     7
370
    25
100
AcDbLine
 10
1.3665477006
 20
-8.0557767032
 30
0.0
 11
1.4024942942
 21
-8.0557767032
 31
0.0
  0
LINE
  5
18D
330
1F
100
AcDbEntity
  8
0
  6
Continuous
 62
     7
370
    25
100
AcDbLine
 10
1.8877733082
 20
-7.9239725265
 30
0.0
 11
1.911737704
 21
-7.9239725265
 31
0.0
  0
LINE
  5
18E
330
1F
100
AcDbEntity
  8
0
  6
Continuous
 62
     7
370
    25
100
AcDbLine
 10
1.1328948419
 20
-7.9359547244
 30
0.0
 11
1.2067850622
 21
-7.9359547244
 31
0.0
  0
LINE
  5
18F
330
1F
100
AcDbEntity
  8
0
  6
Continuous
 62
     7
370
    25
100
AcDbLine
 10
1.1328948419
 20
-8.0058508787
 30
0.0
 11
1.1328948419
 21
-7.9359547244
 31
0.0
  0
LINE
  5
190
330
1F
100
AcDbEntity
  8
0
  6
Continuous
 62
     7
370
    25
100
AcDbLine
 10
0.8772746206
 20
-8.1017084617
 30
0.0
 11
0.8772746206
 21
-8.1176847256
 31
0.0
  0
LINE
  5
191
330
1F
100
AcDbEntity
  8
0
  6
Continuous
 62
     7
370
    25
100
AcDbLine
 10
1.424461657
 20
-7.9359547244
 30
0.0
 11
1.424461657
 21
-8.0557767032
 31
0.0
  0
LINE
  5
192
330
1F
100
AcDbEntity
  8
0
  6
Continuous
 62
     7
370
    25
100
AcDbLine
 10
8.2475
 20
-8.0925
 30
0.0
 11
8.2475
 21
-0.0325
 31
0.0
  0
LINE
  5
193
330
1F
100
AcDbEntity
  8
0
  6
Continuous
 62
     7
370
    25
100
AcDbLine
 10
1.3321300853
 20
-7.9239725265
 30
0.0
 11
1.2602056944
 21
-8.0957173628
 31
0.0
  0
LINE
  5
194
330
1F
100
AcDbEntity
  8
0
  6
Continuous
 62
     7
370
    25
100
AcDbLine
 10
1.3146248431
 20
-7.9239725265
 30
0.0
 11
1.3321300853
 21
-7.9239725265
 31
0.0
  0
LINE
  5
195
330
1F
100
AcDbEntity
  8
0
  6
Continuous
 62
     7
370
    25
100
AcDbLine
 10
1.9087109509
 20
-7.973898351
 30
0.0
 11
1.8909248759
 21
-7.973898351
 31
0.0
  0
LINE
  5
196
330
1F
100
AcDbEntity
  8
0
  6
Continuous
 62
     7
370
    25
100
AcDbLine
 10
0.6446202784
 20
-7.9679072521
 30
0.0
 11
0.662531168
 21
-7.9679072521
 31
0.0
  0
LINE
  5
197
330
1F
100
AcDbEntity
  8
0
  6
Continuous
 62
     7
370
    25
100
AcDbLine
 10
1.911737704
 20
-7.9239725265
 30
0.0
 11
1.9087109509
 21
-7.973898351
 31
0.0
  0
LINE
  5
198
330
1F
100
AcDbEntity
  8
0
  6
Continuous
 62
     7
370
    25
100
AcDbLine
 10
1.8667732583
 20
-7.973898351
 30
0.0
 11
1.8489871833
 21
-7.973898351
 31
0.0
  0
LINE
  5
199
330
1F
100
AcDbEntity
  8
0
  6
Continuous
 62
     7
370
    25
100
AcDbLine
 10
1.8489871833
 20
-7.973898351
 30
0.0
 11
1.8458356157
 21
-7.9239725265
 31
0.0
  0
LINE
  5
19A
330
1F
100
AcDbEntity
  8
0
  6
Continuous
 62
     7
370
    25
100
AcDbLine
 10
0.2222478033
 20
-7.9838835159
 30
0.0
 11
0.1922923086
 21
-7.9838835159
 31
0.0
  0
LINE
  5
19B
330
1F
100
AcDbEntity
  8
0
  6
Continuous
 62
     7
370
    25
100
AcDbLine
 10
1.7930702599
 20
-7.9918716478
 30
0.0
 11
1.7359051909
 21
-8.0358063734
 31
0.0
  0
LINE
  5
19C
330
1F
100
AcDbEntity
  8
0
  6
Continuous
 62
     7
370
    25
100
AcDbLine
 10
1.6752453141
 20
-7.9918716478
 30
0.0
 11
1.6180802451
 21
-8.0358063734
 31
0.0
  0
LINE
  5
19D
330
1F
100
AcDbEntity
  8
0
  6
Continuous
 62
     7
370
    25
100
AcDbLine
 10
1.4967604916
 20
-8.0178330766
 30
0.0
 11
1.5539567642
 21
-7.973898351
 31
0.0
  0
LINE
  5
19E
330
1F
100
AcDbEntity
  8
0
  6
Continuous
 62
     7
370
    25
100
AcDbLine
 10
1.6145854374
 20
-8.0178330766
 30
0.0
 11
1.67178171
 21
-7.973898351
 31
0.0
  0
LINE
  5
19F
330
1F
100
AcDbEntity
  8
0
  6
Continuous
 62
     7
370
    25
100
AcDbLine
 10
0.4898502225
 20
-8.0351823006
 30
0.0
 11
0.4898502225
 21
-7.9861925853
 31
0.0
  0
LINE
  5
1A0
330
1F
100
AcDbEntity
  8
0
  6
Continuous
 62
     7
370
    25
100
AcDbLine
 10
1.7324103831
 20
-8.0178330766
 30
0.0
 11
1.7896066558
 21
-7.973898351
 31
0.0
  0
ARC
  5
1A1
330
1F
100
AcDbEntity
  8
0
  6
Continuous
 62
     7
370
    25
100
AcDbCircle
 10
8.21625
 20
-0.0325
 30
0.0
 40
0.0312499999999982
100
AcDbArc
 50
360.0
 51
90.0
  0
ARC
  5
1A2
330
1F
100
AcDbEntity
  8
0
  6
Continuous
 62
     7
370
    25
100
AcDbCircle
 10
8.21625
 20
-8.0925
 30
0.0
 40
0.0312499999999982
100
AcDbArc
 50
270.0
 51
0.0
  0
ARC
  5
1A3
330
1F
100
AcDbEntity
  8
0
  6
Continuous
 62
     7
370
    25
100
AcDbCircle
 10
0.03375
 20
-0.0325
 30
0.0
 40
0.0312499999999999
100
AcDbArc
 50
90.0
 51
180.0
  0
ARC
  5
1A4
330
1F
100
AcDbEntity
  8
0
  6
Continuous
 62
     7
370
    25
100
AcDbCircle
 10
0.03375
 20
-8.0925
 30
0.0
 40
0.0312500000000025
100
AcDbArc
 50
180.0
 51
270.0
  0
ENDSEC
  0
SECTION
  2
OBJECTS
  0
DICTIONARY
  5
C
330
0
100
AcDbDictionary
281
     1
  3
ACAD_GROUP
350
D
  3
ACAD_LAYOUT
350
1A
  3
ACAD_MLINESTYLE
350
17
  3
ACAD_PLOTSETTINGS
350
19
  3
ACAD_PLOTSTYLENAME
350
E
  3
ACAD_SCALELIST
350
47
  0
DICTIONARY
  5
D
102
{ACAD_REACTORS
330
C
102
}
330
C
100
AcDbDictionary
281
     1
  0
DICTIONARY
  5
1A
102
{ACAD_REACTORS
330
C
102
}
330
C
100
AcDbDictionary
281
     1
  3
Layout1
350
1E
  3
Layout2
350
26
  3
Model
350
22
  0
DICTIONARY
  5
17
102
{ACAD_REACTORS
330
C
102
}
330
C
100
AcDbDictionary
281
     1
  3
Standard
350
18
  0
DICTIONARY
  5
19
102
{ACAD_REACTORS
330
C
102
}
330
C
100
AcDbDictionary
281
     1
  0
ACDBDICTIONARYWDFLT
  5
E
102
{ACAD_REACTORS
330
C
102
}
330
C
100
AcDbDictionary
281
     1
  3
Normal
350
F
100
AcDbDictionaryWithDefault
340
F
  0
DICTIONARY
  5
47
102
{ACAD_REACTORS
330
C
102
}
330
C
100
AcDbDictionary
281
     1
  3
A0
350
48
  3
A1
350
49
  3
A2
350
4A
  3
A3
350
4B
  3
A4
350
4C
  3
A5
350
4D
  3
A6
350
4E
  3
A7
350
4F
  3
A8
350
50
  3
A9
350
51
  3
B0
350
52
  3
B1
350
53
  3
B2
350
54
  3
B3
350
55
  3
B4
350
56
  3
B5
350
57
  3
B6
350
58
  3
B7
350
59
  3
B8
350
5A
  3
B9
350
5B
  3
C0
350
5C
  3
C1
350
5D
  3
C2
350
5E
  3
C3
350
5F
  3
C4
350
60
  3
C5
350
61
  3
C6
350
62
  3
C7
350
63
  3
C8
350
64
  3
C9
350
65
  3
D0
350
66
  3
D1
350
67
  3
D2
350
68
  0
LAYOUT
  5
1E
102
{ACAD_REACTORS
330
1A
102
}
330
1A
100
AcDbPlotSettings
  1

  2
none_device
  4

  6

 40
0.0
 41
0.0
 42
0.0
 43
0.0
 44
0.0
 45
0.0
 46
0.0
 47
0.0
 48
0.0
 49
0.0
140
0.0
141
0.0
142
1.0
143
1.0
 70
   688
 72
     0
 73
     0
 74
     5
  7

 75
    16
147
1.0
148
0.0
149
0.0
100
AcDbLayout
  1
Layout1
 70
     1
 71
     1
 10
0.0
 20
0.0
 11
12.0
 21
9.0
 12
0.0
 22
0.0
 32
0.0
 14
1.0000000000E+20
 24
1.0000000000E+20
 34
1.0000000000E+20
 15
-1.0000000000E+20
 25
-1.0000000000E+20
 35
-1.0000000000E+20
146
0.0
 13
0.0
 23
0.0
 33
0.0
 16
1.0
 26
0.0
 36
0.0
 17
0.0
 27
1.0
 37
0.0
 76
     0
330
1B
  0
LAYOUT
  5
26
102
{ACAD_REACTORS
330
1A
102
}
330
1A
100
AcDbPlotSettings
  1

  2
none_device
  4

  6

 40
0.0
 41
0.0
 42
0.0
 43
0.0
 44
0.0
 45
0.0
 46
0.0
 47
0.0
 48
0.0
 49
0.0
140
0.0
141
0.0
142
1.0
143
1.0
 70
   688
 72
     0
 73
     0
 74
     5
  7

 75
    16
147
1.0
148
0.0
149
0.0
100
AcDbLayout
  1
Layout2
 70
     1
 71
     2
 10
0.0
 20
0.0
 11
0.0
 21
0.0
 12
0.0
 22
0.0
 32
0.0
 14
0.0
 24
0.0
 34
0.0
 15
0.0
 25
0.0
 35
0.0
146
0.0
 13
0.0
 23
0.0
 33
0.0
 16
1.0
 26
0.0
 36
0.0
 17
0.0
 27
1.0
 37
0.0
 76
     0
330
23
  0
LAYOUT
  5
22
102
{ACAD_REACTORS
330
1A
102
}
330
1A
100
AcDbPlotSettings
  1

  2
none_device
  4
ANSI_A_(11.00_x_8.50_Inches)
  6

 40
6.35
 41
19.05
 42
6.35000508
 43
19.05000254
 44
279.4
 45
215.9
 46
24.8019365182
 47
195.8033920818
 48
0.0
 49
0.0
140
0.0
141
0.0
142
1.0360110803
143
1.0
 70
  1696
 72
     0
 73
     0
 74
     0
  7

 75
     0
147
0.5913241897
148
-39.4088153714
149
0.0
100
AcDbLayout
  1
Model
 70
     1
 71
     0
 10
0.0
 20
0.0
 11
12.0
 21
9.0
 12
0.0
 22
0.0
 32
0.0
 14
0.0025
 24
-8.12375
 34
0.0
 15
8.2475
 25
-0.00125
 35
0.0
146
0.0
 13
0.0
 23
0.0
 33
0.0
 16
1.0
 26
0.0
 36
0.0
 17
0.0
 27
1.0
 37
0.0
 76
     0
330
1F
331
29
  0
MLINESTYLE
  5
18
102
{ACAD_REACTORS
330
17
102
}
330
17
100
AcDbMlineStyle
  2
Standard
 70
     0
  3

 62
   256
 51
90.0
 52
90.0
 71
     2
 49
0.5
 62
   256
  6
BYLAYER
 49
-0.5
 62
   256
  6
BYLAYER
  0
ACDBPLACEHOLDER
  5
F
102
{ACAD_REACTORS
330
E
102
}
330
E
  0
SCALE
  5
48
102
{ACAD_REACTORS
330
47
102
}
330
47
100
AcDbScale
 70
     0
300
1:1
140
1.0
141
1.0
290
     1
  0
SCALE
  5
49
102
{ACAD_REACTORS
330
47
102
}
330
47
100
AcDbScale
 70
     0
300
1:2
140
1.0
141
2.0
290
     0
  0
SCALE
  5
4A
102
{ACAD_REACTORS
330
47
102
}
330
47
100
AcDbScale
 70
     0
300
1:4
140
1.0
141
4.0
290
     0
  0
SCALE
  5
4B
102
{ACAD_REACTORS
330
47
102
}
330
47
100
AcDbScale
 70
     0
300
1:5
140
1.0
141
5.0
290
     0
  0
SCALE
  5
4C
102
{ACAD_REACTORS
330
47
102
}
330
47
100
AcDbScale
 70
     0
300
1:8
140
1.0
141
8.0
290
     0
  0
SCALE
  5
4D
102
{ACAD_REACTORS
330
47
102
}
330
47
100
AcDbScale
 70
     0
300
1:10
140
1.0
141
10.0
290
     0
  0
SCALE
  5
4E
102
{ACAD_REACTORS
330
47
102
}
330
47
100
AcDbScale
 70
     0
300
1:16
140
1.0
141
16.0
290
     0
  0
SCALE
  5
4F
102
{ACAD_REACTORS
330
47
102
}
330
47
100
AcDbScale
 70
     0
300
1:20
140
1.0
141
20.0
290
     0
  0
SCALE
  5
50
102
{ACAD_REACTORS
330
47
102
}
330
47
100
AcDbScale
 70
     0
300
1:30
140
1.0
141
30.0
290
     0
  0
SCALE
  5
51
102
{ACAD_REACTORS
330
47
102
}
330
47
100
AcDbScale
 70
     0
300
1:40
140
1.0
141
40.0
290
     0
  0
SCALE
  5
52
102
{ACAD_REACTORS
330
47
102
}
330
47
100
AcDbScale
 70
     0
300
1:50
140
1.0
141
50.0
290
     0
  0
SCALE
  5
53
102
{ACAD_REACTORS
330
47
102
}
330
47
100
AcDbScale
 70
     0
300
1:100
140
1.0
141
100.0
290
     0
  0
SCALE
  5
54
102
{ACAD_REACTORS
330
47
102
}
330
47
100
AcDbScale
 70
     0
300
2:1
140
2.0
141
1.0
290
     0
  0
SCALE
  5
55
102
{ACAD_REACTORS
330
47
102
}
330
47
100
AcDbScale
 70
     0
300
4:1
140
4.0
141
1.0
290
     0
  0
SCALE
  5
56
102
{ACAD_REACTORS
330
47
102
}
330
47
100
AcDbScale
 70
     0
300
8:1
140
8.0
141
1.0
290
     0
  0
SCALE
  5
57
102
{ACAD_REACTORS
330
47
102
}
330
47
100
AcDbScale
 70
     0
300
10:1
140
10.0
141
1.0
290
     0
  0
SCALE
  5
58
102
{ACAD_REACTORS
330
47
102
}
330
47
100
AcDbScale
 70
     0
300
100:1
140
100.0
141
1.0
290
     0
  0
SCALE
  5
59
102
{ACAD_REACTORS
330
47
102
}
330
47
100
AcDbScale
 70
     0
300
1/128" = 1'-0"
140
0.0078125
141
12.0
290
     0
  0
SCALE
  5
5A
102
{ACAD_REACTORS
330
47
102
}
330
47
100
AcDbScale
 70
     0
300
1/64" = 1'-0"
140
0.015625
141
12.0
290
     0
  0
SCALE
  5
5B
102
{ACAD_REACTORS
330
47
102
}
330
47
100
AcDbScale
 70
     0
300
1/32" = 1'-0"
140
0.03125
141
12.0
290
     0
  0
SCALE
  5
5C
102
{ACAD_REACTORS
330
47
102
}
330
47
100
AcDbScale
 70
     0
300
1/16" = 1'-0"
140
0.0625
141
12.0
290
     0
  0
SCALE
  5
5D
102
{ACAD_REACTORS
330
47
102
}
330
47
100
AcDbScale
 70
     0
300
3/32" = 1'-0"
140
0.09375
141
12.0
290
     0
  0
SCALE
  5
5E
102
{ACAD_REACTORS
330
47
102
}
330
47
100
AcDbScale
 70
     0
300
1/8" = 1'-0"
140
0.125
141
12.0
290
     0
  0
SCALE
  5
5F
102
{ACAD_REACTORS
330
47
102
}
330
47
100
AcDbScale
 70
     0
300
3/16" = 1'-0"
140
0.1875
141
12.0
290
     0
  0
SCALE
  5
60
102
{ACAD_REACTORS
330
47
102
}
330
47
100
AcDbScale
 70
     0
300
1/4" = 1'-0"
140
0.25
141
12.0
290
     0
  0
SCALE
  5
61
102
{ACAD_REACTORS
330
47
102
}
330
47
100
AcDbScale
 70
     0
300
3/8" = 1'-0"
140
0.375
141
12.0
290
     0
  0
SCALE
  5
62
102
{ACAD_REACTORS
330
47
102
}
330
47
100
AcDbScale
 70
     0
300
1/2" = 1'-0"
140
0.5
141
12.0
290
     0
  0
SCALE
  5
63
102
{ACAD_REACTORS
330
47
102
}
330
47
100
AcDbScale
 70
     0
300
3/4" = 1'-0"
140
0.75
141
12.0
290
     0
  0
SCALE
  5
64
102
{ACAD_REACTORS
330
47
102
}
330
47
100
AcDbScale
 70
     0
300
1" = 1'-0"
140
1.0
141
12.0
290
     0
  0
SCALE
  5
65
102
{ACAD_REACTORS
330
47
102
}
330
47
100
AcDbScale
 70
     0
300
1-1/2" = 1'-0"
140
1.5
141
12.0
290
     0
  0
SCALE
  5
66
102
{ACAD_REACTORS
330
47
102
}
330
47
100
AcDbScale
 70
     0
300
3" = 1'-0"
140
3.0
141
12.0
290
     0
  0
SCALE
  5
67
102
{ACAD_REACTORS
330
47
102
}
330
47
100
AcDbScale
 70
     0
300
6" = 1'-0"
140
6.0
141
12.0
290
     0
  0
SCALE
  5
68
102
{ACAD_REACTORS
330
47
102
}
330
47
100
AcDbScale
 70
     0
300
1'-0" = 1'-0"
140
12.0
141
12.0
290
     0
  0
ENDSEC
  0
EOF
