  0
SECTION
  2
HEADER
  9
$ACADVER
  1
AC1015
  9
$ACADMAINTVER
 70
     6
  9
$DWGCODEPAGE
  3
ANSI_1252
  9
$INSBASE
 10
0.0
 20
0.0
 30
0.0
  9
$EXTMIN
 10
0.005
 20
-8.1225
 30
0.0
  9
$EXTMAX
 10
8.245
 20
-0.0025
 30
0.0
  9
$LIMMIN
 10
0.0
 20
0.0
  9
$LIMMAX
 10
12.0
 20
9.0
  9
$ORTHOMODE
 70
     0
  9
$REGENMODE
 70
     1
  9
$FILLMODE
 70
     1
  9
$QTEXTMODE
 70
     0
  9
$MIRRTEXT
 70
     1
  9
$LTSCALE
 40
1.0
  9
$ATTMODE
 70
     1
  9
$TEXTSIZE
 40
0.1377952756
  9
$TRACEWID
 40
0.05
  9
$TEXTSTYLE
  7
Standard
  9
$CLAYER
  8
0
  9
$CELTYPE
  6
ByLayer
  9
$CECOLOR
 62
   256
  9
$CELTSCALE
 40
1.0
  9
$DISPSILH
 70
     0
  9
$DIMSCALE
 40
1.0
  9
$DIMASZ
 40
0.14
  9
$DIMEXO
 40
0.0393700787
  9
$DIMDLI
 40
0.38
  9
$DIMRND
 40
0.0
  9
$DIMDLE
 40
0.0
  9
$DIMEXE
 40
0.0393700787
  9
$DIMTP
 40
0.0
  9
$DIMTM
 40
0.0
  9
$DIMTXT
 40
0.1377952756
  9
$DIMCEN
 40
0.09
  9
$DIMTSZ
 40
0.0
  9
$DIMTOL
 70
     0
  9
$DIMLIM
 70
     0
  9
$DIMTIH
 70
     1
  9
$DIMTOH
 70
     1
  9
$DIMSE1
 70
     0
  9
$DIMSE2
 70
     0
  9
$DIMTAD
 70
     1
  9
$DIMZIN
 70
     1
  9
$DIMBLK
  1

  9
$DIMASO
 70
     1
  9
$DIMSHO
 70
     1
  9
$DIMPOST
  1

  9
$DIMAPOST
  1

  9
$DIMALT
 70
     0
  9
$DIMALTD
 70
     2
  9
$DIMALTF
 40
25.4
  9
$DIMLFAC
 40
1.0
  9
$DIMTOFL
 70
     0
  9
$DIMTVP
 40
0.0
  9
$DIMTIX
 70
     0
  9
$DIMSOXD
 70
     0
  9
$DIMSAH
 70
     0
  9
$DIMBLK1
  1

  9
$DIMBLK2
  1

  9
$DIMSTYLE
  2
Standard
  9
$DIMCLRD
 70
     0
  9
$DIMCLRE
 70
     0
  9
$DIMCLRT
 70
     0
  9
$DIMTFAC
 40
1.0
  9
$DIMGAP
 40
0.06
  9
$DIMJUST
 70
     0
  9
$DIMSD1
 70
     0
  9
$DIMSD2
 70
     0
  9
$DIMTOLJ
 70
     1
  9
$DIMTZIN
 70
     1
  9
$DIMALTZ
 70
     0
  9
$DIMALTTZ
 70
     0
  9
$DIMUPT
 70
     0
  9
$DIMDEC
 70
     2
  9
$DIMTDEC
 70
     2
  9
$DIMALTU
 70
     2
  9
$DIMALTTD
 70
     2
  9
$DIMTXSTY
  7
Standard
  9
$DIMAUNIT
 70
     0
  9
$DIMADEC
 70
     2
  9
$DIMALTRND
 40
0.0
  9
$DIMAZIN
 70
     0
  9
$DIMDSEP
 70
    46
  9
$DIMATFIT
 70
     3
  9
$DIMFRAC
 70
     0
  9
$DIMLDRBLK
  1

  9
$DIMLUNIT
 70
     2
  9
$DIMLWD
 70
    -2
  9
$DIMLWE
 70
    -2
  9
$DIMTMOVE
 70
     0
  9
$LUNITS
 70
     2
  9
$LUPREC
 70
     2
  9
$SKETCHINC
 40
0.1
  9
$FILLETRAD
 40
0.5
  9
$AUNITS
 70
     0
  9
$AUPREC
 70
     2
  9
$MENU
  1
.
  9
$ELEVATION
 40
0.0
  9
$PELEVATION
 40
0.0
  9
$THICKNESS
 40
0.0
  9
$LIMCHECK
 70
     0
  9
$CHAMFERA
 40
0.0
  9
$CHAMFERB
 40
0.0
  9
$CHAMFERC
 40
0.0
  9
$CHAMFERD
 40
0.0
  9
$SKPOLY
 70
     0
  9
$TDCREATE
 40
2458304.553995127
  9
$TDUCREATE
 40
2458304.720661794
  9
$TDUPDATE
 40
2458304.55402515
  9
$TDUUPDATE
 40
2458304.720691817
  9
$TDINDWG
 40
0.0000000116
  9
$TDUSRTIMER
 40
0.0000000116
  9
$USRTIMER
 70
     1
  9
$ANGBASE
 50
0.0
  9
$ANGDIR
 70
     0
  9
$PDMODE
 70
     0
  9
$PDSIZE
 40
-1.0
  9
$PLINEWID
 40
0.0
  9
$SPLFRAME
 70
     0
  9
$SPLINETYPE
 70
     6
  9
$SPLINESEGS
 70
     8
  9
$HANDSEED
  5
18D
  9
$SURFTAB1
 70
     6
  9
$SURFTAB2
 70
     6
  9
$SURFTYPE
 70
     6
  9
$SURFU
 70
     6
  9
$SURFV
 70
     6
  9
$UCSBASE
  2

  9
$UCSNAME
  2

  9
$UCSORG
 10
0.0
 20
0.0
 30
0.0
  9
$UCSXDIR
 10
1.0
 20
0.0
 30
0.0
  9
$UCSYDIR
 10
0.0
 20
1.0
 30
0.0
  9
$UCSORTHOREF
  2

  9
$UCSORTHOVIEW
 70
     0
  9
$UCSORGTOP
 10
0.0
 20
0.0
 30
0.0
  9
$UCSORGBOTTOM
 10
0.0
 20
0.0
 30
0.0
  9
$UCSORGLEFT
 10
0.0
 20
0.0
 30
0.0
  9
$UCSORGRIGHT
 10
0.0
 20
0.0
 30
0.0
  9
$UCSORGFRONT
 10
0.0
 20
0.0
 30
0.0
  9
$UCSORGBACK
 10
0.0
 20
0.0
 30
0.0
  9
$PUCSBASE
  2

  9
$PUCSNAME
  2

  9
$PUCSORG
 10
0.0
 20
0.0
 30
0.0
  9
$PUCSXDIR
 10
1.0
 20
0.0
 30
0.0
  9
$PUCSYDIR
 10
0.0
 20
1.0
 30
0.0
  9
$PUCSORTHOREF
  2

  9
$PUCSORTHOVIEW
 70
     0
  9
$PUCSORGTOP
 10
0.0
 20
0.0
 30
0.0
  9
$PUCSORGBOTTOM
 10
0.0
 20
0.0
 30
0.0
  9
$PUCSORGLEFT
 10
0.0
 20
0.0
 30
0.0
  9
$PUCSORGRIGHT
 10
0.0
 20
0.0
 30
0.0
  9
$PUCSORGFRONT
 10
0.0
 20
0.0
 30
0.0
  9
$PUCSORGBACK
 10
0.0
 20
0.0
 30
0.0
  9
$USERI1
 70
     0
  9
$USERI2
 70
     0
  9
$USERI3
 70
     0
  9
$USERI4
 70
     0
  9
$USERI5
 70
     0
  9
$USERR1
 40
0.0
  9
$USERR2
 40
0.0
  9
$USERR3
 40
0.0
  9
$USERR4
 40
0.0
  9
$USERR5
 40
0.0
  9
$WORLDVIEW
 70
     1
  9
$SHADEDGE
 70
     3
  9
$SHADEDIF
 70
    70
  9
$TILEMODE
 70
     1
  9
$MAXACTVP
 70
    64
  9
$PINSBASE
 10
0.0
 20
0.0
 30
0.0
  9
$PLIMCHECK
 70
     0
  9
$PEXTMIN
 10
1.0000000000E+20
 20
1.0000000000E+20
 30
1.0000000000E+20
  9
$PEXTMAX
 10
-1.0000000000E+20
 20
-1.0000000000E+20
 30
-1.0000000000E+20
  9
$PLIMMIN
 10
0.0
 20
0.0
  9
$PLIMMAX
 10
12.0
 20
9.0
  9
$UNITMODE
 70
     0
  9
$VISRETAIN
 70
     1
  9
$PLINEGEN
 70
     0
  9
$PSLTSCALE
 70
     1
  9
$TREEDEPTH
 70
  3020
  9
$CMLSTYLE
  2
Standard
  9
$CMLJUST
 70
     0
  9
$CMLSCALE
 40
1.0
  9
$PROXYGRAPHICS
 70
     1
  9
$MEASUREMENT
 70
     0
  9
$CELWEIGHT
370
    -1
  9
$ENDCAPS
280
     0
  9
$JOINSTYLE
280
     0
  9
$LWDISPLAY
290
     1
  9
$INSUNITS
 70
     1
  9
$HYPERLINKBASE
  1

  9
$STYLESHEET
  1

  9
$XEDIT
290
     1
  9
$CEPSNTYPE
380
     0
  9
$PSTYLEMODE
290
     1
  9
$FINGERPRINTGUID
  2
{620DFED1-4F4B-47F9-B60D-0950EDCB3B03}
  9
$VERSIONGUID
  2
{FAEB1C32-E019-11D5-929B-00C0DF256EC4}
  9
$EXTNAMES
290
     1
  9
$PSVPSCALE
 40
0.0
  9
$OLESTARTUP
290
     0
  0
ENDSEC
  0
SECTION
  2
CLASSES
  0
CLASS
  1
ACDBDICTIONARYWDFLT
  2
AcDbDictionaryWithDefault
  3
ObjectDBX Classes
 90
        0
280
     0
281
     0
  0
CLASS
  1
VISUALSTYLE
  2
AcDbVisualStyle
  3
ObjectDBX Classes
 90
     4095
280
     0
281
     0
  0
CLASS
  1
MATERIAL
  2
AcDbMaterial
  3
ObjectDBX Classes
 90
     1153
280
     0
281
     0
  0
CLASS
  1
SCALE
  2
AcDbScale
  3
ObjectDBX Classes
 90
     1153
280
     0
281
     0
  0
CLASS
  1
TABLESTYLE
  2
AcDbTableStyle
  3
ObjectDBX Classes
 90
     4095
280
     0
281
     0
  0
CLASS
  1
MLEADERSTYLE
  2
AcDbMLeaderStyle
  3
ACDB_MLEADERSTYLE_CLASS
 90
     4095
280
     0
281
     0
  0
CLASS
  1
SUN
  2
AcDbSun
  3
SCENEOE
 90
     1153
280
     0
281
     0
  0
CLASS
  1
ACDBPLACEHOLDER
  2
AcDbPlaceHolder
  3
ObjectDBX Classes
 90
        0
280
     0
281
     0
  0
CLASS
  1
LAYOUT
  2
AcDbLayout
  3
ObjectDBX Classes
 90
        0
280
     0
281
     0
  0
ENDSEC
  0
SECTION
  2
TABLES
  0
TABLE
  2
VPORT
  5
8
330
0
100
AcDbSymbolTable
 70
     1
  0
VPORT
  5
29
330
8
100
AcDbSymbolTableRecord
100
AcDbViewportTableRecord
  2
*Active
 70
     0
 10
0.0
 20
0.0
 11
1.0
 21
1.0
 12
4.125
 22
-4.0625
 13
0.0
 23
0.0
 14
0.5
 24
0.5
 15
0.5
 25
0.5
 16
0.0
 26
0.0
 36
1.0
 17
0.0
 27
0.0
 37
0.0
 40
8.2824
 41
1.0147783251
 42
50.0
 43
0.0
 44
0.0
 50
0.0
 51
0.0
 71
     0
 72
   100
 73
     1
 74
     3
 75
     0
 76
     0
 77
     0
 78
     0
281
     0
 65
     1
110
0.0
120
0.0
130
0.0
111
1.0
121
0.0
131
0.0
112
0.0
122
1.0
132
0.0
 79
     0
146
0.0
  0
ENDTAB
  0
TABLE
  2
LTYPE
  5
5
330
0
100
AcDbSymbolTable
 70
     6
  0
LTYPE
  5
14
330
5
100
AcDbSymbolTableRecord
100
AcDbLinetypeTableRecord
  2
ByBlock
 70
     0
  3

 72
    65
 73
     0
 40
0.0
  0
LTYPE
  5
15
330
5
100
AcDbSymbolTableRecord
100
AcDbLinetypeTableRecord
  2
ByLayer
 70
     0
  3

 72
    65
 73
     0
 40
0.0
  0
LTYPE
  5
16
330
5
100
AcDbSymbolTableRecord
100
AcDbLinetypeTableRecord
  2
Continuous
 70
     0
  3
Solid line
 72
    65
 73
     0
 40
0.0
  0
LTYPE
  5
6E
330
5
100
AcDbSymbolTableRecord
100
AcDbLinetypeTableRecord
  2
HIDDEN
 70
     0
  3
Hidden __ __ __ __ __ __ __ __ __ __ __ __ __ __
 72
    65
 73
     2
 40
0.075
 49
0.05
 74
     0
 49
-0.025
 74
     0
  0
LTYPE
  5
6F
330
5
100
AcDbSymbolTableRecord
100
AcDbLinetypeTableRecord
  2
PHANTOM
 70
     0
  3
Phantom ______  __  __  ______  __  __  ______
 72
    65
 73
     6
 40
0.5
 49
0.25
 74
     0
 49
-0.05
 74
     0
 49
0.05
 74
     0
 49
-0.05
 74
     0
 49
0.05
 74
     0
 49
-0.05
 74
     0
  0
LTYPE
  5
70
330
5
100
AcDbSymbolTableRecord
100
AcDbLinetypeTableRecord
  2
CENTER
 70
     0
  3
Center ____ _ ____ _ ____ _ ____ _ ____ _ ____
 72
    65
 73
     4
 40
0.4
 49
0.25
 74
     0
 49
-0.05
 74
     0
 49
0.05
 74
     0
 49
-0.05
 74
     0
  0
LTYPE
  5
71
330
5
100
AcDbSymbolTableRecord
100
AcDbLinetypeTableRecord
  2
CENTERX2
 70
     0
  3
Center (2x) ________  __  ________  __  _____
 72
    65
 73
     4
 40
0.8
 49
0.5
 74
     0
 49
-0.1
 74
     0
 49
0.1
 74
     0
 49
-0.1
 74
     0
  0
LTYPE
  5
72
330
5
100
AcDbSymbolTableRecord
100
AcDbLinetypeTableRecord
  2
DOT2
 70
     0
  3
Dot (.5x) ........................................
 72
    65
 73
     2
 40
0.025
 49
0.0
 74
     0
 49
-0.025
 74
     0
  0
ENDTAB
  0
TABLE
  2
LAYER
  5
2
330
0
100
AcDbSymbolTable
 70
     1
  0
LAYER
  5
10
330
2
100
AcDbSymbolTableRecord
100
AcDbLayerTableRecord
  2
0
 70
     0
 62
     7
  6
Continuous
370
    -3
390
F
  0
ENDTAB
  0
TABLE
  2
STYLE
  5
3
330
0
100
AcDbSymbolTable
 70
     1
  0
STYLE
  5
11
330
3
100
AcDbSymbolTableRecord
100
AcDbTextStyleTableRecord
  2
Standard
 70
     0
 40
0.0
 41
1.0
 50
0.0
 71
     0
 42
0.1377952756
  3
txt
  4

  0
ENDTAB
  0
TABLE
  2
VIEW
  5
6
330
0
100
AcDbSymbolTable
 70
     0
  0
ENDTAB
  0
TABLE
  2
UCS
  5
7
330
0
100
AcDbSymbolTable
 70
     0
  0
ENDTAB
  0
TABLE
  2
APPID
  5
9
330
0
100
AcDbSymbolTable
 70
     1
  0
APPID
  5
12
330
9
100
AcDbSymbolTableRecord
100
AcDbRegAppTableRecord
  2
ACAD
 70
     0
  0
ENDTAB
  0
TABLE
  2
DIMSTYLE
  5
A
330
0
100
AcDbSymbolTable
 70
     1
100
AcDbDimStyleTable
  0
DIMSTYLE
105
27
330
A
100
AcDbSymbolTableRecord
100
AcDbDimStyleTableRecord
  2
Standard
 70
     0
178
     0
340
11
  0
ENDTAB
  0
TABLE
  2
BLOCK_RECORD
  5
1
330
0
100
AcDbSymbolTable
 70
     1
  0
BLOCK_RECORD
  5
1F
330
1
100
AcDbSymbolTableRecord
100
AcDbBlockTableRecord
  2
*Model_Space
340
22
  0
BLOCK_RECORD
  5
1B
330
1
100
AcDbSymbolTableRecord
100
AcDbBlockTableRecord
  2
*Paper_Space
340
1E
  0
BLOCK_RECORD
  5
23
330
1
100
AcDbSymbolTableRecord
100
AcDbBlockTableRecord
  2
*Paper_Space0
340
26
  0
ENDTAB
  0
ENDSEC
  0
SECTION
  2
BLOCKS
  0
BLOCK
  5
20
330
1F
100
AcDbEntity
  8
0
100
AcDbBlockBegin
  2
*Model_Space
 70
     0
 10
0.0
 20
0.0
 30
0.0
  3
*Model_Space
  1

  0
ENDBLK
  5
21
330
1F
100
AcDbEntity
  8
0
100
AcDbBlockEnd
  0
BLOCK
  5
1C
330
1B
100
AcDbEntity
 67
     1
  8
0
100
AcDbBlockBegin
  2
*Paper_Space
 70
     0
 10
0.0
 20
0.0
 30
0.0
  3
*Paper_Space
  1

  0
ENDBLK
  5
1D
330
1B
100
AcDbEntity
 67
     1
  8
0
100
AcDbBlockEnd
  0
BLOCK
  5
24
330
23
100
AcDbEntity
  8
0
100
AcDbBlockBegin
  2
*Paper_Space0
 70
     0
 10
0.0
 20
0.0
 30
0.0
  3
*Paper_Space0
  1

  0
ENDBLK
  5
25
330
23
100
AcDbEntity
  8
0
100
AcDbBlockEnd
  0
ENDSEC
  0
SECTION
  2
ENTITIES
  0
SPLINE
  5
74
330
1F
100
AcDbEntity
  8
0
  6
Continuous
 62
     7
370
    25
100
AcDbSpline
210
0.0
220
0.0
230
1.0
 70
     8
 71
     3
 72
    11
 73
     7
 74
     0
 42
0.000000001
 43
0.00000001
 40
0.0
 40
0.0
 40
0.0
 40
0.0
 40
0.2539187888215194
 40
0.5082690783223818
 40
0.7561564653974533
 40
1.0
 40
1.0
 40
1.0
 40
1.0
 10
1.56076286659828
 20
-8.004725693255722
 30
0.0
 10
1.560755475777329
 20
-8.003529036006347
 30
0.0
 10
1.560740681575727
 20
-8.001133687950261
 30
0.0
 10
1.560478834259543
 20
-7.997579365201493
 30
0.0
 10
1.560251970605423
 20
-7.994071646816158
 30
0.0
 10
1.56003029474249
 20
-7.991765325324045
 30
0.0
 10
1.559920368310022
 20
-7.990621647837487
 30
0.0
  0
SPLINE
  5
75
330
1F
100
AcDbEntity
  8
0
  6
Continuous
 62
     7
370
    25
100
AcDbSpline
210
0.0
220
0.0
230
1.0
 70
     8
 71
     3
 72
    17
 73
    13
 74
     0
 42
0.000000001
 43
0.00000001
 40
0.0
 40
0.0
 40
0.0
 40
0.0
 40
0.1369635289454066
 40
0.2671950928647384
 40
0.3919768706084532
 40
0.5111291310158633
 40
0.6280858786100619
 40
0.7447240499558696
 40
0.8047561791511112
 40
0.8670450387006061
 40
0.9321351746682024
 40
1.0
 40
1.0
 40
1.0
 40
1.0
 10
1.502755299269739
 20
-8.034556373388098
 30
0.0
 10
1.503315085092854
 20
-8.036253919354543
 30
0.0
 10
1.504407142417479
 20
-8.039565574330426
 30
0.0
 10
1.506563324809182
 20
-8.044213597613046
 30
0.0
 10
1.509148427599063
 20
-8.048376328333822
 30
0.0
 10
1.512324474076205
 20
-8.051879264609711
 30
0.0
 10
1.515925336630283
 20
-8.054783460263085
 30
0.0
 10
1.519365246900799
 20
-8.056526166187542
 30
0.0
 10
1.522304103103665
 20
-8.057572134293467
 30
0.0
 10
1.5246880571683
 20
-8.058138002785705
 30
0.0
 10
1.527221843563489
 20
-8.058435058266454
 30
0.0
 10
1.528955262093673
 20
-8.05849180410043
 30
0.0
 10
1.529840059055202
 20
-8.058520769142977
 30
0.0
  0
SPLINE
  5
76
330
1F
100
AcDbEntity
  8
0
  6
Continuous
 62
     7
370
    25
100
AcDbSpline
210
0.0
220
0.0
230
1.0
 70
     8
 71
     3
 72
    23
 73
    19
 74
     0
 42
0.000000001
 43
0.00000001
 40
0.0
 40
0.0
 40
0.0
 40
0.0
 40
0.0497703177215132
 40
0.0981213906708493
 40
0.1458143641531145
 40
0.1936801658877644
 40
0.242657609456862
 40
0.2925036577654566
 40
0.3447131667477428
 40
0.4000673873688875
 40
0.458847951283808
 40
0.5215784588691902
 40
0.5889781242506329
 40
0.6610400881690421
 40
0.7377361484837155
 40
0.8196189073590036
 40
0.9069643866908125
 40
1.0
 40
1.0
 40
1.0
 40
1.0
 10
1.529840059055201
 20
-8.058520769142975
 30
0.0
 10
1.530987836315574
 20
-8.058481341186429
 30
0.0
 10
1.53325066094929
 20
-8.058403609596501
 30
0.0
 10
1.536550217327319
 20
-8.05770968310231
 30
0.0
 10
1.539710501425686
 20
-8.056673139089119
 30
0.0
 10
1.542656835166373
 20
-8.055096279031051
 30
0.0
 10
1.545449721756507
 20
-8.053178211996144
 30
0.0
 10
1.547991106283504
 20
-8.050786276241347
 30
0.0
 10
1.550352911577783
 20
-8.048025414318282
 30
0.0
 10
1.552464851939844
 20
-8.044817553698477
 30
0.0
 10
1.554366055644185
 20
-8.041208801613841
 30
0.0
 10
1.556057341548541
 20
-8.037193233035357
 30
0.0
 10
1.557479506082253
 20
-8.032752312412311
 30
0.0
 10
1.558642620013585
 20
-8.027908157210796
 30
0.0
 10
1.559625511293051
 20
-8.022683934932534
 30
0.0
 10
1.560292432112412
 20
-8.017055069920826
 30
0.0
 10
1.560704375330762
 20
-8.011024689644668
 30
0.0
 10
1.560742963750984
 20
-8.006869055309044
 30
0.0
 10
1.56076286659828
 20
-8.004725693255722
 30
0.0
  0
SPLINE
  5
78
330
1F
100
AcDbEntity
  8
0
  6
Continuous
 62
     7
370
    25
100
AcDbSpline
210
0.0
220
0.0
230
1.0
 70
     8
 71
     3
 72
    17
 73
    13
 74
     0
 42
0.000000001
 43
0.00000001
 40
0.0
 40
0.0
 40
0.0
 40
0.0
 40
0.1369635289454066
 40
0.2671950928647384
 40
0.3919768706084532
 40
0.5111291310158633
 40
0.6280858786100619
 40
0.7447240499558696
 40
0.8047561791511112
 40
0.8670450387006061
 40
0.9321351746682024
 40
1.0
 40
1.0
 40
1.0
 40
1.0
 10
1.384930353474921
 20
-8.034556373388098
 30
0.0
 10
1.385490139298036
 20
-8.036253919354545
 30
0.0
 10
1.386582196622661
 20
-8.039565574330423
 30
0.0
 10
1.388738379014363
 20
-8.04421359761305
 30
0.0
 10
1.391323481804245
 20
-8.04837632833382
 30
0.0
 10
1.394499528281386
 20
-8.051879264609713
 30
0.0
 10
1.398100390835464
 20
-8.054783460263085
 30
0.0
 10
1.40154030110598
 20
-8.056526166187544
 30
0.0
 10
1.404479157308846
 20
-8.05757213429347
 30
0.0
 10
1.406863111373481
 20
-8.058138002785707
 30
0.0
 10
1.409396897768669
 20
-8.058435058266456
 30
0.0
 10
1.411130316298854
 20
-8.05849180410043
 30
0.0
 10
1.412015113260383
 20
-8.058520769142977
 30
0.0
  0
SPLINE
  5
79
330
1F
100
AcDbEntity
  8
0
  6
Continuous
 62
     7
370
    25
100
AcDbSpline
210
0.0
220
0.0
230
1.0
 70
     8
 71
     3
 72
    11
 73
     7
 74
     0
 42
0.000000001
 43
0.00000001
 40
0.0
 40
0.0
 40
0.0
 40
0.0
 40
0.2539187888215199
 40
0.5082690783223827
 40
0.7561564653974546
 40
1.0
 40
1.0
 40
1.0
 40
1.0
 10
1.442937920803461
 20
-8.004725693255722
 30
0.0
 10
1.442930529982511
 20
-8.003529036006347
 30
0.0
 10
1.442915735780908
 20
-8.001133687950261
 30
0.0
 10
1.442653888464724
 20
-7.997579365201493
 30
0.0
 10
1.442427024810605
 20
-7.994071646816161
 30
0.0
 10
1.442205348947671
 20
-7.991765325324043
 30
0.0
 10
1.442095422515203
 20
-7.990621647837487
 30
0.0
  0
SPLINE
  5
7A
330
1F
100
AcDbEntity
  8
0
  6
Continuous
 62
     7
370
    25
100
AcDbSpline
210
0.0
220
0.0
230
1.0
 70
     8
 71
     3
 72
    23
 73
    19
 74
     0
 42
0.000000001
 43
0.00000001
 40
0.0
 40
0.0
 40
0.0
 40
0.0
 40
0.0497703177215132
 40
0.0981213906708493
 40
0.1458143641531145
 40
0.1936801658877679
 40
0.2426576094568622
 40
0.2925036577654569
 40
0.344713166747743
 40
0.4000673873688878
 40
0.4588479512838081
 40
0.5215784588691904
 40
0.588978124250633
 40
0.6610400881690423
 40
0.7377361484837156
 40
0.8196189073590037
 40
0.9069643866908126
 40
1.0
 40
1.0
 40
1.0
 40
1.0
 10
1.412015113260383
 20
-8.058520769142977
 30
0.0
 10
1.413162890520755
 20
-8.058481341186429
 30
0.0
 10
1.41542571515447
 20
-8.058403609596501
 30
0.0
 10
1.418725271532499
 20
-8.057709683102306
 30
0.0
 10
1.421885555630868
 20
-8.056673139089122
 30
0.0
 10
1.424831889371554
 20
-8.055096279031053
 30
0.0
 10
1.427624775961688
 20
-8.053178211996142
 30
0.0
 10
1.430166160488684
 20
-8.050786276241345
 30
0.0
 10
1.432527965782964
 20
-8.048025414318285
 30
0.0
 10
1.434639906145026
 20
-8.044817553698477
 30
0.0
 10
1.436541109849367
 20
-8.041208801613841
 30
0.0
 10
1.438232395753723
 20
-8.037193233035358
 30
0.0
 10
1.439654560287434
 20
-8.032752312412308
 30
0.0
 10
1.440817674218766
 20
-8.027908157210797
 30
0.0
 10
1.441800565498232
 20
-8.022683934932534
 30
0.0
 10
1.442467486317593
 20
-8.01705506992083
 30
0.0
 10
1.442879429535943
 20
-8.011024689644664
 30
0.0
 10
1.442918017956165
 20
-8.006869055309046
 30
0.0
 10
1.442937920803462
 20
-8.004725693255724
 30
0.0
  0
SPLINE
  5
D0
330
1F
100
AcDbEntity
  8
0
  6
Continuous
 62
     7
370
    25
100
AcDbSpline
210
0.0
220
0.0
230
1.0
 70
     8
 71
     3
 72
    11
 73
     7
 74
     0
 42
0.000000001
 43
0.00000001
 40
0.0
 40
0.0
 40
0.0
 40
0.0
 40
0.2205694034808595
 40
0.4688718329297377
 40
0.7334646236784891
 40
0.9999999999999999
 40
0.9999999999999999
 40
0.9999999999999999
 40
0.9999999999999999
 10
0.8977479173799765
 20
-8.056523736163408
 30
0.0
 10
0.8997622844260668
 20
-8.05685367103159
 30
0.0
 10
0.9040442925114515
 20
-8.057555024727755
 30
0.0
 10
0.9108162655571049
 20
-8.058052034628792
 30
0.0
 10
0.9180150054792612
 20
-8.058453850469741
 30
0.0
 10
0.9229285732107989
 20
-8.058498408595225
 30
0.0
 10
0.925394342690943
 20
-8.05852076914298
 30
0.0
  0
SPLINE
  5
E4
330
1F
100
AcDbEntity
  8
0
  6
Continuous
 62
     7
370
    25
100
AcDbSpline
210
0.0
220
0.0
230
1.0
 70
     8
 71
     3
 72
    11
 73
     7
 74
     0
 42
0.000000001
 43
0.00000001
 40
0.0
 40
0.0
 40
0.0
 40
0.0
 40
0.2529718016997031
 40
0.502242667010101
 40
0.7524256417325339
 40
1.0
 40
1.0
 40
1.0
 40
1.0
 10
0.472598318213023
 20
-7.964660219103044
 30
0.0
 10
0.4742843645245364
 20
-7.964690410157132
 30
0.0
 10
0.4776317905637519
 20
-7.964750350575092
 30
0.0
 10
0.4826280788863408
 20
-7.965226613793414
 30
0.0
 10
0.4875444795573073
 20
-7.966049265499529
 30
0.0
 10
0.4907539148080771
 20
-7.966892914634282
 30
0.0
 10
0.4923502225266144
 20
-7.96731252852904
 30
0.0
  0
SPLINE
  5
E5
330
1F
100
AcDbEntity
  8
0
  6
Continuous
 62
     7
370
    25
100
AcDbSpline
210
0.0
220
0.0
230
1.0
 70
     8
 71
     3
 72
    15
 73
    11
 74
     0
 42
0.000000001
 43
0.00000001
 40
0.0
 40
0.0
 40
0.0
 40
0.0
 40
0.1485943343261461
 40
0.2864230146477326
 40
0.4158951179164241
 40
0.5371702906684092
 40
0.6541148754728622
 40
0.7690587667243277
 40
0.8830617526821966
 40
1.0
 40
1.0
 40
1.0
 40
1.0
 10
0.493879200901601
 20
-8.052404855643042
 30
0.0
 10
0.4925924080941663
 20
-8.05418957190653
 30
0.0
 10
0.4901120505704166
 20
-8.05762970180649
 30
0.0
 10
0.4859575991148892
 20
-8.062189323895362
 30
0.0
 10
0.4816568661277064
 20
-8.06602218777418
 30
0.0
 10
0.4771759416715429
 20
-8.069135356086285
 30
0.0
 10
0.4725132536234617
 20
-8.071528200224128
 30
0.0
 10
0.4676853606944629
 20
-8.07326956894015
 30
0.0
 10
0.4626460488439092
 20
-8.074297479405368
 30
0.0
 10
0.4592270058217782
 20
-8.074429953871675
 30
0.0
 10
0.4574957563050018
 20
-8.074497032979574
 30
0.0
  0
SPLINE
  5
E6
330
1F
100
AcDbEntity
  8
0
  6
Continuous
 62
     7
370
    25
100
AcDbSpline
210
0.0
220
0.0
230
1.0
 70
     8
 71
     3
 72
    15
 73
    11
 74
     0
 42
0.000000001
 43
0.00000001
 40
0.0
 40
0.0
 40
0.0
 40
0.0
 40
0.1205665457744871
 40
0.2495365503988436
 40
0.3821068069872894
 40
0.5148245160398599
 40
0.645275466559809
 40
0.7734740670754902
 40
0.8925188579878193
 40
1.0
 40
1.0
 40
1.0
 40
1.0
 10
0.9240525861577924
 20
-8.074497032979567
 30
0.0
 10
0.922991396372829
 20
-8.074496282158483
 30
0.0
 10
0.9207950521335786
 20
-8.07449472818427
 30
0.0
 10
0.917437099827786
 20
-8.074302445765932
 30
0.0
 10
0.9139716145037512
 20
-8.074138477440595
 30
0.0
 10
0.9104984865090314
 20
-8.07387861789989
 30
0.0
 10
0.9070661223373183
 20
-8.073597249678143
 30
0.0
 10
0.9037550119908567
 20
-8.073305602243266
 30
0.0
 10
0.900655116441198
 20
-8.072933272895272
 30
0.0
 10
0.8986834337166171
 20
-8.072639424189124
 30
0.0
 10
0.8977479173799765
 20
-8.072499999999993
 30
0.0
  0
SPLINE
  5
E7
330
1F
100
AcDbEntity
  8
0
  6
Continuous
 62
     7
370
    25
100
AcDbSpline
210
0.0
220
0.0
230
1.0
 70
     8
 71
     3
 72
    17
 73
    13
 74
     0
 42
0.000000001
 43
0.00000001
 40
0.0
 40
0.0
 40
0.0
 40
0.0
 40
0.0854410729132497
 40
0.1658290848491287
 40
0.2413189533741657
 40
0.3120566751403804
 40
0.4430777516884071
 40
0.5626275646785838
 40
0.6738912042463531
 40
0.7819923861304798
 40
0.8900612877624986
 40
1.0
 40
1.0
 40
1.0
 40
1.0
 10
0.3252235250485825
 20
-7.98372564332991
 30
0.0
 10
0.3259741131539198
 20
-7.98283379711785
 30
0.0
 10
0.3274308989170518
 20
-7.981102849271232
 30
0.0
 10
0.3296939341572764
 20
-7.978711263899411
 30
0.0
 10
0.3318638263643835
 20
-7.976508757662252
 30
0.0
 10
0.3346820130540085
 20
-7.973983656386656
 30
0.0
 10
0.33815685369925
 20
-7.971304371815053
 30
0.0
 10
0.3423242335466401
 20
-7.968639295023629
 30
0.0
 10
0.3465531355295215
 20
-7.966729914999077
 30
0.0
 10
0.3508512901490696
 20
-7.965472224266338
 30
0.0
 10
0.3552599627711363
 20
-7.964780792174471
 30
0.0
 10
0.3582346506274614
 20
-7.964700639278997
 30
0.0
 10
0.3597347512268316
 20
-7.964660219103047
 30
0.0
  0
SPLINE
  5
E8
330
1F
100
AcDbEntity
  8
0
  6
Continuous
 62
     7
370
    25
100
AcDbSpline
210
0.0
220
0.0
230
1.0
 70
     8
 71
     3
 72
    23
 73
    19
 74
     0
 42
0.000000001
 43
0.00000001
 40
0.0
 40
0.0
 40
0.0
 40
0.0
 40
0.067489850736879
 40
0.1316503276119227
 40
0.1930698715452516
 40
0.2525212601990556
 40
0.3105163372389531
 40
0.3669245519811196
 40
0.4225370314641583
 40
0.4782311252696424
 40
0.5347198046749998
 40
0.592511385287721
 40
0.6524940089883831
 40
0.7153300412997131
 40
0.7810543447451284
 40
0.8503702573695947
 40
0.9230977047341895
 40
1.0
 40
1.0
 40
1.0
 40
1.0
 10
0.5872716963369538
 20
-7.964660219103044
 30
0.0
 10
0.5891352505530457
 20
-7.964701054878972
 30
0.0
 10
0.5927704271076294
 20
-7.964780711941784
 30
0.0
 10
0.5980724631047768
 20
-7.96543278635125
 30
0.0
 10
0.6030568273997856
 20
-7.966576320322655
 30
0.0
 10
0.6077725023234741
 20
-7.968075866527297
 30
0.0
 10
0.6121341687877383
 20
-7.970100439580284
 30
0.0
 10
0.6162087912666319
 20
-7.972452405519183
 30
0.0
 10
0.6198645805793649
 20
-7.975311779802778
 30
0.0
 10
0.6232460965518769
 20
-7.97849065000697
 30
0.0
 10
0.6262153849020379
 20
-7.982142611116135
 30
0.0
 10
0.6288077675371074
 20
-7.986204026520052
 30
0.0
 10
0.631080328136208
 20
-7.990653923949711
 30
0.0
 10
0.6328886950611314
 20
-7.995544011837325
 30
0.0
 10
0.6343794817369481
 20
-8.000807055662301
 30
0.0
 10
0.6353729298325467
 20
-8.006463740464328
 30
0.0
 10
0.6360151556109356
 20
-8.012480605985752
 30
0.0
 10
0.6360953705435404
 20
-8.01661252534141
 30
0.0
 10
0.6361365970558864
 20
-8.01873612775305
 30
0.0
  0
SPLINE
  5
E9
330
1F
100
AcDbEntity
  8
0
  6
Continuous
 62
     7
370
    25
100
AcDbSpline
210
0.0
220
0.0
230
1.0
 70
     8
 71
     3
 72
    15
 73
    11
 74
     0
 42
0.000000001
 43
0.00000001
 40
0.0
 40
0.0
 40
0.0
 40
0.0
 40
0.1226984658863318
 40
0.2441485697492627
 40
0.3657921580487413
 40
0.4873429122556582
 40
0.609449612337835
 40
0.7351998220774137
 40
0.8650137067385939
 40
1.0
 40
1.0
 40
1.0
 40
1.0
 10
0.2467151660391096
 20
-7.936701757389023
 30
0.0
 10
0.2466658272672821
 20
-7.937635179617119
 30
0.0
 10
0.2465676517074832
 20
-7.939492527223835
 30
0.0
 10
0.2456326777606792
 20
-7.942137986755126
 30
0.0
 10
0.2442646932632963
 20
-7.944555191806548
 30
0.0
 10
0.2424339115473078
 20
-7.946657709274994
 30
0.0
 10
0.2402241005072355
 20
-7.948411034835097
 30
0.0
 10
0.2376365660909564
 20
-7.949674766654777
 30
0.0
 10
0.2347745838111165
 20
-7.950525193204296
 30
0.0
 10
0.2327629052731754
 20
-7.950628384677108
 30
0.0
 10
0.2317374186923109
 20
-7.950680988246035
 30
0.0
  0
SPLINE
  5
EA
330
1F
100
AcDbEntity
  8
0
  6
Continuous
 62
     7
370
    25
100
AcDbSpline
210
0.0
220
0.0
230
1.0
 70
     8
 71
     3
 72
    23
 73
    19
 74
     0
 42
0.000000001
 43
0.00000001
 40
0.0
 40
0.0
 40
0.0
 40
0.0
 40
0.067805947621838
 40
0.1317018369788028
 40
0.1922424321680554
 40
0.2500566278520063
 40
0.3058655639362488
 40
0.3601858534001647
 40
0.4141000840573303
 40
0.4680973772168729
 40
0.5233753328963583
 40
0.5812020302986274
 40
0.6408791758160302
 40
0.7044757003760489
 40
0.771382322213329
 40
0.8431713642003786
 40
0.9187759122737496
 40
1.0
 40
1.0
 40
1.0
 40
1.0
 10
0.3597347512268316
 20
-7.964660219103047
 30
0.0
 10
0.3610464769294641
 20
-7.964691268631772
 30
0.0
 10
0.3635942871247073
 20
-7.96475157720519
 30
0.0
 10
0.3672938971112459
 20
-7.965185823717016
 30
0.0
 10
0.3707455135023026
 20
-7.965929043123287
 30
0.0
 10
0.3739522526321502
 20
-7.966986931059118
 30
0.0
 10
0.3768985245606656
 20
-7.968371203680435
 30
0.0
 10
0.3796146250305277
 20
-7.970027186351224
 30
0.0
 10
0.3820562590866964
 20
-7.972012213616591
 30
0.0
 10
0.3842647714681668
 20
-7.974277249328579
 30
0.0
 10
0.3862191462097094
 20
-7.976863816990144
 30
0.0
 10
0.3878798460541185
 20
-7.979771594153981
 30
0.0
 10
0.3893402849170264
 20
-7.982961458880093
 30
0.0
 10
0.3905100213391889
 20
-7.986455586051783
 30
0.0
 10
0.3914244380470875
 20
-7.990266141944164
 30
0.0
 10
0.3920058463480864
 20
-7.994373435265852
 30
0.0
 10
0.39244705742348
 20
-7.998777175177654
 30
0.0
 10
0.3924809961384144
 20
-8.001812100037341
 30
0.0
 10
0.3924985735479549
 20
-8.003383936722583
 30
0.0
  0
SPLINE
  5
EB
330
1F
100
AcDbEntity
  8
0
  6
Continuous
 62
     7
370
    25
100
AcDbSpline
210
0.0
220
0.0
230
1.0
 70
     8
 71
     3
 72
    23
 73
    19
 74
     0
 42
0.000000001
 43
0.00000001
 40
0.0
 40
0.0
 40
0.0
 40
0.0
 40
0.0560754448420639
 40
0.1104504311077547
 40
0.163100829541847
 40
0.2149963896352521
 40
0.2662585443541058
 40
0.3176519471404182
 40
0.3701298582871814
 40
0.42433130394234
 40
0.4810042448570457
 40
0.5407912682880618
 40
0.6049185446651468
 40
0.6731779438993841
 40
0.7464698986733892
 40
0.8249713920767526
 40
0.9095805018795878
 40
1.0
 40
1.0
 40
1.0
 40
1.0
 10
1.410922985849679
 20
-8.074497032979561
 30
0.0
 10
1.409089598287696
 20
-8.074452634005203
 30
0.0
 10
1.405478419683961
 20
-8.0743651824322
 30
0.0
 10
1.400193512081988
 20
-8.073569004733752
 30
0.0
 10
1.395159667962526
 20
-8.072256660473887
 30
0.0
 10
1.390397118719822
 20
-8.070419617667264
 30
0.0
 10
1.385936051430904
 20
-8.068026692310756
 30
0.0
 10
1.381769900830569
 20
-8.065112922018404
 30
0.0
 10
1.377980918014322
 20
-8.061578492230142
 30
0.0
 10
1.374536966639544
 20
-8.05748618601005
 30
0.0
 10
1.371423803995857
 20
-8.052843300744621
 30
0.0
 10
1.368748925230465
 20
-8.04756951845377
 30
0.0
 10
1.366425181964777
 20
-8.041728420990914
 30
0.0
 10
1.364443098759017
 20
-8.035296775793288
 30
0.0
 10
1.362950795221633
 20
-8.028254728168283
 30
0.0
 10
1.361818422537853
 20
-8.020608060509435
 30
0.0
 10
1.361178377962883
 20
-8.01233995063188
 30
0.0
 10
1.361100038619896
 20
-8.006619793490078
 30
0.0
 10
1.361059568640959
 20
-8.003664769485326
 30
0.0
  0
SPLINE
  5
EC
330
1F
100
AcDbEntity
  8
0
  6
Continuous
 62
     7
370
    25
100
AcDbSpline
210
0.0
220
0.0
230
1.0
 70
     8
 71
     3
 72
    23
 73
    19
 74
     0
 42
0.000000001
 43
0.00000001
 40
0.0
 40
0.0
 40
0.0
 40
0.0
 40
0.0711051341112836
 40
0.1396666098105347
 40
0.2057540422823752
 40
0.2702052712879931
 40
0.3327152954966479
 40
0.3931619705096966
 40
0.452297101711722
 40
0.5101303837657755
 40
0.5676286403677706
 40
0.6249469479130656
 40
0.6828752647825956
 40
0.7425018086467524
 40
0.8033367640790458
 40
0.8659668639087892
 40
0.9314424380737635
 40
1.0
 40
1.0
 40
1.0
 40
1.0
 10
0.6361365970558864
 20
-8.01873612775305
 30
0.0
 10
0.6360961625799527
 20
-8.020755791035741
 30
0.0
 10
0.6360167400988095
 20
-8.02472286777609
 30
0.0
 10
0.6353477138327871
 20
-8.030535917624244
 30
0.0
 10
0.6342624695159589
 20
-8.036090805583221
 30
0.0
 10
0.6327325589839708
 20
-8.041362036022957
 30
0.0
 10
0.6308155489640184
 20
-8.046335643528783
 30
0.0
 10
0.6284528211115085
 20
-8.050944398411177
 30
0.0
 10
0.6257506385788286
 20
-8.055206538204391
 30
0.0
 10
0.6226344677292198
 20
-8.05907202059994
 30
0.0
 10
0.6191609824538525
 20
-8.06254352730838
 30
0.0
 10
0.6153379099156456
 20
-8.06563590481691
 30
0.0
 10
0.611106763597008
 20
-8.068254802454428
 30
0.0
 10
0.6065619599730935
 20
-8.070509690479104
 30
0.0
 10
0.6016665969005669
 20
-8.072296341005812
 30
0.0
 10
0.5964458199476411
 20
-8.073567356609761
 30
0.0
 10
0.5909058580830983
 20
-8.074370703713038
 30
0.0
 10
0.5870977070492723
 20
-8.074454282613447
 30
0.0
 10
0.5851498487961585
 20
-8.07449703297957
 30
0.0
  0
SPLINE
  5
ED
330
1F
100
AcDbEntity
  8
0
  6
Continuous
 62
     7
370
    25
100
AcDbSpline
210
0.0
220
0.0
230
1.0
 70
     8
 71
     3
 72
    15
 73
    11
 74
     0
 42
0.000000001
 43
0.00000001
 40
0.0
 40
0.0
 40
0.0
 40
0.0
 40
0.1349046938023532
 40
0.2642702301459267
 40
0.3905634202535218
 40
0.5125963066140776
 40
0.6340735831696632
 40
0.753271006393405
 40
0.8746476934482745
 40
1.0
 40
1.0
 40
1.0
 40
1.0
 10
0.2317374186923104
 20
-7.92272252653201
 30
0.0
 10
0.2327615088044354
 20
-7.922779382280977
 30
0.0
 10
0.234767640110867
 20
-7.922890759294194
 30
0.0
 10
0.2376513125647557
 20
-7.923680715962375
 30
0.0
 10
0.2402144056379247
 20
-7.925001540212928
 30
0.0
 10
0.2424377525427555
 20
-7.926741354171344
 30
0.0
 10
0.2442434101381067
 20
-7.928840618817624
 30
0.0
 10
0.2456496507566554
 20
-7.931213810906087
 30
0.0
 10
0.2465718267430585
 20
-7.933870119255213
 30
0.0
 10
0.2466668757558523
 20
-7.935747792835462
 30
0.0
 10
0.2467151660391096
 20
-7.936701757389023
 30
0.0
  0
SPLINE
  5
EE
330
1F
100
AcDbEntity
  8
0
  6
Continuous
 62
     7
370
    25
100
AcDbSpline
210
0.0
220
0.0
230
1.0
 70
     8
 71
     3
 72
    15
 73
    11
 74
     0
 42
0.000000001
 43
0.00000001
 40
0.0
 40
0.0
 40
0.0
 40
0.0
 40
0.1349482024531722
 40
0.2660444888117078
 40
0.3905342393234688
 40
0.5136876376342493
 40
0.6343110622013238
 40
0.7559203247742196
 40
0.8773361575085462
 40
1.0
 40
1.0
 40
1.0
 40
1.0
 10
0.2317374186923109
 20
-7.950680988246035
 30
0.0
 10
0.2307126539498191
 20
-7.950626517367302
 30
0.0
 10
0.2286923750049177
 20
-7.950519130408266
 30
0.0
 10
0.2258199606870376
 20
-7.949691575939387
 30
0.0
 10
0.2232447151057421
 20
-7.948389329147256
 30
0.0
 10
0.2210090417324674
 20
-7.946680431939869
 30
0.0
 10
0.2192142371732603
 20
-7.944542199977159
 30
0.0
 10
0.2178401718877444
 20
-7.942139874645128
 30
0.0
 10
0.2169076882414833
 20
-7.939492049903853
 30
0.0
 10
0.2168091782088543
 20
-7.937635019969027
 30
0.0
 10
0.2167596713455118
 20
-7.936701757389023
 30
0.0
  0
SPLINE
  5
EF
330
1F
100
AcDbEntity
  8
0
  6
Continuous
 62
     7
370
    25
100
AcDbSpline
210
0.0
220
0.0
230
1.0
 70
     8
 71
     3
 72
    23
 73
    19
 74
     0
 42
0.000000001
 43
0.00000001
 40
0.0
 40
0.0
 40
0.0
 40
0.0
 40
0.063655555987727
 40
0.1227665780776434
 40
0.1795771244218449
 40
0.2332310164398697
 40
0.2862459719746572
 40
0.3378673466847786
 40
0.390852396728237
 40
0.4448632860324756
 40
0.5012362157355477
 40
0.560678132451187
 40
0.6231841571230112
 40
0.6896027279103938
 40
0.7599809721483146
 40
0.8354821017882346
 40
0.9149989291947298
 40
1.0
 40
1.0
 40
1.0
 40
1.0
 10
0.9616529727263186
 20
-8.029438976377946
 30
0.0
 10
0.9616185811465524
 20
-8.028387562219816
 30
0.0
 10
0.961552253290372
 20
-8.0263597970651
 30
0.0
 10
0.961167724140826
 20
-8.023408231355212
 30
0.0
 10
0.9604024123747192
 20
-8.020705723823335
 30
0.0
 10
0.9594086464351155
 20
-8.018186184206304
 30
0.0
 10
0.9580894686367594
 20
-8.015918642537892
 30
0.0
 10
0.9565147078396848
 20
-8.013831568035402
 30
0.0
 10
0.9545865162055136
 20
-8.012042255419795
 30
0.0
 10
0.9524185053694748
 20
-8.01042302033844
 30
0.0
 10
0.9499517446688058
 20
-8.009073526058936
 30
0.0
 10
0.9472737849900111
 20
-8.007835196293037
 30
0.0
 10
0.9443116729253195
 20
-8.006865101733764
 30
0.0
 10
0.9411312666530095
 20
-8.006001105766247
 30
0.0
 10
0.9376706180623179
 20
-8.00540453081763
 30
0.0
 10
0.9339756016418909
 20
-8.004933460483553
 30
0.0
 10
0.9300168365119666
 20
-8.004650286174384
 30
0.0
 10
0.9272982213562156
 20
-8.004617709834488
 30
0.0
 10
0.9258936009358355
 20
-8.004600878694506
 30
0.0
  0
SPLINE
  5
F0
330
1F
100
AcDbEntity
  8
0
  6
Continuous
 62
     7
370
    25
100
AcDbSpline
210
0.0
220
0.0
230
1.0
 70
     8
 71
     3
 72
    23
 73
    19
 74
     0
 42
0.000000001
 43
0.00000001
 40
0.0
 40
0.0
 40
0.0
 40
0.0
 40
0.0560754448420639
 40
0.1104504311077547
 40
0.163100829541847
 40
0.2149963896352521
 40
0.2662585443541058
 40
0.3176519471404182
 40
0.3701298582871814
 40
0.42433130394234
 40
0.4810042448570457
 40
0.5407912682880618
 40
0.6049185446651468
 40
0.6731779438993841
 40
0.7464698986733892
 40
0.8249713920767526
 40
0.9095805018795878
 40
1.0
 40
1.0
 40
1.0
 40
1.0
 10
1.29309804005486
 20
-8.074497032979565
 30
0.0
 10
1.291264652492877
 20
-8.074452634005205
 30
0.0
 10
1.287653473889141
 20
-8.074365182432201
 30
0.0
 10
1.282368566287169
 20
-8.073569004733752
 30
0.0
 10
1.277334722167706
 20
-8.072256660473887
 30
0.0
 10
1.272572172925003
 20
-8.070419617667266
 30
0.0
 10
1.268111105636084
 20
-8.068026692310758
 30
0.0
 10
1.26394495503575
 20
-8.065112922018406
 30
0.0
 10
1.260155972219501
 20
-8.061578492230144
 30
0.0
 10
1.256712020844725
 20
-8.057486186010053
 30
0.0
 10
1.253598858201038
 20
-8.052843300744623
 30
0.0
 10
1.250923979435646
 20
-8.04756951845377
 30
0.0
 10
1.248600236169956
 20
-8.041728420990914
 30
0.0
 10
1.246618152964198
 20
-8.035296775793288
 30
0.0
 10
1.245125849426813
 20
-8.028254728168285
 30
0.0
 10
1.243993476743033
 20
-8.020608060509435
 30
0.0
 10
1.243353432168063
 20
-8.012339950631882
 30
0.0
 10
1.243275092825077
 20
-8.006619793490078
 30
0.0
 10
1.24323462284614
 20
-8.003664769485326
 30
0.0
  0
SPLINE
  5
F1
330
1F
100
AcDbEntity
  8
0
  6
Continuous
 62
     7
370
    25
100
AcDbSpline
210
0.0
220
0.0
230
1.0
 70
     8
 71
     3
 72
    23
 73
    19
 74
     0
 42
0.000000001
 43
0.00000001
 40
0.0
 40
0.0
 40
0.0
 40
0.0
 40
0.0613960963630828
 40
0.1192558417129217
 40
0.1752612810268751
 40
0.2301113321924738
 40
0.2842294994182494
 40
0.3381282091418387
 40
0.3933089368143264
 40
0.4496366392862883
 40
0.5078636311805144
 40
0.5686460820569726
 40
0.6325183647549988
 40
0.6997052570281173
 40
0.7701564677775108
 40
0.8432700444194771
 40
0.9198094923535366
 40
0.9999999999999999
 40
0.9999999999999999
 40
0.9999999999999999
 40
0.9999999999999999
 10
0.4574957563050018
 20
-8.074497032979572
 30
0.0
 10
0.4560050486321196
 20
-8.074450664090431
 30
0.0
 10
0.4531094964910494
 20
-8.074360597111726
 30
0.0
 10
0.4489095841352682
 20
-8.073615410067763
 30
0.0
 10
0.4449721464600965
 20
-8.072451574347744
 30
0.0
 10
0.4413430908644506
 20
-8.070732692865437
 30
0.0
 10
0.437975593377753
 20
-8.068645943386604
 30
0.0
 10
0.4349240476247448
 20
-8.06610479990171
 30
0.0
 10
0.4321411768065292
 20
-8.063201873176931
 30
0.0
 10
0.4296605149000062
 20
-8.059900432451329
 30
0.0
 10
0.4275249642758966
 20
-8.056213735856824
 30
0.0
 10
0.4255965442380559
 20
-8.052210712741466
 30
0.0
 10
0.4240275307330483
 20
-8.047820573460069
 30
0.0
 10
0.4227239680100617
 20
-8.043104963175331
 30
0.0
 10
0.4216962120291668
 20
-8.03809100579488
 30
0.0
 10
0.4209946036575919
 20
-8.032793720125532
 30
0.0
 10
0.4205475203489824
 20
-8.027231187519904
 30
0.0
 10
0.4204876617640652
 20
-8.023427960252658
 30
0.0
 10
0.4204570352619794
 20
-8.021482048099964
 30
0.0
  0
SPLINE
  5
F2
330
1F
100
AcDbEntity
  8
0
  6
Continuous
 62
     7
370
    25
100
AcDbSpline
210
0.0
220
0.0
230
1.0
 70
     8
 71
     3
 72
    23
 73
    19
 74
     0
 42
0.000000001
 43
0.00000001
 40
0.0
 40
0.0
 40
0.0
 40
0.0
 40
0.067342644526657
 40
0.1313631770909082
 40
0.1930154591315569
 40
0.25245498175215
 40
0.3098256690486041
 40
0.3663025999461471
 40
0.4217937796743863
 40
0.477626446808699
 40
0.5342832569117959
 40
0.5919487847999682
 40
0.6521361077906841
 40
0.7148350846176684
 40
0.7807781386127458
 40
0.8495730630849353
 40
0.9228897324916725
 40
1.0
 40
1.0
 40
1.0
 40
1.0
 10
0.5851498487961585
 20
-8.07449703297957
 30
0.0
 10
0.5832861183686955
 20
-8.074456787352569
 30
0.0
 10
0.5796505980841363
 20
-8.074378281474695
 30
0.0
 10
0.5743409202551305
 20
-8.073716758843725
 30
0.0
 10
0.5693349817797847
 20
-8.072598101665431
 30
0.0
 10
0.5646410977208157
 20
-8.071037905584237
 30
0.0
 10
0.5602619139732103
 20
-8.069064610547532
 30
0.0
 10
0.5562239483992676
 20
-8.066665087412972
 30
0.0
 10
0.5525456598559598
 20
-8.063817237646376
 30
0.0
 10
0.5491750099842113
 20
-8.06060163918258
 30
0.0
 10
0.5462158112259881
 20
-8.056924371092904
 30
0.0
 10
0.5436032723096664
 20
-8.052854726085377
 30
0.0
 10
0.541350694243728
 20
-8.048384215605527
 30
0.0
 10
0.5395247364587743
 20
-8.043480613522133
 30
0.0
 10
0.5380525005265908
 20
-8.038212410550987
 30
0.0
 10
0.5370387379731467
 20
-8.032539053662386
 30
0.0
 10
0.5364094658004098
 20
-8.026499279777955
 30
0.0
 10
0.5363271459892928
 20
-8.022336552259095
 30
0.0
 10
0.5362849480772258
 20
-8.020202698847424
 30
0.0
  0
SPLINE
  5
F3
330
1F
100
AcDbEntity
  8
0
  6
Continuous
 62
     7
370
    25
100
AcDbSpline
210
0.0
220
0.0
230
1.0
 70
     8
 71
     3
 72
    15
 73
    11
 74
     0
 42
0.000000001
 43
0.00000001
 40
0.0
 40
0.0
 40
0.0
 40
0.0
 40
0.1253157288424489
 40
0.2466569982708374
 40
0.3658196397756527
 40
0.4863689876667183
 40
0.6094467556062106
 40
0.7344849298911664
 40
0.865134671286377
 40
1.0
 40
1.0
 40
1.0
 40
1.0
 10
0.2167596713455118
 20
-7.936701757389023
 30
0.0
 10
0.2168081359406179
 20
-7.93574795807471
 30
0.0
 10
0.216903528048709
 20
-7.933870609732294
 30
0.0
 10
0.2178232082087707
 20
-7.931211935459886
 30
0.0
 10
0.2192352736415915
 20
-7.928853403820765
 30
0.0
 10
0.2210051568928242
 20
-7.926718614485645
 30
0.0
 10
0.2232545874887975
 20
-7.925023367177726
 30
0.0
 10
0.2258051558938304
 20
-7.923663969038128
 30
0.0
 10
0.2286992644821741
 20
-7.922896769636338
 30
0.0
 10
0.2307140377589838
 20
-7.922781219099407
 30
0.0
 10
0.2317374186923104
 20
-7.92272252653201
 30
0.0
  0
SPLINE
  5
F4
330
1F
100
AcDbEntity
  8
0
  6
Continuous
 62
     7
370
    25
100
AcDbSpline
210
0.0
220
0.0
230
1.0
 70
     8
 71
     3
 72
    23
 73
    19
 74
     0
 42
0.000000001
 43
0.00000001
 40
0.0
 40
0.0
 40
0.0
 40
0.0
 40
0.0712603614114833
 40
0.139606758766791
 40
0.2054783933233928
 40
0.2697178426631244
 40
0.3316809016563985
 40
0.3919327836418687
 40
0.450690079322009
 40
0.508649615328708
 40
0.5662733945002161
 40
0.6240034745335232
 40
0.6822540536430279
 40
0.7416817623923198
 40
0.8029944418393571
 40
0.8656742605389401
 40
0.9312927722953349
 40
1.0
 40
1.0
 40
1.0
 40
1.0
 10
0.5362849480772258
 20
-8.020202698847424
 30
0.0
 10
0.5363250550115929
 20
-8.018183017752168
 30
0.0
 10
0.5364036288358083
 20
-8.014226243946
 30
0.0
 10
0.5370734763965849
 20
-8.008433797096014
 30
0.0
 10
0.5381601148802515
 20
-8.002910467253104
 30
0.0
 10
0.5396825023404137
 20
-7.997677894079444
 30
0.0
 10
0.5416120169196669
 20
-7.992750021082686
 30
0.0
 10
0.5439724753084998
 20
-7.988189972550533
 30
0.0
 10
0.5466443781427454
 20
-7.983936470690725
 30
0.0
 10
0.5497584030247549
 20
-7.980087846444968
 30
0.0
 10
0.5532293291609066
 20
-7.976600548080812
 30
0.0
 10
0.5570904503421834
 20
-7.973535194370655
 30
0.0
 10
0.5612975505719521
 20
-7.970873092474402
 30
0.0
 10
0.5658447812606745
 20
-7.968606034811125
 30
0.0
 10
0.5707422080014597
 20
-7.966827074388856
 30
0.0
 10
0.5759804351912954
 20
-7.965599404729983
 30
0.0
 10
0.581515078461107
 20
-7.964783897287173
 30
0.0
 10
0.5853236321347409
 20
-7.9647020723315
 30
0.0
 10
0.5872716963369538
 20
-7.964660219103044
 30
0.0
  0
SPLINE
  5
F5
330
1F
100
AcDbEntity
  8
0
  6
Continuous
 62
     7
370
    25
100
AcDbSpline
210
0.0
220
0.0
230
1.0
 70
     8
 71
     3
 72
    23
 73
    19
 74
     0
 42
0.000000001
 43
0.00000001
 40
0.0
 40
0.0
 40
0.0
 40
0.0
 40
0.0876768172299473
 40
0.1701041931752625
 40
0.2465543401171546
 40
0.3181848531143606
 40
0.3855381220132253
 40
0.447950500362127
 40
0.5063462139073742
 40
0.5618129356648208
 40
0.6150084772114763
 40
0.6673428474460706
 40
0.7185091623695269
 40
0.7703955383129243
 40
0.8241523613707449
 40
0.879739206109728
 40
0.9378486644333599
 40
1.0
 40
1.0
 40
1.0
 40
1.0
 10
0.3725282437522227
 20
-8.00497532237818
 30
0.0
 10
0.3725198576406411
 20
-8.003976345385158
 30
0.0
 10
0.3725035875159999
 20
-8.002038202774976
 30
0.0
 10
0.372276782440215
 20
-7.999236535466701
 30
0.0
 10
0.3719360578679136
 20
-7.996632465348964
 30
0.0
 10
0.3714824527476995
 20
-7.994217932641289
 30
0.0
 10
0.3708547554525603
 20
-7.992009112516263
 30
0.0
 10
0.3701213017116921
 20
-7.989991094773124
 30
0.0
 10
0.3692018990507515
 20
-7.988200905641822
 30
0.0
 10
0.3681723095015966
 20
-7.986596939063584
 30
0.0
 10
0.3670107290267262
 20
-7.985171976703931
 30
0.0
 10
0.3657018280188156
 20
-7.983947879729016
 30
0.0
 10
0.3642357583676623
 20
-7.982948439433383
 30
0.0
 10
0.3626669101535634
 20
-7.982086047327957
 30
0.0
 10
0.3609416608772895
 20
-7.981439277269178
 30
0.0
 10
0.3590893123860549
 20
-7.980972596799857
 30
0.0
 10
0.3571017950004293
 20
-7.980685045087317
 30
0.0
 10
0.3557312866216767
 20
-7.980653029001263
 30
0.0
 10
0.3550230015406513
 20
-7.980636482939633
 30
0.0
  0
SPLINE
  5
F6
330
1F
100
AcDbEntity
  8
0
  6
Continuous
 62
     7
370
    25
100
AcDbSpline
210
0.0
220
0.0
230
1.0
 70
     8
 71
     3
 72
    23
 73
    19
 74
     0
 42
0.000000001
 43
0.00000001
 40
0.0
 40
0.0
 40
0.0
 40
0.0
 40
0.061363357185827
 40
0.1208038210218675
 40
0.1793080414518639
 40
0.2372163364652025
 40
0.2950121340707844
 40
0.3525748231586265
 40
0.4103792821839564
 40
0.4693328625456192
 40
0.5297850297713066
 40
0.5909569470107088
 40
0.6547489233526008
 40
0.7204398486777635
 40
0.7879763506196489
 40
0.856585536298092
 40
0.9273367877060257
 40
1.0
 40
1.0
 40
1.0
 40
1.0
 10
0.9816233025220508
 20
-8.028034812564185
 30
0.0
 10
0.9815677237823568
 20
-8.02972285229453
 30
0.0
 10
0.98145830792849
 20
-8.033046035034436
 30
0.0
 10
0.9806395541346056
 20
-8.037926087835352
 30
0.0
 10
0.9792254504848596
 20
-8.042564162383126
 30
0.0
 10
0.9772697056860851
 20
-8.046949262903984
 30
0.0
 10
0.9748698335798059
 20
-8.051077030885033
 30
0.0
 10
0.9720115288608575
 20
-8.054899198565664
 30
0.0
 10
0.9687375017084446
 20
-8.058412358738792
 30
0.0
 10
0.9650742716880542
 20
-8.061639132882723
 30
0.0
 10
0.9610245296763889
 20
-8.064528165375526
 30
0.0
 10
0.9566010881279772
 20
-8.067079992515275
 30
0.0
 10
0.9518335951145915
 20
-8.069277478458337
 30
0.0
 10
0.946743643738422
 20
-8.071152273739202
 30
0.0
 10
0.9413891132202377
 20
-8.072636220646302
 30
0.0
 10
0.9358030073502409
 20
-8.073750233308981
 30
0.0
 10
0.9299951245291918
 20
-8.074363538302777
 30
0.0
 10
0.9260509597762423
 20
-8.074452141011921
 30
0.0
 10
0.9240525861577924
 20
-8.074497032979567
 30
0.0
  0
SPLINE
  5
F7
330
1F
100
AcDbEntity
  8
0
  6
Continuous
 62
     7
370
    25
100
AcDbSpline
210
0.0
220
0.0
230
1.0
 70
     8
 71
     3
 72
    23
 73
    19
 74
     0
 42
0.000000001
 43
0.00000001
 40
0.0
 40
0.0
 40
0.0
 40
0.0
 40
0.0661944766921654
 40
0.131268400052239
 40
0.1962002106050504
 40
0.2602949024627574
 40
0.3230677390668133
 40
0.3843788273404195
 40
0.443266053804642
 40
0.5015620433011238
 40
0.5589860613407382
 40
0.6159737663530207
 40
0.6730735845607542
 40
0.7317568261776695
 40
0.7926448687772147
 40
0.8569153202114386
 40
0.9257218729551667
 40
1.0
 40
1.0
 40
1.0
 40
1.0
 10
0.929669241412841
 20
-7.988624614857919
 30
0.0
 10
0.9313028477036018
 20
-7.988650290936366
 30
0.0
 10
0.9345424062713156
 20
-7.988701208443474
 30
0.0
 10
0.9393735515755759
 20
-7.98905819159487
 30
0.0
 10
0.9441322711259366
 20
-7.989615267767958
 30
0.0
 10
0.9488048511467093
 20
-7.990380947825818
 30
0.0
 10
0.953338215426016
 20
-7.991412287451196
 30
0.0
 10
0.9576272881272382
 20
-7.99284751212029
 30
0.0
 10
0.9616675909744042
 20
-7.994613997178953
 30
0.0
 10
0.965454688494575
 20
-7.996685848705097
 30
0.0
 10
0.9689360193510497
 20
-7.999161934819937
 30
0.0
 10
0.9720802433990032
 20
-8.00201161653785
 30
0.0
 10
0.9748493579830766
 20
-8.005268416972024
 30
0.0
 10
0.9772701819285754
 20
-8.008904846405347
 30
0.0
 10
0.9792863310693709
 20
-8.012992177584072
 30
0.0
 10
0.9806131459074159
 20
-8.017608920925445
 30
0.0
 10
0.9814828012045418
 20
-8.02266617479176
 30
0.0
 10
0.9815752898244601
 20
-8.02620021922079
 30
0.0
 10
0.9816233025220508
 20
-8.028034812564185
 30
0.0
  0
SPLINE
  5
F8
330
1F
100
AcDbEntity
  8
0
  6
Continuous
 62
     7
370
    25
100
AcDbSpline
210
0.0
220
0.0
230
1.0
 70
     8
 71
     3
 72
    23
 73
    19
 74
     0
 42
0.000000001
 43
0.00000001
 40
0.0
 40
0.0
 40
0.0
 40
0.0
 40
0.056075444842064
 40
0.1104504311077548
 40
0.1631008295418471
 40
0.2149963896352522
 40
0.266258544354106
 40
0.3176519471404183
 40
0.3701298582871795
 40
0.4243313039423399
 40
0.4810042448570457
 40
0.5407912682880618
 40
0.6049185446651459
 40
0.673177943899384
 40
0.7464698986733891
 40
0.8249713920767526
 40
0.9095805018795878
 40
1.0
 40
1.0
 40
1.0
 40
1.0
 10
1.528747931644498
 20
-8.074497032979561
 30
0.0
 10
1.526914544082515
 20
-8.074452634005203
 30
0.0
 10
1.523303365478779
 20
-8.074365182432196
 30
0.0
 10
1.518018457876807
 20
-8.073569004733752
 30
0.0
 10
1.512984613757344
 20
-8.072256660473887
 30
0.0
 10
1.508222064514641
 20
-8.070419617667264
 30
0.0
 10
1.503760997225724
 20
-8.068026692310758
 30
0.0
 10
1.499594846625388
 20
-8.0651129220184
 30
0.0
 10
1.495805863809141
 20
-8.061578492230145
 30
0.0
 10
1.492361912434363
 20
-8.05748618601005
 30
0.0
 10
1.489248749790676
 20
-8.052843300744623
 30
0.0
 10
1.486573871025284
 20
-8.047569518453766
 30
0.0
 10
1.484250127759596
 20
-8.041728420990914
 30
0.0
 10
1.482268044553837
 20
-8.035296775793288
 30
0.0
 10
1.480775741016451
 20
-8.028254728168282
 30
0.0
 10
1.479643368332672
 20
-8.020608060509435
 30
0.0
 10
1.479003323757701
 20
-8.012339950631882
 30
0.0
 10
1.478924984414715
 20
-8.006619793490078
 30
0.0
 10
1.478884514435779
 20
-8.003664769485326
 30
0.0
  0
SPLINE
  5
F9
330
1F
100
AcDbEntity
  8
0
  6
Continuous
 62
     7
370
    25
100
AcDbSpline
210
0.0
220
0.0
230
1.0
 70
     8
 71
     3
 72
    23
 73
    19
 74
     0
 42
0.000000001
 43
0.00000001
 40
0.0
 40
0.0
 40
0.0
 40
0.0
 40
0.0754947570176012
 40
0.1474857922437656
 40
0.2156530753385474
 40
0.2812799188142823
 40
0.3441653913672232
 40
0.4043067958767255
 40
0.4631205781319813
 40
0.5204903169734884
 40
0.5774113889386434
 40
0.6340565888777633
 40
0.6912779079126343
 40
0.7495214433322022
 40
0.8091160381960703
 40
0.8707102085424001
 40
0.9337824841116741
 40
1.0
 40
1.0
 40
1.0
 40
1.0
 10
0.4204570352619794
 20
-8.021482048099964
 30
0.0
 10
0.4204910893037734
 20
-8.019285146873582
 30
0.0
 10
0.420557616934718
 20
-8.014993302901182
 30
0.0
 10
0.4213036997291809
 20
-8.008755375362252
 30
0.0
 10
0.4224397953391023
 20
-8.00287290235309
 30
0.0
 10
0.4240571397098645
 20
-7.997375237261244
 30
0.0
 10
0.4261184113137467
 20
-7.992281042255149
 30
0.0
 10
0.428565245970596
 20
-7.987581786032363
 30
0.0
 10
0.4314045748112595
 20
-7.983300046666468
 30
0.0
 10
0.4346298378763766
 20
-7.979416381466979
 30
0.0
 10
0.4382830395766904
 20
-7.976030310178849
 30
0.0
 10
0.442219129597573
 20
-7.972981849994808
 30
0.0
 10
0.4465675981311999
 20
-7.97047821752112
 30
0.0
 10
0.4511925208771571
 20
-7.968330600150861
 30
0.0
 10
0.4561560711155793
 20
-7.966682101040209
 30
0.0
 10
0.4613917637483365
 20
-7.965502271620855
 30
0.0
 10
0.4669112591345776
 20
-7.964810639785027
 30
0.0
 10
0.4706721348391279
 20
-7.964711165965515
 30
0.0
 10
0.472598318213023
 20
-7.964660219103044
 30
0.0
  0
SPLINE
  5
FA
330
1F
100
AcDbEntity
  8
0
  6
Continuous
 62
     7
370
    25
100
AcDbSpline
210
0.0
220
0.0
230
1.0
 70
     8
 71
     3
 72
    23
 73
    19
 74
     0
 42
0.000000001
 43
0.00000001
 40
0.0
 40
0.0
 40
0.0
 40
0.0
 40
0.0780065135541098
 40
0.1530758765287814
 40
0.2248876845832054
 40
0.2943247787641617
 40
0.3604907329736251
 40
0.4234943169228323
 40
0.4839614067162753
 40
0.541986497165534
 40
0.5984083934619008
 40
0.6533234923758039
 40
0.7081737458063755
 40
0.7631742877461447
 40
0.8192014514174023
 40
0.8768153416521206
 40
0.9367239837759295
 40
1.0
 40
1.0
 40
1.0
 40
1.0
 10
1.478884514435779
 20
-8.003664769485326
 30
0.0
 10
1.478931080134309
 20
-8.001084307567558
 30
0.0
 10
1.47902245821024
 20
-7.99602054491603
 30
0.0
 10
1.479602095700151
 20
-7.988597551527696
 30
0.0
 10
1.48064067394936
 20
-7.981512513366088
 30
0.0
 10
1.482053805155043
 20
-7.974793185033453
 30
0.0
 10
1.483880623483232
 20
-7.96847414079739
 30
0.0
 10
1.486140808304471
 20
-7.962614682440591
 30
0.0
 10
1.488741681941986
 20
-7.957194566740895
 30
0.0
 10
1.491775436055223
 20
-7.952252765173905
 30
0.0
 10
1.495249381858669
 20
-7.947841464845045
 30
0.0
 10
1.499121714288238
 20
-7.943922286194508
 30
0.0
 10
1.503409872771002
 20
-7.940532310010966
 30
0.0
 10
1.508132901953985
 20
-7.937713092728874
 30
0.0
 10
1.51324322070838
 20
-7.935432116159403
 30
0.0
 10
1.51878238685093
 20
-7.933869170043283
 30
0.0
 10
1.524696413398687
 20
-7.932863169439242
 30
0.0
 10
1.528774828094039
 20
-7.932760453381232
 30
0.0
 10
1.530869779185293
 20
-7.932707691429863
 30
0.0
  0
SPLINE
  5
FB
330
1F
100
AcDbEntity
  8
0
  6
Continuous
 62
     7
370
    25
100
AcDbSpline
210
0.0
220
0.0
230
1.0
 70
     8
 71
     3
 72
    23
 73
    19
 74
     0
 42
0.000000001
 43
0.00000001
 40
0.0
 40
0.0
 40
0.0
 40
0.0
 40
0.0780065135541098
 40
0.1530758765287814
 40
0.2248876845832054
 40
0.2943247787641617
 40
0.3604907329736251
 40
0.4234943169228323
 40
0.4839614067162753
 40
0.541986497165534
 40
0.5984083934619008
 40
0.6533234923758039
 40
0.7081737458063755
 40
0.7631742877461447
 40
0.8192014514173998
 40
0.8768153416521206
 40
0.9367239837759295
 40
1.0
 40
1.0
 40
1.0
 40
1.0
 10
1.24323462284614
 20
-8.003664769485326
 30
0.0
 10
1.243281188544671
 20
-8.00108430756756
 30
0.0
 10
1.243372566620602
 20
-7.996020544916035
 30
0.0
 10
1.243952204110513
 20
-7.988597551527695
 30
0.0
 10
1.244990782359721
 20
-7.98151251336609
 30
0.0
 10
1.246403913565405
 20
-7.974793185033454
 30
0.0
 10
1.248230731893594
 20
-7.968474140797391
 30
0.0
 10
1.250490916714833
 20
-7.962614682440591
 30
0.0
 10
1.253091790352348
 20
-7.957194566740897
 30
0.0
 10
1.256125544465585
 20
-7.952252765173905
 30
0.0
 10
1.259599490269031
 20
-7.947841464845047
 30
0.0
 10
1.263471822698599
 20
-7.943922286194509
 30
0.0
 10
1.267759981181364
 20
-7.940532310010966
 30
0.0
 10
1.272483010364347
 20
-7.937713092728873
 30
0.0
 10
1.277593329118741
 20
-7.935432116159406
 30
0.0
 10
1.283132495261291
 20
-7.93386917004328
 30
0.0
 10
1.289046521809048
 20
-7.932863169439243
 30
0.0
 10
1.293124936504401
 20
-7.932760453381234
 30
0.0
 10
1.295219887595654
 20
-7.932707691429865
 30
0.0
  0
SPLINE
  5
FC
330
1F
100
AcDbEntity
  8
0
  6
Continuous
 62
     7
370
    25
100
AcDbSpline
210
0.0
220
0.0
230
1.0
 70
     8
 71
     3
 72
    17
 73
    13
 74
     0
 42
0.000000001
 43
0.00000001
 40
0.0
 40
0.0
 40
0.0
 40
0.0
 40
0.0861448011437974
 40
0.1719143497003909
 40
0.2631313461976003
 40
0.367294442920105
 40
0.4891215890255872
 40
0.6326054317450738
 40
0.71315791754327
 40
0.8015608798548487
 40
0.8967632108394513
 40
1.0
 40
1.0
 40
1.0
 40
1.0
 10
0.3550230015406513
 20
-7.980636482939633
 30
0.0
 10
0.3539581806699961
 20
-7.980685354768227
 30
0.0
 10
0.3518331773605038
 20
-7.980782885536418
 30
0.0
 10
0.3486519238098124
 20
-7.98156011024254
 30
0.0
 10
0.3454779832036239
 20
-7.983005953762202
 30
0.0
 10
0.3421783577641296
 20
-7.985148068674158
 30
0.0
 10
0.3387554580341212
 20
-7.988180462370975
 30
0.0
 10
0.3357258858653868
 20
-7.991198537835968
 30
0.0
 10
0.3332109456714024
 20
-7.994127914518798
 30
0.0
 10
0.3310841403830592
 20
-7.996602813176543
 30
0.0
 10
0.3288645470534142
 20
-7.999365918343441
 30
0.0
 10
0.3273726407381611
 20
-8.001311062898388
 30
0.0
 10
0.326596485222039
 20
-8.002323012952186
 30
0.0
  0
SPLINE
  5
FD
330
1F
100
AcDbEntity
  8
0
  6
Continuous
 62
     7
370
    25
100
AcDbSpline
210
0.0
220
0.0
230
1.0
 70
     8
 71
     3
 72
    23
 73
    19
 74
     0
 42
0.000000001
 43
0.00000001
 40
0.0
 40
0.0
 40
0.0
 40
0.0
 40
0.0560216341234772
 40
0.1103444414525164
 40
0.1626368215680761
 40
0.2143683701891718
 40
0.2658619002169304
 40
0.317131099369691
 40
0.3697751665062468
 40
0.4239245997565486
 40
0.4808077286428025
 40
0.5409658086217151
 40
0.6049138631207696
 40
0.6731077597569718
 40
0.7463977034550189
 40
0.8251384505022383
 40
0.9093493893785952
 40
1.0
 40
1.0
 40
1.0
 40
1.0
 10
1.295219887595654
 20
-7.932707691429865
 30
0.0
 10
1.297053137830789
 20
-7.932752568464826
 30
0.0
 10
1.300664045945194
 20
-7.932840961662106
 30
0.0
 10
1.305940937434072
 20
-7.933628823835424
 30
0.0
 10
1.310954645142931
 20
-7.934960851485646
 30
0.0
 10
1.315725659111961
 20
-7.936756537318038
 30
0.0
 10
1.320206145679822
 20
-7.939127328733892
 30
0.0
 10
1.324345370765105
 20
-7.942105257422869
 30
0.0
 10
1.328121187999262
 20
-7.945655732890707
 30
0.0
 10
1.331587630248058
 20
-7.949751654680017
 30
0.0
 10
1.33467891848315
 20
-7.954435150898981
 30
0.0
 10
1.337401761153734
 20
-7.959705336846875
 30
0.0
 10
1.339677827297615
 20
-7.965578259156113
 30
0.0
 10
1.341662481714075
 20
-7.972004411783421
 30
0.0
 10
1.343206068385802
 20
-7.979049132460475
 30
0.0
 10
1.344316362058228
 20
-7.986701911583936
 30
0.0
 10
1.344968031890839
 20
-7.994978789648635
 30
0.0
 10
1.34504394856549
 20
-8.000699220277756
 30
0.0
 10
1.345083304804374
 20
-8.003664769485326
 30
0.0
  0
SPLINE
  5
FE
330
1F
100
AcDbEntity
  8
0
  6
Continuous
 62
     7
370
    25
100
AcDbSpline
210
0.0
220
0.0
230
1.0
 70
     8
 71
     3
 72
    23
 73
    19
 74
     0
 42
0.000000001
 43
0.00000001
 40
0.0
 40
0.0
 40
0.0
 40
0.0
 40
0.0560216341234767
 40
0.1103444414525174
 40
0.162636821568077
 40
0.2143683701891727
 40
0.2658619002169312
 40
0.3171310993696917
 40
0.3697751665062475
 40
0.4239245997565492
 40
0.4808077286428031
 40
0.5409658086217156
 40
0.60491386312077
 40
0.6731077597569722
 40
0.7463977034550192
 40
0.8251384505022386
 40
0.9093493893785954
 40
0.9999999999999999
 40
0.9999999999999999
 40
0.9999999999999999
 40
0.9999999999999999
 10
1.530869779185293
 20
-7.932707691429863
 30
0.0
 10
1.532703029420428
 20
-7.932752568464825
 30
0.0
 10
1.536313937534833
 20
-7.932840961662103
 30
0.0
 10
1.54159082902371
 20
-7.933628823835419
 30
0.0
 10
1.546604536732569
 20
-7.934960851485646
 30
0.0
 10
1.551375550701601
 20
-7.936756537318041
 30
0.0
 10
1.55585603726946
 20
-7.939127328733891
 30
0.0
 10
1.559995262354743
 20
-7.942105257422868
 30
0.0
 10
1.563771079588901
 20
-7.945655732890703
 30
0.0
 10
1.567237521837697
 20
-7.949751654680017
 30
0.0
 10
1.570328810072788
 20
-7.954435150898978
 30
0.0
 10
1.573051652743372
 20
-7.959705336846875
 30
0.0
 10
1.575327718887253
 20
-7.965578259156112
 30
0.0
 10
1.577312373303713
 20
-7.97200441178342
 30
0.0
 10
1.57885595997544
 20
-7.979049132460472
 30
0.0
 10
1.579966253647867
 20
-7.986701911583938
 30
0.0
 10
1.580617923480478
 20
-7.994978789648633
 30
0.0
 10
1.580693840155129
 20
-8.000699220277758
 30
0.0
 10
1.580733196394012
 20
-8.003664769485324
 30
0.0
  0
SPLINE
  5
FF
330
1F
100
AcDbEntity
  8
0
  6
Continuous
 62
     7
370
    25
100
AcDbSpline
210
0.0
220
0.0
230
1.0
 70
     8
 71
     3
 72
    23
 73
    19
 74
     0
 42
0.000000001
 43
0.00000001
 40
0.0
 40
0.0
 40
0.0
 40
0.0
 40
0.0560216341234772
 40
0.1103444414525164
 40
0.1626368215680761
 40
0.2143683701891718
 40
0.2658619002169304
 40
0.317131099369691
 40
0.3697751665062468
 40
0.4239245997565486
 40
0.4808077286428025
 40
0.5409658086217151
 40
0.6049138631207696
 40
0.6731077597569718
 40
0.7463977034550189
 40
0.8251384505022383
 40
0.9093493893785952
 40
1.0
 40
1.0
 40
1.0
 40
1.0
 10
1.413044833390474
 20
-7.932707691429863
 30
0.0
 10
1.414878083625609
 20
-7.932752568464824
 30
0.0
 10
1.418488991740014
 20
-7.932840961662103
 30
0.0
 10
1.423765883228893
 20
-7.933628823835423
 30
0.0
 10
1.42877959093775
 20
-7.934960851485645
 30
0.0
 10
1.433550604906781
 20
-7.936756537318036
 30
0.0
 10
1.438031091474642
 20
-7.939127328733891
 30
0.0
 10
1.442170316559924
 20
-7.942105257422868
 30
0.0
 10
1.445946133794083
 20
-7.945655732890706
 30
0.0
 10
1.449412576042878
 20
-7.949751654680016
 30
0.0
 10
1.45250386427797
 20
-7.95443515089898
 30
0.0
 10
1.455226706948554
 20
-7.959705336846874
 30
0.0
 10
1.457502773092434
 20
-7.965578259156112
 30
0.0
 10
1.459487427508895
 20
-7.97200441178342
 30
0.0
 10
1.461031014180621
 20
-7.979049132460474
 30
0.0
 10
1.462141307853048
 20
-7.986701911583935
 30
0.0
 10
1.462792977685659
 20
-7.994978789648633
 30
0.0
 10
1.46286889436031
 20
-8.000699220277754
 30
0.0
 10
1.462908250599193
 20
-8.003664769485324
 30
0.0
  0
SPLINE
  5
100
330
1F
100
AcDbEntity
  8
0
  6
Continuous
 62
     7
370
    25
100
AcDbSpline
210
0.0
220
0.0
230
1.0
 70
     8
 71
     3
 72
    23
 73
    19
 74
     0
 42
0.000000001
 43
0.00000001
 40
0.0
 40
0.0
 40
0.0
 40
0.0
 40
0.0780571773226007
 40
0.1528953797159965
 40
0.2244050960279733
 40
0.2935217579714743
 40
0.3596501501458854
 40
0.422407773133539
 40
0.4827763733646402
 40
0.5410112827101435
 40
0.5977233569694076
 40
0.6526799259337914
 40
0.7075716004456983
 40
0.7623441021026188
 40
0.818125894970528
 40
0.8757832932928912
 40
0.936047660364246
 40
1.0
 40
1.0
 40
1.0
 40
1.0
 10
1.462908250599193
 20
-8.003664769485324
 30
0.0
 10
1.462879783682971
 20
-8.006245746015408
 30
0.0
 10
1.462824023788566
 20
-8.01130126301129
 30
0.0
 10
1.462168809271317
 20
-8.018696335210153
 30
0.0
 10
1.461189873961179
 20
-8.025754625251386
 30
0.0
 10
1.459792450625645
 20
-8.032449904637714
 30
0.0
 10
1.458017064508555
 20
-8.038757860211568
 30
0.0
 10
1.455749066738604
 20
-8.044597615544415
 30
0.0
 10
1.453107147670271
 20
-8.049988654517989
 30
0.0
 10
1.450036529254187
 20
-8.05491525781901
 30
0.0
 10
1.446586630790286
 20
-8.059362072274164
 30
0.0
 10
1.442701190901885
 20
-8.063282141759755
 30
0.0
 10
1.4384191699934
 20
-8.06666347667005
 30
0.0
 10
1.433723774767158
 20
-8.069492026259978
 30
0.0
 10
1.42863514172456
 20
-8.07177813903093
 30
0.0
 10
1.42309395948514
 20
-8.073338755904675
 30
0.0
 10
1.417148207083866
 20
-8.07434279828897
 30
0.0
 10
1.413038729487721
 20
-8.07444461378784
 30
0.0
 10
1.410922985849679
 20
-8.074497032979561
 30
0.0
  0
SPLINE
  5
101
330
1F
100
AcDbEntity
  8
0
  6
Continuous
 62
     7
370
    25
100
AcDbSpline
210
0.0
220
0.0
230
1.0
 70
     8
 71
     3
 72
    23
 73
    19
 74
     0
 42
0.000000001
 43
0.00000001
 40
0.0
 40
0.0
 40
0.0
 40
0.0
 40
0.0780065135541098
 40
0.1530758765287814
 40
0.2248876845832054
 40
0.2943247787641617
 40
0.3604907329736251
 40
0.4234943169228323
 40
0.4839614067162753
 40
0.541986497165534
 40
0.5984083934619008
 40
0.6533234923758039
 40
0.7081737458063755
 40
0.7631742877461447
 40
0.8192014514173998
 40
0.8768153416521206
 40
0.9367239837759295
 40
1.0
 40
1.0
 40
1.0
 40
1.0
 10
1.361059568640959
 20
-8.003664769485326
 30
0.0
 10
1.36110613433949
 20
-8.00108430756756
 30
0.0
 10
1.361197512415421
 20
-7.996020544916034
 30
0.0
 10
1.361777149905332
 20
-7.988597551527694
 30
0.0
 10
1.362815728154541
 20
-7.98151251336609
 30
0.0
 10
1.364228859360224
 20
-7.974793185033453
 30
0.0
 10
1.366055677688414
 20
-7.96847414079739
 30
0.0
 10
1.368315862509652
 20
-7.962614682440589
 30
0.0
 10
1.370916736147168
 20
-7.957194566740896
 30
0.0
 10
1.373950490260405
 20
-7.952252765173903
 30
0.0
 10
1.37742443606385
 20
-7.947841464845046
 30
0.0
 10
1.381296768493419
 20
-7.943922286194508
 30
0.0
 10
1.385584926976183
 20
-7.940532310010965
 30
0.0
 10
1.390307956159166
 20
-7.937713092728871
 30
0.0
 10
1.395418274913561
 20
-7.935432116159404
 30
0.0
 10
1.40095744105611
 20
-7.93386917004328
 30
0.0
 10
1.406871467603868
 20
-7.932863169439242
 30
0.0
 10
1.41094988229922
 20
-7.932760453381232
 30
0.0
 10
1.413044833390474
 20
-7.932707691429863
 30
0.0
  0
SPLINE
  5
102
330
1F
100
AcDbEntity
  8
0
  6
Continuous
 62
     7
370
    25
100
AcDbSpline
210
0.0
220
0.0
230
1.0
 70
     8
 71
     3
 72
    23
 73
    19
 74
     0
 42
0.000000001
 43
0.00000001
 40
0.0
 40
0.0
 40
0.0
 40
0.0
 40
0.0780571773226007
 40
0.1528953797159965
 40
0.2244050960279733
 40
0.2935217579714743
 40
0.3596501501458854
 40
0.422407773133539
 40
0.4827763733646402
 40
0.5410112827101435
 40
0.5977233569694076
 40
0.6526799259337914
 40
0.7075716004456983
 40
0.7623441021026188
 40
0.818125894970528
 40
0.8757832932928912
 40
0.936047660364246
 40
1.0
 40
1.0
 40
1.0
 40
1.0
 10
1.580733196394012
 20
-8.003664769485324
 30
0.0
 10
1.58070472947779
 20
-8.00624574601541
 30
0.0
 10
1.580648969583385
 20
-8.01130126301129
 30
0.0
 10
1.579993755066136
 20
-8.018696335210153
 30
0.0
 10
1.579014819755999
 20
-8.025754625251386
 30
0.0
 10
1.577617396420464
 20
-8.03244990463771
 30
0.0
 10
1.575842010303374
 20
-8.038757860211572
 30
0.0
 10
1.573574012533423
 20
-8.044597615544413
 30
0.0
 10
1.570932093465091
 20
-8.049988654517989
 30
0.0
 10
1.567861475049007
 20
-8.054915257819014
 30
0.0
 10
1.564411576585105
 20
-8.059362072274162
 30
0.0
 10
1.560526136696703
 20
-8.063282141759757
 30
0.0
 10
1.556244115788218
 20
-8.06666347667005
 30
0.0
 10
1.551548720561977
 20
-8.069492026259976
 30
0.0
 10
1.546460087519378
 20
-8.07177813903093
 30
0.0
 10
1.540918905279959
 20
-8.073338755904674
 30
0.0
 10
1.534973152878685
 20
-8.07434279828897
 30
0.0
 10
1.53086367528254
 20
-8.074444613787842
 30
0.0
 10
1.528747931644498
 20
-8.074497032979561
 30
0.0
  0
SPLINE
  5
103
330
1F
100
AcDbEntity
  8
0
  6
Continuous
 62
     7
370
    25
100
AcDbSpline
210
0.0
220
0.0
230
1.0
 70
     8
 71
     3
 72
    23
 73
    19
 74
     0
 42
0.000000001
 43
0.00000001
 40
0.0
 40
0.0
 40
0.0
 40
0.0
 40
0.0780571773226007
 40
0.1528953797159965
 40
0.2244050960279733
 40
0.2935217579714743
 40
0.3596501501458854
 40
0.422407773133539
 40
0.4827763733646402
 40
0.5410112827101435
 40
0.5977233569694076
 40
0.6526799259337914
 40
0.7075716004456983
 40
0.7623441021026188
 40
0.818125894970528
 40
0.8757832932928912
 40
0.936047660364246
 40
1.0
 40
1.0
 40
1.0
 40
1.0
 10
1.345083304804374
 20
-8.003664769485326
 30
0.0
 10
1.345054837888151
 20
-8.006245746015408
 30
0.0
 10
1.344999077993746
 20
-8.01130126301129
 30
0.0
 10
1.344343863476498
 20
-8.018696335210155
 30
0.0
 10
1.34336492816636
 20
-8.025754625251386
 30
0.0
 10
1.341967504830825
 20
-8.032449904637716
 30
0.0
 10
1.340192118713735
 20
-8.03875786021157
 30
0.0
 10
1.337924120943784
 20
-8.044597615544417
 30
0.0
 10
1.335282201875451
 20
-8.049988654517989
 30
0.0
 10
1.332211583459368
 20
-8.054915257819012
 30
0.0
 10
1.328761684995466
 20
-8.059362072274165
 30
0.0
 10
1.324876245107065
 20
-8.063282141759757
 30
0.0
 10
1.32059422419858
 20
-8.066663476670051
 30
0.0
 10
1.315898828972339
 20
-8.06949202625998
 30
0.0
 10
1.31081019592974
 20
-8.071778139030933
 30
0.0
 10
1.30526901369032
 20
-8.073338755904675
 30
0.0
 10
1.299323261289046
 20
-8.074342798288972
 30
0.0
 10
1.295213783692902
 20
-8.074444613787842
 30
0.0
 10
1.293098040054859
 20
-8.074497032979563
 30
0.0
  0
SPLINE
  5
104
330
1F
100
AcDbEntity
  8
0
  6
Continuous
 62
     7
370
    25
100
AcDbSpline
210
0.0
220
0.0
230
1.0
 70
     8
 71
     3
 72
    23
 73
    19
 74
     0
 42
0.000000001
 43
0.00000001
 40
0.0
 40
0.0
 40
0.0
 40
0.0
 40
0.0780848440505833
 40
0.1529009613470063
 40
0.2237223063448684
 40
0.2919265821737986
 40
0.3574959536232689
 40
0.4196240080665477
 40
0.4799254746027383
 40
0.5379653131490366
 40
0.5949154670310118
 40
0.6506273919194058
 40
0.7066601510257843
 40
0.7626295246377625
 40
0.8196077197384353
 40
0.8777147941794434
 40
0.9373711801021779
 40
1.0
 40
1.0
 40
1.0
 40
1.0
 10
0.925394342690943
 20
-8.05852076914298
 30
0.0
 10
0.9267575670608347
 20
-8.058496526335128
 30
0.0
 10
0.9294269495667801
 20
-8.058449055552911
 30
0.0
 10
0.9333215490486158
 20
-8.058087378236145
 30
0.0
 10
0.9369962066598965
 20
-8.057411130167434
 30
0.0
 10
0.940467292570724
 20
-8.05655645338963
 30
0.0
 10
0.9437058756299963
 20
-8.055439997173876
 30
0.0
 10
0.9466983198657208
 20
-8.054082777955069
 30
0.0
 10
0.9494509045885005
 20
-8.0525386629348
 30
0.0
 10
0.9519359677498805
 20
-8.050741919198451
 30
0.0
 10
0.9541579701049571
 20
-8.048746933394135
 30
0.0
 10
0.9561124626745376
 20
-8.046536087230482
 30
0.0
 10
0.9578066751427498
 20
-8.044139294521143
 30
0.0
 10
0.9591833543605378
 20
-8.041521251385364
 30
0.0
 10
0.9602706682169172
 20
-8.038734792487553
 30
0.0
 10
0.9610971753514018
 20
-8.035792131892077
 30
0.0
 10
0.9615669444881464
 20
-8.032668096268695
 30
0.0
 10
0.9616238356880995
 20
-8.030532652032244
 30
0.0
 10
0.9616529727263186
 20
-8.029438976377946
 30
0.0
  0
SPLINE
  5
106
330
1F
100
AcDbEntity
  8
0
  6
Continuous
 62
     7
370
    25
100
AcDbSpline
210
0.0
220
0.0
230
1.0
 70
     8
 71
     3
 72
    11
 73
     7
 74
     0
 42
0.000000001
 43
0.00000001
 40
0.0
 40
0.0
 40
0.0
 40
0.0
 40
0.2387446587693798
 40
0.4916491671923983
 40
0.7478254505933378
 40
1.0
 40
1.0
 40
1.0
 40
1.0
 10
0.4923502225266144
 20
-7.984942585301835
 30
0.0
 10
0.4907928122889401
 20
-7.984291176407287
 30
0.0
 10
0.4875856224390128
 20
-7.982949723818745
 30
0.0
 10
0.4824523960001368
 20
-7.981639565301454
 30
0.0
 10
0.4771289149449104
 20
-7.980810675330239
 30
0.0
 10
0.4735374275440657
 20
-7.980694241547876
 30
0.0
 10
0.471755819924766
 20
-7.98063648293963
 30
0.0
  0
SPLINE
  5
107
330
1F
100
AcDbEntity
  8
0
  6
Continuous
 62
     7
370
    25
100
AcDbSpline
210
0.0
220
0.0
230
1.0
 70
     8
 71
     3
 72
    15
 73
    11
 74
     0
 42
0.000000001
 43
0.00000001
 40
0.0
 40
0.0
 40
0.0
 40
0.0
 40
0.0866522868097653
 40
0.1790937987740107
 40
0.2816360189581742
 40
0.3962817064059433
 40
0.5243081875869292
 40
0.666892616065997
 40
0.8259696079683513
 40
1.0
 40
1.0
 40
1.0
 40
1.0
 10
0.4617706550269004
 20
-8.058520769142985
 30
0.0
 10
0.4629457045240025
 20
-8.05845005500392
 30
0.0
 10
0.4653743083835344
 20
-8.05830390232569
 30
0.0
 10
0.4689896227494728
 20
-8.056983806945082
 30
0.0
 10
0.4727008762724734
 20
-8.055033969840041
 30
0.0
 10
0.476474319988643
 20
-8.052259456950186
 30
0.0
 10
0.4803460883489092
 20
-8.048766537619501
 30
0.0
 10
0.4843083721250586
 20
-8.044509789668576
 30
0.0
 10
0.4883855224793262
 20
-8.039528901266126
 30
0.0
 10
0.4909896882966341
 20
-8.035852841029309
 30
0.0
 10
0.4923502225266149
 20
-8.033932300581991
 30
0.0
  0
SPLINE
  5
108
330
1F
100
AcDbEntity
  8
0
  6
Continuous
 62
     7
370
    25
100
AcDbSpline
210
0.0
220
0.0
230
1.0
 70
     8
 71
     3
 72
    23
 73
    19
 74
     0
 42
0.000000001
 43
0.00000001
 40
0.0
 40
0.0
 40
0.0
 40
0.0
 40
0.0948615558037576
 40
0.1840836117436313
 40
0.2672354164972745
 40
0.3445630865487788
 40
0.4162266725088908
 40
0.4831307478360178
 40
0.5452477986023412
 40
0.6031494328676545
 40
0.6577137000770596
 40
0.7090797169128834
 40
0.7580514808472663
 40
0.8058777960051763
 40
0.853164415311732
 40
0.9003815082152368
 40
0.9492735442774801
 40
1.0
 40
1.0
 40
1.0
 40
1.0
 10
0.4404273650577117
 20
-8.020577142531096
 30
0.0
 10
0.4404472150442704
 20
-8.022116829418461
 30
0.0
 10
0.440485734939795
 20
-8.025104669126332
 30
0.0
 10
0.4407278570512633
 20
-8.029437096340148
 30
0.0
 10
0.4411554904804028
 20
-8.033469475056478
 30
0.0
 10
0.4417793049848618
 20
-8.037187750471018
 30
0.0
 10
0.4425585146886058
 20
-8.040606067129053
 30
0.0
 10
0.4434773630997704
 20
-8.043734067591592
 30
0.0
 10
0.4445942349595995
 20
-8.046561196115753
 30
0.0
 10
0.4459177884489267
 20
-8.049071502738096
 30
0.0
 10
0.4473715552074744
 20
-8.051305099934766
 30
0.0
 10
0.4490120021715123
 20
-8.05321868030142
 30
0.0
 10
0.4507693729659634
 20
-8.054868114300678
 30
0.0
 10
0.4526831722608447
 20
-8.056227144990386
 30
0.0
 10
0.454758665167922
 20
-8.057263412481158
 30
0.0
 10
0.4569791545235265
 20
-8.057981975484694
 30
0.0
 10
0.4593293528096057
 20
-8.058428610955252
 30
0.0
 10
0.4609469585150849
 20
-8.058489674927271
 30
0.0
 10
0.4617706550269004
 20
-8.058520769142985
 30
0.0
  0
SPLINE
  5
109
330
1F
100
AcDbEntity
  8
0
  6
Continuous
 62
     7
370
    25
100
AcDbSpline
210
0.0
220
0.0
230
1.0
 70
     8
 71
     3
 72
    23
 73
    19
 74
     0
 42
0.000000001
 43
0.00000001
 40
0.0
 40
0.0
 40
0.0
 40
0.0
 40
0.0620911149973776
 40
0.1213701401113635
 40
0.178018793157403
 40
0.2329542541983506
 40
0.2862716343566358
 40
0.338938359702286
 40
0.3921874804801903
 40
0.4467429262722324
 40
0.5026262314552435
 40
0.5611021982728669
 40
0.6227229192604172
 40
0.6885666838929854
 40
0.7583096945203078
 40
0.8335264032140962
 40
0.9136669315493543
 40
1.0
 40
1.0
 40
1.0
 40
1.0
 10
0.471755819924766
 20
-7.98063648293963
 30
0.0
 10
0.4705586658016089
 20
-7.980669054988826
 30
0.0
 10
0.4682185763432608
 20
-7.980732723907874
 30
0.0
 10
0.4648033246072075
 20
-7.981152850098558
 30
0.0
 10
0.4616005645120278
 20
-7.981952324510063
 30
0.0
 10
0.4585954564859599
 20
-7.983005451610117
 30
0.0
 10
0.4557894094289624
 20
-7.984348205100688
 30
0.0
 10
0.4532068715448505
 20
-7.986024112896333
 30
0.0
 10
0.450823276817064
 20
-7.988006762741369
 30
0.0
 10
0.4486277960407777
 20
-7.99028507833318
 30
0.0
 10
0.446680133566535
 20
-7.992905753325133
 30
0.0
 10
0.4449840164223871
 20
-7.995855050345112
 30
0.0
 10
0.4435992849925998
 20
-7.999169213481195
 30
0.0
 10
0.4424074215266376
 20
-8.00278412817112
 30
0.0
 10
0.4415013807893747
 20
-8.006753796143908
 30
0.0
 10
0.4409162252806501
 20
-8.011057080938393
 30
0.0
 10
0.4404790981578694
 20
-8.01570055085096
 30
0.0
 10
0.4404450318279801
 20
-8.018911794337315
 30
0.0
 10
0.4404273650577117
 20
-8.020577142531096
 30
0.0
  0
SPLINE
  5
10B
330
1F
100
AcDbEntity
  8
0
  6
Continuous
 62
     7
370
    25
100
AcDbSpline
210
0.0
220
0.0
230
1.0
 70
     8
 71
     3
 72
    11
 73
     7
 74
     0
 42
0.000000001
 43
0.00000001
 40
0.0
 40
0.0
 40
0.0
 40
0.0
 40
0.2539187888215199
 40
0.5082690783223827
 40
0.7561564653974546
 40
1.0
 40
1.0
 40
1.0
 40
1.0
 10
1.325112975008641
 20
-8.004725693255724
 30
0.0
 10
1.325105584187691
 20
-8.003529036006348
 30
0.0
 10
1.325090789986089
 20
-8.001133687950261
 30
0.0
 10
1.324828942669904
 20
-7.997579365201494
 30
0.0
 10
1.324602079015785
 20
-7.994071646816162
 30
0.0
 10
1.324380403152851
 20
-7.991765325324044
 30
0.0
 10
1.324270476720384
 20
-7.990621647837488
 30
0.0
  0
SPLINE
  5
10C
330
1F
100
AcDbEntity
  8
0
  6
Continuous
 62
     7
370
    25
100
AcDbSpline
210
0.0
220
0.0
230
1.0
 70
     8
 71
     3
 72
    17
 73
    13
 74
     0
 42
0.000000001
 43
0.00000001
 40
0.0
 40
0.0
 40
0.0
 40
0.0
 40
0.1369635289454066
 40
0.2671950928647384
 40
0.3919768706084532
 40
0.5111291310158633
 40
0.6280858786100619
 40
0.7447240499558696
 40
0.8047561791511112
 40
0.8670450387006061
 40
0.9321351746682024
 40
1.0
 40
1.0
 40
1.0
 40
1.0
 10
1.267105407680101
 20
-8.0345563733881
 30
0.0
 10
1.267665193503215
 20
-8.036253919354545
 30
0.0
 10
1.268757250827841
 20
-8.039565574330425
 30
0.0
 10
1.270913433219543
 20
-8.04421359761305
 30
0.0
 10
1.273498536009425
 20
-8.04837632833382
 30
0.0
 10
1.276674582486567
 20
-8.051879264609713
 30
0.0
 10
1.280275445040645
 20
-8.054783460263087
 30
0.0
 10
1.283715355311161
 20
-8.056526166187544
 30
0.0
 10
1.286654211514027
 20
-8.057572134293471
 30
0.0
 10
1.289038165578661
 20
-8.058138002785709
 30
0.0
 10
1.29157195197385
 20
-8.058435058266458
 30
0.0
 10
1.293305370504035
 20
-8.058491804100433
 30
0.0
 10
1.294190167465563
 20
-8.058520769142978
 30
0.0
  0
SPLINE
  5
10D
330
1F
100
AcDbEntity
  8
0
  6
Continuous
 62
     7
370
    25
100
AcDbSpline
210
0.0
220
0.0
230
1.0
 70
     8
 71
     3
 72
    23
 73
    19
 74
     0
 42
0.000000001
 43
0.00000001
 40
0.0
 40
0.0
 40
0.0
 40
0.0
 40
0.0497703177215132
 40
0.0981213906708493
 40
0.1458143641531145
 40
0.1936801658877679
 40
0.2426576094568622
 40
0.2925036577654569
 40
0.344713166747743
 40
0.4000673873688878
 40
0.4588479512838081
 40
0.5215784588691904
 40
0.588978124250633
 40
0.6610400881690423
 40
0.7377361484837156
 40
0.8196189073590037
 40
0.9069643866908126
 40
1.0
 40
1.0
 40
1.0
 40
1.0
 10
1.294190167465563
 20
-8.058520769142978
 30
0.0
 10
1.295337944725935
 20
-8.05848134118643
 30
0.0
 10
1.297600769359651
 20
-8.058403609596503
 30
0.0
 10
1.30090032573768
 20
-8.057709683102308
 30
0.0
 10
1.304060609836049
 20
-8.056673139089124
 30
0.0
 10
1.307006943576734
 20
-8.055096279031053
 30
0.0
 10
1.309799830166868
 20
-8.053178211996142
 30
0.0
 10
1.312341214693865
 20
-8.050786276241345
 30
0.0
 10
1.314703019988145
 20
-8.048025414318287
 30
0.0
 10
1.316814960350206
 20
-8.044817553698477
 30
0.0
 10
1.318716164054547
 20
-8.041208801613843
 30
0.0
 10
1.320407449958904
 20
-8.03719323303536
 30
0.0
 10
1.321829614492614
 20
-8.032752312412308
 30
0.0
 10
1.322992728423947
 20
-8.027908157210797
 30
0.0
 10
1.323975619703413
 20
-8.022683934932534
 30
0.0
 10
1.324642540522774
 20
-8.01705506992083
 30
0.0
 10
1.325054483741124
 20
-8.011024689644664
 30
0.0
 10
1.325093072161346
 20
-8.006869055309046
 30
0.0
 10
1.325112975008641
 20
-8.004725693255724
 30
0.0
  0
SPLINE
  5
10F
330
1F
100
AcDbEntity
  8
0
  6
Continuous
 62
     7
370
    25
100
AcDbSpline
210
0.0
220
0.0
230
1.0
 70
     8
 71
     3
 72
    11
 73
     7
 74
     0
 42
0.000000001
 43
0.00000001
 40
0.0
 40
0.0
 40
0.0
 40
0.0
 40
0.2539190867665449
 40
0.5078492624291698
 40
0.7572029382484667
 40
1.0
 40
1.0
 40
1.0
 40
1.0
 10
1.263204952641872
 20
-8.003446344003185
 30
0.0
 10
1.26320365494864
 20
-8.004559279706326
 30
0.0
 10
1.263201059505504
 20
-8.006785199715603
 30
0.0
 10
1.263220409033103
 20
-8.010103940130533
 30
0.0
 10
1.263330494521103
 20
-8.013373494709935
 30
0.0
 10
1.263518064442879
 20
-8.015522760388581
 30
0.0
 10
1.263610599965848
 20
-8.016583076571939
 30
0.0
  0
SPLINE
  5
110
330
1F
100
AcDbEntity
  8
0
  6
Continuous
 62
     7
370
    25
100
AcDbSpline
210
0.0
220
0.0
230
1.0
 70
     8
 71
     3
 72
    17
 73
    13
 74
     0
 42
0.000000001
 43
0.00000001
 40
0.0
 40
0.0
 40
0.0
 40
0.0
 40
0.1387365904530871
 40
0.2705246439382422
 40
0.3946796776022856
 40
0.5150076000519827
 40
0.6312935000296496
 40
0.7486775075559183
 40
0.8085107281699964
 40
0.8698149290498726
 40
0.9339144989468157
 40
1.0
 40
1.0
 40
1.0
 40
1.0
 10
1.320806872646436
 20
-7.972648351021329
 30
0.0
 10
1.320263578986857
 20
-7.970938166075626
 30
0.0
 10
1.319204202197134
 20
-7.96760344974741
 30
0.0
 10
1.317006716730803
 20
-7.962984372633822
 30
0.0
 10
1.314418210803014
 20
-7.958852316965836
 30
0.0
 10
1.31132654971298
 20
-7.955332562280709
 30
0.0
 10
1.307738938976262
 20
-7.952455121213767
 30
0.0
 10
1.304359038369657
 20
-7.950679863315855
 30
0.0
 10
1.301454522092761
 20
-7.949638408949011
 30
0.0
 10
1.299124780520373
 20
-7.949065533848207
 30
0.0
 10
1.296662782849655
 20
-7.948771252697462
 30
0.0
 10
1.294981317808327
 20
-7.948713348844969
 30
0.0
 10
1.29412776018495
 20
-7.948683955266451
 30
0.0
  0
SPLINE
  5
111
330
1F
100
AcDbEntity
  8
0
  6
Continuous
 62
     7
370
    25
100
AcDbSpline
210
0.0
220
0.0
230
1.0
 70
     8
 71
     3
 72
    23
 73
    19
 74
     0
 42
0.000000001
 43
0.00000001
 40
0.0
 40
0.0
 40
0.0
 40
0.0
 40
0.0491505322326707
 40
0.0968994934263284
 40
0.1437233254424918
 40
0.1913889259559637
 40
0.2400127248240437
 40
0.2898482659348939
 40
0.3423761739130013
 40
0.3977853390988997
 40
0.4570190293977501
 40
0.5200344720648574
 40
0.5874438107696599
 40
0.6595811003141725
 40
0.7365590059663134
 40
0.819192878211366
 40
0.9067854365879743
 40
1.0
 40
1.0
 40
1.0
 40
1.0
 10
1.29412776018495
 20
-7.948683955266451
 30
0.0
 10
1.292980487479745
 20
-7.948724766640619
 30
0.0
 10
1.290718657568527
 20
-7.948805225616408
 30
0.0
 10
1.287418156896798
 20
-7.94947794529896
 30
0.0
 10
1.284281944203615
 20
-7.950588469719857
 30
0.0
 10
1.281307237115338
 20
-7.95212453663699
 30
0.0
 10
1.278507224476585
 20
-7.95409243722788
 30
0.0
 10
1.275978128940666
 20
-7.95655637073986
 30
0.0
 10
1.273580044461578
 20
-7.959357577648613
 30
0.0
 10
1.271467698918192
 20
-7.96264725327709
 30
0.0
 10
1.26956450163675
 20
-7.96633427590062
 30
0.0
 10
1.267923238456231
 20
-7.970448875533193
 30
0.0
 10
1.266496651512145
 20
-7.974956082097061
 30
0.0
 10
1.265270934456852
 20
-7.979859937951424
 30
0.0
 10
1.264355271595017
 20
-7.985191433721423
 30
0.0
 10
1.263673362004959
 20
-7.990918998659423
 30
0.0
 10
1.263264356109386
 20
-7.997054021144271
 30
0.0
 10
1.263225160050951
 20
-8.001271853381954
 30
0.0
 10
1.263204952641872
 20
-8.003446344003185
 30
0.0
  0
SPLINE
  5
113
330
1F
100
AcDbEntity
  8
0
  6
Continuous
 62
     7
370
    25
100
AcDbSpline
210
0.0
220
0.0
230
1.0
 70
     8
 71
     3
 72
    11
 73
     7
 74
     0
 42
0.000000001
 43
0.00000001
 40
0.0
 40
0.0
 40
0.0
 40
0.0
 40
0.2539190867665449
 40
0.5078492624291698
 40
0.7572029382484667
 40
1.0
 40
1.0
 40
1.0
 40
1.0
 10
1.381029898436692
 20
-8.003446344003184
 30
0.0
 10
1.381028600743459
 20
-8.004559279706324
 30
0.0
 10
1.381026005300323
 20
-8.006785199715601
 30
0.0
 10
1.381045354827923
 20
-8.01010394013053
 30
0.0
 10
1.381155440315923
 20
-8.013373494709935
 30
0.0
 10
1.3813430102377
 20
-8.01552276038858
 30
0.0
 10
1.381435545760668
 20
-8.016583076571939
 30
0.0
  0
SPLINE
  5
114
330
1F
100
AcDbEntity
  8
0
  6
Continuous
 62
     7
370
    25
100
AcDbSpline
210
0.0
220
0.0
230
1.0
 70
     8
 71
     3
 72
    17
 73
    13
 74
     0
 42
0.000000001
 43
0.00000001
 40
0.0
 40
0.0
 40
0.0
 40
0.0
 40
0.1387365904530871
 40
0.2705246439382422
 40
0.3946796776022856
 40
0.5150076000519827
 40
0.6312935000296496
 40
0.7486775075559183
 40
0.8085107281699964
 40
0.8698149290498726
 40
0.9339144989468157
 40
1.0
 40
1.0
 40
1.0
 40
1.0
 10
1.438631818441256
 20
-7.972648351021328
 30
0.0
 10
1.438088524781677
 20
-7.970938166075625
 30
0.0
 10
1.437029147991954
 20
-7.96760344974741
 30
0.0
 10
1.434831662525623
 20
-7.962984372633821
 30
0.0
 10
1.432243156597833
 20
-7.958852316965835
 30
0.0
 10
1.4291514955078
 20
-7.955332562280708
 30
0.0
 10
1.425563884771082
 20
-7.952455121213766
 30
0.0
 10
1.422183984164476
 20
-7.950679863315854
 30
0.0
 10
1.419279467887581
 20
-7.949638408949009
 30
0.0
 10
1.416949726315193
 20
-7.949065533848205
 30
0.0
 10
1.414487728644474
 20
-7.94877125269746
 30
0.0
 10
1.412806263603148
 20
-7.948713348844966
 30
0.0
 10
1.41195270597977
 20
-7.948683955266449
 30
0.0
  0
SPLINE
  5
115
330
1F
100
AcDbEntity
  8
0
  6
Continuous
 62
     7
370
    25
100
AcDbSpline
210
0.0
220
0.0
230
1.0
 70
     8
 71
     3
 72
    23
 73
    19
 74
     0
 42
0.000000001
 43
0.00000001
 40
0.0
 40
0.0
 40
0.0
 40
0.0
 40
0.0491505322326707
 40
0.0968994934263284
 40
0.1437233254424918
 40
0.1913889259559637
 40
0.2400127248240437
 40
0.2898482659348939
 40
0.3423761739130013
 40
0.3977853390988997
 40
0.4570190293977501
 40
0.5200344720648574
 40
0.5874438107696599
 40
0.6595811003141725
 40
0.7365590059663134
 40
0.819192878211366
 40
0.9067854365879743
 40
1.0
 40
1.0
 40
1.0
 40
1.0
 10
1.41195270597977
 20
-7.948683955266449
 30
0.0
 10
1.410805433274565
 20
-7.948724766640616
 30
0.0
 10
1.408543603363347
 20
-7.948805225616407
 30
0.0
 10
1.405243102691617
 20
-7.949477945298959
 30
0.0
 10
1.402106889998434
 20
-7.950588469719857
 30
0.0
 10
1.399132182910158
 20
-7.952124536636989
 30
0.0
 10
1.396332170271405
 20
-7.954092437227879
 30
0.0
 10
1.393803074735485
 20
-7.956556370739859
 30
0.0
 10
1.391404990256398
 20
-7.959357577648611
 30
0.0
 10
1.389292644713011
 20
-7.962647253277089
 30
0.0
 10
1.387389447431569
 20
-7.966334275900619
 30
0.0
 10
1.38574818425105
 20
-7.970448875533192
 30
0.0
 10
1.384321597306965
 20
-7.97495608209706
 30
0.0
 10
1.383095880251671
 20
-7.979859937951423
 30
0.0
 10
1.382180217389837
 20
-7.985191433721422
 30
0.0
 10
1.381498307799778
 20
-7.990918998659422
 30
0.0
 10
1.381089301904205
 20
-7.99705402114427
 30
0.0
 10
1.381050105845771
 20
-8.001271853381953
 30
0.0
 10
1.381029898436692
 20
-8.003446344003184
 30
0.0
  0
SPLINE
  5
116
330
1F
100
AcDbEntity
  8
0
  6
Continuous
 62
     7
370
    25
100
AcDbSpline
210
0.0
220
0.0
230
1.0
 70
     8
 71
     3
 72
    23
 73
    19
 74
     0
 42
0.000000001
 43
0.00000001
 40
0.0
 40
0.0
 40
0.0
 40
0.0
 40
0.0847824514993376
 40
0.1636991757076144
 40
0.2387193742497254
 40
0.308557122874512
 40
0.3747615590799624
 40
0.4371112462425985
 40
0.4964262280525643
 40
0.5535827873238458
 40
0.608444494451476
 40
0.6629345660245146
 40
0.7166443376812506
 40
0.7708649058254526
 40
0.8259157819314336
 40
0.881456616506247
 40
0.939877902758988
 40
1.0
 40
1.0
 40
1.0
 40
1.0
 10
0.6161662672601542
 20
-8.019516218760694
 30
0.0
 10
0.6161476073895168
 20
-8.017944549864588
 30
0.0
 10
0.6161115786431416
 20
-8.014909948974571
 30
0.0
 10
0.615684814973794
 20
-8.010502355395255
 30
0.0
 10
0.6150522181643222
 20
-8.006401377373702
 30
0.0
 10
0.614145697155941
 20
-8.002591372133583
 30
0.0
 10
0.6129921827219375
 20
-7.99909671009676
 30
0.0
 10
0.611631607472104
 20
-7.99588560776931
 30
0.0
 10
0.6099923679797395
 20
-7.992997728394283
 30
0.0
 10
0.6081549461807172
 20
-7.990402373547322
 30
0.0
 10
0.6061077123045093
 20
-7.988083426096047
 30
0.0
 10
0.6038252715153569
 20
-7.986091554460459
 30
0.0
 10
0.6013391592592767
 20
-7.984381559618219
 30
0.0
 10
0.5986393118208715
 20
-7.983009514481442
 30
0.0
 10
0.5957667374488185
 20
-7.981952009715369
 30
0.0
 10
0.5927210904123458
 20
-7.981202386494618
 30
0.0
 10
0.5895232214546158
 20
-7.980722208207947
 30
0.0
 10
0.5873254331788619
 20
-7.980665330050424
 30
0.0
 10
0.5862107725665558
 20
-7.980636482939629
 30
0.0
  0
SPLINE
  5
117
330
1F
100
AcDbEntity
  8
0
  6
Continuous
 62
     7
370
    25
100
AcDbSpline
210
0.0
220
0.0
230
1.0
 70
     8
 71
     3
 72
    23
 73
    19
 74
     0
 42
0.000000001
 43
0.00000001
 40
0.0
 40
0.0
 40
0.0
 40
0.0
 40
0.0845898078992149
 40
0.1644424881550798
 40
0.2387392311760434
 40
0.308962993651885
 40
0.3755489675437754
 40
0.4377569830751876
 40
0.4974253410286484
 40
0.5541294128800269
 40
0.609240449497999
 40
0.663186885191215
 40
0.7164606092776824
 40
0.7700600439458163
 40
0.8246594190858901
 40
0.8811612676083878
 40
0.9388957093794706
 40
1.0
 40
1.0
 40
1.0
 40
1.0
 10
0.556255277872958
 20
-8.019516218760696
 30
0.0
 10
0.5562750717252486
 20
-8.021087771039262
 30
0.0
 10
0.5563135509510757
 20
-8.024142866840652
 30
0.0
 10
0.5567284189153586
 20
-8.028562334840208
 30
0.0
 10
0.5573768713923848
 20
-8.032681694517349
 30
0.0
 10
0.5582764527425363
 20
-8.03650271358864
 30
0.0
 10
0.5594224907065953
 20
-8.04002127379088
 30
0.0
 10
0.5607965619765084
 20
-8.043247794776335
 30
0.0
 10
0.5624266899494784
 20
-8.046141553701041
 30
0.0
 10
0.5642288912911911
 20
-8.048777604869471
 30
0.0
 10
0.5663178831500958
 20
-8.05104864097604
 30
0.0
 10
0.5685542316603296
 20
-8.053082069585074
 30
0.0
 10
0.5710566463140464
 20
-8.054731772699661
 30
0.0
 10
0.5737238419733185
 20
-8.056110231989068
 30
0.0
 10
0.5765807711666522
 20
-8.057230826342375
 30
0.0
 10
0.5796420506077411
 20
-8.057938634225787
 30
0.0
 10
0.582865840468158
 20
-8.058443005590888
 30
0.0
 10
0.5850749146731793
 20
-8.058494362524895
 30
0.0
 10
0.5862107725665564
 20
-8.058520769142984
 30
0.0
  0
SPLINE
  5
118
330
1F
100
AcDbEntity
  8
0
  6
Continuous
 62
     7
370
    25
100
AcDbSpline
210
0.0
220
0.0
230
1.0
 70
     8
 71
     3
 72
    23
 73
    19
 74
     0
 42
0.000000001
 43
0.00000001
 40
0.0
 40
0.0
 40
0.0
 40
0.0
 40
0.0694148555325561
 40
0.1346555816847989
 40
0.1963674015016221
 40
0.2561305804665467
 40
0.3136727079370336
 40
0.3709824527894835
 40
0.427992028146084
 40
0.4858343080079992
 40
0.5445137200312623
 40
0.6045183137748809
 40
0.6660728992026332
 40
0.730492708010492
 40
0.7961606101474755
 40
0.8632832969540273
 40
0.9306469656364903
 40
0.9999999999999999
 40
0.9999999999999999
 40
0.9999999999999999
 40
0.9999999999999999
 10
0.5862107725665558
 20
-7.980636482939629
 30
0.0
 10
0.5849279853064115
 20
-7.980662689452793
 30
0.0
 10
0.5824395487409628
 20
-7.980713526600647
 30
0.0
 10
0.5788672771696133
 20
-7.981383636955008
 30
0.0
 10
0.5755398090033039
 20
-7.982310950099153
 30
0.0
 10
0.5725439408784451
 20
-7.983739420357991
 30
0.0
 10
0.569832827800095
 20
-7.985488969413916
 30
0.0
 10
0.5673483472995023
 20
-7.987474162469222
 30
0.0
 10
0.5651649560728291
 20
-7.989791550420974
 30
0.0
 10
0.5631800867257095
 20
-7.992311412484852
 30
0.0
 10
0.5615005158399441
 20
-7.99511202219489
 30
0.0
 10
0.560076198633242
 20
-7.998120467281143
 30
0.0
 10
0.5588330732170425
 20
-8.00132472458885
 30
0.0
 10
0.5579048428098988
 20
-8.004740822396409
 30
0.0
 10
0.5571313091393865
 20
-8.008300180786915
 30
0.0
 10
0.5566813474825988
 20
-8.011968045404673
 30
0.0
 10
0.5562854046764197
 20
-8.015711402024111
 30
0.0
 10
0.5562654170872938
 20
-8.018235702809172
 30
0.0
 10
0.556255277872958
 20
-8.019516218760696
 30
0.0
  0
SPLINE
  5
119
330
1F
100
AcDbEntity
  8
0
  6
Continuous
 62
     7
370
    25
100
AcDbSpline
210
0.0
220
0.0
230
1.0
 70
     8
 71
     3
 72
    23
 73
    19
 74
     0
 42
0.000000001
 43
0.00000001
 40
0.0
 40
0.0
 40
0.0
 40
0.0
 40
0.0692587599818927
 40
0.1342579533714989
 40
0.1959926056736282
 40
0.2551126353384242
 40
0.312999961339559
 40
0.370180831816164
 40
0.4270622077982777
 40
0.4844308467535862
 40
0.543272006799056
 40
0.6031416661682942
 40
0.6645578317025745
 40
0.7288327774915252
 40
0.7949034583491331
 40
0.8613964728442508
 40
0.9302406774209568
 40
1.0
 40
1.0
 40
1.0
 40
1.0
 10
0.5862107725665564
 20
-8.058520769142984
 30
0.0
 10
0.5874926978824834
 20
-8.058489952162834
 30
0.0
 10
0.5899777072782117
 20
-8.058430213514827
 30
0.0
 10
0.5935629822988787
 20
-8.057823123152293
 30
0.0
 10
0.5968698826967985
 20
-8.05684417775794
 30
0.0
 10
0.5998576013228514
 20
-8.05540252216241
 30
0.0
 10
0.6025858504682752
 20
-8.053679314085562
 30
0.0
 10
0.6050698053241782
 20
-8.051679907694014
 30
0.0
 10
0.6072618154688996
 20
-8.049377582156822
 30
0.0
 10
0.6092014613874122
 20
-8.046825422001582
 30
0.0
 10
0.6109289340110939
 20
-8.044056796680797
 30
0.0
 10
0.6123428786207235
 20
-8.04103499737797
 30
0.0
 10
0.6135877331423224
 20
-8.037832812592294
 30
0.0
 10
0.6145253135658418
 20
-8.034407404746418
 30
0.0
 10
0.6152687169596679
 20
-8.030842105674607
 30
0.0
 10
0.6158032977196417
 20
-8.027153584910636
 30
0.0
 10
0.6161189149711543
 20
-8.02337033022991
 30
0.0
 10
0.6161504138409507
 20
-8.020806564931227
 30
0.0
 10
0.6161662672601542
 20
-8.019516218760694
 30
0.0
  0
SPLINE
  5
11B
330
1F
100
AcDbEntity
  8
0
  6
Continuous
 62
     7
370
    25
100
AcDbSpline
210
0.0
220
0.0
230
1.0
 70
     8
 71
     3
 72
    11
 73
     7
 74
     0
 42
0.000000001
 43
0.00000001
 40
0.0
 40
0.0
 40
0.0
 40
0.0
 40
0.2539190867665449
 40
0.5078492624291698
 40
0.7572029382484667
 40
1.0
 40
1.0
 40
1.0
 40
1.0
 10
1.498854844231511
 20
-8.003446344003184
 30
0.0
 10
1.498853546538278
 20
-8.004559279706324
 30
0.0
 10
1.498850951095142
 20
-8.006785199715601
 30
0.0
 10
1.498870300622742
 20
-8.010103940130533
 30
0.0
 10
1.498980386110741
 20
-8.013373494709933
 30
0.0
 10
1.499167956032519
 20
-8.015522760388581
 30
0.0
 10
1.499260491555487
 20
-8.016583076571939
 30
0.0
  0
SPLINE
  5
11C
330
1F
100
AcDbEntity
  8
0
  6
Continuous
 62
     7
370
    25
100
AcDbSpline
210
0.0
220
0.0
230
1.0
 70
     8
 71
     3
 72
    23
 73
    19
 74
     0
 42
0.000000001
 43
0.00000001
 40
0.0
 40
0.0
 40
0.0
 40
0.0
 40
0.0491505322326707
 40
0.0968994934263284
 40
0.1437233254424918
 40
0.1913889259559637
 40
0.2400127248240437
 40
0.2898482659348939
 40
0.3423761739130013
 40
0.3977853390988997
 40
0.4570190293977501
 40
0.5200344720648574
 40
0.5874438107696599
 40
0.6595811003141725
 40
0.7365590059663134
 40
0.819192878211366
 40
0.9067854365879743
 40
1.0
 40
1.0
 40
1.0
 40
1.0
 10
1.529777651774589
 20
-7.948683955266449
 30
0.0
 10
1.528630379069384
 20
-7.948724766640616
 30
0.0
 10
1.526368549158165
 20
-7.948805225616407
 30
0.0
 10
1.523068048486436
 20
-7.949477945298959
 30
0.0
 10
1.519931835793253
 20
-7.950588469719854
 30
0.0
 10
1.516957128704976
 20
-7.952124536636989
 30
0.0
 10
1.514157116066224
 20
-7.954092437227879
 30
0.0
 10
1.511628020530304
 20
-7.956556370739859
 30
0.0
 10
1.509229936051217
 20
-7.959357577648611
 30
0.0
 10
1.50711759050783
 20
-7.962647253277087
 30
0.0
 10
1.505214393226388
 20
-7.966334275900618
 30
0.0
 10
1.503573130045869
 20
-7.970448875533194
 30
0.0
 10
1.502146543101783
 20
-7.97495608209706
 30
0.0
 10
1.50092082604649
 20
-7.979859937951423
 30
0.0
 10
1.500005163184656
 20
-7.985191433721421
 30
0.0
 10
1.499323253594597
 20
-7.990918998659422
 30
0.0
 10
1.498914247699024
 20
-7.997054021144271
 30
0.0
 10
1.498875051640589
 20
-8.001271853381951
 30
0.0
 10
1.498854844231511
 20
-8.003446344003184
 30
0.0
  0
SPLINE
  5
11D
330
1F
100
AcDbEntity
  8
0
  6
Continuous
 62
     7
370
    25
100
AcDbSpline
210
0.0
220
0.0
230
1.0
 70
     8
 71
     3
 72
    17
 73
    13
 74
     0
 42
0.000000001
 43
0.00000001
 40
0.0
 40
0.0
 40
0.0
 40
0.0
 40
0.1387365904530871
 40
0.2705246439382422
 40
0.3946796776022856
 40
0.5150076000519827
 40
0.6312935000296496
 40
0.7486775075559183
 40
0.8085107281699964
 40
0.8698149290498726
 40
0.9339144989468157
 40
1.0
 40
1.0
 40
1.0
 40
1.0
 10
1.556456764236075
 20
-7.972648351021328
 30
0.0
 10
1.555913470576496
 20
-7.970938166075624
 30
0.0
 10
1.554854093786773
 20
-7.96760344974741
 30
0.0
 10
1.552656608320441
 20
-7.962984372633821
 30
0.0
 10
1.550068102392652
 20
-7.958852316965834
 30
0.0
 10
1.546976441302619
 20
-7.955332562280708
 30
0.0
 10
1.5433888305659
 20
-7.952455121213767
 30
0.0
 10
1.540008929959295
 20
-7.950679863315854
 30
0.0
 10
1.537104413682399
 20
-7.94963840894901
 30
0.0
 10
1.534774672110012
 20
-7.949065533848206
 30
0.0
 10
1.532312674439293
 20
-7.948771252697461
 30
0.0
 10
1.530631209397967
 20
-7.948713348844966
 30
0.0
 10
1.529777651774589
 20
-7.948683955266449
 30
0.0
  0
LINE
  5
11E
330
1F
100
AcDbEntity
  8
0
  6
Continuous
 62
     7
370
    25
100
AcDbLine
 10
1.5599203683
 20
-7.9906216478
 30
0.0
 11
1.5027552993
 21
-8.0345563734
 31
0.0
  0
LINE
  5
11F
330
1F
100
AcDbEntity
  8
0
  6
Continuous
 62
     7
370
    25
100
AcDbLine
 10
1.4420954225
 20
-7.9906216478
 30
0.0
 11
1.3849303535
 21
-8.0345563734
 31
0.0
  0
LINE
  5
120
330
1F
100
AcDbEntity
  8
0
  6
Continuous
 62
     7
370
    25
100
AcDbLine
 10
0.1434623203
 20
-8.0399233995
 30
0.0
 11
0.1517000813
 21
-7.9666572521
 31
0.0
  0
LINE
  5
121
330
1F
100
AcDbEntity
  8
0
  6
Continuous
 62
     7
370
    25
100
AcDbLine
 10
0.1418709346
 20
-8.0538402231
 30
0.0
 11
0.1434623203
 21
-8.0399233995
 31
0.0
  0
LINE
  5
122
330
1F
100
AcDbEntity
  8
0
  6
Continuous
 62
     7
370
    25
100
AcDbLine
 10
0.1371591849
 20
-8.0407658978
 30
0.0
 11
0.1418709346
 21
-8.0538402231
 31
0.0
  0
LINE
  5
123
330
1F
100
AcDbEntity
  8
0
  6
Continuous
 62
     7
370
    25
100
AcDbLine
 10
0.1206524592
 20
-7.9926186808
 30
0.0
 11
0.1371591849
 21
-8.0407658978
 31
0.0
  0
LINE
  5
124
330
1F
100
AcDbEntity
  8
0
  6
Continuous
 62
     7
370
    25
100
AcDbLine
 10
0.107484523
 20
-7.9926186808
 30
0.0
 11
0.1206524592
 21
-7.9926186808
 31
0.0
  0
LINE
  5
125
330
1F
100
AcDbEntity
  8
0
  6
Continuous
 62
     7
370
    25
100
AcDbLine
 10
0.092475572
 20
-8.0413899706
 30
0.0
 11
0.107484523
 21
-7.9926186808
 31
0.0
  0
LINE
  5
126
330
1F
100
AcDbEntity
  8
0
  6
Continuous
 62
     7
370
    25
100
AcDbLine
 10
0.0879510442
 20
-8.0544954995
 30
0.0
 11
0.092475572
 21
-8.0413899706
 31
0.0
  0
LINE
  5
127
330
1F
100
AcDbEntity
  8
0
  6
Continuous
 62
     7
370
    25
100
AcDbLine
 10
0.0860476221
 20
-8.0393929376
 30
0.0
 11
0.0879510442
 21
-8.0544954995
 31
0.0
  0
LINE
  5
128
330
1F
100
AcDbEntity
  8
0
  6
Continuous
 62
     7
370
    25
100
AcDbLine
 10
0.075906439
 20
-7.9666572521
 30
0.0
 11
0.0860476221
 21
-8.0393929376
 31
0.0
  0
LINE
  5
129
330
1F
100
AcDbEntity
  8
0
  6
Continuous
 62
     7
370
    25
100
AcDbLine
 10
0.0579955495
 20
-7.9666572521
 30
0.0
 11
0.075906439
 21
-7.9666572521
 31
0.0
  0
LINE
  5
12A
330
1F
100
AcDbEntity
  8
0
  6
Continuous
 62
     7
370
    25
100
AcDbLine
 10
0.0745646825
 20
-8.0725
 30
0.0
 11
0.0579955495
 21
-7.9666572521
 31
0.0
  0
LINE
  5
12B
330
1F
100
AcDbEntity
  8
0
  6
Continuous
 62
     7
370
    25
100
AcDbLine
 10
0.0961576016
 20
-8.0725
 30
0.0
 11
0.0745646825
 21
-8.0725
 31
0.0
  0
LINE
  5
12C
330
1F
100
AcDbEntity
  8
0
  6
Continuous
 62
     7
370
    25
100
AcDbLine
 10
0.1105112761
 20
-8.0278475907
 30
0.0
 11
0.0961576016
 21
-8.0725
 31
0.0
  0
LINE
  5
12D
330
1F
100
AcDbEntity
  8
0
  6
Continuous
 62
     7
370
    25
100
AcDbLine
 10
0.1139124729
 20
-8.0162086329
 30
0.0
 11
0.1105112761
 21
-8.0278475907
 31
0.0
  0
LINE
  5
12E
330
1F
100
AcDbEntity
  8
0
  6
Continuous
 62
     7
370
    25
100
AcDbLine
 10
0.1169704296
 20
-8.0272235179
 30
0.0
 11
0.1139124729
 21
-8.0162086329
 31
0.0
  0
LINE
  5
12F
330
1F
100
AcDbEntity
  8
0
  6
Continuous
 62
     7
370
    25
100
AcDbLine
 10
0.1321978061
 20
-8.0725
 30
0.0
 11
0.1169704296
 21
-8.0272235179
 31
0.0
  0
LINE
  5
130
330
1F
100
AcDbEntity
  8
0
  6
Continuous
 62
     7
370
    25
100
AcDbLine
 10
0.154414798
 20
-8.0725
 30
0.0
 11
0.1321978061
 21
-8.0725
 31
0.0
  0
LINE
  5
131
330
1F
100
AcDbEntity
  8
0
  6
Continuous
 62
     7
370
    25
100
AcDbLine
 10
0.1698293963
 20
-7.9666572521
 30
0.0
 11
0.154414798
 21
-8.0725
 31
0.0
  0
LINE
  5
132
330
1F
100
AcDbEntity
  8
0
  6
Continuous
 62
     7
370
    25
100
AcDbLine
 10
0.1517000813
 20
-7.9666572521
 30
0.0
 11
0.1698293963
 21
-7.9666572521
 31
0.0
  0
LINE
  5
133
330
1F
100
AcDbEntity
  8
0
  6
Continuous
 62
     7
370
    25
100
AcDbLine
 10
0.4945032737
 20
-8.0725
 30
0.0
 11
0.4938792009
 21
-8.0524048556
 31
0.0
  0
LINE
  5
134
330
1F
100
AcDbEntity
  8
0
  6
Continuous
 62
     7
370
    25
100
AcDbLine
 10
0.5123205523
 20
-8.0725
 30
0.0
 11
0.4945032737
 21
-8.0725
 31
0.0
  0
LINE
  5
135
330
1F
100
AcDbEntity
  8
0
  6
Continuous
 62
     7
370
    25
100
AcDbLine
 10
0.5123205523
 20
-7.9227225265
 30
0.0
 11
0.5123205523
 21
-8.0725
 31
0.0
  0
LINE
  5
136
330
1F
100
AcDbEntity
  8
0
  6
Continuous
 62
     7
370
    25
100
AcDbLine
 10
0.4923502225
 20
-7.9227225265
 30
0.0
 11
0.5123205523
 21
-7.9227225265
 31
0.0
  0
LINE
  5
137
330
1F
100
AcDbEntity
  8
0
  6
Continuous
 62
     7
370
    25
100
AcDbLine
 10
0.4923502225
 20
-7.9673125285
 30
0.0
 11
0.4923502225
 21
-7.9227225265
 31
0.0
  0
LINE
  5
138
330
1F
100
AcDbEntity
  8
0
  6
Continuous
 62
     7
370
    25
100
AcDbLine
 10
0.7309956636
 20
-8.0538402231
 30
0.0
 11
0.7325870492
 21
-8.0399233995
 31
0.0
  0
LINE
  5
139
330
1F
100
AcDbEntity
  8
0
  6
Continuous
 62
     7
370
    25
100
AcDbLine
 10
0.7262839139
 20
-8.0407658978
 30
0.0
 11
0.7309956636
 21
-8.0538402231
 31
0.0
  0
LINE
  5
13A
330
1F
100
AcDbEntity
  8
0
  6
Continuous
 62
     7
370
    25
100
AcDbLine
 10
0.7097771882
 20
-7.9926186808
 30
0.0
 11
0.7262839139
 21
-8.0407658978
 31
0.0
  0
LINE
  5
13B
330
1F
100
AcDbEntity
  8
0
  6
Continuous
 62
     7
370
    25
100
AcDbLine
 10
0.696609252
 20
-7.9926186808
 30
0.0
 11
0.7097771882
 21
-7.9926186808
 31
0.0
  0
LINE
  5
13C
330
1F
100
AcDbEntity
  8
0
  6
Continuous
 62
     7
370
    25
100
AcDbLine
 10
0.6770757731
 20
-8.0544954995
 30
0.0
 11
0.681600301
 21
-8.0413899706
 31
0.0
  0
LINE
  5
13D
330
1F
100
AcDbEntity
  8
0
  6
Continuous
 62
     7
370
    25
100
AcDbLine
 10
0.6751723511
 20
-8.0393929376
 30
0.0
 11
0.6770757731
 21
-8.0544954995
 31
0.0
  0
LINE
  5
13E
330
1F
100
AcDbEntity
  8
0
  6
Continuous
 62
     7
370
    25
100
AcDbLine
 10
0.665031168
 20
-7.9666572521
 30
0.0
 11
0.6751723511
 21
-8.0393929376
 31
0.0
  0
LINE
  5
13F
330
1F
100
AcDbEntity
  8
0
  6
Continuous
 62
     7
370
    25
100
AcDbLine
 10
0.6471202784
 20
-7.9666572521
 30
0.0
 11
0.665031168
 21
-7.9666572521
 31
0.0
  0
LINE
  5
140
330
1F
100
AcDbEntity
  8
0
  6
Continuous
 62
     7
370
    25
100
AcDbLine
 10
0.6636894114
 20
-8.0725
 30
0.0
 11
0.6471202784
 21
-7.9666572521
 31
0.0
  0
LINE
  5
141
330
1F
100
AcDbEntity
  8
0
  6
Continuous
 62
     7
370
    25
100
AcDbLine
 10
0.6852823305
 20
-8.0725
 30
0.0
 11
0.6636894114
 21
-8.0725
 31
0.0
  0
LINE
  5
142
330
1F
100
AcDbEntity
  8
0
  6
Continuous
 62
     7
370
    25
100
AcDbLine
 10
0.6996360051
 20
-8.0278475907
 30
0.0
 11
0.6852823305
 21
-8.0725
 31
0.0
  0
LINE
  5
143
330
1F
100
AcDbEntity
  8
0
  6
Continuous
 62
     7
370
    25
100
AcDbLine
 10
0.7030372019
 20
-8.0162086329
 30
0.0
 11
0.6996360051
 21
-8.0278475907
 31
0.0
  0
LINE
  5
144
330
1F
100
AcDbEntity
  8
0
  6
Continuous
 62
     7
370
    25
100
AcDbLine
 10
0.7060951586
 20
-8.0272235179
 30
0.0
 11
0.7030372019
 21
-8.0162086329
 31
0.0
  0
LINE
  5
145
330
1F
100
AcDbEntity
  8
0
  6
Continuous
 62
     7
370
    25
100
AcDbLine
 10
0.7213225351
 20
-8.0725
 30
0.0
 11
0.7060951586
 21
-8.0272235179
 31
0.0
  0
LINE
  5
146
330
1F
100
AcDbEntity
  8
0
  6
Continuous
 62
     7
370
    25
100
AcDbLine
 10
0.743539527
 20
-8.0725
 30
0.0
 11
0.7213225351
 21
-8.0725
 31
0.0
  0
LINE
  5
147
330
1F
100
AcDbEntity
  8
0
  6
Continuous
 62
     7
370
    25
100
AcDbLine
 10
0.7589541253
 20
-7.9666572521
 30
0.0
 11
0.743539527
 21
-8.0725
 31
0.0
  0
LINE
  5
148
330
1F
100
AcDbEntity
  8
0
  6
Continuous
 62
     7
370
    25
100
AcDbLine
 10
0.7408248103
 20
-7.9666572521
 30
0.0
 11
0.7589541253
 21
-7.9666572521
 31
0.0
  0
LINE
  5
149
330
1F
100
AcDbEntity
  8
0
  6
Continuous
 62
     7
370
    25
100
AcDbLine
 10
0.9177182472
 20
-7.9886246149
 30
0.0
 11
0.9296692414
 21
-7.9886246149
 31
0.0
  0
LINE
  5
14A
330
1F
100
AcDbEntity
  8
0
  6
Continuous
 62
     7
370
    25
100
AcDbLine
 10
0.9177182472
 20
-7.9506809882
 30
0.0
 11
0.9177182472
 21
-7.9886246149
 31
0.0
  0
LINE
  5
14B
330
1F
100
AcDbEntity
  8
0
  6
Continuous
 62
     7
370
    25
100
AcDbLine
 10
0.9736351706
 20
-7.9347047244
 30
0.0
 11
0.9736351706
 21
-7.9506809882
 31
0.0
  0
LINE
  5
14C
330
1F
100
AcDbEntity
  8
0
  6
Continuous
 62
     7
370
    25
100
AcDbLine
 10
0.8977479174
 20
-8.0725
 30
0.0
 11
0.8977479174
 21
-8.0565237362
 31
0.0
  0
LINE
  5
14D
330
1F
100
AcDbEntity
  8
0
  6
Continuous
 62
     7
370
    25
100
AcDbLine
 10
1.1913117654
 20
-7.9347047244
 30
0.0
 11
1.1913117654
 21
-8.0545267032
 31
0.0
  0
LINE
  5
14E
330
1F
100
AcDbEntity
  8
0
  6
Continuous
 62
     7
370
    25
100
AcDbLine
 10
1.1734632831
 20
-7.9347047244
 30
0.0
 11
1.1913117654
 21
-7.9347047244
 31
0.0
  0
LINE
  5
14F
330
1F
100
AcDbEntity
  8
0
  6
Continuous
 62
     7
370
    25
100
AcDbLine
 10
0.005
 20
-0.03375
 30
0.0
 11
0.005
 21
-8.09125
 31
0.0
  0
LINE
  5
150
330
1F
100
AcDbEntity
  8
0
  6
Continuous
 62
     7
370
    25
100
AcDbLine
 10
1.6785878124
 20
-7.9227225265
 30
0.0
 11
1.6755610593
 21
-7.972648351
 31
0.0
  0
LINE
  5
151
330
1F
100
AcDbEntity
  8
0
  6
Continuous
 62
     7
370
    25
100
AcDbLine
 10
1.0095817642
 20
-8.0944673628
 30
0.0
 11
1.0814749515
 21
-7.9227225265
 31
0.0
  0
LINE
  5
152
330
1F
100
AcDbEntity
  8
0
  6
Continuous
 62
     7
370
    25
100
AcDbLine
 10
1.0989801937
 20
-7.9227225265
 30
0.0
 11
1.0270558028
 21
-8.0944673628
 31
0.0
  0
LINE
  5
153
330
1F
100
AcDbEntity
  8
0
  6
Continuous
 62
     7
370
    25
100
AcDbLine
 10
0.7619496748
 20
-8.1004584617
 30
0.0
 11
0.8797746206
 21
-8.1004584617
 31
0.0
  0
LINE
  5
154
330
1F
100
AcDbEntity
  8
0
  6
Continuous
 62
     7
370
    25
100
AcDbLine
 10
0.3265964852
 20
-8.0725
 30
0.0
 11
0.3066261554
 21
-8.0725
 31
0.0
  0
LINE
  5
155
330
1F
100
AcDbEntity
  8
0
  6
Continuous
 62
     7
370
    25
100
AcDbLine
 10
0.3265964852
 20
-8.002323013
 30
0.0
 11
0.3265964852
 21
-8.0725
 31
0.0
  0
LINE
  5
156
330
1F
100
AcDbEntity
  8
0
  6
Continuous
 62
     7
370
    25
100
AcDbLine
 10
0.3924985735
 20
-8.0725
 30
0.0
 11
0.3725282438
 21
-8.0725
 31
0.0
  0
LINE
  5
157
330
1F
100
AcDbEntity
  8
0
  6
Continuous
 62
     7
370
    25
100
AcDbLine
 10
0.3924985735
 20
-8.0033839367
 30
0.0
 11
0.3924985735
 21
-8.0725
 31
0.0
  0
LINE
  5
158
330
1F
100
AcDbEntity
  8
0
  6
Continuous
 62
     7
370
    25
100
AcDbLine
 10
0.3244122304
 20
-7.9666572521
 30
0.0
 11
0.325223525
 21
-7.9837256433
 31
0.0
  0
LINE
  5
159
330
1F
100
AcDbEntity
  8
0
  6
Continuous
 62
     7
370
    25
100
AcDbLine
 10
0.3066261554
 20
-7.9666572521
 30
0.0
 11
0.3244122304
 21
-7.9666572521
 31
0.0
  0
LINE
  5
15A
330
1F
100
AcDbEntity
  8
0
  6
Continuous
 62
     7
370
    25
100
AcDbLine
 10
0.3066261554
 20
-8.0725
 30
0.0
 11
0.3066261554
 21
-7.9666572521
 31
0.0
  0
LINE
  5
15B
330
1F
100
AcDbEntity
  8
0
  6
Continuous
 62
     7
370
    25
100
AcDbLine
 10
0.1907982426
 20
-8.0565237362
 30
0.0
 11
0.2247478033
 21
-8.0565237362
 31
0.0
  0
LINE
  5
15C
330
1F
100
AcDbEntity
  8
0
  6
Continuous
 62
     7
370
    25
100
AcDbLine
 10
0.1907982426
 20
-8.0725
 30
0.0
 11
0.1907982426
 21
-8.0565237362
 31
0.0
  0
LINE
  5
15D
330
1F
100
AcDbEntity
  8
0
  6
Continuous
 62
     7
370
    25
100
AcDbLine
 10
0.2746736278
 20
-8.0725
 30
0.0
 11
0.1907982426
 21
-8.0725
 31
0.0
  0
LINE
  5
15E
330
1F
100
AcDbEntity
  8
0
  6
Continuous
 62
     7
370
    25
100
AcDbLine
 10
0.2746736278
 20
-8.0565237362
 30
0.0
 11
0.2746736278
 21
-8.0725
 31
0.0
  0
LINE
  5
15F
330
1F
100
AcDbEntity
  8
0
  6
Continuous
 62
     7
370
    25
100
AcDbLine
 10
0.2447181331
 20
-8.0565237362
 30
0.0
 11
0.2746736278
 21
-8.0565237362
 31
0.0
  0
LINE
  5
160
330
1F
100
AcDbEntity
  8
0
  6
Continuous
 62
     7
370
    25
100
AcDbLine
 10
0.2447181331
 20
-7.9666572521
 30
0.0
 11
0.2447181331
 21
-8.0565237362
 31
0.0
  0
LINE
  5
161
330
1F
100
AcDbEntity
  8
0
  6
Continuous
 62
     7
370
    25
100
AcDbLine
 10
0.1947923086
 20
-7.9666572521
 30
0.0
 11
0.2447181331
 21
-7.9666572521
 31
0.0
  0
LINE
  5
162
330
1F
100
AcDbEntity
  8
0
  6
Continuous
 62
     7
370
    25
100
AcDbLine
 10
0.1947923086
 20
-7.9826335159
 30
0.0
 11
0.1947923086
 21
-7.9666572521
 31
0.0
  0
LINE
  5
163
330
1F
100
AcDbEntity
  8
0
  6
Continuous
 62
     7
370
    25
100
AcDbLine
 10
0.2247478033
 20
-7.9826335159
 30
0.0
 11
0.1947923086
 21
-7.9826335159
 31
0.0
  0
LINE
  5
164
330
1F
100
AcDbEntity
  8
0
  6
Continuous
 62
     7
370
    25
100
AcDbLine
 10
0.2247478033
 20
-8.0565237362
 30
0.0
 11
0.2247478033
 21
-7.9826335159
 31
0.0
  0
LINE
  5
165
330
1F
100
AcDbEntity
  8
0
  6
Continuous
 62
     7
370
    25
100
AcDbLine
 10
1.1913117654
 20
-8.0545267032
 30
0.0
 11
1.2212672601
 21
-8.0545267032
 31
0.0
  0
LINE
  5
166
330
1F
100
AcDbEntity
  8
0
  6
Continuous
 62
     7
370
    25
100
AcDbLine
 10
0.7619496748
 20
-8.1164347256
 30
0.0
 11
0.7619496748
 21
-8.1004584617
 31
0.0
  0
LINE
  5
167
330
1F
100
AcDbEntity
  8
0
  6
Continuous
 62
     7
370
    25
100
AcDbLine
 10
0.8797746206
 20
-8.1164347256
 30
0.0
 11
0.7619496748
 21
-8.1164347256
 31
0.0
  0
LINE
  5
168
330
1F
100
AcDbEntity
  8
0
  6
Continuous
 62
     7
370
    25
100
AcDbLine
 10
0.8797746206
 20
-8.1004584617
 30
0.0
 11
0.8797746206
 21
-8.1164347256
 31
0.0
  0
LINE
  5
169
330
1F
100
AcDbEntity
  8
0
  6
Continuous
 62
     7
370
    25
100
AcDbLine
 10
1.129403743
 20
-7.9566720872
 30
0.0
 11
1.1734632831
 21
-7.9347047244
 31
0.0
  0
LINE
  5
16A
330
1F
100
AcDbEntity
  8
0
  6
Continuous
 62
     7
370
    25
100
AcDbLine
 10
1.136174933
 20
-7.972648351
 30
0.0
 11
1.129403743
 21
-7.9566720872
 31
0.0
  0
LINE
  5
16B
330
1F
100
AcDbEntity
  8
0
  6
Continuous
 62
     7
370
    25
100
AcDbLine
 10
1.1693444026
 20
-7.9526780212
 30
0.0
 11
1.136174933
 21
-7.972648351
 31
0.0
  0
LINE
  5
16C
330
1F
100
AcDbEntity
  8
0
  6
Continuous
 62
     7
370
    25
100
AcDbLine
 10
0.9736351706
 20
-7.9506809882
 30
0.0
 11
0.9177182472
 21
-7.9506809882
 31
0.0
  0
LINE
  5
16D
330
1F
100
AcDbEntity
  8
0
  6
Continuous
 62
     7
370
    25
100
AcDbLine
 10
1.133397809
 20
-8.0545267032
 30
0.0
 11
1.1693444026
 21
-8.0545267032
 31
0.0
  0
LINE
  5
16E
330
1F
100
AcDbEntity
  8
0
  6
Continuous
 62
     7
370
    25
100
AcDbLine
 10
0.8997449504
 20
-7.9347047244
 30
0.0
 11
0.9736351706
 21
-7.9347047244
 31
0.0
  0
LINE
  5
16F
330
1F
100
AcDbEntity
  8
0
  6
Continuous
 62
     7
370
    25
100
AcDbLine
 10
0.8997449504
 20
-8.0046008787
 30
0.0
 11
0.8997449504
 21
-7.9347047244
 31
0.0
  0
LINE
  5
170
330
1F
100
AcDbEntity
  8
0
  6
Continuous
 62
     7
370
    25
100
AcDbLine
 10
0.9258936009
 20
-8.0046008787
 30
0.0
 11
0.8997449504
 21
-8.0046008787
 31
0.0
  0
LINE
  5
171
330
1F
100
AcDbEntity
  8
0
  6
Continuous
 62
     7
370
    25
100
AcDbLine
 10
1.6755610593
 20
-7.972648351
 30
0.0
 11
1.6577749843
 21
-7.972648351
 31
0.0
  0
LINE
  5
172
330
1F
100
AcDbEntity
  8
0
  6
Continuous
 62
     7
370
    25
100
AcDbLine
 10
1.0270558028
 20
-8.0944673628
 30
0.0
 11
1.0095817642
 21
-8.0944673628
 31
0.0
  0
LINE
  5
173
330
1F
100
AcDbEntity
  8
0
  6
Continuous
 62
     7
370
    25
100
AcDbLine
 10
1.0814749515
 20
-7.9227225265
 30
0.0
 11
1.0989801937
 21
-7.9227225265
 31
0.0
  0
LINE
  5
174
330
1F
100
AcDbEntity
  8
0
  6
Continuous
 62
     7
370
    25
100
AcDbLine
 10
1.1693444026
 20
-8.0545267032
 30
0.0
 11
1.1693444026
 21
-7.9526780212
 31
0.0
  0
LINE
  5
175
330
1F
100
AcDbEntity
  8
0
  6
Continuous
 62
     7
370
    25
100
AcDbLine
 10
1.6336233667
 20
-7.972648351
 30
0.0
 11
1.6158372917
 21
-7.972648351
 31
0.0
  0
LINE
  5
176
330
1F
100
AcDbEntity
  8
0
  6
Continuous
 62
     7
370
    25
100
AcDbLine
 10
1.133397809
 20
-8.0725
 30
0.0
 11
1.133397809
 21
-8.0545267032
 31
0.0
  0
LINE
  5
177
330
1F
100
AcDbEntity
  8
0
  6
Continuous
 62
     7
370
    25
100
AcDbLine
 10
8.245
 20
-8.09125
 30
0.0
 11
8.245
 21
-0.03375
 31
0.0
  0
LINE
  5
178
330
1F
100
AcDbEntity
  8
0
  6
Continuous
 62
     7
370
    25
100
AcDbLine
 10
1.2212672601
 20
-8.0545267032
 30
0.0
 11
1.2212672601
 21
-8.0725
 31
0.0
  0
LINE
  5
179
330
1F
100
AcDbEntity
  8
0
  6
Continuous
 62
     7
370
    25
100
AcDbLine
 10
1.6577749843
 20
-7.972648351
 30
0.0
 11
1.6546234166
 21
-7.9227225265
 31
0.0
  0
LINE
  5
17A
330
1F
100
AcDbEntity
  8
0
  6
Continuous
 62
     7
370
    25
100
AcDbLine
 10
1.6158372917
 20
-7.972648351
 30
0.0
 11
1.6126857241
 21
-7.9227225265
 31
0.0
  0
LINE
  5
17B
330
1F
100
AcDbEntity
  8
0
  6
Continuous
 62
     7
370
    25
100
AcDbLine
 10
0.3725282438
 20
-8.0725
 30
0.0
 11
0.3725282438
 21
-8.0049753224
 31
0.0
  0
LINE
  5
17C
330
1F
100
AcDbEntity
  8
0
  6
Continuous
 62
     7
370
    25
100
AcDbLine
 10
0.03625
 20
-8.1225
 30
0.0
 11
8.21375
 21
-8.1225
 31
0.0
  0
LINE
  5
17D
330
1F
100
AcDbEntity
  8
0
  6
Continuous
 62
     7
370
    25
100
AcDbLine
 10
0.7325870492
 20
-8.0399233995
 30
0.0
 11
0.7408248103
 21
-7.9666572521
 31
0.0
  0
LINE
  5
17E
330
1F
100
AcDbEntity
  8
0
  6
Continuous
 62
     7
370
    25
100
AcDbLine
 10
1.2212672601
 20
-8.0725
 30
0.0
 11
1.133397809
 21
-8.0725
 31
0.0
  0
LINE
  5
17F
330
1F
100
AcDbEntity
  8
0
  6
Continuous
 62
     7
370
    25
100
AcDbLine
 10
1.6546234166
 20
-7.9227225265
 30
0.0
 11
1.6785878124
 21
-7.9227225265
 31
0.0
  0
LINE
  5
180
330
1F
100
AcDbEntity
  8
0
  6
Continuous
 62
     7
370
    25
100
AcDbLine
 10
1.6366501198
 20
-7.9227225265
 30
0.0
 11
1.6336233667
 21
-7.972648351
 31
0.0
  0
LINE
  5
181
330
1F
100
AcDbEntity
  8
0
  6
Continuous
 62
     7
370
    25
100
AcDbLine
 10
0.681600301
 20
-8.0413899706
 30
0.0
 11
0.696609252
 21
-7.9926186808
 31
0.0
  0
LINE
  5
182
330
1F
100
AcDbEntity
  8
0
  6
Continuous
 62
     7
370
    25
100
AcDbLine
 10
8.21375
 20
-0.0025
 30
0.0
 11
0.03625
 21
-0.0025
 31
0.0
  0
LINE
  5
183
330
1F
100
AcDbEntity
  8
0
  6
Continuous
 62
     7
370
    25
100
AcDbLine
 10
1.6126857241
 20
-7.9227225265
 30
0.0
 11
1.6366501198
 21
-7.9227225265
 31
0.0
  0
LINE
  5
184
330
1F
100
AcDbEntity
  8
0
  6
Continuous
 62
     7
370
    25
100
AcDbLine
 10
0.4923502225
 20
-8.0339323006
 30
0.0
 11
0.4923502225
 21
-7.9849425853
 31
0.0
  0
LINE
  5
185
330
1F
100
AcDbEntity
  8
0
  6
Continuous
 62
     7
370
    25
100
AcDbLine
 10
1.3242704767
 20
-7.9906216478
 30
0.0
 11
1.2671054077
 21
-8.0345563734
 31
0.0
  0
LINE
  5
186
330
1F
100
AcDbEntity
  8
0
  6
Continuous
 62
     7
370
    25
100
AcDbLine
 10
1.2636106
 20
-8.0165830766
 30
0.0
 11
1.3208068726
 21
-7.972648351
 31
0.0
  0
LINE
  5
187
330
1F
100
AcDbEntity
  8
0
  6
Continuous
 62
     7
370
    25
100
AcDbLine
 10
1.3814355458
 20
-8.0165830766
 30
0.0
 11
1.4386318184
 21
-7.972648351
 31
0.0
  0
LINE
  5
188
330
1F
100
AcDbEntity
  8
0
  6
Continuous
 62
     7
370
    25
100
AcDbLine
 10
1.4992604916
 20
-8.0165830766
 30
0.0
 11
1.5564567642
 21
-7.972648351
 31
0.0
  0
ARC
  5
189
330
1F
100
AcDbEntity
  8
0
  6
Continuous
 62
     7
370
    25
100
AcDbCircle
 10
8.21375
 20
-0.03375
 30
0.0
 40
0.0312500000000018
100
AcDbArc
 50
0.0
 51
90.0
  0
ARC
  5
18A
330
1F
100
AcDbEntity
  8
0
  6
Continuous
 62
     7
370
    25
100
AcDbCircle
 10
0.03625
 20
-8.09125
 30
0.0
 40
0.0312500000000009
100
AcDbArc
 50
180.0
 51
270.0
  0
ARC
  5
18B
330
1F
100
AcDbEntity
  8
0
  6
Continuous
 62
     7
370
    25
100
AcDbCircle
 10
0.03625
 20
-0.03375
 30
0.0
 40
0.031250000000001
100
AcDbArc
 50
90.0
 51
180.0
  0
ARC
  5
18C
330
1F
100
AcDbEntity
  8
0
  6
Continuous
 62
     7
370
    25
100
AcDbCircle
 10
8.21375
 20
-8.09125
 30
0.0
 40
0.03125
100
AcDbArc
 50
270.0
 51
0.0
  0
ENDSEC
  0
SECTION
  2
OBJECTS
  0
DICTIONARY
  5
C
330
0
100
AcDbDictionary
281
     1
  3
ACAD_GROUP
350
D
  3
ACAD_LAYOUT
350
1A
  3
ACAD_MLINESTYLE
350
17
  3
ACAD_PLOTSETTINGS
350
19
  3
ACAD_PLOTSTYLENAME
350
E
  3
ACAD_SCALELIST
350
47
  0
DICTIONARY
  5
D
102
{ACAD_REACTORS
330
C
102
}
330
C
100
AcDbDictionary
281
     1
  0
DICTIONARY
  5
1A
102
{ACAD_REACTORS
330
C
102
}
330
C
100
AcDbDictionary
281
     1
  3
Layout1
350
1E
  3
Layout2
350
26
  3
Model
350
22
  0
DICTIONARY
  5
17
102
{ACAD_REACTORS
330
C
102
}
330
C
100
AcDbDictionary
281
     1
  3
Standard
350
18
  0
DICTIONARY
  5
19
102
{ACAD_REACTORS
330
C
102
}
330
C
100
AcDbDictionary
281
     1
  0
ACDBDICTIONARYWDFLT
  5
E
102
{ACAD_REACTORS
330
C
102
}
330
C
100
AcDbDictionary
281
     1
  3
Normal
350
F
100
AcDbDictionaryWithDefault
340
F
  0
DICTIONARY
  5
47
102
{ACAD_REACTORS
330
C
102
}
330
C
100
AcDbDictionary
281
     1
  3
A0
350
48
  3
A1
350
49
  3
A2
350
4A
  3
A3
350
4B
  3
A4
350
4C
  3
A5
350
4D
  3
A6
350
4E
  3
A7
350
4F
  3
A8
350
50
  3
A9
350
51
  3
B0
350
52
  3
B1
350
53
  3
B2
350
54
  3
B3
350
55
  3
B4
350
56
  3
B5
350
57
  3
B6
350
58
  3
B7
350
59
  3
B8
350
5A
  3
B9
350
5B
  3
C0
350
5C
  3
C1
350
5D
  3
C2
350
5E
  3
C3
350
5F
  3
C4
350
60
  3
C5
350
61
  3
C6
350
62
  3
C7
350
63
  3
C8
350
64
  3
C9
350
65
  3
D0
350
66
  3
D1
350
67
  3
D2
350
68
  0
LAYOUT
  5
1E
102
{ACAD_REACTORS
330
1A
102
}
330
1A
100
AcDbPlotSettings
  1

  2
none_device
  4

  6

 40
0.0
 41
0.0
 42
0.0
 43
0.0
 44
0.0
 45
0.0
 46
0.0
 47
0.0
 48
0.0
 49
0.0
140
0.0
141
0.0
142
1.0
143
1.0
 70
   688
 72
     0
 73
     0
 74
     5
  7

 75
    16
147
1.0
148
0.0
149
0.0
100
AcDbLayout
  1
Layout1
 70
     1
 71
     1
 10
0.0
 20
0.0
 11
12.0
 21
9.0
 12
0.0
 22
0.0
 32
0.0
 14
1.0000000000E+20
 24
1.0000000000E+20
 34
1.0000000000E+20
 15
-1.0000000000E+20
 25
-1.0000000000E+20
 35
-1.0000000000E+20
146
0.0
 13
0.0
 23
0.0
 33
0.0
 16
1.0
 26
0.0
 36
0.0
 17
0.0
 27
1.0
 37
0.0
 76
     0
330
1B
  0
LAYOUT
  5
26
102
{ACAD_REACTORS
330
1A
102
}
330
1A
100
AcDbPlotSettings
  1

  2
none_device
  4

  6

 40
0.0
 41
0.0
 42
0.0
 43
0.0
 44
0.0
 45
0.0
 46
0.0
 47
0.0
 48
0.0
 49
0.0
140
0.0
141
0.0
142
1.0
143
1.0
 70
   688
 72
     0
 73
     0
 74
     5
  7

 75
    16
147
1.0
148
0.0
149
0.0
100
AcDbLayout
  1
Layout2
 70
     1
 71
     2
 10
0.0
 20
0.0
 11
0.0
 21
0.0
 12
0.0
 22
0.0
 32
0.0
 14
0.0
 24
0.0
 34
0.0
 15
0.0
 25
0.0
 35
0.0
146
0.0
 13
0.0
 23
0.0
 33
0.0
 16
1.0
 26
0.0
 36
0.0
 17
0.0
 27
1.0
 37
0.0
 76
     0
330
23
  0
LAYOUT
  5
22
102
{ACAD_REACTORS
330
1A
102
}
330
1A
100
AcDbPlotSettings
  1

  2
none_device
  4
ANSI_A_(11.00_x_8.50_Inches)
  6

 40
6.35
 41
19.05
 42
6.35000508
 43
19.05000254
 44
279.4
 45
215.9
 46
24.7685165487
 47
195.8363056881
 48
0.0
 49
0.0
140
0.0
141
0.0
142
1.0363300493
143
1.0
 70
  1696
 72
     0
 73
     0
 74
     0
  7

 75
     0
147
0.5913241897
148
-39.4088153714
149
0.0
100
AcDbLayout
  1
Model
 70
     1
 71
     0
 10
0.0
 20
0.0
 11
12.0
 21
9.0
 12
0.0
 22
0.0
 32
0.0
 14
0.005
 24
-8.1225
 34
0.0
 15
8.245
 25
-0.0025
 35
0.0
146
0.0
 13
0.0
 23
0.0
 33
0.0
 16
1.0
 26
0.0
 36
0.0
 17
0.0
 27
1.0
 37
0.0
 76
     0
330
1F
331
29
  0
MLINESTYLE
  5
18
102
{ACAD_REACTORS
330
17
102
}
330
17
100
AcDbMlineStyle
  2
Standard
 70
     0
  3

 62
   256
 51
90.0
 52
90.0
 71
     2
 49
0.5
 62
   256
  6
BYLAYER
 49
-0.5
 62
   256
  6
BYLAYER
  0
ACDBPLACEHOLDER
  5
F
102
{ACAD_REACTORS
330
E
102
}
330
E
  0
SCALE
  5
48
102
{ACAD_REACTORS
330
47
102
}
330
47
100
AcDbScale
 70
     0
300
1:1
140
1.0
141
1.0
290
     1
  0
SCALE
  5
49
102
{ACAD_REACTORS
330
47
102
}
330
47
100
AcDbScale
 70
     0
300
1:2
140
1.0
141
2.0
290
     0
  0
SCALE
  5
4A
102
{ACAD_REACTORS
330
47
102
}
330
47
100
AcDbScale
 70
     0
300
1:4
140
1.0
141
4.0
290
     0
  0
SCALE
  5
4B
102
{ACAD_REACTORS
330
47
102
}
330
47
100
AcDbScale
 70
     0
300
1:5
140
1.0
141
5.0
290
     0
  0
SCALE
  5
4C
102
{ACAD_REACTORS
330
47
102
}
330
47
100
AcDbScale
 70
     0
300
1:8
140
1.0
141
8.0
290
     0
  0
SCALE
  5
4D
102
{ACAD_REACTORS
330
47
102
}
330
47
100
AcDbScale
 70
     0
300
1:10
140
1.0
141
10.0
290
     0
  0
SCALE
  5
4E
102
{ACAD_REACTORS
330
47
102
}
330
47
100
AcDbScale
 70
     0
300
1:16
140
1.0
141
16.0
290
     0
  0
SCALE
  5
4F
102
{ACAD_REACTORS
330
47
102
}
330
47
100
AcDbScale
 70
     0
300
1:20
140
1.0
141
20.0
290
     0
  0
SCALE
  5
50
102
{ACAD_REACTORS
330
47
102
}
330
47
100
AcDbScale
 70
     0
300
1:30
140
1.0
141
30.0
290
     0
  0
SCALE
  5
51
102
{ACAD_REACTORS
330
47
102
}
330
47
100
AcDbScale
 70
     0
300
1:40
140
1.0
141
40.0
290
     0
  0
SCALE
  5
52
102
{ACAD_REACTORS
330
47
102
}
330
47
100
AcDbScale
 70
     0
300
1:50
140
1.0
141
50.0
290
     0
  0
SCALE
  5
53
102
{ACAD_REACTORS
330
47
102
}
330
47
100
AcDbScale
 70
     0
300
1:100
140
1.0
141
100.0
290
     0
  0
SCALE
  5
54
102
{ACAD_REACTORS
330
47
102
}
330
47
100
AcDbScale
 70
     0
300
2:1
140
2.0
141
1.0
290
     0
  0
SCALE
  5
55
102
{ACAD_REACTORS
330
47
102
}
330
47
100
AcDbScale
 70
     0
300
4:1
140
4.0
141
1.0
290
     0
  0
SCALE
  5
56
102
{ACAD_REACTORS
330
47
102
}
330
47
100
AcDbScale
 70
     0
300
8:1
140
8.0
141
1.0
290
     0
  0
SCALE
  5
57
102
{ACAD_REACTORS
330
47
102
}
330
47
100
AcDbScale
 70
     0
300
10:1
140
10.0
141
1.0
290
     0
  0
SCALE
  5
58
102
{ACAD_REACTORS
330
47
102
}
330
47
100
AcDbScale
 70
     0
300
100:1
140
100.0
141
1.0
290
     0
  0
SCALE
  5
59
102
{ACAD_REACTORS
330
47
102
}
330
47
100
AcDbScale
 70
     0
300
1/128" = 1'-0"
140
0.0078125
141
12.0
290
     0
  0
SCALE
  5
5A
102
{ACAD_REACTORS
330
47
102
}
330
47
100
AcDbScale
 70
     0
300
1/64" = 1'-0"
140
0.015625
141
12.0
290
     0
  0
SCALE
  5
5B
102
{ACAD_REACTORS
330
47
102
}
330
47
100
AcDbScale
 70
     0
300
1/32" = 1'-0"
140
0.03125
141
12.0
290
     0
  0
SCALE
  5
5C
102
{ACAD_REACTORS
330
47
102
}
330
47
100
AcDbScale
 70
     0
300
1/16" = 1'-0"
140
0.0625
141
12.0
290
     0
  0
SCALE
  5
5D
102
{ACAD_REACTORS
330
47
102
}
330
47
100
AcDbScale
 70
     0
300
3/32" = 1'-0"
140
0.09375
141
12.0
290
     0
  0
SCALE
  5
5E
102
{ACAD_REACTORS
330
47
102
}
330
47
100
AcDbScale
 70
     0
300
1/8" = 1'-0"
140
0.125
141
12.0
290
     0
  0
SCALE
  5
5F
102
{ACAD_REACTORS
330
47
102
}
330
47
100
AcDbScale
 70
     0
300
3/16" = 1'-0"
140
0.1875
141
12.0
290
     0
  0
SCALE
  5
60
102
{ACAD_REACTORS
330
47
102
}
330
47
100
AcDbScale
 70
     0
300
1/4" = 1'-0"
140
0.25
141
12.0
290
     0
  0
SCALE
  5
61
102
{ACAD_REACTORS
330
47
102
}
330
47
100
AcDbScale
 70
     0
300
3/8" = 1'-0"
140
0.375
141
12.0
290
     0
  0
SCALE
  5
62
102
{ACAD_REACTORS
330
47
102
}
330
47
100
AcDbScale
 70
     0
300
1/2" = 1'-0"
140
0.5
141
12.0
290
     0
  0
SCALE
  5
63
102
{ACAD_REACTORS
330
47
102
}
330
47
100
AcDbScale
 70
     0
300
3/4" = 1'-0"
140
0.75
141
12.0
290
     0
  0
SCALE
  5
64
102
{ACAD_REACTORS
330
47
102
}
330
47
100
AcDbScale
 70
     0
300
1" = 1'-0"
140
1.0
141
12.0
290
     0
  0
SCALE
  5
65
102
{ACAD_REACTORS
330
47
102
}
330
47
100
AcDbScale
 70
     0
300
1-1/2" = 1'-0"
140
1.5
141
12.0
290
     0
  0
SCALE
  5
66
102
{ACAD_REACTORS
330
47
102
}
330
47
100
AcDbScale
 70
     0
300
3" = 1'-0"
140
3.0
141
12.0
290
     0
  0
SCALE
  5
67
102
{ACAD_REACTORS
330
47
102
}
330
47
100
AcDbScale
 70
     0
300
6" = 1'-0"
140
6.0
141
12.0
290
     0
  0
SCALE
  5
68
102
{ACAD_REACTORS
330
47
102
}
330
47
100
AcDbScale
 70
     0
300
1'-0" = 1'-0"
140
12.0
141
12.0
290
     0
  0
ENDSEC
  0
EOF
