  0
SECTION
  2
HEADER
  9
$ACADVER
  1
AC1015
  9
$ACADMAINTVER
 70
     6
  9
$DWGCODEPAGE
  3
ANSI_1252
  9
$INSBASE
 10
0.0
 20
0.0
 30
0.0
  9
$EXTMIN
 10
-127.0
 20
-101.6
 30
0.0
  9
$EXTMAX
 10
127.0
 20
101.6
 30
0.0
  9
$LIMMIN
 10
0.0
 20
0.0
  9
$LIMMAX
 10
420.0
 20
297.0
  9
$ORTHOMODE
 70
     0
  9
$REGENMODE
 70
     1
  9
$FILLMODE
 70
     1
  9
$QTEXTMODE
 70
     0
  9
$MIRRTEXT
 70
     1
  9
$LTSCALE
 40
1.0
  9
$ATTMODE
 70
     1
  9
$TEXTSIZE
 40
3.175
  9
$TRACEWID
 40
1.0
  9
$TEXTSTYLE
  7
Standard
  9
$CLAYER
  8
0
  9
$CELTYPE
  6
ByLayer
  9
$CECOLOR
 62
   256
  9
$CELTSCALE
 40
1.0
  9
$DISPSILH
 70
     0
  9
$DIMSCALE
 40
1.0
  9
$DIMASZ
 40
3.302
  9
$DIMEXO
 40
1.27
  9
$DIMDLI
 40
3.75
  9
$DIMRND
 40
0.0
  9
$DIMDLE
 40
0.0
  9
$DIMEXE
 40
3.175
  9
$DIMTP
 40
0.0
  9
$DIMTM
 40
0.0
  9
$DIMTXT
 40
3.175
  9
$DIMCEN
 40
2.5
  9
$DIMTSZ
 40
0.0
  9
$DIMTOL
 70
     0
  9
$DIMLIM
 70
     0
  9
$DIMTIH
 70
     1
  9
$DIMTOH
 70
     1
  9
$DIMSE1
 70
     0
  9
$DIMSE2
 70
     0
  9
$DIMTAD
 70
     0
  9
$DIMZIN
 70
     1
  9
$DIMBLK
  1

  9
$DIMASO
 70
     1
  9
$DIMSHO
 70
     1
  9
$DIMPOST
  1

  9
$DIMAPOST
  1

  9
$DIMALT
 70
     0
  9
$DIMALTD
 70
     3
  9
$DIMALTF
 40
0.0393700787
  9
$DIMLFAC
 40
1.0
  9
$DIMTOFL
 70
     1
  9
$DIMTVP
 40
0.0
  9
$DIMTIX
 70
     0
  9
$DIMSOXD
 70
     0
  9
$DIMSAH
 70
     0
  9
$DIMBLK1
  1

  9
$DIMBLK2
  1

  9
$DIMSTYLE
  2
ISO-25
  9
$DIMCLRD
 70
     0
  9
$DIMCLRE
 70
     0
  9
$DIMCLRT
 70
     0
  9
$DIMTFAC
 40
1.0
  9
$DIMGAP
 40
1.524
  9
$DIMJUST
 70
     0
  9
$DIMSD1
 70
     0
  9
$DIMSD2
 70
     0
  9
$DIMTOLJ
 70
     0
  9
$DIMTZIN
 70
     1
  9
$DIMALTZ
 70
     0
  9
$DIMALTTZ
 70
     0
  9
$DIMUPT
 70
     0
  9
$DIMDEC
 70
     3
  9
$DIMTDEC
 70
     3
  9
$DIMALTU
 70
     2
  9
$DIMALTTD
 70
     3
  9
$DIMTXSTY
  7
Standard
  9
$DIMAUNIT
 70
     0
  9
$DIMADEC
 70
     0
  9
$DIMALTRND
 40
0.0
  9
$DIMAZIN
 70
     0
  9
$DIMDSEP
 70
    44
  9
$DIMATFIT
 70
     3
  9
$DIMFRAC
 70
     0
  9
$DIMLDRBLK
  1

  9
$DIMLUNIT
 70
     2
  9
$DIMLWD
 70
    -2
  9
$DIMLWE
 70
    -2
  9
$DIMTMOVE
 70
     0
  9
$LUNITS
 70
     2
  9
$LUPREC
 70
     3
  9
$SKETCHINC
 40
1.0
  9
$FILLETRAD
 40
10.0
  9
$AUNITS
 70
     0
  9
$AUPREC
 70
     0
  9
$MENU
  1
.
  9
$ELEVATION
 40
0.0
  9
$PELEVATION
 40
0.0
  9
$THICKNESS
 40
0.0
  9
$LIMCHECK
 70
     0
  9
$CHAMFERA
 40
0.0
  9
$CHAMFERB
 40
0.0
  9
$CHAMFERC
 40
0.0
  9
$CHAMFERD
 40
0.0
  9
$SKPOLY
 70
     0
  9
$TDCREATE
 40
2458414.698284097
  9
$TDUCREATE
 40
2458414.864950764
  9
$TDUPDATE
 40
2458414.698599363
  9
$TDUUPDATE
 40
2458414.86526603
  9
$TDINDWG
 40
0.0000000116
  9
$TDUSRTIMER
 40
0.0000000116
  9
$USRTIMER
 70
     1
  9
$ANGBASE
 50
0.0
  9
$ANGDIR
 70
     0
  9
$PDMODE
 70
     0
  9
$PDSIZE
 40
-1.0
  9
$PLINEWID
 40
0.0
  9
$SPLFRAME
 70
     0
  9
$SPLINETYPE
 70
     6
  9
$SPLINESEGS
 70
     8
  9
$HANDSEED
  5
1FC
  9
$SURFTAB1
 70
     6
  9
$SURFTAB2
 70
     6
  9
$SURFTYPE
 70
     6
  9
$SURFU
 70
     6
  9
$SURFV
 70
     6
  9
$UCSBASE
  2

  9
$UCSNAME
  2

  9
$UCSORG
 10
0.0
 20
0.0
 30
0.0
  9
$UCSXDIR
 10
1.0
 20
0.0
 30
0.0
  9
$UCSYDIR
 10
0.0
 20
1.0
 30
0.0
  9
$UCSORTHOREF
  2

  9
$UCSORTHOVIEW
 70
     0
  9
$UCSORGTOP
 10
0.0
 20
0.0
 30
0.0
  9
$UCSORGBOTTOM
 10
0.0
 20
0.0
 30
0.0
  9
$UCSORGLEFT
 10
0.0
 20
0.0
 30
0.0
  9
$UCSORGRIGHT
 10
0.0
 20
0.0
 30
0.0
  9
$UCSORGFRONT
 10
0.0
 20
0.0
 30
0.0
  9
$UCSORGBACK
 10
0.0
 20
0.0
 30
0.0
  9
$PUCSBASE
  2

  9
$PUCSNAME
  2

  9
$PUCSORG
 10
0.0
 20
0.0
 30
0.0
  9
$PUCSXDIR
 10
1.0
 20
0.0
 30
0.0
  9
$PUCSYDIR
 10
0.0
 20
1.0
 30
0.0
  9
$PUCSORTHOREF
  2

  9
$PUCSORTHOVIEW
 70
     0
  9
$PUCSORGTOP
 10
0.0
 20
0.0
 30
0.0
  9
$PUCSORGBOTTOM
 10
0.0
 20
0.0
 30
0.0
  9
$PUCSORGLEFT
 10
0.0
 20
0.0
 30
0.0
  9
$PUCSORGRIGHT
 10
0.0
 20
0.0
 30
0.0
  9
$PUCSORGFRONT
 10
0.0
 20
0.0
 30
0.0
  9
$PUCSORGBACK
 10
0.0
 20
0.0
 30
0.0
  9
$USERI1
 70
     0
  9
$USERI2
 70
     0
  9
$USERI3
 70
     0
  9
$USERI4
 70
     0
  9
$USERI5
 70
     0
  9
$USERR1
 40
0.0
  9
$USERR2
 40
0.0
  9
$USERR3
 40
0.0
  9
$USERR4
 40
0.0
  9
$USERR5
 40
0.0
  9
$WORLDVIEW
 70
     1
  9
$SHADEDGE
 70
     3
  9
$SHADEDIF
 70
    70
  9
$TILEMODE
 70
     1
  9
$MAXACTVP
 70
    64
  9
$PINSBASE
 10
0.0
 20
0.0
 30
0.0
  9
$PLIMCHECK
 70
     0
  9
$PEXTMIN
 10
1.0000000000E+20
 20
1.0000000000E+20
 30
1.0000000000E+20
  9
$PEXTMAX
 10
-1.0000000000E+20
 20
-1.0000000000E+20
 30
-1.0000000000E+20
  9
$PLIMMIN
 10
0.0
 20
0.0
  9
$PLIMMAX
 10
420.0
 20
297.0
  9
$UNITMODE
 70
     0
  9
$VISRETAIN
 70
     1
  9
$PLINEGEN
 70
     0
  9
$PSLTSCALE
 70
     1
  9
$TREEDEPTH
 70
  3020
  9
$CMLSTYLE
  2
Standard
  9
$CMLJUST
 70
     0
  9
$CMLSCALE
 40
20.0
  9
$PROXYGRAPHICS
 70
     1
  9
$MEASUREMENT
 70
     1
  9
$CELWEIGHT
370
    -1
  9
$ENDCAPS
280
     0
  9
$JOINSTYLE
280
     0
  9
$LWDISPLAY
290
     1
  9
$INSUNITS
 70
     4
  9
$HYPERLINKBASE
  1

  9
$STYLESHEET
  1

  9
$XEDIT
290
     1
  9
$CEPSNTYPE
380
     0
  9
$PSTYLEMODE
290
     1
  9
$FINGERPRINTGUID
  2
{C041CDD2-D8A8-44ED-A8C9-288D31B74E2D}
  9
$VERSIONGUID
  2
{FAEB1C32-E019-11D5-929B-00C0DF256EC4}
  9
$EXTNAMES
290
     1
  9
$PSVPSCALE
 40
0.0
  9
$OLESTARTUP
290
     0
  0
ENDSEC
  0
SECTION
  2
CLASSES
  0
CLASS
  1
ACDBDICTIONARYWDFLT
  2
AcDbDictionaryWithDefault
  3
ObjectDBX Classes
 90
        0
280
     0
281
     0
  0
CLASS
  1
VISUALSTYLE
  2
AcDbVisualStyle
  3
ObjectDBX Classes
 90
     4095
280
     0
281
     0
  0
CLASS
  1
MATERIAL
  2
AcDbMaterial
  3
ObjectDBX Classes
 90
     1153
280
     0
281
     0
  0
CLASS
  1
SCALE
  2
AcDbScale
  3
ObjectDBX Classes
 90
     1153
280
     0
281
     0
  0
CLASS
  1
TABLESTYLE
  2
AcDbTableStyle
  3
ObjectDBX Classes
 90
     4095
280
     0
281
     0
  0
CLASS
  1
MLEADERSTYLE
  2
AcDbMLeaderStyle
  3
ACDB_MLEADERSTYLE_CLASS
 90
     4095
280
     0
281
     0
  0
CLASS
  1
SUN
  2
AcDbSun
  3
SCENEOE
 90
     1153
280
     0
281
     0
  0
CLASS
  1
ACDBPLACEHOLDER
  2
AcDbPlaceHolder
  3
ObjectDBX Classes
 90
        0
280
     0
281
     0
  0
CLASS
  1
LAYOUT
  2
AcDbLayout
  3
ObjectDBX Classes
 90
        0
280
     0
281
     0
  0
ENDSEC
  0
SECTION
  2
TABLES
  0
TABLE
  2
VPORT
  5
8
330
0
100
AcDbSymbolTable
 70
     1
  0
VPORT
  5
29
330
8
100
AcDbSymbolTableRecord
100
AcDbViewportTableRecord
  2
*Active
 70
     0
 10
0.0
 20
0.0
 11
1.0
 21
1.0
 12
0.0
 22
0.0
 13
0.0
 23
0.0
 14
10.0
 24
10.0
 15
10.0
 25
10.0
 16
0.0
 26
0.0
 36
1.0
 17
0.0
 27
0.0
 37
0.0
 40
207.264
 41
1.25
 42
50.0
 43
0.0
 44
0.0
 50
0.0
 51
0.0
 71
     0
 72
   100
 73
     1
 74
     3
 75
     0
 76
     0
 77
     0
 78
     0
281
     0
 65
     1
110
0.0
120
0.0
130
0.0
111
1.0
121
0.0
131
0.0
112
0.0
122
1.0
132
0.0
 79
     0
146
0.0
  0
ENDTAB
  0
TABLE
  2
LTYPE
  5
5
330
0
100
AcDbSymbolTable
 70
     6
  0
LTYPE
  5
14
330
5
100
AcDbSymbolTableRecord
100
AcDbLinetypeTableRecord
  2
ByBlock
 70
     0
  3

 72
    65
 73
     0
 40
0.0
  0
LTYPE
  5
15
330
5
100
AcDbSymbolTableRecord
100
AcDbLinetypeTableRecord
  2
ByLayer
 70
     0
  3

 72
    65
 73
     0
 40
0.0
  0
LTYPE
  5
16
330
5
100
AcDbSymbolTableRecord
100
AcDbLinetypeTableRecord
  2
Continuous
 70
     0
  3
Solid line
 72
    65
 73
     0
 40
0.0
  0
LTYPE
  5
6E
330
5
100
AcDbSymbolTableRecord
100
AcDbLinetypeTableRecord
  2
HIDDEN
 70
     0
  3
Hidden __ __ __ __ __ __ __ __ __ __ __ __ __ __
 72
    65
 73
     2
 40
1.905
 49
1.27
 74
     0
 49
-0.635
 74
     0
  0
LTYPE
  5
6F
330
5
100
AcDbSymbolTableRecord
100
AcDbLinetypeTableRecord
  2
PHANTOM
 70
     0
  3
Phantom ______  __  __  ______  __  __  ______
 72
    65
 73
     6
 40
12.7
 49
6.35
 74
     0
 49
-1.27
 74
     0
 49
1.27
 74
     0
 49
-1.27
 74
     0
 49
1.27
 74
     0
 49
-1.27
 74
     0
  0
LTYPE
  5
70
330
5
100
AcDbSymbolTableRecord
100
AcDbLinetypeTableRecord
  2
CENTER
 70
     0
  3
Center ____ _ ____ _ ____ _ ____ _ ____ _ ____
 72
    65
 73
     4
 40
10.16
 49
6.35
 74
     0
 49
-1.27
 74
     0
 49
1.27
 74
     0
 49
-1.27
 74
     0
  0
LTYPE
  5
71
330
5
100
AcDbSymbolTableRecord
100
AcDbLinetypeTableRecord
  2
CENTERX2
 70
     0
  3
Center (2x) ________  __  ________  __  _____
 72
    65
 73
     4
 40
20.32
 49
12.7
 74
     0
 49
-2.54
 74
     0
 49
2.54
 74
     0
 49
-2.54
 74
     0
  0
LTYPE
  5
72
330
5
100
AcDbSymbolTableRecord
100
AcDbLinetypeTableRecord
  2
DOT2
 70
     0
  3
Dot (.5x) ........................................
 72
    65
 73
     2
 40
0.635
 49
0.0
 74
     0
 49
-0.635
 74
     0
  0
ENDTAB
  0
TABLE
  2
LAYER
  5
2
330
0
100
AcDbSymbolTable
 70
     1
  0
LAYER
  5
10
330
2
100
AcDbSymbolTableRecord
100
AcDbLayerTableRecord
  2
0
 70
     0
 62
     7
  6
Continuous
370
    -3
390
F
  0
ENDTAB
  0
TABLE
  2
STYLE
  5
3
330
0
100
AcDbSymbolTable
 70
     1
  0
STYLE
  5
11
330
3
100
AcDbSymbolTableRecord
100
AcDbTextStyleTableRecord
  2
Standard
 70
     0
 40
0.0
 41
1.0
 50
0.0
 71
     0
 42
3.175
  3
txt
  4

  0
ENDTAB
  0
TABLE
  2
VIEW
  5
6
330
0
100
AcDbSymbolTable
 70
     0
  0
ENDTAB
  0
TABLE
  2
UCS
  5
7
330
0
100
AcDbSymbolTable
 70
     0
  0
ENDTAB
  0
TABLE
  2
APPID
  5
9
330
0
100
AcDbSymbolTable
 70
     1
  0
APPID
  5
12
330
9
100
AcDbSymbolTableRecord
100
AcDbRegAppTableRecord
  2
ACAD
 70
     0
  0
ENDTAB
  0
TABLE
  2
DIMSTYLE
  5
A
330
0
100
AcDbSymbolTable
 70
     1
100
AcDbDimStyleTable
  0
DIMSTYLE
105
27
330
A
100
AcDbSymbolTableRecord
100
AcDbDimStyleTableRecord
  2
ISO-25
 70
     0
 41
2.5
 42
0.625
 43
3.75
 44
1.25
 73
     0
 74
     0
 77
     1
 78
     8
140
2.5
141
2.5
143
0.0393700787
147
0.625
171
     3
172
     1
178
     0
271
     2
272
     2
274
     3
278
    44
283
     0
284
     8
340
11
  0
ENDTAB
  0
TABLE
  2
BLOCK_RECORD
  5
1
330
0
100
AcDbSymbolTable
 70
     1
  0
BLOCK_RECORD
  5
1F
330
1
100
AcDbSymbolTableRecord
100
AcDbBlockTableRecord
  2
*Model_Space
340
22
  0
BLOCK_RECORD
  5
1B
330
1
100
AcDbSymbolTableRecord
100
AcDbBlockTableRecord
  2
*Paper_Space
340
1E
  0
BLOCK_RECORD
  5
23
330
1
100
AcDbSymbolTableRecord
100
AcDbBlockTableRecord
  2
*Paper_Space0
340
26
  0
ENDTAB
  0
ENDSEC
  0
SECTION
  2
BLOCKS
  0
BLOCK
  5
20
330
1F
100
AcDbEntity
  8
0
100
AcDbBlockBegin
  2
*Model_Space
 70
     0
 10
0.0
 20
0.0
 30
0.0
  3
*Model_Space
  1

  0
ENDBLK
  5
21
330
1F
100
AcDbEntity
  8
0
100
AcDbBlockEnd
  0
BLOCK
  5
1C
330
1B
100
AcDbEntity
 67
     1
  8
0
100
AcDbBlockBegin
  2
*Paper_Space
 70
     0
 10
0.0
 20
0.0
 30
0.0
  3
*Paper_Space
  1

  0
ENDBLK
  5
1D
330
1B
100
AcDbEntity
 67
     1
  8
0
100
AcDbBlockEnd
  0
BLOCK
  5
24
330
23
100
AcDbEntity
  8
0
100
AcDbBlockBegin
  2
*Paper_Space0
 70
     0
 10
0.0
 20
0.0
 30
0.0
  3
*Paper_Space0
  1

  0
ENDBLK
  5
25
330
23
100
AcDbEntity
  8
0
100
AcDbBlockEnd
  0
ENDSEC
  0
SECTION
  2
ENTITIES
  0
ARC
  5
73
330
1F
100
AcDbEntity
  8
0
  6
CENTERX2
 62
     7
100
AcDbCircle
 10
-6.35
 20
-50.8
 30
0.0
 40
1.397000000000013
100
AcDbArc
 50
90.0
 51
270.0
  0
ARC
  5
74
330
1F
100
AcDbEntity
  8
0
  6
CENTERX2
 62
     7
100
AcDbCircle
 10
6.35
 20
-50.8
 30
0.0
 40
1.396999999999998
100
AcDbArc
 50
270.0
 51
90.0
  0
LINE
  5
7E
330
1F
100
AcDbEntity
  8
0
  6
CENTERX2
 62
     7
100
AcDbLine
 10
-6.35
 20
-49.403
 30
0.0
 11
6.35
 21
-49.403
 31
0.0
  0
LINE
  5
7F
330
1F
100
AcDbEntity
  8
0
  6
CENTERX2
 62
     7
100
AcDbLine
 10
-6.35
 20
-52.197
 30
0.0
 11
6.35
 21
-52.197
 31
0.0
  0
LWPOLYLINE
  5
82
330
1F
100
AcDbEntity
  8
0
  6
Continuous
 62
     7
100
AcDbPolyline
 90
       20
 70
   128
 43
0.0
 10
-118.3896064758
 20
48.7767553402
 10
-118.3896132249
 20
71.8916235043
 10
-118.3896132249
 20
71.8916235043
 10
-102.9797011155
 20
71.8916235043
 10
-102.9797011155
 20
71.8916235043
 10
-102.9797011155
 20
69.2245233315
 10
-102.9797011155
 20
69.2245233315
 10
-115.1298241248
 20
69.2245233315
 10
-115.1298241248
 20
69.2245233315
 10
-115.1298241248
 20
61.8159117405
 10
-115.1298241248
 20
61.8159117405
 10
-104.7577678974
 20
61.8159117405
 10
-104.7577678974
 20
61.8159117405
 10
-104.7577678974
 20
59.1488115677
 10
-104.7577678974
 20
59.1488115677
 10
-115.1298241248
 20
59.1488115677
 10
-115.1298241248
 20
59.1488115677
 10
-115.1298241248
 20
48.7767553402
 10
-115.1298241248
 20
48.7767553402
 10
-118.3896132249
 20
48.7767553402
  0
LWPOLYLINE
  5
83
330
1F
100
AcDbEntity
  8
0
  6
Continuous
 62
     7
100
AcDbPolyline
 90
       24
 70
   128
 43
0.0
 10
-98.8308191299
 20
48.7767553402
 10
-98.8308786245
 20
71.8916235043
 10
-98.8308786245
 20
71.8916235043
 10
-82.5319331242
 20
71.8916235043
 10
-82.5319331242
 20
71.8916235043
 10
-82.5319331242
 20
69.2245233315
 10
-82.5319331242
 20
69.2245233315
 10
-95.5710895245
 20
69.2245233315
 10
-95.5710895245
 20
69.2245233315
 10
-95.5710895245
 20
62.1122562041
 10
-95.5710895245
 20
62.1122562041
 10
-83.4209665152
 20
62.1122562041
 10
-83.4209665152
 20
62.1122562041
 10
-83.4209665152
 20
59.4451560313
 10
-83.4209665152
 20
59.4451560313
 10
-95.5710895245
 20
59.4451560313
 10
-95.5710895245
 20
59.4451560313
 10
-95.5710895245
 20
51.443855513
 10
-95.5710895245
 20
51.443855513
 10
-81.939244197
 20
51.443855513
 10
-81.939244197
 20
51.443855513
 10
-81.939244197
 20
48.7767553402
 10
-81.939244197
 20
48.7767553402
 10
-98.8308786245
 20
48.7767553402
  0
LWPOLYLINE
  5
84
330
1F
100
AcDbEntity
  8
0
  6
Continuous
 62
     7
100
AcDbPolyline
 90
       84
 70
   128
 43
0.0
 10
-77.4940252304
 20
48.7767553402
 10
-77.4940772423
 20
71.8916235043
 10
-77.4940772423
 20
71.8916235043
 10
-67.464669301
 20
71.8916235043
 10
-67.464669301
 20
71.8916235043
 10
-66.7562208176
 20
71.8823627398
 10
-66.0940761566
 20
71.8545804463
 10
-65.4782353181
 20
71.8036462417
 10
-64.8994375376
 20
71.7388208902
 10
-64.3715739617
 20
71.6508436276
 10
-63.8807534438
 20
71.544344836
 10
-63.4362367483
 20
71.4193245154
 10
-63.0380238753
 20
71.2757826658
 10
-62.6675932958
 20
71.109088905
 10
-62.3203146274
 20
70.9099824685
 10
-61.9869271058
 20
70.6830937385
 10
-61.6766914955
 20
70.4237923328
 10
-61.3849774141
 20
70.1367086337
 10
-61.1117848616
 20
69.821842641
 10
-60.8571138382
 20
69.4745639727
 10
-60.6209643437
 20
69.0995030109
 10
-60.2227514707
 20
68.3030772649
 10
-59.9402981538
 20
67.4603476964
 10
-59.7689740108
 20
66.58057507
 10
-59.7134094238
 20
65.6591290033
 10
-59.7134094238
 20
65.6591290033
 10
-59.7365613351
 20
65.066440076
 10
-59.8060170687
 20
64.4922726777
 10
-59.9264070071
 20
63.9458875729
 10
-60.0884703856
 20
63.4226543793
 10
-60.3014679689
 20
62.9225730969
 10
-60.5561389923
 20
62.4456437257
 10
-60.8617442204
 20
61.996496648
 10
-61.213653271
 20
61.5658710993
 10
-61.611866144
 20
61.1676582263
 10
-62.065643604
 20
60.8064884112
 10
-62.5657248864
 20
60.4869920363
 10
-63.1213707557
 20
60.2045387194
 10
-63.7233204475
 20
59.9544980782
 10
-64.3808347262
 20
59.7461308772
 10
-65.0846528273
 20
59.5794371164
 10
-65.8440355154
 20
59.4451560313
 10
-65.8440355154
 20
59.4451560313
 10
-65.2883896461
 20
59.1580723322
 10
-64.8021995104
 20
58.8756190153
 10
-64.3900954907
 20
58.5885353161
 10
-64.0474472046
 20
58.3060819992
 10
-64.0474472046
 20
58.3060819992
 10
-63.4038240726
 20
57.6531981028
 10
-62.7833528519
 20
56.9123369436
 10
-62.1860335423
 20
56.0788681397
 10
-61.611866144
 20
55.157422073
 10
-61.611866144
 20
55.157422073
 10
-57.8195830859
 20
48.7767553402
 10
-57.8195830859
 20
48.7767553402
 10
-61.5563015571
 20
48.7767553402
 10
-61.5563015571
 20
48.7767553402
 10
-64.4363993131
 20
53.6571782258
 10
-64.4363993131
 20
53.6571782258
 10
-64.7466349235
 20
54.171150655
 10
-65.0383490049
 20
54.6527104084
 10
-65.3208023218
 20
55.1018574861
 10
-65.5847341097
 20
55.5185918881
 10
-65.8394051332
 20
55.9075439966
 10
-66.0801850099
 20
56.2640834294
 10
-66.3024433576
 20
56.5882101865
 10
-66.5154409409
 20
56.8845546502
 10
-66.9136538139
 20
57.4031574616
 10
-67.2887147757
 20
57.8337830103
 10
-67.6452542085
 20
58.1764312964
 10
-67.9786417301
 20
58.4357327021
 10
-68.6268952443
 20
58.8061632816
 10
-69.2890399053
 20
59.0423127761
 10
-69.2890399053
 20
59.0423127761
 10
-69.5714932222
 20
59.0886165985
 10
-69.9372934195
 20
59.1210292742
 10
-70.3771797327
 20
59.1441811855
 10
-70.8957825441
 20
59.1488115677
 10
-70.8957825441
 20
59.1488115677
 10
-74.2342881423
 20
59.1488115677
 10
-74.2342881423
 20
59.1488115677
 10
-74.2342881423
 20
48.7767553402
 10
-74.2342881423
 20
48.7767553402
 10
-77.4940772423
 20
48.7767553402
  0
LWPOLYLINE
  5
85
330
1F
100
AcDbEntity
  8
0
  6
Continuous
 62
     7
100
AcDbPolyline
 90
       36
 70
   128
 43
0.0
 10
-74.2342472076
 20
61.8159117405
 10
-68.0434670815
 20
61.8159117405
 10
-68.0434670815
 20
61.8159117405
 10
-67.1127602504
 20
61.8436940339
 10
-66.3070737399
 20
61.9224105321
 10
-65.6171467854
 20
62.0520612349
 10
-65.0522401516
 20
62.2326461425
 10
-64.5753107805
 20
62.4734260192
 10
-64.1539459962
 20
62.7790312473
 10
-63.8020369456
 20
63.1494618269
 10
-63.505692482
 20
63.5800873756
 10
-63.2741733698
 20
64.0523863645
 10
-63.107479609
 20
64.5478372647
 10
-63.0056111996
 20
65.0571793116
 10
-62.9731985239
 20
65.5896732697
 10
-62.9731985239
 20
65.5896732697
 10
-62.9917200529
 20
65.9786253782
 10
-63.0380238753
 20
66.3490559577
 10
-63.1213707557
 20
66.7009650083
 10
-63.2371303118
 20
67.0389829122
 10
-63.3853025436
 20
67.3538489048
 10
-63.5658874512
 20
67.6548237507
 10
-63.7788850344
 20
67.9372770676
 10
-64.0242952934
 20
68.2012088555
 10
-64.3067486103
 20
68.4419887322
 10
-64.6262449851
 20
68.6503559332
 10
-64.982784418
 20
68.8263104585
 10
-65.380997291
 20
68.9698523081
 10
-65.8116228397
 20
69.0809814819
 10
-66.2839218286
 20
69.1596979801
 10
-66.7978942578
 20
69.2106321848
 10
-67.3442793626
 20
69.2245233315
 10
-67.3442793626
 20
69.2245233315
 10
-74.2342881423
 20
69.2245233315
 10
-74.2342881423
 20
69.2245233315
 10
-74.2342881423
 20
61.8159117405
  0
LWPOLYLINE
  5
86
330
1F
100
AcDbEntity
  8
0
  6
Continuous
 62
     7
100
AcDbPolyline
 90
       44
 70
   128
 43
0.0
 10
-54.9718737602
 20
48.7767553402
 10
-54.9718980056
 20
71.8916235043
 10
-54.9718980056
 20
71.8916235043
 10
-50.0683232087
 20
71.8916235043
 10
-50.0683232087
 20
71.8916235043
 10
-44.900816624
 20
55.6713945021
 10
-44.900816624
 20
55.6713945021
 10
-44.7294924809
 20
55.1203790151
 10
-44.5674291024
 20
54.6064065859
 10
-44.4192568706
 20
54.1294772148
 10
-44.2849757855
 20
53.6895909015
 10
-44.1599554649
 20
53.282117264
 10
-44.048826291
 20
52.9116866845
 10
-43.9469578816
 20
52.5782991629
 10
-43.858980619
 20
52.277324317
 10
-43.858980619
 20
52.277324317
 10
-43.7617425919
 20
52.6060814564
 10
-43.650613418
 20
52.9765120359
 10
-43.5302234796
 20
53.3793552912
 10
-43.3913120123
 20
53.8192416044
 10
-43.2431397805
 20
54.2961709756
 10
-43.0857067842
 20
54.8101434047
 10
-42.9097522589
 20
55.3611588918
 10
-42.7245369691
 20
55.9492174368
 10
-42.7245369691
 20
55.9492174368
 10
-37.607964589
 20
71.8916235043
 10
-37.607964589
 20
71.8916235043
 10
-32.7460632324
 20
71.8916235043
 10
-32.7460632324
 20
71.8916235043
 10
-32.7460632324
 20
48.7767553402
 10
-32.7460632324
 20
48.7767553402
 10
-36.0058523325
 20
48.7767553402
 10
-36.0058523325
 20
48.7767553402
 10
-36.0058523325
 20
68.3354899406
 10
-36.0058523325
 20
68.3354899406
 10
-42.173521482
 20
48.7767553402
 10
-42.173521482
 20
48.7767553402
 10
-45.5814828139
 20
48.7767553402
 10
-45.5814828139
 20
48.7767553402
 10
-51.7121089055
 20
68.3354899406
 10
-51.7121089055
 20
68.3354899406
 10
-51.7121089055
 20
48.7767553402
 10
-51.7121089055
 20
48.7767553402
 10
-54.9718980056
 20
48.7767553402
  0
LWPOLYLINE
  5
87
330
1F
100
AcDbEntity
  8
0
  6
Continuous
 62
     7
100
AcDbPolyline
 90
       24
 70
   128
 43
0.0
 10
-28.0045419931
 20
48.7767553402
 10
-28.0045518142
 20
71.8916235043
 10
-28.0045518142
 20
71.8916235043
 10
-11.7056063139
 20
71.8916235043
 10
-11.7056063139
 20
71.8916235043
 10
-11.7056063139
 20
69.2245233315
 10
-11.7056063139
 20
69.2245233315
 10
-24.7447627141
 20
69.2245233315
 10
-24.7447627141
 20
69.2245233315
 10
-24.7447627141
 20
62.1122562041
 10
-24.7447627141
 20
62.1122562041
 10
-12.5946397048
 20
62.1122562041
 10
-12.5946397048
 20
62.1122562041
 10
-12.5946397048
 20
59.4451560313
 10
-12.5946397048
 20
59.4451560313
 10
-24.7447627141
 20
59.4451560313
 10
-24.7447627141
 20
59.4451560313
 10
-24.7447627141
 20
51.443855513
 10
-24.7447627141
 20
51.443855513
 10
-11.1129173866
 20
51.443855513
 10
-11.1129173866
 20
51.443855513
 10
-11.1129173866
 20
48.7767553402
 10
-11.1129173866
 20
48.7767553402
 10
-28.0045518142
 20
48.7767553402
  0
LWPOLYLINE
  5
88
330
1F
100
AcDbEntity
  8
0
  6
Continuous
 62
     7
100
AcDbPolyline
 90
       20
 70
   128
 43
0.0
 10
-6.6677480936
 20
48.7767553402
 10
-6.6677504319
 20
71.8916235043
 10
-6.6677504319
 20
71.8916235043
 10
-3.2227460421
 20
71.8916235043
 10
-3.2227460421
 20
71.8916235043
 10
7.8531282865
 20
54.6434496439
 10
7.8531282865
 20
54.6434496439
 10
7.8531282865
 20
71.8916235043
 10
7.8531282865
 20
71.8916235043
 10
11.1129173866
 20
71.8916235043
 10
11.1129173866
 20
71.8916235043
 10
11.1129173866
 20
48.7767553402
 10
11.1129173866
 20
48.7767553402
 10
7.6679129967
 20
48.7767553402
 10
7.6679129967
 20
48.7767553402
 10
-3.4079613319
 20
66.0249292006
 10
-3.4079613319
 20
66.0249292006
 10
-3.4079613319
 20
48.7767553402
 10
-3.4079613319
 20
48.7767553402
 10
-6.6677504319
 20
48.7767553402
  0
LWPOLYLINE
  5
89
330
1F
100
AcDbEntity
  8
0
  6
Continuous
 62
     7
100
AcDbPolyline
 90
       16
 70
   128
 43
0.0
 10
22.0776498318
 20
48.7767553402
 10
22.0776625413
 20
69.2245233315
 10
22.0776625413
 20
69.2245233315
 10
14.6690509503
 20
69.2245233315
 10
14.6690509503
 20
69.2245233315
 10
14.6690509503
 20
71.8916235043
 10
14.6690509503
 20
71.8916235043
 10
32.7460632324
 20
71.8916235043
 10
32.7460632324
 20
71.8916235043
 10
32.7460632324
 20
69.2245233315
 10
32.7460632324
 20
69.2245233315
 10
25.3374516414
 20
69.2245233315
 10
25.3374516414
 20
69.2245233315
 10
25.3374516414
 20
48.7767553402
 10
25.3374516414
 20
48.7767553402
 10
22.0776625413
 20
48.7767553402
  0
LWPOLYLINE
  5
8A
330
1F
100
AcDbEntity
  8
0
  6
Continuous
 62
     7
100
AcDbPolyline
 90
       16
 70
   128
 43
0.0
 10
33.139616251
 20
48.7767553402
 10
42.3170633316
 20
71.8916235043
 10
42.3170633316
 20
71.8916235043
 10
45.9935868337
 20
71.8916235043
 10
45.9935868337
 20
71.8916235043
 10
55.1710044421
 20
48.7767553402
 10
55.1710044421
 20
48.7767553402
 10
51.7121089055
 20
48.7767553402
 10
51.7121089055
 20
48.7767553402
 10
49.0820517907
 20
55.8890224676
 10
49.0820517907
 20
55.8890224676
 10
39.2285983746
 20
55.8890224676
 10
39.2285983746
 20
55.8890224676
 10
36.5985412598
 20
48.7767553402
 10
36.5985412598
 20
48.7767553402
 10
33.1396457232
 20
48.7767553402
  0
LWPOLYLINE
  5
8B
330
1F
100
AcDbEntity
  8
0
  6
Continuous
 62
     7
100
AcDbPolyline
 90
       20
 70
   128
 43
0.0
 10
40.2102172375
 20
58.5561226404
 10
48.1004107549
 20
58.5561226404
 10
48.1004107549
 20
58.5561226404
 10
45.8546753663
 20
64.6311841451
 10
45.8546753663
 20
64.6311841451
 10
45.5953739606
 20
65.3350022462
 10
45.3453333194
 20
66.0064076717
 10
45.1138142072
 20
66.6361396569
 10
44.8915558595
 20
67.2288285842
 10
44.6878190407
 20
67.7844744535
 10
44.4979733687
 20
68.3030772649
 10
44.3173884612
 20
68.7800066361
 10
44.1553250826
 20
69.2245233315
 10
44.1553250826
 20
69.2245233315
 10
43.8728717657
 20
68.1317531218
 10
43.5117019507
 20
67.0575044411
 10
43.0810764019
 20
65.9971469072
 10
42.5763647373
 20
64.9553109022
 10
42.5763647373
 20
64.9553109022
 10
40.2102394104
 20
58.5561226404
  0
LWPOLYLINE
  5
8C
330
1F
100
AcDbEntity
  8
0
  6
Continuous
 62
     7
100
AcDbPolyline
 90
       66
 70
   128
 43
0.0
 10
57.6389729977
 20
48.7767553402
 10
57.6389981783
 20
71.8916235043
 10
57.6389981783
 20
71.8916235043
 10
66.2931825931
 20
71.8916235043
 10
66.2931825931
 20
71.8916235043
 10
66.9368057251
 20
71.8823627398
 10
67.5480161814
 20
71.8453196819
 10
68.1268139619
 20
71.7897550949
 10
68.6731990667
 20
71.715668979
 10
69.1871714959
 20
71.6138005696
 10
69.6687312493
 20
71.488780249
 10
70.1132479448
 20
71.3452383995
 10
70.5299823468
 20
71.1785446387
 10
71.2847346526
 20
70.7757013834
 10
71.956140078
 20
70.275620101
 10
72.5349378586
 20
69.6829311737
 10
73.0303887587
 20
68.9883738371
 10
73.4286016318
 20
68.2428822957
 10
73.7110549487
 20
67.4788692254
 10
73.8823790917
 20
66.6963346261
 10
73.9379436786
 20
65.89990888
 10
73.9379436786
 20
65.89990888
 10
73.8823790917
 20
65.1590477209
 10
73.7203157131
 20
64.441338473
 10
73.451753543
 20
63.7421507541
 10
73.0720621989
 20
63.0661149465
 10
72.5858720633
 20
62.4363829612
 10
71.993183136
 20
61.8714763274
 10
71.2847346526
 20
61.3667646628
 10
70.4697873776
 20
60.9268783495
 10
70.4697873776
 20
60.9268783495
 10
70.9791294245
 20
60.7601845887
 10
71.4560587956
 20
60.5703389167
 10
71.9052058733
 20
60.3527109512
 10
72.3265706576
 20
60.1073006923
 10
72.7155227661
 20
59.8341081399
 10
73.0720621989
 20
59.533133294
 10
73.4008193383
 20
59.2043761546
 10
73.6971638019
 20
58.8524671041
 10
73.9610955899
 20
58.4774061423
 10
74.1926147021
 20
58.0884540337
 10
74.3870907563
 20
57.6809803962
 10
74.5445237527
 20
57.259615612
 10
74.6695440733
 20
56.8150989165
 10
74.7575213359
 20
56.3613214566
 10
74.8084555406
 20
55.8890224676
 10
74.8269770696
 20
55.3982019497
 10
74.8269770696
 20
55.3982019497
 10
74.7853036294
 20
54.6110369682
 10
74.6602833088
 20
53.8470238979
 10
74.4472857255
 20
53.1154235032
 10
74.1509412619
 20
52.4116054021
 10
73.7944018291
 20
51.7633518879
 10
73.396188956
 20
51.1938148718
 10
72.9563026428
 20
50.6983639717
 10
72.4793732716
 20
50.2862599519
 10
71.9515096958
 20
49.9343509013
 10
71.3634511507
 20
49.6333760554
 10
70.705936872
 20
49.3694442675
 10
69.9882276242
 20
49.1564466843
 10
69.1964322604
 20
48.9897529235
 10
68.3212900162
 20
48.8739933674
 10
67.3628008916
 20
48.7999072515
 10
66.3163345043
 20
48.7767553402
 10
66.3163345043
 20
48.7767553402
 10
57.6389981783
 20
48.7767553402
  0
LWPOLYLINE
  5
8D
330
1F
100
AcDbEntity
  8
0
  6
Continuous
 62
     7
100
AcDbPolyline
 90
       41
 70
   128
 43
0.0
 10
60.8987808228
 20
62.1122562041
 10
65.6634506079
 20
62.1122562041
 10
65.6634506079
 20
62.1122562041
 10
66.1311192146
 20
62.1168865864
 10
66.5617447633
 20
62.1307777331
 10
66.9599576363
 20
62.1492992621
 10
67.3257578336
 20
62.1817119378
 10
67.654514973
 20
62.2187549957
 10
67.9508594366
 20
62.2650588182
 10
68.2147912246
 20
62.3206234051
 10
68.4416799545
 20
62.3854487565
 10
68.4416799545
 20
62.3854487565
 10
68.9649131481
 20
62.5891855753
 10
69.4140602259
 20
62.8531173632
 10
69.7983819521
 20
63.1772441203
 10
70.1132479448
 20
63.5569354644
 10
70.3586582037
 20
63.9921913953
 10
70.5392431112
 20
64.4830119132
 10
70.6411115206
 20
65.0201362536
 10
70.6781545786
 20
65.6128251809
 10
70.6781545786
 20
65.6128251809
 10
70.6457419029
 20
66.1823621969
 10
70.5485038757
 20
66.7148561551
 10
70.3818101149
 20
67.2103070552
 10
70.1502910027
 20
67.6733452796
 10
69.8585769213
 20
68.0854492994
 10
69.5159286352
 20
68.4280975855
 10
69.1084549977
 20
68.6966597557
 10
68.6500471555
 20
68.8957661922
 10
68.3861153676
 20
68.9744826903
 10
68.0758797572
 20
69.0393080417
 10
67.7193403244
 20
69.0948726287
 10
67.3257578336
 20
69.1411764511
 10
66.8858715204
 20
69.1782195091
 10
66.3996813847
 20
69.2060018025
 10
65.8718178089
 20
69.2198929493
 10
65.3022807928
 20
69.2245233315
 10
65.3022807928
 20
69.2245233315
 10
60.8987872784
 20
69.2245233315
 10
60.8987872784
 20
69.2245233315
 10
60.8987872784
 20
62.1122562041
  0
LWPOLYLINE
  5
8E
330
1F
100
AcDbEntity
  8
0
  6
Continuous
 62
     7
100
AcDbPolyline
 90
       37
 70
   128
 43
0.0
 10
60.8987808228
 20
51.443855513
 10
66.367268709
 20
51.443855513
 10
66.367268709
 20
51.443855513
 10
67.0201526055
 20
51.4531162775
 10
67.5665377103
 20
51.4716378065
 10
68.0064240236
 20
51.5086808644
 10
68.3444419274
 20
51.5549846869
 10
68.3444419274
 20
51.5549846869
 10
68.8260016808
 20
51.6661138607
 10
69.265887994
 20
51.8096557103
 10
69.6641008671
 20
51.9809798534
 10
70.0206402999
 20
52.1893470544
 10
70.344767057
 20
52.4347573133
 10
70.6364811384
 20
52.7357321592
 10
70.9004129263
 20
53.0830108275
 10
71.1319320385
 20
53.4812237005
 10
71.3217777105
 20
53.925740396
 10
71.4606891779
 20
54.3980393849
 10
71.539405676
 20
54.9073814318
 10
71.5671879695
 20
55.4445057722
 10
71.5671879695
 20
55.4445057722
 10
71.5301449115
 20
56.0742377574
 10
71.4143853554
 20
56.6622963025
 10
71.2199093012
 20
57.204051025
 10
70.9467167488
 20
57.7041323074
 10
70.6086988449
 20
58.1486490029
 10
70.2058555896
 20
58.5237099647
 10
69.738186983
 20
58.8246848106
 10
69.2103234071
 20
59.0562039228
 10
68.5898521863
 20
59.2275280659
 10
67.8489910272
 20
59.3479180042
 10
66.9831095475
 20
59.4220041201
 10
65.9922077472
 20
59.4451560313
 10
65.9922077472
 20
59.4451560313
 10
60.8987872784
 20
59.4451560313
 10
60.8987872784
 20
59.4451560313
 10
60.8987872784
 20
51.443855513
  0
LWPOLYLINE
  5
8F
330
1F
100
AcDbEntity
  8
0
  6
Continuous
 62
     7
100
AcDbPolyline
 90
       92
 70
   128
 43
0.0
 10
77.7903795242
 20
60.0285841941
 10
77.8367255284
 20
61.4176988675
 10
77.980267378
 20
62.7280970426
 10
78.2210472547
 20
63.9597787196
 10
78.5590651586
 20
65.1127438985
 10
78.9896907073
 20
66.1916229614
 10
79.5129239009
 20
67.1917855262
 10
80.1380255039
 20
68.1132315929
 10
80.8557347518
 20
68.9605915436
 10
81.6521604978
 20
69.7153438494
 10
82.4995204485
 20
70.3728581281
 10
83.4070753684
 20
70.9285039975
 10
84.365564493
 20
71.3822814574
 10
85.3842485868
 20
71.734190508
 10
86.4584972675
 20
71.9842311492
 10
87.5836801529
 20
72.1370337632
 10
88.7690580075
 20
72.1879679679
 10
88.7690580075
 20
72.1879679679
 10
89.5515926068
 20
72.1648160567
 10
90.3202360593
 20
72.095360323
 10
91.0610972184
 20
71.9749703847
 10
91.7880672308
 20
71.8082766239
 10
92.491885332
 20
71.5952790407
 10
93.1818122864
 20
71.335977635
 10
93.8439569473
 20
71.0257420246
 10
94.4922104615
 20
70.6692025918
 10
95.1126816823
 20
70.2709897188
 10
95.6914794628
 20
69.8357337878
 10
96.2332341854
 20
69.3634347989
 10
96.7425762323
 20
68.854092752
 10
97.2056144568
 20
68.3077076471
 10
97.6362400055
 20
67.7242794843
 10
98.0298224963
 20
67.0991778813
 10
98.3817315468
 20
66.4416636026
 10
98.6965975395
 20
65.7517366482
 10
98.9651597096
 20
65.0432881648
 10
99.1966788219
 20
64.307057388
 10
99.3865244939
 20
63.5523050821
 10
99.5300663435
 20
62.7697704828
 10
99.6365651351
 20
61.9687143545
 10
99.6967601043
 20
61.144506315
 10
99.7199120155
 20
60.2971463643
 10
99.7199120155
 20
60.2971463643
 10
99.6967601043
 20
59.4358952668
 10
99.6319347528
 20
58.5977960806
 10
99.520805579
 20
57.7874791878
 10
99.3680029649
 20
56.995683824
 10
99.1688965284
 20
56.2270403715
 10
98.9281166517
 20
55.4815488301
 10
98.6410329525
 20
54.7592092
 10
98.3122758132
 20
54.0600214811
 10
97.9418452336
 20
53.3932464379
 10
97.5343715961
 20
52.7681448349
 10
97.0898549007
 20
52.1847166721
 10
96.6129255295
 20
51.6429619495
 10
96.0943227181
 20
51.1428806671
 10
95.5386768488
 20
50.6844728249
 10
94.9506183037
 20
50.2677384229
 10
94.3208863185
 20
49.8926774611
 10
93.668002422
 20
49.5639203218
 10
93.0058577611
 20
49.2768366226
 10
92.3298219534
 20
49.0314263637
 10
91.639894999
 20
48.8323199272
 10
90.9360768978
 20
48.6795173131
 10
90.2229980322
 20
48.5683881392
 10
89.4960280198
 20
48.5035627878
 10
88.7551668607
 20
48.4804108766
 10
88.7551668607
 20
48.4804108766
 10
87.9587411147
 20
48.5035627878
 10
87.1808368976
 20
48.5776489037
 10
86.4260845918
 20
48.6980388421
 10
85.6898538149
 20
48.8693629851
 10
84.9767749493
 20
49.0916213329
 10
84.2868479949
 20
49.360183503
 10
83.6154425694
 20
49.6750494956
 10
82.9671890552
 20
50.040849693
 10
82.3513482167
 20
50.4483233305
 10
81.7725504362
 20
50.8928400259
 10
81.2307957136
 20
51.3743997793
 10
80.7307144312
 20
51.8930025907
 10
80.2630458245
 20
52.4440180778
 10
79.8416810403
 20
53.0274462406
 10
79.4527289317
 20
53.6525478436
 10
79.1054502634
 20
54.3100621223
 10
78.795214653
 20
54.9907283122
 10
78.5312828651
 20
55.6806552666
 10
78.3043941351
 20
56.3798429855
 10
78.1191788453
 20
57.0929218512
 10
77.9756369958
 20
57.8106310991
 10
77.8737685864
 20
58.5422314937
 10
77.808943235
 20
59.2784622705
 10
77.790421706
 20
60.0285841941
  0
LWPOLYLINE
  5
90
330
1F
100
AcDbEntity
  8
0
  6
Continuous
 62
     7
100
AcDbPolyline
 90
       76
 70
   128
 43
0.0
 10
81.050157547
 20
59.9915411362
 10
81.0826234818
 20
58.9913785714
 10
81.1891222734
 20
58.0467805935
 10
81.3604464164
 20
57.1531168204
 10
81.5965959109
 20
56.3150176341
 10
81.9068315213
 20
55.5324830348
 10
82.2818924831
 20
54.8055130224
 10
82.7264091785
 20
54.134107597
 10
83.2403816076
 20
53.5136363763
 10
83.8052882415
 20
52.9579905069
 10
84.4072379332
 20
52.4764307535
 10
85.0416003007
 20
52.0735874982
 10
85.7130057262
 20
51.7401999767
 10
86.4168238273
 20
51.480898571
 10
87.1576849864
 20
51.2956832812
 10
87.9309588212
 20
51.1845541073
 10
88.741275714
 20
51.1475110494
 10
88.741275714
 20
51.1475110494
 10
89.5654837535
 20
51.1845541073
 10
90.3480183528
 20
51.2956832812
 10
91.0981402764
 20
51.4855289532
 10
91.811219142
 20
51.7448303589
 10
92.4826245675
 20
52.0828482627
 10
93.1216173172
 20
52.4903219002
 10
93.7189366267
 20
52.9765120359
 10
94.2838432605
 20
53.5367882875
 10
94.7931853074
 20
54.1665202727
 10
95.2377020029
 20
54.8564472271
 10
95.6081325824
 20
55.611199533
 10
95.9183681928
 20
56.426146808
 10
96.1545176873
 20
57.3059194344
 10
96.3258418303
 20
58.2505174123
 10
96.4277102397
 20
59.2553103593
 10
96.4601229154
 20
60.3202982755
 10
96.4601229154
 20
60.3202982755
 10
96.4462317687
 20
61.0055948477
 10
96.3999279462
 20
61.6631091264
 10
96.3304722126
 20
62.3021018761
 10
96.2286038032
 20
62.9225730969
 10
96.0943227181
 20
63.5152620242
 10
95.9368897218
 20
64.0894294225
 10
95.7470440498
 20
64.6404449096
 10
95.5294160843
 20
65.1683084854
 10
95.2840058253
 20
65.6730201501
 10
95.0108132729
 20
66.145319139
 10
94.709838427
 20
66.5898358345
 10
94.3857116699
 20
67.0065702364
 10
94.0291722371
 20
67.3908919627
 10
93.6494808931
 20
67.7474313956
 10
93.2420072556
 20
68.0761885349
 10
92.8067513246
 20
68.3771633808
 10
92.3529738646
 20
68.645725551
 10
91.8853052579
 20
68.8772446632
 10
91.4037455045
 20
69.0763510997
 10
90.9082946044
 20
69.233784096
 10
90.3989525575
 20
69.3588044166
 10
89.8757193639
 20
69.4514120615
 10
89.3385950235
 20
69.5023462662
 10
88.7875795364
 20
69.5208677952
 10
88.7875795364
 20
69.5208677952
 10
88.0096753194
 20
69.4884551194
 10
87.2595533958
 20
69.3819563278
 10
86.5325833834
 20
69.2106321848
 10
85.8380260468
 20
68.9744826903
 10
85.1712510036
 20
68.6642470799
 10
84.5322582538
 20
68.2845557359
 10
83.9164174153
 20
67.8400390404
 10
83.3329892525
 20
67.3260666113
 10
82.7958649122
 20
66.733377684
 10
82.3328266877
 20
66.0434507296
 10
81.9438745792
 20
65.2655465126
 10
81.6197478221
 20
64.3950346506
 10
81.3697071809
 20
63.4319151438
 10
81.1937526556
 20
62.376187992
 10
81.087253864
 20
61.2324835777
 10
81.050210806
 20
59.9915411362
  0
LWPOLYLINE
  5
91
330
1F
100
AcDbEntity
  8
0
  6
Continuous
 62
     7
100
AcDbPolyline
 90
       16
 70
   128
 43
0.0
 10
109.4992756844
 20
48.7767553402
 10
109.4992793157
 20
69.2245233315
 10
109.4992793157
 20
69.2245233315
 10
102.0906677246
 20
69.2245233315
 10
102.0906677246
 20
69.2245233315
 10
102.0906677246
 20
71.8916235043
 10
102.0906677246
 20
71.8916235043
 10
120.1676800068
 20
71.8916235043
 10
120.1676800068
 20
71.8916235043
 10
120.1676800068
 20
69.2245233315
 10
120.1676800068
 20
69.2245233315
 10
112.7590684157
 20
69.2245233315
 10
112.7590684157
 20
69.2245233315
 10
112.7590684157
 20
48.7767553402
 10
112.7590684157
 20
48.7767553402
 10
109.4992793157
 20
48.7767553402
  0
LWPOLYLINE
  5
92
330
1F
100
AcDbEntity
  8
0
  6
Continuous
 62
     7
100
AcDbPolyline
 90
       28
 70
   128
 43
0.0
 10
-20.1678723097
 20
-17.9454240153
 10
-25.9301405687
 20
-17.9454240153
 10
-25.9301405687
 20
-17.9454240153
 10
-25.9301405687
 20
17.0782727945
 10
-25.9301405687
 20
17.0782727945
 10
-26.9385349241
 20
16.1329030862
 10
-28.090985616
 20
15.187533378
 10
-29.3964961655
 20
14.2331601487
 10
-30.8460630515
 20
13.2877904405
 10
-32.3226405005
 20
12.4054453795
 10
-33.7271897813
 20
11.6311425708
 10
-35.0507073728
 20
10.9828890566
 10
-36.3021967961
 20
10.4516813158
 10
-36.3021967961
 20
10.4516813158
 10
-36.3021967961
 20
15.763758724
 10
-36.3021967961
 20
15.763758724
 10
-34.1593587908
 20
16.9072058949
 10
-32.160577122
 20
18.1586953182
 10
-30.2968482686
 20
19.5272305148
 10
-28.5681722307
 20
21.0128114849
 10
-27.0285701344
 20
22.5434100602
 10
-25.741066627
 20
24.0560015933
 10
-24.6876546664
 20
25.5415825634
 10
-23.8773377736
 20
27.0001529704
 10
-23.8773377736
 20
27.0001529704
 10
-20.167887109
 20
27.0001529704
 10
-20.167887109
 20
27.0001529704
 10
-20.167887109
 20
-17.9454240153
  0
LWPOLYLINE
  5
93
330
1F
100
AcDbEntity
  8
0
  6
Continuous
 62
     7
100
AcDbPolyline
 90
        8
 70
   128
 43
0.0
 10
-2.8811264783
 20
-17.9454240153
 10
-2.8811267299
 20
-12.1831705556
 10
-2.8811267299
 20
-12.1831705556
 10
2.8811267299
 20
-12.1831705556
 10
2.8811267299
 20
-12.1831705556
 10
2.8811267299
 20
-17.9454240153
 10
2.8811267299
 20
-17.9454240153
 10
-2.8811267299
 20
-17.9454240153
  0
LWPOLYLINE
  5
94
330
1F
100
AcDbEntity
  8
0
  6
Continuous
 62
     7
100
AcDbPolyline
 90
       89
 70
   128
 43
0.0
 10
11.5245059133
 20
4.2212447625
 10
11.5515174825
 20
6.1479982631
 10
11.6235456507
 20
7.9937200744
 10
11.7495949452
 20
9.7404031544
 10
11.9296653658
 20
11.388047503
 10
12.1547533916
 20
12.9546601624
 10
12.4338625435
 20
14.4222340904
 10
12.7579893006
 20
15.7997728081
 10
13.1361371839
 20
17.0872763155
 10
13.5593026724
 20
18.2937481336
 10
14.036489287
 20
19.4191882625
 10
14.5676970278
 20
20.463596702
 10
15.1439223738
 20
21.4359769734
 10
15.7651653249
 20
22.3183220344
 10
16.4314258812
 20
23.1376424482
 10
17.1517075636
 20
23.8669276517
 10
17.9260103723
 20
24.5241846869
 10
18.7453307861
 20
25.1004100329
 10
19.6186723261
 20
25.6046072106
 10
20.5370314712
 20
26.0367762201
 10
21.5184152636
 20
26.3789100193
 10
22.5448166611
 20
26.6490156502
 10
23.6162356637
 20
26.8470931129
 10
24.7506793136
 20
26.9641388863
 10
25.9301405687
 20
27.0001529704
 10
25.9301405687
 20
27.0001529704
 10
27.6588166066
 20
26.9101177601
 10
29.3064609552
 20
26.6400121292
 10
30.8550665725
 20
26.1808325566
 10
32.3136369795
 20
25.5505860844
 10
33.6551616131
 20
24.7492727127
 10
34.8346228681
 20
23.7948994834
 10
35.8700277866
 20
22.6694593546
 10
36.7433693266
 20
21.3909593682
 10
37.5086686142
 20
19.9593995243
 10
38.1929362126
 20
18.3747798229
 10
38.8051756427
 20
16.646103785
 10
39.3363833835
 20
14.7643678896
 10
39.5704749303
 20
13.7469700131
 10
39.777555914
 20
12.6395369263
 10
39.9486228136
 20
11.4510721502
 10
40.0836756291
 20
10.1725721639
 10
40.1917178814
 20
8.8130404882
 10
40.2727495707
 20
7.3724771233
 10
40.3177671759
 20
5.841878548
 10
40.3357742179
 20
4.2212447625
 10
40.3357742179
 20
4.2212447625
 10
40.3087636548
 20
2.3034947829
 10
40.2367354866
 20
0.4757800137
 10
40.1106861921
 20
-1.2528960242
 10
39.9396192926
 20
-2.9005403728
 10
39.7055277458
 20
-4.4581495112
 10
39.4354221148
 20
-5.9257234392
 10
39.1112953577
 20
-7.3032621569
 10
38.7331474744
 20
-8.5907656643
 10
38.309981986
 20
-9.7882339614
 10
37.8417988924
 20
-10.9136740902
 10
37.3195946726
 20
-11.9670860508
 10
36.7433693266
 20
-12.9304628011
 10
36.1221263755
 20
-13.8218113832
 10
35.4558658192
 20
-14.641131797
 10
34.7355841368
 20
-15.3794205215
 10
33.9612813281
 20
-16.0366775568
 10
33.1419609143
 20
-16.6219064238
 10
32.2686193743
 20
-17.1261036015
 10
31.3412567082
 20
-17.5492690899
 10
30.3688764368
 20
-17.9004064101
 10
29.3334715183
 20
-18.1705120411
 10
28.2530489946
 20
-18.3685895037
 10
27.1186053447
 20
-18.4856352771
 10
25.9301405687
 20
-18.5216493613
 10
25.9301405687
 20
-18.5216493613
 10
24.3725314303
 20
-18.449621193
 10
22.9049575023
 20
-18.2515437303
 10
21.5184152636
 20
-17.9094099312
 10
20.2219082351
 20
-17.4412268376
 10
19.015436417
 20
-16.8289874075
 10
17.8899962882
 20
-16.0816951619
 10
16.8455878486
 20
-15.2083536219
 10
15.8912146193
 20
-14.1909557454
 10
15.8912146193
 20
-14.1909557454
 10
14.8648132218
 20
-12.6243430861
 10
13.9824681608
 20
-10.841645922
 10
13.2261723942
 20
-8.8608712952
 10
12.6139329641
 20
-6.6640121637
 10
12.1367463495
 20
-4.2510685275
 10
11.7946125503
 20
-1.6400474285
 10
11.5965350877
 20
1.1870581751
 10
11.5245069194
 20
4.2212447625
  0
LWPOLYLINE
  5
95
330
1F
100
AcDbEntity
  8
0
  6
Continuous
 62
     7
100
AcDbPolyline
 90
       69
 70
   128
 43
0.0
 10
17.286747694
 20
4.2392518046
 10
17.3227744632
 20
1.6462377477
 10
17.4398202366
 20
-0.7216882834
 10
17.6378976993
 20
-2.8465192467
 10
17.9080033302
 20
-4.7462621842
 10
18.2591406504
 20
-6.4029100538
 10
18.6913096599
 20
-7.8254663767
 10
19.1955068376
 20
-9.0229346738
 10
19.7807357046
 20
-9.977307903
 10
20.4199856978
 20
-10.7606142327
 10
21.1042532962
 20
-11.4448818311
 10
21.8155314576
 20
-12.021107177
 10
22.5628237031
 20
-12.4982937917
 10
23.3551335539
 20
-12.8674381539
 10
24.1744539677
 20
-13.1285402638
 10
25.0387919866
 20
-13.2816001213
 10
25.9301405687
 20
-13.3356212475
 10
25.9301405687
 20
-13.3356212475
 10
26.8214891507
 20
-13.2816001213
 10
27.6858271697
 20
-13.1285402638
 10
28.5051475835
 20
-12.8584346329
 10
29.2974574342
 20
-12.4892902706
 10
30.0447496797
 20
-12.021107177
 10
30.7560278412
 20
-11.4448818311
 10
31.4402954395
 20
-10.7606142327
 10
32.0795454327
 20
-9.968304382
 10
32.6647742997
 20
-9.0049276317
 10
33.1689714774
 20
-7.8164628557
 10
33.6011404869
 20
-6.3849030118
 10
33.9522778071
 20
-4.7282551421
 10
34.222383438
 20
-2.8375157256
 10
34.4204609007
 20
-0.7126847624
 10
34.5375066741
 20
1.6462377477
 10
34.5735207582
 20
4.2392518046
 10
34.5735207582
 20
4.2392518046
 10
34.5375066741
 20
6.7782447352
 10
34.4204609007
 20
9.1011531612
 10
34.231386959
 20
11.1899700403
 10
33.9702848492
 20
13.0627024147
 10
33.62815105
 20
14.7193502844
 10
33.2139890826
 20
16.1419066073
 10
32.7187954259
 20
17.3483784254
 10
32.1515736009
 20
18.3297622177
 10
31.5213271288
 20
19.1490826315
 10
30.8550665725
 20
19.8513572719
 10
30.13478489
 20
20.454593181
 10
29.3694856024
 20
20.9407833167
 10
28.5591687096
 20
21.327934721
 10
27.7128377328
 20
21.5980403519
 10
26.8124856297
 20
21.7601037305
 10
25.8671159214
 20
21.8141248567
 10
25.8671159214
 20
21.8141248567
 10
24.9757673394
 20
21.7691072515
 10
24.1204328415
 20
21.625050915
 10
23.3101159487
 20
21.3819558472
 10
22.5448166611
 20
21.048825569
 10
21.8155314576
 20
20.6076530385
 10
21.1312638593
 20
20.0854488187
 10
20.4920138661
 20
19.4552023466
 10
19.888777957
 20
18.7349206641
 10
19.888777957
 20
18.7349206641
 10
19.2765385269
 20
17.6454946194
 10
18.7543343071
 20
16.357991112
 10
18.3041582556
 20
14.8544030999
 10
17.9350138933
 20
13.152737625
 10
17.6559047414
 20
11.2349876455
 10
17.4488237577
 20
9.1101566822
 10
17.3317779843
 20
6.7782447352
 10
17.2867603791
 20
4.2392518046
  0
POINT
  5
96
330
1F
100
AcDbEntity
  8
0
  6
Continuous
 62
     7
100
AcDbPoint
 10
0.0
 20
0.0
 30
0.0
  0
SPLINE
  5
AC
330
1F
100
AcDbEntity
  8
0
  6
Continuous
 62
     7
370
    25
100
AcDbSpline
210
0.0
220
0.0
230
1.0
 70
     8
 71
     3
 72
    15
 73
    11
 74
     0
 42
0.000000001
 43
0.00000001
 40
0.0
 40
0.0
 40
0.0
 40
0.0
 40
0.1531481085926338
 40
0.299433468832909
 40
0.436426351456751
 40
0.5656705729563596
 40
0.6865083102878734
 40
0.7992685160630045
 40
0.9033947408013441
 40
1.0
 40
1.0
 40
1.0
 40
1.0
 10
45.85467536632832
 20
64.6311841450696
 30
0.0
 10
45.76858188945125
 20
64.86591624265705
 30
0.0
 10
45.60025288648746
 20
65.32486181418865
 30
0.0
 10
45.34922362990207
 20
65.99167098668043
 30
0.0
 10
45.11988734626436
 20
66.62490034560419
 30
0.0
 10
44.89500428755196
 20
67.21547028896697
 30
0.0
 10
44.69199833367264
 20
67.77195943879154
 30
0.0
 10
44.50488254251513
 20
68.29060896292721
 30
0.0
 10
44.31982660388979
 20
68.7678139989181
 30
0.0
 10
44.20877193192527
 20
69.07613762247648
 30
0.0
 10
44.15532508263222
 20
69.22452333151793
 30
0.0
  0
SPLINE
  5
AD
330
1F
100
AcDbEntity
  8
0
  6
Continuous
 62
     7
370
    25
100
AcDbSpline
210
0.0
220
0.0
230
1.0
 70
     8
 71
     3
 72
    11
 73
     7
 74
     0
 42
0.000000001
 43
0.00000001
 40
0.0
 40
0.0
 40
0.0
 40
0.0
 40
0.2472940500353341
 40
0.4956077709090489
 40
0.7463591727731952
 40
1.0
 40
1.0
 40
1.0
 40
1.0
 10
44.15532508263221
 20
69.22452333151791
 30
0.0
 10
44.06691367771562
 20
68.85861724041519
 30
0.0
 10
43.88972631996322
 20
68.12529631276827
 30
0.0
 10
43.51873913273815
 20
67.05088277736142
 30
0.0
 10
43.0943426754526
 20
65.98629523868892
 30
0.0
 10
42.74968218252029
 20
65.30028229595956
 30
0.0
 10
42.5763647372906
 20
64.95531090217784
 30
0.0
  0
SPLINE
  5
CD
330
1F
100
AcDbEntity
  8
0
  6
Continuous
 62
     7
370
    25
100
AcDbSpline
210
0.0
220
0.0
230
1.0
 70
     8
 71
     3
 72
    19
 73
    15
 74
     0
 42
0.000000001
 43
0.00000001
 40
0.0
 40
0.0
 40
0.0
 40
0.0
 40
0.1288602680417316
 40
0.2408921848092276
 40
0.338044201557511
 40
0.4201204852136075
 40
0.4940584568685515
 40
0.5660947835833192
 40
0.6368049543510106
 40
0.7091484493607195
 40
0.7819418055941272
 40
0.8542853006038359
 40
0.9261704072165585
 40
1.0
 40
1.0
 40
1.0
 40
1.0
 10
-68.0434670815101
 20
61.81591174047225
 30
0.0
 10
-67.73303586347177
 20
61.82076873128622
 30
0.0
 10
-67.1527138178741
 20
61.82984842005734
 30
0.0
 10
-66.34122524364105
 20
61.90737941869561
 30
0.0
 10
-65.64965642206911
 20
62.03057946797939
 30
0.0
 10
-65.06433602482169
 20
62.21028116858497
 30
0.0
 10
-64.5725745004284
 20
62.45976680373685
 30
0.0
 10
-64.14488015918485
 20
62.76381167029513
 30
0.0
 10
-63.78946077787639
 20
63.14465951719549
 30
0.0
 10
-63.49378856719431
 20
63.57436522779759
 30
0.0
 10
-63.26395649229187
 20
64.0472349128409
 30
0.0
 10
-63.09816659539627
 20
64.5439151876379
 30
0.0
 10
-62.9896542243462
 20
65.06023177582705
 30
0.0
 10
-62.97873233964683
 20
65.41162969811408
 30
0.0
 10
-62.97319852388822
 20
65.58967326966115
 30
0.0
  0
SPLINE
  5
CE
330
1F
100
AcDbEntity
  8
0
  6
Continuous
 62
     7
370
    25
100
AcDbSpline
210
0.0
220
0.0
230
1.0
 70
     8
 71
     3
 72
    23
 73
    19
 74
     0
 42
0.000000001
 43
0.00000001
 40
0.0
 40
0.0
 40
0.0
 40
0.0
 40
0.0603255293380442
 40
0.1181599905079972
 40
0.1741866762963795
 40
0.2295388181458007
 40
0.2834498146386363
 40
0.337826511950591
 40
0.3926321025334842
 40
0.4484655764151908
 40
0.5059654091573055
 40
0.5650585322290064
 40
0.6266544786228448
 40
0.6922320330373636
 40
0.7611310781257632
 40
0.8353098773394209
 40
0.9153255598322014
 40
0.9999999999999999
 40
0.9999999999999999
 40
0.9999999999999999
 40
0.9999999999999999
 10
-62.97319852388822
 20
65.58967326966115
 30
0.0
 10
-62.97750083451054
 20
65.71942039041221
 30
0.0
 10
-62.98592779715592
 20
65.97355688493809
 30
0.0
 10
-63.03010472241203
 20
66.34655870077282
 30
0.0
 10
-63.1159951536041
 20
66.70099664197791
 30
0.0
 10
-63.22941325722633
 20
67.03874430734936
 30
0.0
 10
-63.38096285895551
 20
67.3573279366978
 30
0.0
 10
-63.56099760319017
 20
67.65921620095412
 30
0.0
 10
-63.77583463191963
 20
67.94273591347873
 30
0.0
 10
-64.02191808674444
 20
68.20875071876563
 30
0.0
 10
-64.30446661317994
 20
68.4507981947339
 30
0.0
 10
-64.62720345601709
 20
68.65963266771098
 30
0.0
 10
-64.98758320873559
 20
68.8370969173618
 30
0.0
 10
-65.38602475415763
 20
68.97794440916941
 30
0.0
 10
-65.82127292861527
 20
69.09059947545788
 30
0.0
 10
-66.29580550407539
 20
69.16554525749461
 30
0.0
 10
-66.80745234173389
 20
69.2197757755788
 30
0.0
 10
-67.16199392900687
 20
69.22291124744011
 30
0.0
 10
-67.34427936260516
 20
69.22452333151791
 30
0.0
  0
SPLINE
  5
D4
330
1F
100
AcDbEntity
  8
0
  6
Continuous
 62
     7
370
    25
100
AcDbSpline
210
0.0
220
0.0
230
1.0
 70
     8
 71
     3
 72
    27
 73
    23
 74
     0
 42
0.000000001
 43
0.00000001
 40
0.0
 40
0.0
 40
0.0
 40
0.0
 40
0.0621127506505294
 40
0.1202119588785533
 40
0.1743851213884737
 40
0.2254437557784858
 40
0.2723582126361757
 40
0.3163881629634397
 40
0.356869479058228
 40
0.3939783235063667
 40
0.4295893718770923
 40
0.4646830409549866
 40
0.5000363461428399
 40
0.5354827477530639
 40
0.5713634671484435
 40
0.6079085322052594
 40
0.6456622985331159
 40
0.6845173397035776
 40
0.7625786223763459
 40
0.8404972886541803
 40
0.9190729926935235
 40
1.0
 40
1.0
 40
1.0
 40
1.0
 10
-67.46466930095966
 20
71.89162350429437
 30
0.0
 10
-67.22850745386083
 20
71.8897730784953
 30
0.0
 10
-66.7714438404354
 20
71.88619179594484
 30
0.0
 10
-66.10860722755794
 20
71.86084038271787
 30
0.0
 10
-65.48991569835368
 20
71.80618938621033
 30
0.0
 10
-64.91423168610449
 20
71.74709195022407
 30
0.0
 10
-64.38165747335438
 20
71.65638527910306
 30
0.0
 10
-63.89274250241572
 20
71.55234677644175
 30
0.0
 10
-63.44673191329594
 20
71.42853938534081
 30
0.0
 10
-63.04163176888535
 20
71.28231331213101
 30
0.0
 10
-62.6657871673796
 20
71.11688041639361
 30
0.0
 10
-62.31740761128079
 20
70.9127629323414
 30
0.0
 10
-61.98201141145381
 20
70.6890936924452
 30
0.0
 10
-61.67204629095642
 20
70.42631571507894
 30
0.0
 10
-61.37933688941208
 20
70.13859815240845
 30
0.0
 10
-61.10415449909306
 20
69.82203153317025
 30
0.0
 10
-60.85057297631325
 20
69.47386870338038
 30
0.0
 10
-60.53781053624036
 20
68.97557549119385
 30
0.0
 10
-60.20228020501643
 20
68.31195386543641
 30
0.0
 10
-59.92273073649439
 20
67.46266197629609
 30
0.0
 10
-59.7424822400559
 20
66.57427166069846
 30
0.0
 10
-59.72319513594587
 20
65.96715979475634
 30
0.0
 10
-59.71340942382812
 20
65.6591290033272
 30
0.0
  0
SPLINE
  5
D5
330
1F
100
AcDbEntity
  8
0
  6
Continuous
 62
     7
370
    25
100
AcDbSpline
210
0.0
220
0.0
230
1.0
 70
     8
 71
     3
 72
    23
 73
    19
 74
     0
 42
0.000000001
 43
0.00000001
 40
0.0
 40
0.0
 40
0.0
 40
0.0
 40
0.0614130692946603
 40
0.1212950233845481
 40
0.1792240423087198
 40
0.2359380947348322
 40
0.292216833267361
 40
0.3481966394342076
 40
0.4044447389633594
 40
0.4620255339229979
 40
0.5203342118681492
 40
0.580382901650839
 40
0.6418259048139884
 40
0.706363209796628
 40
0.77385139382756
 40
0.8452662573568833
 40
0.9201546757684064
 40
1.0
 40
1.0
 40
1.0
 40
1.0
 10
-59.71340942382812
 20
65.6591290033272
 30
0.0
 10
-59.71793260193067
 20
65.46140070629272
 30
0.0
 10
-59.72686618886951
 20
65.07087376002482
 30
0.0
 10
-59.79529836346178
 20
64.49669461676763
 30
0.0
 10
-59.91912085822426
 20
63.94808953430153
 30
0.0
 10
-60.0778988019426
 20
63.42025392766647
 30
0.0
 10
-60.29521736863445
 20
62.92066638371467
 30
0.0
 10
-60.54697149548711
 20
62.43912267461632
 30
0.0
 10
-60.85885906561273
 20
61.98885209080051
 30
0.0
 10
-61.20805168952883
 20
61.55786464855718
 30
0.0
 10
-61.60848198815443
 20
61.155390948244
 30
0.0
 10
-62.06367253827658
 20
60.79595125144006
 30
0.0
 10
-62.56911114042395
 20
60.47263452466011
 30
0.0
 10
-63.12717820751257
 20
60.19436120201826
 30
0.0
 10
-63.73144982654185
 20
59.94000617392966
 30
0.0
 10
-64.38950794641951
 20
59.73518724981108
 30
0.0
 10
-65.09869669944678
 20
59.56793689258431
 30
0.0
 10
-65.59033930877678
 20
59.48694781526059
 30
0.0
 10
-65.84403551541841
 20
59.44515603133764
 30
0.0
  0
SPLINE
  5
D6
330
1F
100
AcDbEntity
  8
0
  6
Continuous
 62
     7
370
    25
100
AcDbSpline
210
0.0
220
0.0
230
1.0
 70
     8
 71
     3
 72
    11
 73
     7
 74
     0
 42
0.000000001
 43
0.00000001
 40
0.0
 40
0.0
 40
0.0
 40
0.0
 40
0.2930762433192212
 40
0.5565623371181879
 40
0.7919136092098115
 40
1.0
 40
1.0
 40
1.0
 40
1.0
 10
-65.84403551541841
 20
59.44515603133764
 30
0.0
 10
-65.6579397365908
 20
59.35114454869261
 30
0.0
 10
-65.30453715295215
 20
59.17261335863682
 30
0.0
 10
-64.81524689675332
 20
58.89267800318979
 30
0.0
 10
-64.40049248385199
 20
58.60665305184945
 30
0.0
 10
-64.16020423563596
 20
58.4020795992513
 30
0.0
 10
-64.04744720458984
 20
58.30608199921436
 30
0.0
  0
SPLINE
  5
D7
330
1F
100
AcDbEntity
  8
0
  6
Continuous
 62
     7
370
    25
100
AcDbSpline
210
0.0
220
0.0
230
1.0
 70
     8
 71
     3
 72
    11
 73
     7
 74
     0
 42
0.000000001
 43
0.00000001
 40
0.0
 40
0.0
 40
0.0
 40
0.0
 40
0.2295275697008589
 40
0.4714659343032296
 40
0.7281863484998687
 40
1.0
 40
1.0
 40
1.0
 40
1.0
 10
-64.04744720458986
 20
58.30608199921437
 30
0.0
 10
-63.82908684353023
 20
58.09202503307888
 30
0.0
 10
-63.38055914911892
 20
57.65233681756423
 30
0.0
 10
-62.76246850387845
 20
56.90341898594448
 30
0.0
 10
-62.16320839573025
 20
56.06975851951607
 30
0.0
 10
-61.79911269630068
 20
55.46726927516766
 30
0.0
 10
-61.61186614403358
 20
55.15742207301996
 30
0.0
  0
SPLINE
  5
DB
330
1F
100
AcDbEntity
  8
0
  6
Continuous
 62
     7
370
    25
100
AcDbSpline
210
0.0
220
0.0
230
1.0
 70
     8
 71
     3
 72
    21
 73
    17
 74
     0
 42
0.000000001
 43
0.00000001
 40
0.0
 40
0.0
 40
0.0
 40
0.0
 40
0.0807814705861226
 40
0.1565412257955888
 40
0.2279349868434858
 40
0.2943103173046006
 40
0.3568678635548111
 40
0.4147585592592743
 40
0.467641396834016
 40
0.516748421530012
 40
0.6047297418940527
 40
0.6815706529393883
 40
0.748109541621982
 40
0.8049410995352804
 40
0.9054060495000014
 40
1.0
 40
1.0
 40
1.0
 40
1.0
 10
-64.43639931311975
 20
53.65717822583321
 30
0.0
 10
-64.53995316181582
 20
53.82841372898987
 30
0.0
 10
-64.74062351719706
 20
54.1602400174862
 30
0.0
 10
-65.03048465638604
 20
54.64485633781412
 30
0.0
 10
-65.3146839732807
 20
55.09102287623818
 30
0.0
 10
-65.57827397854902
 20
55.51149131523211
 30
0.0
 10
-65.83195159629001
 20
55.89862825765092
 30
0.0
 10
-66.07326570700107
 20
56.25377854180832
 30
0.0
 10
-66.29557523919745
 20
56.58160127547218
 30
0.0
 10
-66.57093433595416
 20
56.96327225002332
 30
0.0
 10
-66.89140659042664
 20
57.38559472509149
 30
0.0
 10
-67.26537572299077
 20
57.82050712525208
 30
0.0
 10
-67.62150521493889
 20
58.16725698856086
 30
0.0
 10
-68.06008525665666
 20
58.5072821147707
 30
0.0
 10
-68.60333299023247
 20
58.82531846549249
 30
0.0
 10
-69.06510381844912
 20
58.97144743155742
 30
0.0
 10
-69.28903990525467
 20
59.04231277607454
 30
0.0
  0
SPLINE
  5
DC
330
1F
100
AcDbEntity
  8
0
  6
Continuous
 62
     7
370
    25
100
AcDbSpline
210
0.0
220
0.0
230
1.0
 70
     8
 71
     3
 72
    11
 73
     7
 74
     0
 42
0.000000001
 43
0.00000001
 40
0.0
 40
0.0
 40
0.0
 40
0.0
 40
0.1774946570818473
 40
0.4052256231013712
 40
0.6783881083348561
 40
0.9999999999999999
 40
0.9999999999999999
 40
0.9999999999999999
 40
0.9999999999999999
 10
-69.28903990525465
 20
59.04231277607453
 30
0.0
 10
-69.38299518758777
 20
59.05925610665296
 30
0.0
 10
-69.59749791377146
 20
59.09793823829533
 30
0.0
 10
-69.96172300756913
 20
59.12320160014284
 30
0.0
 10
-70.4030263924526
 20
59.15001527883803
 30
0.0
 10
-70.72284647606887
 20
59.14923401817411
 30
0.0
 10
-70.89578254406268
 20
59.14881156769581
 30
0.0
  0
SPLINE
  5
E3
330
1F
100
AcDbEntity
  8
0
  6
Continuous
 62
     7
370
    25
100
AcDbSpline
210
0.0
220
0.0
230
1.0
 70
     8
 71
     3
 72
    15
 73
    11
 74
     0
 42
0.000000001
 43
0.00000001
 40
0.0
 40
0.0
 40
0.0
 40
0.0
 40
0.162525521704187
 40
0.3143148980392351
 40
0.4549784905465729
 40
0.5845192373661986
 40
0.7045671033090719
 40
0.813494989728929
 40
0.9116812596826063
 40
1.0
 40
1.0
 40
1.0
 40
1.0
 10
-44.90081662398119
 20
55.67139450214874
 30
0.0
 10
-44.84394799433457
 20
55.4876475751939
 30
0.0
 10
-44.73396737503501
 20
55.1322917147405
 30
0.0
 10
-44.57087916489272
 20
54.61912515379081
 30
0.0
 10
-44.42249623468955
 20
54.1422518620308
 30
0.0
 10
-44.28885404073396
 20
53.7001539266173
 30
0.0
 10
-44.16273417567228
 20
53.29502634358818
 30
0.0
 10
-44.05353424482759
 20
52.92354474231887
 30
0.0
 10
-43.94913555826799
 20
52.58983710921171
 30
0.0
 10
-43.88795326292434
 20
52.37775499696229
 30
0.0
 10
-43.85898061899039
 20
52.27732431700094
 30
0.0
  0
SPLINE
  5
E4
330
1F
100
AcDbEntity
  8
0
  6
Continuous
 62
     7
370
    25
100
AcDbSpline
210
0.0
220
0.0
230
1.0
 70
     8
 71
     3
 72
    15
 73
    11
 74
     0
 42
0.000000001
 43
0.00000001
 40
0.0
 40
0.0
 40
0.0
 40
0.0
 40
0.0892047702332462
 40
0.1898334556643491
 40
0.2992325919749822
 40
0.4192609378429061
 40
0.5492073901909386
 40
0.6890743636843488
 40
0.8395791979483181
 40
1.0
 40
1.0
 40
1.0
 40
1.0
 10
-43.85898061899039
 20
52.27732431700094
 30
0.0
 10
-43.82671182136644
 20
52.38695318618432
 30
0.0
 10
-43.75804175644645
 20
52.62025043052717
 30
0.0
 10
-43.64671660398267
 20
52.98707035560552
 30
0.0
 10
-43.52826347217586
 20
53.39299787931383
 30
0.0
 10
-43.38651138188097
 20
53.83105576950288
 30
0.0
 10
-43.23875160407251
 20
54.30811577946422
 30
0.0
 10
-43.08365848698625
 20
54.82378172626992
 30
0.0
 10
-42.90476159661708
 20
55.37290530386864
 30
0.0
 10
-42.78587567232533
 20
55.7530719967004
 30
0.0
 10
-42.72453696911152
 20
55.94921743681296
 30
0.0
  0
SPLINE
  5
106
330
1F
100
AcDbEntity
  8
0
  6
Continuous
 62
     7
370
    25
100
AcDbSpline
210
0.0
220
0.0
230
1.0
 70
     8
 71
     3
 72
    15
 73
    11
 74
     0
 42
0.000000001
 43
0.00000001
 40
0.0
 40
0.0
 40
0.0
 40
0.0
 40
0.1426572507006136
 40
0.2811689939054438
 40
0.4169771923679743
 40
0.550852492747558
 40
0.6783641702618122
 40
0.795032443007095
 40
0.901998178347352
 40
1.0
 40
1.0
 40
1.0
 40
1.0
 10
-36.30219679612382
 20
15.76375872397229
 30
0.0
 10
-35.58215063539151
 20
16.13458393831375
 30
0.0
 10
-34.1629822889928
 20
16.865458477947
 30
0.0
 10
-32.15800429514518
 20
18.12777928130049
 30
0.0
 10
-30.28614165981087
 20
19.49618699651876
 30
0.0
 10
-28.57838112036188
 20
20.97037865776996
 30
0.0
 10
-27.04748261749532
 20
22.47726717077931
 30
0.0
 10
-25.75737221778317
 20
23.99777687019552
 30
0.0
 10
-24.67788993016371
 20
25.476172438628
 30
0.0
 10
-24.13629321665613
 20
26.5071893945223
 30
0.0
 10
-23.87733777364097
 20
27.00015297039157
 30
0.0
  0
SPLINE
  5
109
330
1F
100
AcDbEntity
  8
0
  6
Continuous
 62
     7
370
    25
100
AcDbSpline
210
0.0
220
0.0
230
1.0
 70
     8
 71
     3
 72
    15
 73
    11
 74
     0
 42
0.000000001
 43
0.00000001
 40
0.0
 40
0.0
 40
0.0
 40
0.0
 40
0.1116703001015865
 40
0.232094480856018
 40
0.3627434591045532
 40
0.502557509710885
 40
0.641525103331281
 40
0.7710984952996683
 40
0.8901617573732528
 40
0.9999999999999999
 40
0.9999999999999999
 40
0.9999999999999999
 40
0.9999999999999999
 10
-25.93014056865987
 20
17.07827279446686
 30
0.0
 10
-26.26193163268345
 20
16.75830113415475
 30
0.0
 10
-26.95152299840168
 20
16.09327510376689
 30
0.0
 10
-28.11720435271953
 20
15.15209720748657
 30
0.0
 10
-29.41825371669416
 20
14.19817351453377
 30
0.0
 10
-30.83777613647023
 20
13.28086923987486
 30
0.0
 10
-32.28473910579916
 20
12.41732618851813
 30
0.0
 10
-33.68304252428457
 20
11.64070197586623
 30
0.0
 10
-35.00934112080687
 20
10.98348946089853
 30
0.0
 10
-35.88298116976949
 20
10.62412305768377
 30
0.0
 10
-36.30219679612382
 20
10.45168131580934
 30
0.0
  0
SPLINE
  5
10A
330
1F
100
AcDbEntity
  8
0
  6
Continuous
 62
     7
370
    25
100
AcDbSpline
210
0.0
220
0.0
230
1.0
 70
     8
 71
     3
 72
    23
 73
    19
 74
     0
 42
0.000000001
 43
0.00000001
 40
0.0
 40
0.0
 40
0.0
 40
0.0
 40
0.0407818458722598
 40
0.0808695887215868
 40
0.1202681657882672
 40
0.1601868504553523
 40
0.2004597376386391
 40
0.242265177897908
 40
0.2864592615494685
 40
0.3329520837492632
 40
0.3844305340495303
 40
0.4433891253601059
 40
0.5116814722136835
 40
0.5890200255490082
 40
0.6762451906507722
 40
0.7737051914728238
 40
0.8815677677819829
 40
1.0
 40
1.0
 40
1.0
 40
1.0
 10
25.93014056865985
 20
-13.33562124752377
 30
0.0
 10
26.22776454690506
 20
-13.32425875964858
 30
0.0
 10
26.81794697243242
 20
-13.30172717232911
 30
0.0
 10
27.68674988616825
 20
-13.15164783548192
 30
0.0
 10
28.51446526625657
 20
-12.87125192605526
 30
0.0
 10
29.30855704025628
 20
-12.50463308276655
 30
0.0
 10
30.06492530938754
 20
-12.02977365274993
 30
0.0
 10
30.77959228165448
 20
-11.44477347405686
 30
0.0
 10
31.46397047517792
 20
-10.75951646240336
 30
0.0
 10
32.12041471822071
 20
-9.95299593880603
 30
0.0
 10
32.71808461335513
 20
-8.970423505616795
 30
0.0
 10
33.21389494461302
 20
-7.759516256381046
 30
0.0
 10
33.63891274327195
 20
-6.326292803026819
 30
0.0
 10
33.98465110130844
 20
-4.660428908196121
 30
0.0
 10
34.24613908973684
 20
-2.764969498810257
 30
0.0
 10
34.44192310197606
 20
-0.6381078544845294
 30
0.0
 10
34.55711211762014
 20
1.722990286384881
 30
0.0
 10
34.56788350988793
 20
3.374780982091919
 30
0.0
 10
34.57352075821313
 20
4.239251804567915
 30
0.0
  0
SPLINE
  5
10B
330
1F
100
AcDbEntity
  8
0
  6
Continuous
 62
     7
370
    25
100
AcDbSpline
210
0.0
220
0.0
230
1.0
 70
     8
 71
     3
 72
    23
 73
    19
 74
     0
 42
0.000000001
 43
0.00000001
 40
0.0
 40
0.0
 40
0.0
 40
0.0
 40
0.1156291309254414
 40
0.2215410391198767
 40
0.3170478562190416
 40
0.4031508756396165
 40
0.4801812167162794
 40
0.5476493661481895
 40
0.6070358428421809
 40
0.6586524080635068
 40
0.7057228903536455
 40
0.7498040879796471
 40
0.7925868153452742
 40
0.8338739610102603
 40
0.8747683933034328
 40
0.9152226988916381
 40
0.9568807037304796
 40
0.9999999999999999
 40
0.9999999999999999
 40
0.9999999999999999
 40
0.9999999999999999
 10
34.57352075821313
 20
4.239251804567915
 30
0.0
 10
34.56806400496104
 20
5.085735786800875
 30
0.0
 10
34.55760907222905
 20
6.707567063411806
 30
0.0
 10
34.43944917420131
 20
9.02616186462917
 30
0.0
 10
34.25428199483298
 20
11.12314107500446
 30
0.0
 10
34.00100270941383
 20
13.00043791492466
 30
0.0
 10
33.6643945860565
 20
14.65601432130527
 30
0.0
 10
33.25613484962513
 20
16.09339479128779
 30
0.0
 10
32.7696323292822
 20
17.30951387750795
 30
0.0
 10
32.19118256867413
 20
18.31658752013357
 30
0.0
 10
31.54725224536643
 20
19.14266111491881
 30
0.0
 10
30.87460597876068
 20
19.8576996892795
 30
0.0
 10
30.15642754436879
 20
20.46581670142719
 30
0.0
 10
29.37999298141037
 20
20.95365713934561
 30
0.0
 10
28.57032823613685
 20
21.34722865941458
 30
0.0
 10
27.70882927064518
 20
21.61809460194109
 30
0.0
 10
26.803963938954
 20
21.78450616464969
 30
0.0
 10
26.18296660124905
 20
21.8041391558507
 30
0.0
 10
25.86711592144436
 20
21.8141248566596
 30
0.0
  0
SPLINE
  5
10C
330
1F
100
AcDbEntity
  8
0
  6
Continuous
 62
     7
370
    25
100
AcDbSpline
210
0.0
220
0.0
230
1.0
 70
     8
 71
     3
 72
    15
 73
    11
 74
     0
 42
0.000000001
 43
0.00000001
 40
0.0
 40
0.0
 40
0.0
 40
0.0
 40
0.1276647678962243
 40
0.2517385630080498
 40
0.37275334938739
 40
0.492146758972386
 40
0.6140696213092447
 40
0.7371973244121095
 40
0.8656069906011173
 40
1.0
 40
1.0
 40
1.0
 40
1.0
 10
25.86711592144436
 20
21.8141248566596
 30
0.0
 10
25.56943609318669
 20
21.80631193619469
 30
0.0
 10
24.98244961730179
 20
21.79090585820511
 30
0.0
 10
24.12302454330008
 20
21.6438549998194
 30
0.0
 10
23.30855749692399
 20
21.39795318886867
 30
0.0
 10
22.52971731859871
 20
21.06485530944949
 30
0.0
 10
21.80594733795294
 20
20.61657135666478
 30
0.0
 10
21.10854463747745
 20
20.09316793279373
 30
0.0
 10
20.47017286136198
 20
19.45545928028089
 30
0.0
 10
20.08549562992703
 20
18.97871825980673
 30
0.0
 10
19.88877795700333
 20
18.73492066413124
 30
0.0
  0
SPLINE
  5
10D
330
1F
100
AcDbEntity
  8
0
  6
Continuous
 62
     7
370
    25
100
AcDbSpline
210
0.0
220
0.0
230
1.0
 70
     8
 71
     3
 72
    15
 73
    11
 74
     0
 42
0.000000001
 43
0.00000001
 40
0.0
 40
0.0
 40
0.0
 40
0.0
 40
0.0838881132795454
 40
0.1771540327539698
 40
0.2825136355617228
 40
0.399399860660163
 40
0.5294908061912202
 40
0.672802177675833
 40
0.8295357616196699
 40
1.0
 40
1.0
 40
1.0
 40
1.0
 10
19.88877795700333
 20
18.73492066413124
 30
0.0
 10
19.67461242490106
 20
18.37685750760799
 30
0.0
 10
19.22233991327137
 20
17.62070351058903
 30
0.0
 10
18.71627327044184
 20
16.30647670925892
 30
0.0
 10
18.26923400386667
 20
14.80456563193565
 30
0.0
 10
17.90117247370987
 20
13.09186228584482
 30
0.0
 10
17.63490577739332
 20
11.17130464611968
 30
0.0
 10
17.42469851642897
 20
9.045123077386958
 30
0.0
 10
17.31550366866587
 20
6.710349175803936
 30
0.0
 10
17.29660582112465
 20
5.085677048949774
 30
0.0
 10
17.28676037910656
 20
4.239251804567915
 30
0.0
  0
SPLINE
  5
10E
330
1F
100
AcDbEntity
  8
0
  6
Continuous
 62
     7
370
    25
100
AcDbSpline
210
0.0
220
0.0
230
1.0
 70
     8
 71
     3
 72
    23
 73
    19
 74
     0
 42
0.000000001
 43
0.00000001
 40
0.0
 40
0.0
 40
0.0
 40
0.0
 40
0.1184055081537695
 40
0.2266543328167019
 40
0.3240923419286019
 40
0.4117048030053218
 40
0.4890259050064157
 40
0.5569093973430759
 40
0.616233344492707
 40
0.6673492812770749
 40
0.7135123932013476
 40
0.7576965045209781
 40
0.7994925114422912
 40
0.8399760647439394
 40
0.8798857418167763
 40
0.9191486593857418
 40
0.9592273564930831
 40
1.0
 40
1.0
 40
1.0
 40
1.0
 10
17.28676037910656
 20
4.239251804567916
 30
0.0
 10
17.29248183857677
 20
3.374784881970426
 30
0.0
 10
17.30343397753702
 20
1.720003979979054
 30
0.0
 10
17.41785724483092
 20
-0.6441360367480473
 30
0.0
 10
17.61483218975832
 20
-2.7769130386513
 30
0.0
 10
17.87524593271383
 20
-4.675374056616211
 30
0.0
 10
18.21909751054547
 20
-6.342087134588915
 30
0.0
 10
18.65084383500936
 20
-7.772804974544846
 30
0.0
 10
19.13752463210693
 20
-8.984699434056486
 30
0.0
 10
19.7397828962057
 20
-9.962750013986907
 30
0.0
 10
20.39918917550615
 20
-10.76000391313022
 30
0.0
 10
21.0799810939003
 20
-11.44566804944746
 30
0.0
 10
21.79817533190918
 20
-12.02846686535933
 30
0.0
 10
22.5490857589253
 20
-12.5144022238736
 30
0.0
 10
23.34436329059071
 20
-12.88232055112169
 30
0.0
 10
24.17531169929177
 20
-13.14898857398291
 30
0.0
 10
25.04211179230443
 20
-13.30245192672339
 30
0.0
 10
25.63244204329211
 20
-13.32450172284997
 30
0.0
 10
25.93014056865984
 20
-13.33562124752376
 30
0.0
  0
SPLINE
  5
10F
330
1F
100
AcDbEntity
  8
0
  6
Continuous
 62
     7
370
    25
100
AcDbSpline
210
0.0
220
0.0
230
1.0
 70
     8
 71
     3
 72
    31
 73
    27
 74
     0
 42
0.000000001
 43
0.00000001
 40
0.0
 40
0.0
 40
0.0
 40
0.0
 40
0.0631144583947934
 40
0.12361464576949
 40
0.1809737111859575
 40
0.235261455008322
 40
0.287100701833872
 40
0.3360307363034436
 40
0.3823823485850663
 40
0.4263340836597072
 40
0.4682106947981602
 40
0.5082496012618053
 40
0.546628336606585
 40
0.5836495392304464
 40
0.6189943150301618
 40
0.653583018620596
 40
0.6871561361903313
 40
0.7204221919788075
 40
0.7532302188118168
 40
0.7862601560778999
 40
0.819503983498884
 40
0.8535452747120185
 40
0.8883082803397299
 40
0.9239958607406952
 40
0.961350304754645
 40
1.0
 40
1.0
 40
1.0
 40
1.0
 10
11.52450691940437
 20
4.221244762506346
 30
0.0
 10
11.53031239102479
 20
4.863558313803396
 30
0.0
 10
11.54168286517818
 20
6.121580075154327
 30
0.0
 10
11.61221022254512
 20
7.962291908040266
 30
0.0
 10
11.73534527358904
 20
9.71033971827688
 30
0.0
 10
11.91915200645994
 20
11.36420540801926
 30
0.0
 10
12.13681361457627
 20
12.92762207713351
 30
0.0
 10
12.41977507829707
 20
14.39835856879834
 30
0.0
 10
12.73814786081759
 20
15.7797147172722
 30
0.0
 10
13.12013806695236
 20
17.07025068254383
 30
0.0
 10
13.53982025263583
 20
18.28106272467437
 30
0.0
 10
14.01596308146921
 20
19.41020842778924
 30
0.0
 10
14.55168835446529
 20
20.45649063167463
 30
0.0
 10
15.1206685043127
 20
21.43075986961079
 30
0.0
 10
15.75285581254108
 20
22.31786224528002
 30
0.0
 10
16.41009272086548
 20
23.14269348291175
 30
0.0
 10
17.14014328359192
 20
23.87500380259953
 30
0.0
 10
17.91265043225887
 20
24.53363561523249
 30
0.0
 10
18.73898953491589
 20
25.11483980682274
 30
0.0
 10
19.61478843731514
 20
25.6163489209911
 30
0.0
 10
20.53667730352734
 20
26.05914530802834
 30
0.0
 10
21.52222631585464
 20
26.39248231251172
 30
0.0
 10
22.5509756662143
 20
26.66422263543959
 30
0.0
 10
23.63084413361652
 20
26.86411811183816
 30
0.0
 10
24.76302171645531
 20
26.98196324127743
 30
0.0
 10
25.53670594741322
 20
26.99402123053398
 30
0.0
 10
25.93014056865984
 20
27.00015297039156
 30
0.0
  0
SPLINE
  5
110
330
1F
100
AcDbEntity
  8
0
  6
Continuous
 62
     7
370
    25
100
AcDbSpline
210
0.0
220
0.0
230
1.0
 70
     8
 71
     3
 72
    27
 73
    23
 74
     0
 42
0.000000001
 43
0.00000001
 40
0.0
 40
0.0
 40
0.0
 40
0.0
 40
0.0567243372181506
 40
0.1114372357370108
 40
0.1643678222229013
 40
0.21643537246209
 40
0.2676414903219249
 40
0.3173597799690279
 40
0.3674730633322806
 40
0.4182103970528081
 40
0.47140428264702
 40
0.5279657201290493
 40
0.5880611158232137
 40
0.6521342629937144
 40
0.6863448363353055
 40
0.7232636803169652
 40
0.7626102507715418
 40
0.8047389366452181
 40
0.8494303387909499
 40
0.8967112583864922
 40
0.9468896380534765
 40
1.0
 40
1.0
 40
1.0
 40
1.0
 10
25.93014056865984
 20
27.00015297039156
 30
0.0
 10
26.50736033042674
 20
26.98318311791164
 30
0.0
 10
27.64133170530068
 20
26.94984516203646
 30
0.0
 10
29.29693576856813
 20
26.67794684335522
 30
0.0
 10
30.85723589205715
 20
26.21282286350337
 30
0.0
 10
32.32121836014215
 20
25.58535054935681
 30
0.0
 10
33.66385661933246
 20
24.78833994296636
 30
0.0
 10
34.86288917505958
 20
23.81945212252887
 30
0.0
 10
35.90538252443815
 20
22.68886021882167
 30
0.0
 10
36.77995946570784
 20
21.38316708850407
 30
0.0
 10
37.54442700954446
 20
19.93839246760546
 30
0.0
 10
38.22356319400148
 20
18.34805167464259
 30
0.0
 10
38.83748257907057
 20
16.6139268660653
 30
0.0
 10
39.27313313933841
 20
15.0616430762925
 30
0.0
 10
39.58388232626918
 20
13.72165662920848
 30
0.0
 10
39.78957359803075
 20
12.6164737133859
 30
0.0
 10
39.96033859047017
 20
11.42397512531621
 30
0.0
 10
40.09116765268772
 20
10.14704584009596
 30
0.0
 10
40.19850981138151
 20
8.787118047543336
 30
0.0
 10
40.28140524108986
 20
7.343345030598531
 30
0.0
 10
40.32348315927459
 20
5.812118324244083
 30
0.0
 10
40.33160039237378
 20
4.761477211106126
 30
0.0
 10
40.33577421791532
 20
4.221244762506346
 30
0.0
  0
SPLINE
  5
111
330
1F
100
AcDbEntity
  8
0
  6
Continuous
 62
     7
370
    25
100
AcDbSpline
210
0.0
220
0.0
230
1.0
 70
     8
 71
     3
 72
    31
 73
    27
 74
     0
 42
0.000000001
 43
0.00000001
 40
0.0
 40
0.0
 40
0.0
 40
0.0
 40
0.0628739462114325
 40
0.1228366299919131
 40
0.1796565674430315
 40
0.2339600122308623
 40
0.285595018695559
 40
0.3345131060783809
 40
0.3809048259061765
 40
0.4248945919393349
 40
0.4665290347654877
 40
0.5064882940692468
 40
0.5450315536447545
 40
0.5818311798231347
 40
0.6174482799494433
 40
0.6520669127690464
 40
0.6858797142465107
 40
0.7191745547913924
 40
0.752181646206393
 40
0.7852401639180913
 40
0.8186564497770836
 40
0.8525477406533115
 40
0.8876263422585193
 40
0.9236350780687512
 40
0.9610218444769895
 40
1.0
 40
1.0
 40
1.0
 40
1.0
 10
40.33577421791532
 20
4.221244762506346
 30
0.0
 10
40.32986000025283
 20
3.581948251879226
 30
0.0
 10
40.31830541189826
 20
2.332956679647587
 30
0.0
 10
40.24966786835309
 20
0.5070042541753162
 30
0.0
 10
40.11911306729581
 20
-1.227855386382215
 30
0.0
 10
39.95846299935642
 20
-2.875596300704895
 30
0.0
 10
39.71543309649638
 20
-4.431819796059921
 30
0.0
 10
39.45355520858523
 20
-5.903137854359206
 30
0.0
 10
39.12967694834444
 20
-7.282869395840454
 30
0.0
 10
38.75178705727128
 20
-8.5716191212792
 30
0.0
 10
38.32619723046003
 20
-9.776201475116439
 30
0.0
 10
37.85947212893834
 20
-10.9057200211567
 30
0.0
 10
37.34252926448585
 20
-11.9594029451444
 30
0.0
 10
36.75998246504929
 20
-12.92697315233271
 30
0.0
 10
36.1384858856959
 20
-13.82127351729043
 30
0.0
 10
35.47348772475851
 20
-14.64565876172544
 30
0.0
 10
34.75088924270168
 20
-15.38826359910411
 30
0.0
 10
33.97142060142684
 20
-16.04491987073728
 30
0.0
 10
33.15088343814974
 20
-16.63643088598742
 30
0.0
 10
32.27295530828284
 20
-17.14289140923263
 30
0.0
 10
31.34147876641481
 20
-17.56248515593899
 30
0.0
 10
30.3626773659997
 20
-17.92121696333868
 30
0.0
 10
29.32661975475043
 20
-18.18407459107687
 30
0.0
 10
28.24147618657169
 20
-18.38528799767111
 30
0.0
 10
27.10324841892252
 20
-18.50377702278194
 30
0.0
 10
26.32657164403961
 20
-18.51560972017829
 30
0.0
 10
25.93014056865984
 20
-18.52164936125574
 30
0.0
  0
SPLINE
  5
112
330
1F
100
AcDbEntity
  8
0
  6
Continuous
 62
     7
370
    25
100
AcDbSpline
210
0.0
220
0.0
230
1.0
 70
     8
 71
     3
 72
    15
 73
    11
 74
     0
 42
0.000000001
 43
0.00000001
 40
0.0
 40
0.0
 40
0.0
 40
0.0
 40
0.1379032299933935
 40
0.2688733426002936
 40
0.3951781273461134
 40
0.5170892381308876
 40
0.6367430265135477
 40
0.7562218164637973
 40
0.8766283594636798
 40
1.0
 40
1.0
 40
1.0
 40
1.0
 10
25.93014056865984
 20
-18.52164936125574
 30
0.0
 10
25.41037346377244
 20
-18.50682297710508
 30
0.0
 10
24.39697066768528
 20
-18.47791560876095
 30
0.0
 10
22.91697060800109
 20
-18.28150784645988
 30
0.0
 10
21.52791160967978
 20
-17.93582096311707
 30
0.0
 10
20.21807775554055
 20
-17.47220610851664
 30
0.0
 10
19.00219193624377
 20
-16.85209454300042
 30
0.0
 10
17.87444878047706
 20
-16.09760773453382
 30
0.0
 10
16.81218710252752
 20
-15.22629961559988
 30
0.0
 10
16.20068470127575
 20
-14.53885751035449
 30
0.0
 10
15.89121461933494
 20
-14.19095574544831
 30
0.0
  0
SPLINE
  5
113
330
1F
100
AcDbEntity
  8
0
  6
Continuous
 62
     7
370
    25
100
AcDbSpline
210
0.0
220
0.0
230
1.0
 70
     8
 71
     3
 72
    15
 73
    11
 74
     0
 42
0.000000001
 43
0.00000001
 40
0.0
 40
0.0
 40
0.0
 40
0.0
 40
0.0974206681772147
 40
0.2008855880393205
 40
0.3111719701726504
 40
0.4297979458253726
 40
0.5577399263645874
 40
0.6947152693641584
 40
0.8421299102060551
 40
1.0
 40
1.0
 40
1.0
 40
1.0
 10
15.89121461933494
 20
-14.19095574544831
 30
0.0
 10
15.53500743673963
 20
-13.67712165877384
 30
0.0
 10
14.80049297817196
 20
-12.61757377650638
 30
0.0
 10
13.94080749046426
 20
-10.81094635157083
 30
0.0
 10
13.17395281490015
 20
-8.822103212515524
 30
0.0
 10
12.57211249338904
 20
-6.612023492724134
 30
0.0
 10
12.10072149531653
 20
-4.198296928383307
 30
0.0
 10
11.76025950289797
 20
-1.576187273819391
 30
0.0
 10
11.56759153333255
 20
1.253172633095108
 30
0.0
 10
11.53919266069336
 20
3.209553222406977
 30
0.0
 10
11.52450691940437
 20
4.221244762506346
 30
0.0
  0
SPLINE
  5
114
330
1F
100
AcDbEntity
  8
0
  6
Continuous
 62
     7
370
    25
100
AcDbSpline
210
0.0
220
0.0
230
1.0
 70
     8
 71
     3
 72
    11
 73
     7
 74
     0
 42
0.000000001
 43
0.00000001
 40
0.0
 40
0.0
 40
0.0
 40
0.0
 40
0.3293954641291819
 40
0.6051903468528005
 40
0.827886578694737
 40
1.0
 40
1.0
 40
1.0
 40
1.0
 10
66.367268709036
 20
51.44385551300831
 30
0.0
 10
66.58490165470633
 20
51.44635580748258
 30
0.0
 10
66.98475342019746
 20
51.45094953825578
 30
0.0
 10
67.53167251595468
 20
51.46536029526121
 30
0.0
 10
67.97375223527507
 20
51.50056038397928
 30
0.0
 10
68.23190342962006
 20
51.53846189322618
 30
0.0
 10
68.34444192739632
 20
51.55498468687399
 30
0.0
  0
SPLINE
  5
115
330
1F
100
AcDbEntity
  8
0
  6
Continuous
 62
     7
370
    25
100
AcDbSpline
210
0.0
220
0.0
230
1.0
 70
     8
 71
     3
 72
    19
 73
    15
 74
     0
 42
0.000000001
 43
0.00000001
 40
0.0
 40
0.0
 40
0.0
 40
0.0
 40
0.080139902465251
 40
0.1562809906190945
 40
0.2294060490129028
 40
0.3017986969723058
 40
0.3727428627695782
 40
0.4426676099026289
 40
0.5133209646126979
 40
0.5865476923632088
 40
0.6683225082295057
 40
0.7636766255259047
 40
0.8740807567185487
 40
1.0
 40
1.0
 40
1.0
 40
1.0
 10
71.56718796950119
 20
55.44450577217297
 30
0.0
 10
71.56080977929383
 20
55.65497661961481
 30
0.0
 10
71.5483716572934
 20
56.06541625733351
 30
0.0
 10
71.4301430422462
 20
56.65852232936064
 30
0.0
 10
71.23484871846512
 20
57.20863558544482
 30
0.0
 10
70.95993121620319
 20
57.70813750976953
 30
0.0
 10
70.62273054905388
 20
58.15739648524325
 30
0.0
 10
70.21475179102534
 20
58.5384906447959
 30
0.0
 10
69.73904555347659
 20
58.84090770728815
 30
0.0
 10
69.19414979658593
 20
59.07824657271737
 30
0.0
 10
68.55727580557249
 20
59.24710908779147
 30
0.0
 10
67.81084075456658
 20
59.36167207597313
 30
0.0
 10
66.94290518131123
 20
59.43559682619518
 30
0.0
 10
66.32267991042563
 20
59.44183315374423
 30
0.0
 10
65.99220774723932
 20
59.44515603133762
 30
0.0
  0
SPLINE
  5
119
330
1F
100
AcDbEntity
  8
0
  6
Continuous
 62
     7
370
    25
100
AcDbSpline
210
0.0
220
0.0
230
1.0
 70
     8
 71
     3
 72
    23
 73
    19
 74
     0
 42
0.000000001
 43
0.00000001
 40
0.0
 40
0.0
 40
0.0
 40
0.0
 40
0.0760105192062328
 40
0.148135736243448
 40
0.2177881778331525
 40
0.2867678984972332
 40
0.3540434632439185
 40
0.4186108400234795
 40
0.4836364388553451
 40
0.5502295626461515
 40
0.5869278113138158
 40
0.629157825026966
 40
0.6772382242876704
 40
0.7300426397437308
 40
0.788862566116925
 40
0.8537504514610946
 40
0.9241097665384564
 40
1.0
 40
1.0
 40
1.0
 40
1.0
 10
70.67815457857571
 20
65.61282518088315
 30
0.0
 10
70.67217054149731
 20
65.80306968021348
 30
0.0
 10
70.66050834332299
 20
66.17383427002113
 30
0.0
 10
70.56261461681596
 20
66.71224873754555
 30
0.0
 10
70.39321313950458
 20
67.21314453150457
 30
0.0
 10
70.16379715001564
 20
67.67641177323414
 30
0.0
 10
69.87329555073839
 20
68.08855452218225
 30
0.0
 10
69.52657175847403
 20
68.44290081336071
 30
0.0
 10
69.1112211287661
 20
68.7107710083857
 30
0.0
 10
68.72299270284076
 20
68.87786898801224
 30
0.0
 10
68.37381200216655
 20
68.98240454000488
 30
0.0
 10
68.06183130959732
 20
69.04425392312541
 30
0.0
 10
67.70795215205236
 20
69.09874938059257
 30
0.0
 10
67.31101001000748
 20
69.14507960649699
 30
0.0
 10
66.87085473152348
 20
69.18103613043502
 30
0.0
 10
66.38613012144388
 20
69.20960120586851
 30
0.0
 10
65.8579900346751
 20
69.22172924341083
 30
0.0
 10
65.49212929146265
 20
69.22356877940283
 30
0.0
 10
65.3022807928232
 20
69.22452333151791
 30
0.0
  0
SPLINE
  5
11C
330
1F
100
AcDbEntity
  8
0
  6
Continuous
 62
     7
370
    25
100
AcDbSpline
210
0.0
220
0.0
230
1.0
 70
     8
 71
     3
 72
    23
 73
    19
 74
     0
 42
0.000000001
 43
0.00000001
 40
0.0
 40
0.0
 40
0.0
 40
0.0
 40
0.0587320371008653
 40
0.1146029008469817
 40
0.1676568100446117
 40
0.2179667070908431
 40
0.2657752056293757
 40
0.3111706510536956
 40
0.3537918046646699
 40
0.3947449080003068
 40
0.4728059510824635
 40
0.5491923665616069
 40
0.6247801075795555
 40
0.7026247640242261
 40
0.7797414321940387
 40
0.8540634639886258
 40
0.9271552664103505
 40
1.0
 40
1.0
 40
1.0
 40
1.0
 10
66.29318259312555
 20
71.89162350429436
 30
0.0
 10
66.5077920534055
 20
71.89080021064355
 30
0.0
 10
66.92655612002639
 20
71.88919373068326
 30
0.0
 10
67.5380382500947
 20
71.8490173302709
 30
0.0
 10
68.11715748839883
 20
71.79406434649682
 30
0.0
 10
68.6651605442473
 20
71.72322826518368
 30
0.0
 10
69.17967621428602
 20
71.62044654963432
 30
0.0
 10
69.66022502842333
 20
71.49593337190622
 30
0.0
 10
70.1093077520412
 20
71.35231144411138
 30
0.0
 10
70.65824294777684
 20
71.13352872811707
 30
0.0
 10
71.2908305784825
 20
70.79677562330474
 30
0.0
 10
71.96839202648535
 20
70.29428685249053
 30
0.0
 10
72.55789681121959
 20
69.69097808677483
 30
0.0
 10
73.04297255614799
 20
68.99925042424357
 30
0.0
 10
73.44262265385525
 20
68.26035482322261
 30
0.0
 10
73.72596989447167
 20
67.48836794649037
 30
0.0
 10
73.90712913219504
 20
66.70009782951523
 30
0.0
 10
73.9276837627378
 20
66.16633731311221
 30
0.0
 10
73.9379436786358
 20
65.89990888003618
 30
0.0
  0
SPLINE
  5
11D
330
1F
100
AcDbEntity
  8
0
  6
Continuous
 62
     7
370
    25
100
AcDbSpline
210
0.0
220
0.0
230
1.0
 70
     8
 71
     3
 72
    15
 73
    11
 74
     0
 42
0.000000001
 43
0.00000001
 40
0.0
 40
0.0
 40
0.0
 40
0.0
 40
0.115842690601019
 40
0.2305685484828845
 40
0.347354604520545
 40
0.4682527467344634
 40
0.592302571480085
 40
0.7199701656206976
 40
0.8556003811349111
 40
1.0
 40
1.0
 40
1.0
 40
1.0
 10
73.9379436786358
 20
65.89990888003618
 30
0.0
 10
73.92715834077835
 20
65.65203335894576
 30
0.0
 10
73.90569164588555
 20
65.15867207041096
 30
0.0
 10
73.7348407718503
 20
64.4319208850119
 30
0.0
 10
73.46518582248008
 20
63.72625000909969
 30
0.0
 10
73.08388608998992
 20
63.05023827572996
 30
0.0
 10
72.59653723731631
 20
62.41625316581312
 30
0.0
 10
71.99236382889681
 20
61.84574512978755
 30
0.0
 10
71.28004778165096
 20
61.33749150374798
 30
0.0
 10
70.74545461187363
 20
61.06657737965507
 30
0.0
 10
70.46978737757756
 20
60.92687834954676
 30
0.0
  0
SPLINE
  5
11E
330
1F
100
AcDbEntity
  8
0
  6
Continuous
 62
     7
370
    25
100
AcDbSpline
210
0.0
220
0.0
230
1.0
 70
     8
 71
     3
 72
    23
 73
    19
 74
     0
 42
0.000000001
 43
0.00000001
 40
0.0
 40
0.0
 40
0.0
 40
0.0
 40
0.0642545754247026
 40
0.1273603868320972
 40
0.1894718420926418
 40
0.2517207629332007
 40
0.3120272840890012
 40
0.3686746571150507
 40
0.4226814918055484
 40
0.4740604252251506
 40
0.5257737722739166
 40
0.5796221048577137
 40
0.6373752855308656
 40
0.6984003818208007
 40
0.7643573310122573
 40
0.8363147679791492
 40
0.914677794254047
 40
0.9999999999999999
 40
0.9999999999999999
 40
0.9999999999999999
 40
0.9999999999999999
 10
74.8269770695613
 20
55.39820194972893
 30
0.0
 10
74.81899218225959
 20
55.13534262989725
 30
0.0
 10
74.80316516404604
 20
54.61432347390863
 30
0.0
 10
74.67605656355906
 20
53.84747089537242
 30
0.0
 10
74.46124976819232
 20
53.10982334588122
 30
0.0
 10
74.16558648278573
 20
52.4133076948727
 30
0.0
 10
73.81329177681815
 20
51.76927643032496
 30
0.0
 10
73.41289650043967
 20
51.19459239044365
 30
0.0
 10
72.97461156169777
 20
50.69516903437949
 30
0.0
 10
72.48609530722649
 20
50.2750647241673
 30
0.0
 10
71.95049887645304
 20
49.91851910367032
 30
0.0
 10
71.35269475996046
 20
49.61828437395629
 30
0.0
 10
70.69730507106031
 20
49.35350611467679
 30
0.0
 10
69.97100937986146
 20
49.1419914669543
 30
0.0
 10
69.17413829448348
 20
48.97396450650565
 30
0.0
 10
68.29587754388915
 20
48.86479711670155
 30
0.0
 10
67.33487781269841
 20
48.78664790023347
 30
0.0
 10
66.6653375803025
 20
48.78014501825665
 30
0.0
 10
66.31633450434757
 20
48.77675534023186
 30
0.0
  0
SPLINE
  5
120
330
1F
100
AcDbEntity
  8
0
  6
Continuous
 62
     7
370
    25
100
AcDbSpline
210
0.0
220
0.0
230
1.0
 70
     8
 71
     3
 72
    19
 73
    15
 74
     0
 42
0.000000001
 43
0.00000001
 40
0.0
 40
0.0
 40
0.0
 40
0.0
 40
0.0889709576989551
 40
0.1722707767733151
 40
0.2503120304637113
 40
0.3246551996215506
 40
0.3978444501802955
 40
0.4733008807185325
 40
0.551825888744448
 40
0.6347494834982537
 40
0.7217660118923849
 40
0.8103926655611187
 40
0.9031752367994186
 40
1.0
 40
1.0
 40
1.0
 40
1.0
 10
68.34444192739632
 20
51.55498468687399
 30
0.0
 10
68.50578872381324
 20
51.58889814857743
 30
0.0
 10
68.81819783648886
 20
51.65456337846616
 30
0.0
 10
69.25861972722407
 20
51.80112132098267
 30
0.0
 10
69.66243092179056
 20
51.96901125522482
 30
0.0
 10
70.0225835059305
 20
52.18238070994219
 30
0.0
 10
70.35607615792692
 20
52.42827439021254
 30
0.0
 10
70.64590609296157
 20
52.73540736427896
 30
0.0
 10
70.91285322074938
 20
53.08436242633705
 30
0.0
 10
71.14413940477853
 20
53.48370180054003
 30
0.0
 10
71.33116786824282
 20
53.92547754568123
 30
0.0
 10
71.474110522976
 20
54.40286391523926
 30
0.0
 10
71.55025219252379
 20
54.91418709180234
 30
0.0
 10
71.56146304338793
 20
55.26523822125638
 30
0.0
 10
71.5671879695012
 20
55.44450577217297
 30
0.0
  0
SPLINE
  5
121
330
1F
100
AcDbEntity
  8
0
  6
Continuous
 62
     7
370
    25
100
AcDbSpline
210
0.0
220
0.0
230
1.0
 70
     8
 71
     3
 72
    23
 73
    19
 74
     0
 42
0.000000001
 43
0.00000001
 40
0.0
 40
0.0
 40
0.0
 40
0.0
 40
0.0704642259291734
 40
0.1379569656042673
 40
0.2035785636142826
 40
0.2676916802449419
 40
0.3301858648593743
 40
0.3915337640898183
 40
0.4526637734870339
 40
0.5131537880892132
 40
0.5734535531000283
 40
0.632967559389192
 40
0.6923319074206206
 40
0.7514741915716298
 40
0.8121874455294297
 40
0.872961717848316
 40
0.9354203067594908
 40
1.0
 40
1.0
 40
1.0
 40
1.0
 10
70.46978737757756
 20
60.92687834954676
 30
0.0
 10
70.64031695543503
 20
60.87349527859207
 30
0.0
 10
70.97418485502196
 20
60.76898030824456
 30
0.0
 10
71.45415464441248
 20
60.57773257173302
 30
0.0
 10
71.90469969109648
 20
60.35996965330481
 30
0.0
 10
72.326800707263
 20
60.11533370690212
 30
0.0
 10
72.71760560973271
 20
59.84155928315934
 30
0.0
 10
73.07601169251664
 20
59.53821958273842
 30
0.0
 10
73.40450398853504
 20
59.21000870845916
 30
0.0
 10
73.70249561409483
 20
58.85712630703498
 30
0.0
 10
73.96424999371102
 20
58.48184325202745
 30
0.0
 10
74.19901097257923
 20
58.09236174889543
 30
0.0
 10
74.39286637680573
 20
57.68399158205202
 30
0.0
 10
74.55176259226613
 20
57.2577929826355
 30
0.0
 10
74.67572526288082
 20
56.81639948611426
 30
0.0
 10
74.76474395398321
 20
56.35811341417757
 30
0.0
 10
74.81548233518134
 20
55.88400151742302
 30
0.0
 10
74.82310307799752
 20
55.56192764922994
 30
0.0
 10
74.8269770695613
 20
55.39820194972893
 30
0.0
  0
SPLINE
  5
122
330
1F
100
AcDbEntity
  8
0
  6
Continuous
 62
     7
370
    25
100
AcDbSpline
210
0.0
220
0.0
230
1.0
 70
     8
 71
     3
 72
    15
 73
    11
 74
     0
 42
0.000000001
 43
0.00000001
 40
0.0
 40
0.0
 40
0.0
 40
0.0
 40
0.1323768784386576
 40
0.2551949197670689
 40
0.3737221416536686
 40
0.4900113154474189
 40
0.6078124214239361
 40
0.7311098159015439
 40
0.8599973777575828
 40
1.0
 40
1.0
 40
1.0
 40
1.0
 10
68.4416799545288
 20
62.38544875653388
 30
0.0
 10
68.61869019310524
 20
62.44745545697365
 30
0.0
 10
68.95992889101274
 20
62.56699139958223
 30
0.0
 10
69.41722066540441
 20
62.83846954269193
 30
0.0
 10
69.8067003384465
 20
63.16424198948197
 30
0.0
 10
70.12732419002667
 20
63.5500610797665
 30
0.0
 10
70.37370773278705
 20
63.99386207052495
 30
0.0
 10
70.55639401774141
 20
64.48644160704936
 30
0.0
 10
70.65641881225268
 20
65.03468549527553
 30
0.0
 10
70.67071237310162
 20
65.41487336869109
 30
0.0
 10
70.67815457857571
 20
65.61282518088315
 30
0.0
  0
SPLINE
  5
123
330
1F
100
AcDbEntity
  8
0
  6
Continuous
 62
     7
370
    25
100
AcDbSpline
210
0.0
220
0.0
230
1.0
 70
     8
 71
     3
 72
    15
 73
    11
 74
     0
 42
0.000000001
 43
0.00000001
 40
0.0
 40
0.0
 40
0.0
 40
0.0
 40
0.1669801744060319
 40
0.3208066328848158
 40
0.4631345048703172
 40
0.5942480539785203
 40
0.7123671525397438
 40
0.8194549510427501
 40
0.9157522665813543
 40
1.0
 40
1.0
 40
1.0
 40
1.0
 10
65.66345060788667
 20
62.11225620411407
 30
0.0
 10
65.81936225552293
 20
62.1128730495
 30
0.0
 10
66.11890374829972
 20
62.11405814882074
 30
0.0
 10
66.55098521512598
 20
62.13058196978247
 30
0.0
 10
66.94977569793535
 20
62.14467915492172
 30
0.0
 10
67.3137326218411
 20
62.18006200032498
 30
0.0
 10
67.64465905885518
 20
62.21471792561424
 30
0.0
 10
67.94123068153161
 20
62.2613702032633
 30
0.0
 10
68.20490011397428
 20
62.31393673889744
 30
0.0
 10
68.36634495216597
 20
62.36269615223701
 30
0.0
 10
68.4416799545288
 20
62.38544875653388
 30
0.0
  0
SPLINE
  5
127
330
1F
100
AcDbEntity
  8
0
  6
Continuous
 62
     7
370
    25
100
AcDbSpline
210
0.0
220
0.0
230
1.0
 70
     8
 71
     3
 72
    31
 73
    27
 74
     0
 42
0.000000001
 43
0.00000001
 40
0.0
 40
0.0
 40
0.0
 40
0.0
 40
0.0430989705688966
 40
0.0855867603450729
 40
0.1269076657436394
 40
0.1679674856215207
 40
0.2084495586010661
 40
0.2490254246415443
 40
0.2892805341716794
 40
0.3300098489827311
 40
0.370597724099577
 40
0.4104659863326998
 40
0.4500332158929481
 40
0.4896882096042477
 40
0.5291164230741918
 40
0.5690368070925096
 40
0.6097030542359445
 40
0.6507589174942185
 40
0.6925092624061777
 40
0.7342191213706861
 40
0.7767069111468622
 40
0.8195518402403209
 40
0.8633507288313332
 40
0.9078385251300617
 40
0.9533337036124182
 40
1.0
 40
1.0
 40
1.0
 40
1.0
 10
88.76905800746034
 20
72.18796796793619
 30
0.0
 10
89.0300324138246
 20
72.18341086349629
 30
0.0
 10
89.54828038306528
 20
72.1743612783109
 30
0.0
 10
90.31446375166976
 20
72.10550602059281
 30
0.0
 10
91.06095890234828
 20
71.9826113140551
 30
0.0
 10
91.78703072450216
 20
71.81791862597964
 30
0.0
 10
92.49465559005257
 20
71.60184898133063
 30
0.0
 10
93.18425607928783
 20
71.34678534058582
 30
0.0
 10
93.8497955104705
 20
71.03072557468387
 30
0.0
 10
94.49570154001675
 20
70.67686521549825
 30
0.0
 10
95.11434972564213
 20
70.28105710305528
 30
0.0
 10
95.69575374143807
 20
69.84380868443299
 30
0.0
 10
96.23852094105472
 20
69.3684268500678
 30
0.0
 10
96.7499421601987
 20
68.86272558161286
 30
0.0
 10
97.21295199268775
 20
68.30963816705706
 30
0.0
 10
97.64667855196637
 20
67.72601259662461
 30
0.0
 10
98.03865845066014
 20
67.10150024321004
 30
0.0
 10
98.39028251968125
 20
66.4412179282235
 30
0.0
 10
98.70467016924518
 20
65.75536359123406
 30
0.0
 10
98.97337512579116
 20
65.04109464540974
 30
0.0
 10
99.20410716894091
 20
64.30697924654645
 30
0.0
 10
99.39724935506469
 20
63.54867221572147
 30
0.0
 10
99.53583408471741
 20
62.76643279433045
 30
0.0
 10
99.64619060329152
 20
61.96363157475316
 30
0.0
 10
99.70427428795438
 20
61.13764473257499
 30
0.0
 10
99.71465546759036
 20
60.57967590152903
 30
0.0
 10
99.71991201547473
 20
60.29714636430788
 30
0.0
  0
SPLINE
  5
128
330
1F
100
AcDbEntity
  8
0
  6
Continuous
 62
     7
370
    25
100
AcDbSpline
210
0.0
220
0.0
230
1.0
 70
     8
 71
     3
 72
    31
 73
    27
 74
     0
 42
0.000000001
 43
0.00000001
 40
0.0
 40
0.0
 40
0.0
 40
0.0
 40
0.0475595569054261
 40
0.0939621052432105
 40
0.1391115332408219
 40
0.1836263101269044
 40
0.2274570284004932
 40
0.2707025105518545
 40
0.3136105321155535
 40
0.3562604510849765
 40
0.3983661529550374
 40
0.4395565149792803
 40
0.4800453830214204
 40
0.5198884957050128
 40
0.5596577503171974
 40
0.5994212546627414
 40
0.6392077550883984
 40
0.6796683749857809
 40
0.7200198525128485
 40
0.7598588655624577
 40
0.799559884832381
 40
0.8391991446364384
 40
0.8789560762302789
 40
0.9187942693024662
 40
0.9590833628432754
 40
1.0
 40
1.0
 40
1.0
 40
1.0
 10
99.71991201547473
 20
60.29714636430788
 30
0.0
 10
99.71509587301921
 20
60.00995790870699
 30
0.0
 10
99.70558075316283
 20
59.4425675954737
 30
0.0
 10
99.64119755873773
 20
58.60435850426556
 30
0.0
 10
99.52798952441303
 20
57.79021265764798
 30
0.0
 10
99.37783834153339
 20
56.99770241995653
 30
0.0
 10
99.17664034052085
 20
56.22847763265248
 30
0.0
 10
98.9375474347537
 20
55.48033288113713
 30
0.0
 10
98.64835105731603
 20
54.75772426493228
 30
0.0
 10
98.32173585698901
 20
54.05891014767543
 30
0.0
 10
97.95217089631441
 20
53.39350164859714
 30
0.0
 10
97.54451566808554
 20
52.76615161786687
 30
0.0
 10
97.09848137476894
 20
52.18272841929283
 30
0.0
 10
96.62084322553187
 20
51.63607493941692
 30
0.0
 10
96.10044710446968
 20
51.13596636491849
 30
0.0
 10
95.54370097842404
 20
50.67772631364593
 30
0.0
 10
94.95274553313921
 20
50.25703306117758
 30
0.0
 10
94.32559545881499
 20
49.88528029639174
 30
0.0
 10
93.67350581894071
 20
49.55942571923143
 30
0.0
 10
93.00938043947924
 20
49.27033400273098
 30
0.0
 10
92.33272599326793
 20
49.0237850826263
 30
0.0
 10
91.64122988261103
 20
48.82398168831776
 30
0.0
 10
90.9367784410104
 20
48.67299586222169
 30
0.0
 10
90.22135407856825
 20
48.55993608310666
 30
0.0
 10
89.49261153510048
 20
48.4948358740504
 30
0.0
 10
89.00224490789128
 20
48.48524391739527
 30
0.0
 10
88.75516686072714
 20
48.48041087659004
 30
0.0
  0
SPLINE
  5
129
330
1F
100
AcDbEntity
  8
0
  6
Continuous
 62
     7
370
    25
100
AcDbSpline
210
0.0
220
0.0
230
1.0
 70
     8
 71
     3
 72
    31
 73
    27
 74
     0
 42
0.000000001
 43
0.00000001
 40
0.0
 40
0.0
 40
0.0
 40
0.0
 40
0.0446969998899172
 40
0.0885335629185878
 40
0.1314091332352273
 40
0.1738139421467781
 40
0.2157145332694451
 40
0.2572471603264205
 40
0.2988479641797118
 40
0.3406041827148141
 40
0.3820294481091343
 40
0.4229697500404858
 40
0.4636322295306196
 40
0.5040475437003944
 40
0.5445912057564576
 40
0.5849639251690935
 40
0.6262652162680834
 40
0.6679794005009904
 40
0.7099427472053504
 40
0.7513818550852256
 40
0.7926185649779641
 40
0.8339484357458208
 40
0.875008050631104
 40
0.9164455302232757
 40
0.957906613728307
 40
1.0
 40
1.0
 40
1.0
 40
1.0
 10
88.75516686072714
 20
48.48041087659004
 30
0.0
 10
88.48950308325456
 20
48.48434140509491
 30
0.0
 10
87.96328967260088
 20
48.49212679770619
 30
0.0
 10
87.18553207952353
 20
48.56983828691689
 30
0.0
 10
86.42712387296599
 20
48.68838987074937
 30
0.0
 10
85.69026988057236
 20
48.85954254181751
 30
0.0
 10
84.97597698408734
 20
49.08282329382418
 30
0.0
 10
84.28340001153946
 20
49.35307525117415
 30
0.0
 10
83.61010309661768
 20
49.66668658026696
 30
0.0
 10
82.96444073978418
 20
50.03263700037978
 30
0.0
 10
82.34861051204182
 20
50.4395345308772
 30
0.0
 10
81.76858126232756
 20
50.88535650203976
 30
0.0
 10
81.22467372555089
 20
51.36599426872603
 30
0.0
 10
80.7256153911021
 20
51.88939219973538
 30
0.0
 10
80.25524333073001
 20
52.43657691701195
 30
0.0
 10
79.83236513259399
 20
53.02788693729173
 30
0.0
 10
79.44317025465048
 20
53.64991196830469
 30
0.0
 10
79.09917561122187
 20
54.30864806194863
 30
0.0
 10
78.78842793034373
 20
54.98452007911563
 30
0.0
 10
78.5266162970025
 20
55.67774421304477
 30
0.0
 10
78.2965346121012
 20
56.37810418266461
 30
0.0
 10
78.11329784017629
 20
57.08991671397655
 30
0.0
 10
77.96728043107589
 20
57.81153981761067
 30
0.0
 10
77.86909430460683
 20
58.5417727379258
 30
0.0
 10
77.7981835375002
 20
59.28170303261097
 30
0.0
 10
77.79302200321222
 20
59.77837095357498
 30
0.0
 10
77.79042170597954
 20
60.02858419413248
 30
0.0
  0
SPLINE
  5
12A
330
1F
100
AcDbEntity
  8
0
  6
Continuous
 62
     7
370
    25
100
AcDbSpline
210
0.0
220
0.0
230
1.0
 70
     8
 71
     3
 72
    31
 73
    27
 74
     0
 42
0.000000001
 43
0.00000001
 40
0.0
 40
0.0
 40
0.0
 40
0.0
 40
0.0508516157922842
 40
0.0997524678094163
 40
0.1474376477769316
 40
0.1940857839327043
 40
0.2391709270841436
 40
0.2833398222454337
 40
0.326577149723844
 40
0.3689362814999017
 40
0.4105718726814493
 40
0.4510505934949113
 40
0.4908768629924148
 40
0.5300443324843851
 40
0.5689366633103301
 40
0.6075778621311331
 40
0.6464200964505122
 40
0.6856793513063939
 40
0.7247985849801963
 40
0.7635130084045109
 40
0.802172526378755
 40
0.8407403615726119
 40
0.8796493769005858
 40
0.919070612866339
 40
0.9590978622172239
 40
1.0
 40
1.0
 40
1.0
 40
1.0
 10
96.46012291541464
 20
60.32029827552991
 30
0.0
 10
96.45815474190552
 20
60.5488361853348
 30
0.0
 10
96.45429389773065
 20
60.99714486020883
 30
0.0
 10
96.40316338103548
 20
61.65795697654154
 30
0.0
 10
96.33721157543269
 20
62.29821405242764
 30
0.0
 10
96.2367989260858
 20
62.91708992708034
 30
0.0
 10
96.09841755511879
 20
63.51202169477861
 30
0.0
 10
95.94511449565452
 20
64.08753858326148
 30
0.0
 10
95.75341438084594
 20
64.63868110443784
 30
0.0
 10
95.53590388444982
 20
65.16761062870137
 30
0.0
 10
95.29251332202071
 20
65.67161173221298
 30
0.0
 10
95.01800113795501
 20
66.14643548501377
 30
0.0
 10
94.7155577269749
 20
66.59023587757817
 30
0.0
 10
94.39334336495853
 20
67.01142691566176
 30
0.0
 10
94.03351564256052
 20
67.39370678114828
 30
0.0
 10
93.65340047814998
 20
67.75322315295666
 30
0.0
 10
93.2443635688148
 20
68.08254834380507
 30
0.0
 10
92.81048695286749
 20
68.38176837882915
 30
0.0
 10
92.35792573269678
 20
68.65111356742845
 30
0.0
 10
91.88761286015031
 20
68.88163810158231
 30
0.0
 10
91.4070410886123
 20
69.08412494222138
 30
0.0
 10
90.90816632649454
 20
69.2393396039448
 30
0.0
 10
90.39787707280712
 20
69.36452250668204
 30
0.0
 10
89.87411046655073
 20
69.45961058037707
 30
0.0
 10
89.33492242520025
 20
69.50885161017553
 30
0.0
 10
88.97133734679068
 20
69.51683363688927
 30
0.0
 10
88.78757953643797
 20
69.52086779515977
 30
0.0
  0
SPLINE
  5
12B
330
1F
100
AcDbEntity
  8
0
  6
Continuous
 62
     7
370
    25
100
AcDbSpline
210
0.0
220
0.0
230
1.0
 70
     8
 71
     3
 72
    23
 73
    19
 74
     0
 42
0.000000001
 43
0.00000001
 40
0.0
 40
0.0
 40
0.0
 40
0.0
 40
0.0610549117432826
 40
0.1195453450847435
 40
0.1768063562451034
 40
0.2329564830316856
 40
0.288583489946503
 40
0.3446666617212996
 40
0.4016615108374463
 40
0.4605400973082773
 40
0.520477062322188
 40
0.5812128653554002
 40
0.64343075972201
 40
0.7079608695212419
 40
0.7753707435336737
 40
0.8464136772813299
 40
0.9211518871893696
 40
1.0
 40
1.0
 40
1.0
 40
1.0
 10
88.74127571399394
 20
51.14751104936649
 30
0.0
 10
89.01637106520279
 20
51.15439659275489
 30
0.0
 10
89.55500698739928
 20
51.16787846729961
 30
0.0
 10
90.34553164000805
 20
51.28073041024096
 30
0.0
 10
91.09661855343067
 20
51.47285603278219
 30
0.0
 10
91.81571234126183
 20
51.7286187581319
 30
0.0
 10
92.48981248350108
 20
52.07436636248061
 30
0.0
 10
93.13468425677591
 20
52.47923491518834
 30
0.0
 10
93.73274837338673
 20
52.97397269009847
 30
0.0
 10
94.29868561515751
 20
53.52971187178357
 30
0.0
 10
94.8062931978736
 20
54.16141152048562
 30
0.0
 10
95.25668806669873
 20
54.85351086120112
 30
0.0
 10
95.62255715573644
 20
55.61638962460469
 30
0.0
 10
95.93843573323376
 20
56.43324263591176
 30
0.0
 10
96.16974023278753
 20
57.3195087278069
 30
0.0
 10
96.34068843207612
 20
58.26511283619784
 30
0.0
 10
96.4437054361297
 20
59.27309667203989
 30
0.0
 10
96.45455365776235
 20
59.96505887230023
 30
0.0
 10
96.46012291541464
 20
60.32029827552991
 30
0.0
  0
SPLINE
  5
12C
330
1F
100
AcDbEntity
  8
0
  6
Continuous
 62
     7
370
    25
100
AcDbSpline
210
0.0
220
0.0
230
1.0
 70
     8
 71
     3
 72
    23
 73
    19
 74
     0
 42
0.000000001
 43
0.00000001
 40
0.0
 40
0.0
 40
0.0
 40
0.0
 40
0.0759644026222
 40
0.1481252239748712
 40
0.2172006111446032
 40
0.2832999093723612
 40
0.3472018681362409
 40
0.4092995407059244
 40
0.4704256161074026
 40
0.5315880640528345
 40
0.5917391729173694
 40
0.650257744290573
 40
0.7073030399522856
 40
0.7642084640229153
 40
0.8211475320101301
 40
0.8791188121552541
 40
0.938422818393666
 40
1.0
 40
1.0
 40
1.0
 40
1.0
 10
81.05021080603963
 20
59.99154113617726
 30
0.0
 10
81.05520627835357
 20
59.65782742993376
 30
0.0
 10
81.06494709681348
 20
59.00710925438719
 30
0.0
 10
81.17638733237516
 20
58.05839675808472
 30
0.0
 10
81.34548009125226
 20
57.16323820414794
 30
0.0
 10
81.57855661024439
 20
56.31912066731975
 30
0.0
 10
81.89186852943293
 20
55.53439234534031
 30
0.0
 10
82.26647349556067
 20
54.8015127615536
 30
0.0
 10
82.71498454584955
 20
54.12535368118255
 30
0.0
 10
83.22750619009597
 20
53.50780658827609
 30
0.0
 10
83.79122124340813
 20
52.95304855389131
 30
0.0
 10
84.39360798643452
 20
52.46849692135483
 30
0.0
 10
85.03480183273687
 20
52.06271920381846
 30
0.0
 10
85.70769400800374
 20
51.72766307437941
 30
0.0
 10
86.41711758235625
 20
51.46612121349813
 30
0.0
 10
87.16094782490454
 20
51.28247310827674
 30
0.0
 10
87.93973126007752
 20
51.1676161262854
 30
0.0
 10
88.47076552280429
 20
51.15429623535915
 30
0.0
 10
88.74127571399393
 20
51.14751104936649
 30
0.0
  0
SPLINE
  5
12D
330
1F
100
AcDbEntity
  8
0
  6
Continuous
 62
     7
370
    25
100
AcDbSpline
210
0.0
220
0.0
230
1.0
 70
     8
 71
     3
 72
    23
 73
    19
 74
     0
 42
0.000000001
 43
0.00000001
 40
0.0
 40
0.0
 40
0.0
 40
0.0
 40
0.0559431333569174
 40
0.1103820356898408
 40
0.1640478588828493
 40
0.2167594775435852
 40
0.269601134614447
 40
0.3230085051908684
 40
0.3775814436721356
 40
0.4334493367080536
 40
0.4909218580498928
 40
0.550624770871325
 40
0.6131168723098177
 40
0.6798607463518502
 40
0.7513577440202004
 40
0.8282611012589939
 40
0.9107950320656295
 40
1.0
 40
1.0
 40
1.0
 40
1.0
 10
88.78757953643797
 20
69.52086779515977
 30
0.0
 10
88.527862938499
 20
69.51570992600585
 30
0.0
 10
88.01541315131888
 20
69.50553287543916
 30
0.0
 10
87.26102605980797
 20
69.39239915697402
 30
0.0
 10
86.53371510964544
 20
69.22336192367771
 30
0.0
 10
85.83235159191612
 20
68.98703886439728
 30
0.0
 10
85.162934161041
 20
68.67410999398862
 30
0.0
 10
84.52199462237256
 20
68.29034556033004
 30
0.0
 10
83.90384369831001
 20
67.84619486276803
 30
0.0
 10
83.31822874757461
 20
67.33083627021927
 30
0.0
 10
82.77230752175291
 20
66.73881505190516
 30
0.0
 10
82.31078589356733
 20
66.04084017692415
 30
0.0
 10
81.92180285616689
 20
65.25357377115877
 30
0.0
 10
81.59700918553038
 20
64.37901137211485
 30
0.0
 10
81.34936357659655
 20
63.41038007202826
 30
0.0
 10
81.17820948493608
 20
62.35184834621
 30
0.0
 10
81.07014628347058
 20
61.20230076283111
 30
0.0
 10
81.05702584885952
 20
60.40544537944598
 30
0.0
 10
81.05021080603963
 20
59.99154113617726
 30
0.0
  0
SPLINE
  5
12E
330
1F
100
AcDbEntity
  8
0
  6
Continuous
 62
     7
370
    25
100
AcDbSpline
210
0.0
220
0.0
230
1.0
 70
     8
 71
     3
 72
    23
 73
    19
 74
     0
 42
0.000000001
 43
0.00000001
 40
0.0
 40
0.0
 40
0.0
 40
0.0
 40
0.0752263466908988
 40
0.1465747215268522
 40
0.2145002518264758
 40
0.2795299716530228
 40
0.3424029515883814
 40
0.4034960527288081
 40
0.4637616065030392
 40
0.5238643590795867
 40
0.5832517242549664
 40
0.6413020392831351
 40
0.6988977748564884
 40
0.7562952438113089
 40
0.8146278048129689
 40
0.8743247683399977
 40
0.9357832838625453
 40
1.0
 40
1.0
 40
1.0
 40
1.0
 10
77.79042170597954
 20
60.02858419413248
 30
0.0
 10
77.79845554466179
 20
60.49201737774572
 30
0.0
 10
77.81410907190916
 20
61.39499343364172
 30
0.0
 10
77.9603684131698
 20
62.70984292240166
 30
0.0
 10
78.19785604195286
 20
63.94694429932571
 30
0.0
 10
78.53736562154509
 20
65.10620118544585
 30
0.0
 10
78.96769498935575
 20
66.18943014414856
 30
0.0
 10
79.49084254155548
 20
67.19908398172586
 30
0.0
 10
80.12254421063952
 20
68.12373414361969
 30
0.0
 10
80.8371597725225
 20
68.97218269863865
 30
0.0
 10
81.63535253206506
 20
69.7222734092656
 30
0.0
 10
82.48520095349068
 20
70.38846142679779
 30
0.0
 10
83.39731697766217
 20
70.94414099352178
 30
0.0
 10
84.36327335248268
 20
71.40294912288503
 30
0.0
 10
85.38717400983941
 20
71.75520871886773
 30
0.0
 10
86.46614414783265
 20
72.00182248914669
 30
0.0
 10
87.5990298150408
 20
72.16091233640493
 30
0.0
 10
88.37338368226162
 20
72.17881842878977
 30
0.0
 10
88.76905800746034
 20
72.18796796793619
 30
0.0
  0
LINE
  5
15F
330
1F
100
AcDbEntity
  8
0
  6
Continuous
 62
     7
370
    25
100
AcDbLine
 10
7.8531282865
 20
71.8916235043
 30
0.0
 11
11.1129173866
 21
71.8916235043
 31
0.0
  0
LINE
  5
160
330
1F
100
AcDbEntity
  8
0
  6
Continuous
 62
     7
370
    25
100
AcDbLine
 10
11.1129173866
 20
71.8916235043
 30
0.0
 11
11.1129173866
 21
48.7767553402
 31
0.0
  0
LINE
  5
161
330
1F
100
AcDbEntity
  8
0
  6
Continuous
 62
     7
370
    25
100
AcDbLine
 10
11.1129173866
 20
48.7767553402
 30
0.0
 11
7.6679129967
 21
48.7767553402
 31
0.0
  0
LINE
  5
162
330
1F
100
AcDbEntity
  8
0
  6
Continuous
 62
     7
370
    25
100
AcDbLine
 10
7.6679129967
 20
48.7767553402
 30
0.0
 11
-3.4079613319
 21
66.0249292006
 31
0.0
  0
LINE
  5
163
330
1F
100
AcDbEntity
  8
0
  6
Continuous
 62
     7
370
    25
100
AcDbLine
 10
-3.4079613319
 20
66.0249292006
 30
0.0
 11
-3.4079613319
 21
48.7767553402
 31
0.0
  0
LINE
  5
164
330
1F
100
AcDbEntity
  8
0
  6
Continuous
 62
     7
370
    25
100
AcDbLine
 10
-3.4079613319
 20
48.7767553402
 30
0.0
 11
-6.6677504319
 21
48.7767553402
 31
0.0
  0
LINE
  5
165
330
1F
100
AcDbEntity
  8
0
  6
Continuous
 62
     7
370
    25
100
AcDbLine
 10
-6.6677504319
 20
48.7767553402
 30
0.0
 11
-6.6677504319
 21
71.8916235043
 31
0.0
  0
LINE
  5
166
330
1F
100
AcDbEntity
  8
0
  6
Continuous
 62
     7
370
    25
100
AcDbLine
 10
-6.6677504319
 20
71.8916235043
 30
0.0
 11
-3.2227460421
 21
71.8916235043
 31
0.0
  0
LINE
  5
167
330
1F
100
AcDbEntity
  8
0
  6
Continuous
 62
     7
370
    25
100
AcDbLine
 10
-3.2227460421
 20
71.8916235043
 30
0.0
 11
7.8531282865
 21
54.6434496439
 31
0.0
  0
LINE
  5
168
330
1F
100
AcDbEntity
  8
0
  6
Continuous
 62
     7
370
    25
100
AcDbLine
 10
7.8531282865
 20
54.6434496439
 30
0.0
 11
7.8531282865
 21
71.8916235043
 31
0.0
  0
LINE
  5
169
330
1F
100
AcDbEntity
  8
0
  6
Continuous
 62
     7
370
    25
100
AcDbLine
 10
22.0776625413
 20
48.7767553402
 30
0.0
 11
22.0776625413
 21
69.2245233315
 31
0.0
  0
LINE
  5
16A
330
1F
100
AcDbEntity
  8
0
  6
Continuous
 62
     7
370
    25
100
AcDbLine
 10
22.0776625413
 20
69.2245233315
 30
0.0
 11
14.6690509503
 21
69.2245233315
 31
0.0
  0
LINE
  5
16B
330
1F
100
AcDbEntity
  8
0
  6
Continuous
 62
     7
370
    25
100
AcDbLine
 10
14.6690509503
 20
69.2245233315
 30
0.0
 11
14.6690509503
 21
71.8916235043
 31
0.0
  0
LINE
  5
16C
330
1F
100
AcDbEntity
  8
0
  6
Continuous
 62
     7
370
    25
100
AcDbLine
 10
14.6690509503
 20
71.8916235043
 30
0.0
 11
32.7460632324
 21
71.8916235043
 31
0.0
  0
LINE
  5
16D
330
1F
100
AcDbEntity
  8
0
  6
Continuous
 62
     7
370
    25
100
AcDbLine
 10
32.7460632324
 20
71.8916235043
 30
0.0
 11
32.7460632324
 21
69.2245233315
 31
0.0
  0
LINE
  5
16E
330
1F
100
AcDbEntity
  8
0
  6
Continuous
 62
     7
370
    25
100
AcDbLine
 10
32.7460632324
 20
69.2245233315
 30
0.0
 11
25.3374516414
 21
69.2245233315
 31
0.0
  0
LINE
  5
16F
330
1F
100
AcDbEntity
  8
0
  6
Continuous
 62
     7
370
    25
100
AcDbLine
 10
25.3374516414
 20
69.2245233315
 30
0.0
 11
25.3374516414
 21
48.7767553402
 31
0.0
  0
LINE
  5
170
330
1F
100
AcDbEntity
  8
0
  6
Continuous
 62
     7
370
    25
100
AcDbLine
 10
25.3374516414
 20
48.7767553402
 30
0.0
 11
22.0776625413
 21
48.7767553402
 31
0.0
  0
LINE
  5
171
330
1F
100
AcDbEntity
  8
0
  6
Continuous
 62
     7
370
    25
100
AcDbLine
 10
40.2102394104
 20
58.5561226404
 30
0.0
 11
48.1004107549
 21
58.5561226404
 31
0.0
  0
LINE
  5
172
330
1F
100
AcDbEntity
  8
0
  6
Continuous
 62
     7
370
    25
100
AcDbLine
 10
48.1004107549
 20
58.5561226404
 30
0.0
 11
45.8546753663
 21
64.6311841451
 31
0.0
  0
LINE
  5
173
330
1F
100
AcDbEntity
  8
0
  6
Continuous
 62
     7
370
    25
100
AcDbLine
 10
42.5763647373
 20
64.9553109022
 30
0.0
 11
40.2102394104
 21
58.5561226404
 31
0.0
  0
LINE
  5
174
330
1F
100
AcDbEntity
  8
0
  6
Continuous
 62
     7
370
    25
100
AcDbLine
 10
33.1396457232
 20
48.7767553402
 30
0.0
 11
42.3170633316
 21
71.8916235043
 31
0.0
  0
LINE
  5
175
330
1F
100
AcDbEntity
  8
0
  6
Continuous
 62
     7
370
    25
100
AcDbLine
 10
42.3170633316
 20
71.8916235043
 30
0.0
 11
45.9935868337
 21
71.8916235043
 31
0.0
  0
LINE
  5
176
330
1F
100
AcDbEntity
  8
0
  6
Continuous
 62
     7
370
    25
100
AcDbLine
 10
45.9935868337
 20
71.8916235043
 30
0.0
 11
55.1710044421
 21
48.7767553402
 31
0.0
  0
LINE
  5
177
330
1F
100
AcDbEntity
  8
0
  6
Continuous
 62
     7
370
    25
100
AcDbLine
 10
55.1710044421
 20
48.7767553402
 30
0.0
 11
51.7121089055
 21
48.7767553402
 31
0.0
  0
LINE
  5
178
330
1F
100
AcDbEntity
  8
0
  6
Continuous
 62
     7
370
    25
100
AcDbLine
 10
51.7121089055
 20
48.7767553402
 30
0.0
 11
49.0820517907
 21
55.8890224676
 31
0.0
  0
LINE
  5
179
330
1F
100
AcDbEntity
  8
0
  6
Continuous
 62
     7
370
    25
100
AcDbLine
 10
49.0820517907
 20
55.8890224676
 30
0.0
 11
39.2285983746
 21
55.8890224676
 31
0.0
  0
LINE
  5
17A
330
1F
100
AcDbEntity
  8
0
  6
Continuous
 62
     7
370
    25
100
AcDbLine
 10
39.2285983746
 20
55.8890224676
 30
0.0
 11
36.5985412598
 21
48.7767553402
 31
0.0
  0
LINE
  5
17B
330
1F
100
AcDbEntity
  8
0
  6
Continuous
 62
     7
370
    25
100
AcDbLine
 10
36.5985412598
 20
48.7767553402
 30
0.0
 11
33.1396457232
 21
48.7767553402
 31
0.0
  0
LINE
  5
17C
330
1F
100
AcDbEntity
  8
0
  6
Continuous
 62
     7
370
    25
100
AcDbLine
 10
-118.3896132249
 20
48.7767553402
 30
0.0
 11
-118.3896132249
 21
71.8916235043
 31
0.0
  0
LINE
  5
17D
330
1F
100
AcDbEntity
  8
0
  6
Continuous
 62
     7
370
    25
100
AcDbLine
 10
-118.3896132249
 20
71.8916235043
 30
0.0
 11
-102.9797011155
 21
71.8916235043
 31
0.0
  0
LINE
  5
17E
330
1F
100
AcDbEntity
  8
0
  6
Continuous
 62
     7
370
    25
100
AcDbLine
 10
-102.9797011155
 20
71.8916235043
 30
0.0
 11
-102.9797011155
 21
69.2245233315
 31
0.0
  0
LINE
  5
17F
330
1F
100
AcDbEntity
  8
0
  6
Continuous
 62
     7
370
    25
100
AcDbLine
 10
-102.9797011155
 20
69.2245233315
 30
0.0
 11
-115.1298241248
 21
69.2245233315
 31
0.0
  0
LINE
  5
180
330
1F
100
AcDbEntity
  8
0
  6
Continuous
 62
     7
370
    25
100
AcDbLine
 10
-115.1298241248
 20
69.2245233315
 30
0.0
 11
-115.1298241248
 21
61.8159117405
 31
0.0
  0
LINE
  5
181
330
1F
100
AcDbEntity
  8
0
  6
Continuous
 62
     7
370
    25
100
AcDbLine
 10
-115.1298241248
 20
61.8159117405
 30
0.0
 11
-104.7577678974
 21
61.8159117405
 31
0.0
  0
LINE
  5
182
330
1F
100
AcDbEntity
  8
0
  6
Continuous
 62
     7
370
    25
100
AcDbLine
 10
-104.7577678974
 20
61.8159117405
 30
0.0
 11
-104.7577678974
 21
59.1488115677
 31
0.0
  0
LINE
  5
183
330
1F
100
AcDbEntity
  8
0
  6
Continuous
 62
     7
370
    25
100
AcDbLine
 10
-104.7577678974
 20
59.1488115677
 30
0.0
 11
-115.1298241248
 21
59.1488115677
 31
0.0
  0
LINE
  5
184
330
1F
100
AcDbEntity
  8
0
  6
Continuous
 62
     7
370
    25
100
AcDbLine
 10
-115.1298241248
 20
59.1488115677
 30
0.0
 11
-115.1298241248
 21
48.7767553402
 31
0.0
  0
LINE
  5
185
330
1F
100
AcDbEntity
  8
0
  6
Continuous
 62
     7
370
    25
100
AcDbLine
 10
-115.1298241248
 20
48.7767553402
 30
0.0
 11
-118.3896132249
 21
48.7767553402
 31
0.0
  0
LINE
  5
186
330
1F
100
AcDbEntity
  8
0
  6
Continuous
 62
     7
370
    25
100
AcDbLine
 10
-98.8308786245
 20
48.7767553402
 30
0.0
 11
-98.8308786245
 21
71.8916235043
 31
0.0
  0
LINE
  5
187
330
1F
100
AcDbEntity
  8
0
  6
Continuous
 62
     7
370
    25
100
AcDbLine
 10
-98.8308786245
 20
71.8916235043
 30
0.0
 11
-82.5319331242
 21
71.8916235043
 31
0.0
  0
LINE
  5
188
330
1F
100
AcDbEntity
  8
0
  6
Continuous
 62
     7
370
    25
100
AcDbLine
 10
-82.5319331242
 20
71.8916235043
 30
0.0
 11
-82.5319331242
 21
69.2245233315
 31
0.0
  0
LINE
  5
189
330
1F
100
AcDbEntity
  8
0
  6
Continuous
 62
     7
370
    25
100
AcDbLine
 10
-82.5319331242
 20
69.2245233315
 30
0.0
 11
-95.5710895245
 21
69.2245233315
 31
0.0
  0
LINE
  5
18A
330
1F
100
AcDbEntity
  8
0
  6
Continuous
 62
     7
370
    25
100
AcDbLine
 10
-95.5710895245
 20
69.2245233315
 30
0.0
 11
-95.5710895245
 21
62.1122562041
 31
0.0
  0
LINE
  5
18B
330
1F
100
AcDbEntity
  8
0
  6
Continuous
 62
     7
370
    25
100
AcDbLine
 10
-95.5710895245
 20
62.1122562041
 30
0.0
 11
-83.4209665152
 21
62.1122562041
 31
0.0
  0
LINE
  5
18C
330
1F
100
AcDbEntity
  8
0
  6
Continuous
 62
     7
370
    25
100
AcDbLine
 10
-83.4209665152
 20
62.1122562041
 30
0.0
 11
-83.4209665152
 21
59.4451560313
 31
0.0
  0
LINE
  5
18D
330
1F
100
AcDbEntity
  8
0
  6
Continuous
 62
     7
370
    25
100
AcDbLine
 10
-83.4209665152
 20
59.4451560313
 30
0.0
 11
-95.5710895245
 21
59.4451560313
 31
0.0
  0
LINE
  5
18E
330
1F
100
AcDbEntity
  8
0
  6
Continuous
 62
     7
370
    25
100
AcDbLine
 10
-95.5710895245
 20
59.4451560313
 30
0.0
 11
-95.5710895245
 21
51.443855513
 31
0.0
  0
LINE
  5
18F
330
1F
100
AcDbEntity
  8
0
  6
Continuous
 62
     7
370
    25
100
AcDbLine
 10
-95.5710895245
 20
51.443855513
 30
0.0
 11
-81.939244197
 21
51.443855513
 31
0.0
  0
LINE
  5
190
330
1F
100
AcDbEntity
  8
0
  6
Continuous
 62
     7
370
    25
100
AcDbLine
 10
-81.939244197
 20
51.443855513
 30
0.0
 11
-81.939244197
 21
48.7767553402
 31
0.0
  0
LINE
  5
191
330
1F
100
AcDbEntity
  8
0
  6
Continuous
 62
     7
370
    25
100
AcDbLine
 10
-81.939244197
 20
48.7767553402
 30
0.0
 11
-98.8308786245
 21
48.7767553402
 31
0.0
  0
LINE
  5
192
330
1F
100
AcDbEntity
  8
0
  6
Continuous
 62
     7
370
    25
100
AcDbLine
 10
-67.3442793626
 20
69.2245233315
 30
0.0
 11
-74.2342881423
 21
69.2245233315
 31
0.0
  0
LINE
  5
193
330
1F
100
AcDbEntity
  8
0
  6
Continuous
 62
     7
370
    25
100
AcDbLine
 10
-74.2342881423
 20
69.2245233315
 30
0.0
 11
-74.2342881423
 21
61.8159117405
 31
0.0
  0
LINE
  5
194
330
1F
100
AcDbEntity
  8
0
  6
Continuous
 62
     7
370
    25
100
AcDbLine
 10
-74.2342881423
 20
61.8159117405
 30
0.0
 11
-68.0434670815
 21
61.8159117405
 31
0.0
  0
LINE
  5
195
330
1F
100
AcDbEntity
  8
0
  6
Continuous
 62
     7
370
    25
100
AcDbLine
 10
-77.4940772423
 20
48.7767553402
 30
0.0
 11
-77.4940772423
 21
71.8916235043
 31
0.0
  0
LINE
  5
196
330
1F
100
AcDbEntity
  8
0
  6
Continuous
 62
     7
370
    25
100
AcDbLine
 10
-77.4940772423
 20
71.8916235043
 30
0.0
 11
-67.464669301
 21
71.8916235043
 31
0.0
  0
LINE
  5
197
330
1F
100
AcDbEntity
  8
0
  6
Continuous
 62
     7
370
    25
100
AcDbLine
 10
-61.611866144
 20
55.157422073
 30
0.0
 11
-57.8195830859
 21
48.7767553402
 31
0.0
  0
LINE
  5
198
330
1F
100
AcDbEntity
  8
0
  6
Continuous
 62
     7
370
    25
100
AcDbLine
 10
-57.8195830859
 20
48.7767553402
 30
0.0
 11
-61.5563015571
 21
48.7767553402
 31
0.0
  0
LINE
  5
199
330
1F
100
AcDbEntity
  8
0
  6
Continuous
 62
     7
370
    25
100
AcDbLine
 10
-61.5563015571
 20
48.7767553402
 30
0.0
 11
-64.4363993131
 21
53.6571782258
 31
0.0
  0
LINE
  5
19A
330
1F
100
AcDbEntity
  8
0
  6
Continuous
 62
     7
370
    25
100
AcDbLine
 10
-70.8957825441
 20
59.1488115677
 30
0.0
 11
-74.2342881423
 21
59.1488115677
 31
0.0
  0
LINE
  5
19B
330
1F
100
AcDbEntity
  8
0
  6
Continuous
 62
     7
370
    25
100
AcDbLine
 10
-74.2342881423
 20
59.1488115677
 30
0.0
 11
-74.2342881423
 21
48.7767553402
 31
0.0
  0
LINE
  5
19C
330
1F
100
AcDbEntity
  8
0
  6
Continuous
 62
     7
370
    25
100
AcDbLine
 10
-74.2342881423
 20
48.7767553402
 30
0.0
 11
-77.4940772423
 21
48.7767553402
 31
0.0
  0
LINE
  5
19D
330
1F
100
AcDbEntity
  8
0
  6
Continuous
 62
     7
370
    25
100
AcDbLine
 10
-54.9718980056
 20
48.7767553402
 30
0.0
 11
-54.9718980056
 21
71.8916235043
 31
0.0
  0
LINE
  5
19E
330
1F
100
AcDbEntity
  8
0
  6
Continuous
 62
     7
370
    25
100
AcDbLine
 10
-54.9718980056
 20
71.8916235043
 30
0.0
 11
-50.0683232087
 21
71.8916235043
 31
0.0
  0
LINE
  5
19F
330
1F
100
AcDbEntity
  8
0
  6
Continuous
 62
     7
370
    25
100
AcDbLine
 10
-50.0683232087
 20
71.8916235043
 30
0.0
 11
-44.900816624
 21
55.6713945021
 31
0.0
  0
LINE
  5
1A0
330
1F
100
AcDbEntity
  8
0
  6
Continuous
 62
     7
370
    25
100
AcDbLine
 10
-42.7245369691
 20
55.9492174368
 30
0.0
 11
-37.607964589
 21
71.8916235043
 31
0.0
  0
LINE
  5
1A1
330
1F
100
AcDbEntity
  8
0
  6
Continuous
 62
     7
370
    25
100
AcDbLine
 10
-37.607964589
 20
71.8916235043
 30
0.0
 11
-32.7460632324
 21
71.8916235043
 31
0.0
  0
LINE
  5
1A2
330
1F
100
AcDbEntity
  8
0
  6
Continuous
 62
     7
370
    25
100
AcDbLine
 10
-32.7460632324
 20
71.8916235043
 30
0.0
 11
-32.7460632324
 21
48.7767553402
 31
0.0
  0
LINE
  5
1A3
330
1F
100
AcDbEntity
  8
0
  6
Continuous
 62
     7
370
    25
100
AcDbLine
 10
-32.7460632324
 20
48.7767553402
 30
0.0
 11
-36.0058523325
 21
48.7767553402
 31
0.0
  0
LINE
  5
1A4
330
1F
100
AcDbEntity
  8
0
  6
Continuous
 62
     7
370
    25
100
AcDbLine
 10
-36.0058523325
 20
48.7767553402
 30
0.0
 11
-36.0058523325
 21
68.3354899406
 31
0.0
  0
LINE
  5
1A5
330
1F
100
AcDbEntity
  8
0
  6
Continuous
 62
     7
370
    25
100
AcDbLine
 10
-36.0058523325
 20
68.3354899406
 30
0.0
 11
-42.173521482
 21
48.7767553402
 31
0.0
  0
LINE
  5
1A6
330
1F
100
AcDbEntity
  8
0
  6
Continuous
 62
     7
370
    25
100
AcDbLine
 10
-42.173521482
 20
48.7767553402
 30
0.0
 11
-45.5814828139
 21
48.7767553402
 31
0.0
  0
LINE
  5
1A7
330
1F
100
AcDbEntity
  8
0
  6
Continuous
 62
     7
370
    25
100
AcDbLine
 10
-45.5814828139
 20
48.7767553402
 30
0.0
 11
-51.7121089055
 21
68.3354899406
 31
0.0
  0
LINE
  5
1A8
330
1F
100
AcDbEntity
  8
0
  6
Continuous
 62
     7
370
    25
100
AcDbLine
 10
-51.7121089055
 20
68.3354899406
 30
0.0
 11
-51.7121089055
 21
48.7767553402
 31
0.0
  0
LINE
  5
1A9
330
1F
100
AcDbEntity
  8
0
  6
Continuous
 62
     7
370
    25
100
AcDbLine
 10
-51.7121089055
 20
48.7767553402
 30
0.0
 11
-54.9718980056
 21
48.7767553402
 31
0.0
  0
LINE
  5
1AA
330
1F
100
AcDbEntity
  8
0
  6
Continuous
 62
     7
370
    25
100
AcDbLine
 10
-28.0045518142
 20
48.7767553402
 30
0.0
 11
-28.0045518142
 21
71.8916235043
 31
0.0
  0
LINE
  5
1AB
330
1F
100
AcDbEntity
  8
0
  6
Continuous
 62
     7
370
    25
100
AcDbLine
 10
-28.0045518142
 20
71.8916235043
 30
0.0
 11
-11.7056063139
 21
71.8916235043
 31
0.0
  0
LINE
  5
1AC
330
1F
100
AcDbEntity
  8
0
  6
Continuous
 62
     7
370
    25
100
AcDbLine
 10
-11.7056063139
 20
71.8916235043
 30
0.0
 11
-11.7056063139
 21
69.2245233315
 31
0.0
  0
LINE
  5
1AD
330
1F
100
AcDbEntity
  8
0
  6
Continuous
 62
     7
370
    25
100
AcDbLine
 10
-11.7056063139
 20
69.2245233315
 30
0.0
 11
-24.7447627141
 21
69.2245233315
 31
0.0
  0
LINE
  5
1AE
330
1F
100
AcDbEntity
  8
0
  6
Continuous
 62
     7
370
    25
100
AcDbLine
 10
-24.7447627141
 20
69.2245233315
 30
0.0
 11
-24.7447627141
 21
62.1122562041
 31
0.0
  0
LINE
  5
1AF
330
1F
100
AcDbEntity
  8
0
  6
Continuous
 62
     7
370
    25
100
AcDbLine
 10
-24.7447627141
 20
62.1122562041
 30
0.0
 11
-12.5946397048
 21
62.1122562041
 31
0.0
  0
LINE
  5
1B0
330
1F
100
AcDbEntity
  8
0
  6
Continuous
 62
     7
370
    25
100
AcDbLine
 10
-12.5946397048
 20
62.1122562041
 30
0.0
 11
-12.5946397048
 21
59.4451560313
 31
0.0
  0
LINE
  5
1B1
330
1F
100
AcDbEntity
  8
0
  6
Continuous
 62
     7
370
    25
100
AcDbLine
 10
-12.5946397048
 20
59.4451560313
 30
0.0
 11
-24.7447627141
 21
59.4451560313
 31
0.0
  0
LINE
  5
1B2
330
1F
100
AcDbEntity
  8
0
  6
Continuous
 62
     7
370
    25
100
AcDbLine
 10
-24.7447627141
 20
59.4451560313
 30
0.0
 11
-24.7447627141
 21
51.443855513
 31
0.0
  0
LINE
  5
1B3
330
1F
100
AcDbEntity
  8
0
  6
Continuous
 62
     7
370
    25
100
AcDbLine
 10
-24.7447627141
 20
51.443855513
 30
0.0
 11
-11.1129173866
 21
51.443855513
 31
0.0
  0
LINE
  5
1B4
330
1F
100
AcDbEntity
  8
0
  6
Continuous
 62
     7
370
    25
100
AcDbLine
 10
-11.1129173866
 20
51.443855513
 30
0.0
 11
-11.1129173866
 21
48.7767553402
 31
0.0
  0
LINE
  5
1B5
330
1F
100
AcDbEntity
  8
0
  6
Continuous
 62
     7
370
    25
100
AcDbLine
 10
-11.1129173866
 20
48.7767553402
 30
0.0
 11
-28.0045518142
 21
48.7767553402
 31
0.0
  0
LINE
  5
1B6
330
1F
100
AcDbEntity
  8
0
  6
Continuous
 62
     7
370
    25
100
AcDbLine
 10
109.4992793157
 20
48.7767553402
 30
0.0
 11
109.4992793157
 21
69.2245233315
 31
0.0
  0
LINE
  5
1B7
330
1F
100
AcDbEntity
  8
0
  6
Continuous
 62
     7
370
    25
100
AcDbLine
 10
109.4992793157
 20
69.2245233315
 30
0.0
 11
102.0906677246
 21
69.2245233315
 31
0.0
  0
LINE
  5
1B8
330
1F
100
AcDbEntity
  8
0
  6
Continuous
 62
     7
370
    25
100
AcDbLine
 10
102.0906677246
 20
69.2245233315
 30
0.0
 11
102.0906677246
 21
71.8916235043
 31
0.0
  0
LINE
  5
1B9
330
1F
100
AcDbEntity
  8
0
  6
Continuous
 62
     7
370
    25
100
AcDbLine
 10
102.0906677246
 20
71.8916235043
 30
0.0
 11
120.1676800068
 21
71.8916235043
 31
0.0
  0
LINE
  5
1BA
330
1F
100
AcDbEntity
  8
0
  6
Continuous
 62
     7
370
    25
100
AcDbLine
 10
120.1676800068
 20
71.8916235043
 30
0.0
 11
120.1676800068
 21
69.2245233315
 31
0.0
  0
LINE
  5
1BB
330
1F
100
AcDbEntity
  8
0
  6
Continuous
 62
     7
370
    25
100
AcDbLine
 10
120.1676800068
 20
69.2245233315
 30
0.0
 11
112.7590684157
 21
69.2245233315
 31
0.0
  0
LINE
  5
1BC
330
1F
100
AcDbEntity
  8
0
  6
Continuous
 62
     7
370
    25
100
AcDbLine
 10
112.7590684157
 20
69.2245233315
 30
0.0
 11
112.7590684157
 21
48.7767553402
 31
0.0
  0
LINE
  5
1BD
330
1F
100
AcDbEntity
  8
0
  6
Continuous
 62
     7
370
    25
100
AcDbLine
 10
112.7590684157
 20
48.7767553402
 30
0.0
 11
109.4992793157
 21
48.7767553402
 31
0.0
  0
LINE
  5
1BE
330
1F
100
AcDbEntity
  8
0
  6
Continuous
 62
     7
370
    25
100
AcDbLine
 10
-20.167887109
 20
-17.9454240153
 30
0.0
 11
-25.9301405687
 21
-17.9454240153
 31
0.0
  0
LINE
  5
1BF
330
1F
100
AcDbEntity
  8
0
  6
Continuous
 62
     7
370
    25
100
AcDbLine
 10
-25.9301405687
 20
-17.9454240153
 30
0.0
 11
-25.9301405687
 21
17.0782727945
 31
0.0
  0
LINE
  5
1C0
330
1F
100
AcDbEntity
  8
0
  6
Continuous
 62
     7
370
    25
100
AcDbLine
 10
-36.3021967961
 20
10.4516813158
 30
0.0
 11
-36.3021967961
 21
15.763758724
 31
0.0
  0
LINE
  5
1C1
330
1F
100
AcDbEntity
  8
0
  6
Continuous
 62
     7
370
    25
100
AcDbLine
 10
-23.8773377736
 20
27.0001529704
 30
0.0
 11
-20.167887109
 21
27.0001529704
 31
0.0
  0
LINE
  5
1C2
330
1F
100
AcDbEntity
  8
0
  6
Continuous
 62
     7
370
    25
100
AcDbLine
 10
-20.167887109
 20
27.0001529704
 30
0.0
 11
-20.167887109
 21
-17.9454240153
 31
0.0
  0
LINE
  5
1C3
330
1F
100
AcDbEntity
  8
0
  6
Continuous
 62
     7
370
    25
100
AcDbLine
 10
65.9922077472
 20
59.4451560313
 30
0.0
 11
60.8987872784
 21
59.4451560313
 31
0.0
  0
LINE
  5
1C4
330
1F
100
AcDbEntity
  8
0
  6
Continuous
 62
     7
370
    25
100
AcDbLine
 10
60.8987872784
 20
59.4451560313
 30
0.0
 11
60.8987872784
 21
51.443855513
 31
0.0
  0
LINE
  5
1C5
330
1F
100
AcDbEntity
  8
0
  6
Continuous
 62
     7
370
    25
100
AcDbLine
 10
60.8987872784
 20
51.443855513
 30
0.0
 11
66.367268709
 21
51.443855513
 31
0.0
  0
LINE
  5
1C6
330
1F
100
AcDbEntity
  8
0
  6
Continuous
 62
     7
370
    25
100
AcDbLine
 10
65.3022807928
 20
69.2245233315
 30
0.0
 11
60.8987872784
 21
69.2245233315
 31
0.0
  0
LINE
  5
1C7
330
1F
100
AcDbEntity
  8
0
  6
Continuous
 62
     7
370
    25
100
AcDbLine
 10
57.6389981783
 20
71.8916235043
 30
0.0
 11
66.2931825931
 21
71.8916235043
 31
0.0
  0
LINE
  5
1C8
330
1F
100
AcDbEntity
  8
0
  6
Continuous
 62
     7
370
    25
100
AcDbLine
 10
66.3163345043
 20
48.7767553402
 30
0.0
 11
57.6389981783
 21
48.7767553402
 31
0.0
  0
LINE
  5
1C9
330
1F
100
AcDbEntity
  8
0
  6
Continuous
 62
     7
370
    25
100
AcDbLine
 10
60.8987872784
 20
62.1122562041
 30
0.0
 11
65.6634506079
 21
62.1122562041
 31
0.0
  0
LINE
  5
1CA
330
1F
100
AcDbEntity
  8
0
  6
Continuous
 62
     7
370
    25
100
AcDbLine
 10
60.8987872784
 20
69.2245233315
 30
0.0
 11
60.8987872784
 21
62.1122562041
 31
0.0
  0
LINE
  5
1CB
330
1F
100
AcDbEntity
  8
0
  6
Continuous
 62
     7
370
    25
100
AcDbLine
 10
57.6389981783
 20
48.7767553402
 30
0.0
 11
57.6389981783
 21
71.8916235043
 31
0.0
  0
LINE
  5
1CC
330
1F
100
AcDbEntity
  8
0
  6
Continuous
 62
     7
370
    25
100
AcDbLine
 10
-2.8811267299
 20
-17.9454240153
 30
0.0
 11
-2.8811267299
 21
-12.1831705556
 31
0.0
  0
LINE
  5
1CD
330
1F
100
AcDbEntity
  8
0
  6
Continuous
 62
     7
370
    25
100
AcDbLine
 10
-2.8811267299
 20
-12.1831705556
 30
0.0
 11
2.8811267299
 21
-12.1831705556
 31
0.0
  0
LINE
  5
1CE
330
1F
100
AcDbEntity
  8
0
  6
Continuous
 62
     7
370
    25
100
AcDbLine
 10
2.8811267299
 20
-12.1831705556
 30
0.0
 11
2.8811267299
 21
-17.9454240153
 31
0.0
  0
LINE
  5
1CF
330
1F
100
AcDbEntity
  8
0
  6
Continuous
 62
     7
370
    25
100
AcDbLine
 10
2.8811267299
 20
-17.9454240153
 30
0.0
 11
-2.8811267299
 21
-17.9454240153
 31
0.0
  0
LINE
  5
1D0
330
1F
100
AcDbEntity
  8
0
  6
Continuous
 62
     7
370
    25
100
AcDbLine
 10
-115.57
 20
-52.197
 30
0.0
 11
-102.87
 21
-52.197
 31
0.0
  0
LINE
  5
1D1
330
1F
100
AcDbEntity
  8
0
  6
Continuous
 62
     7
370
    25
100
AcDbLine
 10
-102.87
 20
-49.403
 30
0.0
 11
-115.57
 21
-49.403
 31
0.0
  0
LINE
  5
1D2
330
1F
100
AcDbEntity
  8
0
  6
Continuous
 62
     7
370
    25
100
AcDbLine
 10
-88.265
 20
-52.197
 30
0.0
 11
-75.565
 21
-52.197
 31
0.0
  0
LINE
  5
1D3
330
1F
100
AcDbEntity
  8
0
  6
Continuous
 62
     7
370
    25
100
AcDbLine
 10
-75.565
 20
-49.403
 30
0.0
 11
-88.265
 21
-49.403
 31
0.0
  0
LINE
  5
1D4
330
1F
100
AcDbEntity
  8
0
  6
Continuous
 62
     7
370
    25
100
AcDbLine
 10
-60.96
 20
-52.197
 30
0.0
 11
-48.26
 21
-52.197
 31
0.0
  0
LINE
  5
1D5
330
1F
100
AcDbEntity
  8
0
  6
Continuous
 62
     7
370
    25
100
AcDbLine
 10
102.87
 20
-52.197
 30
0.0
 11
115.57
 21
-52.197
 31
0.0
  0
LINE
  5
1D6
330
1F
100
AcDbEntity
  8
0
  6
Continuous
 62
     7
370
    25
100
AcDbLine
 10
-120.65
 20
101.6
 30
0.0
 11
120.65
 21
101.6
 31
0.0
  0
LINE
  5
1D7
330
1F
100
AcDbEntity
  8
0
  6
Continuous
 62
     7
370
    25
100
AcDbLine
 10
127.0
 20
95.25
 30
0.0
 11
127.0
 21
-95.25
 31
0.0
  0
LINE
  5
1D8
330
1F
100
AcDbEntity
  8
0
  6
Continuous
 62
     7
370
    25
100
AcDbLine
 10
-127.0
 20
-95.25
 30
0.0
 11
-127.0
 21
95.25
 31
0.0
  0
LINE
  5
1D9
330
1F
100
AcDbEntity
  8
0
  6
Continuous
 62
     7
370
    25
100
AcDbLine
 10
-6.35
 20
-52.197
 30
0.0
 11
6.35
 21
-52.197
 31
0.0
  0
LINE
  5
1DA
330
1F
100
AcDbEntity
  8
0
  6
Continuous
 62
     7
370
    25
100
AcDbLine
 10
6.35
 20
-49.403
 30
0.0
 11
-6.35
 21
-49.403
 31
0.0
  0
LINE
  5
1DB
330
1F
100
AcDbEntity
  8
0
  6
Continuous
 62
     7
370
    25
100
AcDbLine
 10
20.955
 20
-52.197
 30
0.0
 11
33.655
 21
-52.197
 31
0.0
  0
LINE
  5
1DC
330
1F
100
AcDbEntity
  8
0
  6
Continuous
 62
     7
370
    25
100
AcDbLine
 10
33.655
 20
-49.403
 30
0.0
 11
20.955
 21
-49.403
 31
0.0
  0
LINE
  5
1DD
330
1F
100
AcDbEntity
  8
0
  6
Continuous
 62
     7
370
    25
100
AcDbLine
 10
-33.655
 20
-52.197
 30
0.0
 11
-20.955
 21
-52.197
 31
0.0
  0
LINE
  5
1DE
330
1F
100
AcDbEntity
  8
0
  6
Continuous
 62
     7
370
    25
100
AcDbLine
 10
-20.955
 20
-49.403
 30
0.0
 11
-33.655
 21
-49.403
 31
0.0
  0
LINE
  5
1DF
330
1F
100
AcDbEntity
  8
0
  6
Continuous
 62
     7
370
    25
100
AcDbLine
 10
60.96
 20
-49.403
 30
0.0
 11
48.26
 21
-49.403
 31
0.0
  0
LINE
  5
1E0
330
1F
100
AcDbEntity
  8
0
  6
Continuous
 62
     7
370
    25
100
AcDbLine
 10
48.26
 20
-52.197
 30
0.0
 11
60.96
 21
-52.197
 31
0.0
  0
LINE
  5
1E1
330
1F
100
AcDbEntity
  8
0
  6
Continuous
 62
     7
370
    25
100
AcDbLine
 10
88.265
 20
-49.403
 30
0.0
 11
75.565
 21
-49.403
 31
0.0
  0
LINE
  5
1E2
330
1F
100
AcDbEntity
  8
0
  6
Continuous
 62
     7
370
    25
100
AcDbLine
 10
75.565
 20
-52.197
 30
0.0
 11
88.265
 21
-52.197
 31
0.0
  0
LINE
  5
1E3
330
1F
100
AcDbEntity
  8
0
  6
Continuous
 62
     7
370
    25
100
AcDbLine
 10
115.57
 20
-49.403
 30
0.0
 11
102.87
 21
-49.403
 31
0.0
  0
LINE
  5
1E4
330
1F
100
AcDbEntity
  8
0
  6
Continuous
 62
     7
370
    25
100
AcDbLine
 10
-48.26
 20
-49.403
 30
0.0
 11
-60.96
 21
-49.403
 31
0.0
  0
LINE
  5
1E5
330
1F
100
AcDbEntity
  8
0
  6
Continuous
 62
     7
370
    25
100
AcDbLine
 10
120.65
 20
-101.6
 30
0.0
 11
-120.65
 21
-101.6
 31
0.0
  0
ARC
  5
1E6
330
1F
100
AcDbEntity
  8
0
  6
Continuous
 62
     7
370
    25
100
AcDbCircle
 10
-115.57
 20
-50.8
 30
0.0
 40
1.397000000000013
100
AcDbArc
 50
90.0
 51
270.0
  0
ARC
  5
1E7
330
1F
100
AcDbEntity
  8
0
  6
Continuous
 62
     7
370
    25
100
AcDbCircle
 10
-88.265
 20
-50.8
 30
0.0
 40
1.397000000000013
100
AcDbArc
 50
90.0
 51
270.0
  0
ARC
  5
1E8
330
1F
100
AcDbEntity
  8
0
  6
Continuous
 62
     7
370
    25
100
AcDbCircle
 10
115.57
 20
-50.8
 30
0.0
 40
1.397000000000006
100
AcDbArc
 50
270.0
 51
90.0
  0
ARC
  5
1E9
330
1F
100
AcDbEntity
  8
0
  6
Continuous
 62
     7
370
    25
100
AcDbCircle
 10
-120.65
 20
95.25
 30
0.0
 40
6.350000000000023
100
AcDbArc
 50
90.0
 51
180.0
  0
ARC
  5
1EA
330
1F
100
AcDbEntity
  8
0
  6
Continuous
 62
     7
370
    25
100
AcDbCircle
 10
120.65
 20
95.25
 30
0.0
 40
6.350000000000009
100
AcDbArc
 50
0.0
 51
90.0
  0
ARC
  5
1EB
330
1F
100
AcDbEntity
  8
0
  6
Continuous
 62
     7
370
    25
100
AcDbCircle
 10
120.65
 20
-95.25
 30
0.0
 40
6.34999999999998
100
AcDbArc
 50
270.0
 51
0.0
  0
ARC
  5
1EC
330
1F
100
AcDbEntity
  8
0
  6
Continuous
 62
     7
370
    25
100
AcDbCircle
 10
-120.65
 20
-95.25
 30
0.0
 40
6.34999999999998
100
AcDbArc
 50
180.0
 51
270.0
  0
ARC
  5
1ED
330
1F
100
AcDbEntity
  8
0
  6
Continuous
 62
     7
370
    25
100
AcDbCircle
 10
6.35
 20
-50.8
 30
0.0
 40
1.397000000000006
100
AcDbArc
 50
270.0
 51
90.0
  0
ARC
  5
1EE
330
1F
100
AcDbEntity
  8
0
  6
Continuous
 62
     7
370
    25
100
AcDbCircle
 10
33.655
 20
-50.8
 30
0.0
 40
1.397000000000006
100
AcDbArc
 50
270.0
 51
90.0
  0
ARC
  5
1EF
330
1F
100
AcDbEntity
  8
0
  6
Continuous
 62
     7
370
    25
100
AcDbCircle
 10
20.955
 20
-50.8
 30
0.0
 40
1.397000000000013
100
AcDbArc
 50
90.0
 51
270.0
  0
ARC
  5
1F0
330
1F
100
AcDbEntity
  8
0
  6
Continuous
 62
     7
370
    25
100
AcDbCircle
 10
-20.955
 20
-50.8
 30
0.0
 40
1.397000000000006
100
AcDbArc
 50
270.0
 51
90.0
  0
ARC
  5
1F1
330
1F
100
AcDbEntity
  8
0
  6
Continuous
 62
     7
370
    25
100
AcDbCircle
 10
-33.655
 20
-50.8
 30
0.0
 40
1.397000000000013
100
AcDbArc
 50
90.0
 51
270.0
  0
ARC
  5
1F2
330
1F
100
AcDbEntity
  8
0
  6
Continuous
 62
     7
370
    25
100
AcDbCircle
 10
48.26
 20
-50.8
 30
0.0
 40
1.397000000000013
100
AcDbArc
 50
90.0
 51
270.0
  0
ARC
  5
1F3
330
1F
100
AcDbEntity
  8
0
  6
Continuous
 62
     7
370
    25
100
AcDbCircle
 10
60.96
 20
-50.8
 30
0.0
 40
1.397000000000006
100
AcDbArc
 50
270.0
 51
90.0
  0
ARC
  5
1F4
330
1F
100
AcDbEntity
  8
0
  6
Continuous
 62
     7
370
    25
100
AcDbCircle
 10
88.265
 20
-50.8
 30
0.0
 40
1.397000000000006
100
AcDbArc
 50
270.0
 51
90.0
  0
ARC
  5
1F5
330
1F
100
AcDbEntity
  8
0
  6
Continuous
 62
     7
370
    25
100
AcDbCircle
 10
102.87
 20
-50.8
 30
0.0
 40
1.397000000000013
100
AcDbArc
 50
90.0
 51
270.0
  0
ARC
  5
1F6
330
1F
100
AcDbEntity
  8
0
  6
Continuous
 62
     7
370
    25
100
AcDbCircle
 10
-48.26
 20
-50.8
 30
0.0
 40
1.397000000000006
100
AcDbArc
 50
270.0
 51
90.0
  0
ARC
  5
1F7
330
1F
100
AcDbEntity
  8
0
  6
Continuous
 62
     7
370
    25
100
AcDbCircle
 10
-60.96
 20
-50.8
 30
0.0
 40
1.397000000000013
100
AcDbArc
 50
90.0
 51
270.0
  0
ARC
  5
1F8
330
1F
100
AcDbEntity
  8
0
  6
Continuous
 62
     7
370
    25
100
AcDbCircle
 10
-102.87
 20
-50.8
 30
0.0
 40
1.397000000000006
100
AcDbArc
 50
270.0
 51
90.0
  0
ARC
  5
1F9
330
1F
100
AcDbEntity
  8
0
  6
Continuous
 62
     7
370
    25
100
AcDbCircle
 10
75.565
 20
-50.8
 30
0.0
 40
1.397000000000013
100
AcDbArc
 50
90.0
 51
270.0
  0
ARC
  5
1FA
330
1F
100
AcDbEntity
  8
0
  6
Continuous
 62
     7
370
    25
100
AcDbCircle
 10
-75.565
 20
-50.8
 30
0.0
 40
1.397000000000006
100
AcDbArc
 50
270.0
 51
90.0
  0
ARC
  5
1FB
330
1F
100
AcDbEntity
  8
0
  6
Continuous
 62
     7
370
    25
100
AcDbCircle
 10
-6.35
 20
-50.8
 30
0.0
 40
1.397000000000013
100
AcDbArc
 50
90.0
 51
270.0
  0
ENDSEC
  0
SECTION
  2
OBJECTS
  0
DICTIONARY
  5
C
330
0
100
AcDbDictionary
281
     1
  3
ACAD_GROUP
350
D
  3
ACAD_LAYOUT
350
1A
  3
ACAD_MLINESTYLE
350
17
  3
ACAD_PLOTSETTINGS
350
19
  3
ACAD_PLOTSTYLENAME
350
E
  3
ACAD_SCALELIST
350
47
  0
DICTIONARY
  5
D
102
{ACAD_REACTORS
330
C
102
}
330
C
100
AcDbDictionary
281
     1
  0
DICTIONARY
  5
1A
102
{ACAD_REACTORS
330
C
102
}
330
C
100
AcDbDictionary
281
     1
  3
Layout1
350
1E
  3
Layout2
350
26
  3
Model
350
22
  0
DICTIONARY
  5
17
102
{ACAD_REACTORS
330
C
102
}
330
C
100
AcDbDictionary
281
     1
  3
Standard
350
18
  0
DICTIONARY
  5
19
102
{ACAD_REACTORS
330
C
102
}
330
C
100
AcDbDictionary
281
     1
  0
ACDBDICTIONARYWDFLT
  5
E
102
{ACAD_REACTORS
330
C
102
}
330
C
100
AcDbDictionary
281
     1
  3
Normal
350
F
100
AcDbDictionaryWithDefault
340
F
  0
DICTIONARY
  5
47
102
{ACAD_REACTORS
330
C
102
}
330
C
100
AcDbDictionary
281
     1
  3
A0
350
48
  3
A1
350
49
  3
A2
350
4A
  3
A3
350
4B
  3
A4
350
4C
  3
A5
350
4D
  3
A6
350
4E
  3
A7
350
4F
  3
A8
350
50
  3
A9
350
51
  3
B0
350
52
  3
B1
350
53
  3
B2
350
54
  3
B3
350
55
  3
B4
350
56
  3
B5
350
57
  3
B6
350
58
  3
B7
350
59
  3
B8
350
5A
  3
B9
350
5B
  3
C0
350
5C
  3
C1
350
5D
  3
C2
350
5E
  3
C3
350
5F
  3
C4
350
60
  3
C5
350
61
  3
C6
350
62
  3
C7
350
63
  3
C8
350
64
  3
C9
350
65
  3
D0
350
66
  3
D1
350
67
  3
D2
350
68
  0
LAYOUT
  5
1E
102
{ACAD_REACTORS
330
1A
102
}
330
1A
100
AcDbPlotSettings
  1

  2
none_device
  4

  6

 40
0.0
 41
0.0
 42
0.0
 43
0.0
 44
0.0
 45
0.0
 46
0.0
 47
0.0
 48
0.0
 49
0.0
140
0.0
141
0.0
142
1.0
143
1.0
 70
   688
 72
     1
 73
     0
 74
     5
  7

 75
    16
147
1.0
148
0.0
149
0.0
100
AcDbLayout
  1
Layout1
 70
     1
 71
     1
 10
0.0
 20
0.0
 11
420.0
 21
297.0
 12
0.0
 22
0.0
 32
0.0
 14
1.0000000000E+20
 24
1.0000000000E+20
 34
1.0000000000E+20
 15
-1.0000000000E+20
 25
-1.0000000000E+20
 35
-1.0000000000E+20
146
0.0
 13
0.0
 23
0.0
 33
0.0
 16
1.0
 26
0.0
 36
0.0
 17
0.0
 27
1.0
 37
0.0
 76
     0
330
1B
  0
LAYOUT
  5
26
102
{ACAD_REACTORS
330
1A
102
}
330
1A
100
AcDbPlotSettings
  1

  2
none_device
  4

  6

 40
0.0
 41
0.0
 42
0.0
 43
0.0
 44
0.0
 45
0.0
 46
0.0
 47
0.0
 48
0.0
 49
0.0
140
0.0
141
0.0
142
1.0
143
1.0
 70
   688
 72
     1
 73
     0
 74
     5
  7

 75
    16
147
1.0
148
0.0
149
0.0
100
AcDbLayout
  1
Layout2
 70
     1
 71
     2
 10
0.0
 20
0.0
 11
0.0
 21
0.0
 12
0.0
 22
0.0
 32
0.0
 14
0.0
 24
0.0
 34
0.0
 15
0.0
 25
0.0
 35
0.0
146
0.0
 13
0.0
 23
0.0
 33
0.0
 16
1.0
 26
0.0
 36
0.0
 17
0.0
 27
1.0
 37
0.0
 76
     0
330
23
  0
LAYOUT
  5
22
102
{ACAD_REACTORS
330
1A
102
}
330
1A
100
AcDbPlotSettings
  1

  2
none_device
  4
ANSI_A_(11.00_x_8.50_Inches)
  6

 40
6.35
 41
19.05
 42
6.35000508
 43
19.05000254
 44
279.4
 45
215.9
 46
133.34999746
 47
88.89999873
 48
0.0
 49
0.0
140
0.0
141
0.0
142
0.0414124016
143
1.0
 70
  1696
 72
     0
 73
     0
 74
     0
  7

 75
     0
147
0.0179189148
148
-1300.4909072572
149
0.0
100
AcDbLayout
  1
Model
 70
     1
 71
     0
 10
0.0
 20
0.0
 11
420.0
 21
297.0
 12
0.0
 22
0.0
 32
0.0
 14
-127.0
 24
-101.6
 34
0.0
 15
127.0
 25
101.6
 35
0.0
146
0.0
 13
0.0
 23
0.0
 33
0.0
 16
1.0
 26
0.0
 36
0.0
 17
0.0
 27
1.0
 37
0.0
 76
     0
330
1F
331
29
  0
MLINESTYLE
  5
18
102
{ACAD_REACTORS
330
17
102
}
330
17
100
AcDbMlineStyle
  2
Standard
 70
     0
  3

 62
   256
 51
90.0
 52
90.0
 71
     2
 49
0.5
 62
   256
  6
BYLAYER
 49
-0.5
 62
   256
  6
BYLAYER
  0
ACDBPLACEHOLDER
  5
F
102
{ACAD_REACTORS
330
E
102
}
330
E
  0
SCALE
  5
48
102
{ACAD_REACTORS
330
47
102
}
330
47
100
AcDbScale
 70
     0
300
1:1
140
1.0
141
1.0
290
     1
  0
SCALE
  5
49
102
{ACAD_REACTORS
330
47
102
}
330
47
100
AcDbScale
 70
     0
300
1:2
140
1.0
141
2.0
290
     0
  0
SCALE
  5
4A
102
{ACAD_REACTORS
330
47
102
}
330
47
100
AcDbScale
 70
     0
300
1:4
140
1.0
141
4.0
290
     0
  0
SCALE
  5
4B
102
{ACAD_REACTORS
330
47
102
}
330
47
100
AcDbScale
 70
     0
300
1:5
140
1.0
141
5.0
290
     0
  0
SCALE
  5
4C
102
{ACAD_REACTORS
330
47
102
}
330
47
100
AcDbScale
 70
     0
300
1:8
140
1.0
141
8.0
290
     0
  0
SCALE
  5
4D
102
{ACAD_REACTORS
330
47
102
}
330
47
100
AcDbScale
 70
     0
300
1:10
140
1.0
141
10.0
290
     0
  0
SCALE
  5
4E
102
{ACAD_REACTORS
330
47
102
}
330
47
100
AcDbScale
 70
     0
300
1:16
140
1.0
141
16.0
290
     0
  0
SCALE
  5
4F
102
{ACAD_REACTORS
330
47
102
}
330
47
100
AcDbScale
 70
     0
300
1:20
140
1.0
141
20.0
290
     0
  0
SCALE
  5
50
102
{ACAD_REACTORS
330
47
102
}
330
47
100
AcDbScale
 70
     0
300
1:30
140
1.0
141
30.0
290
     0
  0
SCALE
  5
51
102
{ACAD_REACTORS
330
47
102
}
330
47
100
AcDbScale
 70
     0
300
1:40
140
1.0
141
40.0
290
     0
  0
SCALE
  5
52
102
{ACAD_REACTORS
330
47
102
}
330
47
100
AcDbScale
 70
     0
300
1:50
140
1.0
141
50.0
290
     0
  0
SCALE
  5
53
102
{ACAD_REACTORS
330
47
102
}
330
47
100
AcDbScale
 70
     0
300
1:100
140
1.0
141
100.0
290
     0
  0
SCALE
  5
54
102
{ACAD_REACTORS
330
47
102
}
330
47
100
AcDbScale
 70
     0
300
2:1
140
2.0
141
1.0
290
     0
  0
SCALE
  5
55
102
{ACAD_REACTORS
330
47
102
}
330
47
100
AcDbScale
 70
     0
300
4:1
140
4.0
141
1.0
290
     0
  0
SCALE
  5
56
102
{ACAD_REACTORS
330
47
102
}
330
47
100
AcDbScale
 70
     0
300
8:1
140
8.0
141
1.0
290
     0
  0
SCALE
  5
57
102
{ACAD_REACTORS
330
47
102
}
330
47
100
AcDbScale
 70
     0
300
10:1
140
10.0
141
1.0
290
     0
  0
SCALE
  5
58
102
{ACAD_REACTORS
330
47
102
}
330
47
100
AcDbScale
 70
     0
300
100:1
140
100.0
141
1.0
290
     0
  0
SCALE
  5
59
102
{ACAD_REACTORS
330
47
102
}
330
47
100
AcDbScale
 70
     0
300
1/128" = 1'-0"
140
0.0078125
141
12.0
290
     0
  0
SCALE
  5
5A
102
{ACAD_REACTORS
330
47
102
}
330
47
100
AcDbScale
 70
     0
300
1/64" = 1'-0"
140
0.015625
141
12.0
290
     0
  0
SCALE
  5
5B
102
{ACAD_REACTORS
330
47
102
}
330
47
100
AcDbScale
 70
     0
300
1/32" = 1'-0"
140
0.03125
141
12.0
290
     0
  0
SCALE
  5
5C
102
{ACAD_REACTORS
330
47
102
}
330
47
100
AcDbScale
 70
     0
300
1/16" = 1'-0"
140
0.0625
141
12.0
290
     0
  0
SCALE
  5
5D
102
{ACAD_REACTORS
330
47
102
}
330
47
100
AcDbScale
 70
     0
300
3/32" = 1'-0"
140
0.09375
141
12.0
290
     0
  0
SCALE
  5
5E
102
{ACAD_REACTORS
330
47
102
}
330
47
100
AcDbScale
 70
     0
300
1/8" = 1'-0"
140
0.125
141
12.0
290
     0
  0
SCALE
  5
5F
102
{ACAD_REACTORS
330
47
102
}
330
47
100
AcDbScale
 70
     0
300
3/16" = 1'-0"
140
0.1875
141
12.0
290
     0
  0
SCALE
  5
60
102
{ACAD_REACTORS
330
47
102
}
330
47
100
AcDbScale
 70
     0
300
1/4" = 1'-0"
140
0.25
141
12.0
290
     0
  0
SCALE
  5
61
102
{ACAD_REACTORS
330
47
102
}
330
47
100
AcDbScale
 70
     0
300
3/8" = 1'-0"
140
0.375
141
12.0
290
     0
  0
SCALE
  5
62
102
{ACAD_REACTORS
330
47
102
}
330
47
100
AcDbScale
 70
     0
300
1/2" = 1'-0"
140
0.5
141
12.0
290
     0
  0
SCALE
  5
63
102
{ACAD_REACTORS
330
47
102
}
330
47
100
AcDbScale
 70
     0
300
3/4" = 1'-0"
140
0.75
141
12.0
290
     0
  0
SCALE
  5
64
102
{ACAD_REACTORS
330
47
102
}
330
47
100
AcDbScale
 70
     0
300
1" = 1'-0"
140
1.0
141
12.0
290
     0
  0
SCALE
  5
65
102
{ACAD_REACTORS
330
47
102
}
330
47
100
AcDbScale
 70
     0
300
1-1/2" = 1'-0"
140
1.5
141
12.0
290
     0
  0
SCALE
  5
66
102
{ACAD_REACTORS
330
47
102
}
330
47
100
AcDbScale
 70
     0
300
3" = 1'-0"
140
3.0
141
12.0
290
     0
  0
SCALE
  5
67
102
{ACAD_REACTORS
330
47
102
}
330
47
100
AcDbScale
 70
     0
300
6" = 1'-0"
140
6.0
141
12.0
290
     0
  0
SCALE
  5
68
102
{ACAD_REACTORS
330
47
102
}
330
47
100
AcDbScale
 70
     0
300
1'-0" = 1'-0"
140
12.0
141
12.0
290
     0
  0
ENDSEC
  0
EOF
