  0
SECTION
  2
HEADER
  9
$ACADVER
  1
AC1015
  9
$ACADMAINTVER
 70
     6
  9
$DWGCODEPAGE
  3
ANSI_1252
  9
$INSBASE
 10
0.0
 20
0.0
 30
0.0
  9
$EXTMIN
 10
0.0
 20
0.0
 30
0.0
  9
$EXTMAX
 10
30.0
 20
5.0
 30
0.0
  9
$LIMMIN
 10
0.0
 20
0.0
  9
$LIMMAX
 10
420.0
 20
297.0
  9
$ORTHOMODE
 70
     0
  9
$REGENMODE
 70
     1
  9
$FILLMODE
 70
     1
  9
$QTEXTMODE
 70
     0
  9
$MIRRTEXT
 70
     1
  9
$LTSCALE
 40
1.0
  9
$ATTMODE
 70
     1
  9
$TEXTSIZE
 40
0.35
  9
$TRACEWID
 40
1.0
  9
$TEXTSTYLE
  7
Standard
  9
$CLAYER
  8
0
  9
$CELTYPE
  6
ByLayer
  9
$CECOLOR
 62
   256
  9
$CELTSCALE
 40
1.0
  9
$DISPSILH
 70
     0
  9
$DIMSCALE
 40
1.0
  9
$DIMASZ
 40
0.3302
  9
$DIMEXO
 40
0.1
  9
$DIMDLI
 40
3.75
  9
$DIMRND
 40
0.0
  9
$DIMDLE
 40
0.0
  9
$DIMEXE
 40
0.1
  9
$DIMTP
 40
0.0
  9
$DIMTM
 40
0.0
  9
$DIMTXT
 40
0.35
  9
$DIMCEN
 40
2.5
  9
$DIMTSZ
 40
0.0
  9
$DIMTOL
 70
     0
  9
$DIMLIM
 70
     0
  9
$DIMTIH
 70
     1
  9
$DIMTOH
 70
     1
  9
$DIMSE1
 70
     0
  9
$DIMSE2
 70
     0
  9
$DIMTAD
 70
     1
  9
$DIMZIN
 70
     1
  9
$DIMBLK
  1

  9
$DIMASO
 70
     1
  9
$DIMSHO
 70
     1
  9
$DIMPOST
  1

  9
$DIMAPOST
  1

  9
$DIMALT
 70
     0
  9
$DIMALTD
 70
     3
  9
$DIMALTF
 40
0.3937007874
  9
$DIMLFAC
 40
1.0
  9
$DIMTOFL
 70
     1
  9
$DIMTVP
 40
0.0
  9
$DIMTIX
 70
     0
  9
$DIMSOXD
 70
     0
  9
$DIMSAH
 70
     0
  9
$DIMBLK1
  1

  9
$DIMBLK2
  1

  9
$DIMSTYLE
  2
ISO-25
  9
$DIMCLRD
 70
     0
  9
$DIMCLRE
 70
     0
  9
$DIMCLRT
 70
     0
  9
$DIMTFAC
 40
1.0
  9
$DIMGAP
 40
0.1524
  9
$DIMJUST
 70
     0
  9
$DIMSD1
 70
     0
  9
$DIMSD2
 70
     0
  9
$DIMTOLJ
 70
     0
  9
$DIMTZIN
 70
     1
  9
$DIMALTZ
 70
     0
  9
$DIMALTTZ
 70
     0
  9
$DIMUPT
 70
     0
  9
$DIMDEC
 70
     2
  9
$DIMTDEC
 70
     2
  9
$DIMALTU
 70
     2
  9
$DIMALTTD
 70
     3
  9
$DIMTXSTY
  7
Standard
  9
$DIMAUNIT
 70
     0
  9
$DIMADEC
 70
     2
  9
$DIMALTRND
 40
0.0
  9
$DIMAZIN
 70
     0
  9
$DIMDSEP
 70
    44
  9
$DIMATFIT
 70
     3
  9
$DIMFRAC
 70
     0
  9
$DIMLDRBLK
  1

  9
$DIMLUNIT
 70
     2
  9
$DIMLWD
 70
    -2
  9
$DIMLWE
 70
    -2
  9
$DIMTMOVE
 70
     0
  9
$LUNITS
 70
     2
  9
$LUPREC
 70
     8
  9
$SKETCHINC
 40
1.0
  9
$FILLETRAD
 40
10.0
  9
$AUNITS
 70
     0
  9
$AUPREC
 70
     2
  9
$MENU
  1
.
  9
$ELEVATION
 40
0.0
  9
$PELEVATION
 40
0.0
  9
$THICKNESS
 40
0.0
  9
$LIMCHECK
 70
     0
  9
$CHAMFERA
 40
0.0
  9
$CHAMFERB
 40
0.0
  9
$CHAMFERC
 40
0.0
  9
$CHAMFERD
 40
0.0
  9
$SKPOLY
 70
     0
  9
$TDCREATE
 40
2458301.615817963
  9
$TDUCREATE
 40
2458301.78248463
  9
$TDUPDATE
 40
2458301.615846991
  9
$TDUUPDATE
 40
2458301.782513658
  9
$TDINDWG
 40
0.0000000116
  9
$TDUSRTIMER
 40
0.0000000116
  9
$USRTIMER
 70
     1
  9
$ANGBASE
 50
0.0
  9
$ANGDIR
 70
     0
  9
$PDMODE
 70
     0
  9
$PDSIZE
 40
-1.0
  9
$PLINEWID
 40
0.0
  9
$SPLFRAME
 70
     0
  9
$SPLINETYPE
 70
     6
  9
$SPLINESEGS
 70
     8
  9
$HANDSEED
  5
1D9
  9
$SURFTAB1
 70
     6
  9
$SURFTAB2
 70
     6
  9
$SURFTYPE
 70
     6
  9
$SURFU
 70
     6
  9
$SURFV
 70
     6
  9
$UCSBASE
  2

  9
$UCSNAME
  2

  9
$UCSORG
 10
0.0
 20
0.0
 30
0.0
  9
$UCSXDIR
 10
1.0
 20
0.0
 30
0.0
  9
$UCSYDIR
 10
0.0
 20
1.0
 30
0.0
  9
$UCSORTHOREF
  2

  9
$UCSORTHOVIEW
 70
     0
  9
$UCSORGTOP
 10
0.0
 20
0.0
 30
0.0
  9
$UCSORGBOTTOM
 10
0.0
 20
0.0
 30
0.0
  9
$UCSORGLEFT
 10
0.0
 20
0.0
 30
0.0
  9
$UCSORGRIGHT
 10
0.0
 20
0.0
 30
0.0
  9
$UCSORGFRONT
 10
0.0
 20
0.0
 30
0.0
  9
$UCSORGBACK
 10
0.0
 20
0.0
 30
0.0
  9
$PUCSBASE
  2

  9
$PUCSNAME
  2

  9
$PUCSORG
 10
0.0
 20
0.0
 30
0.0
  9
$PUCSXDIR
 10
1.0
 20
0.0
 30
0.0
  9
$PUCSYDIR
 10
0.0
 20
1.0
 30
0.0
  9
$PUCSORTHOREF
  2

  9
$PUCSORTHOVIEW
 70
     0
  9
$PUCSORGTOP
 10
0.0
 20
0.0
 30
0.0
  9
$PUCSORGBOTTOM
 10
0.0
 20
0.0
 30
0.0
  9
$PUCSORGLEFT
 10
0.0
 20
0.0
 30
0.0
  9
$PUCSORGRIGHT
 10
0.0
 20
0.0
 30
0.0
  9
$PUCSORGFRONT
 10
0.0
 20
0.0
 30
0.0
  9
$PUCSORGBACK
 10
0.0
 20
0.0
 30
0.0
  9
$USERI1
 70
     0
  9
$USERI2
 70
     0
  9
$USERI3
 70
     0
  9
$USERI4
 70
     0
  9
$USERI5
 70
     0
  9
$USERR1
 40
0.0
  9
$USERR2
 40
0.0
  9
$USERR3
 40
0.0
  9
$USERR4
 40
0.0
  9
$USERR5
 40
0.0
  9
$WORLDVIEW
 70
     1
  9
$SHADEDGE
 70
     3
  9
$SHADEDIF
 70
    70
  9
$TILEMODE
 70
     1
  9
$MAXACTVP
 70
    64
  9
$PINSBASE
 10
0.0
 20
0.0
 30
0.0
  9
$PLIMCHECK
 70
     0
  9
$PEXTMIN
 10
1.0000000000E+20
 20
1.0000000000E+20
 30
1.0000000000E+20
  9
$PEXTMAX
 10
-1.0000000000E+20
 20
-1.0000000000E+20
 30
-1.0000000000E+20
  9
$PLIMMIN
 10
0.0
 20
0.0
  9
$PLIMMAX
 10
420.0
 20
297.0
  9
$UNITMODE
 70
     0
  9
$VISRETAIN
 70
     1
  9
$PLINEGEN
 70
     0
  9
$PSLTSCALE
 70
     1
  9
$TREEDEPTH
 70
  3020
  9
$CMLSTYLE
  2
Standard
  9
$CMLJUST
 70
     0
  9
$CMLSCALE
 40
20.0
  9
$PROXYGRAPHICS
 70
     1
  9
$MEASUREMENT
 70
     1
  9
$CELWEIGHT
370
    -1
  9
$ENDCAPS
280
     0
  9
$JOINSTYLE
280
     0
  9
$LWDISPLAY
290
     1
  9
$INSUNITS
 70
     4
  9
$HYPERLINKBASE
  1

  9
$STYLESHEET
  1

  9
$XEDIT
290
     1
  9
$CEPSNTYPE
380
     0
  9
$PSTYLEMODE
290
     1
  9
$FINGERPRINTGUID
  2
{5C85A74B-48C4-4DE4-921C-17CA913596F6}
  9
$VERSIONGUID
  2
{FAEB1C32-E019-11D5-929B-00C0DF256EC4}
  9
$EXTNAMES
290
     1
  9
$PSVPSCALE
 40
0.0
  9
$OLESTARTUP
290
     0
  0
ENDSEC
  0
SECTION
  2
CLASSES
  0
CLASS
  1
ACDBDICTIONARYWDFLT
  2
AcDbDictionaryWithDefault
  3
ObjectDBX Classes
 90
        0
280
     0
281
     0
  0
CLASS
  1
VISUALSTYLE
  2
AcDbVisualStyle
  3
ObjectDBX Classes
 90
     4095
280
     0
281
     0
  0
CLASS
  1
MATERIAL
  2
AcDbMaterial
  3
ObjectDBX Classes
 90
     1153
280
     0
281
     0
  0
CLASS
  1
SCALE
  2
AcDbScale
  3
ObjectDBX Classes
 90
     1153
280
     0
281
     0
  0
CLASS
  1
TABLESTYLE
  2
AcDbTableStyle
  3
ObjectDBX Classes
 90
     4095
280
     0
281
     0
  0
CLASS
  1
MLEADERSTYLE
  2
AcDbMLeaderStyle
  3
ACDB_MLEADERSTYLE_CLASS
 90
     4095
280
     0
281
     0
  0
CLASS
  1
SUN
  2
AcDbSun
  3
SCENEOE
 90
     1153
280
     0
281
     0
  0
CLASS
  1
ACDBPLACEHOLDER
  2
AcDbPlaceHolder
  3
ObjectDBX Classes
 90
        0
280
     0
281
     0
  0
CLASS
  1
LAYOUT
  2
AcDbLayout
  3
ObjectDBX Classes
 90
        0
280
     0
281
     0
  0
ENDSEC
  0
SECTION
  2
TABLES
  0
TABLE
  2
VPORT
  5
8
330
0
100
AcDbSymbolTable
 70
     1
  0
VPORT
  5
29
330
8
100
AcDbSymbolTableRecord
100
AcDbViewportTableRecord
  2
*Active
 70
     0
 10
0.0
 20
0.0
 11
1.0
 21
1.0
 12
15.0
 22
2.5
 13
0.0
 23
0.0
 14
10.0
 24
10.0
 15
10.0
 25
10.0
 16
0.0
 26
0.0
 36
1.0
 17
0.0
 27
0.0
 37
0.0
 40
5.1
 41
6.0
 42
50.0
 43
0.0
 44
0.0
 50
0.0
 51
0.0
 71
     0
 72
   100
 73
     1
 74
     3
 75
     0
 76
     0
 77
     0
 78
     0
281
     0
 65
     1
110
0.0
120
0.0
130
0.0
111
1.0
121
0.0
131
0.0
112
0.0
122
1.0
132
0.0
 79
     0
146
0.0
  0
ENDTAB
  0
TABLE
  2
LTYPE
  5
5
330
0
100
AcDbSymbolTable
 70
     6
  0
LTYPE
  5
14
330
5
100
AcDbSymbolTableRecord
100
AcDbLinetypeTableRecord
  2
ByBlock
 70
     0
  3

 72
    65
 73
     0
 40
0.0
  0
LTYPE
  5
15
330
5
100
AcDbSymbolTableRecord
100
AcDbLinetypeTableRecord
  2
ByLayer
 70
     0
  3

 72
    65
 73
     0
 40
0.0
  0
LTYPE
  5
16
330
5
100
AcDbSymbolTableRecord
100
AcDbLinetypeTableRecord
  2
Continuous
 70
     0
  3
Solid line
 72
    65
 73
     0
 40
0.0
  0
LTYPE
  5
6E
330
5
100
AcDbSymbolTableRecord
100
AcDbLinetypeTableRecord
  2
HIDDEN
 70
     0
  3
Hidden __ __ __ __ __ __ __ __ __ __ __ __ __ __
 72
    65
 73
     2
 40
0.1905
 49
0.127
 74
     0
 49
-0.0635
 74
     0
  0
LTYPE
  5
6F
330
5
100
AcDbSymbolTableRecord
100
AcDbLinetypeTableRecord
  2
PHANTOM
 70
     0
  3
Phantom ______  __  __  ______  __  __  ______
 72
    65
 73
     6
 40
1.27
 49
0.635
 74
     0
 49
-0.127
 74
     0
 49
0.127
 74
     0
 49
-0.127
 74
     0
 49
0.127
 74
     0
 49
-0.127
 74
     0
  0
LTYPE
  5
70
330
5
100
AcDbSymbolTableRecord
100
AcDbLinetypeTableRecord
  2
CENTER
 70
     0
  3
Center ____ _ ____ _ ____ _ ____ _ ____ _ ____
 72
    65
 73
     4
 40
1.016
 49
0.635
 74
     0
 49
-0.127
 74
     0
 49
0.127
 74
     0
 49
-0.127
 74
     0
  0
LTYPE
  5
71
330
5
100
AcDbSymbolTableRecord
100
AcDbLinetypeTableRecord
  2
CENTERX2
 70
     0
  3
Center (2x) ________  __  ________  __  _____
 72
    65
 73
     4
 40
2.032
 49
1.27
 74
     0
 49
-0.254
 74
     0
 49
0.254
 74
     0
 49
-0.254
 74
     0
  0
LTYPE
  5
72
330
5
100
AcDbSymbolTableRecord
100
AcDbLinetypeTableRecord
  2
DOT2
 70
     0
  3
Dot (.5x) ........................................
 72
    65
 73
     2
 40
0.0635
 49
0.0
 74
     0
 49
-0.0635
 74
     0
  0
ENDTAB
  0
TABLE
  2
LAYER
  5
2
330
0
100
AcDbSymbolTable
 70
     1
  0
LAYER
  5
10
330
2
100
AcDbSymbolTableRecord
100
AcDbLayerTableRecord
  2
0
 70
     0
 62
     7
  6
Continuous
370
    -3
390
F
  0
ENDTAB
  0
TABLE
  2
STYLE
  5
3
330
0
100
AcDbSymbolTable
 70
     1
  0
STYLE
  5
11
330
3
100
AcDbSymbolTableRecord
100
AcDbTextStyleTableRecord
  2
Standard
 70
     0
 40
0.0
 41
1.0
 50
0.0
 71
     0
 42
0.35
  3
txt
  4

  0
ENDTAB
  0
TABLE
  2
VIEW
  5
6
330
0
100
AcDbSymbolTable
 70
     0
  0
ENDTAB
  0
TABLE
  2
UCS
  5
7
330
0
100
AcDbSymbolTable
 70
     0
  0
ENDTAB
  0
TABLE
  2
APPID
  5
9
330
0
100
AcDbSymbolTable
 70
     1
  0
APPID
  5
12
330
9
100
AcDbSymbolTableRecord
100
AcDbRegAppTableRecord
  2
ACAD
 70
     0
  0
ENDTAB
  0
TABLE
  2
DIMSTYLE
  5
A
330
0
100
AcDbSymbolTable
 70
     1
100
AcDbDimStyleTable
  0
DIMSTYLE
105
27
330
A
100
AcDbSymbolTableRecord
100
AcDbDimStyleTableRecord
  2
ISO-25
 70
     0
 41
2.5
 42
0.625
 43
3.75
 44
1.25
 73
     0
 74
     0
 77
     1
 78
     8
140
2.5
141
2.5
143
0.0393700787
147
0.625
171
     3
172
     1
178
     0
271
     2
272
     2
274
     3
278
    44
283
     0
284
     8
340
11
  0
ENDTAB
  0
TABLE
  2
BLOCK_RECORD
  5
1
330
0
100
AcDbSymbolTable
 70
     1
  0
BLOCK_RECORD
  5
1F
330
1
100
AcDbSymbolTableRecord
100
AcDbBlockTableRecord
  2
*Model_Space
340
22
  0
BLOCK_RECORD
  5
1B
330
1
100
AcDbSymbolTableRecord
100
AcDbBlockTableRecord
  2
*Paper_Space
340
1E
  0
BLOCK_RECORD
  5
23
330
1
100
AcDbSymbolTableRecord
100
AcDbBlockTableRecord
  2
*Paper_Space0
340
26
  0
ENDTAB
  0
ENDSEC
  0
SECTION
  2
BLOCKS
  0
BLOCK
  5
20
330
1F
100
AcDbEntity
  8
0
100
AcDbBlockBegin
  2
*Model_Space
 70
     0
 10
0.0
 20
0.0
 30
0.0
  3
*Model_Space
  1

  0
ENDBLK
  5
21
330
1F
100
AcDbEntity
  8
0
100
AcDbBlockEnd
  0
BLOCK
  5
1C
330
1B
100
AcDbEntity
 67
     1
  8
0
100
AcDbBlockBegin
  2
*Paper_Space
 70
     0
 10
0.0
 20
0.0
 30
0.0
  3
*Paper_Space
  1

  0
ENDBLK
  5
1D
330
1B
100
AcDbEntity
 67
     1
  8
0
100
AcDbBlockEnd
  0
BLOCK
  5
24
330
23
100
AcDbEntity
  8
0
100
AcDbBlockBegin
  2
*Paper_Space0
 70
     0
 10
0.0
 20
0.0
 30
0.0
  3
*Paper_Space0
  1

  0
ENDBLK
  5
25
330
23
100
AcDbEntity
  8
0
100
AcDbBlockEnd
  0
ENDSEC
  0
SECTION
  2
ENTITIES
  0
SPLINE
  5
76
330
1F
100
AcDbEntity
  8
0
  6
Continuous
 62
     7
370
    25
100
AcDbSpline
210
0.0
220
0.0
230
1.0
 70
     8
 71
     3
 72
    21
 73
    17
 74
     0
 42
0.000000001
 43
0.00000001
 40
0.0
 40
0.0
 40
0.0
 40
0.0
 40
0.1481099039642216
 40
0.2834111377086847
 40
0.3473298973787407
 40
0.4080164734869305
 40
0.4665361356180706
 40
0.5238711608478788
 40
0.5798789656630089
 40
0.6357582137558765
 40
0.6911959771072452
 40
0.7476673467919083
 40
0.8060331849590975
 40
0.8668726428551378
 40
0.9310300546049187
 40
1.0
 40
1.0
 40
1.0
 40
1.0
 10
11.78814764750883
 20
0.3778985507246379
 30
0.0
 10
11.79320486622046
 20
0.378061187527666
 30
0.0
 10
11.80288195107664
 20
0.3783723961649398
 30
0.0
 10
11.81459111897263
 20
0.3804765768242558
 30
0.0
 10
11.82312812084439
 20
0.3829515142629337
 30
0.0
 10
11.82883630119332
 20
0.3855176303761008
 30
0.0
 10
11.83423655323123
 20
0.3882115364236799
 30
0.0
 10
11.83904783610611
 20
0.3915950934559692
 30
0.0
 10
11.84346901266532
 20
0.3953239355352612
 30
0.0
 10
11.84734870283465
 20
0.3995339871739875
 30
0.0
 10
11.85072839047409
 20
0.4041740656890183
 30
0.0
 10
11.85350582177151
 20
0.40929506398454
 30
0.0
 10
11.85574786286604
 20
0.4148716224374502
 30
0.0
 10
11.85731335055271
 20
0.4209444911009469
 30
0.0
 10
11.85828609343051
 20
0.4275085786581426
 30
0.0
 10
11.85839328946676
 20
0.4320540649351626
 30
0.0
 10
11.85844882504506
 20
0.4344089673913046
 30
0.0
  0
SPLINE
  5
77
330
1F
100
AcDbEntity
  8
0
  6
Continuous
 62
     7
370
    25
100
AcDbSpline
210
0.0
220
0.0
230
1.0
 70
     8
 71
     3
 72
    21
 73
    17
 74
     0
 42
0.000000001
 43
0.00000001
 40
0.0
 40
0.0
 40
0.0
 40
0.0
 40
0.1048107603491785
 40
0.2057872535497627
 40
0.2552082568884602
 40
0.3053322017717666
 40
0.3546722312657896
 40
0.4066370344808481
 40
0.460842692156283
 40
0.5189640449736391
 40
0.5822085159551507
 40
0.6511354365166201
 40
0.7259770992546145
 40
0.8086500759068638
 40
0.9003756127111068
 40
1.0
 40
1.0
 40
1.0
 40
1.0
 10
11.85844882504506
 20
0.4344089673913046
 30
0.0
 10
11.85830325348173
 20
0.4378048449260229
 30
0.0
 10
11.858017435765
 20
0.4444723694142796
 30
0.0
 10
11.85596168899853
 20
0.452536973807717
 30
0.0
 10
11.85355417624155
 20
0.4585736503878068
 30
0.0
 10
11.85111736189387
 20
0.4627565534270559
 30
0.0
 10
11.84800412478872
 20
0.4665626652176458
 30
0.0
 10
11.84434609103947
 20
0.4700326321676163
 30
0.0
 10
11.84010834931811
 20
0.473269515386901
 30
0.0
 10
11.83511687346199
 20
0.476018072773237
 30
0.0
 10
11.829460265316
 20
0.4784681782958805
 30
0.0
 10
11.82310146108961
 20
0.4806032030477289
 30
0.0
 10
11.81597774174535
 20
0.4823576987499315
 30
0.0
 10
11.80800083479695
 20
0.4836164464991598
 30
0.0
 10
11.79914984066483
 20
0.4842904902707623
 30
0.0
 10
11.79295702090992
 20
0.4843758488046038
 30
0.0
 10
11.78973279243637
 20
0.4844202898550726
 30
0.0
  0
SPLINE
  5
7B
330
1F
100
AcDbEntity
  8
0
  6
Continuous
 62
     7
370
    25
100
AcDbSpline
210
0.0
220
0.0
230
1.0
 70
     8
 71
     3
 72
    23
 73
    19
 74
     0
 42
0.000000001
 43
0.00000001
 40
0.0
 40
0.0
 40
0.0
 40
0.0
 40
0.0710054063752087
 40
0.1375762152107341
 40
0.200303252704651
 40
0.2604031925983299
 40
0.3177152079427007
 40
0.3738306474914027
 40
0.4294997037542629
 40
0.4848811865589518
 40
0.5408363383570471
 40
0.59861083459385
 40
0.6580876144125914
 40
0.7194853567469174
 40
0.7841756976171598
 40
0.8520284023422316
 40
0.9241032974735244
 40
0.9999999999999999
 40
0.9999999999999999
 40
0.9999999999999999
 40
0.9999999999999999
 10
14.24757925982767
 20
0.4279891304347829
 30
0.0
 10
14.24754215150119
 20
0.4302898771631911
 30
0.0
 10
14.24747025242518
 20
0.4347476789449356
 30
0.0
 10
14.24667444699767
 20
0.441200494727257
 30
0.0
 10
14.24531268928033
 20
0.447191610289744
 30
0.0
 10
14.24349870541817
 20
0.4527432450051366
 30
0.0
 10
14.24123232523426
 20
0.4579077042590807
 30
0.0
 10
14.23822656529622
 20
0.4625069930976854
 30
0.0
 10
14.23483389073748
 20
0.46673865472418
 30
0.0
 10
14.2309150342721
 20
0.4704918850599087
 30
0.0
 10
14.22650162132818
 20
0.4737569147898982
 30
0.0
 10
14.22165247281054
 20
0.4765946412808166
 30
0.0
 10
14.21641254493177
 20
0.4790685312830442
 30
0.0
 10
14.21073055854618
 20
0.4810650540585729
 30
0.0
 10
14.2046138397724
 20
0.4825246859362867
 30
0.0
 10
14.19807943988176
 20
0.4836626993226997
 30
0.0
 10
14.19110662720138
 20
0.4842677209591945
 30
0.0
 10
14.18631442254882
 20
0.4843685653541239
 30
0.0
 10
14.18385643374071
 20
0.4844202898550726
 30
0.0
  0
SPLINE
  5
7C
330
1F
100
AcDbEntity
  8
0
  6
Continuous
 62
     7
370
    25
100
AcDbSpline
210
0.0
220
0.0
230
1.0
 70
     8
 71
     3
 72
    23
 73
    19
 74
     0
 42
0.000000001
 43
0.00000001
 40
0.0
 40
0.0
 40
0.0
 40
0.0
 40
0.0751634739249996
 40
0.1468242857502626
 40
0.2147004565817454
 40
0.2804081309117876
 40
0.343298983708923
 40
0.4037240268958697
 40
0.4619008746627907
 40
0.5192753134656113
 40
0.5756421721734729
 40
0.6321926367705162
 40
0.6886003484344242
 40
0.7462950936411833
 40
0.8063376960038237
 40
0.8679986302426649
 40
0.9323916198461182
 40
1.0
 40
1.0
 40
1.0
 40
1.0
 10
14.1777536257697
 20
0.3677536231884063
 30
0.0
 10
14.18037019705231
 20
0.3678003869251705
 30
0.0
 10
14.18548140585658
 20
0.3678917351810578
 30
0.0
 10
14.19293738772821
 20
0.3685692333333868
 30
0.0
 10
14.1999615751981
 20
0.3699058387763587
 30
0.0
 10
14.20662366241969
 20
0.3714864927322037
 30
0.0
 10
14.21282672377994
 20
0.3737282772053721
 30
0.0
 10
14.21853901347053
 20
0.3764404318265548
 30
0.0
 10
14.22385665871565
 20
0.3795111583923264
 30
0.0
 10
14.2285890454549
 20
0.3831980880848573
 30
0.0
 10
14.23292797283256
 20
0.3872522943813239
 30
0.0
 10
14.23672544825222
 20
0.3917783841570565
 30
0.0
 10
14.24002894878333
 20
0.3967355498888835
 30
0.0
 10
14.24269607249584
 20
0.4021914070356853
 30
0.0
 10
14.24497370741105
 20
0.4080238954352899
 30
0.0
 10
14.24640719188441
 20
0.414357004434085
 30
0.0
 10
14.2474173828691
 20
0.42103489399338
 30
0.0
 10
14.2475244316494
 20
0.4256337111167414
 30
0.0
 10
14.24757925982767
 20
0.4279891304347829
 30
0.0
  0
SPLINE
  5
80
330
1F
100
AcDbEntity
  8
0
  6
Continuous
 62
     7
370
    25
100
AcDbSpline
210
0.0
220
0.0
230
1.0
 70
     8
 71
     3
 72
    21
 73
    17
 74
     0
 42
0.000000001
 43
0.00000001
 40
0.0
 40
0.0
 40
0.0
 40
0.0
 40
0.1481099039642216
 40
0.2834111377086846
 40
0.3473298973787405
 40
0.4080164734869304
 40
0.4665361356180702
 40
0.5238711608478785
 40
0.5798789656630087
 40
0.6357582137558763
 40
0.6911959771072443
 40
0.747667346791908
 40
0.8060331849590965
 40
0.8668726428551377
 40
0.9310300546049178
 40
1.0
 40
1.0
 40
1.0
 40
1.0
 10
12.08742300982767
 20
0.3778985507246379
 30
0.0
 10
12.0924802285393
 20
0.378061187527666
 30
0.0
 10
12.10215731339548
 20
0.3783723961649398
 30
0.0
 10
12.11386648129147
 20
0.3804765768242558
 30
0.0
 10
12.12240348316323
 20
0.3829515142629337
 30
0.0
 10
12.12811166351216
 20
0.3855176303761008
 30
0.0
 10
12.13351191555007
 20
0.3882115364236799
 30
0.0
 10
12.13832319842495
 20
0.3915950934559695
 30
0.0
 10
12.14274437498416
 20
0.3953239355352612
 30
0.0
 10
12.14662406515349
 20
0.3995339871739875
 30
0.0
 10
12.15000375279292
 20
0.4041740656890183
 30
0.0
 10
12.15278118409035
 20
0.40929506398454
 30
0.0
 10
12.15502322518488
 20
0.4148716224374502
 30
0.0
 10
12.15658871287155
 20
0.4209444911009469
 30
0.0
 10
12.15756145574935
 20
0.427508578658143
 30
0.0
 10
12.1576686517856
 20
0.4320540649351626
 30
0.0
 10
12.1577241873639
 20
0.4344089673913046
 30
0.0
  0
SPLINE
  5
81
330
1F
100
AcDbEntity
  8
0
  6
Continuous
 62
     7
370
    25
100
AcDbSpline
210
0.0
220
0.0
230
1.0
 70
     8
 71
     3
 72
    21
 73
    17
 74
     0
 42
0.000000001
 43
0.00000001
 40
0.0
 40
0.0
 40
0.0
 40
0.0
 40
0.1048107603491785
 40
0.2057872535497627
 40
0.2552082568884593
 40
0.3053322017717666
 40
0.3546722312657896
 40
0.4066370344808481
 40
0.460842692156283
 40
0.5189640449736391
 40
0.5822085159551507
 40
0.6511354365166201
 40
0.7259770992546145
 40
0.8086500759068637
 40
0.9003756127111068
 40
1.0
 40
1.0
 40
1.0
 40
1.0
 10
12.1577241873639
 20
0.4344089673913046
 30
0.0
 10
12.15757861580057
 20
0.4378048449260229
 30
0.0
 10
12.15729279808384
 20
0.4444723694142796
 30
0.0
 10
12.15523705131737
 20
0.4525369738077173
 30
0.0
 10
12.15282953856039
 20
0.4585736503878068
 30
0.0
 10
12.1503927242127
 20
0.4627565534270559
 30
0.0
 10
12.14727948710755
 20
0.4665626652176458
 30
0.0
 10
12.14362145335831
 20
0.4700326321676163
 30
0.0
 10
12.13938371163695
 20
0.473269515386901
 30
0.0
 10
12.13439223578083
 20
0.476018072773237
 30
0.0
 10
12.12873562763484
 20
0.4784681782958805
 30
0.0
 10
12.12237682340845
 20
0.4806032030477289
 30
0.0
 10
12.11525310406418
 20
0.4823576987499315
 30
0.0
 10
12.10727619711579
 20
0.4836164464991598
 30
0.0
 10
12.09842520298367
 20
0.4842904902707623
 30
0.0
 10
12.09223238322876
 20
0.4843758488046038
 30
0.0
 10
12.0890081547552
 20
0.4844202898550726
 30
0.0
  0
SPLINE
  5
EF
330
1F
100
AcDbEntity
  8
0
  6
Continuous
 62
     7
370
    25
100
AcDbSpline
210
0.0
220
0.0
230
1.0
 70
     8
 71
     3
 72
    15
 73
    11
 74
     0
 42
0.000000001
 43
0.00000001
 40
0.0
 40
0.0
 40
0.0
 40
0.0
 40
0.1673918545869918
 40
0.3105326767827733
 40
0.4353739153206118
 40
0.548983950933732
 40
0.6555634230881607
 40
0.763161193582261
 40
0.8757123458119884
 40
1.0
 40
1.0
 40
1.0
 40
1.0
 10
14.21960145185665
 20
0.2842957427536236
 30
0.0
 10
14.21778287715889
 20
0.2881706773326227
 30
0.0
 10
14.21440919526606
 20
0.2953591621614911
 30
0.0
 10
14.20846910699262
 20
0.3047982497470042
 30
0.0
 10
14.20231682525711
 20
0.3124032892429851
 30
0.0
 10
14.19565250731607
 20
0.3182499766669702
 30
0.0
 10
14.18838195033495
 20
0.322515403059822
 30
0.0
 10
14.18045909390417
 20
0.3252750587709244
 30
0.0
 10
14.17176900301167
 20
0.3268792394571243
 30
0.0
 10
14.16571384471955
 20
0.3270724962468871
 30
0.0
 10
14.16253623446535
 20
0.3271739130434784
 30
0.0
  0
SPLINE
  5
F0
330
1F
100
AcDbEntity
  8
0
  6
Continuous
 62
     7
370
    25
100
AcDbSpline
210
0.0
220
0.0
230
1.0
 70
     8
 71
     3
 72
    15
 73
    11
 74
     0
 42
0.000000001
 43
0.00000001
 40
0.0
 40
0.0
 40
0.0
 40
0.0
 40
0.1113525621013424
 40
0.2209309255260326
 40
0.3311251909260254
 40
0.443649188274151
 40
0.5643761418057414
 40
0.6964797497374323
 40
0.842107901972889
 40
1.0
 40
1.0
 40
1.0
 40
1.0
 10
14.22538723084216
 20
0.3388247282608697
 30
0.0
 10
14.22771804968156
 20
0.3379698354607066
 30
0.0
 10
14.23234255004065
 20
0.3362736710078966
 30
0.0
 10
14.2387008799033
 20
0.332496498131947
 30
0.0
 10
14.24468112647452
 20
0.3281060750601507
 30
0.0
 10
14.2499109880992
 20
0.322495128457656
 30
0.0
 10
14.25502440234382
 20
0.3161752521599677
 30
0.0
 10
14.26009304496857
 20
0.3088930821468973
 30
0.0
 10
14.26524017447683
 20
0.3006752178064755
 30
0.0
 10
14.26848145282396
 20
0.2947493302427964
 30
0.0
 10
14.27016757504506
 20
0.2916666666666672
 30
0.0
  0
SPLINE
  5
F1
330
1F
100
AcDbEntity
  8
0
  6
Continuous
 62
     7
370
    25
100
AcDbSpline
210
0.0
220
0.0
230
1.0
 70
     8
 71
     3
 72
    19
 73
    15
 74
     0
 42
0.000000001
 43
0.00000001
 40
0.0
 40
0.0
 40
0.0
 40
0.0
 40
0.1285428623689031
 40
0.2501833658111107
 40
0.36764239581256
 40
0.4828550484702409
 40
0.5405033646233884
 40
0.5992328796241174
 40
0.6596398306386241
 40
0.7216651114752353
 40
0.7863724582546316
 40
0.8542028512456515
 40
0.925539377101121
 40
1.0
 40
1.0
 40
1.0
 40
1.0
 10
11.90917346272622
 20
0.44098731884058
 30
0.0
 10
11.90900897079834
 20
0.4364839579537295
 30
0.0
 10
11.90868881965647
 20
0.4277190528989391
 30
0.0
 10
11.90611222458066
 20
0.4150414464328092
 30
0.0
 10
11.90181112561178
 20
0.4033599144717397
 30
0.0
 10
11.89682612168047
 20
0.3944419603788874
 30
0.0
 10
11.89195537869557
 20
0.3879446482037391
 30
0.0
 10
11.88772510220673
 20
0.3834089651356384
 30
0.0
 10
11.88294898485665
 20
0.3792228659810999
 30
0.0
 10
11.87768665309397
 20
0.3753062702068818
 30
0.0
 10
11.8718711622397
 20
0.3717417593709607
 30
0.0
 10
11.86550661354381
 20
0.3684972848319458
 30
0.0
 10
11.85861730349662
 20
0.3655652339053399
 30
0.0
 10
11.85378407142285
 20
0.3639184705185424
 30
0.0
 10
11.85131567287115
 20
0.363077445652174
 30
0.0
  0
SPLINE
  5
F3
330
1F
100
AcDbEntity
  8
0
  6
Continuous
 62
     7
370
    25
100
AcDbSpline
210
0.0
220
0.0
230
1.0
 70
     8
 71
     3
 72
    23
 73
    19
 74
     0
 42
0.000000001
 43
0.00000001
 40
0.0
 40
0.0
 40
0.0
 40
0.0
 40
0.0868773302242187
 40
0.1675014716055805
 40
0.2427475008353538
 40
0.3126603416392964
 40
0.3779946034993795
 40
0.4397338850261037
 40
0.498505293618052
 40
0.5543760393236226
 40
0.6088184466666431
 40
0.6619725906622709
 40
0.715269575097525
 40
0.7692730547064742
 40
0.8244991354528809
 40
0.8807629267760524
 40
0.9393973148271861
 40
1.0
 40
1.0
 40
1.0
 40
1.0
 10
14.18338089026245
 20
0.5250000000000005
 30
0.0
 10
14.18827152514139
 20
0.524936636063289
 30
0.0
 10
14.1977007805892
 20
0.5248144689499749
 30
0.0
 10
14.21131572710111
 20
0.523526617340616
 30
0.0
 10
14.22386604212626
 20
0.5214490515771268
 30
0.0
 10
14.23533237584852
 20
0.5184095291003714
 30
0.0
 10
14.24579243329667
 20
0.5146954567219632
 30
0.0
 10
14.25528206054515
 20
0.5102570658892129
 30
0.0
 10
14.26380255270762
 20
0.5051200810791578
 30
0.0
 10
14.27132135810136
 20
0.499258738017766
 30
0.0
 10
14.2779682322974
 20
0.492862251044323
 30
0.0
 10
14.28354623217745
 20
0.4856973978241065
 30
0.0
 10
14.2882762860263
 20
0.4779801301501754
 30
0.0
 10
14.29198845392794
 20
0.4695927790946596
 30
0.0
 10
14.29480313832536
 20
0.4607009504313222
 30
0.0
 10
14.29690414219057
 20
0.451346795698137
 30
0.0
 10
14.29807711674478
 20
0.4415195091988965
 30
0.0
 10
14.2982274765696
 20
0.4348082264194686
 30
0.0
 10
14.29830389750883
 20
0.4313971920289858
 30
0.0
  0
SPLINE
  5
F5
330
1F
100
AcDbEntity
  8
0
  6
Continuous
 62
     7
370
    25
100
AcDbSpline
210
0.0
220
0.0
230
1.0
 70
     8
 71
     3
 72
    21
 73
    17
 74
     0
 42
0.000000001
 43
0.00000001
 40
0.0
 40
0.0
 40
0.0
 40
0.0
 40
0.1193489637753318
 40
0.2383531199390019
 40
0.2981936897039633
 40
0.356811294613695
 40
0.4157921536839357
 40
0.4750596628706906
 40
0.5350861696029621
 40
0.5959423628256225
 40
0.6578312767354689
 40
0.7218988600038786
 40
0.787837944341733
 40
0.8556139880323047
 40
0.9263566339288629
 40
1.0
 40
1.0
 40
1.0
 40
1.0
 10
11.85131567287115
 20
0.363077445652174
 30
0.0
 10
11.85582486121774
 20
0.3620011395048656
 30
0.0
 10
11.86483021054634
 20
0.3598516367349591
 30
0.0
 10
11.87543233638157
 20
0.3550821666907227
 30
0.0
 10
11.88344168129331
 20
0.3505275685890218
 30
0.0
 10
11.8890269321368
 20
0.3464913216804061
 30
0.0
 10
11.89427554267834
 20
0.3420676213915501
 30
0.0
 10
11.89912242346387
 20
0.3371252693239232
 30
0.0
 10
11.90357211811921
 20
0.3317317646311161
 30
0.0
 10
11.9075672976803
 20
0.3258610374287971
 30
0.0
 10
11.91093927330216
 20
0.3194415301245837
 30
0.0
 10
11.91401122190542
 20
0.3126552910232832
 30
0.0
 10
11.91635288665117
 20
0.3053373770707468
 30
0.0
 10
11.91812103298528
 20
0.297601623800876
 30
0.0
 10
11.91916018307006
 20
0.2894230753603094
 30
0.0
 10
11.91926495292163
 20
0.2838231516138077
 30
0.0
 10
11.91931839026245
 20
0.2809669384057973
 30
0.0
  0
SPLINE
  5
F7
330
1F
100
AcDbEntity
  8
0
  6
Continuous
 62
     7
370
    25
100
AcDbSpline
210
0.0
220
0.0
230
1.0
 70
     8
 71
     3
 72
    19
 73
    15
 74
     0
 42
0.000000001
 43
0.00000001
 40
0.0
 40
0.0
 40
0.0
 40
0.0
 40
0.128542862368903
 40
0.2501833658111106
 40
0.3676423958125599
 40
0.4828550484702407
 40
0.5405033646233887
 40
0.5992328796241175
 40
0.6596398306386239
 40
0.7216651114752352
 40
0.7863724582546314
 40
0.8542028512456515
 40
0.925539377101121
 40
1.0
 40
1.0
 40
1.0
 40
1.0
 10
12.20844882504506
 20
0.44098731884058
 30
0.0
 10
12.20828433311717
 20
0.4364839579537292
 30
0.0
 10
12.20796418197531
 20
0.4277190528989391
 30
0.0
 10
12.20538758689949
 20
0.4150414464328092
 30
0.0
 10
12.20108648793062
 20
0.4033599144717397
 30
0.0
 10
12.19610148399931
 20
0.3944419603788874
 30
0.0
 10
12.19123074101441
 20
0.3879446482037391
 30
0.0
 10
12.18700046452556
 20
0.3834089651356381
 30
0.0
 10
12.18222434717548
 20
0.3792228659810999
 30
0.0
 10
12.17696201541281
 20
0.3753062702068818
 30
0.0
 10
12.17114652455854
 20
0.3717417593709607
 30
0.0
 10
12.16478197586265
 20
0.3684972848319458
 30
0.0
 10
12.15789266581545
 20
0.3655652339053399
 30
0.0
 10
12.15305943374169
 20
0.3639184705185424
 30
0.0
 10
12.15059103518999
 20
0.363077445652174
 30
0.0
  0
SPLINE
  5
FA
330
1F
100
AcDbEntity
  8
0
  6
Continuous
 62
     7
370
    25
100
AcDbSpline
210
0.0
220
0.0
230
1.0
 70
     8
 71
     3
 72
    23
 73
    19
 74
     0
 42
0.000000001
 43
0.00000001
 40
0.0
 40
0.0
 40
0.0
 40
0.0
 40
0.0645442690844633
 40
0.1269342817600568
 40
0.1887265654101696
 40
0.2498083354624768
 40
0.3098390008115396
 40
0.3692223034933627
 40
0.4286832737432376
 40
0.4883798617340998
 40
0.5482501456441816
 40
0.6087657604725507
 40
0.6699858955025201
 40
0.7331387142663525
 40
0.797063286540131
 40
0.8628148123436654
 40
0.9303182490782674
 40
1.0
 40
1.0
 40
1.0
 40
1.0
 10
14.29830389750883
 20
0.4313971920289858
 30
0.0
 10
14.29824055818326
 20
0.4286470167369494
 30
0.0
 10
14.29811599357184
 20
0.4232384571489237
 30
0.0
 10
14.29720042860078
 20
0.4152416753925587
 30
0.0
 10
14.29581410772249
 20
0.4074646936717077
 30
0.0
 10
14.29373687562935
 20
0.3999435289963413
 30
0.0
 10
14.29111738800075
 20
0.3927074992533385
 30
0.0
 10
14.28795380977379
 20
0.3857623320937431
 30
0.0
 10
14.28411474917089
 20
0.3791847098114354
 30
0.0
 10
14.27976911853994
 20
0.3729061152754957
 30
0.0
 10
14.27482455836121
 20
0.3670279444671715
 30
0.0
 10
14.26936374651158
 20
0.3615303890940679
 30
0.0
 10
14.26325609356018
 20
0.3565425285696467
 30
0.0
 10
14.25673749761358
 20
0.3518559938672866
 30
0.0
 10
14.24962966518778
 20
0.3477093548654417
 30
0.0
 10
14.24200442480879
 20
0.3441662975432546
 30
0.0
 10
14.23390057928881
 20
0.3411184090854738
 30
0.0
 10
14.22825489558379
 20
0.3395973393751087
 30
0.0
 10
14.22538723084216
 20
0.3388247282608697
 30
0.0
  0
SPLINE
  5
FB
330
1F
100
AcDbEntity
  8
0
  6
Continuous
 62
     7
370
    25
100
AcDbSpline
210
0.0
220
0.0
230
1.0
 70
     8
 71
     3
 72
    21
 73
    17
 74
     0
 42
0.000000001
 43
0.00000001
 40
0.0
 40
0.0
 40
0.0
 40
0.0
 40
0.1193489637753418
 40
0.2383531199390214
 40
0.298193689703982
 40
0.3568112946137033
 40
0.4157921536839432
 40
0.4750596628706974
 40
0.5350861696029681
 40
0.5959423628256277
 40
0.6578312767354789
 40
0.7218988600038878
 40
0.7878379443417376
 40
0.8556139880323058
 40
0.9263566339288631
 40
1.0
 40
1.0
 40
1.0
 40
1.0
 10
12.74914175982767
 20
0.363077445652174
 30
0.0
 10
12.75365094817426
 20
0.3620011395048656
 30
0.0
 10
12.76265629750285
 20
0.3598516367349591
 30
0.0
 10
12.7732584233381
 20
0.355082166690723
 30
0.0
 10
12.78126776824984
 20
0.3505275685890222
 30
0.0
 10
12.78685301909332
 20
0.3464913216804058
 30
0.0
 10
12.79210162963486
 20
0.3420676213915501
 30
0.0
 10
12.79694851042039
 20
0.3371252693239232
 30
0.0
 10
12.80139820507573
 20
0.3317317646311161
 30
0.0
 10
12.80539338463682
 20
0.3258610374287964
 30
0.0
 10
12.80876536025868
 20
0.319441530124584
 30
0.0
 10
12.81183730886194
 20
0.3126552910232832
 30
0.0
 10
12.8141789736077
 20
0.3053373770707465
 30
0.0
 10
12.8159471199418
 20
0.297601623800876
 30
0.0
 10
12.81698627002658
 20
0.2894230753603094
 30
0.0
 10
12.81709103987815
 20
0.2838231516138077
 30
0.0
 10
12.81714447721897
 20
0.2809669384057973
 30
0.0
  0
SPLINE
  5
103
330
1F
100
AcDbEntity
  8
0
  6
Continuous
 62
     7
370
    25
100
AcDbSpline
210
0.0
220
0.0
230
1.0
 70
     8
 71
     3
 72
    15
 73
    11
 74
     0
 42
0.000000001
 43
0.00000001
 40
0.0
 40
0.0
 40
0.0
 40
0.0
 40
0.1215533759830962
 40
0.2468730645557185
 40
0.3746714108345275
 40
0.5031073905945963
 40
0.6316150506111072
 40
0.7582927467139946
 40
0.8812578156137535
 40
1.0
 40
1.0
 40
1.0
 40
1.0
 10
13.72004302794361
 20
0.1914062500000001
 30
0.0
 10
13.71623158183283
 20
0.1897209541267677
 30
0.0
 10
13.70849059254193
 20
0.1862981437478449
 30
0.0
 10
13.6963794810601
 20
0.181992019649695
 30
0.0
 10
13.68382921890368
 20
0.1782995057303352
 30
0.0
 10
13.6710067400711
 20
0.1751941468529195
 30
0.0
 10
13.65806423813259
 20
0.1728286462710386
 30
0.0
 10
13.64520174339354
 20
0.1712094738425061
 30
0.0
 10
13.63261531786682
 20
0.1700982207383326
 30
0.0
 10
13.62432895189715
 20
0.1699837645097461
 30
0.0
 10
13.62025815475521
 20
0.1699275362318842
 30
0.0
  0
SPLINE
  5
107
330
1F
100
AcDbEntity
  8
0
  6
Continuous
 62
     7
370
    25
100
AcDbSpline
210
0.0
220
0.0
230
1.0
 70
     8
 71
     3
 72
    15
 73
    11
 74
     0
 42
0.000000001
 43
0.00000001
 40
0.0
 40
0.0
 40
0.0
 40
0.0
 40
0.1181377071626481
 40
0.2453407520265933
 40
0.3782754322888153
 40
0.5101308509081547
 40
0.6425504600250563
 40
0.7708234786150147
 40
0.8918702657019352
 40
1.0
 40
1.0
 40
1.0
 40
1.0
 10
13.62517210403057
 20
0.2105072463768121
 30
0.0
 10
13.62694283682845
 20
0.2105452788062092
 30
0.0
 10
13.63062018021612
 20
0.2106242620965898
 30
0.0
 10
13.63627699149468
 20
0.2110414016519277
 30
0.0
 10
13.64212370104382
 20
0.2116436110122764
 30
0.0
 10
13.64800867490495
 20
0.2125563979430894
 30
0.0
 10
13.65381190284569
 20
0.2135350484351945
 30
0.0
 10
13.65939872057609
 20
0.2147869363598551
 30
0.0
 10
13.66455430043584
 20
0.2162611824303415
 30
0.0
 10
13.66779117350189
 20
0.2174136649183911
 30
0.0
 10
13.66931839026245
 20
0.217957427536232
 30
0.0
  0
SPLINE
  5
108
330
1F
100
AcDbEntity
  8
0
  6
Continuous
 62
     7
370
    25
100
AcDbSpline
210
0.0
220
0.0
230
1.0
 70
     8
 71
     3
 72
    23
 73
    19
 74
     0
 42
0.000000001
 43
0.00000001
 40
0.0
 40
0.0
 40
0.0
 40
0.0
 40
0.0670981242722592
 40
0.1309759062433309
 40
0.1922163869542912
 40
0.2517698083190378
 40
0.3096847194213515
 40
0.3665125233135276
 40
0.4235187108853582
 40
0.48037203242763
 40
0.5380321837013023
 40
0.5972742619707999
 40
0.6584306056386242
 40
0.7220421674016101
 40
0.7879120315897794
 40
0.8559727583910852
 40
0.9264611901366914
 40
1.0
 40
1.0
 40
1.0
 40
1.0
 10
13.63230525620448
 20
0.4894927536231886
 30
0.0
 10
13.62764793104497
 20
0.4893803128704164
 30
0.0
 10
13.6185568068138
 20
0.4891608279048859
 30
0.0
 10
13.60534187760168
 20
0.4871793954285358
 30
0.0
 10
13.59286488207718
 20
0.4841676224279997
 30
0.0
 10
13.58127568287664
 20
0.4796724129002825
 30
0.0
 10
13.57051624156648
 20
0.4741098619117347
 30
0.0
 10
13.56058811562688
 20
0.4674764860692265
 30
0.0
 10
13.5515488523458
 20
0.4597851723198338
 30
0.0
 10
13.54342630905666
 20
0.4510617040601933
 30
0.0
 10
13.53613282279604
 20
0.4414303763865979
 30
0.0
 10
13.52994070780431
 20
0.4307187074783441
 30
0.0
 10
13.52439626455365
 20
0.4192025167628385
 30
0.0
 10
13.51994739001942
 20
0.4067287873070508
 30
0.0
 10
13.51632450437653
 20
0.3934928878709252
 30
0.0
 10
13.51399519258093
 20
0.3794920992286427
 30
0.0
 10
13.51227529991657
 20
0.3648635229438799
 30
0.0
 10
13.51214072566331
 20
0.3548665689007305
 30
0.0
 10
13.51207201345086
 20
0.3497622282608699
 30
0.0
  0
SPLINE
  5
109
330
1F
100
AcDbEntity
  8
0
  6
Continuous
 62
     7
370
    25
100
AcDbSpline
210
0.0
220
0.0
230
1.0
 70
     8
 71
     3
 72
    13
 73
     9
 74
     0
 42
0.000000001
 43
0.00000001
 40
0.0
 40
0.0
 40
0.0
 40
0.0
 40
0.2432432115958513
 40
0.4850313067569412
 40
0.6072204693392884
 40
0.7333344144511441
 40
0.86470861093666
 40
1.0
 40
1.0
 40
1.0
 40
1.0
 10
13.72004302794361
 20
0.4692028985507249
 30
0.0
 10
13.7133092133126
 20
0.4721978826673769
 30
0.0
 10
13.69988186671364
 20
0.4781699344680649
 30
0.0
 10
13.68223728621136
 20
0.4835300698403954
 30
0.0
 10
13.66771783926771
 20
0.4866257150090619
 30
0.0
 10
13.65633304689912
 20
0.488266548608925
 30
0.0
 10
13.64447868083442
 20
0.4893380690237571
 30
0.0
 10
13.63640260898566
 20
0.4894406896072723
 30
0.0
 10
13.63230525620448
 20
0.4894927536231886
 30
0.0
  0
SPLINE
  5
10B
330
1F
100
AcDbEntity
  8
0
  6
Continuous
 62
     7
370
    25
100
AcDbSpline
210
0.0
220
0.0
230
1.0
 70
     8
 71
     3
 72
    23
 73
    19
 74
     0
 42
0.000000001
 43
0.00000001
 40
0.0
 40
0.0
 40
0.0
 40
0.0
 40
0.063326053531875
 40
0.123645410360316
 40
0.1812826135194399
 40
0.237976813126855
 40
0.2935407629237214
 40
0.3486816025440875
 40
0.4043209273922893
 40
0.4610035301292982
 40
0.519134775494041
 40
0.5793491400874623
 40
0.6418444293279368
 40
0.707870462664875
 40
0.7766051911033088
 40
0.847652663247901
 40
0.9221245276930562
 40
1.0
 40
1.0
 40
1.0
 40
1.0
 10
11.91931839026245
 20
0.2809669384057973
 30
0.0
 10
11.91919704868205
 20
0.2768385060575945
 30
0.0
 10
11.91896012677287
 20
0.2687776577436948
 30
0.0
 10
11.91710342587771
 20
0.2570775615959753
 30
0.0
 10
11.9140998995072
 20
0.2460746615700188
 30
0.0
 10
11.90980968360178
 20
0.2358303308190757
 30
0.0
 10
11.90434660143773
 20
0.2263643545770838
 30
0.0
 10
11.89800810986463
 20
0.2175397294332516
 30
0.0
 10
11.89048340859055
 20
0.2095922200568989
 30
0.0
 10
11.88195361019078
 20
0.2024440675299922
 30
0.0
 10
11.87246224249172
 20
0.1960795358995529
 30
0.0
 10
11.86203596972572
 20
0.1905480940365325
 30
0.0
 10
11.85068940944476
 20
0.1857609618786494
 30
0.0
 10
11.83843113309474
 20
0.1818367849543714
 30
0.0
 10
11.82536015017812
 20
0.1787809065057641
 30
0.0
 10
11.81156751965049
 20
0.176535375868777
 30
0.0
 10
11.79704696929753
 20
0.175304285647614
 30
0.0
 10
11.78711947981965
 20
0.1751029280661679
 30
0.0
 10
11.78204483953782
 20
0.1750000000000002
 30
0.0
  0
SPLINE
  5
110
330
1F
100
AcDbEntity
  8
0
  6
Continuous
 62
     7
370
    25
100
AcDbSpline
210
0.0
220
0.0
230
1.0
 70
     8
 71
     3
 72
    23
 73
    19
 74
     0
 42
0.000000001
 43
0.00000001
 40
0.0
 40
0.0
 40
0.0
 40
0.0
 40
0.0633260535318749
 40
0.1236454103603147
 40
0.1812826135194386
 40
0.2379768131268563
 40
0.2935407629237227
 40
0.3486816025440929
 40
0.4043209273922848
 40
0.4610035301292991
 40
0.5191347754940476
 40
0.5793491400874565
 40
0.6418444293279374
 40
0.7078704626648754
 40
0.7766051911033093
 40
0.8476526632479082
 40
0.9221245276930564
 40
1.0
 40
1.0
 40
1.0
 40
1.0
 10
12.81714447721897
 20
0.2809669384057973
 30
0.0
 10
12.81702313563857
 20
0.2768385060575945
 30
0.0
 10
12.81678621372939
 20
0.2687776577436952
 30
0.0
 10
12.81492951283423
 20
0.2570775615959749
 30
0.0
 10
12.81192598646372
 20
0.2460746615700185
 30
0.0
 10
12.8076357705583
 20
0.2358303308190764
 30
0.0
 10
12.80217268839424
 20
0.226364354577083
 30
0.0
 10
12.79583419682115
 20
0.2175397294332529
 30
0.0
 10
12.78830949554708
 20
0.2095922200568975
 30
0.0
 10
12.7797796971473
 20
0.2024440675299922
 30
0.0
 10
12.77028832944824
 20
0.196079535899554
 30
0.0
 10
12.75986205668224
 20
0.1905480940365314
 30
0.0
 10
12.74851549640128
 20
0.1857609618786501
 30
0.0
 10
12.73625722005126
 20
0.1818367849543711
 30
0.0
 10
12.72318623713464
 20
0.1787809065057641
 30
0.0
 10
12.70939360660701
 20
0.176535375868777
 30
0.0
 10
12.69487305625405
 20
0.175304285647614
 30
0.0
 10
12.68494556677617
 20
0.1751029280661679
 30
0.0
 10
12.67987092649433
 20
0.1750000000000002
 30
0.0
  0
SPLINE
  5
112
330
1F
100
AcDbEntity
  8
0
  6
Continuous
 62
     7
370
    25
100
AcDbSpline
210
0.0
220
0.0
230
1.0
 70
     8
 71
     3
 72
    23
 73
    19
 74
     0
 42
0.000000001
 43
0.00000001
 40
0.0
 40
0.0
 40
0.0
 40
0.0
 40
0.0776967714840029
 40
0.1509619938714879
 40
0.2212415611529963
 40
0.2875559640017772
 40
0.3508859543665424
 40
0.410876264688942
 40
0.4684338152580969
 40
0.5243810448878379
 40
0.5788733757496384
 40
0.6330758261547917
 40
0.6878469618937133
 40
0.7440192785931043
 40
0.8024561126406644
 40
0.8641267637851846
 40
0.9296015450136491
 40
1.0
 40
1.0
 40
1.0
 40
1.0
 10
13.51207201345086
 20
0.3497622282608699
 30
0.0
 10
13.51214546869598
 20
0.3444499794922611
 30
0.0
 10
13.5122881895588
 20
0.3341284738397947
 30
0.0
 10
13.51347064913821
 20
0.3190352608152702
 30
0.0
 10
13.515549415883
 20
0.3048326192468958
 30
0.0
 10
13.51824384670297
 20
0.2914202903639477
 30
0.0
 10
13.52196122517175
 20
0.2789794763486345
 30
0.0
 10
13.52656503447076
 20
0.2674836243736999
 30
0.0
 10
13.53204010116071
 20
0.256938336542999
 30
0.0
 10
13.53844502333736
 20
0.2473691991909863
 30
0.0
 10
13.54589521589036
 20
0.2388903882637662
 30
0.0
 10
13.55427972192028
 20
0.2314558253848759
 30
0.0
 10
13.56363757470655
 20
0.2250918287243362
 30
0.0
 10
13.57392631721822
 20
0.2197080334930959
 30
0.0
 10
13.58529944127999
 20
0.2156294943606755
 30
0.0
 10
13.5976408171712
 20
0.2125917398507465
 30
0.0
 10
13.61106973575118
 20
0.2108834156330106
 30
0.0
 10
13.62035910747861
 20
0.2106356291631046
 30
0.0
 10
13.62517210403057
 20
0.2105072463768117
 30
0.0
  0
SPLINE
  5
116
330
1F
100
AcDbEntity
  8
0
  6
Continuous
 62
     7
370
    25
100
AcDbSpline
210
0.0
220
0.0
230
1.0
 70
     8
 71
     3
 72
    23
 73
    19
 74
     0
 42
0.000000001
 43
0.00000001
 40
0.0
 40
0.0
 40
0.0
 40
0.0
 40
0.0633260535318748
 40
0.1236454103603157
 40
0.1812826135194397
 40
0.237976813126855
 40
0.2935407629237213
 40
0.3486816025440874
 40
0.4043209273922894
 40
0.4610035301292981
 40
0.5191347754940411
 40
0.5793491400874623
 40
0.6418444293279368
 40
0.707870462664875
 40
0.7766051911033088
 40
0.847652663247901
 40
0.9221245276930562
 40
1.0
 40
1.0
 40
1.0
 40
1.0
 10
12.21859375258129
 20
0.2809669384057973
 30
0.0
 10
12.21847241100089
 20
0.2768385060575945
 30
0.0
 10
12.21823548909171
 20
0.2687776577436948
 30
0.0
 10
12.21637878819655
 20
0.2570775615959753
 30
0.0
 10
12.21337526182604
 20
0.2460746615700188
 30
0.0
 10
12.20908504592061
 20
0.2358303308190757
 30
0.0
 10
12.20362196375656
 20
0.2263643545770838
 30
0.0
 10
12.19728347218346
 20
0.2175397294332512
 30
0.0
 10
12.18975877090939
 20
0.2095922200568989
 30
0.0
 10
12.18122897250962
 20
0.2024440675299922
 30
0.0
 10
12.17173760481056
 20
0.1960795358995529
 30
0.0
 10
12.16131133204457
 20
0.1905480940365325
 30
0.0
 10
12.14996477176359
 20
0.1857609618786494
 30
0.0
 10
12.13770649541358
 20
0.1818367849543714
 30
0.0
 10
12.12463551249696
 20
0.1787809065057641
 30
0.0
 10
12.11084288196932
 20
0.176535375868777
 30
0.0
 10
12.09632233161637
 20
0.175304285647614
 30
0.0
 10
12.08639484213849
 20
0.1751029280661679
 30
0.0
 10
12.08132020185665
 20
0.1750000000000002
 30
0.0
  0
SPLINE
  5
117
330
1F
100
AcDbEntity
  8
0
  6
Continuous
 62
     7
370
    25
100
AcDbSpline
210
0.0
220
0.0
230
1.0
 70
     8
 71
     3
 72
    23
 73
    19
 74
     0
 42
0.000000001
 43
0.00000001
 40
0.0
 40
0.0
 40
0.0
 40
0.0
 40
0.0867985091117865
 40
0.1680325757699607
 40
0.2438549343749081
 40
0.3151430648712645
 40
0.3818274405512921
 40
0.4445164656257105
 40
0.5035922754268303
 40
0.5594986595292208
 40
0.613331632684668
 40
0.6658467966471306
 40
0.7179152797095454
 40
0.770126404205044
 40
0.8240197862945519
 40
0.8797950640280655
 40
0.9382240930441981
 40
1.0
 40
1.0
 40
1.0
 40
1.0
 10
12.09091032866825
 20
0.5250000000000001
 30
0.0
 10
12.09566821250933
 20
0.5249535569362831
 30
0.0
 10
12.10487896376775
 20
0.524863648161318
 30
0.0
 10
12.11820597861787
 20
0.5237667014208868
 30
0.0
 10
12.1306316045726
 20
0.5222518721614299
 30
0.0
 10
12.14214317316475
 20
0.519989372561417
 30
0.0
 10
12.15271455431824
 20
0.5169308423643104
 30
0.0
 10
12.16244767896444
 20
0.5134405711288641
 30
0.0
 10
12.17120896788292
 20
0.5091426153146311
 30
0.0
 10
12.1790436489441
 20
0.5041958731774244
 30
0.0
 10
12.18602986349266
 20
0.498653573049359
 30
0.0
 10
12.19199719661898
 20
0.4923137465170646
 30
0.0
 10
12.19713068164879
 20
0.4853944546162469
 30
0.0
 10
12.20127814690939
 20
0.4777534501958822
 30
0.0
 10
12.20453902119693
 20
0.4694794930423379
 30
0.0
 10
12.20682288713526
 20
0.460533863099704
 30
0.0
 10
12.2081742111803
 20
0.4509622000133391
 30
0.0
 10
12.20835560358127
 20
0.4443734298251755
 30
0.0
 10
12.20844882504506
 20
0.44098731884058
 30
0.0
  0
SPLINE
  5
118
330
1F
100
AcDbEntity
  8
0
  6
Continuous
 62
     7
370
    25
100
AcDbSpline
210
0.0
220
0.0
230
1.0
 70
     8
 71
     3
 72
    19
 73
    15
 74
     0
 42
0.000000001
 43
0.00000001
 40
0.0
 40
0.0
 40
0.0
 40
0.0
 40
0.1285428623689014
 40
0.2501833658111048
 40
0.3676423958125573
 40
0.4828550484702301
 40
0.5405033646233929
 40
0.5992328796241211
 40
0.6596398306386171
 40
0.7216651114752382
 40
0.7863724582546224
 40
0.8542028512456532
 40
0.9255393771011097
 40
1.0
 40
1.0
 40
1.0
 40
1.0
 10
12.80699954968274
 20
0.44098731884058
 30
0.0
 10
12.80683505775486
 20
0.4364839579537295
 30
0.0
 10
12.80651490661299
 20
0.4277190528989394
 30
0.0
 10
12.80393831153719
 20
0.4150414464328088
 30
0.0
 10
12.7996372125683
 20
0.4033599144717407
 30
0.0
 10
12.794652208637
 20
0.3944419603788857
 30
0.0
 10
12.78978146565208
 20
0.3879446482037398
 30
0.0
 10
12.78555118916324
 20
0.3834089651356388
 30
0.0
 10
12.78077507181317
 20
0.3792228659810989
 30
0.0
 10
12.77551274005049
 20
0.3753062702068828
 30
0.0
 10
12.76969724919622
 20
0.3717417593709596
 30
0.0
 10
12.76333270050034
 20
0.3684972848319465
 30
0.0
 10
12.75644339045313
 20
0.3655652339053392
 30
0.0
 10
12.75161015837937
 20
0.3639184705185421
 30
0.0
 10
12.74914175982767
 20
0.363077445652174
 30
0.0
  0
SPLINE
  5
119
330
1F
100
AcDbEntity
  8
0
  6
Continuous
 62
     7
370
    25
100
AcDbSpline
210
0.0
220
0.0
230
1.0
 70
     8
 71
     3
 72
    23
 73
    19
 74
     0
 42
0.000000001
 43
0.00000001
 40
0.0
 40
0.0
 40
0.0
 40
0.0
 40
0.0867985091117865
 40
0.1680325757699608
 40
0.2438549343749081
 40
0.3151430648712645
 40
0.3818274405512921
 40
0.4445164656257105
 40
0.5035922754268303
 40
0.5594986595292208
 40
0.6133316326846675
 40
0.6658467966471308
 40
0.7179152797095454
 40
0.770126404205044
 40
0.8240197862945519
 40
0.8797950640280654
 40
0.9382240930441981
 40
1.0
 40
1.0
 40
1.0
 40
1.0
 10
11.79163496634941
 20
0.5250000000000005
 30
0.0
 10
11.79639285019049
 20
0.5249535569362831
 30
0.0
 10
11.80560360144891
 20
0.524863648161318
 30
0.0
 10
11.81893061629904
 20
0.5237667014208868
 30
0.0
 10
11.83135624225376
 20
0.5222518721614299
 30
0.0
 10
11.84286781084591
 20
0.519989372561417
 30
0.0
 10
11.85343919199941
 20
0.5169308423643107
 30
0.0
 10
11.8631723166456
 20
0.5134405711288638
 30
0.0
 10
11.87193360556408
 20
0.5091426153146315
 30
0.0
 10
11.87976828662526
 20
0.5041958731774244
 30
0.0
 10
11.88675450117383
 20
0.4986535730493596
 30
0.0
 10
11.89272183430015
 20
0.4923137465170646
 30
0.0
 10
11.89785531932995
 20
0.4853944546162469
 30
0.0
 10
11.90200278459055
 20
0.4777534501958822
 30
0.0
 10
11.90526365887809
 20
0.4694794930423383
 30
0.0
 10
11.90754752481642
 20
0.4605338630997036
 30
0.0
 10
11.90889884886146
 20
0.4509622000133391
 30
0.0
 10
11.90908024126244
 20
0.4443734298251755
 30
0.0
 10
11.90917346272622
 20
0.44098731884058
 30
0.0
  0
SPLINE
  5
11A
330
1F
100
AcDbEntity
  8
0
  6
Continuous
 62
     7
370
    25
100
AcDbSpline
210
0.0
220
0.0
230
1.0
 70
     8
 71
     3
 72
    23
 73
    19
 74
     0
 42
0.000000001
 43
0.00000001
 40
0.0
 40
0.0
 40
0.0
 40
0.0
 40
0.0867985091117857
 40
0.1680325757699678
 40
0.2438549343749145
 40
0.3151430648712786
 40
0.3818274405512976
 40
0.4445164656257233
 40
0.503592275426835
 40
0.559498659529218
 40
0.6133316326846642
 40
0.6658467966471385
 40
0.7179152797095528
 40
0.7701264042050429
 40
0.8240197862945503
 40
0.8797950640280656
 40
0.938224093044199
 40
1.0
 40
1.0
 40
1.0
 40
1.0
 10
12.68946105330593
 20
0.5250000000000005
 30
0.0
 10
12.69421893714701
 20
0.5249535569362831
 30
0.0
 10
12.70342968840543
 20
0.5248636481613185
 30
0.0
 10
12.71675670325556
 20
0.5237667014208868
 30
0.0
 10
12.72918232921028
 20
0.5222518721614299
 30
0.0
 10
12.74069389780244
 20
0.5199893725614178
 30
0.0
 10
12.75126527895593
 20
0.5169308423643101
 30
0.0
 10
12.76099840360212
 20
0.5134405711288644
 30
0.0
 10
12.7697596925206
 20
0.5091426153146311
 30
0.0
 10
12.77759437358178
 20
0.5041958731774244
 30
0.0
 10
12.78458058813035
 20
0.4986535730493583
 30
0.0
 10
12.79054792125666
 20
0.4923137465170657
 30
0.0
 10
12.79568140628647
 20
0.4853944546162472
 30
0.0
 10
12.79982887154707
 20
0.4777534501958814
 30
0.0
 10
12.80308974583461
 20
0.4694794930423379
 30
0.0
 10
12.80537361177294
 20
0.460533863099704
 30
0.0
 10
12.80672493581798
 20
0.4509622000133391
 30
0.0
 10
12.80690632821896
 20
0.4443734298251755
 30
0.0
 10
12.80699954968274
 20
0.44098731884058
 30
0.0
  0
SPLINE
  5
11B
330
1F
100
AcDbEntity
  8
0
  6
Continuous
 62
     7
370
    25
100
AcDbSpline
210
0.0
220
0.0
230
1.0
 70
     8
 71
     3
 72
    13
 73
     9
 74
     0
 42
0.000000001
 43
0.00000001
 40
0.0
 40
0.0
 40
0.0
 40
0.0
 40
0.2629342745513454
 40
0.5143647563737029
 40
0.6373177871926528
 40
0.7589996230405844
 40
0.8797707883104341
 40
1.0
 40
1.0
 40
1.0
 40
1.0
 10
13.63198822721897
 20
0.5300724637681161
 30
0.0
 10
13.63987037518989
 20
0.529930417764593
 30
0.0
 10
13.65528981462082
 20
0.5296525404961363
 30
0.0
 10
13.67426334989954
 20
0.5271949095069974
 30
0.0
 10
13.6888802156068
 20
0.5244804236767792
 30
0.0
 10
13.69951264953559
 20
0.5218450995821408
 30
0.0
 10
13.70992479870342
 20
0.5187063325352993
 30
0.0
 10
13.71667534499773
 20
0.5161368998028395
 30
0.0
 10
13.72004302794361
 20
0.5148550724637685
 30
0.0
  0
SPLINE
  5
11C
330
1F
100
AcDbEntity
  8
0
  6
Continuous
 62
     7
370
    25
100
AcDbSpline
210
0.0
220
0.0
230
1.0
 70
     8
 71
     3
 72
    23
 73
    19
 74
     0
 42
0.000000001
 43
0.00000001
 40
0.0
 40
0.0
 40
0.0
 40
0.0
 40
0.066475006625187
 40
0.1298691366212066
 40
0.190917087604059
 40
0.2499362502088458
 40
0.3075602225872367
 40
0.3634113090814352
 40
0.4192531151601899
 40
0.4749632826029111
 40
0.5313346986072326
 40
0.589293479649924
 40
0.6494922147887107
 40
0.7123114536155506
 40
0.778560625297998
 40
0.8481967065368435
 40
0.9217767357109496
 40
1.0
 40
1.0
 40
1.0
 40
1.0
 10
13.62025815475521
 20
0.1699275362318842
 30
0.0
 10
13.61428022329857
 20
0.1700549452598246
 30
0.0
 10
13.6026014159322
 20
0.1703038583671168
 30
0.0
 10
13.58555423259951
 20
0.1725274873577129
 30
0.0
 10
13.56940131000746
 20
0.1759480568042579
 30
0.0
 10
13.5541746698482
 20
0.1808767241981976
 30
0.0
 10
13.53998541134443
 20
0.1872014428403335
 30
0.0
 10
13.5268154513405
 20
0.1948920694424434
 30
0.0
 10
13.51473930396679
 20
0.2039274621609979
 30
0.0
 10
13.50379982056771
 20
0.2143851987460518
 30
0.0
 10
13.49409876039354
 20
0.2262357506866611
 30
0.0
 10
13.48544975696365
 20
0.2393681128292809
 30
0.0
 10
13.4782451833671
 20
0.2539870623660106
 30
0.0
 10
13.47197432296274
 20
0.2698255203217831
 30
0.0
 10
13.46718558233982
 20
0.2870689086440413
 30
0.0
 10
13.46383815401345
 20
0.3056156272595159
 30
0.0
 10
13.46173946469268
 20
0.3254350900419825
 30
0.0
 10
13.46148071026701
 20
0.339083471452466
 30
0.0
 10
13.4613473757697
 20
0.3461163949275363
 30
0.0
  0
SPLINE
  5
11D
330
1F
100
AcDbEntity
  8
0
  6
Continuous
 62
     7
370
    25
100
AcDbSpline
210
0.0
220
0.0
230
1.0
 70
     8
 71
     3
 72
    21
 73
    17
 74
     0
 42
0.000000001
 43
0.00000001
 40
0.0
 40
0.0
 40
0.0
 40
0.0
 40
0.1193489637753318
 40
0.2383531199390018
 40
0.2981936897039633
 40
0.3568112946136949
 40
0.4157921536839357
 40
0.4750596628706904
 40
0.5350861696029622
 40
0.5959423628256223
 40
0.657831276735469
 40
0.7218988600038787
 40
0.7878379443417327
 40
0.8556139880323047
 40
0.9263566339288629
 40
1.0
 40
1.0
 40
1.0
 40
1.0
 10
12.15059103518999
 20
0.363077445652174
 30
0.0
 10
12.15510022353658
 20
0.3620011395048656
 30
0.0
 10
12.16410557286517
 20
0.3598516367349591
 30
0.0
 10
12.17470769870041
 20
0.3550821666907227
 30
0.0
 10
12.18271704361215
 20
0.3505275685890215
 30
0.0
 10
12.18830229445564
 20
0.3464913216804064
 30
0.0
 10
12.19355090499717
 20
0.3420676213915501
 30
0.0
 10
12.19839778578272
 20
0.3371252693239235
 30
0.0
 10
12.20284748043805
 20
0.3317317646311161
 30
0.0
 10
12.20684265999914
 20
0.3258610374287971
 30
0.0
 10
12.21021463562099
 20
0.3194415301245837
 30
0.0
 10
12.21328658422426
 20
0.3126552910232832
 30
0.0
 10
12.21562824897001
 20
0.3053373770707465
 30
0.0
 10
12.21739639530412
 20
0.297601623800876
 30
0.0
 10
12.2184355453889
 20
0.2894230753603094
 30
0.0
 10
12.21854031524047
 20
0.2838231516138077
 30
0.0
 10
12.21859375258129
 20
0.2809669384057973
 30
0.0
  0
SPLINE
  5
11E
330
1F
100
AcDbEntity
  8
0
  6
Continuous
 62
     7
370
    25
100
AcDbSpline
210
0.0
220
0.0
230
1.0
 70
     8
 71
     3
 72
    23
 73
    19
 74
     0
 42
0.000000001
 43
0.00000001
 40
0.0
 40
0.0
 40
0.0
 40
0.0
 40
0.0742252771806097
 40
0.1452246251349347
 40
0.2126888929148235
 40
0.2779431301589979
 40
0.3406829667072274
 40
0.4014210807773979
 40
0.460109241146446
 40
0.5180957302352656
 40
0.5755133445412561
 40
0.6326683894261573
 40
0.6904145715872785
 40
0.7491594371175413
 40
0.8094359727667946
 40
0.8709469375778516
 40
0.9344445163449641
 40
1.0
 40
1.0
 40
1.0
 40
1.0
 10
13.4613473757697
 20
0.3461163949275363
 30
0.0
 10
13.46150154220388
 20
0.3531234261924296
 30
0.0
 10
13.46180317479404
 20
0.3668329538278302
 30
0.0
 10
13.46409544198388
 20
0.3868107726805698
 30
0.0
 10
13.46799697307859
 20
0.405663748003424
 30
0.0
 10
13.47335165805644
 20
0.4233466999346469
 30
0.0
 10
13.48017274118544
 20
0.4398384708861322
 30
0.0
 10
13.48837107661696
 20
0.4549812267542863
 30
0.0
 10
13.49766376611062
 20
0.4689490294153547
 30
0.0
 10
13.50833768343898
 20
0.481489741960589
 30
0.0
 10
13.52017395840245
 20
0.4927268474848444
 30
0.0
 10
13.53320377519582
 20
0.5025145369468724
 30
0.0
 10
13.54727380372872
 20
0.5109863312246304
 30
0.0
 10
13.56251441616663
 20
0.5178617981883747
 30
0.0
 10
13.57868523165008
 20
0.5233121166550493
 30
0.0
 10
13.5957378831195
 20
0.5273142198956922
 30
0.0
 10
13.61361703677154
 20
0.5296052266130662
 30
0.0
 10
13.62579974115618
 20
0.5299150711032087
 30
0.0
 10
13.63198822721897
 20
0.5300724637681161
 30
0.0
  0
SPLINE
  5
122
330
1F
100
AcDbEntity
  8
0
  6
Continuous
 62
     7
370
    25
100
AcDbSpline
210
0.0
220
0.0
230
1.0
 70
     8
 71
     3
 72
    21
 73
    17
 74
     0
 42
0.000000001
 43
0.00000001
 40
0.0
 40
0.0
 40
0.0
 40
0.0
 40
0.1481099039642217
 40
0.2834111377086715
 40
0.3473298973787404
 40
0.4080164734869428
 40
0.4665361356180588
 40
0.5238711608478894
 40
0.5798789656630091
 40
0.6357582137558676
 40
0.6911959771072442
 40
0.7476673467919008
 40
0.8060331849590952
 40
0.866872642855139
 40
0.93103005460492
 40
1.0
 40
1.0
 40
1.0
 40
1.0
 10
12.68597373446535
 20
0.3778985507246379
 30
0.0
 10
12.69103095317698
 20
0.378061187527666
 30
0.0
 10
12.70070803803316
 20
0.3783723961649398
 30
0.0
 10
12.71241720592914
 20
0.3804765768242562
 30
0.0
 10
12.72095420780091
 20
0.3829515142629341
 30
0.0
 10
12.72666238814984
 20
0.3855176303760994
 30
0.0
 10
12.73206264018775
 20
0.3882115364236816
 30
0.0
 10
12.73687392306263
 20
0.3915950934559678
 30
0.0
 10
12.74129509962184
 20
0.3953239355352612
 30
0.0
 10
12.74517478979117
 20
0.3995339871739882
 30
0.0
 10
12.74855447743061
 20
0.4041740656890176
 30
0.0
 10
12.75133190872803
 20
0.4092950639845407
 30
0.0
 10
12.75357394982257
 20
0.4148716224374502
 30
0.0
 10
12.75513943750923
 20
0.4209444911009469
 30
0.0
 10
12.75611218038703
 20
0.427508578658143
 30
0.0
 10
12.75621937642328
 20
0.4320540649351626
 30
0.0
 10
12.75627491200158
 20
0.4344089673913046
 30
0.0
  0
SPLINE
  5
123
330
1F
100
AcDbEntity
  8
0
  6
Continuous
 62
     7
370
    25
100
AcDbSpline
210
0.0
220
0.0
230
1.0
 70
     8
 71
     3
 72
    21
 73
    17
 74
     0
 42
0.000000001
 43
0.00000001
 40
0.0
 40
0.0
 40
0.0
 40
0.0
 40
0.1048107603491764
 40
0.205787253549763
 40
0.25520825688846
 40
0.3053322017717515
 40
0.354672231265774
 40
0.4066370344808527
 40
0.460842692156287
 40
0.5189640449736426
 40
0.5822085159551404
 40
0.6511354365166092
 40
0.725977099254603
 40
0.8086500759068513
 40
0.9003756127110791
 40
1.0
 40
1.0
 40
1.0
 40
1.0
 10
12.75627491200158
 20
0.4344089673913046
 30
0.0
 10
12.75612934043825
 20
0.4378048449260229
 30
0.0
 10
12.75584352272152
 20
0.4444723694142796
 30
0.0
 10
12.75378777595505
 20
0.452536973807717
 30
0.0
 10
12.75138026319807
 20
0.4585736503878061
 30
0.0
 10
12.74894344885039
 20
0.4627565534270566
 30
0.0
 10
12.74583021174523
 20
0.4665626652176464
 30
0.0
 10
12.74217217799599
 20
0.4700326321676156
 30
0.0
 10
12.73793443627462
 20
0.4732695153869007
 30
0.0
 10
12.73294296041851
 20
0.4760180727732363
 30
0.0
 10
12.72728635227252
 20
0.4784681782958808
 30
0.0
 10
12.72092754804613
 20
0.4806032030477289
 30
0.0
 10
12.71380382870186
 20
0.4823576987499315
 30
0.0
 10
12.70582692175347
 20
0.4836164464991601
 30
0.0
 10
12.69697592762135
 20
0.4842904902707623
 30
0.0
 10
12.69078310786644
 20
0.4843758488046038
 30
0.0
 10
12.68755887939288
 20
0.4844202898550726
 30
0.0
  0
SPLINE
  5
12D
330
1F
100
AcDbEntity
  8
0
  6
Continuous
 62
     7
370
    25
100
AcDbSpline
210
0.0
220
0.0
230
1.0
 70
     8
 71
     3
 72
    23
 73
    19
 74
     0
 42
0.000000001
 43
0.00000001
 40
0.0
 40
0.0
 40
0.0
 40
0.0
 40
0.0829188246341173
 40
0.15989388150394
 40
0.2325564233819777
 40
0.3006958272261073
 40
0.3637556764832306
 40
0.4236747435210467
 40
0.480700309678924
 40
0.5348597706980031
 40
0.5877167410054599
 40
0.6406978721524955
 40
0.6942911149704619
 40
0.7497520955113268
 40
0.8069461275197146
 40
0.8672827812805206
 40
0.9314383149165594
 40
1.0
 40
1.0
 40
1.0
 40
1.0
 10
12.08964221272622
 20
0.2155797101449277
 30
0.0
 10
12.09284056265318
 20
0.2156205024944624
 30
0.0
 10
12.09900799913683
 20
0.2156991631258875
 30
0.0
 10
12.10795155511363
 20
0.2164376497161908
 30
0.0
 10
12.11628134079243
 20
0.2175661850732688
 30
0.0
 10
12.12395283526612
 20
0.219329533593534
 30
0.0
 10
12.13101047926499
 20
0.2214678651999917
 30
0.0
 10
12.13747561923752
 20
0.224039951902277
 30
0.0
 10
12.1432535065787
 20
0.2272509234430311
 30
0.0
 10
12.14850731619797
 20
0.2308023510071137
 30
0.0
 10
12.15305987386061
 20
0.2349962754732919
 30
0.0
 10
12.15706731769148
 20
0.2396825178442856
 30
0.0
 10
12.16040001989914
 20
0.2449906471125633
 30
0.0
 10
12.16318067073211
 20
0.2507819802333978
 30
0.0
 10
12.16533117019341
 20
0.2571143616295967
 30
0.0
 10
12.16682119421935
 20
0.263973406904296
 30
0.0
 10
12.16768076920821
 20
0.2713813425740713
 30
0.0
 10
12.16780495865836
 20
0.276499818326538
 30
0.0
 10
12.16786911490013
 20
0.2791440217391306
 30
0.0
  0
SPLINE
  5
12E
330
1F
100
AcDbEntity
  8
0
  6
Continuous
 62
     7
370
    25
100
AcDbSpline
210
0.0
220
0.0
230
1.0
 70
     8
 71
     3
 72
    23
 73
    19
 74
     0
 42
0.000000001
 43
0.00000001
 40
0.0
 40
0.0
 40
0.0
 40
0.0
 40
0.0592778177595662
 40
0.1163913973692726
 40
0.1721478876575082
 40
0.2264759683575411
 40
0.2808040490575708
 40
0.3347372846925952
 40
0.3892243701867779
 40
0.4460431565357226
 40
0.504421331692708
 40
0.5647247417857287
 40
0.628709036917366
 40
0.6959470142967967
 40
0.7662050871176787
 40
0.8405626643936421
 40
0.9179353860272988
 40
0.9999999999999999
 40
0.9999999999999999
 40
0.9999999999999999
 40
0.9999999999999999
 10
12.16786911490013
 20
0.2791440217391306
 30
0.0
 10
12.16781651364886
 20
0.2813409939223181
 30
0.0
 10
12.16771323162245
 20
0.2856547266481043
 30
0.0
 10
12.1666525478903
 20
0.2919632750580357
 30
0.0
 10
12.16491397438448
 20
0.2979208572815941
 30
0.0
 10
12.16249967793699
 20
0.3035243876542575
 30
0.0
 10
12.15951772018944
 20
0.3087761333886104
 30
0.0
 10
12.15580522405799
 20
0.3135440345827599
 30
0.0
 10
12.15157335899652
 20
0.3179821080188417
 30
0.0
 10
12.14664904253796
 20
0.3219166040318508
 30
0.0
 10
12.14114184438938
 20
0.3253846194847816
 30
0.0
 10
12.13513730804319
 20
0.3285181811492961
 30
0.0
 10
12.12855891073199
 20
0.3311997671414414
 30
0.0
 10
12.12141975014119
 20
0.3333962893204836
 30
0.0
 10
12.11376395266631
 20
0.3351476450682456
 30
0.0
 10
12.10563026566076
 20
0.336375511845502
 30
0.0
 10
12.09700427088272
 20
0.3372174020965673
 30
0.0
 10
12.09109741082079
 20
0.3372843708374346
 30
0.0
 10
12.08805706779868
 20
0.3373188405797103
 30
0.0
  0
SPLINE
  5
132
330
1F
100
AcDbEntity
  8
0
  6
Continuous
 62
     7
370
    25
100
AcDbSpline
210
0.0
220
0.0
230
1.0
 70
     8
 71
     3
 72
    23
 73
    19
 74
     0
 42
0.000000001
 43
0.00000001
 40
0.0
 40
0.0
 40
0.0
 40
0.0
 40
0.0592778177595645
 40
0.1163913973692708
 40
0.1721478876575134
 40
0.2264759683575367
 40
0.280804049057566
 40
0.3347372846926058
 40
0.3892243701867884
 40
0.4460431565357328
 40
0.5044213316926971
 40
0.5647247417857177
 40
0.6287090369173666
 40
0.6959470142967973
 40
0.7662050871176668
 40
0.8405626643936426
 40
0.9179353860272991
 40
1.0
 40
1.0
 40
1.0
 40
1.0
 10
12.76641983953781
 20
0.2791440217391306
 30
0.0
 10
12.76636723828654
 20
0.2813409939223181
 30
0.0
 10
12.76626395626013
 20
0.2856547266481043
 30
0.0
 10
12.76520327252798
 20
0.291963275058036
 30
0.0
 10
12.76346469902216
 20
0.2979208572815931
 30
0.0
 10
12.76105040257467
 20
0.3035243876542578
 30
0.0
 10
12.75806844482713
 20
0.3087761333886111
 30
0.0
 10
12.75435594869567
 20
0.3135440345827589
 30
0.0
 10
12.75012408363421
 20
0.3179821080188421
 30
0.0
 10
12.74519976717565
 20
0.3219166040318501
 30
0.0
 10
12.73969256902706
 20
0.3253846194847826
 30
0.0
 10
12.73368803268086
 20
0.3285181811492961
 30
0.0
 10
12.72710963536968
 20
0.3311997671414414
 30
0.0
 10
12.71997047477887
 20
0.3333962893204833
 30
0.0
 10
12.71231467730399
 20
0.3351476450682462
 30
0.0
 10
12.70418099029844
 20
0.3363755118455016
 30
0.0
 10
12.69555499552041
 20
0.3372174020965673
 30
0.0
 10
12.68964813545847
 20
0.3372843708374346
 30
0.0
 10
12.68660779243636
 20
0.3373188405797103
 30
0.0
  0
SPLINE
  5
133
330
1F
100
AcDbEntity
  8
0
  6
Continuous
 62
     7
370
    25
100
AcDbSpline
210
0.0
220
0.0
230
1.0
 70
     8
 71
     3
 72
    23
 73
    19
 74
     0
 42
0.000000001
 43
0.00000001
 40
0.0
 40
0.0
 40
0.0
 40
0.0
 40
0.0829188246341062
 40
0.1598938815039178
 40
0.232556423381968
 40
0.3006958272261101
 40
0.363755676483234
 40
0.4236747435210287
 40
0.4807003096789275
 40
0.5348597706980072
 40
0.5877167410054559
 40
0.6406978721524921
 40
0.6942911149704591
 40
0.7497520955113242
 40
0.8069461275197126
 40
0.8672827812805172
 40
0.9314383149165592
 40
0.9999999999999999
 40
0.9999999999999999
 40
0.9999999999999999
 40
0.9999999999999999
 10
12.6881929373639
 20
0.2155797101449277
 30
0.0
 10
12.69139128729086
 20
0.2156205024944624
 30
0.0
 10
12.69755872377451
 20
0.2156991631258875
 30
0.0
 10
12.70650227975132
 20
0.2164376497161911
 30
0.0
 10
12.71483206543011
 20
0.2175661850732688
 30
0.0
 10
12.7225035599038
 20
0.219329533593534
 30
0.0
 10
12.72956120390267
 20
0.221467865199991
 30
0.0
 10
12.73602634387521
 20
0.2240399519022784
 30
0.0
 10
12.74180423121638
 20
0.2272509234430304
 30
0.0
 10
12.74705804083565
 20
0.2308023510071134
 30
0.0
 10
12.7516105984983
 20
0.2349962754732926
 30
0.0
 10
12.75561804232915
 20
0.2396825178442856
 30
0.0
 10
12.75895074453682
 20
0.2449906471125637
 30
0.0
 10
12.76173139536979
 20
0.2507819802333978
 30
0.0
 10
12.7638818948311
 20
0.2571143616295967
 30
0.0
 10
12.76537191885703
 20
0.2639734069042964
 30
0.0
 10
12.7662314938459
 20
0.2713813425740709
 30
0.0
 10
12.76635568329604
 20
0.276499818326538
 30
0.0
 10
12.76641983953781
 20
0.2791440217391306
 30
0.0
  0
SPLINE
  5
137
330
1F
100
AcDbEntity
  8
0
  6
Continuous
 62
     7
370
    25
100
AcDbSpline
210
0.0
220
0.0
230
1.0
 70
     8
 71
     3
 72
    23
 73
    19
 74
     0
 42
0.000000001
 43
0.00000001
 40
0.0
 40
0.0
 40
0.0
 40
0.0
 40
0.0592778177595658
 40
0.1163913973692723
 40
0.1721478876575079
 40
0.2264759683575411
 40
0.2808040490575705
 40
0.3347372846925952
 40
0.3892243701867779
 40
0.4460431565357225
 40
0.504421331692708
 40
0.5647247417857287
 40
0.6287090369173661
 40
0.695947014296797
 40
0.7662050871176788
 40
0.8405626643936422
 40
0.917935386027299
 40
1.0
 40
1.0
 40
1.0
 40
1.0
 10
11.86859375258129
 20
0.2791440217391306
 30
0.0
 10
11.86854115133002
 20
0.2813409939223181
 30
0.0
 10
11.86843786930361
 20
0.2856547266481043
 30
0.0
 10
11.86737718557146
 20
0.2919632750580357
 30
0.0
 10
11.86563861206564
 20
0.2979208572815941
 30
0.0
 10
11.86322431561815
 20
0.3035243876542575
 30
0.0
 10
11.8602423578706
 20
0.3087761333886104
 30
0.0
 10
11.85652986173916
 20
0.3135440345827599
 30
0.0
 10
11.85229799667769
 20
0.3179821080188417
 30
0.0
 10
11.84737368021913
 20
0.3219166040318511
 30
0.0
 10
11.84186648207053
 20
0.3253846194847816
 30
0.0
 10
11.83586194572435
 20
0.3285181811492961
 30
0.0
 10
11.82928354841315
 20
0.3311997671414414
 30
0.0
 10
11.82214438782235
 20
0.3333962893204836
 30
0.0
 10
11.81448859034747
 20
0.3351476450682459
 30
0.0
 10
11.80635490334192
 20
0.336375511845502
 30
0.0
 10
11.79772890856389
 20
0.3372174020965673
 30
0.0
 10
11.79182204850195
 20
0.3372843708374346
 30
0.0
 10
11.78878170547985
 20
0.3373188405797103
 30
0.0
  0
SPLINE
  5
138
330
1F
100
AcDbEntity
  8
0
  6
Continuous
 62
     7
370
    25
100
AcDbSpline
210
0.0
220
0.0
230
1.0
 70
     8
 71
     3
 72
    23
 73
    19
 74
     0
 42
0.000000001
 43
0.00000001
 40
0.0
 40
0.0
 40
0.0
 40
0.0
 40
0.0829188246341173
 40
0.15989388150394
 40
0.2325564233819776
 40
0.3006958272261073
 40
0.3637556764832305
 40
0.4236747435210468
 40
0.4807003096789239
 40
0.534859770698003
 40
0.5877167410054599
 40
0.6406978721524955
 40
0.6942911149704619
 40
0.7497520955113264
 40
0.8069461275197142
 40
0.8672827812805206
 40
0.931438314916559
 40
1.0
 40
1.0
 40
1.0
 40
1.0
 10
11.79036685040738
 20
0.2155797101449277
 30
0.0
 10
11.79356520033434
 20
0.2156205024944624
 30
0.0
 10
11.79973263681799
 20
0.2156991631258875
 30
0.0
 10
11.8086761927948
 20
0.2164376497161911
 30
0.0
 10
11.81700597847359
 20
0.2175661850732688
 30
0.0
 10
11.82467747294728
 20
0.219329533593534
 30
0.0
 10
11.83173511694615
 20
0.2214678651999917
 30
0.0
 10
11.83820025691868
 20
0.224039951902277
 30
0.0
 10
11.84397814425986
 20
0.2272509234430311
 30
0.0
 10
11.84923195387913
 20
0.2308023510071137
 30
0.0
 10
11.85378451154178
 20
0.2349962754732919
 30
0.0
 10
11.85779195537264
 20
0.2396825178442856
 30
0.0
 10
11.8611246575803
 20
0.2449906471125633
 30
0.0
 10
11.86390530841327
 20
0.2507819802333978
 30
0.0
 10
11.86605580787458
 20
0.2571143616295971
 30
0.0
 10
11.8675458319005
 20
0.2639734069042957
 30
0.0
 10
11.86840540688938
 20
0.2713813425740713
 30
0.0
 10
11.86852959633952
 20
0.276499818326538
 30
0.0
 10
11.86859375258129
 20
0.2791440217391306
 30
0.0
  0
LINE
  5
139
330
1F
100
AcDbEntity
  8
0
  6
Continuous
 62
     7
370
    25
100
AcDbLine
 10
11.7897327924
 20
0.4844202899
 30
0.0
 11
11.7417821584
 21
0.4844202899
 31
0.0
  0
LINE
  5
13A
330
1F
100
AcDbEntity
  8
0
  6
Continuous
 62
     7
370
    25
100
AcDbLine
 10
11.7417821584
 20
0.4844202899
 30
0.0
 11
11.7417821584
 21
0.3778985507
 31
0.0
  0
LINE
  5
13B
330
1F
100
AcDbEntity
  8
0
  6
Continuous
 62
     7
370
    25
100
AcDbLine
 10
11.7417821584
 20
0.3778985507
 30
0.0
 11
11.7881476475
 21
0.3778985507
 31
0.0
  0
LINE
  5
13C
330
1F
100
AcDbEntity
  8
0
  6
Continuous
 62
     7
370
    25
100
AcDbLine
 10
14.1410575207
 20
0.3677536232
 30
0.0
 11
14.1777536258
 21
0.3677536232
 31
0.0
  0
LINE
  5
13D
330
1F
100
AcDbEntity
  8
0
  6
Continuous
 62
     7
370
    25
100
AcDbLine
 10
14.1410575207
 20
0.4844202899
 30
0.0
 11
14.1410575207
 21
0.3677536232
 31
0.0
  0
LINE
  5
13E
330
1F
100
AcDbEntity
  8
0
  6
Continuous
 62
     7
370
    25
100
AcDbLine
 10
14.1838564337
 20
0.4844202899
 30
0.0
 11
14.1410575207
 21
0.4844202899
 31
0.0
  0
LINE
  5
13F
330
1F
100
AcDbEntity
  8
0
  6
Continuous
 62
     7
370
    25
100
AcDbLine
 10
12.0890081548
 20
0.4844202899
 30
0.0
 11
12.0410575207
 21
0.4844202899
 31
0.0
  0
LINE
  5
140
330
1F
100
AcDbEntity
  8
0
  6
Continuous
 62
     7
370
    25
100
AcDbLine
 10
12.0410575207
 20
0.4844202899
 30
0.0
 11
12.0410575207
 21
0.3778985507
 31
0.0
  0
LINE
  5
141
330
1F
100
AcDbEntity
  8
0
  6
Continuous
 62
     7
370
    25
100
AcDbLine
 10
12.0410575207
 20
0.3778985507
 30
0.0
 11
12.0874230098
 21
0.3778985507
 31
0.0
  0
LINE
  5
142
330
1F
100
AcDbEntity
  8
0
  6
Continuous
 62
     7
370
    25
100
AcDbLine
 10
14.090332883
 20
0.525
 30
0.0
 11
14.1833808903
 21
0.525
 31
0.0
  0
LINE
  5
143
330
1F
100
AcDbEntity
  8
0
  6
Continuous
 62
     7
370
    25
100
AcDbLine
 10
14.090332883
 20
0.175
 30
0.0
 11
14.090332883
 21
0.525
 31
0.0
  0
LINE
  5
144
330
1F
100
AcDbEntity
  8
0
  6
Continuous
 62
     7
370
    25
100
AcDbLine
 10
14.1410575207
 20
0.175
 30
0.0
 11
14.090332883
 21
0.175
 31
0.0
  0
LINE
  5
145
330
1F
100
AcDbEntity
  8
0
  6
Continuous
 62
     7
370
    25
100
AcDbLine
 10
14.1410575207
 20
0.327173913
 30
0.0
 11
14.1410575207
 21
0.175
 31
0.0
  0
LINE
  5
146
330
1F
100
AcDbEntity
  8
0
  6
Continuous
 62
     7
370
    25
100
AcDbLine
 10
14.1625362345
 20
0.327173913
 30
0.0
 11
14.1410575207
 21
0.327173913
 31
0.0
  0
LINE
  5
147
330
1F
100
AcDbEntity
  8
0
  6
Continuous
 62
     7
370
    25
100
AcDbLine
 10
14.2699298033
 20
0.175
 30
0.0
 11
14.2196014519
 21
0.2842957428
 31
0.0
  0
LINE
  5
148
330
1F
100
AcDbEntity
  8
0
  6
Continuous
 62
     7
370
    25
100
AcDbLine
 10
14.3236662163
 20
0.175
 30
0.0
 11
14.2699298033
 21
0.175
 31
0.0
  0
LINE
  5
149
330
1F
100
AcDbEntity
  8
0
  6
Continuous
 62
     7
370
    25
100
AcDbLine
 10
14.270167575
 20
0.2916666667
 30
0.0
 11
14.3236662163
 21
0.175
 31
0.0
  0
LINE
  5
14A
330
1F
100
AcDbEntity
  8
0
  6
Continuous
 62
     7
370
    25
100
AcDbLine
 10
13.7200430279
 20
0.372826087
 30
0.0
 11
13.7200430279
 21
0.19140625
 31
0.0
  0
LINE
  5
14B
330
1F
100
AcDbEntity
  8
0
  6
Continuous
 62
     7
370
    25
100
AcDbLine
 10
13.5989379555
 20
0.372826087
 30
0.0
 11
13.7200430279
 21
0.372826087
 31
0.0
  0
LINE
  5
14C
330
1F
100
AcDbEntity
  8
0
  6
Continuous
 62
     7
370
    25
100
AcDbLine
 10
13.5989379555
 20
0.3322463768
 30
0.0
 11
13.5989379555
 21
0.372826087
 31
0.0
  0
LINE
  5
14D
330
1F
100
AcDbEntity
  8
0
  6
Continuous
 62
     7
370
    25
100
AcDbLine
 10
13.6693183903
 20
0.3322463768
 30
0.0
 11
13.5989379555
 21
0.3322463768
 31
0.0
  0
LINE
  5
14E
330
1F
100
AcDbEntity
  8
0
  6
Continuous
 62
     7
370
    25
100
AcDbLine
 10
13.6693183903
 20
0.2179574275
 30
0.0
 11
13.6693183903
 21
0.3322463768
 31
0.0
  0
LINE
  5
14F
330
1F
100
AcDbEntity
  8
0
  6
Continuous
 62
     7
370
    25
100
AcDbLine
 10
13.7200430279
 20
0.5148550725
 30
0.0
 11
13.7200430279
 21
0.4692028986
 31
0.0
  0
LINE
  5
150
330
1F
100
AcDbEntity
  8
0
  6
Continuous
 62
     7
370
    25
100
AcDbLine
 10
12.8475792598
 20
0.1039855072
 30
0.0
 11
13.1468546221
 21
0.1039855072
 31
0.0
  0
LINE
  5
151
330
1F
100
AcDbEntity
  8
0
  6
Continuous
 62
     7
370
    25
100
AcDbLine
 10
12.8475792598
 20
0.0634057971
 30
0.0
 11
12.8475792598
 21
0.1039855072
 31
0.0
  0
LINE
  5
152
330
1F
100
AcDbEntity
  8
0
  6
Continuous
 62
     7
370
    25
100
AcDbLine
 10
13.1468546221
 20
0.0634057971
 30
0.0
 11
12.8475792598
 21
0.0634057971
 31
0.0
  0
LINE
  5
153
330
1F
100
AcDbEntity
  8
0
  6
Continuous
 62
     7
370
    25
100
AcDbLine
 10
13.1468546221
 20
0.1039855072
 30
0.0
 11
13.1468546221
 21
0.0634057971
 31
0.0
  0
LINE
  5
154
330
1F
100
AcDbEntity
  8
0
  6
Continuous
 62
     7
370
    25
100
AcDbLine
 10
12.3555502743
 20
0.3322463768
 30
0.0
 11
12.3555502743
 21
0.175
 31
0.0
  0
LINE
  5
155
330
1F
100
AcDbEntity
  8
0
  6
Continuous
 62
     7
370
    25
100
AcDbLine
 10
12.3555502743
 20
0.372826087
 30
0.0
 11
12.4948845135
 21
0.372826087
 31
0.0
  0
LINE
  5
156
330
1F
100
AcDbEntity
  8
0
  6
Continuous
 62
     7
370
    25
100
AcDbLine
 10
12.3555502743
 20
0.4844202899
 30
0.0
 11
12.3555502743
 21
0.372826087
 31
0.0
  0
LINE
  5
157
330
1F
100
AcDbEntity
  8
0
  6
Continuous
 62
     7
370
    25
100
AcDbLine
 10
11.6910575207
 20
0.175
 30
0.0
 11
11.6910575207
 21
0.525
 31
0.0
  0
LINE
  5
158
330
1F
100
AcDbEntity
  8
0
  6
Continuous
 62
     7
370
    25
100
AcDbLine
 10
29.4772521228
 20
3.0
 30
0.0
 11
30.0
 21
3.0
 31
0.0
  0
LINE
  5
159
330
1F
100
AcDbEntity
  8
0
  6
Continuous
 62
     7
370
    25
100
AcDbLine
 10
29.365
 20
2.1122521228
 30
0.0
 11
29.365
 21
2.8877478772
 31
0.0
  0
LINE
  5
15A
330
1F
100
AcDbEntity
  8
0
  6
Continuous
 62
     7
370
    25
100
AcDbLine
 10
30.0
 20
2.0
 30
0.0
 11
29.4772521228
 21
2.0
 31
0.0
  0
LINE
  5
15B
330
1F
100
AcDbEntity
  8
0
  6
Continuous
 62
     7
370
    25
100
AcDbLine
 10
29.4772521228
 20
1.0
 30
0.0
 11
30.0
 21
1.0
 31
0.0
  0
LINE
  5
15C
330
1F
100
AcDbEntity
  8
0
  6
Continuous
 62
     7
370
    25
100
AcDbLine
 10
0.635
 20
0.0
 30
0.0
 11
0.635
 21
0.8877478772
 31
0.0
  0
LINE
  5
15D
330
1F
100
AcDbEntity
  8
0
  6
Continuous
 62
     7
370
    25
100
AcDbLine
 10
0.0
 20
2.0
 30
0.0
 11
0.5227478772
 21
2.0
 31
0.0
  0
LINE
  5
15E
330
1F
100
AcDbEntity
  8
0
  6
Continuous
 62
     7
370
    25
100
AcDbLine
 10
0.635
 20
2.1122521228
 30
0.0
 11
0.635
 21
2.8877478772
 31
0.0
  0
LINE
  5
15F
330
1F
100
AcDbEntity
  8
0
  6
Continuous
 62
     7
370
    25
100
AcDbLine
 10
0.5227478772
 20
3.0
 30
0.0
 11
0.0
 21
3.0
 31
0.0
  0
LINE
  5
160
330
1F
100
AcDbEntity
  8
0
  6
Continuous
 62
     7
370
    25
100
AcDbLine
 10
5.8877478772
 20
4.365
 30
0.0
 11
5.1122521228
 21
4.365
 31
0.0
  0
LINE
  5
161
330
1F
100
AcDbEntity
  8
0
  6
Continuous
 62
     7
370
    25
100
AcDbLine
 10
6.0
 20
5.0
 30
0.0
 11
6.0
 21
4.4772521228
 31
0.0
  0
LINE
  5
162
330
1F
100
AcDbEntity
  8
0
  6
Continuous
 62
     7
370
    25
100
AcDbLine
 10
24.0
 20
4.4772521228
 30
0.0
 11
24.0
 21
5.0
 31
0.0
  0
LINE
  5
163
330
1F
100
AcDbEntity
  8
0
  6
Continuous
 62
     7
370
    25
100
AcDbLine
 10
12.0813202019
 20
0.175
 30
0.0
 11
11.990332883
 21
0.175
 31
0.0
  0
LINE
  5
164
330
1F
100
AcDbEntity
  8
0
  6
Continuous
 62
     7
370
    25
100
AcDbLine
 10
13.2657404917
 20
0.525
 30
0.0
 11
13.3309692055
 21
0.525
 31
0.0
  0
LINE
  5
165
330
1F
100
AcDbEntity
  8
0
  6
Continuous
 62
     7
370
    25
100
AcDbLine
 10
13.149390854
 20
0.175
 30
0.0
 11
13.2657404917
 21
0.525
 31
0.0
  0
LINE
  5
166
330
1F
100
AcDbEntity
  8
0
  6
Continuous
 62
     7
370
    25
100
AcDbLine
 10
13.1988473758
 20
0.175
 30
0.0
 11
13.149390854
 21
0.175
 31
0.0
  0
LINE
  5
167
330
1F
100
AcDbEntity
  8
0
  6
Continuous
 62
     7
370
    25
100
AcDbLine
 10
13.2228623214
 20
0.2510869565
 30
0.0
 11
13.1988473758
 21
0.175
 31
0.0
  0
LINE
  5
168
330
1F
100
AcDbEntity
  8
0
  6
Continuous
 62
     7
370
    25
100
AcDbLine
 10
13.3682201113
 20
0.2510869565
 30
0.0
 11
13.2228623214
 21
0.2510869565
 31
0.0
  0
LINE
  5
169
330
1F
100
AcDbEntity
  8
0
  6
Continuous
 62
     7
370
    25
100
AcDbLine
 10
13.3916802562
 20
0.175
 30
0.0
 11
13.3682201113
 21
0.2510869565
 31
0.0
  0
LINE
  5
16A
330
1F
100
AcDbEntity
  8
0
  6
Continuous
 62
     7
370
    25
100
AcDbLine
 10
13.4435937526
 20
0.175
 30
0.0
 11
13.3916802562
 21
0.175
 31
0.0
  0
LINE
  5
16B
330
1F
100
AcDbEntity
  8
0
  6
Continuous
 62
     7
370
    25
100
AcDbLine
 10
13.3309692055
 20
0.525
 30
0.0
 11
13.4435937526
 21
0.175
 31
0.0
  0
LINE
  5
16C
330
1F
100
AcDbEntity
  8
0
  6
Continuous
 62
     7
370
    25
100
AcDbLine
 10
13.8642912163
 20
0.525
 30
0.0
 11
13.9295199301
 21
0.525
 31
0.0
  0
LINE
  5
16D
330
1F
100
AcDbEntity
  8
0
  6
Continuous
 62
     7
370
    25
100
AcDbLine
 10
13.7479415787
 20
0.175
 30
0.0
 11
13.8642912163
 21
0.525
 31
0.0
  0
LINE
  5
16E
330
1F
100
AcDbEntity
  8
0
  6
Continuous
 62
     7
370
    25
100
AcDbLine
 10
13.7973981004
 20
0.175
 30
0.0
 11
13.7479415787
 21
0.175
 31
0.0
  0
LINE
  5
16F
330
1F
100
AcDbEntity
  8
0
  6
Continuous
 62
     7
370
    25
100
AcDbLine
 10
13.8214130461
 20
0.2510869565
 30
0.0
 11
13.7973981004
 21
0.175
 31
0.0
  0
LINE
  5
170
330
1F
100
AcDbEntity
  8
0
  6
Continuous
 62
     7
370
    25
100
AcDbLine
 10
13.9667708359
 20
0.2510869565
 30
0.0
 11
13.8214130461
 21
0.2510869565
 31
0.0
  0
LINE
  5
171
330
1F
100
AcDbEntity
  8
0
  6
Continuous
 62
     7
370
    25
100
AcDbLine
 10
14.0421444772
 20
0.175
 30
0.0
 11
13.9902309808
 21
0.175
 31
0.0
  0
LINE
  5
172
330
1F
100
AcDbEntity
  8
0
  6
Continuous
 62
     7
370
    25
100
AcDbLine
 10
13.9295199301
 20
0.525
 30
0.0
 11
14.0421444772
 21
0.175
 31
0.0
  0
LINE
  5
173
330
1F
100
AcDbEntity
  8
0
  6
Continuous
 62
     7
370
    25
100
AcDbLine
 10
12.5888836077
 20
0.525
 30
0.0
 11
12.6894610533
 21
0.525
 31
0.0
  0
LINE
  5
174
330
1F
100
AcDbEntity
  8
0
  6
Continuous
 62
     7
370
    25
100
AcDbLine
 10
12.5888836077
 20
0.175
 30
0.0
 11
12.5888836077
 21
0.525
 31
0.0
  0
LINE
  5
175
330
1F
100
AcDbEntity
  8
0
  6
Continuous
 62
     7
370
    25
100
AcDbLine
 10
12.6798709265
 20
0.175
 30
0.0
 11
12.5888836077
 21
0.175
 31
0.0
  0
LINE
  5
176
330
1F
100
AcDbEntity
  8
0
  6
Continuous
 62
     7
370
    25
100
AcDbLine
 10
5.8877478772
 20
0.635
 30
0.0
 11
5.1122521228
 21
0.635
 31
0.0
  0
LINE
  5
177
330
1F
100
AcDbEntity
  8
0
  6
Continuous
 62
     7
370
    25
100
AcDbLine
 10
5.0
 20
0.5227478772
 30
0.0
 11
5.0
 21
0.0
 31
0.0
  0
LINE
  5
178
330
1F
100
AcDbEntity
  8
0
  6
Continuous
 62
     7
370
    25
100
AcDbLine
 10
13.9902309808
 20
0.175
 30
0.0
 11
13.9667708359
 21
0.2510869565
 31
0.0
  0
LINE
  5
179
330
1F
100
AcDbEntity
  8
0
  6
Continuous
 62
     7
370
    25
100
AcDbLine
 10
12.3048256366
 20
0.525
 30
0.0
 11
12.5026517236
 21
0.525
 31
0.0
  0
LINE
  5
17A
330
1F
100
AcDbEntity
  8
0
  6
Continuous
 62
     7
370
    25
100
AcDbLine
 10
12.3048256366
 20
0.175
 30
0.0
 11
12.3048256366
 21
0.525
 31
0.0
  0
LINE
  5
17B
330
1F
100
AcDbEntity
  8
0
  6
Continuous
 62
     7
370
    25
100
AcDbLine
 10
12.3555502743
 20
0.175
 30
0.0
 11
12.3048256366
 21
0.175
 31
0.0
  0
LINE
  5
17C
330
1F
100
AcDbEntity
  8
0
  6
Continuous
 62
     7
370
    25
100
AcDbLine
 10
30.0
 20
4.0
 30
0.0
 11
29.4772521228
 21
4.0
 31
0.0
  0
LINE
  5
17D
330
1F
100
AcDbEntity
  8
0
  6
Continuous
 62
     7
370
    25
100
AcDbLine
 10
12.4948845135
 20
0.3322463768
 30
0.0
 11
12.3555502743
 21
0.3322463768
 31
0.0
  0
LINE
  5
17E
330
1F
100
AcDbEntity
  8
0
  6
Continuous
 62
     7
370
    25
100
AcDbLine
 10
12.4948845135
 20
0.372826087
 30
0.0
 11
12.4948845135
 21
0.3322463768
 31
0.0
  0
LINE
  5
17F
330
1F
100
AcDbEntity
  8
0
  6
Continuous
 62
     7
370
    25
100
AcDbLine
 10
0.635
 20
0.0
 30
0.0
 11
2.0
 21
0.0
 31
0.0
  0
LINE
  5
180
330
1F
100
AcDbEntity
  8
0
  6
Continuous
 62
     7
370
    25
100
AcDbLine
 10
0.0
 20
2.0
 30
0.0
 11
0.0
 21
1.0
 31
0.0
  0
LINE
  5
181
330
1F
100
AcDbEntity
  8
0
  6
Continuous
 62
     7
370
    25
100
AcDbLine
 10
12.5026517236
 20
0.4844202899
 30
0.0
 11
12.3555502743
 21
0.4844202899
 31
0.0
  0
LINE
  5
182
330
1F
100
AcDbEntity
  8
0
  6
Continuous
 62
     7
370
    25
100
AcDbLine
 10
12.5026517236
 20
0.525
 30
0.0
 11
12.5026517236
 21
0.4844202899
 31
0.0
  0
LINE
  5
183
330
1F
100
AcDbEntity
  8
0
  6
Continuous
 62
     7
370
    25
100
AcDbLine
 10
14.5
 20
5.0
 30
0.0
 11
6.0
 21
5.0
 31
0.0
  0
LINE
  5
184
330
1F
100
AcDbEntity
  8
0
  6
Continuous
 62
     7
370
    25
100
AcDbLine
 10
24.0
 20
5.0
 30
0.0
 11
15.5
 21
5.0
 31
0.0
  0
LINE
  5
185
330
1F
100
AcDbEntity
  8
0
  6
Continuous
 62
     7
370
    25
100
AcDbLine
 10
30.0
 20
1.0
 30
0.0
 11
30.0
 21
2.0
 31
0.0
  0
LINE
  5
186
330
1F
100
AcDbEntity
  8
0
  6
Continuous
 62
     7
370
    25
100
AcDbLine
 10
30.0
 20
3.0
 30
0.0
 11
30.0
 21
4.0
 31
0.0
  0
LINE
  5
187
330
1F
100
AcDbEntity
  8
0
  6
Continuous
 62
     7
370
    25
100
AcDbLine
 10
0.635
 20
4.1122521228
 30
0.0
 11
0.635
 21
5.0
 31
0.0
  0
LINE
  5
188
330
1F
100
AcDbEntity
  8
0
  6
Continuous
 62
     7
370
    25
100
AcDbLine
 10
15.5
 20
1.6
 30
0.0
 11
15.5
 21
3.4
 31
0.0
  0
LINE
  5
189
330
1F
100
AcDbEntity
  8
0
  6
Continuous
 62
     7
370
    25
100
AcDbLine
 10
11.990332883
 20
0.525
 30
0.0
 11
12.0909103287
 21
0.525
 31
0.0
  0
LINE
  5
18A
330
1F
100
AcDbEntity
  8
0
  6
Continuous
 62
     7
370
    25
100
AcDbLine
 10
11.990332883
 20
0.175
 30
0.0
 11
11.990332883
 21
0.525
 31
0.0
  0
LINE
  5
18B
330
1F
100
AcDbEntity
  8
0
  6
Continuous
 62
     7
370
    25
100
AcDbLine
 10
28.0
 20
0.0
 30
0.0
 11
28.0
 21
0.5227478772
 31
0.0
  0
LINE
  5
18C
330
1F
100
AcDbEntity
  8
0
  6
Continuous
 62
     7
370
    25
100
AcDbLine
 10
2.8877478772
 20
0.635
 30
0.0
 11
2.1122521228
 21
0.635
 31
0.0
  0
LINE
  5
18D
330
1F
100
AcDbEntity
  8
0
  6
Continuous
 62
     7
370
    25
100
AcDbLine
 10
2.0
 20
0.5227478772
 30
0.0
 11
2.0
 21
0.0
 31
0.0
  0
LINE
  5
18E
330
1F
100
AcDbEntity
  8
0
  6
Continuous
 62
     7
370
    25
100
AcDbLine
 10
15.3877478772
 20
0.635
 30
0.0
 11
14.6122521228
 21
0.635
 31
0.0
  0
LINE
  5
18F
330
1F
100
AcDbEntity
  8
0
  6
Continuous
 62
     7
370
    25
100
AcDbLine
 10
14.5
 20
0.5227478772
 30
0.0
 11
14.5
 21
0.0
 31
0.0
  0
LINE
  5
190
330
1F
100
AcDbEntity
  8
0
  6
Continuous
 62
     7
370
    25
100
AcDbLine
 10
28.0
 20
0.0
 30
0.0
 11
29.365
 21
0.0
 31
0.0
  0
LINE
  5
191
330
1F
100
AcDbEntity
  8
0
  6
Continuous
 62
     7
370
    25
100
AcDbLine
 10
29.365
 20
5.0
 30
0.0
 11
25.0
 21
5.0
 31
0.0
  0
LINE
  5
192
330
1F
100
AcDbEntity
  8
0
  6
Continuous
 62
     7
370
    25
100
AcDbLine
 10
29.365
 20
0.0
 30
0.0
 11
29.365
 21
0.8877478772
 31
0.0
  0
LINE
  5
193
330
1F
100
AcDbEntity
  8
0
  6
Continuous
 62
     7
370
    25
100
AcDbLine
 10
5.0
 20
4.4772521228
 30
0.0
 11
5.0
 21
5.0
 31
0.0
  0
LINE
  5
194
330
1F
100
AcDbEntity
  8
0
  6
Continuous
 62
     7
370
    25
100
AcDbLine
 10
25.0
 20
5.0
 30
0.0
 11
25.0
 21
4.4772521228
 31
0.0
  0
LINE
  5
195
330
1F
100
AcDbEntity
  8
0
  6
Continuous
 62
     7
370
    25
100
AcDbLine
 10
3.0
 20
0.0
 30
0.0
 11
5.0
 21
0.0
 31
0.0
  0
LINE
  5
196
330
1F
100
AcDbEntity
  8
0
  6
Continuous
 62
     7
370
    25
100
AcDbLine
 10
14.5
 20
4.4772521228
 30
0.0
 11
14.5
 21
5.0
 31
0.0
  0
LINE
  5
197
330
1F
100
AcDbEntity
  8
0
  6
Continuous
 62
     7
370
    25
100
AcDbLine
 10
11.6910575207
 20
0.525
 30
0.0
 11
11.7916349663
 21
0.525
 31
0.0
  0
LINE
  5
198
330
1F
100
AcDbEntity
  8
0
  6
Continuous
 62
     7
370
    25
100
AcDbLine
 10
15.5
 20
5.0
 30
0.0
 11
15.5
 21
4.4772521228
 31
0.0
  0
LINE
  5
199
330
1F
100
AcDbEntity
  8
0
  6
Continuous
 62
     7
370
    25
100
AcDbLine
 10
11.7820448395
 20
0.175
 30
0.0
 11
11.6910575207
 21
0.175
 31
0.0
  0
LINE
  5
19A
330
1F
100
AcDbEntity
  8
0
  6
Continuous
 62
     7
370
    25
100
AcDbLine
 10
15.5
 20
0.0
 30
0.0
 11
15.5
 21
0.5227478772
 31
0.0
  0
LINE
  5
19B
330
1F
100
AcDbEntity
  8
0
  6
Continuous
 62
     7
370
    25
100
AcDbLine
 10
25.0
 20
0.0
 30
0.0
 11
25.0
 21
0.5227478772
 31
0.0
  0
LINE
  5
19C
330
1F
100
AcDbEntity
  8
0
  6
Continuous
 62
     7
370
    25
100
AcDbLine
 10
14.5
 20
3.4
 30
0.0
 11
14.5
 21
1.6
 31
0.0
  0
LINE
  5
19D
330
1F
100
AcDbEntity
  8
0
  6
Continuous
 62
     7
370
    25
100
AcDbLine
 10
24.8877478772
 20
0.635
 30
0.0
 11
24.1122521228
 21
0.635
 31
0.0
  0
LINE
  5
19E
330
1F
100
AcDbEntity
  8
0
  6
Continuous
 62
     7
370
    25
100
AcDbLine
 10
24.0
 20
0.5227478772
 30
0.0
 11
24.0
 21
0.0
 31
0.0
  0
LINE
  5
19F
330
1F
100
AcDbEntity
  8
0
  6
Continuous
 62
     7
370
    25
100
AcDbLine
 10
27.0
 20
0.5227478772
 30
0.0
 11
27.0
 21
0.0
 31
0.0
  0
LINE
  5
1A0
330
1F
100
AcDbEntity
  8
0
  6
Continuous
 62
     7
370
    25
100
AcDbLine
 10
0.0
 20
4.0
 30
0.0
 11
0.5227478772
 21
4.0
 31
0.0
  0
LINE
  5
1A1
330
1F
100
AcDbEntity
  8
0
  6
Continuous
 62
     7
370
    25
100
AcDbLine
 10
6.0
 20
0.0
 30
0.0
 11
6.0
 21
0.5227478772
 31
0.0
  0
LINE
  5
1A2
330
1F
100
AcDbEntity
  8
0
  6
Continuous
 62
     7
370
    25
100
AcDbLine
 10
24.8877478772
 20
4.365
 30
0.0
 11
24.1122521228
 21
4.365
 31
0.0
  0
LINE
  5
1A3
330
1F
100
AcDbEntity
  8
0
  6
Continuous
 62
     7
370
    25
100
AcDbLine
 10
29.365
 20
4.1122521228
 30
0.0
 11
29.365
 21
5.0
 31
0.0
  0
LINE
  5
1A4
330
1F
100
AcDbEntity
  8
0
  6
Continuous
 62
     7
370
    25
100
AcDbLine
 10
15.3877478772
 20
4.365
 30
0.0
 11
14.6122521228
 21
4.365
 31
0.0
  0
LINE
  5
1A5
330
1F
100
AcDbEntity
  8
0
  6
Continuous
 62
     7
370
    25
100
AcDbLine
 10
0.5227478772
 20
1.0
 30
0.0
 11
0.0
 21
1.0
 31
0.0
  0
LINE
  5
1A6
330
1F
100
AcDbEntity
  8
0
  6
Continuous
 62
     7
370
    25
100
AcDbLine
 10
5.0
 20
5.0
 30
0.0
 11
0.635
 21
5.0
 31
0.0
  0
LINE
  5
1A7
330
1F
100
AcDbEntity
  8
0
  6
Continuous
 62
     7
370
    25
100
AcDbLine
 10
27.8877478772
 20
0.635
 30
0.0
 11
27.1122521228
 21
0.635
 31
0.0
  0
LINE
  5
1A8
330
1F
100
AcDbEntity
  8
0
  6
Continuous
 62
     7
370
    25
100
AcDbLine
 10
25.0
 20
0.0
 30
0.0
 11
27.0
 21
0.0
 31
0.0
  0
LINE
  5
1A9
330
1F
100
AcDbEntity
  8
0
  6
Continuous
 62
     7
370
    25
100
AcDbLine
 10
15.5
 20
0.0
 30
0.0
 11
24.0
 21
0.0
 31
0.0
  0
LINE
  5
1AA
330
1F
100
AcDbEntity
  8
0
  6
Continuous
 62
     7
370
    25
100
AcDbLine
 10
6.0
 20
0.0
 30
0.0
 11
14.5
 21
0.0
 31
0.0
  0
LINE
  5
1AB
330
1F
100
AcDbEntity
  8
0
  6
Continuous
 62
     7
370
    25
100
AcDbLine
 10
3.0
 20
0.0
 30
0.0
 11
3.0
 21
0.5227478772
 31
0.0
  0
LINE
  5
1AC
330
1F
100
AcDbEntity
  8
0
  6
Continuous
 62
     7
370
    25
100
AcDbLine
 10
0.0
 20
4.0
 30
0.0
 11
0.0
 21
3.0
 31
0.0
  0
LINE
  5
1AD
330
1F
100
AcDbEntity
  8
0
  6
Continuous
 62
     7
370
    25
100
AcDbLine
 10
12.6875588794
 20
0.4844202899
 30
0.0
 11
12.6396082453
 21
0.4844202899
 31
0.0
  0
LINE
  5
1AE
330
1F
100
AcDbEntity
  8
0
  6
Continuous
 62
     7
370
    25
100
AcDbLine
 10
12.6396082453
 20
0.4844202899
 30
0.0
 11
12.6396082453
 21
0.3778985507
 31
0.0
  0
LINE
  5
1AF
330
1F
100
AcDbEntity
  8
0
  6
Continuous
 62
     7
370
    25
100
AcDbLine
 10
12.6396082453
 20
0.3778985507
 30
0.0
 11
12.6859737345
 21
0.3778985507
 31
0.0
  0
LINE
  5
1B0
330
1F
100
AcDbEntity
  8
0
  6
Continuous
 62
     7
370
    25
100
AcDbLine
 10
13.3557767236
 20
0.2916666667
 30
0.0
 11
13.2964923033
 21
0.4841825181
 31
0.0
  0
LINE
  5
1B1
330
1F
100
AcDbEntity
  8
0
  6
Continuous
 62
     7
370
    25
100
AcDbLine
 10
13.2964923033
 20
0.4841825181
 30
0.0
 11
13.2357019953
 21
0.2916666667
 31
0.0
  0
LINE
  5
1B2
330
1F
100
AcDbEntity
  8
0
  6
Continuous
 62
     7
370
    25
100
AcDbLine
 10
13.2357019953
 20
0.2916666667
 30
0.0
 11
13.3557767236
 21
0.2916666667
 31
0.0
  0
LINE
  5
1B3
330
1F
100
AcDbEntity
  8
0
  6
Continuous
 62
     7
370
    25
100
AcDbLine
 10
13.9543274482
 20
0.2916666667
 30
0.0
 11
13.8950430279
 21
0.4841825181
 31
0.0
  0
LINE
  5
1B4
330
1F
100
AcDbEntity
  8
0
  6
Continuous
 62
     7
370
    25
100
AcDbLine
 10
13.83425272
 20
0.2916666667
 30
0.0
 11
13.9543274482
 21
0.2916666667
 31
0.0
  0
LINE
  5
1B5
330
1F
100
AcDbEntity
  8
0
  6
Continuous
 62
     7
370
    25
100
AcDbLine
 10
13.8950430279
 20
0.4841825181
 30
0.0
 11
13.83425272
 21
0.2916666667
 31
0.0
  0
LINE
  5
1B6
330
1F
100
AcDbEntity
  8
0
  6
Continuous
 62
     7
370
    25
100
AcDbLine
 10
12.0410575207
 20
0.3373188406
 30
0.0
 11
12.0410575207
 21
0.2155797101
 31
0.0
  0
LINE
  5
1B7
330
1F
100
AcDbEntity
  8
0
  6
Continuous
 62
     7
370
    25
100
AcDbLine
 10
12.0410575207
 20
0.2155797101
 30
0.0
 11
12.0896422127
 21
0.2155797101
 31
0.0
  0
LINE
  5
1B8
330
1F
100
AcDbEntity
  8
0
  6
Continuous
 62
     7
370
    25
100
AcDbLine
 10
12.0880570678
 20
0.3373188406
 30
0.0
 11
12.0410575207
 21
0.3373188406
 31
0.0
  0
LINE
  5
1B9
330
1F
100
AcDbEntity
  8
0
  6
Continuous
 62
     7
370
    25
100
AcDbLine
 10
12.6866077924
 20
0.3373188406
 30
0.0
 11
12.6396082453
 21
0.3373188406
 31
0.0
  0
LINE
  5
1BA
330
1F
100
AcDbEntity
  8
0
  6
Continuous
 62
     7
370
    25
100
AcDbLine
 10
12.6396082453
 20
0.3373188406
 30
0.0
 11
12.6396082453
 21
0.2155797101
 31
0.0
  0
LINE
  5
1BB
330
1F
100
AcDbEntity
  8
0
  6
Continuous
 62
     7
370
    25
100
AcDbLine
 10
12.6396082453
 20
0.2155797101
 30
0.0
 11
12.6881929374
 21
0.2155797101
 31
0.0
  0
LINE
  5
1BC
330
1F
100
AcDbEntity
  8
0
  6
Continuous
 62
     7
370
    25
100
AcDbLine
 10
11.7417821584
 20
0.2155797101
 30
0.0
 11
11.7903668504
 21
0.2155797101
 31
0.0
  0
LINE
  5
1BD
330
1F
100
AcDbEntity
  8
0
  6
Continuous
 62
     7
370
    25
100
AcDbLine
 10
11.7417821584
 20
0.3373188406
 30
0.0
 11
11.7417821584
 21
0.2155797101
 31
0.0
  0
LINE
  5
1BE
330
1F
100
AcDbEntity
  8
0
  6
Continuous
 62
     7
370
    25
100
AcDbLine
 10
11.7887817055
 20
0.3373188406
 30
0.0
 11
11.7417821584
 21
0.3373188406
 31
0.0
  0
ARC
  5
1BF
330
1F
100
AcDbEntity
  8
0
  6
Continuous
 62
     7
370
    25
100
AcDbCircle
 10
15.0
 20
1.6
 30
0.0
 40
0.5
100
AcDbArc
 50
180.0
 51
0.0
  0
ARC
  5
1C0
330
1F
100
AcDbEntity
  8
0
  6
Continuous
 62
     7
370
    25
100
AcDbCircle
 10
15.0
 20
3.4
 30
0.0
 40
0.5
100
AcDbArc
 50
0.0
 51
180.0
  0
ARC
  5
1C1
330
1F
100
AcDbEntity
  8
0
  6
Continuous
 62
     7
370
    25
100
AcDbCircle
 10
29.42088
 20
0.94412
 30
0.0
 40
0.0793750000000015
100
AcDbArc
 50
44.7488120841
 51
225.2511879159
  0
ARC
  5
1C2
330
1F
100
AcDbEntity
  8
0
  6
Continuous
 62
     7
370
    25
100
AcDbCircle
 10
15.44412
 20
4.42088
 30
0.0
 40
0.0793749999999991
100
AcDbArc
 50
224.7488120841
 51
45.2511879159
  0
ARC
  5
1C3
330
1F
100
AcDbEntity
  8
0
  6
Continuous
 62
     7
370
    25
100
AcDbCircle
 10
27.05588
 20
0.57912
 30
0.0
 40
0.079375000000003
100
AcDbArc
 50
44.7488120841
 51
225.2511879159
  0
ARC
  5
1C4
330
1F
100
AcDbEntity
  8
0
  6
Continuous
 62
     7
370
    25
100
AcDbCircle
 10
24.05588
 20
4.42088
 30
0.0
 40
0.0793749999999991
100
AcDbArc
 50
134.7488120841
 51
315.2511879159
  0
ARC
  5
1C5
330
1F
100
AcDbEntity
  8
0
  6
Continuous
 62
     7
370
    25
100
AcDbCircle
 10
5.05588
 20
0.57912
 30
0.0
 40
0.0793749999999993
100
AcDbArc
 50
44.7488120841
 51
225.2511879159
  0
ARC
  5
1C6
330
1F
100
AcDbEntity
  8
0
  6
Continuous
 62
     7
370
    25
100
AcDbCircle
 10
29.42088
 20
2.05588
 30
0.0
 40
0.0793749999999997
100
AcDbArc
 50
134.7488120841
 51
315.2511879159
  0
ARC
  5
1C7
330
1F
100
AcDbEntity
  8
0
  6
Continuous
 62
     7
370
    25
100
AcDbCircle
 10
15.44412
 20
0.57912
 30
0.0
 40
0.0793749999999997
100
AcDbArc
 50
314.7488120841
 51
135.2511879159
  0
ARC
  5
1C8
330
1F
100
AcDbEntity
  8
0
  6
Continuous
 62
     7
370
    25
100
AcDbCircle
 10
2.05588
 20
0.57912
 30
0.0
 40
0.0793749999999994
100
AcDbArc
 50
44.7488120841
 51
225.2511879159
  0
ARC
  5
1C9
330
1F
100
AcDbEntity
  8
0
  6
Continuous
 62
     7
370
    25
100
AcDbCircle
 10
24.94412
 20
4.42088
 30
0.0
 40
0.0793749999999991
100
AcDbArc
 50
224.7488120841
 51
45.2511879159
  0
ARC
  5
1CA
330
1F
100
AcDbEntity
  8
0
  6
Continuous
 62
     7
370
    25
100
AcDbCircle
 10
29.42088
 20
2.94412
 30
0.0
 40
0.0793750000000003
100
AcDbArc
 50
44.7488120841
 51
225.2511879159
  0
ARC
  5
1CB
330
1F
100
AcDbEntity
  8
0
  6
Continuous
 62
     7
370
    25
100
AcDbCircle
 10
5.94412
 20
0.57912
 30
0.0
 40
0.0793749999999997
100
AcDbArc
 50
314.7488120841
 51
135.2511879159
  0
ARC
  5
1CC
330
1F
100
AcDbEntity
  8
0
  6
Continuous
 62
     7
370
    25
100
AcDbCircle
 10
5.05588
 20
4.42088
 30
0.0
 40
0.0793749999999991
100
AcDbArc
 50
134.7488120841
 51
315.2511879159
  0
ARC
  5
1CD
330
1F
100
AcDbEntity
  8
0
  6
Continuous
 62
     7
370
    25
100
AcDbCircle
 10
14.55588
 20
4.42088
 30
0.0
 40
0.0793749999999991
100
AcDbArc
 50
134.7488120841
 51
315.2511879159
  0
ARC
  5
1CE
330
1F
100
AcDbEntity
  8
0
  6
Continuous
 62
     7
370
    25
100
AcDbCircle
 10
0.57912
 20
4.05588
 30
0.0
 40
0.0793749999999982
100
AcDbArc
 50
224.7488120841
 51
45.2511879159
  0
ARC
  5
1CF
330
1F
100
AcDbEntity
  8
0
  6
Continuous
 62
     7
370
    25
100
AcDbCircle
 10
0.57912
 20
0.94412
 30
0.0
 40
0.0793749999999986
100
AcDbArc
 50
314.7488120841
 51
135.2511879159
  0
ARC
  5
1D0
330
1F
100
AcDbEntity
  8
0
  6
Continuous
 62
     7
370
    25
100
AcDbCircle
 10
5.94412
 20
4.42088
 30
0.0
 40
0.0793749999999997
100
AcDbArc
 50
224.7488120841
 51
45.2511879159
  0
ARC
  5
1D1
330
1F
100
AcDbEntity
  8
0
  6
Continuous
 62
     7
370
    25
100
AcDbCircle
 10
27.94412
 20
0.57912
 30
0.0
 40
0.0793750000000027
100
AcDbArc
 50
314.7488120841
 51
135.2511879159
  0
ARC
  5
1D2
330
1F
100
AcDbEntity
  8
0
  6
Continuous
 62
     7
370
    25
100
AcDbCircle
 10
2.94412
 20
0.57912
 30
0.0
 40
0.0793749999999993
100
AcDbArc
 50
314.7488120841
 51
135.2511879159
  0
ARC
  5
1D3
330
1F
100
AcDbEntity
  8
0
  6
Continuous
 62
     7
370
    25
100
AcDbCircle
 10
14.55588
 20
0.57912
 30
0.0
 40
0.0793749999999987
100
AcDbArc
 50
44.7488120841
 51
225.2511879159
  0
ARC
  5
1D4
330
1F
100
AcDbEntity
  8
0
  6
Continuous
 62
     7
370
    25
100
AcDbCircle
 10
29.42088
 20
4.05588
 30
0.0
 40
0.0793749999999997
100
AcDbArc
 50
134.7488120841
 51
315.2511879159
  0
ARC
  5
1D5
330
1F
100
AcDbEntity
  8
0
  6
Continuous
 62
     7
370
    25
100
AcDbCircle
 10
24.05588
 20
0.57912
 30
0.0
 40
0.0793750000000021
100
AcDbArc
 50
44.7488120841
 51
225.2511879159
  0
ARC
  5
1D6
330
1F
100
AcDbEntity
  8
0
  6
Continuous
 62
     7
370
    25
100
AcDbCircle
 10
24.94412
 20
0.57912
 30
0.0
 40
0.0793749999999987
100
AcDbArc
 50
314.7488120841
 51
135.2511879159
  0
ARC
  5
1D7
330
1F
100
AcDbEntity
  8
0
  6
Continuous
 62
     7
370
    25
100
AcDbCircle
 10
0.57912
 20
2.94412
 30
0.0
 40
0.0793749999999986
100
AcDbArc
 50
314.7488120841
 51
135.2511879159
  0
ARC
  5
1D8
330
1F
100
AcDbEntity
  8
0
  6
Continuous
 62
     7
370
    25
100
AcDbCircle
 10
0.57912
 20
2.05588
 30
0.0
 40
0.0793749999999986
100
AcDbArc
 50
224.7488120841
 51
45.2511879159
  0
ENDSEC
  0
SECTION
  2
OBJECTS
  0
DICTIONARY
  5
C
330
0
100
AcDbDictionary
281
     1
  3
ACAD_GROUP
350
D
  3
ACAD_LAYOUT
350
1A
  3
ACAD_MLINESTYLE
350
17
  3
ACAD_PLOTSETTINGS
350
19
  3
ACAD_PLOTSTYLENAME
350
E
  3
ACAD_SCALELIST
350
47
  0
DICTIONARY
  5
D
102
{ACAD_REACTORS
330
C
102
}
330
C
100
AcDbDictionary
281
     1
  0
DICTIONARY
  5
1A
102
{ACAD_REACTORS
330
C
102
}
330
C
100
AcDbDictionary
281
     1
  3
Layout1
350
1E
  3
Layout2
350
26
  3
Model
350
22
  0
DICTIONARY
  5
17
102
{ACAD_REACTORS
330
C
102
}
330
C
100
AcDbDictionary
281
     1
  3
Standard
350
18
  0
DICTIONARY
  5
19
102
{ACAD_REACTORS
330
C
102
}
330
C
100
AcDbDictionary
281
     1
  0
ACDBDICTIONARYWDFLT
  5
E
102
{ACAD_REACTORS
330
C
102
}
330
C
100
AcDbDictionary
281
     1
  3
Normal
350
F
100
AcDbDictionaryWithDefault
340
F
  0
DICTIONARY
  5
47
102
{ACAD_REACTORS
330
C
102
}
330
C
100
AcDbDictionary
281
     1
  3
A0
350
48
  3
A1
350
49
  3
A2
350
4A
  3
A3
350
4B
  3
A4
350
4C
  3
A5
350
4D
  3
A6
350
4E
  3
A7
350
4F
  3
A8
350
50
  3
A9
350
51
  3
B0
350
52
  3
B1
350
53
  3
B2
350
54
  3
B3
350
55
  3
B4
350
56
  3
B5
350
57
  3
B6
350
58
  3
B7
350
59
  3
B8
350
5A
  3
B9
350
5B
  3
C0
350
5C
  3
C1
350
5D
  3
C2
350
5E
  3
C3
350
5F
  3
C4
350
60
  3
C5
350
61
  3
C6
350
62
  3
C7
350
63
  3
C8
350
64
  3
C9
350
65
  3
D0
350
66
  3
D1
350
67
  3
D2
350
68
  0
LAYOUT
  5
1E
102
{ACAD_REACTORS
330
1A
102
}
330
1A
100
AcDbPlotSettings
  1

  2
none_device
  4

  6

 40
0.0
 41
0.0
 42
0.0
 43
0.0
 44
0.0
 45
0.0
 46
0.0
 47
0.0
 48
0.0
 49
0.0
140
0.0
141
0.0
142
1.0
143
1.0
 70
   688
 72
     1
 73
     0
 74
     5
  7

 75
    16
147
1.0
148
0.0
149
0.0
100
AcDbLayout
  1
Layout1
 70
     1
 71
     1
 10
0.0
 20
0.0
 11
420.0
 21
297.0
 12
0.0
 22
0.0
 32
0.0
 14
1.0000000000E+20
 24
1.0000000000E+20
 34
1.0000000000E+20
 15
-1.0000000000E+20
 25
-1.0000000000E+20
 35
-1.0000000000E+20
146
0.0
 13
0.0
 23
0.0
 33
0.0
 16
1.0
 26
0.0
 36
0.0
 17
0.0
 27
1.0
 37
0.0
 76
     0
330
1B
  0
LAYOUT
  5
26
102
{ACAD_REACTORS
330
1A
102
}
330
1A
100
AcDbPlotSettings
  1

  2
none_device
  4

  6

 40
0.0
 41
0.0
 42
0.0
 43
0.0
 44
0.0
 45
0.0
 46
0.0
 47
0.0
 48
0.0
 49
0.0
140
0.0
141
0.0
142
1.0
143
1.0
 70
   688
 72
     1
 73
     0
 74
     5
  7

 75
    16
147
1.0
148
0.0
149
0.0
100
AcDbLayout
  1
Layout2
 70
     1
 71
     2
 10
0.0
 20
0.0
 11
0.0
 21
0.0
 12
0.0
 22
0.0
 32
0.0
 14
0.0
 24
0.0
 34
0.0
 15
0.0
 25
0.0
 35
0.0
146
0.0
 13
0.0
 23
0.0
 33
0.0
 16
1.0
 26
0.0
 36
0.0
 17
0.0
 27
1.0
 37
0.0
 76
     0
330
23
  0
LAYOUT
  5
22
102
{ACAD_REACTORS
330
1A
102
}
330
1A
100
AcDbPlotSettings
  1

  2
none_device
  4
ANSI_A_(11.00_x_8.50_Inches)
  6

 40
6.35
 41
19.05
 42
6.35000508
 43
19.05000254
 44
279.4
 45
215.9
 46
-4.95300254
 47
65.84949873
 48
0.0
 49
0.0
140
0.0
141
0.0
142
0.363
143
1.0
 70
  1696
 72
     0
 73
     0
 74
     0
  7

 75
     0
147
0.0179189148
148
-1300.4909072572
149
0.0
100
AcDbLayout
  1
Model
 70
     1
 71
     0
 10
0.0
 20
0.0
 11
420.0
 21
297.0
 12
0.0
 22
0.0
 32
0.0
 14
0.0
 24
0.0
 34
0.0
 15
30.0
 25
5.0
 35
0.0
146
0.0
 13
0.0
 23
0.0
 33
0.0
 16
1.0
 26
0.0
 36
0.0
 17
0.0
 27
1.0
 37
0.0
 76
     0
330
1F
331
29
  0
MLINESTYLE
  5
18
102
{ACAD_REACTORS
330
17
102
}
330
17
100
AcDbMlineStyle
  2
Standard
 70
     0
  3

 62
   256
 51
90.0
 52
90.0
 71
     2
 49
0.5
 62
   256
  6
BYLAYER
 49
-0.5
 62
   256
  6
BYLAYER
  0
ACDBPLACEHOLDER
  5
F
102
{ACAD_REACTORS
330
E
102
}
330
E
  0
SCALE
  5
48
102
{ACAD_REACTORS
330
47
102
}
330
47
100
AcDbScale
 70
     0
300
1:1
140
1.0
141
1.0
290
     1
  0
SCALE
  5
49
102
{ACAD_REACTORS
330
47
102
}
330
47
100
AcDbScale
 70
     0
300
1:2
140
1.0
141
2.0
290
     0
  0
SCALE
  5
4A
102
{ACAD_REACTORS
330
47
102
}
330
47
100
AcDbScale
 70
     0
300
1:4
140
1.0
141
4.0
290
     0
  0
SCALE
  5
4B
102
{ACAD_REACTORS
330
47
102
}
330
47
100
AcDbScale
 70
     0
300
1:5
140
1.0
141
5.0
290
     0
  0
SCALE
  5
4C
102
{ACAD_REACTORS
330
47
102
}
330
47
100
AcDbScale
 70
     0
300
1:8
140
1.0
141
8.0
290
     0
  0
SCALE
  5
4D
102
{ACAD_REACTORS
330
47
102
}
330
47
100
AcDbScale
 70
     0
300
1:10
140
1.0
141
10.0
290
     0
  0
SCALE
  5
4E
102
{ACAD_REACTORS
330
47
102
}
330
47
100
AcDbScale
 70
     0
300
1:16
140
1.0
141
16.0
290
     0
  0
SCALE
  5
4F
102
{ACAD_REACTORS
330
47
102
}
330
47
100
AcDbScale
 70
     0
300
1:20
140
1.0
141
20.0
290
     0
  0
SCALE
  5
50
102
{ACAD_REACTORS
330
47
102
}
330
47
100
AcDbScale
 70
     0
300
1:30
140
1.0
141
30.0
290
     0
  0
SCALE
  5
51
102
{ACAD_REACTORS
330
47
102
}
330
47
100
AcDbScale
 70
     0
300
1:40
140
1.0
141
40.0
290
     0
  0
SCALE
  5
52
102
{ACAD_REACTORS
330
47
102
}
330
47
100
AcDbScale
 70
     0
300
1:50
140
1.0
141
50.0
290
     0
  0
SCALE
  5
53
102
{ACAD_REACTORS
330
47
102
}
330
47
100
AcDbScale
 70
     0
300
1:100
140
1.0
141
100.0
290
     0
  0
SCALE
  5
54
102
{ACAD_REACTORS
330
47
102
}
330
47
100
AcDbScale
 70
     0
300
2:1
140
2.0
141
1.0
290
     0
  0
SCALE
  5
55
102
{ACAD_REACTORS
330
47
102
}
330
47
100
AcDbScale
 70
     0
300
4:1
140
4.0
141
1.0
290
     0
  0
SCALE
  5
56
102
{ACAD_REACTORS
330
47
102
}
330
47
100
AcDbScale
 70
     0
300
8:1
140
8.0
141
1.0
290
     0
  0
SCALE
  5
57
102
{ACAD_REACTORS
330
47
102
}
330
47
100
AcDbScale
 70
     0
300
10:1
140
10.0
141
1.0
290
     0
  0
SCALE
  5
58
102
{ACAD_REACTORS
330
47
102
}
330
47
100
AcDbScale
 70
     0
300
100:1
140
100.0
141
1.0
290
     0
  0
SCALE
  5
59
102
{ACAD_REACTORS
330
47
102
}
330
47
100
AcDbScale
 70
     0
300
1/128" = 1'-0"
140
0.0078125
141
12.0
290
     0
  0
SCALE
  5
5A
102
{ACAD_REACTORS
330
47
102
}
330
47
100
AcDbScale
 70
     0
300
1/64" = 1'-0"
140
0.015625
141
12.0
290
     0
  0
SCALE
  5
5B
102
{ACAD_REACTORS
330
47
102
}
330
47
100
AcDbScale
 70
     0
300
1/32" = 1'-0"
140
0.03125
141
12.0
290
     0
  0
SCALE
  5
5C
102
{ACAD_REACTORS
330
47
102
}
330
47
100
AcDbScale
 70
     0
300
1/16" = 1'-0"
140
0.0625
141
12.0
290
     0
  0
SCALE
  5
5D
102
{ACAD_REACTORS
330
47
102
}
330
47
100
AcDbScale
 70
     0
300
3/32" = 1'-0"
140
0.09375
141
12.0
290
     0
  0
SCALE
  5
5E
102
{ACAD_REACTORS
330
47
102
}
330
47
100
AcDbScale
 70
     0
300
1/8" = 1'-0"
140
0.125
141
12.0
290
     0
  0
SCALE
  5
5F
102
{ACAD_REACTORS
330
47
102
}
330
47
100
AcDbScale
 70
     0
300
3/16" = 1'-0"
140
0.1875
141
12.0
290
     0
  0
SCALE
  5
60
102
{ACAD_REACTORS
330
47
102
}
330
47
100
AcDbScale
 70
     0
300
1/4" = 1'-0"
140
0.25
141
12.0
290
     0
  0
SCALE
  5
61
102
{ACAD_REACTORS
330
47
102
}
330
47
100
AcDbScale
 70
     0
300
3/8" = 1'-0"
140
0.375
141
12.0
290
     0
  0
SCALE
  5
62
102
{ACAD_REACTORS
330
47
102
}
330
47
100
AcDbScale
 70
     0
300
1/2" = 1'-0"
140
0.5
141
12.0
290
     0
  0
SCALE
  5
63
102
{ACAD_REACTORS
330
47
102
}
330
47
100
AcDbScale
 70
     0
300
3/4" = 1'-0"
140
0.75
141
12.0
290
     0
  0
SCALE
  5
64
102
{ACAD_REACTORS
330
47
102
}
330
47
100
AcDbScale
 70
     0
300
1" = 1'-0"
140
1.0
141
12.0
290
     0
  0
SCALE
  5
65
102
{ACAD_REACTORS
330
47
102
}
330
47
100
AcDbScale
 70
     0
300
1-1/2" = 1'-0"
140
1.5
141
12.0
290
     0
  0
SCALE
  5
66
102
{ACAD_REACTORS
330
47
102
}
330
47
100
AcDbScale
 70
     0
300
3" = 1'-0"
140
3.0
141
12.0
290
     0
  0
SCALE
  5
67
102
{ACAD_REACTORS
330
47
102
}
330
47
100
AcDbScale
 70
     0
300
6" = 1'-0"
140
6.0
141
12.0
290
     0
  0
SCALE
  5
68
102
{ACAD_REACTORS
330
47
102
}
330
47
100
AcDbScale
 70
     0
300
1'-0" = 1'-0"
140
12.0
141
12.0
290
     0
  0
ENDSEC
  0
EOF
