  0
SECTION
  2
HEADER
  9
$ACADVER
  1
AC1015
  9
$ACADMAINTVER
 70
     6
  9
$DWGCODEPAGE
  3
ANSI_1252
  9
$INSBASE
 10
0.0
 20
0.0
 30
0.0
  9
$EXTMIN
 10
-0.25
 20
-0.25
 30
0.0
  9
$EXTMAX
 10
11.56102362
 20
11.56102362
 30
0.0
  9
$LIMMIN
 10
0.0
 20
0.0
  9
$LIMMAX
 10
12.0
 20
9.0
  9
$ORTHOMODE
 70
     0
  9
$REGENMODE
 70
     1
  9
$FILLMODE
 70
     1
  9
$QTEXTMODE
 70
     0
  9
$MIRRTEXT
 70
     1
  9
$LTSCALE
 40
1.0
  9
$ATTMODE
 70
     1
  9
$TEXTSIZE
 40
0.1377952756
  9
$TRACEWID
 40
0.05
  9
$TEXTSTYLE
  7
Standard
  9
$CLAYER
  8
0
  9
$CELTYPE
  6
ByLayer
  9
$CECOLOR
 62
   256
  9
$CELTSCALE
 40
1.0
  9
$DISPSILH
 70
     0
  9
$DIMSCALE
 40
1.0
  9
$DIMASZ
 40
0.13
  9
$DIMEXO
 40
0.0393700787
  9
$DIMDLI
 40
0.38
  9
$DIMRND
 40
0.0
  9
$DIMDLE
 40
0.0
  9
$DIMEXE
 40
0.0393700787
  9
$DIMTP
 40
0.0
  9
$DIMTM
 40
0.0
  9
$DIMTXT
 40
0.1377952756
  9
$DIMCEN
 40
0.09
  9
$DIMTSZ
 40
0.0
  9
$DIMTOL
 70
     0
  9
$DIMLIM
 70
     0
  9
$DIMTIH
 70
     1
  9
$DIMTOH
 70
     1
  9
$DIMSE1
 70
     0
  9
$DIMSE2
 70
     0
  9
$DIMTAD
 70
     1
  9
$DIMZIN
 70
     1
  9
$DIMBLK
  1

  9
$DIMASO
 70
     1
  9
$DIMSHO
 70
     1
  9
$DIMPOST
  1

  9
$DIMAPOST
  1

  9
$DIMALT
 70
     0
  9
$DIMALTD
 70
     2
  9
$DIMALTF
 40
25.4
  9
$DIMLFAC
 40
1.0
  9
$DIMTOFL
 70
     0
  9
$DIMTVP
 40
0.0
  9
$DIMTIX
 70
     0
  9
$DIMSOXD
 70
     0
  9
$DIMSAH
 70
     0
  9
$DIMBLK1
  1

  9
$DIMBLK2
  1

  9
$DIMSTYLE
  2
Standard
  9
$DIMCLRD
 70
     0
  9
$DIMCLRE
 70
     0
  9
$DIMCLRT
 70
     0
  9
$DIMTFAC
 40
1.0
  9
$DIMGAP
 40
0.06
  9
$DIMJUST
 70
     0
  9
$DIMSD1
 70
     0
  9
$DIMSD2
 70
     0
  9
$DIMTOLJ
 70
     1
  9
$DIMTZIN
 70
     1
  9
$DIMALTZ
 70
     0
  9
$DIMALTTZ
 70
     0
  9
$DIMUPT
 70
     0
  9
$DIMDEC
 70
     2
  9
$DIMTDEC
 70
     2
  9
$DIMALTU
 70
     2
  9
$DIMALTTD
 70
     2
  9
$DIMTXSTY
  7
Standard
  9
$DIMAUNIT
 70
     0
  9
$DIMADEC
 70
     2
  9
$DIMALTRND
 40
0.0
  9
$DIMAZIN
 70
     0
  9
$DIMDSEP
 70
    46
  9
$DIMATFIT
 70
     3
  9
$DIMFRAC
 70
     0
  9
$DIMLDRBLK
  1

  9
$DIMLUNIT
 70
     2
  9
$DIMLWD
 70
    -2
  9
$DIMLWE
 70
    -2
  9
$DIMTMOVE
 70
     0
  9
$LUNITS
 70
     2
  9
$LUPREC
 70
     8
  9
$SKETCHINC
 40
0.1
  9
$FILLETRAD
 40
0.5
  9
$AUNITS
 70
     0
  9
$AUPREC
 70
     2
  9
$MENU
  1
.
  9
$ELEVATION
 40
0.0
  9
$PELEVATION
 40
0.0
  9
$THICKNESS
 40
0.0
  9
$LIMCHECK
 70
     0
  9
$CHAMFERA
 40
0.0
  9
$CHAMFERB
 40
0.0
  9
$CHAMFERC
 40
0.0
  9
$CHAMFERD
 40
0.0
  9
$SKPOLY
 70
     0
  9
$TDCREATE
 40
2458301.614835497
  9
$TDUCREATE
 40
2458301.781502164
  9
$TDUPDATE
 40
2458301.614933623
  9
$TDUUPDATE
 40
2458301.78160029
  9
$TDINDWG
 40
0.0000000116
  9
$TDUSRTIMER
 40
0.0000000116
  9
$USRTIMER
 70
     1
  9
$ANGBASE
 50
0.0
  9
$ANGDIR
 70
     0
  9
$PDMODE
 70
     0
  9
$PDSIZE
 40
-1.0
  9
$PLINEWID
 40
0.0
  9
$SPLFRAME
 70
     0
  9
$SPLINETYPE
 70
     6
  9
$SPLINESEGS
 70
     8
  9
$HANDSEED
  5
1AB
  9
$SURFTAB1
 70
     6
  9
$SURFTAB2
 70
     6
  9
$SURFTYPE
 70
     6
  9
$SURFU
 70
     6
  9
$SURFV
 70
     6
  9
$UCSBASE
  2

  9
$UCSNAME
  2

  9
$UCSORG
 10
0.0
 20
0.0
 30
0.0
  9
$UCSXDIR
 10
1.0
 20
0.0
 30
0.0
  9
$UCSYDIR
 10
0.0
 20
1.0
 30
0.0
  9
$UCSORTHOREF
  2

  9
$UCSORTHOVIEW
 70
     0
  9
$UCSORGTOP
 10
0.0
 20
0.0
 30
0.0
  9
$UCSORGBOTTOM
 10
0.0
 20
0.0
 30
0.0
  9
$UCSORGLEFT
 10
0.0
 20
0.0
 30
0.0
  9
$UCSORGRIGHT
 10
0.0
 20
0.0
 30
0.0
  9
$UCSORGFRONT
 10
0.0
 20
0.0
 30
0.0
  9
$UCSORGBACK
 10
0.0
 20
0.0
 30
0.0
  9
$PUCSBASE
  2

  9
$PUCSNAME
  2

  9
$PUCSORG
 10
0.0
 20
0.0
 30
0.0
  9
$PUCSXDIR
 10
1.0
 20
0.0
 30
0.0
  9
$PUCSYDIR
 10
0.0
 20
1.0
 30
0.0
  9
$PUCSORTHOREF
  2

  9
$PUCSORTHOVIEW
 70
     0
  9
$PUCSORGTOP
 10
0.0
 20
0.0
 30
0.0
  9
$PUCSORGBOTTOM
 10
0.0
 20
0.0
 30
0.0
  9
$PUCSORGLEFT
 10
0.0
 20
0.0
 30
0.0
  9
$PUCSORGRIGHT
 10
0.0
 20
0.0
 30
0.0
  9
$PUCSORGFRONT
 10
0.0
 20
0.0
 30
0.0
  9
$PUCSORGBACK
 10
0.0
 20
0.0
 30
0.0
  9
$USERI1
 70
     0
  9
$USERI2
 70
     0
  9
$USERI3
 70
     0
  9
$USERI4
 70
     0
  9
$USERI5
 70
     0
  9
$USERR1
 40
0.0
  9
$USERR2
 40
0.0
  9
$USERR3
 40
0.0
  9
$USERR4
 40
0.0
  9
$USERR5
 40
0.0
  9
$WORLDVIEW
 70
     1
  9
$SHADEDGE
 70
     3
  9
$SHADEDIF
 70
    70
  9
$TILEMODE
 70
     1
  9
$MAXACTVP
 70
    64
  9
$PINSBASE
 10
0.0
 20
0.0
 30
0.0
  9
$PLIMCHECK
 70
     0
  9
$PEXTMIN
 10
1.0000000000E+20
 20
1.0000000000E+20
 30
1.0000000000E+20
  9
$PEXTMAX
 10
-1.0000000000E+20
 20
-1.0000000000E+20
 30
-1.0000000000E+20
  9
$PLIMMIN
 10
0.0
 20
0.0
  9
$PLIMMAX
 10
12.0
 20
9.0
  9
$UNITMODE
 70
     0
  9
$VISRETAIN
 70
     1
  9
$PLINEGEN
 70
     0
  9
$PSLTSCALE
 70
     1
  9
$TREEDEPTH
 70
  3020
  9
$CMLSTYLE
  2
Standard
  9
$CMLJUST
 70
     0
  9
$CMLSCALE
 40
1.0
  9
$PROXYGRAPHICS
 70
     1
  9
$MEASUREMENT
 70
     0
  9
$CELWEIGHT
370
    -1
  9
$ENDCAPS
280
     0
  9
$JOINSTYLE
280
     0
  9
$LWDISPLAY
290
     1
  9
$INSUNITS
 70
     1
  9
$HYPERLINKBASE
  1

  9
$STYLESHEET
  1

  9
$XEDIT
290
     1
  9
$CEPSNTYPE
380
     0
  9
$PSTYLEMODE
290
     1
  9
$FINGERPRINTGUID
  2
{A599B75C-8BC6-456E-A2D1-092EA13047C2}
  9
$VERSIONGUID
  2
{FAEB1C32-E019-11D5-929B-00C0DF256EC4}
  9
$EXTNAMES
290
     1
  9
$PSVPSCALE
 40
0.0
  9
$OLESTARTUP
290
     0
  0
ENDSEC
  0
SECTION
  2
CLASSES
  0
CLASS
  1
ACDBDICTIONARYWDFLT
  2
AcDbDictionaryWithDefault
  3
ObjectDBX Classes
 90
        0
280
     0
281
     0
  0
CLASS
  1
VISUALSTYLE
  2
AcDbVisualStyle
  3
ObjectDBX Classes
 90
     4095
280
     0
281
     0
  0
CLASS
  1
MATERIAL
  2
AcDbMaterial
  3
ObjectDBX Classes
 90
     1153
280
     0
281
     0
  0
CLASS
  1
SCALE
  2
AcDbScale
  3
ObjectDBX Classes
 90
     1153
280
     0
281
     0
  0
CLASS
  1
TABLESTYLE
  2
AcDbTableStyle
  3
ObjectDBX Classes
 90
     4095
280
     0
281
     0
  0
CLASS
  1
MLEADERSTYLE
  2
AcDbMLeaderStyle
  3
ACDB_MLEADERSTYLE_CLASS
 90
     4095
280
     0
281
     0
  0
CLASS
  1
SUN
  2
AcDbSun
  3
SCENEOE
 90
     1153
280
     0
281
     0
  0
CLASS
  1
ACDBPLACEHOLDER
  2
AcDbPlaceHolder
  3
ObjectDBX Classes
 90
        0
280
     0
281
     0
  0
CLASS
  1
LAYOUT
  2
AcDbLayout
  3
ObjectDBX Classes
 90
        0
280
     0
281
     0
  0
ENDSEC
  0
SECTION
  2
TABLES
  0
TABLE
  2
VPORT
  5
8
330
0
100
AcDbSymbolTable
 70
     1
  0
VPORT
  5
29
330
8
100
AcDbSymbolTableRecord
100
AcDbViewportTableRecord
  2
*Active
 70
     0
 10
0.0
 20
0.0
 11
1.0
 21
1.0
 12
5.65551181
 22
5.65551181
 13
0.0
 23
0.0
 14
0.5
 24
0.5
 15
0.5
 25
0.5
 16
0.0
 26
0.0
 36
1.0
 17
0.0
 27
0.0
 37
0.0
 40
12.0472440924
 41
1.0
 42
50.0
 43
0.0
 44
0.0
 50
0.0
 51
0.0
 71
     0
 72
   100
 73
     1
 74
     3
 75
     0
 76
     0
 77
     0
 78
     0
281
     0
 65
     1
110
0.0
120
0.0
130
0.0
111
1.0
121
0.0
131
0.0
112
0.0
122
1.0
132
0.0
 79
     0
146
0.0
  0
ENDTAB
  0
TABLE
  2
LTYPE
  5
5
330
0
100
AcDbSymbolTable
 70
     6
  0
LTYPE
  5
14
330
5
100
AcDbSymbolTableRecord
100
AcDbLinetypeTableRecord
  2
ByBlock
 70
     0
  3

 72
    65
 73
     0
 40
0.0
  0
LTYPE
  5
15
330
5
100
AcDbSymbolTableRecord
100
AcDbLinetypeTableRecord
  2
ByLayer
 70
     0
  3

 72
    65
 73
     0
 40
0.0
  0
LTYPE
  5
16
330
5
100
AcDbSymbolTableRecord
100
AcDbLinetypeTableRecord
  2
Continuous
 70
     0
  3
Solid line
 72
    65
 73
     0
 40
0.0
  0
LTYPE
  5
6E
330
5
100
AcDbSymbolTableRecord
100
AcDbLinetypeTableRecord
  2
HIDDEN
 70
     0
  3
Hidden __ __ __ __ __ __ __ __ __ __ __ __ __ __
 72
    65
 73
     2
 40
0.075
 49
0.05
 74
     0
 49
-0.025
 74
     0
  0
LTYPE
  5
6F
330
5
100
AcDbSymbolTableRecord
100
AcDbLinetypeTableRecord
  2
PHANTOM
 70
     0
  3
Phantom ______  __  __  ______  __  __  ______
 72
    65
 73
     6
 40
0.5
 49
0.25
 74
     0
 49
-0.05
 74
     0
 49
0.05
 74
     0
 49
-0.05
 74
     0
 49
0.05
 74
     0
 49
-0.05
 74
     0
  0
LTYPE
  5
70
330
5
100
AcDbSymbolTableRecord
100
AcDbLinetypeTableRecord
  2
CENTER
 70
     0
  3
Center ____ _ ____ _ ____ _ ____ _ ____ _ ____
 72
    65
 73
     4
 40
0.4
 49
0.25
 74
     0
 49
-0.05
 74
     0
 49
0.05
 74
     0
 49
-0.05
 74
     0
  0
LTYPE
  5
71
330
5
100
AcDbSymbolTableRecord
100
AcDbLinetypeTableRecord
  2
CENTERX2
 70
     0
  3
Center (2x) ________  __  ________  __  _____
 72
    65
 73
     4
 40
0.8
 49
0.5
 74
     0
 49
-0.1
 74
     0
 49
0.1
 74
     0
 49
-0.1
 74
     0
  0
LTYPE
  5
72
330
5
100
AcDbSymbolTableRecord
100
AcDbLinetypeTableRecord
  2
DOT2
 70
     0
  3
Dot (.5x) ........................................
 72
    65
 73
     2
 40
0.025
 49
0.0
 74
     0
 49
-0.025
 74
     0
  0
ENDTAB
  0
TABLE
  2
LAYER
  5
2
330
0
100
AcDbSymbolTable
 70
     1
  0
LAYER
  5
10
330
2
100
AcDbSymbolTableRecord
100
AcDbLayerTableRecord
  2
0
 70
     0
 62
     7
  6
Continuous
370
    -3
390
F
  0
ENDTAB
  0
TABLE
  2
STYLE
  5
3
330
0
100
AcDbSymbolTable
 70
     1
  0
STYLE
  5
11
330
3
100
AcDbSymbolTableRecord
100
AcDbTextStyleTableRecord
  2
Standard
 70
     0
 40
0.0
 41
1.0
 50
0.0
 71
     0
 42
0.1377952756
  3
txt
  4

  0
ENDTAB
  0
TABLE
  2
VIEW
  5
6
330
0
100
AcDbSymbolTable
 70
     0
  0
ENDTAB
  0
TABLE
  2
UCS
  5
7
330
0
100
AcDbSymbolTable
 70
     0
  0
ENDTAB
  0
TABLE
  2
APPID
  5
9
330
0
100
AcDbSymbolTable
 70
     1
  0
APPID
  5
12
330
9
100
AcDbSymbolTableRecord
100
AcDbRegAppTableRecord
  2
ACAD
 70
     0
  0
ENDTAB
  0
TABLE
  2
DIMSTYLE
  5
A
330
0
100
AcDbSymbolTable
 70
     1
100
AcDbDimStyleTable
  0
DIMSTYLE
105
27
330
A
100
AcDbSymbolTableRecord
100
AcDbDimStyleTableRecord
  2
Standard
 70
     0
178
     0
340
11
  0
ENDTAB
  0
TABLE
  2
BLOCK_RECORD
  5
1
330
0
100
AcDbSymbolTable
 70
     1
  0
BLOCK_RECORD
  5
1F
330
1
100
AcDbSymbolTableRecord
100
AcDbBlockTableRecord
  2
*Model_Space
340
22
  0
BLOCK_RECORD
  5
1B
330
1
100
AcDbSymbolTableRecord
100
AcDbBlockTableRecord
  2
*Paper_Space
340
1E
  0
BLOCK_RECORD
  5
23
330
1
100
AcDbSymbolTableRecord
100
AcDbBlockTableRecord
  2
*Paper_Space0
340
26
  0
ENDTAB
  0
ENDSEC
  0
SECTION
  2
BLOCKS
  0
BLOCK
  5
20
330
1F
100
AcDbEntity
  8
0
100
AcDbBlockBegin
  2
*Model_Space
 70
     0
 10
0.0
 20
0.0
 30
0.0
  3
*Model_Space
  1

  0
ENDBLK
  5
21
330
1F
100
AcDbEntity
  8
0
100
AcDbBlockEnd
  0
BLOCK
  5
1C
330
1B
100
AcDbEntity
 67
     1
  8
0
100
AcDbBlockBegin
  2
*Paper_Space
 70
     0
 10
0.0
 20
0.0
 30
0.0
  3
*Paper_Space
  1

  0
ENDBLK
  5
1D
330
1B
100
AcDbEntity
 67
     1
  8
0
100
AcDbBlockEnd
  0
BLOCK
  5
24
330
23
100
AcDbEntity
  8
0
100
AcDbBlockBegin
  2
*Paper_Space0
 70
     0
 10
0.0
 20
0.0
 30
0.0
  3
*Paper_Space0
  1

  0
ENDBLK
  5
25
330
23
100
AcDbEntity
  8
0
100
AcDbBlockEnd
  0
ENDSEC
  0
SECTION
  2
ENTITIES
  0
SPLINE
  5
76
330
1F
100
AcDbEntity
  8
0
  6
Continuous
 62
     7
370
    25
100
AcDbSpline
210
0.0
220
0.0
230
1.0
 70
     8
 71
     3
 72
    23
 73
    19
 74
     0
 42
0.000000001
 43
0.00000001
 40
0.0
 40
0.0
 40
0.0
 40
0.0
 40
0.0710054063752109
 40
0.137576215210734
 40
0.2003032527046583
 40
0.2604031925983391
 40
0.3177152079427041
 40
0.3738306474914155
 40
0.429499703754267
 40
0.484881186558957
 40
0.5408363383570537
 40
0.5986108345938576
 40
0.6580876144126
 40
0.7194853567469407
 40
0.7841756976171704
 40
0.8520284023422433
 40
0.9241032974735374
 40
1.0
 40
1.0
 40
1.0
 40
1.0
 10
2.836363333121894
 20
0.4964442300247212
 30
0.0
 10
2.836348723544539
 20
0.4973500358233063
 30
0.0
 10
2.836320416821701
 20
0.4991050758948599
 30
0.0
 10
2.836007107598272
 20
0.5016455545493168
 30
0.0
 10
2.835470982512703
 20
0.5040042614636818
 30
0.0
 10
2.834756815637841
 20
0.5061899444224977
 30
0.0
 10
2.833864539974881
 20
0.5082231960972792
 30
0.0
 10
2.832681169920534
 20
0.5100339397345243
 30
0.0
 10
2.831345471275364
 20
0.5116999482488932
 30
0.0
 10
2.829802614399232
 20
0.5131775979873692
 30
0.0
 10
2.828065050248077
 20
0.5144630427629548
 30
0.0
 10
2.826155936658458
 20
0.5155802579168605
 30
0.0
 10
2.824092972926659
 20
0.5165542303586823
 30
0.0
 10
2.821855970412646
 20
0.5173402629474724
 30
0.0
 10
2.819447813415095
 20
0.5179149211670452
 30
0.0
 10
2.816875215032953
 20
0.5183629579333492
 30
0.0
 10
2.814130013190287
 20
0.5186011554280326
 30
0.0
 10
2.812243318445184
 20
0.5186408579457212
 30
0.0
 10
2.811275606316006
 20
0.5186612219224729
 30
0.0
  0
SPLINE
  5
77
330
1F
100
AcDbEntity
  8
0
  6
Continuous
 62
     7
370
    25
100
AcDbSpline
210
0.0
220
0.0
230
1.0
 70
     8
 71
     3
 72
    23
 73
    19
 74
     0
 42
0.000000001
 43
0.00000001
 40
0.0
 40
0.0
 40
0.0
 40
0.0
 40
0.0751634739249741
 40
0.1468242857502646
 40
0.2147004565817484
 40
0.2804081309117789
 40
0.3432989837089027
 40
0.403724026895862
 40
0.4619008746627838
 40
0.5192753134656047
 40
0.5756421721734671
 40
0.6321926367705115
 40
0.6886003484344204
 40
0.7462950936411863
 40
0.8063376960038228
 40
0.8679986302426618
 40
0.9323916198461167
 40
1.0
 40
1.0
 40
1.0
 40
1.0
 10
2.808872926012457
 20
0.4727294633922887
 30
0.0
 10
2.809903072186716
 20
0.4727478743122754
 30
0.0
 10
2.81191535911753
 20
0.472783838192546
 30
0.0
 10
2.814850785051243
 20
0.4730505697485801
 30
0.0
 10
2.817616213188992
 20
0.4735767923639236
 30
0.0
 10
2.820239082173873
 20
0.4741990970709496
 30
0.0
 10
2.822681232315702
 20
0.4750816893832213
 30
0.0
 10
2.82493016526475
 20
0.4761494667931353
 30
0.0
 10
2.82702372638488
 20
0.4773584142599742
 30
0.0
 10
2.828886870770408
 20
0.478809961383018
 30
0.0
 10
2.830595109895475
 20
0.4804061055942254
 30
0.0
 10
2.832090178958334
 20
0.4821880307027817
 30
0.0
 10
2.833390769718609
 20
0.4841396707546815
 30
0.0
 10
2.834440818424324
 20
0.486287646009328
 30
0.0
 10
2.835337525083856
 20
0.4885839012847638
 30
0.0
 10
2.835901889049742
 20
0.4910772512842888
 30
0.0
 10
2.836299602035843
 20
0.493706341661964
 30
0.0
 10
2.836341747224937
 20
0.4955168995845469
 30
0.0
 10
2.836363333121895
 20
0.4964442300247212
 30
0.0
  0
SPLINE
  5
D1
330
1F
100
AcDbEntity
  8
0
  6
Continuous
 62
     7
370
    25
100
AcDbSpline
210
0.0
220
0.0
230
1.0
 70
     8
 71
     3
 72
    13
 73
     9
 74
     0
 42
0.000000001
 43
0.00000001
 40
0.0
 40
0.0
 40
0.0
 40
0.0
 40
0.2629342745513454
 40
0.5143647563736875
 40
0.6373177871926529
 40
0.7589996230405991
 40
0.8797707883104341
 40
1.0
 40
1.0
 40
1.0
 40
1.0
 10
2.594004658866502
 20
0.5366345187386319
 30
0.0
 10
2.597107866729067
 20
0.5365785951151975
 30
0.0
 10
2.603178512174315
 20
0.5364691946158051
 30
0.0
 10
2.610648407953342
 20
0.5355016233602387
 30
0.0
 10
2.616403079491629
 20
0.5344329281514912
 30
0.0
 10
2.620589077101392
 20
0.5333953989803738
 30
0.0
 10
2.624688348427306
 20
0.5321596639225619
 30
0.0
 10
2.627346043818766
 20
0.5311480762326168
 30
0.0
 10
2.628671903246281
 20
0.5306434197999121
 30
0.0
  0
SPLINE
  5
DC
330
1F
100
AcDbEntity
  8
0
  6
Continuous
 62
     7
370
    25
100
AcDbSpline
210
0.0
220
0.0
230
1.0
 70
     8
 71
     3
 72
    19
 73
    15
 74
     0
 42
0.000000001
 43
0.00000001
 40
0.0
 40
0.0
 40
0.0
 40
0.0
 40
0.1285428623689021
 40
0.2501833658111099
 40
0.3676423958125625
 40
0.4828550484702362
 40
0.540503364623393
 40
0.599232879624117
 40
0.659639830638624
 40
0.7216651114752402
 40
0.7863724582546314
 40
0.8542028512456576
 40
0.9255393771011207
 40
1.0
 40
1.0
 40
1.0
 40
1.0
 10
2.151381021128285
 20
0.5015616270348774
 30
0.0
 10
2.151316260526757
 20
0.4997886503077706
 30
0.0
 10
2.151190216770116
 20
0.4963379002862
 30
0.0
 10
2.150175809259952
 20
0.4913467166381173
 30
0.0
 10
2.148482463209214
 20
0.4867476883069877
 30
0.0
 10
2.146519863236258
 20
0.4832366827586198
 30
0.0
 10
2.14460224788787
 20
0.4806786858392707
 30
0.0
 10
2.142936784703288
 20
0.478892983843955
 30
0.0
 10
2.141056423541839
 20
0.4772449133106723
 30
0.0
 10
2.138984639383305
 20
0.4757029464704294
 30
0.0
 10
2.136695076054851
 20
0.4742995957476258
 30
0.0
 10
2.134189348221827
 20
0.4730222435669109
 30
0.0
 10
2.131477021431588
 20
0.4718678928084051
 30
0.0
 10
2.129574174158453
 20
0.4712195607663587
 30
0.0
 10
2.128602363705028
 20
0.4708884486142451
 30
0.0
  0
SPLINE
  5
E1
330
1F
100
AcDbEntity
  8
0
  6
Continuous
 62
     7
370
    25
100
AcDbSpline
210
0.0
220
0.0
230
1.0
 70
     8
 71
     3
 72
    15
 73
    11
 74
     0
 42
0.000000001
 43
0.00000001
 40
0.0
 40
0.0
 40
0.0
 40
0.0
 40
0.1181377071626139
 40
0.245340752026586
 40
0.3782754322888042
 40
0.5101308509081708
 40
0.6425504600250074
 40
0.7708234786149921
 40
0.8918702657019089
 40
1.0
 40
1.0
 40
1.0
 40
1.0
 10
2.591321145800201
 20
0.4108214410255199
 30
0.0
 10
2.592018284697004
 20
0.4108364144229205
 30
0.0
 10
2.593466057684276
 20
0.4108675102065347
 30
0.0
 10
2.595693148738827
 20
0.4110317383779271
 30
0.0
 10
2.597995002892036
 20
0.4112688286772778
 30
0.0
 10
2.600311921734996
 20
0.4116281936106685
 30
0.0
 10
2.602596657144738
 20
0.4120134890800016
 30
0.0
 10
2.604796191684264
 20
0.412506358341678
 30
0.0
 10
2.606825947534559
 20
0.4130867701804526
 30
0.0
 10
2.60810030700938
 20
0.4135405034434637
 30
0.0
 10
2.608701573450549
 20
0.4137545832142673
 30
0.0
  0
SPLINE
  5
E5
330
1F
100
AcDbEntity
  8
0
  6
Continuous
 62
     7
370
    25
100
AcDbSpline
210
0.0
220
0.0
230
1.0
 70
     8
 71
     3
 72
    15
 73
    11
 74
     0
 42
0.000000001
 43
0.00000001
 40
0.0
 40
0.0
 40
0.0
 40
0.0
 40
0.111352562101344
 40
0.2209309255260175
 40
0.331125190926029
 40
0.4436491882741422
 40
0.5643761418057349
 40
0.6964797497374278
 40
0.8421079019728854
 40
0.9999999999999999
 40
0.9999999999999999
 40
0.9999999999999999
 40
0.9999999999999999
 10
2.827626313836261
 20
0.4613401346806607
 30
0.0
 10
2.828543959048626
 20
0.4610035627120931
 30
0.0
 10
2.830364628481337
 20
0.460335781431459
 30
0.0
 10
2.832867907954823
 20
0.4588487054960449
 30
0.0
 10
2.835222335738765
 20
0.4571201924756541
 30
0.0
 10
2.837281336378405
 20
0.4549111583801829
 30
0.0
 10
2.83929449159282
 20
0.4524230181055022
 30
0.0
 10
2.841290020185242
 20
0.4495560220373642
 30
0.0
 10
2.843316449125501
 20
0.4463206423757812
 30
0.0
 10
2.844592542962957
 20
0.4439876157759076
 30
0.0
 10
2.845256370609056
 20
0.4427739686986915
 30
0.0
  0
SPLINE
  5
E7
330
1F
100
AcDbEntity
  8
0
  6
Continuous
 62
     7
370
    25
100
AcDbSpline
210
0.0
220
0.0
230
1.0
 70
     8
 71
     3
 72
    23
 73
    19
 74
     0
 42
0.000000001
 43
0.00000001
 40
0.0
 40
0.0
 40
0.0
 40
0.0
 40
0.0776967714840032
 40
0.1509619938714877
 40
0.2212415611529958
 40
0.287555964001779
 40
0.3508859543665421
 40
0.4108762646889414
 40
0.4684338152580967
 40
0.5243810448878412
 40
0.5788733757496373
 40
0.6330758261547912
 40
0.6878469618937124
 40
0.7440192785930977
 40
0.8024561126406577
 40
0.8641267637851912
 40
0.929601545013649
 40
1.0
 40
1.0
 40
1.0
 40
1.0
 10
2.54679355108378
 20
0.4656462370428652
 30
0.0
 10
2.546822470471625
 20
0.4635548005197914
 30
0.0
 10
2.546878659787697
 20
0.4594912156172456
 30
0.0
 10
2.547344195055175
 20
0.4535490057650703
 30
0.0
 10
2.548162607159427
 20
0.4479574145964186
 30
0.0
 10
2.54922340669485
 20
0.4426769701543133
 30
0.0
 10
2.550686941525078
 20
0.4377790118805679
 30
0.0
 10
2.552499464871143
 20
0.433253085906184
 30
0.0
 10
2.554655002938052
 20
0.4291013977838605
 30
0.0
 10
2.557176625842245
 20
0.4253340208736199
 30
0.0
 10
2.560109772516658
 20
0.4219959063353441
 30
0.0
 10
2.563410759142606
 20
0.4190689130759391
 30
0.0
 10
2.567094953152951
 20
0.4165634025796631
 30
0.0
 10
2.571145639181163
 20
0.4144437981579152
 30
0.0
 10
2.575623247079501
 20
0.4128380740900329
 30
0.0
 10
2.580482056485493
 20
0.411642107747542
 30
0.0
 10
2.585769032304378
 20
0.410969539157881
 30
0.0
 10
2.589426265267935
 20
0.4108719854295725
 30
0.0
 10
2.591321145800201
 20
0.4108214410255199
 30
0.0
  0
SPLINE
  5
F0
330
1F
100
AcDbEntity
  8
0
  6
Continuous
 62
     7
370
    25
100
AcDbSpline
210
0.0
220
0.0
230
1.0
 70
     8
 71
     3
 72
    13
 73
     9
 74
     0
 42
0.000000001
 43
0.00000001
 40
0.0
 40
0.0
 40
0.0
 40
0.0
 40
0.2432432115958367
 40
0.4850313067569414
 40
0.6072204693392887
 40
0.7333344144511441
 40
0.8647086109366601
 40
1.0
 40
1.0
 40
1.0
 40
1.0
 10
2.628671903246281
 20
0.5126701229837531
 30
0.0
 10
2.626020795123835
 20
0.5138492505887345
 30
0.0
 10
2.620734438195115
 20
0.5162004520850682
 30
0.0
 10
2.613787752957993
 20
0.5183107416017341
 30
0.0
 10
2.608071435263646
 20
0.5195294995421537
 30
0.0
 10
2.603589233543728
 20
0.5201754970224152
 30
0.0
 10
2.598922160289905
 20
0.5205973554534508
 30
0.0
 10
2.595742604443938
 20
0.520637757257985
 30
0.0
 10
2.594129473427726
 20
0.5206582549020461
 30
0.0
  0
SPLINE
  5
F2
330
1F
100
AcDbEntity
  8
0
  6
Continuous
 62
     7
370
    25
100
AcDbSpline
210
0.0
220
0.0
230
1.0
 70
     8
 71
     3
 72
    23
 73
    19
 74
     0
 42
0.000000001
 43
0.00000001
 40
0.0
 40
0.0
 40
0.0
 40
0.0
 40
0.0670981242722659
 40
0.1309759062433376
 40
0.1922163869542913
 40
0.2517698083190318
 40
0.3096847194213513
 40
0.3665125233135332
 40
0.4235187108853633
 40
0.4803720324276358
 40
0.5380321837013081
 40
0.5972742619708022
 40
0.6584306056386232
 40
0.7220421674016113
 40
0.7879120315897793
 40
0.8559727583910859
 40
0.9264611901366914
 40
1.0
 40
1.0
 40
1.0
 40
1.0
 10
2.594129473427726
 20
0.5206582549020461
 30
0.0
 10
2.59229588084524
 20
0.5206139868891435
 30
0.0
 10
2.588716698077064
 20
0.5205275754853915
 30
0.0
 10
2.5835139700408
 20
0.5197474839592694
 30
0.0
 10
2.578601767078392
 20
0.5185617465574837
 30
0.0
 10
2.574039090227788
 20
0.5167919790268857
 30
0.0
 10
2.569803089711977
 20
0.5146019983227332
 30
0.0
 10
2.565894378712136
 20
0.5119904330304075
 30
0.0
 10
2.562335613640844
 20
0.5089623567511194
 30
0.0
 10
2.559137761952205
 20
0.5055279204284259
 30
0.0
 10
2.556266310668496
 20
0.5017360591396088
 30
0.0
 10
2.553828470120572
 20
0.4975188666560446
 30
0.0
 10
2.551645618447085
 20
0.4929849333034825
 30
0.0
 10
2.549894093039905
 20
0.4880740161949052
 30
0.0
 10
2.548467760109637
 20
0.4828630321649344
 30
0.0
 10
2.547550708221602
 20
0.4773509106522248
 30
0.0
 10
2.546873585125402
 20
0.4715916286503492
 30
0.0
 10
2.546820603135925
 20
0.4676558199719444
 30
0.0
 10
2.54679355108378
 20
0.4656462370428652
 30
0.0
  0
SPLINE
  5
F3
330
1F
100
AcDbEntity
  8
0
  6
Continuous
 62
     7
370
    25
100
AcDbSpline
210
0.0
220
0.0
230
1.0
 70
     8
 71
     3
 72
    15
 73
    11
 74
     0
 42
0.000000001
 43
0.00000001
 40
0.0
 40
0.0
 40
0.0
 40
0.0
 40
0.1215533759830835
 40
0.2468730645557058
 40
0.3746714108345277
 40
0.5031073905946094
 40
0.6316150506110937
 40
0.7582927467139811
 40
0.8812578156137669
 40
1.0
 40
1.0
 40
1.0
 40
1.0
 10
2.628671903246281
 20
0.4033013637118147
 30
0.0
 10
2.627171333911328
 20
0.4026378613995183
 30
0.0
 10
2.624123700332235
 20
0.4012902982582103
 30
0.0
 10
2.619355546205528
 20
0.3995949738101188
 30
0.0
 10
2.614414498112452
 20
0.3981412281725768
 30
0.0
 10
2.609366278099621
 20
0.3969186459373732
 30
0.0
 10
2.604270804895485
 20
0.395987346495687
 30
0.0
 10
2.599206830588775
 20
0.395349877035636
 30
0.0
 10
2.594251544948331
 20
0.39491237581352
 30
0.0
 10
2.590989196141373
 20
0.3948673143062024
 30
0.0
 10
2.58938652010124
 20
0.3948451771889341
 30
0.0
  0
SPLINE
  5
F4
330
1F
100
AcDbEntity
  8
0
  6
Continuous
 62
     7
370
    25
100
AcDbSpline
210
0.0
220
0.0
230
1.0
 70
     8
 71
     3
 72
    23
 73
    19
 74
     0
 42
0.000000001
 43
0.00000001
 40
0.0
 40
0.0
 40
0.0
 40
0.0
 40
0.0867985091117822
 40
0.1680325757699649
 40
0.2438549343749079
 40
0.3151430648712643
 40
0.3818274405512958
 40
0.4445164656257104
 40
0.5035922754268299
 40
0.559498659529217
 40
0.6133316326846674
 40
0.6658467966471305
 40
0.7179152797095444
 40
0.7701264042050439
 40
0.8240197862945497
 40
0.8797950640280637
 40
0.9382240930441976
 40
1.0
 40
1.0
 40
1.0
 40
1.0
 10
1.987281076759918
 20
0.5346374857590587
 30
0.0
 10
1.989154259374515
 20
0.5346192010883039
 30
0.0
 10
1.992780539397516
 20
0.5345838039328062
 30
0.0
 10
1.998027395637723
 20
0.534151935137361
 30
0.0
 10
2.002919374360057
 20
0.5335555456651335
 30
0.0
 10
2.007451487979016
 20
0.5326647977911121
 30
0.0
 10
2.011613449063067
 20
0.53146065204422
 30
0.0
 10
2.01544538790015
 20
0.5300865295105789
 30
0.0
 10
2.018894714246009
 20
0.528394420922299
 30
0.0
 10
2.021979234348834
 20
0.526446884647808
 30
0.0
 10
2.024729712517562
 20
0.5242648767233733
 30
0.0
 10
2.027079056268081
 20
0.5217688820256193
 30
0.0
 10
2.02910011336643
 20
0.5190447513560063
 30
0.0
 10
2.030732973705249
 20
0.5160364818991701
 30
0.0
 10
2.032016782479872
 20
0.5127790184528923
 30
0.0
 10
2.032915942298111
 20
0.5092571169006744
 30
0.0
 10
2.033447959638679
 20
0.5054887456068294
 30
0.0
 10
2.033519373969772
 20
0.502894741595742
 30
0.0
 10
2.033556075333466
 20
0.5015616270348774
 30
0.0
  0
SPLINE
  5
F5
330
1F
100
AcDbEntity
  8
0
  6
Continuous
 62
     7
370
    25
100
AcDbSpline
210
0.0
220
0.0
230
1.0
 70
     8
 71
     3
 72
    23
 73
    19
 74
     0
 42
0.000000001
 43
0.00000001
 40
0.0
 40
0.0
 40
0.0
 40
0.0
 40
0.0867985091117822
 40
0.1680325757699649
 40
0.2438549343749079
 40
0.3151430648712643
 40
0.3818274405512918
 40
0.4445164656257103
 40
0.5035922754268298
 40
0.5594986595292168
 40
0.6133316326846674
 40
0.6658467966471305
 40
0.7179152797095444
 40
0.7701264042050439
 40
0.8240197862945497
 40
0.8797950640280637
 40
0.9382240930441976
 40
1.0
 40
1.0
 40
1.0
 40
1.0
 10
2.105106022554737
 20
0.5346374857590587
 30
0.0
 10
2.106979205169334
 20
0.5346192010883039
 30
0.0
 10
2.110605485192336
 20
0.5345838039328062
 30
0.0
 10
2.115852341432543
 20
0.534151935137361
 30
0.0
 10
2.120744320154874
 20
0.5335555456651335
 30
0.0
 10
2.125276433773835
 20
0.5326647977911121
 30
0.0
 10
2.129438394857885
 20
0.53146065204422
 30
0.0
 10
2.133270333694969
 20
0.5300865295105789
 30
0.0
 10
2.136719660040828
 20
0.528394420922299
 30
0.0
 10
2.139804180143654
 20
0.526446884647808
 30
0.0
 10
2.142554658312382
 20
0.5242648767233733
 30
0.0
 10
2.1449040020629
 20
0.5217688820256193
 30
0.0
 10
2.14692505916125
 20
0.5190447513560063
 30
0.0
 10
2.148557919500068
 20
0.5160364818991701
 30
0.0
 10
2.149841728274691
 20
0.5127790184528923
 30
0.0
 10
2.15074088809293
 20
0.5092571169006744
 30
0.0
 10
2.151272905433498
 20
0.5054887456068294
 30
0.0
 10
2.151344319764591
 20
0.502894741595742
 30
0.0
 10
2.151381021128285
 20
0.5015616270348774
 30
0.0
  0
SPLINE
  5
F6
330
1F
100
AcDbEntity
  8
0
  6
Continuous
 62
     7
370
    25
100
AcDbSpline
210
0.0
220
0.0
230
1.0
 70
     8
 71
     3
 72
    19
 73
    15
 74
     0
 42
0.000000001
 43
0.00000001
 40
0.0
 40
0.0
 40
0.0
 40
0.0
 40
0.128542862368902
 40
0.2501833658111098
 40
0.3676423958125623
 40
0.482855048470236
 40
0.5405033646233927
 40
0.5992328796241166
 40
0.6596398306386188
 40
0.7216651114752402
 40
0.7863724582546314
 40
0.8542028512456576
 40
0.9255393771011207
 40
1.0
 40
1.0
 40
1.0
 40
1.0
 10
2.033556075333466
 20
0.5015616270348774
 30
0.0
 10
2.033491314731938
 20
0.4997886503077706
 30
0.0
 10
2.033365270975297
 20
0.4963379002862
 30
0.0
 10
2.032350863465134
 20
0.4913467166381173
 30
0.0
 10
2.030657517414394
 20
0.4867476883069877
 30
0.0
 10
2.028694917441438
 20
0.4832366827586198
 30
0.0
 10
2.026777302093051
 20
0.4806786858392707
 30
0.0
 10
2.025111838908468
 20
0.478892983843955
 30
0.0
 10
2.02323147774702
 20
0.4772449133106723
 30
0.0
 10
2.021159693588484
 20
0.4757029464704294
 30
0.0
 10
2.018870130260031
 20
0.4742995957476258
 30
0.0
 10
2.016364402427008
 20
0.473022243566912
 30
0.0
 10
2.013652075636768
 20
0.4718678928084051
 30
0.0
 10
2.011749228363634
 20
0.4712195607663587
 30
0.0
 10
2.010777417910209
 20
0.4708884486142451
 30
0.0
  0
SPLINE
  5
F7
330
1F
100
AcDbEntity
  8
0
  6
Continuous
 62
     7
370
    25
100
AcDbSpline
210
0.0
220
0.0
230
1.0
 70
     8
 71
     3
 72
    23
 73
    19
 74
     0
 42
0.000000001
 43
0.00000001
 40
0.0
 40
0.0
 40
0.0
 40
0.0
 40
0.0883185412756534
 40
0.170762818852027
 40
0.248112949730216
 40
0.3205380252872237
 40
0.3887318452674163
 40
0.4528948993793663
 40
0.5138277762110265
 40
0.5718103414573774
 40
0.6276941631943713
 40
0.6821529786681612
 40
0.7350705858118176
 40
0.7879872864828269
 40
0.8409148638009969
 40
0.8934284582672494
 40
0.9463433459463703
 40
1.0
 40
1.0
 40
1.0
 40
1.0
 10
2.17334838390359
 20
0.465053367877055
 30
0.0
 10
2.173404383656497
 20
0.4680193736244813
 30
0.0
 10
2.173512658493503
 20
0.4737541094437803
 30
0.0
 10
2.174282860646982
 20
0.482059449630542
 30
0.0
 10
2.175607710647347
 20
0.4897530587251093
 30
0.0
 10
2.177480147849212
 20
0.4968394149035916
 30
0.0
 10
2.179825541750695
 20
0.5033132036362225
 30
0.0
 10
2.182544602996858
 20
0.5092147120027546
 30
0.0
 10
2.18561084220779
 20
0.5145574011054034
 30
0.0
 10
2.189138459276689
 20
0.5192668440168453
 30
0.0
 10
2.192999634884815
 20
0.5234067999715124
 30
0.0
 10
2.197136674841112
 20
0.5270248803352157
 30
0.0
 10
2.20163171605104
 20
0.5300105228904856
 30
0.0
 10
2.206381118720374
 20
0.5324587974835082
 30
0.0
 10
2.211378513572681
 20
0.5343081902129335
 30
0.0
 10
2.216526336504303
 20
0.5356736516348453
 30
0.0
 10
2.221825160517799
 20
0.5364579034165118
 30
0.0
 10
2.225403995005826
 20
0.5365753744214092
 30
0.0
 10
2.227205867071456
 20
0.5366345187386319
 30
0.0
  0
SPLINE
  5
F8
330
1F
100
AcDbEntity
  8
0
  6
Continuous
 62
     7
370
    25
100
AcDbSpline
210
0.0
220
0.0
230
1.0
 70
     8
 71
     3
 72
    23
 73
    19
 74
     0
 42
0.000000001
 43
0.00000001
 40
0.0
 40
0.0
 40
0.0
 40
0.0
 40
0.0645442690844636
 40
0.126934281760056
 40
0.1887265654101714
 40
0.2498083354624791
 40
0.3098390008115388
 40
0.3692223034933715
 40
0.428683273743236
 40
0.4883798617341104
 40
0.5482501456441795
 40
0.6087657604725565
 40
0.6699858955025264
 40
0.7331387142663506
 40
0.7970632865401299
 40
0.8628148123436749
 40
0.9303182490782774
 40
0.9999999999999999
 40
0.9999999999999999
 40
0.9999999999999999
 40
0.9999999999999999
 10
2.856333662917626
 20
0.4977859865578712
 30
0.0
 10
2.856308726175276
 20
0.4967032403799047
 30
0.0
 10
2.856259684989676
 20
0.4945738862113911
 30
0.0
 10
2.855899226339655
 20
0.491425546937231
 30
0.0
 10
2.855353430718282
 20
0.4883637431101246
 30
0.0
 10
2.854535622807596
 20
0.4854026546552557
 30
0.0
 10
2.853504328465627
 20
0.4825538240477736
 30
0.0
 10
2.852258825226667
 20
0.4798195062684068
 30
0.0
 10
2.850747384044428
 20
0.4772298911966308
 30
0.0
 10
2.849036505843257
 20
0.4747580035840577
 30
0.0
 10
2.847089828607542
 20
0.4724437631083386
 30
0.0
 10
2.844939902682489
 20
0.4702793712291646
 30
0.0
 10
2.84253531490635
 20
0.4683156466132505
 30
0.0
 10
2.839968938549418
 20
0.4664705542107461
 30
0.0
 10
2.837170579326663
 20
0.4648380191706495
 30
0.0
 10
2.834168516185329
 20
0.463443114713096
 30
0.0
 10
2.83097802582313
 20
0.4622431586273558
 30
0.0
 10
2.828755315703045
 20
0.4616443122846917
 30
0.0
 10
2.827626313836261
 20
0.4613401346806607
 30
0.0
  0
SPLINE
  5
F9
330
1F
100
AcDbEntity
  8
0
  6
Continuous
 62
     7
370
    25
100
AcDbSpline
210
0.0
220
0.0
230
1.0
 70
     8
 71
     3
 72
    15
 73
    11
 74
     0
 42
0.000000001
 43
0.00000001
 40
0.0
 40
0.0
 40
0.0
 40
0.0
 40
0.1673918545870027
 40
0.3105326767827663
 40
0.4353739153206082
 40
0.548983950933743
 40
0.6555634230881737
 40
0.7631611935822926
 40
0.8757123458120043
 40
1.0
 40
1.0
 40
1.0
 40
1.0
 10
2.825348448093936
 20
0.4398720301502488
 30
0.0
 10
2.824632473803477
 20
0.4413975949451301
 30
0.0
 10
2.823304252585829
 20
0.4442277070824799
 30
0.0
 10
2.820965635155343
 20
0.4479438832972491
 30
0.0
 10
2.818543476991754
 20
0.4509379933350368
 30
0.0
 10
2.815919729770871
 20
0.4532398387775508
 30
0.0
 10
2.813057305762559
 20
0.4549191405070201
 30
0.0
 10
2.809938070947285
 20
0.456005619133438
 30
0.0
 10
2.806516775320323
 20
0.45663718633273
 30
0.0
 10
2.80413285473287
 20
0.4567132716830292
 30
0.0
 10
2.802881827073738
 20
0.456753199555704
 30
0.0
  0
SPLINE
  5
FA
330
1F
100
AcDbEntity
  8
0
  6
Continuous
 62
     7
370
    25
100
AcDbSpline
210
0.0
220
0.0
230
1.0
 70
     8
 71
     3
 72
    23
 73
    19
 74
     0
 42
0.000000001
 43
0.00000001
 40
0.0
 40
0.0
 40
0.0
 40
0.0
 40
0.0633260535318749
 40
0.1236454103603156
 40
0.1812826135194394
 40
0.2379768131268559
 40
0.2935407629237205
 40
0.3486816025440867
 40
0.4043209273922863
 40
0.4610035301292951
 40
0.5191347754940406
 40
0.5793491400874592
 40
0.6418444293279398
 40
0.7078704626648749
 40
0.7766051911033087
 40
0.8476526632479009
 40
0.9221245276930597
 40
1.0
 40
1.0
 40
1.0
 40
1.0
 10
2.037550141292612
 20
0.4385614772574036
 30
0.0
 10
2.037502369016861
 20
0.4369361101911823
 30
0.0
 10
2.037409092674666
 20
0.4337625478628759
 30
0.0
 10
2.036678108070272
 20
0.429156210796844
 30
0.0
 10
2.035495617373221
 20
0.4248243603929245
 30
0.0
 10
2.033806555993132
 20
0.4207911593098757
 30
0.0
 10
2.031655736243508
 20
0.4170643970098784
 30
0.0
 10
2.029160267120238
 20
0.4135901351422288
 30
0.0
 10
2.026197786303674
 20
0.4104611944428765
 30
0.0
 10
2.022839597957307
 20
0.4076469611645669
 30
0.0
 10
2.019102839020669
 20
0.4051412400502216
 30
0.0
 10
2.014998007223035
 20
0.402963507033284
 30
0.0
 10
2.010530857506116
 20
0.4010788093333303
 30
0.0
 10
2.005704764454931
 20
0.399533857788338
 30
0.0
 10
2.000558708188544
 20
0.3983307560369178
 30
0.0
 10
1.995128538689476
 20
0.3974466888570024
 30
0.0
 10
1.989411786582013
 20
0.3969620076675683
 30
0.0
 10
1.98550332615765
 20
0.3968827330292032
 30
0.0
 10
1.983505436282913
 20
0.3968422101685073
 30
0.0
  0
SPLINE
  5
FB
330
1F
100
AcDbEntity
  8
0
  6
Continuous
 62
     7
370
    25
100
AcDbSpline
210
0.0
220
0.0
230
1.0
 70
     8
 71
     3
 72
    23
 73
    19
 74
     0
 42
0.000000001
 43
0.00000001
 40
0.0
 40
0.0
 40
0.0
 40
0.0
 40
0.0633260535318749
 40
0.1236454103603156
 40
0.1812826135194394
 40
0.2379768131268559
 40
0.2935407629237205
 40
0.3486816025440867
 40
0.4043209273922863
 40
0.4610035301292951
 40
0.5191347754940406
 40
0.5793491400874592
 40
0.6418444293279398
 40
0.7078704626648749
 40
0.7766051911033087
 40
0.8476526632479009
 40
0.9221245276930597
 40
1.0
 40
1.0
 40
1.0
 40
1.0
 10
2.155375087087431
 20
0.4385614772574036
 30
0.0
 10
2.155327314811681
 20
0.4369361101911823
 30
0.0
 10
2.155234038469485
 20
0.4337625478628759
 30
0.0
 10
2.154503053865091
 20
0.429156210796844
 30
0.0
 10
2.15332056316804
 20
0.4248243603929245
 30
0.0
 10
2.151631501787952
 20
0.4207911593098757
 30
0.0
 10
2.149480682038327
 20
0.4170643970098784
 30
0.0
 10
2.146985212915058
 20
0.4135901351422288
 30
0.0
 10
2.144022732098493
 20
0.4104611944428765
 30
0.0
 10
2.140664543752127
 20
0.4076469611645669
 30
0.0
 10
2.136927784815488
 20
0.4051412400502216
 30
0.0
 10
2.132822953017855
 20
0.402963507033284
 30
0.0
 10
2.128355803300935
 20
0.4010788093333303
 30
0.0
 10
2.123529710249751
 20
0.399533857788338
 30
0.0
 10
2.118383653983363
 20
0.3983307560369178
 30
0.0
 10
2.112953484484295
 20
0.3974466888570024
 30
0.0
 10
2.107236732376833
 20
0.3969620076675683
 30
0.0
 10
2.10332827195247
 20
0.3968827330292032
 30
0.0
 10
2.101330382077732
 20
0.3968422101685073
 30
0.0
  0
SPLINE
  5
FC
330
1F
100
AcDbEntity
  8
0
  6
Continuous
 62
     7
370
    25
100
AcDbSpline
210
0.0
220
0.0
230
1.0
 70
     8
 71
     3
 72
    23
 73
    19
 74
     0
 42
0.000000001
 43
0.00000001
 40
0.0
 40
0.0
 40
0.0
 40
0.0
 40
0.0664750066251921
 40
0.1298691366212014
 40
0.1909170876040588
 40
0.2499362502088456
 40
0.3075602225872364
 40
0.3634113090814347
 40
0.4192531151601898
 40
0.4749632826029144
 40
0.5313346986072296
 40
0.5892934796499264
 40
0.6494922147887106
 40
0.7123114536155507
 40
0.7785606252979982
 40
0.8481967065368431
 40
0.9217767357109494
 40
1.0
 40
1.0
 40
1.0
 40
1.0
 10
2.58938652010124
 20
0.3948451771889341
 30
0.0
 10
2.58703300377973
 20
0.3948953382235558
 30
0.0
 10
2.58243504812368
 20
0.3949933355098914
 30
0.0
 10
2.575723558622618
 20
0.3958687799943784
 30
0.0
 10
2.569364140279292
 20
0.3972154608788445
 30
0.0
 10
2.563369400059114
 20
0.3991558811126797
 30
0.0
 10
2.557783077813532
 20
0.4016459278221823
 30
0.0
 10
2.552598054189937
 20
0.4046737335710438
 30
0.0
 10
2.547843665460131
 20
0.408230974798822
 30
0.0
 10
2.543536782232144
 20
0.4123481939267948
 30
0.0
 10
2.539717467202947
 20
0.4170137655569571
 30
0.0
 10
2.53631234774236
 20
0.4221839868729483
 30
0.0
 10
2.533475901444504
 20
0.4279394788165425
 30
0.0
 10
2.531007058765623
 20
0.4341750921849566
 30
0.0
 10
2.529121727811718
 20
0.4409638277449018
 30
0.0
 10
2.527803842643856
 20
0.4482656854675288
 30
0.0
 10
2.526977587005756
 20
0.4560686235708631
 30
0.0
 10
2.526875715184628
 20
0.4614420020789274
 30
0.0
 10
2.526823221288047
 20
0.4642108695887974
 30
0.0
  0
SPLINE
  5
FD
330
1F
100
AcDbEntity
  8
0
  6
Continuous
 62
     7
370
    25
100
AcDbSpline
210
0.0
220
0.0
230
1.0
 70
     8
 71
     3
 72
    23
 73
    19
 74
     0
 42
0.000000001
 43
0.00000001
 40
0.0
 40
0.0
 40
0.0
 40
0.0
 40
0.0644875470664177
 40
0.1254843373721425
 40
0.1831673823408934
 40
0.2389312773785313
 40
0.293523537046911
 40
0.3476407773461533
 40
0.4016769044177245
 40
0.4571504352103997
 40
0.5140819907875336
 40
0.5738104218972503
 40
0.6359679882252669
 40
0.7017169949564618
 40
0.7710712621534348
 40
0.8434520464853931
 40
0.9197806054801807
 40
1.0
 40
1.0
 40
1.0
 40
1.0
 10
2.227205867071456
 20
0.5366345187386319
 30
0.0
 10
2.229330849388059
 20
0.536574721734372
 30
0.0
 10
2.233465787218025
 20
0.5364583645801978
 30
0.0
 10
2.239449509311003
 20
0.5355553948635079
 30
0.0
 10
2.245001024140216
 20
0.5340194552933938
 30
0.0
 10
2.25012554044184
 20
0.5318869915762314
 30
0.0
 10
2.254838192352164
 20
0.5291847257065595
 30
0.0
 10
2.259133775917125
 20
0.5259547151675488
 30
0.0
 10
2.263022792074584
 20
0.5222005879249496
 30
0.0
 10
2.266443127569538
 20
0.517897882067122
 30
0.0
 10
2.269490430433489
 20
0.5131057124663733
 30
0.0
 10
2.272148044709899
 20
0.5078352628697759
 30
0.0
 10
2.27431071343729
 20
0.5020350601856081
 30
0.0
 10
2.276122170359349
 20
0.4957884932240531
 30
0.0
 10
2.277504197124525
 20
0.4890878887786795
 30
0.0
 10
2.278497175281068
 20
0.4819694985725095
 30
0.0
 10
2.279096727053544
 20
0.4744456618635124
 30
0.0
 10
2.279159146442304
 20
0.4692877874991232
 30
0.0
 10
2.27919113182097
 20
0.4666447535326524
 30
0.0
  0
SPLINE
  5
FE
330
1F
100
AcDbEntity
  8
0
  6
Continuous
 62
     7
370
    25
100
AcDbSpline
210
0.0
220
0.0
230
1.0
 70
     8
 71
     3
 72
    23
 73
    19
 74
     0
 42
0.000000001
 43
0.00000001
 40
0.0
 40
0.0
 40
0.0
 40
0.0
 40
0.0643822159306435
 40
0.1249677463958906
 40
0.1827770043240014
 40
0.2383292134073841
 40
0.2928323044691578
 40
0.3464198064162162
 40
0.400587327474265
 40
0.455970250230664
 40
0.5129066301956673
 40
0.5725400029265809
 40
0.6348907650354867
 40
0.700748488616926
 40
0.7702344352114288
 40
0.8430783624905461
 40
0.9195964992924067
 40
1.0
 40
1.0
 40
1.0
 40
1.0
 10
2.225115223170965
 20
0.3948451771889341
 30
0.0
 10
2.222989885229286
 20
0.3949031895855999
 30
0.0
 10
2.218864542709432
 20
0.3950157933282566
 30
0.0
 10
2.212888544976964
 20
0.3959409256123446
 30
0.0
 10
2.207331504141445
 20
0.3974224950454769
 30
0.0
 10
2.202188263335594
 20
0.3995251640968517
 30
0.0
 10
2.197499034810714
 20
0.4022299249374279
 30
0.0
 10
2.193194323068768
 20
0.4054372186204876
 30
0.0
 10
2.189342524743906
 20
0.4092193896347016
 30
0.0
 10
2.185898009448346
 20
0.4135146185505448
 30
0.0
 10
2.182887667746261
 20
0.4183388456090034
 30
0.0
 10
2.18031269306082
 20
0.4236618136556369
 30
0.0
 10
2.178123570171397
 20
0.4294690370757199
 30
0.0
 10
2.176360204830987
 20
0.4357568202842268
 30
0.0
 10
2.174998151438434
 20
0.4424960358296317
 30
0.0
 10
2.17405450041923
 20
0.4496589790320623
 30
0.0
 10
2.173439742339505
 20
0.4572208895627958
 30
0.0
 10
2.173379335273183
 20
0.4623997986832731
 30
0.0
 10
2.17334838390359
 20
0.465053367877055
 30
0.0
  0
SPLINE
  5
FF
330
1F
100
AcDbEntity
  8
0
  6
Continuous
 62
     7
370
    25
100
AcDbSpline
210
0.0
220
0.0
230
1.0
 70
     8
 71
     3
 72
    23
 73
    19
 74
     0
 42
0.000000001
 43
0.00000001
 40
0.0
 40
0.0
 40
0.0
 40
0.0
 40
0.0889426733846294
 40
0.1717495496105865
 40
0.2491397580278965
 40
0.321695515110538
 40
0.3897623480778747
 40
0.4537064033341819
 40
0.5145872295454184
 40
0.572619522408351
 40
0.6283126036455575
 40
0.6821501603003114
 40
0.7354013723096047
 40
0.7884122765523393
 40
0.8411592035098793
 40
0.8937922041332573
 40
0.9465264847635315
 40
1.0
 40
1.0
 40
1.0
 40
1.0
 10
2.27919113182097
 20
0.4666447535326524
 30
0.0
 10
2.279139344294083
 20
0.4636471538277496
 30
0.0
 10
2.279039341853411
 20
0.4578587467601585
 30
0.0
 10
2.278215608138527
 20
0.4494953574125249
 30
0.0
 10
2.276909381481891
 20
0.4417538842540413
 30
0.0
 10
2.275003596925586
 20
0.4346464721211106
 30
0.0
 10
2.272611364712839
 20
0.4281745654959767
 30
0.0
 10
2.269911560857478
 20
0.4222529597414618
 30
0.0
 10
2.266788091880901
 20
0.4169288387820225
 30
0.0
 10
2.263289263396069
 20
0.4121824690358574
 30
0.0
 10
2.259422715937028
 20
0.4080548808474678
 30
0.0
 10
2.255290057674666
 20
0.4044264479883201
 30
0.0
 10
2.250754417579237
 20
0.4014784596703964
 30
0.0
 10
2.24597914810159
 20
0.3990267919764117
 30
0.0
 10
2.240965116745942
 20
0.397164974277945
 30
0.0
 10
2.235803886910647
 20
0.3958107929039002
 30
0.0
 10
2.230496145404291
 20
0.395020960625881
 30
0.0
 10
2.226917167462642
 20
0.3949040429273781
 30
0.0
 10
2.225115223170965
 20
0.3948451771889341
 30
0.0
  0
SPLINE
  5
100
330
1F
100
AcDbEntity
  8
0
  6
Continuous
 62
     7
370
    25
100
AcDbSpline
210
0.0
220
0.0
230
1.0
 70
     8
 71
     3
 72
    21
 73
    17
 74
     0
 42
0.000000001
 43
0.00000001
 40
0.0
 40
0.0
 40
0.0
 40
0.0
 40
0.1193489637753372
 40
0.2383531199390013
 40
0.2981936897039681
 40
0.3568112946137001
 40
0.4157921536839354
 40
0.4750596628706952
 40
0.5350861696029581
 40
0.5959423628256214
 40
0.6578312767354683
 40
0.7218988600038775
 40
0.7878379443417338
 40
0.8556139880323037
 40
0.9263566339288621
 40
1.0
 40
1.0
 40
1.0
 40
1.0
 10
2.010777417910209
 20
0.4708884486142451
 30
0.0
 10
2.012552688912804
 20
0.470464706036565
 30
0.0
 10
2.016098102034298
 20
0.4696184451035306
 30
0.0
 10
2.020272167323761
 20
0.4677407009916267
 30
0.0
 10
2.023425452722083
 20
0.4659475521326887
 30
0.0
 10
2.025624370377002
 20
0.4643584785466199
 30
0.0
 10
2.027690752479969
 20
0.462616864259669
 30
0.0
 10
2.029598973261675
 20
0.4606710563590283
 30
0.0
 10
2.031350821551179
 20
0.4585476293146158
 30
0.0
 10
2.032923726890189
 20
0.4562363193924426
 30
0.0
 10
2.034251276347613
 20
0.4537089543120443
 30
0.0
 10
2.035460704931577
 20
0.451037206634367
 30
0.0
 10
2.036382620185809
 20
0.4481561381491163
 30
0.0
 10
2.037078740789789
 20
0.4451105659956234
 30
0.0
 10
2.037487854996394
 20
0.4418906650347708
 30
0.0
 10
2.037529102969452
 20
0.4396859706463841
 30
0.0
 10
2.037550141292612
 20
0.4385614772574036
 30
0.0
  0
SPLINE
  5
101
330
1F
100
AcDbEntity
  8
0
  6
Continuous
 62
     7
370
    25
100
AcDbSpline
210
0.0
220
0.0
230
1.0
 70
     8
 71
     3
 72
    23
 73
    19
 74
     0
 42
0.000000001
 43
0.00000001
 40
0.0
 40
0.0
 40
0.0
 40
0.0
 40
0.0868773302242269
 40
0.1675014716055805
 40
0.2427475008353456
 40
0.312660341639304
 40
0.3779946034993794
 40
0.4397338850260961
 40
0.4985052936180581
 40
0.5543760393236224
 40
0.6088184466666485
 40
0.6619725906622708
 40
0.71526957509753
 40
0.769273054706472
 40
0.8244991354528817
 40
0.8807629267760531
 40
0.9393973148271847
 40
1.0
 40
1.0
 40
1.0
 40
1.0
 10
2.811088384474171
 20
0.5346374857590587
 30
0.0
 10
2.813013831276904
 20
0.5346125393272825
 30
0.0
 10
2.81672613657132
 20
0.534564442038576
 30
0.0
 10
2.822086351733483
 20
0.5340574138459143
 30
0.0
 10
2.827027420641025
 20
0.5332394745689512
 30
0.0
 10
2.831541725256087
 20
0.5320428121765278
 30
0.0
 10
2.835659858109691
 20
0.5305805789566811
 30
0.0
 10
2.839395931829568
 20
0.5288331809910313
 30
0.0
 10
2.842750456302976
 20
0.5268107460264434
 30
0.0
 10
2.845710615906815
 20
0.5245031306479427
 30
0.0
 10
2.848327495511552
 20
0.5219848286898946
 30
0.0
 10
2.850523558456453
 20
0.519164020335478
 30
0.0
 10
2.852385784381197
 20
0.5161257259756635
 30
0.0
 10
2.85384726780704
 20
0.5128236192608921
 30
0.0
 10
2.854955411270591
 20
0.5093228993146972
 30
0.0
 10
2.855782578146657
 20
0.5056401612307662
 30
0.0
 10
2.856244379152252
 20
0.5017711507979937
 30
0.0
 10
2.856303575933679
 20
0.4991289134832591
 30
0.0
 10
2.856333662917626
 20
0.4977859865578712
 30
0.0
  0
SPLINE
  5
102
330
1F
100
AcDbEntity
  8
0
  6
Continuous
 62
     7
370
    25
100
AcDbSpline
210
0.0
220
0.0
230
1.0
 70
     8
 71
     3
 72
    21
 73
    17
 74
     0
 42
0.000000001
 43
0.00000001
 40
0.0
 40
0.0
 40
0.0
 40
0.0
 40
0.1193489637753372
 40
0.2383531199390013
 40
0.2981936897039681
 40
0.3568112946137001
 40
0.4157921536839354
 40
0.4750596628706952
 40
0.5350861696029581
 40
0.5959423628256214
 40
0.6578312767354683
 40
0.7218988600038775
 40
0.7878379443417338
 40
0.8556139880323037
 40
0.9263566339288621
 40
1.0
 40
1.0
 40
1.0
 40
1.0
 10
2.128602363705028
 20
0.4708884486142451
 30
0.0
 10
2.130377634707624
 20
0.470464706036565
 30
0.0
 10
2.133923047829117
 20
0.4696184451035306
 30
0.0
 10
2.138097113118581
 20
0.4677407009916267
 30
0.0
 10
2.141250398516902
 20
0.4659475521326887
 30
0.0
 10
2.143449316171822
 20
0.4643584785466199
 30
0.0
 10
2.145515698274788
 20
0.462616864259669
 30
0.0
 10
2.147423919056494
 20
0.4606710563590283
 30
0.0
 10
2.149175767345998
 20
0.4585476293146158
 30
0.0
 10
2.150748672685008
 20
0.4562363193924426
 30
0.0
 10
2.152076222142432
 20
0.4537089543120443
 30
0.0
 10
2.153285650726396
 20
0.451037206634367
 30
0.0
 10
2.154207565980629
 20
0.4481561381491163
 30
0.0
 10
2.154903686584608
 20
0.4451105659956234
 30
0.0
 10
2.155312800791214
 20
0.4418906650347708
 30
0.0
 10
2.155354048764272
 20
0.4396859706463841
 30
0.0
 10
2.155375087087431
 20
0.4385614772574036
 30
0.0
  0
SPLINE
  5
103
330
1F
100
AcDbEntity
  8
0
  6
Continuous
 62
     7
370
    25
100
AcDbSpline
210
0.0
220
0.0
230
1.0
 70
     8
 71
     3
 72
    23
 73
    19
 74
     0
 42
0.000000001
 43
0.00000001
 40
0.0
 40
0.0
 40
0.0
 40
0.0
 40
0.0742252771806091
 40
0.1452246251349341
 40
0.2126888929148227
 40
0.2779431301589962
 40
0.3406829667072273
 40
0.4014210807773974
 40
0.4601092411464427
 40
0.5180957302352653
 40
0.5755133445412524
 40
0.6326683894261576
 40
0.6904145715872785
 40
0.7491594371175414
 40
0.8094359727667946
 40
0.8709469375778517
 40
0.9344445163449592
 40
1.0
 40
1.0
 40
1.0
 40
1.0
 10
2.526823221288047
 20
0.4642108695887974
 30
0.0
 10
2.526883916734574
 20
0.4669695433151326
 30
0.0
 10
2.527002669722828
 20
0.4723669951400942
 30
0.0
 10
2.527905137120404
 20
0.480232278152984
 30
0.0
 10
2.529441172984461
 20
0.4876547093824536
 30
0.0
 10
2.531549316676526
 20
0.494616501481361
 30
0.0
 10
2.534234782475348
 20
0.501109324690606
 30
0.0
 10
2.53746247359012
 20
0.5070710395993286
 30
0.0
 10
2.541121012760854
 20
0.5125701745052613
 30
0.0
 10
2.545323342417683
 20
0.5175074629088956
 30
0.0
 10
2.549983293190706
 20
0.5219315202019108
 30
0.0
 10
2.555113142321954
 20
0.5257849412499527
 30
0.0
 10
2.560652523634119
 20
0.5291202933278106
 30
0.0
 10
2.566652764751406
 20
0.5318271700851899
 30
0.0
 10
2.573019227540165
 20
0.5339729647571086
 30
0.0
 10
2.579732869850961
 20
0.5355485959542126
 30
0.0
 10
2.586771906721843
 20
0.5364505671027856
 30
0.0
 10
2.591568247030755
 20
0.5365725531225268
 30
0.0
 10
2.594004658866502
 20
0.5366345187386319
 30
0.0
  0
SPLINE
  5
107
330
1F
100
AcDbEntity
  8
0
  6
Continuous
 62
     7
370
    25
100
AcDbSpline
210
0.0
220
0.0
230
1.0
 70
     8
 71
     3
 72
    21
 73
    17
 74
     0
 42
0.000000001
 43
0.00000001
 40
0.0
 40
0.0
 40
0.0
 40
0.0
 40
0.1048107603491775
 40
0.2057872535497634
 40
0.2552082568884614
 40
0.305332201771761
 40
0.3546722312657836
 40
0.4066370344808526
 40
0.4608426921562802
 40
0.518964044973643
 40
0.582208515955154
 40
0.6511354365166091
 40
0.7259770992546095
 40
0.8086500759068581
 40
0.9003756127110933
 40
1.0
 40
1.0
 40
1.0
 40
1.0
 10
2.013585745537733
 20
0.4989717248894939
 30
0.0
 10
2.013528433898628
 20
0.5003086845488315
 30
0.0
 10
2.013415907238497
 20
0.5029336941898767
 30
0.0
 10
2.012606558117839
 20
0.5061087352896563
 30
0.0
 10
2.011658718449738
 20
0.5084853796125253
 30
0.0
 10
2.010699342722304
 20
0.5101321918327031
 30
0.0
 10
2.009473658822637
 20
0.5116306610415962
 30
0.0
 10
2.008033488055217
 20
0.512996789762057
 30
0.0
 10
2.006365085802712
 20
0.5142711532342163
 30
0.0
 10
2.004399937827863
 20
0.5153532624414355
 30
0.0
 10
2.002172926746764
 20
0.5163178709149164
 30
0.0
 10
1.999669460515901
 20
0.517158431840842
 30
0.0
 10
1.996864846600838
 20
0.5178491781802907
 30
0.0
 10
1.993724332054224
 20
0.5183447481603027
 30
0.0
 10
1.990239688695123
 20
0.5186101197239251
 30
0.0
 10
1.987801570681379
 20
0.5186437254459109
 30
0.0
 10
1.986532189392578
 20
0.5186612219224729
 30
0.0
  0
SPLINE
  5
108
330
1F
100
AcDbEntity
  8
0
  6
Continuous
 62
     7
370
    25
100
AcDbSpline
210
0.0
220
0.0
230
1.0
 70
     8
 71
     3
 72
    21
 73
    17
 74
     0
 42
0.000000001
 43
0.00000001
 40
0.0
 40
0.0
 40
0.0
 40
0.0
 40
0.1481099039642273
 40
0.2834111377086895
 40
0.3473298973787515
 40
0.4080164734869347
 40
0.4665361356180682
 40
0.5238711608478812
 40
0.5798789656630172
 40
0.6357582137558793
 40
0.6911959771072469
 40
0.747667346791907
 40
0.8060331849591
 40
0.8668726428551391
 40
0.9310300546049198
 40
1.0
 40
1.0
 40
1.0
 40
1.0
 10
1.985908116586461
 20
0.4767235293514351
 30
0.0
 10
1.98789914757529
 20
0.4767875595888477
 30
0.0
 10
1.991709023502924
 20
0.4769100826743887
 30
0.0
 10
1.996318932123389
 20
0.4777385002567974
 30
0.0
 10
1.999679956482353
 20
0.4787128850751738
 30
0.0
 10
2.001927271580354
 20
0.4797231670094917
 30
0.0
 10
2.004053355059847
 20
0.4807837599416096
 30
0.0
 10
2.0059475609161
 20
0.4821158690094396
 30
0.0
 10
2.007688181608702
 20
0.4835839170721531
 30
0.0
 10
2.009215618683243
 20
0.4852414177173207
 30
0.0
 10
2.010546204368058
 20
0.4870682202822935
 30
0.0
 10
2.011639681256809
 20
0.4890843613435235
 30
0.0
 10
2.012522374601112
 20
0.4912798567974241
 30
0.0
 10
2.01313870833602
 20
0.4936707499720297
 30
0.0
 10
2.013521677972951
 20
0.4962550364118704
 30
0.0
 10
2.013563881136828
 20
0.4980445979382568
 30
0.0
 10
2.013585745537733
 20
0.4989717248894939
 30
0.0
  0
SPLINE
  5
109
330
1F
100
AcDbEntity
  8
0
  6
Continuous
 62
     7
370
    25
100
AcDbSpline
210
0.0
220
0.0
230
1.0
 70
     8
 71
     3
 72
    23
 73
    19
 74
     0
 42
0.000000001
 43
0.00000001
 40
0.0
 40
0.0
 40
0.0
 40
0.0
 40
0.0585566710462204
 40
0.1137809323391002
 40
0.1673017532540758
 40
0.2204245097997606
 40
0.2739381196097578
 40
0.3279881077179524
 40
0.3836976637416865
 40
0.441483109391835
 40
0.5021868200553871
 40
0.5649165221081733
 40
0.6310585614994579
 40
0.700003142041531
 40
0.7722201714817917
 40
0.8460517053743599
 40
0.9217899981312706
 40
0.9999999999999999
 40
0.9999999999999999
 40
0.9999999999999999
 40
0.9999999999999999
 10
2.226176146941362
 20
0.4108214410255199
 30
0.0
 10
2.227563884409772
 20
0.410873742958215
 30
0.0
 10
2.230260384401597
 20
0.4109753703656275
 30
0.0
 10
2.23415239439446
 20
0.41181279320081
 30
0.0
 10
2.23775786411289
 20
0.4131554568590295
 30
0.0
 10
2.241055501569976
 20
0.4150597167533651
 30
0.0
 10
2.24406300409006
 20
0.4174103209322177
 30
0.0
 10
2.246753785798601
 20
0.4201994883423033
 30
0.0
 10
2.249203393705767
 20
0.4233297803945041
 30
0.0
 10
2.251353918262194
 20
0.4268589782116735
 30
0.0
 10
2.253243746222154
 20
0.4307172281783266
 30
0.0
 10
2.254869413789404
 20
0.4349062187828731
 30
0.0
 10
2.256240096373288
 20
0.4393902036250734
 30
0.0
 10
2.257306320112932
 20
0.4441845625669945
 30
0.0
 10
2.258191717005699
 20
0.4492004636920672
 30
0.0
 10
2.258754838633303
 20
0.4544240465198393
 30
0.0
 10
2.2591553437165
 20
0.4598049326465761
 30
0.0
 10
2.259198750284999
 20
0.4634507968851401
 30
0.0
 10
2.259220802025238
 20
0.4653029969995012
 30
0.0
  0
SPLINE
  5
10A
330
1F
100
AcDbEntity
  8
0
  6
Continuous
 62
     7
370
    25
100
AcDbSpline
210
0.0
220
0.0
230
1.0
 70
     8
 71
     3
 72
    23
 73
    19
 74
     0
 42
0.000000001
 43
0.00000001
 40
0.0
 40
0.0
 40
0.0
 40
0.0
 40
0.0586315032822169
 40
0.1142681412147278
 40
0.168014160811074
 40
0.2208233746572737
 40
0.2740594618699003
 40
0.3278720288932273
 40
0.3836527786950399
 40
0.4412825860505799
 40
0.501680733227432
 40
0.5644906004225347
 40
0.6310115398627073
 40
0.7005718525414792
 40
0.7728075618617445
 40
0.846733448433
 40
0.9221297708678081
 40
1.0
 40
1.0
 40
1.0
 40
1.0
 10
2.226176146941362
 20
0.5206582549020461
 30
0.0
 10
2.224789643672087
 20
0.5206005468354191
 30
0.0
 10
2.222087458967636
 20
0.5204880783988726
 30
0.0
 10
2.218166942221989
 20
0.5197211777597421
 30
0.0
 10
2.214577068703405
 20
0.5183205062975182
 30
0.0
 10
2.21129533159844
 20
0.5164215972595407
 30
0.0
 10
2.208318099949883
 20
0.5140689324528637
 30
0.0
 10
2.205662147259882
 20
0.5112694568208687
 30
0.0
 10
2.20320989924695
 20
0.5081581537438501
 30
0.0
 10
2.201084668415779
 20
0.5046268128933086
 30
0.0
 10
2.199281660976709
 20
0.50074526697106
 30
0.0
 10
2.197616272493343
 20
0.4965735763402124
 30
0.0
 10
2.196324135474026
 20
0.4920457578382054
 30
0.0
 10
2.195180817578552
 20
0.4872519396324224
 30
0.0
 10
2.194362496140615
 20
0.4822122186896817
 30
0.0
 10
2.193782278167577
 20
0.4770043120610171
 30
0.0
 10
2.193384973645564
 20
0.471643413127328
 30
0.0
 10
2.193341036746223
 20
0.4680184408006008
 30
0.0
 10
2.193318713699322
 20
0.4661766989280647
 30
0.0
  0
SPLINE
  5
10B
330
1F
100
AcDbEntity
  8
0
  6
Continuous
 62
     7
370
    25
100
AcDbSpline
210
0.0
220
0.0
230
1.0
 70
     8
 71
     3
 72
    23
 73
    19
 74
     0
 42
0.000000001
 43
0.00000001
 40
0.0
 40
0.0
 40
0.0
 40
0.0
 40
0.0837837865740329
 40
0.1633737810051984
 40
0.2401936209728499
 40
0.3131701281876137
 40
0.3825315346574276
 40
0.4477136714610435
 40
0.5094692673622429
 40
0.5683725021777571
 40
0.6242112973077644
 40
0.6780250935914041
 40
0.7302423316221455
 40
0.781711566987076
 40
0.8330937936507292
 40
0.8862171938651231
 40
0.9411759468775163
 40
0.9999999999999999
 40
0.9999999999999999
 40
0.9999999999999999
 40
0.9999999999999999
 10
2.193318713699322
 20
0.4661766989280647
 30
0.0
 10
2.193343249349046
 20
0.4641583027737092
 30
0.0
 10
2.193391092518098
 20
0.4602225411569655
 30
0.0
 10
2.193747690476907
 20
0.4544455525814416
 30
0.0
 10
2.194286282525465
 20
0.4489443322522925
 30
0.0
 10
2.195096406710976
 20
0.4437246794207549
 30
0.0
 10
2.196140603239652
 20
0.4388326263985193
 30
0.0
 10
2.197452337287987
 20
0.4342852115975576
 30
0.0
 10
2.19900495353718
 20
0.4300818867171943
 30
0.0
 10
2.200829088039268
 20
0.4262323418455183
 30
0.0
 10
2.202970496502484
 20
0.4227752583191882
 30
0.0
 10
2.205357286203613
 20
0.4196756646815458
 30
0.0
 10
2.208118504091131
 20
0.4170598692318353
 30
0.0
 10
2.211073135691138
 20
0.4147552782633592
 30
0.0
 10
2.214415639033371
 20
0.4129987445764475
 30
0.0
 10
2.218047840843154
 20
0.4117139053935638
 30
0.0
 10
2.222015496918146
 20
0.4109524912575444
 30
0.0
 10
2.224758206199942
 20
0.4108661026678407
 30
0.0
 10
2.226176146941363
 20
0.4108214410255199
 30
0.0
  0
SPLINE
  5
10C
330
1F
100
AcDbEntity
  8
0
  6
Continuous
 62
     7
370
    25
100
AcDbSpline
210
0.0
220
0.0
230
1.0
 70
     8
 71
     3
 72
    23
 73
    19
 74
     0
 42
0.000000001
 43
0.00000001
 40
0.0
 40
0.0
 40
0.0
 40
0.0
 40
0.0827295999635539
 40
0.1621119095966072
 40
0.2379431615962193
 40
0.3106867198481625
 40
0.3797986252255623
 40
0.4452446647606601
 40
0.5072619480488622
 40
0.5662172357349567
 40
0.6225206623707624
 40
0.6762106296450343
 40
0.7289168486551353
 40
0.7803543119827238
 40
0.8322014416117155
 40
0.8852026014625386
 40
0.9408812529247711
 40
1.0
 40
1.0
 40
1.0
 40
1.0
 10
2.259220802025238
 20
0.4653029969995012
 30
0.0
 10
2.259190600722224
 20
0.4673001992745358
 30
0.0
 10
2.259131420079429
 20
0.4712137957962061
 30
0.0
 10
2.258851747291139
 20
0.4769551969063561
 30
0.0
 10
2.258226583922799
 20
0.4824257953311142
 30
0.0
 10
2.257477534297341
 20
0.4876291546154722
 30
0.0
 10
2.256463866984512
 20
0.4925356440804718
 30
0.0
 10
2.2551445193065
 20
0.4970983997600775
 30
0.0
 10
2.25361158200327
 20
0.5013362477587878
 30
0.0
 10
2.251730801480216
 20
0.5051908919368062
 30
0.0
 10
2.249577848817932
 20
0.5086622161543349
 30
0.0
 10
2.247169886522456
 20
0.5117801409140165
 30
0.0
 10
2.244410181692446
 20
0.5144262730767712
 30
0.0
 10
2.241382508363142
 20
0.5166834884978634
 30
0.0
 10
2.238048068897219
 20
0.5184826502744084
 30
0.0
 10
2.234377948512179
 20
0.519773537692032
 30
0.0
 10
2.230377620725385
 20
0.5205239127727758
 30
0.0
 10
2.22760434019568
 20
0.5206125884210305
 30
0.0
 10
2.226176146941362
 20
0.5206582549020461
 30
0.0
  0
SPLINE
  5
110
330
1F
100
AcDbEntity
  8
0
  6
Continuous
 62
     7
370
    25
100
AcDbSpline
210
0.0
220
0.0
230
1.0
 70
     8
 71
     3
 72
    21
 73
    17
 74
     0
 42
0.000000001
 43
0.00000001
 40
0.0
 40
0.0
 40
0.0
 40
0.0
 40
0.1481099039642273
 40
0.2834111377086895
 40
0.3473298973787515
 40
0.4080164734869347
 40
0.4665361356180682
 40
0.5238711608478812
 40
0.5798789656630172
 40
0.6357582137558793
 40
0.6911959771072469
 40
0.747667346791907
 40
0.8060331849591
 40
0.8668726428551391
 40
0.9310300546049198
 40
1.0
 40
1.0
 40
1.0
 40
1.0
 10
2.103733062381281
 20
0.4767235293514351
 30
0.0
 10
2.10572409337011
 20
0.4767875595888477
 30
0.0
 10
2.109533969297743
 20
0.4769100826743887
 30
0.0
 10
2.114143877918209
 20
0.4777385002567974
 30
0.0
 10
2.117504902277172
 20
0.4787128850751738
 30
0.0
 10
2.119752217375174
 20
0.4797231670094917
 30
0.0
 10
2.121878300854666
 20
0.4807837599416096
 30
0.0
 10
2.123772506710919
 20
0.4821158690094396
 30
0.0
 10
2.125513127403521
 20
0.4835839170721531
 30
0.0
 10
2.127040564478062
 20
0.4852414177173207
 30
0.0
 10
2.128371150162877
 20
0.4870682202822935
 30
0.0
 10
2.129464627051628
 20
0.4890843613435235
 30
0.0
 10
2.130347320395932
 20
0.4912798567974241
 30
0.0
 10
2.13096365413084
 20
0.4936707499720297
 30
0.0
 10
2.13134662376777
 20
0.4962550364118704
 30
0.0
 10
2.131388826931647
 20
0.4980445979382568
 30
0.0
 10
2.131410691332552
 20
0.4989717248894939
 30
0.0
  0
SPLINE
  5
111
330
1F
100
AcDbEntity
  8
0
  6
Continuous
 62
     7
370
    25
100
AcDbSpline
210
0.0
220
0.0
230
1.0
 70
     8
 71
     3
 72
    21
 73
    17
 74
     0
 42
0.000000001
 43
0.00000001
 40
0.0
 40
0.0
 40
0.0
 40
0.0
 40
0.1048107603491781
 40
0.2057872535497624
 40
0.2552082568884605
 40
0.3053322017717602
 40
0.3546722312657828
 40
0.4066370344808519
 40
0.4608426921562795
 40
0.5189640449736423
 40
0.5822085159551534
 40
0.6511354365166087
 40
0.7259770992546093
 40
0.8086500759068579
 40
0.9003756127110932
 40
1.0
 40
1.0
 40
1.0
 40
1.0
 10
2.131410691332553
 20
0.4989717248894939
 30
0.0
 10
2.131353379693448
 20
0.5003086845488315
 30
0.0
 10
2.131240853033317
 20
0.5029336941898778
 30
0.0
 10
2.130431503912658
 20
0.5061087352896563
 30
0.0
 10
2.129483664244557
 20
0.5084853796125253
 30
0.0
 10
2.128524288517123
 20
0.5101321918327031
 30
0.0
 10
2.127298604617456
 20
0.5116306610415962
 30
0.0
 10
2.125858433850036
 20
0.512996789762057
 30
0.0
 10
2.124190031597531
 20
0.5142711532342163
 30
0.0
 10
2.122224883622683
 20
0.5153532624414355
 30
0.0
 10
2.119997872541583
 20
0.5163178709149164
 30
0.0
 10
2.117494406310721
 20
0.517158431840842
 30
0.0
 10
2.114689792395656
 20
0.5178491781802907
 30
0.0
 10
2.111549277849043
 20
0.5183447481603027
 30
0.0
 10
2.108064634489943
 20
0.5186101197239251
 30
0.0
 10
2.105626516476198
 20
0.5186437254459098
 30
0.0
 10
2.104357135187397
 20
0.5186612219224729
 30
0.0
  0
SPLINE
  5
115
330
1F
100
AcDbEntity
  8
0
  6
Continuous
 62
     7
370
    25
100
AcDbSpline
210
0.0
220
0.0
230
1.0
 70
     8
 71
     3
 72
    23
 73
    19
 74
     0
 42
0.000000001
 43
0.00000001
 40
0.0
 40
0.0
 40
0.0
 40
0.0
 40
0.0829188246341178
 40
0.1598938815039352
 40
0.2325564233819792
 40
0.3006958272261037
 40
0.3637556764832331
 40
0.4236747435210383
 40
0.4807003096789212
 40
0.5348597706980012
 40
0.5877167410054575
 40
0.6406978721524935
 40
0.6942911149704579
 40
0.749752095511325
 40
0.8069461275197133
 40
0.8672827812805199
 40
0.9314383149165598
 40
1.0
 40
1.0
 40
1.0
 40
1.0
 10
2.104606764309844
 20
0.4128184740050931
 30
0.0
 10
2.105865957194474
 20
0.4128345339852247
 30
0.0
 10
2.108294081794336
 20
0.4128655027377544
 30
0.0
 10
2.111815166824577
 20
0.4131562454898426
 30
0.0
 10
2.115094610005203
 20
0.4136005507485338
 30
0.0
 10
2.11811488342004
 20
0.4142947824494264
 30
0.0
 10
2.120893483419597
 20
0.4151366452866145
 30
0.0
 10
2.123438814117443
 20
0.4161492778465692
 30
0.0
 10
2.125713572913181
 20
0.4174134398704882
 30
0.0
 10
2.127782001897149
 20
0.4188116396988673
 30
0.0
 10
2.129574347433623
 20
0.4204627910635044
 30
0.0
 10
2.131152081225299
 20
0.4223077683749192
 30
0.0
 10
2.132464168708629
 20
0.4243975830474695
 30
0.0
 10
2.13355891313106
 20
0.4266776354572463
 30
0.0
 10
2.134405566462283
 20
0.4291706989990579
 30
0.0
 10
2.134992190094539
 20
0.4318711105245298
 30
0.0
 10
2.135330605444489
 20
0.4347876206307396
 30
0.0
 10
2.135379498928798
 20
0.4368027685647826
 30
0.0
 10
2.135404757291699
 20
0.4378437935303697
 30
0.0
  0
SPLINE
  5
116
330
1F
100
AcDbEntity
  8
0
  6
Continuous
 62
     7
370
    25
100
AcDbSpline
210
0.0
220
0.0
230
1.0
 70
     8
 71
     3
 72
    23
 73
    19
 74
     0
 42
0.000000001
 43
0.00000001
 40
0.0
 40
0.0
 40
0.0
 40
0.0
 40
0.0592778177595662
 40
0.116391397369272
 40
0.1721478876575115
 40
0.2264759683575397
 40
0.2808040490575704
 40
0.3347372846926022
 40
0.3892243701867808
 40
0.4460431565357303
 40
0.5044213316927056
 40
0.5647247417857322
 40
0.6287090369173702
 40
0.6959470142967955
 40
0.7662050871176777
 40
0.8405626643936539
 40
0.9179353860272985
 40
1.0
 40
1.0
 40
1.0
 40
1.0
 10
2.135404757291699
 20
0.4378437935303697
 30
0.0
 10
2.135384048137654
 20
0.4387087432087903
 30
0.0
 10
2.135343385922533
 20
0.4404070631795721
 30
0.0
 10
2.134925793902
 20
0.4428907436559227
 30
0.0
 10
2.134241316143805
 20
0.4452362484683476
 30
0.0
 10
2.133290805731408
 20
0.447442362788294
 30
0.0
 10
2.132116806618199
 20
0.4495099792191414
 30
0.0
 10
2.130655193968023
 20
0.4513871056735311
 30
0.0
 10
2.128989105361146
 20
0.4531343786798631
 30
0.0
 10
2.127050398093996
 20
0.4546833928582117
 30
0.0
 10
2.12488220984652
 20
0.4560487532727528
 30
0.0
 10
2.122518219159042
 20
0.4572824389674425
 30
0.0
 10
2.119928298957785
 20
0.4583381814840351
 30
0.0
 10
2.117117605811801
 20
0.4592029539954695
 30
0.0
 10
2.114103512317754
 20
0.4598924641323835
 30
0.0
 10
2.11090127333919
 20
0.4603758762494136
 30
0.0
 10
2.107505212402958
 20
0.460707329104164
 30
0.0
 10
2.105179676945501
 20
0.4607336947501744
 30
0.0
 10
2.103982691503727
 20
0.4607472655148505
 30
0.0
  0
SPLINE
  5
11A
330
1F
100
AcDbEntity
  8
0
  6
Continuous
 62
     7
370
    25
100
AcDbSpline
210
0.0
220
0.0
230
1.0
 70
     8
 71
     3
 72
    23
 73
    19
 74
     0
 42
0.000000001
 43
0.00000001
 40
0.0
 40
0.0
 40
0.0
 40
0.0
 40
0.0592778177595659
 40
0.1163913973692726
 40
0.172147887657512
 40
0.2264759683575402
 40
0.2808040490575709
 40
0.3347372846926026
 40
0.3892243701867812
 40
0.4460431565357306
 40
0.5044213316927059
 40
0.5647247417857325
 40
0.6287090369173705
 40
0.6959470142967957
 40
0.7662050871176779
 40
0.840562664393654
 40
0.9179353860272986
 40
1.0
 40
1.0
 40
1.0
 40
1.0
 10
2.01757981149688
 20
0.4378437935303697
 30
0.0
 10
2.017559102342835
 20
0.4387087432087903
 30
0.0
 10
2.017518440127713
 20
0.4404070631795721
 30
0.0
 10
2.017100848107182
 20
0.4428907436559227
 30
0.0
 10
2.016416370348985
 20
0.4452362484683476
 30
0.0
 10
2.015465859936588
 20
0.447442362788294
 30
0.0
 10
2.014291860823379
 20
0.4495099792191414
 30
0.0
 10
2.012830248173204
 20
0.4513871056735311
 30
0.0
 10
2.011164159566326
 20
0.453134378679862
 30
0.0
 10
2.009225452299177
 20
0.4546833928582117
 30
0.0
 10
2.007057264051701
 20
0.4560487532727528
 30
0.0
 10
2.004693273364223
 20
0.4572824389674425
 30
0.0
 10
2.002103353162967
 20
0.4583381814840351
 30
0.0
 10
1.999292660016981
 20
0.4592029539954695
 30
0.0
 10
1.996278566522935
 20
0.4598924641323835
 30
0.0
 10
1.993076327544371
 20
0.4603758762494136
 30
0.0
 10
1.989680266608139
 20
0.460707329104164
 30
0.0
 10
1.987354731150682
 20
0.4607336947501744
 30
0.0
 10
1.986157745708908
 20
0.4607472655148505
 30
0.0
  0
SPLINE
  5
11B
330
1F
100
AcDbEntity
  8
0
  6
Continuous
 62
     7
370
    25
100
AcDbSpline
210
0.0
220
0.0
230
1.0
 70
     8
 71
     3
 72
    23
 73
    19
 74
     0
 42
0.000000001
 43
0.00000001
 40
0.0
 40
0.0
 40
0.0
 40
0.0
 40
0.0829188246341177
 40
0.159893881503935
 40
0.2325564233819789
 40
0.3006958272261033
 40
0.3637556764832326
 40
0.4236747435210377
 40
0.4807003096789206
 40
0.5348597706980004
 40
0.5877167410054567
 40
0.6406978721524965
 40
0.6942911149704577
 40
0.7497520955113248
 40
0.806946127519713
 40
0.8672827812805195
 40
0.9314383149165602
 40
1.0
 40
1.0
 40
1.0
 40
1.0
 10
1.986781818515025
 20
0.4128184740050931
 30
0.0
 10
1.988041011399655
 20
0.4128345339852247
 30
0.0
 10
1.990469135999516
 20
0.4128655027377544
 30
0.0
 10
1.993990221029758
 20
0.4131562454898426
 30
0.0
 10
1.997269664210383
 20
0.4136005507485338
 30
0.0
 10
2.000289937625221
 20
0.4142947824494264
 30
0.0
 10
2.003068537624777
 20
0.4151366452866145
 30
0.0
 10
2.005613868322624
 20
0.4161492778465692
 30
0.0
 10
2.007888627118362
 20
0.4174134398704882
 30
0.0
 10
2.00995705610233
 20
0.4188116396988673
 30
0.0
 10
2.011749401638802
 20
0.4204627910635044
 30
0.0
 10
2.013327135430481
 20
0.4223077683749181
 30
0.0
 10
2.01463922291381
 20
0.4243975830474695
 30
0.0
 10
2.015733967336241
 20
0.4266776354572463
 30
0.0
 10
2.016580620667463
 20
0.4291706989990579
 30
0.0
 10
2.017167244299719
 20
0.4318711105245298
 30
0.0
 10
2.01750565964967
 20
0.4347876206307396
 30
0.0
 10
2.017554553133978
 20
0.4368027685647826
 30
0.0
 10
2.01757981149688
 20
0.4378437935303697
 30
0.0
  0
LINE
  5
122
330
1F
100
AcDbEntity
  8
0
  6
Continuous
 62
     7
370
    25
100
AcDbLine
 10
2.7944256406
 20
0.4727294634
 30
0.0
 11
2.808872926
 21
0.4727294634
 31
0.0
  0
LINE
  5
123
330
1F
100
AcDbEntity
  8
0
  6
Continuous
 62
     7
370
    25
100
AcDbLine
 10
2.7944256406
 20
0.5186612219
 30
0.0
 11
2.7944256406
 21
0.4727294634
 31
0.0
  0
LINE
  5
124
330
1F
100
AcDbEntity
  8
0
  6
Continuous
 62
     7
370
    25
100
AcDbLine
 10
2.8112756063
 20
0.5186612219
 30
0.0
 11
2.7944256406
 21
0.5186612219
 31
0.0
  0
LINE
  5
125
330
1F
100
AcDbEntity
  8
0
  6
Continuous
 62
     7
370
    25
100
AcDbLine
 10
1.9476836572
 20
0.5346374858
 30
0.0
 11
1.9872810768
 21
0.5346374858
 31
0.0
  0
LINE
  5
126
330
1F
100
AcDbEntity
  8
0
  6
Continuous
 62
     7
370
    25
100
AcDbLine
 10
1.9476836572
 20
0.3968422102
 30
0.0
 11
1.9476836572
 21
0.5346374858
 31
0.0
  0
LINE
  5
127
330
1F
100
AcDbEntity
  8
0
  6
Continuous
 62
     7
370
    25
100
AcDbLine
 10
1.9835054363
 20
0.3968422102
 30
0.0
 11
1.9476836572
 21
0.3968422102
 31
0.0
  0
LINE
  5
128
330
1F
100
AcDbEntity
  8
0
  6
Continuous
 62
     7
370
    25
100
AcDbLine
 10
2.449812637
 20
0.5346374858
 30
0.0
 11
2.475493233
 21
0.5346374858
 31
0.0
  0
LINE
  5
129
330
1F
100
AcDbEntity
  8
0
  6
Continuous
 62
     7
370
    25
100
AcDbLine
 10
2.404005693
 20
0.3968422102
 30
0.0
 11
2.449812637
 21
0.5346374858
 31
0.0
  0
LINE
  5
12A
330
1F
100
AcDbEntity
  8
0
  6
Continuous
 62
     7
370
    25
100
AcDbLine
 10
2.4234767646
 20
0.3968422102
 30
0.0
 11
2.404005693
 21
0.3968422102
 31
0.0
  0
LINE
  5
12B
330
1F
100
AcDbEntity
  8
0
  6
Continuous
 62
     7
370
    25
100
AcDbLine
 10
2.4329314676
 20
0.4267977049
 30
0.0
 11
2.4234767646
 21
0.3968422102
 31
0.0
  0
LINE
  5
12C
330
1F
100
AcDbEntity
  8
0
  6
Continuous
 62
     7
370
    25
100
AcDbLine
 10
2.4901589439
 20
0.4267977049
 30
0.0
 11
2.4329314676
 21
0.4267977049
 31
0.0
  0
LINE
  5
12D
330
1F
100
AcDbEntity
  8
0
  6
Continuous
 62
     7
370
    25
100
AcDbLine
 10
2.4993952215
 20
0.3968422102
 30
0.0
 11
2.4901589439
 21
0.4267977049
 31
0.0
  0
LINE
  5
12E
330
1F
100
AcDbEntity
  8
0
  6
Continuous
 62
     7
370
    25
100
AcDbLine
 10
2.5198336059
 20
0.3968422102
 30
0.0
 11
2.4993952215
 21
0.3968422102
 31
0.0
  0
LINE
  5
12F
330
1F
100
AcDbEntity
  8
0
  6
Continuous
 62
     7
370
    25
100
AcDbLine
 10
2.475493233
 20
0.5346374858
 30
0.0
 11
2.5198336059
 21
0.3968422102
 31
0.0
  0
LINE
  5
130
330
1F
100
AcDbEntity
  8
0
  6
Continuous
 62
     7
370
    25
100
AcDbLine
 10
2.6854625286
 20
0.5346374858
 30
0.0
 11
2.7111431246
 21
0.5346374858
 31
0.0
  0
LINE
  5
131
330
1F
100
AcDbEntity
  8
0
  6
Continuous
 62
     7
370
    25
100
AcDbLine
 10
2.6396555846
 20
0.3968422102
 30
0.0
 11
2.6854625286
 21
0.5346374858
 31
0.0
  0
LINE
  5
132
330
1F
100
AcDbEntity
  8
0
  6
Continuous
 62
     7
370
    25
100
AcDbLine
 10
2.6591266562
 20
0.3968422102
 30
0.0
 11
2.6396555846
 21
0.3968422102
 31
0.0
  0
LINE
  5
133
330
1F
100
AcDbEntity
  8
0
  6
Continuous
 62
     7
370
    25
100
AcDbLine
 10
2.6685813592
 20
0.4267977049
 30
0.0
 11
2.6591266562
 21
0.3968422102
 31
0.0
  0
LINE
  5
134
330
1F
100
AcDbEntity
  8
0
  6
Continuous
 62
     7
370
    25
100
AcDbLine
 10
2.7258088355
 20
0.4267977049
 30
0.0
 11
2.6685813592
 21
0.4267977049
 31
0.0
  0
LINE
  5
135
330
1F
100
AcDbEntity
  8
0
  6
Continuous
 62
     7
370
    25
100
AcDbLine
 10
2.735045113
 20
0.3968422102
 30
0.0
 11
2.7258088355
 21
0.4267977049
 31
0.0
  0
LINE
  5
136
330
1F
100
AcDbEntity
  8
0
  6
Continuous
 62
     7
370
    25
100
AcDbLine
 10
2.7554834974
 20
0.3968422102
 30
0.0
 11
2.735045113
 21
0.3968422102
 31
0.0
  0
LINE
  5
137
330
1F
100
AcDbEntity
  8
0
  6
Continuous
 62
     7
370
    25
100
AcDbLine
 10
2.7111431246
 20
0.5346374858
 30
0.0
 11
2.7554834974
 21
0.3968422102
 31
0.0
  0
LINE
  5
138
330
1F
100
AcDbEntity
  8
0
  6
Continuous
 62
     7
370
    25
100
AcDbLine
 10
11.56102362
 20
5.852362205
 30
0.0
 11
11.3552173691
 21
5.852362205
 31
0.0
  0
LINE
  5
139
330
1F
100
AcDbEntity
  8
0
  6
Continuous
 62
     7
370
    25
100
AcDbLine
 10
11.56102362
 20
5.458661415
 30
0.0
 11
11.56102362
 21
5.852362205
 31
0.0
  0
LINE
  5
13A
330
1F
100
AcDbEntity
  8
0
  6
Continuous
 62
     7
370
    25
100
AcDbLine
 10
11.3552173691
 20
5.458661415
 30
0.0
 11
11.56102362
 21
5.458661415
 31
0.0
  0
LINE
  5
13B
330
1F
100
AcDbEntity
  8
0
  6
Continuous
 62
     7
370
    25
100
AcDbLine
 10
11.31102362
 20
2.1563984738
 30
0.0
 11
11.31102362
 21
5.4144676659
 31
0.0
  0
LINE
  5
13C
330
1F
100
AcDbEntity
  8
0
  6
Continuous
 62
     7
370
    25
100
AcDbLine
 10
11.56102362
 20
2.1122047247
 30
0.0
 11
11.3552173691
 21
2.1122047247
 31
0.0
  0
LINE
  5
13D
330
1F
100
AcDbEntity
  8
0
  6
Continuous
 62
     7
370
    25
100
AcDbLine
 10
11.56102362
 20
1.7185039347
 30
0.0
 11
11.56102362
 21
2.1122047247
 31
0.0
  0
LINE
  5
13E
330
1F
100
AcDbEntity
  8
0
  6
Continuous
 62
     7
370
    25
100
AcDbLine
 10
11.3552173691
 20
1.7185039347
 30
0.0
 11
11.56102362
 21
1.7185039347
 31
0.0
  0
LINE
  5
13F
330
1F
100
AcDbEntity
  8
0
  6
Continuous
 62
     7
370
    25
100
AcDbLine
 10
11.31102362
 20
0.0
 30
0.0
 11
11.31102362
 21
1.6743101856
 31
0.0
  0
LINE
  5
140
330
1F
100
AcDbEntity
  8
0
  6
Continuous
 62
     7
370
    25
100
AcDbLine
 10
9.6367134344
 20
0.0
 30
0.0
 11
11.31102362
 21
0.0
 31
0.0
  0
LINE
  5
141
330
1F
100
AcDbEntity
  8
0
  6
Continuous
 62
     7
370
    25
100
AcDbLine
 10
9.5925196853
 20
-0.25
 30
0.0
 11
9.5925196853
 21
-0.0441937491
 31
0.0
  0
LINE
  5
142
330
1F
100
AcDbEntity
  8
0
  6
Continuous
 62
     7
370
    25
100
AcDbLine
 10
9.1988188953
 20
-0.25
 30
0.0
 11
9.5925196853
 21
-0.25
 31
0.0
  0
LINE
  5
143
330
1F
100
AcDbEntity
  8
0
  6
Continuous
 62
     7
370
    25
100
AcDbLine
 10
9.1988188953
 20
-0.0441937491
 30
0.0
 11
9.1988188953
 21
-0.25
 31
0.0
  0
LINE
  5
144
330
1F
100
AcDbEntity
  8
0
  6
Continuous
 62
     7
370
    25
100
AcDbLine
 10
5.8965559541
 20
0.0
 30
0.0
 11
9.1546251462
 21
0.0
 31
0.0
  0
LINE
  5
145
330
1F
100
AcDbEntity
  8
0
  6
Continuous
 62
     7
370
    25
100
AcDbLine
 10
5.852362205
 20
-0.25
 30
0.0
 11
5.852362205
 21
-0.0441937491
 31
0.0
  0
LINE
  5
146
330
1F
100
AcDbEntity
  8
0
  6
Continuous
 62
     7
370
    25
100
AcDbLine
 10
5.458661415
 20
-0.25
 30
0.0
 11
5.852362205
 21
-0.25
 31
0.0
  0
LINE
  5
147
330
1F
100
AcDbEntity
  8
0
  6
Continuous
 62
     7
370
    25
100
AcDbLine
 10
5.458661415
 20
-0.0441937491
 30
0.0
 11
5.458661415
 21
-0.25
 31
0.0
  0
LINE
  5
148
330
1F
100
AcDbEntity
  8
0
  6
Continuous
 62
     7
370
    25
100
AcDbLine
 10
2.1563984738
 20
0.0
 30
0.0
 11
5.4144676659
 21
0.0
 31
0.0
  0
LINE
  5
149
330
1F
100
AcDbEntity
  8
0
  6
Continuous
 62
     7
370
    25
100
AcDbLine
 10
2.1122047247
 20
-0.25
 30
0.0
 11
2.1122047247
 21
-0.0441937491
 31
0.0
  0
LINE
  5
14A
330
1F
100
AcDbEntity
  8
0
  6
Continuous
 62
     7
370
    25
100
AcDbLine
 10
1.7185039347
 20
-0.25
 30
0.0
 11
2.1122047247
 21
-0.25
 31
0.0
  0
LINE
  5
14B
330
1F
100
AcDbEntity
  8
0
  6
Continuous
 62
     7
370
    25
100
AcDbLine
 10
1.7185039347
 20
-0.0441937491
 30
0.0
 11
1.7185039347
 21
-0.25
 31
0.0
  0
LINE
  5
14C
330
1F
100
AcDbEntity
  8
0
  6
Continuous
 62
     7
370
    25
100
AcDbLine
 10
0.0
 20
0.0
 30
0.0
 11
1.6743101856
 21
0.0
 31
0.0
  0
LINE
  5
14D
330
1F
100
AcDbEntity
  8
0
  6
Continuous
 62
     7
370
    25
100
AcDbLine
 10
0.0
 20
1.6743101856
 30
0.0
 11
0.0
 21
0.0
 31
0.0
  0
LINE
  5
14E
330
1F
100
AcDbEntity
  8
0
  6
Continuous
 62
     7
370
    25
100
AcDbLine
 10
-0.25
 20
1.7185039347
 30
0.0
 11
-0.0441937491
 21
1.7185039347
 31
0.0
  0
LINE
  5
14F
330
1F
100
AcDbEntity
  8
0
  6
Continuous
 62
     7
370
    25
100
AcDbLine
 10
-0.25
 20
2.1122047247
 30
0.0
 11
-0.25
 21
1.7185039347
 31
0.0
  0
LINE
  5
150
330
1F
100
AcDbEntity
  8
0
  6
Continuous
 62
     7
370
    25
100
AcDbLine
 10
-0.0441937491
 20
2.1122047247
 30
0.0
 11
-0.25
 21
2.1122047247
 31
0.0
  0
LINE
  5
151
330
1F
100
AcDbEntity
  8
0
  6
Continuous
 62
     7
370
    25
100
AcDbLine
 10
0.0
 20
5.4144676659
 30
0.0
 11
0.0
 21
2.1563984738
 31
0.0
  0
LINE
  5
152
330
1F
100
AcDbEntity
  8
0
  6
Continuous
 62
     7
370
    25
100
AcDbLine
 10
-0.25
 20
5.458661415
 30
0.0
 11
-0.0441937491
 21
5.458661415
 31
0.0
  0
LINE
  5
153
330
1F
100
AcDbEntity
  8
0
  6
Continuous
 62
     7
370
    25
100
AcDbLine
 10
-0.25
 20
5.852362205
 30
0.0
 11
-0.25
 21
5.458661415
 31
0.0
  0
LINE
  5
154
330
1F
100
AcDbEntity
  8
0
  6
Continuous
 62
     7
370
    25
100
AcDbLine
 10
-0.0441937491
 20
5.852362205
 30
0.0
 11
-0.25
 21
5.852362205
 31
0.0
  0
LINE
  5
155
330
1F
100
AcDbEntity
  8
0
  6
Continuous
 62
     7
370
    25
100
AcDbLine
 10
0.0
 20
9.1546251462
 30
0.0
 11
0.0
 21
5.8965559541
 31
0.0
  0
LINE
  5
156
330
1F
100
AcDbEntity
  8
0
  6
Continuous
 62
     7
370
    25
100
AcDbLine
 10
-0.25
 20
9.1988188953
 30
0.0
 11
-0.0441937491
 21
9.1988188953
 31
0.0
  0
LINE
  5
157
330
1F
100
AcDbEntity
  8
0
  6
Continuous
 62
     7
370
    25
100
AcDbLine
 10
-0.25
 20
9.5925196853
 30
0.0
 11
-0.25
 21
9.1988188953
 31
0.0
  0
LINE
  5
158
330
1F
100
AcDbEntity
  8
0
  6
Continuous
 62
     7
370
    25
100
AcDbLine
 10
-0.0441937491
 20
9.5925196853
 30
0.0
 11
-0.25
 21
9.5925196853
 31
0.0
  0
LINE
  5
159
330
1F
100
AcDbEntity
  8
0
  6
Continuous
 62
     7
370
    25
100
AcDbLine
 10
0.0
 20
11.31102362
 30
0.0
 11
0.0
 21
9.6367134344
 31
0.0
  0
LINE
  5
15A
330
1F
100
AcDbEntity
  8
0
  6
Continuous
 62
     7
370
    25
100
AcDbLine
 10
1.6743101856
 20
11.31102362
 30
0.0
 11
0.0
 21
11.31102362
 31
0.0
  0
LINE
  5
15B
330
1F
100
AcDbEntity
  8
0
  6
Continuous
 62
     7
370
    25
100
AcDbLine
 10
1.7185039347
 20
11.56102362
 30
0.0
 11
1.7185039347
 21
11.3552173691
 31
0.0
  0
LINE
  5
15C
330
1F
100
AcDbEntity
  8
0
  6
Continuous
 62
     7
370
    25
100
AcDbLine
 10
2.1122047247
 20
11.56102362
 30
0.0
 11
1.7185039347
 21
11.56102362
 31
0.0
  0
LINE
  5
15D
330
1F
100
AcDbEntity
  8
0
  6
Continuous
 62
     7
370
    25
100
AcDbLine
 10
2.1122047247
 20
11.3552173691
 30
0.0
 11
2.1122047247
 21
11.56102362
 31
0.0
  0
LINE
  5
15E
330
1F
100
AcDbEntity
  8
0
  6
Continuous
 62
     7
370
    25
100
AcDbLine
 10
5.4144676659
 20
11.31102362
 30
0.0
 11
2.1563984738
 21
11.31102362
 31
0.0
  0
LINE
  5
15F
330
1F
100
AcDbEntity
  8
0
  6
Continuous
 62
     7
370
    25
100
AcDbLine
 10
5.458661415
 20
11.56102362
 30
0.0
 11
5.458661415
 21
11.3552173691
 31
0.0
  0
LINE
  5
160
330
1F
100
AcDbEntity
  8
0
  6
Continuous
 62
     7
370
    25
100
AcDbLine
 10
5.852362205
 20
11.56102362
 30
0.0
 11
5.458661415
 21
11.56102362
 31
0.0
  0
LINE
  5
161
330
1F
100
AcDbEntity
  8
0
  6
Continuous
 62
     7
370
    25
100
AcDbLine
 10
5.852362205
 20
11.3552173691
 30
0.0
 11
5.852362205
 21
11.56102362
 31
0.0
  0
LINE
  5
162
330
1F
100
AcDbEntity
  8
0
  6
Continuous
 62
     7
370
    25
100
AcDbLine
 10
9.1546251462
 20
11.31102362
 30
0.0
 11
5.8965559541
 21
11.31102362
 31
0.0
  0
LINE
  5
163
330
1F
100
AcDbEntity
  8
0
  6
Continuous
 62
     7
370
    25
100
AcDbLine
 10
9.1988188953
 20
11.56102362
 30
0.0
 11
9.1988188953
 21
11.3552173691
 31
0.0
  0
LINE
  5
164
330
1F
100
AcDbEntity
  8
0
  6
Continuous
 62
     7
370
    25
100
AcDbLine
 10
9.5925196853
 20
11.56102362
 30
0.0
 11
9.1988188953
 21
11.56102362
 31
0.0
  0
LINE
  5
165
330
1F
100
AcDbEntity
  8
0
  6
Continuous
 62
     7
370
    25
100
AcDbLine
 10
9.5925196853
 20
11.3552173691
 30
0.0
 11
9.5925196853
 21
11.56102362
 31
0.0
  0
LINE
  5
166
330
1F
100
AcDbEntity
  8
0
  6
Continuous
 62
     7
370
    25
100
AcDbLine
 10
11.31102362
 20
11.31102362
 30
0.0
 11
9.6367134344
 21
11.31102362
 31
0.0
  0
LINE
  5
167
330
1F
100
AcDbEntity
  8
0
  6
Continuous
 62
     7
370
    25
100
AcDbLine
 10
11.31102362
 20
9.6367134344
 30
0.0
 11
11.31102362
 21
11.31102362
 31
0.0
  0
LINE
  5
168
330
1F
100
AcDbEntity
  8
0
  6
Continuous
 62
     7
370
    25
100
AcDbLine
 10
11.56102362
 20
9.5925196853
 30
0.0
 11
11.3552173691
 21
9.5925196853
 31
0.0
  0
LINE
  5
169
330
1F
100
AcDbEntity
  8
0
  6
Continuous
 62
     7
370
    25
100
AcDbLine
 10
11.56102362
 20
9.1988188953
 30
0.0
 11
11.56102362
 21
9.5925196853
 31
0.0
  0
LINE
  5
16A
330
1F
100
AcDbEntity
  8
0
  6
Continuous
 62
     7
370
    25
100
AcDbLine
 10
11.3552173691
 20
9.1988188953
 30
0.0
 11
11.56102362
 21
9.1988188953
 31
0.0
  0
LINE
  5
16B
330
1F
100
AcDbEntity
  8
0
  6
Continuous
 62
     7
370
    25
100
AcDbLine
 10
11.31102362
 20
5.8965559541
 30
0.0
 11
11.31102362
 21
9.1546251462
 31
0.0
  0
LINE
  5
16C
330
1F
100
AcDbEntity
  8
0
  6
Continuous
 62
     7
370
    25
100
AcDbLine
 10
2.7744553108
 20
0.5346374858
 30
0.0
 11
2.8110883845
 21
0.5346374858
 31
0.0
  0
LINE
  5
16D
330
1F
100
AcDbEntity
  8
0
  6
Continuous
 62
     7
370
    25
100
AcDbLine
 10
2.7744553108
 20
0.3968422102
 30
0.0
 11
2.7744553108
 21
0.5346374858
 31
0.0
  0
LINE
  5
16E
330
1F
100
AcDbEntity
  8
0
  6
Continuous
 62
     7
370
    25
100
AcDbLine
 10
2.7944256406
 20
0.3968422102
 30
0.0
 11
2.7744553108
 21
0.3968422102
 31
0.0
  0
LINE
  5
16F
330
1F
100
AcDbEntity
  8
0
  6
Continuous
 62
     7
370
    25
100
AcDbLine
 10
2.7944256406
 20
0.4567531996
 30
0.0
 11
2.7944256406
 21
0.3968422102
 31
0.0
  0
LINE
  5
170
330
1F
100
AcDbEntity
  8
0
  6
Continuous
 62
     7
370
    25
100
AcDbLine
 10
2.8028818271
 20
0.4567531996
 30
0.0
 11
2.7944256406
 21
0.4567531996
 31
0.0
  0
LINE
  5
171
330
1F
100
AcDbEntity
  8
0
  6
Continuous
 62
     7
370
    25
100
AcDbLine
 10
2.8451627597
 20
0.3968422102
 30
0.0
 11
2.8253484481
 21
0.4398720302
 31
0.0
  0
LINE
  5
172
330
1F
100
AcDbEntity
  8
0
  6
Continuous
 62
     7
370
    25
100
AcDbLine
 10
2.8663188278
 20
0.3968422102
 30
0.0
 11
2.8451627597
 21
0.3968422102
 31
0.0
  0
LINE
  5
173
330
1F
100
AcDbEntity
  8
0
  6
Continuous
 62
     7
370
    25
100
AcDbLine
 10
2.8452563706
 20
0.4427739687
 30
0.0
 11
2.8663188278
 21
0.3968422102
 31
0.0
  0
LINE
  5
174
330
1F
100
AcDbEntity
  8
0
  6
Continuous
 62
     7
370
    25
100
AcDbLine
 10
2.6286719032
 20
0.4747264964
 30
0.0
 11
2.6286719032
 21
0.4033013637
 31
0.0
  0
LINE
  5
175
330
1F
100
AcDbEntity
  8
0
  6
Continuous
 62
     7
370
    25
100
AcDbLine
 10
2.5809927409
 20
0.4747264964
 30
0.0
 11
2.6286719032
 21
0.4747264964
 31
0.0
  0
LINE
  5
176
330
1F
100
AcDbEntity
  8
0
  6
Continuous
 62
     7
370
    25
100
AcDbLine
 10
2.5809927409
 20
0.4587502325
 30
0.0
 11
2.5809927409
 21
0.4747264964
 31
0.0
  0
LINE
  5
177
330
1F
100
AcDbEntity
  8
0
  6
Continuous
 62
     7
370
    25
100
AcDbLine
 10
2.6087015735
 20
0.4587502325
 30
0.0
 11
2.5809927409
 21
0.4587502325
 31
0.0
  0
LINE
  5
178
330
1F
100
AcDbEntity
  8
0
  6
Continuous
 62
     7
370
    25
100
AcDbLine
 10
2.6087015735
 20
0.4137545832
 30
0.0
 11
2.6087015735
 21
0.4587502325
 31
0.0
  0
LINE
  5
179
330
1F
100
AcDbEntity
  8
0
  6
Continuous
 62
     7
370
    25
100
AcDbLine
 10
2.6286719032
 20
0.5306434198
 30
0.0
 11
2.6286719032
 21
0.512670123
 31
0.0
  0
LINE
  5
17A
330
1F
100
AcDbEntity
  8
0
  6
Continuous
 62
     7
370
    25
100
AcDbLine
 10
2.2851822308
 20
0.3688837485
 30
0.0
 11
2.4030071766
 21
0.3688837485
 31
0.0
  0
LINE
  5
17B
330
1F
100
AcDbEntity
  8
0
  6
Continuous
 62
     7
370
    25
100
AcDbLine
 10
2.2851822308
 20
0.3529074846
 30
0.0
 11
2.2851822308
 21
0.3688837485
 31
0.0
  0
LINE
  5
17C
330
1F
100
AcDbEntity
  8
0
  6
Continuous
 62
     7
370
    25
100
AcDbLine
 10
2.4030071766
 20
0.3529074846
 30
0.0
 11
2.2851822308
 21
0.3529074846
 31
0.0
  0
LINE
  5
17D
330
1F
100
AcDbEntity
  8
0
  6
Continuous
 62
     7
370
    25
100
AcDbLine
 10
2.4030071766
 20
0.3688837485
 30
0.0
 11
2.4030071766
 21
0.3529074846
 31
0.0
  0
LINE
  5
17E
330
1F
100
AcDbEntity
  8
0
  6
Continuous
 62
     7
370
    25
100
AcDbLine
 10
2.065508603
 20
0.5346374858
 30
0.0
 11
2.1051060226
 21
0.5346374858
 31
0.0
  0
LINE
  5
17F
330
1F
100
AcDbEntity
  8
0
  6
Continuous
 62
     7
370
    25
100
AcDbLine
 10
2.065508603
 20
0.3968422102
 30
0.0
 11
2.065508603
 21
0.5346374858
 31
0.0
  0
LINE
  5
180
330
1F
100
AcDbEntity
  8
0
  6
Continuous
 62
     7
370
    25
100
AcDbLine
 10
2.1013303821
 20
0.3968422102
 30
0.0
 11
2.065508603
 21
0.3968422102
 31
0.0
  0
LINE
  5
181
330
1F
100
AcDbEntity
  8
0
  6
Continuous
 62
     7
370
    25
100
AcDbLine
 10
1.967653987
 20
0.4767235294
 30
0.0
 11
1.9859081166
 21
0.4767235294
 31
0.0
  0
LINE
  5
182
330
1F
100
AcDbEntity
  8
0
  6
Continuous
 62
     7
370
    25
100
AcDbLine
 10
1.967653987
 20
0.5186612219
 30
0.0
 11
1.967653987
 21
0.4767235294
 31
0.0
  0
LINE
  5
183
330
1F
100
AcDbEntity
  8
0
  6
Continuous
 62
     7
370
    25
100
AcDbLine
 10
1.9865321894
 20
0.5186612219
 30
0.0
 11
1.967653987
 21
0.5186612219
 31
0.0
  0
LINE
  5
184
330
1F
100
AcDbEntity
  8
0
  6
Continuous
 62
     7
370
    25
100
AcDbLine
 10
2.0854789328
 20
0.4767235294
 30
0.0
 11
2.1037330624
 21
0.4767235294
 31
0.0
  0
LINE
  5
185
330
1F
100
AcDbEntity
  8
0
  6
Continuous
 62
     7
370
    25
100
AcDbLine
 10
2.0854789328
 20
0.5186612219
 30
0.0
 11
2.0854789328
 21
0.4767235294
 31
0.0
  0
LINE
  5
186
330
1F
100
AcDbEntity
  8
0
  6
Continuous
 62
     7
370
    25
100
AcDbLine
 10
2.1043571352
 20
0.5186612219
 30
0.0
 11
2.0854789328
 21
0.5186612219
 31
0.0
  0
LINE
  5
187
330
1F
100
AcDbEntity
  8
0
  6
Continuous
 62
     7
370
    25
100
AcDbLine
 10
2.0854789328
 20
0.412818474
 30
0.0
 11
2.1046067643
 21
0.412818474
 31
0.0
  0
LINE
  5
188
330
1F
100
AcDbEntity
  8
0
  6
Continuous
 62
     7
370
    25
100
AcDbLine
 10
2.0854789328
 20
0.4607472655
 30
0.0
 11
2.0854789328
 21
0.412818474
 31
0.0
  0
LINE
  5
189
330
1F
100
AcDbEntity
  8
0
  6
Continuous
 62
     7
370
    25
100
AcDbLine
 10
2.1039826915
 20
0.4607472655
 30
0.0
 11
2.0854789328
 21
0.4607472655
 31
0.0
  0
LINE
  5
18A
330
1F
100
AcDbEntity
  8
0
  6
Continuous
 62
     7
370
    25
100
AcDbLine
 10
1.967653987
 20
0.412818474
 30
0.0
 11
1.9867818185
 21
0.412818474
 31
0.0
  0
LINE
  5
18B
330
1F
100
AcDbEntity
  8
0
  6
Continuous
 62
     7
370
    25
100
AcDbLine
 10
1.967653987
 20
0.4607472655
 30
0.0
 11
1.967653987
 21
0.412818474
 31
0.0
  0
LINE
  5
18C
330
1F
100
AcDbEntity
  8
0
  6
Continuous
 62
     7
370
    25
100
AcDbLine
 10
1.9861577457
 20
0.4607472655
 30
0.0
 11
1.967653987
 21
0.4607472655
 31
0.0
  0
LINE
  5
18D
330
1F
100
AcDbEntity
  8
0
  6
Continuous
 62
     7
370
    25
100
AcDbLine
 10
2.720909864
 20
0.4427739687
 30
0.0
 11
2.697569541
 21
0.518567611
 31
0.0
  0
LINE
  5
18E
330
1F
100
AcDbEntity
  8
0
  6
Continuous
 62
     7
370
    25
100
AcDbLine
 10
2.697569541
 20
0.518567611
 30
0.0
 11
2.6736363489
 21
0.4427739687
 31
0.0
  0
LINE
  5
18F
330
1F
100
AcDbEntity
  8
0
  6
Continuous
 62
     7
370
    25
100
AcDbLine
 10
2.6736363489
 20
0.4427739687
 30
0.0
 11
2.720909864
 21
0.4427739687
 31
0.0
  0
LINE
  5
190
330
1F
100
AcDbEntity
  8
0
  6
Continuous
 62
     7
370
    25
100
AcDbLine
 10
2.4852599724
 20
0.4427739687
 30
0.0
 11
2.4619196495
 21
0.518567611
 31
0.0
  0
LINE
  5
191
330
1F
100
AcDbEntity
  8
0
  6
Continuous
 62
     7
370
    25
100
AcDbLine
 10
2.4619196495
 20
0.518567611
 30
0.0
 11
2.4379864573
 21
0.4427739687
 31
0.0
  0
LINE
  5
192
330
1F
100
AcDbEntity
  8
0
  6
Continuous
 62
     7
370
    25
100
AcDbLine
 10
2.4379864573
 20
0.4427739687
 30
0.0
 11
2.4852599724
 21
0.4427739687
 31
0.0
  0
ARC
  5
193
330
1F
100
AcDbEntity
  8
0
  6
Continuous
 62
     7
370
    25
100
AcDbCircle
 10
9.6145196853
 20
-0.022
 30
0.0
 40
0.0312500000000001
100
AcDbArc
 50
44.7488120841
 51
225.2511879159
  0
ARC
  5
194
330
1F
100
AcDbEntity
  8
0
  6
Continuous
 62
     7
370
    25
100
AcDbCircle
 10
5.436661415
 20
-0.022
 30
0.0
 40
0.0312499999999996
100
AcDbArc
 50
314.7488120841
 51
135.2511879159
  0
ARC
  5
195
330
1F
100
AcDbEntity
  8
0
  6
Continuous
 62
     7
370
    25
100
AcDbCircle
 10
2.1342047247
 20
-0.022
 30
0.0
 40
0.0312500000000001
100
AcDbArc
 50
44.7488120841
 51
225.2511879159
  0
ARC
  5
196
330
1F
100
AcDbEntity
  8
0
  6
Continuous
 62
     7
370
    25
100
AcDbCircle
 10
-0.022
 20
5.436661415
 30
0.0
 40
0.0312500000000006
100
AcDbArc
 50
314.7488120841
 51
135.2511879159
  0
ARC
  5
197
330
1F
100
AcDbEntity
  8
0
  6
Continuous
 62
     7
370
    25
100
AcDbCircle
 10
-0.022
 20
5.874362205
 30
0.0
 40
0.0312500000000001
100
AcDbArc
 50
224.7488120841
 51
45.2511879159
  0
ARC
  5
198
330
1F
100
AcDbEntity
  8
0
  6
Continuous
 62
     7
370
    25
100
AcDbCircle
 10
1.6965039347
 20
11.33302362
 30
0.0
 40
0.0312499999999997
100
AcDbArc
 50
224.7488120841
 51
45.2511879159
  0
ARC
  5
199
330
1F
100
AcDbEntity
  8
0
  6
Continuous
 62
     7
370
    25
100
AcDbCircle
 10
2.1342047247
 20
11.33302362
 30
0.0
 40
0.0312499999999999
100
AcDbArc
 50
134.7488120841
 51
315.2511879159
  0
ARC
  5
19A
330
1F
100
AcDbEntity
  8
0
  6
Continuous
 62
     7
370
    25
100
AcDbCircle
 10
11.33302362
 20
9.6145196853
 30
0.0
 40
0.0312500000000013
100
AcDbArc
 50
134.748812084
 51
315.2511879159
  0
ARC
  5
19B
330
1F
100
AcDbEntity
  8
0
  6
Continuous
 62
     7
370
    25
100
AcDbCircle
 10
11.33302362
 20
9.1768188953
 30
0.0
 40
0.0312500000000001
100
AcDbArc
 50
44.7488120841
 51
225.251187916
  0
ARC
  5
19C
330
1F
100
AcDbEntity
  8
0
  6
Continuous
 62
     7
370
    25
100
AcDbCircle
 10
11.33302362
 20
5.874362205
 30
0.0
 40
0.0312499999999999
100
AcDbArc
 50
134.7488120841
 51
315.2511879159
  0
ARC
  5
19D
330
1F
100
AcDbEntity
  8
0
  6
Continuous
 62
     7
370
    25
100
AcDbCircle
 10
1.6965039347
 20
-0.022
 30
0.0
 40
0.0312500000000002
100
AcDbArc
 50
314.7488120841
 51
135.2511879159
  0
ARC
  5
19E
330
1F
100
AcDbEntity
  8
0
  6
Continuous
 62
     7
370
    25
100
AcDbCircle
 10
-0.022
 20
9.1768188953
 30
0.0
 40
0.0312500000000001
100
AcDbArc
 50
314.7488120841
 51
135.2511879159
  0
ARC
  5
19F
330
1F
100
AcDbEntity
  8
0
  6
Continuous
 62
     7
370
    25
100
AcDbCircle
 10
-0.022
 20
9.6145196853
 30
0.0
 40
0.0312499999999999
100
AcDbArc
 50
224.7488120841
 51
45.2511879159
  0
ARC
  5
1A0
330
1F
100
AcDbEntity
  8
0
  6
Continuous
 62
     7
370
    25
100
AcDbCircle
 10
-0.022
 20
2.1342047247
 30
0.0
 40
0.0312499999999993
100
AcDbArc
 50
224.7488120841
 51
45.251187916
  0
ARC
  5
1A1
330
1F
100
AcDbEntity
  8
0
  6
Continuous
 62
     7
370
    25
100
AcDbCircle
 10
11.33302362
 20
5.436661415
 30
0.0
 40
0.0312499999999998
100
AcDbArc
 50
44.7488120841
 51
225.2511879159
  0
ARC
  5
1A2
330
1F
100
AcDbEntity
  8
0
  6
Continuous
 62
     7
370
    25
100
AcDbCircle
 10
5.874362205
 20
-0.022
 30
0.0
 40
0.0312499999999993
100
AcDbArc
 50
44.7488120841
 51
225.2511879159
  0
ARC
  5
1A3
330
1F
100
AcDbEntity
  8
0
  6
Continuous
 62
     7
370
    25
100
AcDbCircle
 10
5.874362205
 20
11.33302362
 30
0.0
 40
0.0312500000000024
100
AcDbArc
 50
134.7488120841
 51
315.2511879159
  0
ARC
  5
1A4
330
1F
100
AcDbEntity
  8
0
  6
Continuous
 62
     7
370
    25
100
AcDbCircle
 10
-0.022
 20
1.6965039347
 30
0.0
 40
0.0312499999999997
100
AcDbArc
 50
314.7488120841
 51
135.2511879159
  0
ARC
  5
1A5
330
1F
100
AcDbEntity
  8
0
  6
Continuous
 62
     7
370
    25
100
AcDbCircle
 10
9.1768188953
 20
-0.022
 30
0.0
 40
0.0312499999999994
100
AcDbArc
 50
314.7488120841
 51
135.2511879159
  0
ARC
  5
1A6
330
1F
100
AcDbEntity
  8
0
  6
Continuous
 62
     7
370
    25
100
AcDbCircle
 10
11.33302362
 20
1.6965039347
 30
0.0
 40
0.0312500000000007
100
AcDbArc
 50
44.7488120841
 51
225.2511879158
  0
ARC
  5
1A7
330
1F
100
AcDbEntity
  8
0
  6
Continuous
 62
     7
370
    25
100
AcDbCircle
 10
9.6145196853
 20
11.33302362
 30
0.0
 40
0.0312500000000024
100
AcDbArc
 50
134.7488120841
 51
315.2511879159
  0
ARC
  5
1A8
330
1F
100
AcDbEntity
  8
0
  6
Continuous
 62
     7
370
    25
100
AcDbCircle
 10
11.33302362
 20
2.1342047247
 30
0.0
 40
0.0312499999999987
100
AcDbArc
 50
134.7488120842
 51
315.2511879159
  0
ARC
  5
1A9
330
1F
100
AcDbEntity
  8
0
  6
Continuous
 62
     7
370
    25
100
AcDbCircle
 10
9.1768188953
 20
11.33302362
 30
0.0
 40
0.0312500000000024
100
AcDbArc
 50
224.7488120841
 51
45.2511879159
  0
ARC
  5
1AA
330
1F
100
AcDbEntity
  8
0
  6
Continuous
 62
     7
370
    25
100
AcDbCircle
 10
5.436661415
 20
11.33302362
 30
0.0
 40
0.0312499999999999
100
AcDbArc
 50
224.7488120841
 51
45.2511879159
  0
ENDSEC
  0
SECTION
  2
OBJECTS
  0
DICTIONARY
  5
C
330
0
100
AcDbDictionary
281
     1
  3
ACAD_GROUP
350
D
  3
ACAD_LAYOUT
350
1A
  3
ACAD_MLINESTYLE
350
17
  3
ACAD_PLOTSETTINGS
350
19
  3
ACAD_PLOTSTYLENAME
350
E
  3
ACAD_SCALELIST
350
47
  0
DICTIONARY
  5
D
102
{ACAD_REACTORS
330
C
102
}
330
C
100
AcDbDictionary
281
     1
  0
DICTIONARY
  5
1A
102
{ACAD_REACTORS
330
C
102
}
330
C
100
AcDbDictionary
281
     1
  3
Layout1
350
1E
  3
Layout2
350
26
  3
Model
350
22
  0
DICTIONARY
  5
17
102
{ACAD_REACTORS
330
C
102
}
330
C
100
AcDbDictionary
281
     1
  3
Standard
350
18
  0
DICTIONARY
  5
19
102
{ACAD_REACTORS
330
C
102
}
330
C
100
AcDbDictionary
281
     1
  0
ACDBDICTIONARYWDFLT
  5
E
102
{ACAD_REACTORS
330
C
102
}
330
C
100
AcDbDictionary
281
     1
  3
Normal
350
F
100
AcDbDictionaryWithDefault
340
F
  0
DICTIONARY
  5
47
102
{ACAD_REACTORS
330
C
102
}
330
C
100
AcDbDictionary
281
     1
  3
A0
350
48
  3
A1
350
49
  3
A2
350
4A
  3
A3
350
4B
  3
A4
350
4C
  3
A5
350
4D
  3
A6
350
4E
  3
A7
350
4F
  3
A8
350
50
  3
A9
350
51
  3
B0
350
52
  3
B1
350
53
  3
B2
350
54
  3
B3
350
55
  3
B4
350
56
  3
B5
350
57
  3
B6
350
58
  3
B7
350
59
  3
B8
350
5A
  3
B9
350
5B
  3
C0
350
5C
  3
C1
350
5D
  3
C2
350
5E
  3
C3
350
5F
  3
C4
350
60
  3
C5
350
61
  3
C6
350
62
  3
C7
350
63
  3
C8
350
64
  3
C9
350
65
  3
D0
350
66
  3
D1
350
67
  3
D2
350
68
  0
LAYOUT
  5
1E
102
{ACAD_REACTORS
330
1A
102
}
330
1A
100
AcDbPlotSettings
  1

  2
none_device
  4

  6

 40
0.0
 41
0.0
 42
0.0
 43
0.0
 44
0.0
 45
0.0
 46
0.0
 47
0.0
 48
0.0
 49
0.0
140
0.0
141
0.0
142
1.0
143
1.0
 70
   688
 72
     0
 73
     0
 74
     5
  7

 75
    16
147
1.0
148
0.0
149
0.0
100
AcDbLayout
  1
Layout1
 70
     1
 71
     1
 10
0.0
 20
0.0
 11
12.0
 21
9.0
 12
0.0
 22
0.0
 32
0.0
 14
1.0000000000E+20
 24
1.0000000000E+20
 34
1.0000000000E+20
 15
-1.0000000000E+20
 25
-1.0000000000E+20
 35
-1.0000000000E+20
146
0.0
 13
0.0
 23
0.0
 33
0.0
 16
1.0
 26
0.0
 36
0.0
 17
0.0
 27
1.0
 37
0.0
 76
     0
330
1B
  0
LAYOUT
  5
26
102
{ACAD_REACTORS
330
1A
102
}
330
1A
100
AcDbPlotSettings
  1

  2
none_device
  4

  6

 40
0.0
 41
0.0
 42
0.0
 43
0.0
 44
0.0
 45
0.0
 46
0.0
 47
0.0
 48
0.0
 49
0.0
140
0.0
141
0.0
142
1.0
143
1.0
 70
   688
 72
     0
 73
     0
 74
     5
  7

 75
    16
147
1.0
148
0.0
149
0.0
100
AcDbLayout
  1
Layout2
 70
     1
 71
     2
 10
0.0
 20
0.0
 11
0.0
 21
0.0
 12
0.0
 22
0.0
 32
0.0
 14
0.0
 24
0.0
 34
0.0
 15
0.0
 25
0.0
 35
0.0
146
0.0
 13
0.0
 23
0.0
 33
0.0
 16
1.0
 26
0.0
 36
0.0
 17
0.0
 27
1.0
 37
0.0
 76
     0
330
23
  0
LAYOUT
  5
22
102
{ACAD_REACTORS
330
1A
102
}
330
1A
100
AcDbPlotSettings
  1

  2
none_device
  4
ANSI_A_(11.00_x_8.50_Inches)
  6

 40
6.35
 41
19.05
 42
6.35000508
 43
19.05000254
 44
279.4
 45
215.9
 46
31.0036819608
 47
-13.4463167692
 48
0.0
 49
0.0
140
0.0
141
0.0
142
0.7124700001
143
1.0
 70
  1696
 72
     0
 73
     0
 74
     0
  7

 75
     0
147
0.5913241897
148
-39.4088153714
149
0.0
100
AcDbLayout
  1
Model
 70
     1
 71
     0
 10
0.0
 20
0.0
 11
12.0
 21
9.0
 12
0.0
 22
0.0
 32
0.0
 14
-0.25
 24
-0.25
 34
0.0
 15
11.56102362
 25
11.56102362
 35
0.0
146
0.0
 13
0.0
 23
0.0
 33
0.0
 16
1.0
 26
0.0
 36
0.0
 17
0.0
 27
1.0
 37
0.0
 76
     0
330
1F
331
29
  0
MLINESTYLE
  5
18
102
{ACAD_REACTORS
330
17
102
}
330
17
100
AcDbMlineStyle
  2
Standard
 70
     0
  3

 62
   256
 51
90.0
 52
90.0
 71
     2
 49
0.5
 62
   256
  6
BYLAYER
 49
-0.5
 62
   256
  6
BYLAYER
  0
ACDBPLACEHOLDER
  5
F
102
{ACAD_REACTORS
330
E
102
}
330
E
  0
SCALE
  5
48
102
{ACAD_REACTORS
330
47
102
}
330
47
100
AcDbScale
 70
     0
300
1:1
140
1.0
141
1.0
290
     1
  0
SCALE
  5
49
102
{ACAD_REACTORS
330
47
102
}
330
47
100
AcDbScale
 70
     0
300
1:2
140
1.0
141
2.0
290
     0
  0
SCALE
  5
4A
102
{ACAD_REACTORS
330
47
102
}
330
47
100
AcDbScale
 70
     0
300
1:4
140
1.0
141
4.0
290
     0
  0
SCALE
  5
4B
102
{ACAD_REACTORS
330
47
102
}
330
47
100
AcDbScale
 70
     0
300
1:5
140
1.0
141
5.0
290
     0
  0
SCALE
  5
4C
102
{ACAD_REACTORS
330
47
102
}
330
47
100
AcDbScale
 70
     0
300
1:8
140
1.0
141
8.0
290
     0
  0
SCALE
  5
4D
102
{ACAD_REACTORS
330
47
102
}
330
47
100
AcDbScale
 70
     0
300
1:10
140
1.0
141
10.0
290
     0
  0
SCALE
  5
4E
102
{ACAD_REACTORS
330
47
102
}
330
47
100
AcDbScale
 70
     0
300
1:16
140
1.0
141
16.0
290
     0
  0
SCALE
  5
4F
102
{ACAD_REACTORS
330
47
102
}
330
47
100
AcDbScale
 70
     0
300
1:20
140
1.0
141
20.0
290
     0
  0
SCALE
  5
50
102
{ACAD_REACTORS
330
47
102
}
330
47
100
AcDbScale
 70
     0
300
1:30
140
1.0
141
30.0
290
     0
  0
SCALE
  5
51
102
{ACAD_REACTORS
330
47
102
}
330
47
100
AcDbScale
 70
     0
300
1:40
140
1.0
141
40.0
290
     0
  0
SCALE
  5
52
102
{ACAD_REACTORS
330
47
102
}
330
47
100
AcDbScale
 70
     0
300
1:50
140
1.0
141
50.0
290
     0
  0
SCALE
  5
53
102
{ACAD_REACTORS
330
47
102
}
330
47
100
AcDbScale
 70
     0
300
1:100
140
1.0
141
100.0
290
     0
  0
SCALE
  5
54
102
{ACAD_REACTORS
330
47
102
}
330
47
100
AcDbScale
 70
     0
300
2:1
140
2.0
141
1.0
290
     0
  0
SCALE
  5
55
102
{ACAD_REACTORS
330
47
102
}
330
47
100
AcDbScale
 70
     0
300
4:1
140
4.0
141
1.0
290
     0
  0
SCALE
  5
56
102
{ACAD_REACTORS
330
47
102
}
330
47
100
AcDbScale
 70
     0
300
8:1
140
8.0
141
1.0
290
     0
  0
SCALE
  5
57
102
{ACAD_REACTORS
330
47
102
}
330
47
100
AcDbScale
 70
     0
300
10:1
140
10.0
141
1.0
290
     0
  0
SCALE
  5
58
102
{ACAD_REACTORS
330
47
102
}
330
47
100
AcDbScale
 70
     0
300
100:1
140
100.0
141
1.0
290
     0
  0
SCALE
  5
59
102
{ACAD_REACTORS
330
47
102
}
330
47
100
AcDbScale
 70
     0
300
1/128" = 1'-0"
140
0.0078125
141
12.0
290
     0
  0
SCALE
  5
5A
102
{ACAD_REACTORS
330
47
102
}
330
47
100
AcDbScale
 70
     0
300
1/64" = 1'-0"
140
0.015625
141
12.0
290
     0
  0
SCALE
  5
5B
102
{ACAD_REACTORS
330
47
102
}
330
47
100
AcDbScale
 70
     0
300
1/32" = 1'-0"
140
0.03125
141
12.0
290
     0
  0
SCALE
  5
5C
102
{ACAD_REACTORS
330
47
102
}
330
47
100
AcDbScale
 70
     0
300
1/16" = 1'-0"
140
0.0625
141
12.0
290
     0
  0
SCALE
  5
5D
102
{ACAD_REACTORS
330
47
102
}
330
47
100
AcDbScale
 70
     0
300
3/32" = 1'-0"
140
0.09375
141
12.0
290
     0
  0
SCALE
  5
5E
102
{ACAD_REACTORS
330
47
102
}
330
47
100
AcDbScale
 70
     0
300
1/8" = 1'-0"
140
0.125
141
12.0
290
     0
  0
SCALE
  5
5F
102
{ACAD_REACTORS
330
47
102
}
330
47
100
AcDbScale
 70
     0
300
3/16" = 1'-0"
140
0.1875
141
12.0
290
     0
  0
SCALE
  5
60
102
{ACAD_REACTORS
330
47
102
}
330
47
100
AcDbScale
 70
     0
300
1/4" = 1'-0"
140
0.25
141
12.0
290
     0
  0
SCALE
  5
61
102
{ACAD_REACTORS
330
47
102
}
330
47
100
AcDbScale
 70
     0
300
3/8" = 1'-0"
140
0.375
141
12.0
290
     0
  0
SCALE
  5
62
102
{ACAD_REACTORS
330
47
102
}
330
47
100
AcDbScale
 70
     0
300
1/2" = 1'-0"
140
0.5
141
12.0
290
     0
  0
SCALE
  5
63
102
{ACAD_REACTORS
330
47
102
}
330
47
100
AcDbScale
 70
     0
300
3/4" = 1'-0"
140
0.75
141
12.0
290
     0
  0
SCALE
  5
64
102
{ACAD_REACTORS
330
47
102
}
330
47
100
AcDbScale
 70
     0
300
1" = 1'-0"
140
1.0
141
12.0
290
     0
  0
SCALE
  5
65
102
{ACAD_REACTORS
330
47
102
}
330
47
100
AcDbScale
 70
     0
300
1-1/2" = 1'-0"
140
1.5
141
12.0
290
     0
  0
SCALE
  5
66
102
{ACAD_REACTORS
330
47
102
}
330
47
100
AcDbScale
 70
     0
300
3" = 1'-0"
140
3.0
141
12.0
290
     0
  0
SCALE
  5
67
102
{ACAD_REACTORS
330
47
102
}
330
47
100
AcDbScale
 70
     0
300
6" = 1'-0"
140
6.0
141
12.0
290
     0
  0
SCALE
  5
68
102
{ACAD_REACTORS
330
47
102
}
330
47
100
AcDbScale
 70
     0
300
1'-0" = 1'-0"
140
12.0
141
12.0
290
     0
  0
ENDSEC
  0
EOF
