  0
SECTION
  2
HEADER
  9
$ACADVER
  1
AC1015
  9
$ACADMAINTVER
 70
     6
  9
$DWGCODEPAGE
  3
ANSI_1252
  9
$INSBASE
 10
0.0
 20
0.0
 30
0.0
  9
$EXTMIN
 10
-0.25
 20
-0.8833384474
 30
0.0
  9
$EXTMAX
 10
8.124015748
 20
0.0
 30
0.0
  9
$LIMMIN
 10
0.0
 20
0.0
  9
$LIMMAX
 10
12.0
 20
9.0
  9
$ORTHOMODE
 70
     0
  9
$REGENMODE
 70
     1
  9
$FILLMODE
 70
     1
  9
$QTEXTMODE
 70
     0
  9
$MIRRTEXT
 70
     1
  9
$LTSCALE
 40
1.0
  9
$ATTMODE
 70
     1
  9
$TEXTSIZE
 40
0.1377952756
  9
$TRACEWID
 40
0.05
  9
$TEXTSTYLE
  7
Standard
  9
$CLAYER
  8
0
  9
$CELTYPE
  6
ByLayer
  9
$CECOLOR
 62
   256
  9
$CELTSCALE
 40
1.0
  9
$DISPSILH
 70
     0
  9
$DIMSCALE
 40
1.0
  9
$DIMASZ
 40
0.13
  9
$DIMEXO
 40
0.0393700787
  9
$DIMDLI
 40
0.38
  9
$DIMRND
 40
0.0
  9
$DIMDLE
 40
0.0
  9
$DIMEXE
 40
0.0393700787
  9
$DIMTP
 40
0.0
  9
$DIMTM
 40
0.0
  9
$DIMTXT
 40
0.1377952756
  9
$DIMCEN
 40
0.09
  9
$DIMTSZ
 40
0.0
  9
$DIMTOL
 70
     0
  9
$DIMLIM
 70
     0
  9
$DIMTIH
 70
     1
  9
$DIMTOH
 70
     1
  9
$DIMSE1
 70
     0
  9
$DIMSE2
 70
     0
  9
$DIMTAD
 70
     1
  9
$DIMZIN
 70
     1
  9
$DIMBLK
  1

  9
$DIMASO
 70
     1
  9
$DIMSHO
 70
     1
  9
$DIMPOST
  1

  9
$DIMAPOST
  1

  9
$DIMALT
 70
     0
  9
$DIMALTD
 70
     2
  9
$DIMALTF
 40
25.4
  9
$DIMLFAC
 40
1.0
  9
$DIMTOFL
 70
     0
  9
$DIMTVP
 40
0.0
  9
$DIMTIX
 70
     0
  9
$DIMSOXD
 70
     0
  9
$DIMSAH
 70
     0
  9
$DIMBLK1
  1

  9
$DIMBLK2
  1

  9
$DIMSTYLE
  2
Standard
  9
$DIMCLRD
 70
     0
  9
$DIMCLRE
 70
     0
  9
$DIMCLRT
 70
     0
  9
$DIMTFAC
 40
1.0
  9
$DIMGAP
 40
0.06
  9
$DIMJUST
 70
     0
  9
$DIMSD1
 70
     0
  9
$DIMSD2
 70
     0
  9
$DIMTOLJ
 70
     1
  9
$DIMTZIN
 70
     1
  9
$DIMALTZ
 70
     0
  9
$DIMALTTZ
 70
     0
  9
$DIMUPT
 70
     0
  9
$DIMDEC
 70
     2
  9
$DIMTDEC
 70
     2
  9
$DIMALTU
 70
     2
  9
$DIMALTTD
 70
     2
  9
$DIMTXSTY
  7
Standard
  9
$DIMAUNIT
 70
     0
  9
$DIMADEC
 70
     2
  9
$DIMALTRND
 40
0.0
  9
$DIMAZIN
 70
     0
  9
$DIMDSEP
 70
    46
  9
$DIMATFIT
 70
     3
  9
$DIMFRAC
 70
     0
  9
$DIMLDRBLK
  1

  9
$DIMLUNIT
 70
     2
  9
$DIMLWD
 70
    -2
  9
$DIMLWE
 70
    -2
  9
$DIMTMOVE
 70
     0
  9
$LUNITS
 70
     2
  9
$LUPREC
 70
     8
  9
$SKETCHINC
 40
0.1
  9
$FILLETRAD
 40
0.5
  9
$AUNITS
 70
     0
  9
$AUPREC
 70
     2
  9
$MENU
  1
.
  9
$ELEVATION
 40
0.0
  9
$PELEVATION
 40
0.0
  9
$THICKNESS
 40
0.0
  9
$LIMCHECK
 70
     0
  9
$CHAMFERA
 40
0.0
  9
$CHAMFERB
 40
0.0
  9
$CHAMFERC
 40
0.0
  9
$CHAMFERD
 40
0.0
  9
$SKPOLY
 70
     0
  9
$TDCREATE
 40
2458301.731578866
  9
$TDUCREATE
 40
2458301.898245533
  9
$TDUPDATE
 40
2458301.731608009
  9
$TDUUPDATE
 40
2458301.898274676
  9
$TDINDWG
 40
0.0000000116
  9
$TDUSRTIMER
 40
0.0000000116
  9
$USRTIMER
 70
     1
  9
$ANGBASE
 50
0.0
  9
$ANGDIR
 70
     0
  9
$PDMODE
 70
     0
  9
$PDSIZE
 40
-1.0
  9
$PLINEWID
 40
0.0
  9
$SPLFRAME
 70
     0
  9
$SPLINETYPE
 70
     6
  9
$SPLINESEGS
 70
     8
  9
$HANDSEED
  5
21F
  9
$SURFTAB1
 70
     6
  9
$SURFTAB2
 70
     6
  9
$SURFTYPE
 70
     6
  9
$SURFU
 70
     6
  9
$SURFV
 70
     6
  9
$UCSBASE
  2

  9
$UCSNAME
  2

  9
$UCSORG
 10
0.0
 20
0.0
 30
0.0
  9
$UCSXDIR
 10
1.0
 20
0.0
 30
0.0
  9
$UCSYDIR
 10
0.0
 20
1.0
 30
0.0
  9
$UCSORTHOREF
  2

  9
$UCSORTHOVIEW
 70
     0
  9
$UCSORGTOP
 10
0.0
 20
0.0
 30
0.0
  9
$UCSORGBOTTOM
 10
0.0
 20
0.0
 30
0.0
  9
$UCSORGLEFT
 10
0.0
 20
0.0
 30
0.0
  9
$UCSORGRIGHT
 10
0.0
 20
0.0
 30
0.0
  9
$UCSORGFRONT
 10
0.0
 20
0.0
 30
0.0
  9
$UCSORGBACK
 10
0.0
 20
0.0
 30
0.0
  9
$PUCSBASE
  2

  9
$PUCSNAME
  2

  9
$PUCSORG
 10
0.0
 20
0.0
 30
0.0
  9
$PUCSXDIR
 10
1.0
 20
0.0
 30
0.0
  9
$PUCSYDIR
 10
0.0
 20
1.0
 30
0.0
  9
$PUCSORTHOREF
  2

  9
$PUCSORTHOVIEW
 70
     0
  9
$PUCSORGTOP
 10
0.0
 20
0.0
 30
0.0
  9
$PUCSORGBOTTOM
 10
0.0
 20
0.0
 30
0.0
  9
$PUCSORGLEFT
 10
0.0
 20
0.0
 30
0.0
  9
$PUCSORGRIGHT
 10
0.0
 20
0.0
 30
0.0
  9
$PUCSORGFRONT
 10
0.0
 20
0.0
 30
0.0
  9
$PUCSORGBACK
 10
0.0
 20
0.0
 30
0.0
  9
$USERI1
 70
     0
  9
$USERI2
 70
     0
  9
$USERI3
 70
     0
  9
$USERI4
 70
     0
  9
$USERI5
 70
     0
  9
$USERR1
 40
0.0
  9
$USERR2
 40
0.0
  9
$USERR3
 40
0.0
  9
$USERR4
 40
0.0
  9
$USERR5
 40
0.0
  9
$WORLDVIEW
 70
     1
  9
$SHADEDGE
 70
     3
  9
$SHADEDIF
 70
    70
  9
$TILEMODE
 70
     1
  9
$MAXACTVP
 70
    64
  9
$PINSBASE
 10
0.0
 20
0.0
 30
0.0
  9
$PLIMCHECK
 70
     0
  9
$PEXTMIN
 10
1.0000000000E+20
 20
1.0000000000E+20
 30
1.0000000000E+20
  9
$PEXTMAX
 10
-1.0000000000E+20
 20
-1.0000000000E+20
 30
-1.0000000000E+20
  9
$PLIMMIN
 10
0.0
 20
0.0
  9
$PLIMMAX
 10
12.0
 20
9.0
  9
$UNITMODE
 70
     0
  9
$VISRETAIN
 70
     1
  9
$PLINEGEN
 70
     0
  9
$PSLTSCALE
 70
     1
  9
$TREEDEPTH
 70
  3020
  9
$CMLSTYLE
  2
Standard
  9
$CMLJUST
 70
     0
  9
$CMLSCALE
 40
1.0
  9
$PROXYGRAPHICS
 70
     1
  9
$MEASUREMENT
 70
     0
  9
$CELWEIGHT
370
    -1
  9
$ENDCAPS
280
     0
  9
$JOINSTYLE
280
     0
  9
$LWDISPLAY
290
     1
  9
$INSUNITS
 70
     1
  9
$HYPERLINKBASE
  1

  9
$STYLESHEET
  1

  9
$XEDIT
290
     1
  9
$CEPSNTYPE
380
     0
  9
$PSTYLEMODE
290
     1
  9
$FINGERPRINTGUID
  2
{42B3DB45-A86F-47BF-969E-F81B8D4501D8}
  9
$VERSIONGUID
  2
{FAEB1C32-E019-11D5-929B-00C0DF256EC4}
  9
$EXTNAMES
290
     1
  9
$PSVPSCALE
 40
0.0
  9
$OLESTARTUP
290
     0
  0
ENDSEC
  0
SECTION
  2
CLASSES
  0
CLASS
  1
ACDBDICTIONARYWDFLT
  2
AcDbDictionaryWithDefault
  3
ObjectDBX Classes
 90
        0
280
     0
281
     0
  0
CLASS
  1
VISUALSTYLE
  2
AcDbVisualStyle
  3
ObjectDBX Classes
 90
     4095
280
     0
281
     0
  0
CLASS
  1
MATERIAL
  2
AcDbMaterial
  3
ObjectDBX Classes
 90
     1153
280
     0
281
     0
  0
CLASS
  1
SCALE
  2
AcDbScale
  3
ObjectDBX Classes
 90
     1153
280
     0
281
     0
  0
CLASS
  1
TABLESTYLE
  2
AcDbTableStyle
  3
ObjectDBX Classes
 90
     4095
280
     0
281
     0
  0
CLASS
  1
MLEADERSTYLE
  2
AcDbMLeaderStyle
  3
ACDB_MLEADERSTYLE_CLASS
 90
     4095
280
     0
281
     0
  0
CLASS
  1
SUN
  2
AcDbSun
  3
SCENEOE
 90
     1153
280
     0
281
     0
  0
CLASS
  1
ACDBPLACEHOLDER
  2
AcDbPlaceHolder
  3
ObjectDBX Classes
 90
        0
280
     0
281
     0
  0
CLASS
  1
LAYOUT
  2
AcDbLayout
  3
ObjectDBX Classes
 90
        0
280
     0
281
     0
  0
ENDSEC
  0
SECTION
  2
TABLES
  0
TABLE
  2
VPORT
  5
8
330
0
100
AcDbSymbolTable
 70
     1
  0
VPORT
  5
29
330
8
100
AcDbSymbolTableRecord
100
AcDbViewportTableRecord
  2
*Active
 70
     0
 10
0.0
 20
0.0
 11
1.0
 21
1.0
 12
3.937007874
 22
-0.4416692237
 13
0.0
 23
0.0
 14
0.5
 24
0.5
 15
0.5
 25
0.5
 16
0.0
 26
0.0
 36
1.0
 17
0.0
 27
0.0
 37
0.0
 40
0.9010052164
 41
9.4799629434
 42
50.0
 43
0.0
 44
0.0
 50
0.0
 51
0.0
 71
     0
 72
   100
 73
     1
 74
     3
 75
     0
 76
     0
 77
     0
 78
     0
281
     0
 65
     1
110
0.0
120
0.0
130
0.0
111
1.0
121
0.0
131
0.0
112
0.0
122
1.0
132
0.0
 79
     0
146
0.0
  0
ENDTAB
  0
TABLE
  2
LTYPE
  5
5
330
0
100
AcDbSymbolTable
 70
     6
  0
LTYPE
  5
14
330
5
100
AcDbSymbolTableRecord
100
AcDbLinetypeTableRecord
  2
ByBlock
 70
     0
  3

 72
    65
 73
     0
 40
0.0
  0
LTYPE
  5
15
330
5
100
AcDbSymbolTableRecord
100
AcDbLinetypeTableRecord
  2
ByLayer
 70
     0
  3

 72
    65
 73
     0
 40
0.0
  0
LTYPE
  5
16
330
5
100
AcDbSymbolTableRecord
100
AcDbLinetypeTableRecord
  2
Continuous
 70
     0
  3
Solid line
 72
    65
 73
     0
 40
0.0
  0
LTYPE
  5
6E
330
5
100
AcDbSymbolTableRecord
100
AcDbLinetypeTableRecord
  2
HIDDEN
 70
     0
  3
Hidden __ __ __ __ __ __ __ __ __ __ __ __ __ __
 72
    65
 73
     2
 40
0.075
 49
0.05
 74
     0
 49
-0.025
 74
     0
  0
LTYPE
  5
6F
330
5
100
AcDbSymbolTableRecord
100
AcDbLinetypeTableRecord
  2
PHANTOM
 70
     0
  3
Phantom ______  __  __  ______  __  __  ______
 72
    65
 73
     6
 40
0.5
 49
0.25
 74
     0
 49
-0.05
 74
     0
 49
0.05
 74
     0
 49
-0.05
 74
     0
 49
0.05
 74
     0
 49
-0.05
 74
     0
  0
LTYPE
  5
70
330
5
100
AcDbSymbolTableRecord
100
AcDbLinetypeTableRecord
  2
CENTER
 70
     0
  3
Center ____ _ ____ _ ____ _ ____ _ ____ _ ____
 72
    65
 73
     4
 40
0.4
 49
0.25
 74
     0
 49
-0.05
 74
     0
 49
0.05
 74
     0
 49
-0.05
 74
     0
  0
LTYPE
  5
71
330
5
100
AcDbSymbolTableRecord
100
AcDbLinetypeTableRecord
  2
CENTERX2
 70
     0
  3
Center (2x) ________  __  ________  __  _____
 72
    65
 73
     4
 40
0.8
 49
0.5
 74
     0
 49
-0.1
 74
     0
 49
0.1
 74
     0
 49
-0.1
 74
     0
  0
LTYPE
  5
72
330
5
100
AcDbSymbolTableRecord
100
AcDbLinetypeTableRecord
  2
DOT2
 70
     0
  3
Dot (.5x) ........................................
 72
    65
 73
     2
 40
0.025
 49
0.0
 74
     0
 49
-0.025
 74
     0
  0
ENDTAB
  0
TABLE
  2
LAYER
  5
2
330
0
100
AcDbSymbolTable
 70
     1
  0
LAYER
  5
10
330
2
100
AcDbSymbolTableRecord
100
AcDbLayerTableRecord
  2
0
 70
     0
 62
     7
  6
Continuous
370
    -3
390
F
  0
ENDTAB
  0
TABLE
  2
STYLE
  5
3
330
0
100
AcDbSymbolTable
 70
     1
  0
STYLE
  5
11
330
3
100
AcDbSymbolTableRecord
100
AcDbTextStyleTableRecord
  2
Standard
 70
     0
 40
0.0
 41
1.0
 50
0.0
 71
     0
 42
0.1377952756
  3
txt
  4

  0
ENDTAB
  0
TABLE
  2
VIEW
  5
6
330
0
100
AcDbSymbolTable
 70
     0
  0
ENDTAB
  0
TABLE
  2
UCS
  5
7
330
0
100
AcDbSymbolTable
 70
     0
  0
ENDTAB
  0
TABLE
  2
APPID
  5
9
330
0
100
AcDbSymbolTable
 70
     1
  0
APPID
  5
12
330
9
100
AcDbSymbolTableRecord
100
AcDbRegAppTableRecord
  2
ACAD
 70
     0
  0
ENDTAB
  0
TABLE
  2
DIMSTYLE
  5
A
330
0
100
AcDbSymbolTable
 70
     1
100
AcDbDimStyleTable
  0
DIMSTYLE
105
27
330
A
100
AcDbSymbolTableRecord
100
AcDbDimStyleTableRecord
  2
Standard
 70
     0
178
     0
340
11
  0
ENDTAB
  0
TABLE
  2
BLOCK_RECORD
  5
1
330
0
100
AcDbSymbolTable
 70
     1
  0
BLOCK_RECORD
  5
1F
330
1
100
AcDbSymbolTableRecord
100
AcDbBlockTableRecord
  2
*Model_Space
340
22
  0
BLOCK_RECORD
  5
1B
330
1
100
AcDbSymbolTableRecord
100
AcDbBlockTableRecord
  2
*Paper_Space
340
1E
  0
BLOCK_RECORD
  5
23
330
1
100
AcDbSymbolTableRecord
100
AcDbBlockTableRecord
  2
*Paper_Space0
340
26
  0
ENDTAB
  0
ENDSEC
  0
SECTION
  2
BLOCKS
  0
BLOCK
  5
20
330
1F
100
AcDbEntity
  8
0
100
AcDbBlockBegin
  2
*Model_Space
 70
     0
 10
0.0
 20
0.0
 30
0.0
  3
*Model_Space
  1

  0
ENDBLK
  5
21
330
1F
100
AcDbEntity
  8
0
100
AcDbBlockEnd
  0
BLOCK
  5
1C
330
1B
100
AcDbEntity
 67
     1
  8
0
100
AcDbBlockBegin
  2
*Paper_Space
 70
     0
 10
0.0
 20
0.0
 30
0.0
  3
*Paper_Space
  1

  0
ENDBLK
  5
1D
330
1B
100
AcDbEntity
 67
     1
  8
0
100
AcDbBlockEnd
  0
BLOCK
  5
24
330
23
100
AcDbEntity
  8
0
100
AcDbBlockBegin
  2
*Paper_Space0
 70
     0
 10
0.0
 20
0.0
 30
0.0
  3
*Paper_Space0
  1

  0
ENDBLK
  5
25
330
23
100
AcDbEntity
  8
0
100
AcDbBlockEnd
  0
ENDSEC
  0
SECTION
  2
ENTITIES
  0
SPLINE
  5
E7
330
1F
100
AcDbEntity
  8
0
  6
Continuous
 62
     7
370
    25
100
AcDbSpline
210
0.0
220
0.0
230
1.0
 70
     8
 71
     3
 72
    15
 73
    11
 74
     0
 42
0.000000001
 43
0.00000001
 40
0.0
 40
0.0
 40
0.0
 40
0.0
 40
0.1229444772723754
 40
0.2436347724863784
 40
0.365423961243933
 40
0.486089407359433
 40
0.6082754247324151
 40
0.733823084008716
 40
0.8648080278685345
 40
1.0
 40
1.0
 40
1.0
 40
1.0
 10
0.1038457149378098
 20
-0.2832338371845685
 30
0.0
 10
0.1026152038283086
 20
-0.2826050883921219
 30
0.0
 10
0.1001767429811326
 20
-0.2813591188911135
 30
0.0
 10
0.0963915208399341
 20
-0.2797567247730852
 30
0.0
 10
0.0925400818228047
 20
-0.2784054870274018
 30
0.0
 10
0.0886169293784664
 20
-0.2772106343598407
 30
0.0
 10
0.0845614738755811
 20
-0.2763618491715505
 30
0.0
 10
0.0803584133186612
 20
-0.2756818751069691
 30
0.0
 10
0.075966537696513
 20
-0.2753185228035649
 30
0.0
 10
0.0729754949583886
 20
-0.2752702321958989
 30
0.0
 10
0.0714563363003565
 20
-0.275245705266276
 30
0.0
  0
SPLINE
  5
E8
330
1F
100
AcDbEntity
  8
0
  6
Continuous
 62
     7
370
    25
100
AcDbSpline
210
0.0
220
0.0
230
1.0
 70
     8
 71
     3
 72
    15
 73
    11
 74
     0
 42
0.000000001
 43
0.00000001
 40
0.0
 40
0.0
 40
0.0
 40
0.0
 40
0.1181467727921274
 40
0.2453595789397957
 40
0.3783044603189015
 40
0.5101699972349489
 40
0.6425997679432427
 40
0.771281606849747
 40
0.8918619680623832
 40
1.0
 40
1.0
 40
1.0
 40
1.0
 10
0.3061389150405155
 20
-0.3850825191427998
 30
0.0
 10
0.3068360587181326
 20
-0.3850675654148769
 30
0.0
 10
0.3082838416338944
 20
-0.3850365104795618
 30
0.0
 10
0.3105108526238793
 20
-0.3848719529023843
 30
0.0
 10
0.3128130280405514
 20
-0.3846361843618124
 30
0.0
 10
0.3151287440550404
 20
-0.3842718706892458
 30
0.0
 10
0.3174202572907412
 20
-0.383904516136977
 30
0.0
 10
0.3196034611847455
 20
-0.3833463360512898
 30
0.0
 10
0.3216492878526752
 20
-0.3828270514237382
 30
0.0
 10
0.3229190155640632
 20
-0.3823669247815188
 30
0.0
 10
0.3235193426908632
 20
-0.3821493769540515
 30
0.0
  0
SPLINE
  5
EA
330
1F
100
AcDbEntity
  8
0
  6
Continuous
 62
     7
370
    25
100
AcDbSpline
210
0.0
220
0.0
230
1.0
 70
     8
 71
     3
 72
    23
 73
    19
 74
     0
 42
0.000000001
 43
0.00000001
 40
0.0
 40
0.0
 40
0.0
 40
0.0
 40
0.0600826055275935
 40
0.1176272952363645
 40
0.1740099216257106
 40
0.2292867992503294
 40
0.2840979681033403
 40
0.3385587314833682
 40
0.3935885077845276
 40
0.4498602396175005
 40
0.5078430931889035
 40
0.5682152875755655
 40
0.6313654816432799
 40
0.6974741430353522
 40
0.7675210567289236
 40
0.8409590482031503
 40
0.9181969673811035
 40
1.0
 40
1.0
 40
1.0
 40
1.0
 10
0.0714563363003565
 20
-0.275245705266276
 30
0.0
 10
0.0699031641093767
 20
-0.2752791054249764
 30
0.0
 10
0.0668624264073898
 20
-0.2753444949049078
 30
0.0
 10
0.0624218509782472
 20
-0.2761115658832979
 30
0.0
 10
0.0581917261127881
 20
-0.2772365775394817
 30
0.0
 10
0.0542094869037502
 20
-0.2788838044317289
 30
0.0
 10
0.0504723046644289
 20
-0.2809301299241604
 30
0.0
 10
0.0470655154210845
 20
-0.2834747183570862
 30
0.0
 10
0.0438743292676694
 20
-0.2863403241148432
 30
0.0
 10
0.0410364990478949
 20
-0.2896808907171695
 30
0.0
 10
0.0384948157110976
 20
-0.293415882008474
 30
0.0
 10
0.0362958870497903
 20
-0.2975628189484664
 30
0.0
 10
0.034344922339546
 20
-0.3020609321813691
 30
0.0
 10
0.0327689667001858
 20
-0.3069672955512231
 30
0.0
 10
0.0314859869619947
 20
-0.3122304129016466
 30
0.0
 10
0.030595355177131
 20
-0.3178656381581388
 30
0.0
 10
0.0300631672437415
 20
-0.3238506545076715
 30
0.0
 10
0.029992065842151
 20
-0.327957920685307
 30
0.0
 10
0.0299554946936016
 20
-0.3300705012836221
 30
0.0
  0
SPLINE
  5
EB
330
1F
100
AcDbEntity
  8
0
  6
Continuous
 62
     7
370
    25
100
AcDbSpline
210
0.0
220
0.0
230
1.0
 70
     8
 71
     3
 72
    15
 73
    11
 74
     0
 42
0.000000001
 43
0.00000001
 40
0.0
 40
0.0
 40
0.0
 40
0.0
 40
0.121562529290602
 40
0.2466329919570407
 40
0.3746616108674929
 40
0.5029290309551443
 40
0.63158731019912
 40
0.7582745454850962
 40
0.8812488739967894
 40
1.0
 40
1.0
 40
1.0
 40
1.0
 10
0.8147894556658718
 20
-0.3926025964564999
 30
0.0
 10
0.8132902677459245
 20
-0.393270208166218
 30
0.0
 10
0.8102486297974527
 20
-0.3946246968758085
 30
0.0
 10
0.8054594525352998
 20
-0.396255792537237
 30
0.0
 10
0.8005444922057119
 20
-0.3977883759991859
 30
0.0
 10
0.7954738777624618
 20
-0.3989295476282636
 30
0.0
 10
0.7903932325857889
 20
-0.3999310135721488
 30
0.0
 10
0.7853236163772663
 20
-0.4005503275893552
 30
0.0
 10
0.7803692790720678
 20
-0.4009924744801612
 30
0.0
 10
0.7771068084194213
 20
-0.4010369390944476
 30
0.0
 10
0.7755040725208305
 20
-0.4010587829793806
 30
0.0
  0
SPLINE
  5
EC
330
1F
100
AcDbEntity
  8
0
  6
Continuous
 62
     7
370
    25
100
AcDbSpline
210
0.0
220
0.0
230
1.0
 70
     8
 71
     3
 72
    15
 73
    11
 74
     0
 42
0.000000001
 43
0.00000001
 40
0.0
 40
0.0
 40
0.0
 40
0.0
 40
0.1664470545421545
 40
0.3104460560250657
 40
0.4352727845467562
 40
0.5488696155211753
 40
0.6554367001834561
 40
0.7633740783308897
 40
0.8757267914862927
 40
0.9999999999999999
 40
0.9999999999999999
 40
0.9999999999999999
 40
0.9999999999999999
 10
1.011466000513526
 20
-0.3560319300180633
 30
0.0
 10
1.010746450880904
 20
-0.3545188596705584
 30
0.0
 10
1.009404394416304
 20
-0.3516967807628635
 30
0.0
 10
1.007093430163838
 20
-0.3479637890333683
 30
0.0
 10
1.004659632517536
 20
-0.3449677053405751
 30
0.0
 10
1.002038712496136
 20
-0.3426603368230415
 30
0.0
 10
0.9991675729376792
 20
-0.3409957937213578
 30
0.0
 10
0.9960665355142498
 20
-0.3398477645905872
 30
0.0
 10
0.9926292934723981
 20
-0.339281122867453
 30
0.0
 10
0.9902493161628324
 20
-0.3391956499856322
 30
0.0
 10
0.9889993794933277
 20
-0.3391507606126088
 30
0.0
  0
SPLINE
  5
ED
330
1F
100
AcDbEntity
  8
0
  6
Continuous
 62
     7
370
    25
100
AcDbSpline
210
0.0
220
0.0
230
1.0
 70
     8
 71
     3
 72
    13
 73
     9
 74
     0
 42
0.000000001
 43
0.00000001
 40
0.0
 40
0.0
 40
0.0
 40
0.0
 40
0.2629980977952878
 40
0.514350381336562
 40
0.6373173557455044
 40
0.7592268647186362
 40
0.8797571536174071
 40
1.0
 40
1.0
 40
1.0
 40
1.0
 10
0.7801222112860919
 20
-0.2592694414296829
 30
0.0
 10
0.7832250464366614
 20
-0.259341810776381
 30
0.0
 10
0.789293320147758
 20
-0.2594833448839784
 30
0.0
 10
0.7967658080831094
 20
-0.2604043688002928
 30
0.0
 10
0.8025264554666772
 20
-0.2614593212450114
 30
0.0
 10
0.8066955848404321
 20
-0.2625588662835677
 30
0.0
 10
0.8108122850507129
 20
-0.2637331073208842
 30
0.0
 10
0.8134647876744107
 20
-0.2647518014022049
 30
0.0
 10
0.8147894556658707
 20
-0.2652605403684022
 30
0.0
  0
SPLINE
  5
EE
330
1F
100
AcDbEntity
  8
0
  6
Continuous
 62
     7
370
    25
100
AcDbSpline
210
0.0
220
0.0
230
1.0
 70
     8
 71
     3
 72
    15
 73
    11
 74
     0
 42
0.000000001
 43
0.00000001
 40
0.0
 40
0.0
 40
0.0
 40
0.0
 40
0.1215625292906022
 40
0.2466329919570411
 40
0.3746616108674952
 40
0.5029290309551451
 40
0.631587310199121
 40
0.7582745454850974
 40
0.8812488739967909
 40
1.0
 40
1.0
 40
1.0
 40
1.0
 10
0.3434896724865955
 20
-0.3926025964565049
 30
0.0
 10
0.3419904845666482
 20
-0.3932702081662231
 30
0.0
 10
0.3389488466181764
 20
-0.3946246968758135
 30
0.0
 10
0.3341596693560229
 20
-0.396255792537242
 30
0.0
 10
0.329244709026435
 20
-0.3977883759991908
 30
0.0
 10
0.3241740945831855
 20
-0.3989295476282687
 30
0.0
 10
0.319093449406512
 20
-0.3999310135721538
 30
0.0
 10
0.3140238331979895
 20
-0.4005503275893602
 30
0.0
 10
0.3090694958927909
 20
-0.4009924744801662
 30
0.0
 10
0.3058070252401444
 20
-0.4010369390944525
 30
0.0
 10
0.3042042893415542
 20
-0.4010587829793855
 30
0.0
  0
SPLINE
  5
EF
330
1F
100
AcDbEntity
  8
0
  6
Continuous
 62
     7
370
    25
100
AcDbSpline
210
0.0
220
0.0
230
1.0
 70
     8
 71
     3
 72
    23
 73
    19
 74
     0
 42
0.000000001
 43
0.00000001
 40
0.0
 40
0.0
 40
0.0
 40
0.0
 40
0.0670941814273036
 40
0.1309682097883681
 40
0.1922050918633994
 40
0.2517550137278222
 40
0.3096665216125724
 40
0.3664909861681839
 40
0.4232477774466368
 40
0.4800977581528622
 40
0.5380593300261155
 40
0.5972979270905534
 40
0.6584506770665394
 40
0.7220585008632534
 40
0.7879244943819377
 40
0.8559812217734782
 40
0.9264655114516146
 40
1.0
 40
1.0
 40
1.0
 40
1.0
 10
0.7802470258473156
 20
-0.2752457052662686
 30
0.0
 10
0.7784134304718922
 20
-0.2752899698992024
 30
0.0
 10
0.7748342422518879
 20
-0.2753763747052371
 30
0.0
 10
0.7696315530683366
 20
-0.2761565132503017
 30
0.0
 10
0.7647192110922431
 20
-0.2773420824199062
 30
0.0
 10
0.7601570309996984
 20
-0.2791124511193171
 30
0.0
 10
0.7559192467580456
 20
-0.2813002731864284
 30
0.0
 10
0.7520226324646984
 20
-0.2839159592480532
 30
0.0
 10
0.7484441530170006
 20
-0.2869095208093258
 30
0.0
 10
0.7452460695725439
 20
-0.2903489644004731
 30
0.0
 10
0.7423934943153359
 20
-0.294164565088896
 30
0.0
 10
0.739944495648047
 20
-0.2983840069993635
 30
0.0
 10
0.7377636035015406
 20
-0.3029193347211385
 30
0.0
 10
0.7360115230980833
 20
-0.307829856902914
 30
0.0
 10
0.7345853469758542
 20
-0.31304095251507
 30
0.0
 10
0.7336682509710243
 20
-0.3185530426349476
 30
0.0
 10
0.7329911401217802
 20
-0.3243123333515682
 30
0.0
 10
0.7329381564264871
 20
-0.3282481408161411
 30
0.0
 10
0.7329111035033696
 20
-0.3302577231254497
 30
0.0
  0
SPLINE
  5
F0
330
1F
100
AcDbEntity
  8
0
  6
Continuous
 62
     7
370
    25
100
AcDbSpline
210
0.0
220
0.0
230
1.0
 70
     8
 71
     3
 72
    13
 73
     9
 74
     0
 42
0.000000001
 43
0.00000001
 40
0.0
 40
0.0
 40
0.0
 40
0.0
 40
0.2629980977952893
 40
0.5143503813365649
 40
0.6373173557455071
 40
0.7592268647186386
 40
0.8797571536174074
 40
1.0
 40
1.0
 40
1.0
 40
1.0
 10
0.3088224281068157
 20
-0.2592694414296878
 30
0.0
 10
0.3119252632573845
 20
-0.259341810776386
 30
0.0
 10
0.3179935369684817
 20
-0.2594833448839833
 30
0.0
 10
0.3254660249038325
 20
-0.2604043688002977
 30
0.0
 10
0.3312266722874004
 20
-0.2614593212450163
 30
0.0
 10
0.3353958016611558
 20
-0.2625588662835726
 30
0.0
 10
0.3395125018714361
 20
-0.2637331073208891
 30
0.0
 10
0.3421650044951339
 20
-0.2647518014022098
 30
0.0
 10
0.3434896724865944
 20
-0.2652605403684071
 30
0.0
  0
SPLINE
  5
F1
330
1F
100
AcDbEntity
  8
0
  6
Continuous
 62
     7
370
    25
100
AcDbSpline
210
0.0
220
0.0
230
1.0
 70
     8
 71
     3
 72
    11
 73
     7
 74
     0
 42
0.000000001
 43
0.00000001
 40
0.0
 40
0.0
 40
0.0
 40
0.0
 40
0.2486186933577399
 40
0.4959779292385362
 40
0.7466774047198477
 40
1.0
 40
1.0
 40
1.0
 40
1.0
 10
0.1038457149378109
 20
-0.395067684040668
 30
0.0
 10
0.1011043718007934
 20
-0.3959937307333738
 30
0.0
 10
0.0956355726768524
 20
-0.3978411329331976
 30
0.0
 10
0.0871332622397044
 20
-0.3996814781081607
 30
0.0
 10
0.0784579407406239
 20
-0.4008469475751214
 30
0.0
 10
0.0725938366872108
 20
-0.4009879266087192
 30
0.0
 10
0.0696465251626198
 20
-0.401058782979388
 30
0.0
  0
SPLINE
  5
F2
330
1F
100
AcDbEntity
  8
0
  6
Continuous
 62
     7
370
    25
100
AcDbSpline
210
0.0
220
0.0
230
1.0
 70
     8
 71
     3
 72
    13
 73
     9
 74
     0
 42
0.000000001
 43
0.00000001
 40
0.0
 40
0.0
 40
0.0
 40
0.0
 40
0.243243211595846
 40
0.4850313067569414
 40
0.6072204693392954
 40
0.7333344144511423
 40
0.8647086109366648
 40
1.0
 40
1.0
 40
1.0
 40
1.0
 10
0.8147894556658712
 20
-0.2832338371845611
 30
0.0
 10
0.8121383475434252
 20
-0.2820547095795799
 30
0.0
 10
0.8068519906147046
 20
-0.279703508083246
 30
0.0
 10
0.7999053053775823
 20
-0.2775932185665809
 30
0.0
 10
0.7941889876832355
 20
-0.2763744606261607
 30
0.0
 10
0.7897067859633174
 20
-0.2757284631458999
 30
0.0
 10
0.7850397127094949
 20
-0.2753066047148636
 30
0.0
 10
0.781860156863528
 20
-0.27526620291033
 30
0.0
 10
0.7802470258473156
 20
-0.2752457052662686
 30
0.0
  0
SPLINE
  5
F3
330
1F
100
AcDbEntity
  8
0
  6
Continuous
 62
     7
370
    25
100
AcDbSpline
210
0.0
220
0.0
230
1.0
 70
     8
 71
     3
 72
    23
 73
    19
 74
     0
 42
0.000000001
 43
0.00000001
 40
0.0
 40
0.0
 40
0.0
 40
0.0
 40
0.0742149842916863
 40
0.1449264714870364
 40
0.2126554212774031
 40
0.2779006096551897
 40
0.3406317460113401
 40
0.4013614374701667
 40
0.4602739040129359
 40
0.5182523520608365
 40
0.5756620042123007
 40
0.6328091233534309
 40
0.6904040123490478
 40
0.7492572894169585
 40
0.8095254664623818
 40
0.870964833487267
 40
0.9344536069854678
 40
1.0
 40
1.0
 40
1.0
 40
1.0
 10
0.2416409905283611
 20
-0.3316930905795231
 30
0.0
 10
0.2417009087930417
 20
-0.3289343073522222
 30
0.0
 10
0.2418179167363919
 20
-0.3235469759049917
 30
0.0
 10
0.2427297916589327
 20
-0.3156832886534608
 30
0.0
 10
0.2442537332908937
 20
-0.3082585181888314
 30
0.0
 10
0.2463680742169787
 20
-0.3012878612656004
 30
0.0
 10
0.2490508223489299
 20
-0.2947935538638181
 30
0.0
 10
0.2522900659305695
 20
-0.288829075073378
 30
0.0
 10
0.2559283494306304
 20
-0.2833060917059375
 30
0.0
 10
0.2601419662524616
 20
-0.2783653800113088
 30
0.0
 10
0.2648023640304291
 20
-0.2739438874854883
 30
0.0
 10
0.269920600729492
 20
-0.270080343304977
 30
0.0
 10
0.2754880111770613
 20
-0.2667962891578217
 30
0.0
 10
0.2814612736004738
 20
-0.2640378036956706
 30
0.0
 10
0.287833909656274
 20
-0.2618932056891244
 30
0.0
 10
0.2945550963616138
 20
-0.2603652618066461
 30
0.0
 10
0.301589116469321
 20
-0.2594507114766204
 30
0.0
 10
0.3063858278013205
 20
-0.2593305037305907
 30
0.0
 10
0.3088224281068157
 20
-0.2592694414296878
 30
0.0
  0
SPLINE
  5
F4
330
1F
100
AcDbEntity
  8
0
  6
Continuous
 62
     7
370
    25
100
AcDbSpline
210
0.0
220
0.0
230
1.0
 70
     8
 71
     3
 72
    13
 73
     9
 74
     0
 42
0.000000001
 43
0.00000001
 40
0.0
 40
0.0
 40
0.0
 40
0.0
 40
0.1371061699383939
 40
0.2698431066498105
 40
0.3974532667587332
 40
0.5204190357232257
 40
0.7614228402333119
 40
1.0
 40
1.0
 40
1.0
 40
1.0
 10
0.0706762452927107
 20
-0.2592694414296903
 30
0.0
 10
0.0722265840362512
 20
-0.2592857916050672
 30
0.0
 10
0.0752778560767762
 20
-0.259317970916326
 30
0.0
 10
0.0797625402045874
 20
-0.2596196012832392
 30
0.0
 10
0.0840793072534011
 20
-0.2600260066092828
 30
0.0
 10
0.0895654467287661
 20
-0.2609239381998482
 30
0.0
 10
0.0962287793420415
 20
-0.2624261148229442
 30
0.0
 10
0.101315315573485
 20
-0.2643189243460218
 30
0.0
 10
0.1038457149378092
 20
-0.2652605403684096
 30
0.0
  0
SPLINE
  5
F5
330
1F
100
AcDbEntity
  8
0
  6
Continuous
 62
     7
370
    25
100
AcDbSpline
210
0.0
220
0.0
230
1.0
 70
     8
 71
     3
 72
    15
 73
    11
 74
     0
 42
0.000000001
 43
0.00000001
 40
0.0
 40
0.0
 40
0.0
 40
0.0
 40
0.129441709491024
 40
0.2566018159404526
 40
0.381920060292928
 40
0.5060967178998284
 40
0.6301210788114091
 40
0.7531741357244952
 40
0.8762879005063156
 40
1.0
 40
1.0
 40
1.0
 40
1.0
 10
0.0718619836243334
 20
-0.3850825191428023
 30
0.0
 10
0.0732984551291442
 20
-0.3850620805298994
 30
0.0
 10
0.0761460781876656
 20
-0.3850215635651063
 30
0.0
 10
0.0803650399753999
 20
-0.3845898532558608
 30
0.0
 10
0.0844975571139246
 20
-0.3839540530385064
 30
0.0
 10
0.0885326260854055
 20
-0.382995128652769
 30
0.0
 10
0.0924861930672071
 20
-0.3818384481868706
 30
0.0
 10
0.0963752407248112
 20
-0.3805109420901354
 30
0.0
 10
0.100154203637999
 20
-0.3789032626907148
 30
0.0
 10
0.1026132241869064
 20
-0.3776983193543524
 30
0.0
 10
0.1038457149378109
 20
-0.3770943872245091
 30
0.0
  0
SPLINE
  5
F6
330
1F
100
AcDbEntity
  8
0
  6
Continuous
 62
     7
370
    25
100
AcDbSpline
210
0.0
220
0.0
230
1.0
 70
     8
 71
     3
 72
    15
 73
    11
 74
     0
 42
0.000000001
 43
0.00000001
 40
0.0
 40
0.0
 40
0.0
 40
0.0
 40
0.1113561858716363
 40
0.2209381153284738
 40
0.3311359668040578
 40
0.4436636260447326
 40
0.5643945084194364
 40
0.6974754718629911
 40
0.842102763656518
 40
1.0
 40
1.0
 40
1.0
 40
1.0
 10
1.013743866255852
 20
-0.3345638254876514
 30
0.0
 10
1.014661519141794
 20
-0.3349003921976303
 30
0.0
 10
1.016482203799398
 20
-0.3355681630448719
 30
0.0
 10
1.018985370270355
 20
-0.3370553164192374
 30
0.0
 10
1.021340231390926
 20
-0.3387835324804886
 30
0.0
 10
1.023397536903899
 20
-0.3409937282210253
 30
0.0
 10
1.025423095495278
 20
-0.3434836693053079
 30
0.0
 10
1.027387519971378
 20
-0.3463716975646416
 30
0.0
 10
1.029445410736628
 20
-0.3495864185328638
 30
0.0
 10
1.030712558200449
 20
-0.3519147570548734
 30
0.0
 10
1.031373923028646
 20
-0.3531299914696208
 30
0.0
  0
SPLINE
  5
F7
330
1F
100
AcDbEntity
  8
0
  6
Continuous
 62
     7
370
    25
100
AcDbSpline
210
0.0
220
0.0
230
1.0
 70
     8
 71
     3
 72
    23
 73
    19
 74
     0
 42
0.000000001
 43
0.00000001
 40
0.0
 40
0.0
 40
0.0
 40
0.0
 40
0.0664738333188751
 40
0.1298307263109072
 40
0.1909405314342722
 40
0.2499586523309104
 40
0.3075816076267289
 40
0.3634317083303928
 40
0.4192725287824138
 40
0.4749817129218686
 40
0.5313521339516589
 40
0.5893098920022959
 40
0.6495075646130778
 40
0.7125994162869969
 40
0.7785645337777394
 40
0.8481993859162347
 40
0.9217781163779794
 40
1.0
 40
1.0
 40
1.0
 40
1.0
 10
0.7755040725208305
 20
-0.4010587829793806
 30
0.0
 10
0.7731512438272115
 20
-0.4010038619208928
 30
0.0
 10
0.7685559099503104
 20
-0.4008965950377115
 30
0.0
 10
0.7618338665973836
 20
-0.4000876715519976
 30
0.0
 10
0.7554864541242918
 20
-0.3986759894744203
 30
0.0
 10
0.749486273952445
 20
-0.3967514747761733
 30
0.0
 10
0.7439008027836534
 20
-0.394257162966662
 30
0.0
 10
0.7387155655323855
 20
-0.3912304547410801
 30
0.0
 10
0.7339612118812107
 20
-0.3876729307484458
 30
0.0
 10
0.7296543997092302
 20
-0.3835557574300607
 30
0.0
 10
0.725834758851943
 20
-0.378890287403176
 30
0.0
 10
0.7224309233167981
 20
-0.3737195936616585
 30
0.0
 10
0.7195851023943581
 20
-0.3679572875762614
 30
0.0
 10
0.7171378051213201
 20
-0.3617139318056891
 30
0.0
 10
0.7152327616088949
 20
-0.3549317314465075
 30
0.0
 10
0.7139227666144857
 20
-0.3476378520073616
 30
0.0
 10
0.7130947628237645
 20
-0.3398354526609519
 30
0.0
 10
0.7129931395363759
 20
-0.3344619975581604
 30
0.0
 10
0.712940773707638
 20
-0.3316930905795182
 30
0.0
  0
SPLINE
  5
F8
330
1F
100
AcDbEntity
  8
0
  6
Continuous
 62
     7
370
    25
100
AcDbSpline
210
0.0
220
0.0
230
1.0
 70
     8
 71
     3
 72
    23
 73
    19
 74
     0
 42
0.000000001
 43
0.00000001
 40
0.0
 40
0.0
 40
0.0
 40
0.0
 40
0.0762239501281071
 40
0.148963104003445
 40
0.2189597488319204
 40
0.2862622244111391
 40
0.3508704591317526
 40
0.4127337431522001
 40
0.4725288396037835
 40
0.5304830833678374
 40
0.5872739721413727
 40
0.6438103414321661
 40
0.7002060831706479
 40
0.7573428314617805
 40
0.8154014100422096
 40
0.8750239788061358
 40
0.9360602398740089
 40
1.0
 40
1.0
 40
1.0
 40
1.0
 10
0.0099851648978694
 20
-0.3316930905795256
 30
0.0
 10
0.0100426186568026
 20
-0.3289870922306529
 30
0.0
 10
0.010154899511481
 20
-0.3236988079997934
 30
0.0
 10
0.0109288819568525
 20
-0.3159539405416888
 30
0.0
 10
0.0122805198074319
 20
-0.3086147873740003
 30
0.0
 10
0.0140889879567589
 20
-0.3016691806268054
 30
0.0
 10
0.0164777317608671
 20
-0.2952081049983644
 30
0.0
 10
0.0192748867206502
 20
-0.2892064363649475
 30
0.0
 10
0.022558617273828
 20
-0.283727116710797
 30
0.0
 10
0.0262828865534403
 20
-0.2787597019540364
 30
0.0
 10
0.030467601038207
 20
-0.2743316675248924
 30
0.0
 10
0.0350588012860773
 20
-0.2704098067766403
 30
0.0
 10
0.0400961571671955
 20
-0.2670579670640569
 30
0.0
 10
0.0455073564992247
 20
-0.2642359176477519
 30
0.0
 10
0.0513153308042252
 20
-0.2620057698290625
 30
0.0
 10
0.0574738216293817
 20
-0.2604400017296774
 30
0.0
 10
0.0639652693308367
 20
-0.2594267377142074
 30
0.0
 10
0.0684048723549094
 20
-0.2593226793679422
 30
0.0
 10
0.0706762452927107
 20
-0.2592694414296903
 30
0.0
  0
SPLINE
  5
F9
330
1F
100
AcDbEntity
  8
0
  6
Continuous
 62
     7
370
    25
100
AcDbSpline
210
0.0
220
0.0
230
1.0
 70
     8
 71
     3
 72
    13
 73
     9
 74
     0
 42
0.000000001
 43
0.00000001
 40
0.0
 40
0.0
 40
0.0
 40
0.0
 40
0.243243211595846
 40
0.4850313067569395
 40
0.6072204693392954
 40
0.7333344144511423
 40
0.8647086109366648
 40
1.0
 40
1.0
 40
1.0
 40
1.0
 10
0.3434896724865944
 20
-0.283233837184566
 30
0.0
 10
0.3408385643641483
 20
-0.2820547095795848
 30
0.0
 10
0.3355522074354283
 20
-0.279703508083251
 30
0.0
 10
0.3286055221983055
 20
-0.2775932185665858
 30
0.0
 10
0.3228892045039592
 20
-0.2763744606261658
 30
0.0
 10
0.3184070027840406
 20
-0.2757284631459048
 30
0.0
 10
0.3137399295302181
 20
-0.2753066047148686
 30
0.0
 10
0.3105603736842512
 20
-0.2752662029103349
 30
0.0
 10
0.3089472426680388
 20
-0.2752457052662735
 30
0.0
  0
SPLINE
  5
FA
330
1F
100
AcDbEntity
  8
0
  6
Continuous
 62
     7
370
    25
100
AcDbSpline
210
0.0
220
0.0
230
1.0
 70
     8
 71
     3
 72
    23
 73
    19
 74
     0
 42
0.000000001
 43
0.00000001
 40
0.0
 40
0.0
 40
0.0
 40
0.0
 40
0.0868697556984814
 40
0.1675319506547824
 40
0.2426937766988625
 40
0.312600522050629
 40
0.3779290876485505
 40
0.4396629863466735
 40
0.498186942388584
 40
0.5540528169223414
 40
0.6084904776253064
 40
0.6620097238848454
 40
0.7153020615453952
 40
0.7693008327828281
 40
0.8245220985634748
 40
0.8812392930223815
 40
0.9394025985599828
 40
0.9999999999999999
 40
0.9999999999999999
 40
0.9999999999999999
 40
0.9999999999999999
 10
0.9972059368937609
 20
-0.2612664744092538
 30
0.0
 10
0.99913195961345
 20
-0.2612863364979026
 30
0.0
 10
1.002846374839331
 20
-0.2613246413650989
 30
0.0
 10
1.00819816569161
 20
-0.2618996964919838
 30
0.0
 10
1.01314872955906
 20
-0.2626520194943908
 30
0.0
 10
1.017658343457545
 20
-0.2638649656727548
 30
0.0
 10
1.021779094928849
 20
-0.2653200640503
 30
0.0
 10
1.025503193046357
 20
-0.2670775086348121
 30
0.0
 10
1.028877551530264
 20
-0.2690568825682469
 30
0.0
 10
1.031825426460479
 20
-0.2713728586352813
 30
0.0
 10
1.034456691069636
 20
-0.2738888905764337
 30
0.0
 10
1.036630925235515
 20
-0.2767375883545656
 30
0.0
 10
1.03850508034562
 20
-0.2797769431061977
 30
0.0
 10
1.039963784078851
 20
-0.2830808117189234
 30
0.0
 10
1.041078468614439
 20
-0.2865901822838913
 30
0.0
 10
1.041892860516857
 20
-0.2902755550140289
 30
0.0
 10
1.042364543952629
 20
-0.2941427812176714
 30
0.0
 10
1.042421932798883
 20
-0.2967749268346287
 30
0.0
 10
1.042451215337217
 20
-0.2981179736104401
 30
0.0
  0
SPLINE
  5
FB
330
1F
100
AcDbEntity
  8
0
  6
Continuous
 62
     7
370
    25
100
AcDbSpline
210
0.0
220
0.0
230
1.0
 70
     8
 71
     3
 72
    15
 73
    11
 74
     0
 42
0.000000001
 43
0.00000001
 40
0.0
 40
0.0
 40
0.0
 40
0.0
 40
0.1181467727921282
 40
0.2453595789397899
 40
0.3783044603188966
 40
0.5101699972349488
 40
0.6425997679432474
 40
0.7712816068497488
 40
0.8918619680623858
 40
0.9999999999999999
 40
0.9999999999999999
 40
0.9999999999999999
 40
0.9999999999999999
 10
0.7774386982197918
 20
-0.385082519142795
 30
0.0
 10
0.7781358418974095
 20
-0.385067565414872
 30
0.0
 10
0.7795836248131708
 20
-0.3850365104795568
 30
0.0
 10
0.7818106358031561
 20
-0.3848719529023796
 30
0.0
 10
0.7841128112198278
 20
-0.3846361843618073
 30
0.0
 10
0.7864285272343172
 20
-0.384271870689241
 30
0.0
 10
0.7887200404700175
 20
-0.3839045161369721
 30
0.0
 10
0.7909032443640224
 20
-0.383346336051285
 30
0.0
 10
0.7929490710319514
 20
-0.3828270514237332
 30
0.0
 10
0.7942187987433396
 20
-0.3823669247815139
 30
0.0
 10
0.7948191258701396
 20
-0.3821493769540466
 30
0.0
  0
SPLINE
  5
FC
330
1F
100
AcDbEntity
  8
0
  6
Continuous
 62
     7
370
    25
100
AcDbSpline
210
0.0
220
0.0
230
1.0
 70
     8
 71
     3
 72
    23
 73
    19
 74
     0
 42
0.000000001
 43
0.00000001
 40
0.0
 40
0.0
 40
0.0
 40
0.0
 40
0.0664738333188757
 40
0.1298307263109074
 40
0.1909405314342733
 40
0.2499586523309102
 40
0.3075816076267299
 40
0.3634317083303926
 40
0.4192725287824143
 40
0.4749817129218691
 40
0.5313521339516589
 40
0.5893098920022961
 40
0.6495075646130782
 40
0.7125994162869967
 40
0.7785645337777395
 40
0.8481993859162347
 40
0.9217781163779792
 40
0.9999999999999999
 40
0.9999999999999999
 40
0.9999999999999999
 40
0.9999999999999999
 10
0.3042042893415542
 20
-0.4010587829793855
 30
0.0
 10
0.3018514606479351
 20
-0.4010038619208978
 30
0.0
 10
0.2972561267710341
 20
-0.4008965950377164
 30
0.0
 10
0.2905340834181067
 20
-0.4000876715520024
 30
0.0
 10
0.2841866709450156
 20
-0.3986759894744256
 30
0.0
 10
0.2781864907731682
 20
-0.3967514747761779
 30
0.0
 10
0.2726010196043766
 20
-0.394257162966667
 30
0.0
 10
0.2674157823531086
 20
-0.3912304547410849
 30
0.0
 10
0.2626614287019339
 20
-0.3876729307484508
 30
0.0
 10
0.2583546165299538
 20
-0.3835557574300657
 30
0.0
 10
0.2545349756726668
 20
-0.3788902874031808
 30
0.0
 10
0.2511311401375212
 20
-0.3737195936616635
 30
0.0
 10
0.2482853192150819
 20
-0.3679572875762664
 30
0.0
 10
0.2458380219420432
 20
-0.3617139318056938
 30
0.0
 10
0.2439329784296187
 20
-0.3549317314465125
 30
0.0
 10
0.2426229834352089
 20
-0.3476378520073664
 30
0.0
 10
0.2417949796444882
 20
-0.3398354526609569
 30
0.0
 10
0.2416933563570991
 20
-0.3344619975581654
 30
0.0
 10
0.2416409905283611
 20
-0.3316930905795231
 30
0.0
  0
SPLINE
  5
FD
330
1F
100
AcDbEntity
  8
0
  6
Continuous
 62
     7
370
    25
100
AcDbSpline
210
0.0
220
0.0
230
1.0
 70
     8
 71
     3
 72
    23
 73
    19
 74
     0
 42
0.000000001
 43
0.00000001
 40
0.0
 40
0.0
 40
0.0
 40
0.0
 40
0.0776926921617877
 40
0.1513392742650691
 40
0.2212327312897135
 40
0.2875436524260443
 40
0.3508703177692944
 40
0.410857478413776
 40
0.4684120070324632
 40
0.524036442900178
 40
0.5788169698750624
 40
0.633016574482945
 40
0.687784834566847
 40
0.7439542020448594
 40
0.8025219656723188
 40
0.8640985142188916
 40
0.9296211511298682
 40
1.0
 40
1.0
 40
1.0
 40
1.0
 10
0.7329111035033696
 20
-0.3302577231254497
 30
0.0
 10
0.7329405721952849
 20
-0.3323491075464521
 30
0.0
 10
0.7329979748971844
 20
-0.3364229604620474
 30
0.0
 10
0.7334569174234082
 20
-0.3423659302077425
 30
0.0
 10
0.734283631984077
 20
-0.3479564797090565
 30
0.0
 10
0.735340762762681
 20
-0.353226913726836
 30
0.0
 10
0.7368039742749879
 20
-0.3581253770966054
 30
0.0
 10
0.7386191111049587
 20
-0.3626493504997776
 30
0.0
 10
0.7407611349670696
 20
-0.3668002822449254
 30
0.0
 10
0.7433151900257384
 20
-0.3705431333838741
 30
0.0
 10
0.7462147146358645
 20
-0.3739086174405024
 30
0.0
 10
0.7495303937497346
 20
-0.3768326821312308
 30
0.0
 10
0.7532109099604056
 20
-0.3793442968431761
 30
0.0
 10
0.7572708330070618
 20
-0.3814487268273806
 30
0.0
 10
0.7617282167309686
 20
-0.3831191590958579
 30
0.0
 10
0.766608752571695
 20
-0.3842358427919141
 30
0.0
 10
0.7718818463043929
 20
-0.3849886612255438
 30
0.0
 10
0.7755428081350256
 20
-0.3850504966420334
 30
0.0
 10
0.7774386982197918
 20
-0.3850825191427949
 30
0.0
  0
SPLINE
  5
FE
330
1F
100
AcDbEntity
  8
0
  6
Continuous
 62
     7
370
    25
100
AcDbSpline
210
0.0
220
0.0
230
1.0
 70
     8
 71
     3
 72
    23
 73
    19
 74
     0
 42
0.000000001
 43
0.00000001
 40
0.0
 40
0.0
 40
0.0
 40
0.0
 40
0.0840477517007217
 40
0.1627791610833332
 40
0.2368791130352355
 40
0.3066093047551773
 40
0.3720572668441888
 40
0.4337351778946297
 40
0.4924178082452281
 40
0.5489211427996455
 40
0.6034321414059364
 40
0.6573141737654375
 40
0.7103054840779957
 40
0.7643737787446878
 40
0.8192981803549599
 40
0.87649369741475
 40
0.9365247084670569
 40
1.0
 40
1.0
 40
1.0
 40
1.0
 10
0.0299554946936016
 20
-0.3300705012836221
 30
0.0
 10
0.0299812197495213
 20
-0.3322765212662124
 30
0.0
 10
0.0300310426530101
 20
-0.3365490220152839
 30
0.0
 10
0.0305339105809275
 20
-0.3427506753824439
 30
0.0
 10
0.0313741960329803
 20
-0.3485339362488371
 30
0.0
 10
0.0325073663355394
 20
-0.3539127271737812
 30
0.0
 10
0.0339960584195136
 20
-0.358867752052328
 30
0.0
 10
0.0358479361179843
 20
-0.3633860004519663
 30
0.0
 10
0.0379956856674774
 20
-0.3675096764434781
 30
0.0
 10
0.0404962766042905
 20
-0.3712073156769213
 30
0.0
 10
0.0433292197502978
 20
-0.3744917083666911
 30
0.0
 10
0.0464799963980183
 20
-0.3773402227414492
 30
0.0
 10
0.049968385794549
 20
-0.3797405251586981
 30
0.0
 10
0.0537460950340234
 20
-0.3817155673762145
 30
0.0
 10
0.0578557081767982
 20
-0.3832076880608139
 30
0.0
 10
0.0622458484447086
 20
-0.3843015831472904
 30
0.0
 10
0.0669532314033598
 20
-0.3849657895071923
 30
0.0
 10
0.0701955924495301
 20
-0.3850428925277559
 30
0.0
 10
0.0718619836243334
 20
-0.3850825191428023
 30
0.0
  0
SPLINE
  5
FF
330
1F
100
AcDbEntity
  8
0
  6
Continuous
 62
     7
370
    25
100
AcDbSpline
210
0.0
220
0.0
230
1.0
 70
     8
 71
     3
 72
    29
 73
    25
 74
     0
 42
0.000000001
 43
0.00000001
 40
0.0
 40
0.0
 40
0.0
 40
0.0
 40
0.0852171857061014
 40
0.1671663307474866
 40
0.2070641745736216
 40
0.2461140111268724
 40
0.2841258086146786
 40
0.3218525284452797
 40
0.358839722195791
 40
0.395620608430196
 40
0.4320739099708442
 40
0.4685518824081455
 40
0.5053704576395377
 40
0.5425940453332057
 40
0.5807082635190851
 40
0.619831944641762
 40
0.6602450784005558
 40
0.7020586562824497
 40
0.7456979488823329
 40
0.791397393088504
 40
0.8394572581662951
 40
0.8900292511140427
 40
0.9435792499698444
 40
1.0
 40
1.0
 40
1.0
 40
1.0
 10
0.2296587926509223
 20
-0.3286351338295517
 30
0.0
 10
0.2295931656881021
 20
-0.3318735768591345
 30
0.0
 10
0.2294644285269077
 20
-0.3382262700876717
 30
0.0
 10
0.2284586127911961
 20
-0.3460427533692467
 30
0.0
 10
0.2273135075854816
 20
-0.3520487216245162
 30
0.0
 10
0.2261831845222637
 20
-0.3563489974430289
 30
0.0
 10
0.2248396521618883
 20
-0.3604998753353436
 30
0.0
 10
0.2232526457477901
 20
-0.364480835354221
 30
0.0
 10
0.2214336705375611
 20
-0.3683080861198158
 30
0.0
 10
0.2193949026425785
 20
-0.3719715253542792
 30
0.0
 10
0.2170183773410929
 20
-0.375400507828898
 30
0.0
 10
0.2144675785030448
 20
-0.3787008648097814
 30
0.0
 10
0.2116305331300832
 20
-0.3818048999582757
 30
0.0
 10
0.2084510420395253
 20
-0.3846498499081097
 30
0.0
 10
0.2049823252835039
 20
-0.3872794527468505
 30
0.0
 10
0.2011904842558221
 20
-0.3896577095952365
 30
0.0
 10
0.1970841281215482
 20
-0.3917588879694339
 30
0.0
 10
0.1927101336286894
 20
-0.3937041157791301
 30
0.0
 10
0.187968505678762
 20
-0.3952516474383505
 30
0.0
 10
0.1829375553190119
 20
-0.3966483152069459
 30
0.0
 10
0.1775579390070806
 20
-0.397734044253827
 30
0.0
 10
0.1718256096365626
 20
-0.3985047694836097
 30
0.0
 10
0.1657409205751467
 20
-0.3989778991715833
 30
0.0
 10
0.1615629274640105
 20
-0.3990333174978516
 30
0.0
 10
0.1594193983224966
 20
-0.3990617499998139
 30
0.0
  0
SPLINE
  5
100
330
1F
100
AcDbEntity
  8
0
  6
Continuous
 62
     7
370
    25
100
AcDbSpline
210
0.0
220
0.0
230
1.0
 70
     8
 71
     3
 72
    23
 73
    19
 74
     0
 42
0.000000001
 43
0.00000001
 40
0.0
 40
0.0
 40
0.0
 40
0.0
 40
0.0670941814273028
 40
0.1309682097883689
 40
0.1922050918633987
 40
0.2517550137278222
 40
0.3096665216125732
 40
0.3664909861681837
 40
0.4232477774466372
 40
0.4800977581528627
 40
0.5380593300261158
 40
0.5972979270905531
 40
0.6584506770665398
 40
0.7220585008632532
 40
0.7879244943819379
 40
0.8559812217734782
 40
0.9264655114516147
 40
1.0
 40
1.0
 40
1.0
 40
1.0
 10
0.3089472426680388
 20
-0.2752457052662735
 30
0.0
 10
0.3071136472926159
 20
-0.2752899698992073
 30
0.0
 10
0.3035344590726116
 20
-0.2753763747052421
 30
0.0
 10
0.2983317698890603
 20
-0.2761565132503066
 30
0.0
 10
0.2934194279129663
 20
-0.2773420824199113
 30
0.0
 10
0.2888572478204217
 20
-0.279112451119322
 30
0.0
 10
0.2846194635787693
 20
-0.2813002731864332
 30
0.0
 10
0.2807228492854215
 20
-0.2839159592480582
 30
0.0
 10
0.2771443698377243
 20
-0.2869095208093307
 30
0.0
 10
0.2739462863932676
 20
-0.2903489644004781
 30
0.0
 10
0.2710937111360595
 20
-0.2941645650889009
 30
0.0
 10
0.2686447124687706
 20
-0.2983840069993685
 30
0.0
 10
0.2664638203222642
 20
-0.3029193347211433
 30
0.0
 10
0.2647117399188069
 20
-0.3078298569029191
 30
0.0
 10
0.2632855637965774
 20
-0.3130409525150749
 30
0.0
 10
0.2623684677917474
 20
-0.3185530426349524
 30
0.0
 10
0.2616913569425034
 20
-0.3243123333515733
 30
0.0
 10
0.2616383732472102
 20
-0.3282481408161459
 30
0.0
 10
0.2616113203240933
 20
-0.3302577231254546
 30
0.0
  0
SPLINE
  5
101
330
1F
100
AcDbEntity
  8
0
  6
Continuous
 62
     7
370
    25
100
AcDbSpline
210
0.0
220
0.0
230
1.0
 70
     8
 71
     3
 72
    23
 73
    19
 74
     0
 42
0.000000001
 43
0.00000001
 40
0.0
 40
0.0
 40
0.0
 40
0.0
 40
0.0732358418510483
 40
0.1421551750349095
 40
0.2068992568259528
 40
0.2681883711078176
 40
0.3264045425663566
 40
0.3823804415609509
 40
0.4367579535255938
 40
0.4906271321329777
 40
0.544844880344775
 40
0.6000928353490422
 40
0.6577386600611427
 40
0.7183587513215008
 40
0.7822306476837624
 40
0.8503119303370109
 40
0.9226833265092151
 40
1.0
 40
1.0
 40
1.0
 40
1.0
 10
0.1654417009015205
 20
-0.2612664744092625
 30
0.0
 10
0.1680543626979679
 20
-0.2613094157889007
 30
0.0
 10
0.1731256964273792
 20
-0.26139276759021
 30
0.0
 10
0.1804745529951909
 20
-0.2621765408248144
 30
0.0
 10
0.1873102891642761
 20
-0.263484712400913
 30
0.0
 10
0.1936468148292489
 20
-0.2652686768972172
 30
0.0
 10
0.199456821432209
 20
-0.2676272304949657
 30
0.0
 10
0.2047760303847173
 20
-0.2704579694881986
 30
0.0
 10
0.2095637290491
 20
-0.2738609107560074
 30
0.0
 10
0.213840382880193
 20
-0.2777919082901524
 30
0.0
 10
0.2176150976600643
 20
-0.2822509672285105
 30
0.0
 10
0.220842863746881
 20
-0.2872791432951911
 30
0.0
 10
0.2235961663552377
 20
-0.2928343935696819
 30
0.0
 10
0.2258400175188651
 20
-0.2989443695722628
 30
0.0
 10
0.2275337748861585
 20
-0.305610410348874
 30
0.0
 10
0.2287716477010996
 20
-0.312797778481274
 30
0.0
 10
0.229527557000067
 20
-0.320537280028532
 30
0.0
 10
0.2296140944484683
 20
-0.3258770455640329
 30
0.0
 10
0.2296587926509223
 20
-0.3286351338295517
 30
0.0
  0
SPLINE
  5
102
330
1F
100
AcDbEntity
  8
0
  6
Continuous
 62
     7
370
    25
100
AcDbSpline
210
0.0
220
0.0
230
1.0
 70
     8
 71
     3
 72
    23
 73
    19
 74
     0
 42
0.000000001
 43
0.00000001
 40
0.0
 40
0.0
 40
0.0
 40
0.0
 40
0.0742149842916862
 40
0.1449264714870363
 40
0.2126554212774028
 40
0.2779006096551897
 40
0.3406317460113399
 40
0.4013614374701664
 40
0.4602739040129357
 40
0.5182523520608363
 40
0.575662004212301
 40
0.6328091233534302
 40
0.6904040123490472
 40
0.7492572894169588
 40
0.8095254664623818
 40
0.8709648334872658
 40
0.9344536069854666
 40
1.0
 40
1.0
 40
1.0
 40
1.0
 10
0.712940773707638
 20
-0.3316930905795182
 30
0.0
 10
0.713000691972318
 20
-0.3289343073522175
 30
0.0
 10
0.7131176999156682
 20
-0.3235469759049868
 30
0.0
 10
0.7140295748382095
 20
-0.3156832886534561
 30
0.0
 10
0.7155535164701701
 20
-0.3082585181888264
 30
0.0
 10
0.7176678573962549
 20
-0.3012878612655955
 30
0.0
 10
0.7203506055282067
 20
-0.2947935538638133
 30
0.0
 10
0.7235898491098458
 20
-0.2888290750733729
 30
0.0
 10
0.7272281326099073
 20
-0.2833060917059327
 30
0.0
 10
0.7314417494317379
 20
-0.278365380011304
 30
0.0
 10
0.7361021472097065
 20
-0.2739438874854834
 30
0.0
 10
0.7412203839087689
 20
-0.270080343304972
 30
0.0
 10
0.7467877943563381
 20
-0.2667962891578167
 30
0.0
 10
0.7527610567797506
 20
-0.2640378036956657
 30
0.0
 10
0.7591336928355503
 20
-0.2618932056891194
 30
0.0
 10
0.7658548795408902
 20
-0.2603652618066411
 30
0.0
 10
0.7728888996485973
 20
-0.2594507114766155
 30
0.0
 10
0.7776856109805974
 20
-0.2593305037305857
 30
0.0
 10
0.7801222112860919
 20
-0.2592694414296829
 30
0.0
  0
SPLINE
  5
103
330
1F
100
AcDbEntity
  8
0
  6
Continuous
 62
     7
370
    25
100
AcDbSpline
210
0.0
220
0.0
230
1.0
 70
     8
 71
     3
 72
    23
 73
    19
 74
     0
 42
0.000000001
 43
0.00000001
 40
0.0
 40
0.0
 40
0.0
 40
0.0
 40
0.0776926921617877
 40
0.1513392742650691
 40
0.2212327312897138
 40
0.2875436524260443
 40
0.3508703177692948
 40
0.4108574784137762
 40
0.4684120070324641
 40
0.5240364429001783
 40
0.5788169698750634
 40
0.6330165744829463
 40
0.6877848345668477
 40
0.7439542020448604
 40
0.8025219656723199
 40
0.8640985142188924
 40
0.9296211511298685
 40
1.0
 40
1.0
 40
1.0
 40
1.0
 10
0.2616113203240933
 20
-0.3302577231254546
 30
0.0
 10
0.261640789016008
 20
-0.332349107546457
 30
0.0
 10
0.2616981917179081
 20
-0.3364229604620524
 30
0.0
 10
0.2621571342441309
 20
-0.3423659302077475
 30
0.0
 10
0.2629838488048007
 20
-0.3479564797090613
 30
0.0
 10
0.2640409795834047
 20
-0.3532269137268411
 30
0.0
 10
0.2655041910957116
 20
-0.3581253770966104
 30
0.0
 10
0.2673193279256812
 20
-0.3626493504997824
 30
0.0
 10
0.2694613517877934
 20
-0.3668002822449302
 30
0.0
 10
0.2720154068464621
 20
-0.3705431333838791
 30
0.0
 10
0.2749149314565877
 20
-0.3739086174405071
 30
0.0
 10
0.2782306105704583
 20
-0.3768326821312358
 30
0.0
 10
0.2819111267811288
 20
-0.3793442968431809
 30
0.0
 10
0.2859710498277855
 20
-0.3814487268273856
 30
0.0
 10
0.2904284335516923
 20
-0.3831191590958629
 30
0.0
 10
0.2953089693924187
 20
-0.3842358427919191
 30
0.0
 10
0.3005820631251166
 20
-0.3849886612255488
 30
0.0
 10
0.3042430249557493
 20
-0.3850504966420383
 30
0.0
 10
0.3061389150405155
 20
-0.3850825191427998
 30
0.0
  0
SPLINE
  5
104
330
1F
100
AcDbEntity
  8
0
  6
Continuous
 62
     7
370
    25
100
AcDbSpline
210
0.0
220
0.0
230
1.0
 70
     8
 71
     3
 72
    23
 73
    19
 74
     0
 42
0.000000001
 43
0.00000001
 40
0.0
 40
0.0
 40
0.0
 40
0.0
 40
0.0670288652958836
 40
0.1305939151079201
 40
0.1909471771381185
 40
0.248906678374914
 40
0.3053533745238671
 40
0.3603757235099183
 40
0.4152899199544872
 40
0.4706838953538861
 40
0.5271432601400922
 40
0.5848306567979941
 40
0.645160955186922
 40
0.7081360958033106
 40
0.7747797422325603
 40
0.845365941466343
 40
0.9201325707119775
 40
1.0
 40
1.0
 40
1.0
 40
1.0
 10
0.0696465251626198
 20
-0.401058782979388
 30
0.0
 10
0.0673144131024232
 20
-0.401004497105085
 30
0.0
 10
0.062770704312679
 20
-0.400898730659107
 30
0.0
 10
0.0561644472576153
 20
-0.4000892934549176
 30
0.0
 10
0.0499813701544125
 20
-0.3987101721605043
 30
0.0
 10
0.0441869195122813
 20
-0.3968268942116138
 30
0.0
 10
0.0388438535443443
 20
-0.3943068101806316
 30
0.0
 10
0.0338855182035959
 20
-0.3912985855295609
 30
0.0
 10
0.0293623943974376
 20
-0.3877198488399273
 30
0.0
 10
0.0252923483773376
 20
-0.3835669810072661
 30
0.0
 10
0.0216577672032591
 20
-0.3789051874753181
 30
0.0
 10
0.0185174511077328
 20
-0.3736955576968471
 30
0.0
 10
0.0158680815904952
 20
-0.3679699487254903
 30
0.0
 10
0.0137354267855951
 20
-0.3617069022765908
 30
0.0
 10
0.0119967102871156
 20
-0.3549535113473803
 30
0.0
 10
0.0108582104050081
 20
-0.3476590068814483
 30
0.0
 10
0.0101205590081354
 20
-0.3398524547996001
 30
0.0
 10
0.0100312779508321
 20
-0.3344720385978749
 30
0.0
 10
0.0099851648978694
 20
-0.3316930905795255
 30
0.0
  0
SPLINE
  5
105
330
1F
100
AcDbEntity
  8
0
  6
Continuous
 62
     7
370
    25
100
AcDbSpline
210
0.0
220
0.0
230
1.0
 70
     8
 71
     3
 72
    23
 73
    19
 74
     0
 42
0.000000001
 43
0.00000001
 40
0.0
 40
0.0
 40
0.0
 40
0.0
 40
0.0645483796601199
 40
0.1269423657150835
 40
0.1887385846775129
 40
0.2498242447922626
 40
0.3098587332629572
 40
0.3698098716266962
 40
0.4287385626545392
 40
0.4884389524909458
 40
0.5483130493085768
 40
0.6088325181431541
 40
0.6700565520474979
 40
0.7328560971368057
 40
0.7967847405201419
 40
0.8628060755479697
 40
0.9303138113162074
 40
1.0
 40
1.0
 40
1.0
 40
1.0
 10
1.042451215337217
 20
-0.2981179736104401
 30
0.0
 10
1.042426267915298
 20
-0.2992007146107825
 30
0.0
 10
1.042377205727006
 20
-0.3013300585968578
 30
0.0
 10
1.042016900084823
 20
-0.3044784720516506
 30
0.0
 10
1.041470534710824
 20
-0.3075399996536237
 30
0.0
 10
1.040654816584027
 20
-0.310502101268952
 30
0.0
 10
1.039612650786386
 20
-0.313356125698706
 30
0.0
 10
1.03839414231963
 20
-0.3161041449397635
 30
0.0
 10
1.036853960582419
 20
-0.3186782261008478
 30
0.0
 10
1.035155554693096
 20
-0.3211467158543835
 30
0.0
 10
1.033207294411574
 20
-0.3234604312908736
 30
0.0
 10
1.031056265745028
 20
-0.3256228535577035
 30
0.0
 10
1.028662473448918
 20
-0.3275913803875832
 30
0.0
 10
1.026077049553296
 20
-0.3293999577330534
 30
0.0
 10
1.023281463481958
 20
-0.3310300166859636
 30
0.0
 10
1.020294311052098
 20
-0.3324681371534977
 30
0.0
 10
1.01709451346417
 20
-0.3336584811685476
 30
0.0
 10
1.014872509459069
 20
-0.3342588662816233
 30
0.0
 10
1.013743866255852
 20
-0.3345638254876514
 30
0.0
  0
SPLINE
  5
14D
330
1F
100
AcDbEntity
  8
0
  6
Continuous
 62
     7
370
    25
100
AcDbSpline
210
0.0
220
0.0
230
1.0
 70
     8
 71
     3
 72
    23
 73
    19
 74
     0
 42
0.000000001
 43
0.00000001
 40
0.0
 40
0.0
 40
0.0
 40
0.0
 40
0.0883296116166978
 40
0.1698443360497293
 40
0.2444446040553414
 40
0.3132731369903969
 40
0.3767926758750828
 40
0.435796219069796
 40
0.4914864034334441
 40
0.5444721269427113
 40
0.5961404587263437
 40
0.6471725006713055
 40
0.699470840930996
 40
0.7530938739164114
 40
0.8091284354936552
 40
0.8687523405526355
 40
0.9323607532707523
 40
1.0
 40
1.0
 40
1.0
 40
1.0
 10
0.2096884628551901
 20
-0.3302265194851494
 30
0.0
 10
0.20966318901832
 20
-0.3278749332703236
 30
0.0
 10
0.209614591294816
 20
-0.3233531925764557
 30
0.0
 10
0.2091178963551701
 20
-0.3168599387275869
 30
0.0
 10
0.2082873860859808
 20
-0.3109262992775266
 30
0.0
 10
0.2071212275258286
 20
-0.3055345522356672
 30
0.0
 10
0.2055812858787107
 20
-0.300674202444582
 30
0.0
 10
0.2037738189246391
 20
-0.2962751001294864
 30
0.0
 10
0.2014917312121677
 20
-0.2924257245525189
 30
0.0
 10
0.1989351091926266
 20
-0.2889923456783897
 30
0.0
 10
0.1959623197700328
 20
-0.2860857136682879
 30
0.0
 10
0.1926823565228377
 20
-0.2835612605103384
 30
0.0
 10
0.1890005966837228
 20
-0.2815579941875571
 30
0.0
 10
0.1850056685517979
 20
-0.2799145488288212
 30
0.0
 10
0.1806520829079725
 20
-0.2787186646017701
 30
0.0
 10
0.1759564496323757
 20
-0.2778411697385297
 30
0.0
 10
0.1708914822910609
 20
-0.27736039420714
 30
0.0
 10
0.1673980696705331
 20
-0.2772827517427041
 30
0.0
 10
0.1655977191030501
 20
-0.2772427382458482
 30
0.0
  0
SPLINE
  5
14E
330
1F
100
AcDbEntity
  8
0
  6
Continuous
 62
     7
370
    25
100
AcDbSpline
210
0.0
220
0.0
230
1.0
 70
     8
 71
     3
 72
    23
 73
    19
 74
     0
 42
0.000000001
 43
0.00000001
 40
0.0
 40
0.0
 40
0.0
 40
0.0
 40
0.0695230522484241
 40
0.1351395536057805
 40
0.1971044783958543
 40
0.2557731263339968
 40
0.312241385725602
 40
0.3670858759926248
 40
0.4212755739180852
 40
0.4753386553504194
 40
0.5306861661271206
 40
0.587594163343898
 40
0.6469836539089815
 40
0.7093314558363205
 40
0.7752228398830496
 40
0.8455985977115953
 40
0.9204053698763263
 40
1.0
 40
1.0
 40
1.0
 40
1.0
 10
0.1635382788428661
 20
-0.3830854861632281
 30
0.0
 10
0.1654012792846166
 20
-0.3830388343632676
 30
0.0
 10
0.1690225968177697
 20
-0.3829481521619299
 30
0.0
 10
0.1742848185619935
 20
-0.3823834503013475
 30
0.0
 10
0.1791669358047279
 20
-0.3813045884709185
 30
0.0
 10
0.1837000273940664
 20
-0.3798768364365425
 30
0.0
 10
0.1878841844970184
 20
-0.3780448038949434
 30
0.0
 10
0.1916863401820552
 20
-0.375738656065691
 30
0.0
 10
0.1951457683125802
 20
-0.3730491453673307
 30
0.0
 10
0.1982341349242601
 20
-0.3699198169683679
 30
0.0
 10
0.2009581029517309
 20
-0.366377150713054
 30
0.0
 10
0.2032993731759294
 20
-0.3624061900634495
 30
0.0
 10
0.2053036142575608
 20
-0.3580492423702564
 30
0.0
 10
0.2069210924652208
 20
-0.3532787806421813
 30
0.0
 10
0.2081561668339986
 20
-0.3480949383901631
 30
0.0
 10
0.2090552835407782
 20
-0.3425053337813777
 30
0.0
 10
0.2095803385808475
 20
-0.3364980882300114
 30
0.0
 10
0.2096516839767832
 20
-0.3323598171714255
 30
0.0
 10
0.2096884628551901
 20
-0.3302265194851494
 30
0.0
  0
SPLINE
  5
155
330
1F
100
AcDbEntity
  8
0
  6
Continuous
 62
     7
370
    25
100
AcDbSpline
210
0.0
220
0.0
230
1.0
 70
     8
 71
     3
 72
    23
 73
    19
 74
     0
 42
0.000000001
 43
0.00000001
 40
0.0
 40
0.0
 40
0.0
 40
0.0
 40
0.0710054063752104
 40
0.137576215210735
 40
0.2003032527046567
 40
0.2604031925983386
 40
0.3177152079427064
 40
0.3738306474914118
 40
0.4294997037542654
 40
0.4848811865589577
 40
0.5408363383570456
 40
0.5986108345938554
 40
0.6580876144125944
 40
0.7194853567469314
 40
0.7841756976171746
 40
0.8520284023422333
 40
0.9241032974735306
 40
1.0
 40
1.0
 40
1.0
 40
1.0
 10
1.022480885541484
 20
-0.299459730143591
 30
0.0
 10
1.022466275964129
 20
-0.2985539243450051
 30
0.0
 10
1.022437969241291
 20
-0.2967988842734521
 30
0.0
 10
1.022124660017863
 20
-0.2942584056189947
 30
0.0
 10
1.021588534932294
 20
-0.2918996987046301
 30
0.0
 10
1.020874368057431
 20
-0.2897140157458139
 30
0.0
 10
1.019982092394471
 20
-0.2876807640710328
 30
0.0
 10
1.018798722340125
 20
-0.285870020433787
 30
0.0
 10
1.017463023694954
 20
-0.2842040119194188
 30
0.0
 10
1.015920166818822
 20
-0.2827263621809433
 30
0.0
 10
1.014182602667667
 20
-0.2814409174053566
 30
0.0
 10
1.012273489078047
 20
-0.2803237022514519
 30
0.0
 10
1.010210525346249
 20
-0.2793497298096299
 30
0.0
 10
1.007973522832235
 20
-0.2785636972208393
 30
0.0
 10
1.005565365834683
 20
-0.277989039001267
 30
0.0
 10
1.002992767452543
 20
-0.2775410022349624
 30
0.0
 10
1.000247565609876
 20
-0.2773028047402797
 30
0.0
 10
0.9983608708647738
 20
-0.2772631022225909
 30
0.0
 10
0.9973931587355953
 20
-0.2772427382458394
 30
0.0
  0
SPLINE
  5
156
330
1F
100
AcDbEntity
  8
0
  6
Continuous
 62
     7
370
    25
100
AcDbSpline
210
0.0
220
0.0
230
1.0
 70
     8
 71
     3
 72
    23
 73
    19
 74
     0
 42
0.000000001
 43
0.00000001
 40
0.0
 40
0.0
 40
0.0
 40
0.0
 40
0.0751739074339249
 40
0.1468446665604953
 40
0.2147302593438758
 40
0.2806352486797872
 40
0.3432824703954656
 40
0.4037159012366294
 40
0.4619008245837447
 40
0.5192832275836623
 40
0.5756579106255183
 40
0.6322162250430631
 40
0.6892663821940995
 40
0.7469691360599717
 40
0.8063108135664454
 40
0.8679803070146355
 40
0.9323822350664869
 40
1.0
 40
1.0
 40
1.0
 40
1.0
 10
0.9949904784320474
 20
-0.3231744967760231
 30
0.0
 10
0.9960207267153702
 20
-0.3231564549641611
 30
0.0
 10
0.9980332131059729
 20
-0.3231212120994833
 30
0.0
 10
1.000967221470034
 20
-0.3228493562533127
 30
0.0
 10
1.003740197655093
 20
-0.3223407713433016
 30
0.0
 10
1.00634447027655
 20
-0.3216545002142608
 30
0.0
 10
1.008806021582504
 20
-0.3208331520150667
 30
0.0
 10
1.011046701911689
 20
-0.319751380213737
 30
0.0
 10
1.013141455833028
 20
-0.3185462966312439
 30
0.0
 10
1.015004694532254
 20
-0.3170940145602083
 30
0.0
 10
1.016711427240254
 20
-0.3154970748785313
 30
0.0
 10
1.018218045847469
 20
-0.3137123826926774
 30
0.0
 10
1.019499740073178
 20
-0.3117375693514662
 30
0.0
 10
1.020552282833343
 20
-0.3095935972313505
 30
0.0
 10
1.021461134312715
 20
-0.3073119022577748
 30
0.0
 10
1.022018332281136
 20
-0.3048263270117269
 30
0.0
 10
1.022417453218849
 20
-0.3021977213648817
 30
0.0
 10
1.02245940083653
 20
-0.3003870954222377
 30
0.0
 10
1.022480885541484
 20
-0.299459730143591
 30
0.0
  0
LINE
  5
15C
330
1F
100
AcDbEntity
  8
0
  6
Continuous
 62
     7
370
    25
100
AcDbLine
 10
0.1038457149
 20
-0.2652605404
 30
0.0
 11
0.1038457149
 21
-0.2832338372
 31
0.0
  0
LINE
  5
15D
330
1F
100
AcDbEntity
  8
0
  6
Continuous
 62
     7
370
    25
100
AcDbLine
 10
0.1038457149
 20
-0.3770943872
 30
0.0
 11
0.1038457149
 21
-0.395067684
 31
0.0
  0
LINE
  5
15E
330
1F
100
AcDbEntity
  8
0
  6
Continuous
 62
     7
370
    25
100
AcDbLine
 10
0.1298071437
 20
-0.39906175
 30
0.0
 11
0.1298071437
 21
-0.2612664744
 31
0.0
  0
LINE
  5
15F
330
1F
100
AcDbEntity
  8
0
  6
Continuous
 62
     7
370
    25
100
AcDbLine
 10
0.1594193983
 20
-0.39906175
 30
0.0
 11
0.1298071437
 21
-0.39906175
 31
0.0
  0
LINE
  5
160
330
1F
100
AcDbEntity
  8
0
  6
Continuous
 62
     7
370
    25
100
AcDbLine
 10
0.1298071437
 20
-0.2612664744
 30
0.0
 11
0.1654417009
 21
-0.2612664744
 31
0.0
  0
LINE
  5
161
330
1F
100
AcDbEntity
  8
0
  6
Continuous
 62
     7
370
    25
100
AcDbLine
 10
0.8147894557
 20
-0.3211774638
 30
0.0
 11
0.8147894557
 21
-0.3926025965
 31
0.0
  0
LINE
  5
162
330
1F
100
AcDbEntity
  8
0
  6
Continuous
 62
     7
370
    25
100
AcDbLine
 10
0.7671102933
 20
-0.3211774638
 30
0.0
 11
0.8147894557
 21
-0.3211774638
 31
0.0
  0
LINE
  5
163
330
1F
100
AcDbEntity
  8
0
  6
Continuous
 62
     7
370
    25
100
AcDbLine
 10
0.7671102933
 20
-0.3371537276
 30
0.0
 11
0.7671102933
 21
-0.3211774638
 31
0.0
  0
LINE
  5
164
330
1F
100
AcDbEntity
  8
0
  6
Continuous
 62
     7
370
    25
100
AcDbLine
 10
0.7948191259
 20
-0.3371537276
 30
0.0
 11
0.7671102933
 21
-0.3371537276
 31
0.0
  0
LINE
  5
165
330
1F
100
AcDbEntity
  8
0
  6
Continuous
 62
     7
370
    25
100
AcDbLine
 10
0.7948191259
 20
-0.382149377
 30
0.0
 11
0.7948191259
 21
-0.3371537276
 31
0.0
  0
LINE
  5
166
330
1F
100
AcDbEntity
  8
0
  6
Continuous
 62
     7
370
    25
100
AcDbLine
 10
0.8257731371
 20
-0.39906175
 30
0.0
 11
0.871580081
 21
-0.2612664744
 31
0.0
  0
LINE
  5
167
330
1F
100
AcDbEntity
  8
0
  6
Continuous
 62
     7
370
    25
100
AcDbLine
 10
0.8452442086
 20
-0.39906175
 30
0.0
 11
0.8257731371
 21
-0.39906175
 31
0.0
  0
LINE
  5
168
330
1F
100
AcDbEntity
  8
0
  6
Continuous
 62
     7
370
    25
100
AcDbLine
 10
0.8546989116
 20
-0.3691062553
 30
0.0
 11
0.8452442086
 21
-0.39906175
 31
0.0
  0
LINE
  5
169
330
1F
100
AcDbEntity
  8
0
  6
Continuous
 62
     7
370
    25
100
AcDbLine
 10
0.9119263879
 20
-0.3691062553
 30
0.0
 11
0.8546989116
 21
-0.3691062553
 31
0.0
  0
LINE
  5
16A
330
1F
100
AcDbEntity
  8
0
  6
Continuous
 62
     7
370
    25
100
AcDbLine
 10
0.9211626655
 20
-0.39906175
 30
0.0
 11
0.9119263879
 21
-0.3691062553
 31
0.0
  0
LINE
  5
16B
330
1F
100
AcDbEntity
  8
0
  6
Continuous
 62
     7
370
    25
100
AcDbLine
 10
0.9416010499
 20
-0.39906175
 30
0.0
 11
0.9211626655
 21
-0.39906175
 31
0.0
  0
LINE
  5
16C
330
1F
100
AcDbEntity
  8
0
  6
Continuous
 62
     7
370
    25
100
AcDbLine
 10
0.897260677
 20
-0.2612664744
 30
0.0
 11
0.9416010499
 21
-0.39906175
 31
0.0
  0
LINE
  5
16D
330
1F
100
AcDbEntity
  8
0
  6
Continuous
 62
     7
370
    25
100
AcDbLine
 10
0.871580081
 20
-0.2612664744
 30
0.0
 11
0.897260677
 21
-0.2612664744
 31
0.0
  0
LINE
  5
16E
330
1F
100
AcDbEntity
  8
0
  6
Continuous
 62
     7
370
    25
100
AcDbLine
 10
0.3937007874
 20
0.0
 30
0.0
 11
0.0
 21
0.0
 31
0.0
  0
LINE
  5
16F
330
1F
100
AcDbEntity
  8
0
  6
Continuous
 62
     7
370
    25
100
AcDbLine
 10
0.3937007874
 20
-0.2058058262
 30
0.0
 11
0.3937007874
 21
0.0
 31
0.0
  0
LINE
  5
170
330
1F
100
AcDbEntity
  8
0
  6
Continuous
 62
     7
370
    25
100
AcDbLine
 10
0.743207401
 20
-0.25
 30
0.0
 11
0.4378949612
 21
-0.25
 31
0.0
  0
LINE
  5
171
330
1F
100
AcDbEntity
  8
0
  6
Continuous
 62
     7
370
    25
100
AcDbLine
 10
0.7874015748
 20
0.0
 30
0.0
 11
0.7874015748
 21
-0.2058058262
 31
0.0
  0
LINE
  5
172
330
1F
100
AcDbEntity
  8
0
  6
Continuous
 62
     7
370
    25
100
AcDbLine
 10
1.1811023622
 20
0.0
 30
0.0
 11
0.7874015748
 21
0.0
 31
0.0
  0
LINE
  5
173
330
1F
100
AcDbEntity
  8
0
  6
Continuous
 62
     7
370
    25
100
AcDbLine
 10
1.1811023622
 20
-0.2058058262
 30
0.0
 11
1.1811023622
 21
0.0
 31
0.0
  0
LINE
  5
174
330
1F
100
AcDbEntity
  8
0
  6
Continuous
 62
     7
370
    25
100
AcDbLine
 10
1.5306089758
 20
-0.25
 30
0.0
 11
1.225296536
 21
-0.25
 31
0.0
  0
LINE
  5
175
330
1F
100
AcDbEntity
  8
0
  6
Continuous
 62
     7
370
    25
100
AcDbLine
 10
1.5748031496
 20
0.0
 30
0.0
 11
1.5748031496
 21
-0.2058058262
 31
0.0
  0
LINE
  5
176
330
1F
100
AcDbEntity
  8
0
  6
Continuous
 62
     7
370
    25
100
AcDbLine
 10
1.968503937
 20
0.0
 30
0.0
 11
1.5748031496
 21
0.0
 31
0.0
  0
LINE
  5
177
330
1F
100
AcDbEntity
  8
0
  6
Continuous
 62
     7
370
    25
100
AcDbLine
 10
1.968503937
 20
-0.2058058262
 30
0.0
 11
1.968503937
 21
0.0
 31
0.0
  0
LINE
  5
178
330
1F
100
AcDbEntity
  8
0
  6
Continuous
 62
     7
370
    25
100
AcDbLine
 10
2.3180105506
 20
-0.25
 30
0.0
 11
2.0126981108
 21
-0.25
 31
0.0
  0
LINE
  5
179
330
1F
100
AcDbEntity
  8
0
  6
Continuous
 62
     7
370
    25
100
AcDbLine
 10
2.3622047244
 20
0.0
 30
0.0
 11
2.3622047244
 21
-0.2058058262
 31
0.0
  0
LINE
  5
17A
330
1F
100
AcDbEntity
  8
0
  6
Continuous
 62
     7
370
    25
100
AcDbLine
 10
2.7559055118
 20
0.0
 30
0.0
 11
2.3622047244
 21
0.0
 31
0.0
  0
LINE
  5
17B
330
1F
100
AcDbEntity
  8
0
  6
Continuous
 62
     7
370
    25
100
AcDbLine
 10
2.7559055118
 20
-0.2058058262
 30
0.0
 11
2.7559055118
 21
0.0
 31
0.0
  0
LINE
  5
17C
330
1F
100
AcDbEntity
  8
0
  6
Continuous
 62
     7
370
    25
100
AcDbLine
 10
3.1054121254
 20
-0.25
 30
0.0
 11
2.8000996856
 21
-0.25
 31
0.0
  0
LINE
  5
17D
330
1F
100
AcDbEntity
  8
0
  6
Continuous
 62
     7
370
    25
100
AcDbLine
 10
3.1496062992
 20
0.0
 30
0.0
 11
3.1496062992
 21
-0.2058058262
 31
0.0
  0
LINE
  5
17E
330
1F
100
AcDbEntity
  8
0
  6
Continuous
 62
     7
370
    25
100
AcDbLine
 10
3.5433070866
 20
0.0
 30
0.0
 11
3.1496062992
 21
0.0
 31
0.0
  0
LINE
  5
17F
330
1F
100
AcDbEntity
  8
0
  6
Continuous
 62
     7
370
    25
100
AcDbLine
 10
3.5433070866
 20
-0.2058058262
 30
0.0
 11
3.5433070866
 21
0.0
 31
0.0
  0
LINE
  5
180
330
1F
100
AcDbEntity
  8
0
  6
Continuous
 62
     7
370
    25
100
AcDbLine
 10
3.8928137002
 20
-0.25
 30
0.0
 11
3.5875012604
 21
-0.25
 31
0.0
  0
LINE
  5
181
330
1F
100
AcDbEntity
  8
0
  6
Continuous
 62
     7
370
    25
100
AcDbLine
 10
3.937007874
 20
0.0
 30
0.0
 11
3.937007874
 21
-0.2058058262
 31
0.0
  0
LINE
  5
182
330
1F
100
AcDbEntity
  8
0
  6
Continuous
 62
     7
370
    25
100
AcDbLine
 10
4.3307086614
 20
0.0
 30
0.0
 11
3.937007874
 21
0.0
 31
0.0
  0
LINE
  5
183
330
1F
100
AcDbEntity
  8
0
  6
Continuous
 62
     7
370
    25
100
AcDbLine
 10
4.3307086614
 20
-0.2058058262
 30
0.0
 11
4.3307086614
 21
0.0
 31
0.0
  0
LINE
  5
184
330
1F
100
AcDbEntity
  8
0
  6
Continuous
 62
     7
370
    25
100
AcDbLine
 10
4.680215275
 20
-0.25
 30
0.0
 11
4.3749028352
 21
-0.25
 31
0.0
  0
LINE
  5
185
330
1F
100
AcDbEntity
  8
0
  6
Continuous
 62
     7
370
    25
100
AcDbLine
 10
4.7244094488
 20
0.0
 30
0.0
 11
4.7244094488
 21
-0.2058058262
 31
0.0
  0
LINE
  5
186
330
1F
100
AcDbEntity
  8
0
  6
Continuous
 62
     7
370
    25
100
AcDbLine
 10
5.1181102362
 20
0.0
 30
0.0
 11
4.7244094488
 21
0.0
 31
0.0
  0
LINE
  5
187
330
1F
100
AcDbEntity
  8
0
  6
Continuous
 62
     7
370
    25
100
AcDbLine
 10
5.1181102362
 20
-0.2058058262
 30
0.0
 11
5.1181102362
 21
0.0
 31
0.0
  0
LINE
  5
188
330
1F
100
AcDbEntity
  8
0
  6
Continuous
 62
     7
370
    25
100
AcDbLine
 10
5.4676168498
 20
-0.25
 30
0.0
 11
5.16230441
 21
-0.25
 31
0.0
  0
LINE
  5
189
330
1F
100
AcDbEntity
  8
0
  6
Continuous
 62
     7
370
    25
100
AcDbLine
 10
5.5118110236
 20
0.0
 30
0.0
 11
5.5118110236
 21
-0.2058058262
 31
0.0
  0
LINE
  5
18A
330
1F
100
AcDbEntity
  8
0
  6
Continuous
 62
     7
370
    25
100
AcDbLine
 10
5.905511811
 20
0.0
 30
0.0
 11
5.5118110236
 21
0.0
 31
0.0
  0
LINE
  5
18B
330
1F
100
AcDbEntity
  8
0
  6
Continuous
 62
     7
370
    25
100
AcDbLine
 10
5.905511811
 20
-0.2058058262
 30
0.0
 11
5.905511811
 21
0.0
 31
0.0
  0
LINE
  5
18C
330
1F
100
AcDbEntity
  8
0
  6
Continuous
 62
     7
370
    25
100
AcDbLine
 10
6.2550184246
 20
-0.25
 30
0.0
 11
5.9497059848
 21
-0.25
 31
0.0
  0
LINE
  5
18D
330
1F
100
AcDbEntity
  8
0
  6
Continuous
 62
     7
370
    25
100
AcDbLine
 10
6.2992125984
 20
0.0
 30
0.0
 11
6.2992125984
 21
-0.2058058262
 31
0.0
  0
LINE
  5
18E
330
1F
100
AcDbEntity
  8
0
  6
Continuous
 62
     7
370
    25
100
AcDbLine
 10
6.6929133858
 20
0.0
 30
0.0
 11
6.2992125984
 21
0.0
 31
0.0
  0
LINE
  5
18F
330
1F
100
AcDbEntity
  8
0
  6
Continuous
 62
     7
370
    25
100
AcDbLine
 10
6.6929133858
 20
-0.2058058262
 30
0.0
 11
6.6929133858
 21
0.0
 31
0.0
  0
LINE
  5
190
330
1F
100
AcDbEntity
  8
0
  6
Continuous
 62
     7
370
    25
100
AcDbLine
 10
7.0424199994
 20
-0.25
 30
0.0
 11
6.7371075597
 21
-0.25
 31
0.0
  0
LINE
  5
191
330
1F
100
AcDbEntity
  8
0
  6
Continuous
 62
     7
370
    25
100
AcDbLine
 10
7.0866141732
 20
0.0
 30
0.0
 11
7.0866141732
 21
-0.2058058262
 31
0.0
  0
LINE
  5
192
330
1F
100
AcDbEntity
  8
0
  6
Continuous
 62
     7
370
    25
100
AcDbLine
 10
7.4803149606
 20
0.0
 30
0.0
 11
7.0866141732
 21
0.0
 31
0.0
  0
LINE
  5
193
330
1F
100
AcDbEntity
  8
0
  6
Continuous
 62
     7
370
    25
100
AcDbLine
 10
7.4803149606
 20
-0.2058058262
 30
0.0
 11
7.4803149606
 21
0.0
 31
0.0
  0
LINE
  5
194
330
1F
100
AcDbEntity
  8
0
  6
Continuous
 62
     7
370
    25
100
AcDbLine
 10
7.874015748
 20
-0.25
 30
0.0
 11
7.5245091345
 21
-0.25
 31
0.0
  0
LINE
  5
195
330
1F
100
AcDbEntity
  8
0
  6
Continuous
 62
     7
370
    25
100
AcDbLine
 10
7.874015748
 20
-0.44906175
 30
0.0
 11
0.0
 21
-0.44906175
 31
0.0
  0
LINE
  5
196
330
1F
100
AcDbEntity
  8
0
  6
Continuous
 62
     7
370
    25
100
AcDbLine
 10
0.9605728632
 20
-0.2612664744
 30
0.0
 11
0.9972059369
 21
-0.2612664744
 31
0.0
  0
LINE
  5
197
330
1F
100
AcDbEntity
  8
0
  6
Continuous
 62
     7
370
    25
100
AcDbLine
 10
0.9605728632
 20
-0.39906175
 30
0.0
 11
0.9605728632
 21
-0.2612664744
 31
0.0
  0
LINE
  5
198
330
1F
100
AcDbEntity
  8
0
  6
Continuous
 62
     7
370
    25
100
AcDbLine
 10
0.980543193
 20
-0.39906175
 30
0.0
 11
0.9605728632
 21
-0.39906175
 31
0.0
  0
LINE
  5
199
330
1F
100
AcDbEntity
  8
0
  6
Continuous
 62
     7
370
    25
100
AcDbLine
 10
0.980543193
 20
-0.3391507606
 30
0.0
 11
0.980543193
 21
-0.39906175
 31
0.0
  0
LINE
  5
19A
330
1F
100
AcDbEntity
  8
0
  6
Continuous
 62
     7
370
    25
100
AcDbLine
 10
0.9889993795
 20
-0.3391507606
 30
0.0
 11
0.980543193
 21
-0.3391507606
 31
0.0
  0
LINE
  5
19B
330
1F
100
AcDbEntity
  8
0
  6
Continuous
 62
     7
370
    25
100
AcDbLine
 10
1.0312803121
 20
-0.39906175
 30
0.0
 11
1.0114660005
 21
-0.35603193
 31
0.0
  0
LINE
  5
19C
330
1F
100
AcDbEntity
  8
0
  6
Continuous
 62
     7
370
    25
100
AcDbLine
 10
1.0524363802
 20
-0.39906175
 30
0.0
 11
1.0312803121
 21
-0.39906175
 31
0.0
  0
LINE
  5
19D
330
1F
100
AcDbEntity
  8
0
  6
Continuous
 62
     7
370
    25
100
AcDbLine
 10
1.031373923
 20
-0.3531299915
 30
0.0
 11
1.0524363802
 21
-0.39906175
 31
0.0
  0
LINE
  5
19E
330
1F
100
AcDbEntity
  8
0
  6
Continuous
 62
     7
370
    25
100
AcDbLine
 10
0.5901232455
 20
-0.39906175
 30
0.0
 11
0.6359301894
 21
-0.2612664744
 31
0.0
  0
LINE
  5
19F
330
1F
100
AcDbEntity
  8
0
  6
Continuous
 62
     7
370
    25
100
AcDbLine
 10
0.609594317
 20
-0.39906175
 30
0.0
 11
0.5901232455
 21
-0.39906175
 31
0.0
  0
LINE
  5
1A0
330
1F
100
AcDbEntity
  8
0
  6
Continuous
 62
     7
370
    25
100
AcDbLine
 10
0.61904902
 20
-0.3691062553
 30
0.0
 11
0.609594317
 21
-0.39906175
 31
0.0
  0
LINE
  5
1A1
330
1F
100
AcDbEntity
  8
0
  6
Continuous
 62
     7
370
    25
100
AcDbLine
 10
0.6762764963
 20
-0.3691062553
 30
0.0
 11
0.61904902
 21
-0.3691062553
 31
0.0
  0
LINE
  5
1A2
330
1F
100
AcDbEntity
  8
0
  6
Continuous
 62
     7
370
    25
100
AcDbLine
 10
0.6855127739
 20
-0.39906175
 30
0.0
 11
0.6762764963
 21
-0.3691062553
 31
0.0
  0
LINE
  5
1A3
330
1F
100
AcDbEntity
  8
0
  6
Continuous
 62
     7
370
    25
100
AcDbLine
 10
0.7059511583
 20
-0.39906175
 30
0.0
 11
0.6855127739
 21
-0.39906175
 31
0.0
  0
LINE
  5
1A4
330
1F
100
AcDbEntity
  8
0
  6
Continuous
 62
     7
370
    25
100
AcDbLine
 10
0.6616107854
 20
-0.2612664744
 30
0.0
 11
0.7059511583
 21
-0.39906175
 31
0.0
  0
LINE
  5
1A5
330
1F
100
AcDbEntity
  8
0
  6
Continuous
 62
     7
370
    25
100
AcDbLine
 10
0.6359301894
 20
-0.2612664744
 30
0.0
 11
0.6616107854
 21
-0.2612664744
 31
0.0
  0
LINE
  5
1A6
330
1F
100
AcDbEntity
  8
0
  6
Continuous
 62
     7
370
    25
100
AcDbLine
 10
0.4712997832
 20
-0.4429964756
 30
0.0
 11
0.4712997832
 21
-0.4270202117
 31
0.0
  0
LINE
  5
1A7
330
1F
100
AcDbEntity
  8
0
  6
Continuous
 62
     7
370
    25
100
AcDbLine
 10
0.589124729
 20
-0.4429964756
 30
0.0
 11
0.4712997832
 21
-0.4429964756
 31
0.0
  0
LINE
  5
1A8
330
1F
100
AcDbEntity
  8
0
  6
Continuous
 62
     7
370
    25
100
AcDbLine
 10
0.589124729
 20
-0.4270202117
 30
0.0
 11
0.589124729
 21
-0.4429964756
 31
0.0
  0
LINE
  5
1A9
330
1F
100
AcDbEntity
  8
0
  6
Continuous
 62
     7
370
    25
100
AcDbLine
 10
0.4712997832
 20
-0.4270202117
 30
0.0
 11
0.589124729
 21
-0.4270202117
 31
0.0
  0
LINE
  5
1AA
330
1F
100
AcDbEntity
  8
0
  6
Continuous
 62
     7
370
    25
100
AcDbLine
 10
0.4293620906
 20
-0.2612664744
 30
0.0
 11
0.4293620906
 21
-0.3810884532
 31
0.0
  0
LINE
  5
1AB
330
1F
100
AcDbEntity
  8
0
  6
Continuous
 62
     7
370
    25
100
AcDbLine
 10
0.4115136084
 20
-0.2612664744
 30
0.0
 11
0.4293620906
 21
-0.2612664744
 31
0.0
  0
LINE
  5
1AC
330
1F
100
AcDbEntity
  8
0
  6
Continuous
 62
     7
370
    25
100
AcDbLine
 10
0.3674540682
 20
-0.2832338372
 30
0.0
 11
0.4115136084
 21
-0.2612664744
 31
0.0
  0
LINE
  5
1AD
330
1F
100
AcDbEntity
  8
0
  6
Continuous
 62
     7
370
    25
100
AcDbLine
 10
0.3742252582
 20
-0.299210101
 30
0.0
 11
0.3674540682
 21
-0.2832338372
 31
0.0
  0
LINE
  5
1AE
330
1F
100
AcDbEntity
  8
0
  6
Continuous
 62
     7
370
    25
100
AcDbLine
 10
0.4073947278
 20
-0.2792397712
 30
0.0
 11
0.3742252582
 21
-0.299210101
 31
0.0
  0
LINE
  5
1AF
330
1F
100
AcDbEntity
  8
0
  6
Continuous
 62
     7
370
    25
100
AcDbLine
 10
0.4073947278
 20
-0.3810884532
 30
0.0
 11
0.4073947278
 21
-0.2792397712
 31
0.0
  0
LINE
  5
1B0
330
1F
100
AcDbEntity
  8
0
  6
Continuous
 62
     7
370
    25
100
AcDbLine
 10
0.3714481342
 20
-0.3810884532
 30
0.0
 11
0.4073947278
 21
-0.3810884532
 31
0.0
  0
LINE
  5
1B1
330
1F
100
AcDbEntity
  8
0
  6
Continuous
 62
     7
370
    25
100
AcDbLine
 10
0.3714481342
 20
-0.39906175
 30
0.0
 11
0.3714481342
 21
-0.3810884532
 31
0.0
  0
LINE
  5
1B2
330
1F
100
AcDbEntity
  8
0
  6
Continuous
 62
     7
370
    25
100
AcDbLine
 10
0.4593175853
 20
-0.39906175
 30
0.0
 11
0.3714481342
 21
-0.39906175
 31
0.0
  0
LINE
  5
1B3
330
1F
100
AcDbEntity
  8
0
  6
Continuous
 62
     7
370
    25
100
AcDbLine
 10
0.4593175853
 20
-0.3810884532
 30
0.0
 11
0.4593175853
 21
-0.39906175
 31
0.0
  0
LINE
  5
1B4
330
1F
100
AcDbEntity
  8
0
  6
Continuous
 62
     7
370
    25
100
AcDbLine
 10
0.4293620906
 20
-0.3810884532
 30
0.0
 11
0.4593175853
 21
-0.3810884532
 31
0.0
  0
LINE
  5
1B5
330
1F
100
AcDbEntity
  8
0
  6
Continuous
 62
     7
370
    25
100
AcDbLine
 10
0.3434896725
 20
-0.3211774638
 30
0.0
 11
0.3434896725
 21
-0.3926025965
 31
0.0
  0
LINE
  5
1B6
330
1F
100
AcDbEntity
  8
0
  6
Continuous
 62
     7
370
    25
100
AcDbLine
 10
0.2958105101
 20
-0.3211774638
 30
0.0
 11
0.3434896725
 21
-0.3211774638
 31
0.0
  0
LINE
  5
1B7
330
1F
100
AcDbEntity
  8
0
  6
Continuous
 62
     7
370
    25
100
AcDbLine
 10
0.2958105101
 20
-0.3371537276
 30
0.0
 11
0.2958105101
 21
-0.3211774638
 31
0.0
  0
LINE
  5
1B8
330
1F
100
AcDbEntity
  8
0
  6
Continuous
 62
     7
370
    25
100
AcDbLine
 10
0.3235193427
 20
-0.3371537276
 30
0.0
 11
0.2958105101
 21
-0.3371537276
 31
0.0
  0
LINE
  5
1B9
330
1F
100
AcDbEntity
  8
0
  6
Continuous
 62
     7
370
    25
100
AcDbLine
 10
0.3235193427
 20
-0.382149377
 30
0.0
 11
0.3235193427
 21
-0.3371537276
 31
0.0
  0
LINE
  5
1BA
330
1F
100
AcDbEntity
  8
0
  6
Continuous
 62
     7
370
    25
100
AcDbLine
 10
0.8147894557
 20
-0.2652605404
 30
0.0
 11
0.8147894557
 21
-0.2832338372
 31
0.0
  0
LINE
  5
1BB
330
1F
100
AcDbEntity
  8
0
  6
Continuous
 62
     7
370
    25
100
AcDbLine
 10
0.3434896725
 20
-0.2652605404
 30
0.0
 11
0.3434896725
 21
-0.2832338372
 31
0.0
  0
LINE
  5
1BC
330
1F
100
AcDbEntity
  8
0
  6
Continuous
 62
     7
370
    25
100
AcDbLine
 10
8.124015748
 20
-0.7177380537
 30
0.0
 11
8.092765748
 21
-0.6864880537
 31
0.0
  0
LINE
  5
1BD
330
1F
100
AcDbEntity
  8
0
  6
Continuous
 62
     7
370
    25
100
AcDbLine
 10
8.092765748
 20
-0.8833384474
 30
0.0
 11
8.124015748
 21
-0.8520884474
 31
0.0
  0
LINE
  5
1BE
330
1F
100
AcDbEntity
  8
0
  6
Continuous
 62
     7
370
    25
100
AcDbLine
 10
7.0866141732
 20
-0.8833384474
 30
0.0
 11
8.092765748
 21
-0.8833384474
 31
0.0
  0
LINE
  5
1BF
330
1F
100
AcDbEntity
  8
0
  6
Continuous
 62
     7
370
    25
100
AcDbLine
 10
5.16230441
 20
-0.7065617521
 30
0.0
 11
5.4676168498
 21
-0.7065617521
 31
0.0
  0
LINE
  5
1C0
330
1F
100
AcDbEntity
  8
0
  6
Continuous
 62
     7
370
    25
100
AcDbLine
 10
5.1181102362
 20
-0.8833384474
 30
0.0
 11
5.1181102362
 21
-0.7507559259
 31
0.0
  0
LINE
  5
1C1
330
1F
100
AcDbEntity
  8
0
  6
Continuous
 62
     7
370
    25
100
AcDbLine
 10
4.7244094488
 20
-0.8833384474
 30
0.0
 11
5.1181102362
 21
-0.8833384474
 31
0.0
  0
LINE
  5
1C2
330
1F
100
AcDbEntity
  8
0
  6
Continuous
 62
     7
370
    25
100
AcDbLine
 10
4.3749028352
 20
-0.7065617521
 30
0.0
 11
4.680215275
 21
-0.7065617521
 31
0.0
  0
LINE
  5
1C3
330
1F
100
AcDbEntity
  8
0
  6
Continuous
 62
     7
370
    25
100
AcDbLine
 10
4.3307086614
 20
-0.8833384474
 30
0.0
 11
4.3307086614
 21
-0.7507559259
 31
0.0
  0
LINE
  5
1C4
330
1F
100
AcDbEntity
  8
0
  6
Continuous
 62
     7
370
    25
100
AcDbLine
 10
3.937007874
 20
-0.7507559259
 30
0.0
 11
3.937007874
 21
-0.8833384474
 31
0.0
  0
LINE
  5
1C5
330
1F
100
AcDbEntity
  8
0
  6
Continuous
 62
     7
370
    25
100
AcDbLine
 10
3.5433070866
 20
-0.8833384474
 30
0.0
 11
3.5433070866
 21
-0.7507559259
 31
0.0
  0
LINE
  5
1C6
330
1F
100
AcDbEntity
  8
0
  6
Continuous
 62
     7
370
    25
100
AcDbLine
 10
2.7559055118
 20
-0.8833384474
 30
0.0
 11
2.7559055118
 21
-0.7507559259
 31
0.0
  0
LINE
  5
1C7
330
1F
100
AcDbEntity
  8
0
  6
Continuous
 62
     7
370
    25
100
AcDbLine
 10
2.3622047244
 20
-0.7507559259
 30
0.0
 11
2.3622047244
 21
-0.8833384474
 31
0.0
  0
LINE
  5
1C8
330
1F
100
AcDbEntity
  8
0
  6
Continuous
 62
     7
370
    25
100
AcDbLine
 10
2.0126981108
 20
-0.7065617521
 30
0.0
 11
2.3180105506
 21
-0.7065617521
 31
0.0
  0
LINE
  5
1C9
330
1F
100
AcDbEntity
  8
0
  6
Continuous
 62
     7
370
    25
100
AcDbLine
 10
1.1811023622
 20
-0.8833384474
 30
0.0
 11
1.1811023622
 21
-0.7507559259
 31
0.0
  0
LINE
  5
1CA
330
1F
100
AcDbEntity
  8
0
  6
Continuous
 62
     7
370
    25
100
AcDbLine
 10
0.7874015748
 20
-0.8833384474
 30
0.0
 11
1.1811023622
 21
-0.8833384474
 31
0.0
  0
LINE
  5
1CB
330
1F
100
AcDbEntity
  8
0
  6
Continuous
 62
     7
370
    25
100
AcDbLine
 10
0.7874015748
 20
-0.7507559259
 30
0.0
 11
0.7874015748
 21
-0.8833384474
 31
0.0
  0
LINE
  5
1CC
330
1F
100
AcDbEntity
  8
0
  6
Continuous
 62
     7
370
    25
100
AcDbLine
 10
-0.25
 20
-0.8520884474
 30
0.0
 11
-0.21875
 21
-0.8833384474
 31
0.0
  0
LINE
  5
1CD
330
1F
100
AcDbEntity
  8
0
  6
Continuous
 62
     7
370
    25
100
AcDbLine
 10
-0.21875
 20
-0.6864880537
 30
0.0
 11
-0.25
 21
-0.7177380537
 31
0.0
  0
LINE
  5
1CE
330
1F
100
AcDbEntity
  8
0
  6
Continuous
 62
     7
370
    25
100
AcDbLine
 10
7.874015748
 20
-0.5891588369
 30
0.0
 11
0.0
 21
-0.5891588369
 31
0.0
  0
LINE
  5
1CF
330
1F
100
AcDbEntity
  8
0
  6
Continuous
 62
     7
370
    25
100
AcDbLine
 10
5.905511811
 20
-0.8833384474
 30
0.0
 11
5.905511811
 21
-0.7507559259
 31
0.0
  0
LINE
  5
1D0
330
1F
100
AcDbEntity
  8
0
  6
Continuous
 62
     7
370
    25
100
AcDbLine
 10
5.5118110236
 20
-0.8833384474
 30
0.0
 11
5.905511811
 21
-0.8833384474
 31
0.0
  0
LINE
  5
1D1
330
1F
100
AcDbEntity
  8
0
  6
Continuous
 62
     7
370
    25
100
AcDbLine
 10
5.5118110236
 20
-0.7507559259
 30
0.0
 11
5.5118110236
 21
-0.8833384474
 31
0.0
  0
LINE
  5
1D2
330
1F
100
AcDbEntity
  8
0
  6
Continuous
 62
     7
370
    25
100
AcDbLine
 10
4.7244094488
 20
-0.7507559259
 30
0.0
 11
4.7244094488
 21
-0.8833384474
 31
0.0
  0
LINE
  5
1D3
330
1F
100
AcDbEntity
  8
0
  6
Continuous
 62
     7
370
    25
100
AcDbLine
 10
0.4378949612
 20
-0.7065617521
 30
0.0
 11
0.743207401
 21
-0.7065617521
 31
0.0
  0
LINE
  5
1D4
330
1F
100
AcDbEntity
  8
0
  6
Continuous
 62
     7
370
    25
100
AcDbLine
 10
0.3937007874
 20
-0.8833384474
 30
0.0
 11
0.3937007874
 21
-0.7507559259
 31
0.0
  0
LINE
  5
1D5
330
1F
100
AcDbEntity
  8
0
  6
Continuous
 62
     7
370
    25
100
AcDbLine
 10
3.937007874
 20
-0.8833384474
 30
0.0
 11
4.3307086614
 21
-0.8833384474
 31
0.0
  0
LINE
  5
1D6
330
1F
100
AcDbEntity
  8
0
  6
Continuous
 62
     7
370
    25
100
AcDbLine
 10
3.5875012604
 20
-0.7065617521
 30
0.0
 11
3.8928137002
 21
-0.7065617521
 31
0.0
  0
LINE
  5
1D7
330
1F
100
AcDbEntity
  8
0
  6
Continuous
 62
     7
370
    25
100
AcDbLine
 10
3.1496062992
 20
-0.8833384474
 30
0.0
 11
3.5433070866
 21
-0.8833384474
 31
0.0
  0
LINE
  5
1D8
330
1F
100
AcDbEntity
  8
0
  6
Continuous
 62
     7
370
    25
100
AcDbLine
 10
3.1496062992
 20
-0.7507559259
 30
0.0
 11
3.1496062992
 21
-0.8833384474
 31
0.0
  0
LINE
  5
1D9
330
1F
100
AcDbEntity
  8
0
  6
Continuous
 62
     7
370
    25
100
AcDbLine
 10
2.8000996856
 20
-0.7065617521
 30
0.0
 11
3.1054121254
 21
-0.7065617521
 31
0.0
  0
LINE
  5
1DA
330
1F
100
AcDbEntity
  8
0
  6
Continuous
 62
     7
370
    25
100
AcDbLine
 10
2.3622047244
 20
-0.8833384474
 30
0.0
 11
2.7559055118
 21
-0.8833384474
 31
0.0
  0
LINE
  5
1DB
330
1F
100
AcDbEntity
  8
0
  6
Continuous
 62
     7
370
    25
100
AcDbLine
 10
1.968503937
 20
-0.8833384474
 30
0.0
 11
1.968503937
 21
-0.7507559259
 31
0.0
  0
LINE
  5
1DC
330
1F
100
AcDbEntity
  8
0
  6
Continuous
 62
     7
370
    25
100
AcDbLine
 10
1.5748031496
 20
-0.8833384474
 30
0.0
 11
1.968503937
 21
-0.8833384474
 31
0.0
  0
LINE
  5
1DD
330
1F
100
AcDbEntity
  8
0
  6
Continuous
 62
     7
370
    25
100
AcDbLine
 10
1.5748031496
 20
-0.7507559259
 30
0.0
 11
1.5748031496
 21
-0.8833384474
 31
0.0
  0
LINE
  5
1DE
330
1F
100
AcDbEntity
  8
0
  6
Continuous
 62
     7
370
    25
100
AcDbLine
 10
1.225296536
 20
-0.7065617521
 30
0.0
 11
1.5306089758
 21
-0.7065617521
 31
0.0
  0
LINE
  5
1DF
330
1F
100
AcDbEntity
  8
0
  6
Continuous
 62
     7
370
    25
100
AcDbLine
 10
-0.21875
 20
-0.8833384474
 30
0.0
 11
0.3937007874
 21
-0.8833384474
 31
0.0
  0
LINE
  5
1E0
330
1F
100
AcDbEntity
  8
0
  6
Continuous
 62
     7
370
    25
100
AcDbLine
 10
-0.25
 20
-0.7177380537
 30
0.0
 11
-0.25
 21
-0.8520884474
 31
0.0
  0
LINE
  5
1E1
330
1F
100
AcDbEntity
  8
0
  6
Continuous
 62
     7
370
    25
100
AcDbLine
 10
-0.0441941738
 20
-0.6864880537
 30
0.0
 11
-0.21875
 21
-0.6864880537
 31
0.0
  0
LINE
  5
1E2
330
1F
100
AcDbEntity
  8
0
  6
Continuous
 62
     7
370
    25
100
AcDbLine
 10
0.0
 20
0.0
 30
0.0
 11
0.0
 21
-0.6422938799
 31
0.0
  0
LINE
  5
1E3
330
1F
100
AcDbEntity
  8
0
  6
Continuous
 62
     7
370
    25
100
AcDbLine
 10
6.6929133858
 20
-0.8833384474
 30
0.0
 11
6.6929133858
 21
-0.7507559259
 31
0.0
  0
LINE
  5
1E4
330
1F
100
AcDbEntity
  8
0
  6
Continuous
 62
     7
370
    25
100
AcDbLine
 10
6.2992125984
 20
-0.7507559259
 30
0.0
 11
6.2992125984
 21
-0.8833384474
 31
0.0
  0
LINE
  5
1E5
330
1F
100
AcDbEntity
  8
0
  6
Continuous
 62
     7
370
    25
100
AcDbLine
 10
8.124015748
 20
-0.8520884474
 30
0.0
 11
8.124015748
 21
-0.7177380537
 31
0.0
  0
LINE
  5
1E6
330
1F
100
AcDbEntity
  8
0
  6
Continuous
 62
     7
370
    25
100
AcDbLine
 10
7.0866141732
 20
-0.7507559259
 30
0.0
 11
7.0866141732
 21
-0.8833384474
 31
0.0
  0
LINE
  5
1E7
330
1F
100
AcDbEntity
  8
0
  6
Continuous
 62
     7
370
    25
100
AcDbLine
 10
6.7371075597
 20
-0.7065617521
 30
0.0
 11
7.0424199994
 21
-0.7065617521
 31
0.0
  0
LINE
  5
1E8
330
1F
100
AcDbEntity
  8
0
  6
Continuous
 62
     7
370
    25
100
AcDbLine
 10
6.2992125984
 20
-0.8833384474
 30
0.0
 11
6.6929133858
 21
-0.8833384474
 31
0.0
  0
LINE
  5
1E9
330
1F
100
AcDbEntity
  8
0
  6
Continuous
 62
     7
370
    25
100
AcDbLine
 10
8.092765748
 20
-0.6864880537
 30
0.0
 11
7.9182099219
 21
-0.6864880537
 31
0.0
  0
LINE
  5
1EA
330
1F
100
AcDbEntity
  8
0
  6
Continuous
 62
     7
370
    25
100
AcDbLine
 10
5.9497059848
 20
-0.7065617521
 30
0.0
 11
6.2550184246
 21
-0.7065617521
 31
0.0
  0
LINE
  5
1EB
330
1F
100
AcDbEntity
  8
0
  6
Continuous
 62
     7
370
    25
100
AcDbLine
 10
7.874015748
 20
-0.6422938799
 30
0.0
 11
7.874015748
 21
-0.25
 31
0.0
  0
LINE
  5
1EC
330
1F
100
AcDbEntity
  8
0
  6
Continuous
 62
     7
370
    25
100
AcDbLine
 10
0.1497774735
 20
-0.2772427382
 30
0.0
 11
0.1497774735
 21
-0.3830854862
 31
0.0
  0
LINE
  5
1ED
330
1F
100
AcDbEntity
  8
0
  6
Continuous
 62
     7
370
    25
100
AcDbLine
 10
0.1655977191
 20
-0.2772427382
 30
0.0
 11
0.1497774735
 21
-0.2772427382
 31
0.0
  0
LINE
  5
1EE
330
1F
100
AcDbEntity
  8
0
  6
Continuous
 62
     7
370
    25
100
AcDbLine
 10
0.1497774735
 20
-0.3830854862
 30
0.0
 11
0.1635382788
 21
-0.3830854862
 31
0.0
  0
LINE
  5
1EF
330
1F
100
AcDbEntity
  8
0
  6
Continuous
 62
     7
370
    25
100
AcDbLine
 10
0.6713775248
 20
-0.3531299915
 30
0.0
 11
0.6480372019
 21
-0.2773363492
 31
0.0
  0
LINE
  5
1F0
330
1F
100
AcDbEntity
  8
0
  6
Continuous
 62
     7
370
    25
100
AcDbLine
 10
0.6480372019
 20
-0.2773363492
 30
0.0
 11
0.6241040098
 21
-0.3531299915
 31
0.0
  0
LINE
  5
1F1
330
1F
100
AcDbEntity
  8
0
  6
Continuous
 62
     7
370
    25
100
AcDbLine
 10
0.6241040098
 20
-0.3531299915
 30
0.0
 11
0.6713775248
 21
-0.3531299915
 31
0.0
  0
LINE
  5
1F2
330
1F
100
AcDbEntity
  8
0
  6
Continuous
 62
     7
370
    25
100
AcDbLine
 10
0.9973931587
 20
-0.2772427382
 30
0.0
 11
0.980543193
 21
-0.2772427382
 31
0.0
  0
LINE
  5
1F3
330
1F
100
AcDbEntity
  8
0
  6
Continuous
 62
     7
370
    25
100
AcDbLine
 10
0.980543193
 20
-0.2772427382
 30
0.0
 11
0.980543193
 21
-0.3231744968
 31
0.0
  0
LINE
  5
1F4
330
1F
100
AcDbEntity
  8
0
  6
Continuous
 62
     7
370
    25
100
AcDbLine
 10
0.980543193
 20
-0.3231744968
 30
0.0
 11
0.9949904784
 21
-0.3231744968
 31
0.0
  0
LINE
  5
1F5
330
1F
100
AcDbEntity
  8
0
  6
Continuous
 62
     7
370
    25
100
AcDbLine
 10
0.9070274164
 20
-0.3531299915
 30
0.0
 11
0.8836870935
 21
-0.2773363492
 31
0.0
  0
LINE
  5
1F6
330
1F
100
AcDbEntity
  8
0
  6
Continuous
 62
     7
370
    25
100
AcDbLine
 10
0.8836870935
 20
-0.2773363492
 30
0.0
 11
0.8597539013
 21
-0.3531299915
 31
0.0
  0
LINE
  5
1F7
330
1F
100
AcDbEntity
  8
0
  6
Continuous
 62
     7
370
    25
100
AcDbLine
 10
0.8597539013
 20
-0.3531299915
 30
0.0
 11
0.9070274164
 21
-0.3531299915
 31
0.0
  0
ARC
  5
1F8
330
1F
100
AcDbEntity
  8
0
  6
Continuous
 62
     7
370
    25
100
AcDbCircle
 10
0.4157978743
 20
-0.2279029131
 30
0.0
 40
0.0312499999999795
100
AcDbArc
 50
135.0
 51
315.0
  0
ARC
  5
1F9
330
1F
100
AcDbEntity
  8
0
  6
Continuous
 62
     7
370
    25
100
AcDbCircle
 10
0.7653044879
 20
-0.2279029131
 30
0.0
 40
0.0312499999999795
100
AcDbArc
 50
225.0
 51
45.0
  0
ARC
  5
1FA
330
1F
100
AcDbEntity
  8
0
  6
Continuous
 62
     7
370
    25
100
AcDbCircle
 10
1.2031994491
 20
-0.2279029131
 30
0.0
 40
0.0312499999999917
100
AcDbArc
 50
135.0000000001
 51
315.0000000001
  0
ARC
  5
1FB
330
1F
100
AcDbEntity
  8
0
  6
Continuous
 62
     7
370
    25
100
AcDbCircle
 10
1.5527060627
 20
-0.2279029131
 30
0.0
 40
0.031249999999961
100
AcDbArc
 50
224.9999999999
 51
44.9999999999
  0
ARC
  5
1FC
330
1F
100
AcDbEntity
  8
0
  6
Continuous
 62
     7
370
    25
100
AcDbCircle
 10
1.9906010239
 20
-0.2279029131
 30
0.0
 40
0.0312499999999797
100
AcDbArc
 50
135.0
 51
315.0
  0
ARC
  5
1FD
330
1F
100
AcDbEntity
  8
0
  6
Continuous
 62
     7
370
    25
100
AcDbCircle
 10
2.3401076375
 20
-0.2279029131
 30
0.0
 40
0.0312499999999674
100
AcDbArc
 50
225.0
 51
44.9999999999
  0
ARC
  5
1FE
330
1F
100
AcDbEntity
  8
0
  6
Continuous
 62
     7
370
    25
100
AcDbCircle
 10
2.7780025987
 20
-0.2279029131
 30
0.0
 40
0.0312499999999722
100
AcDbArc
 50
135.0000000001
 51
315.0000000002
  0
ARC
  5
1FF
330
1F
100
AcDbEntity
  8
0
  6
Continuous
 62
     7
370
    25
100
AcDbCircle
 10
3.1275092123
 20
-0.2279029131
 30
0.0
 40
0.0312499999999794
100
AcDbArc
 50
225.0
 51
45.0
  0
ARC
  5
200
330
1F
100
AcDbEntity
  8
0
  6
Continuous
 62
     7
370
    25
100
AcDbCircle
 10
3.5654041735
 20
-0.2279029131
 30
0.0
 40
0.031249999999984
100
AcDbArc
 50
135.0000000001
 51
315.0000000001
  0
ARC
  5
201
330
1F
100
AcDbEntity
  8
0
  6
Continuous
 62
     7
370
    25
100
AcDbCircle
 10
3.9149107871
 20
-0.2279029131
 30
0.0
 40
0.0312499999999669
100
AcDbArc
 50
225.0
 51
44.9999999999
  0
ARC
  5
202
330
1F
100
AcDbEntity
  8
0
  6
Continuous
 62
     7
370
    25
100
AcDbCircle
 10
4.3528057483
 20
-0.2279029131
 30
0.0
 40
0.0312499999999723
100
AcDbArc
 50
135.0000000001
 51
315.0000000002
  0
ARC
  5
203
330
1F
100
AcDbEntity
  8
0
  6
Continuous
 62
     7
370
    25
100
AcDbCircle
 10
4.7023123619
 20
-0.2279029131
 30
0.0
 40
0.0312499999999802
100
AcDbArc
 50
225.0
 51
45.0
  0
ARC
  5
204
330
1F
100
AcDbEntity
  8
0
  6
Continuous
 62
     7
370
    25
100
AcDbCircle
 10
5.1402073231
 20
-0.2279029131
 30
0.0
 40
0.0312499999999933
100
AcDbArc
 50
135.0000000001
 51
315.0000000001
  0
ARC
  5
205
330
1F
100
AcDbEntity
  8
0
  6
Continuous
 62
     7
370
    25
100
AcDbCircle
 10
5.4897139367
 20
-0.2279029131
 30
0.0
 40
0.031249999999955
100
AcDbArc
 50
225.0
 51
45.0
  0
ARC
  5
206
330
1F
100
AcDbEntity
  8
0
  6
Continuous
 62
     7
370
    25
100
AcDbCircle
 10
6.2771155115
 20
-0.2279029131
 30
0.0
 40
0.0312499999999559
100
AcDbArc
 50
225.0
 51
45.0
  0
ARC
  5
207
330
1F
100
AcDbEntity
  8
0
  6
Continuous
 62
     7
370
    25
100
AcDbCircle
 10
6.7150104727
 20
-0.2279029131
 30
0.0
 40
0.031249999999975
100
AcDbArc
 50
135.0000000001
 51
315.0000000001
  0
ARC
  5
208
330
1F
100
AcDbEntity
  8
0
  6
Continuous
 62
     7
370
    25
100
AcDbCircle
 10
7.0645170863
 20
-0.2279029131
 30
0.0
 40
0.0312499999999487
100
AcDbArc
 50
224.9999999999
 51
44.9999999999
  0
ARC
  5
209
330
1F
100
AcDbEntity
  8
0
  6
Continuous
 62
     7
370
    25
100
AcDbCircle
 10
7.5024120475
 20
-0.2279029131
 30
0.0
 40
0.0312499999999751
100
AcDbArc
 50
135.0000000001
 51
315.0000000001
  0
ARC
  5
20A
330
1F
100
AcDbEntity
  8
0
  6
Continuous
 62
     7
370
    25
100
AcDbCircle
 10
5.9276088979
 20
-0.2279029131
 30
0.0
 40
0.0312499999999638
100
AcDbArc
 50
135.0000000001
 51
315.0000000001
  0
ARC
  5
20B
330
1F
100
AcDbEntity
  8
0
  6
Continuous
 62
     7
370
    25
100
AcDbCircle
 10
5.1402073231
 20
-0.728658839
 30
0.0
 40
0.031250000000011
100
AcDbArc
 50
45.0000000001
 51
225.0000000001
  0
ARC
  5
20C
330
1F
100
AcDbEntity
  8
0
  6
Continuous
 62
     7
370
    25
100
AcDbCircle
 10
4.7023123619
 20
-0.728658839
 30
0.0
 40
0.0312499999999747
100
AcDbArc
 50
314.9999999999
 51
134.9999999999
  0
ARC
  5
20D
330
1F
100
AcDbEntity
  8
0
  6
Continuous
 62
     7
370
    25
100
AcDbCircle
 10
4.3528057483
 20
-0.728658839
 30
0.0
 40
0.0312500000000109
100
AcDbArc
 50
45.0000000001
 51
225.0000000001
  0
ARC
  5
20E
330
1F
100
AcDbEntity
  8
0
  6
Continuous
 62
     7
370
    25
100
AcDbCircle
 10
2.7780025987
 20
-0.728658839
 30
0.0
 40
0.0312499999999614
100
AcDbArc
 50
45.0000000001
 51
225.0000000001
  0
ARC
  5
20F
330
1F
100
AcDbEntity
  8
0
  6
Continuous
 62
     7
370
    25
100
AcDbCircle
 10
2.3401076375
 20
-0.728658839
 30
0.0
 40
0.0312499999999734
100
AcDbArc
 50
314.9999999998
 51
134.9999999998
  0
ARC
  5
210
330
1F
100
AcDbEntity
  8
0
  6
Continuous
 62
     7
370
    25
100
AcDbCircle
 10
1.9906010239
 20
-0.728658839
 30
0.0
 40
0.0312499999999609
100
AcDbArc
 50
45.0000000001
 51
225.0000000002
  0
ARC
  5
211
330
1F
100
AcDbEntity
  8
0
  6
Continuous
 62
     7
370
    25
100
AcDbCircle
 10
1.2031994491
 20
-0.728658839
 30
0.0
 40
0.0312499999999488
100
AcDbArc
 50
45.0000000002
 51
225.0000000001
  0
ARC
  5
212
330
1F
100
AcDbEntity
  8
0
  6
Continuous
 62
     7
370
    25
100
AcDbCircle
 10
0.7653044879
 20
-0.728658839
 30
0.0
 40
0.0312499999999485
100
AcDbArc
 50
314.9999999998
 51
134.9999999998
  0
ARC
  5
213
330
1F
100
AcDbEntity
  8
0
  6
Continuous
 62
     7
370
    25
100
AcDbCircle
 10
5.4897139367
 20
-0.728658839
 30
0.0
 40
0.031249999999972
100
AcDbArc
 50
314.9999999999
 51
134.9999999999
  0
ARC
  5
214
330
1F
100
AcDbEntity
  8
0
  6
Continuous
 62
     7
370
    25
100
AcDbCircle
 10
0.4157978743
 20
-0.728658839
 30
0.0
 40
0.031249999999992
100
AcDbArc
 50
45.0000000003
 51
225.0000000003
  0
ARC
  5
215
330
1F
100
AcDbEntity
  8
0
  6
Continuous
 62
     7
370
    25
100
AcDbCircle
 10
3.9149107871
 20
-0.728658839
 30
0.0
 40
0.0312499999999751
100
AcDbArc
 50
314.9999999999
 51
134.9999999999
  0
ARC
  5
216
330
1F
100
AcDbEntity
  8
0
  6
Continuous
 62
     7
370
    25
100
AcDbCircle
 10
3.5654041735
 20
-0.728658839
 30
0.0
 40
0.0312500000000108
100
AcDbArc
 50
45.0000000001
 51
225.0000000001
  0
ARC
  5
217
330
1F
100
AcDbEntity
  8
0
  6
Continuous
 62
     7
370
    25
100
AcDbCircle
 10
3.1275092123
 20
-0.728658839
 30
0.0
 40
0.0312499999999748
100
AcDbArc
 50
314.9999999999
 51
134.9999999999
  0
ARC
  5
218
330
1F
100
AcDbEntity
  8
0
  6
Continuous
 62
     7
370
    25
100
AcDbCircle
 10
1.5527060627
 20
-0.728658839
 30
0.0
 40
0.0312499999999485
100
AcDbArc
 50
314.9999999998
 51
134.9999999998
  0
ARC
  5
219
330
1F
100
AcDbEntity
  8
0
  6
Continuous
 62
     7
370
    25
100
AcDbCircle
 10
-0.0220970869
 20
-0.6643909668
 30
0.0
 40
0.0312500000000103
100
AcDbArc
 50
225.0
 51
45.0
  0
ARC
  5
21A
330
1F
100
AcDbEntity
  8
0
  6
Continuous
 62
     7
370
    25
100
AcDbCircle
 10
6.7150104727
 20
-0.728658839
 30
0.0
 40
0.0312499999999805
100
AcDbArc
 50
44.9999999999
 51
224.9999999999
  0
ARC
  5
21B
330
1F
100
AcDbEntity
  8
0
  6
Continuous
 62
     7
370
    25
100
AcDbCircle
 10
7.0645170863
 20
-0.728658839
 30
0.0
 40
0.0312499999999907
100
AcDbArc
 50
315.0
 51
135.0
  0
ARC
  5
21C
330
1F
100
AcDbEntity
  8
0
  6
Continuous
 62
     7
370
    25
100
AcDbCircle
 10
6.2771155115
 20
-0.728658839
 30
0.0
 40
0.0312499999999628
100
AcDbArc
 50
314.9999999999
 51
134.9999999999
  0
ARC
  5
21D
330
1F
100
AcDbEntity
  8
0
  6
Continuous
 62
     7
370
    25
100
AcDbCircle
 10
5.9276088979
 20
-0.728658839
 30
0.0
 40
0.031250000000036
100
AcDbArc
 50
45.0000000001
 51
225.0000000001
  0
ARC
  5
21E
330
1F
100
AcDbEntity
  8
0
  6
Continuous
 62
     7
370
    25
100
AcDbCircle
 10
7.8961128349
 20
-0.6643909668
 30
0.0
 40
0.0312499999999921
100
AcDbArc
 50
135.0000000001
 51
315.0000000001
  0
ENDSEC
  0
SECTION
  2
OBJECTS
  0
DICTIONARY
  5
C
330
0
100
AcDbDictionary
281
     1
  3
ACAD_GROUP
350
D
  3
ACAD_LAYOUT
350
1A
  3
ACAD_MLINESTYLE
350
17
  3
ACAD_PLOTSETTINGS
350
19
  3
ACAD_PLOTSTYLENAME
350
E
  3
ACAD_SCALELIST
350
47
  0
DICTIONARY
  5
D
102
{ACAD_REACTORS
330
C
102
}
330
C
100
AcDbDictionary
281
     1
  0
DICTIONARY
  5
1A
102
{ACAD_REACTORS
330
C
102
}
330
C
100
AcDbDictionary
281
     1
  3
Layout1
350
1E
  3
Layout2
350
26
  3
Model
350
22
  0
DICTIONARY
  5
17
102
{ACAD_REACTORS
330
C
102
}
330
C
100
AcDbDictionary
281
     1
  3
Standard
350
18
  0
DICTIONARY
  5
19
102
{ACAD_REACTORS
330
C
102
}
330
C
100
AcDbDictionary
281
     1
  0
ACDBDICTIONARYWDFLT
  5
E
102
{ACAD_REACTORS
330
C
102
}
330
C
100
AcDbDictionary
281
     1
  3
Normal
350
F
100
AcDbDictionaryWithDefault
340
F
  0
DICTIONARY
  5
47
102
{ACAD_REACTORS
330
C
102
}
330
C
100
AcDbDictionary
281
     1
  3
A0
350
48
  3
A1
350
49
  3
A2
350
4A
  3
A3
350
4B
  3
A4
350
4C
  3
A5
350
4D
  3
A6
350
4E
  3
A7
350
4F
  3
A8
350
50
  3
A9
350
51
  3
B0
350
52
  3
B1
350
53
  3
B2
350
54
  3
B3
350
55
  3
B4
350
56
  3
B5
350
57
  3
B6
350
58
  3
B7
350
59
  3
B8
350
5A
  3
B9
350
5B
  3
C0
350
5C
  3
C1
350
5D
  3
C2
350
5E
  3
C3
350
5F
  3
C4
350
60
  3
C5
350
61
  3
C6
350
62
  3
C7
350
63
  3
C8
350
64
  3
C9
350
65
  3
D0
350
66
  3
D1
350
67
  3
D2
350
68
  0
LAYOUT
  5
1E
102
{ACAD_REACTORS
330
1A
102
}
330
1A
100
AcDbPlotSettings
  1

  2
none_device
  4

  6

 40
0.0
 41
0.0
 42
0.0
 43
0.0
 44
0.0
 45
0.0
 46
0.0
 47
0.0
 48
0.0
 49
0.0
140
0.0
141
0.0
142
1.0
143
1.0
 70
   688
 72
     0
 73
     0
 74
     5
  7

 75
    16
147
1.0
148
0.0
149
0.0
100
AcDbLayout
  1
Layout1
 70
     1
 71
     1
 10
0.0
 20
0.0
 11
12.0
 21
9.0
 12
0.0
 22
0.0
 32
0.0
 14
1.0000000000E+20
 24
1.0000000000E+20
 34
1.0000000000E+20
 15
-1.0000000000E+20
 25
-1.0000000000E+20
 35
-1.0000000000E+20
146
0.0
 13
0.0
 23
0.0
 33
0.0
 16
1.0
 26
0.0
 36
0.0
 17
0.0
 27
1.0
 37
0.0
 76
     0
330
1B
  0
LAYOUT
  5
26
102
{ACAD_REACTORS
330
1A
102
}
330
1A
100
AcDbPlotSettings
  1

  2
none_device
  4

  6

 40
0.0
 41
0.0
 42
0.0
 43
0.0
 44
0.0
 45
0.0
 46
0.0
 47
0.0
 48
0.0
 49
0.0
140
0.0
141
0.0
142
1.0
143
1.0
 70
   688
 72
     0
 73
     0
 74
     5
  7

 75
    16
147
1.0
148
0.0
149
0.0
100
AcDbLayout
  1
Layout2
 70
     1
 71
     2
 10
0.0
 20
0.0
 11
0.0
 21
0.0
 12
0.0
 22
0.0
 32
0.0
 14
0.0
 24
0.0
 34
0.0
 15
0.0
 25
0.0
 35
0.0
146
0.0
 13
0.0
 23
0.0
 33
0.0
 16
1.0
 26
0.0
 36
0.0
 17
0.0
 27
1.0
 37
0.0
 76
     0
330
23
  0
LAYOUT
  5
22
102
{ACAD_REACTORS
330
1A
102
}
330
1A
100
AcDbPlotSettings
  1

  2
none_device
  4
ANSI_A_(11.00_x_8.50_Inches)
  6

 40
6.35
 41
19.05
 42
6.35000508
 43
19.05000254
 44
279.4
 45
215.9
 46
3.3048634685
 47
103.4889798078
 48
0.0
 49
0.0
140
0.0
141
0.0
142
1.3004513399
143
1.0
 70
  1696
 72
     0
 73
     0
 74
     0
  7

 75
     0
147
0.5913241897
148
-39.4088153714
149
0.0
100
AcDbLayout
  1
Model
 70
     1
 71
     0
 10
0.0
 20
0.0
 11
12.0
 21
9.0
 12
0.0
 22
0.0
 32
0.0
 14
-0.25
 24
-0.8833384474
 34
0.0
 15
8.124015748
 25
0.0
 35
0.0
146
0.0
 13
0.0
 23
0.0
 33
0.0
 16
1.0
 26
0.0
 36
0.0
 17
0.0
 27
1.0
 37
0.0
 76
     0
330
1F
331
29
  0
MLINESTYLE
  5
18
102
{ACAD_REACTORS
330
17
102
}
330
17
100
AcDbMlineStyle
  2
Standard
 70
     0
  3

 62
   256
 51
90.0
 52
90.0
 71
     2
 49
0.5
 62
   256
  6
BYLAYER
 49
-0.5
 62
   256
  6
BYLAYER
  0
ACDBPLACEHOLDER
  5
F
102
{ACAD_REACTORS
330
E
102
}
330
E
  0
SCALE
  5
48
102
{ACAD_REACTORS
330
47
102
}
330
47
100
AcDbScale
 70
     0
300
1:1
140
1.0
141
1.0
290
     1
  0
SCALE
  5
49
102
{ACAD_REACTORS
330
47
102
}
330
47
100
AcDbScale
 70
     0
300
1:2
140
1.0
141
2.0
290
     0
  0
SCALE
  5
4A
102
{ACAD_REACTORS
330
47
102
}
330
47
100
AcDbScale
 70
     0
300
1:4
140
1.0
141
4.0
290
     0
  0
SCALE
  5
4B
102
{ACAD_REACTORS
330
47
102
}
330
47
100
AcDbScale
 70
     0
300
1:5
140
1.0
141
5.0
290
     0
  0
SCALE
  5
4C
102
{ACAD_REACTORS
330
47
102
}
330
47
100
AcDbScale
 70
     0
300
1:8
140
1.0
141
8.0
290
     0
  0
SCALE
  5
4D
102
{ACAD_REACTORS
330
47
102
}
330
47
100
AcDbScale
 70
     0
300
1:10
140
1.0
141
10.0
290
     0
  0
SCALE
  5
4E
102
{ACAD_REACTORS
330
47
102
}
330
47
100
AcDbScale
 70
     0
300
1:16
140
1.0
141
16.0
290
     0
  0
SCALE
  5
4F
102
{ACAD_REACTORS
330
47
102
}
330
47
100
AcDbScale
 70
     0
300
1:20
140
1.0
141
20.0
290
     0
  0
SCALE
  5
50
102
{ACAD_REACTORS
330
47
102
}
330
47
100
AcDbScale
 70
     0
300
1:30
140
1.0
141
30.0
290
     0
  0
SCALE
  5
51
102
{ACAD_REACTORS
330
47
102
}
330
47
100
AcDbScale
 70
     0
300
1:40
140
1.0
141
40.0
290
     0
  0
SCALE
  5
52
102
{ACAD_REACTORS
330
47
102
}
330
47
100
AcDbScale
 70
     0
300
1:50
140
1.0
141
50.0
290
     0
  0
SCALE
  5
53
102
{ACAD_REACTORS
330
47
102
}
330
47
100
AcDbScale
 70
     0
300
1:100
140
1.0
141
100.0
290
     0
  0
SCALE
  5
54
102
{ACAD_REACTORS
330
47
102
}
330
47
100
AcDbScale
 70
     0
300
2:1
140
2.0
141
1.0
290
     0
  0
SCALE
  5
55
102
{ACAD_REACTORS
330
47
102
}
330
47
100
AcDbScale
 70
     0
300
4:1
140
4.0
141
1.0
290
     0
  0
SCALE
  5
56
102
{ACAD_REACTORS
330
47
102
}
330
47
100
AcDbScale
 70
     0
300
8:1
140
8.0
141
1.0
290
     0
  0
SCALE
  5
57
102
{ACAD_REACTORS
330
47
102
}
330
47
100
AcDbScale
 70
     0
300
10:1
140
10.0
141
1.0
290
     0
  0
SCALE
  5
58
102
{ACAD_REACTORS
330
47
102
}
330
47
100
AcDbScale
 70
     0
300
100:1
140
100.0
141
1.0
290
     0
  0
SCALE
  5
59
102
{ACAD_REACTORS
330
47
102
}
330
47
100
AcDbScale
 70
     0
300
1/128" = 1'-0"
140
0.0078125
141
12.0
290
     0
  0
SCALE
  5
5A
102
{ACAD_REACTORS
330
47
102
}
330
47
100
AcDbScale
 70
     0
300
1/64" = 1'-0"
140
0.015625
141
12.0
290
     0
  0
SCALE
  5
5B
102
{ACAD_REACTORS
330
47
102
}
330
47
100
AcDbScale
 70
     0
300
1/32" = 1'-0"
140
0.03125
141
12.0
290
     0
  0
SCALE
  5
5C
102
{ACAD_REACTORS
330
47
102
}
330
47
100
AcDbScale
 70
     0
300
1/16" = 1'-0"
140
0.0625
141
12.0
290
     0
  0
SCALE
  5
5D
102
{ACAD_REACTORS
330
47
102
}
330
47
100
AcDbScale
 70
     0
300
3/32" = 1'-0"
140
0.09375
141
12.0
290
     0
  0
SCALE
  5
5E
102
{ACAD_REACTORS
330
47
102
}
330
47
100
AcDbScale
 70
     0
300
1/8" = 1'-0"
140
0.125
141
12.0
290
     0
  0
SCALE
  5
5F
102
{ACAD_REACTORS
330
47
102
}
330
47
100
AcDbScale
 70
     0
300
3/16" = 1'-0"
140
0.1875
141
12.0
290
     0
  0
SCALE
  5
60
102
{ACAD_REACTORS
330
47
102
}
330
47
100
AcDbScale
 70
     0
300
1/4" = 1'-0"
140
0.25
141
12.0
290
     0
  0
SCALE
  5
61
102
{ACAD_REACTORS
330
47
102
}
330
47
100
AcDbScale
 70
     0
300
3/8" = 1'-0"
140
0.375
141
12.0
290
     0
  0
SCALE
  5
62
102
{ACAD_REACTORS
330
47
102
}
330
47
100
AcDbScale
 70
     0
300
1/2" = 1'-0"
140
0.5
141
12.0
290
     0
  0
SCALE
  5
63
102
{ACAD_REACTORS
330
47
102
}
330
47
100
AcDbScale
 70
     0
300
3/4" = 1'-0"
140
0.75
141
12.0
290
     0
  0
SCALE
  5
64
102
{ACAD_REACTORS
330
47
102
}
330
47
100
AcDbScale
 70
     0
300
1" = 1'-0"
140
1.0
141
12.0
290
     0
  0
SCALE
  5
65
102
{ACAD_REACTORS
330
47
102
}
330
47
100
AcDbScale
 70
     0
300
1-1/2" = 1'-0"
140
1.5
141
12.0
290
     0
  0
SCALE
  5
66
102
{ACAD_REACTORS
330
47
102
}
330
47
100
AcDbScale
 70
     0
300
3" = 1'-0"
140
3.0
141
12.0
290
     0
  0
SCALE
  5
67
102
{ACAD_REACTORS
330
47
102
}
330
47
100
AcDbScale
 70
     0
300
6" = 1'-0"
140
6.0
141
12.0
290
     0
  0
SCALE
  5
68
102
{ACAD_REACTORS
330
47
102
}
330
47
100
AcDbScale
 70
     0
300
1'-0" = 1'-0"
140
12.0
141
12.0
290
     0
  0
ENDSEC
  0
EOF
