  0
SECTION
  2
HEADER
  9
$ACADVER
  1
AC1015
  9
$ACADMAINTVER
 70
     6
  9
$DWGCODEPAGE
  3
ANSI_1252
  9
$INSBASE
 10
0.0
 20
0.0
 30
0.0
  9
$EXTMIN
 10
-8.124015748
 20
-0.8833384474
 30
0.0
  9
$EXTMAX
 10
0.25
 20
0.0
 30
0.0
  9
$LIMMIN
 10
0.0
 20
0.0
  9
$LIMMAX
 10
12.0
 20
9.0
  9
$ORTHOMODE
 70
     0
  9
$REGENMODE
 70
     1
  9
$FILLMODE
 70
     1
  9
$QTEXTMODE
 70
     0
  9
$MIRRTEXT
 70
     1
  9
$LTSCALE
 40
1.0
  9
$ATTMODE
 70
     1
  9
$TEXTSIZE
 40
0.1377952756
  9
$TRACEWID
 40
0.05
  9
$TEXTSTYLE
  7
Standard
  9
$CLAYER
  8
0
  9
$CELTYPE
  6
ByLayer
  9
$CECOLOR
 62
   256
  9
$CELTSCALE
 40
1.0
  9
$DISPSILH
 70
     0
  9
$DIMSCALE
 40
1.0
  9
$DIMASZ
 40
0.13
  9
$DIMEXO
 40
0.0393700787
  9
$DIMDLI
 40
0.38
  9
$DIMRND
 40
0.0
  9
$DIMDLE
 40
0.0
  9
$DIMEXE
 40
0.0393700787
  9
$DIMTP
 40
0.0
  9
$DIMTM
 40
0.0
  9
$DIMTXT
 40
0.1377952756
  9
$DIMCEN
 40
0.09
  9
$DIMTSZ
 40
0.0
  9
$DIMTOL
 70
     0
  9
$DIMLIM
 70
     0
  9
$DIMTIH
 70
     1
  9
$DIMTOH
 70
     1
  9
$DIMSE1
 70
     0
  9
$DIMSE2
 70
     0
  9
$DIMTAD
 70
     1
  9
$DIMZIN
 70
     1
  9
$DIMBLK
  1

  9
$DIMASO
 70
     1
  9
$DIMSHO
 70
     1
  9
$DIMPOST
  1

  9
$DIMAPOST
  1

  9
$DIMALT
 70
     0
  9
$DIMALTD
 70
     2
  9
$DIMALTF
 40
25.4
  9
$DIMLFAC
 40
1.0
  9
$DIMTOFL
 70
     0
  9
$DIMTVP
 40
0.0
  9
$DIMTIX
 70
     0
  9
$DIMSOXD
 70
     0
  9
$DIMSAH
 70
     0
  9
$DIMBLK1
  1

  9
$DIMBLK2
  1

  9
$DIMSTYLE
  2
Standard
  9
$DIMCLRD
 70
     0
  9
$DIMCLRE
 70
     0
  9
$DIMCLRT
 70
     0
  9
$DIMTFAC
 40
1.0
  9
$DIMGAP
 40
0.06
  9
$DIMJUST
 70
     0
  9
$DIMSD1
 70
     0
  9
$DIMSD2
 70
     0
  9
$DIMTOLJ
 70
     1
  9
$DIMTZIN
 70
     1
  9
$DIMALTZ
 70
     0
  9
$DIMALTTZ
 70
     0
  9
$DIMUPT
 70
     0
  9
$DIMDEC
 70
     2
  9
$DIMTDEC
 70
     2
  9
$DIMALTU
 70
     2
  9
$DIMALTTD
 70
     2
  9
$DIMTXSTY
  7
Standard
  9
$DIMAUNIT
 70
     0
  9
$DIMADEC
 70
     2
  9
$DIMALTRND
 40
0.0
  9
$DIMAZIN
 70
     0
  9
$DIMDSEP
 70
    46
  9
$DIMATFIT
 70
     3
  9
$DIMFRAC
 70
     0
  9
$DIMLDRBLK
  1

  9
$DIMLUNIT
 70
     2
  9
$DIMLWD
 70
    -2
  9
$DIMLWE
 70
    -2
  9
$DIMTMOVE
 70
     0
  9
$LUNITS
 70
     2
  9
$LUPREC
 70
     8
  9
$SKETCHINC
 40
0.1
  9
$FILLETRAD
 40
0.5
  9
$AUNITS
 70
     0
  9
$AUPREC
 70
     2
  9
$MENU
  1
.
  9
$ELEVATION
 40
0.0
  9
$PELEVATION
 40
0.0
  9
$THICKNESS
 40
0.0
  9
$LIMCHECK
 70
     0
  9
$CHAMFERA
 40
0.0
  9
$CHAMFERB
 40
0.0
  9
$CHAMFERC
 40
0.0
  9
$CHAMFERD
 40
0.0
  9
$SKPOLY
 70
     0
  9
$TDCREATE
 40
2458301.731033299
  9
$TDUCREATE
 40
2458301.897699965
  9
$TDUPDATE
 40
2458301.731063403
  9
$TDUUPDATE
 40
2458301.897730069
  9
$TDINDWG
 40
0.0000000116
  9
$TDUSRTIMER
 40
0.0000000116
  9
$USRTIMER
 70
     1
  9
$ANGBASE
 50
0.0
  9
$ANGDIR
 70
     0
  9
$PDMODE
 70
     0
  9
$PDSIZE
 40
-1.0
  9
$PLINEWID
 40
0.0
  9
$SPLFRAME
 70
     0
  9
$SPLINETYPE
 70
     6
  9
$SPLINESEGS
 70
     8
  9
$HANDSEED
  5
21D
  9
$SURFTAB1
 70
     6
  9
$SURFTAB2
 70
     6
  9
$SURFTYPE
 70
     6
  9
$SURFU
 70
     6
  9
$SURFV
 70
     6
  9
$UCSBASE
  2

  9
$UCSNAME
  2

  9
$UCSORG
 10
0.0
 20
0.0
 30
0.0
  9
$UCSXDIR
 10
1.0
 20
0.0
 30
0.0
  9
$UCSYDIR
 10
0.0
 20
1.0
 30
0.0
  9
$UCSORTHOREF
  2

  9
$UCSORTHOVIEW
 70
     0
  9
$UCSORGTOP
 10
0.0
 20
0.0
 30
0.0
  9
$UCSORGBOTTOM
 10
0.0
 20
0.0
 30
0.0
  9
$UCSORGLEFT
 10
0.0
 20
0.0
 30
0.0
  9
$UCSORGRIGHT
 10
0.0
 20
0.0
 30
0.0
  9
$UCSORGFRONT
 10
0.0
 20
0.0
 30
0.0
  9
$UCSORGBACK
 10
0.0
 20
0.0
 30
0.0
  9
$PUCSBASE
  2

  9
$PUCSNAME
  2

  9
$PUCSORG
 10
0.0
 20
0.0
 30
0.0
  9
$PUCSXDIR
 10
1.0
 20
0.0
 30
0.0
  9
$PUCSYDIR
 10
0.0
 20
1.0
 30
0.0
  9
$PUCSORTHOREF
  2

  9
$PUCSORTHOVIEW
 70
     0
  9
$PUCSORGTOP
 10
0.0
 20
0.0
 30
0.0
  9
$PUCSORGBOTTOM
 10
0.0
 20
0.0
 30
0.0
  9
$PUCSORGLEFT
 10
0.0
 20
0.0
 30
0.0
  9
$PUCSORGRIGHT
 10
0.0
 20
0.0
 30
0.0
  9
$PUCSORGFRONT
 10
0.0
 20
0.0
 30
0.0
  9
$PUCSORGBACK
 10
0.0
 20
0.0
 30
0.0
  9
$USERI1
 70
     0
  9
$USERI2
 70
     0
  9
$USERI3
 70
     0
  9
$USERI4
 70
     0
  9
$USERI5
 70
     0
  9
$USERR1
 40
0.0
  9
$USERR2
 40
0.0
  9
$USERR3
 40
0.0
  9
$USERR4
 40
0.0
  9
$USERR5
 40
0.0
  9
$WORLDVIEW
 70
     1
  9
$SHADEDGE
 70
     3
  9
$SHADEDIF
 70
    70
  9
$TILEMODE
 70
     1
  9
$MAXACTVP
 70
    64
  9
$PINSBASE
 10
0.0
 20
0.0
 30
0.0
  9
$PLIMCHECK
 70
     0
  9
$PEXTMIN
 10
1.0000000000E+20
 20
1.0000000000E+20
 30
1.0000000000E+20
  9
$PEXTMAX
 10
-1.0000000000E+20
 20
-1.0000000000E+20
 30
-1.0000000000E+20
  9
$PLIMMIN
 10
0.0
 20
0.0
  9
$PLIMMAX
 10
12.0
 20
9.0
  9
$UNITMODE
 70
     0
  9
$VISRETAIN
 70
     1
  9
$PLINEGEN
 70
     0
  9
$PSLTSCALE
 70
     1
  9
$TREEDEPTH
 70
  3020
  9
$CMLSTYLE
  2
Standard
  9
$CMLJUST
 70
     0
  9
$CMLSCALE
 40
1.0
  9
$PROXYGRAPHICS
 70
     1
  9
$MEASUREMENT
 70
     0
  9
$CELWEIGHT
370
    -1
  9
$ENDCAPS
280
     0
  9
$JOINSTYLE
280
     0
  9
$LWDISPLAY
290
     1
  9
$INSUNITS
 70
     1
  9
$HYPERLINKBASE
  1

  9
$STYLESHEET
  1

  9
$XEDIT
290
     1
  9
$CEPSNTYPE
380
     0
  9
$PSTYLEMODE
290
     1
  9
$FINGERPRINTGUID
  2
{52DB1BD3-38E4-49DD-BB37-72C3F51CE3C6}
  9
$VERSIONGUID
  2
{FAEB1C32-E019-11D5-929B-00C0DF256EC4}
  9
$EXTNAMES
290
     1
  9
$PSVPSCALE
 40
0.0
  9
$OLESTARTUP
290
     0
  0
ENDSEC
  0
SECTION
  2
CLASSES
  0
CLASS
  1
ACDBDICTIONARYWDFLT
  2
AcDbDictionaryWithDefault
  3
ObjectDBX Classes
 90
        0
280
     0
281
     0
  0
CLASS
  1
VISUALSTYLE
  2
AcDbVisualStyle
  3
ObjectDBX Classes
 90
     4095
280
     0
281
     0
  0
CLASS
  1
MATERIAL
  2
AcDbMaterial
  3
ObjectDBX Classes
 90
     1153
280
     0
281
     0
  0
CLASS
  1
SCALE
  2
AcDbScale
  3
ObjectDBX Classes
 90
     1153
280
     0
281
     0
  0
CLASS
  1
TABLESTYLE
  2
AcDbTableStyle
  3
ObjectDBX Classes
 90
     4095
280
     0
281
     0
  0
CLASS
  1
MLEADERSTYLE
  2
AcDbMLeaderStyle
  3
ACDB_MLEADERSTYLE_CLASS
 90
     4095
280
     0
281
     0
  0
CLASS
  1
SUN
  2
AcDbSun
  3
SCENEOE
 90
     1153
280
     0
281
     0
  0
CLASS
  1
ACDBPLACEHOLDER
  2
AcDbPlaceHolder
  3
ObjectDBX Classes
 90
        0
280
     0
281
     0
  0
CLASS
  1
LAYOUT
  2
AcDbLayout
  3
ObjectDBX Classes
 90
        0
280
     0
281
     0
  0
ENDSEC
  0
SECTION
  2
TABLES
  0
TABLE
  2
VPORT
  5
8
330
0
100
AcDbSymbolTable
 70
     1
  0
VPORT
  5
29
330
8
100
AcDbSymbolTableRecord
100
AcDbViewportTableRecord
  2
*Active
 70
     0
 10
0.0
 20
0.0
 11
1.0
 21
1.0
 12
-3.937007874
 22
-0.4416692237
 13
0.0
 23
0.0
 14
0.5
 24
0.5
 15
0.5
 25
0.5
 16
0.0
 26
0.0
 36
1.0
 17
0.0
 27
0.0
 37
0.0
 40
0.9010052164
 41
9.4799629434
 42
50.0
 43
0.0
 44
0.0
 50
0.0
 51
0.0
 71
     0
 72
   100
 73
     1
 74
     3
 75
     0
 76
     0
 77
     0
 78
     0
281
     0
 65
     1
110
0.0
120
0.0
130
0.0
111
1.0
121
0.0
131
0.0
112
0.0
122
1.0
132
0.0
 79
     0
146
0.0
  0
ENDTAB
  0
TABLE
  2
LTYPE
  5
5
330
0
100
AcDbSymbolTable
 70
     6
  0
LTYPE
  5
14
330
5
100
AcDbSymbolTableRecord
100
AcDbLinetypeTableRecord
  2
ByBlock
 70
     0
  3

 72
    65
 73
     0
 40
0.0
  0
LTYPE
  5
15
330
5
100
AcDbSymbolTableRecord
100
AcDbLinetypeTableRecord
  2
ByLayer
 70
     0
  3

 72
    65
 73
     0
 40
0.0
  0
LTYPE
  5
16
330
5
100
AcDbSymbolTableRecord
100
AcDbLinetypeTableRecord
  2
Continuous
 70
     0
  3
Solid line
 72
    65
 73
     0
 40
0.0
  0
LTYPE
  5
6E
330
5
100
AcDbSymbolTableRecord
100
AcDbLinetypeTableRecord
  2
HIDDEN
 70
     0
  3
Hidden __ __ __ __ __ __ __ __ __ __ __ __ __ __
 72
    65
 73
     2
 40
0.075
 49
0.05
 74
     0
 49
-0.025
 74
     0
  0
LTYPE
  5
6F
330
5
100
AcDbSymbolTableRecord
100
AcDbLinetypeTableRecord
  2
PHANTOM
 70
     0
  3
Phantom ______  __  __  ______  __  __  ______
 72
    65
 73
     6
 40
0.5
 49
0.25
 74
     0
 49
-0.05
 74
     0
 49
0.05
 74
     0
 49
-0.05
 74
     0
 49
0.05
 74
     0
 49
-0.05
 74
     0
  0
LTYPE
  5
70
330
5
100
AcDbSymbolTableRecord
100
AcDbLinetypeTableRecord
  2
CENTER
 70
     0
  3
Center ____ _ ____ _ ____ _ ____ _ ____ _ ____
 72
    65
 73
     4
 40
0.4
 49
0.25
 74
     0
 49
-0.05
 74
     0
 49
0.05
 74
     0
 49
-0.05
 74
     0
  0
LTYPE
  5
71
330
5
100
AcDbSymbolTableRecord
100
AcDbLinetypeTableRecord
  2
CENTERX2
 70
     0
  3
Center (2x) ________  __  ________  __  _____
 72
    65
 73
     4
 40
0.8
 49
0.5
 74
     0
 49
-0.1
 74
     0
 49
0.1
 74
     0
 49
-0.1
 74
     0
  0
LTYPE
  5
72
330
5
100
AcDbSymbolTableRecord
100
AcDbLinetypeTableRecord
  2
DOT2
 70
     0
  3
Dot (.5x) ........................................
 72
    65
 73
     2
 40
0.025
 49
0.0
 74
     0
 49
-0.025
 74
     0
  0
ENDTAB
  0
TABLE
  2
LAYER
  5
2
330
0
100
AcDbSymbolTable
 70
     1
  0
LAYER
  5
10
330
2
100
AcDbSymbolTableRecord
100
AcDbLayerTableRecord
  2
0
 70
     0
 62
     7
  6
Continuous
370
    -3
390
F
  0
ENDTAB
  0
TABLE
  2
STYLE
  5
3
330
0
100
AcDbSymbolTable
 70
     1
  0
STYLE
  5
11
330
3
100
AcDbSymbolTableRecord
100
AcDbTextStyleTableRecord
  2
Standard
 70
     0
 40
0.0
 41
1.0
 50
0.0
 71
     0
 42
0.1377952756
  3
txt
  4

  0
ENDTAB
  0
TABLE
  2
VIEW
  5
6
330
0
100
AcDbSymbolTable
 70
     0
  0
ENDTAB
  0
TABLE
  2
UCS
  5
7
330
0
100
AcDbSymbolTable
 70
     0
  0
ENDTAB
  0
TABLE
  2
APPID
  5
9
330
0
100
AcDbSymbolTable
 70
     1
  0
APPID
  5
12
330
9
100
AcDbSymbolTableRecord
100
AcDbRegAppTableRecord
  2
ACAD
 70
     0
  0
ENDTAB
  0
TABLE
  2
DIMSTYLE
  5
A
330
0
100
AcDbSymbolTable
 70
     1
100
AcDbDimStyleTable
  0
DIMSTYLE
105
27
330
A
100
AcDbSymbolTableRecord
100
AcDbDimStyleTableRecord
  2
Standard
 70
     0
178
     0
340
11
  0
ENDTAB
  0
TABLE
  2
BLOCK_RECORD
  5
1
330
0
100
AcDbSymbolTable
 70
     1
  0
BLOCK_RECORD
  5
1F
330
1
100
AcDbSymbolTableRecord
100
AcDbBlockTableRecord
  2
*Model_Space
340
22
  0
BLOCK_RECORD
  5
1B
330
1
100
AcDbSymbolTableRecord
100
AcDbBlockTableRecord
  2
*Paper_Space
340
1E
  0
BLOCK_RECORD
  5
23
330
1
100
AcDbSymbolTableRecord
100
AcDbBlockTableRecord
  2
*Paper_Space0
340
26
  0
ENDTAB
  0
ENDSEC
  0
SECTION
  2
BLOCKS
  0
BLOCK
  5
20
330
1F
100
AcDbEntity
  8
0
100
AcDbBlockBegin
  2
*Model_Space
 70
     0
 10
0.0
 20
0.0
 30
0.0
  3
*Model_Space
  1

  0
ENDBLK
  5
21
330
1F
100
AcDbEntity
  8
0
100
AcDbBlockEnd
  0
BLOCK
  5
1C
330
1B
100
AcDbEntity
 67
     1
  8
0
100
AcDbBlockBegin
  2
*Paper_Space
 70
     0
 10
0.0
 20
0.0
 30
0.0
  3
*Paper_Space
  1

  0
ENDBLK
  5
1D
330
1B
100
AcDbEntity
 67
     1
  8
0
100
AcDbBlockEnd
  0
BLOCK
  5
24
330
23
100
AcDbEntity
  8
0
100
AcDbBlockBegin
  2
*Paper_Space0
 70
     0
 10
0.0
 20
0.0
 30
0.0
  3
*Paper_Space0
  1

  0
ENDBLK
  5
25
330
23
100
AcDbEntity
  8
0
100
AcDbBlockEnd
  0
ENDSEC
  0
SECTION
  2
ENTITIES
  0
SPLINE
  5
73
330
1F
100
AcDbEntity
  8
0
  6
Continuous
 62
     7
370
    25
100
AcDbSpline
210
0.0
220
0.0
230
1.0
 70
     8
 71
     3
 72
    13
 73
     9
 74
     0
 42
0.000000001
 43
0.00000001
 40
0.0
 40
0.0
 40
0.0
 40
0.0
 40
0.1294465544730137
 40
0.2566114205043959
 40
0.382860421150678
 40
0.5068327058516495
 40
0.7532354148910916
 40
1.0
 40
1.0
 40
1.0
 40
1.0
 10
-7.802153764407156
 20
-0.3849854322309463
 30
0.0
 10
-7.800717308003876
 20
-0.3849649392910854
 30
0.0
 10
-7.797869714882233
 20
-0.3849243146299703
 30
0.0
 10
-7.793640302529726
 20
-0.3844923524745046
 30
0.0
 10
-7.789500848224689
 20
-0.3838515994704352
 30
0.0
 10
-7.784125316383146
 20
-0.3826338552535841
 30
0.0
 10
-7.777583548795385
 20
-0.3805365426457415
 30
0.0
 10
-7.772642413562224
 20
-0.3781776247322487
 30
0.0
 10
-7.770170033093679
 20
-0.3769973003126535
 30
0.0
  0
SPLINE
  5
74
330
1F
100
AcDbEntity
  8
0
  6
Continuous
 62
     7
370
    25
100
AcDbSpline
210
0.0
220
0.0
230
1.0
 70
     8
 71
     3
 72
    23
 73
    19
 74
     0
 42
0.000000001
 43
0.00000001
 40
0.0
 40
0.0
 40
0.0
 40
0.0
 40
0.0840459183828568
 40
0.1627756104119839
 40
0.2368739460355143
 40
0.3066026167438442
 40
0.372165453821074
 40
0.4340606592918758
 40
0.4929277549516333
 40
0.5494298570093998
 40
0.6039396665774892
 40
0.6572607910538735
 40
0.7108024035465526
 40
0.7643352139547633
 40
0.819396952196801
 40
0.87649639143459
 40
0.936526093041694
 40
1.0
 40
1.0
 40
1.0
 40
1.0
 10
-7.844060253337887
 20
-0.3299734143717657
 30
0.0
 10
-7.844034396690996
 20
-0.3321793890838391
 30
0.0
 10
-7.843984318929197
 20
-0.3364518021554109
 30
0.0
 10
-7.843483234995219
 20
-0.3426540692601708
 30
0.0
 10
-7.842636765418423
 20
-0.3484352026362237
 30
0.0
 10
-7.841524067631487
 20
-0.353824242491086
 30
0.0
 10
-7.839960524827442
 20
-0.3587628545474166
 30
0.0
 10
-7.838193172809239
 20
-0.3633303731316663
 30
0.0
 10
-7.835979272968229
 20
-0.3674338635196397
 30
0.0
 10
-7.833490917720691
 20
-0.3711422872008683
 30
0.0
 10
-7.830665929068251
 20
-0.374416711957317
 30
0.0
 10
-7.827509919466269
 20
-0.3772561572011853
 30
0.0
 10
-7.824045571735134
 20
-0.3796699378607814
 30
0.0
 10
-7.820246469155291
 20
-0.381608068717165
 30
0.0
 10
-7.816173010159178
 20
-0.383161997289369
 30
0.0
 10
-7.811763357021091
 20
-0.384190284251954
 30
0.0
 10
-7.807063625504743
 20
-0.3848726675612925
 30
0.0
 10
-7.803820532016159
 20
-0.3849471516166717
 30
0.0
 10
-7.802153764407156
 20
-0.3849854322309463
 30
0.0
  0
SPLINE
  5
75
330
1F
100
AcDbEntity
  8
0
  6
Continuous
 62
     7
370
    25
100
AcDbSpline
210
0.0
220
0.0
230
1.0
 70
     8
 71
     3
 72
    23
 73
    19
 74
     0
 42
0.000000001
 43
0.00000001
 40
0.0
 40
0.0
 40
0.0
 40
0.0
 40
0.0600915961993676
 40
0.1180425330726208
 40
0.1740451709400319
 40
0.229330320114436
 40
0.2841496908292687
 40
0.3386186036369552
 40
0.393633019629272
 40
0.4499131718805275
 40
0.5081323368848819
 40
0.5681590801869908
 40
0.6313187239558629
 40
0.6978203073435132
 40
0.7674862689254859
 40
0.840935249551574
 40
0.9181847264969215
 40
1.0
 40
1.0
 40
1.0
 40
1.0
 10
-7.802559411731131
 20
-0.27514861835442
 30
0.0
 10
-7.804112386151338
 20
-0.2751830569078725
 30
0.0
 10
-7.807163012960284
 20
-0.275250707200792
 30
0.0
 10
-7.811606431242885
 20
-0.2760053683575516
 30
0.0
 10
-7.81583238281028
 20
-0.2771464026586434
 30
0.0
 10
-7.819807205198875
 20
-0.2787851365946094
 30
0.0
 10
-7.823540615564323
 20
-0.28083630484616
 30
0.0
 10
-7.82696009456663
 20
-0.2833658110763818
 30
0.0
 10
-7.830101125317868
 20
-0.2862858685535047
 30
0.0
 10
-7.832948403398895
 20
-0.2896207491340744
 30
0.0
 10
-7.835515926264753
 20
-0.2933350149128003
 30
0.0
 10
-7.837725903474956
 20
-0.2974728470489766
 30
0.0
 10
-7.839677293316973
 20
-0.3019723059862808
 30
0.0
 10
-7.841235554343066
 20
-0.306883810816727
 30
0.0
 10
-7.842535402539168
 20
-0.3121422659914848
 30
0.0
 10
-7.843419223642305
 20
-0.3177688540698635
 30
0.0
 10
-7.843952899831813
 20
-0.3237534849640413
 30
0.0
 10
-7.84402379055315
 20
-0.3278608057074405
 30
0.0
 10
-7.844060253337887
 20
-0.3299734143717657
 30
0.0
  0
SPLINE
  5
76
330
1F
100
AcDbEntity
  8
0
  6
Continuous
 62
     7
370
    25
100
AcDbSpline
210
0.0
220
0.0
230
1.0
 70
     8
 71
     3
 72
    15
 73
    11
 74
     0
 42
0.000000001
 43
0.00000001
 40
0.0
 40
0.0
 40
0.0
 40
0.0
 40
0.1229465867926254
 40
0.2436389528488822
 40
0.3645582777771513
 40
0.4849663436540115
 40
0.6073541429308681
 40
0.7338185168609895
 40
0.86480570820192
 40
0.9999999999999999
 40
0.9999999999999999
 40
0.9999999999999999
 40
0.9999999999999999
 10
-7.770170033093679
 20
-0.2831367502727128
 30
0.0
 10
-7.771400355349042
 20
-0.2825074013326687
 30
0.0
 10
-7.773838441950573
 20
-0.2812602425401475
 30
0.0
 10
-7.777617401295451
 20
-0.2796704717296313
 30
0.0
 10
-7.78144603277502
 20
-0.2782892554977869
 30
0.0
 10
-7.785378506269755
 20
-0.2771662166381716
 30
0.0
 10
-7.789427233627085
 20
-0.27624700217446
 30
0.0
 10
-7.793648366077591
 20
-0.2755917548227076
 30
0.0
 10
-7.798048872193144
 20
-0.2752198257745567
 30
0.0
 10
-7.801040139177722
 20
-0.2751726029527373
 30
0.0
 10
-7.802559411731131
 20
-0.27514861835442
 30
0.0
  0
SPLINE
  5
78
330
1F
100
AcDbEntity
  8
0
  6
Continuous
 62
     7
370
    25
100
AcDbSpline
210
0.0
220
0.0
230
1.0
 70
     8
 71
     3
 72
    13
 73
     9
 74
     0
 42
0.000000001
 43
0.00000001
 40
0.0
 40
0.0
 40
0.0
 40
0.0
 40
0.1371043592389841
 40
0.2698395429534732
 40
0.3974480177724828
 40
0.5213207983111571
 40
0.7614259910143962
 40
1.0
 40
1.0
 40
1.0
 40
1.0
 10
-7.803339502738778
 20
-0.2591723545178343
 30
0.0
 10
-7.801789172942044
 20
-0.2591887587692121
 30
0.0
 10
-7.79873791851002
 20
-0.259221044509205
 30
0.0
 10
-7.794253107183478
 20
-0.2595219060656351
 30
0.0
 10
-7.789926564934869
 20
-0.2599320414727278
 30
0.0
 10
-7.784438299838672
 20
-0.2608183128824323
 30
0.0
 10
-7.777778137160705
 20
-0.2623357965333978
 30
0.0
 10
-7.772700653885662
 20
-0.2642229132984152
 30
0.0
 10
-7.770170033093679
 20
-0.265163453456554
 30
0.0
  0
SPLINE
  5
79
330
1F
100
AcDbEntity
  8
0
  6
Continuous
 62
     7
370
    25
100
AcDbSpline
210
0.0
220
0.0
230
1.0
 70
     8
 71
     3
 72
    23
 73
    19
 74
     0
 42
0.000000001
 43
0.00000001
 40
0.0
 40
0.0
 40
0.0
 40
0.0
 40
0.0762250991228331
 40
0.149256864036005
 40
0.2189663710999969
 40
0.2863457126534337
 40
0.3508545246023346
 40
0.4127187411457879
 40
0.4725147389446573
 40
0.5304698563071076
 40
0.5872616011426978
 40
0.6437988226589446
 40
0.7001954145030616
 40
0.7573330240697215
 40
0.8153924778212762
 40
0.8747323437465174
 40
0.9360592760503507
 40
1.0
 40
1.0
 40
1.0
 40
1.0
 10
-7.864030583133619
 20
-0.3315960036676688
 30
0.0
 10
-7.863972810949686
 20
-0.3288899843226742
 30
0.0
 10
-7.86385968685931
 20
-0.3235913101838082
 30
0.0
 10
-7.863088959620282
 20
-0.3158466746893613
 30
0.0
 10
-7.861744260109114
 20
-0.3085014196671431
 30
0.0
 10
-7.859877159660857
 20
-0.3015845659411386
 30
0.0
 10
-7.857548623216911
 20
-0.2951035867790737
 30
0.0
 10
-7.854737788103958
 20
-0.2891104137707035
 30
0.0
 10
-7.851457914876294
 20
-0.2836297591003432
 30
0.0
 10
-7.847732659567558
 20
-0.278662681675415
 30
0.0
 10
-7.84354819741903
 20
-0.2742345752125668
 30
0.0
 10
-7.838956944249797
 20
-0.2703126759313298
 30
0.0
 10
-7.833919550598546
 20
-0.2669610617856126
 30
0.0
 10
-7.828508558787163
 20
-0.2641381334291458
 30
0.0
 10
-7.822709194318501
 20
-0.261914974817218
 30
0.0
 10
-7.816554169376015
 20
-0.2603343932612071
 30
0.0
 10
-7.810060269463365
 20
-0.2593327625316529
 30
0.0
 10
-7.805610705998409
 20
-0.2592265625001651
 30
0.0
 10
-7.803339502738778
 20
-0.2591723545178343
 30
0.0
  0
SPLINE
  5
7A
330
1F
100
AcDbEntity
  8
0
  6
Continuous
 62
     7
370
    25
100
AcDbSpline
210
0.0
220
0.0
230
1.0
 70
     8
 71
     3
 72
    23
 73
    19
 74
     0
 42
0.000000001
 43
0.00000001
 40
0.0
 40
0.0
 40
0.0
 40
0.0
 40
0.0670325867641338
 40
0.1306011657320694
 40
0.1909577785984688
 40
0.2489204977689596
 40
0.3049729679952984
 40
0.3601549466983126
 40
0.4150721920000875
 40
0.4702566010027563
 40
0.5267191004345043
 40
0.5848204792238246
 40
0.6448830734803275
 40
0.7081442972450573
 40
0.7747184915464314
 40
0.8453573561242305
 40
0.9201281364417356
 40
1.0
 40
1.0
 40
1.0
 40
1.0
 10
-7.80436922286887
 20
-0.400961696067532
 30
0.0
 10
-7.806701361242602
 20
-0.4009074617295492
 30
0.0
 10
-7.811245121299628
 20
-0.4008017956929961
 30
0.0
 10
-7.817851015174853
 20
-0.3999916471837035
 30
0.0
 10
-7.824035373493946
 20
-0.3986150352119542
 30
0.0
 10
-7.829812143847771
 20
-0.3967272141731292
 30
0.0
 10
-7.835164636254533
 20
-0.3942445869726469
 30
0.0
 10
-7.840090420375454
 20
-0.3911965503235926
 30
0.0
 10
-7.84461227067809
 20
-0.3876245068563758
 30
0.0
 10
-7.848703041215235
 20
-0.383500932047238
 30
0.0
 10
-7.852331393938829
 20
-0.3788248159836795
 30
0.0
 10
-7.855486939204519
 20
-0.3736199051120457
 30
0.0
 10
-7.858158683371607
 20
-0.367888132637719
 30
0.0
 10
-7.860284618096418
 20
-0.3616228917983878
 30
0.0
 10
-7.861968334079526
 20
-0.3548482011820228
 30
0.0
 10
-7.863172058763486
 20
-0.3475662405409012
 30
0.0
 10
-7.863891132540955
 20
-0.3397546409028609
 30
0.0
 10
-7.863983088508096
 20
-0.3343747040866779
 30
0.0
 10
-7.864030583133619
 20
-0.3315960036676688
 30
0.0
  0
SPLINE
  5
7B
330
1F
100
AcDbEntity
  8
0
  6
Continuous
 62
     7
370
    25
100
AcDbSpline
210
0.0
220
0.0
230
1.0
 70
     8
 71
     3
 72
    11
 73
     7
 74
     0
 42
0.000000001
 43
0.00000001
 40
0.0
 40
0.0
 40
0.0
 40
0.0
 40
0.2486221215478425
 40
0.4968578887023173
 40
0.7466739116678761
 40
1.0
 40
1.0
 40
1.0
 40
1.0
 10
-7.770170033093679
 20
-0.3949705971288123
 30
0.0
 10
-7.772911225768866
 20
-0.3958973838124627
 30
0.0
 10
-7.778389351354152
 20
-0.3977495169695974
 30
0.0
 10
-7.786894235973721
 20
-0.3995770704099546
 30
0.0
 10
-7.795567771953293
 20
-0.4007524707853362
 30
0.0
 10
-7.801421792781021
 20
-0.4008916307001513
 30
0.0
 10
-7.80436922286887
 20
-0.400961696067532
 30
0.0
  0
SPLINE
  5
7D
330
1F
100
AcDbEntity
  8
0
  6
Continuous
 62
     7
370
    25
100
AcDbSpline
210
0.0
220
0.0
230
1.0
 70
     8
 71
     3
 72
    13
 73
     9
 74
     0
 42
0.000000001
 43
0.00000001
 40
0.0
 40
0.0
 40
0.0
 40
0.0
 40
0.2629292473005725
 40
0.5152299907304633
 40
0.6381806707120407
 40
0.7590042309196198
 40
0.8797730870689299
 40
1.0
 40
1.0
 40
1.0
 40
1.0
 10
-7.565193319924673
 20
-0.2591723545178343
 30
0.0
 10
-7.562090134947804
 20
-0.2592286885058332
 30
0.0
 10
-7.556009206396567
 20
-0.2593390792684149
 30
0.0
 10
-7.548528871244639
 20
-0.2603045371410052
 30
0.0
 10
-7.542772946441993
 20
-0.2613693845737311
 30
0.0
 10
-7.53859982909744
 20
-0.2624168189043535
 30
0.0
 10
-7.534509480657748
 20
-0.263646605581783
 30
0.0
 10
-7.531851885145239
 20
-0.2646585960750787
 30
0.0
 10
-7.530526075544895
 20
-0.265163453456554
 30
0.0
  0
SPLINE
  5
7E
330
1F
100
AcDbEntity
  8
0
  6
Continuous
 62
     7
370
    25
100
AcDbSpline
210
0.0
220
0.0
230
1.0
 70
     8
 71
     3
 72
    23
 73
    19
 74
     0
 42
0.000000001
 43
0.00000001
 40
0.0
 40
0.0
 40
0.0
 40
0.0
 40
0.0742303142068715
 40
0.145234480271601
 40
0.2127033262666406
 40
0.2780441841825321
 40
0.3407882783397109
 40
0.4013981533794567
 40
0.4600902964053069
 40
0.5180807205345802
 40
0.5755022312764234
 40
0.6326611547788665
 40
0.6904112556728927
 40
0.749414955750645
 40
0.8096955818459647
 40
0.8709381798649896
 40
0.9344400676624485
 40
1.0
 40
1.0
 40
1.0
 40
1.0
 10
-7.632374757503128
 20
-0.3315960036676688
 30
0.0
 10
-7.632314322726119
 20
-0.3288372541358479
 30
0.0
 10
-7.632196079747851
 20
-0.3234396539945238
 30
0.0
 10
-7.631289975060138
 20
-0.3155754287445356
 30
0.0
 10
-7.629766219878198
 20
-0.3081462514822668
 30
0.0
 10
-7.627611158745127
 20
-0.3011949030262467
 30
0.0
 10
-7.624927348288721
 20
-0.2947061929566273
 30
0.0
 10
-7.621740765031927
 20
-0.2887272951851242
 30
0.0
 10
-7.618074890225994
 20
-0.2832378378991009
 30
0.0
 10
-7.613875153250037
 20
-0.2782991763818168
 30
0.0
 10
-7.609214660945188
 20
-0.2738751703046908
 30
0.0
 10
-7.604084423620868
 20
-0.2700228943457336
 30
0.0
 10
-7.598539038471858
 20
-0.2666779408271028
 30
0.0
 10
-7.592521000812214
 20
-0.263986874606772
 30
0.0
 10
-7.586157241272348
 20
-0.2618380307692883
 30
0.0
 10
-7.579455559892336
 20
-0.2602544043811029
 30
0.0
 10
-7.5724259358132
 20
-0.2593569864350794
 30
0.0
 10
-7.567629685861425
 20
-0.2592345492923041
 30
0.0
 10
-7.565193319924673
 20
-0.2591723545178343
 30
0.0
  0
SPLINE
  5
7F
330
1F
100
AcDbEntity
  8
0
  6
Continuous
 62
     7
370
    25
100
AcDbSpline
210
0.0
220
0.0
230
1.0
 70
     8
 71
     3
 72
    23
 73
    19
 74
     0
 42
0.000000001
 43
0.00000001
 40
0.0
 40
0.0
 40
0.0
 40
0.0
 40
0.0664816656448716
 40
0.1298821460390477
 40
0.1909362123956012
 40
0.2499612871436958
 40
0.3075910319046083
 40
0.363447713185528
 40
0.4190602458144784
 40
0.4747759939275965
 40
0.5313404747473057
 40
0.5893050617114018
 40
0.6495098271551499
 40
0.712228691053892
 40
0.7784844991333963
 40
0.8481814999024901
 40
0.9217688998297192
 40
1.0
 40
1.0
 40
1.0
 40
1.0
 10
-7.569811458689936
 20
-0.400961696067532
 30
0.0
 10
-7.572164972897595
 20
-0.4009115320727062
 30
0.0
 10
-7.576762924423918
 20
-0.4008135290031583
 30
0.0
 10
-7.583474443435875
 20
-0.3999381258453131
 30
0.0
 10
-7.589833755899195
 20
-0.3985912966879786
 30
0.0
 10
-7.595828873199419
 20
-0.396651404511717
 30
0.0
 10
-7.601413843471041
 20
-0.394159464516974
 30
0.0
 10
-7.606596540957397
 20
-0.3911426719773011
 30
0.0
 10
-7.6113270637301
 20
-0.3875664293725712
 30
0.0
 10
-7.615628878886622
 20
-0.3834497784114673
 30
0.0
 10
-7.619483927533871
 20
-0.3788041283437866
 30
0.0
 10
-7.622881558871971
 20
-0.373620503891232
 30
0.0
 10
-7.625729794649608
 20
-0.3678747925674512
 30
0.0
 10
-7.628152718550576
 20
-0.3616244292353187
 30
0.0
 10
-7.630038191647104
 20
-0.3548404665558398
 30
0.0
 10
-7.631404710800506
 20
-0.34754491636421
 30
0.0
 10
-7.632217433844801
 20
-0.3397377479277688
 30
0.0
 10
-7.632321257723692
 20
-0.3343647005488252
 30
0.0
 10
-7.632374757503128
 20
-0.3315960036676688
 30
0.0
  0
SPLINE
  5
80
330
1F
100
AcDbEntity
  8
0
  6
Continuous
 62
     7
370
    25
100
AcDbSpline
210
0.0
220
0.0
230
1.0
 70
     8
 71
     3
 72
    15
 73
    11
 74
     0
 42
0.000000001
 43
0.00000001
 40
0.0
 40
0.0
 40
0.0
 40
0.0
 40
0.1215529129440537
 40
0.2468721241304404
 40
0.3746699835809454
 40
0.5031054740837426
 40
0.631612644569927
 40
0.757525424741317
 40
0.8812582679439901
 40
1.0
 40
1.0
 40
1.0
 40
1.0
 10
-7.530526075544895
 20
-0.3925055095446517
 30
0.0
 10
-7.532026645152936
 20
-0.3931690095946993
 30
0.0
 10
-7.535074279286663
 20
-0.3945165681414144
 30
0.0
 10
-7.539842429126361
 20
-0.3962119281030224
 30
0.0
 10
-7.544783493952185
 20
-0.3976655351267204
 30
0.0
 10
-7.549831650886412
 20
-0.3988886399041655
 30
0.0
 10
-7.554917204593302
 20
-0.3998161436729614
 30
0.0
 10
-7.559980254526337
 20
-0.4004615184258001
 30
0.0
 10
-7.564936189370377
 20
-0.4008929723779656
 30
0.0
 10
-7.568208823616377
 20
-0.4009391047011758
 30
0.0
 10
-7.569811458689936
 20
-0.400961696067532
 30
0.0
  0
SPLINE
  5
86
330
1F
100
AcDbEntity
  8
0
  6
Continuous
 62
     7
370
    25
100
AcDbSpline
210
0.0
220
0.0
230
1.0
 70
     8
 71
     3
 72
    15
 73
    11
 74
     0
 42
0.000000001
 43
0.00000001
 40
0.0
 40
0.0
 40
0.0
 40
0.0
 40
0.118136757966916
 40
0.2453387807982668
 40
0.3782723929761811
 40
0.5118702985903361
 40
0.6425533320088282
 40
0.7708253199693226
 40
0.8918711344870568
 40
1.0
 40
1.0
 40
1.0
 40
1.0
 10
-7.567876832990976
 20
-0.3849854322309464
 30
0.0
 10
-7.56717970082573
 20
-0.3849704150352324
 30
0.0
 10
-7.565731941818119
 20
-0.3849392282941124
 30
0.0
 10
-7.563504738029833
 20
-0.3847757336153988
 30
0.0
 10
-7.561193099738966
 20
-0.3845346324828874
 30
0.0
 10
-7.558874528711907
 20
-0.3841855877517167
 30
0.0
 10
-7.55659169233501
 20
-0.3837889730854769
 30
0.0
 10
-7.554401694857614
 20
-0.3833010551947481
 30
0.0
 10
-7.55237205097488
 20
-0.3827199875913185
 30
0.0
 10
-7.55109767810285
 20
-0.3822663327922554
 30
0.0
 10
-7.550496405340628
 20
-0.3820522900421983
 30
0.0
  0
SPLINE
  5
87
330
1F
100
AcDbEntity
  8
0
  6
Continuous
 62
     7
370
    25
100
AcDbSpline
210
0.0
220
0.0
230
1.0
 70
     8
 71
     3
 72
    23
 73
    19
 74
     0
 42
0.000000001
 43
0.00000001
 40
0.0
 40
0.0
 40
0.0
 40
0.0
 40
0.077707532847482
 40
0.1509829028083273
 40
0.2212722041361055
 40
0.2876756950577945
 40
0.3509047016722381
 40
0.4109033209310612
 40
0.4686489001308796
 40
0.5246038787116023
 40
0.5791037570141526
 40
0.6330250054536406
 40
0.6878037272490812
 40
0.7439838240750581
 40
0.8024287518953677
 40
0.8641079447113149
 40
0.9295917945008799
 40
1.0
 40
1.0
 40
1.0
 40
1.0
 10
-7.612404427707395
 20
-0.3301606362136006
 30
0.0
 10
-7.612375894736015
 20
-0.3322521597042315
 30
0.0
 10
-7.612320456213046
 20
-0.3363159135815686
 30
0.0
 10
-7.611849607616265
 20
-0.3422569276066829
 30
0.0
 10
-7.611049690027702
 20
-0.3478548799899484
 30
0.0
 10
-7.609923942901605
 20
-0.3531198930718298
 30
0.0
 10
-7.608519757991074
 20
-0.3580326617507134
 30
0.0
 10
-7.606702887179592
 20
-0.3625623927461341
 30
0.0
 10
-7.604506138376231
 20
-0.3666966202888486
 30
0.0
 10
-7.601993539221363
 20
-0.3704754971147148
 30
0.0
 10
-7.59905674864156
 20
-0.3737993409464836
 30
0.0
 10
-7.59578623193225
 20
-0.3767484030631966
 30
0.0
 10
-7.592101515270303
 20
-0.3792417909888294
 30
0.0
 10
-7.588052766179836
 20
-0.3813635494890564
 30
0.0
 10
-7.583574608639482
 20
-0.3829686622972097
 30
0.0
 10
-7.578715958099557
 20
-0.3841648053154759
 30
0.0
 10
-7.573428936509401
 20
-0.384837323002672
 30
0.0
 10
-7.569771710118057
 20
-0.3849348840399706
 30
0.0
 10
-7.567876832990975
 20
-0.3849854322309463
 30
0.0
  0
SPLINE
  5
88
330
1F
100
AcDbEntity
  8
0
  6
Continuous
 62
     7
370
    25
100
AcDbSpline
210
0.0
220
0.0
230
1.0
 70
     8
 71
     3
 72
    23
 73
    19
 74
     0
 42
0.000000001
 43
0.00000001
 40
0.0
 40
0.0
 40
0.0
 40
0.0
 40
0.067114453152346
 40
0.1310077803067344
 40
0.1918936695800701
 40
0.2514615837594339
 40
0.3093905889314235
 40
0.3665491820258445
 40
0.4232796530147766
 40
0.4801468102801791
 40
0.5378209936256294
 40
0.5972718592278128
 40
0.6582803692241679
 40
0.7219074113835945
 40
0.7877933055446632
 40
0.855937708177939
 40
0.9264432938628239
 40
1.0
 40
1.0
 40
1.0
 40
1.0
 10
-7.56506850536345
 20
-0.27514861835442
 30
0.0
 10
-7.566902016402222
 20
-0.2751931873458137
 30
0.0
 10
-7.570481039996621
 20
-0.2752801862612298
 30
0.0
 10
-7.575674901515791
 20
-0.2760545997105134
 30
0.0
 10
-7.580573497347602
 20
-0.2772515745001782
 30
0.0
 10
-7.585129259147582
 20
-0.2790123022083189
 30
0.0
 10
-7.589366186690396
 20
-0.2812162719974231
 30
0.0
 10
-7.593298941185735
 20
-0.2837953945352823
 30
0.0
 10
-7.596830315758018
 20
-0.2868574920930894
 30
0.0
 10
-7.600033298588369
 20
-0.2902755358170822
 30
0.0
 10
-7.602892553750214
 20
-0.294081624369134
 30
0.0
 10
-7.605382989346733
 20
-0.2982697745441619
 30
0.0
 10
-7.607509848049518
 20
-0.3028323035781054
 30
0.0
 10
-7.609278829211374
 20
-0.3077306575737215
 30
0.0
 10
-7.610687857617417
 20
-0.3129480057803208
 30
0.0
 10
-7.611658759623532
 20
-0.318451958848888
 30
0.0
 10
-7.612321276370634
 20
-0.3242158257374846
 30
0.0
 10
-7.612376321988226
 20
-0.3281512497108892
 30
0.0
 10
-7.612404427707395
 20
-0.3301606362136006
 30
0.0
  0
SPLINE
  5
89
330
1F
100
AcDbEntity
  8
0
  6
Continuous
 62
     7
370
    25
100
AcDbSpline
210
0.0
220
0.0
230
1.0
 70
     8
 71
     3
 72
    13
 73
     9
 74
     0
 42
0.000000001
 43
0.00000001
 40
0.0
 40
0.0
 40
0.0
 40
0.0
 40
0.2440551001113753
 40
0.4850160308760498
 40
0.6072088180420239
 40
0.7333265041611087
 40
0.8647045976924139
 40
1.0
 40
1.0
 40
1.0
 40
1.0
 10
-7.530526075544896
 20
-0.2831367502727128
 30
0.0
 10
-7.533188204901652
 20
-0.2819593673037777
 30
0.0
 10
-7.538478712716088
 20
-0.279619528414308
 30
0.0
 10
-7.545419279938094
 20
-0.2774919726470388
 30
0.0
 10
-7.551126676642711
 20
-0.2762777834502793
 30
0.0
 10
-7.555608707636122
 20
-0.2756312604642907
 30
0.0
 10
-7.560275828396483
 20
-0.2752095482610274
 30
0.0
 10
-7.563455377677784
 20
-0.2751691262500931
 30
0.0
 10
-7.56506850536345
 20
-0.27514861835442
 30
0.0
  0
SPLINE
  5
8F
330
1F
100
AcDbEntity
  8
0
  6
Continuous
 62
     7
370
    25
100
AcDbSpline
210
0.0
220
0.0
230
1.0
 70
     8
 71
     3
 72
    13
 73
     9
 74
     0
 42
0.000000001
 43
0.00000001
 40
0.0
 40
0.0
 40
0.0
 40
0.0
 40
0.2629292473005725
 40
0.5152299907304633
 40
0.6381806707120407
 40
0.7590042309196198
 40
0.8797730870689299
 40
1.0
 40
1.0
 40
1.0
 40
1.0
 10
-7.093893536745397
 20
-0.2591723545178342
 30
0.0
 10
-7.090790351768529
 20
-0.259228688505833
 30
0.0
 10
-7.08470942321729
 20
-0.2593390792684146
 30
0.0
 10
-7.077229088065364
 20
-0.260304537141005
 30
0.0
 10
-7.071473163262716
 20
-0.2613693845737309
 30
0.0
 10
-7.067300045918162
 20
-0.2624168189043534
 30
0.0
 10
-7.063209697478474
 20
-0.2636466055817828
 30
0.0
 10
-7.060552101965961
 20
-0.2646585960750785
 30
0.0
 10
-7.059226292365619
 20
-0.2651634534565537
 30
0.0
  0
SPLINE
  5
90
330
1F
100
AcDbEntity
  8
0
  6
Continuous
 62
     7
370
    25
100
AcDbSpline
210
0.0
220
0.0
230
1.0
 70
     8
 71
     3
 72
    23
 73
    19
 74
     0
 42
0.000000001
 43
0.00000001
 40
0.0
 40
0.0
 40
0.0
 40
0.0
 40
0.0742303142068721
 40
0.1452344802716015
 40
0.2127033262666411
 40
0.2780441841825326
 40
0.3407882783397113
 40
0.4013981533794571
 40
0.4600902964053072
 40
0.5180807205345805
 40
0.5755022312764236
 40
0.6326611547788668
 40
0.6904112556728929
 40
0.7494149557506451
 40
0.8096955818459647
 40
0.8709381798649897
 40
0.9344400676624485
 40
1.0
 40
1.0
 40
1.0
 40
1.0
 10
-7.161074974323852
 20
-0.3315960036676687
 30
0.0
 10
-7.161014539546842
 20
-0.3288372541358477
 30
0.0
 10
-7.160896296568574
 20
-0.3234396539945236
 30
0.0
 10
-7.15999019188086
 20
-0.3155754287445353
 30
0.0
 10
-7.158466436698922
 20
-0.3081462514822666
 30
0.0
 10
-7.156311375565849
 20
-0.3011949030262465
 30
0.0
 10
-7.153627565109446
 20
-0.2947061929566271
 30
0.0
 10
-7.150440981852652
 20
-0.2887272951851242
 30
0.0
 10
-7.146775107046716
 20
-0.2832378378991006
 30
0.0
 10
-7.142575370070761
 20
-0.2782991763818166
 30
0.0
 10
-7.137914877765912
 20
-0.2738751703046905
 30
0.0
 10
-7.132784640441591
 20
-0.2700228943457335
 30
0.0
 10
-7.127239255292583
 20
-0.2666779408271026
 30
0.0
 10
-7.121221217632938
 20
-0.2639868746067718
 30
0.0
 10
-7.114857458093073
 20
-0.2618380307692882
 30
0.0
 10
-7.108155776713058
 20
-0.2602544043811027
 30
0.0
 10
-7.101126152633925
 20
-0.2593569864350793
 30
0.0
 10
-7.096329902682152
 20
-0.2592345492923039
 30
0.0
 10
-7.093893536745397
 20
-0.2591723545178342
 30
0.0
  0
SPLINE
  5
91
330
1F
100
AcDbEntity
  8
0
  6
Continuous
 62
     7
370
    25
100
AcDbSpline
210
0.0
220
0.0
230
1.0
 70
     8
 71
     3
 72
    23
 73
    19
 74
     0
 42
0.000000001
 43
0.00000001
 40
0.0
 40
0.0
 40
0.0
 40
0.0
 40
0.0664816656448716
 40
0.1298821460390478
 40
0.1909362123956014
 40
0.2499612871436959
 40
0.3075910319046086
 40
0.3634477131855282
 40
0.4190602458144786
 40
0.4747759939275968
 40
0.5313404747473061
 40
0.5893050617114023
 40
0.6495098271551504
 40
0.7122286910538924
 40
0.7784844991333968
 40
0.8481814999024906
 40
0.9217688998297198
 40
1.0
 40
1.0
 40
1.0
 40
1.0
 10
-7.09851167551066
 20
-0.4009616960675317
 30
0.0
 10
-7.100865189718321
 20
-0.400911532072706
 30
0.0
 10
-7.105463141244643
 20
-0.400813529003158
 30
0.0
 10
-7.1121746602566
 20
-0.399938125845313
 30
0.0
 10
-7.118533972719922
 20
-0.3985912966879786
 30
0.0
 10
-7.124529090020142
 20
-0.3966514045117167
 30
0.0
 10
-7.130114060291765
 20
-0.3941594645169737
 30
0.0
 10
-7.135296757778122
 20
-0.3911426719773011
 30
0.0
 10
-7.140027280550822
 20
-0.3875664293725707
 30
0.0
 10
-7.144329095707346
 20
-0.3834497784114672
 30
0.0
 10
-7.148184144354596
 20
-0.3788041283437865
 30
0.0
 10
-7.151581775692693
 20
-0.3736205038912319
 30
0.0
 10
-7.154430011470334
 20
-0.3678747925674511
 30
0.0
 10
-7.156852935371298
 20
-0.3616244292353185
 30
0.0
 10
-7.158738408467827
 20
-0.3548404665558396
 30
0.0
 10
-7.160104927621232
 20
-0.3475449163642099
 30
0.0
 10
-7.160917650665522
 20
-0.3397377479277685
 30
0.0
 10
-7.161021474544416
 20
-0.334364700548825
 30
0.0
 10
-7.161074974323852
 20
-0.3315960036676687
 30
0.0
  0
SPLINE
  5
92
330
1F
100
AcDbEntity
  8
0
  6
Continuous
 62
     7
370
    25
100
AcDbSpline
210
0.0
220
0.0
230
1.0
 70
     8
 71
     3
 72
    15
 73
    11
 74
     0
 42
0.000000001
 43
0.00000001
 40
0.0
 40
0.0
 40
0.0
 40
0.0
 40
0.1215529129440537
 40
0.2468721241304404
 40
0.3746699835809454
 40
0.5031054740837426
 40
0.631612644569927
 40
0.757525424741317
 40
0.8812582679439901
 40
1.0
 40
1.0
 40
1.0
 40
1.0
 10
-7.059226292365619
 20
-0.3925055095446515
 30
0.0
 10
-7.060726861973659
 20
-0.3931690095946992
 30
0.0
 10
-7.063774496107388
 20
-0.3945165681414143
 30
0.0
 10
-7.068542645947084
 20
-0.3962119281030221
 30
0.0
 10
-7.073483710772908
 20
-0.3976655351267203
 30
0.0
 10
-7.078531867707137
 20
-0.3988886399041654
 30
0.0
 10
-7.083617421414024
 20
-0.3998161436729611
 30
0.0
 10
-7.088680471347061
 20
-0.4004615184258
 30
0.0
 10
-7.093636406191101
 20
-0.4008929723779655
 30
0.0
 10
-7.096909040437101
 20
-0.4009391047011757
 30
0.0
 10
-7.09851167551066
 20
-0.4009616960675317
 30
0.0
  0
SPLINE
  5
98
330
1F
100
AcDbEntity
  8
0
  6
Continuous
 62
     7
370
    25
100
AcDbSpline
210
0.0
220
0.0
230
1.0
 70
     8
 71
     3
 72
    15
 73
    11
 74
     0
 42
0.000000001
 43
0.00000001
 40
0.0
 40
0.0
 40
0.0
 40
0.0
 40
0.118136757966916
 40
0.2453387807982668
 40
0.3782723929761811
 40
0.5118702985903361
 40
0.6425533320088282
 40
0.7708253199693226
 40
0.8918711344870568
 40
1.0
 40
1.0
 40
1.0
 40
1.0
 10
-7.0965770498117
 20
-0.3849854322309462
 30
0.0
 10
-7.095879917646454
 20
-0.3849704150352322
 30
0.0
 10
-7.094432158638843
 20
-0.384939228294112
 30
0.0
 10
-7.092204954850557
 20
-0.3847757336153986
 30
0.0
 10
-7.089893316559691
 20
-0.3845346324828872
 30
0.0
 10
-7.087574745532629
 20
-0.3841855877517166
 30
0.0
 10
-7.085291909155734
 20
-0.3837889730854767
 30
0.0
 10
-7.083101911678336
 20
-0.3833010551947479
 30
0.0
 10
-7.081072267795603
 20
-0.3827199875913184
 30
0.0
 10
-7.079797894923572
 20
-0.3822663327922551
 30
0.0
 10
-7.079196622161351
 20
-0.382052290042198
 30
0.0
  0
SPLINE
  5
99
330
1F
100
AcDbEntity
  8
0
  6
Continuous
 62
     7
370
    25
100
AcDbSpline
210
0.0
220
0.0
230
1.0
 70
     8
 71
     3
 72
    23
 73
    19
 74
     0
 42
0.000000001
 43
0.00000001
 40
0.0
 40
0.0
 40
0.0
 40
0.0
 40
0.077707532847482
 40
0.1509829028083273
 40
0.2212722041361055
 40
0.2876756950577945
 40
0.3509047016722381
 40
0.4109033209310612
 40
0.4686489001308796
 40
0.5246038787116023
 40
0.5791037570141526
 40
0.6330250054536406
 40
0.6878037272490812
 40
0.7439838240750581
 40
0.8024287518953677
 40
0.8641079447113149
 40
0.9295917945008799
 40
1.0
 40
1.0
 40
1.0
 40
1.0
 10
-7.141104644528119
 20
-0.3301606362136004
 30
0.0
 10
-7.14107611155674
 20
-0.3322521597042313
 30
0.0
 10
-7.14102067303377
 20
-0.3363159135815684
 30
0.0
 10
-7.140549824436989
 20
-0.3422569276066826
 30
0.0
 10
-7.139749906848427
 20
-0.3478548799899481
 30
0.0
 10
-7.138624159722328
 20
-0.3531198930718296
 30
0.0
 10
-7.137219974811798
 20
-0.3580326617507132
 30
0.0
 10
-7.135403104000315
 20
-0.3625623927461339
 30
0.0
 10
-7.133206355196958
 20
-0.3666966202888484
 30
0.0
 10
-7.130693756042085
 20
-0.3704754971147146
 30
0.0
 10
-7.127756965462284
 20
-0.3737993409464834
 30
0.0
 10
-7.124486448752973
 20
-0.3767484030631964
 30
0.0
 10
-7.120801732091024
 20
-0.3792417909888291
 30
0.0
 10
-7.116752983000561
 20
-0.3813635494890563
 30
0.0
 10
-7.112274825460205
 20
-0.3829686622972094
 30
0.0
 10
-7.107416174920281
 20
-0.3841648053154758
 30
0.0
 10
-7.102129153330126
 20
-0.3848373230026719
 30
0.0
 10
-7.098471926938781
 20
-0.3849348840399704
 30
0.0
 10
-7.096577049811699
 20
-0.3849854322309461
 30
0.0
  0
SPLINE
  5
9A
330
1F
100
AcDbEntity
  8
0
  6
Continuous
 62
     7
370
    25
100
AcDbSpline
210
0.0
220
0.0
230
1.0
 70
     8
 71
     3
 72
    23
 73
    19
 74
     0
 42
0.000000001
 43
0.00000001
 40
0.0
 40
0.0
 40
0.0
 40
0.0
 40
0.067114453152346
 40
0.1310077803067344
 40
0.1918936695800701
 40
0.2514615837594338
 40
0.3093905889314234
 40
0.3665491820258444
 40
0.4232796530147765
 40
0.480146810280179
 40
0.5378209936256293
 40
0.5972718592278126
 40
0.6582803692241677
 40
0.7219074113835943
 40
0.7877933055446623
 40
0.8559377081779389
 40
0.9264432938628238
 40
1.0
 40
1.0
 40
1.0
 40
1.0
 10
-7.093768722184174
 20
-0.2751486183544198
 30
0.0
 10
-7.095602233222945
 20
-0.2751931873458135
 30
0.0
 10
-7.099181256817345
 20
-0.2752801862612296
 30
0.0
 10
-7.104375118336515
 20
-0.2760545997105133
 30
0.0
 10
-7.109273714168326
 20
-0.277251574500178
 30
0.0
 10
-7.113829475968305
 20
-0.2790123022083187
 30
0.0
 10
-7.118066403511117
 20
-0.2812162719974227
 30
0.0
 10
-7.121999158006457
 20
-0.2837953945352821
 30
0.0
 10
-7.125530532578743
 20
-0.2868574920930893
 30
0.0
 10
-7.128733515409093
 20
-0.2902755358170819
 30
0.0
 10
-7.131592770570939
 20
-0.2940816243691339
 30
0.0
 10
-7.134083206167458
 20
-0.2982697745441616
 30
0.0
 10
-7.136210064870241
 20
-0.3028323035781053
 30
0.0
 10
-7.137979046032097
 20
-0.3077306575737211
 30
0.0
 10
-7.139388074438143
 20
-0.3129480057803206
 30
0.0
 10
-7.140358976444253
 20
-0.3184519588488877
 30
0.0
 10
-7.141021493191359
 20
-0.3242158257374845
 30
0.0
 10
-7.141076538808949
 20
-0.328151249710889
 30
0.0
 10
-7.141104644528119
 20
-0.3301606362136004
 30
0.0
  0
SPLINE
  5
9B
330
1F
100
AcDbEntity
  8
0
  6
Continuous
 62
     7
370
    25
100
AcDbSpline
210
0.0
220
0.0
230
1.0
 70
     8
 71
     3
 72
    13
 73
     9
 74
     0
 42
0.000000001
 43
0.00000001
 40
0.0
 40
0.0
 40
0.0
 40
0.0
 40
0.2440551001113753
 40
0.4850160308760498
 40
0.6072088180420239
 40
0.7333265041611087
 40
0.8647045976924139
 40
1.0
 40
1.0
 40
1.0
 40
1.0
 10
-7.059226292365619
 20
-0.2831367502727126
 30
0.0
 10
-7.061888421722376
 20
-0.2819593673037775
 30
0.0
 10
-7.067178929536812
 20
-0.2796195284143079
 30
0.0
 10
-7.074119496758817
 20
-0.2774919726470386
 30
0.0
 10
-7.079826893463435
 20
-0.2762777834502791
 30
0.0
 10
-7.084308924456845
 20
-0.2756312604642905
 30
0.0
 10
-7.088976045217206
 20
-0.2752095482610272
 30
0.0
 10
-7.092155594498509
 20
-0.2751691262500929
 30
0.0
 10
-7.093768722184174
 20
-0.2751486183544198
 30
0.0
  0
SPLINE
  5
9D
330
1F
100
AcDbEntity
  8
0
  6
Continuous
 62
     7
370
    25
100
AcDbSpline
210
0.0
220
0.0
230
1.0
 70
     8
 71
     3
 72
    15
 73
    11
 74
     0
 42
0.000000001
 43
0.00000001
 40
0.0
 40
0.0
 40
0.0
 40
0.0
 40
0.1113429531055642
 40
0.2209118606361866
 40
0.3310966169938085
 40
0.4444410489410363
 40
0.564413733287565
 40
0.6965059415443231
 40
0.8421215270253761
 40
1.0
 40
1.0
 40
1.0
 40
1.0
 10
-6.860271881775639
 20
-0.3344667385758053
 30
0.0
 10
-6.859354404567753
 20
-0.334803469034988
 30
0.0
 10
-6.857534068467154
 20
-0.3354715647715938
 30
0.0
 10
-6.855028314928785
 20
-0.3369563067450277
 30
0.0
 10
-6.85267751592456
 20
-0.3386981108413727
 30
0.0
 10
-6.850582096770828
 20
-0.3408740903678202
 30
0.0
 10
-6.848609400886501
 20
-0.343397110034825
 30
0.0
 10
-6.846605269527621
 20
-0.3462484141603648
 30
0.0
 10
-6.844582576612114
 20
-0.349486927073189
 30
0.0
 10
-6.843305936712192
 20
-0.3518194957127939
 30
0.0
 10
-6.842641825002844
 20
-0.353032904557775
 30
0.0
  0
SPLINE
  5
9E
330
1F
100
AcDbEntity
  8
0
  6
Continuous
 62
     7
370
    25
100
AcDbSpline
210
0.0
220
0.0
230
1.0
 70
     8
 71
     3
 72
    23
 73
    19
 74
     0
 42
0.000000001
 43
0.00000001
 40
0.0
 40
0.0
 40
0.0
 40
0.0
 40
0.0645433813264931
 40
0.1269325358742976
 40
0.1887239696179347
 40
0.2498048995363474
 40
0.3098347392086719
 40
0.3694789442278666
 40
0.4286310696729575
 40
0.4883268365820649
 40
0.5481962970213343
 40
0.6087110795028485
 40
0.6694542204655367
 40
0.7326061706097543
 40
0.7970660777822854
 40
0.8628166992229406
 40
0.9303192074984433
 40
1.0
 40
1.0
 40
1.0
 40
1.0
 10
-6.831564532694275
 20
-0.2980208866985944
 30
0.0
 10
-6.831589448635491
 20
-0.2991036430143618
 30
0.0
 10
-6.831638448913091
 20
-0.3012330171201134
 30
0.0
 10
-6.831999205584187
 20
-0.3043812111484298
 30
0.0
 10
-6.832543891469679
 20
-0.3074435558249551
 30
0.0
 10
-6.833365769757655
 20
-0.3104026605094158
 30
0.0
 10
-6.834383686341927
 20
-0.3132628706788197
 30
0.0
 10
-6.835684173104313
 20
-0.3159695700157233
 30
0.0
 10
-6.837142361286698
 20
-0.3185875374973586
 30
0.0
 10
-6.838865043460988
 20
-0.3210468394673922
 30
0.0
 10
-6.840806404283812
 20
-0.3233649014827035
 30
0.0
 10
-6.842957169942629
 20
-0.3255166482281002
 30
0.0
 10
-6.845333803764893
 20
-0.3275007242710374
 30
0.0
 10
-6.847904082720749
 20
-0.3293445379318416
 30
0.0
 10
-6.850722156138863
 20
-0.3309601862156912
 30
0.0
 10
-6.853728931507606
 20
-0.3323651068930319
 30
0.0
 10
-6.856920365938253
 20
-0.3335633610104682
 30
0.0
 10
-6.859142945980503
 20
-0.3341624418576889
 30
0.0
 10
-6.860271881775639
 20
-0.3344667385758053
 30
0.0
  0
SPLINE
  5
9F
330
1F
100
AcDbEntity
  8
0
  6
Continuous
 62
     7
370
    25
100
AcDbSpline
210
0.0
220
0.0
230
1.0
 70
     8
 71
     3
 72
    23
 73
    19
 74
     0
 42
0.000000001
 43
0.00000001
 40
0.0
 40
0.0
 40
0.0
 40
0.0
 40
0.0868777829356232
 40
0.1675023444434805
 40
0.2427487657748008
 40
0.3126619708894362
 40
0.3779965732015726
 40
0.4397361764471707
 40
0.4985078912926242
 40
0.5547504295629443
 40
0.6088581479417107
 40
0.6620125689196896
 40
0.7153098310816263
 40
0.7693135920987519
 40
0.8245399606242207
 40
0.8807040792547898
 40
0.939396999031032
 40
1.0
 40
1.0
 40
1.0
 40
1.0
 10
-6.876809811137729
 20
-0.2611693874974075
 30
0.0
 10
-6.874884365670265
 20
-0.2611943355643214
 30
0.0
 10
-6.871172062950277
 20
-0.2612424360056103
 30
0.0
 10
-6.865811829939101
 20
-0.2617494423407959
 30
0.0
 10
-6.860870822039379
 20
-0.262567456326491
 30
0.0
 10
-6.856356312517581
 20
-0.2637638677949771
 30
0.0
 10
-6.852238872524431
 20
-0.265226949475328
 30
0.0
 10
-6.848500422492874
 20
-0.2669714374659715
 30
0.0
 10
-6.845147074059948
 20
-0.2690082244034253
 30
0.0
 10
-6.842158283208112
 20
-0.2712822413429863
 30
0.0
 10
-6.839572295299908
 20
-0.2738345521874585
 30
0.0
 10
-6.837373217025841
 20
-0.276641128723545
 30
0.0
 10
-6.835511953116838
 20
-0.2796814480165302
 30
0.0
 10
-6.834054282644273
 20
-0.2829838142358001
 30
0.0
 10
-6.832930084475521
 20
-0.2864792252890905
 30
0.0
 10
-6.832168100569205
 20
-0.2901739493563349
 30
0.0
 10
-6.831640004069519
 20
-0.2940324245803566
 30
0.0
 10
-6.831589956925745
 20
-0.2966772834612149
 30
0.0
 10
-6.831564532694275
 20
-0.2980208866985944
 30
0.0
  0
SPLINE
  5
A5
330
1F
100
AcDbEntity
  8
0
  6
Continuous
 62
     7
370
    25
100
AcDbSpline
210
0.0
220
0.0
230
1.0
 70
     8
 71
     3
 72
    15
 73
    11
 74
     0
 42
0.000000001
 43
0.00000001
 40
0.0
 40
0.0
 40
0.0
 40
0.0
 40
0.1673466239671998
 40
0.3098988985919733
 40
0.4353681550644474
 40
0.5481686857745632
 40
0.6556131433488336
 40
0.7622089346680009
 40
0.8757459293316003
 40
1.0
 40
1.0
 40
1.0
 40
1.0
 10
-6.862549747517964
 20
-0.3559348431062173
 30
0.0
 10
-6.863269954936652
 20
-0.354412254182043
 30
0.0
 10
-6.864603662665665
 20
-0.3515926655974392
 30
0.0
 10
-6.866891867805695
 20
-0.3478398193668075
 30
0.0
 10
-6.869358612863468
 20
-0.3448933036913132
 30
0.0
 10
-6.87195107097418
 20
-0.3425442461767008
 30
0.0
 10
-6.874829829456592
 20
-0.3409063496784851
 30
0.0
 10
-6.877945146398115
 20
-0.3397883168097386
 30
0.0
 10
-6.881372473687938
 20
-0.3391744520867438
 30
0.0
 10
-6.88376578201398
 20
-0.3390951249028771
 30
0.0
 10
-6.885016368538164
 20
-0.3390536737007626
 30
0.0
  0
SPLINE
  5
F8
330
1F
100
AcDbEntity
  8
0
  6
Continuous
 62
     7
370
    25
100
AcDbSpline
210
0.0
220
0.0
230
1.0
 70
     8
 71
     3
 72
    23
 73
    19
 74
     0
 42
0.000000001
 43
0.00000001
 40
0.0
 40
0.0
 40
0.0
 40
0.0
 40
0.056431889250379
 40
0.1112872399091224
 40
0.1644610488604649
 40
0.2160910840122851
 40
0.2675887085198338
 40
0.3209838413756769
 40
0.3755005813617053
 40
0.431750695357861
 40
0.4905402679260209
 40
0.5521413822149678
 40
0.616572645229739
 40
0.6846573465782941
 40
0.7564689536896869
 40
0.8330610983104851
 40
0.9141230973547475
 40
0.9999999999999999
 40
0.9999999999999999
 40
0.9999999999999999
 40
0.9999999999999999
 10
-7.42268629464794
 20
-0.2992066250302159
 30
0.0
 10
-7.422710680599237
 20
-0.3004971028501212
 30
0.0
 10
-7.422758771231117
 20
-0.3030420063904583
 30
0.0
 10
-7.423126723333509
 20
-0.3067903415224996
 30
0.0
 10
-7.423799571834094
 20
-0.3103813543017582
 30
0.0
 10
-7.424659605117298
 20
-0.3138542949254189
 30
0.0
 10
-7.425849048036229
 20
-0.3172346317758971
 30
0.0
 10
-7.427277555463383
 20
-0.3205907404686296
 30
0.0
 10
-7.42897811026393
 20
-0.3239399587702528
 30
0.0
 10
-7.430919546389999
 20
-0.3272988206231985
 30
0.0
 10
-7.433157801334737
 20
-0.3306630202345021
 30
0.0
 10
-7.435611345301858
 20
-0.3341058681035414
 30
0.0
 10
-7.438387031482034
 20
-0.3375718991880789
 30
0.0
 10
-7.441411321873172
 20
-0.3411343171313277
 30
0.0
 10
-7.444753567487567
 20
-0.344787024030563
 30
0.0
 10
-7.448329824728551
 20
-0.3486267846721492
 30
0.0
 10
-7.452211147320923
 20
-0.3526206991036809
 30
0.0
 10
-7.454906215283052
 20
-0.3553241973982477
 30
0.0
 10
-7.45629261525732
 20
-0.3567149341138631
 30
0.0
  0
SPLINE
  5
F9
330
1F
100
AcDbEntity
  8
0
  6
Continuous
 62
     7
370
    25
100
AcDbSpline
210
0.0
220
0.0
230
1.0
 70
     8
 71
     3
 72
    23
 73
    19
 74
     0
 42
0.000000001
 43
0.00000001
 40
0.0
 40
0.0
 40
0.0
 40
0.0
 40
0.0688122913113789
 40
0.1347082445670197
 40
0.1985358459961524
 40
0.2610265955821039
 40
0.3213770243824697
 40
0.3807459525572616
 40
0.4389115945790181
 40
0.4969561421418339
 40
0.5548550420427201
 40
0.6130710657474021
 40
0.6727885945159002
 40
0.7339113425174956
 40
0.7968564538800387
 40
0.8618348509814141
 40
0.9292334708356359
 40
0.9999999999999999
 40
0.9999999999999999
 40
0.9999999999999999
 40
0.9999999999999999
 10
-7.463407045247051
 20
-0.2591723545178343
 30
0.0
 10
-7.461928045043589
 20
-0.259194484003912
 30
0.0
 10
-7.459032726237522
 20
-0.2592378051049229
 30
0.0
 10
-7.454799905613236
 20
-0.2598078888835121
 30
0.0
 10
-7.450746817483866
 20
-0.2606182626773395
 30
0.0
 10
-7.446924911634321
 20
-0.2618534372561371
 30
0.0
 10
-7.443304511279232
 20
-0.2633495654545254
 30
0.0
 10
-7.439927285758412
 20
-0.2651517991437971
 30
0.0
 10
-7.436813203660535
 20
-0.2672929173058669
 30
0.0
 10
-7.433974526833639
 20
-0.2697349514690867
 30
0.0
 10
-7.431381139284881
 20
-0.2724449836915361
 30
0.0
 10
-7.429180982912976
 20
-0.2755236942703231
 30
0.0
 10
-7.427185282807387
 20
-0.2788187223087849
 30
0.0
 10
-7.425587033459072
 20
-0.2824360830871603
 30
0.0
 10
-7.424242866814326
 20
-0.2862753450790682
 30
0.0
 10
-7.423376013001575
 20
-0.2903875005021167
 30
0.0
 10
-7.422782888926519
 20
-0.2947168292893219
 30
0.0
 10
-7.42271901176337
 20
-0.2976859017775084
 30
0.0
 10
-7.42268629464794
 20
-0.2992066250302159
 30
0.0
  0
SPLINE
  5
FA
330
1F
100
AcDbEntity
  8
0
  6
Continuous
 62
     7
370
    25
100
AcDbSpline
210
0.0
220
0.0
230
1.0
 70
     8
 71
     3
 72
    15
 73
    11
 74
     0
 42
0.000000001
 43
0.00000001
 40
0.0
 40
0.0
 40
0.0
 40
0.0
 40
0.1202360894095318
 40
0.2397221497017648
 40
0.3589183337224012
 40
0.4787771470022972
 40
0.6013100830884635
 40
0.7271708742997689
 40
0.8601794120457413
 40
1.0
 40
1.0
 40
1.0
 40
1.0
 10
-7.504564646810442
 20
-0.2771144476936874
 30
0.0
 10
-7.503257891865873
 20
-0.2757979111628001
 30
0.0
 10
-7.500652533474865
 20
-0.2731730506163944
 30
0.0
 10
-7.496312486914443
 20
-0.2697213003391748
 30
0.0
 10
-7.491710245201028
 20
-0.2666512845561924
 30
0.0
 10
-7.486818189367884
 20
-0.2639608415267838
 30
0.0
 10
-7.481558894594952
 20
-0.2617836577082753
 30
0.0
 10
-7.475866608884949
 20
-0.2602539967205673
 30
0.0
 10
-7.469770514048104
 20
-0.2593497472815197
 30
0.0
 10
-7.465563217709433
 20
-0.259232461576428
 30
0.0
 10
-7.463407045247051
 20
-0.2591723545178343
 30
0.0
  0
SPLINE
  5
FC
330
1F
100
AcDbEntity
  8
0
  6
Continuous
 62
     7
370
    25
100
AcDbSpline
210
0.0
220
0.0
230
1.0
 70
     8
 71
     3
 72
    15
 73
    11
 74
     0
 42
0.000000001
 43
0.00000001
 40
0.0
 40
0.0
 40
0.0
 40
0.0
 40
0.1280115940998064
 40
0.2529675784492343
 40
0.3742001908359356
 40
0.4966233809389302
 40
0.6202624621832273
 40
0.7446421892505707
 40
0.870526256793732
 40
1.0
 40
1.0
 40
1.0
 40
1.0
 10
-7.466059354673046
 20
-0.27514861835442
 30
0.0
 10
-7.467456002455409
 20
-0.2751986321499613
 30
0.0
 10
-7.470215960332157
 20
-0.2752974659222936
 30
0.0
 10
-7.474248605721331
 20
-0.2760189407730576
 30
0.0
 10
-7.478088401351325
 20
-0.2772516228634866
 30
0.0
 10
-7.481704729951988
 20
-0.2789988852297529
 30
0.0
 10
-7.48515995658092
 20
-0.281101535540854
 30
0.0
 10
-7.488475969760793
 20
-0.2834809591078039
 30
0.0
 10
-7.491657818905697
 20
-0.2861420551361672
 30
0.0
 10
-7.49361721530838
 20
-0.288123300776165
 30
0.0
 10
-7.494610685552882
 20
-0.2891278492114324
 30
0.0
  0
SPLINE
  5
FD
330
1F
100
AcDbEntity
  8
0
  6
Continuous
 62
     7
370
    25
100
AcDbSpline
210
0.0
220
0.0
230
1.0
 70
     8
 71
     3
 72
    19
 73
    15
 74
     0
 42
0.000000001
 43
0.00000001
 40
0.0
 40
0.0
 40
0.0
 40
0.0
 40
0.127593207669443
 40
0.2511720985330259
 40
0.3708400688081664
 40
0.4856160391470568
 40
0.5430963201311533
 40
0.6006536303384667
 40
0.6602318653793732
 40
0.7210768018008684
 40
0.7847679043167707
 40
0.8521107909440242
 40
0.9235580901882576
 40
1.0
 40
1.0
 40
1.0
 40
1.0
 10
-7.442656624443673
 20
-0.3006419924842842
 30
0.0
 10
-7.442723901761033
 20
-0.2989730316611238
 30
0.0
 10
-7.442856339727701
 20
-0.2956876185895392
 30
0.0
 10
-7.443860929610613
 20
-0.2909187256431255
 30
0.0
 10
-7.445554206139835
 20
-0.2865314943998869
 30
0.0
 10
-7.447590753995294
 20
-0.2832715742065544
 30
0.0
 10
-7.449575026169465
 20
-0.281003794455833
 30
0.0
 10
-7.45133000093869
 20
-0.2795333255282479
 30
0.0
 10
-7.453254386877536
 20
-0.2782182235345472
 30
0.0
 10
-7.455402320630546
 20
-0.2771163900534788
 30
0.0
 10
-7.457760852692454
 20
-0.2762484278834589
 30
0.0
 10
-7.460328303302139
 20
-0.2755823949425935
 30
0.0
 10
-7.463126079756599
 20
-0.2752168132900746
 30
0.0
 10
-7.46505982710974
 20
-0.2751718561073775
 30
0.0
 10
-7.466059354673047
 20
-0.27514861835442
 30
0.0
  0
SPLINE
  5
FE
330
1F
100
AcDbEntity
  8
0
  6
Continuous
 62
     7
370
    25
100
AcDbSpline
210
0.0
220
0.0
230
1.0
 70
     8
 71
     3
 72
    21
 73
    17
 74
     0
 42
0.000000001
 43
0.00000001
 40
0.0
 40
0.0
 40
0.0
 40
0.0
 40
0.1048369534335657
 40
0.2005293226302802
 40
0.2883104714185855
 40
0.3674290546429294
 40
0.4395337560671868
 40
0.5063882637814897
 40
0.5679938771642654
 40
0.6249383914834384
 40
0.6773954983659735
 40
0.7271351327202157
 40
0.7735160916017418
 40
0.8178156128065246
 40
0.9063177687674379
 40
1.0
 40
1.0
 40
1.0
 40
1.0
 10
-7.469866198790357
 20
-0.3469481946981379
 30
0.0
 10
-7.468510374423738
 20
-0.3455683984491122
 30
0.0
 10
-7.465916989811355
 20
-0.3429291610607397
 30
0.0
 10
-7.462246220787254
 20
-0.3390783439494136
 30
0.0
 10
-7.45897342439909
 20
-0.335504661668456
 30
0.0
 10
-7.456082917616462
 20
-0.3321736835786832
 30
0.0
 10
-7.453517622010964
 20
-0.3290718035836929
 30
0.0
 10
-7.451310709553281
 20
-0.3260998656306673
 30
0.0
 10
-7.449355210381747
 20
-0.3232910946384464
 30
0.0
 10
-7.447701955712653
 20
-0.3206029115205075
 30
0.0
 10
-7.446280668748297
 20
-0.3180279189448262
 30
0.0
 10
-7.445235425919692
 20
-0.3154917720909114
 30
0.0
 10
-7.444266804077272
 20
-0.3130843789979872
 30
0.0
 10
-7.443468664026084
 20
-0.3098700046484735
 30
0.0
 10
-7.442778420966411
 20
-0.3057366033365979
 30
0.0
 10
-7.442697985627825
 20
-0.3023720840576303
 30
0.0
 10
-7.442656624443673
 20
-0.3006419924842842
 30
0.0
  0
SPLINE
  5
106
330
1F
100
AcDbEntity
  8
0
  6
Continuous
 62
     7
370
    25
100
AcDbSpline
210
0.0
220
0.0
230
1.0
 70
     8
 71
     3
 72
    29
 73
    25
 74
     0
 42
0.000000001
 43
0.00000001
 40
0.0
 40
0.0
 40
0.0
 40
0.0
 40
0.0852100005665864
 40
0.1674239262518863
 40
0.2070497596627996
 40
0.2460963037050219
 40
0.2841048962047055
 40
0.3217279568549751
 40
0.358830407251476
 40
0.3956081922827978
 40
0.43228495186786
 40
0.468759848642444
 40
0.5053742214351429
 40
0.5427985207477511
 40
0.5806915688339935
 40
0.6198119512193883
 40
0.6602216775199132
 40
0.7020317298642264
 40
0.7457557203094632
 40
0.7914513113388468
 40
0.8395071242194994
 40
0.8900385233654935
 40
0.943584007120152
 40
0.9999999999999999
 40
0.9999999999999999
 40
0.9999999999999999
 40
0.9999999999999999
 10
-7.644356955380566
 20
-0.3285380469176974
 30
0.0
 10
-7.644423803025923
 20
-0.3317762845521739
 30
0.0
 10
-7.644555147881831
 20
-0.3381388999176909
 30
0.0
 10
-7.645547836427943
 20
-0.3459578556892031
 30
0.0
 10
-7.64670755630173
 20
-0.3519607931502282
 30
0.0
 10
-7.647828679226116
 20
-0.3562534006297217
 30
0.0
 10
-7.649187398333845
 20
-0.3603940664279649
 30
0.0
 10
-7.650716414379049
 20
-0.3643994794782056
 30
0.0
 10
-7.65259033644658
 20
-0.3682025419916972
 30
0.0
 10
-7.654627114633507
 20
-0.371879926037351
 30
0.0
 10
-7.656988937087585
 20
-0.3753299595544388
 30
0.0
 10
-7.659540404880418
 20
-0.3786316588391687
 30
0.0
 10
-7.662395625891818
 20
-0.3817204141118794
 30
0.0
 10
-7.665591394042917
 20
-0.3845327057444956
 30
0.0
 10
-7.66903486113381
 20
-0.387194082649855
 30
0.0
 10
-7.672827036533612
 20
-0.3895579697230263
 30
0.0
 10
-7.676930328946792
 20
-0.3916648909995596
 30
0.0
 10
-7.681312177187403
 20
-0.393598271460071
 30
0.0
 10
-7.686040222528293
 20
-0.3951962957985854
 30
0.0
 10
-7.69107960901203
 20
-0.3965767031075264
 30
0.0
 10
-7.696454731898505
 20
-0.3976793535052665
 30
0.0
 10
-7.702193200290152
 20
-0.3983956128776763
 30
0.0
 10
-7.708274369106535
 20
-0.3988841248453732
 30
0.0
 10
-7.712452665148242
 20
-0.3989373538318826
 30
0.0
 10
-7.714596349708992
 20
-0.3989646630879587
 30
0.0
  0
SPLINE
  5
107
330
1F
100
AcDbEntity
  8
0
  6
Continuous
 62
     7
370
    25
100
AcDbSpline
210
0.0
220
0.0
230
1.0
 70
     8
 71
     3
 72
    23
 73
    19
 74
     0
 42
0.000000001
 43
0.00000001
 40
0.0
 40
0.0
 40
0.0
 40
0.0
 40
0.0732377853762721
 40
0.1421589475342827
 40
0.2069047474970911
 40
0.2681954882631473
 40
0.3264132046564445
 40
0.3823905891336748
 40
0.4367695441631205
 40
0.4906401523452076
 40
0.544859339382017
 40
0.6001087605508159
 40
0.6577561150618663
 40
0.7182774182895166
 40
0.7822248685431529
 40
0.850307957930459
 40
0.9226812746873092
 40
1.0
 40
1.0
 40
1.0
 40
1.0
 10
-7.708574047129969
 20
-0.2611693874974076
 30
0.0
 10
-7.705961385323573
 20
-0.2612123288736102
 30
0.0
 10
-7.700890051574853
 20
-0.261295680668251
 30
0.0
 10
-7.693541195142586
 20
-0.2620794539496676
 30
0.0
 10
-7.686705458503096
 20
-0.2633876253633106
 30
0.0
 10
-7.680368934456838
 20
-0.2651715904186386
 30
0.0
 10
-7.674558922240689
 20
-0.267530142077869
 30
0.0
 10
-7.669239733058713
 20
-0.270360887898869
 30
0.0
 10
-7.664451963430489
 20
-0.2737638046592696
 30
0.0
 10
-7.660175571096493
 20
-0.2776948925016044
 30
0.0
 10
-7.656399869708781
 20
-0.2821536107143119
 30
0.0
 10
-7.653175913559602
 20
-0.2871831025454019
 30
0.0
 10
-7.650409078857892
 20
-0.2927299151088816
 30
0.0
 10
-7.648225829208222
 20
-0.2988597697257038
 30
0.0
 10
-7.646467880650177
 20
-0.3055065894624735
 30
0.0
 10
-7.645248350998747
 20
-0.3127019006951589
 30
0.0
 10
-7.644487014377156
 20
-0.3204398584109707
 30
0.0
 10
-7.644401252820497
 20
-0.3257798446530986
 30
0.0
 10
-7.644356955380566
 20
-0.3285380469176974
 30
0.0
  0
SPLINE
  5
14F
330
1F
100
AcDbEntity
  8
0
  6
Continuous
 62
     7
370
    25
100
AcDbSpline
210
0.0
220
0.0
230
1.0
 70
     8
 71
     3
 72
    23
 73
    19
 74
     0
 42
0.000000001
 43
0.00000001
 40
0.0
 40
0.0
 40
0.0
 40
0.0
 40
0.0883493599775915
 40
0.169913215348757
 40
0.2444758941720992
 40
0.3133198154993746
 40
0.3768535558138495
 40
0.4360240898309639
 40
0.491530310428376
 40
0.5442171346423968
 40
0.5958970182130742
 40
0.6469404696860886
 40
0.6991013667120661
 40
0.7525895191463942
 40
0.809012808897058
 40
0.8687229967561653
 40
0.932345630774117
 40
1.0
 40
1.0
 40
1.0
 40
1.0
 10
-7.6643272851763
 20
-0.3301294325732949
 30
0.0
 10
-7.664347332190861
 20
-0.3277773440049213
 30
0.0
 10
-7.664385886547144
 20
-0.3232538145584288
 30
0.0
 10
-7.664951596152334
 20
-0.3167678139328697
 30
0.0
 10
-7.66571486981571
 20
-0.3108255978835926
 30
0.0
 10
-7.66690158774969
 20
-0.3054397824537128
 30
0.0
 10
-7.6684214051005
 20
-0.3005666918937349
 30
0.0
 10
-7.6702891078134
 20
-0.2961969816845975
 30
0.0
 10
-7.67250625839509
 20
-0.2923209267083562
 30
0.0
 10
-7.675094903138135
 20
-0.2889270761364643
 30
0.0
 10
-7.678049189948624
 20
-0.2860143657440492
 30
0.0
 10
-7.681339024834009
 20
-0.2835133456997981
 30
0.0
 10
-7.684972537411125
 20
-0.2814387970485792
 30
0.0
 10
-7.688997233302943
 20
-0.279853102673136
 30
0.0
 10
-7.693356744539695
 20
-0.2786637671548439
 30
0.0
 10
-7.698055391720473
 20
-0.2777326990751864
 30
0.0
 10
-7.70312480898027
 20
-0.2772664950766123
 30
0.0
 10
-7.706617863110845
 20
-0.277186748960176
 30
0.0
 10
-7.708418028928437
 20
-0.2771456513339932
 30
0.0
  0
SPLINE
  5
150
330
1F
100
AcDbEntity
  8
0
  6
Continuous
 62
     7
370
    25
100
AcDbSpline
210
0.0
220
0.0
230
1.0
 70
     8
 71
     3
 72
    23
 73
    19
 74
     0
 42
0.000000001
 43
0.00000001
 40
0.0
 40
0.0
 40
0.0
 40
0.0
 40
0.0695251730037897
 40
0.1351436759497265
 40
0.1971104909394198
 40
0.2557809285263941
 40
0.3122509104454282
 40
0.3670970737078619
 40
0.421288424654711
 40
0.4756296674491481
 40
0.5306718500147061
 40
0.5875815831728287
 40
0.6469728853755867
 40
0.7093225891819565
 40
0.7752159832023814
 40
0.8455938877975195
 40
0.9204029418940469
 40
1.0
 40
1.0
 40
1.0
 40
1.0
 10
-7.710477469188623
 20
-0.3829883992513731
 30
0.0
 10
-7.708614467611183
 20
-0.3829417485183793
 30
0.0
 10
-7.704993147870466
 20
-0.3828510683910217
 30
0.0
 10
-7.699730941682414
 20
-0.3822863519155994
 30
0.0
 10
-7.694848770145958
 20
-0.3812075410934858
 30
0.0
 10
-7.690315866420491
 20
-0.3797796125632061
 30
0.0
 10
-7.686131047439979
 20
-0.3779482018477892
 30
0.0
 10
-7.682331265586773
 20
-0.3756398238314717
 30
0.0
 10
-7.678857258473009
 20
-0.3729539403269118
 30
0.0
 10
-7.675803118348573
 20
-0.3697933948497179
 30
0.0
 10
-7.673045797829742
 20
-0.3662792193519027
 30
0.0
 10
-7.670718553501948
 20
-0.3623073231479032
 30
0.0
 10
-7.668711507749348
 20
-0.3579526669347325
 30
0.0
 10
-7.667094837167666
 20
-0.3531815453578522
 30
0.0
 10
-7.665859527757508
 20
-0.3479978951399908
 30
0.0
 10
-7.664960480134791
 20
-0.342408234087954
 30
0.0
 10
-7.664435405140576
 20
-0.3364010048395775
 30
0.0
 10
-7.66436406258862
 20
-0.3322627314573954
 30
0.0
 10
-7.664327285176299
 20
-0.3301294325732948
 30
0.0
  0
SPLINE
  5
154
330
1F
100
AcDbEntity
  8
0
  6
Continuous
 62
     7
370
    25
100
AcDbSpline
210
0.0
220
0.0
230
1.0
 70
     8
 71
     3
 72
    23
 73
    19
 74
     0
 42
0.000000001
 43
0.00000001
 40
0.0
 40
0.0
 40
0.0
 40
0.0
 40
0.0709815902719299
 40
0.1375300704237756
 40
0.2002360684830975
 40
0.2603158501036444
 40
0.3176086422797201
 40
0.3732709724312838
 40
0.4289213565949178
 40
0.4842842637561235
 40
0.5402206474949653
 40
0.5979757654415859
 40
0.6574325960028953
 40
0.7195794448742301
 40
0.784248087793317
 40
0.8520780338707594
 40
0.9241287541788398
 40
1.0
 40
1.0
 40
1.0
 40
1.0
 10
-6.851534862490007
 20
-0.2993626432317451
 30
0.0
 10
-6.851549490188002
 20
-0.2984568488652521
 30
0.0
 10
-6.85157783202041
 20
-0.2967018309439012
 30
0.0
 10
-6.851890895233561
 20
-0.2941611970845424
 30
0.0
 10
-6.852427879061993
 20
-0.2918030319406369
 30
0.0
 10
-6.853139050803437
 20
-0.2896154593884708
 30
0.0
 10
-6.854039580690086
 20
-0.2875939148454115
 30
0.0
 10
-6.85518101966588
 20
-0.2857633923091859
 30
0.0
 10
-6.856523719167608
 20
-0.2841082995408927
 30
0.0
 10
-6.858063800619008
 20
-0.2826289529253468
 30
0.0
 10
-6.85980203761276
 20
-0.2813437328914767
 30
0.0
 10
-6.861711282589299
 20
-0.2802273772016106
 30
0.0
 10
-6.863781849303733
 20
-0.2792453489255707
 30
0.0
 10
-6.866034072251706
 20
-0.2784729599567556
 30
0.0
 10
-6.868449978789745
 20
-0.277890786173251
 30
0.0
 10
-6.871023097756249
 20
-0.2774442539857767
 30
0.0
 10
-6.873768150534056
 20
-0.2772056256678753
 30
0.0
 10
-6.875654866356073
 20
-0.2771659840661135
 30
0.0
 10
-6.876622589295895
 20
-0.2771456513339932
 30
0.0
  0
SPLINE
  5
158
330
1F
100
AcDbEntity
  8
0
  6
Continuous
 62
     7
370
    25
100
AcDbSpline
210
0.0
220
0.0
230
1.0
 70
     8
 71
     3
 72
    23
 73
    19
 74
     0
 42
0.000000001
 43
0.00000001
 40
0.0
 40
0.0
 40
0.0
 40
0.0
 40
0.0751448535959774
 40
0.1467879128105039
 40
0.2146472686044739
 40
0.2803386651009966
 40
0.3432139378788697
 40
0.4036240119042466
 40
0.4624408907894047
 40
0.5198011161601931
 40
0.5761540110449331
 40
0.6322047709161845
 40
0.6885985086364238
 40
0.7466222260879438
 40
0.806385672176708
 40
0.868031331085347
 40
0.9324083685435565
 40
1.0
 40
1.0
 40
1.0
 40
1.0
 10
-6.879025269599444
 20
-0.3230774098641769
 30
0.0
 10
-6.877995121455394
 20
-0.3230590022471835
 30
0.0
 10
-6.87598283067679
 20
-0.3230230448189769
 30
0.0
 10
-6.873047432089493
 20
-0.3227562674078346
 30
0.0
 10
-6.870281907339885
 20
-0.3222302067934931
 30
0.0
 10
-6.867659379414189
 20
-0.3216073301905372
 30
0.0
 10
-6.865216032382447
 20
-0.3207267448509654
 30
0.0
 10
-6.86296320993033
 20
-0.3196480367883592
 30
0.0
 10
-6.860847237669832
 20
-0.318458959554748
 30
0.0
 10
-6.858982485394745
 20
-0.3169942484148567
 30
0.0
 10
-6.857270458732366
 20
-0.3154110319525926
 30
0.0
 10
-6.855807907418135
 20
-0.3136091730102112
 30
0.0
 10
-6.854514439425699
 20
-0.3116593329879561
 30
0.0
 10
-6.853410929881133
 20
-0.3095348053862175
 30
0.0
 10
-6.852572558298021
 20
-0.3072144200884274
 30
0.0
 10
-6.851992714368407
 20
-0.3047310402624493
 30
0.0
 10
-6.85159956114502
 20
-0.3021001495734461
 30
0.0
 10
-6.851556776105276
 20
-0.3002898442803197
 30
0.0
 10
-6.851534862490007
 20
-0.2993626432317451
 30
0.0
  0
LINE
  5
15E
330
1F
100
AcDbEntity
  8
0
  6
Continuous
 62
     7
370
    25
100
AcDbLine
 10
-7.7701700331
 20
-0.2651634535
 30
0.0
 11
-7.7701700331
 21
-0.2831367503
 31
0.0
  0
LINE
  5
15F
330
1F
100
AcDbEntity
  8
0
  6
Continuous
 62
     7
370
    25
100
AcDbLine
 10
-7.7701700331
 20
-0.3769973003
 30
0.0
 11
-7.7701700331
 21
-0.3949705971
 31
0.0
  0
LINE
  5
160
330
1F
100
AcDbEntity
  8
0
  6
Continuous
 62
     7
370
    25
100
AcDbLine
 10
-7.5305260755
 20
-0.3210803769
 30
0.0
 11
-7.5305260755
 21
-0.3925055095
 31
0.0
  0
LINE
  5
161
330
1F
100
AcDbEntity
  8
0
  6
Continuous
 62
     7
370
    25
100
AcDbLine
 10
-7.5782052379
 20
-0.3210803769
 30
0.0
 11
-7.5305260755
 21
-0.3210803769
 31
0.0
  0
LINE
  5
162
330
1F
100
AcDbEntity
  8
0
  6
Continuous
 62
     7
370
    25
100
AcDbLine
 10
-7.5782052379
 20
-0.3370566407
 30
0.0
 11
-7.5782052379
 21
-0.3210803769
 31
0.0
  0
LINE
  5
163
330
1F
100
AcDbEntity
  8
0
  6
Continuous
 62
     7
370
    25
100
AcDbLine
 10
-7.5504964053
 20
-0.3370566407
 30
0.0
 11
-7.5782052379
 21
-0.3370566407
 31
0.0
  0
LINE
  5
164
330
1F
100
AcDbEntity
  8
0
  6
Continuous
 62
     7
370
    25
100
AcDbLine
 10
-7.5504964053
 20
-0.38205229
 30
0.0
 11
-7.5504964053
 21
-0.3370566407
 31
0.0
  0
LINE
  5
165
330
1F
100
AcDbEntity
  8
0
  6
Continuous
 62
     7
370
    25
100
AcDbLine
 10
-7.5305260755
 20
-0.2651634535
 30
0.0
 11
-7.5305260755
 21
-0.2831367503
 31
0.0
  0
LINE
  5
166
330
1F
100
AcDbEntity
  8
0
  6
Continuous
 62
     7
370
    25
100
AcDbLine
 10
-7.4027159649
 20
-0.4269231248
 30
0.0
 11
-7.2848910191
 21
-0.4269231248
 31
0.0
  0
LINE
  5
167
330
1F
100
AcDbEntity
  8
0
  6
Continuous
 62
     7
370
    25
100
AcDbLine
 10
-7.4027159649
 20
-0.4428993886
 30
0.0
 11
-7.4027159649
 21
-0.4269231248
 31
0.0
  0
LINE
  5
168
330
1F
100
AcDbEntity
  8
0
  6
Continuous
 62
     7
370
    25
100
AcDbLine
 10
-7.2848910191
 20
-0.4428993886
 30
0.0
 11
-7.4027159649
 21
-0.4428993886
 31
0.0
  0
LINE
  5
169
330
1F
100
AcDbEntity
  8
0
  6
Continuous
 62
     7
370
    25
100
AcDbLine
 10
-7.2848910191
 20
-0.4269231248
 30
0.0
 11
-7.2848910191
 21
-0.4428993886
 31
0.0
  0
LINE
  5
16A
330
1F
100
AcDbEntity
  8
0
  6
Continuous
 62
     7
370
    25
100
AcDbLine
 10
-7.0592262924
 20
-0.3210803769
 30
0.0
 11
-7.0592262924
 21
-0.3925055095
 31
0.0
  0
LINE
  5
16B
330
1F
100
AcDbEntity
  8
0
  6
Continuous
 62
     7
370
    25
100
AcDbLine
 10
-7.1069054548
 20
-0.3210803769
 30
0.0
 11
-7.0592262924
 21
-0.3210803769
 31
0.0
  0
LINE
  5
16C
330
1F
100
AcDbEntity
  8
0
  6
Continuous
 62
     7
370
    25
100
AcDbLine
 10
-7.1069054548
 20
-0.3370566407
 30
0.0
 11
-7.1069054548
 21
-0.3210803769
 31
0.0
  0
LINE
  5
16D
330
1F
100
AcDbEntity
  8
0
  6
Continuous
 62
     7
370
    25
100
AcDbLine
 10
-7.0791966222
 20
-0.3370566407
 30
0.0
 11
-7.1069054548
 21
-0.3370566407
 31
0.0
  0
LINE
  5
16E
330
1F
100
AcDbEntity
  8
0
  6
Continuous
 62
     7
370
    25
100
AcDbLine
 10
-7.0791966222
 20
-0.38205229
 30
0.0
 11
-7.0791966222
 21
-0.3370566407
 31
0.0
  0
LINE
  5
16F
330
1F
100
AcDbEntity
  8
0
  6
Continuous
 62
     7
370
    25
100
AcDbLine
 10
-7.0592262924
 20
-0.2651634535
 30
0.0
 11
-7.0592262924
 21
-0.2831367503
 31
0.0
  0
LINE
  5
170
330
1F
100
AcDbEntity
  8
0
  6
Continuous
 62
     7
370
    25
100
AcDbLine
 10
-6.9134428849
 20
-0.2611693875
 30
0.0
 11
-6.8768098111
 21
-0.2611693875
 31
0.0
  0
LINE
  5
171
330
1F
100
AcDbEntity
  8
0
  6
Continuous
 62
     7
370
    25
100
AcDbLine
 10
-6.9134428849
 20
-0.3989646631
 30
0.0
 11
-6.9134428849
 21
-0.2611693875
 31
0.0
  0
LINE
  5
172
330
1F
100
AcDbEntity
  8
0
  6
Continuous
 62
     7
370
    25
100
AcDbLine
 10
-6.8934725551
 20
-0.3989646631
 30
0.0
 11
-6.9134428849
 21
-0.3989646631
 31
0.0
  0
LINE
  5
173
330
1F
100
AcDbEntity
  8
0
  6
Continuous
 62
     7
370
    25
100
AcDbLine
 10
-6.8934725551
 20
-0.3390536737
 30
0.0
 11
-6.8934725551
 21
-0.3989646631
 31
0.0
  0
LINE
  5
174
330
1F
100
AcDbEntity
  8
0
  6
Continuous
 62
     7
370
    25
100
AcDbLine
 10
-6.8850163685
 20
-0.3390536737
 30
0.0
 11
-6.8934725551
 21
-0.3390536737
 31
0.0
  0
LINE
  5
175
330
1F
100
AcDbEntity
  8
0
  6
Continuous
 62
     7
370
    25
100
AcDbLine
 10
-6.8427354359
 20
-0.3989646631
 30
0.0
 11
-6.8625497475
 21
-0.3559348431
 31
0.0
  0
LINE
  5
176
330
1F
100
AcDbEntity
  8
0
  6
Continuous
 62
     7
370
    25
100
AcDbLine
 10
-6.8215793678
 20
-0.3989646631
 30
0.0
 11
-6.8427354359
 21
-0.3989646631
 31
0.0
  0
LINE
  5
177
330
1F
100
AcDbEntity
  8
0
  6
Continuous
 62
     7
370
    25
100
AcDbLine
 10
-6.842641825
 20
-0.3530329046
 30
0.0
 11
-6.8215793678
 21
-0.3989646631
 31
0.0
  0
LINE
  5
178
330
1F
100
AcDbEntity
  8
0
  6
Continuous
 62
     7
370
    25
100
AcDbLine
 10
-7.874015748
 20
-0.25
 30
0.0
 11
-7.5245091345
 21
-0.25
 31
0.0
  0
LINE
  5
179
330
1F
100
AcDbEntity
  8
0
  6
Continuous
 62
     7
370
    25
100
AcDbLine
 10
-7.4803149606
 20
-0.2058058262
 30
0.0
 11
-7.4803149606
 21
0.0
 31
0.0
  0
LINE
  5
17A
330
1F
100
AcDbEntity
  8
0
  6
Continuous
 62
     7
370
    25
100
AcDbLine
 10
-7.4803149606
 20
0.0
 30
0.0
 11
-7.0866141732
 21
0.0
 31
0.0
  0
LINE
  5
17B
330
1F
100
AcDbEntity
  8
0
  6
Continuous
 62
     7
370
    25
100
AcDbLine
 10
-7.0866141732
 20
0.0
 30
0.0
 11
-7.0866141732
 21
-0.2058058262
 31
0.0
  0
LINE
  5
17C
330
1F
100
AcDbEntity
  8
0
  6
Continuous
 62
     7
370
    25
100
AcDbLine
 10
-7.0424199994
 20
-0.25
 30
0.0
 11
-6.7371075597
 21
-0.25
 31
0.0
  0
LINE
  5
17D
330
1F
100
AcDbEntity
  8
0
  6
Continuous
 62
     7
370
    25
100
AcDbLine
 10
-6.6929133858
 20
-0.2058058262
 30
0.0
 11
-6.6929133858
 21
0.0
 31
0.0
  0
LINE
  5
17E
330
1F
100
AcDbEntity
  8
0
  6
Continuous
 62
     7
370
    25
100
AcDbLine
 10
-6.6929133858
 20
0.0
 30
0.0
 11
-6.2992125984
 21
0.0
 31
0.0
  0
LINE
  5
17F
330
1F
100
AcDbEntity
  8
0
  6
Continuous
 62
     7
370
    25
100
AcDbLine
 10
-6.2992125984
 20
0.0
 30
0.0
 11
-6.2992125984
 21
-0.2058058262
 31
0.0
  0
LINE
  5
180
330
1F
100
AcDbEntity
  8
0
  6
Continuous
 62
     7
370
    25
100
AcDbLine
 10
-6.2550184246
 20
-0.25
 30
0.0
 11
-5.9497059848
 21
-0.25
 31
0.0
  0
LINE
  5
181
330
1F
100
AcDbEntity
  8
0
  6
Continuous
 62
     7
370
    25
100
AcDbLine
 10
-5.905511811
 20
-0.2058058262
 30
0.0
 11
-5.905511811
 21
0.0
 31
0.0
  0
LINE
  5
182
330
1F
100
AcDbEntity
  8
0
  6
Continuous
 62
     7
370
    25
100
AcDbLine
 10
-5.905511811
 20
0.0
 30
0.0
 11
-5.5118110236
 21
0.0
 31
0.0
  0
LINE
  5
183
330
1F
100
AcDbEntity
  8
0
  6
Continuous
 62
     7
370
    25
100
AcDbLine
 10
-5.5118110236
 20
0.0
 30
0.0
 11
-5.5118110236
 21
-0.2058058262
 31
0.0
  0
LINE
  5
184
330
1F
100
AcDbEntity
  8
0
  6
Continuous
 62
     7
370
    25
100
AcDbLine
 10
-5.4676168498
 20
-0.25
 30
0.0
 11
-5.16230441
 21
-0.25
 31
0.0
  0
LINE
  5
185
330
1F
100
AcDbEntity
  8
0
  6
Continuous
 62
     7
370
    25
100
AcDbLine
 10
-5.1181102362
 20
-0.2058058262
 30
0.0
 11
-5.1181102362
 21
0.0
 31
0.0
  0
LINE
  5
186
330
1F
100
AcDbEntity
  8
0
  6
Continuous
 62
     7
370
    25
100
AcDbLine
 10
-5.1181102362
 20
0.0
 30
0.0
 11
-4.7244094488
 21
0.0
 31
0.0
  0
LINE
  5
187
330
1F
100
AcDbEntity
  8
0
  6
Continuous
 62
     7
370
    25
100
AcDbLine
 10
-4.7244094488
 20
0.0
 30
0.0
 11
-4.7244094488
 21
-0.2058058262
 31
0.0
  0
LINE
  5
188
330
1F
100
AcDbEntity
  8
0
  6
Continuous
 62
     7
370
    25
100
AcDbLine
 10
-4.680215275
 20
-0.25
 30
0.0
 11
-4.3749028352
 21
-0.25
 31
0.0
  0
LINE
  5
189
330
1F
100
AcDbEntity
  8
0
  6
Continuous
 62
     7
370
    25
100
AcDbLine
 10
-4.3307086614
 20
-0.2058058262
 30
0.0
 11
-4.3307086614
 21
0.0
 31
0.0
  0
LINE
  5
18A
330
1F
100
AcDbEntity
  8
0
  6
Continuous
 62
     7
370
    25
100
AcDbLine
 10
-4.3307086614
 20
0.0
 30
0.0
 11
-3.937007874
 21
0.0
 31
0.0
  0
LINE
  5
18B
330
1F
100
AcDbEntity
  8
0
  6
Continuous
 62
     7
370
    25
100
AcDbLine
 10
-3.937007874
 20
0.0
 30
0.0
 11
-3.937007874
 21
-0.2058058262
 31
0.0
  0
LINE
  5
18C
330
1F
100
AcDbEntity
  8
0
  6
Continuous
 62
     7
370
    25
100
AcDbLine
 10
-3.8928137002
 20
-0.25
 30
0.0
 11
-3.5875012604
 21
-0.25
 31
0.0
  0
LINE
  5
18D
330
1F
100
AcDbEntity
  8
0
  6
Continuous
 62
     7
370
    25
100
AcDbLine
 10
-3.5433070866
 20
-0.2058058262
 30
0.0
 11
-3.5433070866
 21
0.0
 31
0.0
  0
LINE
  5
18E
330
1F
100
AcDbEntity
  8
0
  6
Continuous
 62
     7
370
    25
100
AcDbLine
 10
-3.5433070866
 20
0.0
 30
0.0
 11
-3.1496062992
 21
0.0
 31
0.0
  0
LINE
  5
18F
330
1F
100
AcDbEntity
  8
0
  6
Continuous
 62
     7
370
    25
100
AcDbLine
 10
-3.1496062992
 20
0.0
 30
0.0
 11
-3.1496062992
 21
-0.2058058262
 31
0.0
  0
LINE
  5
190
330
1F
100
AcDbEntity
  8
0
  6
Continuous
 62
     7
370
    25
100
AcDbLine
 10
-3.1054121254
 20
-0.25
 30
0.0
 11
-2.8000996856
 21
-0.25
 31
0.0
  0
LINE
  5
191
330
1F
100
AcDbEntity
  8
0
  6
Continuous
 62
     7
370
    25
100
AcDbLine
 10
-2.7559055118
 20
-0.2058058262
 30
0.0
 11
-2.7559055118
 21
0.0
 31
0.0
  0
LINE
  5
192
330
1F
100
AcDbEntity
  8
0
  6
Continuous
 62
     7
370
    25
100
AcDbLine
 10
-2.7559055118
 20
0.0
 30
0.0
 11
-2.3622047244
 21
0.0
 31
0.0
  0
LINE
  5
193
330
1F
100
AcDbEntity
  8
0
  6
Continuous
 62
     7
370
    25
100
AcDbLine
 10
-2.3622047244
 20
0.0
 30
0.0
 11
-2.3622047244
 21
-0.2058058262
 31
0.0
  0
LINE
  5
194
330
1F
100
AcDbEntity
  8
0
  6
Continuous
 62
     7
370
    25
100
AcDbLine
 10
-2.3180105506
 20
-0.25
 30
0.0
 11
-2.0126981108
 21
-0.25
 31
0.0
  0
LINE
  5
195
330
1F
100
AcDbEntity
  8
0
  6
Continuous
 62
     7
370
    25
100
AcDbLine
 10
-1.968503937
 20
-0.2058058262
 30
0.0
 11
-1.968503937
 21
0.0
 31
0.0
  0
LINE
  5
196
330
1F
100
AcDbEntity
  8
0
  6
Continuous
 62
     7
370
    25
100
AcDbLine
 10
-1.968503937
 20
0.0
 30
0.0
 11
-1.5748031496
 21
0.0
 31
0.0
  0
LINE
  5
197
330
1F
100
AcDbEntity
  8
0
  6
Continuous
 62
     7
370
    25
100
AcDbLine
 10
-1.5748031496
 20
0.0
 30
0.0
 11
-1.5748031496
 21
-0.2058058262
 31
0.0
  0
LINE
  5
198
330
1F
100
AcDbEntity
  8
0
  6
Continuous
 62
     7
370
    25
100
AcDbLine
 10
-1.5306089758
 20
-0.25
 30
0.0
 11
-1.225296536
 21
-0.25
 31
0.0
  0
LINE
  5
199
330
1F
100
AcDbEntity
  8
0
  6
Continuous
 62
     7
370
    25
100
AcDbLine
 10
-1.1811023622
 20
-0.2058058262
 30
0.0
 11
-1.1811023622
 21
0.0
 31
0.0
  0
LINE
  5
19A
330
1F
100
AcDbEntity
  8
0
  6
Continuous
 62
     7
370
    25
100
AcDbLine
 10
-1.1811023622
 20
0.0
 30
0.0
 11
-0.7874015748
 21
0.0
 31
0.0
  0
LINE
  5
19B
330
1F
100
AcDbEntity
  8
0
  6
Continuous
 62
     7
370
    25
100
AcDbLine
 10
-0.7874015748
 20
0.0
 30
0.0
 11
-0.7874015748
 21
-0.2058058262
 31
0.0
  0
LINE
  5
19C
330
1F
100
AcDbEntity
  8
0
  6
Continuous
 62
     7
370
    25
100
AcDbLine
 10
-0.743207401
 20
-0.25
 30
0.0
 11
-0.4378949612
 21
-0.25
 31
0.0
  0
LINE
  5
19D
330
1F
100
AcDbEntity
  8
0
  6
Continuous
 62
     7
370
    25
100
AcDbLine
 10
-0.3937007874
 20
-0.2058058262
 30
0.0
 11
-0.3937007874
 21
0.0
 31
0.0
  0
LINE
  5
19E
330
1F
100
AcDbEntity
  8
0
  6
Continuous
 62
     7
370
    25
100
AcDbLine
 10
-0.3937007874
 20
0.0
 30
0.0
 11
0.0
 21
0.0
 31
0.0
  0
LINE
  5
19F
330
1F
100
AcDbEntity
  8
0
  6
Continuous
 62
     7
370
    25
100
AcDbLine
 10
-7.874015748
 20
-0.4489646631
 30
0.0
 11
0.0
 21
-0.4489646631
 31
0.0
  0
LINE
  5
1A0
330
1F
100
AcDbEntity
  8
0
  6
Continuous
 62
     7
370
    25
100
AcDbLine
 10
-7.002435667
 20
-0.2611693875
 30
0.0
 11
-6.976755071
 21
-0.2611693875
 31
0.0
  0
LINE
  5
1A1
330
1F
100
AcDbEntity
  8
0
  6
Continuous
 62
     7
370
    25
100
AcDbLine
 10
-7.048242611
 20
-0.3989646631
 30
0.0
 11
-7.002435667
 21
-0.2611693875
 31
0.0
  0
LINE
  5
1A2
330
1F
100
AcDbEntity
  8
0
  6
Continuous
 62
     7
370
    25
100
AcDbLine
 10
-7.0287715394
 20
-0.3989646631
 30
0.0
 11
-7.048242611
 21
-0.3989646631
 31
0.0
  0
LINE
  5
1A3
330
1F
100
AcDbEntity
  8
0
  6
Continuous
 62
     7
370
    25
100
AcDbLine
 10
-7.0193168364
 20
-0.3690091684
 30
0.0
 11
-7.0287715394
 21
-0.3989646631
 31
0.0
  0
LINE
  5
1A4
330
1F
100
AcDbEntity
  8
0
  6
Continuous
 62
     7
370
    25
100
AcDbLine
 10
-6.9620893601
 20
-0.3690091684
 30
0.0
 11
-7.0193168364
 21
-0.3690091684
 31
0.0
  0
LINE
  5
1A5
330
1F
100
AcDbEntity
  8
0
  6
Continuous
 62
     7
370
    25
100
AcDbLine
 10
-6.9528530826
 20
-0.3989646631
 30
0.0
 11
-6.9620893601
 21
-0.3690091684
 31
0.0
  0
LINE
  5
1A6
330
1F
100
AcDbEntity
  8
0
  6
Continuous
 62
     7
370
    25
100
AcDbLine
 10
-6.9324146982
 20
-0.3989646631
 30
0.0
 11
-6.9528530826
 21
-0.3989646631
 31
0.0
  0
LINE
  5
1A7
330
1F
100
AcDbEntity
  8
0
  6
Continuous
 62
     7
370
    25
100
AcDbLine
 10
-6.976755071
 20
-0.2611693875
 30
0.0
 11
-6.9324146982
 21
-0.3989646631
 31
0.0
  0
LINE
  5
1A8
330
1F
100
AcDbEntity
  8
0
  6
Continuous
 62
     7
370
    25
100
AcDbLine
 10
-7.2380855586
 20
-0.2611693875
 30
0.0
 11
-7.2124049626
 21
-0.2611693875
 31
0.0
  0
LINE
  5
1A9
330
1F
100
AcDbEntity
  8
0
  6
Continuous
 62
     7
370
    25
100
AcDbLine
 10
-7.2838925026
 20
-0.3989646631
 30
0.0
 11
-7.2380855586
 21
-0.2611693875
 31
0.0
  0
LINE
  5
1AA
330
1F
100
AcDbEntity
  8
0
  6
Continuous
 62
     7
370
    25
100
AcDbLine
 10
-7.264421431
 20
-0.3989646631
 30
0.0
 11
-7.2838925026
 21
-0.3989646631
 31
0.0
  0
LINE
  5
1AB
330
1F
100
AcDbEntity
  8
0
  6
Continuous
 62
     7
370
    25
100
AcDbLine
 10
-7.254966728
 20
-0.3690091684
 30
0.0
 11
-7.264421431
 21
-0.3989646631
 31
0.0
  0
LINE
  5
1AC
330
1F
100
AcDbEntity
  8
0
  6
Continuous
 62
     7
370
    25
100
AcDbLine
 10
-7.1977392517
 20
-0.3690091684
 30
0.0
 11
-7.254966728
 21
-0.3690091684
 31
0.0
  0
LINE
  5
1AD
330
1F
100
AcDbEntity
  8
0
  6
Continuous
 62
     7
370
    25
100
AcDbLine
 10
-7.1885029742
 20
-0.3989646631
 30
0.0
 11
-7.1977392517
 21
-0.3690091684
 31
0.0
  0
LINE
  5
1AE
330
1F
100
AcDbEntity
  8
0
  6
Continuous
 62
     7
370
    25
100
AcDbLine
 10
-7.1680645898
 20
-0.3989646631
 30
0.0
 11
-7.1885029742
 21
-0.3989646631
 31
0.0
  0
LINE
  5
1AF
330
1F
100
AcDbEntity
  8
0
  6
Continuous
 62
     7
370
    25
100
AcDbLine
 10
-7.2124049626
 20
-0.2611693875
 30
0.0
 11
-7.1680645898
 21
-0.3989646631
 31
0.0
  0
LINE
  5
1B0
330
1F
100
AcDbEntity
  8
0
  6
Continuous
 62
     7
370
    25
100
AcDbLine
 10
-7.4806002511
 20
-0.3809913663
 30
0.0
 11
-7.4146981627
 21
-0.3809913663
 31
0.0
  0
LINE
  5
1B1
330
1F
100
AcDbEntity
  8
0
  6
Continuous
 62
     7
370
    25
100
AcDbLine
 10
-7.4562926153
 20
-0.3567149341
 30
0.0
 11
-7.4806002511
 21
-0.3809913663
 31
0.0
  0
LINE
  5
1B2
330
1F
100
AcDbEntity
  8
0
  6
Continuous
 62
     7
370
    25
100
AcDbLine
 10
-7.4946106856
 20
-0.2891278492
 30
0.0
 11
-7.5045646468
 21
-0.2771144477
 31
0.0
  0
LINE
  5
1B3
330
1F
100
AcDbEntity
  8
0
  6
Continuous
 62
     7
370
    25
100
AcDbLine
 10
-7.5045646468
 20
-0.3820210864
 30
0.0
 11
-7.4698661988
 21
-0.3469481947
 31
0.0
  0
LINE
  5
1B4
330
1F
100
AcDbEntity
  8
0
  6
Continuous
 62
     7
370
    25
100
AcDbLine
 10
-7.5045646468
 20
-0.3989646631
 30
0.0
 11
-7.5045646468
 21
-0.3820210864
 31
0.0
  0
LINE
  5
1B5
330
1F
100
AcDbEntity
  8
0
  6
Continuous
 62
     7
370
    25
100
AcDbLine
 10
-7.4146981627
 20
-0.3989646631
 30
0.0
 11
-7.5045646468
 21
-0.3989646631
 31
0.0
  0
LINE
  5
1B6
330
1F
100
AcDbEntity
  8
0
  6
Continuous
 62
     7
370
    25
100
AcDbLine
 10
-7.4146981627
 20
-0.3809913663
 30
0.0
 11
-7.4146981627
 21
-0.3989646631
 31
0.0
  0
LINE
  5
1B7
330
1F
100
AcDbEntity
  8
0
  6
Continuous
 62
     7
370
    25
100
AcDbLine
 10
-7.7442086044
 20
-0.2611693875
 30
0.0
 11
-7.7085740471
 21
-0.2611693875
 31
0.0
  0
LINE
  5
1B8
330
1F
100
AcDbEntity
  8
0
  6
Continuous
 62
     7
370
    25
100
AcDbLine
 10
-7.7442086044
 20
-0.3989646631
 30
0.0
 11
-7.7442086044
 21
-0.2611693875
 31
0.0
  0
LINE
  5
1B9
330
1F
100
AcDbEntity
  8
0
  6
Continuous
 62
     7
370
    25
100
AcDbLine
 10
-7.7145963497
 20
-0.3989646631
 30
0.0
 11
-7.7442086044
 21
-0.3989646631
 31
0.0
  0
LINE
  5
1BA
330
1F
100
AcDbEntity
  8
0
  6
Continuous
 62
     7
370
    25
100
AcDbLine
 10
0.0441941738
 20
-0.6864880537
 30
0.0
 11
0.21875
 21
-0.6864880537
 31
0.0
  0
LINE
  5
1BB
330
1F
100
AcDbEntity
  8
0
  6
Continuous
 62
     7
370
    25
100
AcDbLine
 10
0.25
 20
-0.7177380537
 30
0.0
 11
0.21875
 21
-0.6864880537
 31
0.0
  0
LINE
  5
1BC
330
1F
100
AcDbEntity
  8
0
  6
Continuous
 62
     7
370
    25
100
AcDbLine
 10
0.25
 20
-0.7177380537
 30
0.0
 11
0.25
 21
-0.8520884474
 31
0.0
  0
LINE
  5
1BD
330
1F
100
AcDbEntity
  8
0
  6
Continuous
 62
     7
370
    25
100
AcDbLine
 10
0.21875
 20
-0.8833384474
 30
0.0
 11
0.25
 21
-0.8520884474
 31
0.0
  0
LINE
  5
1BE
330
1F
100
AcDbEntity
  8
0
  6
Continuous
 62
     7
370
    25
100
AcDbLine
 10
0.21875
 20
-0.8833384474
 30
0.0
 11
-0.3937007874
 21
-0.8833384474
 31
0.0
  0
LINE
  5
1BF
330
1F
100
AcDbEntity
  8
0
  6
Continuous
 62
     7
370
    25
100
AcDbLine
 10
-0.3937007874
 20
-0.8833384474
 30
0.0
 11
-0.3937007874
 21
-0.7507559259
 31
0.0
  0
LINE
  5
1C0
330
1F
100
AcDbEntity
  8
0
  6
Continuous
 62
     7
370
    25
100
AcDbLine
 10
-0.4378949612
 20
-0.7065617521
 30
0.0
 11
-0.743207401
 21
-0.7065617521
 31
0.0
  0
LINE
  5
1C1
330
1F
100
AcDbEntity
  8
0
  6
Continuous
 62
     7
370
    25
100
AcDbLine
 10
-0.7874015748
 20
-0.7507559259
 30
0.0
 11
-0.7874015748
 21
-0.8833384474
 31
0.0
  0
LINE
  5
1C2
330
1F
100
AcDbEntity
  8
0
  6
Continuous
 62
     7
370
    25
100
AcDbLine
 10
-0.7874015748
 20
-0.8833384474
 30
0.0
 11
-1.1811023622
 21
-0.8833384474
 31
0.0
  0
LINE
  5
1C3
330
1F
100
AcDbEntity
  8
0
  6
Continuous
 62
     7
370
    25
100
AcDbLine
 10
-1.1811023622
 20
-0.8833384474
 30
0.0
 11
-1.1811023622
 21
-0.7507559259
 31
0.0
  0
LINE
  5
1C4
330
1F
100
AcDbEntity
  8
0
  6
Continuous
 62
     7
370
    25
100
AcDbLine
 10
-1.225296536
 20
-0.7065617521
 30
0.0
 11
-1.5306089758
 21
-0.7065617521
 31
0.0
  0
LINE
  5
1C5
330
1F
100
AcDbEntity
  8
0
  6
Continuous
 62
     7
370
    25
100
AcDbLine
 10
-1.5748031496
 20
-0.7507559259
 30
0.0
 11
-1.5748031496
 21
-0.8833384474
 31
0.0
  0
LINE
  5
1C6
330
1F
100
AcDbEntity
  8
0
  6
Continuous
 62
     7
370
    25
100
AcDbLine
 10
-1.5748031496
 20
-0.8833384474
 30
0.0
 11
-1.968503937
 21
-0.8833384474
 31
0.0
  0
LINE
  5
1C7
330
1F
100
AcDbEntity
  8
0
  6
Continuous
 62
     7
370
    25
100
AcDbLine
 10
-1.968503937
 20
-0.8833384474
 30
0.0
 11
-1.968503937
 21
-0.7507559259
 31
0.0
  0
LINE
  5
1C8
330
1F
100
AcDbEntity
  8
0
  6
Continuous
 62
     7
370
    25
100
AcDbLine
 10
-2.0126981108
 20
-0.7065617521
 30
0.0
 11
-2.3180105506
 21
-0.7065617521
 31
0.0
  0
LINE
  5
1C9
330
1F
100
AcDbEntity
  8
0
  6
Continuous
 62
     7
370
    25
100
AcDbLine
 10
-2.3622047244
 20
-0.7507559259
 30
0.0
 11
-2.3622047244
 21
-0.8833384474
 31
0.0
  0
LINE
  5
1CA
330
1F
100
AcDbEntity
  8
0
  6
Continuous
 62
     7
370
    25
100
AcDbLine
 10
-2.3622047244
 20
-0.8833384474
 30
0.0
 11
-2.7559055118
 21
-0.8833384474
 31
0.0
  0
LINE
  5
1CB
330
1F
100
AcDbEntity
  8
0
  6
Continuous
 62
     7
370
    25
100
AcDbLine
 10
-2.7559055118
 20
-0.8833384474
 30
0.0
 11
-2.7559055118
 21
-0.7507559259
 31
0.0
  0
LINE
  5
1CC
330
1F
100
AcDbEntity
  8
0
  6
Continuous
 62
     7
370
    25
100
AcDbLine
 10
-2.8000996856
 20
-0.7065617521
 30
0.0
 11
-3.1054121254
 21
-0.7065617521
 31
0.0
  0
LINE
  5
1CD
330
1F
100
AcDbEntity
  8
0
  6
Continuous
 62
     7
370
    25
100
AcDbLine
 10
-3.1496062992
 20
-0.7507559259
 30
0.0
 11
-3.1496062992
 21
-0.8833384474
 31
0.0
  0
LINE
  5
1CE
330
1F
100
AcDbEntity
  8
0
  6
Continuous
 62
     7
370
    25
100
AcDbLine
 10
-3.1496062992
 20
-0.8833384474
 30
0.0
 11
-3.5433070866
 21
-0.8833384474
 31
0.0
  0
LINE
  5
1CF
330
1F
100
AcDbEntity
  8
0
  6
Continuous
 62
     7
370
    25
100
AcDbLine
 10
-3.5433070866
 20
-0.8833384474
 30
0.0
 11
-3.5433070866
 21
-0.7507559259
 31
0.0
  0
LINE
  5
1D0
330
1F
100
AcDbEntity
  8
0
  6
Continuous
 62
     7
370
    25
100
AcDbLine
 10
-3.5875012604
 20
-0.7065617521
 30
0.0
 11
-3.8928137002
 21
-0.7065617521
 31
0.0
  0
LINE
  5
1D1
330
1F
100
AcDbEntity
  8
0
  6
Continuous
 62
     7
370
    25
100
AcDbLine
 10
-3.937007874
 20
-0.7507559259
 30
0.0
 11
-3.937007874
 21
-0.8833384474
 31
0.0
  0
LINE
  5
1D2
330
1F
100
AcDbEntity
  8
0
  6
Continuous
 62
     7
370
    25
100
AcDbLine
 10
-3.937007874
 20
-0.8833384474
 30
0.0
 11
-4.3307086614
 21
-0.8833384474
 31
0.0
  0
LINE
  5
1D3
330
1F
100
AcDbEntity
  8
0
  6
Continuous
 62
     7
370
    25
100
AcDbLine
 10
-4.3307086614
 20
-0.8833384474
 30
0.0
 11
-4.3307086614
 21
-0.7507559259
 31
0.0
  0
LINE
  5
1D4
330
1F
100
AcDbEntity
  8
0
  6
Continuous
 62
     7
370
    25
100
AcDbLine
 10
-4.3749028352
 20
-0.7065617521
 30
0.0
 11
-4.680215275
 21
-0.7065617521
 31
0.0
  0
LINE
  5
1D5
330
1F
100
AcDbEntity
  8
0
  6
Continuous
 62
     7
370
    25
100
AcDbLine
 10
-4.7244094488
 20
-0.7507559259
 30
0.0
 11
-4.7244094488
 21
-0.8833384474
 31
0.0
  0
LINE
  5
1D6
330
1F
100
AcDbEntity
  8
0
  6
Continuous
 62
     7
370
    25
100
AcDbLine
 10
-4.7244094488
 20
-0.8833384474
 30
0.0
 11
-5.1181102362
 21
-0.8833384474
 31
0.0
  0
LINE
  5
1D7
330
1F
100
AcDbEntity
  8
0
  6
Continuous
 62
     7
370
    25
100
AcDbLine
 10
-5.1181102362
 20
-0.8833384474
 30
0.0
 11
-5.1181102362
 21
-0.7507559259
 31
0.0
  0
LINE
  5
1D8
330
1F
100
AcDbEntity
  8
0
  6
Continuous
 62
     7
370
    25
100
AcDbLine
 10
-5.16230441
 20
-0.7065617521
 30
0.0
 11
-5.4676168498
 21
-0.7065617521
 31
0.0
  0
LINE
  5
1D9
330
1F
100
AcDbEntity
  8
0
  6
Continuous
 62
     7
370
    25
100
AcDbLine
 10
-5.5118110236
 20
-0.7507559259
 30
0.0
 11
-5.5118110236
 21
-0.8833384474
 31
0.0
  0
LINE
  5
1DA
330
1F
100
AcDbEntity
  8
0
  6
Continuous
 62
     7
370
    25
100
AcDbLine
 10
-5.5118110236
 20
-0.8833384474
 30
0.0
 11
-5.905511811
 21
-0.8833384474
 31
0.0
  0
LINE
  5
1DB
330
1F
100
AcDbEntity
  8
0
  6
Continuous
 62
     7
370
    25
100
AcDbLine
 10
-5.905511811
 20
-0.8833384474
 30
0.0
 11
-5.905511811
 21
-0.7507559259
 31
0.0
  0
LINE
  5
1DC
330
1F
100
AcDbEntity
  8
0
  6
Continuous
 62
     7
370
    25
100
AcDbLine
 10
-5.9497059848
 20
-0.7065617521
 30
0.0
 11
-6.2550184246
 21
-0.7065617521
 31
0.0
  0
LINE
  5
1DD
330
1F
100
AcDbEntity
  8
0
  6
Continuous
 62
     7
370
    25
100
AcDbLine
 10
-6.2992125984
 20
-0.7507559259
 30
0.0
 11
-6.2992125984
 21
-0.8833384474
 31
0.0
  0
LINE
  5
1DE
330
1F
100
AcDbEntity
  8
0
  6
Continuous
 62
     7
370
    25
100
AcDbLine
 10
-6.2992125984
 20
-0.8833384474
 30
0.0
 11
-6.6929133858
 21
-0.8833384474
 31
0.0
  0
LINE
  5
1DF
330
1F
100
AcDbEntity
  8
0
  6
Continuous
 62
     7
370
    25
100
AcDbLine
 10
-6.6929133858
 20
-0.8833384474
 30
0.0
 11
-6.6929133858
 21
-0.7507559259
 31
0.0
  0
LINE
  5
1E0
330
1F
100
AcDbEntity
  8
0
  6
Continuous
 62
     7
370
    25
100
AcDbLine
 10
-6.7371075597
 20
-0.7065617521
 30
0.0
 11
-7.0424199994
 21
-0.7065617521
 31
0.0
  0
LINE
  5
1E1
330
1F
100
AcDbEntity
  8
0
  6
Continuous
 62
     7
370
    25
100
AcDbLine
 10
-7.0866141732
 20
-0.7507559259
 30
0.0
 11
-7.0866141732
 21
-0.8833384474
 31
0.0
  0
LINE
  5
1E2
330
1F
100
AcDbEntity
  8
0
  6
Continuous
 62
     7
370
    25
100
AcDbLine
 10
-7.0866141732
 20
-0.8833384474
 30
0.0
 11
-8.092765748
 21
-0.8833384474
 31
0.0
  0
LINE
  5
1E3
330
1F
100
AcDbEntity
  8
0
  6
Continuous
 62
     7
370
    25
100
AcDbLine
 10
-8.124015748
 20
-0.8520884474
 30
0.0
 11
-8.092765748
 21
-0.8833384474
 31
0.0
  0
LINE
  5
1E4
330
1F
100
AcDbEntity
  8
0
  6
Continuous
 62
     7
370
    25
100
AcDbLine
 10
-8.124015748
 20
-0.8520884474
 30
0.0
 11
-8.124015748
 21
-0.7177380537
 31
0.0
  0
LINE
  5
1E5
330
1F
100
AcDbEntity
  8
0
  6
Continuous
 62
     7
370
    25
100
AcDbLine
 10
-8.092765748
 20
-0.6864880537
 30
0.0
 11
-8.124015748
 21
-0.7177380537
 31
0.0
  0
LINE
  5
1E6
330
1F
100
AcDbEntity
  8
0
  6
Continuous
 62
     7
370
    25
100
AcDbLine
 10
-8.092765748
 20
-0.6864880537
 30
0.0
 11
-7.9182099219
 21
-0.6864880537
 31
0.0
  0
LINE
  5
1E7
330
1F
100
AcDbEntity
  8
0
  6
Continuous
 62
     7
370
    25
100
AcDbLine
 10
-7.874015748
 20
-0.6422938799
 30
0.0
 11
-7.874015748
 21
-0.25
 31
0.0
  0
LINE
  5
1E8
330
1F
100
AcDbEntity
  8
0
  6
Continuous
 62
     7
370
    25
100
AcDbLine
 10
0.0
 20
-0.58906175
 30
0.0
 11
-7.874015748
 21
-0.58906175
 31
0.0
  0
LINE
  5
1E9
330
1F
100
AcDbEntity
  8
0
  6
Continuous
 62
     7
370
    25
100
AcDbLine
 10
0.0
 20
0.0
 30
0.0
 11
0.0
 21
-0.6422938799
 31
0.0
  0
LINE
  5
1EA
330
1F
100
AcDbEntity
  8
0
  6
Continuous
 62
     7
370
    25
100
AcDbLine
 10
-7.7242382746
 20
-0.3829883993
 30
0.0
 11
-7.7104774692
 21
-0.3829883993
 31
0.0
  0
LINE
  5
1EB
330
1F
100
AcDbEntity
  8
0
  6
Continuous
 62
     7
370
    25
100
AcDbLine
 10
-7.7242382746
 20
-0.2771456513
 30
0.0
 11
-7.7242382746
 21
-0.3829883993
 31
0.0
  0
LINE
  5
1EC
330
1F
100
AcDbEntity
  8
0
  6
Continuous
 62
     7
370
    25
100
AcDbLine
 10
-7.7084180289
 20
-0.2771456513
 30
0.0
 11
-7.7242382746
 21
-0.2771456513
 31
0.0
  0
LINE
  5
1ED
330
1F
100
AcDbEntity
  8
0
  6
Continuous
 62
     7
370
    25
100
AcDbLine
 10
-7.2259785462
 20
-0.2772392623
 30
0.0
 11
-7.2499117383
 21
-0.3530329046
 31
0.0
  0
LINE
  5
1EE
330
1F
100
AcDbEntity
  8
0
  6
Continuous
 62
     7
370
    25
100
AcDbLine
 10
-7.2026382232
 20
-0.3530329046
 30
0.0
 11
-7.2259785462
 21
-0.2772392623
 31
0.0
  0
LINE
  5
1EF
330
1F
100
AcDbEntity
  8
0
  6
Continuous
 62
     7
370
    25
100
AcDbLine
 10
-7.2499117383
 20
-0.3530329046
 30
0.0
 11
-7.2026382232
 21
-0.3530329046
 31
0.0
  0
LINE
  5
1F0
330
1F
100
AcDbEntity
  8
0
  6
Continuous
 62
     7
370
    25
100
AcDbLine
 10
-6.8766225893
 20
-0.2771456513
 30
0.0
 11
-6.8934725551
 21
-0.2771456513
 31
0.0
  0
LINE
  5
1F1
330
1F
100
AcDbEntity
  8
0
  6
Continuous
 62
     7
370
    25
100
AcDbLine
 10
-6.8934725551
 20
-0.2771456513
 30
0.0
 11
-6.8934725551
 21
-0.3230774099
 31
0.0
  0
LINE
  5
1F2
330
1F
100
AcDbEntity
  8
0
  6
Continuous
 62
     7
370
    25
100
AcDbLine
 10
-6.8934725551
 20
-0.3230774099
 30
0.0
 11
-6.8790252696
 21
-0.3230774099
 31
0.0
  0
LINE
  5
1F3
330
1F
100
AcDbEntity
  8
0
  6
Continuous
 62
     7
370
    25
100
AcDbLine
 10
-6.9669883316
 20
-0.3530329046
 30
0.0
 11
-6.9903286546
 21
-0.2772392623
 31
0.0
  0
LINE
  5
1F4
330
1F
100
AcDbEntity
  8
0
  6
Continuous
 62
     7
370
    25
100
AcDbLine
 10
-6.9903286546
 20
-0.2772392623
 30
0.0
 11
-7.0142618467
 21
-0.3530329046
 31
0.0
  0
LINE
  5
1F5
330
1F
100
AcDbEntity
  8
0
  6
Continuous
 62
     7
370
    25
100
AcDbLine
 10
-7.0142618467
 20
-0.3530329046
 30
0.0
 11
-6.9669883316
 21
-0.3530329046
 31
0.0
  0
ARC
  5
1F6
330
1F
100
AcDbEntity
  8
0
  6
Continuous
 62
     7
370
    25
100
AcDbCircle
 10
-7.5024120475
 20
-0.2279029131
 30
0.0
 40
0.0312499999999749
100
AcDbArc
 50
224.9999999999
 51
44.9999999999
  0
ARC
  5
1F7
330
1F
100
AcDbEntity
  8
0
  6
Continuous
 62
     7
370
    25
100
AcDbCircle
 10
-7.0645170863
 20
-0.2279029131
 30
0.0
 40
0.0312499999999493
100
AcDbArc
 50
135.0000000001
 51
315.0000000001
  0
ARC
  5
1F8
330
1F
100
AcDbEntity
  8
0
  6
Continuous
 62
     7
370
    25
100
AcDbCircle
 10
-6.7150104727
 20
-0.2279029131
 30
0.0
 40
0.0312499999999759
100
AcDbArc
 50
224.9999999999
 51
44.9999999999
  0
ARC
  5
1F9
330
1F
100
AcDbEntity
  8
0
  6
Continuous
 62
     7
370
    25
100
AcDbCircle
 10
-6.2771155115
 20
-0.2279029131
 30
0.0
 40
0.0312499999999545
100
AcDbArc
 50
135.0
 51
315.0
  0
ARC
  5
1FA
330
1F
100
AcDbEntity
  8
0
  6
Continuous
 62
     7
370
    25
100
AcDbCircle
 10
-5.9276088979
 20
-0.2279029131
 30
0.0
 40
0.0312499999999628
100
AcDbArc
 50
224.9999999999
 51
44.9999999999
  0
ARC
  5
1FB
330
1F
100
AcDbEntity
  8
0
  6
Continuous
 62
     7
370
    25
100
AcDbCircle
 10
-5.4897139367
 20
-0.2279029131
 30
0.0
 40
0.0312499999999556
100
AcDbArc
 50
135.0
 51
315.0
  0
ARC
  5
1FC
330
1F
100
AcDbEntity
  8
0
  6
Continuous
 62
     7
370
    25
100
AcDbCircle
 10
-5.1402073231
 20
-0.2279029131
 30
0.0
 40
0.0312499999999919
100
AcDbArc
 50
224.9999999999
 51
44.9999999999
  0
ARC
  5
1FD
330
1F
100
AcDbEntity
  8
0
  6
Continuous
 62
     7
370
    25
100
AcDbCircle
 10
-4.7023123619
 20
-0.2279029131
 30
0.0
 40
0.0312499999999802
100
AcDbArc
 50
135.0
 51
315.0
  0
ARC
  5
1FE
330
1F
100
AcDbEntity
  8
0
  6
Continuous
 62
     7
370
    25
100
AcDbCircle
 10
-4.3528057483
 20
-0.2279029131
 30
0.0
 40
0.0312499999999727
100
AcDbArc
 50
224.9999999998
 51
44.9999999999
  0
ARC
  5
1FF
330
1F
100
AcDbEntity
  8
0
  6
Continuous
 62
     7
370
    25
100
AcDbCircle
 10
-3.9149107871
 20
-0.2279029131
 30
0.0
 40
0.0312499999999677
100
AcDbArc
 50
135.0000000001
 51
315.0
  0
ARC
  5
200
330
1F
100
AcDbEntity
  8
0
  6
Continuous
 62
     7
370
    25
100
AcDbCircle
 10
-3.5654041735
 20
-0.2279029131
 30
0.0
 40
0.0312499999999842
100
AcDbArc
 50
224.9999999999
 51
44.9999999999
  0
ARC
  5
201
330
1F
100
AcDbEntity
  8
0
  6
Continuous
 62
     7
370
    25
100
AcDbCircle
 10
-3.1275092123
 20
-0.2279029131
 30
0.0
 40
0.0312499999999795
100
AcDbArc
 50
135.0
 51
315.0
  0
ARC
  5
202
330
1F
100
AcDbEntity
  8
0
  6
Continuous
 62
     7
370
    25
100
AcDbCircle
 10
-2.7780025987
 20
-0.2279029131
 30
0.0
 40
0.031249999999972
100
AcDbArc
 50
224.9999999999
 51
44.9999999999
  0
ARC
  5
203
330
1F
100
AcDbEntity
  8
0
  6
Continuous
 62
     7
370
    25
100
AcDbCircle
 10
-2.3401076375
 20
-0.2279029131
 30
0.0
 40
0.0312499999999671
100
AcDbArc
 50
135.0000000001
 51
315.0
  0
ARC
  5
204
330
1F
100
AcDbEntity
  8
0
  6
Continuous
 62
     7
370
    25
100
AcDbCircle
 10
-1.9906010239
 20
-0.2279029131
 30
0.0
 40
0.0312499999999795
100
AcDbArc
 50
225.0
 51
45.0
  0
ARC
  5
205
330
1F
100
AcDbEntity
  8
0
  6
Continuous
 62
     7
370
    25
100
AcDbCircle
 10
-1.5527060627
 20
-0.2279029131
 30
0.0
 40
0.0312499999999609
100
AcDbArc
 50
135.0000000001
 51
315.0000000001
  0
ARC
  5
206
330
1F
100
AcDbEntity
  8
0
  6
Continuous
 62
     7
370
    25
100
AcDbCircle
 10
-1.2031994491
 20
-0.2279029131
 30
0.0
 40
0.0312499999999918
100
AcDbArc
 50
224.9999999999
 51
44.9999999999
  0
ARC
  5
207
330
1F
100
AcDbEntity
  8
0
  6
Continuous
 62
     7
370
    25
100
AcDbCircle
 10
-0.7653044879
 20
-0.2279029131
 30
0.0
 40
0.0312499999999795
100
AcDbArc
 50
135.0
 51
315.0
  0
ARC
  5
208
330
1F
100
AcDbEntity
  8
0
  6
Continuous
 62
     7
370
    25
100
AcDbCircle
 10
-0.4157978743
 20
-0.2279029131
 30
0.0
 40
0.0312499999999794
100
AcDbArc
 50
225.0
 51
45.0
  0
ARC
  5
209
330
1F
100
AcDbEntity
  8
0
  6
Continuous
 62
     7
370
    25
100
AcDbCircle
 10
0.0220970869
 20
-0.6643909668
 30
0.0
 40
0.0312500000000104
100
AcDbArc
 50
135.0
 51
315.0
  0
ARC
  5
20A
330
1F
100
AcDbEntity
  8
0
  6
Continuous
 62
     7
370
    25
100
AcDbCircle
 10
-0.4157978743
 20
-0.728658839
 30
0.0
 40
0.0312499999999919
100
AcDbArc
 50
314.9999999997
 51
134.9999999997
  0
ARC
  5
20B
330
1F
100
AcDbEntity
  8
0
  6
Continuous
 62
     7
370
    25
100
AcDbCircle
 10
-0.7653044879
 20
-0.728658839
 30
0.0
 40
0.0312499999999487
100
AcDbArc
 50
45.0000000002
 51
225.0000000002
  0
ARC
  5
20C
330
1F
100
AcDbEntity
  8
0
  6
Continuous
 62
     7
370
    25
100
AcDbCircle
 10
-1.2031994491
 20
-0.728658839
 30
0.0
 40
0.0312499999999487
100
AcDbArc
 50
314.9999999999
 51
134.9999999998
  0
ARC
  5
20D
330
1F
100
AcDbEntity
  8
0
  6
Continuous
 62
     7
370
    25
100
AcDbCircle
 10
-1.5527060627
 20
-0.728658839
 30
0.0
 40
0.0312499999999485
100
AcDbArc
 50
45.0000000002
 51
225.0000000002
  0
ARC
  5
20E
330
1F
100
AcDbEntity
  8
0
  6
Continuous
 62
     7
370
    25
100
AcDbCircle
 10
-1.9906010239
 20
-0.728658839
 30
0.0
 40
0.0312499999999611
100
AcDbArc
 50
314.9999999998
 51
134.9999999999
  0
ARC
  5
20F
330
1F
100
AcDbEntity
  8
0
  6
Continuous
 62
     7
370
    25
100
AcDbCircle
 10
-2.3401076375
 20
-0.728658839
 30
0.0
 40
0.0312499999999735
100
AcDbArc
 50
45.0000000002
 51
225.0000000002
  0
ARC
  5
210
330
1F
100
AcDbEntity
  8
0
  6
Continuous
 62
     7
370
    25
100
AcDbCircle
 10
-2.7780025987
 20
-0.728658839
 30
0.0
 40
0.0312499999999612
100
AcDbArc
 50
314.9999999999
 51
134.9999999999
  0
ARC
  5
211
330
1F
100
AcDbEntity
  8
0
  6
Continuous
 62
     7
370
    25
100
AcDbCircle
 10
-3.1275092123
 20
-0.728658839
 30
0.0
 40
0.0312499999999754
100
AcDbArc
 50
45.0000000001
 51
225.0000000001
  0
ARC
  5
212
330
1F
100
AcDbEntity
  8
0
  6
Continuous
 62
     7
370
    25
100
AcDbCircle
 10
-3.5654041735
 20
-0.728658839
 30
0.0
 40
0.0312500000000108
100
AcDbArc
 50
314.9999999999
 51
134.9999999999
  0
ARC
  5
213
330
1F
100
AcDbEntity
  8
0
  6
Continuous
 62
     7
370
    25
100
AcDbCircle
 10
-3.9149107871
 20
-0.728658839
 30
0.0
 40
0.0312499999999748
100
AcDbArc
 50
45.0000000001
 51
225.0000000001
  0
ARC
  5
214
330
1F
100
AcDbEntity
  8
0
  6
Continuous
 62
     7
370
    25
100
AcDbCircle
 10
-4.3528057483
 20
-0.728658839
 30
0.0
 40
0.0312500000000104
100
AcDbArc
 50
314.9999999999
 51
134.9999999999
  0
ARC
  5
215
330
1F
100
AcDbEntity
  8
0
  6
Continuous
 62
     7
370
    25
100
AcDbCircle
 10
-4.7023123619
 20
-0.728658839
 30
0.0
 40
0.0312499999999755
100
AcDbArc
 50
45.0000000001
 51
225.0000000001
  0
ARC
  5
216
330
1F
100
AcDbEntity
  8
0
  6
Continuous
 62
     7
370
    25
100
AcDbCircle
 10
-5.1402073231
 20
-0.728658839
 30
0.0
 40
0.0312500000000101
100
AcDbArc
 50
314.9999999999
 51
134.9999999999
  0
ARC
  5
217
330
1F
100
AcDbEntity
  8
0
  6
Continuous
 62
     7
370
    25
100
AcDbCircle
 10
-5.4897139367
 20
-0.728658839
 30
0.0
 40
0.031249999999972
100
AcDbArc
 50
45.0000000001
 51
225.0000000001
  0
ARC
  5
218
330
1F
100
AcDbEntity
  8
0
  6
Continuous
 62
     7
370
    25
100
AcDbCircle
 10
-5.9276088979
 20
-0.728658839
 30
0.0
 40
0.031250000000035
100
AcDbArc
 50
314.9999999999
 51
134.9999999999
  0
ARC
  5
219
330
1F
100
AcDbEntity
  8
0
  6
Continuous
 62
     7
370
    25
100
AcDbCircle
 10
-6.2771155115
 20
-0.728658839
 30
0.0
 40
0.0312499999999628
100
AcDbArc
 50
45.0000000002
 51
225.0000000001
  0
ARC
  5
21A
330
1F
100
AcDbEntity
  8
0
  6
Continuous
 62
     7
370
    25
100
AcDbCircle
 10
-6.7150104727
 20
-0.728658839
 30
0.0
 40
0.0312499999999802
100
AcDbArc
 50
315.0000000001
 51
135.0000000001
  0
ARC
  5
21B
330
1F
100
AcDbEntity
  8
0
  6
Continuous
 62
     7
370
    25
100
AcDbCircle
 10
-7.0645170863
 20
-0.728658839
 30
0.0
 40
0.0312499999999911
100
AcDbArc
 50
45.0
 51
225.0
  0
ARC
  5
21C
330
1F
100
AcDbEntity
  8
0
  6
Continuous
 62
     7
370
    25
100
AcDbCircle
 10
-7.8961128349
 20
-0.6643909668
 30
0.0
 40
0.0312499999999927
100
AcDbArc
 50
224.9999999999
 51
44.9999999999
  0
ENDSEC
  0
SECTION
  2
OBJECTS
  0
DICTIONARY
  5
C
330
0
100
AcDbDictionary
281
     1
  3
ACAD_GROUP
350
D
  3
ACAD_LAYOUT
350
1A
  3
ACAD_MLINESTYLE
350
17
  3
ACAD_PLOTSETTINGS
350
19
  3
ACAD_PLOTSTYLENAME
350
E
  3
ACAD_SCALELIST
350
47
  0
DICTIONARY
  5
D
102
{ACAD_REACTORS
330
C
102
}
330
C
100
AcDbDictionary
281
     1
  0
DICTIONARY
  5
1A
102
{ACAD_REACTORS
330
C
102
}
330
C
100
AcDbDictionary
281
     1
  3
Layout1
350
1E
  3
Layout2
350
26
  3
Model
350
22
  0
DICTIONARY
  5
17
102
{ACAD_REACTORS
330
C
102
}
330
C
100
AcDbDictionary
281
     1
  3
Standard
350
18
  0
DICTIONARY
  5
19
102
{ACAD_REACTORS
330
C
102
}
330
C
100
AcDbDictionary
281
     1
  0
ACDBDICTIONARYWDFLT
  5
E
102
{ACAD_REACTORS
330
C
102
}
330
C
100
AcDbDictionary
281
     1
  3
Normal
350
F
100
AcDbDictionaryWithDefault
340
F
  0
DICTIONARY
  5
47
102
{ACAD_REACTORS
330
C
102
}
330
C
100
AcDbDictionary
281
     1
  3
A0
350
48
  3
A1
350
49
  3
A2
350
4A
  3
A3
350
4B
  3
A4
350
4C
  3
A5
350
4D
  3
A6
350
4E
  3
A7
350
4F
  3
A8
350
50
  3
A9
350
51
  3
B0
350
52
  3
B1
350
53
  3
B2
350
54
  3
B3
350
55
  3
B4
350
56
  3
B5
350
57
  3
B6
350
58
  3
B7
350
59
  3
B8
350
5A
  3
B9
350
5B
  3
C0
350
5C
  3
C1
350
5D
  3
C2
350
5E
  3
C3
350
5F
  3
C4
350
60
  3
C5
350
61
  3
C6
350
62
  3
C7
350
63
  3
C8
350
64
  3
C9
350
65
  3
D0
350
66
  3
D1
350
67
  3
D2
350
68
  0
LAYOUT
  5
1E
102
{ACAD_REACTORS
330
1A
102
}
330
1A
100
AcDbPlotSettings
  1

  2
none_device
  4

  6

 40
0.0
 41
0.0
 42
0.0
 43
0.0
 44
0.0
 45
0.0
 46
0.0
 47
0.0
 48
0.0
 49
0.0
140
0.0
141
0.0
142
1.0
143
1.0
 70
   688
 72
     0
 73
     0
 74
     5
  7

 75
    16
147
1.0
148
0.0
149
0.0
100
AcDbLayout
  1
Layout1
 70
     1
 71
     1
 10
0.0
 20
0.0
 11
12.0
 21
9.0
 12
0.0
 22
0.0
 32
0.0
 14
1.0000000000E+20
 24
1.0000000000E+20
 34
1.0000000000E+20
 15
-1.0000000000E+20
 25
-1.0000000000E+20
 35
-1.0000000000E+20
146
0.0
 13
0.0
 23
0.0
 33
0.0
 16
1.0
 26
0.0
 36
0.0
 17
0.0
 27
1.0
 37
0.0
 76
     0
330
1B
  0
LAYOUT
  5
26
102
{ACAD_REACTORS
330
1A
102
}
330
1A
100
AcDbPlotSettings
  1

  2
none_device
  4

  6

 40
0.0
 41
0.0
 42
0.0
 43
0.0
 44
0.0
 45
0.0
 46
0.0
 47
0.0
 48
0.0
 49
0.0
140
0.0
141
0.0
142
1.0
143
1.0
 70
   688
 72
     0
 73
     0
 74
     5
  7

 75
    16
147
1.0
148
0.0
149
0.0
100
AcDbLayout
  1
Layout2
 70
     1
 71
     2
 10
0.0
 20
0.0
 11
0.0
 21
0.0
 12
0.0
 22
0.0
 32
0.0
 14
0.0
 24
0.0
 34
0.0
 15
0.0
 25
0.0
 35
0.0
146
0.0
 13
0.0
 23
0.0
 33
0.0
 16
1.0
 26
0.0
 36
0.0
 17
0.0
 27
1.0
 37
0.0
 76
     0
330
23
  0
LAYOUT
  5
22
102
{ACAD_REACTORS
330
1A
102
}
330
1A
100
AcDbPlotSettings
  1

  2
none_device
  4
ANSI_A_(11.00_x_8.50_Inches)
  6

 40
6.35
 41
19.05
 42
6.35000508
 43
19.05000254
 44
279.4
 45
215.9
 46
263.3951314515
 47
103.4889798078
 48
0.0
 49
0.0
140
0.0
141
0.0
142
1.3004513399
143
1.0
 70
  1696
 72
     0
 73
     0
 74
     0
  7

 75
     0
147
0.5913241897
148
-39.4088153714
149
0.0
100
AcDbLayout
  1
Model
 70
     1
 71
     0
 10
0.0
 20
0.0
 11
12.0
 21
9.0
 12
0.0
 22
0.0
 32
0.0
 14
-8.124015748
 24
-0.8833384474
 34
0.0
 15
0.25
 25
0.0
 35
0.0
146
0.0
 13
0.0
 23
0.0
 33
0.0
 16
1.0
 26
0.0
 36
0.0
 17
0.0
 27
1.0
 37
0.0
 76
     0
330
1F
331
29
  0
MLINESTYLE
  5
18
102
{ACAD_REACTORS
330
17
102
}
330
17
100
AcDbMlineStyle
  2
Standard
 70
     0
  3

 62
   256
 51
90.0
 52
90.0
 71
     2
 49
0.5
 62
   256
  6
BYLAYER
 49
-0.5
 62
   256
  6
BYLAYER
  0
ACDBPLACEHOLDER
  5
F
102
{ACAD_REACTORS
330
E
102
}
330
E
  0
SCALE
  5
48
102
{ACAD_REACTORS
330
47
102
}
330
47
100
AcDbScale
 70
     0
300
1:1
140
1.0
141
1.0
290
     1
  0
SCALE
  5
49
102
{ACAD_REACTORS
330
47
102
}
330
47
100
AcDbScale
 70
     0
300
1:2
140
1.0
141
2.0
290
     0
  0
SCALE
  5
4A
102
{ACAD_REACTORS
330
47
102
}
330
47
100
AcDbScale
 70
     0
300
1:4
140
1.0
141
4.0
290
     0
  0
SCALE
  5
4B
102
{ACAD_REACTORS
330
47
102
}
330
47
100
AcDbScale
 70
     0
300
1:5
140
1.0
141
5.0
290
     0
  0
SCALE
  5
4C
102
{ACAD_REACTORS
330
47
102
}
330
47
100
AcDbScale
 70
     0
300
1:8
140
1.0
141
8.0
290
     0
  0
SCALE
  5
4D
102
{ACAD_REACTORS
330
47
102
}
330
47
100
AcDbScale
 70
     0
300
1:10
140
1.0
141
10.0
290
     0
  0
SCALE
  5
4E
102
{ACAD_REACTORS
330
47
102
}
330
47
100
AcDbScale
 70
     0
300
1:16
140
1.0
141
16.0
290
     0
  0
SCALE
  5
4F
102
{ACAD_REACTORS
330
47
102
}
330
47
100
AcDbScale
 70
     0
300
1:20
140
1.0
141
20.0
290
     0
  0
SCALE
  5
50
102
{ACAD_REACTORS
330
47
102
}
330
47
100
AcDbScale
 70
     0
300
1:30
140
1.0
141
30.0
290
     0
  0
SCALE
  5
51
102
{ACAD_REACTORS
330
47
102
}
330
47
100
AcDbScale
 70
     0
300
1:40
140
1.0
141
40.0
290
     0
  0
SCALE
  5
52
102
{ACAD_REACTORS
330
47
102
}
330
47
100
AcDbScale
 70
     0
300
1:50
140
1.0
141
50.0
290
     0
  0
SCALE
  5
53
102
{ACAD_REACTORS
330
47
102
}
330
47
100
AcDbScale
 70
     0
300
1:100
140
1.0
141
100.0
290
     0
  0
SCALE
  5
54
102
{ACAD_REACTORS
330
47
102
}
330
47
100
AcDbScale
 70
     0
300
2:1
140
2.0
141
1.0
290
     0
  0
SCALE
  5
55
102
{ACAD_REACTORS
330
47
102
}
330
47
100
AcDbScale
 70
     0
300
4:1
140
4.0
141
1.0
290
     0
  0
SCALE
  5
56
102
{ACAD_REACTORS
330
47
102
}
330
47
100
AcDbScale
 70
     0
300
8:1
140
8.0
141
1.0
290
     0
  0
SCALE
  5
57
102
{ACAD_REACTORS
330
47
102
}
330
47
100
AcDbScale
 70
     0
300
10:1
140
10.0
141
1.0
290
     0
  0
SCALE
  5
58
102
{ACAD_REACTORS
330
47
102
}
330
47
100
AcDbScale
 70
     0
300
100:1
140
100.0
141
1.0
290
     0
  0
SCALE
  5
59
102
{ACAD_REACTORS
330
47
102
}
330
47
100
AcDbScale
 70
     0
300
1/128" = 1'-0"
140
0.0078125
141
12.0
290
     0
  0
SCALE
  5
5A
102
{ACAD_REACTORS
330
47
102
}
330
47
100
AcDbScale
 70
     0
300
1/64" = 1'-0"
140
0.015625
141
12.0
290
     0
  0
SCALE
  5
5B
102
{ACAD_REACTORS
330
47
102
}
330
47
100
AcDbScale
 70
     0
300
1/32" = 1'-0"
140
0.03125
141
12.0
290
     0
  0
SCALE
  5
5C
102
{ACAD_REACTORS
330
47
102
}
330
47
100
AcDbScale
 70
     0
300
1/16" = 1'-0"
140
0.0625
141
12.0
290
     0
  0
SCALE
  5
5D
102
{ACAD_REACTORS
330
47
102
}
330
47
100
AcDbScale
 70
     0
300
3/32" = 1'-0"
140
0.09375
141
12.0
290
     0
  0
SCALE
  5
5E
102
{ACAD_REACTORS
330
47
102
}
330
47
100
AcDbScale
 70
     0
300
1/8" = 1'-0"
140
0.125
141
12.0
290
     0
  0
SCALE
  5
5F
102
{ACAD_REACTORS
330
47
102
}
330
47
100
AcDbScale
 70
     0
300
3/16" = 1'-0"
140
0.1875
141
12.0
290
     0
  0
SCALE
  5
60
102
{ACAD_REACTORS
330
47
102
}
330
47
100
AcDbScale
 70
     0
300
1/4" = 1'-0"
140
0.25
141
12.0
290
     0
  0
SCALE
  5
61
102
{ACAD_REACTORS
330
47
102
}
330
47
100
AcDbScale
 70
     0
300
3/8" = 1'-0"
140
0.375
141
12.0
290
     0
  0
SCALE
  5
62
102
{ACAD_REACTORS
330
47
102
}
330
47
100
AcDbScale
 70
     0
300
1/2" = 1'-0"
140
0.5
141
12.0
290
     0
  0
SCALE
  5
63
102
{ACAD_REACTORS
330
47
102
}
330
47
100
AcDbScale
 70
     0
300
3/4" = 1'-0"
140
0.75
141
12.0
290
     0
  0
SCALE
  5
64
102
{ACAD_REACTORS
330
47
102
}
330
47
100
AcDbScale
 70
     0
300
1" = 1'-0"
140
1.0
141
12.0
290
     0
  0
SCALE
  5
65
102
{ACAD_REACTORS
330
47
102
}
330
47
100
AcDbScale
 70
     0
300
1-1/2" = 1'-0"
140
1.5
141
12.0
290
     0
  0
SCALE
  5
66
102
{ACAD_REACTORS
330
47
102
}
330
47
100
AcDbScale
 70
     0
300
3" = 1'-0"
140
3.0
141
12.0
290
     0
  0
SCALE
  5
67
102
{ACAD_REACTORS
330
47
102
}
330
47
100
AcDbScale
 70
     0
300
6" = 1'-0"
140
6.0
141
12.0
290
     0
  0
SCALE
  5
68
102
{ACAD_REACTORS
330
47
102
}
330
47
100
AcDbScale
 70
     0
300
1'-0" = 1'-0"
140
12.0
141
12.0
290
     0
  0
ENDSEC
  0
EOF
