  0
SECTION
  2
HEADER
  9
$ACADVER
  1
AC1015
  9
$ACADMAINTVER
 70
     6
  9
$DWGCODEPAGE
  3
ANSI_1252
  9
$INSBASE
 10
0.0
 20
0.0
 30
0.0
  9
$EXTMIN
 10
-1.3578790575
 20
-7.874015748
 30
0.0
  9
$EXTMAX
 10
0.1767766953
 20
0.0
 30
0.0
  9
$LIMMIN
 10
0.0
 20
0.0
  9
$LIMMAX
 10
12.0
 20
9.0
  9
$ORTHOMODE
 70
     0
  9
$REGENMODE
 70
     1
  9
$FILLMODE
 70
     1
  9
$QTEXTMODE
 70
     0
  9
$MIRRTEXT
 70
     1
  9
$LTSCALE
 40
1.0
  9
$ATTMODE
 70
     1
  9
$TEXTSIZE
 40
0.1377952756
  9
$TRACEWID
 40
0.05
  9
$TEXTSTYLE
  7
Standard
  9
$CLAYER
  8
0
  9
$CELTYPE
  6
ByLayer
  9
$CECOLOR
 62
   256
  9
$CELTSCALE
 40
1.0
  9
$DISPSILH
 70
     0
  9
$DIMSCALE
 40
1.0
  9
$DIMASZ
 40
0.13
  9
$DIMEXO
 40
0.0393700787
  9
$DIMDLI
 40
0.38
  9
$DIMRND
 40
0.0
  9
$DIMDLE
 40
0.0
  9
$DIMEXE
 40
0.0393700787
  9
$DIMTP
 40
0.0
  9
$DIMTM
 40
0.0
  9
$DIMTXT
 40
0.1377952756
  9
$DIMCEN
 40
0.09
  9
$DIMTSZ
 40
0.0
  9
$DIMTOL
 70
     0
  9
$DIMLIM
 70
     0
  9
$DIMTIH
 70
     1
  9
$DIMTOH
 70
     1
  9
$DIMSE1
 70
     0
  9
$DIMSE2
 70
     0
  9
$DIMTAD
 70
     1
  9
$DIMZIN
 70
     1
  9
$DIMBLK
  1

  9
$DIMASO
 70
     1
  9
$DIMSHO
 70
     1
  9
$DIMPOST
  1

  9
$DIMAPOST
  1

  9
$DIMALT
 70
     0
  9
$DIMALTD
 70
     2
  9
$DIMALTF
 40
25.4
  9
$DIMLFAC
 40
1.0
  9
$DIMTOFL
 70
     0
  9
$DIMTVP
 40
0.0
  9
$DIMTIX
 70
     0
  9
$DIMSOXD
 70
     0
  9
$DIMSAH
 70
     0
  9
$DIMBLK1
  1

  9
$DIMBLK2
  1

  9
$DIMSTYLE
  2
Standard
  9
$DIMCLRD
 70
     0
  9
$DIMCLRE
 70
     0
  9
$DIMCLRT
 70
     0
  9
$DIMTFAC
 40
1.0
  9
$DIMGAP
 40
0.06
  9
$DIMJUST
 70
     0
  9
$DIMSD1
 70
     0
  9
$DIMSD2
 70
     0
  9
$DIMTOLJ
 70
     1
  9
$DIMTZIN
 70
     1
  9
$DIMALTZ
 70
     0
  9
$DIMALTTZ
 70
     0
  9
$DIMUPT
 70
     0
  9
$DIMDEC
 70
     2
  9
$DIMTDEC
 70
     2
  9
$DIMALTU
 70
     2
  9
$DIMALTTD
 70
     2
  9
$DIMTXSTY
  7
Standard
  9
$DIMAUNIT
 70
     0
  9
$DIMADEC
 70
     2
  9
$DIMALTRND
 40
0.0
  9
$DIMAZIN
 70
     0
  9
$DIMDSEP
 70
    46
  9
$DIMATFIT
 70
     3
  9
$DIMFRAC
 70
     0
  9
$DIMLDRBLK
  1

  9
$DIMLUNIT
 70
     2
  9
$DIMLWD
 70
    -2
  9
$DIMLWE
 70
    -2
  9
$DIMTMOVE
 70
     0
  9
$LUNITS
 70
     2
  9
$LUPREC
 70
     8
  9
$SKETCHINC
 40
0.1
  9
$FILLETRAD
 40
0.5
  9
$AUNITS
 70
     0
  9
$AUPREC
 70
     2
  9
$MENU
  1
.
  9
$ELEVATION
 40
0.0
  9
$PELEVATION
 40
0.0
  9
$THICKNESS
 40
0.0
  9
$LIMCHECK
 70
     0
  9
$CHAMFERA
 40
0.0
  9
$CHAMFERB
 40
0.0
  9
$CHAMFERC
 40
0.0
  9
$CHAMFERD
 40
0.0
  9
$SKPOLY
 70
     0
  9
$TDCREATE
 40
2458301.746778657
  9
$TDUCREATE
 40
2458301.913445324
  9
$TDUPDATE
 40
2458301.746807755
  9
$TDUUPDATE
 40
2458301.913474421
  9
$TDINDWG
 40
0.0000000116
  9
$TDUSRTIMER
 40
0.0000000116
  9
$USRTIMER
 70
     1
  9
$ANGBASE
 50
0.0
  9
$ANGDIR
 70
     0
  9
$PDMODE
 70
     0
  9
$PDSIZE
 40
-1.0
  9
$PLINEWID
 40
0.0
  9
$SPLFRAME
 70
     0
  9
$SPLINETYPE
 70
     6
  9
$SPLINESEGS
 70
     8
  9
$HANDSEED
  5
2A8
  9
$SURFTAB1
 70
     6
  9
$SURFTAB2
 70
     6
  9
$SURFTYPE
 70
     6
  9
$SURFU
 70
     6
  9
$SURFV
 70
     6
  9
$UCSBASE
  2

  9
$UCSNAME
  2

  9
$UCSORG
 10
0.0
 20
0.0
 30
0.0
  9
$UCSXDIR
 10
1.0
 20
0.0
 30
0.0
  9
$UCSYDIR
 10
0.0
 20
1.0
 30
0.0
  9
$UCSORTHOREF
  2

  9
$UCSORTHOVIEW
 70
     0
  9
$UCSORGTOP
 10
0.0
 20
0.0
 30
0.0
  9
$UCSORGBOTTOM
 10
0.0
 20
0.0
 30
0.0
  9
$UCSORGLEFT
 10
0.0
 20
0.0
 30
0.0
  9
$UCSORGRIGHT
 10
0.0
 20
0.0
 30
0.0
  9
$UCSORGFRONT
 10
0.0
 20
0.0
 30
0.0
  9
$UCSORGBACK
 10
0.0
 20
0.0
 30
0.0
  9
$PUCSBASE
  2

  9
$PUCSNAME
  2

  9
$PUCSORG
 10
0.0
 20
0.0
 30
0.0
  9
$PUCSXDIR
 10
1.0
 20
0.0
 30
0.0
  9
$PUCSYDIR
 10
0.0
 20
1.0
 30
0.0
  9
$PUCSORTHOREF
  2

  9
$PUCSORTHOVIEW
 70
     0
  9
$PUCSORGTOP
 10
0.0
 20
0.0
 30
0.0
  9
$PUCSORGBOTTOM
 10
0.0
 20
0.0
 30
0.0
  9
$PUCSORGLEFT
 10
0.0
 20
0.0
 30
0.0
  9
$PUCSORGRIGHT
 10
0.0
 20
0.0
 30
0.0
  9
$PUCSORGFRONT
 10
0.0
 20
0.0
 30
0.0
  9
$PUCSORGBACK
 10
0.0
 20
0.0
 30
0.0
  9
$USERI1
 70
     0
  9
$USERI2
 70
     0
  9
$USERI3
 70
     0
  9
$USERI4
 70
     0
  9
$USERI5
 70
     0
  9
$USERR1
 40
0.0
  9
$USERR2
 40
0.0
  9
$USERR3
 40
0.0
  9
$USERR4
 40
0.0
  9
$USERR5
 40
0.0
  9
$WORLDVIEW
 70
     1
  9
$SHADEDGE
 70
     3
  9
$SHADEDIF
 70
    70
  9
$TILEMODE
 70
     1
  9
$MAXACTVP
 70
    64
  9
$PINSBASE
 10
0.0
 20
0.0
 30
0.0
  9
$PLIMCHECK
 70
     0
  9
$PEXTMIN
 10
1.0000000000E+20
 20
1.0000000000E+20
 30
1.0000000000E+20
  9
$PEXTMAX
 10
-1.0000000000E+20
 20
-1.0000000000E+20
 30
-1.0000000000E+20
  9
$PLIMMIN
 10
0.0
 20
0.0
  9
$PLIMMAX
 10
12.0
 20
9.0
  9
$UNITMODE
 70
     0
  9
$VISRETAIN
 70
     1
  9
$PLINEGEN
 70
     0
  9
$PSLTSCALE
 70
     1
  9
$TREEDEPTH
 70
  3020
  9
$CMLSTYLE
  2
Standard
  9
$CMLJUST
 70
     0
  9
$CMLSCALE
 40
1.0
  9
$PROXYGRAPHICS
 70
     1
  9
$MEASUREMENT
 70
     0
  9
$CELWEIGHT
370
    -1
  9
$ENDCAPS
280
     0
  9
$JOINSTYLE
280
     0
  9
$LWDISPLAY
290
     1
  9
$INSUNITS
 70
     1
  9
$HYPERLINKBASE
  1

  9
$STYLESHEET
  1

  9
$XEDIT
290
     1
  9
$CEPSNTYPE
380
     0
  9
$PSTYLEMODE
290
     1
  9
$FINGERPRINTGUID
  2
{613D5B7A-DBEC-482E-9A05-366C458519AD}
  9
$VERSIONGUID
  2
{FAEB1C32-E019-11D5-929B-00C0DF256EC4}
  9
$EXTNAMES
290
     1
  9
$PSVPSCALE
 40
0.0
  9
$OLESTARTUP
290
     0
  0
ENDSEC
  0
SECTION
  2
CLASSES
  0
CLASS
  1
ACDBDICTIONARYWDFLT
  2
AcDbDictionaryWithDefault
  3
ObjectDBX Classes
 90
        0
280
     0
281
     0
  0
CLASS
  1
VISUALSTYLE
  2
AcDbVisualStyle
  3
ObjectDBX Classes
 90
     4095
280
     0
281
     0
  0
CLASS
  1
MATERIAL
  2
AcDbMaterial
  3
ObjectDBX Classes
 90
     1153
280
     0
281
     0
  0
CLASS
  1
SCALE
  2
AcDbScale
  3
ObjectDBX Classes
 90
     1153
280
     0
281
     0
  0
CLASS
  1
TABLESTYLE
  2
AcDbTableStyle
  3
ObjectDBX Classes
 90
     4095
280
     0
281
     0
  0
CLASS
  1
MLEADERSTYLE
  2
AcDbMLeaderStyle
  3
ACDB_MLEADERSTYLE_CLASS
 90
     4095
280
     0
281
     0
  0
CLASS
  1
SUN
  2
AcDbSun
  3
SCENEOE
 90
     1153
280
     0
281
     0
  0
CLASS
  1
ACDBPLACEHOLDER
  2
AcDbPlaceHolder
  3
ObjectDBX Classes
 90
        0
280
     0
281
     0
  0
CLASS
  1
LAYOUT
  2
AcDbLayout
  3
ObjectDBX Classes
 90
        0
280
     0
281
     0
  0
ENDSEC
  0
SECTION
  2
TABLES
  0
TABLE
  2
VPORT
  5
8
330
0
100
AcDbSymbolTable
 70
     1
  0
VPORT
  5
29
330
8
100
AcDbSymbolTableRecord
100
AcDbViewportTableRecord
  2
*Active
 70
     0
 10
0.0
 20
0.0
 11
1.0
 21
1.0
 12
-0.5905511811
 22
-3.937007874
 13
0.0
 23
0.0
 14
0.5
 24
0.5
 15
0.5
 25
0.5
 16
0.0
 26
0.0
 36
1.0
 17
0.0
 27
0.0
 37
0.0
 40
8.031496063
 41
0.1949012806
 42
50.0
 43
0.0
 44
0.0
 50
0.0
 51
0.0
 71
     0
 72
   100
 73
     1
 74
     3
 75
     0
 76
     0
 77
     0
 78
     0
281
     0
 65
     1
110
0.0
120
0.0
130
0.0
111
1.0
121
0.0
131
0.0
112
0.0
122
1.0
132
0.0
 79
     0
146
0.0
  0
ENDTAB
  0
TABLE
  2
LTYPE
  5
5
330
0
100
AcDbSymbolTable
 70
     6
  0
LTYPE
  5
14
330
5
100
AcDbSymbolTableRecord
100
AcDbLinetypeTableRecord
  2
ByBlock
 70
     0
  3

 72
    65
 73
     0
 40
0.0
  0
LTYPE
  5
15
330
5
100
AcDbSymbolTableRecord
100
AcDbLinetypeTableRecord
  2
ByLayer
 70
     0
  3

 72
    65
 73
     0
 40
0.0
  0
LTYPE
  5
16
330
5
100
AcDbSymbolTableRecord
100
AcDbLinetypeTableRecord
  2
Continuous
 70
     0
  3
Solid line
 72
    65
 73
     0
 40
0.0
  0
LTYPE
  5
6E
330
5
100
AcDbSymbolTableRecord
100
AcDbLinetypeTableRecord
  2
HIDDEN
 70
     0
  3
Hidden __ __ __ __ __ __ __ __ __ __ __ __ __ __
 72
    65
 73
     2
 40
0.075
 49
0.05
 74
     0
 49
-0.025
 74
     0
  0
LTYPE
  5
6F
330
5
100
AcDbSymbolTableRecord
100
AcDbLinetypeTableRecord
  2
PHANTOM
 70
     0
  3
Phantom ______  __  __  ______  __  __  ______
 72
    65
 73
     6
 40
0.5
 49
0.25
 74
     0
 49
-0.05
 74
     0
 49
0.05
 74
     0
 49
-0.05
 74
     0
 49
0.05
 74
     0
 49
-0.05
 74
     0
  0
LTYPE
  5
70
330
5
100
AcDbSymbolTableRecord
100
AcDbLinetypeTableRecord
  2
CENTER
 70
     0
  3
Center ____ _ ____ _ ____ _ ____ _ ____ _ ____
 72
    65
 73
     4
 40
0.4
 49
0.25
 74
     0
 49
-0.05
 74
     0
 49
0.05
 74
     0
 49
-0.05
 74
     0
  0
LTYPE
  5
71
330
5
100
AcDbSymbolTableRecord
100
AcDbLinetypeTableRecord
  2
CENTERX2
 70
     0
  3
Center (2x) ________  __  ________  __  _____
 72
    65
 73
     4
 40
0.8
 49
0.5
 74
     0
 49
-0.1
 74
     0
 49
0.1
 74
     0
 49
-0.1
 74
     0
  0
LTYPE
  5
72
330
5
100
AcDbSymbolTableRecord
100
AcDbLinetypeTableRecord
  2
DOT2
 70
     0
  3
Dot (.5x) ........................................
 72
    65
 73
     2
 40
0.025
 49
0.0
 74
     0
 49
-0.025
 74
     0
  0
ENDTAB
  0
TABLE
  2
LAYER
  5
2
330
0
100
AcDbSymbolTable
 70
     1
  0
LAYER
  5
10
330
2
100
AcDbSymbolTableRecord
100
AcDbLayerTableRecord
  2
0
 70
     0
 62
     7
  6
Continuous
370
    -3
390
F
  0
ENDTAB
  0
TABLE
  2
STYLE
  5
3
330
0
100
AcDbSymbolTable
 70
     1
  0
STYLE
  5
11
330
3
100
AcDbSymbolTableRecord
100
AcDbTextStyleTableRecord
  2
Standard
 70
     0
 40
0.0
 41
1.0
 50
0.0
 71
     0
 42
0.1377952756
  3
txt
  4

  0
ENDTAB
  0
TABLE
  2
VIEW
  5
6
330
0
100
AcDbSymbolTable
 70
     0
  0
ENDTAB
  0
TABLE
  2
UCS
  5
7
330
0
100
AcDbSymbolTable
 70
     0
  0
ENDTAB
  0
TABLE
  2
APPID
  5
9
330
0
100
AcDbSymbolTable
 70
     1
  0
APPID
  5
12
330
9
100
AcDbSymbolTableRecord
100
AcDbRegAppTableRecord
  2
ACAD
 70
     0
  0
ENDTAB
  0
TABLE
  2
DIMSTYLE
  5
A
330
0
100
AcDbSymbolTable
 70
     1
100
AcDbDimStyleTable
  0
DIMSTYLE
105
27
330
A
100
AcDbSymbolTableRecord
100
AcDbDimStyleTableRecord
  2
Standard
 70
     0
178
     0
340
11
  0
ENDTAB
  0
TABLE
  2
BLOCK_RECORD
  5
1
330
0
100
AcDbSymbolTable
 70
     1
  0
BLOCK_RECORD
  5
1F
330
1
100
AcDbSymbolTableRecord
100
AcDbBlockTableRecord
  2
*Model_Space
340
22
  0
BLOCK_RECORD
  5
1B
330
1
100
AcDbSymbolTableRecord
100
AcDbBlockTableRecord
  2
*Paper_Space
340
1E
  0
BLOCK_RECORD
  5
23
330
1
100
AcDbSymbolTableRecord
100
AcDbBlockTableRecord
  2
*Paper_Space0
340
26
  0
ENDTAB
  0
ENDSEC
  0
SECTION
  2
BLOCKS
  0
BLOCK
  5
20
330
1F
100
AcDbEntity
  8
0
100
AcDbBlockBegin
  2
*Model_Space
 70
     0
 10
0.0
 20
0.0
 30
0.0
  3
*Model_Space
  1

  0
ENDBLK
  5
21
330
1F
100
AcDbEntity
  8
0
100
AcDbBlockEnd
  0
BLOCK
  5
1C
330
1B
100
AcDbEntity
 67
     1
  8
0
100
AcDbBlockBegin
  2
*Paper_Space
 70
     0
 10
0.0
 20
0.0
 30
0.0
  3
*Paper_Space
  1

  0
ENDBLK
  5
1D
330
1B
100
AcDbEntity
 67
     1
  8
0
100
AcDbBlockEnd
  0
BLOCK
  5
24
330
23
100
AcDbEntity
  8
0
100
AcDbBlockBegin
  2
*Paper_Space0
 70
     0
 10
0.0
 20
0.0
 30
0.0
  3
*Paper_Space0
  1

  0
ENDBLK
  5
25
330
23
100
AcDbEntity
  8
0
100
AcDbBlockEnd
  0
ENDSEC
  0
SECTION
  2
ENTITIES
  0
SPLINE
  5
73
330
1F
100
AcDbEntity
  8
0
  6
Continuous
 62
     7
370
    25
100
AcDbSpline
210
0.0
220
0.0
230
1.0
 70
     8
 71
     3
 72
    13
 73
     9
 74
     0
 42
0.000000001
 43
0.00000001
 40
0.0
 40
0.0
 40
0.0
 40
0.0
 40
0.1294465544730155
 40
0.2566114205044115
 40
0.3828604211506729
 40
0.5068327058516401
 40
0.7532354148910859
 40
0.9999999999999999
 40
0.9999999999999999
 40
0.9999999999999999
 40
0.9999999999999999
 10
-0.9914154327856206
 20
-7.810036517174473
 30
0.0
 10
-0.9899789763823417
 20
-7.810016024234612
 30
0.0
 10
-0.9871313832606962
 20
-7.809975399573496
 30
0.0
 10
-0.9829019709081918
 20
-7.809543437418036
 30
0.0
 10
-0.9787625166031528
 20
-7.808902684413964
 30
0.0
 10
-0.973386984761612
 20
-7.807684940197111
 30
0.0
 10
-0.9668452171738494
 20
-7.805587627589268
 30
0.0
 10
-0.9619040819406892
 20
-7.803228709675777
 30
0.0
 10
-0.9594317014721435
 20
-7.802048385256181
 30
0.0
  0
SPLINE
  5
74
330
1F
100
AcDbEntity
  8
0
  6
Continuous
 62
     7
370
    25
100
AcDbSpline
210
0.0
220
0.0
230
1.0
 70
     8
 71
     3
 72
    23
 73
    19
 74
     0
 42
0.000000001
 43
0.00000001
 40
0.0
 40
0.0
 40
0.0
 40
0.0
 40
0.0840459183828658
 40
0.1627756104119859
 40
0.2368739460355231
 40
0.3066026167438468
 40
0.3721654538210822
 40
0.4340606592918734
 40
0.4929277549516374
 40
0.549429857009405
 40
0.6039396665774953
 40
0.6572607910538817
 40
0.710802403546565
 40
0.7643352139547706
 40
0.8193969521968041
 40
0.8764963914345923
 40
0.9365260930417011
 40
1.0
 40
1.0
 40
1.0
 40
1.0
 10
-1.033321921716352
 20
-7.755024499315293
 30
0.0
 10
-1.03329606506946
 20
-7.757230474027367
 30
0.0
 10
-1.033245987307659
 20
-7.761502887098939
 30
0.0
 10
-1.032744903373683
 20
-7.767705154203697
 30
0.0
 10
-1.031898433796889
 20
-7.77348628757975
 30
0.0
 10
-1.03078573600995
 20
-7.778875327434613
 30
0.0
 10
-1.029222193205906
 20
-7.783813939490944
 30
0.0
 10
-1.027454841187707
 20
-7.788381458075195
 30
0.0
 10
-1.025240941346693
 20
-7.792484948463166
 30
0.0
 10
-1.022752586099156
 20
-7.796193372144399
 30
0.0
 10
-1.019927597446715
 20
-7.799467796900844
 30
0.0
 10
-1.016771587844733
 20
-7.802307242144712
 30
0.0
 10
-1.013307240113597
 20
-7.80472102280431
 30
0.0
 10
-1.009508137533756
 20
-7.806659153660693
 30
0.0
 10
-1.005434678537642
 20
-7.808213082232896
 30
0.0
 10
-1.001025025399559
 20
-7.809241369195482
 30
0.0
 10
-0.9963252938832066
 20
-7.80992375250482
 30
0.0
 10
-0.9930822003946214
 20
-7.809998236560201
 30
0.0
 10
-0.9914154327856206
 20
-7.810036517174473
 30
0.0
  0
SPLINE
  5
75
330
1F
100
AcDbEntity
  8
0
  6
Continuous
 62
     7
370
    25
100
AcDbSpline
210
0.0
220
0.0
230
1.0
 70
     8
 71
     3
 72
    23
 73
    19
 74
     0
 42
0.000000001
 43
0.00000001
 40
0.0
 40
0.0
 40
0.0
 40
0.0
 40
0.0600915961993574
 40
0.1180425330726113
 40
0.1740451709400293
 40
0.2293303201144361
 40
0.2841496908292592
 40
0.3386186036369541
 40
0.3936330196292654
 40
0.4499131718805329
 40
0.5081323368848771
 40
0.5681590801869927
 40
0.6313187239558643
 40
0.697820307343506
 40
0.7674862689254841
 40
0.8409352495515741
 40
0.9181847264969221
 40
1.0
 40
1.0
 40
1.0
 40
1.0
 10
-0.9918210801095964
 20
-7.700199703297947
 30
0.0
 10
-0.9933740545298032
 20
-7.700234141851397
 30
0.0
 10
-0.9964246813387501
 20
-7.700301792144317
 30
0.0
 10
-1.00086809962135
 20
-7.701056453301083
 30
0.0
 10
-1.005094051188745
 20
-7.702197487602168
 30
0.0
 10
-1.009068873577337
 20
-7.70383622153814
 30
0.0
 10
-1.012802283942789
 20
-7.705887389789688
 30
0.0
 10
-1.016221762945093
 20
-7.708416896019907
 30
0.0
 10
-1.019362793696333
 20
-7.711336953497031
 30
0.0
 10
-1.022210071777362
 20
-7.714671834077604
 30
0.0
 10
-1.024777594643216
 20
-7.718386099856327
 30
0.0
 10
-1.026987571853422
 20
-7.722523931992507
 30
0.0
 10
-1.028938961695435
 20
-7.727023390929807
 30
0.0
 10
-1.030497222721532
 20
-7.731934895760254
 30
0.0
 10
-1.03179707091763
 20
-7.737193350935012
 30
0.0
 10
-1.032680892020772
 20
-7.74281993901339
 30
0.0
 10
-1.033214568210275
 20
-7.748804569907568
 30
0.0
 10
-1.033285458931613
 20
-7.752911890650966
 30
0.0
 10
-1.033321921716352
 20
-7.755024499315293
 30
0.0
  0
SPLINE
  5
76
330
1F
100
AcDbEntity
  8
0
  6
Continuous
 62
     7
370
    25
100
AcDbSpline
210
0.0
220
0.0
230
1.0
 70
     8
 71
     3
 72
    15
 73
    11
 74
     0
 42
0.000000001
 43
0.00000001
 40
0.0
 40
0.0
 40
0.0
 40
0.0
 40
0.1229465867926069
 40
0.2436389528488801
 40
0.3645582777771632
 40
0.4849663436539922
 40
0.6073541429308448
 40
0.7338185168609782
 40
0.8648057082019021
 40
1.0
 40
1.0
 40
1.0
 40
1.0
 10
-0.9594317014721435
 20
-7.70818783521624
 30
0.0
 10
-0.9606620237275066
 20
-7.707558486276197
 30
0.0
 10
-0.9631001103290405
 20
-7.706311327483679
 30
0.0
 10
-0.966879069673914
 20
-7.704721556673159
 30
0.0
 10
-0.9707077011534833
 20
-7.703340340441314
 30
0.0
 10
-0.974640174648218
 20
-7.702217301581699
 30
0.0
 10
-0.9786889020055475
 20
-7.701298087117986
 30
0.0
 10
-0.9829100344560572
 20
-7.700642839766237
 30
0.0
 10
-0.9873105405716086
 20
-7.700270910718083
 30
0.0
 10
-0.9903018075561867
 20
-7.700223687896265
 30
0.0
 10
-0.9918210801095964
 20
-7.700199703297947
 30
0.0
  0
SPLINE
  5
78
330
1F
100
AcDbEntity
  8
0
  6
Continuous
 62
     7
370
    25
100
AcDbSpline
210
0.0
220
0.0
230
1.0
 70
     8
 71
     3
 72
    13
 73
     9
 74
     0
 42
0.000000001
 43
0.00000001
 40
0.0
 40
0.0
 40
0.0
 40
0.0
 40
0.1371043592389617
 40
0.2698395429534437
 40
0.3974480177724631
 40
0.5213207983111531
 40
0.7614259910144042
 40
1.0
 40
1.0
 40
1.0
 40
1.0
 10
-0.9926011711172421
 20
-7.684223439461362
 30
0.0
 10
-0.9910508413205081
 20
-7.684239843712739
 30
0.0
 10
-0.9879995868884833
 20
-7.684272129452731
 30
0.0
 10
-0.9835147755619426
 20
-7.684572991009159
 30
0.0
 10
-0.9791882333133349
 20
-7.684983126416258
 30
0.0
 10
-0.9736999682171363
 20
-7.685869397825959
 30
0.0
 10
-0.9670398055391676
 20
-7.687386881476926
 30
0.0
 10
-0.961962322264127
 20
-7.689273998241943
 30
0.0
 10
-0.9594317014721435
 20
-7.690214538400081
 30
0.0
  0
SPLINE
  5
79
330
1F
100
AcDbEntity
  8
0
  6
Continuous
 62
     7
370
    25
100
AcDbSpline
210
0.0
220
0.0
230
1.0
 70
     8
 71
     3
 72
    23
 73
    19
 74
     0
 42
0.000000001
 43
0.00000001
 40
0.0
 40
0.0
 40
0.0
 40
0.0
 40
0.0762250991228266
 40
0.1492568640360034
 40
0.2189663710999975
 40
0.2863457126534285
 40
0.350854524602332
 40
0.4127187411457849
 40
0.4725147389446502
 40
0.5304698563071019
 40
0.5872616011426958
 40
0.6437988226589371
 40
0.7001954145030604
 40
0.7573330240697146
 40
0.8153924778212723
 40
0.8747323437465097
 40
0.9360592760503408
 40
1.0
 40
1.0
 40
1.0
 40
1.0
 10
-1.053292251512084
 20
-7.756647088611196
 30
0.0
 10
-1.053234479328153
 20
-7.753941069266203
 30
0.0
 10
-1.053121355237775
 20
-7.748642395127335
 30
0.0
 10
-1.052350627998748
 20
-7.740897759632888
 30
0.0
 10
-1.051005928487577
 20
-7.733552504610671
 30
0.0
 10
-1.04913882803932
 20
-7.726635650884666
 30
0.0
 10
-1.046810291595376
 20
-7.720154671722602
 30
0.0
 10
-1.043999456482422
 20
-7.714161498714231
 30
0.0
 10
-1.040719583254755
 20
-7.708680844043872
 30
0.0
 10
-1.036994327946023
 20
-7.703713766618939
 30
0.0
 10
-1.032809865797493
 20
-7.699285660156097
 30
0.0
 10
-1.028218612628264
 20
-7.695363760874854
 30
0.0
 10
-1.02318121897701
 20
-7.692012146729141
 30
0.0
 10
-1.017770227165627
 20
-7.689189218372673
 30
0.0
 10
-1.011970862696964
 20
-7.686966059760743
 30
0.0
 10
-1.005815837754476
 20
-7.685385478204739
 30
0.0
 10
-0.9993219378418301
 20
-7.684383847475178
 30
0.0
 10
-0.9948723743768733
 20
-7.684277647443691
 30
0.0
 10
-0.9926011711172421
 20
-7.684223439461362
 30
0.0
  0
SPLINE
  5
7A
330
1F
100
AcDbEntity
  8
0
  6
Continuous
 62
     7
370
    25
100
AcDbSpline
210
0.0
220
0.0
230
1.0
 70
     8
 71
     3
 72
    23
 73
    19
 74
     0
 42
0.000000001
 43
0.00000001
 40
0.0
 40
0.0
 40
0.0
 40
0.0
 40
0.0670325867641375
 40
0.1306011657320678
 40
0.190957778598473
 40
0.2489204977689592
 40
0.3049729679952951
 40
0.3601549466983138
 40
0.415072192000086
 40
0.4702566010027547
 40
0.5267191004344992
 40
0.5848204792238201
 40
0.6448830734803275
 40
0.7081442972450518
 40
0.7747184915464246
 40
0.845357356124226
 40
0.9201281364417371
 40
1.0
 40
1.0
 40
1.0
 40
1.0
 10
-0.9936308912473346
 20
-7.826012781011059
 30
0.0
 10
-0.9959630296210673
 20
-7.825958546673077
 30
0.0
 10
-1.000506789678093
 20
-7.825852880636525
 30
0.0
 10
-1.007112683553318
 20
-7.825042732127231
 30
0.0
 10
-1.013297041872409
 20
-7.823666120155481
 30
0.0
 10
-1.019073812226238
 20
-7.82177829911666
 30
0.0
 10
-1.024426304632993
 20
-7.819295671916175
 30
0.0
 10
-1.029352088753919
 20
-7.81624763526712
 30
0.0
 10
-1.033873939056555
 20
-7.812675591799906
 30
0.0
 10
-1.037964709593701
 20
-7.808552016990761
 30
0.0
 10
-1.041593062317291
 20
-7.803875900927208
 30
0.0
 10
-1.044748607582981
 20
-7.798670990055573
 30
0.0
 10
-1.047420351750072
 20
-7.792939217581247
 30
0.0
 10
-1.049546286474881
 20
-7.786673976741914
 30
0.0
 10
-1.05123000245799
 20
-7.779899286125551
 30
0.0
 10
-1.052433727141952
 20
-7.77261732548443
 30
0.0
 10
-1.053152800919419
 20
-7.764805725846387
 30
0.0
 10
-1.05324475688656
 20
-7.759425789030204
 30
0.0
 10
-1.053292251512084
 20
-7.756647088611196
 30
0.0
  0
SPLINE
  5
7B
330
1F
100
AcDbEntity
  8
0
  6
Continuous
 62
     7
370
    25
100
AcDbSpline
210
0.0
220
0.0
230
1.0
 70
     8
 71
     3
 72
    11
 73
     7
 74
     0
 42
0.000000001
 43
0.00000001
 40
0.0
 40
0.0
 40
0.0
 40
0.0
 40
0.2486221215478417
 40
0.4968578887023163
 40
0.746673911667881
 40
0.9999999999999999
 40
0.9999999999999999
 40
0.9999999999999999
 40
0.9999999999999999
 10
-0.9594317014721435
 20
-7.82002168207234
 30
0.0
 10
-0.9621728941473303
 20
-7.820948468755991
 30
0.0
 10
-0.9676510197326174
 20
-7.822800601913124
 30
0.0
 10
-0.9761559043521841
 20
-7.824628155353482
 30
0.0
 10
-0.9848294403317551
 20
-7.825803555728863
 30
0.0
 10
-0.990683461159484
 20
-7.825942715643679
 30
0.0
 10
-0.9936308912473346
 20
-7.826012781011059
 30
0.0
  0
SPLINE
  5
81
330
1F
100
AcDbEntity
  8
0
  6
Continuous
 62
     7
370
    25
100
AcDbSpline
210
0.0
220
0.0
230
1.0
 70
     8
 71
     3
 72
    13
 73
     9
 74
     0
 42
0.000000001
 43
0.00000001
 40
0.0
 40
0.0
 40
0.0
 40
0.0
 40
0.2629292473005633
 40
0.51522999073045
 40
0.6381806707120294
 40
0.7590042309196304
 40
0.8797730870689328
 40
1.0
 40
1.0
 40
1.0
 40
1.0
 10
-0.5188050967134991
 20
-7.684223439461362
 30
0.0
 10
-0.5157019117366323
 20
-7.68427977344936
 30
0.0
 10
-0.5096209831853923
 20
-7.684390164211939
 30
0.0
 10
-0.5021406480334674
 20
-7.685355622084534
 30
0.0
 10
-0.4963847232308186
 20
-7.686420469517256
 30
0.0
 10
-0.4922116058862641
 20
-7.687467903847882
 30
0.0
 10
-0.4881212574465746
 20
-7.68869769052531
 30
0.0
 10
-0.4854636619340632
 20
-7.689709681018607
 30
0.0
 10
-0.4841378523337205
 20
-7.690214538400081
 30
0.0
  0
SPLINE
  5
82
330
1F
100
AcDbEntity
  8
0
  6
Continuous
 62
     7
370
    25
100
AcDbSpline
210
0.0
220
0.0
230
1.0
 70
     8
 71
     3
 72
    23
 73
    19
 74
     0
 42
0.000000001
 43
0.00000001
 40
0.0
 40
0.0
 40
0.0
 40
0.0
 40
0.0742303142068697
 40
0.1452344802715963
 40
0.2127033262666411
 40
0.2780441841825264
 40
0.340788278339708
 40
0.4013981533794538
 40
0.4600902964053001
 40
0.5180807205345793
 40
0.5755022312764181
 40
0.632661154778861
 40
0.6904112556728899
 40
0.7494149557506408
 40
0.8096955818459617
 40
0.8709381798649893
 40
0.9344400676624424
 40
1.0
 40
1.0
 40
1.0
 40
1.0
 10
-0.5859865342919539
 20
-7.756647088611196
 30
0.0
 10
-0.5859260995149435
 20
-7.753888339079375
 30
0.0
 10
-0.5858078565366776
 20
-7.748490738938052
 30
0.0
 10
-0.584901751848962
 20
-7.740626513688061
 30
0.0
 10
-0.5833779966670264
 20
-7.733197336425797
 30
0.0
 10
-0.5812229355339529
 20
-7.726245987969774
 30
0.0
 10
-0.5785391250775462
 20
-7.719757277900156
 30
0.0
 10
-0.5753525418207528
 20
-7.713778380128652
 30
0.0
 10
-0.5716866670148201
 20
-7.708288922842629
 30
0.0
 10
-0.5674869300388619
 20
-7.703350261325343
 30
0.0
 10
-0.5628264377340135
 20
-7.698926255248218
 30
0.0
 10
-0.5576962004096949
 20
-7.695073979289263
 30
0.0
 10
-0.5521508152606842
 20
-7.691729025770631
 30
0.0
 10
-0.5461327776010398
 20
-7.689037959550299
 30
0.0
 10
-0.5397690180611769
 20
-7.686889115712817
 30
0.0
 10
-0.5330673366811607
 20
-7.685305489324628
 30
0.0
 10
-0.5260377126020278
 20
-7.684408071378606
 30
0.0
 10
-0.5212414626502528
 20
-7.684285634235831
 30
0.0
 10
-0.5188050967134991
 20
-7.684223439461362
 30
0.0
  0
SPLINE
  5
83
330
1F
100
AcDbEntity
  8
0
  6
Continuous
 62
     7
370
    25
100
AcDbSpline
210
0.0
220
0.0
230
1.0
 70
     8
 71
     3
 72
    23
 73
    19
 74
     0
 42
0.000000001
 43
0.00000001
 40
0.0
 40
0.0
 40
0.0
 40
0.0
 40
0.0664816656448746
 40
0.1298821460390426
 40
0.1909362123955983
 40
0.2499612871436924
 40
0.307591031904606
 40
0.3634477131855244
 40
0.4190602458144755
 40
0.4747759939275976
 40
0.5313404747472993
 40
0.5893050617113976
 40
0.6495098271551483
 40
0.7122286910538859
 40
0.7784844991333909
 40
0.8481814999024868
 40
0.9217688998297209
 40
0.9999999999999999
 40
0.9999999999999999
 40
0.9999999999999999
 40
0.9999999999999999
 10
-0.5234232354787621
 20
-7.826012781011061
 30
0.0
 10
-0.5257767496864227
 20
-7.825962617016234
 30
0.0
 10
-0.5303747012127455
 20
-7.825864613946688
 30
0.0
 10
-0.5370862202247023
 20
-7.824989210788839
 30
0.0
 10
-0.5434455326880206
 20
-7.823642381631506
 30
0.0
 10
-0.5494406499882456
 20
-7.821702489455244
 30
0.0
 10
-0.5550256202598669
 20
-7.819210549460499
 30
0.0
 10
-0.5602083177462245
 20
-7.81619375692083
 30
0.0
 10
-0.5649388405189211
 20
-7.812617514316099
 30
0.0
 10
-0.5692406556754523
 20
-7.808500863354994
 30
0.0
 10
-0.5730957043226943
 20
-7.803855213287315
 30
0.0
 10
-0.5764933356607965
 20
-7.798671588834758
 30
0.0
 10
-0.5793415714384345
 20
-7.792925877510981
 30
0.0
 10
-0.5817644953394001
 20
-7.786675514178846
 30
0.0
 10
-0.5836499684359294
 20
-7.779891551499366
 30
0.0
 10
-0.5850164875893333
 20
-7.772596001307737
 30
0.0
 10
-0.5858292106336261
 20
-7.764788832871297
 30
0.0
 10
-0.5859330345125173
 20
-7.759415785492354
 30
0.0
 10
-0.5859865342919539
 20
-7.756647088611196
 30
0.0
  0
SPLINE
  5
84
330
1F
100
AcDbEntity
  8
0
  6
Continuous
 62
     7
370
    25
100
AcDbSpline
210
0.0
220
0.0
230
1.0
 70
     8
 71
     3
 72
    15
 73
    11
 74
     0
 42
0.000000001
 43
0.00000001
 40
0.0
 40
0.0
 40
0.0
 40
0.0
 40
0.121552912944042
 40
0.2468721241304304
 40
0.3746699835809465
 40
0.5031054740837512
 40
0.6316126445699131
 40
0.7575254247413089
 40
0.8812582679439928
 40
1.0
 40
1.0
 40
1.0
 40
1.0
 10
-0.4841378523337205
 20
-7.817556594488178
 30
0.0
 10
-0.4856384219417604
 20
-7.818220094538225
 30
0.0
 10
-0.488686056075489
 20
-7.81956765308494
 30
0.0
 10
-0.4934542059151864
 20
-7.821263013046551
 30
0.0
 10
-0.4983952707410121
 20
-7.822716620070246
 30
0.0
 10
-0.5034434276752376
 20
-7.823939724847693
 30
0.0
 10
-0.508528981382125
 20
-7.824867228616487
 30
0.0
 10
-0.5135920313151645
 20
-7.825512603369328
 30
0.0
 10
-0.5185479661592005
 20
-7.825944057321493
 30
0.0
 10
-0.5218206004052024
 20
-7.825990189644704
 30
0.0
 10
-0.5234232354787621
 20
-7.826012781011059
 30
0.0
  0
SPLINE
  5
8A
330
1F
100
AcDbEntity
  8
0
  6
Continuous
 62
     7
370
    25
100
AcDbSpline
210
0.0
220
0.0
230
1.0
 70
     8
 71
     3
 72
    15
 73
    11
 74
     0
 42
0.000000001
 43
0.00000001
 40
0.0
 40
0.0
 40
0.0
 40
0.0
 40
0.1181367579668974
 40
0.2453387807982653
 40
0.3782723929761875
 40
0.5118702985903445
 40
0.642553332008788
 40
0.7708253199693084
 40
0.891871134487023
 40
1.0
 40
1.0
 40
1.0
 40
1.0
 10
-0.5214886097798006
 20
-7.810036517174473
 30
0.0
 10
-0.5207914776145546
 20
-7.81002149997876
 30
0.0
 10
-0.5193437186069422
 20
-7.80999031323764
 30
0.0
 10
-0.5171165148186601
 20
-7.809826818558922
 30
0.0
 10
-0.5148048765277943
 20
-7.809585717426415
 30
0.0
 10
-0.5124863055007307
 20
-7.809236672695246
 30
0.0
 10
-0.5102034691238375
 20
-7.808840058029004
 30
0.0
 10
-0.5080134716464387
 20
-7.808352140138274
 30
0.0
 10
-0.5059838277637047
 20
-7.807771072534846
 30
0.0
 10
-0.5047094548916738
 20
-7.807317417735783
 30
0.0
 10
-0.5041081821294525
 20
-7.807103374985725
 30
0.0
  0
SPLINE
  5
8B
330
1F
100
AcDbEntity
  8
0
  6
Continuous
 62
     7
370
    25
100
AcDbSpline
210
0.0
220
0.0
230
1.0
 70
     8
 71
     3
 72
    23
 73
    19
 74
     0
 42
0.000000001
 43
0.00000001
 40
0.0
 40
0.0
 40
0.0
 40
0.0
 40
0.0777075328474791
 40
0.1509829028083221
 40
0.2212722041361021
 40
0.2876756950577936
 40
0.350904701672239
 40
0.410903320931056
 40
0.4686489001308756
 40
0.5246038787116082
 40
0.579103757014149
 40
0.6330250054536382
 40
0.6878037272490791
 40
0.7439838240750565
 40
0.8024287518953603
 40
0.8641079447113192
 40
0.9295917945008833
 40
1.0
 40
1.0
 40
1.0
 40
1.0
 10
-0.5660162044962218
 20
-7.755211721157128
 30
0.0
 10
-0.5659876715248429
 20
-7.75730324464776
 30
0.0
 10
-0.5659322330018751
 20
-7.761366998525094
 30
0.0
 10
-0.5654613844050878
 20
-7.767308012550212
 30
0.0
 10
-0.5646614668165304
 20
-7.772905964933477
 30
0.0
 10
-0.5635357196904284
 20
-7.778170978015357
 30
0.0
 10
-0.5621315347799024
 20
-7.783083746694242
 30
0.0
 10
-0.5603146639684163
 20
-7.787613477689664
 30
0.0
 10
-0.5581179151650579
 20
-7.791747705232376
 30
0.0
 10
-0.5556053160101894
 20
-7.795526582058242
 30
0.0
 10
-0.5526685254303858
 20
-7.79885042589001
 30
0.0
 10
-0.5493980087210732
 20
-7.801799488006727
 30
0.0
 10
-0.5457132920591296
 20
-7.804292875932358
 30
0.0
 10
-0.5416645429686608
 20
-7.806414634432584
 30
0.0
 10
-0.5371863854283063
 20
-7.808019747240735
 30
0.0
 10
-0.5323277348883824
 20
-7.809215890259002
 30
0.0
 10
-0.5270407132982274
 20
-7.809888407946201
 30
0.0
 10
-0.5233834869068822
 20
-7.809985968983497
 30
0.0
 10
-0.5214886097798006
 20
-7.810036517174473
 30
0.0
  0
SPLINE
  5
8C
330
1F
100
AcDbEntity
  8
0
  6
Continuous
 62
     7
370
    25
100
AcDbSpline
210
0.0
220
0.0
230
1.0
 70
     8
 71
     3
 72
    23
 73
    19
 74
     0
 42
0.000000001
 43
0.00000001
 40
0.0
 40
0.0
 40
0.0
 40
0.0
 40
0.0671144531523479
 40
0.1310077803067358
 40
0.191893669580069
 40
0.2514615837594288
 40
0.3093905889314263
 40
0.3665491820258454
 40
0.4232796530147759
 40
0.4801468102801834
 40
0.5378209936256267
 40
0.5972718592278133
 40
0.6582803692241709
 40
0.7219074113835908
 40
0.7877933055446584
 40
0.8559377081779327
 40
0.9264432938628222
 40
1.0
 40
1.0
 40
1.0
 40
1.0
 10
-0.5186802821522758
 20
-7.700199703297947
 30
0.0
 10
-0.5205137931910476
 20
-7.700244272289342
 30
0.0
 10
-0.524092816785446
 20
-7.700331271204756
 30
0.0
 10
-0.5292866783046194
 20
-7.701105684654041
 30
0.0
 10
-0.5341852741364259
 20
-7.702302659443705
 30
0.0
 10
-0.5387410359364102
 20
-7.704063387151844
 30
0.0
 10
-0.5429779634792166
 20
-7.70626735694095
 30
0.0
 10
-0.5469107179745623
 20
-7.708846479478811
 30
0.0
 10
-0.5504420925468434
 20
-7.711908577036615
 30
0.0
 10
-0.5536450753771955
 20
-7.715326620760612
 30
0.0
 10
-0.5565043305390418
 20
-7.719132709312658
 30
0.0
 10
-0.5589947661355589
 20
-7.723320859487692
 30
0.0
 10
-0.5611216248383423
 20
-7.727883388521632
 30
0.0
 10
-0.5628906060002001
 20
-7.73278174251725
 30
0.0
 10
-0.5642996344062426
 20
-7.737999090723848
 30
0.0
 10
-0.5652705364123569
 20
-7.743503043792414
 30
0.0
 10
-0.5659330531594616
 20
-7.749266910681012
 30
0.0
 10
-0.5659880987770506
 20
-7.753202334654417
 30
0.0
 10
-0.5660162044962218
 20
-7.755211721157128
 30
0.0
  0
SPLINE
  5
8D
330
1F
100
AcDbEntity
  8
0
  6
Continuous
 62
     7
370
    25
100
AcDbSpline
210
0.0
220
0.0
230
1.0
 70
     8
 71
     3
 72
    13
 73
     9
 74
     0
 42
0.000000001
 43
0.00000001
 40
0.0
 40
0.0
 40
0.0
 40
0.0
 40
0.2440551001113719
 40
0.4850160308760476
 40
0.6072088180420319
 40
0.7333265041611066
 40
0.8647045976924186
 40
0.9999999999999999
 40
0.9999999999999999
 40
0.9999999999999999
 40
0.9999999999999999
 10
-0.4841378523337205
 20
-7.70818783521624
 30
0.0
 10
-0.4867999816904763
 20
-7.707010452247306
 30
0.0
 10
-0.492090489504913
 20
-7.704670613357836
 30
0.0
 10
-0.499031056726919
 20
-7.702543057590564
 30
0.0
 10
-0.504738453431537
 20
-7.701328868393807
 30
0.0
 10
-0.509220484424949
 20
-7.70068234540782
 30
0.0
 10
-0.5138876051853074
 20
-7.700260633204556
 30
0.0
 10
-0.5170671544666109
 20
-7.70022021119362
 30
0.0
 10
-0.5186802821522758
 20
-7.700199703297947
 30
0.0
  0
SPLINE
  5
8F
330
1F
100
AcDbEntity
  8
0
  6
Continuous
 62
     7
370
    25
100
AcDbSpline
210
0.0
220
0.0
230
1.0
 70
     8
 71
     3
 72
    15
 73
    11
 74
     0
 42
0.000000001
 43
0.00000001
 40
0.0
 40
0.0
 40
0.0
 40
0.0
 40
0.1113429531055698
 40
0.2209118606361959
 40
0.3310966169938122
 40
0.4444410489410443
 40
0.5644137332875832
 40
0.6965059415443474
 40
0.8421215270253734
 40
1.0
 40
1.0
 40
1.0
 40
1.0
 10
-0.2851834417437399
 20
-7.759517823519333
 30
0.0
 10
-0.2842659645358537
 20
-7.759854553978516
 30
0.0
 10
-0.2824456284352542
 20
-7.760522649715121
 30
0.0
 10
-0.2799398748968883
 20
-7.762007391688557
 30
0.0
 10
-0.277589075892659
 20
-7.763749195784899
 30
0.0
 10
-0.2754936567389283
 20
-7.765925175311346
 30
0.0
 10
-0.2735209608546003
 20
-7.768448194978356
 30
0.0
 10
-0.2715168294957226
 20
-7.771299499103889
 30
0.0
 10
-0.2694941365802148
 20
-7.774538012016718
 30
0.0
 10
-0.2682174966802936
 20
-7.776870580656323
 30
0.0
 10
-0.2675533849709452
 20
-7.778083989501302
 30
0.0
  0
SPLINE
  5
90
330
1F
100
AcDbEntity
  8
0
  6
Continuous
 62
     7
370
    25
100
AcDbSpline
210
0.0
220
0.0
230
1.0
 70
     8
 71
     3
 72
    23
 73
    19
 74
     0
 42
0.000000001
 43
0.00000001
 40
0.0
 40
0.0
 40
0.0
 40
0.0
 40
0.0645433813264772
 40
0.1269325358742981
 40
0.1887239696179319
 40
0.2498048995363336
 40
0.3098347392086572
 40
0.3694789442278564
 40
0.4286310696729505
 40
0.4883268365820708
 40
0.5481962970213263
 40
0.6087110795028574
 40
0.6694542204655477
 40
0.7326061706097529
 40
0.7970660777822844
 40
0.8628166992229452
 40
0.9303192074984492
 40
1.0
 40
1.0
 40
1.0
 40
1.0
 10
-0.256476092662375
 20
-7.723071971642122
 30
0.0
 10
-0.2565010086035918
 20
-7.724154727957889
 30
0.0
 10
-0.2565500088811931
 20
-7.726284102063642
 30
0.0
 10
-0.2569107655522848
 20
-7.729432296091955
 30
0.0
 10
-0.2574554514377828
 20
-7.732494640768485
 30
0.0
 10
-0.2582773297257557
 20
-7.73545374545294
 30
0.0
 10
-0.259295246310029
 20
-7.738313955622349
 30
0.0
 10
-0.2605957330724146
 20
-7.74102065495925
 30
0.0
 10
-0.2620539212548003
 20
-7.743638622440887
 30
0.0
 10
-0.2637766034290897
 20
-7.746097924410916
 30
0.0
 10
-0.2657179642519135
 20
-7.748415986426235
 30
0.0
 10
-0.2678687299107291
 20
-7.750567733171627
 30
0.0
 10
-0.2702453637329945
 20
-7.752551809214565
 30
0.0
 10
-0.2728156426888519
 20
-7.754395622875369
 30
0.0
 10
-0.2756337161069621
 20
-7.75601127115922
 30
0.0
 10
-0.278640491475707
 20
-7.757416191836557
 30
0.0
 10
-0.2818319259063545
 20
-7.758614445953996
 30
0.0
 10
-0.2840545059486042
 20
-7.759213526801218
 30
0.0
 10
-0.2851834417437399
 20
-7.759517823519333
 30
0.0
  0
SPLINE
  5
91
330
1F
100
AcDbEntity
  8
0
  6
Continuous
 62
     7
370
    25
100
AcDbSpline
210
0.0
220
0.0
230
1.0
 70
     8
 71
     3
 72
    23
 73
    19
 74
     0
 42
0.000000001
 43
0.00000001
 40
0.0
 40
0.0
 40
0.0
 40
0.0
 40
0.0868777829356306
 40
0.1675023444434791
 40
0.2427487657747928
 40
0.3126619708894382
 40
0.3779965732015738
 40
0.4397361764471622
 40
0.4985078912926244
 40
0.554750429562935
 40
0.608858147941712
 40
0.6620125689196849
 40
0.7153098310816324
 40
0.7693135920987415
 40
0.8245399606242224
 40
0.8807040792547779
 40
0.9393969990310307
 40
0.9999999999999999
 40
0.9999999999999999
 40
0.9999999999999999
 40
0.9999999999999999
 10
-0.3017213711058305
 20
-7.686220472440935
 30
0.0
 10
-0.2997959256383657
 20
-7.686245420507849
 30
0.0
 10
-0.2960836229183779
 20
-7.686293520949137
 30
0.0
 10
-0.2907233899072018
 20
-7.686800527284325
 30
0.0
 10
-0.2857823820074815
 20
-7.687618541270018
 30
0.0
 10
-0.2812678724856815
 20
-7.688814952738503
 30
0.0
 10
-0.2771504324925347
 20
-7.690278034418857
 30
0.0
 10
-0.2734119824609715
 20
-7.692022522409499
 30
0.0
 10
-0.2700586340280502
 20
-7.69405930934695
 30
0.0
 10
-0.2670698431762097
 20
-7.696333326286514
 30
0.0
 10
-0.2644838552680103
 20
-7.698885637130987
 30
0.0
 10
-0.262284776993941
 20
-7.701692213667069
 30
0.0
 10
-0.2604235130849394
 20
-7.704732532960057
 30
0.0
 10
-0.2589658426123738
 20
-7.708034899179327
 30
0.0
 10
-0.2578416444436221
 20
-7.711530310232616
 30
0.0
 10
-0.2570796605373065
 20
-7.715225034299863
 30
0.0
 10
-0.2565515640376184
 20
-7.719083509523883
 30
0.0
 10
-0.2565015168938458
 20
-7.721728368404741
 30
0.0
 10
-0.2564760926623751
 20
-7.723071971642123
 30
0.0
  0
SPLINE
  5
97
330
1F
100
AcDbEntity
  8
0
  6
Continuous
 62
     7
370
    25
100
AcDbSpline
210
0.0
220
0.0
230
1.0
 70
     8
 71
     3
 72
    15
 73
    11
 74
     0
 42
0.000000001
 43
0.00000001
 40
0.0
 40
0.0
 40
0.0
 40
0.0
 40
0.1673466239672217
 40
0.3098988985919597
 40
0.4353681550644656
 40
0.5481686857745631
 40
0.6556131433488349
 40
0.7622089346680276
 40
0.8757459293316101
 40
1.0
 40
1.0
 40
1.0
 40
1.0
 10
-0.2874613074860656
 20
-7.780985928049745
 30
0.0
 10
-0.2881815149047537
 20
-7.779463339125573
 30
0.0
 10
-0.2895152226337661
 20
-7.776643750540966
 30
0.0
 10
-0.291803427773794
 20
-7.772890904310336
 30
0.0
 10
-0.2942701728315717
 20
-7.769944388634843
 30
0.0
 10
-0.2968626309422827
 20
-7.767595331120225
 30
0.0
 10
-0.2997413894246915
 20
-7.765957434622015
 30
0.0
 10
-0.3028567063662165
 20
-7.764839401753265
 30
0.0
 10
-0.3062840336560387
 20
-7.764225537030271
 30
0.0
 10
-0.3086773419820811
 20
-7.764146209846405
 30
0.0
 10
-0.3099279285062642
 20
-7.764104758644289
 30
0.0
  0
CIRCLE
  5
9B
330
1F
100
AcDbEntity
  8
0
  6
Continuous
 62
     7
370
    25
100
AcDbCircle
 10
-0.5905511811
 20
-3.937007874
 30
0.0
 40
0.279999999999998
  0
SPLINE
  5
194
330
1F
100
AcDbEntity
  8
0
  6
Continuous
 62
     7
370
    25
100
AcDbSpline
210
0.0
220
0.0
230
1.0
 70
     8
 71
     3
 72
    23
 73
    19
 74
     0
 42
0.000000001
 43
0.00000001
 40
0.0
 40
0.0
 40
0.0
 40
0.0
 40
0.0709815902719268
 40
0.1375300704237808
 40
0.2002360684831048
 40
0.2603158501036403
 40
0.3176086422797154
 40
0.3732709724312951
 40
0.4289213565949277
 40
0.4842842637561316
 40
0.5402206474949707
 40
0.597975765441595
 40
0.6574325960028947
 40
0.7195794448742396
 40
0.7842480877933304
 40
0.8520780338707624
 40
0.9241287541788469
 40
0.9999999999999999
 40
0.9999999999999999
 40
0.9999999999999999
 40
0.9999999999999999
 10
-0.2764464224581071
 20
-7.724413728175272
 30
0.0
 10
-0.2764610501561035
 20
-7.723507933808779
 30
0.0
 10
-0.2764893919885121
 20
-7.721752915887428
 30
0.0
 10
-0.2768024552016604
 20
-7.719212282028072
 30
0.0
 10
-0.2773394390300973
 20
-7.716854116884165
 30
0.0
 10
-0.278050610771536
 20
-7.714666544331998
 30
0.0
 10
-0.2789511406581883
 20
-7.712644999788941
 30
0.0
 10
-0.2800925796339815
 20
-7.710814477252713
 30
0.0
 10
-0.2814352791357098
 20
-7.709159384484421
 30
0.0
 10
-0.2829753605871108
 20
-7.707680037868871
 30
0.0
 10
-0.2847135975808611
 20
-7.706394817835003
 30
0.0
 10
-0.2866228425573962
 20
-7.705278462145137
 30
0.0
 10
-0.2886934092718332
 20
-7.704296433869098
 30
0.0
 10
-0.2909456322198077
 20
-7.703524044900285
 30
0.0
 10
-0.2933615387578483
 20
-7.702941871116778
 30
0.0
 10
-0.2959346577243472
 20
-7.702495338929303
 30
0.0
 10
-0.2986797105021571
 20
-7.702256710611405
 30
0.0
 10
-0.3005664263241734
 20
-7.702217069009642
 30
0.0
 10
-0.3015341492639955
 20
-7.702196736277521
 30
0.0
  0
SPLINE
  5
198
330
1F
100
AcDbEntity
  8
0
  6
Continuous
 62
     7
370
    25
100
AcDbSpline
210
0.0
220
0.0
230
1.0
 70
     8
 71
     3
 72
    23
 73
    19
 74
     0
 42
0.000000001
 43
0.00000001
 40
0.0
 40
0.0
 40
0.0
 40
0.0
 40
0.0751448535959582
 40
0.1467879128105011
 40
0.2146472686044752
 40
0.2803386651009879
 40
0.3432139378788511
 40
0.4036240119042444
 40
0.462440890789398
 40
0.5198011161601864
 40
0.5761540110449219
 40
0.6322047709161898
 40
0.6885985086364236
 40
0.7466222260879306
 40
0.8063856721767144
 40
0.86803133108533
 40
0.932408368543555
 40
0.9999999999999999
 40
0.9999999999999999
 40
0.9999999999999999
 40
0.9999999999999999
 10
-0.3039368295675445
 20
-7.748128494807704
 30
0.0
 10
-0.3029066814234943
 20
-7.748110087190711
 30
0.0
 10
-0.3008943906448898
 20
-7.748074129762504
 30
0.0
 10
-0.2979589920575941
 20
-7.747807352351363
 30
0.0
 10
-0.2951934673079852
 20
-7.747281291737019
 30
0.0
 10
-0.2925709393822893
 20
-7.746658415134065
 30
0.0
 10
-0.2901275923505457
 20
-7.745777829794493
 30
0.0
 10
-0.2878747698984312
 20
-7.744699121731887
 30
0.0
 10
-0.2857587976379341
 20
-7.743510044498273
 30
0.0
 10
-0.2838940453628455
 20
-7.742045333358385
 30
0.0
 10
-0.2821820187004699
 20
-7.740462116896115
 30
0.0
 10
-0.2807194673862329
 20
-7.73866025795374
 30
0.0
 10
-0.2794259993938028
 20
-7.736710417931485
 30
0.0
 10
-0.2783224898492315
 20
-7.734585890329745
 30
0.0
 10
-0.2774841182661243
 20
-7.732265505031958
 30
0.0
 10
-0.276904274336507
 20
-7.729782125205975
 30
0.0
 10
-0.2765111211131224
 20
-7.727151234516971
 30
0.0
 10
-0.2764683360733773
 20
-7.725340929223846
 30
0.0
 10
-0.2764464224581071
 20
-7.724413728175272
 30
0.0
  0
LINE
  5
199
330
1F
100
AcDbEntity
  8
0
  6
Continuous
 62
     7
370
    25
100
AcDbLine
 10
-0.9594317015
 20
-7.6902145384
 30
0.0
 11
-0.9594317015
 21
-7.7081878352
 31
0.0
  0
LINE
  5
19A
330
1F
100
AcDbEntity
  8
0
  6
Continuous
 62
     7
370
    25
100
AcDbLine
 10
-0.9594317015
 20
-7.8020483853
 30
0.0
 11
-0.9594317015
 21
-7.8200216821
 31
0.0
  0
LINE
  5
19B
330
1F
100
AcDbEntity
  8
0
  6
Continuous
 62
     7
370
    25
100
AcDbLine
 10
-0.8276275248
 20
-7.8519742097
 30
0.0
 11
-0.709802579
 21
-7.8519742097
 31
0.0
  0
LINE
  5
19C
330
1F
100
AcDbEntity
  8
0
  6
Continuous
 62
     7
370
    25
100
AcDbLine
 10
-0.8276275248
 20
-7.8679504736
 30
0.0
 11
-0.8276275248
 21
-7.8519742097
 31
0.0
  0
LINE
  5
19D
330
1F
100
AcDbEntity
  8
0
  6
Continuous
 62
     7
370
    25
100
AcDbLine
 10
-0.709802579
 20
-7.8679504736
 30
0.0
 11
-0.8276275248
 21
-7.8679504736
 31
0.0
  0
LINE
  5
19E
330
1F
100
AcDbEntity
  8
0
  6
Continuous
 62
     7
370
    25
100
AcDbLine
 10
-0.709802579
 20
-7.8519742097
 30
0.0
 11
-0.709802579
 21
-7.8679504736
 31
0.0
  0
LINE
  5
19F
330
1F
100
AcDbEntity
  8
0
  6
Continuous
 62
     7
370
    25
100
AcDbLine
 10
-0.4841378523
 20
-7.7461314618
 30
0.0
 11
-0.4841378523
 21
-7.8175565945
 31
0.0
  0
LINE
  5
1A0
330
1F
100
AcDbEntity
  8
0
  6
Continuous
 62
     7
370
    25
100
AcDbLine
 10
-0.5318170147
 20
-7.7461314618
 30
0.0
 11
-0.4841378523
 21
-7.7461314618
 31
0.0
  0
LINE
  5
1A1
330
1F
100
AcDbEntity
  8
0
  6
Continuous
 62
     7
370
    25
100
AcDbLine
 10
-0.5318170147
 20
-7.7621077257
 30
0.0
 11
-0.5318170147
 21
-7.7461314618
 31
0.0
  0
LINE
  5
1A2
330
1F
100
AcDbEntity
  8
0
  6
Continuous
 62
     7
370
    25
100
AcDbLine
 10
-0.5041081821
 20
-7.7621077257
 30
0.0
 11
-0.5318170147
 21
-7.7621077257
 31
0.0
  0
LINE
  5
1A3
330
1F
100
AcDbEntity
  8
0
  6
Continuous
 62
     7
370
    25
100
AcDbLine
 10
-0.5041081821
 20
-7.807103375
 30
0.0
 11
-0.5041081821
 21
-7.7621077257
 31
0.0
  0
LINE
  5
1A4
330
1F
100
AcDbEntity
  8
0
  6
Continuous
 62
     7
370
    25
100
AcDbLine
 10
-0.4841378523
 20
-7.6902145384
 30
0.0
 11
-0.4841378523
 21
-7.7081878352
 31
0.0
  0
LINE
  5
1A5
330
1F
100
AcDbEntity
  8
0
  6
Continuous
 62
     7
370
    25
100
AcDbLine
 10
-0.3383544448
 20
-7.6862204724
 30
0.0
 11
-0.3017213711
 21
-7.6862204724
 31
0.0
  0
LINE
  5
1A6
330
1F
100
AcDbEntity
  8
0
  6
Continuous
 62
     7
370
    25
100
AcDbLine
 10
-0.3383544448
 20
-7.824015748
 30
0.0
 11
-0.3383544448
 21
-7.6862204724
 31
0.0
  0
LINE
  5
1A7
330
1F
100
AcDbEntity
  8
0
  6
Continuous
 62
     7
370
    25
100
AcDbLine
 10
-0.318384115
 20
-7.824015748
 30
0.0
 11
-0.3383544448
 21
-7.824015748
 31
0.0
  0
LINE
  5
1A8
330
1F
100
AcDbEntity
  8
0
  6
Continuous
 62
     7
370
    25
100
AcDbLine
 10
-0.318384115
 20
-7.7641047586
 30
0.0
 11
-0.318384115
 21
-7.824015748
 31
0.0
  0
LINE
  5
1A9
330
1F
100
AcDbEntity
  8
0
  6
Continuous
 62
     7
370
    25
100
AcDbLine
 10
-0.3099279285
 20
-7.7641047586
 30
0.0
 11
-0.318384115
 21
-7.7641047586
 31
0.0
  0
LINE
  5
1AA
330
1F
100
AcDbEntity
  8
0
  6
Continuous
 62
     7
370
    25
100
AcDbLine
 10
-0.2676469959
 20
-7.824015748
 30
0.0
 11
-0.2874613075
 21
-7.780985928
 31
0.0
  0
LINE
  5
1AB
330
1F
100
AcDbEntity
  8
0
  6
Continuous
 62
     7
370
    25
100
AcDbLine
 10
-0.2464909278
 20
-7.824015748
 30
0.0
 11
-0.2676469959
 21
-7.824015748
 31
0.0
  0
LINE
  5
1AC
330
1F
100
AcDbEntity
  8
0
  6
Continuous
 62
     7
370
    25
100
AcDbLine
 10
-0.267553385
 20
-7.7780839895
 30
0.0
 11
-0.2464909278
 21
-7.824015748
 31
0.0
  0
LINE
  5
1AD
330
1F
100
AcDbEntity
  8
0
  6
Continuous
 62
     7
370
    25
100
AcDbLine
 10
0.0
 20
-3.5403070866
 30
0.0
 11
0.0034772392
 21
-3.5403070866
 31
0.0
  0
LINE
  5
1AE
330
1F
100
AcDbEntity
  8
0
  6
Continuous
 62
     7
370
    25
100
AcDbLine
 10
0.0
 20
-3.5403070866
 30
0.0
 11
0.0
 21
-3.5433070866
 31
0.0
  0
LINE
  5
1AF
330
1F
100
AcDbEntity
  8
0
  6
Continuous
 62
     7
370
    25
100
AcDbLine
 10
0.0
 20
-3.5875012604
 30
0.0
 11
0.0
 21
-3.8928137002
 31
0.0
  0
LINE
  5
1B0
330
1F
100
AcDbEntity
  8
0
  6
Continuous
 62
     7
370
    25
100
AcDbLine
 10
0.0
 20
-3.940007874
 30
0.0
 11
0.0
 21
-3.937007874
 31
0.0
  0
LINE
  5
1B1
330
1F
100
AcDbEntity
  8
0
  6
Continuous
 62
     7
370
    25
100
AcDbLine
 10
0.0
 20
-3.940007874
 30
0.0
 11
0.0034772392
 21
-3.940007874
 31
0.0
  0
LINE
  5
1B2
330
1F
100
AcDbEntity
  8
0
  6
Continuous
 62
     7
370
    25
100
AcDbLine
 10
0.1767766953
 20
-3.940007874
 30
0.0
 11
0.0407169346
 21
-3.940007874
 31
0.0
  0
LINE
  5
1B3
330
1F
100
AcDbEntity
  8
0
  6
Continuous
 62
     7
370
    25
100
AcDbLine
 10
0.1767766953
 20
-3.940007874
 30
0.0
 11
0.1767766953
 21
-4.3277086614
 31
0.0
  0
LINE
  5
1B4
330
1F
100
AcDbEntity
  8
0
  6
Continuous
 62
     7
370
    25
100
AcDbLine
 10
0.0407169346
 20
-4.3277086614
 30
0.0
 11
0.1767766953
 21
-4.3277086614
 31
0.0
  0
LINE
  5
1B5
330
1F
100
AcDbEntity
  8
0
  6
Continuous
 62
     7
370
    25
100
AcDbLine
 10
0.0
 20
-4.3277086614
 30
0.0
 11
0.0034772392
 21
-4.3277086614
 31
0.0
  0
LINE
  5
1B6
330
1F
100
AcDbEntity
  8
0
  6
Continuous
 62
     7
370
    25
100
AcDbLine
 10
0.0
 20
-4.3277086614
 30
0.0
 11
0.0
 21
-4.3307086614
 31
0.0
  0
LINE
  5
1B7
330
1F
100
AcDbEntity
  8
0
  6
Continuous
 62
     7
370
    25
100
AcDbLine
 10
0.0
 20
-4.3749028352
 30
0.0
 11
0.0
 21
-4.680215275
 31
0.0
  0
LINE
  5
1B8
330
1F
100
AcDbEntity
  8
0
  6
Continuous
 62
     7
370
    25
100
AcDbLine
 10
0.0
 20
-4.7274094488
 30
0.0
 11
0.0
 21
-4.7244094488
 31
0.0
  0
LINE
  5
1B9
330
1F
100
AcDbEntity
  8
0
  6
Continuous
 62
     7
370
    25
100
AcDbLine
 10
0.0
 20
-4.7274094488
 30
0.0
 11
0.0034772392
 21
-4.7274094488
 31
0.0
  0
LINE
  5
1BA
330
1F
100
AcDbEntity
  8
0
  6
Continuous
 62
     7
370
    25
100
AcDbLine
 10
0.1767766953
 20
-4.7274094488
 30
0.0
 11
0.0407169346
 21
-4.7274094488
 31
0.0
  0
LINE
  5
1BB
330
1F
100
AcDbEntity
  8
0
  6
Continuous
 62
     7
370
    25
100
AcDbLine
 10
0.1767766953
 20
-4.7274094488
 30
0.0
 11
0.1767766953
 21
-5.1151102362
 31
0.0
  0
LINE
  5
1BC
330
1F
100
AcDbEntity
  8
0
  6
Continuous
 62
     7
370
    25
100
AcDbLine
 10
0.0407169346
 20
-5.1151102362
 30
0.0
 11
0.1767766953
 21
-5.1151102362
 31
0.0
  0
LINE
  5
1BD
330
1F
100
AcDbEntity
  8
0
  6
Continuous
 62
     7
370
    25
100
AcDbLine
 10
0.0
 20
-5.1151102362
 30
0.0
 11
0.0034772392
 21
-5.1151102362
 31
0.0
  0
LINE
  5
1BE
330
1F
100
AcDbEntity
  8
0
  6
Continuous
 62
     7
370
    25
100
AcDbLine
 10
0.0
 20
-5.1151102362
 30
0.0
 11
0.0
 21
-5.1181102362
 31
0.0
  0
LINE
  5
1BF
330
1F
100
AcDbEntity
  8
0
  6
Continuous
 62
     7
370
    25
100
AcDbLine
 10
0.0
 20
-5.16230441
 30
0.0
 11
0.0
 21
-5.4676168498
 31
0.0
  0
LINE
  5
1C0
330
1F
100
AcDbEntity
  8
0
  6
Continuous
 62
     7
370
    25
100
AcDbLine
 10
0.0
 20
-5.5148110236
 30
0.0
 11
0.0
 21
-5.5118110236
 31
0.0
  0
LINE
  5
1C1
330
1F
100
AcDbEntity
  8
0
  6
Continuous
 62
     7
370
    25
100
AcDbLine
 10
0.0
 20
-5.5148110236
 30
0.0
 11
0.0034772392
 21
-5.5148110236
 31
0.0
  0
LINE
  5
1C2
330
1F
100
AcDbEntity
  8
0
  6
Continuous
 62
     7
370
    25
100
AcDbLine
 10
0.1767766953
 20
-5.5148110236
 30
0.0
 11
0.0407169346
 21
-5.5148110236
 31
0.0
  0
LINE
  5
1C3
330
1F
100
AcDbEntity
  8
0
  6
Continuous
 62
     7
370
    25
100
AcDbLine
 10
0.1767766953
 20
-5.5148110236
 30
0.0
 11
0.1767766953
 21
-5.902511811
 31
0.0
  0
LINE
  5
1C4
330
1F
100
AcDbEntity
  8
0
  6
Continuous
 62
     7
370
    25
100
AcDbLine
 10
0.0407169346
 20
-5.902511811
 30
0.0
 11
0.1767766953
 21
-5.902511811
 31
0.0
  0
LINE
  5
1C5
330
1F
100
AcDbEntity
  8
0
  6
Continuous
 62
     7
370
    25
100
AcDbLine
 10
0.0
 20
-5.902511811
 30
0.0
 11
0.0034772392
 21
-5.902511811
 31
0.0
  0
LINE
  5
1C6
330
1F
100
AcDbEntity
  8
0
  6
Continuous
 62
     7
370
    25
100
AcDbLine
 10
0.0
 20
-5.902511811
 30
0.0
 11
0.0
 21
-5.905511811
 31
0.0
  0
LINE
  5
1C7
330
1F
100
AcDbEntity
  8
0
  6
Continuous
 62
     7
370
    25
100
AcDbLine
 10
0.0
 20
-5.9497059848
 30
0.0
 11
0.0
 21
-6.2550184246
 31
0.0
  0
LINE
  5
1C8
330
1F
100
AcDbEntity
  8
0
  6
Continuous
 62
     7
370
    25
100
AcDbLine
 10
0.0
 20
-6.3022125984
 30
0.0
 11
0.0
 21
-6.2992125984
 31
0.0
  0
LINE
  5
1C9
330
1F
100
AcDbEntity
  8
0
  6
Continuous
 62
     7
370
    25
100
AcDbLine
 10
0.0
 20
-6.3022125984
 30
0.0
 11
0.0034772392
 21
-6.3022125984
 31
0.0
  0
LINE
  5
1CA
330
1F
100
AcDbEntity
  8
0
  6
Continuous
 62
     7
370
    25
100
AcDbLine
 10
0.1767766953
 20
-6.3022125984
 30
0.0
 11
0.0407169346
 21
-6.3022125984
 31
0.0
  0
LINE
  5
1CB
330
1F
100
AcDbEntity
  8
0
  6
Continuous
 62
     7
370
    25
100
AcDbLine
 10
0.1767766953
 20
-6.3022125984
 30
0.0
 11
0.1767766953
 21
-6.6899133858
 31
0.0
  0
LINE
  5
1CC
330
1F
100
AcDbEntity
  8
0
  6
Continuous
 62
     7
370
    25
100
AcDbLine
 10
0.0407169346
 20
-6.6899133858
 30
0.0
 11
0.1767766953
 21
-6.6899133858
 31
0.0
  0
LINE
  5
1CD
330
1F
100
AcDbEntity
  8
0
  6
Continuous
 62
     7
370
    25
100
AcDbLine
 10
0.0
 20
-6.6899133858
 30
0.0
 11
0.0034772392
 21
-6.6899133858
 31
0.0
  0
LINE
  5
1CE
330
1F
100
AcDbEntity
  8
0
  6
Continuous
 62
     7
370
    25
100
AcDbLine
 10
0.0
 20
-6.6899133858
 30
0.0
 11
0.0
 21
-6.6929133858
 31
0.0
  0
LINE
  5
1CF
330
1F
100
AcDbEntity
  8
0
  6
Continuous
 62
     7
370
    25
100
AcDbLine
 10
0.0
 20
-6.7371075597
 30
0.0
 11
0.0
 21
-7.0424199994
 31
0.0
  0
LINE
  5
1D0
330
1F
100
AcDbEntity
  8
0
  6
Continuous
 62
     7
370
    25
100
AcDbLine
 10
0.0
 20
-7.0896141732
 30
0.0
 11
0.0
 21
-7.0866141732
 31
0.0
  0
LINE
  5
1D1
330
1F
100
AcDbEntity
  8
0
  6
Continuous
 62
     7
370
    25
100
AcDbLine
 10
0.0
 20
-7.0896141732
 30
0.0
 11
0.0034772392
 21
-7.0896141732
 31
0.0
  0
LINE
  5
1D2
330
1F
100
AcDbEntity
  8
0
  6
Continuous
 62
     7
370
    25
100
AcDbLine
 10
0.1767766953
 20
-7.0896141732
 30
0.0
 11
0.0407169346
 21
-7.0896141732
 31
0.0
  0
LINE
  5
1D3
330
1F
100
AcDbEntity
  8
0
  6
Continuous
 62
     7
370
    25
100
AcDbLine
 10
0.1767766953
 20
-7.0896141732
 30
0.0
 11
0.1767766953
 21
-7.4773149606
 31
0.0
  0
LINE
  5
1D4
330
1F
100
AcDbEntity
  8
0
  6
Continuous
 62
     7
370
    25
100
AcDbLine
 10
0.0407169346
 20
-7.4773149606
 30
0.0
 11
0.1767766953
 21
-7.4773149606
 31
0.0
  0
LINE
  5
1D5
330
1F
100
AcDbEntity
  8
0
  6
Continuous
 62
     7
370
    25
100
AcDbLine
 10
0.0
 20
-7.4773149606
 30
0.0
 11
0.0034772392
 21
-7.4773149606
 31
0.0
  0
LINE
  5
1D6
330
1F
100
AcDbEntity
  8
0
  6
Continuous
 62
     7
370
    25
100
AcDbLine
 10
0.0
 20
-7.4773149606
 30
0.0
 11
0.0
 21
-7.4803149606
 31
0.0
  0
LINE
  5
1D7
330
1F
100
AcDbEntity
  8
0
  6
Continuous
 62
     7
370
    25
100
AcDbLine
 10
0.0
 20
-7.5245091345
 30
0.0
 11
0.0
 21
-7.874015748
 31
0.0
  0
LINE
  5
1D8
330
1F
100
AcDbEntity
  8
0
  6
Continuous
 62
     7
370
    25
100
AcDbLine
 10
0.0
 20
-7.874015748
 30
0.0
 11
-1.1811023622
 21
-7.874015748
 31
0.0
  0
LINE
  5
1D9
330
1F
100
AcDbEntity
  8
0
  6
Continuous
 62
     7
370
    25
100
AcDbLine
 10
-1.1811023622
 20
-7.874015748
 30
0.0
 11
-1.1811023622
 21
-7.5245091345
 31
0.0
  0
LINE
  5
1DA
330
1F
100
AcDbEntity
  8
0
  6
Continuous
 62
     7
370
    25
100
AcDbLine
 10
-1.1811023622
 20
-7.4773149606
 30
0.0
 11
-1.1811023622
 21
-7.4803149606
 31
0.0
  0
LINE
  5
1DB
330
1F
100
AcDbEntity
  8
0
  6
Continuous
 62
     7
370
    25
100
AcDbLine
 10
-1.1811023622
 20
-7.4773149606
 30
0.0
 11
-1.1845796014
 21
-7.4773149606
 31
0.0
  0
LINE
  5
1DC
330
1F
100
AcDbEntity
  8
0
  6
Continuous
 62
     7
370
    25
100
AcDbLine
 10
-1.3578790575
 20
-7.4773149606
 30
0.0
 11
-1.2218192968
 21
-7.4773149606
 31
0.0
  0
LINE
  5
1DD
330
1F
100
AcDbEntity
  8
0
  6
Continuous
 62
     7
370
    25
100
AcDbLine
 10
-1.3578790575
 20
-7.4773149606
 30
0.0
 11
-1.3578790575
 21
-7.0896141732
 31
0.0
  0
LINE
  5
1DE
330
1F
100
AcDbEntity
  8
0
  6
Continuous
 62
     7
370
    25
100
AcDbLine
 10
-1.2218192968
 20
-7.0896141732
 30
0.0
 11
-1.3578790575
 21
-7.0896141732
 31
0.0
  0
LINE
  5
1DF
330
1F
100
AcDbEntity
  8
0
  6
Continuous
 62
     7
370
    25
100
AcDbLine
 10
-1.1811023622
 20
-7.0896141732
 30
0.0
 11
-1.1845796014
 21
-7.0896141732
 31
0.0
  0
LINE
  5
1E0
330
1F
100
AcDbEntity
  8
0
  6
Continuous
 62
     7
370
    25
100
AcDbLine
 10
-1.1811023622
 20
-7.0896141732
 30
0.0
 11
-1.1811023622
 21
-7.0866141732
 31
0.0
  0
LINE
  5
1E1
330
1F
100
AcDbEntity
  8
0
  6
Continuous
 62
     7
370
    25
100
AcDbLine
 10
-1.1811023622
 20
-7.0424199994
 30
0.0
 11
-1.1811023622
 21
-6.7371075597
 31
0.0
  0
LINE
  5
1E2
330
1F
100
AcDbEntity
  8
0
  6
Continuous
 62
     7
370
    25
100
AcDbLine
 10
-1.1811023622
 20
-6.6899133858
 30
0.0
 11
-1.1811023622
 21
-6.6929133858
 31
0.0
  0
LINE
  5
1E3
330
1F
100
AcDbEntity
  8
0
  6
Continuous
 62
     7
370
    25
100
AcDbLine
 10
-1.1811023622
 20
-6.6899133858
 30
0.0
 11
-1.1845796014
 21
-6.6899133858
 31
0.0
  0
LINE
  5
1E4
330
1F
100
AcDbEntity
  8
0
  6
Continuous
 62
     7
370
    25
100
AcDbLine
 10
-1.3578790575
 20
-6.6899133858
 30
0.0
 11
-1.2218192968
 21
-6.6899133858
 31
0.0
  0
LINE
  5
1E5
330
1F
100
AcDbEntity
  8
0
  6
Continuous
 62
     7
370
    25
100
AcDbLine
 10
-1.3578790575
 20
-6.6899133858
 30
0.0
 11
-1.3578790575
 21
-6.3022125984
 31
0.0
  0
LINE
  5
1E6
330
1F
100
AcDbEntity
  8
0
  6
Continuous
 62
     7
370
    25
100
AcDbLine
 10
-1.2218192968
 20
-6.3022125984
 30
0.0
 11
-1.3578790575
 21
-6.3022125984
 31
0.0
  0
LINE
  5
1E7
330
1F
100
AcDbEntity
  8
0
  6
Continuous
 62
     7
370
    25
100
AcDbLine
 10
-1.1811023622
 20
-6.3022125984
 30
0.0
 11
-1.1845796014
 21
-6.3022125984
 31
0.0
  0
LINE
  5
1E8
330
1F
100
AcDbEntity
  8
0
  6
Continuous
 62
     7
370
    25
100
AcDbLine
 10
-1.1811023622
 20
-6.3022125984
 30
0.0
 11
-1.1811023622
 21
-6.2992125984
 31
0.0
  0
LINE
  5
1E9
330
1F
100
AcDbEntity
  8
0
  6
Continuous
 62
     7
370
    25
100
AcDbLine
 10
-1.1811023622
 20
-6.2550184246
 30
0.0
 11
-1.1811023622
 21
-5.9497059848
 31
0.0
  0
LINE
  5
1EA
330
1F
100
AcDbEntity
  8
0
  6
Continuous
 62
     7
370
    25
100
AcDbLine
 10
-1.1811023622
 20
-5.902511811
 30
0.0
 11
-1.1811023622
 21
-5.905511811
 31
0.0
  0
LINE
  5
1EB
330
1F
100
AcDbEntity
  8
0
  6
Continuous
 62
     7
370
    25
100
AcDbLine
 10
-1.1811023622
 20
-5.902511811
 30
0.0
 11
-1.1845796014
 21
-5.902511811
 31
0.0
  0
LINE
  5
1EC
330
1F
100
AcDbEntity
  8
0
  6
Continuous
 62
     7
370
    25
100
AcDbLine
 10
-1.3578790575
 20
-5.902511811
 30
0.0
 11
-1.2218192968
 21
-5.902511811
 31
0.0
  0
LINE
  5
1ED
330
1F
100
AcDbEntity
  8
0
  6
Continuous
 62
     7
370
    25
100
AcDbLine
 10
-1.3578790575
 20
-5.902511811
 30
0.0
 11
-1.3578790575
 21
-5.5148110236
 31
0.0
  0
LINE
  5
1EE
330
1F
100
AcDbEntity
  8
0
  6
Continuous
 62
     7
370
    25
100
AcDbLine
 10
-1.2218192968
 20
-5.5148110236
 30
0.0
 11
-1.3578790575
 21
-5.5148110236
 31
0.0
  0
LINE
  5
1EF
330
1F
100
AcDbEntity
  8
0
  6
Continuous
 62
     7
370
    25
100
AcDbLine
 10
-1.1811023622
 20
-5.5148110236
 30
0.0
 11
-1.1845796014
 21
-5.5148110236
 31
0.0
  0
LINE
  5
1F0
330
1F
100
AcDbEntity
  8
0
  6
Continuous
 62
     7
370
    25
100
AcDbLine
 10
-1.1811023622
 20
-5.5148110236
 30
0.0
 11
-1.1811023622
 21
-5.5118110236
 31
0.0
  0
LINE
  5
1F1
330
1F
100
AcDbEntity
  8
0
  6
Continuous
 62
     7
370
    25
100
AcDbLine
 10
-1.1811023622
 20
-5.4676168498
 30
0.0
 11
-1.1811023622
 21
-5.16230441
 31
0.0
  0
LINE
  5
1F2
330
1F
100
AcDbEntity
  8
0
  6
Continuous
 62
     7
370
    25
100
AcDbLine
 10
-1.1811023622
 20
-5.1151102362
 30
0.0
 11
-1.1811023622
 21
-5.1181102362
 31
0.0
  0
LINE
  5
1F3
330
1F
100
AcDbEntity
  8
0
  6
Continuous
 62
     7
370
    25
100
AcDbLine
 10
-1.1811023622
 20
-5.1151102362
 30
0.0
 11
-1.1845796014
 21
-5.1151102362
 31
0.0
  0
LINE
  5
1F4
330
1F
100
AcDbEntity
  8
0
  6
Continuous
 62
     7
370
    25
100
AcDbLine
 10
-1.3578790575
 20
-5.1151102362
 30
0.0
 11
-1.2218192968
 21
-5.1151102362
 31
0.0
  0
LINE
  5
1F5
330
1F
100
AcDbEntity
  8
0
  6
Continuous
 62
     7
370
    25
100
AcDbLine
 10
-1.3578790575
 20
-5.1151102362
 30
0.0
 11
-1.3578790575
 21
-4.7274094488
 31
0.0
  0
LINE
  5
1F6
330
1F
100
AcDbEntity
  8
0
  6
Continuous
 62
     7
370
    25
100
AcDbLine
 10
-1.2218192968
 20
-4.7274094488
 30
0.0
 11
-1.3578790575
 21
-4.7274094488
 31
0.0
  0
LINE
  5
1F7
330
1F
100
AcDbEntity
  8
0
  6
Continuous
 62
     7
370
    25
100
AcDbLine
 10
-1.1811023622
 20
-4.7274094488
 30
0.0
 11
-1.1845796014
 21
-4.7274094488
 31
0.0
  0
LINE
  5
1F8
330
1F
100
AcDbEntity
  8
0
  6
Continuous
 62
     7
370
    25
100
AcDbLine
 10
-1.1811023622
 20
-4.7274094488
 30
0.0
 11
-1.1811023622
 21
-4.7244094488
 31
0.0
  0
LINE
  5
1F9
330
1F
100
AcDbEntity
  8
0
  6
Continuous
 62
     7
370
    25
100
AcDbLine
 10
-1.1811023622
 20
-4.680215275
 30
0.0
 11
-1.1811023622
 21
-4.3749028352
 31
0.0
  0
LINE
  5
1FA
330
1F
100
AcDbEntity
  8
0
  6
Continuous
 62
     7
370
    25
100
AcDbLine
 10
-1.1811023622
 20
-4.3277086614
 30
0.0
 11
-1.1811023622
 21
-4.3307086614
 31
0.0
  0
LINE
  5
1FB
330
1F
100
AcDbEntity
  8
0
  6
Continuous
 62
     7
370
    25
100
AcDbLine
 10
-1.1811023622
 20
-4.3277086614
 30
0.0
 11
-1.1845796014
 21
-4.3277086614
 31
0.0
  0
LINE
  5
1FC
330
1F
100
AcDbEntity
  8
0
  6
Continuous
 62
     7
370
    25
100
AcDbLine
 10
-1.3578790575
 20
-4.3277086614
 30
0.0
 11
-1.2218192968
 21
-4.3277086614
 31
0.0
  0
LINE
  5
1FD
330
1F
100
AcDbEntity
  8
0
  6
Continuous
 62
     7
370
    25
100
AcDbLine
 10
-1.3578790575
 20
-4.3277086614
 30
0.0
 11
-1.3578790575
 21
-3.940007874
 31
0.0
  0
LINE
  5
1FE
330
1F
100
AcDbEntity
  8
0
  6
Continuous
 62
     7
370
    25
100
AcDbLine
 10
-1.2218192968
 20
-3.940007874
 30
0.0
 11
-1.3578790575
 21
-3.940007874
 31
0.0
  0
LINE
  5
1FF
330
1F
100
AcDbEntity
  8
0
  6
Continuous
 62
     7
370
    25
100
AcDbLine
 10
-1.1811023622
 20
-3.940007874
 30
0.0
 11
-1.1845796014
 21
-3.940007874
 31
0.0
  0
LINE
  5
200
330
1F
100
AcDbEntity
  8
0
  6
Continuous
 62
     7
370
    25
100
AcDbLine
 10
-1.1811023622
 20
-3.940007874
 30
0.0
 11
-1.1811023622
 21
-3.937007874
 31
0.0
  0
LINE
  5
201
330
1F
100
AcDbEntity
  8
0
  6
Continuous
 62
     7
370
    25
100
AcDbLine
 10
-1.1811023622
 20
-3.8928137002
 30
0.0
 11
-1.1811023622
 21
-3.5875012604
 31
0.0
  0
LINE
  5
202
330
1F
100
AcDbEntity
  8
0
  6
Continuous
 62
     7
370
    25
100
AcDbLine
 10
-1.1811023622
 20
-3.5403070866
 30
0.0
 11
-1.1811023622
 21
-3.5433070866
 31
0.0
  0
LINE
  5
203
330
1F
100
AcDbEntity
  8
0
  6
Continuous
 62
     7
370
    25
100
AcDbLine
 10
-1.1811023622
 20
-3.5403070866
 30
0.0
 11
-1.1845796014
 21
-3.5403070866
 31
0.0
  0
LINE
  5
204
330
1F
100
AcDbEntity
  8
0
  6
Continuous
 62
     7
370
    25
100
AcDbLine
 10
-1.3578790575
 20
-3.5403070866
 30
0.0
 11
-1.2218192968
 21
-3.5403070866
 31
0.0
  0
LINE
  5
205
330
1F
100
AcDbEntity
  8
0
  6
Continuous
 62
     7
370
    25
100
AcDbLine
 10
-1.3578790575
 20
-3.5403070866
 30
0.0
 11
-1.3578790575
 21
-3.1526062992
 31
0.0
  0
LINE
  5
206
330
1F
100
AcDbEntity
  8
0
  6
Continuous
 62
     7
370
    25
100
AcDbLine
 10
-1.2218192968
 20
-3.1526062992
 30
0.0
 11
-1.3578790575
 21
-3.1526062992
 31
0.0
  0
LINE
  5
207
330
1F
100
AcDbEntity
  8
0
  6
Continuous
 62
     7
370
    25
100
AcDbLine
 10
-1.1811023622
 20
-3.1526062992
 30
0.0
 11
-1.1845796014
 21
-3.1526062992
 31
0.0
  0
LINE
  5
208
330
1F
100
AcDbEntity
  8
0
  6
Continuous
 62
     7
370
    25
100
AcDbLine
 10
-1.1811023622
 20
-3.1526062992
 30
0.0
 11
-1.1811023622
 21
-3.1496062992
 31
0.0
  0
LINE
  5
209
330
1F
100
AcDbEntity
  8
0
  6
Continuous
 62
     7
370
    25
100
AcDbLine
 10
-1.1811023622
 20
-3.1054121254
 30
0.0
 11
-1.1811023622
 21
-2.8000996856
 31
0.0
  0
LINE
  5
20A
330
1F
100
AcDbEntity
  8
0
  6
Continuous
 62
     7
370
    25
100
AcDbLine
 10
-1.1811023622
 20
-2.7529055118
 30
0.0
 11
-1.1811023622
 21
-2.7559055118
 31
0.0
  0
LINE
  5
20B
330
1F
100
AcDbEntity
  8
0
  6
Continuous
 62
     7
370
    25
100
AcDbLine
 10
-1.1811023622
 20
-2.7529055118
 30
0.0
 11
-1.1845796014
 21
-2.7529055118
 31
0.0
  0
LINE
  5
20C
330
1F
100
AcDbEntity
  8
0
  6
Continuous
 62
     7
370
    25
100
AcDbLine
 10
-1.3578790575
 20
-2.7529055118
 30
0.0
 11
-1.2218192968
 21
-2.7529055118
 31
0.0
  0
LINE
  5
20D
330
1F
100
AcDbEntity
  8
0
  6
Continuous
 62
     7
370
    25
100
AcDbLine
 10
-1.3578790575
 20
-2.7529055118
 30
0.0
 11
-1.3578790575
 21
-2.3652047244
 31
0.0
  0
LINE
  5
20E
330
1F
100
AcDbEntity
  8
0
  6
Continuous
 62
     7
370
    25
100
AcDbLine
 10
-1.2218192968
 20
-2.3652047244
 30
0.0
 11
-1.3578790575
 21
-2.3652047244
 31
0.0
  0
LINE
  5
20F
330
1F
100
AcDbEntity
  8
0
  6
Continuous
 62
     7
370
    25
100
AcDbLine
 10
-1.1811023622
 20
-2.3652047244
 30
0.0
 11
-1.1845796014
 21
-2.3652047244
 31
0.0
  0
LINE
  5
210
330
1F
100
AcDbEntity
  8
0
  6
Continuous
 62
     7
370
    25
100
AcDbLine
 10
-1.1811023622
 20
-2.3652047244
 30
0.0
 11
-1.1811023622
 21
-2.3622047244
 31
0.0
  0
LINE
  5
211
330
1F
100
AcDbEntity
  8
0
  6
Continuous
 62
     7
370
    25
100
AcDbLine
 10
-1.1811023622
 20
-2.3180105506
 30
0.0
 11
-1.1811023622
 21
-2.0126981108
 31
0.0
  0
LINE
  5
212
330
1F
100
AcDbEntity
  8
0
  6
Continuous
 62
     7
370
    25
100
AcDbLine
 10
-1.1811023622
 20
-1.965503937
 30
0.0
 11
-1.1811023622
 21
-1.968503937
 31
0.0
  0
LINE
  5
213
330
1F
100
AcDbEntity
  8
0
  6
Continuous
 62
     7
370
    25
100
AcDbLine
 10
-1.1811023622
 20
-1.965503937
 30
0.0
 11
-1.1845796014
 21
-1.965503937
 31
0.0
  0
LINE
  5
214
330
1F
100
AcDbEntity
  8
0
  6
Continuous
 62
     7
370
    25
100
AcDbLine
 10
-1.3578790575
 20
-1.965503937
 30
0.0
 11
-1.2218192968
 21
-1.965503937
 31
0.0
  0
LINE
  5
215
330
1F
100
AcDbEntity
  8
0
  6
Continuous
 62
     7
370
    25
100
AcDbLine
 10
-1.3578790575
 20
-1.965503937
 30
0.0
 11
-1.3578790575
 21
-1.5778031496
 31
0.0
  0
LINE
  5
216
330
1F
100
AcDbEntity
  8
0
  6
Continuous
 62
     7
370
    25
100
AcDbLine
 10
-1.2218192968
 20
-1.5778031496
 30
0.0
 11
-1.3578790575
 21
-1.5778031496
 31
0.0
  0
LINE
  5
217
330
1F
100
AcDbEntity
  8
0
  6
Continuous
 62
     7
370
    25
100
AcDbLine
 10
-1.1811023622
 20
-1.5778031496
 30
0.0
 11
-1.1845796014
 21
-1.5778031496
 31
0.0
  0
LINE
  5
218
330
1F
100
AcDbEntity
  8
0
  6
Continuous
 62
     7
370
    25
100
AcDbLine
 10
-1.1811023622
 20
-1.5778031496
 30
0.0
 11
-1.1811023622
 21
-1.5748031496
 31
0.0
  0
LINE
  5
219
330
1F
100
AcDbEntity
  8
0
  6
Continuous
 62
     7
370
    25
100
AcDbLine
 10
-1.1811023622
 20
-1.5306089758
 30
0.0
 11
-1.1811023622
 21
-1.225296536
 31
0.0
  0
LINE
  5
21A
330
1F
100
AcDbEntity
  8
0
  6
Continuous
 62
     7
370
    25
100
AcDbLine
 10
-1.1811023622
 20
-1.1781023622
 30
0.0
 11
-1.1811023622
 21
-1.1811023622
 31
0.0
  0
LINE
  5
21B
330
1F
100
AcDbEntity
  8
0
  6
Continuous
 62
     7
370
    25
100
AcDbLine
 10
-1.1811023622
 20
-1.1781023622
 30
0.0
 11
-1.1845796014
 21
-1.1781023622
 31
0.0
  0
LINE
  5
21C
330
1F
100
AcDbEntity
  8
0
  6
Continuous
 62
     7
370
    25
100
AcDbLine
 10
-1.3578790575
 20
-1.1781023622
 30
0.0
 11
-1.2218192968
 21
-1.1781023622
 31
0.0
  0
LINE
  5
21D
330
1F
100
AcDbEntity
  8
0
  6
Continuous
 62
     7
370
    25
100
AcDbLine
 10
-1.3578790575
 20
-1.1781023622
 30
0.0
 11
-1.3578790575
 21
-0.7874015748
 31
0.0
  0
LINE
  5
21E
330
1F
100
AcDbEntity
  8
0
  6
Continuous
 62
     7
370
    25
100
AcDbLine
 10
-1.3578790575
 20
-0.7874015748
 30
0.0
 11
-1.225296536
 21
-0.7874015748
 31
0.0
  0
LINE
  5
21F
330
1F
100
AcDbEntity
  8
0
  6
Continuous
 62
     7
370
    25
100
AcDbLine
 10
-1.1811023622
 20
-0.743207401
 30
0.0
 11
-1.1811023622
 21
0.0
 31
0.0
  0
LINE
  5
220
330
1F
100
AcDbEntity
  8
0
  6
Continuous
 62
     7
370
    25
100
AcDbLine
 10
-1.1811023622
 20
0.0
 30
0.0
 11
0.0
 21
0.0
 31
0.0
  0
LINE
  5
221
330
1F
100
AcDbEntity
  8
0
  6
Continuous
 62
     7
370
    25
100
AcDbLine
 10
0.0
 20
0.0
 30
0.0
 11
0.0
 21
-0.743207401
 31
0.0
  0
LINE
  5
222
330
1F
100
AcDbEntity
  8
0
  6
Continuous
 62
     7
370
    25
100
AcDbLine
 10
0.0441941738
 20
-0.7874015748
 30
0.0
 11
0.1767766953
 21
-0.7874015748
 31
0.0
  0
LINE
  5
223
330
1F
100
AcDbEntity
  8
0
  6
Continuous
 62
     7
370
    25
100
AcDbLine
 10
0.1767766953
 20
-0.7874015748
 30
0.0
 11
0.1767766953
 21
-1.1781023622
 31
0.0
  0
LINE
  5
224
330
1F
100
AcDbEntity
  8
0
  6
Continuous
 62
     7
370
    25
100
AcDbLine
 10
0.0407169346
 20
-1.1781023622
 30
0.0
 11
0.1767766953
 21
-1.1781023622
 31
0.0
  0
LINE
  5
225
330
1F
100
AcDbEntity
  8
0
  6
Continuous
 62
     7
370
    25
100
AcDbLine
 10
0.0
 20
-1.1781023622
 30
0.0
 11
0.0034772392
 21
-1.1781023622
 31
0.0
  0
LINE
  5
226
330
1F
100
AcDbEntity
  8
0
  6
Continuous
 62
     7
370
    25
100
AcDbLine
 10
0.0
 20
-1.1781023622
 30
0.0
 11
0.0
 21
-1.1811023622
 31
0.0
  0
LINE
  5
227
330
1F
100
AcDbEntity
  8
0
  6
Continuous
 62
     7
370
    25
100
AcDbLine
 10
0.0
 20
-1.225296536
 30
0.0
 11
0.0
 21
-1.5306089758
 31
0.0
  0
LINE
  5
228
330
1F
100
AcDbEntity
  8
0
  6
Continuous
 62
     7
370
    25
100
AcDbLine
 10
0.0
 20
-1.5778031496
 30
0.0
 11
0.0
 21
-1.5748031496
 31
0.0
  0
LINE
  5
229
330
1F
100
AcDbEntity
  8
0
  6
Continuous
 62
     7
370
    25
100
AcDbLine
 10
0.0
 20
-1.5778031496
 30
0.0
 11
0.0034772392
 21
-1.5778031496
 31
0.0
  0
LINE
  5
22A
330
1F
100
AcDbEntity
  8
0
  6
Continuous
 62
     7
370
    25
100
AcDbLine
 10
0.1767766953
 20
-1.5778031496
 30
0.0
 11
0.0407169346
 21
-1.5778031496
 31
0.0
  0
LINE
  5
22B
330
1F
100
AcDbEntity
  8
0
  6
Continuous
 62
     7
370
    25
100
AcDbLine
 10
0.1767766953
 20
-1.5778031496
 30
0.0
 11
0.1767766953
 21
-1.965503937
 31
0.0
  0
LINE
  5
22C
330
1F
100
AcDbEntity
  8
0
  6
Continuous
 62
     7
370
    25
100
AcDbLine
 10
0.0407169346
 20
-1.965503937
 30
0.0
 11
0.1767766953
 21
-1.965503937
 31
0.0
  0
LINE
  5
22D
330
1F
100
AcDbEntity
  8
0
  6
Continuous
 62
     7
370
    25
100
AcDbLine
 10
0.0
 20
-1.965503937
 30
0.0
 11
0.0034772392
 21
-1.965503937
 31
0.0
  0
LINE
  5
22E
330
1F
100
AcDbEntity
  8
0
  6
Continuous
 62
     7
370
    25
100
AcDbLine
 10
0.0
 20
-1.965503937
 30
0.0
 11
0.0
 21
-1.968503937
 31
0.0
  0
LINE
  5
22F
330
1F
100
AcDbEntity
  8
0
  6
Continuous
 62
     7
370
    25
100
AcDbLine
 10
0.0
 20
-2.0126981108
 30
0.0
 11
0.0
 21
-2.3180105506
 31
0.0
  0
LINE
  5
230
330
1F
100
AcDbEntity
  8
0
  6
Continuous
 62
     7
370
    25
100
AcDbLine
 10
0.0
 20
-2.3652047244
 30
0.0
 11
0.0
 21
-2.3622047244
 31
0.0
  0
LINE
  5
231
330
1F
100
AcDbEntity
  8
0
  6
Continuous
 62
     7
370
    25
100
AcDbLine
 10
0.0
 20
-2.3652047244
 30
0.0
 11
0.0034772392
 21
-2.3652047244
 31
0.0
  0
LINE
  5
232
330
1F
100
AcDbEntity
  8
0
  6
Continuous
 62
     7
370
    25
100
AcDbLine
 10
0.1767766953
 20
-2.3652047244
 30
0.0
 11
0.0407169346
 21
-2.3652047244
 31
0.0
  0
LINE
  5
233
330
1F
100
AcDbEntity
  8
0
  6
Continuous
 62
     7
370
    25
100
AcDbLine
 10
0.1767766953
 20
-2.3652047244
 30
0.0
 11
0.1767766953
 21
-2.7529055118
 31
0.0
  0
LINE
  5
234
330
1F
100
AcDbEntity
  8
0
  6
Continuous
 62
     7
370
    25
100
AcDbLine
 10
0.0407169346
 20
-2.7529055118
 30
0.0
 11
0.1767766953
 21
-2.7529055118
 31
0.0
  0
LINE
  5
235
330
1F
100
AcDbEntity
  8
0
  6
Continuous
 62
     7
370
    25
100
AcDbLine
 10
0.0
 20
-2.7529055118
 30
0.0
 11
0.0034772392
 21
-2.7529055118
 31
0.0
  0
LINE
  5
236
330
1F
100
AcDbEntity
  8
0
  6
Continuous
 62
     7
370
    25
100
AcDbLine
 10
0.0
 20
-2.7529055118
 30
0.0
 11
0.0
 21
-2.7559055118
 31
0.0
  0
LINE
  5
237
330
1F
100
AcDbEntity
  8
0
  6
Continuous
 62
     7
370
    25
100
AcDbLine
 10
0.0
 20
-2.8000996856
 30
0.0
 11
0.0
 21
-3.1054121254
 31
0.0
  0
LINE
  5
238
330
1F
100
AcDbEntity
  8
0
  6
Continuous
 62
     7
370
    25
100
AcDbLine
 10
0.0
 20
-3.1526062992
 30
0.0
 11
0.0
 21
-3.1496062992
 31
0.0
  0
LINE
  5
239
330
1F
100
AcDbEntity
  8
0
  6
Continuous
 62
     7
370
    25
100
AcDbLine
 10
0.0
 20
-3.1526062992
 30
0.0
 11
0.0034772392
 21
-3.1526062992
 31
0.0
  0
LINE
  5
23A
330
1F
100
AcDbEntity
  8
0
  6
Continuous
 62
     7
370
    25
100
AcDbLine
 10
0.1767766953
 20
-3.1526062992
 30
0.0
 11
0.0407169346
 21
-3.1526062992
 31
0.0
  0
LINE
  5
23B
330
1F
100
AcDbEntity
  8
0
  6
Continuous
 62
     7
370
    25
100
AcDbLine
 10
0.1767766953
 20
-3.1526062992
 30
0.0
 11
0.1767766953
 21
-3.5403070866
 31
0.0
  0
LINE
  5
23C
330
1F
100
AcDbEntity
  8
0
  6
Continuous
 62
     7
370
    25
100
AcDbLine
 10
0.0407169346
 20
-3.5403070866
 30
0.0
 11
0.1767766953
 21
-3.5403070866
 31
0.0
  0
LINE
  5
23D
330
1F
100
AcDbEntity
  8
0
  6
Continuous
 62
     7
370
    25
100
AcDbLine
 10
-0.427347227
 20
-7.6862204724
 30
0.0
 11
-0.401666631
 21
-7.6862204724
 31
0.0
  0
LINE
  5
23E
330
1F
100
AcDbEntity
  8
0
  6
Continuous
 62
     7
370
    25
100
AcDbLine
 10
-0.4731541709
 20
-7.824015748
 30
0.0
 11
-0.427347227
 21
-7.6862204724
 31
0.0
  0
LINE
  5
23F
330
1F
100
AcDbEntity
  8
0
  6
Continuous
 62
     7
370
    25
100
AcDbLine
 10
-0.4536830994
 20
-7.824015748
 30
0.0
 11
-0.4731541709
 21
-7.824015748
 31
0.0
  0
LINE
  5
240
330
1F
100
AcDbEntity
  8
0
  6
Continuous
 62
     7
370
    25
100
AcDbLine
 10
-0.4442283964
 20
-7.7940602533
 30
0.0
 11
-0.4536830994
 21
-7.824015748
 31
0.0
  0
LINE
  5
241
330
1F
100
AcDbEntity
  8
0
  6
Continuous
 62
     7
370
    25
100
AcDbLine
 10
-0.3870009201
 20
-7.7940602533
 30
0.0
 11
-0.4442283964
 21
-7.7940602533
 31
0.0
  0
LINE
  5
242
330
1F
100
AcDbEntity
  8
0
  6
Continuous
 62
     7
370
    25
100
AcDbLine
 10
-0.3777646425
 20
-7.824015748
 30
0.0
 11
-0.3870009201
 21
-7.7940602533
 31
0.0
  0
LINE
  5
243
330
1F
100
AcDbEntity
  8
0
  6
Continuous
 62
     7
370
    25
100
AcDbLine
 10
-0.3573262581
 20
-7.824015748
 30
0.0
 11
-0.3777646425
 21
-7.824015748
 31
0.0
  0
LINE
  5
244
330
1F
100
AcDbEntity
  8
0
  6
Continuous
 62
     7
370
    25
100
AcDbLine
 10
-0.401666631
 20
-7.6862204724
 30
0.0
 11
-0.3573262581
 21
-7.824015748
 31
0.0
  0
LINE
  5
245
330
1F
100
AcDbEntity
  8
0
  6
Continuous
 62
     7
370
    25
100
AcDbLine
 10
-0.6629971186
 20
-7.6862204724
 30
0.0
 11
-0.6373165226
 21
-7.6862204724
 31
0.0
  0
LINE
  5
246
330
1F
100
AcDbEntity
  8
0
  6
Continuous
 62
     7
370
    25
100
AcDbLine
 10
-0.7088040625
 20
-7.824015748
 30
0.0
 11
-0.6629971186
 21
-7.6862204724
 31
0.0
  0
LINE
  5
247
330
1F
100
AcDbEntity
  8
0
  6
Continuous
 62
     7
370
    25
100
AcDbLine
 10
-0.689332991
 20
-7.824015748
 30
0.0
 11
-0.7088040625
 21
-7.824015748
 31
0.0
  0
LINE
  5
248
330
1F
100
AcDbEntity
  8
0
  6
Continuous
 62
     7
370
    25
100
AcDbLine
 10
-0.679878288
 20
-7.7940602533
 30
0.0
 11
-0.689332991
 21
-7.824015748
 31
0.0
  0
LINE
  5
249
330
1F
100
AcDbEntity
  8
0
  6
Continuous
 62
     7
370
    25
100
AcDbLine
 10
-0.6226508117
 20
-7.7940602533
 30
0.0
 11
-0.679878288
 21
-7.7940602533
 31
0.0
  0
LINE
  5
24A
330
1F
100
AcDbEntity
  8
0
  6
Continuous
 62
     7
370
    25
100
AcDbLine
 10
-0.6134145341
 20
-7.824015748
 30
0.0
 11
-0.6226508117
 21
-7.7940602533
 31
0.0
  0
LINE
  5
24B
330
1F
100
AcDbEntity
  8
0
  6
Continuous
 62
     7
370
    25
100
AcDbLine
 10
-0.5929761497
 20
-7.824015748
 30
0.0
 11
-0.6134145341
 21
-7.824015748
 31
0.0
  0
LINE
  5
24C
330
1F
100
AcDbEntity
  8
0
  6
Continuous
 62
     7
370
    25
100
AcDbLine
 10
-0.6373165226
 20
-7.6862204724
 30
0.0
 11
-0.5929761497
 21
-7.824015748
 31
0.0
  0
LINE
  5
24D
330
1F
100
AcDbEntity
  8
0
  6
Continuous
 62
     7
370
    25
100
AcDbLine
 10
-0.9274791738
 20
-7.8080394842
 30
0.0
 11
-0.8955266461
 21
-7.8080394842
 31
0.0
  0
LINE
  5
24E
330
1F
100
AcDbEntity
  8
0
  6
Continuous
 62
     7
370
    25
100
AcDbLine
 10
-0.9274791738
 20
-7.824015748
 30
0.0
 11
-0.9274791738
 21
-7.8080394842
 31
0.0
  0
LINE
  5
24F
330
1F
100
AcDbEntity
  8
0
  6
Continuous
 62
     7
370
    25
100
AcDbLine
 10
-0.8436037887
 20
-7.824015748
 30
0.0
 11
-0.9274791738
 21
-7.824015748
 31
0.0
  0
LINE
  5
250
330
1F
100
AcDbEntity
  8
0
  6
Continuous
 62
     7
370
    25
100
AcDbLine
 10
-0.8436037887
 20
-7.8080394842
 30
0.0
 11
-0.8436037887
 21
-7.824015748
 31
0.0
  0
LINE
  5
251
330
1F
100
AcDbEntity
  8
0
  6
Continuous
 62
     7
370
    25
100
AcDbLine
 10
-0.8755563163
 20
-7.8080394842
 30
0.0
 11
-0.8436037887
 21
-7.8080394842
 31
0.0
  0
LINE
  5
252
330
1F
100
AcDbEntity
  8
0
  6
Continuous
 62
     7
370
    25
100
AcDbLine
 10
-0.8755563163
 20
-7.7021967363
 30
0.0
 11
-0.8755563163
 21
-7.8080394842
 31
0.0
  0
LINE
  5
253
330
1F
100
AcDbEntity
  8
0
  6
Continuous
 62
     7
370
    25
100
AcDbLine
 10
-0.8436037887
 20
-7.7021967363
 30
0.0
 11
-0.8755563163
 21
-7.7021967363
 31
0.0
  0
LINE
  5
254
330
1F
100
AcDbEntity
  8
0
  6
Continuous
 62
     7
370
    25
100
AcDbLine
 10
-0.8436037887
 20
-7.6862204724
 30
0.0
 11
-0.8436037887
 21
-7.7021967363
 31
0.0
  0
LINE
  5
255
330
1F
100
AcDbEntity
  8
0
  6
Continuous
 62
     7
370
    25
100
AcDbLine
 10
-0.9274791738
 20
-7.6862204724
 30
0.0
 11
-0.8436037887
 21
-7.6862204724
 31
0.0
  0
LINE
  5
256
330
1F
100
AcDbEntity
  8
0
  6
Continuous
 62
     7
370
    25
100
AcDbLine
 10
-0.9274791738
 20
-7.7021967363
 30
0.0
 11
-0.9274791738
 21
-7.6862204724
 31
0.0
  0
LINE
  5
257
330
1F
100
AcDbEntity
  8
0
  6
Continuous
 62
     7
370
    25
100
AcDbLine
 10
-0.8955266461
 20
-7.7021967363
 30
0.0
 11
-0.9274791738
 21
-7.7021967363
 31
0.0
  0
LINE
  5
258
330
1F
100
AcDbEntity
  8
0
  6
Continuous
 62
     7
370
    25
100
AcDbLine
 10
-0.8955266461
 20
-7.8080394842
 30
0.0
 11
-0.8955266461
 21
-7.7021967363
 31
0.0
  0
LINE
  5
259
330
1F
100
AcDbEntity
  8
0
  6
Continuous
 62
     7
370
    25
100
AcDbLine
 10
-0.6508901061
 20
-7.7022903472
 30
0.0
 11
-0.6748232982
 21
-7.7780839895
 31
0.0
  0
LINE
  5
25A
330
1F
100
AcDbEntity
  8
0
  6
Continuous
 62
     7
370
    25
100
AcDbLine
 10
-0.6275497832
 20
-7.7780839895
 30
0.0
 11
-0.6508901061
 21
-7.7022903472
 31
0.0
  0
LINE
  5
25B
330
1F
100
AcDbEntity
  8
0
  6
Continuous
 62
     7
370
    25
100
AcDbLine
 10
-0.6748232982
 20
-7.7780839895
 30
0.0
 11
-0.6275497832
 21
-7.7780839895
 31
0.0
  0
LINE
  5
25C
330
1F
100
AcDbEntity
  8
0
  6
Continuous
 62
     7
370
    25
100
AcDbLine
 10
-0.3918998916
 20
-7.7780839895
 30
0.0
 11
-0.4152402145
 21
-7.7022903472
 31
0.0
  0
LINE
  5
25D
330
1F
100
AcDbEntity
  8
0
  6
Continuous
 62
     7
370
    25
100
AcDbLine
 10
-0.4152402145
 20
-7.7022903472
 30
0.0
 11
-0.4391734067
 21
-7.7780839895
 31
0.0
  0
LINE
  5
25E
330
1F
100
AcDbEntity
  8
0
  6
Continuous
 62
     7
370
    25
100
AcDbLine
 10
-0.4391734067
 20
-7.7780839895
 30
0.0
 11
-0.3918998916
 21
-7.7780839895
 31
0.0
  0
LINE
  5
25F
330
1F
100
AcDbEntity
  8
0
  6
Continuous
 62
     7
370
    25
100
AcDbLine
 10
-0.3015341493
 20
-7.7021967363
 30
0.0
 11
-0.318384115
 21
-7.7021967363
 31
0.0
  0
LINE
  5
260
330
1F
100
AcDbEntity
  8
0
  6
Continuous
 62
     7
370
    25
100
AcDbLine
 10
-0.318384115
 20
-7.7021967363
 30
0.0
 11
-0.318384115
 21
-7.7481284948
 31
0.0
  0
LINE
  5
261
330
1F
100
AcDbEntity
  8
0
  6
Continuous
 62
     7
370
    25
100
AcDbLine
 10
-0.318384115
 20
-7.7481284948
 30
0.0
 11
-0.3039368296
 21
-7.7481284948
 31
0.0
  0
ARC
  5
262
330
1F
100
AcDbEntity
  8
0
  6
Continuous
 62
     7
370
    25
100
AcDbCircle
 10
0.0220970869
 20
-3.5654041735
 30
0.0
 40
0.0312500000000046
100
AcDbArc
 50
135.0
 51
225.0
  0
ARC
  5
263
330
1F
100
AcDbEntity
  8
0
  6
Continuous
 62
     7
370
    25
100
AcDbCircle
 10
0.0220970869
 20
-3.9149107871
 30
0.0
 40
0.0312499999999797
100
AcDbArc
 50
134.9999999999
 51
225.0000000001
  0
ARC
  5
264
330
1F
100
AcDbEntity
  8
0
  6
Continuous
 62
     7
370
    25
100
AcDbCircle
 10
0.0220970869
 20
-3.9149107871
 30
0.0
 40
0.0312499999999791
100
AcDbArc
 50
233.4278107014
 51
306.5721892986
  0
ARC
  5
265
330
1F
100
AcDbEntity
  8
0
  6
Continuous
 62
     7
370
    25
100
AcDbCircle
 10
0.0220970869
 20
-4.3528057483
 30
0.0
 40
0.0312500000000061
100
AcDbArc
 50
53.4278107011
 51
126.5721892989
  0
ARC
  5
266
330
1F
100
AcDbEntity
  8
0
  6
Continuous
 62
     7
370
    25
100
AcDbCircle
 10
0.0220970869
 20
-4.3528057483
 30
0.0
 40
0.0312500000000038
100
AcDbArc
 50
135.0
 51
225.0
  0
ARC
  5
267
330
1F
100
AcDbEntity
  8
0
  6
Continuous
 62
     7
370
    25
100
AcDbCircle
 10
0.0220970869
 20
-4.7023123619
 30
0.0
 40
0.0312500000000039
100
AcDbArc
 50
134.9999999999
 51
225.0000000002
  0
ARC
  5
268
330
1F
100
AcDbEntity
  8
0
  6
Continuous
 62
     7
370
    25
100
AcDbCircle
 10
0.0220970869
 20
-4.7023123619
 30
0.0
 40
0.031250000000002
100
AcDbArc
 50
233.4278107014
 51
306.5721892986
  0
ARC
  5
269
330
1F
100
AcDbEntity
  8
0
  6
Continuous
 62
     7
370
    25
100
AcDbCircle
 10
0.0220970869
 20
-5.1402073231
 30
0.0
 40
0.0312499999999818
100
AcDbArc
 50
53.4278107012
 51
126.5721892988
  0
ARC
  5
26A
330
1F
100
AcDbEntity
  8
0
  6
Continuous
 62
     7
370
    25
100
AcDbCircle
 10
0.0220970869
 20
-5.1402073231
 30
0.0
 40
0.0312499999999793
100
AcDbArc
 50
134.9999999999
 51
225.0
  0
ARC
  5
26B
330
1F
100
AcDbEntity
  8
0
  6
Continuous
 62
     7
370
    25
100
AcDbCircle
 10
0.0220970869
 20
-5.4897139367
 30
0.0
 40
0.0312499999999799
100
AcDbArc
 50
134.9999999999
 51
225.0000000002
  0
ARC
  5
26C
330
1F
100
AcDbEntity
  8
0
  6
Continuous
 62
     7
370
    25
100
AcDbCircle
 10
0.0220970869
 20
-5.4897139367
 30
0.0
 40
0.0312499999999818
100
AcDbArc
 50
233.4278107014
 51
306.5721892986
  0
ARC
  5
26D
330
1F
100
AcDbEntity
  8
0
  6
Continuous
 62
     7
370
    25
100
AcDbCircle
 10
0.0220970869
 20
-5.9276088979
 30
0.0
 40
0.031250000000004
100
AcDbArc
 50
53.4278107011
 51
126.5721892989
  0
ARC
  5
26E
330
1F
100
AcDbEntity
  8
0
  6
Continuous
 62
     7
370
    25
100
AcDbCircle
 10
0.0220970869
 20
-5.9276088979
 30
0.0
 40
0.0312500000000052
100
AcDbArc
 50
134.9999999998
 51
225.0
  0
ARC
  5
26F
330
1F
100
AcDbEntity
  8
0
  6
Continuous
 62
     7
370
    25
100
AcDbCircle
 10
0.0220970869
 20
-6.2771155115
 30
0.0
 40
0.0312499999999805
100
AcDbArc
 50
135.0
 51
225.0000000003
  0
ARC
  5
270
330
1F
100
AcDbEntity
  8
0
  6
Continuous
 62
     7
370
    25
100
AcDbCircle
 10
0.0220970869
 20
-6.2771155115
 30
0.0
 40
0.0312499999999772
100
AcDbArc
 50
233.4278107014
 51
306.5721892986
  0
ARC
  5
271
330
1F
100
AcDbEntity
  8
0
  6
Continuous
 62
     7
370
    25
100
AcDbCircle
 10
0.0220970869
 20
-6.7150104727
 30
0.0
 40
0.0312500000000022
100
AcDbArc
 50
53.4278107011
 51
126.5721892989
  0
ARC
  5
272
330
1F
100
AcDbEntity
  8
0
  6
Continuous
 62
     7
370
    25
100
AcDbCircle
 10
0.0220970869
 20
-6.7150104727
 30
0.0
 40
0.0312500000000043
100
AcDbArc
 50
134.9999999997
 51
225.0
  0
ARC
  5
273
330
1F
100
AcDbEntity
  8
0
  6
Continuous
 62
     7
370
    25
100
AcDbCircle
 10
0.0220970869
 20
-7.0645170863
 30
0.0
 40
0.0312500000000043
100
AcDbArc
 50
135.0
 51
225.0000000003
  0
ARC
  5
274
330
1F
100
AcDbEntity
  8
0
  6
Continuous
 62
     7
370
    25
100
AcDbCircle
 10
0.0220970869
 20
-7.0645170863
 30
0.0
 40
0.0312500000000024
100
AcDbArc
 50
233.4278107013
 51
306.5721892987
  0
ARC
  5
275
330
1F
100
AcDbEntity
  8
0
  6
Continuous
 62
     7
370
    25
100
AcDbCircle
 10
0.0220970869
 20
-7.5024120475
 30
0.0
 40
0.0312499999999799
100
AcDbArc
 50
53.4278107011
 51
126.5721892989
  0
ARC
  5
276
330
1F
100
AcDbEntity
  8
0
  6
Continuous
 62
     7
370
    25
100
AcDbCircle
 10
0.0220970869
 20
-7.5024120475
 30
0.0
 40
0.0312499999999806
100
AcDbArc
 50
134.9999999999
 51
225.0000000001
  0
ARC
  5
277
330
1F
100
AcDbEntity
  8
0
  6
Continuous
 62
     7
370
    25
100
AcDbCircle
 10
-1.2031994491
 20
-7.5024120475
 30
0.0
 40
0.0312500000000048
100
AcDbArc
 50
315.0
 51
45.0
  0
ARC
  5
278
330
1F
100
AcDbEntity
  8
0
  6
Continuous
 62
     7
370
    25
100
AcDbCircle
 10
-1.2031994491
 20
-7.5024120475
 30
0.0
 40
0.0312500000000023
100
AcDbArc
 50
53.4278107012
 51
126.5721892988
  0
ARC
  5
279
330
1F
100
AcDbEntity
  8
0
  6
Continuous
 62
     7
370
    25
100
AcDbCircle
 10
-1.2031994491
 20
-7.0645170863
 30
0.0
 40
0.0312500000000024
100
AcDbArc
 50
233.4278107013
 51
306.5721892987
  0
ARC
  5
27A
330
1F
100
AcDbEntity
  8
0
  6
Continuous
 62
     7
370
    25
100
AcDbCircle
 10
-1.2031994491
 20
-7.0645170863
 30
0.0
 40
0.0312500000000037
100
AcDbArc
 50
315.0
 51
45.0
  0
ARC
  5
27B
330
1F
100
AcDbEntity
  8
0
  6
Continuous
 62
     7
370
    25
100
AcDbCircle
 10
-1.2031994491
 20
-6.7150104727
 30
0.0
 40
0.0312499999999803
100
AcDbArc
 50
315.0
 51
45.0
  0
ARC
  5
27C
330
1F
100
AcDbEntity
  8
0
  6
Continuous
 62
     7
370
    25
100
AcDbCircle
 10
-1.2031994491
 20
-6.7150104727
 30
0.0
 40
0.0312499999999774
100
AcDbArc
 50
53.4278107012
 51
126.5721892988
  0
ARC
  5
27D
330
1F
100
AcDbEntity
  8
0
  6
Continuous
 62
     7
370
    25
100
AcDbCircle
 10
-1.2031994491
 20
-6.2771155115
 30
0.0
 40
0.031250000000003
100
AcDbArc
 50
233.4278107013
 51
306.5721892988
  0
ARC
  5
27E
330
1F
100
AcDbEntity
  8
0
  6
Continuous
 62
     7
370
    25
100
AcDbCircle
 10
-1.2031994491
 20
-6.2771155115
 30
0.0
 40
0.0312500000000053
100
AcDbArc
 50
315.0
 51
45.0
  0
ARC
  5
27F
330
1F
100
AcDbEntity
  8
0
  6
Continuous
 62
     7
370
    25
100
AcDbCircle
 10
-1.2031994491
 20
-5.9276088979
 30
0.0
 40
0.0312500000000057
100
AcDbArc
 50
314.9999999999
 51
45.0000000001
  0
ARC
  5
280
330
1F
100
AcDbEntity
  8
0
  6
Continuous
 62
     7
370
    25
100
AcDbCircle
 10
-1.2031994491
 20
-5.9276088979
 30
0.0
 40
0.0312500000000056
100
AcDbArc
 50
53.4278107011
 51
126.5721892989
  0
ARC
  5
281
330
1F
100
AcDbEntity
  8
0
  6
Continuous
 62
     7
370
    25
100
AcDbCircle
 10
-1.2031994491
 20
-5.4897139367
 30
0.0
 40
0.0312500000000062
100
AcDbArc
 50
233.4278107012
 51
306.5721892988
  0
ARC
  5
282
330
1F
100
AcDbEntity
  8
0
  6
Continuous
 62
     7
370
    25
100
AcDbCircle
 10
-1.2031994491
 20
-5.4897139367
 30
0.0
 40
0.0312500000000035
100
AcDbArc
 50
314.9999999999
 51
45.0
  0
ARC
  5
283
330
1F
100
AcDbEntity
  8
0
  6
Continuous
 62
     7
370
    25
100
AcDbCircle
 10
-1.2031994491
 20
-5.1402073231
 30
0.0
 40
0.0312499999999809
100
AcDbArc
 50
314.9999999998
 51
45.0000000003
  0
ARC
  5
284
330
1F
100
AcDbEntity
  8
0
  6
Continuous
 62
     7
370
    25
100
AcDbCircle
 10
-1.2031994491
 20
-5.1402073231
 30
0.0
 40
0.0312499999999833
100
AcDbArc
 50
53.4278107012
 51
126.5721892988
  0
ARC
  5
285
330
1F
100
AcDbEntity
  8
0
  6
Continuous
 62
     7
370
    25
100
AcDbCircle
 10
-1.2031994491
 20
-4.7023123619
 30
0.0
 40
0.0312499999999795
100
AcDbArc
 50
233.4278107014
 51
306.5721892986
  0
ARC
  5
286
330
1F
100
AcDbEntity
  8
0
  6
Continuous
 62
     7
370
    25
100
AcDbCircle
 10
-1.2031994491
 20
-4.7023123619
 30
0.0
 40
0.0312499999999797
100
AcDbArc
 50
314.9999999997
 51
45.0
  0
ARC
  5
287
330
1F
100
AcDbEntity
  8
0
  6
Continuous
 62
     7
370
    25
100
AcDbCircle
 10
-1.2031994491
 20
-4.3528057483
 30
0.0
 40
0.0312500000000276
100
AcDbArc
 50
315.0000000001
 51
45.0000000002
  0
ARC
  5
288
330
1F
100
AcDbEntity
  8
0
  6
Continuous
 62
     7
370
    25
100
AcDbCircle
 10
-1.2031994491
 20
-4.3528057483
 30
0.0
 40
0.031250000000032
100
AcDbArc
 50
53.4278107011
 51
126.5721892989
  0
ARC
  5
289
330
1F
100
AcDbEntity
  8
0
  6
Continuous
 62
     7
370
    25
100
AcDbCircle
 10
-1.2031994491
 20
-3.9149107871
 30
0.0
 40
0.0312500000000048
100
AcDbArc
 50
233.4278107012
 51
306.5721892988
  0
ARC
  5
28A
330
1F
100
AcDbEntity
  8
0
  6
Continuous
 62
     7
370
    25
100
AcDbCircle
 10
-1.2031994491
 20
-3.9149107871
 30
0.0
 40
0.0312500000000045
100
AcDbArc
 50
314.9999999999
 51
45.0
  0
ARC
  5
28B
330
1F
100
AcDbEntity
  8
0
  6
Continuous
 62
     7
370
    25
100
AcDbCircle
 10
-1.2031994491
 20
-3.5654041735
 30
0.0
 40
0.0312499999999792
100
AcDbArc
 50
315.0000000001
 51
45.0000000001
  0
ARC
  5
28C
330
1F
100
AcDbEntity
  8
0
  6
Continuous
 62
     7
370
    25
100
AcDbCircle
 10
-1.2031994491
 20
-3.5654041735
 30
0.0
 40
0.0312499999999803
100
AcDbArc
 50
53.4278107012
 51
126.5721892988
  0
ARC
  5
28D
330
1F
100
AcDbEntity
  8
0
  6
Continuous
 62
     7
370
    25
100
AcDbCircle
 10
-1.2031994491
 20
-3.1275092123
 30
0.0
 40
0.0312499999999786
100
AcDbArc
 50
233.4278107013
 51
306.5721892987
  0
ARC
  5
28E
330
1F
100
AcDbEntity
  8
0
  6
Continuous
 62
     7
370
    25
100
AcDbCircle
 10
-1.2031994491
 20
-3.1275092123
 30
0.0
 40
0.0312499999999795
100
AcDbArc
 50
314.9999999999
 51
45.0000000001
  0
ARC
  5
28F
330
1F
100
AcDbEntity
  8
0
  6
Continuous
 62
     7
370
    25
100
AcDbCircle
 10
-1.2031994491
 20
-2.7780025987
 30
0.0
 40
0.031250000000004
100
AcDbArc
 50
314.9999999999
 51
45.0000000001
  0
ARC
  5
290
330
1F
100
AcDbEntity
  8
0
  6
Continuous
 62
     7
370
    25
100
AcDbCircle
 10
-1.2031994491
 20
-2.7780025987
 30
0.0
 40
0.0312500000000031
100
AcDbArc
 50
53.4278107011
 51
126.5721892989
  0
ARC
  5
291
330
1F
100
AcDbEntity
  8
0
  6
Continuous
 62
     7
370
    25
100
AcDbCircle
 10
-1.2031994491
 20
-2.3401076375
 30
0.0
 40
0.0312499999999541
100
AcDbArc
 50
233.4278107014
 51
306.5721892986
  0
ARC
  5
292
330
1F
100
AcDbEntity
  8
0
  6
Continuous
 62
     7
370
    25
100
AcDbCircle
 10
-1.2031994491
 20
-2.3401076375
 30
0.0
 40
0.0312499999999546
100
AcDbArc
 50
315.0
 51
45.0
  0
ARC
  5
293
330
1F
100
AcDbEntity
  8
0
  6
Continuous
 62
     7
370
    25
100
AcDbCircle
 10
-1.2031994491
 20
-1.9906010239
 30
0.0
 40
0.031250000000029
100
AcDbArc
 50
315.0
 51
45.0
  0
ARC
  5
294
330
1F
100
AcDbEntity
  8
0
  6
Continuous
 62
     7
370
    25
100
AcDbCircle
 10
-1.2031994491
 20
-1.9906010239
 30
0.0
 40
0.0312500000000298
100
AcDbArc
 50
53.427810701
 51
126.572189299
  0
ARC
  5
295
330
1F
100
AcDbEntity
  8
0
  6
Continuous
 62
     7
370
    25
100
AcDbCircle
 10
-1.2031994491
 20
-1.5527060627
 30
0.0
 40
0.0312499999999788
100
AcDbArc
 50
233.4278107012
 51
306.5721892988
  0
ARC
  5
296
330
1F
100
AcDbEntity
  8
0
  6
Continuous
 62
     7
370
    25
100
AcDbCircle
 10
-1.2031994491
 20
-1.5527060627
 30
0.0
 40
0.0312499999999792
100
AcDbArc
 50
315.0000000001
 51
44.9999999999
  0
ARC
  5
297
330
1F
100
AcDbEntity
  8
0
  6
Continuous
 62
     7
370
    25
100
AcDbCircle
 10
-1.2031994491
 20
-1.2031994491
 30
0.0
 40
0.0312499999999797
100
AcDbArc
 50
315.0
 51
45.0
  0
ARC
  5
298
330
1F
100
AcDbEntity
  8
0
  6
Continuous
 62
     7
370
    25
100
AcDbCircle
 10
-1.2031994491
 20
-1.2031994491
 30
0.0
 40
0.0312499999999778
100
AcDbArc
 50
53.4278107011
 51
126.5721892989
  0
ARC
  5
299
330
1F
100
AcDbEntity
  8
0
  6
Continuous
 62
     7
370
    25
100
AcDbCircle
 10
-1.2031994491
 20
-0.7653044879
 30
0.0
 40
0.0312499999999794
100
AcDbArc
 50
224.9999999999
 51
45.0
  0
ARC
  5
29A
330
1F
100
AcDbEntity
  8
0
  6
Continuous
 62
     7
370
    25
100
AcDbCircle
 10
0.0220970869
 20
-0.7653044879
 30
0.0
 40
0.0312500000000041
100
AcDbArc
 50
135.0
 51
315.0
  0
ARC
  5
29B
330
1F
100
AcDbEntity
  8
0
  6
Continuous
 62
     7
370
    25
100
AcDbCircle
 10
0.0220970869
 20
-1.2031994491
 30
0.0
 40
0.0312500000000287
100
AcDbArc
 50
53.427810701
 51
126.572189299
  0
ARC
  5
29C
330
1F
100
AcDbEntity
  8
0
  6
Continuous
 62
     7
370
    25
100
AcDbCircle
 10
0.0220970869
 20
-1.2031994491
 30
0.0
 40
0.0312500000000292
100
AcDbArc
 50
135.0
 51
225.0
  0
ARC
  5
29D
330
1F
100
AcDbEntity
  8
0
  6
Continuous
 62
     7
370
    25
100
AcDbCircle
 10
0.0220970869
 20
-1.5527060627
 30
0.0
 40
0.0312500000000045
100
AcDbArc
 50
134.9999999999
 51
225.0000000001
  0
ARC
  5
29E
330
1F
100
AcDbEntity
  8
0
  6
Continuous
 62
     7
370
    25
100
AcDbCircle
 10
0.0220970869
 20
-1.5527060627
 30
0.0
 40
0.0312500000000043
100
AcDbArc
 50
233.4278107013
 51
306.5721892987
  0
ARC
  5
29F
330
1F
100
AcDbEntity
  8
0
  6
Continuous
 62
     7
370
    25
100
AcDbCircle
 10
0.0220970869
 20
-1.9906010239
 30
0.0
 40
0.0312500000000032
100
AcDbArc
 50
53.4278107011
 51
126.5721892989
  0
ARC
  5
2A0
330
1F
100
AcDbEntity
  8
0
  6
Continuous
 62
     7
370
    25
100
AcDbCircle
 10
0.0220970869
 20
-1.9906010239
 30
0.0
 40
0.0312500000000042
100
AcDbArc
 50
135.0
 51
225.0
  0
ARC
  5
2A1
330
1F
100
AcDbEntity
  8
0
  6
Continuous
 62
     7
370
    25
100
AcDbCircle
 10
0.0220970869
 20
-2.3401076375
 30
0.0
 40
0.0312500000000047
100
AcDbArc
 50
134.9999999999
 51
225.0000000001
  0
ARC
  5
2A2
330
1F
100
AcDbEntity
  8
0
  6
Continuous
 62
     7
370
    25
100
AcDbCircle
 10
0.0220970869
 20
-2.3401076375
 30
0.0
 40
0.0312500000000035
100
AcDbArc
 50
233.4278107013
 51
306.5721892987
  0
ARC
  5
2A3
330
1F
100
AcDbEntity
  8
0
  6
Continuous
 62
     7
370
    25
100
AcDbCircle
 10
0.0220970869
 20
-2.7780025987
 30
0.0
 40
0.0312499999999552
100
AcDbArc
 50
53.427810701
 51
126.572189299
  0
ARC
  5
2A4
330
1F
100
AcDbEntity
  8
0
  6
Continuous
 62
     7
370
    25
100
AcDbCircle
 10
0.0220970869
 20
-2.7780025987
 30
0.0
 40
0.0312499999999552
100
AcDbArc
 50
135.0000000001
 51
224.9999999999
  0
ARC
  5
2A5
330
1F
100
AcDbEntity
  8
0
  6
Continuous
 62
     7
370
    25
100
AcDbCircle
 10
0.0220970869
 20
-3.1275092123
 30
0.0
 40
0.0312500000000297
100
AcDbArc
 50
134.9999999998
 51
225.0000000002
  0
ARC
  5
2A6
330
1F
100
AcDbEntity
  8
0
  6
Continuous
 62
     7
370
    25
100
AcDbCircle
 10
0.0220970869
 20
-3.1275092123
 30
0.0
 40
0.0312500000000283
100
AcDbArc
 50
233.4278107013
 51
306.5721892987
  0
ARC
  5
2A7
330
1F
100
AcDbEntity
  8
0
  6
Continuous
 62
     7
370
    25
100
AcDbCircle
 10
0.0220970869
 20
-3.5654041735
 30
0.0
 40
0.0312500000000042
100
AcDbArc
 50
53.4278107011
 51
126.5721892989
  0
ENDSEC
  0
SECTION
  2
OBJECTS
  0
DICTIONARY
  5
C
330
0
100
AcDbDictionary
281
     1
  3
ACAD_GROUP
350
D
  3
ACAD_LAYOUT
350
1A
  3
ACAD_MLINESTYLE
350
17
  3
ACAD_PLOTSETTINGS
350
19
  3
ACAD_PLOTSTYLENAME
350
E
  3
ACAD_SCALELIST
350
47
  0
DICTIONARY
  5
D
102
{ACAD_REACTORS
330
C
102
}
330
C
100
AcDbDictionary
281
     1
  0
DICTIONARY
  5
1A
102
{ACAD_REACTORS
330
C
102
}
330
C
100
AcDbDictionary
281
     1
  3
Layout1
350
1E
  3
Layout2
350
26
  3
Model
350
22
  0
DICTIONARY
  5
17
102
{ACAD_REACTORS
330
C
102
}
330
C
100
AcDbDictionary
281
     1
  3
Standard
350
18
  0
DICTIONARY
  5
19
102
{ACAD_REACTORS
330
C
102
}
330
C
100
AcDbDictionary
281
     1
  0
ACDBDICTIONARYWDFLT
  5
E
102
{ACAD_REACTORS
330
C
102
}
330
C
100
AcDbDictionary
281
     1
  3
Normal
350
F
100
AcDbDictionaryWithDefault
340
F
  0
DICTIONARY
  5
47
102
{ACAD_REACTORS
330
C
102
}
330
C
100
AcDbDictionary
281
     1
  3
A0
350
48
  3
A1
350
49
  3
A2
350
4A
  3
A3
350
4B
  3
A4
350
4C
  3
A5
350
4D
  3
A6
350
4E
  3
A7
350
4F
  3
A8
350
50
  3
A9
350
51
  3
B0
350
52
  3
B1
350
53
  3
B2
350
54
  3
B3
350
55
  3
B4
350
56
  3
B5
350
57
  3
B6
350
58
  3
B7
350
59
  3
B8
350
5A
  3
B9
350
5B
  3
C0
350
5C
  3
C1
350
5D
  3
C2
350
5E
  3
C3
350
5F
  3
C4
350
60
  3
C5
350
61
  3
C6
350
62
  3
C7
350
63
  3
C8
350
64
  3
C9
350
65
  3
D0
350
66
  3
D1
350
67
  3
D2
350
68
  0
LAYOUT
  5
1E
102
{ACAD_REACTORS
330
1A
102
}
330
1A
100
AcDbPlotSettings
  1

  2
none_device
  4

  6

 40
0.0
 41
0.0
 42
0.0
 43
0.0
 44
0.0
 45
0.0
 46
0.0
 47
0.0
 48
0.0
 49
0.0
140
0.0
141
0.0
142
1.0
143
1.0
 70
   688
 72
     0
 73
     0
 74
     5
  7

 75
    16
147
1.0
148
0.0
149
0.0
100
AcDbLayout
  1
Layout1
 70
     1
 71
     1
 10
0.0
 20
0.0
 11
12.0
 21
9.0
 12
0.0
 22
0.0
 32
0.0
 14
1.0000000000E+20
 24
1.0000000000E+20
 34
1.0000000000E+20
 15
-1.0000000000E+20
 25
-1.0000000000E+20
 35
-1.0000000000E+20
146
0.0
 13
0.0
 23
0.0
 33
0.0
 16
1.0
 26
0.0
 36
0.0
 17
0.0
 27
1.0
 37
0.0
 76
     0
330
1B
  0
LAYOUT
  5
26
102
{ACAD_REACTORS
330
1A
102
}
330
1A
100
AcDbPlotSettings
  1

  2
none_device
  4

  6

 40
0.0
 41
0.0
 42
0.0
 43
0.0
 44
0.0
 45
0.0
 46
0.0
 47
0.0
 48
0.0
 49
0.0
140
0.0
141
0.0
142
1.0
143
1.0
 70
   688
 72
     0
 73
     0
 74
     5
  7

 75
    16
147
1.0
148
0.0
149
0.0
100
AcDbLayout
  1
Layout2
 70
     1
 71
     2
 10
0.0
 20
0.0
 11
0.0
 21
0.0
 12
0.0
 22
0.0
 32
0.0
 14
0.0
 24
0.0
 34
0.0
 15
0.0
 25
0.0
 35
0.0
146
0.0
 13
0.0
 23
0.0
 33
0.0
 16
1.0
 26
0.0
 36
0.0
 17
0.0
 27
1.0
 37
0.0
 76
     0
330
23
  0
LAYOUT
  5
22
102
{ACAD_REACTORS
330
1A
102
}
330
1A
100
AcDbPlotSettings
  1

  2
none_device
  4
ANSI_A_(11.00_x_8.50_Inches)
  6

 40
6.35
 41
19.05
 42
6.35000508
 43
19.05000254
 44
279.4
 45
215.9
 46
149.38057246
 47
195.77049873
 48
0.0
 49
0.0
140
0.0
141
0.0
142
1.068705
143
1.0
 70
  1696
 72
     0
 73
     0
 74
     0
  7

 75
     0
147
0.5913241897
148
-39.4088153714
149
0.0
100
AcDbLayout
  1
Model
 70
     1
 71
     0
 10
0.0
 20
0.0
 11
12.0
 21
9.0
 12
0.0
 22
0.0
 32
0.0
 14
-1.3578790575
 24
-7.874015748
 34
0.0
 15
0.1767766953
 25
0.0
 35
0.0
146
0.0
 13
0.0
 23
0.0
 33
0.0
 16
1.0
 26
0.0
 36
0.0
 17
0.0
 27
1.0
 37
0.0
 76
     0
330
1F
331
29
  0
MLINESTYLE
  5
18
102
{ACAD_REACTORS
330
17
102
}
330
17
100
AcDbMlineStyle
  2
Standard
 70
     0
  3

 62
   256
 51
90.0
 52
90.0
 71
     2
 49
0.5
 62
   256
  6
BYLAYER
 49
-0.5
 62
   256
  6
BYLAYER
  0
ACDBPLACEHOLDER
  5
F
102
{ACAD_REACTORS
330
E
102
}
330
E
  0
SCALE
  5
48
102
{ACAD_REACTORS
330
47
102
}
330
47
100
AcDbScale
 70
     0
300
1:1
140
1.0
141
1.0
290
     1
  0
SCALE
  5
49
102
{ACAD_REACTORS
330
47
102
}
330
47
100
AcDbScale
 70
     0
300
1:2
140
1.0
141
2.0
290
     0
  0
SCALE
  5
4A
102
{ACAD_REACTORS
330
47
102
}
330
47
100
AcDbScale
 70
     0
300
1:4
140
1.0
141
4.0
290
     0
  0
SCALE
  5
4B
102
{ACAD_REACTORS
330
47
102
}
330
47
100
AcDbScale
 70
     0
300
1:5
140
1.0
141
5.0
290
     0
  0
SCALE
  5
4C
102
{ACAD_REACTORS
330
47
102
}
330
47
100
AcDbScale
 70
     0
300
1:8
140
1.0
141
8.0
290
     0
  0
SCALE
  5
4D
102
{ACAD_REACTORS
330
47
102
}
330
47
100
AcDbScale
 70
     0
300
1:10
140
1.0
141
10.0
290
     0
  0
SCALE
  5
4E
102
{ACAD_REACTORS
330
47
102
}
330
47
100
AcDbScale
 70
     0
300
1:16
140
1.0
141
16.0
290
     0
  0
SCALE
  5
4F
102
{ACAD_REACTORS
330
47
102
}
330
47
100
AcDbScale
 70
     0
300
1:20
140
1.0
141
20.0
290
     0
  0
SCALE
  5
50
102
{ACAD_REACTORS
330
47
102
}
330
47
100
AcDbScale
 70
     0
300
1:30
140
1.0
141
30.0
290
     0
  0
SCALE
  5
51
102
{ACAD_REACTORS
330
47
102
}
330
47
100
AcDbScale
 70
     0
300
1:40
140
1.0
141
40.0
290
     0
  0
SCALE
  5
52
102
{ACAD_REACTORS
330
47
102
}
330
47
100
AcDbScale
 70
     0
300
1:50
140
1.0
141
50.0
290
     0
  0
SCALE
  5
53
102
{ACAD_REACTORS
330
47
102
}
330
47
100
AcDbScale
 70
     0
300
1:100
140
1.0
141
100.0
290
     0
  0
SCALE
  5
54
102
{ACAD_REACTORS
330
47
102
}
330
47
100
AcDbScale
 70
     0
300
2:1
140
2.0
141
1.0
290
     0
  0
SCALE
  5
55
102
{ACAD_REACTORS
330
47
102
}
330
47
100
AcDbScale
 70
     0
300
4:1
140
4.0
141
1.0
290
     0
  0
SCALE
  5
56
102
{ACAD_REACTORS
330
47
102
}
330
47
100
AcDbScale
 70
     0
300
8:1
140
8.0
141
1.0
290
     0
  0
SCALE
  5
57
102
{ACAD_REACTORS
330
47
102
}
330
47
100
AcDbScale
 70
     0
300
10:1
140
10.0
141
1.0
290
     0
  0
SCALE
  5
58
102
{ACAD_REACTORS
330
47
102
}
330
47
100
AcDbScale
 70
     0
300
100:1
140
100.0
141
1.0
290
     0
  0
SCALE
  5
59
102
{ACAD_REACTORS
330
47
102
}
330
47
100
AcDbScale
 70
     0
300
1/128" = 1'-0"
140
0.0078125
141
12.0
290
     0
  0
SCALE
  5
5A
102
{ACAD_REACTORS
330
47
102
}
330
47
100
AcDbScale
 70
     0
300
1/64" = 1'-0"
140
0.015625
141
12.0
290
     0
  0
SCALE
  5
5B
102
{ACAD_REACTORS
330
47
102
}
330
47
100
AcDbScale
 70
     0
300
1/32" = 1'-0"
140
0.03125
141
12.0
290
     0
  0
SCALE
  5
5C
102
{ACAD_REACTORS
330
47
102
}
330
47
100
AcDbScale
 70
     0
300
1/16" = 1'-0"
140
0.0625
141
12.0
290
     0
  0
SCALE
  5
5D
102
{ACAD_REACTORS
330
47
102
}
330
47
100
AcDbScale
 70
     0
300
3/32" = 1'-0"
140
0.09375
141
12.0
290
     0
  0
SCALE
  5
5E
102
{ACAD_REACTORS
330
47
102
}
330
47
100
AcDbScale
 70
     0
300
1/8" = 1'-0"
140
0.125
141
12.0
290
     0
  0
SCALE
  5
5F
102
{ACAD_REACTORS
330
47
102
}
330
47
100
AcDbScale
 70
     0
300
3/16" = 1'-0"
140
0.1875
141
12.0
290
     0
  0
SCALE
  5
60
102
{ACAD_REACTORS
330
47
102
}
330
47
100
AcDbScale
 70
     0
300
1/4" = 1'-0"
140
0.25
141
12.0
290
     0
  0
SCALE
  5
61
102
{ACAD_REACTORS
330
47
102
}
330
47
100
AcDbScale
 70
     0
300
3/8" = 1'-0"
140
0.375
141
12.0
290
     0
  0
SCALE
  5
62
102
{ACAD_REACTORS
330
47
102
}
330
47
100
AcDbScale
 70
     0
300
1/2" = 1'-0"
140
0.5
141
12.0
290
     0
  0
SCALE
  5
63
102
{ACAD_REACTORS
330
47
102
}
330
47
100
AcDbScale
 70
     0
300
3/4" = 1'-0"
140
0.75
141
12.0
290
     0
  0
SCALE
  5
64
102
{ACAD_REACTORS
330
47
102
}
330
47
100
AcDbScale
 70
     0
300
1" = 1'-0"
140
1.0
141
12.0
290
     0
  0
SCALE
  5
65
102
{ACAD_REACTORS
330
47
102
}
330
47
100
AcDbScale
 70
     0
300
1-1/2" = 1'-0"
140
1.5
141
12.0
290
     0
  0
SCALE
  5
66
102
{ACAD_REACTORS
330
47
102
}
330
47
100
AcDbScale
 70
     0
300
3" = 1'-0"
140
3.0
141
12.0
290
     0
  0
SCALE
  5
67
102
{ACAD_REACTORS
330
47
102
}
330
47
100
AcDbScale
 70
     0
300
6" = 1'-0"
140
6.0
141
12.0
290
     0
  0
SCALE
  5
68
102
{ACAD_REACTORS
330
47
102
}
330
47
100
AcDbScale
 70
     0
300
1'-0" = 1'-0"
140
12.0
141
12.0
290
     0
  0
ENDSEC
  0
EOF
