  0
SECTION
  2
HEADER
  9
$ACADVER
  1
AC1015
  9
$ACADMAINTVER
 70
     6
  9
$DWGCODEPAGE
  3
ANSI_1252
  9
$INSBASE
 10
0.0
 20
0.0
 30
0.0
  9
$EXTMIN
 10
0.0
 20
-8.124015748
 30
0.0
  9
$EXTMAX
 10
1.968503937
 20
0.25
 30
0.0
  9
$LIMMIN
 10
0.0
 20
0.0
  9
$LIMMAX
 10
12.0
 20
9.0
  9
$ORTHOMODE
 70
     0
  9
$REGENMODE
 70
     1
  9
$FILLMODE
 70
     1
  9
$QTEXTMODE
 70
     0
  9
$MIRRTEXT
 70
     1
  9
$LTSCALE
 40
1.0
  9
$ATTMODE
 70
     1
  9
$TEXTSIZE
 40
0.1377952756
  9
$TRACEWID
 40
0.05
  9
$TEXTSTYLE
  7
Standard
  9
$CLAYER
  8
0
  9
$CELTYPE
  6
ByLayer
  9
$CECOLOR
 62
   256
  9
$CELTSCALE
 40
1.0
  9
$DISPSILH
 70
     0
  9
$DIMSCALE
 40
1.0
  9
$DIMASZ
 40
0.13
  9
$DIMEXO
 40
0.0393700787
  9
$DIMDLI
 40
0.38
  9
$DIMRND
 40
0.0
  9
$DIMDLE
 40
0.0
  9
$DIMEXE
 40
0.0393700787
  9
$DIMTP
 40
0.0
  9
$DIMTM
 40
0.0
  9
$DIMTXT
 40
0.1377952756
  9
$DIMCEN
 40
0.09
  9
$DIMTSZ
 40
0.0
  9
$DIMTOL
 70
     0
  9
$DIMLIM
 70
     0
  9
$DIMTIH
 70
     1
  9
$DIMTOH
 70
     1
  9
$DIMSE1
 70
     0
  9
$DIMSE2
 70
     0
  9
$DIMTAD
 70
     1
  9
$DIMZIN
 70
     1
  9
$DIMBLK
  1

  9
$DIMASO
 70
     1
  9
$DIMSHO
 70
     1
  9
$DIMPOST
  1

  9
$DIMAPOST
  1

  9
$DIMALT
 70
     0
  9
$DIMALTD
 70
     2
  9
$DIMALTF
 40
25.4
  9
$DIMLFAC
 40
1.0
  9
$DIMTOFL
 70
     0
  9
$DIMTVP
 40
0.0
  9
$DIMTIX
 70
     0
  9
$DIMSOXD
 70
     0
  9
$DIMSAH
 70
     0
  9
$DIMBLK1
  1

  9
$DIMBLK2
  1

  9
$DIMSTYLE
  2
Standard
  9
$DIMCLRD
 70
     0
  9
$DIMCLRE
 70
     0
  9
$DIMCLRT
 70
     0
  9
$DIMTFAC
 40
1.0
  9
$DIMGAP
 40
0.06
  9
$DIMJUST
 70
     0
  9
$DIMSD1
 70
     0
  9
$DIMSD2
 70
     0
  9
$DIMTOLJ
 70
     1
  9
$DIMTZIN
 70
     1
  9
$DIMALTZ
 70
     0
  9
$DIMALTTZ
 70
     0
  9
$DIMUPT
 70
     0
  9
$DIMDEC
 70
     2
  9
$DIMTDEC
 70
     2
  9
$DIMALTU
 70
     2
  9
$DIMALTTD
 70
     2
  9
$DIMTXSTY
  7
Standard
  9
$DIMAUNIT
 70
     0
  9
$DIMADEC
 70
     2
  9
$DIMALTRND
 40
0.0
  9
$DIMAZIN
 70
     0
  9
$DIMDSEP
 70
    46
  9
$DIMATFIT
 70
     3
  9
$DIMFRAC
 70
     0
  9
$DIMLDRBLK
  1

  9
$DIMLUNIT
 70
     2
  9
$DIMLWD
 70
    -2
  9
$DIMLWE
 70
    -2
  9
$DIMTMOVE
 70
     0
  9
$LUNITS
 70
     2
  9
$LUPREC
 70
     8
  9
$SKETCHINC
 40
0.1
  9
$FILLETRAD
 40
0.5
  9
$AUNITS
 70
     0
  9
$AUPREC
 70
     2
  9
$MENU
  1
.
  9
$ELEVATION
 40
0.0
  9
$PELEVATION
 40
0.0
  9
$THICKNESS
 40
0.0
  9
$LIMCHECK
 70
     0
  9
$CHAMFERA
 40
0.0
  9
$CHAMFERB
 40
0.0
  9
$CHAMFERC
 40
0.0
  9
$CHAMFERD
 40
0.0
  9
$SKPOLY
 70
     0
  9
$TDCREATE
 40
2458301.744552176
  9
$TDUCREATE
 40
2458301.911218842
  9
$TDUPDATE
 40
2458301.744582037
  9
$TDUUPDATE
 40
2458301.911248703
  9
$TDINDWG
 40
0.0000000116
  9
$TDUSRTIMER
 40
0.0000000116
  9
$USRTIMER
 70
     1
  9
$ANGBASE
 50
0.0
  9
$ANGDIR
 70
     0
  9
$PDMODE
 70
     0
  9
$PDSIZE
 40
-1.0
  9
$PLINEWID
 40
0.0
  9
$SPLFRAME
 70
     0
  9
$SPLINETYPE
 70
     6
  9
$SPLINESEGS
 70
     8
  9
$HANDSEED
  5
36B
  9
$SURFTAB1
 70
     6
  9
$SURFTAB2
 70
     6
  9
$SURFTYPE
 70
     6
  9
$SURFU
 70
     6
  9
$SURFV
 70
     6
  9
$UCSBASE
  2

  9
$UCSNAME
  2

  9
$UCSORG
 10
0.0
 20
0.0
 30
0.0
  9
$UCSXDIR
 10
1.0
 20
0.0
 30
0.0
  9
$UCSYDIR
 10
0.0
 20
1.0
 30
0.0
  9
$UCSORTHOREF
  2

  9
$UCSORTHOVIEW
 70
     0
  9
$UCSORGTOP
 10
0.0
 20
0.0
 30
0.0
  9
$UCSORGBOTTOM
 10
0.0
 20
0.0
 30
0.0
  9
$UCSORGLEFT
 10
0.0
 20
0.0
 30
0.0
  9
$UCSORGRIGHT
 10
0.0
 20
0.0
 30
0.0
  9
$UCSORGFRONT
 10
0.0
 20
0.0
 30
0.0
  9
$UCSORGBACK
 10
0.0
 20
0.0
 30
0.0
  9
$PUCSBASE
  2

  9
$PUCSNAME
  2

  9
$PUCSORG
 10
0.0
 20
0.0
 30
0.0
  9
$PUCSXDIR
 10
1.0
 20
0.0
 30
0.0
  9
$PUCSYDIR
 10
0.0
 20
1.0
 30
0.0
  9
$PUCSORTHOREF
  2

  9
$PUCSORTHOVIEW
 70
     0
  9
$PUCSORGTOP
 10
0.0
 20
0.0
 30
0.0
  9
$PUCSORGBOTTOM
 10
0.0
 20
0.0
 30
0.0
  9
$PUCSORGLEFT
 10
0.0
 20
0.0
 30
0.0
  9
$PUCSORGRIGHT
 10
0.0
 20
0.0
 30
0.0
  9
$PUCSORGFRONT
 10
0.0
 20
0.0
 30
0.0
  9
$PUCSORGBACK
 10
0.0
 20
0.0
 30
0.0
  9
$USERI1
 70
     0
  9
$USERI2
 70
     0
  9
$USERI3
 70
     0
  9
$USERI4
 70
     0
  9
$USERI5
 70
     0
  9
$USERR1
 40
0.0
  9
$USERR2
 40
0.0
  9
$USERR3
 40
0.0
  9
$USERR4
 40
0.0
  9
$USERR5
 40
0.0
  9
$WORLDVIEW
 70
     1
  9
$SHADEDGE
 70
     3
  9
$SHADEDIF
 70
    70
  9
$TILEMODE
 70
     1
  9
$MAXACTVP
 70
    64
  9
$PINSBASE
 10
0.0
 20
0.0
 30
0.0
  9
$PLIMCHECK
 70
     0
  9
$PEXTMIN
 10
1.0000000000E+20
 20
1.0000000000E+20
 30
1.0000000000E+20
  9
$PEXTMAX
 10
-1.0000000000E+20
 20
-1.0000000000E+20
 30
-1.0000000000E+20
  9
$PLIMMIN
 10
0.0
 20
0.0
  9
$PLIMMAX
 10
12.0
 20
9.0
  9
$UNITMODE
 70
     0
  9
$VISRETAIN
 70
     1
  9
$PLINEGEN
 70
     0
  9
$PSLTSCALE
 70
     1
  9
$TREEDEPTH
 70
  3020
  9
$CMLSTYLE
  2
Standard
  9
$CMLJUST
 70
     0
  9
$CMLSCALE
 40
1.0
  9
$PROXYGRAPHICS
 70
     1
  9
$MEASUREMENT
 70
     0
  9
$CELWEIGHT
370
    -1
  9
$ENDCAPS
280
     0
  9
$JOINSTYLE
280
     0
  9
$LWDISPLAY
290
     1
  9
$INSUNITS
 70
     1
  9
$HYPERLINKBASE
  1

  9
$STYLESHEET
  1

  9
$XEDIT
290
     1
  9
$CEPSNTYPE
380
     0
  9
$PSTYLEMODE
290
     1
  9
$FINGERPRINTGUID
  2
{C19D2D83-E26C-4456-99C8-8E20CA359A00}
  9
$VERSIONGUID
  2
{FAEB1C32-E019-11D5-929B-00C0DF256EC4}
  9
$EXTNAMES
290
     1
  9
$PSVPSCALE
 40
0.0
  9
$OLESTARTUP
290
     0
  0
ENDSEC
  0
SECTION
  2
CLASSES
  0
CLASS
  1
ACDBDICTIONARYWDFLT
  2
AcDbDictionaryWithDefault
  3
ObjectDBX Classes
 90
        0
280
     0
281
     0
  0
CLASS
  1
VISUALSTYLE
  2
AcDbVisualStyle
  3
ObjectDBX Classes
 90
     4095
280
     0
281
     0
  0
CLASS
  1
MATERIAL
  2
AcDbMaterial
  3
ObjectDBX Classes
 90
     1153
280
     0
281
     0
  0
CLASS
  1
SCALE
  2
AcDbScale
  3
ObjectDBX Classes
 90
     1153
280
     0
281
     0
  0
CLASS
  1
TABLESTYLE
  2
AcDbTableStyle
  3
ObjectDBX Classes
 90
     4095
280
     0
281
     0
  0
CLASS
  1
MLEADERSTYLE
  2
AcDbMLeaderStyle
  3
ACDB_MLEADERSTYLE_CLASS
 90
     4095
280
     0
281
     0
  0
CLASS
  1
SUN
  2
AcDbSun
  3
SCENEOE
 90
     1153
280
     0
281
     0
  0
CLASS
  1
ACDBPLACEHOLDER
  2
AcDbPlaceHolder
  3
ObjectDBX Classes
 90
        0
280
     0
281
     0
  0
CLASS
  1
LAYOUT
  2
AcDbLayout
  3
ObjectDBX Classes
 90
        0
280
     0
281
     0
  0
ENDSEC
  0
SECTION
  2
TABLES
  0
TABLE
  2
VPORT
  5
8
330
0
100
AcDbSymbolTable
 70
     1
  0
VPORT
  5
29
330
8
100
AcDbSymbolTableRecord
100
AcDbViewportTableRecord
  2
*Active
 70
     0
 10
0.0
 20
0.0
 11
1.0
 21
1.0
 12
0.9842519685
 22
-3.937007874
 13
0.0
 23
0.0
 14
0.5
 24
0.5
 15
0.5
 25
0.5
 16
0.0
 26
0.0
 36
1.0
 17
0.0
 27
0.0
 37
0.0
 40
8.541496063
 41
0.2350728726
 42
50.0
 43
0.0
 44
0.0
 50
0.0
 51
0.0
 71
     0
 72
   100
 73
     1
 74
     3
 75
     0
 76
     0
 77
     0
 78
     0
281
     0
 65
     1
110
0.0
120
0.0
130
0.0
111
1.0
121
0.0
131
0.0
112
0.0
122
1.0
132
0.0
 79
     0
146
0.0
  0
ENDTAB
  0
TABLE
  2
LTYPE
  5
5
330
0
100
AcDbSymbolTable
 70
     6
  0
LTYPE
  5
14
330
5
100
AcDbSymbolTableRecord
100
AcDbLinetypeTableRecord
  2
ByBlock
 70
     0
  3

 72
    65
 73
     0
 40
0.0
  0
LTYPE
  5
15
330
5
100
AcDbSymbolTableRecord
100
AcDbLinetypeTableRecord
  2
ByLayer
 70
     0
  3

 72
    65
 73
     0
 40
0.0
  0
LTYPE
  5
16
330
5
100
AcDbSymbolTableRecord
100
AcDbLinetypeTableRecord
  2
Continuous
 70
     0
  3
Solid line
 72
    65
 73
     0
 40
0.0
  0
LTYPE
  5
6E
330
5
100
AcDbSymbolTableRecord
100
AcDbLinetypeTableRecord
  2
HIDDEN
 70
     0
  3
Hidden __ __ __ __ __ __ __ __ __ __ __ __ __ __
 72
    65
 73
     2
 40
0.075
 49
0.05
 74
     0
 49
-0.025
 74
     0
  0
LTYPE
  5
6F
330
5
100
AcDbSymbolTableRecord
100
AcDbLinetypeTableRecord
  2
PHANTOM
 70
     0
  3
Phantom ______  __  __  ______  __  __  ______
 72
    65
 73
     6
 40
0.5
 49
0.25
 74
     0
 49
-0.05
 74
     0
 49
0.05
 74
     0
 49
-0.05
 74
     0
 49
0.05
 74
     0
 49
-0.05
 74
     0
  0
LTYPE
  5
70
330
5
100
AcDbSymbolTableRecord
100
AcDbLinetypeTableRecord
  2
CENTER
 70
     0
  3
Center ____ _ ____ _ ____ _ ____ _ ____ _ ____
 72
    65
 73
     4
 40
0.4
 49
0.25
 74
     0
 49
-0.05
 74
     0
 49
0.05
 74
     0
 49
-0.05
 74
     0
  0
LTYPE
  5
71
330
5
100
AcDbSymbolTableRecord
100
AcDbLinetypeTableRecord
  2
CENTERX2
 70
     0
  3
Center (2x) ________  __  ________  __  _____
 72
    65
 73
     4
 40
0.8
 49
0.5
 74
     0
 49
-0.1
 74
     0
 49
0.1
 74
     0
 49
-0.1
 74
     0
  0
LTYPE
  5
72
330
5
100
AcDbSymbolTableRecord
100
AcDbLinetypeTableRecord
  2
DOT2
 70
     0
  3
Dot (.5x) ........................................
 72
    65
 73
     2
 40
0.025
 49
0.0
 74
     0
 49
-0.025
 74
     0
  0
ENDTAB
  0
TABLE
  2
LAYER
  5
2
330
0
100
AcDbSymbolTable
 70
     1
  0
LAYER
  5
10
330
2
100
AcDbSymbolTableRecord
100
AcDbLayerTableRecord
  2
0
 70
     0
 62
     7
  6
Continuous
370
    -3
390
F
  0
ENDTAB
  0
TABLE
  2
STYLE
  5
3
330
0
100
AcDbSymbolTable
 70
     1
  0
STYLE
  5
11
330
3
100
AcDbSymbolTableRecord
100
AcDbTextStyleTableRecord
  2
Standard
 70
     0
 40
0.0
 41
1.0
 50
0.0
 71
     0
 42
0.1377952756
  3
txt
  4

  0
ENDTAB
  0
TABLE
  2
VIEW
  5
6
330
0
100
AcDbSymbolTable
 70
     0
  0
ENDTAB
  0
TABLE
  2
UCS
  5
7
330
0
100
AcDbSymbolTable
 70
     0
  0
ENDTAB
  0
TABLE
  2
APPID
  5
9
330
0
100
AcDbSymbolTable
 70
     1
  0
APPID
  5
12
330
9
100
AcDbSymbolTableRecord
100
AcDbRegAppTableRecord
  2
ACAD
 70
     0
  0
ENDTAB
  0
TABLE
  2
DIMSTYLE
  5
A
330
0
100
AcDbSymbolTable
 70
     1
100
AcDbDimStyleTable
  0
DIMSTYLE
105
27
330
A
100
AcDbSymbolTableRecord
100
AcDbDimStyleTableRecord
  2
Standard
 70
     0
178
     0
340
11
  0
ENDTAB
  0
TABLE
  2
BLOCK_RECORD
  5
1
330
0
100
AcDbSymbolTable
 70
     1
  0
BLOCK_RECORD
  5
1F
330
1
100
AcDbSymbolTableRecord
100
AcDbBlockTableRecord
  2
*Model_Space
340
22
  0
BLOCK_RECORD
  5
1B
330
1
100
AcDbSymbolTableRecord
100
AcDbBlockTableRecord
  2
*Paper_Space
340
1E
  0
BLOCK_RECORD
  5
23
330
1
100
AcDbSymbolTableRecord
100
AcDbBlockTableRecord
  2
*Paper_Space0
340
26
  0
ENDTAB
  0
ENDSEC
  0
SECTION
  2
BLOCKS
  0
BLOCK
  5
20
330
1F
100
AcDbEntity
  8
0
100
AcDbBlockBegin
  2
*Model_Space
 70
     0
 10
0.0
 20
0.0
 30
0.0
  3
*Model_Space
  1

  0
ENDBLK
  5
21
330
1F
100
AcDbEntity
  8
0
100
AcDbBlockEnd
  0
BLOCK
  5
1C
330
1B
100
AcDbEntity
 67
     1
  8
0
100
AcDbBlockBegin
  2
*Paper_Space
 70
     0
 10
0.0
 20
0.0
 30
0.0
  3
*Paper_Space
  1

  0
ENDBLK
  5
1D
330
1B
100
AcDbEntity
 67
     1
  8
0
100
AcDbBlockEnd
  0
BLOCK
  5
24
330
23
100
AcDbEntity
  8
0
100
AcDbBlockBegin
  2
*Paper_Space0
 70
     0
 10
0.0
 20
0.0
 30
0.0
  3
*Paper_Space0
  1

  0
ENDBLK
  5
25
330
23
100
AcDbEntity
  8
0
100
AcDbBlockEnd
  0
ENDSEC
  0
SECTION
  2
ENTITIES
  0
SPLINE
  5
73
330
1F
100
AcDbEntity
  8
0
  6
Continuous
 62
     7
370
    25
100
AcDbSpline
210
0.0
220
0.0
230
1.0
 70
     8
 71
     3
 72
    13
 73
     9
 74
     0
 42
0.000000001
 43
0.00000001
 40
0.0
 40
0.0
 40
0.0
 40
0.0
 40
0.1294566990473951
 40
0.2566315308399245
 40
0.3828904254720291
 40
0.5070814629338982
 40
0.7532160762404931
 40
1.0
 40
1.0
 40
1.0
 40
1.0
 10
0.4396869294190643
 20
-7.775484978680005
 30
0.0
 10
0.4411234459315737
 20
-7.775464739658391
 30
0.0
 10
0.4439711582121655
 20
-7.775424618358085
 30
0.0
 10
0.4481996910488866
 20
-7.774988940881281
 30
0.0
 10
0.4523447266454139
 20
-7.774361724931961
 30
0.0
 10
0.457703340827786
 20
-7.773076231546816
 30
0.0
 10
0.4642650660144096
 20
-7.771052417978018
 30
0.0
 10
0.4691999622840418
 20
-7.768683077526697
 30
0.0
 10
0.4716706607325414
 20
-7.767496846761713
 30
0.0
  0
SPLINE
  5
74
330
1F
100
AcDbEntity
  8
0
  6
Continuous
 62
     7
370
    25
100
AcDbSpline
210
0.0
220
0.0
230
1.0
 70
     8
 71
     3
 72
    23
 73
    19
 74
     0
 42
0.000000001
 43
0.00000001
 40
0.0
 40
0.0
 40
0.0
 40
0.0
 40
0.0840616715430475
 40
0.1628061202846107
 40
0.2369183445415608
 40
0.3066600848544537
 40
0.372235210712564
 40
0.4337741388863486
 40
0.4926522683096098
 40
0.5491649608479314
 40
0.6036849874709146
 40
0.6572820984679866
 40
0.7106087973087601
 40
0.7643347547401285
 40
0.8192682528341757
 40
0.8764732425159286
 40
0.9365141957997787
 40
1.0
 40
1.0
 40
1.0
 40
1.0
 10
0.3977804404883328
 20
-7.720472960820825
 30
0.0
 10
0.3978062866907736
 20
-7.722678939611513
 30
0.0
 10
0.3978563442243228
 20
-7.726951360582328
 30
0.0
 10
0.3983575697549302
 20
-7.733153572392828
 30
0.0
 10
0.3992035484941629
 20
-7.738934897443632
 30
0.0
 10
0.4003179211803842
 20
-7.744323283241181
 30
0.0
 10
0.4018728472034301
 20
-7.749254909379972
 30
0.0
 10
0.403655353107876
 20
-7.753806090742181
 30
0.0
 10
0.405861192721085
 20
-7.757901776184919
 30
0.0
 10
0.4083477713132013
 20
-7.761613260301422
 30
0.0
 10
0.4111872040884725
 20
-7.764880689311239
 30
0.0
 10
0.4143081142136131
 20
-7.767765029227992
 30
0.0
 10
0.4178169110513045
 20
-7.770122182279592
 30
0.0
 10
0.4215755850505941
 20
-7.772128315506887
 30
0.0
 10
0.4256818232900177
 20
-7.773608132990706
 30
0.0
 10
0.4300704601295947
 20
-7.774704618319055
 30
0.0
 10
0.4347782681183472
 20
-7.775368092398782
 30
0.0
 10
0.4380205691092761
 20
-7.77544529888793
 30
0.0
 10
0.4396869294190643
 20
-7.775484978680005
 30
0.0
  0
SPLINE
  5
75
330
1F
100
AcDbEntity
  8
0
  6
Continuous
 62
     7
370
    25
100
AcDbSpline
210
0.0
220
0.0
230
1.0
 70
     8
 71
     3
 72
    23
 73
    19
 74
     0
 42
0.000000001
 43
0.00000001
 40
0.0
 40
0.0
 40
0.0
 40
0.0
 40
0.0600862284036235
 40
0.1180319886995946
 40
0.1740296240252315
 40
0.2293098347488939
 40
0.2841243086195239
 40
0.3385883558883275
 40
0.3933243276011295
 40
0.4495994525211175
 40
0.507813416988192
 40
0.5681892517125905
 40
0.6313432536265626
 40
0.6974559012552976
 40
0.7675070386552448
 40
0.8409494583119171
 40
0.9181920348013096
 40
1.0
 40
1.0
 40
1.0
 40
1.0
 10
0.4392812820950885
 20
-7.66564816480348
 30
0.0
 10
0.4377283049470295
 20
-7.665682600430797
 30
0.0
 10
0.4346776727795528
 20
-7.665750244975686
 30
0.0
 10
0.4302342931564199
 20
-7.666504947602006
 30
0.0
 10
0.4260082011274268
 20
-7.667645831231562
 30
0.0
 10
0.422033892082146
 20
-7.669285115824976
 30
0.0
 10
0.4182985898875128
 20
-7.671334254733194
 30
0.0
 10
0.4148918210604275
 20
-7.673867076474529
 30
0.0
 10
0.4117286755881431
 20
-7.676752940829696
 30
0.0
 10
0.4088950277376661
 20
-7.680091493175452
 30
0.0
 10
0.4063149764045791
 20
-7.683808134160837
 30
0.0
 10
0.4041229866240196
 20
-7.687966708330688
 30
0.0
 10
0.4021692506393729
 20
-7.692462981777809
 30
0.0
 10
0.4005940920423328
 20
-7.697369874285853
 30
0.0
 10
0.3993108809282401
 20
-7.702632838031103
 30
0.0
 10
0.3984203158553085
 20
-7.708268107576122
 30
0.0
 10
0.3978881089772122
 20
-7.714253111348696
 30
0.0
 10
0.3978170102574686
 20
-7.718360379306747
 30
0.0
 10
0.3977804404883328
 20
-7.720472960820825
 30
0.0
  0
SPLINE
  5
76
330
1F
100
AcDbEntity
  8
0
  6
Continuous
 62
     7
370
    25
100
AcDbSpline
210
0.0
220
0.0
230
1.0
 70
     8
 71
     3
 72
    15
 73
    11
 74
     0
 42
0.000000001
 43
0.00000001
 40
0.0
 40
0.0
 40
0.0
 40
0.0
 40
0.1229392392973697
 40
0.2436243925744362
 40
0.3645364911600678
 40
0.4851967963973099
 40
0.6073776081090186
 40
0.7338344243150248
 40
0.8648137876406343
 40
1.0
 40
1.0
 40
1.0
 40
1.0
 10
0.4716706607325414
 20
-7.673636296721772
 30
0.0
 10
0.4704402535614672
 20
-7.673007254364685
 30
0.0
 10
0.4680019986854377
 20
-7.671760703116894
 30
0.0
 10
0.464224284441057
 20
-7.670166436947533
 30
0.0
 10
0.4603881906672787
 20
-7.668801266354979
 30
0.0
 10
0.4564726587619105
 20
-7.667614494440132
 30
0.0
 10
0.4524078903337332
 20
-7.666760412730598
 30
0.0
 10
0.4481932694845759
 20
-7.66608730794649
 30
0.0
 10
0.4437915738028575
 20
-7.665720423119758
 30
0.0
 10
0.4408004711725315
 20
-7.66567250337224
 30
0.0
 10
0.4392812820950885
 20
-7.66564816480348
 30
0.0
  0
SPLINE
  5
78
330
1F
100
AcDbEntity
  8
0
  6
Continuous
 62
     7
370
    25
100
AcDbSpline
210
0.0
220
0.0
230
1.0
 70
     8
 71
     3
 72
    13
 73
     9
 74
     0
 42
0.000000001
 43
0.00000001
 40
0.0
 40
0.0
 40
0.0
 40
0.0
 40
0.1371043592389637
 40
0.2698395429534438
 40
0.3974480177724612
 40
0.5213207983111531
 40
0.7614259910144042
 40
1.0
 40
1.0
 40
1.0
 40
1.0
 10
0.4385011910874427
 20
-7.649671900966894
 30
0.0
 10
0.4400515208841768
 20
-7.649688305218272
 30
0.0
 10
0.4431027753162013
 20
-7.649720590958264
 30
0.0
 10
0.4475875866427422
 20
-7.650021452514694
 30
0.0
 10
0.4519141288913498
 20
-7.650431587921787
 30
0.0
 10
0.457402393987549
 20
-7.651317859331492
 30
0.0
 10
0.4640625566655173
 20
-7.652835342982458
 30
0.0
 10
0.469140039940558
 20
-7.654722459747474
 30
0.0
 10
0.4716706607325414
 20
-7.655662999905613
 30
0.0
  0
SPLINE
  5
79
330
1F
100
AcDbEntity
  8
0
  6
Continuous
 62
     7
370
    25
100
AcDbSpline
210
0.0
220
0.0
230
1.0
 70
     8
 71
     3
 72
    23
 73
    19
 74
     0
 42
0.000000001
 43
0.00000001
 40
0.0
 40
0.0
 40
0.0
 40
0.0
 40
0.0762253523193191
 40
0.14896584428069
 40
0.2189637767448872
 40
0.2863433421119065
 40
0.3508523683393761
 40
0.4127167903768565
 40
0.4725129867997589
 40
0.5304682966714048
 40
0.5872602301518256
 40
0.6437976394674447
 40
0.7001944186438166
 40
0.757332218004155
 40
0.8153918646114808
 40
0.8747319276456252
 40
0.9360590636587901
 40
1.0
 40
1.0
 40
1.0
 40
1.0
 10
0.3778101106926008
 20
-7.722095550116728
 30
0.0
 10
0.3778672036289966
 20
-7.719389447593766
 30
0.0
 10
0.3779787793346365
 20
-7.714100959777347
 30
0.0
 10
0.3787578020876333
 20
-7.70635754752062
 30
0.0
 10
0.3800918792254133
 20
-7.699010533065775
 30
0.0
 10
0.3819640083618157
 20
-7.692084193126034
 30
0.0
 10
0.3842919514342559
 20
-7.685603112937601
 30
0.0
 10
0.3871029359550349
 20
-7.67960996536714
 30
0.0
 10
0.3903827712339141
 20
-7.674129304235687
 30
0.0
 10
0.3941080362534897
 20
-7.669162228464111
 30
0.0
 10
0.398292495879887
 20
-7.664734121571847
 30
0.0
 10
0.4028837497169859
 20
-7.660812222404322
 30
0.0
 10
0.4079211431895226
 20
-7.657460608228178
 30
0.0
 10
0.4133321350495134
 20
-7.654637679879984
 30
0.0
 10
0.4191314995048349
 20
-7.652414521265783
 30
0.0
 10
0.4252865244510137
 20
-7.650833939710407
 30
0.0
 10
0.4317804243626406
 20
-7.649832308980675
 30
0.0
 10
0.4362299878277391
 20
-7.649726108949211
 30
0.0
 10
0.4385011910874427
 20
-7.649671900966894
 30
0.0
  0
SPLINE
  5
7A
330
1F
100
AcDbEntity
  8
0
  6
Continuous
 62
     7
370
    25
100
AcDbSpline
210
0.0
220
0.0
230
1.0
 70
     8
 71
     3
 72
    23
 73
    19
 74
     0
 42
0.000000001
 43
0.00000001
 40
0.0
 40
0.0
 40
0.0
 40
0.0
 40
0.0670382204416589
 40
0.1306121419585143
 40
0.1909738274278065
 40
0.2489414180091064
 40
0.3051252749563859
 40
0.3601553033517968
 40
0.4150771641109945
 40
0.4704788707872518
 40
0.5269461155455487
 40
0.5847971199531983
 40
0.6451358385762127
 40
0.708119768564431
 40
0.7746995580182512
 40
0.8453443593590909
 40
0.9201214237017996
 40
0.9999999999999999
 40
0.9999999999999999
 40
0.9999999999999999
 40
0.9999999999999999
 10
0.4374714709573503
 20
-7.791461242516591
 30
0.0
 10
0.4351393760036413
 20
-7.791406920058514
 30
0.0
 10
0.4305957005428697
 20
-7.79130108233551
 30
0.0
 10
0.423989207383793
 20
-7.79049215006114
 30
0.0
 10
0.4178069632018614
 20
-7.789111247489136
 30
0.0
 10
0.4120185560050305
 20
-7.787237155564462
 30
0.0
 10
0.4066938354712873
 20
-7.784700372078608
 30
0.0
 10
0.401741021310331
 20
-7.781702191841073
 30
0.0
 10
0.3972192545186241
 20
-7.778121676415839
 30
0.0
 10
0.3931462659444231
 20
-7.773970838041172
 30
0.0
 10
0.389519045833281
 20
-7.769298268492019
 30
0.0
 10
0.3863353033511303
 20
-7.764108359831116
 30
0.0
 10
0.3836986367734017
 20
-7.758370171220486
 30
0.0
 10
0.3815478289431863
 20
-7.75211517869289
 30
0.0
 10
0.3798740759134138
 20
-7.745347078516446
 30
0.0
 10
0.3786681364164949
 20
-7.738065981406677
 30
0.0
 10
0.3779496990673918
 20
-7.730254133632176
 30
0.0
 10
0.3778576522444971
 20
-7.724874232239657
 30
0.0
 10
0.3778101106926008
 20
-7.722095550116728
 30
0.0
  0
SPLINE
  5
7B
330
1F
100
AcDbEntity
  8
0
  6
Continuous
 62
     7
370
    25
100
AcDbSpline
210
0.0
220
0.0
230
1.0
 70
     8
 71
     3
 72
    11
 73
     7
 74
     0
 42
0.000000001
 43
0.00000001
 40
0.0
 40
0.0
 40
0.0
 40
0.0
 40
0.248622121547844
 40
0.4968578887023153
 40
0.7466739116678826
 40
1.0
 40
1.0
 40
1.0
 40
1.0
 10
0.4716706607325414
 20
-7.785470143577871
 30
0.0
 10
0.4689294680573546
 20
-7.786396930261523
 30
0.0
 10
0.4634513424720676
 20
-7.788249063418657
 30
0.0
 10
0.4549464578525009
 20
-7.790076616859015
 30
0.0
 10
0.4462729218729297
 20
-7.791252017234394
 30
0.0
 10
0.4404189010452006
 20
-7.791391177149208
 30
0.0
 10
0.4374714709573503
 20
-7.791461242516591
 30
0.0
  0
SPLINE
  5
1CD
330
1F
100
AcDbEntity
  8
0
  6
Continuous
 62
     7
370
    25
100
AcDbSpline
210
0.0
220
0.0
230
1.0
 70
     8
 71
     3
 72
    15
 73
    11
 74
     0
 42
0.000000001
 43
0.00000001
 40
0.0
 40
0.0
 40
0.0
 40
0.0
 40
0.1113465762504574
 40
0.2209190491978067
 40
0.3311073910121179
 40
0.444455511233169
 40
0.5644320995395484
 40
0.6975015785951157
 40
0.8421163895957815
 40
0.9999999999999999
 40
0.9999999999999999
 40
0.9999999999999999
 40
0.9999999999999999
 10
1.263743866255764
 20
-7.724966285024864
 30
0.0
 10
1.264661351175842
 20
-7.725303010193097
 30
0.0
 10
1.266481702577945
 20
-7.725971095432107
 30
0.0
 10
1.268987342545156
 20
-7.727455915321031
 30
0.0
 10
1.271338578154652
 20
-7.729197419884337
 30
0.0
 10
1.273432285193235
 20
-7.731374574007376
 30
0.0
 10
1.275417277369435
 20
-7.733899479093751
 30
0.0
 10
1.277390407043345
 20
-7.736771735097146
 30
0.0
 10
1.279444583961794
 20
-7.739989571662857
 30
0.0
 10
1.280712274665877
 20
-7.742317454453091
 30
0.0
 10
1.281373923028559
 20
-7.743532451006834
 30
0.0
  0
SPLINE
  5
1CE
330
1F
100
AcDbEntity
  8
0
  6
Continuous
 62
     7
370
    25
100
AcDbSpline
210
0.0
220
0.0
230
1.0
 70
     8
 71
     3
 72
    23
 73
    19
 74
     0
 42
0.000000001
 43
0.00000001
 40
0.0
 40
0.0
 40
0.0
 40
0.0
 40
0.0645478318884813
 40
0.1269412884544955
 40
0.1887369830007325
 40
0.2498221247292423
 40
0.3098561037341822
 40
0.3700660185816319
 40
0.4286833442590947
 40
0.4883832274649847
 40
0.5482568161779722
 40
0.6087757714311526
 40
0.669523100911852
 40
0.732322113070524
 40
0.7967864650491353
 40
0.8628072398055202
 40
0.9303144026883957
 40
1.0
 40
1.0
 40
1.0
 40
1.0
 10
1.292451215337129
 20
-7.688520433147654
 30
0.0
 10
1.292426288619847
 20
-7.689603184183566
 30
0.0
 10
1.292377267149781
 20
-7.69173254790583
 30
0.0
 10
1.292016664869055
 20
-7.694880817579446
 30
0.0
 10
1.291471404082837
 20
-7.697942880576886
 30
0.0
 10
1.290651634461339
 20
-7.700903018426245
 30
0.0
 10
1.289622826472892
 20
-7.703768327606971
 30
0.0
 10
1.288349367772151
 20
-7.70648879195563
 30
0.0
 10
1.286862372691988
 20
-7.709091323317115
 30
0.0
 10
1.285152195367032
 20
-7.711547128407811
 30
0.0
 10
1.283209259058124
 20
-7.713864687187697
 30
0.0
 10
1.281057389600528
 20
-7.71601446132182
 30
0.0
 10
1.278691473155345
 20
-7.718003237589854
 30
0.0
 10
1.276102156342759
 20
-7.719810536638804
 30
0.0
 10
1.273286876580425
 20
-7.721423708853659
 30
0.0
 10
1.270295055640038
 20
-7.722871937717079
 30
0.0
 10
1.267094318510246
 20
-7.724060589587792
 30
0.0
 10
1.26487244379008
 20
-7.724661207547086
 30
0.0
 10
1.263743866255764
 20
-7.724966285024864
 30
0.0
  0
SPLINE
  5
1CF
330
1F
100
AcDbEntity
  8
0
  6
Continuous
 62
     7
370
    25
100
AcDbSpline
210
0.0
220
0.0
230
1.0
 70
     8
 71
     3
 72
    23
 73
    19
 74
     0
 42
0.000000001
 43
0.00000001
 40
0.0
 40
0.0
 40
0.0
 40
0.0
 40
0.0868700975630098
 40
0.1675326099547989
 40
0.242694731788386
 40
0.3126017522489786
 40
0.3779305749389042
 40
0.439664716582685
 40
0.4981889029379459
 40
0.5544264658871981
 40
0.6085293977950939
 40
0.6620488546726069
 40
0.7153414020581682
 40
0.7693403858006715
 40
0.824561868897377
 40
0.8811801386557858
 40
0.939402360086857
 40
1.0
 40
1.0
 40
1.0
 40
1.0
 10
1.247205936893673
 20
-7.651668933946467
 30
0.0
 10
1.249131958275399
 20
-7.651688797674927
 30
0.0
 10
1.25284637092096
 20
-7.651727105704571
 30
0.0
 10
1.258198179661708
 20
-7.652302138907304
 30
0.0
 10
1.26314868245117
 20
-7.653054536767045
 30
0.0
 10
1.267658501616752
 20
-7.654267231369532
 30
0.0
 10
1.271778558834019
 20
-7.655723180626604
 30
0.0
 10
1.275505034917886
 20
-7.657477710769451
 30
0.0
 10
1.27887828486719
 20
-7.659471340622273
 30
0.0
 10
1.281854718130155
 20
-7.661753816585423
 30
0.0
 10
1.284455004862739
 20
-7.664303943901461
 30
0.0
 10
1.286632346145098
 20
-7.667138320845959
 30
0.0
 10
1.28850553446187
 20
-7.670179705054122
 30
0.0
 10
1.289960447127167
 20
-7.673483822739597
 30
0.0
 10
1.291091148380476
 20
-7.676987936548095
 30
0.0
 10
1.291840381329264
 20
-7.680685217601328
 30
0.0
 10
1.292378391294186
 20
-7.684541926013902
 30
0.0
 10
1.292426619268739
 20
-7.68717670613667
 30
0.0
 10
1.292451215337129
 20
-7.688520433147655
 30
0.0
  0
SPLINE
  5
1D5
330
1F
100
AcDbEntity
  8
0
  6
Continuous
 62
     7
370
    25
100
AcDbSpline
210
0.0
220
0.0
230
1.0
 70
     8
 71
     3
 72
    15
 73
    11
 74
     0
 42
0.000000001
 43
0.00000001
 40
0.0
 40
0.0
 40
0.0
 40
0.0
 40
0.1664007172010772
 40
0.3098131822065008
 40
0.4352668288135833
 40
0.5480533257981761
 40
0.6554844160060472
 40
0.7624221632572653
 40
0.8757613880134966
 40
1.0
 40
1.0
 40
1.0
 40
1.0
 10
1.261466000513438
 20
-7.746434389555276
 30
0.0
 10
1.260742257207101
 20
-7.744924250600867
 30
0.0
 10
1.259394755702248
 20
-7.742112598326111
 30
0.0
 10
1.257134237723843
 20
-7.738343062621494
 30
0.0
 10
1.254655747310924
 20
-7.735394577384151
 30
0.0
 10
1.252066116457375
 20
-7.733040013451693
 30
0.0
 10
1.249178504453997
 20
-7.731417012014708
 30
0.0
 10
1.246081574115987
 20
-7.73023731681746
 30
0.0
 10
1.242638268413738
 20
-7.72968829650759
 30
0.0
 10
1.240248881858993
 20
-7.729599601952696
 30
0.0
 10
1.23899937949324
 20
-7.729553220149821
 30
0.0
  0
SPLINE
  5
1D9
330
1F
100
AcDbEntity
  8
0
  6
Continuous
 62
     7
370
    25
100
AcDbSpline
210
0.0
220
0.0
230
1.0
 70
     8
 71
     3
 72
    13
 73
     9
 74
     0
 42
0.000000001
 43
0.00000001
 40
0.0
 40
0.0
 40
0.0
 40
0.0
 40
0.2629925736198847
 40
0.5152151143617691
 40
0.6381795058959965
 40
0.7592319220671246
 40
0.8797596792728426
 40
1.0
 40
1.0
 40
1.0
 40
1.0
 10
1.030122211286005
 20
-7.649671900966894
 30
0.0
 10
1.033225030388955
 20
-7.649744652957359
 30
0.0
 10
1.039303602407039
 20
-7.649887177609565
 30
0.0
 10
1.046786466732956
 20
-7.650806209320732
 30
0.0
 10
1.052548460845445
 20
-7.65185715624143
 30
0.0
 10
1.056704630762801
 20
-7.652966641684741
 30
0.0
 10
1.060812447754571
 20
-7.654134932500195
 30
0.0
 10
1.06346484186579
 20
-7.655154049655143
 30
0.0
 10
1.064789455665784
 20
-7.655662999905613
 30
0.0
  0
SPLINE
  5
1DA
330
1F
100
AcDbEntity
  8
0
  6
Continuous
 62
     7
370
    25
100
AcDbSpline
210
0.0
220
0.0
230
1.0
 70
     8
 71
     3
 72
    23
 73
    19
 74
     0
 42
0.000000001
 43
0.00000001
 40
0.0
 40
0.0
 40
0.0
 40
0.0
 40
0.0742200780688656
 40
0.1449364185773725
 40
0.2126700169731754
 40
0.2780018645804547
 40
0.3407373065149751
 40
0.4013388236344835
 40
0.4602553336595832
 40
0.5182377610830604
 40
0.5756513535705498
 40
0.6328023950286357
 40
0.6904012370740883
 40
0.7495128639830312
 40
0.8097851775605585
 40
0.8709559771034354
 40
0.9344491081807539
 40
1.0
 40
1.0
 40
1.0
 40
1.0
 10
0.9629407737075503
 20
-7.722095550116729
 30
0.0
 10
0.9630004313538558
 20
-7.719336691093281
 30
0.0
 10
0.9631169303635749
 20
-7.713949211631895
 30
0.0
 10
0.9640324334021828
 20
-7.706086579552398
 30
0.0
 10
0.9655440517774846
 20
-7.698655050812278
 30
0.0
 10
0.9677053585644049
 20
-7.691694851937593
 30
0.0
 10
0.9703864522655729
 20
-7.685204656809987
 30
0.0
 10
0.9735845407374485
 20
-7.679222967856738
 30
0.0
 10
0.9772302102802474
 20
-7.673709691038816
 30
0.0
 10
0.9814412338584662
 20
-7.668767606893775
 30
0.0
 10
0.986102168263136
 20
-7.664346160242648
 30
0.0
 10
0.9912208095343729
 20
-7.660483779033207
 30
0.0
 10
0.996794190682678
 20
-7.65719014443123
 30
0.0
 10
1.00278532747219
 20
-7.654447473284678
 30
0.0
 10
1.00915515435321
 20
-7.652299727652877
 30
0.0
 10
1.015864464488368
 20
-7.650763892560948
 30
0.0
 10
1.022889028224187
 20
-7.649853834742808
 30
0.0
 10
1.027685654292281
 20
-7.649733186850344
 30
0.0
 10
1.030122211286005
 20
-7.649671900966894
 30
0.0
  0
SPLINE
  5
1DB
330
1F
100
AcDbEntity
  8
0
  6
Continuous
 62
     7
370
    25
100
AcDbSpline
210
0.0
220
0.0
230
1.0
 70
     8
 71
     3
 72
    23
 73
    19
 74
     0
 42
0.000000001
 43
0.00000001
 40
0.0
 40
0.0
 40
0.0
 40
0.0
 40
0.0664804612866157
 40
0.129843671462748
 40
0.1909595697177537
 40
0.249983575188545
 40
0.3076122759494561
 40
0.363467945350563
 40
0.4190794705226113
 40
0.474794209309016
 40
0.5313576654266597
 40
0.5893212023248743
 40
0.6495248771204626
 40
0.7125168172940963
 40
0.7784885120295811
 40
0.848184250192549
 40
0.9217703170365648
 40
1.0
 40
1.0
 40
1.0
 40
1.0
 10
1.025504072520742
 20
-7.791461242516591
 30
0.0
 10
1.023151245941012
 20
-7.791406318497677
 30
0.0
 10
1.018555916192769
 20
-7.791299045832462
 30
0.0
 10
1.011833843334134
 20
-7.790490163668422
 30
0.0
 10
1.005486536836178
 20
-7.789078333176503
 30
0.0
 10
0.99948597948406
 20
-7.787154346705588
 30
0.0
 10
0.9939018603254756
 20
-7.78465814145465
 30
0.0
 10
0.9887189493371061
 20
-7.781642445534371
 30
0.0
 10
0.9839884617178336
 20
-7.778065921133801
 30
0.0
 10
0.9796867168221793
 20
-7.773949316641058
 30
0.0
 10
0.9758313444446289
 20
-7.769303765752562
 30
0.0
 10
0.9724349856021701
 20
-7.764119679272075
 30
0.0
 10
0.969577399205865
 20
-7.758367105263835
 30
0.0
 10
0.9671759182524327
 20
-7.752109109909697
 30
0.0
 10
0.9652707837005096
 20
-7.745331609874596
 30
0.0
 10
0.9639121831187815
 20
-7.73804404417263
 30
0.0
 10
0.9630977233083872
 20
-7.73023740929183
 30
0.0
 10
0.9629941462842923
 20
-7.724864286076096
 30
0.0
 10
0.9629407737075502
 20
-7.722095550116728
 30
0.0
  0
SPLINE
  5
1DC
330
1F
100
AcDbEntity
  8
0
  6
Continuous
 62
     7
370
    25
100
AcDbSpline
210
0.0
220
0.0
230
1.0
 70
     8
 71
     3
 72
    15
 73
    11
 74
     0
 42
0.000000001
 43
0.00000001
 40
0.0
 40
0.0
 40
0.0
 40
0.0
 40
0.1215620661818195
 40
0.2466320523755361
 40
0.3746601835437685
 40
0.5029271149794566
 40
0.631584904082441
 40
0.7575071658004985
 40
0.8812493263951519
 40
1.0
 40
1.0
 40
1.0
 40
1.0
 10
1.064789455665784
 20
-7.78300505599371
 30
0.0
 10
1.063290267484347
 20
-7.783672665498061
 30
0.0
 10
1.060248629005351
 20
-7.785027149733279
 30
0.0
 10
1.055459455842581
 20
-7.786658279968362
 30
0.0
 10
1.050544479477181
 20
-7.788190728186414
 30
0.0
 10
1.045473925401536
 20
-7.789332408947832
 30
0.0
 10
1.040403180918663
 20
-7.790329986421598
 30
0.0
 10
1.035334506661267
 20
-7.790957292640505
 30
0.0
 10
1.030379523970742
 20
-7.791393411058333
 30
0.0
 10
1.027106767465584
 20
-7.791438944451198
 30
0.0
 10
1.025504072520742
 20
-7.791461242516592
 30
0.0
  0
SPLINE
  5
1E2
330
1F
100
AcDbEntity
  8
0
  6
Continuous
 62
     7
370
    25
100
AcDbSpline
210
0.0
220
0.0
230
1.0
 70
     8
 71
     3
 72
    15
 73
    11
 74
     0
 42
0.000000001
 43
0.00000001
 40
0.0
 40
0.0
 40
0.0
 40
0.0
 40
0.1181458234507117
 40
0.2453576074089132
 40
0.3783014205397845
 40
0.5119095780829077
 40
0.6426026397511996
 40
0.7712834446641561
 40
0.8918628369808393
 40
0.9999999999999999
 40
0.9999999999999999
 40
0.9999999999999999
 40
0.9999999999999999
 10
1.027438698219703
 20
-7.775484978680005
 30
0.0
 10
1.028135835166529
 20
-7.775469981158095
 30
0.0
 10
1.029583604104215
 20
-7.775438835274257
 30
0.0
 10
1.031810727815138
 20
-7.775275011117319
 30
0.0
 10
1.034122688849988
 20
-7.775035237914646
 30
0.0
 10
1.036440046766418
 20
-7.774681201840831
 30
0.0
 10
1.038729615708121
 20
-7.774302339607714
 30
0.0
 10
1.040903331506481
 20
-7.773749314365435
 30
0.0
 10
1.042949052376442
 20
-7.773229399901502
 30
0.0
 10
1.044218792754467
 20
-7.772769348666298
 30
0.0
 10
1.044819125870052
 20
-7.772551836491258
 30
0.0
  0
SPLINE
  5
1E3
330
1F
100
AcDbEntity
  8
0
  6
Continuous
 62
     7
370
    25
100
AcDbSpline
210
0.0
220
0.0
230
1.0
 70
     8
 71
     3
 72
    23
 73
    19
 74
     0
 42
0.000000001
 43
0.00000001
 40
0.0
 40
0.0
 40
0.0
 40
0.0
 40
0.0777034523952048
 40
0.1513602343563091
 40
0.2212633714408317
 40
0.2876633754898145
 40
0.3508890619249365
 40
0.410884530633306
 40
0.4686270775906727
 40
0.5242592172963859
 40
0.5790473312300994
 40
0.632965748244206
 40
0.6877415935880125
 40
0.7439187403756156
 40
0.8024946154842155
 40
0.8640796922207267
 40
0.9296114038444977
 40
1.0
 40
1.0
 40
1.0
 40
1.0
 10
0.9829111035032821
 20
-7.72066018266266
 30
0.0
 10
0.9829401856935376
 20
-7.722751654067531
 30
0.0
 10
0.9829968355205005
 20
-7.726825676420879
 30
0.0
 10
0.9834611089846305
 20
-7.73276744641599
 30
0.0
 10
0.9842694070764377
 20
-7.738364339713366
 30
0.0
 10
0.9853914004246408
 20
-7.743619361455401
 30
0.0
 10
0.9867952541554871
 20
-7.748532635797298
 30
0.0
 10
0.9886147357917919
 20
-7.753060416118479
 30
0.0
 10
0.9907978933639411
 20
-7.757193935438058
 30
0.0
 10
0.993343004082844
 20
-7.760948233466749
 30
0.0
 10
0.9962462455326664
 20
-7.764299380951757
 30
0.0
 10
0.9995313785139904
 20
-7.767245589848596
 30
0.0
 10
1.003212419264495
 20
-7.769745078292587
 30
0.0
 10
1.007270405599087
 20
-7.771851661568975
 30
0.0
 10
1.011728339636005
 20
-7.773521481983614
 30
0.0
 10
1.016608716789871
 20
-7.774638342112291
 30
0.0
 10
1.021881856275605
 20
-7.775391109676375
 30
0.0
 10
1.025542811536952
 20
-7.775452952396787
 30
0.0
 10
1.027438698219703
 20
-7.775484978680005
 30
0.0
  0
SPLINE
  5
1E4
330
1F
100
AcDbEntity
  8
0
  6
Continuous
 62
     7
370
    25
100
AcDbSpline
210
0.0
220
0.0
230
1.0
 70
     8
 71
     3
 72
    23
 73
    19
 74
     0
 42
0.000000001
 43
0.00000001
 40
0.0
 40
0.0
 40
0.0
 40
0.0
 40
0.0671105930667186
 40
0.1310002453984336
 40
0.1918826328217902
 40
0.2514471209544686
 40
0.3093727943415826
 40
0.3665280999613456
 40
0.4230079396621969
 40
0.4798718262148602
 40
0.5378475758364214
 40
0.5972950221239716
 40
0.6583000232178242
 40
0.721923405869946
 40
0.7878055106059145
 40
0.8559459939160471
 40
0.926447524474427
 40
1.0
 40
1.0
 40
1.0
 40
1.0
 10
1.030247025847228
 20
-7.665648164803479
 30
0.0
 10
1.02841351199827
 20
-7.665692730427944
 30
0.0
 10
1.024834482918373
 20
-7.6657797227711
 30
0.0
 10
1.019640660416736
 20
-7.666554182967901
 30
0.0
 10
1.014741925515296
 20
-7.667750991136064
 30
0.0
 10
1.010186662908889
 20
-7.669512316935847
 30
0.0
 10
1.00594793718255
 20
-7.671714132293106
 30
0.0
 10
1.00202740619794
 20
-7.674297402445943
 30
0.0
 10
0.9984761303321057
 20
-7.677324987867619
 30
0.0
 10
0.9952729838288948
 20
-7.680747989269697
 30
0.0
 10
0.9924326891112208
 20
-7.684577886570454
 30
0.0
 10
0.9899310255635673
 20
-7.68876824006849
 30
0.0
 10
0.9878061130115523
 20
-7.693332156454526
 30
0.0
 10
0.9860365802958266
 20
-7.698230117264046
 30
0.0
 10
0.9846277078933603
 20
-7.703447576680885
 30
0.0
 10
0.9836567619647861
 20
-7.708951498438457
 30
0.0
 10
0.9829942574030648
 20
-7.714715374013644
 30
0.0
 10
0.9829392100887726
 20
-7.718650796777522
 30
0.0
 10
0.9829111035032821
 20
-7.72066018266266
 30
0.0
  0
SPLINE
  5
1E5
330
1F
100
AcDbEntity
  8
0
  6
Continuous
 62
     7
370
    25
100
AcDbSpline
210
0.0
220
0.0
230
1.0
 70
     8
 71
     3
 72
    13
 73
     9
 74
     0
 42
0.000000001
 43
0.00000001
 40
0.0
 40
0.0
 40
0.0
 40
0.0
 40
0.2440551001113719
 40
0.4850160308760495
 40
0.6072088180420319
 40
0.7333265041611066
 40
0.8647045976924186
 40
0.9999999999999999
 40
0.9999999999999999
 40
0.9999999999999999
 40
0.9999999999999999
 10
1.064789455665784
 20
-7.673636296721772
 30
0.0
 10
1.062127326309028
 20
-7.672458913752837
 30
0.0
 10
1.056836818494591
 20
-7.670119074863366
 30
0.0
 10
1.049896251272585
 20
-7.667991519096097
 30
0.0
 10
1.044188854567967
 20
-7.66677732989934
 30
0.0
 10
1.039706823574556
 20
-7.666130806913353
 30
0.0
 10
1.035039702814196
 20
-7.665709094710085
 30
0.0
 10
1.031860153532893
 20
-7.665668672699153
 30
0.0
 10
1.030247025847228
 20
-7.665648164803479
 30
0.0
  0
SPLINE
  5
1EB
330
1F
100
AcDbEntity
  8
0
  6
Continuous
 62
     7
370
    25
100
AcDbSpline
210
0.0
220
0.0
230
1.0
 70
     8
 71
     3
 72
    23
 73
    19
 74
     0
 42
0.000000001
 43
0.00000001
 40
0.0
 40
0.0
 40
0.0
 40
0.0
 40
0.0883156926496027
 40
0.1707573110684294
 40
0.2481049470956521
 40
0.3205276866544334
 40
0.388719307111293
 40
0.4528802917082375
 40
0.5138112032110105
 40
0.5720403698407938
 40
0.6279223891011226
 40
0.6821773738058163
 40
0.7350932741450877
 40
0.7882840171618493
 40
0.8409199949326448
 40
0.8934318956255325
 40
0.9463450765879778
 40
1.0
 40
1.0
 40
1.0
 40
1.0
 10
0.4916409905282735
 20
-7.721253051828469
 30
0.0
 10
0.4916969914054474
 20
-7.718287046869528
 30
0.0
 10
0.4918052684162116
 20
-7.712552312574752
 30
0.0
 10
0.4925754554079061
 20
-7.704246961754555
 30
0.0
 10
0.4939003576853286
 20
-7.696553389323541
 30
0.0
 10
0.4957726173920974
 20
-7.689466908662122
 30
0.0
 10
0.4981186160056618
 20
-7.682993544033247
 30
0.0
 10
0.5008356099735207
 20
-7.677090585818886
 30
0.0
 10
0.5039131534488217
 20
-7.671745654843512
 30
0.0
 10
0.507422127480807
 20
-7.667012864493269
 30
0.0
 10
0.5112826938354205
 20
-7.662866982358798
 30
0.0
 10
0.5154406164727171
 20
-7.659285112287507
 30
0.0
 10
0.5199281822025313
 20
-7.656283932908202
 30
0.0
 10
0.5246916930366984
 20
-7.653864105277436
 30
0.0
 10
0.5296782812904272
 20
-7.651990284702667
 30
0.0
 10
0.5348195508621018
 20
-7.650634230345325
 30
0.0
 10
0.5401176122331293
 20
-7.649848143559582
 30
0.0
 10
0.5436965497550106
 20
-7.649730920465794
 30
0.0
 10
0.5454984736961384
 20
-7.649671900966892
 30
0.0
  0
SPLINE
  5
1EC
330
1F
100
AcDbEntity
  8
0
  6
Continuous
 62
     7
370
    25
100
AcDbSpline
210
0.0
220
0.0
230
1.0
 70
     8
 71
     3
 72
    23
 73
    19
 74
     0
 42
0.000000001
 43
0.00000001
 40
0.0
 40
0.0
 40
0.0
 40
0.0
 40
0.064387824799246
 40
0.1249318694870443
 40
0.1828294739329611
 40
0.2383865226298442
 40
0.292894361907747
 40
0.3464865323063757
 40
0.4006587723462738
 40
0.4558496961758193
 40
0.5127910363409232
 40
0.5725685861700442
 40
0.6348139147014731
 40
0.700677375695216
 40
0.7701693757866234
 40
0.8427504068791452
 40
0.9195894946768596
 40
0.9999999999999999
 40
0.9999999999999999
 40
0.9999999999999999
 40
0.9999999999999999
 10
0.5434078297956477
 20
-7.79146124251659
 30
0.0
 10
0.5412833410437711
 20
-7.791398420921483
 30
0.0
 10
0.5371611898093772
 20
-7.791276528011682
 30
0.0
 10
0.5311723511334764
 20
-7.790417328411009
 30
0.0
 10
0.525629818408003
 20
-7.788872184739505
 30
0.0
 10
0.5204801697093641
 20
-7.786784456668951
 30
0.0
 10
0.5157914115855298
 20
-7.784076006863774
 30
0.0
 10
0.5114885077766779
 20
-7.780868057915565
 30
0.0
 10
0.5076335624973692
 20
-7.777096766891058
 30
0.0
 10
0.504222512181031
 20
-7.772782021850714
 30
0.0
 10
0.5012183178215037
 20
-7.767960025254242
 30
0.0
 10
0.4985897551591951
 20
-7.762660071363249
 30
0.0
 10
0.4964602945950353
 20
-7.756828556338135
 30
0.0
 10
0.4946771978603283
 20
-7.750551519974834
 30
0.0
 10
0.4933368641070438
 20
-7.74381701757116
 30
0.0
 10
0.4923303831811027
 20
-7.736661556650371
 30
0.0
 10
0.4917373316457328
 20
-7.72909527989474
 30
0.0
 10
0.4916735868201585
 20
-7.723906410662354
 30
0.0
 10
0.4916409905282735
 20
-7.721253051828469
 30
0.0
  0
SPLINE
  5
1ED
330
1F
100
AcDbEntity
  8
0
  6
Continuous
 62
     7
370
    25
100
AcDbSpline
210
0.0
220
0.0
230
1.0
 70
     8
 71
     3
 72
    23
 73
    19
 74
     0
 42
0.000000001
 43
0.00000001
 40
0.0
 40
0.0
 40
0.0
 40
0.0
 40
0.0889395291904023
 40
0.1717434781274345
 40
0.2491309507393281
 40
0.3216841429182666
 40
0.3897485696689224
 40
0.4536903644520337
 40
0.5145690384776428
 40
0.572167515939597
 40
0.6278586283820876
 40
0.6821296485408274
 40
0.7351216012987817
 40
0.7881306315638963
 40
0.8411648186583477
 40
0.8937959586632981
 40
0.9465283750948165
 40
1.0
 40
1.0
 40
1.0
 40
1.0
 10
0.5974837384456534
 20
-7.719661666172873
 30
0.0
 10
0.5974319505838104
 20
-7.722659265629312
 30
0.0
 10
0.5973319474963339
 20
-7.728447672217115
 30
0.0
 10
0.5965082182785427
 20
-7.736811064900608
 30
0.0
 10
0.5952019761761503
 20
-7.744552526601715
 30
0.0
 10
0.5932962440212693
 20
-7.751659977605069
 30
0.0
 10
0.5909038339305431
 20
-7.758131752283531
 30
0.0
 10
0.5882046372501895
 20
-7.764053808429503
 30
0.0
 10
0.5850864480348056
 20
-7.769363803061391
 30
0.0
 10
0.5816054031445625
 20
-7.774105044477885
 30
0.0
 10
0.5777356719403064
 20
-7.778230675792423
 30
0.0
 10
0.5735987999071964
 20
-7.781861889157726
 30
0.0
 10
0.5690736440883891
 20
-7.784836367483617
 30
0.0
 10
0.5642946084435501
 20
-7.787286079380806
 30
0.0
 10
0.5592659150980972
 20
-7.789135326019153
 30
0.0
 10
0.5540968253793648
 20
-7.790496596793476
 30
0.0
 10
0.5487886676423991
 20
-7.791285212414703
 30
0.0
 10
0.5452097458282464
 20
-7.791402294175859
 30
0.0
 10
0.5434078297956477
 20
-7.79146124251659
 30
0.0
  0
SPLINE
  5
1EE
330
1F
100
AcDbEntity
  8
0
  6
Continuous
 62
     7
370
    25
100
AcDbSpline
210
0.0
220
0.0
230
1.0
 70
     8
 71
     3
 72
    23
 73
    19
 74
     0
 42
0.000000001
 43
0.00000001
 40
0.0
 40
0.0
 40
0.0
 40
0.0
 40
0.064472869675544
 40
0.1254557770879965
 40
0.1833464336701517
 40
0.2390976368235228
 40
0.2934038497223213
 40
0.3475087729165578
 40
0.401752564860365
 40
0.4571667371689171
 40
0.5143516846984206
 40
0.5739253525566409
 40
0.6360687717983022
 40
0.7018028140299195
 40
0.7711412961686164
 40
0.8434622188003329
 40
0.9197988634456734
 40
0.9999999999999999
 40
0.9999999999999999
 40
0.9999999999999999
 40
0.9999999999999999
 10
0.5454984736961384
 20
-7.649671900966892
 30
0.0
 10
0.5476237984188876
 20
-7.649730392308593
 30
0.0
 10
0.5517594025264551
 20
-7.649844208814089
 30
0.0
 10
0.5577456269099368
 20
-7.650766229072067
 30
0.0
 10
0.563320513847723
 20
-7.652241996902563
 30
0.0
 10
0.568443854388576
 20
-7.654381989650807
 30
0.0
 10
0.5731332544323094
 20
-7.657101894716776
 30
0.0
 10
0.5774416945343894
 20
-7.660315509963489
 30
0.0
 10
0.5812907860693876
 20
-7.664115849287829
 30
0.0
 10
0.5847904494061378
 20
-7.668371319285657
 30
0.0
 10
0.5878067942313122
 20
-7.673191602363489
 30
0.0
 10
0.5904354475663613
 20
-7.678478248843554
 30
0.0
 10
0.5926060532509896
 20
-7.684270473279474
 30
0.0
 10
0.5944109202078833
 20
-7.690518574170214
 30
0.0
 10
0.5958099508108544
 20
-7.697215372931435
 30
0.0
 10
0.5967364605422536
 20
-7.704341687360145
 30
0.0
 10
0.5974037463855367
 20
-7.711858561810809
 30
0.0
 10
0.5974566391660016
 20
-7.71701817246923
 30
0.0
 10
0.5974837384456534
 20
-7.719661666172872
 30
0.0
  0
SPLINE
  5
1EF
330
1F
100
AcDbEntity
  8
0
  6
Continuous
 62
     7
370
    25
100
AcDbSpline
210
0.0
220
0.0
230
1.0
 70
     8
 71
     3
 72
    23
 73
    19
 74
     0
 42
0.000000001
 43
0.00000001
 40
0.0
 40
0.0
 40
0.0
 40
0.0
 40
0.058648457450294
 40
0.1143898039713896
 40
0.1675830947795801
 40
0.2204075791925796
 40
0.2736590604087671
 40
0.327793770786174
 40
0.3833211448978945
 40
0.440967616766285
 40
0.5015735601645541
 40
0.5648115474091802
 40
0.6309300375324407
 40
0.7004116376199727
 40
0.7727418658013391
 40
0.8466891291382432
 40
0.9221072535370424
 40
0.9999999999999999
 40
0.9999999999999999
 40
0.9999999999999999
 40
0.9999999999999999
 10
0.544468753566046
 20
-7.665648164803478
 30
0.0
 10
0.543081310113101
 20
-7.665701723282647
 30
0.0
 10
0.5403751965765554
 20
-7.665806185432195
 30
0.0
 10
0.536478942640848
 20
-7.666628884688241
 30
0.0
 10
0.5328866263689295
 20
-7.667983872983201
 30
0.0
 10
0.5296179697930078
 20
-7.669885438849494
 30
0.0
 10
0.5266436125674551
 20
-7.672248477564335
 30
0.0
 10
0.5239514344703861
 20
-7.675015931295445
 30
0.0
 10
0.5215367308682138
 20
-7.678159726828556
 30
0.0
 10
0.5194137358525175
 20
-7.681686112497584
 30
0.0
 10
0.5175578908318027
 20
-7.685559962812685
 30
0.0
 10
0.5159280879393108
 20
-7.689749794730638
 30
0.0
 10
0.5145966717762877
 20
-7.694263442349452
 30
0.0
 10
0.5135274080088168
 20
-7.699063436074637
 30
0.0
 10
0.5126402985300837
 20
-7.704089658162334
 30
0.0
 10
0.5120790065593376
 20
-7.709302880657309
 30
0.0
 10
0.511676501553972
 20
-7.714662804271399
 30
0.0
 10
0.5116332799502376
 20
-7.718287910747549
 30
0.0
 10
0.5116113203240056
 20
-7.720129720777459
 30
0.0
  0
SPLINE
  5
1F0
330
1F
100
AcDbEntity
  8
0
  6
Continuous
 62
     7
370
    25
100
AcDbSpline
210
0.0
220
0.0
230
1.0
 70
     8
 71
     3
 72
    23
 73
    19
 74
     0
 42
0.000000001
 43
0.00000001
 40
0.0
 40
0.0
 40
0.0
 40
0.0
 40
0.0585469389028147
 40
0.1136728651597057
 40
0.167341366723286
 40
0.220455294244443
 40
0.2739600100699348
 40
0.3280010150473253
 40
0.383972504290273
 40
0.4417483459750117
 40
0.5022493824821215
 40
0.5649686588319943
 40
0.6310997053884471
 40
0.7005596910357889
 40
0.772258028585296
 40
0.8460772916458009
 40
0.9218029966665435
 40
1.0
 40
1.0
 40
1.0
 40
1.0
 10
0.544468753566046
 20
-7.775484978680005
 30
0.0
 10
0.5458553762354
 20
-7.775428080656249
 30
0.0
 10
0.5485475984877455
 20
-7.775317609272032
 30
0.0
 10
0.552456607556543
 20
-7.774543769225565
 30
0.0
 10
0.5560429759401873
 20
-7.773140197814712
 30
0.0
 10
0.5593488479591477
 20
-7.771249765561765
 30
0.0
 10
0.5623569546583116
 20
-7.768896523940214
 30
0.0
 10
0.5650445780449246
 20
-7.766097372843737
 30
0.0
 10
0.5675287047993349
 20
-7.762986589276132
 30
0.0
 10
0.5696823182990801
 20
-7.759454109300647
 30
0.0
 10
0.571528429210349
 20
-7.755580603925186
 30
0.0
 10
0.5731671769511596
 20
-7.751401972726741
 30
0.0
 10
0.5745251684818645
 20
-7.746901640376954
 30
0.0
 10
0.5756430957033487
 20
-7.742118275189303
 30
0.0
 10
0.5764739046109123
 20
-7.737091858456179
 30
0.0
 10
0.5770506928522635
 20
-7.731882972972694
 30
0.0
 10
0.5774470985530437
 20
-7.72650132974513
 30
0.0
 10
0.5774910699574041
 20
-7.722855569824157
 30
0.0
 10
0.5775134086499214
 20
-7.721003422706024
 30
0.0
  0
SPLINE
  5
1F1
330
1F
100
AcDbEntity
  8
0
  6
Continuous
 62
     7
370
    25
100
AcDbSpline
210
0.0
220
0.0
230
1.0
 70
     8
 71
     3
 72
    23
 73
    19
 74
     0
 42
0.000000001
 43
0.00000001
 40
0.0
 40
0.0
 40
0.0
 40
0.0
 40
0.0837976959704592
 40
0.1634009035640947
 40
0.2398038701177236
 40
0.312792492554418
 40
0.3821654140838588
 40
0.4477732866055093
 40
0.5096914293040661
 40
0.5686044429619767
 40
0.6244525081902773
 40
0.6780095055453789
 40
0.7302354124402765
 40
0.7814535001287737
 40
0.833048890064022
 40
0.8857741356442805
 40
0.9411661811805054
 40
0.9999999999999999
 40
0.9999999999999999
 40
0.9999999999999999
 40
0.9999999999999999
 10
0.5116113203240056
 20
-7.720129720777459
 30
0.0
 10
0.5116359924943513
 20
-7.722148099815965
 30
0.0
 10
0.5116841018711149
 20
-7.72608382805774
 30
0.0
 10
0.512038167361576
 20
-7.731850722779781
 30
0.0
 10
0.5125819527742833
 20
-7.737340839173486
 30
0.0
 10
0.5133868620735781
 20
-7.742551197999208
 30
0.0
 10
0.5144419868343773
 20
-7.747450159448396
 30
0.0
 10
0.5157290556920364
 20
-7.752020236198799
 30
0.0
 10
0.5173379255080754
 20
-7.756217027169622
 30
0.0
 10
0.519148449598965
 20
-7.760076422721663
 30
0.0
 10
0.5212982422515687
 20
-7.763520596835742
 30
0.0
 10
0.5236492508904418
 20
-7.766638048981055
 30
0.0
 10
0.5264014719502039
 20
-7.769250581126068
 30
0.0
 10
0.5293845759771072
 20
-7.771511162751053
 30
0.0
 10
0.5326899043283336
 20
-7.77330868556488
 30
0.0
 10
0.5363285700655287
 20
-7.774600451224337
 30
0.0
 10
0.5402982784083165
 20
-7.775350677437443
 30
0.0
 10
0.5430509480129602
 20
-7.775439321281198
 30
0.0
 10
0.544468753566046
 20
-7.775484978680004
 30
0.0
  0
SPLINE
  5
1F2
330
1F
100
AcDbEntity
  8
0
  6
Continuous
 62
     7
370
    25
100
AcDbSpline
210
0.0
220
0.0
230
1.0
 70
     8
 71
     3
 72
    23
 73
    19
 74
     0
 42
0.000000001
 43
0.00000001
 40
0.0
 40
0.0
 40
0.0
 40
0.0
 40
0.082701542770189
 40
0.1620569304211265
 40
0.2382455884085682
 40
0.3109644761667495
 40
0.3800529427012838
 40
0.4455971487802515
 40
0.5071897452739705
 40
0.5665123881379036
 40
0.6227967198411924
 40
0.6764684785202975
 40
0.7285478929459973
 40
0.7802251437128128
 40
0.8318521282611981
 40
0.8852415342364195
 40
0.9409013026544807
 40
1.0
 40
1.0
 40
1.0
 40
1.0
 10
0.5775134086499214
 20
-7.721003422706024
 30
0.0
 10
0.5774844222317368
 20
-7.719006089229832
 30
0.0
 10
0.577427622203617
 20
-7.715092235614326
 30
0.0
 10
0.5771304246368021
 20
-7.709343430799285
 30
0.0
 10
0.5765642427914899
 20
-7.703857130113439
 30
0.0
 10
0.575795676025096
 20
-7.69864711676931
 30
0.0
 10
0.5747973151268304
 20
-7.693734061784426
 30
0.0
 10
0.5734364866123017
 20
-7.689189524165948
 30
0.0
 10
0.5718908909296548
 20
-7.684955568886312
 30
0.0
 10
0.570032728960458
 20
-7.681089961593576
 30
0.0
 10
0.5678686730674595
 20
-7.677614480018458
 30
0.0
 10
0.5654743838123744
 20
-7.674503215355302
 30
0.0
 10
0.5627108940067865
 20
-7.671876652052998
 30
0.0
 10
0.5597255684952981
 20
-7.669582327902702
 30
0.0
 10
0.5563533542393835
 20
-7.66782538989475
 30
0.0
 10
0.5526805479849388
 20
-7.666535824606012
 30
0.0
 10
0.5486701441133096
 20
-7.665782200029691
 30
0.0
 10
0.5458969185259632
 20
-7.66569372695994
 30
0.0
 10
0.544468753566046
 20
-7.665648164803478
 30
0.0
  0
SPLINE
  5
1F3
330
1F
100
AcDbEntity
  8
0
  6
Continuous
 62
     7
370
    25
100
AcDbSpline
210
0.0
220
0.0
230
1.0
 70
     8
 71
     3
 72
    23
 73
    19
 74
     0
 42
0.000000001
 43
0.00000001
 40
0.0
 40
0.0
 40
0.0
 40
0.0
 40
0.0709815902719266
 40
0.1375300704237805
 40
0.2002360684831031
 40
0.2603158501036389
 40
0.3176086422797144
 40
0.3732709724312948
 40
0.428921356594925
 40
0.4842842637561308
 40
0.5402206474949653
 40
0.5979757654415904
 40
0.6574325960028938
 40
0.7195794448742361
 40
0.7842480877933277
 40
0.8520780338707578
 40
0.9241287541788454
 40
1.0
 40
1.0
 40
1.0
 40
1.0
 10
1.272480885541397
 20
-7.689862189680804
 30
0.0
 10
1.2724662578434
 20
-7.688956395314309
 30
0.0
 10
1.272437916010991
 20
-7.687201377392958
 30
0.0
 10
1.272124852797844
 20
-7.684660743533605
 30
0.0
 10
1.271587868969406
 20
-7.682302578389693
 30
0.0
 10
1.270876697227967
 20
-7.68011500583753
 30
0.0
 10
1.269976167341316
 20
-7.678093461294472
 30
0.0
 10
1.268834728365522
 20
-7.676262938758246
 30
0.0
 10
1.267492028863794
 20
-7.674607845989952
 30
0.0
 10
1.265951947412393
 20
-7.673128499374404
 30
0.0
 10
1.264213710418643
 20
-7.671843279340535
 30
0.0
 10
1.262304465442108
 20
-7.67072692365067
 30
0.0
 10
1.260233898727671
 20
-7.669744895374632
 30
0.0
 10
1.257981675779696
 20
-7.668972506405814
 30
0.0
 10
1.255565769241656
 20
-7.668390332622311
 30
0.0
 10
1.252992650275156
 20
-7.667943800434835
 30
0.0
 10
1.250247597497347
 20
-7.667705172116936
 30
0.0
 10
1.24836088167533
 20
-7.667665530515174
 30
0.0
 10
1.247393158735508
 20
-7.667645197783052
 30
0.0
  0
SPLINE
  5
1F7
330
1F
100
AcDbEntity
  8
0
  6
Continuous
 62
     7
370
    25
100
AcDbSpline
210
0.0
220
0.0
230
1.0
 70
     8
 71
     3
 72
    23
 73
    19
 74
     0
 42
0.000000001
 43
0.00000001
 40
0.0
 40
0.0
 40
0.0
 40
0.0
 40
0.075155520433747
 40
0.1468087494051597
 40
0.2146777378580102
 40
0.2805666073048215
 40
0.3431985059580693
 40
0.403617155214226
 40
0.4624423831755476
 40
0.5198107508500358
 40
0.5761716450475639
 40
0.6322303613434579
 40
0.6892665644340266
 40
0.7472985183721637
 40
0.8063581885563513
 40
0.8680125980874311
 40
0.9323987738882449
 40
1.0
 40
1.0
 40
1.0
 40
1.0
 10
1.244990478431959
 20
-7.713576956313236
 30
0.0
 10
1.246020728681567
 20
-7.713558917794191
 30
0.0
 10
1.248033218913109
 20
-7.713523681361703
 30
0.0
 10
1.250967199979442
 20
-7.713251779801683
 30
0.0
 10
1.253740272692765
 20
-7.712743356541693
 30
0.0
 10
1.256344204364033
 20
-7.712056514444078
 30
0.0
 10
1.258806946621757
 20
-7.711237160659477
 30
0.0
 10
1.261051509201631
 20
-7.710144430377981
 30
0.0
 10
1.263168686783718
 20
-7.708959259376144
 30
0.0
 10
1.265033536883387
 20
-7.707493812957098
 30
0.0
 10
1.26674404737828
 20
-7.705909792035067
 30
0.0
 10
1.268218046146917
 20
-7.704105083026407
 30
0.0
 10
1.269492508721754
 20
-7.70213204108573
 30
0.0
 10
1.270598630086888
 20
-7.700011677156171
 30
0.0
 10
1.271449189673764
 20
-7.697705691370789
 30
0.0
 10
1.272021959087266
 20
-7.695230232766615
 30
0.0
 10
1.272416476326818
 20
-7.692599791358703
 30
0.0
 10
1.272459069960411
 20
-7.690789423020016
 30
0.0
 10
1.272480885541397
 20
-7.689862189680804
 30
0.0
  0
LINE
  5
1FE
330
1F
100
AcDbEntity
  8
0
  6
Continuous
 62
     7
370
    25
100
AcDbLine
 10
0.4716706607
 20
-7.6556629999
 30
0.0
 11
0.4716706607
 21
-7.6736362967
 31
0.0
  0
LINE
  5
1FF
330
1F
100
AcDbEntity
  8
0
  6
Continuous
 62
     7
370
    25
100
AcDbLine
 10
0.4716706607
 20
-7.7674968468
 30
0.0
 11
0.4716706607
 21
-7.7854701436
 31
0.0
  0
LINE
  5
200
330
1F
100
AcDbEntity
  8
0
  6
Continuous
 62
     7
370
    25
100
AcDbLine
 10
0.6474095629
 20
-7.7734879457
 30
0.0
 11
0.7073205523
 21
-7.7734879457
 31
0.0
  0
LINE
  5
201
330
1F
100
AcDbEntity
  8
0
  6
Continuous
 62
     7
370
    25
100
AcDbLine
 10
0.6474095629
 20
-7.6516689339
 30
0.0
 11
0.6474095629
 21
-7.7734879457
 31
0.0
  0
LINE
  5
202
330
1F
100
AcDbEntity
  8
0
  6
Continuous
 62
     7
370
    25
100
AcDbLine
 10
0.6274392331
 20
-7.6516689339
 30
0.0
 11
0.6474095629
 21
-7.6516689339
 31
0.0
  0
LINE
  5
203
330
1F
100
AcDbEntity
  8
0
  6
Continuous
 62
     7
370
    25
100
AcDbLine
 10
0.6274392331
 20
-7.7894642095
 30
0.0
 11
0.6274392331
 21
-7.6516689339
 31
0.0
  0
LINE
  5
204
330
1F
100
AcDbEntity
  8
0
  6
Continuous
 62
     7
370
    25
100
AcDbLine
 10
0.7073205523
 20
-7.7894642095
 30
0.0
 11
0.6274392331
 21
-7.7894642095
 31
0.0
  0
LINE
  5
205
330
1F
100
AcDbEntity
  8
0
  6
Continuous
 62
     7
370
    25
100
AcDbLine
 10
0.7073205523
 20
-7.7734879457
 30
0.0
 11
0.7073205523
 21
-7.7894642095
 31
0.0
  0
LINE
  5
206
330
1F
100
AcDbEntity
  8
0
  6
Continuous
 62
     7
370
    25
100
AcDbLine
 10
0.8859301894
 20
-7.6516689339
 30
0.0
 11
0.9116107854
 21
-7.6516689339
 31
0.0
  0
LINE
  5
207
330
1F
100
AcDbEntity
  8
0
  6
Continuous
 62
     7
370
    25
100
AcDbLine
 10
0.8401232455
 20
-7.7894642095
 30
0.0
 11
0.8859301894
 21
-7.6516689339
 31
0.0
  0
LINE
  5
208
330
1F
100
AcDbEntity
  8
0
  6
Continuous
 62
     7
370
    25
100
AcDbLine
 10
0.859594317
 20
-7.7894642095
 30
0.0
 11
0.8401232455
 21
-7.7894642095
 31
0.0
  0
LINE
  5
209
330
1F
100
AcDbEntity
  8
0
  6
Continuous
 62
     7
370
    25
100
AcDbLine
 10
0.86904902
 20
-7.7595087148
 30
0.0
 11
0.859594317
 21
-7.7894642095
 31
0.0
  0
LINE
  5
20A
330
1F
100
AcDbEntity
  8
0
  6
Continuous
 62
     7
370
    25
100
AcDbLine
 10
0.9262764963
 20
-7.7595087148
 30
0.0
 11
0.86904902
 21
-7.7595087148
 31
0.0
  0
LINE
  5
20B
330
1F
100
AcDbEntity
  8
0
  6
Continuous
 62
     7
370
    25
100
AcDbLine
 10
0.9355127739
 20
-7.7894642095
 30
0.0
 11
0.9262764963
 21
-7.7595087148
 31
0.0
  0
LINE
  5
20C
330
1F
100
AcDbEntity
  8
0
  6
Continuous
 62
     7
370
    25
100
AcDbLine
 10
0.9559511583
 20
-7.7894642095
 30
0.0
 11
0.9355127739
 21
-7.7894642095
 31
0.0
  0
LINE
  5
20D
330
1F
100
AcDbEntity
  8
0
  6
Continuous
 62
     7
370
    25
100
AcDbLine
 10
0.9116107854
 20
-7.6516689339
 30
0.0
 11
0.9559511583
 21
-7.7894642095
 31
0.0
  0
LINE
  5
20E
330
1F
100
AcDbEntity
  8
0
  6
Continuous
 62
     7
370
    25
100
AcDbLine
 10
1.121580081
 20
-7.6516689339
 30
0.0
 11
1.147260677
 21
-7.6516689339
 31
0.0
  0
LINE
  5
20F
330
1F
100
AcDbEntity
  8
0
  6
Continuous
 62
     7
370
    25
100
AcDbLine
 10
1.0757731371
 20
-7.7894642095
 30
0.0
 11
1.121580081
 21
-7.6516689339
 31
0.0
  0
LINE
  5
210
330
1F
100
AcDbEntity
  8
0
  6
Continuous
 62
     7
370
    25
100
AcDbLine
 10
1.0952442086
 20
-7.7894642095
 30
0.0
 11
1.0757731371
 21
-7.7894642095
 31
0.0
  0
LINE
  5
211
330
1F
100
AcDbEntity
  8
0
  6
Continuous
 62
     7
370
    25
100
AcDbLine
 10
1.1046989116
 20
-7.7595087148
 30
0.0
 11
1.0952442086
 21
-7.7894642095
 31
0.0
  0
LINE
  5
212
330
1F
100
AcDbEntity
  8
0
  6
Continuous
 62
     7
370
    25
100
AcDbLine
 10
1.1619263879
 20
-7.7595087148
 30
0.0
 11
1.1046989116
 21
-7.7595087148
 31
0.0
  0
LINE
  5
213
330
1F
100
AcDbEntity
  8
0
  6
Continuous
 62
     7
370
    25
100
AcDbLine
 10
1.1711626655
 20
-7.7894642095
 30
0.0
 11
1.1619263879
 21
-7.7595087148
 31
0.0
  0
LINE
  5
214
330
1F
100
AcDbEntity
  8
0
  6
Continuous
 62
     7
370
    25
100
AcDbLine
 10
1.1916010499
 20
-7.7894642095
 30
0.0
 11
1.1711626655
 21
-7.7894642095
 31
0.0
  0
LINE
  5
215
330
1F
100
AcDbEntity
  8
0
  6
Continuous
 62
     7
370
    25
100
AcDbLine
 10
1.147260677
 20
-7.6516689339
 30
0.0
 11
1.1916010499
 21
-7.7894642095
 31
0.0
  0
LINE
  5
216
330
1F
100
AcDbEntity
  8
0
  6
Continuous
 62
     7
370
    25
100
AcDbLine
 10
1.9675371215
 20
-5.1211102362
 30
0.0
 11
1.7592208716
 21
-5.1211102362
 31
0.0
  0
LINE
  5
217
330
1F
100
AcDbEntity
  8
0
  6
Continuous
 62
     7
370
    25
100
AcDbLine
 10
1.9675371215
 20
-5.1181102362
 30
0.0
 11
1.9675371215
 21
-5.1211102362
 31
0.0
  0
LINE
  5
218
330
1F
100
AcDbEntity
  8
0
  6
Continuous
 62
     7
370
    25
100
AcDbLine
 10
1.9675371215
 20
-5.1181102362
 30
0.0
 11
1.968503937
 21
-5.1181102362
 31
0.0
  0
LINE
  5
219
330
1F
100
AcDbEntity
  8
0
  6
Continuous
 62
     7
370
    25
100
AcDbLine
 10
1.968503937
 20
-5.1181102362
 30
0.0
 11
1.968503937
 21
-5.5118110236
 31
0.0
  0
LINE
  5
21A
330
1F
100
AcDbEntity
  8
0
  6
Continuous
 62
     7
370
    25
100
AcDbLine
 10
1.968503937
 20
-5.5118110236
 30
0.0
 11
1.9675371215
 21
-5.5118110236
 31
0.0
  0
LINE
  5
21B
330
1F
100
AcDbEntity
  8
0
  6
Continuous
 62
     7
370
    25
100
AcDbLine
 10
1.9675371215
 20
-5.5088110236
 30
0.0
 11
1.9675371215
 21
-5.5118110236
 31
0.0
  0
LINE
  5
21C
330
1F
100
AcDbEntity
  8
0
  6
Continuous
 62
     7
370
    25
100
AcDbLine
 10
1.7592208716
 20
-5.5088110236
 30
0.0
 11
1.9675371215
 21
-5.5088110236
 31
0.0
  0
LINE
  5
21D
330
1F
100
AcDbEntity
  8
0
  6
Continuous
 62
     7
370
    25
100
AcDbLine
 10
1.7194704002
 20
-5.5088110236
 30
0.0
 11
1.7219811762
 21
-5.5088110236
 31
0.0
  0
LINE
  5
21E
330
1F
100
AcDbEntity
  8
0
  6
Continuous
 62
     7
370
    25
100
AcDbLine
 10
1.7194704002
 20
-5.5108850951
 30
0.0
 11
1.7194704002
 21
-5.5088110236
 31
0.0
  0
LINE
  5
21F
330
1F
100
AcDbEntity
  8
0
  6
Continuous
 62
     7
370
    25
100
AcDbLine
 10
1.718503937
 20
-5.5560051974
 30
0.0
 11
1.718503937
 21
-5.8613176372
 31
0.0
  0
LINE
  5
220
330
1F
100
AcDbEntity
  8
0
  6
Continuous
 62
     7
370
    25
100
AcDbLine
 10
1.7194704002
 20
-5.908511811
 30
0.0
 11
1.7194704002
 21
-5.9064377396
 31
0.0
  0
LINE
  5
221
330
1F
100
AcDbEntity
  8
0
  6
Continuous
 62
     7
370
    25
100
AcDbLine
 10
1.7219811762
 20
-5.908511811
 30
0.0
 11
1.7194704002
 21
-5.908511811
 31
0.0
  0
LINE
  5
222
330
1F
100
AcDbEntity
  8
0
  6
Continuous
 62
     7
370
    25
100
AcDbLine
 10
1.9675371215
 20
-5.908511811
 30
0.0
 11
1.7592208716
 21
-5.908511811
 31
0.0
  0
LINE
  5
223
330
1F
100
AcDbEntity
  8
0
  6
Continuous
 62
     7
370
    25
100
AcDbLine
 10
1.9675371215
 20
-5.905511811
 30
0.0
 11
1.9675371215
 21
-5.908511811
 31
0.0
  0
LINE
  5
224
330
1F
100
AcDbEntity
  8
0
  6
Continuous
 62
     7
370
    25
100
AcDbLine
 10
1.9675371215
 20
-5.905511811
 30
0.0
 11
1.968503937
 21
-5.905511811
 31
0.0
  0
LINE
  5
225
330
1F
100
AcDbEntity
  8
0
  6
Continuous
 62
     7
370
    25
100
AcDbLine
 10
1.968503937
 20
-5.905511811
 30
0.0
 11
1.968503937
 21
-6.2992125984
 31
0.0
  0
LINE
  5
226
330
1F
100
AcDbEntity
  8
0
  6
Continuous
 62
     7
370
    25
100
AcDbLine
 10
1.968503937
 20
-6.2992125984
 30
0.0
 11
1.9675371215
 21
-6.2992125984
 31
0.0
  0
LINE
  5
227
330
1F
100
AcDbEntity
  8
0
  6
Continuous
 62
     7
370
    25
100
AcDbLine
 10
1.9675371215
 20
-6.2962125984
 30
0.0
 11
1.9675371215
 21
-6.2992125984
 31
0.0
  0
LINE
  5
228
330
1F
100
AcDbEntity
  8
0
  6
Continuous
 62
     7
370
    25
100
AcDbLine
 10
1.7592208716
 20
-6.2962125984
 30
0.0
 11
1.9675371215
 21
-6.2962125984
 31
0.0
  0
LINE
  5
229
330
1F
100
AcDbEntity
  8
0
  6
Continuous
 62
     7
370
    25
100
AcDbLine
 10
1.7194704002
 20
-6.2962125984
 30
0.0
 11
1.7219811762
 21
-6.2962125984
 31
0.0
  0
LINE
  5
22A
330
1F
100
AcDbEntity
  8
0
  6
Continuous
 62
     7
370
    25
100
AcDbLine
 10
1.7194704002
 20
-6.2982866699
 30
0.0
 11
1.7194704002
 21
-6.2962125984
 31
0.0
  0
LINE
  5
22B
330
1F
100
AcDbEntity
  8
0
  6
Continuous
 62
     7
370
    25
100
AcDbLine
 10
1.718503937
 20
-6.3434067722
 30
0.0
 11
1.718503937
 21
-6.648719212
 31
0.0
  0
LINE
  5
22C
330
1F
100
AcDbEntity
  8
0
  6
Continuous
 62
     7
370
    25
100
AcDbLine
 10
1.7194704002
 20
-6.6959133858
 30
0.0
 11
1.7194704002
 21
-6.6938393144
 31
0.0
  0
LINE
  5
22D
330
1F
100
AcDbEntity
  8
0
  6
Continuous
 62
     7
370
    25
100
AcDbLine
 10
1.7219811762
 20
-6.6959133858
 30
0.0
 11
1.7194704002
 21
-6.6959133858
 31
0.0
  0
LINE
  5
22E
330
1F
100
AcDbEntity
  8
0
  6
Continuous
 62
     7
370
    25
100
AcDbLine
 10
1.9675371215
 20
-6.6959133858
 30
0.0
 11
1.7592208716
 21
-6.6959133858
 31
0.0
  0
LINE
  5
22F
330
1F
100
AcDbEntity
  8
0
  6
Continuous
 62
     7
370
    25
100
AcDbLine
 10
1.9675371215
 20
-6.6929133858
 30
0.0
 11
1.9675371215
 21
-6.6959133858
 31
0.0
  0
LINE
  5
230
330
1F
100
AcDbEntity
  8
0
  6
Continuous
 62
     7
370
    25
100
AcDbLine
 10
1.9675371215
 20
-6.6929133858
 30
0.0
 11
1.968503937
 21
-6.6929133858
 31
0.0
  0
LINE
  5
231
330
1F
100
AcDbEntity
  8
0
  6
Continuous
 62
     7
370
    25
100
AcDbLine
 10
1.968503937
 20
-6.6929133858
 30
0.0
 11
1.968503937
 21
-7.0866141732
 31
0.0
  0
LINE
  5
232
330
1F
100
AcDbEntity
  8
0
  6
Continuous
 62
     7
370
    25
100
AcDbLine
 10
1.968503937
 20
-7.0866141732
 30
0.0
 11
1.9675371215
 21
-7.0866141732
 31
0.0
  0
LINE
  5
233
330
1F
100
AcDbEntity
  8
0
  6
Continuous
 62
     7
370
    25
100
AcDbLine
 10
1.9675371215
 20
-7.0836141732
 30
0.0
 11
1.9675371215
 21
-7.0866141732
 31
0.0
  0
LINE
  5
234
330
1F
100
AcDbEntity
  8
0
  6
Continuous
 62
     7
370
    25
100
AcDbLine
 10
1.7592208716
 20
-7.0836141732
 30
0.0
 11
1.9675371215
 21
-7.0836141732
 31
0.0
  0
LINE
  5
235
330
1F
100
AcDbEntity
  8
0
  6
Continuous
 62
     7
370
    25
100
AcDbLine
 10
1.7194704002
 20
-7.0836141732
 30
0.0
 11
1.7219811762
 21
-7.0836141732
 31
0.0
  0
LINE
  5
236
330
1F
100
AcDbEntity
  8
0
  6
Continuous
 62
     7
370
    25
100
AcDbLine
 10
1.7194704002
 20
-7.0856882447
 30
0.0
 11
1.7194704002
 21
-7.0836141732
 31
0.0
  0
LINE
  5
237
330
1F
100
AcDbEntity
  8
0
  6
Continuous
 62
     7
370
    25
100
AcDbLine
 10
1.718503937
 20
-7.1308083471
 30
0.0
 11
1.718503937
 21
-7.4361207868
 31
0.0
  0
LINE
  5
238
330
1F
100
AcDbEntity
  8
0
  6
Continuous
 62
     7
370
    25
100
AcDbLine
 10
1.7194704002
 20
-7.4833149606
 30
0.0
 11
1.7194704002
 21
-7.4812408892
 31
0.0
  0
LINE
  5
239
330
1F
100
AcDbEntity
  8
0
  6
Continuous
 62
     7
370
    25
100
AcDbLine
 10
1.7219811762
 20
-7.4833149606
 30
0.0
 11
1.7194704002
 21
-7.4833149606
 31
0.0
  0
LINE
  5
23A
330
1F
100
AcDbEntity
  8
0
  6
Continuous
 62
     7
370
    25
100
AcDbLine
 10
1.9675371215
 20
-7.4833149606
 30
0.0
 11
1.7592208716
 21
-7.4833149606
 31
0.0
  0
LINE
  5
23B
330
1F
100
AcDbEntity
  8
0
  6
Continuous
 62
     7
370
    25
100
AcDbLine
 10
1.9675371215
 20
-7.4803149606
 30
0.0
 11
1.9675371215
 21
-7.4833149606
 31
0.0
  0
LINE
  5
23C
330
1F
100
AcDbEntity
  8
0
  6
Continuous
 62
     7
370
    25
100
AcDbLine
 10
1.9675371215
 20
-7.4803149606
 30
0.0
 11
1.968503937
 21
-7.4803149606
 31
0.0
  0
LINE
  5
23D
330
1F
100
AcDbEntity
  8
0
  6
Continuous
 62
     7
370
    25
100
AcDbLine
 10
1.968503937
 20
-7.4803149606
 30
0.0
 11
1.968503937
 21
-7.874015748
 31
0.0
  0
LINE
  5
23E
330
1F
100
AcDbEntity
  8
0
  6
Continuous
 62
     7
370
    25
100
AcDbLine
 10
1.968503937
 20
-7.874015748
 30
0.0
 11
1.225296536
 21
-7.874015748
 31
0.0
  0
LINE
  5
23F
330
1F
100
AcDbEntity
  8
0
  6
Continuous
 62
     7
370
    25
100
AcDbLine
 10
1.1811023622
 20
-7.9182099219
 30
0.0
 11
1.1811023622
 21
-8.061515748
 31
0.0
  0
LINE
  5
240
330
1F
100
AcDbEntity
  8
0
  6
Continuous
 62
     7
370
    25
100
AcDbLine
 10
1.1186023622
 20
-8.124015748
 30
0.0
 11
1.1811023622
 21
-8.061515748
 31
0.0
  0
LINE
  5
241
330
1F
100
AcDbEntity
  8
0
  6
Continuous
 62
     7
370
    25
100
AcDbLine
 10
1.1186023622
 20
-8.124015748
 30
0.0
 11
0.8499015748
 21
-8.124015748
 31
0.0
  0
LINE
  5
242
330
1F
100
AcDbEntity
  8
0
  6
Continuous
 62
     7
370
    25
100
AcDbLine
 10
0.7874015748
 20
-8.061515748
 30
0.0
 11
0.8499015748
 21
-8.124015748
 31
0.0
  0
LINE
  5
243
330
1F
100
AcDbEntity
  8
0
  6
Continuous
 62
     7
370
    25
100
AcDbLine
 10
0.7874015748
 20
-8.061515748
 30
0.0
 11
0.7874015748
 21
-7.9182099219
 31
0.0
  0
LINE
  5
244
330
1F
100
AcDbEntity
  8
0
  6
Continuous
 62
     7
370
    25
100
AcDbLine
 10
0.743207401
 20
-7.874015748
 30
0.0
 11
0.25
 21
-7.874015748
 31
0.0
  0
LINE
  5
245
330
1F
100
AcDbEntity
  8
0
  6
Continuous
 62
     7
370
    25
100
AcDbLine
 10
0.25
 20
-7.874015748
 30
0.0
 11
0.25
 21
-7.5245091345
 31
0.0
  0
LINE
  5
246
330
1F
100
AcDbEntity
  8
0
  6
Continuous
 62
     7
370
    25
100
AcDbLine
 10
0.2058058262
 20
-7.4803149606
 30
0.0
 11
0.0
 21
-7.4803149606
 31
0.0
  0
LINE
  5
247
330
1F
100
AcDbEntity
  8
0
  6
Continuous
 62
     7
370
    25
100
AcDbLine
 10
0.0
 20
-7.4803149606
 30
0.0
 11
0.0
 21
-7.0866141732
 31
0.0
  0
LINE
  5
248
330
1F
100
AcDbEntity
  8
0
  6
Continuous
 62
     7
370
    25
100
AcDbLine
 10
0.0
 20
-7.0866141732
 30
0.0
 11
0.0012159085
 21
-7.0866141732
 31
0.0
  0
LINE
  5
249
330
1F
100
AcDbEntity
  8
0
  6
Continuous
 62
     7
370
    25
100
AcDbLine
 10
0.0012159085
 20
-7.0896141732
 30
0.0
 11
0.0012159085
 21
-7.0866141732
 31
0.0
  0
LINE
  5
24A
330
1F
100
AcDbEntity
  8
0
  6
Continuous
 62
     7
370
    25
100
AcDbLine
 10
0.2092830654
 20
-7.0896141732
 30
0.0
 11
0.0012159085
 21
-7.0896141732
 31
0.0
  0
LINE
  5
24B
330
1F
100
AcDbEntity
  8
0
  6
Continuous
 62
     7
370
    25
100
AcDbLine
 10
0.2487845307
 20
-7.0896141732
 30
0.0
 11
0.2465227608
 21
-7.0896141732
 31
0.0
  0
LINE
  5
24C
330
1F
100
AcDbEntity
  8
0
  6
Continuous
 62
     7
370
    25
100
AcDbLine
 10
0.2487845307
 20
-7.087766184
 30
0.0
 11
0.2487845307
 21
-7.0896141732
 31
0.0
  0
LINE
  5
24D
330
1F
100
AcDbEntity
  8
0
  6
Continuous
 62
     7
370
    25
100
AcDbLine
 10
0.25
 20
-7.0424199994
 30
0.0
 11
0.25
 21
-6.7371075597
 31
0.0
  0
LINE
  5
24E
330
1F
100
AcDbEntity
  8
0
  6
Continuous
 62
     7
370
    25
100
AcDbLine
 10
0.2487845307
 20
-6.6899133858
 30
0.0
 11
0.2487845307
 21
-6.691761375
 31
0.0
  0
LINE
  5
24F
330
1F
100
AcDbEntity
  8
0
  6
Continuous
 62
     7
370
    25
100
AcDbLine
 10
0.2465227608
 20
-6.6899133858
 30
0.0
 11
0.2487845307
 21
-6.6899133858
 31
0.0
  0
LINE
  5
250
330
1F
100
AcDbEntity
  8
0
  6
Continuous
 62
     7
370
    25
100
AcDbLine
 10
0.0012159085
 20
-6.6899133858
 30
0.0
 11
0.2092830654
 21
-6.6899133858
 31
0.0
  0
LINE
  5
251
330
1F
100
AcDbEntity
  8
0
  6
Continuous
 62
     7
370
    25
100
AcDbLine
 10
0.0012159085
 20
-6.6929133858
 30
0.0
 11
0.0012159085
 21
-6.6899133858
 31
0.0
  0
LINE
  5
252
330
1F
100
AcDbEntity
  8
0
  6
Continuous
 62
     7
370
    25
100
AcDbLine
 10
0.0012159085
 20
-6.6929133858
 30
0.0
 11
0.0
 21
-6.6929133858
 31
0.0
  0
LINE
  5
253
330
1F
100
AcDbEntity
  8
0
  6
Continuous
 62
     7
370
    25
100
AcDbLine
 10
0.0
 20
-6.6929133858
 30
0.0
 11
0.0
 21
-6.2992125984
 31
0.0
  0
LINE
  5
254
330
1F
100
AcDbEntity
  8
0
  6
Continuous
 62
     7
370
    25
100
AcDbLine
 10
0.0
 20
-6.2992125984
 30
0.0
 11
0.0012159085
 21
-6.2992125984
 31
0.0
  0
LINE
  5
255
330
1F
100
AcDbEntity
  8
0
  6
Continuous
 62
     7
370
    25
100
AcDbLine
 10
0.0012159085
 20
-6.3022125984
 30
0.0
 11
0.0012159085
 21
-6.2992125984
 31
0.0
  0
LINE
  5
256
330
1F
100
AcDbEntity
  8
0
  6
Continuous
 62
     7
370
    25
100
AcDbLine
 10
0.2092830654
 20
-6.3022125984
 30
0.0
 11
0.0012159085
 21
-6.3022125984
 31
0.0
  0
LINE
  5
257
330
1F
100
AcDbEntity
  8
0
  6
Continuous
 62
     7
370
    25
100
AcDbLine
 10
0.2487845307
 20
-6.3022125984
 30
0.0
 11
0.2465227608
 21
-6.3022125984
 31
0.0
  0
LINE
  5
258
330
1F
100
AcDbEntity
  8
0
  6
Continuous
 62
     7
370
    25
100
AcDbLine
 10
0.2487845307
 20
-6.3003646092
 30
0.0
 11
0.2487845307
 21
-6.3022125984
 31
0.0
  0
LINE
  5
259
330
1F
100
AcDbEntity
  8
0
  6
Continuous
 62
     7
370
    25
100
AcDbLine
 10
0.25
 20
-6.2550184246
 30
0.0
 11
0.25
 21
-5.9497059848
 31
0.0
  0
LINE
  5
25A
330
1F
100
AcDbEntity
  8
0
  6
Continuous
 62
     7
370
    25
100
AcDbLine
 10
0.2487845307
 20
-5.902511811
 30
0.0
 11
0.2487845307
 21
-5.9043598002
 31
0.0
  0
LINE
  5
25B
330
1F
100
AcDbEntity
  8
0
  6
Continuous
 62
     7
370
    25
100
AcDbLine
 10
0.2465227608
 20
-5.902511811
 30
0.0
 11
0.2487845307
 21
-5.902511811
 31
0.0
  0
LINE
  5
25C
330
1F
100
AcDbEntity
  8
0
  6
Continuous
 62
     7
370
    25
100
AcDbLine
 10
0.0012159085
 20
-5.902511811
 30
0.0
 11
0.2092830654
 21
-5.902511811
 31
0.0
  0
LINE
  5
25D
330
1F
100
AcDbEntity
  8
0
  6
Continuous
 62
     7
370
    25
100
AcDbLine
 10
0.0012159085
 20
-5.905511811
 30
0.0
 11
0.0012159085
 21
-5.902511811
 31
0.0
  0
LINE
  5
25E
330
1F
100
AcDbEntity
  8
0
  6
Continuous
 62
     7
370
    25
100
AcDbLine
 10
0.0012159085
 20
-5.905511811
 30
0.0
 11
0.0
 21
-5.905511811
 31
0.0
  0
LINE
  5
25F
330
1F
100
AcDbEntity
  8
0
  6
Continuous
 62
     7
370
    25
100
AcDbLine
 10
0.0
 20
-5.905511811
 30
0.0
 11
0.0
 21
-5.5118110236
 31
0.0
  0
LINE
  5
260
330
1F
100
AcDbEntity
  8
0
  6
Continuous
 62
     7
370
    25
100
AcDbLine
 10
0.0
 20
-5.5118110236
 30
0.0
 11
0.0012159085
 21
-5.5118110236
 31
0.0
  0
LINE
  5
261
330
1F
100
AcDbEntity
  8
0
  6
Continuous
 62
     7
370
    25
100
AcDbLine
 10
0.0012159085
 20
-5.5148110236
 30
0.0
 11
0.0012159085
 21
-5.5118110236
 31
0.0
  0
LINE
  5
262
330
1F
100
AcDbEntity
  8
0
  6
Continuous
 62
     7
370
    25
100
AcDbLine
 10
0.2092830654
 20
-5.5148110236
 30
0.0
 11
0.0012159085
 21
-5.5148110236
 31
0.0
  0
LINE
  5
263
330
1F
100
AcDbEntity
  8
0
  6
Continuous
 62
     7
370
    25
100
AcDbLine
 10
0.2487845307
 20
-5.5148110236
 30
0.0
 11
0.2465227608
 21
-5.5148110236
 31
0.0
  0
LINE
  5
264
330
1F
100
AcDbEntity
  8
0
  6
Continuous
 62
     7
370
    25
100
AcDbLine
 10
0.2487845307
 20
-5.5129630344
 30
0.0
 11
0.2487845307
 21
-5.5148110236
 31
0.0
  0
LINE
  5
265
330
1F
100
AcDbEntity
  8
0
  6
Continuous
 62
     7
370
    25
100
AcDbLine
 10
0.25
 20
-5.4676168498
 30
0.0
 11
0.25
 21
-5.16230441
 31
0.0
  0
LINE
  5
266
330
1F
100
AcDbEntity
  8
0
  6
Continuous
 62
     7
370
    25
100
AcDbLine
 10
0.2487845307
 20
-5.1151102362
 30
0.0
 11
0.2487845307
 21
-5.1169582254
 31
0.0
  0
LINE
  5
267
330
1F
100
AcDbEntity
  8
0
  6
Continuous
 62
     7
370
    25
100
AcDbLine
 10
0.2465227608
 20
-5.1151102362
 30
0.0
 11
0.2487845307
 21
-5.1151102362
 31
0.0
  0
LINE
  5
268
330
1F
100
AcDbEntity
  8
0
  6
Continuous
 62
     7
370
    25
100
AcDbLine
 10
0.0012159085
 20
-5.1151102362
 30
0.0
 11
0.2092830654
 21
-5.1151102362
 31
0.0
  0
LINE
  5
269
330
1F
100
AcDbEntity
  8
0
  6
Continuous
 62
     7
370
    25
100
AcDbLine
 10
0.0012159085
 20
-5.1181102362
 30
0.0
 11
0.0012159085
 21
-5.1151102362
 31
0.0
  0
LINE
  5
26A
330
1F
100
AcDbEntity
  8
0
  6
Continuous
 62
     7
370
    25
100
AcDbLine
 10
0.0012159085
 20
-5.1181102362
 30
0.0
 11
0.0
 21
-5.1181102362
 31
0.0
  0
LINE
  5
26B
330
1F
100
AcDbEntity
  8
0
  6
Continuous
 62
     7
370
    25
100
AcDbLine
 10
0.0
 20
-5.1181102362
 30
0.0
 11
0.0
 21
-4.7244094488
 31
0.0
  0
LINE
  5
26C
330
1F
100
AcDbEntity
  8
0
  6
Continuous
 62
     7
370
    25
100
AcDbLine
 10
0.0
 20
-4.7244094488
 30
0.0
 11
0.0012159085
 21
-4.7244094488
 31
0.0
  0
LINE
  5
26D
330
1F
100
AcDbEntity
  8
0
  6
Continuous
 62
     7
370
    25
100
AcDbLine
 10
0.0012159085
 20
-4.7274094488
 30
0.0
 11
0.0012159085
 21
-4.7244094488
 31
0.0
  0
LINE
  5
26E
330
1F
100
AcDbEntity
  8
0
  6
Continuous
 62
     7
370
    25
100
AcDbLine
 10
0.2092830654
 20
-4.7274094488
 30
0.0
 11
0.0012159085
 21
-4.7274094488
 31
0.0
  0
LINE
  5
26F
330
1F
100
AcDbEntity
  8
0
  6
Continuous
 62
     7
370
    25
100
AcDbLine
 10
0.2487845307
 20
-4.7274094488
 30
0.0
 11
0.2465227608
 21
-4.7274094488
 31
0.0
  0
LINE
  5
270
330
1F
100
AcDbEntity
  8
0
  6
Continuous
 62
     7
370
    25
100
AcDbLine
 10
0.2487845307
 20
-4.7255614596
 30
0.0
 11
0.2487845307
 21
-4.7274094488
 31
0.0
  0
LINE
  5
271
330
1F
100
AcDbEntity
  8
0
  6
Continuous
 62
     7
370
    25
100
AcDbLine
 10
0.25
 20
-4.680215275
 30
0.0
 11
0.25
 21
-4.3749028352
 31
0.0
  0
LINE
  5
272
330
1F
100
AcDbEntity
  8
0
  6
Continuous
 62
     7
370
    25
100
AcDbLine
 10
0.2487845307
 20
-4.3277086614
 30
0.0
 11
0.2487845307
 21
-4.3295566506
 31
0.0
  0
LINE
  5
273
330
1F
100
AcDbEntity
  8
0
  6
Continuous
 62
     7
370
    25
100
AcDbLine
 10
0.2465227608
 20
-4.3277086614
 30
0.0
 11
0.2487845307
 21
-4.3277086614
 31
0.0
  0
LINE
  5
274
330
1F
100
AcDbEntity
  8
0
  6
Continuous
 62
     7
370
    25
100
AcDbLine
 10
0.0012159085
 20
-4.3277086614
 30
0.0
 11
0.2092830654
 21
-4.3277086614
 31
0.0
  0
LINE
  5
275
330
1F
100
AcDbEntity
  8
0
  6
Continuous
 62
     7
370
    25
100
AcDbLine
 10
0.0012159085
 20
-4.3307086614
 30
0.0
 11
0.0012159085
 21
-4.3277086614
 31
0.0
  0
LINE
  5
276
330
1F
100
AcDbEntity
  8
0
  6
Continuous
 62
     7
370
    25
100
AcDbLine
 10
0.0012159085
 20
-4.3307086614
 30
0.0
 11
0.0
 21
-4.3307086614
 31
0.0
  0
LINE
  5
277
330
1F
100
AcDbEntity
  8
0
  6
Continuous
 62
     7
370
    25
100
AcDbLine
 10
0.0
 20
-4.3307086614
 30
0.0
 11
0.0
 21
-3.937007874
 31
0.0
  0
LINE
  5
278
330
1F
100
AcDbEntity
  8
0
  6
Continuous
 62
     7
370
    25
100
AcDbLine
 10
0.0
 20
-3.937007874
 30
0.0
 11
0.0012159085
 21
-3.937007874
 31
0.0
  0
LINE
  5
279
330
1F
100
AcDbEntity
  8
0
  6
Continuous
 62
     7
370
    25
100
AcDbLine
 10
0.0012159085
 20
-3.940007874
 30
0.0
 11
0.0012159085
 21
-3.937007874
 31
0.0
  0
LINE
  5
27A
330
1F
100
AcDbEntity
  8
0
  6
Continuous
 62
     7
370
    25
100
AcDbLine
 10
0.2092830654
 20
-3.940007874
 30
0.0
 11
0.0012159085
 21
-3.940007874
 31
0.0
  0
LINE
  5
27B
330
1F
100
AcDbEntity
  8
0
  6
Continuous
 62
     7
370
    25
100
AcDbLine
 10
0.2487845307
 20
-3.940007874
 30
0.0
 11
0.2465227608
 21
-3.940007874
 31
0.0
  0
LINE
  5
27C
330
1F
100
AcDbEntity
  8
0
  6
Continuous
 62
     7
370
    25
100
AcDbLine
 10
0.2487845307
 20
-3.9381598848
 30
0.0
 11
0.2487845307
 21
-3.940007874
 31
0.0
  0
LINE
  5
27D
330
1F
100
AcDbEntity
  8
0
  6
Continuous
 62
     7
370
    25
100
AcDbLine
 10
0.25
 20
-3.8928137002
 30
0.0
 11
0.25
 21
-3.5875012604
 31
0.0
  0
LINE
  5
27E
330
1F
100
AcDbEntity
  8
0
  6
Continuous
 62
     7
370
    25
100
AcDbLine
 10
0.2487845307
 20
-3.5403070866
 30
0.0
 11
0.2487845307
 21
-3.5421550758
 31
0.0
  0
LINE
  5
27F
330
1F
100
AcDbEntity
  8
0
  6
Continuous
 62
     7
370
    25
100
AcDbLine
 10
0.2465227608
 20
-3.5403070866
 30
0.0
 11
0.2487845307
 21
-3.5403070866
 31
0.0
  0
LINE
  5
280
330
1F
100
AcDbEntity
  8
0
  6
Continuous
 62
     7
370
    25
100
AcDbLine
 10
0.0012159085
 20
-3.5403070866
 30
0.0
 11
0.2092830654
 21
-3.5403070866
 31
0.0
  0
LINE
  5
281
330
1F
100
AcDbEntity
  8
0
  6
Continuous
 62
     7
370
    25
100
AcDbLine
 10
0.0012159085
 20
-3.5433070866
 30
0.0
 11
0.0012159085
 21
-3.5403070866
 31
0.0
  0
LINE
  5
282
330
1F
100
AcDbEntity
  8
0
  6
Continuous
 62
     7
370
    25
100
AcDbLine
 10
0.0012159085
 20
-3.5433070866
 30
0.0
 11
0.0
 21
-3.5433070866
 31
0.0
  0
LINE
  5
283
330
1F
100
AcDbEntity
  8
0
  6
Continuous
 62
     7
370
    25
100
AcDbLine
 10
0.0
 20
-3.5433070866
 30
0.0
 11
0.0
 21
-3.1496062992
 31
0.0
  0
LINE
  5
284
330
1F
100
AcDbEntity
  8
0
  6
Continuous
 62
     7
370
    25
100
AcDbLine
 10
0.0
 20
-3.1496062992
 30
0.0
 11
0.0012159085
 21
-3.1496062992
 31
0.0
  0
LINE
  5
285
330
1F
100
AcDbEntity
  8
0
  6
Continuous
 62
     7
370
    25
100
AcDbLine
 10
0.0012159085
 20
-3.1526062992
 30
0.0
 11
0.0012159085
 21
-3.1496062992
 31
0.0
  0
LINE
  5
286
330
1F
100
AcDbEntity
  8
0
  6
Continuous
 62
     7
370
    25
100
AcDbLine
 10
0.2092830654
 20
-3.1526062992
 30
0.0
 11
0.0012159085
 21
-3.1526062992
 31
0.0
  0
LINE
  5
287
330
1F
100
AcDbEntity
  8
0
  6
Continuous
 62
     7
370
    25
100
AcDbLine
 10
0.2487845307
 20
-3.1526062992
 30
0.0
 11
0.2465227608
 21
-3.1526062992
 31
0.0
  0
LINE
  5
288
330
1F
100
AcDbEntity
  8
0
  6
Continuous
 62
     7
370
    25
100
AcDbLine
 10
0.2487845307
 20
-3.15075831
 30
0.0
 11
0.2487845307
 21
-3.1526062992
 31
0.0
  0
LINE
  5
289
330
1F
100
AcDbEntity
  8
0
  6
Continuous
 62
     7
370
    25
100
AcDbLine
 10
0.25
 20
-3.1054121254
 30
0.0
 11
0.25
 21
-2.8000996856
 31
0.0
  0
LINE
  5
28A
330
1F
100
AcDbEntity
  8
0
  6
Continuous
 62
     7
370
    25
100
AcDbLine
 10
0.2487845307
 20
-2.7529055118
 30
0.0
 11
0.2487845307
 21
-2.754753501
 31
0.0
  0
LINE
  5
28B
330
1F
100
AcDbEntity
  8
0
  6
Continuous
 62
     7
370
    25
100
AcDbLine
 10
0.2465227608
 20
-2.7529055118
 30
0.0
 11
0.2487845307
 21
-2.7529055118
 31
0.0
  0
LINE
  5
28C
330
1F
100
AcDbEntity
  8
0
  6
Continuous
 62
     7
370
    25
100
AcDbLine
 10
0.0012159085
 20
-2.7529055118
 30
0.0
 11
0.2092830654
 21
-2.7529055118
 31
0.0
  0
LINE
  5
28D
330
1F
100
AcDbEntity
  8
0
  6
Continuous
 62
     7
370
    25
100
AcDbLine
 10
0.0012159085
 20
-2.7559055118
 30
0.0
 11
0.0012159085
 21
-2.7529055118
 31
0.0
  0
LINE
  5
28E
330
1F
100
AcDbEntity
  8
0
  6
Continuous
 62
     7
370
    25
100
AcDbLine
 10
0.0012159085
 20
-2.7559055118
 30
0.0
 11
0.0
 21
-2.7559055118
 31
0.0
  0
LINE
  5
28F
330
1F
100
AcDbEntity
  8
0
  6
Continuous
 62
     7
370
    25
100
AcDbLine
 10
0.0
 20
-2.7559055118
 30
0.0
 11
0.0
 21
-2.3622047244
 31
0.0
  0
LINE
  5
290
330
1F
100
AcDbEntity
  8
0
  6
Continuous
 62
     7
370
    25
100
AcDbLine
 10
0.0
 20
-2.3622047244
 30
0.0
 11
0.0012159085
 21
-2.3622047244
 31
0.0
  0
LINE
  5
291
330
1F
100
AcDbEntity
  8
0
  6
Continuous
 62
     7
370
    25
100
AcDbLine
 10
0.0012159085
 20
-2.3652047244
 30
0.0
 11
0.0012159085
 21
-2.3622047244
 31
0.0
  0
LINE
  5
292
330
1F
100
AcDbEntity
  8
0
  6
Continuous
 62
     7
370
    25
100
AcDbLine
 10
0.2092830654
 20
-2.3652047244
 30
0.0
 11
0.0012159085
 21
-2.3652047244
 31
0.0
  0
LINE
  5
293
330
1F
100
AcDbEntity
  8
0
  6
Continuous
 62
     7
370
    25
100
AcDbLine
 10
0.2487845307
 20
-2.3652047244
 30
0.0
 11
0.2465227608
 21
-2.3652047244
 31
0.0
  0
LINE
  5
294
330
1F
100
AcDbEntity
  8
0
  6
Continuous
 62
     7
370
    25
100
AcDbLine
 10
0.2487845307
 20
-2.3633567352
 30
0.0
 11
0.2487845307
 21
-2.3652047244
 31
0.0
  0
LINE
  5
295
330
1F
100
AcDbEntity
  8
0
  6
Continuous
 62
     7
370
    25
100
AcDbLine
 10
0.25
 20
-2.3180105506
 30
0.0
 11
0.25
 21
-2.0126981108
 31
0.0
  0
LINE
  5
296
330
1F
100
AcDbEntity
  8
0
  6
Continuous
 62
     7
370
    25
100
AcDbLine
 10
0.2487845307
 20
-1.965503937
 30
0.0
 11
0.2487845307
 21
-1.9673519262
 31
0.0
  0
LINE
  5
297
330
1F
100
AcDbEntity
  8
0
  6
Continuous
 62
     7
370
    25
100
AcDbLine
 10
0.2465227608
 20
-1.965503937
 30
0.0
 11
0.2487845307
 21
-1.965503937
 31
0.0
  0
LINE
  5
298
330
1F
100
AcDbEntity
  8
0
  6
Continuous
 62
     7
370
    25
100
AcDbLine
 10
0.0012159085
 20
-1.965503937
 30
0.0
 11
0.2092830654
 21
-1.965503937
 31
0.0
  0
LINE
  5
299
330
1F
100
AcDbEntity
  8
0
  6
Continuous
 62
     7
370
    25
100
AcDbLine
 10
0.0012159085
 20
-1.968503937
 30
0.0
 11
0.0012159085
 21
-1.965503937
 31
0.0
  0
LINE
  5
29A
330
1F
100
AcDbEntity
  8
0
  6
Continuous
 62
     7
370
    25
100
AcDbLine
 10
0.0012159085
 20
-1.968503937
 30
0.0
 11
0.0
 21
-1.968503937
 31
0.0
  0
LINE
  5
29B
330
1F
100
AcDbEntity
  8
0
  6
Continuous
 62
     7
370
    25
100
AcDbLine
 10
0.0
 20
-1.968503937
 30
0.0
 11
0.0
 21
-1.5748031496
 31
0.0
  0
LINE
  5
29C
330
1F
100
AcDbEntity
  8
0
  6
Continuous
 62
     7
370
    25
100
AcDbLine
 10
0.0
 20
-1.5748031496
 30
0.0
 11
0.0012159085
 21
-1.5748031496
 31
0.0
  0
LINE
  5
29D
330
1F
100
AcDbEntity
  8
0
  6
Continuous
 62
     7
370
    25
100
AcDbLine
 10
0.0012159085
 20
-1.5778031496
 30
0.0
 11
0.0012159085
 21
-1.5748031496
 31
0.0
  0
LINE
  5
29E
330
1F
100
AcDbEntity
  8
0
  6
Continuous
 62
     7
370
    25
100
AcDbLine
 10
0.2092830654
 20
-1.5778031496
 30
0.0
 11
0.0012159085
 21
-1.5778031496
 31
0.0
  0
LINE
  5
29F
330
1F
100
AcDbEntity
  8
0
  6
Continuous
 62
     7
370
    25
100
AcDbLine
 10
0.2487845307
 20
-1.5778031496
 30
0.0
 11
0.2465227608
 21
-1.5778031496
 31
0.0
  0
LINE
  5
2A0
330
1F
100
AcDbEntity
  8
0
  6
Continuous
 62
     7
370
    25
100
AcDbLine
 10
0.2487845307
 20
-1.5759551604
 30
0.0
 11
0.2487845307
 21
-1.5778031496
 31
0.0
  0
LINE
  5
2A1
330
1F
100
AcDbEntity
  8
0
  6
Continuous
 62
     7
370
    25
100
AcDbLine
 10
0.25
 20
-1.5306089758
 30
0.0
 11
0.25
 21
-1.225296536
 31
0.0
  0
LINE
  5
2A2
330
1F
100
AcDbEntity
  8
0
  6
Continuous
 62
     7
370
    25
100
AcDbLine
 10
0.2487845307
 20
-1.1781023622
 30
0.0
 11
0.2487845307
 21
-1.1799503514
 31
0.0
  0
LINE
  5
2A3
330
1F
100
AcDbEntity
  8
0
  6
Continuous
 62
     7
370
    25
100
AcDbLine
 10
0.2465227608
 20
-1.1781023622
 30
0.0
 11
0.2487845307
 21
-1.1781023622
 31
0.0
  0
LINE
  5
2A4
330
1F
100
AcDbEntity
  8
0
  6
Continuous
 62
     7
370
    25
100
AcDbLine
 10
0.0012159085
 20
-1.1781023622
 30
0.0
 11
0.2092830654
 21
-1.1781023622
 31
0.0
  0
LINE
  5
2A5
330
1F
100
AcDbEntity
  8
0
  6
Continuous
 62
     7
370
    25
100
AcDbLine
 10
0.0012159085
 20
-1.1811023622
 30
0.0
 11
0.0012159085
 21
-1.1781023622
 31
0.0
  0
LINE
  5
2A6
330
1F
100
AcDbEntity
  8
0
  6
Continuous
 62
     7
370
    25
100
AcDbLine
 10
0.0012159085
 20
-1.1811023622
 30
0.0
 11
0.0
 21
-1.1811023622
 31
0.0
  0
LINE
  5
2A7
330
1F
100
AcDbEntity
  8
0
  6
Continuous
 62
     7
370
    25
100
AcDbLine
 10
0.0
 20
-1.1811023622
 30
0.0
 11
0.0
 21
-0.7874015748
 31
0.0
  0
LINE
  5
2A8
330
1F
100
AcDbEntity
  8
0
  6
Continuous
 62
     7
370
    25
100
AcDbLine
 10
0.0
 20
-0.7874015748
 30
0.0
 11
0.0012159085
 21
-0.7874015748
 31
0.0
  0
LINE
  5
2A9
330
1F
100
AcDbEntity
  8
0
  6
Continuous
 62
     7
370
    25
100
AcDbLine
 10
0.0012159085
 20
-0.7904015748
 30
0.0
 11
0.0012159085
 21
-0.7874015748
 31
0.0
  0
LINE
  5
2AA
330
1F
100
AcDbEntity
  8
0
  6
Continuous
 62
     7
370
    25
100
AcDbLine
 10
0.2092830654
 20
-0.7904015748
 30
0.0
 11
0.0012159085
 21
-0.7904015748
 31
0.0
  0
LINE
  5
2AB
330
1F
100
AcDbEntity
  8
0
  6
Continuous
 62
     7
370
    25
100
AcDbLine
 10
0.2487845307
 20
-0.7904015748
 30
0.0
 11
0.2465227608
 21
-0.7904015748
 31
0.0
  0
LINE
  5
2AC
330
1F
100
AcDbEntity
  8
0
  6
Continuous
 62
     7
370
    25
100
AcDbLine
 10
0.2487845307
 20
-0.7885535856
 30
0.0
 11
0.2487845307
 21
-0.7904015748
 31
0.0
  0
LINE
  5
2AD
330
1F
100
AcDbEntity
  8
0
  6
Continuous
 62
     7
370
    25
100
AcDbLine
 10
0.25
 20
-0.743207401
 30
0.0
 11
0.25
 21
-0.4378949612
 31
0.0
  0
LINE
  5
2AE
330
1F
100
AcDbEntity
  8
0
  6
Continuous
 62
     7
370
    25
100
AcDbLine
 10
0.2487845307
 20
-0.3907007874
 30
0.0
 11
0.2487845307
 21
-0.3925487766
 31
0.0
  0
LINE
  5
2AF
330
1F
100
AcDbEntity
  8
0
  6
Continuous
 62
     7
370
    25
100
AcDbLine
 10
0.2465227608
 20
-0.3907007874
 30
0.0
 11
0.2487845307
 21
-0.3907007874
 31
0.0
  0
LINE
  5
2B0
330
1F
100
AcDbEntity
  8
0
  6
Continuous
 62
     7
370
    25
100
AcDbLine
 10
0.0012159085
 20
-0.3907007874
 30
0.0
 11
0.2092830654
 21
-0.3907007874
 31
0.0
  0
LINE
  5
2B1
330
1F
100
AcDbEntity
  8
0
  6
Continuous
 62
     7
370
    25
100
AcDbLine
 10
0.0012159085
 20
-0.3937007874
 30
0.0
 11
0.0012159085
 21
-0.3907007874
 31
0.0
  0
LINE
  5
2B2
330
1F
100
AcDbEntity
  8
0
  6
Continuous
 62
     7
370
    25
100
AcDbLine
 10
0.0012159085
 20
-0.3937007874
 30
0.0
 11
0.0
 21
-0.3937007874
 31
0.0
  0
LINE
  5
2B3
330
1F
100
AcDbEntity
  8
0
  6
Continuous
 62
     7
370
    25
100
AcDbLine
 10
0.0
 20
-0.3937007874
 30
0.0
 11
0.0
 21
0.0
 31
0.0
  0
LINE
  5
2B4
330
1F
100
AcDbEntity
  8
0
  6
Continuous
 62
     7
370
    25
100
AcDbLine
 10
0.0
 20
0.0
 30
0.0
 11
0.743207401
 21
0.0
 31
0.0
  0
LINE
  5
2B5
330
1F
100
AcDbEntity
  8
0
  6
Continuous
 62
     7
370
    25
100
AcDbLine
 10
0.7874015748
 20
0.0441941738
 30
0.0
 11
0.7874015748
 21
0.1875
 31
0.0
  0
LINE
  5
2B6
330
1F
100
AcDbEntity
  8
0
  6
Continuous
 62
     7
370
    25
100
AcDbLine
 10
0.8499015748
 20
0.25
 30
0.0
 11
0.7874015748
 21
0.1875
 31
0.0
  0
LINE
  5
2B7
330
1F
100
AcDbEntity
  8
0
  6
Continuous
 62
     7
370
    25
100
AcDbLine
 10
0.8499015748
 20
0.25
 30
0.0
 11
1.1186023622
 21
0.25
 31
0.0
  0
LINE
  5
2B8
330
1F
100
AcDbEntity
  8
0
  6
Continuous
 62
     7
370
    25
100
AcDbLine
 10
1.1811023622
 20
0.1875
 30
0.0
 11
1.1186023622
 21
0.25
 31
0.0
  0
LINE
  5
2B9
330
1F
100
AcDbEntity
  8
0
  6
Continuous
 62
     7
370
    25
100
AcDbLine
 10
1.1811023622
 20
0.1875
 30
0.0
 11
1.1811023622
 21
0.0441941738
 31
0.0
  0
LINE
  5
2BA
330
1F
100
AcDbEntity
  8
0
  6
Continuous
 62
     7
370
    25
100
AcDbLine
 10
1.225296536
 20
0.0
 30
0.0
 11
1.718503937
 21
0.0
 31
0.0
  0
LINE
  5
2BB
330
1F
100
AcDbEntity
  8
0
  6
Continuous
 62
     7
370
    25
100
AcDbLine
 10
1.718503937
 20
0.0
 30
0.0
 11
1.718503937
 21
-0.3495066136
 31
0.0
  0
LINE
  5
2BC
330
1F
100
AcDbEntity
  8
0
  6
Continuous
 62
     7
370
    25
100
AcDbLine
 10
1.7626981108
 20
-0.3937007874
 30
0.0
 11
1.968503937
 21
-0.3937007874
 31
0.0
  0
LINE
  5
2BD
330
1F
100
AcDbEntity
  8
0
  6
Continuous
 62
     7
370
    25
100
AcDbLine
 10
1.968503937
 20
-0.3937007874
 30
0.0
 11
1.968503937
 21
-0.7874015748
 31
0.0
  0
LINE
  5
2BE
330
1F
100
AcDbEntity
  8
0
  6
Continuous
 62
     7
370
    25
100
AcDbLine
 10
1.968503937
 20
-0.7874015748
 30
0.0
 11
1.9675371215
 21
-0.7874015748
 31
0.0
  0
LINE
  5
2BF
330
1F
100
AcDbEntity
  8
0
  6
Continuous
 62
     7
370
    25
100
AcDbLine
 10
1.9675371215
 20
-0.7844015748
 30
0.0
 11
1.9675371215
 21
-0.7874015748
 31
0.0
  0
LINE
  5
2C0
330
1F
100
AcDbEntity
  8
0
  6
Continuous
 62
     7
370
    25
100
AcDbLine
 10
1.7592208716
 20
-0.7844015748
 30
0.0
 11
1.9675371215
 21
-0.7844015748
 31
0.0
  0
LINE
  5
2C1
330
1F
100
AcDbEntity
  8
0
  6
Continuous
 62
     7
370
    25
100
AcDbLine
 10
1.7194704002
 20
-0.7844015748
 30
0.0
 11
1.7219811762
 21
-0.7844015748
 31
0.0
  0
LINE
  5
2C2
330
1F
100
AcDbEntity
  8
0
  6
Continuous
 62
     7
370
    25
100
AcDbLine
 10
1.7194704002
 20
-0.7864756463
 30
0.0
 11
1.7194704002
 21
-0.7844015748
 31
0.0
  0
LINE
  5
2C3
330
1F
100
AcDbEntity
  8
0
  6
Continuous
 62
     7
370
    25
100
AcDbLine
 10
1.718503937
 20
-0.8315957486
 30
0.0
 11
1.718503937
 21
-1.1369081884
 31
0.0
  0
LINE
  5
2C4
330
1F
100
AcDbEntity
  8
0
  6
Continuous
 62
     7
370
    25
100
AcDbLine
 10
1.7194704002
 20
-1.1841023622
 30
0.0
 11
1.7194704002
 21
-1.1820282907
 31
0.0
  0
LINE
  5
2C5
330
1F
100
AcDbEntity
  8
0
  6
Continuous
 62
     7
370
    25
100
AcDbLine
 10
1.7219811762
 20
-1.1841023622
 30
0.0
 11
1.7194704002
 21
-1.1841023622
 31
0.0
  0
LINE
  5
2C6
330
1F
100
AcDbEntity
  8
0
  6
Continuous
 62
     7
370
    25
100
AcDbLine
 10
1.9675371215
 20
-1.1841023622
 30
0.0
 11
1.7592208716
 21
-1.1841023622
 31
0.0
  0
LINE
  5
2C7
330
1F
100
AcDbEntity
  8
0
  6
Continuous
 62
     7
370
    25
100
AcDbLine
 10
1.9675371215
 20
-1.1811023622
 30
0.0
 11
1.9675371215
 21
-1.1841023622
 31
0.0
  0
LINE
  5
2C8
330
1F
100
AcDbEntity
  8
0
  6
Continuous
 62
     7
370
    25
100
AcDbLine
 10
1.9675371215
 20
-1.1811023622
 30
0.0
 11
1.968503937
 21
-1.1811023622
 31
0.0
  0
LINE
  5
2C9
330
1F
100
AcDbEntity
  8
0
  6
Continuous
 62
     7
370
    25
100
AcDbLine
 10
1.968503937
 20
-1.1811023622
 30
0.0
 11
1.968503937
 21
-1.5748031496
 31
0.0
  0
LINE
  5
2CA
330
1F
100
AcDbEntity
  8
0
  6
Continuous
 62
     7
370
    25
100
AcDbLine
 10
1.968503937
 20
-1.5748031496
 30
0.0
 11
1.9675371215
 21
-1.5748031496
 31
0.0
  0
LINE
  5
2CB
330
1F
100
AcDbEntity
  8
0
  6
Continuous
 62
     7
370
    25
100
AcDbLine
 10
1.9675371215
 20
-1.5718031496
 30
0.0
 11
1.9675371215
 21
-1.5748031496
 31
0.0
  0
LINE
  5
2CC
330
1F
100
AcDbEntity
  8
0
  6
Continuous
 62
     7
370
    25
100
AcDbLine
 10
1.7592208716
 20
-1.5718031496
 30
0.0
 11
1.9675371215
 21
-1.5718031496
 31
0.0
  0
LINE
  5
2CD
330
1F
100
AcDbEntity
  8
0
  6
Continuous
 62
     7
370
    25
100
AcDbLine
 10
1.7194704002
 20
-1.5718031496
 30
0.0
 11
1.7219811762
 21
-1.5718031496
 31
0.0
  0
LINE
  5
2CE
330
1F
100
AcDbEntity
  8
0
  6
Continuous
 62
     7
370
    25
100
AcDbLine
 10
1.7194704002
 20
-1.5738772211
 30
0.0
 11
1.7194704002
 21
-1.5718031496
 31
0.0
  0
LINE
  5
2CF
330
1F
100
AcDbEntity
  8
0
  6
Continuous
 62
     7
370
    25
100
AcDbLine
 10
1.718503937
 20
-1.6189973234
 30
0.0
 11
1.718503937
 21
-1.9243097632
 31
0.0
  0
LINE
  5
2D0
330
1F
100
AcDbEntity
  8
0
  6
Continuous
 62
     7
370
    25
100
AcDbLine
 10
1.7194704002
 20
-1.971503937
 30
0.0
 11
1.7194704002
 21
-1.9694298655
 31
0.0
  0
LINE
  5
2D1
330
1F
100
AcDbEntity
  8
0
  6
Continuous
 62
     7
370
    25
100
AcDbLine
 10
1.7219811762
 20
-1.971503937
 30
0.0
 11
1.7194704002
 21
-1.971503937
 31
0.0
  0
LINE
  5
2D2
330
1F
100
AcDbEntity
  8
0
  6
Continuous
 62
     7
370
    25
100
AcDbLine
 10
1.9675371215
 20
-1.971503937
 30
0.0
 11
1.7592208716
 21
-1.971503937
 31
0.0
  0
LINE
  5
2D3
330
1F
100
AcDbEntity
  8
0
  6
Continuous
 62
     7
370
    25
100
AcDbLine
 10
1.9675371215
 20
-1.968503937
 30
0.0
 11
1.9675371215
 21
-1.971503937
 31
0.0
  0
LINE
  5
2D4
330
1F
100
AcDbEntity
  8
0
  6
Continuous
 62
     7
370
    25
100
AcDbLine
 10
1.9675371215
 20
-1.968503937
 30
0.0
 11
1.968503937
 21
-1.968503937
 31
0.0
  0
LINE
  5
2D5
330
1F
100
AcDbEntity
  8
0
  6
Continuous
 62
     7
370
    25
100
AcDbLine
 10
1.968503937
 20
-1.968503937
 30
0.0
 11
1.968503937
 21
-2.3622047244
 31
0.0
  0
LINE
  5
2D6
330
1F
100
AcDbEntity
  8
0
  6
Continuous
 62
     7
370
    25
100
AcDbLine
 10
1.968503937
 20
-2.3622047244
 30
0.0
 11
1.9675371215
 21
-2.3622047244
 31
0.0
  0
LINE
  5
2D7
330
1F
100
AcDbEntity
  8
0
  6
Continuous
 62
     7
370
    25
100
AcDbLine
 10
1.9675371215
 20
-2.3592047244
 30
0.0
 11
1.9675371215
 21
-2.3622047244
 31
0.0
  0
LINE
  5
2D8
330
1F
100
AcDbEntity
  8
0
  6
Continuous
 62
     7
370
    25
100
AcDbLine
 10
1.7592208716
 20
-2.3592047244
 30
0.0
 11
1.9675371215
 21
-2.3592047244
 31
0.0
  0
LINE
  5
2D9
330
1F
100
AcDbEntity
  8
0
  6
Continuous
 62
     7
370
    25
100
AcDbLine
 10
1.7194704002
 20
-2.3592047244
 30
0.0
 11
1.7219811762
 21
-2.3592047244
 31
0.0
  0
LINE
  5
2DA
330
1F
100
AcDbEntity
  8
0
  6
Continuous
 62
     7
370
    25
100
AcDbLine
 10
1.7194704002
 20
-2.3612787959
 30
0.0
 11
1.7194704002
 21
-2.3592047244
 31
0.0
  0
LINE
  5
2DB
330
1F
100
AcDbEntity
  8
0
  6
Continuous
 62
     7
370
    25
100
AcDbLine
 10
1.718503937
 20
-2.4063988982
 30
0.0
 11
1.718503937
 21
-2.711711338
 31
0.0
  0
LINE
  5
2DC
330
1F
100
AcDbEntity
  8
0
  6
Continuous
 62
     7
370
    25
100
AcDbLine
 10
1.7194704002
 20
-2.7589055118
 30
0.0
 11
1.7194704002
 21
-2.7568314403
 31
0.0
  0
LINE
  5
2DD
330
1F
100
AcDbEntity
  8
0
  6
Continuous
 62
     7
370
    25
100
AcDbLine
 10
1.7219811762
 20
-2.7589055118
 30
0.0
 11
1.7194704002
 21
-2.7589055118
 31
0.0
  0
LINE
  5
2DE
330
1F
100
AcDbEntity
  8
0
  6
Continuous
 62
     7
370
    25
100
AcDbLine
 10
1.9675371215
 20
-2.7589055118
 30
0.0
 11
1.7592208716
 21
-2.7589055118
 31
0.0
  0
LINE
  5
2DF
330
1F
100
AcDbEntity
  8
0
  6
Continuous
 62
     7
370
    25
100
AcDbLine
 10
1.9675371215
 20
-2.7559055118
 30
0.0
 11
1.9675371215
 21
-2.7589055118
 31
0.0
  0
LINE
  5
2E0
330
1F
100
AcDbEntity
  8
0
  6
Continuous
 62
     7
370
    25
100
AcDbLine
 10
1.9675371215
 20
-2.7559055118
 30
0.0
 11
1.968503937
 21
-2.7559055118
 31
0.0
  0
LINE
  5
2E1
330
1F
100
AcDbEntity
  8
0
  6
Continuous
 62
     7
370
    25
100
AcDbLine
 10
1.968503937
 20
-2.7559055118
 30
0.0
 11
1.968503937
 21
-3.1496062992
 31
0.0
  0
LINE
  5
2E2
330
1F
100
AcDbEntity
  8
0
  6
Continuous
 62
     7
370
    25
100
AcDbLine
 10
1.968503937
 20
-3.1496062992
 30
0.0
 11
1.9675371215
 21
-3.1496062992
 31
0.0
  0
LINE
  5
2E3
330
1F
100
AcDbEntity
  8
0
  6
Continuous
 62
     7
370
    25
100
AcDbLine
 10
1.9675371215
 20
-3.1466062992
 30
0.0
 11
1.9675371215
 21
-3.1496062992
 31
0.0
  0
LINE
  5
2E4
330
1F
100
AcDbEntity
  8
0
  6
Continuous
 62
     7
370
    25
100
AcDbLine
 10
1.7592208716
 20
-3.1466062992
 30
0.0
 11
1.9675371215
 21
-3.1466062992
 31
0.0
  0
LINE
  5
2E5
330
1F
100
AcDbEntity
  8
0
  6
Continuous
 62
     7
370
    25
100
AcDbLine
 10
1.7194704002
 20
-3.1466062992
 30
0.0
 11
1.7219811762
 21
-3.1466062992
 31
0.0
  0
LINE
  5
2E6
330
1F
100
AcDbEntity
  8
0
  6
Continuous
 62
     7
370
    25
100
AcDbLine
 10
1.7194704002
 20
-3.1486803707
 30
0.0
 11
1.7194704002
 21
-3.1466062992
 31
0.0
  0
LINE
  5
2E7
330
1F
100
AcDbEntity
  8
0
  6
Continuous
 62
     7
370
    25
100
AcDbLine
 10
1.718503937
 20
-3.193800473
 30
0.0
 11
1.718503937
 21
-3.4991129128
 31
0.0
  0
LINE
  5
2E8
330
1F
100
AcDbEntity
  8
0
  6
Continuous
 62
     7
370
    25
100
AcDbLine
 10
1.7194704002
 20
-3.5463070866
 30
0.0
 11
1.7194704002
 21
-3.5442330151
 31
0.0
  0
LINE
  5
2E9
330
1F
100
AcDbEntity
  8
0
  6
Continuous
 62
     7
370
    25
100
AcDbLine
 10
1.7219811762
 20
-3.5463070866
 30
0.0
 11
1.7194704002
 21
-3.5463070866
 31
0.0
  0
LINE
  5
2EA
330
1F
100
AcDbEntity
  8
0
  6
Continuous
 62
     7
370
    25
100
AcDbLine
 10
1.9675371215
 20
-3.5463070866
 30
0.0
 11
1.7592208716
 21
-3.5463070866
 31
0.0
  0
LINE
  5
2EB
330
1F
100
AcDbEntity
  8
0
  6
Continuous
 62
     7
370
    25
100
AcDbLine
 10
1.9675371215
 20
-3.5433070866
 30
0.0
 11
1.9675371215
 21
-3.5463070866
 31
0.0
  0
LINE
  5
2EC
330
1F
100
AcDbEntity
  8
0
  6
Continuous
 62
     7
370
    25
100
AcDbLine
 10
1.9675371215
 20
-3.5433070866
 30
0.0
 11
1.968503937
 21
-3.5433070866
 31
0.0
  0
LINE
  5
2ED
330
1F
100
AcDbEntity
  8
0
  6
Continuous
 62
     7
370
    25
100
AcDbLine
 10
1.968503937
 20
-3.5433070866
 30
0.0
 11
1.968503937
 21
-3.937007874
 31
0.0
  0
LINE
  5
2EE
330
1F
100
AcDbEntity
  8
0
  6
Continuous
 62
     7
370
    25
100
AcDbLine
 10
1.968503937
 20
-3.937007874
 30
0.0
 11
1.9675371215
 21
-3.937007874
 31
0.0
  0
LINE
  5
2EF
330
1F
100
AcDbEntity
  8
0
  6
Continuous
 62
     7
370
    25
100
AcDbLine
 10
1.9675371215
 20
-3.934007874
 30
0.0
 11
1.9675371215
 21
-3.937007874
 31
0.0
  0
LINE
  5
2F0
330
1F
100
AcDbEntity
  8
0
  6
Continuous
 62
     7
370
    25
100
AcDbLine
 10
1.7592208716
 20
-3.934007874
 30
0.0
 11
1.9675371215
 21
-3.934007874
 31
0.0
  0
LINE
  5
2F1
330
1F
100
AcDbEntity
  8
0
  6
Continuous
 62
     7
370
    25
100
AcDbLine
 10
1.7194704002
 20
-3.934007874
 30
0.0
 11
1.7219811762
 21
-3.934007874
 31
0.0
  0
LINE
  5
2F2
330
1F
100
AcDbEntity
  8
0
  6
Continuous
 62
     7
370
    25
100
AcDbLine
 10
1.7194704002
 20
-3.9360819455
 30
0.0
 11
1.7194704002
 21
-3.934007874
 31
0.0
  0
LINE
  5
2F3
330
1F
100
AcDbEntity
  8
0
  6
Continuous
 62
     7
370
    25
100
AcDbLine
 10
1.718503937
 20
-3.9812020478
 30
0.0
 11
1.718503937
 21
-4.2865144876
 31
0.0
  0
LINE
  5
2F4
330
1F
100
AcDbEntity
  8
0
  6
Continuous
 62
     7
370
    25
100
AcDbLine
 10
1.7194704002
 20
-4.3337086614
 30
0.0
 11
1.7194704002
 21
-4.33163459
 31
0.0
  0
LINE
  5
2F5
330
1F
100
AcDbEntity
  8
0
  6
Continuous
 62
     7
370
    25
100
AcDbLine
 10
1.7219811762
 20
-4.3337086614
 30
0.0
 11
1.7194704002
 21
-4.3337086614
 31
0.0
  0
LINE
  5
2F6
330
1F
100
AcDbEntity
  8
0
  6
Continuous
 62
     7
370
    25
100
AcDbLine
 10
1.9675371215
 20
-4.3337086614
 30
0.0
 11
1.7592208716
 21
-4.3337086614
 31
0.0
  0
LINE
  5
2F7
330
1F
100
AcDbEntity
  8
0
  6
Continuous
 62
     7
370
    25
100
AcDbLine
 10
1.9675371215
 20
-4.3307086614
 30
0.0
 11
1.9675371215
 21
-4.3337086614
 31
0.0
  0
LINE
  5
2F8
330
1F
100
AcDbEntity
  8
0
  6
Continuous
 62
     7
370
    25
100
AcDbLine
 10
1.9675371215
 20
-4.3307086614
 30
0.0
 11
1.968503937
 21
-4.3307086614
 31
0.0
  0
LINE
  5
2F9
330
1F
100
AcDbEntity
  8
0
  6
Continuous
 62
     7
370
    25
100
AcDbLine
 10
1.968503937
 20
-4.3307086614
 30
0.0
 11
1.968503937
 21
-4.7244094488
 31
0.0
  0
LINE
  5
2FA
330
1F
100
AcDbEntity
  8
0
  6
Continuous
 62
     7
370
    25
100
AcDbLine
 10
1.968503937
 20
-4.7244094488
 30
0.0
 11
1.9675371215
 21
-4.7244094488
 31
0.0
  0
LINE
  5
2FB
330
1F
100
AcDbEntity
  8
0
  6
Continuous
 62
     7
370
    25
100
AcDbLine
 10
1.9675371215
 20
-4.7214094488
 30
0.0
 11
1.9675371215
 21
-4.7244094488
 31
0.0
  0
LINE
  5
2FC
330
1F
100
AcDbEntity
  8
0
  6
Continuous
 62
     7
370
    25
100
AcDbLine
 10
1.7592208716
 20
-4.7214094488
 30
0.0
 11
1.9675371215
 21
-4.7214094488
 31
0.0
  0
LINE
  5
2FD
330
1F
100
AcDbEntity
  8
0
  6
Continuous
 62
     7
370
    25
100
AcDbLine
 10
1.7194704002
 20
-4.7214094488
 30
0.0
 11
1.7219811762
 21
-4.7214094488
 31
0.0
  0
LINE
  5
2FE
330
1F
100
AcDbEntity
  8
0
  6
Continuous
 62
     7
370
    25
100
AcDbLine
 10
1.7194704002
 20
-4.7234835203
 30
0.0
 11
1.7194704002
 21
-4.7214094488
 31
0.0
  0
LINE
  5
2FF
330
1F
100
AcDbEntity
  8
0
  6
Continuous
 62
     7
370
    25
100
AcDbLine
 10
1.718503937
 20
-4.7686036226
 30
0.0
 11
1.718503937
 21
-5.0739160624
 31
0.0
  0
LINE
  5
300
330
1F
100
AcDbEntity
  8
0
  6
Continuous
 62
     7
370
    25
100
AcDbLine
 10
1.7194704002
 20
-5.1211102362
 30
0.0
 11
1.7194704002
 21
-5.1190361648
 31
0.0
  0
LINE
  5
301
330
1F
100
AcDbEntity
  8
0
  6
Continuous
 62
     7
370
    25
100
AcDbLine
 10
1.7219811762
 20
-5.1211102362
 30
0.0
 11
1.7194704002
 21
-5.1211102362
 31
0.0
  0
LINE
  5
302
330
1F
100
AcDbEntity
  8
0
  6
Continuous
 62
     7
370
    25
100
AcDbLine
 10
1.2105728632
 20
-7.6516689339
 30
0.0
 11
1.2472059369
 21
-7.6516689339
 31
0.0
  0
LINE
  5
303
330
1F
100
AcDbEntity
  8
0
  6
Continuous
 62
     7
370
    25
100
AcDbLine
 10
1.2105728632
 20
-7.7894642095
 30
0.0
 11
1.2105728632
 21
-7.6516689339
 31
0.0
  0
LINE
  5
304
330
1F
100
AcDbEntity
  8
0
  6
Continuous
 62
     7
370
    25
100
AcDbLine
 10
1.230543193
 20
-7.7894642095
 30
0.0
 11
1.2105728632
 21
-7.7894642095
 31
0.0
  0
LINE
  5
305
330
1F
100
AcDbEntity
  8
0
  6
Continuous
 62
     7
370
    25
100
AcDbLine
 10
1.230543193
 20
-7.7295532201
 30
0.0
 11
1.230543193
 21
-7.7894642095
 31
0.0
  0
LINE
  5
306
330
1F
100
AcDbEntity
  8
0
  6
Continuous
 62
     7
370
    25
100
AcDbLine
 10
1.2389993795
 20
-7.7295532201
 30
0.0
 11
1.230543193
 21
-7.7295532201
 31
0.0
  0
LINE
  5
307
330
1F
100
AcDbEntity
  8
0
  6
Continuous
 62
     7
370
    25
100
AcDbLine
 10
1.2812803121
 20
-7.7894642095
 30
0.0
 11
1.2614660005
 21
-7.7464343896
 31
0.0
  0
LINE
  5
308
330
1F
100
AcDbEntity
  8
0
  6
Continuous
 62
     7
370
    25
100
AcDbLine
 10
1.3024363802
 20
-7.7894642095
 30
0.0
 11
1.2812803121
 21
-7.7894642095
 31
0.0
  0
LINE
  5
309
330
1F
100
AcDbEntity
  8
0
  6
Continuous
 62
     7
370
    25
100
AcDbLine
 10
1.281373923
 20
-7.743532451
 30
0.0
 11
1.3024363802
 21
-7.7894642095
 31
0.0
  0
LINE
  5
30A
330
1F
100
AcDbEntity
  8
0
  6
Continuous
 62
     7
370
    25
100
AcDbLine
 10
1.0647894557
 20
-7.7115799233
 30
0.0
 11
1.0647894557
 21
-7.783005056
 31
0.0
  0
LINE
  5
30B
330
1F
100
AcDbEntity
  8
0
  6
Continuous
 62
     7
370
    25
100
AcDbLine
 10
1.0171102933
 20
-7.7115799233
 30
0.0
 11
1.0647894557
 21
-7.7115799233
 31
0.0
  0
LINE
  5
30C
330
1F
100
AcDbEntity
  8
0
  6
Continuous
 62
     7
370
    25
100
AcDbLine
 10
1.0171102933
 20
-7.7275561872
 30
0.0
 11
1.0171102933
 21
-7.7115799233
 31
0.0
  0
LINE
  5
30D
330
1F
100
AcDbEntity
  8
0
  6
Continuous
 62
     7
370
    25
100
AcDbLine
 10
1.0448191259
 20
-7.7275561872
 30
0.0
 11
1.0171102933
 21
-7.7275561872
 31
0.0
  0
LINE
  5
30E
330
1F
100
AcDbEntity
  8
0
  6
Continuous
 62
     7
370
    25
100
AcDbLine
 10
1.0448191259
 20
-7.7725518365
 30
0.0
 11
1.0448191259
 21
-7.7275561872
 31
0.0
  0
LINE
  5
30F
330
1F
100
AcDbEntity
  8
0
  6
Continuous
 62
     7
370
    25
100
AcDbLine
 10
1.0647894557
 20
-7.6556629999
 30
0.0
 11
1.0647894557
 21
-7.6736362967
 31
0.0
  0
LINE
  5
310
330
1F
100
AcDbEntity
  8
0
  6
Continuous
 62
     7
370
    25
100
AcDbLine
 10
0.7212997832
 20
-7.8174226713
 30
0.0
 11
0.839124729
 21
-7.8174226713
 31
0.0
  0
LINE
  5
311
330
1F
100
AcDbEntity
  8
0
  6
Continuous
 62
     7
370
    25
100
AcDbLine
 10
0.7212997832
 20
-7.8333989351
 30
0.0
 11
0.7212997832
 21
-7.8174226713
 31
0.0
  0
LINE
  5
312
330
1F
100
AcDbEntity
  8
0
  6
Continuous
 62
     7
370
    25
100
AcDbLine
 10
0.839124729
 20
-7.8333989351
 30
0.0
 11
0.7212997832
 21
-7.8333989351
 31
0.0
  0
LINE
  5
313
330
1F
100
AcDbEntity
  8
0
  6
Continuous
 62
     7
370
    25
100
AcDbLine
 10
0.839124729
 20
-7.8174226713
 30
0.0
 11
0.839124729
 21
-7.8333989351
 31
0.0
  0
LINE
  5
314
330
1F
100
AcDbEntity
  8
0
  6
Continuous
 62
     7
370
    25
100
AcDbLine
 10
1.2473931587
 20
-7.6676451978
 30
0.0
 11
1.230543193
 21
-7.6676451978
 31
0.0
  0
LINE
  5
315
330
1F
100
AcDbEntity
  8
0
  6
Continuous
 62
     7
370
    25
100
AcDbLine
 10
1.230543193
 20
-7.6676451978
 30
0.0
 11
1.230543193
 21
-7.7135769563
 31
0.0
  0
LINE
  5
316
330
1F
100
AcDbEntity
  8
0
  6
Continuous
 62
     7
370
    25
100
AcDbLine
 10
1.230543193
 20
-7.7135769563
 30
0.0
 11
1.2449904784
 21
-7.7135769563
 31
0.0
  0
LINE
  5
317
330
1F
100
AcDbEntity
  8
0
  6
Continuous
 62
     7
370
    25
100
AcDbLine
 10
1.1570274164
 20
-7.743532451
 30
0.0
 11
1.1336870935
 21
-7.6677388087
 31
0.0
  0
LINE
  5
318
330
1F
100
AcDbEntity
  8
0
  6
Continuous
 62
     7
370
    25
100
AcDbLine
 10
1.1336870935
 20
-7.6677388087
 30
0.0
 11
1.1097539013
 21
-7.743532451
 31
0.0
  0
LINE
  5
319
330
1F
100
AcDbEntity
  8
0
  6
Continuous
 62
     7
370
    25
100
AcDbLine
 10
1.1097539013
 20
-7.743532451
 30
0.0
 11
1.1570274164
 21
-7.743532451
 31
0.0
  0
LINE
  5
31A
330
1F
100
AcDbEntity
  8
0
  6
Continuous
 62
     7
370
    25
100
AcDbLine
 10
0.9213775248
 20
-7.743532451
 30
0.0
 11
0.8980372019
 21
-7.6677388087
 31
0.0
  0
LINE
  5
31B
330
1F
100
AcDbEntity
  8
0
  6
Continuous
 62
     7
370
    25
100
AcDbLine
 10
0.8741040098
 20
-7.743532451
 30
0.0
 11
0.9213775248
 21
-7.743532451
 31
0.0
  0
LINE
  5
31C
330
1F
100
AcDbEntity
  8
0
  6
Continuous
 62
     7
370
    25
100
AcDbLine
 10
0.8980372019
 20
-7.6677388087
 30
0.0
 11
0.8741040098
 21
-7.743532451
 31
0.0
  0
ARC
  5
31D
330
1F
100
AcDbEntity
  8
0
  6
Continuous
 62
     7
370
    25
100
AcDbCircle
 10
1.7406010239
 20
-5.0960131493
 30
0.0
 40
0.0312500000000002
100
AcDbArc
 50
233.4278107015
 51
306.5721892985
  0
ARC
  5
31E
330
1F
100
AcDbEntity
  8
0
  6
Continuous
 62
     7
370
    25
100
AcDbCircle
 10
1.7406010239
 20
-5.5339081105
 30
0.0
 40
0.0312500000000175
100
AcDbArc
 50
53.4278107011
 51
126.5721892989
  0
ARC
  5
31F
330
1F
100
AcDbEntity
  8
0
  6
Continuous
 62
     7
370
    25
100
AcDbCircle
 10
1.7406010239
 20
-5.5339081105
 30
0.0
 40
0.0312500000000173
100
AcDbArc
 50
132.5458480182
 51
225.0
  0
ARC
  5
320
330
1F
100
AcDbEntity
  8
0
  6
Continuous
 62
     7
370
    25
100
AcDbCircle
 10
1.7406010239
 20
-5.8834147241
 30
0.0
 40
0.031249999999992
100
AcDbArc
 50
135.0
 51
227.4541519818
  0
ARC
  5
321
330
1F
100
AcDbEntity
  8
0
  6
Continuous
 62
     7
370
    25
100
AcDbCircle
 10
1.7406010239
 20
-5.8834147241
 30
0.0
 40
0.0312499999999936
100
AcDbArc
 50
233.4278107015
 51
306.5721892985
  0
ARC
  5
322
330
1F
100
AcDbEntity
  8
0
  6
Continuous
 62
     7
370
    25
100
AcDbCircle
 10
1.7406010239
 20
-6.3213096853
 30
0.0
 40
0.0312500000000149
100
AcDbArc
 50
53.4278107011
 51
126.5721892989
  0
ARC
  5
323
330
1F
100
AcDbEntity
  8
0
  6
Continuous
 62
     7
370
    25
100
AcDbCircle
 10
1.7406010239
 20
-6.3213096853
 30
0.0
 40
0.0312500000000177
100
AcDbArc
 50
132.5458480182
 51
225.0000000001
  0
ARC
  5
324
330
1F
100
AcDbEntity
  8
0
  6
Continuous
 62
     7
370
    25
100
AcDbCircle
 10
1.7406010239
 20
-6.6708162989
 30
0.0
 40
0.0312499999999795
100
AcDbArc
 50
135.0000000001
 51
227.4541519817
  0
ARC
  5
325
330
1F
100
AcDbEntity
  8
0
  6
Continuous
 62
     7
370
    25
100
AcDbCircle
 10
1.7406010239
 20
-6.6708162989
 30
0.0
 40
0.0312499999999784
100
AcDbArc
 50
233.4278107016
 51
306.5721892984
  0
ARC
  5
326
330
1F
100
AcDbEntity
  8
0
  6
Continuous
 62
     7
370
    25
100
AcDbCircle
 10
1.7406010239
 20
-7.1087112601
 30
0.0
 40
0.0312500000000041
100
AcDbArc
 50
53.4278107012
 51
126.5721892988
  0
ARC
  5
327
330
1F
100
AcDbEntity
  8
0
  6
Continuous
 62
     7
370
    25
100
AcDbCircle
 10
1.7406010239
 20
-7.1087112601
 30
0.0
 40
0.0312500000000027
100
AcDbArc
 50
132.5458480182
 51
225.0
  0
ARC
  5
328
330
1F
100
AcDbEntity
  8
0
  6
Continuous
 62
     7
370
    25
100
AcDbCircle
 10
1.7406010239
 20
-7.4582178737
 30
0.0
 40
0.031249999999981
100
AcDbArc
 50
135.0000000002
 51
227.4541519816
  0
ARC
  5
329
330
1F
100
AcDbEntity
  8
0
  6
Continuous
 62
     7
370
    25
100
AcDbCircle
 10
1.7406010239
 20
-7.4582178737
 30
0.0
 40
0.0312499999999801
100
AcDbArc
 50
233.4278107016
 51
306.5721892984
  0
ARC
  5
32A
330
1F
100
AcDbEntity
  8
0
  6
Continuous
 62
     7
370
    25
100
AcDbCircle
 10
1.2031994491
 20
-7.8961128349
 30
0.0
 40
0.031249999999986
100
AcDbArc
 50
45.0
 51
225.0
  0
ARC
  5
32B
330
1F
100
AcDbEntity
  8
0
  6
Continuous
 62
     7
370
    25
100
AcDbCircle
 10
0.7653044879
 20
-7.8961128349
 30
0.0
 40
0.0312500000000028
100
AcDbArc
 50
315.0
 51
135.0
  0
ARC
  5
32C
330
1F
100
AcDbEntity
  8
0
  6
Continuous
 62
     7
370
    25
100
AcDbCircle
 10
0.2279029131
 20
-7.5024120475
 30
0.0
 40
0.0312499999999871
100
AcDbArc
 50
314.9999999997
 51
134.9999999999
  0
ARC
  5
32D
330
1F
100
AcDbEntity
  8
0
  6
Continuous
 62
     7
370
    25
100
AcDbCircle
 10
0.2279029131
 20
-7.0645170863
 30
0.0
 40
0.0312499999999571
100
AcDbArc
 50
233.4278107012
 51
306.5721892988
  0
ARC
  5
32E
330
1F
100
AcDbEntity
  8
0
  6
Continuous
 62
     7
370
    25
100
AcDbCircle
 10
0.2279029131
 20
-7.0645170863
 30
0.0
 40
0.0312499999999549
100
AcDbArc
 50
311.9291975454
 51
45.0
  0
ARC
  5
32F
330
1F
100
AcDbEntity
  8
0
  6
Continuous
 62
     7
370
    25
100
AcDbCircle
 10
0.2279029131
 20
-6.7150104727
 30
0.0
 40
0.031249999999973
100
AcDbArc
 50
314.9999999999
 51
48.0708024547
  0
ARC
  5
330
330
1F
100
AcDbEntity
  8
0
  6
Continuous
 62
     7
370
    25
100
AcDbCircle
 10
0.2279029131
 20
-6.7150104727
 30
0.0
 40
0.0312499999999781
100
AcDbArc
 50
53.4278107011
 51
126.5721892989
  0
ARC
  5
331
330
1F
100
AcDbEntity
  8
0
  6
Continuous
 62
     7
370
    25
100
AcDbCircle
 10
0.2279029131
 20
-6.2771155115
 30
0.0
 40
0.0312499999999399
100
AcDbArc
 50
233.4278107012
 51
306.5721892989
  0
ARC
  5
332
330
1F
100
AcDbEntity
  8
0
  6
Continuous
 62
     7
370
    25
100
AcDbCircle
 10
0.2279029131
 20
-6.2771155115
 30
0.0
 40
0.0312499999999421
100
AcDbArc
 50
311.9291975454
 51
45.0
  0
ARC
  5
333
330
1F
100
AcDbEntity
  8
0
  6
Continuous
 62
     7
370
    25
100
AcDbCircle
 10
0.2279029131
 20
-5.9276088979
 30
0.0
 40
0.0312499999999743
100
AcDbArc
 50
314.9999999999
 51
48.0708024547
  0
ARC
  5
334
330
1F
100
AcDbEntity
  8
0
  6
Continuous
 62
     7
370
    25
100
AcDbCircle
 10
0.2279029131
 20
-5.9276088979
 30
0.0
 40
0.0312499999999742
100
AcDbArc
 50
53.4278107011
 51
126.5721892989
  0
ARC
  5
335
330
1F
100
AcDbEntity
  8
0
  6
Continuous
 62
     7
370
    25
100
AcDbCircle
 10
0.2279029131
 20
-5.4897139367
 30
0.0
 40
0.0312499999999406
100
AcDbArc
 50
233.4278107012
 51
306.5721892989
  0
ARC
  5
336
330
1F
100
AcDbEntity
  8
0
  6
Continuous
 62
     7
370
    25
100
AcDbCircle
 10
0.2279029131
 20
-5.4897139367
 30
0.0
 40
0.0312499999999426
100
AcDbArc
 50
311.9291975454
 51
45.0
  0
ARC
  5
337
330
1F
100
AcDbEntity
  8
0
  6
Continuous
 62
     7
370
    25
100
AcDbCircle
 10
0.2279029131
 20
-5.1402073231
 30
0.0
 40
0.0312499999999608
100
AcDbArc
 50
314.9999999999
 51
48.0708024547
  0
ARC
  5
338
330
1F
100
AcDbEntity
  8
0
  6
Continuous
 62
     7
370
    25
100
AcDbCircle
 10
0.2279029131
 20
-5.1402073231
 30
0.0
 40
0.0312499999999571
100
AcDbArc
 50
53.4278107012
 51
126.5721892988
  0
ARC
  5
339
330
1F
100
AcDbEntity
  8
0
  6
Continuous
 62
     7
370
    25
100
AcDbCircle
 10
0.2279029131
 20
-4.7023123619
 30
0.0
 40
0.0312499999999675
100
AcDbArc
 50
233.4278107012
 51
306.5721892989
  0
ARC
  5
33A
330
1F
100
AcDbEntity
  8
0
  6
Continuous
 62
     7
370
    25
100
AcDbCircle
 10
0.2279029131
 20
-4.7023123619
 30
0.0
 40
0.031249999999968
100
AcDbArc
 50
311.9291975454
 51
45.0000000001
  0
ARC
  5
33B
330
1F
100
AcDbEntity
  8
0
  6
Continuous
 62
     7
370
    25
100
AcDbCircle
 10
0.2279029131
 20
-4.3528057483
 30
0.0
 40
0.0312499999999738
100
AcDbArc
 50
314.9999999999
 51
48.0708024546
  0
ARC
  5
33C
330
1F
100
AcDbEntity
  8
0
  6
Continuous
 62
     7
370
    25
100
AcDbCircle
 10
0.2279029131
 20
-4.3528057483
 30
0.0
 40
0.0312499999999696
100
AcDbArc
 50
53.4278107011
 51
126.5721892989
  0
ARC
  5
33D
330
1F
100
AcDbEntity
  8
0
  6
Continuous
 62
     7
370
    25
100
AcDbCircle
 10
0.2279029131
 20
-3.9149107871
 30
0.0
 40
0.0312499999999566
100
AcDbArc
 50
233.4278107012
 51
306.5721892988
  0
ARC
  5
33E
330
1F
100
AcDbEntity
  8
0
  6
Continuous
 62
     7
370
    25
100
AcDbCircle
 10
0.2279029131
 20
-3.9149107871
 30
0.0
 40
0.0312499999999549
100
AcDbArc
 50
311.9291975454
 51
45.0
  0
ARC
  5
33F
330
1F
100
AcDbEntity
  8
0
  6
Continuous
 62
     7
370
    25
100
AcDbCircle
 10
0.2279029131
 20
-3.5654041735
 30
0.0
 40
0.0312499999999742
100
AcDbArc
 50
314.9999999999
 51
48.0708024546
  0
ARC
  5
340
330
1F
100
AcDbEntity
  8
0
  6
Continuous
 62
     7
370
    25
100
AcDbCircle
 10
0.2279029131
 20
-3.5654041735
 30
0.0
 40
0.03124999999997
100
AcDbArc
 50
53.4278107011
 51
126.5721892989
  0
ARC
  5
341
330
1F
100
AcDbEntity
  8
0
  6
Continuous
 62
     7
370
    25
100
AcDbCircle
 10
0.2279029131
 20
-3.1275092123
 30
0.0
 40
0.0312499999999683
100
AcDbArc
 50
233.4278107012
 51
306.5721892988
  0
ARC
  5
342
330
1F
100
AcDbEntity
  8
0
  6
Continuous
 62
     7
370
    25
100
AcDbCircle
 10
0.2279029131
 20
-3.1275092123
 30
0.0
 40
0.031249999999967
100
AcDbArc
 50
311.9291975454
 51
45.0000000001
  0
ARC
  5
343
330
1F
100
AcDbEntity
  8
0
  6
Continuous
 62
     7
370
    25
100
AcDbCircle
 10
0.2279029131
 20
-2.7780025987
 30
0.0
 40
0.031249999999948
100
AcDbArc
 50
315.0000000001
 51
48.0708024545
  0
ARC
  5
344
330
1F
100
AcDbEntity
  8
0
  6
Continuous
 62
     7
370
    25
100
AcDbCircle
 10
0.2279029131
 20
-2.7780025987
 30
0.0
 40
0.0312499999999447
100
AcDbArc
 50
53.4278107012
 51
126.5721892988
  0
ARC
  5
345
330
1F
100
AcDbEntity
  8
0
  6
Continuous
 62
     7
370
    25
100
AcDbCircle
 10
0.2279029131
 20
-2.3401076375
 30
0.0
 40
0.0312499999999536
100
AcDbArc
 50
233.4278107012
 51
306.5721892988
  0
ARC
  5
346
330
1F
100
AcDbEntity
  8
0
  6
Continuous
 62
     7
370
    25
100
AcDbCircle
 10
0.2279029131
 20
-2.3401076375
 30
0.0
 40
0.0312499999999551
100
AcDbArc
 50
311.9291975454
 51
45.0
  0
ARC
  5
347
330
1F
100
AcDbEntity
  8
0
  6
Continuous
 62
     7
370
    25
100
AcDbCircle
 10
0.2279029131
 20
-1.9906010239
 30
0.0
 40
0.031249999999961
100
AcDbArc
 50
314.9999999999
 51
48.0708024547
  0
ARC
  5
348
330
1F
100
AcDbEntity
  8
0
  6
Continuous
 62
     7
370
    25
100
AcDbCircle
 10
0.2279029131
 20
-1.9906010239
 30
0.0
 40
0.0312499999999585
100
AcDbArc
 50
53.4278107012
 51
126.5721892988
  0
ARC
  5
349
330
1F
100
AcDbEntity
  8
0
  6
Continuous
 62
     7
370
    25
100
AcDbCircle
 10
0.2279029131
 20
-1.5527060627
 30
0.0
 40
0.0312499999999668
100
AcDbArc
 50
233.4278107012
 51
306.5721892988
  0
ARC
  5
34A
330
1F
100
AcDbEntity
  8
0
  6
Continuous
 62
     7
370
    25
100
AcDbCircle
 10
0.2279029131
 20
-1.5527060627
 30
0.0
 40
0.0312499999999673
100
AcDbArc
 50
311.9291975454
 51
45.0000000001
  0
ARC
  5
34B
330
1F
100
AcDbEntity
  8
0
  6
Continuous
 62
     7
370
    25
100
AcDbCircle
 10
0.2279029131
 20
-1.2031994491
 30
0.0
 40
0.0312499999999605
100
AcDbArc
 50
314.9999999999
 51
48.0708024547
  0
ARC
  5
34C
330
1F
100
AcDbEntity
  8
0
  6
Continuous
 62
     7
370
    25
100
AcDbCircle
 10
0.2279029131
 20
-1.2031994491
 30
0.0
 40
0.0312499999999576
100
AcDbArc
 50
53.4278107012
 51
126.5721892988
  0
ARC
  5
34D
330
1F
100
AcDbEntity
  8
0
  6
Continuous
 62
     7
370
    25
100
AcDbCircle
 10
0.2279029131
 20
-0.7653044879
 30
0.0
 40
0.0312499999999676
100
AcDbArc
 50
233.4278107012
 51
306.5721892988
  0
ARC
  5
34E
330
1F
100
AcDbEntity
  8
0
  6
Continuous
 62
     7
370
    25
100
AcDbCircle
 10
0.2279029131
 20
-0.7653044879
 30
0.0
 40
0.0312499999999672
100
AcDbArc
 50
311.9291975454
 51
45.0000000001
  0
ARC
  5
34F
330
1F
100
AcDbEntity
  8
0
  6
Continuous
 62
     7
370
    25
100
AcDbCircle
 10
0.2279029131
 20
-0.4157978743
 30
0.0
 40
0.0312499999999607
100
AcDbArc
 50
314.9999999999
 51
48.0708024547
  0
ARC
  5
350
330
1F
100
AcDbEntity
  8
0
  6
Continuous
 62
     7
370
    25
100
AcDbCircle
 10
0.2279029131
 20
-0.4157978743
 30
0.0
 40
0.031249999999959
100
AcDbArc
 50
53.4278107011
 51
126.5721892989
  0
ARC
  5
351
330
1F
100
AcDbEntity
  8
0
  6
Continuous
 62
     7
370
    25
100
AcDbCircle
 10
0.7653044879
 20
0.0220970869
 30
0.0
 40
0.0312500000000042
100
AcDbArc
 50
225.0
 51
45.0
  0
ARC
  5
352
330
1F
100
AcDbEntity
  8
0
  6
Continuous
 62
     7
370
    25
100
AcDbCircle
 10
1.2031994491
 20
0.0220970869
 30
0.0
 40
0.0312499999999995
100
AcDbArc
 50
135.0
 51
315.0
  0
ARC
  5
353
330
1F
100
AcDbEntity
  8
0
  6
Continuous
 62
     7
370
    25
100
AcDbCircle
 10
1.7406010239
 20
-0.3716037005
 30
0.0
 40
0.0312500000000044
100
AcDbArc
 50
135.0
 51
315.0
  0
ARC
  5
354
330
1F
100
AcDbEntity
  8
0
  6
Continuous
 62
     7
370
    25
100
AcDbCircle
 10
1.7406010239
 20
-0.8094986617
 30
0.0
 40
0.0312499999999987
100
AcDbArc
 50
53.4278107012
 51
126.5721892988
  0
ARC
  5
355
330
1F
100
AcDbEntity
  8
0
  6
Continuous
 62
     7
370
    25
100
AcDbCircle
 10
1.7406010239
 20
-0.8094986617
 30
0.0
 40
0.0312499999999978
100
AcDbArc
 50
132.5458480183
 51
225.0
  0
ARC
  5
356
330
1F
100
AcDbEntity
  8
0
  6
Continuous
 62
     7
370
    25
100
AcDbCircle
 10
1.7406010239
 20
-1.1590052753
 30
0.0
 40
0.0312499999999803
100
AcDbArc
 50
135.0
 51
227.4541519817
  0
ARC
  5
357
330
1F
100
AcDbEntity
  8
0
  6
Continuous
 62
     7
370
    25
100
AcDbCircle
 10
1.7406010239
 20
-1.1590052753
 30
0.0
 40
0.0312499999999838
100
AcDbArc
 50
233.4278107016
 51
306.5721892984
  0
ARC
  5
358
330
1F
100
AcDbEntity
  8
0
  6
Continuous
 62
     7
370
    25
100
AcDbCircle
 10
1.7406010239
 20
-1.5969002365
 30
0.0
 40
0.0312499999999917
100
AcDbArc
 50
53.4278107012
 51
126.5721892988
  0
ARC
  5
359
330
1F
100
AcDbEntity
  8
0
  6
Continuous
 62
     7
370
    25
100
AcDbCircle
 10
1.7406010239
 20
-1.5969002365
 30
0.0
 40
0.0312499999999916
100
AcDbArc
 50
132.5458480182
 51
225.0
  0
ARC
  5
35A
330
1F
100
AcDbEntity
  8
0
  6
Continuous
 62
     7
370
    25
100
AcDbCircle
 10
1.7406010239
 20
-1.9464068501
 30
0.0
 40
0.0312500000000042
100
AcDbArc
 50
135.0
 51
227.4541519818
  0
ARC
  5
35B
330
1F
100
AcDbEntity
  8
0
  6
Continuous
 62
     7
370
    25
100
AcDbCircle
 10
1.7406010239
 20
-1.9464068501
 30
0.0
 40
0.0312500000000041
100
AcDbArc
 50
233.4278107015
 51
306.5721892985
  0
ARC
  5
35C
330
1F
100
AcDbEntity
  8
0
  6
Continuous
 62
     7
370
    25
100
AcDbCircle
 10
1.7406010239
 20
-2.3843018113
 30
0.0
 40
0.0312500000000041
100
AcDbArc
 50
53.4278107011
 51
126.5721892989
  0
ARC
  5
35D
330
1F
100
AcDbEntity
  8
0
  6
Continuous
 62
     7
370
    25
100
AcDbCircle
 10
1.7406010239
 20
-2.3843018113
 30
0.0
 40
0.0312500000000048
100
AcDbArc
 50
132.5458480182
 51
225.0
  0
ARC
  5
35E
330
1F
100
AcDbEntity
  8
0
  6
Continuous
 62
     7
370
    25
100
AcDbCircle
 10
1.7406010239
 20
-2.7338084249
 30
0.0
 40
0.0312499999999934
100
AcDbArc
 50
135.0
 51
227.4541519818
  0
ARC
  5
35F
330
1F
100
AcDbEntity
  8
0
  6
Continuous
 62
     7
370
    25
100
AcDbCircle
 10
1.7406010239
 20
-2.7338084249
 30
0.0
 40
0.0312499999999916
100
AcDbArc
 50
233.4278107015
 51
306.5721892985
  0
ARC
  5
360
330
1F
100
AcDbEntity
  8
0
  6
Continuous
 62
     7
370
    25
100
AcDbCircle
 10
1.7406010239
 20
-3.1717033861
 30
0.0
 40
0.0312500000000021
100
AcDbArc
 50
53.4278107011
 51
126.5721892989
  0
ARC
  5
361
330
1F
100
AcDbEntity
  8
0
  6
Continuous
 62
     7
370
    25
100
AcDbCircle
 10
1.7406010239
 20
-3.1717033861
 30
0.0
 40
0.0312500000000036
100
AcDbArc
 50
132.5458480182
 51
225.0
  0
ARC
  5
362
330
1F
100
AcDbEntity
  8
0
  6
Continuous
 62
     7
370
    25
100
AcDbCircle
 10
1.7406010239
 20
-3.5212099997
 30
0.0
 40
0.031250000000005
100
AcDbArc
 50
135.0
 51
227.4541519818
  0
ARC
  5
363
330
1F
100
AcDbEntity
  8
0
  6
Continuous
 62
     7
370
    25
100
AcDbCircle
 10
1.7406010239
 20
-3.5212099997
 30
0.0
 40
0.0312500000000051
100
AcDbArc
 50
233.4278107015
 51
306.5721892985
  0
ARC
  5
364
330
1F
100
AcDbEntity
  8
0
  6
Continuous
 62
     7
370
    25
100
AcDbCircle
 10
1.7406010239
 20
-3.9591049609
 30
0.0
 40
0.0312500000000049
100
AcDbArc
 50
53.4278107011
 51
126.5721892989
  0
ARC
  5
365
330
1F
100
AcDbEntity
  8
0
  6
Continuous
 62
     7
370
    25
100
AcDbCircle
 10
1.7406010239
 20
-3.9591049609
 30
0.0
 40
0.0312500000000039
100
AcDbArc
 50
132.5458480182
 51
225.0
  0
ARC
  5
366
330
1F
100
AcDbEntity
  8
0
  6
Continuous
 62
     7
370
    25
100
AcDbCircle
 10
1.7406010239
 20
-4.3086115745
 30
0.0
 40
0.0312499999999933
100
AcDbArc
 50
135.0
 51
227.4541519818
  0
ARC
  5
367
330
1F
100
AcDbEntity
  8
0
  6
Continuous
 62
     7
370
    25
100
AcDbCircle
 10
1.7406010239
 20
-4.3086115745
 30
0.0
 40
0.0312499999999929
100
AcDbArc
 50
233.4278107015
 51
306.5721892985
  0
ARC
  5
368
330
1F
100
AcDbEntity
  8
0
  6
Continuous
 62
     7
370
    25
100
AcDbCircle
 10
1.7406010239
 20
-4.7465065357
 30
0.0
 40
0.031249999999994
100
AcDbArc
 50
53.4278107012
 51
126.5721892988
  0
ARC
  5
369
330
1F
100
AcDbEntity
  8
0
  6
Continuous
 62
     7
370
    25
100
AcDbCircle
 10
1.7406010239
 20
-4.7465065357
 30
0.0
 40
0.0312499999999917
100
AcDbArc
 50
132.5458480182
 51
225.0
  0
ARC
  5
36A
330
1F
100
AcDbEntity
  8
0
  6
Continuous
 62
     7
370
    25
100
AcDbCircle
 10
1.7406010239
 20
-5.0960131493
 30
0.0
 40
0.0312500000000036
100
AcDbArc
 50
135.0
 51
227.4541519818
  0
ENDSEC
  0
SECTION
  2
OBJECTS
  0
DICTIONARY
  5
C
330
0
100
AcDbDictionary
281
     1
  3
ACAD_GROUP
350
D
  3
ACAD_LAYOUT
350
1A
  3
ACAD_MLINESTYLE
350
17
  3
ACAD_PLOTSETTINGS
350
19
  3
ACAD_PLOTSTYLENAME
350
E
  3
ACAD_SCALELIST
350
47
  0
DICTIONARY
  5
D
102
{ACAD_REACTORS
330
C
102
}
330
C
100
AcDbDictionary
281
     1
  0
DICTIONARY
  5
1A
102
{ACAD_REACTORS
330
C
102
}
330
C
100
AcDbDictionary
281
     1
  3
Layout1
350
1E
  3
Layout2
350
26
  3
Model
350
22
  0
DICTIONARY
  5
17
102
{ACAD_REACTORS
330
C
102
}
330
C
100
AcDbDictionary
281
     1
  3
Standard
350
18
  0
DICTIONARY
  5
19
102
{ACAD_REACTORS
330
C
102
}
330
C
100
AcDbDictionary
281
     1
  0
ACDBDICTIONARYWDFLT
  5
E
102
{ACAD_REACTORS
330
C
102
}
330
C
100
AcDbDictionary
281
     1
  3
Normal
350
F
100
AcDbDictionaryWithDefault
340
F
  0
DICTIONARY
  5
47
102
{ACAD_REACTORS
330
C
102
}
330
C
100
AcDbDictionary
281
     1
  3
A0
350
48
  3
A1
350
49
  3
A2
350
4A
  3
A3
350
4B
  3
A4
350
4C
  3
A5
350
4D
  3
A6
350
4E
  3
A7
350
4F
  3
A8
350
50
  3
A9
350
51
  3
B0
350
52
  3
B1
350
53
  3
B2
350
54
  3
B3
350
55
  3
B4
350
56
  3
B5
350
57
  3
B6
350
58
  3
B7
350
59
  3
B8
350
5A
  3
B9
350
5B
  3
C0
350
5C
  3
C1
350
5D
  3
C2
350
5E
  3
C3
350
5F
  3
C4
350
60
  3
C5
350
61
  3
C6
350
62
  3
C7
350
63
  3
C8
350
64
  3
C9
350
65
  3
D0
350
66
  3
D1
350
67
  3
D2
350
68
  0
LAYOUT
  5
1E
102
{ACAD_REACTORS
330
1A
102
}
330
1A
100
AcDbPlotSettings
  1

  2
none_device
  4

  6

 40
0.0
 41
0.0
 42
0.0
 43
0.0
 44
0.0
 45
0.0
 46
0.0
 47
0.0
 48
0.0
 49
0.0
140
0.0
141
0.0
142
1.0
143
1.0
 70
   688
 72
     0
 73
     0
 74
     5
  7

 75
    16
147
1.0
148
0.0
149
0.0
100
AcDbLayout
  1
Layout1
 70
     1
 71
     1
 10
0.0
 20
0.0
 11
12.0
 21
9.0
 12
0.0
 22
0.0
 32
0.0
 14
1.0000000000E+20
 24
1.0000000000E+20
 34
1.0000000000E+20
 15
-1.0000000000E+20
 25
-1.0000000000E+20
 35
-1.0000000000E+20
146
0.0
 13
0.0
 23
0.0
 33
0.0
 16
1.0
 26
0.0
 36
0.0
 17
0.0
 27
1.0
 37
0.0
 76
     0
330
1B
  0
LAYOUT
  5
26
102
{ACAD_REACTORS
330
1A
102
}
330
1A
100
AcDbPlotSettings
  1

  2
none_device
  4

  6

 40
0.0
 41
0.0
 42
0.0
 43
0.0
 44
0.0
 45
0.0
 46
0.0
 47
0.0
 48
0.0
 49
0.0
140
0.0
141
0.0
142
1.0
143
1.0
 70
   688
 72
     0
 73
     0
 74
     5
  7

 75
    16
147
1.0
148
0.0
149
0.0
100
AcDbLayout
  1
Layout2
 70
     1
 71
     2
 10
0.0
 20
0.0
 11
0.0
 21
0.0
 12
0.0
 22
0.0
 32
0.0
 14
0.0
 24
0.0
 34
0.0
 15
0.0
 25
0.0
 35
0.0
146
0.0
 13
0.0
 23
0.0
 33
0.0
 16
1.0
 26
0.0
 36
0.0
 17
0.0
 27
1.0
 37
0.0
 76
     0
330
23
  0
LAYOUT
  5
22
102
{ACAD_REACTORS
330
1A
102
}
330
1A
100
AcDbPlotSettings
  1

  2
none_device
  4
ANSI_A_(11.00_x_8.50_Inches)
  6

 40
6.35
 41
19.05
 42
6.35000508
 43
19.05000254
 44
279.4
 45
215.9
 46
108.2276420298
 47
189.3894204507
 48
0.0
 49
0.0
140
0.0
141
0.0
142
1.0048942172
143
1.0
 70
  1696
 72
     0
 73
     0
 74
     0
  7

 75
     0
147
0.5913241897
148
-39.4088153714
149
0.0
100
AcDbLayout
  1
Model
 70
     1
 71
     0
 10
0.0
 20
0.0
 11
12.0
 21
9.0
 12
0.0
 22
0.0
 32
0.0
 14
0.0
 24
-8.124015748
 34
0.0
 15
1.968503937
 25
0.25
 35
0.0
146
0.0
 13
0.0
 23
0.0
 33
0.0
 16
1.0
 26
0.0
 36
0.0
 17
0.0
 27
1.0
 37
0.0
 76
     0
330
1F
331
29
  0
MLINESTYLE
  5
18
102
{ACAD_REACTORS
330
17
102
}
330
17
100
AcDbMlineStyle
  2
Standard
 70
     0
  3

 62
   256
 51
90.0
 52
90.0
 71
     2
 49
0.5
 62
   256
  6
BYLAYER
 49
-0.5
 62
   256
  6
BYLAYER
  0
ACDBPLACEHOLDER
  5
F
102
{ACAD_REACTORS
330
E
102
}
330
E
  0
SCALE
  5
48
102
{ACAD_REACTORS
330
47
102
}
330
47
100
AcDbScale
 70
     0
300
1:1
140
1.0
141
1.0
290
     1
  0
SCALE
  5
49
102
{ACAD_REACTORS
330
47
102
}
330
47
100
AcDbScale
 70
     0
300
1:2
140
1.0
141
2.0
290
     0
  0
SCALE
  5
4A
102
{ACAD_REACTORS
330
47
102
}
330
47
100
AcDbScale
 70
     0
300
1:4
140
1.0
141
4.0
290
     0
  0
SCALE
  5
4B
102
{ACAD_REACTORS
330
47
102
}
330
47
100
AcDbScale
 70
     0
300
1:5
140
1.0
141
5.0
290
     0
  0
SCALE
  5
4C
102
{ACAD_REACTORS
330
47
102
}
330
47
100
AcDbScale
 70
     0
300
1:8
140
1.0
141
8.0
290
     0
  0
SCALE
  5
4D
102
{ACAD_REACTORS
330
47
102
}
330
47
100
AcDbScale
 70
     0
300
1:10
140
1.0
141
10.0
290
     0
  0
SCALE
  5
4E
102
{ACAD_REACTORS
330
47
102
}
330
47
100
AcDbScale
 70
     0
300
1:16
140
1.0
141
16.0
290
     0
  0
SCALE
  5
4F
102
{ACAD_REACTORS
330
47
102
}
330
47
100
AcDbScale
 70
     0
300
1:20
140
1.0
141
20.0
290
     0
  0
SCALE
  5
50
102
{ACAD_REACTORS
330
47
102
}
330
47
100
AcDbScale
 70
     0
300
1:30
140
1.0
141
30.0
290
     0
  0
SCALE
  5
51
102
{ACAD_REACTORS
330
47
102
}
330
47
100
AcDbScale
 70
     0
300
1:40
140
1.0
141
40.0
290
     0
  0
SCALE
  5
52
102
{ACAD_REACTORS
330
47
102
}
330
47
100
AcDbScale
 70
     0
300
1:50
140
1.0
141
50.0
290
     0
  0
SCALE
  5
53
102
{ACAD_REACTORS
330
47
102
}
330
47
100
AcDbScale
 70
     0
300
1:100
140
1.0
141
100.0
290
     0
  0
SCALE
  5
54
102
{ACAD_REACTORS
330
47
102
}
330
47
100
AcDbScale
 70
     0
300
2:1
140
2.0
141
1.0
290
     0
  0
SCALE
  5
55
102
{ACAD_REACTORS
330
47
102
}
330
47
100
AcDbScale
 70
     0
300
4:1
140
4.0
141
1.0
290
     0
  0
SCALE
  5
56
102
{ACAD_REACTORS
330
47
102
}
330
47
100
AcDbScale
 70
     0
300
8:1
140
8.0
141
1.0
290
     0
  0
SCALE
  5
57
102
{ACAD_REACTORS
330
47
102
}
330
47
100
AcDbScale
 70
     0
300
10:1
140
10.0
141
1.0
290
     0
  0
SCALE
  5
58
102
{ACAD_REACTORS
330
47
102
}
330
47
100
AcDbScale
 70
     0
300
100:1
140
100.0
141
1.0
290
     0
  0
SCALE
  5
59
102
{ACAD_REACTORS
330
47
102
}
330
47
100
AcDbScale
 70
     0
300
1/128" = 1'-0"
140
0.0078125
141
12.0
290
     0
  0
SCALE
  5
5A
102
{ACAD_REACTORS
330
47
102
}
330
47
100
AcDbScale
 70
     0
300
1/64" = 1'-0"
140
0.015625
141
12.0
290
     0
  0
SCALE
  5
5B
102
{ACAD_REACTORS
330
47
102
}
330
47
100
AcDbScale
 70
     0
300
1/32" = 1'-0"
140
0.03125
141
12.0
290
     0
  0
SCALE
  5
5C
102
{ACAD_REACTORS
330
47
102
}
330
47
100
AcDbScale
 70
     0
300
1/16" = 1'-0"
140
0.0625
141
12.0
290
     0
  0
SCALE
  5
5D
102
{ACAD_REACTORS
330
47
102
}
330
47
100
AcDbScale
 70
     0
300
3/32" = 1'-0"
140
0.09375
141
12.0
290
     0
  0
SCALE
  5
5E
102
{ACAD_REACTORS
330
47
102
}
330
47
100
AcDbScale
 70
     0
300
1/8" = 1'-0"
140
0.125
141
12.0
290
     0
  0
SCALE
  5
5F
102
{ACAD_REACTORS
330
47
102
}
330
47
100
AcDbScale
 70
     0
300
3/16" = 1'-0"
140
0.1875
141
12.0
290
     0
  0
SCALE
  5
60
102
{ACAD_REACTORS
330
47
102
}
330
47
100
AcDbScale
 70
     0
300
1/4" = 1'-0"
140
0.25
141
12.0
290
     0
  0
SCALE
  5
61
102
{ACAD_REACTORS
330
47
102
}
330
47
100
AcDbScale
 70
     0
300
3/8" = 1'-0"
140
0.375
141
12.0
290
     0
  0
SCALE
  5
62
102
{ACAD_REACTORS
330
47
102
}
330
47
100
AcDbScale
 70
     0
300
1/2" = 1'-0"
140
0.5
141
12.0
290
     0
  0
SCALE
  5
63
102
{ACAD_REACTORS
330
47
102
}
330
47
100
AcDbScale
 70
     0
300
3/4" = 1'-0"
140
0.75
141
12.0
290
     0
  0
SCALE
  5
64
102
{ACAD_REACTORS
330
47
102
}
330
47
100
AcDbScale
 70
     0
300
1" = 1'-0"
140
1.0
141
12.0
290
     0
  0
SCALE
  5
65
102
{ACAD_REACTORS
330
47
102
}
330
47
100
AcDbScale
 70
     0
300
1-1/2" = 1'-0"
140
1.5
141
12.0
290
     0
  0
SCALE
  5
66
102
{ACAD_REACTORS
330
47
102
}
330
47
100
AcDbScale
 70
     0
300
3" = 1'-0"
140
3.0
141
12.0
290
     0
  0
SCALE
  5
67
102
{ACAD_REACTORS
330
47
102
}
330
47
100
AcDbScale
 70
     0
300
6" = 1'-0"
140
6.0
141
12.0
290
     0
  0
SCALE
  5
68
102
{ACAD_REACTORS
330
47
102
}
330
47
100
AcDbScale
 70
     0
300
1'-0" = 1'-0"
140
12.0
141
12.0
290
     0
  0
ENDSEC
  0
EOF
