  0
SECTION
  2
HEADER
  9
$ACADVER
  1
AC1015
  9
$ACADMAINTVER
 70
     6
  9
$DWGCODEPAGE
  3
ANSI_1252
  9
$INSBASE
 10
0.0
 20
0.0
 30
0.0
  9
$EXTMIN
 10
-1.718503937
 20
-0.25
 30
0.0
  9
$EXTMAX
 10
0.25
 20
8.124015748
 30
0.0
  9
$LIMMIN
 10
0.0
 20
0.0
  9
$LIMMAX
 10
12.0
 20
9.0
  9
$ORTHOMODE
 70
     0
  9
$REGENMODE
 70
     1
  9
$FILLMODE
 70
     1
  9
$QTEXTMODE
 70
     0
  9
$MIRRTEXT
 70
     1
  9
$LTSCALE
 40
1.0
  9
$ATTMODE
 70
     1
  9
$TEXTSIZE
 40
0.1377952756
  9
$TRACEWID
 40
0.05
  9
$TEXTSTYLE
  7
Standard
  9
$CLAYER
  8
0
  9
$CELTYPE
  6
ByLayer
  9
$CECOLOR
 62
   256
  9
$CELTSCALE
 40
1.0
  9
$DISPSILH
 70
     0
  9
$DIMSCALE
 40
1.0
  9
$DIMASZ
 40
0.13
  9
$DIMEXO
 40
0.0393700787
  9
$DIMDLI
 40
0.38
  9
$DIMRND
 40
0.0
  9
$DIMDLE
 40
0.0
  9
$DIMEXE
 40
0.0393700787
  9
$DIMTP
 40
0.0
  9
$DIMTM
 40
0.0
  9
$DIMTXT
 40
0.1377952756
  9
$DIMCEN
 40
0.09
  9
$DIMTSZ
 40
0.0
  9
$DIMTOL
 70
     0
  9
$DIMLIM
 70
     0
  9
$DIMTIH
 70
     1
  9
$DIMTOH
 70
     1
  9
$DIMSE1
 70
     0
  9
$DIMSE2
 70
     0
  9
$DIMTAD
 70
     1
  9
$DIMZIN
 70
     1
  9
$DIMBLK
  1

  9
$DIMASO
 70
     1
  9
$DIMSHO
 70
     1
  9
$DIMPOST
  1

  9
$DIMAPOST
  1

  9
$DIMALT
 70
     0
  9
$DIMALTD
 70
     2
  9
$DIMALTF
 40
25.4
  9
$DIMLFAC
 40
1.0
  9
$DIMTOFL
 70
     0
  9
$DIMTVP
 40
0.0
  9
$DIMTIX
 70
     0
  9
$DIMSOXD
 70
     0
  9
$DIMSAH
 70
     0
  9
$DIMBLK1
  1

  9
$DIMBLK2
  1

  9
$DIMSTYLE
  2
Standard
  9
$DIMCLRD
 70
     0
  9
$DIMCLRE
 70
     0
  9
$DIMCLRT
 70
     0
  9
$DIMTFAC
 40
1.0
  9
$DIMGAP
 40
0.06
  9
$DIMJUST
 70
     0
  9
$DIMSD1
 70
     0
  9
$DIMSD2
 70
     0
  9
$DIMTOLJ
 70
     1
  9
$DIMTZIN
 70
     1
  9
$DIMALTZ
 70
     0
  9
$DIMALTTZ
 70
     0
  9
$DIMUPT
 70
     0
  9
$DIMDEC
 70
     2
  9
$DIMTDEC
 70
     2
  9
$DIMALTU
 70
     2
  9
$DIMALTTD
 70
     2
  9
$DIMTXSTY
  7
Standard
  9
$DIMAUNIT
 70
     0
  9
$DIMADEC
 70
     2
  9
$DIMALTRND
 40
0.0
  9
$DIMAZIN
 70
     0
  9
$DIMDSEP
 70
    46
  9
$DIMATFIT
 70
     3
  9
$DIMFRAC
 70
     0
  9
$DIMLDRBLK
  1

  9
$DIMLUNIT
 70
     2
  9
$DIMLWD
 70
    -2
  9
$DIMLWE
 70
    -2
  9
$DIMTMOVE
 70
     0
  9
$LUNITS
 70
     2
  9
$LUPREC
 70
     8
  9
$SKETCHINC
 40
0.1
  9
$FILLETRAD
 40
0.5
  9
$AUNITS
 70
     0
  9
$AUPREC
 70
     2
  9
$MENU
  1
.
  9
$ELEVATION
 40
0.0
  9
$PELEVATION
 40
0.0
  9
$THICKNESS
 40
0.0
  9
$LIMCHECK
 70
     0
  9
$CHAMFERA
 40
0.0
  9
$CHAMFERB
 40
0.0
  9
$CHAMFERC
 40
0.0
  9
$CHAMFERD
 40
0.0
  9
$SKPOLY
 70
     0
  9
$TDCREATE
 40
2458302.395886389
  9
$TDUCREATE
 40
2458302.562553056
  9
$TDUPDATE
 40
2458302.395915671
  9
$TDUUPDATE
 40
2458302.562582338
  9
$TDINDWG
 40
0.0000000116
  9
$TDUSRTIMER
 40
0.0000000116
  9
$USRTIMER
 70
     1
  9
$ANGBASE
 50
0.0
  9
$ANGDIR
 70
     0
  9
$PDMODE
 70
     0
  9
$PDSIZE
 40
-1.0
  9
$PLINEWID
 40
0.0
  9
$SPLFRAME
 70
     0
  9
$SPLINETYPE
 70
     6
  9
$SPLINESEGS
 70
     8
  9
$HANDSEED
  5
30F
  9
$SURFTAB1
 70
     6
  9
$SURFTAB2
 70
     6
  9
$SURFTYPE
 70
     6
  9
$SURFU
 70
     6
  9
$SURFV
 70
     6
  9
$UCSBASE
  2

  9
$UCSNAME
  2

  9
$UCSORG
 10
0.0
 20
0.0
 30
0.0
  9
$UCSXDIR
 10
1.0
 20
0.0
 30
0.0
  9
$UCSYDIR
 10
0.0
 20
1.0
 30
0.0
  9
$UCSORTHOREF
  2

  9
$UCSORTHOVIEW
 70
     0
  9
$UCSORGTOP
 10
0.0
 20
0.0
 30
0.0
  9
$UCSORGBOTTOM
 10
0.0
 20
0.0
 30
0.0
  9
$UCSORGLEFT
 10
0.0
 20
0.0
 30
0.0
  9
$UCSORGRIGHT
 10
0.0
 20
0.0
 30
0.0
  9
$UCSORGFRONT
 10
0.0
 20
0.0
 30
0.0
  9
$UCSORGBACK
 10
0.0
 20
0.0
 30
0.0
  9
$PUCSBASE
  2

  9
$PUCSNAME
  2

  9
$PUCSORG
 10
0.0
 20
0.0
 30
0.0
  9
$PUCSXDIR
 10
1.0
 20
0.0
 30
0.0
  9
$PUCSYDIR
 10
0.0
 20
1.0
 30
0.0
  9
$PUCSORTHOREF
  2

  9
$PUCSORTHOVIEW
 70
     0
  9
$PUCSORGTOP
 10
0.0
 20
0.0
 30
0.0
  9
$PUCSORGBOTTOM
 10
0.0
 20
0.0
 30
0.0
  9
$PUCSORGLEFT
 10
0.0
 20
0.0
 30
0.0
  9
$PUCSORGRIGHT
 10
0.0
 20
0.0
 30
0.0
  9
$PUCSORGFRONT
 10
0.0
 20
0.0
 30
0.0
  9
$PUCSORGBACK
 10
0.0
 20
0.0
 30
0.0
  9
$USERI1
 70
     0
  9
$USERI2
 70
     0
  9
$USERI3
 70
     0
  9
$USERI4
 70
     0
  9
$USERI5
 70
     0
  9
$USERR1
 40
0.0
  9
$USERR2
 40
0.0
  9
$USERR3
 40
0.0
  9
$USERR4
 40
0.0
  9
$USERR5
 40
0.0
  9
$WORLDVIEW
 70
     1
  9
$SHADEDGE
 70
     3
  9
$SHADEDIF
 70
    70
  9
$TILEMODE
 70
     1
  9
$MAXACTVP
 70
    64
  9
$PINSBASE
 10
0.0
 20
0.0
 30
0.0
  9
$PLIMCHECK
 70
     0
  9
$PEXTMIN
 10
1.0000000000E+20
 20
1.0000000000E+20
 30
1.0000000000E+20
  9
$PEXTMAX
 10
-1.0000000000E+20
 20
-1.0000000000E+20
 30
-1.0000000000E+20
  9
$PLIMMIN
 10
0.0
 20
0.0
  9
$PLIMMAX
 10
12.0
 20
9.0
  9
$UNITMODE
 70
     0
  9
$VISRETAIN
 70
     1
  9
$PLINEGEN
 70
     0
  9
$PSLTSCALE
 70
     1
  9
$TREEDEPTH
 70
  3020
  9
$CMLSTYLE
  2
Standard
  9
$CMLJUST
 70
     0
  9
$CMLSCALE
 40
1.0
  9
$PROXYGRAPHICS
 70
     1
  9
$MEASUREMENT
 70
     0
  9
$CELWEIGHT
370
    -1
  9
$ENDCAPS
280
     0
  9
$JOINSTYLE
280
     0
  9
$LWDISPLAY
290
     1
  9
$INSUNITS
 70
     1
  9
$HYPERLINKBASE
  1

  9
$STYLESHEET
  1

  9
$XEDIT
290
     1
  9
$CEPSNTYPE
380
     0
  9
$PSTYLEMODE
290
     1
  9
$FINGERPRINTGUID
  2
{2616F01E-43A0-4F9A-898C-052653BFE564}
  9
$VERSIONGUID
  2
{FAEB1C32-E019-11D5-929B-00C0DF256EC4}
  9
$EXTNAMES
290
     1
  9
$PSVPSCALE
 40
0.0
  9
$OLESTARTUP
290
     0
  0
ENDSEC
  0
SECTION
  2
CLASSES
  0
CLASS
  1
ACDBDICTIONARYWDFLT
  2
AcDbDictionaryWithDefault
  3
ObjectDBX Classes
 90
        0
280
     0
281
     0
  0
CLASS
  1
VISUALSTYLE
  2
AcDbVisualStyle
  3
ObjectDBX Classes
 90
     4095
280
     0
281
     0
  0
CLASS
  1
MATERIAL
  2
AcDbMaterial
  3
ObjectDBX Classes
 90
     1153
280
     0
281
     0
  0
CLASS
  1
SCALE
  2
AcDbScale
  3
ObjectDBX Classes
 90
     1153
280
     0
281
     0
  0
CLASS
  1
TABLESTYLE
  2
AcDbTableStyle
  3
ObjectDBX Classes
 90
     4095
280
     0
281
     0
  0
CLASS
  1
MLEADERSTYLE
  2
AcDbMLeaderStyle
  3
ACDB_MLEADERSTYLE_CLASS
 90
     4095
280
     0
281
     0
  0
CLASS
  1
SUN
  2
AcDbSun
  3
SCENEOE
 90
     1153
280
     0
281
     0
  0
CLASS
  1
ACDBPLACEHOLDER
  2
AcDbPlaceHolder
  3
ObjectDBX Classes
 90
        0
280
     0
281
     0
  0
CLASS
  1
LAYOUT
  2
AcDbLayout
  3
ObjectDBX Classes
 90
        0
280
     0
281
     0
  0
ENDSEC
  0
SECTION
  2
TABLES
  0
TABLE
  2
VPORT
  5
8
330
0
100
AcDbSymbolTable
 70
     1
  0
VPORT
  5
29
330
8
100
AcDbSymbolTableRecord
100
AcDbViewportTableRecord
  2
*Active
 70
     0
 10
0.0
 20
0.0
 11
1.0
 21
1.0
 12
-0.7342519685
 22
3.937007874
 13
0.0
 23
0.0
 14
0.5
 24
0.5
 15
0.5
 25
0.5
 16
0.0
 26
0.0
 36
1.0
 17
0.0
 27
0.0
 37
0.0
 40
8.541496063
 41
0.2350728726
 42
50.0
 43
0.0
 44
0.0
 50
0.0
 51
0.0
 71
     0
 72
   100
 73
     1
 74
     3
 75
     0
 76
     0
 77
     0
 78
     0
281
     0
 65
     1
110
0.0
120
0.0
130
0.0
111
1.0
121
0.0
131
0.0
112
0.0
122
1.0
132
0.0
 79
     0
146
0.0
  0
ENDTAB
  0
TABLE
  2
LTYPE
  5
5
330
0
100
AcDbSymbolTable
 70
     6
  0
LTYPE
  5
14
330
5
100
AcDbSymbolTableRecord
100
AcDbLinetypeTableRecord
  2
ByBlock
 70
     0
  3

 72
    65
 73
     0
 40
0.0
  0
LTYPE
  5
15
330
5
100
AcDbSymbolTableRecord
100
AcDbLinetypeTableRecord
  2
ByLayer
 70
     0
  3

 72
    65
 73
     0
 40
0.0
  0
LTYPE
  5
16
330
5
100
AcDbSymbolTableRecord
100
AcDbLinetypeTableRecord
  2
Continuous
 70
     0
  3
Solid line
 72
    65
 73
     0
 40
0.0
  0
LTYPE
  5
6E
330
5
100
AcDbSymbolTableRecord
100
AcDbLinetypeTableRecord
  2
HIDDEN
 70
     0
  3
Hidden __ __ __ __ __ __ __ __ __ __ __ __ __ __
 72
    65
 73
     2
 40
0.075
 49
0.05
 74
     0
 49
-0.025
 74
     0
  0
LTYPE
  5
6F
330
5
100
AcDbSymbolTableRecord
100
AcDbLinetypeTableRecord
  2
PHANTOM
 70
     0
  3
Phantom ______  __  __  ______  __  __  ______
 72
    65
 73
     6
 40
0.5
 49
0.25
 74
     0
 49
-0.05
 74
     0
 49
0.05
 74
     0
 49
-0.05
 74
     0
 49
0.05
 74
     0
 49
-0.05
 74
     0
  0
LTYPE
  5
70
330
5
100
AcDbSymbolTableRecord
100
AcDbLinetypeTableRecord
  2
CENTER
 70
     0
  3
Center ____ _ ____ _ ____ _ ____ _ ____ _ ____
 72
    65
 73
     4
 40
0.4
 49
0.25
 74
     0
 49
-0.05
 74
     0
 49
0.05
 74
     0
 49
-0.05
 74
     0
  0
LTYPE
  5
71
330
5
100
AcDbSymbolTableRecord
100
AcDbLinetypeTableRecord
  2
CENTERX2
 70
     0
  3
Center (2x) ________  __  ________  __  _____
 72
    65
 73
     4
 40
0.8
 49
0.5
 74
     0
 49
-0.1
 74
     0
 49
0.1
 74
     0
 49
-0.1
 74
     0
  0
LTYPE
  5
72
330
5
100
AcDbSymbolTableRecord
100
AcDbLinetypeTableRecord
  2
DOT2
 70
     0
  3
Dot (.5x) ........................................
 72
    65
 73
     2
 40
0.025
 49
0.0
 74
     0
 49
-0.025
 74
     0
  0
ENDTAB
  0
TABLE
  2
LAYER
  5
2
330
0
100
AcDbSymbolTable
 70
     1
  0
LAYER
  5
10
330
2
100
AcDbSymbolTableRecord
100
AcDbLayerTableRecord
  2
0
 70
     0
 62
     7
  6
Continuous
370
    -3
390
F
  0
ENDTAB
  0
TABLE
  2
STYLE
  5
3
330
0
100
AcDbSymbolTable
 70
     1
  0
STYLE
  5
11
330
3
100
AcDbSymbolTableRecord
100
AcDbTextStyleTableRecord
  2
Standard
 70
     0
 40
0.0
 41
1.0
 50
0.0
 71
     0
 42
0.1377952756
  3
txt
  4

  0
ENDTAB
  0
TABLE
  2
VIEW
  5
6
330
0
100
AcDbSymbolTable
 70
     0
  0
ENDTAB
  0
TABLE
  2
UCS
  5
7
330
0
100
AcDbSymbolTable
 70
     0
  0
ENDTAB
  0
TABLE
  2
APPID
  5
9
330
0
100
AcDbSymbolTable
 70
     1
  0
APPID
  5
12
330
9
100
AcDbSymbolTableRecord
100
AcDbRegAppTableRecord
  2
ACAD
 70
     0
  0
ENDTAB
  0
TABLE
  2
DIMSTYLE
  5
A
330
0
100
AcDbSymbolTable
 70
     1
100
AcDbDimStyleTable
  0
DIMSTYLE
105
27
330
A
100
AcDbSymbolTableRecord
100
AcDbDimStyleTableRecord
  2
Standard
 70
     0
178
     0
340
11
  0
ENDTAB
  0
TABLE
  2
BLOCK_RECORD
  5
1
330
0
100
AcDbSymbolTable
 70
     1
  0
BLOCK_RECORD
  5
1F
330
1
100
AcDbSymbolTableRecord
100
AcDbBlockTableRecord
  2
*Model_Space
340
22
  0
BLOCK_RECORD
  5
1B
330
1
100
AcDbSymbolTableRecord
100
AcDbBlockTableRecord
  2
*Paper_Space
340
1E
  0
BLOCK_RECORD
  5
23
330
1
100
AcDbSymbolTableRecord
100
AcDbBlockTableRecord
  2
*Paper_Space0
340
26
  0
ENDTAB
  0
ENDSEC
  0
SECTION
  2
BLOCKS
  0
BLOCK
  5
20
330
1F
100
AcDbEntity
  8
0
100
AcDbBlockBegin
  2
*Model_Space
 70
     0
 10
0.0
 20
0.0
 30
0.0
  3
*Model_Space
  1

  0
ENDBLK
  5
21
330
1F
100
AcDbEntity
  8
0
100
AcDbBlockEnd
  0
BLOCK
  5
1C
330
1B
100
AcDbEntity
 67
     1
  8
0
100
AcDbBlockBegin
  2
*Paper_Space
 70
     0
 10
0.0
 20
0.0
 30
0.0
  3
*Paper_Space
  1

  0
ENDBLK
  5
1D
330
1B
100
AcDbEntity
 67
     1
  8
0
100
AcDbBlockEnd
  0
BLOCK
  5
24
330
23
100
AcDbEntity
  8
0
100
AcDbBlockBegin
  2
*Paper_Space0
 70
     0
 10
0.0
 20
0.0
 30
0.0
  3
*Paper_Space0
  1

  0
ENDBLK
  5
25
330
23
100
AcDbEntity
  8
0
100
AcDbBlockEnd
  0
ENDSEC
  0
SECTION
  2
ENTITIES
  0
SPLINE
  5
73
330
1F
100
AcDbEntity
  8
0
  6
Continuous
 62
     7
370
    25
100
AcDbSpline
210
0.0
220
0.0
230
1.0
 70
     8
 71
     3
 72
    13
 73
     9
 74
     0
 42
0.000000001
 43
0.00000001
 40
0.0
 40
0.0
 40
0.0
 40
0.0
 40
0.1294509456953405
 40
0.2566201255472118
 40
0.3819473118776172
 40
0.5059238020969645
 40
0.7532270438830021
 40
1.0
 40
1.0
 40
1.0
 40
1.0
 10
-1.278817007588721
 20
0.1139792308570148
 30
0.0
 10
-1.277380575191905
 20
0.1139998837803206
 30
0.0
 10
-1.274533029660037
 20
0.114040825588379
 30
0.0
 10
-1.270313497029838
 20
0.1144694077014949
 30
0.0
 10
-1.266185396430251
 20
0.1151164908564014
 30
0.0
 10
-1.260810528130413
 20
0.1163338805495777
 30
0.0
 10
-1.254254810171861
 20
0.1184210754354367
 30
0.0
 10
-1.249305350176729
 20
0.1207861131169233
 30
0.0
 10
-1.246833276275244
 20
0.1219673627753077
 30
0.0
  0
SPLINE
  5
74
330
1F
100
AcDbEntity
  8
0
  6
Continuous
 62
     7
370
    25
100
AcDbSpline
210
0.0
220
0.0
230
1.0
 70
     8
 71
     3
 72
    23
 73
    19
 74
     0
 42
0.000000001
 43
0.00000001
 40
0.0
 40
0.0
 40
0.0
 40
0.0
 40
0.0840317394051694
 40
0.1627481493312725
 40
0.2368339841853695
 40
0.3065508913091592
 40
0.3719863846278454
 40
0.4340194086374984
 40
0.4926908591099676
 40
0.5491834289731913
 40
0.603684042456706
 40
0.6572913689677623
 40
0.7104988326918857
 40
0.7643749718134201
 40
0.8194274208576798
 40
0.8765172271270808
 40
0.9365368014155023
 40
1.0
 40
1.0
 40
1.0
 40
1.0
 10
-1.320723496519452
 20
0.1689912487161951
 30
0.0
 10
-1.320697760809305
 20
0.1667852329599262
 30
0.0
 10
-1.320647917271282
 20
0.1625127403961656
 30
0.0
 10
-1.320145193783951
 20
0.1563110297322852
 30
0.0
 10
-1.319304407635914
 20
0.1505279674820753
 30
0.0
 10
-1.318172944923833
 20
0.1451484991897966
 30
0.0
 10
-1.316675657729986
 20
0.1401865470761341
 30
0.0
 10
-1.314838830413435
 20
0.1356519016627872
 30
0.0
 10
-1.31268305348586
 20
0.1315204562961588
 30
0.0
 10
-1.310180722862219
 20
0.1278258624505251
 30
0.0
 10
-1.307362154815428
 20
0.1245344218721634
 30
0.0
 10
-1.304176341292072
 20
0.1217308698168667
 30
0.0
 10
-1.300732387208734
 20
0.1192739615468036
 30
0.0
 10
-1.296914277193633
 20
0.1173669946530725
 30
0.0
 10
-1.292837405002707
 20
0.1158006723734271
 30
0.0
 10
-1.2884262710931
 20
0.1147749484955924
 30
0.0
 10
-1.283726958305683
 20
0.1140918404034427
 30
0.0
 10
-1.280483805621123
 20
0.1140174588110689
 30
0.0
 10
-1.278817007588721
 20
0.1139792308570148
 30
0.0
  0
SPLINE
  5
75
330
1F
100
AcDbEntity
  8
0
  6
Continuous
 62
     7
370
    25
100
AcDbSpline
210
0.0
220
0.0
230
1.0
 70
     8
 71
     3
 72
    23
 73
    19
 74
     0
 42
0.000000001
 43
0.00000001
 40
0.0
 40
0.0
 40
0.0
 40
0.0
 40
0.060088060977983
 40
0.1176379756965089
 40
0.1740257215812315
 40
0.2293076183001612
 40
0.284123763961517
 40
0.3385894723333623
 40
0.3938963141024486
 40
0.4501731553616627
 40
0.5081612737277335
 40
0.5681844856238029
 40
0.6313404136763837
 40
0.6978380847396181
 40
0.7674999478350822
 40
0.840944607417586
 40
0.9181895397340781
 40
1.0
 40
1.0
 40
1.0
 40
1.0
 10
-1.279222654912697
 20
0.223816044733541
 30
0.0
 10
-1.280775824393128
 20
0.2237826416376496
 30
0.0
 10
-1.283816556788514
 20
0.2237172464074044
 30
0.0
 10
-1.288257170474014
 20
0.2229502168841838
 30
0.0
 10
-1.292487155017072
 20
0.2218250531725159
 30
0.0
 10
-1.296469905203351
 20
0.2201783799829624
 30
0.0
 10
-1.300205207328858
 20
0.2181300171706662
 30
0.0
 10
-1.30362463545713
 20
0.2155887987169053
 30
0.0
 10
-1.306793816482904
 20
0.2126888902131548
 30
0.0
 10
-1.309645212726216
 20
0.209352055793376
 30
0.0
 10
-1.312174457593929
 20
0.2056194839588717
 30
0.0
 10
-1.314391295986437
 20
0.2014932437238201
 30
0.0
 10
-1.316339914591811
 20
0.1969919440023256
 30
0.0
 10
-1.317898976470169
 20
0.1920809711351769
 30
0.0
 10
-1.319198593983653
 20
0.1868223627303052
 30
0.0
 10
-1.320082481715056
 20
0.1811958189095133
 30
0.0
 10
-1.320616138950004
 20
0.1752111754248389
 30
0.0
 10
-1.320687032354583
 20
0.1711038564637734
 30
0.0
 10
-1.320723496519452
 20
0.1689912487161951
 30
0.0
  0
SPLINE
  5
76
330
1F
100
AcDbEntity
  8
0
  6
Continuous
 62
     7
370
    25
100
AcDbSpline
210
0.0
220
0.0
230
1.0
 70
     8
 71
     3
 72
    15
 73
    11
 74
     0
 42
0.000000001
 43
0.00000001
 40
0.0
 40
0.0
 40
0.0
 40
0.0
 40
0.1229518253937443
 40
0.2436493340016006
 40
0.3654458018314716
 40
0.4858589981462083
 40
0.6082520122149501
 40
0.7338071751990883
 40
0.8647999477413028
 40
0.9999999999999999
 40
0.9999999999999999
 40
0.9999999999999999
 40
0.9999999999999999
 10
-1.246833276275244
 20
0.2158279128152481
 30
0.0
 10
-1.248063702480108
 20
0.2164569681846244
 30
0.0
 10
-1.250501995074734
 20
0.2177035452184164
 30
0.0
 10
-1.254288465131697
 20
0.21930143331417
 30
0.0
 10
-1.258132405220418
 20
0.2206688473984885
 30
0.0
 10
-1.262072532323576
 20
0.2217998472162835
 30
0.0
 10
-1.266111975969741
 20
0.222713643707559
 30
0.0
 10
-1.270321516608942
 20
0.2233758941129531
 30
0.0
 10
-1.274712205752474
 20
0.2237442778822314
 30
0.0
 10
-1.277703412800979
 20
0.2237918717035694
 30
0.0
 10
-1.279222654912697
 20
0.223816044733541
 30
0.0
  0
SPLINE
  5
78
330
1F
100
AcDbEntity
  8
0
  6
Continuous
 62
     7
370
    25
100
AcDbSpline
210
0.0
220
0.0
230
1.0
 70
     8
 71
     3
 72
    13
 73
     9
 74
     0
 42
0.000000001
 43
0.00000001
 40
0.0
 40
0.0
 40
0.0
 40
0.0
 40
0.1371061699383914
 40
0.2698431066498088
 40
0.3974532667587333
 40
0.520419035723221
 40
0.7614228402333063
 40
1.0
 40
1.0
 40
1.0
 40
1.0
 10
-1.280002745920342
 20
0.2397923085701267
 30
0.0
 10
-1.278452407176802
 20
0.2397759583947497
 30
0.0
 10
-1.275401135136277
 20
0.2397437790834907
 30
0.0
 10
-1.270916451008466
 20
0.2394421487165775
 30
0.0
 10
-1.266599683959652
 20
0.2390357433905339
 30
0.0
 10
-1.261113544484287
 20
0.2381378117999688
 30
0.0
 10
-1.254450211871011
 20
0.2366356351768723
 30
0.0
 10
-1.249363675639568
 20
0.2347428256537948
 30
0.0
 10
-1.246833276275244
 20
0.2338012096314071
 30
0.0
  0
SPLINE
  5
79
330
1F
100
AcDbEntity
  8
0
  6
Continuous
 62
     7
370
    25
100
AcDbSpline
210
0.0
220
0.0
230
1.0
 70
     8
 71
     3
 72
    23
 73
    19
 74
     0
 42
0.000000001
 43
0.00000001
 40
0.0
 40
0.0
 40
0.0
 40
0.0
 40
0.0762236969409297
 40
0.1492541184144699
 40
0.218962343152686
 40
0.2862645951784964
 40
0.3508726152949523
 40
0.4127356938289323
 40
0.4725305916637861
 40
0.5304846429257284
 40
0.5872753430613767
 40
0.6438115245597018
 40
0.700207078972827
 40
0.7573436374772592
 40
0.8154020232090153
 40
0.875024393929283
 40
0.9360604522577453
 40
1.0
 40
1.0
 40
1.0
 40
1.0
 10
-1.340693826315184
 20
0.1673686594202923
 30
0.0
 10
-1.340635693243079
 20
0.1700745745750024
 30
0.0
 10
-1.340521862495215
 20
0.1753730446981932
 30
0.0
 10
-1.339756188451363
 20
0.1831191390762507
 30
0.0
 10
-1.338393986101083
 20
0.1904565492296578
 30
0.0
 10
-1.336590484222458
 20
0.197392651993419
 30
0.0
 10
-1.334201138644257
 20
0.2038536242490571
 30
0.0
 10
-1.331404135118704
 20
0.2098553188958579
 30
0.0
 10
-1.328120366122773
 20
0.2153346319463098
 30
0.0
 10
-1.324396106680408
 20
0.2203020483929129
 30
0.0
 10
-1.320211389640678
 20
0.2247300823831652
 30
0.0
 10
-1.31562019006937
 20
0.2286519432476377
 30
0.0
 10
-1.310582834007209
 20
0.232003782929121
 30
0.0
 10
-1.305171634724418
 20
0.2348258323538844
 30
0.0
 10
-1.299363660405889
 20
0.2370559801702497
 30
0.0
 10
-1.293205169584484
 20
0.238621748270279
 30
0.0
 10
-1.286713721882
 20
0.2396350122855722
 30
0.0
 10
-1.28227411885807
 20
0.2397390706318623
 30
0.0
 10
-1.280002745920342
 20
0.2397923085701267
 30
0.0
  0
SPLINE
  5
7A
330
1F
100
AcDbEntity
  8
0
  6
Continuous
 62
     7
370
    25
100
AcDbSpline
210
0.0
220
0.0
230
1.0
 70
     8
 71
     3
 72
    23
 73
    19
 74
     0
 42
0.000000001
 43
0.00000001
 40
0.0
 40
0.0
 40
0.0
 40
0.0
 40
0.0670231464823978
 40
0.1305827730090679
 40
0.1909308857793587
 40
0.2488854419887255
 40
0.3052012834861851
 40
0.3603754908431914
 40
0.4152850020816805
 40
0.4704616393960706
 40
0.5269161871444931
 40
0.5848545470667003
 40
0.6449086826340926
 40
0.7081609972427745
 40
0.7747989577248985
 40
0.845379134638202
 40
0.9201393848946395
 40
1.0
 40
1.0
 40
1.0
 40
1.0
 10
-1.281032466050435
 20
0.098002967020429
 30
0.0
 10
-1.28336462119448
 20
0.0980571650689311
 30
0.0
 10
-1.2879084139255
 20
0.0981627604018347
 30
0.0
 10
-1.294514076336607
 20
0.0989734097791133
 30
0.0
 10
-1.300699251208474
 20
0.1003482548024996
 30
0.0
 10
-1.306482133406054
 20
0.1022452368799832
 30
0.0
 10
-1.31185289311691
 20
0.1047111351650337
 30
0.0
 10
-1.316784234256245
 20
0.1077692455022746
 30
0.0
 10
-1.321307421621577
 20
0.1113395328977963
 30
0.0
 10
-1.325395271127163
 20
0.1154651111134274
 30
0.0
 10
-1.329030984120307
 20
0.1201305159239388
 30
0.0
 10
-1.33214314275388
 20
0.1253550096422787
 30
0.0
 10
-1.334827529661489
 20
0.1310743027586055
 30
0.0
 10
-1.336935245234083
 20
0.1373476036835445
 30
0.0
 10
-1.338683988878736
 20
0.1441075724504021
 30
0.0
 10
-1.339820284526245
 20
0.1514029366974577
 30
0.0
 10
-1.340558569371603
 20
0.1592092416971443
 30
0.0
 10
-1.340647759978985
 20
0.1645896931796577
 30
0.0
 10
-1.340693826315184
 20
0.1673686594202923
 30
0.0
  0
SPLINE
  5
7B
330
1F
100
AcDbEntity
  8
0
  6
Continuous
 62
     7
370
    25
100
AcDbSpline
210
0.0
220
0.0
230
1.0
 70
     8
 71
     3
 72
    11
 73
     7
 74
     0
 42
0.000000001
 43
0.00000001
 40
0.0
 40
0.0
 40
0.0
 40
0.0
 40
0.24861869335774
 40
0.4959779292385398
 40
0.7466774047198509
 40
1.0
 40
1.0
 40
1.0
 40
1.0
 10
-1.246833276275244
 20
0.1039940659591487
 30
0.0
 10
-1.249574619412261
 20
0.103068019266443
 30
0.0
 10
-1.255043418536201
 20
0.1012206170666191
 30
0.0
 10
-1.26354572897335
 20
0.0993802718916564
 30
0.0
 10
-1.272221050472431
 20
0.0982148024246956
 30
0.0
 10
-1.278085154525844
 20
0.0980738233910976
 30
0.0
 10
-1.281032466050435
 20
0.098002967020429
 30
0.0
  0
SPLINE
  5
7D
330
1F
100
AcDbEntity
  8
0
  6
Continuous
 62
     7
370
    25
100
AcDbSpline
210
0.0
220
0.0
230
1.0
 70
     8
 71
     3
 72
    15
 73
    11
 74
     0
 42
0.000000001
 43
0.00000001
 40
0.0
 40
0.0
 40
0.0
 40
0.0
 40
0.1113525621013524
 40
0.2209309255260343
 40
0.3311251909260313
 40
0.443649188274154
 40
0.5643761418057452
 40
0.6964797497374366
 40
0.842107901972891
 40
0.9999999999999999
 40
0.9999999999999999
 40
0.9999999999999999
 40
0.9999999999999999
 10
-1.043884799726117
 20
0.1644979245121556
 30
0.0
 10
-1.042967154513754
 20
0.1641613525435874
 30
0.0
 10
-1.041146485081042
 20
0.1634935712629538
 30
0.0
 10
-1.038643205607555
 20
0.1620064953275403
 30
0.0
 10
-1.036288777823614
 20
0.1602779823071484
 30
0.0
 10
-1.034229777183974
 20
0.1580689482116778
 30
0.0
 10
-1.032216621969559
 20
0.155580807936997
 30
0.0
 10
-1.030221093377136
 20
0.1527138118688596
 30
0.0
 10
-1.028194664436877
 20
0.1494784322072761
 30
0.0
 10
-1.026918570599422
 20
0.1471454056074024
 30
0.0
 10
-1.026254742953322
 20
0.1459317585301858
 30
0.0
  0
SPLINE
  5
7E
330
1F
100
AcDbEntity
  8
0
  6
Continuous
 62
     7
370
    25
100
AcDbSpline
210
0.0
220
0.0
230
1.0
 70
     8
 71
     3
 72
    23
 73
    19
 74
     0
 42
0.000000001
 43
0.00000001
 40
0.0
 40
0.0
 40
0.0
 40
0.0
 40
0.0645442690844636
 40
0.1269342817600561
 40
0.1887265654101717
 40
0.2498083354624793
 40
0.3098390008115379
 40
0.3692223034933693
 40
0.4286832737432363
 40
0.4883798617341064
 40
0.5482501456441765
 40
0.608765760472555
 40
0.6699858955025249
 40
0.7331387142663488
 40
0.7970632865401303
 40
0.8628148123436724
 40
0.930318249078275
 40
1.0
 40
1.0
 40
1.0
 40
1.0
 10
-1.015177450644752
 20
0.2009437763893666
 30
0.0
 10
-1.015202387387102
 20
0.1998610302113996
 30
0.0
 10
-1.015251428572703
 20
0.1977316760428855
 30
0.0
 10
-1.015611887222724
 20
0.1945833367687258
 30
0.0
 10
-1.016157682844097
 20
0.1915215329416195
 30
0.0
 10
-1.016975490754784
 20
0.1885604444867511
 30
0.0
 10
-1.01800678509675
 20
0.185711613879269
 30
0.0
 10
-1.019252288335712
 20
0.1829772960999017
 30
0.0
 10
-1.020763729517951
 20
0.1803876810281257
 30
0.0
 10
-1.022474607719122
 20
0.1779157934155521
 30
0.0
 10
-1.024421284954837
 20
0.1756015529398329
 30
0.0
 10
-1.026571210879889
 20
0.173437161060659
 30
0.0
 10
-1.028975798656028
 20
0.1714734364447448
 30
0.0
 10
-1.031542175012961
 20
0.169628344042241
 30
0.0
 10
-1.034340534235715
 20
0.1679958090021444
 30
0.0
 10
-1.03734259737705
 20
0.1666009045445908
 30
0.0
 10
-1.040533087739248
 20
0.1654009484588501
 30
0.0
 10
-1.042755797859334
 20
0.1648021021161866
 30
0.0
 10
-1.043884799726117
 20
0.1644979245121556
 30
0.0
  0
SPLINE
  5
7F
330
1F
100
AcDbEntity
  8
0
  6
Continuous
 62
     7
370
    25
100
AcDbSpline
210
0.0
220
0.0
230
1.0
 70
     8
 71
     3
 72
    23
 73
    19
 74
     0
 42
0.000000001
 43
0.00000001
 40
0.0
 40
0.0
 40
0.0
 40
0.0
 40
0.0868773302242268
 40
0.1675014716055824
 40
0.2427475008353475
 40
0.312660341639302
 40
0.3779946034993811
 40
0.4397338850260997
 40
0.4985052936180564
 40
0.5543760393236223
 40
0.6088184466666484
 40
0.6619725906622711
 40
0.7152695750975286
 40
0.7692730547064732
 40
0.8244991354528809
 40
0.8807629267760523
 40
0.9393973148271851
 40
1.0
 40
1.0
 40
1.0
 40
1.0
 10
-1.060422729088208
 20
0.2377952755905535
 30
0.0
 10
-1.058497282285474
 20
0.2377703291587774
 30
0.0
 10
-1.05478497699106
 20
0.2377222318700709
 30
0.0
 10
-1.049424761828894
 20
0.2372152036774098
 30
0.0
 10
-1.044483692921354
 20
0.2363972644004455
 30
0.0
 10
-1.039969388306292
 20
0.2352006020080221
 30
0.0
 10
-1.035851255452687
 20
0.2337383687881765
 30
0.0
 10
-1.032115181732811
 20
0.2319909708225266
 30
0.0
 10
-1.028760657259403
 20
0.2299685358579389
 30
0.0
 10
-1.025800497655564
 20
0.227660920479437
 30
0.0
 10
-1.023183618050827
 20
0.2251426185213894
 30
0.0
 10
-1.020987555105926
 20
0.2223218101669729
 30
0.0
 10
-1.019125329181181
 20
0.2192835158071584
 30
0.0
 10
-1.017663845755339
 20
0.2159814090923875
 30
0.0
 10
-1.016555702291787
 20
0.2124806891461921
 30
0.0
 10
-1.015728535415722
 20
0.2087979510622605
 30
0.0
 10
-1.015266734410125
 20
0.2049289406294891
 30
0.0
 10
-1.0152075376287
 20
0.2022867033147535
 30
0.0
 10
-1.015177450644752
 20
0.2009437763893666
 30
0.0
  0
SPLINE
  5
85
330
1F
100
AcDbEntity
  8
0
  6
Continuous
 62
     7
370
    25
100
AcDbSpline
210
0.0
220
0.0
230
1.0
 70
     8
 71
     3
 72
    15
 73
    11
 74
     0
 42
0.000000001
 43
0.00000001
 40
0.0
 40
0.0
 40
0.0
 40
0.0
 40
0.167391854587001
 40
0.3105326767827669
 40
0.4353739153206078
 40
0.5489839509337432
 40
0.6555634230881738
 40
0.7631611935822884
 40
0.8757123458120044
 40
0.9999999999999999
 40
0.9999999999999999
 40
0.9999999999999999
 40
0.9999999999999999
 10
-1.046162665468443
 20
0.1430298199817437
 30
0.0
 10
-1.046878639758901
 20
0.144555384776625
 30
0.0
 10
-1.048206860976548
 20
0.1473854969139747
 30
0.0
 10
-1.050545478407036
 20
0.151101673128744
 30
0.0
 10
-1.052967636570625
 20
0.1540957831665317
 30
0.0
 10
-1.055591383791507
 20
0.1563976286090451
 30
0.0
 10
-1.058453807799819
 20
0.158076930338515
 30
0.0
 10
-1.061573042615093
 20
0.1591634089649329
 30
0.0
 10
-1.064994338242057
 20
0.1597949761642243
 30
0.0
 10
-1.067378258829508
 20
0.1598710615145246
 30
0.0
 10
-1.068629286488641
 20
0.1599109893871984
 30
0.0
  0
SPLINE
  5
19D
330
1F
100
AcDbEntity
  8
0
  6
Continuous
 62
     7
370
    25
100
AcDbSpline
210
0.0
220
0.0
230
1.0
 70
     8
 71
     3
 72
    15
 73
    11
 74
     0
 42
0.000000001
 43
0.00000001
 40
0.0
 40
0.0
 40
0.0
 40
0.0
 40
0.1113525621013503
 40
0.2209309255260302
 40
0.3311251909260297
 40
0.4436491882741528
 40
0.5643761418057444
 40
0.6964797497374345
 40
0.8421079019728906
 40
1.0
 40
1.0
 40
1.0
 40
1.0
 10
-0.4547600707520214
 20
0.1644979245121556
 30
0.0
 10
-0.4538424255396577
 20
0.1641613525435874
 30
0.0
 10
-0.4520217561069461
 20
0.1634935712629538
 30
0.0
 10
-0.4495184766334595
 20
0.1620064953275403
 30
0.0
 10
-0.4471640488495182
 20
0.1602779823071484
 30
0.0
 10
-0.4451050482098785
 20
0.1580689482116778
 30
0.0
 10
-0.4430918929954636
 20
0.155580807936997
 30
0.0
 10
-0.4410963644030398
 20
0.1527138118688596
 30
0.0
 10
-0.4390699354627818
 20
0.1494784322072756
 30
0.0
 10
-0.4377938416253263
 20
0.1471454056074024
 30
0.0
 10
-0.4371300139792267
 20
0.1459317585301858
 30
0.0
  0
SPLINE
  5
19E
330
1F
100
AcDbEntity
  8
0
  6
Continuous
 62
     7
370
    25
100
AcDbSpline
210
0.0
220
0.0
230
1.0
 70
     8
 71
     3
 72
    23
 73
    19
 74
     0
 42
0.000000001
 43
0.00000001
 40
0.0
 40
0.0
 40
0.0
 40
0.0
 40
0.0645442690844637
 40
0.1269342817600562
 40
0.1887265654101719
 40
0.2498083354624792
 40
0.3098390008115383
 40
0.3692223034933692
 40
0.4286832737432363
 40
0.4883798617341072
 40
0.5482501456441775
 40
0.6087657604725561
 40
0.669985895502526
 40
0.73313871426635
 40
0.7970632865401304
 40
0.8628148123436736
 40
0.9303182490782776
 40
0.9999999999999999
 40
0.9999999999999999
 40
0.9999999999999999
 40
0.9999999999999999
 10
-0.4260527216706566
 20
0.2009437763893666
 30
0.0
 10
-0.4260776584130064
 20
0.1998610302113996
 30
0.0
 10
-0.4261266995986068
 20
0.1977316760428855
 30
0.0
 10
-0.4264871582486289
 20
0.1945833367687258
 30
0.0
 10
-0.4270329538700011
 20
0.1915215329416195
 30
0.0
 10
-0.4278507617806874
 20
0.1885604444867506
 30
0.0
 10
-0.428882056122655
 20
0.185711613879269
 30
0.0
 10
-0.4301275593616158
 20
0.1829772960999017
 30
0.0
 10
-0.4316390005438557
 20
0.1803876810281257
 30
0.0
 10
-0.4333498787450253
 20
0.1779157934155521
 30
0.0
 10
-0.4352965559807415
 20
0.1756015529398329
 30
0.0
 10
-0.4374464819057938
 20
0.173437161060659
 30
0.0
 10
-0.4398510696819326
 20
0.1714734364447448
 30
0.0
 10
-0.4424174460388649
 20
0.169628344042241
 30
0.0
 10
-0.4452158052616193
 20
0.1679958090021444
 30
0.0
 10
-0.4482178684029541
 20
0.1666009045445908
 30
0.0
 10
-0.4514083587651526
 20
0.1654009484588501
 30
0.0
 10
-0.4536310688852381
 20
0.1648021021161866
 30
0.0
 10
-0.4547600707520214
 20
0.1644979245121556
 30
0.0
  0
SPLINE
  5
19F
330
1F
100
AcDbEntity
  8
0
  6
Continuous
 62
     7
370
    25
100
AcDbSpline
210
0.0
220
0.0
230
1.0
 70
     8
 71
     3
 72
    23
 73
    19
 74
     0
 42
0.000000001
 43
0.00000001
 40
0.0
 40
0.0
 40
0.0
 40
0.0
 40
0.0868773302242268
 40
0.1675014716055813
 40
0.2427475008353484
 40
0.3126603416393019
 40
0.3779946034993811
 40
0.4397338850261005
 40
0.4985052936180563
 40
0.554376039323623
 40
0.608818446666649
 40
0.6619725906622715
 40
0.7152695750975292
 40
0.7692730547064733
 40
0.8244991354528813
 40
0.8807629267760524
 40
0.9393973148271852
 40
1.0
 40
1.0
 40
1.0
 40
1.0
 10
-0.4712980001141119
 20
0.2377952755905535
 30
0.0
 10
-0.4693725533113791
 20
0.2377703291587774
 30
0.0
 10
-0.4656602480169639
 20
0.2377222318700709
 30
0.0
 10
-0.4603000328547981
 20
0.2372152036774098
 30
0.0
 10
-0.4553589639472586
 20
0.2363972644004455
 30
0.0
 10
-0.4508446593321962
 20
0.2352006020080221
 30
0.0
 10
-0.4467265264785911
 20
0.2337383687881765
 30
0.0
 10
-0.4429904527587157
 20
0.2319909708225266
 30
0.0
 10
-0.4396359282853073
 20
0.2299685358579383
 30
0.0
 10
-0.4366757686814689
 20
0.227660920479437
 30
0.0
 10
-0.4340588890767309
 20
0.2251426185213894
 30
0.0
 10
-0.43186282613183
 20
0.2223218101669729
 30
0.0
 10
-0.4300006002070855
 20
0.2192835158071584
 30
0.0
 10
-0.4285391167812436
 20
0.2159814090923875
 30
0.0
 10
-0.4274309733176913
 20
0.2124806891461921
 30
0.0
 10
-0.4266038064416266
 20
0.2087979510622605
 30
0.0
 10
-0.42614200543603
 20
0.2049289406294891
 30
0.0
 10
-0.4260828086546038
 20
0.2022867033147535
 30
0.0
 10
-0.4260527216706566
 20
0.2009437763893666
 30
0.0
  0
SPLINE
  5
1A5
330
1F
100
AcDbEntity
  8
0
  6
Continuous
 62
     7
370
    25
100
AcDbSpline
210
0.0
220
0.0
230
1.0
 70
     8
 71
     3
 72
    15
 73
    11
 74
     0
 42
0.000000001
 43
0.00000001
 40
0.0
 40
0.0
 40
0.0
 40
0.0
 40
0.1673918545869996
 40
0.3105326767827663
 40
0.4353739153206069
 40
0.548983950933742
 40
0.6555634230881725
 40
0.7631611935822846
 40
0.8757123458120003
 40
1.0
 40
1.0
 40
1.0
 40
1.0
 10
-0.457037936494347
 20
0.1430298199817437
 30
0.0
 10
-0.4577539107848059
 20
0.144555384776625
 30
0.0
 10
-0.4590821320024533
 20
0.1473854969139747
 30
0.0
 10
-0.4614207494329399
 20
0.151101673128744
 30
0.0
 10
-0.4638429075965296
 20
0.1540957831665317
 30
0.0
 10
-0.4664666548174113
 20
0.1563976286090451
 30
0.0
 10
-0.4693290788257237
 20
0.158076930338515
 30
0.0
 10
-0.4724483136409975
 20
0.1591634089649329
 30
0.0
 10
-0.4758696092679612
 20
0.1597949761642243
 30
0.0
 10
-0.4782535298554121
 20
0.1598710615145246
 30
0.0
 10
-0.4795045575145456
 20
0.1599109893871984
 30
0.0
  0
SPLINE
  5
1A9
330
1F
100
AcDbEntity
  8
0
  6
Continuous
 62
     7
370
    25
100
AcDbSpline
210
0.0
220
0.0
230
1.0
 70
     8
 71
     3
 72
    13
 73
     9
 74
     0
 42
0.000000001
 43
0.00000001
 40
0.0
 40
0.0
 40
0.0
 40
0.0
 40
0.2629342745513349
 40
0.5143647563736857
 40
0.6373177871926479
 40
0.7589996230405909
 40
0.8797707883104338
 40
1.0
 40
1.0
 40
1.0
 40
1.0
 10
-0.6883817257217801
 20
0.2397923085701267
 30
0.0
 10
-0.6852785178592157
 20
0.2397363849466923
 30
0.0
 10
-0.6792078724139669
 20
0.2396269844472995
 30
0.0
 10
-0.6717379766349415
 20
0.2386594131917336
 30
0.0
 10
-0.6659833050966527
 20
0.2375907179829861
 30
0.0
 10
-0.6617973074868913
 20
0.2365531888118687
 30
0.0
 10
-0.6576980361609753
 20
0.2353174537540567
 30
0.0
 10
-0.655040340769516
 20
0.2343058660641122
 30
0.0
 10
-0.6537144813420016
 20
0.2338012096314071
 30
0.0
  0
SPLINE
  5
1AA
330
1F
100
AcDbEntity
  8
0
  6
Continuous
 62
     7
370
    25
100
AcDbSpline
210
0.0
220
0.0
230
1.0
 70
     8
 71
     3
 72
    23
 73
    19
 74
     0
 42
0.000000001
 43
0.00000001
 40
0.0
 40
0.0
 40
0.0
 40
0.0
 40
0.0742252771806093
 40
0.1452246251349338
 40
0.2126888929148225
 40
0.2779431301589962
 40
0.3406829667072265
 40
0.4014210807773962
 40
0.4601092411464432
 40
0.5180957302352657
 40
0.5755133445412507
 40
0.6326683894261539
 40
0.6904145715872757
 40
0.7491594371175395
 40
0.8094359727667927
 40
0.8709469375778508
 40
0.934444516344957
 40
1.0
 40
1.0
 40
1.0
 40
1.0
 10
-0.755563163300235
 20
0.1673686594202923
 30
0.0
 10
-0.7555024678537082
 20
0.170127333146628
 30
0.0
 10
-0.7553837148654534
 20
0.1755247849715886
 30
0.0
 10
-0.7544812474678796
 20
0.1833900679844783
 30
0.0
 10
-0.7529452116038206
 20
0.1908124992139485
 30
0.0
 10
-0.7508370679117556
 20
0.1977742913128554
 30
0.0
 10
-0.7481516021129344
 20
0.2042671145221014
 30
0.0
 10
-0.7449239109981638
 20
0.2102288294308235
 30
0.0
 10
-0.741265371827428
 20
0.2157279643367562
 30
0.0
 10
-0.7370630421705995
 20
0.220665252740391
 30
0.0
 10
-0.732403091397576
 20
0.2250893100334057
 30
0.0
 10
-0.7272732422663284
 20
0.2289427310814481
 30
0.0
 10
-0.7217338609541639
 20
0.2322780831593055
 30
0.0
 10
-0.7157336198368759
 20
0.2349849599166853
 30
0.0
 10
-0.7093671570481177
 20
0.2371307545886041
 30
0.0
 10
-0.7026535147373218
 20
0.2387063857857075
 30
0.0
 10
-0.695614477866438
 20
0.2396083569342805
 30
0.0
 10
-0.6908181375575276
 20
0.2397303429540212
 30
0.0
 10
-0.6883817257217801
 20
0.2397923085701267
 30
0.0
  0
SPLINE
  5
1AB
330
1F
100
AcDbEntity
  8
0
  6
Continuous
 62
     7
370
    25
100
AcDbSpline
210
0.0
220
0.0
230
1.0
 70
     8
 71
     3
 72
    23
 73
    19
 74
     0
 42
0.000000001
 43
0.00000001
 40
0.0
 40
0.0
 40
0.0
 40
0.0
 40
0.0664750066251898
 40
0.1298691366212018
 40
0.1909170876040544
 40
0.2499362502088427
 40
0.3075602225872325
 40
0.3634113090814334
 40
0.4192531151601883
 40
0.4749632826029115
 40
0.5313346986072298
 40
0.5892934796499242
 40
0.64949221478871
 40
0.71231145361555
 40
0.778560625297998
 40
0.848196706536843
 40
0.9217767357109493
 40
1.0
 40
1.0
 40
1.0
 40
1.0
 10
-0.6929998644870433
 20
0.098002967020429
 30
0.0
 10
-0.6953533808085525
 20
0.0980531280550512
 30
0.0
 10
-0.6999513364646028
 20
0.0981511253413868
 30
0.0
 10
-0.7066628259656642
 20
0.0990265698258733
 30
0.0
 10
-0.7130222443089903
 20
0.1003732507103399
 30
0.0
 10
-0.719016984529168
 20
0.1023136709441746
 30
0.0
 10
-0.7246033067747505
 20
0.1048037176536766
 30
0.0
 10
-0.7297883303983448
 20
0.1078315234025387
 30
0.0
 10
-0.734542719128152
 20
0.1113887646303163
 30
0.0
 10
-0.7388496023561378
 20
0.1155059837582897
 30
0.0
 10
-0.7426689173853357
 20
0.1201715553884519
 30
0.0
 10
-0.7460740368459218
 20
0.1253417767044432
 30
0.0
 10
-0.7489104831437791
 20
0.1310972686480379
 30
0.0
 10
-0.751379325822659
 20
0.1373328820164521
 30
0.0
 10
-0.7532646567765646
 20
0.1441216175763961
 30
0.0
 10
-0.7545825419444249
 20
0.1514234752990242
 30
0.0
 10
-0.755408797582526
 20
0.1592264134023575
 30
0.0
 10
-0.7555106694036541
 20
0.1645997919104217
 30
0.0
 10
-0.755563163300235
 20
0.1673686594202923
 30
0.0
  0
SPLINE
  5
1AC
330
1F
100
AcDbEntity
  8
0
  6
Continuous
 62
     7
370
    25
100
AcDbSpline
210
0.0
220
0.0
230
1.0
 70
     8
 71
     3
 72
    15
 73
    11
 74
     0
 42
0.000000001
 43
0.00000001
 40
0.0
 40
0.0
 40
0.0
 40
0.0
 40
0.1215533759830856
 40
0.2468730645557066
 40
0.3746714108345274
 40
0.5031073905946045
 40
0.6316150506110909
 40
0.7582927467139837
 40
0.8812578156137546
 40
1.0
 40
1.0
 40
1.0
 40
1.0
 10
-0.6537144813420016
 20
0.1064591535433095
 30
0.0
 10
-0.6552150506769546
 20
0.1057956512310132
 30
0.0
 10
-0.6582626842560476
 20
0.1044480880897046
 30
0.0
 10
-0.6630308383827535
 20
0.1027527636416142
 30
0.0
 10
-0.667971886475831
 20
0.1012990180040711
 30
0.0
 10
-0.6730201064886613
 20
0.1000764357688681
 30
0.0
 10
-0.6781155796927973
 20
0.0991451363271824
 30
0.0
 10
-0.6831795539995081
 20
0.0985076668671308
 30
0.0
 10
-0.6881348396399511
 20
0.0980701656450148
 30
0.0
 10
-0.6913971884469094
 20
0.0980251041376973
 30
0.0
 10
-0.6929998644870433
 20
0.098002967020429
 30
0.0
  0
SPLINE
  5
1B2
330
1F
100
AcDbEntity
  8
0
  6
Continuous
 62
     7
370
    25
100
AcDbSpline
210
0.0
220
0.0
230
1.0
 70
     8
 71
     3
 72
    15
 73
    11
 74
     0
 42
0.000000001
 43
0.00000001
 40
0.0
 40
0.0
 40
0.0
 40
0.0
 40
0.118137707162631
 40
0.2453407520265897
 40
0.3782754322888174
 40
0.5101308509081702
 40
0.6425504600250244
 40
0.7708234786150033
 40
0.8918702657019147
 40
0.9999999999999999
 40
0.9999999999999999
 40
0.9999999999999999
 40
0.9999999999999999
 10
-0.6910652387880817
 20
0.1139792308570148
 30
0.0
 10
-0.6903680998912792
 20
0.1139942042544154
 30
0.0
 10
-0.6889203269040058
 20
0.1140253000380296
 30
0.0
 10
-0.6866932358494549
 20
0.1141895282094225
 30
0.0
 10
-0.6843913816962462
 20
0.1144266185087727
 30
0.0
 10
-0.6820744628532865
 20
0.1147859834421634
 30
0.0
 10
-0.6797897274435442
 20
0.1151712789114959
 30
0.0
 10
-0.6775901929040191
 20
0.1156641481731734
 30
0.0
 10
-0.6755604370537235
 20
0.1162445600119475
 30
0.0
 10
-0.6742860775789027
 20
0.1166982932749592
 30
0.0
 10
-0.6736848111377338
 20
0.1169123730457628
 30
0.0
  0
SPLINE
  5
1B3
330
1F
100
AcDbEntity
  8
0
  6
Continuous
 62
     7
370
    25
100
AcDbSpline
210
0.0
220
0.0
230
1.0
 70
     8
 71
     3
 72
    23
 73
    19
 74
     0
 42
0.000000001
 43
0.00000001
 40
0.0
 40
0.0
 40
0.0
 40
0.0
 40
0.0776967714840032
 40
0.1509619938714882
 40
0.2212415611529964
 40
0.2875559640017784
 40
0.3508859543665407
 40
0.4108762646889429
 40
0.4684338152580947
 40
0.5243810448878414
 40
0.5788733757496386
 40
0.6330758261547907
 40
0.6878469618937095
 40
0.7440192785930991
 40
0.8024561126406577
 40
0.8641267637851896
 40
0.9296015450136524
 40
1.0
 40
1.0
 40
1.0
 40
1.0
 10
-0.735592833504503
 20
0.1688040268743601
 30
0.0
 10
-0.7355639141166578
 20
0.1667125903512858
 30
0.0
 10
-0.7355077248005857
 20
0.1626490054487399
 30
0.0
 10
-0.7350421895331071
 20
0.1567067955965652
 30
0.0
 10
-0.7342237774288551
 20
0.151115204427914
 30
0.0
 10
-0.7331629778934324
 20
0.1458347599858087
 30
0.0
 10
-0.7316994430632053
 20
0.1409368017120629
 30
0.0
 10
-0.7298869197171391
 20
0.1364108757376794
 30
0.0
 10
-0.7277313816502303
 20
0.1322591876153554
 30
0.0
 10
-0.725209758746038
 20
0.1284918107051153
 30
0.0
 10
-0.7222766120716249
 20
0.125153696166839
 30
0.0
 10
-0.7189756254456762
 20
0.1222267029074335
 30
0.0
 10
-0.7152914314353325
 20
0.119721192411158
 30
0.0
 10
-0.7112407454071186
 20
0.1176015879894101
 30
0.0
 10
-0.7067631375087822
 20
0.1159958639215278
 30
0.0
 10
-0.7019043281027907
 20
0.1147998975790363
 30
0.0
 10
-0.6966173522839035
 20
0.1141273289893764
 30
0.0
 10
-0.6929601193203478
 20
0.1140297752610668
 30
0.0
 10
-0.6910652387880817
 20
0.1139792308570148
 30
0.0
  0
SPLINE
  5
1B4
330
1F
100
AcDbEntity
  8
0
  6
Continuous
 62
     7
370
    25
100
AcDbSpline
210
0.0
220
0.0
230
1.0
 70
     8
 71
     3
 72
    23
 73
    19
 74
     0
 42
0.000000001
 43
0.00000001
 40
0.0
 40
0.0
 40
0.0
 40
0.0
 40
0.0670981242722609
 40
0.1309759062433328
 40
0.1922163869542914
 40
0.251769808319032
 40
0.30968471942135
 40
0.3665125233135306
 40
0.4235187108853606
 40
0.4803720324276329
 40
0.5380321837013047
 40
0.5972742619708016
 40
0.6584306056386224
 40
0.7220421674016113
 40
0.7879120315897785
 40
0.8559727583910858
 40
0.9264611901366911
 40
1.0
 40
1.0
 40
1.0
 40
1.0
 10
-0.6882569111605569
 20
0.223816044733541
 30
0.0
 10
-0.6900905037430431
 20
0.2237717767206384
 30
0.0
 10
-0.6936696865112187
 20
0.2236853653168864
 30
0.0
 10
-0.6988724145474817
 20
0.2229052737907643
 30
0.0
 10
-0.7037846175098909
 20
0.2217195363889785
 30
0.0
 10
-0.7083472943604945
 20
0.2199497688583811
 30
0.0
 10
-0.7125832948763057
 20
0.2177597881542281
 30
0.0
 10
-0.7164920058761471
 20
0.2151482228619024
 30
0.0
 10
-0.7200507709474386
 20
0.2121201465826137
 30
0.0
 10
-0.7232486226360781
 20
0.2086857102599208
 30
0.0
 10
-0.7261200739197855
 20
0.2048938489711037
 30
0.0
 10
-0.7285579144677111
 20
0.2006766564875395
 30
0.0
 10
-0.7307407661411983
 20
0.1961427231349774
 30
0.0
 10
-0.7324922915483778
 20
0.1912318060264001
 30
0.0
 10
-0.733918624478646
 20
0.1860208219964292
 30
0.0
 10
-0.7348356763666807
 20
0.1805087004837198
 30
0.0
 10
-0.735512799462881
 20
0.1747494184818446
 30
0.0
 10
-0.7355657814523578
 20
0.1708136098034392
 30
0.0
 10
-0.735592833504503
 20
0.1688040268743601
 30
0.0
  0
SPLINE
  5
1B5
330
1F
100
AcDbEntity
  8
0
  6
Continuous
 62
     7
370
    25
100
AcDbSpline
210
0.0
220
0.0
230
1.0
 70
     8
 71
     3
 72
    13
 73
     9
 74
     0
 42
0.000000001
 43
0.00000001
 40
0.0
 40
0.0
 40
0.0
 40
0.0
 40
0.243243211595846
 40
0.4850313067569414
 40
0.6072204693392954
 40
0.7333344144511423
 40
0.8647086109366648
 40
1.0
 40
1.0
 40
1.0
 40
1.0
 10
-0.6537144813420017
 20
0.2158279128152481
 30
0.0
 10
-0.6563655894644477
 20
0.2170070404202294
 30
0.0
 10
-0.6616519463931678
 20
0.219358241916563
 30
0.0
 10
-0.6685986316302903
 20
0.2214685314332284
 30
0.0
 10
-0.6743149493246365
 20
0.2226872893736486
 30
0.0
 10
-0.6787971510445554
 20
0.2233332868539095
 30
0.0
 10
-0.6834642242983776
 20
0.2237551452849456
 30
0.0
 10
-0.6866437801443446
 20
0.2237955470894793
 30
0.0
 10
-0.688256911160557
 20
0.223816044733541
 30
0.0
  0
SPLINE
  5
1BB
330
1F
100
AcDbEntity
  8
0
  6
Continuous
 62
     7
370
    25
100
AcDbSpline
210
0.0
220
0.0
230
1.0
 70
     8
 71
     3
 72
    23
 73
    19
 74
     0
 42
0.000000001
 43
0.00000001
 40
0.0
 40
0.0
 40
0.0
 40
0.0
 40
0.0883185412756538
 40
0.1707628188520271
 40
0.248112949730216
 40
0.3205380252872241
 40
0.3887318452674178
 40
0.4528948993793667
 40
0.5138277762110269
 40
0.571810341457378
 40
0.6276941631943728
 40
0.6821529786681606
 40
0.7350705858118187
 40
0.7879872864828266
 40
0.8409148638009991
 40
0.8934284582672505
 40
0.9463433459463716
 40
1.0
 40
1.0
 40
1.0
 40
1.0
 10
-1.226862946479512
 20
0.1682111577085493
 30
0.0
 10
-1.226806946726605
 20
0.1711771634559756
 30
0.0
 10
-1.226698671889598
 20
0.1769118992752746
 30
0.0
 10
-1.22592846973612
 20
0.1852172394620369
 30
0.0
 10
-1.224603619735754
 20
0.1929108485566036
 30
0.0
 10
-1.22273118253389
 20
0.1999972047350865
 30
0.0
 10
-1.220385788632407
 20
0.2064709934677174
 30
0.0
 10
-1.217666727386244
 20
0.2123725018342495
 30
0.0
 10
-1.214600488175313
 20
0.2177151909368988
 30
0.0
 10
-1.211072871106412
 20
0.2224246338483408
 30
0.0
 10
-1.207211695498288
 20
0.2265645898030073
 30
0.0
 10
-1.203074655541991
 20
0.2301826701667105
 30
0.0
 10
-1.198579614332063
 20
0.2331683127219804
 30
0.0
 10
-1.193830211662729
 20
0.2356165873150031
 30
0.0
 10
-1.188832816810421
 20
0.2374659800444279
 30
0.0
 10
-1.183684993878799
 20
0.2388314414663401
 30
0.0
 10
-1.178386169865305
 20
0.2396156932480061
 30
0.0
 10
-1.174807335377277
 20
0.2397331642529041
 30
0.0
 10
-1.173005463311647
 20
0.2397923085701267
 30
0.0
  0
SPLINE
  5
1BC
330
1F
100
AcDbEntity
  8
0
  6
Continuous
 62
     7
370
    25
100
AcDbSpline
210
0.0
220
0.0
230
1.0
 70
     8
 71
     3
 72
    23
 73
    19
 74
     0
 42
0.000000001
 43
0.00000001
 40
0.0
 40
0.0
 40
0.0
 40
0.0
 40
0.0643822159306435
 40
0.1249677463958894
 40
0.1827770043240016
 40
0.2383292134073831
 40
0.2928323044691568
 40
0.3464198064162142
 40
0.4005873274742639
 40
0.4559702502306639
 40
0.5129066301956675
 40
0.5725400029265809
 40
0.6348907650354868
 40
0.7007484886169254
 40
0.7702344352114289
 40
0.843078362490546
 40
0.9195964992924065
 40
1.0
 40
1.0
 40
1.0
 40
1.0
 10
-1.175096107212138
 20
0.098002967020429
 30
0.0
 10
-1.177221445153816
 20
0.0980609794170948
 30
0.0
 10
-1.181346787673671
 20
0.098173583159751
 30
0.0
 10
-1.187322785406138
 20
0.0990987154438395
 30
0.0
 10
-1.192879826241658
 20
0.1005802848769713
 30
0.0
 10
-1.198023067047509
 20
0.1026829539283466
 30
0.0
 10
-1.202712295572388
 20
0.1053877147689222
 30
0.0
 10
-1.207017007314333
 20
0.108595008451983
 30
0.0
 10
-1.210868805639196
 20
0.112377179466196
 30
0.0
 10
-1.214313320934755
 20
0.1166724083820402
 30
0.0
 10
-1.217323662636843
 20
0.1214966354404977
 30
0.0
 10
-1.219898637322282
 20
0.1268196034871318
 30
0.0
 10
-1.222087760211706
 20
0.1326268269072154
 30
0.0
 10
-1.223851125552115
 20
0.1389146101157211
 30
0.0
 10
-1.225213178944668
 20
0.1456538256611261
 30
0.0
 10
-1.226156829963873
 20
0.1528167688635567
 30
0.0
 10
-1.226771588043597
 20
0.1603786793942901
 30
0.0
 10
-1.226831995109919
 20
0.1655575885147675
 30
0.0
 10
-1.226862946479512
 20
0.1682111577085493
 30
0.0
  0
SPLINE
  5
1BD
330
1F
100
AcDbEntity
  8
0
  6
Continuous
 62
     7
370
    25
100
AcDbSpline
210
0.0
220
0.0
230
1.0
 70
     8
 71
     3
 72
    23
 73
    19
 74
     0
 42
0.000000001
 43
0.00000001
 40
0.0
 40
0.0
 40
0.0
 40
0.0
 40
0.0889426733846293
 40
0.1717495496105862
 40
0.2491397580278965
 40
0.3216955151105373
 40
0.3897623480778743
 40
0.4537064033341816
 40
0.5145872295454171
 40
0.5726195224083512
 40
0.628312603645557
 40
0.6821501603003117
 40
0.7354013723096049
 40
0.7884122765523391
 40
0.8411592035098779
 40
0.8937922041332548
 40
0.9465264847635289
 40
1.0
 40
1.0
 40
1.0
 40
1.0
 10
-1.121020198562132
 20
0.1698025433641467
 30
0.0
 10
-1.121071986089019
 20
0.166804943659244
 30
0.0
 10
-1.121171988529691
 20
0.1610165365916539
 30
0.0
 10
-1.121995722244575
 20
0.1526531472440198
 30
0.0
 10
-1.123301948901212
 20
0.1449116740855356
 30
0.0
 10
-1.125207733457515
 20
0.1378042619526055
 30
0.0
 10
-1.127599965670263
 20
0.1313323553274716
 30
0.0
 10
-1.130299769525624
 20
0.1254107495729566
 30
0.0
 10
-1.133423238502201
 20
0.1200866286135169
 30
0.0
 10
-1.136922066987034
 20
0.1153402588673523
 30
0.0
 10
-1.140788614446075
 20
0.1112126706789616
 30
0.0
 10
-1.144921272708436
 20
0.1075842378198149
 30
0.0
 10
-1.149456912803866
 20
0.1046362495018913
 30
0.0
 10
-1.154232182281512
 20
0.1021845818079066
 30
0.0
 10
-1.15924621363716
 20
0.1003227641094399
 30
0.0
 10
-1.164407443472455
 20
0.0989685827353945
 30
0.0
 10
-1.169715184978811
 20
0.0981787504573753
 30
0.0
 10
-1.17329416292046
 20
0.0980618327588736
 30
0.0
 10
-1.175096107212138
 20
0.098002967020429
 30
0.0
  0
SPLINE
  5
1BE
330
1F
100
AcDbEntity
  8
0
  6
Continuous
 62
     7
370
    25
100
AcDbSpline
210
0.0
220
0.0
230
1.0
 70
     8
 71
     3
 72
    23
 73
    19
 74
     0
 42
0.000000001
 43
0.00000001
 40
0.0
 40
0.0
 40
0.0
 40
0.0
 40
0.064487547066419
 40
0.1254843373721438
 40
0.1831673823408932
 40
0.2389312773785308
 40
0.2935235370469105
 40
0.3476407773461531
 40
0.4016769044177252
 40
0.4571504352103989
 40
0.5140819907875338
 40
0.5738104218972511
 40
0.635967988225267
 40
0.7017169949564626
 40
0.7710712621534349
 40
0.8434520464853933
 40
0.9197806054801805
 40
1.0
 40
1.0
 40
1.0
 40
1.0
 10
-1.173005463311647
 20
0.2397923085701267
 30
0.0
 10
-1.170880480995043
 20
0.2397325115658669
 30
0.0
 10
-1.166745543165076
 20
0.2396161544116921
 30
0.0
 10
-1.160761821072099
 20
0.2387131846950023
 30
0.0
 10
-1.155210306242886
 20
0.2371772451248881
 30
0.0
 10
-1.150085789941262
 20
0.2350447814077264
 30
0.0
 10
-1.145373138030938
 20
0.2323425155380544
 30
0.0
 10
-1.141077554465977
 20
0.2291125049990436
 30
0.0
 10
-1.137188538308518
 20
0.225358377756445
 30
0.0
 10
-1.133768202813565
 20
0.2210556718986163
 30
0.0
 10
-1.130720899949613
 20
0.2162635022978681
 30
0.0
 10
-1.128063285673204
 20
0.2109930527012696
 30
0.0
 10
-1.125900616945812
 20
0.2051928500171024
 30
0.0
 10
-1.124089160023753
 20
0.1989462830555474
 30
0.0
 10
-1.122707133258577
 20
0.1922456786101739
 30
0.0
 10
-1.121714155102034
 20
0.1851272884040044
 30
0.0
 10
-1.121114603329558
 20
0.1776034516950074
 30
0.0
 10
-1.121052183940798
 20
0.1724455773306181
 30
0.0
 10
-1.121020198562132
 20
0.1698025433641467
 30
0.0
  0
SPLINE
  5
1C2
330
1F
100
AcDbEntity
  8
0
  6
Continuous
 62
     7
370
    25
100
AcDbSpline
210
0.0
220
0.0
230
1.0
 70
     8
 71
     3
 72
    23
 73
    19
 74
     0
 42
0.000000001
 43
0.00000001
 40
0.0
 40
0.0
 40
0.0
 40
0.0
 40
0.0710054063752104
 40
0.137576215210735
 40
0.2003032527046567
 40
0.2604031925983386
 40
0.3177152079427064
 40
0.3738306474914118
 40
0.4294997037542654
 40
0.4848811865589577
 40
0.5408363383570456
 40
0.5986108345938554
 40
0.6580876144125944
 40
0.7194853567469314
 40
0.7841756976171746
 40
0.8520284023422333
 40
0.9241032974735306
 40
1.0
 40
1.0
 40
1.0
 40
1.0
 10
-1.035147780440484
 20
0.199602019856216
 30
0.0
 10
-1.035162390017839
 20
0.2005078256548018
 30
0.0
 10
-1.035190696740677
 20
0.2022628657263547
 30
0.0
 10
-1.035504005964106
 20
0.2048033443808123
 30
0.0
 10
-1.036040131049675
 20
0.2071620512951767
 30
0.0
 10
-1.036754297924537
 20
0.2093477342539925
 30
0.0
 10
-1.037646573587497
 20
0.2113809859287741
 30
0.0
 10
-1.038829943641843
 20
0.2131917295660197
 30
0.0
 10
-1.040165642287015
 20
0.2148577380803881
 30
0.0
 10
-1.041708499163146
 20
0.2163353878188636
 30
0.0
 10
-1.043446063314302
 20
0.2176208325944503
 30
0.0
 10
-1.04535517690392
 20
0.2187380477483547
 30
0.0
 10
-1.04741814063572
 20
0.2197120201901772
 30
0.0
 10
-1.049655143149733
 20
0.2204980527789678
 30
0.0
 10
-1.052063300147285
 20
0.2210727109985401
 30
0.0
 10
-1.054635898529425
 20
0.2215207477648446
 30
0.0
 10
-1.057381100372093
 20
0.2217589452595275
 30
0.0
 10
-1.059267795117195
 20
0.2217986477772161
 30
0.0
 10
-1.060235507246373
 20
0.2218190117539677
 30
0.0
  0
SPLINE
  5
1C3
330
1F
100
AcDbEntity
  8
0
  6
Continuous
 62
     7
370
    25
100
AcDbSpline
210
0.0
220
0.0
230
1.0
 70
     8
 71
     3
 72
    23
 73
    19
 74
     0
 42
0.000000001
 43
0.00000001
 40
0.0
 40
0.0
 40
0.0
 40
0.0
 40
0.0751634739249805
 40
0.1468242857502609
 40
0.2147004565817477
 40
0.2804081309117747
 40
0.3432989837089108
 40
0.403724026895864
 40
0.4619008746627827
 40
0.5192753134656093
 40
0.5756421721734666
 40
0.6321926367705145
 40
0.6886003484344213
 40
0.746295093641184
 40
0.8063376960038239
 40
0.8679986302426627
 40
0.9323916198461174
 40
1.0
 40
1.0
 40
1.0
 40
1.0
 10
-1.062638187549922
 20
0.1758872532237842
 30
0.0
 10
-1.061608041375663
 20
0.1759056641437698
 30
0.0
 10
-1.059595754444849
 20
0.1759416280240404
 30
0.0
 10
-1.056660328511135
 20
0.1762083595800756
 30
0.0
 10
-1.053894900373386
 20
0.1767345821954185
 30
0.0
 10
-1.051272031388506
 20
0.1773568869024446
 30
0.0
 10
-1.048829881246676
 20
0.1782394792147156
 30
0.0
 10
-1.046580948297627
 20
0.1793072566246302
 30
0.0
 10
-1.044487387177499
 20
0.1805162040914697
 30
0.0
 10
-1.04262424279197
 20
0.1819677512145129
 30
0.0
 10
-1.040916003666904
 20
0.1835638954257202
 30
0.0
 10
-1.039420934604045
 20
0.1853458205342761
 30
0.0
 10
-1.038120343843769
 20
0.1872974605861769
 30
0.0
 10
-1.037070295138055
 20
0.1894454358408229
 30
0.0
 10
-1.036173588478522
 20
0.1917416911162581
 30
0.0
 10
-1.035609224512636
 20
0.1942350411157836
 30
0.0
 10
-1.035211511526535
 20
0.1968641314934589
 30
0.0
 10
-1.035169366337442
 20
0.1986746894160418
 30
0.0
 10
-1.035147780440484
 20
0.199602019856216
 30
0.0
  0
SPLINE
  5
1C4
330
1F
100
AcDbEntity
  8
0
  6
Continuous
 62
     7
370
    25
100
AcDbSpline
210
0.0
220
0.0
230
1.0
 70
     8
 71
     3
 72
    23
 73
    19
 74
     0
 42
0.000000001
 43
0.00000001
 40
0.0
 40
0.0
 40
0.0
 40
0.0
 40
0.0710054063752104
 40
0.137576215210735
 40
0.2003032527046571
 40
0.2604031925983384
 40
0.3177152079427062
 40
0.3738306474914107
 40
0.4294997037542642
 40
0.4848811865589578
 40
0.5408363383570471
 40
0.5986108345938554
 40
0.6580876144125944
 40
0.7194853567469314
 40
0.7841756976171746
 40
0.852028402342235
 40
0.9241032974735323
 40
0.9999999999999999
 40
0.9999999999999999
 40
0.9999999999999999
 40
0.9999999999999999
 10
-0.4460230514663885
 20
0.199602019856216
 30
0.0
 10
-0.4460376610437433
 20
0.2005078256548018
 30
0.0
 10
-0.4460659677665815
 20
0.2022628657263547
 30
0.0
 10
-0.44637927699001
 20
0.2048033443808123
 30
0.0
 10
-0.4469154020755792
 20
0.2071620512951767
 30
0.0
 10
-0.4476295689504415
 20
0.2093477342539931
 30
0.0
 10
-0.4485218446134015
 20
0.2113809859287741
 30
0.0
 10
-0.4497052146677477
 20
0.2131917295660197
 30
0.0
 10
-0.451040913312919
 20
0.2148577380803881
 30
0.0
 10
-0.4525837701890508
 20
0.2163353878188636
 30
0.0
 10
-0.4543213343402057
 20
0.2176208325944503
 30
0.0
 10
-0.456230447929825
 20
0.2187380477483553
 30
0.0
 10
-0.4582934116616241
 20
0.2197120201901772
 30
0.0
 10
-0.4605304141756374
 20
0.2204980527789678
 30
0.0
 10
-0.4629385711731891
 20
0.2210727109985401
 30
0.0
 10
-0.4655111695553297
 20
0.2215207477648446
 30
0.0
 10
-0.4682563713979969
 20
0.2217589452595275
 30
0.0
 10
-0.470143066143099
 20
0.2217986477772161
 30
0.0
 10
-0.471110778272277
 20
0.2218190117539677
 30
0.0
  0
SPLINE
  5
1C8
330
1F
100
AcDbEntity
  8
0
  6
Continuous
 62
     7
370
    25
100
AcDbSpline
210
0.0
220
0.0
230
1.0
 70
     8
 71
     3
 72
    23
 73
    19
 74
     0
 42
0.000000001
 43
0.00000001
 40
0.0
 40
0.0
 40
0.0
 40
0.0
 40
0.0751634739249805
 40
0.1468242857502607
 40
0.2147004565817476
 40
0.2804081309117761
 40
0.343298983708909
 40
0.4037240268958651
 40
0.4619008746627824
 40
0.5192753134656102
 40
0.5756421721734675
 40
0.6321926367705153
 40
0.6886003484344203
 40
0.7462950936411845
 40
0.8063376960038237
 40
0.8679986302426624
 40
0.9323916198461175
 40
1.0
 40
1.0
 40
1.0
 40
1.0
 10
-0.4735134585758261
 20
0.1758872532237842
 30
0.0
 10
-0.4724833124015679
 20
0.1759056641437703
 30
0.0
 10
-0.4704710254707536
 20
0.1759416280240409
 30
0.0
 10
-0.4675355995370394
 20
0.1762083595800756
 30
0.0
 10
-0.4647701713992904
 20
0.1767345821954185
 30
0.0
 10
-0.4621473024144103
 20
0.1773568869024446
 30
0.0
 10
-0.4597051522725807
 20
0.1782394792147156
 30
0.0
 10
-0.457456219323531
 20
0.1793072566246296
 30
0.0
 10
-0.4553626582034031
 20
0.1805162040914697
 30
0.0
 10
-0.4534995138178736
 20
0.1819677512145124
 30
0.0
 10
-0.4517912746928088
 20
0.1835638954257202
 30
0.0
 10
-0.4502962056299494
 20
0.1853458205342761
 30
0.0
 10
-0.4489956148696729
 20
0.1872974605861769
 30
0.0
 10
-0.4479455661639589
 20
0.1894454358408229
 30
0.0
 10
-0.447048859504427
 20
0.1917416911162581
 30
0.0
 10
-0.4464844955385404
 20
0.1942350411157836
 30
0.0
 10
-0.4460867825524391
 20
0.1968641314934589
 30
0.0
 10
-0.4460446373633462
 20
0.1986746894160418
 30
0.0
 10
-0.4460230514663885
 20
0.199602019856216
 30
0.0
  0
SPLINE
  5
1C9
330
1F
100
AcDbEntity
  8
0
  6
Continuous
 62
     7
370
    25
100
AcDbSpline
210
0.0
220
0.0
230
1.0
 70
     8
 71
     3
 72
    23
 73
    19
 74
     0
 42
0.000000001
 43
0.00000001
 40
0.0
 40
0.0
 40
0.0
 40
0.0
 40
0.0827295999635539
 40
0.1621119095966076
 40
0.2379431615962191
 40
0.3106867198481632
 40
0.3797986252255637
 40
0.4452446647606604
 40
0.5072619480488614
 40
0.5662172357349567
 40
0.6225206623707633
 40
0.6762106296450343
 40
0.7289168486551366
 40
0.7803543119827251
 40
0.8322014416117156
 40
0.8852026014625368
 40
0.940881252924771
 40
0.9999999999999999
 40
0.9999999999999999
 40
0.9999999999999999
 40
0.9999999999999999
 10
-1.140990528357864
 20
0.1684607868309961
 30
0.0
 10
-1.141020729660879
 20
0.1704579891060306
 30
0.0
 10
-1.141079910303674
 20
0.1743715856277005
 30
0.0
 10
-1.141359583091963
 20
0.180112986737851
 30
0.0
 10
-1.141984746460303
 20
0.1855835851626085
 30
0.0
 10
-1.142733796085762
 20
0.1907869444469676
 30
0.0
 10
-1.14374746339859
 20
0.1956934339119661
 30
0.0
 10
-1.145066811076602
 20
0.2002561895915723
 30
0.0
 10
-1.146599748379833
 20
0.2044940375902821
 30
0.0
 10
-1.148480528902886
 20
0.2083486817683011
 30
0.0
 10
-1.150633481565171
 20
0.2118200059858298
 30
0.0
 10
-1.153041443860646
 20
0.2149379307455118
 30
0.0
 10
-1.155801148690656
 20
0.2175840629082666
 30
0.0
 10
-1.158828822019961
 20
0.2198412783293583
 30
0.0
 10
-1.162163261485883
 20
0.2216404401059038
 30
0.0
 10
-1.165833381870923
 20
0.2229313275235275
 30
0.0
 10
-1.169833709657717
 20
0.2236817026042712
 30
0.0
 10
-1.172606990187423
 20
0.223770378252526
 30
0.0
 10
-1.17403518344174
 20
0.223816044733541
 30
0.0
  0
SPLINE
  5
1CA
330
1F
100
AcDbEntity
  8
0
  6
Continuous
 62
     7
370
    25
100
AcDbSpline
210
0.0
220
0.0
230
1.0
 70
     8
 71
     3
 72
    23
 73
    19
 74
     0
 42
0.000000001
 43
0.00000001
 40
0.0
 40
0.0
 40
0.0
 40
0.0
 40
0.0586315032822169
 40
0.1142681412147298
 40
0.1680141608110725
 40
0.2208233746572739
 40
0.2740594618699005
 40
0.3278720288932255
 40
0.3836527786950402
 40
0.4412825860505797
 40
0.5016807332274332
 40
0.5644906004225343
 40
0.6310115398627064
 40
0.7005718525414804
 40
0.7728075618617453
 40
0.8467334484330004
 40
0.9221297708678089
 40
1.0
 40
1.0
 40
1.0
 40
1.0
 10
-1.17403518344174
 20
0.223816044733541
 30
0.0
 10
-1.175421686711015
 20
0.223758336666914
 30
0.0
 10
-1.178123871415467
 20
0.2236458682303674
 30
0.0
 10
-1.182044388161114
 20
0.222878967591237
 30
0.0
 10
-1.185634261679697
 20
0.2214782961290132
 30
0.0
 10
-1.188915998784663
 20
0.2195793870910356
 30
0.0
 10
-1.19189323043322
 20
0.2172267222843586
 30
0.0
 10
-1.194549183123219
 20
0.2144272466523635
 30
0.0
 10
-1.197001431136152
 20
0.211315943575345
 30
0.0
 10
-1.199126661967323
 20
0.2077846027248035
 30
0.0
 10
-1.200929669406393
 20
0.2039030568025549
 30
0.0
 10
-1.202595057889759
 20
0.1997313661717067
 30
0.0
 10
-1.203887194909076
 20
0.1952035476696997
 30
0.0
 10
-1.20503051280455
 20
0.1904097294639173
 30
0.0
 10
-1.205848834242487
 20
0.1853700085211765
 30
0.0
 10
-1.206429052215526
 20
0.1801621018925119
 30
0.0
 10
-1.206826356737538
 20
0.1748012029588223
 30
0.0
 10
-1.206870293636879
 20
0.1711762306320951
 30
0.0
 10
-1.20689261668378
 20
0.1693344887595596
 30
0.0
  0
SPLINE
  5
1CB
330
1F
100
AcDbEntity
  8
0
  6
Continuous
 62
     7
370
    25
100
AcDbSpline
210
0.0
220
0.0
230
1.0
 70
     8
 71
     3
 72
    23
 73
    19
 74
     0
 42
0.000000001
 43
0.00000001
 40
0.0
 40
0.0
 40
0.0
 40
0.0
 40
0.0837837865740338
 40
0.1633737810051992
 40
0.2401936209728498
 40
0.3131701281876137
 40
0.3825315346574282
 40
0.4477136714610441
 40
0.5094692673622434
 40
0.5683725021777567
 40
0.624211297307766
 40
0.6780250935914044
 40
0.7302423316221456
 40
0.781711566987076
 40
0.8330937936507294
 40
0.8862171938651232
 40
0.9411759468775145
 40
1.0
 40
1.0
 40
1.0
 40
1.0
 10
-1.20689261668378
 20
0.1693344887595596
 30
0.0
 10
-1.206868081034056
 20
0.1673160926052035
 30
0.0
 10
-1.206820237865005
 20
0.1633803309884604
 30
0.0
 10
-1.206463639906195
 20
0.1576033424129365
 30
0.0
 10
-1.205925047857638
 20
0.1521021220837874
 30
0.0
 10
-1.205114923672126
 20
0.1468824692522498
 30
0.0
 10
-1.20407072714345
 20
0.1419904162300142
 30
0.0
 10
-1.202758993095116
 20
0.137443001429052
 30
0.0
 10
-1.201206376845921
 20
0.1332396765486887
 30
0.0
 10
-1.199382242343835
 20
0.1293901316770127
 30
0.0
 10
-1.197240833880619
 20
0.1259330481506825
 30
0.0
 10
-1.19485404417949
 20
0.1228334545130401
 30
0.0
 10
-1.192092826291971
 20
0.1202176590633302
 30
0.0
 10
-1.189138194691964
 20
0.1179130680948536
 30
0.0
 10
-1.185795691349731
 20
0.1161565344079429
 30
0.0
 10
-1.182163489539948
 20
0.1148716952250582
 30
0.0
 10
-1.178195833464956
 20
0.1141102810890392
 30
0.0
 10
-1.175453124183161
 20
0.1140238924993355
 30
0.0
 10
-1.17403518344174
 20
0.1139792308570148
 30
0.0
  0
SPLINE
  5
1CC
330
1F
100
AcDbEntity
  8
0
  6
Continuous
 62
     7
370
    25
100
AcDbSpline
210
0.0
220
0.0
230
1.0
 70
     8
 71
     3
 72
    23
 73
    19
 74
     0
 42
0.000000001
 43
0.00000001
 40
0.0
 40
0.0
 40
0.0
 40
0.0
 40
0.0585566710462224
 40
0.1137809323391004
 40
0.1673017532540759
 40
0.2204245097997608
 40
0.2739381196097579
 40
0.3279881077179524
 40
0.3836976637416857
 40
0.4414831093918348
 40
0.5021868200553873
 40
0.5649165221081722
 40
0.6310585614994579
 40
0.7000031420415314
 40
0.7722201714817919
 40
0.8460517053743598
 40
0.9217899981312708
 40
1.0
 40
1.0
 40
1.0
 40
1.0
 10
-1.17403518344174
 20
0.1139792308570148
 30
0.0
 10
-1.172647445973331
 20
0.1140315327897093
 30
0.0
 10
-1.169950945981505
 20
0.1141331601971218
 30
0.0
 10
-1.166058935988642
 20
0.1149705830323054
 30
0.0
 10
-1.162453466270213
 20
0.1163132466905239
 30
0.0
 10
-1.159155828813127
 20
0.1182175065848594
 30
0.0
 10
-1.156148326293043
 20
0.1205681107637127
 30
0.0
 10
-1.153457544584501
 20
0.1233572781737977
 30
0.0
 10
-1.151007936677336
 20
0.126487570225999
 30
0.0
 10
-1.148857412120908
 20
0.1300167680431684
 30
0.0
 10
-1.146967584160949
 20
0.1338750180098215
 30
0.0
 10
-1.145341916593698
 20
0.1380640086143679
 30
0.0
 10
-1.143971234009815
 20
0.1425479934565683
 30
0.0
 10
-1.14290501027017
 20
0.1473423523984893
 30
0.0
 10
-1.142019613377404
 20
0.1523582535235621
 30
0.0
 10
-1.141456491749799
 20
0.1575818363513341
 30
0.0
 10
-1.141055986666603
 20
0.1629627224780705
 30
0.0
 10
-1.141012580098104
 20
0.1666085867166355
 30
0.0
 10
-1.140990528357864
 20
0.1684607868309961
 30
0.0
  0
LINE
  5
1D3
330
1F
100
AcDbEntity
  8
0
  6
Continuous
 62
     7
370
    25
100
AcDbLine
 10
-1.2468332763
 20
0.2338012096
 30
0.0
 11
-1.2468332763
 21
0.2158279128
 31
0.0
  0
LINE
  5
1D4
330
1F
100
AcDbEntity
  8
0
  6
Continuous
 62
     7
370
    25
100
AcDbLine
 10
-1.2468332763
 20
0.1219673628
 30
0.0
 11
-1.2468332763
 21
0.103994066
 31
0.0
  0
LINE
  5
1D5
330
1F
100
AcDbEntity
  8
0
  6
Continuous
 62
     7
370
    25
100
AcDbLine
 10
-1.0970558028
 20
0.2377952756
 30
0.0
 11
-1.0604227291
 21
0.2377952756
 31
0.0
  0
LINE
  5
1D6
330
1F
100
AcDbEntity
  8
0
  6
Continuous
 62
     7
370
    25
100
AcDbLine
 10
-1.0970558028
 20
0.1
 30
0.0
 11
-1.0970558028
 21
0.2377952756
 31
0.0
  0
LINE
  5
1D7
330
1F
100
AcDbEntity
  8
0
  6
Continuous
 62
     7
370
    25
100
AcDbLine
 10
-1.077085473
 20
0.1
 30
0.0
 11
-1.0970558028
 21
0.1
 31
0.0
  0
LINE
  5
1D8
330
1F
100
AcDbEntity
  8
0
  6
Continuous
 62
     7
370
    25
100
AcDbLine
 10
-1.077085473
 20
0.1599109894
 30
0.0
 11
-1.077085473
 21
0.1
 31
0.0
  0
LINE
  5
1D9
330
1F
100
AcDbEntity
  8
0
  6
Continuous
 62
     7
370
    25
100
AcDbLine
 10
-1.0686292865
 20
0.1599109894
 30
0.0
 11
-1.077085473
 21
0.1599109894
 31
0.0
  0
LINE
  5
1DA
330
1F
100
AcDbEntity
  8
0
  6
Continuous
 62
     7
370
    25
100
AcDbLine
 10
-1.0263483539
 20
0.1
 30
0.0
 11
-1.0461626655
 21
0.14302982
 31
0.0
  0
LINE
  5
1DB
330
1F
100
AcDbEntity
  8
0
  6
Continuous
 62
     7
370
    25
100
AcDbLine
 10
-1.0051922857
 20
0.1
 30
0.0
 11
-1.0263483539
 21
0.1
 31
0.0
  0
LINE
  5
1DC
330
1F
100
AcDbEntity
  8
0
  6
Continuous
 62
     7
370
    25
100
AcDbLine
 10
-1.026254743
 20
0.1459317585
 30
0.0
 11
-1.0051922857
 21
0.1
 31
0.0
  0
LINE
  5
1DD
330
1F
100
AcDbEntity
  8
0
  6
Continuous
 62
     7
370
    25
100
AcDbLine
 10
-0.8325737476
 20
0.2377952756
 30
0.0
 11
-0.8068931516
 21
0.2377952756
 31
0.0
  0
LINE
  5
1DE
330
1F
100
AcDbEntity
  8
0
  6
Continuous
 62
     7
370
    25
100
AcDbLine
 10
-0.8783806915
 20
0.1
 30
0.0
 11
-0.8325737476
 21
0.2377952756
 31
0.0
  0
LINE
  5
1DF
330
1F
100
AcDbEntity
  8
0
  6
Continuous
 62
     7
370
    25
100
AcDbLine
 10
-0.85890962
 20
0.1
 30
0.0
 11
-0.8783806915
 21
0.1
 31
0.0
  0
LINE
  5
1E0
330
1F
100
AcDbEntity
  8
0
  6
Continuous
 62
     7
370
    25
100
AcDbLine
 10
-0.849454917
 20
0.1299554947
 30
0.0
 11
-0.85890962
 21
0.1
 31
0.0
  0
LINE
  5
1E1
330
1F
100
AcDbEntity
  8
0
  6
Continuous
 62
     7
370
    25
100
AcDbLine
 10
-0.7922274407
 20
0.1299554947
 30
0.0
 11
-0.849454917
 21
0.1299554947
 31
0.0
  0
LINE
  5
1E2
330
1F
100
AcDbEntity
  8
0
  6
Continuous
 62
     7
370
    25
100
AcDbLine
 10
-0.7829911631
 20
0.1
 30
0.0
 11
-0.7922274407
 21
0.1299554947
 31
0.0
  0
LINE
  5
1E3
330
1F
100
AcDbEntity
  8
0
  6
Continuous
 62
     7
370
    25
100
AcDbLine
 10
-0.7625527787
 20
0.1
 30
0.0
 11
-0.7829911631
 21
0.1
 31
0.0
  0
LINE
  5
1E4
330
1F
100
AcDbEntity
  8
0
  6
Continuous
 62
     7
370
    25
100
AcDbLine
 10
-0.8068931516
 20
0.2377952756
 30
0.0
 11
-0.7625527787
 21
0.1
 31
0.0
  0
LINE
  5
1E5
330
1F
100
AcDbEntity
  8
0
  6
Continuous
 62
     7
370
    25
100
AcDbLine
 10
-0.596923856
 20
0.2377952756
 30
0.0
 11
-0.57124326
 21
0.2377952756
 31
0.0
  0
LINE
  5
1E6
330
1F
100
AcDbEntity
  8
0
  6
Continuous
 62
     7
370
    25
100
AcDbLine
 10
-0.6427308
 20
0.1
 30
0.0
 11
-0.596923856
 21
0.2377952756
 31
0.0
  0
LINE
  5
1E7
330
1F
100
AcDbEntity
  8
0
  6
Continuous
 62
     7
370
    25
100
AcDbLine
 10
-0.6232597284
 20
0.1
 30
0.0
 11
-0.6427308
 21
0.1
 31
0.0
  0
LINE
  5
1E8
330
1F
100
AcDbEntity
  8
0
  6
Continuous
 62
     7
370
    25
100
AcDbLine
 10
-0.6138050254
 20
0.1299554947
 30
0.0
 11
-0.6232597284
 21
0.1
 31
0.0
  0
LINE
  5
1E9
330
1F
100
AcDbEntity
  8
0
  6
Continuous
 62
     7
370
    25
100
AcDbLine
 10
-0.5565775491
 20
0.1299554947
 30
0.0
 11
-0.6138050254
 21
0.1299554947
 31
0.0
  0
LINE
  5
1EA
330
1F
100
AcDbEntity
  8
0
  6
Continuous
 62
     7
370
    25
100
AcDbLine
 10
-0.5473412715
 20
0.1
 30
0.0
 11
-0.5565775491
 21
0.1299554947
 31
0.0
  0
LINE
  5
1EB
330
1F
100
AcDbEntity
  8
0
  6
Continuous
 62
     7
370
    25
100
AcDbLine
 10
-0.5269028871
 20
0.1
 30
0.0
 11
-0.5473412715
 21
0.1
 31
0.0
  0
LINE
  5
1EC
330
1F
100
AcDbEntity
  8
0
  6
Continuous
 62
     7
370
    25
100
AcDbLine
 10
-0.57124326
 20
0.2377952756
 30
0.0
 11
-0.5269028871
 21
0.1
 31
0.0
  0
LINE
  5
1ED
330
1F
100
AcDbEntity
  8
0
  6
Continuous
 62
     7
370
    25
100
AcDbLine
 10
-1.717284207
 20
5.1181102362
 30
0.0
 11
-1.718503937
 21
5.1181102362
 31
0.0
  0
LINE
  5
1EE
330
1F
100
AcDbEntity
  8
0
  6
Continuous
 62
     7
370
    25
100
AcDbLine
 10
-1.718503937
 20
5.1181102362
 30
0.0
 11
-1.718503937
 21
5.5118110236
 31
0.0
  0
LINE
  5
1EF
330
1F
100
AcDbEntity
  8
0
  6
Continuous
 62
     7
370
    25
100
AcDbLine
 10
-1.718503937
 20
5.5118110236
 30
0.0
 11
-1.717284207
 21
5.5118110236
 31
0.0
  0
LINE
  5
1F0
330
1F
100
AcDbEntity
  8
0
  6
Continuous
 62
     7
370
    25
100
AcDbLine
 10
-1.717284207
 20
5.5108110236
 30
0.0
 11
-1.717284207
 21
5.5118110236
 31
0.0
  0
LINE
  5
1F1
330
1F
100
AcDbEntity
  8
0
  6
Continuous
 62
     7
370
    25
100
AcDbLine
 10
-1.5116506576
 20
5.5108110236
 30
0.0
 11
-1.717284207
 21
5.5108110236
 31
0.0
  0
LINE
  5
1F2
330
1F
100
AcDbEntity
  8
0
  6
Continuous
 62
     7
370
    25
100
AcDbLine
 10
-1.468503937
 20
5.5560051974
 30
0.0
 11
-1.468503937
 21
5.8613176372
 31
0.0
  0
LINE
  5
1F3
330
1F
100
AcDbEntity
  8
0
  6
Continuous
 62
     7
370
    25
100
AcDbLine
 10
-1.717284207
 20
5.906511811
 30
0.0
 11
-1.5116506576
 21
5.906511811
 31
0.0
  0
LINE
  5
1F4
330
1F
100
AcDbEntity
  8
0
  6
Continuous
 62
     7
370
    25
100
AcDbLine
 10
-1.717284207
 20
5.905511811
 30
0.0
 11
-1.717284207
 21
5.906511811
 31
0.0
  0
LINE
  5
1F5
330
1F
100
AcDbEntity
  8
0
  6
Continuous
 62
     7
370
    25
100
AcDbLine
 10
-1.717284207
 20
5.905511811
 30
0.0
 11
-1.718503937
 21
5.905511811
 31
0.0
  0
LINE
  5
1F6
330
1F
100
AcDbEntity
  8
0
  6
Continuous
 62
     7
370
    25
100
AcDbLine
 10
-1.718503937
 20
5.905511811
 30
0.0
 11
-1.718503937
 21
6.2992125984
 31
0.0
  0
LINE
  5
1F7
330
1F
100
AcDbEntity
  8
0
  6
Continuous
 62
     7
370
    25
100
AcDbLine
 10
-1.718503937
 20
6.2992125984
 30
0.0
 11
-1.717284207
 21
6.2992125984
 31
0.0
  0
LINE
  5
1F8
330
1F
100
AcDbEntity
  8
0
  6
Continuous
 62
     7
370
    25
100
AcDbLine
 10
-1.717284207
 20
6.2982125984
 30
0.0
 11
-1.717284207
 21
6.2992125984
 31
0.0
  0
LINE
  5
1F9
330
1F
100
AcDbEntity
  8
0
  6
Continuous
 62
     7
370
    25
100
AcDbLine
 10
-1.5116506576
 20
6.2982125984
 30
0.0
 11
-1.717284207
 21
6.2982125984
 31
0.0
  0
LINE
  5
1FA
330
1F
100
AcDbEntity
  8
0
  6
Continuous
 62
     7
370
    25
100
AcDbLine
 10
-1.468503937
 20
6.3434067722
 30
0.0
 11
-1.468503937
 21
6.648719212
 31
0.0
  0
LINE
  5
1FB
330
1F
100
AcDbEntity
  8
0
  6
Continuous
 62
     7
370
    25
100
AcDbLine
 10
-1.717284207
 20
6.6939133858
 30
0.0
 11
-1.5116506576
 21
6.6939133858
 31
0.0
  0
LINE
  5
1FC
330
1F
100
AcDbEntity
  8
0
  6
Continuous
 62
     7
370
    25
100
AcDbLine
 10
-1.717284207
 20
6.6929133858
 30
0.0
 11
-1.717284207
 21
6.6939133858
 31
0.0
  0
LINE
  5
1FD
330
1F
100
AcDbEntity
  8
0
  6
Continuous
 62
     7
370
    25
100
AcDbLine
 10
-1.717284207
 20
6.6929133858
 30
0.0
 11
-1.718503937
 21
6.6929133858
 31
0.0
  0
LINE
  5
1FE
330
1F
100
AcDbEntity
  8
0
  6
Continuous
 62
     7
370
    25
100
AcDbLine
 10
-1.718503937
 20
6.6929133858
 30
0.0
 11
-1.718503937
 21
7.0866141732
 31
0.0
  0
LINE
  5
1FF
330
1F
100
AcDbEntity
  8
0
  6
Continuous
 62
     7
370
    25
100
AcDbLine
 10
-1.718503937
 20
7.0866141732
 30
0.0
 11
-1.717284207
 21
7.0866141732
 31
0.0
  0
LINE
  5
200
330
1F
100
AcDbEntity
  8
0
  6
Continuous
 62
     7
370
    25
100
AcDbLine
 10
-1.717284207
 20
7.0856141732
 30
0.0
 11
-1.717284207
 21
7.0866141732
 31
0.0
  0
LINE
  5
201
330
1F
100
AcDbEntity
  8
0
  6
Continuous
 62
     7
370
    25
100
AcDbLine
 10
-1.5116506576
 20
7.0856141732
 30
0.0
 11
-1.717284207
 21
7.0856141732
 31
0.0
  0
LINE
  5
202
330
1F
100
AcDbEntity
  8
0
  6
Continuous
 62
     7
370
    25
100
AcDbLine
 10
-1.468503937
 20
7.1308083471
 30
0.0
 11
-1.468503937
 21
7.4361207868
 31
0.0
  0
LINE
  5
203
330
1F
100
AcDbEntity
  8
0
  6
Continuous
 62
     7
370
    25
100
AcDbLine
 10
-1.717284207
 20
7.4813149606
 30
0.0
 11
-1.5116506576
 21
7.4813149606
 31
0.0
  0
LINE
  5
204
330
1F
100
AcDbEntity
  8
0
  6
Continuous
 62
     7
370
    25
100
AcDbLine
 10
-1.717284207
 20
7.4803149606
 30
0.0
 11
-1.717284207
 21
7.4813149606
 31
0.0
  0
LINE
  5
205
330
1F
100
AcDbEntity
  8
0
  6
Continuous
 62
     7
370
    25
100
AcDbLine
 10
-1.717284207
 20
7.4803149606
 30
0.0
 11
-1.718503937
 21
7.4803149606
 31
0.0
  0
LINE
  5
206
330
1F
100
AcDbEntity
  8
0
  6
Continuous
 62
     7
370
    25
100
AcDbLine
 10
-1.718503937
 20
7.4803149606
 30
0.0
 11
-1.718503937
 21
7.874015748
 31
0.0
  0
LINE
  5
207
330
1F
100
AcDbEntity
  8
0
  6
Continuous
 62
     7
370
    25
100
AcDbLine
 10
-1.718503937
 20
7.874015748
 30
0.0
 11
-0.975296536
 21
7.874015748
 31
0.0
  0
LINE
  5
208
330
1F
100
AcDbEntity
  8
0
  6
Continuous
 62
     7
370
    25
100
AcDbLine
 10
-0.9311023622
 20
7.9182099219
 30
0.0
 11
-0.9311023622
 21
8.061515748
 31
0.0
  0
LINE
  5
209
330
1F
100
AcDbEntity
  8
0
  6
Continuous
 62
     7
370
    25
100
AcDbLine
 10
-0.8686023622
 20
8.124015748
 30
0.0
 11
-0.9311023622
 21
8.061515748
 31
0.0
  0
LINE
  5
20A
330
1F
100
AcDbEntity
  8
0
  6
Continuous
 62
     7
370
    25
100
AcDbLine
 10
-0.8686023622
 20
8.124015748
 30
0.0
 11
-0.5999015748
 21
8.124015748
 31
0.0
  0
LINE
  5
20B
330
1F
100
AcDbEntity
  8
0
  6
Continuous
 62
     7
370
    25
100
AcDbLine
 10
-0.5374015748
 20
8.061515748
 30
0.0
 11
-0.5999015748
 21
8.124015748
 31
0.0
  0
LINE
  5
20C
330
1F
100
AcDbEntity
  8
0
  6
Continuous
 62
     7
370
    25
100
AcDbLine
 10
-0.5374015748
 20
8.061515748
 30
0.0
 11
-0.5374015748
 21
7.9182099219
 31
0.0
  0
LINE
  5
20D
330
1F
100
AcDbEntity
  8
0
  6
Continuous
 62
     7
370
    25
100
AcDbLine
 10
-0.493207401
 20
7.874015748
 30
0.0
 11
0.25
 21
7.874015748
 31
0.0
  0
LINE
  5
20E
330
1F
100
AcDbEntity
  8
0
  6
Continuous
 62
     7
370
    25
100
AcDbLine
 10
0.25
 20
7.874015748
 30
0.0
 11
0.25
 21
7.4803149606
 31
0.0
  0
LINE
  5
20F
330
1F
100
AcDbEntity
  8
0
  6
Continuous
 62
     7
370
    25
100
AcDbLine
 10
0.25
 20
7.4803149606
 30
0.0
 11
0.2493365971
 21
7.4803149606
 31
0.0
  0
LINE
  5
210
330
1F
100
AcDbEntity
  8
0
  6
Continuous
 62
     7
370
    25
100
AcDbLine
 10
0.2493365971
 20
7.4813149606
 30
0.0
 11
0.2493365971
 21
7.4803149606
 31
0.0
  0
LINE
  5
211
330
1F
100
AcDbEntity
  8
0
  6
Continuous
 62
     7
370
    25
100
AcDbLine
 10
0.0406885049
 20
7.4813149606
 30
0.0
 11
0.2493365971
 21
7.4813149606
 31
0.0
  0
LINE
  5
212
330
1F
100
AcDbEntity
  8
0
  6
Continuous
 62
     7
370
    25
100
AcDbLine
 10
0.0006634693
 20
7.4813149606
 30
0.0
 11
0.0035056689
 21
7.4813149606
 31
0.0
  0
LINE
  5
213
330
1F
100
AcDbEntity
  8
0
  6
Continuous
 62
     7
370
    25
100
AcDbLine
 10
0.0006634693
 20
7.4789380142
 30
0.0
 11
0.0006634693
 21
7.4813149606
 31
0.0
  0
LINE
  5
214
330
1F
100
AcDbEntity
  8
0
  6
Continuous
 62
     7
370
    25
100
AcDbLine
 10
0.0
 20
7.4340997194
 30
0.0
 11
0.0
 21
7.1308083471
 31
0.0
  0
LINE
  5
215
330
1F
100
AcDbEntity
  8
0
  6
Continuous
 62
     7
370
    25
100
AcDbLine
 10
0.0006634693
 20
7.0835931058
 30
0.0
 11
0.0006634693
 21
7.0859700523
 31
0.0
  0
LINE
  5
216
330
1F
100
AcDbEntity
  8
0
  6
Continuous
 62
     7
370
    25
100
AcDbLine
 10
0.0035056689
 20
7.0835931058
 30
0.0
 11
0.0006634693
 21
7.0835931058
 31
0.0
  0
LINE
  5
217
330
1F
100
AcDbEntity
  8
0
  6
Continuous
 62
     7
370
    25
100
AcDbLine
 10
0.2493365971
 20
7.0835931058
 30
0.0
 11
0.0406885049
 21
7.0835931058
 31
0.0
  0
LINE
  5
218
330
1F
100
AcDbEntity
  8
0
  6
Continuous
 62
     7
370
    25
100
AcDbLine
 10
0.2493365971
 20
7.0866141732
 30
0.0
 11
0.2493365971
 21
7.0835931058
 31
0.0
  0
LINE
  5
219
330
1F
100
AcDbEntity
  8
0
  6
Continuous
 62
     7
370
    25
100
AcDbLine
 10
0.2493365971
 20
7.0866141732
 30
0.0
 11
0.25
 21
7.0866141732
 31
0.0
  0
LINE
  5
21A
330
1F
100
AcDbEntity
  8
0
  6
Continuous
 62
     7
370
    25
100
AcDbLine
 10
0.25
 20
7.0866141732
 30
0.0
 11
0.25
 21
6.6929133858
 31
0.0
  0
LINE
  5
21B
330
1F
100
AcDbEntity
  8
0
  6
Continuous
 62
     7
370
    25
100
AcDbLine
 10
0.25
 20
6.6929133858
 30
0.0
 11
0.2493365971
 21
6.6929133858
 31
0.0
  0
LINE
  5
21C
330
1F
100
AcDbEntity
  8
0
  6
Continuous
 62
     7
370
    25
100
AcDbLine
 10
0.2493365971
 20
6.6939133858
 30
0.0
 11
0.2493365971
 21
6.6929133858
 31
0.0
  0
LINE
  5
21D
330
1F
100
AcDbEntity
  8
0
  6
Continuous
 62
     7
370
    25
100
AcDbLine
 10
0.0431467205
 20
6.6939133858
 30
0.0
 11
0.2493365971
 21
6.6939133858
 31
0.0
  0
LINE
  5
21E
330
1F
100
AcDbEntity
  8
0
  6
Continuous
 62
     7
370
    25
100
AcDbLine
 10
0.0006634693
 20
6.6939133858
 30
0.0
 11
0.0010474533
 21
6.6939133858
 31
0.0
  0
LINE
  5
21F
330
1F
100
AcDbEntity
  8
0
  6
Continuous
 62
     7
370
    25
100
AcDbLine
 10
0.0006634693
 20
6.6935575068
 30
0.0
 11
0.0006634693
 21
6.6939133858
 31
0.0
  0
LINE
  5
220
330
1F
100
AcDbEntity
  8
0
  6
Continuous
 62
     7
370
    25
100
AcDbLine
 10
0.0
 20
6.648719212
 30
0.0
 11
0.0
 21
6.3434067722
 31
0.0
  0
LINE
  5
221
330
1F
100
AcDbEntity
  8
0
  6
Continuous
 62
     7
370
    25
100
AcDbLine
 10
0.0006634693
 20
6.296191531
 30
0.0
 11
0.0006634693
 21
6.2985684775
 31
0.0
  0
LINE
  5
222
330
1F
100
AcDbEntity
  8
0
  6
Continuous
 62
     7
370
    25
100
AcDbLine
 10
0.0035056689
 20
6.296191531
 30
0.0
 11
0.0006634693
 21
6.296191531
 31
0.0
  0
LINE
  5
223
330
1F
100
AcDbEntity
  8
0
  6
Continuous
 62
     7
370
    25
100
AcDbLine
 10
0.2493365971
 20
6.296191531
 30
0.0
 11
0.0406885049
 21
6.296191531
 31
0.0
  0
LINE
  5
224
330
1F
100
AcDbEntity
  8
0
  6
Continuous
 62
     7
370
    25
100
AcDbLine
 10
0.2493365971
 20
6.2992125984
 30
0.0
 11
0.2493365971
 21
6.296191531
 31
0.0
  0
LINE
  5
225
330
1F
100
AcDbEntity
  8
0
  6
Continuous
 62
     7
370
    25
100
AcDbLine
 10
0.2493365971
 20
6.2992125984
 30
0.0
 11
0.25
 21
6.2992125984
 31
0.0
  0
LINE
  5
226
330
1F
100
AcDbEntity
  8
0
  6
Continuous
 62
     7
370
    25
100
AcDbLine
 10
0.25
 20
6.2992125984
 30
0.0
 11
0.25
 21
5.905511811
 31
0.0
  0
LINE
  5
227
330
1F
100
AcDbEntity
  8
0
  6
Continuous
 62
     7
370
    25
100
AcDbLine
 10
0.25
 20
5.905511811
 30
0.0
 11
0.2493365971
 21
5.905511811
 31
0.0
  0
LINE
  5
228
330
1F
100
AcDbEntity
  8
0
  6
Continuous
 62
     7
370
    25
100
AcDbLine
 10
0.2493365971
 20
5.906511811
 30
0.0
 11
0.2493365971
 21
5.905511811
 31
0.0
  0
LINE
  5
229
330
1F
100
AcDbEntity
  8
0
  6
Continuous
 62
     7
370
    25
100
AcDbLine
 10
0.0431467205
 20
5.906511811
 30
0.0
 11
0.2493365971
 21
5.906511811
 31
0.0
  0
LINE
  5
22A
330
1F
100
AcDbEntity
  8
0
  6
Continuous
 62
     7
370
    25
100
AcDbLine
 10
0.0006634693
 20
5.906511811
 30
0.0
 11
0.0010474533
 21
5.906511811
 31
0.0
  0
LINE
  5
22B
330
1F
100
AcDbEntity
  8
0
  6
Continuous
 62
     7
370
    25
100
AcDbLine
 10
0.0006634693
 20
5.906155932
 30
0.0
 11
0.0006634693
 21
5.906511811
 31
0.0
  0
LINE
  5
22C
330
1F
100
AcDbEntity
  8
0
  6
Continuous
 62
     7
370
    25
100
AcDbLine
 10
0.0
 20
5.8613176372
 30
0.0
 11
0.0
 21
5.5560051974
 31
0.0
  0
LINE
  5
22D
330
1F
100
AcDbEntity
  8
0
  6
Continuous
 62
     7
370
    25
100
AcDbLine
 10
0.0006634693
 20
5.5087899562
 30
0.0
 11
0.0006634693
 21
5.5111669027
 31
0.0
  0
LINE
  5
22E
330
1F
100
AcDbEntity
  8
0
  6
Continuous
 62
     7
370
    25
100
AcDbLine
 10
0.0035056689
 20
5.5087899562
 30
0.0
 11
0.0006634693
 21
5.5087899562
 31
0.0
  0
LINE
  5
22F
330
1F
100
AcDbEntity
  8
0
  6
Continuous
 62
     7
370
    25
100
AcDbLine
 10
0.2493365971
 20
5.5087899562
 30
0.0
 11
0.0406885049
 21
5.5087899562
 31
0.0
  0
LINE
  5
230
330
1F
100
AcDbEntity
  8
0
  6
Continuous
 62
     7
370
    25
100
AcDbLine
 10
0.2493365971
 20
5.5118110236
 30
0.0
 11
0.2493365971
 21
5.5087899562
 31
0.0
  0
LINE
  5
231
330
1F
100
AcDbEntity
  8
0
  6
Continuous
 62
     7
370
    25
100
AcDbLine
 10
0.2493365971
 20
5.5118110236
 30
0.0
 11
0.25
 21
5.5118110236
 31
0.0
  0
LINE
  5
232
330
1F
100
AcDbEntity
  8
0
  6
Continuous
 62
     7
370
    25
100
AcDbLine
 10
0.25
 20
5.5118110236
 30
0.0
 11
0.25
 21
5.1181102362
 31
0.0
  0
LINE
  5
233
330
1F
100
AcDbEntity
  8
0
  6
Continuous
 62
     7
370
    25
100
AcDbLine
 10
0.25
 20
5.1181102362
 30
0.0
 11
0.2493365971
 21
5.1181102362
 31
0.0
  0
LINE
  5
234
330
1F
100
AcDbEntity
  8
0
  6
Continuous
 62
     7
370
    25
100
AcDbLine
 10
0.2493365971
 20
5.1191102362
 30
0.0
 11
0.2493365971
 21
5.1181102362
 31
0.0
  0
LINE
  5
235
330
1F
100
AcDbEntity
  8
0
  6
Continuous
 62
     7
370
    25
100
AcDbLine
 10
0.0431467205
 20
5.1191102362
 30
0.0
 11
0.2493365971
 21
5.1191102362
 31
0.0
  0
LINE
  5
236
330
1F
100
AcDbEntity
  8
0
  6
Continuous
 62
     7
370
    25
100
AcDbLine
 10
0.0006634693
 20
5.1191102362
 30
0.0
 11
0.0010474533
 21
5.1191102362
 31
0.0
  0
LINE
  5
237
330
1F
100
AcDbEntity
  8
0
  6
Continuous
 62
     7
370
    25
100
AcDbLine
 10
0.0006634693
 20
5.1187543572
 30
0.0
 11
0.0006634693
 21
5.1191102362
 31
0.0
  0
LINE
  5
238
330
1F
100
AcDbEntity
  8
0
  6
Continuous
 62
     7
370
    25
100
AcDbLine
 10
0.0
 20
5.0739160624
 30
0.0
 11
0.0
 21
4.7686036226
 31
0.0
  0
LINE
  5
239
330
1F
100
AcDbEntity
  8
0
  6
Continuous
 62
     7
370
    25
100
AcDbLine
 10
0.0006634693
 20
4.7213883814
 30
0.0
 11
0.0006634693
 21
4.7237653279
 31
0.0
  0
LINE
  5
23A
330
1F
100
AcDbEntity
  8
0
  6
Continuous
 62
     7
370
    25
100
AcDbLine
 10
0.0035056689
 20
4.7213883814
 30
0.0
 11
0.0006634693
 21
4.7213883814
 31
0.0
  0
LINE
  5
23B
330
1F
100
AcDbEntity
  8
0
  6
Continuous
 62
     7
370
    25
100
AcDbLine
 10
0.2493365971
 20
4.7213883814
 30
0.0
 11
0.0406885049
 21
4.7213883814
 31
0.0
  0
LINE
  5
23C
330
1F
100
AcDbEntity
  8
0
  6
Continuous
 62
     7
370
    25
100
AcDbLine
 10
0.2493365971
 20
4.7244094488
 30
0.0
 11
0.2493365971
 21
4.7213883814
 31
0.0
  0
LINE
  5
23D
330
1F
100
AcDbEntity
  8
0
  6
Continuous
 62
     7
370
    25
100
AcDbLine
 10
0.2493365971
 20
4.7244094488
 30
0.0
 11
0.25
 21
4.7244094488
 31
0.0
  0
LINE
  5
23E
330
1F
100
AcDbEntity
  8
0
  6
Continuous
 62
     7
370
    25
100
AcDbLine
 10
0.25
 20
4.7244094488
 30
0.0
 11
0.25
 21
4.3307086614
 31
0.0
  0
LINE
  5
23F
330
1F
100
AcDbEntity
  8
0
  6
Continuous
 62
     7
370
    25
100
AcDbLine
 10
0.25
 20
4.3307086614
 30
0.0
 11
0.2493365971
 21
4.3307086614
 31
0.0
  0
LINE
  5
240
330
1F
100
AcDbEntity
  8
0
  6
Continuous
 62
     7
370
    25
100
AcDbLine
 10
0.2493365971
 20
4.3317086614
 30
0.0
 11
0.2493365971
 21
4.3307086614
 31
0.0
  0
LINE
  5
241
330
1F
100
AcDbEntity
  8
0
  6
Continuous
 62
     7
370
    25
100
AcDbLine
 10
0.0431467205
 20
4.3317086614
 30
0.0
 11
0.2493365971
 21
4.3317086614
 31
0.0
  0
LINE
  5
242
330
1F
100
AcDbEntity
  8
0
  6
Continuous
 62
     7
370
    25
100
AcDbLine
 10
0.0006634693
 20
4.3317086614
 30
0.0
 11
0.0010474533
 21
4.3317086614
 31
0.0
  0
LINE
  5
243
330
1F
100
AcDbEntity
  8
0
  6
Continuous
 62
     7
370
    25
100
AcDbLine
 10
0.0006634693
 20
4.3313527824
 30
0.0
 11
0.0006634693
 21
4.3317086614
 31
0.0
  0
LINE
  5
244
330
1F
100
AcDbEntity
  8
0
  6
Continuous
 62
     7
370
    25
100
AcDbLine
 10
0.0
 20
4.2865144876
 30
0.0
 11
0.0
 21
3.9812020478
 31
0.0
  0
LINE
  5
245
330
1F
100
AcDbEntity
  8
0
  6
Continuous
 62
     7
370
    25
100
AcDbLine
 10
0.0006634693
 20
3.9339868066
 30
0.0
 11
0.0006634693
 21
3.9363637531
 31
0.0
  0
LINE
  5
246
330
1F
100
AcDbEntity
  8
0
  6
Continuous
 62
     7
370
    25
100
AcDbLine
 10
0.0035056689
 20
3.9339868066
 30
0.0
 11
0.0006634693
 21
3.9339868066
 31
0.0
  0
LINE
  5
247
330
1F
100
AcDbEntity
  8
0
  6
Continuous
 62
     7
370
    25
100
AcDbLine
 10
0.2493365971
 20
3.9339868066
 30
0.0
 11
0.0406885049
 21
3.9339868066
 31
0.0
  0
LINE
  5
248
330
1F
100
AcDbEntity
  8
0
  6
Continuous
 62
     7
370
    25
100
AcDbLine
 10
0.2493365971
 20
3.937007874
 30
0.0
 11
0.2493365971
 21
3.9339868066
 31
0.0
  0
LINE
  5
249
330
1F
100
AcDbEntity
  8
0
  6
Continuous
 62
     7
370
    25
100
AcDbLine
 10
0.2493365971
 20
3.937007874
 30
0.0
 11
0.25
 21
3.937007874
 31
0.0
  0
LINE
  5
24A
330
1F
100
AcDbEntity
  8
0
  6
Continuous
 62
     7
370
    25
100
AcDbLine
 10
0.25
 20
3.937007874
 30
0.0
 11
0.25
 21
3.5433070866
 31
0.0
  0
LINE
  5
24B
330
1F
100
AcDbEntity
  8
0
  6
Continuous
 62
     7
370
    25
100
AcDbLine
 10
0.25
 20
3.5433070866
 30
0.0
 11
0.2493365971
 21
3.5433070866
 31
0.0
  0
LINE
  5
24C
330
1F
100
AcDbEntity
  8
0
  6
Continuous
 62
     7
370
    25
100
AcDbLine
 10
0.2493365971
 20
3.5443070866
 30
0.0
 11
0.2493365971
 21
3.5433070866
 31
0.0
  0
LINE
  5
24D
330
1F
100
AcDbEntity
  8
0
  6
Continuous
 62
     7
370
    25
100
AcDbLine
 10
0.0431467205
 20
3.5443070866
 30
0.0
 11
0.2493365971
 21
3.5443070866
 31
0.0
  0
LINE
  5
24E
330
1F
100
AcDbEntity
  8
0
  6
Continuous
 62
     7
370
    25
100
AcDbLine
 10
0.0006634693
 20
3.5443070866
 30
0.0
 11
0.0010474533
 21
3.5443070866
 31
0.0
  0
LINE
  5
24F
330
1F
100
AcDbEntity
  8
0
  6
Continuous
 62
     7
370
    25
100
AcDbLine
 10
0.0006634693
 20
3.5439512076
 30
0.0
 11
0.0006634693
 21
3.5443070866
 31
0.0
  0
LINE
  5
250
330
1F
100
AcDbEntity
  8
0
  6
Continuous
 62
     7
370
    25
100
AcDbLine
 10
0.0
 20
3.4991129128
 30
0.0
 11
0.0
 21
3.193800473
 31
0.0
  0
LINE
  5
251
330
1F
100
AcDbEntity
  8
0
  6
Continuous
 62
     7
370
    25
100
AcDbLine
 10
0.0006634693
 20
3.1465852318
 30
0.0
 11
0.0006634693
 21
3.1489621783
 31
0.0
  0
LINE
  5
252
330
1F
100
AcDbEntity
  8
0
  6
Continuous
 62
     7
370
    25
100
AcDbLine
 10
0.0035056689
 20
3.1465852318
 30
0.0
 11
0.0006634693
 21
3.1465852318
 31
0.0
  0
LINE
  5
253
330
1F
100
AcDbEntity
  8
0
  6
Continuous
 62
     7
370
    25
100
AcDbLine
 10
0.2493365971
 20
3.1465852318
 30
0.0
 11
0.0406885049
 21
3.1465852318
 31
0.0
  0
LINE
  5
254
330
1F
100
AcDbEntity
  8
0
  6
Continuous
 62
     7
370
    25
100
AcDbLine
 10
0.2493365971
 20
3.1496062992
 30
0.0
 11
0.2493365971
 21
3.1465852318
 31
0.0
  0
LINE
  5
255
330
1F
100
AcDbEntity
  8
0
  6
Continuous
 62
     7
370
    25
100
AcDbLine
 10
0.2493365971
 20
3.1496062992
 30
0.0
 11
0.25
 21
3.1496062992
 31
0.0
  0
LINE
  5
256
330
1F
100
AcDbEntity
  8
0
  6
Continuous
 62
     7
370
    25
100
AcDbLine
 10
0.25
 20
3.1496062992
 30
0.0
 11
0.25
 21
2.7559055118
 31
0.0
  0
LINE
  5
257
330
1F
100
AcDbEntity
  8
0
  6
Continuous
 62
     7
370
    25
100
AcDbLine
 10
0.25
 20
2.7559055118
 30
0.0
 11
0.2493365971
 21
2.7559055118
 31
0.0
  0
LINE
  5
258
330
1F
100
AcDbEntity
  8
0
  6
Continuous
 62
     7
370
    25
100
AcDbLine
 10
0.2493365971
 20
2.7569055118
 30
0.0
 11
0.2493365971
 21
2.7559055118
 31
0.0
  0
LINE
  5
259
330
1F
100
AcDbEntity
  8
0
  6
Continuous
 62
     7
370
    25
100
AcDbLine
 10
0.0431467205
 20
2.7569055118
 30
0.0
 11
0.2493365971
 21
2.7569055118
 31
0.0
  0
LINE
  5
25A
330
1F
100
AcDbEntity
  8
0
  6
Continuous
 62
     7
370
    25
100
AcDbLine
 10
0.0006634693
 20
2.7569055118
 30
0.0
 11
0.0010474533
 21
2.7569055118
 31
0.0
  0
LINE
  5
25B
330
1F
100
AcDbEntity
  8
0
  6
Continuous
 62
     7
370
    25
100
AcDbLine
 10
0.0006634693
 20
2.7565496328
 30
0.0
 11
0.0006634693
 21
2.7569055118
 31
0.0
  0
LINE
  5
25C
330
1F
100
AcDbEntity
  8
0
  6
Continuous
 62
     7
370
    25
100
AcDbLine
 10
0.0
 20
2.711711338
 30
0.0
 11
0.0
 21
2.4063988982
 31
0.0
  0
LINE
  5
25D
330
1F
100
AcDbEntity
  8
0
  6
Continuous
 62
     7
370
    25
100
AcDbLine
 10
0.0006634693
 20
2.359183657
 30
0.0
 11
0.0006634693
 21
2.3615606035
 31
0.0
  0
LINE
  5
25E
330
1F
100
AcDbEntity
  8
0
  6
Continuous
 62
     7
370
    25
100
AcDbLine
 10
0.0035056689
 20
2.359183657
 30
0.0
 11
0.0006634693
 21
2.359183657
 31
0.0
  0
LINE
  5
25F
330
1F
100
AcDbEntity
  8
0
  6
Continuous
 62
     7
370
    25
100
AcDbLine
 10
0.2493365971
 20
2.359183657
 30
0.0
 11
0.0406885049
 21
2.359183657
 31
0.0
  0
LINE
  5
260
330
1F
100
AcDbEntity
  8
0
  6
Continuous
 62
     7
370
    25
100
AcDbLine
 10
0.2493365971
 20
2.3622047244
 30
0.0
 11
0.2493365971
 21
2.359183657
 31
0.0
  0
LINE
  5
261
330
1F
100
AcDbEntity
  8
0
  6
Continuous
 62
     7
370
    25
100
AcDbLine
 10
0.2493365971
 20
2.3622047244
 30
0.0
 11
0.25
 21
2.3622047244
 31
0.0
  0
LINE
  5
262
330
1F
100
AcDbEntity
  8
0
  6
Continuous
 62
     7
370
    25
100
AcDbLine
 10
0.25
 20
2.3622047244
 30
0.0
 11
0.25
 21
1.968503937
 31
0.0
  0
LINE
  5
263
330
1F
100
AcDbEntity
  8
0
  6
Continuous
 62
     7
370
    25
100
AcDbLine
 10
0.25
 20
1.968503937
 30
0.0
 11
0.2493365971
 21
1.968503937
 31
0.0
  0
LINE
  5
264
330
1F
100
AcDbEntity
  8
0
  6
Continuous
 62
     7
370
    25
100
AcDbLine
 10
0.2493365971
 20
1.969503937
 30
0.0
 11
0.2493365971
 21
1.968503937
 31
0.0
  0
LINE
  5
265
330
1F
100
AcDbEntity
  8
0
  6
Continuous
 62
     7
370
    25
100
AcDbLine
 10
0.0431467205
 20
1.969503937
 30
0.0
 11
0.2493365971
 21
1.969503937
 31
0.0
  0
LINE
  5
266
330
1F
100
AcDbEntity
  8
0
  6
Continuous
 62
     7
370
    25
100
AcDbLine
 10
0.0006634693
 20
1.969503937
 30
0.0
 11
0.0010474533
 21
1.969503937
 31
0.0
  0
LINE
  5
267
330
1F
100
AcDbEntity
  8
0
  6
Continuous
 62
     7
370
    25
100
AcDbLine
 10
0.0006634693
 20
1.969148058
 30
0.0
 11
0.0006634693
 21
1.969503937
 31
0.0
  0
LINE
  5
268
330
1F
100
AcDbEntity
  8
0
  6
Continuous
 62
     7
370
    25
100
AcDbLine
 10
0.0
 20
1.9243097632
 30
0.0
 11
0.0
 21
1.6189973234
 31
0.0
  0
LINE
  5
269
330
1F
100
AcDbEntity
  8
0
  6
Continuous
 62
     7
370
    25
100
AcDbLine
 10
0.0006634693
 20
1.5717820822
 30
0.0
 11
0.0006634693
 21
1.5741590286
 31
0.0
  0
LINE
  5
26A
330
1F
100
AcDbEntity
  8
0
  6
Continuous
 62
     7
370
    25
100
AcDbLine
 10
0.0035056689
 20
1.5717820822
 30
0.0
 11
0.0006634693
 21
1.5717820822
 31
0.0
  0
LINE
  5
26B
330
1F
100
AcDbEntity
  8
0
  6
Continuous
 62
     7
370
    25
100
AcDbLine
 10
0.2493365971
 20
1.5717820822
 30
0.0
 11
0.0406885049
 21
1.5717820822
 31
0.0
  0
LINE
  5
26C
330
1F
100
AcDbEntity
  8
0
  6
Continuous
 62
     7
370
    25
100
AcDbLine
 10
0.2493365971
 20
1.5748031496
 30
0.0
 11
0.2493365971
 21
1.5717820822
 31
0.0
  0
LINE
  5
26D
330
1F
100
AcDbEntity
  8
0
  6
Continuous
 62
     7
370
    25
100
AcDbLine
 10
0.2493365971
 20
1.5748031496
 30
0.0
 11
0.25
 21
1.5748031496
 31
0.0
  0
LINE
  5
26E
330
1F
100
AcDbEntity
  8
0
  6
Continuous
 62
     7
370
    25
100
AcDbLine
 10
0.25
 20
1.5748031496
 30
0.0
 11
0.25
 21
1.1811023622
 31
0.0
  0
LINE
  5
26F
330
1F
100
AcDbEntity
  8
0
  6
Continuous
 62
     7
370
    25
100
AcDbLine
 10
0.25
 20
1.1811023622
 30
0.0
 11
0.2493365971
 21
1.1811023622
 31
0.0
  0
LINE
  5
270
330
1F
100
AcDbEntity
  8
0
  6
Continuous
 62
     7
370
    25
100
AcDbLine
 10
0.2493365971
 20
1.1821023622
 30
0.0
 11
0.2493365971
 21
1.1811023622
 31
0.0
  0
LINE
  5
271
330
1F
100
AcDbEntity
  8
0
  6
Continuous
 62
     7
370
    25
100
AcDbLine
 10
0.0431467205
 20
1.1821023622
 30
0.0
 11
0.2493365971
 21
1.1821023622
 31
0.0
  0
LINE
  5
272
330
1F
100
AcDbEntity
  8
0
  6
Continuous
 62
     7
370
    25
100
AcDbLine
 10
0.0006634693
 20
1.1821023622
 30
0.0
 11
0.0010474533
 21
1.1821023622
 31
0.0
  0
LINE
  5
273
330
1F
100
AcDbEntity
  8
0
  6
Continuous
 62
     7
370
    25
100
AcDbLine
 10
0.0006634693
 20
1.1817464832
 30
0.0
 11
0.0006634693
 21
1.1821023622
 31
0.0
  0
LINE
  5
274
330
1F
100
AcDbEntity
  8
0
  6
Continuous
 62
     7
370
    25
100
AcDbLine
 10
0.0
 20
1.1369081884
 30
0.0
 11
0.0
 21
0.8315957486
 31
0.0
  0
LINE
  5
275
330
1F
100
AcDbEntity
  8
0
  6
Continuous
 62
     7
370
    25
100
AcDbLine
 10
0.0006634693
 20
0.7843805074
 30
0.0
 11
0.0006634693
 21
0.7867574538
 31
0.0
  0
LINE
  5
276
330
1F
100
AcDbEntity
  8
0
  6
Continuous
 62
     7
370
    25
100
AcDbLine
 10
0.0035056689
 20
0.7843805074
 30
0.0
 11
0.0006634693
 21
0.7843805074
 31
0.0
  0
LINE
  5
277
330
1F
100
AcDbEntity
  8
0
  6
Continuous
 62
     7
370
    25
100
AcDbLine
 10
0.2493365971
 20
0.7843805074
 30
0.0
 11
0.0406885049
 21
0.7843805074
 31
0.0
  0
LINE
  5
278
330
1F
100
AcDbEntity
  8
0
  6
Continuous
 62
     7
370
    25
100
AcDbLine
 10
0.2493365971
 20
0.7874015748
 30
0.0
 11
0.2493365971
 21
0.7843805074
 31
0.0
  0
LINE
  5
279
330
1F
100
AcDbEntity
  8
0
  6
Continuous
 62
     7
370
    25
100
AcDbLine
 10
0.2493365971
 20
0.7874015748
 30
0.0
 11
0.25
 21
0.7874015748
 31
0.0
  0
LINE
  5
27A
330
1F
100
AcDbEntity
  8
0
  6
Continuous
 62
     7
370
    25
100
AcDbLine
 10
0.25
 20
0.7874015748
 30
0.0
 11
0.25
 21
0.3937007874
 31
0.0
  0
LINE
  5
27B
330
1F
100
AcDbEntity
  8
0
  6
Continuous
 62
     7
370
    25
100
AcDbLine
 10
0.25
 20
0.3937007874
 30
0.0
 11
0.0441941738
 21
0.3937007874
 31
0.0
  0
LINE
  5
27C
330
1F
100
AcDbEntity
  8
0
  6
Continuous
 62
     7
370
    25
100
AcDbLine
 10
0.0
 20
0.3495066136
 30
0.0
 11
0.0
 21
0.0
 31
0.0
  0
LINE
  5
27D
330
1F
100
AcDbEntity
  8
0
  6
Continuous
 62
     7
370
    25
100
AcDbLine
 10
0.0
 20
0.0
 30
0.0
 11
-0.493207401
 21
0.0
 31
0.0
  0
LINE
  5
27E
330
1F
100
AcDbEntity
  8
0
  6
Continuous
 62
     7
370
    25
100
AcDbLine
 10
-0.5374015748
 20
-0.0441941738
 30
0.0
 11
-0.5374015748
 21
-0.1875
 31
0.0
  0
LINE
  5
27F
330
1F
100
AcDbEntity
  8
0
  6
Continuous
 62
     7
370
    25
100
AcDbLine
 10
-0.5999015748
 20
-0.25
 30
0.0
 11
-0.5374015748
 21
-0.1875
 31
0.0
  0
LINE
  5
280
330
1F
100
AcDbEntity
  8
0
  6
Continuous
 62
     7
370
    25
100
AcDbLine
 10
-0.5999015748
 20
-0.25
 30
0.0
 11
-0.8686023622
 21
-0.25
 31
0.0
  0
LINE
  5
281
330
1F
100
AcDbEntity
  8
0
  6
Continuous
 62
     7
370
    25
100
AcDbLine
 10
-0.9311023622
 20
-0.1875
 30
0.0
 11
-0.8686023622
 21
-0.25
 31
0.0
  0
LINE
  5
282
330
1F
100
AcDbEntity
  8
0
  6
Continuous
 62
     7
370
    25
100
AcDbLine
 10
-0.9311023622
 20
-0.1875
 30
0.0
 11
-0.9311023622
 21
-0.0441941738
 31
0.0
  0
LINE
  5
283
330
1F
100
AcDbEntity
  8
0
  6
Continuous
 62
     7
370
    25
100
AcDbLine
 10
-0.975296536
 20
0.0
 30
0.0
 11
-1.468503937
 21
0.0
 31
0.0
  0
LINE
  5
284
330
1F
100
AcDbEntity
  8
0
  6
Continuous
 62
     7
370
    25
100
AcDbLine
 10
-1.468503937
 20
0.0
 30
0.0
 11
-1.468503937
 21
0.3495066136
 31
0.0
  0
LINE
  5
285
330
1F
100
AcDbEntity
  8
0
  6
Continuous
 62
     7
370
    25
100
AcDbLine
 10
-1.5126981108
 20
0.3937007874
 30
0.0
 11
-1.718503937
 21
0.3937007874
 31
0.0
  0
LINE
  5
286
330
1F
100
AcDbEntity
  8
0
  6
Continuous
 62
     7
370
    25
100
AcDbLine
 10
-1.718503937
 20
0.3937007874
 30
0.0
 11
-1.718503937
 21
0.7874015748
 31
0.0
  0
LINE
  5
287
330
1F
100
AcDbEntity
  8
0
  6
Continuous
 62
     7
370
    25
100
AcDbLine
 10
-1.718503937
 20
0.7874015748
 30
0.0
 11
-1.717284207
 21
0.7874015748
 31
0.0
  0
LINE
  5
288
330
1F
100
AcDbEntity
  8
0
  6
Continuous
 62
     7
370
    25
100
AcDbLine
 10
-1.717284207
 20
0.7864015748
 30
0.0
 11
-1.717284207
 21
0.7874015748
 31
0.0
  0
LINE
  5
289
330
1F
100
AcDbEntity
  8
0
  6
Continuous
 62
     7
370
    25
100
AcDbLine
 10
-1.5116506576
 20
0.7864015748
 30
0.0
 11
-1.717284207
 21
0.7864015748
 31
0.0
  0
LINE
  5
28A
330
1F
100
AcDbEntity
  8
0
  6
Continuous
 62
     7
370
    25
100
AcDbLine
 10
-1.468503937
 20
0.8315957486
 30
0.0
 11
-1.468503937
 21
1.1369081884
 31
0.0
  0
LINE
  5
28B
330
1F
100
AcDbEntity
  8
0
  6
Continuous
 62
     7
370
    25
100
AcDbLine
 10
-1.717284207
 20
1.1821023622
 30
0.0
 11
-1.5116506576
 21
1.1821023622
 31
0.0
  0
LINE
  5
28C
330
1F
100
AcDbEntity
  8
0
  6
Continuous
 62
     7
370
    25
100
AcDbLine
 10
-1.717284207
 20
1.1811023622
 30
0.0
 11
-1.717284207
 21
1.1821023622
 31
0.0
  0
LINE
  5
28D
330
1F
100
AcDbEntity
  8
0
  6
Continuous
 62
     7
370
    25
100
AcDbLine
 10
-1.717284207
 20
1.1811023622
 30
0.0
 11
-1.718503937
 21
1.1811023622
 31
0.0
  0
LINE
  5
28E
330
1F
100
AcDbEntity
  8
0
  6
Continuous
 62
     7
370
    25
100
AcDbLine
 10
-1.718503937
 20
1.1811023622
 30
0.0
 11
-1.718503937
 21
1.5748031496
 31
0.0
  0
LINE
  5
28F
330
1F
100
AcDbEntity
  8
0
  6
Continuous
 62
     7
370
    25
100
AcDbLine
 10
-1.718503937
 20
1.5748031496
 30
0.0
 11
-1.717284207
 21
1.5748031496
 31
0.0
  0
LINE
  5
290
330
1F
100
AcDbEntity
  8
0
  6
Continuous
 62
     7
370
    25
100
AcDbLine
 10
-1.717284207
 20
1.5738031496
 30
0.0
 11
-1.717284207
 21
1.5748031496
 31
0.0
  0
LINE
  5
291
330
1F
100
AcDbEntity
  8
0
  6
Continuous
 62
     7
370
    25
100
AcDbLine
 10
-1.5116506576
 20
1.5738031496
 30
0.0
 11
-1.717284207
 21
1.5738031496
 31
0.0
  0
LINE
  5
292
330
1F
100
AcDbEntity
  8
0
  6
Continuous
 62
     7
370
    25
100
AcDbLine
 10
-1.468503937
 20
1.6189973234
 30
0.0
 11
-1.468503937
 21
1.9243097632
 31
0.0
  0
LINE
  5
293
330
1F
100
AcDbEntity
  8
0
  6
Continuous
 62
     7
370
    25
100
AcDbLine
 10
-1.717284207
 20
1.969503937
 30
0.0
 11
-1.5116506576
 21
1.969503937
 31
0.0
  0
LINE
  5
294
330
1F
100
AcDbEntity
  8
0
  6
Continuous
 62
     7
370
    25
100
AcDbLine
 10
-1.717284207
 20
1.968503937
 30
0.0
 11
-1.717284207
 21
1.969503937
 31
0.0
  0
LINE
  5
295
330
1F
100
AcDbEntity
  8
0
  6
Continuous
 62
     7
370
    25
100
AcDbLine
 10
-1.717284207
 20
1.968503937
 30
0.0
 11
-1.718503937
 21
1.968503937
 31
0.0
  0
LINE
  5
296
330
1F
100
AcDbEntity
  8
0
  6
Continuous
 62
     7
370
    25
100
AcDbLine
 10
-1.718503937
 20
1.968503937
 30
0.0
 11
-1.718503937
 21
2.3622047244
 31
0.0
  0
LINE
  5
297
330
1F
100
AcDbEntity
  8
0
  6
Continuous
 62
     7
370
    25
100
AcDbLine
 10
-1.718503937
 20
2.3622047244
 30
0.0
 11
-1.717284207
 21
2.3622047244
 31
0.0
  0
LINE
  5
298
330
1F
100
AcDbEntity
  8
0
  6
Continuous
 62
     7
370
    25
100
AcDbLine
 10
-1.717284207
 20
2.3612047244
 30
0.0
 11
-1.717284207
 21
2.3622047244
 31
0.0
  0
LINE
  5
299
330
1F
100
AcDbEntity
  8
0
  6
Continuous
 62
     7
370
    25
100
AcDbLine
 10
-1.5116506576
 20
2.3612047244
 30
0.0
 11
-1.717284207
 21
2.3612047244
 31
0.0
  0
LINE
  5
29A
330
1F
100
AcDbEntity
  8
0
  6
Continuous
 62
     7
370
    25
100
AcDbLine
 10
-1.468503937
 20
2.4063988982
 30
0.0
 11
-1.468503937
 21
2.711711338
 31
0.0
  0
LINE
  5
29B
330
1F
100
AcDbEntity
  8
0
  6
Continuous
 62
     7
370
    25
100
AcDbLine
 10
-1.717284207
 20
2.7569055118
 30
0.0
 11
-1.5116506576
 21
2.7569055118
 31
0.0
  0
LINE
  5
29C
330
1F
100
AcDbEntity
  8
0
  6
Continuous
 62
     7
370
    25
100
AcDbLine
 10
-1.717284207
 20
2.7559055118
 30
0.0
 11
-1.717284207
 21
2.7569055118
 31
0.0
  0
LINE
  5
29D
330
1F
100
AcDbEntity
  8
0
  6
Continuous
 62
     7
370
    25
100
AcDbLine
 10
-1.717284207
 20
2.7559055118
 30
0.0
 11
-1.718503937
 21
2.7559055118
 31
0.0
  0
LINE
  5
29E
330
1F
100
AcDbEntity
  8
0
  6
Continuous
 62
     7
370
    25
100
AcDbLine
 10
-1.718503937
 20
2.7559055118
 30
0.0
 11
-1.718503937
 21
3.1496062992
 31
0.0
  0
LINE
  5
29F
330
1F
100
AcDbEntity
  8
0
  6
Continuous
 62
     7
370
    25
100
AcDbLine
 10
-1.718503937
 20
3.1496062992
 30
0.0
 11
-1.717284207
 21
3.1496062992
 31
0.0
  0
LINE
  5
2A0
330
1F
100
AcDbEntity
  8
0
  6
Continuous
 62
     7
370
    25
100
AcDbLine
 10
-1.717284207
 20
3.1486062992
 30
0.0
 11
-1.717284207
 21
3.1496062992
 31
0.0
  0
LINE
  5
2A1
330
1F
100
AcDbEntity
  8
0
  6
Continuous
 62
     7
370
    25
100
AcDbLine
 10
-1.5116506576
 20
3.1486062992
 30
0.0
 11
-1.717284207
 21
3.1486062992
 31
0.0
  0
LINE
  5
2A2
330
1F
100
AcDbEntity
  8
0
  6
Continuous
 62
     7
370
    25
100
AcDbLine
 10
-1.468503937
 20
3.193800473
 30
0.0
 11
-1.468503937
 21
3.4991129128
 31
0.0
  0
LINE
  5
2A3
330
1F
100
AcDbEntity
  8
0
  6
Continuous
 62
     7
370
    25
100
AcDbLine
 10
-1.717284207
 20
3.5443070866
 30
0.0
 11
-1.5116506576
 21
3.5443070866
 31
0.0
  0
LINE
  5
2A4
330
1F
100
AcDbEntity
  8
0
  6
Continuous
 62
     7
370
    25
100
AcDbLine
 10
-1.717284207
 20
3.5433070866
 30
0.0
 11
-1.717284207
 21
3.5443070866
 31
0.0
  0
LINE
  5
2A5
330
1F
100
AcDbEntity
  8
0
  6
Continuous
 62
     7
370
    25
100
AcDbLine
 10
-1.717284207
 20
3.5433070866
 30
0.0
 11
-1.718503937
 21
3.5433070866
 31
0.0
  0
LINE
  5
2A6
330
1F
100
AcDbEntity
  8
0
  6
Continuous
 62
     7
370
    25
100
AcDbLine
 10
-1.718503937
 20
3.5433070866
 30
0.0
 11
-1.718503937
 21
3.937007874
 31
0.0
  0
LINE
  5
2A7
330
1F
100
AcDbEntity
  8
0
  6
Continuous
 62
     7
370
    25
100
AcDbLine
 10
-1.718503937
 20
3.937007874
 30
0.0
 11
-1.717284207
 21
3.937007874
 31
0.0
  0
LINE
  5
2A8
330
1F
100
AcDbEntity
  8
0
  6
Continuous
 62
     7
370
    25
100
AcDbLine
 10
-1.717284207
 20
3.936007874
 30
0.0
 11
-1.717284207
 21
3.937007874
 31
0.0
  0
LINE
  5
2A9
330
1F
100
AcDbEntity
  8
0
  6
Continuous
 62
     7
370
    25
100
AcDbLine
 10
-1.5116506576
 20
3.936007874
 30
0.0
 11
-1.717284207
 21
3.936007874
 31
0.0
  0
LINE
  5
2AA
330
1F
100
AcDbEntity
  8
0
  6
Continuous
 62
     7
370
    25
100
AcDbLine
 10
-1.468503937
 20
3.9812020478
 30
0.0
 11
-1.468503937
 21
4.2865144876
 31
0.0
  0
LINE
  5
2AB
330
1F
100
AcDbEntity
  8
0
  6
Continuous
 62
     7
370
    25
100
AcDbLine
 10
-1.717284207
 20
4.3317086614
 30
0.0
 11
-1.5116506576
 21
4.3317086614
 31
0.0
  0
LINE
  5
2AC
330
1F
100
AcDbEntity
  8
0
  6
Continuous
 62
     7
370
    25
100
AcDbLine
 10
-1.717284207
 20
4.3307086614
 30
0.0
 11
-1.717284207
 21
4.3317086614
 31
0.0
  0
LINE
  5
2AD
330
1F
100
AcDbEntity
  8
0
  6
Continuous
 62
     7
370
    25
100
AcDbLine
 10
-1.717284207
 20
4.3307086614
 30
0.0
 11
-1.718503937
 21
4.3307086614
 31
0.0
  0
LINE
  5
2AE
330
1F
100
AcDbEntity
  8
0
  6
Continuous
 62
     7
370
    25
100
AcDbLine
 10
-1.718503937
 20
4.3307086614
 30
0.0
 11
-1.718503937
 21
4.7244094488
 31
0.0
  0
LINE
  5
2AF
330
1F
100
AcDbEntity
  8
0
  6
Continuous
 62
     7
370
    25
100
AcDbLine
 10
-1.718503937
 20
4.7244094488
 30
0.0
 11
-1.717284207
 21
4.7244094488
 31
0.0
  0
LINE
  5
2B0
330
1F
100
AcDbEntity
  8
0
  6
Continuous
 62
     7
370
    25
100
AcDbLine
 10
-1.717284207
 20
4.7234094488
 30
0.0
 11
-1.717284207
 21
4.7244094488
 31
0.0
  0
LINE
  5
2B1
330
1F
100
AcDbEntity
  8
0
  6
Continuous
 62
     7
370
    25
100
AcDbLine
 10
-1.5116506576
 20
4.7234094488
 30
0.0
 11
-1.717284207
 21
4.7234094488
 31
0.0
  0
LINE
  5
2B2
330
1F
100
AcDbEntity
  8
0
  6
Continuous
 62
     7
370
    25
100
AcDbLine
 10
-1.468503937
 20
4.7686036226
 30
0.0
 11
-1.468503937
 21
5.0739160624
 31
0.0
  0
LINE
  5
2B3
330
1F
100
AcDbEntity
  8
0
  6
Continuous
 62
     7
370
    25
100
AcDbLine
 10
-1.717284207
 20
5.1191102362
 30
0.0
 11
-1.5116506576
 21
5.1191102362
 31
0.0
  0
LINE
  5
2B4
330
1F
100
AcDbEntity
  8
0
  6
Continuous
 62
     7
370
    25
100
AcDbLine
 10
-1.717284207
 20
5.1181102362
 30
0.0
 11
-1.717284207
 21
5.1191102362
 31
0.0
  0
LINE
  5
2B5
330
1F
100
AcDbEntity
  8
0
  6
Continuous
 62
     7
370
    25
100
AcDbLine
 10
-0.5079310738
 20
0.2377952756
 30
0.0
 11
-0.4712980001
 21
0.2377952756
 31
0.0
  0
LINE
  5
2B6
330
1F
100
AcDbEntity
  8
0
  6
Continuous
 62
     7
370
    25
100
AcDbLine
 10
-0.5079310738
 20
0.1
 30
0.0
 11
-0.5079310738
 21
0.2377952756
 31
0.0
  0
LINE
  5
2B7
330
1F
100
AcDbEntity
  8
0
  6
Continuous
 62
     7
370
    25
100
AcDbLine
 10
-0.487960744
 20
0.1
 30
0.0
 11
-0.5079310738
 21
0.1
 31
0.0
  0
LINE
  5
2B8
330
1F
100
AcDbEntity
  8
0
  6
Continuous
 62
     7
370
    25
100
AcDbLine
 10
-0.487960744
 20
0.1599109894
 30
0.0
 11
-0.487960744
 21
0.1
 31
0.0
  0
LINE
  5
2B9
330
1F
100
AcDbEntity
  8
0
  6
Continuous
 62
     7
370
    25
100
AcDbLine
 10
-0.4795045575
 20
0.1599109894
 30
0.0
 11
-0.487960744
 21
0.1599109894
 31
0.0
  0
LINE
  5
2BA
330
1F
100
AcDbEntity
  8
0
  6
Continuous
 62
     7
370
    25
100
AcDbLine
 10
-0.4372236249
 20
0.1
 30
0.0
 11
-0.4570379365
 21
0.14302982
 31
0.0
  0
LINE
  5
2BB
330
1F
100
AcDbEntity
  8
0
  6
Continuous
 62
     7
370
    25
100
AcDbLine
 10
-0.4160675568
 20
0.1
 30
0.0
 11
-0.4372236249
 21
0.1
 31
0.0
  0
LINE
  5
2BC
330
1F
100
AcDbEntity
  8
0
  6
Continuous
 62
     7
370
    25
100
AcDbLine
 10
-0.437130014
 20
0.1459317585
 30
0.0
 11
-0.4160675568
 21
0.1
 31
0.0
  0
LINE
  5
2BD
330
1F
100
AcDbEntity
  8
0
  6
Continuous
 62
     7
370
    25
100
AcDbLine
 10
-0.6537144813
 20
0.1778842862
 30
0.0
 11
-0.6537144813
 21
0.1064591535
 31
0.0
  0
LINE
  5
2BE
330
1F
100
AcDbEntity
  8
0
  6
Continuous
 62
     7
370
    25
100
AcDbLine
 10
-0.7013936437
 20
0.1778842862
 30
0.0
 11
-0.6537144813
 21
0.1778842862
 31
0.0
  0
LINE
  5
2BF
330
1F
100
AcDbEntity
  8
0
  6
Continuous
 62
     7
370
    25
100
AcDbLine
 10
-0.7013936437
 20
0.1619080224
 30
0.0
 11
-0.7013936437
 21
0.1778842862
 31
0.0
  0
LINE
  5
2C0
330
1F
100
AcDbEntity
  8
0
  6
Continuous
 62
     7
370
    25
100
AcDbLine
 10
-0.6736848111
 20
0.1619080224
 30
0.0
 11
-0.7013936437
 21
0.1619080224
 31
0.0
  0
LINE
  5
2C1
330
1F
100
AcDbEntity
  8
0
  6
Continuous
 62
     7
370
    25
100
AcDbLine
 10
-0.6736848111
 20
0.116912373
 30
0.0
 11
-0.6736848111
 21
0.1619080224
 31
0.0
  0
LINE
  5
2C2
330
1F
100
AcDbEntity
  8
0
  6
Continuous
 62
     7
370
    25
100
AcDbLine
 10
-0.6537144813
 20
0.2338012096
 30
0.0
 11
-0.6537144813
 21
0.2158279128
 31
0.0
  0
LINE
  5
2C3
330
1F
100
AcDbEntity
  8
0
  6
Continuous
 62
     7
370
    25
100
AcDbLine
 10
-0.9972041538
 20
0.0720415383
 30
0.0
 11
-0.879379208
 21
0.0720415383
 31
0.0
  0
LINE
  5
2C4
330
1F
100
AcDbEntity
  8
0
  6
Continuous
 62
     7
370
    25
100
AcDbLine
 10
-0.9972041538
 20
0.0560652744
 30
0.0
 11
-0.9972041538
 21
0.0720415383
 31
0.0
  0
LINE
  5
2C5
330
1F
100
AcDbEntity
  8
0
  6
Continuous
 62
     7
370
    25
100
AcDbLine
 10
-0.879379208
 20
0.0560652744
 30
0.0
 11
-0.9972041538
 21
0.0560652744
 31
0.0
  0
LINE
  5
2C6
330
1F
100
AcDbEntity
  8
0
  6
Continuous
 62
     7
370
    25
100
AcDbLine
 10
-0.879379208
 20
0.0720415383
 30
0.0
 11
-0.879379208
 21
0.0560652744
 31
0.0
  0
LINE
  5
2C7
330
1F
100
AcDbEntity
  8
0
  6
Continuous
 62
     7
370
    25
100
AcDbLine
 10
-1.077085473
 20
0.1758872532
 30
0.0
 11
-1.0626381875
 21
0.1758872532
 31
0.0
  0
LINE
  5
2C8
330
1F
100
AcDbEntity
  8
0
  6
Continuous
 62
     7
370
    25
100
AcDbLine
 10
-1.077085473
 20
0.2218190118
 30
0.0
 11
-1.077085473
 21
0.1758872532
 31
0.0
  0
LINE
  5
2C9
330
1F
100
AcDbEntity
  8
0
  6
Continuous
 62
     7
370
    25
100
AcDbLine
 10
-1.0602355072
 20
0.2218190118
 30
0.0
 11
-1.077085473
 21
0.2218190118
 31
0.0
  0
LINE
  5
2CA
330
1F
100
AcDbEntity
  8
0
  6
Continuous
 62
     7
370
    25
100
AcDbLine
 10
-0.4711107783
 20
0.2218190118
 30
0.0
 11
-0.487960744
 21
0.2218190118
 31
0.0
  0
LINE
  5
2CB
330
1F
100
AcDbEntity
  8
0
  6
Continuous
 62
     7
370
    25
100
AcDbLine
 10
-0.487960744
 20
0.2218190118
 30
0.0
 11
-0.487960744
 21
0.1758872532
 31
0.0
  0
LINE
  5
2CC
330
1F
100
AcDbEntity
  8
0
  6
Continuous
 62
     7
370
    25
100
AcDbLine
 10
-0.487960744
 20
0.1758872532
 30
0.0
 11
-0.4735134586
 21
0.1758872532
 31
0.0
  0
LINE
  5
2CD
330
1F
100
AcDbEntity
  8
0
  6
Continuous
 62
     7
370
    25
100
AcDbLine
 10
-0.5614765206
 20
0.1459317585
 30
0.0
 11
-0.5848168435
 21
0.2217254008
 31
0.0
  0
LINE
  5
2CE
330
1F
100
AcDbEntity
  8
0
  6
Continuous
 62
     7
370
    25
100
AcDbLine
 10
-0.5848168435
 20
0.2217254008
 30
0.0
 11
-0.6087500357
 21
0.1459317585
 31
0.0
  0
LINE
  5
2CF
330
1F
100
AcDbEntity
  8
0
  6
Continuous
 62
     7
370
    25
100
AcDbLine
 10
-0.6087500357
 20
0.1459317585
 30
0.0
 11
-0.5614765206
 21
0.1459317585
 31
0.0
  0
LINE
  5
2D0
330
1F
100
AcDbEntity
  8
0
  6
Continuous
 62
     7
370
    25
100
AcDbLine
 10
-0.7971264122
 20
0.1459317585
 30
0.0
 11
-0.8204667351
 21
0.2217254008
 31
0.0
  0
LINE
  5
2D1
330
1F
100
AcDbEntity
  8
0
  6
Continuous
 62
     7
370
    25
100
AcDbLine
 10
-0.8204667351
 20
0.2217254008
 30
0.0
 11
-0.8443999273
 21
0.1459317585
 31
0.0
  0
LINE
  5
2D2
330
1F
100
AcDbEntity
  8
0
  6
Continuous
 62
     7
370
    25
100
AcDbLine
 10
-0.8443999273
 20
0.1459317585
 30
0.0
 11
-0.7971264122
 21
0.1459317585
 31
0.0
  0
ARC
  5
2D3
330
1F
100
AcDbEntity
  8
0
  6
Continuous
 62
     7
370
    25
100
AcDbCircle
 10
-1.4906010239
 20
5.5339081105
 30
0.0
 40
0.031249999999992
100
AcDbArc
 50
227.6553825213
 51
45.0000000001
  0
ARC
  5
2D4
330
1F
100
AcDbEntity
  8
0
  6
Continuous
 62
     7
370
    25
100
AcDbCircle
 10
-1.4906010239
 20
5.8834147241
 30
0.0
 40
0.0312499999999797
100
AcDbArc
 50
315.0
 51
132.3446174786
  0
ARC
  5
2D5
330
1F
100
AcDbEntity
  8
0
  6
Continuous
 62
     7
370
    25
100
AcDbCircle
 10
-1.4906010239
 20
6.3213096853
 30
0.0
 40
0.0312499999999863
100
AcDbArc
 50
227.6553825213
 51
45.0000000001
  0
ARC
  5
2D6
330
1F
100
AcDbEntity
  8
0
  6
Continuous
 62
     7
370
    25
100
AcDbCircle
 10
-1.4906010239
 20
6.6708162989
 30
0.0
 40
0.031249999999968
100
AcDbArc
 50
315.0
 51
132.3446174785
  0
ARC
  5
2D7
330
1F
100
AcDbEntity
  8
0
  6
Continuous
 62
     7
370
    25
100
AcDbCircle
 10
-1.4906010239
 20
7.1087112601
 30
0.0
 40
0.0312499999999736
100
AcDbArc
 50
227.6553825213
 51
45.0000000001
  0
ARC
  5
2D8
330
1F
100
AcDbEntity
  8
0
  6
Continuous
 62
     7
370
    25
100
AcDbCircle
 10
-1.4906010239
 20
7.4582178737
 30
0.0
 40
0.0312499999999875
100
AcDbArc
 50
315.0000000001
 51
132.3446174785
  0
ARC
  5
2D9
330
1F
100
AcDbEntity
  8
0
  6
Continuous
 62
     7
370
    25
100
AcDbCircle
 10
-0.9531994491
 20
7.8961128349
 30
0.0
 40
0.0312500000000045
100
AcDbArc
 50
225.0
 51
45.0
  0
ARC
  5
2DA
330
1F
100
AcDbEntity
  8
0
  6
Continuous
 62
     7
370
    25
100
AcDbCircle
 10
-0.5153044879
 20
7.8961128349
 30
0.0
 40
0.0312500000000105
100
AcDbArc
 50
135.0
 51
315.0
  0
ARC
  5
2DB
330
1F
100
AcDbEntity
  8
0
  6
Continuous
 62
     7
370
    25
100
AcDbCircle
 10
0.0220970869
 20
7.4561968063
 30
0.0
 40
0.0312499999999839
100
AcDbArc
 50
53.492687459
 51
126.507312541
  0
ARC
  5
2DC
330
1F
100
AcDbEntity
  8
0
  6
Continuous
 62
     7
370
    25
100
AcDbCircle
 10
0.0220970869
 20
7.4561968063
 30
0.0
 40
0.0312499999999541
100
AcDbArc
 50
133.3045200127
 51
225.0000000001
  0
ARC
  5
2DD
330
1F
100
AcDbEntity
  8
0
  6
Continuous
 62
     7
370
    25
100
AcDbCircle
 10
0.0220970869
 20
7.1087112601
 30
0.0
 40
0.0312500000000051
100
AcDbArc
 50
134.9999999999
 51
226.6954799873
  0
ARC
  5
2DE
330
1F
100
AcDbEntity
  8
0
  6
Continuous
 62
     7
370
    25
100
AcDbCircle
 10
0.0220970869
 20
7.1087112601
 30
0.0
 40
0.0312500000000042
100
AcDbArc
 50
233.4926874588
 51
306.5073125412
  0
ARC
  5
2DF
330
1F
100
AcDbEntity
  8
0
  6
Continuous
 62
     7
370
    25
100
AcDbCircle
 10
0.0220970869
 20
6.6708162989
 30
0.0
 40
0.0312499999999673
100
AcDbArc
 50
47.6553825215
 51
132.3446174785
  0
ARC
  5
2E0
330
1F
100
AcDbEntity
  8
0
  6
Continuous
 62
     7
370
    25
100
AcDbCircle
 10
0.0220970869
 20
6.6708162989
 30
0.0
 40
0.0312499999999687
100
AcDbArc
 50
133.3045200127
 51
225.0
  0
ARC
  5
2E1
330
1F
100
AcDbEntity
  8
0
  6
Continuous
 62
     7
370
    25
100
AcDbCircle
 10
0.0220970869
 20
6.3213096853
 30
0.0
 40
0.0312499999999909
100
AcDbArc
 50
134.9999999999
 51
226.6954799873
  0
ARC
  5
2E2
330
1F
100
AcDbEntity
  8
0
  6
Continuous
 62
     7
370
    25
100
AcDbCircle
 10
0.0220970869
 20
6.3213096853
 30
0.0
 40
0.0312499999999889
100
AcDbArc
 50
233.4926874588
 51
306.5073125412
  0
ARC
  5
2E3
330
1F
100
AcDbEntity
  8
0
  6
Continuous
 62
     7
370
    25
100
AcDbCircle
 10
0.0220970869
 20
5.8834147241
 30
0.0
 40
0.0312499999999697
100
AcDbArc
 50
47.6553825215
 51
132.3446174785
  0
ARC
  5
2E4
330
1F
100
AcDbEntity
  8
0
  6
Continuous
 62
     7
370
    25
100
AcDbCircle
 10
0.0220970869
 20
5.8834147241
 30
0.0
 40
0.0312499999999682
100
AcDbArc
 50
133.3045200128
 51
225.0
  0
ARC
  5
2E5
330
1F
100
AcDbEntity
  8
0
  6
Continuous
 62
     7
370
    25
100
AcDbCircle
 10
0.0220970869
 20
5.5339081105
 30
0.0
 40
0.0312499999999926
100
AcDbArc
 50
134.9999999999
 51
226.6954799873
  0
ARC
  5
2E6
330
1F
100
AcDbEntity
  8
0
  6
Continuous
 62
     7
370
    25
100
AcDbCircle
 10
0.0220970869
 20
5.5339081105
 30
0.0
 40
0.0312499999999932
100
AcDbArc
 50
233.4926874588
 51
306.5073125412
  0
ARC
  5
2E7
330
1F
100
AcDbEntity
  8
0
  6
Continuous
 62
     7
370
    25
100
AcDbCircle
 10
0.0220970869
 20
5.0960131493
 30
0.0
 40
0.0312499999999782
100
AcDbArc
 50
47.6553825215
 51
132.3446174785
  0
ARC
  5
2E8
330
1F
100
AcDbEntity
  8
0
  6
Continuous
 62
     7
370
    25
100
AcDbCircle
 10
0.0220970869
 20
5.0960131493
 30
0.0
 40
0.0312499999999796
100
AcDbArc
 50
133.3045200127
 51
225.0
  0
ARC
  5
2E9
330
1F
100
AcDbEntity
  8
0
  6
Continuous
 62
     7
370
    25
100
AcDbCircle
 10
0.0220970869
 20
4.7465065357
 30
0.0
 40
0.0312499999999919
100
AcDbArc
 50
134.9999999999
 51
226.6954799873
  0
ARC
  5
2EA
330
1F
100
AcDbEntity
  8
0
  6
Continuous
 62
     7
370
    25
100
AcDbCircle
 10
0.0220970869
 20
4.7465065357
 30
0.0
 40
0.0312499999999934
100
AcDbArc
 50
233.4926874588
 51
306.5073125412
  0
ARC
  5
2EB
330
1F
100
AcDbEntity
  8
0
  6
Continuous
 62
     7
370
    25
100
AcDbCircle
 10
0.0220970869
 20
4.3086115745
 30
0.0
 40
0.0312499999999932
100
AcDbArc
 50
47.6553825214
 51
132.3446174786
  0
ARC
  5
2EC
330
1F
100
AcDbEntity
  8
0
  6
Continuous
 62
     7
370
    25
100
AcDbCircle
 10
0.0220970869
 20
4.3086115745
 30
0.0
 40
0.0312499999999913
100
AcDbArc
 50
133.3045200127
 51
225.0
  0
ARC
  5
2ED
330
1F
100
AcDbEntity
  8
0
  6
Continuous
 62
     7
370
    25
100
AcDbCircle
 10
0.0220970869
 20
3.9591049609
 30
0.0
 40
0.0312499999999926
100
AcDbArc
 50
134.9999999999
 51
226.6954799873
  0
ARC
  5
2EE
330
1F
100
AcDbEntity
  8
0
  6
Continuous
 62
     7
370
    25
100
AcDbCircle
 10
0.0220970869
 20
3.9591049609
 30
0.0
 40
0.0312499999999923
100
AcDbArc
 50
233.4926874588
 51
306.5073125412
  0
ARC
  5
2EF
330
1F
100
AcDbEntity
  8
0
  6
Continuous
 62
     7
370
    25
100
AcDbCircle
 10
0.0220970869
 20
3.5212099997
 30
0.0
 40
0.03124999999998
100
AcDbArc
 50
47.6553825215
 51
132.3446174785
  0
ARC
  5
2F0
330
1F
100
AcDbEntity
  8
0
  6
Continuous
 62
     7
370
    25
100
AcDbCircle
 10
0.0220970869
 20
3.5212099997
 30
0.0
 40
0.0312499999999802
100
AcDbArc
 50
133.3045200127
 51
225.0
  0
ARC
  5
2F1
330
1F
100
AcDbEntity
  8
0
  6
Continuous
 62
     7
370
    25
100
AcDbCircle
 10
0.0220970869
 20
3.1717033861
 30
0.0
 40
0.0312499999999923
100
AcDbArc
 50
134.9999999999
 51
226.6954799873
  0
ARC
  5
2F2
330
1F
100
AcDbEntity
  8
0
  6
Continuous
 62
     7
370
    25
100
AcDbCircle
 10
0.0220970869
 20
3.1717033861
 30
0.0
 40
0.0312499999999903
100
AcDbArc
 50
233.4926874588
 51
306.5073125412
  0
ARC
  5
2F3
330
1F
100
AcDbEntity
  8
0
  6
Continuous
 62
     7
370
    25
100
AcDbCircle
 10
0.0220970869
 20
2.7338084249
 30
0.0
 40
0.0312499999999793
100
AcDbArc
 50
47.6553825214
 51
132.3446174786
  0
ARC
  5
2F4
330
1F
100
AcDbEntity
  8
0
  6
Continuous
 62
     7
370
    25
100
AcDbCircle
 10
0.0220970869
 20
2.7338084249
 30
0.0
 40
0.0312499999999799
100
AcDbArc
 50
133.3045200127
 51
225.0
  0
ARC
  5
2F5
330
1F
100
AcDbEntity
  8
0
  6
Continuous
 62
     7
370
    25
100
AcDbCircle
 10
0.0220970869
 20
2.3843018113
 30
0.0
 40
0.0312499999999919
100
AcDbArc
 50
134.9999999999
 51
226.6954799873
  0
ARC
  5
2F6
330
1F
100
AcDbEntity
  8
0
  6
Continuous
 62
     7
370
    25
100
AcDbCircle
 10
0.0220970869
 20
2.3843018113
 30
0.0
 40
0.0312499999999926
100
AcDbArc
 50
233.4926874588
 51
306.5073125412
  0
ARC
  5
2F7
330
1F
100
AcDbEntity
  8
0
  6
Continuous
 62
     7
370
    25
100
AcDbCircle
 10
0.0220970869
 20
1.9464068501
 30
0.0
 40
0.0312499999999672
100
AcDbArc
 50
47.6553825215
 51
132.3446174785
  0
ARC
  5
2F8
330
1F
100
AcDbEntity
  8
0
  6
Continuous
 62
     7
370
    25
100
AcDbCircle
 10
0.0220970869
 20
1.9464068501
 30
0.0
 40
0.031249999999967
100
AcDbArc
 50
133.3045200127
 51
225.0
  0
ARC
  5
2F9
330
1F
100
AcDbEntity
  8
0
  6
Continuous
 62
     7
370
    25
100
AcDbCircle
 10
0.0220970869
 20
1.5969002365
 30
0.0
 40
0.0312499999999798
100
AcDbArc
 50
135.0
 51
226.6954799873
  0
ARC
  5
2FA
330
1F
100
AcDbEntity
  8
0
  6
Continuous
 62
     7
370
    25
100
AcDbCircle
 10
0.0220970869
 20
1.5969002365
 30
0.0
 40
0.0312499999999797
100
AcDbArc
 50
233.4926874588
 51
306.5073125412
  0
ARC
  5
2FB
330
1F
100
AcDbEntity
  8
0
  6
Continuous
 62
     7
370
    25
100
AcDbCircle
 10
0.0220970869
 20
1.1590052753
 30
0.0
 40
0.0312499999999918
100
AcDbArc
 50
47.6553825214
 51
132.3446174786
  0
ARC
  5
2FC
330
1F
100
AcDbEntity
  8
0
  6
Continuous
 62
     7
370
    25
100
AcDbCircle
 10
0.0220970869
 20
1.1590052753
 30
0.0
 40
0.031249999999992
100
AcDbArc
 50
133.3045200127
 51
225.0
  0
ARC
  5
2FD
330
1F
100
AcDbEntity
  8
0
  6
Continuous
 62
     7
370
    25
100
AcDbCircle
 10
0.0220970869
 20
0.8094986617
 30
0.0
 40
0.0312499999999914
100
AcDbArc
 50
134.9999999999
 51
226.6954799873
  0
ARC
  5
2FE
330
1F
100
AcDbEntity
  8
0
  6
Continuous
 62
     7
370
    25
100
AcDbCircle
 10
0.0220970869
 20
0.8094986617
 30
0.0
 40
0.0312499999999912
100
AcDbArc
 50
233.4926874588
 51
306.5073125412
  0
ARC
  5
2FF
330
1F
100
AcDbEntity
  8
0
  6
Continuous
 62
     7
370
    25
100
AcDbCircle
 10
0.0220970869
 20
0.3716037005
 30
0.0
 40
0.0312499999999671
100
AcDbArc
 50
45.0000000001
 51
225.0
  0
ARC
  5
300
330
1F
100
AcDbEntity
  8
0
  6
Continuous
 62
     7
370
    25
100
AcDbCircle
 10
-0.5153044879
 20
-0.0220970869
 30
0.0
 40
0.0312500000000103
100
AcDbArc
 50
45.0
 51
225.0
  0
ARC
  5
301
330
1F
100
AcDbEntity
  8
0
  6
Continuous
 62
     7
370
    25
100
AcDbCircle
 10
-0.9531994491
 20
-0.0220970869
 30
0.0
 40
0.0312499999999841
100
AcDbArc
 50
315.0000000001
 51
135.0
  0
ARC
  5
302
330
1F
100
AcDbEntity
  8
0
  6
Continuous
 62
     7
370
    25
100
AcDbCircle
 10
-1.4906010239
 20
0.3716037005
 30
0.0
 40
0.0312499999999796
100
AcDbArc
 50
314.9999999999
 51
135.0
  0
ARC
  5
303
330
1F
100
AcDbEntity
  8
0
  6
Continuous
 62
     7
370
    25
100
AcDbCircle
 10
-1.4906010239
 20
0.8094986617
 30
0.0
 40
0.0312499999999795
100
AcDbArc
 50
227.6553825213
 51
45.0
  0
ARC
  5
304
330
1F
100
AcDbEntity
  8
0
  6
Continuous
 62
     7
370
    25
100
AcDbCircle
 10
-1.4906010239
 20
1.1590052753
 30
0.0
 40
0.0312499999999673
100
AcDbArc
 50
315.0
 51
132.3446174785
  0
ARC
  5
305
330
1F
100
AcDbEntity
  8
0
  6
Continuous
 62
     7
370
    25
100
AcDbCircle
 10
-1.4906010239
 20
1.5969002365
 30
0.0
 40
0.031249999999992
100
AcDbArc
 50
227.6553825213
 51
45.0000000001
  0
ARC
  5
306
330
1F
100
AcDbEntity
  8
0
  6
Continuous
 62
     7
370
    25
100
AcDbCircle
 10
-1.4906010239
 20
1.9464068501
 30
0.0
 40
0.0312499999999918
100
AcDbArc
 50
315.0
 51
132.3446174785
  0
ARC
  5
307
330
1F
100
AcDbEntity
  8
0
  6
Continuous
 62
     7
370
    25
100
AcDbCircle
 10
-1.4906010239
 20
2.3843018113
 30
0.0
 40
0.031249999999992
100
AcDbArc
 50
227.6553825213
 51
45.0000000001
  0
ARC
  5
308
330
1F
100
AcDbEntity
  8
0
  6
Continuous
 62
     7
370
    25
100
AcDbCircle
 10
-1.4906010239
 20
2.7338084249
 30
0.0
 40
0.03124999999998
100
AcDbArc
 50
315.0
 51
132.3446174786
  0
ARC
  5
309
330
1F
100
AcDbEntity
  8
0
  6
Continuous
 62
     7
370
    25
100
AcDbCircle
 10
-1.4906010239
 20
3.1717033861
 30
0.0
 40
0.0312499999999923
100
AcDbArc
 50
227.6553825213
 51
45.0000000001
  0
ARC
  5
30A
330
1F
100
AcDbEntity
  8
0
  6
Continuous
 62
     7
370
    25
100
AcDbCircle
 10
-1.4906010239
 20
3.5212099997
 30
0.0
 40
0.0312499999999924
100
AcDbArc
 50
315.0
 51
132.3446174785
  0
ARC
  5
30B
330
1F
100
AcDbEntity
  8
0
  6
Continuous
 62
     7
370
    25
100
AcDbCircle
 10
-1.4906010239
 20
3.9591049609
 30
0.0
 40
0.0312499999999924
100
AcDbArc
 50
227.6553825212
 51
45.0000000001
  0
ARC
  5
30C
330
1F
100
AcDbEntity
  8
0
  6
Continuous
 62
     7
370
    25
100
AcDbCircle
 10
-1.4906010239
 20
4.3086115745
 30
0.0
 40
0.0312499999999803
100
AcDbArc
 50
315.0
 51
132.3446174786
  0
ARC
  5
30D
330
1F
100
AcDbEntity
  8
0
  6
Continuous
 62
     7
370
    25
100
AcDbCircle
 10
-1.4906010239
 20
4.7465065357
 30
0.0
 40
0.0312499999999921
100
AcDbArc
 50
227.6553825213
 51
45.0000000001
  0
ARC
  5
30E
330
1F
100
AcDbEntity
  8
0
  6
Continuous
 62
     7
370
    25
100
AcDbCircle
 10
-1.4906010239
 20
5.0960131493
 30
0.0
 40
0.0312499999999918
100
AcDbArc
 50
315.0
 51
132.3446174785
  0
ENDSEC
  0
SECTION
  2
OBJECTS
  0
DICTIONARY
  5
C
330
0
100
AcDbDictionary
281
     1
  3
ACAD_GROUP
350
D
  3
ACAD_LAYOUT
350
1A
  3
ACAD_MLINESTYLE
350
17
  3
ACAD_PLOTSETTINGS
350
19
  3
ACAD_PLOTSTYLENAME
350
E
  3
ACAD_SCALELIST
350
47
  0
DICTIONARY
  5
D
102
{ACAD_REACTORS
330
C
102
}
330
C
100
AcDbDictionary
281
     1
  0
DICTIONARY
  5
1A
102
{ACAD_REACTORS
330
C
102
}
330
C
100
AcDbDictionary
281
     1
  3
Layout1
350
1E
  3
Layout2
350
26
  3
Model
350
22
  0
DICTIONARY
  5
17
102
{ACAD_REACTORS
330
C
102
}
330
C
100
AcDbDictionary
281
     1
  3
Standard
350
18
  0
DICTIONARY
  5
19
102
{ACAD_REACTORS
330
C
102
}
330
C
100
AcDbDictionary
281
     1
  0
ACDBDICTIONARYWDFLT
  5
E
102
{ACAD_REACTORS
330
C
102
}
330
C
100
AcDbDictionary
281
     1
  3
Normal
350
F
100
AcDbDictionaryWithDefault
340
F
  0
DICTIONARY
  5
47
102
{ACAD_REACTORS
330
C
102
}
330
C
100
AcDbDictionary
281
     1
  3
A0
350
48
  3
A1
350
49
  3
A2
350
4A
  3
A3
350
4B
  3
A4
350
4C
  3
A5
350
4D
  3
A6
350
4E
  3
A7
350
4F
  3
A8
350
50
  3
A9
350
51
  3
B0
350
52
  3
B1
350
53
  3
B2
350
54
  3
B3
350
55
  3
B4
350
56
  3
B5
350
57
  3
B6
350
58
  3
B7
350
59
  3
B8
350
5A
  3
B9
350
5B
  3
C0
350
5C
  3
C1
350
5D
  3
C2
350
5E
  3
C3
350
5F
  3
C4
350
60
  3
C5
350
61
  3
C6
350
62
  3
C7
350
63
  3
C8
350
64
  3
C9
350
65
  3
D0
350
66
  3
D1
350
67
  3
D2
350
68
  0
LAYOUT
  5
1E
102
{ACAD_REACTORS
330
1A
102
}
330
1A
100
AcDbPlotSettings
  1

  2
none_device
  4

  6

 40
0.0
 41
0.0
 42
0.0
 43
0.0
 44
0.0
 45
0.0
 46
0.0
 47
0.0
 48
0.0
 49
0.0
140
0.0
141
0.0
142
1.0
143
1.0
 70
   688
 72
     0
 73
     0
 74
     5
  7

 75
    16
147
1.0
148
0.0
149
0.0
100
AcDbLayout
  1
Layout1
 70
     1
 71
     1
 10
0.0
 20
0.0
 11
12.0
 21
9.0
 12
0.0
 22
0.0
 32
0.0
 14
1.0000000000E+20
 24
1.0000000000E+20
 34
1.0000000000E+20
 15
-1.0000000000E+20
 25
-1.0000000000E+20
 35
-1.0000000000E+20
146
0.0
 13
0.0
 23
0.0
 33
0.0
 16
1.0
 26
0.0
 36
0.0
 17
0.0
 27
1.0
 37
0.0
 76
     0
330
1B
  0
LAYOUT
  5
26
102
{ACAD_REACTORS
330
1A
102
}
330
1A
100
AcDbPlotSettings
  1

  2
none_device
  4

  6

 40
0.0
 41
0.0
 42
0.0
 43
0.0
 44
0.0
 45
0.0
 46
0.0
 47
0.0
 48
0.0
 49
0.0
140
0.0
141
0.0
142
1.0
143
1.0
 70
   688
 72
     0
 73
     0
 74
     5
  7

 75
    16
147
1.0
148
0.0
149
0.0
100
AcDbLayout
  1
Layout2
 70
     1
 71
     2
 10
0.0
 20
0.0
 11
0.0
 21
0.0
 12
0.0
 22
0.0
 32
0.0
 14
0.0
 24
0.0
 34
0.0
 15
0.0
 25
0.0
 35
0.0
146
0.0
 13
0.0
 23
0.0
 33
0.0
 16
1.0
 26
0.0
 36
0.0
 17
0.0
 27
1.0
 37
0.0
 76
     0
330
23
  0
LAYOUT
  5
22
102
{ACAD_REACTORS
330
1A
102
}
330
1A
100
AcDbPlotSettings
  1

  2
none_device
  4
ANSI_A_(11.00_x_8.50_Inches)
  6

 40
6.35
 41
19.05
 42
6.35000508
 43
19.05000254
 44
279.4
 45
215.9
 46
152.0912746109
 47
-11.5894229907
 48
0.0
 49
0.0
140
0.0
141
0.0
142
1.0048942172
143
1.0
 70
  1696
 72
     0
 73
     0
 74
     0
  7

 75
     0
147
0.5913241897
148
-39.4088153714
149
0.0
100
AcDbLayout
  1
Model
 70
     1
 71
     0
 10
0.0
 20
0.0
 11
12.0
 21
9.0
 12
0.0
 22
0.0
 32
0.0
 14
-1.718503937
 24
-0.25
 34
0.0
 15
0.25
 25
8.124015748
 35
0.0
146
0.0
 13
0.0
 23
0.0
 33
0.0
 16
1.0
 26
0.0
 36
0.0
 17
0.0
 27
1.0
 37
0.0
 76
     0
330
1F
331
29
  0
MLINESTYLE
  5
18
102
{ACAD_REACTORS
330
17
102
}
330
17
100
AcDbMlineStyle
  2
Standard
 70
     0
  3

 62
   256
 51
90.0
 52
90.0
 71
     2
 49
0.5
 62
   256
  6
BYLAYER
 49
-0.5
 62
   256
  6
BYLAYER
  0
ACDBPLACEHOLDER
  5
F
102
{ACAD_REACTORS
330
E
102
}
330
E
  0
SCALE
  5
48
102
{ACAD_REACTORS
330
47
102
}
330
47
100
AcDbScale
 70
     0
300
1:1
140
1.0
141
1.0
290
     1
  0
SCALE
  5
49
102
{ACAD_REACTORS
330
47
102
}
330
47
100
AcDbScale
 70
     0
300
1:2
140
1.0
141
2.0
290
     0
  0
SCALE
  5
4A
102
{ACAD_REACTORS
330
47
102
}
330
47
100
AcDbScale
 70
     0
300
1:4
140
1.0
141
4.0
290
     0
  0
SCALE
  5
4B
102
{ACAD_REACTORS
330
47
102
}
330
47
100
AcDbScale
 70
     0
300
1:5
140
1.0
141
5.0
290
     0
  0
SCALE
  5
4C
102
{ACAD_REACTORS
330
47
102
}
330
47
100
AcDbScale
 70
     0
300
1:8
140
1.0
141
8.0
290
     0
  0
SCALE
  5
4D
102
{ACAD_REACTORS
330
47
102
}
330
47
100
AcDbScale
 70
     0
300
1:10
140
1.0
141
10.0
290
     0
  0
SCALE
  5
4E
102
{ACAD_REACTORS
330
47
102
}
330
47
100
AcDbScale
 70
     0
300
1:16
140
1.0
141
16.0
290
     0
  0
SCALE
  5
4F
102
{ACAD_REACTORS
330
47
102
}
330
47
100
AcDbScale
 70
     0
300
1:20
140
1.0
141
20.0
290
     0
  0
SCALE
  5
50
102
{ACAD_REACTORS
330
47
102
}
330
47
100
AcDbScale
 70
     0
300
1:30
140
1.0
141
30.0
290
     0
  0
SCALE
  5
51
102
{ACAD_REACTORS
330
47
102
}
330
47
100
AcDbScale
 70
     0
300
1:40
140
1.0
141
40.0
290
     0
  0
SCALE
  5
52
102
{ACAD_REACTORS
330
47
102
}
330
47
100
AcDbScale
 70
     0
300
1:50
140
1.0
141
50.0
290
     0
  0
SCALE
  5
53
102
{ACAD_REACTORS
330
47
102
}
330
47
100
AcDbScale
 70
     0
300
1:100
140
1.0
141
100.0
290
     0
  0
SCALE
  5
54
102
{ACAD_REACTORS
330
47
102
}
330
47
100
AcDbScale
 70
     0
300
2:1
140
2.0
141
1.0
290
     0
  0
SCALE
  5
55
102
{ACAD_REACTORS
330
47
102
}
330
47
100
AcDbScale
 70
     0
300
4:1
140
4.0
141
1.0
290
     0
  0
SCALE
  5
56
102
{ACAD_REACTORS
330
47
102
}
330
47
100
AcDbScale
 70
     0
300
8:1
140
8.0
141
1.0
290
     0
  0
SCALE
  5
57
102
{ACAD_REACTORS
330
47
102
}
330
47
100
AcDbScale
 70
     0
300
10:1
140
10.0
141
1.0
290
     0
  0
SCALE
  5
58
102
{ACAD_REACTORS
330
47
102
}
330
47
100
AcDbScale
 70
     0
300
100:1
140
100.0
141
1.0
290
     0
  0
SCALE
  5
59
102
{ACAD_REACTORS
330
47
102
}
330
47
100
AcDbScale
 70
     0
300
1/128" = 1'-0"
140
0.0078125
141
12.0
290
     0
  0
SCALE
  5
5A
102
{ACAD_REACTORS
330
47
102
}
330
47
100
AcDbScale
 70
     0
300
1/64" = 1'-0"
140
0.015625
141
12.0
290
     0
  0
SCALE
  5
5B
102
{ACAD_REACTORS
330
47
102
}
330
47
100
AcDbScale
 70
     0
300
1/32" = 1'-0"
140
0.03125
141
12.0
290
     0
  0
SCALE
  5
5C
102
{ACAD_REACTORS
330
47
102
}
330
47
100
AcDbScale
 70
     0
300
1/16" = 1'-0"
140
0.0625
141
12.0
290
     0
  0
SCALE
  5
5D
102
{ACAD_REACTORS
330
47
102
}
330
47
100
AcDbScale
 70
     0
300
3/32" = 1'-0"
140
0.09375
141
12.0
290
     0
  0
SCALE
  5
5E
102
{ACAD_REACTORS
330
47
102
}
330
47
100
AcDbScale
 70
     0
300
1/8" = 1'-0"
140
0.125
141
12.0
290
     0
  0
SCALE
  5
5F
102
{ACAD_REACTORS
330
47
102
}
330
47
100
AcDbScale
 70
     0
300
3/16" = 1'-0"
140
0.1875
141
12.0
290
     0
  0
SCALE
  5
60
102
{ACAD_REACTORS
330
47
102
}
330
47
100
AcDbScale
 70
     0
300
1/4" = 1'-0"
140
0.25
141
12.0
290
     0
  0
SCALE
  5
61
102
{ACAD_REACTORS
330
47
102
}
330
47
100
AcDbScale
 70
     0
300
3/8" = 1'-0"
140
0.375
141
12.0
290
     0
  0
SCALE
  5
62
102
{ACAD_REACTORS
330
47
102
}
330
47
100
AcDbScale
 70
     0
300
1/2" = 1'-0"
140
0.5
141
12.0
290
     0
  0
SCALE
  5
63
102
{ACAD_REACTORS
330
47
102
}
330
47
100
AcDbScale
 70
     0
300
3/4" = 1'-0"
140
0.75
141
12.0
290
     0
  0
SCALE
  5
64
102
{ACAD_REACTORS
330
47
102
}
330
47
100
AcDbScale
 70
     0
300
1" = 1'-0"
140
1.0
141
12.0
290
     0
  0
SCALE
  5
65
102
{ACAD_REACTORS
330
47
102
}
330
47
100
AcDbScale
 70
     0
300
1-1/2" = 1'-0"
140
1.5
141
12.0
290
     0
  0
SCALE
  5
66
102
{ACAD_REACTORS
330
47
102
}
330
47
100
AcDbScale
 70
     0
300
3" = 1'-0"
140
3.0
141
12.0
290
     0
  0
SCALE
  5
67
102
{ACAD_REACTORS
330
47
102
}
330
47
100
AcDbScale
 70
     0
300
6" = 1'-0"
140
6.0
141
12.0
290
     0
  0
SCALE
  5
68
102
{ACAD_REACTORS
330
47
102
}
330
47
100
AcDbScale
 70
     0
300
1'-0" = 1'-0"
140
12.0
141
12.0
290
     0
  0
ENDSEC
  0
EOF
