  0
SECTION
  2
HEADER
  9
$ACADVER
  1
AC1015
  9
$ACADMAINTVER
 70
     6
  9
$DWGCODEPAGE
  3
ANSI_1252
  9
$INSBASE
 10
0.0
 20
0.0
 30
0.0
  9
$EXTMIN
 10
-1.718503937
 20
-0.25
 30
0.0
  9
$EXTMAX
 10
0.25
 20
8.124015748
 30
0.0
  9
$LIMMIN
 10
0.0
 20
0.0
  9
$LIMMAX
 10
12.0
 20
9.0
  9
$ORTHOMODE
 70
     0
  9
$REGENMODE
 70
     1
  9
$FILLMODE
 70
     1
  9
$QTEXTMODE
 70
     0
  9
$MIRRTEXT
 70
     1
  9
$LTSCALE
 40
1.0
  9
$ATTMODE
 70
     1
  9
$TEXTSIZE
 40
0.1377952756
  9
$TRACEWID
 40
0.05
  9
$TEXTSTYLE
  7
Standard
  9
$CLAYER
  8
0
  9
$CELTYPE
  6
ByLayer
  9
$CECOLOR
 62
   256
  9
$CELTSCALE
 40
1.0
  9
$DISPSILH
 70
     0
  9
$DIMSCALE
 40
1.0
  9
$DIMASZ
 40
0.13
  9
$DIMEXO
 40
0.0393700787
  9
$DIMDLI
 40
0.38
  9
$DIMRND
 40
0.0
  9
$DIMDLE
 40
0.0
  9
$DIMEXE
 40
0.0393700787
  9
$DIMTP
 40
0.0
  9
$DIMTM
 40
0.0
  9
$DIMTXT
 40
0.1377952756
  9
$DIMCEN
 40
0.09
  9
$DIMTSZ
 40
0.0
  9
$DIMTOL
 70
     0
  9
$DIMLIM
 70
     0
  9
$DIMTIH
 70
     1
  9
$DIMTOH
 70
     1
  9
$DIMSE1
 70
     0
  9
$DIMSE2
 70
     0
  9
$DIMTAD
 70
     1
  9
$DIMZIN
 70
     1
  9
$DIMBLK
  1

  9
$DIMASO
 70
     1
  9
$DIMSHO
 70
     1
  9
$DIMPOST
  1

  9
$DIMAPOST
  1

  9
$DIMALT
 70
     0
  9
$DIMALTD
 70
     2
  9
$DIMALTF
 40
25.4
  9
$DIMLFAC
 40
1.0
  9
$DIMTOFL
 70
     0
  9
$DIMTVP
 40
0.0
  9
$DIMTIX
 70
     0
  9
$DIMSOXD
 70
     0
  9
$DIMSAH
 70
     0
  9
$DIMBLK1
  1

  9
$DIMBLK2
  1

  9
$DIMSTYLE
  2
Standard
  9
$DIMCLRD
 70
     0
  9
$DIMCLRE
 70
     0
  9
$DIMCLRT
 70
     0
  9
$DIMTFAC
 40
1.0
  9
$DIMGAP
 40
0.06
  9
$DIMJUST
 70
     0
  9
$DIMSD1
 70
     0
  9
$DIMSD2
 70
     0
  9
$DIMTOLJ
 70
     1
  9
$DIMTZIN
 70
     1
  9
$DIMALTZ
 70
     0
  9
$DIMALTTZ
 70
     0
  9
$DIMUPT
 70
     0
  9
$DIMDEC
 70
     2
  9
$DIMTDEC
 70
     2
  9
$DIMALTU
 70
     2
  9
$DIMALTTD
 70
     2
  9
$DIMTXSTY
  7
Standard
  9
$DIMAUNIT
 70
     0
  9
$DIMADEC
 70
     2
  9
$DIMALTRND
 40
0.0
  9
$DIMAZIN
 70
     0
  9
$DIMDSEP
 70
    46
  9
$DIMATFIT
 70
     3
  9
$DIMFRAC
 70
     0
  9
$DIMLDRBLK
  1

  9
$DIMLUNIT
 70
     2
  9
$DIMLWD
 70
    -2
  9
$DIMLWE
 70
    -2
  9
$DIMTMOVE
 70
     0
  9
$LUNITS
 70
     2
  9
$LUPREC
 70
     8
  9
$SKETCHINC
 40
0.1
  9
$FILLETRAD
 40
0.5
  9
$AUNITS
 70
     0
  9
$AUPREC
 70
     2
  9
$MENU
  1
.
  9
$ELEVATION
 40
0.0
  9
$PELEVATION
 40
0.0
  9
$THICKNESS
 40
0.0
  9
$LIMCHECK
 70
     0
  9
$CHAMFERA
 40
0.0
  9
$CHAMFERB
 40
0.0
  9
$CHAMFERC
 40
0.0
  9
$CHAMFERD
 40
0.0
  9
$SKPOLY
 70
     0
  9
$TDCREATE
 40
2458301.745242408
  9
$TDUCREATE
 40
2458301.911909074
  9
$TDUPDATE
 40
2458301.745271666
  9
$TDUUPDATE
 40
2458301.911938333
  9
$TDINDWG
 40
0.0000000116
  9
$TDUSRTIMER
 40
0.0000000116
  9
$USRTIMER
 70
     1
  9
$ANGBASE
 50
0.0
  9
$ANGDIR
 70
     0
  9
$PDMODE
 70
     0
  9
$PDSIZE
 40
-1.0
  9
$PLINEWID
 40
0.0
  9
$SPLFRAME
 70
     0
  9
$SPLINETYPE
 70
     6
  9
$SPLINESEGS
 70
     8
  9
$HANDSEED
  5
34F
  9
$SURFTAB1
 70
     6
  9
$SURFTAB2
 70
     6
  9
$SURFTYPE
 70
     6
  9
$SURFU
 70
     6
  9
$SURFV
 70
     6
  9
$UCSBASE
  2

  9
$UCSNAME
  2

  9
$UCSORG
 10
0.0
 20
0.0
 30
0.0
  9
$UCSXDIR
 10
1.0
 20
0.0
 30
0.0
  9
$UCSYDIR
 10
0.0
 20
1.0
 30
0.0
  9
$UCSORTHOREF
  2

  9
$UCSORTHOVIEW
 70
     0
  9
$UCSORGTOP
 10
0.0
 20
0.0
 30
0.0
  9
$UCSORGBOTTOM
 10
0.0
 20
0.0
 30
0.0
  9
$UCSORGLEFT
 10
0.0
 20
0.0
 30
0.0
  9
$UCSORGRIGHT
 10
0.0
 20
0.0
 30
0.0
  9
$UCSORGFRONT
 10
0.0
 20
0.0
 30
0.0
  9
$UCSORGBACK
 10
0.0
 20
0.0
 30
0.0
  9
$PUCSBASE
  2

  9
$PUCSNAME
  2

  9
$PUCSORG
 10
0.0
 20
0.0
 30
0.0
  9
$PUCSXDIR
 10
1.0
 20
0.0
 30
0.0
  9
$PUCSYDIR
 10
0.0
 20
1.0
 30
0.0
  9
$PUCSORTHOREF
  2

  9
$PUCSORTHOVIEW
 70
     0
  9
$PUCSORGTOP
 10
0.0
 20
0.0
 30
0.0
  9
$PUCSORGBOTTOM
 10
0.0
 20
0.0
 30
0.0
  9
$PUCSORGLEFT
 10
0.0
 20
0.0
 30
0.0
  9
$PUCSORGRIGHT
 10
0.0
 20
0.0
 30
0.0
  9
$PUCSORGFRONT
 10
0.0
 20
0.0
 30
0.0
  9
$PUCSORGBACK
 10
0.0
 20
0.0
 30
0.0
  9
$USERI1
 70
     0
  9
$USERI2
 70
     0
  9
$USERI3
 70
     0
  9
$USERI4
 70
     0
  9
$USERI5
 70
     0
  9
$USERR1
 40
0.0
  9
$USERR2
 40
0.0
  9
$USERR3
 40
0.0
  9
$USERR4
 40
0.0
  9
$USERR5
 40
0.0
  9
$WORLDVIEW
 70
     1
  9
$SHADEDGE
 70
     3
  9
$SHADEDIF
 70
    70
  9
$TILEMODE
 70
     1
  9
$MAXACTVP
 70
    64
  9
$PINSBASE
 10
0.0
 20
0.0
 30
0.0
  9
$PLIMCHECK
 70
     0
  9
$PEXTMIN
 10
1.0000000000E+20
 20
1.0000000000E+20
 30
1.0000000000E+20
  9
$PEXTMAX
 10
-1.0000000000E+20
 20
-1.0000000000E+20
 30
-1.0000000000E+20
  9
$PLIMMIN
 10
0.0
 20
0.0
  9
$PLIMMAX
 10
12.0
 20
9.0
  9
$UNITMODE
 70
     0
  9
$VISRETAIN
 70
     1
  9
$PLINEGEN
 70
     0
  9
$PSLTSCALE
 70
     1
  9
$TREEDEPTH
 70
  3020
  9
$CMLSTYLE
  2
Standard
  9
$CMLJUST
 70
     0
  9
$CMLSCALE
 40
1.0
  9
$PROXYGRAPHICS
 70
     1
  9
$MEASUREMENT
 70
     0
  9
$CELWEIGHT
370
    -1
  9
$ENDCAPS
280
     0
  9
$JOINSTYLE
280
     0
  9
$LWDISPLAY
290
     1
  9
$INSUNITS
 70
     1
  9
$HYPERLINKBASE
  1

  9
$STYLESHEET
  1

  9
$XEDIT
290
     1
  9
$CEPSNTYPE
380
     0
  9
$PSTYLEMODE
290
     1
  9
$FINGERPRINTGUID
  2
{010BE2BC-E03F-4A7A-82E1-324B126E7D5B}
  9
$VERSIONGUID
  2
{FAEB1C32-E019-11D5-929B-00C0DF256EC4}
  9
$EXTNAMES
290
     1
  9
$PSVPSCALE
 40
0.0
  9
$OLESTARTUP
290
     0
  0
ENDSEC
  0
SECTION
  2
CLASSES
  0
CLASS
  1
ACDBDICTIONARYWDFLT
  2
AcDbDictionaryWithDefault
  3
ObjectDBX Classes
 90
        0
280
     0
281
     0
  0
CLASS
  1
VISUALSTYLE
  2
AcDbVisualStyle
  3
ObjectDBX Classes
 90
     4095
280
     0
281
     0
  0
CLASS
  1
MATERIAL
  2
AcDbMaterial
  3
ObjectDBX Classes
 90
     1153
280
     0
281
     0
  0
CLASS
  1
SCALE
  2
AcDbScale
  3
ObjectDBX Classes
 90
     1153
280
     0
281
     0
  0
CLASS
  1
TABLESTYLE
  2
AcDbTableStyle
  3
ObjectDBX Classes
 90
     4095
280
     0
281
     0
  0
CLASS
  1
MLEADERSTYLE
  2
AcDbMLeaderStyle
  3
ACDB_MLEADERSTYLE_CLASS
 90
     4095
280
     0
281
     0
  0
CLASS
  1
SUN
  2
AcDbSun
  3
SCENEOE
 90
     1153
280
     0
281
     0
  0
CLASS
  1
ACDBPLACEHOLDER
  2
AcDbPlaceHolder
  3
ObjectDBX Classes
 90
        0
280
     0
281
     0
  0
CLASS
  1
LAYOUT
  2
AcDbLayout
  3
ObjectDBX Classes
 90
        0
280
     0
281
     0
  0
ENDSEC
  0
SECTION
  2
TABLES
  0
TABLE
  2
VPORT
  5
8
330
0
100
AcDbSymbolTable
 70
     1
  0
VPORT
  5
29
330
8
100
AcDbSymbolTableRecord
100
AcDbViewportTableRecord
  2
*Active
 70
     0
 10
0.0
 20
0.0
 11
1.0
 21
1.0
 12
-0.7342519685
 22
3.937007874
 13
0.0
 23
0.0
 14
0.5
 24
0.5
 15
0.5
 25
0.5
 16
0.0
 26
0.0
 36
1.0
 17
0.0
 27
0.0
 37
0.0
 40
8.541496063
 41
0.2350728726
 42
50.0
 43
0.0
 44
0.0
 50
0.0
 51
0.0
 71
     0
 72
   100
 73
     1
 74
     3
 75
     0
 76
     0
 77
     0
 78
     0
281
     0
 65
     1
110
0.0
120
0.0
130
0.0
111
1.0
121
0.0
131
0.0
112
0.0
122
1.0
132
0.0
 79
     0
146
0.0
  0
ENDTAB
  0
TABLE
  2
LTYPE
  5
5
330
0
100
AcDbSymbolTable
 70
     6
  0
LTYPE
  5
14
330
5
100
AcDbSymbolTableRecord
100
AcDbLinetypeTableRecord
  2
ByBlock
 70
     0
  3

 72
    65
 73
     0
 40
0.0
  0
LTYPE
  5
15
330
5
100
AcDbSymbolTableRecord
100
AcDbLinetypeTableRecord
  2
ByLayer
 70
     0
  3

 72
    65
 73
     0
 40
0.0
  0
LTYPE
  5
16
330
5
100
AcDbSymbolTableRecord
100
AcDbLinetypeTableRecord
  2
Continuous
 70
     0
  3
Solid line
 72
    65
 73
     0
 40
0.0
  0
LTYPE
  5
6E
330
5
100
AcDbSymbolTableRecord
100
AcDbLinetypeTableRecord
  2
HIDDEN
 70
     0
  3
Hidden __ __ __ __ __ __ __ __ __ __ __ __ __ __
 72
    65
 73
     2
 40
0.075
 49
0.05
 74
     0
 49
-0.025
 74
     0
  0
LTYPE
  5
6F
330
5
100
AcDbSymbolTableRecord
100
AcDbLinetypeTableRecord
  2
PHANTOM
 70
     0
  3
Phantom ______  __  __  ______  __  __  ______
 72
    65
 73
     6
 40
0.5
 49
0.25
 74
     0
 49
-0.05
 74
     0
 49
0.05
 74
     0
 49
-0.05
 74
     0
 49
0.05
 74
     0
 49
-0.05
 74
     0
  0
LTYPE
  5
70
330
5
100
AcDbSymbolTableRecord
100
AcDbLinetypeTableRecord
  2
CENTER
 70
     0
  3
Center ____ _ ____ _ ____ _ ____ _ ____ _ ____
 72
    65
 73
     4
 40
0.4
 49
0.25
 74
     0
 49
-0.05
 74
     0
 49
0.05
 74
     0
 49
-0.05
 74
     0
  0
LTYPE
  5
71
330
5
100
AcDbSymbolTableRecord
100
AcDbLinetypeTableRecord
  2
CENTERX2
 70
     0
  3
Center (2x) ________  __  ________  __  _____
 72
    65
 73
     4
 40
0.8
 49
0.5
 74
     0
 49
-0.1
 74
     0
 49
0.1
 74
     0
 49
-0.1
 74
     0
  0
LTYPE
  5
72
330
5
100
AcDbSymbolTableRecord
100
AcDbLinetypeTableRecord
  2
DOT2
 70
     0
  3
Dot (.5x) ........................................
 72
    65
 73
     2
 40
0.025
 49
0.0
 74
     0
 49
-0.025
 74
     0
  0
ENDTAB
  0
TABLE
  2
LAYER
  5
2
330
0
100
AcDbSymbolTable
 70
     1
  0
LAYER
  5
10
330
2
100
AcDbSymbolTableRecord
100
AcDbLayerTableRecord
  2
0
 70
     0
 62
     7
  6
Continuous
370
    -3
390
F
  0
ENDTAB
  0
TABLE
  2
STYLE
  5
3
330
0
100
AcDbSymbolTable
 70
     1
  0
STYLE
  5
11
330
3
100
AcDbSymbolTableRecord
100
AcDbTextStyleTableRecord
  2
Standard
 70
     0
 40
0.0
 41
1.0
 50
0.0
 71
     0
 42
0.1377952756
  3
txt
  4

  0
ENDTAB
  0
TABLE
  2
VIEW
  5
6
330
0
100
AcDbSymbolTable
 70
     0
  0
ENDTAB
  0
TABLE
  2
UCS
  5
7
330
0
100
AcDbSymbolTable
 70
     0
  0
ENDTAB
  0
TABLE
  2
APPID
  5
9
330
0
100
AcDbSymbolTable
 70
     1
  0
APPID
  5
12
330
9
100
AcDbSymbolTableRecord
100
AcDbRegAppTableRecord
  2
ACAD
 70
     0
  0
ENDTAB
  0
TABLE
  2
DIMSTYLE
  5
A
330
0
100
AcDbSymbolTable
 70
     1
100
AcDbDimStyleTable
  0
DIMSTYLE
105
27
330
A
100
AcDbSymbolTableRecord
100
AcDbDimStyleTableRecord
  2
Standard
 70
     0
178
     0
340
11
  0
ENDTAB
  0
TABLE
  2
BLOCK_RECORD
  5
1
330
0
100
AcDbSymbolTable
 70
     1
  0
BLOCK_RECORD
  5
1F
330
1
100
AcDbSymbolTableRecord
100
AcDbBlockTableRecord
  2
*Model_Space
340
22
  0
BLOCK_RECORD
  5
1B
330
1
100
AcDbSymbolTableRecord
100
AcDbBlockTableRecord
  2
*Paper_Space
340
1E
  0
BLOCK_RECORD
  5
23
330
1
100
AcDbSymbolTableRecord
100
AcDbBlockTableRecord
  2
*Paper_Space0
340
26
  0
ENDTAB
  0
ENDSEC
  0
SECTION
  2
BLOCKS
  0
BLOCK
  5
20
330
1F
100
AcDbEntity
  8
0
100
AcDbBlockBegin
  2
*Model_Space
 70
     0
 10
0.0
 20
0.0
 30
0.0
  3
*Model_Space
  1

  0
ENDBLK
  5
21
330
1F
100
AcDbEntity
  8
0
100
AcDbBlockEnd
  0
BLOCK
  5
1C
330
1B
100
AcDbEntity
 67
     1
  8
0
100
AcDbBlockBegin
  2
*Paper_Space
 70
     0
 10
0.0
 20
0.0
 30
0.0
  3
*Paper_Space
  1

  0
ENDBLK
  5
1D
330
1B
100
AcDbEntity
 67
     1
  8
0
100
AcDbBlockEnd
  0
BLOCK
  5
24
330
23
100
AcDbEntity
  8
0
100
AcDbBlockBegin
  2
*Paper_Space0
 70
     0
 10
0.0
 20
0.0
 30
0.0
  3
*Paper_Space0
  1

  0
ENDBLK
  5
25
330
23
100
AcDbEntity
  8
0
100
AcDbBlockEnd
  0
ENDSEC
  0
SECTION
  2
ENTITIES
  0
SPLINE
  5
73
330
1F
100
AcDbEntity
  8
0
  6
Continuous
 62
     7
370
    25
100
AcDbSpline
210
0.0
220
0.0
230
1.0
 70
     8
 71
     3
 72
    13
 73
     9
 74
     0
 42
0.000000001
 43
0.00000001
 40
0.0
 40
0.0
 40
0.0
 40
0.0
 40
0.1294509456953406
 40
0.2566201255472119
 40
0.3819473118776174
 40
0.5059238020969647
 40
0.7532270438830023
 40
1.0
 40
1.0
 40
1.0
 40
1.0
 10
-1.278817007588721
 20
0.0639792308570145
 30
0.0
 10
-1.277380575191905
 20
0.0639998837803203
 30
0.0
 10
-1.274533029660037
 20
0.0640408255883787
 30
0.0
 10
-1.270313497029839
 20
0.0644694077014951
 30
0.0
 10
-1.266185396430251
 20
0.0651164908564017
 30
0.0
 10
-1.260810528130412
 20
0.0663338805495779
 30
0.0
 10
-1.254254810171861
 20
0.0684210754354369
 30
0.0
 10
-1.24930535017673
 20
0.0707861131169236
 30
0.0
 10
-1.246833276275244
 20
0.0719673627753074
 30
0.0
  0
SPLINE
  5
74
330
1F
100
AcDbEntity
  8
0
  6
Continuous
 62
     7
370
    25
100
AcDbSpline
210
0.0
220
0.0
230
1.0
 70
     8
 71
     3
 72
    23
 73
    19
 74
     0
 42
0.000000001
 43
0.00000001
 40
0.0
 40
0.0
 40
0.0
 40
0.0
 40
0.0840317394051692
 40
0.1627481493312725
 40
0.2368339841853695
 40
0.3065508913091592
 40
0.3719863846278454
 40
0.4340194086374984
 40
0.4926908591099676
 40
0.5491834289731913
 40
0.603684042456706
 40
0.6572913689677623
 40
0.7104988326918857
 40
0.7643749718134201
 40
0.8194274208576798
 40
0.8765172271270808
 40
0.9365368014155023
 40
1.0
 40
1.0
 40
1.0
 40
1.0
 10
-1.320723496519452
 20
0.1189912487161953
 30
0.0
 10
-1.320697760809306
 20
0.1167852329599259
 30
0.0
 10
-1.320647917271282
 20
0.1125127403961658
 30
0.0
 10
-1.320145193783951
 20
0.1063110297322849
 30
0.0
 10
-1.319304407635914
 20
0.1005279674820755
 30
0.0
 10
-1.318172944923833
 20
0.0951484991897963
 30
0.0
 10
-1.316675657729986
 20
0.0901865470761338
 30
0.0
 10
-1.314838830413435
 20
0.0856519016627874
 30
0.0
 10
-1.31268305348586
 20
0.0815204562961585
 30
0.0
 10
-1.310180722862219
 20
0.0778258624505253
 30
0.0
 10
-1.307362154815428
 20
0.0745344218721631
 30
0.0
 10
-1.304176341292072
 20
0.0717308698168665
 30
0.0
 10
-1.300732387208734
 20
0.0692739615468038
 30
0.0
 10
-1.296914277193633
 20
0.0673669946530722
 30
0.0
 10
-1.292837405002707
 20
0.0658006723734273
 30
0.0
 10
-1.2884262710931
 20
0.0647749484955927
 30
0.0
 10
-1.283726958305683
 20
0.064091840403443
 30
0.0
 10
-1.280483805621123
 20
0.0640174588110686
 30
0.0
 10
-1.278817007588721
 20
0.0639792308570145
 30
0.0
  0
SPLINE
  5
75
330
1F
100
AcDbEntity
  8
0
  6
Continuous
 62
     7
370
    25
100
AcDbSpline
210
0.0
220
0.0
230
1.0
 70
     8
 71
     3
 72
    23
 73
    19
 74
     0
 42
0.000000001
 43
0.00000001
 40
0.0
 40
0.0
 40
0.0
 40
0.0
 40
0.060088060977983
 40
0.1176379756965089
 40
0.1740257215812315
 40
0.2293076183001612
 40
0.284123763961517
 40
0.3385894723333623
 40
0.3938963141024486
 40
0.4501731553616627
 40
0.5081612737277335
 40
0.5681844856238029
 40
0.6313404136763837
 40
0.6978380847396183
 40
0.7674999478350822
 40
0.8409446074175858
 40
0.9181895397340784
 40
1.0
 40
1.0
 40
1.0
 40
1.0
 10
-1.279222654912697
 20
0.1738160447335407
 30
0.0
 10
-1.280775824393128
 20
0.1737826416376494
 30
0.0
 10
-1.283816556788514
 20
0.1737172464074041
 30
0.0
 10
-1.288257170474014
 20
0.1729502168841841
 30
0.0
 10
-1.292487155017072
 20
0.1718250531725162
 30
0.0
 10
-1.296469905203351
 20
0.1701783799829627
 30
0.0
 10
-1.300205207328858
 20
0.1681300171706665
 30
0.0
 10
-1.30362463545713
 20
0.165588798716905
 30
0.0
 10
-1.306793816482904
 20
0.162688890213155
 30
0.0
 10
-1.309645212726216
 20
0.1593520557933762
 30
0.0
 10
-1.312174457593929
 20
0.155619483958872
 30
0.0
 10
-1.314391295986437
 20
0.1514932437238204
 30
0.0
 10
-1.316339914591812
 20
0.1469919440023259
 30
0.0
 10
-1.317898976470168
 20
0.1420809711351766
 30
0.0
 10
-1.319198593983653
 20
0.1368223627303049
 30
0.0
 10
-1.320082481715056
 20
0.1311958189095135
 30
0.0
 10
-1.320616138950004
 20
0.1252111754248392
 30
0.0
 10
-1.320687032354583
 20
0.1211038564637736
 30
0.0
 10
-1.320723496519452
 20
0.1189912487161953
 30
0.0
  0
SPLINE
  5
76
330
1F
100
AcDbEntity
  8
0
  6
Continuous
 62
     7
370
    25
100
AcDbSpline
210
0.0
220
0.0
230
1.0
 70
     8
 71
     3
 72
    15
 73
    11
 74
     0
 42
0.000000001
 43
0.00000001
 40
0.0
 40
0.0
 40
0.0
 40
0.0
 40
0.1229518253937443
 40
0.2436493340016006
 40
0.3654458018314716
 40
0.4858589981462083
 40
0.6082520122149501
 40
0.7338071751990883
 40
0.8647999477413028
 40
0.9999999999999999
 40
0.9999999999999999
 40
0.9999999999999999
 40
0.9999999999999999
 10
-1.246833276275244
 20
0.1658279128152483
 30
0.0
 10
-1.248063702480108
 20
0.1664569681846246
 30
0.0
 10
-1.250501995074734
 20
0.1677035452184167
 30
0.0
 10
-1.254288465131697
 20
0.1693014333141697
 30
0.0
 10
-1.258132405220418
 20
0.1706688473984888
 30
0.0
 10
-1.262072532323576
 20
0.1717998472162837
 30
0.0
 10
-1.266111975969741
 20
0.1727136437075587
 30
0.0
 10
-1.270321516608942
 20
0.1733758941129534
 30
0.0
 10
-1.274712205752474
 20
0.1737442778822311
 30
0.0
 10
-1.277703412800979
 20
0.1737918717035692
 30
0.0
 10
-1.279222654912697
 20
0.1738160447335407
 30
0.0
  0
SPLINE
  5
78
330
1F
100
AcDbEntity
  8
0
  6
Continuous
 62
     7
370
    25
100
AcDbSpline
210
0.0
220
0.0
230
1.0
 70
     8
 71
     3
 72
    13
 73
     9
 74
     0
 42
0.000000001
 43
0.00000001
 40
0.0
 40
0.0
 40
0.0
 40
0.0
 40
0.1371061699383914
 40
0.2698431066498088
 40
0.3974532667587333
 40
0.520419035723221
 40
0.7614228402333063
 40
1.0
 40
1.0
 40
1.0
 40
1.0
 10
-1.280002745920342
 20
0.1897923085701265
 30
0.0
 10
-1.278452407176802
 20
0.1897759583947495
 30
0.0
 10
-1.275401135136277
 20
0.1897437790834909
 30
0.0
 10
-1.270916451008466
 20
0.1894421487165777
 30
0.0
 10
-1.266599683959652
 20
0.1890357433905342
 30
0.0
 10
-1.261113544484287
 20
0.1881378117999685
 30
0.0
 10
-1.254450211871011
 20
0.1866356351768726
 30
0.0
 10
-1.249363675639568
 20
0.1847428256537946
 30
0.0
 10
-1.246833276275244
 20
0.1838012096314068
 30
0.0
  0
SPLINE
  5
79
330
1F
100
AcDbEntity
  8
0
  6
Continuous
 62
     7
370
    25
100
AcDbSpline
210
0.0
220
0.0
230
1.0
 70
     8
 71
     3
 72
    23
 73
    19
 74
     0
 42
0.000000001
 43
0.00000001
 40
0.0
 40
0.0
 40
0.0
 40
0.0
 40
0.0762236969409297
 40
0.1492541184144699
 40
0.218962343152686
 40
0.2862645951784962
 40
0.3508726152949523
 40
0.4127356938289323
 40
0.4725305916637861
 40
0.5304846429257284
 40
0.5872753430613767
 40
0.6438115245597018
 40
0.700207078972827
 40
0.7573436374772592
 40
0.8154020232090153
 40
0.875024393929283
 40
0.9360604522577453
 40
1.0
 40
1.0
 40
1.0
 40
1.0
 10
-1.340693826315184
 20
0.117368659420292
 30
0.0
 10
-1.340635693243079
 20
0.1200745745750026
 30
0.0
 10
-1.340521862495215
 20
0.1253730446981929
 30
0.0
 10
-1.339756188451363
 20
0.1331191390762509
 30
0.0
 10
-1.338393986101084
 20
0.1404565492296575
 30
0.0
 10
-1.336590484222457
 20
0.1473926519934187
 30
0.0
 10
-1.334201138644258
 20
0.1538536242490574
 30
0.0
 10
-1.331404135118704
 20
0.1598553188958582
 30
0.0
 10
-1.328120366122773
 20
0.1653346319463095
 30
0.0
 10
-1.324396106680408
 20
0.1703020483929132
 30
0.0
 10
-1.320211389640678
 20
0.1747300823831655
 30
0.0
 10
-1.31562019006937
 20
0.1786519432476374
 30
0.0
 10
-1.310582834007209
 20
0.1820037829291213
 30
0.0
 10
-1.305171634724418
 20
0.1848258323538846
 30
0.0
 10
-1.299363660405889
 20
0.1870559801702499
 30
0.0
 10
-1.293205169584484
 20
0.1886217482702792
 30
0.0
 10
-1.286713721882
 20
0.1896350122855725
 30
0.0
 10
-1.28227411885807
 20
0.189739070631862
 30
0.0
 10
-1.280002745920342
 20
0.1897923085701265
 30
0.0
  0
SPLINE
  5
7A
330
1F
100
AcDbEntity
  8
0
  6
Continuous
 62
     7
370
    25
100
AcDbSpline
210
0.0
220
0.0
230
1.0
 70
     8
 71
     3
 72
    23
 73
    19
 74
     0
 42
0.000000001
 43
0.00000001
 40
0.0
 40
0.0
 40
0.0
 40
0.0
 40
0.0670231464823978
 40
0.130582773009068
 40
0.1909308857793587
 40
0.2488854419887255
 40
0.3052012834861851
 40
0.3603754908431914
 40
0.4152850020816805
 40
0.4704616393960706
 40
0.526916187144493
 40
0.5848545470667003
 40
0.6449086826340926
 40
0.7081609972427745
 40
0.7747989577248985
 40
0.845379134638202
 40
0.9201393848946395
 40
1.0
 40
1.0
 40
1.0
 40
1.0
 10
-1.281032466050435
 20
0.0480029670204292
 30
0.0
 10
-1.28336462119448
 20
0.0480571650689308
 30
0.0
 10
-1.2879084139255
 20
0.048162760401835
 30
0.0
 10
-1.294514076336607
 20
0.048973409779113
 30
0.0
 10
-1.300699251208474
 20
0.0503482548024993
 30
0.0
 10
-1.306482133406054
 20
0.0522452368799829
 30
0.0
 10
-1.31185289311691
 20
0.0547111351650334
 30
0.0
 10
-1.316784234256245
 20
0.0577692455022748
 30
0.0
 10
-1.321307421621577
 20
0.061339532897796
 30
0.0
 10
-1.325395271127163
 20
0.0654651111134271
 30
0.0
 10
-1.329030984120307
 20
0.0701305159239385
 30
0.0
 10
-1.33214314275388
 20
0.0753550096422789
 30
0.0
 10
-1.334827529661489
 20
0.0810743027586052
 30
0.0
 10
-1.336935245234083
 20
0.0873476036835447
 30
0.0
 10
-1.338683988878736
 20
0.0941075724504024
 30
0.0
 10
-1.339820284526245
 20
0.101402936697458
 30
0.0
 10
-1.340558569371603
 20
0.109209241697144
 30
0.0
 10
-1.340647759978985
 20
0.1145896931796579
 30
0.0
 10
-1.340693826315184
 20
0.117368659420292
 30
0.0
  0
SPLINE
  5
7B
330
1F
100
AcDbEntity
  8
0
  6
Continuous
 62
     7
370
    25
100
AcDbSpline
210
0.0
220
0.0
230
1.0
 70
     8
 71
     3
 72
    11
 73
     7
 74
     0
 42
0.000000001
 43
0.00000001
 40
0.0
 40
0.0
 40
0.0
 40
0.0
 40
0.2486186933577399
 40
0.4959779292385397
 40
0.7466774047198509
 40
1.0
 40
1.0
 40
1.0
 40
1.0
 10
-1.246833276275244
 20
0.0539940659591484
 30
0.0
 10
-1.249574619412261
 20
0.0530680192664427
 30
0.0
 10
-1.255043418536202
 20
0.0512206170666188
 30
0.0
 10
-1.26354572897335
 20
0.0493802718916561
 30
0.0
 10
-1.27222105047243
 20
0.0482148024246953
 30
0.0
 10
-1.278085154525844
 20
0.0480738233910978
 30
0.0
 10
-1.281032466050435
 20
0.0480029670204292
 30
0.0
  0
SPLINE
  5
7D
330
1F
100
AcDbEntity
  8
0
  6
Continuous
 62
     7
370
    25
100
AcDbSpline
210
0.0
220
0.0
230
1.0
 70
     8
 71
     3
 72
    15
 73
    11
 74
     0
 42
0.000000001
 43
0.00000001
 40
0.0
 40
0.0
 40
0.0
 40
0.0
 40
0.1113525621013524
 40
0.2209309255260343
 40
0.3311251909260317
 40
0.443649188274154
 40
0.5643761418057452
 40
0.6964797497374366
 40
0.842107901972891
 40
0.9999999999999999
 40
0.9999999999999999
 40
0.9999999999999999
 40
0.9999999999999999
 10
-1.043884799726117
 20
0.1144979245121553
 30
0.0
 10
-1.042967154513754
 20
0.1141613525435872
 30
0.0
 10
-1.041146485081042
 20
0.1134935712629535
 30
0.0
 10
-1.038643205607555
 20
0.11200649532754
 30
0.0
 10
-1.036288777823614
 20
0.1102779823071481
 30
0.0
 10
-1.034229777183975
 20
0.1080689482116775
 30
0.0
 10
-1.032216621969559
 20
0.1055808079369973
 30
0.0
 10
-1.030221093377136
 20
0.1027138118688593
 30
0.0
 10
-1.028194664436877
 20
0.0994784322072758
 30
0.0
 10
-1.026918570599422
 20
0.0971454056074021
 30
0.0
 10
-1.026254742953322
 20
0.0959317585301861
 30
0.0
  0
SPLINE
  5
7E
330
1F
100
AcDbEntity
  8
0
  6
Continuous
 62
     7
370
    25
100
AcDbSpline
210
0.0
220
0.0
230
1.0
 70
     8
 71
     3
 72
    23
 73
    19
 74
     0
 42
0.000000001
 43
0.00000001
 40
0.0
 40
0.0
 40
0.0
 40
0.0
 40
0.0645442690844643
 40
0.1269342817600564
 40
0.188726565410172
 40
0.2498083354624795
 40
0.3098390008115378
 40
0.3692223034933692
 40
0.4286832737432362
 40
0.4883798617341065
 40
0.5482501456441764
 40
0.6087657604725554
 40
0.6699858955025252
 40
0.7331387142663491
 40
0.7970632865401304
 40
0.8628148123436724
 40
0.9303182490782751
 40
1.0
 40
1.0
 40
1.0
 40
1.0
 10
-1.015177450644752
 20
0.1509437763893663
 30
0.0
 10
-1.015202387387102
 20
0.1498610302113993
 30
0.0
 10
-1.015251428572702
 20
0.1477316760428858
 30
0.0
 10
-1.015611887222724
 20
0.1445833367687261
 30
0.0
 10
-1.016157682844097
 20
0.1415215329416192
 30
0.0
 10
-1.016975490754783
 20
0.1385604444867508
 30
0.0
 10
-1.018006785096751
 20
0.1357116138792687
 30
0.0
 10
-1.019252288335712
 20
0.1329772960999014
 30
0.0
 10
-1.020763729517951
 20
0.1303876810281259
 30
0.0
 10
-1.022474607719121
 20
0.1279157934155523
 30
0.0
 10
-1.024421284954838
 20
0.1256015529398326
 30
0.0
 10
-1.026571210879889
 20
0.1234371610606592
 30
0.0
 10
-1.028975798656029
 20
0.1214734364447451
 30
0.0
 10
-1.03154217501296
 20
0.1196283440422407
 30
0.0
 10
-1.034340534235715
 20
0.1179958090021447
 30
0.0
 10
-1.03734259737705
 20
0.1166009045445905
 30
0.0
 10
-1.040533087739248
 20
0.1154009484588498
 30
0.0
 10
-1.042755797859334
 20
0.1148021021161868
 30
0.0
 10
-1.043884799726117
 20
0.1144979245121553
 30
0.0
  0
SPLINE
  5
7F
330
1F
100
AcDbEntity
  8
0
  6
Continuous
 62
     7
370
    25
100
AcDbSpline
210
0.0
220
0.0
230
1.0
 70
     8
 71
     3
 72
    23
 73
    19
 74
     0
 42
0.000000001
 43
0.00000001
 40
0.0
 40
0.0
 40
0.0
 40
0.0
 40
0.0868773302242268
 40
0.1675014716055824
 40
0.2427475008353475
 40
0.3126603416393021
 40
0.3779946034993812
 40
0.4397338850260997
 40
0.4985052936180565
 40
0.5543760393236224
 40
0.6088184466666485
 40
0.6619725906622712
 40
0.7152695750975288
 40
0.7692730547064734
 40
0.824499135452881
 40
0.8807629267760524
 40
0.9393973148271854
 40
1.0
 40
1.0
 40
1.0
 40
1.0
 10
-1.060422729088208
 20
0.1877952755905532
 30
0.0
 10
-1.058497282285474
 20
0.1877703291587771
 30
0.0
 10
-1.05478497699106
 20
0.1877222318700711
 30
0.0
 10
-1.049424761828894
 20
0.18721520367741
 30
0.0
 10
-1.044483692921354
 20
0.1863972644004452
 30
0.0
 10
-1.039969388306292
 20
0.1852006020080224
 30
0.0
 10
-1.035851255452687
 20
0.1837383687881767
 30
0.0
 10
-1.032115181732811
 20
0.1819909708225264
 30
0.0
 10
-1.028760657259403
 20
0.1799685358579386
 30
0.0
 10
-1.025800497655565
 20
0.1776609204794373
 30
0.0
 10
-1.023183618050827
 20
0.1751426185213897
 30
0.0
 10
-1.020987555105926
 20
0.1723218101669726
 30
0.0
 10
-1.019125329181181
 20
0.1692835158071581
 30
0.0
 10
-1.01766384575534
 20
0.1659814090923878
 30
0.0
 10
-1.016555702291787
 20
0.1624806891461918
 30
0.0
 10
-1.015728535415723
 20
0.1587979510622608
 30
0.0
 10
-1.015266734410125
 20
0.1549289406294888
 30
0.0
 10
-1.0152075376287
 20
0.1522867033147537
 30
0.0
 10
-1.015177450644752
 20
0.1509437763893663
 30
0.0
  0
SPLINE
  5
85
330
1F
100
AcDbEntity
  8
0
  6
Continuous
 62
     7
370
    25
100
AcDbSpline
210
0.0
220
0.0
230
1.0
 70
     8
 71
     3
 72
    15
 73
    11
 74
     0
 42
0.000000001
 43
0.00000001
 40
0.0
 40
0.0
 40
0.0
 40
0.0
 40
0.167391854587001
 40
0.3105326767827669
 40
0.4353739153206078
 40
0.5489839509337435
 40
0.6555634230881738
 40
0.7631611935822884
 40
0.8757123458120044
 40
0.9999999999999999
 40
0.9999999999999999
 40
0.9999999999999999
 40
0.9999999999999999
 10
-1.046162665468443
 20
0.0930298199817434
 30
0.0
 10
-1.046878639758902
 20
0.0945553847766253
 30
0.0
 10
-1.048206860976549
 20
0.0973854969139745
 30
0.0
 10
-1.050545478407036
 20
0.1011016731287442
 30
0.0
 10
-1.052967636570625
 20
0.104095783166532
 30
0.0
 10
-1.055591383791507
 20
0.1063976286090454
 30
0.0
 10
-1.05845380779982
 20
0.1080769303385147
 30
0.0
 10
-1.061573042615093
 20
0.1091634089649326
 30
0.0
 10
-1.064994338242057
 20
0.1097949761642246
 30
0.0
 10
-1.067378258829508
 20
0.1098710615145243
 30
0.0
 10
-1.068629286488641
 20
0.1099109893871986
 30
0.0
  0
SPLINE
  5
99
330
1F
100
AcDbEntity
  8
0
  6
Continuous
 62
     7
370
    25
100
AcDbSpline
210
0.0
220
0.0
230
1.0
 70
     8
 71
     3
 72
    15
 73
    11
 74
     0
 42
0.000000001
 43
0.00000001
 40
0.0
 40
0.0
 40
0.0
 40
0.0
 40
0.1113525621013503
 40
0.2209309255260303
 40
0.33112519092603
 40
0.4436491882741527
 40
0.5643761418057444
 40
0.6964797497374345
 40
0.8421079019728906
 40
1.0
 40
1.0
 40
1.0
 40
1.0
 10
-0.4547600707520214
 20
0.1144979245121553
 30
0.0
 10
-0.4538424255396576
 20
0.1141613525435872
 30
0.0
 10
-0.4520217561069462
 20
0.1134935712629535
 30
0.0
 10
-0.4495184766334594
 20
0.11200649532754
 30
0.0
 10
-0.447164048849518
 20
0.1102779823071481
 30
0.0
 10
-0.4451050482098785
 20
0.1080689482116775
 30
0.0
 10
-0.4430918929954638
 20
0.1055808079369973
 30
0.0
 10
-0.44109636440304
 20
0.1027138118688593
 30
0.0
 10
-0.4390699354627817
 20
0.0994784322072758
 30
0.0
 10
-0.4377938416253262
 20
0.0971454056074021
 30
0.0
 10
-0.4371300139792267
 20
0.0959317585301861
 30
0.0
  0
SPLINE
  5
9A
330
1F
100
AcDbEntity
  8
0
  6
Continuous
 62
     7
370
    25
100
AcDbSpline
210
0.0
220
0.0
230
1.0
 70
     8
 71
     3
 72
    23
 73
    19
 74
     0
 42
0.000000001
 43
0.00000001
 40
0.0
 40
0.0
 40
0.0
 40
0.0
 40
0.0645442690844643
 40
0.1269342817600565
 40
0.1887265654101722
 40
0.2498083354624794
 40
0.3098390008115383
 40
0.3692223034933691
 40
0.4286832737432362
 40
0.4883798617341074
 40
0.5482501456441773
 40
0.6087657604725565
 40
0.6699858955025263
 40
0.7331387142663504
 40
0.7970632865401305
 40
0.8628148123436737
 40
0.9303182490782776
 40
1.0
 40
1.0
 40
1.0
 40
1.0
 10
-0.4260527216706566
 20
0.1509437763893663
 30
0.0
 10
-0.4260776584130063
 20
0.1498610302113993
 30
0.0
 10
-0.4261266995986068
 20
0.1477316760428858
 30
0.0
 10
-0.4264871582486289
 20
0.1445833367687261
 30
0.0
 10
-0.4270329538700011
 20
0.1415215329416192
 30
0.0
 10
-0.4278507617806872
 20
0.1385604444867508
 30
0.0
 10
-0.428882056122655
 20
0.1357116138792687
 30
0.0
 10
-0.430127559361616
 20
0.1329772960999014
 30
0.0
 10
-0.4316390005438557
 20
0.1303876810281259
 30
0.0
 10
-0.4333498787450253
 20
0.1279157934155523
 30
0.0
 10
-0.4352965559807415
 20
0.1256015529398326
 30
0.0
 10
-0.4374464819057938
 20
0.1234371610606592
 30
0.0
 10
-0.4398510696819325
 20
0.1214734364447451
 30
0.0
 10
-0.4424174460388649
 20
0.1196283440422407
 30
0.0
 10
-0.4452158052616195
 20
0.1179958090021447
 30
0.0
 10
-0.4482178684029541
 20
0.1166009045445905
 30
0.0
 10
-0.4514083587651525
 20
0.1154009484588504
 30
0.0
 10
-0.4536310688852382
 20
0.1148021021161868
 30
0.0
 10
-0.4547600707520214
 20
0.1144979245121553
 30
0.0
  0
SPLINE
  5
9B
330
1F
100
AcDbEntity
  8
0
  6
Continuous
 62
     7
370
    25
100
AcDbSpline
210
0.0
220
0.0
230
1.0
 70
     8
 71
     3
 72
    23
 73
    19
 74
     0
 42
0.000000001
 43
0.00000001
 40
0.0
 40
0.0
 40
0.0
 40
0.0
 40
0.0868773302242268
 40
0.1675014716055813
 40
0.2427475008353485
 40
0.312660341639302
 40
0.3779946034993812
 40
0.4397338850261007
 40
0.4985052936180565
 40
0.5543760393236232
 40
0.6088184466666492
 40
0.6619725906622719
 40
0.7152695750975294
 40
0.7692730547064737
 40
0.8244991354528817
 40
0.8807629267760527
 40
0.9393973148271857
 40
1.0
 40
1.0
 40
1.0
 40
1.0
 10
-0.4712980001141119
 20
0.1877952755905532
 30
0.0
 10
-0.4693725533113789
 20
0.1877703291587771
 30
0.0
 10
-0.4656602480169639
 20
0.1877222318700711
 30
0.0
 10
-0.4603000328547985
 20
0.18721520367741
 30
0.0
 10
-0.4553589639472583
 20
0.1863972644004452
 30
0.0
 10
-0.4508446593321962
 20
0.1852006020080224
 30
0.0
 10
-0.4467265264785912
 20
0.1837383687881767
 30
0.0
 10
-0.4429904527587154
 20
0.1819909708225264
 30
0.0
 10
-0.4396359282853075
 20
0.1799685358579386
 30
0.0
 10
-0.4366757686814686
 20
0.1776609204794373
 30
0.0
 10
-0.4340588890767313
 20
0.1751426185213897
 30
0.0
 10
-0.43186282613183
 20
0.1723218101669726
 30
0.0
 10
-0.4300006002070852
 20
0.1692835158071581
 30
0.0
 10
-0.4285391167812436
 20
0.1659814090923872
 30
0.0
 10
-0.4274309733176913
 20
0.1624806891461918
 30
0.0
 10
-0.4266038064416266
 20
0.1587979510622608
 30
0.0
 10
-0.4261420054360299
 20
0.1549289406294888
 30
0.0
 10
-0.4260828086546039
 20
0.1522867033147537
 30
0.0
 10
-0.4260527216706566
 20
0.1509437763893663
 30
0.0
  0
SPLINE
  5
A1
330
1F
100
AcDbEntity
  8
0
  6
Continuous
 62
     7
370
    25
100
AcDbSpline
210
0.0
220
0.0
230
1.0
 70
     8
 71
     3
 72
    15
 73
    11
 74
     0
 42
0.000000001
 43
0.00000001
 40
0.0
 40
0.0
 40
0.0
 40
0.0
 40
0.1673918545869996
 40
0.3105326767827663
 40
0.4353739153206069
 40
0.5489839509337424
 40
0.6555634230881725
 40
0.7631611935822846
 40
0.8757123458120003
 40
1.0
 40
1.0
 40
1.0
 40
1.0
 10
-0.457037936494347
 20
0.0930298199817434
 30
0.0
 10
-0.4577539107848059
 20
0.0945553847766253
 30
0.0
 10
-0.4590821320024533
 20
0.0973854969139745
 30
0.0
 10
-0.4614207494329399
 20
0.1011016731287442
 30
0.0
 10
-0.4638429075965296
 20
0.104095783166532
 30
0.0
 10
-0.4664666548174112
 20
0.1063976286090454
 30
0.0
 10
-0.4693290788257236
 20
0.1080769303385147
 30
0.0
 10
-0.4724483136409976
 20
0.1091634089649326
 30
0.0
 10
-0.4758696092679612
 20
0.1097949761642246
 30
0.0
 10
-0.4782535298554121
 20
0.1098710615145243
 30
0.0
 10
-0.4795045575145456
 20
0.1099109893871986
 30
0.0
  0
SPLINE
  5
A5
330
1F
100
AcDbEntity
  8
0
  6
Continuous
 62
     7
370
    25
100
AcDbSpline
210
0.0
220
0.0
230
1.0
 70
     8
 71
     3
 72
    13
 73
     9
 74
     0
 42
0.000000001
 43
0.00000001
 40
0.0
 40
0.0
 40
0.0
 40
0.0
 40
0.2629342745513349
 40
0.5143647563736857
 40
0.6373177871926479
 40
0.7589996230405909
 40
0.8797707883104338
 40
1.0
 40
1.0
 40
1.0
 40
1.0
 10
-0.6883817257217801
 20
0.1897923085701265
 30
0.0
 10
-0.6852785178592157
 20
0.189736384946692
 30
0.0
 10
-0.6792078724139669
 20
0.1896269844472998
 30
0.0
 10
-0.6717379766349415
 20
0.1886594131917333
 30
0.0
 10
-0.6659833050966527
 20
0.1875907179829858
 30
0.0
 10
-0.6617973074868913
 20
0.186553188811869
 30
0.0
 10
-0.6576980361609753
 20
0.185317453754057
 30
0.0
 10
-0.655040340769516
 20
0.1843058660641119
 30
0.0
 10
-0.6537144813420016
 20
0.1838012096314068
 30
0.0
  0
SPLINE
  5
A6
330
1F
100
AcDbEntity
  8
0
  6
Continuous
 62
     7
370
    25
100
AcDbSpline
210
0.0
220
0.0
230
1.0
 70
     8
 71
     3
 72
    23
 73
    19
 74
     0
 42
0.000000001
 43
0.00000001
 40
0.0
 40
0.0
 40
0.0
 40
0.0
 40
0.0742252771806095
 40
0.145224625134934
 40
0.2126888929148227
 40
0.2779431301589962
 40
0.3406829667072265
 40
0.4014210807773962
 40
0.4601092411464432
 40
0.5180957302352657
 40
0.5755133445412507
 40
0.6326683894261539
 40
0.6904145715872757
 40
0.7491594371175395
 40
0.8094359727667927
 40
0.8709469375778508
 40
0.934444516344957
 40
1.0
 40
1.0
 40
1.0
 40
1.0
 10
-0.755563163300235
 20
0.117368659420292
 30
0.0
 10
-0.7555024678537082
 20
0.1201273331466277
 30
0.0
 10
-0.7553837148654533
 20
0.1255247849715888
 30
0.0
 10
-0.7544812474678796
 20
0.1333900679844786
 30
0.0
 10
-0.7529452116038209
 20
0.1408124992139487
 30
0.0
 10
-0.7508370679117558
 20
0.1477742913128551
 30
0.0
 10
-0.7481516021129344
 20
0.1542671145221012
 30
0.0
 10
-0.7449239109981638
 20
0.1602288294308233
 30
0.0
 10
-0.741265371827428
 20
0.1657279643367559
 30
0.0
 10
-0.7370630421705995
 20
0.1706652527403907
 30
0.0
 10
-0.732403091397576
 20
0.175089310033406
 30
0.0
 10
-0.7272732422663284
 20
0.1789427310814479
 30
0.0
 10
-0.7217338609541639
 20
0.1822780831593052
 30
0.0
 10
-0.7157336198368759
 20
0.184984959916685
 30
0.0
 10
-0.7093671570481177
 20
0.1871307545886043
 30
0.0
 10
-0.7026535147373218
 20
0.1887063857857077
 30
0.0
 10
-0.695614477866438
 20
0.1896083569342802
 30
0.0
 10
-0.6908181375575276
 20
0.1897303429540214
 30
0.0
 10
-0.6883817257217801
 20
0.1897923085701265
 30
0.0
  0
SPLINE
  5
A7
330
1F
100
AcDbEntity
  8
0
  6
Continuous
 62
     7
370
    25
100
AcDbSpline
210
0.0
220
0.0
230
1.0
 70
     8
 71
     3
 72
    23
 73
    19
 74
     0
 42
0.000000001
 43
0.00000001
 40
0.0
 40
0.0
 40
0.0
 40
0.0
 40
0.0664750066251898
 40
0.1298691366212019
 40
0.1909170876040544
 40
0.2499362502088427
 40
0.3075602225872325
 40
0.3634113090814334
 40
0.4192531151601883
 40
0.4749632826029115
 40
0.5313346986072299
 40
0.5892934796499243
 40
0.64949221478871
 40
0.71231145361555
 40
0.778560625297998
 40
0.848196706536843
 40
0.9217767357109493
 40
1.0
 40
1.0
 40
1.0
 40
1.0
 10
-0.6929998644870433
 20
0.0480029670204292
 30
0.0
 10
-0.6953533808085525
 20
0.0480531280550509
 30
0.0
 10
-0.6999513364646027
 20
0.0481511253413865
 30
0.0
 10
-0.7066628259656639
 20
0.0490265698258735
 30
0.0
 10
-0.7130222443089907
 20
0.0503732507103396
 30
0.0
 10
-0.719016984529168
 20
0.0523136709441743
 30
0.0
 10
-0.7246033067747505
 20
0.0548037176536769
 30
0.0
 10
-0.7297883303983448
 20
0.0578315234025389
 30
0.0
 10
-0.7345427191281523
 20
0.0613887646303166
 30
0.0
 10
-0.7388496023561375
 20
0.06550598375829
 30
0.0
 10
-0.7426689173853357
 20
0.0701715553884517
 30
0.0
 10
-0.746074036845922
 20
0.0753417767044429
 30
0.0
 10
-0.7489104831437784
 20
0.0810972686480377
 30
0.0
 10
-0.7513793258226594
 20
0.0873328820164523
 30
0.0
 10
-0.7532646567765645
 20
0.0941216175763964
 30
0.0
 10
-0.7545825419444249
 20
0.1014234752990244
 30
0.0
 10
-0.755408797582526
 20
0.1092264134023572
 30
0.0
 10
-0.7555106694036541
 20
0.114599791910422
 30
0.0
 10
-0.755563163300235
 20
0.117368659420292
 30
0.0
  0
SPLINE
  5
A8
330
1F
100
AcDbEntity
  8
0
  6
Continuous
 62
     7
370
    25
100
AcDbSpline
210
0.0
220
0.0
230
1.0
 70
     8
 71
     3
 72
    15
 73
    11
 74
     0
 42
0.000000001
 43
0.00000001
 40
0.0
 40
0.0
 40
0.0
 40
0.0
 40
0.1215533759830856
 40
0.2468730645557066
 40
0.3746714108345272
 40
0.5031073905946045
 40
0.6316150506110909
 40
0.7582927467139837
 40
0.8812578156137546
 40
1.0
 40
1.0
 40
1.0
 40
1.0
 10
-0.6537144813420016
 20
0.0564591535433093
 30
0.0
 10
-0.6552150506769546
 20
0.0557956512310129
 30
0.0
 10
-0.6582626842560475
 20
0.0544480880897049
 30
0.0
 10
-0.6630308383827536
 20
0.0527527636416139
 30
0.0
 10
-0.667971886475831
 20
0.0512990180040708
 30
0.0
 10
-0.6730201064886612
 20
0.0500764357688683
 30
0.0
 10
-0.6781155796927973
 20
0.0491451363271827
 30
0.0
 10
-0.6831795539995081
 20
0.0485076668671305
 30
0.0
 10
-0.6881348396399511
 20
0.0480701656450151
 30
0.0
 10
-0.6913971884469094
 20
0.0480251041376976
 30
0.0
 10
-0.6929998644870433
 20
0.0480029670204292
 30
0.0
  0
SPLINE
  5
AE
330
1F
100
AcDbEntity
  8
0
  6
Continuous
 62
     7
370
    25
100
AcDbSpline
210
0.0
220
0.0
230
1.0
 70
     8
 71
     3
 72
    15
 73
    11
 74
     0
 42
0.000000001
 43
0.00000001
 40
0.0
 40
0.0
 40
0.0
 40
0.0
 40
0.118137707162631
 40
0.2453407520265896
 40
0.3782754322888174
 40
0.5101308509081703
 40
0.6425504600250245
 40
0.7708234786150034
 40
0.8918702657019147
 40
1.0
 40
1.0
 40
1.0
 40
1.0
 10
-0.6910652387880817
 20
0.0639792308570145
 30
0.0
 10
-0.6903680998912792
 20
0.0639942042544151
 30
0.0
 10
-0.6889203269040058
 20
0.0640253000380294
 30
0.0
 10
-0.6866932358494547
 20
0.0641895282094222
 30
0.0
 10
-0.6843913816962462
 20
0.0644266185087724
 30
0.0
 10
-0.6820744628532865
 20
0.0647859834421631
 30
0.0
 10
-0.6797897274435443
 20
0.0651712789114962
 30
0.0
 10
-0.6775901929040192
 20
0.0656641481731731
 30
0.0
 10
-0.6755604370537235
 20
0.0662445600119478
 30
0.0
 10
-0.6742860775789026
 20
0.0666982932749594
 30
0.0
 10
-0.6736848111377337
 20
0.066912373045763
 30
0.0
  0
SPLINE
  5
AF
330
1F
100
AcDbEntity
  8
0
  6
Continuous
 62
     7
370
    25
100
AcDbSpline
210
0.0
220
0.0
230
1.0
 70
     8
 71
     3
 72
    23
 73
    19
 74
     0
 42
0.000000001
 43
0.00000001
 40
0.0
 40
0.0
 40
0.0
 40
0.0
 40
0.0776967714840032
 40
0.1509619938714882
 40
0.2212415611529964
 40
0.2875559640017784
 40
0.3508859543665407
 40
0.4108762646889429
 40
0.4684338152580947
 40
0.5243810448878414
 40
0.5788733757496386
 40
0.6330758261547909
 40
0.6878469618937095
 40
0.7440192785930991
 40
0.8024561126406577
 40
0.8641267637851896
 40
0.9296015450136524
 40
1.0
 40
1.0
 40
1.0
 40
1.0
 10
-0.735592833504503
 20
0.1188040268743604
 30
0.0
 10
-0.7355639141166578
 20
0.116712590351286
 30
0.0
 10
-0.7355077248005857
 20
0.1126490054487402
 30
0.0
 10
-0.7350421895331071
 20
0.1067067955965649
 30
0.0
 10
-0.7342237774288551
 20
0.1011152044279137
 30
0.0
 10
-0.7331629778934324
 20
0.0958347599858085
 30
0.0
 10
-0.7316994430632053
 20
0.0909368017120626
 30
0.0
 10
-0.7298869197171391
 20
0.0864108757376797
 30
0.0
 10
-0.7277313816502303
 20
0.0822591876153557
 30
0.0
 10
-0.725209758746038
 20
0.078491810705115
 30
0.0
 10
-0.7222766120716247
 20
0.0751536961668392
 30
0.0
 10
-0.7189756254456762
 20
0.0722267029074337
 30
0.0
 10
-0.7152914314353326
 20
0.0697211924111583
 30
0.0
 10
-0.7112407454071188
 20
0.0676015879894098
 30
0.0
 10
-0.7067631375087822
 20
0.0659958639215275
 30
0.0
 10
-0.7019043281027907
 20
0.0647998975790366
 30
0.0
 10
-0.6966173522839035
 20
0.0641273289893761
 30
0.0
 10
-0.6929601193203478
 20
0.0640297752610671
 30
0.0
 10
-0.6910652387880817
 20
0.0639792308570145
 30
0.0
  0
SPLINE
  5
B0
330
1F
100
AcDbEntity
  8
0
  6
Continuous
 62
     7
370
    25
100
AcDbSpline
210
0.0
220
0.0
230
1.0
 70
     8
 71
     3
 72
    23
 73
    19
 74
     0
 42
0.000000001
 43
0.00000001
 40
0.0
 40
0.0
 40
0.0
 40
0.0
 40
0.0670981242722609
 40
0.1309759062433328
 40
0.1922163869542914
 40
0.251769808319032
 40
0.30968471942135
 40
0.3665125233135306
 40
0.4235187108853606
 40
0.4803720324276329
 40
0.5380321837013047
 40
0.5972742619708014
 40
0.6584306056386224
 40
0.7220421674016113
 40
0.7879120315897785
 40
0.8559727583910858
 40
0.9264611901366911
 40
1.0
 40
1.0
 40
1.0
 40
1.0
 10
-0.6882569111605569
 20
0.1738160447335407
 30
0.0
 10
-0.6900905037430431
 20
0.1737717767206386
 30
0.0
 10
-0.6936696865112187
 20
0.1736853653168861
 30
0.0
 10
-0.6988724145474817
 20
0.172905273790764
 30
0.0
 10
-0.7037846175098909
 20
0.1717195363889783
 30
0.0
 10
-0.7083472943604945
 20
0.1699497688583808
 30
0.0
 10
-0.7125832948763057
 20
0.1677597881542284
 30
0.0
 10
-0.7164920058761471
 20
0.1651482228619026
 30
0.0
 10
-0.7200507709474386
 20
0.162120146582614
 30
0.0
 10
-0.7232486226360783
 20
0.158685710259921
 30
0.0
 10
-0.7261200739197855
 20
0.1548938489711034
 30
0.0
 10
-0.7285579144677111
 20
0.1506766564875392
 30
0.0
 10
-0.7307407661411981
 20
0.1461427231349777
 30
0.0
 10
-0.7324922915483779
 20
0.1412318060264003
 30
0.0
 10
-0.733918624478646
 20
0.136020821996429
 30
0.0
 10
-0.7348356763666807
 20
0.13050870048372
 30
0.0
 10
-0.735512799462881
 20
0.1247494184818443
 30
0.0
 10
-0.7355657814523578
 20
0.1208136098034395
 30
0.0
 10
-0.735592833504503
 20
0.1188040268743604
 30
0.0
  0
SPLINE
  5
B1
330
1F
100
AcDbEntity
  8
0
  6
Continuous
 62
     7
370
    25
100
AcDbSpline
210
0.0
220
0.0
230
1.0
 70
     8
 71
     3
 72
    13
 73
     9
 74
     0
 42
0.000000001
 43
0.00000001
 40
0.0
 40
0.0
 40
0.0
 40
0.0
 40
0.243243211595846
 40
0.4850313067569414
 40
0.6072204693392954
 40
0.7333344144511423
 40
0.8647086109366648
 40
1.0
 40
1.0
 40
1.0
 40
1.0
 10
-0.6537144813420017
 20
0.1658279128152483
 30
0.0
 10
-0.6563655894644477
 20
0.1670070404202292
 30
0.0
 10
-0.6616519463931678
 20
0.1693582419165633
 30
0.0
 10
-0.6685986316302903
 20
0.1714685314332287
 30
0.0
 10
-0.6743149493246365
 20
0.1726872893736483
 30
0.0
 10
-0.6787971510445554
 20
0.1733332868539098
 30
0.0
 10
-0.6834642242983776
 20
0.1737551452849459
 30
0.0
 10
-0.6866437801443446
 20
0.1737955470894796
 30
0.0
 10
-0.688256911160557
 20
0.1738160447335412
 30
0.0
  0
SPLINE
  5
1D9
330
1F
100
AcDbEntity
  8
0
  6
Continuous
 62
     7
370
    25
100
AcDbSpline
210
0.0
220
0.0
230
1.0
 70
     8
 71
     3
 72
    23
 73
    19
 74
     0
 42
0.000000001
 43
0.00000001
 40
0.0
 40
0.0
 40
0.0
 40
0.0
 40
0.0883185412756538
 40
0.1707628188520273
 40
0.2481129497302159
 40
0.3205380252872243
 40
0.3887318452674177
 40
0.4528948993793669
 40
0.5138277762110268
 40
0.5718103414573779
 40
0.627694163194373
 40
0.6821529786681608
 40
0.7350705858118187
 40
0.7879872864828268
 40
0.8409148638009991
 40
0.8934284582672505
 40
0.9463433459463716
 40
1.0
 40
1.0
 40
1.0
 40
1.0
 10
-1.226862946479512
 20
0.1182111577085496
 30
0.0
 10
-1.226806946726606
 20
0.1211771634559753
 30
0.0
 10
-1.226698671889598
 20
0.1269118992752749
 30
0.0
 10
-1.22592846973612
 20
0.1352172394620366
 30
0.0
 10
-1.224603619735754
 20
0.1429108485566039
 30
0.0
 10
-1.22273118253389
 20
0.1499972047350862
 30
0.0
 10
-1.220385788632407
 20
0.1564709934677171
 30
0.0
 10
-1.217666727386244
 20
0.1623725018342492
 30
0.0
 10
-1.214600488175313
 20
0.1677151909368985
 30
0.0
 10
-1.211072871106412
 20
0.172424633848341
 30
0.0
 10
-1.207211695498287
 20
0.176564589803007
 30
0.0
 10
-1.203074655541991
 20
0.1801826701667108
 30
0.0
 10
-1.198579614332062
 20
0.1831683127219802
 30
0.0
 10
-1.193830211662729
 20
0.1856165873150034
 30
0.0
 10
-1.188832816810421
 20
0.1874659800444281
 30
0.0
 10
-1.183684993878799
 20
0.1888314414663404
 30
0.0
 10
-1.178386169865305
 20
0.1896156932480059
 30
0.0
 10
-1.174807335377277
 20
0.1897331642529038
 30
0.0
 10
-1.173005463311647
 20
0.1897923085701265
 30
0.0
  0
SPLINE
  5
1DA
330
1F
100
AcDbEntity
  8
0
  6
Continuous
 62
     7
370
    25
100
AcDbSpline
210
0.0
220
0.0
230
1.0
 70
     8
 71
     3
 72
    23
 73
    19
 74
     0
 42
0.000000001
 43
0.00000001
 40
0.0
 40
0.0
 40
0.0
 40
0.0
 40
0.0643822159306435
 40
0.1249677463958894
 40
0.1827770043240016
 40
0.238329213407383
 40
0.2928323044691568
 40
0.3464198064162143
 40
0.4005873274742638
 40
0.455970250230664
 40
0.5129066301956675
 40
0.5725400029265809
 40
0.6348907650354868
 40
0.7007484886169254
 40
0.7702344352114286
 40
0.843078362490546
 40
0.9195964992924064
 40
1.0
 40
1.0
 40
1.0
 40
1.0
 10
-1.175096107212138
 20
0.0480029670204292
 30
0.0
 10
-1.177221445153816
 20
0.0480609794170945
 30
0.0
 10
-1.181346787673671
 20
0.0481735831597512
 30
0.0
 10
-1.187322785406138
 20
0.0490987154438392
 30
0.0
 10
-1.192879826241658
 20
0.050580284876971
 30
0.0
 10
-1.198023067047508
 20
0.0526829539283468
 30
0.0
 10
-1.202712295572388
 20
0.0553877147689224
 30
0.0
 10
-1.207017007314333
 20
0.0585950084519828
 30
0.0
 10
-1.210868805639196
 20
0.0623771794661962
 30
0.0
 10
-1.214313320934756
 20
0.0666724083820399
 30
0.0
 10
-1.217323662636843
 20
0.071496635440498
 30
0.0
 10
-1.219898637322282
 20
0.076819603487132
 30
0.0
 10
-1.222087760211706
 20
0.0826268269072151
 30
0.0
 10
-1.223851125552115
 20
0.0889146101157214
 30
0.0
 10
-1.225213178944668
 20
0.0956538256611263
 30
0.0
 10
-1.226156829963873
 20
0.1028167688635569
 30
0.0
 10
-1.226771588043597
 20
0.1103786793942898
 30
0.0
 10
-1.226831995109918
 20
0.1155575885147677
 30
0.0
 10
-1.226862946479512
 20
0.1182111577085496
 30
0.0
  0
SPLINE
  5
1DB
330
1F
100
AcDbEntity
  8
0
  6
Continuous
 62
     7
370
    25
100
AcDbSpline
210
0.0
220
0.0
230
1.0
 70
     8
 71
     3
 72
    23
 73
    19
 74
     0
 42
0.000000001
 43
0.00000001
 40
0.0
 40
0.0
 40
0.0
 40
0.0
 40
0.0889426733846292
 40
0.1717495496105862
 40
0.2491397580278965
 40
0.3216955151105375
 40
0.3897623480778744
 40
0.4537064033341817
 40
0.5145872295454172
 40
0.5726195224083512
 40
0.628312603645557
 40
0.6821501603003117
 40
0.735401372309605
 40
0.7884122765523393
 40
0.8411592035098782
 40
0.8937922041332548
 40
0.9465264847635289
 40
1.0
 40
1.0
 40
1.0
 40
1.0
 10
-1.121020198562132
 20
0.119802543364147
 30
0.0
 10
-1.121071986089019
 20
0.1168049436592437
 30
0.0
 10
-1.121171988529691
 20
0.1110165365916536
 30
0.0
 10
-1.121995722244575
 20
0.10265314724402
 30
0.0
 10
-1.123301948901212
 20
0.0949116740855353
 30
0.0
 10
-1.125207733457515
 20
0.0878042619526052
 30
0.0
 10
-1.127599965670263
 20
0.0813323553274713
 30
0.0
 10
-1.130299769525624
 20
0.0754107495729569
 30
0.0
 10
-1.133423238502202
 20
0.0700866286135166
 30
0.0
 10
-1.136922066987033
 20
0.0653402588673525
 30
0.0
 10
-1.140788614446075
 20
0.0612126706789619
 30
0.0
 10
-1.144921272708435
 20
0.0575842378198147
 30
0.0
 10
-1.149456912803867
 20
0.0546362495018916
 30
0.0
 10
-1.154232182281512
 20
0.0521845818079063
 30
0.0
 10
-1.15924621363716
 20
0.0503227641094396
 30
0.0
 10
-1.164407443472455
 20
0.0489685827353942
 30
0.0
 10
-1.169715184978811
 20
0.048178750457375
 30
0.0
 10
-1.17329416292046
 20
0.0480618327588733
 30
0.0
 10
-1.175096107212138
 20
0.0480029670204292
 30
0.0
  0
SPLINE
  5
1DC
330
1F
100
AcDbEntity
  8
0
  6
Continuous
 62
     7
370
    25
100
AcDbSpline
210
0.0
220
0.0
230
1.0
 70
     8
 71
     3
 72
    23
 73
    19
 74
     0
 42
0.000000001
 43
0.00000001
 40
0.0
 40
0.0
 40
0.0
 40
0.0
 40
0.064487547066419
 40
0.1254843373721438
 40
0.1831673823408932
 40
0.2389312773785309
 40
0.2935235370469106
 40
0.3476407773461532
 40
0.4016769044177251
 40
0.4571504352103991
 40
0.5140819907875339
 40
0.5738104218972512
 40
0.6359679882252668
 40
0.7017169949564626
 40
0.7710712621534349
 40
0.8434520464853931
 40
0.9197806054801805
 40
1.0
 40
1.0
 40
1.0
 40
1.0
 10
-1.173005463311647
 20
0.1897923085701265
 30
0.0
 10
-1.170880480995043
 20
0.1897325115658672
 30
0.0
 10
-1.166745543165077
 20
0.1896161544116924
 30
0.0
 10
-1.160761821072099
 20
0.188713184695002
 30
0.0
 10
-1.155210306242886
 20
0.1871772451248883
 30
0.0
 10
-1.150085789941262
 20
0.1850447814077261
 30
0.0
 10
-1.145373138030938
 20
0.1823425155380541
 30
0.0
 10
-1.141077554465977
 20
0.1791125049990433
 30
0.0
 10
-1.137188538308517
 20
0.1753583777564447
 30
0.0
 10
-1.133768202813565
 20
0.1710556718986166
 30
0.0
 10
-1.130720899949612
 20
0.1662635022978678
 30
0.0
 10
-1.128063285673205
 20
0.1609930527012699
 30
0.0
 10
-1.125900616945812
 20
0.1551928500171026
 30
0.0
 10
-1.124089160023753
 20
0.1489462830555472
 30
0.0
 10
-1.122707133258576
 20
0.1422456786101741
 30
0.0
 10
-1.121714155102035
 20
0.1351272884040041
 30
0.0
 10
-1.121114603329558
 20
0.1276034516950076
 30
0.0
 10
-1.121052183940798
 20
0.1224455773306178
 30
0.0
 10
-1.121020198562132
 20
0.119802543364147
 30
0.0
  0
SPLINE
  5
1E2
330
1F
100
AcDbEntity
  8
0
  6
Continuous
 62
     7
370
    25
100
AcDbSpline
210
0.0
220
0.0
230
1.0
 70
     8
 71
     3
 72
    23
 73
    19
 74
     0
 42
0.000000001
 43
0.00000001
 40
0.0
 40
0.0
 40
0.0
 40
0.0
 40
0.0837837865740334
 40
0.1633737810051993
 40
0.2401936209728497
 40
0.3131701281876136
 40
0.3825315346574279
 40
0.447713671461044
 40
0.5094692673622433
 40
0.5683725021777566
 40
0.6242112973077659
 40
0.6780250935914044
 40
0.7302423316221456
 40
0.7817115669870759
 40
0.8330937936507293
 40
0.8862171938651231
 40
0.9411759468775145
 40
1.0
 40
1.0
 40
1.0
 40
1.0
 10
-1.20689261668378
 20
0.1193344887595593
 30
0.0
 10
-1.206868081034056
 20
0.1173160926052038
 30
0.0
 10
-1.206820237865005
 20
0.1133803309884607
 30
0.0
 10
-1.206463639906195
 20
0.1076033424129362
 30
0.0
 10
-1.205925047857638
 20
0.1021021220837871
 30
0.0
 10
-1.205114923672126
 20
0.0968824692522495
 30
0.0
 10
-1.20407072714345
 20
0.0919904162300139
 30
0.0
 10
-1.202758993095115
 20
0.0874430014290517
 30
0.0
 10
-1.201206376845921
 20
0.0832396765486889
 30
0.0
 10
-1.199382242343835
 20
0.0793901316770124
 30
0.0
 10
-1.197240833880619
 20
0.0759330481506822
 30
0.0
 10
-1.194854044179489
 20
0.0728334545130398
 30
0.0
 10
-1.192092826291971
 20
0.0702176590633299
 30
0.0
 10
-1.189138194691964
 20
0.0679130680948538
 30
0.0
 10
-1.185795691349731
 20
0.0661565344079426
 30
0.0
 10
-1.182163489539948
 20
0.0648716952250584
 30
0.0
 10
-1.178195833464956
 20
0.0641102810890389
 30
0.0
 10
-1.175453124183161
 20
0.0640238924993358
 30
0.0
 10
-1.17403518344174
 20
0.0639792308570145
 30
0.0
  0
SPLINE
  5
1E3
330
1F
100
AcDbEntity
  8
0
  6
Continuous
 62
     7
370
    25
100
AcDbSpline
210
0.0
220
0.0
230
1.0
 70
     8
 71
     3
 72
    23
 73
    19
 74
     0
 42
0.000000001
 43
0.00000001
 40
0.0
 40
0.0
 40
0.0
 40
0.0
 40
0.0586315032822169
 40
0.1142681412147297
 40
0.1680141608110724
 40
0.2208233746572738
 40
0.2740594618699004
 40
0.3278720288932257
 40
0.38365277869504
 40
0.4412825860505799
 40
0.501680733227433
 40
0.5644906004225346
 40
0.6310115398627066
 40
0.7005718525414806
 40
0.7728075618617452
 40
0.8467334484330002
 40
0.922129770867809
 40
1.0
 40
1.0
 40
1.0
 40
1.0
 10
-1.17403518344174
 20
0.1738160447335407
 30
0.0
 10
-1.175421686711015
 20
0.1737583366669143
 30
0.0
 10
-1.178123871415466
 20
0.1736458682303677
 30
0.0
 10
-1.182044388161114
 20
0.1728789675912372
 30
0.0
 10
-1.185634261679697
 20
0.1714782961290134
 30
0.0
 10
-1.188915998784662
 20
0.1695793870910353
 30
0.0
 10
-1.19189323043322
 20
0.1672267222843588
 30
0.0
 10
-1.19454918312322
 20
0.1644272466523638
 30
0.0
 10
-1.197001431136151
 20
0.1613159435753453
 30
0.0
 10
-1.199126661967323
 20
0.1577846027248032
 30
0.0
 10
-1.200929669406393
 20
0.1539030568025546
 30
0.0
 10
-1.202595057889759
 20
0.149731366171707
 30
0.0
 10
-1.203887194909076
 20
0.1452035476696994
 30
0.0
 10
-1.20503051280455
 20
0.1404097294639176
 30
0.0
 10
-1.205848834242487
 20
0.1353700085211768
 30
0.0
 10
-1.206429052215526
 20
0.1301621018925117
 30
0.0
 10
-1.206826356737538
 20
0.1248012029588226
 30
0.0
 10
-1.206870293636879
 20
0.1211762306320954
 30
0.0
 10
-1.20689261668378
 20
0.1193344887595593
 30
0.0
  0
SPLINE
  5
1E4
330
1F
100
AcDbEntity
  8
0
  6
Continuous
 62
     7
370
    25
100
AcDbSpline
210
0.0
220
0.0
230
1.0
 70
     8
 71
     3
 72
    23
 73
    19
 74
     0
 42
0.000000001
 43
0.00000001
 40
0.0
 40
0.0
 40
0.0
 40
0.0
 40
0.0827295999635543
 40
0.1621119095966078
 40
0.2379431615962193
 40
0.3106867198481633
 40
0.3797986252255636
 40
0.4452446647606605
 40
0.5072619480488617
 40
0.5662172357349571
 40
0.6225206623707633
 40
0.6762106296450346
 40
0.728916848655137
 40
0.7803543119827254
 40
0.8322014416117157
 40
0.8852026014625368
 40
0.9408812529247712
 40
1.0
 40
1.0
 40
1.0
 40
1.0
 10
-1.140990528357864
 20
0.1184607868309964
 30
0.0
 10
-1.141020729660879
 20
0.1204579891060304
 30
0.0
 10
-1.141079910303673
 20
0.1243715856277002
 30
0.0
 10
-1.141359583091963
 20
0.1301129867378512
 30
0.0
 10
-1.141984746460302
 20
0.1355835851626088
 30
0.0
 10
-1.142733796085762
 20
0.1407869444469673
 30
0.0
 10
-1.14374746339859
 20
0.1456934339119658
 30
0.0
 10
-1.145066811076602
 20
0.1502561895915726
 30
0.0
 10
-1.146599748379833
 20
0.1544940375902824
 30
0.0
 10
-1.148480528902886
 20
0.1583486817683008
 30
0.0
 10
-1.150633481565171
 20
0.1618200059858295
 30
0.0
 10
-1.153041443860647
 20
0.1649379307455116
 30
0.0
 10
-1.155801148690655
 20
0.1675840629082664
 30
0.0
 10
-1.158828822019962
 20
0.1698412783293586
 30
0.0
 10
-1.162163261485883
 20
0.1716404401059035
 30
0.0
 10
-1.165833381870923
 20
0.1729313275235272
 30
0.0
 10
-1.169833709657716
 20
0.1736817026042709
 30
0.0
 10
-1.172606990187423
 20
0.1737703782525257
 30
0.0
 10
-1.17403518344174
 20
0.1738160447335407
 30
0.0
  0
SPLINE
  5
1E5
330
1F
100
AcDbEntity
  8
0
  6
Continuous
 62
     7
370
    25
100
AcDbSpline
210
0.0
220
0.0
230
1.0
 70
     8
 71
     3
 72
    23
 73
    19
 74
     0
 42
0.000000001
 43
0.00000001
 40
0.0
 40
0.0
 40
0.0
 40
0.0
 40
0.0585566710462224
 40
0.1137809323391004
 40
0.167301753254076
 40
0.2204245097997608
 40
0.2739381196097581
 40
0.3279881077179525
 40
0.3836976637416858
 40
0.4414831093918352
 40
0.5021868200553877
 40
0.5649165221081723
 40
0.631058561499458
 40
0.7000031420415312
 40
0.772220171481792
 40
0.8460517053743598
 40
0.9217899981312712
 40
1.0
 40
1.0
 40
1.0
 40
1.0
 10
-1.17403518344174
 20
0.0639792308570145
 30
0.0
 10
-1.172647445973331
 20
0.0640315327897096
 30
0.0
 10
-1.169950945981506
 20
0.0641331601971221
 30
0.0
 10
-1.166058935988642
 20
0.0649705830323051
 30
0.0
 10
-1.162453466270214
 20
0.0663132466905236
 30
0.0
 10
-1.159155828813127
 20
0.0682175065848597
 30
0.0
 10
-1.156148326293043
 20
0.0705681107637129
 30
0.0
 10
-1.153457544584501
 20
0.0733572781737979
 30
0.0
 10
-1.151007936677336
 20
0.0764875702259993
 30
0.0
 10
-1.148857412120908
 20
0.0800167680431687
 30
0.0
 10
-1.146967584160949
 20
0.0838750180098212
 30
0.0
 10
-1.145341916593699
 20
0.0880640086143677
 30
0.0
 10
-1.143971234009815
 20
0.0925479934565686
 30
0.0
 10
-1.14290501027017
 20
0.097342352398489
 30
0.0
 10
-1.142019613377403
 20
0.1023582535235624
 30
0.0
 10
-1.1414564917498
 20
0.1075818363513344
 30
0.0
 10
-1.141055986666603
 20
0.1129627224780707
 30
0.0
 10
-1.141012580098104
 20
0.1166085867166353
 30
0.0
 10
-1.140990528357864
 20
0.1184607868309964
 30
0.0
  0
SPLINE
  5
1E9
330
1F
100
AcDbEntity
  8
0
  6
Continuous
 62
     7
370
    25
100
AcDbSpline
210
0.0
220
0.0
230
1.0
 70
     8
 71
     3
 72
    23
 73
    19
 74
     0
 42
0.000000001
 43
0.00000001
 40
0.0
 40
0.0
 40
0.0
 40
0.0
 40
0.07100540637521
 40
0.1375762152107346
 40
0.2003032527046563
 40
0.2604031925983383
 40
0.3177152079427061
 40
0.3738306474914115
 40
0.4294997037542651
 40
0.4848811865589574
 40
0.5408363383570455
 40
0.5986108345938552
 40
0.6580876144125942
 40
0.7194853567469313
 40
0.7841756976171745
 40
0.8520284023422332
 40
0.9241032974735306
 40
1.0
 40
1.0
 40
1.0
 40
1.0
 10
-1.035147780440484
 20
0.1496020198562157
 30
0.0
 10
-1.035162390017839
 20
0.150507825654802
 30
0.0
 10
-1.035190696740677
 20
0.1522628657263545
 30
0.0
 10
-1.035504005964105
 20
0.154803344380812
 30
0.0
 10
-1.036040131049675
 20
0.1571620512951769
 30
0.0
 10
-1.036754297924537
 20
0.1593477342539928
 30
0.0
 10
-1.037646573587498
 20
0.1613809859287743
 30
0.0
 10
-1.038829943641843
 20
0.16319172956602
 30
0.0
 10
-1.040165642287015
 20
0.1648577380803878
 30
0.0
 10
-1.041708499163146
 20
0.1663353878188638
 30
0.0
 10
-1.043446063314301
 20
0.1676208325944505
 30
0.0
 10
-1.04535517690392
 20
0.168738047748355
 30
0.0
 10
-1.04741814063572
 20
0.1697120201901769
 30
0.0
 10
-1.049655143149733
 20
0.1704980527789676
 30
0.0
 10
-1.052063300147285
 20
0.1710727109985398
 30
0.0
 10
-1.054635898529425
 20
0.1715207477648448
 30
0.0
 10
-1.057381100372092
 20
0.1717589452595273
 30
0.0
 10
-1.059267795117194
 20
0.1717986477772164
 30
0.0
 10
-1.060235507246373
 20
0.1718190117539674
 30
0.0
  0
SPLINE
  5
1ED
330
1F
100
AcDbEntity
  8
0
  6
Continuous
 62
     7
370
    25
100
AcDbSpline
210
0.0
220
0.0
230
1.0
 70
     8
 71
     3
 72
    23
 73
    19
 74
     0
 42
0.000000001
 43
0.00000001
 40
0.0
 40
0.0
 40
0.0
 40
0.0
 40
0.0751634739249805
 40
0.1468242857502607
 40
0.2147004565817476
 40
0.2804081309117744
 40
0.3432989837089105
 40
0.4037240268958638
 40
0.4619008746627826
 40
0.5192753134656091
 40
0.5756421721734664
 40
0.6321926367705142
 40
0.6886003484344213
 40
0.7462950936411836
 40
0.8063376960038239
 40
0.8679986302426622
 40
0.9323916198461166
 40
1.0
 40
1.0
 40
1.0
 40
1.0
 10
-1.062638187549922
 20
0.1258872532237839
 30
0.0
 10
-1.061608041375663
 20
0.12590566414377
 30
0.0
 10
-1.059595754444849
 20
0.1259416280240406
 30
0.0
 10
-1.056660328511135
 20
0.1262083595800758
 30
0.0
 10
-1.053894900373386
 20
0.1267345821954188
 30
0.0
 10
-1.051272031388506
 20
0.1273568869024443
 30
0.0
 10
-1.048829881246676
 20
0.1282394792147158
 30
0.0
 10
-1.046580948297627
 20
0.1293072566246299
 30
0.0
 10
-1.044487387177499
 20
0.1305162040914694
 30
0.0
 10
-1.04262424279197
 20
0.1319677512145126
 30
0.0
 10
-1.040916003666905
 20
0.1335638954257205
 30
0.0
 10
-1.039420934604045
 20
0.1353458205342763
 30
0.0
 10
-1.038120343843769
 20
0.1372974605861766
 30
0.0
 10
-1.037070295138055
 20
0.1394454358408231
 30
0.0
 10
-1.036173588478523
 20
0.1417416911162579
 30
0.0
 10
-1.035609224512636
 20
0.1442350411157833
 30
0.0
 10
-1.035211511526535
 20
0.1468641314934586
 30
0.0
 10
-1.035169366337442
 20
0.1486746894160421
 30
0.0
 10
-1.035147780440484
 20
0.1496020198562157
 30
0.0
  0
SPLINE
  5
1EE
330
1F
100
AcDbEntity
  8
0
  6
Continuous
 62
     7
370
    25
100
AcDbSpline
210
0.0
220
0.0
230
1.0
 70
     8
 71
     3
 72
    23
 73
    19
 74
     0
 42
0.000000001
 43
0.00000001
 40
0.0
 40
0.0
 40
0.0
 40
0.0
 40
0.07100540637521
 40
0.1375762152107346
 40
0.2003032527046568
 40
0.2604031925983382
 40
0.317715207942706
 40
0.3738306474914104
 40
0.4294997037542641
 40
0.4848811865589577
 40
0.5408363383570471
 40
0.5986108345938553
 40
0.6580876144125944
 40
0.7194853567469314
 40
0.7841756976171748
 40
0.8520284023422351
 40
0.9241032974735325
 40
1.0
 40
1.0
 40
1.0
 40
1.0
 10
-0.4460230514663885
 20
0.1496020198562157
 30
0.0
 10
-0.4460376610437433
 20
0.150507825654802
 30
0.0
 10
-0.4460659677665816
 20
0.1522628657263545
 30
0.0
 10
-0.4463792769900097
 20
0.154803344380812
 30
0.0
 10
-0.4469154020755794
 20
0.1571620512951769
 30
0.0
 10
-0.4476295689504416
 20
0.1593477342539928
 30
0.0
 10
-0.4485218446134017
 20
0.1613809859287743
 30
0.0
 10
-0.4497052146677475
 20
0.16319172956602
 30
0.0
 10
-0.4510409133129191
 20
0.1648577380803884
 30
0.0
 10
-0.4525837701890507
 20
0.1663353878188638
 30
0.0
 10
-0.4543213343402056
 20
0.1676208325944505
 30
0.0
 10
-0.4562304479298251
 20
0.168738047748355
 30
0.0
 10
-0.4582934116616241
 20
0.1697120201901769
 30
0.0
 10
-0.4605304141756373
 20
0.1704980527789676
 30
0.0
 10
-0.462938571173189
 20
0.1710727109985398
 30
0.0
 10
-0.4655111695553297
 20
0.1715207477648443
 30
0.0
 10
-0.4682563713979968
 20
0.1717589452595273
 30
0.0
 10
-0.4701430661430989
 20
0.1717986477772164
 30
0.0
 10
-0.471110778272277
 20
0.1718190117539674
 30
0.0
  0
SPLINE
  5
1F2
330
1F
100
AcDbEntity
  8
0
  6
Continuous
 62
     7
370
    25
100
AcDbSpline
210
0.0
220
0.0
230
1.0
 70
     8
 71
     3
 72
    23
 73
    19
 74
     0
 42
0.000000001
 43
0.00000001
 40
0.0
 40
0.0
 40
0.0
 40
0.0
 40
0.0751634739249804
 40
0.1468242857502606
 40
0.2147004565817474
 40
0.2804081309117758
 40
0.3432989837089087
 40
0.403724026895865
 40
0.4619008746627822
 40
0.51927531346561
 40
0.5756421721734671
 40
0.632192636770515
 40
0.6886003484344203
 40
0.7462950936411841
 40
0.8063376960038237
 40
0.867998630242662
 40
0.9323916198461165
 40
1.0
 40
1.0
 40
1.0
 40
1.0
 10
-0.473513458575826
 20
0.1258872532237839
 30
0.0
 10
-0.4724833124015677
 20
0.12590566414377
 30
0.0
 10
-0.4704710254707535
 20
0.1259416280240406
 30
0.0
 10
-0.4675355995370395
 20
0.1262083595800758
 30
0.0
 10
-0.4647701713992903
 20
0.1267345821954188
 30
0.0
 10
-0.4621473024144103
 20
0.1273568869024443
 30
0.0
 10
-0.4597051522725806
 20
0.1282394792147158
 30
0.0
 10
-0.4574562193235311
 20
0.1293072566246299
 30
0.0
 10
-0.4553626582034032
 20
0.1305162040914694
 30
0.0
 10
-0.453499513817874
 20
0.1319677512145126
 30
0.0
 10
-0.4517912746928087
 20
0.1335638954257205
 30
0.0
 10
-0.4502962056299493
 20
0.1353458205342758
 30
0.0
 10
-0.448995614869673
 20
0.1372974605861766
 30
0.0
 10
-0.4479455661639587
 20
0.1394454358408231
 30
0.0
 10
-0.4470488595044271
 20
0.1417416911162579
 30
0.0
 10
-0.4464844955385404
 20
0.1442350411157833
 30
0.0
 10
-0.4460867825524391
 20
0.1468641314934586
 30
0.0
 10
-0.4460446373633462
 20
0.1486746894160421
 30
0.0
 10
-0.4460230514663885
 20
0.1496020198562157
 30
0.0
  0
LINE
  5
1F4
330
1F
100
AcDbEntity
  8
0
  6
Continuous
 62
     7
370
    25
100
AcDbLine
 10
-1.2468332763
 20
0.1838012096
 30
0.0
 11
-1.2468332763
 21
0.1658279128
 31
0.0
  0
LINE
  5
1F5
330
1F
100
AcDbEntity
  8
0
  6
Continuous
 62
     7
370
    25
100
AcDbLine
 10
-1.2468332763
 20
0.0719673628
 30
0.0
 11
-1.2468332763
 21
0.053994066
 31
0.0
  0
LINE
  5
1F6
330
1F
100
AcDbEntity
  8
0
  6
Continuous
 62
     7
370
    25
100
AcDbLine
 10
-1.0970558028
 20
0.1877952756
 30
0.0
 11
-1.0604227291
 21
0.1877952756
 31
0.0
  0
LINE
  5
1F7
330
1F
100
AcDbEntity
  8
0
  6
Continuous
 62
     7
370
    25
100
AcDbLine
 10
-1.0970558028
 20
0.05
 30
0.0
 11
-1.0970558028
 21
0.1877952756
 31
0.0
  0
LINE
  5
1F8
330
1F
100
AcDbEntity
  8
0
  6
Continuous
 62
     7
370
    25
100
AcDbLine
 10
-1.077085473
 20
0.05
 30
0.0
 11
-1.0970558028
 21
0.05
 31
0.0
  0
LINE
  5
1F9
330
1F
100
AcDbEntity
  8
0
  6
Continuous
 62
     7
370
    25
100
AcDbLine
 10
-1.077085473
 20
0.1099109894
 30
0.0
 11
-1.077085473
 21
0.05
 31
0.0
  0
LINE
  5
1FA
330
1F
100
AcDbEntity
  8
0
  6
Continuous
 62
     7
370
    25
100
AcDbLine
 10
-1.0686292865
 20
0.1099109894
 30
0.0
 11
-1.077085473
 21
0.1099109894
 31
0.0
  0
LINE
  5
1FB
330
1F
100
AcDbEntity
  8
0
  6
Continuous
 62
     7
370
    25
100
AcDbLine
 10
-1.0263483539
 20
0.05
 30
0.0
 11
-1.0461626655
 21
0.09302982
 31
0.0
  0
LINE
  5
1FC
330
1F
100
AcDbEntity
  8
0
  6
Continuous
 62
     7
370
    25
100
AcDbLine
 10
-1.0051922857
 20
0.05
 30
0.0
 11
-1.0263483539
 21
0.05
 31
0.0
  0
LINE
  5
1FD
330
1F
100
AcDbEntity
  8
0
  6
Continuous
 62
     7
370
    25
100
AcDbLine
 10
-1.026254743
 20
0.0959317585
 30
0.0
 11
-1.0051922857
 21
0.05
 31
0.0
  0
LINE
  5
1FE
330
1F
100
AcDbEntity
  8
0
  6
Continuous
 62
     7
370
    25
100
AcDbLine
 10
-0.8325737476
 20
0.1877952756
 30
0.0
 11
-0.8068931516
 21
0.1877952756
 31
0.0
  0
LINE
  5
1FF
330
1F
100
AcDbEntity
  8
0
  6
Continuous
 62
     7
370
    25
100
AcDbLine
 10
-0.8783806915
 20
0.05
 30
0.0
 11
-0.8325737476
 21
0.1877952756
 31
0.0
  0
LINE
  5
200
330
1F
100
AcDbEntity
  8
0
  6
Continuous
 62
     7
370
    25
100
AcDbLine
 10
-0.85890962
 20
0.05
 30
0.0
 11
-0.8783806915
 21
0.05
 31
0.0
  0
LINE
  5
201
330
1F
100
AcDbEntity
  8
0
  6
Continuous
 62
     7
370
    25
100
AcDbLine
 10
-0.849454917
 20
0.0799554947
 30
0.0
 11
-0.85890962
 21
0.05
 31
0.0
  0
LINE
  5
202
330
1F
100
AcDbEntity
  8
0
  6
Continuous
 62
     7
370
    25
100
AcDbLine
 10
-0.7922274407
 20
0.0799554947
 30
0.0
 11
-0.849454917
 21
0.0799554947
 31
0.0
  0
LINE
  5
203
330
1F
100
AcDbEntity
  8
0
  6
Continuous
 62
     7
370
    25
100
AcDbLine
 10
-0.7829911631
 20
0.05
 30
0.0
 11
-0.7922274407
 21
0.0799554947
 31
0.0
  0
LINE
  5
204
330
1F
100
AcDbEntity
  8
0
  6
Continuous
 62
     7
370
    25
100
AcDbLine
 10
-0.7625527787
 20
0.05
 30
0.0
 11
-0.7829911631
 21
0.05
 31
0.0
  0
LINE
  5
205
330
1F
100
AcDbEntity
  8
0
  6
Continuous
 62
     7
370
    25
100
AcDbLine
 10
-0.8068931516
 20
0.1877952756
 30
0.0
 11
-0.7625527787
 21
0.05
 31
0.0
  0
LINE
  5
206
330
1F
100
AcDbEntity
  8
0
  6
Continuous
 62
     7
370
    25
100
AcDbLine
 10
-0.596923856
 20
0.1877952756
 30
0.0
 11
-0.57124326
 21
0.1877952756
 31
0.0
  0
LINE
  5
207
330
1F
100
AcDbEntity
  8
0
  6
Continuous
 62
     7
370
    25
100
AcDbLine
 10
-0.6427308
 20
0.05
 30
0.0
 11
-0.596923856
 21
0.1877952756
 31
0.0
  0
LINE
  5
208
330
1F
100
AcDbEntity
  8
0
  6
Continuous
 62
     7
370
    25
100
AcDbLine
 10
-0.6232597284
 20
0.05
 30
0.0
 11
-0.6427308
 21
0.05
 31
0.0
  0
LINE
  5
209
330
1F
100
AcDbEntity
  8
0
  6
Continuous
 62
     7
370
    25
100
AcDbLine
 10
-0.6138050254
 20
0.0799554947
 30
0.0
 11
-0.6232597284
 21
0.05
 31
0.0
  0
LINE
  5
20A
330
1F
100
AcDbEntity
  8
0
  6
Continuous
 62
     7
370
    25
100
AcDbLine
 10
-0.5565775491
 20
0.0799554947
 30
0.0
 11
-0.6138050254
 21
0.0799554947
 31
0.0
  0
LINE
  5
20B
330
1F
100
AcDbEntity
  8
0
  6
Continuous
 62
     7
370
    25
100
AcDbLine
 10
-0.5473412715
 20
0.05
 30
0.0
 11
-0.5565775491
 21
0.0799554947
 31
0.0
  0
LINE
  5
20C
330
1F
100
AcDbEntity
  8
0
  6
Continuous
 62
     7
370
    25
100
AcDbLine
 10
-0.5269028871
 20
0.05
 30
0.0
 11
-0.5473412715
 21
0.05
 31
0.0
  0
LINE
  5
20D
330
1F
100
AcDbEntity
  8
0
  6
Continuous
 62
     7
370
    25
100
AcDbLine
 10
-0.57124326
 20
0.1877952756
 30
0.0
 11
-0.5269028871
 21
0.05
 31
0.0
  0
LINE
  5
20E
330
1F
100
AcDbEntity
  8
0
  6
Continuous
 62
     7
370
    25
100
AcDbLine
 10
-0.5079310738
 20
0.1877952756
 30
0.0
 11
-0.4712980001
 21
0.1877952756
 31
0.0
  0
LINE
  5
20F
330
1F
100
AcDbEntity
  8
0
  6
Continuous
 62
     7
370
    25
100
AcDbLine
 10
-0.5079310738
 20
0.05
 30
0.0
 11
-0.5079310738
 21
0.1877952756
 31
0.0
  0
LINE
  5
210
330
1F
100
AcDbEntity
  8
0
  6
Continuous
 62
     7
370
    25
100
AcDbLine
 10
-0.487960744
 20
0.05
 30
0.0
 11
-0.5079310738
 21
0.05
 31
0.0
  0
LINE
  5
211
330
1F
100
AcDbEntity
  8
0
  6
Continuous
 62
     7
370
    25
100
AcDbLine
 10
-0.487960744
 20
0.1099109894
 30
0.0
 11
-0.487960744
 21
0.05
 31
0.0
  0
LINE
  5
212
330
1F
100
AcDbEntity
  8
0
  6
Continuous
 62
     7
370
    25
100
AcDbLine
 10
-0.4795045575
 20
0.1099109894
 30
0.0
 11
-0.487960744
 21
0.1099109894
 31
0.0
  0
LINE
  5
213
330
1F
100
AcDbEntity
  8
0
  6
Continuous
 62
     7
370
    25
100
AcDbLine
 10
-0.4372236249
 20
0.05
 30
0.0
 11
-0.4570379365
 21
0.09302982
 31
0.0
  0
LINE
  5
214
330
1F
100
AcDbEntity
  8
0
  6
Continuous
 62
     7
370
    25
100
AcDbLine
 10
-0.4160675568
 20
0.05
 30
0.0
 11
-0.4372236249
 21
0.05
 31
0.0
  0
LINE
  5
215
330
1F
100
AcDbEntity
  8
0
  6
Continuous
 62
     7
370
    25
100
AcDbLine
 10
-0.437130014
 20
0.0959317585
 30
0.0
 11
-0.4160675568
 21
0.05
 31
0.0
  0
LINE
  5
216
330
1F
100
AcDbEntity
  8
0
  6
Continuous
 62
     7
370
    25
100
AcDbLine
 10
-0.6537144813
 20
0.1278842862
 30
0.0
 11
-0.6537144813
 21
0.0564591535
 31
0.0
  0
LINE
  5
217
330
1F
100
AcDbEntity
  8
0
  6
Continuous
 62
     7
370
    25
100
AcDbLine
 10
-0.7013936437
 20
0.1278842862
 30
0.0
 11
-0.6537144813
 21
0.1278842862
 31
0.0
  0
LINE
  5
218
330
1F
100
AcDbEntity
  8
0
  6
Continuous
 62
     7
370
    25
100
AcDbLine
 10
-0.7013936437
 20
0.1119080224
 30
0.0
 11
-0.7013936437
 21
0.1278842862
 31
0.0
  0
LINE
  5
219
330
1F
100
AcDbEntity
  8
0
  6
Continuous
 62
     7
370
    25
100
AcDbLine
 10
-0.6736848111
 20
0.1119080224
 30
0.0
 11
-0.7013936437
 21
0.1119080224
 31
0.0
  0
LINE
  5
21A
330
1F
100
AcDbEntity
  8
0
  6
Continuous
 62
     7
370
    25
100
AcDbLine
 10
-0.6736848111
 20
0.066912373
 30
0.0
 11
-0.6736848111
 21
0.1119080224
 31
0.0
  0
LINE
  5
21B
330
1F
100
AcDbEntity
  8
0
  6
Continuous
 62
     7
370
    25
100
AcDbLine
 10
-0.6537144813
 20
0.1838012096
 30
0.0
 11
-0.6537144813
 21
0.1658279128
 31
0.0
  0
LINE
  5
21C
330
1F
100
AcDbEntity
  8
0
  6
Continuous
 62
     7
370
    25
100
AcDbLine
 10
-0.879379208
 20
0.0220415383
 30
0.0
 11
-0.879379208
 21
0.0060652744
 31
0.0
  0
LINE
  5
21D
330
1F
100
AcDbEntity
  8
0
  6
Continuous
 62
     7
370
    25
100
AcDbLine
 10
-0.9972041538
 20
0.0220415383
 30
0.0
 11
-0.879379208
 21
0.0220415383
 31
0.0
  0
LINE
  5
21E
330
1F
100
AcDbEntity
  8
0
  6
Continuous
 62
     7
370
    25
100
AcDbLine
 10
-0.9972041538
 20
0.0060652744
 30
0.0
 11
-0.9972041538
 21
0.0220415383
 31
0.0
  0
LINE
  5
21F
330
1F
100
AcDbEntity
  8
0
  6
Continuous
 62
     7
370
    25
100
AcDbLine
 10
-0.9972041538
 20
0.0060652744
 30
0.0
 11
-0.9667435955
 21
0.0060652744
 31
0.0
  0
LINE
  5
220
330
1F
100
AcDbEntity
  8
0
  6
Continuous
 62
     7
370
    25
100
AcDbLine
 10
-0.975296536
 20
0.0
 30
0.0
 11
-1.468503937
 21
0.0
 31
0.0
  0
LINE
  5
221
330
1F
100
AcDbEntity
  8
0
  6
Continuous
 62
     7
370
    25
100
AcDbLine
 10
-1.468503937
 20
0.0
 30
0.0
 11
-1.468503937
 21
0.3495066136
 31
0.0
  0
LINE
  5
222
330
1F
100
AcDbEntity
  8
0
  6
Continuous
 62
     7
370
    25
100
AcDbLine
 10
-1.5126981108
 20
0.3937007874
 30
0.0
 11
-1.718503937
 21
0.3937007874
 31
0.0
  0
LINE
  5
223
330
1F
100
AcDbEntity
  8
0
  6
Continuous
 62
     7
370
    25
100
AcDbLine
 10
-1.718503937
 20
0.3937007874
 30
0.0
 11
-1.718503937
 21
0.7874015748
 31
0.0
  0
LINE
  5
224
330
1F
100
AcDbEntity
  8
0
  6
Continuous
 62
     7
370
    25
100
AcDbLine
 10
-1.718503937
 20
0.7874015748
 30
0.0
 11
-1.7173055546
 21
0.7874015748
 31
0.0
  0
LINE
  5
225
330
1F
100
AcDbEntity
  8
0
  6
Continuous
 62
     7
370
    25
100
AcDbLine
 10
-1.7173055546
 20
0.7844015748
 30
0.0
 11
-1.7173055546
 21
0.7874015748
 31
0.0
  0
LINE
  5
226
330
1F
100
AcDbEntity
  8
0
  6
Continuous
 62
     7
370
    25
100
AcDbLine
 10
-1.5092208716
 20
0.7844015748
 30
0.0
 11
-1.7173055546
 21
0.7844015748
 31
0.0
  0
LINE
  5
227
330
1F
100
AcDbEntity
  8
0
  6
Continuous
 62
     7
370
    25
100
AcDbLine
 10
-1.4697018916
 20
0.7844015748
 30
0.0
 11
-1.4719811762
 21
0.7844015748
 31
0.0
  0
LINE
  5
228
330
1F
100
AcDbEntity
  8
0
  6
Continuous
 62
     7
370
    25
100
AcDbLine
 10
-1.4697018916
 20
0.786265307
 30
0.0
 11
-1.4697018916
 21
0.7844015748
 31
0.0
  0
LINE
  5
229
330
1F
100
AcDbEntity
  8
0
  6
Continuous
 62
     7
370
    25
100
AcDbLine
 10
-1.468503937
 20
0.8315957486
 30
0.0
 11
-1.468503937
 21
1.1369081884
 31
0.0
  0
LINE
  5
22A
330
1F
100
AcDbEntity
  8
0
  6
Continuous
 62
     7
370
    25
100
AcDbLine
 10
-1.4697018916
 20
1.1841023622
 30
0.0
 11
-1.4697018916
 21
1.18223863
 31
0.0
  0
LINE
  5
22B
330
1F
100
AcDbEntity
  8
0
  6
Continuous
 62
     7
370
    25
100
AcDbLine
 10
-1.4719811762
 20
1.1841023622
 30
0.0
 11
-1.4697018916
 21
1.1841023622
 31
0.0
  0
LINE
  5
22C
330
1F
100
AcDbEntity
  8
0
  6
Continuous
 62
     7
370
    25
100
AcDbLine
 10
-1.7173055546
 20
1.1841023622
 30
0.0
 11
-1.5092208716
 21
1.1841023622
 31
0.0
  0
LINE
  5
22D
330
1F
100
AcDbEntity
  8
0
  6
Continuous
 62
     7
370
    25
100
AcDbLine
 10
-1.7173055546
 20
1.1811023622
 30
0.0
 11
-1.7173055546
 21
1.1841023622
 31
0.0
  0
LINE
  5
22E
330
1F
100
AcDbEntity
  8
0
  6
Continuous
 62
     7
370
    25
100
AcDbLine
 10
-1.7173055546
 20
1.1811023622
 30
0.0
 11
-1.718503937
 21
1.1811023622
 31
0.0
  0
LINE
  5
22F
330
1F
100
AcDbEntity
  8
0
  6
Continuous
 62
     7
370
    25
100
AcDbLine
 10
-1.718503937
 20
1.1811023622
 30
0.0
 11
-1.718503937
 21
1.5748031496
 31
0.0
  0
LINE
  5
230
330
1F
100
AcDbEntity
  8
0
  6
Continuous
 62
     7
370
    25
100
AcDbLine
 10
-1.718503937
 20
1.5748031496
 30
0.0
 11
-1.7173055546
 21
1.5748031496
 31
0.0
  0
LINE
  5
231
330
1F
100
AcDbEntity
  8
0
  6
Continuous
 62
     7
370
    25
100
AcDbLine
 10
-1.7173055546
 20
1.5718031496
 30
0.0
 11
-1.7173055546
 21
1.5748031496
 31
0.0
  0
LINE
  5
232
330
1F
100
AcDbEntity
  8
0
  6
Continuous
 62
     7
370
    25
100
AcDbLine
 10
-1.5092208716
 20
1.5718031496
 30
0.0
 11
-1.7173055546
 21
1.5718031496
 31
0.0
  0
LINE
  5
233
330
1F
100
AcDbEntity
  8
0
  6
Continuous
 62
     7
370
    25
100
AcDbLine
 10
-1.4697018916
 20
1.5718031496
 30
0.0
 11
-1.4719811762
 21
1.5718031496
 31
0.0
  0
LINE
  5
234
330
1F
100
AcDbEntity
  8
0
  6
Continuous
 62
     7
370
    25
100
AcDbLine
 10
-1.4697018916
 20
1.5736668818
 30
0.0
 11
-1.4697018916
 21
1.5718031496
 31
0.0
  0
LINE
  5
235
330
1F
100
AcDbEntity
  8
0
  6
Continuous
 62
     7
370
    25
100
AcDbLine
 10
-1.468503937
 20
1.6189973234
 30
0.0
 11
-1.468503937
 21
1.9243097632
 31
0.0
  0
LINE
  5
236
330
1F
100
AcDbEntity
  8
0
  6
Continuous
 62
     7
370
    25
100
AcDbLine
 10
-1.4697018916
 20
1.971503937
 30
0.0
 11
-1.4697018916
 21
1.9696402048
 31
0.0
  0
LINE
  5
237
330
1F
100
AcDbEntity
  8
0
  6
Continuous
 62
     7
370
    25
100
AcDbLine
 10
-1.4719811762
 20
1.971503937
 30
0.0
 11
-1.4697018916
 21
1.971503937
 31
0.0
  0
LINE
  5
238
330
1F
100
AcDbEntity
  8
0
  6
Continuous
 62
     7
370
    25
100
AcDbLine
 10
-1.7173055546
 20
1.971503937
 30
0.0
 11
-1.5092208716
 21
1.971503937
 31
0.0
  0
LINE
  5
239
330
1F
100
AcDbEntity
  8
0
  6
Continuous
 62
     7
370
    25
100
AcDbLine
 10
-1.7173055546
 20
1.968503937
 30
0.0
 11
-1.7173055546
 21
1.971503937
 31
0.0
  0
LINE
  5
23A
330
1F
100
AcDbEntity
  8
0
  6
Continuous
 62
     7
370
    25
100
AcDbLine
 10
-1.7173055546
 20
1.968503937
 30
0.0
 11
-1.718503937
 21
1.968503937
 31
0.0
  0
LINE
  5
23B
330
1F
100
AcDbEntity
  8
0
  6
Continuous
 62
     7
370
    25
100
AcDbLine
 10
-1.718503937
 20
1.968503937
 30
0.0
 11
-1.718503937
 21
2.3622047244
 31
0.0
  0
LINE
  5
23C
330
1F
100
AcDbEntity
  8
0
  6
Continuous
 62
     7
370
    25
100
AcDbLine
 10
-1.718503937
 20
2.3622047244
 30
0.0
 11
-1.7173055546
 21
2.3622047244
 31
0.0
  0
LINE
  5
23D
330
1F
100
AcDbEntity
  8
0
  6
Continuous
 62
     7
370
    25
100
AcDbLine
 10
-1.7173055546
 20
2.3592047244
 30
0.0
 11
-1.7173055546
 21
2.3622047244
 31
0.0
  0
LINE
  5
23E
330
1F
100
AcDbEntity
  8
0
  6
Continuous
 62
     7
370
    25
100
AcDbLine
 10
-1.5092208716
 20
2.3592047244
 30
0.0
 11
-1.7173055546
 21
2.3592047244
 31
0.0
  0
LINE
  5
23F
330
1F
100
AcDbEntity
  8
0
  6
Continuous
 62
     7
370
    25
100
AcDbLine
 10
-1.4697018916
 20
2.3592047244
 30
0.0
 11
-1.4719811762
 21
2.3592047244
 31
0.0
  0
LINE
  5
240
330
1F
100
AcDbEntity
  8
0
  6
Continuous
 62
     7
370
    25
100
AcDbLine
 10
-1.4697018916
 20
2.3610684566
 30
0.0
 11
-1.4697018916
 21
2.3592047244
 31
0.0
  0
LINE
  5
241
330
1F
100
AcDbEntity
  8
0
  6
Continuous
 62
     7
370
    25
100
AcDbLine
 10
-1.468503937
 20
2.4063988982
 30
0.0
 11
-1.468503937
 21
2.711711338
 31
0.0
  0
LINE
  5
242
330
1F
100
AcDbEntity
  8
0
  6
Continuous
 62
     7
370
    25
100
AcDbLine
 10
-1.4697018916
 20
2.7589055118
 30
0.0
 11
-1.4697018916
 21
2.7570417796
 31
0.0
  0
LINE
  5
243
330
1F
100
AcDbEntity
  8
0
  6
Continuous
 62
     7
370
    25
100
AcDbLine
 10
-1.4719811762
 20
2.7589055118
 30
0.0
 11
-1.4697018916
 21
2.7589055118
 31
0.0
  0
LINE
  5
244
330
1F
100
AcDbEntity
  8
0
  6
Continuous
 62
     7
370
    25
100
AcDbLine
 10
-1.7173055546
 20
2.7589055118
 30
0.0
 11
-1.5092208716
 21
2.7589055118
 31
0.0
  0
LINE
  5
245
330
1F
100
AcDbEntity
  8
0
  6
Continuous
 62
     7
370
    25
100
AcDbLine
 10
-1.7173055546
 20
2.7559055118
 30
0.0
 11
-1.7173055546
 21
2.7589055118
 31
0.0
  0
LINE
  5
246
330
1F
100
AcDbEntity
  8
0
  6
Continuous
 62
     7
370
    25
100
AcDbLine
 10
-1.7173055546
 20
2.7559055118
 30
0.0
 11
-1.718503937
 21
2.7559055118
 31
0.0
  0
LINE
  5
247
330
1F
100
AcDbEntity
  8
0
  6
Continuous
 62
     7
370
    25
100
AcDbLine
 10
-1.718503937
 20
2.7559055118
 30
0.0
 11
-1.718503937
 21
3.1496062992
 31
0.0
  0
LINE
  5
248
330
1F
100
AcDbEntity
  8
0
  6
Continuous
 62
     7
370
    25
100
AcDbLine
 10
-1.718503937
 20
3.1496062992
 30
0.0
 11
-1.7173055546
 21
3.1496062992
 31
0.0
  0
LINE
  5
249
330
1F
100
AcDbEntity
  8
0
  6
Continuous
 62
     7
370
    25
100
AcDbLine
 10
-1.7173055546
 20
3.1466062992
 30
0.0
 11
-1.7173055546
 21
3.1496062992
 31
0.0
  0
LINE
  5
24A
330
1F
100
AcDbEntity
  8
0
  6
Continuous
 62
     7
370
    25
100
AcDbLine
 10
-1.5092208716
 20
3.1466062992
 30
0.0
 11
-1.7173055546
 21
3.1466062992
 31
0.0
  0
LINE
  5
24B
330
1F
100
AcDbEntity
  8
0
  6
Continuous
 62
     7
370
    25
100
AcDbLine
 10
-1.4697018916
 20
3.1466062992
 30
0.0
 11
-1.4719811762
 21
3.1466062992
 31
0.0
  0
LINE
  5
24C
330
1F
100
AcDbEntity
  8
0
  6
Continuous
 62
     7
370
    25
100
AcDbLine
 10
-1.4697018916
 20
3.1484700314
 30
0.0
 11
-1.4697018916
 21
3.1466062992
 31
0.0
  0
LINE
  5
24D
330
1F
100
AcDbEntity
  8
0
  6
Continuous
 62
     7
370
    25
100
AcDbLine
 10
-1.468503937
 20
3.193800473
 30
0.0
 11
-1.468503937
 21
3.4991129128
 31
0.0
  0
LINE
  5
24E
330
1F
100
AcDbEntity
  8
0
  6
Continuous
 62
     7
370
    25
100
AcDbLine
 10
-1.4697018916
 20
3.5463070866
 30
0.0
 11
-1.4697018916
 21
3.5444433544
 31
0.0
  0
LINE
  5
24F
330
1F
100
AcDbEntity
  8
0
  6
Continuous
 62
     7
370
    25
100
AcDbLine
 10
-1.4719811762
 20
3.5463070866
 30
0.0
 11
-1.4697018916
 21
3.5463070866
 31
0.0
  0
LINE
  5
250
330
1F
100
AcDbEntity
  8
0
  6
Continuous
 62
     7
370
    25
100
AcDbLine
 10
-1.7173055546
 20
3.5463070866
 30
0.0
 11
-1.5092208716
 21
3.5463070866
 31
0.0
  0
LINE
  5
251
330
1F
100
AcDbEntity
  8
0
  6
Continuous
 62
     7
370
    25
100
AcDbLine
 10
-1.7173055546
 20
3.5433070866
 30
0.0
 11
-1.7173055546
 21
3.5463070866
 31
0.0
  0
LINE
  5
252
330
1F
100
AcDbEntity
  8
0
  6
Continuous
 62
     7
370
    25
100
AcDbLine
 10
-1.7173055546
 20
3.5433070866
 30
0.0
 11
-1.718503937
 21
3.5433070866
 31
0.0
  0
LINE
  5
253
330
1F
100
AcDbEntity
  8
0
  6
Continuous
 62
     7
370
    25
100
AcDbLine
 10
-1.718503937
 20
3.5433070866
 30
0.0
 11
-1.718503937
 21
3.937007874
 31
0.0
  0
LINE
  5
254
330
1F
100
AcDbEntity
  8
0
  6
Continuous
 62
     7
370
    25
100
AcDbLine
 10
-1.718503937
 20
3.937007874
 30
0.0
 11
-1.7173055546
 21
3.937007874
 31
0.0
  0
LINE
  5
255
330
1F
100
AcDbEntity
  8
0
  6
Continuous
 62
     7
370
    25
100
AcDbLine
 10
-1.7173055546
 20
3.934007874
 30
0.0
 11
-1.7173055546
 21
3.937007874
 31
0.0
  0
LINE
  5
256
330
1F
100
AcDbEntity
  8
0
  6
Continuous
 62
     7
370
    25
100
AcDbLine
 10
-1.5092208716
 20
3.934007874
 30
0.0
 11
-1.7173055546
 21
3.934007874
 31
0.0
  0
LINE
  5
257
330
1F
100
AcDbEntity
  8
0
  6
Continuous
 62
     7
370
    25
100
AcDbLine
 10
-1.4697018916
 20
3.934007874
 30
0.0
 11
-1.4719811762
 21
3.934007874
 31
0.0
  0
LINE
  5
258
330
1F
100
AcDbEntity
  8
0
  6
Continuous
 62
     7
370
    25
100
AcDbLine
 10
-1.4697018916
 20
3.9358716063
 30
0.0
 11
-1.4697018916
 21
3.934007874
 31
0.0
  0
LINE
  5
259
330
1F
100
AcDbEntity
  8
0
  6
Continuous
 62
     7
370
    25
100
AcDbLine
 10
-1.468503937
 20
3.9812020478
 30
0.0
 11
-1.468503937
 21
4.2865144876
 31
0.0
  0
LINE
  5
25A
330
1F
100
AcDbEntity
  8
0
  6
Continuous
 62
     7
370
    25
100
AcDbLine
 10
-1.4697018916
 20
4.3337086614
 30
0.0
 11
-1.4697018916
 21
4.3318449292
 31
0.0
  0
LINE
  5
25B
330
1F
100
AcDbEntity
  8
0
  6
Continuous
 62
     7
370
    25
100
AcDbLine
 10
-1.4719811762
 20
4.3337086614
 30
0.0
 11
-1.4697018916
 21
4.3337086614
 31
0.0
  0
LINE
  5
25C
330
1F
100
AcDbEntity
  8
0
  6
Continuous
 62
     7
370
    25
100
AcDbLine
 10
-1.7173055546
 20
4.3337086614
 30
0.0
 11
-1.5092208716
 21
4.3337086614
 31
0.0
  0
LINE
  5
25D
330
1F
100
AcDbEntity
  8
0
  6
Continuous
 62
     7
370
    25
100
AcDbLine
 10
-1.7173055546
 20
4.3307086614
 30
0.0
 11
-1.7173055546
 21
4.3337086614
 31
0.0
  0
LINE
  5
25E
330
1F
100
AcDbEntity
  8
0
  6
Continuous
 62
     7
370
    25
100
AcDbLine
 10
-1.7173055546
 20
4.3307086614
 30
0.0
 11
-1.718503937
 21
4.3307086614
 31
0.0
  0
LINE
  5
25F
330
1F
100
AcDbEntity
  8
0
  6
Continuous
 62
     7
370
    25
100
AcDbLine
 10
-1.718503937
 20
4.3307086614
 30
0.0
 11
-1.718503937
 21
4.7244094488
 31
0.0
  0
LINE
  5
260
330
1F
100
AcDbEntity
  8
0
  6
Continuous
 62
     7
370
    25
100
AcDbLine
 10
-1.718503937
 20
4.7244094488
 30
0.0
 11
-1.7173055546
 21
4.7244094488
 31
0.0
  0
LINE
  5
261
330
1F
100
AcDbEntity
  8
0
  6
Continuous
 62
     7
370
    25
100
AcDbLine
 10
-1.7173055546
 20
4.7214094488
 30
0.0
 11
-1.7173055546
 21
4.7244094488
 31
0.0
  0
LINE
  5
262
330
1F
100
AcDbEntity
  8
0
  6
Continuous
 62
     7
370
    25
100
AcDbLine
 10
-1.5092208716
 20
4.7214094488
 30
0.0
 11
-1.7173055546
 21
4.7214094488
 31
0.0
  0
LINE
  5
263
330
1F
100
AcDbEntity
  8
0
  6
Continuous
 62
     7
370
    25
100
AcDbLine
 10
-1.4697018916
 20
4.7214094488
 30
0.0
 11
-1.4719811762
 21
4.7214094488
 31
0.0
  0
LINE
  5
264
330
1F
100
AcDbEntity
  8
0
  6
Continuous
 62
     7
370
    25
100
AcDbLine
 10
-1.4697018916
 20
4.7232731811
 30
0.0
 11
-1.4697018916
 21
4.7214094488
 31
0.0
  0
LINE
  5
265
330
1F
100
AcDbEntity
  8
0
  6
Continuous
 62
     7
370
    25
100
AcDbLine
 10
-1.468503937
 20
4.7686036226
 30
0.0
 11
-1.468503937
 21
5.0739160624
 31
0.0
  0
LINE
  5
266
330
1F
100
AcDbEntity
  8
0
  6
Continuous
 62
     7
370
    25
100
AcDbLine
 10
-1.4697018916
 20
5.1211102362
 30
0.0
 11
-1.4697018916
 21
5.119246504
 31
0.0
  0
LINE
  5
267
330
1F
100
AcDbEntity
  8
0
  6
Continuous
 62
     7
370
    25
100
AcDbLine
 10
-1.4719811762
 20
5.1211102362
 30
0.0
 11
-1.4697018916
 21
5.1211102362
 31
0.0
  0
LINE
  5
268
330
1F
100
AcDbEntity
  8
0
  6
Continuous
 62
     7
370
    25
100
AcDbLine
 10
-1.7173055546
 20
5.1211102362
 30
0.0
 11
-1.5092208716
 21
5.1211102362
 31
0.0
  0
LINE
  5
269
330
1F
100
AcDbEntity
  8
0
  6
Continuous
 62
     7
370
    25
100
AcDbLine
 10
-1.7173055546
 20
5.1181102362
 30
0.0
 11
-1.7173055546
 21
5.1211102362
 31
0.0
  0
LINE
  5
26A
330
1F
100
AcDbEntity
  8
0
  6
Continuous
 62
     7
370
    25
100
AcDbLine
 10
-1.7173055546
 20
5.1181102362
 30
0.0
 11
-1.718503937
 21
5.1181102362
 31
0.0
  0
LINE
  5
26B
330
1F
100
AcDbEntity
  8
0
  6
Continuous
 62
     7
370
    25
100
AcDbLine
 10
-1.718503937
 20
5.1181102362
 30
0.0
 11
-1.718503937
 21
5.5118110236
 31
0.0
  0
LINE
  5
26C
330
1F
100
AcDbEntity
  8
0
  6
Continuous
 62
     7
370
    25
100
AcDbLine
 10
-1.718503937
 20
5.5118110236
 30
0.0
 11
-1.7173055546
 21
5.5118110236
 31
0.0
  0
LINE
  5
26D
330
1F
100
AcDbEntity
  8
0
  6
Continuous
 62
     7
370
    25
100
AcDbLine
 10
-1.7173055546
 20
5.5088110236
 30
0.0
 11
-1.7173055546
 21
5.5118110236
 31
0.0
  0
LINE
  5
26E
330
1F
100
AcDbEntity
  8
0
  6
Continuous
 62
     7
370
    25
100
AcDbLine
 10
-1.5092208716
 20
5.5088110236
 30
0.0
 11
-1.7173055546
 21
5.5088110236
 31
0.0
  0
LINE
  5
26F
330
1F
100
AcDbEntity
  8
0
  6
Continuous
 62
     7
370
    25
100
AcDbLine
 10
-1.4697018916
 20
5.5088110236
 30
0.0
 11
-1.4719811762
 21
5.5088110236
 31
0.0
  0
LINE
  5
270
330
1F
100
AcDbEntity
  8
0
  6
Continuous
 62
     7
370
    25
100
AcDbLine
 10
-1.4697018916
 20
5.5106747559
 30
0.0
 11
-1.4697018916
 21
5.5088110236
 31
0.0
  0
LINE
  5
271
330
1F
100
AcDbEntity
  8
0
  6
Continuous
 62
     7
370
    25
100
AcDbLine
 10
-1.468503937
 20
5.5560051974
 30
0.0
 11
-1.468503937
 21
5.8613176372
 31
0.0
  0
LINE
  5
272
330
1F
100
AcDbEntity
  8
0
  6
Continuous
 62
     7
370
    25
100
AcDbLine
 10
-1.4697018916
 20
5.908511811
 30
0.0
 11
-1.4697018916
 21
5.9066480788
 31
0.0
  0
LINE
  5
273
330
1F
100
AcDbEntity
  8
0
  6
Continuous
 62
     7
370
    25
100
AcDbLine
 10
-1.4719811762
 20
5.908511811
 30
0.0
 11
-1.4697018916
 21
5.908511811
 31
0.0
  0
LINE
  5
274
330
1F
100
AcDbEntity
  8
0
  6
Continuous
 62
     7
370
    25
100
AcDbLine
 10
-1.7173055546
 20
5.908511811
 30
0.0
 11
-1.5092208716
 21
5.908511811
 31
0.0
  0
LINE
  5
275
330
1F
100
AcDbEntity
  8
0
  6
Continuous
 62
     7
370
    25
100
AcDbLine
 10
-1.7173055546
 20
5.905511811
 30
0.0
 11
-1.7173055546
 21
5.908511811
 31
0.0
  0
LINE
  5
276
330
1F
100
AcDbEntity
  8
0
  6
Continuous
 62
     7
370
    25
100
AcDbLine
 10
-1.7173055546
 20
5.905511811
 30
0.0
 11
-1.718503937
 21
5.905511811
 31
0.0
  0
LINE
  5
277
330
1F
100
AcDbEntity
  8
0
  6
Continuous
 62
     7
370
    25
100
AcDbLine
 10
-1.718503937
 20
5.905511811
 30
0.0
 11
-1.718503937
 21
6.2992125984
 31
0.0
  0
LINE
  5
278
330
1F
100
AcDbEntity
  8
0
  6
Continuous
 62
     7
370
    25
100
AcDbLine
 10
-1.718503937
 20
6.2992125984
 30
0.0
 11
-1.7173055546
 21
6.2992125984
 31
0.0
  0
LINE
  5
279
330
1F
100
AcDbEntity
  8
0
  6
Continuous
 62
     7
370
    25
100
AcDbLine
 10
-1.7173055546
 20
6.2962125984
 30
0.0
 11
-1.7173055546
 21
6.2992125984
 31
0.0
  0
LINE
  5
27A
330
1F
100
AcDbEntity
  8
0
  6
Continuous
 62
     7
370
    25
100
AcDbLine
 10
-1.5092208716
 20
6.2962125984
 30
0.0
 11
-1.7173055546
 21
6.2962125984
 31
0.0
  0
LINE
  5
27B
330
1F
100
AcDbEntity
  8
0
  6
Continuous
 62
     7
370
    25
100
AcDbLine
 10
-1.4697018916
 20
6.2962125984
 30
0.0
 11
-1.4719811762
 21
6.2962125984
 31
0.0
  0
LINE
  5
27C
330
1F
100
AcDbEntity
  8
0
  6
Continuous
 62
     7
370
    25
100
AcDbLine
 10
-1.4697018916
 20
6.2980763307
 30
0.0
 11
-1.4697018916
 21
6.2962125984
 31
0.0
  0
LINE
  5
27D
330
1F
100
AcDbEntity
  8
0
  6
Continuous
 62
     7
370
    25
100
AcDbLine
 10
-1.468503937
 20
6.3434067722
 30
0.0
 11
-1.468503937
 21
6.648719212
 31
0.0
  0
LINE
  5
27E
330
1F
100
AcDbEntity
  8
0
  6
Continuous
 62
     7
370
    25
100
AcDbLine
 10
-1.4697018916
 20
6.6959133858
 30
0.0
 11
-1.4697018916
 21
6.6940496536
 31
0.0
  0
LINE
  5
27F
330
1F
100
AcDbEntity
  8
0
  6
Continuous
 62
     7
370
    25
100
AcDbLine
 10
-1.4719811762
 20
6.6959133858
 30
0.0
 11
-1.4697018916
 21
6.6959133858
 31
0.0
  0
LINE
  5
280
330
1F
100
AcDbEntity
  8
0
  6
Continuous
 62
     7
370
    25
100
AcDbLine
 10
-1.7173055546
 20
6.6959133858
 30
0.0
 11
-1.5092208716
 21
6.6959133858
 31
0.0
  0
LINE
  5
281
330
1F
100
AcDbEntity
  8
0
  6
Continuous
 62
     7
370
    25
100
AcDbLine
 10
-1.7173055546
 20
6.6929133858
 30
0.0
 11
-1.7173055546
 21
6.6959133858
 31
0.0
  0
LINE
  5
282
330
1F
100
AcDbEntity
  8
0
  6
Continuous
 62
     7
370
    25
100
AcDbLine
 10
-1.7173055546
 20
6.6929133858
 30
0.0
 11
-1.718503937
 21
6.6929133858
 31
0.0
  0
LINE
  5
283
330
1F
100
AcDbEntity
  8
0
  6
Continuous
 62
     7
370
    25
100
AcDbLine
 10
-1.718503937
 20
6.6929133858
 30
0.0
 11
-1.718503937
 21
7.0866141732
 31
0.0
  0
LINE
  5
284
330
1F
100
AcDbEntity
  8
0
  6
Continuous
 62
     7
370
    25
100
AcDbLine
 10
-1.718503937
 20
7.0866141732
 30
0.0
 11
-1.7173055546
 21
7.0866141732
 31
0.0
  0
LINE
  5
285
330
1F
100
AcDbEntity
  8
0
  6
Continuous
 62
     7
370
    25
100
AcDbLine
 10
-1.7173055546
 20
7.0836141732
 30
0.0
 11
-1.7173055546
 21
7.0866141732
 31
0.0
  0
LINE
  5
286
330
1F
100
AcDbEntity
  8
0
  6
Continuous
 62
     7
370
    25
100
AcDbLine
 10
-1.5092208716
 20
7.0836141732
 30
0.0
 11
-1.7173055546
 21
7.0836141732
 31
0.0
  0
LINE
  5
287
330
1F
100
AcDbEntity
  8
0
  6
Continuous
 62
     7
370
    25
100
AcDbLine
 10
-1.4697018916
 20
7.0836141732
 30
0.0
 11
-1.4719811762
 21
7.0836141732
 31
0.0
  0
LINE
  5
288
330
1F
100
AcDbEntity
  8
0
  6
Continuous
 62
     7
370
    25
100
AcDbLine
 10
-1.4697018916
 20
7.0854779055
 30
0.0
 11
-1.4697018916
 21
7.0836141732
 31
0.0
  0
LINE
  5
289
330
1F
100
AcDbEntity
  8
0
  6
Continuous
 62
     7
370
    25
100
AcDbLine
 10
-1.468503937
 20
7.1308083471
 30
0.0
 11
-1.468503937
 21
7.4361207868
 31
0.0
  0
LINE
  5
28A
330
1F
100
AcDbEntity
  8
0
  6
Continuous
 62
     7
370
    25
100
AcDbLine
 10
-1.4697018916
 20
7.4833149606
 30
0.0
 11
-1.4697018916
 21
7.4814512284
 31
0.0
  0
LINE
  5
28B
330
1F
100
AcDbEntity
  8
0
  6
Continuous
 62
     7
370
    25
100
AcDbLine
 10
-1.4719811762
 20
7.4833149606
 30
0.0
 11
-1.4697018916
 21
7.4833149606
 31
0.0
  0
LINE
  5
28C
330
1F
100
AcDbEntity
  8
0
  6
Continuous
 62
     7
370
    25
100
AcDbLine
 10
-1.7173055546
 20
7.4833149606
 30
0.0
 11
-1.5092208716
 21
7.4833149606
 31
0.0
  0
LINE
  5
28D
330
1F
100
AcDbEntity
  8
0
  6
Continuous
 62
     7
370
    25
100
AcDbLine
 10
-1.7173055546
 20
7.4803149606
 30
0.0
 11
-1.7173055546
 21
7.4833149606
 31
0.0
  0
LINE
  5
28E
330
1F
100
AcDbEntity
  8
0
  6
Continuous
 62
     7
370
    25
100
AcDbLine
 10
-1.7173055546
 20
7.4803149606
 30
0.0
 11
-1.718503937
 21
7.4803149606
 31
0.0
  0
LINE
  5
28F
330
1F
100
AcDbEntity
  8
0
  6
Continuous
 62
     7
370
    25
100
AcDbLine
 10
-1.718503937
 20
7.4803149606
 30
0.0
 11
-1.718503937
 21
7.874015748
 31
0.0
  0
LINE
  5
290
330
1F
100
AcDbEntity
  8
0
  6
Continuous
 62
     7
370
    25
100
AcDbLine
 10
-1.718503937
 20
7.874015748
 30
0.0
 11
-0.975296536
 21
7.874015748
 31
0.0
  0
LINE
  5
291
330
1F
100
AcDbEntity
  8
0
  6
Continuous
 62
     7
370
    25
100
AcDbLine
 10
-0.9311023622
 20
7.9182099219
 30
0.0
 11
-0.9311023622
 21
8.061515748
 31
0.0
  0
LINE
  5
292
330
1F
100
AcDbEntity
  8
0
  6
Continuous
 62
     7
370
    25
100
AcDbLine
 10
-0.8686023622
 20
8.124015748
 30
0.0
 11
-0.9311023622
 21
8.061515748
 31
0.0
  0
LINE
  5
293
330
1F
100
AcDbEntity
  8
0
  6
Continuous
 62
     7
370
    25
100
AcDbLine
 10
-0.8686023622
 20
8.124015748
 30
0.0
 11
-0.5999015748
 21
8.124015748
 31
0.0
  0
LINE
  5
294
330
1F
100
AcDbEntity
  8
0
  6
Continuous
 62
     7
370
    25
100
AcDbLine
 10
-0.5374015748
 20
8.061515748
 30
0.0
 11
-0.5999015748
 21
8.124015748
 31
0.0
  0
LINE
  5
295
330
1F
100
AcDbEntity
  8
0
  6
Continuous
 62
     7
370
    25
100
AcDbLine
 10
-0.5374015748
 20
8.061515748
 30
0.0
 11
-0.5374015748
 21
7.9182099219
 31
0.0
  0
LINE
  5
296
330
1F
100
AcDbEntity
  8
0
  6
Continuous
 62
     7
370
    25
100
AcDbLine
 10
-0.493207401
 20
7.874015748
 30
0.0
 11
0.25
 21
7.874015748
 31
0.0
  0
LINE
  5
297
330
1F
100
AcDbEntity
  8
0
  6
Continuous
 62
     7
370
    25
100
AcDbLine
 10
0.25
 20
7.874015748
 30
0.0
 11
0.25
 21
7.4803149606
 31
0.0
  0
LINE
  5
298
330
1F
100
AcDbEntity
  8
0
  6
Continuous
 62
     7
370
    25
100
AcDbLine
 10
0.25
 20
7.4803149606
 30
0.0
 11
0.249329518
 21
7.4803149606
 31
0.0
  0
LINE
  5
299
330
1F
100
AcDbEntity
  8
0
  6
Continuous
 62
     7
370
    25
100
AcDbLine
 10
0.249329518
 20
7.480648294
 30
0.0
 11
0.249329518
 21
7.4803149606
 31
0.0
  0
LINE
  5
29A
330
1F
100
AcDbEntity
  8
0
  6
Continuous
 62
     7
370
    25
100
AcDbLine
 10
0.0415569752
 20
7.480648294
 30
0.0
 11
0.249329518
 21
7.480648294
 31
0.0
  0
LINE
  5
29B
330
1F
100
AcDbEntity
  8
0
  6
Continuous
 62
     7
370
    25
100
AcDbLine
 10
0.0006706546
 20
7.480648294
 30
0.0
 11
0.0026371986
 21
7.480648294
 31
0.0
  0
LINE
  5
29C
330
1F
100
AcDbEntity
  8
0
  6
Continuous
 62
     7
370
    25
100
AcDbLine
 10
0.0006706546
 20
7.4789447842
 30
0.0
 11
0.0006706546
 21
7.480648294
 31
0.0
  0
LINE
  5
29D
330
1F
100
AcDbEntity
  8
0
  6
Continuous
 62
     7
370
    25
100
AcDbLine
 10
0.0
 20
7.4340997194
 30
0.0
 11
0.0
 21
7.1308083471
 31
0.0
  0
LINE
  5
29E
330
1F
100
AcDbEntity
  8
0
  6
Continuous
 62
     7
370
    25
100
AcDbLine
 10
0.0006706546
 20
7.0842597725
 30
0.0
 11
0.0006706546
 21
7.0859632823
 31
0.0
  0
LINE
  5
29F
330
1F
100
AcDbEntity
  8
0
  6
Continuous
 62
     7
370
    25
100
AcDbLine
 10
0.0026371986
 20
7.0842597725
 30
0.0
 11
0.0006706546
 21
7.0842597725
 31
0.0
  0
LINE
  5
2A0
330
1F
100
AcDbEntity
  8
0
  6
Continuous
 62
     7
370
    25
100
AcDbLine
 10
0.249329518
 20
7.0842597725
 30
0.0
 11
0.0415569752
 21
7.0842597725
 31
0.0
  0
LINE
  5
2A1
330
1F
100
AcDbEntity
  8
0
  6
Continuous
 62
     7
370
    25
100
AcDbLine
 10
0.249329518
 20
7.0866141732
 30
0.0
 11
0.249329518
 21
7.0842597725
 31
0.0
  0
LINE
  5
2A2
330
1F
100
AcDbEntity
  8
0
  6
Continuous
 62
     7
370
    25
100
AcDbLine
 10
0.249329518
 20
7.0866141732
 30
0.0
 11
0.25
 21
7.0866141732
 31
0.0
  0
LINE
  5
2A3
330
1F
100
AcDbEntity
  8
0
  6
Continuous
 62
     7
370
    25
100
AcDbLine
 10
0.25
 20
7.0866141732
 30
0.0
 11
0.25
 21
6.6929133858
 31
0.0
  0
LINE
  5
2A4
330
1F
100
AcDbEntity
  8
0
  6
Continuous
 62
     7
370
    25
100
AcDbLine
 10
0.25
 20
6.6929133858
 30
0.0
 11
0.249329518
 21
6.6929133858
 31
0.0
  0
LINE
  5
2A5
330
1F
100
AcDbEntity
  8
0
  6
Continuous
 62
     7
370
    25
100
AcDbLine
 10
0.249329518
 20
6.6932467192
 30
0.0
 11
0.249329518
 21
6.6929133858
 31
0.0
  0
LINE
  5
2A6
330
1F
100
AcDbEntity
  8
0
  6
Continuous
 62
     7
370
    25
100
AcDbLine
 10
0.0438557346
 20
6.6932467192
 30
0.0
 11
0.249329518
 21
6.6932467192
 31
0.0
  0
LINE
  5
2A7
330
1F
100
AcDbEntity
  8
0
  6
Continuous
 62
     7
370
    25
100
AcDbLine
 10
0.0
 20
6.648719212
 30
0.0
 11
0.0
 21
6.3434067722
 31
0.0
  0
LINE
  5
2A8
330
1F
100
AcDbEntity
  8
0
  6
Continuous
 62
     7
370
    25
100
AcDbLine
 10
0.0006706546
 20
6.2968581977
 30
0.0
 11
0.0006706546
 21
6.2985617075
 31
0.0
  0
LINE
  5
2A9
330
1F
100
AcDbEntity
  8
0
  6
Continuous
 62
     7
370
    25
100
AcDbLine
 10
0.0026371986
 20
6.2968581977
 30
0.0
 11
0.0006706546
 21
6.2968581977
 31
0.0
  0
LINE
  5
2AA
330
1F
100
AcDbEntity
  8
0
  6
Continuous
 62
     7
370
    25
100
AcDbLine
 10
0.249329518
 20
6.2968581977
 30
0.0
 11
0.0415569752
 21
6.2968581977
 31
0.0
  0
LINE
  5
2AB
330
1F
100
AcDbEntity
  8
0
  6
Continuous
 62
     7
370
    25
100
AcDbLine
 10
0.249329518
 20
6.2992125984
 30
0.0
 11
0.249329518
 21
6.2968581977
 31
0.0
  0
LINE
  5
2AC
330
1F
100
AcDbEntity
  8
0
  6
Continuous
 62
     7
370
    25
100
AcDbLine
 10
0.249329518
 20
6.2992125984
 30
0.0
 11
0.25
 21
6.2992125984
 31
0.0
  0
LINE
  5
2AD
330
1F
100
AcDbEntity
  8
0
  6
Continuous
 62
     7
370
    25
100
AcDbLine
 10
0.25
 20
6.2992125984
 30
0.0
 11
0.25
 21
5.905511811
 31
0.0
  0
LINE
  5
2AE
330
1F
100
AcDbEntity
  8
0
  6
Continuous
 62
     7
370
    25
100
AcDbLine
 10
0.25
 20
5.905511811
 30
0.0
 11
0.249329518
 21
5.905511811
 31
0.0
  0
LINE
  5
2AF
330
1F
100
AcDbEntity
  8
0
  6
Continuous
 62
     7
370
    25
100
AcDbLine
 10
0.249329518
 20
5.9058451444
 30
0.0
 11
0.249329518
 21
5.905511811
 31
0.0
  0
LINE
  5
2B0
330
1F
100
AcDbEntity
  8
0
  6
Continuous
 62
     7
370
    25
100
AcDbLine
 10
0.0438557346
 20
5.9058451444
 30
0.0
 11
0.249329518
 21
5.9058451444
 31
0.0
  0
LINE
  5
2B1
330
1F
100
AcDbEntity
  8
0
  6
Continuous
 62
     7
370
    25
100
AcDbLine
 10
0.0
 20
5.8613176372
 30
0.0
 11
0.0
 21
5.5560051974
 31
0.0
  0
LINE
  5
2B2
330
1F
100
AcDbEntity
  8
0
  6
Continuous
 62
     7
370
    25
100
AcDbLine
 10
0.0006706546
 20
5.5094566229
 30
0.0
 11
0.0006706546
 21
5.5111601327
 31
0.0
  0
LINE
  5
2B3
330
1F
100
AcDbEntity
  8
0
  6
Continuous
 62
     7
370
    25
100
AcDbLine
 10
0.0026371986
 20
5.5094566229
 30
0.0
 11
0.0006706546
 21
5.5094566229
 31
0.0
  0
LINE
  5
2B4
330
1F
100
AcDbEntity
  8
0
  6
Continuous
 62
     7
370
    25
100
AcDbLine
 10
0.249329518
 20
5.5094566229
 30
0.0
 11
0.0415569752
 21
5.5094566229
 31
0.0
  0
LINE
  5
2B5
330
1F
100
AcDbEntity
  8
0
  6
Continuous
 62
     7
370
    25
100
AcDbLine
 10
0.249329518
 20
5.5118110236
 30
0.0
 11
0.249329518
 21
5.5094566229
 31
0.0
  0
LINE
  5
2B6
330
1F
100
AcDbEntity
  8
0
  6
Continuous
 62
     7
370
    25
100
AcDbLine
 10
0.249329518
 20
5.5118110236
 30
0.0
 11
0.25
 21
5.5118110236
 31
0.0
  0
LINE
  5
2B7
330
1F
100
AcDbEntity
  8
0
  6
Continuous
 62
     7
370
    25
100
AcDbLine
 10
0.25
 20
5.5118110236
 30
0.0
 11
0.25
 21
5.1181102362
 31
0.0
  0
LINE
  5
2B8
330
1F
100
AcDbEntity
  8
0
  6
Continuous
 62
     7
370
    25
100
AcDbLine
 10
0.25
 20
5.1181102362
 30
0.0
 11
0.249329518
 21
5.1181102362
 31
0.0
  0
LINE
  5
2B9
330
1F
100
AcDbEntity
  8
0
  6
Continuous
 62
     7
370
    25
100
AcDbLine
 10
0.249329518
 20
5.1184435696
 30
0.0
 11
0.249329518
 21
5.1181102362
 31
0.0
  0
LINE
  5
2BA
330
1F
100
AcDbEntity
  8
0
  6
Continuous
 62
     7
370
    25
100
AcDbLine
 10
0.0438557346
 20
5.1184435696
 30
0.0
 11
0.249329518
 21
5.1184435696
 31
0.0
  0
LINE
  5
2BB
330
1F
100
AcDbEntity
  8
0
  6
Continuous
 62
     7
370
    25
100
AcDbLine
 10
0.0
 20
5.0739160624
 30
0.0
 11
0.0
 21
4.7686036226
 31
0.0
  0
LINE
  5
2BC
330
1F
100
AcDbEntity
  8
0
  6
Continuous
 62
     7
370
    25
100
AcDbLine
 10
0.0006706546
 20
4.7220550481
 30
0.0
 11
0.0006706546
 21
4.7237585579
 31
0.0
  0
LINE
  5
2BD
330
1F
100
AcDbEntity
  8
0
  6
Continuous
 62
     7
370
    25
100
AcDbLine
 10
0.0026371986
 20
4.7220550481
 30
0.0
 11
0.0006706546
 21
4.7220550481
 31
0.0
  0
LINE
  5
2BE
330
1F
100
AcDbEntity
  8
0
  6
Continuous
 62
     7
370
    25
100
AcDbLine
 10
0.249329518
 20
4.7220550481
 30
0.0
 11
0.0415569752
 21
4.7220550481
 31
0.0
  0
LINE
  5
2BF
330
1F
100
AcDbEntity
  8
0
  6
Continuous
 62
     7
370
    25
100
AcDbLine
 10
0.249329518
 20
4.7244094488
 30
0.0
 11
0.249329518
 21
4.7220550481
 31
0.0
  0
LINE
  5
2C0
330
1F
100
AcDbEntity
  8
0
  6
Continuous
 62
     7
370
    25
100
AcDbLine
 10
0.249329518
 20
4.7244094488
 30
0.0
 11
0.25
 21
4.7244094488
 31
0.0
  0
LINE
  5
2C1
330
1F
100
AcDbEntity
  8
0
  6
Continuous
 62
     7
370
    25
100
AcDbLine
 10
0.25
 20
4.7244094488
 30
0.0
 11
0.25
 21
4.3307086614
 31
0.0
  0
LINE
  5
2C2
330
1F
100
AcDbEntity
  8
0
  6
Continuous
 62
     7
370
    25
100
AcDbLine
 10
0.25
 20
4.3307086614
 30
0.0
 11
0.249329518
 21
4.3307086614
 31
0.0
  0
LINE
  5
2C3
330
1F
100
AcDbEntity
  8
0
  6
Continuous
 62
     7
370
    25
100
AcDbLine
 10
0.249329518
 20
4.3310419948
 30
0.0
 11
0.249329518
 21
4.3307086614
 31
0.0
  0
LINE
  5
2C4
330
1F
100
AcDbEntity
  8
0
  6
Continuous
 62
     7
370
    25
100
AcDbLine
 10
0.0438557346
 20
4.3310419948
 30
0.0
 11
0.249329518
 21
4.3310419948
 31
0.0
  0
LINE
  5
2C5
330
1F
100
AcDbEntity
  8
0
  6
Continuous
 62
     7
370
    25
100
AcDbLine
 10
0.0
 20
4.2865144876
 30
0.0
 11
0.0
 21
3.9812020478
 31
0.0
  0
LINE
  5
2C6
330
1F
100
AcDbEntity
  8
0
  6
Continuous
 62
     7
370
    25
100
AcDbLine
 10
0.0006706546
 20
3.9346534733
 30
0.0
 11
0.0006706546
 21
3.9363569831
 31
0.0
  0
LINE
  5
2C7
330
1F
100
AcDbEntity
  8
0
  6
Continuous
 62
     7
370
    25
100
AcDbLine
 10
0.0026371986
 20
3.9346534733
 30
0.0
 11
0.0006706546
 21
3.9346534733
 31
0.0
  0
LINE
  5
2C8
330
1F
100
AcDbEntity
  8
0
  6
Continuous
 62
     7
370
    25
100
AcDbLine
 10
0.249329518
 20
3.9346534733
 30
0.0
 11
0.0415569752
 21
3.9346534733
 31
0.0
  0
LINE
  5
2C9
330
1F
100
AcDbEntity
  8
0
  6
Continuous
 62
     7
370
    25
100
AcDbLine
 10
0.249329518
 20
3.937007874
 30
0.0
 11
0.249329518
 21
3.9346534733
 31
0.0
  0
LINE
  5
2CA
330
1F
100
AcDbEntity
  8
0
  6
Continuous
 62
     7
370
    25
100
AcDbLine
 10
0.249329518
 20
3.937007874
 30
0.0
 11
0.25
 21
3.937007874
 31
0.0
  0
LINE
  5
2CB
330
1F
100
AcDbEntity
  8
0
  6
Continuous
 62
     7
370
    25
100
AcDbLine
 10
0.25
 20
3.937007874
 30
0.0
 11
0.25
 21
3.5433070866
 31
0.0
  0
LINE
  5
2CC
330
1F
100
AcDbEntity
  8
0
  6
Continuous
 62
     7
370
    25
100
AcDbLine
 10
0.25
 20
3.5433070866
 30
0.0
 11
0.249329518
 21
3.5433070866
 31
0.0
  0
LINE
  5
2CD
330
1F
100
AcDbEntity
  8
0
  6
Continuous
 62
     7
370
    25
100
AcDbLine
 10
0.249329518
 20
3.5436404199
 30
0.0
 11
0.249329518
 21
3.5433070866
 31
0.0
  0
LINE
  5
2CE
330
1F
100
AcDbEntity
  8
0
  6
Continuous
 62
     7
370
    25
100
AcDbLine
 10
0.0438557346
 20
3.5436404199
 30
0.0
 11
0.249329518
 21
3.5436404199
 31
0.0
  0
LINE
  5
2CF
330
1F
100
AcDbEntity
  8
0
  6
Continuous
 62
     7
370
    25
100
AcDbLine
 10
0.0
 20
3.4991129128
 30
0.0
 11
0.0
 21
3.193800473
 31
0.0
  0
LINE
  5
2D0
330
1F
100
AcDbEntity
  8
0
  6
Continuous
 62
     7
370
    25
100
AcDbLine
 10
0.0006706546
 20
3.1472518985
 30
0.0
 11
0.0006706546
 21
3.1489554083
 31
0.0
  0
LINE
  5
2D1
330
1F
100
AcDbEntity
  8
0
  6
Continuous
 62
     7
370
    25
100
AcDbLine
 10
0.0026371986
 20
3.1472518985
 30
0.0
 11
0.0006706546
 21
3.1472518985
 31
0.0
  0
LINE
  5
2D2
330
1F
100
AcDbEntity
  8
0
  6
Continuous
 62
     7
370
    25
100
AcDbLine
 10
0.249329518
 20
3.1472518985
 30
0.0
 11
0.0415569752
 21
3.1472518985
 31
0.0
  0
LINE
  5
2D3
330
1F
100
AcDbEntity
  8
0
  6
Continuous
 62
     7
370
    25
100
AcDbLine
 10
0.249329518
 20
3.1496062992
 30
0.0
 11
0.249329518
 21
3.1472518985
 31
0.0
  0
LINE
  5
2D4
330
1F
100
AcDbEntity
  8
0
  6
Continuous
 62
     7
370
    25
100
AcDbLine
 10
0.249329518
 20
3.1496062992
 30
0.0
 11
0.25
 21
3.1496062992
 31
0.0
  0
LINE
  5
2D5
330
1F
100
AcDbEntity
  8
0
  6
Continuous
 62
     7
370
    25
100
AcDbLine
 10
0.25
 20
3.1496062992
 30
0.0
 11
0.25
 21
2.7559055118
 31
0.0
  0
LINE
  5
2D6
330
1F
100
AcDbEntity
  8
0
  6
Continuous
 62
     7
370
    25
100
AcDbLine
 10
0.25
 20
2.7559055118
 30
0.0
 11
0.249329518
 21
2.7559055118
 31
0.0
  0
LINE
  5
2D7
330
1F
100
AcDbEntity
  8
0
  6
Continuous
 62
     7
370
    25
100
AcDbLine
 10
0.249329518
 20
2.7562388451
 30
0.0
 11
0.249329518
 21
2.7559055118
 31
0.0
  0
LINE
  5
2D8
330
1F
100
AcDbEntity
  8
0
  6
Continuous
 62
     7
370
    25
100
AcDbLine
 10
0.0438557346
 20
2.7562388451
 30
0.0
 11
0.249329518
 21
2.7562388451
 31
0.0
  0
LINE
  5
2D9
330
1F
100
AcDbEntity
  8
0
  6
Continuous
 62
     7
370
    25
100
AcDbLine
 10
0.0
 20
2.711711338
 30
0.0
 11
0.0
 21
2.4063988982
 31
0.0
  0
LINE
  5
2DA
330
1F
100
AcDbEntity
  8
0
  6
Continuous
 62
     7
370
    25
100
AcDbLine
 10
0.0006706546
 20
2.3598503237
 30
0.0
 11
0.0006706546
 21
2.3615538335
 31
0.0
  0
LINE
  5
2DB
330
1F
100
AcDbEntity
  8
0
  6
Continuous
 62
     7
370
    25
100
AcDbLine
 10
0.0026371986
 20
2.3598503237
 30
0.0
 11
0.0006706546
 21
2.3598503237
 31
0.0
  0
LINE
  5
2DC
330
1F
100
AcDbEntity
  8
0
  6
Continuous
 62
     7
370
    25
100
AcDbLine
 10
0.249329518
 20
2.3598503237
 30
0.0
 11
0.0415569752
 21
2.3598503237
 31
0.0
  0
LINE
  5
2DD
330
1F
100
AcDbEntity
  8
0
  6
Continuous
 62
     7
370
    25
100
AcDbLine
 10
0.249329518
 20
2.3622047244
 30
0.0
 11
0.249329518
 21
2.3598503237
 31
0.0
  0
LINE
  5
2DE
330
1F
100
AcDbEntity
  8
0
  6
Continuous
 62
     7
370
    25
100
AcDbLine
 10
0.249329518
 20
2.3622047244
 30
0.0
 11
0.25
 21
2.3622047244
 31
0.0
  0
LINE
  5
2DF
330
1F
100
AcDbEntity
  8
0
  6
Continuous
 62
     7
370
    25
100
AcDbLine
 10
0.25
 20
2.3622047244
 30
0.0
 11
0.25
 21
1.968503937
 31
0.0
  0
LINE
  5
2E0
330
1F
100
AcDbEntity
  8
0
  6
Continuous
 62
     7
370
    25
100
AcDbLine
 10
0.25
 20
1.968503937
 30
0.0
 11
0.249329518
 21
1.968503937
 31
0.0
  0
LINE
  5
2E1
330
1F
100
AcDbEntity
  8
0
  6
Continuous
 62
     7
370
    25
100
AcDbLine
 10
0.249329518
 20
1.9688372703
 30
0.0
 11
0.249329518
 21
1.968503937
 31
0.0
  0
LINE
  5
2E2
330
1F
100
AcDbEntity
  8
0
  6
Continuous
 62
     7
370
    25
100
AcDbLine
 10
0.0438557346
 20
1.9688372703
 30
0.0
 11
0.249329518
 21
1.9688372703
 31
0.0
  0
LINE
  5
2E3
330
1F
100
AcDbEntity
  8
0
  6
Continuous
 62
     7
370
    25
100
AcDbLine
 10
0.0
 20
1.9243097632
 30
0.0
 11
0.0
 21
1.6189973234
 31
0.0
  0
LINE
  5
2E4
330
1F
100
AcDbEntity
  8
0
  6
Continuous
 62
     7
370
    25
100
AcDbLine
 10
0.0006706546
 20
1.5724487489
 30
0.0
 11
0.0006706546
 21
1.5741522587
 31
0.0
  0
LINE
  5
2E5
330
1F
100
AcDbEntity
  8
0
  6
Continuous
 62
     7
370
    25
100
AcDbLine
 10
0.0026371986
 20
1.5724487489
 30
0.0
 11
0.0006706546
 21
1.5724487489
 31
0.0
  0
LINE
  5
2E6
330
1F
100
AcDbEntity
  8
0
  6
Continuous
 62
     7
370
    25
100
AcDbLine
 10
0.249329518
 20
1.5724487489
 30
0.0
 11
0.0415569752
 21
1.5724487489
 31
0.0
  0
LINE
  5
2E7
330
1F
100
AcDbEntity
  8
0
  6
Continuous
 62
     7
370
    25
100
AcDbLine
 10
0.249329518
 20
1.5748031496
 30
0.0
 11
0.249329518
 21
1.5724487489
 31
0.0
  0
LINE
  5
2E8
330
1F
100
AcDbEntity
  8
0
  6
Continuous
 62
     7
370
    25
100
AcDbLine
 10
0.249329518
 20
1.5748031496
 30
0.0
 11
0.25
 21
1.5748031496
 31
0.0
  0
LINE
  5
2E9
330
1F
100
AcDbEntity
  8
0
  6
Continuous
 62
     7
370
    25
100
AcDbLine
 10
0.25
 20
1.5748031496
 30
0.0
 11
0.25
 21
1.1811023622
 31
0.0
  0
LINE
  5
2EA
330
1F
100
AcDbEntity
  8
0
  6
Continuous
 62
     7
370
    25
100
AcDbLine
 10
0.25
 20
1.1811023622
 30
0.0
 11
0.249329518
 21
1.1811023622
 31
0.0
  0
LINE
  5
2EB
330
1F
100
AcDbEntity
  8
0
  6
Continuous
 62
     7
370
    25
100
AcDbLine
 10
0.249329518
 20
1.1814356955
 30
0.0
 11
0.249329518
 21
1.1811023622
 31
0.0
  0
LINE
  5
2EC
330
1F
100
AcDbEntity
  8
0
  6
Continuous
 62
     7
370
    25
100
AcDbLine
 10
0.0438557346
 20
1.1814356955
 30
0.0
 11
0.249329518
 21
1.1814356955
 31
0.0
  0
LINE
  5
2ED
330
1F
100
AcDbEntity
  8
0
  6
Continuous
 62
     7
370
    25
100
AcDbLine
 10
0.0
 20
1.1369081884
 30
0.0
 11
0.0
 21
0.8315957486
 31
0.0
  0
LINE
  5
2EE
330
1F
100
AcDbEntity
  8
0
  6
Continuous
 62
     7
370
    25
100
AcDbLine
 10
0.0006706546
 20
0.7850471741
 30
0.0
 11
0.0006706546
 21
0.7867506838
 31
0.0
  0
LINE
  5
2EF
330
1F
100
AcDbEntity
  8
0
  6
Continuous
 62
     7
370
    25
100
AcDbLine
 10
0.0026371986
 20
0.7850471741
 30
0.0
 11
0.0006706546
 21
0.7850471741
 31
0.0
  0
LINE
  5
2F0
330
1F
100
AcDbEntity
  8
0
  6
Continuous
 62
     7
370
    25
100
AcDbLine
 10
0.249329518
 20
0.7850471741
 30
0.0
 11
0.0415569752
 21
0.7850471741
 31
0.0
  0
LINE
  5
2F1
330
1F
100
AcDbEntity
  8
0
  6
Continuous
 62
     7
370
    25
100
AcDbLine
 10
0.249329518
 20
0.7874015748
 30
0.0
 11
0.249329518
 21
0.7850471741
 31
0.0
  0
LINE
  5
2F2
330
1F
100
AcDbEntity
  8
0
  6
Continuous
 62
     7
370
    25
100
AcDbLine
 10
0.249329518
 20
0.7874015748
 30
0.0
 11
0.25
 21
0.7874015748
 31
0.0
  0
LINE
  5
2F3
330
1F
100
AcDbEntity
  8
0
  6
Continuous
 62
     7
370
    25
100
AcDbLine
 10
0.25
 20
0.7874015748
 30
0.0
 11
0.25
 21
0.3937007874
 31
0.0
  0
LINE
  5
2F4
330
1F
100
AcDbEntity
  8
0
  6
Continuous
 62
     7
370
    25
100
AcDbLine
 10
0.25
 20
0.3937007874
 30
0.0
 11
0.0441941738
 21
0.3937007874
 31
0.0
  0
LINE
  5
2F5
330
1F
100
AcDbEntity
  8
0
  6
Continuous
 62
     7
370
    25
100
AcDbLine
 10
0.0
 20
0.3495066136
 30
0.0
 11
0.0
 21
0.0
 31
0.0
  0
LINE
  5
2F6
330
1F
100
AcDbEntity
  8
0
  6
Continuous
 62
     7
370
    25
100
AcDbLine
 10
0.0
 20
0.0
 30
0.0
 11
-0.493207401
 21
0.0
 31
0.0
  0
LINE
  5
2F7
330
1F
100
AcDbEntity
  8
0
  6
Continuous
 62
     7
370
    25
100
AcDbLine
 10
-0.5374015748
 20
-0.0441941738
 30
0.0
 11
-0.5374015748
 21
-0.1875
 31
0.0
  0
LINE
  5
2F8
330
1F
100
AcDbEntity
  8
0
  6
Continuous
 62
     7
370
    25
100
AcDbLine
 10
-0.5999015748
 20
-0.25
 30
0.0
 11
-0.5374015748
 21
-0.1875
 31
0.0
  0
LINE
  5
2F9
330
1F
100
AcDbEntity
  8
0
  6
Continuous
 62
     7
370
    25
100
AcDbLine
 10
-0.5999015748
 20
-0.25
 30
0.0
 11
-0.8686023622
 21
-0.25
 31
0.0
  0
LINE
  5
2FA
330
1F
100
AcDbEntity
  8
0
  6
Continuous
 62
     7
370
    25
100
AcDbLine
 10
-0.9311023622
 20
-0.1875
 30
0.0
 11
-0.8686023622
 21
-0.25
 31
0.0
  0
LINE
  5
2FB
330
1F
100
AcDbEntity
  8
0
  6
Continuous
 62
     7
370
    25
100
AcDbLine
 10
-0.9311023622
 20
-0.1875
 30
0.0
 11
-0.9311023622
 21
-0.0441941738
 31
0.0
  0
LINE
  5
2FC
330
1F
100
AcDbEntity
  8
0
  6
Continuous
 62
     7
370
    25
100
AcDbLine
 10
-0.879379208
 20
0.0060652744
 30
0.0
 11
-0.9396553027
 21
0.0060652744
 31
0.0
  0
LINE
  5
2FD
330
1F
100
AcDbEntity
  8
0
  6
Continuous
 62
     7
370
    25
100
AcDbLine
 10
-0.5614765206
 20
0.0959317585
 30
0.0
 11
-0.5848168435
 21
0.1717254008
 31
0.0
  0
LINE
  5
2FE
330
1F
100
AcDbEntity
  8
0
  6
Continuous
 62
     7
370
    25
100
AcDbLine
 10
-0.5848168435
 20
0.1717254008
 30
0.0
 11
-0.6087500357
 21
0.0959317585
 31
0.0
  0
LINE
  5
2FF
330
1F
100
AcDbEntity
  8
0
  6
Continuous
 62
     7
370
    25
100
AcDbLine
 10
-0.6087500357
 20
0.0959317585
 30
0.0
 11
-0.5614765206
 21
0.0959317585
 31
0.0
  0
LINE
  5
300
330
1F
100
AcDbEntity
  8
0
  6
Continuous
 62
     7
370
    25
100
AcDbLine
 10
-0.7971264122
 20
0.0959317585
 30
0.0
 11
-0.8204667351
 21
0.1717254008
 31
0.0
  0
LINE
  5
301
330
1F
100
AcDbEntity
  8
0
  6
Continuous
 62
     7
370
    25
100
AcDbLine
 10
-0.8204667351
 20
0.1717254008
 30
0.0
 11
-0.8443999273
 21
0.0959317585
 31
0.0
  0
LINE
  5
302
330
1F
100
AcDbEntity
  8
0
  6
Continuous
 62
     7
370
    25
100
AcDbLine
 10
-0.8443999273
 20
0.0959317585
 30
0.0
 11
-0.7971264122
 21
0.0959317585
 31
0.0
  0
LINE
  5
303
330
1F
100
AcDbEntity
  8
0
  6
Continuous
 62
     7
370
    25
100
AcDbLine
 10
-1.0602355072
 20
0.1718190118
 30
0.0
 11
-1.077085473
 21
0.1718190118
 31
0.0
  0
LINE
  5
304
330
1F
100
AcDbEntity
  8
0
  6
Continuous
 62
     7
370
    25
100
AcDbLine
 10
-1.077085473
 20
0.1718190118
 30
0.0
 11
-1.077085473
 21
0.1258872532
 31
0.0
  0
LINE
  5
305
330
1F
100
AcDbEntity
  8
0
  6
Continuous
 62
     7
370
    25
100
AcDbLine
 10
-1.077085473
 20
0.1258872532
 30
0.0
 11
-1.0626381875
 21
0.1258872532
 31
0.0
  0
LINE
  5
306
330
1F
100
AcDbEntity
  8
0
  6
Continuous
 62
     7
370
    25
100
AcDbLine
 10
-0.4711107783
 20
0.1718190118
 30
0.0
 11
-0.487960744
 21
0.1718190118
 31
0.0
  0
LINE
  5
307
330
1F
100
AcDbEntity
  8
0
  6
Continuous
 62
     7
370
    25
100
AcDbLine
 10
-0.487960744
 20
0.1718190118
 30
0.0
 11
-0.487960744
 21
0.1258872532
 31
0.0
  0
LINE
  5
308
330
1F
100
AcDbEntity
  8
0
  6
Continuous
 62
     7
370
    25
100
AcDbLine
 10
-0.487960744
 20
0.1258872532
 30
0.0
 11
-0.4735134586
 21
0.1258872532
 31
0.0
  0
ARC
  5
309
330
1F
100
AcDbEntity
  8
0
  6
Continuous
 62
     7
370
    25
100
AcDbCircle
 10
-1.4906010239
 20
0.3716037005
 30
0.0
 40
0.0312499999999796
100
AcDbArc
 50
314.9999999999
 51
135.0
  0
ARC
  5
30A
330
1F
100
AcDbEntity
  8
0
  6
Continuous
 62
     7
370
    25
100
AcDbCircle
 10
-1.4906010239
 20
0.8094986617
 30
0.0
 40
0.0312499999999801
100
AcDbArc
 50
233.4278107009
 51
306.5721892991
  0
ARC
  5
30B
330
1F
100
AcDbEntity
  8
0
  6
Continuous
 62
     7
370
    25
100
AcDbCircle
 10
-1.4906010239
 20
0.8094986617
 30
0.0
 40
0.0312499999999791
100
AcDbArc
 50
311.9723757653
 51
45.0
  0
ARC
  5
30C
330
1F
100
AcDbEntity
  8
0
  6
Continuous
 62
     7
370
    25
100
AcDbCircle
 10
-1.4906010239
 20
1.1590052753
 30
0.0
 40
0.0312499999999666
100
AcDbArc
 50
315.0
 51
48.0276242346
  0
ARC
  5
30D
330
1F
100
AcDbEntity
  8
0
  6
Continuous
 62
     7
370
    25
100
AcDbCircle
 10
-1.4906010239
 20
1.1590052753
 30
0.0
 40
0.0312499999999665
100
AcDbArc
 50
53.4278107011
 51
126.5721892989
  0
ARC
  5
30E
330
1F
100
AcDbEntity
  8
0
  6
Continuous
 62
     7
370
    25
100
AcDbCircle
 10
-1.4906010239
 20
1.5969002365
 30
0.0
 40
0.0312499999999913
100
AcDbArc
 50
233.4278107008
 51
306.5721892992
  0
ARC
  5
30F
330
1F
100
AcDbEntity
  8
0
  6
Continuous
 62
     7
370
    25
100
AcDbCircle
 10
-1.4906010239
 20
1.5969002365
 30
0.0
 40
0.0312499999999922
100
AcDbArc
 50
311.9723757653
 51
45.0000000001
  0
ARC
  5
310
330
1F
100
AcDbEntity
  8
0
  6
Continuous
 62
     7
370
    25
100
AcDbCircle
 10
-1.4906010239
 20
1.9464068501
 30
0.0
 40
0.0312499999999918
100
AcDbArc
 50
315.0
 51
48.0276242346
  0
ARC
  5
311
330
1F
100
AcDbEntity
  8
0
  6
Continuous
 62
     7
370
    25
100
AcDbCircle
 10
-1.4906010239
 20
1.9464068501
 30
0.0
 40
0.0312499999999918
100
AcDbArc
 50
53.4278107011
 51
126.5721892989
  0
ARC
  5
312
330
1F
100
AcDbEntity
  8
0
  6
Continuous
 62
     7
370
    25
100
AcDbCircle
 10
-1.4906010239
 20
2.3843018113
 30
0.0
 40
0.0312499999999922
100
AcDbArc
 50
233.4278107008
 51
306.5721892992
  0
ARC
  5
313
330
1F
100
AcDbEntity
  8
0
  6
Continuous
 62
     7
370
    25
100
AcDbCircle
 10
-1.4906010239
 20
2.3843018113
 30
0.0
 40
0.0312499999999915
100
AcDbArc
 50
311.9723757653
 51
45.0000000001
  0
ARC
  5
314
330
1F
100
AcDbEntity
  8
0
  6
Continuous
 62
     7
370
    25
100
AcDbCircle
 10
-1.4906010239
 20
2.7338084249
 30
0.0
 40
0.0312499999999797
100
AcDbArc
 50
315.0
 51
48.0276242346
  0
ARC
  5
315
330
1F
100
AcDbEntity
  8
0
  6
Continuous
 62
     7
370
    25
100
AcDbCircle
 10
-1.4906010239
 20
2.7338084249
 30
0.0
 40
0.0312499999999799
100
AcDbArc
 50
53.4278107011
 51
126.5721892989
  0
ARC
  5
316
330
1F
100
AcDbEntity
  8
0
  6
Continuous
 62
     7
370
    25
100
AcDbCircle
 10
-1.4906010239
 20
3.1717033861
 30
0.0
 40
0.0312499999999919
100
AcDbArc
 50
233.4278107008
 51
306.5721892992
  0
ARC
  5
317
330
1F
100
AcDbEntity
  8
0
  6
Continuous
 62
     7
370
    25
100
AcDbCircle
 10
-1.4906010239
 20
3.1717033861
 30
0.0
 40
0.0312499999999917
100
AcDbArc
 50
311.9723757653
 51
45.0000000001
  0
ARC
  5
318
330
1F
100
AcDbEntity
  8
0
  6
Continuous
 62
     7
370
    25
100
AcDbCircle
 10
-1.4906010239
 20
3.5212099997
 30
0.0
 40
0.0312499999999918
100
AcDbArc
 50
315.0
 51
48.0276242346
  0
ARC
  5
319
330
1F
100
AcDbEntity
  8
0
  6
Continuous
 62
     7
370
    25
100
AcDbCircle
 10
-1.4906010239
 20
3.5212099997
 30
0.0
 40
0.0312499999999945
100
AcDbArc
 50
53.4278107011
 51
126.5721892989
  0
ARC
  5
31A
330
1F
100
AcDbEntity
  8
0
  6
Continuous
 62
     7
370
    25
100
AcDbCircle
 10
-1.4906010239
 20
3.9591049609
 30
0.0
 40
0.0312499999999909
100
AcDbArc
 50
233.4278107008
 51
306.5721892992
  0
ARC
  5
31B
330
1F
100
AcDbEntity
  8
0
  6
Continuous
 62
     7
370
    25
100
AcDbCircle
 10
-1.4906010239
 20
3.9591049609
 30
0.0
 40
0.0312499999999918
100
AcDbArc
 50
311.9723757653
 51
45.0000000001
  0
ARC
  5
31C
330
1F
100
AcDbEntity
  8
0
  6
Continuous
 62
     7
370
    25
100
AcDbCircle
 10
-1.4906010239
 20
4.3086115745
 30
0.0
 40
0.0312499999999808
100
AcDbArc
 50
315.0
 51
48.0276242346
  0
ARC
  5
31D
330
1F
100
AcDbEntity
  8
0
  6
Continuous
 62
     7
370
    25
100
AcDbCircle
 10
-1.4906010239
 20
4.3086115745
 30
0.0
 40
0.0312499999999795
100
AcDbArc
 50
53.4278107011
 51
126.5721892989
  0
ARC
  5
31E
330
1F
100
AcDbEntity
  8
0
  6
Continuous
 62
     7
370
    25
100
AcDbCircle
 10
-1.4906010239
 20
4.7465065357
 30
0.0
 40
0.03124999999999
100
AcDbArc
 50
233.4278107009
 51
306.5721892992
  0
ARC
  5
31F
330
1F
100
AcDbEntity
  8
0
  6
Continuous
 62
     7
370
    25
100
AcDbCircle
 10
-1.4906010239
 20
4.7465065357
 30
0.0
 40
0.0312499999999917
100
AcDbArc
 50
311.9723757653
 51
45.0000000001
  0
ARC
  5
320
330
1F
100
AcDbEntity
  8
0
  6
Continuous
 62
     7
370
    25
100
AcDbCircle
 10
-1.4906010239
 20
5.0960131493
 30
0.0
 40
0.031249999999991
100
AcDbArc
 50
315.0
 51
48.0276242346
  0
ARC
  5
321
330
1F
100
AcDbEntity
  8
0
  6
Continuous
 62
     7
370
    25
100
AcDbCircle
 10
-1.4906010239
 20
5.0960131493
 30
0.0
 40
0.0312499999999917
100
AcDbArc
 50
53.4278107011
 51
126.5721892989
  0
ARC
  5
322
330
1F
100
AcDbEntity
  8
0
  6
Continuous
 62
     7
370
    25
100
AcDbCircle
 10
-1.4906010239
 20
5.5339081105
 30
0.0
 40
0.0312499999999884
100
AcDbArc
 50
233.4278107009
 51
306.5721892992
  0
ARC
  5
323
330
1F
100
AcDbEntity
  8
0
  6
Continuous
 62
     7
370
    25
100
AcDbCircle
 10
-1.4906010239
 20
5.5339081105
 30
0.0
 40
0.0312499999999927
100
AcDbArc
 50
311.9723757653
 51
45.0000000001
  0
ARC
  5
324
330
1F
100
AcDbEntity
  8
0
  6
Continuous
 62
     7
370
    25
100
AcDbCircle
 10
-1.4906010239
 20
5.8834147241
 30
0.0
 40
0.0312499999999799
100
AcDbArc
 50
315.0
 51
48.0276242346
  0
ARC
  5
325
330
1F
100
AcDbEntity
  8
0
  6
Continuous
 62
     7
370
    25
100
AcDbCircle
 10
-1.4906010239
 20
5.8834147241
 30
0.0
 40
0.0312499999999807
100
AcDbArc
 50
53.4278107011
 51
126.5721892989
  0
ARC
  5
326
330
1F
100
AcDbEntity
  8
0
  6
Continuous
 62
     7
370
    25
100
AcDbCircle
 10
-1.4906010239
 20
6.3213096853
 30
0.0
 40
0.0312499999999866
100
AcDbArc
 50
233.4278107009
 51
306.5721892991
  0
ARC
  5
327
330
1F
100
AcDbEntity
  8
0
  6
Continuous
 62
     7
370
    25
100
AcDbCircle
 10
-1.4906010239
 20
6.3213096853
 30
0.0
 40
0.0312499999999866
100
AcDbArc
 50
311.9723757653
 51
45.0000000001
  0
ARC
  5
328
330
1F
100
AcDbEntity
  8
0
  6
Continuous
 62
     7
370
    25
100
AcDbCircle
 10
-1.4906010239
 20
6.6708162989
 30
0.0
 40
0.031249999999968
100
AcDbArc
 50
315.0
 51
48.0276242346
  0
ARC
  5
329
330
1F
100
AcDbEntity
  8
0
  6
Continuous
 62
     7
370
    25
100
AcDbCircle
 10
-1.4906010239
 20
6.6708162989
 30
0.0
 40
0.0312499999999636
100
AcDbArc
 50
53.4278107011
 51
126.5721892989
  0
ARC
  5
32A
330
1F
100
AcDbEntity
  8
0
  6
Continuous
 62
     7
370
    25
100
AcDbCircle
 10
-1.4906010239
 20
7.1087112601
 30
0.0
 40
0.0312499999999751
100
AcDbArc
 50
233.427810701
 51
306.572189299
  0
ARC
  5
32B
330
1F
100
AcDbEntity
  8
0
  6
Continuous
 62
     7
370
    25
100
AcDbCircle
 10
-1.4906010239
 20
7.1087112601
 30
0.0
 40
0.0312499999999736
100
AcDbArc
 50
311.9723757653
 51
45.0000000001
  0
ARC
  5
32C
330
1F
100
AcDbEntity
  8
0
  6
Continuous
 62
     7
370
    25
100
AcDbCircle
 10
-1.4906010239
 20
7.4582178737
 30
0.0
 40
0.0312499999999911
100
AcDbArc
 50
315.0000000001
 51
48.0276242345
  0
ARC
  5
32D
330
1F
100
AcDbEntity
  8
0
  6
Continuous
 62
     7
370
    25
100
AcDbCircle
 10
-1.4906010239
 20
7.4582178737
 30
0.0
 40
0.0312499999999842
100
AcDbArc
 50
53.4278107011
 51
126.5721892989
  0
ARC
  5
32E
330
1F
100
AcDbEntity
  8
0
  6
Continuous
 62
     7
370
    25
100
AcDbCircle
 10
-0.9531994491
 20
7.8961128349
 30
0.0
 40
0.0312500000000045
100
AcDbArc
 50
225.0
 51
45.0
  0
ARC
  5
32F
330
1F
100
AcDbEntity
  8
0
  6
Continuous
 62
     7
370
    25
100
AcDbCircle
 10
-0.5153044879
 20
7.8961128349
 30
0.0
 40
0.0312500000000105
100
AcDbArc
 50
135.0
 51
315.0
  0
ARC
  5
330
330
1F
100
AcDbEntity
  8
0
  6
Continuous
 62
     7
370
    25
100
AcDbCircle
 10
0.0220970869
 20
7.4561968063
 30
0.0
 40
0.0312499999999811
100
AcDbArc
 50
51.4852252992
 51
128.5147747008
  0
ARC
  5
331
330
1F
100
AcDbEntity
  8
0
  6
Continuous
 62
     7
370
    25
100
AcDbCircle
 10
0.0220970869
 20
7.4561968063
 30
0.0
 40
0.0312499999999536
100
AcDbArc
 50
133.2864196021
 51
225.0000000001
  0
ARC
  5
332
330
1F
100
AcDbEntity
  8
0
  6
Continuous
 62
     7
370
    25
100
AcDbCircle
 10
0.0220970869
 20
7.1087112601
 30
0.0
 40
0.0312500000000028
100
AcDbArc
 50
134.9999999999
 51
226.7135803979
  0
ARC
  5
333
330
1F
100
AcDbEntity
  8
0
  6
Continuous
 62
     7
370
    25
100
AcDbCircle
 10
0.0220970869
 20
7.1087112601
 30
0.0
 40
0.0312500000000062
100
AcDbArc
 50
231.485225299
 51
308.514774701
  0
ARC
  5
334
330
1F
100
AcDbEntity
  8
0
  6
Continuous
 62
     7
370
    25
100
AcDbCircle
 10
0.0220970869
 20
6.6708162989
 30
0.0
 40
0.0312499999999683
100
AcDbArc
 50
45.8709568132
 51
225.0
  0
ARC
  5
335
330
1F
100
AcDbEntity
  8
0
  6
Continuous
 62
     7
370
    25
100
AcDbCircle
 10
0.0220970869
 20
6.3213096853
 30
0.0
 40
0.0312499999999923
100
AcDbArc
 50
134.9999999999
 51
226.7135803979
  0
ARC
  5
336
330
1F
100
AcDbEntity
  8
0
  6
Continuous
 62
     7
370
    25
100
AcDbCircle
 10
0.0220970869
 20
6.3213096853
 30
0.0
 40
0.0312499999999903
100
AcDbArc
 50
231.485225299
 51
308.514774701
  0
ARC
  5
337
330
1F
100
AcDbEntity
  8
0
  6
Continuous
 62
     7
370
    25
100
AcDbCircle
 10
0.0220970869
 20
5.8834147241
 30
0.0
 40
0.0312499999999681
100
AcDbArc
 50
45.8709568131
 51
225.0
  0
ARC
  5
338
330
1F
100
AcDbEntity
  8
0
  6
Continuous
 62
     7
370
    25
100
AcDbCircle
 10
0.0220970869
 20
5.5339081105
 30
0.0
 40
0.0312499999999928
100
AcDbArc
 50
134.9999999999
 51
226.7135803979
  0
ARC
  5
339
330
1F
100
AcDbEntity
  8
0
  6
Continuous
 62
     7
370
    25
100
AcDbCircle
 10
0.0220970869
 20
5.5339081105
 30
0.0
 40
0.0312499999999931
100
AcDbArc
 50
231.485225299
 51
308.514774701
  0
ARC
  5
33A
330
1F
100
AcDbEntity
  8
0
  6
Continuous
 62
     7
370
    25
100
AcDbCircle
 10
0.0220970869
 20
5.0960131493
 30
0.0
 40
0.0312499999999802
100
AcDbArc
 50
45.8709568131
 51
225.0
  0
ARC
  5
33B
330
1F
100
AcDbEntity
  8
0
  6
Continuous
 62
     7
370
    25
100
AcDbCircle
 10
0.0220970869
 20
4.7465065357
 30
0.0
 40
0.0312499999999924
100
AcDbArc
 50
134.9999999999
 51
226.7135803979
  0
ARC
  5
33C
330
1F
100
AcDbEntity
  8
0
  6
Continuous
 62
     7
370
    25
100
AcDbCircle
 10
0.0220970869
 20
4.7465065357
 30
0.0
 40
0.0312499999999925
100
AcDbArc
 50
231.485225299
 51
308.514774701
  0
ARC
  5
33D
330
1F
100
AcDbEntity
  8
0
  6
Continuous
 62
     7
370
    25
100
AcDbCircle
 10
0.0220970869
 20
4.3086115745
 30
0.0
 40
0.0312499999999918
100
AcDbArc
 50
45.8709568131
 51
225.0
  0
ARC
  5
33E
330
1F
100
AcDbEntity
  8
0
  6
Continuous
 62
     7
370
    25
100
AcDbCircle
 10
0.0220970869
 20
3.9591049609
 30
0.0
 40
0.0312499999999926
100
AcDbArc
 50
134.9999999999
 51
226.7135803979
  0
ARC
  5
33F
330
1F
100
AcDbEntity
  8
0
  6
Continuous
 62
     7
370
    25
100
AcDbCircle
 10
0.0220970869
 20
3.9591049609
 30
0.0
 40
0.0312499999999937
100
AcDbArc
 50
231.485225299
 51
308.514774701
  0
ARC
  5
340
330
1F
100
AcDbEntity
  8
0
  6
Continuous
 62
     7
370
    25
100
AcDbCircle
 10
0.0220970869
 20
3.5212099997
 30
0.0
 40
0.0312499999999795
100
AcDbArc
 50
45.8709568131
 51
225.0
  0
ARC
  5
341
330
1F
100
AcDbEntity
  8
0
  6
Continuous
 62
     7
370
    25
100
AcDbCircle
 10
0.0220970869
 20
3.1717033861
 30
0.0
 40
0.0312499999999917
100
AcDbArc
 50
134.9999999999
 51
226.7135803979
  0
ARC
  5
342
330
1F
100
AcDbEntity
  8
0
  6
Continuous
 62
     7
370
    25
100
AcDbCircle
 10
0.0220970869
 20
3.1717033861
 30
0.0
 40
0.0312499999999927
100
AcDbArc
 50
231.485225299
 51
308.514774701
  0
ARC
  5
343
330
1F
100
AcDbEntity
  8
0
  6
Continuous
 62
     7
370
    25
100
AcDbCircle
 10
0.0220970869
 20
2.7338084249
 30
0.0
 40
0.0312499999999799
100
AcDbArc
 50
45.8709568131
 51
225.0
  0
ARC
  5
344
330
1F
100
AcDbEntity
  8
0
  6
Continuous
 62
     7
370
    25
100
AcDbCircle
 10
0.0220970869
 20
2.3843018113
 30
0.0
 40
0.0312499999999922
100
AcDbArc
 50
134.9999999999
 51
226.7135803979
  0
ARC
  5
345
330
1F
100
AcDbEntity
  8
0
  6
Continuous
 62
     7
370
    25
100
AcDbCircle
 10
0.0220970869
 20
2.3843018113
 30
0.0
 40
0.0312499999999928
100
AcDbArc
 50
231.485225299
 51
308.514774701
  0
ARC
  5
346
330
1F
100
AcDbEntity
  8
0
  6
Continuous
 62
     7
370
    25
100
AcDbCircle
 10
0.0220970869
 20
1.9464068501
 30
0.0
 40
0.0312499999999671
100
AcDbArc
 50
45.8709568132
 51
225.0
  0
ARC
  5
347
330
1F
100
AcDbEntity
  8
0
  6
Continuous
 62
     7
370
    25
100
AcDbCircle
 10
0.0220970869
 20
1.5969002365
 30
0.0
 40
0.0312499999999797
100
AcDbArc
 50
135.0
 51
226.7135803979
  0
ARC
  5
348
330
1F
100
AcDbEntity
  8
0
  6
Continuous
 62
     7
370
    25
100
AcDbCircle
 10
0.0220970869
 20
1.5969002365
 30
0.0
 40
0.0312499999999784
100
AcDbArc
 50
231.485225299
 51
308.514774701
  0
ARC
  5
349
330
1F
100
AcDbEntity
  8
0
  6
Continuous
 62
     7
370
    25
100
AcDbCircle
 10
0.0220970869
 20
1.1590052753
 30
0.0
 40
0.0312499999999919
100
AcDbArc
 50
45.8709568131
 51
225.0
  0
ARC
  5
34A
330
1F
100
AcDbEntity
  8
0
  6
Continuous
 62
     7
370
    25
100
AcDbCircle
 10
0.0220970869
 20
0.8094986617
 30
0.0
 40
0.0312499999999917
100
AcDbArc
 50
134.9999999999
 51
226.7135803979
  0
ARC
  5
34B
330
1F
100
AcDbEntity
  8
0
  6
Continuous
 62
     7
370
    25
100
AcDbCircle
 10
0.0220970869
 20
0.8094986617
 30
0.0
 40
0.0312499999999914
100
AcDbArc
 50
231.485225299
 51
308.514774701
  0
ARC
  5
34C
330
1F
100
AcDbEntity
  8
0
  6
Continuous
 62
     7
370
    25
100
AcDbCircle
 10
0.0220970869
 20
0.3716037005
 30
0.0
 40
0.0312499999999671
100
AcDbArc
 50
45.0000000001
 51
225.0
  0
ARC
  5
34D
330
1F
100
AcDbEntity
  8
0
  6
Continuous
 62
     7
370
    25
100
AcDbCircle
 10
-0.5153044879
 20
-0.0220970869
 30
0.0
 40
0.0312500000000103
100
AcDbArc
 50
45.0
 51
225.0
  0
ARC
  5
34E
330
1F
100
AcDbEntity
  8
0
  6
Continuous
 62
     7
370
    25
100
AcDbCircle
 10
-0.9531994491
 20
-0.0220970869
 30
0.0
 40
0.031249999999991
100
AcDbArc
 50
315.0000000001
 51
135.0
  0
ENDSEC
  0
SECTION
  2
OBJECTS
  0
DICTIONARY
  5
C
330
0
100
AcDbDictionary
281
     1
  3
ACAD_GROUP
350
D
  3
ACAD_LAYOUT
350
1A
  3
ACAD_MLINESTYLE
350
17
  3
ACAD_PLOTSETTINGS
350
19
  3
ACAD_PLOTSTYLENAME
350
E
  3
ACAD_SCALELIST
350
47
  0
DICTIONARY
  5
D
102
{ACAD_REACTORS
330
C
102
}
330
C
100
AcDbDictionary
281
     1
  0
DICTIONARY
  5
1A
102
{ACAD_REACTORS
330
C
102
}
330
C
100
AcDbDictionary
281
     1
  3
Layout1
350
1E
  3
Layout2
350
26
  3
Model
350
22
  0
DICTIONARY
  5
17
102
{ACAD_REACTORS
330
C
102
}
330
C
100
AcDbDictionary
281
     1
  3
Standard
350
18
  0
DICTIONARY
  5
19
102
{ACAD_REACTORS
330
C
102
}
330
C
100
AcDbDictionary
281
     1
  0
ACDBDICTIONARYWDFLT
  5
E
102
{ACAD_REACTORS
330
C
102
}
330
C
100
AcDbDictionary
281
     1
  3
Normal
350
F
100
AcDbDictionaryWithDefault
340
F
  0
DICTIONARY
  5
47
102
{ACAD_REACTORS
330
C
102
}
330
C
100
AcDbDictionary
281
     1
  3
A0
350
48
  3
A1
350
49
  3
A2
350
4A
  3
A3
350
4B
  3
A4
350
4C
  3
A5
350
4D
  3
A6
350
4E
  3
A7
350
4F
  3
A8
350
50
  3
A9
350
51
  3
B0
350
52
  3
B1
350
53
  3
B2
350
54
  3
B3
350
55
  3
B4
350
56
  3
B5
350
57
  3
B6
350
58
  3
B7
350
59
  3
B8
350
5A
  3
B9
350
5B
  3
C0
350
5C
  3
C1
350
5D
  3
C2
350
5E
  3
C3
350
5F
  3
C4
350
60
  3
C5
350
61
  3
C6
350
62
  3
C7
350
63
  3
C8
350
64
  3
C9
350
65
  3
D0
350
66
  3
D1
350
67
  3
D2
350
68
  0
LAYOUT
  5
1E
102
{ACAD_REACTORS
330
1A
102
}
330
1A
100
AcDbPlotSettings
  1

  2
none_device
  4

  6

 40
0.0
 41
0.0
 42
0.0
 43
0.0
 44
0.0
 45
0.0
 46
0.0
 47
0.0
 48
0.0
 49
0.0
140
0.0
141
0.0
142
1.0
143
1.0
 70
   688
 72
     0
 73
     0
 74
     5
  7

 75
    16
147
1.0
148
0.0
149
0.0
100
AcDbLayout
  1
Layout1
 70
     1
 71
     1
 10
0.0
 20
0.0
 11
12.0
 21
9.0
 12
0.0
 22
0.0
 32
0.0
 14
1.0000000000E+20
 24
1.0000000000E+20
 34
1.0000000000E+20
 15
-1.0000000000E+20
 25
-1.0000000000E+20
 35
-1.0000000000E+20
146
0.0
 13
0.0
 23
0.0
 33
0.0
 16
1.0
 26
0.0
 36
0.0
 17
0.0
 27
1.0
 37
0.0
 76
     0
330
1B
  0
LAYOUT
  5
26
102
{ACAD_REACTORS
330
1A
102
}
330
1A
100
AcDbPlotSettings
  1

  2
none_device
  4

  6

 40
0.0
 41
0.0
 42
0.0
 43
0.0
 44
0.0
 45
0.0
 46
0.0
 47
0.0
 48
0.0
 49
0.0
140
0.0
141
0.0
142
1.0
143
1.0
 70
   688
 72
     0
 73
     0
 74
     5
  7

 75
    16
147
1.0
148
0.0
149
0.0
100
AcDbLayout
  1
Layout2
 70
     1
 71
     2
 10
0.0
 20
0.0
 11
0.0
 21
0.0
 12
0.0
 22
0.0
 32
0.0
 14
0.0
 24
0.0
 34
0.0
 15
0.0
 25
0.0
 35
0.0
146
0.0
 13
0.0
 23
0.0
 33
0.0
 16
1.0
 26
0.0
 36
0.0
 17
0.0
 27
1.0
 37
0.0
 76
     0
330
23
  0
LAYOUT
  5
22
102
{ACAD_REACTORS
330
1A
102
}
330
1A
100
AcDbPlotSettings
  1

  2
none_device
  4
ANSI_A_(11.00_x_8.50_Inches)
  6

 40
6.35
 41
19.05
 42
6.35000508
 43
19.05000254
 44
279.4
 45
215.9
 46
152.0912746109
 47
-11.5894229907
 48
0.0
 49
0.0
140
0.0
141
0.0
142
1.0048942172
143
1.0
 70
  1696
 72
     0
 73
     0
 74
     0
  7

 75
     0
147
0.5913241897
148
-39.4088153714
149
0.0
100
AcDbLayout
  1
Model
 70
     1
 71
     0
 10
0.0
 20
0.0
 11
12.0
 21
9.0
 12
0.0
 22
0.0
 32
0.0
 14
-1.718503937
 24
-0.25
 34
0.0
 15
0.25
 25
8.124015748
 35
0.0
146
0.0
 13
0.0
 23
0.0
 33
0.0
 16
1.0
 26
0.0
 36
0.0
 17
0.0
 27
1.0
 37
0.0
 76
     0
330
1F
331
29
  0
MLINESTYLE
  5
18
102
{ACAD_REACTORS
330
17
102
}
330
17
100
AcDbMlineStyle
  2
Standard
 70
     0
  3

 62
   256
 51
90.0
 52
90.0
 71
     2
 49
0.5
 62
   256
  6
BYLAYER
 49
-0.5
 62
   256
  6
BYLAYER
  0
ACDBPLACEHOLDER
  5
F
102
{ACAD_REACTORS
330
E
102
}
330
E
  0
SCALE
  5
48
102
{ACAD_REACTORS
330
47
102
}
330
47
100
AcDbScale
 70
     0
300
1:1
140
1.0
141
1.0
290
     1
  0
SCALE
  5
49
102
{ACAD_REACTORS
330
47
102
}
330
47
100
AcDbScale
 70
     0
300
1:2
140
1.0
141
2.0
290
     0
  0
SCALE
  5
4A
102
{ACAD_REACTORS
330
47
102
}
330
47
100
AcDbScale
 70
     0
300
1:4
140
1.0
141
4.0
290
     0
  0
SCALE
  5
4B
102
{ACAD_REACTORS
330
47
102
}
330
47
100
AcDbScale
 70
     0
300
1:5
140
1.0
141
5.0
290
     0
  0
SCALE
  5
4C
102
{ACAD_REACTORS
330
47
102
}
330
47
100
AcDbScale
 70
     0
300
1:8
140
1.0
141
8.0
290
     0
  0
SCALE
  5
4D
102
{ACAD_REACTORS
330
47
102
}
330
47
100
AcDbScale
 70
     0
300
1:10
140
1.0
141
10.0
290
     0
  0
SCALE
  5
4E
102
{ACAD_REACTORS
330
47
102
}
330
47
100
AcDbScale
 70
     0
300
1:16
140
1.0
141
16.0
290
     0
  0
SCALE
  5
4F
102
{ACAD_REACTORS
330
47
102
}
330
47
100
AcDbScale
 70
     0
300
1:20
140
1.0
141
20.0
290
     0
  0
SCALE
  5
50
102
{ACAD_REACTORS
330
47
102
}
330
47
100
AcDbScale
 70
     0
300
1:30
140
1.0
141
30.0
290
     0
  0
SCALE
  5
51
102
{ACAD_REACTORS
330
47
102
}
330
47
100
AcDbScale
 70
     0
300
1:40
140
1.0
141
40.0
290
     0
  0
SCALE
  5
52
102
{ACAD_REACTORS
330
47
102
}
330
47
100
AcDbScale
 70
     0
300
1:50
140
1.0
141
50.0
290
     0
  0
SCALE
  5
53
102
{ACAD_REACTORS
330
47
102
}
330
47
100
AcDbScale
 70
     0
300
1:100
140
1.0
141
100.0
290
     0
  0
SCALE
  5
54
102
{ACAD_REACTORS
330
47
102
}
330
47
100
AcDbScale
 70
     0
300
2:1
140
2.0
141
1.0
290
     0
  0
SCALE
  5
55
102
{ACAD_REACTORS
330
47
102
}
330
47
100
AcDbScale
 70
     0
300
4:1
140
4.0
141
1.0
290
     0
  0
SCALE
  5
56
102
{ACAD_REACTORS
330
47
102
}
330
47
100
AcDbScale
 70
     0
300
8:1
140
8.0
141
1.0
290
     0
  0
SCALE
  5
57
102
{ACAD_REACTORS
330
47
102
}
330
47
100
AcDbScale
 70
     0
300
10:1
140
10.0
141
1.0
290
     0
  0
SCALE
  5
58
102
{ACAD_REACTORS
330
47
102
}
330
47
100
AcDbScale
 70
     0
300
100:1
140
100.0
141
1.0
290
     0
  0
SCALE
  5
59
102
{ACAD_REACTORS
330
47
102
}
330
47
100
AcDbScale
 70
     0
300
1/128" = 1'-0"
140
0.0078125
141
12.0
290
     0
  0
SCALE
  5
5A
102
{ACAD_REACTORS
330
47
102
}
330
47
100
AcDbScale
 70
     0
300
1/64" = 1'-0"
140
0.015625
141
12.0
290
     0
  0
SCALE
  5
5B
102
{ACAD_REACTORS
330
47
102
}
330
47
100
AcDbScale
 70
     0
300
1/32" = 1'-0"
140
0.03125
141
12.0
290
     0
  0
SCALE
  5
5C
102
{ACAD_REACTORS
330
47
102
}
330
47
100
AcDbScale
 70
     0
300
1/16" = 1'-0"
140
0.0625
141
12.0
290
     0
  0
SCALE
  5
5D
102
{ACAD_REACTORS
330
47
102
}
330
47
100
AcDbScale
 70
     0
300
3/32" = 1'-0"
140
0.09375
141
12.0
290
     0
  0
SCALE
  5
5E
102
{ACAD_REACTORS
330
47
102
}
330
47
100
AcDbScale
 70
     0
300
1/8" = 1'-0"
140
0.125
141
12.0
290
     0
  0
SCALE
  5
5F
102
{ACAD_REACTORS
330
47
102
}
330
47
100
AcDbScale
 70
     0
300
3/16" = 1'-0"
140
0.1875
141
12.0
290
     0
  0
SCALE
  5
60
102
{ACAD_REACTORS
330
47
102
}
330
47
100
AcDbScale
 70
     0
300
1/4" = 1'-0"
140
0.25
141
12.0
290
     0
  0
SCALE
  5
61
102
{ACAD_REACTORS
330
47
102
}
330
47
100
AcDbScale
 70
     0
300
3/8" = 1'-0"
140
0.375
141
12.0
290
     0
  0
SCALE
  5
62
102
{ACAD_REACTORS
330
47
102
}
330
47
100
AcDbScale
 70
     0
300
1/2" = 1'-0"
140
0.5
141
12.0
290
     0
  0
SCALE
  5
63
102
{ACAD_REACTORS
330
47
102
}
330
47
100
AcDbScale
 70
     0
300
3/4" = 1'-0"
140
0.75
141
12.0
290
     0
  0
SCALE
  5
64
102
{ACAD_REACTORS
330
47
102
}
330
47
100
AcDbScale
 70
     0
300
1" = 1'-0"
140
1.0
141
12.0
290
     0
  0
SCALE
  5
65
102
{ACAD_REACTORS
330
47
102
}
330
47
100
AcDbScale
 70
     0
300
1-1/2" = 1'-0"
140
1.5
141
12.0
290
     0
  0
SCALE
  5
66
102
{ACAD_REACTORS
330
47
102
}
330
47
100
AcDbScale
 70
     0
300
3" = 1'-0"
140
3.0
141
12.0
290
     0
  0
SCALE
  5
67
102
{ACAD_REACTORS
330
47
102
}
330
47
100
AcDbScale
 70
     0
300
6" = 1'-0"
140
6.0
141
12.0
290
     0
  0
SCALE
  5
68
102
{ACAD_REACTORS
330
47
102
}
330
47
100
AcDbScale
 70
     0
300
1'-0" = 1'-0"
140
12.0
141
12.0
290
     0
  0
ENDSEC
  0
EOF
