  0
SECTION
  2
HEADER
  9
$ACADVER
  1
AC1015
  9
$ACADMAINTVER
 70
     6
  9
$DWGCODEPAGE
  3
ANSI_1252
  9
$INSBASE
 10
0.0
 20
0.0
 30
0.0
  9
$EXTMIN
 10
0.0
 20
0.0
 30
0.0
  9
$EXTMAX
 10
199.873
 20
199.873
 30
0.0
  9
$LIMMIN
 10
0.0
 20
0.0
  9
$LIMMAX
 10
420.0
 20
297.0
  9
$ORTHOMODE
 70
     0
  9
$REGENMODE
 70
     1
  9
$FILLMODE
 70
     1
  9
$QTEXTMODE
 70
     0
  9
$MIRRTEXT
 70
     1
  9
$LTSCALE
 40
1.0
  9
$ATTMODE
 70
     1
  9
$TEXTSIZE
 40
3.5
  9
$TRACEWID
 40
1.0
  9
$TEXTSTYLE
  7
Standard
  9
$CLAYER
  8
0
  9
$CELTYPE
  6
ByLayer
  9
$CECOLOR
 62
   256
  9
$CELTSCALE
 40
1.0
  9
$DISPSILH
 70
     0
  9
$DIMSCALE
 40
1.0
  9
$DIMASZ
 40
3.556
  9
$DIMEXO
 40
1.0
  9
$DIMDLI
 40
3.75
  9
$DIMRND
 40
0.0
  9
$DIMDLE
 40
0.0
  9
$DIMEXE
 40
1.0
  9
$DIMTP
 40
0.0
  9
$DIMTM
 40
0.0
  9
$DIMTXT
 40
3.5
  9
$DIMCEN
 40
2.5
  9
$DIMTSZ
 40
0.0
  9
$DIMTOL
 70
     0
  9
$DIMLIM
 70
     0
  9
$DIMTIH
 70
     1
  9
$DIMTOH
 70
     1
  9
$DIMSE1
 70
     0
  9
$DIMSE2
 70
     0
  9
$DIMTAD
 70
     1
  9
$DIMZIN
 70
     1
  9
$DIMBLK
  1

  9
$DIMASO
 70
     1
  9
$DIMSHO
 70
     1
  9
$DIMPOST
  1

  9
$DIMAPOST
  1

  9
$DIMALT
 70
     0
  9
$DIMALTD
 70
     3
  9
$DIMALTF
 40
0.0393700787
  9
$DIMLFAC
 40
1.0
  9
$DIMTOFL
 70
     1
  9
$DIMTVP
 40
0.0
  9
$DIMTIX
 70
     0
  9
$DIMSOXD
 70
     0
  9
$DIMSAH
 70
     0
  9
$DIMBLK1
  1

  9
$DIMBLK2
  1

  9
$DIMSTYLE
  2
ISO-25
  9
$DIMCLRD
 70
     0
  9
$DIMCLRE
 70
     0
  9
$DIMCLRT
 70
     0
  9
$DIMTFAC
 40
1.0
  9
$DIMGAP
 40
1.524
  9
$DIMJUST
 70
     0
  9
$DIMSD1
 70
     0
  9
$DIMSD2
 70
     0
  9
$DIMTOLJ
 70
     0
  9
$DIMTZIN
 70
     1
  9
$DIMALTZ
 70
     0
  9
$DIMALTTZ
 70
     0
  9
$DIMUPT
 70
     0
  9
$DIMDEC
 70
     2
  9
$DIMTDEC
 70
     2
  9
$DIMALTU
 70
     2
  9
$DIMALTTD
 70
     3
  9
$DIMTXSTY
  7
Standard
  9
$DIMAUNIT
 70
     0
  9
$DIMADEC
 70
     2
  9
$DIMALTRND
 40
0.0
  9
$DIMAZIN
 70
     0
  9
$DIMDSEP
 70
    44
  9
$DIMATFIT
 70
     3
  9
$DIMFRAC
 70
     0
  9
$DIMLDRBLK
  1

  9
$DIMLUNIT
 70
     2
  9
$DIMLWD
 70
    -2
  9
$DIMLWE
 70
    -2
  9
$DIMTMOVE
 70
     0
  9
$LUNITS
 70
     2
  9
$LUPREC
 70
     2
  9
$SKETCHINC
 40
1.0
  9
$FILLETRAD
 40
10.0
  9
$AUNITS
 70
     0
  9
$AUPREC
 70
     2
  9
$MENU
  1
.
  9
$ELEVATION
 40
0.0
  9
$PELEVATION
 40
0.0
  9
$THICKNESS
 40
0.0
  9
$LIMCHECK
 70
     0
  9
$CHAMFERA
 40
0.0
  9
$CHAMFERB
 40
0.0
  9
$CHAMFERC
 40
0.0
  9
$CHAMFERD
 40
0.0
  9
$SKPOLY
 70
     0
  9
$TDCREATE
 40
2458304.830919514
  9
$TDUCREATE
 40
2458304.99758618
  9
$TDUPDATE
 40
2458304.830933449
  9
$TDUUPDATE
 40
2458304.997600116
  9
$TDINDWG
 40
0.0000000116
  9
$TDUSRTIMER
 40
0.0000000116
  9
$USRTIMER
 70
     1
  9
$ANGBASE
 50
0.0
  9
$ANGDIR
 70
     0
  9
$PDMODE
 70
     0
  9
$PDSIZE
 40
-1.0
  9
$PLINEWID
 40
0.0
  9
$SPLFRAME
 70
     0
  9
$SPLINETYPE
 70
     6
  9
$SPLINESEGS
 70
     8
  9
$HANDSEED
  5
E6
  9
$SURFTAB1
 70
     6
  9
$SURFTAB2
 70
     6
  9
$SURFTYPE
 70
     6
  9
$SURFU
 70
     6
  9
$SURFV
 70
     6
  9
$UCSBASE
  2

  9
$UCSNAME
  2

  9
$UCSORG
 10
0.0
 20
0.0
 30
0.0
  9
$UCSXDIR
 10
1.0
 20
0.0
 30
0.0
  9
$UCSYDIR
 10
0.0
 20
1.0
 30
0.0
  9
$UCSORTHOREF
  2

  9
$UCSORTHOVIEW
 70
     0
  9
$UCSORGTOP
 10
0.0
 20
0.0
 30
0.0
  9
$UCSORGBOTTOM
 10
0.0
 20
0.0
 30
0.0
  9
$UCSORGLEFT
 10
0.0
 20
0.0
 30
0.0
  9
$UCSORGRIGHT
 10
0.0
 20
0.0
 30
0.0
  9
$UCSORGFRONT
 10
0.0
 20
0.0
 30
0.0
  9
$UCSORGBACK
 10
0.0
 20
0.0
 30
0.0
  9
$PUCSBASE
  2

  9
$PUCSNAME
  2

  9
$PUCSORG
 10
0.0
 20
0.0
 30
0.0
  9
$PUCSXDIR
 10
1.0
 20
0.0
 30
0.0
  9
$PUCSYDIR
 10
0.0
 20
1.0
 30
0.0
  9
$PUCSORTHOREF
  2

  9
$PUCSORTHOVIEW
 70
     0
  9
$PUCSORGTOP
 10
0.0
 20
0.0
 30
0.0
  9
$PUCSORGBOTTOM
 10
0.0
 20
0.0
 30
0.0
  9
$PUCSORGLEFT
 10
0.0
 20
0.0
 30
0.0
  9
$PUCSORGRIGHT
 10
0.0
 20
0.0
 30
0.0
  9
$PUCSORGFRONT
 10
0.0
 20
0.0
 30
0.0
  9
$PUCSORGBACK
 10
0.0
 20
0.0
 30
0.0
  9
$USERI1
 70
     0
  9
$USERI2
 70
     0
  9
$USERI3
 70
     0
  9
$USERI4
 70
     0
  9
$USERI5
 70
     0
  9
$USERR1
 40
0.0
  9
$USERR2
 40
0.0
  9
$USERR3
 40
0.0
  9
$USERR4
 40
0.0
  9
$USERR5
 40
0.0
  9
$WORLDVIEW
 70
     1
  9
$SHADEDGE
 70
     3
  9
$SHADEDIF
 70
    70
  9
$TILEMODE
 70
     1
  9
$MAXACTVP
 70
    64
  9
$PINSBASE
 10
0.0
 20
0.0
 30
0.0
  9
$PLIMCHECK
 70
     0
  9
$PEXTMIN
 10
1.0000000000E+20
 20
1.0000000000E+20
 30
1.0000000000E+20
  9
$PEXTMAX
 10
-1.0000000000E+20
 20
-1.0000000000E+20
 30
-1.0000000000E+20
  9
$PLIMMIN
 10
0.0
 20
0.0
  9
$PLIMMAX
 10
420.0
 20
297.0
  9
$UNITMODE
 70
     0
  9
$VISRETAIN
 70
     1
  9
$PLINEGEN
 70
     0
  9
$PSLTSCALE
 70
     1
  9
$TREEDEPTH
 70
  3020
  9
$CMLSTYLE
  2
Standard
  9
$CMLJUST
 70
     0
  9
$CMLSCALE
 40
20.0
  9
$PROXYGRAPHICS
 70
     1
  9
$MEASUREMENT
 70
     1
  9
$CELWEIGHT
370
    -1
  9
$ENDCAPS
280
     0
  9
$JOINSTYLE
280
     0
  9
$LWDISPLAY
290
     1
  9
$INSUNITS
 70
     4
  9
$HYPERLINKBASE
  1

  9
$STYLESHEET
  1

  9
$XEDIT
290
     1
  9
$CEPSNTYPE
380
     0
  9
$PSTYLEMODE
290
     1
  9
$FINGERPRINTGUID
  2
{A5C0A092-5B13-483E-82C5-77D5A31D8DC0}
  9
$VERSIONGUID
  2
{FAEB1C32-E019-11D5-929B-00C0DF256EC4}
  9
$EXTNAMES
290
     1
  9
$PSVPSCALE
 40
0.0
  9
$OLESTARTUP
290
     0
  0
ENDSEC
  0
SECTION
  2
CLASSES
  0
CLASS
  1
ACDBDICTIONARYWDFLT
  2
AcDbDictionaryWithDefault
  3
ObjectDBX Classes
 90
        0
280
     0
281
     0
  0
CLASS
  1
VISUALSTYLE
  2
AcDbVisualStyle
  3
ObjectDBX Classes
 90
     4095
280
     0
281
     0
  0
CLASS
  1
MATERIAL
  2
AcDbMaterial
  3
ObjectDBX Classes
 90
     1153
280
     0
281
     0
  0
CLASS
  1
SCALE
  2
AcDbScale
  3
ObjectDBX Classes
 90
     1153
280
     0
281
     0
  0
CLASS
  1
TABLESTYLE
  2
AcDbTableStyle
  3
ObjectDBX Classes
 90
     4095
280
     0
281
     0
  0
CLASS
  1
MLEADERSTYLE
  2
AcDbMLeaderStyle
  3
ACDB_MLEADERSTYLE_CLASS
 90
     4095
280
     0
281
     0
  0
CLASS
  1
SUN
  2
AcDbSun
  3
SCENEOE
 90
     1153
280
     0
281
     0
  0
CLASS
  1
ACDBPLACEHOLDER
  2
AcDbPlaceHolder
  3
ObjectDBX Classes
 90
        0
280
     0
281
     0
  0
CLASS
  1
LAYOUT
  2
AcDbLayout
  3
ObjectDBX Classes
 90
        0
280
     0
281
     0
  0
ENDSEC
  0
SECTION
  2
TABLES
  0
TABLE
  2
VPORT
  5
8
330
0
100
AcDbSymbolTable
 70
     1
  0
VPORT
  5
29
330
8
100
AcDbSymbolTableRecord
100
AcDbViewportTableRecord
  2
*Active
 70
     0
 10
0.0
 20
0.0
 11
1.0
 21
1.0
 12
99.9365
 22
99.9365
 13
0.0
 23
0.0
 14
10.0
 24
10.0
 15
10.0
 25
10.0
 16
0.0
 26
0.0
 36
1.0
 17
0.0
 27
0.0
 37
0.0
 40
203.87046
 41
1.0
 42
50.0
 43
0.0
 44
0.0
 50
0.0
 51
0.0
 71
     0
 72
   100
 73
     1
 74
     3
 75
     0
 76
     0
 77
     0
 78
     0
281
     0
 65
     1
110
0.0
120
0.0
130
0.0
111
1.0
121
0.0
131
0.0
112
0.0
122
1.0
132
0.0
 79
     0
146
0.0
  0
ENDTAB
  0
TABLE
  2
LTYPE
  5
5
330
0
100
AcDbSymbolTable
 70
     6
  0
LTYPE
  5
14
330
5
100
AcDbSymbolTableRecord
100
AcDbLinetypeTableRecord
  2
ByBlock
 70
     0
  3

 72
    65
 73
     0
 40
0.0
  0
LTYPE
  5
15
330
5
100
AcDbSymbolTableRecord
100
AcDbLinetypeTableRecord
  2
ByLayer
 70
     0
  3

 72
    65
 73
     0
 40
0.0
  0
LTYPE
  5
16
330
5
100
AcDbSymbolTableRecord
100
AcDbLinetypeTableRecord
  2
Continuous
 70
     0
  3
Solid line
 72
    65
 73
     0
 40
0.0
  0
LTYPE
  5
6E
330
5
100
AcDbSymbolTableRecord
100
AcDbLinetypeTableRecord
  2
HIDDEN
 70
     0
  3
Hidden __ __ __ __ __ __ __ __ __ __ __ __ __ __
 72
    65
 73
     2
 40
1.905
 49
1.27
 74
     0
 49
-0.635
 74
     0
  0
LTYPE
  5
6F
330
5
100
AcDbSymbolTableRecord
100
AcDbLinetypeTableRecord
  2
PHANTOM
 70
     0
  3
Phantom ______  __  __  ______  __  __  ______
 72
    65
 73
     6
 40
12.7
 49
6.35
 74
     0
 49
-1.27
 74
     0
 49
1.27
 74
     0
 49
-1.27
 74
     0
 49
1.27
 74
     0
 49
-1.27
 74
     0
  0
LTYPE
  5
70
330
5
100
AcDbSymbolTableRecord
100
AcDbLinetypeTableRecord
  2
CENTER
 70
     0
  3
Center ____ _ ____ _ ____ _ ____ _ ____ _ ____
 72
    65
 73
     4
 40
10.16
 49
6.35
 74
     0
 49
-1.27
 74
     0
 49
1.27
 74
     0
 49
-1.27
 74
     0
  0
LTYPE
  5
71
330
5
100
AcDbSymbolTableRecord
100
AcDbLinetypeTableRecord
  2
CENTERX2
 70
     0
  3
Center (2x) ________  __  ________  __  _____
 72
    65
 73
     4
 40
20.32
 49
12.7
 74
     0
 49
-2.54
 74
     0
 49
2.54
 74
     0
 49
-2.54
 74
     0
  0
LTYPE
  5
72
330
5
100
AcDbSymbolTableRecord
100
AcDbLinetypeTableRecord
  2
DOT2
 70
     0
  3
Dot (.5x) ........................................
 72
    65
 73
     2
 40
0.635
 49
0.0
 74
     0
 49
-0.635
 74
     0
  0
ENDTAB
  0
TABLE
  2
LAYER
  5
2
330
0
100
AcDbSymbolTable
 70
     1
  0
LAYER
  5
10
330
2
100
AcDbSymbolTableRecord
100
AcDbLayerTableRecord
  2
0
 70
     0
 62
     7
  6
Continuous
370
    -3
390
F
  0
ENDTAB
  0
TABLE
  2
STYLE
  5
3
330
0
100
AcDbSymbolTable
 70
     1
  0
STYLE
  5
11
330
3
100
AcDbSymbolTableRecord
100
AcDbTextStyleTableRecord
  2
Standard
 70
     0
 40
0.0
 41
1.0
 50
0.0
 71
     0
 42
3.5
  3
txt
  4

  0
ENDTAB
  0
TABLE
  2
VIEW
  5
6
330
0
100
AcDbSymbolTable
 70
     0
  0
ENDTAB
  0
TABLE
  2
UCS
  5
7
330
0
100
AcDbSymbolTable
 70
     0
  0
ENDTAB
  0
TABLE
  2
APPID
  5
9
330
0
100
AcDbSymbolTable
 70
     1
  0
APPID
  5
12
330
9
100
AcDbSymbolTableRecord
100
AcDbRegAppTableRecord
  2
ACAD
 70
     0
  0
ENDTAB
  0
TABLE
  2
DIMSTYLE
  5
A
330
0
100
AcDbSymbolTable
 70
     1
100
AcDbDimStyleTable
  0
DIMSTYLE
105
27
330
A
100
AcDbSymbolTableRecord
100
AcDbDimStyleTableRecord
  2
ISO-25
 70
     0
 41
2.5
 42
0.625
 43
3.75
 44
1.25
 73
     0
 74
     0
 77
     1
 78
     8
140
2.5
141
2.5
143
0.0393700787
147
0.625
171
     3
172
     1
178
     0
271
     2
272
     2
274
     3
278
    44
283
     0
284
     8
340
11
  0
ENDTAB
  0
TABLE
  2
BLOCK_RECORD
  5
1
330
0
100
AcDbSymbolTable
 70
     1
  0
BLOCK_RECORD
  5
1F
330
1
100
AcDbSymbolTableRecord
100
AcDbBlockTableRecord
  2
*Model_Space
340
22
  0
BLOCK_RECORD
  5
1B
330
1
100
AcDbSymbolTableRecord
100
AcDbBlockTableRecord
  2
*Paper_Space
340
1E
  0
BLOCK_RECORD
  5
23
330
1
100
AcDbSymbolTableRecord
100
AcDbBlockTableRecord
  2
*Paper_Space0
340
26
  0
ENDTAB
  0
ENDSEC
  0
SECTION
  2
BLOCKS
  0
BLOCK
  5
20
330
1F
100
AcDbEntity
  8
0
100
AcDbBlockBegin
  2
*Model_Space
 70
     0
 10
0.0
 20
0.0
 30
0.0
  3
*Model_Space
  1

  0
ENDBLK
  5
21
330
1F
100
AcDbEntity
  8
0
100
AcDbBlockEnd
  0
BLOCK
  5
1C
330
1B
100
AcDbEntity
 67
     1
  8
0
100
AcDbBlockBegin
  2
*Paper_Space
 70
     0
 10
0.0
 20
0.0
 30
0.0
  3
*Paper_Space
  1

  0
ENDBLK
  5
1D
330
1B
100
AcDbEntity
 67
     1
  8
0
100
AcDbBlockEnd
  0
BLOCK
  5
24
330
23
100
AcDbEntity
  8
0
100
AcDbBlockBegin
  2
*Paper_Space0
 70
     0
 10
0.0
 20
0.0
 30
0.0
  3
*Paper_Space0
  1

  0
ENDBLK
  5
25
330
23
100
AcDbEntity
  8
0
100
AcDbBlockEnd
  0
ENDSEC
  0
SECTION
  2
ENTITIES
  0
SPLINE
  5
73
330
1F
100
AcDbEntity
  8
0
  6
Continuous
 62
     7
370
    25
100
AcDbSpline
210
0.0
220
0.0
230
1.0
 70
     8
 71
     3
 72
    23
 73
    19
 74
     0
 42
0.000000001
 43
0.00000001
 40
0.0
 40
0.0
 40
0.0
 40
0.0
 40
0.0669434636680603
 40
0.1328765835338006
 40
0.1975396046007469
 40
0.2616996647946102
 40
0.3244492619823034
 40
0.3849716755008609
 40
0.4439044842103188
 40
0.5020224736059717
 40
0.5594089760195547
 40
0.6167307089437853
 40
0.6742615498852903
 40
0.7333583132703257
 40
0.7942180840124776
 40
0.8585663761369146
 40
0.9267666055968956
 40
0.9999999999999999
 40
0.9999999999999999
 40
0.9999999999999999
 40
0.9999999999999999
 10
6.917377717391305
 20
6.04
 30
0.0
 10
6.959941393887868
 20
6.039549216394415
 30
0.0
 10
7.044426354862477
 20
6.038654452631967
 30
0.0
 10
7.169516283602637
 20
6.02667632140509
 30
0.0
 10
7.292187032414683
 20
6.009802457998787
 30
0.0
 10
7.411439951791752
 20
5.984576676025973
 30
0.0
 10
7.525948329899234
 20
5.951481772560641
 30
0.0
 10
7.634735934707952
 20
5.911085501785531
 30
0.0
 10
7.734797955251908
 20
5.858396307186147
 30
0.0
 10
7.828759079644295
 20
5.799354905359714
 30
0.0
 10
7.915294548344647
 20
5.731198940978164
 30
0.0
 10
7.991423015288374
 20
5.652104843949905
 30
0.0
 10
8.058564760366906
 20
5.563992965994228
 30
0.0
 10
8.116715340291043
 20
5.467070450892172
 30
0.0
 10
8.164593236196799
 20
5.359695253839586
 30
0.0
 10
8.196770828341442
 20
5.240725181125915
 30
0.0
 10
8.218372446289774
 20
5.111360667360676
 30
0.0
 10
8.220208647470692
 20
5.021376048702461
 30
0.0
 10
8.221159420289855
 20
4.974782608695652
 30
0.0
  0
SPLINE
  5
74
330
1F
100
AcDbEntity
  8
0
  6
Continuous
 62
     7
370
    25
100
AcDbSpline
210
0.0
220
0.0
230
1.0
 70
     8
 71
     3
 72
    23
 73
    19
 74
     0
 42
0.000000001
 43
0.00000001
 40
0.0
 40
0.0
 40
0.0
 40
0.0
 40
0.0530233331331384
 40
0.1065234186489517
 40
0.1605076250744138
 40
0.215386091204179
 40
0.2706150950692764
 40
0.3262163194498613
 40
0.3821928724616129
 40
0.4395768287592065
 40
0.4983717072949012
 40
0.5590293981464467
 40
0.6227696796968221
 40
0.689639748041376
 40
0.7600176609418141
 40
0.8345367752784698
 40
0.91455656086944
 40
1.0
 40
1.0
 40
1.0
 40
1.0
 10
8.221159420289855
 20
4.974782608695652
 30
0.0
 10
8.220302893675528
 20
4.939326782195995
 30
0.0
 10
8.21858213909956
 20
4.868096332758119
 30
0.0
 10
8.202696181679661
 20
4.761757409450123
 30
0.0
 10
8.17809686278017
 20
4.655988320856554
 30
0.0
 10
8.144304843452954
 20
4.551484574422109
 30
0.0
 10
8.099987867400275
 20
4.449790020363226
 30
0.0
 10
8.044608655992866
 20
4.352717352968819
 30
0.0
 10
7.976911397508767
 20
4.262090100276887
 30
0.0
 10
7.900331233472535
 20
4.175978831734939
 30
0.0
 10
7.811787002602377
 20
4.097275925691913
 30
0.0
 10
7.711702303779716
 20
4.026363923410364
 30
0.0
 10
7.600360609848822
 20
3.963232208937021
 30
0.0
 10
7.478096000265766
 20
3.907053241248761
 30
0.0
 10
7.343305740061689
 20
3.862967387094432
 30
0.0
 10
7.196363772520716
 20
3.830252459512774
 30
0.0
 10
7.036747940849139
 20
3.811546405828355
 30
0.0
 10
6.926144981886135
 20
3.809284147848357
 30
0.0
 10
6.869030797101449
 20
3.808115942028986
 30
0.0
  0
LINE
  5
75
330
1F
100
AcDbEntity
  8
0
  6
Continuous
 62
     7
370
    25
100
AcDbLine
 10
6.8690307971
 20
3.808115942
 30
0.0
 11
6.4457971014
 21
3.808115942
 31
0.0
  0
LINE
  5
76
330
1F
100
AcDbEntity
  8
0
  6
Continuous
 62
     7
370
    25
100
AcDbLine
 10
6.4457971014
 20
3.808115942
 30
0.0
 11
6.4457971014
 21
2.54
 31
0.0
  0
LINE
  5
77
330
1F
100
AcDbEntity
  8
0
  6
Continuous
 62
     7
370
    25
100
AcDbLine
 10
6.4457971014
 20
2.54
 30
0.0
 11
5.9385507246
 21
2.54
 31
0.0
  0
LINE
  5
78
330
1F
100
AcDbEntity
  8
0
  6
Continuous
 62
     7
370
    25
100
AcDbLine
 10
5.9385507246
 20
2.54
 30
0.0
 11
5.9385507246
 21
6.04
 31
0.0
  0
LINE
  5
79
330
1F
100
AcDbEntity
  8
0
  6
Continuous
 62
     7
370
    25
100
AcDbLine
 10
5.9385507246
 20
6.04
 30
0.0
 11
6.9173777174
 21
6.04
 31
0.0
  0
LINE
  5
7A
330
1F
100
AcDbEntity
  8
0
  6
Continuous
 62
     7
370
    25
100
AcDbLine
 10
13.3594067029
 20
6.04
 30
0.0
 11
14.4856521739
 21
2.54
 31
0.0
  0
LINE
  5
7B
330
1F
100
AcDbEntity
  8
0
  6
Continuous
 62
     7
370
    25
100
AcDbLine
 10
14.4856521739
 20
2.54
 30
0.0
 11
13.9665172101
 21
2.54
 31
0.0
  0
LINE
  5
7C
330
1F
100
AcDbEntity
  8
0
  6
Continuous
 62
     7
370
    25
100
AcDbLine
 10
13.9665172101
 20
2.54
 30
0.0
 11
13.7319157609
 21
3.3008695652
 31
0.0
  0
LINE
  5
7D
330
1F
100
AcDbEntity
  8
0
  6
Continuous
 62
     7
370
    25
100
AcDbLine
 10
13.7319157609
 20
3.3008695652
 30
0.0
 11
12.2783378623
 21
3.3008695652
 31
0.0
  0
LINE
  5
7E
330
1F
100
AcDbEntity
  8
0
  6
Continuous
 62
     7
370
    25
100
AcDbLine
 10
12.2783378623
 20
3.3008695652
 30
0.0
 11
12.0381884058
 21
2.54
 31
0.0
  0
LINE
  5
7F
330
1F
100
AcDbEntity
  8
0
  6
Continuous
 62
     7
370
    25
100
AcDbLine
 10
12.0381884058
 20
2.54
 30
0.0
 11
11.5436231884
 21
2.54
 31
0.0
  0
LINE
  5
80
330
1F
100
AcDbEntity
  8
0
  6
Continuous
 62
     7
370
    25
100
AcDbLine
 10
11.5436231884
 20
2.54
 30
0.0
 11
12.7071195652
 21
6.04
 31
0.0
  0
LINE
  5
81
330
1F
100
AcDbEntity
  8
0
  6
Continuous
 62
     7
370
    25
100
AcDbLine
 10
12.7071195652
 20
6.04
 30
0.0
 11
13.3594067029
 21
6.04
 31
0.0
  0
LINE
  5
82
330
1F
100
AcDbEntity
  8
0
  6
Continuous
 62
     7
370
    25
100
AcDbLine
 10
19.3449139493
 20
6.04
 30
0.0
 11
20.4711594203
 21
2.54
 31
0.0
  0
LINE
  5
83
330
1F
100
AcDbEntity
  8
0
  6
Continuous
 62
     7
370
    25
100
AcDbLine
 10
20.4711594203
 20
2.54
 30
0.0
 11
19.9520244565
 21
2.54
 31
0.0
  0
LINE
  5
84
330
1F
100
AcDbEntity
  8
0
  6
Continuous
 62
     7
370
    25
100
AcDbLine
 10
19.9520244565
 20
2.54
 30
0.0
 11
19.7174230072
 21
3.3008695652
 31
0.0
  0
LINE
  5
85
330
1F
100
AcDbEntity
  8
0
  6
Continuous
 62
     7
370
    25
100
AcDbLine
 10
19.7174230072
 20
3.3008695652
 30
0.0
 11
18.2638451087
 21
3.3008695652
 31
0.0
  0
LINE
  5
86
330
1F
100
AcDbEntity
  8
0
  6
Continuous
 62
     7
370
    25
100
AcDbLine
 10
18.2638451087
 20
3.3008695652
 30
0.0
 11
18.0236956522
 21
2.54
 31
0.0
  0
LINE
  5
87
330
1F
100
AcDbEntity
  8
0
  6
Continuous
 62
     7
370
    25
100
AcDbLine
 10
18.0236956522
 20
2.54
 30
0.0
 11
17.5291304348
 21
2.54
 31
0.0
  0
LINE
  5
88
330
1F
100
AcDbEntity
  8
0
  6
Continuous
 62
     7
370
    25
100
AcDbLine
 10
17.5291304348
 20
2.54
 30
0.0
 11
18.6926268116
 21
6.04
 31
0.0
  0
LINE
  5
89
330
1F
100
AcDbEntity
  8
0
  6
Continuous
 62
     7
370
    25
100
AcDbLine
 10
18.6926268116
 20
6.04
 30
0.0
 11
19.3449139493
 21
6.04
 31
0.0
  0
LINE
  5
8A
330
1F
100
AcDbEntity
  8
0
  6
Continuous
 62
     7
370
    25
100
AcDbLine
 10
0.0
 20
0.0
 30
0.0
 11
87.2365
 21
0.0
 31
0.0
  0
ARC
  5
8B
330
1F
100
AcDbEntity
  8
0
  6
Continuous
 62
     7
370
    25
100
AcDbCircle
 10
99.9365
 20
0.0
 30
0.0
 40
12.7
100
AcDbArc
 50
0.0
 51
180.0
  0
LINE
  5
8C
330
1F
100
AcDbEntity
  8
0
  6
Continuous
 62
     7
370
    25
100
AcDbLine
 10
112.6365
 20
0.0
 30
0.0
 11
199.873
 21
0.0
 31
0.0
  0
LINE
  5
8D
330
1F
100
AcDbEntity
  8
0
  6
Continuous
 62
     7
370
    25
100
AcDbLine
 10
199.873
 20
0.0
 30
0.0
 11
199.873
 21
199.873
 31
0.0
  0
LINE
  5
8E
330
1F
100
AcDbEntity
  8
0
  6
Continuous
 62
     7
370
    25
100
AcDbLine
 10
199.873
 20
199.873
 30
0.0
 11
0.0
 21
199.873
 31
0.0
  0
LINE
  5
8F
330
1F
100
AcDbEntity
  8
0
  6
Continuous
 62
     7
370
    25
100
AcDbLine
 10
0.0
 20
199.873
 30
0.0
 11
0.0
 21
0.0
 31
0.0
  0
LINE
  5
90
330
1F
100
AcDbEntity
  8
0
  6
Continuous
 62
     7
370
    25
100
AcDbLine
 10
22.7513903986
 20
3.7066666667
 30
0.0
 11
23.2863768116
 21
2.54
 31
0.0
  0
LINE
  5
91
330
1F
100
AcDbEntity
  8
0
  6
Continuous
 62
     7
370
    25
100
AcDbLine
 10
23.2863768116
 20
2.54
 30
0.0
 11
22.7490126812
 21
2.54
 31
0.0
  0
LINE
  5
92
330
1F
100
AcDbEntity
  8
0
  6
Continuous
 62
     7
370
    25
100
AcDbLine
 10
22.7490126812
 20
2.54
 30
0.0
 11
22.2457291667
 21
3.6329574275
 31
0.0
  0
SPLINE
  5
93
330
1F
100
AcDbEntity
  8
0
  6
Continuous
 62
     7
370
    25
100
AcDbSpline
210
0.0
220
0.0
230
1.0
 70
     8
 71
     3
 72
    15
 73
    11
 74
     0
 42
0.000000001
 43
0.00000001
 40
0.0
 40
0.0
 40
0.0
 40
0.0
 40
0.167391854587001
 40
0.3105326767827669
 40
0.4353739153206078
 40
0.5489839509337432
 40
0.6555634230881738
 40
0.7631611935822884
 40
0.8757123458120044
 40
0.9999999999999999
 40
0.9999999999999999
 40
0.9999999999999999
 40
0.9999999999999999
 10
22.24572916666667
 20
3.632957427536232
 30
0.0
 10
22.22754341968901
 20
3.671706773326223
 30
0.0
 10
22.19380660076076
 20
3.743591621614898
 30
0.0
 10
22.13440571802641
 20
3.837982497470047
 30
0.0
 10
22.07288290067123
 20
3.914032892429853
 30
0.0
 10
22.00623972126084
 20
3.972499766669694
 30
0.0
 10
21.9335341514497
 20
4.01515403059822
 30
0.0
 10
21.85430558714174
 20
4.042750587709237
 30
0.0
 10
21.76740467821687
 20
4.058792394571243
 30
0.0
 10
21.70685309529562
 20
4.060724962468868
 30
0.0
 10
21.67507699275363
 20
4.061739130434783
 30
0.0
  0
LINE
  5
94
330
1F
100
AcDbEntity
  8
0
  6
Continuous
 62
     7
370
    25
100
AcDbLine
 10
21.6750769928
 20
4.0617391304
 30
0.0
 11
21.4602898551
 21
4.0617391304
 31
0.0
  0
LINE
  5
95
330
1F
100
AcDbEntity
  8
0
  6
Continuous
 62
     7
370
    25
100
AcDbLine
 10
21.4602898551
 20
4.0617391304
 30
0.0
 11
21.4602898551
 21
2.54
 31
0.0
  0
LINE
  5
96
330
1F
100
AcDbEntity
  8
0
  6
Continuous
 62
     7
370
    25
100
AcDbLine
 10
21.4602898551
 20
2.54
 30
0.0
 11
20.9530434783
 21
2.54
 31
0.0
  0
LINE
  5
97
330
1F
100
AcDbEntity
  8
0
  6
Continuous
 62
     7
370
    25
100
AcDbLine
 10
20.9530434783
 20
2.54
 30
0.0
 11
20.9530434783
 21
6.04
 31
0.0
  0
LINE
  5
98
330
1F
100
AcDbEntity
  8
0
  6
Continuous
 62
     7
370
    25
100
AcDbLine
 10
20.9530434783
 20
6.04
 30
0.0
 11
21.8835235507
 21
6.04
 31
0.0
  0
SPLINE
  5
99
330
1F
100
AcDbEntity
  8
0
  6
Continuous
 62
     7
370
    25
100
AcDbSpline
210
0.0
220
0.0
230
1.0
 70
     8
 71
     3
 72
    23
 73
    19
 74
     0
 42
0.000000001
 43
0.00000001
 40
0.0
 40
0.0
 40
0.0
 40
0.0
 40
0.0868773302242268
 40
0.1675014716055824
 40
0.2427475008353475
 40
0.312660341639302
 40
0.3779946034993811
 40
0.4397338850260997
 40
0.4985052936180564
 40
0.5543760393236223
 40
0.6088184466666484
 40
0.6619725906622711
 40
0.7152695750975286
 40
0.7692730547064732
 40
0.8244991354528809
 40
0.8807629267760523
 40
0.9393973148271851
 40
1.0
 40
1.0
 40
1.0
 40
1.0
 10
21.88352355072464
 20
6.04
 30
0.0
 10
21.93242989951405
 20
6.039366360632885
 30
0.0
 10
22.0267224539922
 20
6.038144689499748
 30
0.0
 10
22.1628719191112
 20
6.025266173406158
 30
0.0
 10
22.28837506936272
 20
6.004490515771261
 30
0.0
 10
22.40303840658529
 20
5.974095291003712
 30
0.0
 10
22.50763898106687
 20
5.93695456721963
 30
0.0
 10
22.60253525355171
 20
5.892570658892119
 30
0.0
 10
22.68774017517627
 20
5.841200810791586
 30
0.0
 10
22.76292822911377
 20
5.782587380177647
 30
0.0
 10
22.82939697107412
 20
5.718622510443241
 30
0.0
 10
22.8851769698746
 20
5.646973978241056
 30
0.0
 10
22.93247750836311
 20
5.569801301501762
 30
0.0
 10
22.96959918737949
 20
5.485927790946587
 30
0.0
 10
22.99774603135372
 20
5.397009504313222
 30
0.0
 10
23.01875607000577
 20
5.303467956981365
 30
0.0
 10
23.03048581554791
 20
5.205195091988964
 30
0.0
 10
23.03198941379615
 20
5.138082264194685
 30
0.0
 10
23.03275362318841
 20
5.103971920289856
 30
0.0
  0
SPLINE
  5
9A
330
1F
100
AcDbEntity
  8
0
  6
Continuous
 62
     7
370
    25
100
AcDbSpline
210
0.0
220
0.0
230
1.0
 70
     8
 71
     3
 72
    23
 73
    19
 74
     0
 42
0.000000001
 43
0.00000001
 40
0.0
 40
0.0
 40
0.0
 40
0.0
 40
0.0645442690844636
 40
0.1269342817600561
 40
0.1887265654101717
 40
0.2498083354624793
 40
0.3098390008115379
 40
0.3692223034933693
 40
0.4286832737432363
 40
0.4883798617341064
 40
0.5482501456441765
 40
0.608765760472555
 40
0.6699858955025249
 40
0.7331387142663488
 40
0.7970632865401303
 40
0.8628148123436724
 40
0.930318249078275
 40
1.0
 40
1.0
 40
1.0
 40
1.0
 10
23.03275362318841
 20
5.103971920289855
 30
0.0
 10
23.03212022993272
 20
5.076470167369493
 30
0.0
 10
23.03087458381846
 20
5.022384571489236
 30
0.0
 10
23.02171893410791
 20
4.942416753925583
 30
0.0
 10
23.00785572532506
 20
4.864646936717076
 30
0.0
 10
22.98708340439363
 20
4.789435289963417
 30
0.0
 10
22.96088852810765
 20
4.717074992533369
 30
0.0
 10
22.92925274583804
 20
4.647623320937444
 30
0.0
 10
22.89086213980913
 20
4.581847098114334
 30
0.0
 10
22.84740583349945
 20
4.519061152754973
 30
0.0
 10
22.79796023171224
 20
4.460279444671696
 30
0.0
 10
22.74335211321592
 20
4.405303890940685
 30
0.0
 10
22.68227558370199
 20
4.355425285696469
 30
0.0
 10
22.61708962423591
 20
4.308559938672859
 30
0.0
 10
22.54601129997794
 20
4.267093548654414
 30
0.0
 10
22.46975889618805
 20
4.231662975432546
 30
0.0
 10
22.3887204409882
 20
4.201184090854736
 30
0.0
 10
22.33226360393803
 20
4.185973393751087
 30
0.0
 10
22.30358695652174
 20
4.178247282608696
 30
0.0
  0
SPLINE
  5
9B
330
1F
100
AcDbEntity
  8
0
  6
Continuous
 62
     7
370
    25
100
AcDbSpline
210
0.0
220
0.0
230
1.0
 70
     8
 71
     3
 72
    15
 73
    11
 74
     0
 42
0.000000001
 43
0.00000001
 40
0.0
 40
0.0
 40
0.0
 40
0.0
 40
0.1113525621013524
 40
0.2209309255260343
 40
0.3311251909260313
 40
0.443649188274154
 40
0.5643761418057452
 40
0.6964797497374366
 40
0.842107901972891
 40
0.9999999999999999
 40
0.9999999999999999
 40
0.9999999999999999
 40
0.9999999999999999
 10
22.30358695652174
 20
4.178247282608696
 30
0.0
 10
22.32689514491578
 20
4.169698354607065
 30
0.0
 10
22.37314014850665
 20
4.152736710078968
 30
0.0
 10
22.43672344713322
 20
4.114964981319464
 30
0.0
 10
22.49652591284532
 20
4.071060750601507
 30
0.0
 10
22.54882452909217
 20
4.014951284576557
 30
0.0
 10
22.5999586715383
 20
3.951752521599673
 30
0.0
 10
22.65064509778587
 20
3.878930821468974
 30
0.0
 10
22.70211639286843
 20
3.796752178064751
 30
0.0
 10
22.73452917633979
 20
3.73749330242796
 30
0.0
 10
22.75139039855072
 20
3.706666666666667
 30
0.0
  0
LINE
  5
9C
330
1F
100
AcDbEntity
  8
0
  6
Continuous
 62
     7
370
    25
100
AcDbLine
 10
17.2501449275
 20
5.9385507246
 30
0.0
 11
17.2501449275
 21
5.4820289855
 31
0.0
  0
SPLINE
  5
9D
330
1F
100
AcDbEntity
  8
0
  6
Continuous
 62
     7
370
    25
100
AcDbSpline
210
0.0
220
0.0
230
1.0
 70
     8
 71
     3
 72
    13
 73
     9
 74
     0
 42
0.000000001
 43
0.00000001
 40
0.0
 40
0.0
 40
0.0
 40
0.0
 40
0.243243211595846
 40
0.4850313067569414
 40
0.6072204693392954
 40
0.7333344144511423
 40
0.8647086109366648
 40
1.0
 40
1.0
 40
1.0
 40
1.0
 10
17.25014492753623
 20
5.482028985507248
 30
0.0
 10
17.18280678122611
 20
5.511978826673772
 30
0.0
 10
17.04853331523661
 20
5.571699344680651
 30
0.0
 10
16.8720875102137
 20
5.625300698403949
 30
0.0
 10
16.72689304077729
 20
5.656257150090616
 30
0.0
 10
16.61304511709137
 20
5.672665486089248
 30
0.0
 10
16.49450145644427
 20
5.683380690237568
 30
0.0
 10
16.41374073795672
 20
5.684406896072723
 30
0.0
 10
16.37276721014493
 20
5.684927536231886
 30
0.0
  0
SPLINE
  5
9E
330
1F
100
AcDbEntity
  8
0
  6
Continuous
 62
     7
370
    25
100
AcDbSpline
210
0.0
220
0.0
230
1.0
 70
     8
 71
     3
 72
    23
 73
    19
 74
     0
 42
0.000000001
 43
0.00000001
 40
0.0
 40
0.0
 40
0.0
 40
0.0
 40
0.0670981242722626
 40
0.1309759062433328
 40
0.1922163869542914
 40
0.251769808319032
 40
0.30968471942135
 40
0.3665125233135307
 40
0.4235187108853607
 40
0.480372032427633
 40
0.5380321837013048
 40
0.5972742619708011
 40
0.6584306056386229
 40
0.722042167401611
 40
0.7879120315897787
 40
0.8559727583910858
 40
0.9264611901366913
 40
1.0
 40
1.0
 40
1.0
 40
1.0
 10
16.37276721014493
 20
5.684927536231885
 30
0.0
 10
16.32619395854978
 20
5.68380312870416
 30
0.0
 10
16.23528271623812
 20
5.681608279048858
 30
0.0
 10
16.10313342411704
 20
5.661793954285355
 30
0.0
 10
15.97836346887184
 20
5.631676224279996
 30
0.0
 10
15.86247147686651
 20
5.586724129002818
 30
0.0
 10
15.75487706376491
 20
5.531098619117346
 30
0.0
 10
15.65559580436893
 20
5.464764860692265
 30
0.0
 10
15.56520317155814
 20
5.387851723198338
 30
0.0
 10
15.48397773866669
 20
5.300617040601933
 30
0.0
 10
15.41104287606052
 20
5.204303763865975
 30
0.0
 10
15.34912172614321
 20
5.097187074783442
 30
0.0
 10
15.29367729363664
 20
4.982025167628377
 30
0.0
 10
15.24918854829427
 20
4.85728787307051
 30
0.0
 10
15.21295969186547
 20
4.724928878709248
 30
0.0
 10
15.18966657390938
 20
4.584920992286426
 30
0.0
 10
15.17246764726589
 20
4.438635229438796
 30
0.0
 10
15.17112190473318
 20
4.338665689007301
 30
0.0
 10
15.17043478260869
 20
4.287622282608696
 30
0.0
  0
SPLINE
  5
9F
330
1F
100
AcDbEntity
  8
0
  6
Continuous
 62
     7
370
    25
100
AcDbSpline
210
0.0
220
0.0
230
1.0
 70
     8
 71
     3
 72
    23
 73
    19
 74
     0
 42
0.000000001
 43
0.00000001
 40
0.0
 40
0.0
 40
0.0
 40
0.0
 40
0.0776967714840032
 40
0.1509619938714881
 40
0.2212415611529965
 40
0.2875559640017781
 40
0.3508859543665407
 40
0.4108762646889425
 40
0.468433815258095
 40
0.5243810448878409
 40
0.5788733757496392
 40
0.6330758261547901
 40
0.6878469618937095
 40
0.7440192785930991
 40
0.8024561126406576
 40
0.8641267637851895
 40
0.9296015450136523
 40
1.0
 40
1.0
 40
1.0
 40
1.0
 10
15.17043478260869
 20
4.287622282608696
 30
0.0
 10
15.17116933505997
 20
4.234499794922609
 30
0.0
 10
15.1725965436882
 20
4.131284738397945
 30
0.0
 10
15.18442113948215
 20
3.980352608152699
 30
0.0
 10
15.20520880693015
 20
3.838326192468956
 30
0.0
 10
15.23215311512989
 20
3.704202903639479
 30
0.0
 10
15.26932689981765
 20
3.579794763486337
 30
0.0
 10
15.31536499280774
 20
3.464836243737003
 30
0.0
 10
15.37011565970722
 20
3.35938336542998
 30
0.0
 10
15.43416488147371
 20
3.263691991909869
 30
0.0
 10
15.5086668070038
 20
3.17890388263766
 30
0.0
 10
15.5925118673029
 20
3.104558253848757
 30
0.0
 10
15.68609039516562
 20
3.04091828724336
 30
0.0
 10
15.78897782028226
 20
2.987080334930958
 30
0.0
 10
15.9027090609
 20
2.946294943606746
 30
0.0
 10
16.02612281981219
 20
2.915917398507468
 30
0.0
 10
16.16041200561192
 20
2.898834156330102
 30
0.0
 10
16.25330572288624
 20
2.896356291631045
 30
0.0
 10
16.3014356884058
 20
2.895072463768117
 30
0.0
  0
SPLINE
  5
A0
330
1F
100
AcDbEntity
  8
0
  6
Continuous
 62
     7
370
    25
100
AcDbSpline
210
0.0
220
0.0
230
1.0
 70
     8
 71
     3
 72
    15
 73
    11
 74
     0
 42
0.000000001
 43
0.00000001
 40
0.0
 40
0.0
 40
0.0
 40
0.0
 40
0.118137707162631
 40
0.2453407520265897
 40
0.3782754322888174
 40
0.5101308509081702
 40
0.6425504600250244
 40
0.7708234786150033
 40
0.8918702657019147
 40
0.9999999999999999
 40
0.9999999999999999
 40
0.9999999999999999
 40
0.9999999999999999
 10
16.3014356884058
 20
2.895072463768117
 30
0.0
 10
16.31914301638458
 20
2.89545278806209
 30
0.0
 10
16.35591645026132
 20
2.896242620965896
 30
0.0
 10
16.41248456304692
 20
2.900414016519276
 30
0.0
 10
16.47095165853842
 20
2.906436110122765
 30
0.0
 10
16.52980139714959
 20
2.91556397943089
 30
0.0
 10
16.58783367655704
 20
2.925350484351948
 30
0.0
 10
16.64370185386099
 20
2.937869363598546
 30
0.0
 10
16.6952576524585
 20
2.952611824303417
 30
0.0
 10
16.72762638311895
 20
2.964136649183911
 30
0.0
 10
16.74289855072464
 20
2.96957427536232
 30
0.0
  0
LINE
  5
A1
330
1F
100
AcDbEntity
  8
0
  6
Continuous
 62
     7
370
    25
100
AcDbLine
 10
16.7428985507
 20
2.9695742754
 30
0.0
 11
16.7428985507
 21
4.1124637681
 31
0.0
  0
LINE
  5
A2
330
1F
100
AcDbEntity
  8
0
  6
Continuous
 62
     7
370
    25
100
AcDbLine
 10
16.7428985507
 20
4.1124637681
 30
0.0
 11
16.0390942029
 21
4.1124637681
 31
0.0
  0
LINE
  5
A3
330
1F
100
AcDbEntity
  8
0
  6
Continuous
 62
     7
370
    25
100
AcDbLine
 10
16.0390942029
 20
4.1124637681
 30
0.0
 11
16.0390942029
 21
4.5182608696
 31
0.0
  0
LINE
  5
A4
330
1F
100
AcDbEntity
  8
0
  6
Continuous
 62
     7
370
    25
100
AcDbLine
 10
16.0390942029
 20
4.5182608696
 30
0.0
 11
17.2501449275
 21
4.5182608696
 31
0.0
  0
LINE
  5
A5
330
1F
100
AcDbEntity
  8
0
  6
Continuous
 62
     7
370
    25
100
AcDbLine
 10
17.2501449275
 20
4.5182608696
 30
0.0
 11
17.2501449275
 21
2.7040625
 31
0.0
  0
SPLINE
  5
A6
330
1F
100
AcDbEntity
  8
0
  6
Continuous
 62
     7
370
    25
100
AcDbSpline
210
0.0
220
0.0
230
1.0
 70
     8
 71
     3
 72
    15
 73
    11
 74
     0
 42
0.000000001
 43
0.00000001
 40
0.0
 40
0.0
 40
0.0
 40
0.0
 40
0.1215533759830856
 40
0.2468730645557066
 40
0.3746714108345274
 40
0.5031073905946045
 40
0.6316150506110909
 40
0.7582927467139837
 40
0.8812578156137546
 40
1.0
 40
1.0
 40
1.0
 40
1.0
 10
17.25014492753623
 20
2.704062500000001
 30
0.0
 10
17.21203046642842
 20
2.687209541267675
 30
0.0
 10
17.13462057351946
 20
2.652981437478445
 30
0.0
 10
17.01350945870112
 20
2.609920196496944
 30
0.0
 10
16.88800683713697
 20
2.572995057303351
 30
0.0
 10
16.75978204881107
 20
2.541941468529196
 30
0.0
 10
16.63035702942602
 20
2.518286462710381
 30
0.0
 10
16.50173208203556
 20
2.502094738425061
 30
0.0
 10
16.37586782676832
 20
2.490982207383325
 30
0.0
 10
16.29300416707158
 20
2.48983764509746
 30
0.0
 10
16.25229619565217
 20
2.489275362318841
 30
0.0
  0
SPLINE
  5
A7
330
1F
100
AcDbEntity
  8
0
  6
Continuous
 62
     7
370
    25
100
AcDbSpline
210
0.0
220
0.0
230
1.0
 70
     8
 71
     3
 72
    23
 73
    19
 74
     0
 42
0.000000001
 43
0.00000001
 40
0.0
 40
0.0
 40
0.0
 40
0.0
 40
0.0664750066251898
 40
0.1298691366212019
 40
0.1909170876040545
 40
0.2499362502088421
 40
0.3075602225872331
 40
0.3634113090814329
 40
0.4192531151601883
 40
0.4749632826029119
 40
0.5313346986072298
 40
0.5892934796499242
 40
0.6494922147887102
 40
0.7123114536155499
 40
0.7785606252979981
 40
0.8481967065368431
 40
0.9217767357109492
 40
1.0
 40
1.0
 40
1.0
 40
1.0
 10
16.25229619565217
 20
2.489275362318841
 30
0.0
 10
16.19251688108584
 20
2.490549452598243
 30
0.0
 10
16.07572880742216
 20
2.493038583671163
 30
0.0
 10
15.9052569740952
 20
2.515274873577129
 30
0.0
 10
15.74372774817471
 20
2.549480568042576
 30
0.0
 10
15.59146134658221
 20
2.598767241981973
 30
0.0
 10
15.4495687615444
 20
2.662014428403332
 30
0.0
 10
15.31786916150512
 20
2.738920694424431
 30
0.0
 10
15.197107687768
 20
2.829274621609983
 30
0.0
 10
15.08771285377717
 20
2.933851987460507
 30
0.0
 10
14.99070225203554
 20
3.052357506866621
 30
0.0
 10
14.90421221773665
 20
3.183681128292799
 30
0.0
 10
14.83216648177109
 20
3.329870623660105
 30
0.0
 10
14.76945787772753
 20
3.488255203217831
 30
0.0
 10
14.72157047149833
 20
3.660689086440408
 30
0.0
 10
14.68809618823467
 20
3.846156272595161
 30
0.0
 10
14.66710929502691
 20
4.044350900419821
 30
0.0
 10
14.66452175077026
 20
4.18083471452466
 30
0.0
 10
14.6631884057971
 20
4.251163949275363
 30
0.0
  0
SPLINE
  5
A8
330
1F
100
AcDbEntity
  8
0
  6
Continuous
 62
     7
370
    25
100
AcDbSpline
210
0.0
220
0.0
230
1.0
 70
     8
 71
     3
 72
    23
 73
    19
 74
     0
 42
0.000000001
 43
0.00000001
 40
0.0
 40
0.0
 40
0.0
 40
0.0
 40
0.0742252771806094
 40
0.1452246251349338
 40
0.2126888929148227
 40
0.2779431301589962
 40
0.3406829667072264
 40
0.4014210807773965
 40
0.4601092411464431
 40
0.5180957302352657
 40
0.5755133445412511
 40
0.6326683894261543
 40
0.6904145715872761
 40
0.7491594371175394
 40
0.8094359727667926
 40
0.8709469375778508
 40
0.9344445163449568
 40
1.0
 40
1.0
 40
1.0
 40
1.0
 10
14.6631884057971
 20
4.251163949275363
 30
0.0
 10
14.66473007013888
 20
4.321234261924291
 30
0.0
 10
14.66774639604056
 20
4.458329538278297
 30
0.0
 10
14.69066906793893
 20
4.658107726805698
 30
0.0
 10
14.72968437888604
 20
4.846637480034235
 30
0.0
 10
14.78323122866447
 20
5.02346699934647
 30
0.0
 10
14.85144205995454
 20
5.188384708861317
 30
0.0
 10
14.93342541426971
 20
5.339812267542857
 30
0.0
 10
15.0263523092064
 20
5.479490294153552
 30
0.0
 10
15.13309148248985
 20
5.604897419605875
 30
0.0
 10
15.25145423212464
 20
5.717268474848453
 30
0.0
 10
15.38175240005833
 20
5.815145369468722
 30
0.0
 10
15.52245268538732
 20
5.899863312246302
 30
0.0
 10
15.67485880976642
 20
5.968617981883745
 30
0.0
 10
15.83656696460089
 20
6.023121166550489
 30
0.0
 10
16.00709347929509
 20
6.063142198956918
 30
0.0
 10
16.18588501581555
 20
6.086052266130663
 30
0.0
 10
16.30771205966186
 20
6.089150711032085
 30
0.0
 10
16.36959692028985
 20
6.09072463768116
 30
0.0
  0
SPLINE
  5
A9
330
1F
100
AcDbEntity
  8
0
  6
Continuous
 62
     7
370
    25
100
AcDbSpline
210
0.0
220
0.0
230
1.0
 70
     8
 71
     3
 72
    13
 73
     9
 74
     0
 42
0.000000001
 43
0.00000001
 40
0.0
 40
0.0
 40
0.0
 40
0.0
 40
0.2629342745513349
 40
0.5143647563736857
 40
0.637317787192644
 40
0.7589996230405908
 40
0.8797707883104336
 40
1.0
 40
1.0
 40
1.0
 40
1.0
 10
16.36959692028985
 20
6.09072463768116
 30
0.0
 10
16.44841839999899
 20
6.089304177645928
 30
0.0
 10
16.60261279430831
 20
6.086525404961356
 30
0.0
 10
16.79234814709556
 20
6.061949095069979
 30
0.0
 10
16.9385168041681
 20
6.034804236767787
 30
0.0
 10
17.04484114345603
 20
6.008450995821411
 30
0.0
 10
17.14896263513429
 20
5.97706332535299
 30
0.0
 10
17.21646809807736
 20
5.951368998028394
 30
0.0
 10
17.25014492753623
 20
5.938550724637683
 30
0.0
  0
LINE
  5
AA
330
1F
100
AcDbEntity
  8
0
  6
Continuous
 62
     7
370
    25
100
AcDbLine
 10
11.5182608696
 20
1.8298550725
 30
0.0
 11
11.5182608696
 21
1.424057971
 31
0.0
  0
LINE
  5
AB
330
1F
100
AcDbEntity
  8
0
  6
Continuous
 62
     7
370
    25
100
AcDbLine
 10
11.5182608696
 20
1.424057971
 30
0.0
 11
8.5255072464
 21
1.424057971
 31
0.0
  0
LINE
  5
AC
330
1F
100
AcDbEntity
  8
0
  6
Continuous
 62
     7
370
    25
100
AcDbLine
 10
8.5255072464
 20
1.424057971
 30
0.0
 11
8.5255072464
 21
1.8298550725
 31
0.0
  0
LINE
  5
AD
330
1F
100
AcDbEntity
  8
0
  6
Continuous
 62
     7
370
    25
100
AcDbLine
 10
8.5255072464
 20
1.8298550725
 30
0.0
 11
11.5182608696
 21
1.8298550725
 31
0.0
  0
SPLINE
  5
AE
330
1F
100
AcDbEntity
  8
0
  6
Continuous
 62
     7
370
    25
100
AcDbSpline
210
0.0
220
0.0
230
1.0
 70
     8
 71
     3
 72
    33
 73
    29
 74
     0
 42
0.000000001
 43
0.00000001
 40
0.0
 40
0.0
 40
0.0
 40
0.0
 40
0.0256725206863523
 40
0.0501587058872914
 40
0.0740509760303597
 40
0.0980099637812124
 40
0.1224943380746901
 40
0.1477664898139559
 40
0.1742299562132473
 40
0.2020669083152298
 40
0.2611307647762912
 40
0.3251114021284827
 40
0.3920786018188583
 40
0.4608715495168585
 40
0.5302389718678849
 40
0.5993643493231736
 40
0.6336119318732998
 40
0.6670723493608384
 40
0.6997171253332983
 40
0.7320507316236042
 40
0.7640604492905878
 40
0.7957471657181093
 40
0.8278039463467535
 40
0.8596804052870166
 40
0.8922149749785889
 40
0.9262482604579598
 40
0.9618405384130072
 40
1.0
 40
1.0
 40
1.0
 40
1.0
 10
3.402318840579711
 20
5.173718297101451
 30
0.0
 10
3.403104951426895
 20
5.150904277793517
 30
0.0
 10
3.404640846684723
 20
5.106330482389701
 30
0.0
 10
3.420417447299959
 20
5.042107319556846
 30
0.0
 10
3.445104610765815
 20
4.982633271454557
 30
0.0
 10
3.479620603524553
 20
4.928089092776082
 30
0.0
 10
3.523588994179136
 20
4.879476368455955
 30
0.0
 10
3.571982194985278
 20
4.832189166199177
 30
0.0
 10
3.627038764286861
 20
4.78782674000094
 30
0.0
 10
3.710120581113895
 20
4.731025805321953
 30
0.0
 10
3.827631124338489
 20
4.66629560339219
 30
0.0
 10
3.982038875071127
 20
4.598381624894392
 30
0.0
 10
4.1474978713643
 20
4.534908953862519
 30
0.0
 10
4.315968101813994
 20
4.466096528757136
 30
0.0
 10
4.485400110245746
 20
4.394513757185968
 30
0.0
 10
4.623487313796762
 20
4.327921333356591
 30
0.0
 10
4.730656937758865
 20
4.270757170526663
 30
0.0
 10
4.805760309346219
 20
4.22283629322599
 30
0.0
 10
4.877071200484584
 20
4.172295366917471
 30
0.0
 10
4.942641639656362
 20
4.11645856442909
 30
0.0
 10
5.004175029274083
 20
4.05740237162524
 30
0.0
 10
5.059180937210614
 20
3.992488782076168
 30
0.0
 10
5.108248335058323
 20
3.923131390535181
 30
0.0
 10
5.150556911388279
 20
3.848632472569167
 30
0.0
 10
5.186744812220605
 20
3.76884064772431
 30
0.0
 10
5.210343138754681
 20
3.681054616100949
 30
0.0
 10
5.226224779214679
 20
3.586508637322167
 30
0.0
 10
5.22766211400779
 20
3.521012218155102
 30
0.0
 10
5.228405797101449
 20
3.487124094202899
 30
0.0
  0
SPLINE
  5
AF
330
1F
100
AcDbEntity
  8
0
  6
Continuous
 62
     7
370
    25
100
AcDbSpline
210
0.0
220
0.0
230
1.0
 70
     8
 71
     3
 72
    23
 73
    19
 74
     0
 42
0.000000001
 43
0.00000001
 40
0.0
 40
0.0
 40
0.0
 40
0.0
 40
0.0628526912825234
 40
0.1219331631184336
 40
0.1794211564000012
 40
0.2348645005231464
 40
0.2896129140320916
 40
0.3441997025754964
 40
0.3993279775826595
 40
0.4557820360412651
 40
0.5139683956912746
 40
0.5743422293330562
 40
0.6378184004706601
 40
0.7043129650887784
 40
0.773826808571891
 40
0.8462910642687033
 40
0.9216170320718458
 40
1.0
 40
1.0
 40
1.0
 40
1.0
 10
5.228405797101449
 20
3.487124094202899
 30
0.0
 10
5.227266764426973
 20
3.44662555220836
 30
0.0
 10
5.225057060211288
 20
3.36805906243178
 30
0.0
 10
5.205615496652912
 20
3.253735740186904
 30
0.0
 10
5.173193104945818
 20
3.147546701389493
 30
0.0
 10
5.128639573342217
 20
3.048765060548
 30
0.0
 10
5.071324609187029
 20
2.95918484642629
 30
0.0
 10
5.005857948545133
 20
2.875573601755205
 30
0.0
 10
4.927685272383029
 20
2.802028793703132
 30
0.0
 10
4.841083013750104
 20
2.735062810086688
 30
0.0
 10
4.744698490753456
 20
2.676128100118316
 30
0.0
 10
4.638285069338438
 20
2.626529155325853
 30
0.0
 10
4.523301541626552
 20
2.583680145306968
 30
0.0
 10
4.399428447930374
 20
2.549130878742634
 30
0.0
 10
4.267773395244292
 20
2.522273493523032
 30
0.0
 10
4.128986235091038
 20
2.503823355623796
 30
0.0
 10
3.983764261840948
 20
2.491370795965708
 30
0.0
 10
3.884758327414022
 20
2.48998304020742
 30
0.0
 10
3.834270833333334
 20
2.489275362318842
 30
0.0
  0
SPLINE
  5
B0
330
1F
100
AcDbEntity
  8
0
  6
Continuous
 62
     7
370
    25
100
AcDbSpline
210
0.0
220
0.0
230
1.0
 70
     8
 71
     3
 72
    15
 73
    11
 74
     0
 42
0.000000001
 43
0.00000001
 40
0.0
 40
0.0
 40
0.0
 40
0.0
 40
0.1399661304129398
 40
0.2792621076018866
 40
0.4156245332667222
 40
0.5474391198315695
 40
0.6723049882329218
 40
0.791165442370022
 40
0.9009763104592271
 40
1.0
 40
1.0
 40
1.0
 40
1.0
 10
3.834270833333334
 20
2.489275362318841
 30
0.0
 10
3.787766914064421
 20
2.489796415313255
 30
0.0
 10
3.694981734760903
 20
2.4908360265175
 30
0.0
 10
3.557002565852943
 20
2.497209299486266
 30
0.0
 10
3.422014442564863
 20
2.507737719236273
 30
0.0
 10
3.292034493893846
 20
2.520398072477233
 30
0.0
 10
3.168047800673395
 20
2.534471705192761
 30
0.0
 10
3.051696920431051
 20
2.550748168973737
 30
0.0
 10
2.944449477448726
 20
2.569673871503724
 30
0.0
 10
2.876545874825502
 20
2.58395358459518
 30
0.0
 10
2.844347826086957
 20
2.590724637681161
 30
0.0
  0
LINE
  5
B1
330
1F
100
AcDbEntity
  8
0
  6
Continuous
 62
     7
370
    25
100
AcDbLine
 10
2.8443478261
 20
2.5907246377
 30
0.0
 11
2.8443478261
 21
3.0472463768
 31
0.0
  0
SPLINE
  5
B2
330
1F
100
AcDbEntity
  8
0
  6
Continuous
 62
     7
370
    25
100
AcDbSpline
210
0.0
220
0.0
230
1.0
 70
     8
 71
     3
 72
    15
 73
    11
 74
     0
 42
0.000000001
 43
0.00000001
 40
0.0
 40
0.0
 40
0.0
 40
0.0
 40
0.1052956016478606
 40
0.2151454387777328
 40
0.3294573921663204
 40
0.4489943541759996
 40
0.5746051271859375
 40
0.7088089384905125
 40
0.8502985144329712
 40
1.0
 40
1.0
 40
1.0
 40
1.0
 10
2.844347826086957
 20
3.047246376811595
 30
0.0
 10
2.87881995420445
 20
3.035435178603819
 30
0.0
 10
2.949255195690065
 20
3.011301925351692
 30
0.0
 10
3.059739434596836
 20
2.982995810274027
 30
0.0
 10
3.175633780736071
 20
2.956411992047163
 30
0.0
 10
3.298039502372349
 20
2.93420286723767
 30
0.0
 10
3.428149129455625
 20
2.916723198692369
 30
0.0
 10
3.566459069930102
 20
2.904429959878873
 30
0.0
 10
3.713433950897024
 20
2.896105078469689
 30
0.0
 10
3.81418008743884
 20
2.895423079708143
 30
0.0
 10
3.865973731884059
 20
2.895072463768117
 30
0.0
  0
SPLINE
  5
B3
330
1F
100
AcDbEntity
  8
0
  6
Continuous
 62
     7
370
    25
100
AcDbSpline
210
0.0
220
0.0
230
1.0
 70
     8
 71
     3
 72
    23
 73
    19
 74
     0
 42
0.000000001
 43
0.00000001
 40
0.0
 40
0.0
 40
0.0
 40
0.0
 40
0.0951996397634719
 40
0.1831123545132348
 40
0.2645714215887091
 40
0.3387021912264533
 40
0.4076315342336484
 40
0.4712902469640023
 40
0.5308879494258028
 40
0.5867384790482646
 40
0.6399314496353622
 40
0.6904093843946771
 40
0.7400424598140941
 40
0.7887116944454846
 40
0.8388404874970887
 40
0.8899553355923225
 40
0.9435076783472998
 40
0.9999999999999999
 40
0.9999999999999999
 40
0.9999999999999999
 40
0.9999999999999999
 10
3.865973731884059
 20
2.895072463768117
 30
0.0
 10
3.902977797720109
 20
2.895453386345701
 30
0.0
 10
3.974153504252584
 20
2.896186074307988
 30
0.0
 10
4.076714072828336
 20
2.903846152892918
 30
0.0
 10
4.170893396580795
 20
2.913832958244041
 30
0.0
 10
4.2564885916735
 20
2.931179209194696
 30
0.0
 10
4.334358709377605
 20
2.951144886537148
 30
0.0
 10
4.404743482979699
 20
2.976551906067451
 30
0.0
 10
4.467531865088437
 20
3.006787736248241
 30
0.0
 10
4.523819187904452
 20
3.040683462074284
 30
0.0
 10
4.57205865348894
 20
3.079846936593357
 30
0.0
 10
4.614351908393149
 20
3.122053382362162
 30
0.0
 10
4.648292377819954
 20
3.169136710999265
 30
0.0
 10
4.675862477168597
 20
3.219979550650582
 30
0.0
 10
4.696243595528819
 20
3.27475384252302
 30
0.0
 10
4.710397006159426
 20
3.333314956573349
 30
0.0
 10
4.719300387826959
 20
3.395443244496901
 30
0.0
 10
4.720528803257921
 20
3.43821790915262
 30
0.0
 10
4.721159420289855
 20
3.460176630434783
 30
0.0
  0
SPLINE
  5
B4
330
1F
100
AcDbEntity
  8
0
  6
Continuous
 62
     7
370
    25
100
AcDbSpline
210
0.0
220
0.0
230
1.0
 70
     8
 71
     3
 72
    31
 73
    27
 74
     0
 42
0.000000001
 43
0.00000001
 40
0.0
 40
0.0
 40
0.0
 40
0.0
 40
0.0258256538255639
 40
0.0504578958338161
 40
0.0742166573127717
 40
0.0982290280963108
 40
0.1226637407700313
 40
0.1480972252287767
 40
0.1745307863151892
 40
0.2023650248842672
 40
0.2613734926338954
 40
0.3254926934792199
 40
0.3929704860779522
 40
0.4621737744731246
 40
0.5319549641855017
 40
0.6012340733588548
 40
0.6690091205488553
 40
0.7340165240612893
 40
0.7660088723855784
 40
0.7974309064525215
 40
0.8290167352932186
 40
0.8607160091568903
 40
0.8930501583236603
 40
0.9269982063279169
 40
0.9622113949963529
 40
1.0
 40
1.0
 40
1.0
 40
1.0
 10
4.721159420289855
 20
3.460176630434783
 30
0.0
 10
4.720372424559915
 20
3.482992879703388
 30
0.0
 10
4.718834800427286
 20
3.527571031981337
 30
0.0
 10
4.703129020095455
 20
3.591525070885588
 30
0.0
 10
4.678573143285008
 20
3.650832352142981
 30
0.0
 10
4.642572979976416
 20
3.703725584074693
 30
0.0
 10
4.600266558058212
 20
3.75342327213494
 30
0.0
 10
4.550566152085089
 20
3.798962157503178
 30
0.0
 10
4.495703862582338
 20
3.842997308944966
 30
0.0
 10
4.412458885638893
 20
3.898373470891223
 30
0.0
 10
4.295976067785912
 20
3.963442676790563
 30
0.0
 10
4.140807767751207
 20
4.028512906254034
 30
0.0
 10
3.976261288226917
 20
4.093847352275758
 30
0.0
 10
3.807392377558645
 20
4.161991506165985
 30
0.0
 10
3.638566521862104
 20
4.234326795523063
 30
0.0
 10
3.472941707921376
 20
4.310958307209382
 30
0.0
 10
3.317604579875356
 20
4.398870559914196
 30
0.0
 10
3.200632959291545
 20
4.486103075204303
 30
0.0
 10
3.118908143117221
 20
4.564653123784355
 30
0.0
 10
3.063309584893541
 20
4.627547470851868
 30
0.0
 10
3.015603636139005
 20
4.696227572486275
 30
0.0
 10
2.971534045275228
 20
4.768264424421995
 30
0.0
 10
2.937055755301379
 20
4.847872950674166
 30
0.0
 10
2.913134645213975
 20
4.934305079501956
 30
0.0
 10
2.897259756708622
 20
5.027571643814766
 30
0.0
 10
2.895818509905183
 20
5.09201365336395
 30
0.0
 10
2.895072463768117
 20
5.125371376811594
 30
0.0
  0
SPLINE
  5
B5
330
1F
100
AcDbEntity
  8
0
  6
Continuous
 62
     7
370
    25
100
AcDbSpline
210
0.0
220
0.0
230
1.0
 70
     8
 71
     3
 72
    23
 73
    19
 74
     0
 42
0.000000001
 43
0.00000001
 40
0.0
 40
0.0
 40
0.0
 40
0.0
 40
0.0490041924112068
 40
0.0981287860772285
 40
0.1483408065141559
 40
0.1993311244468143
 40
0.2514311251501593
 40
0.3039184384587434
 40
0.3576539639019184
 40
0.4134156257106557
 40
0.4718781029063452
 40
0.5340407864346706
 40
0.5991317626037744
 40
0.6690269556689784
 40
0.7436231815207723
 40
0.8232983116630591
 40
0.9085750435657358
 40
1.0
 40
1.0
 40
1.0
 40
1.0
 10
2.895072463768117
 20
5.125371376811594
 30
0.0
 10
2.895981811811997
 20
5.155282443986172
 30
0.0
 10
2.897802742129937
 20
5.21517806857858
 30
0.0
 10
2.912844758575039
 20
5.30467627816254
 30
0.0
 10
2.936502024412643
 20
5.393392489211534
 30
0.0
 10
2.969807577805165
 20
5.481004027095815
 30
0.0
 10
3.013433636003648
 20
5.565483216339484
 30
0.0
 10
3.066527685937961
 20
5.646472931085954
 30
0.0
 10
3.131743266222999
 20
5.721041002900749
 30
0.0
 10
3.206524054125876
 20
5.791352689192354
 30
0.0
 10
3.293039000653046
 20
5.855683015484085
 30
0.0
 10
3.390206809232415
 20
5.914366786327906
 30
0.0
 10
3.499608282488991
 20
5.964728655384445
 30
0.0
 10
3.619149197257778
 20
6.010430745045285
 30
0.0
 10
3.751239491541171
 20
6.046708687405993
 30
0.0
 10
3.895224255138834
 20
6.072699080602246
 30
0.0
 10
4.051131665612222
 20
6.087367880251283
 30
0.0
 10
4.158930699221448
 20
6.089580061385697
 30
0.0
 10
4.214705615942029
 20
6.09072463768116
 30
0.0
  0
SPLINE
  5
B6
330
1F
100
AcDbEntity
  8
0
  6
Continuous
 62
     7
370
    25
100
AcDbSpline
210
0.0
220
0.0
230
1.0
 70
     8
 71
     3
 72
    15
 73
    11
 74
     0
 42
0.000000001
 43
0.00000001
 40
0.0
 40
0.0
 40
0.0
 40
0.0
 40
0.1142701537596724
 40
0.2374818937332309
 40
0.3667825227099943
 40
0.4974499238718484
 40
0.6284934605045641
 40
0.7580657031287314
 40
0.8832101758175104
 40
1.0
 40
1.0
 40
1.0
 40
1.0
 10
4.214705615942029
 20
6.09072463768116
 30
0.0
 10
4.245891921874092
 20
6.09052258381501
 30
0.0
 10
4.310704847626044
 20
6.090102665461957
 30
0.0
 10
4.410570232296107
 20
6.082923580451263
 30
0.0
 10
4.514731162612212
 20
6.073869385958491
 30
0.0
 10
4.620646371444364
 20
6.060899173269235
 30
0.0
 10
4.726384642799306
 20
6.046092082109551
 30
0.0
 10
4.83019245597464
 20
6.02863468681986
 30
0.0
 10
4.929843483854041
 20
6.010002366591131
 30
0.0
 10
4.994361991987867
 20
5.996023453798388
 30
0.0
 10
5.025507246376812
 20
5.989275362318842
 30
0.0
  0
LINE
  5
B7
330
1F
100
AcDbEntity
  8
0
  6
Continuous
 62
     7
370
    25
100
AcDbLine
 10
5.0255072464
 20
5.9892753623
 30
0.0
 11
5.0255072464
 21
5.5834782609
 31
0.0
  0
SPLINE
  5
B8
330
1F
100
AcDbEntity
  8
0
  6
Continuous
 62
     7
370
    25
100
AcDbSpline
210
0.0
220
0.0
230
1.0
 70
     8
 71
     3
 72
    11
 73
     7
 74
     0
 42
0.000000001
 43
0.00000001
 40
0.0
 40
0.0
 40
0.0
 40
0.0
 40
0.2573529563125434
 40
0.5121533756446442
 40
0.7604253498391687
 40
1.0
 40
1.0
 40
1.0
 40
1.0
 10
5.025507246376812
 20
5.583478260869565
 30
0.0
 10
4.956183348632573
 20
5.59885384203986
 30
0.0
 10
4.818223137289836
 20
5.629452502772948
 30
0.0
 10
4.610592858652541
 20
5.659976163273374
 30
0.0
 10
4.406687985974252
 20
5.681352467145901
 30
0.0
 10
4.272087656842895
 20
5.68375009482952
 30
0.0
 10
4.20598731884058
 20
5.684927536231885
 30
0.0
  0
SPLINE
  5
B9
330
1F
100
AcDbEntity
  8
0
  6
Continuous
 62
     7
370
    25
100
AcDbSpline
210
0.0
220
0.0
230
1.0
 70
     8
 71
     3
 72
    23
 73
    19
 74
     0
 42
0.000000001
 43
0.00000001
 40
0.0
 40
0.0
 40
0.0
 40
0.0
 40
0.0932148298282569
 40
0.1806868614012534
 40
0.2619644732932406
 40
0.3372466622310439
 40
0.4075661367546337
 40
0.47283893832218
 40
0.5337014507459452
 40
0.5911662626396434
 40
0.6459159546873694
 40
0.6976925814411674
 40
0.7477066289346973
 40
0.7967933878806226
 40
0.8461302366596154
 40
0.8957214292785659
 40
0.9466673610765604
 40
1.0
 40
1.0
 40
1.0
 40
1.0
 10
4.205987318840581
 20
5.684927536231886
 30
0.0
 10
4.172690979496601
 20
5.684418592092611
 30
0.0
 10
4.108149628476603
 20
5.683432058948441
 30
0.0
 10
4.014711488351748
 20
5.677366543591029
 30
0.0
 10
3.928194847217958
 20
5.666259451790833
 30
0.0
 10
3.848511804437906
 20
5.651237150276608
 30
0.0
 10
3.775442151498767
 20
5.632646828496528
 30
0.0
 10
3.709210768006986
 20
5.609028634810881
 30
0.0
 10
3.650182538643722
 20
5.580199515716703
 30
0.0
 10
3.597364291694616
 20
5.547808177401718
 30
0.0
 10
3.5515315003415
 20
5.511139496554159
 30
0.0
 10
3.511240710086895
 20
5.472210952505817
 30
0.0
 10
3.477602281492886
 20
5.429880399976537
 30
0.0
 10
3.450448934305253
 20
5.384155384799158
 30
0.0
 10
3.429199272515584
 20
5.335643846713622
 30
0.0
 10
3.412696302295543
 20
5.284548642443591
 30
0.0
 10
3.404320417424731
 20
5.230002437674707
 30
0.0
 10
3.402996136156552
 20
5.192763780941549
 30
0.0
 10
3.40231884057971
 20
5.17371829710145
 30
0.0
  0
SPLINE
  5
BA
330
1F
100
AcDbEntity
  8
0
  6
Continuous
 62
     7
370
    25
100
AcDbSpline
210
0.0
220
0.0
230
1.0
 70
     8
 71
     3
 72
    23
 73
    19
 74
     0
 42
0.000000001
 43
0.00000001
 40
0.0
 40
0.0
 40
0.0
 40
0.0
 40
0.0770503517509383
 40
0.1493594388219191
 40
0.2185836187797952
 40
0.2839564024936002
 40
0.3456252107525605
 40
0.404837116609525
 40
0.4624611233097244
 40
0.5188537635631905
 40
0.5742144388159472
 40
0.6294041558481556
 40
0.6852296760594083
 40
0.7421837895426046
 40
0.8016913425385975
 40
0.8640690824383144
 40
0.9297773095636144
 40
1.0
 40
1.0
 40
1.0
 40
1.0
 10
6.871408514492754
 20
4.213913043478262
 30
0.0
 10
6.904182754920781
 20
4.214623908443757
 30
0.0
 10
6.967714485106366
 20
4.216001895564021
 30
0.0
 10
7.06045099221869
 20
4.223725055620569
 30
0.0
 10
7.147483265969503
 20
4.237616515974564
 30
0.0
 10
7.228416757362665
 20
4.258512850800954
 30
0.0
 10
7.303599878080871
 20
4.283741725779848
 30
0.0
 10
7.373166860398578
 20
4.314559596608287
 30
0.0
 10
7.436759035419625
 20
4.352093161172633
 30
0.0
 10
7.494875668357473
 20
4.394874742974879
 30
0.0
 10
7.547116001536351
 20
4.443314655421705
 30
0.0
 10
7.591486253627044
 20
4.498715820580317
 30
0.0
 10
7.629884201090942
 20
4.559147432916953
 30
0.0
 10
7.661095556064185
 20
4.625704110032193
 30
0.0
 10
7.684456906278243
 20
4.698262279594958
 30
0.0
 10
7.701993074202021
 20
4.77620881073306
 30
0.0
 10
7.712420234858357
 20
4.86010496731904
 30
0.0
 10
7.713404543827857
 20
4.917951364750435
 30
0.0
 10
7.713913043478261
 20
4.947835144927536
 30
0.0
  0
SPLINE
  5
BB
330
1F
100
AcDbEntity
  8
0
  6
Continuous
 62
     7
370
    25
100
AcDbSpline
210
0.0
220
0.0
230
1.0
 70
     8
 71
     3
 72
    23
 73
    19
 74
     0
 42
0.000000001
 43
0.00000001
 40
0.0
 40
0.0
 40
0.0
 40
0.0
 40
0.0674331406427603
 40
0.1314297059509985
 40
0.1918377270821783
 40
0.2505421193721663
 40
0.3069762003605654
 40
0.3628624589821815
 40
0.4186862137300578
 40
0.4757049600195974
 40
0.533310013169716
 40
0.5919958181203872
 40
0.6522989986559108
 40
0.7151811791420096
 40
0.7813535318481647
 40
0.8503160211123202
 40
0.9233446084290945
 40
1.0
 40
1.0
 40
1.0
 40
1.0
 10
7.713913043478261
 20
4.947835144927536
 30
0.0
 10
7.713407050984795
 20
4.974818736409849
 30
0.0
 10
7.712420852744644
 20
5.027410762529617
 30
0.0
 10
7.701819741826597
 20
5.103574299826263
 30
0.0
 10
7.685125987276991
 20
5.17496786515653
 30
0.0
 10
7.662386680458858
 20
5.241529586136635
 30
0.0
 10
7.632908305642721
 20
5.303457596741958
 30
0.0
 10
7.596049145326911
 20
5.359904763048394
 30
0.0
 10
7.552976996955494
 20
5.41204922238921
 30
0.0
 10
7.502962119079212
 20
5.45866116012357
 30
0.0
 10
7.446987209732894
 20
5.4996913870044
 30
0.0
 10
7.386732483865941
 20
5.53678018872435
 30
0.0
 10
7.32025529712233
 20
5.566751133770839
 30
0.0
 10
7.248470290283104
 20
5.591047144864184
 30
0.0
 10
7.171773897673305
 20
5.611244221427694
 30
0.0
 10
7.089422495044329
 20
5.623954603678447
 30
0.0
 10
7.002401702493289
 20
5.63339192073163
 30
0.0
 10
6.94250414175068
 20
5.633928240977224
 30
0.0
 10
6.911829710144929
 20
5.634202898550726
 30
0.0
  0
LINE
  5
BC
330
1F
100
AcDbEntity
  8
0
  6
Continuous
 62
     7
370
    25
100
AcDbLine
 10
6.9118297101
 20
5.6342028986
 30
0.0
 11
6.4457971014
 21
5.6342028986
 31
0.0
  0
LINE
  5
BD
330
1F
100
AcDbEntity
  8
0
  6
Continuous
 62
     7
370
    25
100
AcDbLine
 10
6.4457971014
 20
5.6342028986
 30
0.0
 11
6.4457971014
 21
4.2139130435
 31
0.0
  0
LINE
  5
BE
330
1F
100
AcDbEntity
  8
0
  6
Continuous
 62
     7
370
    25
100
AcDbLine
 10
6.4457971014
 20
4.2139130435
 30
0.0
 11
6.8714085145
 21
4.2139130435
 31
0.0
  0
LINE
  5
BF
330
1F
100
AcDbEntity
  8
0
  6
Continuous
 62
     7
370
    25
100
AcDbLine
 10
12.4067346014
 20
3.7066666667
 30
0.0
 11
13.6074818841
 21
3.7066666667
 31
0.0
  0
LINE
  5
C0
330
1F
100
AcDbEntity
  8
0
  6
Continuous
 62
     7
370
    25
100
AcDbLine
 10
13.6074818841
 20
3.7066666667
 30
0.0
 11
13.0146376812
 21
5.6318251812
 31
0.0
  0
LINE
  5
C1
330
1F
100
AcDbEntity
  8
0
  6
Continuous
 62
     7
370
    25
100
AcDbLine
 10
13.0146376812
 20
5.6318251812
 30
0.0
 11
12.4067346014
 21
3.7066666667
 31
0.0
  0
LINE
  5
C2
330
1F
100
AcDbEntity
  8
0
  6
Continuous
 62
     7
370
    25
100
AcDbLine
 10
18.3922418478
 20
3.7066666667
 30
0.0
 11
19.5929891304
 21
3.7066666667
 31
0.0
  0
LINE
  5
C3
330
1F
100
AcDbEntity
  8
0
  6
Continuous
 62
     7
370
    25
100
AcDbLine
 10
19.5929891304
 20
3.7066666667
 30
0.0
 11
19.0001449275
 21
5.6318251812
 31
0.0
  0
LINE
  5
C4
330
1F
100
AcDbEntity
  8
0
  6
Continuous
 62
     7
370
    25
100
AcDbLine
 10
19.0001449275
 20
5.6318251812
 30
0.0
 11
18.3922418478
 21
3.7066666667
 31
0.0
  0
SPLINE
  5
C5
330
1F
100
AcDbEntity
  8
0
  6
Continuous
 62
     7
370
    25
100
AcDbSpline
210
0.0
220
0.0
230
1.0
 70
     8
 71
     3
 72
    23
 73
    19
 74
     0
 42
0.000000001
 43
0.00000001
 40
0.0
 40
0.0
 40
0.0
 40
0.0
 40
0.0751634739249805
 40
0.1468242857502609
 40
0.2147004565817477
 40
0.2804081309117747
 40
0.3432989837089108
 40
0.403724026895864
 40
0.4619008746627827
 40
0.5192753134656093
 40
0.5756421721734666
 40
0.6321926367705145
 40
0.6886003484344213
 40
0.746295093641184
 40
0.8063376960038239
 40
0.8679986302426627
 40
0.9323916198461174
 40
1.0
 40
1.0
 40
1.0
 40
1.0
 10
21.8272509057971
 20
4.467536231884059
 30
0.0
 10
21.85341661862326
 20
4.468003869251705
 30
0.0
 10
21.90452870666594
 20
4.468917351810576
 30
0.0
 10
21.97908852538228
 20
4.475692333333864
 30
0.0
 10
22.04933040008111
 20
4.489058387763579
 30
0.0
 10
22.11595127229706
 20
4.504864927322037
 30
0.0
 10
22.17798188589953
 20
4.527282772053721
 30
0.0
 10
22.23510478280539
 20
4.554404318265544
 30
0.0
 10
22.28828123525664
 20
4.585111583923267
 30
0.0
 10
22.33560510264909
 20
4.621980880848567
 30
0.0
 10
22.37899437642573
 20
4.662522943813241
 30
0.0
 10
22.41696913062237
 20
4.707783841570556
 30
0.0
 10
22.45000413593339
 20
4.757355498888836
 30
0.0
 10
22.47667537305853
 20
4.81191407035685
 30
0.0
 10
22.49945172221063
 20
4.870238954352896
 30
0.0
 10
22.51378656694416
 20
4.933570044340848
 30
0.0
 10
22.52388847679112
 20
5.000348939933798
 30
0.0
 10
22.52495896459409
 20
5.046337111167411
 30
0.0
 10
22.52550724637681
 20
5.069891304347826
 30
0.0
  0
SPLINE
  5
C6
330
1F
100
AcDbEntity
  8
0
  6
Continuous
 62
     7
370
    25
100
AcDbSpline
210
0.0
220
0.0
230
1.0
 70
     8
 71
     3
 72
    23
 73
    19
 74
     0
 42
0.000000001
 43
0.00000001
 40
0.0
 40
0.0
 40
0.0
 40
0.0
 40
0.0710054063752104
 40
0.137576215210735
 40
0.2003032527046567
 40
0.2604031925983386
 40
0.3177152079427064
 40
0.3738306474914118
 40
0.4294997037542654
 40
0.4848811865589577
 40
0.5408363383570456
 40
0.5986108345938554
 40
0.6580876144125944
 40
0.7194853567469314
 40
0.7841756976171746
 40
0.8520284023422333
 40
0.9241032974735306
 40
1.0
 40
1.0
 40
1.0
 40
1.0
 10
22.52550724637681
 20
5.069891304347826
 30
0.0
 10
22.525136163112
 20
5.092898771631909
 30
0.0
 10
22.52441717235191
 20
5.137476789449352
 30
0.0
 10
22.51645911807684
 20
5.202004947272574
 30
0.0
 10
22.50284154090337
 20
5.261916102897439
 30
0.0
 10
22.48470170228186
 20
5.317432450051359
 30
0.0
 10
22.46203790044269
 20
5.369077042590808
 30
0.0
 10
22.43198030106227
 20
5.415069930976846
 30
0.0
 10
22.39805355547494
 20
5.457386547241803
 30
0.0
 10
22.35886499082119
 20
5.49491885059908
 30
0.0
 10
22.31473086138186
 20
5.527569147898983
 30
0.0
 10
22.26623937620552
 20
5.55594641280816
 30
0.0
 10
22.21384009741783
 20
5.580685312830444
 30
0.0
 10
22.15702023356189
 20
5.600650540585723
 30
0.0
 10
22.09585304582408
 20
5.615246859362863
 30
0.0
 10
22.03050904691771
 20
5.626626993226997
 30
0.0
 10
21.96078092011397
 20
5.632677209591942
 30
0.0
 10
21.91285887358837
 20
5.633685653541238
 30
0.0
 10
21.88827898550725
 20
5.634202898550725
 30
0.0
  0
LINE
  5
C7
330
1F
100
AcDbEntity
  8
0
  6
Continuous
 62
     7
370
    25
100
AcDbLine
 10
21.8882789855
 20
5.6342028986
 30
0.0
 11
21.4602898551
 21
5.6342028986
 31
0.0
  0
LINE
  5
C8
330
1F
100
AcDbEntity
  8
0
  6
Continuous
 62
     7
370
    25
100
AcDbLine
 10
21.4602898551
 20
5.6342028986
 30
0.0
 11
21.4602898551
 21
4.4675362319
 31
0.0
  0
LINE
  5
C9
330
1F
100
AcDbEntity
  8
0
  6
Continuous
 62
     7
370
    25
100
AcDbLine
 10
21.4602898551
 20
4.4675362319
 30
0.0
 11
21.8272509058
 21
4.4675362319
 31
0.0
  0
SPLINE
  5
CA
330
1F
100
AcDbEntity
  8
0
  6
Continuous
 62
     7
370
    25
100
AcDbSpline
210
0.0
220
0.0
230
1.0
 70
     8
 71
     3
 72
    23
 73
    19
 74
     0
 42
0.000000001
 43
0.00000001
 40
0.0
 40
0.0
 40
0.0
 40
0.0
 40
0.0751634739249805
 40
0.1468242857502609
 40
0.2147004565817477
 40
0.2804081309117747
 40
0.3432989837089108
 40
0.403724026895864
 40
0.4619008746627827
 40
0.5192753134656093
 40
0.5756421721734666
 40
0.6321926367705145
 40
0.6886003484344213
 40
0.746295093641184
 40
0.8063376960038239
 40
0.8679986302426627
 40
0.9323916198461174
 40
1.0
 40
1.0
 40
1.0
 40
1.0
 10
21.8272509057971
 20
4.467536231884059
 30
0.0
 10
21.85341661862326
 20
4.468003869251705
 30
0.0
 10
21.90452870666594
 20
4.468917351810576
 30
0.0
 10
21.97908852538228
 20
4.475692333333864
 30
0.0
 10
22.04933040008111
 20
4.489058387763579
 30
0.0
 10
22.11595127229706
 20
4.504864927322037
 30
0.0
 10
22.17798188589953
 20
4.527282772053721
 30
0.0
 10
22.23510478280539
 20
4.554404318265544
 30
0.0
 10
22.28828123525664
 20
4.585111583923267
 30
0.0
 10
22.33560510264909
 20
4.621980880848567
 30
0.0
 10
22.37899437642573
 20
4.662522943813241
 30
0.0
 10
22.41696913062237
 20
4.707783841570556
 30
0.0
 10
22.45000413593339
 20
4.757355498888836
 30
0.0
 10
22.47667537305853
 20
4.81191407035685
 30
0.0
 10
22.49945172221063
 20
4.870238954352896
 30
0.0
 10
22.51378656694416
 20
4.933570044340848
 30
0.0
 10
22.52388847679112
 20
5.000348939933798
 30
0.0
 10
22.52495896459409
 20
5.046337111167411
 30
0.0
 10
22.52550724637681
 20
5.069891304347826
 30
0.0
  0
SPLINE
  5
CB
330
1F
100
AcDbEntity
  8
0
  6
Continuous
 62
     7
370
    25
100
AcDbSpline
210
0.0
220
0.0
230
1.0
 70
     8
 71
     3
 72
    23
 73
    19
 74
     0
 42
0.000000001
 43
0.00000001
 40
0.0
 40
0.0
 40
0.0
 40
0.0
 40
0.0710054063752104
 40
0.137576215210735
 40
0.2003032527046567
 40
0.2604031925983386
 40
0.3177152079427064
 40
0.3738306474914118
 40
0.4294997037542654
 40
0.4848811865589577
 40
0.5408363383570456
 40
0.5986108345938554
 40
0.6580876144125944
 40
0.7194853567469314
 40
0.7841756976171746
 40
0.8520284023422333
 40
0.9241032974735306
 40
1.0
 40
1.0
 40
1.0
 40
1.0
 10
22.52550724637681
 20
5.069891304347826
 30
0.0
 10
22.525136163112
 20
5.092898771631909
 30
0.0
 10
22.52441717235191
 20
5.137476789449352
 30
0.0
 10
22.51645911807684
 20
5.202004947272574
 30
0.0
 10
22.50284154090337
 20
5.261916102897439
 30
0.0
 10
22.48470170228186
 20
5.317432450051359
 30
0.0
 10
22.46203790044269
 20
5.369077042590808
 30
0.0
 10
22.43198030106227
 20
5.415069930976846
 30
0.0
 10
22.39805355547494
 20
5.457386547241803
 30
0.0
 10
22.35886499082119
 20
5.49491885059908
 30
0.0
 10
22.31473086138186
 20
5.527569147898983
 30
0.0
 10
22.26623937620552
 20
5.55594641280816
 30
0.0
 10
22.21384009741783
 20
5.580685312830444
 30
0.0
 10
22.15702023356189
 20
5.600650540585723
 30
0.0
 10
22.09585304582408
 20
5.615246859362863
 30
0.0
 10
22.03050904691771
 20
5.626626993226997
 30
0.0
 10
21.96078092011397
 20
5.632677209591942
 30
0.0
 10
21.91285887358837
 20
5.633685653541238
 30
0.0
 10
21.88827898550725
 20
5.634202898550725
 30
0.0
  0
SPLINE
  5
CC
330
1F
100
AcDbEntity
  8
0
  6
Continuous
 62
     7
370
    25
100
AcDbSpline
210
0.0
220
0.0
230
1.0
 70
     8
 71
     3
 72
    15
 73
    11
 74
     0
 42
0.000000001
 43
0.00000001
 40
0.0
 40
0.0
 40
0.0
 40
0.0
 40
0.1113525621013524
 40
0.2209309255260343
 40
0.3311251909260313
 40
0.443649188274154
 40
0.5643761418057452
 40
0.6964797497374366
 40
0.842107901972891
 40
0.9999999999999999
 40
0.9999999999999999
 40
0.9999999999999999
 40
0.9999999999999999
 10
22.30358695652174
 20
4.178247282608696
 30
0.0
 10
22.32689514491578
 20
4.169698354607065
 30
0.0
 10
22.37314014850665
 20
4.152736710078968
 30
0.0
 10
22.43672344713322
 20
4.114964981319464
 30
0.0
 10
22.49652591284532
 20
4.071060750601507
 30
0.0
 10
22.54882452909217
 20
4.014951284576557
 30
0.0
 10
22.5999586715383
 20
3.951752521599673
 30
0.0
 10
22.65064509778587
 20
3.878930821468974
 30
0.0
 10
22.70211639286843
 20
3.796752178064751
 30
0.0
 10
22.73452917633979
 20
3.73749330242796
 30
0.0
 10
22.75139039855072
 20
3.706666666666667
 30
0.0
  0
SPLINE
  5
CD
330
1F
100
AcDbEntity
  8
0
  6
Continuous
 62
     7
370
    25
100
AcDbSpline
210
0.0
220
0.0
230
1.0
 70
     8
 71
     3
 72
    23
 73
    19
 74
     0
 42
0.000000001
 43
0.00000001
 40
0.0
 40
0.0
 40
0.0
 40
0.0
 40
0.0645442690844636
 40
0.1269342817600561
 40
0.1887265654101717
 40
0.2498083354624793
 40
0.3098390008115379
 40
0.3692223034933693
 40
0.4286832737432363
 40
0.4883798617341064
 40
0.5482501456441765
 40
0.608765760472555
 40
0.6699858955025249
 40
0.7331387142663488
 40
0.7970632865401303
 40
0.8628148123436724
 40
0.930318249078275
 40
1.0
 40
1.0
 40
1.0
 40
1.0
 10
23.03275362318841
 20
5.103971920289855
 30
0.0
 10
23.03212022993272
 20
5.076470167369493
 30
0.0
 10
23.03087458381846
 20
5.022384571489236
 30
0.0
 10
23.02171893410791
 20
4.942416753925583
 30
0.0
 10
23.00785572532506
 20
4.864646936717076
 30
0.0
 10
22.98708340439363
 20
4.789435289963417
 30
0.0
 10
22.96088852810765
 20
4.717074992533369
 30
0.0
 10
22.92925274583804
 20
4.647623320937444
 30
0.0
 10
22.89086213980913
 20
4.581847098114334
 30
0.0
 10
22.84740583349945
 20
4.519061152754973
 30
0.0
 10
22.79796023171224
 20
4.460279444671696
 30
0.0
 10
22.74335211321592
 20
4.405303890940685
 30
0.0
 10
22.68227558370199
 20
4.355425285696469
 30
0.0
 10
22.61708962423591
 20
4.308559938672859
 30
0.0
 10
22.54601129997794
 20
4.267093548654414
 30
0.0
 10
22.46975889618805
 20
4.231662975432546
 30
0.0
 10
22.3887204409882
 20
4.201184090854736
 30
0.0
 10
22.33226360393803
 20
4.185973393751087
 30
0.0
 10
22.30358695652174
 20
4.178247282608696
 30
0.0
  0
SPLINE
  5
CE
330
1F
100
AcDbEntity
  8
0
  6
Continuous
 62
     7
370
    25
100
AcDbSpline
210
0.0
220
0.0
230
1.0
 70
     8
 71
     3
 72
    23
 73
    19
 74
     0
 42
0.000000001
 43
0.00000001
 40
0.0
 40
0.0
 40
0.0
 40
0.0
 40
0.0868773302242268
 40
0.1675014716055824
 40
0.2427475008353475
 40
0.312660341639302
 40
0.3779946034993811
 40
0.4397338850260997
 40
0.4985052936180564
 40
0.5543760393236223
 40
0.6088184466666484
 40
0.6619725906622711
 40
0.7152695750975286
 40
0.7692730547064732
 40
0.8244991354528809
 40
0.8807629267760523
 40
0.9393973148271851
 40
1.0
 40
1.0
 40
1.0
 40
1.0
 10
21.88352355072464
 20
6.04
 30
0.0
 10
21.93242989951405
 20
6.039366360632885
 30
0.0
 10
22.0267224539922
 20
6.038144689499748
 30
0.0
 10
22.1628719191112
 20
6.025266173406158
 30
0.0
 10
22.28837506936272
 20
6.004490515771261
 30
0.0
 10
22.40303840658529
 20
5.974095291003712
 30
0.0
 10
22.50763898106687
 20
5.93695456721963
 30
0.0
 10
22.60253525355171
 20
5.892570658892119
 30
0.0
 10
22.68774017517627
 20
5.841200810791586
 30
0.0
 10
22.76292822911377
 20
5.782587380177647
 30
0.0
 10
22.82939697107412
 20
5.718622510443241
 30
0.0
 10
22.8851769698746
 20
5.646973978241056
 30
0.0
 10
22.93247750836311
 20
5.569801301501762
 30
0.0
 10
22.96959918737949
 20
5.485927790946587
 30
0.0
 10
22.99774603135372
 20
5.397009504313222
 30
0.0
 10
23.01875607000577
 20
5.303467956981365
 30
0.0
 10
23.03048581554791
 20
5.205195091988964
 30
0.0
 10
23.03198941379615
 20
5.138082264194685
 30
0.0
 10
23.03275362318841
 20
5.103971920289856
 30
0.0
  0
SPLINE
  5
CF
330
1F
100
AcDbEntity
  8
0
  6
Continuous
 62
     7
370
    25
100
AcDbSpline
210
0.0
220
0.0
230
1.0
 70
     8
 71
     3
 72
    15
 73
    11
 74
     0
 42
0.000000001
 43
0.00000001
 40
0.0
 40
0.0
 40
0.0
 40
0.0
 40
0.167391854587001
 40
0.3105326767827669
 40
0.4353739153206078
 40
0.5489839509337432
 40
0.6555634230881738
 40
0.7631611935822884
 40
0.8757123458120044
 40
0.9999999999999999
 40
0.9999999999999999
 40
0.9999999999999999
 40
0.9999999999999999
 10
22.24572916666667
 20
3.632957427536232
 30
0.0
 10
22.22754341968901
 20
3.671706773326223
 30
0.0
 10
22.19380660076076
 20
3.743591621614898
 30
0.0
 10
22.13440571802641
 20
3.837982497470047
 30
0.0
 10
22.07288290067123
 20
3.914032892429853
 30
0.0
 10
22.00623972126084
 20
3.972499766669694
 30
0.0
 10
21.9335341514497
 20
4.01515403059822
 30
0.0
 10
21.85430558714174
 20
4.042750587709237
 30
0.0
 10
21.76740467821687
 20
4.058792394571243
 30
0.0
 10
21.70685309529562
 20
4.060724962468868
 30
0.0
 10
21.67507699275363
 20
4.061739130434783
 30
0.0
  0
SPLINE
  5
D0
330
1F
100
AcDbEntity
  8
0
  6
Continuous
 62
     7
370
    25
100
AcDbSpline
210
0.0
220
0.0
230
1.0
 70
     8
 71
     3
 72
    13
 73
     9
 74
     0
 42
0.000000001
 43
0.00000001
 40
0.0
 40
0.0
 40
0.0
 40
0.0
 40
0.2629342745513349
 40
0.5143647563736857
 40
0.637317787192644
 40
0.7589996230405908
 40
0.8797707883104336
 40
1.0
 40
1.0
 40
1.0
 40
1.0
 10
16.36959692028985
 20
6.09072463768116
 30
0.0
 10
16.44841839999899
 20
6.089304177645928
 30
0.0
 10
16.60261279430831
 20
6.086525404961356
 30
0.0
 10
16.79234814709556
 20
6.061949095069979
 30
0.0
 10
16.9385168041681
 20
6.034804236767787
 30
0.0
 10
17.04484114345603
 20
6.008450995821411
 30
0.0
 10
17.14896263513429
 20
5.97706332535299
 30
0.0
 10
17.21646809807736
 20
5.951368998028394
 30
0.0
 10
17.25014492753623
 20
5.938550724637683
 30
0.0
  0
SPLINE
  5
D1
330
1F
100
AcDbEntity
  8
0
  6
Continuous
 62
     7
370
    25
100
AcDbSpline
210
0.0
220
0.0
230
1.0
 70
     8
 71
     3
 72
    23
 73
    19
 74
     0
 42
0.000000001
 43
0.00000001
 40
0.0
 40
0.0
 40
0.0
 40
0.0
 40
0.0742252771806094
 40
0.1452246251349338
 40
0.2126888929148227
 40
0.2779431301589962
 40
0.3406829667072264
 40
0.4014210807773965
 40
0.4601092411464431
 40
0.5180957302352657
 40
0.5755133445412511
 40
0.6326683894261543
 40
0.6904145715872761
 40
0.7491594371175394
 40
0.8094359727667926
 40
0.8709469375778508
 40
0.9344445163449568
 40
1.0
 40
1.0
 40
1.0
 40
1.0
 10
14.6631884057971
 20
4.251163949275363
 30
0.0
 10
14.66473007013888
 20
4.321234261924291
 30
0.0
 10
14.66774639604056
 20
4.458329538278297
 30
0.0
 10
14.69066906793893
 20
4.658107726805698
 30
0.0
 10
14.72968437888604
 20
4.846637480034235
 30
0.0
 10
14.78323122866447
 20
5.02346699934647
 30
0.0
 10
14.85144205995454
 20
5.188384708861317
 30
0.0
 10
14.93342541426971
 20
5.339812267542857
 30
0.0
 10
15.0263523092064
 20
5.479490294153552
 30
0.0
 10
15.13309148248985
 20
5.604897419605875
 30
0.0
 10
15.25145423212464
 20
5.717268474848453
 30
0.0
 10
15.38175240005833
 20
5.815145369468722
 30
0.0
 10
15.52245268538732
 20
5.899863312246302
 30
0.0
 10
15.67485880976642
 20
5.968617981883745
 30
0.0
 10
15.83656696460089
 20
6.023121166550489
 30
0.0
 10
16.00709347929509
 20
6.063142198956918
 30
0.0
 10
16.18588501581555
 20
6.086052266130663
 30
0.0
 10
16.30771205966186
 20
6.089150711032085
 30
0.0
 10
16.36959692028985
 20
6.09072463768116
 30
0.0
  0
SPLINE
  5
D2
330
1F
100
AcDbEntity
  8
0
  6
Continuous
 62
     7
370
    25
100
AcDbSpline
210
0.0
220
0.0
230
1.0
 70
     8
 71
     3
 72
    23
 73
    19
 74
     0
 42
0.000000001
 43
0.00000001
 40
0.0
 40
0.0
 40
0.0
 40
0.0
 40
0.0664750066251898
 40
0.1298691366212019
 40
0.1909170876040545
 40
0.2499362502088421
 40
0.3075602225872331
 40
0.3634113090814329
 40
0.4192531151601883
 40
0.4749632826029119
 40
0.5313346986072298
 40
0.5892934796499242
 40
0.6494922147887102
 40
0.7123114536155499
 40
0.7785606252979981
 40
0.8481967065368431
 40
0.9217767357109492
 40
1.0
 40
1.0
 40
1.0
 40
1.0
 10
16.25229619565217
 20
2.489275362318841
 30
0.0
 10
16.19251688108584
 20
2.490549452598243
 30
0.0
 10
16.07572880742216
 20
2.493038583671163
 30
0.0
 10
15.9052569740952
 20
2.515274873577129
 30
0.0
 10
15.74372774817471
 20
2.549480568042576
 30
0.0
 10
15.59146134658221
 20
2.598767241981973
 30
0.0
 10
15.4495687615444
 20
2.662014428403332
 30
0.0
 10
15.31786916150512
 20
2.738920694424431
 30
0.0
 10
15.197107687768
 20
2.829274621609983
 30
0.0
 10
15.08771285377717
 20
2.933851987460507
 30
0.0
 10
14.99070225203554
 20
3.052357506866621
 30
0.0
 10
14.90421221773665
 20
3.183681128292799
 30
0.0
 10
14.83216648177109
 20
3.329870623660105
 30
0.0
 10
14.76945787772753
 20
3.488255203217831
 30
0.0
 10
14.72157047149833
 20
3.660689086440408
 30
0.0
 10
14.68809618823467
 20
3.846156272595161
 30
0.0
 10
14.66710929502691
 20
4.044350900419821
 30
0.0
 10
14.66452175077026
 20
4.18083471452466
 30
0.0
 10
14.6631884057971
 20
4.251163949275363
 30
0.0
  0
SPLINE
  5
D3
330
1F
100
AcDbEntity
  8
0
  6
Continuous
 62
     7
370
    25
100
AcDbSpline
210
0.0
220
0.0
230
1.0
 70
     8
 71
     3
 72
    15
 73
    11
 74
     0
 42
0.000000001
 43
0.00000001
 40
0.0
 40
0.0
 40
0.0
 40
0.0
 40
0.1215533759830856
 40
0.2468730645557066
 40
0.3746714108345274
 40
0.5031073905946045
 40
0.6316150506110909
 40
0.7582927467139837
 40
0.8812578156137546
 40
1.0
 40
1.0
 40
1.0
 40
1.0
 10
17.25014492753623
 20
2.704062500000001
 30
0.0
 10
17.21203046642842
 20
2.687209541267675
 30
0.0
 10
17.13462057351946
 20
2.652981437478445
 30
0.0
 10
17.01350945870112
 20
2.609920196496944
 30
0.0
 10
16.88800683713697
 20
2.572995057303351
 30
0.0
 10
16.75978204881107
 20
2.541941468529196
 30
0.0
 10
16.63035702942602
 20
2.518286462710381
 30
0.0
 10
16.50173208203556
 20
2.502094738425061
 30
0.0
 10
16.37586782676832
 20
2.490982207383325
 30
0.0
 10
16.29300416707158
 20
2.48983764509746
 30
0.0
 10
16.25229619565217
 20
2.489275362318841
 30
0.0
  0
SPLINE
  5
D4
330
1F
100
AcDbEntity
  8
0
  6
Continuous
 62
     7
370
    25
100
AcDbSpline
210
0.0
220
0.0
230
1.0
 70
     8
 71
     3
 72
    15
 73
    11
 74
     0
 42
0.000000001
 43
0.00000001
 40
0.0
 40
0.0
 40
0.0
 40
0.0
 40
0.118137707162631
 40
0.2453407520265897
 40
0.3782754322888174
 40
0.5101308509081702
 40
0.6425504600250244
 40
0.7708234786150033
 40
0.8918702657019147
 40
0.9999999999999999
 40
0.9999999999999999
 40
0.9999999999999999
 40
0.9999999999999999
 10
16.3014356884058
 20
2.895072463768117
 30
0.0
 10
16.31914301638458
 20
2.89545278806209
 30
0.0
 10
16.35591645026132
 20
2.896242620965896
 30
0.0
 10
16.41248456304692
 20
2.900414016519276
 30
0.0
 10
16.47095165853842
 20
2.906436110122765
 30
0.0
 10
16.52980139714959
 20
2.91556397943089
 30
0.0
 10
16.58783367655704
 20
2.925350484351948
 30
0.0
 10
16.64370185386099
 20
2.937869363598546
 30
0.0
 10
16.6952576524585
 20
2.952611824303417
 30
0.0
 10
16.72762638311895
 20
2.964136649183911
 30
0.0
 10
16.74289855072464
 20
2.96957427536232
 30
0.0
  0
SPLINE
  5
D5
330
1F
100
AcDbEntity
  8
0
  6
Continuous
 62
     7
370
    25
100
AcDbSpline
210
0.0
220
0.0
230
1.0
 70
     8
 71
     3
 72
    23
 73
    19
 74
     0
 42
0.000000001
 43
0.00000001
 40
0.0
 40
0.0
 40
0.0
 40
0.0
 40
0.0776967714840032
 40
0.1509619938714881
 40
0.2212415611529965
 40
0.2875559640017781
 40
0.3508859543665407
 40
0.4108762646889425
 40
0.468433815258095
 40
0.5243810448878409
 40
0.5788733757496392
 40
0.6330758261547901
 40
0.6878469618937095
 40
0.7440192785930991
 40
0.8024561126406576
 40
0.8641267637851895
 40
0.9296015450136523
 40
1.0
 40
1.0
 40
1.0
 40
1.0
 10
15.17043478260869
 20
4.287622282608696
 30
0.0
 10
15.17116933505997
 20
4.234499794922609
 30
0.0
 10
15.1725965436882
 20
4.131284738397945
 30
0.0
 10
15.18442113948215
 20
3.980352608152699
 30
0.0
 10
15.20520880693015
 20
3.838326192468956
 30
0.0
 10
15.23215311512989
 20
3.704202903639479
 30
0.0
 10
15.26932689981765
 20
3.579794763486337
 30
0.0
 10
15.31536499280774
 20
3.464836243737003
 30
0.0
 10
15.37011565970722
 20
3.35938336542998
 30
0.0
 10
15.43416488147371
 20
3.263691991909869
 30
0.0
 10
15.5086668070038
 20
3.17890388263766
 30
0.0
 10
15.5925118673029
 20
3.104558253848757
 30
0.0
 10
15.68609039516562
 20
3.04091828724336
 30
0.0
 10
15.78897782028226
 20
2.987080334930958
 30
0.0
 10
15.9027090609
 20
2.946294943606746
 30
0.0
 10
16.02612281981219
 20
2.915917398507468
 30
0.0
 10
16.16041200561192
 20
2.898834156330102
 30
0.0
 10
16.25330572288624
 20
2.896356291631045
 30
0.0
 10
16.3014356884058
 20
2.895072463768117
 30
0.0
  0
SPLINE
  5
D6
330
1F
100
AcDbEntity
  8
0
  6
Continuous
 62
     7
370
    25
100
AcDbSpline
210
0.0
220
0.0
230
1.0
 70
     8
 71
     3
 72
    23
 73
    19
 74
     0
 42
0.000000001
 43
0.00000001
 40
0.0
 40
0.0
 40
0.0
 40
0.0
 40
0.0670981242722626
 40
0.1309759062433328
 40
0.1922163869542914
 40
0.251769808319032
 40
0.30968471942135
 40
0.3665125233135307
 40
0.4235187108853607
 40
0.480372032427633
 40
0.5380321837013048
 40
0.5972742619708011
 40
0.6584306056386229
 40
0.722042167401611
 40
0.7879120315897787
 40
0.8559727583910858
 40
0.9264611901366913
 40
1.0
 40
1.0
 40
1.0
 40
1.0
 10
16.37276721014493
 20
5.684927536231885
 30
0.0
 10
16.32619395854978
 20
5.68380312870416
 30
0.0
 10
16.23528271623812
 20
5.681608279048858
 30
0.0
 10
16.10313342411704
 20
5.661793954285355
 30
0.0
 10
15.97836346887184
 20
5.631676224279996
 30
0.0
 10
15.86247147686651
 20
5.586724129002818
 30
0.0
 10
15.75487706376491
 20
5.531098619117346
 30
0.0
 10
15.65559580436893
 20
5.464764860692265
 30
0.0
 10
15.56520317155814
 20
5.387851723198338
 30
0.0
 10
15.48397773866669
 20
5.300617040601933
 30
0.0
 10
15.41104287606052
 20
5.204303763865975
 30
0.0
 10
15.34912172614321
 20
5.097187074783442
 30
0.0
 10
15.29367729363664
 20
4.982025167628377
 30
0.0
 10
15.24918854829427
 20
4.85728787307051
 30
0.0
 10
15.21295969186547
 20
4.724928878709248
 30
0.0
 10
15.18966657390938
 20
4.584920992286426
 30
0.0
 10
15.17246764726589
 20
4.438635229438796
 30
0.0
 10
15.17112190473318
 20
4.338665689007301
 30
0.0
 10
15.17043478260869
 20
4.287622282608696
 30
0.0
  0
SPLINE
  5
D7
330
1F
100
AcDbEntity
  8
0
  6
Continuous
 62
     7
370
    25
100
AcDbSpline
210
0.0
220
0.0
230
1.0
 70
     8
 71
     3
 72
    13
 73
     9
 74
     0
 42
0.000000001
 43
0.00000001
 40
0.0
 40
0.0
 40
0.0
 40
0.0
 40
0.243243211595846
 40
0.4850313067569414
 40
0.6072204693392954
 40
0.7333344144511423
 40
0.8647086109366648
 40
1.0
 40
1.0
 40
1.0
 40
1.0
 10
17.25014492753623
 20
5.482028985507248
 30
0.0
 10
17.18280678122611
 20
5.511978826673772
 30
0.0
 10
17.04853331523661
 20
5.571699344680651
 30
0.0
 10
16.8720875102137
 20
5.625300698403949
 30
0.0
 10
16.72689304077729
 20
5.656257150090616
 30
0.0
 10
16.61304511709137
 20
5.672665486089248
 30
0.0
 10
16.49450145644427
 20
5.683380690237568
 30
0.0
 10
16.41374073795672
 20
5.684406896072723
 30
0.0
 10
16.37276721014493
 20
5.684927536231886
 30
0.0
  0
SPLINE
  5
D8
330
1F
100
AcDbEntity
  8
0
  6
Continuous
 62
     7
370
    25
100
AcDbSpline
210
0.0
220
0.0
230
1.0
 70
     8
 71
     3
 72
    23
 73
    19
 74
     0
 42
0.000000001
 43
0.00000001
 40
0.0
 40
0.0
 40
0.0
 40
0.0
 40
0.0674331406427603
 40
0.1314297059509985
 40
0.1918377270821783
 40
0.2505421193721663
 40
0.3069762003605654
 40
0.3628624589821815
 40
0.4186862137300578
 40
0.4757049600195974
 40
0.533310013169716
 40
0.5919958181203872
 40
0.6522989986559108
 40
0.7151811791420096
 40
0.7813535318481647
 40
0.8503160211123202
 40
0.9233446084290945
 40
1.0
 40
1.0
 40
1.0
 40
1.0
 10
7.713913043478261
 20
4.947835144927536
 30
0.0
 10
7.713407050984795
 20
4.974818736409849
 30
0.0
 10
7.712420852744644
 20
5.027410762529617
 30
0.0
 10
7.701819741826597
 20
5.103574299826263
 30
0.0
 10
7.685125987276991
 20
5.17496786515653
 30
0.0
 10
7.662386680458858
 20
5.241529586136635
 30
0.0
 10
7.632908305642721
 20
5.303457596741958
 30
0.0
 10
7.596049145326911
 20
5.359904763048394
 30
0.0
 10
7.552976996955494
 20
5.41204922238921
 30
0.0
 10
7.502962119079212
 20
5.45866116012357
 30
0.0
 10
7.446987209732894
 20
5.4996913870044
 30
0.0
 10
7.386732483865941
 20
5.53678018872435
 30
0.0
 10
7.32025529712233
 20
5.566751133770839
 30
0.0
 10
7.248470290283104
 20
5.591047144864184
 30
0.0
 10
7.171773897673305
 20
5.611244221427694
 30
0.0
 10
7.089422495044329
 20
5.623954603678447
 30
0.0
 10
7.002401702493289
 20
5.63339192073163
 30
0.0
 10
6.94250414175068
 20
5.633928240977224
 30
0.0
 10
6.911829710144929
 20
5.634202898550726
 30
0.0
  0
SPLINE
  5
D9
330
1F
100
AcDbEntity
  8
0
  6
Continuous
 62
     7
370
    25
100
AcDbSpline
210
0.0
220
0.0
230
1.0
 70
     8
 71
     3
 72
    23
 73
    19
 74
     0
 42
0.000000001
 43
0.00000001
 40
0.0
 40
0.0
 40
0.0
 40
0.0
 40
0.0770503517509383
 40
0.1493594388219191
 40
0.2185836187797952
 40
0.2839564024936002
 40
0.3456252107525605
 40
0.404837116609525
 40
0.4624611233097244
 40
0.5188537635631905
 40
0.5742144388159472
 40
0.6294041558481556
 40
0.6852296760594083
 40
0.7421837895426046
 40
0.8016913425385975
 40
0.8640690824383144
 40
0.9297773095636144
 40
1.0
 40
1.0
 40
1.0
 40
1.0
 10
6.871408514492754
 20
4.213913043478262
 30
0.0
 10
6.904182754920781
 20
4.214623908443757
 30
0.0
 10
6.967714485106366
 20
4.216001895564021
 30
0.0
 10
7.06045099221869
 20
4.223725055620569
 30
0.0
 10
7.147483265969503
 20
4.237616515974564
 30
0.0
 10
7.228416757362665
 20
4.258512850800954
 30
0.0
 10
7.303599878080871
 20
4.283741725779848
 30
0.0
 10
7.373166860398578
 20
4.314559596608287
 30
0.0
 10
7.436759035419625
 20
4.352093161172633
 30
0.0
 10
7.494875668357473
 20
4.394874742974879
 30
0.0
 10
7.547116001536351
 20
4.443314655421705
 30
0.0
 10
7.591486253627044
 20
4.498715820580317
 30
0.0
 10
7.629884201090942
 20
4.559147432916953
 30
0.0
 10
7.661095556064185
 20
4.625704110032193
 30
0.0
 10
7.684456906278243
 20
4.698262279594958
 30
0.0
 10
7.701993074202021
 20
4.77620881073306
 30
0.0
 10
7.712420234858357
 20
4.86010496731904
 30
0.0
 10
7.713404543827857
 20
4.917951364750435
 30
0.0
 10
7.713913043478261
 20
4.947835144927536
 30
0.0
  0
SPLINE
  5
DA
330
1F
100
AcDbEntity
  8
0
  6
Continuous
 62
     7
370
    25
100
AcDbSpline
210
0.0
220
0.0
230
1.0
 70
     8
 71
     3
 72
    23
 73
    19
 74
     0
 42
0.000000001
 43
0.00000001
 40
0.0
 40
0.0
 40
0.0
 40
0.0
 40
0.0669434636680603
 40
0.1328765835338006
 40
0.1975396046007469
 40
0.2616996647946102
 40
0.3244492619823034
 40
0.3849716755008609
 40
0.4439044842103188
 40
0.5020224736059717
 40
0.5594089760195547
 40
0.6167307089437853
 40
0.6742615498852903
 40
0.7333583132703257
 40
0.7942180840124776
 40
0.8585663761369146
 40
0.9267666055968956
 40
0.9999999999999999
 40
0.9999999999999999
 40
0.9999999999999999
 40
0.9999999999999999
 10
6.917377717391305
 20
6.04
 30
0.0
 10
6.959941393887868
 20
6.039549216394415
 30
0.0
 10
7.044426354862477
 20
6.038654452631967
 30
0.0
 10
7.169516283602637
 20
6.02667632140509
 30
0.0
 10
7.292187032414683
 20
6.009802457998787
 30
0.0
 10
7.411439951791752
 20
5.984576676025973
 30
0.0
 10
7.525948329899234
 20
5.951481772560641
 30
0.0
 10
7.634735934707952
 20
5.911085501785531
 30
0.0
 10
7.734797955251908
 20
5.858396307186147
 30
0.0
 10
7.828759079644295
 20
5.799354905359714
 30
0.0
 10
7.915294548344647
 20
5.731198940978164
 30
0.0
 10
7.991423015288374
 20
5.652104843949905
 30
0.0
 10
8.058564760366906
 20
5.563992965994228
 30
0.0
 10
8.116715340291043
 20
5.467070450892172
 30
0.0
 10
8.164593236196799
 20
5.359695253839586
 30
0.0
 10
8.196770828341442
 20
5.240725181125915
 30
0.0
 10
8.218372446289774
 20
5.111360667360676
 30
0.0
 10
8.220208647470692
 20
5.021376048702461
 30
0.0
 10
8.221159420289855
 20
4.974782608695652
 30
0.0
  0
SPLINE
  5
DB
330
1F
100
AcDbEntity
  8
0
  6
Continuous
 62
     7
370
    25
100
AcDbSpline
210
0.0
220
0.0
230
1.0
 70
     8
 71
     3
 72
    23
 73
    19
 74
     0
 42
0.000000001
 43
0.00000001
 40
0.0
 40
0.0
 40
0.0
 40
0.0
 40
0.0530233331331384
 40
0.1065234186489517
 40
0.1605076250744138
 40
0.215386091204179
 40
0.2706150950692764
 40
0.3262163194498613
 40
0.3821928724616129
 40
0.4395768287592065
 40
0.4983717072949012
 40
0.5590293981464467
 40
0.6227696796968221
 40
0.689639748041376
 40
0.7600176609418141
 40
0.8345367752784698
 40
0.91455656086944
 40
1.0
 40
1.0
 40
1.0
 40
1.0
 10
8.221159420289855
 20
4.974782608695652
 30
0.0
 10
8.220302893675528
 20
4.939326782195995
 30
0.0
 10
8.21858213909956
 20
4.868096332758119
 30
0.0
 10
8.202696181679661
 20
4.761757409450123
 30
0.0
 10
8.17809686278017
 20
4.655988320856554
 30
0.0
 10
8.144304843452954
 20
4.551484574422109
 30
0.0
 10
8.099987867400275
 20
4.449790020363226
 30
0.0
 10
8.044608655992866
 20
4.352717352968819
 30
0.0
 10
7.976911397508767
 20
4.262090100276887
 30
0.0
 10
7.900331233472535
 20
4.175978831734939
 30
0.0
 10
7.811787002602377
 20
4.097275925691913
 30
0.0
 10
7.711702303779716
 20
4.026363923410364
 30
0.0
 10
7.600360609848822
 20
3.963232208937021
 30
0.0
 10
7.478096000265766
 20
3.907053241248761
 30
0.0
 10
7.343305740061689
 20
3.862967387094432
 30
0.0
 10
7.196363772520716
 20
3.830252459512774
 30
0.0
 10
7.036747940849139
 20
3.811546405828355
 30
0.0
 10
6.926144981886135
 20
3.809284147848357
 30
0.0
 10
6.869030797101449
 20
3.808115942028986
 30
0.0
  0
SPLINE
  5
DC
330
1F
100
AcDbEntity
  8
0
  6
Continuous
 62
     7
370
    25
100
AcDbSpline
210
0.0
220
0.0
230
1.0
 70
     8
 71
     3
 72
    33
 73
    29
 74
     0
 42
0.000000001
 43
0.00000001
 40
0.0
 40
0.0
 40
0.0
 40
0.0
 40
0.0256725206863523
 40
0.0501587058872914
 40
0.0740509760303597
 40
0.0980099637812124
 40
0.1224943380746901
 40
0.1477664898139559
 40
0.1742299562132473
 40
0.2020669083152298
 40
0.2611307647762912
 40
0.3251114021284827
 40
0.3920786018188583
 40
0.4608715495168585
 40
0.5302389718678849
 40
0.5993643493231736
 40
0.6336119318732998
 40
0.6670723493608384
 40
0.6997171253332983
 40
0.7320507316236042
 40
0.7640604492905878
 40
0.7957471657181093
 40
0.8278039463467535
 40
0.8596804052870166
 40
0.8922149749785889
 40
0.9262482604579598
 40
0.9618405384130072
 40
1.0
 40
1.0
 40
1.0
 40
1.0
 10
3.402318840579711
 20
5.173718297101451
 30
0.0
 10
3.403104951426895
 20
5.150904277793517
 30
0.0
 10
3.404640846684723
 20
5.106330482389701
 30
0.0
 10
3.420417447299959
 20
5.042107319556846
 30
0.0
 10
3.445104610765815
 20
4.982633271454557
 30
0.0
 10
3.479620603524553
 20
4.928089092776082
 30
0.0
 10
3.523588994179136
 20
4.879476368455955
 30
0.0
 10
3.571982194985278
 20
4.832189166199177
 30
0.0
 10
3.627038764286861
 20
4.78782674000094
 30
0.0
 10
3.710120581113895
 20
4.731025805321953
 30
0.0
 10
3.827631124338489
 20
4.66629560339219
 30
0.0
 10
3.982038875071127
 20
4.598381624894392
 30
0.0
 10
4.1474978713643
 20
4.534908953862519
 30
0.0
 10
4.315968101813994
 20
4.466096528757136
 30
0.0
 10
4.485400110245746
 20
4.394513757185968
 30
0.0
 10
4.623487313796762
 20
4.327921333356591
 30
0.0
 10
4.730656937758865
 20
4.270757170526663
 30
0.0
 10
4.805760309346219
 20
4.22283629322599
 30
0.0
 10
4.877071200484584
 20
4.172295366917471
 30
0.0
 10
4.942641639656362
 20
4.11645856442909
 30
0.0
 10
5.004175029274083
 20
4.05740237162524
 30
0.0
 10
5.059180937210614
 20
3.992488782076168
 30
0.0
 10
5.108248335058323
 20
3.923131390535181
 30
0.0
 10
5.150556911388279
 20
3.848632472569167
 30
0.0
 10
5.186744812220605
 20
3.76884064772431
 30
0.0
 10
5.210343138754681
 20
3.681054616100949
 30
0.0
 10
5.226224779214679
 20
3.586508637322167
 30
0.0
 10
5.22766211400779
 20
3.521012218155102
 30
0.0
 10
5.228405797101449
 20
3.487124094202899
 30
0.0
  0
SPLINE
  5
DD
330
1F
100
AcDbEntity
  8
0
  6
Continuous
 62
     7
370
    25
100
AcDbSpline
210
0.0
220
0.0
230
1.0
 70
     8
 71
     3
 72
    23
 73
    19
 74
     0
 42
0.000000001
 43
0.00000001
 40
0.0
 40
0.0
 40
0.0
 40
0.0
 40
0.0932148298282569
 40
0.1806868614012534
 40
0.2619644732932406
 40
0.3372466622310439
 40
0.4075661367546337
 40
0.47283893832218
 40
0.5337014507459452
 40
0.5911662626396434
 40
0.6459159546873694
 40
0.6976925814411674
 40
0.7477066289346973
 40
0.7967933878806226
 40
0.8461302366596154
 40
0.8957214292785659
 40
0.9466673610765604
 40
1.0
 40
1.0
 40
1.0
 40
1.0
 10
4.205987318840581
 20
5.684927536231886
 30
0.0
 10
4.172690979496601
 20
5.684418592092611
 30
0.0
 10
4.108149628476603
 20
5.683432058948441
 30
0.0
 10
4.014711488351748
 20
5.677366543591029
 30
0.0
 10
3.928194847217958
 20
5.666259451790833
 30
0.0
 10
3.848511804437906
 20
5.651237150276608
 30
0.0
 10
3.775442151498767
 20
5.632646828496528
 30
0.0
 10
3.709210768006986
 20
5.609028634810881
 30
0.0
 10
3.650182538643722
 20
5.580199515716703
 30
0.0
 10
3.597364291694616
 20
5.547808177401718
 30
0.0
 10
3.5515315003415
 20
5.511139496554159
 30
0.0
 10
3.511240710086895
 20
5.472210952505817
 30
0.0
 10
3.477602281492886
 20
5.429880399976537
 30
0.0
 10
3.450448934305253
 20
5.384155384799158
 30
0.0
 10
3.429199272515584
 20
5.335643846713622
 30
0.0
 10
3.412696302295543
 20
5.284548642443591
 30
0.0
 10
3.404320417424731
 20
5.230002437674707
 30
0.0
 10
3.402996136156552
 20
5.192763780941549
 30
0.0
 10
3.40231884057971
 20
5.17371829710145
 30
0.0
  0
SPLINE
  5
DE
330
1F
100
AcDbEntity
  8
0
  6
Continuous
 62
     7
370
    25
100
AcDbSpline
210
0.0
220
0.0
230
1.0
 70
     8
 71
     3
 72
    11
 73
     7
 74
     0
 42
0.000000001
 43
0.00000001
 40
0.0
 40
0.0
 40
0.0
 40
0.0
 40
0.2573529563125434
 40
0.5121533756446442
 40
0.7604253498391687
 40
1.0
 40
1.0
 40
1.0
 40
1.0
 10
5.025507246376812
 20
5.583478260869565
 30
0.0
 10
4.956183348632573
 20
5.59885384203986
 30
0.0
 10
4.818223137289836
 20
5.629452502772948
 30
0.0
 10
4.610592858652541
 20
5.659976163273374
 30
0.0
 10
4.406687985974252
 20
5.681352467145901
 30
0.0
 10
4.272087656842895
 20
5.68375009482952
 30
0.0
 10
4.20598731884058
 20
5.684927536231885
 30
0.0
  0
SPLINE
  5
DF
330
1F
100
AcDbEntity
  8
0
  6
Continuous
 62
     7
370
    25
100
AcDbSpline
210
0.0
220
0.0
230
1.0
 70
     8
 71
     3
 72
    15
 73
    11
 74
     0
 42
0.000000001
 43
0.00000001
 40
0.0
 40
0.0
 40
0.0
 40
0.0
 40
0.1142701537596724
 40
0.2374818937332309
 40
0.3667825227099943
 40
0.4974499238718484
 40
0.6284934605045641
 40
0.7580657031287314
 40
0.8832101758175104
 40
1.0
 40
1.0
 40
1.0
 40
1.0
 10
4.214705615942029
 20
6.09072463768116
 30
0.0
 10
4.245891921874092
 20
6.09052258381501
 30
0.0
 10
4.310704847626044
 20
6.090102665461957
 30
0.0
 10
4.410570232296107
 20
6.082923580451263
 30
0.0
 10
4.514731162612212
 20
6.073869385958491
 30
0.0
 10
4.620646371444364
 20
6.060899173269235
 30
0.0
 10
4.726384642799306
 20
6.046092082109551
 30
0.0
 10
4.83019245597464
 20
6.02863468681986
 30
0.0
 10
4.929843483854041
 20
6.010002366591131
 30
0.0
 10
4.994361991987867
 20
5.996023453798388
 30
0.0
 10
5.025507246376812
 20
5.989275362318842
 30
0.0
  0
SPLINE
  5
E0
330
1F
100
AcDbEntity
  8
0
  6
Continuous
 62
     7
370
    25
100
AcDbSpline
210
0.0
220
0.0
230
1.0
 70
     8
 71
     3
 72
    23
 73
    19
 74
     0
 42
0.000000001
 43
0.00000001
 40
0.0
 40
0.0
 40
0.0
 40
0.0
 40
0.0490041924112068
 40
0.0981287860772285
 40
0.1483408065141559
 40
0.1993311244468143
 40
0.2514311251501593
 40
0.3039184384587434
 40
0.3576539639019184
 40
0.4134156257106557
 40
0.4718781029063452
 40
0.5340407864346706
 40
0.5991317626037744
 40
0.6690269556689784
 40
0.7436231815207723
 40
0.8232983116630591
 40
0.9085750435657358
 40
1.0
 40
1.0
 40
1.0
 40
1.0
 10
2.895072463768117
 20
5.125371376811594
 30
0.0
 10
2.895981811811997
 20
5.155282443986172
 30
0.0
 10
2.897802742129937
 20
5.21517806857858
 30
0.0
 10
2.912844758575039
 20
5.30467627816254
 30
0.0
 10
2.936502024412643
 20
5.393392489211534
 30
0.0
 10
2.969807577805165
 20
5.481004027095815
 30
0.0
 10
3.013433636003648
 20
5.565483216339484
 30
0.0
 10
3.066527685937961
 20
5.646472931085954
 30
0.0
 10
3.131743266222999
 20
5.721041002900749
 30
0.0
 10
3.206524054125876
 20
5.791352689192354
 30
0.0
 10
3.293039000653046
 20
5.855683015484085
 30
0.0
 10
3.390206809232415
 20
5.914366786327906
 30
0.0
 10
3.499608282488991
 20
5.964728655384445
 30
0.0
 10
3.619149197257778
 20
6.010430745045285
 30
0.0
 10
3.751239491541171
 20
6.046708687405993
 30
0.0
 10
3.895224255138834
 20
6.072699080602246
 30
0.0
 10
4.051131665612222
 20
6.087367880251283
 30
0.0
 10
4.158930699221448
 20
6.089580061385697
 30
0.0
 10
4.214705615942029
 20
6.09072463768116
 30
0.0
  0
SPLINE
  5
E1
330
1F
100
AcDbEntity
  8
0
  6
Continuous
 62
     7
370
    25
100
AcDbSpline
210
0.0
220
0.0
230
1.0
 70
     8
 71
     3
 72
    31
 73
    27
 74
     0
 42
0.000000001
 43
0.00000001
 40
0.0
 40
0.0
 40
0.0
 40
0.0
 40
0.0258256538255639
 40
0.0504578958338161
 40
0.0742166573127717
 40
0.0982290280963108
 40
0.1226637407700313
 40
0.1480972252287767
 40
0.1745307863151892
 40
0.2023650248842672
 40
0.2613734926338954
 40
0.3254926934792199
 40
0.3929704860779522
 40
0.4621737744731246
 40
0.5319549641855017
 40
0.6012340733588548
 40
0.6690091205488553
 40
0.7340165240612893
 40
0.7660088723855784
 40
0.7974309064525215
 40
0.8290167352932186
 40
0.8607160091568903
 40
0.8930501583236603
 40
0.9269982063279169
 40
0.9622113949963529
 40
1.0
 40
1.0
 40
1.0
 40
1.0
 10
4.721159420289855
 20
3.460176630434783
 30
0.0
 10
4.720372424559915
 20
3.482992879703388
 30
0.0
 10
4.718834800427286
 20
3.527571031981337
 30
0.0
 10
4.703129020095455
 20
3.591525070885588
 30
0.0
 10
4.678573143285008
 20
3.650832352142981
 30
0.0
 10
4.642572979976416
 20
3.703725584074693
 30
0.0
 10
4.600266558058212
 20
3.75342327213494
 30
0.0
 10
4.550566152085089
 20
3.798962157503178
 30
0.0
 10
4.495703862582338
 20
3.842997308944966
 30
0.0
 10
4.412458885638893
 20
3.898373470891223
 30
0.0
 10
4.295976067785912
 20
3.963442676790563
 30
0.0
 10
4.140807767751207
 20
4.028512906254034
 30
0.0
 10
3.976261288226917
 20
4.093847352275758
 30
0.0
 10
3.807392377558645
 20
4.161991506165985
 30
0.0
 10
3.638566521862104
 20
4.234326795523063
 30
0.0
 10
3.472941707921376
 20
4.310958307209382
 30
0.0
 10
3.317604579875356
 20
4.398870559914196
 30
0.0
 10
3.200632959291545
 20
4.486103075204303
 30
0.0
 10
3.118908143117221
 20
4.564653123784355
 30
0.0
 10
3.063309584893541
 20
4.627547470851868
 30
0.0
 10
3.015603636139005
 20
4.696227572486275
 30
0.0
 10
2.971534045275228
 20
4.768264424421995
 30
0.0
 10
2.937055755301379
 20
4.847872950674166
 30
0.0
 10
2.913134645213975
 20
4.934305079501956
 30
0.0
 10
2.897259756708622
 20
5.027571643814766
 30
0.0
 10
2.895818509905183
 20
5.09201365336395
 30
0.0
 10
2.895072463768117
 20
5.125371376811594
 30
0.0
  0
SPLINE
  5
E2
330
1F
100
AcDbEntity
  8
0
  6
Continuous
 62
     7
370
    25
100
AcDbSpline
210
0.0
220
0.0
230
1.0
 70
     8
 71
     3
 72
    23
 73
    19
 74
     0
 42
0.000000001
 43
0.00000001
 40
0.0
 40
0.0
 40
0.0
 40
0.0
 40
0.0951996397634719
 40
0.1831123545132348
 40
0.2645714215887091
 40
0.3387021912264533
 40
0.4076315342336484
 40
0.4712902469640023
 40
0.5308879494258028
 40
0.5867384790482646
 40
0.6399314496353622
 40
0.6904093843946771
 40
0.7400424598140941
 40
0.7887116944454846
 40
0.8388404874970887
 40
0.8899553355923225
 40
0.9435076783472998
 40
0.9999999999999999
 40
0.9999999999999999
 40
0.9999999999999999
 40
0.9999999999999999
 10
3.865973731884059
 20
2.895072463768117
 30
0.0
 10
3.902977797720109
 20
2.895453386345701
 30
0.0
 10
3.974153504252584
 20
2.896186074307988
 30
0.0
 10
4.076714072828336
 20
2.903846152892918
 30
0.0
 10
4.170893396580795
 20
2.913832958244041
 30
0.0
 10
4.2564885916735
 20
2.931179209194696
 30
0.0
 10
4.334358709377605
 20
2.951144886537148
 30
0.0
 10
4.404743482979699
 20
2.976551906067451
 30
0.0
 10
4.467531865088437
 20
3.006787736248241
 30
0.0
 10
4.523819187904452
 20
3.040683462074284
 30
0.0
 10
4.57205865348894
 20
3.079846936593357
 30
0.0
 10
4.614351908393149
 20
3.122053382362162
 30
0.0
 10
4.648292377819954
 20
3.169136710999265
 30
0.0
 10
4.675862477168597
 20
3.219979550650582
 30
0.0
 10
4.696243595528819
 20
3.27475384252302
 30
0.0
 10
4.710397006159426
 20
3.333314956573349
 30
0.0
 10
4.719300387826959
 20
3.395443244496901
 30
0.0
 10
4.720528803257921
 20
3.43821790915262
 30
0.0
 10
4.721159420289855
 20
3.460176630434783
 30
0.0
  0
SPLINE
  5
E3
330
1F
100
AcDbEntity
  8
0
  6
Continuous
 62
     7
370
    25
100
AcDbSpline
210
0.0
220
0.0
230
1.0
 70
     8
 71
     3
 72
    15
 73
    11
 74
     0
 42
0.000000001
 43
0.00000001
 40
0.0
 40
0.0
 40
0.0
 40
0.0
 40
0.1052956016478606
 40
0.2151454387777328
 40
0.3294573921663204
 40
0.4489943541759996
 40
0.5746051271859375
 40
0.7088089384905125
 40
0.8502985144329712
 40
1.0
 40
1.0
 40
1.0
 40
1.0
 10
2.844347826086957
 20
3.047246376811595
 30
0.0
 10
2.87881995420445
 20
3.035435178603819
 30
0.0
 10
2.949255195690065
 20
3.011301925351692
 30
0.0
 10
3.059739434596836
 20
2.982995810274027
 30
0.0
 10
3.175633780736071
 20
2.956411992047163
 30
0.0
 10
3.298039502372349
 20
2.93420286723767
 30
0.0
 10
3.428149129455625
 20
2.916723198692369
 30
0.0
 10
3.566459069930102
 20
2.904429959878873
 30
0.0
 10
3.713433950897024
 20
2.896105078469689
 30
0.0
 10
3.81418008743884
 20
2.895423079708143
 30
0.0
 10
3.865973731884059
 20
2.895072463768117
 30
0.0
  0
SPLINE
  5
E4
330
1F
100
AcDbEntity
  8
0
  6
Continuous
 62
     7
370
    25
100
AcDbSpline
210
0.0
220
0.0
230
1.0
 70
     8
 71
     3
 72
    15
 73
    11
 74
     0
 42
0.000000001
 43
0.00000001
 40
0.0
 40
0.0
 40
0.0
 40
0.0
 40
0.1399661304129398
 40
0.2792621076018866
 40
0.4156245332667222
 40
0.5474391198315695
 40
0.6723049882329218
 40
0.791165442370022
 40
0.9009763104592271
 40
1.0
 40
1.0
 40
1.0
 40
1.0
 10
3.834270833333334
 20
2.489275362318841
 30
0.0
 10
3.787766914064421
 20
2.489796415313255
 30
0.0
 10
3.694981734760903
 20
2.4908360265175
 30
0.0
 10
3.557002565852943
 20
2.497209299486266
 30
0.0
 10
3.422014442564863
 20
2.507737719236273
 30
0.0
 10
3.292034493893846
 20
2.520398072477233
 30
0.0
 10
3.168047800673395
 20
2.534471705192761
 30
0.0
 10
3.051696920431051
 20
2.550748168973737
 30
0.0
 10
2.944449477448726
 20
2.569673871503724
 30
0.0
 10
2.876545874825502
 20
2.58395358459518
 30
0.0
 10
2.844347826086957
 20
2.590724637681161
 30
0.0
  0
SPLINE
  5
E5
330
1F
100
AcDbEntity
  8
0
  6
Continuous
 62
     7
370
    25
100
AcDbSpline
210
0.0
220
0.0
230
1.0
 70
     8
 71
     3
 72
    23
 73
    19
 74
     0
 42
0.000000001
 43
0.00000001
 40
0.0
 40
0.0
 40
0.0
 40
0.0
 40
0.0628526912825234
 40
0.1219331631184336
 40
0.1794211564000012
 40
0.2348645005231464
 40
0.2896129140320916
 40
0.3441997025754964
 40
0.3993279775826595
 40
0.4557820360412651
 40
0.5139683956912746
 40
0.5743422293330562
 40
0.6378184004706601
 40
0.7043129650887784
 40
0.773826808571891
 40
0.8462910642687033
 40
0.9216170320718458
 40
1.0
 40
1.0
 40
1.0
 40
1.0
 10
5.228405797101449
 20
3.487124094202899
 30
0.0
 10
5.227266764426973
 20
3.44662555220836
 30
0.0
 10
5.225057060211288
 20
3.36805906243178
 30
0.0
 10
5.205615496652912
 20
3.253735740186904
 30
0.0
 10
5.173193104945818
 20
3.147546701389493
 30
0.0
 10
5.128639573342217
 20
3.048765060548
 30
0.0
 10
5.071324609187029
 20
2.95918484642629
 30
0.0
 10
5.005857948545133
 20
2.875573601755205
 30
0.0
 10
4.927685272383029
 20
2.802028793703132
 30
0.0
 10
4.841083013750104
 20
2.735062810086688
 30
0.0
 10
4.744698490753456
 20
2.676128100118316
 30
0.0
 10
4.638285069338438
 20
2.626529155325853
 30
0.0
 10
4.523301541626552
 20
2.583680145306968
 30
0.0
 10
4.399428447930374
 20
2.549130878742634
 30
0.0
 10
4.267773395244292
 20
2.522273493523032
 30
0.0
 10
4.128986235091038
 20
2.503823355623796
 30
0.0
 10
3.983764261840948
 20
2.491370795965708
 30
0.0
 10
3.884758327414022
 20
2.48998304020742
 30
0.0
 10
3.834270833333334
 20
2.489275362318842
 30
0.0
  0
ENDSEC
  0
SECTION
  2
OBJECTS
  0
DICTIONARY
  5
C
330
0
100
AcDbDictionary
281
     1
  3
ACAD_GROUP
350
D
  3
ACAD_LAYOUT
350
1A
  3
ACAD_MLINESTYLE
350
17
  3
ACAD_PLOTSETTINGS
350
19
  3
ACAD_PLOTSTYLENAME
350
E
  3
ACAD_SCALELIST
350
47
  0
DICTIONARY
  5
D
102
{ACAD_REACTORS
330
C
102
}
330
C
100
AcDbDictionary
281
     1
  0
DICTIONARY
  5
1A
102
{ACAD_REACTORS
330
C
102
}
330
C
100
AcDbDictionary
281
     1
  3
Layout1
350
1E
  3
Layout2
350
26
  3
Model
350
22
  0
DICTIONARY
  5
17
102
{ACAD_REACTORS
330
C
102
}
330
C
100
AcDbDictionary
281
     1
  3
Standard
350
18
  0
DICTIONARY
  5
19
102
{ACAD_REACTORS
330
C
102
}
330
C
100
AcDbDictionary
281
     1
  0
ACDBDICTIONARYWDFLT
  5
E
102
{ACAD_REACTORS
330
C
102
}
330
C
100
AcDbDictionary
281
     1
  3
Normal
350
F
100
AcDbDictionaryWithDefault
340
F
  0
DICTIONARY
  5
47
102
{ACAD_REACTORS
330
C
102
}
330
C
100
AcDbDictionary
281
     1
  3
A0
350
48
  3
A1
350
49
  3
A2
350
4A
  3
A3
350
4B
  3
A4
350
4C
  3
A5
350
4D
  3
A6
350
4E
  3
A7
350
4F
  3
A8
350
50
  3
A9
350
51
  3
B0
350
52
  3
B1
350
53
  3
B2
350
54
  3
B3
350
55
  3
B4
350
56
  3
B5
350
57
  3
B6
350
58
  3
B7
350
59
  3
B8
350
5A
  3
B9
350
5B
  3
C0
350
5C
  3
C1
350
5D
  3
C2
350
5E
  3
C3
350
5F
  3
C4
350
60
  3
C5
350
61
  3
C6
350
62
  3
C7
350
63
  3
C8
350
64
  3
C9
350
65
  3
D0
350
66
  3
D1
350
67
  3
D2
350
68
  0
LAYOUT
  5
1E
102
{ACAD_REACTORS
330
1A
102
}
330
1A
100
AcDbPlotSettings
  1

  2
none_device
  4

  6

 40
0.0
 41
0.0
 42
0.0
 43
0.0
 44
0.0
 45
0.0
 46
0.0
 47
0.0
 48
0.0
 49
0.0
140
0.0
141
0.0
142
1.0
143
1.0
 70
   688
 72
     1
 73
     0
 74
     5
  7

 75
    16
147
1.0
148
0.0
149
0.0
100
AcDbLayout
  1
Layout1
 70
     1
 71
     1
 10
0.0
 20
0.0
 11
420.0
 21
297.0
 12
0.0
 22
0.0
 32
0.0
 14
1.0000000000E+20
 24
1.0000000000E+20
 34
1.0000000000E+20
 15
-1.0000000000E+20
 25
-1.0000000000E+20
 35
-1.0000000000E+20
146
0.0
 13
0.0
 23
0.0
 33
0.0
 16
1.0
 26
0.0
 36
0.0
 17
0.0
 27
1.0
 37
0.0
 76
     0
330
1B
  0
LAYOUT
  5
26
102
{ACAD_REACTORS
330
1A
102
}
330
1A
100
AcDbPlotSettings
  1

  2
none_device
  4

  6

 40
0.0
 41
0.0
 42
0.0
 43
0.0
 44
0.0
 45
0.0
 46
0.0
 47
0.0
 48
0.0
 49
0.0
140
0.0
141
0.0
142
1.0
143
1.0
 70
   688
 72
     1
 73
     0
 74
     5
  7

 75
    16
147
1.0
148
0.0
149
0.0
100
AcDbLayout
  1
Layout2
 70
     1
 71
     2
 10
0.0
 20
0.0
 11
0.0
 21
0.0
 12
0.0
 22
0.0
 32
0.0
 14
0.0
 24
0.0
 34
0.0
 15
0.0
 25
0.0
 35
0.0
146
0.0
 13
0.0
 23
0.0
 33
0.0
 16
1.0
 26
0.0
 36
0.0
 17
0.0
 27
1.0
 37
0.0
 76
     0
330
23
  0
LAYOUT
  5
22
102
{ACAD_REACTORS
330
1A
102
}
330
1A
100
AcDbPlotSettings
  1

  2
none_device
  4
ANSI_A_(11.00_x_8.50_Inches)
  6

 40
6.35
 41
19.05
 42
6.35000508
 43
19.05000254
 44
279.4
 45
215.9
 46
26.47949746
 47
-17.97050127
 48
0.0
 49
0.0
140
0.0
141
0.0
142
0.0421017346
143
1.0
 70
  1696
 72
     0
 73
     0
 74
     0
  7

 75
     0
147
0.0179189148
148
-1300.4909072572
149
0.0
100
AcDbLayout
  1
Model
 70
     1
 71
     0
 10
0.0
 20
0.0
 11
420.0
 21
297.0
 12
0.0
 22
0.0
 32
0.0
 14
0.0
 24
0.0
 34
0.0
 15
199.873
 25
199.873
 35
0.0
146
0.0
 13
0.0
 23
0.0
 33
0.0
 16
1.0
 26
0.0
 36
0.0
 17
0.0
 27
1.0
 37
0.0
 76
     0
330
1F
331
29
  0
MLINESTYLE
  5
18
102
{ACAD_REACTORS
330
17
102
}
330
17
100
AcDbMlineStyle
  2
Standard
 70
     0
  3

 62
   256
 51
90.0
 52
90.0
 71
     2
 49
0.5
 62
   256
  6
BYLAYER
 49
-0.5
 62
   256
  6
BYLAYER
  0
ACDBPLACEHOLDER
  5
F
102
{ACAD_REACTORS
330
E
102
}
330
E
  0
SCALE
  5
48
102
{ACAD_REACTORS
330
47
102
}
330
47
100
AcDbScale
 70
     0
300
1:1
140
1.0
141
1.0
290
     1
  0
SCALE
  5
49
102
{ACAD_REACTORS
330
47
102
}
330
47
100
AcDbScale
 70
     0
300
1:2
140
1.0
141
2.0
290
     0
  0
SCALE
  5
4A
102
{ACAD_REACTORS
330
47
102
}
330
47
100
AcDbScale
 70
     0
300
1:4
140
1.0
141
4.0
290
     0
  0
SCALE
  5
4B
102
{ACAD_REACTORS
330
47
102
}
330
47
100
AcDbScale
 70
     0
300
1:5
140
1.0
141
5.0
290
     0
  0
SCALE
  5
4C
102
{ACAD_REACTORS
330
47
102
}
330
47
100
AcDbScale
 70
     0
300
1:8
140
1.0
141
8.0
290
     0
  0
SCALE
  5
4D
102
{ACAD_REACTORS
330
47
102
}
330
47
100
AcDbScale
 70
     0
300
1:10
140
1.0
141
10.0
290
     0
  0
SCALE
  5
4E
102
{ACAD_REACTORS
330
47
102
}
330
47
100
AcDbScale
 70
     0
300
1:16
140
1.0
141
16.0
290
     0
  0
SCALE
  5
4F
102
{ACAD_REACTORS
330
47
102
}
330
47
100
AcDbScale
 70
     0
300
1:20
140
1.0
141
20.0
290
     0
  0
SCALE
  5
50
102
{ACAD_REACTORS
330
47
102
}
330
47
100
AcDbScale
 70
     0
300
1:30
140
1.0
141
30.0
290
     0
  0
SCALE
  5
51
102
{ACAD_REACTORS
330
47
102
}
330
47
100
AcDbScale
 70
     0
300
1:40
140
1.0
141
40.0
290
     0
  0
SCALE
  5
52
102
{ACAD_REACTORS
330
47
102
}
330
47
100
AcDbScale
 70
     0
300
1:50
140
1.0
141
50.0
290
     0
  0
SCALE
  5
53
102
{ACAD_REACTORS
330
47
102
}
330
47
100
AcDbScale
 70
     0
300
1:100
140
1.0
141
100.0
290
     0
  0
SCALE
  5
54
102
{ACAD_REACTORS
330
47
102
}
330
47
100
AcDbScale
 70
     0
300
2:1
140
2.0
141
1.0
290
     0
  0
SCALE
  5
55
102
{ACAD_REACTORS
330
47
102
}
330
47
100
AcDbScale
 70
     0
300
4:1
140
4.0
141
1.0
290
     0
  0
SCALE
  5
56
102
{ACAD_REACTORS
330
47
102
}
330
47
100
AcDbScale
 70
     0
300
8:1
140
8.0
141
1.0
290
     0
  0
SCALE
  5
57
102
{ACAD_REACTORS
330
47
102
}
330
47
100
AcDbScale
 70
     0
300
10:1
140
10.0
141
1.0
290
     0
  0
SCALE
  5
58
102
{ACAD_REACTORS
330
47
102
}
330
47
100
AcDbScale
 70
     0
300
100:1
140
100.0
141
1.0
290
     0
  0
SCALE
  5
59
102
{ACAD_REACTORS
330
47
102
}
330
47
100
AcDbScale
 70
     0
300
1/128" = 1'-0"
140
0.0078125
141
12.0
290
     0
  0
SCALE
  5
5A
102
{ACAD_REACTORS
330
47
102
}
330
47
100
AcDbScale
 70
     0
300
1/64" = 1'-0"
140
0.015625
141
12.0
290
     0
  0
SCALE
  5
5B
102
{ACAD_REACTORS
330
47
102
}
330
47
100
AcDbScale
 70
     0
300
1/32" = 1'-0"
140
0.03125
141
12.0
290
     0
  0
SCALE
  5
5C
102
{ACAD_REACTORS
330
47
102
}
330
47
100
AcDbScale
 70
     0
300
1/16" = 1'-0"
140
0.0625
141
12.0
290
     0
  0
SCALE
  5
5D
102
{ACAD_REACTORS
330
47
102
}
330
47
100
AcDbScale
 70
     0
300
3/32" = 1'-0"
140
0.09375
141
12.0
290
     0
  0
SCALE
  5
5E
102
{ACAD_REACTORS
330
47
102
}
330
47
100
AcDbScale
 70
     0
300
1/8" = 1'-0"
140
0.125
141
12.0
290
     0
  0
SCALE
  5
5F
102
{ACAD_REACTORS
330
47
102
}
330
47
100
AcDbScale
 70
     0
300
3/16" = 1'-0"
140
0.1875
141
12.0
290
     0
  0
SCALE
  5
60
102
{ACAD_REACTORS
330
47
102
}
330
47
100
AcDbScale
 70
     0
300
1/4" = 1'-0"
140
0.25
141
12.0
290
     0
  0
SCALE
  5
61
102
{ACAD_REACTORS
330
47
102
}
330
47
100
AcDbScale
 70
     0
300
3/8" = 1'-0"
140
0.375
141
12.0
290
     0
  0
SCALE
  5
62
102
{ACAD_REACTORS
330
47
102
}
330
47
100
AcDbScale
 70
     0
300
1/2" = 1'-0"
140
0.5
141
12.0
290
     0
  0
SCALE
  5
63
102
{ACAD_REACTORS
330
47
102
}
330
47
100
AcDbScale
 70
     0
300
3/4" = 1'-0"
140
0.75
141
12.0
290
     0
  0
SCALE
  5
64
102
{ACAD_REACTORS
330
47
102
}
330
47
100
AcDbScale
 70
     0
300
1" = 1'-0"
140
1.0
141
12.0
290
     0
  0
SCALE
  5
65
102
{ACAD_REACTORS
330
47
102
}
330
47
100
AcDbScale
 70
     0
300
1-1/2" = 1'-0"
140
1.5
141
12.0
290
     0
  0
SCALE
  5
66
102
{ACAD_REACTORS
330
47
102
}
330
47
100
AcDbScale
 70
     0
300
3" = 1'-0"
140
3.0
141
12.0
290
     0
  0
SCALE
  5
67
102
{ACAD_REACTORS
330
47
102
}
330
47
100
AcDbScale
 70
     0
300
6" = 1'-0"
140
6.0
141
12.0
290
     0
  0
SCALE
  5
68
102
{ACAD_REACTORS
330
47
102
}
330
47
100
AcDbScale
 70
     0
300
1'-0" = 1'-0"
140
12.0
141
12.0
290
     0
  0
ENDSEC
  0
EOF
