  0
SECTION
  2
HEADER
  9
$ACADVER
  1
AC1015
  9
$ACADMAINTVER
 70
     6
  9
$DWGCODEPAGE
  3
ANSI_1252
  9
$INSBASE
 10
0.0
 20
0.0
 30
0.0
  9
$EXTMIN
 10
0.0
 20
0.0
 30
0.0
  9
$EXTMAX
 10
7.869015748
 20
7.869015748
 30
0.0
  9
$LIMMIN
 10
0.0
 20
0.0
  9
$LIMMAX
 10
12.0
 20
9.0
  9
$ORTHOMODE
 70
     0
  9
$REGENMODE
 70
     1
  9
$FILLMODE
 70
     1
  9
$QTEXTMODE
 70
     0
  9
$MIRRTEXT
 70
     1
  9
$LTSCALE
 40
1.0
  9
$ATTMODE
 70
     1
  9
$TEXTSIZE
 40
0.1377952756
  9
$TRACEWID
 40
0.05
  9
$TEXTSTYLE
  7
Standard
  9
$CLAYER
  8
0
  9
$CELTYPE
  6
ByLayer
  9
$CECOLOR
 62
   256
  9
$CELTSCALE
 40
1.0
  9
$DISPSILH
 70
     0
  9
$DIMSCALE
 40
1.0
  9
$DIMASZ
 40
0.14
  9
$DIMEXO
 40
0.0393700787
  9
$DIMDLI
 40
0.38
  9
$DIMRND
 40
0.0
  9
$DIMDLE
 40
0.0
  9
$DIMEXE
 40
0.0393700787
  9
$DIMTP
 40
0.0
  9
$DIMTM
 40
0.0
  9
$DIMTXT
 40
0.1377952756
  9
$DIMCEN
 40
0.09
  9
$DIMTSZ
 40
0.0
  9
$DIMTOL
 70
     0
  9
$DIMLIM
 70
     0
  9
$DIMTIH
 70
     1
  9
$DIMTOH
 70
     1
  9
$DIMSE1
 70
     0
  9
$DIMSE2
 70
     0
  9
$DIMTAD
 70
     1
  9
$DIMZIN
 70
     1
  9
$DIMBLK
  1

  9
$DIMASO
 70
     1
  9
$DIMSHO
 70
     1
  9
$DIMPOST
  1

  9
$DIMAPOST
  1

  9
$DIMALT
 70
     0
  9
$DIMALTD
 70
     2
  9
$DIMALTF
 40
25.4
  9
$DIMLFAC
 40
1.0
  9
$DIMTOFL
 70
     0
  9
$DIMTVP
 40
0.0
  9
$DIMTIX
 70
     0
  9
$DIMSOXD
 70
     0
  9
$DIMSAH
 70
     0
  9
$DIMBLK1
  1

  9
$DIMBLK2
  1

  9
$DIMSTYLE
  2
Standard
  9
$DIMCLRD
 70
     0
  9
$DIMCLRE
 70
     0
  9
$DIMCLRT
 70
     0
  9
$DIMTFAC
 40
1.0
  9
$DIMGAP
 40
0.06
  9
$DIMJUST
 70
     0
  9
$DIMSD1
 70
     0
  9
$DIMSD2
 70
     0
  9
$DIMTOLJ
 70
     1
  9
$DIMTZIN
 70
     1
  9
$DIMALTZ
 70
     0
  9
$DIMALTTZ
 70
     0
  9
$DIMUPT
 70
     0
  9
$DIMDEC
 70
     2
  9
$DIMTDEC
 70
     2
  9
$DIMALTU
 70
     2
  9
$DIMALTTD
 70
     2
  9
$DIMTXSTY
  7
Standard
  9
$DIMAUNIT
 70
     0
  9
$DIMADEC
 70
     2
  9
$DIMALTRND
 40
0.0
  9
$DIMAZIN
 70
     0
  9
$DIMDSEP
 70
    46
  9
$DIMATFIT
 70
     3
  9
$DIMFRAC
 70
     0
  9
$DIMLDRBLK
  1

  9
$DIMLUNIT
 70
     2
  9
$DIMLWD
 70
    -2
  9
$DIMLWE
 70
    -2
  9
$DIMTMOVE
 70
     0
  9
$LUNITS
 70
     2
  9
$LUPREC
 70
     2
  9
$SKETCHINC
 40
0.1
  9
$FILLETRAD
 40
0.5
  9
$AUNITS
 70
     0
  9
$AUPREC
 70
     2
  9
$MENU
  1
.
  9
$ELEVATION
 40
0.0
  9
$PELEVATION
 40
0.0
  9
$THICKNESS
 40
0.0
  9
$LIMCHECK
 70
     0
  9
$CHAMFERA
 40
0.0
  9
$CHAMFERB
 40
0.0
  9
$CHAMFERC
 40
0.0
  9
$CHAMFERD
 40
0.0
  9
$SKPOLY
 70
     0
  9
$TDCREATE
 40
2458304.832938125
  9
$TDUCREATE
 40
2458304.999604792
  9
$TDUPDATE
 40
2458304.832967245
  9
$TDUUPDATE
 40
2458304.999633912
  9
$TDINDWG
 40
0.0000000116
  9
$TDUSRTIMER
 40
0.0000000116
  9
$USRTIMER
 70
     1
  9
$ANGBASE
 50
0.0
  9
$ANGDIR
 70
     0
  9
$PDMODE
 70
     0
  9
$PDSIZE
 40
-1.0
  9
$PLINEWID
 40
0.0
  9
$SPLFRAME
 70
     0
  9
$SPLINETYPE
 70
     6
  9
$SPLINESEGS
 70
     8
  9
$HANDSEED
  5
105
  9
$SURFTAB1
 70
     6
  9
$SURFTAB2
 70
     6
  9
$SURFTYPE
 70
     6
  9
$SURFU
 70
     6
  9
$SURFV
 70
     6
  9
$UCSBASE
  2

  9
$UCSNAME
  2

  9
$UCSORG
 10
0.0
 20
0.0
 30
0.0
  9
$UCSXDIR
 10
1.0
 20
0.0
 30
0.0
  9
$UCSYDIR
 10
0.0
 20
1.0
 30
0.0
  9
$UCSORTHOREF
  2

  9
$UCSORTHOVIEW
 70
     0
  9
$UCSORGTOP
 10
0.0
 20
0.0
 30
0.0
  9
$UCSORGBOTTOM
 10
0.0
 20
0.0
 30
0.0
  9
$UCSORGLEFT
 10
0.0
 20
0.0
 30
0.0
  9
$UCSORGRIGHT
 10
0.0
 20
0.0
 30
0.0
  9
$UCSORGFRONT
 10
0.0
 20
0.0
 30
0.0
  9
$UCSORGBACK
 10
0.0
 20
0.0
 30
0.0
  9
$PUCSBASE
  2

  9
$PUCSNAME
  2

  9
$PUCSORG
 10
0.0
 20
0.0
 30
0.0
  9
$PUCSXDIR
 10
1.0
 20
0.0
 30
0.0
  9
$PUCSYDIR
 10
0.0
 20
1.0
 30
0.0
  9
$PUCSORTHOREF
  2

  9
$PUCSORTHOVIEW
 70
     0
  9
$PUCSORGTOP
 10
0.0
 20
0.0
 30
0.0
  9
$PUCSORGBOTTOM
 10
0.0
 20
0.0
 30
0.0
  9
$PUCSORGLEFT
 10
0.0
 20
0.0
 30
0.0
  9
$PUCSORGRIGHT
 10
0.0
 20
0.0
 30
0.0
  9
$PUCSORGFRONT
 10
0.0
 20
0.0
 30
0.0
  9
$PUCSORGBACK
 10
0.0
 20
0.0
 30
0.0
  9
$USERI1
 70
     0
  9
$USERI2
 70
     0
  9
$USERI3
 70
     0
  9
$USERI4
 70
     0
  9
$USERI5
 70
     0
  9
$USERR1
 40
0.0
  9
$USERR2
 40
0.0
  9
$USERR3
 40
0.0
  9
$USERR4
 40
0.0
  9
$USERR5
 40
0.0
  9
$WORLDVIEW
 70
     1
  9
$SHADEDGE
 70
     3
  9
$SHADEDIF
 70
    70
  9
$TILEMODE
 70
     1
  9
$MAXACTVP
 70
    64
  9
$PINSBASE
 10
0.0
 20
0.0
 30
0.0
  9
$PLIMCHECK
 70
     0
  9
$PEXTMIN
 10
1.0000000000E+20
 20
1.0000000000E+20
 30
1.0000000000E+20
  9
$PEXTMAX
 10
-1.0000000000E+20
 20
-1.0000000000E+20
 30
-1.0000000000E+20
  9
$PLIMMIN
 10
0.0
 20
0.0
  9
$PLIMMAX
 10
12.0
 20
9.0
  9
$UNITMODE
 70
     0
  9
$VISRETAIN
 70
     1
  9
$PLINEGEN
 70
     0
  9
$PSLTSCALE
 70
     1
  9
$TREEDEPTH
 70
  3020
  9
$CMLSTYLE
  2
Standard
  9
$CMLJUST
 70
     0
  9
$CMLSCALE
 40
1.0
  9
$PROXYGRAPHICS
 70
     1
  9
$MEASUREMENT
 70
     0
  9
$CELWEIGHT
370
    -1
  9
$ENDCAPS
280
     0
  9
$JOINSTYLE
280
     0
  9
$LWDISPLAY
290
     1
  9
$INSUNITS
 70
     1
  9
$HYPERLINKBASE
  1

  9
$STYLESHEET
  1

  9
$XEDIT
290
     1
  9
$CEPSNTYPE
380
     0
  9
$PSTYLEMODE
290
     1
  9
$FINGERPRINTGUID
  2
{848EE7C8-BA2C-4417-BE35-AC3B0EFD4A72}
  9
$VERSIONGUID
  2
{FAEB1C32-E019-11D5-929B-00C0DF256EC4}
  9
$EXTNAMES
290
     1
  9
$PSVPSCALE
 40
0.0
  9
$OLESTARTUP
290
     0
  0
ENDSEC
  0
SECTION
  2
CLASSES
  0
CLASS
  1
ACDBDICTIONARYWDFLT
  2
AcDbDictionaryWithDefault
  3
ObjectDBX Classes
 90
        0
280
     0
281
     0
  0
CLASS
  1
VISUALSTYLE
  2
AcDbVisualStyle
  3
ObjectDBX Classes
 90
     4095
280
     0
281
     0
  0
CLASS
  1
MATERIAL
  2
AcDbMaterial
  3
ObjectDBX Classes
 90
     1153
280
     0
281
     0
  0
CLASS
  1
SCALE
  2
AcDbScale
  3
ObjectDBX Classes
 90
     1153
280
     0
281
     0
  0
CLASS
  1
TABLESTYLE
  2
AcDbTableStyle
  3
ObjectDBX Classes
 90
     4095
280
     0
281
     0
  0
CLASS
  1
MLEADERSTYLE
  2
AcDbMLeaderStyle
  3
ACDB_MLEADERSTYLE_CLASS
 90
     4095
280
     0
281
     0
  0
CLASS
  1
SUN
  2
AcDbSun
  3
SCENEOE
 90
     1153
280
     0
281
     0
  0
CLASS
  1
ACDBPLACEHOLDER
  2
AcDbPlaceHolder
  3
ObjectDBX Classes
 90
        0
280
     0
281
     0
  0
CLASS
  1
LAYOUT
  2
AcDbLayout
  3
ObjectDBX Classes
 90
        0
280
     0
281
     0
  0
ENDSEC
  0
SECTION
  2
TABLES
  0
TABLE
  2
VPORT
  5
8
330
0
100
AcDbSymbolTable
 70
     1
  0
VPORT
  5
29
330
8
100
AcDbSymbolTableRecord
100
AcDbViewportTableRecord
  2
*Active
 70
     0
 10
0.0
 20
0.0
 11
1.0
 21
1.0
 12
3.934507874
 22
3.934507874
 13
0.0
 23
0.0
 14
0.5
 24
0.5
 15
0.5
 25
0.5
 16
0.0
 26
0.0
 36
1.0
 17
0.0
 27
0.0
 37
0.0
 40
8.026396063
 41
1.0
 42
50.0
 43
0.0
 44
0.0
 50
0.0
 51
0.0
 71
     0
 72
   100
 73
     1
 74
     3
 75
     0
 76
     0
 77
     0
 78
     0
281
     0
 65
     1
110
0.0
120
0.0
130
0.0
111
1.0
121
0.0
131
0.0
112
0.0
122
1.0
132
0.0
 79
     0
146
0.0
  0
ENDTAB
  0
TABLE
  2
LTYPE
  5
5
330
0
100
AcDbSymbolTable
 70
     6
  0
LTYPE
  5
14
330
5
100
AcDbSymbolTableRecord
100
AcDbLinetypeTableRecord
  2
ByBlock
 70
     0
  3

 72
    65
 73
     0
 40
0.0
  0
LTYPE
  5
15
330
5
100
AcDbSymbolTableRecord
100
AcDbLinetypeTableRecord
  2
ByLayer
 70
     0
  3

 72
    65
 73
     0
 40
0.0
  0
LTYPE
  5
16
330
5
100
AcDbSymbolTableRecord
100
AcDbLinetypeTableRecord
  2
Continuous
 70
     0
  3
Solid line
 72
    65
 73
     0
 40
0.0
  0
LTYPE
  5
6E
330
5
100
AcDbSymbolTableRecord
100
AcDbLinetypeTableRecord
  2
HIDDEN
 70
     0
  3
Hidden __ __ __ __ __ __ __ __ __ __ __ __ __ __
 72
    65
 73
     2
 40
0.075
 49
0.05
 74
     0
 49
-0.025
 74
     0
  0
LTYPE
  5
6F
330
5
100
AcDbSymbolTableRecord
100
AcDbLinetypeTableRecord
  2
PHANTOM
 70
     0
  3
Phantom ______  __  __  ______  __  __  ______
 72
    65
 73
     6
 40
0.5
 49
0.25
 74
     0
 49
-0.05
 74
     0
 49
0.05
 74
     0
 49
-0.05
 74
     0
 49
0.05
 74
     0
 49
-0.05
 74
     0
  0
LTYPE
  5
70
330
5
100
AcDbSymbolTableRecord
100
AcDbLinetypeTableRecord
  2
CENTER
 70
     0
  3
Center ____ _ ____ _ ____ _ ____ _ ____ _ ____
 72
    65
 73
     4
 40
0.4
 49
0.25
 74
     0
 49
-0.05
 74
     0
 49
0.05
 74
     0
 49
-0.05
 74
     0
  0
LTYPE
  5
71
330
5
100
AcDbSymbolTableRecord
100
AcDbLinetypeTableRecord
  2
CENTERX2
 70
     0
  3
Center (2x) ________  __  ________  __  _____
 72
    65
 73
     4
 40
0.8
 49
0.5
 74
     0
 49
-0.1
 74
     0
 49
0.1
 74
     0
 49
-0.1
 74
     0
  0
LTYPE
  5
72
330
5
100
AcDbSymbolTableRecord
100
AcDbLinetypeTableRecord
  2
DOT2
 70
     0
  3
Dot (.5x) ........................................
 72
    65
 73
     2
 40
0.025
 49
0.0
 74
     0
 49
-0.025
 74
     0
  0
ENDTAB
  0
TABLE
  2
LAYER
  5
2
330
0
100
AcDbSymbolTable
 70
     1
  0
LAYER
  5
10
330
2
100
AcDbSymbolTableRecord
100
AcDbLayerTableRecord
  2
0
 70
     0
 62
     7
  6
Continuous
370
    -3
390
F
  0
ENDTAB
  0
TABLE
  2
STYLE
  5
3
330
0
100
AcDbSymbolTable
 70
     1
  0
STYLE
  5
11
330
3
100
AcDbSymbolTableRecord
100
AcDbTextStyleTableRecord
  2
Standard
 70
     0
 40
0.0
 41
1.0
 50
0.0
 71
     0
 42
0.1377952756
  3
txt
  4

  0
ENDTAB
  0
TABLE
  2
VIEW
  5
6
330
0
100
AcDbSymbolTable
 70
     0
  0
ENDTAB
  0
TABLE
  2
UCS
  5
7
330
0
100
AcDbSymbolTable
 70
     0
  0
ENDTAB
  0
TABLE
  2
APPID
  5
9
330
0
100
AcDbSymbolTable
 70
     1
  0
APPID
  5
12
330
9
100
AcDbSymbolTableRecord
100
AcDbRegAppTableRecord
  2
ACAD
 70
     0
  0
ENDTAB
  0
TABLE
  2
DIMSTYLE
  5
A
330
0
100
AcDbSymbolTable
 70
     1
100
AcDbDimStyleTable
  0
DIMSTYLE
105
27
330
A
100
AcDbSymbolTableRecord
100
AcDbDimStyleTableRecord
  2
Standard
 70
     0
178
     0
340
11
  0
ENDTAB
  0
TABLE
  2
BLOCK_RECORD
  5
1
330
0
100
AcDbSymbolTable
 70
     1
  0
BLOCK_RECORD
  5
1F
330
1
100
AcDbSymbolTableRecord
100
AcDbBlockTableRecord
  2
*Model_Space
340
22
  0
BLOCK_RECORD
  5
1B
330
1
100
AcDbSymbolTableRecord
100
AcDbBlockTableRecord
  2
*Paper_Space
340
1E
  0
BLOCK_RECORD
  5
23
330
1
100
AcDbSymbolTableRecord
100
AcDbBlockTableRecord
  2
*Paper_Space0
340
26
  0
ENDTAB
  0
ENDSEC
  0
SECTION
  2
BLOCKS
  0
BLOCK
  5
20
330
1F
100
AcDbEntity
  8
0
100
AcDbBlockBegin
  2
*Model_Space
 70
     0
 10
0.0
 20
0.0
 30
0.0
  3
*Model_Space
  1

  0
ENDBLK
  5
21
330
1F
100
AcDbEntity
  8
0
100
AcDbBlockEnd
  0
BLOCK
  5
1C
330
1B
100
AcDbEntity
 67
     1
  8
0
100
AcDbBlockBegin
  2
*Paper_Space
 70
     0
 10
0.0
 20
0.0
 30
0.0
  3
*Paper_Space
  1

  0
ENDBLK
  5
1D
330
1B
100
AcDbEntity
 67
     1
  8
0
100
AcDbBlockEnd
  0
BLOCK
  5
24
330
23
100
AcDbEntity
  8
0
100
AcDbBlockBegin
  2
*Paper_Space0
 70
     0
 10
0.0
 20
0.0
 30
0.0
  3
*Paper_Space0
  1

  0
ENDBLK
  5
25
330
23
100
AcDbEntity
  8
0
100
AcDbBlockEnd
  0
ENDSEC
  0
SECTION
  2
ENTITIES
  0
SPLINE
  5
73
330
1F
100
AcDbEntity
  8
0
  6
Continuous
 62
     7
370
    25
100
AcDbSpline
210
0.0
220
0.0
230
1.0
 70
     8
 71
     3
 72
    11
 73
     7
 74
     0
 42
0.000000001
 43
0.00000001
 40
0.0
 40
0.0
 40
0.0
 40
0.0
 40
0.2573529563125434
 40
0.5121533756446442
 40
0.7604253498391687
 40
1.0
 40
1.0
 40
1.0
 40
1.0
 10
0.1978546159990869
 20
0.2198219787743923
 30
0.0
 10
0.1951253286863217
 20
0.2204273166157423
 30
0.0
 10
0.1896938243027497
 20
0.2216319882981478
 30
0.0
 10
0.1815194038839581
 20
0.2228337072154873
 30
0.0
 10
0.1734916529911123
 20
0.2236752939821223
 30
0.0
 10
0.1681924274347596
 20
0.2237696887728158
 30
0.0
 10
0.1655900519228572
 20
0.2238160447335388
 30
0.0
  0
SPLINE
  5
A3
330
1F
100
AcDbEntity
  8
0
  6
Continuous
 62
     7
370
    25
100
AcDbSpline
210
0.0
220
0.0
230
1.0
 70
     8
 71
     3
 72
    31
 73
    27
 74
     0
 42
0.000000001
 43
0.00000001
 40
0.0
 40
0.0
 40
0.0
 40
0.0
 40
0.0258256538255639
 40
0.0504578958338161
 40
0.0742166573127717
 40
0.0982290280963108
 40
0.1226637407700313
 40
0.1480972252287767
 40
0.1745307863151892
 40
0.2023650248842672
 40
0.2613734926338954
 40
0.3254926934792199
 40
0.3929704860779522
 40
0.4621737744731246
 40
0.5319549641855017
 40
0.6012340733588548
 40
0.6690091205488553
 40
0.7340165240612893
 40
0.7660088723855784
 40
0.7974309064525215
 40
0.8290167352932186
 40
0.8607160091568903
 40
0.8930501583236603
 40
0.9269982063279169
 40
0.9622113949963529
 40
1.0
 40
1.0
 40
1.0
 40
1.0
 10
0.1858724181216481
 20
0.1362274263950702
 30
0.0
 10
0.185841434037792
 20
0.1371257039253301
 30
0.0
 10
0.1857808976546175
 20
0.138880749290604
 30
0.0
 10
0.1851625598462777
 20
0.1413986248380152
 30
0.0
 10
0.1841957930427171
 20
0.1437335571709838
 30
0.0
 10
0.1827784637785991
 20
0.1458159678769566
 30
0.0
 10
0.1811128566164652
 20
0.1477725697690923
 30
0.0
 10
0.1791561477198853
 20
0.1495654392717788
 30
0.0
 10
0.176996215062297
 20
0.1512991066513767
 30
0.0
 10
0.1737188537653106
 20
0.1534792705075286
 30
0.0
 10
0.1691329160545633
 20
0.1560410502673451
 30
0.0
 10
0.1630239278642207
 20
0.1586028703249617
 30
0.0
 10
0.156545720008934
 20
0.161175092609282
 30
0.0
 10
0.1498973376991592
 20
0.1638579333136216
 30
0.0
 10
0.143250650467012
 20
0.1667057793513016
 30
0.0
 10
0.1367299885008418
 20
0.1697227680003696
 30
0.0
 10
0.1306143535383999
 20
0.1731838803115826
 30
0.0
 10
0.1260091716256513
 20
0.1766182313072562
 30
0.0
 10
0.1227916591778432
 20
0.179710752904896
 30
0.0
 10
0.1206027395627377
 20
0.1821869083012546
 30
0.0
 10
0.118724552603898
 20
0.1848908493104834
 30
0.0
 10
0.1169895293415443
 20
0.1877269458433855
 30
0.0
 10
0.1156321163504482
 20
0.1908611397903216
 30
0.0
 10
0.114690340362755
 20
0.1942639795079512
 30
0.0
 10
0.1140653447523081
 20
0.1979358914887701
 30
0.0
 10
0.1140086027521725
 20
0.2004729784788958
 30
0.0
 10
0.1139792308570126
 20
0.201786274677622
 30
0.0
  0
SPLINE
  5
A4
330
1F
100
AcDbEntity
  8
0
  6
Continuous
 62
     7
370
    25
100
AcDbSpline
210
0.0
220
0.0
230
1.0
 70
     8
 71
     3
 72
    15
 73
    11
 74
     0
 42
0.000000001
 43
0.00000001
 40
0.0
 40
0.0
 40
0.0
 40
0.0
 40
0.118137707162631
 40
0.2453407520265897
 40
0.3782754322888174
 40
0.5101308509081702
 40
0.6425504600250244
 40
0.7708234786150033
 40
0.8918702657019147
 40
0.9999999999999999
 40
0.9999999999999999
 40
0.9999999999999999
 40
0.9999999999999999
 10
0.6417888066301494
 20
0.1139792308570126
 30
0.0
 10
0.642485945526952
 20
0.1139942042544132
 30
0.0
 10
0.6439337185142249
 20
0.1140253000380274
 30
0.0
 10
0.6461608095687764
 20
0.1141895282094203
 30
0.0
 10
0.6484626637219849
 20
0.1144266185087705
 30
0.0
 10
0.6507795825649444
 20
0.1147859834421612
 30
0.0
 10
0.6530643179746868
 20
0.1151712789114943
 30
0.0
 10
0.6552638525142124
 20
0.1156641481731712
 30
0.0
 10
0.6572936083645077
 20
0.1162445600119453
 30
0.0
 10
0.6585679678393287
 20
0.116698293274957
 30
0.0
 10
0.6591692342804976
 20
0.1169123730457606
 30
0.0
  0
SPLINE
  5
A5
330
1F
100
AcDbEntity
  8
0
  6
Continuous
 62
     7
370
    25
100
AcDbSpline
210
0.0
220
0.0
230
1.0
 70
     8
 71
     3
 72
    15
 73
    11
 74
     0
 42
0.000000001
 43
0.00000001
 40
0.0
 40
0.0
 40
0.0
 40
0.0
 40
0.1142701537596724
 40
0.2374818937332309
 40
0.3667825227099943
 40
0.4974499238718484
 40
0.6284934605045641
 40
0.7580657031287314
 40
0.8832101758175104
 40
1.0
 40
1.0
 40
1.0
 40
1.0
 10
0.1659332919662218
 20
0.2397923085701246
 30
0.0
 10
0.1671610992863816
 20
0.2397843536935044
 30
0.0
 10
0.1697127892766156
 20
0.2397678214748805
 30
0.0
 10
0.1736444973344922
 20
0.2394851803327268
 30
0.0
 10
0.1777453213626854
 20
0.239128715982618
 30
0.0
 10
0.1819152114741877
 20
0.2386180776877654
 30
0.0
 10
0.1860781355432795
 20
0.238035121342896
 30
0.0
 10
0.1901650573218364
 20
0.2373478223157424
 30
0.0
 10
0.194088326135986
 20
0.2366142664012257
 30
0.0
 10
0.1966284248814122
 20
0.2360639155038737
 30
0.0
 10
0.1978546159990869
 20
0.2357982426109781
 30
0.0
  0
SPLINE
  5
A6
330
1F
100
AcDbEntity
  8
0
  6
Continuous
 62
     7
370
    25
100
AcDbSpline
210
0.0
220
0.0
230
1.0
 70
     8
 71
     3
 72
    23
 73
    19
 74
     0
 42
0.000000001
 43
0.00000001
 40
0.0
 40
0.0
 40
0.0
 40
0.0
 40
0.0530233331331384
 40
0.1065234186489517
 40
0.1605076250744138
 40
0.215386091204179
 40
0.2706150950692764
 40
0.3262163194498613
 40
0.3821928724616129
 40
0.4395768287592065
 40
0.4983717072949012
 40
0.5590293981464467
 40
0.6227696796968221
 40
0.689639748041376
 40
0.7600176609418141
 40
0.8345367752784698
 40
0.91455656086944
 40
1.0
 40
1.0
 40
1.0
 40
1.0
 10
0.3236676937121988
 20
0.1958575830195136
 30
0.0
 10
0.3236339721919497
 20
0.1944616843384251
 30
0.0
 10
0.3235662259488013
 20
0.1916573359353589
 30
0.0
 10
0.3229407945543176
 20
0.1874707641515795
 30
0.0
 10
0.3219723174322899
 20
0.183306626805376
 30
0.0
 10
0.3206419229705886
 20
0.1791923060796108
 30
0.0
 10
0.3188971601338693
 20
0.1751885834788669
 30
0.0
 10
0.3167168762201916
 20
0.171366824920032
 30
0.0
 10
0.3140516298231797
 20
0.1677988228455465
 30
0.0
 10
0.311036662735139
 20
0.1644086154226355
 30
0.0
 10
0.3075506693937944
 20
0.1613100758146421
 30
0.0
 10
0.303610326920461
 20
0.1585182647011956
 30
0.0
 10
0.2992267956633395
 20
0.1560327641313786
 30
0.0
 10
0.2944132283569198
 20
0.1538209937499514
 30
0.0
 10
0.289106525199279
 20
0.1520853302005683
 30
0.0
 10
0.2833214083669571
 20
0.1507973409256995
 30
0.0
 10
0.2770373205058718
 20
0.1500608821192266
 30
0.0
 10
0.2726828733026038
 20
0.1499718168444234
 30
0.0
 10
0.2704342833504509
 20
0.1499258244893301
 30
0.0
  0
SPLINE
  5
A7
330
1F
100
AcDbEntity
  8
0
  6
Continuous
 62
     7
370
    25
100
AcDbSpline
210
0.0
220
0.0
230
1.0
 70
     8
 71
     3
 72
    23
 73
    19
 74
     0
 42
0.000000001
 43
0.00000001
 40
0.0
 40
0.0
 40
0.0
 40
0.0
 40
0.0628526912825234
 40
0.1219331631184336
 40
0.1794211564000012
 40
0.2348645005231464
 40
0.2896129140320916
 40
0.3441997025754964
 40
0.3993279775826595
 40
0.4557820360412651
 40
0.5139683956912746
 40
0.5743422293330562
 40
0.6378184004706601
 40
0.7043129650887784
 40
0.773826808571891
 40
0.8462910642687033
 40
0.9216170320718458
 40
1.0
 40
1.0
 40
1.0
 40
1.0
 10
0.2058427479173798
 20
0.1372883501654686
 30
0.0
 10
0.2057979041112982
 20
0.1356939193782818
 30
0.0
 10
0.2057109078823341
 20
0.13260075048944
 30
0.0
 10
0.2049454919942091
 20
0.1280998322908231
 30
0.0
 10
0.2036690198797568
 20
0.1239191614720271
 30
0.0
 10
0.2019149438323705
 20
0.120030120494016
 30
0.0
 10
0.1996584491805914
 20
0.116503340410484
 30
0.0
 10
0.1970810215962651
 20
0.1132115591242208
 30
0.0
 10
0.1940033571804344
 20
0.1103160942402807
 30
0.0
 10
0.1905938194389807
 20
0.1076796381923893
 30
0.0
 10
0.18679915317927
 20
0.1053593740204062
 30
0.0
 10
0.1826096483991513
 20
0.1034066596584981
 30
0.0
 10
0.1780827378593133
 20
0.1017196907601168
 30
0.0
 10
0.1732058444067075
 20
0.1003594834150642
 30
0.0
 10
0.1680225746159172
 20
0.0993021060442139
 30
0.0
 10
0.1625585131925608
 20
0.0985757226623542
 30
0.0
 10
0.1568411126709036
 20
0.0980854644080985
 30
0.0
 10
0.1529432412367728
 20
0.0980308283546229
 30
0.0
 10
0.1509555446194226
 20
0.0980029670204268
 30
0.0
  0
SPLINE
  5
A8
330
1F
100
AcDbEntity
  8
0
  6
Continuous
 62
     7
370
    25
100
AcDbSpline
210
0.0
220
0.0
230
1.0
 70
     8
 71
     3
 72
    23
 73
    19
 74
     0
 42
0.000000001
 43
0.00000001
 40
0.0
 40
0.0
 40
0.0
 40
0.0
 40
0.0932148298282569
 40
0.1806868614012534
 40
0.2619644732932406
 40
0.3372466622310439
 40
0.4075661367546337
 40
0.47283893832218
 40
0.5337014507459452
 40
0.5911662626396434
 40
0.6459159546873694
 40
0.6976925814411674
 40
0.7477066289346973
 40
0.7967933878806226
 40
0.8461302366596154
 40
0.8957214292785659
 40
0.9466673610765604
 40
1.0
 40
1.0
 40
1.0
 40
1.0
 10
0.1655900519228578
 20
0.2238160447335388
 30
0.0
 10
0.1642791724211261
 20
0.2237960075627011
 30
0.0
 10
0.1617381743494728
 20
0.2237571676751356
 30
0.0
 10
0.1580595074154233
 20
0.2235183678579148
 30
0.0
 10
0.1546533404416519
 20
0.2230810807791667
 30
0.0
 10
0.1515162127731458
 20
0.2224896515856935
 30
0.0
 10
0.1486394547834158
 20
0.2217577491534066
 30
0.0
 10
0.1460319200002749
 20
0.2208278990083026
 30
0.0
 10
0.1437079739623515
 20
0.2196928943195551
 30
0.0
 10
0.141628515421048
 20
0.2184176447795953
 30
0.0
 10
0.1398240748165945
 20
0.216973995927329
 30
0.0
 10
0.1382378232317674
 20
0.2154413760829061
 30
0.0
 10
0.136913475649326
 20
0.213774818896714
 30
0.0
 10
0.1358444462324903
 20
0.2119746214487855
 30
0.0
 10
0.1350078453746294
 20
0.2100647183745518
 30
0.0
 10
0.1343581221376198
 20
0.2080530961591962
 30
0.0
 10
0.1340283628907376
 20
0.205905607782469
 30
0.0
 10
0.133976225832935
 20
0.2044395189347067
 30
0.0
 10
0.1339495606527443
 20
0.2036896967362775
 30
0.0
  0
SPLINE
  5
A9
330
1F
100
AcDbEntity
  8
0
  6
Continuous
 62
     7
370
    25
100
AcDbSpline
210
0.0
220
0.0
230
1.0
 70
     8
 71
     3
 72
    15
 73
    11
 74
     0
 42
0.000000001
 43
0.00000001
 40
0.0
 40
0.0
 40
0.0
 40
0.0
 40
0.1113525621013524
 40
0.2209309255260343
 40
0.3311251909260313
 40
0.443649188274154
 40
0.5643761418057452
 40
0.6964797497374366
 40
0.842107901972891
 40
0.9999999999999999
 40
0.9999999999999999
 40
0.9999999999999999
 40
0.9999999999999999
 10
0.8780939746662102
 20
0.1644979245121534
 30
0.0
 10
0.8790116198785738
 20
0.1641613525435852
 30
0.0
 10
0.8808322893112855
 20
0.1634935712629517
 30
0.0
 10
0.8833355687847727
 20
0.1620064953275381
 30
0.0
 10
0.8856899965687138
 20
0.1602779823071462
 30
0.0
 10
0.8877489972083531
 20
0.1580689482116756
 30
0.0
 10
0.8897621524227678
 20
0.1555808079369949
 30
0.0
 10
0.8917576810151919
 20
0.1527138118688574
 30
0.0
 10
0.8937841099554499
 20
0.1494784322072739
 30
0.0
 10
0.8950602037929053
 20
0.1471454056074002
 30
0.0
 10
0.8957240314390046
 20
0.1459317585301836
 30
0.0
  0
SPLINE
  5
AA
330
1F
100
AcDbEntity
  8
0
  6
Continuous
 62
     7
370
    25
100
AcDbSpline
210
0.0
220
0.0
230
1.0
 70
     8
 71
     3
 72
    23
 73
    19
 74
     0
 42
0.000000001
 43
0.00000001
 40
0.0
 40
0.0
 40
0.0
 40
0.0
 40
0.0868773302242268
 40
0.1675014716055824
 40
0.2427475008353475
 40
0.312660341639302
 40
0.3779946034993811
 40
0.4397338850260997
 40
0.4985052936180564
 40
0.5543760393236223
 40
0.6088184466666484
 40
0.6619725906622711
 40
0.7152695750975286
 40
0.7692730547064732
 40
0.8244991354528809
 40
0.8807629267760523
 40
0.9393973148271851
 40
1.0
 40
1.0
 40
1.0
 40
1.0
 10
0.8615560453041194
 20
0.2377952755905513
 30
0.0
 10
0.8634814921068524
 20
0.2377703291587752
 30
0.0
 10
0.8671937974012673
 20
0.2377222318700687
 30
0.0
 10
0.8725540125634332
 20
0.2372152036774076
 30
0.0
 10
0.8774950814709733
 20
0.2363972644004433
 30
0.0
 10
0.8820093860860352
 20
0.2352006020080199
 30
0.0
 10
0.8861275189396403
 20
0.2337383687881743
 30
0.0
 10
0.8898635926595163
 20
0.2319909708225245
 30
0.0
 10
0.8932181171329242
 20
0.2299685358579367
 30
0.0
 10
0.8961782767367626
 20
0.2276609204794348
 30
0.0
 10
0.8987951563415011
 20
0.2251426185213873
 30
0.0
 10
0.9009912192864018
 20
0.2223218101669708
 30
0.0
 10
0.902853445211146
 20
0.2192835158071562
 30
0.0
 10
0.904314928636988
 20
0.2159814090923853
 30
0.0
 10
0.9054230721005404
 20
0.2124806891461899
 30
0.0
 10
0.906250238976605
 20
0.2087979510622583
 30
0.0
 10
0.9067120399822012
 20
0.2049289406294869
 30
0.0
 10
0.9067712367636281
 20
0.2022867033147513
 30
0.0
 10
0.906801323747575
 20
0.2009437763893644
 30
0.0
  0
SPLINE
  5
AB
330
1F
100
AcDbEntity
  8
0
  6
Continuous
 62
     7
370
    25
100
AcDbSpline
210
0.0
220
0.0
230
1.0
 70
     8
 71
     3
 72
    23
 73
    19
 74
     0
 42
0.000000001
 43
0.00000001
 40
0.0
 40
0.0
 40
0.0
 40
0.0
 40
0.0776967714840032
 40
0.1509619938714881
 40
0.2212415611529965
 40
0.2875559640017781
 40
0.3508859543665407
 40
0.4108762646889425
 40
0.468433815258095
 40
0.5243810448878409
 40
0.5788733757496392
 40
0.6330758261547901
 40
0.6878469618937095
 40
0.7440192785930991
 40
0.8024561126406576
 40
0.8641267637851895
 40
0.9296015450136523
 40
1.0
 40
1.0
 40
1.0
 40
1.0
 10
0.5972612119137283
 20
0.1688040268743579
 30
0.0
 10
0.5972901313015734
 20
0.1667125903512836
 30
0.0
 10
0.5973463206176458
 20
0.1626490054487378
 30
0.0
 10
0.5978118558851241
 20
0.1567067955965631
 30
0.0
 10
0.5986302679893758
 20
0.1511152044279118
 30
0.0
 10
0.5996910675247988
 20
0.145834759985806
 30
0.0
 10
0.6011546023550256
 20
0.1409368017120607
 30
0.0
 10
0.602967125701092
 20
0.1364108757376772
 30
0.0
 10
0.605122663768001
 20
0.1322591876153538
 30
0.0
 10
0.6076442866721935
 20
0.1284918107051131
 30
0.0
 10
0.6105774333466064
 20
0.1251536961668368
 30
0.0
 10
0.6138784199725551
 20
0.1222267029074313
 30
0.0
 10
0.6175626139828986
 20
0.1197211924111558
 30
0.0
 10
0.6216133000111129
 20
0.1176015879894079
 30
0.0
 10
0.6260909079094492
 20
0.1159958639215256
 30
0.0
 10
0.6309497173154407
 20
0.1147998975790341
 30
0.0
 10
0.6362366931343278
 20
0.1141273289893742
 30
0.0
 10
0.6398939260978832
 20
0.1140297752610646
 30
0.0
 10
0.6417888066301494
 20
0.1139792308570126
 30
0.0
  0
SPLINE
  5
AC
330
1F
100
AcDbEntity
  8
0
  6
Continuous
 62
     7
370
    25
100
AcDbSpline
210
0.0
220
0.0
230
1.0
 70
     8
 71
     3
 72
    13
 73
     9
 74
     0
 42
0.000000001
 43
0.00000001
 40
0.0
 40
0.0
 40
0.0
 40
0.0
 40
0.243243211595846
 40
0.4850313067569414
 40
0.6072204693392954
 40
0.7333344144511423
 40
0.8647086109366648
 40
1.0
 40
1.0
 40
1.0
 40
1.0
 10
0.6791395640762299
 20
0.2158279128152459
 30
0.0
 10
0.6764884559537837
 20
0.2170070404202273
 30
0.0
 10
0.6712020990250632
 20
0.2193582419165608
 30
0.0
 10
0.664255413787941
 20
0.2214685314332262
 30
0.0
 10
0.6585390960935942
 20
0.2226872893736464
 30
0.0
 10
0.6540568943736761
 20
0.2233332868539073
 30
0.0
 10
0.6493898211198535
 20
0.2237551452849434
 30
0.0
 10
0.6462102652738866
 20
0.2237955470894771
 30
0.0
 10
0.6445971342576743
 20
0.2238160447335388
 30
0.0
  0
SPLINE
  5
AD
330
1F
100
AcDbEntity
  8
0
  6
Continuous
 62
     7
370
    25
100
AcDbSpline
210
0.0
220
0.0
230
1.0
 70
     8
 71
     3
 72
    23
 73
    19
 74
     0
 42
0.000000001
 43
0.00000001
 40
0.0
 40
0.0
 40
0.0
 40
0.0
 40
0.0951996397634719
 40
0.1831123545132348
 40
0.2645714215887091
 40
0.3387021912264533
 40
0.4076315342336484
 40
0.4712902469640023
 40
0.5308879494258028
 40
0.5867384790482646
 40
0.6399314496353622
 40
0.6904093843946771
 40
0.7400424598140941
 40
0.7887116944454846
 40
0.8388404874970887
 40
0.8899553355923225
 40
0.9435076783472998
 40
0.9999999999999999
 40
0.9999999999999999
 40
0.9999999999999999
 40
0.9999999999999999
 10
0.152203690231656
 20
0.1139792308570126
 30
0.0
 10
0.1536605432173273
 20
0.1139942278088857
 30
0.0
 10
0.1564627363878968
 20
0.114023073791653
 30
0.0
 10
0.1605005540483597
 20
0.1143246516886977
 30
0.0
 10
0.1642084014401886
 20
0.114717833001734
 30
0.0
 10
0.1675782910107679
 20
0.1154007562675077
 30
0.0
 10
0.1706440436762838
 20
0.1161868065565808
 30
0.0
 10
0.1734150977551063
 20
0.1171870829160414
 30
0.0
 10
0.1758870813026946
 20
0.1183774699310331
 30
0.0
 10
0.1781031176340336
 20
0.1197119473257592
 30
0.0
 10
0.1800023091924777
 20
0.1212538164013132
 30
0.0
 10
0.1816673979682344
 20
0.1229154874945731
 30
0.0
 10
0.1830036369220454
 20
0.1247691618503647
 30
0.0
 10
0.1840890739042756
 20
0.1267708484508102
 30
0.0
 10
0.1848914801389301
 20
0.1289273166347644
 30
0.0
 10
0.1854487010298986
 20
0.1312328723060375
 30
0.0
 10
0.1857992278672032
 20
0.133678867893579
 30
0.0
 10
0.1858475906794457
 20
0.1353629098091583
 30
0.0
 10
0.1858724181216481
 20
0.1362274263950702
 30
0.0
  0
SPLINE
  5
AE
330
1F
100
AcDbEntity
  8
0
  6
Continuous
 62
     7
370
    25
100
AcDbSpline
210
0.0
220
0.0
230
1.0
 70
     8
 71
     3
 72
    13
 73
     9
 74
     0
 42
0.000000001
 43
0.00000001
 40
0.0
 40
0.0
 40
0.0
 40
0.0
 40
0.2629342745513349
 40
0.5143647563736857
 40
0.637317787192644
 40
0.7589996230405908
 40
0.8797707883104336
 40
1.0
 40
1.0
 40
1.0
 40
1.0
 10
0.6444723196964511
 20
0.2397923085701246
 30
0.0
 10
0.6475755275590152
 20
0.2397363849466901
 30
0.0
 10
0.6536461730042639
 20
0.2396269844472973
 30
0.0
 10
0.6611160687832897
 20
0.2386594131917314
 30
0.0
 10
0.6668707403215786
 20
0.2375907179829839
 30
0.0
 10
0.6710567379313398
 20
0.2365531888118665
 30
0.0
 10
0.6751560092572557
 20
0.2353174537540546
 30
0.0
 10
0.6778137046487152
 20
0.23430586606411
 30
0.0
 10
0.6791395640762293
 20
0.2338012096314049
 30
0.0
  0
SPLINE
  5
AF
330
1F
100
AcDbEntity
  8
0
  6
Continuous
 62
     7
370
    25
100
AcDbSpline
210
0.0
220
0.0
230
1.0
 70
     8
 71
     3
 72
    23
 73
    19
 74
     0
 42
0.000000001
 43
0.00000001
 40
0.0
 40
0.0
 40
0.0
 40
0.0
 40
0.0664750066251898
 40
0.1298691366212019
 40
0.1909170876040545
 40
0.2499362502088421
 40
0.3075602225872331
 40
0.3634113090814329
 40
0.4192531151601883
 40
0.4749632826029119
 40
0.5313346986072298
 40
0.5892934796499242
 40
0.6494922147887102
 40
0.7123114536155499
 40
0.7785606252979981
 40
0.8481967065368431
 40
0.9217767357109492
 40
1.0
 40
1.0
 40
1.0
 40
1.0
 10
0.639854180931188
 20
0.0980029670204268
 30
0.0
 10
0.637500664609679
 20
0.098053128055049
 30
0.0
 10
0.6329027089536281
 20
0.0981511253413841
 30
0.0
 10
0.626191219452567
 20
0.0990265698258711
 30
0.0
 10
0.6198318011092407
 20
0.1003732507103377
 30
0.0
 10
0.6138370608890633
 20
0.1023136709441724
 30
0.0
 10
0.6082507386434807
 20
0.1048037176536745
 30
0.0
 10
0.6030657150198864
 20
0.1078315234025365
 30
0.0
 10
0.5983113262900792
 20
0.1113887646303141
 30
0.0
 10
0.5940044430620937
 20
0.1155059837582875
 30
0.0
 10
0.5901851280328952
 20
0.1201715553884498
 30
0.0
 10
0.586780008572309
 20
0.125341776704441
 30
0.0
 10
0.5839435622744523
 20
0.1310972686480358
 30
0.0
 10
0.5814747195955721
 20
0.1373328820164499
 30
0.0
 10
0.5795893886416665
 20
0.1441216175763939
 30
0.0
 10
0.5782715034738062
 20
0.151423475299022
 30
0.0
 10
0.5774452478357054
 20
0.1592264134023553
 30
0.0
 10
0.5773433760145769
 20
0.1645997919104195
 30
0.0
 10
0.577290882117996
 20
0.1673686594202901
 30
0.0
  0
SPLINE
  5
B0
330
1F
100
AcDbEntity
  8
0
  6
Continuous
 62
     7
370
    25
100
AcDbSpline
210
0.0
220
0.0
230
1.0
 70
     8
 71
     3
 72
    15
 73
    11
 74
     0
 42
0.000000001
 43
0.00000001
 40
0.0
 40
0.0
 40
0.0
 40
0.0
 40
0.1052956016478606
 40
0.2151454387777328
 40
0.3294573921663204
 40
0.4489943541759996
 40
0.5746051271859375
 40
0.7088089384905125
 40
0.8502985144329712
 40
1.0
 40
1.0
 40
1.0
 40
1.0
 10
0.1119821978774394
 20
0.1199703297957323
 30
0.0
 10
0.113339368275766
 20
0.1195053219922762
 30
0.0
 10
0.1161124092791362
 20
0.1185551939114839
 30
0.0
 10
0.1204621824644424
 20
0.1174407799320484
 30
0.0
 10
0.1250249519974831
 20
0.1163941729152425
 30
0.0
 10
0.1298440748965494
 20
0.1155197979227428
 30
0.0
 10
0.13496650115967
 20
0.1148316219957624
 30
0.0
 10
0.1404117744066967
 20
0.1143476362157036
 30
0.0
 10
0.1461981870431902
 20
0.1140198849791215
 30
0.0
 10
0.1501645703716077
 20
0.1139930346341786
 30
0.0
 10
0.152203690231656
 20
0.1139792308570126
 30
0.0
  0
SPLINE
  5
B1
330
1F
100
AcDbEntity
  8
0
  6
Continuous
 62
     7
370
    25
100
AcDbSpline
210
0.0
220
0.0
230
1.0
 70
     8
 71
     3
 72
    15
 73
    11
 74
     0
 42
0.000000001
 43
0.00000001
 40
0.0
 40
0.0
 40
0.0
 40
0.0
 40
0.1215533759830856
 40
0.2468730645557066
 40
0.3746714108345274
 40
0.5031073905946045
 40
0.6316150506110909
 40
0.7582927467139837
 40
0.8812578156137546
 40
1.0
 40
1.0
 40
1.0
 40
1.0
 10
0.6791395640762293
 20
0.1064591535433074
 30
0.0
 10
0.6776389947412766
 20
0.105795651231011
 30
0.0
 10
0.6745913611621834
 20
0.1044480880897024
 30
0.0
 10
0.6698232070354775
 20
0.102752763641612
 30
0.0
 10
0.6648821589424003
 20
0.1012990180040689
 30
0.0
 10
0.6598339389295695
 20
0.1000764357688659
 30
0.0
 10
0.6547384657254337
 20
0.0991451363271803
 30
0.0
 10
0.6496744914187225
 20
0.0985076668671286
 30
0.0
 10
0.6447192057782805
 20
0.0980701656450127
 30
0.0
 10
0.641456856971322
 20
0.0980251041376951
 30
0.0
 10
0.639854180931188
 20
0.0980029670204268
 30
0.0
  0
SPLINE
  5
B2
330
1F
100
AcDbEntity
  8
0
  6
Continuous
 62
     7
370
    25
100
AcDbSpline
210
0.0
220
0.0
230
1.0
 70
     8
 71
     3
 72
    33
 73
    29
 74
     0
 42
0.000000001
 43
0.00000001
 40
0.0
 40
0.0
 40
0.0
 40
0.0
 40
0.0256725206863523
 40
0.0501587058872914
 40
0.0740509760303597
 40
0.0980099637812124
 40
0.1224943380746901
 40
0.1477664898139559
 40
0.1742299562132473
 40
0.2020669083152298
 40
0.2611307647762912
 40
0.3251114021284827
 40
0.3920786018188583
 40
0.4608715495168585
 40
0.5302389718678849
 40
0.5993643493231736
 40
0.6336119318732998
 40
0.6670723493608384
 40
0.6997171253332983
 40
0.7320507316236042
 40
0.7640604492905878
 40
0.7957471657181093
 40
0.8278039463467535
 40
0.8596804052870166
 40
0.8922149749785889
 40
0.9262482604579598
 40
0.9618405384130072
 40
1.0
 40
1.0
 40
1.0
 40
1.0
 10
0.1339495606527443
 20
0.2036896967362775
 30
0.0
 10
0.1339805098986968
 20
0.202791506999745
 30
0.0
 10
0.134040978215934
 20
0.201036633164949
 30
0.0
 10
0.1346621042244077
 20
0.1985081621872773
 30
0.0
 10
0.1356340397939298
 20
0.1961666642304942
 30
0.0
 10
0.1369929371466359
 20
0.1940192556211053
 30
0.0
 10
0.1387239761487849
 20
0.1921053688368486
 30
0.0
 10
0.140629220275011
 20
0.1902436679605976
 30
0.0
 10
0.142796801743577
 20
0.1884971157480687
 30
0.0
 10
0.1460677394139327
 20
0.1862608584772421
 30
0.0
 10
0.1506941387534841
 20
0.183712425330401
 30
0.0
 10
0.1567731840579187
 20
0.1810386466493852
 30
0.0
 10
0.163287317770248
 20
0.1785397225930127
 30
0.0
 10
0.1699200040084249
 20
0.1758305719983125
 30
0.0
 10
0.176590555521486
 20
0.1730123526451169
 30
0.0
 10
0.1820270595982977
 20
0.1703906036754563
 30
0.0
 10
0.186246336132239
 20
0.1681400460837269
 30
0.0
 10
0.1892031617852843
 20
0.1662533973711021
 30
0.0
 10
0.1920106771844324
 20
0.1642635971227352
 30
0.0
 10
0.1945921905376523
 20
0.1620652978121689
 30
0.0
 10
0.1970147649320505
 20
0.1597402508513877
 30
0.0
 10
0.1991803518586855
 20
0.1571845977195342
 30
0.0
 10
0.2011121391755246
 20
0.1544539917533537
 30
0.0
 10
0.2027778311570191
 20
0.1515209634869752
 30
0.0
 10
0.2042025516622285
 20
0.1483795530600124
 30
0.0
 10
0.2051316196360111
 20
0.1449234100827146
 30
0.0
 10
0.2057568810714441
 20
0.1412011274536287
 30
0.0
 10
0.2058134690554246
 20
0.1386225282738232
 30
0.0
 10
0.2058427479173798
 20
0.1372883501654686
 30
0.0
  0
SPLINE
  5
B3
330
1F
100
AcDbEntity
  8
0
  6
Continuous
 62
     7
370
    25
100
AcDbSpline
210
0.0
220
0.0
230
1.0
 70
     8
 71
     3
 72
    23
 73
    19
 74
     0
 42
0.000000001
 43
0.00000001
 40
0.0
 40
0.0
 40
0.0
 40
0.0
 40
0.0742252771806094
 40
0.1452246251349338
 40
0.2126888929148227
 40
0.2779431301589962
 40
0.3406829667072264
 40
0.4014210807773965
 40
0.4601092411464431
 40
0.5180957302352657
 40
0.5755133445412511
 40
0.6326683894261543
 40
0.6904145715872761
 40
0.7491594371175394
 40
0.8094359727667926
 40
0.8709469375778508
 40
0.9344445163449568
 40
1.0
 40
1.0
 40
1.0
 40
1.0
 10
0.577290882117996
 20
0.1673686594202901
 30
0.0
 10
0.5773515775645229
 20
0.1701273331466258
 30
0.0
 10
0.5774703305527779
 20
0.1755247849715864
 30
0.0
 10
0.5783727979503512
 20
0.1833900679844761
 30
0.0
 10
0.579908833814411
 20
0.1908124992139463
 30
0.0
 10
0.5820169775064752
 20
0.1977742913128532
 30
0.0
 10
0.5847024433052966
 20
0.2042671145220993
 30
0.0
 10
0.5879301344200676
 20
0.2102288294308214
 30
0.0
 10
0.5915886735908032
 20
0.215727964336754
 30
0.0
 10
0.5957910032476321
 20
0.2206652527403888
 30
0.0
 10
0.600450954020655
 20
0.2250893100334035
 30
0.0
 10
0.6055808031519029
 20
0.228942731081446
 30
0.0
 10
0.6111201844640678
 20
0.2322780831593033
 30
0.0
 10
0.6171204255813552
 20
0.2349849599166831
 30
0.0
 10
0.6234868883701135
 20
0.2371307545886019
 30
0.0
 10
0.6302005306809091
 20
0.2387063857857053
 30
0.0
 10
0.6372395675517929
 20
0.2396083569342783
 30
0.0
 10
0.6420359078607032
 20
0.239730342954019
 30
0.0
 10
0.6444723196964511
 20
0.2397923085701246
 30
0.0
  0
SPLINE
  5
B4
330
1F
100
AcDbEntity
  8
0
  6
Continuous
 62
     7
370
    25
100
AcDbSpline
210
0.0
220
0.0
230
1.0
 70
     8
 71
     3
 72
    15
 73
    11
 74
     0
 42
0.000000001
 43
0.00000001
 40
0.0
 40
0.0
 40
0.0
 40
0.0
 40
0.167391854587001
 40
0.3105326767827669
 40
0.4353739153206078
 40
0.5489839509337432
 40
0.6555634230881738
 40
0.7631611935822884
 40
0.8757123458120044
 40
0.9999999999999999
 40
0.9999999999999999
 40
0.9999999999999999
 40
0.9999999999999999
 10
0.8758161089238842
 20
0.1430298199817415
 30
0.0
 10
0.8751001346334255
 20
0.1445553847766228
 30
0.0
 10
0.8737719134157779
 20
0.1473854969139726
 30
0.0
 10
0.8714332959852918
 20
0.1511016731287418
 30
0.0
 10
0.8690111378217021
 20
0.1540957831665295
 30
0.0
 10
0.8663873906008205
 20
0.1563976286090429
 30
0.0
 10
0.8635249665925075
 20
0.1580769303385128
 30
0.0
 10
0.860405731777234
 20
0.1591634089649307
 30
0.0
 10
0.8569844361502708
 20
0.1597949761642221
 30
0.0
 10
0.8546005155628196
 20
0.1598710615145225
 30
0.0
 10
0.8533494879036863
 20
0.1599109893871962
 30
0.0
  0
SPLINE
  5
B5
330
1F
100
AcDbEntity
  8
0
  6
Continuous
 62
     7
370
    25
100
AcDbSpline
210
0.0
220
0.0
230
1.0
 70
     8
 71
     3
 72
    23
 73
    19
 74
     0
 42
0.000000001
 43
0.00000001
 40
0.0
 40
0.0
 40
0.0
 40
0.0
 40
0.0490041924112068
 40
0.0981287860772285
 40
0.1483408065141559
 40
0.1993311244468143
 40
0.2514311251501593
 40
0.3039184384587434
 40
0.3576539639019184
 40
0.4134156257106557
 40
0.4718781029063452
 40
0.5340407864346706
 40
0.5991317626037744
 40
0.6690269556689784
 40
0.7436231815207723
 40
0.8232983116630591
 40
0.9085750435657358
 40
1.0
 40
1.0
 40
1.0
 40
1.0
 10
0.1139792308570126
 20
0.201786274677622
 30
0.0
 10
0.1140150319611023
 20
0.2029638757474873
 30
0.0
 10
0.1140867221310997
 20
0.2053219712038809
 30
0.0
 10
0.1146789275029541
 20
0.2088455227623048
 30
0.0
 10
0.1156103159217577
 20
0.2123382869768319
 30
0.0
 10
0.1169215581813059
 20
0.2157875601218823
 30
0.0
 10
0.1186391195277027
 20
0.2191135124543104
 30
0.0
 10
0.1207294364542503
 20
0.222302083901022
 30
0.0
 10
0.1232969789851573
 20
0.2252378347598719
 30
0.0
 10
0.1262411044931446
 20
0.2280060113855258
 30
0.0
 10
0.1296472047501199
 20
0.2305387013970113
 30
0.0
 10
0.133472709024898
 20
0.232849086075902
 30
0.0
 10
0.1377798536412989
 20
0.2348318368261592
 30
0.0
 10
0.1424861888684166
 20
0.2366311316946963
 30
0.0
 10
0.1476865941551643
 20
0.2380593971419682
 30
0.0
 10
0.153355285635387
 20
0.2390826409685924
 30
0.0
 10
0.1594933726618983
 20
0.2396601527657986
 30
0.0
 10
0.1637374291032067
 20
0.239747246511248
 30
0.0
 10
0.1659332919662218
 20
0.2397923085701246
 30
0.0
  0
SPLINE
  5
B6
330
1F
100
AcDbEntity
  8
0
  6
Continuous
 62
     7
370
    25
100
AcDbSpline
210
0.0
220
0.0
230
1.0
 70
     8
 71
     3
 72
    23
 73
    19
 74
     0
 42
0.000000001
 43
0.00000001
 40
0.0
 40
0.0
 40
0.0
 40
0.0
 40
0.0670981242722626
 40
0.1309759062433328
 40
0.1922163869542914
 40
0.251769808319032
 40
0.30968471942135
 40
0.3665125233135307
 40
0.4235187108853607
 40
0.480372032427633
 40
0.5380321837013048
 40
0.5972742619708011
 40
0.6584306056386229
 40
0.722042167401611
 40
0.7879120315897787
 40
0.8559727583910858
 40
0.9264611901366913
 40
1.0
 40
1.0
 40
1.0
 40
1.0
 10
0.6445971342576743
 20
0.2238160447335388
 30
0.0
 10
0.6427635416751878
 20
0.2237717767206362
 30
0.0
 10
0.639184358907013
 20
0.2236853653168842
 30
0.0
 10
0.6339816308707495
 20
0.2229052737907621
 30
0.0
 10
0.6290694279083402
 20
0.2217195363889764
 30
0.0
 10
0.6245067510577366
 20
0.2199497688583789
 30
0.0
 10
0.6202707505419256
 20
0.2177597881542259
 30
0.0
 10
0.6163620395420838
 20
0.2151482228619002
 30
0.0
 10
0.612803274470793
 20
0.2121201465826116
 30
0.0
 10
0.6096054227821533
 20
0.2086857102599186
 30
0.0
 10
0.6067339714984461
 20
0.2048938489711015
 30
0.0
 10
0.60429613095052
 20
0.2006766564875373
 30
0.0
 10
0.6021132792770328
 20
0.1961427231349752
 30
0.0
 10
0.6003617538698531
 20
0.1912318060263979
 30
0.0
 10
0.5989354209395853
 20
0.1860208219964271
 30
0.0
 10
0.5980183690515505
 20
0.1805087004837176
 30
0.0
 10
0.59734124595535
 20
0.1747494184818424
 30
0.0
 10
0.597288263965873
 20
0.170813609803437
 30
0.0
 10
0.5972612119137283
 20
0.1688040268743579
 30
0.0
  0
SPLINE
  5
B7
330
1F
100
AcDbEntity
  8
0
  6
Continuous
 62
     7
370
    25
100
AcDbSpline
210
0.0
220
0.0
230
1.0
 70
     8
 71
     3
 72
    23
 73
    19
 74
     0
 42
0.000000001
 43
0.00000001
 40
0.0
 40
0.0
 40
0.0
 40
0.0
 40
0.0669434636680603
 40
0.1328765835338006
 40
0.1975396046007469
 40
0.2616996647946102
 40
0.3244492619823034
 40
0.3849716755008609
 40
0.4439044842103188
 40
0.5020224736059717
 40
0.5594089760195547
 40
0.6167307089437853
 40
0.6742615498852903
 40
0.7333583132703257
 40
0.7942180840124776
 40
0.8585663761369146
 40
0.9267666055968956
 40
0.9999999999999999
 40
0.9999999999999999
 40
0.9999999999999999
 40
0.9999999999999999
 10
0.2723377054091063
 20
0.2377952755905513
 30
0.0
 10
0.2740134407042466
 20
0.2377775282045048
 30
0.0
 10
0.2773396202701763
 20
0.237742301284723
 30
0.0
 10
0.2822644206142773
 20
0.2372707213151611
 30
0.0
 10
0.2870939776541216
 20
0.2366063959842042
 30
0.0
 10
0.2917889744799901
 20
0.2356132549616526
 30
0.0
 10
0.2962971783424897
 20
0.2343103060063242
 30
0.0
 10
0.300580154909762
 20
0.2327199016450995
 30
0.0
 10
0.3045196045374767
 20
0.2306455239049661
 30
0.0
 10
0.3082188614033187
 20
0.2283210592661303
 30
0.0
 10
0.3116257696198682
 20
0.2256377535818175
 30
0.0
 10
0.3146229533578102
 20
0.2225238127539331
 30
0.0
 10
0.3172663291483037
 20
0.2190548411808753
 30
0.0
 10
0.3195557220587025
 20
0.2152389941296132
 30
0.0
 10
0.321440678590425
 20
0.2110116241669128
 30
0.0
 10
0.3227075129268285
 20
0.2063277630364531
 30
0.0
 10
0.3235579703263689
 20
0.2012346719433337
 30
0.0
 10
0.3236302617114447
 20
0.197691970421357
 30
0.0
 10
0.3236676937121988
 20
0.1958575830195136
 30
0.0
  0
SPLINE
  5
B8
330
1F
100
AcDbEntity
  8
0
  6
Continuous
 62
     7
370
    25
100
AcDbSpline
210
0.0
220
0.0
230
1.0
 70
     8
 71
     3
 72
    15
 73
    11
 74
     0
 42
0.000000001
 43
0.00000001
 40
0.0
 40
0.0
 40
0.0
 40
0.0
 40
0.1399661304129398
 40
0.2792621076018866
 40
0.4156245332667222
 40
0.5474391198315695
 40
0.6723049882329218
 40
0.791165442370022
 40
0.9009763104592271
 40
1.0
 40
1.0
 40
1.0
 40
1.0
 10
0.1509555446194226
 20
0.0980029670204268
 30
0.0
 10
0.1491246816560795
 20
0.0980234809178448
 30
0.0
 10
0.1454717218409805
 20
0.0980644104928147
 30
0.0
 10
0.1400394710965724
 20
0.0983153267514279
 30
0.0
 10
0.1347249780537347
 20
0.0987298314659952
 30
0.0
 10
0.129607657239915
 20
0.0992282705699701
 30
0.0
 10
0.1247262913650943
 20
0.0997823505981402
 30
0.0
 10
0.1201455480484668
 20
0.1004231562588088
 30
0.0
 10
0.1159232077735717
 20
0.101168262657627
 30
0.0
 10
0.113249837591555
 20
0.1017304560864243
 30
0.0
 10
0.1119821978774394
 20
0.1019970329795732
 30
0.0
  0
SPLINE
  5
B9
330
1F
100
AcDbEntity
  8
0
  6
Continuous
 62
     7
370
    25
100
AcDbSpline
210
0.0
220
0.0
230
1.0
 70
     8
 71
     3
 72
    23
 73
    19
 74
     0
 42
0.000000001
 43
0.00000001
 40
0.0
 40
0.0
 40
0.0
 40
0.0
 40
0.0645442690844636
 40
0.1269342817600561
 40
0.1887265654101717
 40
0.2498083354624793
 40
0.3098390008115379
 40
0.3692223034933693
 40
0.4286832737432363
 40
0.4883798617341064
 40
0.5482501456441765
 40
0.608765760472555
 40
0.6699858955025249
 40
0.7331387142663488
 40
0.7970632865401303
 40
0.8628148123436724
 40
0.930318249078275
 40
1.0
 40
1.0
 40
1.0
 40
1.0
 10
0.906801323747575
 20
0.2009437763893644
 30
0.0
 10
0.906776387005225
 20
0.1998610302113974
 30
0.0
 10
0.9067273458196243
 20
0.1977316760428833
 30
0.0
 10
0.9063668871696029
 20
0.1945833367687236
 30
0.0
 10
0.9058210915482307
 20
0.1915215329416173
 30
0.0
 10
0.9050032836375441
 20
0.1885604444867489
 30
0.0
 10
0.9039719892955764
 20
0.1857116138792662
 30
0.0
 10
0.9027264860566159
 20
0.1829772960998995
 30
0.0
 10
0.9012150448743754
 20
0.1803876810281235
 30
0.0
 10
0.8995041666732068
 20
0.1779157934155504
 30
0.0
 10
0.8975574894374897
 20
0.1756015529398307
 30
0.0
 10
0.8954075635124377
 20
0.1734371610606568
 30
0.0
 10
0.8930029757362989
 20
0.1714734364447432
 30
0.0
 10
0.8904365993793664
 20
0.1696283440422388
 30
0.0
 10
0.8876382401566122
 20
0.1679958090021423
 30
0.0
 10
0.884636177015278
 20
0.1666009045445886
 30
0.0
 10
0.881445686653079
 20
0.1654009484588479
 30
0.0
 10
0.8792229765329933
 20
0.1648021021161844
 30
0.0
 10
0.8780939746662102
 20
0.1644979245121534
 30
0.0
  0
SPLINE
  5
BD
330
1F
100
AcDbEntity
  8
0
  6
Continuous
 62
     7
370
    25
100
AcDbSpline
210
0.0
220
0.0
230
1.0
 70
     8
 71
     3
 72
    23
 73
    19
 74
     0
 42
0.000000001
 43
0.00000001
 40
0.0
 40
0.0
 40
0.0
 40
0.0
 40
0.0710054063752104
 40
0.137576215210735
 40
0.2003032527046567
 40
0.2604031925983386
 40
0.3177152079427064
 40
0.3738306474914118
 40
0.4294997037542654
 40
0.4848811865589577
 40
0.5408363383570456
 40
0.5986108345938554
 40
0.6580876144125944
 40
0.7194853567469314
 40
0.7841756976171746
 40
0.8520284023422333
 40
0.9241032974735306
 40
1.0
 40
1.0
 40
1.0
 40
1.0
 10
0.8868309939518428
 20
0.1996020198562138
 30
0.0
 10
0.8868163843744881
 20
0.2005078256547996
 30
0.0
 10
0.8867880776516497
 20
0.2022628657263526
 30
0.0
 10
0.8864747684282221
 20
0.2048033443808101
 30
0.0
 10
0.8859386433426525
 20
0.2071620512951745
 30
0.0
 10
0.8852244764677896
 20
0.2093477342539903
 30
0.0
 10
0.8843322008048301
 20
0.2113809859287719
 30
0.0
 10
0.8831488307504833
 20
0.2131917295660176
 30
0.0
 10
0.8818131321053129
 20
0.2148577380803859
 30
0.0
 10
0.8802702752291809
 20
0.2163353878188614
 30
0.0
 10
0.878532711078026
 20
0.2176208325944481
 30
0.0
 10
0.8766235974884062
 20
0.2187380477483526
 30
0.0
 10
0.8745606337566078
 20
0.219712020190175
 30
0.0
 10
0.8723236312425942
 20
0.2204980527789657
 30
0.0
 10
0.8699154742450426
 20
0.2210727109985379
 30
0.0
 10
0.8673428758629019
 20
0.2215207477648424
 30
0.0
 10
0.8645976740202351
 20
0.2217589452595254
 30
0.0
 10
0.8627109792751324
 20
0.2217986477772139
 30
0.0
 10
0.8617432671459544
 20
0.2218190117539655
 30
0.0
  0
SPLINE
  5
BE
330
1F
100
AcDbEntity
  8
0
  6
Continuous
 62
     7
370
    25
100
AcDbSpline
210
0.0
220
0.0
230
1.0
 70
     8
 71
     3
 72
    23
 73
    19
 74
     0
 42
0.000000001
 43
0.00000001
 40
0.0
 40
0.0
 40
0.0
 40
0.0
 40
0.0751634739249805
 40
0.1468242857502609
 40
0.2147004565817477
 40
0.2804081309117747
 40
0.3432989837089108
 40
0.403724026895864
 40
0.4619008746627827
 40
0.5192753134656093
 40
0.5756421721734666
 40
0.6321926367705145
 40
0.6886003484344213
 40
0.746295093641184
 40
0.8063376960038239
 40
0.8679986302426627
 40
0.9323916198461174
 40
1.0
 40
1.0
 40
1.0
 40
1.0
 10
0.8593405868424054
 20
0.175887253223782
 30
0.0
 10
0.860370733016664
 20
0.1759056641437681
 30
0.0
 10
0.862383019947478
 20
0.1759416280240382
 30
0.0
 10
0.8653184458811919
 20
0.1762083595800734
 30
0.0
 10
0.8680838740189415
 20
0.1767345821954164
 30
0.0
 10
0.8707067430038211
 20
0.1773568869024424
 30
0.0
 10
0.8731488931456509
 20
0.1782394792147134
 30
0.0
 10
0.8753978260947001
 20
0.179307256624628
 30
0.0
 10
0.8774913872148284
 20
0.1805162040914675
 30
0.0
 10
0.8793545316003575
 20
0.1819677512145107
 30
0.0
 10
0.8810627707254227
 20
0.183563895425718
 30
0.0
 10
0.8825578397882823
 20
0.1853458205342739
 30
0.0
 10
0.8838584305485585
 20
0.1872974605861747
 30
0.0
 10
0.8849084792542729
 20
0.1894454358408207
 30
0.0
 10
0.8858051859138043
 20
0.191741691116256
 30
0.0
 10
0.8863695498796916
 20
0.1942350411157814
 30
0.0
 10
0.8867672628657919
 20
0.1968641314934567
 30
0.0
 10
0.8868094080548852
 20
0.1986746894160396
 30
0.0
 10
0.8868309939518428
 20
0.1996020198562138
 30
0.0
  0
SPLINE
  5
C8
330
1F
100
AcDbEntity
  8
0
  6
Continuous
 62
     7
370
    25
100
AcDbSpline
210
0.0
220
0.0
230
1.0
 70
     8
 71
     3
 72
    23
 73
    19
 74
     0
 42
0.000000001
 43
0.00000001
 40
0.0
 40
0.0
 40
0.0
 40
0.0
 40
0.0770503517509383
 40
0.1493594388219191
 40
0.2185836187797952
 40
0.2839564024936002
 40
0.3456252107525605
 40
0.404837116609525
 40
0.4624611233097244
 40
0.5188537635631905
 40
0.5742144388159472
 40
0.6294041558481556
 40
0.6852296760594083
 40
0.7421837895426046
 40
0.8016913425385975
 40
0.8640690824383144
 40
0.9297773095636144
 40
1.0
 40
1.0
 40
1.0
 40
1.0
 10
0.2705278942713681
 20
0.1659020883259159
 30
0.0
 10
0.2718182186976688
 20
0.1659300751355808
 30
0.0
 10
0.2743194679175737
 20
0.1659843265970088
 30
0.0
 10
0.2779705115046729
 20
0.1662883880165575
 30
0.0
 10
0.2813969789751774
 20
0.1668352959045106
 30
0.0
 10
0.2845833369040418
 20
0.1676579862520059
 30
0.0
 10
0.2875433022866483
 20
0.1686512490464507
 30
0.0
 10
0.2902821598582115
 20
0.1698645510475703
 30
0.0
 10
0.2927857887960483
 20
0.1713422504398674
 30
0.0
 10
0.2950738452109243
 20
0.1730265646840505
 30
0.0
 10
0.2971305512415885
 20
0.1749336478512483
 30
0.0
 10
0.2988774115601199
 20
0.1771147960858391
 30
0.0
 10
0.3003891417752338
 20
0.1794939934219272
 30
0.0
 10
0.3016179352781176
 20
0.1821143350406378
 30
0.0
 10
0.3025376734755212
 20
0.1849709558895651
 30
0.0
 10
0.3032280737874812
 20
0.1880397169579943
 30
0.0
 10
0.3036385919235572
 20
0.1913427152487809
 30
0.0
 10
0.303677344245191
 20
0.1936201324704898
 30
0.0
 10
0.3036973639164672
 20
0.1947966592491157
 30
0.0
  0
SPLINE
  5
C9
330
1F
100
AcDbEntity
  8
0
  6
Continuous
 62
     7
370
    25
100
AcDbSpline
210
0.0
220
0.0
230
1.0
 70
     8
 71
     3
 72
    23
 73
    19
 74
     0
 42
0.000000001
 43
0.00000001
 40
0.0
 40
0.0
 40
0.0
 40
0.0
 40
0.0674331406427603
 40
0.1314297059509985
 40
0.1918377270821783
 40
0.2505421193721663
 40
0.3069762003605654
 40
0.3628624589821815
 40
0.4186862137300578
 40
0.4757049600195974
 40
0.533310013169716
 40
0.5919958181203872
 40
0.6522989986559108
 40
0.7151811791420096
 40
0.7813535318481647
 40
0.8503160211123202
 40
0.9233446084290945
 40
1.0
 40
1.0
 40
1.0
 40
1.0
 10
0.3036973639164672
 20
0.1947966592491157
 30
0.0
 10
0.3036774429521572
 20
0.1958590053704668
 30
0.0
 10
0.3036386162497888
 20
0.1979295575799063
 30
0.0
 10
0.3032212496782126
 20
0.200928122040404
 30
0.0
 10
0.3025640152471259
 20
0.2037388923289973
 30
0.0
 10
0.3016687669471994
 20
0.2063594325250643
 30
0.0
 10
0.3005082010095562
 20
0.2087975431788173
 30
0.0
 10
0.2990570529656264
 20
0.2110198725609607
 30
0.0
 10
0.297361299092736
 20
0.2130728040310711
 30
0.0
 10
0.2953922094125672
 20
0.2149079196899044
 30
0.0
 10
0.2931884728241299
 20
0.2165232829529292
 30
0.0
 10
0.2908162395222811
 20
0.2179834719970215
 30
0.0
 10
0.2881990274457608
 20
0.2191634304634188
 30
0.0
 10
0.2853728460741382
 20
0.2201199663332354
 30
0.0
 10
0.282353303058004
 20
0.2209151268278621
 30
0.0
 10
0.2791111218521387
 20
0.2214155355778914
 30
0.0
 10
0.2756851063973736
 20
0.2217870834933713
 30
0.0
 10
0.2733269347145938
 20
0.2218081984636701
 30
0.0
 10
0.2721192799269655
 20
0.2218190117539655
 30
0.0
  0
LINE
  5
CA
330
1F
100
AcDbEntity
  8
0
  6
Continuous
 62
     7
370
    25
100
AcDbLine
 10
0.3356498916
 20
0.0720415383
 30
0.0
 11
0.4534748374
 21
0.0720415383
 31
0.0
  0
LINE
  5
CB
330
1F
100
AcDbEntity
  8
0
  6
Continuous
 62
     7
370
    25
100
AcDbLine
 10
0.3356498916
 20
0.0560652744
 30
0.0
 11
0.3356498916
 21
0.0720415383
 31
0.0
  0
LINE
  5
CC
330
1F
100
AcDbEntity
  8
0
  6
Continuous
 62
     7
370
    25
100
AcDbLine
 10
0.4534748374
 20
0.0560652744
 30
0.0
 11
0.3356498916
 21
0.0560652744
 31
0.0
  0
LINE
  5
CD
330
1F
100
AcDbEntity
  8
0
  6
Continuous
 62
     7
370
    25
100
AcDbLine
 10
0.4534748374
 20
0.0720415383
 30
0.0
 11
0.4534748374
 21
0.0560652744
 31
0.0
  0
LINE
  5
CE
330
1F
100
AcDbEntity
  8
0
  6
Continuous
 62
     7
370
    25
100
AcDbLine
 10
0.6314604017
 20
0.1778842862
 30
0.0
 11
0.6791395641
 21
0.1778842862
 31
0.0
  0
LINE
  5
CF
330
1F
100
AcDbEntity
  8
0
  6
Continuous
 62
     7
370
    25
100
AcDbLine
 10
0.6591692343
 20
0.1619080224
 30
0.0
 11
0.6314604017
 21
0.1619080224
 31
0.0
  0
LINE
  5
D0
330
1F
100
AcDbEntity
  8
0
  6
Continuous
 62
     7
370
    25
100
AcDbLine
 10
0.8249229716
 20
0.2377952756
 30
0.0
 11
0.8615560453
 21
0.2377952756
 31
0.0
  0
LINE
  5
D1
330
1F
100
AcDbEntity
  8
0
  6
Continuous
 62
     7
370
    25
100
AcDbLine
 10
0.8249229716
 20
0.1
 30
0.0
 11
0.8249229716
 21
0.2377952756
 31
0.0
  0
LINE
  5
D2
330
1F
100
AcDbEntity
  8
0
  6
Continuous
 62
     7
370
    25
100
AcDbLine
 10
0.8448933014
 20
0.1
 30
0.0
 11
0.8249229716
 21
0.1
 31
0.0
  0
LINE
  5
D3
330
1F
100
AcDbEntity
  8
0
  6
Continuous
 62
     7
370
    25
100
AcDbLine
 10
0.8448933014
 20
0.1599109894
 30
0.0
 11
0.8448933014
 21
0.1
 31
0.0
  0
LINE
  5
D4
330
1F
100
AcDbEntity
  8
0
  6
Continuous
 62
     7
370
    25
100
AcDbLine
 10
0.0
 20
0.0
 30
0.0
 11
3.434507874
 21
0.0
 31
0.0
  0
LINE
  5
D5
330
1F
100
AcDbEntity
  8
0
  6
Continuous
 62
     7
370
    25
100
AcDbLine
 10
0.7359301894
 20
0.2377952756
 30
0.0
 11
0.7616107854
 21
0.2377952756
 31
0.0
  0
LINE
  5
D6
330
1F
100
AcDbEntity
  8
0
  6
Continuous
 62
     7
370
    25
100
AcDbLine
 10
0.6901232455
 20
0.1
 30
0.0
 11
0.7359301894
 21
0.2377952756
 31
0.0
  0
LINE
  5
D7
330
1F
100
AcDbEntity
  8
0
  6
Continuous
 62
     7
370
    25
100
AcDbLine
 10
0.709594317
 20
0.1
 30
0.0
 11
0.6901232455
 21
0.1
 31
0.0
  0
LINE
  5
D8
330
1F
100
AcDbEntity
  8
0
  6
Continuous
 62
     7
370
    25
100
AcDbLine
 10
0.7855127739
 20
0.1
 30
0.0
 11
0.7762764963
 21
0.1299554947
 31
0.0
  0
LINE
  5
D9
330
1F
100
AcDbEntity
  8
0
  6
Continuous
 62
     7
370
    25
100
AcDbLine
 10
0.5002802978
 20
0.2377952756
 30
0.0
 11
0.5259608938
 21
0.2377952756
 31
0.0
  0
LINE
  5
DA
330
1F
100
AcDbEntity
  8
0
  6
Continuous
 62
     7
370
    25
100
AcDbLine
 10
0.4544733539
 20
0.1
 30
0.0
 11
0.5002802978
 21
0.2377952756
 31
0.0
  0
LINE
  5
DB
330
1F
100
AcDbEntity
  8
0
  6
Continuous
 62
     7
370
    25
100
AcDbLine
 10
0.4739444254
 20
0.1
 30
0.0
 11
0.4544733539
 21
0.1
 31
0.0
  0
LINE
  5
DC
330
1F
100
AcDbEntity
  8
0
  6
Continuous
 62
     7
370
    25
100
AcDbLine
 10
0.4833991284
 20
0.1299554947
 30
0.0
 11
0.4739444254
 21
0.1
 31
0.0
  0
LINE
  5
DD
330
1F
100
AcDbEntity
  8
0
  6
Continuous
 62
     7
370
    25
100
AcDbLine
 10
0.5406266048
 20
0.1299554947
 30
0.0
 11
0.4833991284
 21
0.1299554947
 31
0.0
  0
LINE
  5
DE
330
1F
100
AcDbEntity
  8
0
  6
Continuous
 62
     7
370
    25
100
AcDbLine
 10
0.5498628823
 20
0.1
 30
0.0
 11
0.5406266048
 21
0.1299554947
 31
0.0
  0
LINE
  5
DF
330
1F
100
AcDbEntity
  8
0
  6
Continuous
 62
     7
370
    25
100
AcDbLine
 10
0.5703012667
 20
0.1
 30
0.0
 11
0.5498628823
 21
0.1
 31
0.0
  0
LINE
  5
E0
330
1F
100
AcDbEntity
  8
0
  6
Continuous
 62
     7
370
    25
100
AcDbLine
 10
0.5259608938
 20
0.2377952756
 30
0.0
 11
0.5703012667
 21
0.1
 31
0.0
  0
LINE
  5
E1
330
1F
100
AcDbEntity
  8
0
  6
Continuous
 62
     7
370
    25
100
AcDbLine
 10
0.2338012096
 20
0.2377952756
 30
0.0
 11
0.2723377054
 21
0.2377952756
 31
0.0
  0
LINE
  5
E2
330
1F
100
AcDbEntity
  8
0
  6
Continuous
 62
     7
370
    25
100
AcDbLine
 10
0.2338012096
 20
0.1
 30
0.0
 11
0.2338012096
 21
0.2377952756
 31
0.0
  0
LINE
  5
E3
330
1F
100
AcDbEntity
  8
0
  6
Continuous
 62
     7
370
    25
100
AcDbLine
 10
0.2537715394
 20
0.1
 30
0.0
 11
0.2338012096
 21
0.1
 31
0.0
  0
LINE
  5
E4
330
1F
100
AcDbEntity
  8
0
  6
Continuous
 62
     7
370
    25
100
AcDbLine
 10
0.2537715394
 20
0.1499258245
 30
0.0
 11
0.2537715394
 21
0.1
 31
0.0
  0
LINE
  5
E5
330
1F
100
AcDbEntity
  8
0
  6
Continuous
 62
     7
370
    25
100
AcDbLine
 10
0.2704342834
 20
0.1499258245
 30
0.0
 11
0.2537715394
 21
0.1499258245
 31
0.0
  0
LINE
  5
E6
330
1F
100
AcDbEntity
  8
0
  6
Continuous
 62
     7
370
    25
100
AcDbLine
 10
0.6791395641
 20
0.1778842862
 30
0.0
 11
0.6791395641
 21
0.1064591535
 31
0.0
  0
LINE
  5
E7
330
1F
100
AcDbEntity
  8
0
  6
Continuous
 62
     7
370
    25
100
AcDbLine
 10
0.9167864886
 20
0.1
 30
0.0
 11
0.8956304205
 21
0.1
 31
0.0
  0
LINE
  5
E8
330
1F
100
AcDbEntity
  8
0
  6
Continuous
 62
     7
370
    25
100
AcDbLine
 10
0.6314604017
 20
0.1619080224
 30
0.0
 11
0.6314604017
 21
0.1778842862
 31
0.0
  0
LINE
  5
E9
330
1F
100
AcDbEntity
  8
0
  6
Continuous
 62
     7
370
    25
100
AcDbLine
 10
4.434507874
 20
0.0
 30
0.0
 11
7.869015748
 21
0.0
 31
0.0
  0
LINE
  5
EA
330
1F
100
AcDbEntity
  8
0
  6
Continuous
 62
     7
370
    25
100
AcDbLine
 10
0.71904902
 20
0.1299554947
 30
0.0
 11
0.709594317
 21
0.1
 31
0.0
  0
LINE
  5
EB
330
1F
100
AcDbEntity
  8
0
  6
Continuous
 62
     7
370
    25
100
AcDbLine
 10
0.7762764963
 20
0.1299554947
 30
0.0
 11
0.71904902
 21
0.1299554947
 31
0.0
  0
LINE
  5
EC
330
1F
100
AcDbEntity
  8
0
  6
Continuous
 62
     7
370
    25
100
AcDbLine
 10
0.8059511583
 20
0.1
 30
0.0
 11
0.7855127739
 21
0.1
 31
0.0
  0
LINE
  5
ED
330
1F
100
AcDbEntity
  8
0
  6
Continuous
 62
     7
370
    25
100
AcDbLine
 10
0.7616107854
 20
0.2377952756
 30
0.0
 11
0.8059511583
 21
0.1
 31
0.0
  0
LINE
  5
EE
330
1F
100
AcDbEntity
  8
0
  6
Continuous
 62
     7
370
    25
100
AcDbLine
 10
7.869015748
 20
0.0
 30
0.0
 11
7.869015748
 21
7.869015748
 31
0.0
  0
LINE
  5
EF
330
1F
100
AcDbEntity
  8
0
  6
Continuous
 62
     7
370
    25
100
AcDbLine
 10
0.8957240314
 20
0.1459317585
 30
0.0
 11
0.9167864886
 21
0.1
 31
0.0
  0
LINE
  5
F0
330
1F
100
AcDbEntity
  8
0
  6
Continuous
 62
     7
370
    25
100
AcDbLine
 10
0.8956304205
 20
0.1
 30
0.0
 11
0.8758161089
 21
0.14302982
 31
0.0
  0
LINE
  5
F1
330
1F
100
AcDbEntity
  8
0
  6
Continuous
 62
     7
370
    25
100
AcDbLine
 10
0.0
 20
7.869015748
 30
0.0
 11
0.0
 21
0.0
 31
0.0
  0
LINE
  5
F2
330
1F
100
AcDbEntity
  8
0
  6
Continuous
 62
     7
370
    25
100
AcDbLine
 10
7.869015748
 20
7.869015748
 30
0.0
 11
0.0
 21
7.869015748
 31
0.0
  0
LINE
  5
F3
330
1F
100
AcDbEntity
  8
0
  6
Continuous
 62
     7
370
    25
100
AcDbLine
 10
0.197854616
 20
0.2357982426
 30
0.0
 11
0.197854616
 21
0.2198219788
 31
0.0
  0
LINE
  5
F4
330
1F
100
AcDbEntity
  8
0
  6
Continuous
 62
     7
370
    25
100
AcDbLine
 10
0.1119821979
 20
0.101997033
 30
0.0
 11
0.1119821979
 21
0.1199703298
 31
0.0
  0
LINE
  5
F5
330
1F
100
AcDbEntity
  8
0
  6
Continuous
 62
     7
370
    25
100
AcDbLine
 10
0.8533494879
 20
0.1599109894
 30
0.0
 11
0.8448933014
 21
0.1599109894
 31
0.0
  0
LINE
  5
F6
330
1F
100
AcDbEntity
  8
0
  6
Continuous
 62
     7
370
    25
100
AcDbLine
 10
0.6591692343
 20
0.116912373
 30
0.0
 11
0.6591692343
 21
0.1619080224
 31
0.0
  0
LINE
  5
F7
330
1F
100
AcDbEntity
  8
0
  6
Continuous
 62
     7
370
    25
100
AcDbLine
 10
0.6791395641
 20
0.2338012096
 30
0.0
 11
0.6791395641
 21
0.2158279128
 31
0.0
  0
LINE
  5
F8
330
1F
100
AcDbEntity
  8
0
  6
Continuous
 62
     7
370
    25
100
AcDbLine
 10
0.8617432671
 20
0.2218190118
 30
0.0
 11
0.8448933014
 21
0.2218190118
 31
0.0
  0
LINE
  5
F9
330
1F
100
AcDbEntity
  8
0
  6
Continuous
 62
     7
370
    25
100
AcDbLine
 10
0.8448933014
 20
0.2218190118
 30
0.0
 11
0.8448933014
 21
0.1758872532
 31
0.0
  0
LINE
  5
FA
330
1F
100
AcDbEntity
  8
0
  6
Continuous
 62
     7
370
    25
100
AcDbLine
 10
0.8448933014
 20
0.1758872532
 30
0.0
 11
0.8593405868
 21
0.1758872532
 31
0.0
  0
LINE
  5
FB
330
1F
100
AcDbEntity
  8
0
  6
Continuous
 62
     7
370
    25
100
AcDbLine
 10
0.5357276332
 20
0.1459317585
 30
0.0
 11
0.5123873103
 21
0.2217254008
 31
0.0
  0
LINE
  5
FC
330
1F
100
AcDbEntity
  8
0
  6
Continuous
 62
     7
370
    25
100
AcDbLine
 10
0.5123873103
 20
0.2217254008
 30
0.0
 11
0.4884541182
 21
0.1459317585
 31
0.0
  0
LINE
  5
FD
330
1F
100
AcDbEntity
  8
0
  6
Continuous
 62
     7
370
    25
100
AcDbLine
 10
0.4884541182
 20
0.1459317585
 30
0.0
 11
0.5357276332
 21
0.1459317585
 31
0.0
  0
LINE
  5
FE
330
1F
100
AcDbEntity
  8
0
  6
Continuous
 62
     7
370
    25
100
AcDbLine
 10
0.7713775248
 20
0.1459317585
 30
0.0
 11
0.7480372019
 21
0.2217254008
 31
0.0
  0
LINE
  5
FF
330
1F
100
AcDbEntity
  8
0
  6
Continuous
 62
     7
370
    25
100
AcDbLine
 10
0.7241040098
 20
0.1459317585
 30
0.0
 11
0.7713775248
 21
0.1459317585
 31
0.0
  0
LINE
  5
100
330
1F
100
AcDbEntity
  8
0
  6
Continuous
 62
     7
370
    25
100
AcDbLine
 10
0.7480372019
 20
0.2217254008
 30
0.0
 11
0.7241040098
 21
0.1459317585
 31
0.0
  0
LINE
  5
101
330
1F
100
AcDbEntity
  8
0
  6
Continuous
 62
     7
370
    25
100
AcDbLine
 10
0.2537715394
 20
0.2218190118
 30
0.0
 11
0.2537715394
 21
0.1659020883
 31
0.0
  0
LINE
  5
102
330
1F
100
AcDbEntity
  8
0
  6
Continuous
 62
     7
370
    25
100
AcDbLine
 10
0.2537715394
 20
0.1659020883
 30
0.0
 11
0.2705278943
 21
0.1659020883
 31
0.0
  0
LINE
  5
103
330
1F
100
AcDbEntity
  8
0
  6
Continuous
 62
     7
370
    25
100
AcDbLine
 10
0.2721192799
 20
0.2218190118
 30
0.0
 11
0.2537715394
 21
0.2218190118
 31
0.0
  0
ARC
  5
104
330
1F
100
AcDbEntity
  8
0
  6
Continuous
 62
     7
370
    25
100
AcDbCircle
 10
3.934507874
 20
0.0
 30
0.0
 40
0.5
100
AcDbArc
 50
0.0
 51
180.0
  0
ENDSEC
  0
SECTION
  2
OBJECTS
  0
DICTIONARY
  5
C
330
0
100
AcDbDictionary
281
     1
  3
ACAD_GROUP
350
D
  3
ACAD_LAYOUT
350
1A
  3
ACAD_MLINESTYLE
350
17
  3
ACAD_PLOTSETTINGS
350
19
  3
ACAD_PLOTSTYLENAME
350
E
  3
ACAD_SCALELIST
350
47
  0
DICTIONARY
  5
D
102
{ACAD_REACTORS
330
C
102
}
330
C
100
AcDbDictionary
281
     1
  0
DICTIONARY
  5
1A
102
{ACAD_REACTORS
330
C
102
}
330
C
100
AcDbDictionary
281
     1
  3
Layout1
350
1E
  3
Layout2
350
26
  3
Model
350
22
  0
DICTIONARY
  5
17
102
{ACAD_REACTORS
330
C
102
}
330
C
100
AcDbDictionary
281
     1
  3
Standard
350
18
  0
DICTIONARY
  5
19
102
{ACAD_REACTORS
330
C
102
}
330
C
100
AcDbDictionary
281
     1
  0
ACDBDICTIONARYWDFLT
  5
E
102
{ACAD_REACTORS
330
C
102
}
330
C
100
AcDbDictionary
281
     1
  3
Normal
350
F
100
AcDbDictionaryWithDefault
340
F
  0
DICTIONARY
  5
47
102
{ACAD_REACTORS
330
C
102
}
330
C
100
AcDbDictionary
281
     1
  3
A0
350
48
  3
A1
350
49
  3
A2
350
4A
  3
A3
350
4B
  3
A4
350
4C
  3
A5
350
4D
  3
A6
350
4E
  3
A7
350
4F
  3
A8
350
50
  3
A9
350
51
  3
B0
350
52
  3
B1
350
53
  3
B2
350
54
  3
B3
350
55
  3
B4
350
56
  3
B5
350
57
  3
B6
350
58
  3
B7
350
59
  3
B8
350
5A
  3
B9
350
5B
  3
C0
350
5C
  3
C1
350
5D
  3
C2
350
5E
  3
C3
350
5F
  3
C4
350
60
  3
C5
350
61
  3
C6
350
62
  3
C7
350
63
  3
C8
350
64
  3
C9
350
65
  3
D0
350
66
  3
D1
350
67
  3
D2
350
68
  0
LAYOUT
  5
1E
102
{ACAD_REACTORS
330
1A
102
}
330
1A
100
AcDbPlotSettings
  1

  2
none_device
  4

  6

 40
0.0
 41
0.0
 42
0.0
 43
0.0
 44
0.0
 45
0.0
 46
0.0
 47
0.0
 48
0.0
 49
0.0
140
0.0
141
0.0
142
1.0
143
1.0
 70
   688
 72
     0
 73
     0
 74
     5
  7

 75
    16
147
1.0
148
0.0
149
0.0
100
AcDbLayout
  1
Layout1
 70
     1
 71
     1
 10
0.0
 20
0.0
 11
12.0
 21
9.0
 12
0.0
 22
0.0
 32
0.0
 14
1.0000000000E+20
 24
1.0000000000E+20
 34
1.0000000000E+20
 15
-1.0000000000E+20
 25
-1.0000000000E+20
 35
-1.0000000000E+20
146
0.0
 13
0.0
 23
0.0
 33
0.0
 16
1.0
 26
0.0
 36
0.0
 17
0.0
 27
1.0
 37
0.0
 76
     0
330
1B
  0
LAYOUT
  5
26
102
{ACAD_REACTORS
330
1A
102
}
330
1A
100
AcDbPlotSettings
  1

  2
none_device
  4

  6

 40
0.0
 41
0.0
 42
0.0
 43
0.0
 44
0.0
 45
0.0
 46
0.0
 47
0.0
 48
0.0
 49
0.0
140
0.0
141
0.0
142
1.0
143
1.0
 70
   688
 72
     0
 73
     0
 74
     5
  7

 75
    16
147
1.0
148
0.0
149
0.0
100
AcDbLayout
  1
Layout2
 70
     1
 71
     2
 10
0.0
 20
0.0
 11
0.0
 21
0.0
 12
0.0
 22
0.0
 32
0.0
 14
0.0
 24
0.0
 34
0.0
 15
0.0
 25
0.0
 35
0.0
146
0.0
 13
0.0
 23
0.0
 33
0.0
 16
1.0
 26
0.0
 36
0.0
 17
0.0
 27
1.0
 37
0.0
 76
     0
330
23
  0
LAYOUT
  5
22
102
{ACAD_REACTORS
330
1A
102
}
330
1A
100
AcDbPlotSettings
  1

  2
none_device
  4
ANSI_A_(11.00_x_8.50_Inches)
  6

 40
6.35
 41
19.05
 42
6.35000508
 43
19.05000254
 44
279.4
 45
215.9
 46
26.47949746
 47
-17.97050127
 48
0.0
 49
0.0
140
0.0
141
0.0
142
1.0693840589
143
1.0
 70
  1696
 72
     0
 73
     0
 74
     0
  7

 75
     0
147
0.5913241897
148
-39.4088153714
149
0.0
100
AcDbLayout
  1
Model
 70
     1
 71
     0
 10
0.0
 20
0.0
 11
12.0
 21
9.0
 12
0.0
 22
0.0
 32
0.0
 14
0.0
 24
0.0
 34
0.0
 15
7.869015748
 25
7.869015748
 35
0.0
146
0.0
 13
0.0
 23
0.0
 33
0.0
 16
1.0
 26
0.0
 36
0.0
 17
0.0
 27
1.0
 37
0.0
 76
     0
330
1F
331
29
  0
MLINESTYLE
  5
18
102
{ACAD_REACTORS
330
17
102
}
330
17
100
AcDbMlineStyle
  2
Standard
 70
     0
  3

 62
   256
 51
90.0
 52
90.0
 71
     2
 49
0.5
 62
   256
  6
BYLAYER
 49
-0.5
 62
   256
  6
BYLAYER
  0
ACDBPLACEHOLDER
  5
F
102
{ACAD_REACTORS
330
E
102
}
330
E
  0
SCALE
  5
48
102
{ACAD_REACTORS
330
47
102
}
330
47
100
AcDbScale
 70
     0
300
1:1
140
1.0
141
1.0
290
     1
  0
SCALE
  5
49
102
{ACAD_REACTORS
330
47
102
}
330
47
100
AcDbScale
 70
     0
300
1:2
140
1.0
141
2.0
290
     0
  0
SCALE
  5
4A
102
{ACAD_REACTORS
330
47
102
}
330
47
100
AcDbScale
 70
     0
300
1:4
140
1.0
141
4.0
290
     0
  0
SCALE
  5
4B
102
{ACAD_REACTORS
330
47
102
}
330
47
100
AcDbScale
 70
     0
300
1:5
140
1.0
141
5.0
290
     0
  0
SCALE
  5
4C
102
{ACAD_REACTORS
330
47
102
}
330
47
100
AcDbScale
 70
     0
300
1:8
140
1.0
141
8.0
290
     0
  0
SCALE
  5
4D
102
{ACAD_REACTORS
330
47
102
}
330
47
100
AcDbScale
 70
     0
300
1:10
140
1.0
141
10.0
290
     0
  0
SCALE
  5
4E
102
{ACAD_REACTORS
330
47
102
}
330
47
100
AcDbScale
 70
     0
300
1:16
140
1.0
141
16.0
290
     0
  0
SCALE
  5
4F
102
{ACAD_REACTORS
330
47
102
}
330
47
100
AcDbScale
 70
     0
300
1:20
140
1.0
141
20.0
290
     0
  0
SCALE
  5
50
102
{ACAD_REACTORS
330
47
102
}
330
47
100
AcDbScale
 70
     0
300
1:30
140
1.0
141
30.0
290
     0
  0
SCALE
  5
51
102
{ACAD_REACTORS
330
47
102
}
330
47
100
AcDbScale
 70
     0
300
1:40
140
1.0
141
40.0
290
     0
  0
SCALE
  5
52
102
{ACAD_REACTORS
330
47
102
}
330
47
100
AcDbScale
 70
     0
300
1:50
140
1.0
141
50.0
290
     0
  0
SCALE
  5
53
102
{ACAD_REACTORS
330
47
102
}
330
47
100
AcDbScale
 70
     0
300
1:100
140
1.0
141
100.0
290
     0
  0
SCALE
  5
54
102
{ACAD_REACTORS
330
47
102
}
330
47
100
AcDbScale
 70
     0
300
2:1
140
2.0
141
1.0
290
     0
  0
SCALE
  5
55
102
{ACAD_REACTORS
330
47
102
}
330
47
100
AcDbScale
 70
     0
300
4:1
140
4.0
141
1.0
290
     0
  0
SCALE
  5
56
102
{ACAD_REACTORS
330
47
102
}
330
47
100
AcDbScale
 70
     0
300
8:1
140
8.0
141
1.0
290
     0
  0
SCALE
  5
57
102
{ACAD_REACTORS
330
47
102
}
330
47
100
AcDbScale
 70
     0
300
10:1
140
10.0
141
1.0
290
     0
  0
SCALE
  5
58
102
{ACAD_REACTORS
330
47
102
}
330
47
100
AcDbScale
 70
     0
300
100:1
140
100.0
141
1.0
290
     0
  0
SCALE
  5
59
102
{ACAD_REACTORS
330
47
102
}
330
47
100
AcDbScale
 70
     0
300
1/128" = 1'-0"
140
0.0078125
141
12.0
290
     0
  0
SCALE
  5
5A
102
{ACAD_REACTORS
330
47
102
}
330
47
100
AcDbScale
 70
     0
300
1/64" = 1'-0"
140
0.015625
141
12.0
290
     0
  0
SCALE
  5
5B
102
{ACAD_REACTORS
330
47
102
}
330
47
100
AcDbScale
 70
     0
300
1/32" = 1'-0"
140
0.03125
141
12.0
290
     0
  0
SCALE
  5
5C
102
{ACAD_REACTORS
330
47
102
}
330
47
100
AcDbScale
 70
     0
300
1/16" = 1'-0"
140
0.0625
141
12.0
290
     0
  0
SCALE
  5
5D
102
{ACAD_REACTORS
330
47
102
}
330
47
100
AcDbScale
 70
     0
300
3/32" = 1'-0"
140
0.09375
141
12.0
290
     0
  0
SCALE
  5
5E
102
{ACAD_REACTORS
330
47
102
}
330
47
100
AcDbScale
 70
     0
300
1/8" = 1'-0"
140
0.125
141
12.0
290
     0
  0
SCALE
  5
5F
102
{ACAD_REACTORS
330
47
102
}
330
47
100
AcDbScale
 70
     0
300
3/16" = 1'-0"
140
0.1875
141
12.0
290
     0
  0
SCALE
  5
60
102
{ACAD_REACTORS
330
47
102
}
330
47
100
AcDbScale
 70
     0
300
1/4" = 1'-0"
140
0.25
141
12.0
290
     0
  0
SCALE
  5
61
102
{ACAD_REACTORS
330
47
102
}
330
47
100
AcDbScale
 70
     0
300
3/8" = 1'-0"
140
0.375
141
12.0
290
     0
  0
SCALE
  5
62
102
{ACAD_REACTORS
330
47
102
}
330
47
100
AcDbScale
 70
     0
300
1/2" = 1'-0"
140
0.5
141
12.0
290
     0
  0
SCALE
  5
63
102
{ACAD_REACTORS
330
47
102
}
330
47
100
AcDbScale
 70
     0
300
3/4" = 1'-0"
140
0.75
141
12.0
290
     0
  0
SCALE
  5
64
102
{ACAD_REACTORS
330
47
102
}
330
47
100
AcDbScale
 70
     0
300
1" = 1'-0"
140
1.0
141
12.0
290
     0
  0
SCALE
  5
65
102
{ACAD_REACTORS
330
47
102
}
330
47
100
AcDbScale
 70
     0
300
1-1/2" = 1'-0"
140
1.5
141
12.0
290
     0
  0
SCALE
  5
66
102
{ACAD_REACTORS
330
47
102
}
330
47
100
AcDbScale
 70
     0
300
3" = 1'-0"
140
3.0
141
12.0
290
     0
  0
SCALE
  5
67
102
{ACAD_REACTORS
330
47
102
}
330
47
100
AcDbScale
 70
     0
300
6" = 1'-0"
140
6.0
141
12.0
290
     0
  0
SCALE
  5
68
102
{ACAD_REACTORS
330
47
102
}
330
47
100
AcDbScale
 70
     0
300
1'-0" = 1'-0"
140
12.0
141
12.0
290
     0
  0
ENDSEC
  0
EOF
