  0
SECTION
  2
HEADER
  9
$ACADVER
  1
AC1015
  9
$ACADMAINTVER
 70
     6
  9
$DWGCODEPAGE
  3
ANSI_1252
  9
$INSBASE
 10
0.0
 20
0.0
 30
0.0
  9
$EXTMIN
 10
-0.25
 20
-0.25
 30
0.0
  9
$EXTMAX
 10
11.56102362
 20
11.56102362
 30
0.0
  9
$LIMMIN
 10
0.0
 20
0.0
  9
$LIMMAX
 10
12.0
 20
9.0
  9
$ORTHOMODE
 70
     0
  9
$REGENMODE
 70
     1
  9
$FILLMODE
 70
     1
  9
$QTEXTMODE
 70
     0
  9
$MIRRTEXT
 70
     1
  9
$LTSCALE
 40
1.0
  9
$ATTMODE
 70
     1
  9
$TEXTSIZE
 40
0.1377952756
  9
$TRACEWID
 40
0.05
  9
$TEXTSTYLE
  7
Standard
  9
$CLAYER
  8
0
  9
$CELTYPE
  6
ByLayer
  9
$CECOLOR
 62
   256
  9
$CELTSCALE
 40
1.0
  9
$DISPSILH
 70
     0
  9
$DIMSCALE
 40
1.0
  9
$DIMASZ
 40
0.13
  9
$DIMEXO
 40
0.0393700787
  9
$DIMDLI
 40
0.38
  9
$DIMRND
 40
0.0
  9
$DIMDLE
 40
0.0
  9
$DIMEXE
 40
0.0393700787
  9
$DIMTP
 40
0.0
  9
$DIMTM
 40
0.0
  9
$DIMTXT
 40
0.1377952756
  9
$DIMCEN
 40
0.09
  9
$DIMTSZ
 40
0.0
  9
$DIMTOL
 70
     0
  9
$DIMLIM
 70
     0
  9
$DIMTIH
 70
     1
  9
$DIMTOH
 70
     1
  9
$DIMSE1
 70
     0
  9
$DIMSE2
 70
     0
  9
$DIMTAD
 70
     1
  9
$DIMZIN
 70
     1
  9
$DIMBLK
  1

  9
$DIMASO
 70
     1
  9
$DIMSHO
 70
     1
  9
$DIMPOST
  1

  9
$DIMAPOST
  1

  9
$DIMALT
 70
     0
  9
$DIMALTD
 70
     2
  9
$DIMALTF
 40
25.4
  9
$DIMLFAC
 40
1.0
  9
$DIMTOFL
 70
     0
  9
$DIMTVP
 40
0.0
  9
$DIMTIX
 70
     0
  9
$DIMSOXD
 70
     0
  9
$DIMSAH
 70
     0
  9
$DIMBLK1
  1

  9
$DIMBLK2
  1

  9
$DIMSTYLE
  2
Standard
  9
$DIMCLRD
 70
     0
  9
$DIMCLRE
 70
     0
  9
$DIMCLRT
 70
     0
  9
$DIMTFAC
 40
1.0
  9
$DIMGAP
 40
0.06
  9
$DIMJUST
 70
     0
  9
$DIMSD1
 70
     0
  9
$DIMSD2
 70
     0
  9
$DIMTOLJ
 70
     1
  9
$DIMTZIN
 70
     1
  9
$DIMALTZ
 70
     0
  9
$DIMALTTZ
 70
     0
  9
$DIMUPT
 70
     0
  9
$DIMDEC
 70
     2
  9
$DIMTDEC
 70
     2
  9
$DIMALTU
 70
     2
  9
$DIMALTTD
 70
     2
  9
$DIMTXSTY
  7
Standard
  9
$DIMAUNIT
 70
     0
  9
$DIMADEC
 70
     2
  9
$DIMALTRND
 40
0.0
  9
$DIMAZIN
 70
     0
  9
$DIMDSEP
 70
    46
  9
$DIMATFIT
 70
     3
  9
$DIMFRAC
 70
     0
  9
$DIMLDRBLK
  1

  9
$DIMLUNIT
 70
     2
  9
$DIMLWD
 70
    -2
  9
$DIMLWE
 70
    -2
  9
$DIMTMOVE
 70
     0
  9
$LUNITS
 70
     2
  9
$LUPREC
 70
     8
  9
$SKETCHINC
 40
0.1
  9
$FILLETRAD
 40
0.5
  9
$AUNITS
 70
     0
  9
$AUPREC
 70
     2
  9
$MENU
  1
.
  9
$ELEVATION
 40
0.0
  9
$PELEVATION
 40
0.0
  9
$THICKNESS
 40
0.0
  9
$LIMCHECK
 70
     0
  9
$CHAMFERA
 40
0.0
  9
$CHAMFERB
 40
0.0
  9
$CHAMFERC
 40
0.0
  9
$CHAMFERD
 40
0.0
  9
$SKPOLY
 70
     0
  9
$TDCREATE
 40
2458306.621404028
  9
$TDUCREATE
 40
2458306.788070695
  9
$TDUPDATE
 40
2458306.621434305
  9
$TDUUPDATE
 40
2458306.788100972
  9
$TDINDWG
 40
0.0000000116
  9
$TDUSRTIMER
 40
0.0000000116
  9
$USRTIMER
 70
     1
  9
$ANGBASE
 50
0.0
  9
$ANGDIR
 70
     0
  9
$PDMODE
 70
     0
  9
$PDSIZE
 40
-1.0
  9
$PLINEWID
 40
0.0
  9
$SPLFRAME
 70
     0
  9
$SPLINETYPE
 70
     6
  9
$SPLINESEGS
 70
     8
  9
$HANDSEED
  5
397
  9
$SURFTAB1
 70
     6
  9
$SURFTAB2
 70
     6
  9
$SURFTYPE
 70
     6
  9
$SURFU
 70
     6
  9
$SURFV
 70
     6
  9
$UCSBASE
  2

  9
$UCSNAME
  2

  9
$UCSORG
 10
0.0
 20
0.0
 30
0.0
  9
$UCSXDIR
 10
1.0
 20
0.0
 30
0.0
  9
$UCSYDIR
 10
0.0
 20
1.0
 30
0.0
  9
$UCSORTHOREF
  2

  9
$UCSORTHOVIEW
 70
     0
  9
$UCSORGTOP
 10
0.0
 20
0.0
 30
0.0
  9
$UCSORGBOTTOM
 10
0.0
 20
0.0
 30
0.0
  9
$UCSORGLEFT
 10
0.0
 20
0.0
 30
0.0
  9
$UCSORGRIGHT
 10
0.0
 20
0.0
 30
0.0
  9
$UCSORGFRONT
 10
0.0
 20
0.0
 30
0.0
  9
$UCSORGBACK
 10
0.0
 20
0.0
 30
0.0
  9
$PUCSBASE
  2

  9
$PUCSNAME
  2

  9
$PUCSORG
 10
0.0
 20
0.0
 30
0.0
  9
$PUCSXDIR
 10
1.0
 20
0.0
 30
0.0
  9
$PUCSYDIR
 10
0.0
 20
1.0
 30
0.0
  9
$PUCSORTHOREF
  2

  9
$PUCSORTHOVIEW
 70
     0
  9
$PUCSORGTOP
 10
0.0
 20
0.0
 30
0.0
  9
$PUCSORGBOTTOM
 10
0.0
 20
0.0
 30
0.0
  9
$PUCSORGLEFT
 10
0.0
 20
0.0
 30
0.0
  9
$PUCSORGRIGHT
 10
0.0
 20
0.0
 30
0.0
  9
$PUCSORGFRONT
 10
0.0
 20
0.0
 30
0.0
  9
$PUCSORGBACK
 10
0.0
 20
0.0
 30
0.0
  9
$USERI1
 70
     0
  9
$USERI2
 70
     0
  9
$USERI3
 70
     0
  9
$USERI4
 70
     0
  9
$USERI5
 70
     0
  9
$USERR1
 40
0.0
  9
$USERR2
 40
0.0
  9
$USERR3
 40
0.0
  9
$USERR4
 40
0.0
  9
$USERR5
 40
0.0
  9
$WORLDVIEW
 70
     1
  9
$SHADEDGE
 70
     3
  9
$SHADEDIF
 70
    70
  9
$TILEMODE
 70
     1
  9
$MAXACTVP
 70
    64
  9
$PINSBASE
 10
0.0
 20
0.0
 30
0.0
  9
$PLIMCHECK
 70
     0
  9
$PEXTMIN
 10
1.0000000000E+20
 20
1.0000000000E+20
 30
1.0000000000E+20
  9
$PEXTMAX
 10
-1.0000000000E+20
 20
-1.0000000000E+20
 30
-1.0000000000E+20
  9
$PLIMMIN
 10
0.0
 20
0.0
  9
$PLIMMAX
 10
12.0
 20
9.0
  9
$UNITMODE
 70
     0
  9
$VISRETAIN
 70
     1
  9
$PLINEGEN
 70
     0
  9
$PSLTSCALE
 70
     1
  9
$TREEDEPTH
 70
  3020
  9
$CMLSTYLE
  2
Standard
  9
$CMLJUST
 70
     0
  9
$CMLSCALE
 40
1.0
  9
$PROXYGRAPHICS
 70
     1
  9
$MEASUREMENT
 70
     0
  9
$CELWEIGHT
370
    -1
  9
$ENDCAPS
280
     0
  9
$JOINSTYLE
280
     0
  9
$LWDISPLAY
290
     1
  9
$INSUNITS
 70
     1
  9
$HYPERLINKBASE
  1

  9
$STYLESHEET
  1

  9
$XEDIT
290
     1
  9
$CEPSNTYPE
380
     0
  9
$PSTYLEMODE
290
     1
  9
$FINGERPRINTGUID
  2
{2FEBA445-2A1A-4EEB-9971-21FC702932C5}
  9
$VERSIONGUID
  2
{FAEB1C32-E019-11D5-929B-00C0DF256EC4}
  9
$EXTNAMES
290
     1
  9
$PSVPSCALE
 40
0.0
  9
$OLESTARTUP
290
     0
  0
ENDSEC
  0
SECTION
  2
CLASSES
  0
CLASS
  1
ACDBDICTIONARYWDFLT
  2
AcDbDictionaryWithDefault
  3
ObjectDBX Classes
 90
        0
280
     0
281
     0
  0
CLASS
  1
VISUALSTYLE
  2
AcDbVisualStyle
  3
ObjectDBX Classes
 90
     4095
280
     0
281
     0
  0
CLASS
  1
MATERIAL
  2
AcDbMaterial
  3
ObjectDBX Classes
 90
     1153
280
     0
281
     0
  0
CLASS
  1
SCALE
  2
AcDbScale
  3
ObjectDBX Classes
 90
     1153
280
     0
281
     0
  0
CLASS
  1
TABLESTYLE
  2
AcDbTableStyle
  3
ObjectDBX Classes
 90
     4095
280
     0
281
     0
  0
CLASS
  1
MLEADERSTYLE
  2
AcDbMLeaderStyle
  3
ACDB_MLEADERSTYLE_CLASS
 90
     4095
280
     0
281
     0
  0
CLASS
  1
SUN
  2
AcDbSun
  3
SCENEOE
 90
     1153
280
     0
281
     0
  0
CLASS
  1
ACDBPLACEHOLDER
  2
AcDbPlaceHolder
  3
ObjectDBX Classes
 90
        0
280
     0
281
     0
  0
CLASS
  1
LAYOUT
  2
AcDbLayout
  3
ObjectDBX Classes
 90
        0
280
     0
281
     0
  0
ENDSEC
  0
SECTION
  2
TABLES
  0
TABLE
  2
VPORT
  5
8
330
0
100
AcDbSymbolTable
 70
     1
  0
VPORT
  5
29
330
8
100
AcDbSymbolTableRecord
100
AcDbViewportTableRecord
  2
*Active
 70
     0
 10
0.0
 20
0.0
 11
1.0
 21
1.0
 12
5.65551181
 22
5.65551181
 13
0.0
 23
0.0
 14
0.5
 24
0.5
 15
0.5
 25
0.5
 16
0.0
 26
0.0
 36
1.0
 17
0.0
 27
0.0
 37
0.0
 40
12.0472440924
 41
1.0
 42
50.0
 43
0.0
 44
0.0
 50
0.0
 51
0.0
 71
     0
 72
   100
 73
     1
 74
     3
 75
     0
 76
     0
 77
     0
 78
     0
281
     0
 65
     1
110
0.0
120
0.0
130
0.0
111
1.0
121
0.0
131
0.0
112
0.0
122
1.0
132
0.0
 79
     0
146
0.0
  0
ENDTAB
  0
TABLE
  2
LTYPE
  5
5
330
0
100
AcDbSymbolTable
 70
     6
  0
LTYPE
  5
14
330
5
100
AcDbSymbolTableRecord
100
AcDbLinetypeTableRecord
  2
ByBlock
 70
     0
  3

 72
    65
 73
     0
 40
0.0
  0
LTYPE
  5
15
330
5
100
AcDbSymbolTableRecord
100
AcDbLinetypeTableRecord
  2
ByLayer
 70
     0
  3

 72
    65
 73
     0
 40
0.0
  0
LTYPE
  5
16
330
5
100
AcDbSymbolTableRecord
100
AcDbLinetypeTableRecord
  2
Continuous
 70
     0
  3
Solid line
 72
    65
 73
     0
 40
0.0
  0
LTYPE
  5
6E
330
5
100
AcDbSymbolTableRecord
100
AcDbLinetypeTableRecord
  2
HIDDEN
 70
     0
  3
Hidden __ __ __ __ __ __ __ __ __ __ __ __ __ __
 72
    65
 73
     2
 40
0.075
 49
0.05
 74
     0
 49
-0.025
 74
     0
  0
LTYPE
  5
6F
330
5
100
AcDbSymbolTableRecord
100
AcDbLinetypeTableRecord
  2
PHANTOM
 70
     0
  3
Phantom ______  __  __  ______  __  __  ______
 72
    65
 73
     6
 40
0.5
 49
0.25
 74
     0
 49
-0.05
 74
     0
 49
0.05
 74
     0
 49
-0.05
 74
     0
 49
0.05
 74
     0
 49
-0.05
 74
     0
  0
LTYPE
  5
70
330
5
100
AcDbSymbolTableRecord
100
AcDbLinetypeTableRecord
  2
CENTER
 70
     0
  3
Center ____ _ ____ _ ____ _ ____ _ ____ _ ____
 72
    65
 73
     4
 40
0.4
 49
0.25
 74
     0
 49
-0.05
 74
     0
 49
0.05
 74
     0
 49
-0.05
 74
     0
  0
LTYPE
  5
71
330
5
100
AcDbSymbolTableRecord
100
AcDbLinetypeTableRecord
  2
CENTERX2
 70
     0
  3
Center (2x) ________  __  ________  __  _____
 72
    65
 73
     4
 40
0.8
 49
0.5
 74
     0
 49
-0.1
 74
     0
 49
0.1
 74
     0
 49
-0.1
 74
     0
  0
LTYPE
  5
72
330
5
100
AcDbSymbolTableRecord
100
AcDbLinetypeTableRecord
  2
DOT2
 70
     0
  3
Dot (.5x) ........................................
 72
    65
 73
     2
 40
0.025
 49
0.0
 74
     0
 49
-0.025
 74
     0
  0
ENDTAB
  0
TABLE
  2
LAYER
  5
2
330
0
100
AcDbSymbolTable
 70
     1
  0
LAYER
  5
10
330
2
100
AcDbSymbolTableRecord
100
AcDbLayerTableRecord
  2
0
 70
     0
 62
     7
  6
Continuous
370
    -3
390
F
  0
ENDTAB
  0
TABLE
  2
STYLE
  5
3
330
0
100
AcDbSymbolTable
 70
     1
  0
STYLE
  5
11
330
3
100
AcDbSymbolTableRecord
100
AcDbTextStyleTableRecord
  2
Standard
 70
     0
 40
0.0
 41
1.0
 50
0.0
 71
     0
 42
0.1377952756
  3
txt
  4

  0
ENDTAB
  0
TABLE
  2
VIEW
  5
6
330
0
100
AcDbSymbolTable
 70
     0
  0
ENDTAB
  0
TABLE
  2
UCS
  5
7
330
0
100
AcDbSymbolTable
 70
     0
  0
ENDTAB
  0
TABLE
  2
APPID
  5
9
330
0
100
AcDbSymbolTable
 70
     1
  0
APPID
  5
12
330
9
100
AcDbSymbolTableRecord
100
AcDbRegAppTableRecord
  2
ACAD
 70
     0
  0
ENDTAB
  0
TABLE
  2
DIMSTYLE
  5
A
330
0
100
AcDbSymbolTable
 70
     1
100
AcDbDimStyleTable
  0
DIMSTYLE
105
27
330
A
100
AcDbSymbolTableRecord
100
AcDbDimStyleTableRecord
  2
Standard
 70
     0
178
     0
340
11
  0
ENDTAB
  0
TABLE
  2
BLOCK_RECORD
  5
1
330
0
100
AcDbSymbolTable
 70
     1
  0
BLOCK_RECORD
  5
1F
330
1
100
AcDbSymbolTableRecord
100
AcDbBlockTableRecord
  2
*Model_Space
340
22
  0
BLOCK_RECORD
  5
1B
330
1
100
AcDbSymbolTableRecord
100
AcDbBlockTableRecord
  2
*Paper_Space
340
1E
  0
BLOCK_RECORD
  5
23
330
1
100
AcDbSymbolTableRecord
100
AcDbBlockTableRecord
  2
*Paper_Space0
340
26
  0
ENDTAB
  0
ENDSEC
  0
SECTION
  2
BLOCKS
  0
BLOCK
  5
20
330
1F
100
AcDbEntity
  8
0
100
AcDbBlockBegin
  2
*Model_Space
 70
     0
 10
0.0
 20
0.0
 30
0.0
  3
*Model_Space
  1

  0
ENDBLK
  5
21
330
1F
100
AcDbEntity
  8
0
100
AcDbBlockEnd
  0
BLOCK
  5
1C
330
1B
100
AcDbEntity
 67
     1
  8
0
100
AcDbBlockBegin
  2
*Paper_Space
 70
     0
 10
0.0
 20
0.0
 30
0.0
  3
*Paper_Space
  1

  0
ENDBLK
  5
1D
330
1B
100
AcDbEntity
 67
     1
  8
0
100
AcDbBlockEnd
  0
BLOCK
  5
24
330
23
100
AcDbEntity
  8
0
100
AcDbBlockBegin
  2
*Paper_Space0
 70
     0
 10
0.0
 20
0.0
 30
0.0
  3
*Paper_Space0
  1

  0
ENDBLK
  5
25
330
23
100
AcDbEntity
  8
0
100
AcDbBlockEnd
  0
ENDSEC
  0
SECTION
  2
ENTITIES
  0
CIRCLE
  5
E3
330
1F
100
AcDbEntity
  8
0
  6
Continuous
 62
     7
370
    25
100
AcDbCircle
 10
0.5511811024
 20
10.7598425176
 30
0.0
 40
0.3937007874015747
  0
CIRCLE
  5
E4
330
1F
100
AcDbEntity
  8
0
  6
Continuous
 62
     7
370
    25
100
AcDbCircle
 10
10.7598425176
 20
10.7598425176
 30
0.0
 40
0.3937007874014622
  0
CIRCLE
  5
E5
330
1F
100
AcDbEntity
  8
0
  6
Continuous
 62
     7
370
    25
100
AcDbCircle
 10
10.7598425176
 20
0.5511811024
 30
0.0
 40
0.3937007874014355
  0
CIRCLE
  5
E6
330
1F
100
AcDbEntity
  8
0
  6
Continuous
 62
     7
370
    25
100
AcDbCircle
 10
0.5511811024
 20
0.5511811024
 30
0.0
 40
0.3937007874015762
  0
SPLINE
  5
180
330
1F
100
AcDbEntity
  8
0
  6
Continuous
 62
     7
370
    25
100
AcDbSpline
210
0.0
220
0.0
230
1.0
 70
     8
 71
     3
 72
    15
 73
    11
 74
     0
 42
0.000000001
 43
0.00000001
 40
0.0
 40
0.0
 40
0.0
 40
0.0
 40
0.111352562101344
 40
0.2209309255260175
 40
0.331125190926029
 40
0.4436491882741422
 40
0.5643761418057349
 40
0.6964797497374278
 40
0.8421079019728854
 40
0.9999999999999999
 40
0.9999999999999999
 40
0.9999999999999999
 40
0.9999999999999999
 10
2.827626313836261
 20
0.4613401346806607
 30
0.0
 10
2.828543959048626
 20
0.4610035627120931
 30
0.0
 10
2.830364628481337
 20
0.460335781431459
 30
0.0
 10
2.832867907954823
 20
0.4588487054960449
 30
0.0
 10
2.835222335738765
 20
0.4571201924756541
 30
0.0
 10
2.837281336378405
 20
0.4549111583801829
 30
0.0
 10
2.83929449159282
 20
0.4524230181055022
 30
0.0
 10
2.841290020185242
 20
0.4495560220373642
 30
0.0
 10
2.843316449125501
 20
0.4463206423757812
 30
0.0
 10
2.844592542962957
 20
0.4439876157759076
 30
0.0
 10
2.845256370609056
 20
0.4427739686986915
 30
0.0
  0
SPLINE
  5
181
330
1F
100
AcDbEntity
  8
0
  6
Continuous
 62
     7
370
    25
100
AcDbSpline
210
0.0
220
0.0
230
1.0
 70
     8
 71
     3
 72
    23
 73
    19
 74
     0
 42
0.000000001
 43
0.00000001
 40
0.0
 40
0.0
 40
0.0
 40
0.0
 40
0.0645442690844636
 40
0.126934281760056
 40
0.1887265654101714
 40
0.2498083354624791
 40
0.3098390008115388
 40
0.3692223034933715
 40
0.428683273743236
 40
0.4883798617341104
 40
0.5482501456441795
 40
0.6087657604725565
 40
0.6699858955025264
 40
0.7331387142663506
 40
0.7970632865401299
 40
0.8628148123436749
 40
0.9303182490782774
 40
0.9999999999999999
 40
0.9999999999999999
 40
0.9999999999999999
 40
0.9999999999999999
 10
2.856333662917626
 20
0.4977859865578712
 30
0.0
 10
2.856308726175276
 20
0.4967032403799047
 30
0.0
 10
2.856259684989676
 20
0.4945738862113911
 30
0.0
 10
2.855899226339655
 20
0.491425546937231
 30
0.0
 10
2.855353430718282
 20
0.4883637431101246
 30
0.0
 10
2.854535622807596
 20
0.4854026546552557
 30
0.0
 10
2.853504328465627
 20
0.4825538240477736
 30
0.0
 10
2.852258825226667
 20
0.4798195062684068
 30
0.0
 10
2.850747384044428
 20
0.4772298911966308
 30
0.0
 10
2.849036505843257
 20
0.4747580035840577
 30
0.0
 10
2.847089828607542
 20
0.4724437631083386
 30
0.0
 10
2.844939902682489
 20
0.4702793712291646
 30
0.0
 10
2.84253531490635
 20
0.4683156466132505
 30
0.0
 10
2.839968938549418
 20
0.4664705542107461
 30
0.0
 10
2.837170579326663
 20
0.4648380191706495
 30
0.0
 10
2.834168516185329
 20
0.463443114713096
 30
0.0
 10
2.83097802582313
 20
0.4622431586273558
 30
0.0
 10
2.828755315703045
 20
0.4616443122846917
 30
0.0
 10
2.827626313836261
 20
0.4613401346806607
 30
0.0
  0
SPLINE
  5
182
330
1F
100
AcDbEntity
  8
0
  6
Continuous
 62
     7
370
    25
100
AcDbSpline
210
0.0
220
0.0
230
1.0
 70
     8
 71
     3
 72
    23
 73
    19
 74
     0
 42
0.000000001
 43
0.00000001
 40
0.0
 40
0.0
 40
0.0
 40
0.0
 40
0.0868773302242269
 40
0.1675014716055805
 40
0.2427475008353456
 40
0.312660341639304
 40
0.3779946034993794
 40
0.4397338850260961
 40
0.4985052936180581
 40
0.5543760393236224
 40
0.6088184466666485
 40
0.6619725906622708
 40
0.71526957509753
 40
0.769273054706472
 40
0.8244991354528817
 40
0.8807629267760531
 40
0.9393973148271847
 40
1.0
 40
1.0
 40
1.0
 40
1.0
 10
2.811088384474171
 20
0.5346374857590587
 30
0.0
 10
2.813013831276904
 20
0.5346125393272825
 30
0.0
 10
2.81672613657132
 20
0.534564442038576
 30
0.0
 10
2.822086351733483
 20
0.5340574138459143
 30
0.0
 10
2.827027420641025
 20
0.5332394745689512
 30
0.0
 10
2.831541725256087
 20
0.5320428121765278
 30
0.0
 10
2.835659858109691
 20
0.5305805789566811
 30
0.0
 10
2.839395931829568
 20
0.5288331809910313
 30
0.0
 10
2.842750456302976
 20
0.5268107460264434
 30
0.0
 10
2.845710615906815
 20
0.5245031306479427
 30
0.0
 10
2.848327495511552
 20
0.5219848286898946
 30
0.0
 10
2.850523558456453
 20
0.519164020335478
 30
0.0
 10
2.852385784381197
 20
0.5161257259756635
 30
0.0
 10
2.85384726780704
 20
0.5128236192608921
 30
0.0
 10
2.854955411270591
 20
0.5093228993146972
 30
0.0
 10
2.855782578146657
 20
0.5056401612307662
 30
0.0
 10
2.856244379152252
 20
0.5017711507979937
 30
0.0
 10
2.856303575933679
 20
0.4991289134832591
 30
0.0
 10
2.856333662917626
 20
0.4977859865578712
 30
0.0
  0
SPLINE
  5
188
330
1F
100
AcDbEntity
  8
0
  6
Continuous
 62
     7
370
    25
100
AcDbSpline
210
0.0
220
0.0
230
1.0
 70
     8
 71
     3
 72
    15
 73
    11
 74
     0
 42
0.000000001
 43
0.00000001
 40
0.0
 40
0.0
 40
0.0
 40
0.0
 40
0.1673918545870027
 40
0.3105326767827663
 40
0.4353739153206082
 40
0.548983950933743
 40
0.6555634230881737
 40
0.7631611935822926
 40
0.8757123458120043
 40
1.0
 40
1.0
 40
1.0
 40
1.0
 10
2.825348448093936
 20
0.4398720301502488
 30
0.0
 10
2.824632473803477
 20
0.4413975949451301
 30
0.0
 10
2.823304252585829
 20
0.4442277070824799
 30
0.0
 10
2.820965635155343
 20
0.4479438832972491
 30
0.0
 10
2.818543476991754
 20
0.4509379933350368
 30
0.0
 10
2.815919729770871
 20
0.4532398387775508
 30
0.0
 10
2.813057305762559
 20
0.4549191405070201
 30
0.0
 10
2.809938070947285
 20
0.456005619133438
 30
0.0
 10
2.806516775320323
 20
0.45663718633273
 30
0.0
 10
2.80413285473287
 20
0.4567132716830292
 30
0.0
 10
2.802881827073738
 20
0.456753199555704
 30
0.0
  0
SPLINE
  5
18C
330
1F
100
AcDbEntity
  8
0
  6
Continuous
 62
     7
370
    25
100
AcDbSpline
210
0.0
220
0.0
230
1.0
 70
     8
 71
     3
 72
    13
 73
     9
 74
     0
 42
0.000000001
 43
0.00000001
 40
0.0
 40
0.0
 40
0.0
 40
0.0
 40
0.2629342745513454
 40
0.5143647563736875
 40
0.6373177871926529
 40
0.7589996230405991
 40
0.8797707883104341
 40
1.0
 40
1.0
 40
1.0
 40
1.0
 10
2.594004658866502
 20
0.5366345187386319
 30
0.0
 10
2.597107866729067
 20
0.5365785951151975
 30
0.0
 10
2.603178512174315
 20
0.5364691946158051
 30
0.0
 10
2.610648407953342
 20
0.5355016233602387
 30
0.0
 10
2.616403079491629
 20
0.5344329281514912
 30
0.0
 10
2.620589077101392
 20
0.5333953989803738
 30
0.0
 10
2.624688348427306
 20
0.5321596639225619
 30
0.0
 10
2.627346043818766
 20
0.5311480762326168
 30
0.0
 10
2.628671903246281
 20
0.5306434197999121
 30
0.0
  0
SPLINE
  5
18D
330
1F
100
AcDbEntity
  8
0
  6
Continuous
 62
     7
370
    25
100
AcDbSpline
210
0.0
220
0.0
230
1.0
 70
     8
 71
     3
 72
    23
 73
    19
 74
     0
 42
0.000000001
 43
0.00000001
 40
0.0
 40
0.0
 40
0.0
 40
0.0
 40
0.0664750066251921
 40
0.1298691366212014
 40
0.1909170876040588
 40
0.2499362502088456
 40
0.3075602225872364
 40
0.3634113090814347
 40
0.4192531151601898
 40
0.4749632826029144
 40
0.5313346986072296
 40
0.5892934796499264
 40
0.6494922147887106
 40
0.7123114536155507
 40
0.7785606252979982
 40
0.8481967065368431
 40
0.9217767357109494
 40
1.0
 40
1.0
 40
1.0
 40
1.0
 10
2.58938652010124
 20
0.3948451771889341
 30
0.0
 10
2.58703300377973
 20
0.3948953382235558
 30
0.0
 10
2.58243504812368
 20
0.3949933355098914
 30
0.0
 10
2.575723558622618
 20
0.3958687799943784
 30
0.0
 10
2.569364140279292
 20
0.3972154608788445
 30
0.0
 10
2.563369400059114
 20
0.3991558811126797
 30
0.0
 10
2.557783077813532
 20
0.4016459278221823
 30
0.0
 10
2.552598054189937
 20
0.4046737335710438
 30
0.0
 10
2.547843665460131
 20
0.408230974798822
 30
0.0
 10
2.543536782232144
 20
0.4123481939267948
 30
0.0
 10
2.539717467202947
 20
0.4170137655569571
 30
0.0
 10
2.53631234774236
 20
0.4221839868729483
 30
0.0
 10
2.533475901444504
 20
0.4279394788165425
 30
0.0
 10
2.531007058765623
 20
0.4341750921849566
 30
0.0
 10
2.529121727811718
 20
0.4409638277449018
 30
0.0
 10
2.527803842643856
 20
0.4482656854675288
 30
0.0
 10
2.526977587005756
 20
0.4560686235708631
 30
0.0
 10
2.526875715184628
 20
0.4614420020789274
 30
0.0
 10
2.526823221288047
 20
0.4642108695887974
 30
0.0
  0
SPLINE
  5
18E
330
1F
100
AcDbEntity
  8
0
  6
Continuous
 62
     7
370
    25
100
AcDbSpline
210
0.0
220
0.0
230
1.0
 70
     8
 71
     3
 72
    15
 73
    11
 74
     0
 42
0.000000001
 43
0.00000001
 40
0.0
 40
0.0
 40
0.0
 40
0.0
 40
0.1215533759830835
 40
0.2468730645557058
 40
0.3746714108345277
 40
0.5031073905946094
 40
0.6316150506110937
 40
0.7582927467139811
 40
0.8812578156137669
 40
1.0
 40
1.0
 40
1.0
 40
1.0
 10
2.628671903246281
 20
0.4033013637118147
 30
0.0
 10
2.627171333911328
 20
0.4026378613995183
 30
0.0
 10
2.624123700332235
 20
0.4012902982582103
 30
0.0
 10
2.619355546205528
 20
0.3995949738101188
 30
0.0
 10
2.614414498112452
 20
0.3981412281725768
 30
0.0
 10
2.609366278099621
 20
0.3969186459373732
 30
0.0
 10
2.604270804895485
 20
0.395987346495687
 30
0.0
 10
2.599206830588775
 20
0.395349877035636
 30
0.0
 10
2.594251544948331
 20
0.39491237581352
 30
0.0
 10
2.590989196141373
 20
0.3948673143062024
 30
0.0
 10
2.58938652010124
 20
0.3948451771889341
 30
0.0
  0
SPLINE
  5
194
330
1F
100
AcDbEntity
  8
0
  6
Continuous
 62
     7
370
    25
100
AcDbSpline
210
0.0
220
0.0
230
1.0
 70
     8
 71
     3
 72
    15
 73
    11
 74
     0
 42
0.000000001
 43
0.00000001
 40
0.0
 40
0.0
 40
0.0
 40
0.0
 40
0.1181377071626139
 40
0.245340752026586
 40
0.3782754322888042
 40
0.5101308509081708
 40
0.6425504600250074
 40
0.7708234786149921
 40
0.8918702657019089
 40
1.0
 40
1.0
 40
1.0
 40
1.0
 10
2.591321145800201
 20
0.4108214410255199
 30
0.0
 10
2.592018284697004
 20
0.4108364144229205
 30
0.0
 10
2.593466057684276
 20
0.4108675102065347
 30
0.0
 10
2.595693148738827
 20
0.4110317383779271
 30
0.0
 10
2.597995002892036
 20
0.4112688286772778
 30
0.0
 10
2.600311921734996
 20
0.4116281936106685
 30
0.0
 10
2.602596657144738
 20
0.4120134890800016
 30
0.0
 10
2.604796191684264
 20
0.412506358341678
 30
0.0
 10
2.606825947534559
 20
0.4130867701804526
 30
0.0
 10
2.60810030700938
 20
0.4135405034434637
 30
0.0
 10
2.608701573450549
 20
0.4137545832142673
 30
0.0
  0
SPLINE
  5
195
330
1F
100
AcDbEntity
  8
0
  6
Continuous
 62
     7
370
    25
100
AcDbSpline
210
0.0
220
0.0
230
1.0
 70
     8
 71
     3
 72
    23
 73
    19
 74
     0
 42
0.000000001
 43
0.00000001
 40
0.0
 40
0.0
 40
0.0
 40
0.0
 40
0.0776967714840032
 40
0.1509619938714877
 40
0.2212415611529958
 40
0.287555964001779
 40
0.3508859543665421
 40
0.4108762646889414
 40
0.4684338152580967
 40
0.5243810448878412
 40
0.5788733757496373
 40
0.6330758261547912
 40
0.6878469618937124
 40
0.7440192785930977
 40
0.8024561126406577
 40
0.8641267637851912
 40
0.929601545013649
 40
1.0
 40
1.0
 40
1.0
 40
1.0
 10
2.54679355108378
 20
0.4656462370428652
 30
0.0
 10
2.546822470471625
 20
0.4635548005197914
 30
0.0
 10
2.546878659787697
 20
0.4594912156172456
 30
0.0
 10
2.547344195055175
 20
0.4535490057650703
 30
0.0
 10
2.548162607159427
 20
0.4479574145964186
 30
0.0
 10
2.54922340669485
 20
0.4426769701543133
 30
0.0
 10
2.550686941525078
 20
0.4377790118805679
 30
0.0
 10
2.552499464871143
 20
0.433253085906184
 30
0.0
 10
2.554655002938052
 20
0.4291013977838605
 30
0.0
 10
2.557176625842245
 20
0.4253340208736199
 30
0.0
 10
2.560109772516658
 20
0.4219959063353441
 30
0.0
 10
2.563410759142606
 20
0.4190689130759391
 30
0.0
 10
2.567094953152951
 20
0.4165634025796631
 30
0.0
 10
2.571145639181163
 20
0.4144437981579152
 30
0.0
 10
2.575623247079501
 20
0.4128380740900329
 30
0.0
 10
2.580482056485493
 20
0.411642107747542
 30
0.0
 10
2.585769032304378
 20
0.410969539157881
 30
0.0
 10
2.589426265267935
 20
0.4108719854295725
 30
0.0
 10
2.591321145800201
 20
0.4108214410255199
 30
0.0
  0
SPLINE
  5
196
330
1F
100
AcDbEntity
  8
0
  6
Continuous
 62
     7
370
    25
100
AcDbSpline
210
0.0
220
0.0
230
1.0
 70
     8
 71
     3
 72
    23
 73
    19
 74
     0
 42
0.000000001
 43
0.00000001
 40
0.0
 40
0.0
 40
0.0
 40
0.0
 40
0.0670981242722659
 40
0.1309759062433376
 40
0.1922163869542913
 40
0.2517698083190318
 40
0.3096847194213513
 40
0.3665125233135332
 40
0.4235187108853633
 40
0.4803720324276358
 40
0.5380321837013081
 40
0.5972742619708022
 40
0.6584306056386232
 40
0.7220421674016113
 40
0.7879120315897793
 40
0.8559727583910859
 40
0.9264611901366914
 40
1.0
 40
1.0
 40
1.0
 40
1.0
 10
2.594129473427726
 20
0.5206582549020461
 30
0.0
 10
2.59229588084524
 20
0.5206139868891435
 30
0.0
 10
2.588716698077064
 20
0.5205275754853915
 30
0.0
 10
2.5835139700408
 20
0.5197474839592694
 30
0.0
 10
2.578601767078392
 20
0.5185617465574837
 30
0.0
 10
2.574039090227788
 20
0.5167919790268857
 30
0.0
 10
2.569803089711977
 20
0.5146019983227332
 30
0.0
 10
2.565894378712136
 20
0.5119904330304075
 30
0.0
 10
2.562335613640844
 20
0.5089623567511194
 30
0.0
 10
2.559137761952205
 20
0.5055279204284259
 30
0.0
 10
2.556266310668496
 20
0.5017360591396088
 30
0.0
 10
2.553828470120572
 20
0.4975188666560446
 30
0.0
 10
2.551645618447085
 20
0.4929849333034825
 30
0.0
 10
2.549894093039905
 20
0.4880740161949052
 30
0.0
 10
2.548467760109637
 20
0.4828630321649344
 30
0.0
 10
2.547550708221602
 20
0.4773509106522248
 30
0.0
 10
2.546873585125402
 20
0.4715916286503492
 30
0.0
 10
2.546820603135925
 20
0.4676558199719444
 30
0.0
 10
2.54679355108378
 20
0.4656462370428652
 30
0.0
  0
SPLINE
  5
197
330
1F
100
AcDbEntity
  8
0
  6
Continuous
 62
     7
370
    25
100
AcDbSpline
210
0.0
220
0.0
230
1.0
 70
     8
 71
     3
 72
    13
 73
     9
 74
     0
 42
0.000000001
 43
0.00000001
 40
0.0
 40
0.0
 40
0.0
 40
0.0
 40
0.2432432115958367
 40
0.4850313067569414
 40
0.6072204693392887
 40
0.7333344144511441
 40
0.8647086109366601
 40
1.0
 40
1.0
 40
1.0
 40
1.0
 10
2.628671903246281
 20
0.5126701229837531
 30
0.0
 10
2.626020795123835
 20
0.5138492505887345
 30
0.0
 10
2.620734438195115
 20
0.5162004520850682
 30
0.0
 10
2.613787752957993
 20
0.5183107416017341
 30
0.0
 10
2.608071435263646
 20
0.5195294995421537
 30
0.0
 10
2.603589233543728
 20
0.5201754970224152
 30
0.0
 10
2.598922160289905
 20
0.5205973554534508
 30
0.0
 10
2.595742604443938
 20
0.520637757257985
 30
0.0
 10
2.594129473427726
 20
0.5206582549020461
 30
0.0
  0
SPLINE
  5
19D
330
1F
100
AcDbEntity
  8
0
  6
Continuous
 62
     7
370
    25
100
AcDbSpline
210
0.0
220
0.0
230
1.0
 70
     8
 71
     3
 72
    19
 73
    15
 74
     0
 42
0.000000001
 43
0.00000001
 40
0.0
 40
0.0
 40
0.0
 40
0.0
 40
0.1285428623689021
 40
0.2501833658111099
 40
0.3676423958125625
 40
0.4828550484702362
 40
0.540503364623393
 40
0.599232879624117
 40
0.659639830638624
 40
0.7216651114752402
 40
0.7863724582546314
 40
0.8542028512456576
 40
0.9255393771011207
 40
1.0
 40
1.0
 40
1.0
 40
1.0
 10
2.151381021128285
 20
0.5015616270348774
 30
0.0
 10
2.151316260526757
 20
0.4997886503077706
 30
0.0
 10
2.151190216770116
 20
0.4963379002862
 30
0.0
 10
2.150175809259952
 20
0.4913467166381173
 30
0.0
 10
2.148482463209214
 20
0.4867476883069877
 30
0.0
 10
2.146519863236258
 20
0.4832366827586198
 30
0.0
 10
2.14460224788787
 20
0.4806786858392707
 30
0.0
 10
2.142936784703288
 20
0.478892983843955
 30
0.0
 10
2.141056423541839
 20
0.4772449133106723
 30
0.0
 10
2.138984639383305
 20
0.4757029464704294
 30
0.0
 10
2.136695076054851
 20
0.4742995957476258
 30
0.0
 10
2.134189348221827
 20
0.4730222435669109
 30
0.0
 10
2.131477021431588
 20
0.4718678928084051
 30
0.0
 10
2.129574174158453
 20
0.4712195607663587
 30
0.0
 10
2.128602363705028
 20
0.4708884486142451
 30
0.0
  0
SPLINE
  5
19E
330
1F
100
AcDbEntity
  8
0
  6
Continuous
 62
     7
370
    25
100
AcDbSpline
210
0.0
220
0.0
230
1.0
 70
     8
 71
     3
 72
    23
 73
    19
 74
     0
 42
0.000000001
 43
0.00000001
 40
0.0
 40
0.0
 40
0.0
 40
0.0
 40
0.0867985091117822
 40
0.1680325757699649
 40
0.2438549343749079
 40
0.3151430648712643
 40
0.3818274405512918
 40
0.4445164656257103
 40
0.5035922754268298
 40
0.5594986595292168
 40
0.6133316326846674
 40
0.6658467966471305
 40
0.7179152797095444
 40
0.7701264042050439
 40
0.8240197862945497
 40
0.8797950640280637
 40
0.9382240930441976
 40
1.0
 40
1.0
 40
1.0
 40
1.0
 10
2.105106022554737
 20
0.5346374857590587
 30
0.0
 10
2.106979205169334
 20
0.5346192010883039
 30
0.0
 10
2.110605485192336
 20
0.5345838039328062
 30
0.0
 10
2.115852341432543
 20
0.534151935137361
 30
0.0
 10
2.120744320154874
 20
0.5335555456651335
 30
0.0
 10
2.125276433773835
 20
0.5326647977911121
 30
0.0
 10
2.129438394857885
 20
0.53146065204422
 30
0.0
 10
2.133270333694969
 20
0.5300865295105789
 30
0.0
 10
2.136719660040828
 20
0.528394420922299
 30
0.0
 10
2.139804180143654
 20
0.526446884647808
 30
0.0
 10
2.142554658312382
 20
0.5242648767233733
 30
0.0
 10
2.1449040020629
 20
0.5217688820256193
 30
0.0
 10
2.14692505916125
 20
0.5190447513560063
 30
0.0
 10
2.148557919500068
 20
0.5160364818991701
 30
0.0
 10
2.149841728274691
 20
0.5127790184528923
 30
0.0
 10
2.15074088809293
 20
0.5092571169006744
 30
0.0
 10
2.151272905433498
 20
0.5054887456068294
 30
0.0
 10
2.151344319764591
 20
0.502894741595742
 30
0.0
 10
2.151381021128285
 20
0.5015616270348774
 30
0.0
  0
SPLINE
  5
1A2
330
1F
100
AcDbEntity
  8
0
  6
Continuous
 62
     7
370
    25
100
AcDbSpline
210
0.0
220
0.0
230
1.0
 70
     8
 71
     3
 72
    23
 73
    19
 74
     0
 42
0.000000001
 43
0.00000001
 40
0.0
 40
0.0
 40
0.0
 40
0.0
 40
0.0633260535318749
 40
0.1236454103603156
 40
0.1812826135194394
 40
0.2379768131268559
 40
0.2935407629237205
 40
0.3486816025440867
 40
0.4043209273922863
 40
0.4610035301292951
 40
0.5191347754940406
 40
0.5793491400874592
 40
0.6418444293279398
 40
0.7078704626648749
 40
0.7766051911033087
 40
0.8476526632479009
 40
0.9221245276930597
 40
1.0
 40
1.0
 40
1.0
 40
1.0
 10
2.155375087087431
 20
0.4385614772574036
 30
0.0
 10
2.155327314811681
 20
0.4369361101911823
 30
0.0
 10
2.155234038469485
 20
0.4337625478628759
 30
0.0
 10
2.154503053865091
 20
0.429156210796844
 30
0.0
 10
2.15332056316804
 20
0.4248243603929245
 30
0.0
 10
2.151631501787952
 20
0.4207911593098757
 30
0.0
 10
2.149480682038327
 20
0.4170643970098784
 30
0.0
 10
2.146985212915058
 20
0.4135901351422288
 30
0.0
 10
2.144022732098493
 20
0.4104611944428765
 30
0.0
 10
2.140664543752127
 20
0.4076469611645669
 30
0.0
 10
2.136927784815488
 20
0.4051412400502216
 30
0.0
 10
2.132822953017855
 20
0.402963507033284
 30
0.0
 10
2.128355803300935
 20
0.4010788093333303
 30
0.0
 10
2.123529710249751
 20
0.399533857788338
 30
0.0
 10
2.118383653983363
 20
0.3983307560369178
 30
0.0
 10
2.112953484484295
 20
0.3974466888570024
 30
0.0
 10
2.107236732376833
 20
0.3969620076675683
 30
0.0
 10
2.10332827195247
 20
0.3968827330292032
 30
0.0
 10
2.101330382077732
 20
0.3968422101685073
 30
0.0
  0
SPLINE
  5
1A3
330
1F
100
AcDbEntity
  8
0
  6
Continuous
 62
     7
370
    25
100
AcDbSpline
210
0.0
220
0.0
230
1.0
 70
     8
 71
     3
 72
    21
 73
    17
 74
     0
 42
0.000000001
 43
0.00000001
 40
0.0
 40
0.0
 40
0.0
 40
0.0
 40
0.1193489637753372
 40
0.2383531199390013
 40
0.2981936897039681
 40
0.3568112946137001
 40
0.4157921536839354
 40
0.4750596628706952
 40
0.5350861696029581
 40
0.5959423628256214
 40
0.6578312767354683
 40
0.7218988600038775
 40
0.7878379443417338
 40
0.8556139880323037
 40
0.9263566339288621
 40
1.0
 40
1.0
 40
1.0
 40
1.0
 10
2.128602363705028
 20
0.4708884486142451
 30
0.0
 10
2.130377634707624
 20
0.470464706036565
 30
0.0
 10
2.133923047829117
 20
0.4696184451035306
 30
0.0
 10
2.138097113118581
 20
0.4677407009916267
 30
0.0
 10
2.141250398516902
 20
0.4659475521326887
 30
0.0
 10
2.143449316171822
 20
0.4643584785466199
 30
0.0
 10
2.145515698274788
 20
0.462616864259669
 30
0.0
 10
2.147423919056494
 20
0.4606710563590283
 30
0.0
 10
2.149175767345998
 20
0.4585476293146158
 30
0.0
 10
2.150748672685008
 20
0.4562363193924426
 30
0.0
 10
2.152076222142432
 20
0.4537089543120443
 30
0.0
 10
2.153285650726396
 20
0.451037206634367
 30
0.0
 10
2.154207565980629
 20
0.4481561381491163
 30
0.0
 10
2.154903686584608
 20
0.4451105659956234
 30
0.0
 10
2.155312800791214
 20
0.4418906650347708
 30
0.0
 10
2.155354048764272
 20
0.4396859706463841
 30
0.0
 10
2.155375087087431
 20
0.4385614772574036
 30
0.0
  0
SPLINE
  5
1F8
330
1F
100
AcDbEntity
  8
0
  6
Continuous
 62
     7
370
    25
100
AcDbSpline
210
0.0
220
0.0
230
1.0
 70
     8
 71
     3
 72
    23
 73
    19
 74
     0
 42
0.000000001
 43
0.00000001
 40
0.0
 40
0.0
 40
0.0
 40
0.0
 40
0.0742252771806091
 40
0.1452246251349341
 40
0.2126888929148227
 40
0.2779431301589962
 40
0.3406829667072273
 40
0.4014210807773974
 40
0.4601092411464427
 40
0.5180957302352653
 40
0.5755133445412524
 40
0.6326683894261576
 40
0.6904145715872785
 40
0.7491594371175414
 40
0.8094359727667946
 40
0.8709469375778517
 40
0.9344445163449592
 40
1.0
 40
1.0
 40
1.0
 40
1.0
 10
2.526823221288047
 20
0.4642108695887974
 30
0.0
 10
2.526883916734574
 20
0.4669695433151326
 30
0.0
 10
2.527002669722828
 20
0.4723669951400942
 30
0.0
 10
2.527905137120404
 20
0.480232278152984
 30
0.0
 10
2.529441172984461
 20
0.4876547093824536
 30
0.0
 10
2.531549316676526
 20
0.494616501481361
 30
0.0
 10
2.534234782475348
 20
0.501109324690606
 30
0.0
 10
2.53746247359012
 20
0.5070710395993286
 30
0.0
 10
2.541121012760854
 20
0.5125701745052613
 30
0.0
 10
2.545323342417683
 20
0.5175074629088956
 30
0.0
 10
2.549983293190706
 20
0.5219315202019108
 30
0.0
 10
2.555113142321954
 20
0.5257849412499527
 30
0.0
 10
2.560652523634119
 20
0.5291202933278106
 30
0.0
 10
2.566652764751406
 20
0.5318271700851899
 30
0.0
 10
2.573019227540165
 20
0.5339729647571086
 30
0.0
 10
2.579732869850961
 20
0.5355485959542126
 30
0.0
 10
2.586771906721843
 20
0.5364505671027856
 30
0.0
 10
2.591568247030755
 20
0.5365725531225268
 30
0.0
 10
2.594004658866502
 20
0.5366345187386319
 30
0.0
  0
SPLINE
  5
1FC
330
1F
100
AcDbEntity
  8
0
  6
Continuous
 62
     7
370
    25
100
AcDbSpline
210
0.0
220
0.0
230
1.0
 70
     8
 71
     3
 72
    23
 73
    19
 74
     0
 42
0.000000001
 43
0.00000001
 40
0.0
 40
0.0
 40
0.0
 40
0.0
 40
0.0592778177595662
 40
0.116391397369272
 40
0.1721478876575115
 40
0.2264759683575397
 40
0.2808040490575704
 40
0.3347372846926022
 40
0.3892243701867808
 40
0.4460431565357303
 40
0.5044213316927056
 40
0.5647247417857322
 40
0.6287090369173702
 40
0.6959470142967955
 40
0.7662050871176777
 40
0.8405626643936539
 40
0.9179353860272985
 40
1.0
 40
1.0
 40
1.0
 40
1.0
 10
2.135404757291699
 20
0.4378437935303697
 30
0.0
 10
2.135384048137654
 20
0.4387087432087903
 30
0.0
 10
2.135343385922533
 20
0.4404070631795721
 30
0.0
 10
2.134925793902
 20
0.4428907436559227
 30
0.0
 10
2.134241316143805
 20
0.4452362484683476
 30
0.0
 10
2.133290805731408
 20
0.447442362788294
 30
0.0
 10
2.132116806618199
 20
0.4495099792191414
 30
0.0
 10
2.130655193968023
 20
0.4513871056735311
 30
0.0
 10
2.128989105361146
 20
0.4531343786798631
 30
0.0
 10
2.127050398093996
 20
0.4546833928582117
 30
0.0
 10
2.12488220984652
 20
0.4560487532727528
 30
0.0
 10
2.122518219159042
 20
0.4572824389674425
 30
0.0
 10
2.119928298957785
 20
0.4583381814840351
 30
0.0
 10
2.117117605811801
 20
0.4592029539954695
 30
0.0
 10
2.114103512317754
 20
0.4598924641323835
 30
0.0
 10
2.11090127333919
 20
0.4603758762494136
 30
0.0
 10
2.107505212402958
 20
0.460707329104164
 30
0.0
 10
2.105179676945501
 20
0.4607336947501744
 30
0.0
 10
2.103982691503727
 20
0.4607472655148505
 30
0.0
  0
SPLINE
  5
1FD
330
1F
100
AcDbEntity
  8
0
  6
Continuous
 62
     7
370
    25
100
AcDbSpline
210
0.0
220
0.0
230
1.0
 70
     8
 71
     3
 72
    23
 73
    19
 74
     0
 42
0.000000001
 43
0.00000001
 40
0.0
 40
0.0
 40
0.0
 40
0.0
 40
0.0829188246341178
 40
0.1598938815039352
 40
0.2325564233819792
 40
0.3006958272261037
 40
0.3637556764832331
 40
0.4236747435210383
 40
0.4807003096789212
 40
0.5348597706980012
 40
0.5877167410054575
 40
0.6406978721524935
 40
0.6942911149704579
 40
0.749752095511325
 40
0.8069461275197133
 40
0.8672827812805199
 40
0.9314383149165598
 40
1.0
 40
1.0
 40
1.0
 40
1.0
 10
2.104606764309844
 20
0.4128184740050931
 30
0.0
 10
2.105865957194474
 20
0.4128345339852247
 30
0.0
 10
2.108294081794336
 20
0.4128655027377544
 30
0.0
 10
2.111815166824577
 20
0.4131562454898426
 30
0.0
 10
2.115094610005203
 20
0.4136005507485338
 30
0.0
 10
2.11811488342004
 20
0.4142947824494264
 30
0.0
 10
2.120893483419597
 20
0.4151366452866145
 30
0.0
 10
2.123438814117443
 20
0.4161492778465692
 30
0.0
 10
2.125713572913181
 20
0.4174134398704882
 30
0.0
 10
2.127782001897149
 20
0.4188116396988673
 30
0.0
 10
2.129574347433623
 20
0.4204627910635044
 30
0.0
 10
2.131152081225299
 20
0.4223077683749192
 30
0.0
 10
2.132464168708629
 20
0.4243975830474695
 30
0.0
 10
2.13355891313106
 20
0.4266776354572463
 30
0.0
 10
2.134405566462283
 20
0.4291706989990579
 30
0.0
 10
2.134992190094539
 20
0.4318711105245298
 30
0.0
 10
2.135330605444489
 20
0.4347876206307396
 30
0.0
 10
2.135379498928798
 20
0.4368027685647826
 30
0.0
 10
2.135404757291699
 20
0.4378437935303697
 30
0.0
  0
SPLINE
  5
201
330
1F
100
AcDbEntity
  8
0
  6
Continuous
 62
     7
370
    25
100
AcDbSpline
210
0.0
220
0.0
230
1.0
 70
     8
 71
     3
 72
    23
 73
    19
 74
     0
 42
0.000000001
 43
0.00000001
 40
0.0
 40
0.0
 40
0.0
 40
0.0
 40
0.0710054063752109
 40
0.137576215210734
 40
0.2003032527046583
 40
0.2604031925983391
 40
0.3177152079427041
 40
0.3738306474914155
 40
0.429499703754267
 40
0.484881186558957
 40
0.5408363383570537
 40
0.5986108345938576
 40
0.6580876144126
 40
0.7194853567469407
 40
0.7841756976171704
 40
0.8520284023422433
 40
0.9241032974735374
 40
1.0
 40
1.0
 40
1.0
 40
1.0
 10
2.836363333121894
 20
0.4964442300247212
 30
0.0
 10
2.836348723544539
 20
0.4973500358233063
 30
0.0
 10
2.836320416821701
 20
0.4991050758948599
 30
0.0
 10
2.836007107598272
 20
0.5016455545493168
 30
0.0
 10
2.835470982512703
 20
0.5040042614636818
 30
0.0
 10
2.834756815637841
 20
0.5061899444224977
 30
0.0
 10
2.833864539974881
 20
0.5082231960972792
 30
0.0
 10
2.832681169920534
 20
0.5100339397345243
 30
0.0
 10
2.831345471275364
 20
0.5116999482488932
 30
0.0
 10
2.829802614399232
 20
0.5131775979873692
 30
0.0
 10
2.828065050248077
 20
0.5144630427629548
 30
0.0
 10
2.826155936658458
 20
0.5155802579168605
 30
0.0
 10
2.824092972926659
 20
0.5165542303586823
 30
0.0
 10
2.821855970412646
 20
0.5173402629474724
 30
0.0
 10
2.819447813415095
 20
0.5179149211670452
 30
0.0
 10
2.816875215032953
 20
0.5183629579333492
 30
0.0
 10
2.814130013190287
 20
0.5186011554280326
 30
0.0
 10
2.812243318445184
 20
0.5186408579457212
 30
0.0
 10
2.811275606316006
 20
0.5186612219224729
 30
0.0
  0
SPLINE
  5
202
330
1F
100
AcDbEntity
  8
0
  6
Continuous
 62
     7
370
    25
100
AcDbSpline
210
0.0
220
0.0
230
1.0
 70
     8
 71
     3
 72
    23
 73
    19
 74
     0
 42
0.000000001
 43
0.00000001
 40
0.0
 40
0.0
 40
0.0
 40
0.0
 40
0.0751634739249741
 40
0.1468242857502646
 40
0.2147004565817484
 40
0.2804081309117789
 40
0.3432989837089027
 40
0.403724026895862
 40
0.4619008746627838
 40
0.5192753134656047
 40
0.5756421721734671
 40
0.6321926367705115
 40
0.6886003484344204
 40
0.7462950936411863
 40
0.8063376960038228
 40
0.8679986302426618
 40
0.9323916198461167
 40
1.0
 40
1.0
 40
1.0
 40
1.0
 10
2.808872926012457
 20
0.4727294633922887
 30
0.0
 10
2.809903072186716
 20
0.4727478743122754
 30
0.0
 10
2.81191535911753
 20
0.472783838192546
 30
0.0
 10
2.814850785051243
 20
0.4730505697485801
 30
0.0
 10
2.817616213188992
 20
0.4735767923639236
 30
0.0
 10
2.820239082173873
 20
0.4741990970709496
 30
0.0
 10
2.822681232315702
 20
0.4750816893832213
 30
0.0
 10
2.82493016526475
 20
0.4761494667931353
 30
0.0
 10
2.82702372638488
 20
0.4773584142599742
 30
0.0
 10
2.828886870770408
 20
0.478809961383018
 30
0.0
 10
2.830595109895475
 20
0.4804061055942254
 30
0.0
 10
2.832090178958334
 20
0.4821880307027817
 30
0.0
 10
2.833390769718609
 20
0.4841396707546815
 30
0.0
 10
2.834440818424324
 20
0.486287646009328
 30
0.0
 10
2.835337525083856
 20
0.4885839012847638
 30
0.0
 10
2.835901889049742
 20
0.4910772512842888
 30
0.0
 10
2.836299602035843
 20
0.493706341661964
 30
0.0
 10
2.836341747224937
 20
0.4955168995845469
 30
0.0
 10
2.836363333121895
 20
0.4964442300247212
 30
0.0
  0
SPLINE
  5
206
330
1F
100
AcDbEntity
  8
0
  6
Continuous
 62
     7
370
    25
100
AcDbSpline
210
0.0
220
0.0
230
1.0
 70
     8
 71
     3
 72
    21
 73
    17
 74
     0
 42
0.000000001
 43
0.00000001
 40
0.0
 40
0.0
 40
0.0
 40
0.0
 40
0.1481099039642273
 40
0.2834111377086895
 40
0.3473298973787515
 40
0.4080164734869347
 40
0.4665361356180682
 40
0.5238711608478812
 40
0.5798789656630172
 40
0.6357582137558793
 40
0.6911959771072469
 40
0.747667346791907
 40
0.8060331849591
 40
0.8668726428551391
 40
0.9310300546049198
 40
1.0
 40
1.0
 40
1.0
 40
1.0
 10
2.103733062381281
 20
0.4767235293514351
 30
0.0
 10
2.10572409337011
 20
0.4767875595888477
 30
0.0
 10
2.109533969297743
 20
0.4769100826743887
 30
0.0
 10
2.114143877918209
 20
0.4777385002567974
 30
0.0
 10
2.117504902277172
 20
0.4787128850751738
 30
0.0
 10
2.119752217375174
 20
0.4797231670094917
 30
0.0
 10
2.121878300854666
 20
0.4807837599416096
 30
0.0
 10
2.123772506710919
 20
0.4821158690094396
 30
0.0
 10
2.125513127403521
 20
0.4835839170721531
 30
0.0
 10
2.127040564478062
 20
0.4852414177173207
 30
0.0
 10
2.128371150162877
 20
0.4870682202822935
 30
0.0
 10
2.129464627051628
 20
0.4890843613435235
 30
0.0
 10
2.130347320395932
 20
0.4912798567974241
 30
0.0
 10
2.13096365413084
 20
0.4936707499720297
 30
0.0
 10
2.13134662376777
 20
0.4962550364118704
 30
0.0
 10
2.131388826931647
 20
0.4980445979382568
 30
0.0
 10
2.131410691332552
 20
0.4989717248894939
 30
0.0
  0
SPLINE
  5
207
330
1F
100
AcDbEntity
  8
0
  6
Continuous
 62
     7
370
    25
100
AcDbSpline
210
0.0
220
0.0
230
1.0
 70
     8
 71
     3
 72
    21
 73
    17
 74
     0
 42
0.000000001
 43
0.00000001
 40
0.0
 40
0.0
 40
0.0
 40
0.0
 40
0.1048107603491781
 40
0.2057872535497624
 40
0.2552082568884605
 40
0.3053322017717602
 40
0.3546722312657828
 40
0.4066370344808519
 40
0.4608426921562795
 40
0.5189640449736423
 40
0.5822085159551534
 40
0.6511354365166087
 40
0.7259770992546093
 40
0.8086500759068579
 40
0.9003756127110932
 40
1.0
 40
1.0
 40
1.0
 40
1.0
 10
2.131410691332553
 20
0.4989717248894939
 30
0.0
 10
2.131353379693448
 20
0.5003086845488315
 30
0.0
 10
2.131240853033317
 20
0.5029336941898778
 30
0.0
 10
2.130431503912658
 20
0.5061087352896563
 30
0.0
 10
2.129483664244557
 20
0.5084853796125253
 30
0.0
 10
2.128524288517123
 20
0.5101321918327031
 30
0.0
 10
2.127298604617456
 20
0.5116306610415962
 30
0.0
 10
2.125858433850036
 20
0.512996789762057
 30
0.0
 10
2.124190031597531
 20
0.5142711532342163
 30
0.0
 10
2.122224883622683
 20
0.5153532624414355
 30
0.0
 10
2.119997872541583
 20
0.5163178709149164
 30
0.0
 10
2.117494406310721
 20
0.517158431840842
 30
0.0
 10
2.114689792395656
 20
0.5178491781802907
 30
0.0
 10
2.111549277849043
 20
0.5183447481603027
 30
0.0
 10
2.108064634489943
 20
0.5186101197239251
 30
0.0
 10
2.105626516476198
 20
0.5186437254459098
 30
0.0
 10
2.104357135187397
 20
0.5186612219224729
 30
0.0
  0
LINE
  5
214
330
1F
100
AcDbEntity
  8
0
  6
Continuous
 62
     7
370
    25
100
AcDbLine
 10
1.9416925583
 20
0.5346374858
 30
0.0
 11
2.0415442073
 21
0.5346374858
 31
0.0
  0
LINE
  5
215
330
1F
100
AcDbEntity
  8
0
  6
Continuous
 62
     7
370
    25
100
AcDbLine
 10
1.9416925583
 20
0.5186612219
 30
0.0
 11
1.9416925583
 21
0.5346374858
 31
0.0
  0
LINE
  5
216
330
1F
100
AcDbEntity
  8
0
  6
Continuous
 62
     7
370
    25
100
AcDbLine
 10
1.9816332179
 20
0.5186612219
 30
0.0
 11
1.9416925583
 21
0.5186612219
 31
0.0
  0
LINE
  5
217
330
1F
100
AcDbEntity
  8
0
  6
Continuous
 62
     7
370
    25
100
AcDbLine
 10
1.9816332179
 20
0.3968422102
 30
0.0
 11
1.9816332179
 21
0.5186612219
 31
0.0
  0
LINE
  5
218
330
1F
100
AcDbEntity
  8
0
  6
Continuous
 62
     7
370
    25
100
AcDbLine
 10
2.0016035477
 20
0.3968422102
 30
0.0
 11
1.9816332179
 21
0.3968422102
 31
0.0
  0
LINE
  5
219
330
1F
100
AcDbEntity
  8
0
  6
Continuous
 62
     7
370
    25
100
AcDbLine
 10
2.0016035477
 20
0.5186612219
 30
0.0
 11
2.0016035477
 21
0.3968422102
 31
0.0
  0
LINE
  5
21A
330
1F
100
AcDbEntity
  8
0
  6
Continuous
 62
     7
370
    25
100
AcDbLine
 10
2.0415442073
 20
0.5186612219
 30
0.0
 11
2.0016035477
 21
0.5186612219
 31
0.0
  0
LINE
  5
21B
330
1F
100
AcDbEntity
  8
0
  6
Continuous
 62
     7
370
    25
100
AcDbLine
 10
2.0415442073
 20
0.5346374858
 30
0.0
 11
2.0415442073
 21
0.5186612219
 31
0.0
  0
LINE
  5
21C
330
1F
100
AcDbEntity
  8
0
  6
Continuous
 62
     7
370
    25
100
AcDbLine
 10
2.1853305818
 20
0.412818474
 30
0.0
 11
2.2172831095
 21
0.412818474
 31
0.0
  0
LINE
  5
21D
330
1F
100
AcDbEntity
  8
0
  6
Continuous
 62
     7
370
    25
100
AcDbLine
 10
2.1853305818
 20
0.3968422102
 30
0.0
 11
2.1853305818
 21
0.412818474
 31
0.0
  0
LINE
  5
21E
330
1F
100
AcDbEntity
  8
0
  6
Continuous
 62
     7
370
    25
100
AcDbLine
 10
2.2692059669
 20
0.3968422102
 30
0.0
 11
2.1853305818
 21
0.3968422102
 31
0.0
  0
LINE
  5
21F
330
1F
100
AcDbEntity
  8
0
  6
Continuous
 62
     7
370
    25
100
AcDbLine
 10
2.2692059669
 20
0.412818474
 30
0.0
 11
2.2692059669
 21
0.3968422102
 31
0.0
  0
LINE
  5
220
330
1F
100
AcDbEntity
  8
0
  6
Continuous
 62
     7
370
    25
100
AcDbLine
 10
2.2372534392
 20
0.412818474
 30
0.0
 11
2.2692059669
 21
0.412818474
 31
0.0
  0
LINE
  5
221
330
1F
100
AcDbEntity
  8
0
  6
Continuous
 62
     7
370
    25
100
AcDbLine
 10
2.2372534392
 20
0.5186612219
 30
0.0
 11
2.2372534392
 21
0.412818474
 31
0.0
  0
LINE
  5
222
330
1F
100
AcDbEntity
  8
0
  6
Continuous
 62
     7
370
    25
100
AcDbLine
 10
2.2692059669
 20
0.5186612219
 30
0.0
 11
2.2372534392
 21
0.5186612219
 31
0.0
  0
LINE
  5
223
330
1F
100
AcDbEntity
  8
0
  6
Continuous
 62
     7
370
    25
100
AcDbLine
 10
2.2692059669
 20
0.5346374858
 30
0.0
 11
2.2692059669
 21
0.5186612219
 31
0.0
  0
LINE
  5
224
330
1F
100
AcDbEntity
  8
0
  6
Continuous
 62
     7
370
    25
100
AcDbLine
 10
2.1853305818
 20
0.5346374858
 30
0.0
 11
2.2692059669
 21
0.5346374858
 31
0.0
  0
LINE
  5
225
330
1F
100
AcDbEntity
  8
0
  6
Continuous
 62
     7
370
    25
100
AcDbLine
 10
2.1853305818
 20
0.5186612219
 30
0.0
 11
2.1853305818
 21
0.5346374858
 31
0.0
  0
LINE
  5
226
330
1F
100
AcDbEntity
  8
0
  6
Continuous
 62
     7
370
    25
100
AcDbLine
 10
2.2172831095
 20
0.5186612219
 30
0.0
 11
2.1853305818
 21
0.5186612219
 31
0.0
  0
LINE
  5
227
330
1F
100
AcDbEntity
  8
0
  6
Continuous
 62
     7
370
    25
100
AcDbLine
 10
2.2172831095
 20
0.412818474
 30
0.0
 11
2.2172831095
 21
0.5186612219
 31
0.0
  0
LINE
  5
228
330
1F
100
AcDbEntity
  8
0
  6
Continuous
 62
     7
370
    25
100
AcDbLine
 10
2.449812637
 20
0.5346374858
 30
0.0
 11
2.475493233
 21
0.5346374858
 31
0.0
  0
LINE
  5
229
330
1F
100
AcDbEntity
  8
0
  6
Continuous
 62
     7
370
    25
100
AcDbLine
 10
2.404005693
 20
0.3968422102
 30
0.0
 11
2.449812637
 21
0.5346374858
 31
0.0
  0
LINE
  5
22A
330
1F
100
AcDbEntity
  8
0
  6
Continuous
 62
     7
370
    25
100
AcDbLine
 10
2.4234767646
 20
0.3968422102
 30
0.0
 11
2.404005693
 21
0.3968422102
 31
0.0
  0
LINE
  5
22B
330
1F
100
AcDbEntity
  8
0
  6
Continuous
 62
     7
370
    25
100
AcDbLine
 10
2.4329314676
 20
0.4267977049
 30
0.0
 11
2.4234767646
 21
0.3968422102
 31
0.0
  0
LINE
  5
22C
330
1F
100
AcDbEntity
  8
0
  6
Continuous
 62
     7
370
    25
100
AcDbLine
 10
2.4901589439
 20
0.4267977049
 30
0.0
 11
2.4329314676
 21
0.4267977049
 31
0.0
  0
LINE
  5
22D
330
1F
100
AcDbEntity
  8
0
  6
Continuous
 62
     7
370
    25
100
AcDbLine
 10
2.4993952215
 20
0.3968422102
 30
0.0
 11
2.4901589439
 21
0.4267977049
 31
0.0
  0
LINE
  5
22E
330
1F
100
AcDbEntity
  8
0
  6
Continuous
 62
     7
370
    25
100
AcDbLine
 10
2.5198336059
 20
0.3968422102
 30
0.0
 11
2.4993952215
 21
0.3968422102
 31
0.0
  0
LINE
  5
22F
330
1F
100
AcDbEntity
  8
0
  6
Continuous
 62
     7
370
    25
100
AcDbLine
 10
2.475493233
 20
0.5346374858
 30
0.0
 11
2.5198336059
 21
0.3968422102
 31
0.0
  0
LINE
  5
230
330
1F
100
AcDbEntity
  8
0
  6
Continuous
 62
     7
370
    25
100
AcDbLine
 10
2.6854625286
 20
0.5346374858
 30
0.0
 11
2.7111431246
 21
0.5346374858
 31
0.0
  0
LINE
  5
231
330
1F
100
AcDbEntity
  8
0
  6
Continuous
 62
     7
370
    25
100
AcDbLine
 10
2.6396555846
 20
0.3968422102
 30
0.0
 11
2.6854625286
 21
0.5346374858
 31
0.0
  0
LINE
  5
232
330
1F
100
AcDbEntity
  8
0
  6
Continuous
 62
     7
370
    25
100
AcDbLine
 10
2.6591266562
 20
0.3968422102
 30
0.0
 11
2.6396555846
 21
0.3968422102
 31
0.0
  0
LINE
  5
233
330
1F
100
AcDbEntity
  8
0
  6
Continuous
 62
     7
370
    25
100
AcDbLine
 10
2.6685813592
 20
0.4267977049
 30
0.0
 11
2.6591266562
 21
0.3968422102
 31
0.0
  0
LINE
  5
234
330
1F
100
AcDbEntity
  8
0
  6
Continuous
 62
     7
370
    25
100
AcDbLine
 10
2.7258088355
 20
0.4267977049
 30
0.0
 11
2.6685813592
 21
0.4267977049
 31
0.0
  0
LINE
  5
235
330
1F
100
AcDbEntity
  8
0
  6
Continuous
 62
     7
370
    25
100
AcDbLine
 10
2.735045113
 20
0.3968422102
 30
0.0
 11
2.7258088355
 21
0.4267977049
 31
0.0
  0
LINE
  5
236
330
1F
100
AcDbEntity
  8
0
  6
Continuous
 62
     7
370
    25
100
AcDbLine
 10
2.7554834974
 20
0.3968422102
 30
0.0
 11
2.735045113
 21
0.3968422102
 31
0.0
  0
LINE
  5
237
330
1F
100
AcDbEntity
  8
0
  6
Continuous
 62
     7
370
    25
100
AcDbLine
 10
2.7111431246
 20
0.5346374858
 30
0.0
 11
2.7554834974
 21
0.3968422102
 31
0.0
  0
LINE
  5
238
330
1F
100
AcDbEntity
  8
0
  6
Continuous
 62
     7
370
    25
100
AcDbLine
 10
11.56102362
 20
5.852362205
 30
0.0
 11
11.3552173691
 21
5.852362205
 31
0.0
  0
LINE
  5
239
330
1F
100
AcDbEntity
  8
0
  6
Continuous
 62
     7
370
    25
100
AcDbLine
 10
11.56102362
 20
5.458661415
 30
0.0
 11
11.56102362
 21
5.852362205
 31
0.0
  0
LINE
  5
23A
330
1F
100
AcDbEntity
  8
0
  6
Continuous
 62
     7
370
    25
100
AcDbLine
 10
11.3552173691
 20
5.458661415
 30
0.0
 11
11.56102362
 21
5.458661415
 31
0.0
  0
LINE
  5
23B
330
1F
100
AcDbEntity
  8
0
  6
Continuous
 62
     7
370
    25
100
AcDbLine
 10
11.31102362
 20
2.1563984738
 30
0.0
 11
11.31102362
 21
5.4144676659
 31
0.0
  0
LINE
  5
23C
330
1F
100
AcDbEntity
  8
0
  6
Continuous
 62
     7
370
    25
100
AcDbLine
 10
11.56102362
 20
2.1122047247
 30
0.0
 11
11.3552173691
 21
2.1122047247
 31
0.0
  0
LINE
  5
23D
330
1F
100
AcDbEntity
  8
0
  6
Continuous
 62
     7
370
    25
100
AcDbLine
 10
11.56102362
 20
1.7185039347
 30
0.0
 11
11.56102362
 21
2.1122047247
 31
0.0
  0
LINE
  5
23E
330
1F
100
AcDbEntity
  8
0
  6
Continuous
 62
     7
370
    25
100
AcDbLine
 10
11.3552173691
 20
1.7185039347
 30
0.0
 11
11.56102362
 21
1.7185039347
 31
0.0
  0
LINE
  5
23F
330
1F
100
AcDbEntity
  8
0
  6
Continuous
 62
     7
370
    25
100
AcDbLine
 10
11.31102362
 20
0.0
 30
0.0
 11
11.31102362
 21
1.6743101856
 31
0.0
  0
LINE
  5
240
330
1F
100
AcDbEntity
  8
0
  6
Continuous
 62
     7
370
    25
100
AcDbLine
 10
9.6367134344
 20
0.0
 30
0.0
 11
11.31102362
 21
0.0
 31
0.0
  0
LINE
  5
241
330
1F
100
AcDbEntity
  8
0
  6
Continuous
 62
     7
370
    25
100
AcDbLine
 10
9.5925196853
 20
-0.25
 30
0.0
 11
9.5925196853
 21
-0.0441937491
 31
0.0
  0
LINE
  5
242
330
1F
100
AcDbEntity
  8
0
  6
Continuous
 62
     7
370
    25
100
AcDbLine
 10
9.1988188953
 20
-0.25
 30
0.0
 11
9.5925196853
 21
-0.25
 31
0.0
  0
LINE
  5
243
330
1F
100
AcDbEntity
  8
0
  6
Continuous
 62
     7
370
    25
100
AcDbLine
 10
9.1988188953
 20
-0.0441937491
 30
0.0
 11
9.1988188953
 21
-0.25
 31
0.0
  0
LINE
  5
244
330
1F
100
AcDbEntity
  8
0
  6
Continuous
 62
     7
370
    25
100
AcDbLine
 10
5.8965559541
 20
0.0
 30
0.0
 11
9.1546251462
 21
0.0
 31
0.0
  0
LINE
  5
245
330
1F
100
AcDbEntity
  8
0
  6
Continuous
 62
     7
370
    25
100
AcDbLine
 10
5.852362205
 20
-0.25
 30
0.0
 11
5.852362205
 21
-0.0441937491
 31
0.0
  0
LINE
  5
246
330
1F
100
AcDbEntity
  8
0
  6
Continuous
 62
     7
370
    25
100
AcDbLine
 10
5.458661415
 20
-0.25
 30
0.0
 11
5.852362205
 21
-0.25
 31
0.0
  0
LINE
  5
247
330
1F
100
AcDbEntity
  8
0
  6
Continuous
 62
     7
370
    25
100
AcDbLine
 10
5.458661415
 20
-0.0441937491
 30
0.0
 11
5.458661415
 21
-0.25
 31
0.0
  0
LINE
  5
248
330
1F
100
AcDbEntity
  8
0
  6
Continuous
 62
     7
370
    25
100
AcDbLine
 10
2.1563984738
 20
0.0
 30
0.0
 11
5.4144676659
 21
0.0
 31
0.0
  0
LINE
  5
249
330
1F
100
AcDbEntity
  8
0
  6
Continuous
 62
     7
370
    25
100
AcDbLine
 10
2.1122047247
 20
-0.25
 30
0.0
 11
2.1122047247
 21
-0.0441937491
 31
0.0
  0
LINE
  5
24A
330
1F
100
AcDbEntity
  8
0
  6
Continuous
 62
     7
370
    25
100
AcDbLine
 10
1.7185039347
 20
-0.25
 30
0.0
 11
2.1122047247
 21
-0.25
 31
0.0
  0
LINE
  5
24B
330
1F
100
AcDbEntity
  8
0
  6
Continuous
 62
     7
370
    25
100
AcDbLine
 10
1.7185039347
 20
-0.0441937491
 30
0.0
 11
1.7185039347
 21
-0.25
 31
0.0
  0
LINE
  5
24C
330
1F
100
AcDbEntity
  8
0
  6
Continuous
 62
     7
370
    25
100
AcDbLine
 10
0.0
 20
0.0
 30
0.0
 11
1.6743101856
 21
0.0
 31
0.0
  0
LINE
  5
24D
330
1F
100
AcDbEntity
  8
0
  6
Continuous
 62
     7
370
    25
100
AcDbLine
 10
0.0
 20
1.6743101856
 30
0.0
 11
0.0
 21
0.0
 31
0.0
  0
LINE
  5
24E
330
1F
100
AcDbEntity
  8
0
  6
Continuous
 62
     7
370
    25
100
AcDbLine
 10
-0.25
 20
1.7185039347
 30
0.0
 11
-0.0441937491
 21
1.7185039347
 31
0.0
  0
LINE
  5
24F
330
1F
100
AcDbEntity
  8
0
  6
Continuous
 62
     7
370
    25
100
AcDbLine
 10
-0.25
 20
2.1122047247
 30
0.0
 11
-0.25
 21
1.7185039347
 31
0.0
  0
LINE
  5
250
330
1F
100
AcDbEntity
  8
0
  6
Continuous
 62
     7
370
    25
100
AcDbLine
 10
-0.0441937491
 20
2.1122047247
 30
0.0
 11
-0.25
 21
2.1122047247
 31
0.0
  0
LINE
  5
251
330
1F
100
AcDbEntity
  8
0
  6
Continuous
 62
     7
370
    25
100
AcDbLine
 10
0.0
 20
5.4144676659
 30
0.0
 11
0.0
 21
2.1563984738
 31
0.0
  0
LINE
  5
252
330
1F
100
AcDbEntity
  8
0
  6
Continuous
 62
     7
370
    25
100
AcDbLine
 10
-0.25
 20
5.458661415
 30
0.0
 11
-0.0441937491
 21
5.458661415
 31
0.0
  0
LINE
  5
253
330
1F
100
AcDbEntity
  8
0
  6
Continuous
 62
     7
370
    25
100
AcDbLine
 10
-0.25
 20
5.852362205
 30
0.0
 11
-0.25
 21
5.458661415
 31
0.0
  0
LINE
  5
254
330
1F
100
AcDbEntity
  8
0
  6
Continuous
 62
     7
370
    25
100
AcDbLine
 10
-0.0441937491
 20
5.852362205
 30
0.0
 11
-0.25
 21
5.852362205
 31
0.0
  0
LINE
  5
255
330
1F
100
AcDbEntity
  8
0
  6
Continuous
 62
     7
370
    25
100
AcDbLine
 10
0.0
 20
9.1546251462
 30
0.0
 11
0.0
 21
5.8965559541
 31
0.0
  0
LINE
  5
256
330
1F
100
AcDbEntity
  8
0
  6
Continuous
 62
     7
370
    25
100
AcDbLine
 10
-0.25
 20
9.1988188953
 30
0.0
 11
-0.0441937491
 21
9.1988188953
 31
0.0
  0
LINE
  5
257
330
1F
100
AcDbEntity
  8
0
  6
Continuous
 62
     7
370
    25
100
AcDbLine
 10
-0.25
 20
9.5925196853
 30
0.0
 11
-0.25
 21
9.1988188953
 31
0.0
  0
LINE
  5
258
330
1F
100
AcDbEntity
  8
0
  6
Continuous
 62
     7
370
    25
100
AcDbLine
 10
-0.0441937491
 20
9.5925196853
 30
0.0
 11
-0.25
 21
9.5925196853
 31
0.0
  0
LINE
  5
259
330
1F
100
AcDbEntity
  8
0
  6
Continuous
 62
     7
370
    25
100
AcDbLine
 10
0.0
 20
11.31102362
 30
0.0
 11
0.0
 21
9.6367134344
 31
0.0
  0
LINE
  5
25A
330
1F
100
AcDbEntity
  8
0
  6
Continuous
 62
     7
370
    25
100
AcDbLine
 10
1.6743101856
 20
11.31102362
 30
0.0
 11
0.0
 21
11.31102362
 31
0.0
  0
LINE
  5
25B
330
1F
100
AcDbEntity
  8
0
  6
Continuous
 62
     7
370
    25
100
AcDbLine
 10
1.7185039347
 20
11.56102362
 30
0.0
 11
1.7185039347
 21
11.3552173691
 31
0.0
  0
LINE
  5
25C
330
1F
100
AcDbEntity
  8
0
  6
Continuous
 62
     7
370
    25
100
AcDbLine
 10
2.1122047247
 20
11.56102362
 30
0.0
 11
1.7185039347
 21
11.56102362
 31
0.0
  0
LINE
  5
25D
330
1F
100
AcDbEntity
  8
0
  6
Continuous
 62
     7
370
    25
100
AcDbLine
 10
2.1122047247
 20
11.3552173691
 30
0.0
 11
2.1122047247
 21
11.56102362
 31
0.0
  0
LINE
  5
25E
330
1F
100
AcDbEntity
  8
0
  6
Continuous
 62
     7
370
    25
100
AcDbLine
 10
5.4144676659
 20
11.31102362
 30
0.0
 11
2.1563984738
 21
11.31102362
 31
0.0
  0
LINE
  5
25F
330
1F
100
AcDbEntity
  8
0
  6
Continuous
 62
     7
370
    25
100
AcDbLine
 10
5.458661415
 20
11.56102362
 30
0.0
 11
5.458661415
 21
11.3552173691
 31
0.0
  0
LINE
  5
260
330
1F
100
AcDbEntity
  8
0
  6
Continuous
 62
     7
370
    25
100
AcDbLine
 10
5.852362205
 20
11.56102362
 30
0.0
 11
5.458661415
 21
11.56102362
 31
0.0
  0
LINE
  5
261
330
1F
100
AcDbEntity
  8
0
  6
Continuous
 62
     7
370
    25
100
AcDbLine
 10
5.852362205
 20
11.3552173691
 30
0.0
 11
5.852362205
 21
11.56102362
 31
0.0
  0
LINE
  5
262
330
1F
100
AcDbEntity
  8
0
  6
Continuous
 62
     7
370
    25
100
AcDbLine
 10
9.1546251462
 20
11.31102362
 30
0.0
 11
5.8965559541
 21
11.31102362
 31
0.0
  0
LINE
  5
263
330
1F
100
AcDbEntity
  8
0
  6
Continuous
 62
     7
370
    25
100
AcDbLine
 10
9.1988188953
 20
11.56102362
 30
0.0
 11
9.1988188953
 21
11.3552173691
 31
0.0
  0
LINE
  5
264
330
1F
100
AcDbEntity
  8
0
  6
Continuous
 62
     7
370
    25
100
AcDbLine
 10
9.5925196853
 20
11.56102362
 30
0.0
 11
9.1988188953
 21
11.56102362
 31
0.0
  0
LINE
  5
265
330
1F
100
AcDbEntity
  8
0
  6
Continuous
 62
     7
370
    25
100
AcDbLine
 10
9.5925196853
 20
11.3552173691
 30
0.0
 11
9.5925196853
 21
11.56102362
 31
0.0
  0
LINE
  5
266
330
1F
100
AcDbEntity
  8
0
  6
Continuous
 62
     7
370
    25
100
AcDbLine
 10
11.31102362
 20
11.31102362
 30
0.0
 11
9.6367134344
 21
11.31102362
 31
0.0
  0
LINE
  5
267
330
1F
100
AcDbEntity
  8
0
  6
Continuous
 62
     7
370
    25
100
AcDbLine
 10
11.31102362
 20
9.6367134344
 30
0.0
 11
11.31102362
 21
11.31102362
 31
0.0
  0
LINE
  5
268
330
1F
100
AcDbEntity
  8
0
  6
Continuous
 62
     7
370
    25
100
AcDbLine
 10
11.56102362
 20
9.5925196853
 30
0.0
 11
11.3552173691
 21
9.5925196853
 31
0.0
  0
LINE
  5
269
330
1F
100
AcDbEntity
  8
0
  6
Continuous
 62
     7
370
    25
100
AcDbLine
 10
11.56102362
 20
9.1988188953
 30
0.0
 11
11.56102362
 21
9.5925196853
 31
0.0
  0
LINE
  5
26A
330
1F
100
AcDbEntity
  8
0
  6
Continuous
 62
     7
370
    25
100
AcDbLine
 10
11.3552173691
 20
9.1988188953
 30
0.0
 11
11.56102362
 21
9.1988188953
 31
0.0
  0
LINE
  5
26B
330
1F
100
AcDbEntity
  8
0
  6
Continuous
 62
     7
370
    25
100
AcDbLine
 10
11.31102362
 20
5.8965559541
 30
0.0
 11
11.31102362
 21
9.1546251462
 31
0.0
  0
LINE
  5
26C
330
1F
100
AcDbEntity
  8
0
  6
Continuous
 62
     7
370
    25
100
AcDbLine
 10
7.7002178801
 20
10.8102754895
 30
0.0
 11
7.8618295111
 21
10.8102754895
 31
0.0
  0
LINE
  5
26D
330
1F
100
AcDbEntity
  8
0
  6
Continuous
 62
     7
370
    25
100
AcDbLine
 10
7.9060236849
 20
10.8544696633
 30
0.0
 11
7.9060236849
 21
10.97196187
 31
0.0
  0
LINE
  5
26E
330
1F
100
AcDbEntity
  8
0
  6
Continuous
 62
     7
370
    25
100
AcDbLine
 10
7.9060236849
 20
10.97196187
 30
0.0
 11
9.6738180609
 21
10.97196187
 31
0.0
  0
LINE
  5
26F
330
1F
100
AcDbEntity
  8
0
  6
Continuous
 62
     7
370
    25
100
AcDbLine
 10
9.71801181
 20
11.0161556191
 30
0.0
 11
9.71801181
 21
11.0677681209
 31
0.0
  0
LINE
  5
270
330
1F
100
AcDbEntity
  8
0
  6
Continuous
 62
     7
370
    25
100
AcDbLine
 10
9.6738180609
 20
11.11196187
 30
0.0
 11
1.6372055591
 21
11.11196187
 31
0.0
  0
LINE
  5
271
330
1F
100
AcDbEntity
  8
0
  6
Continuous
 62
     7
370
    25
100
AcDbLine
 10
1.59301181
 20
11.0677681209
 30
0.0
 11
1.59301181
 21
11.0161556191
 31
0.0
  0
LINE
  5
272
330
1F
100
AcDbEntity
  8
0
  6
Continuous
 62
     7
370
    25
100
AcDbLine
 10
1.6372055591
 20
10.97196187
 30
0.0
 11
3.4060236293
 21
10.97196187
 31
0.0
  0
LINE
  5
273
330
1F
100
AcDbEntity
  8
0
  6
Continuous
 62
     7
370
    25
100
AcDbLine
 10
3.4060236293
 20
10.97196187
 30
0.0
 11
3.4060236293
 21
10.8544696633
 31
0.0
  0
LINE
  5
274
330
1F
100
AcDbEntity
  8
0
  6
Continuous
 62
     7
370
    25
100
AcDbLine
 10
3.4502178032
 20
10.8102754895
 30
0.0
 11
3.6118294342
 21
10.8102754895
 31
0.0
  0
LINE
  5
275
330
1F
100
AcDbEntity
  8
0
  6
Continuous
 62
     7
370
    25
100
AcDbLine
 10
3.6560236079
 20
10.8544696634
 30
0.0
 11
3.6560236079
 21
10.97196187
 31
0.0
  0
LINE
  5
276
330
1F
100
AcDbEntity
  8
0
  6
Continuous
 62
     7
370
    25
100
AcDbLine
 10
3.6560236079
 20
10.97196187
 30
0.0
 11
7.6560237062
 21
10.97196187
 31
0.0
  0
LINE
  5
277
330
1F
100
AcDbEntity
  8
0
  6
Continuous
 62
     7
370
    25
100
AcDbLine
 10
7.6560237062
 20
10.97196187
 30
0.0
 11
7.6560237062
 21
10.8544696633
 31
0.0
  0
LINE
  5
278
330
1F
100
AcDbEntity
  8
0
  6
Continuous
 62
     7
370
    25
100
AcDbLine
 10
10.97196187
 20
9.6738180609
 30
0.0
 11
10.97196187
 21
1.6372055591
 31
0.0
  0
LINE
  5
279
330
1F
100
AcDbEntity
  8
0
  6
Continuous
 62
     7
370
    25
100
AcDbLine
 10
11.0161556191
 20
1.59301181
 30
0.0
 11
11.0677681209
 21
1.59301181
 31
0.0
  0
LINE
  5
27A
330
1F
100
AcDbEntity
  8
0
  6
Continuous
 62
     7
370
    25
100
AcDbLine
 10
11.11196187
 20
1.6372055591
 30
0.0
 11
11.11196187
 21
9.6738180609
 31
0.0
  0
LINE
  5
27B
330
1F
100
AcDbEntity
  8
0
  6
Continuous
 62
     7
370
    25
100
AcDbLine
 10
11.0677681209
 20
9.71801181
 30
0.0
 11
11.0161556191
 21
9.71801181
 31
0.0
  0
LINE
  5
27C
330
1F
100
AcDbEntity
  8
0
  6
Continuous
 62
     7
370
    25
100
AcDbLine
 10
7.91429581
 20
1.19053781
 30
0.0
 11
7.4455211565
 21
1.19053781
 31
0.0
  0
LINE
  5
27D
330
1F
100
AcDbEntity
  8
0
  6
Continuous
 62
     7
370
    25
100
AcDbLine
 10
5.8830704635
 20
1.19053781
 30
0.0
 11
5.41429581
 21
1.19053781
 31
0.0
  0
LINE
  5
27E
330
1F
100
AcDbEntity
  8
0
  6
Continuous
 62
     7
370
    25
100
AcDbLine
 10
5.41429581
 20
0.95053781
 30
0.0
 11
5.8830704635
 21
0.95053781
 31
0.0
  0
LINE
  5
27F
330
1F
100
AcDbEntity
  8
0
  6
Continuous
 62
     7
370
    25
100
AcDbLine
 10
6.2462008187
 20
0.33906175
 30
0.0
 11
3.6560236079
 21
0.33906175
 31
0.0
  0
LINE
  5
280
330
1F
100
AcDbEntity
  8
0
  6
Continuous
 62
     7
370
    25
100
AcDbLine
 10
3.6560236079
 20
0.33906175
 30
0.0
 11
3.6560236079
 21
0.4565539586
 31
0.0
  0
LINE
  5
281
330
1F
100
AcDbEntity
  8
0
  6
Continuous
 62
     7
370
    25
100
AcDbLine
 10
3.6118294342
 20
0.5007481326
 30
0.0
 11
3.4502178032
 21
0.5007481326
 31
0.0
  0
LINE
  5
282
330
1F
100
AcDbEntity
  8
0
  6
Continuous
 62
     7
370
    25
100
AcDbLine
 10
3.4060236293
 20
0.4565539587
 30
0.0
 11
3.4060236293
 21
0.33906175
 31
0.0
  0
LINE
  5
283
330
1F
100
AcDbEntity
  8
0
  6
Continuous
 62
     7
370
    25
100
AcDbLine
 10
3.4060236293
 20
0.33906175
 30
0.0
 11
1.6372055591
 21
0.33906175
 31
0.0
  0
LINE
  5
284
330
1F
100
AcDbEntity
  8
0
  6
Continuous
 62
     7
370
    25
100
AcDbLine
 10
1.59301181
 20
0.2948680009
 30
0.0
 11
1.59301181
 21
0.2432554991
 31
0.0
  0
LINE
  5
285
330
1F
100
AcDbEntity
  8
0
  6
Continuous
 62
     7
370
    25
100
AcDbLine
 10
1.6372055591
 20
0.19906175
 30
0.0
 11
9.6738180609
 21
0.19906175
 31
0.0
  0
LINE
  5
286
330
1F
100
AcDbEntity
  8
0
  6
Continuous
 62
     7
370
    25
100
AcDbLine
 10
9.71801181
 20
0.2432554991
 30
0.0
 11
9.71801181
 21
0.2948680009
 31
0.0
  0
LINE
  5
287
330
1F
100
AcDbEntity
  8
0
  6
Continuous
 62
     7
370
    25
100
AcDbLine
 10
9.6738180609
 20
0.33906175
 30
0.0
 11
7.9060236849
 21
0.33906175
 31
0.0
  0
LINE
  5
288
330
1F
100
AcDbEntity
  8
0
  6
Continuous
 62
     7
370
    25
100
AcDbLine
 10
7.9060236849
 20
0.33906175
 30
0.0
 11
7.9060236849
 21
0.4565539587
 31
0.0
  0
LINE
  5
289
330
1F
100
AcDbEntity
  8
0
  6
Continuous
 62
     7
370
    25
100
AcDbLine
 10
7.8618295111
 20
0.5007481326
 30
0.0
 11
7.7002178801
 21
0.5007481326
 31
0.0
  0
LINE
  5
28A
330
1F
100
AcDbEntity
  8
0
  6
Continuous
 62
     7
370
    25
100
AcDbLine
 10
7.6560237062
 20
0.4565539587
 30
0.0
 11
7.6560237062
 21
0.33906175
 31
0.0
  0
LINE
  5
28B
330
1F
100
AcDbEntity
  8
0
  6
Continuous
 62
     7
370
    25
100
AcDbLine
 10
7.6560237062
 20
0.33906175
 30
0.0
 11
7.0823908013
 21
0.33906175
 31
0.0
  0
LINE
  5
28C
330
1F
100
AcDbEntity
  8
0
  6
Continuous
 62
     7
370
    25
100
AcDbLine
 10
7.4455211565
 20
0.95053781
 30
0.0
 11
7.91429581
 21
0.95053781
 31
0.0
  0
LINE
  5
28D
330
1F
100
AcDbEntity
  8
0
  6
Continuous
 62
     7
370
    25
100
AcDbLine
 10
0.2948680009
 20
9.71801181
 30
0.0
 11
0.2432554991
 21
9.71801181
 31
0.0
  0
LINE
  5
28E
330
1F
100
AcDbEntity
  8
0
  6
Continuous
 62
     7
370
    25
100
AcDbLine
 10
0.19906175
 20
9.6738180609
 30
0.0
 11
0.19906175
 21
1.6372055591
 31
0.0
  0
LINE
  5
28F
330
1F
100
AcDbEntity
  8
0
  6
Continuous
 62
     7
370
    25
100
AcDbLine
 10
0.2432554991
 20
1.59301181
 30
0.0
 11
0.2948680009
 21
1.59301181
 31
0.0
  0
LINE
  5
290
330
1F
100
AcDbEntity
  8
0
  6
Continuous
 62
     7
370
    25
100
AcDbLine
 10
0.33906175
 20
1.6372055591
 30
0.0
 11
0.33906175
 21
9.6738180609
 31
0.0
  0
LINE
  5
291
330
1F
100
AcDbEntity
  8
0
  6
Continuous
 62
     7
370
    25
100
AcDbLine
 10
0.436488055
 20
9.7981989885
 30
0.0
 11
0.436488055
 21
9.6365864868
 31
0.0
  0
LINE
  5
292
330
1F
100
AcDbEntity
  8
0
  6
Continuous
 62
     7
370
    25
100
AcDbLine
 10
0.4806818041
 20
9.5923927376
 30
0.0
 11
0.5891446959
 21
9.5923927376
 31
0.0
  0
LINE
  5
293
330
1F
100
AcDbEntity
  8
0
  6
Continuous
 62
     7
370
    25
100
AcDbLine
 10
0.633338445
 20
9.6365864868
 30
0.0
 11
0.633338445
 21
9.7981989885
 31
0.0
  0
LINE
  5
294
330
1F
100
AcDbEntity
  8
0
  6
Continuous
 62
     7
370
    25
100
AcDbLine
 10
0.5891446959
 20
9.8423927376
 30
0.0
 11
0.4806818041
 21
9.8423927376
 31
0.0
  0
LINE
  5
295
330
1F
100
AcDbEntity
  8
0
  6
Continuous
 62
     7
370
    25
100
AcDbLine
 10
1.5128246315
 20
10.677685175
 30
0.0
 11
1.6744371332
 21
10.677685175
 31
0.0
  0
LINE
  5
296
330
1F
100
AcDbEntity
  8
0
  6
Continuous
 62
     7
370
    25
100
AcDbLine
 10
1.7186308824
 20
10.7218789241
 30
0.0
 11
1.7186308824
 21
10.8303418159
 31
0.0
  0
LINE
  5
297
330
1F
100
AcDbEntity
  8
0
  6
Continuous
 62
     7
370
    25
100
AcDbLine
 10
1.6744371332
 20
10.874535565
 30
0.0
 11
1.5128246315
 21
10.874535565
 31
0.0
  0
LINE
  5
298
330
1F
100
AcDbEntity
  8
0
  6
Continuous
 62
     7
370
    25
100
AcDbLine
 10
1.4686308824
 20
10.8303418159
 30
0.0
 11
1.4686308824
 21
10.7218789241
 31
0.0
  0
LINE
  5
299
330
1F
100
AcDbEntity
  8
0
  6
Continuous
 62
     7
370
    25
100
AcDbLine
 10
1.4686308824
 20
0.5891446959
 30
0.0
 11
1.4686308824
 21
0.4806818041
 31
0.0
  0
LINE
  5
29A
330
1F
100
AcDbEntity
  8
0
  6
Continuous
 62
     7
370
    25
100
AcDbLine
 10
1.5128246315
 20
0.436488055
 30
0.0
 11
1.6744371332
 21
0.436488055
 31
0.0
  0
LINE
  5
29B
330
1F
100
AcDbEntity
  8
0
  6
Continuous
 62
     7
370
    25
100
AcDbLine
 10
1.7186308824
 20
0.4806818041
 30
0.0
 11
1.7186308824
 21
0.5891446959
 31
0.0
  0
LINE
  5
29C
330
1F
100
AcDbEntity
  8
0
  6
Continuous
 62
     7
370
    25
100
AcDbLine
 10
1.6744371332
 20
0.633338445
 30
0.0
 11
1.5128246315
 21
0.633338445
 31
0.0
  0
LINE
  5
29D
330
1F
100
AcDbEntity
  8
0
  6
Continuous
 62
     7
370
    25
100
AcDbLine
 10
0.4806818041
 20
1.4686308824
 30
0.0
 11
0.5891446959
 21
1.4686308824
 31
0.0
  0
LINE
  5
29E
330
1F
100
AcDbEntity
  8
0
  6
Continuous
 62
     7
370
    25
100
AcDbLine
 10
0.633338445
 20
1.5128246315
 30
0.0
 11
0.633338445
 21
1.6744371332
 31
0.0
  0
LINE
  5
29F
330
1F
100
AcDbEntity
  8
0
  6
Continuous
 62
     7
370
    25
100
AcDbLine
 10
0.5891446959
 20
1.7186308824
 30
0.0
 11
0.4806818041
 21
1.7186308824
 31
0.0
  0
LINE
  5
2A0
330
1F
100
AcDbEntity
  8
0
  6
Continuous
 62
     7
370
    25
100
AcDbLine
 10
0.436488055
 20
1.6744371332
 30
0.0
 11
0.436488055
 21
1.5128246315
 31
0.0
  0
LINE
  5
2A1
330
1F
100
AcDbEntity
  8
0
  6
Continuous
 62
     7
370
    25
100
AcDbLine
 10
10.6281579001
 20
2.0184775369
 30
0.0
 11
9.7182657199
 21
2.0184775369
 31
0.0
  0
LINE
  5
2A2
330
1F
100
AcDbEntity
  8
0
  6
Continuous
 62
     7
370
    25
100
AcDbLine
 10
9.6182657199
 20
1.9184775369
 30
0.0
 11
9.6182657199
 21
1.6093460831
 31
0.0
  0
LINE
  5
2A3
330
1F
100
AcDbEntity
  8
0
  6
Continuous
 62
     7
370
    25
100
AcDbLine
 10
9.7182657199
 20
1.5093460831
 30
0.0
 11
10.6281579001
 21
1.5093460831
 31
0.0
  0
LINE
  5
2A4
330
1F
100
AcDbEntity
  8
0
  6
Continuous
 62
     7
370
    25
100
AcDbLine
 10
10.677685175
 20
1.6744371332
 30
0.0
 11
10.677685175
 21
1.5128246315
 31
0.0
  0
LINE
  5
2A5
330
1F
100
AcDbEntity
  8
0
  6
Continuous
 62
     7
370
    25
100
AcDbLine
 10
10.7218789241
 20
1.4686308824
 30
0.0
 11
10.8303418159
 21
1.4686308824
 31
0.0
  0
LINE
  5
2A6
330
1F
100
AcDbEntity
  8
0
  6
Continuous
 62
     7
370
    25
100
AcDbLine
 10
10.874535565
 20
1.5128246315
 30
0.0
 11
10.874535565
 21
1.6744371332
 31
0.0
  0
LINE
  5
2A7
330
1F
100
AcDbEntity
  8
0
  6
Continuous
 62
     7
370
    25
100
AcDbLine
 10
10.8303418159
 20
1.7186308824
 30
0.0
 11
10.7218789241
 21
1.7186308824
 31
0.0
  0
LINE
  5
2A8
330
1F
100
AcDbEntity
  8
0
  6
Continuous
 62
     7
370
    25
100
AcDbLine
 10
10.7281579001
 20
1.7186308824
 30
0.0
 11
10.7281579001
 21
1.9184775369
 31
0.0
  0
LINE
  5
2A9
330
1F
100
AcDbEntity
  8
0
  6
Continuous
 62
     7
370
    25
100
AcDbLine
 10
9.8423927376
 20
0.4806818041
 30
0.0
 11
9.8423927376
 21
0.5891446959
 31
0.0
  0
LINE
  5
2AA
330
1F
100
AcDbEntity
  8
0
  6
Continuous
 62
     7
370
    25
100
AcDbLine
 10
9.7981989885
 20
0.633338445
 30
0.0
 11
9.6365864868
 21
0.633338445
 31
0.0
  0
LINE
  5
2AB
330
1F
100
AcDbEntity
  8
0
  6
Continuous
 62
     7
370
    25
100
AcDbLine
 10
9.5923927376
 20
0.5891446959
 30
0.0
 11
9.5923927376
 21
0.4806818041
 31
0.0
  0
LINE
  5
2AC
330
1F
100
AcDbEntity
  8
0
  6
Continuous
 62
     7
370
    25
100
AcDbLine
 10
9.6365864868
 20
0.436488055
 30
0.0
 11
9.7981989885
 21
0.436488055
 31
0.0
  0
LINE
  5
2AD
330
1F
100
AcDbEntity
  8
0
  6
Continuous
 62
     7
370
    25
100
AcDbLine
 10
9.8423927376
 20
10.7218789241
 30
0.0
 11
9.8423927376
 21
10.8303418159
 31
0.0
  0
LINE
  5
2AE
330
1F
100
AcDbEntity
  8
0
  6
Continuous
 62
     7
370
    25
100
AcDbLine
 10
9.7981989885
 20
10.874535565
 30
0.0
 11
9.6365864868
 21
10.874535565
 31
0.0
  0
LINE
  5
2AF
330
1F
100
AcDbEntity
  8
0
  6
Continuous
 62
     7
370
    25
100
AcDbLine
 10
9.5923927376
 20
10.8303418159
 30
0.0
 11
9.5923927376
 21
10.7218789241
 31
0.0
  0
LINE
  5
2B0
330
1F
100
AcDbEntity
  8
0
  6
Continuous
 62
     7
370
    25
100
AcDbLine
 10
9.6365864868
 20
10.677685175
 30
0.0
 11
9.7981989885
 21
10.677685175
 31
0.0
  0
LINE
  5
2B1
330
1F
100
AcDbEntity
  8
0
  6
Continuous
 62
     7
370
    25
100
AcDbLine
 10
10.70801181
 20
10.07051181
 30
0.0
 11
9.39301181
 21
10.07051181
 31
0.0
  0
LINE
  5
2B2
330
1F
100
AcDbEntity
  8
0
  6
Continuous
 62
     7
370
    25
100
AcDbLine
 10
9.33051181
 20
10.00801181
 30
0.0
 11
9.33051181
 21
9.23301181
 31
0.0
  0
LINE
  5
2B3
330
1F
100
AcDbEntity
  8
0
  6
Continuous
 62
     7
370
    25
100
AcDbLine
 10
9.39301181
 20
9.17051181
 30
0.0
 11
10.06801181
 21
9.17051181
 31
0.0
  0
LINE
  5
2B4
330
1F
100
AcDbEntity
  8
0
  6
Continuous
 62
     7
370
    25
100
AcDbLine
 10
10.13051181
 20
9.23301181
 30
0.0
 11
10.13051181
 21
9.67801181
 31
0.0
  0
LINE
  5
2B5
330
1F
100
AcDbEntity
  8
0
  6
Continuous
 62
     7
370
    25
100
AcDbLine
 10
10.19301181
 20
9.74051181
 30
0.0
 11
10.677685175
 21
9.74051181
 31
0.0
  0
LINE
  5
2B6
330
1F
100
AcDbEntity
  8
0
  6
Continuous
 62
     7
370
    25
100
AcDbLine
 10
10.677685175
 20
9.7981989885
 30
0.0
 11
10.677685175
 21
9.6365864868
 31
0.0
  0
LINE
  5
2B7
330
1F
100
AcDbEntity
  8
0
  6
Continuous
 62
     7
370
    25
100
AcDbLine
 10
10.7218789241
 20
9.5923927376
 30
0.0
 11
10.8303418159
 21
9.5923927376
 31
0.0
  0
LINE
  5
2B8
330
1F
100
AcDbEntity
  8
0
  6
Continuous
 62
     7
370
    25
100
AcDbLine
 10
10.874535565
 20
9.6365864868
 30
0.0
 11
10.874535565
 21
9.7981989885
 31
0.0
  0
LINE
  5
2B9
330
1F
100
AcDbEntity
  8
0
  6
Continuous
 62
     7
370
    25
100
AcDbLine
 10
10.8303418159
 20
9.8423927376
 30
0.0
 11
10.7218789241
 21
9.8423927376
 31
0.0
  0
LINE
  5
2BA
330
1F
100
AcDbEntity
  8
0
  6
Continuous
 62
     7
370
    25
100
AcDbLine
 10
10.77051181
 20
9.8423927376
 30
0.0
 11
10.77051181
 21
10.00801181
 31
0.0
  0
LINE
  5
2BB
330
1F
100
AcDbEntity
  8
0
  6
Continuous
 62
     7
370
    25
100
AcDbLine
 10
2.7744553108
 20
0.5346374858
 30
0.0
 11
2.8110883845
 21
0.5346374858
 31
0.0
  0
LINE
  5
2BC
330
1F
100
AcDbEntity
  8
0
  6
Continuous
 62
     7
370
    25
100
AcDbLine
 10
2.7744553108
 20
0.3968422102
 30
0.0
 11
2.7744553108
 21
0.5346374858
 31
0.0
  0
LINE
  5
2BD
330
1F
100
AcDbEntity
  8
0
  6
Continuous
 62
     7
370
    25
100
AcDbLine
 10
2.7944256406
 20
0.3968422102
 30
0.0
 11
2.7744553108
 21
0.3968422102
 31
0.0
  0
LINE
  5
2BE
330
1F
100
AcDbEntity
  8
0
  6
Continuous
 62
     7
370
    25
100
AcDbLine
 10
2.7944256406
 20
0.4567531996
 30
0.0
 11
2.7944256406
 21
0.3968422102
 31
0.0
  0
LINE
  5
2BF
330
1F
100
AcDbEntity
  8
0
  6
Continuous
 62
     7
370
    25
100
AcDbLine
 10
2.8028818271
 20
0.4567531996
 30
0.0
 11
2.7944256406
 21
0.4567531996
 31
0.0
  0
LINE
  5
2C0
330
1F
100
AcDbEntity
  8
0
  6
Continuous
 62
     7
370
    25
100
AcDbLine
 10
2.8451627597
 20
0.3968422102
 30
0.0
 11
2.8253484481
 21
0.4398720302
 31
0.0
  0
LINE
  5
2C1
330
1F
100
AcDbEntity
  8
0
  6
Continuous
 62
     7
370
    25
100
AcDbLine
 10
2.8663188278
 20
0.3968422102
 30
0.0
 11
2.8451627597
 21
0.3968422102
 31
0.0
  0
LINE
  5
2C2
330
1F
100
AcDbEntity
  8
0
  6
Continuous
 62
     7
370
    25
100
AcDbLine
 10
2.8452563706
 20
0.4427739687
 30
0.0
 11
2.8663188278
 21
0.3968422102
 31
0.0
  0
LINE
  5
2C3
330
1F
100
AcDbEntity
  8
0
  6
Continuous
 62
     7
370
    25
100
AcDbLine
 10
2.6286719032
 20
0.4747264964
 30
0.0
 11
2.6286719032
 21
0.4033013637
 31
0.0
  0
LINE
  5
2C4
330
1F
100
AcDbEntity
  8
0
  6
Continuous
 62
     7
370
    25
100
AcDbLine
 10
2.5809927409
 20
0.4747264964
 30
0.0
 11
2.6286719032
 21
0.4747264964
 31
0.0
  0
LINE
  5
2C5
330
1F
100
AcDbEntity
  8
0
  6
Continuous
 62
     7
370
    25
100
AcDbLine
 10
2.5809927409
 20
0.4587502325
 30
0.0
 11
2.5809927409
 21
0.4747264964
 31
0.0
  0
LINE
  5
2C6
330
1F
100
AcDbEntity
  8
0
  6
Continuous
 62
     7
370
    25
100
AcDbLine
 10
2.6087015735
 20
0.4587502325
 30
0.0
 11
2.5809927409
 21
0.4587502325
 31
0.0
  0
LINE
  5
2C7
330
1F
100
AcDbEntity
  8
0
  6
Continuous
 62
     7
370
    25
100
AcDbLine
 10
2.6087015735
 20
0.4137545832
 30
0.0
 11
2.6087015735
 21
0.4587502325
 31
0.0
  0
LINE
  5
2C8
330
1F
100
AcDbEntity
  8
0
  6
Continuous
 62
     7
370
    25
100
AcDbLine
 10
2.6286719032
 20
0.5306434198
 30
0.0
 11
2.6286719032
 21
0.512670123
 31
0.0
  0
LINE
  5
2C9
330
1F
100
AcDbEntity
  8
0
  6
Continuous
 62
     7
370
    25
100
AcDbLine
 10
2.2851822308
 20
0.3688837485
 30
0.0
 11
2.4030071766
 21
0.3688837485
 31
0.0
  0
LINE
  5
2CA
330
1F
100
AcDbEntity
  8
0
  6
Continuous
 62
     7
370
    25
100
AcDbLine
 10
2.2851822308
 20
0.3529074846
 30
0.0
 11
2.2851822308
 21
0.3688837485
 31
0.0
  0
LINE
  5
2CB
330
1F
100
AcDbEntity
  8
0
  6
Continuous
 62
     7
370
    25
100
AcDbLine
 10
2.4030071766
 20
0.3529074846
 30
0.0
 11
2.2851822308
 21
0.3529074846
 31
0.0
  0
LINE
  5
2CC
330
1F
100
AcDbEntity
  8
0
  6
Continuous
 62
     7
370
    25
100
AcDbLine
 10
2.4030071766
 20
0.3688837485
 30
0.0
 11
2.4030071766
 21
0.3529074846
 31
0.0
  0
LINE
  5
2CD
330
1F
100
AcDbEntity
  8
0
  6
Continuous
 62
     7
370
    25
100
AcDbLine
 10
2.065508603
 20
0.5346374858
 30
0.0
 11
2.1051060226
 21
0.5346374858
 31
0.0
  0
LINE
  5
2CE
330
1F
100
AcDbEntity
  8
0
  6
Continuous
 62
     7
370
    25
100
AcDbLine
 10
2.065508603
 20
0.3968422102
 30
0.0
 11
2.065508603
 21
0.5346374858
 31
0.0
  0
LINE
  5
2CF
330
1F
100
AcDbEntity
  8
0
  6
Continuous
 62
     7
370
    25
100
AcDbLine
 10
2.1013303821
 20
0.3968422102
 30
0.0
 11
2.065508603
 21
0.3968422102
 31
0.0
  0
LINE
  5
2D0
330
1F
100
AcDbEntity
  8
0
  6
Continuous
 62
     7
370
    25
100
AcDbLine
 10
1.2712302125
 20
7.3444405516
 30
0.0
 11
1.5027606733
 21
7.0868368122
 31
0.0
  0
LINE
  5
2D1
330
1F
100
AcDbEntity
  8
0
  6
Continuous
 62
     7
370
    25
100
AcDbLine
 10
2.2095143095
 20
6.3004937154
 30
0.0
 11
2.4410447703
 21
6.0428899761
 31
0.0
  0
LINE
  5
2D2
330
1F
100
AcDbEntity
  8
0
  6
Continuous
 62
     7
370
    25
100
AcDbLine
 10
2.5897934075
 20
6.1765830684
 30
0.0
 11
2.3582629467
 21
6.4341868078
 31
0.0
  0
LINE
  5
2D3
330
1F
100
AcDbEntity
  8
0
  6
Continuous
 62
     7
370
    25
100
AcDbLine
 10
1.6515093105
 20
7.2205299046
 30
0.0
 11
1.4199788497
 21
7.4781336439
 31
0.0
  0
LINE
  5
2D4
330
1F
100
AcDbEntity
  8
0
  6
Continuous
 62
     7
370
    25
100
AcDbLine
 10
2.2095693095
 20
1.8005197154
 30
0.0
 11
2.4410997703
 21
1.5429159761
 31
0.0
  0
LINE
  5
2D5
330
1F
100
AcDbEntity
  8
0
  6
Continuous
 62
     7
370
    25
100
AcDbLine
 10
2.5898484075
 20
1.6766090684
 30
0.0
 11
2.3583179467
 21
1.9342128078
 31
0.0
  0
LINE
  5
2D6
330
1F
100
AcDbEntity
  8
0
  6
Continuous
 62
     7
370
    25
100
AcDbLine
 10
1.6515643105
 20
2.7205559046
 30
0.0
 11
1.4200338497
 21
2.9781596439
 31
0.0
  0
LINE
  5
2D7
330
1F
100
AcDbEntity
  8
0
  6
Continuous
 62
     7
370
    25
100
AcDbLine
 10
1.2712852125
 20
2.8444665516
 30
0.0
 11
1.5028156733
 21
2.5868628122
 31
0.0
  0
LINE
  5
2D8
330
1F
100
AcDbEntity
  8
0
  6
Continuous
 62
     7
370
    25
100
AcDbLine
 10
3.42556681
 20
9.66274581
 30
0.0
 11
3.7719279521
 21
9.66274581
 31
0.0
  0
LINE
  5
2D9
330
1F
100
AcDbEntity
  8
0
  6
Continuous
 62
     7
370
    25
100
AcDbLine
 10
4.8292056679
 20
9.66274581
 30
0.0
 11
5.17556681
 21
9.66274581
 31
0.0
  0
LINE
  5
2DA
330
1F
100
AcDbEntity
  8
0
  6
Continuous
 62
     7
370
    25
100
AcDbLine
 10
5.17556681
 20
9.86274581
 30
0.0
 11
4.8292056679
 21
9.86274581
 31
0.0
  0
LINE
  5
2DB
330
1F
100
AcDbEntity
  8
0
  6
Continuous
 62
     7
370
    25
100
AcDbLine
 10
3.7719279521
 20
9.86274581
 30
0.0
 11
3.42556681
 21
9.86274581
 31
0.0
  0
LINE
  5
2DC
330
1F
100
AcDbEntity
  8
0
  6
Continuous
 62
     7
370
    25
100
AcDbLine
 10
8.4572736295
 20
2.3492517185
 30
0.0
 11
8.4572736295
 21
8.9634250046
 31
0.0
  0
LINE
  5
2DD
330
1F
100
AcDbEntity
  8
0
  6
Continuous
 62
     7
370
    25
100
AcDbLine
 10
8.2091731907
 20
9.2115253342
 30
0.0
 11
3.2879133486
 21
9.2115253342
 31
0.0
  0
LINE
  5
2DE
330
1F
100
AcDbEntity
  8
0
  6
Continuous
 62
     7
370
    25
100
AcDbLine
 10
2.8429626184
 20
8.7665744986
 30
0.0
 11
2.8429626184
 21
2.5461021247
 31
0.0
  0
LINE
  5
2DF
330
1F
100
AcDbEntity
  8
0
  6
Continuous
 62
     7
370
    25
100
AcDbLine
 10
3.2879134067
 20
2.1011513373
 30
0.0
 11
8.2091732483
 21
2.1011513373
 31
0.0
  0
LINE
  5
2E0
330
1F
100
AcDbEntity
  8
0
  6
Continuous
 62
     7
370
    25
100
AcDbLine
 10
7.8618295111
 20
2.0507484402
 30
0.0
 11
7.7002178801
 21
2.0507484402
 31
0.0
  0
LINE
  5
2E1
330
1F
100
AcDbEntity
  8
0
  6
Continuous
 62
     7
370
    25
100
AcDbLine
 10
7.6560237062
 20
2.0065542663
 30
0.0
 11
7.6560237062
 21
1.8449424887
 31
0.0
  0
LINE
  5
2E2
330
1F
100
AcDbEntity
  8
0
  6
Continuous
 62
     7
370
    25
100
AcDbLine
 10
7.7002178801
 20
1.8007483149
 30
0.0
 11
7.8618295111
 21
1.8007483149
 31
0.0
  0
LINE
  5
2E3
330
1F
100
AcDbEntity
  8
0
  6
Continuous
 62
     7
370
    25
100
AcDbLine
 10
7.9060236849
 20
1.8449424887
 30
0.0
 11
7.9060236849
 21
2.0065542663
 31
0.0
  0
LINE
  5
2E4
330
1F
100
AcDbEntity
  8
0
  6
Continuous
 62
     7
370
    25
100
AcDbLine
 10
7.7002178801
 20
9.2602751819
 30
0.0
 11
7.8618295111
 21
9.2602751819
 31
0.0
  0
LINE
  5
2E5
330
1F
100
AcDbEntity
  8
0
  6
Continuous
 62
     7
370
    25
100
AcDbLine
 10
7.9060236849
 20
9.3044693557
 30
0.0
 11
7.9060236849
 21
9.4660811333
 31
0.0
  0
LINE
  5
2E6
330
1F
100
AcDbEntity
  8
0
  6
Continuous
 62
     7
370
    25
100
AcDbLine
 10
7.8618295111
 20
9.5102753072
 30
0.0
 11
7.7002178801
 21
9.5102753072
 31
0.0
  0
LINE
  5
2E7
330
1F
100
AcDbEntity
  8
0
  6
Continuous
 62
     7
370
    25
100
AcDbLine
 10
7.6560237062
 20
9.4660811333
 30
0.0
 11
7.6560237062
 21
9.3044693557
 31
0.0
  0
LINE
  5
2E8
330
1F
100
AcDbEntity
  8
0
  6
Continuous
 62
     7
370
    25
100
AcDbLine
 10
3.4502178031
 20
9.2602751819
 30
0.0
 11
3.6118294342
 21
9.2602751819
 31
0.0
  0
LINE
  5
2E9
330
1F
100
AcDbEntity
  8
0
  6
Continuous
 62
     7
370
    25
100
AcDbLine
 10
3.6560236079
 20
9.3044693557
 30
0.0
 11
3.6560236079
 21
9.4660811333
 31
0.0
  0
LINE
  5
2EA
330
1F
100
AcDbEntity
  8
0
  6
Continuous
 62
     7
370
    25
100
AcDbLine
 10
3.6118294342
 20
9.5102753072
 30
0.0
 11
3.4502178031
 21
9.5102753072
 31
0.0
  0
LINE
  5
2EB
330
1F
100
AcDbEntity
  8
0
  6
Continuous
 62
     7
370
    25
100
AcDbLine
 10
3.4060236293
 20
9.4660811333
 30
0.0
 11
3.4060236293
 21
9.3044693557
 31
0.0
  0
LINE
  5
2EC
330
1F
100
AcDbEntity
  8
0
  6
Continuous
 62
     7
370
    25
100
AcDbLine
 10
3.6118294342
 20
2.0507484402
 30
0.0
 11
3.4502178031
 21
2.0507484402
 31
0.0
  0
LINE
  5
2ED
330
1F
100
AcDbEntity
  8
0
  6
Continuous
 62
     7
370
    25
100
AcDbLine
 10
3.4060236293
 20
2.0065542663
 30
0.0
 11
3.4060236293
 21
1.8449424887
 31
0.0
  0
LINE
  5
2EE
330
1F
100
AcDbEntity
  8
0
  6
Continuous
 62
     7
370
    25
100
AcDbLine
 10
3.4502178031
 20
1.8007483149
 30
0.0
 11
3.6118294342
 21
1.8007483149
 31
0.0
  0
LINE
  5
2EF
330
1F
100
AcDbEntity
  8
0
  6
Continuous
 62
     7
370
    25
100
AcDbLine
 10
3.6560236079
 20
1.8449424887
 30
0.0
 11
3.6560236079
 21
2.0065542663
 31
0.0
  0
LINE
  5
2F0
330
1F
100
AcDbEntity
  8
0
  6
Continuous
 62
     7
370
    25
100
AcDbLine
 10
9.924770942
 20
2.4095467287
 30
0.0
 11
9.924770942
 21
6.2869168913
 31
0.0
  0
LINE
  5
2F1
330
1F
100
AcDbEntity
  8
0
  6
Continuous
 62
     7
370
    25
100
AcDbLine
 10
9.824770942
 20
6.3869168913
 30
0.0
 11
8.827622678
 21
6.3869168913
 31
0.0
  0
LINE
  5
2F2
330
1F
100
AcDbEntity
  8
0
  6
Continuous
 62
     7
370
    25
100
AcDbLine
 10
8.727622678
 20
6.2869168913
 30
0.0
 11
8.727622678
 21
2.4095467287
 31
0.0
  0
LINE
  5
2F3
330
1F
100
AcDbEntity
  8
0
  6
Continuous
 62
     7
370
    25
100
AcDbLine
 10
8.827622678
 20
2.3095467287
 30
0.0
 11
9.824770942
 21
2.3095467287
 31
0.0
  0
LINE
  5
2F4
330
1F
100
AcDbEntity
  8
0
  6
Continuous
 62
     7
370
    25
100
AcDbLine
 10
2.0854789328
 20
0.412818474
 30
0.0
 11
2.1046067643
 21
0.412818474
 31
0.0
  0
LINE
  5
2F5
330
1F
100
AcDbEntity
  8
0
  6
Continuous
 62
     7
370
    25
100
AcDbLine
 10
2.0854789328
 20
0.4607472655
 30
0.0
 11
2.0854789328
 21
0.412818474
 31
0.0
  0
LINE
  5
2F6
330
1F
100
AcDbEntity
  8
0
  6
Continuous
 62
     7
370
    25
100
AcDbLine
 10
2.1039826915
 20
0.4607472655
 30
0.0
 11
2.0854789328
 21
0.4607472655
 31
0.0
  0
LINE
  5
2F7
330
1F
100
AcDbEntity
  8
0
  6
Continuous
 62
     7
370
    25
100
AcDbLine
 10
2.7944256406
 20
0.4727294634
 30
0.0
 11
2.808872926
 21
0.4727294634
 31
0.0
  0
LINE
  5
2F8
330
1F
100
AcDbEntity
  8
0
  6
Continuous
 62
     7
370
    25
100
AcDbLine
 10
2.7944256406
 20
0.5186612219
 30
0.0
 11
2.7944256406
 21
0.4727294634
 31
0.0
  0
LINE
  5
2F9
330
1F
100
AcDbEntity
  8
0
  6
Continuous
 62
     7
370
    25
100
AcDbLine
 10
2.8112756063
 20
0.5186612219
 30
0.0
 11
2.7944256406
 21
0.5186612219
 31
0.0
  0
LINE
  5
2FA
330
1F
100
AcDbEntity
  8
0
  6
Continuous
 62
     7
370
    25
100
AcDbLine
 10
2.0854789328
 20
0.4767235294
 30
0.0
 11
2.1037330624
 21
0.4767235294
 31
0.0
  0
LINE
  5
2FB
330
1F
100
AcDbEntity
  8
0
  6
Continuous
 62
     7
370
    25
100
AcDbLine
 10
2.0854789328
 20
0.5186612219
 30
0.0
 11
2.0854789328
 21
0.4767235294
 31
0.0
  0
LINE
  5
2FC
330
1F
100
AcDbEntity
  8
0
  6
Continuous
 62
     7
370
    25
100
AcDbLine
 10
2.1043571352
 20
0.5186612219
 30
0.0
 11
2.0854789328
 21
0.5186612219
 31
0.0
  0
LINE
  5
2FD
330
1F
100
AcDbEntity
  8
0
  6
Continuous
 62
     7
370
    25
100
AcDbLine
 10
2.720909864
 20
0.4427739687
 30
0.0
 11
2.697569541
 21
0.518567611
 31
0.0
  0
LINE
  5
2FE
330
1F
100
AcDbEntity
  8
0
  6
Continuous
 62
     7
370
    25
100
AcDbLine
 10
2.697569541
 20
0.518567611
 30
0.0
 11
2.6736363489
 21
0.4427739687
 31
0.0
  0
LINE
  5
2FF
330
1F
100
AcDbEntity
  8
0
  6
Continuous
 62
     7
370
    25
100
AcDbLine
 10
2.6736363489
 20
0.4427739687
 30
0.0
 11
2.720909864
 21
0.4427739687
 31
0.0
  0
LINE
  5
300
330
1F
100
AcDbEntity
  8
0
  6
Continuous
 62
     7
370
    25
100
AcDbLine
 10
2.4852599724
 20
0.4427739687
 30
0.0
 11
2.4619196495
 21
0.518567611
 31
0.0
  0
LINE
  5
301
330
1F
100
AcDbEntity
  8
0
  6
Continuous
 62
     7
370
    25
100
AcDbLine
 10
2.4619196495
 20
0.518567611
 30
0.0
 11
2.4379864573
 21
0.4427739687
 31
0.0
  0
LINE
  5
302
330
1F
100
AcDbEntity
  8
0
  6
Continuous
 62
     7
370
    25
100
AcDbLine
 10
2.4379864573
 20
0.4427739687
 30
0.0
 11
2.4852599724
 21
0.4427739687
 31
0.0
  0
ARC
  5
303
330
1F
100
AcDbEntity
  8
0
  6
Continuous
 62
     7
370
    25
100
AcDbCircle
 10
11.33302362
 20
5.436661415
 30
0.0
 40
0.0312499999999998
100
AcDbArc
 50
44.7488120841
 51
225.2511879159
  0
ARC
  5
304
330
1F
100
AcDbEntity
  8
0
  6
Continuous
 62
     7
370
    25
100
AcDbCircle
 10
11.33302362
 20
2.1342047247
 30
0.0
 40
0.0312499999999987
100
AcDbArc
 50
134.7488120842
 51
315.2511879159
  0
ARC
  5
305
330
1F
100
AcDbEntity
  8
0
  6
Continuous
 62
     7
370
    25
100
AcDbCircle
 10
11.33302362
 20
1.6965039347
 30
0.0
 40
0.0312500000000013
100
AcDbArc
 50
44.7488120841
 51
225.2511879158
  0
ARC
  5
306
330
1F
100
AcDbEntity
  8
0
  6
Continuous
 62
     7
370
    25
100
AcDbCircle
 10
9.6145196853
 20
-0.022
 30
0.0
 40
0.0312500000000001
100
AcDbArc
 50
44.7488120841
 51
225.2511879159
  0
ARC
  5
307
330
1F
100
AcDbEntity
  8
0
  6
Continuous
 62
     7
370
    25
100
AcDbCircle
 10
9.1768188953
 20
-0.022
 30
0.0
 40
0.0312499999999994
100
AcDbArc
 50
314.7488120841
 51
135.2511879159
  0
ARC
  5
308
330
1F
100
AcDbEntity
  8
0
  6
Continuous
 62
     7
370
    25
100
AcDbCircle
 10
5.874362205
 20
-0.022
 30
0.0
 40
0.0312499999999993
100
AcDbArc
 50
44.7488120841
 51
225.2511879159
  0
ARC
  5
309
330
1F
100
AcDbEntity
  8
0
  6
Continuous
 62
     7
370
    25
100
AcDbCircle
 10
5.436661415
 20
-0.022
 30
0.0
 40
0.0312499999999996
100
AcDbArc
 50
314.7488120841
 51
135.2511879159
  0
ARC
  5
30A
330
1F
100
AcDbEntity
  8
0
  6
Continuous
 62
     7
370
    25
100
AcDbCircle
 10
2.1342047247
 20
-0.022
 30
0.0
 40
0.0312499999999998
100
AcDbArc
 50
44.7488120841
 51
225.2511879159
  0
ARC
  5
30B
330
1F
100
AcDbEntity
  8
0
  6
Continuous
 62
     7
370
    25
100
AcDbCircle
 10
1.6965039347
 20
-0.022
 30
0.0
 40
0.0312500000000002
100
AcDbArc
 50
314.7488120841
 51
135.2511879159
  0
ARC
  5
30C
330
1F
100
AcDbEntity
  8
0
  6
Continuous
 62
     7
370
    25
100
AcDbCircle
 10
-0.022
 20
1.6965039347
 30
0.0
 40
0.0312499999999997
100
AcDbArc
 50
314.7488120841
 51
135.2511879159
  0
ARC
  5
30D
330
1F
100
AcDbEntity
  8
0
  6
Continuous
 62
     7
370
    25
100
AcDbCircle
 10
-0.022
 20
2.1342047247
 30
0.0
 40
0.0312499999999993
100
AcDbArc
 50
224.7488120841
 51
45.251187916
  0
ARC
  5
30E
330
1F
100
AcDbEntity
  8
0
  6
Continuous
 62
     7
370
    25
100
AcDbCircle
 10
-0.022
 20
5.436661415
 30
0.0
 40
0.0312500000000005
100
AcDbArc
 50
314.7488120841
 51
135.2511879159
  0
ARC
  5
30F
330
1F
100
AcDbEntity
  8
0
  6
Continuous
 62
     7
370
    25
100
AcDbCircle
 10
-0.022
 20
5.874362205
 30
0.0
 40
0.0312499999999998
100
AcDbArc
 50
224.7488120841
 51
45.2511879159
  0
ARC
  5
310
330
1F
100
AcDbEntity
  8
0
  6
Continuous
 62
     7
370
    25
100
AcDbCircle
 10
-0.022
 20
9.1768188953
 30
0.0
 40
0.0312500000000001
100
AcDbArc
 50
314.7488120841
 51
135.2511879159
  0
ARC
  5
311
330
1F
100
AcDbEntity
  8
0
  6
Continuous
 62
     7
370
    25
100
AcDbCircle
 10
-0.022
 20
9.6145196853
 30
0.0
 40
0.0312499999999995
100
AcDbArc
 50
224.7488120841
 51
45.2511879159
  0
ARC
  5
312
330
1F
100
AcDbEntity
  8
0
  6
Continuous
 62
     7
370
    25
100
AcDbCircle
 10
1.6965039347
 20
11.33302362
 30
0.0
 40
0.0312499999999997
100
AcDbArc
 50
224.7488120841
 51
45.2511879159
  0
ARC
  5
313
330
1F
100
AcDbEntity
  8
0
  6
Continuous
 62
     7
370
    25
100
AcDbCircle
 10
2.1342047247
 20
11.33302362
 30
0.0
 40
0.0312499999999999
100
AcDbArc
 50
134.7488120841
 51
315.2511879159
  0
ARC
  5
314
330
1F
100
AcDbEntity
  8
0
  6
Continuous
 62
     7
370
    25
100
AcDbCircle
 10
5.436661415
 20
11.33302362
 30
0.0
 40
0.0312499999999999
100
AcDbArc
 50
224.7488120841
 51
45.2511879159
  0
ARC
  5
315
330
1F
100
AcDbEntity
  8
0
  6
Continuous
 62
     7
370
    25
100
AcDbCircle
 10
5.874362205
 20
11.33302362
 30
0.0
 40
0.0312500000000024
100
AcDbArc
 50
134.7488120841
 51
315.2511879159
  0
ARC
  5
316
330
1F
100
AcDbEntity
  8
0
  6
Continuous
 62
     7
370
    25
100
AcDbCircle
 10
9.1768188953
 20
11.33302362
 30
0.0
 40
0.0312500000000011
100
AcDbArc
 50
224.7488120841
 51
45.2511879159
  0
ARC
  5
317
330
1F
100
AcDbEntity
  8
0
  6
Continuous
 62
     7
370
    25
100
AcDbCircle
 10
9.6145196853
 20
11.33302362
 30
0.0
 40
0.0312499999999999
100
AcDbArc
 50
134.7488120841
 51
315.2511879159
  0
ARC
  5
318
330
1F
100
AcDbEntity
  8
0
  6
Continuous
 62
     7
370
    25
100
AcDbCircle
 10
11.33302362
 20
9.6145196853
 30
0.0
 40
0.0312500000000013
100
AcDbArc
 50
134.748812084
 51
315.2511879159
  0
ARC
  5
319
330
1F
100
AcDbEntity
  8
0
  6
Continuous
 62
     7
370
    25
100
AcDbCircle
 10
11.33302362
 20
9.1768188953
 30
0.0
 40
0.0312500000000001
100
AcDbArc
 50
44.7488120841
 51
225.251187916
  0
ARC
  5
31A
330
1F
100
AcDbEntity
  8
0
  6
Continuous
 62
     7
370
    25
100
AcDbCircle
 10
11.33302362
 20
5.874362205
 30
0.0
 40
0.0312499999999999
100
AcDbArc
 50
134.7488120841
 51
315.2511879159
  0
ARC
  5
31B
330
1F
100
AcDbEntity
  8
0
  6
Continuous
 62
     7
370
    25
100
AcDbCircle
 10
7.883926598
 20
10.8323725764
 30
0.0
 40
0.0312500000000065
100
AcDbArc
 50
225.0
 51
45.0
  0
ARC
  5
31C
330
1F
100
AcDbEntity
  8
0
  6
Continuous
 62
     7
370
    25
100
AcDbCircle
 10
9.69601181
 20
10.99396187
 30
0.0
 40
0.0312500000000024
100
AcDbArc
 50
224.7488120841
 51
45.2511879159
  0
ARC
  5
31D
330
1F
100
AcDbEntity
  8
0
  6
Continuous
 62
     7
370
    25
100
AcDbCircle
 10
9.69601181
 20
11.08996187
 30
0.0
 40
0.0312500000000036
100
AcDbArc
 50
314.7488120841
 51
135.2511879159
  0
ARC
  5
31E
330
1F
100
AcDbEntity
  8
0
  6
Continuous
 62
     7
370
    25
100
AcDbCircle
 10
1.61501181
 20
11.08996187
 30
0.0
 40
0.0312500000000017
100
AcDbArc
 50
44.7488120841
 51
225.2511879159
  0
ARC
  5
31F
330
1F
100
AcDbEntity
  8
0
  6
Continuous
 62
     7
370
    25
100
AcDbCircle
 10
1.61501181
 20
10.99396187
 30
0.0
 40
0.0312500000000007
100
AcDbArc
 50
134.7488120841
 51
315.2511879159
  0
ARC
  5
320
330
1F
100
AcDbEntity
  8
0
  6
Continuous
 62
     7
370
    25
100
AcDbCircle
 10
3.4281207163
 20
10.8323725764
 30
0.0
 40
0.0312499999999959
100
AcDbArc
 50
135.0
 51
314.9999999999
  0
ARC
  5
321
330
1F
100
AcDbEntity
  8
0
  6
Continuous
 62
     7
370
    25
100
AcDbCircle
 10
3.6339265211
 20
10.8323725764
 30
0.0
 40
0.0312500000000141
100
AcDbArc
 50
225.0000001296
 51
45.0000001297
  0
ARC
  5
322
330
1F
100
AcDbEntity
  8
0
  6
Continuous
 62
     7
370
    25
100
AcDbCircle
 10
7.6781207932
 20
10.8323725764
 30
0.0
 40
0.031250000000004
100
AcDbArc
 50
135.0
 51
315.0
  0
ARC
  5
323
330
1F
100
AcDbEntity
  8
0
  6
Continuous
 62
     7
370
    25
100
AcDbCircle
 10
10.99396187
 20
9.69601181
 30
0.0
 40
0.0312500000000011
100
AcDbArc
 50
44.7488120841
 51
225.2511879159
  0
ARC
  5
324
330
1F
100
AcDbEntity
  8
0
  6
Continuous
 62
     7
370
    25
100
AcDbCircle
 10
10.99396187
 20
1.61501181
 30
0.0
 40
0.0312500000000022
100
AcDbArc
 50
134.7488120841
 51
315.2511879159
  0
ARC
  5
325
330
1F
100
AcDbEntity
  8
0
  6
Continuous
 62
     7
370
    25
100
AcDbCircle
 10
11.08996187
 20
1.61501181
 30
0.0
 40
0.0312500000000032
100
AcDbArc
 50
224.7488120841
 51
45.2511879159
  0
ARC
  5
326
330
1F
100
AcDbEntity
  8
0
  6
Continuous
 62
     7
370
    25
100
AcDbCircle
 10
11.08996187
 20
9.69601181
 30
0.0
 40
0.0312500000000011
100
AcDbArc
 50
314.7488120841
 51
135.2511879159
  0
ARC
  5
327
330
1F
100
AcDbEntity
  8
0
  6
Continuous
 62
     7
370
    25
100
AcDbCircle
 10
7.91429581
 20
1.07053781
 30
0.0
 40
0.1200000000000001
100
AcDbArc
 50
270.0
 51
90.0
  0
ARC
  5
328
330
1F
100
AcDbEntity
  8
0
  6
Continuous
 62
     7
370
    25
100
AcDbCircle
 10
7.4455211565
 20
1.24053781
 30
0.0
 40
0.05
100
AcDbArc
 50
192.2765666767
 51
270.0
  0
ARC
  5
329
330
1F
100
AcDbEntity
  8
0
  6
Continuous
 62
     7
370
    25
100
AcDbCircle
 10
6.66429581
 20
1.07053781
 30
0.0
 40
0.7495079999999992
100
AcDbArc
 50
12.2765666767
 51
167.7234333233
  0
ARC
  5
32A
330
1F
100
AcDbEntity
  8
0
  6
Continuous
 62
     7
370
    25
100
AcDbCircle
 10
5.8830704635
 20
1.24053781
 30
0.0
 40
0.0500000000000012
100
AcDbArc
 50
270.0
 51
347.7234333233
  0
ARC
  5
32B
330
1F
100
AcDbEntity
  8
0
  6
Continuous
 62
     7
370
    25
100
AcDbCircle
 10
5.41429581
 20
1.07053781
 30
0.0
 40
0.1200000000000001
100
AcDbArc
 50
90.0
 51
270.0
  0
ARC
  5
32C
330
1F
100
AcDbEntity
  8
0
  6
Continuous
 62
     7
370
    25
100
AcDbCircle
 10
5.8830704635
 20
0.90053781
 30
0.0
 40
0.0500000000000009
100
AcDbArc
 50
12.2765666767
 51
90.0
  0
ARC
  5
32D
330
1F
100
AcDbEntity
  8
0
  6
Continuous
 62
     7
370
    25
100
AcDbCircle
 10
6.66429581
 20
1.07053781
 30
0.0
 40
0.7495079999999945
100
AcDbArc
 50
192.2765666767
 51
238.4703083387
  0
ARC
  5
32E
330
1F
100
AcDbEntity
  8
0
  6
Continuous
 62
     7
370
    25
100
AcDbCircle
 10
6.2462008187
 20
0.38906175
 30
0.0
 40
0.05
100
AcDbArc
 50
270.0
 51
58.4703083387
  0
ARC
  5
32F
330
1F
100
AcDbEntity
  8
0
  6
Continuous
 62
     7
370
    25
100
AcDbCircle
 10
3.6339265211
 20
0.4786510456
 30
0.0
 40
0.0312500000000134
100
AcDbArc
 50
314.9999998703
 51
134.9999998704
  0
ARC
  5
330
330
1F
100
AcDbEntity
  8
0
  6
Continuous
 62
     7
370
    25
100
AcDbCircle
 10
3.4281207163
 20
0.4786510457
 30
0.0
 40
0.0312499999999952
100
AcDbArc
 50
45.0000000001
 51
225.0
  0
ARC
  5
331
330
1F
100
AcDbEntity
  8
0
  6
Continuous
 62
     7
370
    25
100
AcDbCircle
 10
1.61501181
 20
0.31706175
 30
0.0
 40
0.0312500000000025
100
AcDbArc
 50
44.7488120841
 51
225.2511879159
  0
ARC
  5
332
330
1F
100
AcDbEntity
  8
0
  6
Continuous
 62
     7
370
    25
100
AcDbCircle
 10
1.61501181
 20
0.22106175
 30
0.0
 40
0.0312500000000024
100
AcDbArc
 50
134.7488120841
 51
315.2511879159
  0
ARC
  5
333
330
1F
100
AcDbEntity
  8
0
  6
Continuous
 62
     7
370
    25
100
AcDbCircle
 10
9.69601181
 20
0.22106175
 30
0.0
 40
0.0312500000000011
100
AcDbArc
 50
224.7488120841
 51
45.2511879159
  0
ARC
  5
334
330
1F
100
AcDbEntity
  8
0
  6
Continuous
 62
     7
370
    25
100
AcDbCircle
 10
9.69601181
 20
0.31706175
 30
0.0
 40
0.0312500000000008
100
AcDbArc
 50
314.7488120841
 51
135.2511879159
  0
ARC
  5
335
330
1F
100
AcDbEntity
  8
0
  6
Continuous
 62
     7
370
    25
100
AcDbCircle
 10
7.883926598
 20
0.4786510457
 30
0.0
 40
0.0312500000000048
100
AcDbArc
 50
315.0
 51
135.0
  0
ARC
  5
336
330
1F
100
AcDbEntity
  8
0
  6
Continuous
 62
     7
370
    25
100
AcDbCircle
 10
7.6781207932
 20
0.4786510457
 30
0.0
 40
0.0312500000000017
100
AcDbArc
 50
45.0
 51
225.0
  0
ARC
  5
337
330
1F
100
AcDbEntity
  8
0
  6
Continuous
 62
     7
370
    25
100
AcDbCircle
 10
7.0823908013
 20
0.38906175
 30
0.0
 40
0.0500000000000002
100
AcDbArc
 50
121.5296916613
 51
270.0
  0
ARC
  5
338
330
1F
100
AcDbEntity
  8
0
  6
Continuous
 62
     7
370
    25
100
AcDbCircle
 10
6.66429581
 20
1.07053781
 30
0.0
 40
0.7495079999999936
100
AcDbArc
 50
301.5296916614
 51
347.7234333233
  0
ARC
  5
339
330
1F
100
AcDbEntity
  8
0
  6
Continuous
 62
     7
370
    25
100
AcDbCircle
 10
7.4455211565
 20
0.90053781
 30
0.0
 40
0.0500000000000022
100
AcDbArc
 50
90.0
 51
167.7234333233
  0
ARC
  5
33A
330
1F
100
AcDbEntity
  8
0
  6
Continuous
 62
     7
370
    25
100
AcDbCircle
 10
0.31706175
 20
9.69601181
 30
0.0
 40
0.0312500000000023
100
AcDbArc
 50
314.7488120841
 51
135.2511879159
  0
ARC
  5
33B
330
1F
100
AcDbEntity
  8
0
  6
Continuous
 62
     7
370
    25
100
AcDbCircle
 10
0.22106175
 20
9.69601181
 30
0.0
 40
0.031250000000002
100
AcDbArc
 50
44.7488120841
 51
225.2511879159
  0
ARC
  5
33C
330
1F
100
AcDbEntity
  8
0
  6
Continuous
 62
     7
370
    25
100
AcDbCircle
 10
0.22106175
 20
1.61501181
 30
0.0
 40
0.0312500000000007
100
AcDbArc
 50
134.7488120841
 51
315.2511879159
  0
ARC
  5
33D
330
1F
100
AcDbEntity
  8
0
  6
Continuous
 62
     7
370
    25
100
AcDbCircle
 10
0.31706175
 20
1.61501181
 30
0.0
 40
0.0312500000000007
100
AcDbArc
 50
224.7488120841
 51
45.2511879159
  0
ARC
  5
33E
330
1F
100
AcDbEntity
  8
0
  6
Continuous
 62
     7
370
    25
100
AcDbCircle
 10
0.458488055
 20
9.8203927376
 30
0.0
 40
0.0312500000000007
100
AcDbArc
 50
44.7488120841
 51
225.2511879159
  0
ARC
  5
33F
330
1F
100
AcDbEntity
  8
0
  6
Continuous
 62
     7
370
    25
100
AcDbCircle
 10
0.458488055
 20
9.6143927376
 30
0.0
 40
0.0312500000000001
100
AcDbArc
 50
134.7488120841
 51
315.2511879159
  0
ARC
  5
340
330
1F
100
AcDbEntity
  8
0
  6
Continuous
 62
     7
370
    25
100
AcDbCircle
 10
0.611338445
 20
9.6143927376
 30
0.0
 40
0.0312500000000007
100
AcDbArc
 50
224.7488120841
 51
45.2511879159
  0
ARC
  5
341
330
1F
100
AcDbEntity
  8
0
  6
Continuous
 62
     7
370
    25
100
AcDbCircle
 10
0.611338445
 20
9.8203927376
 30
0.0
 40
0.0312500000000013
100
AcDbArc
 50
314.7488120841
 51
135.2511879159
  0
ARC
  5
342
330
1F
100
AcDbEntity
  8
0
  6
Continuous
 62
     7
370
    25
100
AcDbCircle
 10
1.4906308824
 20
10.699685175
 30
0.0
 40
0.0312500000000005
100
AcDbArc
 50
134.7488120841
 51
315.2511879159
  0
ARC
  5
343
330
1F
100
AcDbEntity
  8
0
  6
Continuous
 62
     7
370
    25
100
AcDbCircle
 10
1.6966308824
 20
10.699685175
 30
0.0
 40
0.0312500000000002
100
AcDbArc
 50
224.7488120841
 51
45.2511879159
  0
ARC
  5
344
330
1F
100
AcDbEntity
  8
0
  6
Continuous
 62
     7
370
    25
100
AcDbCircle
 10
1.6966308824
 20
10.852535565
 30
0.0
 40
0.0312500000000016
100
AcDbArc
 50
314.7488120841
 51
135.2511879159
  0
ARC
  5
345
330
1F
100
AcDbEntity
  8
0
  6
Continuous
 62
     7
370
    25
100
AcDbCircle
 10
1.4906308824
 20
10.852535565
 30
0.0
 40
0.0312500000000011
100
AcDbArc
 50
44.7488120841
 51
225.2511879159
  0
ARC
  5
346
330
1F
100
AcDbEntity
  8
0
  6
Continuous
 62
     7
370
    25
100
AcDbCircle
 10
1.4906308824
 20
0.458488055
 30
0.0
 40
0.0312499999999997
100
AcDbArc
 50
134.7488120841
 51
315.2511879159
  0
ARC
  5
347
330
1F
100
AcDbEntity
  8
0
  6
Continuous
 62
     7
370
    25
100
AcDbCircle
 10
1.6966308824
 20
0.458488055
 30
0.0
 40
0.0312500000000001
100
AcDbArc
 50
224.7488120841
 51
45.2511879159
  0
ARC
  5
348
330
1F
100
AcDbEntity
  8
0
  6
Continuous
 62
     7
370
    25
100
AcDbCircle
 10
1.6966308824
 20
0.611338445
 30
0.0
 40
0.0312499999999998
100
AcDbArc
 50
314.7488120841
 51
135.2511879159
  0
ARC
  5
349
330
1F
100
AcDbEntity
  8
0
  6
Continuous
 62
     7
370
    25
100
AcDbCircle
 10
1.4906308824
 20
0.611338445
 30
0.0
 40
0.0312499999999999
100
AcDbArc
 50
44.7488120841
 51
225.2511879159
  0
ARC
  5
34A
330
1F
100
AcDbEntity
  8
0
  6
Continuous
 62
     7
370
    25
100
AcDbCircle
 10
0.611338445
 20
1.4906308824
 30
0.0
 40
0.0312500000000001
100
AcDbArc
 50
224.7488120841
 51
45.2511879159
  0
ARC
  5
34B
330
1F
100
AcDbEntity
  8
0
  6
Continuous
 62
     7
370
    25
100
AcDbCircle
 10
0.611338445
 20
1.6966308824
 30
0.0
 40
0.03125
100
AcDbArc
 50
314.7488120841
 51
135.2511879159
  0
ARC
  5
34C
330
1F
100
AcDbEntity
  8
0
  6
Continuous
 62
     7
370
    25
100
AcDbCircle
 10
0.458488055
 20
1.6966308824
 30
0.0
 40
0.0312500000000004
100
AcDbArc
 50
44.7488120841
 51
225.2511879159
  0
ARC
  5
34D
330
1F
100
AcDbEntity
  8
0
  6
Continuous
 62
     7
370
    25
100
AcDbCircle
 10
0.458488055
 20
1.4906308824
 30
0.0
 40
0.0312500000000001
100
AcDbArc
 50
134.7488120841
 51
315.2511879159
  0
ARC
  5
34E
330
1F
100
AcDbEntity
  8
0
  6
Continuous
 62
     7
370
    25
100
AcDbCircle
 10
9.7182657199
 20
1.9184775369
 30
0.0
 40
0.1000000000000014
100
AcDbArc
 50
90.0
 51
180.0
  0
ARC
  5
34F
330
1F
100
AcDbEntity
  8
0
  6
Continuous
 62
     7
370
    25
100
AcDbCircle
 10
9.7182657199
 20
1.6093460831
 30
0.0
 40
0.1000000000000014
100
AcDbArc
 50
180.0
 51
270.0
  0
ARC
  5
350
330
1F
100
AcDbEntity
  8
0
  6
Continuous
 62
     7
370
    25
100
AcDbCircle
 10
10.6281579001
 20
1.6093460831
 30
0.0
 40
0.0999999999999915
100
AcDbArc
 50
270.0
 51
299.6877373195
  0
ARC
  5
351
330
1F
100
AcDbEntity
  8
0
  6
Continuous
 62
     7
370
    25
100
AcDbCircle
 10
10.699685175
 20
1.4906308824
 30
0.0
 40
0.0312500000000003
100
AcDbArc
 50
134.7488120841
 51
315.2511879159
  0
ARC
  5
352
330
1F
100
AcDbEntity
  8
0
  6
Continuous
 62
     7
370
    25
100
AcDbCircle
 10
10.852535565
 20
1.4906308824
 30
0.0
 40
0.0312500000000009
100
AcDbArc
 50
224.7488120841
 51
45.2511879159
  0
ARC
  5
353
330
1F
100
AcDbEntity
  8
0
  6
Continuous
 62
     7
370
    25
100
AcDbCircle
 10
10.852535565
 20
1.6966308824
 30
0.0
 40
0.0312500000000005
100
AcDbArc
 50
314.7488120841
 51
135.2511879159
  0
ARC
  5
354
330
1F
100
AcDbEntity
  8
0
  6
Continuous
 62
     7
370
    25
100
AcDbCircle
 10
10.6281579001
 20
1.9184775369
 30
0.0
 40
0.1000000000000016
100
AcDbArc
 50
0.0
 51
90.0
  0
ARC
  5
355
330
1F
100
AcDbEntity
  8
0
  6
Continuous
 62
     7
370
    25
100
AcDbCircle
 10
9.8203927376
 20
0.611338445
 30
0.0
 40
0.031250000000001
100
AcDbArc
 50
314.7488120841
 51
135.2511879159
  0
ARC
  5
356
330
1F
100
AcDbEntity
  8
0
  6
Continuous
 62
     7
370
    25
100
AcDbCircle
 10
9.6143927376
 20
0.611338445
 30
0.0
 40
0.0312500000000017
100
AcDbArc
 50
44.7488120841
 51
225.2511879159
  0
ARC
  5
357
330
1F
100
AcDbEntity
  8
0
  6
Continuous
 62
     7
370
    25
100
AcDbCircle
 10
9.6143927376
 20
0.458488055
 30
0.0
 40
0.0312500000000015
100
AcDbArc
 50
134.7488120841
 51
315.2511879159
  0
ARC
  5
358
330
1F
100
AcDbEntity
  8
0
  6
Continuous
 62
     7
370
    25
100
AcDbCircle
 10
9.8203927376
 20
0.458488055
 30
0.0
 40
0.0312500000000014
100
AcDbArc
 50
224.7488120841
 51
45.2511879159
  0
ARC
  5
359
330
1F
100
AcDbEntity
  8
0
  6
Continuous
 62
     7
370
    25
100
AcDbCircle
 10
9.8203927376
 20
10.852535565
 30
0.0
 40
0.0312499999999998
100
AcDbArc
 50
314.7488120841
 51
135.2511879159
  0
ARC
  5
35A
330
1F
100
AcDbEntity
  8
0
  6
Continuous
 62
     7
370
    25
100
AcDbCircle
 10
9.6143927376
 20
10.852535565
 30
0.0
 40
0.0312500000000024
100
AcDbArc
 50
44.7488120841
 51
225.2511879159
  0
ARC
  5
35B
330
1F
100
AcDbEntity
  8
0
  6
Continuous
 62
     7
370
    25
100
AcDbCircle
 10
9.6143927376
 20
10.699685175
 30
0.0
 40
0.0312500000000011
100
AcDbArc
 50
134.7488120841
 51
315.2511879159
  0
ARC
  5
35C
330
1F
100
AcDbEntity
  8
0
  6
Continuous
 62
     7
370
    25
100
AcDbCircle
 10
9.8203927376
 20
10.699685175
 30
0.0
 40
0.0312500000000011
100
AcDbArc
 50
224.7488120841
 51
45.2511879159
  0
ARC
  5
35D
330
1F
100
AcDbEntity
  8
0
  6
Continuous
 62
     7
370
    25
100
AcDbCircle
 10
9.39301181
 20
10.00801181
 30
0.0
 40
0.0625000000000018
100
AcDbArc
 50
90.0
 51
180.0
  0
ARC
  5
35E
330
1F
100
AcDbEntity
  8
0
  6
Continuous
 62
     7
370
    25
100
AcDbCircle
 10
9.39301181
 20
9.23301181
 30
0.0
 40
0.0624999999999982
100
AcDbArc
 50
180.0
 51
270.0
  0
ARC
  5
35F
330
1F
100
AcDbEntity
  8
0
  6
Continuous
 62
     7
370
    25
100
AcDbCircle
 10
10.06801181
 20
9.23301181
 30
0.0
 40
0.0624999999999982
100
AcDbArc
 50
270.0
 51
0.0
  0
ARC
  5
360
330
1F
100
AcDbEntity
  8
0
  6
Continuous
 62
     7
370
    25
100
AcDbCircle
 10
10.19301181
 20
9.67801181
 30
0.0
 40
0.0625
100
AcDbArc
 50
90.0
 51
180.0
  0
ARC
  5
361
330
1F
100
AcDbEntity
  8
0
  6
Continuous
 62
     7
370
    25
100
AcDbCircle
 10
10.699685175
 20
9.6143927376
 30
0.0
 40
0.0312500000000024
100
AcDbArc
 50
134.7488120841
 51
315.2511879159
  0
ARC
  5
362
330
1F
100
AcDbEntity
  8
0
  6
Continuous
 62
     7
370
    25
100
AcDbCircle
 10
10.852535565
 20
9.6143927376
 30
0.0
 40
0.0312499999999998
100
AcDbArc
 50
224.7488120841
 51
45.2511879159
  0
ARC
  5
363
330
1F
100
AcDbEntity
  8
0
  6
Continuous
 62
     7
370
    25
100
AcDbCircle
 10
10.852535565
 20
9.8203927376
 30
0.0
 40
0.0312499999999999
100
AcDbArc
 50
314.7488120841
 51
135.2511879159
  0
ARC
  5
364
330
1F
100
AcDbEntity
  8
0
  6
Continuous
 62
     7
370
    25
100
AcDbCircle
 10
10.70801181
 20
10.00801181
 30
0.0
 40
0.0625000000000053
100
AcDbArc
 50
0.0
 51
90.0
  0
ARC
  5
365
330
1F
100
AcDbEntity
  8
0
  6
Continuous
 62
     7
370
    25
100
AcDbCircle
 10
1.3456045311
 20
7.4112870977
 30
0.0
 40
0.1000000000000011
100
AcDbArc
 50
41.9487385916
 51
221.9487385916
  0
ARC
  5
366
330
1F
100
AcDbEntity
  8
0
  6
Continuous
 62
     7
370
    25
100
AcDbCircle
 10
1.465573514
 20
7.0534135392
 30
0.0
 40
0.0499999999999979
100
AcDbArc
 50
327.7899013077
 51
41.9487385916
  0
ARC
  5
367
330
1F
100
AcDbEntity
  8
0
  6
Continuous
 62
     7
370
    25
100
AcDbCircle
 10
1.93051181
 20
6.76051181
 30
0.0
 40
0.4995080000000012
100
AcDbArc
 50
147.7899013077
 51
296.1075758755
  0
ARC
  5
368
330
1F
100
AcDbEntity
  8
0
  6
Continuous
 62
     7
370
    25
100
AcDbCircle
 10
2.1723271502
 20
6.2670704424
 30
0.0
 40
0.0500000000000025
100
AcDbArc
 50
41.9487385916
 51
116.1075758755
  0
ARC
  5
369
330
1F
100
AcDbEntity
  8
0
  6
Continuous
 62
     7
370
    25
100
AcDbCircle
 10
2.5154190889
 20
6.1097365223
 30
0.0
 40
0.1000000000000014
100
AcDbArc
 50
221.9487385916
 51
41.9487385916
  0
ARC
  5
36A
330
1F
100
AcDbEntity
  8
0
  6
Continuous
 62
     7
370
    25
100
AcDbCircle
 10
2.395450106
 20
6.4676100808
 30
0.0
 40
0.0499999999999974
100
AcDbArc
 50
147.7899013077
 51
221.9487385916
  0
ARC
  5
36B
330
1F
100
AcDbEntity
  8
0
  6
Continuous
 62
     7
370
    25
100
AcDbCircle
 10
1.93051181
 20
6.76051181
 30
0.0
 40
0.4995080000000016
100
AcDbArc
 50
327.7899013077
 51
116.1075758755
  0
ARC
  5
36C
330
1F
100
AcDbEntity
  8
0
  6
Continuous
 62
     7
370
    25
100
AcDbCircle
 10
1.6886964698
 20
7.2539531776
 30
0.0
 40
0.0499999999999982
100
AcDbArc
 50
221.9487385916
 51
296.1075758755
  0
ARC
  5
36D
330
1F
100
AcDbEntity
  8
0
  6
Continuous
 62
     7
370
    25
100
AcDbCircle
 10
2.1723821502
 20
1.7670964424
 30
0.0
 40
0.0500000000000009
100
AcDbArc
 50
41.9487385916
 51
116.1075758755
  0
ARC
  5
36E
330
1F
100
AcDbEntity
  8
0
  6
Continuous
 62
     7
370
    25
100
AcDbCircle
 10
2.5154740889
 20
1.6097625223
 30
0.0
 40
0.1000000000000005
100
AcDbArc
 50
221.9487385916
 51
41.9487385916
  0
ARC
  5
36F
330
1F
100
AcDbEntity
  8
0
  6
Continuous
 62
     7
370
    25
100
AcDbCircle
 10
2.395505106
 20
1.9676360808
 30
0.0
 40
0.0499999999999997
100
AcDbArc
 50
147.7899013077
 51
221.9487385916
  0
ARC
  5
370
330
1F
100
AcDbEntity
  8
0
  6
Continuous
 62
     7
370
    25
100
AcDbCircle
 10
1.93056681
 20
2.26053781
 30
0.0
 40
0.4995080000000013
100
AcDbArc
 50
327.7899013077
 51
116.1075758755
  0
ARC
  5
371
330
1F
100
AcDbEntity
  8
0
  6
Continuous
 62
     7
370
    25
100
AcDbCircle
 10
1.6887514698
 20
2.7539791776
 30
0.0
 40
0.0499999999999977
100
AcDbArc
 50
221.9487385916
 51
296.1075758755
  0
ARC
  5
372
330
1F
100
AcDbEntity
  8
0
  6
Continuous
 62
     7
370
    25
100
AcDbCircle
 10
1.3456595311
 20
2.9113130977
 30
0.0
 40
0.1000000000000001
100
AcDbArc
 50
41.9487385916
 51
221.9487385916
  0
ARC
  5
373
330
1F
100
AcDbEntity
  8
0
  6
Continuous
 62
     7
370
    25
100
AcDbCircle
 10
1.465628514
 20
2.5534395392
 30
0.0
 40
0.0499999999999984
100
AcDbArc
 50
327.7899013077
 51
41.9487385916
  0
ARC
  5
374
330
1F
100
AcDbEntity
  8
0
  6
Continuous
 62
     7
370
    25
100
AcDbCircle
 10
1.93056681
 20
2.26053781
 30
0.0
 40
0.499508000000001
100
AcDbArc
 50
147.7899013077
 51
296.1075758755
  0
ARC
  5
375
330
1F
100
AcDbEntity
  8
0
  6
Continuous
 62
     7
370
    25
100
AcDbCircle
 10
3.42556681
 20
9.76274581
 30
0.0
 40
0.0999999999999996
100
AcDbArc
 50
90.0
 51
270.0
  0
ARC
  5
376
330
1F
100
AcDbEntity
  8
0
  6
Continuous
 62
     7
370
    25
100
AcDbCircle
 10
3.7719279521
 20
9.61274581
 30
0.0
 40
0.0499999999999955
100
AcDbArc
 50
15.8411627161
 51
90.0
  0
ARC
  5
377
330
1F
100
AcDbEntity
  8
0
  6
Continuous
 62
     7
370
    25
100
AcDbCircle
 10
4.30056681
 20
9.76274581
 30
0.0
 40
0.4995080000000235
100
AcDbArc
 50
195.8411627161
 51
344.1588372839
  0
ARC
  5
378
330
1F
100
AcDbEntity
  8
0
  6
Continuous
 62
     7
370
    25
100
AcDbCircle
 10
4.8292056679
 20
9.61274581
 30
0.0
 40
0.0500000000000007
100
AcDbArc
 50
90.0
 51
164.1588372839
  0
ARC
  5
379
330
1F
100
AcDbEntity
  8
0
  6
Continuous
 62
     7
370
    25
100
AcDbCircle
 10
5.17556681
 20
9.76274581
 30
0.0
 40
0.0999999999999996
100
AcDbArc
 50
270.0
 51
90.0
  0
ARC
  5
37A
330
1F
100
AcDbEntity
  8
0
  6
Continuous
 62
     7
370
    25
100
AcDbCircle
 10
4.8292056679
 20
9.91274581
 30
0.0
 40
0.0500000000000025
100
AcDbArc
 50
195.8411627161
 51
270.0
  0
ARC
  5
37B
330
1F
100
AcDbEntity
  8
0
  6
Continuous
 62
     7
370
    25
100
AcDbCircle
 10
4.30056681
 20
9.76274581
 30
0.0
 40
0.4995080000000233
100
AcDbArc
 50
15.8411627161
 51
164.1588372839
  0
ARC
  5
37C
330
1F
100
AcDbEntity
  8
0
  6
Continuous
 62
     7
370
    25
100
AcDbCircle
 10
3.7719279521
 20
9.91274581
 30
0.0
 40
0.0499999999999989
100
AcDbArc
 50
270.0
 51
344.1588372839
  0
ARC
  5
37D
330
1F
100
AcDbEntity
  8
0
  6
Continuous
 62
     7
370
    25
100
AcDbCircle
 10
8.2091732483
 20
2.3492517185
 30
0.0
 40
0.2481003811888502
100
AcDbArc
 50
269.9999999908
 51
0.0
  0
ARC
  5
37E
330
1F
100
AcDbEntity
  8
0
  6
Continuous
 62
     7
370
    25
100
AcDbCircle
 10
8.2091731838
 20
8.9634248885
 30
0.0
 40
0.2481004456610668
100
AcDbArc
 50
0.0000268128
 51
89.9999984237
  0
ARC
  5
37F
330
1F
100
AcDbEntity
  8
0
  6
Continuous
 62
     7
370
    25
100
AcDbCircle
 10
3.287913454
 20
8.7665744986
 30
0.0
 40
0.4449508355989363
100
AcDbArc
 50
90.0000135733
 51
180.0
  0
ARC
  5
380
330
1F
100
AcDbEntity
  8
0
  6
Continuous
 62
     7
370
    25
100
AcDbCircle
 10
3.2879134067
 20
2.5461021256
 30
0.0
 40
0.4449507882964379
100
AcDbArc
 50
180.0000001152
 51
270.0
  0
ARC
  5
381
330
1F
100
AcDbEntity
  8
0
  6
Continuous
 62
     7
370
    25
100
AcDbCircle
 10
7.883926598
 20
2.0286513533
 30
0.0
 40
0.0312499999999981
100
AcDbArc
 50
315.0
 51
135.0
  0
ARC
  5
382
330
1F
100
AcDbEntity
  8
0
  6
Continuous
 62
     7
370
    25
100
AcDbCircle
 10
7.6781207932
 20
2.0286513533
 30
0.0
 40
0.031249999999999
100
AcDbArc
 50
45.0
 51
225.0
  0
ARC
  5
383
330
1F
100
AcDbEntity
  8
0
  6
Continuous
 62
     7
370
    25
100
AcDbCircle
 10
7.6781207932
 20
1.8228454018
 30
0.0
 40
0.0312500000000108
100
AcDbArc
 50
134.9999999999
 51
314.9999999999
  0
ARC
  5
384
330
1F
100
AcDbEntity
  8
0
  6
Continuous
 62
     7
370
    25
100
AcDbCircle
 10
7.883926598
 20
1.8228454018
 30
0.0
 40
0.0312500000000172
100
AcDbArc
 50
225.0
 51
45.0
  0
ARC
  5
385
330
1F
100
AcDbEntity
  8
0
  6
Continuous
 62
     7
370
    25
100
AcDbCircle
 10
7.6781207932
 20
9.2823722688
 30
0.0
 40
0.0312500000000002
100
AcDbArc
 50
135.0
 51
315.0
  0
ARC
  5
386
330
1F
100
AcDbEntity
  8
0
  6
Continuous
 62
     7
370
    25
100
AcDbCircle
 10
7.883926598
 20
9.2823722688
 30
0.0
 40
0.0312499999999977
100
AcDbArc
 50
225.0
 51
45.0
  0
ARC
  5
387
330
1F
100
AcDbEntity
  8
0
  6
Continuous
 62
     7
370
    25
100
AcDbCircle
 10
7.883926598
 20
9.4881782203
 30
0.0
 40
0.0312500000000166
100
AcDbArc
 50
315.0
 51
135.0
  0
ARC
  5
388
330
1F
100
AcDbEntity
  8
0
  6
Continuous
 62
     7
370
    25
100
AcDbCircle
 10
7.6781207932
 20
9.4881782203
 30
0.0
 40
0.0312500000000109
100
AcDbArc
 50
45.0000000001
 51
225.0000000001
  0
ARC
  5
389
330
1F
100
AcDbEntity
  8
0
  6
Continuous
 62
     7
370
    25
100
AcDbCircle
 10
3.4281207162
 20
9.2823722688
 30
0.0
 40
0.0312499999999984
100
AcDbArc
 50
134.9999999352
 51
314.9999999352
  0
ARC
  5
38A
330
1F
100
AcDbEntity
  8
0
  6
Continuous
 62
     7
370
    25
100
AcDbCircle
 10
3.6339265211
 20
9.2823722688
 30
0.0
 40
0.03125000000001
100
AcDbArc
 50
225.0000000648
 51
45.0000000648
  0
ARC
  5
38B
330
1F
100
AcDbEntity
  8
0
  6
Continuous
 62
     7
370
    25
100
AcDbCircle
 10
3.6339265211
 20
9.4881782202
 30
0.0
 40
0.0312500000000109
100
AcDbArc
 50
314.9999999352
 51
134.9999999352
  0
ARC
  5
38C
330
1F
100
AcDbEntity
  8
0
  6
Continuous
 62
     7
370
    25
100
AcDbCircle
 10
3.4281207162
 20
9.4881782202
 30
0.0
 40
0.0312499999999981
100
AcDbArc
 50
45.0000000649
 51
225.0000000648
  0
ARC
  5
38D
330
1F
100
AcDbEntity
  8
0
  6
Continuous
 62
     7
370
    25
100
AcDbCircle
 10
3.6339265211
 20
2.0286513532
 30
0.0
 40
0.0312500000000112
100
AcDbArc
 50
314.9999999352
 51
134.9999999352
  0
ARC
  5
38E
330
1F
100
AcDbEntity
  8
0
  6
Continuous
 62
     7
370
    25
100
AcDbCircle
 10
3.4281207162
 20
2.0286513532
 30
0.0
 40
0.0312499999999987
100
AcDbArc
 50
45.0000000648
 51
225.0000000648
  0
ARC
  5
38F
330
1F
100
AcDbEntity
  8
0
  6
Continuous
 62
     7
370
    25
100
AcDbCircle
 10
3.4281207162
 20
1.8228454018
 30
0.0
 40
0.0312499999999982
100
AcDbArc
 50
134.9999999352
 51
314.9999999351
  0
ARC
  5
390
330
1F
100
AcDbEntity
  8
0
  6
Continuous
 62
     7
370
    25
100
AcDbCircle
 10
3.6339265211
 20
1.8228454018
 30
0.0
 40
0.0312500000000109
100
AcDbArc
 50
225.0000000648
 51
45.0000000648
  0
ARC
  5
391
330
1F
100
AcDbEntity
  8
0
  6
Continuous
 62
     7
370
    25
100
AcDbCircle
 10
9.824770942
 20
2.4095467287
 30
0.0
 40
0.1000000000000014
100
AcDbArc
 50
270.0
 51
0.0
  0
ARC
  5
392
330
1F
100
AcDbEntity
  8
0
  6
Continuous
 62
     7
370
    25
100
AcDbCircle
 10
9.824770942
 20
6.2869168913
 30
0.0
 40
0.1000000000000014
100
AcDbArc
 50
0.0
 51
90.0
  0
ARC
  5
393
330
1F
100
AcDbEntity
  8
0
  6
Continuous
 62
     7
370
    25
100
AcDbCircle
 10
8.827622678
 20
6.2869168913
 30
0.0
 40
0.0999999999999996
100
AcDbArc
 50
90.0
 51
180.0
  0
ARC
  5
394
330
1F
100
AcDbEntity
  8
0
  6
Continuous
 62
     7
370
    25
100
AcDbCircle
 10
8.827622678
 20
2.4095467287
 30
0.0
 40
0.1000000000000014
100
AcDbArc
 50
180.0
 51
270.0
  0
ARC
  5
395
330
1F
100
AcDbEntity
  8
0
  6
Continuous
 62
     7
370
    25
100
AcDbCircle
 10
10.699685175
 20
1.6966308824
 30
0.0
 40
0.0312499999999998
100
AcDbArc
 50
44.7488120841
 51
225.2511879159
  0
ARC
  5
396
330
1F
100
AcDbEntity
  8
0
  6
Continuous
 62
     7
370
    25
100
AcDbCircle
 10
10.699685175
 20
9.8203927376
 30
0.0
 40
0.0312500000000024
100
AcDbArc
 50
44.7488120841
 51
225.2511879159
  0
ENDSEC
  0
SECTION
  2
OBJECTS
  0
DICTIONARY
  5
C
330
0
100
AcDbDictionary
281
     1
  3
ACAD_GROUP
350
D
  3
ACAD_LAYOUT
350
1A
  3
ACAD_MLINESTYLE
350
17
  3
ACAD_PLOTSETTINGS
350
19
  3
ACAD_PLOTSTYLENAME
350
E
  3
ACAD_SCALELIST
350
47
  0
DICTIONARY
  5
D
102
{ACAD_REACTORS
330
C
102
}
330
C
100
AcDbDictionary
281
     1
  0
DICTIONARY
  5
1A
102
{ACAD_REACTORS
330
C
102
}
330
C
100
AcDbDictionary
281
     1
  3
Layout1
350
1E
  3
Layout2
350
26
  3
Model
350
22
  0
DICTIONARY
  5
17
102
{ACAD_REACTORS
330
C
102
}
330
C
100
AcDbDictionary
281
     1
  3
Standard
350
18
  0
DICTIONARY
  5
19
102
{ACAD_REACTORS
330
C
102
}
330
C
100
AcDbDictionary
281
     1
  0
ACDBDICTIONARYWDFLT
  5
E
102
{ACAD_REACTORS
330
C
102
}
330
C
100
AcDbDictionary
281
     1
  3
Normal
350
F
100
AcDbDictionaryWithDefault
340
F
  0
DICTIONARY
  5
47
102
{ACAD_REACTORS
330
C
102
}
330
C
100
AcDbDictionary
281
     1
  3
A0
350
48
  3
A1
350
49
  3
A2
350
4A
  3
A3
350
4B
  3
A4
350
4C
  3
A5
350
4D
  3
A6
350
4E
  3
A7
350
4F
  3
A8
350
50
  3
A9
350
51
  3
B0
350
52
  3
B1
350
53
  3
B2
350
54
  3
B3
350
55
  3
B4
350
56
  3
B5
350
57
  3
B6
350
58
  3
B7
350
59
  3
B8
350
5A
  3
B9
350
5B
  3
C0
350
5C
  3
C1
350
5D
  3
C2
350
5E
  3
C3
350
5F
  3
C4
350
60
  3
C5
350
61
  3
C6
350
62
  3
C7
350
63
  3
C8
350
64
  3
C9
350
65
  3
D0
350
66
  3
D1
350
67
  3
D2
350
68
  0
LAYOUT
  5
1E
102
{ACAD_REACTORS
330
1A
102
}
330
1A
100
AcDbPlotSettings
  1

  2
none_device
  4

  6

 40
0.0
 41
0.0
 42
0.0
 43
0.0
 44
0.0
 45
0.0
 46
0.0
 47
0.0
 48
0.0
 49
0.0
140
0.0
141
0.0
142
1.0
143
1.0
 70
   688
 72
     0
 73
     0
 74
     5
  7

 75
    16
147
1.0
148
0.0
149
0.0
100
AcDbLayout
  1
Layout1
 70
     1
 71
     1
 10
0.0
 20
0.0
 11
12.0
 21
9.0
 12
0.0
 22
0.0
 32
0.0
 14
1.0000000000E+20
 24
1.0000000000E+20
 34
1.0000000000E+20
 15
-1.0000000000E+20
 25
-1.0000000000E+20
 35
-1.0000000000E+20
146
0.0
 13
0.0
 23
0.0
 33
0.0
 16
1.0
 26
0.0
 36
0.0
 17
0.0
 27
1.0
 37
0.0
 76
     0
330
1B
  0
LAYOUT
  5
26
102
{ACAD_REACTORS
330
1A
102
}
330
1A
100
AcDbPlotSettings
  1

  2
none_device
  4

  6

 40
0.0
 41
0.0
 42
0.0
 43
0.0
 44
0.0
 45
0.0
 46
0.0
 47
0.0
 48
0.0
 49
0.0
140
0.0
141
0.0
142
1.0
143
1.0
 70
   688
 72
     0
 73
     0
 74
     5
  7

 75
    16
147
1.0
148
0.0
149
0.0
100
AcDbLayout
  1
Layout2
 70
     1
 71
     2
 10
0.0
 20
0.0
 11
0.0
 21
0.0
 12
0.0
 22
0.0
 32
0.0
 14
0.0
 24
0.0
 34
0.0
 15
0.0
 25
0.0
 35
0.0
146
0.0
 13
0.0
 23
0.0
 33
0.0
 16
1.0
 26
0.0
 36
0.0
 17
0.0
 27
1.0
 37
0.0
 76
     0
330
23
  0
LAYOUT
  5
22
102
{ACAD_REACTORS
330
1A
102
}
330
1A
100
AcDbPlotSettings
  1

  2
none_device
  4
ANSI_A_(11.00_x_8.50_Inches)
  6

 40
6.35
 41
19.05
 42
6.35000508
 43
19.05000254
 44
279.4
 45
215.9
 46
31.0036819608
 47
-13.4463167692
 48
0.0
 49
0.0
140
0.0
141
0.0
142
0.7124700001
143
1.0
 70
  1696
 72
     0
 73
     0
 74
     0
  7

 75
     0
147
0.5913241897
148
-39.4088153714
149
0.0
100
AcDbLayout
  1
Model
 70
     1
 71
     0
 10
0.0
 20
0.0
 11
12.0
 21
9.0
 12
0.0
 22
0.0
 32
0.0
 14
-0.25
 24
-0.25
 34
0.0
 15
11.56102362
 25
11.56102362
 35
0.0
146
0.0
 13
0.0
 23
0.0
 33
0.0
 16
1.0
 26
0.0
 36
0.0
 17
0.0
 27
1.0
 37
0.0
 76
     0
330
1F
331
29
  0
MLINESTYLE
  5
18
102
{ACAD_REACTORS
330
17
102
}
330
17
100
AcDbMlineStyle
  2
Standard
 70
     0
  3

 62
   256
 51
90.0
 52
90.0
 71
     2
 49
0.5
 62
   256
  6
BYLAYER
 49
-0.5
 62
   256
  6
BYLAYER
  0
ACDBPLACEHOLDER
  5
F
102
{ACAD_REACTORS
330
E
102
}
330
E
  0
SCALE
  5
48
102
{ACAD_REACTORS
330
47
102
}
330
47
100
AcDbScale
 70
     0
300
1:1
140
1.0
141
1.0
290
     1
  0
SCALE
  5
49
102
{ACAD_REACTORS
330
47
102
}
330
47
100
AcDbScale
 70
     0
300
1:2
140
1.0
141
2.0
290
     0
  0
SCALE
  5
4A
102
{ACAD_REACTORS
330
47
102
}
330
47
100
AcDbScale
 70
     0
300
1:4
140
1.0
141
4.0
290
     0
  0
SCALE
  5
4B
102
{ACAD_REACTORS
330
47
102
}
330
47
100
AcDbScale
 70
     0
300
1:5
140
1.0
141
5.0
290
     0
  0
SCALE
  5
4C
102
{ACAD_REACTORS
330
47
102
}
330
47
100
AcDbScale
 70
     0
300
1:8
140
1.0
141
8.0
290
     0
  0
SCALE
  5
4D
102
{ACAD_REACTORS
330
47
102
}
330
47
100
AcDbScale
 70
     0
300
1:10
140
1.0
141
10.0
290
     0
  0
SCALE
  5
4E
102
{ACAD_REACTORS
330
47
102
}
330
47
100
AcDbScale
 70
     0
300
1:16
140
1.0
141
16.0
290
     0
  0
SCALE
  5
4F
102
{ACAD_REACTORS
330
47
102
}
330
47
100
AcDbScale
 70
     0
300
1:20
140
1.0
141
20.0
290
     0
  0
SCALE
  5
50
102
{ACAD_REACTORS
330
47
102
}
330
47
100
AcDbScale
 70
     0
300
1:30
140
1.0
141
30.0
290
     0
  0
SCALE
  5
51
102
{ACAD_REACTORS
330
47
102
}
330
47
100
AcDbScale
 70
     0
300
1:40
140
1.0
141
40.0
290
     0
  0
SCALE
  5
52
102
{ACAD_REACTORS
330
47
102
}
330
47
100
AcDbScale
 70
     0
300
1:50
140
1.0
141
50.0
290
     0
  0
SCALE
  5
53
102
{ACAD_REACTORS
330
47
102
}
330
47
100
AcDbScale
 70
     0
300
1:100
140
1.0
141
100.0
290
     0
  0
SCALE
  5
54
102
{ACAD_REACTORS
330
47
102
}
330
47
100
AcDbScale
 70
     0
300
2:1
140
2.0
141
1.0
290
     0
  0
SCALE
  5
55
102
{ACAD_REACTORS
330
47
102
}
330
47
100
AcDbScale
 70
     0
300
4:1
140
4.0
141
1.0
290
     0
  0
SCALE
  5
56
102
{ACAD_REACTORS
330
47
102
}
330
47
100
AcDbScale
 70
     0
300
8:1
140
8.0
141
1.0
290
     0
  0
SCALE
  5
57
102
{ACAD_REACTORS
330
47
102
}
330
47
100
AcDbScale
 70
     0
300
10:1
140
10.0
141
1.0
290
     0
  0
SCALE
  5
58
102
{ACAD_REACTORS
330
47
102
}
330
47
100
AcDbScale
 70
     0
300
100:1
140
100.0
141
1.0
290
     0
  0
SCALE
  5
59
102
{ACAD_REACTORS
330
47
102
}
330
47
100
AcDbScale
 70
     0
300
1/128" = 1'-0"
140
0.0078125
141
12.0
290
     0
  0
SCALE
  5
5A
102
{ACAD_REACTORS
330
47
102
}
330
47
100
AcDbScale
 70
     0
300
1/64" = 1'-0"
140
0.015625
141
12.0
290
     0
  0
SCALE
  5
5B
102
{ACAD_REACTORS
330
47
102
}
330
47
100
AcDbScale
 70
     0
300
1/32" = 1'-0"
140
0.03125
141
12.0
290
     0
  0
SCALE
  5
5C
102
{ACAD_REACTORS
330
47
102
}
330
47
100
AcDbScale
 70
     0
300
1/16" = 1'-0"
140
0.0625
141
12.0
290
     0
  0
SCALE
  5
5D
102
{ACAD_REACTORS
330
47
102
}
330
47
100
AcDbScale
 70
     0
300
3/32" = 1'-0"
140
0.09375
141
12.0
290
     0
  0
SCALE
  5
5E
102
{ACAD_REACTORS
330
47
102
}
330
47
100
AcDbScale
 70
     0
300
1/8" = 1'-0"
140
0.125
141
12.0
290
     0
  0
SCALE
  5
5F
102
{ACAD_REACTORS
330
47
102
}
330
47
100
AcDbScale
 70
     0
300
3/16" = 1'-0"
140
0.1875
141
12.0
290
     0
  0
SCALE
  5
60
102
{ACAD_REACTORS
330
47
102
}
330
47
100
AcDbScale
 70
     0
300
1/4" = 1'-0"
140
0.25
141
12.0
290
     0
  0
SCALE
  5
61
102
{ACAD_REACTORS
330
47
102
}
330
47
100
AcDbScale
 70
     0
300
3/8" = 1'-0"
140
0.375
141
12.0
290
     0
  0
SCALE
  5
62
102
{ACAD_REACTORS
330
47
102
}
330
47
100
AcDbScale
 70
     0
300
1/2" = 1'-0"
140
0.5
141
12.0
290
     0
  0
SCALE
  5
63
102
{ACAD_REACTORS
330
47
102
}
330
47
100
AcDbScale
 70
     0
300
3/4" = 1'-0"
140
0.75
141
12.0
290
     0
  0
SCALE
  5
64
102
{ACAD_REACTORS
330
47
102
}
330
47
100
AcDbScale
 70
     0
300
1" = 1'-0"
140
1.0
141
12.0
290
     0
  0
SCALE
  5
65
102
{ACAD_REACTORS
330
47
102
}
330
47
100
AcDbScale
 70
     0
300
1-1/2" = 1'-0"
140
1.5
141
12.0
290
     0
  0
SCALE
  5
66
102
{ACAD_REACTORS
330
47
102
}
330
47
100
AcDbScale
 70
     0
300
3" = 1'-0"
140
3.0
141
12.0
290
     0
  0
SCALE
  5
67
102
{ACAD_REACTORS
330
47
102
}
330
47
100
AcDbScale
 70
     0
300
6" = 1'-0"
140
6.0
141
12.0
290
     0
  0
SCALE
  5
68
102
{ACAD_REACTORS
330
47
102
}
330
47
100
AcDbScale
 70
     0
300
1'-0" = 1'-0"
140
12.0
141
12.0
290
     0
  0
ENDSEC
  0
EOF
