  0
SECTION
  2
HEADER
  9
$ACADVER
  1
AC1015
  9
$ACADMAINTVER
 70
     6
  9
$DWGCODEPAGE
  3
ANSI_1252
  9
$INSBASE
 10
0.0
 20
0.0
 30
0.0
  9
$EXTMIN
 10
-3.56
 20
-3.69125
 30
0.0
  9
$EXTMAX
 10
3.56
 20
3.69125
 30
0.0
  9
$LIMMIN
 10
0.0
 20
0.0
  9
$LIMMAX
 10
12.0
 20
9.0
  9
$ORTHOMODE
 70
     0
  9
$REGENMODE
 70
     1
  9
$FILLMODE
 70
     1
  9
$QTEXTMODE
 70
     0
  9
$MIRRTEXT
 70
     1
  9
$LTSCALE
 40
1.0
  9
$ATTMODE
 70
     1
  9
$TEXTSIZE
 40
0.125
  9
$TRACEWID
 40
0.05
  9
$TEXTSTYLE
  7
Standard
  9
$CLAYER
  8
0
  9
$CELTYPE
  6
ByLayer
  9
$CECOLOR
 62
   256
  9
$CELTSCALE
 40
1.0
  9
$DISPSILH
 70
     0
  9
$DIMSCALE
 40
1.0
  9
$DIMASZ
 40
0.13
  9
$DIMEXO
 40
0.05
  9
$DIMDLI
 40
0.38
  9
$DIMRND
 40
0.0
  9
$DIMDLE
 40
0.0
  9
$DIMEXE
 40
0.125
  9
$DIMTP
 40
0.0
  9
$DIMTM
 40
0.0
  9
$DIMTXT
 40
0.125
  9
$DIMCEN
 40
0.09
  9
$DIMTSZ
 40
0.0
  9
$DIMTOL
 70
     0
  9
$DIMLIM
 70
     0
  9
$DIMTIH
 70
     1
  9
$DIMTOH
 70
     1
  9
$DIMSE1
 70
     0
  9
$DIMSE2
 70
     0
  9
$DIMTAD
 70
     0
  9
$DIMZIN
 70
     1
  9
$DIMBLK
  1

  9
$DIMASO
 70
     1
  9
$DIMSHO
 70
     1
  9
$DIMPOST
  1

  9
$DIMAPOST
  1

  9
$DIMALT
 70
     0
  9
$DIMALTD
 70
     2
  9
$DIMALTF
 40
25.4
  9
$DIMLFAC
 40
1.0
  9
$DIMTOFL
 70
     0
  9
$DIMTVP
 40
0.0
  9
$DIMTIX
 70
     0
  9
$DIMSOXD
 70
     0
  9
$DIMSAH
 70
     0
  9
$DIMBLK1
  1

  9
$DIMBLK2
  1

  9
$DIMSTYLE
  2
Standard
  9
$DIMCLRD
 70
     0
  9
$DIMCLRE
 70
     0
  9
$DIMCLRT
 70
     0
  9
$DIMTFAC
 40
1.0
  9
$DIMGAP
 40
0.06
  9
$DIMJUST
 70
     0
  9
$DIMSD1
 70
     0
  9
$DIMSD2
 70
     0
  9
$DIMTOLJ
 70
     1
  9
$DIMTZIN
 70
     1
  9
$DIMALTZ
 70
     0
  9
$DIMALTTZ
 70
     0
  9
$DIMUPT
 70
     0
  9
$DIMDEC
 70
     3
  9
$DIMTDEC
 70
     3
  9
$DIMALTU
 70
     2
  9
$DIMALTTD
 70
     2
  9
$DIMTXSTY
  7
Standard
  9
$DIMAUNIT
 70
     0
  9
$DIMADEC
 70
     0
  9
$DIMALTRND
 40
0.0
  9
$DIMAZIN
 70
     0
  9
$DIMDSEP
 70
    46
  9
$DIMATFIT
 70
     3
  9
$DIMFRAC
 70
     0
  9
$DIMLDRBLK
  1

  9
$DIMLUNIT
 70
     2
  9
$DIMLWD
 70
    -2
  9
$DIMLWE
 70
    -2
  9
$DIMTMOVE
 70
     0
  9
$LUNITS
 70
     2
  9
$LUPREC
 70
     3
  9
$SKETCHINC
 40
0.1
  9
$FILLETRAD
 40
0.5
  9
$AUNITS
 70
     0
  9
$AUPREC
 70
     0
  9
$MENU
  1
.
  9
$ELEVATION
 40
0.0
  9
$PELEVATION
 40
0.0
  9
$THICKNESS
 40
0.0
  9
$LIMCHECK
 70
     0
  9
$CHAMFERA
 40
0.0
  9
$CHAMFERB
 40
0.0
  9
$CHAMFERC
 40
0.0
  9
$CHAMFERD
 40
0.0
  9
$SKPOLY
 70
     0
  9
$TDCREATE
 40
2458304.809150556
  9
$TDUCREATE
 40
2458304.975817222
  9
$TDUPDATE
 40
2458304.809178947
  9
$TDUUPDATE
 40
2458304.975845614
  9
$TDINDWG
 40
0.0000000116
  9
$TDUSRTIMER
 40
0.0000000116
  9
$USRTIMER
 70
     1
  9
$ANGBASE
 50
0.0
  9
$ANGDIR
 70
     0
  9
$PDMODE
 70
     0
  9
$PDSIZE
 40
-1.0
  9
$PLINEWID
 40
0.0
  9
$SPLFRAME
 70
     0
  9
$SPLINETYPE
 70
     6
  9
$SPLINESEGS
 70
     8
  9
$HANDSEED
  5
11B
  9
$SURFTAB1
 70
     6
  9
$SURFTAB2
 70
     6
  9
$SURFTYPE
 70
     6
  9
$SURFU
 70
     6
  9
$SURFV
 70
     6
  9
$UCSBASE
  2

  9
$UCSNAME
  2

  9
$UCSORG
 10
0.0
 20
0.0
 30
0.0
  9
$UCSXDIR
 10
1.0
 20
0.0
 30
0.0
  9
$UCSYDIR
 10
0.0
 20
1.0
 30
0.0
  9
$UCSORTHOREF
  2

  9
$UCSORTHOVIEW
 70
     0
  9
$UCSORGTOP
 10
0.0
 20
0.0
 30
0.0
  9
$UCSORGBOTTOM
 10
0.0
 20
0.0
 30
0.0
  9
$UCSORGLEFT
 10
0.0
 20
0.0
 30
0.0
  9
$UCSORGRIGHT
 10
0.0
 20
0.0
 30
0.0
  9
$UCSORGFRONT
 10
0.0
 20
0.0
 30
0.0
  9
$UCSORGBACK
 10
0.0
 20
0.0
 30
0.0
  9
$PUCSBASE
  2

  9
$PUCSNAME
  2

  9
$PUCSORG
 10
0.0
 20
0.0
 30
0.0
  9
$PUCSXDIR
 10
1.0
 20
0.0
 30
0.0
  9
$PUCSYDIR
 10
0.0
 20
1.0
 30
0.0
  9
$PUCSORTHOREF
  2

  9
$PUCSORTHOVIEW
 70
     0
  9
$PUCSORGTOP
 10
0.0
 20
0.0
 30
0.0
  9
$PUCSORGBOTTOM
 10
0.0
 20
0.0
 30
0.0
  9
$PUCSORGLEFT
 10
0.0
 20
0.0
 30
0.0
  9
$PUCSORGRIGHT
 10
0.0
 20
0.0
 30
0.0
  9
$PUCSORGFRONT
 10
0.0
 20
0.0
 30
0.0
  9
$PUCSORGBACK
 10
0.0
 20
0.0
 30
0.0
  9
$USERI1
 70
     0
  9
$USERI2
 70
     0
  9
$USERI3
 70
     0
  9
$USERI4
 70
     0
  9
$USERI5
 70
     0
  9
$USERR1
 40
0.0
  9
$USERR2
 40
0.0
  9
$USERR3
 40
0.0
  9
$USERR4
 40
0.0
  9
$USERR5
 40
0.0
  9
$WORLDVIEW
 70
     1
  9
$SHADEDGE
 70
     3
  9
$SHADEDIF
 70
    70
  9
$TILEMODE
 70
     1
  9
$MAXACTVP
 70
    64
  9
$PINSBASE
 10
0.0
 20
0.0
 30
0.0
  9
$PLIMCHECK
 70
     0
  9
$PEXTMIN
 10
1.0000000000E+20
 20
1.0000000000E+20
 30
1.0000000000E+20
  9
$PEXTMAX
 10
-1.0000000000E+20
 20
-1.0000000000E+20
 30
-1.0000000000E+20
  9
$PLIMMIN
 10
0.0
 20
0.0
  9
$PLIMMAX
 10
12.0
 20
9.0
  9
$UNITMODE
 70
     0
  9
$VISRETAIN
 70
     1
  9
$PLINEGEN
 70
     0
  9
$PSLTSCALE
 70
     1
  9
$TREEDEPTH
 70
  3020
  9
$CMLSTYLE
  2
Standard
  9
$CMLJUST
 70
     0
  9
$CMLSCALE
 40
1.0
  9
$PROXYGRAPHICS
 70
     1
  9
$MEASUREMENT
 70
     0
  9
$CELWEIGHT
370
    -1
  9
$ENDCAPS
280
     0
  9
$JOINSTYLE
280
     0
  9
$LWDISPLAY
290
     1
  9
$INSUNITS
 70
     1
  9
$HYPERLINKBASE
  1

  9
$STYLESHEET
  1

  9
$XEDIT
290
     1
  9
$CEPSNTYPE
380
     0
  9
$PSTYLEMODE
290
     1
  9
$FINGERPRINTGUID
  2
{F7EE3F25-E36A-4CB6-923D-1E34F96CD37A}
  9
$VERSIONGUID
  2
{FAEB1C32-E019-11D5-929B-00C0DF256EC4}
  9
$EXTNAMES
290
     1
  9
$PSVPSCALE
 40
0.0
  9
$OLESTARTUP
290
     0
  0
ENDSEC
  0
SECTION
  2
CLASSES
  0
CLASS
  1
ACDBDICTIONARYWDFLT
  2
AcDbDictionaryWithDefault
  3
ObjectDBX Classes
 90
        0
280
     0
281
     0
  0
CLASS
  1
VISUALSTYLE
  2
AcDbVisualStyle
  3
ObjectDBX Classes
 90
     4095
280
     0
281
     0
  0
CLASS
  1
MATERIAL
  2
AcDbMaterial
  3
ObjectDBX Classes
 90
     1153
280
     0
281
     0
  0
CLASS
  1
SCALE
  2
AcDbScale
  3
ObjectDBX Classes
 90
     1153
280
     0
281
     0
  0
CLASS
  1
TABLESTYLE
  2
AcDbTableStyle
  3
ObjectDBX Classes
 90
     4095
280
     0
281
     0
  0
CLASS
  1
MLEADERSTYLE
  2
AcDbMLeaderStyle
  3
ACDB_MLEADERSTYLE_CLASS
 90
     4095
280
     0
281
     0
  0
CLASS
  1
SUN
  2
AcDbSun
  3
SCENEOE
 90
     1153
280
     0
281
     0
  0
CLASS
  1
ACDBPLACEHOLDER
  2
AcDbPlaceHolder
  3
ObjectDBX Classes
 90
        0
280
     0
281
     0
  0
CLASS
  1
LAYOUT
  2
AcDbLayout
  3
ObjectDBX Classes
 90
        0
280
     0
281
     0
  0
ENDSEC
  0
SECTION
  2
TABLES
  0
TABLE
  2
VPORT
  5
8
330
0
100
AcDbSymbolTable
 70
     1
  0
VPORT
  5
29
330
8
100
AcDbSymbolTableRecord
100
AcDbViewportTableRecord
  2
*Active
 70
     0
 10
0.0
 20
0.0
 11
1.0
 21
1.0
 12
0.0
 22
0.0
 13
0.0
 23
0.0
 14
0.5
 24
0.5
 15
0.5
 25
0.5
 16
0.0
 26
0.0
 36
1.0
 17
0.0
 27
0.0
 37
0.0
 40
7.53015
 41
0.9644429394
 42
50.0
 43
0.0
 44
0.0
 50
0.0
 51
0.0
 71
     0
 72
   100
 73
     1
 74
     3
 75
     0
 76
     0
 77
     0
 78
     0
281
     0
 65
     1
110
0.0
120
0.0
130
0.0
111
1.0
121
0.0
131
0.0
112
0.0
122
1.0
132
0.0
 79
     0
146
0.0
  0
ENDTAB
  0
TABLE
  2
LTYPE
  5
5
330
0
100
AcDbSymbolTable
 70
     6
  0
LTYPE
  5
14
330
5
100
AcDbSymbolTableRecord
100
AcDbLinetypeTableRecord
  2
ByBlock
 70
     0
  3

 72
    65
 73
     0
 40
0.0
  0
LTYPE
  5
15
330
5
100
AcDbSymbolTableRecord
100
AcDbLinetypeTableRecord
  2
ByLayer
 70
     0
  3

 72
    65
 73
     0
 40
0.0
  0
LTYPE
  5
16
330
5
100
AcDbSymbolTableRecord
100
AcDbLinetypeTableRecord
  2
Continuous
 70
     0
  3
Solid line
 72
    65
 73
     0
 40
0.0
  0
LTYPE
  5
6E
330
5
100
AcDbSymbolTableRecord
100
AcDbLinetypeTableRecord
  2
HIDDEN
 70
     0
  3
Hidden __ __ __ __ __ __ __ __ __ __ __ __ __ __
 72
    65
 73
     2
 40
0.075
 49
0.05
 74
     0
 49
-0.025
 74
     0
  0
LTYPE
  5
6F
330
5
100
AcDbSymbolTableRecord
100
AcDbLinetypeTableRecord
  2
PHANTOM
 70
     0
  3
Phantom ______  __  __  ______  __  __  ______
 72
    65
 73
     6
 40
0.5
 49
0.25
 74
     0
 49
-0.05
 74
     0
 49
0.05
 74
     0
 49
-0.05
 74
     0
 49
0.05
 74
     0
 49
-0.05
 74
     0
  0
LTYPE
  5
70
330
5
100
AcDbSymbolTableRecord
100
AcDbLinetypeTableRecord
  2
CENTER
 70
     0
  3
Center ____ _ ____ _ ____ _ ____ _ ____ _ ____
 72
    65
 73
     4
 40
0.4
 49
0.25
 74
     0
 49
-0.05
 74
     0
 49
0.05
 74
     0
 49
-0.05
 74
     0
  0
LTYPE
  5
71
330
5
100
AcDbSymbolTableRecord
100
AcDbLinetypeTableRecord
  2
CENTERX2
 70
     0
  3
Center (2x) ________  __  ________  __  _____
 72
    65
 73
     4
 40
0.8
 49
0.5
 74
     0
 49
-0.1
 74
     0
 49
0.1
 74
     0
 49
-0.1
 74
     0
  0
LTYPE
  5
72
330
5
100
AcDbSymbolTableRecord
100
AcDbLinetypeTableRecord
  2
DOT2
 70
     0
  3
Dot (.5x) ........................................
 72
    65
 73
     2
 40
0.025
 49
0.0
 74
     0
 49
-0.025
 74
     0
  0
ENDTAB
  0
TABLE
  2
LAYER
  5
2
330
0
100
AcDbSymbolTable
 70
     1
  0
LAYER
  5
10
330
2
100
AcDbSymbolTableRecord
100
AcDbLayerTableRecord
  2
0
 70
     0
 62
     7
  6
Continuous
370
    -3
390
F
  0
ENDTAB
  0
TABLE
  2
STYLE
  5
3
330
0
100
AcDbSymbolTable
 70
     1
  0
STYLE
  5
11
330
3
100
AcDbSymbolTableRecord
100
AcDbTextStyleTableRecord
  2
Standard
 70
     0
 40
0.0
 41
1.0
 50
0.0
 71
     0
 42
0.125
  3
txt
  4

  0
ENDTAB
  0
TABLE
  2
VIEW
  5
6
330
0
100
AcDbSymbolTable
 70
     0
  0
ENDTAB
  0
TABLE
  2
UCS
  5
7
330
0
100
AcDbSymbolTable
 70
     0
  0
ENDTAB
  0
TABLE
  2
APPID
  5
9
330
0
100
AcDbSymbolTable
 70
     1
  0
APPID
  5
12
330
9
100
AcDbSymbolTableRecord
100
AcDbRegAppTableRecord
  2
ACAD
 70
     0
  0
ENDTAB
  0
TABLE
  2
DIMSTYLE
  5
A
330
0
100
AcDbSymbolTable
 70
     1
100
AcDbDimStyleTable
  0
DIMSTYLE
105
27
330
A
100
AcDbSymbolTableRecord
100
AcDbDimStyleTableRecord
  2
Standard
 70
     0
178
     0
340
11
  0
ENDTAB
  0
TABLE
  2
BLOCK_RECORD
  5
1
330
0
100
AcDbSymbolTable
 70
     1
  0
BLOCK_RECORD
  5
1F
330
1
100
AcDbSymbolTableRecord
100
AcDbBlockTableRecord
  2
*Model_Space
340
22
  0
BLOCK_RECORD
  5
1B
330
1
100
AcDbSymbolTableRecord
100
AcDbBlockTableRecord
  2
*Paper_Space
340
1E
  0
BLOCK_RECORD
  5
23
330
1
100
AcDbSymbolTableRecord
100
AcDbBlockTableRecord
  2
*Paper_Space0
340
26
  0
ENDTAB
  0
ENDSEC
  0
SECTION
  2
BLOCKS
  0
BLOCK
  5
20
330
1F
100
AcDbEntity
  8
0
100
AcDbBlockBegin
  2
*Model_Space
 70
     0
 10
0.0
 20
0.0
 30
0.0
  3
*Model_Space
  1

  0
ENDBLK
  5
21
330
1F
100
AcDbEntity
  8
0
100
AcDbBlockEnd
  0
BLOCK
  5
1C
330
1B
100
AcDbEntity
 67
     1
  8
0
100
AcDbBlockBegin
  2
*Paper_Space
 70
     0
 10
0.0
 20
0.0
 30
0.0
  3
*Paper_Space
  1

  0
ENDBLK
  5
1D
330
1B
100
AcDbEntity
 67
     1
  8
0
100
AcDbBlockEnd
  0
BLOCK
  5
24
330
23
100
AcDbEntity
  8
0
100
AcDbBlockBegin
  2
*Paper_Space0
 70
     0
 10
0.0
 20
0.0
 30
0.0
  3
*Paper_Space0
  1

  0
ENDBLK
  5
25
330
23
100
AcDbEntity
  8
0
100
AcDbBlockEnd
  0
ENDSEC
  0
SECTION
  2
ENTITIES
  0
SPLINE
  5
AF
330
1F
100
AcDbEntity
  8
0
  6
Continuous
 62
     7
370
    25
100
AcDbSpline
210
0.0
220
0.0
230
1.0
 70
     8
 71
     3
 72
    15
 73
    11
 74
     0
 42
0.000000001
 43
0.00000001
 40
0.0
 40
0.0
 40
0.0
 40
0.0
 40
0.1215533759830888
 40
0.2468730645557084
 40
0.3746714108345325
 40
0.5031073905946112
 40
0.6316150506110964
 40
0.7582927467139957
 40
0.8812578156137576
 40
1.0
 40
1.0
 40
1.0
 40
1.0
 10
-2.934637681159421
 20
-3.585390625
 30
0.0
 10
-2.935998911913271
 20
-3.585992516383298
 30
0.0
 10
-2.938763550945734
 20
-3.587214948661484
 30
0.0
 10
-2.943088947903532
 20
-3.588752850125109
 30
0.0
 10
-2.947571184387965
 20
-3.590071605096309
 30
0.0
 10
-2.952150641113891
 20
-3.591180661838243
 30
0.0
 10
-2.956772963234785
 20
-3.592025483474631
 30
0.0
 10
-2.961366711355873
 20
-3.592603759341963
 30
0.0
 10
-2.965861863329702
 20
-3.593000635450594
 30
0.0
 10
-2.968821279747444
 20
-3.593041512675091
 30
0.0
 10
-2.970275135869565
 20
-3.593061594202899
 30
0.0
  0
SPLINE
  5
B2
330
1F
100
AcDbEntity
  8
0
  6
Continuous
 62
     7
370
    25
100
AcDbSpline
210
0.0
220
0.0
230
1.0
 70
     8
 71
     3
 72
    13
 73
     9
 74
     0
 42
0.000000001
 43
0.00000001
 40
0.0
 40
0.0
 40
0.0
 40
0.0
 40
0.2432432115958461
 40
0.4850313067569319
 40
0.6072204693392869
 40
0.7333344144511468
 40
0.8647086109366635
 40
1.0
 40
1.0
 40
1.0
 40
1.0
 10
-2.934637681159421
 20
-3.486177536231885
 30
0.0
 10
-2.937042614956212
 20
-3.485107899047366
 30
0.0
 10
-2.941838095884407
 20
-3.482975023404263
 30
0.0
 10
-2.948139731778083
 20
-3.481060689342717
 30
0.0
 10
-2.953325248543669
 20
-3.479955101782477
 30
0.0
 10
-2.957391245818167
 20
-3.479369089782528
 30
0.0
 10
-2.961624947984133
 20
-3.478986403920086
 30
0.0
 10
-2.964509259358689
 20
-3.478949753711688
 30
0.0
 10
-2.965972599637682
 20
-3.47893115942029
 30
0.0
  0
SPLINE
  5
B3
330
1F
100
AcDbEntity
  8
0
  6
Continuous
 62
     7
370
    25
100
AcDbSpline
210
0.0
220
0.0
230
1.0
 70
     8
 71
     3
 72
    23
 73
    19
 74
     0
 42
0.000000001
 43
0.00000001
 40
0.0
 40
0.0
 40
0.0
 40
0.0
 40
0.0868773302242242
 40
0.1675014716055864
 40
0.2427475008353532
 40
0.3126603416393071
 40
0.3779946034993816
 40
0.4397338850260999
 40
0.4985052936180583
 40
0.554376039323627
 40
0.6088184466666452
 40
0.6619725906622702
 40
0.7152695750975365
 40
0.7692730547064782
 40
0.8244991354528857
 40
0.8807629267760522
 40
0.9393973148271874
 40
0.9999999999999999
 40
0.9999999999999999
 40
0.9999999999999999
 40
0.9999999999999999
 10
-2.769159873188407
 20
-3.46625
 30
0.0
 10
-2.767413217874499
 20
-3.466272629977397
 30
0.0
 10
-2.764045626643137
 20
-3.466316261089295
 30
0.0
 10
-2.759183145746029
 20
-3.466776208092637
 30
0.0
 10
-2.754700890379904
 20
-3.467518195865312
 30
0.0
 10
-2.750605771193382
 20
-3.468603739607009
 30
0.0
 10
-2.74687003639047
 20
-3.46993019402787
 30
0.0
 10
-2.743480883801726
 20
-3.471515333610995
 30
0.0
 10
-2.740437850886563
 20
-3.473349971043157
 30
0.0
 10
-2.737752563245937
 20
-3.475443307850798
 30
0.0
 10
-2.735378679604497
 20
-3.477727767484169
 30
0.0
 10
-2.733386536790194
 20
-3.480286643634248
 30
0.0
 10
-2.731697231844175
 20
-3.483042810660651
 30
0.0
 10
-2.73037145759359
 20
-3.486038293180478
 30
0.0
 10
-2.72936621316594
 20
-3.489213946274528
 30
0.0
 10
-2.72861585464265
 20
-3.492554715822093
 30
0.0
 10
-2.728196935159005
 20
-3.496064461000395
 30
0.0
 10
-2.728143235221567
 20
-3.498461347707333
 30
0.0
 10
-2.728115942028986
 20
-3.499679574275362
 30
0.0
  0
SPLINE
  5
B4
330
1F
100
AcDbEntity
  8
0
  6
Continuous
 62
     7
370
    25
100
AcDbSpline
210
0.0
220
0.0
230
1.0
 70
     8
 71
     3
 72
    23
 73
    19
 74
     0
 42
0.000000001
 43
0.00000001
 40
0.0
 40
0.0
 40
0.0
 40
0.0
 40
0.0868773302242242
 40
0.1675014716055864
 40
0.2427475008353532
 40
0.3126603416393071
 40
0.3779946034993816
 40
0.4397338850260999
 40
0.4985052936180583
 40
0.554376039323627
 40
0.6088184466666452
 40
0.6619725906622702
 40
0.7152695750975365
 40
0.7692730547064782
 40
0.8244991354528857
 40
0.8807629267760522
 40
0.9393973148271874
 40
0.9999999999999999
 40
0.9999999999999999
 40
0.9999999999999999
 40
0.9999999999999999
 10
-3.303580163043479
 20
-3.466250000000002
 30
0.0
 10
-3.301833507729572
 20
-3.466272629977399
 30
0.0
 10
-3.29846591649821
 20
-3.466316261089297
 30
0.0
 10
-3.293603435601102
 20
-3.466776208092639
 30
0.0
 10
-3.289121180234977
 20
-3.467518195865314
 30
0.0
 10
-3.285026061048455
 20
-3.468603739607011
 30
0.0
 10
-3.281290326245543
 20
-3.469930194027873
 30
0.0
 10
-3.277901173656798
 20
-3.471515333610998
 30
0.0
 10
-3.274858140741636
 20
-3.473349971043159
 30
0.0
 10
-3.27217285310101
 20
-3.475443307850799
 30
0.0
 10
-3.26979896945957
 20
-3.477727767484172
 30
0.0
 10
-3.267806826645266
 20
-3.480286643634249
 30
0.0
 10
-3.266117521699248
 20
-3.483042810660653
 30
0.0
 10
-3.264791747448663
 20
-3.486038293180481
 30
0.0
 10
-3.263786503021012
 20
-3.48921394627453
 30
0.0
 10
-3.263036144497724
 20
-3.492554715822095
 30
0.0
 10
-3.262617225014078
 20
-3.496064461000397
 30
0.0
 10
-3.26256352507664
 20
-3.498461347707335
 30
0.0
 10
-3.262536231884059
 20
-3.499679574275364
 30
0.0
  0
SPLINE
  5
B5
330
1F
100
AcDbEntity
  8
0
  6
Continuous
 62
     7
370
    25
100
AcDbSpline
210
0.0
220
0.0
230
1.0
 70
     8
 71
     3
 72
    23
 73
    19
 74
     0
 42
0.000000001
 43
0.00000001
 40
0.0
 40
0.0
 40
0.0
 40
0.0
 40
0.067098124272256
 40
0.1309759062433298
 40
0.1922163869542906
 40
0.2517698083190292
 40
0.3096847194213507
 40
0.366512523313525
 40
0.4235187108853617
 40
0.4803720324276345
 40
0.5380321837013028
 40
0.5972742619707986
 40
0.6584306056386213
 40
0.7220421674016086
 40
0.7879120315897731
 40
0.8559727583910824
 40
0.9264611901366911
 40
1.0
 40
1.0
 40
1.0
 40
1.0
 10
-2.965972599637682
 20
-3.478931159420291
 30
0.0
 10
-2.967635930051794
 20
-3.478971316831995
 30
0.0
 10
-2.970882760134354
 20
-3.479049704319685
 30
0.0
 10
-2.975602377710106
 20
-3.479757358775523
 30
0.0
 10
-2.980058447540292
 20
-3.480832991990001
 30
0.0
 10
-2.984197447254767
 20
-3.482438423964184
 30
0.0
 10
-2.98804010486554
 20
-3.484425049317238
 30
0.0
 10
-2.991585864129682
 20
-3.486794112118133
 30
0.0
 10
-2.994814172444353
 20
-3.489541009885774
 30
0.0
 10
-2.997715080761905
 20
-3.492656534264217
 30
0.0
 10
-3.000319897283554
 20
-3.496096294147645
 30
0.0
 10
-3.002531366923457
 20
-3.499921890186306
 30
0.0
 10
-3.004511525227264
 20
-3.504034815441845
 30
0.0
 10
-3.006100408989491
 20
-3.508489718818911
 30
0.0
 10
-3.007394296719091
 20
-3.513216825760385
 30
0.0
 10
-3.008226193788952
 20
-3.518217107418341
 30
0.0
 10
-3.008840441169075
 20
-3.523441598948614
 30
0.0
 10
-3.008888503402387
 20
-3.527011939678312
 30
0.0
 10
-3.008913043478261
 20
-3.528834918478261
 30
0.0
  0
SPLINE
  5
B6
330
1F
100
AcDbEntity
  8
0
  6
Continuous
 62
     7
370
    25
100
AcDbSpline
210
0.0
220
0.0
230
1.0
 70
     8
 71
     3
 72
    23
 73
    19
 74
     0
 42
0.000000001
 43
0.00000001
 40
0.0
 40
0.0
 40
0.0
 40
0.0
 40
0.0776967714839982
 40
0.1509619938714827
 40
0.221241561152994
 40
0.2875559640017754
 40
0.3508859543665351
 40
0.4108762646889392
 40
0.4684338152580947
 40
0.5243810448878428
 40
0.578873375749639
 40
0.6330758261547926
 40
0.6878469618937076
 40
0.7440192785930966
 40
0.8024561126406582
 40
0.8641267637851909
 40
0.929601545013653
 40
1.0
 40
1.0
 40
1.0
 40
1.0
 10
-3.008913043478261
 20
-3.528834918478261
 30
0.0
 10
-3.008886809462145
 20
-3.530732150181336
 30
0.0
 10
-3.008835837725422
 20
-3.534418402200074
 30
0.0
 10
-3.008413530732782
 20
-3.539808835423119
 30
0.0
 10
-3.007671114038209
 20
-3.544881207411823
 30
0.0
 10
-3.006708817316791
 20
-3.54967132487002
 30
0.0
 10
-3.005381182149371
 20
-3.554114472732631
 30
0.0
 10
-3.003736964542581
 20
-3.558220134152251
 30
0.0
 10
-3.001781583581885
 20
-3.561986308377501
 30
0.0
 10
-2.99949411137594
 20
-3.565403857431791
 30
0.0
 10
-2.996833328321293
 20
-3.568432004191512
 30
0.0
 10
-2.99383886188204
 20
-3.571087205219688
 30
0.0
 10
-2.990496771601229
 20
-3.57336006116988
 30
0.0
 10
-2.986822220704206
 20
-3.575282845181038
 30
0.0
 10
-2.982760390682142
 20
-3.576739466299758
 30
0.0
 10
-2.97835275643528
 20
-3.577824378624733
 30
0.0
 10
-2.973556714085289
 20
-3.578434494416783
 30
0.0
 10
-2.970239081325492
 20
-3.578522989584606
 30
0.0
 10
-2.968520153985508
 20
-3.57856884057971
 30
0.0
  0
SPLINE
  5
B7
330
1F
100
AcDbEntity
  8
0
  6
Continuous
 62
     7
370
    25
100
AcDbSpline
210
0.0
220
0.0
230
1.0
 70
     8
 71
     3
 72
    15
 73
    11
 74
     0
 42
0.000000001
 43
0.00000001
 40
0.0
 40
0.0
 40
0.0
 40
0.0
 40
0.1673918545870113
 40
0.3105326767827695
 40
0.4353739153206167
 40
0.548983950933741
 40
0.6555634230881769
 40
0.7631611935822884
 40
0.8757123458119968
 40
1.0
 40
1.0
 40
1.0
 40
1.0
 10
-2.756223958333334
 20
-3.55221580615942
 30
0.0
 10
-2.756873449296821
 20
-3.550831900952634
 30
0.0
 10
-2.758078335687116
 20
-3.548264584942324
 30
0.0
 10
-2.760199795784773
 20
-3.544893482233213
 30
0.0
 10
-2.762397039261742
 20
-3.542177396698932
 30
0.0
 10
-2.764777152812115
 20
-3.540089294047512
 30
0.0
 10
-2.767373780305368
 20
-3.538565927478633
 30
0.0
 10
-2.770203371887796
 20
-3.537580336153242
 30
0.0
 10
-2.773306975777969
 20
-3.537007414479596
 30
0.0
 10
-2.775469532310871
 20
-3.536938394197539
 30
0.0
 10
-2.776604393115943
 20
-3.536902173913043
 30
0.0
  0
SPLINE
  5
B8
330
1F
100
AcDbEntity
  8
0
  6
Continuous
 62
     7
370
    25
100
AcDbSpline
210
0.0
220
0.0
230
1.0
 70
     8
 71
     3
 72
    23
 73
    19
 74
     0
 42
0.000000001
 43
0.00000001
 40
0.0
 40
0.0
 40
0.0
 40
0.0
 40
0.0742252771806069
 40
0.1452246251349307
 40
0.2126888929148209
 40
0.2779431301589927
 40
0.3406829667072219
 40
0.4014210807773949
 40
0.4601092411464411
 40
0.5180957302352608
 40
0.575513344541249
 40
0.6326683894261499
 40
0.6904145715872745
 40
0.7491594371175391
 40
0.8094359727667875
 40
0.8709469375778469
 40
0.9344445163449538
 40
1.0
 40
1.0
 40
1.0
 40
1.0
 10
-3.027028985507247
 20
-3.530137001811594
 30
0.0
 10
-3.026973926066469
 20
-3.527634490645561
 30
0.0
 10
-3.02686620014141
 20
-3.522738230775776
 30
0.0
 10
-3.026047533287895
 20
-3.515603295471224
 30
0.0
 10
-3.0246541293255
 20
-3.508870089998778
 30
0.0
 10
-3.022741741833412
 20
-3.502554750023341
 30
0.0
 10
-3.02030564071591
 20
-3.496664831826381
 30
0.0
 10
-3.017377663776082
 20
-3.491256704730612
 30
0.0
 10
-3.014058846099772
 20
-3.486268203780231
 30
0.0
 10
-3.01024673276822
 20
-3.481789377871219
 30
0.0
 10
-3.006019491709835
 20
-3.47777612589827
 30
0.0
 10
-3.001365985712203
 20
-3.474280522518975
 30
0.0
 10
-2.996340975521882
 20
-3.471254881705489
 30
0.0
 10
-2.9908978996512
 20
-3.468799357789866
 30
0.0
 10
-2.985122608407112
 20
-3.466852815480341
 30
0.0
 10
-2.979032375739461
 20
-3.465423492894396
 30
0.0
 10
-2.972646963720873
 20
-3.464605276209618
 30
0.0
 10
-2.968295997869219
 20
-3.46449461746314
 30
0.0
 10
-2.966085824275363
 20
-3.464438405797102
 30
0.0
  0
SPLINE
  5
B9
330
1F
100
AcDbEntity
  8
0
  6
Continuous
 62
     7
370
    25
100
AcDbSpline
210
0.0
220
0.0
230
1.0
 70
     8
 71
     3
 72
    15
 73
    11
 74
     0
 42
0.000000001
 43
0.00000001
 40
0.0
 40
0.0
 40
0.0
 40
0.0
 40
0.1113525621013444
 40
0.2209309255260217
 40
0.3311251909260219
 40
0.4436491882741611
 40
0.5643761418057314
 40
0.696479749737423
 40
0.8421079019728958
 40
1.0
 40
1.0
 40
1.0
 40
1.0
 10
-3.288577898550726
 20
-3.532741168478263
 30
0.0
 10
-3.287745463250939
 20
-3.533046487335463
 30
0.0
 10
-3.286093855979837
 20
-3.533652260354325
 30
0.0
 10
-3.283823023886029
 20
-3.535001250667163
 30
0.0
 10
-3.281687221539171
 20
-3.536569258907092
 30
0.0
 10
-3.279819413816067
 20
-3.53857316840798
 30
0.0
 10
-3.277993194442992
 20
-3.540830267085727
 30
0.0
 10
-3.27618296493415
 20
-3.543431042090396
 30
0.0
 10
-3.274344704395486
 20
-3.546365993640546
 30
0.0
 10
-3.273187104985795
 20
-3.548482382056145
 30
0.0
 10
-3.272584918478262
 20
-3.549583333333335
 30
0.0
  0
SPLINE
  5
BA
330
1F
100
AcDbEntity
  8
0
  6
Continuous
 62
     7
370
    25
100
AcDbSpline
210
0.0
220
0.0
230
1.0
 70
     8
 71
     3
 72
    15
 73
    11
 74
     0
 42
0.000000001
 43
0.00000001
 40
0.0
 40
0.0
 40
0.0
 40
0.0
 40
0.1113525621013444
 40
0.2209309255260217
 40
0.3311251909260219
 40
0.4436491882741611
 40
0.5643761418057314
 40
0.696479749737423
 40
0.8421079019728958
 40
1.0
 40
1.0
 40
1.0
 40
1.0
 10
-2.754157608695653
 20
-3.53274116847826
 30
0.0
 10
-2.753325173395866
 20
-3.533046487335461
 30
0.0
 10
-2.751673566124764
 20
-3.533652260354323
 30
0.0
 10
-2.749402734030956
 20
-3.535001250667161
 30
0.0
 10
-2.747266931684098
 20
-3.53656925890709
 30
0.0
 10
-2.745399123960994
 20
-3.538573168407979
 30
0.0
 10
-2.743572904587918
 20
-3.540830267085725
 30
0.0
 10
-2.741762675079077
 20
-3.543431042090394
 30
0.0
 10
-2.739924414540413
 20
-3.546365993640544
 30
0.0
 10
-2.738766815130722
 20
-3.548482382056143
 30
0.0
 10
-2.738164628623189
 20
-3.549583333333333
 30
0.0
  0
SPLINE
  5
BB
330
1F
100
AcDbEntity
  8
0
  6
Continuous
 62
     7
370
    25
100
AcDbSpline
210
0.0
220
0.0
230
1.0
 70
     8
 71
     3
 72
    23
 73
    19
 74
     0
 42
0.000000001
 43
0.00000001
 40
0.0
 40
0.0
 40
0.0
 40
0.0
 40
0.0664750066251924
 40
0.1298691366212038
 40
0.1909170876040557
 40
0.2499362502088463
 40
0.3075602225872365
 40
0.363411309081436
 40
0.4192531151601867
 40
0.4749632826029112
 40
0.5313346986072326
 40
0.5892934796499263
 40
0.6494922147887083
 40
0.7123114536155499
 40
0.7785606252979976
 40
0.8481967065368393
 40
0.9217767357109449
 40
1.0
 40
1.0
 40
1.0
 40
1.0
 10
-2.970275135869565
 20
-3.593061594202899
 30
0.0
 10
-2.972410111389792
 20
-3.593016090978634
 30
0.0
 10
-2.976581114020637
 20
-3.592927193440315
 30
0.0
 10
-2.982669393782316
 20
-3.59213304022939
 30
0.0
 10
-2.988438294708046
 20
-3.590911408284194
 30
0.0
 10
-2.993876380479208
 20
-3.589151169929216
 30
0.0
 10
-2.998943972801986
 20
-3.586892341842737
 30
0.0
 10
-3.003647529946246
 20
-3.584145689484842
 30
0.0
 10
-3.007960439722572
 20
-3.58091876351393
 30
0.0
 10
-3.011867398079386
 20
-3.577183857590696
 30
0.0
 10
-3.015332062427302
 20
-3.572951517611906
 30
0.0
 10
-3.018420992223691
 20
-3.568261388275257
 30
0.0
 10
-3.020994054222463
 20
-3.563040334869283
 30
0.0
 10
-3.023233647224015
 20
-3.557383742742219
 30
0.0
 10
-3.024943911732203
 20
-3.551225389769985
 30
0.0
 10
-3.026139421848762
 20
-3.54460156169303
 30
0.0
 10
-3.026888953749039
 20
-3.537523182127863
 30
0.0
 10
-3.02698136604392
 20
-3.532648760195548
 30
0.0
 10
-3.027028985507247
 20
-3.530137001811594
 30
0.0
  0
SPLINE
  5
BC
330
1F
100
AcDbEntity
  8
0
  6
Continuous
 62
     7
370
    25
100
AcDbSpline
210
0.0
220
0.0
230
1.0
 70
     8
 71
     3
 72
    13
 73
     9
 74
     0
 42
0.000000001
 43
0.00000001
 40
0.0
 40
0.0
 40
0.0
 40
0.0
 40
0.2629342745513363
 40
0.5143647563736853
 40
0.6373177871926468
 40
0.7589996230405952
 40
0.8797707883104295
 40
1.0
 40
1.0
 40
1.0
 40
1.0
 10
-2.966085824275363
 20
-3.464438405797102
 30
0.0
 10
-2.963270771428608
 20
-3.464489136512646
 30
0.0
 10
-2.957763828774704
 20
-3.464588378394237
 30
0.0
 10
-2.950987566175159
 20
-3.465466103747501
 30
0.0
 10
-2.945767256993998
 20
-3.46643556297258
 30
0.0
 10
-2.941969959162285
 20
-3.467376750149235
 30
0.0
 10
-2.93825133445949
 20
-3.468497738380251
 30
0.0
 10
-2.935840425068666
 20
-3.469415392927557
 30
0.0
 10
-2.934637681159421
 20
-3.469873188405797
 30
0.0
  0
SPLINE
  5
BD
330
1F
100
AcDbEntity
  8
0
  6
Continuous
 62
     7
370
    25
100
AcDbSpline
210
0.0
220
0.0
230
1.0
 70
     8
 71
     3
 72
    15
 73
    11
 74
     0
 42
0.000000001
 43
0.00000001
 40
0.0
 40
0.0
 40
0.0
 40
0.0
 40
0.1673918545870109
 40
0.3105326767827581
 40
0.4353739153206178
 40
0.548983950933742
 40
0.6555634230881776
 40
0.7631611935822888
 40
0.875712345811997
 40
0.9999999999999999
 40
0.9999999999999999
 40
0.9999999999999999
 40
0.9999999999999999
 10
-3.290644248188407
 20
-3.552215806159422
 30
0.0
 10
-3.291293739151895
 20
-3.550831900952637
 30
0.0
 10
-3.29249862554219
 20
-3.548264584942328
 30
0.0
 10
-3.294620085639846
 20
-3.544893482233215
 30
0.0
 10
-3.296817329116815
 20
-3.542177396698935
 30
0.0
 10
-3.299197442667187
 20
-3.540089294047513
 30
0.0
 10
-3.301794070160442
 20
-3.538565927478638
 30
0.0
 10
-3.304623661742869
 20
-3.537580336153243
 30
0.0
 10
-3.307727265633043
 20
-3.5370074144796
 30
0.0
 10
-3.309889822165945
 20
-3.536938394197543
 30
0.0
 10
-3.311024682971016
 20
-3.536902173913046
 30
0.0
  0
SPLINE
  5
BE
330
1F
100
AcDbEntity
  8
0
  6
Continuous
 62
     7
370
    25
100
AcDbSpline
210
0.0
220
0.0
230
1.0
 70
     8
 71
     3
 72
    23
 73
    19
 74
     0
 42
0.000000001
 43
0.00000001
 40
0.0
 40
0.0
 40
0.0
 40
0.0
 40
0.0645442690844721
 40
0.1269342817600583
 40
0.1887265654101734
 40
0.2498083354624796
 40
0.3098390008115393
 40
0.3692223034933703
 40
0.428683273743242
 40
0.4883798617341064
 40
0.5482501456441825
 40
0.6087657604725554
 40
0.6699858955025224
 40
0.7331387142663585
 40
0.7970632865401301
 40
0.8628148123436772
 40
0.93031824907828
 40
1.0
 40
1.0
 40
1.0
 40
1.0
 10
-2.728115942028986
 20
-3.499679574275362
 30
0.0
 10
-2.72813856321669
 20
-3.500661779736804
 30
0.0
 10
-2.728183050577913
 20
-3.502593408161098
 30
0.0
 10
-2.728510038067575
 20
-3.505449401645515
 30
0.0
 10
-2.729005152666963
 20
-3.508226895117247
 30
0.0
 10
-2.729747021271658
 20
-3.510913025358451
 30
0.0
 10
-2.730682552567584
 20
-3.513497321695236
 30
0.0
 10
-2.731812401934357
 20
-3.515977738537948
 30
0.0
 10
-2.733183495006817
 20
-3.518326889353059
 30
0.0
 10
-2.734735505946449
 20
-3.520569244544465
 30
0.0
 10
-2.736501420295993
 20
-3.522668591261725
 30
0.0
 10
-2.738451710242289
 20
-3.524632003894974
 30
0.0
 10
-2.740633014867786
 20
-3.526413382653697
 30
0.0
 10
-2.742961084848718
 20
-3.528087145047398
 30
0.0
 10
-2.745499596429359
 20
-3.529568087548056
 30
0.0
 10
-2.748222896564714
 20
-3.530833465163123
 30
0.0
 10
-2.751117127107564
 20
-3.531921996755187
 30
0.0
 10
-2.7531334427165
 20
-3.532465235937462
 30
0.0
 10
-2.754157608695653
 20
-3.53274116847826
 30
0.0
  0
SPLINE
  5
BF
330
1F
100
AcDbEntity
  8
0
  6
Continuous
 62
     7
370
    25
100
AcDbSpline
210
0.0
220
0.0
230
1.0
 70
     8
 71
     3
 72
    23
 73
    19
 74
     0
 42
0.000000001
 43
0.00000001
 40
0.0
 40
0.0
 40
0.0
 40
0.0
 40
0.0645442690844721
 40
0.1269342817600583
 40
0.1887265654101734
 40
0.2498083354624796
 40
0.3098390008115393
 40
0.3692223034933703
 40
0.428683273743242
 40
0.4883798617341064
 40
0.5482501456441825
 40
0.6087657604725554
 40
0.6699858955025224
 40
0.7331387142663585
 40
0.7970632865401301
 40
0.8628148123436772
 40
0.93031824907828
 40
1.0
 40
1.0
 40
1.0
 40
1.0
 10
-3.262536231884059
 20
-3.499679574275364
 30
0.0
 10
-3.262558853071762
 20
-3.500661779736805
 30
0.0
 10
-3.262603340432985
 20
-3.5025934081611
 30
0.0
 10
-3.262930327922648
 20
-3.505449401645516
 30
0.0
 10
-3.263425442522037
 20
-3.508226895117249
 30
0.0
 10
-3.264167311126731
 20
-3.510913025358453
 30
0.0
 10
-3.265102842422658
 20
-3.513497321695239
 30
0.0
 10
-3.26623269178943
 20
-3.51597773853795
 30
0.0
 10
-3.267603784861889
 20
-3.518326889353061
 30
0.0
 10
-3.269155795801522
 20
-3.520569244544467
 30
0.0
 10
-3.270921710151065
 20
-3.522668591261727
 30
0.0
 10
-3.272872000097362
 20
-3.524632003894976
 30
0.0
 10
-3.27505330472286
 20
-3.5264133826537
 30
0.0
 10
-3.277381374703791
 20
-3.5280871450474
 30
0.0
 10
-3.279919886284432
 20
-3.529568087548057
 30
0.0
 10
-3.282643186419787
 20
-3.530833465163127
 30
0.0
 10
-3.285537416962637
 20
-3.531921996755189
 30
0.0
 10
-3.287553732571573
 20
-3.532465235937464
 30
0.0
 10
-3.288577898550726
 20
-3.532741168478263
 30
0.0
  0
SPLINE
  5
C0
330
1F
100
AcDbEntity
  8
0
  6
Continuous
 62
     7
370
    25
100
AcDbSpline
210
0.0
220
0.0
230
1.0
 70
     8
 71
     3
 72
    15
 73
    11
 74
     0
 42
0.000000001
 43
0.00000001
 40
0.0
 40
0.0
 40
0.0
 40
0.0
 40
0.1181377071626356
 40
0.2453407520265843
 40
0.3782754322888266
 40
0.5101308509081811
 40
0.6425504600250345
 40
0.7708234786150301
 40
0.8918702657019276
 40
1.0
 40
1.0
 40
1.0
 40
1.0
 10
-2.968520153985508
 20
-3.57856884057971
 30
0.0
 10
-2.967887749414838
 20
-3.578555257569211
 30
0.0
 10
-2.966574412490669
 20
-3.578527049251219
 30
0.0
 10
-2.964554122748324
 20
-3.578378070838597
 30
0.0
 10
-2.962466012195057
 20
-3.578162996067044
 30
0.0
 10
-2.960364235816087
 20
-3.577837000734611
 30
0.0
 10
-2.958291654408677
 20
-3.577487482701716
 30
0.0
 10
-2.956296362362108
 20
-3.57704037987148
 30
0.0
 10
-2.95445508384077
 20
-3.576513863417737
 30
0.0
 10
-2.953299057745752
 20
-3.576102262529147
 30
0.0
 10
-2.952753623188407
 20
-3.575908061594203
 30
0.0
  0
SPLINE
  5
C7
330
1F
100
AcDbEntity
  8
0
  6
Continuous
 62
     7
370
    25
100
AcDbSpline
210
0.0
220
0.0
230
1.0
 70
     8
 71
     3
 72
    23
 73
    19
 74
     0
 42
0.000000001
 43
0.00000001
 40
0.0
 40
0.0
 40
0.0
 40
0.0
 40
0.0710054063752064
 40
0.1375762152107313
 40
0.200303252704658
 40
0.2604031925983404
 40
0.3177152079427074
 40
0.3738306474914093
 40
0.429499703754267
 40
0.4848811865589636
 40
0.5408363383570451
 40
0.5986108345938608
 40
0.6580876144125944
 40
0.7194853567469219
 40
0.7841756976171761
 40
0.8520284023422264
 40
0.9241032974735243
 40
0.9999999999999999
 40
0.9999999999999999
 40
0.9999999999999999
 40
0.9999999999999999
 10
-3.280652173913045
 20
-3.500896739130436
 30
0.0
 10
-3.280665426886788
 20
-3.500075043870291
 30
0.0
 10
-3.28069110512822
 20
-3.498482971805383
 30
0.0
 10
-3.280975321352329
 20
-3.496178394740266
 30
0.0
 10
-3.281461663394239
 20
-3.494038710610809
 30
0.0
 10
-3.282109514773579
 20
-3.492055983926738
 30
0.0
 10
-3.282918936267836
 20
-3.490211534193188
 30
0.0
 10
-3.283992421959993
 20
-3.488568931036543
 30
0.0
 10
-3.285204091445254
 20
-3.487057623312794
 30
0.0
 10
-3.286603683040031
 20
-3.485717183907178
 30
0.0
 10
-3.28817990194858
 20
-3.484551101860753
 30
0.0
 10
-3.289911740704877
 20
-3.483537628113997
 30
0.0
 10
-3.291783143518722
 20
-3.482654095970342
 30
0.0
 10
-3.293812424370722
 20
-3.481941052121941
 30
0.0
 10
-3.295996966789927
 20
-3.481419755022756
 30
0.0
 10
-3.298330681036584
 20
-3.481013321670466
 30
0.0
 10
-3.300820971279576
 20
-3.480797242514575
 30
0.0
 10
-3.302532472941203
 20
-3.480761226659243
 30
0.0
 10
-3.303410326086958
 20
-3.48074275362319
 30
0.0
  0
SPLINE
  5
C8
330
1F
100
AcDbEntity
  8
0
  6
Continuous
 62
     7
370
    25
100
AcDbSpline
210
0.0
220
0.0
230
1.0
 70
     8
 71
     3
 72
    23
 73
    19
 74
     0
 42
0.000000001
 43
0.00000001
 40
0.0
 40
0.0
 40
0.0
 40
0.0
 40
0.0751634739249831
 40
0.1468242857502597
 40
0.2147004565817484
 40
0.2804081309117752
 40
0.3432989837089113
 40
0.403724026895872
 40
0.4619008746627881
 40
0.5192753134656174
 40
0.5756421721734637
 40
0.6321926367705204
 40
0.6886003484344195
 40
0.7462950936411857
 40
0.8063376960038262
 40
0.8679986302426593
 40
0.9323916198461115
 40
0.9999999999999999
 40
0.9999999999999999
 40
0.9999999999999999
 40
0.9999999999999999
 10
-3.30558990036232
 20
-3.522409420289857
 30
0.0
 10
-3.304655410618529
 20
-3.522392718955297
 30
0.0
 10
-3.302829978902719
 20
-3.522360094578196
 30
0.0
 10
-3.300167128234277
 20
-3.522118130952364
 30
0.0
 10
-3.297658489852177
 20
-3.521640771865587
 30
0.0
 10
-3.295279172987321
 20
-3.521076252595643
 30
0.0
 10
-3.293063793930091
 20
-3.520275615283798
 30
0.0
 10
-3.291023690469167
 20
-3.519306988633375
 30
0.0
 10
-3.28912453145305
 20
-3.518210300574171
 30
0.0
 10
-3.287434393331892
 20
-3.516893539969695
 30
0.0
 10
-3.285884776411297
 20
-3.51544560914953
 30
0.0
 10
-3.284528535189988
 20
-3.513829148515338
 30
0.0
 10
-3.283348713571738
 20
-3.512058732182544
 30
0.0
 10
-3.282396169388698
 20
-3.510110211772972
 30
0.0
 10
-3.281582728347552
 20
-3.508027180201685
 30
0.0
 10
-3.281070769607069
 20
-3.505765355559258
 30
0.0
 10
-3.280709987112533
 20
-3.503380395002367
 30
0.0
 10
-3.280671755405285
 20
-3.501737960315452
 30
0.0
 10
-3.280652173913045
 20
-3.500896739130437
 30
0.0
  0
SPLINE
  5
CC
330
1F
100
AcDbEntity
  8
0
  6
Continuous
 62
     7
370
    25
100
AcDbSpline
210
0.0
220
0.0
230
1.0
 70
     8
 71
     3
 72
    23
 73
    19
 74
     0
 42
0.000000001
 43
0.00000001
 40
0.0
 40
0.0
 40
0.0
 40
0.0
 40
0.0710054063752064
 40
0.1375762152107313
 40
0.200303252704658
 40
0.2604031925983404
 40
0.3177152079427074
 40
0.3738306474914093
 40
0.429499703754267
 40
0.4848811865589636
 40
0.5408363383570451
 40
0.5986108345938608
 40
0.6580876144125944
 40
0.7194853567469219
 40
0.7841756976171761
 40
0.8520284023422264
 40
0.9241032974735243
 40
0.9999999999999999
 40
0.9999999999999999
 40
0.9999999999999999
 40
0.9999999999999999
 10
-2.746231884057972
 20
-3.500896739130434
 30
0.0
 10
-2.746245137031715
 20
-3.500075043870289
 30
0.0
 10
-2.746270815273148
 20
-3.498482971805381
 30
0.0
 10
-2.746555031497256
 20
-3.496178394740264
 30
0.0
 10
-2.747041373539167
 20
-3.494038710610806
 30
0.0
 10
-2.747689224918506
 20
-3.492055983926736
 30
0.0
 10
-2.748498646412762
 20
-3.490211534193187
 30
0.0
 10
-2.749572132104919
 20
-3.488568931036541
 30
0.0
 10
-2.750783801590182
 20
-3.487057623312792
 30
0.0
 10
-2.752183393184958
 20
-3.485717183907175
 30
0.0
 10
-2.753759612093507
 20
-3.484551101860751
 30
0.0
 10
-2.755491450849804
 20
-3.483537628113994
 30
0.0
 10
-2.757362853663649
 20
-3.482654095970341
 30
0.0
 10
-2.759392134515648
 20
-3.481941052121938
 30
0.0
 10
-2.761576676934855
 20
-3.481419755022754
 30
0.0
 10
-2.763910391181511
 20
-3.481013321670464
 30
0.0
 10
-2.766400681424502
 20
-3.480797242514574
 30
0.0
 10
-2.76811218308613
 20
-3.480761226659241
 30
0.0
 10
-2.768990036231885
 20
-3.480742753623188
 30
0.0
  0
SPLINE
  5
CD
330
1F
100
AcDbEntity
  8
0
  6
Continuous
 62
     7
370
    25
100
AcDbSpline
210
0.0
220
0.0
230
1.0
 70
     8
 71
     3
 72
    23
 73
    19
 74
     0
 42
0.000000001
 43
0.00000001
 40
0.0
 40
0.0
 40
0.0
 40
0.0
 40
0.0751634739249831
 40
0.1468242857502597
 40
0.2147004565817484
 40
0.2804081309117752
 40
0.3432989837089113
 40
0.403724026895872
 40
0.4619008746627881
 40
0.5192753134656174
 40
0.5756421721734637
 40
0.6321926367705204
 40
0.6886003484344195
 40
0.7462950936411857
 40
0.8063376960038262
 40
0.8679986302426593
 40
0.9323916198461115
 40
0.9999999999999999
 40
0.9999999999999999
 40
0.9999999999999999
 40
0.9999999999999999
 10
-2.771169610507247
 20
-3.522409420289855
 30
0.0
 10
-2.770235120763456
 20
-3.522392718955295
 30
0.0
 10
-2.768409689047646
 20
-3.522360094578193
 30
0.0
 10
-2.765746838379204
 20
-3.522118130952362
 30
0.0
 10
-2.763238199997104
 20
-3.521640771865585
 30
0.0
 10
-2.760858883132249
 20
-3.521076252595641
 30
0.0
 10
-2.758643504075017
 20
-3.520275615283795
 30
0.0
 10
-2.756603400614094
 20
-3.519306988633374
 30
0.0
 10
-2.754704241597977
 20
-3.518210300574168
 30
0.0
 10
-2.753014103476819
 20
-3.516893539969694
 30
0.0
 10
-2.751464486556225
 20
-3.515445609149527
 30
0.0
 10
-2.750108245334915
 20
-3.513829148515336
 30
0.0
 10
-2.748928423716665
 20
-3.512058732182541
 30
0.0
 10
-2.747975879533625
 20
-3.51011021177297
 30
0.0
 10
-2.747162438492479
 20
-3.508027180201682
 30
0.0
 10
-2.746650479751996
 20
-3.505765355559257
 30
0.0
 10
-2.746289697257461
 20
-3.503380395002364
 30
0.0
 10
-2.746251465550213
 20
-3.50173796031545
 30
0.0
 10
-2.746231884057972
 20
-3.500896739130435
 30
0.0
  0
LINE
  5
D1
330
1F
100
AcDbEntity
  8
0
  6
Continuous
 62
     7
370
    25
100
AcDbLine
 10
-3.450942029
 20
-3.46625
 30
0.0
 11
-3.3603623188
 21
-3.46625
 31
0.0
  0
LINE
  5
D2
330
1F
100
AcDbEntity
  8
0
  6
Continuous
 62
     7
370
    25
100
AcDbLine
 10
-3.450942029
 20
-3.4807427536
 30
0.0
 11
-3.450942029
 21
-3.46625
 31
0.0
  0
LINE
  5
D3
330
1F
100
AcDbEntity
  8
0
  6
Continuous
 62
     7
370
    25
100
AcDbLine
 10
-3.4147101449
 20
-3.4807427536
 30
0.0
 11
-3.450942029
 21
-3.4807427536
 31
0.0
  0
LINE
  5
D4
330
1F
100
AcDbEntity
  8
0
  6
Continuous
 62
     7
370
    25
100
AcDbLine
 10
-3.4147101449
 20
-3.59125
 30
0.0
 11
-3.4147101449
 21
-3.4807427536
 31
0.0
  0
LINE
  5
D5
330
1F
100
AcDbEntity
  8
0
  6
Continuous
 62
     7
370
    25
100
AcDbLine
 10
-3.3965942029
 20
-3.59125
 30
0.0
 11
-3.4147101449
 21
-3.59125
 31
0.0
  0
LINE
  5
D6
330
1F
100
AcDbEntity
  8
0
  6
Continuous
 62
     7
370
    25
100
AcDbLine
 10
-3.3965942029
 20
-3.4807427536
 30
0.0
 11
-3.3965942029
 21
-3.59125
 31
0.0
  0
LINE
  5
D7
330
1F
100
AcDbEntity
  8
0
  6
Continuous
 62
     7
370
    25
100
AcDbLine
 10
-3.3603623188
 20
-3.4807427536
 30
0.0
 11
-3.3965942029
 21
-3.4807427536
 31
0.0
  0
LINE
  5
D8
330
1F
100
AcDbEntity
  8
0
  6
Continuous
 62
     7
370
    25
100
AcDbLine
 10
-3.3603623188
 20
-3.46625
 30
0.0
 11
-3.3603623188
 21
-3.4807427536
 31
0.0
  0
LINE
  5
D9
330
1F
100
AcDbEntity
  8
0
  6
Continuous
 62
     7
370
    25
100
AcDbLine
 10
-3.2462318841
 20
-3.6166123188
 30
0.0
 11
-3.1393478261
 21
-3.6166123188
 31
0.0
  0
LINE
  5
DA
330
1F
100
AcDbEntity
  8
0
  6
Continuous
 62
     7
370
    25
100
AcDbLine
 10
-3.2462318841
 20
-3.6311050725
 30
0.0
 11
-3.2462318841
 21
-3.6166123188
 31
0.0
  0
LINE
  5
DB
330
1F
100
AcDbEntity
  8
0
  6
Continuous
 62
     7
370
    25
100
AcDbLine
 10
-3.1393478261
 20
-3.6311050725
 30
0.0
 11
-3.2462318841
 21
-3.6311050725
 31
0.0
  0
LINE
  5
DC
330
1F
100
AcDbEntity
  8
0
  6
Continuous
 62
     7
370
    25
100
AcDbLine
 10
-3.1393478261
 20
-3.6166123188
 30
0.0
 11
-3.1393478261
 21
-3.6311050725
 31
0.0
  0
LINE
  5
DD
330
1F
100
AcDbEntity
  8
0
  6
Continuous
 62
     7
370
    25
100
AcDbLine
 10
-2.9346376812
 20
-3.5205978261
 30
0.0
 11
-2.9346376812
 21
-3.585390625
 31
0.0
  0
LINE
  5
DE
330
1F
100
AcDbEntity
  8
0
  6
Continuous
 62
     7
370
    25
100
AcDbLine
 10
-2.9778894928
 20
-3.5205978261
 30
0.0
 11
-2.9346376812
 21
-3.5205978261
 31
0.0
  0
LINE
  5
DF
330
1F
100
AcDbEntity
  8
0
  6
Continuous
 62
     7
370
    25
100
AcDbLine
 10
-2.9778894928
 20
-3.5350905797
 30
0.0
 11
-2.9778894928
 21
-3.5205978261
 31
0.0
  0
LINE
  5
E0
330
1F
100
AcDbEntity
  8
0
  6
Continuous
 62
     7
370
    25
100
AcDbLine
 10
-2.9527536232
 20
-3.5350905797
 30
0.0
 11
-2.9778894928
 21
-3.5350905797
 31
0.0
  0
LINE
  5
E1
330
1F
100
AcDbEntity
  8
0
  6
Continuous
 62
     7
370
    25
100
AcDbLine
 10
-2.9527536232
 20
-3.5759080616
 30
0.0
 11
-2.9527536232
 21
-3.5350905797
 31
0.0
  0
LINE
  5
E2
330
1F
100
AcDbEntity
  8
0
  6
Continuous
 62
     7
370
    25
100
AcDbLine
 10
-2.8023913043
 20
-3.46625
 30
0.0
 11
-2.7691598732
 21
-3.46625
 31
0.0
  0
LINE
  5
E3
330
1F
100
AcDbEntity
  8
0
  6
Continuous
 62
     7
370
    25
100
AcDbLine
 10
-2.8023913043
 20
-3.59125
 30
0.0
 11
-2.8023913043
 21
-3.46625
 31
0.0
  0
LINE
  5
E4
330
1F
100
AcDbEntity
  8
0
  6
Continuous
 62
     7
370
    25
100
AcDbLine
 10
-2.7842753623
 20
-3.59125
 30
0.0
 11
-2.8023913043
 21
-3.59125
 31
0.0
  0
LINE
  5
E5
330
1F
100
AcDbEntity
  8
0
  6
Continuous
 62
     7
370
    25
100
AcDbLine
 10
-2.7842753623
 20
-3.5369021739
 30
0.0
 11
-2.7842753623
 21
-3.59125
 31
0.0
  0
LINE
  5
E6
330
1F
100
AcDbEntity
  8
0
  6
Continuous
 62
     7
370
    25
100
AcDbLine
 10
-2.7766043931
 20
-3.5369021739
 30
0.0
 11
-2.7842753623
 21
-3.5369021739
 31
0.0
  0
LINE
  5
E7
330
1F
100
AcDbEntity
  8
0
  6
Continuous
 62
     7
370
    25
100
AcDbLine
 10
-2.719057971
 20
-3.59125
 30
0.0
 11
-2.7382495471
 21
-3.59125
 31
0.0
  0
LINE
  5
E8
330
1F
100
AcDbEntity
  8
0
  6
Continuous
 62
     7
370
    25
100
AcDbLine
 10
-2.7381646286
 20
-3.5495833333
 30
0.0
 11
-2.719057971
 21
-3.59125
 31
0.0
  0
LINE
  5
E9
330
1F
100
AcDbEntity
  8
0
  6
Continuous
 62
     7
370
    25
100
AcDbLine
 10
0.45
 20
-0.4058058262
 30
0.0
 11
0.45
 21
0.4058058262
 31
0.0
  0
LINE
  5
EA
330
1F
100
AcDbEntity
  8
0
  6
Continuous
 62
     7
370
    25
100
AcDbLine
 10
-0.45
 20
0.4058058262
 30
0.0
 11
-0.45
 21
-0.4058058262
 31
0.0
  0
LINE
  5
EB
330
1F
100
AcDbEntity
  8
0
  6
Continuous
 62
     7
370
    25
100
AcDbLine
 10
-0.4058058262
 20
-0.45
 30
0.0
 11
0.4058058262
 21
-0.45
 31
0.0
  0
LINE
  5
EC
330
1F
100
AcDbEntity
  8
0
  6
Continuous
 62
     7
370
    25
100
AcDbLine
 10
-3.56
 20
-3.69125
 30
0.0
 11
3.56
 21
-3.69125
 31
0.0
  0
LINE
  5
ED
330
1F
100
AcDbEntity
  8
0
  6
Continuous
 62
     7
370
    25
100
AcDbLine
 10
-3.56
 20
3.69125
 30
0.0
 11
-3.56
 21
-3.69125
 31
0.0
  0
LINE
  5
EE
330
1F
100
AcDbEntity
  8
0
  6
Continuous
 62
     7
370
    25
100
AcDbLine
 10
3.56
 20
3.69125
 30
0.0
 11
-3.56
 21
3.69125
 31
0.0
  0
LINE
  5
EF
330
1F
100
AcDbEntity
  8
0
  6
Continuous
 62
     7
370
    25
100
AcDbLine
 10
3.56
 20
-3.69125
 30
0.0
 11
3.56
 21
3.69125
 31
0.0
  0
LINE
  5
F0
330
1F
100
AcDbEntity
  8
0
  6
Continuous
 62
     7
370
    25
100
AcDbLine
 10
-2.883120471
 20
-3.46625
 30
0.0
 11
-2.8598245018
 21
-3.46625
 31
0.0
  0
LINE
  5
F1
330
1F
100
AcDbEntity
  8
0
  6
Continuous
 62
     7
370
    25
100
AcDbLine
 10
-2.924673913
 20
-3.59125
 30
0.0
 11
-2.883120471
 21
-3.46625
 31
0.0
  0
LINE
  5
F2
330
1F
100
AcDbEntity
  8
0
  6
Continuous
 62
     7
370
    25
100
AcDbLine
 10
-2.9070108696
 20
-3.59125
 30
0.0
 11
-2.924673913
 21
-3.59125
 31
0.0
  0
LINE
  5
F3
330
1F
100
AcDbEntity
  8
0
  6
Continuous
 62
     7
370
    25
100
AcDbLine
 10
-2.8984341033
 20
-3.564076087
 30
0.0
 11
-2.9070108696
 21
-3.59125
 31
0.0
  0
LINE
  5
F4
330
1F
100
AcDbEntity
  8
0
  6
Continuous
 62
     7
370
    25
100
AcDbLine
 10
-2.8465206069
 20
-3.564076087
 30
0.0
 11
-2.8984341033
 21
-3.564076087
 31
0.0
  0
LINE
  5
F5
330
1F
100
AcDbEntity
  8
0
  6
Continuous
 62
     7
370
    25
100
AcDbLine
 10
-2.8381419837
 20
-3.59125
 30
0.0
 11
-2.8465206069
 21
-3.564076087
 31
0.0
  0
LINE
  5
F6
330
1F
100
AcDbEntity
  8
0
  6
Continuous
 62
     7
370
    25
100
AcDbLine
 10
-2.8196014493
 20
-3.59125
 30
0.0
 11
-2.8381419837
 21
-3.59125
 31
0.0
  0
LINE
  5
F7
330
1F
100
AcDbEntity
  8
0
  6
Continuous
 62
     7
370
    25
100
AcDbLine
 10
-2.8598245018
 20
-3.46625
 30
0.0
 11
-2.8196014493
 21
-3.59125
 31
0.0
  0
LINE
  5
F8
330
1F
100
AcDbEntity
  8
0
  6
Continuous
 62
     7
370
    25
100
AcDbLine
 10
-3.096888587
 20
-3.46625
 30
0.0
 11
-3.0735926178
 21
-3.46625
 31
0.0
  0
LINE
  5
F9
330
1F
100
AcDbEntity
  8
0
  6
Continuous
 62
     7
370
    25
100
AcDbLine
 10
-3.138442029
 20
-3.59125
 30
0.0
 11
-3.096888587
 21
-3.46625
 31
0.0
  0
LINE
  5
FA
330
1F
100
AcDbEntity
  8
0
  6
Continuous
 62
     7
370
    25
100
AcDbLine
 10
-3.1207789855
 20
-3.59125
 30
0.0
 11
-3.138442029
 21
-3.59125
 31
0.0
  0
LINE
  5
FB
330
1F
100
AcDbEntity
  8
0
  6
Continuous
 62
     7
370
    25
100
AcDbLine
 10
-3.1122022192
 20
-3.564076087
 30
0.0
 11
-3.1207789855
 21
-3.59125
 31
0.0
  0
LINE
  5
FC
330
1F
100
AcDbEntity
  8
0
  6
Continuous
 62
     7
370
    25
100
AcDbLine
 10
-3.0602887228
 20
-3.564076087
 30
0.0
 11
-3.1122022192
 21
-3.564076087
 31
0.0
  0
LINE
  5
FD
330
1F
100
AcDbEntity
  8
0
  6
Continuous
 62
     7
370
    25
100
AcDbLine
 10
-3.0519100996
 20
-3.59125
 30
0.0
 11
-3.0602887228
 21
-3.564076087
 31
0.0
  0
LINE
  5
FE
330
1F
100
AcDbEntity
  8
0
  6
Continuous
 62
     7
370
    25
100
AcDbLine
 10
-3.0333695652
 20
-3.59125
 30
0.0
 11
-3.0519100996
 21
-3.59125
 31
0.0
  0
LINE
  5
FF
330
1F
100
AcDbEntity
  8
0
  6
Continuous
 62
     7
370
    25
100
AcDbLine
 10
-3.0735926178
 20
-3.46625
 30
0.0
 11
-3.0333695652
 21
-3.59125
 31
0.0
  0
LINE
  5
100
330
1F
100
AcDbEntity
  8
0
  6
Continuous
 62
     7
370
    25
100
AcDbLine
 10
-3.3368115942
 20
-3.46625
 30
0.0
 11
-3.303580163
 21
-3.46625
 31
0.0
  0
LINE
  5
101
330
1F
100
AcDbEntity
  8
0
  6
Continuous
 62
     7
370
    25
100
AcDbLine
 10
-3.3368115942
 20
-3.59125
 30
0.0
 11
-3.3368115942
 21
-3.46625
 31
0.0
  0
LINE
  5
102
330
1F
100
AcDbEntity
  8
0
  6
Continuous
 62
     7
370
    25
100
AcDbLine
 10
-3.3186956522
 20
-3.59125
 30
0.0
 11
-3.3368115942
 21
-3.59125
 31
0.0
  0
LINE
  5
103
330
1F
100
AcDbEntity
  8
0
  6
Continuous
 62
     7
370
    25
100
AcDbLine
 10
-3.3186956522
 20
-3.5369021739
 30
0.0
 11
-3.3186956522
 21
-3.59125
 31
0.0
  0
LINE
  5
104
330
1F
100
AcDbEntity
  8
0
  6
Continuous
 62
     7
370
    25
100
AcDbLine
 10
-3.272669837
 20
-3.59125
 30
0.0
 11
-3.2906442482
 21
-3.5522158062
 31
0.0
  0
LINE
  5
105
330
1F
100
AcDbEntity
  8
0
  6
Continuous
 62
     7
370
    25
100
AcDbLine
 10
-3.2534782609
 20
-3.59125
 30
0.0
 11
-3.272669837
 21
-3.59125
 31
0.0
  0
LINE
  5
106
330
1F
100
AcDbEntity
  8
0
  6
Continuous
 62
     7
370
    25
100
AcDbLine
 10
-3.2725849185
 20
-3.5495833333
 30
0.0
 11
-3.2534782609
 21
-3.59125
 31
0.0
  0
LINE
  5
107
330
1F
100
AcDbEntity
  8
0
  6
Continuous
 62
     7
370
    25
100
AcDbLine
 10
0.4058058262
 20
0.45
 30
0.0
 11
-0.4058058262
 21
0.45
 31
0.0
  0
LINE
  5
108
330
1F
100
AcDbEntity
  8
0
  6
Continuous
 62
     7
370
    25
100
AcDbLine
 10
-2.7382495471
 20
-3.59125
 30
0.0
 11
-2.7562239583
 21
-3.5522158062
 31
0.0
  0
LINE
  5
109
330
1F
100
AcDbEntity
  8
0
  6
Continuous
 62
     7
370
    25
100
AcDbLine
 10
-3.311024683
 20
-3.5369021739
 30
0.0
 11
-3.3186956522
 21
-3.5369021739
 31
0.0
  0
LINE
  5
10A
330
1F
100
AcDbEntity
  8
0
  6
Continuous
 62
     7
370
    25
100
AcDbLine
 10
-2.9346376812
 20
-3.4698731884
 30
0.0
 11
-2.9346376812
 21
-3.4861775362
 31
0.0
  0
LINE
  5
10B
330
1F
100
AcDbEntity
  8
0
  6
Continuous
 62
     7
370
    25
100
AcDbLine
 10
-3.0647327899
 20
-3.5495833333
 30
0.0
 11
-3.0859057971
 21
-3.4808276721
 31
0.0
  0
LINE
  5
10C
330
1F
100
AcDbEntity
  8
0
  6
Continuous
 62
     7
370
    25
100
AcDbLine
 10
-3.0859057971
 20
-3.4808276721
 30
0.0
 11
-3.1076166214
 21
-3.5495833333
 31
0.0
  0
LINE
  5
10D
330
1F
100
AcDbEntity
  8
0
  6
Continuous
 62
     7
370
    25
100
AcDbLine
 10
-3.1076166214
 20
-3.5495833333
 30
0.0
 11
-3.0647327899
 21
-3.5495833333
 31
0.0
  0
LINE
  5
10E
330
1F
100
AcDbEntity
  8
0
  6
Continuous
 62
     7
370
    25
100
AcDbLine
 10
-3.3186956522
 20
-3.5224094203
 30
0.0
 11
-3.3055899004
 21
-3.5224094203
 31
0.0
  0
LINE
  5
10F
330
1F
100
AcDbEntity
  8
0
  6
Continuous
 62
     7
370
    25
100
AcDbLine
 10
-3.3186956522
 20
-3.4807427536
 30
0.0
 11
-3.3186956522
 21
-3.5224094203
 31
0.0
  0
LINE
  5
110
330
1F
100
AcDbEntity
  8
0
  6
Continuous
 62
     7
370
    25
100
AcDbLine
 10
-3.3034103261
 20
-3.4807427536
 30
0.0
 11
-3.3186956522
 21
-3.4807427536
 31
0.0
  0
LINE
  5
111
330
1F
100
AcDbEntity
  8
0
  6
Continuous
 62
     7
370
    25
100
AcDbLine
 10
-2.7842753623
 20
-3.5224094203
 30
0.0
 11
-2.7711696105
 21
-3.5224094203
 31
0.0
  0
LINE
  5
112
330
1F
100
AcDbEntity
  8
0
  6
Continuous
 62
     7
370
    25
100
AcDbLine
 10
-2.7689900362
 20
-3.4807427536
 30
0.0
 11
-2.7842753623
 21
-3.4807427536
 31
0.0
  0
LINE
  5
113
330
1F
100
AcDbEntity
  8
0
  6
Continuous
 62
     7
370
    25
100
AcDbLine
 10
-2.7842753623
 20
-3.4807427536
 30
0.0
 11
-2.7842753623
 21
-3.5224094203
 31
0.0
  0
LINE
  5
114
330
1F
100
AcDbEntity
  8
0
  6
Continuous
 62
     7
370
    25
100
AcDbLine
 10
-2.8509646739
 20
-3.5495833333
 30
0.0
 11
-2.8721376812
 21
-3.4808276721
 31
0.0
  0
LINE
  5
115
330
1F
100
AcDbEntity
  8
0
  6
Continuous
 62
     7
370
    25
100
AcDbLine
 10
-2.8721376812
 20
-3.4808276721
 30
0.0
 11
-2.8938485054
 21
-3.5495833333
 31
0.0
  0
LINE
  5
116
330
1F
100
AcDbEntity
  8
0
  6
Continuous
 62
     7
370
    25
100
AcDbLine
 10
-2.8938485054
 20
-3.5495833333
 30
0.0
 11
-2.8509646739
 21
-3.5495833333
 31
0.0
  0
ARC
  5
117
330
1F
100
AcDbEntity
  8
0
  6
Continuous
 62
     7
370
    25
100
AcDbCircle
 10
0.4279029131
 20
0.4279029131
 30
0.0
 40
0.0312500000000247
100
AcDbArc
 50
315.0
 51
135.0000000001
  0
ARC
  5
118
330
1F
100
AcDbEntity
  8
0
  6
Continuous
 62
     7
370
    25
100
AcDbCircle
 10
-0.4279029131
 20
0.4279029131
 30
0.0
 40
0.0312500000000001
100
AcDbArc
 50
45.0
 51
225.0
  0
ARC
  5
119
330
1F
100
AcDbEntity
  8
0
  6
Continuous
 62
     7
370
    25
100
AcDbCircle
 10
-0.4279029131
 20
-0.4279029131
 30
0.0
 40
0.031250000000013
100
AcDbArc
 50
135.0
 51
315.0
  0
ARC
  5
11A
330
1F
100
AcDbEntity
  8
0
  6
Continuous
 62
     7
370
    25
100
AcDbCircle
 10
0.4279029131
 20
-0.4279029131
 30
0.0
 40
0.031250000000034
100
AcDbArc
 50
225.0
 51
45.0000000001
  0
ENDSEC
  0
SECTION
  2
OBJECTS
  0
DICTIONARY
  5
C
330
0
100
AcDbDictionary
281
     1
  3
ACAD_GROUP
350
D
  3
ACAD_LAYOUT
350
1A
  3
ACAD_MLINESTYLE
350
17
  3
ACAD_PLOTSETTINGS
350
19
  3
ACAD_PLOTSTYLENAME
350
E
  3
ACAD_SCALELIST
350
47
  0
DICTIONARY
  5
D
102
{ACAD_REACTORS
330
C
102
}
330
C
100
AcDbDictionary
281
     1
  0
DICTIONARY
  5
1A
102
{ACAD_REACTORS
330
C
102
}
330
C
100
AcDbDictionary
281
     1
  3
Layout1
350
1E
  3
Layout2
350
26
  3
Model
350
22
  0
DICTIONARY
  5
17
102
{ACAD_REACTORS
330
C
102
}
330
C
100
AcDbDictionary
281
     1
  3
Standard
350
18
  0
DICTIONARY
  5
19
102
{ACAD_REACTORS
330
C
102
}
330
C
100
AcDbDictionary
281
     1
  0
ACDBDICTIONARYWDFLT
  5
E
102
{ACAD_REACTORS
330
C
102
}
330
C
100
AcDbDictionary
281
     1
  3
Normal
350
F
100
AcDbDictionaryWithDefault
340
F
  0
DICTIONARY
  5
47
102
{ACAD_REACTORS
330
C
102
}
330
C
100
AcDbDictionary
281
     1
  3
A0
350
48
  3
A1
350
49
  3
A2
350
4A
  3
A3
350
4B
  3
A4
350
4C
  3
A5
350
4D
  3
A6
350
4E
  3
A7
350
4F
  3
A8
350
50
  3
A9
350
51
  3
B0
350
52
  3
B1
350
53
  3
B2
350
54
  3
B3
350
55
  3
B4
350
56
  3
B5
350
57
  3
B6
350
58
  3
B7
350
59
  3
B8
350
5A
  3
B9
350
5B
  3
C0
350
5C
  3
C1
350
5D
  3
C2
350
5E
  3
C3
350
5F
  3
C4
350
60
  3
C5
350
61
  3
C6
350
62
  3
C7
350
63
  3
C8
350
64
  3
C9
350
65
  3
D0
350
66
  3
D1
350
67
  3
D2
350
68
  0
LAYOUT
  5
1E
102
{ACAD_REACTORS
330
1A
102
}
330
1A
100
AcDbPlotSettings
  1

  2
none_device
  4

  6

 40
0.0
 41
0.0
 42
0.0
 43
0.0
 44
0.0
 45
0.0
 46
0.0
 47
0.0
 48
0.0
 49
0.0
140
0.0
141
0.0
142
1.0
143
1.0
 70
   688
 72
     0
 73
     0
 74
     5
  7

 75
    16
147
1.0
148
0.0
149
0.0
100
AcDbLayout
  1
Layout1
 70
     1
 71
     1
 10
0.0
 20
0.0
 11
12.0
 21
9.0
 12
0.0
 22
0.0
 32
0.0
 14
1.0000000000E+20
 24
1.0000000000E+20
 34
1.0000000000E+20
 15
-1.0000000000E+20
 25
-1.0000000000E+20
 35
-1.0000000000E+20
146
0.0
 13
0.0
 23
0.0
 33
0.0
 16
1.0
 26
0.0
 36
0.0
 17
0.0
 27
1.0
 37
0.0
 76
     0
330
1B
  0
LAYOUT
  5
26
102
{ACAD_REACTORS
330
1A
102
}
330
1A
100
AcDbPlotSettings
  1

  2
none_device
  4

  6

 40
0.0
 41
0.0
 42
0.0
 43
0.0
 44
0.0
 45
0.0
 46
0.0
 47
0.0
 48
0.0
 49
0.0
140
0.0
141
0.0
142
1.0
143
1.0
 70
   688
 72
     0
 73
     0
 74
     5
  7

 75
    16
147
1.0
148
0.0
149
0.0
100
AcDbLayout
  1
Layout2
 70
     1
 71
     2
 10
0.0
 20
0.0
 11
0.0
 21
0.0
 12
0.0
 22
0.0
 32
0.0
 14
0.0
 24
0.0
 34
0.0
 15
0.0
 25
0.0
 35
0.0
146
0.0
 13
0.0
 23
0.0
 33
0.0
 16
1.0
 26
0.0
 36
0.0
 17
0.0
 27
1.0
 37
0.0
 76
     0
330
23
  0
LAYOUT
  5
22
102
{ACAD_REACTORS
330
1A
102
}
330
1A
100
AcDbPlotSettings
  1

  2
none_device
  4
ANSI_A_(11.00_x_8.50_Inches)
  6

 40
6.35
 41
19.05
 42
6.35000508
 43
19.05000254
 44
279.4
 45
215.9
 46
133.34999746
 47
88.89999873
 48
0.0
 49
0.0
140
0.0
141
0.0
142
1.1398577718
143
1.0
 70
  1696
 72
     0
 73
     0
 74
     0
  7

 75
     0
147
0.5913241897
148
-39.4088153714
149
0.0
100
AcDbLayout
  1
Model
 70
     1
 71
     0
 10
0.0
 20
0.0
 11
12.0
 21
9.0
 12
0.0
 22
0.0
 32
0.0
 14
-3.56
 24
-3.69125
 34
0.0
 15
3.56
 25
3.69125
 35
0.0
146
0.0
 13
0.0
 23
0.0
 33
0.0
 16
1.0
 26
0.0
 36
0.0
 17
0.0
 27
1.0
 37
0.0
 76
     0
330
1F
331
29
  0
MLINESTYLE
  5
18
102
{ACAD_REACTORS
330
17
102
}
330
17
100
AcDbMlineStyle
  2
Standard
 70
     0
  3

 62
   256
 51
90.0
 52
90.0
 71
     2
 49
0.5
 62
   256
  6
BYLAYER
 49
-0.5
 62
   256
  6
BYLAYER
  0
ACDBPLACEHOLDER
  5
F
102
{ACAD_REACTORS
330
E
102
}
330
E
  0
SCALE
  5
48
102
{ACAD_REACTORS
330
47
102
}
330
47
100
AcDbScale
 70
     0
300
1:1
140
1.0
141
1.0
290
     1
  0
SCALE
  5
49
102
{ACAD_REACTORS
330
47
102
}
330
47
100
AcDbScale
 70
     0
300
1:2
140
1.0
141
2.0
290
     0
  0
SCALE
  5
4A
102
{ACAD_REACTORS
330
47
102
}
330
47
100
AcDbScale
 70
     0
300
1:4
140
1.0
141
4.0
290
     0
  0
SCALE
  5
4B
102
{ACAD_REACTORS
330
47
102
}
330
47
100
AcDbScale
 70
     0
300
1:5
140
1.0
141
5.0
290
     0
  0
SCALE
  5
4C
102
{ACAD_REACTORS
330
47
102
}
330
47
100
AcDbScale
 70
     0
300
1:8
140
1.0
141
8.0
290
     0
  0
SCALE
  5
4D
102
{ACAD_REACTORS
330
47
102
}
330
47
100
AcDbScale
 70
     0
300
1:10
140
1.0
141
10.0
290
     0
  0
SCALE
  5
4E
102
{ACAD_REACTORS
330
47
102
}
330
47
100
AcDbScale
 70
     0
300
1:16
140
1.0
141
16.0
290
     0
  0
SCALE
  5
4F
102
{ACAD_REACTORS
330
47
102
}
330
47
100
AcDbScale
 70
     0
300
1:20
140
1.0
141
20.0
290
     0
  0
SCALE
  5
50
102
{ACAD_REACTORS
330
47
102
}
330
47
100
AcDbScale
 70
     0
300
1:30
140
1.0
141
30.0
290
     0
  0
SCALE
  5
51
102
{ACAD_REACTORS
330
47
102
}
330
47
100
AcDbScale
 70
     0
300
1:40
140
1.0
141
40.0
290
     0
  0
SCALE
  5
52
102
{ACAD_REACTORS
330
47
102
}
330
47
100
AcDbScale
 70
     0
300
1:50
140
1.0
141
50.0
290
     0
  0
SCALE
  5
53
102
{ACAD_REACTORS
330
47
102
}
330
47
100
AcDbScale
 70
     0
300
1:100
140
1.0
141
100.0
290
     0
  0
SCALE
  5
54
102
{ACAD_REACTORS
330
47
102
}
330
47
100
AcDbScale
 70
     0
300
2:1
140
2.0
141
1.0
290
     0
  0
SCALE
  5
55
102
{ACAD_REACTORS
330
47
102
}
330
47
100
AcDbScale
 70
     0
300
4:1
140
4.0
141
1.0
290
     0
  0
SCALE
  5
56
102
{ACAD_REACTORS
330
47
102
}
330
47
100
AcDbScale
 70
     0
300
8:1
140
8.0
141
1.0
290
     0
  0
SCALE
  5
57
102
{ACAD_REACTORS
330
47
102
}
330
47
100
AcDbScale
 70
     0
300
10:1
140
10.0
141
1.0
290
     0
  0
SCALE
  5
58
102
{ACAD_REACTORS
330
47
102
}
330
47
100
AcDbScale
 70
     0
300
100:1
140
100.0
141
1.0
290
     0
  0
SCALE
  5
59
102
{ACAD_REACTORS
330
47
102
}
330
47
100
AcDbScale
 70
     0
300
1/128" = 1'-0"
140
0.0078125
141
12.0
290
     0
  0
SCALE
  5
5A
102
{ACAD_REACTORS
330
47
102
}
330
47
100
AcDbScale
 70
     0
300
1/64" = 1'-0"
140
0.015625
141
12.0
290
     0
  0
SCALE
  5
5B
102
{ACAD_REACTORS
330
47
102
}
330
47
100
AcDbScale
 70
     0
300
1/32" = 1'-0"
140
0.03125
141
12.0
290
     0
  0
SCALE
  5
5C
102
{ACAD_REACTORS
330
47
102
}
330
47
100
AcDbScale
 70
     0
300
1/16" = 1'-0"
140
0.0625
141
12.0
290
     0
  0
SCALE
  5
5D
102
{ACAD_REACTORS
330
47
102
}
330
47
100
AcDbScale
 70
     0
300
3/32" = 1'-0"
140
0.09375
141
12.0
290
     0
  0
SCALE
  5
5E
102
{ACAD_REACTORS
330
47
102
}
330
47
100
AcDbScale
 70
     0
300
1/8" = 1'-0"
140
0.125
141
12.0
290
     0
  0
SCALE
  5
5F
102
{ACAD_REACTORS
330
47
102
}
330
47
100
AcDbScale
 70
     0
300
3/16" = 1'-0"
140
0.1875
141
12.0
290
     0
  0
SCALE
  5
60
102
{ACAD_REACTORS
330
47
102
}
330
47
100
AcDbScale
 70
     0
300
1/4" = 1'-0"
140
0.25
141
12.0
290
     0
  0
SCALE
  5
61
102
{ACAD_REACTORS
330
47
102
}
330
47
100
AcDbScale
 70
     0
300
3/8" = 1'-0"
140
0.375
141
12.0
290
     0
  0
SCALE
  5
62
102
{ACAD_REACTORS
330
47
102
}
330
47
100
AcDbScale
 70
     0
300
1/2" = 1'-0"
140
0.5
141
12.0
290
     0
  0
SCALE
  5
63
102
{ACAD_REACTORS
330
47
102
}
330
47
100
AcDbScale
 70
     0
300
3/4" = 1'-0"
140
0.75
141
12.0
290
     0
  0
SCALE
  5
64
102
{ACAD_REACTORS
330
47
102
}
330
47
100
AcDbScale
 70
     0
300
1" = 1'-0"
140
1.0
141
12.0
290
     0
  0
SCALE
  5
65
102
{ACAD_REACTORS
330
47
102
}
330
47
100
AcDbScale
 70
     0
300
1-1/2" = 1'-0"
140
1.5
141
12.0
290
     0
  0
SCALE
  5
66
102
{ACAD_REACTORS
330
47
102
}
330
47
100
AcDbScale
 70
     0
300
3" = 1'-0"
140
3.0
141
12.0
290
     0
  0
SCALE
  5
67
102
{ACAD_REACTORS
330
47
102
}
330
47
100
AcDbScale
 70
     0
300
6" = 1'-0"
140
6.0
141
12.0
290
     0
  0
SCALE
  5
68
102
{ACAD_REACTORS
330
47
102
}
330
47
100
AcDbScale
 70
     0
300
1'-0" = 1'-0"
140
12.0
141
12.0
290
     0
  0
ENDSEC
  0
EOF
