  0
SECTION
  2
HEADER
  9
$ACADVER
  1
AC1009
  9
$FILLMODE
 70
1
  9
$EXTMIN
 10
-1.073418
 20
-0.027800
 30
0.000000
  9
$EXTMAX
 10
15.909000
 20
13.988000
 30
0.000000
  0
ENDSEC
  0
SECTION
  2
TABLES
  0
TABLE
  2
LTYPE
 70
1
  0
LTYPE
  2
CONTINUOUS
 70
64
  3
Solid line
 72
65
 73
0
 40
0
  0
ENDTAB
  0
TABLE
  2
LAYER
 70
255
  0
LAYER
  2
20
 70
64
 62
53
  6
CONTINUOUS
  0
LAYER
  2
31
 70
64
 62
253
  6
CONTINUOUS
  0
ENDTAB
  0
ENDSEC
  0
SECTION
  2
BLOCKS
  0
BLOCK
  8
0
  2
RECT
 70
64
 10
0.000000
 20
0.000000
 30
0.000000
  3
RECT
  0
SOLID
  8
0
 10
-0.500000
 20
-0.500000
 30
0.000000
 11
0.500000
 21
-0.500000
 31
0.000000
 12
-0.500000
 22
0.500000
 32
0.000000
 13
0.500000
 23
0.500000
 33
0.000000
  0
ENDBLK
  8
0
  0
BLOCK
  8
0
  2
PIE
 70
64
 10
0.000000
 20
0.000000
 30
0.000000
  3
PIE
  0
POLYLINE
  8
0
 66
1
 10
0.000000
 20
0.000000
 30
0.000000
 40
0.500000
 41
0.500000
 70
0
  0
VERTEX
  8
0
 10
0.000000
 20
-0.250000
 30
0.000000
 42
1.000000
  0
VERTEX
  8
0
 10
0.000000
 20
0.250000
 30
0.000000
 42
1.000000
  0
VERTEX
  8
0
 10
0.000000
 20
-0.250000
 30
0.000000
  0
SEQEND
  8
0
  0
ENDBLK
  8
0
  0
BLOCK
  8
0
  2
OCTAGONP
 70
64
 10
0.000000
 20
0.000000
 30
0.000000
  3
OCTAGONP
  0
POLYLINE
  8
0
 66
1
 10
0.000000
 20
0.000000
 30
0.000000
 40
0.500000
 41
0.500000
 70
0
  0
VERTEX
  8
0
 10
-0.250000
 20
-0.103553
 30
0.000000
  0
VERTEX
  8
0
 10
-0.250000
 20
0.103553
 30
0.000000
  0
VERTEX
  8
0
 10
-0.103553
 20
0.250000
 30
0.000000
  0
VERTEX
  8
0
 10
0.103553
 20
0.250000
 30
0.000000
  0
VERTEX
  8
0
 10
0.250000
 20
0.103553
 30
0.000000
  0
VERTEX
  8
0
 10
0.250000
 20
-0.103553
 30
0.000000
  0
VERTEX
  8
0
 10
0.103553
 20
-0.250000
 30
0.000000
  0
VERTEX
  8
0
 10
-0.103553
 20
-0.250000
 30
0.000000
  0
VERTEX
  8
0
 10
-0.250000
 20
-0.103553
 30
0.000000
  0
VERTEX
  8
0
 10
-0.250000
 20
0.103553
 30
0.000000
  0
SEQEND
  8
0
  0
ENDBLK
  8
0
  0
BLOCK
  8
0
  2
SQUAREP
 70
64
 10
0.000000
 20
0.000000
 30
0.000000
  3
SQUAREP
  0
SOLID
  8
0
 10
-0.500000
 20
-0.500000
 30
0.000000
 11
0.500000
 21
-0.500000
 31
0.000000
 12
-0.500000
 22
0.500000
 32
0.000000
 13
0.500000
 23
0.500000
 33
0.000000
  0
ENDBLK
  8
0
  0
BLOCK
  8
0
  2
ROUNDP
 70
64
 10
0.000000
 20
0.000000
 30
0.000000
  3
ROUNDP
  0
POLYLINE
  8
0
 66
1
 10
0.000000
 20
0.000000
 30
0.000000
 40
0.500000
 41
0.500000
 70
0
  0
VERTEX
  8
0
 10
0.000000
 20
-0.250000
 30
0.000000
 42
1.000000
  0
VERTEX
  8
0
 10
0.000000
 20
0.250000
 30
0.000000
 42
1.000000
  0
VERTEX
  8
0
 10
0.000000
 20
-0.250000
 30
0.000000
  0
SEQEND
  8
0
  0
ENDBLK
  8
0
  0
BLOCK
  8
0
  2
ANNULUSP
 70
64
 10
0.000000
 20
0.000000
 30
0.000000
  3
ANNULUSP
  0
POLYLINE
  8
0
 66
1
 10
0.000000
 20
0.000000
 30
0.000000
 40
0.500000
 41
0.500000
 70
0
  0
VERTEX
  8
0
 10
0.000000
 20
-0.250000
 30
0.000000
 42
1.000000
  0
VERTEX
  8
0
 10
0.000000
 20
0.250000
 30
0.000000
 42
1.000000
  0
VERTEX
  8
0
 10
0.000000
 20
-0.250000
 30
0.000000
  0
SEQEND
  8
0
  0
ENDBLK
  8
0
  0
BLOCK
  8
0
  2
THERMALP
 70
64
 10
0.000000
 20
0.000000
 30
0.000000
  3
THERMALP
  0
POLYLINE
  8
0
 66
1
 10
0.000000
 20
0.000000
 30
0.000000
 40
0.100000
 41
0.100000
 70
0
  0
VERTEX
  8
0
 10
-0.237868
 20
0.450000
 30
0.000000
  0
VERTEX
  8
0
 10
0.237868
 20
0.450000
 30
0.000000
  0
SEQEND
  8
0
  0
POLYLINE
  8
0
 66
1
 10
0.000000
 20
0.000000
 30
0.000000
 40
0.050000
 41
0.050000
 70
0
  0
VERTEX
  8
0
 10
0.237868
 20
0.425000
 30
0.000000
 42
1.000000
  0
VERTEX
  8
0
 10
0.237868
 20
0.475000
 30
0.000000
  0
SEQEND
  8
0
  0
POLYLINE
  8
0
 66
1
 10
0.000000
 20
0.000000
 30
0.000000
 40
0.050000
 41
0.050000
 70
0
  0
VERTEX
  8
0
 10
-0.237868
 20
0.475000
 30
0.000000
 42
1.000000
  0
VERTEX
  8
0
 10
-0.237868
 20
0.425000
 30
0.000000
  0
SEQEND
  8
0
  0
POLYLINE
  8
0
 66
1
 10
0.000000
 20
0.000000
 30
0.000000
 40
0.100000
 41
0.100000
 70
0
  0
VERTEX
  8
0
 10
0.450000
 20
0.237868
 30
0.000000
  0
VERTEX
  8
0
 10
0.450000
 20
-0.237868
 30
0.000000
  0
SEQEND
  8
0
  0
POLYLINE
  8
0
 66
1
 10
0.000000
 20
0.000000
 30
0.000000
 40
0.050000
 41
0.050000
 70
0
  0
VERTEX
  8
0
 10
0.425000
 20
-0.237868
 30
0.000000
 42
1.000000
  0
VERTEX
  8
0
 10
0.475000
 20
-0.237868
 30
0.000000
  0
SEQEND
  8
0
  0
POLYLINE
  8
0
 66
1
 10
0.000000
 20
0.000000
 30
0.000000
 40
0.050000
 41
0.050000
 70
0
  0
VERTEX
  8
0
 10
0.475000
 20
0.237868
 30
0.000000
 42
1.000000
  0
VERTEX
  8
0
 10
0.425000
 20
0.237868
 30
0.000000
  0
SEQEND
  8
0
  0
POLYLINE
  8
0
 66
1
 10
0.000000
 20
0.000000
 30
0.000000
 40
0.100000
 41
0.100000
 70
0
  0
VERTEX
  8
0
 10
0.237868
 20
-0.450000
 30
0.000000
  0
VERTEX
  8
0
 10
-0.237868
 20
-0.450000
 30
0.000000
  0
SEQEND
  8
0
  0
POLYLINE
  8
0
 66
1
 10
0.000000
 20
0.000000
 30
0.000000
 40
0.050000
 41
0.050000
 70
0
  0
VERTEX
  8
0
 10
-0.237868
 20
-0.425000
 30
0.000000
 42
1.000000
  0
VERTEX
  8
0
 10
-0.237868
 20
-0.475000
 30
0.000000
  0
SEQEND
  8
0
  0
POLYLINE
  8
0
 66
1
 10
0.000000
 20
0.000000
 30
0.000000
 40
0.050000
 41
0.050000
 70
0
  0
VERTEX
  8
0
 10
0.237868
 20
-0.475000
 30
0.000000
 42
1.000000
  0
VERTEX
  8
0
 10
0.237868
 20
-0.425000
 30
0.000000
  0
SEQEND
  8
0
  0
POLYLINE
  8
0
 66
1
 10
0.000000
 20
0.000000
 30
0.000000
 40
0.100000
 41
0.100000
 70
0
  0
VERTEX
  8
0
 10
-0.450000
 20
-0.237868
 30
0.000000
  0
VERTEX
  8
0
 10
-0.450000
 20
0.237868
 30
0.000000
  0
SEQEND
  8
0
  0
POLYLINE
  8
0
 66
1
 10
0.000000
 20
0.000000
 30
0.000000
 40
0.050000
 41
0.050000
 70
0
  0
VERTEX
  8
0
 10
-0.425000
 20
0.237868
 30
0.000000
 42
1.000000
  0
VERTEX
  8
0
 10
-0.475000
 20
0.237868
 30
0.000000
  0
SEQEND
  8
0
  0
POLYLINE
  8
0
 66
1
 10
0.000000
 20
0.000000
 30
0.000000
 40
0.050000
 41
0.050000
 70
0
  0
VERTEX
  8
0
 10
-0.475000
 20
-0.237868
 30
0.000000
 42
1.000000
  0
VERTEX
  8
0
 10
-0.425000
 20
-0.237868
 30
0.000000
  0
SEQEND
  8
0
  0
ENDBLK
  8
0
  0
BLOCK
  8
0
  2
OCTAGONV
 70
64
 10
0.000000
 20
0.000000
 30
0.000000
  3
OCTAGONV
  0
POLYLINE
  8
0
 66
1
 10
0.000000
 20
0.000000
 30
0.000000
 40
0.500000
 41
0.500000
 70
0
  0
VERTEX
  8
0
 10
-0.250000
 20
-0.103553
 30
0.000000
  0
VERTEX
  8
0
 10
-0.250000
 20
0.103553
 30
0.000000
  0
VERTEX
  8
0
 10
-0.103553
 20
0.250000
 30
0.000000
  0
VERTEX
  8
0
 10
0.103553
 20
0.250000
 30
0.000000
  0
VERTEX
  8
0
 10
0.250000
 20
0.103553
 30
0.000000
  0
VERTEX
  8
0
 10
0.250000
 20
-0.103553
 30
0.000000
  0
VERTEX
  8
0
 10
0.103553
 20
-0.250000
 30
0.000000
  0
VERTEX
  8
0
 10
-0.103553
 20
-0.250000
 30
0.000000
  0
VERTEX
  8
0
 10
-0.250000
 20
-0.103553
 30
0.000000
  0
VERTEX
  8
0
 10
-0.250000
 20
0.103553
 30
0.000000
  0
SEQEND
  8
0
  0
ENDBLK
  8
0
  0
BLOCK
  8
0
  2
SQUAREV
 70
64
 10
0.000000
 20
0.000000
 30
0.000000
  3
SQUAREV
  0
SOLID
  8
0
 10
-0.500000
 20
-0.500000
 30
0.000000
 11
0.500000
 21
-0.500000
 31
0.000000
 12
-0.500000
 22
0.500000
 32
0.000000
 13
0.500000
 23
0.500000
 33
0.000000
  0
ENDBLK
  8
0
  0
BLOCK
  8
0
  2
ROUNDV
 70
64
 10
0.000000
 20
0.000000
 30
0.000000
  3
ROUNDV
  0
POLYLINE
  8
0
 66
1
 10
0.000000
 20
0.000000
 30
0.000000
 40
0.500000
 41
0.500000
 70
0
  0
VERTEX
  8
0
 10
0.000000
 20
-0.250000
 30
0.000000
 42
1.000000
  0
VERTEX
  8
0
 10
0.000000
 20
0.250000
 30
0.000000
 42
1.000000
  0
VERTEX
  8
0
 10
0.000000
 20
-0.250000
 30
0.000000
  0
SEQEND
  8
0
  0
ENDBLK
  8
0
  0
BLOCK
  8
0
  2
ANNULUSV
 70
64
 10
0.000000
 20
0.000000
 30
0.000000
  3
ANNULUSV
  0
POLYLINE
  8
0
 66
1
 10
0.000000
 20
0.000000
 30
0.000000
 40
0.500000
 41
0.500000
 70
0
  0
VERTEX
  8
0
 10
0.000000
 20
-0.250000
 30
0.000000
 42
1.000000
  0
VERTEX
  8
0
 10
0.000000
 20
0.250000
 30
0.000000
 42
1.000000
  0
VERTEX
  8
0
 10
0.000000
 20
-0.250000
 30
0.000000
  0
SEQEND
  8
0
  0
ENDBLK
  8
0
  0
BLOCK
  8
0
  2
THERMALV
 70
64
 10
0.000000
 20
0.000000
 30
0.000000
  3
THERMALV
  0
POLYLINE
  8
0
 66
1
 10
0.000000
 20
0.000000
 30
0.000000
 40
0.100000
 41
0.100000
 70
0
  0
VERTEX
  8
0
 10
-0.237868
 20
0.450000
 30
0.000000
  0
VERTEX
  8
0
 10
0.237868
 20
0.450000
 30
0.000000
  0
SEQEND
  8
0
  0
POLYLINE
  8
0
 66
1
 10
0.000000
 20
0.000000
 30
0.000000
 40
0.050000
 41
0.050000
 70
0
  0
VERTEX
  8
0
 10
0.237868
 20
0.425000
 30
0.000000
 42
1.000000
  0
VERTEX
  8
0
 10
0.237868
 20
0.475000
 30
0.000000
  0
SEQEND
  8
0
  0
POLYLINE
  8
0
 66
1
 10
0.000000
 20
0.000000
 30
0.000000
 40
0.050000
 41
0.050000
 70
0
  0
VERTEX
  8
0
 10
-0.237868
 20
0.475000
 30
0.000000
 42
1.000000
  0
VERTEX
  8
0
 10
-0.237868
 20
0.425000
 30
0.000000
  0
SEQEND
  8
0
  0
POLYLINE
  8
0
 66
1
 10
0.000000
 20
0.000000
 30
0.000000
 40
0.100000
 41
0.100000
 70
0
  0
VERTEX
  8
0
 10
0.450000
 20
0.237868
 30
0.000000
  0
VERTEX
  8
0
 10
0.450000
 20
-0.237868
 30
0.000000
  0
SEQEND
  8
0
  0
POLYLINE
  8
0
 66
1
 10
0.000000
 20
0.000000
 30
0.000000
 40
0.050000
 41
0.050000
 70
0
  0
VERTEX
  8
0
 10
0.425000
 20
-0.237868
 30
0.000000
 42
1.000000
  0
VERTEX
  8
0
 10
0.475000
 20
-0.237868
 30
0.000000
  0
SEQEND
  8
0
  0
POLYLINE
  8
0
 66
1
 10
0.000000
 20
0.000000
 30
0.000000
 40
0.050000
 41
0.050000
 70
0
  0
VERTEX
  8
0
 10
0.475000
 20
0.237868
 30
0.000000
 42
1.000000
  0
VERTEX
  8
0
 10
0.425000
 20
0.237868
 30
0.000000
  0
SEQEND
  8
0
  0
POLYLINE
  8
0
 66
1
 10
0.000000
 20
0.000000
 30
0.000000
 40
0.100000
 41
0.100000
 70
0
  0
VERTEX
  8
0
 10
0.237868
 20
-0.450000
 30
0.000000
  0
VERTEX
  8
0
 10
-0.237868
 20
-0.450000
 30
0.000000
  0
SEQEND
  8
0
  0
POLYLINE
  8
0
 66
1
 10
0.000000
 20
0.000000
 30
0.000000
 40
0.050000
 41
0.050000
 70
0
  0
VERTEX
  8
0
 10
-0.237868
 20
-0.425000
 30
0.000000
 42
1.000000
  0
VERTEX
  8
0
 10
-0.237868
 20
-0.475000
 30
0.000000
  0
SEQEND
  8
0
  0
POLYLINE
  8
0
 66
1
 10
0.000000
 20
0.000000
 30
0.000000
 40
0.050000
 41
0.050000
 70
0
  0
VERTEX
  8
0
 10
0.237868
 20
-0.475000
 30
0.000000
 42
1.000000
  0
VERTEX
  8
0
 10
0.237868
 20
-0.425000
 30
0.000000
  0
SEQEND
  8
0
  0
POLYLINE
  8
0
 66
1
 10
0.000000
 20
0.000000
 30
0.000000
 40
0.100000
 41
0.100000
 70
0
  0
VERTEX
  8
0
 10
-0.450000
 20
-0.237868
 30
0.000000
  0
VERTEX
  8
0
 10
-0.450000
 20
0.237868
 30
0.000000
  0
SEQEND
  8
0
  0
POLYLINE
  8
0
 66
1
 10
0.000000
 20
0.000000
 30
0.000000
 40
0.050000
 41
0.050000
 70
0
  0
VERTEX
  8
0
 10
-0.425000
 20
0.237868
 30
0.000000
 42
1.000000
  0
VERTEX
  8
0
 10
-0.475000
 20
0.237868
 30
0.000000
  0
SEQEND
  8
0
  0
POLYLINE
  8
0
 66
1
 10
0.000000
 20
0.000000
 30
0.000000
 40
0.050000
 41
0.050000
 70
0
  0
VERTEX
  8
0
 10
-0.475000
 20
-0.237868
 30
0.000000
 42
1.000000
  0
VERTEX
  8
0
 10
-0.425000
 20
-0.237868
 30
0.000000
  0
SEQEND
  8
0
  0
ENDBLK
  8
0
  0
BLOCK
  8
0
  2
LONGP100
 70
64
 10
0.000000
 20
0.000000
 30
0.000000
  3
LONGP100
  0
POLYLINE
  8
0
 66
1
 10
0.000000
 20
0.000000
 30
0.000000
 40
1.000000
 41
1.000000
 70
0
  0
VERTEX
  8
0
 10
-0.500000
 20
0.000000
 30
0.000000
  0
VERTEX
  8
0
 10
0.500000
 20
0.000000
 30
0.000000
  0
SEQEND
  8
0
  0
POLYLINE
  8
0
 66
1
 10
0.000000
 20
0.000000
 30
0.000000
 40
0.500000
 41
0.500000
 70
0
  0
VERTEX
  8
0
 10
0.500000
 20
-0.250000
 30
0.000000
 42
1.000000
  0
VERTEX
  8
0
 10
0.500000
 20
0.250000
 30
0.000000
  0
SEQEND
  8
0
  0
POLYLINE
  8
0
 66
1
 10
0.000000
 20
0.000000
 30
0.000000
 40
0.500000
 41
0.500000
 70
0
  0
VERTEX
  8
0
 10
-0.500000
 20
0.250000
 30
0.000000
 42
1.000000
  0
VERTEX
  8
0
 10
-0.500000
 20
-0.250000
 30
0.000000
  0
SEQEND
  8
0
  0
ENDBLK
  8
0
  0
BLOCK
  8
0
  2
RECT0X0R100
 70
64
 10
0.000000
 20
0.000000
 30
0.000000
  3
RECT0X0R100
  0
POLYLINE
  8
0
 66
1
 10
0.000000
 20
0.000000
 30
0.000000
 40
0.000000
 41
0.000000
 70
1
  0
VERTEX
  8
0
 10
0.000000
 20
0.000000
 30
0.000000
  0
VERTEX
  8
0
 10
0.000000
 20
0.000000
 30
0.000000
 42
0.414214
  0
VERTEX
  8
0
 10
0.000000
 20
0.000000
 30
0.000000
  0
VERTEX
  8
0
 10
0.000000
 20
0.000000
 30
0.000000
 42
0.414214
  0
VERTEX
  8
0
 10
0.000000
 20
0.000000
 30
0.000000
  0
VERTEX
  8
0
 10
0.000000
 20
0.000000
 30
0.000000
 42
0.414214
  0
VERTEX
  8
0
 10
0.000000
 20
0.000000
 30
0.000000
  0
VERTEX
  8
0
 10
0.000000
 20
0.000000
 30
0.000000
 42
0.414214
  0
SEQEND
  8
0
  0
SOLID
  8
0
 10
0.000000
 20
0.000000
 30
0.000000
 11
0.000000
 21
0.000000
 31
0.000000
 12
0.000000
 22
0.000000
 32
0.000000
 13
0.000000
 23
0.000000
 33
0.000000
  0
ENDBLK
  8
0
  0
ENDSEC
  0
SECTION
  2
ENTITIES
  0
POLYLINE
  8
20
 66
1
 10
0.000000
 20
0.000000
 30
0.000000
 40
0.000984
 41
0.000984
 70
0
  0
VERTEX
  8
20
 10
7.479865
 20
11.100000
 30
0.000000
  0
VERTEX
  8
20
 10
5.969397
 20
11.100000
 30
0.000000
  0
SEQEND
  8
0
  0
POLYLINE
  8
20
 66
1
 10
0.000000
 20
0.000000
 30
0.000000
 40
0.000492
 41
0.000492
 70
0
  0
VERTEX
  8
20
 10
5.969397
 20
11.100246
 30
0.000000
 42
1.000000
  0
VERTEX
  8
20
 10
5.969397
 20
11.099754
 30
0.000000
  0
SEQEND
  8
0
  0
POLYLINE
  8
20
 66
1
 10
0.000000
 20
0.000000
 30
0.000000
 40
0.000492
 41
0.000492
 70
0
  0
VERTEX
  8
20
 10
7.479865
 20
11.099754
 30
0.000000
 42
1.000000
  0
VERTEX
  8
20
 10
7.479865
 20
11.100246
 30
0.000000
  0
SEQEND
  8
0
  0
POLYLINE
  8
20
 66
1
 10
0.000000
 20
0.000000
 30
0.000000
 40
0.000984
 41
0.000984
 70
0
  0
VERTEX
  8
20
 10
5.969397
 20
11.210000
 30
0.000000
  0
VERTEX
  8
20
 10
5.969397
 20
11.100000
 30
0.000000
  0
SEQEND
  8
0
  0
POLYLINE
  8
20
 66
1
 10
0.000000
 20
0.000000
 30
0.000000
 40
0.000492
 41
0.000492
 70
0
  0
VERTEX
  8
20
 10
5.969151
 20
11.100000
 30
0.000000
 42
1.000000
  0
VERTEX
  8
20
 10
5.969643
 20
11.100000
 30
0.000000
  0
SEQEND
  8
0
  0
POLYLINE
  8
20
 66
1
 10
0.000000
 20
0.000000
 30
0.000000
 40
0.000492
 41
0.000492
 70
0
  0
VERTEX
  8
20
 10
5.969643
 20
11.210000
 30
0.000000
 42
1.000000
  0
VERTEX
  8
20
 10
5.969151
 20
11.210000
 30
0.000000
  0
SEQEND
  8
0
  0
LINE
  8
20
 10
5.969397
 20
11.210000
 30
0.000000
 11
0.000000
 21
11.210000
 31
0.000000
  0
LINE
  8
20
 10
0.000000
 20
11.210000
 30
0.000000
 11
0.000000
 21
10.440000
 31
0.000000
  0
LINE
  8
20
 10
0.000000
 20
0.780000
 30
0.000000
 11
0.000000
 21
0.000000
 31
0.000000
  0
LINE
  8
20
 10
0.000000
 20
0.000000
 30
0.000000
 11
11.210000
 21
0.000000
 31
0.000000
  0
LINE
  8
20
 10
11.210000
 20
0.000000
 30
0.000000
 11
11.210000
 21
11.210000
 31
0.000000
  0
LINE
  8
20
 10
11.210000
 20
11.210000
 30
0.000000
 11
8.840000
 21
11.210000
 31
0.000000
  0
LINE
  8
20
 10
8.847519
 20
11.210000
 30
0.000000
 11
7.479865
 21
11.212234
 31
0.000000
  0
POLYLINE
  8
20
 66
1
 10
0.000000
 20
0.000000
 30
0.000000
 40
0.000984
 41
0.000984
 70
0
  0
VERTEX
  8
20
 10
7.479865
 20
11.212234
 30
0.000000
  0
VERTEX
  8
20
 10
7.479865
 20
11.100000
 30
0.000000
  0
SEQEND
  8
0
  0
POLYLINE
  8
20
 66
1
 10
0.000000
 20
0.000000
 30
0.000000
 40
0.000492
 41
0.000492
 70
0
  0
VERTEX
  8
20
 10
7.479619
 20
11.100000
 30
0.000000
 42
1.000000
  0
VERTEX
  8
20
 10
7.480111
 20
11.100000
 30
0.000000
  0
SEQEND
  8
0
  0
POLYLINE
  8
20
 66
1
 10
0.000000
 20
0.000000
 30
0.000000
 40
0.000492
 41
0.000492
 70
0
  0
VERTEX
  8
20
 10
7.480111
 20
11.212234
 30
0.000000
 42
1.000000
  0
VERTEX
  8
20
 10
7.479619
 20
11.212234
 30
0.000000
  0
SEQEND
  8
0
  0
POLYLINE
  8
20
 66
1
 10
0.000000
 20
0.000000
 30
0.000000
 40
0.000984
 41
0.000984
 70
0
  0
VERTEX
  8
20
 10
3.608784
 20
11.012234
 30
0.000000
  0
VERTEX
  8
20
 10
3.258784
 20
11.012234
 30
0.000000
  0
SEQEND
  8
0
  0
POLYLINE
  8
20
 66
1
 10
0.000000
 20
0.000000
 30
0.000000
 40
0.000492
 41
0.000492
 70
0
  0
VERTEX
  8
20
 10
3.258784
 20
11.012480
 30
0.000000
 42
1.000000
  0
VERTEX
  8
20
 10
3.258784
 20
11.011988
 30
0.000000
  0
SEQEND
  8
0
  0
POLYLINE
  8
20
 66
1
 10
0.000000
 20
0.000000
 30
0.000000
 40
0.000492
 41
0.000492
 70
0
  0
VERTEX
  8
20
 10
3.608784
 20
11.011988
 30
0.000000
 42
1.000000
  0
VERTEX
  8
20
 10
3.608784
 20
11.012480
 30
0.000000
  0
SEQEND
  8
0
  0
POLYLINE
  8
20
 66
1
 10
0.000000
 20
0.000000
 30
0.000000
 40
0.000984
 41
0.000984
 70
0
  0
VERTEX
  8
20
 10
3.608784
 20
10.762234
 30
0.000000
  0
VERTEX
  8
20
 10
3.608784
 20
11.012234
 30
0.000000
  0
SEQEND
  8
0
  0
POLYLINE
  8
20
 66
1
 10
0.000000
 20
0.000000
 30
0.000000
 40
0.000492
 41
0.000492
 70
0
  0
VERTEX
  8
20
 10
3.609030
 20
11.012234
 30
0.000000
 42
1.000000
  0
VERTEX
  8
20
 10
3.608538
 20
11.012234
 30
0.000000
  0
SEQEND
  8
0
  0
POLYLINE
  8
20
 66
1
 10
0.000000
 20
0.000000
 30
0.000000
 40
0.000492
 41
0.000492
 70
0
  0
VERTEX
  8
20
 10
3.608538
 20
10.762234
 30
0.000000
 42
1.000000
  0
VERTEX
  8
20
 10
3.609030
 20
10.762234
 30
0.000000
  0
SEQEND
  8
0
  0
POLYLINE
  8
20
 66
1
 10
0.000000
 20
0.000000
 30
0.000000
 40
0.000984
 41
0.000984
 70
0
  0
VERTEX
  8
20
 10
3.258784
 20
10.762234
 30
0.000000
  0
VERTEX
  8
20
 10
3.608784
 20
10.762234
 30
0.000000
  0
SEQEND
  8
0
  0
POLYLINE
  8
20
 66
1
 10
0.000000
 20
0.000000
 30
0.000000
 40
0.000492
 41
0.000492
 70
0
  0
VERTEX
  8
20
 10
3.608784
 20
10.761988
 30
0.000000
 42
1.000000
  0
VERTEX
  8
20
 10
3.608784
 20
10.762480
 30
0.000000
  0
SEQEND
  8
0
  0
POLYLINE
  8
20
 66
1
 10
0.000000
 20
0.000000
 30
0.000000
 40
0.000492
 41
0.000492
 70
0
  0
VERTEX
  8
20
 10
3.258784
 20
10.762480
 30
0.000000
 42
1.000000
  0
VERTEX
  8
20
 10
3.258784
 20
10.761988
 30
0.000000
  0
SEQEND
  8
0
  0
POLYLINE
  8
20
 66
1
 10
0.000000
 20
0.000000
 30
0.000000
 40
0.000984
 41
0.000984
 70
0
  0
VERTEX
  8
20
 10
3.258784
 20
11.012234
 30
0.000000
  0
VERTEX
  8
20
 10
3.258784
 20
10.762234
 30
0.000000
  0
SEQEND
  8
0
  0
POLYLINE
  8
20
 66
1
 10
0.000000
 20
0.000000
 30
0.000000
 40
0.000492
 41
0.000492
 70
0
  0
VERTEX
  8
20
 10
3.258538
 20
10.762234
 30
0.000000
 42
1.000000
  0
VERTEX
  8
20
 10
3.259030
 20
10.762234
 30
0.000000
  0
SEQEND
  8
0
  0
POLYLINE
  8
20
 66
1
 10
0.000000
 20
0.000000
 30
0.000000
 40
0.000492
 41
0.000492
 70
0
  0
VERTEX
  8
20
 10
3.259030
 20
11.012234
 30
0.000000
 42
1.000000
  0
VERTEX
  8
20
 10
3.258538
 20
11.012234
 30
0.000000
  0
SEQEND
  8
0
  0
POLYLINE
  8
20
 66
1
 10
0.000000
 20
0.000000
 30
0.000000
 40
0.000984
 41
0.000984
 70
0
  0
VERTEX
  8
20
 10
3.608784
 20
9.462234
 30
0.000000
  0
VERTEX
  8
20
 10
3.258784
 20
9.462234
 30
0.000000
  0
SEQEND
  8
0
  0
POLYLINE
  8
20
 66
1
 10
0.000000
 20
0.000000
 30
0.000000
 40
0.000492
 41
0.000492
 70
0
  0
VERTEX
  8
20
 10
3.258784
 20
9.462480
 30
0.000000
 42
1.000000
  0
VERTEX
  8
20
 10
3.258784
 20
9.461988
 30
0.000000
  0
SEQEND
  8
0
  0
POLYLINE
  8
20
 66
1
 10
0.000000
 20
0.000000
 30
0.000000
 40
0.000492
 41
0.000492
 70
0
  0
VERTEX
  8
20
 10
3.608784
 20
9.461988
 30
0.000000
 42
1.000000
  0
VERTEX
  8
20
 10
3.608784
 20
9.462480
 30
0.000000
  0
SEQEND
  8
0
  0
POLYLINE
  8
20
 66
1
 10
0.000000
 20
0.000000
 30
0.000000
 40
0.000984
 41
0.000984
 70
0
  0
VERTEX
  8
20
 10
3.608784
 20
9.212234
 30
0.000000
  0
VERTEX
  8
20
 10
3.608784
 20
9.462234
 30
0.000000
  0
SEQEND
  8
0
  0
POLYLINE
  8
20
 66
1
 10
0.000000
 20
0.000000
 30
0.000000
 40
0.000492
 41
0.000492
 70
0
  0
VERTEX
  8
20
 10
3.609030
 20
9.462234
 30
0.000000
 42
1.000000
  0
VERTEX
  8
20
 10
3.608538
 20
9.462234
 30
0.000000
  0
SEQEND
  8
0
  0
POLYLINE
  8
20
 66
1
 10
0.000000
 20
0.000000
 30
0.000000
 40
0.000492
 41
0.000492
 70
0
  0
VERTEX
  8
20
 10
3.608538
 20
9.212234
 30
0.000000
 42
1.000000
  0
VERTEX
  8
20
 10
3.609030
 20
9.212234
 30
0.000000
  0
SEQEND
  8
0
  0
POLYLINE
  8
20
 66
1
 10
0.000000
 20
0.000000
 30
0.000000
 40
0.000984
 41
0.000984
 70
0
  0
VERTEX
  8
20
 10
3.258784
 20
9.212234
 30
0.000000
  0
VERTEX
  8
20
 10
3.608784
 20
9.212234
 30
0.000000
  0
SEQEND
  8
0
  0
POLYLINE
  8
20
 66
1
 10
0.000000
 20
0.000000
 30
0.000000
 40
0.000492
 41
0.000492
 70
0
  0
VERTEX
  8
20
 10
3.608784
 20
9.211988
 30
0.000000
 42
1.000000
  0
VERTEX
  8
20
 10
3.608784
 20
9.212480
 30
0.000000
  0
SEQEND
  8
0
  0
POLYLINE
  8
20
 66
1
 10
0.000000
 20
0.000000
 30
0.000000
 40
0.000492
 41
0.000492
 70
0
  0
VERTEX
  8
20
 10
3.258784
 20
9.212480
 30
0.000000
 42
1.000000
  0
VERTEX
  8
20
 10
3.258784
 20
9.211988
 30
0.000000
  0
SEQEND
  8
0
  0
POLYLINE
  8
20
 66
1
 10
0.000000
 20
0.000000
 30
0.000000
 40
0.000984
 41
0.000984
 70
0
  0
VERTEX
  8
20
 10
3.258784
 20
9.462234
 30
0.000000
  0
VERTEX
  8
20
 10
3.258784
 20
9.212234
 30
0.000000
  0
SEQEND
  8
0
  0
POLYLINE
  8
20
 66
1
 10
0.000000
 20
0.000000
 30
0.000000
 40
0.000492
 41
0.000492
 70
0
  0
VERTEX
  8
20
 10
3.258538
 20
9.212234
 30
0.000000
 42
1.000000
  0
VERTEX
  8
20
 10
3.259030
 20
9.212234
 30
0.000000
  0
SEQEND
  8
0
  0
POLYLINE
  8
20
 66
1
 10
0.000000
 20
0.000000
 30
0.000000
 40
0.000492
 41
0.000492
 70
0
  0
VERTEX
  8
20
 10
3.259030
 20
9.462234
 30
0.000000
 42
1.000000
  0
VERTEX
  8
20
 10
3.258538
 20
9.462234
 30
0.000000
  0
SEQEND
  8
0
  0
POLYLINE
  8
20
 66
1
 10
0.000000
 20
0.000000
 30
0.000000
 40
0.000984
 41
0.000984
 70
0
  0
VERTEX
  8
20
 10
7.958784
 20
9.462234
 30
0.000000
  0
VERTEX
  8
20
 10
7.608784
 20
9.462234
 30
0.000000
  0
SEQEND
  8
0
  0
POLYLINE
  8
20
 66
1
 10
0.000000
 20
0.000000
 30
0.000000
 40
0.000492
 41
0.000492
 70
0
  0
VERTEX
  8
20
 10
7.608784
 20
9.462480
 30
0.000000
 42
1.000000
  0
VERTEX
  8
20
 10
7.608784
 20
9.461988
 30
0.000000
  0
SEQEND
  8
0
  0
POLYLINE
  8
20
 66
1
 10
0.000000
 20
0.000000
 30
0.000000
 40
0.000492
 41
0.000492
 70
0
  0
VERTEX
  8
20
 10
7.958784
 20
9.461988
 30
0.000000
 42
1.000000
  0
VERTEX
  8
20
 10
7.958784
 20
9.462480
 30
0.000000
  0
SEQEND
  8
0
  0
POLYLINE
  8
20
 66
1
 10
0.000000
 20
0.000000
 30
0.000000
 40
0.000984
 41
0.000984
 70
0
  0
VERTEX
  8
20
 10
7.958784
 20
9.212234
 30
0.000000
  0
VERTEX
  8
20
 10
7.958784
 20
9.462234
 30
0.000000
  0
SEQEND
  8
0
  0
POLYLINE
  8
20
 66
1
 10
0.000000
 20
0.000000
 30
0.000000
 40
0.000492
 41
0.000492
 70
0
  0
VERTEX
  8
20
 10
7.959030
 20
9.462234
 30
0.000000
 42
1.000000
  0
VERTEX
  8
20
 10
7.958538
 20
9.462234
 30
0.000000
  0
SEQEND
  8
0
  0
POLYLINE
  8
20
 66
1
 10
0.000000
 20
0.000000
 30
0.000000
 40
0.000492
 41
0.000492
 70
0
  0
VERTEX
  8
20
 10
7.958538
 20
9.212234
 30
0.000000
 42
1.000000
  0
VERTEX
  8
20
 10
7.959030
 20
9.212234
 30
0.000000
  0
SEQEND
  8
0
  0
POLYLINE
  8
20
 66
1
 10
0.000000
 20
0.000000
 30
0.000000
 40
0.000984
 41
0.000984
 70
0
  0
VERTEX
  8
20
 10
7.608784
 20
9.212234
 30
0.000000
  0
VERTEX
  8
20
 10
7.958784
 20
9.212234
 30
0.000000
  0
SEQEND
  8
0
  0
POLYLINE
  8
20
 66
1
 10
0.000000
 20
0.000000
 30
0.000000
 40
0.000492
 41
0.000492
 70
0
  0
VERTEX
  8
20
 10
7.958784
 20
9.211988
 30
0.000000
 42
1.000000
  0
VERTEX
  8
20
 10
7.958784
 20
9.212480
 30
0.000000
  0
SEQEND
  8
0
  0
POLYLINE
  8
20
 66
1
 10
0.000000
 20
0.000000
 30
0.000000
 40
0.000492
 41
0.000492
 70
0
  0
VERTEX
  8
20
 10
7.608784
 20
9.212480
 30
0.000000
 42
1.000000
  0
VERTEX
  8
20
 10
7.608784
 20
9.211988
 30
0.000000
  0
SEQEND
  8
0
  0
POLYLINE
  8
20
 66
1
 10
0.000000
 20
0.000000
 30
0.000000
 40
0.000984
 41
0.000984
 70
0
  0
VERTEX
  8
20
 10
7.608784
 20
9.462234
 30
0.000000
  0
VERTEX
  8
20
 10
7.608784
 20
9.212234
 30
0.000000
  0
SEQEND
  8
0
  0
POLYLINE
  8
20
 66
1
 10
0.000000
 20
0.000000
 30
0.000000
 40
0.000492
 41
0.000492
 70
0
  0
VERTEX
  8
20
 10
7.608538
 20
9.212234
 30
0.000000
 42
1.000000
  0
VERTEX
  8
20
 10
7.609030
 20
9.212234
 30
0.000000
  0
SEQEND
  8
0
  0
POLYLINE
  8
20
 66
1
 10
0.000000
 20
0.000000
 30
0.000000
 40
0.000492
 41
0.000492
 70
0
  0
VERTEX
  8
20
 10
7.609030
 20
9.462234
 30
0.000000
 42
1.000000
  0
VERTEX
  8
20
 10
7.608538
 20
9.462234
 30
0.000000
  0
SEQEND
  8
0
  0
POLYLINE
  8
20
 66
1
 10
0.000000
 20
0.000000
 30
0.000000
 40
0.000984
 41
0.000984
 70
0
  0
VERTEX
  8
20
 10
7.608784
 20
10.762234
 30
0.000000
  0
VERTEX
  8
20
 10
7.958784
 20
10.762234
 30
0.000000
  0
SEQEND
  8
0
  0
POLYLINE
  8
20
 66
1
 10
0.000000
 20
0.000000
 30
0.000000
 40
0.000492
 41
0.000492
 70
0
  0
VERTEX
  8
20
 10
7.958784
 20
10.761988
 30
0.000000
 42
1.000000
  0
VERTEX
  8
20
 10
7.958784
 20
10.762480
 30
0.000000
  0
SEQEND
  8
0
  0
POLYLINE
  8
20
 66
1
 10
0.000000
 20
0.000000
 30
0.000000
 40
0.000492
 41
0.000492
 70
0
  0
VERTEX
  8
20
 10
7.608784
 20
10.762480
 30
0.000000
 42
1.000000
  0
VERTEX
  8
20
 10
7.608784
 20
10.761988
 30
0.000000
  0
SEQEND
  8
0
  0
POLYLINE
  8
20
 66
1
 10
0.000000
 20
0.000000
 30
0.000000
 40
0.000984
 41
0.000984
 70
0
  0
VERTEX
  8
20
 10
7.608784
 20
11.012234
 30
0.000000
  0
VERTEX
  8
20
 10
7.608784
 20
10.762234
 30
0.000000
  0
SEQEND
  8
0
  0
POLYLINE
  8
20
 66
1
 10
0.000000
 20
0.000000
 30
0.000000
 40
0.000492
 41
0.000492
 70
0
  0
VERTEX
  8
20
 10
7.608538
 20
10.762234
 30
0.000000
 42
1.000000
  0
VERTEX
  8
20
 10
7.609030
 20
10.762234
 30
0.000000
  0
SEQEND
  8
0
  0
POLYLINE
  8
20
 66
1
 10
0.000000
 20
0.000000
 30
0.000000
 40
0.000492
 41
0.000492
 70
0
  0
VERTEX
  8
20
 10
7.609030
 20
11.012234
 30
0.000000
 42
1.000000
  0
VERTEX
  8
20
 10
7.608538
 20
11.012234
 30
0.000000
  0
SEQEND
  8
0
  0
POLYLINE
  8
20
 66
1
 10
0.000000
 20
0.000000
 30
0.000000
 40
0.000984
 41
0.000984
 70
0
  0
VERTEX
  8
20
 10
7.608784
 20
11.012234
 30
0.000000
  0
VERTEX
  8
20
 10
7.958784
 20
11.012234
 30
0.000000
  0
SEQEND
  8
0
  0
POLYLINE
  8
20
 66
1
 10
0.000000
 20
0.000000
 30
0.000000
 40
0.000492
 41
0.000492
 70
0
  0
VERTEX
  8
20
 10
7.958784
 20
11.011988
 30
0.000000
 42
1.000000
  0
VERTEX
  8
20
 10
7.958784
 20
11.012480
 30
0.000000
  0
SEQEND
  8
0
  0
POLYLINE
  8
20
 66
1
 10
0.000000
 20
0.000000
 30
0.000000
 40
0.000492
 41
0.000492
 70
0
  0
VERTEX
  8
20
 10
7.608784
 20
11.012480
 30
0.000000
 42
1.000000
  0
VERTEX
  8
20
 10
7.608784
 20
11.011988
 30
0.000000
  0
SEQEND
  8
0
  0
POLYLINE
  8
20
 66
1
 10
0.000000
 20
0.000000
 30
0.000000
 40
0.000984
 41
0.000984
 70
0
  0
VERTEX
  8
20
 10
7.958784
 20
11.012234
 30
0.000000
  0
VERTEX
  8
20
 10
7.958784
 20
10.762234
 30
0.000000
  0
SEQEND
  8
0
  0
POLYLINE
  8
20
 66
1
 10
0.000000
 20
0.000000
 30
0.000000
 40
0.000492
 41
0.000492
 70
0
  0
VERTEX
  8
20
 10
7.958538
 20
10.762234
 30
0.000000
 42
1.000000
  0
VERTEX
  8
20
 10
7.959030
 20
10.762234
 30
0.000000
  0
SEQEND
  8
0
  0
POLYLINE
  8
20
 66
1
 10
0.000000
 20
0.000000
 30
0.000000
 40
0.000492
 41
0.000492
 70
0
  0
VERTEX
  8
20
 10
7.959030
 20
11.012234
 30
0.000000
 42
1.000000
  0
VERTEX
  8
20
 10
7.958538
 20
11.012234
 30
0.000000
  0
SEQEND
  8
0
  0
POLYLINE
  8
20
 66
1
 10
0.000000
 20
0.000000
 30
0.000000
 40
0.000984
 41
0.000984
 70
0
  0
VERTEX
  8
20
 10
7.958784
 20
0.450026
 30
0.000000
  0
VERTEX
  8
20
 10
7.958784
 20
0.200026
 30
0.000000
  0
SEQEND
  8
0
  0
POLYLINE
  8
20
 66
1
 10
0.000000
 20
0.000000
 30
0.000000
 40
0.000492
 41
0.000492
 70
0
  0
VERTEX
  8
20
 10
7.958538
 20
0.200026
 30
0.000000
 42
1.000000
  0
VERTEX
  8
20
 10
7.959030
 20
0.200026
 30
0.000000
  0
SEQEND
  8
0
  0
POLYLINE
  8
20
 66
1
 10
0.000000
 20
0.000000
 30
0.000000
 40
0.000492
 41
0.000492
 70
0
  0
VERTEX
  8
20
 10
7.959030
 20
0.450026
 30
0.000000
 42
1.000000
  0
VERTEX
  8
20
 10
7.958538
 20
0.450026
 30
0.000000
  0
SEQEND
  8
0
  0
POLYLINE
  8
20
 66
1
 10
0.000000
 20
0.000000
 30
0.000000
 40
0.000984
 41
0.000984
 70
0
  0
VERTEX
  8
20
 10
7.958784
 20
0.200026
 30
0.000000
  0
VERTEX
  8
20
 10
7.608784
 20
0.200026
 30
0.000000
  0
SEQEND
  8
0
  0
POLYLINE
  8
20
 66
1
 10
0.000000
 20
0.000000
 30
0.000000
 40
0.000492
 41
0.000492
 70
0
  0
VERTEX
  8
20
 10
7.608784
 20
0.200272
 30
0.000000
 42
1.000000
  0
VERTEX
  8
20
 10
7.608784
 20
0.199780
 30
0.000000
  0
SEQEND
  8
0
  0
POLYLINE
  8
20
 66
1
 10
0.000000
 20
0.000000
 30
0.000000
 40
0.000492
 41
0.000492
 70
0
  0
VERTEX
  8
20
 10
7.958784
 20
0.199780
 30
0.000000
 42
1.000000
  0
VERTEX
  8
20
 10
7.958784
 20
0.200272
 30
0.000000
  0
SEQEND
  8
0
  0
POLYLINE
  8
20
 66
1
 10
0.000000
 20
0.000000
 30
0.000000
 40
0.000984
 41
0.000984
 70
0
  0
VERTEX
  8
20
 10
7.608784
 20
0.200026
 30
0.000000
  0
VERTEX
  8
20
 10
7.608784
 20
0.450026
 30
0.000000
  0
SEQEND
  8
0
  0
POLYLINE
  8
20
 66
1
 10
0.000000
 20
0.000000
 30
0.000000
 40
0.000492
 41
0.000492
 70
0
  0
VERTEX
  8
20
 10
7.609030
 20
0.450026
 30
0.000000
 42
1.000000
  0
VERTEX
  8
20
 10
7.608538
 20
0.450026
 30
0.000000
  0
SEQEND
  8
0
  0
POLYLINE
  8
20
 66
1
 10
0.000000
 20
0.000000
 30
0.000000
 40
0.000492
 41
0.000492
 70
0
  0
VERTEX
  8
20
 10
7.608538
 20
0.200026
 30
0.000000
 42
1.000000
  0
VERTEX
  8
20
 10
7.609030
 20
0.200026
 30
0.000000
  0
SEQEND
  8
0
  0
POLYLINE
  8
20
 66
1
 10
0.000000
 20
0.000000
 30
0.000000
 40
0.000984
 41
0.000984
 70
0
  0
VERTEX
  8
20
 10
7.608784
 20
0.450026
 30
0.000000
  0
VERTEX
  8
20
 10
7.958784
 20
0.450026
 30
0.000000
  0
SEQEND
  8
0
  0
POLYLINE
  8
20
 66
1
 10
0.000000
 20
0.000000
 30
0.000000
 40
0.000492
 41
0.000492
 70
0
  0
VERTEX
  8
20
 10
7.958784
 20
0.449780
 30
0.000000
 42
1.000000
  0
VERTEX
  8
20
 10
7.958784
 20
0.450272
 30
0.000000
  0
SEQEND
  8
0
  0
POLYLINE
  8
20
 66
1
 10
0.000000
 20
0.000000
 30
0.000000
 40
0.000492
 41
0.000492
 70
0
  0
VERTEX
  8
20
 10
7.608784
 20
0.450272
 30
0.000000
 42
1.000000
  0
VERTEX
  8
20
 10
7.608784
 20
0.449780
 30
0.000000
  0
SEQEND
  8
0
  0
POLYLINE
  8
20
 66
1
 10
0.000000
 20
0.000000
 30
0.000000
 40
0.000984
 41
0.000984
 70
0
  0
VERTEX
  8
20
 10
7.958784
 20
2.000026
 30
0.000000
  0
VERTEX
  8
20
 10
7.958784
 20
1.750026
 30
0.000000
  0
SEQEND
  8
0
  0
POLYLINE
  8
20
 66
1
 10
0.000000
 20
0.000000
 30
0.000000
 40
0.000492
 41
0.000492
 70
0
  0
VERTEX
  8
20
 10
7.958538
 20
1.750026
 30
0.000000
 42
1.000000
  0
VERTEX
  8
20
 10
7.959030
 20
1.750026
 30
0.000000
  0
SEQEND
  8
0
  0
POLYLINE
  8
20
 66
1
 10
0.000000
 20
0.000000
 30
0.000000
 40
0.000492
 41
0.000492
 70
0
  0
VERTEX
  8
20
 10
7.959030
 20
2.000026
 30
0.000000
 42
1.000000
  0
VERTEX
  8
20
 10
7.958538
 20
2.000026
 30
0.000000
  0
SEQEND
  8
0
  0
POLYLINE
  8
20
 66
1
 10
0.000000
 20
0.000000
 30
0.000000
 40
0.000984
 41
0.000984
 70
0
  0
VERTEX
  8
20
 10
7.958784
 20
1.750026
 30
0.000000
  0
VERTEX
  8
20
 10
7.608784
 20
1.750026
 30
0.000000
  0
SEQEND
  8
0
  0
POLYLINE
  8
20
 66
1
 10
0.000000
 20
0.000000
 30
0.000000
 40
0.000492
 41
0.000492
 70
0
  0
VERTEX
  8
20
 10
7.608784
 20
1.750272
 30
0.000000
 42
1.000000
  0
VERTEX
  8
20
 10
7.608784
 20
1.749780
 30
0.000000
  0
SEQEND
  8
0
  0
POLYLINE
  8
20
 66
1
 10
0.000000
 20
0.000000
 30
0.000000
 40
0.000492
 41
0.000492
 70
0
  0
VERTEX
  8
20
 10
7.958784
 20
1.749780
 30
0.000000
 42
1.000000
  0
VERTEX
  8
20
 10
7.958784
 20
1.750272
 30
0.000000
  0
SEQEND
  8
0
  0
POLYLINE
  8
20
 66
1
 10
0.000000
 20
0.000000
 30
0.000000
 40
0.000984
 41
0.000984
 70
0
  0
VERTEX
  8
20
 10
7.608784
 20
1.750026
 30
0.000000
  0
VERTEX
  8
20
 10
7.608784
 20
2.000026
 30
0.000000
  0
SEQEND
  8
0
  0
POLYLINE
  8
20
 66
1
 10
0.000000
 20
0.000000
 30
0.000000
 40
0.000492
 41
0.000492
 70
0
  0
VERTEX
  8
20
 10
7.609030
 20
2.000026
 30
0.000000
 42
1.000000
  0
VERTEX
  8
20
 10
7.608538
 20
2.000026
 30
0.000000
  0
SEQEND
  8
0
  0
POLYLINE
  8
20
 66
1
 10
0.000000
 20
0.000000
 30
0.000000
 40
0.000492
 41
0.000492
 70
0
  0
VERTEX
  8
20
 10
7.608538
 20
1.750026
 30
0.000000
 42
1.000000
  0
VERTEX
  8
20
 10
7.609030
 20
1.750026
 30
0.000000
  0
SEQEND
  8
0
  0
POLYLINE
  8
20
 66
1
 10
0.000000
 20
0.000000
 30
0.000000
 40
0.000984
 41
0.000984
 70
0
  0
VERTEX
  8
20
 10
7.608784
 20
2.000026
 30
0.000000
  0
VERTEX
  8
20
 10
7.958784
 20
2.000026
 30
0.000000
  0
SEQEND
  8
0
  0
POLYLINE
  8
20
 66
1
 10
0.000000
 20
0.000000
 30
0.000000
 40
0.000492
 41
0.000492
 70
0
  0
VERTEX
  8
20
 10
7.958784
 20
1.999780
 30
0.000000
 42
1.000000
  0
VERTEX
  8
20
 10
7.958784
 20
2.000272
 30
0.000000
  0
SEQEND
  8
0
  0
POLYLINE
  8
20
 66
1
 10
0.000000
 20
0.000000
 30
0.000000
 40
0.000492
 41
0.000492
 70
0
  0
VERTEX
  8
20
 10
7.608784
 20
2.000272
 30
0.000000
 42
1.000000
  0
VERTEX
  8
20
 10
7.608784
 20
1.999780
 30
0.000000
  0
SEQEND
  8
0
  0
POLYLINE
  8
20
 66
1
 10
0.000000
 20
0.000000
 30
0.000000
 40
0.000984
 41
0.000984
 70
0
  0
VERTEX
  8
20
 10
3.608784
 20
0.450026
 30
0.000000
  0
VERTEX
  8
20
 10
3.608784
 20
0.200026
 30
0.000000
  0
SEQEND
  8
0
  0
POLYLINE
  8
20
 66
1
 10
0.000000
 20
0.000000
 30
0.000000
 40
0.000492
 41
0.000492
 70
0
  0
VERTEX
  8
20
 10
3.608538
 20
0.200026
 30
0.000000
 42
1.000000
  0
VERTEX
  8
20
 10
3.609030
 20
0.200026
 30
0.000000
  0
SEQEND
  8
0
  0
POLYLINE
  8
20
 66
1
 10
0.000000
 20
0.000000
 30
0.000000
 40
0.000492
 41
0.000492
 70
0
  0
VERTEX
  8
20
 10
3.609030
 20
0.450026
 30
0.000000
 42
1.000000
  0
VERTEX
  8
20
 10
3.608538
 20
0.450026
 30
0.000000
  0
SEQEND
  8
0
  0
POLYLINE
  8
20
 66
1
 10
0.000000
 20
0.000000
 30
0.000000
 40
0.000984
 41
0.000984
 70
0
  0
VERTEX
  8
20
 10
3.608784
 20
0.200026
 30
0.000000
  0
VERTEX
  8
20
 10
3.258784
 20
0.200026
 30
0.000000
  0
SEQEND
  8
0
  0
POLYLINE
  8
20
 66
1
 10
0.000000
 20
0.000000
 30
0.000000
 40
0.000492
 41
0.000492
 70
0
  0
VERTEX
  8
20
 10
3.258784
 20
0.200272
 30
0.000000
 42
1.000000
  0
VERTEX
  8
20
 10
3.258784
 20
0.199780
 30
0.000000
  0
SEQEND
  8
0
  0
POLYLINE
  8
20
 66
1
 10
0.000000
 20
0.000000
 30
0.000000
 40
0.000492
 41
0.000492
 70
0
  0
VERTEX
  8
20
 10
3.608784
 20
0.199780
 30
0.000000
 42
1.000000
  0
VERTEX
  8
20
 10
3.608784
 20
0.200272
 30
0.000000
  0
SEQEND
  8
0
  0
POLYLINE
  8
20
 66
1
 10
0.000000
 20
0.000000
 30
0.000000
 40
0.000984
 41
0.000984
 70
0
  0
VERTEX
  8
20
 10
3.258784
 20
0.200026
 30
0.000000
  0
VERTEX
  8
20
 10
3.258784
 20
0.450026
 30
0.000000
  0
SEQEND
  8
0
  0
POLYLINE
  8
20
 66
1
 10
0.000000
 20
0.000000
 30
0.000000
 40
0.000492
 41
0.000492
 70
0
  0
VERTEX
  8
20
 10
3.259030
 20
0.450026
 30
0.000000
 42
1.000000
  0
VERTEX
  8
20
 10
3.258538
 20
0.450026
 30
0.000000
  0
SEQEND
  8
0
  0
POLYLINE
  8
20
 66
1
 10
0.000000
 20
0.000000
 30
0.000000
 40
0.000492
 41
0.000492
 70
0
  0
VERTEX
  8
20
 10
3.258538
 20
0.200026
 30
0.000000
 42
1.000000
  0
VERTEX
  8
20
 10
3.259030
 20
0.200026
 30
0.000000
  0
SEQEND
  8
0
  0
POLYLINE
  8
20
 66
1
 10
0.000000
 20
0.000000
 30
0.000000
 40
0.000984
 41
0.000984
 70
0
  0
VERTEX
  8
20
 10
3.258784
 20
0.450026
 30
0.000000
  0
VERTEX
  8
20
 10
3.608784
 20
0.450026
 30
0.000000
  0
SEQEND
  8
0
  0
POLYLINE
  8
20
 66
1
 10
0.000000
 20
0.000000
 30
0.000000
 40
0.000492
 41
0.000492
 70
0
  0
VERTEX
  8
20
 10
3.608784
 20
0.449780
 30
0.000000
 42
1.000000
  0
VERTEX
  8
20
 10
3.608784
 20
0.450272
 30
0.000000
  0
SEQEND
  8
0
  0
POLYLINE
  8
20
 66
1
 10
0.000000
 20
0.000000
 30
0.000000
 40
0.000492
 41
0.000492
 70
0
  0
VERTEX
  8
20
 10
3.258784
 20
0.450272
 30
0.000000
 42
1.000000
  0
VERTEX
  8
20
 10
3.258784
 20
0.449780
 30
0.000000
  0
SEQEND
  8
0
  0
POLYLINE
  8
20
 66
1
 10
0.000000
 20
0.000000
 30
0.000000
 40
0.000984
 41
0.000984
 70
0
  0
VERTEX
  8
20
 10
3.608784
 20
2.000026
 30
0.000000
  0
VERTEX
  8
20
 10
3.608784
 20
1.750026
 30
0.000000
  0
SEQEND
  8
0
  0
POLYLINE
  8
20
 66
1
 10
0.000000
 20
0.000000
 30
0.000000
 40
0.000492
 41
0.000492
 70
0
  0
VERTEX
  8
20
 10
3.608538
 20
1.750026
 30
0.000000
 42
1.000000
  0
VERTEX
  8
20
 10
3.609030
 20
1.750026
 30
0.000000
  0
SEQEND
  8
0
  0
POLYLINE
  8
20
 66
1
 10
0.000000
 20
0.000000
 30
0.000000
 40
0.000492
 41
0.000492
 70
0
  0
VERTEX
  8
20
 10
3.609030
 20
2.000026
 30
0.000000
 42
1.000000
  0
VERTEX
  8
20
 10
3.608538
 20
2.000026
 30
0.000000
  0
SEQEND
  8
0
  0
POLYLINE
  8
20
 66
1
 10
0.000000
 20
0.000000
 30
0.000000
 40
0.000984
 41
0.000984
 70
0
  0
VERTEX
  8
20
 10
3.608784
 20
1.750026
 30
0.000000
  0
VERTEX
  8
20
 10
3.258784
 20
1.750026
 30
0.000000
  0
SEQEND
  8
0
  0
POLYLINE
  8
20
 66
1
 10
0.000000
 20
0.000000
 30
0.000000
 40
0.000492
 41
0.000492
 70
0
  0
VERTEX
  8
20
 10
3.258784
 20
1.750272
 30
0.000000
 42
1.000000
  0
VERTEX
  8
20
 10
3.258784
 20
1.749780
 30
0.000000
  0
SEQEND
  8
0
  0
POLYLINE
  8
20
 66
1
 10
0.000000
 20
0.000000
 30
0.000000
 40
0.000492
 41
0.000492
 70
0
  0
VERTEX
  8
20
 10
3.608784
 20
1.749780
 30
0.000000
 42
1.000000
  0
VERTEX
  8
20
 10
3.608784
 20
1.750272
 30
0.000000
  0
SEQEND
  8
0
  0
POLYLINE
  8
20
 66
1
 10
0.000000
 20
0.000000
 30
0.000000
 40
0.000984
 41
0.000984
 70
0
  0
VERTEX
  8
20
 10
3.258784
 20
1.750026
 30
0.000000
  0
VERTEX
  8
20
 10
3.258784
 20
2.000026
 30
0.000000
  0
SEQEND
  8
0
  0
POLYLINE
  8
20
 66
1
 10
0.000000
 20
0.000000
 30
0.000000
 40
0.000492
 41
0.000492
 70
0
  0
VERTEX
  8
20
 10
3.259030
 20
2.000026
 30
0.000000
 42
1.000000
  0
VERTEX
  8
20
 10
3.258538
 20
2.000026
 30
0.000000
  0
SEQEND
  8
0
  0
POLYLINE
  8
20
 66
1
 10
0.000000
 20
0.000000
 30
0.000000
 40
0.000492
 41
0.000492
 70
0
  0
VERTEX
  8
20
 10
3.258538
 20
1.750026
 30
0.000000
 42
1.000000
  0
VERTEX
  8
20
 10
3.259030
 20
1.750026
 30
0.000000
  0
SEQEND
  8
0
  0
POLYLINE
  8
20
 66
1
 10
0.000000
 20
0.000000
 30
0.000000
 40
0.000984
 41
0.000984
 70
0
  0
VERTEX
  8
20
 10
3.258784
 20
2.000026
 30
0.000000
  0
VERTEX
  8
20
 10
3.608784
 20
2.000026
 30
0.000000
  0
SEQEND
  8
0
  0
POLYLINE
  8
20
 66
1
 10
0.000000
 20
0.000000
 30
0.000000
 40
0.000492
 41
0.000492
 70
0
  0
VERTEX
  8
20
 10
3.608784
 20
1.999780
 30
0.000000
 42
1.000000
  0
VERTEX
  8
20
 10
3.608784
 20
2.000272
 30
0.000000
  0
SEQEND
  8
0
  0
POLYLINE
  8
20
 66
1
 10
0.000000
 20
0.000000
 30
0.000000
 40
0.000492
 41
0.000492
 70
0
  0
VERTEX
  8
20
 10
3.258784
 20
2.000272
 30
0.000000
 42
1.000000
  0
VERTEX
  8
20
 10
3.258784
 20
1.999780
 30
0.000000
  0
SEQEND
  8
0
  0
LINE
  8
20
 10
0.000000
 20
10.440000
 30
0.000000
 11
0.380000
 21
10.060000
 31
0.000000
  0
LINE
  8
20
 10
0.380000
 20
10.060000
 30
0.000000
 11
0.380000
 21
1.160000
 31
0.000000
  0
LINE
  8
20
 10
0.380000
 20
1.160000
 30
0.000000
 11
0.000000
 21
0.780000
 31
0.000000
  0
LINE
  8
20
 10
9.330000
 20
9.970000
 30
0.000000
 11
9.330000
 21
9.170000
 31
0.000000
  0
LINE
  8
20
 10
9.330000
 20
9.170000
 30
0.000000
 11
10.030000
 21
9.170000
 31
0.000000
  0
LINE
  8
20
 10
10.030000
 20
9.170000
 30
0.000000
 11
10.030000
 21
9.740000
 31
0.000000
  0
LINE
  8
20
 10
10.670000
 20
9.970000
 30
0.000000
 11
9.330000
 21
9.970000
 31
0.000000
  0
LINE
  8
20
 10
10.030000
 20
9.740000
 30
0.000000
 11
10.670000
 21
9.740000
 31
0.000000
  0
LINE
  8
20
 10
10.670000
 20
9.740000
 30
0.000000
 11
10.670000
 21
9.970000
 31
0.000000
  0
POLYLINE
  8
20
 66
1
 10
0.000000
 20
0.000000
 30
0.000000
 40
0.000984
 41
0.000984
 70
0
  0
VERTEX
  8
20
 10
10.814770
 20
0.126552
 30
0.000000
 42
1.000000
  0
VERTEX
  8
20
 10
10.814770
 20
0.826541
 30
0.000000
 42
1.000000
  0
VERTEX
  8
20
 10
10.814770
 20
0.126552
 30
0.000000
  0
SEQEND
  8
0
  0
POLYLINE
  8
20
 66
1
 10
0.000000
 20
0.000000
 30
0.000000
 40
0.000984
 41
0.000984
 70
0
  0
VERTEX
  8
20
 10
0.550131
 20
0.126552
 30
0.000000
 42
1.000000
  0
VERTEX
  8
20
 10
0.550131
 20
0.826541
 30
0.000000
 42
1.000000
  0
VERTEX
  8
20
 10
0.550131
 20
0.126552
 30
0.000000
  0
SEQEND
  8
0
  0
POLYLINE
  8
20
 66
1
 10
0.000000
 20
0.000000
 30
0.000000
 40
0.000984
 41
0.000984
 70
0
  0
VERTEX
  8
20
 10
4.714480
 20
9.232159
 30
0.000000
 42
1.000000
  0
VERTEX
  8
20
 10
4.714480
 20
9.326600
 30
0.000000
 42
1.000000
  0
VERTEX
  8
20
 10
4.714480
 20
9.232159
 30
0.000000
  0
SEQEND
  8
0
  0
POLYLINE
  8
20
 66
1
 10
0.000000
 20
0.000000
 30
0.000000
 40
0.000984
 41
0.000984
 70
0
  0
VERTEX
  8
20
 10
3.769981
 20
10.176569
 30
0.000000
 42
1.000000
  0
VERTEX
  8
20
 10
3.769981
 20
10.271009
 30
0.000000
 42
1.000000
  0
VERTEX
  8
20
 10
3.769981
 20
10.176569
 30
0.000000
  0
SEQEND
  8
0
  0
POLYLINE
  8
20
 66
1
 10
0.000000
 20
0.000000
 30
0.000000
 40
0.000984
 41
0.000984
 70
0
  0
VERTEX
  8
20
 10
2.312910
 20
2.627230
 30
0.000000
 42
1.000000
  0
VERTEX
  8
20
 10
2.312910
 20
2.721671
 30
0.000000
 42
1.000000
  0
VERTEX
  8
20
 10
2.312910
 20
2.627230
 30
0.000000
  0
SEQEND
  8
0
  0
POLYLINE
  8
20
 66
1
 10
0.000000
 20
0.000000
 30
0.000000
 40
0.000984
 41
0.000984
 70
0
  0
VERTEX
  8
20
 10
1.368500
 20
1.682730
 30
0.000000
 42
1.000000
  0
VERTEX
  8
20
 10
1.368500
 20
1.777171
 30
0.000000
 42
1.000000
  0
VERTEX
  8
20
 10
1.368500
 20
1.682730
 30
0.000000
  0
SEQEND
  8
0
  0
POLYLINE
  8
20
 66
1
 10
0.000000
 20
0.000000
 30
0.000000
 40
0.000984
 41
0.000984
 70
0
  0
VERTEX
  8
20
 10
1.880000
 20
6.210000
 30
0.000000
 42
1.000000
  0
VERTEX
  8
20
 10
1.880000
 20
7.210000
 30
0.000000
 42
1.000000
  0
VERTEX
  8
20
 10
1.880000
 20
6.210000
 30
0.000000
  0
SEQEND
  8
0
  0
POLYLINE
  8
20
 66
1
 10
0.000000
 20
0.000000
 30
0.000000
 40
0.000984
 41
0.000984
 70
0
  0
VERTEX
  8
20
 10
1.880055
 20
1.710026
 30
0.000000
 42
1.000000
  0
VERTEX
  8
20
 10
1.880055
 20
2.710026
 30
0.000000
 42
1.000000
  0
VERTEX
  8
20
 10
1.880055
 20
1.710026
 30
0.000000
  0
SEQEND
  8
0
  0
POLYLINE
  8
20
 66
1
 10
0.000000
 20
0.000000
 30
0.000000
 40
0.000984
 41
0.000984
 70
0
  0
VERTEX
  8
20
 10
10.814770
 20
10.385719
 30
0.000000
 42
1.000000
  0
VERTEX
  8
20
 10
10.814770
 20
11.085708
 30
0.000000
 42
1.000000
  0
VERTEX
  8
20
 10
10.814770
 20
10.385719
 30
0.000000
  0
SEQEND
  8
0
  0
POLYLINE
  8
20
 66
1
 10
0.000000
 20
0.000000
 30
0.000000
 40
0.000984
 41
0.000984
 70
0
  0
VERTEX
  8
20
 10
6.613784
 20
0.270026
 30
0.000000
 42
1.000000
  0
VERTEX
  8
20
 10
6.613784
 20
1.770026
 30
0.000000
 42
1.000000
  0
VERTEX
  8
20
 10
6.613784
 20
0.270026
 30
0.000000
  0
SEQEND
  8
0
  0
POLYLINE
  8
20
 66
1
 10
0.000000
 20
0.000000
 30
0.000000
 40
0.000984
 41
0.000984
 70
0
  0
VERTEX
  8
20
 10
4.250055
 20
9.212234
 30
0.000000
 42
1.000000
  0
VERTEX
  8
20
 10
4.250055
 20
10.212234
 30
0.000000
 42
1.000000
  0
VERTEX
  8
20
 10
4.250055
 20
9.212234
 30
0.000000
  0
SEQEND
  8
0
  0
POLYLINE
  8
20
 66
1
 10
0.000000
 20
0.000000
 30
0.000000
 40
0.000984
 41
0.000984
 70
0
  0
VERTEX
  8
20
 10
0.550131
 20
10.385719
 30
0.000000
 42
1.000000
  0
VERTEX
  8
20
 10
0.550131
 20
11.085708
 30
0.000000
 42
1.000000
  0
VERTEX
  8
20
 10
0.550131
 20
10.385719
 30
0.000000
  0
SEQEND
  8
0
  0
CIRCLE
  8
20
 10
4.505000
 20
2.263000
 30
0.000000
 40
0.062500
  0
CIRCLE
  8
20
 10
6.705000
 20
2.263000
 30
0.000000
 40
0.062500
  0
CIRCLE
  8
20
 10
8.144000
 20
3.406000
 30
0.000000
 40
0.062500
  0
CIRCLE
  8
20
 10
8.144000
 20
5.606000
 30
0.000000
 40
0.062500
  0
CIRCLE
  8
20
 10
8.144000
 20
7.806000
 30
0.000000
 40
0.062500
  0
CIRCLE
  8
20
 10
6.705000
 20
8.948000
 30
0.000000
 40
0.062500
  0
CIRCLE
  8
20
 10
4.505000
 20
8.948000
 30
0.000000
 40
0.062500
  0
CIRCLE
  8
20
 10
3.066000
 20
7.806000
 30
0.000000
 40
0.062500
  0
CIRCLE
  8
20
 10
3.066000
 20
5.606000
 30
0.000000
 40
0.062500
  0
CIRCLE
  8
20
 10
3.066000
 20
3.406000
 30
0.000000
 40
0.062500
  0
CIRCLE
  8
20
 10
5.605000
 20
5.605000
 30
0.000000
 40
0.280000
  0
CIRCLE
  8
20
 10
9.623000
 20
1.305000
 30
0.000000
 40
0.100000
  0
INSERT
  8
31
  2
RECT
 10
9.397300
 20
1.805600
 30
0.000000
 41
0.044000
 42
0.071000
 43
1.000000
 50
270.000000
  0
INSERT
  8
31
  2
RECT
 10
9.397300
 20
1.687600
 30
0.000000
 41
0.044000
 42
0.071000
 43
1.000000
 50
270.000000
  0
INSERT
  8
31
  2
RECT
 10
1.994600
 20
4.127102
 30
0.000000
 41
0.051181
 42
0.059055
 43
1.000000
 50
270.000000
  0
INSERT
  8
31
  2
RECT
 10
1.994600
 20
4.052298
 30
0.000000
 41
0.051181
 42
0.059055
 43
1.000000
 50
270.000000
  0
INSERT
  8
31
  2
RECT
 10
1.429700
 20
8.696936
 30
0.000000
 41
0.043307
 42
0.039370
 43
1.000000
 50
90.000000
  0
INSERT
  8
31
  2
RECT
 10
1.429700
 20
8.763865
 30
0.000000
 41
0.043307
 42
0.039370
 43
1.000000
 50
90.000000
  0
INSERT
  8
31
  2
RECT
 10
1.750000
 20
7.936535
 30
0.000000
 41
0.043307
 42
0.039370
 43
1.000000
 50
90.000000
  0
INSERT
  8
31
  2
RECT
 10
1.750000
 20
8.003465
 30
0.000000
 41
0.043307
 42
0.039370
 43
1.000000
 50
90.000000
  0
INSERT
  8
31
  2
RECT
 10
9.237300
 20
1.801718
 30
0.000000
 41
0.062992
 42
0.070866
 43
1.000000
 50
270.000000
  0
INSERT
  8
31
  2
RECT
 10
9.237300
 20
1.691482
 30
0.000000
 41
0.062992
 42
0.070866
 43
1.000000
 50
270.000000
  0
INSERT
  8
31
  2
RECT
 10
9.097300
 20
1.810064
 30
0.000000
 41
0.043307
 42
0.039370
 43
1.000000
 50
270.000000
  0
INSERT
  8
31
  2
RECT
 10
9.097300
 20
1.743135
 30
0.000000
 41
0.043307
 42
0.039370
 43
1.000000
 50
270.000000
  0
INSERT
  8
31
  2
RECT
 10
1.719600
 20
4.196235
 30
0.000000
 41
0.043307
 42
0.039370
 43
1.000000
 50
90.000000
  0
INSERT
  8
31
  2
RECT
 10
1.719600
 20
4.263165
 30
0.000000
 41
0.043307
 42
0.039370
 43
1.000000
 50
90.000000
  0
INSERT
  8
31
  2
RECT
 10
1.881135
 20
4.809700
 30
0.000000
 41
0.043307
 42
0.039370
 43
1.000000
 50
0.000000
  0
INSERT
  8
31
  2
RECT
 10
1.948064
 20
4.809700
 30
0.000000
 41
0.043307
 42
0.039370
 43
1.000000
 50
0.000000
  0
INSERT
  8
31
  2
RECT
 10
1.908064
 20
3.289700
 30
0.000000
 41
0.043307
 42
0.039370
 43
1.000000
 50
180.000000
  0
INSERT
  8
31
  2
RECT
 10
1.841135
 20
3.289700
 30
0.000000
 41
0.043307
 42
0.039370
 43
1.000000
 50
180.000000
  0
INSERT
  8
31
  2
RECT
 10
2.509300
 20
5.454135
 30
0.000000
 41
0.043307
 42
0.039370
 43
1.000000
 50
90.000000
  0
INSERT
  8
31
  2
RECT
 10
2.509300
 20
5.521064
 30
0.000000
 41
0.043307
 42
0.039370
 43
1.000000
 50
90.000000
  0
INSERT
  8
31
  2
RECT
 10
1.763465
 20
9.860000
 30
0.000000
 41
0.043307
 42
0.039370
 43
1.000000
 50
180.000000
  0
INSERT
  8
31
  2
RECT
 10
1.696535
 20
9.860000
 30
0.000000
 41
0.043307
 42
0.039370
 43
1.000000
 50
180.000000
  0
INSERT
  8
31
  2
RECT
 10
1.542598
 20
9.860000
 30
0.000000
 41
0.051181
 42
0.059055
 43
1.000000
 50
0.000000
  0
INSERT
  8
31
  2
RECT
 10
1.617402
 20
9.860000
 30
0.000000
 41
0.051181
 42
0.059055
 43
1.000000
 50
0.000000
  0
INSERT
  8
31
  2
RECT
 10
9.439465
 20
5.789000
 30
0.000000
 41
0.043307
 42
0.039370
 43
1.000000
 50
180.000000
  0
INSERT
  8
31
  2
RECT
 10
9.372535
 20
5.789000
 30
0.000000
 41
0.043307
 42
0.039370
 43
1.000000
 50
180.000000
  0
INSERT
  8
31
  2
RECT
 10
9.037535
 20
6.114000
 30
0.000000
 41
0.043307
 42
0.039370
 43
1.000000
 50
0.000000
  0
INSERT
  8
31
  2
RECT
 10
9.104465
 20
6.114000
 30
0.000000
 41
0.043307
 42
0.039370
 43
1.000000
 50
0.000000
  0
INSERT
  8
31
  2
RECT
 10
10.084000
 20
6.109000
 30
0.000000
 41
0.134000
 42
0.035000
 43
1.000000
 50
0.000000
  0
INSERT
  8
31
  2
RECT
 10
9.846000
 20
6.107000
 30
0.000000
 41
0.128000
 42
0.035000
 43
1.000000
 50
0.000000
  0
INSERT
  8
31
  2
RECT
 10
9.439465
 20
5.139000
 30
0.000000
 41
0.043307
 42
0.039370
 43
1.000000
 50
180.000000
  0
INSERT
  8
31
  2
RECT
 10
9.372535
 20
5.139000
 30
0.000000
 41
0.043307
 42
0.039370
 43
1.000000
 50
180.000000
  0
INSERT
  8
31
  2
RECT
 10
9.037535
 20
5.464000
 30
0.000000
 41
0.043307
 42
0.039370
 43
1.000000
 50
0.000000
  0
INSERT
  8
31
  2
RECT
 10
9.104465
 20
5.464000
 30
0.000000
 41
0.043307
 42
0.039370
 43
1.000000
 50
0.000000
  0
INSERT
  8
31
  2
RECT
 10
10.084000
 20
5.459000
 30
0.000000
 41
0.134000
 42
0.035000
 43
1.000000
 50
0.000000
  0
INSERT
  8
31
  2
RECT
 10
9.846000
 20
5.457000
 30
0.000000
 41
0.128000
 42
0.035000
 43
1.000000
 50
0.000000
  0
INSERT
  8
31
  2
RECT
 10
9.439465
 20
4.489000
 30
0.000000
 41
0.043307
 42
0.039370
 43
1.000000
 50
180.000000
  0
INSERT
  8
31
  2
RECT
 10
9.372535
 20
4.489000
 30
0.000000
 41
0.043307
 42
0.039370
 43
1.000000
 50
180.000000
  0
INSERT
  8
31
  2
RECT
 10
9.037535
 20
4.814000
 30
0.000000
 41
0.043307
 42
0.039370
 43
1.000000
 50
0.000000
  0
INSERT
  8
31
  2
RECT
 10
9.104465
 20
4.814000
 30
0.000000
 41
0.043307
 42
0.039370
 43
1.000000
 50
0.000000
  0
INSERT
  8
31
  2
RECT
 10
10.084000
 20
4.809000
 30
0.000000
 41
0.134000
 42
0.035000
 43
1.000000
 50
0.000000
  0
INSERT
  8
31
  2
RECT
 10
9.846000
 20
4.807000
 30
0.000000
 41
0.128000
 42
0.035000
 43
1.000000
 50
0.000000
  0
INSERT
  8
31
  2
RECT
 10
9.439465
 20
3.839000
 30
0.000000
 41
0.043307
 42
0.039370
 43
1.000000
 50
180.000000
  0
INSERT
  8
31
  2
RECT
 10
9.372535
 20
3.839000
 30
0.000000
 41
0.043307
 42
0.039370
 43
1.000000
 50
180.000000
  0
INSERT
  8
31
  2
RECT
 10
9.037535
 20
4.164000
 30
0.000000
 41
0.043307
 42
0.039370
 43
1.000000
 50
0.000000
  0
INSERT
  8
31
  2
RECT
 10
9.104465
 20
4.164000
 30
0.000000
 41
0.043307
 42
0.039370
 43
1.000000
 50
0.000000
  0
INSERT
  8
31
  2
RECT
 10
10.084000
 20
4.159000
 30
0.000000
 41
0.134000
 42
0.035000
 43
1.000000
 50
0.000000
  0
INSERT
  8
31
  2
RECT
 10
9.846000
 20
4.157000
 30
0.000000
 41
0.128000
 42
0.035000
 43
1.000000
 50
0.000000
  0
INSERT
  8
31
  2
RECT
 10
9.439465
 20
3.189000
 30
0.000000
 41
0.043307
 42
0.039370
 43
1.000000
 50
180.000000
  0
INSERT
  8
31
  2
RECT
 10
9.372535
 20
3.189000
 30
0.000000
 41
0.043307
 42
0.039370
 43
1.000000
 50
180.000000
  0
INSERT
  8
31
  2
RECT
 10
9.037535
 20
3.514000
 30
0.000000
 41
0.043307
 42
0.039370
 43
1.000000
 50
0.000000
  0
INSERT
  8
31
  2
RECT
 10
9.104465
 20
3.514000
 30
0.000000
 41
0.043307
 42
0.039370
 43
1.000000
 50
0.000000
  0
INSERT
  8
31
  2
RECT
 10
10.084000
 20
3.509000
 30
0.000000
 41
0.134000
 42
0.035000
 43
1.000000
 50
0.000000
  0
INSERT
  8
31
  2
RECT
 10
9.846000
 20
3.507000
 30
0.000000
 41
0.128000
 42
0.035000
 43
1.000000
 50
0.000000
  0
INSERT
  8
31
  2
RECT
 10
9.439465
 20
2.539000
 30
0.000000
 41
0.043307
 42
0.039370
 43
1.000000
 50
180.000000
  0
INSERT
  8
31
  2
RECT
 10
9.372535
 20
2.539000
 30
0.000000
 41
0.043307
 42
0.039370
 43
1.000000
 50
180.000000
  0
INSERT
  8
31
  2
RECT
 10
9.037535
 20
2.864000
 30
0.000000
 41
0.043307
 42
0.039370
 43
1.000000
 50
0.000000
  0
INSERT
  8
31
  2
RECT
 10
9.104465
 20
2.864000
 30
0.000000
 41
0.043307
 42
0.039370
 43
1.000000
 50
0.000000
  0
INSERT
  8
31
  2
RECT
 10
10.084000
 20
2.859000
 30
0.000000
 41
0.134000
 42
0.035000
 43
1.000000
 50
0.000000
  0
INSERT
  8
31
  2
RECT
 10
9.846000
 20
2.857000
 30
0.000000
 41
0.128000
 42
0.035000
 43
1.000000
 50
0.000000
  0
INSERT
  8
31
  2
RECT
 10
10.557535
 20
4.019000
 30
0.000000
 41
0.043307
 42
0.039370
 43
1.000000
 50
0.000000
  0
INSERT
  8
31
  2
RECT
 10
10.624465
 20
4.019000
 30
0.000000
 41
0.043307
 42
0.039370
 43
1.000000
 50
0.000000
  0
INSERT
  8
31
  2
RECT
 10
10.626000
 20
3.796598
 30
0.000000
 41
0.051181
 42
0.059055
 43
1.000000
 50
90.000000
  0
INSERT
  8
31
  2
RECT
 10
10.626000
 20
3.871402
 30
0.000000
 41
0.051181
 42
0.059055
 43
1.000000
 50
90.000000
  0
INSERT
  8
31
  2
RECT
 10
10.781000
 20
4.981598
 30
0.000000
 41
0.051181
 42
0.059055
 43
1.000000
 50
90.000000
  0
INSERT
  8
31
  2
RECT
 10
10.781000
 20
5.056402
 30
0.000000
 41
0.051181
 42
0.059055
 43
1.000000
 50
90.000000
  0
INSERT
  8
31
  2
RECT
 10
9.547300
 20
1.636875
 30
0.000000
 41
0.070866
 42
0.094488
 43
1.000000
 50
90.000000
  0
INSERT
  8
31
  2
RECT
 10
9.547300
 20
1.796324
 30
0.000000
 41
0.070866
 42
0.094488
 43
1.000000
 50
270.000000
  0
INSERT
  8
31
  2
RECT
 10
0.900400
 20
9.479828
 30
0.000000
 41
0.031496
 42
0.031496
 43
1.000000
 50
180.000000
  0
INSERT
  8
31
  2
RECT
 10
0.900400
 20
9.420772
 30
0.000000
 41
0.031496
 42
0.031496
 43
1.000000
 50
180.000000
  0
INSERT
  8
31
  2
RECT
 10
1.030400
 20
9.479828
 30
0.000000
 41
0.031496
 42
0.031496
 43
1.000000
 50
180.000000
  0
INSERT
  8
31
  2
RECT
 10
1.030400
 20
9.420772
 30
0.000000
 41
0.031496
 42
0.031496
 43
1.000000
 50
180.000000
  0
INSERT
  8
31
  2
RECT
 10
1.160400
 20
9.489828
 30
0.000000
 41
0.031496
 42
0.031496
 43
1.000000
 50
180.000000
  0
INSERT
  8
31
  2
RECT
 10
1.160400
 20
9.430772
 30
0.000000
 41
0.031496
 42
0.031496
 43
1.000000
 50
180.000000
  0
INSERT
  8
31
  2
RECT
 10
1.665472
 20
9.955000
 30
0.000000
 41
0.031496
 42
0.031496
 43
1.000000
 50
270.000000
  0
INSERT
  8
31
  2
RECT
 10
1.724528
 20
9.955000
 30
0.000000
 41
0.031496
 42
0.031496
 43
1.000000
 50
270.000000
  0
INSERT
  8
31
  2
RECT
 10
1.520000
 20
10.079378
 30
0.000000
 41
0.029748
 42
0.031496
 43
1.000000
 50
90.000000
  0
INSERT
  8
31
  2
RECT
 10
1.520000
 20
10.140622
 30
0.000000
 41
0.029748
 42
0.031496
 43
1.000000
 50
90.000000
  0
CIRCLE
  8
20
 10
10.122700
 20
1.713400
 30
0.000000
 40
0.055000
  0
INSERT
  8
31
  2
RECT
 10
6.366214
 20
10.437330
 30
0.000000
 41
0.055118
 42
0.011811
 43
1.000000
 50
180.000000
  0
INSERT
  8
31
  2
RECT
 10
6.366214
 20
10.457015
 30
0.000000
 41
0.055118
 42
0.011811
 43
1.000000
 50
180.000000
  0
INSERT
  8
31
  2
RECT
 10
6.366214
 20
10.476700
 30
0.000000
 41
0.055118
 42
0.011811
 43
1.000000
 50
180.000000
  0
INSERT
  8
31
  2
RECT
 10
6.366214
 20
10.496385
 30
0.000000
 41
0.055118
 42
0.011811
 43
1.000000
 50
180.000000
  0
INSERT
  8
31
  2
RECT
 10
6.366214
 20
10.516070
 30
0.000000
 41
0.055118
 42
0.011811
 43
1.000000
 50
180.000000
  0
INSERT
  8
31
  2
RECT
 10
6.192986
 20
10.516070
 30
0.000000
 41
0.055118
 42
0.011811
 43
1.000000
 50
180.000000
  0
INSERT
  8
31
  2
RECT
 10
6.192986
 20
10.496385
 30
0.000000
 41
0.055118
 42
0.011811
 43
1.000000
 50
180.000000
  0
INSERT
  8
31
  2
RECT
 10
6.192986
 20
10.476700
 30
0.000000
 41
0.055118
 42
0.011811
 43
1.000000
 50
180.000000
  0
INSERT
  8
31
  2
RECT
 10
6.192986
 20
10.457015
 30
0.000000
 41
0.055118
 42
0.011811
 43
1.000000
 50
180.000000
  0
INSERT
  8
31
  2
RECT
 10
6.192986
 20
10.437330
 30
0.000000
 41
0.055118
 42
0.011811
 43
1.000000
 50
180.000000
  0
INSERT
  8
31
  2
RECT
 10
7.196214
 20
10.437330
 30
0.000000
 41
0.055118
 42
0.011811
 43
1.000000
 50
180.000000
  0
INSERT
  8
31
  2
RECT
 10
7.196214
 20
10.457015
 30
0.000000
 41
0.055118
 42
0.011811
 43
1.000000
 50
180.000000
  0
INSERT
  8
31
  2
RECT
 10
7.196214
 20
10.476700
 30
0.000000
 41
0.055118
 42
0.011811
 43
1.000000
 50
180.000000
  0
INSERT
  8
31
  2
RECT
 10
7.196214
 20
10.496385
 30
0.000000
 41
0.055118
 42
0.011811
 43
1.000000
 50
180.000000
  0
INSERT
  8
31
  2
RECT
 10
7.196214
 20
10.516070
 30
0.000000
 41
0.055118
 42
0.011811
 43
1.000000
 50
180.000000
  0
INSERT
  8
31
  2
RECT
 10
7.022986
 20
10.516070
 30
0.000000
 41
0.055118
 42
0.011811
 43
1.000000
 50
180.000000
  0
INSERT
  8
31
  2
RECT
 10
7.022986
 20
10.496385
 30
0.000000
 41
0.055118
 42
0.011811
 43
1.000000
 50
180.000000
  0
INSERT
  8
31
  2
RECT
 10
7.022986
 20
10.476700
 30
0.000000
 41
0.055118
 42
0.011811
 43
1.000000
 50
180.000000
  0
INSERT
  8
31
  2
RECT
 10
7.022986
 20
10.457015
 30
0.000000
 41
0.055118
 42
0.011811
 43
1.000000
 50
180.000000
  0
INSERT
  8
31
  2
RECT
 10
7.022986
 20
10.437330
 30
0.000000
 41
0.055118
 42
0.011811
 43
1.000000
 50
180.000000
  0
CIRCLE
  8
20
 10
6.534600
 20
11.081700
 30
0.000000
 40
0.062992
  0
CIRCLE
  8
20
 10
6.084600
 20
11.081700
 30
0.000000
 40
0.062992
  0
CIRCLE
  8
20
 10
7.364600
 20
11.081700
 30
0.000000
 40
0.062992
  0
CIRCLE
  8
20
 10
6.914600
 20
11.081700
 30
0.000000
 40
0.062992
  0
INSERT
  8
31
  2
RECT
 10
10.046551
 20
5.789000
 30
0.000000
 41
0.070866
 42
0.224409
 43
1.000000
 50
180.000000
  0
INSERT
  8
31
  2
RECT
 10
9.865449
 20
5.789000
 30
0.000000
 41
0.070866
 42
0.224409
 43
1.000000
 50
180.000000
  0
INSERT
  8
31
  2
RECT
 10
10.046551
 20
5.139000
 30
0.000000
 41
0.070866
 42
0.224409
 43
1.000000
 50
180.000000
  0
INSERT
  8
31
  2
RECT
 10
9.865449
 20
5.139000
 30
0.000000
 41
0.070866
 42
0.224409
 43
1.000000
 50
180.000000
  0
INSERT
  8
31
  2
RECT
 10
10.046551
 20
4.489000
 30
0.000000
 41
0.070866
 42
0.224409
 43
1.000000
 50
180.000000
  0
INSERT
  8
31
  2
RECT
 10
9.865449
 20
4.489000
 30
0.000000
 41
0.070866
 42
0.224409
 43
1.000000
 50
180.000000
  0
INSERT
  8
31
  2
RECT
 10
10.046551
 20
3.839000
 30
0.000000
 41
0.070866
 42
0.224409
 43
1.000000
 50
180.000000
  0
INSERT
  8
31
  2
RECT
 10
9.865449
 20
3.839000
 30
0.000000
 41
0.070866
 42
0.224409
 43
1.000000
 50
180.000000
  0
INSERT
  8
31
  2
RECT
 10
10.046551
 20
3.189000
 30
0.000000
 41
0.070866
 42
0.224409
 43
1.000000
 50
180.000000
  0
INSERT
  8
31
  2
RECT
 10
9.865449
 20
3.189000
 30
0.000000
 41
0.070866
 42
0.224409
 43
1.000000
 50
180.000000
  0
INSERT
  8
31
  2
RECT
 10
10.046551
 20
2.539000
 30
0.000000
 41
0.070866
 42
0.224409
 43
1.000000
 50
180.000000
  0
INSERT
  8
31
  2
RECT
 10
9.865449
 20
2.539000
 30
0.000000
 41
0.070866
 42
0.224409
 43
1.000000
 50
180.000000
  0
INSERT
  8
31
  2
RECT
 10
1.190000
 20
8.540000
 30
0.000000
 41
0.050000
 42
0.100000
 43
1.000000
 50
90.000000
  0
INSERT
  8
31
  2
RECT
 10
1.190000
 20
8.400000
 30
0.000000
 41
0.050000
 42
0.100000
 43
1.000000
 50
90.000000
  0
INSERT
  8
31
  2
RECT
 10
1.190000
 20
8.260000
 30
0.000000
 41
0.050000
 42
0.100000
 43
1.000000
 50
90.000000
  0
INSERT
  8
31
  2
RECT
 10
1.190000
 20
8.140000
 30
0.000000
 41
0.050000
 42
0.100000
 43
1.000000
 50
90.000000
  0
INSERT
  8
31
  2
RECT
 10
0.837402
 20
2.493307
 30
0.000000
 41
0.039370
 42
0.055118
 43
1.000000
 50
180.000000
  0
INSERT
  8
31
  2
RECT
 10
0.800000
 20
2.406693
 30
0.000000
 41
0.039370
 42
0.055118
 43
1.000000
 50
180.000000
  0
INSERT
  8
31
  2
RECT
 10
0.762598
 20
2.493307
 30
0.000000
 41
0.039370
 42
0.055118
 43
1.000000
 50
180.000000
  0
INSERT
  8
31
  2
RECT
 10
5.567402
 20
9.813307
 30
0.000000
 41
0.039370
 42
0.055118
 43
1.000000
 50
180.000000
  0
INSERT
  8
31
  2
RECT
 10
5.530000
 20
9.726693
 30
0.000000
 41
0.039370
 42
0.055118
 43
1.000000
 50
180.000000
  0
INSERT
  8
31
  2
RECT
 10
5.492598
 20
9.813307
 30
0.000000
 41
0.039370
 42
0.055118
 43
1.000000
 50
180.000000
  0
INSERT
  8
31
  2
RECT
 10
4.702598
 20
0.996693
 30
0.000000
 41
0.039370
 42
0.055118
 43
1.000000
 50
0.000000
  0
INSERT
  8
31
  2
RECT
 10
4.740000
 20
1.083307
 30
0.000000
 41
0.039370
 42
0.055118
 43
1.000000
 50
0.000000
  0
INSERT
  8
31
  2
RECT
 10
4.777402
 20
0.996693
 30
0.000000
 41
0.039370
 42
0.055118
 43
1.000000
 50
0.000000
  0
INSERT
  8
31
  2
RECT
 10
9.816693
 20
8.517402
 30
0.000000
 41
0.039370
 42
0.055118
 43
1.000000
 50
270.000000
  0
INSERT
  8
31
  2
RECT
 10
9.903307
 20
8.480000
 30
0.000000
 41
0.039370
 42
0.055118
 43
1.000000
 50
270.000000
  0
INSERT
  8
31
  2
RECT
 10
9.816693
 20
8.442598
 30
0.000000
 41
0.039370
 42
0.055118
 43
1.000000
 50
270.000000
  0
INSERT
  8
31
  2
RECT
 10
9.656693
 20
7.487402
 30
0.000000
 41
0.039370
 42
0.055118
 43
1.000000
 50
270.000000
  0
INSERT
  8
31
  2
RECT
 10
9.743307
 20
7.450000
 30
0.000000
 41
0.039370
 42
0.055118
 43
1.000000
 50
270.000000
  0
INSERT
  8
31
  2
RECT
 10
9.656693
 20
7.412598
 30
0.000000
 41
0.039370
 42
0.055118
 43
1.000000
 50
270.000000
  0
INSERT
  8
31
  2
RECT
 10
1.791235
 20
8.845400
 30
0.000000
 41
0.039370
 42
0.043307
 43
1.000000
 50
0.000000
  0
INSERT
  8
31
  2
RECT
 10
1.858165
 20
8.845400
 30
0.000000
 41
0.039370
 42
0.043307
 43
1.000000
 50
0.000000
  0
INSERT
  8
31
  2
RECT
 10
1.930172
 20
8.557408
 30
0.000000
 41
0.043307
 42
0.039370
 43
1.000000
 50
180.000000
  0
INSERT
  8
31
  2
RECT
 10
1.863243
 20
8.557408
 30
0.000000
 41
0.043307
 42
0.039370
 43
1.000000
 50
180.000000
  0
INSERT
  8
31
  2
RECT
 10
2.048165
 20
8.557408
 30
0.000000
 41
0.043307
 42
0.039370
 43
1.000000
 50
180.000000
  0
INSERT
  8
31
  2
RECT
 10
1.981235
 20
8.557408
 30
0.000000
 41
0.043307
 42
0.039370
 43
1.000000
 50
180.000000
  0
INSERT
  8
31
  2
RECT
 10
1.931157
 20
8.736384
 30
0.000000
 41
0.043307
 42
0.039370
 43
1.000000
 50
180.000000
  0
INSERT
  8
31
  2
RECT
 10
1.864228
 20
8.736384
 30
0.000000
 41
0.043307
 42
0.039370
 43
1.000000
 50
180.000000
  0
INSERT
  8
31
  2
RECT
 10
2.048165
 20
8.736384
 30
0.000000
 41
0.043307
 42
0.039370
 43
1.000000
 50
180.000000
  0
INSERT
  8
31
  2
RECT
 10
1.981235
 20
8.736384
 30
0.000000
 41
0.043307
 42
0.039370
 43
1.000000
 50
180.000000
  0
INSERT
  8
31
  2
RECT
 10
1.930172
 20
8.647408
 30
0.000000
 41
0.043307
 42
0.039370
 43
1.000000
 50
180.000000
  0
INSERT
  8
31
  2
RECT
 10
1.863243
 20
8.647408
 30
0.000000
 41
0.043307
 42
0.039370
 43
1.000000
 50
180.000000
  0
INSERT
  8
31
  2
RECT
 10
2.048165
 20
8.647408
 30
0.000000
 41
0.043307
 42
0.039370
 43
1.000000
 50
180.000000
  0
INSERT
  8
31
  2
RECT
 10
1.981235
 20
8.647408
 30
0.000000
 41
0.043307
 42
0.039370
 43
1.000000
 50
180.000000
  0
INSERT
  8
31
  2
RECT
 10
1.760400
 20
8.363765
 30
0.000000
 41
0.043307
 42
0.039370
 43
1.000000
 50
270.000000
  0
INSERT
  8
31
  2
RECT
 10
1.760400
 20
8.296835
 30
0.000000
 41
0.043307
 42
0.039370
 43
1.000000
 50
270.000000
  0
INSERT
  8
31
  2
RECT
 10
1.839700
 20
8.363865
 30
0.000000
 41
0.043307
 42
0.039370
 43
1.000000
 50
270.000000
  0
INSERT
  8
31
  2
RECT
 10
1.839700
 20
8.296936
 30
0.000000
 41
0.043307
 42
0.039370
 43
1.000000
 50
270.000000
  0
INSERT
  8
31
  2
RECT
 10
0.900400
 20
9.689678
 30
0.000000
 41
0.029748
 42
0.031496
 43
1.000000
 50
90.000000
  0
INSERT
  8
31
  2
RECT
 10
0.900400
 20
9.750922
 30
0.000000
 41
0.029748
 42
0.031496
 43
1.000000
 50
90.000000
  0
INSERT
  8
31
  2
RECT
 10
1.030400
 20
9.689678
 30
0.000000
 41
0.029748
 42
0.031496
 43
1.000000
 50
90.000000
  0
INSERT
  8
31
  2
RECT
 10
1.030400
 20
9.750922
 30
0.000000
 41
0.029748
 42
0.031496
 43
1.000000
 50
90.000000
  0
INSERT
  8
31
  2
RECT
 10
1.160400
 20
9.689678
 30
0.000000
 41
0.029748
 42
0.031496
 43
1.000000
 50
90.000000
  0
INSERT
  8
31
  2
RECT
 10
1.160400
 20
9.750922
 30
0.000000
 41
0.029748
 42
0.031496
 43
1.000000
 50
90.000000
  0
INSERT
  8
31
  2
RECT
 10
0.641437
 20
2.370000
 30
0.000000
 41
0.059055
 42
0.039370
 43
1.000000
 50
180.000000
  0
INSERT
  8
31
  2
RECT
 10
0.558563
 20
2.370000
 30
0.000000
 41
0.059055
 42
0.039370
 43
1.000000
 50
180.000000
  0
INSERT
  8
31
  2
RECT
 10
2.160000
 20
8.093465
 30
0.000000
 41
0.043307
 42
0.039370
 43
1.000000
 50
270.000000
  0
INSERT
  8
31
  2
RECT
 10
2.160000
 20
8.026535
 30
0.000000
 41
0.043307
 42
0.039370
 43
1.000000
 50
270.000000
  0
INSERT
  8
31
  2
RECT
 10
2.080000
 20
8.093465
 30
0.000000
 41
0.043307
 42
0.039370
 43
1.000000
 50
270.000000
  0
INSERT
  8
31
  2
RECT
 10
2.080000
 20
8.026535
 30
0.000000
 41
0.043307
 42
0.039370
 43
1.000000
 50
270.000000
  0
INSERT
  8
31
  2
RECT
 10
6.286135
 20
10.346700
 30
0.000000
 41
0.039370
 42
0.043307
 43
1.000000
 50
0.000000
  0
INSERT
  8
31
  2
RECT
 10
6.353064
 20
10.346700
 30
0.000000
 41
0.039370
 42
0.043307
 43
1.000000
 50
0.000000
  0
INSERT
  8
31
  2
RECT
 10
6.166135
 20
10.346700
 30
0.000000
 41
0.039370
 42
0.043307
 43
1.000000
 50
0.000000
  0
INSERT
  8
31
  2
RECT
 10
6.233064
 20
10.346700
 30
0.000000
 41
0.039370
 42
0.043307
 43
1.000000
 50
0.000000
  0
INSERT
  8
31
  2
RECT
 10
6.046135
 20
10.346700
 30
0.000000
 41
0.039370
 42
0.043307
 43
1.000000
 50
0.000000
  0
INSERT
  8
31
  2
RECT
 10
6.113064
 20
10.346700
 30
0.000000
 41
0.039370
 42
0.043307
 43
1.000000
 50
0.000000
  0
INSERT
  8
31
  2
RECT
 10
6.059600
 20
10.480165
 30
0.000000
 41
0.039370
 42
0.043307
 43
1.000000
 50
270.000000
  0
INSERT
  8
31
  2
RECT
 10
6.059600
 20
10.413235
 30
0.000000
 41
0.039370
 42
0.043307
 43
1.000000
 50
270.000000
  0
INSERT
  8
31
  2
RECT
 10
6.193064
 20
10.601700
 30
0.000000
 41
0.039370
 42
0.043307
 43
1.000000
 50
180.000000
  0
INSERT
  8
31
  2
RECT
 10
6.126135
 20
10.601700
 30
0.000000
 41
0.039370
 42
0.043307
 43
1.000000
 50
180.000000
  0
INSERT
  8
31
  2
RECT
 10
6.059600
 20
10.600165
 30
0.000000
 41
0.039370
 42
0.043307
 43
1.000000
 50
270.000000
  0
INSERT
  8
31
  2
RECT
 10
6.059600
 20
10.533235
 30
0.000000
 41
0.039370
 42
0.043307
 43
1.000000
 50
270.000000
  0
INSERT
  8
31
  2
RECT
 10
6.474600
 20
10.495165
 30
0.000000
 41
0.039370
 42
0.043307
 43
1.000000
 50
270.000000
  0
INSERT
  8
31
  2
RECT
 10
6.474600
 20
10.428235
 30
0.000000
 41
0.039370
 42
0.043307
 43
1.000000
 50
270.000000
  0
INSERT
  8
31
  2
RECT
 10
6.584600
 20
10.495165
 30
0.000000
 41
0.039370
 42
0.043307
 43
1.000000
 50
270.000000
  0
INSERT
  8
31
  2
RECT
 10
6.584600
 20
10.428235
 30
0.000000
 41
0.039370
 42
0.043307
 43
1.000000
 50
270.000000
  0
INSERT
  8
31
  2
RECT
 10
7.116135
 20
10.346700
 30
0.000000
 41
0.039370
 42
0.043307
 43
1.000000
 50
0.000000
  0
INSERT
  8
31
  2
RECT
 10
7.183064
 20
10.346700
 30
0.000000
 41
0.039370
 42
0.043307
 43
1.000000
 50
0.000000
  0
INSERT
  8
31
  2
RECT
 10
6.996135
 20
10.346700
 30
0.000000
 41
0.039370
 42
0.043307
 43
1.000000
 50
0.000000
  0
INSERT
  8
31
  2
RECT
 10
7.063064
 20
10.346700
 30
0.000000
 41
0.039370
 42
0.043307
 43
1.000000
 50
0.000000
  0
INSERT
  8
31
  2
RECT
 10
6.876135
 20
10.346700
 30
0.000000
 41
0.039370
 42
0.043307
 43
1.000000
 50
0.000000
  0
INSERT
  8
31
  2
RECT
 10
6.943064
 20
10.346700
 30
0.000000
 41
0.039370
 42
0.043307
 43
1.000000
 50
0.000000
  0
INSERT
  8
31
  2
RECT
 10
6.889600
 20
10.480165
 30
0.000000
 41
0.039370
 42
0.043307
 43
1.000000
 50
270.000000
  0
INSERT
  8
31
  2
RECT
 10
6.889600
 20
10.413235
 30
0.000000
 41
0.039370
 42
0.043307
 43
1.000000
 50
270.000000
  0
INSERT
  8
31
  2
RECT
 10
7.023064
 20
10.601700
 30
0.000000
 41
0.039370
 42
0.043307
 43
1.000000
 50
180.000000
  0
INSERT
  8
31
  2
RECT
 10
6.956135
 20
10.601700
 30
0.000000
 41
0.039370
 42
0.043307
 43
1.000000
 50
180.000000
  0
INSERT
  8
31
  2
RECT
 10
6.889600
 20
10.600165
 30
0.000000
 41
0.039370
 42
0.043307
 43
1.000000
 50
270.000000
  0
INSERT
  8
31
  2
RECT
 10
6.889600
 20
10.533235
 30
0.000000
 41
0.039370
 42
0.043307
 43
1.000000
 50
270.000000
  0
INSERT
  8
31
  2
RECT
 10
7.304600
 20
10.495165
 30
0.000000
 41
0.039370
 42
0.043307
 43
1.000000
 50
270.000000
  0
INSERT
  8
31
  2
RECT
 10
7.304600
 20
10.428235
 30
0.000000
 41
0.039370
 42
0.043307
 43
1.000000
 50
270.000000
  0
INSERT
  8
31
  2
RECT
 10
7.414600
 20
10.495165
 30
0.000000
 41
0.039370
 42
0.043307
 43
1.000000
 50
270.000000
  0
INSERT
  8
31
  2
RECT
 10
7.414600
 20
10.428235
 30
0.000000
 41
0.039370
 42
0.043307
 43
1.000000
 50
270.000000
  0
INSERT
  8
31
  2
RECT
 10
2.080000
 20
8.213465
 30
0.000000
 41
0.043307
 42
0.039370
 43
1.000000
 50
270.000000
  0
INSERT
  8
31
  2
RECT
 10
2.080000
 20
8.146535
 30
0.000000
 41
0.043307
 42
0.039370
 43
1.000000
 50
270.000000
  0
INSERT
  8
31
  2
RECT
 10
2.160000
 20
8.213465
 30
0.000000
 41
0.043307
 42
0.039370
 43
1.000000
 50
270.000000
  0
INSERT
  8
31
  2
RECT
 10
2.160000
 20
8.146535
 30
0.000000
 41
0.043307
 42
0.039370
 43
1.000000
 50
270.000000
  0
INSERT
  8
31
  2
RECT
 10
5.680000
 20
9.728563
 30
0.000000
 41
0.059055
 42
0.039370
 43
1.000000
 50
90.000000
  0
INSERT
  8
31
  2
RECT
 10
5.680000
 20
9.811437
 30
0.000000
 41
0.059055
 42
0.039370
 43
1.000000
 50
90.000000
  0
INSERT
  8
31
  2
RECT
 10
5.340000
 20
9.881437
 30
0.000000
 41
0.059055
 42
0.039370
 43
1.000000
 50
270.000000
  0
INSERT
  8
31
  2
RECT
 10
5.340000
 20
9.798563
 30
0.000000
 41
0.059055
 42
0.039370
 43
1.000000
 50
270.000000
  0
INSERT
  8
31
  2
RECT
 10
0.830000
 20
2.638563
 30
0.000000
 41
0.059055
 42
0.039370
 43
1.000000
 50
90.000000
  0
INSERT
  8
31
  2
RECT
 10
0.830000
 20
2.721437
 30
0.000000
 41
0.059055
 42
0.039370
 43
1.000000
 50
90.000000
  0
INSERT
  8
31
  2
RECT
 10
1.860000
 20
7.926535
 30
0.000000
 41
0.043307
 42
0.039370
 43
1.000000
 50
90.000000
  0
INSERT
  8
31
  2
RECT
 10
1.860000
 20
7.993465
 30
0.000000
 41
0.043307
 42
0.039370
 43
1.000000
 50
90.000000
  0
INSERT
  8
31
  2
RECT
 10
4.900000
 20
1.088563
 30
0.000000
 41
0.059055
 42
0.039370
 43
1.000000
 50
90.000000
  0
INSERT
  8
31
  2
RECT
 10
4.900000
 20
1.171437
 30
0.000000
 41
0.059055
 42
0.039370
 43
1.000000
 50
90.000000
  0
INSERT
  8
31
  2
RECT
 10
2.000000
 20
7.926535
 30
0.000000
 41
0.043307
 42
0.039370
 43
1.000000
 50
90.000000
  0
INSERT
  8
31
  2
RECT
 10
2.000000
 20
7.993465
 30
0.000000
 41
0.043307
 42
0.039370
 43
1.000000
 50
90.000000
  0
INSERT
  8
31
  2
RECT
 10
1.930000
 20
7.926535
 30
0.000000
 41
0.043307
 42
0.039370
 43
1.000000
 50
90.000000
  0
INSERT
  8
31
  2
RECT
 10
1.930000
 20
7.993465
 30
0.000000
 41
0.043307
 42
0.039370
 43
1.000000
 50
90.000000
  0
INSERT
  8
31
  2
RECT
 10
4.561437
 20
0.950000
 30
0.000000
 41
0.059055
 42
0.039370
 43
1.000000
 50
180.000000
  0
INSERT
  8
31
  2
RECT
 10
4.478563
 20
0.950000
 30
0.000000
 41
0.059055
 42
0.039370
 43
1.000000
 50
180.000000
  0
INSERT
  8
31
  2
RECT
 10
1.719600
 20
4.070684
 30
0.000000
 41
0.062992
 42
0.070984
 43
1.000000
 50
270.000000
  0
INSERT
  8
31
  2
RECT
 10
1.719600
 20
3.958716
 30
0.000000
 41
0.062992
 42
0.070984
 43
1.000000
 50
270.000000
  0
INSERT
  8
31
  2
RECT
 10
5.240000
 20
9.881437
 30
0.000000
 41
0.059055
 42
0.039370
 43
1.000000
 50
270.000000
  0
INSERT
  8
31
  2
RECT
 10
5.240000
 20
9.798563
 30
0.000000
 41
0.059055
 42
0.039370
 43
1.000000
 50
270.000000
  0
INSERT
  8
31
  2
RECT
 10
1.610622
 20
9.955000
 30
0.000000
 41
0.029748
 42
0.031496
 43
1.000000
 50
180.000000
  0
INSERT
  8
31
  2
RECT
 10
1.549378
 20
9.955000
 30
0.000000
 41
0.029748
 42
0.031496
 43
1.000000
 50
180.000000
  0
INSERT
  8
31
  2
RECT
 10
4.298563
 20
0.950000
 30
0.000000
 41
0.059055
 42
0.039370
 43
1.000000
 50
0.000000
  0
INSERT
  8
31
  2
RECT
 10
4.381437
 20
0.950000
 30
0.000000
 41
0.059055
 42
0.039370
 43
1.000000
 50
0.000000
  0
INSERT
  8
31
  2
RECT
 10
0.830000
 20
2.911437
 30
0.000000
 41
0.059055
 42
0.039370
 43
1.000000
 50
270.000000
  0
INSERT
  8
31
  2
RECT
 10
0.830000
 20
2.828563
 30
0.000000
 41
0.059055
 42
0.039370
 43
1.000000
 50
270.000000
  0
INSERT
  8
31
  2
RECT
 10
9.851437
 20
8.610000
 30
0.000000
 41
0.059055
 42
0.039370
 43
1.000000
 50
180.000000
  0
INSERT
  8
31
  2
RECT
 10
9.768563
 20
8.610000
 30
0.000000
 41
0.059055
 42
0.039370
 43
1.000000
 50
180.000000
  0
INSERT
  8
31
  2
RECT
 10
9.691437
 20
8.520000
 30
0.000000
 41
0.059055
 42
0.039370
 43
1.000000
 50
180.000000
  0
INSERT
  8
31
  2
RECT
 10
9.608563
 20
8.520000
 30
0.000000
 41
0.059055
 42
0.039370
 43
1.000000
 50
180.000000
  0
INSERT
  8
31
  2
RECT
 10
9.691437
 20
8.610000
 30
0.000000
 41
0.059055
 42
0.039370
 43
1.000000
 50
180.000000
  0
INSERT
  8
31
  2
RECT
 10
9.608563
 20
8.610000
 30
0.000000
 41
0.059055
 42
0.039370
 43
1.000000
 50
180.000000
  0
INSERT
  8
31
  2
RECT
 10
9.691437
 20
7.580000
 30
0.000000
 41
0.059055
 42
0.039370
 43
1.000000
 50
180.000000
  0
INSERT
  8
31
  2
RECT
 10
9.608563
 20
7.580000
 30
0.000000
 41
0.059055
 42
0.039370
 43
1.000000
 50
180.000000
  0
INSERT
  8
31
  2
RECT
 10
9.511437
 20
7.470000
 30
0.000000
 41
0.059055
 42
0.039370
 43
1.000000
 50
180.000000
  0
INSERT
  8
31
  2
RECT
 10
9.428563
 20
7.470000
 30
0.000000
 41
0.059055
 42
0.039370
 43
1.000000
 50
180.000000
  0
INSERT
  8
31
  2
RECT
 10
9.511437
 20
7.580000
 30
0.000000
 41
0.059055
 42
0.039370
 43
1.000000
 50
180.000000
  0
INSERT
  8
31
  2
RECT
 10
9.428563
 20
7.580000
 30
0.000000
 41
0.059055
 42
0.039370
 43
1.000000
 50
180.000000
  0
INSERT
  8
31
  2
RECT
 10
10.586622
 20
3.004000
 30
0.000000
 41
0.029748
 42
0.031496
 43
1.000000
 50
180.000000
  0
INSERT
  8
31
  2
RECT
 10
10.525378
 20
3.004000
 30
0.000000
 41
0.029748
 42
0.031496
 43
1.000000
 50
180.000000
  0
INSERT
  8
31
  2
RECT
 10
10.586622
 20
3.104000
 30
0.000000
 41
0.029748
 42
0.031496
 43
1.000000
 50
180.000000
  0
INSERT
  8
31
  2
RECT
 10
10.525378
 20
3.104000
 30
0.000000
 41
0.029748
 42
0.031496
 43
1.000000
 50
180.000000
  0
INSERT
  8
31
  2
RECT
 10
10.586622
 20
3.204000
 30
0.000000
 41
0.029748
 42
0.031496
 43
1.000000
 50
180.000000
  0
INSERT
  8
31
  2
RECT
 10
10.525378
 20
3.204000
 30
0.000000
 41
0.029748
 42
0.031496
 43
1.000000
 50
180.000000
  0
INSERT
  8
31
  2
RECT
 10
10.586622
 20
3.304000
 30
0.000000
 41
0.029748
 42
0.031496
 43
1.000000
 50
180.000000
  0
INSERT
  8
31
  2
RECT
 10
10.525378
 20
3.304000
 30
0.000000
 41
0.029748
 42
0.031496
 43
1.000000
 50
180.000000
  0
INSERT
  8
31
  2
RECT
 10
10.586622
 20
3.404000
 30
0.000000
 41
0.029748
 42
0.031496
 43
1.000000
 50
180.000000
  0
INSERT
  8
31
  2
RECT
 10
10.525378
 20
3.404000
 30
0.000000
 41
0.029748
 42
0.031496
 43
1.000000
 50
180.000000
  0
INSERT
  8
31
  2
RECT
 10
10.586622
 20
3.504000
 30
0.000000
 41
0.029748
 42
0.031496
 43
1.000000
 50
180.000000
  0
INSERT
  8
31
  2
RECT
 10
10.525378
 20
3.504000
 30
0.000000
 41
0.029748
 42
0.031496
 43
1.000000
 50
180.000000
  0
INSERT
  8
31
  2
RECT
 10
10.450748
 20
5.849000
 30
0.000000
 41
0.029748
 42
0.031496
 43
1.000000
 50
0.000000
  0
INSERT
  8
31
  2
RECT
 10
10.511992
 20
5.849000
 30
0.000000
 41
0.029748
 42
0.031496
 43
1.000000
 50
0.000000
  0
INSERT
  8
31
  2
RECT
 10
10.450748
 20
5.749000
 30
0.000000
 41
0.029748
 42
0.031496
 43
1.000000
 50
0.000000
  0
INSERT
  8
31
  2
RECT
 10
10.511992
 20
5.749000
 30
0.000000
 41
0.029748
 42
0.031496
 43
1.000000
 50
0.000000
  0
INSERT
  8
31
  2
RECT
 10
10.450748
 20
5.649000
 30
0.000000
 41
0.029748
 42
0.031496
 43
1.000000
 50
0.000000
  0
INSERT
  8
31
  2
RECT
 10
10.511992
 20
5.649000
 30
0.000000
 41
0.029748
 42
0.031496
 43
1.000000
 50
0.000000
  0
INSERT
  8
31
  2
RECT
 10
10.452008
 20
5.549000
 30
0.000000
 41
0.029748
 42
0.031496
 43
1.000000
 50
0.000000
  0
INSERT
  8
31
  2
RECT
 10
10.513252
 20
5.549000
 30
0.000000
 41
0.029748
 42
0.031496
 43
1.000000
 50
0.000000
  0
INSERT
  8
31
  2
RECT
 10
10.452008
 20
5.449000
 30
0.000000
 41
0.029748
 42
0.031496
 43
1.000000
 50
0.000000
  0
INSERT
  8
31
  2
RECT
 10
10.513252
 20
5.449000
 30
0.000000
 41
0.029748
 42
0.031496
 43
1.000000
 50
0.000000
  0
INSERT
  8
31
  2
RECT
 10
10.452008
 20
5.349000
 30
0.000000
 41
0.029748
 42
0.031496
 43
1.000000
 50
0.000000
  0
INSERT
  8
31
  2
RECT
 10
10.513252
 20
5.349000
 30
0.000000
 41
0.029748
 42
0.031496
 43
1.000000
 50
0.000000
  0
INSERT
  8
31
  2
RECT
 10
10.730000
 20
4.822122
 30
0.000000
 41
0.029748
 42
0.031496
 43
1.000000
 50
270.000000
  0
INSERT
  8
31
  2
RECT
 10
10.730000
 20
4.760878
 30
0.000000
 41
0.029748
 42
0.031496
 43
1.000000
 50
270.000000
  0
INSERT
  8
31
  2
RECT
 10
10.496000
 20
4.103378
 30
0.000000
 41
0.029748
 42
0.031496
 43
1.000000
 50
90.000000
  0
INSERT
  8
31
  2
RECT
 10
10.496000
 20
4.164622
 30
0.000000
 41
0.029748
 42
0.031496
 43
1.000000
 50
90.000000
  0
INSERT
  8
31
  2
RECT
 10
10.396000
 20
4.344622
 30
0.000000
 41
0.029748
 42
0.031496
 43
1.000000
 50
270.000000
  0
INSERT
  8
31
  2
RECT
 10
10.396000
 20
4.283378
 30
0.000000
 41
0.029748
 42
0.031496
 43
1.000000
 50
270.000000
  0
INSERT
  8
31
  2
RECT
 10
10.865086
 20
1.397991
 30
0.000000
 41
0.129921
 42
0.173228
 43
1.000000
 50
270.000000
  0
INSERT
  8
31
  2
RECT
 10
11.217448
 20
1.118463
 30
0.000000
 41
0.265748
 42
0.153543
 43
1.000000
 50
0.000000
  0
INSERT
  8
31
  2
RECT
 10
11.217448
 20
1.626337
 30
0.000000
 41
0.244094
 42
0.153543
 43
1.000000
 50
0.000000
  0
INSERT
  8
31
  2
RECT
 10
10.830000
 20
7.270000
 30
0.000000
 41
0.140000
 42
0.050000
 43
1.000000
 50
180.000000
  0
INSERT
  8
31
  2
RECT
 10
10.625000
 20
7.270000
 30
0.000000
 41
0.140000
 42
0.050000
 43
1.000000
 50
180.000000
  0
INSERT
  8
31
  2
RECT
 10
10.830000
 20
7.370000
 30
0.000000
 41
0.140000
 42
0.050000
 43
1.000000
 50
180.000000
  0
INSERT
  8
31
  2
RECT
 10
10.625000
 20
7.370000
 30
0.000000
 41
0.140000
 42
0.050000
 43
1.000000
 50
180.000000
  0
INSERT
  8
31
  2
RECT
 10
10.830000
 20
7.570000
 30
0.000000
 41
0.140000
 42
0.050000
 43
1.000000
 50
180.000000
  0
INSERT
  8
31
  2
RECT
 10
10.625000
 20
7.470000
 30
0.000000
 41
0.140000
 42
0.050000
 43
1.000000
 50
180.000000
  0
INSERT
  8
31
  2
RECT
 10
10.830000
 20
7.470000
 30
0.000000
 41
0.140000
 42
0.050000
 43
1.000000
 50
180.000000
  0
INSERT
  8
31
  2
RECT
 10
10.830000
 20
9.170000
 30
0.000000
 41
0.140000
 42
0.050000
 43
1.000000
 50
180.000000
  0
INSERT
  8
31
  2
RECT
 10
10.830000
 20
7.070000
 30
0.000000
 41
0.140000
 42
0.050000
 43
1.000000
 50
180.000000
  0
INSERT
  8
31
  2
RECT
 10
10.830000
 20
6.970000
 30
0.000000
 41
0.140000
 42
0.050000
 43
1.000000
 50
180.000000
  0
INSERT
  8
31
  2
RECT
 10
10.625000
 20
6.970000
 30
0.000000
 41
0.140000
 42
0.050000
 43
1.000000
 50
180.000000
  0
INSERT
  8
31
  2
RECT
 10
10.625000
 20
7.070000
 30
0.000000
 41
0.140000
 42
0.050000
 43
1.000000
 50
180.000000
  0
INSERT
  8
31
  2
RECT
 10
10.625000
 20
9.170000
 30
0.000000
 41
0.140000
 42
0.050000
 43
1.000000
 50
180.000000
  0
INSERT
  8
31
  2
RECT
 10
8.930000
 20
9.170000
 30
0.000000
 41
0.140000
 42
0.050000
 43
1.000000
 50
180.000000
  0
INSERT
  8
31
  2
RECT
 10
8.725000
 20
9.170000
 30
0.000000
 41
0.140000
 42
0.050000
 43
1.000000
 50
180.000000
  0
INSERT
  8
31
  2
RECT
 10
10.625000
 20
7.170000
 30
0.000000
 41
0.140000
 42
0.050000
 43
1.000000
 50
180.000000
  0
INSERT
  8
31
  2
RECT
 10
10.625000
 20
8.570000
 30
0.000000
 41
0.140000
 42
0.050000
 43
1.000000
 50
180.000000
  0
INSERT
  8
31
  2
RECT
 10
10.625000
 20
8.470000
 30
0.000000
 41
0.140000
 42
0.050000
 43
1.000000
 50
180.000000
  0
INSERT
  8
31
  2
RECT
 10
8.930000
 20
8.270000
 30
0.000000
 41
0.140000
 42
0.050000
 43
1.000000
 50
180.000000
  0
INSERT
  8
31
  2
RECT
 10
8.930000
 20
8.570000
 30
0.000000
 41
0.140000
 42
0.050000
 43
1.000000
 50
180.000000
  0
INSERT
  8
31
  2
RECT
 10
10.625000
 20
7.570000
 30
0.000000
 41
0.140000
 42
0.050000
 43
1.000000
 50
180.000000
  0
INSERT
  8
31
  2
RECT
 10
10.830000
 20
7.170000
 30
0.000000
 41
0.140000
 42
0.050000
 43
1.000000
 50
180.000000
  0
INSERT
  8
31
  2
RECT
 10
8.725000
 20
8.570000
 30
0.000000
 41
0.140000
 42
0.050000
 43
1.000000
 50
180.000000
  0
INSERT
  8
31
  2
RECT
 10
8.930000
 20
8.370000
 30
0.000000
 41
0.140000
 42
0.050000
 43
1.000000
 50
180.000000
  0
INSERT
  8
31
  2
RECT
 10
8.725000
 20
8.670000
 30
0.000000
 41
0.140000
 42
0.050000
 43
1.000000
 50
180.000000
  0
INSERT
  8
31
  2
RECT
 10
8.930000
 20
8.670000
 30
0.000000
 41
0.140000
 42
0.050000
 43
1.000000
 50
180.000000
  0
INSERT
  8
31
  2
RECT
 10
8.725000
 20
8.470000
 30
0.000000
 41
0.140000
 42
0.050000
 43
1.000000
 50
180.000000
  0
INSERT
  8
31
  2
RECT
 10
8.930000
 20
8.470000
 30
0.000000
 41
0.140000
 42
0.050000
 43
1.000000
 50
180.000000
  0
INSERT
  8
31
  2
RECT
 10
10.830000
 20
8.470000
 30
0.000000
 41
0.140000
 42
0.050000
 43
1.000000
 50
180.000000
  0
INSERT
  8
31
  2
RECT
 10
10.830000
 20
8.070000
 30
0.000000
 41
0.140000
 42
0.050000
 43
1.000000
 50
180.000000
  0
INSERT
  8
31
  2
RECT
 10
10.625000
 20
8.670000
 30
0.000000
 41
0.140000
 42
0.050000
 43
1.000000
 50
180.000000
  0
INSERT
  8
31
  2
RECT
 10
8.725000
 20
7.970000
 30
0.000000
 41
0.140000
 42
0.050000
 43
1.000000
 50
180.000000
  0
INSERT
  8
31
  2
RECT
 10
8.725000
 20
8.370000
 30
0.000000
 41
0.140000
 42
0.050000
 43
1.000000
 50
180.000000
  0
INSERT
  8
31
  2
RECT
 10
8.930000
 20
8.870000
 30
0.000000
 41
0.140000
 42
0.050000
 43
1.000000
 50
180.000000
  0
INSERT
  8
31
  2
RECT
 10
8.725000
 20
8.870000
 30
0.000000
 41
0.140000
 42
0.050000
 43
1.000000
 50
180.000000
  0
INSERT
  8
31
  2
RECT
 10
8.725000
 20
8.770000
 30
0.000000
 41
0.140000
 42
0.050000
 43
1.000000
 50
180.000000
  0
INSERT
  8
31
  2
RECT
 10
8.930000
 20
8.770000
 30
0.000000
 41
0.140000
 42
0.050000
 43
1.000000
 50
180.000000
  0
INSERT
  8
31
  2
RECT
 10
10.625000
 20
7.770000
 30
0.000000
 41
0.140000
 42
0.050000
 43
1.000000
 50
180.000000
  0
INSERT
  8
31
  2
RECT
 10
10.830000
 20
7.870000
 30
0.000000
 41
0.140000
 42
0.050000
 43
1.000000
 50
180.000000
  0
INSERT
  8
31
  2
RECT
 10
10.830000
 20
7.970000
 30
0.000000
 41
0.140000
 42
0.050000
 43
1.000000
 50
180.000000
  0
INSERT
  8
31
  2
RECT
 10
10.830000
 20
8.270000
 30
0.000000
 41
0.140000
 42
0.050000
 43
1.000000
 50
180.000000
  0
INSERT
  8
31
  2
RECT
 10
10.625000
 20
8.270000
 30
0.000000
 41
0.140000
 42
0.050000
 43
1.000000
 50
180.000000
  0
INSERT
  8
31
  2
RECT
 10
8.725000
 20
7.770000
 30
0.000000
 41
0.140000
 42
0.050000
 43
1.000000
 50
180.000000
  0
INSERT
  8
31
  2
RECT
 10
8.930000
 20
6.970000
 30
0.000000
 41
0.140000
 42
0.050000
 43
1.000000
 50
180.000000
  0
INSERT
  8
31
  2
RECT
 10
8.725000
 20
6.970000
 30
0.000000
 41
0.140000
 42
0.050000
 43
1.000000
 50
180.000000
  0
INSERT
  8
31
  2
RECT
 10
8.930000
 20
7.070000
 30
0.000000
 41
0.140000
 42
0.050000
 43
1.000000
 50
180.000000
  0
INSERT
  8
31
  2
RECT
 10
8.725000
 20
7.070000
 30
0.000000
 41
0.140000
 42
0.050000
 43
1.000000
 50
180.000000
  0
INSERT
  8
31
  2
RECT
 10
8.930000
 20
7.170000
 30
0.000000
 41
0.140000
 42
0.050000
 43
1.000000
 50
180.000000
  0
INSERT
  8
31
  2
RECT
 10
8.725000
 20
7.170000
 30
0.000000
 41
0.140000
 42
0.050000
 43
1.000000
 50
180.000000
  0
INSERT
  8
31
  2
RECT
 10
8.930000
 20
7.270000
 30
0.000000
 41
0.140000
 42
0.050000
 43
1.000000
 50
180.000000
  0
INSERT
  8
31
  2
RECT
 10
8.725000
 20
7.270000
 30
0.000000
 41
0.140000
 42
0.050000
 43
1.000000
 50
180.000000
  0
INSERT
  8
31
  2
RECT
 10
8.930000
 20
7.370000
 30
0.000000
 41
0.140000
 42
0.050000
 43
1.000000
 50
180.000000
  0
INSERT
  8
31
  2
RECT
 10
8.725000
 20
7.370000
 30
0.000000
 41
0.140000
 42
0.050000
 43
1.000000
 50
180.000000
  0
INSERT
  8
31
  2
RECT
 10
8.725000
 20
7.470000
 30
0.000000
 41
0.140000
 42
0.050000
 43
1.000000
 50
180.000000
  0
INSERT
  8
31
  2
RECT
 10
8.725000
 20
7.570000
 30
0.000000
 41
0.140000
 42
0.050000
 43
1.000000
 50
180.000000
  0
INSERT
  8
31
  2
RECT
 10
8.930000
 20
7.470000
 30
0.000000
 41
0.140000
 42
0.050000
 43
1.000000
 50
180.000000
  0
INSERT
  8
31
  2
RECT
 10
8.930000
 20
7.570000
 30
0.000000
 41
0.140000
 42
0.050000
 43
1.000000
 50
180.000000
  0
INSERT
  8
31
  2
RECT
 10
8.930000
 20
7.670000
 30
0.000000
 41
0.140000
 42
0.050000
 43
1.000000
 50
180.000000
  0
INSERT
  8
31
  2
RECT
 10
8.725000
 20
7.670000
 30
0.000000
 41
0.140000
 42
0.050000
 43
1.000000
 50
180.000000
  0
INSERT
  8
31
  2
RECT
 10
8.930000
 20
7.770000
 30
0.000000
 41
0.140000
 42
0.050000
 43
1.000000
 50
180.000000
  0
INSERT
  8
31
  2
RECT
 10
8.725000
 20
7.870000
 30
0.000000
 41
0.140000
 42
0.050000
 43
1.000000
 50
180.000000
  0
INSERT
  8
31
  2
RECT
 10
8.930000
 20
7.870000
 30
0.000000
 41
0.140000
 42
0.050000
 43
1.000000
 50
180.000000
  0
INSERT
  8
31
  2
RECT
 10
8.930000
 20
8.170000
 30
0.000000
 41
0.140000
 42
0.050000
 43
1.000000
 50
180.000000
  0
INSERT
  8
31
  2
RECT
 10
8.725000
 20
8.270000
 30
0.000000
 41
0.140000
 42
0.050000
 43
1.000000
 50
180.000000
  0
INSERT
  8
31
  2
RECT
 10
8.930000
 20
7.970000
 30
0.000000
 41
0.140000
 42
0.050000
 43
1.000000
 50
180.000000
  0
INSERT
  8
31
  2
RECT
 10
8.725000
 20
8.070000
 30
0.000000
 41
0.140000
 42
0.050000
 43
1.000000
 50
180.000000
  0
INSERT
  8
31
  2
RECT
 10
8.930000
 20
8.970000
 30
0.000000
 41
0.140000
 42
0.050000
 43
1.000000
 50
180.000000
  0
INSERT
  8
31
  2
RECT
 10
8.725000
 20
8.970000
 30
0.000000
 41
0.140000
 42
0.050000
 43
1.000000
 50
180.000000
  0
INSERT
  8
31
  2
RECT
 10
8.930000
 20
8.070000
 30
0.000000
 41
0.140000
 42
0.050000
 43
1.000000
 50
180.000000
  0
INSERT
  8
31
  2
RECT
 10
8.725000
 20
8.170000
 30
0.000000
 41
0.140000
 42
0.050000
 43
1.000000
 50
180.000000
  0
INSERT
  8
31
  2
RECT
 10
8.930000
 20
9.070000
 30
0.000000
 41
0.140000
 42
0.050000
 43
1.000000
 50
180.000000
  0
INSERT
  8
31
  2
RECT
 10
8.725000
 20
9.070000
 30
0.000000
 41
0.140000
 42
0.050000
 43
1.000000
 50
180.000000
  0
INSERT
  8
31
  2
RECT
 10
10.830000
 20
8.770000
 30
0.000000
 41
0.140000
 42
0.050000
 43
1.000000
 50
180.000000
  0
INSERT
  8
31
  2
RECT
 10
10.625000
 20
7.870000
 30
0.000000
 41
0.140000
 42
0.050000
 43
1.000000
 50
180.000000
  0
INSERT
  8
31
  2
RECT
 10
10.830000
 20
7.770000
 30
0.000000
 41
0.140000
 42
0.050000
 43
1.000000
 50
180.000000
  0
INSERT
  8
31
  2
RECT
 10
10.830000
 20
7.670000
 30
0.000000
 41
0.140000
 42
0.050000
 43
1.000000
 50
180.000000
  0
INSERT
  8
31
  2
RECT
 10
10.830000
 20
8.370000
 30
0.000000
 41
0.140000
 42
0.050000
 43
1.000000
 50
180.000000
  0
INSERT
  8
31
  2
RECT
 10
10.625000
 20
8.370000
 30
0.000000
 41
0.140000
 42
0.050000
 43
1.000000
 50
180.000000
  0
INSERT
  8
31
  2
RECT
 10
10.830000
 20
8.170000
 30
0.000000
 41
0.140000
 42
0.050000
 43
1.000000
 50
180.000000
  0
INSERT
  8
31
  2
RECT
 10
10.625000
 20
8.170000
 30
0.000000
 41
0.140000
 42
0.050000
 43
1.000000
 50
180.000000
  0
INSERT
  8
31
  2
RECT
 10
10.830000
 20
8.870000
 30
0.000000
 41
0.140000
 42
0.050000
 43
1.000000
 50
180.000000
  0
INSERT
  8
31
  2
RECT
 10
10.625000
 20
8.870000
 30
0.000000
 41
0.140000
 42
0.050000
 43
1.000000
 50
180.000000
  0
INSERT
  8
31
  2
RECT
 10
10.625000
 20
8.770000
 30
0.000000
 41
0.140000
 42
0.050000
 43
1.000000
 50
180.000000
  0
INSERT
  8
31
  2
RECT
 10
10.625000
 20
7.970000
 30
0.000000
 41
0.140000
 42
0.050000
 43
1.000000
 50
180.000000
  0
INSERT
  8
31
  2
RECT
 10
10.625000
 20
8.070000
 30
0.000000
 41
0.140000
 42
0.050000
 43
1.000000
 50
180.000000
  0
INSERT
  8
31
  2
RECT
 10
10.830000
 20
8.670000
 30
0.000000
 41
0.140000
 42
0.050000
 43
1.000000
 50
180.000000
  0
INSERT
  8
31
  2
RECT
 10
10.830000
 20
8.570000
 30
0.000000
 41
0.140000
 42
0.050000
 43
1.000000
 50
180.000000
  0
INSERT
  8
31
  2
RECT
 10
10.625000
 20
9.070000
 30
0.000000
 41
0.140000
 42
0.050000
 43
1.000000
 50
180.000000
  0
INSERT
  8
31
  2
RECT
 10
10.830000
 20
9.070000
 30
0.000000
 41
0.140000
 42
0.050000
 43
1.000000
 50
180.000000
  0
INSERT
  8
31
  2
RECT
 10
10.830000
 20
8.970000
 30
0.000000
 41
0.140000
 42
0.050000
 43
1.000000
 50
180.000000
  0
INSERT
  8
31
  2
RECT
 10
10.625000
 20
8.970000
 30
0.000000
 41
0.140000
 42
0.050000
 43
1.000000
 50
180.000000
  0
INSERT
  8
31
  2
RECT
 10
10.625000
 20
7.670000
 30
0.000000
 41
0.140000
 42
0.050000
 43
1.000000
 50
180.000000
  0
INSERT
  8
31
  2
RECT
 10
1.780448
 20
8.763400
 30
0.000000
 41
0.078000
 42
0.016000
 43
1.000000
 50
270.000000
  0
INSERT
  8
31
  2
RECT
 10
1.754858
 20
8.763400
 30
0.000000
 41
0.078000
 42
0.016000
 43
1.000000
 50
270.000000
  0
INSERT
  8
31
  2
RECT
 10
1.729267
 20
8.763400
 30
0.000000
 41
0.078000
 42
0.016000
 43
1.000000
 50
270.000000
  0
INSERT
  8
31
  2
RECT
 10
1.703676
 20
8.763400
 30
0.000000
 41
0.078000
 42
0.016000
 43
1.000000
 50
270.000000
  0
INSERT
  8
31
  2
RECT
 10
1.678086
 20
8.763400
 30
0.000000
 41
0.078000
 42
0.016000
 43
1.000000
 50
270.000000
  0
INSERT
  8
31
  2
RECT
 10
1.652495
 20
8.763400
 30
0.000000
 41
0.078000
 42
0.016000
 43
1.000000
 50
270.000000
  0
INSERT
  8
31
  2
RECT
 10
1.626905
 20
8.763400
 30
0.000000
 41
0.078000
 42
0.016000
 43
1.000000
 50
270.000000
  0
INSERT
  8
31
  2
RECT
 10
1.601314
 20
8.763400
 30
0.000000
 41
0.078000
 42
0.016000
 43
1.000000
 50
270.000000
  0
INSERT
  8
31
  2
RECT
 10
1.575724
 20
8.763400
 30
0.000000
 41
0.078000
 42
0.016000
 43
1.000000
 50
270.000000
  0
INSERT
  8
31
  2
RECT
 10
1.550133
 20
8.763400
 30
0.000000
 41
0.078000
 42
0.016000
 43
1.000000
 50
270.000000
  0
INSERT
  8
31
  2
RECT
 10
1.524543
 20
8.763400
 30
0.000000
 41
0.078000
 42
0.016000
 43
1.000000
 50
270.000000
  0
INSERT
  8
31
  2
RECT
 10
1.498952
 20
8.763400
 30
0.000000
 41
0.078000
 42
0.016000
 43
1.000000
 50
270.000000
  0
INSERT
  8
31
  2
RECT
 10
1.498952
 20
8.537400
 30
0.000000
 41
0.078000
 42
0.016000
 43
1.000000
 50
270.000000
  0
INSERT
  8
31
  2
RECT
 10
1.524543
 20
8.537400
 30
0.000000
 41
0.078000
 42
0.016000
 43
1.000000
 50
270.000000
  0
INSERT
  8
31
  2
RECT
 10
1.550133
 20
8.537400
 30
0.000000
 41
0.078000
 42
0.016000
 43
1.000000
 50
270.000000
  0
INSERT
  8
31
  2
RECT
 10
1.575724
 20
8.537400
 30
0.000000
 41
0.078000
 42
0.016000
 43
1.000000
 50
270.000000
  0
INSERT
  8
31
  2
RECT
 10
1.601314
 20
8.537400
 30
0.000000
 41
0.078000
 42
0.016000
 43
1.000000
 50
270.000000
  0
INSERT
  8
31
  2
RECT
 10
1.626905
 20
8.537400
 30
0.000000
 41
0.078000
 42
0.016000
 43
1.000000
 50
270.000000
  0
INSERT
  8
31
  2
RECT
 10
1.652495
 20
8.537400
 30
0.000000
 41
0.078000
 42
0.016000
 43
1.000000
 50
270.000000
  0
INSERT
  8
31
  2
RECT
 10
1.678086
 20
8.537400
 30
0.000000
 41
0.078000
 42
0.016000
 43
1.000000
 50
270.000000
  0
INSERT
  8
31
  2
RECT
 10
1.703676
 20
8.537400
 30
0.000000
 41
0.078000
 42
0.016000
 43
1.000000
 50
270.000000
  0
INSERT
  8
31
  2
RECT
 10
1.729267
 20
8.537400
 30
0.000000
 41
0.078000
 42
0.016000
 43
1.000000
 50
270.000000
  0
INSERT
  8
31
  2
RECT
 10
1.754857
 20
8.537400
 30
0.000000
 41
0.078000
 42
0.016000
 43
1.000000
 50
270.000000
  0
INSERT
  8
31
  2
RECT
 10
1.780448
 20
8.537400
 30
0.000000
 41
0.078000
 42
0.016000
 43
1.000000
 50
270.000000
  0
INSERT
  8
31
  2
RECT
 10
5.648583
 20
9.600500
 30
0.000000
 41
0.037000
 42
0.067000
 43
1.000000
 50
180.000000
  0
INSERT
  8
31
  2
RECT
 10
5.471417
 20
9.600500
 30
0.000000
 41
0.037000
 42
0.067000
 43
1.000000
 50
180.000000
  0
INSERT
  8
31
  2
RECT
 10
5.560000
 20
9.360000
 30
0.000000
 41
0.262000
 42
0.304000
 43
1.000000
 50
180.000000
  0
INSERT
  8
31
  2
RECT
 10
0.808583
 20
2.220500
 30
0.000000
 41
0.037000
 42
0.067000
 43
1.000000
 50
180.000000
  0
INSERT
  8
31
  2
RECT
 10
0.631417
 20
2.220500
 30
0.000000
 41
0.037000
 42
0.067000
 43
1.000000
 50
180.000000
  0
INSERT
  8
31
  2
RECT
 10
0.720000
 20
1.980000
 30
0.000000
 41
0.262000
 42
0.304000
 43
1.000000
 50
180.000000
  0
INSERT
  8
31
  2
RECT
 10
1.653000
 20
7.814843
 30
0.000000
 41
0.078000
 42
0.016000
 43
1.000000
 50
180.000000
  0
INSERT
  8
31
  2
RECT
 10
1.653000
 20
7.840433
 30
0.000000
 41
0.078000
 42
0.016000
 43
1.000000
 50
180.000000
  0
INSERT
  8
31
  2
RECT
 10
1.653000
 20
7.866024
 30
0.000000
 41
0.078000
 42
0.016000
 43
1.000000
 50
180.000000
  0
INSERT
  8
31
  2
RECT
 10
1.653000
 20
7.891614
 30
0.000000
 41
0.078000
 42
0.016000
 43
1.000000
 50
180.000000
  0
INSERT
  8
31
  2
RECT
 10
1.653000
 20
7.917205
 30
0.000000
 41
0.078000
 42
0.016000
 43
1.000000
 50
180.000000
  0
INSERT
  8
31
  2
RECT
 10
1.653000
 20
7.942795
 30
0.000000
 41
0.078000
 42
0.016000
 43
1.000000
 50
180.000000
  0
INSERT
  8
31
  2
RECT
 10
1.653000
 20
7.968386
 30
0.000000
 41
0.078000
 42
0.016000
 43
1.000000
 50
180.000000
  0
INSERT
  8
31
  2
RECT
 10
1.653000
 20
7.993976
 30
0.000000
 41
0.078000
 42
0.016000
 43
1.000000
 50
180.000000
  0
INSERT
  8
31
  2
RECT
 10
1.653000
 20
8.019567
 30
0.000000
 41
0.078000
 42
0.016000
 43
1.000000
 50
180.000000
  0
INSERT
  8
31
  2
RECT
 10
1.653000
 20
8.045157
 30
0.000000
 41
0.078000
 42
0.016000
 43
1.000000
 50
180.000000
  0
INSERT
  8
31
  2
RECT
 10
1.427000
 20
8.045157
 30
0.000000
 41
0.078000
 42
0.016000
 43
1.000000
 50
180.000000
  0
INSERT
  8
31
  2
RECT
 10
1.427000
 20
8.019567
 30
0.000000
 41
0.078000
 42
0.016000
 43
1.000000
 50
180.000000
  0
INSERT
  8
31
  2
RECT
 10
1.427000
 20
7.993976
 30
0.000000
 41
0.078000
 42
0.016000
 43
1.000000
 50
180.000000
  0
INSERT
  8
31
  2
RECT
 10
1.427000
 20
7.968386
 30
0.000000
 41
0.078000
 42
0.016000
 43
1.000000
 50
180.000000
  0
INSERT
  8
31
  2
RECT
 10
1.427000
 20
7.942795
 30
0.000000
 41
0.078000
 42
0.016000
 43
1.000000
 50
180.000000
  0
INSERT
  8
31
  2
RECT
 10
1.427000
 20
7.917205
 30
0.000000
 41
0.078000
 42
0.016000
 43
1.000000
 50
180.000000
  0
INSERT
  8
31
  2
RECT
 10
1.427000
 20
7.891614
 30
0.000000
 41
0.078000
 42
0.016000
 43
1.000000
 50
180.000000
  0
INSERT
  8
31
  2
RECT
 10
1.427000
 20
7.866024
 30
0.000000
 41
0.078000
 42
0.016000
 43
1.000000
 50
180.000000
  0
INSERT
  8
31
  2
RECT
 10
1.427000
 20
7.840433
 30
0.000000
 41
0.078000
 42
0.016000
 43
1.000000
 50
180.000000
  0
INSERT
  8
31
  2
RECT
 10
1.427000
 20
7.814843
 30
0.000000
 41
0.078000
 42
0.016000
 43
1.000000
 50
180.000000
  0
INSERT
  8
31
  2
RECT
 10
4.969500
 20
0.918583
 30
0.000000
 41
0.037000
 42
0.067000
 43
1.000000
 50
270.000000
  0
INSERT
  8
31
  2
RECT
 10
4.969500
 20
0.741417
 30
0.000000
 41
0.037000
 42
0.067000
 43
1.000000
 50
270.000000
  0
INSERT
  8
31
  2
RECT
 10
5.210000
 20
0.830000
 30
0.000000
 41
0.262000
 42
0.304000
 43
1.000000
 50
270.000000
  0
INSERT
  8
31
  2
RECT
 10
9.931417
 20
8.629500
 30
0.000000
 41
0.037000
 42
0.067000
 43
1.000000
 50
0.000000
  0
INSERT
  8
31
  2
RECT
 10
10.108583
 20
8.629500
 30
0.000000
 41
0.037000
 42
0.067000
 43
1.000000
 50
0.000000
  0
INSERT
  8
31
  2
RECT
 10
10.020000
 20
8.870000
 30
0.000000
 41
0.262000
 42
0.304000
 43
1.000000
 50
0.000000
  0
INSERT
  8
31
  2
RECT
 10
9.801417
 20
7.669500
 30
0.000000
 41
0.037000
 42
0.067000
 43
1.000000
 50
0.000000
  0
INSERT
  8
31
  2
RECT
 10
9.978583
 20
7.669500
 30
0.000000
 41
0.037000
 42
0.067000
 43
1.000000
 50
0.000000
  0
INSERT
  8
31
  2
RECT
 10
9.890000
 20
7.910000
 30
0.000000
 41
0.262000
 42
0.304000
 43
1.000000
 50
0.000000
  0
INSERT
  8
31
  2
RECT
 10
1.823261
 20
4.216944
 30
0.000000
 41
0.015748
 42
0.023622
 43
1.000000
 50
90.000000
  0
INSERT
  8
31
  2
RECT
 10
1.823261
 20
4.193322
 30
0.000000
 41
0.015748
 42
0.023622
 43
1.000000
 50
90.000000
  0
INSERT
  8
31
  2
RECT
 10
1.823261
 20
4.169700
 30
0.000000
 41
0.015748
 42
0.023622
 43
1.000000
 50
90.000000
  0
INSERT
  8
31
  2
RECT
 10
1.823261
 20
4.146078
 30
0.000000
 41
0.015748
 42
0.023622
 43
1.000000
 50
90.000000
  0
INSERT
  8
31
  2
RECT
 10
1.823261
 20
4.122456
 30
0.000000
 41
0.015748
 42
0.023622
 43
1.000000
 50
90.000000
  0
INSERT
  8
31
  2
RECT
 10
1.905938
 20
4.122456
 30
0.000000
 41
0.015748
 42
0.023622
 43
1.000000
 50
90.000000
  0
INSERT
  8
31
  2
RECT
 10
1.905938
 20
4.146078
 30
0.000000
 41
0.015748
 42
0.023622
 43
1.000000
 50
90.000000
  0
INSERT
  8
31
  2
RECT
 10
1.905938
 20
4.169700
 30
0.000000
 41
0.015748
 42
0.023622
 43
1.000000
 50
90.000000
  0
INSERT
  8
31
  2
RECT
 10
1.905938
 20
4.193322
 30
0.000000
 41
0.015748
 42
0.023622
 43
1.000000
 50
90.000000
  0
INSERT
  8
31
  2
RECT
 10
1.905938
 20
4.216944
 30
0.000000
 41
0.015748
 42
0.023622
 43
1.000000
 50
90.000000
  0
INSERT
  8
31
  2
RECT
 10
1.864600
 20
4.169700
 30
0.000000
 41
0.015748
 42
0.023622
 43
1.000000
 50
90.000000
  0
INSERT
  8
31
  2
RECT
 10
1.967750
 20
4.640330
 30
0.000000
 41
0.015748
 42
0.023622
 43
1.000000
 50
270.000000
  0
INSERT
  8
31
  2
RECT
 10
1.967750
 20
4.679700
 30
0.000000
 41
0.015748
 42
0.023622
 43
1.000000
 50
270.000000
  0
INSERT
  8
31
  2
RECT
 10
1.967750
 20
4.719070
 30
0.000000
 41
0.015748
 42
0.023622
 43
1.000000
 50
270.000000
  0
INSERT
  8
31
  2
RECT
 10
1.861450
 20
4.719070
 30
0.000000
 41
0.015748
 42
0.023622
 43
1.000000
 50
270.000000
  0
INSERT
  8
31
  2
RECT
 10
1.861450
 20
4.679700
 30
0.000000
 41
0.015748
 42
0.023622
 43
1.000000
 50
270.000000
  0
INSERT
  8
31
  2
RECT
 10
1.861450
 20
4.640330
 30
0.000000
 41
0.015748
 42
0.023622
 43
1.000000
 50
270.000000
  0
INSERT
  8
31
  2
RECT
 10
1.819482
 20
3.459070
 30
0.000000
 41
0.011811
 42
0.015748
 43
1.000000
 50
90.000000
  0
INSERT
  8
31
  2
RECT
 10
1.819482
 20
3.419700
 30
0.000000
 41
0.011811
 42
0.015748
 43
1.000000
 50
90.000000
  0
INSERT
  8
31
  2
RECT
 10
1.819482
 20
3.380330
 30
0.000000
 41
0.011811
 42
0.015748
 43
1.000000
 50
90.000000
  0
INSERT
  8
31
  2
RECT
 10
1.929718
 20
3.380330
 30
0.000000
 41
0.011811
 42
0.015748
 43
1.000000
 50
90.000000
  0
INSERT
  8
31
  2
RECT
 10
1.929718
 20
3.419700
 30
0.000000
 41
0.011811
 42
0.015748
 43
1.000000
 50
90.000000
  0
INSERT
  8
31
  2
RECT
 10
1.929718
 20
3.459070
 30
0.000000
 41
0.011811
 42
0.015748
 43
1.000000
 50
90.000000
  0
INSERT
  8
31
  2
RECT
 10
1.874600
 20
3.419700
 30
0.000000
 41
0.050000
 42
0.065000
 43
1.000000
 50
180.000000
  0
INSERT
  8
31
  2
RECT
 10
1.710551
 20
9.736000
 30
0.000000
 41
0.063000
 42
0.033000
 43
1.000000
 50
270.000000
  0
INSERT
  8
31
  2
RECT
 10
1.620000
 20
9.736000
 30
0.000000
 41
0.063000
 42
0.033000
 43
1.000000
 50
270.000000
  0
INSERT
  8
31
  2
RECT
 10
1.529449
 20
9.736000
 30
0.000000
 41
0.063000
 42
0.033000
 43
1.000000
 50
270.000000
  0
INSERT
  8
31
  2
RECT
 10
1.620000
 20
9.484000
 30
0.000000
 41
0.063000
 42
0.122000
 43
1.000000
 50
270.000000
  0
INSERT
  8
31
  2
RECT
 10
10.535567
 20
3.944157
 30
0.000000
 41
0.047244
 42
0.013780
 43
1.000000
 50
270.000000
  0
INSERT
  8
31
  2
RECT
 10
10.509976
 20
3.944157
 30
0.000000
 41
0.047244
 42
0.013780
 43
1.000000
 50
270.000000
  0
INSERT
  8
31
  2
RECT
 10
10.484386
 20
3.944157
 30
0.000000
 41
0.047244
 42
0.013780
 43
1.000000
 50
270.000000
  0
INSERT
  8
31
  2
RECT
 10
10.458795
 20
3.944157
 30
0.000000
 41
0.047244
 42
0.013780
 43
1.000000
 50
270.000000
  0
INSERT
  8
31
  2
RECT
 10
10.433205
 20
3.944157
 30
0.000000
 41
0.047244
 42
0.013780
 43
1.000000
 50
90.000000
  0
INSERT
  8
31
  2
RECT
 10
10.407614
 20
3.944157
 30
0.000000
 41
0.047244
 42
0.013780
 43
1.000000
 50
90.000000
  0
INSERT
  8
31
  2
RECT
 10
10.382024
 20
3.944157
 30
0.000000
 41
0.047244
 42
0.013780
 43
1.000000
 50
90.000000
  0
INSERT
  8
31
  2
RECT
 10
10.356433
 20
3.944157
 30
0.000000
 41
0.047244
 42
0.013780
 43
1.000000
 50
90.000000
  0
INSERT
  8
31
  2
RECT
 10
10.356433
 20
3.713843
 30
0.000000
 41
0.047244
 42
0.013780
 43
1.000000
 50
90.000000
  0
INSERT
  8
31
  2
RECT
 10
10.382024
 20
3.713843
 30
0.000000
 41
0.047244
 42
0.013780
 43
1.000000
 50
90.000000
  0
INSERT
  8
31
  2
RECT
 10
10.407614
 20
3.713843
 30
0.000000
 41
0.047244
 42
0.013780
 43
1.000000
 50
90.000000
  0
INSERT
  8
31
  2
RECT
 10
10.433205
 20
3.713843
 30
0.000000
 41
0.047244
 42
0.013780
 43
1.000000
 50
90.000000
  0
INSERT
  8
31
  2
RECT
 10
10.458795
 20
3.713843
 30
0.000000
 41
0.047244
 42
0.013780
 43
1.000000
 50
270.000000
  0
INSERT
  8
31
  2
RECT
 10
10.484386
 20
3.713843
 30
0.000000
 41
0.047244
 42
0.013780
 43
1.000000
 50
270.000000
  0
INSERT
  8
31
  2
RECT
 10
10.509976
 20
3.713843
 30
0.000000
 41
0.047244
 42
0.013780
 43
1.000000
 50
270.000000
  0
INSERT
  8
31
  2
RECT
 10
10.535567
 20
3.713843
 30
0.000000
 41
0.047244
 42
0.013780
 43
1.000000
 50
270.000000
  0
INSERT
  8
31
  2
RECT
 10
10.435126
 20
4.950339
 30
0.000000
 41
0.012000
 42
0.039000
 43
1.000000
 50
270.000000
  0
INSERT
  8
31
  2
RECT
 10
10.435126
 20
4.924748
 30
0.000000
 41
0.012000
 42
0.039000
 43
1.000000
 50
270.000000
  0
INSERT
  8
31
  2
RECT
 10
10.435126
 20
4.899157
 30
0.000000
 41
0.012000
 42
0.039000
 43
1.000000
 50
270.000000
  0
INSERT
  8
31
  2
RECT
 10
10.435126
 20
4.873567
 30
0.000000
 41
0.012000
 42
0.039000
 43
1.000000
 50
270.000000
  0
INSERT
  8
31
  2
RECT
 10
10.435126
 20
4.847976
 30
0.000000
 41
0.012000
 42
0.039000
 43
1.000000
 50
270.000000
  0
INSERT
  8
31
  2
RECT
 10
10.435126
 20
4.822386
 30
0.000000
 41
0.012000
 42
0.039000
 43
1.000000
 50
270.000000
  0
INSERT
  8
31
  2
RECT
 10
10.435126
 20
4.796795
 30
0.000000
 41
0.012000
 42
0.039000
 43
1.000000
 50
270.000000
  0
INSERT
  8
31
  2
RECT
 10
10.435126
 20
4.771205
 30
0.000000
 41
0.012000
 42
0.039000
 43
1.000000
 50
270.000000
  0
INSERT
  8
31
  2
RECT
 10
10.435126
 20
4.745614
 30
0.000000
 41
0.012000
 42
0.039000
 43
1.000000
 50
270.000000
  0
INSERT
  8
31
  2
RECT
 10
10.435126
 20
4.720024
 30
0.000000
 41
0.012000
 42
0.039000
 43
1.000000
 50
270.000000
  0
INSERT
  8
31
  2
RECT
 10
10.435126
 20
4.694433
 30
0.000000
 41
0.012000
 42
0.039000
 43
1.000000
 50
270.000000
  0
INSERT
  8
31
  2
RECT
 10
10.435126
 20
4.668843
 30
0.000000
 41
0.012000
 42
0.039000
 43
1.000000
 50
270.000000
  0
INSERT
  8
31
  2
RECT
 10
10.435126
 20
4.643252
 30
0.000000
 41
0.012000
 42
0.039000
 43
1.000000
 50
270.000000
  0
INSERT
  8
31
  2
RECT
 10
10.435126
 20
4.617661
 30
0.000000
 41
0.012000
 42
0.039000
 43
1.000000
 50
270.000000
  0
INSERT
  8
31
  2
RECT
 10
10.664874
 20
4.617661
 30
0.000000
 41
0.012000
 42
0.039000
 43
1.000000
 50
270.000000
  0
INSERT
  8
31
  2
RECT
 10
10.664874
 20
4.643252
 30
0.000000
 41
0.012000
 42
0.039000
 43
1.000000
 50
270.000000
  0
INSERT
  8
31
  2
RECT
 10
10.664874
 20
4.668843
 30
0.000000
 41
0.012000
 42
0.039000
 43
1.000000
 50
270.000000
  0
INSERT
  8
31
  2
RECT
 10
10.664874
 20
4.694433
 30
0.000000
 41
0.012000
 42
0.039000
 43
1.000000
 50
270.000000
  0
INSERT
  8
31
  2
RECT
 10
10.664874
 20
4.720024
 30
0.000000
 41
0.012000
 42
0.039000
 43
1.000000
 50
270.000000
  0
INSERT
  8
31
  2
RECT
 10
10.664874
 20
4.745614
 30
0.000000
 41
0.012000
 42
0.039000
 43
1.000000
 50
270.000000
  0
INSERT
  8
31
  2
RECT
 10
10.664874
 20
4.771205
 30
0.000000
 41
0.012000
 42
0.039000
 43
1.000000
 50
270.000000
  0
INSERT
  8
31
  2
RECT
 10
10.664874
 20
4.796795
 30
0.000000
 41
0.012000
 42
0.039000
 43
1.000000
 50
270.000000
  0
INSERT
  8
31
  2
RECT
 10
10.664874
 20
4.822386
 30
0.000000
 41
0.012000
 42
0.039000
 43
1.000000
 50
270.000000
  0
INSERT
  8
31
  2
RECT
 10
10.664874
 20
4.847976
 30
0.000000
 41
0.012000
 42
0.039000
 43
1.000000
 50
270.000000
  0
INSERT
  8
31
  2
RECT
 10
10.664874
 20
4.873567
 30
0.000000
 41
0.012000
 42
0.039000
 43
1.000000
 50
270.000000
  0
INSERT
  8
31
  2
RECT
 10
10.664874
 20
4.899157
 30
0.000000
 41
0.012000
 42
0.039000
 43
1.000000
 50
270.000000
  0
INSERT
  8
31
  2
RECT
 10
10.664874
 20
4.924748
 30
0.000000
 41
0.012000
 42
0.039000
 43
1.000000
 50
270.000000
  0
INSERT
  8
31
  2
RECT
 10
10.664874
 20
4.950339
 30
0.000000
 41
0.012000
 42
0.039000
 43
1.000000
 50
270.000000
  0
ENDSEC
  0
EOF
