  0
SECTION
  2
HEADER
  9
$ACADVER
  1
AC1009
  9
$DWGCODEPAGE
  3
ansi_1252
  9
$INSBASE
 10
0.0
 20
0.0
 30
0.0
  9
$EXTMIN
 10
0.0
 20
-0.25
 30
0.0
  9
$EXTMAX
 10
1.968503937
 20
8.124015748
 30
0.0
  9
$LIMMIN
 10
0.0
 20
0.0
  9
$LIMMAX
 10
12.0
 20
9.0
  9
$ORTHOMODE
 70
     0
  9
$REGENMODE
 70
     1
  9
$FILLMODE
 70
     1
  9
$QTEXTMODE
 70
     0
  9
$MIRRTEXT
 70
     1
  9
$DRAGMODE
 70
     2
  9
$LTSCALE
 40
1.0
  9
$OSMODE
 70
    37
  9
$ATTMODE
 70
     1
  9
$TEXTSIZE
 40
0.1377952756
  9
$TRACEWID
 40
0.05
  9
$TEXTSTYLE
  7
STANDARD
  9
$CLAYER
  8
0
  9
$CELTYPE
  6
BYLAYER
  9
$CECOLOR
 62
   256
  9
$DIMSCALE
 40
1.0
  9
$DIMASZ
 40
0.13
  9
$DIMEXO
 40
0.0393700787
  9
$DIMDLI
 40
0.38
  9
$DIMRND
 40
0.0
  9
$DIMDLE
 40
0.0
  9
$DIMEXE
 40
0.0393700787
  9
$DIMTP
 40
0.0
  9
$DIMTM
 40
0.0
  9
$DIMTXT
 40
0.1377952756
  9
$DIMCEN
 40
0.09
  9
$DIMTSZ
 40
0.0
  9
$DIMTOL
 70
     0
  9
$DIMLIM
 70
     0
  9
$DIMTIH
 70
     1
  9
$DIMTOH
 70
     1
  9
$DIMSE1
 70
     0
  9
$DIMSE2
 70
     0
  9
$DIMTAD
 70
     1
  9
$DIMZIN
 70
     1
  9
$DIMBLK
  1

  9
$DIMASO
 70
     1
  9
$DIMSHO
 70
     1
  9
$DIMPOST
  1

  9
$DIMAPOST
  1

  9
$DIMALT
 70
     0
  9
$DIMALTD
 70
     2
  9
$DIMALTF
 40
25.4
  9
$DIMLFAC
 40
1.0
  9
$DIMTOFL
 70
     0
  9
$DIMTVP
 40
0.0
  9
$DIMTIX
 70
     0
  9
$DIMSOXD
 70
     0
  9
$DIMSAH
 70
     0
  9
$DIMBLK1
  1

  9
$DIMBLK2
  1

  9
$DIMSTYLE
  2
STANDARD
  9
$DIMCLRD
 70
     0
  9
$DIMCLRE
 70
     0
  9
$DIMCLRT
 70
     0
  9
$DIMTFAC
 40
1.0
  9
$DIMGAP
 40
0.06
  9
$LUNITS
 70
     2
  9
$LUPREC
 70
     8
  9
$SKETCHINC
 40
0.1
  9
$FILLETRAD
 40
0.5
  9
$AUNITS
 70
     0
  9
$AUPREC
 70
     2
  9
$MENU
  1
.
  9
$ELEVATION
 40
0.0
  9
$PELEVATION
 40
0.0
  9
$THICKNESS
 40
0.0
  9
$LIMCHECK
 70
     0
  9
$CHAMFERA
 40
0.0
  9
$CHAMFERB
 40
0.0
  9
$SKPOLY
 70
     0
  9
$TDCREATE
 40
2458269.430859687
  9
$TDUPDATE
 40
2458269.430888657
  9
$TDINDWG
 40
0.0000000116
  9
$TDUSRTIMER
 40
0.0000000116
  9
$USRTIMER
 70
     1
  9
$ANGBASE
 50
0.0
  9
$ANGDIR
 70
     0
  9
$PDMODE
 70
     0
  9
$PDSIZE
 40
-1.0
  9
$PLINEWID
 40
0.0
  9
$COORDS
 70
     1
  9
$SPLFRAME
 70
     0
  9
$SPLINETYPE
 70
     6
  9
$SPLINESEGS
 70
     8
  9
$ATTDIA
 70
     0
  9
$ATTREQ
 70
     1
  9
$HANDLING
 70
     1
  9
$HANDSEED
  5
17F
  9
$SURFTAB1
 70
     6
  9
$SURFTAB2
 70
     6
  9
$SURFTYPE
 70
     6
  9
$SURFU
 70
     6
  9
$SURFV
 70
     6
  9
$UCSNAME
  2

  9
$UCSORG
 10
0.0
 20
0.0
 30
0.0
  9
$UCSXDIR
 10
1.0
 20
0.0
 30
0.0
  9
$UCSYDIR
 10
0.0
 20
1.0
 30
0.0
  9
$PUCSNAME
  2

  9
$PUCSORG
 10
0.0
 20
0.0
 30
0.0
  9
$PUCSXDIR
 10
1.0
 20
0.0
 30
0.0
  9
$PUCSYDIR
 10
0.0
 20
1.0
 30
0.0
  9
$USERI1
 70
     0
  9
$USERI2
 70
     0
  9
$USERI3
 70
     0
  9
$USERI4
 70
     0
  9
$USERI5
 70
     0
  9
$USERR1
 40
0.0
  9
$USERR2
 40
0.0
  9
$USERR3
 40
0.0
  9
$USERR4
 40
0.0
  9
$USERR5
 40
0.0
  9
$WORLDVIEW
 70
     1
  9
$SHADEDGE
 70
     3
  9
$SHADEDIF
 70
    70
  9
$TILEMODE
 70
     1
  9
$MAXACTVP
 70
    64
  9
$PLIMCHECK
 70
     0
  9
$PEXTMIN
 10
1.0000000000E+20
 20
1.0000000000E+20
 30
1.0000000000E+20
  9
$PEXTMAX
 10
-1.0000000000E+20
 20
-1.0000000000E+20
 30
-1.0000000000E+20
  9
$PLIMMIN
 10
0.0
 20
0.0
  9
$PLIMMAX
 10
12.0
 20
9.0
  9
$UNITMODE
 70
     0
  9
$VISRETAIN
 70
     1
  9
$PLINEGEN
 70
     0
  9
$PSLTSCALE
 70
     1
  0
ENDSEC
  0
SECTION
  2
TABLES
  0
TABLE
  2
VPORT
 70
     1
  0
VPORT
  2
*ACTIVE
 70
     0
 10
0.0
 20
0.0
 11
1.0
 21
1.0
 12
0.9842519685
 22
3.937007874
 13
0.0
 23
0.0
 14
0.5
 24
0.5
 15
0.5
 25
0.5
 16
0.0
 26
0.0
 36
1.0
 17
0.0
 27
0.0
 37
0.0
 40
8.541496063
 41
0.2350728726
 42
50.0
 43
0.0
 44
0.0
 50
0.0
 51
0.0
 71
     0
 72
   100
 73
     1
 74
     3
 75
     0
 76
     0
 77
     0
 78
     0
  0
ENDTAB
  0
TABLE
  2
LTYPE
 70
     6
  0
LTYPE
  2
CONTINUOUS
 70
     0
  3
Solid line
 72
    65
 73
     0
 40
0.0
  0
LTYPE
  2
HIDDEN
 70
     0
  3
Hidden __ __ __ __ __ __ __ __ __ __ __ __ __ __
 72
    65
 73
     2
 40
0.075
 49
0.05
 49
-0.025
  0
LTYPE
  2
PHANTOM
 70
     0
  3
Phantom ______  __  __  ______  __  __  ______
 72
    65
 73
     6
 40
0.5
 49
0.25
 49
-0.05
 49
0.05
 49
-0.05
 49
0.05
 49
-0.05
  0
LTYPE
  2
CENTER
 70
     0
  3
Center ____ _ ____ _ ____ _ ____ _ ____ _ ____
 72
    65
 73
     4
 40
0.4
 49
0.25
 49
-0.05
 49
0.05
 49
-0.05
  0
LTYPE
  2
CENTERX2
 70
     0
  3
Center (2x) ________  __  ________  __  _____
 72
    65
 73
     4
 40
0.8
 49
0.5
 49
-0.1
 49
0.1
 49
-0.1
  0
LTYPE
  2
DOT2
 70
     0
  3
Dot (.5x) ........................................
 72
    65
 73
     2
 40
0.025
 49
0.0
 49
-0.025
  0
ENDTAB
  0
TABLE
  2
LAYER
 70
     1
  0
LAYER
  2
0
 70
     0
 62
     7
  6
CONTINUOUS
  0
ENDTAB
  0
TABLE
  2
STYLE
 70
     1
  0
STYLE
  2
STANDARD
 70
     0
 40
0.0
 41
1.0
 50
0.0
 71
     0
 42
0.1377952756
  3
txt
  4

  0
ENDTAB
  0
TABLE
  2
VIEW
 70
     0
  0
ENDTAB
  0
TABLE
  2
UCS
 70
     0
  0
ENDTAB
  0
TABLE
  2
APPID
 70
     1
  0
APPID
  2
ACAD
 70
     0
  0
ENDTAB
  0
TABLE
  2
DIMSTYLE
 70
     1
  0
DIMSTYLE
  2
STANDARD
 70
     0
  3

  4

  5

  6

  7

 40
1.0
 41
0.18
 42
0.0625
 43
0.38
 44
0.18
 45
0.0
 46
0.0
 47
0.0
 48
0.0
140
0.18
141
0.09
142
0.0
143
25.4
144
1.0
145
0.0
146
1.0
147
0.09
 71
     0
 72
     0
 73
     1
 74
     1
 75
     0
 76
     0
 77
     0
 78
     0
170
     0
171
     2
172
     0
173
     0
174
     0
175
     0
176
     0
177
     0
178
     0
  0
ENDTAB
  0
ENDSEC
  0
SECTION
  2
BLOCKS
  0
BLOCK
  8
0
  2
$MODEL_SPACE
 70
     0
 10
0.0
 20
0.0
 30
0.0
  3
$MODEL_SPACE
  1

  0
ENDBLK
  5
21
  8
0
  0
BLOCK
 67
     1
  8
0
  2
$PAPER_SPACE
 70
     0
 10
0.0
 20
0.0
 30
0.0
  3
$PAPER_SPACE
  1

  0
ENDBLK
  5
1D
 67
     1
  8
0
  0
ENDSEC
  0
SECTION
  2
ENTITIES
  0
LINE
  5
F9
  8
0
  6
CONTINUOUS
 62
     7
 10
0.8499015748
 20
8.124015748
 30
0.0
 11
0.7874015748
 21
8.061515748
 31
0.0
  0
LINE
  5
FA
  8
0
  6
CONTINUOUS
 62
     7
 10
1.1811023622
 20
8.061515748
 30
0.0
 11
1.1186023622
 21
8.124015748
 31
0.0
  0
LINE
  5
FB
  8
0
  6
CONTINUOUS
 62
     7
 10
1.1186023622
 20
-0.25
 30
0.0
 11
1.1811023622
 21
-0.1875
 31
0.0
  0
LINE
  5
FC
  8
0
  6
CONTINUOUS
 62
     7
 10
0.7874015748
 20
-0.1875
 30
0.0
 11
0.8499015748
 21
-0.25
 31
0.0
  0
LINE
  5
FD
  8
0
  6
CONTINUOUS
 62
     7
 10
1.718503937
 20
3.193800473
 30
0.0
 11
1.718503937
 21
3.4991129128
 31
0.0
  0
LINE
  5
FE
  8
0
  6
CONTINUOUS
 62
     7
 10
1.968503937
 20
3.1496062992
 30
0.0
 11
1.7626981108
 21
3.1496062992
 31
0.0
  0
LINE
  5
FF
  8
0
  6
CONTINUOUS
 62
     7
 10
1.968503937
 20
2.7559055118
 30
0.0
 11
1.968503937
 21
3.1496062992
 31
0.0
  0
LINE
  5
100
  8
0
  6
CONTINUOUS
 62
     7
 10
1.7626981108
 20
2.7559055118
 30
0.0
 11
1.968503937
 21
2.7559055118
 31
0.0
  0
LINE
  5
101
  8
0
  6
CONTINUOUS
 62
     7
 10
1.718503937
 20
2.4063988982
 30
0.0
 11
1.718503937
 21
2.711711338
 31
0.0
  0
LINE
  5
102
  8
0
  6
CONTINUOUS
 62
     7
 10
1.968503937
 20
2.3622047244
 30
0.0
 11
1.7626981108
 21
2.3622047244
 31
0.0
  0
LINE
  5
103
  8
0
  6
CONTINUOUS
 62
     7
 10
1.968503937
 20
1.968503937
 30
0.0
 11
1.968503937
 21
2.3622047244
 31
0.0
  0
LINE
  5
104
  8
0
  6
CONTINUOUS
 62
     7
 10
1.7626981108
 20
1.968503937
 30
0.0
 11
1.968503937
 21
1.968503937
 31
0.0
  0
LINE
  5
105
  8
0
  6
CONTINUOUS
 62
     7
 10
1.718503937
 20
1.6189973234
 30
0.0
 11
1.718503937
 21
1.9243097632
 31
0.0
  0
LINE
  5
106
  8
0
  6
CONTINUOUS
 62
     7
 10
1.968503937
 20
1.5748031496
 30
0.0
 11
1.7626981108
 21
1.5748031496
 31
0.0
  0
LINE
  5
107
  8
0
  6
CONTINUOUS
 62
     7
 10
1.968503937
 20
1.1811023622
 30
0.0
 11
1.968503937
 21
1.5748031496
 31
0.0
  0
LINE
  5
108
  8
0
  6
CONTINUOUS
 62
     7
 10
1.7626981108
 20
1.1811023622
 30
0.0
 11
1.968503937
 21
1.1811023622
 31
0.0
  0
LINE
  5
109
  8
0
  6
CONTINUOUS
 62
     7
 10
1.718503937
 20
0.8315957486
 30
0.0
 11
1.718503937
 21
1.1369081884
 31
0.0
  0
LINE
  5
10A
  8
0
  6
CONTINUOUS
 62
     7
 10
1.968503937
 20
0.7874015748
 30
0.0
 11
1.7626981108
 21
0.7874015748
 31
0.0
  0
LINE
  5
10B
  8
0
  6
CONTINUOUS
 62
     7
 10
1.968503937
 20
0.3937007874
 30
0.0
 11
1.968503937
 21
0.7874015748
 31
0.0
  0
LINE
  5
10C
  8
0
  6
CONTINUOUS
 62
     7
 10
1.7626981108
 20
0.3937007874
 30
0.0
 11
1.968503937
 21
0.3937007874
 31
0.0
  0
LINE
  5
10D
  8
0
  6
CONTINUOUS
 62
     7
 10
1.718503937
 20
0.0
 30
0.0
 11
1.718503937
 21
0.3495066136
 31
0.0
  0
LINE
  5
10E
  8
0
  6
CONTINUOUS
 62
     7
 10
1.225296536
 20
0.0
 30
0.0
 11
1.718503937
 21
0.0
 31
0.0
  0
LINE
  5
10F
  8
0
  6
CONTINUOUS
 62
     7
 10
1.1811023622
 20
-0.1875
 30
0.0
 11
1.1811023622
 21
-0.0441941738
 31
0.0
  0
LINE
  5
110
  8
0
  6
CONTINUOUS
 62
     7
 10
0.8499015748
 20
-0.25
 30
0.0
 11
1.1186023622
 21
-0.25
 31
0.0
  0
LINE
  5
111
  8
0
  6
CONTINUOUS
 62
     7
 10
0.7874015748
 20
-0.0441941738
 30
0.0
 11
0.7874015748
 21
-0.1875
 31
0.0
  0
LINE
  5
112
  8
0
  6
CONTINUOUS
 62
     7
 10
0.0
 20
0.0
 30
0.0
 11
0.743207401
 21
0.0
 31
0.0
  0
LINE
  5
113
  8
0
  6
CONTINUOUS
 62
     7
 10
0.0
 20
0.3937007874
 30
0.0
 11
0.0
 21
0.0
 31
0.0
  0
LINE
  5
114
  8
0
  6
CONTINUOUS
 62
     7
 10
0.2058058262
 20
0.3937007874
 30
0.0
 11
0.0
 21
0.3937007874
 31
0.0
  0
LINE
  5
115
  8
0
  6
CONTINUOUS
 62
     7
 10
0.25
 20
0.743207401
 30
0.0
 11
0.25
 21
0.4378949612
 31
0.0
  0
LINE
  5
116
  8
0
  6
CONTINUOUS
 62
     7
 10
0.0
 20
0.7874015748
 30
0.0
 11
0.2058058262
 21
0.7874015748
 31
0.0
  0
LINE
  5
117
  8
0
  6
CONTINUOUS
 62
     7
 10
0.0
 20
1.1811023622
 30
0.0
 11
0.0
 21
0.7874015748
 31
0.0
  0
LINE
  5
118
  8
0
  6
CONTINUOUS
 62
     7
 10
0.2058058262
 20
1.1811023622
 30
0.0
 11
0.0
 21
1.1811023622
 31
0.0
  0
LINE
  5
119
  8
0
  6
CONTINUOUS
 62
     7
 10
0.25
 20
1.5306089758
 30
0.0
 11
0.25
 21
1.225296536
 31
0.0
  0
LINE
  5
11A
  8
0
  6
CONTINUOUS
 62
     7
 10
0.0
 20
1.5748031496
 30
0.0
 11
0.2058058262
 21
1.5748031496
 31
0.0
  0
LINE
  5
11B
  8
0
  6
CONTINUOUS
 62
     7
 10
0.0
 20
1.968503937
 30
0.0
 11
0.0
 21
1.5748031496
 31
0.0
  0
LINE
  5
11C
  8
0
  6
CONTINUOUS
 62
     7
 10
0.2058058262
 20
1.968503937
 30
0.0
 11
0.0
 21
1.968503937
 31
0.0
  0
LINE
  5
11D
  8
0
  6
CONTINUOUS
 62
     7
 10
0.25
 20
2.3180105506
 30
0.0
 11
0.25
 21
2.0126981108
 31
0.0
  0
LINE
  5
11E
  8
0
  6
CONTINUOUS
 62
     7
 10
0.0
 20
2.3622047244
 30
0.0
 11
0.2058058262
 21
2.3622047244
 31
0.0
  0
LINE
  5
11F
  8
0
  6
CONTINUOUS
 62
     7
 10
0.0
 20
2.7559055118
 30
0.0
 11
0.0
 21
2.3622047244
 31
0.0
  0
LINE
  5
120
  8
0
  6
CONTINUOUS
 62
     7
 10
0.2058058262
 20
2.7559055118
 30
0.0
 11
0.0
 21
2.7559055118
 31
0.0
  0
LINE
  5
121
  8
0
  6
CONTINUOUS
 62
     7
 10
0.25
 20
3.1054121254
 30
0.0
 11
0.25
 21
2.8000996856
 31
0.0
  0
LINE
  5
122
  8
0
  6
CONTINUOUS
 62
     7
 10
0.0
 20
3.1496062992
 30
0.0
 11
0.2058058262
 21
3.1496062992
 31
0.0
  0
LINE
  5
123
  8
0
  6
CONTINUOUS
 62
     7
 10
0.0
 20
3.5433070866
 30
0.0
 11
0.0
 21
3.1496062992
 31
0.0
  0
LINE
  5
124
  8
0
  6
CONTINUOUS
 62
     7
 10
0.2058058262
 20
3.5433070866
 30
0.0
 11
0.0
 21
3.5433070866
 31
0.0
  0
LINE
  5
125
  8
0
  6
CONTINUOUS
 62
     7
 10
0.25
 20
3.8928137002
 30
0.0
 11
0.25
 21
3.5875012604
 31
0.0
  0
LINE
  5
126
  8
0
  6
CONTINUOUS
 62
     7
 10
0.0
 20
3.937007874
 30
0.0
 11
0.2058058262
 21
3.937007874
 31
0.0
  0
LINE
  5
127
  8
0
  6
CONTINUOUS
 62
     7
 10
0.0
 20
4.3307086614
 30
0.0
 11
0.0
 21
3.937007874
 31
0.0
  0
LINE
  5
128
  8
0
  6
CONTINUOUS
 62
     7
 10
0.2058058262
 20
4.3307086614
 30
0.0
 11
0.0
 21
4.3307086614
 31
0.0
  0
LINE
  5
129
  8
0
  6
CONTINUOUS
 62
     7
 10
0.25
 20
4.680215275
 30
0.0
 11
0.25
 21
4.3749028352
 31
0.0
  0
LINE
  5
12A
  8
0
  6
CONTINUOUS
 62
     7
 10
0.0
 20
4.7244094488
 30
0.0
 11
0.2058058262
 21
4.7244094488
 31
0.0
  0
LINE
  5
12B
  8
0
  6
CONTINUOUS
 62
     7
 10
0.0
 20
5.1181102362
 30
0.0
 11
0.0
 21
4.7244094488
 31
0.0
  0
LINE
  5
12C
  8
0
  6
CONTINUOUS
 62
     7
 10
0.2058058262
 20
5.1181102362
 30
0.0
 11
0.0
 21
5.1181102362
 31
0.0
  0
LINE
  5
12D
  8
0
  6
CONTINUOUS
 62
     7
 10
0.25
 20
5.4676168498
 30
0.0
 11
0.25
 21
5.16230441
 31
0.0
  0
LINE
  5
12E
  8
0
  6
CONTINUOUS
 62
     7
 10
0.0
 20
5.5118110236
 30
0.0
 11
0.2058058262
 21
5.5118110236
 31
0.0
  0
LINE
  5
12F
  8
0
  6
CONTINUOUS
 62
     7
 10
0.0
 20
5.905511811
 30
0.0
 11
0.0
 21
5.5118110236
 31
0.0
  0
LINE
  5
130
  8
0
  6
CONTINUOUS
 62
     7
 10
0.2058058262
 20
5.905511811
 30
0.0
 11
0.0
 21
5.905511811
 31
0.0
  0
LINE
  5
131
  8
0
  6
CONTINUOUS
 62
     7
 10
0.25
 20
6.2550184246
 30
0.0
 11
0.25
 21
5.9497059848
 31
0.0
  0
LINE
  5
132
  8
0
  6
CONTINUOUS
 62
     7
 10
0.0
 20
6.2992125984
 30
0.0
 11
0.2058058262
 21
6.2992125984
 31
0.0
  0
LINE
  5
133
  8
0
  6
CONTINUOUS
 62
     7
 10
0.0
 20
6.6929133858
 30
0.0
 11
0.0
 21
6.2992125984
 31
0.0
  0
LINE
  5
134
  8
0
  6
CONTINUOUS
 62
     7
 10
0.2058058262
 20
6.6929133858
 30
0.0
 11
0.0
 21
6.6929133858
 31
0.0
  0
LINE
  5
135
  8
0
  6
CONTINUOUS
 62
     7
 10
0.25
 20
7.0424199994
 30
0.0
 11
0.25
 21
6.7371075597
 31
0.0
  0
LINE
  5
136
  8
0
  6
CONTINUOUS
 62
     7
 10
0.0
 20
7.0866141732
 30
0.0
 11
0.2058058262
 21
7.0866141732
 31
0.0
  0
LINE
  5
137
  8
0
  6
CONTINUOUS
 62
     7
 10
0.0
 20
7.4803149606
 30
0.0
 11
0.0
 21
7.0866141732
 31
0.0
  0
LINE
  5
138
  8
0
  6
CONTINUOUS
 62
     7
 10
0.2058058262
 20
7.4803149606
 30
0.0
 11
0.0
 21
7.4803149606
 31
0.0
  0
LINE
  5
139
  8
0
  6
CONTINUOUS
 62
     7
 10
0.25
 20
7.874015748
 30
0.0
 11
0.25
 21
7.5245091345
 31
0.0
  0
LINE
  5
13A
  8
0
  6
CONTINUOUS
 62
     7
 10
0.743207401
 20
7.874015748
 30
0.0
 11
0.25
 21
7.874015748
 31
0.0
  0
LINE
  5
13B
  8
0
  6
CONTINUOUS
 62
     7
 10
0.7874015748
 20
8.061515748
 30
0.0
 11
0.7874015748
 21
7.9182099219
 31
0.0
  0
LINE
  5
13C
  8
0
  6
CONTINUOUS
 62
     7
 10
1.1186023622
 20
8.124015748
 30
0.0
 11
0.8499015748
 21
8.124015748
 31
0.0
  0
LINE
  5
13D
  8
0
  6
CONTINUOUS
 62
     7
 10
1.1811023622
 20
7.9182099219
 30
0.0
 11
1.1811023622
 21
8.061515748
 31
0.0
  0
LINE
  5
13E
  8
0
  6
CONTINUOUS
 62
     7
 10
1.968503937
 20
7.874015748
 30
0.0
 11
1.225296536
 21
7.874015748
 31
0.0
  0
LINE
  5
13F
  8
0
  6
CONTINUOUS
 62
     7
 10
1.968503937
 20
7.4803149606
 30
0.0
 11
1.968503937
 21
7.874015748
 31
0.0
  0
LINE
  5
140
  8
0
  6
CONTINUOUS
 62
     7
 10
1.7626981108
 20
7.4803149606
 30
0.0
 11
1.968503937
 21
7.4803149606
 31
0.0
  0
LINE
  5
141
  8
0
  6
CONTINUOUS
 62
     7
 10
1.718503937
 20
7.1308083471
 30
0.0
 11
1.718503937
 21
7.4361207868
 31
0.0
  0
LINE
  5
142
  8
0
  6
CONTINUOUS
 62
     7
 10
1.968503937
 20
7.0866141732
 30
0.0
 11
1.7626981108
 21
7.0866141732
 31
0.0
  0
LINE
  5
143
  8
0
  6
CONTINUOUS
 62
     7
 10
1.968503937
 20
6.6929133858
 30
0.0
 11
1.968503937
 21
7.0866141732
 31
0.0
  0
LINE
  5
144
  8
0
  6
CONTINUOUS
 62
     7
 10
1.7626981108
 20
6.6929133858
 30
0.0
 11
1.968503937
 21
6.6929133858
 31
0.0
  0
LINE
  5
145
  8
0
  6
CONTINUOUS
 62
     7
 10
1.718503937
 20
6.3434067722
 30
0.0
 11
1.718503937
 21
6.648719212
 31
0.0
  0
LINE
  5
146
  8
0
  6
CONTINUOUS
 62
     7
 10
1.968503937
 20
6.2992125984
 30
0.0
 11
1.7626981108
 21
6.2992125984
 31
0.0
  0
LINE
  5
147
  8
0
  6
CONTINUOUS
 62
     7
 10
1.968503937
 20
5.905511811
 30
0.0
 11
1.968503937
 21
6.2992125984
 31
0.0
  0
LINE
  5
148
  8
0
  6
CONTINUOUS
 62
     7
 10
1.7626981108
 20
5.905511811
 30
0.0
 11
1.968503937
 21
5.905511811
 31
0.0
  0
LINE
  5
149
  8
0
  6
CONTINUOUS
 62
     7
 10
1.718503937
 20
5.5560051974
 30
0.0
 11
1.718503937
 21
5.8613176372
 31
0.0
  0
LINE
  5
14A
  8
0
  6
CONTINUOUS
 62
     7
 10
1.968503937
 20
5.5118110236
 30
0.0
 11
1.7626981108
 21
5.5118110236
 31
0.0
  0
LINE
  5
14B
  8
0
  6
CONTINUOUS
 62
     7
 10
1.968503937
 20
5.1181102362
 30
0.0
 11
1.968503937
 21
5.5118110236
 31
0.0
  0
LINE
  5
14C
  8
0
  6
CONTINUOUS
 62
     7
 10
1.7626981108
 20
5.1181102362
 30
0.0
 11
1.968503937
 21
5.1181102362
 31
0.0
  0
LINE
  5
14D
  8
0
  6
CONTINUOUS
 62
     7
 10
1.718503937
 20
4.7686036226
 30
0.0
 11
1.718503937
 21
5.0739160624
 31
0.0
  0
LINE
  5
14E
  8
0
  6
CONTINUOUS
 62
     7
 10
1.968503937
 20
4.7244094488
 30
0.0
 11
1.7626981108
 21
4.7244094488
 31
0.0
  0
LINE
  5
14F
  8
0
  6
CONTINUOUS
 62
     7
 10
1.968503937
 20
4.3307086614
 30
0.0
 11
1.968503937
 21
4.7244094488
 31
0.0
  0
LINE
  5
150
  8
0
  6
CONTINUOUS
 62
     7
 10
1.7626981108
 20
4.3307086614
 30
0.0
 11
1.968503937
 21
4.3307086614
 31
0.0
  0
LINE
  5
151
  8
0
  6
CONTINUOUS
 62
     7
 10
1.718503937
 20
3.9812020478
 30
0.0
 11
1.718503937
 21
4.2865144876
 31
0.0
  0
LINE
  5
152
  8
0
  6
CONTINUOUS
 62
     7
 10
1.968503937
 20
3.937007874
 30
0.0
 11
1.7626981108
 21
3.937007874
 31
0.0
  0
LINE
  5
153
  8
0
  6
CONTINUOUS
 62
     7
 10
1.968503937
 20
3.5433070866
 30
0.0
 11
1.968503937
 21
3.937007874
 31
0.0
  0
LINE
  5
154
  8
0
  6
CONTINUOUS
 62
     7
 10
1.7626981108
 20
3.5433070866
 30
0.0
 11
1.968503937
 21
3.5433070866
 31
0.0
  0
ARC
  5
155
  8
0
  6
CONTINUOUS
 62
     7
 10
1.7406010239
 20
3.1717033861
 30
0.0
 40
0.0312500000000043
 50
135.0
 51
315.0
  0
ARC
  5
156
  8
0
  6
CONTINUOUS
 62
     7
 10
1.7406010239
 20
2.7338084249
 30
0.0
 40
0.0312499999999922
 50
45.0
 51
225.0
  0
ARC
  5
157
  8
0
  6
CONTINUOUS
 62
     7
 10
1.7406010239
 20
2.3843018113
 30
0.0
 40
0.0312500000000042
 50
135.0
 51
315.0
  0
ARC
  5
158
  8
0
  6
CONTINUOUS
 62
     7
 10
1.7406010239
 20
1.9464068501
 30
0.0
 40
0.0312500000000043
 50
45.0
 51
225.0
  0
ARC
  5
159
  8
0
  6
CONTINUOUS
 62
     7
 10
1.7406010239
 20
1.5969002365
 30
0.0
 40
0.0312499999999919
 50
135.0
 51
315.0
  0
ARC
  5
15A
  8
0
  6
CONTINUOUS
 62
     7
 10
1.7406010239
 20
1.1590052753
 30
0.0
 40
0.0312499999999841
 50
45.0
 51
225.0
  0
ARC
  5
15B
  8
0
  6
CONTINUOUS
 62
     7
 10
1.7406010239
 20
0.8094986617
 30
0.0
 40
0.0312499999999982
 50
135.0
 51
314.9999999999
  0
ARC
  5
15C
  8
0
  6
CONTINUOUS
 62
     7
 10
1.7406010239
 20
0.3716037005
 30
0.0
 40
0.0312500000000045
 50
45.0
 51
225.0
  0
ARC
  5
15D
  8
0
  6
CONTINUOUS
 62
     7
 10
1.2031994491
 20
-0.0220970869
 30
0.0
 40
0.0312499999999996
 50
45.0
 51
225.0
  0
ARC
  5
15E
  8
0
  6
CONTINUOUS
 62
     7
 10
0.7653044879
 20
-0.0220970869
 30
0.0
 40
0.0312500000000042
 50
315.0
 51
135.0
  0
ARC
  5
15F
  8
0
  6
CONTINUOUS
 62
     7
 10
0.2279029131
 20
0.4157978743
 30
0.0
 40
0.0312499999999563
 50
225.0000000001
 51
45.0000000001
  0
ARC
  5
160
  8
0
  6
CONTINUOUS
 62
     7
 10
0.2279029131
 20
0.7653044879
 30
0.0
 40
0.0312499999999671
 50
314.9999999999
 51
134.9999999999
  0
ARC
  5
161
  8
0
  6
CONTINUOUS
 62
     7
 10
0.2279029131
 20
1.2031994491
 30
0.0
 40
0.0312499999999563
 50
225.0000000001
 51
45.0000000001
  0
ARC
  5
162
  8
0
  6
CONTINUOUS
 62
     7
 10
0.2279029131
 20
1.5527060627
 30
0.0
 40
0.0312499999999674
 50
314.9999999999
 51
134.9999999999
  0
ARC
  5
163
  8
0
  6
CONTINUOUS
 62
     7
 10
0.2279029131
 20
1.9906010239
 30
0.0
 40
0.0312499999999563
 50
225.0000000001
 51
45.0000000001
  0
ARC
  5
164
  8
0
  6
CONTINUOUS
 62
     7
 10
0.2279029131
 20
2.3401076375
 30
0.0
 40
0.0312499999999547
 50
315.0
 51
134.9999999999
  0
ARC
  5
165
  8
0
  6
CONTINUOUS
 62
     7
 10
0.2279029131
 20
2.7780025987
 30
0.0
 40
0.0312499999999439
 50
225.0000000002
 51
44.9999999999
  0
ARC
  5
166
  8
0
  6
CONTINUOUS
 62
     7
 10
0.2279029131
 20
3.1275092123
 30
0.0
 40
0.0312499999999671
 50
314.9999999999
 51
135.0
  0
ARC
  5
167
  8
0
  6
CONTINUOUS
 62
     7
 10
0.2279029131
 20
3.5654041735
 30
0.0
 40
0.0312499999999691
 50
225.0000000001
 51
45.0000000001
  0
ARC
  5
168
  8
0
  6
CONTINUOUS
 62
     7
 10
0.2279029131
 20
3.9149107871
 30
0.0
 40
0.0312499999999553
 50
315.0
 51
134.9999999999
  0
ARC
  5
169
  8
0
  6
CONTINUOUS
 62
     7
 10
0.2279029131
 20
4.3528057483
 30
0.0
 40
0.0312499999999691
 50
225.0000000001
 51
45.0000000001
  0
ARC
  5
16A
  8
0
  6
CONTINUOUS
 62
     7
 10
0.2279029131
 20
4.7023123619
 30
0.0
 40
0.031249999999968
 50
314.9999999999
 51
135.0
  0
ARC
  5
16B
  8
0
  6
CONTINUOUS
 62
     7
 10
0.2279029131
 20
5.1402073231
 30
0.0
 40
0.0312499999999572
 50
225.0000000001
 51
45.0000000001
  0
ARC
  5
16C
  8
0
  6
CONTINUOUS
 62
     7
 10
0.2279029131
 20
5.4897139367
 30
0.0
 40
0.0312499999999425
 50
315.0
 51
135.0
  0
ARC
  5
16D
  8
0
  6
CONTINUOUS
 62
     7
 10
0.2279029131
 20
5.9276088979
 30
0.0
 40
0.0312499999999779
 50
225.0000000001
 51
45.0000000001
  0
ARC
  5
16E
  8
0
  6
CONTINUOUS
 62
     7
 10
0.2279029131
 20
6.2771155115
 30
0.0
 40
0.0312499999999426
 50
315.0
 51
135.0
  0
ARC
  5
16F
  8
0
  6
CONTINUOUS
 62
     7
 10
0.2279029131
 20
6.7150104727
 30
0.0
 40
0.0312499999999785
 50
225.0000000001
 51
45.0000000001
  0
ARC
  5
170
  8
0
  6
CONTINUOUS
 62
     7
 10
0.2279029131
 20
7.0645170863
 30
0.0
 40
0.0312499999999555
 50
315.0
 51
134.9999999999
  0
ARC
  5
171
  8
0
  6
CONTINUOUS
 62
     7
 10
0.2279029131
 20
7.5024120475
 30
0.0
 40
0.0312499999999868
 50
225.0000000001
 51
45.0000000003
  0
ARC
  5
172
  8
0
  6
CONTINUOUS
 62
     7
 10
0.7653044879
 20
7.8961128349
 30
0.0
 40
0.0312500000000024
 50
225.0
 51
45.0
  0
ARC
  5
173
  8
0
  6
CONTINUOUS
 62
     7
 10
1.2031994491
 20
7.8961128349
 30
0.0
 40
0.0312499999999861
 50
135.0
 51
315.0
  0
ARC
  5
174
  8
0
  6
CONTINUOUS
 62
     7
 10
1.7406010239
 20
7.4582178737
 30
0.0
 40
0.0312499999999805
 50
45.0
 51
224.9999999998
  0
ARC
  5
175
  8
0
  6
CONTINUOUS
 62
     7
 10
1.7406010239
 20
7.1087112601
 30
0.0
 40
0.0312500000000045
 50
135.0
 51
314.9999999999
  0
ARC
  5
176
  8
0
  6
CONTINUOUS
 62
     7
 10
1.7406010239
 20
6.6708162989
 30
0.0
 40
0.0312499999999809
 50
45.0
 51
224.9999999999
  0
ARC
  5
177
  8
0
  6
CONTINUOUS
 62
     7
 10
1.7406010239
 20
6.3213096853
 30
0.0
 40
0.0312500000000175
 50
134.9999999999
 51
315.0
  0
ARC
  5
178
  8
0
  6
CONTINUOUS
 62
     7
 10
1.7406010239
 20
5.8834147241
 30
0.0
 40
0.0312499999999929
 50
45.0
 51
225.0
  0
ARC
  5
179
  8
0
  6
CONTINUOUS
 62
     7
 10
1.7406010239
 20
5.5339081105
 30
0.0
 40
0.0312500000000167
 50
135.0
 51
315.0
  0
ARC
  5
17A
  8
0
  6
CONTINUOUS
 62
     7
 10
1.7406010239
 20
5.0960131493
 30
0.0
 40
0.0312500000000046
 50
45.0
 51
225.0
  0
ARC
  5
17B
  8
0
  6
CONTINUOUS
 62
     7
 10
1.7406010239
 20
4.7465065357
 30
0.0
 40
0.0312499999999919
 50
135.0
 51
314.9999999999
  0
ARC
  5
17C
  8
0
  6
CONTINUOUS
 62
     7
 10
1.7406010239
 20
4.3086115745
 30
0.0
 40
0.0312499999999924
 50
45.0
 51
225.0
  0
ARC
  5
17D
  8
0
  6
CONTINUOUS
 62
     7
 10
1.7406010239
 20
3.9591049609
 30
0.0
 40
0.0312500000000043
 50
135.0
 51
315.0
  0
ARC
  5
17E
  8
0
  6
CONTINUOUS
 62
     7
 10
1.7406010239
 20
3.5212099997
 30
0.0
 40
0.0312500000000048
 50
45.0
 51
225.0
  0
ENDSEC
  0
EOF
