  0
SECTION
  2
HEADER
  9
$ACADVER
  1
AC1009
  9
$DWGCODEPAGE
  3
ansi_1252
  9
$INSBASE
 10
0.0
 20
0.0
 30
0.0
  9
$EXTMIN
 10
-0.25
 20
-0.25
 30
0.0
  9
$EXTMAX
 10
1.718503937
 20
8.124015748
 30
0.0
  9
$LIMMIN
 10
0.0
 20
0.0
  9
$LIMMAX
 10
12.0
 20
9.0
  9
$ORTHOMODE
 70
     0
  9
$REGENMODE
 70
     1
  9
$FILLMODE
 70
     1
  9
$QTEXTMODE
 70
     0
  9
$MIRRTEXT
 70
     1
  9
$DRAGMODE
 70
     2
  9
$LTSCALE
 40
1.0
  9
$OSMODE
 70
    37
  9
$ATTMODE
 70
     1
  9
$TEXTSIZE
 40
0.1377952756
  9
$TRACEWID
 40
0.05
  9
$TEXTSTYLE
  7
STANDARD
  9
$CLAYER
  8
0
  9
$CELTYPE
  6
BYLAYER
  9
$CECOLOR
 62
   256
  9
$DIMSCALE
 40
1.0
  9
$DIMASZ
 40
0.13
  9
$DIMEXO
 40
0.0393700787
  9
$DIMDLI
 40
0.38
  9
$DIMRND
 40
0.0
  9
$DIMDLE
 40
0.0
  9
$DIMEXE
 40
0.0393700787
  9
$DIMTP
 40
0.0
  9
$DIMTM
 40
0.0
  9
$DIMTXT
 40
0.1377952756
  9
$DIMCEN
 40
0.09
  9
$DIMTSZ
 40
0.0
  9
$DIMTOL
 70
     0
  9
$DIMLIM
 70
     0
  9
$DIMTIH
 70
     1
  9
$DIMTOH
 70
     1
  9
$DIMSE1
 70
     0
  9
$DIMSE2
 70
     0
  9
$DIMTAD
 70
     1
  9
$DIMZIN
 70
     1
  9
$DIMBLK
  1

  9
$DIMASO
 70
     1
  9
$DIMSHO
 70
     1
  9
$DIMPOST
  1

  9
$DIMAPOST
  1

  9
$DIMALT
 70
     0
  9
$DIMALTD
 70
     2
  9
$DIMALTF
 40
25.4
  9
$DIMLFAC
 40
1.0
  9
$DIMTOFL
 70
     0
  9
$DIMTVP
 40
0.0
  9
$DIMTIX
 70
     0
  9
$DIMSOXD
 70
     0
  9
$DIMSAH
 70
     0
  9
$DIMBLK1
  1

  9
$DIMBLK2
  1

  9
$DIMSTYLE
  2
STANDARD
  9
$DIMCLRD
 70
     0
  9
$DIMCLRE
 70
     0
  9
$DIMCLRT
 70
     0
  9
$DIMTFAC
 40
1.0
  9
$DIMGAP
 40
0.06
  9
$LUNITS
 70
     2
  9
$LUPREC
 70
     8
  9
$SKETCHINC
 40
0.1
  9
$FILLETRAD
 40
0.5
  9
$AUNITS
 70
     0
  9
$AUPREC
 70
     2
  9
$MENU
  1
.
  9
$ELEVATION
 40
0.0
  9
$PELEVATION
 40
0.0
  9
$THICKNESS
 40
0.0
  9
$LIMCHECK
 70
     0
  9
$CHAMFERA
 40
0.0
  9
$CHAMFERB
 40
0.0
  9
$SKPOLY
 70
     0
  9
$TDCREATE
 40
2458269.566567303
  9
$TDUPDATE
 40
2458269.566596806
  9
$TDINDWG
 40
0.0000000116
  9
$TDUSRTIMER
 40
0.0000000116
  9
$USRTIMER
 70
     1
  9
$ANGBASE
 50
0.0
  9
$ANGDIR
 70
     0
  9
$PDMODE
 70
     0
  9
$PDSIZE
 40
-1.0
  9
$PLINEWID
 40
0.0
  9
$COORDS
 70
     1
  9
$SPLFRAME
 70
     0
  9
$SPLINETYPE
 70
     6
  9
$SPLINESEGS
 70
     8
  9
$ATTDIA
 70
     0
  9
$ATTREQ
 70
     1
  9
$HANDLING
 70
     1
  9
$HANDSEED
  5
2B7
  9
$SURFTAB1
 70
     6
  9
$SURFTAB2
 70
     6
  9
$SURFTYPE
 70
     6
  9
$SURFU
 70
     6
  9
$SURFV
 70
     6
  9
$UCSNAME
  2

  9
$UCSORG
 10
0.0
 20
0.0
 30
0.0
  9
$UCSXDIR
 10
1.0
 20
0.0
 30
0.0
  9
$UCSYDIR
 10
0.0
 20
1.0
 30
0.0
  9
$PUCSNAME
  2

  9
$PUCSORG
 10
0.0
 20
0.0
 30
0.0
  9
$PUCSXDIR
 10
1.0
 20
0.0
 30
0.0
  9
$PUCSYDIR
 10
0.0
 20
1.0
 30
0.0
  9
$USERI1
 70
     0
  9
$USERI2
 70
     0
  9
$USERI3
 70
     0
  9
$USERI4
 70
     0
  9
$USERI5
 70
     0
  9
$USERR1
 40
0.0
  9
$USERR2
 40
0.0
  9
$USERR3
 40
0.0
  9
$USERR4
 40
0.0
  9
$USERR5
 40
0.0
  9
$WORLDVIEW
 70
     1
  9
$SHADEDGE
 70
     3
  9
$SHADEDIF
 70
    70
  9
$TILEMODE
 70
     1
  9
$MAXACTVP
 70
    64
  9
$PLIMCHECK
 70
     0
  9
$PEXTMIN
 10
1.0000000000E+20
 20
1.0000000000E+20
 30
1.0000000000E+20
  9
$PEXTMAX
 10
-1.0000000000E+20
 20
-1.0000000000E+20
 30
-1.0000000000E+20
  9
$PLIMMIN
 10
0.0
 20
0.0
  9
$PLIMMAX
 10
12.0
 20
9.0
  9
$UNITMODE
 70
     0
  9
$VISRETAIN
 70
     1
  9
$PLINEGEN
 70
     0
  9
$PSLTSCALE
 70
     1
  0
ENDSEC
  0
SECTION
  2
TABLES
  0
TABLE
  2
VPORT
 70
     1
  0
VPORT
  2
*ACTIVE
 70
     0
 10
0.0
 20
0.0
 11
1.0
 21
1.0
 12
0.7342519685
 22
3.937007874
 13
0.0
 23
0.0
 14
0.5
 24
0.5
 15
0.5
 25
0.5
 16
0.0
 26
0.0
 36
1.0
 17
0.0
 27
0.0
 37
0.0
 40
8.541496063
 41
0.2350728726
 42
50.0
 43
0.0
 44
0.0
 50
0.0
 51
0.0
 71
     0
 72
   100
 73
     1
 74
     3
 75
     0
 76
     0
 77
     0
 78
     0
  0
ENDTAB
  0
TABLE
  2
LTYPE
 70
     6
  0
LTYPE
  2
CONTINUOUS
 70
     0
  3
Solid line
 72
    65
 73
     0
 40
0.0
  0
LTYPE
  2
HIDDEN
 70
     0
  3
Hidden __ __ __ __ __ __ __ __ __ __ __ __ __ __
 72
    65
 73
     2
 40
0.075
 49
0.05
 49
-0.025
  0
LTYPE
  2
PHANTOM
 70
     0
  3
Phantom ______  __  __  ______  __  __  ______
 72
    65
 73
     6
 40
0.5
 49
0.25
 49
-0.05
 49
0.05
 49
-0.05
 49
0.05
 49
-0.05
  0
LTYPE
  2
CENTER
 70
     0
  3
Center ____ _ ____ _ ____ _ ____ _ ____ _ ____
 72
    65
 73
     4
 40
0.4
 49
0.25
 49
-0.05
 49
0.05
 49
-0.05
  0
LTYPE
  2
CENTERX2
 70
     0
  3
Center (2x) ________  __  ________  __  _____
 72
    65
 73
     4
 40
0.8
 49
0.5
 49
-0.1
 49
0.1
 49
-0.1
  0
LTYPE
  2
DOT2
 70
     0
  3
Dot (.5x) ........................................
 72
    65
 73
     2
 40
0.025
 49
0.0
 49
-0.025
  0
ENDTAB
  0
TABLE
  2
LAYER
 70
     1
  0
LAYER
  2
0
 70
     0
 62
     7
  6
CONTINUOUS
  0
ENDTAB
  0
TABLE
  2
STYLE
 70
     1
  0
STYLE
  2
STANDARD
 70
     0
 40
0.0
 41
1.0
 50
0.0
 71
     0
 42
0.1377952756
  3
txt
  4

  0
ENDTAB
  0
TABLE
  2
VIEW
 70
     0
  0
ENDTAB
  0
TABLE
  2
UCS
 70
     0
  0
ENDTAB
  0
TABLE
  2
APPID
 70
     1
  0
APPID
  2
ACAD
 70
     0
  0
ENDTAB
  0
TABLE
  2
DIMSTYLE
 70
     1
  0
DIMSTYLE
  2
STANDARD
 70
     0
  3

  4

  5

  6

  7

 40
1.0
 41
0.18
 42
0.0625
 43
0.38
 44
0.18
 45
0.0
 46
0.0
 47
0.0
 48
0.0
140
0.18
141
0.09
142
0.0
143
25.4
144
1.0
145
0.0
146
1.0
147
0.09
 71
     0
 72
     0
 73
     1
 74
     1
 75
     0
 76
     0
 77
     0
 78
     0
170
     0
171
     2
172
     0
173
     0
174
     0
175
     0
176
     0
177
     0
178
     0
  0
ENDTAB
  0
ENDSEC
  0
SECTION
  2
BLOCKS
  0
BLOCK
  8
0
  2
$MODEL_SPACE
 70
     0
 10
0.0
 20
0.0
 30
0.0
  3
$MODEL_SPACE
  1

  0
ENDBLK
  5
21
  8
0
  0
BLOCK
 67
     1
  8
0
  2
$PAPER_SPACE
 70
     0
 10
0.0
 20
0.0
 30
0.0
  3
$PAPER_SPACE
  1

  0
ENDBLK
  5
1D
 67
     1
  8
0
  0
ENDSEC
  0
SECTION
  2
ENTITIES
  0
LINE
  5
195
  8
0
  6
CONTINUOUS
 62
     7
 10
1.4697018916
 20
4.7232731811
 30
0.0
 11
1.4697018916
 21
4.7214094488
 31
0.0
  0
LINE
  5
196
  8
0
  6
CONTINUOUS
 62
     7
 10
1.4697018916
 20
4.7214094488
 30
0.0
 11
1.4719811762
 21
4.7214094488
 31
0.0
  0
LINE
  5
197
  8
0
  6
CONTINUOUS
 62
     7
 10
1.5092208716
 20
4.7214094488
 30
0.0
 11
1.7173055546
 21
4.7214094488
 31
0.0
  0
LINE
  5
198
  8
0
  6
CONTINUOUS
 62
     7
 10
1.7173055546
 20
4.7214094488
 30
0.0
 11
1.7173055546
 21
4.7244094488
 31
0.0
  0
LINE
  5
199
  8
0
  6
CONTINUOUS
 62
     7
 10
1.7173055546
 20
4.3307086614
 30
0.0
 11
1.7173055546
 21
4.3337086614
 31
0.0
  0
LINE
  5
19A
  8
0
  6
CONTINUOUS
 62
     7
 10
1.7173055546
 20
4.3337086614
 30
0.0
 11
1.5092208716
 21
4.3337086614
 31
0.0
  0
LINE
  5
19B
  8
0
  6
CONTINUOUS
 62
     7
 10
1.4719811762
 20
4.3337086614
 30
0.0
 11
1.4697018916
 21
4.3337086614
 31
0.0
  0
LINE
  5
19C
  8
0
  6
CONTINUOUS
 62
     7
 10
1.4697018916
 20
4.3337086614
 30
0.0
 11
1.4697018916
 21
4.3318449292
 31
0.0
  0
LINE
  5
19D
  8
0
  6
CONTINUOUS
 62
     7
 10
1.4697018916
 20
3.9358716063
 30
0.0
 11
1.4697018916
 21
3.934007874
 31
0.0
  0
LINE
  5
19E
  8
0
  6
CONTINUOUS
 62
     7
 10
1.4697018916
 20
3.934007874
 30
0.0
 11
1.4719811762
 21
3.934007874
 31
0.0
  0
LINE
  5
19F
  8
0
  6
CONTINUOUS
 62
     7
 10
1.5092208716
 20
3.934007874
 30
0.0
 11
1.7173055546
 21
3.934007874
 31
0.0
  0
LINE
  5
1A0
  8
0
  6
CONTINUOUS
 62
     7
 10
1.7173055546
 20
3.934007874
 30
0.0
 11
1.7173055546
 21
3.937007874
 31
0.0
  0
LINE
  5
1A1
  8
0
  6
CONTINUOUS
 62
     7
 10
1.7173055546
 20
3.5433070866
 30
0.0
 11
1.7173055546
 21
3.5463070866
 31
0.0
  0
LINE
  5
1A2
  8
0
  6
CONTINUOUS
 62
     7
 10
1.7173055546
 20
3.5463070866
 30
0.0
 11
1.5092208716
 21
3.5463070866
 31
0.0
  0
LINE
  5
1A3
  8
0
  6
CONTINUOUS
 62
     7
 10
1.4719811762
 20
3.5463070866
 30
0.0
 11
1.4697018916
 21
3.5463070866
 31
0.0
  0
LINE
  5
1A4
  8
0
  6
CONTINUOUS
 62
     7
 10
1.4697018916
 20
3.5463070866
 30
0.0
 11
1.4697018916
 21
3.5444433544
 31
0.0
  0
LINE
  5
1A5
  8
0
  6
CONTINUOUS
 62
     7
 10
1.4697018916
 20
3.1484700314
 30
0.0
 11
1.4697018916
 21
3.1466062992
 31
0.0
  0
LINE
  5
1A6
  8
0
  6
CONTINUOUS
 62
     7
 10
1.4697018916
 20
3.1466062992
 30
0.0
 11
1.4719811762
 21
3.1466062992
 31
0.0
  0
LINE
  5
1A7
  8
0
  6
CONTINUOUS
 62
     7
 10
1.5092208716
 20
3.1466062992
 30
0.0
 11
1.7173055546
 21
3.1466062992
 31
0.0
  0
LINE
  5
1A8
  8
0
  6
CONTINUOUS
 62
     7
 10
1.7173055546
 20
3.1466062992
 30
0.0
 11
1.7173055546
 21
3.1496062992
 31
0.0
  0
LINE
  5
1A9
  8
0
  6
CONTINUOUS
 62
     7
 10
1.7173055546
 20
2.7559055118
 30
0.0
 11
1.7173055546
 21
2.7589055118
 31
0.0
  0
LINE
  5
1AA
  8
0
  6
CONTINUOUS
 62
     7
 10
1.7173055546
 20
2.7589055118
 30
0.0
 11
1.5092208716
 21
2.7589055118
 31
0.0
  0
LINE
  5
1AB
  8
0
  6
CONTINUOUS
 62
     7
 10
1.4719811762
 20
2.7589055118
 30
0.0
 11
1.4697018916
 21
2.7589055118
 31
0.0
  0
LINE
  5
1AC
  8
0
  6
CONTINUOUS
 62
     7
 10
1.4697018916
 20
2.7589055118
 30
0.0
 11
1.4697018916
 21
2.7570417796
 31
0.0
  0
LINE
  5
1AD
  8
0
  6
CONTINUOUS
 62
     7
 10
1.4697018916
 20
2.3610684566
 30
0.0
 11
1.4697018916
 21
2.3592047244
 31
0.0
  0
LINE
  5
1AE
  8
0
  6
CONTINUOUS
 62
     7
 10
1.4697018916
 20
2.3592047244
 30
0.0
 11
1.4719811762
 21
2.3592047244
 31
0.0
  0
LINE
  5
1AF
  8
0
  6
CONTINUOUS
 62
     7
 10
1.5092208716
 20
2.3592047244
 30
0.0
 11
1.7173055546
 21
2.3592047244
 31
0.0
  0
LINE
  5
1B0
  8
0
  6
CONTINUOUS
 62
     7
 10
1.7173055546
 20
2.3592047244
 30
0.0
 11
1.7173055546
 21
2.3622047244
 31
0.0
  0
LINE
  5
1B1
  8
0
  6
CONTINUOUS
 62
     7
 10
1.7173055546
 20
1.968503937
 30
0.0
 11
1.7173055546
 21
1.971503937
 31
0.0
  0
LINE
  5
1B2
  8
0
  6
CONTINUOUS
 62
     7
 10
1.7173055546
 20
1.971503937
 30
0.0
 11
1.5092208716
 21
1.971503937
 31
0.0
  0
LINE
  5
1B3
  8
0
  6
CONTINUOUS
 62
     7
 10
1.4719811762
 20
1.971503937
 30
0.0
 11
1.4697018916
 21
1.971503937
 31
0.0
  0
LINE
  5
1B4
  8
0
  6
CONTINUOUS
 62
     7
 10
1.4697018916
 20
1.971503937
 30
0.0
 11
1.4697018916
 21
1.9696402048
 31
0.0
  0
LINE
  5
1B5
  8
0
  6
CONTINUOUS
 62
     7
 10
1.4697018916
 20
1.5736668818
 30
0.0
 11
1.4697018916
 21
1.5718031496
 31
0.0
  0
LINE
  5
1B6
  8
0
  6
CONTINUOUS
 62
     7
 10
1.4697018916
 20
1.5718031496
 30
0.0
 11
1.4719811762
 21
1.5718031496
 31
0.0
  0
LINE
  5
1B7
  8
0
  6
CONTINUOUS
 62
     7
 10
1.5092208716
 20
1.5718031496
 30
0.0
 11
1.7173055546
 21
1.5718031496
 31
0.0
  0
LINE
  5
1B8
  8
0
  6
CONTINUOUS
 62
     7
 10
1.7173055546
 20
1.5718031496
 30
0.0
 11
1.7173055546
 21
1.5748031496
 31
0.0
  0
LINE
  5
1B9
  8
0
  6
CONTINUOUS
 62
     7
 10
1.7173055546
 20
1.1811023622
 30
0.0
 11
1.7173055546
 21
1.1841023622
 31
0.0
  0
LINE
  5
1BA
  8
0
  6
CONTINUOUS
 62
     7
 10
1.7173055546
 20
1.1841023622
 30
0.0
 11
1.5092208716
 21
1.1841023622
 31
0.0
  0
LINE
  5
1BB
  8
0
  6
CONTINUOUS
 62
     7
 10
1.4719811762
 20
1.1841023622
 30
0.0
 11
1.4697018916
 21
1.1841023622
 31
0.0
  0
LINE
  5
1BC
  8
0
  6
CONTINUOUS
 62
     7
 10
1.4697018916
 20
1.1841023622
 30
0.0
 11
1.4697018916
 21
1.18223863
 31
0.0
  0
LINE
  5
1BD
  8
0
  6
CONTINUOUS
 62
     7
 10
1.4697018916
 20
0.786265307
 30
0.0
 11
1.4697018916
 21
0.7844015748
 31
0.0
  0
LINE
  5
1BE
  8
0
  6
CONTINUOUS
 62
     7
 10
1.4697018916
 20
0.7844015748
 30
0.0
 11
1.4719811762
 21
0.7844015748
 31
0.0
  0
LINE
  5
1BF
  8
0
  6
CONTINUOUS
 62
     7
 10
1.5092208716
 20
0.7844015748
 30
0.0
 11
1.7173055546
 21
0.7844015748
 31
0.0
  0
LINE
  5
1C0
  8
0
  6
CONTINUOUS
 62
     7
 10
1.7173055546
 20
0.7844015748
 30
0.0
 11
1.7173055546
 21
0.7874015748
 31
0.0
  0
LINE
  5
1C1
  8
0
  6
CONTINUOUS
 62
     7
 10
0.8686023622
 20
-0.25
 30
0.0
 11
0.9311023622
 21
-0.1875
 31
0.0
  0
LINE
  5
1C2
  8
0
  6
CONTINUOUS
 62
     7
 10
0.5374015748
 20
-0.1875
 30
0.0
 11
0.5999015748
 21
-0.25
 31
0.0
  0
LINE
  5
1C3
  8
0
  6
CONTINUOUS
 62
     7
 10
-0.249329518
 20
0.7874015748
 30
0.0
 11
-0.249329518
 21
0.7850471741
 31
0.0
  0
LINE
  5
1C4
  8
0
  6
CONTINUOUS
 62
     7
 10
-0.249329518
 20
0.7850471741
 30
0.0
 11
-0.0415569752
 21
0.7850471741
 31
0.0
  0
LINE
  5
1C5
  8
0
  6
CONTINUOUS
 62
     7
 10
-0.0026371986
 20
0.7850471741
 30
0.0
 11
-0.0006706546
 21
0.7850471741
 31
0.0
  0
LINE
  5
1C6
  8
0
  6
CONTINUOUS
 62
     7
 10
-0.0006706546
 20
0.7850471741
 30
0.0
 11
-0.0006706546
 21
0.7867506838
 31
0.0
  0
LINE
  5
1C7
  8
0
  6
CONTINUOUS
 62
     7
 10
-0.0438557346
 20
1.1814356955
 30
0.0
 11
-0.249329518
 21
1.1814356955
 31
0.0
  0
LINE
  5
1C8
  8
0
  6
CONTINUOUS
 62
     7
 10
-0.249329518
 20
1.1814356955
 30
0.0
 11
-0.249329518
 21
1.1811023622
 31
0.0
  0
LINE
  5
1C9
  8
0
  6
CONTINUOUS
 62
     7
 10
-0.249329518
 20
1.5748031496
 30
0.0
 11
-0.249329518
 21
1.5724487489
 31
0.0
  0
LINE
  5
1CA
  8
0
  6
CONTINUOUS
 62
     7
 10
-0.249329518
 20
1.5724487489
 30
0.0
 11
-0.0415569752
 21
1.5724487489
 31
0.0
  0
LINE
  5
1CB
  8
0
  6
CONTINUOUS
 62
     7
 10
-0.0026371986
 20
1.5724487489
 30
0.0
 11
-0.0006706546
 21
1.5724487489
 31
0.0
  0
LINE
  5
1CC
  8
0
  6
CONTINUOUS
 62
     7
 10
-0.0006706546
 20
1.5724487489
 30
0.0
 11
-0.0006706546
 21
1.5741522587
 31
0.0
  0
LINE
  5
1CD
  8
0
  6
CONTINUOUS
 62
     7
 10
-0.0438557346
 20
1.9688372703
 30
0.0
 11
-0.249329518
 21
1.9688372703
 31
0.0
  0
LINE
  5
1CE
  8
0
  6
CONTINUOUS
 62
     7
 10
-0.249329518
 20
1.9688372703
 30
0.0
 11
-0.249329518
 21
1.968503937
 31
0.0
  0
LINE
  5
1CF
  8
0
  6
CONTINUOUS
 62
     7
 10
-0.249329518
 20
2.3622047244
 30
0.0
 11
-0.249329518
 21
2.3598503237
 31
0.0
  0
LINE
  5
1D0
  8
0
  6
CONTINUOUS
 62
     7
 10
-0.249329518
 20
2.3598503237
 30
0.0
 11
-0.0415569752
 21
2.3598503237
 31
0.0
  0
LINE
  5
1D1
  8
0
  6
CONTINUOUS
 62
     7
 10
-0.0026371986
 20
2.3598503237
 30
0.0
 11
-0.0006706546
 21
2.3598503237
 31
0.0
  0
LINE
  5
1D2
  8
0
  6
CONTINUOUS
 62
     7
 10
-0.0006706546
 20
2.3598503237
 30
0.0
 11
-0.0006706546
 21
2.3615538335
 31
0.0
  0
LINE
  5
1D3
  8
0
  6
CONTINUOUS
 62
     7
 10
-0.0438557346
 20
2.7562388451
 30
0.0
 11
-0.249329518
 21
2.7562388451
 31
0.0
  0
LINE
  5
1D4
  8
0
  6
CONTINUOUS
 62
     7
 10
-0.249329518
 20
2.7562388451
 30
0.0
 11
-0.249329518
 21
2.7559055118
 31
0.0
  0
LINE
  5
1D5
  8
0
  6
CONTINUOUS
 62
     7
 10
-0.249329518
 20
3.1496062992
 30
0.0
 11
-0.249329518
 21
3.1472518985
 31
0.0
  0
LINE
  5
1D6
  8
0
  6
CONTINUOUS
 62
     7
 10
-0.249329518
 20
3.1472518985
 30
0.0
 11
-0.0415569752
 21
3.1472518985
 31
0.0
  0
LINE
  5
1D7
  8
0
  6
CONTINUOUS
 62
     7
 10
-0.0026371986
 20
3.1472518985
 30
0.0
 11
-0.0006706546
 21
3.1472518985
 31
0.0
  0
LINE
  5
1D8
  8
0
  6
CONTINUOUS
 62
     7
 10
-0.0006706546
 20
3.1472518985
 30
0.0
 11
-0.0006706546
 21
3.1489554083
 31
0.0
  0
LINE
  5
1D9
  8
0
  6
CONTINUOUS
 62
     7
 10
-0.0438557346
 20
3.5436404199
 30
0.0
 11
-0.249329518
 21
3.5436404199
 31
0.0
  0
LINE
  5
1DA
  8
0
  6
CONTINUOUS
 62
     7
 10
-0.249329518
 20
3.5436404199
 30
0.0
 11
-0.249329518
 21
3.5433070866
 31
0.0
  0
LINE
  5
1DB
  8
0
  6
CONTINUOUS
 62
     7
 10
-0.249329518
 20
3.937007874
 30
0.0
 11
-0.249329518
 21
3.9346534733
 31
0.0
  0
LINE
  5
1DC
  8
0
  6
CONTINUOUS
 62
     7
 10
-0.249329518
 20
3.9346534733
 30
0.0
 11
-0.0415569752
 21
3.9346534733
 31
0.0
  0
LINE
  5
1DD
  8
0
  6
CONTINUOUS
 62
     7
 10
-0.0026371986
 20
3.9346534733
 30
0.0
 11
-0.0006706546
 21
3.9346534733
 31
0.0
  0
LINE
  5
1DE
  8
0
  6
CONTINUOUS
 62
     7
 10
-0.0006706546
 20
3.9346534733
 30
0.0
 11
-0.0006706546
 21
3.9363569831
 31
0.0
  0
LINE
  5
1DF
  8
0
  6
CONTINUOUS
 62
     7
 10
-0.0438557346
 20
4.3310419948
 30
0.0
 11
-0.249329518
 21
4.3310419948
 31
0.0
  0
LINE
  5
1E0
  8
0
  6
CONTINUOUS
 62
     7
 10
-0.249329518
 20
4.3310419948
 30
0.0
 11
-0.249329518
 21
4.3307086614
 31
0.0
  0
LINE
  5
1E1
  8
0
  6
CONTINUOUS
 62
     7
 10
-0.249329518
 20
4.7244094488
 30
0.0
 11
-0.249329518
 21
4.7220550481
 31
0.0
  0
LINE
  5
1E2
  8
0
  6
CONTINUOUS
 62
     7
 10
-0.249329518
 20
4.7220550481
 30
0.0
 11
-0.0415569752
 21
4.7220550481
 31
0.0
  0
LINE
  5
1E3
  8
0
  6
CONTINUOUS
 62
     7
 10
-0.0026371986
 20
4.7220550481
 30
0.0
 11
-0.0006706546
 21
4.7220550481
 31
0.0
  0
LINE
  5
1E4
  8
0
  6
CONTINUOUS
 62
     7
 10
-0.0006706546
 20
4.7220550481
 30
0.0
 11
-0.0006706546
 21
4.7237585579
 31
0.0
  0
LINE
  5
1E5
  8
0
  6
CONTINUOUS
 62
     7
 10
-0.0438557346
 20
5.1184435696
 30
0.0
 11
-0.249329518
 21
5.1184435696
 31
0.0
  0
LINE
  5
1E6
  8
0
  6
CONTINUOUS
 62
     7
 10
-0.249329518
 20
5.1184435696
 30
0.0
 11
-0.249329518
 21
5.1181102362
 31
0.0
  0
LINE
  5
1E7
  8
0
  6
CONTINUOUS
 62
     7
 10
-0.249329518
 20
5.5118110236
 30
0.0
 11
-0.249329518
 21
5.5094566229
 31
0.0
  0
LINE
  5
1E8
  8
0
  6
CONTINUOUS
 62
     7
 10
-0.249329518
 20
5.5094566229
 30
0.0
 11
-0.0415569752
 21
5.5094566229
 31
0.0
  0
LINE
  5
1E9
  8
0
  6
CONTINUOUS
 62
     7
 10
-0.0026371986
 20
5.5094566229
 30
0.0
 11
-0.0006706546
 21
5.5094566229
 31
0.0
  0
LINE
  5
1EA
  8
0
  6
CONTINUOUS
 62
     7
 10
-0.0006706546
 20
5.5094566229
 30
0.0
 11
-0.0006706546
 21
5.5111601327
 31
0.0
  0
LINE
  5
1EB
  8
0
  6
CONTINUOUS
 62
     7
 10
-0.0438557346
 20
5.9058451444
 30
0.0
 11
-0.249329518
 21
5.9058451444
 31
0.0
  0
LINE
  5
1EC
  8
0
  6
CONTINUOUS
 62
     7
 10
-0.249329518
 20
5.9058451444
 30
0.0
 11
-0.249329518
 21
5.905511811
 31
0.0
  0
LINE
  5
1ED
  8
0
  6
CONTINUOUS
 62
     7
 10
-0.249329518
 20
6.2992125984
 30
0.0
 11
-0.249329518
 21
6.2968581977
 31
0.0
  0
LINE
  5
1EE
  8
0
  6
CONTINUOUS
 62
     7
 10
-0.249329518
 20
6.2968581977
 30
0.0
 11
-0.0415569752
 21
6.2968581977
 31
0.0
  0
LINE
  5
1EF
  8
0
  6
CONTINUOUS
 62
     7
 10
-0.0026371986
 20
6.2968581977
 30
0.0
 11
-0.0006706546
 21
6.2968581977
 31
0.0
  0
LINE
  5
1F0
  8
0
  6
CONTINUOUS
 62
     7
 10
-0.0006706546
 20
6.2968581977
 30
0.0
 11
-0.0006706546
 21
6.2985617075
 31
0.0
  0
LINE
  5
1F1
  8
0
  6
CONTINUOUS
 62
     7
 10
-0.0438557346
 20
6.6932467192
 30
0.0
 11
-0.249329518
 21
6.6932467192
 31
0.0
  0
LINE
  5
1F2
  8
0
  6
CONTINUOUS
 62
     7
 10
-0.249329518
 20
6.6932467192
 30
0.0
 11
-0.249329518
 21
6.6929133858
 31
0.0
  0
LINE
  5
1F3
  8
0
  6
CONTINUOUS
 62
     7
 10
-0.249329518
 20
7.0866141732
 30
0.0
 11
-0.249329518
 21
7.0842597725
 31
0.0
  0
LINE
  5
1F4
  8
0
  6
CONTINUOUS
 62
     7
 10
-0.249329518
 20
7.0842597725
 30
0.0
 11
-0.0415569752
 21
7.0842597725
 31
0.0
  0
LINE
  5
1F5
  8
0
  6
CONTINUOUS
 62
     7
 10
-0.0026371986
 20
7.0842597725
 30
0.0
 11
-0.0006706546
 21
7.0842597725
 31
0.0
  0
LINE
  5
1F6
  8
0
  6
CONTINUOUS
 62
     7
 10
-0.0006706546
 20
7.0842597725
 30
0.0
 11
-0.0006706546
 21
7.0859632823
 31
0.0
  0
LINE
  5
1F7
  8
0
  6
CONTINUOUS
 62
     7
 10
-0.0006706546
 20
7.4789447842
 30
0.0
 11
-0.0006706546
 21
7.480648294
 31
0.0
  0
LINE
  5
1F8
  8
0
  6
CONTINUOUS
 62
     7
 10
-0.0006706546
 20
7.480648294
 30
0.0
 11
-0.0026371986
 21
7.480648294
 31
0.0
  0
LINE
  5
1F9
  8
0
  6
CONTINUOUS
 62
     7
 10
-0.0415569752
 20
7.480648294
 30
0.0
 11
-0.249329518
 21
7.480648294
 31
0.0
  0
LINE
  5
1FA
  8
0
  6
CONTINUOUS
 62
     7
 10
-0.249329518
 20
7.480648294
 30
0.0
 11
-0.249329518
 21
7.4803149606
 31
0.0
  0
LINE
  5
1FB
  8
0
  6
CONTINUOUS
 62
     7
 10
0.5999015748
 20
8.124015748
 30
0.0
 11
0.5374015748
 21
8.061515748
 31
0.0
  0
LINE
  5
1FC
  8
0
  6
CONTINUOUS
 62
     7
 10
0.9311023622
 20
8.061515748
 30
0.0
 11
0.8686023622
 21
8.124015748
 31
0.0
  0
LINE
  5
1FD
  8
0
  6
CONTINUOUS
 62
     7
 10
1.7173055546
 20
7.4803149606
 30
0.0
 11
1.7173055546
 21
7.4833149606
 31
0.0
  0
LINE
  5
1FE
  8
0
  6
CONTINUOUS
 62
     7
 10
1.7173055546
 20
7.4833149606
 30
0.0
 11
1.5092208716
 21
7.4833149606
 31
0.0
  0
LINE
  5
1FF
  8
0
  6
CONTINUOUS
 62
     7
 10
1.4719811762
 20
7.4833149606
 30
0.0
 11
1.4697018916
 21
7.4833149606
 31
0.0
  0
LINE
  5
200
  8
0
  6
CONTINUOUS
 62
     7
 10
1.4697018916
 20
7.4833149606
 30
0.0
 11
1.4697018916
 21
7.4814512284
 31
0.0
  0
LINE
  5
201
  8
0
  6
CONTINUOUS
 62
     7
 10
1.4697018916
 20
7.0854779055
 30
0.0
 11
1.4697018916
 21
7.0836141732
 31
0.0
  0
LINE
  5
202
  8
0
  6
CONTINUOUS
 62
     7
 10
1.4697018916
 20
7.0836141732
 30
0.0
 11
1.4719811762
 21
7.0836141732
 31
0.0
  0
LINE
  5
203
  8
0
  6
CONTINUOUS
 62
     7
 10
1.5092208716
 20
7.0836141732
 30
0.0
 11
1.7173055546
 21
7.0836141732
 31
0.0
  0
LINE
  5
204
  8
0
  6
CONTINUOUS
 62
     7
 10
1.7173055546
 20
7.0836141732
 30
0.0
 11
1.7173055546
 21
7.0866141732
 31
0.0
  0
LINE
  5
205
  8
0
  6
CONTINUOUS
 62
     7
 10
1.7173055546
 20
6.6929133858
 30
0.0
 11
1.7173055546
 21
6.6959133858
 31
0.0
  0
LINE
  5
206
  8
0
  6
CONTINUOUS
 62
     7
 10
1.7173055546
 20
6.6959133858
 30
0.0
 11
1.5092208716
 21
6.6959133858
 31
0.0
  0
LINE
  5
207
  8
0
  6
CONTINUOUS
 62
     7
 10
1.4719811762
 20
6.6959133858
 30
0.0
 11
1.4697018916
 21
6.6959133858
 31
0.0
  0
LINE
  5
208
  8
0
  6
CONTINUOUS
 62
     7
 10
1.4697018916
 20
6.6959133858
 30
0.0
 11
1.4697018916
 21
6.6940496536
 31
0.0
  0
LINE
  5
209
  8
0
  6
CONTINUOUS
 62
     7
 10
1.4697018916
 20
6.2980763307
 30
0.0
 11
1.4697018916
 21
6.2962125984
 31
0.0
  0
LINE
  5
20A
  8
0
  6
CONTINUOUS
 62
     7
 10
1.4697018916
 20
6.2962125984
 30
0.0
 11
1.4719811762
 21
6.2962125984
 31
0.0
  0
LINE
  5
20B
  8
0
  6
CONTINUOUS
 62
     7
 10
1.5092208716
 20
6.2962125984
 30
0.0
 11
1.7173055546
 21
6.2962125984
 31
0.0
  0
LINE
  5
20C
  8
0
  6
CONTINUOUS
 62
     7
 10
1.7173055546
 20
6.2962125984
 30
0.0
 11
1.7173055546
 21
6.2992125984
 31
0.0
  0
LINE
  5
20D
  8
0
  6
CONTINUOUS
 62
     7
 10
1.7173055546
 20
5.905511811
 30
0.0
 11
1.7173055546
 21
5.908511811
 31
0.0
  0
LINE
  5
20E
  8
0
  6
CONTINUOUS
 62
     7
 10
1.7173055546
 20
5.908511811
 30
0.0
 11
1.5092208716
 21
5.908511811
 31
0.0
  0
LINE
  5
20F
  8
0
  6
CONTINUOUS
 62
     7
 10
1.4719811762
 20
5.908511811
 30
0.0
 11
1.4697018916
 21
5.908511811
 31
0.0
  0
LINE
  5
210
  8
0
  6
CONTINUOUS
 62
     7
 10
1.4697018916
 20
5.908511811
 30
0.0
 11
1.4697018916
 21
5.9066480788
 31
0.0
  0
LINE
  5
211
  8
0
  6
CONTINUOUS
 62
     7
 10
1.4697018916
 20
5.5106747559
 30
0.0
 11
1.4697018916
 21
5.5088110236
 31
0.0
  0
LINE
  5
212
  8
0
  6
CONTINUOUS
 62
     7
 10
1.4697018916
 20
5.5088110236
 30
0.0
 11
1.4719811762
 21
5.5088110236
 31
0.0
  0
LINE
  5
213
  8
0
  6
CONTINUOUS
 62
     7
 10
1.5092208716
 20
5.5088110236
 30
0.0
 11
1.7173055546
 21
5.5088110236
 31
0.0
  0
LINE
  5
214
  8
0
  6
CONTINUOUS
 62
     7
 10
1.7173055546
 20
5.5088110236
 30
0.0
 11
1.7173055546
 21
5.5118110236
 31
0.0
  0
LINE
  5
215
  8
0
  6
CONTINUOUS
 62
     7
 10
1.7173055546
 20
5.1181102362
 30
0.0
 11
1.7173055546
 21
5.1211102362
 31
0.0
  0
LINE
  5
216
  8
0
  6
CONTINUOUS
 62
     7
 10
1.7173055546
 20
5.1211102362
 30
0.0
 11
1.5092208716
 21
5.1211102362
 31
0.0
  0
LINE
  5
217
  8
0
  6
CONTINUOUS
 62
     7
 10
1.4719811762
 20
5.1211102362
 30
0.0
 11
1.4697018916
 21
5.1211102362
 31
0.0
  0
LINE
  5
218
  8
0
  6
CONTINUOUS
 62
     7
 10
1.4697018916
 20
5.1211102362
 30
0.0
 11
1.4697018916
 21
5.119246504
 31
0.0
  0
LINE
  5
219
  8
0
  6
CONTINUOUS
 62
     7
 10
-0.25
 20
7.4803149606
 30
0.0
 11
-0.249329518
 21
7.4803149606
 31
0.0
  0
LINE
  5
21A
  8
0
  6
CONTINUOUS
 62
     7
 10
-0.25
 20
7.874015748
 30
0.0
 11
-0.25
 21
7.4803149606
 31
0.0
  0
LINE
  5
21B
  8
0
  6
CONTINUOUS
 62
     7
 10
0.493207401
 20
7.874015748
 30
0.0
 11
-0.25
 21
7.874015748
 31
0.0
  0
LINE
  5
21C
  8
0
  6
CONTINUOUS
 62
     7
 10
0.5374015748
 20
8.061515748
 30
0.0
 11
0.5374015748
 21
7.9182099219
 31
0.0
  0
LINE
  5
21D
  8
0
  6
CONTINUOUS
 62
     7
 10
0.8686023622
 20
8.124015748
 30
0.0
 11
0.5999015748
 21
8.124015748
 31
0.0
  0
LINE
  5
21E
  8
0
  6
CONTINUOUS
 62
     7
 10
0.9311023622
 20
7.9182099219
 30
0.0
 11
0.9311023622
 21
8.061515748
 31
0.0
  0
LINE
  5
21F
  8
0
  6
CONTINUOUS
 62
     7
 10
1.718503937
 20
7.874015748
 30
0.0
 11
0.975296536
 21
7.874015748
 31
0.0
  0
LINE
  5
220
  8
0
  6
CONTINUOUS
 62
     7
 10
1.718503937
 20
7.4803149606
 30
0.0
 11
1.718503937
 21
7.874015748
 31
0.0
  0
LINE
  5
221
  8
0
  6
CONTINUOUS
 62
     7
 10
1.7173055546
 20
7.4803149606
 30
0.0
 11
1.718503937
 21
7.4803149606
 31
0.0
  0
LINE
  5
222
  8
0
  6
CONTINUOUS
 62
     7
 10
1.468503937
 20
7.1308083471
 30
0.0
 11
1.468503937
 21
7.4361207868
 31
0.0
  0
LINE
  5
223
  8
0
  6
CONTINUOUS
 62
     7
 10
1.718503937
 20
7.0866141732
 30
0.0
 11
1.7173055546
 21
7.0866141732
 31
0.0
  0
LINE
  5
224
  8
0
  6
CONTINUOUS
 62
     7
 10
1.718503937
 20
6.6929133858
 30
0.0
 11
1.718503937
 21
7.0866141732
 31
0.0
  0
LINE
  5
225
  8
0
  6
CONTINUOUS
 62
     7
 10
1.7173055546
 20
6.6929133858
 30
0.0
 11
1.718503937
 21
6.6929133858
 31
0.0
  0
LINE
  5
226
  8
0
  6
CONTINUOUS
 62
     7
 10
1.468503937
 20
6.3434067722
 30
0.0
 11
1.468503937
 21
6.648719212
 31
0.0
  0
LINE
  5
227
  8
0
  6
CONTINUOUS
 62
     7
 10
1.718503937
 20
6.2992125984
 30
0.0
 11
1.7173055546
 21
6.2992125984
 31
0.0
  0
LINE
  5
228
  8
0
  6
CONTINUOUS
 62
     7
 10
1.718503937
 20
5.905511811
 30
0.0
 11
1.718503937
 21
6.2992125984
 31
0.0
  0
LINE
  5
229
  8
0
  6
CONTINUOUS
 62
     7
 10
1.7173055546
 20
5.905511811
 30
0.0
 11
1.718503937
 21
5.905511811
 31
0.0
  0
LINE
  5
22A
  8
0
  6
CONTINUOUS
 62
     7
 10
1.468503937
 20
5.5560051974
 30
0.0
 11
1.468503937
 21
5.8613176372
 31
0.0
  0
LINE
  5
22B
  8
0
  6
CONTINUOUS
 62
     7
 10
1.718503937
 20
5.5118110236
 30
0.0
 11
1.7173055546
 21
5.5118110236
 31
0.0
  0
LINE
  5
22C
  8
0
  6
CONTINUOUS
 62
     7
 10
1.718503937
 20
5.1181102362
 30
0.0
 11
1.718503937
 21
5.5118110236
 31
0.0
  0
LINE
  5
22D
  8
0
  6
CONTINUOUS
 62
     7
 10
1.7173055546
 20
5.1181102362
 30
0.0
 11
1.718503937
 21
5.1181102362
 31
0.0
  0
LINE
  5
22E
  8
0
  6
CONTINUOUS
 62
     7
 10
1.468503937
 20
4.7686036226
 30
0.0
 11
1.468503937
 21
5.0739160624
 31
0.0
  0
LINE
  5
22F
  8
0
  6
CONTINUOUS
 62
     7
 10
1.718503937
 20
4.7244094488
 30
0.0
 11
1.7173055546
 21
4.7244094488
 31
0.0
  0
LINE
  5
230
  8
0
  6
CONTINUOUS
 62
     7
 10
1.718503937
 20
4.3307086614
 30
0.0
 11
1.718503937
 21
4.7244094488
 31
0.0
  0
LINE
  5
231
  8
0
  6
CONTINUOUS
 62
     7
 10
1.7173055546
 20
4.3307086614
 30
0.0
 11
1.718503937
 21
4.3307086614
 31
0.0
  0
LINE
  5
232
  8
0
  6
CONTINUOUS
 62
     7
 10
1.468503937
 20
3.9812020478
 30
0.0
 11
1.468503937
 21
4.2865144876
 31
0.0
  0
LINE
  5
233
  8
0
  6
CONTINUOUS
 62
     7
 10
1.718503937
 20
3.937007874
 30
0.0
 11
1.7173055546
 21
3.937007874
 31
0.0
  0
LINE
  5
234
  8
0
  6
CONTINUOUS
 62
     7
 10
1.718503937
 20
3.5433070866
 30
0.0
 11
1.718503937
 21
3.937007874
 31
0.0
  0
LINE
  5
235
  8
0
  6
CONTINUOUS
 62
     7
 10
1.7173055546
 20
3.5433070866
 30
0.0
 11
1.718503937
 21
3.5433070866
 31
0.0
  0
LINE
  5
236
  8
0
  6
CONTINUOUS
 62
     7
 10
1.468503937
 20
3.193800473
 30
0.0
 11
1.468503937
 21
3.4991129128
 31
0.0
  0
LINE
  5
237
  8
0
  6
CONTINUOUS
 62
     7
 10
1.718503937
 20
3.1496062992
 30
0.0
 11
1.7173055546
 21
3.1496062992
 31
0.0
  0
LINE
  5
238
  8
0
  6
CONTINUOUS
 62
     7
 10
1.718503937
 20
2.7559055118
 30
0.0
 11
1.718503937
 21
3.1496062992
 31
0.0
  0
LINE
  5
239
  8
0
  6
CONTINUOUS
 62
     7
 10
1.7173055546
 20
2.7559055118
 30
0.0
 11
1.718503937
 21
2.7559055118
 31
0.0
  0
LINE
  5
23A
  8
0
  6
CONTINUOUS
 62
     7
 10
1.468503937
 20
2.4063988982
 30
0.0
 11
1.468503937
 21
2.711711338
 31
0.0
  0
LINE
  5
23B
  8
0
  6
CONTINUOUS
 62
     7
 10
1.718503937
 20
2.3622047244
 30
0.0
 11
1.7173055546
 21
2.3622047244
 31
0.0
  0
LINE
  5
23C
  8
0
  6
CONTINUOUS
 62
     7
 10
1.718503937
 20
1.968503937
 30
0.0
 11
1.718503937
 21
2.3622047244
 31
0.0
  0
LINE
  5
23D
  8
0
  6
CONTINUOUS
 62
     7
 10
1.7173055546
 20
1.968503937
 30
0.0
 11
1.718503937
 21
1.968503937
 31
0.0
  0
LINE
  5
23E
  8
0
  6
CONTINUOUS
 62
     7
 10
1.468503937
 20
1.6189973234
 30
0.0
 11
1.468503937
 21
1.9243097632
 31
0.0
  0
LINE
  5
23F
  8
0
  6
CONTINUOUS
 62
     7
 10
1.718503937
 20
1.5748031496
 30
0.0
 11
1.7173055546
 21
1.5748031496
 31
0.0
  0
LINE
  5
240
  8
0
  6
CONTINUOUS
 62
     7
 10
1.718503937
 20
1.1811023622
 30
0.0
 11
1.718503937
 21
1.5748031496
 31
0.0
  0
LINE
  5
241
  8
0
  6
CONTINUOUS
 62
     7
 10
1.7173055546
 20
1.1811023622
 30
0.0
 11
1.718503937
 21
1.1811023622
 31
0.0
  0
LINE
  5
242
  8
0
  6
CONTINUOUS
 62
     7
 10
1.468503937
 20
0.8315957486
 30
0.0
 11
1.468503937
 21
1.1369081884
 31
0.0
  0
LINE
  5
243
  8
0
  6
CONTINUOUS
 62
     7
 10
1.718503937
 20
0.7874015748
 30
0.0
 11
1.7173055546
 21
0.7874015748
 31
0.0
  0
LINE
  5
244
  8
0
  6
CONTINUOUS
 62
     7
 10
1.718503937
 20
0.3937007874
 30
0.0
 11
1.718503937
 21
0.7874015748
 31
0.0
  0
LINE
  5
245
  8
0
  6
CONTINUOUS
 62
     7
 10
1.5126981108
 20
0.3937007874
 30
0.0
 11
1.718503937
 21
0.3937007874
 31
0.0
  0
LINE
  5
246
  8
0
  6
CONTINUOUS
 62
     7
 10
1.468503937
 20
0.0
 30
0.0
 11
1.468503937
 21
0.3495066136
 31
0.0
  0
LINE
  5
247
  8
0
  6
CONTINUOUS
 62
     7
 10
0.975296536
 20
0.0
 30
0.0
 11
1.468503937
 21
0.0
 31
0.0
  0
LINE
  5
248
  8
0
  6
CONTINUOUS
 62
     7
 10
0.9311023622
 20
-0.1875
 30
0.0
 11
0.9311023622
 21
-0.0441941738
 31
0.0
  0
LINE
  5
249
  8
0
  6
CONTINUOUS
 62
     7
 10
0.5999015748
 20
-0.25
 30
0.0
 11
0.8686023622
 21
-0.25
 31
0.0
  0
LINE
  5
24A
  8
0
  6
CONTINUOUS
 62
     7
 10
0.5374015748
 20
-0.0441941738
 30
0.0
 11
0.5374015748
 21
-0.1875
 31
0.0
  0
LINE
  5
24B
  8
0
  6
CONTINUOUS
 62
     7
 10
0.0
 20
0.0
 30
0.0
 11
0.493207401
 21
0.0
 31
0.0
  0
LINE
  5
24C
  8
0
  6
CONTINUOUS
 62
     7
 10
0.0
 20
0.3495066136
 30
0.0
 11
0.0
 21
0.0
 31
0.0
  0
LINE
  5
24D
  8
0
  6
CONTINUOUS
 62
     7
 10
-0.25
 20
0.3937007874
 30
0.0
 11
-0.0441941738
 21
0.3937007874
 31
0.0
  0
LINE
  5
24E
  8
0
  6
CONTINUOUS
 62
     7
 10
-0.25
 20
0.7874015748
 30
0.0
 11
-0.25
 21
0.3937007874
 31
0.0
  0
LINE
  5
24F
  8
0
  6
CONTINUOUS
 62
     7
 10
-0.249329518
 20
0.7874015748
 30
0.0
 11
-0.25
 21
0.7874015748
 31
0.0
  0
LINE
  5
250
  8
0
  6
CONTINUOUS
 62
     7
 10
0.0
 20
1.1369081884
 30
0.0
 11
0.0
 21
0.8315957486
 31
0.0
  0
LINE
  5
251
  8
0
  6
CONTINUOUS
 62
     7
 10
-0.25
 20
1.1811023622
 30
0.0
 11
-0.249329518
 21
1.1811023622
 31
0.0
  0
LINE
  5
252
  8
0
  6
CONTINUOUS
 62
     7
 10
-0.25
 20
1.5748031496
 30
0.0
 11
-0.25
 21
1.1811023622
 31
0.0
  0
LINE
  5
253
  8
0
  6
CONTINUOUS
 62
     7
 10
-0.249329518
 20
1.5748031496
 30
0.0
 11
-0.25
 21
1.5748031496
 31
0.0
  0
LINE
  5
254
  8
0
  6
CONTINUOUS
 62
     7
 10
0.0
 20
1.9243097632
 30
0.0
 11
0.0
 21
1.6189973234
 31
0.0
  0
LINE
  5
255
  8
0
  6
CONTINUOUS
 62
     7
 10
-0.25
 20
1.968503937
 30
0.0
 11
-0.249329518
 21
1.968503937
 31
0.0
  0
LINE
  5
256
  8
0
  6
CONTINUOUS
 62
     7
 10
-0.25
 20
2.3622047244
 30
0.0
 11
-0.25
 21
1.968503937
 31
0.0
  0
LINE
  5
257
  8
0
  6
CONTINUOUS
 62
     7
 10
-0.249329518
 20
2.3622047244
 30
0.0
 11
-0.25
 21
2.3622047244
 31
0.0
  0
LINE
  5
258
  8
0
  6
CONTINUOUS
 62
     7
 10
0.0
 20
2.711711338
 30
0.0
 11
0.0
 21
2.4063988982
 31
0.0
  0
LINE
  5
259
  8
0
  6
CONTINUOUS
 62
     7
 10
-0.25
 20
2.7559055118
 30
0.0
 11
-0.249329518
 21
2.7559055118
 31
0.0
  0
LINE
  5
25A
  8
0
  6
CONTINUOUS
 62
     7
 10
-0.25
 20
3.1496062992
 30
0.0
 11
-0.25
 21
2.7559055118
 31
0.0
  0
LINE
  5
25B
  8
0
  6
CONTINUOUS
 62
     7
 10
-0.249329518
 20
3.1496062992
 30
0.0
 11
-0.25
 21
3.1496062992
 31
0.0
  0
LINE
  5
25C
  8
0
  6
CONTINUOUS
 62
     7
 10
0.0
 20
3.4991129128
 30
0.0
 11
0.0
 21
3.193800473
 31
0.0
  0
LINE
  5
25D
  8
0
  6
CONTINUOUS
 62
     7
 10
-0.25
 20
3.5433070866
 30
0.0
 11
-0.249329518
 21
3.5433070866
 31
0.0
  0
LINE
  5
25E
  8
0
  6
CONTINUOUS
 62
     7
 10
-0.25
 20
3.937007874
 30
0.0
 11
-0.25
 21
3.5433070866
 31
0.0
  0
LINE
  5
25F
  8
0
  6
CONTINUOUS
 62
     7
 10
-0.249329518
 20
3.937007874
 30
0.0
 11
-0.25
 21
3.937007874
 31
0.0
  0
LINE
  5
260
  8
0
  6
CONTINUOUS
 62
     7
 10
0.0
 20
4.2865144876
 30
0.0
 11
0.0
 21
3.9812020478
 31
0.0
  0
LINE
  5
261
  8
0
  6
CONTINUOUS
 62
     7
 10
-0.25
 20
4.3307086614
 30
0.0
 11
-0.249329518
 21
4.3307086614
 31
0.0
  0
LINE
  5
262
  8
0
  6
CONTINUOUS
 62
     7
 10
-0.25
 20
4.7244094488
 30
0.0
 11
-0.25
 21
4.3307086614
 31
0.0
  0
LINE
  5
263
  8
0
  6
CONTINUOUS
 62
     7
 10
-0.249329518
 20
4.7244094488
 30
0.0
 11
-0.25
 21
4.7244094488
 31
0.0
  0
LINE
  5
264
  8
0
  6
CONTINUOUS
 62
     7
 10
0.0
 20
5.0739160624
 30
0.0
 11
0.0
 21
4.7686036226
 31
0.0
  0
LINE
  5
265
  8
0
  6
CONTINUOUS
 62
     7
 10
-0.25
 20
5.1181102362
 30
0.0
 11
-0.249329518
 21
5.1181102362
 31
0.0
  0
LINE
  5
266
  8
0
  6
CONTINUOUS
 62
     7
 10
-0.25
 20
5.5118110236
 30
0.0
 11
-0.25
 21
5.1181102362
 31
0.0
  0
LINE
  5
267
  8
0
  6
CONTINUOUS
 62
     7
 10
-0.249329518
 20
5.5118110236
 30
0.0
 11
-0.25
 21
5.5118110236
 31
0.0
  0
LINE
  5
268
  8
0
  6
CONTINUOUS
 62
     7
 10
0.0
 20
5.8613176372
 30
0.0
 11
0.0
 21
5.5560051974
 31
0.0
  0
LINE
  5
269
  8
0
  6
CONTINUOUS
 62
     7
 10
-0.25
 20
5.905511811
 30
0.0
 11
-0.249329518
 21
5.905511811
 31
0.0
  0
LINE
  5
26A
  8
0
  6
CONTINUOUS
 62
     7
 10
-0.25
 20
6.2992125984
 30
0.0
 11
-0.25
 21
5.905511811
 31
0.0
  0
LINE
  5
26B
  8
0
  6
CONTINUOUS
 62
     7
 10
-0.249329518
 20
6.2992125984
 30
0.0
 11
-0.25
 21
6.2992125984
 31
0.0
  0
LINE
  5
26C
  8
0
  6
CONTINUOUS
 62
     7
 10
0.0
 20
6.648719212
 30
0.0
 11
0.0
 21
6.3434067722
 31
0.0
  0
LINE
  5
26D
  8
0
  6
CONTINUOUS
 62
     7
 10
-0.25
 20
6.6929133858
 30
0.0
 11
-0.249329518
 21
6.6929133858
 31
0.0
  0
LINE
  5
26E
  8
0
  6
CONTINUOUS
 62
     7
 10
-0.25
 20
7.0866141732
 30
0.0
 11
-0.25
 21
6.6929133858
 31
0.0
  0
LINE
  5
26F
  8
0
  6
CONTINUOUS
 62
     7
 10
-0.249329518
 20
7.0866141732
 30
0.0
 11
-0.25
 21
7.0866141732
 31
0.0
  0
LINE
  5
270
  8
0
  6
CONTINUOUS
 62
     7
 10
0.0
 20
7.4340997194
 30
0.0
 11
0.0
 21
7.1308083471
 31
0.0
  0
ARC
  5
271
  8
0
  6
CONTINUOUS
 62
     7
 10
0.5153044879
 20
7.8961128349
 30
0.0
 40
0.0312500000000103
 50
225.0
 51
45.0
  0
ARC
  5
272
  8
0
  6
CONTINUOUS
 62
     7
 10
0.9531994491
 20
7.8961128349
 30
0.0
 40
0.0312500000000043
 50
135.0
 51
315.0
  0
ARC
  5
273
  8
0
  6
CONTINUOUS
 62
     7
 10
1.4906010239
 20
7.4582178737
 30
0.0
 40
0.0312499999999842
 50
53.4278107011
 51
126.5721892989
  0
ARC
  5
274
  8
0
  6
CONTINUOUS
 62
     7
 10
1.4906010239
 20
7.1087112601
 30
0.0
 40
0.0312499999999753
 50
233.427810701
 51
306.572189299
  0
ARC
  5
275
  8
0
  6
CONTINUOUS
 62
     7
 10
1.4906010239
 20
6.6708162989
 30
0.0
 40
0.0312499999999636
 50
53.4278107011
 51
126.5721892989
  0
ARC
  5
276
  8
0
  6
CONTINUOUS
 62
     7
 10
1.4906010239
 20
6.3213096853
 30
0.0
 40
0.0312499999999867
 50
233.4278107009
 51
306.5721892991
  0
ARC
  5
277
  8
0
  6
CONTINUOUS
 62
     7
 10
1.4906010239
 20
5.8834147241
 30
0.0
 40
0.0312499999999807
 50
53.4278107011
 51
126.5721892989
  0
ARC
  5
278
  8
0
  6
CONTINUOUS
 62
     7
 10
1.4906010239
 20
5.5339081105
 30
0.0
 40
0.0312499999999886
 50
233.4278107009
 51
306.5721892992
  0
ARC
  5
279
  8
0
  6
CONTINUOUS
 62
     7
 10
1.4906010239
 20
5.0960131493
 30
0.0
 40
0.0312499999999917
 50
53.4278107011
 51
126.5721892989
  0
ARC
  5
27A
  8
0
  6
CONTINUOUS
 62
     7
 10
1.4906010239
 20
4.7465065357
 30
0.0
 40
0.0312499999999905
 50
233.4278107009
 51
306.5721892992
  0
ARC
  5
27B
  8
0
  6
CONTINUOUS
 62
     7
 10
1.4906010239
 20
4.3086115745
 30
0.0
 40
0.0312499999999795
 50
53.4278107011
 51
126.5721892989
  0
ARC
  5
27C
  8
0
  6
CONTINUOUS
 62
     7
 10
1.4906010239
 20
3.9591049609
 30
0.0
 40
0.0312499999999906
 50
233.4278107008
 51
306.5721892992
  0
ARC
  5
27D
  8
0
  6
CONTINUOUS
 62
     7
 10
1.4906010239
 20
3.5212099997
 30
0.0
 40
0.0312499999999945
 50
53.4278107011
 51
126.5721892989
  0
ARC
  5
27E
  8
0
  6
CONTINUOUS
 62
     7
 10
1.4906010239
 20
3.1717033861
 30
0.0
 40
0.0312499999999918
 50
233.4278107009
 51
306.5721892992
  0
ARC
  5
27F
  8
0
  6
CONTINUOUS
 62
     7
 10
1.4906010239
 20
2.7338084249
 30
0.0
 40
0.0312499999999799
 50
53.4278107011
 51
126.5721892989
  0
ARC
  5
280
  8
0
  6
CONTINUOUS
 62
     7
 10
1.4906010239
 20
2.3843018113
 30
0.0
 40
0.0312499999999922
 50
233.4278107008
 51
306.5721892992
  0
ARC
  5
281
  8
0
  6
CONTINUOUS
 62
     7
 10
1.4906010239
 20
1.9464068501
 30
0.0
 40
0.0312499999999918
 50
53.4278107011
 51
126.5721892989
  0
ARC
  5
282
  8
0
  6
CONTINUOUS
 62
     7
 10
1.4906010239
 20
1.5969002365
 30
0.0
 40
0.0312499999999916
 50
233.4278107008
 51
306.5721892992
  0
ARC
  5
283
  8
0
  6
CONTINUOUS
 62
     7
 10
1.4906010239
 20
1.1590052753
 30
0.0
 40
0.0312499999999665
 50
53.4278107011
 51
126.5721892989
  0
ARC
  5
284
  8
0
  6
CONTINUOUS
 62
     7
 10
1.4906010239
 20
0.8094986617
 30
0.0
 40
0.0312499999999803
 50
233.4278107009
 51
306.5721892991
  0
ARC
  5
285
  8
0
  6
CONTINUOUS
 62
     7
 10
1.4906010239
 20
0.3716037005
 30
0.0
 40
0.0312499999999796
 50
45.0
 51
225.0000000001
  0
ARC
  5
286
  8
0
  6
CONTINUOUS
 62
     7
 10
0.9531994491
 20
-0.0220970869
 30
0.0
 40
0.031249999999984
 50
45.0
 51
224.9999999999
  0
ARC
  5
287
  8
0
  6
CONTINUOUS
 62
     7
 10
0.5153044879
 20
-0.0220970869
 30
0.0
 40
0.0312500000000104
 50
315.0
 51
135.0
  0
ARC
  5
288
  8
0
  6
CONTINUOUS
 62
     7
 10
-0.0220970869
 20
0.3716037005
 30
0.0
 40
0.0312499999999671
 50
315.0
 51
134.9999999999
  0
ARC
  5
289
  8
0
  6
CONTINUOUS
 62
     7
 10
-0.0220970869
 20
0.8094986617
 30
0.0
 40
0.0312499999999914
 50
231.485225299
 51
308.514774701
  0
ARC
  5
28A
  8
0
  6
CONTINUOUS
 62
     7
 10
-0.0220970869
 20
1.1590052753
 30
0.0
 40
0.0312499999999919
 50
315.0
 51
134.1290431869
  0
ARC
  5
28B
  8
0
  6
CONTINUOUS
 62
     7
 10
-0.0220970869
 20
1.5969002365
 30
0.0
 40
0.0312499999999784
 50
231.485225299
 51
308.514774701
  0
ARC
  5
28C
  8
0
  6
CONTINUOUS
 62
     7
 10
-0.0220970869
 20
1.9464068501
 30
0.0
 40
0.0312499999999671
 50
315.0
 51
134.1290431868
  0
ARC
  5
28D
  8
0
  6
CONTINUOUS
 62
     7
 10
-0.0220970869
 20
2.3843018113
 30
0.0
 40
0.0312499999999928
 50
231.485225299
 51
308.514774701
  0
ARC
  5
28E
  8
0
  6
CONTINUOUS
 62
     7
 10
-0.0220970869
 20
2.7338084249
 30
0.0
 40
0.03124999999998
 50
315.0
 51
134.1290431869
  0
ARC
  5
28F
  8
0
  6
CONTINUOUS
 62
     7
 10
-0.0220970869
 20
3.1717033861
 30
0.0
 40
0.0312499999999927
 50
231.485225299
 51
308.514774701
  0
ARC
  5
290
  8
0
  6
CONTINUOUS
 62
     7
 10
-0.0220970869
 20
3.5212099997
 30
0.0
 40
0.0312499999999796
 50
315.0
 51
134.1290431869
  0
ARC
  5
291
  8
0
  6
CONTINUOUS
 62
     7
 10
-0.0220970869
 20
3.9591049609
 30
0.0
 40
0.0312499999999937
 50
231.485225299
 51
308.514774701
  0
ARC
  5
292
  8
0
  6
CONTINUOUS
 62
     7
 10
-0.0220970869
 20
4.3086115745
 30
0.0
 40
0.0312499999999921
 50
315.0
 51
134.1290431869
  0
ARC
  5
293
  8
0
  6
CONTINUOUS
 62
     7
 10
-0.0220970869
 20
4.7465065357
 30
0.0
 40
0.0312499999999925
 50
231.485225299
 51
308.514774701
  0
ARC
  5
294
  8
0
  6
CONTINUOUS
 62
     7
 10
-0.0220970869
 20
5.0960131493
 30
0.0
 40
0.0312499999999803
 50
315.0
 51
134.1290431869
  0
ARC
  5
295
  8
0
  6
CONTINUOUS
 62
     7
 10
-0.0220970869
 20
5.5339081105
 30
0.0
 40
0.0312499999999931
 50
231.485225299
 51
308.514774701
  0
ARC
  5
296
  8
0
  6
CONTINUOUS
 62
     7
 10
-0.0220970869
 20
5.8834147241
 30
0.0
 40
0.0312499999999681
 50
315.0
 51
134.1290431869
  0
ARC
  5
297
  8
0
  6
CONTINUOUS
 62
     7
 10
-0.0220970869
 20
6.3213096853
 30
0.0
 40
0.0312499999999903
 50
231.485225299
 51
308.514774701
  0
ARC
  5
298
  8
0
  6
CONTINUOUS
 62
     7
 10
-0.0220970869
 20
6.6708162989
 30
0.0
 40
0.0312499999999683
 50
315.0
 51
134.1290431868
  0
ARC
  5
299
  8
0
  6
CONTINUOUS
 62
     7
 10
-0.0220970869
 20
7.1087112601
 30
0.0
 40
0.0312500000000062
 50
231.485225299
 51
308.514774701
  0
ARC
  5
29A
  8
0
  6
CONTINUOUS
 62
     7
 10
-0.0220970869
 20
7.4561968063
 30
0.0
 40
0.0312499999999811
 50
51.4852252992
 51
128.5147747008
  0
ARC
  5
29B
  8
0
  6
CONTINUOUS
 62
     7
 10
1.4906010239
 20
7.4582178737
 30
0.0
 40
0.0312499999999911
 50
131.9723757655
 51
224.9999999999
  0
ARC
  5
29C
  8
0
  6
CONTINUOUS
 62
     7
 10
1.4906010239
 20
7.1087112601
 30
0.0
 40
0.0312499999999737
 50
134.9999999999
 51
228.0276242347
  0
ARC
  5
29D
  8
0
  6
CONTINUOUS
 62
     7
 10
-0.0220970869
 20
7.1087112601
 30
0.0
 40
0.0312500000000031
 50
313.2864196021
 51
45.0000000001
  0
ARC
  5
29E
  8
0
  6
CONTINUOUS
 62
     7
 10
-0.0220970869
 20
7.4561968063
 30
0.0
 40
0.0312499999999539
 50
314.9999999999
 51
46.7135803979
  0
ARC
  5
29F
  8
0
  6
CONTINUOUS
 62
     7
 10
1.4906010239
 20
6.6708162989
 30
0.0
 40
0.031249999999968
 50
131.9723757654
 51
225.0
  0
ARC
  5
2A0
  8
0
  6
CONTINUOUS
 62
     7
 10
1.4906010239
 20
6.3213096853
 30
0.0
 40
0.0312499999999864
 50
134.9999999999
 51
228.0276242347
  0
ARC
  5
2A1
  8
0
  6
CONTINUOUS
 62
     7
 10
1.4906010239
 20
5.8834147241
 30
0.0
 40
0.0312499999999799
 50
131.9723757654
 51
225.0
  0
ARC
  5
2A2
  8
0
  6
CONTINUOUS
 62
     7
 10
1.4906010239
 20
5.5339081105
 30
0.0
 40
0.0312499999999924
 50
134.9999999999
 51
228.0276242347
  0
ARC
  5
2A3
  8
0
  6
CONTINUOUS
 62
     7
 10
1.4906010239
 20
5.0960131493
 30
0.0
 40
0.0312499999999907
 50
131.9723757654
 51
225.0
  0
ARC
  5
2A4
  8
0
  6
CONTINUOUS
 62
     7
 10
1.4906010239
 20
4.7465065357
 30
0.0
 40
0.031249999999992
 50
134.9999999999
 51
228.0276242347
  0
ARC
  5
2A5
  8
0
  6
CONTINUOUS
 62
     7
 10
1.4906010239
 20
4.3086115745
 30
0.0
 40
0.0312499999999805
 50
131.9723757654
 51
225.0
  0
ARC
  5
2A6
  8
0
  6
CONTINUOUS
 62
     7
 10
1.4906010239
 20
3.9591049609
 30
0.0
 40
0.0312499999999918
 50
134.9999999999
 51
228.0276242347
  0
ARC
  5
2A7
  8
0
  6
CONTINUOUS
 62
     7
 10
1.4906010239
 20
3.5212099997
 30
0.0
 40
0.0312499999999918
 50
131.9723757654
 51
225.0
  0
ARC
  5
2A8
  8
0
  6
CONTINUOUS
 62
     7
 10
1.4906010239
 20
3.1717033861
 30
0.0
 40
0.0312499999999916
 50
134.9999999999
 51
228.0276242347
  0
ARC
  5
2A9
  8
0
  6
CONTINUOUS
 62
     7
 10
1.4906010239
 20
2.7338084249
 30
0.0
 40
0.0312499999999798
 50
131.9723757654
 51
225.0
  0
ARC
  5
2AA
  8
0
  6
CONTINUOUS
 62
     7
 10
1.4906010239
 20
2.3843018113
 30
0.0
 40
0.0312499999999918
 50
134.9999999999
 51
228.0276242347
  0
ARC
  5
2AB
  8
0
  6
CONTINUOUS
 62
     7
 10
1.4906010239
 20
1.9464068501
 30
0.0
 40
0.0312499999999919
 50
131.9723757654
 51
225.0
  0
ARC
  5
2AC
  8
0
  6
CONTINUOUS
 62
     7
 10
1.4906010239
 20
1.5969002365
 30
0.0
 40
0.0312499999999922
 50
134.9999999999
 51
228.0276242347
  0
ARC
  5
2AD
  8
0
  6
CONTINUOUS
 62
     7
 10
1.4906010239
 20
1.1590052753
 30
0.0
 40
0.0312499999999667
 50
131.9723757654
 51
225.0
  0
ARC
  5
2AE
  8
0
  6
CONTINUOUS
 62
     7
 10
1.4906010239
 20
0.8094986617
 30
0.0
 40
0.0312499999999793
 50
135.0
 51
228.0276242347
  0
ARC
  5
2AF
  8
0
  6
CONTINUOUS
 62
     7
 10
-0.0220970869
 20
0.8094986617
 30
0.0
 40
0.0312499999999917
 50
313.2864196021
 51
45.0000000001
  0
ARC
  5
2B0
  8
0
  6
CONTINUOUS
 62
     7
 10
-0.0220970869
 20
1.5969002365
 30
0.0
 40
0.0312499999999795
 50
313.2864196021
 51
45.0
  0
ARC
  5
2B1
  8
0
  6
CONTINUOUS
 62
     7
 10
-0.0220970869
 20
2.3843018113
 30
0.0
 40
0.0312499999999923
 50
313.2864196021
 51
45.0000000001
  0
ARC
  5
2B2
  8
0
  6
CONTINUOUS
 62
     7
 10
-0.0220970869
 20
3.1717033861
 30
0.0
 40
0.0312499999999918
 50
313.2864196021
 51
45.0000000001
  0
ARC
  5
2B3
  8
0
  6
CONTINUOUS
 62
     7
 10
-0.0220970869
 20
3.9591049609
 30
0.0
 40
0.0312499999999923
 50
313.2864196021
 51
45.0000000001
  0
ARC
  5
2B4
  8
0
  6
CONTINUOUS
 62
     7
 10
-0.0220970869
 20
4.7465065357
 30
0.0
 40
0.0312499999999922
 50
313.2864196021
 51
45.0000000001
  0
ARC
  5
2B5
  8
0
  6
CONTINUOUS
 62
     7
 10
-0.0220970869
 20
5.5339081105
 30
0.0
 40
0.0312499999999919
 50
313.2864196021
 51
45.0000000001
  0
ARC
  5
2B6
  8
0
  6
CONTINUOUS
 62
     7
 10
-0.0220970869
 20
6.3213096853
 30
0.0
 40
0.0312499999999924
 50
313.2864196021
 51
45.0000000001
  0
ENDSEC
  0
EOF
