  0
SECTION
  2
HEADER
  9
$ACADVER
  1
AC1009
  9
$DWGCODEPAGE
  3
ansi_1252
  9
$INSBASE
 10
0.0
 20
0.0
 30
0.0
  9
$EXTMIN
 10
0.0
 20
-0.25
 30
0.0
  9
$EXTMAX
 10
1.968503937
 20
8.124015748
 30
0.0
  9
$LIMMIN
 10
0.0
 20
0.0
  9
$LIMMAX
 10
12.0
 20
9.0
  9
$ORTHOMODE
 70
     0
  9
$REGENMODE
 70
     1
  9
$FILLMODE
 70
     1
  9
$QTEXTMODE
 70
     0
  9
$MIRRTEXT
 70
     1
  9
$DRAGMODE
 70
     2
  9
$LTSCALE
 40
1.0
  9
$OSMODE
 70
    37
  9
$ATTMODE
 70
     1
  9
$TEXTSIZE
 40
0.1377952756
  9
$TRACEWID
 40
0.05
  9
$TEXTSTYLE
  7
STANDARD
  9
$CLAYER
  8
0
  9
$CELTYPE
  6
BYLAYER
  9
$CECOLOR
 62
   256
  9
$DIMSCALE
 40
1.0
  9
$DIMASZ
 40
0.13
  9
$DIMEXO
 40
0.0393700787
  9
$DIMDLI
 40
0.38
  9
$DIMRND
 40
0.0
  9
$DIMDLE
 40
0.0
  9
$DIMEXE
 40
0.0393700787
  9
$DIMTP
 40
0.0
  9
$DIMTM
 40
0.0
  9
$DIMTXT
 40
0.1377952756
  9
$DIMCEN
 40
0.09
  9
$DIMTSZ
 40
0.0
  9
$DIMTOL
 70
     0
  9
$DIMLIM
 70
     0
  9
$DIMTIH
 70
     1
  9
$DIMTOH
 70
     1
  9
$DIMSE1
 70
     0
  9
$DIMSE2
 70
     0
  9
$DIMTAD
 70
     1
  9
$DIMZIN
 70
     1
  9
$DIMBLK
  1

  9
$DIMASO
 70
     1
  9
$DIMSHO
 70
     1
  9
$DIMPOST
  1

  9
$DIMAPOST
  1

  9
$DIMALT
 70
     0
  9
$DIMALTD
 70
     2
  9
$DIMALTF
 40
25.4
  9
$DIMLFAC
 40
1.0
  9
$DIMTOFL
 70
     0
  9
$DIMTVP
 40
0.0
  9
$DIMTIX
 70
     0
  9
$DIMSOXD
 70
     0
  9
$DIMSAH
 70
     0
  9
$DIMBLK1
  1

  9
$DIMBLK2
  1

  9
$DIMSTYLE
  2
STANDARD
  9
$DIMCLRD
 70
     0
  9
$DIMCLRE
 70
     0
  9
$DIMCLRT
 70
     0
  9
$DIMTFAC
 40
1.0
  9
$DIMGAP
 40
0.06
  9
$LUNITS
 70
     2
  9
$LUPREC
 70
     8
  9
$SKETCHINC
 40
0.1
  9
$FILLETRAD
 40
0.5
  9
$AUNITS
 70
     0
  9
$AUPREC
 70
     2
  9
$MENU
  1
.
  9
$ELEVATION
 40
0.0
  9
$PELEVATION
 40
0.0
  9
$THICKNESS
 40
0.0
  9
$LIMCHECK
 70
     0
  9
$CHAMFERA
 40
0.0
  9
$CHAMFERB
 40
0.0
  9
$SKPOLY
 70
     0
  9
$TDCREATE
 40
2458269.565012882
  9
$TDUPDATE
 40
2458269.565054479
  9
$TDINDWG
 40
0.0000000116
  9
$TDUSRTIMER
 40
0.0000000116
  9
$USRTIMER
 70
     1
  9
$ANGBASE
 50
0.0
  9
$ANGDIR
 70
     0
  9
$PDMODE
 70
     0
  9
$PDSIZE
 40
-1.0
  9
$PLINEWID
 40
0.0
  9
$COORDS
 70
     1
  9
$SPLFRAME
 70
     0
  9
$SPLINETYPE
 70
     6
  9
$SPLINESEGS
 70
     8
  9
$ATTDIA
 70
     0
  9
$ATTREQ
 70
     1
  9
$HANDLING
 70
     1
  9
$HANDSEED
  5
2E7
  9
$SURFTAB1
 70
     6
  9
$SURFTAB2
 70
     6
  9
$SURFTYPE
 70
     6
  9
$SURFU
 70
     6
  9
$SURFV
 70
     6
  9
$UCSNAME
  2

  9
$UCSORG
 10
0.0
 20
0.0
 30
0.0
  9
$UCSXDIR
 10
1.0
 20
0.0
 30
0.0
  9
$UCSYDIR
 10
0.0
 20
1.0
 30
0.0
  9
$PUCSNAME
  2

  9
$PUCSORG
 10
0.0
 20
0.0
 30
0.0
  9
$PUCSXDIR
 10
1.0
 20
0.0
 30
0.0
  9
$PUCSYDIR
 10
0.0
 20
1.0
 30
0.0
  9
$USERI1
 70
     0
  9
$USERI2
 70
     0
  9
$USERI3
 70
     0
  9
$USERI4
 70
     0
  9
$USERI5
 70
     0
  9
$USERR1
 40
0.0
  9
$USERR2
 40
0.0
  9
$USERR3
 40
0.0
  9
$USERR4
 40
0.0
  9
$USERR5
 40
0.0
  9
$WORLDVIEW
 70
     1
  9
$SHADEDGE
 70
     3
  9
$SHADEDIF
 70
    70
  9
$TILEMODE
 70
     1
  9
$MAXACTVP
 70
    64
  9
$PLIMCHECK
 70
     0
  9
$PEXTMIN
 10
1.0000000000E+20
 20
1.0000000000E+20
 30
1.0000000000E+20
  9
$PEXTMAX
 10
-1.0000000000E+20
 20
-1.0000000000E+20
 30
-1.0000000000E+20
  9
$PLIMMIN
 10
0.0
 20
0.0
  9
$PLIMMAX
 10
12.0
 20
9.0
  9
$UNITMODE
 70
     0
  9
$VISRETAIN
 70
     1
  9
$PLINEGEN
 70
     0
  9
$PSLTSCALE
 70
     1
  0
ENDSEC
  0
SECTION
  2
TABLES
  0
TABLE
  2
VPORT
 70
     1
  0
VPORT
  2
*ACTIVE
 70
     0
 10
0.0
 20
0.0
 11
1.0
 21
1.0
 12
0.9842519685
 22
3.937007874
 13
0.0
 23
0.0
 14
0.5
 24
0.5
 15
0.5
 25
0.5
 16
0.0
 26
0.0
 36
1.0
 17
0.0
 27
0.0
 37
0.0
 40
8.541496063
 41
0.2350728726
 42
50.0
 43
0.0
 44
0.0
 50
0.0
 51
0.0
 71
     0
 72
   100
 73
     1
 74
     3
 75
     0
 76
     0
 77
     0
 78
     0
  0
ENDTAB
  0
TABLE
  2
LTYPE
 70
     6
  0
LTYPE
  2
CONTINUOUS
 70
     0
  3
Solid line
 72
    65
 73
     0
 40
0.0
  0
LTYPE
  2
HIDDEN
 70
     0
  3
Hidden __ __ __ __ __ __ __ __ __ __ __ __ __ __
 72
    65
 73
     2
 40
0.075
 49
0.05
 49
-0.025
  0
LTYPE
  2
PHANTOM
 70
     0
  3
Phantom ______  __  __  ______  __  __  ______
 72
    65
 73
     6
 40
0.5
 49
0.25
 49
-0.05
 49
0.05
 49
-0.05
 49
0.05
 49
-0.05
  0
LTYPE
  2
CENTER
 70
     0
  3
Center ____ _ ____ _ ____ _ ____ _ ____ _ ____
 72
    65
 73
     4
 40
0.4
 49
0.25
 49
-0.05
 49
0.05
 49
-0.05
  0
LTYPE
  2
CENTERX2
 70
     0
  3
Center (2x) ________  __  ________  __  _____
 72
    65
 73
     4
 40
0.8
 49
0.5
 49
-0.1
 49
0.1
 49
-0.1
  0
LTYPE
  2
DOT2
 70
     0
  3
Dot (.5x) ........................................
 72
    65
 73
     2
 40
0.025
 49
0.0
 49
-0.025
  0
ENDTAB
  0
TABLE
  2
LAYER
 70
     1
  0
LAYER
  2
0
 70
     0
 62
     7
  6
CONTINUOUS
  0
ENDTAB
  0
TABLE
  2
STYLE
 70
     1
  0
STYLE
  2
STANDARD
 70
     0
 40
0.0
 41
1.0
 50
0.0
 71
     0
 42
0.1377952756
  3
txt
  4

  0
ENDTAB
  0
TABLE
  2
VIEW
 70
     0
  0
ENDTAB
  0
TABLE
  2
UCS
 70
     0
  0
ENDTAB
  0
TABLE
  2
APPID
 70
     1
  0
APPID
  2
ACAD
 70
     0
  0
ENDTAB
  0
TABLE
  2
DIMSTYLE
 70
     1
  0
DIMSTYLE
  2
STANDARD
 70
     0
  3

  4

  5

  6

  7

 40
1.0
 41
0.18
 42
0.0625
 43
0.38
 44
0.18
 45
0.0
 46
0.0
 47
0.0
 48
0.0
140
0.18
141
0.09
142
0.0
143
25.4
144
1.0
145
0.0
146
1.0
147
0.09
 71
     0
 72
     0
 73
     1
 74
     1
 75
     0
 76
     0
 77
     0
 78
     0
170
     0
171
     2
172
     0
173
     0
174
     0
175
     0
176
     0
177
     0
178
     0
  0
ENDTAB
  0
ENDSEC
  0
SECTION
  2
BLOCKS
  0
BLOCK
  8
0
  2
$MODEL_SPACE
 70
     0
 10
0.0
 20
0.0
 30
0.0
  3
$MODEL_SPACE
  1

  0
ENDBLK
  5
21
  8
0
  0
BLOCK
 67
     1
  8
0
  2
$PAPER_SPACE
 70
     0
 10
0.0
 20
0.0
 30
0.0
  3
$PAPER_SPACE
  1

  0
ENDBLK
  5
1D
 67
     1
  8
0
  0
ENDSEC
  0
SECTION
  2
ENTITIES
  0
LINE
  5
1AD
  8
0
  6
CONTINUOUS
 62
     7
 10
1.7194704002
 20
4.7234835203
 30
0.0
 11
1.7194704002
 21
4.7214094488
 31
0.0
  0
LINE
  5
1AE
  8
0
  6
CONTINUOUS
 62
     7
 10
1.7194704002
 20
4.7214094488
 30
0.0
 11
1.7219811762
 21
4.7214094488
 31
0.0
  0
LINE
  5
1AF
  8
0
  6
CONTINUOUS
 62
     7
 10
1.7592208716
 20
4.7214094488
 30
0.0
 11
1.9675371215
 21
4.7214094488
 31
0.0
  0
LINE
  5
1B0
  8
0
  6
CONTINUOUS
 62
     7
 10
1.9675371215
 20
4.7214094488
 30
0.0
 11
1.9675371215
 21
4.7244094488
 31
0.0
  0
LINE
  5
1B1
  8
0
  6
CONTINUOUS
 62
     7
 10
1.9675371215
 20
4.3307086614
 30
0.0
 11
1.9675371215
 21
4.3337086614
 31
0.0
  0
LINE
  5
1B2
  8
0
  6
CONTINUOUS
 62
     7
 10
1.9675371215
 20
4.3337086614
 30
0.0
 11
1.7592208716
 21
4.3337086614
 31
0.0
  0
LINE
  5
1B3
  8
0
  6
CONTINUOUS
 62
     7
 10
1.7219811762
 20
4.3337086614
 30
0.0
 11
1.7194704002
 21
4.3337086614
 31
0.0
  0
LINE
  5
1B4
  8
0
  6
CONTINUOUS
 62
     7
 10
1.7194704002
 20
4.3337086614
 30
0.0
 11
1.7194704002
 21
4.33163459
 31
0.0
  0
LINE
  5
1B5
  8
0
  6
CONTINUOUS
 62
     7
 10
1.7194704002
 20
3.9360819455
 30
0.0
 11
1.7194704002
 21
3.934007874
 31
0.0
  0
LINE
  5
1B6
  8
0
  6
CONTINUOUS
 62
     7
 10
1.7194704002
 20
3.934007874
 30
0.0
 11
1.7219811762
 21
3.934007874
 31
0.0
  0
LINE
  5
1B7
  8
0
  6
CONTINUOUS
 62
     7
 10
1.7592208716
 20
3.934007874
 30
0.0
 11
1.9675371215
 21
3.934007874
 31
0.0
  0
LINE
  5
1B8
  8
0
  6
CONTINUOUS
 62
     7
 10
1.9675371215
 20
3.934007874
 30
0.0
 11
1.9675371215
 21
3.937007874
 31
0.0
  0
LINE
  5
1B9
  8
0
  6
CONTINUOUS
 62
     7
 10
1.9675371215
 20
3.5433070866
 30
0.0
 11
1.9675371215
 21
3.5463070866
 31
0.0
  0
LINE
  5
1BA
  8
0
  6
CONTINUOUS
 62
     7
 10
1.9675371215
 20
3.5463070866
 30
0.0
 11
1.7592208716
 21
3.5463070866
 31
0.0
  0
LINE
  5
1BB
  8
0
  6
CONTINUOUS
 62
     7
 10
1.7219811762
 20
3.5463070866
 30
0.0
 11
1.7194704002
 21
3.5463070866
 31
0.0
  0
LINE
  5
1BC
  8
0
  6
CONTINUOUS
 62
     7
 10
1.7194704002
 20
3.5463070866
 30
0.0
 11
1.7194704002
 21
3.5442330151
 31
0.0
  0
LINE
  5
1BD
  8
0
  6
CONTINUOUS
 62
     7
 10
1.7194704002
 20
3.1486803707
 30
0.0
 11
1.7194704002
 21
3.1466062992
 31
0.0
  0
LINE
  5
1BE
  8
0
  6
CONTINUOUS
 62
     7
 10
1.7194704002
 20
3.1466062992
 30
0.0
 11
1.7219811762
 21
3.1466062992
 31
0.0
  0
LINE
  5
1BF
  8
0
  6
CONTINUOUS
 62
     7
 10
1.7592208716
 20
3.1466062992
 30
0.0
 11
1.9675371215
 21
3.1466062992
 31
0.0
  0
LINE
  5
1C0
  8
0
  6
CONTINUOUS
 62
     7
 10
1.9675371215
 20
3.1466062992
 30
0.0
 11
1.9675371215
 21
3.1496062992
 31
0.0
  0
LINE
  5
1C1
  8
0
  6
CONTINUOUS
 62
     7
 10
1.9675371215
 20
2.7559055118
 30
0.0
 11
1.9675371215
 21
2.7589055118
 31
0.0
  0
LINE
  5
1C2
  8
0
  6
CONTINUOUS
 62
     7
 10
1.9675371215
 20
2.7589055118
 30
0.0
 11
1.7592208716
 21
2.7589055118
 31
0.0
  0
LINE
  5
1C3
  8
0
  6
CONTINUOUS
 62
     7
 10
1.7219811762
 20
2.7589055118
 30
0.0
 11
1.7194704002
 21
2.7589055118
 31
0.0
  0
LINE
  5
1C4
  8
0
  6
CONTINUOUS
 62
     7
 10
1.7194704002
 20
2.7589055118
 30
0.0
 11
1.7194704002
 21
2.7568314403
 31
0.0
  0
LINE
  5
1C5
  8
0
  6
CONTINUOUS
 62
     7
 10
1.7194704002
 20
2.3612787959
 30
0.0
 11
1.7194704002
 21
2.3592047244
 31
0.0
  0
LINE
  5
1C6
  8
0
  6
CONTINUOUS
 62
     7
 10
1.7194704002
 20
2.3592047244
 30
0.0
 11
1.7219811762
 21
2.3592047244
 31
0.0
  0
LINE
  5
1C7
  8
0
  6
CONTINUOUS
 62
     7
 10
1.7592208716
 20
2.3592047244
 30
0.0
 11
1.9675371215
 21
2.3592047244
 31
0.0
  0
LINE
  5
1C8
  8
0
  6
CONTINUOUS
 62
     7
 10
1.9675371215
 20
2.3592047244
 30
0.0
 11
1.9675371215
 21
2.3622047244
 31
0.0
  0
LINE
  5
1C9
  8
0
  6
CONTINUOUS
 62
     7
 10
1.9675371215
 20
1.968503937
 30
0.0
 11
1.9675371215
 21
1.971503937
 31
0.0
  0
LINE
  5
1CA
  8
0
  6
CONTINUOUS
 62
     7
 10
1.9675371215
 20
1.971503937
 30
0.0
 11
1.7592208716
 21
1.971503937
 31
0.0
  0
LINE
  5
1CB
  8
0
  6
CONTINUOUS
 62
     7
 10
1.7219811762
 20
1.971503937
 30
0.0
 11
1.7194704002
 21
1.971503937
 31
0.0
  0
LINE
  5
1CC
  8
0
  6
CONTINUOUS
 62
     7
 10
1.7194704002
 20
1.971503937
 30
0.0
 11
1.7194704002
 21
1.9694298655
 31
0.0
  0
LINE
  5
1CD
  8
0
  6
CONTINUOUS
 62
     7
 10
1.7194704002
 20
1.5738772211
 30
0.0
 11
1.7194704002
 21
1.5718031496
 31
0.0
  0
LINE
  5
1CE
  8
0
  6
CONTINUOUS
 62
     7
 10
1.7194704002
 20
1.5718031496
 30
0.0
 11
1.7219811762
 21
1.5718031496
 31
0.0
  0
LINE
  5
1CF
  8
0
  6
CONTINUOUS
 62
     7
 10
1.7592208716
 20
1.5718031496
 30
0.0
 11
1.9675371215
 21
1.5718031496
 31
0.0
  0
LINE
  5
1D0
  8
0
  6
CONTINUOUS
 62
     7
 10
1.9675371215
 20
1.5718031496
 30
0.0
 11
1.9675371215
 21
1.5748031496
 31
0.0
  0
LINE
  5
1D1
  8
0
  6
CONTINUOUS
 62
     7
 10
1.9675371215
 20
1.1811023622
 30
0.0
 11
1.9675371215
 21
1.1841023622
 31
0.0
  0
LINE
  5
1D2
  8
0
  6
CONTINUOUS
 62
     7
 10
1.9675371215
 20
1.1841023622
 30
0.0
 11
1.7592208716
 21
1.1841023622
 31
0.0
  0
LINE
  5
1D3
  8
0
  6
CONTINUOUS
 62
     7
 10
1.7219811762
 20
1.1841023622
 30
0.0
 11
1.7194704002
 21
1.1841023622
 31
0.0
  0
LINE
  5
1D4
  8
0
  6
CONTINUOUS
 62
     7
 10
1.7194704002
 20
1.1841023622
 30
0.0
 11
1.7194704002
 21
1.1820282907
 31
0.0
  0
LINE
  5
1D5
  8
0
  6
CONTINUOUS
 62
     7
 10
1.7194704002
 20
0.7864756463
 30
0.0
 11
1.7194704002
 21
0.7844015748
 31
0.0
  0
LINE
  5
1D6
  8
0
  6
CONTINUOUS
 62
     7
 10
1.7194704002
 20
0.7844015748
 30
0.0
 11
1.7219811762
 21
0.7844015748
 31
0.0
  0
LINE
  5
1D7
  8
0
  6
CONTINUOUS
 62
     7
 10
1.7592208716
 20
0.7844015748
 30
0.0
 11
1.9675371215
 21
0.7844015748
 31
0.0
  0
LINE
  5
1D8
  8
0
  6
CONTINUOUS
 62
     7
 10
1.9675371215
 20
0.7844015748
 30
0.0
 11
1.9675371215
 21
0.7874015748
 31
0.0
  0
LINE
  5
1D9
  8
0
  6
CONTINUOUS
 62
     7
 10
1.1186023622
 20
-0.25
 30
0.0
 11
1.1811023622
 21
-0.1875
 31
0.0
  0
LINE
  5
1DA
  8
0
  6
CONTINUOUS
 62
     7
 10
0.7874015748
 20
-0.1875
 30
0.0
 11
0.8499015748
 21
-0.25
 31
0.0
  0
LINE
  5
1DB
  8
0
  6
CONTINUOUS
 62
     7
 10
0.0012159085
 20
0.3937007874
 30
0.0
 11
0.0012159085
 21
0.3907007874
 31
0.0
  0
LINE
  5
1DC
  8
0
  6
CONTINUOUS
 62
     7
 10
0.0012159085
 20
0.3907007874
 30
0.0
 11
0.2092830654
 21
0.3907007874
 31
0.0
  0
LINE
  5
1DD
  8
0
  6
CONTINUOUS
 62
     7
 10
0.2465227608
 20
0.3907007874
 30
0.0
 11
0.2487845307
 21
0.3907007874
 31
0.0
  0
LINE
  5
1DE
  8
0
  6
CONTINUOUS
 62
     7
 10
0.2487845307
 20
0.3907007874
 30
0.0
 11
0.2487845307
 21
0.3925487766
 31
0.0
  0
LINE
  5
1DF
  8
0
  6
CONTINUOUS
 62
     7
 10
0.2487845307
 20
0.7885535856
 30
0.0
 11
0.2487845307
 21
0.7904015748
 31
0.0
  0
LINE
  5
1E0
  8
0
  6
CONTINUOUS
 62
     7
 10
0.2487845307
 20
0.7904015748
 30
0.0
 11
0.2465227608
 21
0.7904015748
 31
0.0
  0
LINE
  5
1E1
  8
0
  6
CONTINUOUS
 62
     7
 10
0.2092830654
 20
0.7904015748
 30
0.0
 11
0.0012159085
 21
0.7904015748
 31
0.0
  0
LINE
  5
1E2
  8
0
  6
CONTINUOUS
 62
     7
 10
0.0012159085
 20
0.7904015748
 30
0.0
 11
0.0012159085
 21
0.7874015748
 31
0.0
  0
LINE
  5
1E3
  8
0
  6
CONTINUOUS
 62
     7
 10
0.0012159085
 20
1.1811023622
 30
0.0
 11
0.0012159085
 21
1.1781023622
 31
0.0
  0
LINE
  5
1E4
  8
0
  6
CONTINUOUS
 62
     7
 10
0.0012159085
 20
1.1781023622
 30
0.0
 11
0.2092830654
 21
1.1781023622
 31
0.0
  0
LINE
  5
1E5
  8
0
  6
CONTINUOUS
 62
     7
 10
0.2465227608
 20
1.1781023622
 30
0.0
 11
0.2487845307
 21
1.1781023622
 31
0.0
  0
LINE
  5
1E6
  8
0
  6
CONTINUOUS
 62
     7
 10
0.2487845307
 20
1.1781023622
 30
0.0
 11
0.2487845307
 21
1.1799503514
 31
0.0
  0
LINE
  5
1E7
  8
0
  6
CONTINUOUS
 62
     7
 10
0.2487845307
 20
1.5759551604
 30
0.0
 11
0.2487845307
 21
1.5778031496
 31
0.0
  0
LINE
  5
1E8
  8
0
  6
CONTINUOUS
 62
     7
 10
0.2487845307
 20
1.5778031496
 30
0.0
 11
0.2465227608
 21
1.5778031496
 31
0.0
  0
LINE
  5
1E9
  8
0
  6
CONTINUOUS
 62
     7
 10
0.2092830654
 20
1.5778031496
 30
0.0
 11
0.0012159085
 21
1.5778031496
 31
0.0
  0
LINE
  5
1EA
  8
0
  6
CONTINUOUS
 62
     7
 10
0.0012159085
 20
1.5778031496
 30
0.0
 11
0.0012159085
 21
1.5748031496
 31
0.0
  0
LINE
  5
1EB
  8
0
  6
CONTINUOUS
 62
     7
 10
0.0012159085
 20
1.968503937
 30
0.0
 11
0.0012159085
 21
1.965503937
 31
0.0
  0
LINE
  5
1EC
  8
0
  6
CONTINUOUS
 62
     7
 10
0.0012159085
 20
1.965503937
 30
0.0
 11
0.2092830654
 21
1.965503937
 31
0.0
  0
LINE
  5
1ED
  8
0
  6
CONTINUOUS
 62
     7
 10
0.2465227608
 20
1.965503937
 30
0.0
 11
0.2487845307
 21
1.965503937
 31
0.0
  0
LINE
  5
1EE
  8
0
  6
CONTINUOUS
 62
     7
 10
0.2487845307
 20
1.965503937
 30
0.0
 11
0.2487845307
 21
1.9673519262
 31
0.0
  0
LINE
  5
1EF
  8
0
  6
CONTINUOUS
 62
     7
 10
0.2487845307
 20
2.3633567352
 30
0.0
 11
0.2487845307
 21
2.3652047244
 31
0.0
  0
LINE
  5
1F0
  8
0
  6
CONTINUOUS
 62
     7
 10
0.2487845307
 20
2.3652047244
 30
0.0
 11
0.2465227608
 21
2.3652047244
 31
0.0
  0
LINE
  5
1F1
  8
0
  6
CONTINUOUS
 62
     7
 10
0.2092830654
 20
2.3652047244
 30
0.0
 11
0.0012159085
 21
2.3652047244
 31
0.0
  0
LINE
  5
1F2
  8
0
  6
CONTINUOUS
 62
     7
 10
0.0012159085
 20
2.3652047244
 30
0.0
 11
0.0012159085
 21
2.3622047244
 31
0.0
  0
LINE
  5
1F3
  8
0
  6
CONTINUOUS
 62
     7
 10
0.0012159085
 20
2.7559055118
 30
0.0
 11
0.0012159085
 21
2.7529055118
 31
0.0
  0
LINE
  5
1F4
  8
0
  6
CONTINUOUS
 62
     7
 10
0.0012159085
 20
2.7529055118
 30
0.0
 11
0.2092830654
 21
2.7529055118
 31
0.0
  0
LINE
  5
1F5
  8
0
  6
CONTINUOUS
 62
     7
 10
0.2465227608
 20
2.7529055118
 30
0.0
 11
0.2487845307
 21
2.7529055118
 31
0.0
  0
LINE
  5
1F6
  8
0
  6
CONTINUOUS
 62
     7
 10
0.2487845307
 20
2.7529055118
 30
0.0
 11
0.2487845307
 21
2.754753501
 31
0.0
  0
LINE
  5
1F7
  8
0
  6
CONTINUOUS
 62
     7
 10
0.2487845307
 20
3.15075831
 30
0.0
 11
0.2487845307
 21
3.1526062992
 31
0.0
  0
LINE
  5
1F8
  8
0
  6
CONTINUOUS
 62
     7
 10
0.2487845307
 20
3.1526062992
 30
0.0
 11
0.2465227608
 21
3.1526062992
 31
0.0
  0
LINE
  5
1F9
  8
0
  6
CONTINUOUS
 62
     7
 10
0.2092830654
 20
3.1526062992
 30
0.0
 11
0.0012159085
 21
3.1526062992
 31
0.0
  0
LINE
  5
1FA
  8
0
  6
CONTINUOUS
 62
     7
 10
0.0012159085
 20
3.1526062992
 30
0.0
 11
0.0012159085
 21
3.1496062992
 31
0.0
  0
LINE
  5
1FB
  8
0
  6
CONTINUOUS
 62
     7
 10
0.0012159085
 20
3.5433070866
 30
0.0
 11
0.0012159085
 21
3.5403070866
 31
0.0
  0
LINE
  5
1FC
  8
0
  6
CONTINUOUS
 62
     7
 10
0.0012159085
 20
3.5403070866
 30
0.0
 11
0.2092830654
 21
3.5403070866
 31
0.0
  0
LINE
  5
1FD
  8
0
  6
CONTINUOUS
 62
     7
 10
0.2465227608
 20
3.5403070866
 30
0.0
 11
0.2487845307
 21
3.5403070866
 31
0.0
  0
LINE
  5
1FE
  8
0
  6
CONTINUOUS
 62
     7
 10
0.2487845307
 20
3.5403070866
 30
0.0
 11
0.2487845307
 21
3.5421550758
 31
0.0
  0
LINE
  5
1FF
  8
0
  6
CONTINUOUS
 62
     7
 10
0.2487845307
 20
3.9381598848
 30
0.0
 11
0.2487845307
 21
3.940007874
 31
0.0
  0
LINE
  5
200
  8
0
  6
CONTINUOUS
 62
     7
 10
0.2487845307
 20
3.940007874
 30
0.0
 11
0.2465227608
 21
3.940007874
 31
0.0
  0
LINE
  5
201
  8
0
  6
CONTINUOUS
 62
     7
 10
0.2092830654
 20
3.940007874
 30
0.0
 11
0.0012159085
 21
3.940007874
 31
0.0
  0
LINE
  5
202
  8
0
  6
CONTINUOUS
 62
     7
 10
0.0012159085
 20
3.940007874
 30
0.0
 11
0.0012159085
 21
3.937007874
 31
0.0
  0
LINE
  5
203
  8
0
  6
CONTINUOUS
 62
     7
 10
0.0012159085
 20
4.3307086614
 30
0.0
 11
0.0012159085
 21
4.3277086614
 31
0.0
  0
LINE
  5
204
  8
0
  6
CONTINUOUS
 62
     7
 10
0.0012159085
 20
4.3277086614
 30
0.0
 11
0.2092830654
 21
4.3277086614
 31
0.0
  0
LINE
  5
205
  8
0
  6
CONTINUOUS
 62
     7
 10
0.2465227608
 20
4.3277086614
 30
0.0
 11
0.2487845307
 21
4.3277086614
 31
0.0
  0
LINE
  5
206
  8
0
  6
CONTINUOUS
 62
     7
 10
0.2487845307
 20
4.3277086614
 30
0.0
 11
0.2487845307
 21
4.3295566506
 31
0.0
  0
LINE
  5
207
  8
0
  6
CONTINUOUS
 62
     7
 10
0.2487845307
 20
4.7255614596
 30
0.0
 11
0.2487845307
 21
4.7274094488
 31
0.0
  0
LINE
  5
208
  8
0
  6
CONTINUOUS
 62
     7
 10
0.2487845307
 20
4.7274094488
 30
0.0
 11
0.2465227608
 21
4.7274094488
 31
0.0
  0
LINE
  5
209
  8
0
  6
CONTINUOUS
 62
     7
 10
0.2092830654
 20
4.7274094488
 30
0.0
 11
0.0012159085
 21
4.7274094488
 31
0.0
  0
LINE
  5
20A
  8
0
  6
CONTINUOUS
 62
     7
 10
0.0012159085
 20
4.7274094488
 30
0.0
 11
0.0012159085
 21
4.7244094488
 31
0.0
  0
LINE
  5
20B
  8
0
  6
CONTINUOUS
 62
     7
 10
0.0012159085
 20
5.1181102362
 30
0.0
 11
0.0012159085
 21
5.1151102362
 31
0.0
  0
LINE
  5
20C
  8
0
  6
CONTINUOUS
 62
     7
 10
0.0012159085
 20
5.1151102362
 30
0.0
 11
0.2092830654
 21
5.1151102362
 31
0.0
  0
LINE
  5
20D
  8
0
  6
CONTINUOUS
 62
     7
 10
0.2465227608
 20
5.1151102362
 30
0.0
 11
0.2487845307
 21
5.1151102362
 31
0.0
  0
LINE
  5
20E
  8
0
  6
CONTINUOUS
 62
     7
 10
0.2487845307
 20
5.1151102362
 30
0.0
 11
0.2487845307
 21
5.1169582254
 31
0.0
  0
LINE
  5
20F
  8
0
  6
CONTINUOUS
 62
     7
 10
0.2487845307
 20
5.5129630344
 30
0.0
 11
0.2487845307
 21
5.5148110236
 31
0.0
  0
LINE
  5
210
  8
0
  6
CONTINUOUS
 62
     7
 10
0.2487845307
 20
5.5148110236
 30
0.0
 11
0.2465227608
 21
5.5148110236
 31
0.0
  0
LINE
  5
211
  8
0
  6
CONTINUOUS
 62
     7
 10
0.2092830654
 20
5.5148110236
 30
0.0
 11
0.0012159085
 21
5.5148110236
 31
0.0
  0
LINE
  5
212
  8
0
  6
CONTINUOUS
 62
     7
 10
0.0012159085
 20
5.5148110236
 30
0.0
 11
0.0012159085
 21
5.5118110236
 31
0.0
  0
LINE
  5
213
  8
0
  6
CONTINUOUS
 62
     7
 10
0.0012159085
 20
5.905511811
 30
0.0
 11
0.0012159085
 21
5.902511811
 31
0.0
  0
LINE
  5
214
  8
0
  6
CONTINUOUS
 62
     7
 10
0.0012159085
 20
5.902511811
 30
0.0
 11
0.2092830654
 21
5.902511811
 31
0.0
  0
LINE
  5
215
  8
0
  6
CONTINUOUS
 62
     7
 10
0.2465227608
 20
5.902511811
 30
0.0
 11
0.2487845307
 21
5.902511811
 31
0.0
  0
LINE
  5
216
  8
0
  6
CONTINUOUS
 62
     7
 10
0.2487845307
 20
5.902511811
 30
0.0
 11
0.2487845307
 21
5.9043598002
 31
0.0
  0
LINE
  5
217
  8
0
  6
CONTINUOUS
 62
     7
 10
0.2487845307
 20
6.3003646092
 30
0.0
 11
0.2487845307
 21
6.3022125984
 31
0.0
  0
LINE
  5
218
  8
0
  6
CONTINUOUS
 62
     7
 10
0.2487845307
 20
6.3022125984
 30
0.0
 11
0.2465227608
 21
6.3022125984
 31
0.0
  0
LINE
  5
219
  8
0
  6
CONTINUOUS
 62
     7
 10
0.2092830654
 20
6.3022125984
 30
0.0
 11
0.0012159085
 21
6.3022125984
 31
0.0
  0
LINE
  5
21A
  8
0
  6
CONTINUOUS
 62
     7
 10
0.0012159085
 20
6.3022125984
 30
0.0
 11
0.0012159085
 21
6.2992125984
 31
0.0
  0
LINE
  5
21B
  8
0
  6
CONTINUOUS
 62
     7
 10
0.0012159085
 20
6.6929133858
 30
0.0
 11
0.0012159085
 21
6.6899133858
 31
0.0
  0
LINE
  5
21C
  8
0
  6
CONTINUOUS
 62
     7
 10
0.0012159085
 20
6.6899133858
 30
0.0
 11
0.2092830654
 21
6.6899133858
 31
0.0
  0
LINE
  5
21D
  8
0
  6
CONTINUOUS
 62
     7
 10
0.2465227608
 20
6.6899133858
 30
0.0
 11
0.2487845307
 21
6.6899133858
 31
0.0
  0
LINE
  5
21E
  8
0
  6
CONTINUOUS
 62
     7
 10
0.2487845307
 20
6.6899133858
 30
0.0
 11
0.2487845307
 21
6.691761375
 31
0.0
  0
LINE
  5
21F
  8
0
  6
CONTINUOUS
 62
     7
 10
0.2487845307
 20
7.087766184
 30
0.0
 11
0.2487845307
 21
7.0896141732
 31
0.0
  0
LINE
  5
220
  8
0
  6
CONTINUOUS
 62
     7
 10
0.2487845307
 20
7.0896141732
 30
0.0
 11
0.2465227608
 21
7.0896141732
 31
0.0
  0
LINE
  5
221
  8
0
  6
CONTINUOUS
 62
     7
 10
0.2092830654
 20
7.0896141732
 30
0.0
 11
0.0012159085
 21
7.0896141732
 31
0.0
  0
LINE
  5
222
  8
0
  6
CONTINUOUS
 62
     7
 10
0.0012159085
 20
7.0896141732
 30
0.0
 11
0.0012159085
 21
7.0866141732
 31
0.0
  0
LINE
  5
223
  8
0
  6
CONTINUOUS
 62
     7
 10
0.8499015748
 20
8.124015748
 30
0.0
 11
0.7874015748
 21
8.061515748
 31
0.0
  0
LINE
  5
224
  8
0
  6
CONTINUOUS
 62
     7
 10
1.1811023622
 20
8.061515748
 30
0.0
 11
1.1186023622
 21
8.124015748
 31
0.0
  0
LINE
  5
225
  8
0
  6
CONTINUOUS
 62
     7
 10
1.9675371215
 20
7.4803149606
 30
0.0
 11
1.9675371215
 21
7.4833149606
 31
0.0
  0
LINE
  5
226
  8
0
  6
CONTINUOUS
 62
     7
 10
1.9675371215
 20
7.4833149606
 30
0.0
 11
1.7592208716
 21
7.4833149606
 31
0.0
  0
LINE
  5
227
  8
0
  6
CONTINUOUS
 62
     7
 10
1.7219811762
 20
7.4833149606
 30
0.0
 11
1.7194704002
 21
7.4833149606
 31
0.0
  0
LINE
  5
228
  8
0
  6
CONTINUOUS
 62
     7
 10
1.7194704002
 20
7.4833149606
 30
0.0
 11
1.7194704002
 21
7.4812408892
 31
0.0
  0
LINE
  5
229
  8
0
  6
CONTINUOUS
 62
     7
 10
1.7194704002
 20
7.0856882447
 30
0.0
 11
1.7194704002
 21
7.0836141732
 31
0.0
  0
LINE
  5
22A
  8
0
  6
CONTINUOUS
 62
     7
 10
1.7194704002
 20
7.0836141732
 30
0.0
 11
1.7219811762
 21
7.0836141732
 31
0.0
  0
LINE
  5
22B
  8
0
  6
CONTINUOUS
 62
     7
 10
1.7592208716
 20
7.0836141732
 30
0.0
 11
1.9675371215
 21
7.0836141732
 31
0.0
  0
LINE
  5
22C
  8
0
  6
CONTINUOUS
 62
     7
 10
1.9675371215
 20
7.0836141732
 30
0.0
 11
1.9675371215
 21
7.0866141732
 31
0.0
  0
LINE
  5
22D
  8
0
  6
CONTINUOUS
 62
     7
 10
1.9675371215
 20
6.6929133858
 30
0.0
 11
1.9675371215
 21
6.6959133858
 31
0.0
  0
LINE
  5
22E
  8
0
  6
CONTINUOUS
 62
     7
 10
1.9675371215
 20
6.6959133858
 30
0.0
 11
1.7592208716
 21
6.6959133858
 31
0.0
  0
LINE
  5
22F
  8
0
  6
CONTINUOUS
 62
     7
 10
1.7219811762
 20
6.6959133858
 30
0.0
 11
1.7194704002
 21
6.6959133858
 31
0.0
  0
LINE
  5
230
  8
0
  6
CONTINUOUS
 62
     7
 10
1.7194704002
 20
6.6959133858
 30
0.0
 11
1.7194704002
 21
6.6938393144
 31
0.0
  0
LINE
  5
231
  8
0
  6
CONTINUOUS
 62
     7
 10
1.7194704002
 20
6.2982866699
 30
0.0
 11
1.7194704002
 21
6.2962125984
 31
0.0
  0
LINE
  5
232
  8
0
  6
CONTINUOUS
 62
     7
 10
1.7194704002
 20
6.2962125984
 30
0.0
 11
1.7219811762
 21
6.2962125984
 31
0.0
  0
LINE
  5
233
  8
0
  6
CONTINUOUS
 62
     7
 10
1.7592208716
 20
6.2962125984
 30
0.0
 11
1.9675371215
 21
6.2962125984
 31
0.0
  0
LINE
  5
234
  8
0
  6
CONTINUOUS
 62
     7
 10
1.9675371215
 20
6.2962125984
 30
0.0
 11
1.9675371215
 21
6.2992125984
 31
0.0
  0
LINE
  5
235
  8
0
  6
CONTINUOUS
 62
     7
 10
1.9675371215
 20
5.905511811
 30
0.0
 11
1.9675371215
 21
5.908511811
 31
0.0
  0
LINE
  5
236
  8
0
  6
CONTINUOUS
 62
     7
 10
1.9675371215
 20
5.908511811
 30
0.0
 11
1.7592208716
 21
5.908511811
 31
0.0
  0
LINE
  5
237
  8
0
  6
CONTINUOUS
 62
     7
 10
1.7219811762
 20
5.908511811
 30
0.0
 11
1.7194704002
 21
5.908511811
 31
0.0
  0
LINE
  5
238
  8
0
  6
CONTINUOUS
 62
     7
 10
1.7194704002
 20
5.908511811
 30
0.0
 11
1.7194704002
 21
5.9064377396
 31
0.0
  0
LINE
  5
239
  8
0
  6
CONTINUOUS
 62
     7
 10
1.7194704002
 20
5.5108850951
 30
0.0
 11
1.7194704002
 21
5.5088110236
 31
0.0
  0
LINE
  5
23A
  8
0
  6
CONTINUOUS
 62
     7
 10
1.7194704002
 20
5.5088110236
 30
0.0
 11
1.7219811762
 21
5.5088110236
 31
0.0
  0
LINE
  5
23B
  8
0
  6
CONTINUOUS
 62
     7
 10
1.7592208716
 20
5.5088110236
 30
0.0
 11
1.9675371215
 21
5.5088110236
 31
0.0
  0
LINE
  5
23C
  8
0
  6
CONTINUOUS
 62
     7
 10
1.9675371215
 20
5.5088110236
 30
0.0
 11
1.9675371215
 21
5.5118110236
 31
0.0
  0
LINE
  5
23D
  8
0
  6
CONTINUOUS
 62
     7
 10
1.9675371215
 20
5.1181102362
 30
0.0
 11
1.9675371215
 21
5.1211102362
 31
0.0
  0
LINE
  5
23E
  8
0
  6
CONTINUOUS
 62
     7
 10
1.9675371215
 20
5.1211102362
 30
0.0
 11
1.7592208716
 21
5.1211102362
 31
0.0
  0
LINE
  5
23F
  8
0
  6
CONTINUOUS
 62
     7
 10
1.7219811762
 20
5.1211102362
 30
0.0
 11
1.7194704002
 21
5.1211102362
 31
0.0
  0
LINE
  5
240
  8
0
  6
CONTINUOUS
 62
     7
 10
1.7194704002
 20
5.1211102362
 30
0.0
 11
1.7194704002
 21
5.1190361648
 31
0.0
  0
LINE
  5
241
  8
0
  6
CONTINUOUS
 62
     7
 10
1.718503937
 20
3.193800473
 30
0.0
 11
1.718503937
 21
3.4991129128
 31
0.0
  0
LINE
  5
242
  8
0
  6
CONTINUOUS
 62
     7
 10
1.968503937
 20
3.1496062992
 30
0.0
 11
1.9675371215
 21
3.1496062992
 31
0.0
  0
LINE
  5
243
  8
0
  6
CONTINUOUS
 62
     7
 10
1.968503937
 20
2.7559055118
 30
0.0
 11
1.968503937
 21
3.1496062992
 31
0.0
  0
LINE
  5
244
  8
0
  6
CONTINUOUS
 62
     7
 10
1.9675371215
 20
2.7559055118
 30
0.0
 11
1.968503937
 21
2.7559055118
 31
0.0
  0
LINE
  5
245
  8
0
  6
CONTINUOUS
 62
     7
 10
1.718503937
 20
2.4063988982
 30
0.0
 11
1.718503937
 21
2.711711338
 31
0.0
  0
LINE
  5
246
  8
0
  6
CONTINUOUS
 62
     7
 10
1.968503937
 20
2.3622047244
 30
0.0
 11
1.9675371215
 21
2.3622047244
 31
0.0
  0
LINE
  5
247
  8
0
  6
CONTINUOUS
 62
     7
 10
1.968503937
 20
1.968503937
 30
0.0
 11
1.968503937
 21
2.3622047244
 31
0.0
  0
LINE
  5
248
  8
0
  6
CONTINUOUS
 62
     7
 10
1.9675371215
 20
1.968503937
 30
0.0
 11
1.968503937
 21
1.968503937
 31
0.0
  0
LINE
  5
249
  8
0
  6
CONTINUOUS
 62
     7
 10
1.718503937
 20
1.6189973234
 30
0.0
 11
1.718503937
 21
1.9243097632
 31
0.0
  0
LINE
  5
24A
  8
0
  6
CONTINUOUS
 62
     7
 10
1.968503937
 20
1.5748031496
 30
0.0
 11
1.9675371215
 21
1.5748031496
 31
0.0
  0
LINE
  5
24B
  8
0
  6
CONTINUOUS
 62
     7
 10
1.968503937
 20
1.1811023622
 30
0.0
 11
1.968503937
 21
1.5748031496
 31
0.0
  0
LINE
  5
24C
  8
0
  6
CONTINUOUS
 62
     7
 10
1.9675371215
 20
1.1811023622
 30
0.0
 11
1.968503937
 21
1.1811023622
 31
0.0
  0
LINE
  5
24D
  8
0
  6
CONTINUOUS
 62
     7
 10
1.718503937
 20
0.8315957486
 30
0.0
 11
1.718503937
 21
1.1369081884
 31
0.0
  0
LINE
  5
24E
  8
0
  6
CONTINUOUS
 62
     7
 10
1.968503937
 20
0.7874015748
 30
0.0
 11
1.9675371215
 21
0.7874015748
 31
0.0
  0
LINE
  5
24F
  8
0
  6
CONTINUOUS
 62
     7
 10
1.968503937
 20
0.3937007874
 30
0.0
 11
1.968503937
 21
0.7874015748
 31
0.0
  0
LINE
  5
250
  8
0
  6
CONTINUOUS
 62
     7
 10
1.7626981108
 20
0.3937007874
 30
0.0
 11
1.968503937
 21
0.3937007874
 31
0.0
  0
LINE
  5
251
  8
0
  6
CONTINUOUS
 62
     7
 10
1.718503937
 20
0.0
 30
0.0
 11
1.718503937
 21
0.3495066136
 31
0.0
  0
LINE
  5
252
  8
0
  6
CONTINUOUS
 62
     7
 10
1.225296536
 20
0.0
 30
0.0
 11
1.718503937
 21
0.0
 31
0.0
  0
LINE
  5
253
  8
0
  6
CONTINUOUS
 62
     7
 10
1.1811023622
 20
-0.1875
 30
0.0
 11
1.1811023622
 21
-0.0441941738
 31
0.0
  0
LINE
  5
254
  8
0
  6
CONTINUOUS
 62
     7
 10
0.8499015748
 20
-0.25
 30
0.0
 11
1.1186023622
 21
-0.25
 31
0.0
  0
LINE
  5
255
  8
0
  6
CONTINUOUS
 62
     7
 10
0.7874015748
 20
-0.0441941738
 30
0.0
 11
0.7874015748
 21
-0.1875
 31
0.0
  0
LINE
  5
256
  8
0
  6
CONTINUOUS
 62
     7
 10
0.0
 20
0.0
 30
0.0
 11
0.743207401
 21
0.0
 31
0.0
  0
LINE
  5
257
  8
0
  6
CONTINUOUS
 62
     7
 10
0.0
 20
0.3937007874
 30
0.0
 11
0.0
 21
0.0
 31
0.0
  0
LINE
  5
258
  8
0
  6
CONTINUOUS
 62
     7
 10
0.0012159085
 20
0.3937007874
 30
0.0
 11
0.0
 21
0.3937007874
 31
0.0
  0
LINE
  5
259
  8
0
  6
CONTINUOUS
 62
     7
 10
0.25
 20
0.743207401
 30
0.0
 11
0.25
 21
0.4378949612
 31
0.0
  0
LINE
  5
25A
  8
0
  6
CONTINUOUS
 62
     7
 10
0.0
 20
0.7874015748
 30
0.0
 11
0.0012159085
 21
0.7874015748
 31
0.0
  0
LINE
  5
25B
  8
0
  6
CONTINUOUS
 62
     7
 10
0.0
 20
1.1811023622
 30
0.0
 11
0.0
 21
0.7874015748
 31
0.0
  0
LINE
  5
25C
  8
0
  6
CONTINUOUS
 62
     7
 10
0.0012159085
 20
1.1811023622
 30
0.0
 11
0.0
 21
1.1811023622
 31
0.0
  0
LINE
  5
25D
  8
0
  6
CONTINUOUS
 62
     7
 10
0.25
 20
1.5306089758
 30
0.0
 11
0.25
 21
1.225296536
 31
0.0
  0
LINE
  5
25E
  8
0
  6
CONTINUOUS
 62
     7
 10
0.0
 20
1.5748031496
 30
0.0
 11
0.0012159085
 21
1.5748031496
 31
0.0
  0
LINE
  5
25F
  8
0
  6
CONTINUOUS
 62
     7
 10
0.0
 20
1.968503937
 30
0.0
 11
0.0
 21
1.5748031496
 31
0.0
  0
LINE
  5
260
  8
0
  6
CONTINUOUS
 62
     7
 10
0.0012159085
 20
1.968503937
 30
0.0
 11
0.0
 21
1.968503937
 31
0.0
  0
LINE
  5
261
  8
0
  6
CONTINUOUS
 62
     7
 10
0.25
 20
2.3180105506
 30
0.0
 11
0.25
 21
2.0126981108
 31
0.0
  0
LINE
  5
262
  8
0
  6
CONTINUOUS
 62
     7
 10
0.0
 20
2.3622047244
 30
0.0
 11
0.0012159085
 21
2.3622047244
 31
0.0
  0
LINE
  5
263
  8
0
  6
CONTINUOUS
 62
     7
 10
0.0
 20
2.7559055118
 30
0.0
 11
0.0
 21
2.3622047244
 31
0.0
  0
LINE
  5
264
  8
0
  6
CONTINUOUS
 62
     7
 10
0.0012159085
 20
2.7559055118
 30
0.0
 11
0.0
 21
2.7559055118
 31
0.0
  0
LINE
  5
265
  8
0
  6
CONTINUOUS
 62
     7
 10
0.25
 20
3.1054121254
 30
0.0
 11
0.25
 21
2.8000996856
 31
0.0
  0
LINE
  5
266
  8
0
  6
CONTINUOUS
 62
     7
 10
0.0
 20
3.1496062992
 30
0.0
 11
0.0012159085
 21
3.1496062992
 31
0.0
  0
LINE
  5
267
  8
0
  6
CONTINUOUS
 62
     7
 10
0.0
 20
3.5433070866
 30
0.0
 11
0.0
 21
3.1496062992
 31
0.0
  0
LINE
  5
268
  8
0
  6
CONTINUOUS
 62
     7
 10
0.0012159085
 20
3.5433070866
 30
0.0
 11
0.0
 21
3.5433070866
 31
0.0
  0
LINE
  5
269
  8
0
  6
CONTINUOUS
 62
     7
 10
0.25
 20
3.8928137002
 30
0.0
 11
0.25
 21
3.5875012604
 31
0.0
  0
LINE
  5
26A
  8
0
  6
CONTINUOUS
 62
     7
 10
0.0
 20
3.937007874
 30
0.0
 11
0.0012159085
 21
3.937007874
 31
0.0
  0
LINE
  5
26B
  8
0
  6
CONTINUOUS
 62
     7
 10
0.0
 20
4.3307086614
 30
0.0
 11
0.0
 21
3.937007874
 31
0.0
  0
LINE
  5
26C
  8
0
  6
CONTINUOUS
 62
     7
 10
0.0012159085
 20
4.3307086614
 30
0.0
 11
0.0
 21
4.3307086614
 31
0.0
  0
LINE
  5
26D
  8
0
  6
CONTINUOUS
 62
     7
 10
0.25
 20
4.680215275
 30
0.0
 11
0.25
 21
4.3749028352
 31
0.0
  0
LINE
  5
26E
  8
0
  6
CONTINUOUS
 62
     7
 10
0.0
 20
4.7244094488
 30
0.0
 11
0.0012159085
 21
4.7244094488
 31
0.0
  0
LINE
  5
26F
  8
0
  6
CONTINUOUS
 62
     7
 10
0.0
 20
5.1181102362
 30
0.0
 11
0.0
 21
4.7244094488
 31
0.0
  0
LINE
  5
270
  8
0
  6
CONTINUOUS
 62
     7
 10
0.0012159085
 20
5.1181102362
 30
0.0
 11
0.0
 21
5.1181102362
 31
0.0
  0
LINE
  5
271
  8
0
  6
CONTINUOUS
 62
     7
 10
0.25
 20
5.4676168498
 30
0.0
 11
0.25
 21
5.16230441
 31
0.0
  0
LINE
  5
272
  8
0
  6
CONTINUOUS
 62
     7
 10
0.0
 20
5.5118110236
 30
0.0
 11
0.0012159085
 21
5.5118110236
 31
0.0
  0
LINE
  5
273
  8
0
  6
CONTINUOUS
 62
     7
 10
0.0
 20
5.905511811
 30
0.0
 11
0.0
 21
5.5118110236
 31
0.0
  0
LINE
  5
274
  8
0
  6
CONTINUOUS
 62
     7
 10
0.0012159085
 20
5.905511811
 30
0.0
 11
0.0
 21
5.905511811
 31
0.0
  0
LINE
  5
275
  8
0
  6
CONTINUOUS
 62
     7
 10
0.25
 20
6.2550184246
 30
0.0
 11
0.25
 21
5.9497059848
 31
0.0
  0
LINE
  5
276
  8
0
  6
CONTINUOUS
 62
     7
 10
0.0
 20
6.2992125984
 30
0.0
 11
0.0012159085
 21
6.2992125984
 31
0.0
  0
LINE
  5
277
  8
0
  6
CONTINUOUS
 62
     7
 10
0.0
 20
6.6929133858
 30
0.0
 11
0.0
 21
6.2992125984
 31
0.0
  0
LINE
  5
278
  8
0
  6
CONTINUOUS
 62
     7
 10
0.0012159085
 20
6.6929133858
 30
0.0
 11
0.0
 21
6.6929133858
 31
0.0
  0
LINE
  5
279
  8
0
  6
CONTINUOUS
 62
     7
 10
0.25
 20
7.0424199994
 30
0.0
 11
0.25
 21
6.7371075597
 31
0.0
  0
LINE
  5
27A
  8
0
  6
CONTINUOUS
 62
     7
 10
0.0
 20
7.0866141732
 30
0.0
 11
0.0012159085
 21
7.0866141732
 31
0.0
  0
LINE
  5
27B
  8
0
  6
CONTINUOUS
 62
     7
 10
0.0
 20
7.4803149606
 30
0.0
 11
0.0
 21
7.0866141732
 31
0.0
  0
LINE
  5
27C
  8
0
  6
CONTINUOUS
 62
     7
 10
0.2058058262
 20
7.4803149606
 30
0.0
 11
0.0
 21
7.4803149606
 31
0.0
  0
LINE
  5
27D
  8
0
  6
CONTINUOUS
 62
     7
 10
0.25
 20
7.874015748
 30
0.0
 11
0.25
 21
7.5245091345
 31
0.0
  0
LINE
  5
27E
  8
0
  6
CONTINUOUS
 62
     7
 10
0.743207401
 20
7.874015748
 30
0.0
 11
0.25
 21
7.874015748
 31
0.0
  0
LINE
  5
27F
  8
0
  6
CONTINUOUS
 62
     7
 10
0.7874015748
 20
8.061515748
 30
0.0
 11
0.7874015748
 21
7.9182099219
 31
0.0
  0
LINE
  5
280
  8
0
  6
CONTINUOUS
 62
     7
 10
1.1186023622
 20
8.124015748
 30
0.0
 11
0.8499015748
 21
8.124015748
 31
0.0
  0
LINE
  5
281
  8
0
  6
CONTINUOUS
 62
     7
 10
1.1811023622
 20
7.9182099219
 30
0.0
 11
1.1811023622
 21
8.061515748
 31
0.0
  0
LINE
  5
282
  8
0
  6
CONTINUOUS
 62
     7
 10
1.968503937
 20
7.874015748
 30
0.0
 11
1.225296536
 21
7.874015748
 31
0.0
  0
LINE
  5
283
  8
0
  6
CONTINUOUS
 62
     7
 10
1.968503937
 20
7.4803149606
 30
0.0
 11
1.968503937
 21
7.874015748
 31
0.0
  0
LINE
  5
284
  8
0
  6
CONTINUOUS
 62
     7
 10
1.9675371215
 20
7.4803149606
 30
0.0
 11
1.968503937
 21
7.4803149606
 31
0.0
  0
LINE
  5
285
  8
0
  6
CONTINUOUS
 62
     7
 10
1.718503937
 20
7.1308083471
 30
0.0
 11
1.718503937
 21
7.4361207868
 31
0.0
  0
LINE
  5
286
  8
0
  6
CONTINUOUS
 62
     7
 10
1.968503937
 20
7.0866141732
 30
0.0
 11
1.9675371215
 21
7.0866141732
 31
0.0
  0
LINE
  5
287
  8
0
  6
CONTINUOUS
 62
     7
 10
1.968503937
 20
6.6929133858
 30
0.0
 11
1.968503937
 21
7.0866141732
 31
0.0
  0
LINE
  5
288
  8
0
  6
CONTINUOUS
 62
     7
 10
1.9675371215
 20
6.6929133858
 30
0.0
 11
1.968503937
 21
6.6929133858
 31
0.0
  0
LINE
  5
289
  8
0
  6
CONTINUOUS
 62
     7
 10
1.718503937
 20
6.3434067722
 30
0.0
 11
1.718503937
 21
6.648719212
 31
0.0
  0
LINE
  5
28A
  8
0
  6
CONTINUOUS
 62
     7
 10
1.968503937
 20
6.2992125984
 30
0.0
 11
1.9675371215
 21
6.2992125984
 31
0.0
  0
LINE
  5
28B
  8
0
  6
CONTINUOUS
 62
     7
 10
1.968503937
 20
5.905511811
 30
0.0
 11
1.968503937
 21
6.2992125984
 31
0.0
  0
LINE
  5
28C
  8
0
  6
CONTINUOUS
 62
     7
 10
1.9675371215
 20
5.905511811
 30
0.0
 11
1.968503937
 21
5.905511811
 31
0.0
  0
LINE
  5
28D
  8
0
  6
CONTINUOUS
 62
     7
 10
1.718503937
 20
5.5560051974
 30
0.0
 11
1.718503937
 21
5.8613176372
 31
0.0
  0
LINE
  5
28E
  8
0
  6
CONTINUOUS
 62
     7
 10
1.968503937
 20
5.5118110236
 30
0.0
 11
1.9675371215
 21
5.5118110236
 31
0.0
  0
LINE
  5
28F
  8
0
  6
CONTINUOUS
 62
     7
 10
1.968503937
 20
5.1181102362
 30
0.0
 11
1.968503937
 21
5.5118110236
 31
0.0
  0
LINE
  5
290
  8
0
  6
CONTINUOUS
 62
     7
 10
1.9675371215
 20
5.1181102362
 30
0.0
 11
1.968503937
 21
5.1181102362
 31
0.0
  0
LINE
  5
291
  8
0
  6
CONTINUOUS
 62
     7
 10
1.718503937
 20
4.7686036226
 30
0.0
 11
1.718503937
 21
5.0739160624
 31
0.0
  0
LINE
  5
292
  8
0
  6
CONTINUOUS
 62
     7
 10
1.968503937
 20
4.7244094488
 30
0.0
 11
1.9675371215
 21
4.7244094488
 31
0.0
  0
LINE
  5
293
  8
0
  6
CONTINUOUS
 62
     7
 10
1.968503937
 20
4.3307086614
 30
0.0
 11
1.968503937
 21
4.7244094488
 31
0.0
  0
LINE
  5
294
  8
0
  6
CONTINUOUS
 62
     7
 10
1.9675371215
 20
4.3307086614
 30
0.0
 11
1.968503937
 21
4.3307086614
 31
0.0
  0
LINE
  5
295
  8
0
  6
CONTINUOUS
 62
     7
 10
1.718503937
 20
3.9812020478
 30
0.0
 11
1.718503937
 21
4.2865144876
 31
0.0
  0
LINE
  5
296
  8
0
  6
CONTINUOUS
 62
     7
 10
1.968503937
 20
3.937007874
 30
0.0
 11
1.9675371215
 21
3.937007874
 31
0.0
  0
LINE
  5
297
  8
0
  6
CONTINUOUS
 62
     7
 10
1.968503937
 20
3.5433070866
 30
0.0
 11
1.968503937
 21
3.937007874
 31
0.0
  0
LINE
  5
298
  8
0
  6
CONTINUOUS
 62
     7
 10
1.9675371215
 20
3.5433070866
 30
0.0
 11
1.968503937
 21
3.5433070866
 31
0.0
  0
ARC
  5
299
  8
0
  6
CONTINUOUS
 62
     7
 10
1.7406010239
 20
3.1717033861
 30
0.0
 40
0.031250000000002
 50
233.4278107011
 51
306.5721892989
  0
ARC
  5
29A
  8
0
  6
CONTINUOUS
 62
     7
 10
1.7406010239
 20
2.7338084249
 30
0.0
 40
0.0312499999999914
 50
53.4278107015
 51
126.5721892985
  0
ARC
  5
29B
  8
0
  6
CONTINUOUS
 62
     7
 10
1.7406010239
 20
2.3843018113
 30
0.0
 40
0.0312500000000042
 50
233.4278107011
 51
306.5721892989
  0
ARC
  5
29C
  8
0
  6
CONTINUOUS
 62
     7
 10
1.7406010239
 20
1.9464068501
 30
0.0
 40
0.031250000000004
 50
53.4278107015
 51
126.5721892985
  0
ARC
  5
29D
  8
0
  6
CONTINUOUS
 62
     7
 10
1.7406010239
 20
1.5969002365
 30
0.0
 40
0.0312499999999917
 50
233.4278107012
 51
306.5721892988
  0
ARC
  5
29E
  8
0
  6
CONTINUOUS
 62
     7
 10
1.7406010239
 20
1.1590052753
 30
0.0
 40
0.0312499999999824
 50
53.4278107016
 51
126.5721892984
  0
ARC
  5
29F
  8
0
  6
CONTINUOUS
 62
     7
 10
1.7406010239
 20
0.8094986617
 30
0.0
 40
0.031249999999998
 50
233.4278107012
 51
306.5721892988
  0
ARC
  5
2A0
  8
0
  6
CONTINUOUS
 62
     7
 10
1.7406010239
 20
0.3716037005
 30
0.0
 40
0.0312500000000045
 50
45.0
 51
225.0
  0
ARC
  5
2A1
  8
0
  6
CONTINUOUS
 62
     7
 10
1.2031994491
 20
-0.0220970869
 30
0.0
 40
0.0312499999999996
 50
45.0
 51
225.0
  0
ARC
  5
2A2
  8
0
  6
CONTINUOUS
 62
     7
 10
0.7653044879
 20
-0.0220970869
 30
0.0
 40
0.0312500000000042
 50
315.0
 51
135.0
  0
ARC
  5
2A3
  8
0
  6
CONTINUOUS
 62
     7
 10
0.2279029131
 20
0.4157978743
 30
0.0
 40
0.031249999999959
 50
233.4278107012
 51
306.5721892989
  0
ARC
  5
2A4
  8
0
  6
CONTINUOUS
 62
     7
 10
0.2279029131
 20
0.7653044879
 30
0.0
 40
0.0312499999999675
 50
53.4278107012
 51
126.5721892988
  0
ARC
  5
2A5
  8
0
  6
CONTINUOUS
 62
     7
 10
0.2279029131
 20
1.2031994491
 30
0.0
 40
0.0312499999999576
 50
233.4278107012
 51
306.5721892989
  0
ARC
  5
2A6
  8
0
  6
CONTINUOUS
 62
     7
 10
0.2279029131
 20
1.5527060627
 30
0.0
 40
0.0312499999999661
 50
53.4278107012
 51
126.5721892988
  0
ARC
  5
2A7
  8
0
  6
CONTINUOUS
 62
     7
 10
0.2279029131
 20
1.9906010239
 30
0.0
 40
0.0312499999999591
 50
233.4278107012
 51
306.5721892988
  0
ARC
  5
2A8
  8
0
  6
CONTINUOUS
 62
     7
 10
0.2279029131
 20
2.3401076375
 30
0.0
 40
0.0312499999999534
 50
53.4278107012
 51
126.5721892988
  0
ARC
  5
2A9
  8
0
  6
CONTINUOUS
 62
     7
 10
0.2279029131
 20
2.7780025987
 30
0.0
 40
0.0312499999999445
 50
233.4278107012
 51
306.5721892988
  0
ARC
  5
2AA
  8
0
  6
CONTINUOUS
 62
     7
 10
0.2279029131
 20
3.1275092123
 30
0.0
 40
0.0312499999999682
 50
53.4278107012
 51
126.5721892988
  0
ARC
  5
2AB
  8
0
  6
CONTINUOUS
 62
     7
 10
0.2279029131
 20
3.5654041735
 30
0.0
 40
0.0312499999999702
 50
233.4278107011
 51
306.5721892989
  0
ARC
  5
2AC
  8
0
  6
CONTINUOUS
 62
     7
 10
0.2279029131
 20
3.9149107871
 30
0.0
 40
0.0312499999999565
 50
53.4278107012
 51
126.5721892988
  0
ARC
  5
2AD
  8
0
  6
CONTINUOUS
 62
     7
 10
0.2279029131
 20
4.3528057483
 30
0.0
 40
0.0312499999999698
 50
233.4278107011
 51
306.5721892989
  0
ARC
  5
2AE
  8
0
  6
CONTINUOUS
 62
     7
 10
0.2279029131
 20
4.7023123619
 30
0.0
 40
0.0312499999999666
 50
53.4278107011
 51
126.5721892989
  0
ARC
  5
2AF
  8
0
  6
CONTINUOUS
 62
     7
 10
0.2279029131
 20
5.1402073231
 30
0.0
 40
0.031249999999958
 50
233.4278107012
 51
306.5721892988
  0
ARC
  5
2B0
  8
0
  6
CONTINUOUS
 62
     7
 10
0.2279029131
 20
5.4897139367
 30
0.0
 40
0.0312499999999403
 50
53.4278107011
 51
126.5721892989
  0
ARC
  5
2B1
  8
0
  6
CONTINUOUS
 62
     7
 10
0.2279029131
 20
5.9276088979
 30
0.0
 40
0.0312499999999744
 50
233.4278107011
 51
306.5721892989
  0
ARC
  5
2B2
  8
0
  6
CONTINUOUS
 62
     7
 10
0.2279029131
 20
6.2771155115
 30
0.0
 40
0.0312499999999396
 50
53.4278107011
 51
126.5721892989
  0
ARC
  5
2B3
  8
0
  6
CONTINUOUS
 62
     7
 10
0.2279029131
 20
6.7150104727
 30
0.0
 40
0.0312499999999783
 50
233.4278107011
 51
306.5721892989
  0
ARC
  5
2B4
  8
0
  6
CONTINUOUS
 62
     7
 10
0.2279029131
 20
7.0645170863
 30
0.0
 40
0.0312499999999569
 50
53.4278107012
 51
126.5721892988
  0
ARC
  5
2B5
  8
0
  6
CONTINUOUS
 62
     7
 10
0.2279029131
 20
7.5024120475
 30
0.0
 40
0.0312499999999868
 50
225.0000000001
 51
45.0000000003
  0
ARC
  5
2B6
  8
0
  6
CONTINUOUS
 62
     7
 10
0.7653044879
 20
7.8961128349
 30
0.0
 40
0.0312500000000024
 50
225.0
 51
45.0
  0
ARC
  5
2B7
  8
0
  6
CONTINUOUS
 62
     7
 10
1.2031994491
 20
7.8961128349
 30
0.0
 40
0.0312499999999861
 50
135.0
 51
315.0
  0
ARC
  5
2B8
  8
0
  6
CONTINUOUS
 62
     7
 10
1.7406010239
 20
7.4582178737
 30
0.0
 40
0.03124999999998
 50
53.4278107016
 51
126.5721892984
  0
ARC
  5
2B9
  8
0
  6
CONTINUOUS
 62
     7
 10
1.7406010239
 20
7.1087112601
 30
0.0
 40
0.0312500000000044
 50
233.4278107012
 51
306.5721892988
  0
ARC
  5
2BA
  8
0
  6
CONTINUOUS
 62
     7
 10
1.7406010239
 20
6.6708162989
 30
0.0
 40
0.0312499999999784
 50
53.4278107016
 51
126.5721892984
  0
ARC
  5
2BB
  8
0
  6
CONTINUOUS
 62
     7
 10
1.7406010239
 20
6.3213096853
 30
0.0
 40
0.0312500000000151
 50
233.4278107011
 51
306.5721892989
  0
ARC
  5
2BC
  8
0
  6
CONTINUOUS
 62
     7
 10
1.7406010239
 20
5.8834147241
 30
0.0
 40
0.0312499999999933
 50
53.4278107015
 51
126.5721892985
  0
ARC
  5
2BD
  8
0
  6
CONTINUOUS
 62
     7
 10
1.7406010239
 20
5.5339081105
 30
0.0
 40
0.0312500000000176
 50
233.4278107011
 51
306.5721892989
  0
ARC
  5
2BE
  8
0
  6
CONTINUOUS
 62
     7
 10
1.7406010239
 20
5.0960131493
 30
0.0
 40
0.03125
 50
53.4278107015
 51
126.5721892985
  0
ARC
  5
2BF
  8
0
  6
CONTINUOUS
 62
     7
 10
1.7406010239
 20
4.7465065357
 30
0.0
 40
0.0312499999999943
 50
233.4278107012
 51
306.5721892988
  0
ARC
  5
2C0
  8
0
  6
CONTINUOUS
 62
     7
 10
1.7406010239
 20
4.3086115745
 30
0.0
 40
0.0312499999999927
 50
53.4278107015
 51
126.5721892985
  0
ARC
  5
2C1
  8
0
  6
CONTINUOUS
 62
     7
 10
1.7406010239
 20
3.9591049609
 30
0.0
 40
0.031250000000005
 50
233.4278107011
 51
306.5721892989
  0
ARC
  5
2C2
  8
0
  6
CONTINUOUS
 62
     7
 10
1.7406010239
 20
3.5212099997
 30
0.0
 40
0.0312500000000048
 50
53.4278107015
 51
126.5721892985
  0
ARC
  5
2C3
  8
0
  6
CONTINUOUS
 62
     7
 10
0.2279029131
 20
6.7150104727
 30
0.0
 40
0.0312499999999729
 50
311.9291975453
 51
45.0000000001
  0
ARC
  5
2C4
  8
0
  6
CONTINUOUS
 62
     7
 10
0.2279029131
 20
7.0645170863
 30
0.0
 40
0.031249999999955
 50
315.0
 51
48.0708024546
  0
ARC
  5
2C5
  8
0
  6
CONTINUOUS
 62
     7
 10
1.7406010239
 20
7.4582178737
 30
0.0
 40
0.0312499999999807
 50
132.5458480184
 51
224.9999999998
  0
ARC
  5
2C6
  8
0
  6
CONTINUOUS
 62
     7
 10
1.7406010239
 20
7.1087112601
 30
0.0
 40
0.0312500000000028
 50
135.0
 51
227.4541519818
  0
ARC
  5
2C7
  8
0
  6
CONTINUOUS
 62
     7
 10
1.7406010239
 20
3.1717033861
 30
0.0
 40
0.031250000000004
 50
135.0
 51
227.4541519818
  0
ARC
  5
2C8
  8
0
  6
CONTINUOUS
 62
     7
 10
1.7406010239
 20
2.7338084249
 30
0.0
 40
0.0312499999999931
 50
132.5458480182
 51
225.0
  0
ARC
  5
2C9
  8
0
  6
CONTINUOUS
 62
     7
 10
1.7406010239
 20
2.3843018113
 30
0.0
 40
0.0312500000000048
 50
135.0
 51
227.4541519818
  0
ARC
  5
2CA
  8
0
  6
CONTINUOUS
 62
     7
 10
1.7406010239
 20
1.9464068501
 30
0.0
 40
0.0312500000000043
 50
132.5458480182
 51
225.0
  0
ARC
  5
2CB
  8
0
  6
CONTINUOUS
 62
     7
 10
1.7406010239
 20
1.5969002365
 30
0.0
 40
0.0312499999999917
 50
135.0
 51
227.4541519818
  0
ARC
  5
2CC
  8
0
  6
CONTINUOUS
 62
     7
 10
1.7406010239
 20
1.1590052753
 30
0.0
 40
0.0312499999999795
 50
132.5458480183
 51
225.0
  0
ARC
  5
2CD
  8
0
  6
CONTINUOUS
 62
     7
 10
1.7406010239
 20
0.8094986617
 30
0.0
 40
0.031249999999998
 50
135.0
 51
227.4541519817
  0
ARC
  5
2CE
  8
0
  6
CONTINUOUS
 62
     7
 10
0.2279029131
 20
0.4157978743
 30
0.0
 40
0.031249999999961
 50
311.9291975453
 51
45.0000000001
  0
ARC
  5
2CF
  8
0
  6
CONTINUOUS
 62
     7
 10
0.2279029131
 20
0.7653044879
 30
0.0
 40
0.031249999999967
 50
314.9999999999
 51
48.0708024546
  0
ARC
  5
2D0
  8
0
  6
CONTINUOUS
 62
     7
 10
0.2279029131
 20
1.2031994491
 30
0.0
 40
0.031249999999961
 50
311.9291975453
 51
45.0000000001
  0
ARC
  5
2D1
  8
0
  6
CONTINUOUS
 62
     7
 10
0.2279029131
 20
1.5527060627
 30
0.0
 40
0.0312499999999673
 50
314.9999999999
 51
48.0708024546
  0
ARC
  5
2D2
  8
0
  6
CONTINUOUS
 62
     7
 10
0.2279029131
 20
1.9906010239
 30
0.0
 40
0.031249999999961
 50
311.9291975453
 51
45.0000000001
  0
ARC
  5
2D3
  8
0
  6
CONTINUOUS
 62
     7
 10
0.2279029131
 20
2.3401076375
 30
0.0
 40
0.0312499999999552
 50
315.0
 51
48.0708024546
  0
ARC
  5
2D4
  8
0
  6
CONTINUOUS
 62
     7
 10
0.2279029131
 20
2.7780025987
 30
0.0
 40
0.0312499999999482
 50
311.9291975455
 51
44.9999999999
  0
ARC
  5
2D5
  8
0
  6
CONTINUOUS
 62
     7
 10
0.2279029131
 20
3.1275092123
 30
0.0
 40
0.0312499999999669
 50
314.9999999999
 51
48.0708024546
  0
ARC
  5
2D6
  8
0
  6
CONTINUOUS
 62
     7
 10
0.2279029131
 20
3.5654041735
 30
0.0
 40
0.031249999999974
 50
311.9291975454
 51
45.0000000001
  0
ARC
  5
2D7
  8
0
  6
CONTINUOUS
 62
     7
 10
0.2279029131
 20
3.9149107871
 30
0.0
 40
0.0312499999999549
 50
315.0
 51
48.0708024546
  0
ARC
  5
2D8
  8
0
  6
CONTINUOUS
 62
     7
 10
0.2279029131
 20
4.3528057483
 30
0.0
 40
0.0312499999999736
 50
311.9291975454
 51
45.0000000001
  0
ARC
  5
2D9
  8
0
  6
CONTINUOUS
 62
     7
 10
0.2279029131
 20
4.7023123619
 30
0.0
 40
0.0312499999999678
 50
314.9999999999
 51
48.0708024546
  0
ARC
  5
2DA
  8
0
  6
CONTINUOUS
 62
     7
 10
0.2279029131
 20
5.1402073231
 30
0.0
 40
0.031249999999961
 50
311.9291975453
 51
45.0000000001
  0
ARC
  5
2DB
  8
0
  6
CONTINUOUS
 62
     7
 10
0.2279029131
 20
5.4897139367
 30
0.0
 40
0.0312499999999426
 50
315.0
 51
48.0708024546
  0
ARC
  5
2DC
  8
0
  6
CONTINUOUS
 62
     7
 10
0.2279029131
 20
5.9276088979
 30
0.0
 40
0.0312499999999738
 50
311.9291975453
 51
45.0000000001
  0
ARC
  5
2DD
  8
0
  6
CONTINUOUS
 62
     7
 10
0.2279029131
 20
6.2771155115
 30
0.0
 40
0.031249999999942
 50
315.0
 51
48.0708024546
  0
ARC
  5
2DE
  8
0
  6
CONTINUOUS
 62
     7
 10
1.7406010239
 20
6.6708162989
 30
0.0
 40
0.0312499999999795
 50
132.5458480183
 51
224.9999999999
  0
ARC
  5
2DF
  8
0
  6
CONTINUOUS
 62
     7
 10
1.7406010239
 20
6.3213096853
 30
0.0
 40
0.031250000000018
 50
134.9999999999
 51
227.4541519818
  0
ARC
  5
2E0
  8
0
  6
CONTINUOUS
 62
     7
 10
1.7406010239
 20
5.8834147241
 30
0.0
 40
0.031249999999992
 50
132.5458480182
 51
225.0
  0
ARC
  5
2E1
  8
0
  6
CONTINUOUS
 62
     7
 10
1.7406010239
 20
5.5339081105
 30
0.0
 40
0.0312500000000174
 50
135.0
 51
227.4541519818
  0
ARC
  5
2E2
  8
0
  6
CONTINUOUS
 62
     7
 10
1.7406010239
 20
5.0960131493
 30
0.0
 40
0.0312500000000036
 50
132.5458480182
 51
225.0
  0
ARC
  5
2E3
  8
0
  6
CONTINUOUS
 62
     7
 10
1.7406010239
 20
4.7465065357
 30
0.0
 40
0.0312499999999918
 50
135.0
 51
227.4541519818
  0
ARC
  5
2E4
  8
0
  6
CONTINUOUS
 62
     7
 10
1.7406010239
 20
4.3086115745
 30
0.0
 40
0.0312499999999929
 50
132.5458480182
 51
225.0
  0
ARC
  5
2E5
  8
0
  6
CONTINUOUS
 62
     7
 10
1.7406010239
 20
3.9591049609
 30
0.0
 40
0.0312500000000039
 50
135.0
 51
227.4541519818
  0
ARC
  5
2E6
  8
0
  6
CONTINUOUS
 62
     7
 10
1.7406010239
 20
3.5212099997
 30
0.0
 40
0.0312500000000051
 50
132.5458480182
 51
225.0
  0
ENDSEC
  0
EOF
