  0
SECTION
  2
HEADER
  9
$ACADVER
  1
AC1009
  9
$DWGCODEPAGE
  3
ansi_1252
  9
$INSBASE
 10
0.0
 20
0.0
 30
0.0
  9
$EXTMIN
 10
-0.2500000587
 20
-0.25
 30
0.0
  9
$EXTMAX
 10
11.561023622
 20
11.561023622
 30
0.0
  9
$LIMMIN
 10
0.0
 20
0.0
  9
$LIMMAX
 10
12.0
 20
9.0
  9
$ORTHOMODE
 70
     0
  9
$REGENMODE
 70
     1
  9
$FILLMODE
 70
     1
  9
$QTEXTMODE
 70
     0
  9
$MIRRTEXT
 70
     1
  9
$DRAGMODE
 70
     2
  9
$LTSCALE
 40
1.0
  9
$OSMODE
 70
    37
  9
$ATTMODE
 70
     1
  9
$TEXTSIZE
 40
0.1377952756
  9
$TRACEWID
 40
0.05
  9
$TEXTSTYLE
  7
STANDARD
  9
$CLAYER
  8
0
  9
$CELTYPE
  6
BYLAYER
  9
$CECOLOR
 62
   256
  9
$DIMSCALE
 40
1.0
  9
$DIMASZ
 40
0.13
  9
$DIMEXO
 40
0.0393700787
  9
$DIMDLI
 40
0.38
  9
$DIMRND
 40
0.0
  9
$DIMDLE
 40
0.0
  9
$DIMEXE
 40
0.0393700787
  9
$DIMTP
 40
0.0
  9
$DIMTM
 40
0.0
  9
$DIMTXT
 40
0.1377952756
  9
$DIMCEN
 40
0.09
  9
$DIMTSZ
 40
0.0
  9
$DIMTOL
 70
     0
  9
$DIMLIM
 70
     0
  9
$DIMTIH
 70
     1
  9
$DIMTOH
 70
     1
  9
$DIMSE1
 70
     0
  9
$DIMSE2
 70
     0
  9
$DIMTAD
 70
     1
  9
$DIMZIN
 70
     1
  9
$DIMBLK
  1

  9
$DIMASO
 70
     1
  9
$DIMSHO
 70
     1
  9
$DIMPOST
  1

  9
$DIMAPOST
  1

  9
$DIMALT
 70
     0
  9
$DIMALTD
 70
     2
  9
$DIMALTF
 40
25.4
  9
$DIMLFAC
 40
1.0
  9
$DIMTOFL
 70
     0
  9
$DIMTVP
 40
0.0
  9
$DIMTIX
 70
     0
  9
$DIMSOXD
 70
     0
  9
$DIMSAH
 70
     0
  9
$DIMBLK1
  1

  9
$DIMBLK2
  1

  9
$DIMSTYLE
  2
STANDARD
  9
$DIMCLRD
 70
     0
  9
$DIMCLRE
 70
     0
  9
$DIMCLRT
 70
     0
  9
$DIMTFAC
 40
1.0
  9
$DIMGAP
 40
0.06
  9
$LUNITS
 70
     2
  9
$LUPREC
 70
     8
  9
$SKETCHINC
 40
0.1
  9
$FILLETRAD
 40
0.5
  9
$AUNITS
 70
     0
  9
$AUPREC
 70
     2
  9
$MENU
  1
.
  9
$ELEVATION
 40
0.0
  9
$PELEVATION
 40
0.0
  9
$THICKNESS
 40
0.0
  9
$LIMCHECK
 70
     0
  9
$CHAMFERA
 40
0.0
  9
$CHAMFERB
 40
0.0
  9
$SKPOLY
 70
     0
  9
$TDCREATE
 40
2458269.415483194
  9
$TDUPDATE
 40
2458269.415516042
  9
$TDINDWG
 40
0.0000000116
  9
$TDUSRTIMER
 40
0.0000000116
  9
$USRTIMER
 70
     1
  9
$ANGBASE
 50
0.0
  9
$ANGDIR
 70
     0
  9
$PDMODE
 70
     0
  9
$PDSIZE
 40
-1.0
  9
$PLINEWID
 40
0.0
  9
$COORDS
 70
     1
  9
$SPLFRAME
 70
     0
  9
$SPLINETYPE
 70
     6
  9
$SPLINESEGS
 70
     8
  9
$ATTDIA
 70
     0
  9
$ATTREQ
 70
     1
  9
$HANDLING
 70
     1
  9
$HANDSEED
  5
3B8
  9
$SURFTAB1
 70
     6
  9
$SURFTAB2
 70
     6
  9
$SURFTYPE
 70
     6
  9
$SURFU
 70
     6
  9
$SURFV
 70
     6
  9
$UCSNAME
  2

  9
$UCSORG
 10
0.0
 20
0.0
 30
0.0
  9
$UCSXDIR
 10
1.0
 20
0.0
 30
0.0
  9
$UCSYDIR
 10
0.0
 20
1.0
 30
0.0
  9
$PUCSNAME
  2

  9
$PUCSORG
 10
0.0
 20
0.0
 30
0.0
  9
$PUCSXDIR
 10
1.0
 20
0.0
 30
0.0
  9
$PUCSYDIR
 10
0.0
 20
1.0
 30
0.0
  9
$USERI1
 70
     0
  9
$USERI2
 70
     0
  9
$USERI3
 70
     0
  9
$USERI4
 70
     0
  9
$USERI5
 70
     0
  9
$USERR1
 40
0.0
  9
$USERR2
 40
0.0
  9
$USERR3
 40
0.0
  9
$USERR4
 40
0.0
  9
$USERR5
 40
0.0
  9
$WORLDVIEW
 70
     1
  9
$SHADEDGE
 70
     3
  9
$SHADEDIF
 70
    70
  9
$TILEMODE
 70
     1
  9
$MAXACTVP
 70
    64
  9
$PLIMCHECK
 70
     0
  9
$PEXTMIN
 10
1.0000000000E+20
 20
1.0000000000E+20
 30
1.0000000000E+20
  9
$PEXTMAX
 10
-1.0000000000E+20
 20
-1.0000000000E+20
 30
-1.0000000000E+20
  9
$PLIMMIN
 10
0.0
 20
0.0
  9
$PLIMMAX
 10
12.0
 20
9.0
  9
$UNITMODE
 70
     0
  9
$VISRETAIN
 70
     1
  9
$PLINEGEN
 70
     0
  9
$PSLTSCALE
 70
     1
  0
ENDSEC
  0
SECTION
  2
TABLES
  0
TABLE
  2
VPORT
 70
     1
  0
VPORT
  2
*ACTIVE
 70
     0
 10
0.0
 20
0.0
 11
1.0
 21
1.0
 12
5.6555117817
 22
5.655511811
 13
0.0
 23
0.0
 14
0.5
 24
0.5
 15
0.5
 25
0.5
 16
0.0
 26
0.0
 36
1.0
 17
0.0
 27
0.0
 37
0.0
 40
12.0472440945
 41
1.000000005
 42
50.0
 43
0.0
 44
0.0
 50
0.0
 51
0.0
 71
     0
 72
   100
 73
     1
 74
     3
 75
     0
 76
     0
 77
     0
 78
     0
  0
ENDTAB
  0
TABLE
  2
LTYPE
 70
     6
  0
LTYPE
  2
CONTINUOUS
 70
     0
  3
Solid line
 72
    65
 73
     0
 40
0.0
  0
LTYPE
  2
HIDDEN
 70
     0
  3
Hidden __ __ __ __ __ __ __ __ __ __ __ __ __ __
 72
    65
 73
     2
 40
0.075
 49
0.05
 49
-0.025
  0
LTYPE
  2
PHANTOM
 70
     0
  3
Phantom ______  __  __  ______  __  __  ______
 72
    65
 73
     6
 40
0.5
 49
0.25
 49
-0.05
 49
0.05
 49
-0.05
 49
0.05
 49
-0.05
  0
LTYPE
  2
CENTER
 70
     0
  3
Center ____ _ ____ _ ____ _ ____ _ ____ _ ____
 72
    65
 73
     4
 40
0.4
 49
0.25
 49
-0.05
 49
0.05
 49
-0.05
  0
LTYPE
  2
CENTERX2
 70
     0
  3
Center (2x) ________  __  ________  __  _____
 72
    65
 73
     4
 40
0.8
 49
0.5
 49
-0.1
 49
0.1
 49
-0.1
  0
LTYPE
  2
DOT2
 70
     0
  3
Dot (.5x) ........................................
 72
    65
 73
     2
 40
0.025
 49
0.0
 49
-0.025
  0
ENDTAB
  0
TABLE
  2
LAYER
 70
     1
  0
LAYER
  2
0
 70
     0
 62
     7
  6
CONTINUOUS
  0
ENDTAB
  0
TABLE
  2
STYLE
 70
     1
  0
STYLE
  2
STANDARD
 70
     0
 40
0.0
 41
1.0
 50
0.0
 71
     0
 42
0.1377952756
  3
txt
  4

  0
ENDTAB
  0
TABLE
  2
VIEW
 70
     0
  0
ENDTAB
  0
TABLE
  2
UCS
 70
     0
  0
ENDTAB
  0
TABLE
  2
APPID
 70
     1
  0
APPID
  2
ACAD
 70
     0
  0
ENDTAB
  0
TABLE
  2
DIMSTYLE
 70
     1
  0
DIMSTYLE
  2
STANDARD
 70
     0
  3

  4

  5

  6

  7

 40
1.0
 41
0.18
 42
0.0625
 43
0.38
 44
0.18
 45
0.0
 46
0.0
 47
0.0
 48
0.0
140
0.18
141
0.09
142
0.0
143
25.4
144
1.0
145
0.0
146
1.0
147
0.09
 71
     0
 72
     0
 73
     1
 74
     1
 75
     0
 76
     0
 77
     0
 78
     0
170
     0
171
     2
172
     0
173
     0
174
     0
175
     0
176
     0
177
     0
178
     0
  0
ENDTAB
  0
ENDSEC
  0
SECTION
  2
BLOCKS
  0
BLOCK
  8
0
  2
$MODEL_SPACE
 70
     0
 10
0.0
 20
0.0
 30
0.0
  3
$MODEL_SPACE
  1

  0
ENDBLK
  5
21
  8
0
  0
BLOCK
 67
     1
  8
0
  2
$PAPER_SPACE
 70
     0
 10
0.0
 20
0.0
 30
0.0
  3
$PAPER_SPACE
  1

  0
ENDBLK
  5
1D
 67
     1
  8
0
  0
ENDSEC
  0
SECTION
  2
ENTITIES
  0
CIRCLE
  5
CB
  8
0
  6
CONTINUOUS
 62
     7
 10
1.9272397129
 20
6.7580430444
 30
0.0
 40
0.4999999999999707
  0
CIRCLE
  5
CC
  8
0
  6
CONTINUOUS
 62
     7
 10
0.5511811024
 20
0.5511811024
 30
0.0
 40
0.393700787401575
  0
CIRCLE
  5
CD
  8
0
  6
CONTINUOUS
 62
     7
 10
0.5511811024
 20
10.7598425197
 30
0.0
 40
0.3937007874015868
  0
CIRCLE
  5
CE
  8
0
  6
CONTINUOUS
 62
     7
 10
10.7598425197
 20
0.5511811024
 30
0.0
 40
0.3937007874015741
  0
CIRCLE
  5
CF
  8
0
  6
CONTINUOUS
 62
     7
 10
10.7598425197
 20
10.7598425197
 30
0.0
 40
0.3937007874015723
  0
LINE
  5
21E
  8
0
  6
CONTINUOUS
 62
     7
 10
3.4502178031
 20
1.8007483149
 30
0.0
 11
3.6118294342
 21
1.8007483149
 31
0.0
  0
LINE
  5
21F
  8
0
  6
CONTINUOUS
 62
     7
 10
3.6560236079
 20
1.8449424887
 30
0.0
 11
3.6560236079
 21
2.0065542663
 31
0.0
  0
LINE
  5
220
  8
0
  6
CONTINUOUS
 62
     7
 10
3.6118294342
 20
2.0507484402
 30
0.0
 11
3.4502178031
 21
2.0507484402
 31
0.0
  0
LINE
  5
221
  8
0
  6
CONTINUOUS
 62
     7
 10
3.4060236293
 20
2.0065542663
 30
0.0
 11
3.4060236293
 21
1.8449424887
 31
0.0
  0
LINE
  5
222
  8
0
  6
CONTINUOUS
 62
     7
 10
7.7002178801
 20
1.8007483149
 30
0.0
 11
7.8618295111
 21
1.8007483149
 31
0.0
  0
LINE
  5
223
  8
0
  6
CONTINUOUS
 62
     7
 10
7.9060236849
 20
1.8449424887
 30
0.0
 11
7.9060236849
 21
2.0065542663
 31
0.0
  0
LINE
  5
224
  8
0
  6
CONTINUOUS
 62
     7
 10
7.8618295111
 20
2.0507484402
 30
0.0
 11
7.7002178801
 21
2.0507484402
 31
0.0
  0
LINE
  5
225
  8
0
  6
CONTINUOUS
 62
     7
 10
7.6560237062
 20
2.0065542663
 30
0.0
 11
7.6560237062
 21
1.8449424887
 31
0.0
  0
LINE
  5
226
  8
0
  6
CONTINUOUS
 62
     7
 10
0.4364880537
 20
1.6743097632
 30
0.0
 11
0.4364880537
 21
1.5126981108
 31
0.0
  0
LINE
  5
227
  8
0
  6
CONTINUOUS
 62
     7
 10
0.4806822275
 20
1.468503937
 30
0.0
 11
0.5891442736
 21
1.468503937
 31
0.0
  0
LINE
  5
228
  8
0
  6
CONTINUOUS
 62
     7
 10
0.6333384474
 20
1.5126981108
 30
0.0
 11
0.6333384474
 21
1.6743097632
 31
0.0
  0
LINE
  5
229
  8
0
  6
CONTINUOUS
 62
     7
 10
0.5891442736
 20
1.718503937
 30
0.0
 11
0.4806822275
 21
1.718503937
 31
0.0
  0
LINE
  5
22A
  8
0
  6
CONTINUOUS
 62
     7
 10
9.842519685
 20
0.4806822275
 30
0.0
 11
9.842519685
 21
0.5891442736
 31
0.0
  0
LINE
  5
22B
  8
0
  6
CONTINUOUS
 62
     7
 10
9.7983255112
 20
0.6333384474
 30
0.0
 11
9.6367138589
 21
0.6333384474
 31
0.0
  0
LINE
  5
22C
  8
0
  6
CONTINUOUS
 62
     7
 10
9.592519685
 20
0.5891442736
 30
0.0
 11
9.592519685
 21
0.4806822275
 31
0.0
  0
LINE
  5
22D
  8
0
  6
CONTINUOUS
 62
     7
 10
9.6367138589
 20
0.4364880537
 30
0.0
 11
9.7983255112
 21
0.4364880537
 31
0.0
  0
LINE
  5
22E
  8
0
  6
CONTINUOUS
 62
     7
 10
10.6776851746
 20
1.6743097632
 30
0.0
 11
10.6776851746
 21
1.5126981108
 31
0.0
  0
LINE
  5
22F
  8
0
  6
CONTINUOUS
 62
     7
 10
10.7218793485
 20
1.468503937
 30
0.0
 11
10.8303413945
 21
1.468503937
 31
0.0
  0
LINE
  5
230
  8
0
  6
CONTINUOUS
 62
     7
 10
10.8745355683
 20
1.5126981108
 30
0.0
 11
10.8745355683
 21
1.6743097632
 31
0.0
  0
LINE
  5
231
  8
0
  6
CONTINUOUS
 62
     7
 10
10.8303413945
 20
1.718503937
 30
0.0
 11
10.7218793485
 21
1.718503937
 31
0.0
  0
LINE
  5
232
  8
0
  6
CONTINUOUS
 62
     7
 10
1.5126981108
 20
0.4364880537
 30
0.0
 11
1.6743097632
 21
0.4364880537
 31
0.0
  0
LINE
  5
233
  8
0
  6
CONTINUOUS
 62
     7
 10
1.718503937
 20
0.4806822275
 30
0.0
 11
1.718503937
 21
0.5891442736
 31
0.0
  0
LINE
  5
234
  8
0
  6
CONTINUOUS
 62
     7
 10
1.6743097632
 20
0.6333384474
 30
0.0
 11
1.5126981108
 21
0.6333384474
 31
0.0
  0
LINE
  5
235
  8
0
  6
CONTINUOUS
 62
     7
 10
1.468503937
 20
0.5891442736
 30
0.0
 11
1.468503937
 21
0.4806822275
 31
0.0
  0
LINE
  5
236
  8
0
  6
CONTINUOUS
 62
     7
 10
3.4060236293
 20
9.4660811333
 30
0.0
 11
3.4060236293
 21
9.3044693557
 31
0.0
  0
LINE
  5
237
  8
0
  6
CONTINUOUS
 62
     7
 10
3.4502178031
 20
9.2602751819
 30
0.0
 11
3.6118294342
 21
9.2602751819
 31
0.0
  0
LINE
  5
238
  8
0
  6
CONTINUOUS
 62
     7
 10
3.6560236079
 20
9.3044693557
 30
0.0
 11
3.6560236079
 21
9.4660811333
 31
0.0
  0
LINE
  5
239
  8
0
  6
CONTINUOUS
 62
     7
 10
3.6118294342
 20
9.5102753072
 30
0.0
 11
3.4502178031
 21
9.5102753072
 31
0.0
  0
LINE
  5
23A
  8
0
  6
CONTINUOUS
 62
     7
 10
7.6560237062
 20
9.4660811333
 30
0.0
 11
7.6560237062
 21
9.3044693557
 31
0.0
  0
LINE
  5
23B
  8
0
  6
CONTINUOUS
 62
     7
 10
7.7002178801
 20
9.2602751819
 30
0.0
 11
7.8618295111
 21
9.2602751819
 31
0.0
  0
LINE
  5
23C
  8
0
  6
CONTINUOUS
 62
     7
 10
7.9060236849
 20
9.3044693557
 30
0.0
 11
7.9060236849
 21
9.4660811333
 31
0.0
  0
LINE
  5
23D
  8
0
  6
CONTINUOUS
 62
     7
 10
7.8618295111
 20
9.5102753072
 30
0.0
 11
7.7002178801
 21
9.5102753072
 31
0.0
  0
LINE
  5
23E
  8
0
  6
CONTINUOUS
 62
     7
 10
0.4806822275
 20
9.592519685
 30
0.0
 11
0.5891442736
 21
9.592519685
 31
0.0
  0
LINE
  5
23F
  8
0
  6
CONTINUOUS
 62
     7
 10
0.6333384474
 20
9.6367138589
 30
0.0
 11
0.6333384474
 21
9.7983255112
 31
0.0
  0
LINE
  5
240
  8
0
  6
CONTINUOUS
 62
     7
 10
0.5891442736
 20
9.842519685
 30
0.0
 11
0.4806822275
 21
9.842519685
 31
0.0
  0
LINE
  5
241
  8
0
  6
CONTINUOUS
 62
     7
 10
0.4364880537
 20
9.7983255112
 30
0.0
 11
0.4364880537
 21
9.6367138589
 31
0.0
  0
LINE
  5
242
  8
0
  6
CONTINUOUS
 62
     7
 10
9.7983255112
 20
10.8745355683
 30
0.0
 11
9.6367138589
 21
10.8745355683
 31
0.0
  0
LINE
  5
243
  8
0
  6
CONTINUOUS
 62
     7
 10
9.592519685
 20
10.8303413945
 30
0.0
 11
9.592519685
 21
10.7218793485
 31
0.0
  0
LINE
  5
244
  8
0
  6
CONTINUOUS
 62
     7
 10
9.6367138589
 20
10.6776851746
 30
0.0
 11
9.7983255112
 21
10.6776851746
 31
0.0
  0
LINE
  5
245
  8
0
  6
CONTINUOUS
 62
     7
 10
9.842519685
 20
10.7218793485
 30
0.0
 11
9.842519685
 21
10.8303413945
 31
0.0
  0
LINE
  5
246
  8
0
  6
CONTINUOUS
 62
     7
 10
10.7218793485
 20
9.592519685
 30
0.0
 11
10.8303413945
 21
9.592519685
 31
0.0
  0
LINE
  5
247
  8
0
  6
CONTINUOUS
 62
     7
 10
10.8745355683
 20
9.6367138589
 30
0.0
 11
10.8745355683
 21
9.7983255112
 31
0.0
  0
LINE
  5
248
  8
0
  6
CONTINUOUS
 62
     7
 10
10.8303413945
 20
9.842519685
 30
0.0
 11
10.7218793485
 21
9.842519685
 31
0.0
  0
LINE
  5
249
  8
0
  6
CONTINUOUS
 62
     7
 10
10.6776851746
 20
9.7983255112
 30
0.0
 11
10.6776851746
 21
9.6367138589
 31
0.0
  0
LINE
  5
24A
  8
0
  6
CONTINUOUS
 62
     7
 10
3.9995435192
 20
10.2565496437
 30
0.0
 11
3.9007366102
 21
10.3553471652
 31
0.0
  0
LINE
  5
24B
  8
0
  6
CONTINUOUS
 62
     7
 10
3.7337074555
 20
10.1883101244
 30
0.0
 11
3.8194676131
 21
10.1025581147
 31
0.0
  0
LINE
  5
24C
  8
0
  6
CONTINUOUS
 62
     7
 10
4.639623016
 20
9.2824806333
 30
0.0
 11
4.6782030656
 21
9.243904249
 31
0.0
  0
LINE
  5
24D
  8
0
  6
CONTINUOUS
 62
     7
 10
4.8452321958
 20
9.4109413143
 30
0.0
 11
4.793597424
 21
9.4625711804
 31
0.0
  0
LINE
  5
24E
  8
0
  6
CONTINUOUS
 62
     7
 10
1.4296642243
 20
1.9625896399
 30
0.0
 11
1.3304159517
 21
1.8642355263
 31
0.0
  0
LINE
  5
24F
  8
0
  6
CONTINUOUS
 62
     7
 10
1.4966875052
 20
1.6964443407
 30
0.0
 11
1.5828307455
 21
1.7818114893
 31
0.0
  0
LINE
  5
250
  8
0
  6
CONTINUOUS
 62
     7
 10
2.4066498268
 20
2.5982085244
 30
0.0
 11
2.4454022151
 21
2.6366117802
 31
0.0
  0
LINE
  5
251
  8
0
  6
CONTINUOUS
 62
     7
 10
2.2791306369
 20
2.8044029415
 30
0.0
 11
2.2272652105
 21
2.7530047871
 31
0.0
  0
LINE
  5
252
  8
0
  6
CONTINUOUS
 62
     7
 10
7.0587749539
 20
0.5517930543
 30
0.0
 11
7.1575818629
 21
0.4529955327
 31
0.0
  0
LINE
  5
253
  8
0
  6
CONTINUOUS
 62
     7
 10
7.3246110176
 20
0.6200325735
 30
0.0
 11
7.2388508486
 21
0.7057845946
 31
0.0
  0
LINE
  5
254
  8
0
  6
CONTINUOUS
 62
     7
 10
6.4186954685
 20
1.5258620533
 30
0.0
 11
6.3801154075
 21
1.5644384489
 31
0.0
  0
LINE
  5
255
  8
0
  6
CONTINUOUS
 62
     7
 10
6.2130862773
 20
1.3974013836
 30
0.0
 11
6.2647210491
 21
1.3457715176
 31
0.0
  0
LINE
  5
256
  8
0
  6
CONTINUOUS
 62
     7
 10
2.3048529974
 20
5.8550106409
 30
0.0
 11
2.3048529974
 21
5.2550106409
 31
0.0
  0
LINE
  5
257
  8
0
  6
CONTINUOUS
 62
     7
 10
2.4182880368
 20
5.1415756016
 30
0.0
 11
2.4507683517
 21
5.1415756016
 31
0.0
  0
LINE
  5
258
  8
0
  6
CONTINUOUS
 62
     7
 10
2.5642033911
 20
5.2550106409
 30
0.0
 11
2.5642033911
 21
5.8550106409
 31
0.0
  0
LINE
  5
259
  8
0
  6
CONTINUOUS
 62
     7
 10
2.4507683517
 20
5.9684456803
 30
0.0
 11
2.4182880368
 21
5.9684456803
 31
0.0
  0
LINE
  5
25A
  8
0
  6
CONTINUOUS
 62
     7
 10
1.2146955171
 20
5.8550106409
 30
0.0
 11
1.2146955171
 21
5.2550106383
 31
0.0
  0
LINE
  5
25B
  8
0
  6
CONTINUOUS
 62
     7
 10
1.3281305729
 20
5.1415756016
 30
0.0
 11
1.3606108714
 21
5.1415756016
 31
0.0
  0
LINE
  5
25C
  8
0
  6
CONTINUOUS
 62
     7
 10
1.4740459108
 20
5.2550106409
 30
0.0
 11
1.4740459108
 21
5.8550106409
 31
0.0
  0
LINE
  5
25D
  8
0
  6
CONTINUOUS
 62
     7
 10
1.3606108714
 20
5.9684456803
 30
0.0
 11
1.3281305565
 21
5.9684456803
 31
0.0
  0
LINE
  5
25E
  8
0
  6
CONTINUOUS
 62
     7
 10
1.3136373554
 20
10.6802044617
 30
0.0
 11
1.4662438432
 21
10.6802044617
 31
0.0
  0
LINE
  5
25F
  8
0
  6
CONTINUOUS
 62
     7
 10
1.5126981108
 20
10.6776851746
 30
0.0
 11
1.6743097632
 21
10.6776851746
 31
0.0
  0
LINE
  5
260
  8
0
  6
CONTINUOUS
 62
     7
 10
1.7207640309
 20
10.6802044617
 30
0.0
 11
2.0707869478
 21
10.6802044617
 31
0.0
  0
LINE
  5
261
  8
0
  6
CONTINUOUS
 62
     7
 10
2.0707869524
 20
10.8052044617
 30
0.0
 11
1.718503937
 21
10.8052044617
 31
0.0
  0
LINE
  5
262
  8
0
  6
CONTINUOUS
 62
     7
 10
1.718503937
 20
10.8303413945
 30
0.0
 11
1.718503937
 21
10.7218793485
 31
0.0
  0
LINE
  5
263
  8
0
  6
CONTINUOUS
 62
     7
 10
1.6743097632
 20
10.8745355683
 30
0.0
 11
1.5126981108
 21
10.8745355683
 31
0.0
  0
LINE
  5
264
  8
0
  6
CONTINUOUS
 62
     7
 10
1.468503937
 20
10.7218793485
 30
0.0
 11
1.468503937
 21
10.8303413945
 31
0.0
  0
LINE
  5
265
  8
0
  6
CONTINUOUS
 62
     7
 10
1.468503937
 20
10.8052044617
 30
0.0
 11
1.3136373507
 21
10.8052044617
 31
0.0
  0
LINE
  5
266
  8
0
  6
CONTINUOUS
 62
     7
 10
5.5508250061
 20
1.2764682413
 30
0.0
 11
5.228188326
 21
1.2764682413
 31
0.0
  0
LINE
  5
267
  8
0
  6
CONTINUOUS
 62
     7
 10
5.1460032867
 20
1.1942832019
 30
0.0
 11
5.1460032867
 21
1.1618028869
 31
0.0
  0
LINE
  5
268
  8
0
  6
CONTINUOUS
 62
     7
 10
5.228188326
 20
1.0796178476
 30
0.0
 11
5.5508250061
 21
1.0796178476
 31
0.0
  0
LINE
  5
269
  8
0
  6
CONTINUOUS
 62
     7
 10
5.6330100455
 20
1.1618028869
 30
0.0
 11
5.6330100455
 21
1.1942832019
 31
0.0
  0
LINE
  5
26A
  8
0
  6
CONTINUOUS
 62
     7
 10
10.1280782956
 20
10.7564190287
 30
0.0
 11
10.0955979807
 21
10.7564190287
 31
0.0
  0
LINE
  5
26B
  8
0
  6
CONTINUOUS
 62
     7
 10
9.9821629413
 20
10.6429839893
 30
0.0
 11
9.9821629413
 21
8.5105036743
 31
0.0
  0
LINE
  5
26C
  8
0
  6
CONTINUOUS
 62
     7
 10
10.0955979807
 20
8.397068635
 30
0.0
 11
10.1280782956
 21
8.397068635
 31
0.0
  0
LINE
  5
26D
  8
0
  6
CONTINUOUS
 62
     7
 10
10.241513335
 20
8.5105036743
 30
0.0
 11
10.241513335
 21
10.6429839893
 31
0.0
  0
LINE
  5
26E
  8
0
  6
CONTINUOUS
 62
     7
 10
6.1669956184
 20
10.7010790705
 30
0.0
 11
7.3266806578
 21
10.7010790705
 31
0.0
  0
LINE
  5
26F
  8
0
  6
CONTINUOUS
 62
     7
 10
7.4401156972
 20
10.8145141099
 30
0.0
 11
7.4401156972
 21
10.8469944249
 31
0.0
  0
LINE
  5
270
  8
0
  6
CONTINUOUS
 62
     7
 10
7.3266806578
 20
10.9604294642
 30
0.0
 11
6.1669956184
 21
10.9604294642
 31
0.0
  0
LINE
  5
271
  8
0
  6
CONTINUOUS
 62
     7
 10
6.0535605791
 20
10.8469944249
 30
0.0
 11
6.0535605791
 21
10.8145141099
 31
0.0
  0
LINE
  5
272
  8
0
  6
CONTINUOUS
 62
     7
 10
5.9334798704
 20
9.8259447935
 30
0.0
 11
5.9009995528
 21
9.8259447935
 31
0.0
  0
LINE
  5
273
  8
0
  6
CONTINUOUS
 62
     7
 10
5.7875645161
 20
9.7125097376
 30
0.0
 11
5.7875645161
 21
9.1915253342
 31
0.0
  0
LINE
  5
274
  8
0
  6
CONTINUOUS
 62
     7
 10
2.8629626184
 20
8.7665744986
 30
0.0
 11
2.8629626184
 21
2.5461021247
 31
0.0
  0
LINE
  5
275
  8
0
  6
CONTINUOUS
 62
     7
 10
3.2879134067
 20
2.1211513373
 30
0.0
 11
8.2091732483
 21
2.1211513373
 31
0.0
  0
LINE
  5
276
  8
0
  6
CONTINUOUS
 62
     7
 10
8.4372736295
 20
2.3492517185
 30
0.0
 11
8.4372736295
 21
8.9634250046
 31
0.0
  0
LINE
  5
277
  8
0
  6
CONTINUOUS
 62
     7
 10
8.3415133175
 20
9.1492094474
 30
0.0
 11
8.3415133175
 21
10.6429839873
 31
0.0
  0
LINE
  5
278
  8
0
  6
CONTINUOUS
 62
     7
 10
8.2280782781
 20
10.7564190267
 30
0.0
 11
8.1955979631
 21
10.7564190267
 31
0.0
  0
LINE
  5
279
  8
0
  6
CONTINUOUS
 62
     7
 10
8.0821629238
 20
10.6429839873
 30
0.0
 11
8.0821629238
 21
9.1915253342
 31
0.0
  0
LINE
  5
27A
  8
0
  6
CONTINUOUS
 62
     7
 10
8.2091731901
 20
9.1915253342
 30
0.0
 11
3.2879133486
 21
9.1915253342
 31
0.0
  0
LINE
  5
27B
  8
0
  6
CONTINUOUS
 62
     7
 10
6.0469149098
 20
9.1915253342
 30
0.0
 11
6.0469149098
 21
9.7125097541
 31
0.0
  0
LINE
  5
27C
  8
0
  6
CONTINUOUS
 62
     7
 10
9.6957397129
 20
3.937043049
 30
0.0
 11
9.6957397129
 21
7.5370430351
 31
0.0
  0
LINE
  5
27D
  8
0
  6
CONTINUOUS
 62
     7
 10
9.5707397129
 20
7.5370430398
 30
0.0
 11
9.5707397129
 21
3.9370430444
 31
0.0
  0
LINE
  5
27E
  8
0
  6
CONTINUOUS
 62
     7
 10
8.9957397129
 20
3.937043049
 30
0.0
 11
8.9957397129
 21
7.5370430351
 31
0.0
  0
LINE
  5
27F
  8
0
  6
CONTINUOUS
 62
     7
 10
8.8707397129
 20
7.5370430398
 30
0.0
 11
8.8707397129
 21
3.9370430444
 31
0.0
  0
LINE
  5
280
  8
0
  6
CONTINUOUS
 62
     7
 10
8.6957397129
 20
3.937043049
 30
0.0
 11
8.6957397129
 21
7.5370430351
 31
0.0
  0
LINE
  5
281
  8
0
  6
CONTINUOUS
 62
     7
 10
8.5707397129
 20
7.5370430398
 30
0.0
 11
8.5707397129
 21
3.9370430444
 31
0.0
  0
LINE
  5
282
  8
0
  6
CONTINUOUS
 62
     7
 10
2.4299405003
 20
10.5217694224
 30
0.0
 11
3.0299405056
 21
10.5217694224
 31
0.0
  0
LINE
  5
283
  8
0
  6
CONTINUOUS
 62
     7
 10
3.1433755397
 20
10.6352044947
 30
0.0
 11
3.1433755397
 21
10.6676847767
 31
0.0
  0
LINE
  5
284
  8
0
  6
CONTINUOUS
 62
     7
 10
3.0299405003
 20
10.7811198161
 30
0.0
 11
2.4299405003
 21
10.7811198161
 31
0.0
  0
LINE
  5
285
  8
0
  6
CONTINUOUS
 62
     7
 10
2.316505461
 20
10.6676847767
 30
0.0
 11
2.316505461
 21
10.6352044617
 31
0.0
  0
LINE
  5
286
  8
0
  6
CONTINUOUS
 62
     7
 10
0.3609995555
 20
1.8246267678
 30
0.0
 11
0.3934798704
 21
1.8246267678
 31
0.0
  0
LINE
  5
287
  8
0
  6
CONTINUOUS
 62
     7
 10
0.5069149098
 20
1.9380618072
 30
0.0
 11
0.5069149098
 21
2.3014052376
 31
0.0
  0
LINE
  5
288
  8
0
  6
CONTINUOUS
 62
     7
 10
0.3934798704
 20
2.414840277
 30
0.0
 11
0.3609995555
 21
2.414840277
 31
0.0
  0
LINE
  5
289
  8
0
  6
CONTINUOUS
 62
     7
 10
0.3340617521
 20
9.7146981219
 30
0.0
 11
0.3340617521
 21
9.717519685
 31
0.0
  0
LINE
  5
28A
  8
0
  6
CONTINUOUS
 62
     7
 10
0.3340617521
 20
9.717519685
 30
0.0
 11
0.3315617521
 21
9.717519685
 31
0.0
  0
LINE
  5
28B
  8
0
  6
CONTINUOUS
 62
     7
 10
0.2873675783
 20
9.717519685
 30
0.0
 11
0.2507559259
 21
9.717519685
 31
0.0
  0
LINE
  5
28C
  8
0
  6
CONTINUOUS
 62
     7
 10
0.2065617521
 20
9.717519685
 30
0.0
 11
0.2040617521
 21
9.717519685
 31
0.0
  0
LINE
  5
28D
  8
0
  6
CONTINUOUS
 62
     7
 10
0.2040617521
 20
9.717519685
 30
0.0
 11
0.2040617521
 21
9.7146981219
 31
0.0
  0
LINE
  5
28E
  8
0
  6
CONTINUOUS
 62
     7
 10
0.2040617521
 20
9.6761470744
 30
0.0
 11
0.2040617521
 21
1.6348765477
 31
0.0
  0
LINE
  5
28F
  8
0
  6
CONTINUOUS
 62
     7
 10
0.2040617521
 20
1.5963255002
 30
0.0
 11
0.2040617521
 21
1.5940157831
 31
0.0
  0
LINE
  5
290
  8
0
  6
CONTINUOUS
 62
     7
 10
0.2040617521
 20
1.5940157831
 30
0.0
 11
0.2060614968
 21
1.5940157831
 31
0.0
  0
LINE
  5
291
  8
0
  6
CONTINUOUS
 62
     7
 10
0.2507559259
 20
1.593503937
 30
0.0
 11
0.2873675783
 21
1.593503937
 31
0.0
  0
LINE
  5
292
  8
0
  6
CONTINUOUS
 62
     7
 10
0.3320620075
 20
1.5940157831
 30
0.0
 11
0.3340617521
 21
1.5940157831
 31
0.0
  0
LINE
  5
293
  8
0
  6
CONTINUOUS
 62
     7
 10
0.3340617521
 20
1.5940157831
 30
0.0
 11
0.3340617521
 21
1.5963255002
 31
0.0
  0
LINE
  5
294
  8
0
  6
CONTINUOUS
 62
     7
 10
0.3340617521
 20
1.6348765477
 30
0.0
 11
0.3340617521
 21
9.6761470744
 31
0.0
  0
LINE
  5
295
  8
0
  6
CONTINUOUS
 62
     7
 10
7.9060236849
 20
0.3340617521
 30
0.0
 11
7.9060236849
 21
0.4565539587
 31
0.0
  0
LINE
  5
296
  8
0
  6
CONTINUOUS
 62
     7
 10
7.8618295111
 20
0.5007481326
 30
0.0
 11
7.7002178801
 21
0.5007481326
 31
0.0
  0
LINE
  5
297
  8
0
  6
CONTINUOUS
 62
     7
 10
7.6560237062
 20
0.4565539587
 30
0.0
 11
7.6560237062
 21
0.3340617521
 31
0.0
  0
LINE
  5
298
  8
0
  6
CONTINUOUS
 62
     7
 10
5.4342600455
 20
0.3918028955
 30
0.0
 11
5.4342600455
 21
0.4242832019
 31
0.0
  0
LINE
  5
299
  8
0
  6
CONTINUOUS
 62
     7
 10
5.3208250061
 20
0.5377182413
 30
0.0
 11
4.1501731995
 21
0.5377182413
 31
0.0
  0
LINE
  5
29A
  8
0
  6
CONTINUOUS
 62
     7
 10
4.0367381601
 20
0.4242832019
 30
0.0
 11
4.0367381601
 21
0.3918028869
 31
0.0
  0
LINE
  5
29B
  8
0
  6
CONTINUOUS
 62
     7
 10
7.6560237062
 20
0.3340617521
 30
0.0
 11
3.6560236079
 21
0.3340617521
 31
0.0
  0
LINE
  5
29C
  8
0
  6
CONTINUOUS
 62
     7
 10
3.6560236079
 20
0.3340617521
 30
0.0
 11
3.6560236079
 21
0.4565539586
 31
0.0
  0
LINE
  5
29D
  8
0
  6
CONTINUOUS
 62
     7
 10
3.6118294342
 20
0.5007481326
 30
0.0
 11
3.4502178032
 21
0.5007481326
 31
0.0
  0
LINE
  5
29E
  8
0
  6
CONTINUOUS
 62
     7
 10
3.4060236293
 20
0.4565539587
 30
0.0
 11
3.4060236293
 21
0.3340617521
 31
0.0
  0
LINE
  5
29F
  8
0
  6
CONTINUOUS
 62
     7
 10
3.4060236293
 20
0.3340617521
 30
0.0
 11
1.6348765477
 21
0.3340617521
 31
0.0
  0
LINE
  5
2A0
  8
0
  6
CONTINUOUS
 62
     7
 10
1.5963255002
 20
0.3340617521
 30
0.0
 11
1.593503937
 21
0.3340617521
 31
0.0
  0
LINE
  5
2A1
  8
0
  6
CONTINUOUS
 62
     7
 10
1.593503937
 20
0.3340617521
 30
0.0
 11
1.593503937
 21
0.3315617521
 31
0.0
  0
LINE
  5
2A2
  8
0
  6
CONTINUOUS
 62
     7
 10
1.593503937
 20
0.2873675783
 30
0.0
 11
1.593503937
 21
0.2507559259
 31
0.0
  0
LINE
  5
2A3
  8
0
  6
CONTINUOUS
 62
     7
 10
1.593503937
 20
0.2065617521
 30
0.0
 11
1.593503937
 21
0.2040617521
 31
0.0
  0
LINE
  5
2A4
  8
0
  6
CONTINUOUS
 62
     7
 10
1.593503937
 20
0.2040617521
 30
0.0
 11
1.5963255002
 21
0.2040617521
 31
0.0
  0
LINE
  5
2A5
  8
0
  6
CONTINUOUS
 62
     7
 10
1.6348765477
 20
0.2040617521
 30
0.0
 11
9.6761470744
 21
0.2040617521
 31
0.0
  0
LINE
  5
2A6
  8
0
  6
CONTINUOUS
 62
     7
 10
9.7146981219
 20
0.2040617521
 30
0.0
 11
9.717007839
 21
0.2040617521
 31
0.0
  0
LINE
  5
2A7
  8
0
  6
CONTINUOUS
 62
     7
 10
9.717007839
 20
0.2040617521
 30
0.0
 11
9.717007839
 21
0.2060614968
 31
0.0
  0
LINE
  5
2A8
  8
0
  6
CONTINUOUS
 62
     7
 10
9.717519685
 20
0.2507559259
 30
0.0
 11
9.717519685
 21
0.2873675783
 31
0.0
  0
LINE
  5
2A9
  8
0
  6
CONTINUOUS
 62
     7
 10
9.717007839
 20
0.3320620075
 30
0.0
 11
9.717007839
 21
0.3340617521
 31
0.0
  0
LINE
  5
2AA
  8
0
  6
CONTINUOUS
 62
     7
 10
9.717007839
 20
0.3340617521
 30
0.0
 11
9.7146981219
 21
0.3340617521
 31
0.0
  0
LINE
  5
2AB
  8
0
  6
CONTINUOUS
 62
     7
 10
9.6761470744
 20
0.3340617521
 30
0.0
 11
7.9060236849
 21
0.3340617521
 31
0.0
  0
LINE
  5
2AC
  8
0
  6
CONTINUOUS
 62
     7
 10
10.9769618699
 20
1.5963255002
 30
0.0
 11
10.9769618699
 21
1.593503937
 31
0.0
  0
LINE
  5
2AD
  8
0
  6
CONTINUOUS
 62
     7
 10
10.9769618699
 20
1.593503937
 30
0.0
 11
10.9794618699
 21
1.593503937
 31
0.0
  0
LINE
  5
2AE
  8
0
  6
CONTINUOUS
 62
     7
 10
11.0236560438
 20
1.593503937
 30
0.0
 11
11.0602676961
 21
1.593503937
 31
0.0
  0
LINE
  5
2AF
  8
0
  6
CONTINUOUS
 62
     7
 10
11.1044618699
 20
1.593503937
 30
0.0
 11
11.1069618699
 21
1.593503937
 31
0.0
  0
LINE
  5
2B0
  8
0
  6
CONTINUOUS
 62
     7
 10
11.1069618699
 20
1.593503937
 30
0.0
 11
11.1069618699
 21
1.5963255002
 31
0.0
  0
LINE
  5
2B1
  8
0
  6
CONTINUOUS
 62
     7
 10
11.1069618699
 20
1.6348765477
 30
0.0
 11
11.1069618699
 21
9.6761470744
 31
0.0
  0
LINE
  5
2B2
  8
0
  6
CONTINUOUS
 62
     7
 10
11.1069618699
 20
9.7146981219
 30
0.0
 11
11.1069618699
 21
9.717007839
 31
0.0
  0
LINE
  5
2B3
  8
0
  6
CONTINUOUS
 62
     7
 10
11.1069618699
 20
9.717007839
 30
0.0
 11
11.1049621253
 21
9.717007839
 31
0.0
  0
LINE
  5
2B4
  8
0
  6
CONTINUOUS
 62
     7
 10
11.0602676961
 20
9.717519685
 30
0.0
 11
11.0236560438
 21
9.717519685
 31
0.0
  0
LINE
  5
2B5
  8
0
  6
CONTINUOUS
 62
     7
 10
10.9789616146
 20
9.717007839
 30
0.0
 11
10.9769618699
 21
9.717007839
 31
0.0
  0
LINE
  5
2B6
  8
0
  6
CONTINUOUS
 62
     7
 10
10.9769618699
 20
9.717007839
 30
0.0
 11
10.9769618699
 21
9.7146981219
 31
0.0
  0
LINE
  5
2B7
  8
0
  6
CONTINUOUS
 62
     7
 10
10.9769618699
 20
9.6761470744
 30
0.0
 11
10.9769618699
 21
1.6348765477
 31
0.0
  0
LINE
  5
2B8
  8
0
  6
CONTINUOUS
 62
     7
 10
3.4060236293
 20
10.9769618699
 30
0.0
 11
3.4060236293
 21
10.8544696633
 31
0.0
  0
LINE
  5
2B9
  8
0
  6
CONTINUOUS
 62
     7
 10
3.4502178032
 20
10.8102754895
 30
0.0
 11
3.6118294342
 21
10.8102754895
 31
0.0
  0
LINE
  5
2BA
  8
0
  6
CONTINUOUS
 62
     7
 10
3.6560236079
 20
10.8544696634
 30
0.0
 11
3.6560236079
 21
10.9769618699
 31
0.0
  0
LINE
  5
2BB
  8
0
  6
CONTINUOUS
 62
     7
 10
3.6560236079
 20
10.9769618699
 30
0.0
 11
7.6560237062
 21
10.9769618699
 31
0.0
  0
LINE
  5
2BC
  8
0
  6
CONTINUOUS
 62
     7
 10
7.6560237062
 20
10.9769618699
 30
0.0
 11
7.6560237062
 21
10.8544696633
 31
0.0
  0
LINE
  5
2BD
  8
0
  6
CONTINUOUS
 62
     7
 10
7.7002178801
 20
10.8102754895
 30
0.0
 11
7.8618295111
 21
10.8102754895
 31
0.0
  0
LINE
  5
2BE
  8
0
  6
CONTINUOUS
 62
     7
 10
7.9060236849
 20
10.8544696633
 30
0.0
 11
7.9060236849
 21
10.9769618699
 31
0.0
  0
LINE
  5
2BF
  8
0
  6
CONTINUOUS
 62
     7
 10
7.9060236849
 20
10.9769618699
 30
0.0
 11
9.6761470744
 21
10.9769618699
 31
0.0
  0
LINE
  5
2C0
  8
0
  6
CONTINUOUS
 62
     7
 10
9.7146981219
 20
10.9769618699
 30
0.0
 11
9.717519685
 21
10.9769618699
 31
0.0
  0
LINE
  5
2C1
  8
0
  6
CONTINUOUS
 62
     7
 10
9.717519685
 20
10.9769618699
 30
0.0
 11
9.717519685
 21
10.9794618699
 31
0.0
  0
LINE
  5
2C2
  8
0
  6
CONTINUOUS
 62
     7
 10
9.717519685
 20
11.0236560438
 30
0.0
 11
9.717519685
 21
11.0602676961
 31
0.0
  0
LINE
  5
2C3
  8
0
  6
CONTINUOUS
 62
     7
 10
9.717519685
 20
11.1044618699
 30
0.0
 11
9.717519685
 21
11.1069618699
 31
0.0
  0
LINE
  5
2C4
  8
0
  6
CONTINUOUS
 62
     7
 10
9.717519685
 20
11.1069618699
 30
0.0
 11
9.7146981219
 21
11.1069618699
 31
0.0
  0
LINE
  5
2C5
  8
0
  6
CONTINUOUS
 62
     7
 10
9.6761470744
 20
11.1069618699
 30
0.0
 11
1.6348765477
 21
11.1069618699
 31
0.0
  0
LINE
  5
2C6
  8
0
  6
CONTINUOUS
 62
     7
 10
1.5963255002
 20
11.1069618699
 30
0.0
 11
1.5940157831
 21
11.1069618699
 31
0.0
  0
LINE
  5
2C7
  8
0
  6
CONTINUOUS
 62
     7
 10
1.5940157831
 20
11.1069618699
 30
0.0
 11
1.5940157831
 21
11.1049621253
 31
0.0
  0
LINE
  5
2C8
  8
0
  6
CONTINUOUS
 62
     7
 10
1.593503937
 20
11.0602676961
 30
0.0
 11
1.593503937
 21
11.0236560438
 31
0.0
  0
LINE
  5
2C9
  8
0
  6
CONTINUOUS
 62
     7
 10
1.5940157831
 20
10.9789616146
 30
0.0
 11
1.5940157831
 21
10.9769618699
 31
0.0
  0
LINE
  5
2CA
  8
0
  6
CONTINUOUS
 62
     7
 10
1.5940157831
 20
10.9769618699
 30
0.0
 11
1.5963255002
 21
10.9769618699
 31
0.0
  0
LINE
  5
2CB
  8
0
  6
CONTINUOUS
 62
     7
 10
1.6348765477
 20
10.9769618699
 30
0.0
 11
3.4060236293
 21
10.9769618699
 31
0.0
  0
LINE
  5
2CC
  8
0
  6
CONTINUOUS
 62
     7
 10
11.311023622
 20
9.6367138589
 30
0.0
 11
11.311023622
 21
11.311023622
 31
0.0
  0
LINE
  5
2CD
  8
0
  6
CONTINUOUS
 62
     7
 10
11.311023622
 20
11.311023622
 30
0.0
 11
9.6367138589
 21
11.311023622
 31
0.0
  0
LINE
  5
2CE
  8
0
  6
CONTINUOUS
 62
     7
 10
9.592519685
 20
11.3552177959
 30
0.0
 11
9.592519685
 21
11.561023622
 31
0.0
  0
LINE
  5
2CF
  8
0
  6
CONTINUOUS
 62
     7
 10
9.592519685
 20
11.561023622
 30
0.0
 11
9.1988188976
 21
11.559091223
 31
0.0
  0
LINE
  5
2D0
  8
0
  6
CONTINUOUS
 62
     7
 10
9.1988188976
 20
11.559091223
 30
0.0
 11
9.1988188976
 21
11.3552177959
 31
0.0
  0
LINE
  5
2D1
  8
0
  6
CONTINUOUS
 62
     7
 10
9.1546247238
 20
11.311023622
 30
0.0
 11
5.8955459538
 21
11.311023622
 31
0.0
  0
LINE
  5
2D2
  8
0
  6
CONTINUOUS
 62
     7
 10
5.8523622047
 20
11.3561839954
 30
0.0
 11
5.8523622047
 21
11.561023622
 31
0.0
  0
LINE
  5
2D3
  8
0
  6
CONTINUOUS
 62
     7
 10
5.8523622047
 20
11.561023622
 30
0.0
 11
5.4586614173
 21
11.561023622
 31
0.0
  0
LINE
  5
2D4
  8
0
  6
CONTINUOUS
 62
     7
 10
5.4586614173
 20
11.561023622
 30
0.0
 11
5.4586614173
 21
11.3561839954
 31
0.0
  0
LINE
  5
2D5
  8
0
  6
CONTINUOUS
 62
     7
 10
5.4154776683
 20
11.311023622
 30
0.0
 11
2.1553884734
 21
11.311023622
 31
0.0
  0
LINE
  5
2D6
  8
0
  6
CONTINUOUS
 62
     7
 10
2.1122047244
 20
11.3561839954
 30
0.0
 11
2.1122047244
 21
11.561023622
 31
0.0
  0
LINE
  5
2D7
  8
0
  6
CONTINUOUS
 62
     7
 10
2.1122047244
 20
11.561023622
 30
0.0
 11
1.718503937
 21
11.561023622
 31
0.0
  0
LINE
  5
2D8
  8
0
  6
CONTINUOUS
 62
     7
 10
1.718503937
 20
11.561023622
 30
0.0
 11
1.718503937
 21
11.3561839954
 31
0.0
  0
LINE
  5
2D9
  8
0
  6
CONTINUOUS
 62
     7
 10
1.675320188
 20
11.311023622
 30
0.0
 11
0.0
 21
11.311023622
 31
0.0
  0
LINE
  5
2DA
  8
0
  6
CONTINUOUS
 62
     7
 10
0.0
 20
11.311023622
 30
0.0
 11
0.0
 21
9.6367138589
 31
0.0
  0
LINE
  5
2DB
  8
0
  6
CONTINUOUS
 62
     7
 10
-0.0441941738
 20
9.592519685
 30
0.0
 11
-0.25
 21
9.592519685
 31
0.0
  0
LINE
  5
2DC
  8
0
  6
CONTINUOUS
 62
     7
 10
-0.25
 20
9.592519685
 30
0.0
 11
-0.2500000587
 21
9.1968864986
 31
0.0
  0
LINE
  5
2DD
  8
0
  6
CONTINUOUS
 62
     7
 10
-0.2500000587
 20
9.1968864986
 30
0.0
 11
-0.0459706678
 21
9.1968864986
 31
0.0
  0
LINE
  5
2DE
  8
0
  6
CONTINUOUS
 62
     7
 10
0.0
 20
9.1546247238
 30
0.0
 11
0.0
 21
5.8965563785
 31
0.0
  0
LINE
  5
2DF
  8
0
  6
CONTINUOUS
 62
     7
 10
-0.0441941738
 20
5.8523622047
 30
0.0
 11
-0.25
 21
5.8523622047
 31
0.0
  0
LINE
  5
2E0
  8
0
  6
CONTINUOUS
 62
     7
 10
-0.25
 20
5.8523622047
 30
0.0
 11
-0.2500000587
 21
5.4586614173
 31
0.0
  0
LINE
  5
2E1
  8
0
  6
CONTINUOUS
 62
     7
 10
-0.2500000587
 20
5.4586614173
 30
0.0
 11
-0.0441941738
 21
5.4586614173
 31
0.0
  0
LINE
  5
2E2
  8
0
  6
CONTINUOUS
 62
     7
 10
0.0
 20
5.4144672435
 30
0.0
 11
0.0
 21
2.1563988982
 31
0.0
  0
LINE
  5
2E3
  8
0
  6
CONTINUOUS
 62
     7
 10
-0.0441941738
 20
2.1122047244
 30
0.0
 11
-0.25
 21
2.1122047244
 31
0.0
  0
LINE
  5
2E4
  8
0
  6
CONTINUOUS
 62
     7
 10
-0.25
 20
2.1122047244
 30
0.0
 11
-0.25
 21
1.718503937
 31
0.0
  0
LINE
  5
2E5
  8
0
  6
CONTINUOUS
 62
     7
 10
-0.25
 20
1.718503937
 30
0.0
 11
-0.0441941738
 21
1.718503937
 31
0.0
  0
LINE
  5
2E6
  8
0
  6
CONTINUOUS
 62
     7
 10
0.0
 20
1.6743097632
 30
0.0
 11
0.0
 21
0.0
 31
0.0
  0
LINE
  5
2E7
  8
0
  6
CONTINUOUS
 62
     7
 10
0.0
 20
0.0
 30
0.0
 11
1.675320188
 21
0.0
 31
0.0
  0
LINE
  5
2E8
  8
0
  6
CONTINUOUS
 62
     7
 10
1.718503937
 20
-0.0451603733
 30
0.0
 11
1.718503937
 21
-0.25
 31
0.0
  0
LINE
  5
2E9
  8
0
  6
CONTINUOUS
 62
     7
 10
1.718503937
 20
-0.25
 30
0.0
 11
2.1122047244
 21
-0.25
 31
0.0
  0
LINE
  5
2EA
  8
0
  6
CONTINUOUS
 62
     7
 10
2.1122047244
 20
-0.25
 30
0.0
 11
2.1122047244
 21
-0.0451603733
 31
0.0
  0
LINE
  5
2EB
  8
0
  6
CONTINUOUS
 62
     7
 10
2.1553884734
 20
0.0
 30
0.0
 11
5.4154776683
 21
0.0
 31
0.0
  0
LINE
  5
2EC
  8
0
  6
CONTINUOUS
 62
     7
 10
5.4586614173
 20
-0.0451603733
 30
0.0
 11
5.4586614173
 21
-0.25
 31
0.0
  0
LINE
  5
2ED
  8
0
  6
CONTINUOUS
 62
     7
 10
5.4586614173
 20
-0.25
 30
0.0
 11
5.8523622047
 21
-0.25
 31
0.0
  0
LINE
  5
2EE
  8
0
  6
CONTINUOUS
 62
     7
 10
5.8523622047
 20
-0.25
 30
0.0
 11
5.8523622047
 21
-0.0451603733
 31
0.0
  0
LINE
  5
2EF
  8
0
  6
CONTINUOUS
 62
     7
 10
5.8955459538
 20
0.0
 30
0.0
 11
9.1546247238
 21
0.0
 31
0.0
  0
LINE
  5
2F0
  8
0
  6
CONTINUOUS
 62
     7
 10
9.1988188976
 20
-0.0441941738
 30
0.0
 11
9.1988188976
 21
-0.25
 31
0.0
  0
LINE
  5
2F1
  8
0
  6
CONTINUOUS
 62
     7
 10
9.1988188976
 20
-0.25
 30
0.0
 11
9.592519685
 21
-0.25
 31
0.0
  0
LINE
  5
2F2
  8
0
  6
CONTINUOUS
 62
     7
 10
9.592519685
 20
-0.25
 30
0.0
 11
9.592519685
 21
-0.0441941738
 31
0.0
  0
LINE
  5
2F3
  8
0
  6
CONTINUOUS
 62
     7
 10
9.6367138589
 20
0.0
 30
0.0
 11
11.311023622
 21
0.0
 31
0.0
  0
LINE
  5
2F4
  8
0
  6
CONTINUOUS
 62
     7
 10
11.311023622
 20
0.0
 30
0.0
 11
11.311023622
 21
1.6743097632
 31
0.0
  0
LINE
  5
2F5
  8
0
  6
CONTINUOUS
 62
     7
 10
11.3552177959
 20
1.718503937
 30
0.0
 11
11.561023622
 21
1.718503937
 31
0.0
  0
LINE
  5
2F6
  8
0
  6
CONTINUOUS
 62
     7
 10
11.561023622
 20
1.718503937
 30
0.0
 11
11.561023622
 21
2.1122047244
 31
0.0
  0
LINE
  5
2F7
  8
0
  6
CONTINUOUS
 62
     7
 10
11.561023622
 20
2.1122047244
 30
0.0
 11
11.3552177959
 21
2.1122047244
 31
0.0
  0
LINE
  5
2F8
  8
0
  6
CONTINUOUS
 62
     7
 10
11.311023622
 20
2.1563988982
 30
0.0
 11
11.311023622
 21
5.4144672435
 31
0.0
  0
LINE
  5
2F9
  8
0
  6
CONTINUOUS
 62
     7
 10
11.3552177959
 20
5.4586614173
 30
0.0
 11
11.561023622
 21
5.4586614173
 31
0.0
  0
LINE
  5
2FA
  8
0
  6
CONTINUOUS
 62
     7
 10
11.561023622
 20
5.4586614173
 30
0.0
 11
11.561023622
 21
5.8523622047
 31
0.0
  0
LINE
  5
2FB
  8
0
  6
CONTINUOUS
 62
     7
 10
11.561023622
 20
5.8523622047
 30
0.0
 11
11.3552177959
 21
5.8523622047
 31
0.0
  0
LINE
  5
2FC
  8
0
  6
CONTINUOUS
 62
     7
 10
11.311023622
 20
5.8965563785
 30
0.0
 11
11.311023622
 21
9.1546247238
 31
0.0
  0
LINE
  5
2FD
  8
0
  6
CONTINUOUS
 62
     7
 10
11.3552177959
 20
9.1988188976
 30
0.0
 11
11.561023622
 21
9.1988188976
 31
0.0
  0
LINE
  5
2FE
  8
0
  6
CONTINUOUS
 62
     7
 10
11.561023622
 20
9.1988188976
 30
0.0
 11
11.561023622
 21
9.592519685
 31
0.0
  0
LINE
  5
2FF
  8
0
  6
CONTINUOUS
 62
     7
 10
11.561023622
 20
9.592519685
 30
0.0
 11
11.3552177959
 21
9.592519685
 31
0.0
  0
ARC
  5
300
  8
0
  6
CONTINUOUS
 62
     7
 10
3.6339265211
 20
1.8228454018
 30
0.0
 40
0.0312500000000109
 50
225.0000000648
 51
45.0000000648
  0
ARC
  5
301
  8
0
  6
CONTINUOUS
 62
     7
 10
3.6339265211
 20
2.0286513532
 30
0.0
 40
0.0312500000000116
 50
314.9999999352
 51
134.9999999351
  0
ARC
  5
302
  8
0
  6
CONTINUOUS
 62
     7
 10
3.4281207162
 20
2.0286513532
 30
0.0
 40
0.0312500000000109
 50
45.0000000649
 51
225.0000000649
  0
ARC
  5
303
  8
0
  6
CONTINUOUS
 62
     7
 10
3.4281207162
 20
1.8228454018
 30
0.0
 40
0.0312500000000169
 50
134.9999999351
 51
314.9999999352
  0
ARC
  5
304
  8
0
  6
CONTINUOUS
 62
     7
 10
7.883926598
 20
1.8228454018
 30
0.0
 40
0.0312500000000109
 50
225.0
 51
45.0
  0
ARC
  5
305
  8
0
  6
CONTINUOUS
 62
     7
 10
7.883926598
 20
2.0286513533
 30
0.0
 40
0.0312499999999984
 50
315.0
 51
135.0
  0
ARC
  5
306
  8
0
  6
CONTINUOUS
 62
     7
 10
7.6781207932
 20
2.0286513533
 30
0.0
 40
0.0312499999999987
 50
45.0
 51
225.0
  0
ARC
  5
307
  8
0
  6
CONTINUOUS
 62
     7
 10
7.6781207932
 20
1.8228454018
 30
0.0
 40
0.0312500000000106
 50
134.9999999999
 51
315.0
  0
ARC
  5
308
  8
0
  6
CONTINUOUS
 62
     7
 10
0.4585851406
 20
1.4906010239
 30
0.0
 40
0.0312499999999919
 50
135.0
 51
315.0
  0
ARC
  5
309
  8
0
  6
CONTINUOUS
 62
     7
 10
0.6112413605
 20
1.4906010239
 30
0.0
 40
0.0312499999999981
 50
225.0
 51
45.0
  0
ARC
  5
30A
  8
0
  6
CONTINUOUS
 62
     7
 10
0.6112413605
 20
1.6964068501
 30
0.0
 40
0.0312499999999984
 50
315.0
 51
135.0
  0
ARC
  5
30B
  8
0
  6
CONTINUOUS
 62
     7
 10
0.4585851406
 20
1.6964068501
 30
0.0
 40
0.031249999999992
 50
45.0
 51
225.0
  0
ARC
  5
30C
  8
0
  6
CONTINUOUS
 62
     7
 10
9.8204225981
 20
0.6112413605
 30
0.0
 40
0.0312499999999918
 50
315.0
 51
135.0
  0
ARC
  5
30D
  8
0
  6
CONTINUOUS
 62
     7
 10
9.614616772
 20
0.6112413605
 30
0.0
 40
0.0312500000000292
 50
45.0
 51
225.0
  0
ARC
  5
30E
  8
0
  6
CONTINUOUS
 62
     7
 10
9.614616772
 20
0.4585851406
 30
0.0
 40
0.0312500000000239
 50
135.0
 51
315.0
  0
ARC
  5
30F
  8
0
  6
CONTINUOUS
 62
     7
 10
9.8204225981
 20
0.4585851406
 30
0.0
 40
0.0312499999999982
 50
225.0
 51
45.0
  0
ARC
  5
310
  8
0
  6
CONTINUOUS
 62
     7
 10
10.6997822615
 20
1.4906010239
 30
0.0
 40
0.031250000000012
 50
134.9999999999
 51
315.0
  0
ARC
  5
311
  8
0
  6
CONTINUOUS
 62
     7
 10
10.8524384814
 20
1.4906010239
 30
0.0
 40
0.0312499999999864
 50
224.9999999999
 51
44.9999999999
  0
ARC
  5
312
  8
0
  6
CONTINUOUS
 62
     7
 10
10.8524384814
 20
1.6964068501
 30
0.0
 40
0.0312499999999868
 50
315.0000000001
 51
135.0000000001
  0
ARC
  5
313
  8
0
  6
CONTINUOUS
 62
     7
 10
10.6997822615
 20
1.6964068501
 30
0.0
 40
0.0312500000000057
 50
45.0
 51
225.0
  0
ARC
  5
314
  8
0
  6
CONTINUOUS
 62
     7
 10
1.6964068501
 20
0.4585851406
 30
0.0
 40
0.0312499999999983
 50
225.0
 51
45.0
  0
ARC
  5
315
  8
0
  6
CONTINUOUS
 62
     7
 10
1.6964068501
 20
0.6112413605
 30
0.0
 40
0.0312499999999795
 50
315.0
 51
135.0
  0
ARC
  5
316
  8
0
  6
CONTINUOUS
 62
     7
 10
1.4906010239
 20
0.6112413605
 30
0.0
 40
0.031249999999998
 50
45.0
 51
225.0
  0
ARC
  5
317
  8
0
  6
CONTINUOUS
 62
     7
 10
1.4906010239
 20
0.4585851406
 30
0.0
 40
0.0312500000000042
 50
135.0
 51
315.0
  0
ARC
  5
318
  8
0
  6
CONTINUOUS
 62
     7
 10
3.4281207162
 20
9.2823722688
 30
0.0
 40
0.0312499999999984
 50
134.9999999352
 51
314.9999999352
  0
ARC
  5
319
  8
0
  6
CONTINUOUS
 62
     7
 10
3.6339265211
 20
9.2823722688
 30
0.0
 40
0.03125000000001
 50
225.0000000648
 51
45.0000000648
  0
ARC
  5
31A
  8
0
  6
CONTINUOUS
 62
     7
 10
3.6339265211
 20
9.4881782202
 30
0.0
 40
0.0312500000000109
 50
314.9999999352
 51
134.9999999352
  0
ARC
  5
31B
  8
0
  6
CONTINUOUS
 62
     7
 10
3.4281207162
 20
9.4881782202
 30
0.0
 40
0.0312499999999981
 50
45.0000000649
 51
225.0000000648
  0
ARC
  5
31C
  8
0
  6
CONTINUOUS
 62
     7
 10
7.6781207932
 20
9.2823722688
 30
0.0
 40
0.0312500000000002
 50
135.0
 51
315.0
  0
ARC
  5
31D
  8
0
  6
CONTINUOUS
 62
     7
 10
7.883926598
 20
9.2823722688
 30
0.0
 40
0.0312499999999977
 50
225.0
 51
45.0
  0
ARC
  5
31E
  8
0
  6
CONTINUOUS
 62
     7
 10
7.883926598
 20
9.4881782203
 30
0.0
 40
0.0312500000000166
 50
315.0
 51
135.0
  0
ARC
  5
31F
  8
0
  6
CONTINUOUS
 62
     7
 10
7.6781207932
 20
9.4881782203
 30
0.0
 40
0.0312500000000109
 50
45.0000000001
 51
225.0000000001
  0
ARC
  5
320
  8
0
  6
CONTINUOUS
 62
     7
 10
0.6112413605
 20
9.614616772
 30
0.0
 40
0.0312499999999986
 50
225.0
 51
45.0
  0
ARC
  5
321
  8
0
  6
CONTINUOUS
 62
     7
 10
0.6112413605
 20
9.8204225981
 30
0.0
 40
0.0312499999999985
 50
315.0
 51
135.0
  0
ARC
  5
322
  8
0
  6
CONTINUOUS
 62
     7
 10
0.4585851406
 20
9.8204225981
 30
0.0
 40
0.0312499999999993
 50
45.0
 51
225.0000000001
  0
ARC
  5
323
  8
0
  6
CONTINUOUS
 62
     7
 10
0.4585851406
 20
9.614616772
 30
0.0
 40
0.0312499999999922
 50
135.0
 51
315.0
  0
ARC
  5
324
  8
0
  6
CONTINUOUS
 62
     7
 10
9.614616772
 20
10.8524384814
 30
0.0
 40
0.0312500000000204
 50
45.0
 51
225.0
  0
ARC
  5
325
  8
0
  6
CONTINUOUS
 62
     7
 10
9.614616772
 20
10.6997822615
 30
0.0
 40
0.0312500000000141
 50
135.0
 51
315.0
  0
ARC
  5
326
  8
0
  6
CONTINUOUS
 62
     7
 10
9.8204225981
 20
10.6997822615
 30
0.0
 40
0.0312499999999889
 50
225.0
 51
45.0
  0
ARC
  5
327
  8
0
  6
CONTINUOUS
 62
     7
 10
9.8204225981
 20
10.8524384814
 30
0.0
 40
0.031249999999999
 50
315.0
 51
134.9999999999
  0
ARC
  5
328
  8
0
  6
CONTINUOUS
 62
     7
 10
10.8524384814
 20
9.614616772
 30
0.0
 40
0.031249999999999
 50
225.0
 51
45.0
  0
ARC
  5
329
  8
0
  6
CONTINUOUS
 62
     7
 10
10.8524384814
 20
9.8204225981
 30
0.0
 40
0.0312500000000002
 50
315.0
 51
135.0
  0
ARC
  5
32A
  8
0
  6
CONTINUOUS
 62
     7
 10
10.6997822615
 20
9.8204225981
 30
0.0
 40
0.0312500000000241
 50
45.0000000001
 51
225.0000000001
  0
ARC
  5
32B
  8
0
  6
CONTINUOUS
 62
     7
 10
10.6997822615
 20
9.614616772
 30
0.0
 40
0.0312500000000116
 50
134.9999999999
 51
315.0
  0
ARC
  5
32C
  8
0
  6
CONTINUOUS
 62
     7
 10
4.0830561172
 20
10.3400701769
 30
0.0
 40
0.1181102599334846
 50
225.0027219099
 51
290.2796581595
  0
ARC
  5
32D
  8
0
  6
CONTINUOUS
 62
     7
 10
3.8172200368
 20
10.2718306408
 30
0.0
 40
0.118110236153004
 50
44.9999831798
 51
225.0027219083
  0
ARC
  5
32E
  8
0
  6
CONTINUOUS
 62
     7
 10
3.7359550155
 20
10.019037582
 30
0.0
 40
0.1181102593226268
 50
335.2516011511
 51
45.0027219083
  0
ARC
  5
32F
  8
0
  6
CONTINUOUS
 62
     7
 10
4.297294831
 20
9.7602753279
 30
0.0
 40
0.4999999999999748
 50
155.2515933401
 51
294.7538504796
  0
ARC
  5
330
  8
0
  6
CONTINUOUS
 62
     7
 10
4.5561104183
 20
9.1989601005
 30
0.0
 40
0.1181102593226033
 50
45.0027219134
 51
114.7538426686
  0
ARC
  5
331
  8
0
  6
CONTINUOUS
 62
     7
 10
4.7617196146
 20
9.3274207979
 30
0.0
 40
0.1181102361538537
 50
224.9999999945
 51
45.0027219125
  0
ARC
  5
332
  8
0
  6
CONTINUOUS
 62
     7
 10
4.8771100053
 20
9.5460916968
 30
0.0
 40
0.1181102362204204
 50
159.7257782926
 51
225.0027219125
  0
ARC
  5
333
  8
0
  6
CONTINUOUS
 62
     7
 10
4.297294831
 20
9.7602753279
 30
0.0
 40
0.5000000000000028
 50
339.7257782927
 51
110.2796655271
  0
ARC
  5
334
  8
0
  6
CONTINUOUS
 62
     7
 10
1.3465264089
 20
2.0464832795
 30
0.0
 40
0.1181102836464937
 50
314.7407359831
 51
20.0176648652
  0
ARC
  5
335
  8
0
  6
CONTINUOUS
 62
     7
 10
1.4135497234
 20
1.7803379466
 30
0.0
 40
0.118110236152991
 50
134.737997253
 51
314.7407359815
  0
ARC
  5
336
  8
0
  6
CONTINUOUS
 62
     7
 10
1.6659685599
 20
1.6979178506
 30
0.0
 40
0.1181102824247947
 50
64.9896230353
 51
134.7407359815
  0
ARC
  5
337
  8
0
  6
CONTINUOUS
 62
     7
 10
1.927294831
 20
2.258068635
 30
0.0
 40
0.500000000000016
 50
244.9896074133
 51
24.4918645528
  0
ARC
  5
338
  8
0
  6
CONTINUOUS
 62
     7
 10
2.489787625
 20
2.5143149021
 30
0.0
 40
0.1181102593225356
 50
134.7407359865
 51
204.4918567419
  0
ARC
  5
339
  8
0
  6
CONTINUOUS
 62
     7
 10
2.3622684188
 20
2.7205093356
 30
0.0
 40
0.1181102361538303
 50
314.7380140677
 51
134.7407359857
  0
ARC
  5
33A
  8
0
  6
CONTINUOUS
 62
     7
 10
2.1441274286
 20
2.836898393
 30
0.0
 40
0.1181102362205407
 50
249.4637923659
 51
314.7407359857
  0
ARC
  5
33B
  8
0
  6
CONTINUOUS
 62
     7
 10
1.927294831
 20
2.258068635
 30
0.0
 40
0.5000000000000002
 50
69.4637923658
 51
200.0176796003
  0
ARC
  5
33C
  8
0
  6
CONTINUOUS
 62
     7
 10
6.9752623559
 20
0.4682725211
 30
0.0
 40
0.1181102599334945
 50
45.0027219099
 51
110.2796581595
  0
ARC
  5
33D
  8
0
  6
CONTINUOUS
 62
     7
 10
7.2410984363
 20
0.5365120571
 30
0.0
 40
0.1181102361530025
 50
224.9999831798
 51
45.0027219083
  0
ARC
  5
33E
  8
0
  6
CONTINUOUS
 62
     7
 10
7.3223634299
 20
0.789305111
 30
0.0
 40
0.1181102362205118
 50
155.2515933401
 51
225.0027219083
  0
ARC
  5
33F
  8
0
  6
CONTINUOUS
 62
     7
 10
6.761023642
 20
1.0480673701
 30
0.0
 40
0.499999999999979
 50
335.2515933401
 51
114.7538504796
  0
ARC
  5
340
  8
0
  6
CONTINUOUS
 62
     7
 10
6.5022080498
 20
1.6093825697
 30
0.0
 40
0.1181102362204671
 50
225.0027219133
 51
294.7538504796
  0
ARC
  5
341
  8
0
  6
CONTINUOUS
 62
     7
 10
6.2965988585
 20
1.4809219
 30
0.0
 40
0.1181102361538262
 50
44.9999999945
 51
225.0027219125
  0
ARC
  5
342
  8
0
  6
CONTINUOUS
 62
     7
 10
6.1812084678
 20
1.2622510011
 30
0.0
 40
0.1181102362205069
 50
339.7257782927
 51
45.0027219125
  0
ARC
  5
343
  8
0
  6
CONTINUOUS
 62
     7
 10
6.761023642
 20
1.0480673701
 30
0.0
 40
0.5000000000000182
 50
159.7257782927
 51
290.2796655271
  0
ARC
  5
344
  8
0
  6
CONTINUOUS
 62
     7
 10
2.4182880368
 20
5.2550106409
 30
0.0
 40
0.1134350393700956
 50
180.0
 51
270.0
  0
ARC
  5
345
  8
0
  6
CONTINUOUS
 62
     7
 10
2.4507683517
 20
5.2550106409
 30
0.0
 40
0.1134350393700778
 50
270.0
 51
0.0
  0
ARC
  5
346
  8
0
  6
CONTINUOUS
 62
     7
 10
2.4507683517
 20
5.8550106409
 30
0.0
 40
0.1134350393700436
 50
360.0
 51
90.0
  0
ARC
  5
347
  8
0
  6
CONTINUOUS
 62
     7
 10
2.4182880368
 20
5.8550106409
 30
0.0
 40
0.1134350393700858
 50
90.0
 51
180.0
  0
ARC
  5
348
  8
0
  6
CONTINUOUS
 62
     7
 10
1.3281305729
 20
5.2550106574
 30
0.0
 40
0.1134350558596049
 50
180.0000096593
 51
270.0
  0
ARC
  5
349
  8
0
  6
CONTINUOUS
 62
     7
 10
1.3606108714
 20
5.2550106409
 30
0.0
 40
0.1134350393700636
 50
270.0
 51
0.0
  0
ARC
  5
34A
  8
0
  6
CONTINUOUS
 62
     7
 10
1.3606108714
 20
5.8550106409
 30
0.0
 40
0.1134350393700494
 50
360.0
 51
90.0
  0
ARC
  5
34B
  8
0
  6
CONTINUOUS
 62
     7
 10
1.3281305565
 20
5.8550106409
 30
0.0
 40
0.113435039370068
 50
90.0
 51
180.0
  0
ARC
  5
34C
  8
0
  6
CONTINUOUS
 62
     7
 10
1.3136373554
 20
10.7427044617
 30
0.0
 40
0.0624999999999984
 50
90.000004244
 51
270.0
  0
ARC
  5
34D
  8
0
  6
CONTINUOUS
 62
     7
 10
1.4906010239
 20
10.6997822615
 30
0.0
 40
0.0312499999999985
 50
135.0
 51
315.0
  0
ARC
  5
34E
  8
0
  6
CONTINUOUS
 62
     7
 10
1.6964068501
 20
10.6997822615
 30
0.0
 40
0.0312499999999866
 50
225.0
 51
45.0
  0
ARC
  5
34F
  8
0
  6
CONTINUOUS
 62
     7
 10
2.0707869501
 20
10.7427044617
 30
0.0
 40
0.0624999999999983
 50
269.999997878
 51
89.999997878
  0
ARC
  5
350
  8
0
  6
CONTINUOUS
 62
     7
 10
1.6964068501
 20
10.8524384814
 30
0.0
 40
0.0312500000000084
 50
315.0
 51
135.0000000001
  0
ARC
  5
351
  8
0
  6
CONTINUOUS
 62
     7
 10
1.4906010239
 20
10.8524384814
 30
0.0
 40
0.0312500000000084
 50
45.0
 51
225.0
  0
ARC
  5
352
  8
0
  6
CONTINUOUS
 62
     7
 10
5.228188326
 20
1.1942832019
 30
0.0
 40
0.0821850393700887
 50
90.0
 51
180.0
  0
ARC
  5
353
  8
0
  6
CONTINUOUS
 62
     7
 10
5.228188326
 20
1.1618028869
 30
0.0
 40
0.0821850393700325
 50
180.0
 51
270.0
  0
ARC
  5
354
  8
0
  6
CONTINUOUS
 62
     7
 10
5.5508250061
 20
1.1618028869
 30
0.0
 40
0.0821850393701213
 50
270.0
 51
360.0
  0
ARC
  5
355
  8
0
  6
CONTINUOUS
 62
     7
 10
5.5508250061
 20
1.1942832019
 30
0.0
 40
0.0821850393700272
 50
360.0
 51
90.0
  0
ARC
  5
356
  8
0
  6
CONTINUOUS
 62
     7
 10
10.0955979807
 20
10.6429839893
 30
0.0
 40
0.1134350393701116
 50
90.0
 51
180.0
  0
ARC
  5
357
  8
0
  6
CONTINUOUS
 62
     7
 10
10.0955979807
 20
8.5105036743
 30
0.0
 40
0.1134350393700778
 50
180.0
 51
270.0
  0
ARC
  5
358
  8
0
  6
CONTINUOUS
 62
     7
 10
10.1280782956
 20
8.5105036743
 30
0.0
 40
0.1134350393700814
 50
270.0
 51
360.0
  0
ARC
  5
359
  8
0
  6
CONTINUOUS
 62
     7
 10
10.1280782956
 20
10.6429839893
 30
0.0
 40
0.113435039370076
 50
360.0
 51
90.0
  0
ARC
  5
35A
  8
0
  6
CONTINUOUS
 62
     7
 10
7.3266806578
 20
10.8145141099
 30
0.0
 40
0.1134350393700849
 50
270.0
 51
0.0
  0
ARC
  5
35B
  8
0
  6
CONTINUOUS
 62
     7
 10
7.3266806578
 20
10.8469944249
 30
0.0
 40
0.1134350393700707
 50
0.0
 51
90.0
  0
ARC
  5
35C
  8
0
  6
CONTINUOUS
 62
     7
 10
6.1669956184
 20
10.8469944249
 30
0.0
 40
0.1134350393700965
 50
90.0
 51
180.0
  0
ARC
  5
35D
  8
0
  6
CONTINUOUS
 62
     7
 10
6.1669956184
 20
10.8145141099
 30
0.0
 40
0.1134350393700441
 50
180.0
 51
270.0
  0
ARC
  5
35E
  8
0
  6
CONTINUOUS
 62
     7
 10
5.9334798704
 20
9.7125097541
 30
0.0
 40
0.1134350393700334
 50
360.0
 51
90.0
  0
ARC
  5
35F
  8
0
  6
CONTINUOUS
 62
     7
 10
5.9009995719
 20
9.7125097376
 30
0.0
 40
0.1134350558595951
 50
90.0000096593
 51
180.0
  0
ARC
  5
360
  8
0
  6
CONTINUOUS
 62
     7
 10
3.287913454
 20
8.7665744986
 30
0.0
 40
0.4249508355989415
 50
90.0000142122
 51
180.0
  0
ARC
  5
361
  8
0
  6
CONTINUOUS
 62
     7
 10
3.2879134067
 20
2.5461021256
 30
0.0
 40
0.4249507882964423
 50
180.0000001207
 51
270.0
  0
ARC
  5
362
  8
0
  6
CONTINUOUS
 62
     7
 10
8.2091732483
 20
2.3492517185
 30
0.0
 40
0.2281003811888551
 50
269.99999999
 51
0.0
  0
ARC
  5
363
  8
0
  6
CONTINUOUS
 62
     7
 10
8.2091731838
 20
8.9634248885
 30
0.0
 40
0.2281004456610625
 50
0.0000291638
 51
89.9999984237
  0
ARC
  5
364
  8
0
  6
CONTINUOUS
 62
     7
 10
8.2280782781
 20
10.6429839873
 30
0.0
 40
0.1134350393700743
 50
360.0
 51
90.0
  0
ARC
  5
365
  8
0
  6
CONTINUOUS
 62
     7
 10
8.1955979631
 20
10.6429839873
 30
0.0
 40
0.1134350393700565
 50
90.0
 51
180.0
  0
ARC
  5
366
  8
0
  6
CONTINUOUS
 62
     7
 10
9.6332397129
 20
7.5370430375
 30
0.0
 40
0.0624999999999983
 50
359.999997878
 51
179.999997878
  0
ARC
  5
367
  8
0
  6
CONTINUOUS
 62
     7
 10
9.6332397129
 20
3.937043049
 30
0.0
 40
0.0624999999999984
 50
180.000004244
 51
360.0
  0
ARC
  5
368
  8
0
  6
CONTINUOUS
 62
     7
 10
8.9332397129
 20
7.5370430375
 30
0.0
 40
0.0624999999999983
 50
359.999997878
 51
179.999997878
  0
ARC
  5
369
  8
0
  6
CONTINUOUS
 62
     7
 10
8.9332397129
 20
3.937043049
 30
0.0
 40
0.0624999999999984
 50
180.000004244
 51
0.0
  0
ARC
  5
36A
  8
0
  6
CONTINUOUS
 62
     7
 10
8.6332397129
 20
7.5370430375
 30
0.0
 40
0.0624999999999983
 50
359.999997878
 51
179.999997878
  0
ARC
  5
36B
  8
0
  6
CONTINUOUS
 62
     7
 10
8.6332397129
 20
3.937043049
 30
0.0
 40
0.0624999999999984
 50
180.000004244
 51
360.0
  0
ARC
  5
36C
  8
0
  6
CONTINUOUS
 62
     7
 10
3.0299404674
 20
10.6352044947
 30
0.0
 40
0.113435072349128
 50
270.0000193187
 51
0.0
  0
ARC
  5
36D
  8
0
  6
CONTINUOUS
 62
     7
 10
3.0299405003
 20
10.6676847767
 30
0.0
 40
0.1134350393701009
 50
0.0
 51
90.0
  0
ARC
  5
36E
  8
0
  6
CONTINUOUS
 62
     7
 10
2.4299405003
 20
10.6676847767
 30
0.0
 40
0.1134350393700458
 50
90.0
 51
180.0
  0
ARC
  5
36F
  8
0
  6
CONTINUOUS
 62
     7
 10
2.4299405003
 20
10.6352044617
 30
0.0
 40
0.1134350393700672
 50
180.0
 51
270.0
  0
ARC
  5
370
  8
0
  6
CONTINUOUS
 62
     7
 10
0.3609995555
 20
1.9380618072
 30
0.0
 40
0.1134350393705415
 50
256.262534374
 51
270.0
  0
ARC
  5
371
  8
0
  6
CONTINUOUS
 62
     7
 10
0.3934798704
 20
1.9380618072
 30
0.0
 40
0.1134350393700763
 50
270.0
 51
0.0
  0
ARC
  5
372
  8
0
  6
CONTINUOUS
 62
     7
 10
0.3934798704
 20
2.3014052376
 30
0.0
 40
0.1134350393701508
 50
0.0
 51
90.0
  0
ARC
  5
373
  8
0
  6
CONTINUOUS
 62
     7
 10
0.3609995555
 20
2.3014052376
 30
0.0
 40
0.1134350393692052
 50
89.9999999999
 51
103.737465626
  0
ARC
  5
374
  8
0
  6
CONTINUOUS
 62
     7
 10
0.3094646652
 20
9.6954225981
 30
0.0
 40
0.0312500000000105
 50
321.9159517893
 51
38.0840482107
  0
ARC
  5
375
  8
0
  6
CONTINUOUS
 62
     7
 10
0.228658839
 20
9.6954225981
 30
0.0
 40
0.031249999999999
 50
141.9159517893
 51
218.0840482107
  0
ARC
  5
376
  8
0
  6
CONTINUOUS
 62
     7
 10
0.228658839
 20
1.6156010239
 30
0.0
 40
0.0312499999999932
 50
141.9159517896
 51
218.0840482104
  0
ARC
  5
377
  8
0
  6
CONTINUOUS
 62
     7
 10
0.3094646652
 20
1.6156010239
 30
0.0
 40
0.0312500000000104
 50
225.0
 51
316.3122591935
  0
ARC
  5
378
  8
0
  6
CONTINUOUS
 62
     7
 10
7.883926598
 20
0.4786510457
 30
0.0
 40
0.0312500000000047
 50
315.0
 51
135.0
  0
ARC
  5
379
  8
0
  6
CONTINUOUS
 62
     7
 10
7.6781207932
 20
0.4786510457
 30
0.0
 40
0.0312500000000109
 50
45.0000000001
 51
225.0000000001
  0
ARC
  5
37A
  8
0
  6
CONTINUOUS
 62
     7
 10
5.3208249864
 20
0.3918028955
 30
0.0
 40
0.1134350590384186
 50
329.4011734279
 51
0.0
  0
ARC
  5
37B
  8
0
  6
CONTINUOUS
 62
     7
 10
5.3208250061
 20
0.4242832019
 30
0.0
 40
0.113435039370068
 50
360.0
 51
90.0
  0
ARC
  5
37C
  8
0
  6
CONTINUOUS
 62
     7
 10
4.1501731995
 20
0.4242832019
 30
0.0
 40
0.1134350393700938
 50
90.0
 51
180.0
  0
ARC
  5
37D
  8
0
  6
CONTINUOUS
 62
     7
 10
4.1501731995
 20
0.3918028869
 30
0.0
 40
0.1134350393713621
 50
179.9999999991
 51
210.598827412
  0
ARC
  5
37E
  8
0
  6
CONTINUOUS
 62
     7
 10
3.6339265211
 20
0.4786510456
 30
0.0
 40
0.0312500000000043
 50
314.9999998703
 51
134.9999998703
  0
ARC
  5
37F
  8
0
  6
CONTINUOUS
 62
     7
 10
3.4281207163
 20
0.4786510457
 30
0.0
 40
0.0312500000000106
 50
45.0000000001
 51
225.0000000001
  0
ARC
  5
380
  8
0
  6
CONTINUOUS
 62
     7
 10
1.6156010239
 20
0.3094646652
 30
0.0
 40
0.0312499999999798
 50
51.9159517889
 51
128.0840482111
  0
ARC
  5
381
  8
0
  6
CONTINUOUS
 62
     7
 10
1.6156010239
 20
0.228658839
 30
0.0
 40
0.0312499999999788
 50
231.9159517897
 51
308.0840482103
  0
ARC
  5
382
  8
0
  6
CONTINUOUS
 62
     7
 10
9.6954225981
 20
0.228658839
 30
0.0
 40
0.031250000000001
 50
231.9159517899
 51
308.0840482101
  0
ARC
  5
383
  8
0
  6
CONTINUOUS
 62
     7
 10
9.6954225981
 20
0.3094646652
 30
0.0
 40
0.0312499999999914
 50
315.0
 51
46.3122591934
  0
ARC
  5
384
  8
0
  6
CONTINUOUS
 62
     7
 10
11.0015589568
 20
1.6156010239
 30
0.0
 40
0.0312499999999961
 50
141.9159517888
 51
218.0840482112
  0
ARC
  5
385
  8
0
  6
CONTINUOUS
 62
     7
 10
11.082364783
 20
1.6156010239
 30
0.0
 40
0.0312500000000146
 50
321.9159517897
 51
38.0840482103
  0
ARC
  5
386
  8
0
  6
CONTINUOUS
 62
     7
 10
11.082364783
 20
9.6954225981
 30
0.0
 40
0.0312500000000078
 50
321.9159517898
 51
38.0840482102
  0
ARC
  5
387
  8
0
  6
CONTINUOUS
 62
     7
 10
11.0015589568
 20
9.6954225981
 30
0.0
 40
0.031250000000002
 50
45.0
 51
136.3122591938
  0
ARC
  5
388
  8
0
  6
CONTINUOUS
 62
     7
 10
3.4281207163
 20
10.8323725764
 30
0.0
 40
0.0312499999999959
 50
135.0
 51
314.9999999999
  0
ARC
  5
389
  8
0
  6
CONTINUOUS
 62
     7
 10
3.6339265211
 20
10.8323725764
 30
0.0
 40
0.0312500000000122
 50
225.0000001296
 51
45.0000001297
  0
ARC
  5
38A
  8
0
  6
CONTINUOUS
 62
     7
 10
7.6781207932
 20
10.8323725764
 30
0.0
 40
0.031250000000004
 50
135.0
 51
315.0
  0
ARC
  5
38B
  8
0
  6
CONTINUOUS
 62
     7
 10
7.883926598
 20
10.8323725764
 30
0.0
 40
0.0312500000000065
 50
225.0
 51
45.0
  0
ARC
  5
38C
  8
0
  6
CONTINUOUS
 62
     7
 10
9.6954225981
 20
11.0015589568
 30
0.0
 40
0.0312499999999969
 50
231.9159517893
 51
308.0840482107
  0
ARC
  5
38D
  8
0
  6
CONTINUOUS
 62
     7
 10
9.6954225981
 20
11.082364783
 30
0.0
 40
0.0312499999999885
 50
51.9159517893
 51
128.0840482107
  0
ARC
  5
38E
  8
0
  6
CONTINUOUS
 62
     7
 10
1.6156010239
 20
11.0015589568
 30
0.0
 40
0.0312499999999808
 50
135.0
 51
226.3122591937
  0
ARC
  5
38F
  8
0
  6
CONTINUOUS
 62
     7
 10
1.6156010239
 20
11.082364783
 30
0.0
 40
0.0312499999999763
 50
51.9159517893
 51
128.0840482107
  0
ARC
  5
390
  8
0
  6
CONTINUOUS
 62
     7
 10
9.614616772
 20
11.333120709
 30
0.0
 40
0.031249999999994
 50
135.0
 51
315.0
  0
ARC
  5
391
  8
0
  6
CONTINUOUS
 62
     7
 10
9.1767218107
 20
11.333120709
 30
0.0
 40
0.0312500000000417
 50
225.0
 51
45.0
  0
ARC
  5
392
  8
0
  6
CONTINUOUS
 62
     7
 10
5.8739540792
 20
11.3336038087
 30
0.0
 40
0.0312421810227538
 50
133.7182697045
 51
313.7182697045
  0
ARC
  5
393
  8
0
  6
CONTINUOUS
 62
     7
 10
5.4370695428
 20
11.3336038087
 30
0.0
 40
0.0312421810227256
 50
226.2817302955
 51
46.2817302955
  0
ARC
  5
394
  8
0
  6
CONTINUOUS
 62
     7
 10
2.1337965989
 20
11.3336038087
 30
0.0
 40
0.031242181022747
 50
133.7182697045
 51
313.7182697044
  0
ARC
  5
395
  8
0
  6
CONTINUOUS
 62
     7
 10
1.6969120625
 20
11.3336038087
 30
0.0
 40
0.0312421810227628
 50
226.2817302955
 51
46.2817302955
  0
ARC
  5
396
  8
0
  6
CONTINUOUS
 62
     7
 10
-0.0220970869
 20
9.614616772
 30
0.0
 40
0.0312499999999915
 50
225.0000000001
 51
45.0000000001
  0
ARC
  5
397
  8
0
  6
CONTINUOUS
 62
     7
 10
-0.0229853339
 20
9.1757556112
 30
0.0
 40
0.0312224274492475
 50
317.4070384571
 51
137.4070384571
  0
ARC
  5
398
  8
0
  6
CONTINUOUS
 62
     7
 10
-0.0220970869
 20
5.8744592916
 30
0.0
 40
0.0312499999999991
 50
225.0
 51
45.0
  0
ARC
  5
399
  8
0
  6
CONTINUOUS
 62
     7
 10
-0.0220970869
 20
5.4365643304
 30
0.0
 40
0.031249999999968
 50
315.0000000001
 51
135.0000000001
  0
ARC
  5
39A
  8
0
  6
CONTINUOUS
 62
     7
 10
-0.0220970869
 20
2.1343018113
 30
0.0
 40
0.0312499999999981
 50
225.0000000001
 51
45.0000000001
  0
ARC
  5
39B
  8
0
  6
CONTINUOUS
 62
     7
 10
-0.0220970869
 20
1.6964068501
 30
0.0
 40
0.0312499999999674
 50
314.9999999999
 51
134.9999999999
  0
ARC
  5
39C
  8
0
  6
CONTINUOUS
 62
     7
 10
1.6969120625
 20
-0.0225801867
 30
0.0
 40
0.0312421810227491
 50
313.7182697045
 51
133.7182697046
  0
ARC
  5
39D
  8
0
  6
CONTINUOUS
 62
     7
 10
2.1337965989
 20
-0.0225801867
 30
0.0
 40
0.0312421810227309
 50
46.2817302955
 51
226.2817302955
  0
ARC
  5
39E
  8
0
  6
CONTINUOUS
 62
     7
 10
5.4370695428
 20
-0.0225801867
 30
0.0
 40
0.0312421810227178
 50
313.7182697046
 51
133.7182697046
  0
ARC
  5
39F
  8
0
  6
CONTINUOUS
 62
     7
 10
5.8739540792
 20
-0.0225801867
 30
0.0
 40
0.031242181022718
 50
46.2817302954
 51
226.2817302954
  0
ARC
  5
3A0
  8
0
  6
CONTINUOUS
 62
     7
 10
9.1767218107
 20
-0.0220970869
 30
0.0
 40
0.0312499999999922
 50
315.0000000001
 51
135.0000000001
  0
ARC
  5
3A1
  8
0
  6
CONTINUOUS
 62
     7
 10
9.614616772
 20
-0.0220970869
 30
0.0
 40
0.0312500000000416
 50
45.0
 51
225.0
  0
ARC
  5
3A2
  8
0
  6
CONTINUOUS
 62
     7
 10
11.333120709
 20
1.6964068501
 30
0.0
 40
0.0312499999999918
 50
45.0000000001
 51
225.0000000001
  0
ARC
  5
3A3
  8
0
  6
CONTINUOUS
 62
     7
 10
11.333120709
 20
2.1343018113
 30
0.0
 40
0.0312499999999861
 50
134.9999999999
 51
314.9999999999
  0
ARC
  5
3A4
  8
0
  6
CONTINUOUS
 62
     7
 10
11.333120709
 20
5.4365643304
 30
0.0
 40
0.0312500000000046
 50
45.0
 51
225.0
  0
ARC
  5
3A5
  8
0
  6
CONTINUOUS
 62
     7
 10
11.333120709
 20
5.8744592916
 30
0.0
 40
0.0312499999999984
 50
135.0
 51
315.0
  0
ARC
  5
3A6
  8
0
  6
CONTINUOUS
 62
     7
 10
11.333120709
 20
9.1767218107
 30
0.0
 40
0.031249999999999
 50
45.0000000001
 51
225.0000000001
  0
ARC
  5
3A7
  8
0
  6
CONTINUOUS
 62
     7
 10
11.333120709
 20
9.614616772
 30
0.0
 40
0.0312500000000116
 50
134.9999999999
 51
314.9999999999
  0
ARC
  5
3A8
  8
0
  6
CONTINUOUS
 62
     7
 10
9.6954225981
 20
11.082364783
 30
0.0
 40
0.031249999999994
 50
315.0
 51
45.0
  0
ARC
  5
3A9
  8
0
  6
CONTINUOUS
 62
     7
 10
1.6156010239
 20
11.082364783
 30
0.0
 40
0.0312499999999873
 50
133.6877408063
 51
225.0
  0
ARC
  5
3AA
  8
0
  6
CONTINUOUS
 62
     7
 10
1.6156010239
 20
11.0015589568
 30
0.0
 40
0.0312499999999817
 50
231.9159517894
 51
308.0840482106
  0
ARC
  5
3AB
  8
0
  6
CONTINUOUS
 62
     7
 10
9.6954225981
 20
11.0015589568
 30
0.0
 40
0.0312499999999915
 50
315.0
 51
45.0
  0
ARC
  5
3AC
  8
0
  6
CONTINUOUS
 62
     7
 10
1.6156010239
 20
0.3094646652
 30
0.0
 40
0.0312499999999795
 50
134.9999999998
 51
225.0
  0
ARC
  5
3AD
  8
0
  6
CONTINUOUS
 62
     7
 10
1.6156010239
 20
0.228658839
 30
0.0
 40
0.0312499999999793
 50
135.0
 51
225.0000000002
  0
ARC
  5
3AE
  8
0
  6
CONTINUOUS
 62
     7
 10
9.6954225981
 20
0.228658839
 30
0.0
 40
0.0312499999999974
 50
313.6877408066
 51
45.0
  0
ARC
  5
3AF
  8
0
  6
CONTINUOUS
 62
     7
 10
9.6954225981
 20
0.3094646652
 30
0.0
 40
0.0312499999999932
 50
51.9159517887
 51
128.0840482113
  0
ARC
  5
3B0
  8
0
  6
CONTINUOUS
 62
     7
 10
11.082364783
 20
9.6954225981
 30
0.0
 40
0.0312500000000136
 50
43.6877408062
 51
135.0
  0
ARC
  5
3B1
  8
0
  6
CONTINUOUS
 62
     7
 10
11.0015589568
 20
9.6954225981
 30
0.0
 40
0.0312500000000022
 50
141.9159517887
 51
218.0840482113
  0
ARC
  5
3B2
  8
0
  6
CONTINUOUS
 62
     7
 10
11.0015589568
 20
1.6156010239
 30
0.0
 40
0.0312499999999919
 50
225.0000000001
 51
315.0
  0
ARC
  5
3B3
  8
0
  6
CONTINUOUS
 62
     7
 10
11.082364783
 20
1.6156010239
 30
0.0
 40
0.0312500000000158
 50
225.0
 51
315.0
  0
ARC
  5
3B4
  8
0
  6
CONTINUOUS
 62
     7
 10
0.3094646652
 20
1.6156010239
 30
0.0
 40
0.03125000000001
 50
321.915951789
 51
38.084048211
  0
ARC
  5
3B5
  8
0
  6
CONTINUOUS
 62
     7
 10
0.3094646652
 20
9.6954225981
 30
0.0
 40
0.0312500000000084
 50
44.9999999997
 51
135.0
  0
ARC
  5
3B6
  8
0
  6
CONTINUOUS
 62
     7
 10
0.228658839
 20
9.6954225981
 30
0.0
 40
0.0312499999999963
 50
45.0
 51
135.0000000003
  0
ARC
  5
3B7
  8
0
  6
CONTINUOUS
 62
     7
 10
0.228658839
 20
1.6156010239
 30
0.0
 40
0.0312499999999934
 50
223.6877408065
 51
315.0
  0
ENDSEC
  0
EOF
