  0
SECTION
  2
HEADER
  9
$ACADVER
  1
AC1009
  9
$DWGCODEPAGE
  3
ansi_1252
  9
$INSBASE
 10
0.0
 20
0.0
 30
0.0
  9
$EXTMIN
 10
-11.811023622
 20
-0.3937007874
 30
0.0
  9
$EXTMAX
 10
0.0
 20
1.5748031496
 30
0.0
  9
$LIMMIN
 10
0.0
 20
0.0
  9
$LIMMAX
 10
12.0
 20
9.0
  9
$ORTHOMODE
 70
     0
  9
$REGENMODE
 70
     1
  9
$FILLMODE
 70
     1
  9
$QTEXTMODE
 70
     0
  9
$MIRRTEXT
 70
     1
  9
$DRAGMODE
 70
     2
  9
$LTSCALE
 40
1.0
  9
$OSMODE
 70
    37
  9
$ATTMODE
 70
     1
  9
$TEXTSIZE
 40
0.1377952756
  9
$TRACEWID
 40
0.05
  9
$TEXTSTYLE
  7
STANDARD
  9
$CLAYER
  8
0
  9
$CELTYPE
  6
BYLAYER
  9
$CECOLOR
 62
   256
  9
$DIMSCALE
 40
1.0
  9
$DIMASZ
 40
0.13
  9
$DIMEXO
 40
0.0393700787
  9
$DIMDLI
 40
0.38
  9
$DIMRND
 40
0.0
  9
$DIMDLE
 40
0.0
  9
$DIMEXE
 40
0.0393700787
  9
$DIMTP
 40
0.0
  9
$DIMTM
 40
0.0
  9
$DIMTXT
 40
0.1377952756
  9
$DIMCEN
 40
0.09
  9
$DIMTSZ
 40
0.0
  9
$DIMTOL
 70
     0
  9
$DIMLIM
 70
     0
  9
$DIMTIH
 70
     1
  9
$DIMTOH
 70
     1
  9
$DIMSE1
 70
     0
  9
$DIMSE2
 70
     0
  9
$DIMTAD
 70
     1
  9
$DIMZIN
 70
     1
  9
$DIMBLK
  1

  9
$DIMASO
 70
     1
  9
$DIMSHO
 70
     1
  9
$DIMPOST
  1

  9
$DIMAPOST
  1

  9
$DIMALT
 70
     0
  9
$DIMALTD
 70
     2
  9
$DIMALTF
 40
25.4
  9
$DIMLFAC
 40
1.0
  9
$DIMTOFL
 70
     0
  9
$DIMTVP
 40
0.0
  9
$DIMTIX
 70
     0
  9
$DIMSOXD
 70
     0
  9
$DIMSAH
 70
     0
  9
$DIMBLK1
  1

  9
$DIMBLK2
  1

  9
$DIMSTYLE
  2
STANDARD
  9
$DIMCLRD
 70
     0
  9
$DIMCLRE
 70
     0
  9
$DIMCLRT
 70
     0
  9
$DIMTFAC
 40
1.0
  9
$DIMGAP
 40
0.06
  9
$LUNITS
 70
     2
  9
$LUPREC
 70
     8
  9
$SKETCHINC
 40
0.1
  9
$FILLETRAD
 40
0.5
  9
$AUNITS
 70
     0
  9
$AUPREC
 70
     2
  9
$MENU
  1
.
  9
$ELEVATION
 40
0.0
  9
$PELEVATION
 40
0.0
  9
$THICKNESS
 40
0.0
  9
$LIMCHECK
 70
     0
  9
$CHAMFERA
 40
0.0
  9
$CHAMFERB
 40
0.0
  9
$SKPOLY
 70
     0
  9
$TDCREATE
 40
2458269.414585602
  9
$TDUPDATE
 40
2458269.414627199
  9
$TDINDWG
 40
0.0000000116
  9
$TDUSRTIMER
 40
0.0000000116
  9
$USRTIMER
 70
     1
  9
$ANGBASE
 50
0.0
  9
$ANGDIR
 70
     0
  9
$PDMODE
 70
     0
  9
$PDSIZE
 40
-1.0
  9
$PLINEWID
 40
0.0
  9
$COORDS
 70
     1
  9
$SPLFRAME
 70
     0
  9
$SPLINETYPE
 70
     6
  9
$SPLINESEGS
 70
     8
  9
$ATTDIA
 70
     0
  9
$ATTREQ
 70
     1
  9
$HANDLING
 70
     1
  9
$HANDSEED
  5
14B
  9
$SURFTAB1
 70
     6
  9
$SURFTAB2
 70
     6
  9
$SURFTYPE
 70
     6
  9
$SURFU
 70
     6
  9
$SURFV
 70
     6
  9
$UCSNAME
  2

  9
$UCSORG
 10
0.0
 20
0.0
 30
0.0
  9
$UCSXDIR
 10
1.0
 20
0.0
 30
0.0
  9
$UCSYDIR
 10
0.0
 20
1.0
 30
0.0
  9
$PUCSNAME
  2

  9
$PUCSORG
 10
0.0
 20
0.0
 30
0.0
  9
$PUCSXDIR
 10
1.0
 20
0.0
 30
0.0
  9
$PUCSYDIR
 10
0.0
 20
1.0
 30
0.0
  9
$USERI1
 70
     0
  9
$USERI2
 70
     0
  9
$USERI3
 70
     0
  9
$USERI4
 70
     0
  9
$USERI5
 70
     0
  9
$USERR1
 40
0.0
  9
$USERR2
 40
0.0
  9
$USERR3
 40
0.0
  9
$USERR4
 40
0.0
  9
$USERR5
 40
0.0
  9
$WORLDVIEW
 70
     1
  9
$SHADEDGE
 70
     3
  9
$SHADEDIF
 70
    70
  9
$TILEMODE
 70
     1
  9
$MAXACTVP
 70
    64
  9
$PLIMCHECK
 70
     0
  9
$PEXTMIN
 10
1.0000000000E+20
 20
1.0000000000E+20
 30
1.0000000000E+20
  9
$PEXTMAX
 10
-1.0000000000E+20
 20
-1.0000000000E+20
 30
-1.0000000000E+20
  9
$PLIMMIN
 10
0.0
 20
0.0
  9
$PLIMMAX
 10
12.0
 20
9.0
  9
$UNITMODE
 70
     0
  9
$VISRETAIN
 70
     1
  9
$PLINEGEN
 70
     0
  9
$PSLTSCALE
 70
     1
  0
ENDSEC
  0
SECTION
  2
TABLES
  0
TABLE
  2
VPORT
 70
     1
  0
VPORT
  2
*ACTIVE
 70
     0
 10
0.0
 20
0.0
 11
1.0
 21
1.0
 12
-5.905511811
 22
0.5905511811
 13
0.0
 23
0.0
 14
0.5
 24
0.5
 15
0.5
 25
0.5
 16
0.0
 26
0.0
 36
1.0
 17
0.0
 27
0.0
 37
0.0
 40
2.0078740157
 41
6.0
 42
50.0
 43
0.0
 44
0.0
 50
0.0
 51
0.0
 71
     0
 72
   100
 73
     1
 74
     3
 75
     0
 76
     0
 77
     0
 78
     0
  0
ENDTAB
  0
TABLE
  2
LTYPE
 70
     6
  0
LTYPE
  2
CONTINUOUS
 70
     0
  3
Solid line
 72
    65
 73
     0
 40
0.0
  0
LTYPE
  2
HIDDEN
 70
     0
  3
Hidden __ __ __ __ __ __ __ __ __ __ __ __ __ __
 72
    65
 73
     2
 40
0.075
 49
0.05
 49
-0.025
  0
LTYPE
  2
PHANTOM
 70
     0
  3
Phantom ______  __  __  ______  __  __  ______
 72
    65
 73
     6
 40
0.5
 49
0.25
 49
-0.05
 49
0.05
 49
-0.05
 49
0.05
 49
-0.05
  0
LTYPE
  2
CENTER
 70
     0
  3
Center ____ _ ____ _ ____ _ ____ _ ____ _ ____
 72
    65
 73
     4
 40
0.4
 49
0.25
 49
-0.05
 49
0.05
 49
-0.05
  0
LTYPE
  2
CENTERX2
 70
     0
  3
Center (2x) ________  __  ________  __  _____
 72
    65
 73
     4
 40
0.8
 49
0.5
 49
-0.1
 49
0.1
 49
-0.1
  0
LTYPE
  2
DOT2
 70
     0
  3
Dot (.5x) ........................................
 72
    65
 73
     2
 40
0.025
 49
0.0
 49
-0.025
  0
ENDTAB
  0
TABLE
  2
LAYER
 70
     1
  0
LAYER
  2
0
 70
     0
 62
     7
  6
CONTINUOUS
  0
ENDTAB
  0
TABLE
  2
STYLE
 70
     1
  0
STYLE
  2
STANDARD
 70
     0
 40
0.0
 41
1.0
 50
0.0
 71
     0
 42
0.1377952756
  3
txt
  4

  0
ENDTAB
  0
TABLE
  2
VIEW
 70
     0
  0
ENDTAB
  0
TABLE
  2
UCS
 70
     0
  0
ENDTAB
  0
TABLE
  2
APPID
 70
     1
  0
APPID
  2
ACAD
 70
     0
  0
ENDTAB
  0
TABLE
  2
DIMSTYLE
 70
     1
  0
DIMSTYLE
  2
STANDARD
 70
     0
  3

  4

  5

  6

  7

 40
1.0
 41
0.18
 42
0.0625
 43
0.38
 44
0.18
 45
0.0
 46
0.0
 47
0.0
 48
0.0
140
0.18
141
0.09
142
0.0
143
25.4
144
1.0
145
0.0
146
1.0
147
0.09
 71
     0
 72
     0
 73
     1
 74
     1
 75
     0
 76
     0
 77
     0
 78
     0
170
     0
171
     2
172
     0
173
     0
174
     0
175
     0
176
     0
177
     0
178
     0
  0
ENDTAB
  0
ENDSEC
  0
SECTION
  2
BLOCKS
  0
BLOCK
  8
0
  2
$MODEL_SPACE
 70
     0
 10
0.0
 20
0.0
 30
0.0
  3
$MODEL_SPACE
  1

  0
ENDBLK
  5
21
  8
0
  0
BLOCK
 67
     1
  8
0
  2
$PAPER_SPACE
 70
     0
 10
0.0
 20
0.0
 30
0.0
  3
$PAPER_SPACE
  1

  0
ENDBLK
  5
1D
 67
     1
  8
0
  0
ENDSEC
  0
SECTION
  2
ENTITIES
  0
LINE
  5
DF
  8
0
  6
CONTINUOUS
 62
     7
 10
-8.1560237062
 20
0.8315957486
 30
0.0
 11
-8.1560237062
 21
1.1369081884
 31
0.0
  0
LINE
  5
E0
  8
0
  6
CONTINUOUS
 62
     7
 10
-7.9502178801
 20
0.7874015748
 30
0.0
 11
-8.1118295324
 21
0.7874015748
 31
0.0
  0
LINE
  5
E1
  8
0
  6
CONTINUOUS
 62
     7
 10
-7.9060237062
 20
1.1369081884
 30
0.0
 11
-7.9060237062
 21
0.8315957486
 31
0.0
  0
LINE
  5
E2
  8
0
  6
CONTINUOUS
 62
     7
 10
-8.1118295324
 20
1.1811023622
 30
0.0
 11
-7.9502178801
 21
1.1811023622
 31
0.0
  0
LINE
  5
E3
  8
0
  6
CONTINUOUS
 62
     7
 10
-7.95021788
 20
0.0
 30
0.0
 11
-8.1118295324
 21
0.0
 31
0.0
  0
LINE
  5
E4
  8
0
  6
CONTINUOUS
 62
     7
 10
-7.9060237062
 20
0.3495066136
 30
0.0
 11
-7.9060237062
 21
0.0441941738
 31
0.0
  0
LINE
  5
E5
  8
0
  6
CONTINUOUS
 62
     7
 10
-8.1118295324
 20
0.3937007874
 30
0.0
 11
-7.9502178801
 21
0.3937007874
 31
0.0
  0
LINE
  5
E6
  8
0
  6
CONTINUOUS
 62
     7
 10
-8.1560237062
 20
0.0441941738
 30
0.0
 11
-8.1560237062
 21
0.3495066136
 31
0.0
  0
LINE
  5
E7
  8
0
  6
CONTINUOUS
 62
     7
 10
-11.0236220472
 20
-0.3128949612
 30
0.0
 11
-11.0236220472
 21
-0.3937007874
 31
0.0
  0
LINE
  5
E8
  8
0
  6
CONTINUOUS
 62
     7
 10
-11.0236220472
 20
-0.3937007874
 30
0.0
 11
-11.561023622
 21
-0.3937007874
 31
0.0
  0
LINE
  5
E9
  8
0
  6
CONTINUOUS
 62
     7
 10
-11.561023622
 20
-0.3937007874
 30
0.0
 11
-11.561023622
 21
-0.0441941738
 31
0.0
  0
LINE
  5
EA
  8
0
  6
CONTINUOUS
 62
     7
 10
-11.6052177959
 20
0.0
 30
0.0
 11
-11.811023622
 21
0.0
 31
0.0
  0
LINE
  5
EB
  8
0
  6
CONTINUOUS
 62
     7
 10
-11.811023622
 20
0.0
 30
0.0
 11
-11.811023622
 21
0.3937007874
 31
0.0
  0
LINE
  5
EC
  8
0
  6
CONTINUOUS
 62
     7
 10
-11.811023622
 20
0.3937007874
 30
0.0
 11
-11.6052177959
 21
0.3937007874
 31
0.0
  0
LINE
  5
ED
  8
0
  6
CONTINUOUS
 62
     7
 10
-11.561023622
 20
0.4378949612
 30
0.0
 11
-11.561023622
 21
0.743207401
 31
0.0
  0
LINE
  5
EE
  8
0
  6
CONTINUOUS
 62
     7
 10
-11.6052177959
 20
0.7874015748
 30
0.0
 11
-11.811023622
 21
0.7874015748
 31
0.0
  0
LINE
  5
EF
  8
0
  6
CONTINUOUS
 62
     7
 10
-11.811023622
 20
0.7874015748
 30
0.0
 11
-11.811023622
 21
1.1811023622
 31
0.0
  0
LINE
  5
F0
  8
0
  6
CONTINUOUS
 62
     7
 10
-11.811023622
 20
1.1811023622
 30
0.0
 11
-11.6052177959
 21
1.1811023622
 31
0.0
  0
LINE
  5
F1
  8
0
  6
CONTINUOUS
 62
     7
 10
-11.561023622
 20
1.225296536
 30
0.0
 11
-11.561023622
 21
1.5748031496
 31
0.0
  0
LINE
  5
F2
  8
0
  6
CONTINUOUS
 62
     7
 10
-11.561023622
 20
1.5748031496
 30
0.0
 11
-11.0236220472
 21
1.5748031496
 31
0.0
  0
LINE
  5
F3
  8
0
  6
CONTINUOUS
 62
     7
 10
-11.0236220472
 20
1.5748031496
 30
0.0
 11
-11.0236220472
 21
1.3689973234
 31
0.0
  0
LINE
  5
F4
  8
0
  6
CONTINUOUS
 62
     7
 10
-10.9794278734
 20
1.3248031496
 30
0.0
 11
-10.6741154337
 21
1.3248031496
 31
0.0
  0
LINE
  5
F5
  8
0
  6
CONTINUOUS
 62
     7
 10
-10.6299212598
 20
1.3689973234
 30
0.0
 11
-10.6299212598
 21
1.5748031496
 31
0.0
  0
LINE
  5
F6
  8
0
  6
CONTINUOUS
 62
     7
 10
-10.6299212598
 20
1.5748031496
 30
0.0
 11
-9.842519685
 21
1.5748031496
 31
0.0
  0
LINE
  5
F7
  8
0
  6
CONTINUOUS
 62
     7
 10
-9.842519685
 20
1.5748031496
 30
0.0
 11
-9.842519685
 21
1.3689973234
 31
0.0
  0
LINE
  5
F8
  8
0
  6
CONTINUOUS
 62
     7
 10
-9.7983255112
 20
1.3248031496
 30
0.0
 11
-9.4930130715
 21
1.3248031496
 31
0.0
  0
LINE
  5
F9
  8
0
  6
CONTINUOUS
 62
     7
 10
-9.4488188976
 20
1.3689973234
 30
0.0
 11
-9.4488188976
 21
1.5748031496
 31
0.0
  0
LINE
  5
FA
  8
0
  6
CONTINUOUS
 62
     7
 10
-9.4488188976
 20
1.5748031496
 30
0.0
 11
-6.1023622047
 21
1.5748031496
 31
0.0
  0
LINE
  5
FB
  8
0
  6
CONTINUOUS
 62
     7
 10
-6.1023622047
 20
1.5748031496
 30
0.0
 11
-6.1023622047
 21
1.3689973234
 31
0.0
  0
LINE
  5
FC
  8
0
  6
CONTINUOUS
 62
     7
 10
-6.0581680309
 20
1.3248031496
 30
0.0
 11
-5.7528555911
 21
1.3248031496
 31
0.0
  0
LINE
  5
FD
  8
0
  6
CONTINUOUS
 62
     7
 10
-5.7086614173
 20
1.3689973234
 30
0.0
 11
-5.7086614173
 21
1.5748031496
 31
0.0
  0
LINE
  5
FE
  8
0
  6
CONTINUOUS
 62
     7
 10
-5.7086614173
 20
1.5748031496
 30
0.0
 11
-2.3622047244
 21
1.5748031496
 31
0.0
  0
LINE
  5
FF
  8
0
  6
CONTINUOUS
 62
     7
 10
-2.3622047244
 20
1.5748031496
 30
0.0
 11
-2.3622047244
 21
1.3689973234
 31
0.0
  0
LINE
  5
100
  8
0
  6
CONTINUOUS
 62
     7
 10
-2.3180105506
 20
1.3248031496
 30
0.0
 11
-2.0126981108
 21
1.3248031496
 31
0.0
  0
LINE
  5
101
  8
0
  6
CONTINUOUS
 62
     7
 10
-1.968503937
 20
1.3689973234
 30
0.0
 11
-1.968503937
 21
1.5748031496
 31
0.0
  0
LINE
  5
102
  8
0
  6
CONTINUOUS
 62
     7
 10
-1.968503937
 20
1.5748031496
 30
0.0
 11
-1.1811023622
 21
1.5748031496
 31
0.0
  0
LINE
  5
103
  8
0
  6
CONTINUOUS
 62
     7
 10
-1.1811023622
 20
1.5748031496
 30
0.0
 11
-1.1811023622
 21
1.3689973234
 31
0.0
  0
LINE
  5
104
  8
0
  6
CONTINUOUS
 62
     7
 10
-1.1369081884
 20
1.3248031496
 30
0.0
 11
-0.8315957486
 21
1.3248031496
 31
0.0
  0
LINE
  5
105
  8
0
  6
CONTINUOUS
 62
     7
 10
-0.7874015748
 20
1.3689973234
 30
0.0
 11
-0.7874015748
 21
1.5748031496
 31
0.0
  0
LINE
  5
106
  8
0
  6
CONTINUOUS
 62
     7
 10
-0.7874015748
 20
1.5748031496
 30
0.0
 11
-0.25
 21
1.5748031496
 31
0.0
  0
LINE
  5
107
  8
0
  6
CONTINUOUS
 62
     7
 10
-0.25
 20
1.5748031496
 30
0.0
 11
-0.25
 21
1.225296536
 31
0.0
  0
LINE
  5
108
  8
0
  6
CONTINUOUS
 62
     7
 10
-0.2058058262
 20
1.1811023622
 30
0.0
 11
0.0
 21
1.1811023622
 31
0.0
  0
LINE
  5
109
  8
0
  6
CONTINUOUS
 62
     7
 10
0.0
 20
1.1811023622
 30
0.0
 11
0.0
 21
0.7874015748
 31
0.0
  0
LINE
  5
10A
  8
0
  6
CONTINUOUS
 62
     7
 10
0.0
 20
0.7874015748
 30
0.0
 11
-0.2058058262
 21
0.7874015748
 31
0.0
  0
LINE
  5
10B
  8
0
  6
CONTINUOUS
 62
     7
 10
-0.2058058262
 20
0.3937007874
 30
0.0
 11
0.0
 21
0.3937007874
 31
0.0
  0
LINE
  5
10C
  8
0
  6
CONTINUOUS
 62
     7
 10
0.0
 20
0.3937007874
 30
0.0
 11
0.0
 21
0.0
 31
0.0
  0
LINE
  5
10D
  8
0
  6
CONTINUOUS
 62
     7
 10
0.0
 20
0.0
 30
0.0
 11
-0.2058058262
 21
0.0
 31
0.0
  0
LINE
  5
10E
  8
0
  6
CONTINUOUS
 62
     7
 10
-0.25
 20
-0.0441941738
 30
0.0
 11
-0.25
 21
-0.3937007874
 31
0.0
  0
LINE
  5
10F
  8
0
  6
CONTINUOUS
 62
     7
 10
-0.25
 20
-0.3937007874
 30
0.0
 11
-0.7874015748
 21
-0.3937007874
 31
0.0
  0
LINE
  5
110
  8
0
  6
CONTINUOUS
 62
     7
 10
-0.7874015748
 20
-0.3937007874
 30
0.0
 11
-0.7874015748
 21
-0.3128949612
 31
0.0
  0
LINE
  5
111
  8
0
  6
CONTINUOUS
 62
     7
 10
-0.8315957486
 20
-0.2687007874
 30
0.0
 11
-1.1369081884
 21
-0.2687007874
 31
0.0
  0
LINE
  5
112
  8
0
  6
CONTINUOUS
 62
     7
 10
-1.1811023622
 20
-0.3128949612
 30
0.0
 11
-1.1811023622
 21
-0.3937007874
 31
0.0
  0
LINE
  5
113
  8
0
  6
CONTINUOUS
 62
     7
 10
-1.1811023622
 20
-0.3937007874
 30
0.0
 11
-5.7086614173
 21
-0.3937007874
 31
0.0
  0
LINE
  5
114
  8
0
  6
CONTINUOUS
 62
     7
 10
-5.7086614173
 20
-0.3937007874
 30
0.0
 11
-5.7086614173
 21
-0.3128949612
 31
0.0
  0
LINE
  5
115
  8
0
  6
CONTINUOUS
 62
     7
 10
-5.7528555911
 20
-0.2687007874
 30
0.0
 11
-6.0581680309
 21
-0.2687007874
 31
0.0
  0
LINE
  5
116
  8
0
  6
CONTINUOUS
 62
     7
 10
-6.1023622047
 20
-0.3128949612
 30
0.0
 11
-6.1023622047
 21
-0.3937007874
 31
0.0
  0
LINE
  5
117
  8
0
  6
CONTINUOUS
 62
     7
 10
-6.1023622047
 20
-0.3937007874
 30
0.0
 11
-10.6299212598
 21
-0.3937007874
 31
0.0
  0
LINE
  5
118
  8
0
  6
CONTINUOUS
 62
     7
 10
-10.6299212598
 20
-0.3937007874
 30
0.0
 11
-10.6299212598
 21
-0.3128949612
 31
0.0
  0
LINE
  5
119
  8
0
  6
CONTINUOUS
 62
     7
 10
-10.6741154337
 20
-0.2687007874
 30
0.0
 11
-10.9794278734
 21
-0.2687007874
 31
0.0
  0
LINE
  5
11A
  8
0
  6
CONTINUOUS
 62
     7
 10
-3.7002178031
 20
0.0
 30
0.0
 11
-3.8618294555
 21
0.0
 31
0.0
  0
LINE
  5
11B
  8
0
  6
CONTINUOUS
 62
     7
 10
-3.6560236293
 20
0.3495066136
 30
0.0
 11
-3.6560236293
 21
0.0441941738
 31
0.0
  0
LINE
  5
11C
  8
0
  6
CONTINUOUS
 62
     7
 10
-3.8618294555
 20
0.3937007874
 30
0.0
 11
-3.7002178032
 21
0.3937007874
 31
0.0
  0
LINE
  5
11D
  8
0
  6
CONTINUOUS
 62
     7
 10
-3.9060236293
 20
0.0441941738
 30
0.0
 11
-3.9060236293
 21
0.3495066136
 31
0.0
  0
LINE
  5
11E
  8
0
  6
CONTINUOUS
 62
     7
 10
-3.7002178031
 20
0.7874015748
 30
0.0
 11
-3.8618294555
 21
0.7874015748
 31
0.0
  0
LINE
  5
11F
  8
0
  6
CONTINUOUS
 62
     7
 10
-3.6560236293
 20
1.1369081884
 30
0.0
 11
-3.6560236293
 21
0.8315957486
 31
0.0
  0
LINE
  5
120
  8
0
  6
CONTINUOUS
 62
     7
 10
-3.8618294555
 20
1.1811023622
 30
0.0
 11
-3.7002178032
 21
1.1811023622
 31
0.0
  0
LINE
  5
121
  8
0
  6
CONTINUOUS
 62
     7
 10
-3.9060236293
 20
0.8315957486
 30
0.0
 11
-3.9060236293
 21
1.1369081884
 31
0.0
  0
LINE
  5
122
  8
0
  6
CONTINUOUS
 62
     7
 10
-0.25
 20
0.743207401
 30
0.0
 11
-0.25
 21
0.4378949612
 31
0.0
  0
ARC
  5
123
  8
0
  6
CONTINUOUS
 62
     7
 10
-8.1339266193
 20
0.8094986617
 30
0.0
 40
0.0312500000002765
 50
135.0000000003
 51
315.0000000003
  0
ARC
  5
124
  8
0
  6
CONTINUOUS
 62
     7
 10
-7.9281207932
 20
0.8094986617
 30
0.0
 40
0.0312500000004497
 50
225.0000000007
 51
45.0000000007
  0
ARC
  5
125
  8
0
  6
CONTINUOUS
 62
     7
 10
-7.9281207932
 20
1.1590052753
 30
0.0
 40
0.0312500000002143
 50
315.0000000001
 51
135.0
  0
ARC
  5
126
  8
0
  6
CONTINUOUS
 62
     7
 10
-8.1339266193
 20
1.1590052753
 30
0.0
 40
0.031250000000443
 50
44.999999999
 51
224.9999999989
  0
ARC
  5
127
  8
0
  6
CONTINUOUS
 62
     7
 10
-7.9281207931
 20
0.0220970869
 30
0.0
 40
0.0312499999914501
 50
225.0000000007
 51
45.0000000007
  0
ARC
  5
128
  8
0
  6
CONTINUOUS
 62
     7
 10
-7.9281207931
 20
0.3716037005
 30
0.0
 40
0.0312500000000731
 50
315.0000000002
 51
135.0000000002
  0
ARC
  5
129
  8
0
  6
CONTINUOUS
 62
     7
 10
-8.1339266193
 20
0.3716037005
 30
0.0
 40
0.0312499999960546
 50
45.0000000084
 51
225.0000000081
  0
ARC
  5
12A
  8
0
  6
CONTINUOUS
 62
     7
 10
-8.1339266193
 20
0.0220970869
 30
0.0
 40
0.0312499999999976
 50
135.0000000008
 51
315.0000000008
  0
ARC
  5
12B
  8
0
  6
CONTINUOUS
 62
     7
 10
-11.583120709
 20
-0.0220970869
 30
0.0
 40
0.0312500000000292
 50
315.0
 51
135.0000000001
  0
ARC
  5
12C
  8
0
  6
CONTINUOUS
 62
     7
 10
-11.583120709
 20
0.4157978743
 30
0.0
 40
0.0312499999999921
 50
224.9999999999
 51
44.9999999999
  0
ARC
  5
12D
  8
0
  6
CONTINUOUS
 62
     7
 10
-11.583120709
 20
0.7653044879
 30
0.0
 40
0.0312500000000292
 50
315.0
 51
135.0000000001
  0
ARC
  5
12E
  8
0
  6
CONTINUOUS
 62
     7
 10
-11.583120709
 20
1.2031994491
 30
0.0
 40
0.0312499999999681
 50
225.0
 51
45.0
  0
ARC
  5
12F
  8
0
  6
CONTINUOUS
 62
     7
 10
-11.0015249603
 20
1.3469002365
 30
0.0
 40
0.0312499999999927
 50
135.0
 51
315.0
  0
ARC
  5
130
  8
0
  6
CONTINUOUS
 62
     7
 10
-10.6520183468
 20
1.3469002365
 30
0.0
 40
0.0312499999999868
 50
225.0
 51
45.0000000001
  0
ARC
  5
131
  8
0
  6
CONTINUOUS
 62
     7
 10
-9.8204225981
 20
1.3469002365
 30
0.0
 40
0.0312500000000103
 50
134.9999999999
 51
314.9999999999
  0
ARC
  5
132
  8
0
  6
CONTINUOUS
 62
     7
 10
-9.4709159845
 20
1.3469002365
 30
0.0
 40
0.0312499999999977
 50
225.0000000001
 51
45.0000000001
  0
ARC
  5
133
  8
0
  6
CONTINUOUS
 62
     7
 10
-6.0802651178
 20
1.3469002365
 30
0.0
 40
0.031250000000029
 50
134.9999999999
 51
314.9999999999
  0
ARC
  5
134
  8
0
  6
CONTINUOUS
 62
     7
 10
-5.7307585042
 20
1.3469002365
 30
0.0
 40
0.0312500000000108
 50
225.0000000001
 51
45.0000000001
  0
ARC
  5
135
  8
0
  6
CONTINUOUS
 62
     7
 10
-2.3401076375
 20
1.3469002365
 30
0.0
 40
0.0312500000000232
 50
134.9999999999
 51
314.9999999999
  0
ARC
  5
136
  8
0
  6
CONTINUOUS
 62
     7
 10
-1.9906010239
 20
1.3469002365
 30
0.0
 40
0.0312500000000106
 50
225.0000000001
 51
45.0000000001
  0
ARC
  5
137
  8
0
  6
CONTINUOUS
 62
     7
 10
-1.1590052753
 20
1.3469002365
 30
0.0
 40
0.0312500000000227
 50
135.0
 51
315.0
  0
ARC
  5
138
  8
0
  6
CONTINUOUS
 62
     7
 10
-0.8094986617
 20
1.3469002365
 30
0.0
 40
0.0312499999999981
 50
225.0000000001
 51
45.0000000001
  0
ARC
  5
139
  8
0
  6
CONTINUOUS
 62
     7
 10
-0.2279029131
 20
1.2031994491
 30
0.0
 40
0.0312500000000166
 50
135.0
 51
315.0
  0
ARC
  5
13A
  8
0
  6
CONTINUOUS
 62
     7
 10
-0.2279029131
 20
0.7653044879
 30
0.0
 40
0.0312500000000042
 50
45.0
 51
225.0
  0
ARC
  5
13B
  8
0
  6
CONTINUOUS
 62
     7
 10
-0.2279029131
 20
0.4157978743
 30
0.0
 40
0.0312500000000165
 50
135.0
 51
315.0
  0
ARC
  5
13C
  8
0
  6
CONTINUOUS
 62
     7
 10
-0.2279029131
 20
-0.0220970869
 30
0.0
 40
0.0312499999999423
 50
45.0000000001
 51
225.0
  0
ARC
  5
13D
  8
0
  6
CONTINUOUS
 62
     7
 10
-0.8094986617
 20
-0.2907978743
 30
0.0
 40
0.031249999999998
 50
314.9999999999
 51
134.9999999999
  0
ARC
  5
13E
  8
0
  6
CONTINUOUS
 62
     7
 10
-1.1590052753
 20
-0.2907978743
 30
0.0
 40
0.0312500000000289
 50
44.9999999999
 51
224.9999999999
  0
ARC
  5
13F
  8
0
  6
CONTINUOUS
 62
     7
 10
-5.7307585042
 20
-0.2907978743
 30
0.0
 40
0.0312500000000116
 50
314.9999999999
 51
134.9999999999
  0
ARC
  5
140
  8
0
  6
CONTINUOUS
 62
     7
 10
-6.0802651178
 20
-0.2907978743
 30
0.0
 40
0.0312499999999988
 50
45.0
 51
225.0
  0
ARC
  5
141
  8
0
  6
CONTINUOUS
 62
     7
 10
-10.6520183468
 20
-0.2907978743
 30
0.0
 40
0.0312500000000118
 50
314.9999999999
 51
134.9999999999
  0
ARC
  5
142
  8
0
  6
CONTINUOUS
 62
     7
 10
-11.0015249603
 20
-0.2907978743
 30
0.0
 40
0.031249999999992
 50
45.0
 51
225.0
  0
ARC
  5
143
  8
0
  6
CONTINUOUS
 62
     7
 10
-3.6781207162
 20
0.0220970869
 30
0.0
 40
0.0312499999914431
 50
225.0000000008
 51
45.0000000008
  0
ARC
  5
144
  8
0
  6
CONTINUOUS
 62
     7
 10
-3.6781207162
 20
0.3716037005
 30
0.0
 40
0.0312500000000727
 50
315.0000000002
 51
135.0000000002
  0
ARC
  5
145
  8
0
  6
CONTINUOUS
 62
     7
 10
-3.8839265424
 20
0.3716037005
 30
0.0
 40
0.0312499999960728
 50
45.0000000082
 51
225.0000000082
  0
ARC
  5
146
  8
0
  6
CONTINUOUS
 62
     7
 10
-3.8839265424
 20
0.0220970869
 30
0.0
 40
0.0312499999999919
 50
135.0000000008
 51
315.0000000008
  0
ARC
  5
147
  8
0
  6
CONTINUOUS
 62
     7
 10
-3.6781207162
 20
0.8094986617
 30
0.0
 40
0.0312499999914613
 50
225.0000000008
 51
45.0000000008
  0
ARC
  5
148
  8
0
  6
CONTINUOUS
 62
     7
 10
-3.6781207162
 20
1.1590052753
 30
0.0
 40
0.0312500000000356
 50
315.0000000003
 51
135.0000000003
  0
ARC
  5
149
  8
0
  6
CONTINUOUS
 62
     7
 10
-3.8839265424
 20
1.1590052753
 30
0.0
 40
0.0312499999960917
 50
45.0000000082
 51
225.0000000082
  0
ARC
  5
14A
  8
0
  6
CONTINUOUS
 62
     7
 10
-3.8839265424
 20
0.8094986617
 30
0.0
 40
0.0312499999999795
 50
135.0000000008
 51
315.0000000008
  0
ENDSEC
  0
EOF
