  0
SECTION
  2
HEADER
  9
$ACADVER
  1
AC1009
  9
$DWGCODEPAGE
  3
ansi_1252
  9
$INSBASE
 10
0.0
 20
0.0
 30
0.0
  9
$EXTMIN
 10
-5.7609627676
 20
-2.6619110977
 30
0.0
  9
$EXTMAX
 10
6.0500608544
 20
-0.6934071607
 30
0.0
  9
$LIMMIN
 10
0.0
 20
0.0
  9
$LIMMAX
 10
12.0
 20
9.0
  9
$ORTHOMODE
 70
     0
  9
$REGENMODE
 70
     1
  9
$FILLMODE
 70
     1
  9
$QTEXTMODE
 70
     0
  9
$MIRRTEXT
 70
     1
  9
$DRAGMODE
 70
     2
  9
$LTSCALE
 40
1.0
  9
$OSMODE
 70
    37
  9
$ATTMODE
 70
     1
  9
$TEXTSIZE
 40
0.1377952756
  9
$TRACEWID
 40
0.05
  9
$TEXTSTYLE
  7
STANDARD
  9
$CLAYER
  8
0
  9
$CELTYPE
  6
BYLAYER
  9
$CECOLOR
 62
   256
  9
$DIMSCALE
 40
1.0
  9
$DIMASZ
 40
0.13
  9
$DIMEXO
 40
0.0393700787
  9
$DIMDLI
 40
0.38
  9
$DIMRND
 40
0.0
  9
$DIMDLE
 40
0.0
  9
$DIMEXE
 40
0.0393700787
  9
$DIMTP
 40
0.0
  9
$DIMTM
 40
0.0
  9
$DIMTXT
 40
0.1377952756
  9
$DIMCEN
 40
0.09
  9
$DIMTSZ
 40
0.0
  9
$DIMTOL
 70
     0
  9
$DIMLIM
 70
     0
  9
$DIMTIH
 70
     1
  9
$DIMTOH
 70
     1
  9
$DIMSE1
 70
     0
  9
$DIMSE2
 70
     0
  9
$DIMTAD
 70
     1
  9
$DIMZIN
 70
     1
  9
$DIMBLK
  1

  9
$DIMASO
 70
     1
  9
$DIMSHO
 70
     1
  9
$DIMPOST
  1

  9
$DIMAPOST
  1

  9
$DIMALT
 70
     0
  9
$DIMALTD
 70
     2
  9
$DIMALTF
 40
25.4
  9
$DIMLFAC
 40
1.0
  9
$DIMTOFL
 70
     0
  9
$DIMTVP
 40
0.0
  9
$DIMTIX
 70
     0
  9
$DIMSOXD
 70
     0
  9
$DIMSAH
 70
     0
  9
$DIMBLK1
  1

  9
$DIMBLK2
  1

  9
$DIMSTYLE
  2
STANDARD
  9
$DIMCLRD
 70
     0
  9
$DIMCLRE
 70
     0
  9
$DIMCLRT
 70
     0
  9
$DIMTFAC
 40
1.0
  9
$DIMGAP
 40
0.06
  9
$LUNITS
 70
     2
  9
$LUPREC
 70
     8
  9
$SKETCHINC
 40
0.1
  9
$FILLETRAD
 40
0.5
  9
$AUNITS
 70
     0
  9
$AUPREC
 70
     2
  9
$MENU
  1
.
  9
$ELEVATION
 40
0.0
  9
$PELEVATION
 40
0.0
  9
$THICKNESS
 40
0.0
  9
$LIMCHECK
 70
     0
  9
$CHAMFERA
 40
0.0
  9
$CHAMFERB
 40
0.0
  9
$SKPOLY
 70
     0
  9
$TDCREATE
 40
2458269.765197269
  9
$TDUPDATE
 40
2458269.765227211
  9
$TDINDWG
 40
0.0000000116
  9
$TDUSRTIMER
 40
0.0000000116
  9
$USRTIMER
 70
     1
  9
$ANGBASE
 50
0.0
  9
$ANGDIR
 70
     0
  9
$PDMODE
 70
     0
  9
$PDSIZE
 40
-1.0
  9
$PLINEWID
 40
0.0
  9
$COORDS
 70
     1
  9
$SPLFRAME
 70
     0
  9
$SPLINETYPE
 70
     6
  9
$SPLINESEGS
 70
     8
  9
$ATTDIA
 70
     0
  9
$ATTREQ
 70
     1
  9
$HANDLING
 70
     1
  9
$HANDSEED
  5
153
  9
$SURFTAB1
 70
     6
  9
$SURFTAB2
 70
     6
  9
$SURFTYPE
 70
     6
  9
$SURFU
 70
     6
  9
$SURFV
 70
     6
  9
$UCSNAME
  2

  9
$UCSORG
 10
0.0
 20
0.0
 30
0.0
  9
$UCSXDIR
 10
1.0
 20
0.0
 30
0.0
  9
$UCSYDIR
 10
0.0
 20
1.0
 30
0.0
  9
$PUCSNAME
  2

  9
$PUCSORG
 10
0.0
 20
0.0
 30
0.0
  9
$PUCSXDIR
 10
1.0
 20
0.0
 30
0.0
  9
$PUCSYDIR
 10
0.0
 20
1.0
 30
0.0
  9
$USERI1
 70
     0
  9
$USERI2
 70
     0
  9
$USERI3
 70
     0
  9
$USERI4
 70
     0
  9
$USERI5
 70
     0
  9
$USERR1
 40
0.0
  9
$USERR2
 40
0.0
  9
$USERR3
 40
0.0
  9
$USERR4
 40
0.0
  9
$USERR5
 40
0.0
  9
$WORLDVIEW
 70
     1
  9
$SHADEDGE
 70
     3
  9
$SHADEDIF
 70
    70
  9
$TILEMODE
 70
     1
  9
$MAXACTVP
 70
    64
  9
$PLIMCHECK
 70
     0
  9
$PEXTMIN
 10
1.0000000000E+20
 20
1.0000000000E+20
 30
1.0000000000E+20
  9
$PEXTMAX
 10
-1.0000000000E+20
 20
-1.0000000000E+20
 30
-1.0000000000E+20
  9
$PLIMMIN
 10
0.0
 20
0.0
  9
$PLIMMAX
 10
12.0
 20
9.0
  9
$UNITMODE
 70
     0
  9
$VISRETAIN
 70
     1
  9
$PLINEGEN
 70
     0
  9
$PSLTSCALE
 70
     1
  0
ENDSEC
  0
SECTION
  2
TABLES
  0
TABLE
  2
VPORT
 70
     1
  0
VPORT
  2
*ACTIVE
 70
     0
 10
0.0
 20
0.0
 11
1.0
 21
1.0
 12
0.1445490434
 22
-1.6776591292
 13
0.0
 23
0.0
 14
0.5
 24
0.5
 15
0.5
 25
0.5
 16
0.0
 26
0.0
 36
1.0
 17
0.0
 27
0.0
 37
0.0
 40
2.0078740157
 41
6.0
 42
50.0
 43
0.0
 44
0.0
 50
0.0
 51
0.0
 71
     0
 72
   100
 73
     1
 74
     3
 75
     0
 76
     0
 77
     0
 78
     0
  0
ENDTAB
  0
TABLE
  2
LTYPE
 70
     6
  0
LTYPE
  2
CONTINUOUS
 70
     0
  3
Solid line
 72
    65
 73
     0
 40
0.0
  0
LTYPE
  2
HIDDEN
 70
     0
  3
Hidden __ __ __ __ __ __ __ __ __ __ __ __ __ __
 72
    65
 73
     2
 40
0.075
 49
0.05
 49
-0.025
  0
LTYPE
  2
PHANTOM
 70
     0
  3
Phantom ______  __  __  ______  __  __  ______
 72
    65
 73
     6
 40
0.5
 49
0.25
 49
-0.05
 49
0.05
 49
-0.05
 49
0.05
 49
-0.05
  0
LTYPE
  2
CENTER
 70
     0
  3
Center ____ _ ____ _ ____ _ ____ _ ____ _ ____
 72
    65
 73
     4
 40
0.4
 49
0.25
 49
-0.05
 49
0.05
 49
-0.05
  0
LTYPE
  2
CENTERX2
 70
     0
  3
Center (2x) ________  __  ________  __  _____
 72
    65
 73
     4
 40
0.8
 49
0.5
 49
-0.1
 49
0.1
 49
-0.1
  0
LTYPE
  2
DOT2
 70
     0
  3
Dot (.5x) ........................................
 72
    65
 73
     2
 40
0.025
 49
0.0
 49
-0.025
  0
ENDTAB
  0
TABLE
  2
LAYER
 70
     1
  0
LAYER
  2
0
 70
     0
 62
     7
  6
CONTINUOUS
  0
ENDTAB
  0
TABLE
  2
STYLE
 70
     1
  0
STYLE
  2
STANDARD
 70
     0
 40
0.0
 41
1.0
 50
0.0
 71
     0
 42
0.1377952756
  3
txt
  4

  0
ENDTAB
  0
TABLE
  2
VIEW
 70
     0
  0
ENDTAB
  0
TABLE
  2
UCS
 70
     0
  0
ENDTAB
  0
TABLE
  2
APPID
 70
     1
  0
APPID
  2
ACAD
 70
     0
  0
ENDTAB
  0
TABLE
  2
DIMSTYLE
 70
     1
  0
DIMSTYLE
  2
STANDARD
 70
     0
  3

  4

  5

  6

  7

 40
1.0
 41
0.18
 42
0.0625
 43
0.38
 44
0.18
 45
0.0
 46
0.0
 47
0.0
 48
0.0
140
0.18
141
0.09
142
0.0
143
25.4
144
1.0
145
0.0
146
1.0
147
0.09
 71
     0
 72
     0
 73
     1
 74
     1
 75
     0
 76
     0
 77
     0
 78
     0
170
     0
171
     2
172
     0
173
     0
174
     0
175
     0
176
     0
177
     0
178
     0
  0
ENDTAB
  0
ENDSEC
  0
SECTION
  2
BLOCKS
  0
BLOCK
  8
0
  2
$MODEL_SPACE
 70
     0
 10
0.0
 20
0.0
 30
0.0
  3
$MODEL_SPACE
  1

  0
ENDBLK
  5
21
  8
0
  0
BLOCK
 67
     1
  8
0
  2
$PAPER_SPACE
 70
     0
 10
0.0
 20
0.0
 30
0.0
  3
$PAPER_SPACE
  1

  0
ENDBLK
  5
1D
 67
     1
  8
0
  0
ENDSEC
  0
SECTION
  2
ENTITIES
  0
LINE
  5
E3
  8
0
  6
CONTINUOUS
 62
     7
 10
5.4391818374
 20
-2.6619110977
 30
0.0
 11
5.4704318374
 21
-2.6306610977
 31
0.0
  0
LINE
  5
E4
  8
0
  6
CONTINUOUS
 62
     7
 10
5.3000608544
 20
-2.6306610977
 30
0.0
 11
5.3313108544
 21
-2.6619110977
 31
0.0
  0
LINE
  5
E5
  8
0
  6
CONTINUOUS
 62
     7
 10
3.9422360513
 20
-2.6619110977
 30
0.0
 11
3.9734860513
 21
-2.6306610977
 31
0.0
  0
LINE
  5
E6
  8
0
  6
CONTINUOUS
 62
     7
 10
3.7766356576
 20
-2.6306610977
 30
0.0
 11
3.8078856576
 21
-2.6619110977
 31
0.0
  0
LINE
  5
E7
  8
0
  6
CONTINUOUS
 62
     7
 10
-3.5187875707
 20
-2.6619110977
 30
0.0
 11
-3.4875375707
 21
-2.6306610977
 31
0.0
  0
LINE
  5
E8
  8
0
  6
CONTINUOUS
 62
     7
 10
-3.6843879644
 20
-2.6306610977
 30
0.0
 11
-3.6531379644
 21
-2.6619110977
 31
0.0
  0
LINE
  5
E9
  8
0
  6
CONTINUOUS
 62
     7
 10
-5.0422127676
 20
-2.6619110977
 30
0.0
 11
-5.0109627676
 21
-2.6306610977
 31
0.0
  0
LINE
  5
EA
  8
0
  6
CONTINUOUS
 62
     7
 10
-5.1774682804
 20
-2.6306610977
 30
0.0
 11
-5.1462182804
 21
-2.6619110977
 31
0.0
  0
LINE
  5
EB
  8
0
  6
CONTINUOUS
 62
     7
 10
-5.7609627676
 20
-2.2057103103
 30
0.0
 11
-5.6984627676
 21
-2.2682103103
 31
0.0
  0
LINE
  5
EC
  8
0
  6
CONTINUOUS
 62
     7
 10
-5.6984627676
 20
-1.8745095229
 30
0.0
 11
-5.7609627676
 21
-1.9370095229
 31
0.0
  0
LINE
  5
ED
  8
0
  6
CONTINUOUS
 62
     7
 10
-5.7609627676
 20
-1.4183087355
 30
0.0
 11
-5.6984627676
 21
-1.4808087355
 31
0.0
  0
LINE
  5
EE
  8
0
  6
CONTINUOUS
 62
     7
 10
-5.6984627676
 20
-1.0871079481
 30
0.0
 11
-5.7609627676
 21
-1.1496079481
 31
0.0
  0
LINE
  5
EF
  8
0
  6
CONTINUOUS
 62
     7
 10
-5.3015631613
 20
-0.6934071607
 30
0.0
 11
-5.3328131613
 21
-0.7246571607
 31
0.0
  0
LINE
  5
F0
  8
0
  6
CONTINUOUS
 62
     7
 10
-4.9391123739
 20
-0.7246571607
 30
0.0
 11
-4.9703623739
 21
-0.6934071607
 31
0.0
  0
LINE
  5
F1
  8
0
  6
CONTINUOUS
 62
     7
 10
-3.1415631613
 20
-0.6934071607
 30
0.0
 11
-3.1728131613
 21
-0.7246571607
 31
0.0
  0
LINE
  5
F2
  8
0
  6
CONTINUOUS
 62
     7
 10
-2.7791123739
 20
-0.7246571607
 30
0.0
 11
-2.8103623739
 21
-0.6934071607
 31
0.0
  0
LINE
  5
F3
  8
0
  6
CONTINUOUS
 62
     7
 10
3.0994604607
 20
-0.6934071607
 30
0.0
 11
3.0682104607
 21
-0.7246571607
 31
0.0
  0
LINE
  5
F4
  8
0
  6
CONTINUOUS
 62
     7
 10
3.4619112481
 20
-0.7246571607
 30
0.0
 11
3.4306612481
 21
-0.6934071607
 31
0.0
  0
LINE
  5
F5
  8
0
  6
CONTINUOUS
 62
     7
 10
5.2594604607
 20
-0.6934071607
 30
0.0
 11
5.2282104607
 21
-0.7246571607
 31
0.0
  0
LINE
  5
F6
  8
0
  6
CONTINUOUS
 62
     7
 10
5.6219112481
 20
-0.7246571607
 30
0.0
 11
5.5906612481
 21
-0.6934071607
 31
0.0
  0
LINE
  5
F7
  8
0
  6
CONTINUOUS
 62
     7
 10
6.0500608544
 20
-1.1496079481
 30
0.0
 11
5.9875608544
 21
-1.0871079481
 31
0.0
  0
LINE
  5
F8
  8
0
  6
CONTINUOUS
 62
     7
 10
5.9875608544
 20
-1.4808087355
 30
0.0
 11
6.0500608544
 21
-1.4183087355
 31
0.0
  0
LINE
  5
F9
  8
0
  6
CONTINUOUS
 62
     7
 10
6.0500608544
 20
-1.9370095229
 30
0.0
 11
5.9875608544
 21
-1.8745095229
 31
0.0
  0
LINE
  5
FA
  8
0
  6
CONTINUOUS
 62
     7
 10
5.9875608544
 20
-2.2682103103
 30
0.0
 11
6.0500608544
 21
-2.2057103103
 31
0.0
  0
LINE
  5
FB
  8
0
  6
CONTINUOUS
 62
     7
 10
4.0176802251
 20
-2.3499110977
 30
0.0
 11
5.2558666806
 21
-2.3499110977
 31
0.0
  0
LINE
  5
FC
  8
0
  6
CONTINUOUS
 62
     7
 10
3.9734860513
 20
-2.6306610977
 30
0.0
 11
3.9734860513
 21
-2.3941052716
 31
0.0
  0
LINE
  5
FD
  8
0
  6
CONTINUOUS
 62
     7
 10
3.8078856576
 20
-2.6619110977
 30
0.0
 11
3.9422360513
 21
-2.6619110977
 31
0.0
  0
LINE
  5
FE
  8
0
  6
CONTINUOUS
 62
     7
 10
3.7766356576
 20
-2.3941052716
 30
0.0
 11
3.7766356576
 21
-2.6306610977
 31
0.0
  0
LINE
  5
FF
  8
0
  6
CONTINUOUS
 62
     7
 10
-3.4433433969
 20
-2.3499110977
 30
0.0
 11
3.7324414838
 21
-2.3499110977
 31
0.0
  0
LINE
  5
100
  8
0
  6
CONTINUOUS
 62
     7
 10
-3.4875375707
 20
-2.6306610977
 30
0.0
 11
-3.4875375707
 21
-2.3941052716
 31
0.0
  0
LINE
  5
101
  8
0
  6
CONTINUOUS
 62
     7
 10
-3.6531379644
 20
-2.6619110977
 30
0.0
 11
-3.5187875707
 21
-2.6619110977
 31
0.0
  0
LINE
  5
102
  8
0
  6
CONTINUOUS
 62
     7
 10
-3.6843879644
 20
-2.3941052716
 30
0.0
 11
-3.6843879644
 21
-2.6306610977
 31
0.0
  0
LINE
  5
103
  8
0
  6
CONTINUOUS
 62
     7
 10
-4.9667685938
 20
-2.3499110977
 30
0.0
 11
-3.7285821382
 21
-2.3499110977
 31
0.0
  0
LINE
  5
104
  8
0
  6
CONTINUOUS
 62
     7
 10
-5.0109627676
 20
-2.6306610977
 30
0.0
 11
-5.0109627676
 21
-2.3941052716
 31
0.0
  0
LINE
  5
105
  8
0
  6
CONTINUOUS
 62
     7
 10
-5.1462182804
 20
-2.6619110977
 30
0.0
 11
-5.0422127676
 21
-2.6619110977
 31
0.0
  0
LINE
  5
106
  8
0
  6
CONTINUOUS
 62
     7
 10
-5.1774682804
 20
-2.4561052716
 30
0.0
 11
-5.1774682804
 21
-2.6306610977
 31
0.0
  0
LINE
  5
107
  8
0
  6
CONTINUOUS
 62
     7
 10
-5.2609627676
 20
-2.4119110977
 30
0.0
 11
-5.2216624543
 21
-2.4119110977
 31
0.0
  0
LINE
  5
108
  8
0
  6
CONTINUOUS
 62
     7
 10
-5.2609627676
 20
-2.3941052716
 30
0.0
 11
-5.2609627676
 21
-2.4119110977
 31
0.0
  0
LINE
  5
109
  8
0
  6
CONTINUOUS
 62
     7
 10
-5.5109627676
 20
-2.3499110977
 30
0.0
 11
-5.3051569414
 21
-2.3499110977
 31
0.0
  0
LINE
  5
10A
  8
0
  6
CONTINUOUS
 62
     7
 10
-5.5109627676
 20
-2.3124044842
 30
0.0
 11
-5.5109627676
 21
-2.3499110977
 31
0.0
  0
LINE
  5
10B
  8
0
  6
CONTINUOUS
 62
     7
 10
-5.6984627676
 20
-2.2682103103
 30
0.0
 11
-5.5551569414
 21
-2.2682103103
 31
0.0
  0
LINE
  5
10C
  8
0
  6
CONTINUOUS
 62
     7
 10
-5.7609627676
 20
-1.9370095229
 30
0.0
 11
-5.7609627676
 21
-2.2057103103
 31
0.0
  0
LINE
  5
10D
  8
0
  6
CONTINUOUS
 62
     7
 10
-5.5551569414
 20
-1.8745095229
 30
0.0
 11
-5.6984627676
 21
-1.8745095229
 31
0.0
  0
LINE
  5
10E
  8
0
  6
CONTINUOUS
 62
     7
 10
-5.5109627676
 20
-1.5250029094
 30
0.0
 11
-5.5109627676
 21
-1.8303153491
 31
0.0
  0
LINE
  5
10F
  8
0
  6
CONTINUOUS
 62
     7
 10
-5.6984627676
 20
-1.4808087355
 30
0.0
 11
-5.5551569414
 21
-1.4808087355
 31
0.0
  0
LINE
  5
110
  8
0
  6
CONTINUOUS
 62
     7
 10
-5.7609627676
 20
-1.1496079481
 30
0.0
 11
-5.7609627676
 21
-1.4183087355
 31
0.0
  0
LINE
  5
111
  8
0
  6
CONTINUOUS
 62
     7
 10
-5.5551569414
 20
-1.0871079481
 30
0.0
 11
-5.6984627676
 21
-1.0871079481
 31
0.0
  0
LINE
  5
112
  8
0
  6
CONTINUOUS
 62
     7
 10
-5.5109627676
 20
-0.8184071607
 30
0.0
 11
-5.5109627676
 21
-1.0429137743
 31
0.0
  0
LINE
  5
113
  8
0
  6
CONTINUOUS
 62
     7
 10
-5.3770073351
 20
-0.8184071607
 30
0.0
 11
-5.5109627676
 21
-0.8184071607
 31
0.0
  0
LINE
  5
114
  8
0
  6
CONTINUOUS
 62
     7
 10
-5.3328131613
 20
-0.7246571607
 30
0.0
 11
-5.3328131613
 21
-0.7742129869
 31
0.0
  0
LINE
  5
115
  8
0
  6
CONTINUOUS
 62
     7
 10
-4.9703623739
 20
-0.6934071607
 30
0.0
 11
-5.3015631613
 21
-0.6934071607
 31
0.0
  0
LINE
  5
116
  8
0
  6
CONTINUOUS
 62
     7
 10
-4.9391123739
 20
-0.7742129869
 30
0.0
 11
-4.9391123739
 21
-0.7246571607
 31
0.0
  0
LINE
  5
117
  8
0
  6
CONTINUOUS
 62
     7
 10
-4.1543879644
 20
-0.8184071607
 30
0.0
 11
-4.8949182
 21
-0.8184071607
 31
0.0
  0
LINE
  5
118
  8
0
  6
CONTINUOUS
 62
     7
 10
-4.1543879644
 20
-1.1679137743
 30
0.0
 11
-4.1543879644
 21
-0.8184071607
 31
0.0
  0
LINE
  5
119
  8
0
  6
CONTINUOUS
 62
     7
 10
-4.0017317445
 20
-1.2121079481
 30
0.0
 11
-4.1101937906
 21
-1.2121079481
 31
0.0
  0
LINE
  5
11A
  8
0
  6
CONTINUOUS
 62
     7
 10
-3.9575375707
 20
-0.8184071607
 30
0.0
 11
-3.9575375707
 21
-1.1679137743
 31
0.0
  0
LINE
  5
11B
  8
0
  6
CONTINUOUS
 62
     7
 10
-3.2170073351
 20
-0.8184071607
 30
0.0
 11
-3.9575375707
 21
-0.8184071607
 31
0.0
  0
LINE
  5
11C
  8
0
  6
CONTINUOUS
 62
     7
 10
-3.1728131613
 20
-0.7246571607
 30
0.0
 11
-3.1728131613
 21
-0.7742129869
 31
0.0
  0
LINE
  5
11D
  8
0
  6
CONTINUOUS
 62
     7
 10
-2.8103623739
 20
-0.6934071607
 30
0.0
 11
-3.1415631613
 21
-0.6934071607
 31
0.0
  0
LINE
  5
11E
  8
0
  6
CONTINUOUS
 62
     7
 10
-2.7791123739
 20
-0.9057169239
 30
0.0
 11
-2.7791123739
 21
-0.7246571607
 31
0.0
  0
LINE
  5
11F
  8
0
  6
CONTINUOUS
 62
     7
 10
3.0240162869
 20
-0.9499110977
 30
0.0
 11
-2.7349182
 21
-0.9499110977
 31
0.0
  0
LINE
  5
120
  8
0
  6
CONTINUOUS
 62
     7
 10
3.0682104607
 20
-0.7246571607
 30
0.0
 11
3.0682104607
 21
-0.9057169239
 31
0.0
  0
LINE
  5
121
  8
0
  6
CONTINUOUS
 62
     7
 10
3.4306612481
 20
-0.6934071607
 30
0.0
 11
3.0994604607
 21
-0.6934071607
 31
0.0
  0
LINE
  5
122
  8
0
  6
CONTINUOUS
 62
     7
 10
3.4619112481
 20
-0.7742129869
 30
0.0
 11
3.4619112481
 21
-0.7246571607
 31
0.0
  0
LINE
  5
123
  8
0
  6
CONTINUOUS
 62
     7
 10
5.1840162869
 20
-0.8184071607
 30
0.0
 11
3.506105422
 21
-0.8184071607
 31
0.0
  0
LINE
  5
124
  8
0
  6
CONTINUOUS
 62
     7
 10
5.2282104607
 20
-0.7246571607
 30
0.0
 11
5.2282104607
 21
-0.7742129869
 31
0.0
  0
LINE
  5
125
  8
0
  6
CONTINUOUS
 62
     7
 10
5.5906612481
 20
-0.6934071607
 30
0.0
 11
5.2594604607
 21
-0.6934071607
 31
0.0
  0
LINE
  5
126
  8
0
  6
CONTINUOUS
 62
     7
 10
5.6219112481
 20
-0.7742129869
 30
0.0
 11
5.6219112481
 21
-0.7246571607
 31
0.0
  0
LINE
  5
127
  8
0
  6
CONTINUOUS
 62
     7
 10
5.8000608544
 20
-0.8184071607
 30
0.0
 11
5.6661054219
 21
-0.8184071607
 31
0.0
  0
LINE
  5
128
  8
0
  6
CONTINUOUS
 62
     7
 10
5.8000608544
 20
-1.0429137743
 30
0.0
 11
5.8000608544
 21
-0.8184071607
 31
0.0
  0
LINE
  5
129
  8
0
  6
CONTINUOUS
 62
     7
 10
5.9875608544
 20
-1.0871079481
 30
0.0
 11
5.8442550282
 21
-1.0871079481
 31
0.0
  0
LINE
  5
12A
  8
0
  6
CONTINUOUS
 62
     7
 10
6.0500608544
 20
-1.4183087355
 30
0.0
 11
6.0500608544
 21
-1.1496079481
 31
0.0
  0
LINE
  5
12B
  8
0
  6
CONTINUOUS
 62
     7
 10
5.8442550282
 20
-1.4808087355
 30
0.0
 11
5.9875608544
 21
-1.4808087355
 31
0.0
  0
LINE
  5
12C
  8
0
  6
CONTINUOUS
 62
     7
 10
5.8000608544
 20
-1.8303153491
 30
0.0
 11
5.8000608544
 21
-1.5250029094
 31
0.0
  0
LINE
  5
12D
  8
0
  6
CONTINUOUS
 62
     7
 10
5.9875608544
 20
-1.8745095229
 30
0.0
 11
5.8442550282
 21
-1.8745095229
 31
0.0
  0
LINE
  5
12E
  8
0
  6
CONTINUOUS
 62
     7
 10
6.0500608544
 20
-2.2057103103
 30
0.0
 11
6.0500608544
 21
-1.9370095229
 31
0.0
  0
LINE
  5
12F
  8
0
  6
CONTINUOUS
 62
     7
 10
5.8442550282
 20
-2.2682103103
 30
0.0
 11
5.9875608544
 21
-2.2682103103
 31
0.0
  0
LINE
  5
130
  8
0
  6
CONTINUOUS
 62
     7
 10
5.8000608544
 20
-2.3499110977
 30
0.0
 11
5.8000608544
 21
-2.3124044842
 31
0.0
  0
LINE
  5
131
  8
0
  6
CONTINUOUS
 62
     7
 10
5.5942550282
 20
-2.3499110977
 30
0.0
 11
5.8000608544
 21
-2.3499110977
 31
0.0
  0
LINE
  5
132
  8
0
  6
CONTINUOUS
 62
     7
 10
5.5500608544
 20
-2.4119110977
 30
0.0
 11
5.5500608544
 21
-2.3941052716
 31
0.0
  0
LINE
  5
133
  8
0
  6
CONTINUOUS
 62
     7
 10
5.5146260112
 20
-2.4119110977
 30
0.0
 11
5.5500608544
 21
-2.4119110977
 31
0.0
  0
LINE
  5
134
  8
0
  6
CONTINUOUS
 62
     7
 10
5.4704318374
 20
-2.6306610977
 30
0.0
 11
5.4704318374
 21
-2.4561052716
 31
0.0
  0
LINE
  5
135
  8
0
  6
CONTINUOUS
 62
     7
 10
5.3313108544
 20
-2.6619110977
 30
0.0
 11
5.4391818374
 21
-2.6619110977
 31
0.0
  0
LINE
  5
136
  8
0
  6
CONTINUOUS
 62
     7
 10
5.3000608544
 20
-2.3941052716
 30
0.0
 11
5.3000608544
 21
-2.6306610977
 31
0.0
  0
ARC
  5
137
  8
0
  6
CONTINUOUS
 62
     7
 10
3.9955831382
 20
-2.3720081846
 30
0.0
 40
0.0312499999999921
 50
45.0
 51
225.0
  0
ARC
  5
138
  8
0
  6
CONTINUOUS
 62
     7
 10
3.7545385707
 20
-2.3720081846
 30
0.0
 40
0.0312499999999918
 50
315.0
 51
135.0
  0
ARC
  5
139
  8
0
  6
CONTINUOUS
 62
     7
 10
-3.4654404838
 20
-2.3720081846
 30
0.0
 40
0.0312500000000109
 50
44.9999999999
 51
224.9999999999
  0
ARC
  5
13A
  8
0
  6
CONTINUOUS
 62
     7
 10
-3.7064850513
 20
-2.3720081846
 30
0.0
 40
0.0312500000000109
 50
315.0
 51
135.0
  0
ARC
  5
13B
  8
0
  6
CONTINUOUS
 62
     7
 10
-4.9888656807
 20
-2.3720081846
 30
0.0
 40
0.0312500000000109
 50
44.9999999999
 51
224.9999999999
  0
ARC
  5
13C
  8
0
  6
CONTINUOUS
 62
     7
 10
-5.1995653673
 20
-2.4340081846
 30
0.0
 40
0.0312499999999999
 50
315.0
 51
135.0
  0
ARC
  5
13D
  8
0
  6
CONTINUOUS
 62
     7
 10
-5.2830598545
 20
-2.3720081846
 30
0.0
 40
0.0312500000000138
 50
315.0
 51
135.0
  0
ARC
  5
13E
  8
0
  6
CONTINUOUS
 62
     7
 10
-5.5330598545
 20
-2.2903073972
 30
0.0
 40
0.0312499999999971
 50
315.0
 51
135.0
  0
ARC
  5
13F
  8
0
  6
CONTINUOUS
 62
     7
 10
-5.5330598545
 20
-1.852412436
 30
0.0
 40
0.0312499999999922
 50
225.0000000001
 51
45.0
  0
ARC
  5
140
  8
0
  6
CONTINUOUS
 62
     7
 10
-5.5330598545
 20
-1.5029058224
 30
0.0
 40
0.0312500000000075
 50
315.0
 51
134.9999999999
  0
ARC
  5
141
  8
0
  6
CONTINUOUS
 62
     7
 10
-5.5330598545
 20
-1.0650108612
 30
0.0
 40
0.0312499999999795
 50
224.9999999999
 51
44.9999999999
  0
ARC
  5
142
  8
0
  6
CONTINUOUS
 62
     7
 10
-5.3549102482
 20
-0.7963100738
 30
0.0
 40
0.0312499999999929
 50
224.9999999997
 51
45.0000000001
  0
ARC
  5
143
  8
0
  6
CONTINUOUS
 62
     7
 10
-4.917015287
 20
-0.7963100738
 30
0.0
 40
0.0312500000000072
 50
135.0
 51
315.0
  0
ARC
  5
144
  8
0
  6
CONTINUOUS
 62
     7
 10
-4.1322908775
 20
-1.1900108612
 30
0.0
 40
0.0312500000000079
 50
135.0
 51
315.0
  0
ARC
  5
145
  8
0
  6
CONTINUOUS
 62
     7
 10
-3.9796346576
 20
-1.1900108612
 30
0.0
 40
0.0312499999999891
 50
225.0
 51
45.0
  0
ARC
  5
146
  8
0
  6
CONTINUOUS
 62
     7
 10
-3.1949102482
 20
-0.7963100738
 30
0.0
 40
0.0312499999999918
 50
225.0
 51
45.0
  0
ARC
  5
147
  8
0
  6
CONTINUOUS
 62
     7
 10
-2.757015287
 20
-0.9278140108
 30
0.0
 40
0.0312499999999831
 50
135.0000000001
 51
315.0
  0
ARC
  5
148
  8
0
  6
CONTINUOUS
 62
     7
 10
3.0461133738
 20
-0.9278140108
 30
0.0
 40
0.0312500000000136
 50
225.0000000005
 51
45.0000000005
  0
ARC
  5
149
  8
0
  6
CONTINUOUS
 62
     7
 10
3.484008335
 20
-0.7963100738
 30
0.0
 40
0.0312499999999829
 50
134.9999999999
 51
315.0
  0
ARC
  5
14A
  8
0
  6
CONTINUOUS
 62
     7
 10
5.2061133738
 20
-0.7963100738
 30
0.0
 40
0.0312499999999833
 50
225.0
 51
45.0
  0
ARC
  5
14B
  8
0
  6
CONTINUOUS
 62
     7
 10
5.644008335
 20
-0.7963100738
 30
0.0
 40
0.0312500000000108
 50
134.9999999999
 51
314.9999999999
  0
ARC
  5
14C
  8
0
  6
CONTINUOUS
 62
     7
 10
5.8221579413
 20
-1.0650108612
 30
0.0
 40
0.0312500000000105
 50
135.0
 51
315.0
  0
ARC
  5
14D
  8
0
  6
CONTINUOUS
 62
     7
 10
5.8221579413
 20
-1.5029058224
 30
0.0
 40
0.0312499999999957
 50
45.0
 51
225.0
  0
ARC
  5
14E
  8
0
  6
CONTINUOUS
 62
     7
 10
5.8221579413
 20
-1.852412436
 30
0.0
 40
0.0312499999999954
 50
135.0
 51
315.0
  0
ARC
  5
14F
  8
0
  6
CONTINUOUS
 62
     7
 10
5.8221579413
 20
-2.2903073972
 30
0.0
 40
0.0312500000000106
 50
45.0
 51
225.0
  0
ARC
  5
150
  8
0
  6
CONTINUOUS
 62
     7
 10
5.5721579413
 20
-2.3720081846
 30
0.0
 40
0.0312500000000021
 50
45.0
 51
225.0000000001
  0
ARC
  5
151
  8
0
  6
CONTINUOUS
 62
     7
 10
5.4925289243
 20
-2.4340081846
 30
0.0
 40
0.0312500000000081
 50
45.0
 51
225.0
  0
ARC
  5
152
  8
0
  6
CONTINUOUS
 62
     7
 10
5.2779637675
 20
-2.3720081846
 30
0.0
 40
0.0312499999999977
 50
314.9999999999
 51
134.9999999999
  0
ENDSEC
  0
EOF
