  0
SECTION
  2
HEADER
  9
$ACADVER
  1
AC1009
  9
$DWGCODEPAGE
  3
ansi_1252
  9
$INSBASE
 10
0.0
 20
0.0
 30
0.0
  9
$EXTMIN
 10
-0.3125
 20
-0.3125
 30
0.0
  9
$EXTMAX
 10
11.623523622
 20
11.623523622
 30
0.0
  9
$LIMMIN
 10
0.0
 20
0.0
  9
$LIMMAX
 10
12.0
 20
9.0
  9
$ORTHOMODE
 70
     0
  9
$REGENMODE
 70
     1
  9
$FILLMODE
 70
     1
  9
$QTEXTMODE
 70
     0
  9
$MIRRTEXT
 70
     1
  9
$DRAGMODE
 70
     2
  9
$LTSCALE
 40
1.0
  9
$OSMODE
 70
    37
  9
$ATTMODE
 70
     1
  9
$TEXTSIZE
 40
0.1377952756
  9
$TRACEWID
 40
0.05
  9
$TEXTSTYLE
  7
STANDARD
  9
$CLAYER
  8
0
  9
$CELTYPE
  6
BYLAYER
  9
$CECOLOR
 62
   256
  9
$DIMSCALE
 40
1.0
  9
$DIMASZ
 40
0.13
  9
$DIMEXO
 40
0.0393700787
  9
$DIMDLI
 40
0.38
  9
$DIMRND
 40
0.0
  9
$DIMDLE
 40
0.0
  9
$DIMEXE
 40
0.0393700787
  9
$DIMTP
 40
0.0
  9
$DIMTM
 40
0.0
  9
$DIMTXT
 40
0.1377952756
  9
$DIMCEN
 40
0.09
  9
$DIMTSZ
 40
0.0
  9
$DIMTOL
 70
     0
  9
$DIMLIM
 70
     0
  9
$DIMTIH
 70
     1
  9
$DIMTOH
 70
     1
  9
$DIMSE1
 70
     0
  9
$DIMSE2
 70
     0
  9
$DIMTAD
 70
     1
  9
$DIMZIN
 70
     1
  9
$DIMBLK
  1

  9
$DIMASO
 70
     1
  9
$DIMSHO
 70
     1
  9
$DIMPOST
  1

  9
$DIMAPOST
  1

  9
$DIMALT
 70
     0
  9
$DIMALTD
 70
     2
  9
$DIMALTF
 40
25.4
  9
$DIMLFAC
 40
1.0
  9
$DIMTOFL
 70
     0
  9
$DIMTVP
 40
0.0
  9
$DIMTIX
 70
     0
  9
$DIMSOXD
 70
     0
  9
$DIMSAH
 70
     0
  9
$DIMBLK1
  1

  9
$DIMBLK2
  1

  9
$DIMSTYLE
  2
STANDARD
  9
$DIMCLRD
 70
     0
  9
$DIMCLRE
 70
     0
  9
$DIMCLRT
 70
     0
  9
$DIMTFAC
 40
1.0
  9
$DIMGAP
 40
0.06
  9
$LUNITS
 70
     2
  9
$LUPREC
 70
     8
  9
$SKETCHINC
 40
0.1
  9
$FILLETRAD
 40
0.5
  9
$AUNITS
 70
     0
  9
$AUPREC
 70
     2
  9
$MENU
  1
.
  9
$ELEVATION
 40
0.0
  9
$PELEVATION
 40
0.0
  9
$THICKNESS
 40
0.0
  9
$LIMCHECK
 70
     0
  9
$CHAMFERA
 40
0.0
  9
$CHAMFERB
 40
0.0
  9
$SKPOLY
 70
     0
  9
$TDCREATE
 40
2458270.791670752
  9
$TDUPDATE
 40
2458270.791701285
  9
$TDINDWG
 40
0.0000000116
  9
$TDUSRTIMER
 40
0.0000000116
  9
$USRTIMER
 70
     1
  9
$ANGBASE
 50
0.0
  9
$ANGDIR
 70
     0
  9
$PDMODE
 70
     0
  9
$PDSIZE
 40
-1.0
  9
$PLINEWID
 40
0.0
  9
$COORDS
 70
     1
  9
$SPLFRAME
 70
     0
  9
$SPLINETYPE
 70
     6
  9
$SPLINESEGS
 70
     8
  9
$ATTDIA
 70
     0
  9
$ATTREQ
 70
     1
  9
$HANDLING
 70
     1
  9
$HANDSEED
  5
2D3
  9
$SURFTAB1
 70
     6
  9
$SURFTAB2
 70
     6
  9
$SURFTYPE
 70
     6
  9
$SURFU
 70
     6
  9
$SURFV
 70
     6
  9
$UCSNAME
  2

  9
$UCSORG
 10
0.0
 20
0.0
 30
0.0
  9
$UCSXDIR
 10
1.0
 20
0.0
 30
0.0
  9
$UCSYDIR
 10
0.0
 20
1.0
 30
0.0
  9
$PUCSNAME
  2

  9
$PUCSORG
 10
0.0
 20
0.0
 30
0.0
  9
$PUCSXDIR
 10
1.0
 20
0.0
 30
0.0
  9
$PUCSYDIR
 10
0.0
 20
1.0
 30
0.0
  9
$USERI1
 70
     0
  9
$USERI2
 70
     0
  9
$USERI3
 70
     0
  9
$USERI4
 70
     0
  9
$USERI5
 70
     0
  9
$USERR1
 40
0.0
  9
$USERR2
 40
0.0
  9
$USERR3
 40
0.0
  9
$USERR4
 40
0.0
  9
$USERR5
 40
0.0
  9
$WORLDVIEW
 70
     1
  9
$SHADEDGE
 70
     3
  9
$SHADEDIF
 70
    70
  9
$TILEMODE
 70
     1
  9
$MAXACTVP
 70
    64
  9
$PLIMCHECK
 70
     0
  9
$PEXTMIN
 10
1.0000000000E+20
 20
1.0000000000E+20
 30
1.0000000000E+20
  9
$PEXTMAX
 10
-1.0000000000E+20
 20
-1.0000000000E+20
 30
-1.0000000000E+20
  9
$PLIMMIN
 10
0.0
 20
0.0
  9
$PLIMMAX
 10
12.0
 20
9.0
  9
$UNITMODE
 70
     0
  9
$VISRETAIN
 70
     1
  9
$PLINEGEN
 70
     0
  9
$PSLTSCALE
 70
     1
  0
ENDSEC
  0
SECTION
  2
TABLES
  0
TABLE
  2
VPORT
 70
     1
  0
VPORT
  2
*ACTIVE
 70
     0
 10
0.0
 20
0.0
 11
1.0
 21
1.0
 12
5.655511811
 22
5.655511811
 13
0.0
 23
0.0
 14
0.5
 24
0.5
 15
0.5
 25
0.5
 16
0.0
 26
0.0
 36
1.0
 17
0.0
 27
0.0
 37
0.0
 40
12.1747440945
 41
1.0
 42
50.0
 43
0.0
 44
0.0
 50
0.0
 51
0.0
 71
     0
 72
   100
 73
     1
 74
     3
 75
     0
 76
     0
 77
     0
 78
     0
  0
ENDTAB
  0
TABLE
  2
LTYPE
 70
     6
  0
LTYPE
  2
CONTINUOUS
 70
     0
  3
Solid line
 72
    65
 73
     0
 40
0.0
  0
LTYPE
  2
HIDDEN
 70
     0
  3
Hidden __ __ __ __ __ __ __ __ __ __ __ __ __ __
 72
    65
 73
     2
 40
0.075
 49
0.05
 49
-0.025
  0
LTYPE
  2
PHANTOM
 70
     0
  3
Phantom ______  __  __  ______  __  __  ______
 72
    65
 73
     6
 40
0.5
 49
0.25
 49
-0.05
 49
0.05
 49
-0.05
 49
0.05
 49
-0.05
  0
LTYPE
  2
CENTER
 70
     0
  3
Center ____ _ ____ _ ____ _ ____ _ ____ _ ____
 72
    65
 73
     4
 40
0.4
 49
0.25
 49
-0.05
 49
0.05
 49
-0.05
  0
LTYPE
  2
CENTERX2
 70
     0
  3
Center (2x) ________  __  ________  __  _____
 72
    65
 73
     4
 40
0.8
 49
0.5
 49
-0.1
 49
0.1
 49
-0.1
  0
LTYPE
  2
DOT2
 70
     0
  3
Dot (.5x) ........................................
 72
    65
 73
     2
 40
0.025
 49
0.0
 49
-0.025
  0
ENDTAB
  0
TABLE
  2
LAYER
 70
     1
  0
LAYER
  2
0
 70
     0
 62
     7
  6
CONTINUOUS
  0
ENDTAB
  0
TABLE
  2
STYLE
 70
     1
  0
STYLE
  2
STANDARD
 70
     0
 40
0.0
 41
1.0
 50
0.0
 71
     0
 42
0.1377952756
  3
txt
  4

  0
ENDTAB
  0
TABLE
  2
VIEW
 70
     0
  0
ENDTAB
  0
TABLE
  2
UCS
 70
     0
  0
ENDTAB
  0
TABLE
  2
APPID
 70
     1
  0
APPID
  2
ACAD
 70
     0
  0
ENDTAB
  0
TABLE
  2
DIMSTYLE
 70
     1
  0
DIMSTYLE
  2
STANDARD
 70
     0
  3

  4

  5

  6

  7

 40
1.0
 41
0.18
 42
0.0625
 43
0.38
 44
0.18
 45
0.0
 46
0.0
 47
0.0
 48
0.0
140
0.18
141
0.09
142
0.0
143
25.4
144
1.0
145
0.0
146
1.0
147
0.09
 71
     0
 72
     0
 73
     1
 74
     1
 75
     0
 76
     0
 77
     0
 78
     0
170
     0
171
     2
172
     0
173
     0
174
     0
175
     0
176
     0
177
     0
178
     0
  0
ENDTAB
  0
ENDSEC
  0
SECTION
  2
BLOCKS
  0
BLOCK
  8
0
  2
$MODEL_SPACE
 70
     0
 10
0.0
 20
0.0
 30
0.0
  3
$MODEL_SPACE
  1

  0
ENDBLK
  5
21
  8
0
  0
BLOCK
 67
     1
  8
0
  2
$PAPER_SPACE
 70
     0
 10
0.0
 20
0.0
 30
0.0
  3
$PAPER_SPACE
  1

  0
ENDBLK
  5
1D
 67
     1
  8
0
  0
ENDSEC
  0
SECTION
  2
ENTITIES
  0
LINE
  5
1A3
  8
0
  6
CONTINUOUS
 62
     7
 10
4.1786220015
 20
0.3873389185
 30
0.0
 11
4.1786220015
 21
2.5187956114
 31
0.0
  0
LINE
  5
1A4
  8
0
  6
CONTINUOUS
 62
     7
 10
4.1161220015
 20
2.5812956114
 30
0.0
 11
4.0442716078
 21
2.5812956114
 31
0.0
  0
LINE
  5
1A5
  8
0
  6
CONTINUOUS
 62
     7
 10
3.9817716078
 20
2.5187956114
 30
0.0
 11
3.9817716078
 21
0.3873389185
 31
0.0
  0
LINE
  5
1A6
  8
0
  6
CONTINUOUS
 62
     7
 10
4.0442716078
 20
0.3248389185
 30
0.0
 11
4.1161220015
 21
0.3248389185
 31
0.0
  0
LINE
  5
1A7
  8
0
  6
CONTINUOUS
 62
     7
 10
7.3282283007
 20
0.3873389185
 30
0.0
 11
7.3282283007
 21
2.5187956114
 31
0.0
  0
LINE
  5
1A8
  8
0
  6
CONTINUOUS
 62
     7
 10
7.2657283007
 20
2.5812956114
 30
0.0
 11
7.193877907
 21
2.5812956114
 31
0.0
  0
LINE
  5
1A9
  8
0
  6
CONTINUOUS
 62
     7
 10
7.131377907
 20
2.5187956114
 30
0.0
 11
7.131377907
 21
0.3873389185
 31
0.0
  0
LINE
  5
1AA
  8
0
  6
CONTINUOUS
 62
     7
 10
7.193877907
 20
0.3248389185
 30
0.0
 11
7.2657283007
 21
0.3248389185
 31
0.0
  0
LINE
  5
1AB
  8
0
  6
CONTINUOUS
 62
     7
 10
6.0127755448
 20
0.3248389185
 30
0.0
 11
6.0846259385
 21
0.3248389185
 31
0.0
  0
LINE
  5
1AC
  8
0
  6
CONTINUOUS
 62
     7
 10
6.1471259385
 20
0.3873389185
 30
0.0
 11
6.1471259385
 21
2.5187956114
 31
0.0
  0
LINE
  5
1AD
  8
0
  6
CONTINUOUS
 62
     7
 10
6.0846259385
 20
2.5812956114
 30
0.0
 11
6.0127755448
 21
2.5812956114
 31
0.0
  0
LINE
  5
1AE
  8
0
  6
CONTINUOUS
 62
     7
 10
5.9502755448
 20
2.5187956114
 30
0.0
 11
5.9502755448
 21
0.3873389185
 31
0.0
  0
LINE
  5
1AF
  8
0
  6
CONTINUOUS
 62
     7
 10
5.7534251511
 20
0.3873389185
 30
0.0
 11
5.7534251511
 21
2.5187956114
 31
0.0
  0
LINE
  5
1B0
  8
0
  6
CONTINUOUS
 62
     7
 10
5.6909251511
 20
2.5812956114
 30
0.0
 11
5.6190747574
 21
2.5812956114
 31
0.0
  0
LINE
  5
1B1
  8
0
  6
CONTINUOUS
 62
     7
 10
5.5565747574
 20
2.5187956114
 30
0.0
 11
5.5565747574
 21
0.3873389185
 31
0.0
  0
LINE
  5
1B2
  8
0
  6
CONTINUOUS
 62
     7
 10
5.6190747574
 20
0.3248389185
 30
0.0
 11
5.6909251511
 21
0.3248389185
 31
0.0
  0
LINE
  5
1B3
  8
0
  6
CONTINUOUS
 62
     7
 10
6.8001771196
 20
0.3248389185
 30
0.0
 11
6.8720275133
 21
0.3248389185
 31
0.0
  0
LINE
  5
1B4
  8
0
  6
CONTINUOUS
 62
     7
 10
6.9345275133
 20
0.3873389185
 30
0.0
 11
6.9345275133
 21
2.5187956114
 31
0.0
  0
LINE
  5
1B5
  8
0
  6
CONTINUOUS
 62
     7
 10
6.8720275133
 20
2.5812956114
 30
0.0
 11
6.8001771196
 21
2.5812956114
 31
0.0
  0
LINE
  5
1B6
  8
0
  6
CONTINUOUS
 62
     7
 10
6.7376771196
 20
2.5187956114
 30
0.0
 11
6.7376771196
 21
0.3873389185
 31
0.0
  0
LINE
  5
1B7
  8
0
  6
CONTINUOUS
 62
     7
 10
5.22537397
 20
0.3248389185
 30
0.0
 11
5.2972243637
 21
0.3248389185
 31
0.0
  0
LINE
  5
1B8
  8
0
  6
CONTINUOUS
 62
     7
 10
5.3597243637
 20
0.3873389185
 30
0.0
 11
5.3597243637
 21
2.5187956114
 31
0.0
  0
LINE
  5
1B9
  8
0
  6
CONTINUOUS
 62
     7
 10
5.2972243637
 20
2.5812956114
 30
0.0
 11
5.22537397
 21
2.5812956114
 31
0.0
  0
LINE
  5
1BA
  8
0
  6
CONTINUOUS
 62
     7
 10
5.16287397
 20
2.5187956114
 30
0.0
 11
5.16287397
 21
0.3873389185
 31
0.0
  0
LINE
  5
1BB
  8
0
  6
CONTINUOUS
 62
     7
 10
4.9660235763
 20
0.3873389185
 30
0.0
 11
4.9660235763
 21
2.5187956114
 31
0.0
  0
LINE
  5
1BC
  8
0
  6
CONTINUOUS
 62
     7
 10
4.9035235763
 20
2.5812956114
 30
0.0
 11
4.8316731826
 21
2.5812956114
 31
0.0
  0
LINE
  5
1BD
  8
0
  6
CONTINUOUS
 62
     7
 10
4.7691731826
 20
2.5187956114
 30
0.0
 11
4.7691731826
 21
0.3873389185
 31
0.0
  0
LINE
  5
1BE
  8
0
  6
CONTINUOUS
 62
     7
 10
4.8316731826
 20
0.3248389185
 30
0.0
 11
4.9035235763
 21
0.3248389185
 31
0.0
  0
LINE
  5
1BF
  8
0
  6
CONTINUOUS
 62
     7
 10
6.5408267259
 20
0.3873389185
 30
0.0
 11
6.5408267259
 21
2.5187956114
 31
0.0
  0
LINE
  5
1C0
  8
0
  6
CONTINUOUS
 62
     7
 10
6.4783266929
 20
2.5812956114
 30
0.0
 11
6.4065451806
 21
2.5812955735
 31
0.0
  0
LINE
  5
1C1
  8
0
  6
CONTINUOUS
 62
     7
 10
6.3439763322
 20
2.5187956114
 30
0.0
 11
6.3439763322
 21
0.3873389185
 31
0.0
  0
LINE
  5
1C2
  8
0
  6
CONTINUOUS
 62
     7
 10
6.4064763322
 20
0.3248389185
 30
0.0
 11
6.4783267259
 21
0.3248389185
 31
0.0
  0
LINE
  5
1C3
  8
0
  6
CONTINUOUS
 62
     7
 10
4.4379723952
 20
8.7297280106
 30
0.0
 11
4.5098227889
 21
8.7297280106
 31
0.0
  0
LINE
  5
1C4
  8
0
  6
CONTINUOUS
 62
     7
 10
4.5723227889
 20
8.7922280106
 30
0.0
 11
4.5723227889
 21
10.9236847035
 31
0.0
  0
LINE
  5
1C5
  8
0
  6
CONTINUOUS
 62
     7
 10
4.5098227889
 20
10.9861847035
 30
0.0
 11
4.4379723952
 21
10.9861847035
 31
0.0
  0
LINE
  5
1C6
  8
0
  6
CONTINUOUS
 62
     7
 10
4.3754723952
 20
10.9236847035
 30
0.0
 11
4.3754723952
 21
8.7922280106
 31
0.0
  0
LINE
  5
1C7
  8
0
  6
CONTINUOUS
 62
     7
 10
6.4064762802
 20
8.7297280296
 30
0.0
 11
6.4783267069
 21
8.7297279916
 31
0.0
  0
LINE
  5
1C8
  8
0
  6
CONTINUOUS
 62
     7
 10
6.5408267069
 20
8.7922279916
 30
0.0
 11
6.5408267069
 21
10.9236846846
 31
0.0
  0
LINE
  5
1C9
  8
0
  6
CONTINUOUS
 62
     7
 10
6.4783267259
 20
10.9861847035
 30
0.0
 11
6.4064763322
 21
10.9861847035
 31
0.0
  0
LINE
  5
1CA
  8
0
  6
CONTINUOUS
 62
     7
 10
6.3439763322
 20
10.923684693
 30
0.0
 11
6.3439763322
 21
8.7922280106
 31
0.0
  0
LINE
  5
1CB
  8
0
  6
CONTINUOUS
 62
     7
 10
4.8316731826
 20
8.7297280106
 30
0.0
 11
4.9035235763
 21
8.7297280106
 31
0.0
  0
LINE
  5
1CC
  8
0
  6
CONTINUOUS
 62
     7
 10
4.9660235763
 20
8.7922280106
 30
0.0
 11
4.9660235763
 21
10.9236847035
 31
0.0
  0
LINE
  5
1CD
  8
0
  6
CONTINUOUS
 62
     7
 10
4.9035235763
 20
10.9861847035
 30
0.0
 11
4.8316731826
 21
10.9861847035
 31
0.0
  0
LINE
  5
1CE
  8
0
  6
CONTINUOUS
 62
     7
 10
4.7691731826
 20
10.9236847035
 30
0.0
 11
4.7691731826
 21
8.7922280106
 31
0.0
  0
LINE
  5
1CF
  8
0
  6
CONTINUOUS
 62
     7
 10
5.3597243637
 20
8.7922280106
 30
0.0
 11
5.3597243637
 21
10.9236847035
 31
0.0
  0
LINE
  5
1D0
  8
0
  6
CONTINUOUS
 62
     7
 10
5.2972243637
 20
10.9861847035
 30
0.0
 11
5.22537397
 21
10.9861847035
 31
0.0
  0
LINE
  5
1D1
  8
0
  6
CONTINUOUS
 62
     7
 10
5.16287397
 20
10.9236847035
 30
0.0
 11
5.16287397
 21
8.7922280106
 31
0.0
  0
LINE
  5
1D2
  8
0
  6
CONTINUOUS
 62
     7
 10
5.22537397
 20
8.7297280106
 30
0.0
 11
5.2972243637
 21
8.7297280106
 31
0.0
  0
LINE
  5
1D3
  8
0
  6
CONTINUOUS
 62
     7
 10
6.9345275133
 20
8.7922280106
 30
0.0
 11
6.9345275133
 21
10.9236847035
 31
0.0
  0
LINE
  5
1D4
  8
0
  6
CONTINUOUS
 62
     7
 10
6.8720275133
 20
10.9861847035
 30
0.0
 11
6.8001771196
 21
10.9861847035
 31
0.0
  0
LINE
  5
1D5
  8
0
  6
CONTINUOUS
 62
     7
 10
6.7376771196
 20
10.9236847035
 30
0.0
 11
6.7376771196
 21
8.7922280106
 31
0.0
  0
LINE
  5
1D6
  8
0
  6
CONTINUOUS
 62
     7
 10
6.8001771196
 20
8.7297280106
 30
0.0
 11
6.8720275133
 21
8.7297280106
 31
0.0
  0
LINE
  5
1D7
  8
0
  6
CONTINUOUS
 62
     7
 10
5.6190747574
 20
8.7297280106
 30
0.0
 11
5.6909251511
 21
8.7297280106
 31
0.0
  0
LINE
  5
1D8
  8
0
  6
CONTINUOUS
 62
     7
 10
5.7534251511
 20
8.7922280106
 30
0.0
 11
5.7534251511
 21
10.9236847035
 31
0.0
  0
LINE
  5
1D9
  8
0
  6
CONTINUOUS
 62
     7
 10
5.6909251511
 20
10.9861847035
 30
0.0
 11
5.6190747574
 21
10.9861847035
 31
0.0
  0
LINE
  5
1DA
  8
0
  6
CONTINUOUS
 62
     7
 10
5.5565747574
 20
10.9236847035
 30
0.0
 11
5.5565747574
 21
8.7922280106
 31
0.0
  0
LINE
  5
1DB
  8
0
  6
CONTINUOUS
 62
     7
 10
4.5723227889
 20
0.3873389185
 30
0.0
 11
4.5723227889
 21
2.5187956114
 31
0.0
  0
LINE
  5
1DC
  8
0
  6
CONTINUOUS
 62
     7
 10
4.5098227889
 20
2.5812956114
 30
0.0
 11
4.4379723952
 21
2.5812956114
 31
0.0
  0
LINE
  5
1DD
  8
0
  6
CONTINUOUS
 62
     7
 10
4.3754723952
 20
2.5187956114
 30
0.0
 11
4.3754723952
 21
0.3873389185
 31
0.0
  0
LINE
  5
1DE
  8
0
  6
CONTINUOUS
 62
     7
 10
4.4379723952
 20
0.3248389185
 30
0.0
 11
4.5098227889
 21
0.3248389185
 31
0.0
  0
LINE
  5
1DF
  8
0
  6
CONTINUOUS
 62
     7
 10
6.1471259385
 20
8.7922280106
 30
0.0
 11
6.1471259385
 21
10.9236847035
 31
0.0
  0
LINE
  5
1E0
  8
0
  6
CONTINUOUS
 62
     7
 10
6.0846259385
 20
10.9861847035
 30
0.0
 11
6.0127755448
 21
10.9861847035
 31
0.0
  0
LINE
  5
1E1
  8
0
  6
CONTINUOUS
 62
     7
 10
5.9502755448
 20
10.9236847035
 30
0.0
 11
5.9502755448
 21
8.7922280106
 31
0.0
  0
LINE
  5
1E2
  8
0
  6
CONTINUOUS
 62
     7
 10
6.0127755448
 20
8.7297280106
 30
0.0
 11
6.0846259385
 21
8.7297280106
 31
0.0
  0
LINE
  5
1E3
  8
0
  6
CONTINUOUS
 62
     7
 10
7.193877907
 20
8.7297280106
 30
0.0
 11
7.2657283007
 21
8.7297280106
 31
0.0
  0
LINE
  5
1E4
  8
0
  6
CONTINUOUS
 62
     7
 10
7.3282283007
 20
8.7922280106
 30
0.0
 11
7.3282283007
 21
10.9236847035
 31
0.0
  0
LINE
  5
1E5
  8
0
  6
CONTINUOUS
 62
     7
 10
7.2657283007
 20
10.9861847035
 30
0.0
 11
7.193877907
 21
10.9861847035
 31
0.0
  0
LINE
  5
1E6
  8
0
  6
CONTINUOUS
 62
     7
 10
7.131377907
 20
10.9236847035
 30
0.0
 11
7.131377907
 21
8.7922280106
 31
0.0
  0
LINE
  5
1E7
  8
0
  6
CONTINUOUS
 62
     7
 10
4.0442716078
 20
8.7297280106
 30
0.0
 11
4.1161220015
 21
8.7297280106
 31
0.0
  0
LINE
  5
1E8
  8
0
  6
CONTINUOUS
 62
     7
 10
4.1786220015
 20
8.7922280106
 30
0.0
 11
4.1786220015
 21
10.9236847035
 31
0.0
  0
LINE
  5
1E9
  8
0
  6
CONTINUOUS
 62
     7
 10
4.1161220015
 20
10.9861847035
 30
0.0
 11
4.0442716078
 21
10.9861847035
 31
0.0
  0
LINE
  5
1EA
  8
0
  6
CONTINUOUS
 62
     7
 10
3.9817716078
 20
10.923684693
 30
0.0
 11
3.9817716078
 21
8.7922280106
 31
0.0
  0
LINE
  5
1EB
  8
0
  6
CONTINUOUS
 62
     7
 10
11.1069618699
 20
9.7146981219
 30
0.0
 11
11.1069618699
 21
9.717519685
 31
0.0
  0
LINE
  5
1EC
  8
0
  6
CONTINUOUS
 62
     7
 10
11.1069618699
 20
9.717519685
 30
0.0
 11
11.1044618699
 21
9.717519685
 31
0.0
  0
LINE
  5
1ED
  8
0
  6
CONTINUOUS
 62
     7
 10
11.0602676961
 20
9.717519685
 30
0.0
 11
11.0236560437
 21
9.717519685
 31
0.0
  0
LINE
  5
1EE
  8
0
  6
CONTINUOUS
 62
     7
 10
10.9794618699
 20
9.717519685
 30
0.0
 11
10.9769618699
 21
9.717519685
 31
0.0
  0
LINE
  5
1EF
  8
0
  6
CONTINUOUS
 62
     7
 10
10.9769618699
 20
9.717519685
 30
0.0
 11
10.9769618699
 21
9.7146981219
 31
0.0
  0
LINE
  5
1F0
  8
0
  6
CONTINUOUS
 62
     7
 10
10.9769618699
 20
9.6761470744
 30
0.0
 11
10.9769618699
 21
1.6348765477
 31
0.0
  0
LINE
  5
1F1
  8
0
  6
CONTINUOUS
 62
     7
 10
10.9769618699
 20
1.5963255002
 30
0.0
 11
10.9769618699
 21
1.593503937
 31
0.0
  0
LINE
  5
1F2
  8
0
  6
CONTINUOUS
 62
     7
 10
10.9769618699
 20
1.593503937
 30
0.0
 11
10.9794618699
 21
1.593503937
 31
0.0
  0
LINE
  5
1F3
  8
0
  6
CONTINUOUS
 62
     7
 10
11.0236560437
 20
1.593503937
 30
0.0
 11
11.0602676961
 21
1.593503937
 31
0.0
  0
LINE
  5
1F4
  8
0
  6
CONTINUOUS
 62
     7
 10
11.1044618699
 20
1.593503937
 30
0.0
 11
11.1069618699
 21
1.593503937
 31
0.0
  0
LINE
  5
1F5
  8
0
  6
CONTINUOUS
 62
     7
 10
11.1069618699
 20
1.593503937
 30
0.0
 11
11.1069618699
 21
1.5963255002
 31
0.0
  0
LINE
  5
1F6
  8
0
  6
CONTINUOUS
 62
     7
 10
11.1069618699
 20
1.6348765477
 30
0.0
 11
11.1069618699
 21
9.6761470744
 31
0.0
  0
LINE
  5
1F7
  8
0
  6
CONTINUOUS
 62
     7
 10
11.311023622
 20
5.8965563785
 30
0.0
 11
11.311023622
 21
10.335727086
 31
0.0
  0
LINE
  5
1F8
  8
0
  6
CONTINUOUS
 62
     7
 10
11.3530177666
 20
5.8503622047
 30
0.0
 11
11.623523622
 21
5.8503622047
 31
0.0
  0
LINE
  5
1F9
  8
0
  6
CONTINUOUS
 62
     7
 10
11.623523622
 20
5.4606614173
 30
0.0
 11
11.623523622
 21
5.8503622047
 31
0.0
  0
LINE
  5
1FA
  8
0
  6
CONTINUOUS
 62
     7
 10
11.623523622
 20
5.4606614173
 30
0.0
 11
11.3530177666
 21
5.4606614173
 31
0.0
  0
LINE
  5
1FB
  8
0
  6
CONTINUOUS
 62
     7
 10
11.311023622
 20
0.975296536
 30
0.0
 11
11.311023622
 21
5.4144672435
 31
0.0
  0
LINE
  5
1FC
  8
0
  6
CONTINUOUS
 62
     7
 10
11.3530177666
 20
0.9291023622
 30
0.0
 11
11.623523622
 21
0.9291023622
 31
0.0
  0
LINE
  5
1FD
  8
0
  6
CONTINUOUS
 62
     7
 10
11.623523622
 20
0.5394015748
 30
0.0
 11
11.623523622
 21
0.9291023622
 31
0.0
  0
LINE
  5
1FE
  8
0
  6
CONTINUOUS
 62
     7
 10
11.623523622
 20
0.5394015748
 30
0.0
 11
11.3530177666
 21
0.5394015748
 31
0.0
  0
LINE
  5
1FF
  8
0
  6
CONTINUOUS
 62
     7
 10
11.311023622
 20
0.0
 30
0.0
 11
11.311023622
 21
0.493207401
 31
0.0
  0
LINE
  5
200
  8
0
  6
CONTINUOUS
 62
     7
 10
10.8178162211
 20
0.0
 30
0.0
 11
11.311023622
 21
0.0
 31
0.0
  0
LINE
  5
201
  8
0
  6
CONTINUOUS
 62
     7
 10
10.7716220472
 20
-0.0419941446
 30
0.0
 11
10.7716220472
 21
-0.3125
 31
0.0
  0
LINE
  5
202
  8
0
  6
CONTINUOUS
 62
     7
 10
10.3819212598
 20
-0.3125
 30
0.0
 11
10.7716220472
 21
-0.3125
 31
0.0
  0
LINE
  5
203
  8
0
  6
CONTINUOUS
 62
     7
 10
10.3819212598
 20
-0.3125
 30
0.0
 11
10.3819212598
 21
-0.0419941445
 31
0.0
  0
LINE
  5
204
  8
0
  6
CONTINUOUS
 62
     7
 10
5.8965563785
 20
0.0
 30
0.0
 11
10.335727086
 21
0.0
 31
0.0
  0
LINE
  5
205
  8
0
  6
CONTINUOUS
 62
     7
 10
5.8503622047
 20
-0.0419941446
 30
0.0
 11
5.8503622047
 21
-0.3125
 31
0.0
  0
LINE
  5
206
  8
0
  6
CONTINUOUS
 62
     7
 10
5.4606614173
 20
-0.3125
 30
0.0
 11
5.8503622047
 21
-0.3125
 31
0.0
  0
LINE
  5
207
  8
0
  6
CONTINUOUS
 62
     7
 10
5.4606614173
 20
-0.3125
 30
0.0
 11
5.4606614173
 21
-0.0419941445
 31
0.0
  0
LINE
  5
208
  8
0
  6
CONTINUOUS
 62
     7
 10
0.975296536
 20
0.0
 30
0.0
 11
5.4144672435
 21
0.0
 31
0.0
  0
LINE
  5
209
  8
0
  6
CONTINUOUS
 62
     7
 10
0.9291023622
 20
-0.0419941446
 30
0.0
 11
0.9291023622
 21
-0.3125
 31
0.0
  0
LINE
  5
20A
  8
0
  6
CONTINUOUS
 62
     7
 10
0.5394015748
 20
-0.3125
 30
0.0
 11
0.9291023622
 21
-0.3125
 31
0.0
  0
LINE
  5
20B
  8
0
  6
CONTINUOUS
 62
     7
 10
0.5394015748
 20
-0.3125
 30
0.0
 11
0.5394015748
 21
-0.0419941445
 31
0.0
  0
LINE
  5
20C
  8
0
  6
CONTINUOUS
 62
     7
 10
0.0
 20
0.0
 30
0.0
 11
0.493207401
 21
0.0
 31
0.0
  0
LINE
  5
20D
  8
0
  6
CONTINUOUS
 62
     7
 10
0.0
 20
0.493207401
 30
0.0
 11
0.0
 21
0.0
 31
0.0
  0
LINE
  5
20E
  8
0
  6
CONTINUOUS
 62
     7
 10
-0.0419941445
 20
0.5394015748
 30
0.0
 11
-0.3125
 21
0.5394015748
 31
0.0
  0
LINE
  5
20F
  8
0
  6
CONTINUOUS
 62
     7
 10
-0.3125
 20
0.9291023622
 30
0.0
 11
-0.3125
 21
0.5394015748
 31
0.0
  0
LINE
  5
210
  8
0
  6
CONTINUOUS
 62
     7
 10
-0.3125
 20
0.9291023622
 30
0.0
 11
-0.0419941445
 21
0.9291023622
 31
0.0
  0
LINE
  5
211
  8
0
  6
CONTINUOUS
 62
     7
 10
0.0
 20
5.4144672435
 30
0.0
 11
0.0
 21
0.975296536
 31
0.0
  0
LINE
  5
212
  8
0
  6
CONTINUOUS
 62
     7
 10
-0.0419941445
 20
5.4606614173
 30
0.0
 11
-0.3125
 21
5.4606614173
 31
0.0
  0
LINE
  5
213
  8
0
  6
CONTINUOUS
 62
     7
 10
-0.3125
 20
5.8503622047
 30
0.0
 11
-0.3125
 21
5.4606614173
 31
0.0
  0
LINE
  5
214
  8
0
  6
CONTINUOUS
 62
     7
 10
-0.3125
 20
5.8503622047
 30
0.0
 11
-0.0419941445
 21
5.8503622047
 31
0.0
  0
LINE
  5
215
  8
0
  6
CONTINUOUS
 62
     7
 10
0.0
 20
10.335727086
 30
0.0
 11
0.0
 21
5.8965563786
 31
0.0
  0
LINE
  5
216
  8
0
  6
CONTINUOUS
 62
     7
 10
-0.0419941445
 20
10.3819212598
 30
0.0
 11
-0.3125
 21
10.3819212598
 31
0.0
  0
LINE
  5
217
  8
0
  6
CONTINUOUS
 62
     7
 10
-0.3125
 20
10.7716220472
 30
0.0
 11
-0.3125
 21
10.3819212598
 31
0.0
  0
LINE
  5
218
  8
0
  6
CONTINUOUS
 62
     7
 10
-0.3125
 20
10.7716220472
 30
0.0
 11
-0.0419941445
 21
10.7716220472
 31
0.0
  0
LINE
  5
219
  8
0
  6
CONTINUOUS
 62
     7
 10
0.0
 20
11.311023622
 30
0.0
 11
0.0
 21
10.8178162211
 31
0.0
  0
LINE
  5
21A
  8
0
  6
CONTINUOUS
 62
     7
 10
0.493207401
 20
11.311023622
 30
0.0
 11
0.0
 21
11.311023622
 31
0.0
  0
LINE
  5
21B
  8
0
  6
CONTINUOUS
 62
     7
 10
0.5394015748
 20
11.3530177666
 30
0.0
 11
0.5394015748
 21
11.623523622
 31
0.0
  0
LINE
  5
21C
  8
0
  6
CONTINUOUS
 62
     7
 10
0.9291023622
 20
11.623523622
 30
0.0
 11
0.5394015748
 21
11.623523622
 31
0.0
  0
LINE
  5
21D
  8
0
  6
CONTINUOUS
 62
     7
 10
0.9291023622
 20
11.623523622
 30
0.0
 11
0.9291023622
 21
11.3530177666
 31
0.0
  0
LINE
  5
21E
  8
0
  6
CONTINUOUS
 62
     7
 10
5.4144672435
 20
11.311023622
 30
0.0
 11
0.975296536
 21
11.311023622
 31
0.0
  0
LINE
  5
21F
  8
0
  6
CONTINUOUS
 62
     7
 10
5.4606614173
 20
11.3530177666
 30
0.0
 11
5.4606614173
 21
11.623523622
 31
0.0
  0
LINE
  5
220
  8
0
  6
CONTINUOUS
 62
     7
 10
5.8503622047
 20
11.623523622
 30
0.0
 11
5.4606614173
 21
11.623523622
 31
0.0
  0
LINE
  5
221
  8
0
  6
CONTINUOUS
 62
     7
 10
5.8503622047
 20
11.623523622
 30
0.0
 11
5.8503622047
 21
11.3530177666
 31
0.0
  0
LINE
  5
222
  8
0
  6
CONTINUOUS
 62
     7
 10
10.335727086
 20
11.311023622
 30
0.0
 11
5.8965563785
 21
11.311023622
 31
0.0
  0
LINE
  5
223
  8
0
  6
CONTINUOUS
 62
     7
 10
10.3819212598
 20
11.3530177666
 30
0.0
 11
10.3819212598
 21
11.623523622
 31
0.0
  0
LINE
  5
224
  8
0
  6
CONTINUOUS
 62
     7
 10
10.7716220472
 20
11.623523622
 30
0.0
 11
10.3819212598
 21
11.623523622
 31
0.0
  0
LINE
  5
225
  8
0
  6
CONTINUOUS
 62
     7
 10
10.7716220472
 20
11.623523622
 30
0.0
 11
10.7716220472
 21
11.3530177666
 31
0.0
  0
LINE
  5
226
  8
0
  6
CONTINUOUS
 62
     7
 10
11.311023622
 20
11.311023622
 30
0.0
 11
10.8178162211
 21
11.311023622
 31
0.0
  0
LINE
  5
227
  8
0
  6
CONTINUOUS
 62
     7
 10
11.311023622
 20
10.8178162211
 30
0.0
 11
11.311023622
 21
11.311023622
 31
0.0
  0
LINE
  5
228
  8
0
  6
CONTINUOUS
 62
     7
 10
11.3530177666
 20
10.7716220472
 30
0.0
 11
11.623523622
 21
10.7716220472
 31
0.0
  0
LINE
  5
229
  8
0
  6
CONTINUOUS
 62
     7
 10
11.623523622
 20
10.3819212598
 30
0.0
 11
11.623523622
 21
10.7716220472
 31
0.0
  0
LINE
  5
22A
  8
0
  6
CONTINUOUS
 62
     7
 10
11.623523622
 20
10.3819212598
 30
0.0
 11
11.3530177666
 21
10.3819212598
 31
0.0
  0
LINE
  5
22B
  8
0
  6
CONTINUOUS
 62
     7
 10
3.4457168504
 20
10.7342404933
 30
0.0
 11
3.6142829812
 21
10.7342404933
 31
0.0
  0
LINE
  5
22C
  8
0
  6
CONTINUOUS
 62
     7
 10
3.6579999158
 20
10.7779574279
 30
0.0
 11
3.6579999158
 21
11.0902243461
 31
0.0
  0
LINE
  5
22D
  8
0
  6
CONTINUOUS
 62
     7
 10
3.6142829812
 20
11.1339412807
 30
0.0
 11
3.4457168504
 21
11.1339412807
 31
0.0
  0
LINE
  5
22E
  8
0
  6
CONTINUOUS
 62
     7
 10
3.4019999158
 20
11.0902243461
 30
0.0
 11
3.4019999158
 21
10.7779574279
 31
0.0
  0
LINE
  5
22F
  8
0
  6
CONTINUOUS
 62
     7
 10
3.4457168504
 20
2.3370823414
 30
0.0
 11
3.6142829812
 21
2.3370823414
 31
0.0
  0
LINE
  5
230
  8
0
  6
CONTINUOUS
 62
     7
 10
3.6579999158
 20
2.380799276
 30
0.0
 11
3.6579999158
 21
2.6930661942
 31
0.0
  0
LINE
  5
231
  8
0
  6
CONTINUOUS
 62
     7
 10
3.6142829812
 20
2.7367831288
 30
0.0
 11
3.4457168504
 21
2.7367831288
 31
0.0
  0
LINE
  5
232
  8
0
  6
CONTINUOUS
 62
     7
 10
3.4019999158
 20
2.6930661942
 30
0.0
 11
3.4019999158
 21
2.380799276
 31
0.0
  0
LINE
  5
233
  8
0
  6
CONTINUOUS
 62
     7
 10
7.6957169273
 20
10.7354247882
 30
0.0
 11
7.8642830581
 21
10.7354247882
 31
0.0
  0
LINE
  5
234
  8
0
  6
CONTINUOUS
 62
     7
 10
7.9079999927
 20
10.7791417228
 30
0.0
 11
7.9079999927
 21
11.091408641
 31
0.0
  0
LINE
  5
235
  8
0
  6
CONTINUOUS
 62
     7
 10
7.8642830581
 20
11.1351255756
 30
0.0
 11
7.6957169273
 21
11.1351255756
 31
0.0
  0
LINE
  5
236
  8
0
  6
CONTINUOUS
 62
     7
 10
7.6519999927
 20
11.091408641
 30
0.0
 11
7.6519999927
 21
10.7791417228
 31
0.0
  0
LINE
  5
237
  8
0
  6
CONTINUOUS
 62
     7
 10
7.6957169273
 20
8.5754247882
 30
0.0
 11
7.8642830581
 21
8.5754247882
 31
0.0
  0
LINE
  5
238
  8
0
  6
CONTINUOUS
 62
     7
 10
7.9079999927
 20
8.6191417228
 30
0.0
 11
7.9079999927
 21
8.931408641
 31
0.0
  0
LINE
  5
239
  8
0
  6
CONTINUOUS
 62
     7
 10
7.8642830581
 20
8.9751255756
 30
0.0
 11
7.6957169273
 21
8.9751255756
 31
0.0
  0
LINE
  5
23A
  8
0
  6
CONTINUOUS
 62
     7
 10
7.6519999927
 20
8.931408641
 30
0.0
 11
7.6519999927
 21
8.6191417228
 31
0.0
  0
LINE
  5
23B
  8
0
  6
CONTINUOUS
 62
     7
 10
3.4457168504
 20
8.5742404933
 30
0.0
 11
3.6142829812
 21
8.5742404933
 31
0.0
  0
LINE
  5
23C
  8
0
  6
CONTINUOUS
 62
     7
 10
3.6579999158
 20
8.6179574279
 30
0.0
 11
3.6579999158
 21
8.9302243461
 31
0.0
  0
LINE
  5
23D
  8
0
  6
CONTINUOUS
 62
     7
 10
3.6142829812
 20
8.9739412807
 30
0.0
 11
3.4457168504
 21
8.9739412807
 31
0.0
  0
LINE
  5
23E
  8
0
  6
CONTINUOUS
 62
     7
 10
3.4019999158
 20
8.9302243461
 30
0.0
 11
3.4019999158
 21
8.6179574279
 31
0.0
  0
LINE
  5
23F
  8
0
  6
CONTINUOUS
 62
     7
 10
7.6957169273
 20
2.3358980465
 30
0.0
 11
7.8642830581
 21
2.3358980465
 31
0.0
  0
LINE
  5
240
  8
0
  6
CONTINUOUS
 62
     7
 10
7.9079999927
 20
2.3796149811
 30
0.0
 11
7.9079999927
 21
2.6918818993
 31
0.0
  0
LINE
  5
241
  8
0
  6
CONTINUOUS
 62
     7
 10
7.8642830581
 20
2.7355988339
 30
0.0
 11
7.6957169273
 21
2.7355988339
 31
0.0
  0
LINE
  5
242
  8
0
  6
CONTINUOUS
 62
     7
 10
7.6519999927
 20
2.6918818993
 30
0.0
 11
7.6519999927
 21
2.3796149811
 31
0.0
  0
LINE
  5
243
  8
0
  6
CONTINUOUS
 62
     7
 10
7.6957169273
 20
0.1758980465
 30
0.0
 11
7.8642830581
 21
0.1758980465
 31
0.0
  0
LINE
  5
244
  8
0
  6
CONTINUOUS
 62
     7
 10
7.9079999927
 20
0.2196149811
 30
0.0
 11
7.9079999927
 21
0.5318818993
 31
0.0
  0
LINE
  5
245
  8
0
  6
CONTINUOUS
 62
     7
 10
7.8642830581
 20
0.5755988339
 30
0.0
 11
7.6957169273
 21
0.5755988339
 31
0.0
  0
LINE
  5
246
  8
0
  6
CONTINUOUS
 62
     7
 10
7.6519999927
 20
0.5318818993
 30
0.0
 11
7.6519999927
 21
0.2196149811
 31
0.0
  0
LINE
  5
247
  8
0
  6
CONTINUOUS
 62
     7
 10
3.4457168504
 20
0.1770823414
 30
0.0
 11
3.6142829812
 21
0.1770823414
 31
0.0
  0
LINE
  5
248
  8
0
  6
CONTINUOUS
 62
     7
 10
3.6579999158
 20
0.220799276
 30
0.0
 11
3.6579999158
 21
0.5330661942
 31
0.0
  0
LINE
  5
249
  8
0
  6
CONTINUOUS
 62
     7
 10
3.6142829812
 20
0.5767831288
 30
0.0
 11
3.4457168504
 21
0.5767831288
 31
0.0
  0
LINE
  5
24A
  8
0
  6
CONTINUOUS
 62
     7
 10
3.4019999158
 20
0.5330661942
 30
0.0
 11
3.4019999158
 21
0.220799276
 31
0.0
  0
ARC
  5
24B
  8
0
  6
CONTINUOUS
 62
     7
 10
4.1161220015
 20
0.3873389185
 30
0.0
 40
0.0624999999999289
 50
270.0
 51
0.0
  0
ARC
  5
24C
  8
0
  6
CONTINUOUS
 62
     7
 10
4.1161220015
 20
2.5187956114
 30
0.0
 40
0.0624999999999378
 50
359.9999999999
 51
90.0
  0
ARC
  5
24D
  8
0
  6
CONTINUOUS
 62
     7
 10
4.0442716078
 20
2.5187956114
 30
0.0
 40
0.0624999999999849
 50
90.0
 51
180.0
  0
ARC
  5
24E
  8
0
  6
CONTINUOUS
 62
     7
 10
4.0442716078
 20
0.3873389185
 30
0.0
 40
0.0624999999999765
 50
179.9999999999
 51
270.0
  0
ARC
  5
24F
  8
0
  6
CONTINUOUS
 62
     7
 10
7.2657283007
 20
0.3873389185
 30
0.0
 40
0.0624999999999769
 50
270.0
 51
0.0
  0
ARC
  5
250
  8
0
  6
CONTINUOUS
 62
     7
 10
7.2657283007
 20
2.5187956114
 30
0.0
 40
0.0625000000000568
 50
0.0000000001
 51
90.0
  0
ARC
  5
251
  8
0
  6
CONTINUOUS
 62
     7
 10
7.193877907
 20
2.5187956114
 30
0.0
 40
0.0624999999999889
 50
90.0
 51
180.0
  0
ARC
  5
252
  8
0
  6
CONTINUOUS
 62
     7
 10
7.193877907
 20
0.3873389185
 30
0.0
 40
0.0625000000000481
 50
180.0
 51
270.0
  0
ARC
  5
253
  8
0
  6
CONTINUOUS
 62
     7
 10
6.0127755448
 20
0.3873389185
 30
0.0
 40
0.0625000000000488
 50
180.0
 51
270.0
  0
ARC
  5
254
  8
0
  6
CONTINUOUS
 62
     7
 10
6.0846259385
 20
0.3873389185
 30
0.0
 40
0.0624999999999415
 50
270.0
 51
0.0
  0
ARC
  5
255
  8
0
  6
CONTINUOUS
 62
     7
 10
6.0846259385
 20
2.5187956114
 30
0.0
 40
0.062499999999968
 50
0.0
 51
90.0
  0
ARC
  5
256
  8
0
  6
CONTINUOUS
 62
     7
 10
6.0127755448
 20
2.5187956114
 30
0.0
 40
0.0625000000000915
 50
90.0000000001
 51
179.9999999999
  0
ARC
  5
257
  8
0
  6
CONTINUOUS
 62
     7
 10
5.6909251511
 20
0.3873389185
 30
0.0
 40
0.0624999999999762
 50
270.0
 51
0.0
  0
ARC
  5
258
  8
0
  6
CONTINUOUS
 62
     7
 10
5.6909251511
 20
2.5187956114
 30
0.0
 40
0.0624999999999862
 50
0.0
 51
90.0
  0
ARC
  5
259
  8
0
  6
CONTINUOUS
 62
     7
 10
5.6190747574
 20
2.5187956114
 30
0.0
 40
0.0624999999998805
 50
89.9999999999
 51
180.0000000001
  0
ARC
  5
25A
  8
0
  6
CONTINUOUS
 62
     7
 10
5.6190747574
 20
0.3873389185
 30
0.0
 40
0.0625000000000208
 50
180.0
 51
270.0
  0
ARC
  5
25B
  8
0
  6
CONTINUOUS
 62
     7
 10
6.8001771196
 20
0.3873389185
 30
0.0
 40
0.062500000000008
 50
180.0
 51
270.0
  0
ARC
  5
25C
  8
0
  6
CONTINUOUS
 62
     7
 10
6.8720275133
 20
0.3873389185
 30
0.0
 40
0.0624999999999964
 50
270.0
 51
360.0
  0
ARC
  5
25D
  8
0
  6
CONTINUOUS
 62
     7
 10
6.8720275133
 20
2.5187956114
 30
0.0
 40
0.0624999999999081
 50
359.9999999999
 51
90.0
  0
ARC
  5
25E
  8
0
  6
CONTINUOUS
 62
     7
 10
6.8001771196
 20
2.5187956114
 30
0.0
 40
0.0625000000000404
 50
90.0
 51
180.0
  0
ARC
  5
25F
  8
0
  6
CONTINUOUS
 62
     7
 10
5.22537397
 20
0.3873389185
 30
0.0
 40
0.0624999999999298
 50
179.9999999999
 51
270.0000000001
  0
ARC
  5
260
  8
0
  6
CONTINUOUS
 62
     7
 10
5.2972243637
 20
0.3873389185
 30
0.0
 40
0.0624999999999424
 50
270.0
 51
0.0
  0
ARC
  5
261
  8
0
  6
CONTINUOUS
 62
     7
 10
5.2972243637
 20
2.5187956114
 30
0.0
 40
0.0625000000000098
 50
0.0
 51
90.0
  0
ARC
  5
262
  8
0
  6
CONTINUOUS
 62
     7
 10
5.22537397
 20
2.5187956114
 30
0.0
 40
0.0624999999999263
 50
89.9999999999
 51
180.0
  0
ARC
  5
263
  8
0
  6
CONTINUOUS
 62
     7
 10
4.9035235763
 20
0.3873389185
 30
0.0
 40
0.0624999999999415
 50
270.0
 51
0.0
  0
ARC
  5
264
  8
0
  6
CONTINUOUS
 62
     7
 10
4.9035235763
 20
2.5187956114
 30
0.0
 40
0.0625000000000036
 50
0.0
 51
90.0
  0
ARC
  5
265
  8
0
  6
CONTINUOUS
 62
     7
 10
4.8316731826
 20
2.5187956114
 30
0.0
 40
0.0624999999998974
 50
89.9999999999
 51
180.0000000001
  0
ARC
  5
266
  8
0
  6
CONTINUOUS
 62
     7
 10
4.8316731826
 20
0.3873389185
 30
0.0
 40
0.0624999999999787
 50
180.0
 51
270.0
  0
ARC
  5
267
  8
0
  6
CONTINUOUS
 62
     7
 10
6.4783267259
 20
0.3873389185
 30
0.0
 40
0.0625000000000049
 50
270.0
 51
360.0
  0
ARC
  5
268
  8
0
  6
CONTINUOUS
 62
     7
 10
6.4783267259
 20
2.5187956114
 30
0.0
 40
0.0625000000000065
 50
0.0000000001
 51
90.0000302683
  0
ARC
  5
269
  8
0
  6
CONTINUOUS
 62
     7
 10
6.4064763322
 20
2.5187956114
 30
0.0
 40
0.0624999999999567
 50
89.9368843953
 51
180.0
  0
ARC
  5
26A
  8
0
  6
CONTINUOUS
 62
     7
 10
6.4064763322
 20
0.3873389185
 30
0.0
 40
0.0624999999999852
 50
179.9999999999
 51
270.0
  0
ARC
  5
26B
  8
0
  6
CONTINUOUS
 62
     7
 10
4.4379723952
 20
8.7922280106
 30
0.0
 40
0.062499999999984
 50
179.9999999999
 51
269.9999999999
  0
ARC
  5
26C
  8
0
  6
CONTINUOUS
 62
     7
 10
4.5098227889
 20
8.7922280106
 30
0.0
 40
0.0625000000000586
 50
270.0000000001
 51
360.0
  0
ARC
  5
26D
  8
0
  6
CONTINUOUS
 62
     7
 10
4.5098227889
 20
10.9236847035
 30
0.0
 40
0.0625000000000693
 50
0.0000000001
 51
90.0
  0
ARC
  5
26E
  8
0
  6
CONTINUOUS
 62
     7
 10
4.4379723952
 20
10.9236847035
 30
0.0
 40
0.0624999999999751
 50
90.0
 51
180.0
  0
ARC
  5
26F
  8
0
  6
CONTINUOUS
 62
     7
 10
6.4064763132
 20
8.7922280106
 30
0.0
 40
0.0624999810213662
 50
180.0
 51
269.9999697317
  0
ARC
  5
270
  8
0
  6
CONTINUOUS
 62
     7
 10
6.4783267069
 20
8.7922279916
 30
0.0
 40
0.0625000000000178
 50
270.0
 51
360.0
  0
ARC
  5
271
  8
0
  6
CONTINUOUS
 62
     7
 10
6.4783267069
 20
10.9236847035
 30
0.0
 40
0.0624999999999638
 50
359.9999826017
 51
89.9999826017
  0
ARC
  5
272
  8
0
  6
CONTINUOUS
 62
     7
 10
6.4064763427
 20
10.923684693
 30
0.0
 40
0.0625000105367786
 50
90.0000096594
 51
179.9999999999
  0
ARC
  5
273
  8
0
  6
CONTINUOUS
 62
     7
 10
4.8316731826
 20
8.7922280106
 30
0.0
 40
0.0625000000000711
 50
180.0
 51
270.0
  0
ARC
  5
274
  8
0
  6
CONTINUOUS
 62
     7
 10
4.9035235763
 20
8.7922280106
 30
0.0
 40
0.0624999999999778
 50
270.0
 51
0.0
  0
ARC
  5
275
  8
0
  6
CONTINUOUS
 62
     7
 10
4.9035235763
 20
10.9236847035
 30
0.0
 40
0.0624999999999849
 50
0.0
 51
90.0
  0
ARC
  5
276
  8
0
  6
CONTINUOUS
 62
     7
 10
4.8316731826
 20
10.9236847035
 30
0.0
 40
0.0625000000000373
 50
90.0000000001
 51
179.9999999999
  0
ARC
  5
277
  8
0
  6
CONTINUOUS
 62
     7
 10
5.2972243637
 20
8.7922280106
 30
0.0
 40
0.0625000000000515
 50
270.0
 51
0.0
  0
ARC
  5
278
  8
0
  6
CONTINUOUS
 62
     7
 10
5.2972243637
 20
10.9236847035
 30
0.0
 40
0.0624999999999849
 50
360.0
 51
90.0
  0
ARC
  5
279
  8
0
  6
CONTINUOUS
 62
     7
 10
5.22537397
 20
10.9236847035
 30
0.0
 40
0.0625000000001013
 50
90.0
 51
180.0
  0
ARC
  5
27A
  8
0
  6
CONTINUOUS
 62
     7
 10
5.22537397
 20
8.7922280106
 30
0.0
 40
0.0625000000000231
 50
180.0
 51
270.0
  0
ARC
  5
27B
  8
0
  6
CONTINUOUS
 62
     7
 10
6.8720275133
 20
8.7922280106
 30
0.0
 40
0.0625000000000604
 50
270.0000000001
 51
360.0
  0
ARC
  5
27C
  8
0
  6
CONTINUOUS
 62
     7
 10
6.8720275133
 20
10.9236847035
 30
0.0
 40
0.0624999999999236
 50
360.0
 51
90.0000000001
  0
ARC
  5
27D
  8
0
  6
CONTINUOUS
 62
     7
 10
6.8001771196
 20
10.9236847035
 30
0.0
 40
0.062499999999913
 50
90.0
 51
180.0
  0
ARC
  5
27E
  8
0
  6
CONTINUOUS
 62
     7
 10
6.8001771196
 20
8.7922280106
 30
0.0
 40
0.0624999999999956
 50
180.0
 51
270.0
  0
ARC
  5
27F
  8
0
  6
CONTINUOUS
 62
     7
 10
5.6190747574
 20
8.7922280106
 30
0.0
 40
0.0625000000000178
 50
180.0
 51
269.9999999999
  0
ARC
  5
280
  8
0
  6
CONTINUOUS
 62
     7
 10
5.6909251511
 20
8.7922280106
 30
0.0
 40
0.0625000000000284
 50
270.0
 51
360.0
  0
ARC
  5
281
  8
0
  6
CONTINUOUS
 62
     7
 10
5.6909251511
 20
10.9236847035
 30
0.0
 40
0.0624999999999858
 50
360.0
 51
90.0
  0
ARC
  5
282
  8
0
  6
CONTINUOUS
 62
     7
 10
5.6190747574
 20
10.9236847035
 30
0.0
 40
0.0624999999999876
 50
90.0
 51
180.0
  0
ARC
  5
283
  8
0
  6
CONTINUOUS
 62
     7
 10
4.5098227889
 20
0.3873389185
 30
0.0
 40
0.062499999999881
 50
269.9999999999
 51
0.0
  0
ARC
  5
284
  8
0
  6
CONTINUOUS
 62
     7
 10
4.5098227889
 20
2.5187956114
 30
0.0
 40
0.0624999999999103
 50
359.9999999999
 51
90.0
  0
ARC
  5
285
  8
0
  6
CONTINUOUS
 62
     7
 10
4.4379723952
 20
2.5187956114
 30
0.0
 40
0.0624999999999032
 50
90.0
 51
180.0
  0
ARC
  5
286
  8
0
  6
CONTINUOUS
 62
     7
 10
4.4379723952
 20
0.3873389185
 30
0.0
 40
0.0624999999999698
 50
180.0
 51
270.0000000001
  0
ARC
  5
287
  8
0
  6
CONTINUOUS
 62
     7
 10
6.0846259385
 20
8.7922280106
 30
0.0
 40
0.0625000000000542
 50
270.0000000001
 51
360.0
  0
ARC
  5
288
  8
0
  6
CONTINUOUS
 62
     7
 10
6.0846259385
 20
10.9236847035
 30
0.0
 40
0.0625000000000302
 50
0.0
 51
90.0
  0
ARC
  5
289
  8
0
  6
CONTINUOUS
 62
     7
 10
6.0127755448
 20
10.9236847035
 30
0.0
 40
0.0625000000000977
 50
90.0000000001
 51
180.0
  0
ARC
  5
28A
  8
0
  6
CONTINUOUS
 62
     7
 10
6.0127755448
 20
8.7922280106
 30
0.0
 40
0.0625000000000222
 50
180.0
 51
270.0
  0
ARC
  5
28B
  8
0
  6
CONTINUOUS
 62
     7
 10
7.193877907
 20
8.7922280106
 30
0.0
 40
0.0625000000000515
 50
180.0
 51
270.0
  0
ARC
  5
28C
  8
0
  6
CONTINUOUS
 62
     7
 10
7.2657283007
 20
8.7922280106
 30
0.0
 40
0.0625000000000124
 50
270.0
 51
360.0
  0
ARC
  5
28D
  8
0
  6
CONTINUOUS
 62
     7
 10
7.2657283007
 20
10.9236847035
 30
0.0
 40
0.0624999999999627
 50
359.9999999999
 51
90.0
  0
ARC
  5
28E
  8
0
  6
CONTINUOUS
 62
     7
 10
7.193877907
 20
10.9236847035
 30
0.0
 40
0.0625000000000586
 50
90.0000000001
 51
180.0
  0
ARC
  5
28F
  8
0
  6
CONTINUOUS
 62
     7
 10
4.0442716078
 20
8.7922280106
 30
0.0
 40
0.0625000000000218
 50
180.0
 51
270.0
  0
ARC
  5
290
  8
0
  6
CONTINUOUS
 62
     7
 10
4.1161220015
 20
8.7922280106
 30
0.0
 40
0.0625000000000622
 50
270.0000000001
 51
360.0
  0
ARC
  5
291
  8
0
  6
CONTINUOUS
 62
     7
 10
4.1161220015
 20
10.9236847035
 30
0.0
 40
0.062500000000016
 50
0.0
 51
90.0
  0
ARC
  5
292
  8
0
  6
CONTINUOUS
 62
     7
 10
4.0442716183
 20
10.923684693
 30
0.0
 40
0.0625000105366804
 50
90.0000096593
 51
180.0
  0
ARC
  5
293
  8
0
  6
CONTINUOUS
 62
     7
 10
11.082364783
 20
9.6954225981
 30
0.0
 40
0.031250000000009
 50
45.0
 51
135.0
  0
ARC
  5
294
  8
0
  6
CONTINUOUS
 62
     7
 10
11.0015589568
 20
9.6954225981
 30
0.0
 40
0.0312500000000203
 50
45.0
 51
135.0
  0
ARC
  5
295
  8
0
  6
CONTINUOUS
 62
     7
 10
11.0015589568
 20
1.6156010239
 30
0.0
 40
0.0312499999999974
 50
141.9159517893
 51
218.0840482107
  0
ARC
  5
296
  8
0
  6
CONTINUOUS
 62
     7
 10
11.082364783
 20
1.6156010239
 30
0.0
 40
0.0312500000000048
 50
225.0
 51
315.0
  0
ARC
  5
297
  8
0
  6
CONTINUOUS
 62
     7
 10
11.333120709
 20
10.3578241729
 30
0.0
 40
0.0312499999999817
 50
50.4533811351
 51
224.999999999
  0
ARC
  5
298
  8
0
  6
CONTINUOUS
 62
     7
 10
11.333120709
 20
5.8744592916
 30
0.0
 40
0.0312500000000414
 50
135.0000000001
 51
309.5466188818
  0
ARC
  5
299
  8
0
  6
CONTINUOUS
 62
     7
 10
11.333120709
 20
5.4365643304
 30
0.0
 40
0.0312499999999742
 50
50.4533811363
 51
225.0000000001
  0
ARC
  5
29A
  8
0
  6
CONTINUOUS
 62
     7
 10
11.333120709
 20
0.9531994491
 30
0.0
 40
0.0312500000000053
 50
135.0000000003
 51
309.5466188819
  0
ARC
  5
29B
  8
0
  6
CONTINUOUS
 62
     7
 10
11.333120709
 20
0.5153044879
 30
0.0
 40
0.0312499999999871
 50
50.4533811363
 51
225.0
  0
ARC
  5
29C
  8
0
  6
CONTINUOUS
 62
     7
 10
10.7957191341
 20
-0.0220970869
 30
0.0
 40
0.0312500000000011
 50
45.0
 51
219.5466188911
  0
ARC
  5
29D
  8
0
  6
CONTINUOUS
 62
     7
 10
10.3578241729
 20
-0.0220970869
 30
0.0
 40
0.0312500000000007
 50
320.4533811458
 51
135.0
  0
ARC
  5
29E
  8
0
  6
CONTINUOUS
 62
     7
 10
5.8744592916
 20
-0.0220970869
 30
0.0
 40
0.0312499999999798
 50
45.0
 51
219.5466188912
  0
ARC
  5
29F
  8
0
  6
CONTINUOUS
 62
     7
 10
5.4365643304
 20
-0.0220970869
 30
0.0
 40
0.0312499999999862
 50
320.4533811457
 51
135.0
  0
ARC
  5
2A0
  8
0
  6
CONTINUOUS
 62
     7
 10
0.9531994491
 20
-0.0220970869
 30
0.0
 40
0.031249999999989
 50
45.0
 51
219.5466188911
  0
ARC
  5
2A1
  8
0
  6
CONTINUOUS
 62
     7
 10
0.5153044879
 20
-0.0220970869
 30
0.0
 40
0.0312499999999795
 50
320.4533811457
 51
135.0
  0
ARC
  5
2A2
  8
0
  6
CONTINUOUS
 62
     7
 10
-0.0220970869
 20
0.5153044879
 30
0.0
 40
0.0312499999999794
 50
314.9999999996
 51
129.5466188722
  0
ARC
  5
2A3
  8
0
  6
CONTINUOUS
 62
     7
 10
-0.0220970869
 20
0.9531994491
 30
0.0
 40
0.0312500000000042
 50
230.4533811274
 51
45.0000000001
  0
ARC
  5
2A4
  8
0
  6
CONTINUOUS
 62
     7
 10
-0.0220970869
 20
5.4365643304
 30
0.0
 40
0.0312499999999924
 50
314.9999999983
 51
129.5466188706
  0
ARC
  5
2A5
  8
0
  6
CONTINUOUS
 62
     7
 10
-0.0220970869
 20
5.8744592916
 30
0.0
 40
0.031249999999975
 50
230.4533811297
 51
45.0000000021
  0
ARC
  5
2A6
  8
0
  6
CONTINUOUS
 62
     7
 10
-0.0220970869
 20
10.3578241729
 30
0.0
 40
0.0312499999999732
 50
314.9999999978
 51
129.5466188701
  0
ARC
  5
2A7
  8
0
  6
CONTINUOUS
 62
     7
 10
-0.0220970869
 20
10.7957191342
 30
0.0
 40
0.0312499999999948
 50
230.4533811302
 51
45.0000000026
  0
ARC
  5
2A8
  8
0
  6
CONTINUOUS
 62
     7
 10
0.5153044879
 20
11.333120709
 30
0.0
 40
0.0312499999999796
 50
225.0
 51
39.5466188726
  0
ARC
  5
2A9
  8
0
  6
CONTINUOUS
 62
     7
 10
0.9531994491
 20
11.333120709
 30
0.0
 40
0.0312499999999998
 50
140.4533811274
 51
315.0
  0
ARC
  5
2AA
  8
0
  6
CONTINUOUS
 62
     7
 10
5.4365643304
 20
11.333120709
 30
0.0
 40
0.0312499999999916
 50
225.0
 51
39.5466188728
  0
ARC
  5
2AB
  8
0
  6
CONTINUOUS
 62
     7
 10
5.8744592916
 20
11.333120709
 30
0.0
 40
0.0312500000000188
 50
140.4533811274
 51
315.0000000001
  0
ARC
  5
2AC
  8
0
  6
CONTINUOUS
 62
     7
 10
10.3578241729
 20
11.333120709
 30
0.0
 40
0.0312500000000008
 50
225.0
 51
39.5466188728
  0
ARC
  5
2AD
  8
0
  6
CONTINUOUS
 62
     7
 10
10.7957191341
 20
11.333120709
 30
0.0
 40
0.0312500000000119
 50
140.4533811275
 51
315.0000000001
  0
ARC
  5
2AE
  8
0
  6
CONTINUOUS
 62
     7
 10
11.3331207089
 20
10.7957191342
 30
0.0
 40
0.031249999999999
 50
135.0000000012
 51
309.5466188828
  0
ARC
  5
2AF
  8
0
  6
CONTINUOUS
 62
     7
 10
3.4270970027
 20
10.7593375802
 30
0.0
 40
0.0312499999999823
 50
143.4278107011
 51
306.5721892986
  0
ARC
  5
2B0
  8
0
  6
CONTINUOUS
 62
     7
 10
3.6329028289
 20
10.7593375802
 30
0.0
 40
0.0312500000000167
 50
233.4278107012
 51
36.572189299
  0
ARC
  5
2B1
  8
0
  6
CONTINUOUS
 62
     7
 10
3.6329028289
 20
11.1088441938
 30
0.0
 40
0.031249999999968
 50
323.4278107012
 51
126.5721892986
  0
ARC
  5
2B2
  8
0
  6
CONTINUOUS
 62
     7
 10
3.4270970027
 20
11.1088441938
 30
0.0
 40
0.0312499999999982
 50
53.4278107012
 51
216.572189299
  0
ARC
  5
2B3
  8
0
  6
CONTINUOUS
 62
     7
 10
3.4270970027
 20
2.3621794283
 30
0.0
 40
0.0312500000000292
 50
143.427810701
 51
306.5721892987
  0
ARC
  5
2B4
  8
0
  6
CONTINUOUS
 62
     7
 10
3.6329028289
 20
2.3621794283
 30
0.0
 40
0.0312499999999738
 50
233.4278107012
 51
36.572189299
  0
ARC
  5
2B5
  8
0
  6
CONTINUOUS
 62
     7
 10
3.6329028289
 20
2.7116860419
 30
0.0
 40
0.0312500000000299
 50
323.427810701
 51
126.5721892989
  0
ARC
  5
2B6
  8
0
  6
CONTINUOUS
 62
     7
 10
3.4270970027
 20
2.7116860419
 30
0.0
 40
0.0312500000000199
 50
53.4278107012
 51
216.572189299
  0
ARC
  5
2B7
  8
0
  6
CONTINUOUS
 62
     7
 10
7.6770970796
 20
10.7605218751
 30
0.0
 40
0.0312500000000055
 50
143.4278107011
 51
306.5721892988
  0
ARC
  5
2B8
  8
0
  6
CONTINUOUS
 62
     7
 10
7.8829029058
 20
10.7605218751
 30
0.0
 40
0.0312500000000046
 50
233.4278107012
 51
36.5721892989
  0
ARC
  5
2B9
  8
0
  6
CONTINUOUS
 62
     7
 10
7.8829029058
 20
11.1100284887
 30
0.0
 40
0.0312499999999983
 50
323.427810701
 51
126.5721892988
  0
ARC
  5
2BA
  8
0
  6
CONTINUOUS
 62
     7
 10
7.6770970796
 20
11.1100284887
 30
0.0
 40
0.0312500000000159
 50
53.4278107014
 51
216.572189299
  0
ARC
  5
2BB
  8
0
  6
CONTINUOUS
 62
     7
 10
7.6770970796
 20
8.6005218751
 30
0.0
 40
0.0312500000000044
 50
143.4278107011
 51
306.5721892989
  0
ARC
  5
2BC
  8
0
  6
CONTINUOUS
 62
     7
 10
7.8829029058
 20
8.6005218751
 30
0.0
 40
0.0312499999999932
 50
233.4278107012
 51
36.5721892989
  0
ARC
  5
2BD
  8
0
  6
CONTINUOUS
 62
     7
 10
7.8829029058
 20
8.9500284887
 30
0.0
 40
0.0312500000000236
 50
323.4278107009
 51
126.5721892989
  0
ARC
  5
2BE
  8
0
  6
CONTINUOUS
 62
     7
 10
7.6770970796
 20
8.9500284887
 30
0.0
 40
0.0312500000000131
 50
53.4278107014
 51
216.5721892989
  0
ARC
  5
2BF
  8
0
  6
CONTINUOUS
 62
     7
 10
3.4270970027
 20
8.5993375802
 30
0.0
 40
0.0312500000000117
 50
143.4278107011
 51
306.5721892988
  0
ARC
  5
2C0
  8
0
  6
CONTINUOUS
 62
     7
 10
3.6329028289
 20
8.5993375802
 30
0.0
 40
0.0312499999999997
 50
233.4278107012
 51
36.5721892989
  0
ARC
  5
2C1
  8
0
  6
CONTINUOUS
 62
     7
 10
3.6329028289
 20
8.9488441938
 30
0.0
 40
0.0312499999999796
 50
323.427810701
 51
126.5721892988
  0
ARC
  5
2C2
  8
0
  6
CONTINUOUS
 62
     7
 10
3.4270970027
 20
8.9488441938
 30
0.0
 40
0.0312499999999918
 50
53.4278107013
 51
216.5721892989
  0
ARC
  5
2C3
  8
0
  6
CONTINUOUS
 62
     7
 10
7.6770970796
 20
2.3609951334
 30
0.0
 40
0.031250000000017
 50
143.4278107011
 51
306.5721892986
  0
ARC
  5
2C4
  8
0
  6
CONTINUOUS
 62
     7
 10
7.8829029058
 20
2.3609951334
 30
0.0
 40
0.0312500000000444
 50
233.4278107012
 51
36.5721892992
  0
ARC
  5
2C5
  8
0
  6
CONTINUOUS
 62
     7
 10
7.8829029058
 20
2.710501747
 30
0.0
 40
0.0312500000000413
 50
323.4278107009
 51
126.5721892989
  0
ARC
  5
2C6
  8
0
  6
CONTINUOUS
 62
     7
 10
7.6770970796
 20
2.710501747
 30
0.0
 40
0.031250000000024
 50
53.4278107012
 51
216.5721892989
  0
ARC
  5
2C7
  8
0
  6
CONTINUOUS
 62
     7
 10
7.6770970796
 20
0.2009951334
 30
0.0
 40
0.0312499999999862
 50
143.4278107011
 51
306.5721892987
  0
ARC
  5
2C8
  8
0
  6
CONTINUOUS
 62
     7
 10
7.8829029058
 20
0.2009951334
 30
0.0
 40
0.0312500000000197
 50
233.4278107012
 51
36.5721892992
  0
ARC
  5
2C9
  8
0
  6
CONTINUOUS
 62
     7
 10
7.8829029058
 20
0.550501747
 30
0.0
 40
0.0312500000000411
 50
323.4278107009
 51
126.5721892989
  0
ARC
  5
2CA
  8
0
  6
CONTINUOUS
 62
     7
 10
7.6770970796
 20
0.550501747
 30
0.0
 40
0.0312500000000292
 50
53.4278107012
 51
216.5721892989
  0
ARC
  5
2CB
  8
0
  6
CONTINUOUS
 62
     7
 10
3.4270970027
 20
0.2021794283
 30
0.0
 40
0.0312500000000042
 50
143.4278107011
 51
306.5721892987
  0
ARC
  5
2CC
  8
0
  6
CONTINUOUS
 62
     7
 10
3.6329028289
 20
0.2021794283
 30
0.0
 40
0.0312500000000075
 50
233.4278107012
 51
36.572189299
  0
ARC
  5
2CD
  8
0
  6
CONTINUOUS
 62
     7
 10
3.6329028289
 20
0.5516860419
 30
0.0
 40
0.0312500000000102
 50
323.427810701
 51
126.5721892989
  0
ARC
  5
2CE
  8
0
  6
CONTINUOUS
 62
     7
 10
3.4270970027
 20
0.5516860419
 30
0.0
 40
0.0312500000000165
 50
53.4278107012
 51
216.5721892989
  0
ARC
  5
2CF
  8
0
  6
CONTINUOUS
 62
     7
 10
11.0015589568
 20
9.6954225981
 30
0.0
 40
0.0312500000000213
 50
141.9159517893
 51
218.0840482107
  0
ARC
  5
2D0
  8
0
  6
CONTINUOUS
 62
     7
 10
11.082364783
 20
9.6954225981
 30
0.0
 40
0.0312500000000126
 50
321.9159517893
 51
38.0840482107
  0
ARC
  5
2D1
  8
0
  6
CONTINUOUS
 62
     7
 10
11.082364783
 20
1.6156010239
 30
0.0
 40
0.0312500000000094
 50
321.9159517893
 51
38.0840482107
  0
ARC
  5
2D2
  8
0
  6
CONTINUOUS
 62
     7
 10
11.0015589568
 20
1.6156010239
 30
0.0
 40
0.0312500000000024
 50
225.0
 51
315.0
  0
ENDSEC
  0
EOF
