  0
SECTION
  2
HEADER
  9
$ACADVER
  1
AC1009
  9
$DWGCODEPAGE
  3
ansi_1252
  9
$INSBASE
 10
0.0
 20
0.0
 30
0.0
  9
$EXTMIN
 10
-0.25
 20
-0.25
 30
0.0
  9
$EXTMAX
 10
11.561023622
 20
11.561023622
 30
0.0
  9
$LIMMIN
 10
0.0
 20
0.0
  9
$LIMMAX
 10
12.0
 20
9.0
  9
$ORTHOMODE
 70
     0
  9
$REGENMODE
 70
     1
  9
$FILLMODE
 70
     1
  9
$QTEXTMODE
 70
     0
  9
$MIRRTEXT
 70
     1
  9
$DRAGMODE
 70
     2
  9
$LTSCALE
 40
1.0
  9
$OSMODE
 70
    37
  9
$ATTMODE
 70
     1
  9
$TEXTSIZE
 40
0.1377952756
  9
$TRACEWID
 40
0.05
  9
$TEXTSTYLE
  7
STANDARD
  9
$CLAYER
  8
0
  9
$CELTYPE
  6
BYLAYER
  9
$CECOLOR
 62
   256
  9
$DIMSCALE
 40
1.0
  9
$DIMASZ
 40
0.13
  9
$DIMEXO
 40
0.0393700787
  9
$DIMDLI
 40
0.38
  9
$DIMRND
 40
0.0
  9
$DIMDLE
 40
0.0
  9
$DIMEXE
 40
0.0393700787
  9
$DIMTP
 40
0.0
  9
$DIMTM
 40
0.0
  9
$DIMTXT
 40
0.1377952756
  9
$DIMCEN
 40
0.09
  9
$DIMTSZ
 40
0.0
  9
$DIMTOL
 70
     0
  9
$DIMLIM
 70
     0
  9
$DIMTIH
 70
     1
  9
$DIMTOH
 70
     1
  9
$DIMSE1
 70
     0
  9
$DIMSE2
 70
     0
  9
$DIMTAD
 70
     1
  9
$DIMZIN
 70
     1
  9
$DIMBLK
  1

  9
$DIMASO
 70
     1
  9
$DIMSHO
 70
     1
  9
$DIMPOST
  1

  9
$DIMAPOST
  1

  9
$DIMALT
 70
     0
  9
$DIMALTD
 70
     2
  9
$DIMALTF
 40
25.4
  9
$DIMLFAC
 40
1.0
  9
$DIMTOFL
 70
     0
  9
$DIMTVP
 40
0.0
  9
$DIMTIX
 70
     0
  9
$DIMSOXD
 70
     0
  9
$DIMSAH
 70
     0
  9
$DIMBLK1
  1

  9
$DIMBLK2
  1

  9
$DIMSTYLE
  2
STANDARD
  9
$DIMCLRD
 70
     0
  9
$DIMCLRE
 70
     0
  9
$DIMCLRT
 70
     0
  9
$DIMTFAC
 40
1.0
  9
$DIMGAP
 40
0.06
  9
$LUNITS
 70
     2
  9
$LUPREC
 70
     8
  9
$SKETCHINC
 40
0.1
  9
$FILLETRAD
 40
0.5
  9
$AUNITS
 70
     0
  9
$AUPREC
 70
     2
  9
$MENU
  1
.
  9
$ELEVATION
 40
0.0
  9
$PELEVATION
 40
0.0
  9
$THICKNESS
 40
0.0
  9
$LIMCHECK
 70
     0
  9
$CHAMFERA
 40
0.0
  9
$CHAMFERB
 40
0.0
  9
$SKPOLY
 70
     0
  9
$TDCREATE
 40
2458269.432442673
  9
$TDUPDATE
 40
2458269.432472153
  9
$TDINDWG
 40
0.0000000116
  9
$TDUSRTIMER
 40
0.0000000116
  9
$USRTIMER
 70
     1
  9
$ANGBASE
 50
0.0
  9
$ANGDIR
 70
     0
  9
$PDMODE
 70
     0
  9
$PDSIZE
 40
-1.0
  9
$PLINEWID
 40
0.0
  9
$COORDS
 70
     1
  9
$SPLFRAME
 70
     0
  9
$SPLINETYPE
 70
     6
  9
$SPLINESEGS
 70
     8
  9
$ATTDIA
 70
     0
  9
$ATTREQ
 70
     1
  9
$HANDLING
 70
     1
  9
$HANDSEED
  5
24F
  9
$SURFTAB1
 70
     6
  9
$SURFTAB2
 70
     6
  9
$SURFTYPE
 70
     6
  9
$SURFU
 70
     6
  9
$SURFV
 70
     6
  9
$UCSNAME
  2

  9
$UCSORG
 10
0.0
 20
0.0
 30
0.0
  9
$UCSXDIR
 10
1.0
 20
0.0
 30
0.0
  9
$UCSYDIR
 10
0.0
 20
1.0
 30
0.0
  9
$PUCSNAME
  2

  9
$PUCSORG
 10
0.0
 20
0.0
 30
0.0
  9
$PUCSXDIR
 10
1.0
 20
0.0
 30
0.0
  9
$PUCSYDIR
 10
0.0
 20
1.0
 30
0.0
  9
$USERI1
 70
     0
  9
$USERI2
 70
     0
  9
$USERI3
 70
     0
  9
$USERI4
 70
     0
  9
$USERI5
 70
     0
  9
$USERR1
 40
0.0
  9
$USERR2
 40
0.0
  9
$USERR3
 40
0.0
  9
$USERR4
 40
0.0
  9
$USERR5
 40
0.0
  9
$WORLDVIEW
 70
     1
  9
$SHADEDGE
 70
     3
  9
$SHADEDIF
 70
    70
  9
$TILEMODE
 70
     1
  9
$MAXACTVP
 70
    64
  9
$PLIMCHECK
 70
     0
  9
$PEXTMIN
 10
1.0000000000E+20
 20
1.0000000000E+20
 30
1.0000000000E+20
  9
$PEXTMAX
 10
-1.0000000000E+20
 20
-1.0000000000E+20
 30
-1.0000000000E+20
  9
$PLIMMIN
 10
0.0
 20
0.0
  9
$PLIMMAX
 10
12.0
 20
9.0
  9
$UNITMODE
 70
     0
  9
$VISRETAIN
 70
     1
  9
$PLINEGEN
 70
     0
  9
$PSLTSCALE
 70
     1
  0
ENDSEC
  0
SECTION
  2
TABLES
  0
TABLE
  2
VPORT
 70
     1
  0
VPORT
  2
*ACTIVE
 70
     0
 10
0.0
 20
0.0
 11
1.0
 21
1.0
 12
5.655511811
 22
5.655511811
 13
0.0
 23
0.0
 14
0.5
 24
0.5
 15
0.5
 25
0.5
 16
0.0
 26
0.0
 36
1.0
 17
0.0
 27
0.0
 37
0.0
 40
12.0472440945
 41
1.0
 42
50.0
 43
0.0
 44
0.0
 50
0.0
 51
0.0
 71
     0
 72
   100
 73
     1
 74
     3
 75
     0
 76
     0
 77
     0
 78
     0
  0
ENDTAB
  0
TABLE
  2
LTYPE
 70
     6
  0
LTYPE
  2
CONTINUOUS
 70
     0
  3
Solid line
 72
    65
 73
     0
 40
0.0
  0
LTYPE
  2
HIDDEN
 70
     0
  3
Hidden __ __ __ __ __ __ __ __ __ __ __ __ __ __
 72
    65
 73
     2
 40
0.075
 49
0.05
 49
-0.025
  0
LTYPE
  2
PHANTOM
 70
     0
  3
Phantom ______  __  __  ______  __  __  ______
 72
    65
 73
     6
 40
0.5
 49
0.25
 49
-0.05
 49
0.05
 49
-0.05
 49
0.05
 49
-0.05
  0
LTYPE
  2
CENTER
 70
     0
  3
Center ____ _ ____ _ ____ _ ____ _ ____ _ ____
 72
    65
 73
     4
 40
0.4
 49
0.25
 49
-0.05
 49
0.05
 49
-0.05
  0
LTYPE
  2
CENTERX2
 70
     0
  3
Center (2x) ________  __  ________  __  _____
 72
    65
 73
     4
 40
0.8
 49
0.5
 49
-0.1
 49
0.1
 49
-0.1
  0
LTYPE
  2
DOT2
 70
     0
  3
Dot (.5x) ........................................
 72
    65
 73
     2
 40
0.025
 49
0.0
 49
-0.025
  0
ENDTAB
  0
TABLE
  2
LAYER
 70
     1
  0
LAYER
  2
0
 70
     0
 62
     7
  6
CONTINUOUS
  0
ENDTAB
  0
TABLE
  2
STYLE
 70
     1
  0
STYLE
  2
STANDARD
 70
     0
 40
0.0
 41
1.0
 50
0.0
 71
     0
 42
0.1377952756
  3
txt
  4

  0
ENDTAB
  0
TABLE
  2
VIEW
 70
     0
  0
ENDTAB
  0
TABLE
  2
UCS
 70
     0
  0
ENDTAB
  0
TABLE
  2
APPID
 70
     1
  0
APPID
  2
ACAD
 70
     0
  0
ENDTAB
  0
TABLE
  2
DIMSTYLE
 70
     1
  0
DIMSTYLE
  2
STANDARD
 70
     0
  3

  4

  5

  6

  7

 40
1.0
 41
0.18
 42
0.0625
 43
0.38
 44
0.18
 45
0.0
 46
0.0
 47
0.0
 48
0.0
140
0.18
141
0.09
142
0.0
143
25.4
144
1.0
145
0.0
146
1.0
147
0.09
 71
     0
 72
     0
 73
     1
 74
     1
 75
     0
 76
     0
 77
     0
 78
     0
170
     0
171
     2
172
     0
173
     0
174
     0
175
     0
176
     0
177
     0
178
     0
  0
ENDTAB
  0
ENDSEC
  0
SECTION
  2
BLOCKS
  0
BLOCK
  8
0
  2
$MODEL_SPACE
 70
     0
 10
0.0
 20
0.0
 30
0.0
  3
$MODEL_SPACE
  1

  0
ENDBLK
  5
21
  8
0
  0
BLOCK
 67
     1
  8
0
  2
$PAPER_SPACE
 70
     0
 10
0.0
 20
0.0
 30
0.0
  3
$PAPER_SPACE
  1

  0
ENDBLK
  5
1D
 67
     1
  8
0
  0
ENDSEC
  0
SECTION
  2
ENTITIES
  0
CIRCLE
  5
73
  8
0
  6
CONTINUOUS
 62
     7
 10
0.5073676527
 20
10.8036559693
 30
0.0
 40
0.3750000000000144
  0
CIRCLE
  5
74
  8
0
  6
CONTINUOUS
 62
     7
 10
10.8036559693
 20
0.5073676527
 30
0.0
 40
0.3749999999999893
  0
CIRCLE
  5
FD
  8
0
  6
CONTINUOUS
 62
     7
 10
10.8036559693
 20
10.8036559693
 30
0.0
 40
0.3749999999999929
  0
CIRCLE
  5
FE
  8
0
  6
CONTINUOUS
 62
     7
 10
0.5073676527
 20
0.5073676527
 30
0.0
 40
0.3750000000000178
  0
LINE
  5
169
  8
0
  6
CONTINUOUS
 62
     7
 10
9.842519685
 20
0.4806822275
 30
0.0
 11
9.842519685
 21
0.5891442736
 31
0.0
  0
LINE
  5
16A
  8
0
  6
CONTINUOUS
 62
     7
 10
9.7983255112
 20
0.6333384474
 30
0.0
 11
9.6367138589
 21
0.6333384474
 31
0.0
  0
LINE
  5
16B
  8
0
  6
CONTINUOUS
 62
     7
 10
9.592519685
 20
0.5891442736
 30
0.0
 11
9.592519685
 21
0.4806822275
 31
0.0
  0
LINE
  5
16C
  8
0
  6
CONTINUOUS
 62
     7
 10
9.6367138589
 20
0.4364880537
 30
0.0
 11
9.7983255112
 21
0.4364880537
 31
0.0
  0
LINE
  5
16D
  8
0
  6
CONTINUOUS
 62
     7
 10
10.7218793485
 20
1.468503937
 30
0.0
 11
10.8303413945
 21
1.468503937
 31
0.0
  0
LINE
  5
16E
  8
0
  6
CONTINUOUS
 62
     7
 10
10.8745355683
 20
1.5126981108
 30
0.0
 11
10.8745355683
 21
1.6743097632
 31
0.0
  0
LINE
  5
16F
  8
0
  6
CONTINUOUS
 62
     7
 10
10.8303413945
 20
1.718503937
 30
0.0
 11
10.7218793485
 21
1.718503937
 31
0.0
  0
LINE
  5
170
  8
0
  6
CONTINUOUS
 62
     7
 10
10.6776851746
 20
1.6743097632
 30
0.0
 11
10.6776851746
 21
1.5126981108
 31
0.0
  0
LINE
  5
171
  8
0
  6
CONTINUOUS
 62
     7
 10
0.4806822275
 20
1.468503937
 30
0.0
 11
0.5891442736
 21
1.468503937
 31
0.0
  0
LINE
  5
172
  8
0
  6
CONTINUOUS
 62
     7
 10
0.6333384474
 20
1.5126981108
 30
0.0
 11
0.6333384474
 21
1.6743097632
 31
0.0
  0
LINE
  5
173
  8
0
  6
CONTINUOUS
 62
     7
 10
1.6743097632
 20
0.6333384474
 30
0.0
 11
1.5126981108
 21
0.6333384474
 31
0.0
  0
LINE
  5
174
  8
0
  6
CONTINUOUS
 62
     7
 10
1.468503937
 20
0.5891442736
 30
0.0
 11
1.468503937
 21
0.4806822275
 31
0.0
  0
LINE
  5
175
  8
0
  6
CONTINUOUS
 62
     7
 10
1.5126981108
 20
0.4364880537
 30
0.0
 11
1.6743097632
 21
0.4364880537
 31
0.0
  0
LINE
  5
176
  8
0
  6
CONTINUOUS
 62
     7
 10
1.718503937
 20
0.4806822275
 30
0.0
 11
1.718503937
 21
0.5891442736
 31
0.0
  0
LINE
  5
177
  8
0
  6
CONTINUOUS
 62
     7
 10
0.5891442736
 20
9.842519685
 30
0.0
 11
0.4806822275
 21
9.842519685
 31
0.0
  0
LINE
  5
178
  8
0
  6
CONTINUOUS
 62
     7
 10
0.4364880537
 20
9.7983255112
 30
0.0
 11
0.4364880537
 21
9.6367138589
 31
0.0
  0
LINE
  5
179
  8
0
  6
CONTINUOUS
 62
     7
 10
0.4806822275
 20
9.592519685
 30
0.0
 11
0.5891442736
 21
9.592519685
 31
0.0
  0
LINE
  5
17A
  8
0
  6
CONTINUOUS
 62
     7
 10
0.6333384474
 20
9.6367138589
 30
0.0
 11
0.6333384474
 21
9.7983255112
 31
0.0
  0
LINE
  5
17B
  8
0
  6
CONTINUOUS
 62
     7
 10
1.468503937
 20
10.8303413945
 30
0.0
 11
1.468503937
 21
10.7218793485
 31
0.0
  0
LINE
  5
17C
  8
0
  6
CONTINUOUS
 62
     7
 10
1.5126981108
 20
10.6776851746
 30
0.0
 11
1.6743097632
 21
10.6776851746
 31
0.0
  0
LINE
  5
17D
  8
0
  6
CONTINUOUS
 62
     7
 10
1.718503937
 20
10.7218793485
 30
0.0
 11
1.718503937
 21
10.8303413945
 31
0.0
  0
LINE
  5
17E
  8
0
  6
CONTINUOUS
 62
     7
 10
1.6743097632
 20
10.8745355683
 30
0.0
 11
1.5126981108
 21
10.8745355683
 31
0.0
  0
LINE
  5
17F
  8
0
  6
CONTINUOUS
 62
     7
 10
9.6367138589
 20
10.6776851746
 30
0.0
 11
9.7983255112
 21
10.6776851746
 31
0.0
  0
LINE
  5
180
  8
0
  6
CONTINUOUS
 62
     7
 10
9.842519685
 20
10.7218793485
 30
0.0
 11
9.842519685
 21
10.8303413945
 31
0.0
  0
LINE
  5
181
  8
0
  6
CONTINUOUS
 62
     7
 10
9.7983255112
 20
10.8745355683
 30
0.0
 11
9.6367138589
 21
10.8745355683
 31
0.0
  0
LINE
  5
182
  8
0
  6
CONTINUOUS
 62
     7
 10
9.592519685
 20
10.8303413945
 30
0.0
 11
9.592519685
 21
10.7218793485
 31
0.0
  0
LINE
  5
183
  8
0
  6
CONTINUOUS
 62
     7
 10
10.8745355683
 20
9.6367138589
 30
0.0
 11
10.8745355683
 21
9.7983255112
 31
0.0
  0
LINE
  5
184
  8
0
  6
CONTINUOUS
 62
     7
 10
10.8303413945
 20
9.842519685
 30
0.0
 11
10.7218793485
 21
9.842519685
 31
0.0
  0
LINE
  5
185
  8
0
  6
CONTINUOUS
 62
     7
 10
10.6776851746
 20
9.7983255112
 30
0.0
 11
10.6776851746
 21
9.6367138589
 31
0.0
  0
LINE
  5
186
  8
0
  6
CONTINUOUS
 62
     7
 10
10.7218793485
 20
9.592519685
 30
0.0
 11
10.8303413945
 21
9.592519685
 31
0.0
  0
LINE
  5
187
  8
0
  6
CONTINUOUS
 62
     7
 10
11.311023622
 20
0.0
 30
0.0
 11
11.311023622
 21
1.6743097632
 31
0.0
  0
LINE
  5
188
  8
0
  6
CONTINUOUS
 62
     7
 10
9.6367138589
 20
0.0
 30
0.0
 11
11.311023622
 21
0.0
 31
0.0
  0
LINE
  5
189
  8
0
  6
CONTINUOUS
 62
     7
 10
9.592519685
 20
-0.25
 30
0.0
 11
9.592519685
 21
-0.0441941738
 31
0.0
  0
LINE
  5
18A
  8
0
  6
CONTINUOUS
 62
     7
 10
9.1988188976
 20
-0.25
 30
0.0
 11
9.592519685
 21
-0.25
 31
0.0
  0
LINE
  5
18B
  8
0
  6
CONTINUOUS
 62
     7
 10
9.1988188976
 20
-0.0441941738
 30
0.0
 11
9.1988188976
 21
-0.25
 31
0.0
  0
LINE
  5
18C
  8
0
  6
CONTINUOUS
 62
     7
 10
5.8965563785
 20
0.0
 30
0.0
 11
9.1546247238
 21
0.0
 31
0.0
  0
LINE
  5
18D
  8
0
  6
CONTINUOUS
 62
     7
 10
5.8523622047
 20
-0.25
 30
0.0
 11
5.8523622047
 21
-0.0441941738
 31
0.0
  0
LINE
  5
18E
  8
0
  6
CONTINUOUS
 62
     7
 10
5.4586614173
 20
-0.25
 30
0.0
 11
5.8523622047
 21
-0.25
 31
0.0
  0
LINE
  5
18F
  8
0
  6
CONTINUOUS
 62
     7
 10
5.4586614173
 20
-0.0441941738
 30
0.0
 11
5.4586614173
 21
-0.25
 31
0.0
  0
LINE
  5
190
  8
0
  6
CONTINUOUS
 62
     7
 10
2.1563988982
 20
0.0
 30
0.0
 11
5.4144672435
 21
0.0
 31
0.0
  0
LINE
  5
191
  8
0
  6
CONTINUOUS
 62
     7
 10
2.1122047244
 20
-0.25
 30
0.0
 11
2.1122047244
 21
-0.0441941738
 31
0.0
  0
LINE
  5
192
  8
0
  6
CONTINUOUS
 62
     7
 10
1.718503937
 20
-0.25
 30
0.0
 11
2.1122047244
 21
-0.25
 31
0.0
  0
LINE
  5
193
  8
0
  6
CONTINUOUS
 62
     7
 10
1.718503937
 20
-0.0441941738
 30
0.0
 11
1.718503937
 21
-0.25
 31
0.0
  0
LINE
  5
194
  8
0
  6
CONTINUOUS
 62
     7
 10
0.0
 20
0.0
 30
0.0
 11
1.6743097632
 21
0.0
 31
0.0
  0
LINE
  5
195
  8
0
  6
CONTINUOUS
 62
     7
 10
0.0
 20
1.6743097632
 30
0.0
 11
0.0
 21
0.0
 31
0.0
  0
LINE
  5
196
  8
0
  6
CONTINUOUS
 62
     7
 10
-0.25
 20
1.718503937
 30
0.0
 11
-0.0441941738
 21
1.718503937
 31
0.0
  0
LINE
  5
197
  8
0
  6
CONTINUOUS
 62
     7
 10
-0.25
 20
2.1122047244
 30
0.0
 11
-0.25
 21
1.718503937
 31
0.0
  0
LINE
  5
198
  8
0
  6
CONTINUOUS
 62
     7
 10
-0.0441941738
 20
2.1122047244
 30
0.0
 11
-0.25
 21
2.1122047244
 31
0.0
  0
LINE
  5
199
  8
0
  6
CONTINUOUS
 62
     7
 10
0.0
 20
5.4144672435
 30
0.0
 11
0.0
 21
2.1563988982
 31
0.0
  0
LINE
  5
19A
  8
0
  6
CONTINUOUS
 62
     7
 10
-0.25
 20
5.4586614173
 30
0.0
 11
-0.0441941738
 21
5.4586614173
 31
0.0
  0
LINE
  5
19B
  8
0
  6
CONTINUOUS
 62
     7
 10
-0.25
 20
5.8523622047
 30
0.0
 11
-0.25
 21
5.4586614173
 31
0.0
  0
LINE
  5
19C
  8
0
  6
CONTINUOUS
 62
     7
 10
-0.0441941738
 20
5.8523622047
 30
0.0
 11
-0.25
 21
5.8523622047
 31
0.0
  0
LINE
  5
19D
  8
0
  6
CONTINUOUS
 62
     7
 10
0.0
 20
9.1546247238
 30
0.0
 11
0.0
 21
5.8965563785
 31
0.0
  0
LINE
  5
19E
  8
0
  6
CONTINUOUS
 62
     7
 10
-0.25
 20
9.1988188976
 30
0.0
 11
-0.0441941738
 21
9.1988188976
 31
0.0
  0
LINE
  5
19F
  8
0
  6
CONTINUOUS
 62
     7
 10
-0.25
 20
9.592519685
 30
0.0
 11
-0.25
 21
9.1988188976
 31
0.0
  0
LINE
  5
1A0
  8
0
  6
CONTINUOUS
 62
     7
 10
-0.0441941738
 20
9.592519685
 30
0.0
 11
-0.25
 21
9.592519685
 31
0.0
  0
LINE
  5
1A1
  8
0
  6
CONTINUOUS
 62
     7
 10
0.0
 20
11.311023622
 30
0.0
 11
0.0
 21
9.6367138589
 31
0.0
  0
LINE
  5
1A2
  8
0
  6
CONTINUOUS
 62
     7
 10
1.6743097632
 20
11.311023622
 30
0.0
 11
0.0
 21
11.311023622
 31
0.0
  0
LINE
  5
1A3
  8
0
  6
CONTINUOUS
 62
     7
 10
1.718503937
 20
11.561023622
 30
0.0
 11
1.718503937
 21
11.3552177959
 31
0.0
  0
LINE
  5
1A4
  8
0
  6
CONTINUOUS
 62
     7
 10
2.1122047244
 20
11.561023622
 30
0.0
 11
1.718503937
 21
11.561023622
 31
0.0
  0
LINE
  5
1A5
  8
0
  6
CONTINUOUS
 62
     7
 10
2.1122047244
 20
11.3552177959
 30
0.0
 11
2.1122047244
 21
11.561023622
 31
0.0
  0
LINE
  5
1A6
  8
0
  6
CONTINUOUS
 62
     7
 10
5.4144672435
 20
11.311023622
 30
0.0
 11
2.1563988982
 21
11.311023622
 31
0.0
  0
LINE
  5
1A7
  8
0
  6
CONTINUOUS
 62
     7
 10
5.4586614173
 20
11.561023622
 30
0.0
 11
5.4586614173
 21
11.3552177959
 31
0.0
  0
LINE
  5
1A8
  8
0
  6
CONTINUOUS
 62
     7
 10
5.8523622047
 20
11.561023622
 30
0.0
 11
5.4586614173
 21
11.561023622
 31
0.0
  0
LINE
  5
1A9
  8
0
  6
CONTINUOUS
 62
     7
 10
5.8523622047
 20
11.3552177959
 30
0.0
 11
5.8523622047
 21
11.561023622
 31
0.0
  0
LINE
  5
1AA
  8
0
  6
CONTINUOUS
 62
     7
 10
9.1546247238
 20
11.311023622
 30
0.0
 11
5.8965563785
 21
11.311023622
 31
0.0
  0
LINE
  5
1AB
  8
0
  6
CONTINUOUS
 62
     7
 10
9.1988188976
 20
11.561023622
 30
0.0
 11
9.1988188976
 21
11.3552177959
 31
0.0
  0
LINE
  5
1AC
  8
0
  6
CONTINUOUS
 62
     7
 10
9.592519685
 20
11.561023622
 30
0.0
 11
9.1988188976
 21
11.561023622
 31
0.0
  0
LINE
  5
1AD
  8
0
  6
CONTINUOUS
 62
     7
 10
9.592519685
 20
11.3552177959
 30
0.0
 11
9.592519685
 21
11.561023622
 31
0.0
  0
LINE
  5
1AE
  8
0
  6
CONTINUOUS
 62
     7
 10
11.311023622
 20
11.311023622
 30
0.0
 11
9.6367138589
 21
11.311023622
 31
0.0
  0
LINE
  5
1AF
  8
0
  6
CONTINUOUS
 62
     7
 10
11.311023622
 20
9.6367138589
 30
0.0
 11
11.311023622
 21
11.311023622
 31
0.0
  0
LINE
  5
1B0
  8
0
  6
CONTINUOUS
 62
     7
 10
11.561023622
 20
9.592519685
 30
0.0
 11
11.3552177959
 21
9.592519685
 31
0.0
  0
LINE
  5
1B1
  8
0
  6
CONTINUOUS
 62
     7
 10
11.561023622
 20
9.1988188976
 30
0.0
 11
11.561023622
 21
9.592519685
 31
0.0
  0
LINE
  5
1B2
  8
0
  6
CONTINUOUS
 62
     7
 10
11.3552177959
 20
9.1988188976
 30
0.0
 11
11.561023622
 21
9.1988188976
 31
0.0
  0
LINE
  5
1B3
  8
0
  6
CONTINUOUS
 62
     7
 10
11.311023622
 20
5.8965563785
 30
0.0
 11
11.311023622
 21
9.1546247238
 31
0.0
  0
LINE
  5
1B4
  8
0
  6
CONTINUOUS
 62
     7
 10
11.561023622
 20
5.8523622047
 30
0.0
 11
11.3552177959
 21
5.8523622047
 31
0.0
  0
LINE
  5
1B5
  8
0
  6
CONTINUOUS
 62
     7
 10
11.561023622
 20
5.4586614173
 30
0.0
 11
11.561023622
 21
5.8523622047
 31
0.0
  0
LINE
  5
1B6
  8
0
  6
CONTINUOUS
 62
     7
 10
11.3552177959
 20
5.4586614173
 30
0.0
 11
11.561023622
 21
5.4586614173
 31
0.0
  0
LINE
  5
1B7
  8
0
  6
CONTINUOUS
 62
     7
 10
11.311023622
 20
2.1563988982
 30
0.0
 11
11.311023622
 21
5.4144672435
 31
0.0
  0
LINE
  5
1B8
  8
0
  6
CONTINUOUS
 62
     7
 10
11.561023622
 20
2.1122047244
 30
0.0
 11
11.3552177959
 21
2.1122047244
 31
0.0
  0
LINE
  5
1B9
  8
0
  6
CONTINUOUS
 62
     7
 10
11.561023622
 20
1.718503937
 30
0.0
 11
11.561023622
 21
2.1122047244
 31
0.0
  0
LINE
  5
1BA
  8
0
  6
CONTINUOUS
 62
     7
 10
11.3552177959
 20
1.718503937
 30
0.0
 11
11.561023622
 21
1.718503937
 31
0.0
  0
LINE
  5
1BB
  8
0
  6
CONTINUOUS
 62
     7
 10
9.169787432
 20
9.342519685
 30
0.0
 11
2.1369295831
 21
9.342519685
 31
0.0
  0
LINE
  5
1BC
  8
0
  6
CONTINUOUS
 62
     7
 10
2.093503937
 20
9.2975701215
 30
0.0
 11
2.093503937
 21
2.0089341257
 31
0.0
  0
LINE
  5
1BD
  8
0
  6
CONTINUOUS
 62
     7
 10
2.1369018975
 20
1.9639578316
 30
0.0
 11
9.1784860185
 21
1.9639578316
 31
0.0
  0
LINE
  5
1BE
  8
0
  6
CONTINUOUS
 62
     7
 10
9.2219116646
 20
2.0089073951
 30
0.0
 11
9.2219116646
 21
9.3091021676
 31
0.0
  0
LINE
  5
1BF
  8
0
  6
CONTINUOUS
 62
     7
 10
0.3340617521
 20
9.7146981219
 30
0.0
 11
0.3340617521
 21
9.717519685
 31
0.0
  0
LINE
  5
1C0
  8
0
  6
CONTINUOUS
 62
     7
 10
0.3340617521
 20
9.717519685
 30
0.0
 11
0.3315617521
 21
9.717519685
 31
0.0
  0
LINE
  5
1C1
  8
0
  6
CONTINUOUS
 62
     7
 10
0.2873675783
 20
9.717519685
 30
0.0
 11
0.2507559259
 21
9.717519685
 31
0.0
  0
LINE
  5
1C2
  8
0
  6
CONTINUOUS
 62
     7
 10
0.2065617521
 20
9.717519685
 30
0.0
 11
0.2040617521
 21
9.717519685
 31
0.0
  0
LINE
  5
1C3
  8
0
  6
CONTINUOUS
 62
     7
 10
0.2040617521
 20
9.717519685
 30
0.0
 11
0.2040617521
 21
9.7146981219
 31
0.0
  0
LINE
  5
1C4
  8
0
  6
CONTINUOUS
 62
     7
 10
0.2040617521
 20
9.6761470744
 30
0.0
 11
0.2040617521
 21
1.6348765477
 31
0.0
  0
LINE
  5
1C5
  8
0
  6
CONTINUOUS
 62
     7
 10
0.2040617521
 20
1.5963255002
 30
0.0
 11
0.2040617521
 21
1.593503937
 31
0.0
  0
LINE
  5
1C6
  8
0
  6
CONTINUOUS
 62
     7
 10
0.2040617521
 20
1.593503937
 30
0.0
 11
0.2065617521
 21
1.593503937
 31
0.0
  0
LINE
  5
1C7
  8
0
  6
CONTINUOUS
 62
     7
 10
0.2507559259
 20
1.593503937
 30
0.0
 11
0.2873675783
 21
1.593503937
 31
0.0
  0
LINE
  5
1C8
  8
0
  6
CONTINUOUS
 62
     7
 10
0.3315617521
 20
1.593503937
 30
0.0
 11
0.3340617521
 21
1.593503937
 31
0.0
  0
LINE
  5
1C9
  8
0
  6
CONTINUOUS
 62
     7
 10
0.3340617521
 20
1.593503937
 30
0.0
 11
0.3340617521
 21
1.5963255002
 31
0.0
  0
LINE
  5
1CA
  8
0
  6
CONTINUOUS
 62
     7
 10
0.3340617521
 20
1.6348765477
 30
0.0
 11
0.3340617521
 21
9.6761470744
 31
0.0
  0
LINE
  5
1CB
  8
0
  6
CONTINUOUS
 62
     7
 10
1.5963255002
 20
0.3340617521
 30
0.0
 11
1.593503937
 21
0.3340617521
 31
0.0
  0
LINE
  5
1CC
  8
0
  6
CONTINUOUS
 62
     7
 10
1.593503937
 20
0.3340617521
 30
0.0
 11
1.593503937
 21
0.3315617521
 31
0.0
  0
LINE
  5
1CD
  8
0
  6
CONTINUOUS
 62
     7
 10
1.593503937
 20
0.2873675783
 30
0.0
 11
1.593503937
 21
0.2507559259
 31
0.0
  0
LINE
  5
1CE
  8
0
  6
CONTINUOUS
 62
     7
 10
1.593503937
 20
0.2065617521
 30
0.0
 11
1.593503937
 21
0.2040617521
 31
0.0
  0
LINE
  5
1CF
  8
0
  6
CONTINUOUS
 62
     7
 10
1.593503937
 20
0.2040617521
 30
0.0
 11
1.5963255002
 21
0.2040617521
 31
0.0
  0
LINE
  5
1D0
  8
0
  6
CONTINUOUS
 62
     7
 10
1.6348765477
 20
0.2040617521
 30
0.0
 11
9.6761470744
 21
0.2040617521
 31
0.0
  0
LINE
  5
1D1
  8
0
  6
CONTINUOUS
 62
     7
 10
9.7146981219
 20
0.2040617521
 30
0.0
 11
9.717519685
 21
0.2040617521
 31
0.0
  0
LINE
  5
1D2
  8
0
  6
CONTINUOUS
 62
     7
 10
9.717519685
 20
0.2040617521
 30
0.0
 11
9.717519685
 21
0.2065617521
 31
0.0
  0
LINE
  5
1D3
  8
0
  6
CONTINUOUS
 62
     7
 10
9.717519685
 20
0.2507559259
 30
0.0
 11
9.717519685
 21
0.2873675783
 31
0.0
  0
LINE
  5
1D4
  8
0
  6
CONTINUOUS
 62
     7
 10
9.717519685
 20
0.3315617521
 30
0.0
 11
9.717519685
 21
0.3340617521
 31
0.0
  0
LINE
  5
1D5
  8
0
  6
CONTINUOUS
 62
     7
 10
9.717519685
 20
0.3340617521
 30
0.0
 11
9.7146981219
 21
0.3340617521
 31
0.0
  0
LINE
  5
1D6
  8
0
  6
CONTINUOUS
 62
     7
 10
9.6761470744
 20
0.3340617521
 30
0.0
 11
1.6348765477
 21
0.3340617521
 31
0.0
  0
LINE
  5
1D7
  8
0
  6
CONTINUOUS
 62
     7
 10
10.9769618699
 20
1.5963255002
 30
0.0
 11
10.9769618699
 21
1.593503937
 31
0.0
  0
LINE
  5
1D8
  8
0
  6
CONTINUOUS
 62
     7
 10
10.9769618699
 20
1.593503937
 30
0.0
 11
10.9794618699
 21
1.593503937
 31
0.0
  0
LINE
  5
1D9
  8
0
  6
CONTINUOUS
 62
     7
 10
11.0236560438
 20
1.593503937
 30
0.0
 11
11.0602676961
 21
1.593503937
 31
0.0
  0
LINE
  5
1DA
  8
0
  6
CONTINUOUS
 62
     7
 10
11.1044618699
 20
1.593503937
 30
0.0
 11
11.1069618699
 21
1.593503937
 31
0.0
  0
LINE
  5
1DB
  8
0
  6
CONTINUOUS
 62
     7
 10
11.1069618699
 20
1.593503937
 30
0.0
 11
11.1069618699
 21
1.5963255002
 31
0.0
  0
LINE
  5
1DC
  8
0
  6
CONTINUOUS
 62
     7
 10
11.1069618699
 20
1.6348765477
 30
0.0
 11
11.1069618699
 21
9.6761470744
 31
0.0
  0
LINE
  5
1DD
  8
0
  6
CONTINUOUS
 62
     7
 10
11.1069618699
 20
9.7146981219
 30
0.0
 11
11.1069618699
 21
9.717519685
 31
0.0
  0
LINE
  5
1DE
  8
0
  6
CONTINUOUS
 62
     7
 10
11.1069618699
 20
9.717519685
 30
0.0
 11
11.1044618699
 21
9.717519685
 31
0.0
  0
LINE
  5
1DF
  8
0
  6
CONTINUOUS
 62
     7
 10
11.0602676961
 20
9.717519685
 30
0.0
 11
11.0236560438
 21
9.717519685
 31
0.0
  0
LINE
  5
1E0
  8
0
  6
CONTINUOUS
 62
     7
 10
10.9794618699
 20
9.717519685
 30
0.0
 11
10.9769618699
 21
9.717519685
 31
0.0
  0
LINE
  5
1E1
  8
0
  6
CONTINUOUS
 62
     7
 10
10.9769618699
 20
9.717519685
 30
0.0
 11
10.9769618699
 21
9.7146981219
 31
0.0
  0
LINE
  5
1E2
  8
0
  6
CONTINUOUS
 62
     7
 10
10.9769618699
 20
9.6761470744
 30
0.0
 11
10.9769618699
 21
1.6348765477
 31
0.0
  0
LINE
  5
1E3
  8
0
  6
CONTINUOUS
 62
     7
 10
9.7146981219
 20
10.9769618699
 30
0.0
 11
9.717519685
 21
10.9769618699
 31
0.0
  0
LINE
  5
1E4
  8
0
  6
CONTINUOUS
 62
     7
 10
9.717519685
 20
10.9769618699
 30
0.0
 11
9.717519685
 21
10.9794618699
 31
0.0
  0
LINE
  5
1E5
  8
0
  6
CONTINUOUS
 62
     7
 10
9.717519685
 20
11.0236560438
 30
0.0
 11
9.717519685
 21
11.0602676961
 31
0.0
  0
LINE
  5
1E6
  8
0
  6
CONTINUOUS
 62
     7
 10
9.717519685
 20
11.1044618699
 30
0.0
 11
9.717519685
 21
11.1069618699
 31
0.0
  0
LINE
  5
1E7
  8
0
  6
CONTINUOUS
 62
     7
 10
9.717519685
 20
11.1069618699
 30
0.0
 11
9.7146981219
 21
11.1069618699
 31
0.0
  0
LINE
  5
1E8
  8
0
  6
CONTINUOUS
 62
     7
 10
9.6761470744
 20
11.1069618699
 30
0.0
 11
1.6348765477
 21
11.1069618699
 31
0.0
  0
LINE
  5
1E9
  8
0
  6
CONTINUOUS
 62
     7
 10
1.5963255002
 20
11.1069618699
 30
0.0
 11
1.593503937
 21
11.1069618699
 31
0.0
  0
LINE
  5
1EA
  8
0
  6
CONTINUOUS
 62
     7
 10
1.593503937
 20
11.1069618699
 30
0.0
 11
1.593503937
 21
11.1044618699
 31
0.0
  0
LINE
  5
1EB
  8
0
  6
CONTINUOUS
 62
     7
 10
1.593503937
 20
11.0602676961
 30
0.0
 11
1.593503937
 21
11.0236560438
 31
0.0
  0
LINE
  5
1EC
  8
0
  6
CONTINUOUS
 62
     7
 10
1.593503937
 20
10.9794618699
 30
0.0
 11
1.593503937
 21
10.9769618699
 31
0.0
  0
LINE
  5
1ED
  8
0
  6
CONTINUOUS
 62
     7
 10
1.593503937
 20
10.9769618699
 30
0.0
 11
1.5963255002
 21
10.9769618699
 31
0.0
  0
LINE
  5
1EE
  8
0
  6
CONTINUOUS
 62
     7
 10
1.6348765477
 20
10.9769618699
 30
0.0
 11
9.6761470744
 21
10.9769618699
 31
0.0
  0
LINE
  5
1EF
  8
0
  6
CONTINUOUS
 62
     7
 10
0.4364880537
 20
1.6743097632
 30
0.0
 11
0.4364880537
 21
1.5126981108
 31
0.0
  0
LINE
  5
1F0
  8
0
  6
CONTINUOUS
 62
     7
 10
0.5891442736
 20
1.718503937
 30
0.0
 11
0.4806822275
 21
1.718503937
 31
0.0
  0
LINE
  5
1F1
  8
0
  6
CONTINUOUS
 62
     7
 10
1.6376981108
 20
0.3315617521
 30
0.0
 11
9.6733255112
 21
0.3315617521
 31
0.0
  0
LINE
  5
1F2
  8
0
  6
CONTINUOUS
 62
     7
 10
9.6733255112
 20
0.2065617521
 30
0.0
 11
1.6376981108
 21
0.2065617521
 31
0.0
  0
LINE
  5
1F3
  8
0
  6
CONTINUOUS
 62
     7
 10
9.092519685
 20
2.093503937
 30
0.0
 11
9.092519685
 21
9.217519685
 31
0.0
  0
LINE
  5
1F4
  8
0
  6
CONTINUOUS
 62
     7
 10
2.218503937
 20
2.093503937
 30
0.0
 11
9.092519685
 21
2.093503937
 31
0.0
  0
LINE
  5
1F5
  8
0
  6
CONTINUOUS
 62
     7
 10
9.092519685
 20
9.217519685
 30
0.0
 11
2.218503937
 21
9.217519685
 31
0.0
  0
LINE
  5
1F6
  8
0
  6
CONTINUOUS
 62
     7
 10
2.218503937
 20
9.217519685
 30
0.0
 11
2.218503937
 21
2.093503937
 31
0.0
  0
ARC
  5
1F7
  8
0
  6
CONTINUOUS
 62
     7
 10
9.8204225981
 20
0.4585851406
 30
0.0
 40
0.031249999999992
 50
224.9999999995
 51
44.9999999996
  0
ARC
  5
1F8
  8
0
  6
CONTINUOUS
 62
     7
 10
9.8204225981
 20
0.6112413605
 30
0.0
 40
0.0312499999999732
 50
315.0000000005
 51
135.0000000005
  0
ARC
  5
1F9
  8
0
  6
CONTINUOUS
 62
     7
 10
9.614616772
 20
0.6112413605
 30
0.0
 40
0.0312499999999948
 50
44.9999999995
 51
224.9999999995
  0
ARC
  5
1FA
  8
0
  6
CONTINUOUS
 62
     7
 10
9.614616772
 20
0.4585851406
 30
0.0
 40
0.0312499999999962
 50
135.0000000005
 51
315.0000000005
  0
ARC
  5
1FB
  8
0
  6
CONTINUOUS
 62
     7
 10
10.6997822615
 20
1.4906010239
 30
0.0
 40
0.0312499999999988
 50
134.9999999995
 51
314.9999999995
  0
ARC
  5
1FC
  8
0
  6
CONTINUOUS
 62
     7
 10
10.8524384814
 20
1.4906010239
 30
0.0
 40
0.0312499999999883
 50
225.0000000005
 51
45.0000000005
  0
ARC
  5
1FD
  8
0
  6
CONTINUOUS
 62
     7
 10
10.8524384814
 20
1.6964068501
 30
0.0
 40
0.0312499999999982
 50
314.9999999995
 51
134.9999999994
  0
ARC
  5
1FE
  8
0
  6
CONTINUOUS
 62
     7
 10
10.6997822615
 20
1.6964068501
 30
0.0
 40
0.0312499999999952
 50
45.0000000005
 51
225.0000000005
  0
ARC
  5
1FF
  8
0
  6
CONTINUOUS
 62
     7
 10
0.6112413605
 20
1.4906010239
 30
0.0
 40
0.0312499999999706
 50
225.0000000005
 51
45.0000000005
  0
ARC
  5
200
  8
0
  6
CONTINUOUS
 62
     7
 10
0.6112413605
 20
1.6964068501
 30
0.0
 40
0.0312499999999952
 50
314.9999999995
 51
134.9999999994
  0
ARC
  5
201
  8
0
  6
CONTINUOUS
 62
     7
 10
1.6964068501
 20
0.6112413605
 30
0.0
 40
0.031249999999995
 50
315.0000000005
 51
135.0000000005
  0
ARC
  5
202
  8
0
  6
CONTINUOUS
 62
     7
 10
1.4906010239
 20
0.6112413605
 30
0.0
 40
0.031249999999998
 50
44.9999999995
 51
224.9999999995
  0
ARC
  5
203
  8
0
  6
CONTINUOUS
 62
     7
 10
1.4906010239
 20
0.4585851406
 30
0.0
 40
0.0312499999999957
 50
135.0000000005
 51
315.0000000005
  0
ARC
  5
204
  8
0
  6
CONTINUOUS
 62
     7
 10
1.6964068501
 20
0.4585851406
 30
0.0
 40
0.0312499999999982
 50
224.9999999995
 51
44.9999999995
  0
ARC
  5
205
  8
0
  6
CONTINUOUS
 62
     7
 10
0.6112413605
 20
9.8204225981
 30
0.0
 40
0.0312500000000043
 50
314.9999999995
 51
134.9999999996
  0
ARC
  5
206
  8
0
  6
CONTINUOUS
 62
     7
 10
0.4585851406
 20
9.8204225981
 30
0.0
 40
0.0312499999999928
 50
45.0000000005
 51
225.0000000005
  0
ARC
  5
207
  8
0
  6
CONTINUOUS
 62
     7
 10
0.4585851406
 20
9.614616772
 30
0.0
 40
0.0312499999999964
 50
134.9999999994
 51
314.9999999994
  0
ARC
  5
208
  8
0
  6
CONTINUOUS
 62
     7
 10
0.6112413605
 20
9.614616772
 30
0.0
 40
0.0312499999999984
 50
225.0000000006
 51
45.0000000005
  0
ARC
  5
209
  8
0
  6
CONTINUOUS
 62
     7
 10
1.4906010239
 20
10.8524384814
 30
0.0
 40
0.0312499999999918
 50
44.9999999995
 51
224.9999999995
  0
ARC
  5
20A
  8
0
  6
CONTINUOUS
 62
     7
 10
1.4906010239
 20
10.6997822615
 30
0.0
 40
0.0312499999999913
 50
135.0000000005
 51
315.0000000005
  0
ARC
  5
20B
  8
0
  6
CONTINUOUS
 62
     7
 10
1.6964068501
 20
10.6997822615
 30
0.0
 40
0.031249999999997
 50
224.9999999995
 51
44.9999999995
  0
ARC
  5
20C
  8
0
  6
CONTINUOUS
 62
     7
 10
1.6964068501
 20
10.8524384814
 30
0.0
 40
0.0312499999999962
 50
315.0000000005
 51
135.0000000005
  0
ARC
  5
20D
  8
0
  6
CONTINUOUS
 62
     7
 10
9.614616772
 20
10.6997822615
 30
0.0
 40
0.0312499999999977
 50
135.0000000005
 51
315.0000000006
  0
ARC
  5
20E
  8
0
  6
CONTINUOUS
 62
     7
 10
9.8204225981
 20
10.6997822615
 30
0.0
 40
0.0312499999999714
 50
224.9999999995
 51
44.9999999995
  0
ARC
  5
20F
  8
0
  6
CONTINUOUS
 62
     7
 10
9.8204225981
 20
10.8524384814
 30
0.0
 40
0.0312499999999651
 50
315.0000000005
 51
135.0000000005
  0
ARC
  5
210
  8
0
  6
CONTINUOUS
 62
     7
 10
9.614616772
 20
10.8524384814
 30
0.0
 40
0.0312499999999965
 50
44.9999999995
 51
224.9999999995
  0
ARC
  5
211
  8
0
  6
CONTINUOUS
 62
     7
 10
10.8524384814
 20
9.614616772
 30
0.0
 40
0.0312500000000015
 50
225.0000000005
 51
45.0000000005
  0
ARC
  5
212
  8
0
  6
CONTINUOUS
 62
     7
 10
10.8524384814
 20
9.8204225981
 30
0.0
 40
0.0312499999999889
 50
314.9999999995
 51
134.9999999995
  0
ARC
  5
213
  8
0
  6
CONTINUOUS
 62
     7
 10
10.6997822615
 20
9.8204225981
 30
0.0
 40
0.0312499999999714
 50
45.0000000005
 51
225.0000000005
  0
ARC
  5
214
  8
0
  6
CONTINUOUS
 62
     7
 10
10.6997822615
 20
9.614616772
 30
0.0
 40
0.0312500000000015
 50
134.9999999995
 51
314.9999999995
  0
ARC
  5
215
  8
0
  6
CONTINUOUS
 62
     7
 10
9.614616772
 20
-0.0220970869
 30
0.0
 40
0.0312500000000821
 50
45.0000000001
 51
225.0000000001
  0
ARC
  5
216
  8
0
  6
CONTINUOUS
 62
     7
 10
9.1767218107
 20
-0.0220970869
 30
0.0
 40
0.0312499999997728
 50
314.9999999999
 51
134.9999999999
  0
ARC
  5
217
  8
0
  6
CONTINUOUS
 62
     7
 10
5.8744592916
 20
-0.0220970869
 30
0.0
 40
0.0312499999998932
 50
44.9999999998
 51
224.9999999998
  0
ARC
  5
218
  8
0
  6
CONTINUOUS
 62
     7
 10
5.4365643304
 20
-0.0220970869
 30
0.0
 40
0.0312499999997585
 50
314.9999999999
 51
134.9999999999
  0
ARC
  5
219
  8
0
  6
CONTINUOUS
 62
     7
 10
2.1343018113
 20
-0.0220970869
 30
0.0
 40
0.0312499999999485
 50
44.9999999999
 51
224.9999999999
  0
ARC
  5
21A
  8
0
  6
CONTINUOUS
 62
     7
 10
1.6964068501
 20
-0.0220970869
 30
0.0
 40
0.0312499999997779
 50
314.9999999999
 51
134.9999999999
  0
ARC
  5
21B
  8
0
  6
CONTINUOUS
 62
     7
 10
-0.0220970869
 20
1.6964068501
 30
0.0
 40
0.0312499999997415
 50
314.9999999998
 51
134.9999999998
  0
ARC
  5
21C
  8
0
  6
CONTINUOUS
 62
     7
 10
-0.0220970869
 20
2.1343018113
 30
0.0
 40
0.0312500000000724
 50
225.0000000001
 51
45.0000000001
  0
ARC
  5
21D
  8
0
  6
CONTINUOUS
 62
     7
 10
-0.0220970869
 20
5.4365643304
 30
0.0
 40
0.0312499999999118
 50
315.0000000001
 51
135.0000000001
  0
ARC
  5
21E
  8
0
  6
CONTINUOUS
 62
     7
 10
-0.0220970869
 20
5.8744592916
 30
0.0
 40
0.0312500000000543
 50
225.0000000001
 51
45.0000000001
  0
ARC
  5
21F
  8
0
  6
CONTINUOUS
 62
     7
 10
-0.0220970869
 20
9.1767218107
 30
0.0
 40
0.0312499999999376
 50
315.0000000001
 51
135.0000000002
  0
ARC
  5
220
  8
0
  6
CONTINUOUS
 62
     7
 10
-0.0220970869
 20
9.614616772
 30
0.0
 40
0.0312500000000716
 50
225.0000000001
 51
45.0000000001
  0
ARC
  5
221
  8
0
  6
CONTINUOUS
 62
     7
 10
1.6964068501
 20
11.333120709
 30
0.0
 40
0.0312500000000755
 50
225.0000000002
 51
45.0000000002
  0
ARC
  5
222
  8
0
  6
CONTINUOUS
 62
     7
 10
2.1343018113
 20
11.333120709
 30
0.0
 40
0.0312499999997701
 50
134.9999999998
 51
314.9999999998
  0
ARC
  5
223
  8
0
  6
CONTINUOUS
 62
     7
 10
5.4365643304
 20
11.333120709
 30
0.0
 40
0.0312499999999217
 50
224.9999999999
 51
44.9999999998
  0
ARC
  5
224
  8
0
  6
CONTINUOUS
 62
     7
 10
5.8744592916
 20
11.333120709
 30
0.0
 40
0.0312499999997842
 50
134.9999999999
 51
314.9999999999
  0
ARC
  5
225
  8
0
  6
CONTINUOUS
 62
     7
 10
9.1767218107
 20
11.333120709
 30
0.0
 40
0.0312499999999299
 50
224.9999999999
 51
44.9999999999
  0
ARC
  5
226
  8
0
  6
CONTINUOUS
 62
     7
 10
9.614616772
 20
11.333120709
 30
0.0
 40
0.0312499999997566
 50
134.9999999998
 51
314.9999999998
  0
ARC
  5
227
  8
0
  6
CONTINUOUS
 62
     7
 10
11.333120709
 20
9.614616772
 30
0.0
 40
0.0312499999997691
 50
134.9999999996
 51
314.9999999995
  0
ARC
  5
228
  8
0
  6
CONTINUOUS
 62
     7
 10
11.333120709
 20
9.1767218107
 30
0.0
 40
0.0312500000000543
 50
45.0000000001
 51
225.0000000001
  0
ARC
  5
229
  8
0
  6
CONTINUOUS
 62
     7
 10
11.333120709
 20
5.8744592916
 30
0.0
 40
0.0312499999998816
 50
135.0000000001
 51
315.0
  0
ARC
  5
22A
  8
0
  6
CONTINUOUS
 62
     7
 10
11.333120709
 20
5.4365643304
 30
0.0
 40
0.0312500000000574
 50
45.0000000001
 51
225.0000000001
  0
ARC
  5
22B
  8
0
  6
CONTINUOUS
 62
     7
 10
11.333120709
 20
2.1343018113
 30
0.0
 40
0.0312499999999453
 50
135.0000000002
 51
315.0000000002
  0
ARC
  5
22C
  8
0
  6
CONTINUOUS
 62
     7
 10
11.333120709
 20
1.6964068501
 30
0.0
 40
0.0312500000000745
 50
45.0000000001
 51
225.0000000001
  0
ARC
  5
22D
  8
0
  6
CONTINUOUS
 62
     7
 10
2.1152167601
 20
9.3200449033
 30
0.0
 40
0.0312499999999997
 50
45.9878944885
 51
225.9878944885
  0
ARC
  5
22E
  8
0
  6
CONTINUOUS
 62
     7
 10
2.1152029172
 20
1.9864459787
 30
0.0
 40
0.0312500000000002
 50
133.976825976
 51
313.976825976
  0
ARC
  5
22F
  8
0
  6
CONTINUOUS
 62
     7
 10
9.2001988415
 20
1.9864326134
 30
0.0
 40
0.0312500000000014
 50
225.9878944885
 51
45.9878944885
  0
ARC
  5
230
  8
0
  6
CONTINUOUS
 62
     7
 10
9.1935504518
 20
9.3222248239
 30
0.0
 40
0.0312500000000015
 50
335.1701473659
 51
139.5009412152
  0
ARC
  5
231
  8
0
  6
CONTINUOUS
 62
     7
 10
0.3094646652
 20
9.6954225981
 30
0.0
 40
0.0312500000000144
 50
321.9159517881
 51
38.0840482119
  0
ARC
  5
232
  8
0
  6
CONTINUOUS
 62
     7
 10
0.228658839
 20
9.6954225981
 30
0.0
 40
0.0312500000000166
 50
141.9159517905
 51
218.0840482095
  0
ARC
  5
233
  8
0
  6
CONTINUOUS
 62
     7
 10
0.228658839
 20
1.6156010239
 30
0.0
 40
0.0312499999999984
 50
141.9159517908
 51
218.0840482092
  0
ARC
  5
234
  8
0
  6
CONTINUOUS
 62
     7
 10
0.3094646652
 20
1.6156010239
 30
0.0
 40
0.0312500000000009
 50
225.0
 51
314.9999999997
  0
ARC
  5
235
  8
0
  6
CONTINUOUS
 62
     7
 10
1.6156010239
 20
0.3094646652
 30
0.0
 40
0.0312500000001314
 50
45.0
 51
225.0
  0
ARC
  5
236
  8
0
  6
CONTINUOUS
 62
     7
 10
1.6156010239
 20
0.228658839
 30
0.0
 40
0.0312500000000029
 50
135.0
 51
315.0
  0
ARC
  5
237
  8
0
  6
CONTINUOUS
 62
     7
 10
9.6954225981
 20
0.228658839
 30
0.0
 40
0.0312500000004974
 50
225.0
 51
45.0
  0
ARC
  5
238
  8
0
  6
CONTINUOUS
 62
     7
 10
9.6954225981
 20
0.3094646652
 30
0.0
 40
0.0312500000001868
 50
315.0
 51
135.0
  0
ARC
  5
239
  8
0
  6
CONTINUOUS
 62
     7
 10
11.0015589568
 20
1.6156010239
 30
0.0
 40
0.0312500000000116
 50
141.9159517888
 51
218.0840482112
  0
ARC
  5
23A
  8
0
  6
CONTINUOUS
 62
     7
 10
11.082364783
 20
1.6156010239
 30
0.0
 40
0.0312500000000128
 50
321.9159517898
 51
38.0840482102
  0
ARC
  5
23B
  8
0
  6
CONTINUOUS
 62
     7
 10
11.082364783
 20
9.6954225981
 30
0.0
 40
0.0312499999999986
 50
321.9159517898
 51
38.0840482102
  0
ARC
  5
23C
  8
0
  6
CONTINUOUS
 62
     7
 10
11.0015589568
 20
9.6954225981
 30
0.0
 40
0.031250000000004
 50
45.0
 51
135.0000000011
  0
ARC
  5
23D
  8
0
  6
CONTINUOUS
 62
     7
 10
9.6954225981
 20
11.0015589568
 30
0.0
 40
0.0312500000000118
 50
231.9159517892
 51
308.0840482108
  0
ARC
  5
23E
  8
0
  6
CONTINUOUS
 62
     7
 10
9.6954225981
 20
11.082364783
 30
0.0
 40
0.03125000000002
 50
51.9159517894
 51
128.0840482106
  0
ARC
  5
23F
  8
0
  6
CONTINUOUS
 62
     7
 10
1.6156010239
 20
11.082364783
 30
0.0
 40
0.0312500000000043
 50
51.9159517893
 51
128.0840482107
  0
ARC
  5
240
  8
0
  6
CONTINUOUS
 62
     7
 10
1.6156010239
 20
11.0015589568
 30
0.0
 40
0.031250000000002
 50
135.0
 51
224.9999999999
  0
ARC
  5
241
  8
0
  6
CONTINUOUS
 62
     7
 10
0.4585851406
 20
1.4906010239
 30
0.0
 40
0.0312499999999795
 50
134.9999999995
 51
314.9999999995
  0
ARC
  5
242
  8
0
  6
CONTINUOUS
 62
     7
 10
0.4585851406
 20
1.6964068501
 30
0.0
 40
0.031250000000001
 50
45.0000000005
 51
225.0000000006
  0
ARC
  5
243
  8
0
  6
CONTINUOUS
 62
     7
 10
0.3094646652
 20
1.6156010239
 30
0.0
 40
0.0312499999999988
 50
321.9159517878
 51
38.0840482122
  0
ARC
  5
244
  8
0
  6
CONTINUOUS
 62
     7
 10
0.3094646652
 20
9.6954225981
 30
0.0
 40
0.0312500000000122
 50
44.9999999998
 51
135.0
  0
ARC
  5
245
  8
0
  6
CONTINUOUS
 62
     7
 10
0.228658839
 20
9.6954225981
 30
0.0
 40
0.0312500000000185
 50
45.0
 51
135.0000000002
  0
ARC
  5
246
  8
0
  6
CONTINUOUS
 62
     7
 10
0.228658839
 20
1.6156010239
 30
0.0
 40
0.0312499999999969
 50
225.0000000003
 51
315.0
  0
ARC
  5
247
  8
0
  6
CONTINUOUS
 62
     7
 10
1.6156010239
 20
11.0015589568
 30
0.0
 40
0.0312500000000032
 50
231.9159517893
 51
308.0840482107
  0
ARC
  5
248
  8
0
  6
CONTINUOUS
 62
     7
 10
9.6954225981
 20
11.0015589568
 30
0.0
 40
0.0312500000000153
 50
315.0
 51
45.0
  0
ARC
  5
249
  8
0
  6
CONTINUOUS
 62
     7
 10
9.6954225981
 20
11.082364783
 30
0.0
 40
0.0312500000000216
 50
315.0
 51
45.0
  0
ARC
  5
24A
  8
0
  6
CONTINUOUS
 62
     7
 10
1.6156010239
 20
11.082364783
 30
0.0
 40
0.0312499999999998
 50
135.0000000001
 51
225.0
  0
ARC
  5
24B
  8
0
  6
CONTINUOUS
 62
     7
 10
11.0015589568
 20
9.6954225981
 30
0.0
 40
0.0312499999999983
 50
141.9159517889
 51
218.0840482111
  0
ARC
  5
24C
  8
0
  6
CONTINUOUS
 62
     7
 10
11.0015589568
 20
1.6156010239
 30
0.0
 40
0.0312500000000139
 50
225.0000000011
 51
315.0
  0
ARC
  5
24D
  8
0
  6
CONTINUOUS
 62
     7
 10
11.082364783
 20
1.6156010239
 30
0.0
 40
0.0312500000000188
 50
225.0
 51
314.9999999988
  0
ARC
  5
24E
  8
0
  6
CONTINUOUS
 62
     7
 10
11.082364783
 20
9.6954225981
 30
0.0
 40
0.031249999999994
 50
44.9999999989
 51
135.0
  0
ENDSEC
  0
EOF
