  0
SECTION
  2
HEADER
  9
$ACADVER
  1
AC1009
  9
$DWGCODEPAGE
  3
ansi_1252
  9
$INSBASE
 10
0.0
 20
0.0
 30
0.0
  9
$EXTMIN
 10
-1.3578790575
 20
-7.874015748
 30
0.0
  9
$EXTMAX
 10
0.1767766953
 20
0.0
 30
0.0
  9
$LIMMIN
 10
0.0
 20
0.0
  9
$LIMMAX
 10
12.0
 20
9.0
  9
$ORTHOMODE
 70
     0
  9
$REGENMODE
 70
     1
  9
$FILLMODE
 70
     1
  9
$QTEXTMODE
 70
     0
  9
$MIRRTEXT
 70
     1
  9
$DRAGMODE
 70
     2
  9
$LTSCALE
 40
1.0
  9
$OSMODE
 70
    37
  9
$ATTMODE
 70
     1
  9
$TEXTSIZE
 40
0.1377952756
  9
$TRACEWID
 40
0.05
  9
$TEXTSTYLE
  7
STANDARD
  9
$CLAYER
  8
0
  9
$CELTYPE
  6
BYLAYER
  9
$CECOLOR
 62
   256
  9
$DIMSCALE
 40
1.0
  9
$DIMASZ
 40
0.13
  9
$DIMEXO
 40
0.0393700787
  9
$DIMDLI
 40
0.38
  9
$DIMRND
 40
0.0
  9
$DIMDLE
 40
0.0
  9
$DIMEXE
 40
0.0393700787
  9
$DIMTP
 40
0.0
  9
$DIMTM
 40
0.0
  9
$DIMTXT
 40
0.1377952756
  9
$DIMCEN
 40
0.09
  9
$DIMTSZ
 40
0.0
  9
$DIMTOL
 70
     0
  9
$DIMLIM
 70
     0
  9
$DIMTIH
 70
     1
  9
$DIMTOH
 70
     1
  9
$DIMSE1
 70
     0
  9
$DIMSE2
 70
     0
  9
$DIMTAD
 70
     1
  9
$DIMZIN
 70
     1
  9
$DIMBLK
  1

  9
$DIMASO
 70
     1
  9
$DIMSHO
 70
     1
  9
$DIMPOST
  1

  9
$DIMAPOST
  1

  9
$DIMALT
 70
     0
  9
$DIMALTD
 70
     2
  9
$DIMALTF
 40
25.4
  9
$DIMLFAC
 40
1.0
  9
$DIMTOFL
 70
     0
  9
$DIMTVP
 40
0.0
  9
$DIMTIX
 70
     0
  9
$DIMSOXD
 70
     0
  9
$DIMSAH
 70
     0
  9
$DIMBLK1
  1

  9
$DIMBLK2
  1

  9
$DIMSTYLE
  2
STANDARD
  9
$DIMCLRD
 70
     0
  9
$DIMCLRE
 70
     0
  9
$DIMCLRT
 70
     0
  9
$DIMTFAC
 40
1.0
  9
$DIMGAP
 40
0.06
  9
$LUNITS
 70
     2
  9
$LUPREC
 70
     8
  9
$SKETCHINC
 40
0.1
  9
$FILLETRAD
 40
0.5
  9
$AUNITS
 70
     0
  9
$AUPREC
 70
     2
  9
$MENU
  1
.
  9
$ELEVATION
 40
0.0
  9
$PELEVATION
 40
0.0
  9
$THICKNESS
 40
0.0
  9
$LIMCHECK
 70
     0
  9
$CHAMFERA
 40
0.0
  9
$CHAMFERB
 40
0.0
  9
$SKPOLY
 70
     0
  9
$TDCREATE
 40
2458269.762419306
  9
$TDUPDATE
 40
2458269.762449618
  9
$TDINDWG
 40
0.0000000116
  9
$TDUSRTIMER
 40
0.0000000116
  9
$USRTIMER
 70
     1
  9
$ANGBASE
 50
0.0
  9
$ANGDIR
 70
     0
  9
$PDMODE
 70
     0
  9
$PDSIZE
 40
-1.0
  9
$PLINEWID
 40
0.0
  9
$COORDS
 70
     1
  9
$SPLFRAME
 70
     0
  9
$SPLINETYPE
 70
     6
  9
$SPLINESEGS
 70
     8
  9
$ATTDIA
 70
     0
  9
$ATTREQ
 70
     1
  9
$HANDLING
 70
     1
  9
$HANDSEED
  5
21F
  9
$SURFTAB1
 70
     6
  9
$SURFTAB2
 70
     6
  9
$SURFTYPE
 70
     6
  9
$SURFU
 70
     6
  9
$SURFV
 70
     6
  9
$UCSNAME
  2

  9
$UCSORG
 10
0.0
 20
0.0
 30
0.0
  9
$UCSXDIR
 10
1.0
 20
0.0
 30
0.0
  9
$UCSYDIR
 10
0.0
 20
1.0
 30
0.0
  9
$PUCSNAME
  2

  9
$PUCSORG
 10
0.0
 20
0.0
 30
0.0
  9
$PUCSXDIR
 10
1.0
 20
0.0
 30
0.0
  9
$PUCSYDIR
 10
0.0
 20
1.0
 30
0.0
  9
$USERI1
 70
     0
  9
$USERI2
 70
     0
  9
$USERI3
 70
     0
  9
$USERI4
 70
     0
  9
$USERI5
 70
     0
  9
$USERR1
 40
0.0
  9
$USERR2
 40
0.0
  9
$USERR3
 40
0.0
  9
$USERR4
 40
0.0
  9
$USERR5
 40
0.0
  9
$WORLDVIEW
 70
     1
  9
$SHADEDGE
 70
     3
  9
$SHADEDIF
 70
    70
  9
$TILEMODE
 70
     1
  9
$MAXACTVP
 70
    64
  9
$PLIMCHECK
 70
     0
  9
$PEXTMIN
 10
1.0000000000E+20
 20
1.0000000000E+20
 30
1.0000000000E+20
  9
$PEXTMAX
 10
-1.0000000000E+20
 20
-1.0000000000E+20
 30
-1.0000000000E+20
  9
$PLIMMIN
 10
0.0
 20
0.0
  9
$PLIMMAX
 10
12.0
 20
9.0
  9
$UNITMODE
 70
     0
  9
$VISRETAIN
 70
     1
  9
$PLINEGEN
 70
     0
  9
$PSLTSCALE
 70
     1
  0
ENDSEC
  0
SECTION
  2
TABLES
  0
TABLE
  2
VPORT
 70
     1
  0
VPORT
  2
*ACTIVE
 70
     0
 10
0.0
 20
0.0
 11
1.0
 21
1.0
 12
-0.5905511811
 22
-3.937007874
 13
0.0
 23
0.0
 14
0.5
 24
0.5
 15
0.5
 25
0.5
 16
0.0
 26
0.0
 36
1.0
 17
0.0
 27
0.0
 37
0.0
 40
8.031496063
 41
0.1949012806
 42
50.0
 43
0.0
 44
0.0
 50
0.0
 51
0.0
 71
     0
 72
   100
 73
     1
 74
     3
 75
     0
 76
     0
 77
     0
 78
     0
  0
ENDTAB
  0
TABLE
  2
LTYPE
 70
     6
  0
LTYPE
  2
CONTINUOUS
 70
     0
  3
Solid line
 72
    65
 73
     0
 40
0.0
  0
LTYPE
  2
HIDDEN
 70
     0
  3
Hidden __ __ __ __ __ __ __ __ __ __ __ __ __ __
 72
    65
 73
     2
 40
0.075
 49
0.05
 49
-0.025
  0
LTYPE
  2
PHANTOM
 70
     0
  3
Phantom ______  __  __  ______  __  __  ______
 72
    65
 73
     6
 40
0.5
 49
0.25
 49
-0.05
 49
0.05
 49
-0.05
 49
0.05
 49
-0.05
  0
LTYPE
  2
CENTER
 70
     0
  3
Center ____ _ ____ _ ____ _ ____ _ ____ _ ____
 72
    65
 73
     4
 40
0.4
 49
0.25
 49
-0.05
 49
0.05
 49
-0.05
  0
LTYPE
  2
CENTERX2
 70
     0
  3
Center (2x) ________  __  ________  __  _____
 72
    65
 73
     4
 40
0.8
 49
0.5
 49
-0.1
 49
0.1
 49
-0.1
  0
LTYPE
  2
DOT2
 70
     0
  3
Dot (.5x) ........................................
 72
    65
 73
     2
 40
0.025
 49
0.0
 49
-0.025
  0
ENDTAB
  0
TABLE
  2
LAYER
 70
     1
  0
LAYER
  2
0
 70
     0
 62
     7
  6
CONTINUOUS
  0
ENDTAB
  0
TABLE
  2
STYLE
 70
     1
  0
STYLE
  2
STANDARD
 70
     0
 40
0.0
 41
1.0
 50
0.0
 71
     0
 42
0.1377952756
  3
txt
  4

  0
ENDTAB
  0
TABLE
  2
VIEW
 70
     0
  0
ENDTAB
  0
TABLE
  2
UCS
 70
     0
  0
ENDTAB
  0
TABLE
  2
APPID
 70
     1
  0
APPID
  2
ACAD
 70
     0
  0
ENDTAB
  0
TABLE
  2
DIMSTYLE
 70
     1
  0
DIMSTYLE
  2
STANDARD
 70
     0
  3

  4

  5

  6

  7

 40
1.0
 41
0.18
 42
0.0625
 43
0.38
 44
0.18
 45
0.0
 46
0.0
 47
0.0
 48
0.0
140
0.18
141
0.09
142
0.0
143
25.4
144
1.0
145
0.0
146
1.0
147
0.09
 71
     0
 72
     0
 73
     1
 74
     1
 75
     0
 76
     0
 77
     0
 78
     0
170
     0
171
     2
172
     0
173
     0
174
     0
175
     0
176
     0
177
     0
178
     0
  0
ENDTAB
  0
ENDSEC
  0
SECTION
  2
BLOCKS
  0
BLOCK
  8
0
  2
$MODEL_SPACE
 70
     0
 10
0.0
 20
0.0
 30
0.0
  3
$MODEL_SPACE
  1

  0
ENDBLK
  5
21
  8
0
  0
BLOCK
 67
     1
  8
0
  2
$PAPER_SPACE
 70
     0
 10
0.0
 20
0.0
 30
0.0
  3
$PAPER_SPACE
  1

  0
ENDBLK
  5
1D
 67
     1
  8
0
  0
ENDSEC
  0
SECTION
  2
ENTITIES
  0
LINE
  5
149
  8
0
  6
CONTINUOUS
 62
     7
 10
0.0
 20
-3.5403070866
 30
0.0
 11
0.0034772392
 21
-3.5403070866
 31
0.0
  0
LINE
  5
14A
  8
0
  6
CONTINUOUS
 62
     7
 10
0.0
 20
-3.5403070866
 30
0.0
 11
0.0
 21
-3.5433070866
 31
0.0
  0
LINE
  5
14B
  8
0
  6
CONTINUOUS
 62
     7
 10
0.0
 20
-3.940007874
 30
0.0
 11
0.0
 21
-3.937007874
 31
0.0
  0
LINE
  5
14C
  8
0
  6
CONTINUOUS
 62
     7
 10
0.0
 20
-3.940007874
 30
0.0
 11
0.0034772392
 21
-3.940007874
 31
0.0
  0
LINE
  5
14D
  8
0
  6
CONTINUOUS
 62
     7
 10
0.1767766953
 20
-3.940007874
 30
0.0
 11
0.0407169346
 21
-3.940007874
 31
0.0
  0
LINE
  5
14E
  8
0
  6
CONTINUOUS
 62
     7
 10
0.0407169346
 20
-4.3277086614
 30
0.0
 11
0.1767766953
 21
-4.3277086614
 31
0.0
  0
LINE
  5
14F
  8
0
  6
CONTINUOUS
 62
     7
 10
0.0
 20
-4.3277086614
 30
0.0
 11
0.0034772392
 21
-4.3277086614
 31
0.0
  0
LINE
  5
150
  8
0
  6
CONTINUOUS
 62
     7
 10
0.0
 20
-4.3277086614
 30
0.0
 11
0.0
 21
-4.3307086614
 31
0.0
  0
LINE
  5
151
  8
0
  6
CONTINUOUS
 62
     7
 10
0.0
 20
-4.7274094488
 30
0.0
 11
0.0
 21
-4.7244094488
 31
0.0
  0
LINE
  5
152
  8
0
  6
CONTINUOUS
 62
     7
 10
0.0
 20
-4.7274094488
 30
0.0
 11
0.0034772392
 21
-4.7274094488
 31
0.0
  0
LINE
  5
153
  8
0
  6
CONTINUOUS
 62
     7
 10
0.1767766953
 20
-4.7274094488
 30
0.0
 11
0.0407169346
 21
-4.7274094488
 31
0.0
  0
LINE
  5
154
  8
0
  6
CONTINUOUS
 62
     7
 10
0.0407169346
 20
-5.1151102362
 30
0.0
 11
0.1767766953
 21
-5.1151102362
 31
0.0
  0
LINE
  5
155
  8
0
  6
CONTINUOUS
 62
     7
 10
0.0
 20
-5.1151102362
 30
0.0
 11
0.0034772392
 21
-5.1151102362
 31
0.0
  0
LINE
  5
156
  8
0
  6
CONTINUOUS
 62
     7
 10
0.0
 20
-5.1151102362
 30
0.0
 11
0.0
 21
-5.1181102362
 31
0.0
  0
LINE
  5
157
  8
0
  6
CONTINUOUS
 62
     7
 10
0.0
 20
-5.5148110236
 30
0.0
 11
0.0
 21
-5.5118110236
 31
0.0
  0
LINE
  5
158
  8
0
  6
CONTINUOUS
 62
     7
 10
0.0
 20
-5.5148110236
 30
0.0
 11
0.0034772392
 21
-5.5148110236
 31
0.0
  0
LINE
  5
159
  8
0
  6
CONTINUOUS
 62
     7
 10
0.1767766953
 20
-5.5148110236
 30
0.0
 11
0.0407169346
 21
-5.5148110236
 31
0.0
  0
LINE
  5
15A
  8
0
  6
CONTINUOUS
 62
     7
 10
0.0407169346
 20
-5.902511811
 30
0.0
 11
0.1767766953
 21
-5.902511811
 31
0.0
  0
LINE
  5
15B
  8
0
  6
CONTINUOUS
 62
     7
 10
0.0
 20
-5.902511811
 30
0.0
 11
0.0034772392
 21
-5.902511811
 31
0.0
  0
LINE
  5
15C
  8
0
  6
CONTINUOUS
 62
     7
 10
0.0
 20
-5.902511811
 30
0.0
 11
0.0
 21
-5.905511811
 31
0.0
  0
LINE
  5
15D
  8
0
  6
CONTINUOUS
 62
     7
 10
0.0
 20
-6.3022125984
 30
0.0
 11
0.0
 21
-6.2992125984
 31
0.0
  0
LINE
  5
15E
  8
0
  6
CONTINUOUS
 62
     7
 10
0.0
 20
-6.3022125984
 30
0.0
 11
0.0034772392
 21
-6.3022125984
 31
0.0
  0
LINE
  5
15F
  8
0
  6
CONTINUOUS
 62
     7
 10
0.1767766953
 20
-6.3022125984
 30
0.0
 11
0.0407169346
 21
-6.3022125984
 31
0.0
  0
LINE
  5
160
  8
0
  6
CONTINUOUS
 62
     7
 10
0.0407169346
 20
-6.6899133858
 30
0.0
 11
0.1767766953
 21
-6.6899133858
 31
0.0
  0
LINE
  5
161
  8
0
  6
CONTINUOUS
 62
     7
 10
0.0
 20
-6.6899133858
 30
0.0
 11
0.0034772392
 21
-6.6899133858
 31
0.0
  0
LINE
  5
162
  8
0
  6
CONTINUOUS
 62
     7
 10
0.0
 20
-6.6899133858
 30
0.0
 11
0.0
 21
-6.6929133858
 31
0.0
  0
LINE
  5
163
  8
0
  6
CONTINUOUS
 62
     7
 10
0.0
 20
-7.0896141732
 30
0.0
 11
0.0
 21
-7.0866141732
 31
0.0
  0
LINE
  5
164
  8
0
  6
CONTINUOUS
 62
     7
 10
0.0
 20
-7.0896141732
 30
0.0
 11
0.0034772392
 21
-7.0896141732
 31
0.0
  0
LINE
  5
165
  8
0
  6
CONTINUOUS
 62
     7
 10
0.0407169346
 20
-7.4773149606
 30
0.0
 11
0.1767766953
 21
-7.4773149606
 31
0.0
  0
LINE
  5
166
  8
0
  6
CONTINUOUS
 62
     7
 10
0.0
 20
-7.4773149606
 30
0.0
 11
0.0034772392
 21
-7.4773149606
 31
0.0
  0
LINE
  5
167
  8
0
  6
CONTINUOUS
 62
     7
 10
0.0
 20
-7.4773149606
 30
0.0
 11
0.0
 21
-7.4803149606
 31
0.0
  0
LINE
  5
168
  8
0
  6
CONTINUOUS
 62
     7
 10
-1.1811023622
 20
-7.4773149606
 30
0.0
 11
-1.1811023622
 21
-7.4803149606
 31
0.0
  0
LINE
  5
169
  8
0
  6
CONTINUOUS
 62
     7
 10
-1.1811023622
 20
-7.4773149606
 30
0.0
 11
-1.1845796014
 21
-7.4773149606
 31
0.0
  0
LINE
  5
16A
  8
0
  6
CONTINUOUS
 62
     7
 10
-1.3578790575
 20
-7.4773149606
 30
0.0
 11
-1.2218192968
 21
-7.4773149606
 31
0.0
  0
LINE
  5
16B
  8
0
  6
CONTINUOUS
 62
     7
 10
-1.2218192968
 20
-7.0896141732
 30
0.0
 11
-1.3578790575
 21
-7.0896141732
 31
0.0
  0
LINE
  5
16C
  8
0
  6
CONTINUOUS
 62
     7
 10
-1.1811023622
 20
-7.0896141732
 30
0.0
 11
-1.1845796014
 21
-7.0896141732
 31
0.0
  0
LINE
  5
16D
  8
0
  6
CONTINUOUS
 62
     7
 10
-1.1811023622
 20
-7.0896141732
 30
0.0
 11
-1.1811023622
 21
-7.0866141732
 31
0.0
  0
LINE
  5
16E
  8
0
  6
CONTINUOUS
 62
     7
 10
-1.1811023622
 20
-6.6899133858
 30
0.0
 11
-1.1811023622
 21
-6.6929133858
 31
0.0
  0
LINE
  5
16F
  8
0
  6
CONTINUOUS
 62
     7
 10
-1.1811023622
 20
-6.6899133858
 30
0.0
 11
-1.1845796014
 21
-6.6899133858
 31
0.0
  0
LINE
  5
170
  8
0
  6
CONTINUOUS
 62
     7
 10
-1.3578790575
 20
-6.6899133858
 30
0.0
 11
-1.2218192968
 21
-6.6899133858
 31
0.0
  0
LINE
  5
171
  8
0
  6
CONTINUOUS
 62
     7
 10
-1.2218192968
 20
-6.3022125984
 30
0.0
 11
-1.3578790575
 21
-6.3022125984
 31
0.0
  0
LINE
  5
172
  8
0
  6
CONTINUOUS
 62
     7
 10
-1.1811023622
 20
-6.3022125984
 30
0.0
 11
-1.1845796014
 21
-6.3022125984
 31
0.0
  0
LINE
  5
173
  8
0
  6
CONTINUOUS
 62
     7
 10
-1.1811023622
 20
-6.3022125984
 30
0.0
 11
-1.1811023622
 21
-6.2992125984
 31
0.0
  0
LINE
  5
174
  8
0
  6
CONTINUOUS
 62
     7
 10
-1.1811023622
 20
-5.902511811
 30
0.0
 11
-1.1811023622
 21
-5.905511811
 31
0.0
  0
LINE
  5
175
  8
0
  6
CONTINUOUS
 62
     7
 10
-1.1811023622
 20
-5.902511811
 30
0.0
 11
-1.1845796014
 21
-5.902511811
 31
0.0
  0
LINE
  5
176
  8
0
  6
CONTINUOUS
 62
     7
 10
-1.3578790575
 20
-5.902511811
 30
0.0
 11
-1.2218192968
 21
-5.902511811
 31
0.0
  0
LINE
  5
177
  8
0
  6
CONTINUOUS
 62
     7
 10
-1.2218192968
 20
-5.5148110236
 30
0.0
 11
-1.3578790575
 21
-5.5148110236
 31
0.0
  0
LINE
  5
178
  8
0
  6
CONTINUOUS
 62
     7
 10
-1.1811023622
 20
-5.5148110236
 30
0.0
 11
-1.1845796014
 21
-5.5148110236
 31
0.0
  0
LINE
  5
179
  8
0
  6
CONTINUOUS
 62
     7
 10
-1.1811023622
 20
-5.5148110236
 30
0.0
 11
-1.1811023622
 21
-5.5118110236
 31
0.0
  0
LINE
  5
17A
  8
0
  6
CONTINUOUS
 62
     7
 10
-1.1811023622
 20
-5.1151102362
 30
0.0
 11
-1.1811023622
 21
-5.1181102362
 31
0.0
  0
LINE
  5
17B
  8
0
  6
CONTINUOUS
 62
     7
 10
-1.1811023622
 20
-5.1151102362
 30
0.0
 11
-1.1845796014
 21
-5.1151102362
 31
0.0
  0
LINE
  5
17C
  8
0
  6
CONTINUOUS
 62
     7
 10
-1.3578790575
 20
-5.1151102362
 30
0.0
 11
-1.2218192968
 21
-5.1151102362
 31
0.0
  0
LINE
  5
17D
  8
0
  6
CONTINUOUS
 62
     7
 10
-1.2218192968
 20
-4.7274094488
 30
0.0
 11
-1.3578790575
 21
-4.7274094488
 31
0.0
  0
LINE
  5
17E
  8
0
  6
CONTINUOUS
 62
     7
 10
-1.1811023622
 20
-4.7274094488
 30
0.0
 11
-1.1845796014
 21
-4.7274094488
 31
0.0
  0
LINE
  5
17F
  8
0
  6
CONTINUOUS
 62
     7
 10
-1.1811023622
 20
-4.7274094488
 30
0.0
 11
-1.1811023622
 21
-4.7244094488
 31
0.0
  0
LINE
  5
180
  8
0
  6
CONTINUOUS
 62
     7
 10
-1.1811023622
 20
-4.3277086614
 30
0.0
 11
-1.1811023622
 21
-4.3307086614
 31
0.0
  0
LINE
  5
181
  8
0
  6
CONTINUOUS
 62
     7
 10
-1.1811023622
 20
-4.3277086614
 30
0.0
 11
-1.1845796014
 21
-4.3277086614
 31
0.0
  0
LINE
  5
182
  8
0
  6
CONTINUOUS
 62
     7
 10
-1.3578790575
 20
-4.3277086614
 30
0.0
 11
-1.2218192968
 21
-4.3277086614
 31
0.0
  0
LINE
  5
183
  8
0
  6
CONTINUOUS
 62
     7
 10
-1.2218192968
 20
-3.940007874
 30
0.0
 11
-1.3578790575
 21
-3.940007874
 31
0.0
  0
LINE
  5
184
  8
0
  6
CONTINUOUS
 62
     7
 10
-1.1811023622
 20
-3.940007874
 30
0.0
 11
-1.1845796014
 21
-3.940007874
 31
0.0
  0
LINE
  5
185
  8
0
  6
CONTINUOUS
 62
     7
 10
-1.1811023622
 20
-3.940007874
 30
0.0
 11
-1.1811023622
 21
-3.937007874
 31
0.0
  0
LINE
  5
186
  8
0
  6
CONTINUOUS
 62
     7
 10
-1.1811023622
 20
-3.5403070866
 30
0.0
 11
-1.1811023622
 21
-3.5433070866
 31
0.0
  0
LINE
  5
187
  8
0
  6
CONTINUOUS
 62
     7
 10
-1.1811023622
 20
-3.5403070866
 30
0.0
 11
-1.1845796014
 21
-3.5403070866
 31
0.0
  0
LINE
  5
188
  8
0
  6
CONTINUOUS
 62
     7
 10
-1.3578790575
 20
-3.5403070866
 30
0.0
 11
-1.2218192968
 21
-3.5403070866
 31
0.0
  0
LINE
  5
189
  8
0
  6
CONTINUOUS
 62
     7
 10
-1.2218192968
 20
-3.1526062992
 30
0.0
 11
-1.3578790575
 21
-3.1526062992
 31
0.0
  0
LINE
  5
18A
  8
0
  6
CONTINUOUS
 62
     7
 10
-1.1811023622
 20
-3.1526062992
 30
0.0
 11
-1.1845796014
 21
-3.1526062992
 31
0.0
  0
LINE
  5
18B
  8
0
  6
CONTINUOUS
 62
     7
 10
-1.1811023622
 20
-3.1526062992
 30
0.0
 11
-1.1811023622
 21
-3.1496062992
 31
0.0
  0
LINE
  5
18C
  8
0
  6
CONTINUOUS
 62
     7
 10
-1.1811023622
 20
-2.7529055118
 30
0.0
 11
-1.1811023622
 21
-2.7559055118
 31
0.0
  0
LINE
  5
18D
  8
0
  6
CONTINUOUS
 62
     7
 10
-1.1811023622
 20
-2.7529055118
 30
0.0
 11
-1.1845796014
 21
-2.7529055118
 31
0.0
  0
LINE
  5
18E
  8
0
  6
CONTINUOUS
 62
     7
 10
-1.3578790575
 20
-2.7529055118
 30
0.0
 11
-1.2218192968
 21
-2.7529055118
 31
0.0
  0
LINE
  5
18F
  8
0
  6
CONTINUOUS
 62
     7
 10
-1.2218192968
 20
-2.3652047244
 30
0.0
 11
-1.3578790575
 21
-2.3652047244
 31
0.0
  0
LINE
  5
190
  8
0
  6
CONTINUOUS
 62
     7
 10
-1.1811023622
 20
-2.3652047244
 30
0.0
 11
-1.1845796014
 21
-2.3652047244
 31
0.0
  0
LINE
  5
191
  8
0
  6
CONTINUOUS
 62
     7
 10
-1.1811023622
 20
-2.3652047244
 30
0.0
 11
-1.1811023622
 21
-2.3622047244
 31
0.0
  0
LINE
  5
192
  8
0
  6
CONTINUOUS
 62
     7
 10
-1.1811023622
 20
-1.965503937
 30
0.0
 11
-1.1811023622
 21
-1.968503937
 31
0.0
  0
LINE
  5
193
  8
0
  6
CONTINUOUS
 62
     7
 10
-1.1811023622
 20
-1.965503937
 30
0.0
 11
-1.1845796014
 21
-1.965503937
 31
0.0
  0
LINE
  5
194
  8
0
  6
CONTINUOUS
 62
     7
 10
-1.3578790575
 20
-1.965503937
 30
0.0
 11
-1.2218192968
 21
-1.965503937
 31
0.0
  0
LINE
  5
195
  8
0
  6
CONTINUOUS
 62
     7
 10
-1.2218192968
 20
-1.5778031496
 30
0.0
 11
-1.3578790575
 21
-1.5778031496
 31
0.0
  0
LINE
  5
196
  8
0
  6
CONTINUOUS
 62
     7
 10
-1.1811023622
 20
-1.5778031496
 30
0.0
 11
-1.1845796014
 21
-1.5778031496
 31
0.0
  0
LINE
  5
197
  8
0
  6
CONTINUOUS
 62
     7
 10
-1.1811023622
 20
-1.5778031496
 30
0.0
 11
-1.1811023622
 21
-1.5748031496
 31
0.0
  0
LINE
  5
198
  8
0
  6
CONTINUOUS
 62
     7
 10
-1.1811023622
 20
-1.1781023622
 30
0.0
 11
-1.1811023622
 21
-1.1811023622
 31
0.0
  0
LINE
  5
199
  8
0
  6
CONTINUOUS
 62
     7
 10
-1.1811023622
 20
-1.1781023622
 30
0.0
 11
-1.1845796014
 21
-1.1781023622
 31
0.0
  0
LINE
  5
19A
  8
0
  6
CONTINUOUS
 62
     7
 10
-1.3578790575
 20
-1.1781023622
 30
0.0
 11
-1.2218192968
 21
-1.1781023622
 31
0.0
  0
LINE
  5
19B
  8
0
  6
CONTINUOUS
 62
     7
 10
0.0407169346
 20
-1.1781023622
 30
0.0
 11
0.1767766953
 21
-1.1781023622
 31
0.0
  0
LINE
  5
19C
  8
0
  6
CONTINUOUS
 62
     7
 10
0.0
 20
-1.1781023622
 30
0.0
 11
0.0034772392
 21
-1.1781023622
 31
0.0
  0
LINE
  5
19D
  8
0
  6
CONTINUOUS
 62
     7
 10
0.0
 20
-1.1781023622
 30
0.0
 11
0.0
 21
-1.1811023622
 31
0.0
  0
LINE
  5
19E
  8
0
  6
CONTINUOUS
 62
     7
 10
0.0
 20
-1.5778031496
 30
0.0
 11
0.0
 21
-1.5748031496
 31
0.0
  0
LINE
  5
19F
  8
0
  6
CONTINUOUS
 62
     7
 10
0.0
 20
-1.5778031496
 30
0.0
 11
0.0034772392
 21
-1.5778031496
 31
0.0
  0
LINE
  5
1A0
  8
0
  6
CONTINUOUS
 62
     7
 10
0.1767766953
 20
-1.5778031496
 30
0.0
 11
0.0407169346
 21
-1.5778031496
 31
0.0
  0
LINE
  5
1A1
  8
0
  6
CONTINUOUS
 62
     7
 10
0.0407169346
 20
-1.965503937
 30
0.0
 11
0.1767766953
 21
-1.965503937
 31
0.0
  0
LINE
  5
1A2
  8
0
  6
CONTINUOUS
 62
     7
 10
0.0
 20
-1.965503937
 30
0.0
 11
0.0034772392
 21
-1.965503937
 31
0.0
  0
LINE
  5
1A3
  8
0
  6
CONTINUOUS
 62
     7
 10
0.0
 20
-1.965503937
 30
0.0
 11
0.0
 21
-1.968503937
 31
0.0
  0
LINE
  5
1A4
  8
0
  6
CONTINUOUS
 62
     7
 10
0.0
 20
-2.3652047244
 30
0.0
 11
0.0
 21
-2.3622047244
 31
0.0
  0
LINE
  5
1A5
  8
0
  6
CONTINUOUS
 62
     7
 10
0.0
 20
-2.3652047244
 30
0.0
 11
0.0034772392
 21
-2.3652047244
 31
0.0
  0
LINE
  5
1A6
  8
0
  6
CONTINUOUS
 62
     7
 10
0.1767766953
 20
-2.3652047244
 30
0.0
 11
0.0407169346
 21
-2.3652047244
 31
0.0
  0
LINE
  5
1A7
  8
0
  6
CONTINUOUS
 62
     7
 10
0.0407169346
 20
-2.7529055118
 30
0.0
 11
0.1767766953
 21
-2.7529055118
 31
0.0
  0
LINE
  5
1A8
  8
0
  6
CONTINUOUS
 62
     7
 10
0.0
 20
-2.7529055118
 30
0.0
 11
0.0034772392
 21
-2.7529055118
 31
0.0
  0
LINE
  5
1A9
  8
0
  6
CONTINUOUS
 62
     7
 10
0.0
 20
-2.7529055118
 30
0.0
 11
0.0
 21
-2.7559055118
 31
0.0
  0
LINE
  5
1AA
  8
0
  6
CONTINUOUS
 62
     7
 10
0.0
 20
-3.1526062992
 30
0.0
 11
0.0
 21
-3.1496062992
 31
0.0
  0
LINE
  5
1AB
  8
0
  6
CONTINUOUS
 62
     7
 10
0.0
 20
-3.1526062992
 30
0.0
 11
0.0034772392
 21
-3.1526062992
 31
0.0
  0
LINE
  5
1AC
  8
0
  6
CONTINUOUS
 62
     7
 10
0.1767766953
 20
-3.1526062992
 30
0.0
 11
0.0407169346
 21
-3.1526062992
 31
0.0
  0
LINE
  5
1AD
  8
0
  6
CONTINUOUS
 62
     7
 10
0.0407169346
 20
-3.5403070866
 30
0.0
 11
0.1767766953
 21
-3.5403070866
 31
0.0
  0
LINE
  5
1AE
  8
0
  6
CONTINUOUS
 62
     7
 10
0.1767766953
 20
-7.0896141732
 30
0.0
 11
0.0407169346
 21
-7.0896141732
 31
0.0
  0
LINE
  5
1AF
  8
0
  6
CONTINUOUS
 62
     7
 10
0.1767766953
 20
-7.0896141732
 30
0.0
 11
0.1767766953
 21
-7.4773149606
 31
0.0
  0
LINE
  5
1B0
  8
0
  6
CONTINUOUS
 62
     7
 10
0.0
 20
-6.7371075597
 30
0.0
 11
0.0
 21
-7.0424199994
 31
0.0
  0
LINE
  5
1B1
  8
0
  6
CONTINUOUS
 62
     7
 10
0.1767766953
 20
-6.3022125984
 30
0.0
 11
0.1767766953
 21
-6.6899133858
 31
0.0
  0
LINE
  5
1B2
  8
0
  6
CONTINUOUS
 62
     7
 10
0.0
 20
-5.9497059848
 30
0.0
 11
0.0
 21
-6.2550184246
 31
0.0
  0
LINE
  5
1B3
  8
0
  6
CONTINUOUS
 62
     7
 10
0.1767766953
 20
-5.5148110236
 30
0.0
 11
0.1767766953
 21
-5.902511811
 31
0.0
  0
LINE
  5
1B4
  8
0
  6
CONTINUOUS
 62
     7
 10
0.0
 20
-5.16230441
 30
0.0
 11
0.0
 21
-5.4676168498
 31
0.0
  0
LINE
  5
1B5
  8
0
  6
CONTINUOUS
 62
     7
 10
0.1767766953
 20
-4.7274094488
 30
0.0
 11
0.1767766953
 21
-5.1151102362
 31
0.0
  0
LINE
  5
1B6
  8
0
  6
CONTINUOUS
 62
     7
 10
0.0
 20
-4.3749028352
 30
0.0
 11
0.0
 21
-4.680215275
 31
0.0
  0
LINE
  5
1B7
  8
0
  6
CONTINUOUS
 62
     7
 10
0.1767766953
 20
-3.940007874
 30
0.0
 11
0.1767766953
 21
-4.3277086614
 31
0.0
  0
LINE
  5
1B8
  8
0
  6
CONTINUOUS
 62
     7
 10
0.0
 20
-3.5875012604
 30
0.0
 11
0.0
 21
-3.8928137002
 31
0.0
  0
LINE
  5
1B9
  8
0
  6
CONTINUOUS
 62
     7
 10
0.1767766953
 20
-3.1526062992
 30
0.0
 11
0.1767766953
 21
-3.5403070866
 31
0.0
  0
LINE
  5
1BA
  8
0
  6
CONTINUOUS
 62
     7
 10
0.0
 20
-2.8000996856
 30
0.0
 11
0.0
 21
-3.1054121254
 31
0.0
  0
LINE
  5
1BB
  8
0
  6
CONTINUOUS
 62
     7
 10
0.1767766953
 20
-2.3652047244
 30
0.0
 11
0.1767766953
 21
-2.7529055118
 31
0.0
  0
LINE
  5
1BC
  8
0
  6
CONTINUOUS
 62
     7
 10
0.0
 20
-2.0126981108
 30
0.0
 11
0.0
 21
-2.3180105506
 31
0.0
  0
LINE
  5
1BD
  8
0
  6
CONTINUOUS
 62
     7
 10
0.1767766953
 20
-1.5778031496
 30
0.0
 11
0.1767766953
 21
-1.965503937
 31
0.0
  0
LINE
  5
1BE
  8
0
  6
CONTINUOUS
 62
     7
 10
0.0
 20
-1.225296536
 30
0.0
 11
0.0
 21
-1.5306089758
 31
0.0
  0
LINE
  5
1BF
  8
0
  6
CONTINUOUS
 62
     7
 10
0.1767766953
 20
-0.7874015748
 30
0.0
 11
0.1767766953
 21
-1.1781023622
 31
0.0
  0
LINE
  5
1C0
  8
0
  6
CONTINUOUS
 62
     7
 10
0.0441941738
 20
-0.7874015748
 30
0.0
 11
0.1767766953
 21
-0.7874015748
 31
0.0
  0
LINE
  5
1C1
  8
0
  6
CONTINUOUS
 62
     7
 10
0.0
 20
0.0
 30
0.0
 11
0.0
 21
-0.743207401
 31
0.0
  0
LINE
  5
1C2
  8
0
  6
CONTINUOUS
 62
     7
 10
-1.1811023622
 20
0.0
 30
0.0
 11
0.0
 21
0.0
 31
0.0
  0
LINE
  5
1C3
  8
0
  6
CONTINUOUS
 62
     7
 10
-1.1811023622
 20
-0.743207401
 30
0.0
 11
-1.1811023622
 21
0.0
 31
0.0
  0
LINE
  5
1C4
  8
0
  6
CONTINUOUS
 62
     7
 10
-1.3578790575
 20
-0.7874015748
 30
0.0
 11
-1.225296536
 21
-0.7874015748
 31
0.0
  0
LINE
  5
1C5
  8
0
  6
CONTINUOUS
 62
     7
 10
-1.3578790575
 20
-1.1781023622
 30
0.0
 11
-1.3578790575
 21
-0.7874015748
 31
0.0
  0
LINE
  5
1C6
  8
0
  6
CONTINUOUS
 62
     7
 10
-1.1811023622
 20
-1.5306089758
 30
0.0
 11
-1.1811023622
 21
-1.225296536
 31
0.0
  0
LINE
  5
1C7
  8
0
  6
CONTINUOUS
 62
     7
 10
-1.3578790575
 20
-1.965503937
 30
0.0
 11
-1.3578790575
 21
-1.5778031496
 31
0.0
  0
LINE
  5
1C8
  8
0
  6
CONTINUOUS
 62
     7
 10
-1.1811023622
 20
-2.3180105506
 30
0.0
 11
-1.1811023622
 21
-2.0126981108
 31
0.0
  0
LINE
  5
1C9
  8
0
  6
CONTINUOUS
 62
     7
 10
-1.3578790575
 20
-2.7529055118
 30
0.0
 11
-1.3578790575
 21
-2.3652047244
 31
0.0
  0
LINE
  5
1CA
  8
0
  6
CONTINUOUS
 62
     7
 10
-1.1811023622
 20
-3.1054121254
 30
0.0
 11
-1.1811023622
 21
-2.8000996856
 31
0.0
  0
LINE
  5
1CB
  8
0
  6
CONTINUOUS
 62
     7
 10
-1.3578790575
 20
-3.5403070866
 30
0.0
 11
-1.3578790575
 21
-3.1526062992
 31
0.0
  0
LINE
  5
1CC
  8
0
  6
CONTINUOUS
 62
     7
 10
-1.1811023622
 20
-3.8928137002
 30
0.0
 11
-1.1811023622
 21
-3.5875012604
 31
0.0
  0
LINE
  5
1CD
  8
0
  6
CONTINUOUS
 62
     7
 10
-1.3578790575
 20
-4.3277086614
 30
0.0
 11
-1.3578790575
 21
-3.940007874
 31
0.0
  0
LINE
  5
1CE
  8
0
  6
CONTINUOUS
 62
     7
 10
-1.1811023622
 20
-4.680215275
 30
0.0
 11
-1.1811023622
 21
-4.3749028352
 31
0.0
  0
LINE
  5
1CF
  8
0
  6
CONTINUOUS
 62
     7
 10
-1.3578790575
 20
-5.1151102362
 30
0.0
 11
-1.3578790575
 21
-4.7274094488
 31
0.0
  0
LINE
  5
1D0
  8
0
  6
CONTINUOUS
 62
     7
 10
-1.1811023622
 20
-5.4676168498
 30
0.0
 11
-1.1811023622
 21
-5.16230441
 31
0.0
  0
LINE
  5
1D1
  8
0
  6
CONTINUOUS
 62
     7
 10
-1.3578790575
 20
-5.902511811
 30
0.0
 11
-1.3578790575
 21
-5.5148110236
 31
0.0
  0
LINE
  5
1D2
  8
0
  6
CONTINUOUS
 62
     7
 10
-1.1811023622
 20
-6.2550184246
 30
0.0
 11
-1.1811023622
 21
-5.9497059848
 31
0.0
  0
LINE
  5
1D3
  8
0
  6
CONTINUOUS
 62
     7
 10
-1.3578790575
 20
-6.6899133858
 30
0.0
 11
-1.3578790575
 21
-6.3022125984
 31
0.0
  0
LINE
  5
1D4
  8
0
  6
CONTINUOUS
 62
     7
 10
-1.1811023622
 20
-7.0424199994
 30
0.0
 11
-1.1811023622
 21
-6.7371075597
 31
0.0
  0
LINE
  5
1D5
  8
0
  6
CONTINUOUS
 62
     7
 10
-1.3578790575
 20
-7.4773149606
 30
0.0
 11
-1.3578790575
 21
-7.0896141732
 31
0.0
  0
LINE
  5
1D6
  8
0
  6
CONTINUOUS
 62
     7
 10
-1.1811023622
 20
-7.874015748
 30
0.0
 11
-1.1811023622
 21
-7.5245091345
 31
0.0
  0
LINE
  5
1D7
  8
0
  6
CONTINUOUS
 62
     7
 10
0.0
 20
-7.874015748
 30
0.0
 11
-1.1811023622
 21
-7.874015748
 31
0.0
  0
LINE
  5
1D8
  8
0
  6
CONTINUOUS
 62
     7
 10
0.0
 20
-7.5245091345
 30
0.0
 11
0.0
 21
-7.874015748
 31
0.0
  0
ARC
  5
1D9
  8
0
  6
CONTINUOUS
 62
     7
 10
0.0220970869
 20
-7.0645170863
 30
0.0
 40
0.0312500000000043
 50
135.0
 51
225.0000000003
  0
ARC
  5
1DA
  8
0
  6
CONTINUOUS
 62
     7
 10
0.0220970869
 20
-6.7150104727
 30
0.0
 40
0.0312500000000043
 50
134.9999999997
 51
225.0
  0
ARC
  5
1DB
  8
0
  6
CONTINUOUS
 62
     7
 10
0.0220970869
 20
-6.2771155115
 30
0.0
 40
0.0312499999999805
 50
135.0
 51
225.0000000003
  0
ARC
  5
1DC
  8
0
  6
CONTINUOUS
 62
     7
 10
0.0220970869
 20
-5.9276088979
 30
0.0
 40
0.0312500000000052
 50
134.9999999998
 51
225.0
  0
ARC
  5
1DD
  8
0
  6
CONTINUOUS
 62
     7
 10
0.0220970869
 20
-5.4897139367
 30
0.0
 40
0.0312499999999799
 50
134.9999999999
 51
225.0000000002
  0
ARC
  5
1DE
  8
0
  6
CONTINUOUS
 62
     7
 10
0.0220970869
 20
-5.1402073231
 30
0.0
 40
0.0312499999999793
 50
134.9999999999
 51
225.0
  0
ARC
  5
1DF
  8
0
  6
CONTINUOUS
 62
     7
 10
0.0220970869
 20
-4.7023123619
 30
0.0
 40
0.0312500000000039
 50
134.9999999999
 51
225.0000000002
  0
ARC
  5
1E0
  8
0
  6
CONTINUOUS
 62
     7
 10
0.0220970869
 20
-4.3528057483
 30
0.0
 40
0.0312500000000038
 50
135.0
 51
225.0
  0
ARC
  5
1E1
  8
0
  6
CONTINUOUS
 62
     7
 10
0.0220970869
 20
-3.9149107871
 30
0.0
 40
0.0312499999999797
 50
134.9999999999
 51
225.0000000001
  0
ARC
  5
1E2
  8
0
  6
CONTINUOUS
 62
     7
 10
0.0220970869
 20
-3.5654041735
 30
0.0
 40
0.0312500000000046
 50
135.0
 51
225.0
  0
ARC
  5
1E3
  8
0
  6
CONTINUOUS
 62
     7
 10
0.0220970869
 20
-3.1275092123
 30
0.0
 40
0.0312500000000297
 50
134.9999999998
 51
225.0000000002
  0
ARC
  5
1E4
  8
0
  6
CONTINUOUS
 62
     7
 10
0.0220970869
 20
-2.7780025987
 30
0.0
 40
0.0312499999999552
 50
135.0000000001
 51
224.9999999999
  0
ARC
  5
1E5
  8
0
  6
CONTINUOUS
 62
     7
 10
0.0220970869
 20
-2.3401076375
 30
0.0
 40
0.0312500000000047
 50
134.9999999999
 51
225.0000000001
  0
ARC
  5
1E6
  8
0
  6
CONTINUOUS
 62
     7
 10
0.0220970869
 20
-1.9906010239
 30
0.0
 40
0.0312500000000042
 50
135.0
 51
225.0
  0
ARC
  5
1E7
  8
0
  6
CONTINUOUS
 62
     7
 10
0.0220970869
 20
-1.5527060627
 30
0.0
 40
0.0312500000000045
 50
134.9999999999
 51
225.0000000001
  0
ARC
  5
1E8
  8
0
  6
CONTINUOUS
 62
     7
 10
0.0220970869
 20
-1.2031994491
 30
0.0
 40
0.0312500000000292
 50
135.0
 51
225.0
  0
ARC
  5
1E9
  8
0
  6
CONTINUOUS
 62
     7
 10
0.0220970869
 20
-0.7653044879
 30
0.0
 40
0.0312500000000041
 50
135.0
 51
315.0
  0
ARC
  5
1EA
  8
0
  6
CONTINUOUS
 62
     7
 10
-1.2031994491
 20
-0.7653044879
 30
0.0
 40
0.0312499999999794
 50
224.9999999999
 51
45.0
  0
ARC
  5
1EB
  8
0
  6
CONTINUOUS
 62
     7
 10
-1.2031994491
 20
-1.2031994491
 30
0.0
 40
0.0312499999999797
 50
315.0
 51
45.0
  0
ARC
  5
1EC
  8
0
  6
CONTINUOUS
 62
     7
 10
-1.2031994491
 20
-1.5527060627
 30
0.0
 40
0.0312499999999788
 50
233.4278107012
 51
306.5721892988
  0
ARC
  5
1ED
  8
0
  6
CONTINUOUS
 62
     7
 10
-1.2031994491
 20
-1.9906010239
 30
0.0
 40
0.031250000000029
 50
315.0
 51
45.0
  0
ARC
  5
1EE
  8
0
  6
CONTINUOUS
 62
     7
 10
-1.2031994491
 20
-2.3401076375
 30
0.0
 40
0.0312499999999541
 50
233.4278107014
 51
306.5721892986
  0
ARC
  5
1EF
  8
0
  6
CONTINUOUS
 62
     7
 10
-1.2031994491
 20
-2.7780025987
 30
0.0
 40
0.031250000000004
 50
314.9999999999
 51
45.0000000001
  0
ARC
  5
1F0
  8
0
  6
CONTINUOUS
 62
     7
 10
-1.2031994491
 20
-3.1275092123
 30
0.0
 40
0.0312499999999786
 50
233.4278107013
 51
306.5721892987
  0
ARC
  5
1F1
  8
0
  6
CONTINUOUS
 62
     7
 10
-1.2031994491
 20
-3.5654041735
 30
0.0
 40
0.0312499999999792
 50
315.0000000001
 51
45.0000000001
  0
ARC
  5
1F2
  8
0
  6
CONTINUOUS
 62
     7
 10
-1.2031994491
 20
-3.9149107871
 30
0.0
 40
0.0312500000000048
 50
233.4278107012
 51
306.5721892988
  0
ARC
  5
1F3
  8
0
  6
CONTINUOUS
 62
     7
 10
-1.2031994491
 20
-4.3528057483
 30
0.0
 40
0.0312500000000276
 50
315.0000000001
 51
45.0000000002
  0
ARC
  5
1F4
  8
0
  6
CONTINUOUS
 62
     7
 10
-1.2031994491
 20
-4.7023123619
 30
0.0
 40
0.0312499999999795
 50
233.4278107014
 51
306.5721892986
  0
ARC
  5
1F5
  8
0
  6
CONTINUOUS
 62
     7
 10
-1.2031994491
 20
-5.1402073231
 30
0.0
 40
0.0312499999999809
 50
314.9999999998
 51
45.0000000003
  0
ARC
  5
1F6
  8
0
  6
CONTINUOUS
 62
     7
 10
-1.2031994491
 20
-5.4897139367
 30
0.0
 40
0.0312500000000062
 50
233.4278107012
 51
306.5721892988
  0
ARC
  5
1F7
  8
0
  6
CONTINUOUS
 62
     7
 10
-1.2031994491
 20
-5.9276088979
 30
0.0
 40
0.0312500000000057
 50
314.9999999999
 51
45.0000000001
  0
ARC
  5
1F8
  8
0
  6
CONTINUOUS
 62
     7
 10
-1.2031994491
 20
-6.2771155115
 30
0.0
 40
0.031250000000003
 50
233.4278107013
 51
306.5721892988
  0
ARC
  5
1F9
  8
0
  6
CONTINUOUS
 62
     7
 10
-1.2031994491
 20
-6.7150104727
 30
0.0
 40
0.0312499999999803
 50
315.0
 51
45.0
  0
ARC
  5
1FA
  8
0
  6
CONTINUOUS
 62
     7
 10
-1.2031994491
 20
-7.0645170863
 30
0.0
 40
0.0312500000000024
 50
233.4278107013
 51
306.5721892987
  0
ARC
  5
1FB
  8
0
  6
CONTINUOUS
 62
     7
 10
-1.2031994491
 20
-7.5024120475
 30
0.0
 40
0.0312500000000048
 50
315.0
 51
45.0
  0
ARC
  5
1FC
  8
0
  6
CONTINUOUS
 62
     7
 10
0.0220970869
 20
-7.5024120475
 30
0.0
 40
0.0312499999999806
 50
134.9999999999
 51
225.0000000001
  0
ARC
  5
1FD
  8
0
  6
CONTINUOUS
 62
     7
 10
0.0220970869
 20
-1.5527060627
 30
0.0
 40
0.0312500000000043
 50
233.4278107013
 51
306.5721892987
  0
ARC
  5
1FE
  8
0
  6
CONTINUOUS
 62
     7
 10
0.0220970869
 20
-1.2031994491
 30
0.0
 40
0.0312500000000287
 50
53.427810701
 51
126.572189299
  0
ARC
  5
1FF
  8
0
  6
CONTINUOUS
 62
     7
 10
-1.2031994491
 20
-1.2031994491
 30
0.0
 40
0.0312499999999778
 50
53.4278107011
 51
126.5721892989
  0
ARC
  5
200
  8
0
  6
CONTINUOUS
 62
     7
 10
-1.2031994491
 20
-1.5527060627
 30
0.0
 40
0.0312499999999792
 50
315.0000000001
 51
44.9999999999
  0
ARC
  5
201
  8
0
  6
CONTINUOUS
 62
     7
 10
0.0220970869
 20
-7.0645170863
 30
0.0
 40
0.0312500000000024
 50
233.4278107013
 51
306.5721892987
  0
ARC
  5
202
  8
0
  6
CONTINUOUS
 62
     7
 10
0.0220970869
 20
-6.7150104727
 30
0.0
 40
0.0312500000000022
 50
53.4278107011
 51
126.5721892989
  0
ARC
  5
203
  8
0
  6
CONTINUOUS
 62
     7
 10
0.0220970869
 20
-6.2771155115
 30
0.0
 40
0.0312499999999772
 50
233.4278107014
 51
306.5721892986
  0
ARC
  5
204
  8
0
  6
CONTINUOUS
 62
     7
 10
0.0220970869
 20
-5.9276088979
 30
0.0
 40
0.031250000000004
 50
53.4278107011
 51
126.5721892989
  0
ARC
  5
205
  8
0
  6
CONTINUOUS
 62
     7
 10
0.0220970869
 20
-5.4897139367
 30
0.0
 40
0.0312499999999818
 50
233.4278107014
 51
306.5721892986
  0
ARC
  5
206
  8
0
  6
CONTINUOUS
 62
     7
 10
0.0220970869
 20
-5.1402073231
 30
0.0
 40
0.0312499999999818
 50
53.4278107012
 51
126.5721892988
  0
ARC
  5
207
  8
0
  6
CONTINUOUS
 62
     7
 10
0.0220970869
 20
-4.7023123619
 30
0.0
 40
0.031250000000002
 50
233.4278107014
 51
306.5721892986
  0
ARC
  5
208
  8
0
  6
CONTINUOUS
 62
     7
 10
0.0220970869
 20
-4.3528057483
 30
0.0
 40
0.0312500000000061
 50
53.4278107011
 51
126.5721892989
  0
ARC
  5
209
  8
0
  6
CONTINUOUS
 62
     7
 10
0.0220970869
 20
-3.9149107871
 30
0.0
 40
0.0312499999999791
 50
233.4278107014
 51
306.5721892986
  0
ARC
  5
20A
  8
0
  6
CONTINUOUS
 62
     7
 10
0.0220970869
 20
-3.5654041735
 30
0.0
 40
0.0312500000000042
 50
53.4278107011
 51
126.5721892989
  0
ARC
  5
20B
  8
0
  6
CONTINUOUS
 62
     7
 10
0.0220970869
 20
-3.1275092123
 30
0.0
 40
0.0312500000000283
 50
233.4278107013
 51
306.5721892987
  0
ARC
  5
20C
  8
0
  6
CONTINUOUS
 62
     7
 10
0.0220970869
 20
-2.7780025987
 30
0.0
 40
0.0312499999999552
 50
53.427810701
 51
126.572189299
  0
ARC
  5
20D
  8
0
  6
CONTINUOUS
 62
     7
 10
0.0220970869
 20
-2.3401076375
 30
0.0
 40
0.0312500000000035
 50
233.4278107013
 51
306.5721892987
  0
ARC
  5
20E
  8
0
  6
CONTINUOUS
 62
     7
 10
0.0220970869
 20
-1.9906010239
 30
0.0
 40
0.0312500000000032
 50
53.4278107011
 51
126.5721892989
  0
ARC
  5
20F
  8
0
  6
CONTINUOUS
 62
     7
 10
-1.2031994491
 20
-1.9906010239
 30
0.0
 40
0.0312500000000298
 50
53.427810701
 51
126.572189299
  0
ARC
  5
210
  8
0
  6
CONTINUOUS
 62
     7
 10
-1.2031994491
 20
-2.3401076375
 30
0.0
 40
0.0312499999999546
 50
315.0
 51
45.0
  0
ARC
  5
211
  8
0
  6
CONTINUOUS
 62
     7
 10
-1.2031994491
 20
-2.7780025987
 30
0.0
 40
0.0312500000000031
 50
53.4278107011
 51
126.5721892989
  0
ARC
  5
212
  8
0
  6
CONTINUOUS
 62
     7
 10
-1.2031994491
 20
-3.1275092123
 30
0.0
 40
0.0312499999999795
 50
314.9999999999
 51
45.0000000001
  0
ARC
  5
213
  8
0
  6
CONTINUOUS
 62
     7
 10
-1.2031994491
 20
-3.5654041735
 30
0.0
 40
0.0312499999999803
 50
53.4278107012
 51
126.5721892988
  0
ARC
  5
214
  8
0
  6
CONTINUOUS
 62
     7
 10
-1.2031994491
 20
-3.9149107871
 30
0.0
 40
0.0312500000000045
 50
314.9999999999
 51
45.0
  0
ARC
  5
215
  8
0
  6
CONTINUOUS
 62
     7
 10
-1.2031994491
 20
-4.3528057483
 30
0.0
 40
0.031250000000032
 50
53.4278107011
 51
126.5721892989
  0
ARC
  5
216
  8
0
  6
CONTINUOUS
 62
     7
 10
-1.2031994491
 20
-4.7023123619
 30
0.0
 40
0.0312499999999797
 50
314.9999999997
 51
45.0
  0
ARC
  5
217
  8
0
  6
CONTINUOUS
 62
     7
 10
-1.2031994491
 20
-5.1402073231
 30
0.0
 40
0.0312499999999833
 50
53.4278107012
 51
126.5721892988
  0
ARC
  5
218
  8
0
  6
CONTINUOUS
 62
     7
 10
-1.2031994491
 20
-5.4897139367
 30
0.0
 40
0.0312500000000035
 50
314.9999999999
 51
45.0
  0
ARC
  5
219
  8
0
  6
CONTINUOUS
 62
     7
 10
-1.2031994491
 20
-5.9276088979
 30
0.0
 40
0.0312500000000056
 50
53.4278107011
 51
126.5721892989
  0
ARC
  5
21A
  8
0
  6
CONTINUOUS
 62
     7
 10
-1.2031994491
 20
-6.2771155115
 30
0.0
 40
0.0312500000000053
 50
315.0
 51
45.0
  0
ARC
  5
21B
  8
0
  6
CONTINUOUS
 62
     7
 10
-1.2031994491
 20
-6.7150104727
 30
0.0
 40
0.0312499999999774
 50
53.4278107012
 51
126.5721892988
  0
ARC
  5
21C
  8
0
  6
CONTINUOUS
 62
     7
 10
-1.2031994491
 20
-7.0645170863
 30
0.0
 40
0.0312500000000037
 50
315.0
 51
45.0
  0
ARC
  5
21D
  8
0
  6
CONTINUOUS
 62
     7
 10
-1.2031994491
 20
-7.5024120475
 30
0.0
 40
0.0312500000000023
 50
53.4278107012
 51
126.5721892988
  0
ARC
  5
21E
  8
0
  6
CONTINUOUS
 62
     7
 10
0.0220970869
 20
-7.5024120475
 30
0.0
 40
0.0312499999999799
 50
53.4278107011
 51
126.5721892989
  0
ENDSEC
  0
EOF
