  0
SECTION
  2
HEADER
  9
$ACADVER
  1
AC1015
  9
$ACADMAINTVER
 70
     6
  9
$DWGCODEPAGE
  3
ANSI_1252
  9
$INSBASE
 10
0.0
 20
0.0
 30
0.0
  9
$EXTMIN
 10
-152.4
 20
-88.9
 30
0.0
  9
$EXTMAX
 10
152.4
 20
88.9
 30
0.0
  9
$LIMMIN
 10
0.0
 20
0.0
  9
$LIMMAX
 10
420.0
 20
297.0
  9
$ORTHOMODE
 70
     0
  9
$REGENMODE
 70
     1
  9
$FILLMODE
 70
     1
  9
$QTEXTMODE
 70
     0
  9
$MIRRTEXT
 70
     1
  9
$LTSCALE
 40
1.0
  9
$ATTMODE
 70
     1
  9
$TEXTSIZE
 40
3.175
  9
$TRACEWID
 40
1.0
  9
$TEXTSTYLE
  7
Standard
  9
$CLAYER
  8
0
  9
$CELTYPE
  6
ByLayer
  9
$CECOLOR
 62
   256
  9
$CELTSCALE
 40
1.0
  9
$DISPSILH
 70
     0
  9
$DIMSCALE
 40
1.0
  9
$DIMASZ
 40
3.302
  9
$DIMEXO
 40
1.27
  9
$DIMDLI
 40
3.75
  9
$DIMRND
 40
0.0
  9
$DIMDLE
 40
0.0
  9
$DIMEXE
 40
3.175
  9
$DIMTP
 40
0.0
  9
$DIMTM
 40
0.0
  9
$DIMTXT
 40
3.175
  9
$DIMCEN
 40
2.5
  9
$DIMTSZ
 40
0.0
  9
$DIMTOL
 70
     0
  9
$DIMLIM
 70
     0
  9
$DIMTIH
 70
     1
  9
$DIMTOH
 70
     1
  9
$DIMSE1
 70
     0
  9
$DIMSE2
 70
     0
  9
$DIMTAD
 70
     0
  9
$DIMZIN
 70
     1
  9
$DIMBLK
  1

  9
$DIMASO
 70
     1
  9
$DIMSHO
 70
     1
  9
$DIMPOST
  1

  9
$DIMAPOST
  1

  9
$DIMALT
 70
     0
  9
$DIMALTD
 70
     3
  9
$DIMALTF
 40
0.0393700787
  9
$DIMLFAC
 40
1.0
  9
$DIMTOFL
 70
     1
  9
$DIMTVP
 40
0.0
  9
$DIMTIX
 70
     0
  9
$DIMSOXD
 70
     0
  9
$DIMSAH
 70
     0
  9
$DIMBLK1
  1

  9
$DIMBLK2
  1

  9
$DIMSTYLE
  2
ISO-25
  9
$DIMCLRD
 70
     0
  9
$DIMCLRE
 70
     0
  9
$DIMCLRT
 70
     0
  9
$DIMTFAC
 40
1.0
  9
$DIMGAP
 40
1.524
  9
$DIMJUST
 70
     0
  9
$DIMSD1
 70
     0
  9
$DIMSD2
 70
     0
  9
$DIMTOLJ
 70
     0
  9
$DIMTZIN
 70
     1
  9
$DIMALTZ
 70
     0
  9
$DIMALTTZ
 70
     0
  9
$DIMUPT
 70
     0
  9
$DIMDEC
 70
     3
  9
$DIMTDEC
 70
     3
  9
$DIMALTU
 70
     2
  9
$DIMALTTD
 70
     3
  9
$DIMTXSTY
  7
Standard
  9
$DIMAUNIT
 70
     0
  9
$DIMADEC
 70
     0
  9
$DIMALTRND
 40
0.0
  9
$DIMAZIN
 70
     0
  9
$DIMDSEP
 70
    44
  9
$DIMATFIT
 70
     3
  9
$DIMFRAC
 70
     0
  9
$DIMLDRBLK
  1

  9
$DIMLUNIT
 70
     2
  9
$DIMLWD
 70
    -2
  9
$DIMLWE
 70
    -2
  9
$DIMTMOVE
 70
     0
  9
$LUNITS
 70
     2
  9
$LUPREC
 70
     3
  9
$SKETCHINC
 40
1.0
  9
$FILLETRAD
 40
10.0
  9
$AUNITS
 70
     0
  9
$AUPREC
 70
     0
  9
$MENU
  1
.
  9
$ELEVATION
 40
0.0
  9
$PELEVATION
 40
0.0
  9
$THICKNESS
 40
0.0
  9
$LIMCHECK
 70
     0
  9
$CHAMFERA
 40
0.0
  9
$CHAMFERB
 40
0.0
  9
$CHAMFERC
 40
0.0
  9
$CHAMFERD
 40
0.0
  9
$SKPOLY
 70
     0
  9
$TDCREATE
 40
2458568.805944051
  9
$TDUCREATE
 40
2458568.972610718
  9
$TDUPDATE
 40
2458568.805969305
  9
$TDUUPDATE
 40
2458568.972635972
  9
$TDINDWG
 40
0.0000000116
  9
$TDUSRTIMER
 40
0.0000000116
  9
$USRTIMER
 70
     1
  9
$ANGBASE
 50
0.0
  9
$ANGDIR
 70
     0
  9
$PDMODE
 70
     0
  9
$PDSIZE
 40
-1.0
  9
$PLINEWID
 40
0.0
  9
$SPLFRAME
 70
     0
  9
$SPLINETYPE
 70
     6
  9
$SPLINESEGS
 70
     8
  9
$HANDSEED
  5
112
  9
$SURFTAB1
 70
     6
  9
$SURFTAB2
 70
     6
  9
$SURFTYPE
 70
     6
  9
$SURFU
 70
     6
  9
$SURFV
 70
     6
  9
$UCSBASE
  2

  9
$UCSNAME
  2

  9
$UCSORG
 10
0.0
 20
0.0
 30
0.0
  9
$UCSXDIR
 10
1.0
 20
0.0
 30
0.0
  9
$UCSYDIR
 10
0.0
 20
1.0
 30
0.0
  9
$UCSORTHOREF
  2

  9
$UCSORTHOVIEW
 70
     0
  9
$UCSORGTOP
 10
0.0
 20
0.0
 30
0.0
  9
$UCSORGBOTTOM
 10
0.0
 20
0.0
 30
0.0
  9
$UCSORGLEFT
 10
0.0
 20
0.0
 30
0.0
  9
$UCSORGRIGHT
 10
0.0
 20
0.0
 30
0.0
  9
$UCSORGFRONT
 10
0.0
 20
0.0
 30
0.0
  9
$UCSORGBACK
 10
0.0
 20
0.0
 30
0.0
  9
$PUCSBASE
  2

  9
$PUCSNAME
  2

  9
$PUCSORG
 10
0.0
 20
0.0
 30
0.0
  9
$PUCSXDIR
 10
1.0
 20
0.0
 30
0.0
  9
$PUCSYDIR
 10
0.0
 20
1.0
 30
0.0
  9
$PUCSORTHOREF
  2

  9
$PUCSORTHOVIEW
 70
     0
  9
$PUCSORGTOP
 10
0.0
 20
0.0
 30
0.0
  9
$PUCSORGBOTTOM
 10
0.0
 20
0.0
 30
0.0
  9
$PUCSORGLEFT
 10
0.0
 20
0.0
 30
0.0
  9
$PUCSORGRIGHT
 10
0.0
 20
0.0
 30
0.0
  9
$PUCSORGFRONT
 10
0.0
 20
0.0
 30
0.0
  9
$PUCSORGBACK
 10
0.0
 20
0.0
 30
0.0
  9
$USERI1
 70
     0
  9
$USERI2
 70
     0
  9
$USERI3
 70
     0
  9
$USERI4
 70
     0
  9
$USERI5
 70
     0
  9
$USERR1
 40
0.0
  9
$USERR2
 40
0.0
  9
$USERR3
 40
0.0
  9
$USERR4
 40
0.0
  9
$USERR5
 40
0.0
  9
$WORLDVIEW
 70
     1
  9
$SHADEDGE
 70
     3
  9
$SHADEDIF
 70
    70
  9
$TILEMODE
 70
     1
  9
$MAXACTVP
 70
    64
  9
$PINSBASE
 10
0.0
 20
0.0
 30
0.0
  9
$PLIMCHECK
 70
     0
  9
$PEXTMIN
 10
1.0000000000E+20
 20
1.0000000000E+20
 30
1.0000000000E+20
  9
$PEXTMAX
 10
-1.0000000000E+20
 20
-1.0000000000E+20
 30
-1.0000000000E+20
  9
$PLIMMIN
 10
0.0
 20
0.0
  9
$PLIMMAX
 10
420.0
 20
297.0
  9
$UNITMODE
 70
     0
  9
$VISRETAIN
 70
     1
  9
$PLINEGEN
 70
     0
  9
$PSLTSCALE
 70
     1
  9
$TREEDEPTH
 70
  3020
  9
$CMLSTYLE
  2
Standard
  9
$CMLJUST
 70
     0
  9
$CMLSCALE
 40
20.0
  9
$PROXYGRAPHICS
 70
     1
  9
$MEASUREMENT
 70
     1
  9
$CELWEIGHT
370
    -1
  9
$ENDCAPS
280
     0
  9
$JOINSTYLE
280
     0
  9
$LWDISPLAY
290
     1
  9
$INSUNITS
 70
     4
  9
$HYPERLINKBASE
  1

  9
$STYLESHEET
  1

  9
$XEDIT
290
     1
  9
$CEPSNTYPE
380
     0
  9
$PSTYLEMODE
290
     1
  9
$FINGERPRINTGUID
  2
{BEBBA587-E104-4D79-BE4E-699B572973C1}
  9
$VERSIONGUID
  2
{FAEB1C32-E019-11D5-929B-00C0DF256EC4}
  9
$EXTNAMES
290
     1
  9
$PSVPSCALE
 40
0.0
  9
$OLESTARTUP
290
     0
  0
ENDSEC
  0
SECTION
  2
CLASSES
  0
CLASS
  1
ACDBDICTIONARYWDFLT
  2
AcDbDictionaryWithDefault
  3
ObjectDBX Classes
 90
        0
280
     0
281
     0
  0
CLASS
  1
VISUALSTYLE
  2
AcDbVisualStyle
  3
ObjectDBX Classes
 90
     4095
280
     0
281
     0
  0
CLASS
  1
MATERIAL
  2
AcDbMaterial
  3
ObjectDBX Classes
 90
     1153
280
     0
281
     0
  0
CLASS
  1
SCALE
  2
AcDbScale
  3
ObjectDBX Classes
 90
     1153
280
     0
281
     0
  0
CLASS
  1
TABLESTYLE
  2
AcDbTableStyle
  3
ObjectDBX Classes
 90
     4095
280
     0
281
     0
  0
CLASS
  1
MLEADERSTYLE
  2
AcDbMLeaderStyle
  3
ACDB_MLEADERSTYLE_CLASS
 90
     4095
280
     0
281
     0
  0
CLASS
  1
SUN
  2
AcDbSun
  3
SCENEOE
 90
     1153
280
     0
281
     0
  0
CLASS
  1
ACDBPLACEHOLDER
  2
AcDbPlaceHolder
  3
ObjectDBX Classes
 90
        0
280
     0
281
     0
  0
CLASS
  1
LAYOUT
  2
AcDbLayout
  3
ObjectDBX Classes
 90
        0
280
     0
281
     0
  0
ENDSEC
  0
SECTION
  2
TABLES
  0
TABLE
  2
VPORT
  5
8
330
0
100
AcDbSymbolTable
 70
     1
  0
VPORT
  5
29
330
8
100
AcDbSymbolTableRecord
100
AcDbViewportTableRecord
  2
*Active
 70
     0
 10
0.0
 20
0.0
 11
1.0
 21
1.0
 12
0.0
 22
0.0
 13
0.0
 23
0.0
 14
10.0
 24
10.0
 15
10.0
 25
10.0
 16
0.0
 26
0.0
 36
1.0
 17
0.0
 27
0.0
 37
0.0
 40
181.356
 41
1.7142857143
 42
50.0
 43
0.0
 44
0.0
 50
0.0
 51
0.0
 71
     0
 72
   100
 73
     1
 74
     3
 75
     0
 76
     0
 77
     0
 78
     0
281
     0
 65
     1
110
0.0
120
0.0
130
0.0
111
1.0
121
0.0
131
0.0
112
0.0
122
1.0
132
0.0
 79
     0
146
0.0
  0
ENDTAB
  0
TABLE
  2
LTYPE
  5
5
330
0
100
AcDbSymbolTable
 70
     6
  0
LTYPE
  5
14
330
5
100
AcDbSymbolTableRecord
100
AcDbLinetypeTableRecord
  2
ByBlock
 70
     0
  3

 72
    65
 73
     0
 40
0.0
  0
LTYPE
  5
15
330
5
100
AcDbSymbolTableRecord
100
AcDbLinetypeTableRecord
  2
ByLayer
 70
     0
  3

 72
    65
 73
     0
 40
0.0
  0
LTYPE
  5
16
330
5
100
AcDbSymbolTableRecord
100
AcDbLinetypeTableRecord
  2
Continuous
 70
     0
  3
Solid line
 72
    65
 73
     0
 40
0.0
  0
LTYPE
  5
6E
330
5
100
AcDbSymbolTableRecord
100
AcDbLinetypeTableRecord
  2
HIDDEN
 70
     0
  3
Hidden __ __ __ __ __ __ __ __ __ __ __ __ __ __
 72
    65
 73
     2
 40
1.905
 49
1.27
 74
     0
 49
-0.635
 74
     0
  0
LTYPE
  5
6F
330
5
100
AcDbSymbolTableRecord
100
AcDbLinetypeTableRecord
  2
PHANTOM
 70
     0
  3
Phantom ______  __  __  ______  __  __  ______
 72
    65
 73
     6
 40
12.7
 49
6.35
 74
     0
 49
-1.27
 74
     0
 49
1.27
 74
     0
 49
-1.27
 74
     0
 49
1.27
 74
     0
 49
-1.27
 74
     0
  0
LTYPE
  5
70
330
5
100
AcDbSymbolTableRecord
100
AcDbLinetypeTableRecord
  2
CENTER
 70
     0
  3
Center ____ _ ____ _ ____ _ ____ _ ____ _ ____
 72
    65
 73
     4
 40
10.16
 49
6.35
 74
     0
 49
-1.27
 74
     0
 49
1.27
 74
     0
 49
-1.27
 74
     0
  0
LTYPE
  5
71
330
5
100
AcDbSymbolTableRecord
100
AcDbLinetypeTableRecord
  2
CENTERX2
 70
     0
  3
Center (2x) ________  __  ________  __  _____
 72
    65
 73
     4
 40
20.32
 49
12.7
 74
     0
 49
-2.54
 74
     0
 49
2.54
 74
     0
 49
-2.54
 74
     0
  0
LTYPE
  5
72
330
5
100
AcDbSymbolTableRecord
100
AcDbLinetypeTableRecord
  2
DOT2
 70
     0
  3
Dot (.5x) ........................................
 72
    65
 73
     2
 40
0.635
 49
0.0
 74
     0
 49
-0.635
 74
     0
  0
ENDTAB
  0
TABLE
  2
LAYER
  5
2
330
0
100
AcDbSymbolTable
 70
     1
  0
LAYER
  5
10
330
2
100
AcDbSymbolTableRecord
100
AcDbLayerTableRecord
  2
0
 70
     0
 62
     7
  6
Continuous
370
    -3
390
F
  0
ENDTAB
  0
TABLE
  2
STYLE
  5
3
330
0
100
AcDbSymbolTable
 70
     1
  0
STYLE
  5
11
330
3
100
AcDbSymbolTableRecord
100
AcDbTextStyleTableRecord
  2
Standard
 70
     0
 40
0.0
 41
1.0
 50
0.0
 71
     0
 42
3.175
  3
txt
  4

  0
ENDTAB
  0
TABLE
  2
VIEW
  5
6
330
0
100
AcDbSymbolTable
 70
     0
  0
ENDTAB
  0
TABLE
  2
UCS
  5
7
330
0
100
AcDbSymbolTable
 70
     0
  0
ENDTAB
  0
TABLE
  2
APPID
  5
9
330
0
100
AcDbSymbolTable
 70
     1
  0
APPID
  5
12
330
9
100
AcDbSymbolTableRecord
100
AcDbRegAppTableRecord
  2
ACAD
 70
     0
  0
ENDTAB
  0
TABLE
  2
DIMSTYLE
  5
A
330
0
100
AcDbSymbolTable
 70
     1
100
AcDbDimStyleTable
  0
DIMSTYLE
105
27
330
A
100
AcDbSymbolTableRecord
100
AcDbDimStyleTableRecord
  2
ISO-25
 70
     0
 41
2.5
 42
0.625
 43
3.75
 44
1.25
 73
     0
 74
     0
 77
     1
 78
     8
140
2.5
141
2.5
143
0.0393700787
147
0.625
171
     3
172
     1
178
     0
271
     2
272
     2
274
     3
278
    44
283
     0
284
     8
340
11
  0
ENDTAB
  0
TABLE
  2
BLOCK_RECORD
  5
1
330
0
100
AcDbSymbolTable
 70
     1
  0
BLOCK_RECORD
  5
1F
330
1
100
AcDbSymbolTableRecord
100
AcDbBlockTableRecord
  2
*Model_Space
340
22
  0
BLOCK_RECORD
  5
1B
330
1
100
AcDbSymbolTableRecord
100
AcDbBlockTableRecord
  2
*Paper_Space
340
1E
  0
BLOCK_RECORD
  5
23
330
1
100
AcDbSymbolTableRecord
100
AcDbBlockTableRecord
  2
*Paper_Space0
340
26
  0
ENDTAB
  0
ENDSEC
  0
SECTION
  2
BLOCKS
  0
BLOCK
  5
20
330
1F
100
AcDbEntity
  8
0
100
AcDbBlockBegin
  2
*Model_Space
 70
     0
 10
0.0
 20
0.0
 30
0.0
  3
*Model_Space
  1

  0
ENDBLK
  5
21
330
1F
100
AcDbEntity
  8
0
100
AcDbBlockEnd
  0
BLOCK
  5
1C
330
1B
100
AcDbEntity
 67
     1
  8
0
100
AcDbBlockBegin
  2
*Paper_Space
 70
     0
 10
0.0
 20
0.0
 30
0.0
  3
*Paper_Space
  1

  0
ENDBLK
  5
1D
330
1B
100
AcDbEntity
 67
     1
  8
0
100
AcDbBlockEnd
  0
BLOCK
  5
24
330
23
100
AcDbEntity
  8
0
100
AcDbBlockBegin
  2
*Paper_Space0
 70
     0
 10
0.0
 20
0.0
 30
0.0
  3
*Paper_Space0
  1

  0
ENDBLK
  5
25
330
23
100
AcDbEntity
  8
0
100
AcDbBlockEnd
  0
ENDSEC
  0
SECTION
  2
ENTITIES
  0
LINE
  5
73
330
1F
100
AcDbEntity
  8
0
  6
Continuous
 62
     7
370
    25
100
AcDbLine
 10
145.0660985343
 20
1.9361171625
 30
0.0
 11
139.7
 21
1.9361171625
 31
0.0
  0
LINE
  5
74
330
1F
100
AcDbEntity
  8
0
  6
Continuous
 62
     7
370
    25
100
AcDbLine
 10
139.7
 20
1.9361171625
 30
0.0
 11
139.7
 21
2.9502737714
 31
0.0
  0
LINE
  5
75
330
1F
100
AcDbEntity
  8
0
  6
Continuous
 62
     7
370
    25
100
AcDbLine
 10
139.7
 20
2.9502737714
 30
0.0
 11
146.8912923177
 21
2.9502737714
 31
0.0
  0
LINE
  5
76
330
1F
100
AcDbEntity
  8
0
  6
Continuous
 62
     7
370
    25
100
AcDbLine
 10
146.8912923177
 20
2.9502737714
 30
0.0
 11
146.8912923177
 21
1.8784946279
 31
0.0
  0
LINE
  5
77
330
1F
100
AcDbEntity
  8
0
  6
Continuous
 62
     7
370
    25
100
AcDbLine
 10
146.8912923177
 20
1.8784946279
 30
0.0
 11
141.5251937834
 21
-1.567332941
 31
0.0
  0
LINE
  5
78
330
1F
100
AcDbEntity
  8
0
  6
Continuous
 62
     7
370
    25
100
AcDbLine
 10
141.5251937834
 20
-1.567332941
 30
0.0
 11
146.8912923177
 21
-1.567332941
 31
0.0
  0
LINE
  5
79
330
1F
100
AcDbEntity
  8
0
  6
Continuous
 62
     7
370
    25
100
AcDbLine
 10
146.8912923177
 20
-1.567332941
 30
0.0
 11
146.8912923177
 21
-2.5814895499
 31
0.0
  0
LINE
  5
7A
330
1F
100
AcDbEntity
  8
0
  6
Continuous
 62
     7
370
    25
100
AcDbLine
 10
146.8912923177
 20
-2.5814895499
 30
0.0
 11
139.7
 21
-2.5814895499
 31
0.0
  0
LINE
  5
7B
330
1F
100
AcDbEntity
  8
0
  6
Continuous
 62
     7
370
    25
100
AcDbLine
 10
139.7
 20
-2.5814895499
 30
0.0
 11
139.7
 21
-1.5097104064
 31
0.0
  0
LINE
  5
7C
330
1F
100
AcDbEntity
  8
0
  6
Continuous
 62
     7
370
    25
100
AcDbLine
 10
139.7
 20
-1.5097104064
 30
0.0
 11
145.0660985343
 21
1.9361171625
 31
0.0
  0
LINE
  5
7D
330
1F
100
AcDbEntity
  8
0
  6
Continuous
 62
     7
370
    25
100
AcDbLine
 10
142.9268619374
 20
11.8932911408
 30
0.0
 11
139.7
 21
11.8932911408
 31
0.0
  0
LINE
  5
7E
330
1F
100
AcDbEntity
  8
0
  6
Continuous
 62
     7
370
    25
100
AcDbLine
 10
139.7
 20
11.8932911408
 30
0.0
 11
139.7
 21
12.9074477497
 31
0.0
  0
LINE
  5
7F
330
1F
100
AcDbEntity
  8
0
  6
Continuous
 62
     7
370
    25
100
AcDbLine
 10
139.7
 20
12.9074477497
 30
0.0
 11
146.8912923177
 21
12.9074477497
 31
0.0
  0
LINE
  5
80
330
1F
100
AcDbEntity
  8
0
  6
Continuous
 62
     7
370
    25
100
AcDbLine
 10
146.8912923177
 20
12.9074477497
 30
0.0
 11
146.8912923177
 21
9.7871875013
 31
0.0
  0
SPLINE
  5
81
330
1F
100
AcDbEntity
  8
0
  6
Continuous
 62
     7
370
    25
100
AcDbSpline
210
0.0
220
0.0
230
1.0
 70
     8
 71
     3
 72
    27
 73
    23
 74
     0
 42
0.000000001
 43
0.00000001
 40
0.0
 40
0.0
 40
0.0
 40
0.0
 40
0.0621061165292722
 40
0.1201991193133529
 40
0.1743664957113207
 40
0.2250163311637262
 40
0.2723261893682162
 40
0.3163514369568908
 40
0.356828429334618
 40
0.393933310271704
 40
0.4295405551075591
 40
0.4646304759106828
 40
0.4999800050926319
 40
0.5354226207535301
 40
0.5715899210807148
 40
0.608131082842467
 40
0.6458808167766377
 40
0.6847317079287523
 40
0.7626039808122826
 40
0.8405143247750536
 40
0.9190816363226285
 40
1.0
 40
1.0
 40
1.0
 40
1.0
 10
146.8912923177083
 20
9.787187501304109
 30
0.0
 10
146.8907193575428
 20
9.713714576666732
 30
0.0
 10
146.8896104602048
 20
9.57151633069161
 30
0.0
 10
146.8816865453688
 20
9.365305218102696
 30
0.0
 10
146.8648521824827
 20
9.173282604581313
 30
0.0
 10
146.846050258781
 20
8.994238280107519
 30
0.0
 10
146.8182888479263
 20
8.828478621346564
 30
0.0
 10
146.7857197155658
 20
8.675924614442557
 30
0.0
 10
146.7472267554816
 20
8.53716139462987
 30
0.0
 10
146.7017265902947
 20
8.411132939562854
 30
0.0
 10
146.6502664598355
 20
8.29419699894329
 30
0.0
 10
146.586739284183
 20
8.185835298311957
 30
0.0
 10
146.5172418884098
 20
8.081403531540765
 30
0.0
 10
146.4349322228227
 20
7.985032920365277
 30
0.0
 10
146.3464270463462
 20
7.892505039880831
 30
0.0
 10
146.2473510557368
 20
7.806981756928154
 30
0.0
 10
146.1391034487349
 20
7.728045685861063
 30
0.0
 10
145.9843482521054
 20
7.630645622883327
 30
0.0
 10
145.7771925722179
 20
7.528158567356558
 30
0.0
 10
145.5134526721377
 20
7.440686113798993
 30
0.0
 10
145.2369896293261
 20
7.384760592389976
 30
0.0
 10
145.0481206305535
 20
7.378739403453159
 30
0.0
 10
144.9522940285185
 20
7.375684428418742
 30
0.0
  0
SPLINE
  5
82
330
1F
100
AcDbEntity
  8
0
  6
Continuous
 62
     7
370
    25
100
AcDbSpline
210
0.0
220
0.0
230
1.0
 70
     8
 71
     3
 72
    23
 73
    19
 74
     0
 42
0.000000001
 43
0.00000001
 40
0.0
 40
0.0
 40
0.0
 40
0.0
 40
0.0614177481322562
 40
0.1213042644096562
 40
0.1792376967343409
 40
0.235956069997104
 40
0.2922390962013105
 40
0.3482231672652618
 40
0.4044755521318202
 40
0.4620607339620543
 40
0.5207138638482095
 40
0.5803927339450851
 40
0.6422449964543139
 40
0.7063601780770823
 40
0.7742965329506014
 40
0.8452599260881206
 40
0.9206206845448841
 40
0.9999999999999999
 40
0.9999999999999999
 40
0.9999999999999999
 40
0.9999999999999999
 10
144.9522940285185
 20
7.375684428418742
 30
0.0
 10
144.89077856946
 20
7.377091649767238
 30
0.0
 10
144.7692813192702
 20
7.379871008433616
 30
0.0
 10
144.5906476480588
 20
7.401160869064014
 30
0.0
 10
144.4199710929294
 20
7.439683965604971
 30
0.0
 10
144.2557534613344
 20
7.489079580095855
 30
0.0
 10
144.1003339943036
 20
7.556697048485164
 30
0.0
 10
143.9504915454675
 20
7.63499363978635
 30
0.0
 10
143.8105162781266
 20
7.732126935340295
 30
0.0
 10
143.6757476310649
 20
7.840588470215131
 30
0.0
 10
143.5522009494407
 20
7.966682450624412
 30
0.0
 10
143.4382156852081
 20
8.107045246183212
 30
0.0
 10
143.3397354086734
 20
8.265209510817309
 30
0.0
 10
143.2512332398545
 20
8.438264749403722
 30
0.0
 10
143.1737877536228
 20
8.62652497686252
 30
0.0
 10
143.1086723699284
 20
8.831242089586326
 30
0.0
 10
143.0576937539143
 20
9.051691208033123
 30
0.0
 10
143.0321576351485
 20
9.204567235654215
 30
0.0
 10
143.0190579927884
 20
9.282990323580169
 30
0.0
  0
SPLINE
  5
83
330
1F
100
AcDbEntity
  8
0
  6
Continuous
 62
     7
370
    25
100
AcDbSpline
210
0.0
220
0.0
230
1.0
 70
     8
 71
     3
 72
    11
 73
     7
 74
     0
 42
0.000000001
 43
0.00000001
 40
0.0
 40
0.0
 40
0.0
 40
0.0
 40
0.2931027018690512
 40
0.5547385117716543
 40
0.7918948234355606
 40
1.0
 40
1.0
 40
1.0
 40
1.0
 10
143.0190579927884
 20
9.282990323580167
 30
0.0
 10
142.989925811584
 20
9.2250231996326
 30
0.0
 10
142.9347890191119
 20
9.11531218071227
 30
0.0
 10
142.8462710767583
 20
8.963984741685932
 30
0.0
 10
142.7586724666869
 20
8.834036946991455
 30
0.0
 10
142.6946173307615
 20
8.759083355872681
 30
0.0
 10
142.6646794050167
 20
8.724051737989056
 30
0.0
  0
SPLINE
  5
84
330
1F
100
AcDbEntity
  8
0
  6
Continuous
 62
     7
370
    25
100
AcDbSpline
210
0.0
220
0.0
230
1.0
 70
     8
 71
     3
 72
    11
 73
     7
 74
     0
 42
0.000000001
 43
0.00000001
 40
0.0
 40
0.0
 40
0.0
 40
0.0
 40
0.2295426438440594
 40
0.4707541631011953
 40
0.7281684972329873
 40
1.0
 40
1.0
 40
1.0
 40
1.0
 10
142.6646794050167
 20
8.724051737989056
 30
0.0
 10
142.5981767840278
 20
8.65600296019568
 30
0.0
 10
142.4617908595505
 20
8.516446122722197
 30
0.0
 10
142.2273313000883
 20
8.326002590989829
 30
0.0
 10
141.9694928885708
 20
8.13756098653969
 30
0.0
 10
141.7816012904073
 20
8.024424582572703
 30
0.0
 10
141.6850963168673
 20
7.966315408038216
 30
0.0
  0
LINE
  5
85
330
1F
100
AcDbEntity
  8
0
  6
Continuous
 62
     7
370
    25
100
AcDbLine
 10
141.6850963169
 20
7.966315408
 30
0.0
 11
139.7
 21
6.7864940122
 31
0.0
  0
LINE
  5
86
330
1F
100
AcDbEntity
  8
0
  6
Continuous
 62
     7
370
    25
100
AcDbLine
 10
139.7
 20
6.7864940122
 30
0.0
 11
139.7
 21
7.9490286477
 31
0.0
  0
LINE
  5
87
330
1F
100
AcDbEntity
  8
0
  6
Continuous
 62
     7
370
    25
100
AcDbLine
 10
139.7
 20
7.9490286477
 30
0.0
 11
141.2183537866
 21
8.8450590606
 31
0.0
  0
SPLINE
  5
88
330
1F
100
AcDbEntity
  8
0
  6
Continuous
 62
     7
370
    25
100
AcDbSpline
210
0.0
220
0.0
230
1.0
 70
     8
 71
     3
 72
    21
 73
    17
 74
     0
 42
0.000000001
 43
0.00000001
 40
0.0
 40
0.0
 40
0.0
 40
0.0
 40
0.080769218063031
 40
0.1565174824176846
 40
0.227900414822583
 40
0.2942656778107679
 40
0.356813735650154
 40
0.4143493211949579
 40
0.4675789203754842
 40
0.5163175384894653
 40
0.6042855142937766
 40
0.6815253489285109
 40
0.7476063910689431
 40
0.8044293290602399
 40
0.9054203970298769
 40
1.0
 40
1.0
 40
1.0
 40
1.0
 10
141.2183537866315
 20
8.8450590606428
 30
0.0
 10
141.2716261582534
 20
8.87727713932156
 30
0.0
 10
141.3748592672106
 20
8.939710485639203
 30
0.0
 10
141.5256409588465
 20
9.029871500486868
 30
0.0
 10
141.6644062377494
 20
9.118351339569049
 30
0.0
 10
141.7953607640848
 20
9.200146835267264
 30
0.0
 10
141.915099612748
 20
9.279633299945123
 30
0.0
 10
142.0271948690658
 20
9.352347094036723
 30
0.0
 10
142.1272153468136
 20
9.423882684059183
 30
0.0
 10
142.2476785646711
 20
9.507079511916137
 30
0.0
 10
142.3787934627002
 20
9.607385335056742
 30
0.0
 10
142.5126431403917
 20
9.725227599268448
 30
0.0
 10
142.6219350125501
 20
9.834572419178041
 30
0.0
 10
142.7275165611003
 20
9.971377692232247
 30
0.0
 10
142.825897100497
 20
10.14113442633487
 30
0.0
 10
142.8716179816616
 20
10.28513135486673
 30
0.0
 10
142.8937289800399
 20
10.35476946708477
 30
0.0
  0
SPLINE
  5
89
330
1F
100
AcDbEntity
  8
0
  6
Continuous
 62
     7
370
    25
100
AcDbSpline
210
0.0
220
0.0
230
1.0
 70
     8
 71
     3
 72
    11
 73
     7
 74
     0
 42
0.000000001
 43
0.00000001
 40
0.0
 40
0.0
 40
0.0
 40
0.0
 40
0.1774946570818456
 40
0.4052256231013713
 40
0.6783881083348571
 40
1.0
 40
1.0
 40
1.0
 40
1.0
 10
142.8937289800399
 20
10.35476946708477
 30
0.0
 10
142.8990002384421
 20
10.38399999936619
 30
0.0
 10
142.9110346793974
 20
10.45073418084556
 30
0.0
 10
142.9188943919723
 20
10.5640486544715
 30
0.0
 10
142.9272364253441
 20
10.70134304087969
 30
0.0
 10
142.9269933664708
 20
10.80084262244919
 30
0.0
 10
142.9268619374332
 20
10.85464495471394
 30
0.0
  0
LINE
  5
8A
330
1F
100
AcDbEntity
  8
0
  6
Continuous
 62
     7
370
    25
100
AcDbLine
 10
142.9268619374
 20
10.8546449547
 30
0.0
 11
142.9268619374
 21
11.8932911408
 31
0.0
  0
LINE
  5
8B
330
1F
100
AcDbEntity
  8
0
  6
Continuous
 62
     7
370
    25
100
AcDbLine
 10
145.080504168
 20
37.8421590332
 30
0.0
 11
139.7
 21
39.3994080307
 31
0.0
  0
LINE
  5
8C
330
1F
100
AcDbEntity
  8
0
  6
Continuous
 62
     7
370
    25
100
AcDbLine
 10
139.7
 20
39.3994080307
 30
0.0
 11
139.7
 21
40.5993973137
 31
0.0
  0
LINE
  5
8D
330
1F
100
AcDbEntity
  8
0
  6
Continuous
 62
     7
370
    25
100
AcDbLine
 10
139.7
 20
40.5993973137
 30
0.0
 11
146.8912923177
 21
42.4101854634
 31
0.0
  0
LINE
  5
8E
330
1F
100
AcDbEntity
  8
0
  6
Continuous
 62
     7
370
    25
100
AcDbLine
 10
146.8912923177
 20
42.4101854634
 30
0.0
 11
146.8912923177
 21
41.3628958971
 31
0.0
  0
LINE
  5
8F
330
1F
100
AcDbEntity
  8
0
  6
Continuous
 62
     7
370
    25
100
AcDbLine
 10
146.8912923177
 20
41.3628958971
 30
0.0
 11
142.1619227907
 21
40.2954384437
 31
0.0
  0
SPLINE
  5
90
330
1F
100
AcDbEntity
  8
0
  6
Continuous
 62
     7
370
    25
100
AcDbSpline
210
0.0
220
0.0
230
1.0
 70
     8
 71
     3
 72
     9
 73
     5
 74
     0
 42
0.000000001
 43
0.00000001
 40
0.0
 40
0.0
 40
0.0
 40
0.0
 40
0.5025653899218012
 40
0.9999999999999999
 40
0.9999999999999999
 40
0.9999999999999999
 40
0.9999999999999999
 10
142.1619227906577
 20
40.29543844369737
 30
0.0
 10
141.9180101010149
 20
40.24011615925397
 30
0.0
 10
141.4326748699503
 20
40.13003638545175
 30
0.0
 10
140.9470699317858
 20
40.02115257319039
 30
0.0
 10
140.705513228718
 20
39.96698999649435
 30
0.0
  0
SPLINE
  5
91
330
1F
100
AcDbEntity
  8
0
  6
Continuous
 62
     7
370
    25
100
AcDbSpline
210
0.0
220
0.0
230
1.0
 70
     8
 71
     3
 72
    15
 73
    11
 74
     0
 42
0.000000001
 43
0.00000001
 40
0.0
 40
0.0
 40
0.0
 40
0.0
 40
0.2042261540779039
 40
0.3855417648063328
 40
0.5445479239626517
 40
0.6809444004243543
 40
0.7947315708215065
 40
0.8862118064819463
 40
0.9537405078414544
 40
1.0
 40
1.0
 40
1.0
 40
1.0
 10
140.705513228718
 20
39.96698999649436
 30
0.0
 10
140.792371040613
 20
39.94134571586701
 30
0.0
 10
140.9563427622391
 20
39.89293398694376
 30
0.0
 10
141.188788478532
 20
39.82749071142882
 30
0.0
 10
141.3916606366155
 20
39.76805068119019
 30
0.0
 10
141.5659049957376
 20
39.71741082602778
 30
0.0
 10
141.7117663592284
 20
39.67640793078118
 30
0.0
 10
141.8274523895505
 20
39.64100649701728
 30
0.0
 10
141.9152285970175
 20
39.61687732192798
 30
0.0
 10
141.9636199114437
 20
39.60257832922441
 30
0.0
 10
141.9832929334069
 20
39.59676521170848
 30
0.0
  0
LINE
  5
92
330
1F
100
AcDbEntity
  8
0
  6
Continuous
 62
     7
370
    25
100
AcDbLine
 10
141.9832929334
 20
39.5967652117
 30
0.0
 11
146.8912923177
 21
38.1763697339
 31
0.0
  0
LINE
  5
93
330
1F
100
AcDbEntity
  8
0
  6
Continuous
 62
     7
370
    25
100
AcDbLine
 10
146.8912923177
 20
38.1763697339
 30
0.0
 11
146.8912923177
 21
36.9562125638
 31
0.0
  0
LINE
  5
94
330
1F
100
AcDbEntity
  8
0
  6
Continuous
 62
     7
370
    25
100
AcDbLine
 10
146.8912923177
 20
36.9562125638
 30
0.0
 11
143.288443342
 21
35.9290908846
 31
0.0
  0
SPLINE
  5
95
330
1F
100
AcDbEntity
  8
0
  6
Continuous
 62
     7
370
    25
100
AcDbSpline
210
0.0
220
0.0
230
1.0
 70
     8
 71
     3
 72
    11
 73
     7
 74
     0
 42
0.000000001
 43
0.00000001
 40
0.0
 40
0.0
 40
0.0
 40
0.0
 40
0.2603861425240816
 40
0.5134251205046657
 40
0.7599736215259955
 40
1.0
 40
1.0
 40
1.0
 40
1.0
 10
143.2884433420295
 20
35.92909088460804
 30
0.0
 10
143.065873462794
 20
35.87240807050191
 30
0.0
 10
142.6270138293303
 20
35.76064182833223
 30
0.0
 10
141.9733161486629
 20
35.61214233649873
 30
0.0
 10
141.3354773060716
 20
35.47508205145168
 30
0.0
 10
140.9136163587325
 20
35.39613275356857
 30
0.0
 10
140.705513228718
 20
35.35718722873259
 30
0.0
  0
SPLINE
  5
96
330
1F
100
AcDbEntity
  8
0
  6
Continuous
 62
     7
370
    25
100
AcDbSpline
210
0.0
220
0.0
230
1.0
 70
     8
 71
     3
 72
    11
 73
     7
 74
     0
 42
0.000000001
 43
0.00000001
 40
0.0
 40
0.0
 40
0.0
 40
0.0
 40
0.2155331472493865
 40
0.4533588666114246
 40
0.7155332054647635
 40
1.0
 40
1.0
 40
1.0
 40
1.0
 10
140.705513228718
 20
35.35718722873259
 30
0.0
 10
140.8121082859741
 20
35.33314836430227
 30
0.0
 10
141.0363235167205
 20
35.28258429807008
 30
0.0
 10
141.3903398144168
 20
35.20339685192071
 30
0.0
 10
141.7782064231522
 20
35.11544732964626
 30
0.0
 10
142.0485889993529
 20
35.05462689696751
 30
0.0
 10
142.1892934945913
 20
35.02297652806986
 30
0.0
  0
LINE
  5
97
330
1F
100
AcDbEntity
  8
0
  6
Continuous
 62
     7
370
    25
100
AcDbLine
 10
142.1892934946
 20
35.0229765281
 30
0.0
 11
146.8912923177
 21
33.9612813281
 31
0.0
  0
LINE
  5
98
330
1F
100
AcDbEntity
  8
0
  6
Continuous
 62
     7
370
    25
100
AcDbLine
 10
146.8912923177
 20
33.9612813281
 30
0.0
 11
146.8912923177
 21
32.9139917618
 31
0.0
  0
LINE
  5
99
330
1F
100
AcDbEntity
  8
0
  6
Continuous
 62
     7
370
    25
100
AcDbLine
 10
146.8912923177
 20
32.9139917618
 30
0.0
 11
139.7
 21
34.7262204749
 31
0.0
  0
LINE
  5
9A
330
1F
100
AcDbEntity
  8
0
  6
Continuous
 62
     7
370
    25
100
AcDbLine
 10
139.7
 20
34.7262204749
 30
0.0
 11
139.7
 21
35.8412165193
 31
0.0
  0
LINE
  5
9B
330
1F
100
AcDbEntity
  8
0
  6
Continuous
 62
     7
370
    25
100
AcDbLine
 10
139.7
 20
35.8412165193
 30
0.0
 11
145.1957492372
 21
37.343724109
 31
0.0
  0
SPLINE
  5
9C
330
1F
100
AcDbEntity
  8
0
  6
Continuous
 62
     7
370
    25
100
AcDbSpline
210
0.0
220
0.0
230
1.0
 70
     8
 71
     3
 72
    15
 73
    11
 74
     0
 42
0.000000001
 43
0.00000001
 40
0.0
 40
0.0
 40
0.0
 40
0.0
 40
0.195279953533642
 40
0.3709591958780596
 40
0.5263022405927746
 40
0.6620399845915238
 40
0.7769964217729792
 40
0.871173310115093
 40
0.9457569341303124
 40
1.0
 40
1.0
 40
1.0
 40
1.0
 10
145.1957492371909
 20
37.34372410896493
 30
0.0
 10
145.2494752936547
 20
37.35881144950126
 30
0.0
 10
145.3515347951183
 20
37.38747177849059
 30
0.0
 10
145.4971771628731
 20
37.42503875729498
 30
0.0
 10
145.6252636330027
 20
37.46229279626186
 30
0.0
 10
145.7374495130982
 20
37.49192471080924
 30
0.0
 10
145.8326043181363
 20
37.51756865184216
 30
0.0
 10
145.910449450967
 20
37.54027745854219
 30
0.0
 10
145.9725084650481
 20
37.554883152403
 30
0.0
 10
146.0077809625613
 20
37.56544531181963
 30
0.0
 10
146.0226326086582
 20
37.56989255725824
 30
0.0
  0
SPLINE
  5
9D
330
1F
100
AcDbEntity
  8
0
  6
Continuous
 62
     7
370
    25
100
AcDbSpline
210
0.0
220
0.0
230
1.0
 70
     8
 71
     3
 72
    11
 73
     7
 74
     0
 42
0.000000001
 43
0.00000001
 40
0.0
 40
0.0
 40
0.0
 40
0.0
 40
0.2994325835200208
 40
0.565780425350062
 40
0.7996368141693508
 40
1.0
 40
1.0
 40
1.0
 40
1.0
 10
146.0226326086582
 20
37.56989255725824
 30
0.0
 10
145.9284506339967
 20
37.59655800909188
 30
0.0
 10
145.7504929880456
 20
37.64694260820009
 30
0.0
 10
145.4999658691353
 20
37.72155987129149
 30
0.0
 10
145.2796765996095
 20
37.78417159518199
 30
0.0
 10
145.1433908794123
 20
37.82385007725235
 30
0.0
 10
145.0805041679969
 20
37.84215903322917
 30
0.0
  0
CIRCLE
  5
9E
330
1F
100
AcDbEntity
  8
0
  6
Continuous
 62
     7
370
    25
100
AcDbCircle
 10
55.0291
 20
80.01
 30
0.0
 40
1.269999999999996
  0
CIRCLE
  5
9F
330
1F
100
AcDbEntity
  8
0
  6
Continuous
 62
     7
370
    25
100
AcDbCircle
 10
55.0291
 20
-80.01
 30
0.0
 40
1.269999999999996
  0
CIRCLE
  5
A0
330
1F
100
AcDbEntity
  8
0
  6
Continuous
 62
     7
370
    25
100
AcDbCircle
 10
-55.0333333333
 20
0.0
 30
0.0
 40
1.269999999999998
  0
LINE
  5
A1
330
1F
100
AcDbEntity
  8
0
  6
Continuous
 62
     7
370
    25
100
AcDbLine
 10
152.4
 20
-86.36
 30
0.0
 11
152.4
 21
86.36
 31
0.0
  0
ARC
  5
A2
330
1F
100
AcDbEntity
  8
0
  6
Continuous
 62
     7
370
    25
100
AcDbCircle
 10
149.86
 20
86.36
 30
0.0
 40
2.539999999999992
100
AcDbArc
 50
0.0
 51
90.0
  0
LINE
  5
A3
330
1F
100
AcDbEntity
  8
0
  6
Continuous
 62
     7
370
    25
100
AcDbLine
 10
149.86
 20
88.9
 30
0.0
 11
-149.86
 21
88.9
 31
0.0
  0
ARC
  5
A4
330
1F
100
AcDbEntity
  8
0
  6
Continuous
 62
     7
370
    25
100
AcDbCircle
 10
-149.86
 20
86.36
 30
0.0
 40
2.539999999999992
100
AcDbArc
 50
90.0
 51
180.0
  0
LINE
  5
A5
330
1F
100
AcDbEntity
  8
0
  6
Continuous
 62
     7
370
    25
100
AcDbLine
 10
-152.4
 20
86.36
 30
0.0
 11
-152.4
 21
-86.36
 31
0.0
  0
ARC
  5
A6
330
1F
100
AcDbEntity
  8
0
  6
Continuous
 62
     7
370
    25
100
AcDbCircle
 10
-149.86
 20
-86.36
 30
0.0
 40
2.540000000000006
100
AcDbArc
 50
180.0
 51
270.0
  0
LINE
  5
A7
330
1F
100
AcDbEntity
  8
0
  6
Continuous
 62
     7
370
    25
100
AcDbLine
 10
-149.86
 20
-88.9
 30
0.0
 11
149.86
 21
-88.9
 31
0.0
  0
ARC
  5
A8
330
1F
100
AcDbEntity
  8
0
  6
Continuous
 62
     7
370
    25
100
AcDbCircle
 10
149.86
 20
-86.36
 30
0.0
 40
2.539999999999992
100
AcDbArc
 50
270.0
 51
0.0
  0
CIRCLE
  5
A9
330
1F
100
AcDbEntity
  8
0
  6
Continuous
 62
     7
370
    25
100
AcDbCircle
 10
-55.0291
 20
80.01
 30
0.0
 40
1.269999999999996
  0
CIRCLE
  5
AA
330
1F
100
AcDbEntity
  8
0
  6
Continuous
 62
     7
370
    25
100
AcDbCircle
 10
-55.0291
 20
-80.01
 30
0.0
 40
1.269999999999996
  0
CIRCLE
  5
AB
330
1F
100
AcDbEntity
  8
0
  6
Continuous
 62
     7
370
    25
100
AcDbCircle
 10
55.0333333333
 20
0.0
 30
0.0
 40
1.269999999999998
  0
LINE
  5
AC
330
1F
100
AcDbEntity
  8
0
  6
Continuous
 62
     7
370
    25
100
AcDbLine
 10
141.9127053285
 20
31.3581833277
 30
0.0
 11
139.7
 21
32.176423319
 31
0.0
  0
LINE
  5
AD
330
1F
100
AcDbEntity
  8
0
  6
Continuous
 62
     7
370
    25
100
AcDbLine
 10
139.7
 20
32.176423319
 30
0.0
 11
139.7
 21
33.2525241526
 31
0.0
  0
LINE
  5
AE
330
1F
100
AcDbEntity
  8
0
  6
Continuous
 62
     7
370
    25
100
AcDbLine
 10
139.7
 20
33.2525241526
 30
0.0
 11
146.8912923177
 21
30.3973275633
 31
0.0
  0
LINE
  5
AF
330
1F
100
AcDbEntity
  8
0
  6
Continuous
 62
     7
370
    25
100
AcDbLine
 10
146.8912923177
 20
30.3973275633
 30
0.0
 11
146.8912923177
 21
29.2535202515
 31
0.0
  0
LINE
  5
B0
330
1F
100
AcDbEntity
  8
0
  6
Continuous
 62
     7
370
    25
100
AcDbLine
 10
146.8912923177
 20
29.2535202515
 30
0.0
 11
139.7
 21
26.3983236623
 31
0.0
  0
LINE
  5
B1
330
1F
100
AcDbEntity
  8
0
  6
Continuous
 62
     7
370
    25
100
AcDbLine
 10
139.7
 20
26.3983236623
 30
0.0
 11
139.7
 21
27.4744244959
 31
0.0
  0
LINE
  5
B2
330
1F
100
AcDbEntity
  8
0
  6
Continuous
 62
     7
370
    25
100
AcDbLine
 10
139.7
 20
27.4744244959
 30
0.0
 11
141.9127053285
 21
28.2926644871
 31
0.0
  0
LINE
  5
B3
330
1F
100
AcDbEntity
  8
0
  6
Continuous
 62
     7
370
    25
100
AcDbLine
 10
141.9127053285
 20
28.2926644871
 30
0.0
 11
141.9127053285
 21
31.3581833277
 31
0.0
  0
LINE
  5
B4
330
1F
100
AcDbEntity
  8
0
  6
Continuous
 62
     7
370
    25
100
AcDbLine
 10
146.0615278195
 20
22.8646217281
 30
0.0
 11
139.7
 21
22.8646217281
 31
0.0
  0
LINE
  5
B5
330
1F
100
AcDbEntity
  8
0
  6
Continuous
 62
     7
370
    25
100
AcDbLine
 10
139.7
 20
22.8646217281
 30
0.0
 11
139.7
 21
23.878778337
 31
0.0
  0
LINE
  5
B6
330
1F
100
AcDbEntity
  8
0
  6
Continuous
 62
     7
370
    25
100
AcDbLine
 10
139.7
 20
23.878778337
 30
0.0
 11
146.0615278195
 21
23.878778337
 31
0.0
  0
LINE
  5
B7
330
1F
100
AcDbEntity
  8
0
  6
Continuous
 62
     7
370
    25
100
AcDbLine
 10
146.0615278195
 20
23.878778337
 30
0.0
 11
146.0615278195
 21
26.1836797209
 31
0.0
  0
LINE
  5
B8
330
1F
100
AcDbEntity
  8
0
  6
Continuous
 62
     7
370
    25
100
AcDbLine
 10
146.0615278195
 20
26.1836797209
 30
0.0
 11
146.8912923177
 21
26.1836797209
 31
0.0
  0
LINE
  5
B9
330
1F
100
AcDbEntity
  8
0
  6
Continuous
 62
     7
370
    25
100
AcDbLine
 10
146.8912923177
 20
26.1836797209
 30
0.0
 11
146.8912923177
 21
20.5597203442
 31
0.0
  0
LINE
  5
BA
330
1F
100
AcDbEntity
  8
0
  6
Continuous
 62
     7
370
    25
100
AcDbLine
 10
146.8912923177
 20
20.5597203442
 30
0.0
 11
146.0615278195
 21
20.5597203442
 31
0.0
  0
LINE
  5
BB
330
1F
100
AcDbEntity
  8
0
  6
Continuous
 62
     7
370
    25
100
AcDbLine
 10
146.0615278195
 20
20.5597203442
 30
0.0
 11
146.0615278195
 21
22.8646217281
 31
0.0
  0
LINE
  5
BC
330
1F
100
AcDbEntity
  8
0
  6
Continuous
 62
     7
370
    25
100
AcDbLine
 10
140.5297644982
 20
14.2903885801
 30
0.0
 11
139.7
 21
14.2903885801
 31
0.0
  0
LINE
  5
BD
330
1F
100
AcDbEntity
  8
0
  6
Continuous
 62
     7
370
    25
100
AcDbLine
 10
139.7
 20
14.2903885801
 30
0.0
 11
139.7
 21
19.5455637353
 31
0.0
  0
LINE
  5
BE
330
1F
100
AcDbEntity
  8
0
  6
Continuous
 62
     7
370
    25
100
AcDbLine
 10
139.7
 20
19.5455637353
 30
0.0
 11
146.8912923177
 21
19.5455637353
 31
0.0
  0
LINE
  5
BF
330
1F
100
AcDbEntity
  8
0
  6
Continuous
 62
     7
370
    25
100
AcDbLine
 10
146.8912923177
 20
19.5455637353
 30
0.0
 11
146.8912923177
 21
14.4747806908
 31
0.0
  0
LINE
  5
C0
330
1F
100
AcDbEntity
  8
0
  6
Continuous
 62
     7
370
    25
100
AcDbLine
 10
146.8912923177
 20
14.4747806908
 30
0.0
 11
146.0615278195
 21
14.4747806908
 31
0.0
  0
LINE
  5
C1
330
1F
100
AcDbEntity
  8
0
  6
Continuous
 62
     7
370
    25
100
AcDbLine
 10
146.0615278195
 20
14.4747806908
 30
0.0
 11
146.0615278195
 21
18.5314071264
 31
0.0
  0
LINE
  5
C2
330
1F
100
AcDbEntity
  8
0
  6
Continuous
 62
     7
370
    25
100
AcDbLine
 10
146.0615278195
 20
18.5314071264
 30
0.0
 11
143.848822491
 21
18.5314071264
 31
0.0
  0
LINE
  5
C3
330
1F
100
AcDbEntity
  8
0
  6
Continuous
 62
     7
370
    25
100
AcDbLine
 10
143.848822491
 20
18.5314071264
 30
0.0
 11
143.848822491
 21
14.7513688568
 31
0.0
  0
LINE
  5
C4
330
1F
100
AcDbEntity
  8
0
  6
Continuous
 62
     7
370
    25
100
AcDbLine
 10
143.848822491
 20
14.7513688568
 30
0.0
 11
143.0190579928
 21
14.7513688568
 31
0.0
  0
LINE
  5
C5
330
1F
100
AcDbEntity
  8
0
  6
Continuous
 62
     7
370
    25
100
AcDbLine
 10
143.0190579928
 20
14.7513688568
 30
0.0
 11
143.0190579928
 21
18.5314071264
 31
0.0
  0
LINE
  5
C6
330
1F
100
AcDbEntity
  8
0
  6
Continuous
 62
     7
370
    25
100
AcDbLine
 10
143.0190579928
 20
18.5314071264
 30
0.0
 11
140.5297644982
 21
18.5314071264
 31
0.0
  0
LINE
  5
C7
330
1F
100
AcDbEntity
  8
0
  6
Continuous
 62
     7
370
    25
100
AcDbLine
 10
140.5297644982
 20
18.5314071264
 30
0.0
 11
140.5297644982
 21
14.2903885801
 31
0.0
  0
SPLINE
  5
C8
330
1F
100
AcDbEntity
  8
0
  6
Continuous
 62
     7
370
    25
100
AcDbSpline
210
0.0
220
0.0
230
1.0
 70
     8
 71
     3
 72
    31
 73
    27
 74
     0
 42
0.000000001
 43
0.00000001
 40
0.0
 40
0.0
 40
0.0
 40
0.0
 40
0.0475578552366892
 40
0.0939587433032121
 40
0.1391065558658819
 40
0.1836197400246787
 40
0.2274488900464199
 40
0.270692824885533
 40
0.3135993112112388
 40
0.3562477041775143
 40
0.3983518995163713
 40
0.4395407877600379
 40
0.480028207120875
 40
0.5198698942281282
 40
0.5596377259065922
 40
0.5992029826732274
 40
0.6391968721421512
 40
0.679436659703796
 40
0.7197866934653594
 40
0.7596242810853109
 40
0.7995642296549555
 40
0.839202071176476
 40
0.8787078412220468
 40
0.9187971748226592
 40
0.9590848268300463
 40
0.9999999999999999
 40
0.9999999999999999
 40
0.9999999999999999
 40
0.9999999999999999
 10
143.2841216519347
 20
-10.69474242120733
 30
0.0
 10
143.1947741324329
 20
-10.69324406576209
 30
0.0
 10
143.0182527016856
 20
-10.69028380622232
 30
0.0
 10
142.7574765397106
 20
-10.67025347927863
 30
0.0
 10
142.5041867217372
 20
-10.63503320116064
 30
0.0
 10
142.2576279775689
 20
-10.5883195026376
 30
0.0
 10
142.0183136122684
 20
-10.52572455870415
 30
0.0
 10
141.7855574198376
 20
-10.45134013680542
 30
0.0
 10
141.5607460255189
 20
-10.36136779160626
 30
0.0
 10
141.343336542847
 20
-10.25975468607417
 30
0.0
 10
141.1363229272464
 20
-10.14477704785461
 30
0.0
 10
140.9411388038621
 20
-10.01795776245984
 30
0.0
 10
140.7596604707778
 20
-9.879166874427044
 30
0.0
 10
140.5894766589164
 20
-9.730658599910953
 30
0.0
 10
140.4345658820306
 20
-9.568689929584092
 30
0.0
 10
140.2903834205156
 20
-9.396737599829084
 30
0.0
 10
140.161526544746
 20
-9.211921942949
 30
0.0
 10
140.0443484778405
 20
-9.017795626590488
 30
0.0
 10
139.9436260939048
 20
-8.81500826625915
 30
0.0
 10
139.853202269642
 20
-8.608118694371164
 30
0.0
 10
139.7771301498181
 20
-8.39687980201817
 30
0.0
 10
139.7148928712237
 20
-8.181819365024225
 30
0.0
 10
139.6673700145872
 20
-7.962756359787547
 30
0.0
 10
139.6327060302435
 20
-7.74008910270848
 30
0.0
 10
139.6122614578615
 20
-7.512920575742577
 30
0.0
 10
139.6092974175778
 20
-7.36035876424607
 30
0.0
 10
139.6078039446447
 20
-7.283488373063629
 30
0.0
  0
SPLINE
  5
C9
330
1F
100
AcDbEntity
  8
0
  6
Continuous
 62
     7
370
    25
100
AcDbSpline
210
0.0
220
0.0
230
1.0
 70
     8
 71
     3
 72
    31
 73
    27
 74
     0
 42
0.000000001
 43
0.00000001
 40
0.0
 40
0.0
 40
0.0
 40
0.0
 40
0.0446984804579256
 40
0.0885364955530211
 40
0.1314134861036347
 40
0.1738196996553997
 40
0.2157216787162928
 40
0.2572556815228515
 40
0.2986228232250986
 40
0.3403804249161486
 40
0.3820239467443903
 40
0.4229656048048198
 40
0.4636294312212886
 40
0.5040460841301626
 40
0.5444234833709048
 40
0.58495017728587
 40
0.6262528364715431
 40
0.6679684024680334
 40
0.7099331391893697
 40
0.7513736197210471
 40
0.7926116955612428
 40
0.8339429353624699
 40
0.87500391032902
 40
0.9164427625190595
 40
0.9579052194038282
 40
1.0
 40
1.0
 40
1.0
 40
1.0
 10
139.6078039446447
 20
-7.283488373063629
 30
0.0
 10
139.609026868308
 20
-7.200837461973291
 30
0.0
 10
139.6114491738174
 20
-7.037126706098919
 30
0.0
 10
139.6356247364688
 20
-6.795157068309376
 30
0.0
 10
139.6725124163553
 20
-6.559210095754804
 30
0.0
 10
139.7257417127971
 20
-6.329958393059392
 30
0.0
 10
139.795273651735
 20
-6.107764179251511
 30
0.0
 10
139.8789476705488
 20
-5.892589321637264
 30
0.0
 10
139.9772106806109
 20
-5.683912210902712
 30
0.0
 10
140.0911141905289
 20
-5.483159574321617
 30
0.0
 10
140.2168537616317
 20
-5.290518027289815
 30
0.0
 10
140.3560424878209
 20
-5.109892862522542
 30
0.0
 10
140.5056151438199
 20
-4.940767394176922
 30
0.0
 10
140.6678243139395
 20
-4.785217219648312
 30
0.0
 10
140.8395857343941
 20
-4.640794425152608
 30
0.0
 10
141.022012391147
 20
-4.507224855163155
 30
0.0
 10
141.2161812327983
 20
-4.386540322432461
 30
0.0
 10
141.4210094287917
 20
-4.279370350084379
 30
0.0
 10
141.6313109073758
 20
-4.182733590114658
 30
0.0
 10
141.8469726403016
 20
-4.101270405077558
 30
0.0
 10
142.0648645335957
 20
-4.029692273287198
 30
0.0
 10
142.2863167522486
 20
-3.972684518137112
 30
0.0
 10
142.5108218696748
 20
-3.927257082472469
 30
0.0
 10
142.7380054039766
 20
-3.896710232959459
 30
0.0
 10
142.9682059509389
 20
-3.874649119883979
 30
0.0
 10
143.1227248582211
 20
-3.8730433072646
 30
0.0
 10
143.200568976769
 20
-3.872234324919932
 30
0.0
  0
SPLINE
  5
CA
330
1F
100
AcDbEntity
  8
0
  6
Continuous
 62
     7
370
    25
100
AcDbSpline
210
0.0
220
0.0
230
1.0
 70
     8
 71
     3
 72
    23
 73
    19
 74
     0
 42
0.000000001
 43
0.00000001
 40
0.0
 40
0.0
 40
0.0
 40
0.0
 40
0.0752245959663752
 40
0.1465713103289062
 40
0.2144952598141357
 40
0.279453407019145
 40
0.3424182556849978
 40
0.4035099350204976
 40
0.4637740862491129
 40
0.5238754400688767
 40
0.5832614231365107
 40
0.6413103871737773
 40
0.6989047823355461
 40
0.7563009154929919
 40
0.8146321189351076
 40
0.8743276931491837
 40
0.9357847783626049
 40
0.9999999999999999
 40
0.9999999999999999
 40
0.9999999999999999
 40
0.9999999999999999
 10
143.200568976769
 20
-3.872234324919932
 30
0.0
 10
143.3447428907824
 20
-3.874750601082094
 30
0.0
 10
143.6256584506563
 20
-3.879653437574595
 30
0.0
 10
144.0347959425019
 20
-3.924923410107722
 30
0.0
 10
144.4192813613498
 20
-3.999605886526555
 30
0.0
 10
144.7808932636213
 20
-4.102339363016788
 30
0.0
 10
145.1169044128972
 20
-4.238978275866591
 30
0.0
 10
145.4314466480246
 20
-4.401107285408298
 30
0.0
 10
145.7190453205495
 20
-4.597822571277015
 30
0.0
 10
145.9830257437694
 20
-4.820098076159693
 30
0.0
 10
146.2163823855876
 20
-5.068437707839444
 30
0.0
 10
146.4236421602643
 20
-5.332831607618541
 30
0.0
 10
146.5965199101237
 20
-5.616601930328947
 30
0.0
 10
146.739260307234
 20
-5.917121452783822
 30
0.0
 10
146.848852156908
 20
-6.235668389120406
 30
0.0
 10
146.9255764478106
 20
-6.571347969577257
 30
0.0
 10
146.9750710650815
 20
-6.923801293227102
 30
0.0
 10
146.9806418496401
 20
-7.16471138456064
 30
0.0
 10
146.9834883730635
 20
-7.287810063158405
 30
0.0
  0
SPLINE
  5
CB
330
1F
100
AcDbEntity
  8
0
  6
Continuous
 62
     7
370
    25
100
AcDbSpline
210
0.0
220
0.0
230
1.0
 70
     8
 71
     3
 72
    31
 73
    27
 74
     0
 42
0.000000001
 43
0.00000001
 40
0.0
 40
0.0
 40
0.0
 40
0.0
 40
0.0430962105208294
 40
0.0855812793888138
 40
0.1271511541395007
 40
0.1679599364923709
 40
0.2086834522596289
 40
0.2490182191755186
 40
0.2895017121304961
 40
0.3302284186456847
 40
0.3705994125937009
 40
0.4106691352986523
 40
0.4502338309827058
 40
0.4897064582702849
 40
0.5292974198852409
 40
0.5690644058753123
 40
0.6097280487617235
 40
0.6507812828120488
 40
0.6925289540416139
 40
0.734236141916438
 40
0.7767212107844202
 40
0.8195633960985693
 40
0.8633594798189259
 40
0.9078444271295116
 40
0.9533366921112033
 40
1.0
 40
1.0
 40
1.0
 40
1.0
 10
146.9834883730635
 20
-7.287810063158405
 30
0.0
 10
146.9820832464192
 20
-7.369004564632472
 30
0.0
 10
146.9792929190454
 20
-7.530242159110273
 30
0.0
 10
146.9576439417374
 20
-7.769046914199914
 30
0.0
 10
146.9200392417792
 20
-8.00142181910802
 30
0.0
 10
146.8677800602704
 20
-8.227532904134245
 30
0.0
 10
146.8018352325556
 20
-8.447603788492017
 30
0.0
 10
146.7210448911383
 20
-8.66208388084425
 30
0.0
 10
146.6238350986171
 20
-8.869598946888148
 30
0.0
 10
146.5138084352223
 20
-9.07069572330478
 30
0.0
 10
146.3893281014101
 20
-9.262238692298686
 30
0.0
 10
146.2546490389069
 20
-9.444049021627093
 30
0.0
 10
146.1067996805992
 20
-9.613148243529903
 30
0.0
 10
145.9479205658693
 20
-9.770545609727975
 30
0.0
 10
145.7779389446165
 20
-9.916583100016311
 30
0.0
 10
145.5947417964522
 20
-10.04944163320473
 30
0.0
 10
145.401125110677
 20
-10.17180761898832
 30
0.0
 10
145.1955849927171
 20
-10.28104650971699
 30
0.0
 10
144.9822405716421
 20
-10.37889840020652
 30
0.0
 10
144.7600147886036
 20
-10.46248404072245
 30
0.0
 10
144.5316257284456
 20
-10.53427047207308
 30
0.0
 10
144.2957073310516
 20
-10.594358297951
 30
0.0
 10
144.0523441356747
 20
-10.63747378233975
 30
0.0
 10
143.8025837067251
 20
-10.67180685680827
 30
0.0
 10
143.5456100359496
 20
-10.68987735404694
 30
0.0
 10
143.3720197311145
 20
-10.69310705197251
 30
0.0
 10
143.2841216519347
 20
-10.69474242120733
 30
0.0
  0
LINE
  5
CC
330
1F
100
AcDbEntity
  8
0
  6
Continuous
 62
     7
370
    25
100
AcDbLine
 10
140.5297644982
 20
-16.9640741854
 30
0.0
 11
139.7
 21
-16.9640741854
 31
0.0
  0
LINE
  5
CD
330
1F
100
AcDbEntity
  8
0
  6
Continuous
 62
     7
370
    25
100
AcDbLine
 10
139.7
 20
-16.9640741854
 30
0.0
 11
139.7
 21
-11.3401148087
 31
0.0
  0
LINE
  5
CE
330
1F
100
AcDbEntity
  8
0
  6
Continuous
 62
     7
370
    25
100
AcDbLine
 10
139.7
 20
-11.3401148087
 30
0.0
 11
140.564338019
 21
-11.3401148087
 31
0.0
  0
LINE
  5
CF
330
1F
100
AcDbEntity
  8
0
  6
Continuous
 62
     7
370
    25
100
AcDbLine
 10
140.564338019
 20
-11.3401148087
 30
0.0
 11
145.2360850114
 21
-14.8810195597
 31
0.0
  0
SPLINE
  5
D0
330
1F
100
AcDbEntity
  8
0
  6
Continuous
 62
     7
370
    25
100
AcDbSpline
210
0.0
220
0.0
230
1.0
 70
     8
 71
     3
 72
    11
 73
     7
 74
     0
 42
0.000000001
 43
0.00000001
 40
0.0
 40
0.0
 40
0.0
 40
0.0
 40
0.2866303342764908
 40
0.5496230569591425
 40
0.7876045261568149
 40
1.0
 40
1.0
 40
1.0
 40
1.0
 10
145.2360850114088
 20
-14.88101955968096
 30
0.0
 10
145.3147217942125
 20
-14.94119325957582
 30
0.0
 10
145.4655104016468
 20
-15.05657830061913
 30
0.0
 10
145.683391247637
 20
-15.21954931718749
 30
0.0
 10
145.8784220302167
 20
-15.37020596080262
 30
0.0
 10
146.0028487920051
 20
-15.46361391003015
 30
0.0
 10
146.0615278195112
 20
-15.50766462342358
 30
0.0
  0
LINE
  5
D1
330
1F
100
AcDbEntity
  8
0
  6
Continuous
 62
     7
370
    25
100
AcDbLine
 10
146.0615278195
 20
-15.5076646234
 30
0.0
 11
146.0615278195
 21
-11.8010950855
 31
0.0
  0
LINE
  5
D2
330
1F
100
AcDbEntity
  8
0
  6
Continuous
 62
     7
370
    25
100
AcDbLine
 10
146.0615278195
 20
-11.8010950855
 30
0.0
 11
146.8912923177
 21
-11.8010950855
 31
0.0
  0
LINE
  5
D3
330
1F
100
AcDbEntity
  8
0
  6
Continuous
 62
     7
370
    25
100
AcDbLine
 10
146.8912923177
 20
-11.8010950855
 30
0.0
 11
146.8912923177
 21
-16.7796820747
 31
0.0
  0
LINE
  5
D4
330
1F
100
AcDbEntity
  8
0
  6
Continuous
 62
     7
370
    25
100
AcDbLine
 10
146.8912923177
 20
-16.7796820747
 30
0.0
 11
146.0615278195
 21
-16.7796820747
 31
0.0
  0
LINE
  5
D5
330
1F
100
AcDbEntity
  8
0
  6
Continuous
 62
     7
370
    25
100
AcDbLine
 10
146.0615278195
 20
-16.7796820747
 30
0.0
 11
140.5297644982
 21
-12.5876426827
 31
0.0
  0
LINE
  5
D6
330
1F
100
AcDbEntity
  8
0
  6
Continuous
 62
     7
370
    25
100
AcDbLine
 10
140.5297644982
 20
-12.5876426827
 30
0.0
 11
140.5297644982
 21
-16.9640741854
 31
0.0
  0
LINE
  5
D7
330
1F
100
AcDbEntity
  8
0
  6
Continuous
 62
     7
370
    25
100
AcDbLine
 10
140.5297644982
 20
-23.0490138388
 30
0.0
 11
139.7
 21
-23.0490138388
 31
0.0
  0
LINE
  5
D8
330
1F
100
AcDbEntity
  8
0
  6
Continuous
 62
     7
370
    25
100
AcDbLine
 10
139.7
 20
-23.0490138388
 30
0.0
 11
139.7
 21
-17.4250544621
 31
0.0
  0
LINE
  5
D9
330
1F
100
AcDbEntity
  8
0
  6
Continuous
 62
     7
370
    25
100
AcDbLine
 10
139.7
 20
-17.4250544621
 30
0.0
 11
140.564338019
 21
-17.4250544621
 31
0.0
  0
LINE
  5
DA
330
1F
100
AcDbEntity
  8
0
  6
Continuous
 62
     7
370
    25
100
AcDbLine
 10
140.564338019
 20
-17.4250544621
 30
0.0
 11
145.2360850114
 21
-20.9659592131
 31
0.0
  0
SPLINE
  5
DB
330
1F
100
AcDbEntity
  8
0
  6
Continuous
 62
     7
370
    25
100
AcDbSpline
210
0.0
220
0.0
230
1.0
 70
     8
 71
     3
 72
    11
 73
     7
 74
     0
 42
0.000000001
 43
0.00000001
 40
0.0
 40
0.0
 40
0.0
 40
0.0
 40
0.2866303342764906
 40
0.549623056959143
 40
0.7876045261568142
 40
1.0
 40
1.0
 40
1.0
 40
1.0
 10
145.2360850114088
 20
-20.96595921312648
 30
0.0
 10
145.3147217942125
 20
-21.02613291302134
 30
0.0
 10
145.4655104016469
 20
-21.14151795406466
 30
0.0
 10
145.683391247637
 20
-21.304488970633
 30
0.0
 10
145.8784220302167
 20
-21.45514561424814
 30
0.0
 10
146.0028487920051
 20
-21.54855356347567
 30
0.0
 10
146.0615278195112
 20
-21.5926042768691
 30
0.0
  0
LINE
  5
DC
330
1F
100
AcDbEntity
  8
0
  6
Continuous
 62
     7
370
    25
100
AcDbLine
 10
146.0615278195
 20
-21.5926042769
 30
0.0
 11
146.0615278195
 21
-17.8860347389
 31
0.0
  0
LINE
  5
DD
330
1F
100
AcDbEntity
  8
0
  6
Continuous
 62
     7
370
    25
100
AcDbLine
 10
146.0615278195
 20
-17.8860347389
 30
0.0
 11
146.8912923177
 21
-17.8860347389
 31
0.0
  0
LINE
  5
DE
330
1F
100
AcDbEntity
  8
0
  6
Continuous
 62
     7
370
    25
100
AcDbLine
 10
146.8912923177
 20
-17.8860347389
 30
0.0
 11
146.8912923177
 21
-22.8646217281
 31
0.0
  0
LINE
  5
DF
330
1F
100
AcDbEntity
  8
0
  6
Continuous
 62
     7
370
    25
100
AcDbLine
 10
146.8912923177
 20
-22.8646217281
 30
0.0
 11
146.0615278195
 21
-22.8646217281
 31
0.0
  0
LINE
  5
E0
330
1F
100
AcDbEntity
  8
0
  6
Continuous
 62
     7
370
    25
100
AcDbLine
 10
146.0615278195
 20
-22.8646217281
 30
0.0
 11
140.5297644982
 21
-18.6725823362
 31
0.0
  0
LINE
  5
E1
330
1F
100
AcDbEntity
  8
0
  6
Continuous
 62
     7
370
    25
100
AcDbLine
 10
140.5297644982
 20
-18.6725823362
 30
0.0
 11
140.5297644982
 21
-23.0490138388
 31
0.0
  0
LINE
  5
E2
330
1F
100
AcDbEntity
  8
0
  6
Continuous
 62
     7
370
    25
100
AcDbLine
 10
140.5297644982
 20
-28.5807771601
 30
0.0
 11
139.7
 21
-28.5807771601
 31
0.0
  0
LINE
  5
E3
330
1F
100
AcDbEntity
  8
0
  6
Continuous
 62
     7
370
    25
100
AcDbLine
 10
139.7
 20
-28.5807771601
 30
0.0
 11
139.7
 21
-24.1553665031
 31
0.0
  0
LINE
  5
E4
330
1F
100
AcDbEntity
  8
0
  6
Continuous
 62
     7
370
    25
100
AcDbLine
 10
139.7
 20
-24.1553665031
 30
0.0
 11
146.8912923177
 21
-24.1553665031
 31
0.0
  0
LINE
  5
E5
330
1F
100
AcDbEntity
  8
0
  6
Continuous
 62
     7
370
    25
100
AcDbLine
 10
146.8912923177
 20
-24.1553665031
 30
0.0
 11
146.8912923177
 21
-25.169523112
 31
0.0
  0
LINE
  5
E6
330
1F
100
AcDbEntity
  8
0
  6
Continuous
 62
     7
370
    25
100
AcDbLine
 10
146.8912923177
 20
-25.169523112
 30
0.0
 11
140.5297644982
 21
-25.169523112
 31
0.0
  0
LINE
  5
E7
330
1F
100
AcDbEntity
  8
0
  6
Continuous
 62
     7
370
    25
100
AcDbLine
 10
140.5297644982
 20
-25.169523112
 30
0.0
 11
140.5297644982
 21
-28.5807771601
 31
0.0
  0
LINE
  5
E8
330
1F
100
AcDbEntity
  8
0
  6
Continuous
 62
     7
370
    25
100
AcDbLine
 10
140.5297644982
 20
-34.9423049796
 30
0.0
 11
139.7
 21
-34.9423049796
 31
0.0
  0
LINE
  5
E9
330
1F
100
AcDbEntity
  8
0
  6
Continuous
 62
     7
370
    25
100
AcDbLine
 10
139.7
 20
-34.9423049796
 30
0.0
 11
139.7
 21
-29.6871298244
 31
0.0
  0
LINE
  5
EA
330
1F
100
AcDbEntity
  8
0
  6
Continuous
 62
     7
370
    25
100
AcDbLine
 10
139.7
 20
-29.6871298244
 30
0.0
 11
146.8912923177
 21
-29.6871298244
 31
0.0
  0
LINE
  5
EB
330
1F
100
AcDbEntity
  8
0
  6
Continuous
 62
     7
370
    25
100
AcDbLine
 10
146.8912923177
 20
-29.6871298244
 30
0.0
 11
146.8912923177
 21
-34.7579128689
 31
0.0
  0
LINE
  5
EC
330
1F
100
AcDbEntity
  8
0
  6
Continuous
 62
     7
370
    25
100
AcDbLine
 10
146.8912923177
 20
-34.7579128689
 30
0.0
 11
146.0615278195
 21
-34.7579128689
 31
0.0
  0
LINE
  5
ED
330
1F
100
AcDbEntity
  8
0
  6
Continuous
 62
     7
370
    25
100
AcDbLine
 10
146.0615278195
 20
-34.7579128689
 30
0.0
 11
146.0615278195
 21
-30.7012864333
 31
0.0
  0
LINE
  5
EE
330
1F
100
AcDbEntity
  8
0
  6
Continuous
 62
     7
370
    25
100
AcDbLine
 10
146.0615278195
 20
-30.7012864333
 30
0.0
 11
143.848822491
 21
-30.7012864333
 31
0.0
  0
LINE
  5
EF
330
1F
100
AcDbEntity
  8
0
  6
Continuous
 62
     7
370
    25
100
AcDbLine
 10
143.848822491
 20
-30.7012864333
 30
0.0
 11
143.848822491
 21
-34.4813247029
 31
0.0
  0
LINE
  5
F0
330
1F
100
AcDbEntity
  8
0
  6
Continuous
 62
     7
370
    25
100
AcDbLine
 10
143.848822491
 20
-34.4813247029
 30
0.0
 11
143.0190579928
 21
-34.4813247029
 31
0.0
  0
LINE
  5
F1
330
1F
100
AcDbEntity
  8
0
  6
Continuous
 62
     7
370
    25
100
AcDbLine
 10
143.0190579928
 20
-34.4813247029
 30
0.0
 11
143.0190579928
 21
-30.7012864333
 31
0.0
  0
LINE
  5
F2
330
1F
100
AcDbEntity
  8
0
  6
Continuous
 62
     7
370
    25
100
AcDbLine
 10
143.0190579928
 20
-30.7012864333
 30
0.0
 11
140.5297644982
 21
-30.7012864333
 31
0.0
  0
LINE
  5
F3
330
1F
100
AcDbEntity
  8
0
  6
Continuous
 62
     7
370
    25
100
AcDbLine
 10
140.5297644982
 20
-30.7012864333
 30
0.0
 11
140.5297644982
 21
-34.9423049796
 31
0.0
  0
SPLINE
  5
F4
330
1F
100
AcDbEntity
  8
0
  6
Continuous
 62
     7
370
    25
100
AcDbSpline
210
0.0
220
0.0
230
1.0
 70
     8
 71
     3
 72
    23
 73
    19
 74
     0
 42
0.000000001
 43
0.00000001
 40
0.0
 40
0.0
 40
0.0
 40
0.0
 40
0.0748159666505532
 40
0.1485345605139219
 40
0.2238723272963802
 40
0.3012971209351216
 40
0.3408936290197546
 40
0.3803400620654389
 40
0.420126588728462
 40
0.4599499070829635
 40
0.5008311555562153
 40
0.5419071755971095
 40
0.5844387941530512
 40
0.6280801713306057
 40
0.7172666799070595
 40
0.8078600064218676
 40
0.9019246558363444
 40
1.0
 40
1.0
 40
1.0
 40
1.0
 10
141.7412782880994
 20
-41.58042096521107
 30
0.0
 10
141.6472944933089
 20
-41.5766679659607
 30
0.0
 10
141.4607054230929
 20
-41.56921701505782
 30
0.0
 10
141.1856645041381
 20
-41.50506164057181
 30
0.0
 10
140.919151388874
 20
-41.40427694040479
 30
0.0
 10
140.7076585509
 20
-41.28608191459136
 30
0.0
 10
140.5461087582339
 20
-41.17435189063491
 30
0.0
 10
140.4299941504665
 20
-41.0804934001399
 30
0.0
 10
140.3226285014928
 20
-40.97640973039077
 30
0.0
 10
140.2206482492564
 20
-40.86466331569189
 30
0.0
 10
140.1261341242022
 20
-40.74438655051588
 30
0.0
 10
140.0390539425383
 20
-40.614565427123
 30
0.0
 10
139.9585012073742
 20
-40.47657014603276
 30
0.0
 10
139.8603429824742
 20
-40.27951635480482
 30
0.0
 10
139.7576601583519
 20
-40.01779618342587
 30
0.0
 10
139.6721493798038
 20
-39.6844172258266
 30
0.0
 10
139.6166764233536
 20
-39.33307618443209
 30
0.0
 10
139.6108023092719
 20
-39.09182373755515
 30
0.0
 10
139.6078039446447
 20
-38.96867958460106
 30
0.0
  0
SPLINE
  5
F5
330
1F
100
AcDbEntity
  8
0
  6
Continuous
 62
     7
370
    25
100
AcDbSpline
210
0.0
220
0.0
230
1.0
 70
     8
 71
     3
 72
    31
 73
    27
 74
     0
 42
0.000000001
 43
0.00000001
 40
0.0
 40
0.0
 40
0.0
 40
0.0
 40
0.0524914239297414
 40
0.103144524359976
 40
0.1513951639948413
 40
0.1980298702965079
 40
0.2428716967116372
 40
0.2863042308343076
 40
0.3278482240868856
 40
0.3683932627176625
 40
0.4078497842878926
 40
0.4468344837555465
 40
0.4851621283359205
 40
0.5235843258395589
 40
0.5616119105623153
 40
0.599928734237735
 40
0.6385044218754377
 40
0.6777977034331819
 40
0.7172962419434439
 40
0.7566106248152145
 40
0.7960724009495319
 40
0.8358898606988062
 40
0.8757164321439874
 40
0.9162653059694261
 40
0.9577606097175932
 40
1.0
 40
1.0
 40
1.0
 40
1.0
 10
139.6078039446447
 20
-38.96867958460106
 30
0.0
 10
139.6084699824183
 20
-38.89038352906863
 30
0.0
 10
139.6097787323858
 20
-38.73653345599833
 30
0.0
 10
139.6248682773394
 20
-38.51114550518265
 30
0.0
 10
139.6473604170363
 20
-38.29520847971754
 30
0.0
 10
139.6801738452789
 20
-38.0892858720353
 30
0.0
 10
139.7238765338822
 20
-37.8927972367372
 30
0.0
 10
139.7750319889203
 20
-37.70596567016609
 30
0.0
 10
139.835883638987
 20
-37.52880797773187
 30
0.0
 10
139.9059430119163
 20
-37.36141352776879
 30
0.0
 10
139.9879106070687
 20
-37.20389290973083
 30
0.0
 10
140.0761027372068
 20
-37.05355082777462
 30
0.0
 10
140.1768732006784
 20
-36.91317147341406
 30
0.0
 10
140.2856623607194
 20
-36.78084960085327
 30
0.0
 10
140.4046249094615
 20
-36.65751296185054
 30
0.0
 10
140.5331562298974
 20
-36.54391707015694
 30
0.0
 10
140.6705236647707
 20
-36.4380700546501
 30
0.0
 10
140.8170541227798
 20
-36.34199929754072
 30
0.0
 10
140.9710120454244
 20
-36.25620798638919
 30
0.0
 10
141.1297624566059
 20
-36.17904812568815
 30
0.0
 10
141.2944703384378
 20
-36.11404216375256
 30
0.0
 10
141.4642996836088
 20
-36.06165294474934
 30
0.0
 10
141.6381149560663
 20
-36.01727679200563
 30
0.0
 10
141.8173660799563
 20
-35.98650291637812
 30
0.0
 10
142.0014903422002
 20
-35.96387693765515
 30
0.0
 10
142.1263226804482
 20
-35.95894797157036
 30
0.0
 10
142.1892934945913
 20
-35.95646158854174
 30
0.0
  0
LINE
  5
F6
330
1F
100
AcDbEntity
  8
0
  6
Continuous
 62
     7
370
    25
100
AcDbLine
 10
142.1892934946
 20
-35.9564615885
 30
0.0
 11
142.1892934946
 21
-36.9706181974
 31
0.0
  0
SPLINE
  5
F7
330
1F
100
AcDbEntity
  8
0
  6
Continuous
 62
     7
370
    25
100
AcDbSpline
210
0.0
220
0.0
230
1.0
 70
     8
 71
     3
 72
    19
 73
    15
 74
     0
 42
0.000000001
 43
0.00000001
 40
0.0
 40
0.0
 40
0.0
 40
0.0
 40
0.0938051278846029
 40
0.1802047019423081
 40
0.260387222559851
 40
0.3350960170104955
 40
0.4070661315378798
 40
0.4814283678149877
 40
0.5592580851148328
 40
0.6426896252344038
 40
0.7285608937099531
 40
0.8159605604475628
 40
0.9060264571570026
 40
0.9999999999999999
 40
0.9999999999999999
 40
0.9999999999999999
 40
0.9999999999999999
 10
142.1892934945913
 20
-36.97061819744932
 30
0.0
 10
142.0982275773852
 20
-36.98175734518917
 30
0.0
 10
141.9232850466591
 20
-37.00315624782508
 30
0.0
 10
141.6754674587601
 20
-37.06328695879829
 30
0.0
 10
141.4519635866217
 20
-37.13975890731332
 30
0.0
 10
141.2524862540895
 20
-37.23829235199635
 30
0.0
 10
141.0746772144638
 20
-37.36243281726338
 30
0.0
 10
140.9162580378591
 20
-37.51519751600599
 30
0.0
 10
140.7778168825643
 20
-37.70013864781408
 30
0.0
 10
140.6565350963991
 20
-37.90964608856427
 30
0.0
 10
140.5590519995245
 20
-38.14154999278011
 30
0.0
 10
140.4881672150967
 20
-38.38951482595237
 30
0.0
 10
140.4457842624643
 20
-38.65222433493044
 30
0.0
 10
140.4403455422083
 20
-38.83214942928348
 30
0.0
 10
140.4375684428418
 20
-38.92402212028836
 30
0.0
  0
SPLINE
  5
F8
330
1F
100
AcDbEntity
  8
0
  6
Continuous
 62
     7
370
    25
100
AcDbSpline
210
0.0
220
0.0
230
1.0
 70
     8
 71
     3
 72
    19
 73
    15
 74
     0
 42
0.000000001
 43
0.00000001
 40
0.0
 40
0.0
 40
0.0
 40
0.0
 40
0.1056065824491302
 40
0.2052945020302915
 40
0.3010003042915591
 40
0.3930753030860948
 40
0.4804873266227163
 40
0.5629401060452002
 40
0.6410943740731806
 40
0.7177656570272738
 40
0.7918117124780372
 40
0.8625487575491109
 40
0.9317621811337318
 40
1.0
 40
1.0
 40
1.0
 40
1.0
 10
140.4375684428418
 20
-38.92402212028836
 30
0.0
 10
140.4390317044472
 20
-39.00532438152438
 30
0.0
 10
140.4418762199656
 20
-39.16337236345225
 30
0.0
 10
140.4775962679463
 20
-39.39259836586925
 30
0.0
 10
140.5270647359458
 20
-39.60844126791337
 30
0.0
 10
140.6023816158571
 20
-39.80695901225313
 30
0.0
 10
140.6956832214443
 20
-39.98596331618619
 30
0.0
 10
140.8046579704666
 20
-40.14335469729726
 30
0.0
 10
140.9320511576893
 20
-40.27518661419096
 30
0.0
 10
141.0732399194096
 20
-40.38134029827172
 30
0.0
 10
141.2230209593152
 20
-40.46380213828526
 30
0.0
 10
141.3775800619838
 20
-40.52127270769616
 30
0.0
 10
141.5338624372812
 20
-40.55997031230524
 30
0.0
 10
141.6397373954925
 20
-40.56417629274026
 30
0.0
 10
141.692299133692
 20
-40.56626435630348
 30
0.0
  0
SPLINE
  5
F9
330
1F
100
AcDbEntity
  8
0
  6
Continuous
 62
     7
370
    25
100
AcDbSpline
210
0.0
220
0.0
230
1.0
 70
     8
 71
     3
 72
    15
 73
    11
 74
     0
 42
0.000000001
 43
0.00000001
 40
0.0
 40
0.0
 40
0.0
 40
0.0
 40
0.1177987900794507
 40
0.2304740872448991
 40
0.3397536598435744
 40
0.4505653768738618
 40
0.5669138917025013
 40
0.6968714961840672
 40
0.8393957262157354
 40
1.0
 40
1.0
 40
1.0
 40
1.0
 10
141.692299133692
 20
-40.56626435630348
 30
0.0
 10
141.7443370329492
 20
-40.56404215392634
 30
0.0
 10
141.8461495161282
 20
-40.55969440074316
 30
0.0
 10
141.9932296543897
 20
-40.52587237132133
 30
0.0
 10
142.1295895290497
 20
-40.46989746069088
 30
0.0
 10
142.2574566474867
 20
-40.3929066322498
 30
0.0
 10
142.3755164757766
 20
-40.28701690556376
 30
0.0
 10
142.4821701526346
 20
-40.1517976235121
 30
0.0
 10
142.5816947417954
 20
-39.98788038395941
 30
0.0
 10
142.6349977261399
 20
-39.86499308878724
 30
0.0
 10
142.6632388416518
 20
-39.79988464616309
 30
0.0
  0
SPLINE
  5
FA
330
1F
100
AcDbEntity
  8
0
  6
Continuous
 62
     7
370
    25
100
AcDbSpline
210
0.0
220
0.0
230
1.0
 70
     8
 71
     3
 72
    23
 73
    19
 74
     0
 42
0.000000001
 43
0.00000001
 40
0.0
 40
0.0
 40
0.0
 40
0.0
 40
0.0312002304346093
 40
0.0704869884929089
 40
0.1172152781426534
 40
0.1715761829432937
 40
0.2335962817632886
 40
0.3039648669667231
 40
0.3816296779030724
 40
0.467120586652649
 40
0.553810077406795
 40
0.6345494703435131
 40
0.7100355793241747
 40
0.7790915592263431
 40
0.8429650449948473
 40
0.9010008283697427
 40
0.9532460777154962
 40
0.9999999999999999
 40
0.9999999999999999
 40
0.9999999999999999
 40
0.9999999999999999
 10
142.6632388416518
 20
-39.7998846461631
 30
0.0
 10
142.6736359549771
 20
-39.77454947707995
 30
0.0
 10
142.6971249227543
 20
-39.71731272764718
 30
0.0
 10
142.728211504021
 20
-39.61920907040365
 30
0.0
 10
142.7684577666923
 20
-39.50280996929685
 30
0.0
 10
142.8095535020237
 20
-39.36568735744753
 30
0.0
 10
142.8541888812798
 20
-39.20803658205446
 30
0.0
 10
142.9026529092829
 20
-39.03021919624536
 30
0.0
 10
142.9562689108656
 20
-38.83246570981952
 30
0.0
 10
143.0120139706276
 20
-38.62045786738742
 30
0.0
 10
143.0690922887473
 20
-38.40601315338045
 30
0.0
 10
143.1265276915232
 20
-38.20075164473056
 30
0.0
 10
143.1839564449068
 20
-38.01160490075313
 30
0.0
 10
143.2400871980715
 20
-37.83755511247669
 30
0.0
 10
143.2961087253505
 20
-37.67961394291201
 30
0.0
 10
143.3508726922346
 20
-37.5369705881624
 30
0.0
 10
143.4032104535109
 20
-37.40942963099112
 30
0.0
 10
143.4416953040173
 20
-37.33153291085532
 30
0.0
 10
143.4598703824556
 20
-37.29474495455757
 30
0.0
  0
SPLINE
  5
FB
330
1F
100
AcDbEntity
  8
0
  6
Continuous
 62
     7
370
    25
100
AcDbSpline
210
0.0
220
0.0
230
1.0
 70
     8
 71
     3
 72
    15
 73
    11
 74
     0
 42
0.000000001
 43
0.00000001
 40
0.0
 40
0.0
 40
0.0
 40
0.0
 40
0.1448442363608567
 40
0.2795870721076593
 40
0.4059805123918953
 40
0.5271207453990913
 40
0.6450442430272733
 40
0.7618212876468891
 40
0.8789094726449322
 40
1.0
 40
1.0
 40
1.0
 40
1.0
 10
143.4598703824556
 20
-37.29474495455757
 30
0.0
 10
143.5056230483405
 20
-37.21013368892766
 30
0.0
 10
143.5939376006987
 20
-37.0468119260523
 30
0.0
 10
143.7511637464642
 20
-36.8268388105955
 30
0.0
 10
143.9273082249415
 20
-36.64306092250268
 30
0.0
 10
144.1188457671032
 20
-36.49293818166947
 30
0.0
 10
144.3252753646839
 20
-36.37607481993814
 30
0.0
 10
144.5447300428817
 20
-36.29456030724382
 30
0.0
 10
144.7754083096964
 20
-36.24082041016329
 30
0.0
 10
144.933741398451
 20
-36.23566882875895
 30
0.0
 10
145.0142382532103
 20
-36.23304975460745
 30
0.0
  0
SPLINE
  5
FC
330
1F
100
AcDbEntity
  8
0
  6
Continuous
 62
     7
370
    25
100
AcDbSpline
210
0.0
220
0.0
230
1.0
 70
     8
 71
     3
 72
    23
 73
    19
 74
     0
 42
0.000000001
 43
0.00000001
 40
0.0
 40
0.0
 40
0.0
 40
0.0
 40
0.0750066687427198
 40
0.1491877198362676
 40
0.2236977009263306
 40
0.3006537583615207
 40
0.3398180695050248
 40
0.3791740369328045
 40
0.4183550510565549
 40
0.4581902312915876
 40
0.4983932796064641
 40
0.5400215645368477
 40
0.5821789238644202
 40
0.6261611767731996
 40
0.7158320129242102
 40
0.8073553152234736
 40
0.9016194335411707
 40
0.9999999999999999
 40
0.9999999999999999
 40
0.9999999999999999
 40
0.9999999999999999
 10
145.0142382532103
 20
-36.23304975460744
 30
0.0
 10
145.1033969212045
 20
-36.2364633020167
 30
0.0
 10
145.2807328648566
 20
-36.243252823043
 30
0.0
 10
145.5408725514832
 20
-36.30377555164879
 30
0.0
 10
145.7917755474636
 20
-36.39965918738132
 30
0.0
 10
145.9898276334301
 20
-36.51112497987366
 30
0.0
 10
146.1404526363675
 20
-36.61796856862247
 30
0.0
 10
146.2487649297277
 20
-36.70658887512946
 30
0.0
 10
146.3482987024789
 20
-36.80600826144624
 30
0.0
 10
146.4424741761065
 20
-36.91187745336761
 30
0.0
 10
146.5276128704119
 20
-37.02878669456231
 30
0.0
 10
146.6066784614601
 20
-37.15309709029414
 30
0.0
 10
146.6775232703895
 20
-37.28739317900427
 30
0.0
 10
146.7638985899502
 20
-37.47752530267989
 30
0.0
 10
146.8524552544337
 20
-37.7304176974627
 30
0.0
 10
146.9291802359116
 20
-38.04883027585264
 30
0.0
 10
146.9740941217286
 20
-38.38397253240664
 30
0.0
 10
146.9803126631763
 20
-38.61272555011944
 30
0.0
 10
146.9834883730635
 20
-38.72954606602341
 30
0.0
  0
SPLINE
  5
FD
330
1F
100
AcDbEntity
  8
0
  6
Continuous
 62
     7
370
    25
100
AcDbSpline
210
0.0
220
0.0
230
1.0
 70
     8
 71
     3
 72
    23
 73
    19
 74
     0
 42
0.000000001
 43
0.00000001
 40
0.0
 40
0.0
 40
0.0
 40
0.0
 40
0.1004854727332219
 40
0.1952903936341688
 40
0.2861058758310005
 40
0.3730143823631319
 40
0.4150615268508788
 40
0.4560917835696075
 40
0.4959829929563458
 40
0.535614438701935
 40
0.5741394516238199
 40
0.6125756118125648
 40
0.6511412804892445
 40
0.6895774406779853
 40
0.7661247573396132
 40
0.8423830568537369
 40
0.919927940394536
 40
1.0
 40
1.0
 40
1.0
 40
1.0
 10
146.9834883730635
 20
-38.72954606602341
 30
0.0
 10
146.9806000303813
 20
-38.85742088593502
 30
0.0
 10
146.9749866261348
 20
-39.1059416246764
 30
0.0
 10
146.927025725499
 20
-39.46762654990111
 30
0.0
 10
146.8461449517162
 20
-39.80520456773519
 30
0.0
 10
146.7546215166735
 20
-40.07025239150681
 30
0.0
 10
146.6622665152806
 20
-40.26589670524643
 30
0.0
 10
146.5901874724236
 20
-40.40488477223533
 30
0.0
 10
146.506855034584
 20
-40.53389354483838
 30
0.0
 10
146.4166760941654
 20
-40.65408540447019
 30
0.0
 10
146.3196892172653
 20
-40.76656931550701
 30
0.0
 10
146.213601359902
 20
-40.86848239158763
 30
0.0
 10
146.1019794759785
 20
-40.96414351835396
 30
0.0
 10
145.942128648539
 20
-41.07682638997444
 30
0.0
 10
145.7289332701254
 20
-41.19565012551603
 30
0.0
 10
145.4557130094409
 20
-41.30392325512161
 30
0.0
 10
145.164775709738
 20
-41.37248118076725
 30
0.0
 10
144.9646475652089
 20
-41.38809617476819
 30
0.0
 10
144.8629790998931
 20
-41.39602885450061
 30
0.0
  0
LINE
  5
FE
330
1F
100
AcDbEntity
  8
0
  6
Continuous
 62
     7
370
    25
100
AcDbLine
 10
144.8629790999
 20
-41.3960288545
 30
0.0
 11
144.8629790999
 21
-40.3818722456
 31
0.0
  0
SPLINE
  5
FF
330
1F
100
AcDbEntity
  8
0
  6
Continuous
 62
     7
370
    25
100
AcDbSpline
210
0.0
220
0.0
230
1.0
 70
     8
 71
     3
 72
    23
 73
    19
 74
     0
 42
0.000000001
 43
0.00000001
 40
0.0
 40
0.0
 40
0.0
 40
0.0
 40
0.0671623272160654
 40
0.131551931013183
 40
0.1927004949743815
 40
0.2512273599864364
 40
0.3076841970531357
 40
0.3630386401042349
 40
0.4177188602638111
 40
0.472250482979663
 40
0.5278243731306199
 40
0.585187619067686
 40
0.6450203194062429
 40
0.7079225244757793
 40
0.7744112310571091
 40
0.8449245924189537
 40
0.9203954638965623
 40
1.0
 40
1.0
 40
1.0
 40
1.0
 10
144.8629790998931
 20
-40.38187224559302
 30
0.0
 10
144.9145251524568
 20
-40.37564059066199
 30
0.0
 10
145.0154892350301
 20
-40.36343454787632
 30
0.0
 10
145.160585876863
 20
-40.32918133897137
 30
0.0
 10
145.2968953348213
 20
-40.28824581098824
 30
0.0
 10
145.4227774962251
 20
-40.23606218744539
 30
0.0
 10
145.5393798871618
 20
-40.17441857905443
 30
0.0
 10
145.6444062761335
 20
-40.0997432807343
 30
0.0
 10
145.7419116826858
 20
-40.0178965785572
 30
0.0
 10
145.8292091467694
 20
-39.92478426435845
 30
0.0
 10
145.9058922710896
 20
-39.82023402512339
 30
0.0
 10
145.9723224557131
 20
-39.70417021500496
 30
0.0
 10
146.0284774653913
 20
-39.57662987782655
 30
0.0
 10
146.0744599970737
 20
-39.43765963866449
 30
0.0
 10
146.1101158994737
 20
-39.28725081185288
 30
0.0
 10
146.1363442640807
 20
-39.1250558406673
 30
0.0
 10
146.1497771658722
 20
-38.95113900266252
 30
0.0
 10
146.1523851326897
 20
-38.83136511871595
 30
0.0
 10
146.1537238748664
 20
-38.76988184024133
 30
0.0
  0
SPLINE
  5
100
330
1F
100
AcDbEntity
  8
0
  6
Continuous
 62
     7
370
    25
100
AcDbSpline
210
0.0
220
0.0
230
1.0
 70
     8
 71
     3
 72
    23
 73
    19
 74
     0
 42
0.000000001
 43
0.00000001
 40
0.0
 40
0.0
 40
0.0
 40
0.0
 40
0.0915402491795618
 40
0.1771994092101602
 40
0.2571905613614162
 40
0.3313041270694945
 40
0.4007201746539636
 40
0.4651409511236422
 40
0.526509066779039
 40
0.5849973562890061
 40
0.6409706111787796
 40
0.6950858833269566
 40
0.7464402754021272
 40
0.7969674410206967
 40
0.8473115451001805
 40
0.8974058009670717
 40
0.9476322069754195
 40
1.0
 40
1.0
 40
1.0
 40
1.0
 10
146.1537238748664
 20
-38.76988184024133
 30
0.0
 10
146.1532426959188
 20
-38.70597262293539
 30
0.0
 10
146.1523112518164
 20
-38.58226009591919
 30
0.0
 10
146.1353059958672
 20
-38.40342324798235
 30
0.0
 10
146.1120089519755
 20
-38.23765149167479
 30
0.0
 10
146.0775240046025
 20
-38.08528779307802
 30
0.0
 10
146.0329088048202
 20
-37.94705556250478
 30
0.0
 10
145.9801754426175
 20
-37.82111272297463
 30
0.0
 10
145.9146642357654
 20
-37.71008122216187
 30
0.0
 10
145.8413493063266
 20
-37.61130869485645
 30
0.0
 10
145.7594383730217
 20
-37.5266112480284
 30
0.0
 10
145.6755102155996
 20
-37.45115902386402
 30
0.0
 10
145.5859902007506
 20
-37.38891372298382
 30
0.0
 10
145.4938465688832
 20
-37.335456359196
 30
0.0
 10
145.3951262123397
 20
-37.2977697403348
 30
0.0
 10
145.2941196881466
 20
-37.26827382119674
 30
0.0
 10
145.188699932889
 20
-37.25031939180356
 30
0.0
 10
145.1170678010967
 20
-37.24825837903786
 30
0.0
 10
145.0805041679969
 20
-37.24720636351503
 30
0.0
  0
SPLINE
  5
101
330
1F
100
AcDbEntity
  8
0
  6
Continuous
 62
     7
370
    25
100
AcDbSpline
210
0.0
220
0.0
230
1.0
 70
     8
 71
     3
 72
    11
 73
     7
 74
     0
 42
0.000000001
 43
0.00000001
 40
0.0
 40
0.0
 40
0.0
 40
0.0
 40
0.2627412305282681
 40
0.5099565029432453
 40
0.7533267184204533
 40
0.9999999999999999
 40
0.9999999999999999
 40
0.9999999999999999
 40
0.9999999999999999
 10
145.0805041679969
 20
-37.24720636351503
 30
0.0
 10
145.0186334498344
 20
-37.24982718290757
 30
0.0
 10
144.8985480905428
 20
-37.25491395170126
 30
0.0
 10
144.727942993711
 20
-37.30685729838169
 30
0.0
 10
144.5724253938546
 20
-37.38674652899811
 30
0.0
 10
144.4878090619738
 20
-37.46545015016368
 30
0.0
 10
144.4452157240647
 20
-37.5050672058367
 30
0.0
  0
SPLINE
  5
102
330
1F
100
AcDbEntity
  8
0
  6
Continuous
 62
     7
370
    25
100
AcDbSpline
210
0.0
220
0.0
230
1.0
 70
     8
 71
     3
 72
    23
 73
    19
 74
     0
 42
0.000000001
 43
0.00000001
 40
0.0
 40
0.0
 40
0.0
 40
0.0
 40
0.0327432285933737
 40
0.0724096284093032
 40
0.1196115236461666
 40
0.1746729704771928
 40
0.2373451653072262
 40
0.3083525144271052
 40
0.3876301704355163
 40
0.4752486515278144
 40
0.5633321777983322
 40
0.6451361045263612
 40
0.7202024381750486
 40
0.7891340895998021
 40
0.851497026573293
 40
0.9073305751045083
 40
0.956968668724313
 40
1.0
 40
1.0
 40
1.0
 40
1.0
 10
144.4452157240647
 20
-37.5050672058367
 30
0.0
 10
144.4239296078016
 20
-37.53004137430543
 30
0.0
 10
144.3768566759284
 20
-37.5852702059246
 30
0.0
 10
144.314561257216
 20
-37.68803198619911
 30
0.0
 10
144.2516191809983
 20
-37.81544122270891
 30
0.0
 10
144.1890522226363
 20
-37.9683499639913
 30
0.0
 10
144.1260877596861
 20
-38.14649180971021
 30
0.0
 10
144.0613065318519
 20
-38.34959437911104
 30
0.0
 10
143.996627981609
 20
-38.57881284953816
 30
0.0
 10
143.9353376611823
 20
-38.82656670018642
 30
0.0
 10
143.8723017486647
 20
-39.07647453044333
 30
0.0
 10
143.8105492375202
 20
-39.31374601635031
 30
0.0
 10
143.7516982463406
 20
-39.53196205305084
 30
0.0
 10
143.6943507172493
 20
-39.73039604984189
 30
0.0
 10
143.6386033865701
 20
-39.90923684957471
 30
0.0
 10
143.5833036031169
 20
-40.06786677388786
 30
0.0
 10
143.5324412267026
 20
-40.20756831196047
 30
0.0
 10
143.4966554872726
 20
-40.29315202972025
 30
0.0
 10
143.4800382695646
 20
-40.33289309118555
 30
0.0
  0
SPLINE
  5
103
330
1F
100
AcDbEntity
  8
0
  6
Continuous
 62
     7
370
    25
100
AcDbSpline
210
0.0
220
0.0
230
1.0
 70
     8
 71
     3
 72
    19
 73
    15
 74
     0
 42
0.000000001
 43
0.00000001
 40
0.0
 40
0.0
 40
0.0
 40
0.0
 40
0.0749447742392497
 40
0.1471040323661774
 40
0.2164033458220652
 40
0.2825535083353231
 40
0.3472370153930532
 40
0.4093960302398512
 40
0.4694118287908618
 40
0.5289729556527909
 40
0.6445731037095583
 40
0.7598754644592415
 40
0.8776952064463225
 40
1.0
 40
1.0
 40
1.0
 40
1.0
 10
143.4800382695646
 20
-40.33289309118555
 30
0.0
 10
143.456200665279
 20
-40.38459963731894
 30
0.0
 10
143.4094114428422
 20
-40.48609092224383
 30
0.0
 10
143.3294947270334
 20
-40.62984309188356
 30
0.0
 10
143.2466215941909
 20
-40.76406912462576
 30
0.0
 10
143.1578217327342
 20
-40.88757413146951
 30
0.0
 10
143.0649225937955
 20
-41.00107995084346
 30
0.0
 10
142.9668613211475
 20
-41.10389570136871
 30
0.0
 10
142.8633279916546
 20
-41.19538515556641
 30
0.0
 10
142.7212894121179
 20
-41.30390877717549
 30
0.0
 10
142.52950069737
 20
-41.41518134503539
 30
0.0
 10
142.2816578356311
 20
-41.51080243358945
 30
0.0
 10
142.0168503146133
 20
-41.57061154624262
 30
0.0
 10
141.8342723619956
 20
-41.57711069513769
 30
0.0
 10
141.7412782880995
 20
-41.58042096521108
 30
0.0
  0
SPLINE
  5
104
330
1F
100
AcDbEntity
  8
0
  6
Continuous
 62
     7
370
    25
100
AcDbSpline
210
0.0
220
0.0
230
1.0
 70
     8
 71
     3
 72
    31
 73
    27
 74
     0
 42
0.000000001
 43
0.00000001
 40
0.0
 40
0.0
 40
0.0
 40
0.0
 40
0.0508529877739493
 40
0.0997551591409457
 40
0.1474416256593689
 40
0.1940910203865062
 40
0.2391773799396051
 40
0.2833474667820884
 40
0.3265859608079044
 40
0.3689462354375626
 40
0.4105829499515149
 40
0.4510627628848982
 40
0.4908901068991279
 40
0.5302704741980252
 40
0.5689310352099183
 40
0.6075732765741184
 40
0.6464165588608529
 40
0.6856768729353463
 40
0.7247971620499746
 40
0.7635126299932941
 40
0.8021731910051882
 40
0.8410696053101157
 40
0.8796461298287734
 40
0.9190684293834047
 40
0.9590967586734684
 40
1.0
 40
1.0
 40
1.0
 40
1.0
 10
143.2913244687593
 20
-9.68058581229974
 30
0.0
 10
143.3624251520898
 20
-9.679973491998036
 30
0.0
 10
143.5018989626
 20
-9.678772341154877
 30
0.0
 10
143.7074849503815
 20
-9.66286506439965
 30
0.0
 10
143.9066760551419
 20
-9.642346742752435
 30
0.0
 10
144.0992151640036
 20
-9.611107187504146
 30
0.0
 10
144.2843052335202
 20
-9.568055435229127
 30
0.0
 10
144.4633542602982
 20
-9.520360321013195
 30
0.0
 10
144.6348232524378
 20
-9.460723283810744
 30
0.0
 10
144.7993703018807
 20
-9.393042489610739
 30
0.0
 10
144.956202524553
 20
-9.317360319126784
 30
0.0
 10
145.1038106989527
 20
-9.231814905897807
 30
0.0
 10
145.2425443916313
 20
-9.138069923185366
 30
0.0
 10
145.3720167807479
 20
-9.035938503417025
 30
0.0
 10
145.4924983672825
 20
-8.925780008346182
 30
0.0
 10
145.6036997612144
 20
-8.807282132978143
 30
0.0
 10
145.7062720527146
 20
-8.680155084739594
 30
0.0
 10
145.7993275044197
 20
-8.54513514435105
 30
0.0
 10
145.8831477105701
 20
-8.404352342097674
 30
0.0
 10
145.954806581046
 20
-8.258012948736518
 30
0.0
 10
146.0181959630449
 20
-8.10814474058134
 30
0.0
 10
146.065615012145
 20
-7.952681797633291
 30
0.0
 10
146.1053438795937
 20
-7.794141200835861
 30
0.0
 10
146.1346175517286
 20
-7.631591409455557
 30
0.0
 10
146.1499980255704
 20
-7.463860061052632
 30
0.0
 10
146.1524730064941
 20
-7.350742517765604
 30
0.0
 10
146.1537238748664
 20
-7.293572316618109
 30
0.0
  0
SPLINE
  5
105
330
1F
100
AcDbEntity
  8
0
  6
Continuous
 62
     7
370
    25
100
AcDbSpline
210
0.0
220
0.0
230
1.0
 70
     8
 71
     3
 72
    23
 73
    19
 74
     0
 42
0.000000001
 43
0.00000001
 40
0.0
 40
0.0
 40
0.0
 40
0.0
 40
0.0559418740314488
 40
0.1107089662900212
 40
0.1640498084891403
 40
0.2167602405684339
 40
0.2696007081305831
 40
0.323293161084031
 40
0.3775954548204905
 40
0.4334620902246583
 40
0.4909333178132604
 40
0.5506348866735277
 40
0.6131255813639479
 40
0.6798679529470439
 40
0.7513633411597807
 40
0.8282649672413998
 40
0.91079704014207
 40
1.0
 40
1.0
 40
1.0
 40
1.0
 10
146.1537238748664
 20
-7.293572316618108
 30
0.0
 10
146.1520779946083
 20
-7.212778490116174
 30
0.0
 10
146.1488207976486
 20
-7.052887510961348
 30
0.0
 10
146.1141280552339
 20
-6.818088130434973
 30
0.0
 10
146.0608779555735
 20
-6.591965799628029
 30
0.0
 10
145.9877560360659
 20
-6.374110972564481
 30
0.0
 10
145.8897989341586
 20
-6.165720827957053
 30
0.0
 10
145.771818285939
 20
-5.965413325525796
 30
0.0
 10
145.632145803567
 20
-5.774112058036314
 30
0.0
 10
145.4724677696682
 20
-5.591935998942967
 30
0.0
 10
145.2881717750982
 20
-5.422171446900925
 30
0.0
 10
145.0710556397932
 20
-5.27856496615479
 30
0.0
 10
144.8261192307254
 20
-5.157554336543908
 30
0.0
 10
144.5540358203203
 20
-5.056505560808135
 30
0.0
 10
144.2526830679244
 20
-4.979460811190953
 30
0.0
 10
143.9233623224952
 20
-4.926212707514869
 30
0.0
 10
143.5657252273861
 20
-4.892593092930441
 30
0.0
 10
143.3178146736703
 20
-4.888511172984503
 30
0.0
 10
143.1890444698496
 20
-4.886390933827518
 30
0.0
  0
SPLINE
  5
106
330
1F
100
AcDbEntity
  8
0
  6
Continuous
 62
     7
370
    25
100
AcDbSpline
210
0.0
220
0.0
230
1.0
 70
     8
 71
     3
 72
    23
 73
    19
 74
     0
 42
0.000000001
 43
0.00000001
 40
0.0
 40
0.0
 40
0.0
 40
0.0
 40
0.0759760013778282
 40
0.1481478407297674
 40
0.2172337747939324
 40
0.2833431655068669
 40
0.3472548812513591
 40
0.4095240071566297
 40
0.470659415698187
 40
0.5318312023373047
 40
0.591991495477476
 40
0.6505190018595169
 40
0.7075730075804307
 40
0.764172461786214
 40
0.8211202236130735
 40
0.8791003552029316
 40
0.9384134163756576
 40
1.0
 40
1.0
 40
1.0
 40
1.0
 10
143.1890444698496
 20
-4.886390933827518
 30
0.0
 10
143.0852219706313
 20
-4.887944200489137
 30
0.0
 10
142.8827754243612
 20
-4.89097296085851
 30
0.0
 10
142.5876267664272
 20
-4.925655462968206
 30
0.0
 10
142.3091104673795
 20
-4.978218733938744
 30
0.0
 10
142.0465752103989
 20
-5.050883676999518
 30
0.0
 10
141.8019509554705
 20
-5.14790023802197
 30
0.0
 10
141.5747679511806
 20
-5.266514416744548
 30
0.0
 10
141.3639524048068
 20
-5.405651782380321
 30
0.0
 10
141.1718934166879
 20
-5.565239121974377
 30
0.0
 10
140.9993026691334
 20
-5.740590432914729
 30
0.0
 10
140.8484878934647
 20
-5.927974178408905
 30
0.0
 10
140.7227286794042
 20
-6.127216276680341
 30
0.0
 10
140.6176871004677
 20
-6.335678790827983
 30
0.0
 10
140.5367529490248
 20
-6.556125665628116
 30
0.0
 10
140.4795397541138
 20
-6.787500749543517
 30
0.0
 10
140.4438278076766
 20
-7.029799503674132
 30
0.0
 10
140.4396808920889
 20
-7.195008701439769
 30
0.0
 10
140.4375684428418
 20
-7.279166682968851
 30
0.0
  0
SPLINE
  5
107
330
1F
100
AcDbEntity
  8
0
  6
Continuous
 62
     7
370
    25
100
AcDbSpline
210
0.0
220
0.0
230
1.0
 70
     8
 71
     3
 72
    23
 73
    19
 74
     0
 42
0.000000001
 43
0.00000001
 40
0.0
 40
0.0
 40
0.0
 40
0.0
 40
0.0610568331758596
 40
0.1195491072443124
 40
0.1768119204410528
 40
0.2329638143038563
 40
0.2885925718320198
 40
0.3446775085759246
 40
0.401674151352181
 40
0.4605545907654037
 40
0.5204934420294764
 40
0.5812311564527343
 40
0.6434510088516416
 40
0.707862032340736
 40
0.7753636743240264
 40
0.8464088438329554
 40
0.9211494057946958
 40
1.0
 40
1.0
 40
1.0
 40
1.0
 10
140.4375684428418
 20
-7.279166682968851
 30
0.0
 10
140.4397106117829
 20
-7.364751903662829
 30
0.0
 10
140.443904972531
 20
-7.53232752452418
 30
0.0
 10
140.4790144674862
 20
-7.778268523071132
 30
0.0
 10
140.5387868775392
 20
-8.011940023693478
 30
0.0
 10
140.6183575244958
 20
-8.235658031146185
 30
0.0
 10
140.7259233671884
 20
-8.445378296586286
 30
0.0
 10
140.8518827694545
 20
-8.646004235406775
 30
0.0
 10
141.0058000480139
 20
-8.83207183369899
 30
0.0
 10
141.1787011153838
 20
-9.008128732290176
 30
0.0
 10
141.3752128770979
 20
-9.166098944599844
 30
0.0
 10
141.5905977479743
 20
-9.306038802988185
 30
0.0
 10
141.8275322922462
 20
-9.42050036886908
 30
0.0
 10
142.0826090394929
 20
-9.515981830722541
 30
0.0
 10
142.3574287436946
 20
-9.590879144155219
 30
0.0
 10
142.6519889926219
 20
-9.643239378478308
 30
0.0
 10
142.965513323394
 20
-9.675529507731898
 30
0.0
 10
143.1808004240487
 20
-9.678870575604876
 30
0.0
 10
143.2913244687593
 20
-9.68058581229974
 30
0.0
  0
LINE
  5
108
330
1F
100
AcDbEntity
  8
0
  6
Continuous
 62
     7
370
    25
100
AcDbLine
 10
146.0615278195
 20
9.7497328538
 30
0.0
 11
146.0615278195
 21
11.8932911408
 31
0.0
  0
LINE
  5
109
330
1F
100
AcDbEntity
  8
0
  6
Continuous
 62
     7
370
    25
100
AcDbLine
 10
146.0615278195
 20
11.8932911408
 30
0.0
 11
143.7566264356
 21
11.8932911408
 31
0.0
  0
LINE
  5
10A
330
1F
100
AcDbEntity
  8
0
  6
Continuous
 62
     7
370
    25
100
AcDbLine
 10
143.7566264356
 20
11.8932911408
 30
0.0
 11
143.7566264356
 21
9.9672579219
 31
0.0
  0
SPLINE
  5
10B
330
1F
100
AcDbEntity
  8
0
  6
Continuous
 62
     7
370
    25
100
AcDbSpline
210
0.0
220
0.0
230
1.0
 70
     8
 71
     3
 72
    19
 73
    15
 74
     0
 42
0.000000001
 43
0.00000001
 40
0.0
 40
0.0
 40
0.0
 40
0.0
 40
0.1288172496139552
 40
0.2408117658933643
 40
0.337931349626573
 40
0.4205906408775361
 40
0.4945039292430392
 40
0.565998630869722
 40
0.6371279226505394
 40
0.7094472666673779
 40
0.7822163217272263
 40
0.8543339456778168
 40
0.9261950543250448
 40
1.0
 40
1.0
 40
1.0
 40
1.0
 10
143.7566264356303
 20
9.967257921919801
 30
0.0
 10
143.7581435558563
 20
9.870680588221573
 30
0.0
 10
143.7609796698223
 20
9.690138321228293
 30
0.0
 10
143.7850272094057
 20
9.43765988690919
 30
0.0
 10
143.8236605486623
 20
9.222100976818169
 30
0.0
 10
143.8791073509656
 20
9.039438161318133
 30
0.0
 10
143.9564349366713
 20
8.886057448140322
 30
0.0
 10
144.0525116361571
 20
8.754288984066878
 30
0.0
 10
144.1694111566613
 20
8.642191055893553
 30
0.0
 10
144.3038302513766
 20
8.55057616780055
 30
0.0
 10
144.450495495778
 20
8.478417995369284
 30
0.0
 10
144.6056472629333
 20
8.429158457626519
 30
0.0
 10
144.7659292436017
 20
8.394839628898339
 30
0.0
 10
144.8752803886878
 20
8.391521991891754
 30
0.0
 10
144.9306855780446
 20
8.389841037326327
 30
0.0
  0
SPLINE
  5
10C
330
1F
100
AcDbEntity
  8
0
  6
Continuous
 62
     7
370
    25
100
AcDbSpline
210
0.0
220
0.0
230
1.0
 70
     8
 71
     3
 72
    23
 73
    19
 74
     0
 42
0.000000001
 43
0.00000001
 40
0.0
 40
0.0
 40
0.0
 40
0.0
 40
0.0603255293380414
 40
0.1181599905080007
 40
0.1741866762963799
 40
0.2295388181458032
 40
0.2834498146386362
 40
0.337826511950594
 40
0.3926321025334915
 40
0.4484655764151896
 40
0.5059654091573064
 40
0.565058532229009
 40
0.6266544786228446
 40
0.6922320330373651
 40
0.7611310781257619
 40
0.8353098773394203
 40
0.9153255598322017
 40
1.0
 40
1.0
 40
1.0
 40
1.0
 10
144.9306855780446
 20
8.38984103732633
 30
0.0
 10
144.9710513489449
 20
8.39117953396438
 30
0.0
 10
145.0501160361308
 20
8.393801255676273
 30
0.0
 10
145.1661610455016
 20
8.40754518797819
 30
0.0
 10
145.2764306272099
 20
8.434266655460151
 30
0.0
 10
145.3815076786587
 20
8.469552287698187
 30
0.0
 10
145.4806225855671
 20
8.516701052680588
 30
0.0
 10
145.5745433788913
 20
8.572711861998059
 30
0.0
 10
145.6627495116767
 20
8.639550048713849
 30
0.0
 10
145.7455096733216
 20
8.716109345770503
 30
0.0
 10
145.8208133325117
 20
8.804013331772637
 30
0.0
 10
145.8857840574379
 20
8.904420349544193
 30
0.0
 10
145.9409951573292
 20
9.016538494834398
 30
0.0
 10
145.9848143770027
 20
9.140498086743472
 30
0.0
 10
146.019862619848
 20
9.275908629908086
 30
0.0
 10
146.0431790853705
 20
9.423540986717894
 30
0.0
 10
146.0600508021079
 20
9.582720002878315
 30
0.0
 10
146.0610262822425
 20
9.693021830029908
 30
0.0
 10
146.0615278195112
 20
9.749732853816045
 30
0.0
  0
SPLINE
  5
10D
330
1F
100
AcDbEntity
  8
0
  6
Continuous
 62
     7
370
    25
100
AcDbSpline
210
0.0
220
0.0
230
1.0
 70
     8
 71
     3
 72
    11
 73
     7
 74
     0
 42
0.000000001
 43
0.00000001
 40
0.0
 40
0.0
 40
0.0
 40
0.0
 40
0.2472940500353277
 40
0.4956077709090575
 40
0.7463591727731962
 40
1.0
 40
1.0
 40
1.0
 40
1.0
 10
146.0615278195112
 20
29.82542390741848
 30
0.0
 10
145.9476903689459
 20
29.85292967783698
 30
0.0
 10
145.7195460803446
 20
29.90805463358218
 30
0.0
 10
145.3852840915513
 20
30.02347286960773
 30
0.0
 10
145.0540790795199
 20
30.15550732298547
 30
0.0
 10
144.8406528306708
 20
30.26273503189774
 30
0.0
 10
144.7333283970498
 20
30.31665601485809
 30
0.0
  0
LINE
  5
10E
330
1F
100
AcDbEntity
  8
0
  6
Continuous
 62
     7
370
    25
100
AcDbLine
 10
144.733328397
 20
30.3166560149
 30
0.0
 11
142.7424698267
 21
31.0527838943
 31
0.0
  0
LINE
  5
10F
330
1F
100
AcDbEntity
  8
0
  6
Continuous
 62
     7
370
    25
100
AcDbLine
 10
142.7424698267
 20
31.0527838943
 30
0.0
 11
142.7424698267
 21
28.5980639205
 31
0.0
  0
LINE
  5
110
330
1F
100
AcDbEntity
  8
0
  6
Continuous
 62
     7
370
    25
100
AcDbLine
 10
142.7424698267
 20
28.5980639205
 30
0.0
 11
144.6324889615
 21
29.2967371525
 31
0.0
  0
SPLINE
  5
111
330
1F
100
AcDbEntity
  8
0
  6
Continuous
 62
     7
370
    25
100
AcDbSpline
210
0.0
220
0.0
230
1.0
 70
     8
 71
     3
 72
    15
 73
    11
 74
     0
 42
0.000000001
 43
0.00000001
 40
0.0
 40
0.0
 40
0.0
 40
0.0
 40
0.1531481085926257
 40
0.2994334688329109
 40
0.4364263514567435
 40
0.5656705729563533
 40
0.6865083102878686
 40
0.7992685160629989
 40
0.9033947408013497
 40
1.0
 40
1.0
 40
1.0
 40
1.0
 10
144.632488961505
 20
29.29673715249081
 30
0.0
 10
144.7055167251989
 20
29.32352178974145
 30
0.0
 10
144.8482997918976
 20
29.37589081288575
 30
0.0
 10
145.0557515344506
 20
29.45398880382341
 30
0.0
 10
145.2527562238936
 20
29.52533786984405
 30
0.0
 10
145.4364890951619
 20
29.59530148811011
 30
0.0
 10
145.6096190528852
 20
29.65845889598368
 30
0.0
 10
145.7709766826163
 20
29.71667269767713
 30
0.0
 10
145.9194404715912
 20
29.77424565636056
 30
0.0
 10
146.0153633766982
 20
29.80879599874952
 30
0.0
 10
146.0615278195112
 20
29.82542390741848
 30
0.0
  0
ENDSEC
  0
SECTION
  2
OBJECTS
  0
DICTIONARY
  5
C
330
0
100
AcDbDictionary
281
     1
  3
ACAD_GROUP
350
D
  3
ACAD_LAYOUT
350
1A
  3
ACAD_MLINESTYLE
350
17
  3
ACAD_PLOTSETTINGS
350
19
  3
ACAD_PLOTSTYLENAME
350
E
  3
ACAD_SCALELIST
350
47
  0
DICTIONARY
  5
D
102
{ACAD_REACTORS
330
C
102
}
330
C
100
AcDbDictionary
281
     1
  0
DICTIONARY
  5
1A
102
{ACAD_REACTORS
330
C
102
}
330
C
100
AcDbDictionary
281
     1
  3
Layout1
350
1E
  3
Layout2
350
26
  3
Model
350
22
  0
DICTIONARY
  5
17
102
{ACAD_REACTORS
330
C
102
}
330
C
100
AcDbDictionary
281
     1
  3
Standard
350
18
  0
DICTIONARY
  5
19
102
{ACAD_REACTORS
330
C
102
}
330
C
100
AcDbDictionary
281
     1
  0
ACDBDICTIONARYWDFLT
  5
E
102
{ACAD_REACTORS
330
C
102
}
330
C
100
AcDbDictionary
281
     1
  3
Normal
350
F
100
AcDbDictionaryWithDefault
340
F
  0
DICTIONARY
  5
47
102
{ACAD_REACTORS
330
C
102
}
330
C
100
AcDbDictionary
281
     1
  3
A0
350
48
  3
A1
350
49
  3
A2
350
4A
  3
A3
350
4B
  3
A4
350
4C
  3
A5
350
4D
  3
A6
350
4E
  3
A7
350
4F
  3
A8
350
50
  3
A9
350
51
  3
B0
350
52
  3
B1
350
53
  3
B2
350
54
  3
B3
350
55
  3
B4
350
56
  3
B5
350
57
  3
B6
350
58
  3
B7
350
59
  3
B8
350
5A
  3
B9
350
5B
  3
C0
350
5C
  3
C1
350
5D
  3
C2
350
5E
  3
C3
350
5F
  3
C4
350
60
  3
C5
350
61
  3
C6
350
62
  3
C7
350
63
  3
C8
350
64
  3
C9
350
65
  3
D0
350
66
  3
D1
350
67
  3
D2
350
68
  0
LAYOUT
  5
1E
102
{ACAD_REACTORS
330
1A
102
}
330
1A
100
AcDbPlotSettings
  1

  2
none_device
  4

  6

 40
0.0
 41
0.0
 42
0.0
 43
0.0
 44
0.0
 45
0.0
 46
0.0
 47
0.0
 48
0.0
 49
0.0
140
0.0
141
0.0
142
1.0
143
1.0
 70
   688
 72
     1
 73
     0
 74
     5
  7

 75
    16
147
1.0
148
0.0
149
0.0
100
AcDbLayout
  1
Layout1
 70
     1
 71
     1
 10
0.0
 20
0.0
 11
420.0
 21
297.0
 12
0.0
 22
0.0
 32
0.0
 14
1.0000000000E+20
 24
1.0000000000E+20
 34
1.0000000000E+20
 15
-1.0000000000E+20
 25
-1.0000000000E+20
 35
-1.0000000000E+20
146
0.0
 13
0.0
 23
0.0
 33
0.0
 16
1.0
 26
0.0
 36
0.0
 17
0.0
 27
1.0
 37
0.0
 76
     0
330
1B
  0
LAYOUT
  5
26
102
{ACAD_REACTORS
330
1A
102
}
330
1A
100
AcDbPlotSettings
  1

  2
none_device
  4

  6

 40
0.0
 41
0.0
 42
0.0
 43
0.0
 44
0.0
 45
0.0
 46
0.0
 47
0.0
 48
0.0
 49
0.0
140
0.0
141
0.0
142
1.0
143
1.0
 70
   688
 72
     1
 73
     0
 74
     5
  7

 75
    16
147
1.0
148
0.0
149
0.0
100
AcDbLayout
  1
Layout2
 70
     1
 71
     2
 10
0.0
 20
0.0
 11
0.0
 21
0.0
 12
0.0
 22
0.0
 32
0.0
 14
0.0
 24
0.0
 34
0.0
 15
0.0
 25
0.0
 35
0.0
146
0.0
 13
0.0
 23
0.0
 33
0.0
 16
1.0
 26
0.0
 36
0.0
 17
0.0
 27
1.0
 37
0.0
 76
     0
330
23
  0
LAYOUT
  5
22
102
{ACAD_REACTORS
330
1A
102
}
330
1A
100
AcDbPlotSettings
  1

  2
none_device
  4
ANSI_A_(11.00_x_8.50_Inches)
  6

 40
6.35
 41
19.05
 42
6.35000508
 43
19.05000254
 44
279.4
 45
215.9
 46
133.34999746
 47
88.89999873
 48
0.0
 49
0.0
140
0.0
141
0.0
142
0.0357283465
143
1.0
 70
  1696
 72
     0
 73
     0
 74
     0
  7

 75
     0
147
0.0179189148
148
-1300.4909072572
149
0.0
100
AcDbLayout
  1
Model
 70
     1
 71
     0
 10
0.0
 20
0.0
 11
420.0
 21
297.0
 12
0.0
 22
0.0
 32
0.0
 14
-152.4
 24
-88.9
 34
0.0
 15
152.4
 25
88.9
 35
0.0
146
0.0
 13
0.0
 23
0.0
 33
0.0
 16
1.0
 26
0.0
 36
0.0
 17
0.0
 27
1.0
 37
0.0
 76
     0
330
1F
331
29
  0
MLINESTYLE
  5
18
102
{ACAD_REACTORS
330
17
102
}
330
17
100
AcDbMlineStyle
  2
Standard
 70
     0
  3

 62
   256
 51
90.0
 52
90.0
 71
     2
 49
0.5
 62
   256
  6
BYLAYER
 49
-0.5
 62
   256
  6
BYLAYER
  0
ACDBPLACEHOLDER
  5
F
102
{ACAD_REACTORS
330
E
102
}
330
E
  0
SCALE
  5
48
102
{ACAD_REACTORS
330
47
102
}
330
47
100
AcDbScale
 70
     0
300
1:1
140
1.0
141
1.0
290
     1
  0
SCALE
  5
49
102
{ACAD_REACTORS
330
47
102
}
330
47
100
AcDbScale
 70
     0
300
1:2
140
1.0
141
2.0
290
     0
  0
SCALE
  5
4A
102
{ACAD_REACTORS
330
47
102
}
330
47
100
AcDbScale
 70
     0
300
1:4
140
1.0
141
4.0
290
     0
  0
SCALE
  5
4B
102
{ACAD_REACTORS
330
47
102
}
330
47
100
AcDbScale
 70
     0
300
1:5
140
1.0
141
5.0
290
     0
  0
SCALE
  5
4C
102
{ACAD_REACTORS
330
47
102
}
330
47
100
AcDbScale
 70
     0
300
1:8
140
1.0
141
8.0
290
     0
  0
SCALE
  5
4D
102
{ACAD_REACTORS
330
47
102
}
330
47
100
AcDbScale
 70
     0
300
1:10
140
1.0
141
10.0
290
     0
  0
SCALE
  5
4E
102
{ACAD_REACTORS
330
47
102
}
330
47
100
AcDbScale
 70
     0
300
1:16
140
1.0
141
16.0
290
     0
  0
SCALE
  5
4F
102
{ACAD_REACTORS
330
47
102
}
330
47
100
AcDbScale
 70
     0
300
1:20
140
1.0
141
20.0
290
     0
  0
SCALE
  5
50
102
{ACAD_REACTORS
330
47
102
}
330
47
100
AcDbScale
 70
     0
300
1:30
140
1.0
141
30.0
290
     0
  0
SCALE
  5
51
102
{ACAD_REACTORS
330
47
102
}
330
47
100
AcDbScale
 70
     0
300
1:40
140
1.0
141
40.0
290
     0
  0
SCALE
  5
52
102
{ACAD_REACTORS
330
47
102
}
330
47
100
AcDbScale
 70
     0
300
1:50
140
1.0
141
50.0
290
     0
  0
SCALE
  5
53
102
{ACAD_REACTORS
330
47
102
}
330
47
100
AcDbScale
 70
     0
300
1:100
140
1.0
141
100.0
290
     0
  0
SCALE
  5
54
102
{ACAD_REACTORS
330
47
102
}
330
47
100
AcDbScale
 70
     0
300
2:1
140
2.0
141
1.0
290
     0
  0
SCALE
  5
55
102
{ACAD_REACTORS
330
47
102
}
330
47
100
AcDbScale
 70
     0
300
4:1
140
4.0
141
1.0
290
     0
  0
SCALE
  5
56
102
{ACAD_REACTORS
330
47
102
}
330
47
100
AcDbScale
 70
     0
300
8:1
140
8.0
141
1.0
290
     0
  0
SCALE
  5
57
102
{ACAD_REACTORS
330
47
102
}
330
47
100
AcDbScale
 70
     0
300
10:1
140
10.0
141
1.0
290
     0
  0
SCALE
  5
58
102
{ACAD_REACTORS
330
47
102
}
330
47
100
AcDbScale
 70
     0
300
100:1
140
100.0
141
1.0
290
     0
  0
SCALE
  5
59
102
{ACAD_REACTORS
330
47
102
}
330
47
100
AcDbScale
 70
     0
300
1/128" = 1'-0"
140
0.0078125
141
12.0
290
     0
  0
SCALE
  5
5A
102
{ACAD_REACTORS
330
47
102
}
330
47
100
AcDbScale
 70
     0
300
1/64" = 1'-0"
140
0.015625
141
12.0
290
     0
  0
SCALE
  5
5B
102
{ACAD_REACTORS
330
47
102
}
330
47
100
AcDbScale
 70
     0
300
1/32" = 1'-0"
140
0.03125
141
12.0
290
     0
  0
SCALE
  5
5C
102
{ACAD_REACTORS
330
47
102
}
330
47
100
AcDbScale
 70
     0
300
1/16" = 1'-0"
140
0.0625
141
12.0
290
     0
  0
SCALE
  5
5D
102
{ACAD_REACTORS
330
47
102
}
330
47
100
AcDbScale
 70
     0
300
3/32" = 1'-0"
140
0.09375
141
12.0
290
     0
  0
SCALE
  5
5E
102
{ACAD_REACTORS
330
47
102
}
330
47
100
AcDbScale
 70
     0
300
1/8" = 1'-0"
140
0.125
141
12.0
290
     0
  0
SCALE
  5
5F
102
{ACAD_REACTORS
330
47
102
}
330
47
100
AcDbScale
 70
     0
300
3/16" = 1'-0"
140
0.1875
141
12.0
290
     0
  0
SCALE
  5
60
102
{ACAD_REACTORS
330
47
102
}
330
47
100
AcDbScale
 70
     0
300
1/4" = 1'-0"
140
0.25
141
12.0
290
     0
  0
SCALE
  5
61
102
{ACAD_REACTORS
330
47
102
}
330
47
100
AcDbScale
 70
     0
300
3/8" = 1'-0"
140
0.375
141
12.0
290
     0
  0
SCALE
  5
62
102
{ACAD_REACTORS
330
47
102
}
330
47
100
AcDbScale
 70
     0
300
1/2" = 1'-0"
140
0.5
141
12.0
290
     0
  0
SCALE
  5
63
102
{ACAD_REACTORS
330
47
102
}
330
47
100
AcDbScale
 70
     0
300
3/4" = 1'-0"
140
0.75
141
12.0
290
     0
  0
SCALE
  5
64
102
{ACAD_REACTORS
330
47
102
}
330
47
100
AcDbScale
 70
     0
300
1" = 1'-0"
140
1.0
141
12.0
290
     0
  0
SCALE
  5
65
102
{ACAD_REACTORS
330
47
102
}
330
47
100
AcDbScale
 70
     0
300
1-1/2" = 1'-0"
140
1.5
141
12.0
290
     0
  0
SCALE
  5
66
102
{ACAD_REACTORS
330
47
102
}
330
47
100
AcDbScale
 70
     0
300
3" = 1'-0"
140
3.0
141
12.0
290
     0
  0
SCALE
  5
67
102
{ACAD_REACTORS
330
47
102
}
330
47
100
AcDbScale
 70
     0
300
6" = 1'-0"
140
6.0
141
12.0
290
     0
  0
SCALE
  5
68
102
{ACAD_REACTORS
330
47
102
}
330
47
100
AcDbScale
 70
     0
300
1'-0" = 1'-0"
140
12.0
141
12.0
290
     0
  0
ENDSEC
  0
EOF
