  0
SECTION
  2
HEADER
  9
$ACADVER
  1
AC1015
  9
$ACADMAINTVER
 70
     6
  9
$DWGCODEPAGE
  3
ANSI_1252
  9
$INSBASE
 10
0.0
 20
0.0
 30
0.0
  9
$EXTMIN
 10
-184.15
 20
-114.3
 30
0.0
  9
$EXTMAX
 10
184.15
 20
114.3
 30
0.0
  9
$LIMMIN
 10
0.0
 20
0.0
  9
$LIMMAX
 10
420.0
 20
297.0
  9
$ORTHOMODE
 70
     0
  9
$REGENMODE
 70
     1
  9
$FILLMODE
 70
     1
  9
$QTEXTMODE
 70
     0
  9
$MIRRTEXT
 70
     1
  9
$LTSCALE
 40
1.0
  9
$ATTMODE
 70
     1
  9
$TEXTSIZE
 40
3.175
  9
$TRACEWID
 40
1.0
  9
$TEXTSTYLE
  7
Standard
  9
$CLAYER
  8
0
  9
$CELTYPE
  6
ByLayer
  9
$CECOLOR
 62
   256
  9
$CELTSCALE
 40
1.0
  9
$DISPSILH
 70
     0
  9
$DIMSCALE
 40
1.0
  9
$DIMASZ
 40
3.302
  9
$DIMEXO
 40
1.27
  9
$DIMDLI
 40
3.75
  9
$DIMRND
 40
0.0
  9
$DIMDLE
 40
0.0
  9
$DIMEXE
 40
3.175
  9
$DIMTP
 40
0.0
  9
$DIMTM
 40
0.0
  9
$DIMTXT
 40
3.175
  9
$DIMCEN
 40
2.5
  9
$DIMTSZ
 40
0.0
  9
$DIMTOL
 70
     0
  9
$DIMLIM
 70
     0
  9
$DIMTIH
 70
     1
  9
$DIMTOH
 70
     1
  9
$DIMSE1
 70
     0
  9
$DIMSE2
 70
     0
  9
$DIMTAD
 70
     0
  9
$DIMZIN
 70
     1
  9
$DIMBLK
  1

  9
$DIMASO
 70
     1
  9
$DIMSHO
 70
     1
  9
$DIMPOST
  1

  9
$DIMAPOST
  1

  9
$DIMALT
 70
     0
  9
$DIMALTD
 70
     3
  9
$DIMALTF
 40
0.0393700787
  9
$DIMLFAC
 40
1.0
  9
$DIMTOFL
 70
     1
  9
$DIMTVP
 40
0.0
  9
$DIMTIX
 70
     0
  9
$DIMSOXD
 70
     0
  9
$DIMSAH
 70
     0
  9
$DIMBLK1
  1

  9
$DIMBLK2
  1

  9
$DIMSTYLE
  2
ISO-25
  9
$DIMCLRD
 70
     0
  9
$DIMCLRE
 70
     0
  9
$DIMCLRT
 70
     0
  9
$DIMTFAC
 40
1.0
  9
$DIMGAP
 40
1.524
  9
$DIMJUST
 70
     0
  9
$DIMSD1
 70
     0
  9
$DIMSD2
 70
     0
  9
$DIMTOLJ
 70
     0
  9
$DIMTZIN
 70
     1
  9
$DIMALTZ
 70
     0
  9
$DIMALTTZ
 70
     0
  9
$DIMUPT
 70
     0
  9
$DIMDEC
 70
     3
  9
$DIMTDEC
 70
     3
  9
$DIMALTU
 70
     2
  9
$DIMALTTD
 70
     3
  9
$DIMTXSTY
  7
Standard
  9
$DIMAUNIT
 70
     0
  9
$DIMADEC
 70
     0
  9
$DIMALTRND
 40
0.0
  9
$DIMAZIN
 70
     0
  9
$DIMDSEP
 70
    44
  9
$DIMATFIT
 70
     3
  9
$DIMFRAC
 70
     0
  9
$DIMLDRBLK
  1

  9
$DIMLUNIT
 70
     2
  9
$DIMLWD
 70
    -2
  9
$DIMLWE
 70
    -2
  9
$DIMTMOVE
 70
     0
  9
$LUNITS
 70
     2
  9
$LUPREC
 70
     3
  9
$SKETCHINC
 40
1.0
  9
$FILLETRAD
 40
10.0
  9
$AUNITS
 70
     0
  9
$AUPREC
 70
     0
  9
$MENU
  1
.
  9
$ELEVATION
 40
0.0
  9
$PELEVATION
 40
0.0
  9
$THICKNESS
 40
0.0
  9
$LIMCHECK
 70
     0
  9
$CHAMFERA
 40
0.0
  9
$CHAMFERB
 40
0.0
  9
$CHAMFERC
 40
0.0
  9
$CHAMFERD
 40
0.0
  9
$SKPOLY
 70
     0
  9
$TDCREATE
 40
2458561.597244132
  9
$TDUCREATE
 40
2458561.763910799
  9
$TDUPDATE
 40
2458561.59729228
  9
$TDUUPDATE
 40
2458561.763958947
  9
$TDINDWG
 40
0.0000000116
  9
$TDUSRTIMER
 40
0.0000000116
  9
$USRTIMER
 70
     1
  9
$ANGBASE
 50
0.0
  9
$ANGDIR
 70
     0
  9
$PDMODE
 70
     0
  9
$PDSIZE
 40
-1.0
  9
$PLINEWID
 40
0.0
  9
$SPLFRAME
 70
     0
  9
$SPLINETYPE
 70
     6
  9
$SPLINESEGS
 70
     8
  9
$HANDSEED
  5
EB
  9
$SURFTAB1
 70
     6
  9
$SURFTAB2
 70
     6
  9
$SURFTYPE
 70
     6
  9
$SURFU
 70
     6
  9
$SURFV
 70
     6
  9
$UCSBASE
  2

  9
$UCSNAME
  2

  9
$UCSORG
 10
0.0
 20
0.0
 30
0.0
  9
$UCSXDIR
 10
1.0
 20
0.0
 30
0.0
  9
$UCSYDIR
 10
0.0
 20
1.0
 30
0.0
  9
$UCSORTHOREF
  2

  9
$UCSORTHOVIEW
 70
     0
  9
$UCSORGTOP
 10
0.0
 20
0.0
 30
0.0
  9
$UCSORGBOTTOM
 10
0.0
 20
0.0
 30
0.0
  9
$UCSORGLEFT
 10
0.0
 20
0.0
 30
0.0
  9
$UCSORGRIGHT
 10
0.0
 20
0.0
 30
0.0
  9
$UCSORGFRONT
 10
0.0
 20
0.0
 30
0.0
  9
$UCSORGBACK
 10
0.0
 20
0.0
 30
0.0
  9
$PUCSBASE
  2

  9
$PUCSNAME
  2

  9
$PUCSORG
 10
0.0
 20
0.0
 30
0.0
  9
$PUCSXDIR
 10
1.0
 20
0.0
 30
0.0
  9
$PUCSYDIR
 10
0.0
 20
1.0
 30
0.0
  9
$PUCSORTHOREF
  2

  9
$PUCSORTHOVIEW
 70
     0
  9
$PUCSORGTOP
 10
0.0
 20
0.0
 30
0.0
  9
$PUCSORGBOTTOM
 10
0.0
 20
0.0
 30
0.0
  9
$PUCSORGLEFT
 10
0.0
 20
0.0
 30
0.0
  9
$PUCSORGRIGHT
 10
0.0
 20
0.0
 30
0.0
  9
$PUCSORGFRONT
 10
0.0
 20
0.0
 30
0.0
  9
$PUCSORGBACK
 10
0.0
 20
0.0
 30
0.0
  9
$USERI1
 70
     0
  9
$USERI2
 70
     0
  9
$USERI3
 70
     0
  9
$USERI4
 70
     0
  9
$USERI5
 70
     0
  9
$USERR1
 40
0.0
  9
$USERR2
 40
0.0
  9
$USERR3
 40
0.0
  9
$USERR4
 40
0.0
  9
$USERR5
 40
0.0
  9
$WORLDVIEW
 70
     1
  9
$SHADEDGE
 70
     3
  9
$SHADEDIF
 70
    70
  9
$TILEMODE
 70
     1
  9
$MAXACTVP
 70
    64
  9
$PINSBASE
 10
0.0
 20
0.0
 30
0.0
  9
$PLIMCHECK
 70
     0
  9
$PEXTMIN
 10
1.0000000000E+20
 20
1.0000000000E+20
 30
1.0000000000E+20
  9
$PEXTMAX
 10
-1.0000000000E+20
 20
-1.0000000000E+20
 30
-1.0000000000E+20
  9
$PLIMMIN
 10
0.0
 20
0.0
  9
$PLIMMAX
 10
420.0
 20
297.0
  9
$UNITMODE
 70
     0
  9
$VISRETAIN
 70
     1
  9
$PLINEGEN
 70
     0
  9
$PSLTSCALE
 70
     1
  9
$TREEDEPTH
 70
  3020
  9
$CMLSTYLE
  2
Standard
  9
$CMLJUST
 70
     0
  9
$CMLSCALE
 40
20.0
  9
$PROXYGRAPHICS
 70
     1
  9
$MEASUREMENT
 70
     1
  9
$CELWEIGHT
370
    -1
  9
$ENDCAPS
280
     0
  9
$JOINSTYLE
280
     0
  9
$LWDISPLAY
290
     1
  9
$INSUNITS
 70
     4
  9
$HYPERLINKBASE
  1

  9
$STYLESHEET
  1

  9
$XEDIT
290
     1
  9
$CEPSNTYPE
380
     0
  9
$PSTYLEMODE
290
     1
  9
$FINGERPRINTGUID
  2
{E8A45ACD-0444-44EC-AC2E-65B4D1D93BDC}
  9
$VERSIONGUID
  2
{FAEB1C32-E019-11D5-929B-00C0DF256EC4}
  9
$EXTNAMES
290
     1
  9
$PSVPSCALE
 40
0.0
  9
$OLESTARTUP
290
     0
  0
ENDSEC
  0
SECTION
  2
CLASSES
  0
CLASS
  1
ACDBDICTIONARYWDFLT
  2
AcDbDictionaryWithDefault
  3
ObjectDBX Classes
 90
        0
280
     0
281
     0
  0
CLASS
  1
VISUALSTYLE
  2
AcDbVisualStyle
  3
ObjectDBX Classes
 90
     4095
280
     0
281
     0
  0
CLASS
  1
MATERIAL
  2
AcDbMaterial
  3
ObjectDBX Classes
 90
     1153
280
     0
281
     0
  0
CLASS
  1
SCALE
  2
AcDbScale
  3
ObjectDBX Classes
 90
     1153
280
     0
281
     0
  0
CLASS
  1
TABLESTYLE
  2
AcDbTableStyle
  3
ObjectDBX Classes
 90
     4095
280
     0
281
     0
  0
CLASS
  1
MLEADERSTYLE
  2
AcDbMLeaderStyle
  3
ACDB_MLEADERSTYLE_CLASS
 90
     4095
280
     0
281
     0
  0
CLASS
  1
SUN
  2
AcDbSun
  3
SCENEOE
 90
     1153
280
     0
281
     0
  0
CLASS
  1
ACDBPLACEHOLDER
  2
AcDbPlaceHolder
  3
ObjectDBX Classes
 90
        0
280
     0
281
     0
  0
CLASS
  1
LAYOUT
  2
AcDbLayout
  3
ObjectDBX Classes
 90
        0
280
     0
281
     0
  0
ENDSEC
  0
SECTION
  2
TABLES
  0
TABLE
  2
VPORT
  5
8
330
0
100
AcDbSymbolTable
 70
     1
  0
VPORT
  5
29
330
8
100
AcDbSymbolTableRecord
100
AcDbViewportTableRecord
  2
*Active
 70
     0
 10
0.0
 20
0.0
 11
1.0
 21
1.0
 12
0.0
 22
0.0
 13
0.0
 23
0.0
 14
10.0
 24
10.0
 15
10.0
 25
10.0
 16
0.0
 26
0.0
 36
1.0
 17
0.0
 27
0.0
 37
0.0
 40
233.172
 41
1.6111111111
 42
50.0
 43
0.0
 44
0.0
 50
0.0
 51
0.0
 71
     0
 72
   100
 73
     1
 74
     3
 75
     0
 76
     0
 77
     0
 78
     0
281
     0
 65
     1
110
0.0
120
0.0
130
0.0
111
1.0
121
0.0
131
0.0
112
0.0
122
1.0
132
0.0
 79
     0
146
0.0
  0
ENDTAB
  0
TABLE
  2
LTYPE
  5
5
330
0
100
AcDbSymbolTable
 70
     6
  0
LTYPE
  5
14
330
5
100
AcDbSymbolTableRecord
100
AcDbLinetypeTableRecord
  2
ByBlock
 70
     0
  3

 72
    65
 73
     0
 40
0.0
  0
LTYPE
  5
15
330
5
100
AcDbSymbolTableRecord
100
AcDbLinetypeTableRecord
  2
ByLayer
 70
     0
  3

 72
    65
 73
     0
 40
0.0
  0
LTYPE
  5
16
330
5
100
AcDbSymbolTableRecord
100
AcDbLinetypeTableRecord
  2
Continuous
 70
     0
  3
Solid line
 72
    65
 73
     0
 40
0.0
  0
LTYPE
  5
6E
330
5
100
AcDbSymbolTableRecord
100
AcDbLinetypeTableRecord
  2
HIDDEN
 70
     0
  3
Hidden __ __ __ __ __ __ __ __ __ __ __ __ __ __
 72
    65
 73
     2
 40
1.905
 49
1.27
 74
     0
 49
-0.635
 74
     0
  0
LTYPE
  5
6F
330
5
100
AcDbSymbolTableRecord
100
AcDbLinetypeTableRecord
  2
PHANTOM
 70
     0
  3
Phantom ______  __  __  ______  __  __  ______
 72
    65
 73
     6
 40
12.7
 49
6.35
 74
     0
 49
-1.27
 74
     0
 49
1.27
 74
     0
 49
-1.27
 74
     0
 49
1.27
 74
     0
 49
-1.27
 74
     0
  0
LTYPE
  5
70
330
5
100
AcDbSymbolTableRecord
100
AcDbLinetypeTableRecord
  2
CENTER
 70
     0
  3
Center ____ _ ____ _ ____ _ ____ _ ____ _ ____
 72
    65
 73
     4
 40
10.16
 49
6.35
 74
     0
 49
-1.27
 74
     0
 49
1.27
 74
     0
 49
-1.27
 74
     0
  0
LTYPE
  5
71
330
5
100
AcDbSymbolTableRecord
100
AcDbLinetypeTableRecord
  2
CENTERX2
 70
     0
  3
Center (2x) ________  __  ________  __  _____
 72
    65
 73
     4
 40
20.32
 49
12.7
 74
     0
 49
-2.54
 74
     0
 49
2.54
 74
     0
 49
-2.54
 74
     0
  0
LTYPE
  5
72
330
5
100
AcDbSymbolTableRecord
100
AcDbLinetypeTableRecord
  2
DOT2
 70
     0
  3
Dot (.5x) ........................................
 72
    65
 73
     2
 40
0.635
 49
0.0
 74
     0
 49
-0.635
 74
     0
  0
ENDTAB
  0
TABLE
  2
LAYER
  5
2
330
0
100
AcDbSymbolTable
 70
     1
  0
LAYER
  5
10
330
2
100
AcDbSymbolTableRecord
100
AcDbLayerTableRecord
  2
0
 70
     0
 62
     7
  6
Continuous
370
    -3
390
F
  0
ENDTAB
  0
TABLE
  2
STYLE
  5
3
330
0
100
AcDbSymbolTable
 70
     1
  0
STYLE
  5
11
330
3
100
AcDbSymbolTableRecord
100
AcDbTextStyleTableRecord
  2
Standard
 70
     0
 40
0.0
 41
1.0
 50
0.0
 71
     0
 42
3.175
  3
txt
  4

  0
ENDTAB
  0
TABLE
  2
VIEW
  5
6
330
0
100
AcDbSymbolTable
 70
     0
  0
ENDTAB
  0
TABLE
  2
UCS
  5
7
330
0
100
AcDbSymbolTable
 70
     0
  0
ENDTAB
  0
TABLE
  2
APPID
  5
9
330
0
100
AcDbSymbolTable
 70
     1
  0
APPID
  5
12
330
9
100
AcDbSymbolTableRecord
100
AcDbRegAppTableRecord
  2
ACAD
 70
     0
  0
ENDTAB
  0
TABLE
  2
DIMSTYLE
  5
A
330
0
100
AcDbSymbolTable
 70
     1
100
AcDbDimStyleTable
  0
DIMSTYLE
105
27
330
A
100
AcDbSymbolTableRecord
100
AcDbDimStyleTableRecord
  2
ISO-25
 70
     0
 41
2.5
 42
0.625
 43
3.75
 44
1.25
 73
     0
 74
     0
 77
     1
 78
     8
140
2.5
141
2.5
143
0.0393700787
147
0.625
171
     3
172
     1
178
     0
271
     2
272
     2
274
     3
278
    44
283
     0
284
     8
340
11
  0
ENDTAB
  0
TABLE
  2
BLOCK_RECORD
  5
1
330
0
100
AcDbSymbolTable
 70
     1
  0
BLOCK_RECORD
  5
1F
330
1
100
AcDbSymbolTableRecord
100
AcDbBlockTableRecord
  2
*Model_Space
340
22
  0
BLOCK_RECORD
  5
1B
330
1
100
AcDbSymbolTableRecord
100
AcDbBlockTableRecord
  2
*Paper_Space
340
1E
  0
BLOCK_RECORD
  5
23
330
1
100
AcDbSymbolTableRecord
100
AcDbBlockTableRecord
  2
*Paper_Space0
340
26
  0
ENDTAB
  0
ENDSEC
  0
SECTION
  2
BLOCKS
  0
BLOCK
  5
20
330
1F
100
AcDbEntity
  8
0
100
AcDbBlockBegin
  2
*Model_Space
 70
     0
 10
0.0
 20
0.0
 30
0.0
  3
*Model_Space
  1

  0
ENDBLK
  5
21
330
1F
100
AcDbEntity
  8
0
100
AcDbBlockEnd
  0
BLOCK
  5
1C
330
1B
100
AcDbEntity
 67
     1
  8
0
100
AcDbBlockBegin
  2
*Paper_Space
 70
     0
 10
0.0
 20
0.0
 30
0.0
  3
*Paper_Space
  1

  0
ENDBLK
  5
1D
330
1B
100
AcDbEntity
 67
     1
  8
0
100
AcDbBlockEnd
  0
BLOCK
  5
24
330
23
100
AcDbEntity
  8
0
100
AcDbBlockBegin
  2
*Paper_Space0
 70
     0
 10
0.0
 20
0.0
 30
0.0
  3
*Paper_Space0
  1

  0
ENDBLK
  5
25
330
23
100
AcDbEntity
  8
0
100
AcDbBlockEnd
  0
ENDSEC
  0
SECTION
  2
ENTITIES
  0
LINE
  5
73
330
1F
100
AcDbEntity
  8
0
  6
Continuous
 62
     7
370
    25
100
AcDbLine
 10
172.5390333909
 20
2.736309345
 30
0.0
 11
171.65
 21
2.736309345
 31
0.0
  0
LINE
  5
74
330
1F
100
AcDbEntity
  8
0
  6
Continuous
 62
     7
370
    25
100
AcDbLine
 10
171.65
 20
2.736309345
 30
0.0
 11
171.65
 21
8.3668541541
 31
0.0
  0
LINE
  5
75
330
1F
100
AcDbEntity
  8
0
  6
Continuous
 62
     7
370
    25
100
AcDbLine
 10
171.65
 20
8.3668541541
 30
0.0
 11
179.3549560547
 21
8.3668541541
 31
0.0
  0
LINE
  5
76
330
1F
100
AcDbEntity
  8
0
  6
Continuous
 62
     7
370
    25
100
AcDbLine
 10
179.3549560547
 20
8.3668541541
 30
0.0
 11
179.3549560547
 21
2.9338723207
 31
0.0
  0
LINE
  5
77
330
1F
100
AcDbEntity
  8
0
  6
Continuous
 62
     7
370
    25
100
AcDbLine
 10
179.3549560547
 20
2.9338723207
 30
0.0
 11
178.4659226638
 21
2.9338723207
 31
0.0
  0
LINE
  5
78
330
1F
100
AcDbEntity
  8
0
  6
Continuous
 62
     7
370
    25
100
AcDbLine
 10
178.4659226638
 20
2.9338723207
 30
0.0
 11
178.4659226638
 21
7.2802577875
 31
0.0
  0
LINE
  5
79
330
1F
100
AcDbEntity
  8
0
  6
Continuous
 62
     7
370
    25
100
AcDbLine
 10
178.4659226638
 20
7.2802577875
 30
0.0
 11
176.0951669546
 21
7.2802577875
 31
0.0
  0
LINE
  5
7A
330
1F
100
AcDbEntity
  8
0
  6
Continuous
 62
     7
370
    25
100
AcDbLine
 10
176.0951669546
 20
7.2802577875
 30
0.0
 11
176.0951669546
 21
3.2302167844
 31
0.0
  0
LINE
  5
7B
330
1F
100
AcDbEntity
  8
0
  6
Continuous
 62
     7
370
    25
100
AcDbLine
 10
176.0951669546
 20
3.2302167844
 30
0.0
 11
175.2061335637
 21
3.2302167844
 31
0.0
  0
LINE
  5
7C
330
1F
100
AcDbEntity
  8
0
  6
Continuous
 62
     7
370
    25
100
AcDbLine
 10
175.2061335637
 20
3.2302167844
 30
0.0
 11
175.2061335637
 21
7.2802577875
 31
0.0
  0
LINE
  5
7D
330
1F
100
AcDbEntity
  8
0
  6
Continuous
 62
     7
370
    25
100
AcDbLine
 10
175.2061335637
 20
7.2802577875
 30
0.0
 11
172.5390333909
 21
7.2802577875
 31
0.0
  0
LINE
  5
7E
330
1F
100
AcDbEntity
  8
0
  6
Continuous
 62
     7
370
    25
100
AcDbLine
 10
172.5390333909
 20
7.2802577875
 30
0.0
 11
172.5390333909
 21
2.736309345
 31
0.0
  0
SPLINE
  5
7F
330
1F
100
AcDbEntity
  8
0
  6
Continuous
 62
     7
370
    25
100
AcDbSpline
210
0.0
220
0.0
230
1.0
 70
     8
 71
     3
 72
    23
 73
    19
 74
     0
 42
0.000000001
 43
0.00000001
 40
0.0
 40
0.0
 40
0.0
 40
0.0
 40
0.0748159666505561
 40
0.1485345605139199
 40
0.2238723272963853
 40
0.3012971209351257
 40
0.340893629019756
 40
0.3803400620654377
 40
0.420126588728463
 40
0.459949907082968
 40
0.5008311555562176
 40
0.5419071755971068
 40
0.5844387941530512
 40
0.6280801713306067
 40
0.7172666799070613
 40
0.8078600064218677
 40
0.9019246558363444
 40
1.0
 40
1.0
 40
1.0
 40
1.0
 10
173.8370838801066
 20
-4.375957782451925
 30
0.0
 10
173.7363869571168
 20
-4.37193671182652
 30
0.0
 10
173.536470096171
 20
-4.363953550144875
 30
0.0
 10
173.2417833972908
 20
-4.295215648909835
 30
0.0
 10
172.9562336309364
 20
-4.187232041588056
 30
0.0
 10
172.7296341616787
 20
-4.060594513930819
 30
0.0
 10
172.5565450981078
 20
-3.94088377397746
 30
0.0
 10
172.4321365897856
 20
-3.840321105589943
 30
0.0
 10
172.3171019658852
 20
-3.72880288800161
 30
0.0
 10
172.2078374099175
 20
-3.609074586538509
 30
0.0
 10
172.1065722759309
 20
-3.480206623849933
 30
0.0
 10
172.0132720812912
 20
-3.34111256307184
 30
0.0
 10
171.9269655793295
 20
-3.193260476189444
 30
0.0
 10
171.821796052651
 20
-2.982131414159521
 30
0.0
 10
171.7117787410914
 20
-2.701716944824917
 30
0.0
 10
171.6201600497897
 20
-2.344525204539987
 30
0.0
 10
171.5607247393075
 20
-1.968088374474443
 30
0.0
 10
171.5544310456486
 20
-1.70960360996342
 30
0.0
 10
171.5512185121194
 20
-1.57766344608405
 30
0.0
  0
SPLINE
  5
80
330
1F
100
AcDbEntity
  8
0
  6
Continuous
 62
     7
370
    25
100
AcDbSpline
210
0.0
220
0.0
230
1.0
 70
     8
 71
     3
 72
    31
 73
    27
 74
     0
 42
0.000000001
 43
0.00000001
 40
0.0
 40
0.0
 40
0.0
 40
0.0
 40
0.0524914239297423
 40
0.1031445243599772
 40
0.1513951639948415
 40
0.1980298702965084
 40
0.2428716967116381
 40
0.2863042308343089
 40
0.3278482240868875
 40
0.3683932627176636
 40
0.4078497842878926
 40
0.4468344837555468
 40
0.4851621283359214
 40
0.5235843258395605
 40
0.5616119105623153
 40
0.5999287342377343
 40
0.6385044218754427
 40
0.6777977034331835
 40
0.7172962419434415
 40
0.7566106248152173
 40
0.7960724009495312
 40
0.8358898606988091
 40
0.8757164321439891
 40
0.9162653059694281
 40
0.9577606097175919
 40
1.0
 40
1.0
 40
1.0
 40
1.0
 10
171.5512185121194
 20
-1.577663446084049
 30
0.0
 10
171.5519321240196
 20
-1.493774815156439
 30
0.0
 10
171.5533343561276
 20
-1.328935451152536
 30
0.0
 10
171.5695017257209
 20
-1.087448360992914
 30
0.0
 10
171.5936004468246
 20
-0.8560872622802714
 30
0.0
 10
171.6287576913703
 20
-0.635455896906476
 30
0.0
 10
171.6755820005882
 20
-0.4249323590870583
 30
0.0
 10
171.7303914167003
 20
-0.2247556806180121
 30
0.0
 10
171.7955896132005
 20
-0.0349438672956413
 30
0.0
 10
171.8706532270532
 20
0.1444073290933775
 30
0.0
 10
171.9584756504308
 20
0.3131794198483503
 30
0.0
 10
172.0529672184359
 20
0.4742602219442795
 30
0.0
 10
172.1609355721555
 20
0.6246666730448784
 30
0.0
 10
172.2774953864852
 20
0.7664401079314358
 30
0.0
 10
172.4049552601373
 20
0.8985865068629347
 30
0.0
 10
172.5426673891758
 20
1.020296390820375
 30
0.0
 10
172.6898467836829
 20
1.133703907434801
 30
0.0
 10
172.8468437029784
 20
1.236636861480613
 30
0.0
 10
173.0117986200976
 20
1.328556123428682
 30
0.0
 10
173.1818883463636
 20
1.411227402751183
 30
0.0
 10
173.3583610768978
 20
1.480876647682202
 30
0.0
 10
173.5403210895809
 20
1.537007953757062
 30
0.0
 10
173.7265517386425
 20
1.584553831696777
 30
0.0
 10
173.9186065142389
 20
1.617525841297646
 30
0.0
 10
174.1158825095003
 20
1.641767961357996
 30
0.0
 10
174.2496314433375
 20
1.647048996448844
 30
0.0
 10
174.3171001727764
 20
1.649712978265222
 30
0.0
  0
LINE
  5
81
330
1F
100
AcDbEntity
  8
0
  6
Continuous
 62
     7
370
    25
100
AcDbLine
 10
174.3171001728
 20
1.6497129783
 30
0.0
 11
174.3171001728
 21
0.5631166116
 31
0.0
  0
SPLINE
  5
82
330
1F
100
AcDbEntity
  8
0
  6
Continuous
 62
     7
370
    25
100
AcDbSpline
210
0.0
220
0.0
230
1.0
 70
     8
 71
     3
 72
    19
 73
    15
 74
     0
 42
0.000000001
 43
0.00000001
 40
0.0
 40
0.0
 40
0.0
 40
0.0
 40
0.0938051278846023
 40
0.1802047019423025
 40
0.2603872225598506
 40
0.3350960170104951
 40
0.4070661315378785
 40
0.4814283678149883
 40
0.5592580851148334
 40
0.6426896252344012
 40
0.728560893709952
 40
0.8159605604475632
 40
0.9060264571570037
 40
1.0
 40
1.0
 40
1.0
 40
1.0
 10
174.3171001727764
 20
0.5631166115785236
 30
0.0
 10
174.2195295471986
 20
0.551181810428681
 30
0.0
 10
174.0320911214206
 20
0.528254414747351
 30
0.0
 10
173.766572277243
 20
0.4638286529903365
 30
0.0
 10
173.527103842809
 20
0.3818944224385245
 30
0.0
 10
173.3133781293816
 20
0.2763228745638576
 30
0.0
 10
173.1228684440684
 20
0.1433152332063143
 30
0.0
 10
172.953133611992
 20
-0.0203612297321951
 30
0.0
 10
172.8048038027475
 20
-0.2185124423837069
 30
0.0
 10
172.6748590318562
 20
-0.4429847003303689
 30
0.0
 10
172.5704128566333
 20
-0.6914531691330104
 30
0.0
 10
172.494464873318
 20
-0.9571297761033191
 30
0.0
 10
172.4490545669261
 20
-1.238604250008377
 30
0.0
 10
172.4432273666518
 20
-1.431381136815204
 30
0.0
 10
172.4402519030448
 20
-1.529816162891879
 30
0.0
  0
SPLINE
  5
83
330
1F
100
AcDbEntity
  8
0
  6
Continuous
 62
     7
370
    25
100
AcDbSpline
210
0.0
220
0.0
230
1.0
 70
     8
 71
     3
 72
    19
 73
    15
 74
     0
 42
0.000000001
 43
0.00000001
 40
0.0
 40
0.0
 40
0.0
 40
0.0
 40
0.1056065824491301
 40
0.205294502030291
 40
0.3010003042915567
 40
0.3930753030860882
 40
0.48048732662271
 40
0.5629401060451943
 40
0.6410943740731792
 40
0.7177656570272714
 40
0.7918117124780291
 40
0.8625487575491094
 40
0.9317621811337393
 40
1.0
 40
1.0
 40
1.0
 40
1.0
 10
172.4402519030448
 20
-1.529816162891879
 30
0.0
 10
172.4418196833364
 20
-1.616925728501901
 30
0.0
 10
172.4448673785346
 20
-1.786262851996057
 30
0.0
 10
172.4831388585139
 20
-2.031862140299962
 30
0.0
 10
172.5361407885134
 20
-2.263122392490097
 30
0.0
 10
172.6168374455612
 20
-2.475819975711277
 30
0.0
 10
172.7168034515475
 20
-2.667610301353844
 30
0.0
 10
172.8335621112142
 20
-2.836243923972829
 30
0.0
 10
172.97005481181
 20
-2.977492406358953
 30
0.0
 10
173.1213284850818
 20
-3.091228496445461
 30
0.0
 10
173.2818081706949
 20
-3.179580467888556
 30
0.0
 10
173.4474072092683
 20
-3.241156077971652
 30
0.0
 10
173.6148526113728
 20
-3.282617797195663
 30
0.0
 10
173.7282900665991
 20
-3.287124204804633
 30
0.0
 10
173.78460621467
 20
-3.289361415765227
 30
0.0
  0
SPLINE
  5
84
330
1F
100
AcDbEntity
  8
0
  6
Continuous
 62
     7
370
    25
100
AcDbSpline
210
0.0
220
0.0
230
1.0
 70
     8
 71
     3
 72
    15
 73
    11
 74
     0
 42
0.000000001
 43
0.00000001
 40
0.0
 40
0.0
 40
0.0
 40
0.0
 40
0.1177987900794475
 40
0.2304740872449115
 40
0.3397536598435695
 40
0.4505653768738533
 40
0.5669138917024851
 40
0.696871496184061
 40
0.8393957262157339
 40
1.0
 40
1.0
 40
1.0
 40
1.0
 10
173.78460621467
 20
-3.289361415765227
 30
0.0
 10
173.8403611067314
 20
-3.286980484646864
 30
0.0
 10
173.9494459101373
 20
-3.282322177664865
 30
0.0
 10
174.1070317725605
 20
-3.24608428899865
 30
0.0
 10
174.2531316382675
 20
-3.186111170465986
 30
0.0
 10
174.3901321223073
 20
-3.103620997136281
 30
0.0
 10
174.5166247954749
 20
-2.990167718544084
 30
0.0
 10
174.6308965921086
 20
-2.845289916345902
 30
0.0
 10
174.7375300804951
 20
-2.669664302539439
 30
0.0
 10
174.7946404208643
 20
-2.537999343426385
 30
0.0
 10
174.8248987589127
 20
-2.468240297757665
 30
0.0
  0
SPLINE
  5
85
330
1F
100
AcDbEntity
  8
0
  6
Continuous
 62
     7
370
    25
100
AcDbSpline
210
0.0
220
0.0
230
1.0
 70
     8
 71
     3
 72
    23
 73
    19
 74
     0
 42
0.000000001
 43
0.00000001
 40
0.0
 40
0.0
 40
0.0
 40
0.0
 40
0.0312002304346102
 40
0.0704869884929089
 40
0.1172152781426558
 40
0.1715761829432936
 40
0.2335962817632863
 40
0.3039648669667249
 40
0.3816296779030713
 40
0.4671205866526497
 40
0.5538100774067988
 40
0.6345494703435135
 40
0.7100355793241766
 40
0.779091559226344
 40
0.842965044994846
 40
0.9010008283697416
 40
0.9532460777154976
 40
1.0
 40
1.0
 40
1.0
 40
1.0
 10
174.8248987589127
 20
-2.468240297757665
 30
0.0
 10
174.8360385231898
 20
-2.441095473739999
 30
0.0
 10
174.8612052743796
 20
-2.379770385062036
 30
0.0
 10
174.8945123257367
 20
-2.274659323729673
 30
0.0
 10
174.9376333214561
 20
-2.14994600111524
 30
0.0
 10
174.981664466454
 20
-2.003028916990993
 30
0.0
 10
175.0294880870855
 20
-1.834117371926976
 30
0.0
 10
175.0814138313746
 20
-1.643598744274392
 30
0.0
 10
175.1388595473559
 20
-1.431720008818119
 30
0.0
 10
175.1985863971011
 20
-1.204568749069451
 30
0.0
 10
175.2597417379436
 20
-0.9748065554905319
 30
0.0
 10
175.3212796694892
 20
-0.7548835105085231
 30
0.0
 10
175.3828104766858
 20
-0.5522262848184093
 30
0.0
 10
175.4429505693624
 20
-0.365744368807944
 30
0.0
 10
175.5029736343041
 20
-0.1965216871314985
 30
0.0
 10
175.5616493131086
 20
-0.0436895213283482
 30
0.0
 10
175.6177254859047
 20
0.092961504212305
 30
0.0
 10
175.6589592543043
 20
0.1764222757863849
 30
0.0
 10
175.6784325526311
 20
0.2158379432482577
 30
0.0
  0
SPLINE
  5
86
330
1F
100
AcDbEntity
  8
0
  6
Continuous
 62
     7
370
    25
100
AcDbSpline
210
0.0
220
0.0
230
1.0
 70
     8
 71
     3
 72
    15
 73
    11
 74
     0
 42
0.000000001
 43
0.00000001
 40
0.0
 40
0.0
 40
0.0
 40
0.0
 40
0.1448442363608607
 40
0.2795870721076559
 40
0.4059805123918966
 40
0.5271207453990882
 40
0.6450442430272642
 40
0.7618212876468907
 40
0.8789094726449308
 40
1.0
 40
1.0
 40
1.0
 40
1.0
 10
175.6784325526311
 20
0.2158379432482577
 30
0.0
 10
175.7274532660791
 20
0.3064928707088825
 30
0.0
 10
175.8220760007486
 20
0.4814804737896283
 30
0.0
 10
175.9905325854974
 20
0.7171659546361987
 30
0.0
 10
176.1792588124374
 20
0.9140708347356422
 30
0.0
 10
176.3844776076106
 20
1.074916628485504
 30
0.0
 10
176.6056521764471
 20
1.20012737319766
 30
0.0
 10
176.8407821888017
 20
1.287464351084423
 30
0.0
 10
177.0879374746749
 20
1.345042812242117
 30
0.0
 10
177.257580069769
 20
1.350562363746773
 30
0.0
 10
177.3438266998682
 20
1.353368514623395
 30
0.0
  0
SPLINE
  5
87
330
1F
100
AcDbEntity
  8
0
  6
Continuous
 62
     7
370
    25
100
AcDbSpline
210
0.0
220
0.0
230
1.0
 70
     8
 71
     3
 72
    23
 73
    19
 74
     0
 42
0.000000001
 43
0.00000001
 40
0.0
 40
0.0
 40
0.0
 40
0.0
 40
0.0750066687427169
 40
0.1491877198362651
 40
0.2236977009263292
 40
0.3006537583615155
 40
0.339818069505026
 40
0.3791740369328032
 40
0.418355051056555
 40
0.4581902312915868
 40
0.4983932796064643
 40
0.5400215645368449
 40
0.5821789238644189
 40
0.6261611767731989
 40
0.7158320129242087
 40
0.8073553152234726
 40
0.90161943354117
 40
1.0
 40
1.0
 40
1.0
 40
1.0
 10
177.3438266998682
 20
1.353368514623395
 30
0.0
 10
177.4393538441477
 20
1.349711142399187
 30
0.0
 10
177.6293566409178
 20
1.342436655585303
 30
0.0
 10
177.9080777337321
 20
1.277590874936227
 30
0.0
 10
178.1769023722825
 20
1.174858408079966
 30
0.0
 10
178.389101035818
 20
1.055430773266706
 30
0.0
 10
178.5504849675367
 20
0.9409554996073204
 30
0.0
 10
178.6665338532797
 20
0.8460051712069392
 30
0.0
 10
178.7731771812274
 20
0.7394844001532692
 30
0.0
 10
178.8740794743998
 20
0.6260531230946309
 30
0.0
 10
178.9652995040128
 20
0.5007932218146384
 30
0.0
 10
179.0500126372788
 20
0.3676035121019098
 30
0.0
 10
179.125917789703
 20
0.2237148456267978
 30
0.0
 10
179.2184627749467
 20
0.0200018559743418
 30
0.0
 10
179.3133449154647
 20
-0.2509542812929564
 30
0.0
 10
179.3955502527625
 20
-0.5921106152821729
 30
0.0
 10
179.4436722732806
 20
-0.9511916044471791
 30
0.0
 10
179.4503349962604
 20
-1.196284123425179
 30
0.0
 10
179.4537375425681
 20
-1.32144896189372
 30
0.0
  0
SPLINE
  5
88
330
1F
100
AcDbEntity
  8
0
  6
Continuous
 62
     7
370
    25
100
AcDbSpline
210
0.0
220
0.0
230
1.0
 70
     8
 71
     3
 72
    23
 73
    19
 74
     0
 42
0.000000001
 43
0.00000001
 40
0.0
 40
0.0
 40
0.0
 40
0.0
 40
0.1004854727332226
 40
0.1952903936341697
 40
0.2861058758310013
 40
0.3730143823631299
 40
0.4150615268508793
 40
0.4560917835696063
 40
0.4959829929563461
 40
0.5356144387019331
 40
0.574139451623823
 40
0.6125756118125648
 40
0.6511412804892459
 40
0.689577440677989
 40
0.7661247573396167
 40
0.842383056853743
 40
0.9199279403945375
 40
1.0
 40
1.0
 40
1.0
 40
1.0
 10
179.4537375425681
 20
-1.32144896189372
 30
0.0
 10
179.4506428896943
 20
-1.458457697513306
 30
0.0
 10
179.4446285280017
 20
-1.72472991759336
 30
0.0
 10
179.3932418487489
 20
-2.112249480334099
 30
0.0
 10
179.3065838768389
 20
-2.473940213727756
 30
0.0
 10
179.2085230535787
 20
-2.757920024911649
 30
0.0
 10
179.1095712663722
 20
-2.967538932489803
 30
0.0
 10
179.0323437204539
 20
-3.116454718549343
 30
0.0
 10
178.9430589656259
 20
-3.254678403481187
 30
0.0
 10
178.84643867232
 20
-3.383455395943832
 30
0.0
 10
178.7425241613558
 20
-3.503973872054714
 30
0.0
 10
178.628858599895
 20
-3.613166453569674
 30
0.0
 10
178.5092637242627
 20
-3.715660517962163
 30
0.0
 10
178.3379949805775
 20
-3.836392166126959
 30
0.0
 10
178.1095713608487
 20
-3.963703311350114
 30
0.0
 10
177.8168353672581
 20
-4.079710235927494
 30
0.0
 10
177.5051168318622
 20
-4.153165156262123
 30
0.0
 10
177.2906938198668
 20
-4.169895506977407
 30
0.0
 10
177.1817633213141
 20
-4.178394806690708
 30
0.0
  0
LINE
  5
89
330
1F
100
AcDbEntity
  8
0
  6
Continuous
 62
     7
370
    25
100
AcDbLine
 10
177.1817633213
 20
-4.1783948067
 30
0.0
 11
177.1817633213
 21
-3.09179844
 31
0.0
  0
SPLINE
  5
8A
330
1F
100
AcDbEntity
  8
0
  6
Continuous
 62
     7
370
    25
100
AcDbSpline
210
0.0
220
0.0
230
1.0
 70
     8
 71
     3
 72
    23
 73
    19
 74
     0
 42
0.000000001
 43
0.00000001
 40
0.0
 40
0.0
 40
0.0
 40
0.0
 40
0.0671623272160568
 40
0.1315519310131722
 40
0.1927004949743782
 40
0.2512273599864285
 40
0.3076841970531339
 40
0.3630386401042379
 40
0.4177188602638047
 40
0.4722504829796635
 40
0.5278243731306195
 40
0.5851876190676839
 40
0.6450203194062396
 40
0.7079225244757801
 40
0.7744112310571091
 40
0.8449245924189533
 40
0.9203954638965637
 40
1.0
 40
1.0
 40
1.0
 40
1.0
 10
177.1817633213141
 20
-3.091798440004009
 30
0.0
 10
177.2369912347752
 20
-3.085121666863626
 30
0.0
 10
177.3451670375323
 20
-3.072043763878986
 30
0.0
 10
177.5006277252104
 20
-3.035343897195091
 30
0.0
 10
177.6466735730229
 20
-2.991484402927469
 30
0.0
 10
177.7815473173841
 20
-2.935573377702983
 30
0.0
 10
177.9064784505305
 20
-2.869526654426938
 30
0.0
 10
178.0190067244289
 20
-2.789517406226834
 30
0.0
 10
178.1234768028776
 20
-2.701824511037037
 30
0.0
 10
178.2170098001102
 20
-2.602061317252719
 30
0.0
 10
178.2991702904532
 20
-2.490043203786533
 30
0.0
 10
178.3703454882641
 20
-2.365689121516813
 30
0.0
 10
178.4305115700622
 20
-2.229038760254233
 30
0.0
 10
178.4797785682933
 20
-2.080142075437724
 30
0.0
 10
178.5179813208647
 20
-1.918989760996714
 30
0.0
 10
178.5460831400866
 20
-1.745209434726454
 30
0.0
 10
178.5604755348631
 20
-1.558869965435618
 30
0.0
 10
178.5632697850248
 20
-1.430540804064306
 30
0.0
 10
178.5647041516426
 20
-1.364665862841486
 30
0.0
  0
SPLINE
  5
8B
330
1F
100
AcDbEntity
  8
0
  6
Continuous
 62
     7
370
    25
100
AcDbSpline
210
0.0
220
0.0
230
1.0
 70
     8
 71
     3
 72
    23
 73
    19
 74
     0
 42
0.000000001
 43
0.00000001
 40
0.0
 40
0.0
 40
0.0
 40
0.0
 40
0.0915402491795636
 40
0.1771994092101612
 40
0.2571905613614159
 40
0.3313041270694984
 40
0.4007201746539621
 40
0.4651409511236388
 40
0.5265090667790441
 40
0.5849973562890067
 40
0.6409706111787778
 40
0.6950858833269563
 40
0.7464402754021329
 40
0.7969674410206932
 40
0.8473115451001829
 40
0.8974058009670712
 40
0.9476322069754168
 40
1.0
 40
1.0
 40
1.0
 40
1.0
 10
178.5647041516426
 20
-1.364665862841486
 30
0.0
 10
178.5641886027702
 20
-1.296191701442262
 30
0.0
 10
178.5631906269462
 20
-1.16364256535347
 30
0.0
 10
178.5449707098577
 20
-0.9720316568497415
 30
0.0
 10
178.5200095914023
 20
-0.7944190608058849
 30
0.0
 10
178.4830614335027
 20
-0.6311722408808198
 30
0.0
 10
178.435259433736
 20
-0.4830662795523149
 30
0.0
 10
178.3787594028045
 20
-0.3481275229128818
 30
0.0
 10
178.3085688240344
 20
-0.2291652006134932
 30
0.0
 10
178.2300171139213
 20
-0.1233374927862496
 30
0.0
 10
178.1422553996661
 20
-0.0325902283276317
 30
0.0
 10
178.0523323738566
 20
0.0482514404199363
 30
0.0
 10
177.9564180722329
 20
0.1149428342201303
 30
0.0
 10
177.857692752375
 20
0.1722185811356455
 30
0.0
 10
177.7519209417927
 20
0.2125971013440776
 30
0.0
 10
177.6436996658713
 20
0.244199871849156
 30
0.0
 10
177.5307499280954
 20
0.2634367604846843
 30
0.0
 10
177.4540012154608
 20
0.265644988447943
 30
0.0
 10
177.4148258942824
 20
0.2667721479366966
 30
0.0
  0
SPLINE
  5
8C
330
1F
100
AcDbEntity
  8
0
  6
Continuous
 62
     7
370
    25
100
AcDbSpline
210
0.0
220
0.0
230
1.0
 70
     8
 71
     3
 72
    11
 73
     7
 74
     0
 42
0.000000001
 43
0.00000001
 40
0.0
 40
0.0
 40
0.0
 40
0.0
 40
0.2627412305282889
 40
0.5099565029432493
 40
0.7533267184204648
 40
1.0
 40
1.0
 40
1.0
 40
1.0
 10
177.4148258942824
 20
0.2667721479366965
 30
0.0
 10
177.3485358391083
 20
0.2639641271589702
 30
0.0
 10
177.2198729541531
 20
0.258514017737156
 30
0.0
 10
177.0370817789761
 20
0.2028604320081348
 30
0.0
 10
176.8704557791301
 20
0.1172648277762312
 30
0.0
 10
176.7797954235434
 20
0.0329395193845693
 30
0.0
 10
176.7341597043551
 20
-0.0095073259793815
 30
0.0
  0
SPLINE
  5
8D
330
1F
100
AcDbEntity
  8
0
  6
Continuous
 62
     7
370
    25
100
AcDbSpline
210
0.0
220
0.0
230
1.0
 70
     8
 71
     3
 72
    23
 73
    19
 74
     0
 42
0.000000001
 43
0.00000001
 40
0.0
 40
0.0
 40
0.0
 40
0.0
 40
0.0327432285933736
 40
0.0724096284093061
 40
0.1196115236461721
 40
0.1746729704771964
 40
0.2373451653072269
 40
0.3083525144271088
 40
0.3876301704355174
 40
0.4752486515278147
 40
0.5633321777983351
 40
0.6451361045263625
 40
0.7202024381750501
 40
0.789134089599801
 40
0.8514970265732927
 40
0.9073305751045094
 40
0.9569686687243106
 40
0.9999999999999999
 40
0.9999999999999999
 40
0.9999999999999999
 40
0.9999999999999999
 10
176.7341597043551
 20
-0.0095073259793815
 30
0.0
 10
176.7113531512161
 20
-0.036265363624443
 30
0.0
 10
176.6609178670661
 20
-0.095439111787849
 30
0.0
 10
176.5941727755886
 20
-0.2055410192248323
 30
0.0
 10
176.526734836784
 20
-0.342050915485307
 30
0.0
 10
176.4596988099675
 20
-0.5058817097164562
 30
0.0
 10
176.3922368853781
 20
-0.6967479729867231
 30
0.0
 10
176.3228284269842
 20
-0.9143578687732938
 30
0.0
 10
176.2535299802953
 20
-1.159949087088106
 30
0.0
 10
176.1878617798382
 20
-1.425399641354081
 30
0.0
 10
176.1203233021407
 20
-1.693158030915048
 30
0.0
 10
176.0541598973432
 20
-1.947377480101128
 30
0.0
 10
175.9911052639363
 20
-2.181180376565952
 30
0.0
 10
175.9296614827671
 20
-2.393788230270672
 30
0.0
 10
175.8699321998965
 20
-2.585403372841522
 30
0.0
 10
175.810682431911
 20
-2.755364006034191
 30
0.0
 10
175.75618702861
 20
-2.905044225397728
 30
0.0
 10
175.7178451649349
 20
-2.996741065854617
 30
0.0
 10
175.7000410031049
 20
-3.039320774567435
 30
0.0
  0
SPLINE
  5
8E
330
1F
100
AcDbEntity
  8
0
  6
Continuous
 62
     7
370
    25
100
AcDbSpline
210
0.0
220
0.0
230
1.0
 70
     8
 71
     3
 72
    19
 73
    15
 74
     0
 42
0.000000001
 43
0.00000001
 40
0.0
 40
0.0
 40
0.0
 40
0.0
 40
0.0749447742392463
 40
0.1471040323661748
 40
0.2164033458220617
 40
0.2825535083353223
 40
0.3472370153930515
 40
0.4093960302398533
 40
0.469411828790867
 40
0.5289729556527923
 40
0.6445731037095583
 40
0.7598754644592406
 40
0.8776952064463197
 40
1.0
 40
1.0
 40
1.0
 40
1.0
 10
175.7000410031049
 20
-3.039320774567435
 30
0.0
 10
175.674500712799
 20
-3.094720645424634
 30
0.0
 10
175.6243694030453
 20
-3.203461307844186
 30
0.0
 10
175.5387443503929
 20
-3.357481489600999
 30
0.0
 10
175.4499517080618
 20
-3.501295096110532
 30
0.0
 10
175.3548089993581
 20
-3.633621889157388
 30
0.0
 10
175.2552742076381
 20
-3.755235267058066
 30
0.0
 10
175.1502085583724
 20
-3.86539499976369
 30
0.0
 10
175.0392799910585
 20
-3.963419414975486
 30
0.0
 10
174.8870957986978
 20
-4.079694723842355
 30
0.0
 10
174.6816078900393
 20
-4.198915332263699
 30
0.0
 10
174.4160619667477
 20
-4.301366498571612
 30
0.0
 10
174.1323396228
 20
-4.36544769070001
 30
0.0
 10
173.9367203878524
 20
-4.372411064516154
 30
0.0
 10
173.8370838801066
 20
-4.375957782451925
 30
0.0
  0
SPLINE
  5
8F
330
1F
100
AcDbEntity
  8
0
  6
Continuous
 62
     7
370
    25
100
AcDbSpline
210
0.0
220
0.0
230
1.0
 70
     8
 71
     3
 72
    31
 73
    27
 74
     0
 42
0.000000001
 43
0.00000001
 40
0.0
 40
0.0
 40
0.0
 40
0.0
 40
0.0475578552366901
 40
0.0939587433032095
 40
0.1391065558658829
 40
0.1836197400246771
 40
0.2274488900464211
 40
0.2706928248855325
 40
0.313599311211237
 40
0.3562477041775117
 40
0.398351899516372
 40
0.4395407877600366
 40
0.480028207120875
 40
0.5198698942281282
 40
0.559637725906595
 40
0.5992029826732288
 40
0.6391968721421507
 40
0.679436659703796
 40
0.7197866934653601
 40
0.7596242810853118
 40
0.7995642296549561
 40
0.839202071176476
 40
0.8787078412220473
 40
0.918797174822659
 40
0.9590848268300459
 40
1.0
 40
1.0
 40
1.0
 40
1.0
 10
175.4901303413586
 20
-15.73582888872195
 30
0.0
 10
175.3944008561781
 20
-15.73422350788778
 30
0.0
 10
175.205270751806
 20
-15.73105180123802
 30
0.0
 10
174.9258677211185
 20
-15.70959073665549
 30
0.0
 10
174.65448577329
 20
-15.67185472438623
 30
0.0
 10
174.3903156902524
 20
-15.62180433311153
 30
0.0
 10
174.1339074417162
 20
-15.55473832175427
 30
0.0
 10
173.8845258069689
 20
-15.47504072686276
 30
0.0
 10
173.6436564559131
 20
-15.37864178557795
 30
0.0
 10
173.410717724479
 20
-15.26977060107928
 30
0.0
 10
173.1889174220497
 20
-15.14658027441549
 30
0.0
 10
172.9797915755666
 20
-15.01070246863535
 30
0.0
 10
172.7853505044049
 20
-14.86199794574308
 30
0.0
 10
172.6030107059819
 20
-14.70288193733298
 30
0.0
 10
172.4370348736042
 20
-14.52934407626849
 30
0.0
 10
172.2825536648383
 20
-14.34510943724528
 30
0.0
 10
172.1444927265136
 20
-14.1470926620166
 30
0.0
 10
172.0189447976862
 20
-13.93910018020391
 30
0.0
 10
171.9110279577552
 20
-13.72182800842034
 30
0.0
 10
171.8141452889022
 20
-13.50016060996892
 30
0.0
 10
171.7326394462337
 20
-13.27383322530499
 30
0.0
 10
171.6659566477398
 20
-13.04341132852578
 30
0.0
 10
171.6150393013435
 20
-12.8087009657722
 30
0.0
 10
171.577899318118
 20
-12.57012890461604
 30
0.0
 10
171.5559944191374
 20
-12.32673405429544
 30
0.0
 10
171.5528186616905
 20
-12.16327497054918
 30
0.0
 10
171.5512185121194
 20
-12.08091383713942
 30
0.0
  0
SPLINE
  5
90
330
1F
100
AcDbEntity
  8
0
  6
Continuous
 62
     7
370
    25
100
AcDbSpline
210
0.0
220
0.0
230
1.0
 70
     8
 71
     3
 72
    31
 73
    27
 74
     0
 42
0.000000001
 43
0.00000001
 40
0.0
 40
0.0
 40
0.0
 40
0.0
 40
0.0446984804579258
 40
0.0885364955530212
 40
0.1314134861036351
 40
0.1738196996554009
 40
0.2157216787162941
 40
0.2572556815228526
 40
0.2986228232250986
 40
0.3403804249161512
 40
0.3820239467443907
 40
0.4229656048048201
 40
0.4636294312212907
 40
0.5040460841301617
 40
0.5444234833709047
 40
0.5849501772858712
 40
0.6262528364715425
 40
0.6679684024680352
 40
0.7099331391893698
 40
0.7513736197210502
 40
0.7926116955612454
 40
0.8339429353624753
 40
0.8750039103290264
 40
0.9164427625190655
 40
0.9579052194038317
 40
1.0
 40
1.0
 40
1.0
 40
1.0
 10
171.5512185121194
 20
-12.08091383713942
 30
0.0
 10
171.5525287874729
 20
-11.99235928954263
 30
0.0
 10
171.5551241148044
 20
-11.81695490824866
 30
0.0
 10
171.5810265033595
 20
-11.55770172490272
 30
0.0
 10
171.6205490175236
 20
-11.30490139716568
 30
0.0
 10
171.6775804065683
 20
-11.05927457284917
 30
0.0
 10
171.7520789125733
 20
-10.82120934376929
 30
0.0
 10
171.8417296470167
 20
-10.59066485346832
 30
0.0
 10
171.9470114435117
 20
-10.36708223482414
 30
0.0
 10
172.0690509184239
 20
-10.15199012420157
 30
0.0
 10
172.2037718874626
 20
-9.945588466667473
 30
0.0
 10
172.3529026655224
 20
-9.752061504416819
 30
0.0
 10
172.5131590826642
 20
-9.570855645475106
 30
0.0
 10
172.686954622078
 20
-9.404194744194424
 30
0.0
 10
172.8709847154223
 20
-9.249456035806185
 30
0.0
 10
173.0664418476575
 20
-9.106345782246063
 30
0.0
 10
173.2744798922838
 20
-8.977040925748874
 30
0.0
 10
173.4939386737054
 20
-8.862215955375945
 30
0.0
 10
173.7192616864742
 20
-8.75867656969409
 30
0.0
 10
173.9503278288946
 20
-8.671394585725777
 30
0.0
 10
174.1837834288525
 20
-8.5947037302361
 30
0.0
 10
174.4210536631236
 20
-8.533623992575297
 30
0.0
 10
174.6615948603659
 20
-8.484951740077465
 30
0.0
 10
174.905005789975
 20
-8.452222972742094
 30
0.0
 10
175.1516492331489
 20
-8.42858606587551
 30
0.0
 10
175.3172052052369
 20
-8.426865552354748
 30
0.0
 10
175.4006096179668
 20
-8.425998785556889
 30
0.0
  0
SPLINE
  5
91
330
1F
100
AcDbEntity
  8
0
  6
Continuous
 62
     7
370
    25
100
AcDbSpline
210
0.0
220
0.0
230
1.0
 70
     8
 71
     3
 72
    23
 73
    19
 74
     0
 42
0.000000001
 43
0.00000001
 40
0.0
 40
0.0
 40
0.0
 40
0.0
 40
0.0752245959663771
 40
0.1465713103289103
 40
0.2144952598141384
 40
0.2794534070191463
 40
0.3424182556850009
 40
0.403509935020503
 40
0.4637740862491171
 40
0.5238754400688787
 40
0.5832614231365116
 40
0.6413103871737798
 40
0.6989047823355476
 40
0.7563009154929934
 40
0.814632118935109
 40
0.8743276931491841
 40
0.9357847783626053
 40
1.0
 40
1.0
 40
1.0
 40
1.0
 10
175.4006096179668
 20
-8.425998785556889
 30
0.0
 10
175.5550816686954
 20
-8.428694795730634
 30
0.0
 10
175.8560626257033
 20
-8.433947834829743
 30
0.0
 10
176.2944242241092
 20
-8.482451376829516
 30
0.0
 10
176.7063728871605
 20
-8.5624683158497
 30
0.0
 10
177.0938142110229
 20
-8.672539897803523
 30
0.0
 10
177.4538261566756
 20
-8.818938732999742
 30
0.0
 10
177.7908356943122
 20
-8.99264838608013
 30
0.0
 10
178.0989771291602
 20
-9.203414763796621
 30
0.0
 10
178.3818132968958
 20
-9.441567090456635
 30
0.0
 10
178.6318382702723
 20
-9.707645267256371
 30
0.0
 10
178.8539023145689
 20
-9.990924445591105
 30
0.0
 10
179.0391284751326
 20
-10.29496407706655
 30
0.0
 10
179.1920646148936
 20
-10.61694927969677
 30
0.0
 10
179.3094844538301
 20
-10.95824956862882
 30
0.0
 10
179.3916890512255
 20
-11.31790626197545
 30
0.0
 10
179.4447189983017
 20
-11.69553482302886
 30
0.0
 10
179.450687696043
 20
-11.95365277802908
 30
0.0
 10
179.4537375425681
 20
-12.08554421938382
 30
0.0
  0
SPLINE
  5
92
330
1F
100
AcDbEntity
  8
0
  6
Continuous
 62
     7
370
    25
100
AcDbSpline
210
0.0
220
0.0
230
1.0
 70
     8
 71
     3
 72
    31
 73
    27
 74
     0
 42
0.000000001
 43
0.00000001
 40
0.0
 40
0.0
 40
0.0
 40
0.0
 40
0.0430962105208292
 40
0.0855812793888138
 40
0.1271511541395013
 40
0.1679599364923715
 40
0.2086834522596292
 40
0.2490182191755198
 40
0.2895017121304955
 40
0.3302284186456855
 40
0.3705994125936992
 40
0.4106691352986525
 40
0.450233830982707
 40
0.4897064582702824
 40
0.529297419885241
 40
0.5690644058753133
 40
0.6097280487617226
 40
0.6507812828120462
 40
0.6925289540416139
 40
0.7342361419164379
 40
0.7767212107844224
 40
0.8195633960985703
 40
0.8633594798189282
 40
0.907844427129512
 40
0.9533366921112013
 40
1.0
 40
1.0
 40
1.0
 40
1.0
 10
179.4537375425681
 20
-12.08554421938382
 30
0.0
 10
179.4522320497349
 20
-12.17253832810604
 30
0.0
 10
179.449242413263
 20
-12.34529289361797
 30
0.0
 10
179.426047080433
 20
-12.60115513121401
 30
0.0
 10
179.3857563304777
 20
-12.85012824361555
 30
0.0
 10
179.3297643502897
 20
-13.09239012042936
 30
0.0
 10
179.2591091777382
 20
-13.32818035366985
 30
0.0
 10
179.1725480976482
 20
-13.55798045261865
 30
0.0
 10
179.0683947485184
 20
-13.78031802337999
 30
0.0
 10
178.9505090377382
 20
-13.99577885525492
 30
0.0
 10
178.8171372515109
 20
-14.20100346489129
 30
0.0
 10
178.6728382559717
 20
-14.39580024631456
 30
0.0
 10
178.5144282292134
 20
-14.57697798406756
 30
0.0
 10
178.3442006062886
 20
-14.74561801927981
 30
0.0
 10
178.1620774406605
 20
-14.90208675887443
 30
0.0
 10
177.9657947819131
 20
-15.0444351872906
 30
0.0
 10
177.7583483328683
 20
-15.17554160063016
 30
0.0
 10
177.5381267779111
 20
-15.29258326926802
 30
0.0
 10
177.3095434696165
 20
-15.3974245805068
 30
0.0
 10
177.0714444163611
 20
-15.48698062391674
 30
0.0
 10
176.826741851906
 20
-15.56389465750668
 30
0.0
 10
176.5739721404125
 20
-15.62827447094732
 30
0.0
 10
176.3132258596515
 20
-15.67446963279242
 30
0.0
 10
176.0456254000626
 20
-15.71125506972296
 30
0.0
 10
175.7702964670889
 20
-15.73061631676439
 30
0.0
 10
175.5843068547656
 20
-15.73407670739894
 30
0.0
 10
175.4901303413586
 20
-15.73582888872195
 30
0.0
  0
CIRCLE
  5
93
330
1F
100
AcDbEntity
  8
0
  6
Continuous
 62
     7
370
    25
100
AcDbCircle
 10
55.0333333333
 20
104.775
 30
0.0
 40
2.247900000000016
  0
CIRCLE
  5
94
330
1F
100
AcDbEntity
  8
0
  6
Continuous
 62
     7
370
    25
100
AcDbCircle
 10
-149.225
 20
104.775
 30
0.0
 40
2.24790000000003
  0
CIRCLE
  5
95
330
1F
100
AcDbEntity
  8
0
  6
Continuous
 62
     7
370
    25
100
AcDbCircle
 10
55.0333333333
 20
-104.775
 30
0.0
 40
2.247900000000016
  0
CIRCLE
  5
96
330
1F
100
AcDbEntity
  8
0
  6
Continuous
 62
     7
370
    25
100
AcDbCircle
 10
-149.225
 20
-104.775
 30
0.0
 40
2.24790000000003
  0
CIRCLE
  5
97
330
1F
100
AcDbEntity
  8
0
  6
Continuous
 62
     7
370
    25
100
AcDbCircle
 10
-119.38
 20
53.5178
 30
0.0
 40
33.14699999999852
  0
CIRCLE
  5
98
330
1F
100
AcDbEntity
  8
0
  6
Continuous
 62
     7
370
    25
100
AcDbCircle
 10
0.0642908418
 20
53.5178
 30
0.0
 40
33.14699999999852
  0
CIRCLE
  5
99
330
1F
100
AcDbEntity
  8
0
  6
Continuous
 62
     7
370
    25
100
AcDbCircle
 10
55.0333333333
 20
0.0
 30
0.0
 40
2.247900000000092
  0
CIRCLE
  5
9A
330
1F
100
AcDbEntity
  8
0
  6
Continuous
 62
     7
370
    25
100
AcDbCircle
 10
119.5085816836
 20
-53.5178
 30
0.0
 40
33.14699999999839
  0
ARC
  5
9B
330
1F
100
AcDbEntity
  8
0
  6
Continuous
 62
     7
370
    25
100
AcDbCircle
 10
-180.975
 20
-111.125
 30
0.0
 40
3.175000000000011
100
AcDbArc
 50
180.0
 51
270.0
  0
LINE
  5
9C
330
1F
100
AcDbEntity
  8
0
  6
Continuous
 62
     7
370
    25
100
AcDbLine
 10
-180.975
 20
-114.3
 30
0.0
 11
180.975
 21
-114.3
 31
0.0
  0
ARC
  5
9D
330
1F
100
AcDbEntity
  8
0
  6
Continuous
 62
     7
370
    25
100
AcDbCircle
 10
180.975
 20
-111.125
 30
0.0
 40
3.175000000000011
100
AcDbArc
 50
270.0
 51
0.0
  0
LINE
  5
9E
330
1F
100
AcDbEntity
  8
0
  6
Continuous
 62
     7
370
    25
100
AcDbLine
 10
184.15
 20
-111.125
 30
0.0
 11
184.15
 21
111.125
 31
0.0
  0
ARC
  5
9F
330
1F
100
AcDbEntity
  8
0
  6
Continuous
 62
     7
370
    25
100
AcDbCircle
 10
180.975
 20
111.125
 30
0.0
 40
3.175000000000011
100
AcDbArc
 50
0.0
 51
90.0
  0
LINE
  5
A0
330
1F
100
AcDbEntity
  8
0
  6
Continuous
 62
     7
370
    25
100
AcDbLine
 10
180.975
 20
114.3
 30
0.0
 11
-180.975
 21
114.3
 31
0.0
  0
ARC
  5
A1
330
1F
100
AcDbEntity
  8
0
  6
Continuous
 62
     7
370
    25
100
AcDbCircle
 10
-180.975
 20
111.125
 30
0.0
 40
3.175000000000011
100
AcDbArc
 50
90.0
 51
180.0
  0
LINE
  5
A2
330
1F
100
AcDbEntity
  8
0
  6
Continuous
 62
     7
370
    25
100
AcDbLine
 10
-184.15
 20
111.125
 30
0.0
 11
-184.15
 21
-111.125
 31
0.0
  0
CIRCLE
  5
A3
330
1F
100
AcDbEntity
  8
0
  6
Continuous
 62
     7
370
    25
100
AcDbCircle
 10
-55.0333333333
 20
0.0
 30
0.0
 40
2.247900000000092
  0
CIRCLE
  5
A4
330
1F
100
AcDbEntity
  8
0
  6
Continuous
 62
     7
370
    25
100
AcDbCircle
 10
119.5085816836
 20
53.5178
 30
0.0
 40
33.14699999999854
  0
CIRCLE
  5
A5
330
1F
100
AcDbEntity
  8
0
  6
Continuous
 62
     7
370
    25
100
AcDbCircle
 10
0.0642908418
 20
-53.5178
 30
0.0
 40
33.14699999999853
  0
CIRCLE
  5
A6
330
1F
100
AcDbEntity
  8
0
  6
Continuous
 62
     7
370
    25
100
AcDbCircle
 10
-119.38
 20
-53.5178
 30
0.0
 40
33.14699999999959
  0
CIRCLE
  5
A7
330
1F
100
AcDbEntity
  8
0
  6
Continuous
 62
     7
370
    25
100
AcDbCircle
 10
-55.0333333333
 20
-104.775
 30
0.0
 40
2.247900000000016
  0
CIRCLE
  5
A8
330
1F
100
AcDbEntity
  8
0
  6
Continuous
 62
     7
370
    25
100
AcDbCircle
 10
165.1
 20
-104.775
 30
0.0
 40
2.247900000000044
  0
CIRCLE
  5
A9
330
1F
100
AcDbEntity
  8
0
  6
Continuous
 62
     7
370
    25
100
AcDbCircle
 10
-55.0333333333
 20
104.775
 30
0.0
 40
2.247900000000016
  0
CIRCLE
  5
AA
330
1F
100
AcDbEntity
  8
0
  6
Continuous
 62
     7
370
    25
100
AcDbCircle
 10
165.1
 20
104.775
 30
0.0
 40
2.24790000000003
  0
LINE
  5
AB
330
1F
100
AcDbEntity
  8
0
  6
Continuous
 62
     7
370
    25
100
AcDbLine
 10
178.4659226638
 20
-27.7871704102
 30
0.0
 11
171.65
 21
-27.7871704102
 31
0.0
  0
LINE
  5
AC
330
1F
100
AcDbEntity
  8
0
  6
Continuous
 62
     7
370
    25
100
AcDbLine
 10
171.65
 20
-27.7871704102
 30
0.0
 11
171.65
 21
-26.7005740435
 31
0.0
  0
LINE
  5
AD
330
1F
100
AcDbEntity
  8
0
  6
Continuous
 62
     7
370
    25
100
AcDbLine
 10
171.65
 20
-26.7005740435
 30
0.0
 11
178.4659226638
 21
-26.7005740435
 31
0.0
  0
LINE
  5
AE
330
1F
100
AcDbEntity
  8
0
  6
Continuous
 62
     7
370
    25
100
AcDbLine
 10
178.4659226638
 20
-26.7005740435
 30
0.0
 11
178.4659226638
 21
-24.2310368465
 31
0.0
  0
LINE
  5
AF
330
1F
100
AcDbEntity
  8
0
  6
Continuous
 62
     7
370
    25
100
AcDbLine
 10
178.4659226638
 20
-24.2310368465
 30
0.0
 11
179.3549560547
 21
-24.2310368465
 31
0.0
  0
LINE
  5
B0
330
1F
100
AcDbEntity
  8
0
  6
Continuous
 62
     7
370
    25
100
AcDbLine
 10
179.3549560547
 20
-24.2310368465
 30
0.0
 11
179.3549560547
 21
-30.2567076072
 31
0.0
  0
LINE
  5
B1
330
1F
100
AcDbEntity
  8
0
  6
Continuous
 62
     7
370
    25
100
AcDbLine
 10
179.3549560547
 20
-30.2567076072
 30
0.0
 11
178.4659226638
 21
-30.2567076072
 31
0.0
  0
LINE
  5
B2
330
1F
100
AcDbEntity
  8
0
  6
Continuous
 62
     7
370
    25
100
AcDbLine
 10
178.4659226638
 20
-30.2567076072
 30
0.0
 11
178.4659226638
 21
-27.7871704102
 31
0.0
  0
SPLINE
  5
B3
330
1F
100
AcDbEntity
  8
0
  6
Continuous
 62
     7
370
    25
100
AcDbSpline
210
0.0
220
0.0
230
1.0
 70
     8
 71
     3
 72
    23
 73
    19
 74
     0
 42
0.000000001
 43
0.00000001
 40
0.0
 40
0.0
 40
0.0
 40
0.0
 40
0.069465956462161
 40
0.134131731538135
 40
0.1940016751469157
 40
0.2497749598275609
 40
0.3026071510283605
 40
0.3522433821235504
 40
0.399494895811802
 40
0.4459062730769481
 40
0.4940018822940049
 40
0.5466505452254801
 40
0.6048305056727447
 40
0.6694422059892617
 40
0.7409376460453738
 40
0.8198652327833629
 40
0.9059866510799655
 40
1.0
 40
1.0
 40
1.0
 40
1.0
 10
172.5390333909254
 20
-20.01584554329897
 30
0.0
 10
172.5404689253396
 20
-20.10026607546902
 30
0.0
 10
172.5432407970081
 20
-20.26327357920227
 30
0.0
 10
172.565642220426
 20
-20.49831699821542
 30
0.0
 10
172.6063664947492
 20
-20.71382690891473
 30
0.0
 10
172.6593158033297
 20
-20.91191456650566
 30
0.0
 10
172.7301181790565
 20
-21.09115816081623
 30
0.0
 10
172.8163709040429
 20
-21.25197054778144
 30
0.0
 10
172.9200117245559
 20
-21.39250635804067
 30
0.0
 10
173.0388074144495
 20
-21.51808415107839
 30
0.0
 10
173.1831876871672
 20
-21.62526647299973
 30
0.0
 10
173.355674649513
 20
-21.71338713562363
 30
0.0
 10
173.554662188732
 20
-21.79073277405572
 30
0.0
 10
173.7827050547441
 20
-21.8535117591275
 30
0.0
 10
174.0401489401862
 20
-21.89948061182046
 30
0.0
 10
174.3254950016542
 20
-21.93535252055178
 30
0.0
 10
174.6399482270666
 20
-21.95417682663841
 30
0.0
 10
174.8588335228452
 20
-21.95738714301417
 30
0.0
 10
174.9730709907336
 20
-21.95906262520032
 30
0.0
  0
LINE
  5
B4
330
1F
100
AcDbEntity
  8
0
  6
Continuous
 62
     7
370
    25
100
AcDbLine
 10
174.9730709907
 20
-21.9590626252
 30
0.0
 11
179.3549560547
 21
-21.9590626252
 31
0.0
  0
LINE
  5
B5
330
1F
100
AcDbEntity
  8
0
  6
Continuous
 62
     7
370
    25
100
AcDbLine
 10
179.3549560547
 20
-21.9590626252
 30
0.0
 11
179.3549560547
 21
-23.0456589919
 31
0.0
  0
LINE
  5
B6
330
1F
100
AcDbEntity
  8
0
  6
Continuous
 62
     7
370
    25
100
AcDbLine
 10
179.3549560547
 20
-23.0456589919
 30
0.0
 11
174.922136786
 21
-23.0456589919
 31
0.0
  0
SPLINE
  5
B7
330
1F
100
AcDbEntity
  8
0
  6
Continuous
 62
     7
370
    25
100
AcDbSpline
210
0.0
220
0.0
230
1.0
 70
     8
 71
     3
 72
    31
 73
    27
 74
     0
 42
0.000000001
 43
0.00000001
 40
0.0
 40
0.0
 40
0.0
 40
0.0
 40
0.0546345405169214
 40
0.1063189053531601
 40
0.1551304234917769
 40
0.2014494093670261
 40
0.244979598024179
 40
0.2858437649014232
 40
0.3245131062235003
 40
0.3607620177843745
 40
0.3955290607979377
 40
0.4302448060439576
 40
0.4647713772852549
 40
0.499461445201396
 40
0.5345410502507334
 40
0.5704466434292804
 40
0.6071826965753526
 40
0.6449414673186308
 40
0.6838554483441969
 40
0.7236558167481997
 40
0.764920340397866
 40
0.8080154065420613
 40
0.852800754874335
 40
0.8995334310361868
 40
0.94864251932892
 40
1.0
 40
1.0
 40
1.0
 40
1.0
 10
174.9221367860451
 20
-23.04565899188702
 30
0.0
 10
174.8279780253638
 20
-23.04453003730625
 30
0.0
 10
174.6447449228185
 20
-23.04233308984251
 30
0.0
 10
174.3775155204379
 20
-23.03225643121328
 30
0.0
 10
174.1251520755429
 20
-23.01252697933545
 30
0.0
 10
173.8879845811059
 20
-22.98263983015029
 30
0.0
 10
173.665358077558
 20
-22.94786884597323
 30
0.0
 10
173.4574700204699
 20
-22.90512648313218
 30
0.0
 10
173.2648777901337
 20
-22.85252172773063
 30
0.0
 10
173.08529265286
 20
-22.79289125551618
 30
0.0
 10
172.9179442557705
 20
-22.72031766991389
 30
0.0
 10
172.7584736810306
 20
-22.63794235546187
 30
0.0
 10
172.608464102868
 20
-22.53954072177439
 30
0.0
 10
172.465998728364
 20
-22.42968149913186
 30
0.0
 10
172.3308604333845
 20
-22.30723666554695
 30
0.0
 10
172.2045167967634
 20
-22.17091043700837
 30
0.0
 10
172.0855965622185
 20
-22.02220685801089
 30
0.0
 10
171.9737315913241
 20
-21.86168918980262
 30
0.0
 10
171.8735173852695
 20
-21.68744086921925
 30
0.0
 10
171.7865561525247
 20
-21.49950716608321
 30
0.0
 10
171.7145939459664
 20
-21.29774382328823
 30
0.0
 10
171.6541855206068
 20
-21.08331386781973
 30
0.0
 10
171.6086797960577
 20
-20.85562267208456
 30
0.0
 10
171.5744579811017
 20
-20.61556865889735
 30
0.0
 10
171.5542763939577
 20
-20.36244474164072
 30
0.0
 10
171.5522529009911
 20
-20.18926406958655
 30
0.0
 10
171.5512185121194
 20
-20.10073588444637
 30
0.0
  0
SPLINE
  5
B8
330
1F
100
AcDbEntity
  8
0
  6
Continuous
 62
     7
370
    25
100
AcDbSpline
210
0.0
220
0.0
230
1.0
 70
     8
 71
     3
 72
    31
 73
    27
 74
     0
 42
0.000000001
 43
0.00000001
 40
0.0
 40
0.0
 40
0.0
 40
0.0
 40
0.0497117110988923
 40
0.0968593904936602
 40
0.1421738333918174
 40
0.1857517275056766
 40
0.2272213176895419
 40
0.2670724578338612
 40
0.3056901793414449
 40
0.3429974263452971
 40
0.3793735671704332
 40
0.4149998294920803
 40
0.4498136152616932
 40
0.4845393125111816
 40
0.5190070106215391
 40
0.553713802671952
 40
0.5890849237111325
 40
0.6250984061960128
 40
0.6626301581857199
 40
0.7026959183210422
 40
0.7451786872997197
 40
0.7905047156189549
 40
0.8382417235339722
 40
0.8892908967268072
 40
0.9431957797708851
 40
1.0
 40
1.0
 40
1.0
 40
1.0
 10
171.5512185121194
 20
-20.10073588444637
 30
0.0
 10
171.5524907865076
 20
-20.01427751953829
 30
0.0
 10
171.5549697138884
 20
-19.84582014112667
 30
0.0
 10
171.5717426847738
 20
-19.59896273156237
 30
0.0
 10
171.6014375468719
 20
-19.3641393211562
 30
0.0
 10
171.6405002178211
 20
-19.14067679750229
 30
0.0
 10
171.6929958804532
 20
-18.92967572940401
 30
0.0
 10
171.758309816451
 20
-18.7313882350478
 30
0.0
 10
171.8336429493544
 20
-18.54452217283962
 30
0.0
 10
171.9196539376733
 20
-18.36885049978731
 30
0.0
 10
172.0197244112177
 20
-18.20699545761816
 30
0.0
 10
172.1265976321882
 20
-18.054786854724
 30
0.0
 10
172.2470280217348
 20
-17.91672731181388
 30
0.0
 10
172.3764785734772
 20
-17.79015870174908
 30
0.0
 10
172.5160132446935
 20
-17.67489196426202
 30
0.0
 10
172.6669627814653
 20
-17.57318579166362
 30
0.0
 10
172.8271622057773
 20
-17.48109806857146
 30
0.0
 10
173.0007520982883
 20
-17.40466877796451
 30
0.0
 10
173.1860272539209
 20
-17.3356568077146
 30
0.0
 10
173.3868909308823
 20
-17.27785352693929
 30
0.0
 10
173.6038076221963
 20
-17.22824049524851
 30
0.0
 10
173.8364172903154
 20
-17.18949172747414
 30
0.0
 10
174.084861529646
 20
-17.15567998257777
 30
0.0
 10
174.3497881823412
 20
-17.13602337326473
 30
0.0
 10
174.6307666640605
 20
-17.12106425326724
 30
0.0
 10
174.8233323910791
 20
-17.11954780179785
 30
0.0
 10
174.9221367860451
 20
-17.11876971905048
 30
0.0
  0
LINE
  5
B9
330
1F
100
AcDbEntity
  8
0
  6
Continuous
 62
     7
370
    25
100
AcDbLine
 10
174.922136786
 20
-17.1187697191
 30
0.0
 11
179.3549560547
 21
-17.1187697191
 31
0.0
  0
LINE
  5
BA
330
1F
100
AcDbEntity
  8
0
  6
Continuous
 62
     7
370
    25
100
AcDbLine
 10
179.3549560547
 20
-17.1187697191
 30
0.0
 11
179.3549560547
 21
-18.2053660857
 31
0.0
  0
LINE
  5
BB
330
1F
100
AcDbEntity
  8
0
  6
Continuous
 62
     7
370
    25
100
AcDbLine
 10
179.3549560547
 20
-18.2053660857
 30
0.0
 11
174.9730709907
 21
-18.2053660857
 31
0.0
  0
SPLINE
  5
BC
330
1F
100
AcDbEntity
  8
0
  6
Continuous
 62
     7
370
    25
100
AcDbSpline
210
0.0
220
0.0
230
1.0
 70
     8
 71
     3
 72
    23
 73
    19
 74
     0
 42
0.000000001
 43
0.00000001
 40
0.0
 40
0.0
 40
0.0
 40
0.0
 40
0.0681353881132556
 40
0.1314682363254058
 40
0.1905001738929368
 40
0.2452585731317603
 40
0.2954227570416329
 40
0.3411102337758646
 40
0.3827930623320166
 40
0.4201855338650586
 40
0.4895977156807669
 40
0.5562886770295058
 40
0.6237343717997946
 40
0.6924078074374246
 40
0.7635668524144018
 40
0.8373805803327689
 40
0.9159316212636911
 40
1.0
 40
1.0
 40
1.0
 40
1.0
 10
174.9730709907336
 20
-18.20536608573719
 30
0.0
 10
174.8933216402886
 20
-18.2060760844544
 30
0.0
 10
174.7394440923443
 20
-18.20744603745137
 30
0.0
 10
174.5165351356325
 20
-18.21459349359846
 30
0.0
 10
174.309677123524
 20
-18.22888741194647
 30
0.0
 10
174.1185535884766
 20
-18.24655774416097
 30
0.0
 10
173.9438569413188
 20
-18.27085368007111
 30
0.0
 10
173.7858357501423
 20
-18.30195925252848
 30
0.0
 10
173.6439755260985
 20
-18.33687435100546
 30
0.0
 10
173.4780026178887
 20
-18.38905343304413
 30
0.0
 10
173.2934559413436
 20
-18.4762024496421
 30
0.0
 10
173.095481423416
 20
-18.61076048271249
 30
0.0
 10
172.9265914011288
 20
-18.77948066821724
 30
0.0
 10
172.7850058060405
 20
-18.97772704278437
 30
0.0
 10
172.6736407344218
 20
-19.20290626573613
 30
0.0
 10
172.5955707278377
 20
-19.45342936107817
 30
0.0
 10
172.5466455740378
 20
-19.72685520523101
 30
0.0
 10
172.5416275358205
 20
-19.91736094313205
 30
0.0
 10
172.5390333909254
 20
-20.01584554329897
 30
0.0
  0
LINE
  5
BD
330
1F
100
AcDbEntity
  8
0
  6
Continuous
 62
     7
370
    25
100
AcDbLine
 10
175.1073520758
 20
14.9852138421
 30
0.0
 11
171.65
 21
14.9852138421
 31
0.0
  0
LINE
  5
BE
330
1F
100
AcDbEntity
  8
0
  6
Continuous
 62
     7
370
    25
100
AcDbLine
 10
171.65
 20
14.9852138421
 30
0.0
 11
171.65
 21
16.0718102088
 31
0.0
  0
LINE
  5
BF
330
1F
100
AcDbEntity
  8
0
  6
Continuous
 62
     7
370
    25
100
AcDbLine
 10
171.65
 20
16.0718102088
 30
0.0
 11
179.3549560547
 21
16.0718102088
 31
0.0
  0
LINE
  5
C0
330
1F
100
AcDbEntity
  8
0
  6
Continuous
 62
     7
370
    25
100
AcDbLine
 10
179.3549560547
 20
16.0718102088
 30
0.0
 11
179.3549560547
 21
12.7286742284
 31
0.0
  0
SPLINE
  5
C1
330
1F
100
AcDbEntity
  8
0
  6
Continuous
 62
     7
370
    25
100
AcDbSpline
210
0.0
220
0.0
230
1.0
 70
     8
 71
     3
 72
    27
 73
    23
 74
     0
 42
0.000000001
 43
0.00000001
 40
0.0
 40
0.0
 40
0.0
 40
0.0
 40
0.0621061165292725
 40
0.1201991193133532
 40
0.1743664957113209
 40
0.2250163311637259
 40
0.2723261893682165
 40
0.3163514369568898
 40
0.3568284293346185
 40
0.3939333102717021
 40
0.4295405551075572
 40
0.4646304759106848
 40
0.499980005092631
 40
0.5354226207535271
 40
0.5715899210807128
 40
0.608131082842468
 40
0.6458808167766361
 40
0.6847317079287517
 40
0.7626039808122821
 40
0.8405143247750522
 40
0.9190816363226305
 40
0.9999999999999999
 40
0.9999999999999999
 40
0.9999999999999999
 40
0.9999999999999999
 10
179.3549560546875
 20
12.72867422837477
 30
0.0
 10
179.3543421687959
 20
12.64995323769187
 30
0.0
 10
179.3531540645053
 20
12.49759797414711
 30
0.0
 10
179.3446641557522
 20
12.27665749637325
 30
0.0
 10
179.3266273383743
 20
12.07091898188606
 30
0.0
 10
179.3064824201226
 20
11.87908577709271
 30
0.0
 10
179.2767380513496
 20
11.70148614270598
 30
0.0
 10
179.2418425523919
 20
11.5380354210231
 30
0.0
 10
179.200600095159
 20
11.38936054265239
 30
0.0
 10
179.151849918173
 20
11.25433005508057
 30
0.0
 10
179.0967140641096
 20
11.12904154727389
 30
0.0
 10
179.0286492330531
 20
11.01293972516891
 30
0.0
 10
178.954187737582
 20
10.90104854648548
 30
0.0
 10
178.8659988101672
 20
10.79779432022602
 30
0.0
 10
178.771171835371
 20
10.69865730542126
 30
0.0
 10
178.6650189882896
 20
10.60702521654341
 30
0.0
 10
178.5490394093588
 20
10.52245085468578
 30
0.0
 10
178.3832302701131
 20
10.41809364435252
 30
0.0
 10
178.1612777559478
 20
10.30828608485954
 30
0.0
 10
177.8786992915763
 20
10.214565598905
 30
0.0
 10
177.5824888885638
 20
10.15464539739535
 30
0.0
 10
177.3801292470216
 20
10.14819412353447
 30
0.0
 10
177.2774578876984
 20
10.14492093599759
 30
0.0
  0
SPLINE
  5
C2
330
1F
100
AcDbEntity
  8
0
  6
Continuous
 62
     7
370
    25
100
AcDbSpline
210
0.0
220
0.0
230
1.0
 70
     8
 71
     3
 72
    23
 73
    19
 74
     0
 42
0.000000001
 43
0.00000001
 40
0.0
 40
0.0
 40
0.0
 40
0.0
 40
0.0614177481322511
 40
0.1213042644096609
 40
0.1792376967343424
 40
0.2359560699971114
 40
0.2922390962013159
 40
0.3482231672652666
 40
0.4044755521318202
 40
0.4620607339620616
 40
0.5207138638482174
 40
0.5803927339450896
 40
0.6422449964543184
 40
0.7063601780770846
 40
0.774296532950605
 40
0.8452599260881218
 40
0.9206206845448843
 40
1.0
 40
1.0
 40
1.0
 40
1.0
 10
177.2774578876984
 20
10.14492093599759
 30
0.0
 10
177.2115484672786
 20
10.1464286731567
 30
0.0
 10
177.0813728420753
 20
10.1494065574421
 30
0.0
 10
176.8899796229203
 20
10.17221712240324
 30
0.0
 10
176.7071118852815
 20
10.21349186869713
 30
0.0
 10
176.5311644228583
 20
10.26641574136592
 30
0.0
 10
176.3646435653254
 20
10.33886302892591
 30
0.0
 10
176.2040980844295
 20
10.42275223389145
 30
0.0
 10
176.0541245837071
 20
10.52682362198499
 30
0.0
 10
175.9097296047124
 20
10.64303240935085
 30
0.0
 10
175.777358160115
 20
10.77813310264652
 30
0.0
 10
175.6552310912945
 20
10.92852181217382
 30
0.0
 10
175.5497165092929
 20
11.09798352428177
 30
0.0
 10
175.454892756987
 20
11.28339985133865
 30
0.0
 10
175.3719154503101
 20
11.48510723790163
 30
0.0
 10
175.3021489677805
 20
11.7044470015343
 30
0.0
 10
175.2475290220511
 20
11.94064248558443
 30
0.0
 10
175.220168894802
 20
12.10443822946417
 30
0.0
 10
175.2061335637019
 20
12.18846296652769
 30
0.0
  0
SPLINE
  5
C3
330
1F
100
AcDbEntity
  8
0
  6
Continuous
 62
     7
370
    25
100
AcDbSpline
210
0.0
220
0.0
230
1.0
 70
     8
 71
     3
 72
    11
 73
     7
 74
     0
 42
0.000000001
 43
0.00000001
 40
0.0
 40
0.0
 40
0.0
 40
0.0
 40
0.2931027018690639
 40
0.5547385117716536
 40
0.7918948234355778
 40
1.0
 40
1.0
 40
1.0
 40
1.0
 10
175.2061335637019
 20
12.18846296652769
 30
0.0
 10
175.1749205124115
 20
12.12635533372673
 30
0.0
 10
175.1158453776199
 20
12.00880781345495
 30
0.0
 10
175.0210047250983
 20
11.84667127164099
 30
0.0
 10
174.9271490714503
 20
11.70744149161123
 30
0.0
 10
174.8585185686731
 20
11.62713407255539
 30
0.0
 10
174.8264422196608
 20
11.5896001962515
 30
0.0
  0
SPLINE
  5
C4
330
1F
100
AcDbEntity
  8
0
  6
Continuous
 62
     7
370
    25
100
AcDbSpline
210
0.0
220
0.0
230
1.0
 70
     8
 71
     3
 72
    11
 73
     7
 74
     0
 42
0.000000001
 43
0.00000001
 40
0.0
 40
0.0
 40
0.0
 40
0.0
 40
0.229542643844057
 40
0.4707541631011917
 40
0.728168497232976
 40
0.9999999999999999
 40
0.9999999999999999
 40
0.9999999999999999
 40
0.9999999999999999
 10
174.8264422196608
 20
11.5896001962515
 30
0.0
 10
174.7551894114584
 20
11.51669079147288
 30
0.0
 10
174.6090616352327
 20
11.36716560846558
 30
0.0
 10
174.3578549643802
 20
11.16311896732376
 30
0.0
 10
174.0815995234689
 20
10.96121724827004
 30
0.0
 10
173.880287096865
 20
10.83999967259112
 30
0.0
 10
173.7768889109293
 20
10.77773984273275
 30
0.0
  0
LINE
  5
C5
330
1F
100
AcDbEntity
  8
0
  6
Continuous
 62
     7
370
    25
100
AcDbLine
 10
173.7768889109
 20
10.7777398427
 30
0.0
 11
171.65
 21
9.51364549
 31
0.0
  0
LINE
  5
C6
330
1F
100
AcDbEntity
  8
0
  6
Continuous
 62
     7
370
    25
100
AcDbLine
 10
171.65
 20
9.51364549
 30
0.0
 11
171.65
 21
10.7592183138
 31
0.0
  0
LINE
  5
C7
330
1F
100
AcDbEntity
  8
0
  6
Continuous
 62
     7
370
    25
100
AcDbLine
 10
171.65
 20
10.7592183138
 30
0.0
 11
173.2768076285
 21
11.7192508991
 31
0.0
  0
SPLINE
  5
C8
330
1F
100
AcDbEntity
  8
0
  6
Continuous
 62
     7
370
    25
100
AcDbSpline
210
0.0
220
0.0
230
1.0
 70
     8
 71
     3
 72
    21
 73
    17
 74
     0
 42
0.000000001
 43
0.00000001
 40
0.0
 40
0.0
 40
0.0
 40
0.0
 40
0.0807692180630272
 40
0.1565174824176858
 40
0.2279004148225882
 40
0.2942656778107666
 40
0.3568137356501514
 40
0.4143493211949535
 40
0.4675789203754861
 40
0.5163175384894696
 40
0.604285514293782
 40
0.681525348928509
 40
0.7476063910689492
 40
0.8044293290602437
 40
0.9054203970298775
 40
1.0
 40
1.0
 40
1.0
 40
1.0
 10
173.2768076285338
 20
11.7192508990948
 30
0.0
 10
173.3338851695573
 20
11.75377026910776
 30
0.0
 10
173.4444920720114
 20
11.82066314016238
 30
0.0
 10
173.6060438844785
 20
11.91726422749916
 30
0.0
 10
173.7547209690172
 20
12.0120640550872
 30
0.0
 10
173.8950293900908
 20
12.09970208619244
 30
0.0
 10
174.0233210136586
 20
12.18486615549015
 30
0.0
 10
174.1434230739992
 20
12.26277379201687
 30
0.0
 10
174.250587871586
 20
12.33941906704092
 30
0.0
 10
174.3796556050048
 20
12.42855852545909
 30
0.0
 10
174.5201358528931
 20
12.53602905025258
 30
0.0
 10
174.6635462218483
 20
12.66228861905087
 30
0.0
 10
174.7806446563037
 20
12.77944378323968
 30
0.0
 10
174.8937677440361
 20
12.92602086151208
 30
0.0
 10
174.9991754648182
 20
13.10790307662201
 30
0.0
 10
175.0481621232089
 20
13.26218550004901
 30
0.0
 10
175.0718524786142
 20
13.33679776313977
 30
0.0
  0
SPLINE
  5
C9
330
1F
100
AcDbEntity
  8
0
  6
Continuous
 62
     7
370
    25
100
AcDbSpline
210
0.0
220
0.0
230
1.0
 70
     8
 71
     3
 72
    11
 73
     7
 74
     0
 42
0.000000001
 43
0.00000001
 40
0.0
 40
0.0
 40
0.0
 40
0.0
 40
0.1774946570818508
 40
0.4052256231013765
 40
0.6783881083348609
 40
1.0
 40
1.0
 40
1.0
 40
1.0
 10
175.0718524786142
 20
13.33679776313977
 30
0.0
 10
175.0775002554736
 20
13.36811619058414
 30
0.0
 10
175.0903942993544
 20
13.43961709931204
 30
0.0
 10
175.0988154199703
 20
13.56102546391127
 30
0.0
 10
175.1077533128688
 20
13.70812659220576
 30
0.0
 10
175.1074928926474
 20
13.81473328674451
 30
0.0
 10
175.1073520758213
 20
13.87237864274245
 30
0.0
  0
LINE
  5
CA
330
1F
100
AcDbEntity
  8
0
  6
Continuous
 62
     7
370
    25
100
AcDbLine
 10
175.1073520758
 20
13.8723786427
 30
0.0
 11
175.1073520758
 21
14.9852138421
 31
0.0
  0
LINE
  5
CB
330
1F
100
AcDbEntity
  8
0
  6
Continuous
 62
     7
370
    25
100
AcDbLine
 10
179.3549560547
 20
17.8498769907
 30
0.0
 11
171.65
 21
17.8498769907
 31
0.0
  0
LINE
  5
CC
330
1F
100
AcDbEntity
  8
0
  6
Continuous
 62
     7
370
    25
100
AcDbLine
 10
171.65
 20
17.8498769907
 30
0.0
 11
171.65
 21
18.9364733574
 31
0.0
  0
LINE
  5
CD
330
1F
100
AcDbEntity
  8
0
  6
Continuous
 62
     7
370
    25
100
AcDbLine
 10
171.65
 20
18.9364733574
 30
0.0
 11
179.3549560547
 21
18.9364733574
 31
0.0
  0
LINE
  5
CE
330
1F
100
AcDbEntity
  8
0
  6
Continuous
 62
     7
370
    25
100
AcDbLine
 10
179.3549560547
 20
18.9364733574
 30
0.0
 11
179.3549560547
 21
17.8498769907
 31
0.0
  0
LINE
  5
CF
330
1F
100
AcDbEntity
  8
0
  6
Continuous
 62
     7
370
    25
100
AcDbLine
 10
177.4148258943
 20
25.0069044798
 30
0.0
 11
171.65
 21
26.6753855485
 31
0.0
  0
LINE
  5
D0
330
1F
100
AcDbEntity
  8
0
  6
Continuous
 62
     7
370
    25
100
AcDbLine
 10
171.65
 20
26.6753855485
 30
0.0
 11
171.65
 21
27.9610883517
 31
0.0
  0
LINE
  5
D1
330
1F
100
AcDbEntity
  8
0
  6
Continuous
 62
     7
370
    25
100
AcDbLine
 10
171.65
 20
27.9610883517
 30
0.0
 11
179.3549560547
 21
29.9012185121
 31
0.0
  0
LINE
  5
D2
330
1F
100
AcDbEntity
  8
0
  6
Continuous
 62
     7
370
    25
100
AcDbLine
 10
179.3549560547
 20
29.9012185121
 30
0.0
 11
179.3549560547
 21
28.7791225482
 31
0.0
  0
LINE
  5
D3
330
1F
100
AcDbEntity
  8
0
  6
Continuous
 62
     7
370
    25
100
AcDbLine
 10
179.3549560547
 20
28.7791225482
 30
0.0
 11
174.2877744186
 21
27.6354181339
 31
0.0
  0
SPLINE
  5
D4
330
1F
100
AcDbEntity
  8
0
  6
Continuous
 62
     7
370
    25
100
AcDbSpline
210
0.0
220
0.0
230
1.0
 70
     8
 71
     3
 72
     9
 73
     5
 74
     0
 42
0.000000001
 43
0.00000001
 40
0.0
 40
0.0
 40
0.0
 40
0.0
 40
0.502565389921809
 40
0.9999999999999999
 40
0.9999999999999999
 40
0.9999999999999999
 40
0.9999999999999999
 10
174.2877744185619
 20
27.63541813385792
 30
0.0
 10
174.0264393939445
 20
27.57614425766855
 30
0.0
 10
173.5064373606611
 20
27.45820164288048
 30
0.0
 10
172.9861463554848
 20
27.3415404154576
 30
0.0
 10
172.7273356021979
 20
27.28350908328325
 30
0.0
  0
SPLINE
  5
D5
330
1F
100
AcDbEntity
  8
0
  6
Continuous
 62
     7
370
    25
100
AcDbSpline
210
0.0
220
0.0
230
1.0
 70
     8
 71
     3
 72
    15
 73
    11
 74
     0
 42
0.000000001
 43
0.00000001
 40
0.0
 40
0.0
 40
0.0
 40
0.0
 40
0.2042261540779066
 40
0.3855417648063241
 40
0.5445479239626404
 40
0.6809444004243496
 40
0.7947315708214939
 40
0.8862118064819342
 40
0.9537405078414399
 40
1.0
 40
1.0
 40
1.0
 40
1.0
 10
172.7273356021979
 20
27.28350908328325
 30
0.0
 10
172.820397543514
 20
27.25603306832538
 30
0.0
 10
172.9960815309705
 20
27.20416335876475
 30
0.0
 10
173.245130512713
 20
27.13404556357023
 30
0.0
 10
173.4624935392308
 20
27.07035981688592
 30
0.0
 10
173.6491839240047
 20
27.01610282921196
 30
0.0
 10
173.8054639563162
 20
26.97217115573343
 30
0.0
 10
173.9294132745184
 20
26.93424104812927
 30
0.0
 10
174.0234592110904
 20
26.90838836053357
 30
0.0
 10
174.0753070479755
 20
26.89306801120832
 30
0.0
 10
174.0963852857932
 20
26.88683967101268
 30
0.0
  0
LINE
  5
D6
330
1F
100
AcDbEntity
  8
0
  6
Continuous
 62
     7
370
    25
100
AcDbLine
 10
174.0963852858
 20
26.886839671
 30
0.0
 11
179.3549560547
 21
25.3649873734
 31
0.0
  0
LINE
  5
D7
330
1F
100
AcDbEntity
  8
0
  6
Continuous
 62
     7
370
    25
100
AcDbLine
 10
179.3549560547
 20
25.3649873734
 30
0.0
 11
179.3549560547
 21
24.0576761197
 31
0.0
  0
LINE
  5
D8
330
1F
100
AcDbEntity
  8
0
  6
Continuous
 62
     7
370
    25
100
AcDbLine
 10
179.3549560547
 20
24.0576761197
 30
0.0
 11
175.4947607236
 21
22.9571886063
 31
0.0
  0
SPLINE
  5
D9
330
1F
100
AcDbEntity
  8
0
  6
Continuous
 62
     7
370
    25
100
AcDbSpline
210
0.0
220
0.0
230
1.0
 70
     8
 71
     3
 72
    11
 73
     7
 74
     0
 42
0.000000001
 43
0.00000001
 40
0.0
 40
0.0
 40
0.0
 40
0.0
 40
0.2603861425240812
 40
0.5134251205046605
 40
0.7599736215259969
 40
1.0
 40
1.0
 40
1.0
 40
1.0
 10
175.494760723603
 20
22.95718860626221
 30
0.0
 10
175.2562929958508
 20
22.89645701971993
 30
0.0
 10
174.7860862457111
 20
22.77670747453812
 30
0.0
 10
174.0856958735675
 20
22.61760087614509
 30
0.0
 10
173.4022971136482
 20
22.47075057073755
 30
0.0
 10
172.9503032414991
 20
22.38616203729135
 30
0.0
 10
172.7273356021979
 20
22.3444346892528
 30
0.0
  0
SPLINE
  5
DA
330
1F
100
AcDbEntity
  8
0
  6
Continuous
 62
     7
370
    25
100
AcDbSpline
210
0.0
220
0.0
230
1.0
 70
     8
 71
     3
 72
    11
 73
     7
 74
     0
 42
0.000000001
 43
0.00000001
 40
0.0
 40
0.0
 40
0.0
 40
0.0
 40
0.2155331472493875
 40
0.4533588666114169
 40
0.7155332054647567
 40
1.0
 40
1.0
 40
1.0
 40
1.0
 10
172.7273356021979
 20
22.3444346892528
 30
0.0
 10
172.8415445921152
 20
22.31867876307746
 30
0.0
 10
173.0817751964863
 20
22.26450297782867
 30
0.0
 10
173.4610783725896
 20
22.1796592855258
 30
0.0
 10
173.8766497390916
 20
22.08542765451742
 30
0.0
 10
174.1663453564496
 20
22.02026290521878
 30
0.0
 10
174.3171001727764
 20
21.9863517956856
 30
0.0
  0
LINE
  5
DB
330
1F
100
AcDbEntity
  8
0
  6
Continuous
 62
     7
370
    25
100
AcDbLine
 10
174.3171001728
 20
21.9863517957
 30
0.0
 11
179.3549560547
 21
20.8488212243
 31
0.0
  0
LINE
  5
DC
330
1F
100
AcDbEntity
  8
0
  6
Continuous
 62
     7
370
    25
100
AcDbLine
 10
179.3549560547
 20
20.8488212243
 30
0.0
 11
179.3549560547
 21
19.7267252604
 31
0.0
  0
LINE
  5
DD
330
1F
100
AcDbEntity
  8
0
  6
Continuous
 62
     7
370
    25
100
AcDbLine
 10
179.3549560547
 20
19.7267252604
 30
0.0
 11
171.65
 21
21.6683988816
 31
0.0
  0
LINE
  5
DE
330
1F
100
AcDbEntity
  8
0
  6
Continuous
 62
     7
370
    25
100
AcDbLine
 10
171.65
 20
21.6683988816
 30
0.0
 11
171.65
 21
22.8630375006
 31
0.0
  0
LINE
  5
DF
330
1F
100
AcDbEntity
  8
0
  6
Continuous
 62
     7
370
    25
100
AcDbLine
 10
171.65
 20
22.8630375006
 30
0.0
 11
177.5383027541
 21
24.4728670609
 31
0.0
  0
SPLINE
  5
E0
330
1F
100
AcDbEntity
  8
0
  6
Continuous
 62
     7
370
    25
100
AcDbSpline
210
0.0
220
0.0
230
1.0
 70
     8
 71
     3
 72
    15
 73
    11
 74
     0
 42
0.000000001
 43
0.00000001
 40
0.0
 40
0.0
 40
0.0
 40
0.0
 40
0.1952799535336465
 40
0.3709591958780585
 40
0.5263022405927674
 40
0.6620399845915286
 40
0.7769964217729657
 40
0.8711733101150912
 40
0.9457569341303121
 40
1.0
 40
1.0
 40
1.0
 40
1.0
 10
177.5383027541332
 20
24.4728670609303
 30
0.0
 10
177.5958663860586
 20
24.48903206864779
 30
0.0
 10
177.7052158519125
 20
24.5197395639935
 30
0.0
 10
177.8612612459356
 20
24.55998989842681
 30
0.0
 10
177.9984967496457
 20
24.59990494017702
 30
0.0
 10
178.118695906891
 20
24.63165342004921
 30
0.0
 10
178.2206474837175
 20
24.65912907115591
 30
0.0
 10
178.304052983179
 20
24.68345993547737
 30
0.0
 10
178.3705447839802
 20
24.69910889318538
 30
0.0
 10
178.4083367456015
 20
24.71042549256034
 30
0.0
 10
178.4242492235624
 20
24.71519039838742
 30
0.0
  0
SPLINE
  5
E1
330
1F
100
AcDbEntity
  8
0
  6
Continuous
 62
     7
370
    25
100
AcDbSpline
210
0.0
220
0.0
230
1.0
 70
     8
 71
     3
 72
    11
 73
     7
 74
     0
 42
0.000000001
 43
0.00000001
 40
0.0
 40
0.0
 40
0.0
 40
0.0
 40
0.2994325835200442
 40
0.5657804253500597
 40
0.7996368141693483
 40
1.0
 40
1.0
 40
1.0
 40
1.0
 10
178.4242492235624
 20
24.71519039838742
 30
0.0
 10
178.3233399649965
 20
24.74376052535204
 30
0.0
 10
178.1326710586203
 20
24.79774402439654
 30
0.0
 10
177.8642491455021
 20
24.87769109199449
 30
0.0
 10
177.6282249281531
 20
24.94477508187716
 30
0.0
 10
177.4822045136561
 20
24.98728774123825
 30
0.0
 10
177.4148258942824
 20
25.00690447978484
 30
0.0
  0
LINE
  5
E2
330
1F
100
AcDbEntity
  8
0
  6
Continuous
 62
     7
370
    25
100
AcDbLine
 10
178.4659226638
 20
12.6885442489
 30
0.0
 11
178.4659226638
 21
14.9852138421
 31
0.0
  0
LINE
  5
E3
330
1F
100
AcDbEntity
  8
0
  6
Continuous
 62
     7
370
    25
100
AcDbLine
 10
178.4659226638
 20
14.9852138421
 30
0.0
 11
175.9963854667
 21
14.9852138421
 31
0.0
  0
LINE
  5
E4
330
1F
100
AcDbEntity
  8
0
  6
Continuous
 62
     7
370
    25
100
AcDbLine
 10
175.9963854667
 20
14.9852138421
 30
0.0
 11
175.9963854667
 21
12.9216068219
 31
0.0
  0
SPLINE
  5
E5
330
1F
100
AcDbEntity
  8
0
  6
Continuous
 62
     7
370
    25
100
AcDbSpline
210
0.0
220
0.0
230
1.0
 70
     8
 71
     3
 72
    19
 73
    15
 74
     0
 42
0.000000001
 43
0.00000001
 40
0.0
 40
0.0
 40
0.0
 40
0.0
 40
0.1288172496139545
 40
0.2408117658933634
 40
0.3379313496265694
 40
0.4205906408775354
 40
0.4945039292430393
 40
0.5659986308697242
 40
0.6371279226505366
 40
0.7094472666673751
 40
0.7822163217272267
 40
0.854333945677808
 40
0.9261950543250346
 40
1.0
 40
1.0
 40
1.0
 40
1.0
 10
175.9963854667467
 20
12.92160682189159
 30
0.0
 10
175.9980109527032
 20
12.81813110721492
 30
0.0
 10
176.0010496462383
 20
12.62469296400783
 30
0.0
 10
176.0268148672206
 20
12.35418035580879
 30
0.0
 10
176.0682077307095
 20
12.12322438071126
 30
0.0
 10
176.1276150188917
 20
11.92751422124694
 30
0.0
 10
176.2104660035764
 20
11.76317774284214
 30
0.0
 10
176.3134053244541
 20
11.6219972456206
 30
0.0
 10
176.4386548107086
 20
11.50189232257774
 30
0.0
 10
176.5826752693322
 20
11.40373351390668
 30
0.0
 10
176.7398166026193
 20
11.32642118630175
 30
0.0
 10
176.9060506388572
 20
11.27364311014878
 30
0.0
 10
177.0777813324306
 20
11.23687293651145
 30
0.0
 10
177.1949432735942
 20
11.23331832543296
 30
0.0
 10
177.2543059764764
 20
11.23151730268429
 30
0.0
  0
SPLINE
  5
E6
330
1F
100
AcDbEntity
  8
0
  6
Continuous
 62
     7
370
    25
100
AcDbSpline
210
0.0
220
0.0
230
1.0
 70
     8
 71
     3
 72
    23
 73
    19
 74
     0
 42
0.000000001
 43
0.00000001
 40
0.0
 40
0.0
 40
0.0
 40
0.0
 40
0.0603255293380401
 40
0.1181599905079934
 40
0.174186676296376
 40
0.229538818145793
 40
0.2834498146386326
 40
0.3378265119505884
 40
0.3926321025334811
 40
0.4484655764151907
 40
0.5059654091573018
 40
0.565058532229006
 40
0.6266544786228418
 40
0.6922320330373647
 40
0.7611310781257606
 40
0.8353098773394204
 40
0.9153255598322015
 40
1.0
 40
1.0
 40
1.0
 40
1.0
 10
177.2543059764764
 20
11.23151730268429
 30
0.0
 10
177.2975550167268
 20
11.23295140622506
 30
0.0
 10
177.3822671815688
 20
11.23576039377352
 30
0.0
 10
177.5066011201802
 20
11.25048603552557
 30
0.0
 10
177.624747100582
 20
11.27911617925624
 30
0.0
 10
177.7373296557058
 20
11.31692221379701
 30
0.0
 10
177.8435241988219
 20
11.36743874770671
 30
0.0
 10
177.9441536202407
 20
11.42745032911828
 30
0.0
 10
178.0386601910822
 20
11.49906267202809
 30
0.0
 10
178.1273317928446
 20
11.58109049030303
 30
0.0
 10
178.2080142848339
 20
11.67527333244821
 30
0.0
 10
178.2776257758264
 20
11.78285228006058
 30
0.0
 10
178.3367805257099
 20
11.90297886430008
 30
0.0
 10
178.3837296896458
 20
12.03579271277409
 30
0.0
 10
178.4212813784087
 20
12.18087543759332
 30
0.0
 10
178.4462633057542
 20
12.33905296274669
 30
0.0
 10
178.4643401451156
 20
12.50960190863286
 30
0.0
 10
178.4653853024027
 20
12.62778243772384
 30
0.0
 10
178.465922663762
 20
12.68854424892327
 30
0.0
  0
SPLINE
  5
E7
330
1F
100
AcDbEntity
  8
0
  6
Continuous
 62
     7
370
    25
100
AcDbSpline
210
0.0
220
0.0
230
1.0
 70
     8
 71
     3
 72
    31
 73
    27
 74
     0
 42
0.000000001
 43
0.00000001
 40
0.0
 40
0.0
 40
0.0
 40
0.0
 40
0.0508529877739496
 40
0.0997551591409434
 40
0.1474416256593683
 40
0.1940910203865051
 40
0.2391773799396065
 40
0.2833474667820906
 40
0.3265859608079079
 40
0.3689462354375677
 40
0.4105829499515162
 40
0.4510627628849016
 40
0.4908901068991299
 40
0.5302704741980243
 40
0.5689310352099183
 40
0.6075732765741216
 40
0.6464165588608533
 40
0.685676872935346
 40
0.7247971620499734
 40
0.7635126299932928
 40
0.8021731910051869
 40
0.8410696053101157
 40
0.8796461298287732
 40
0.9190684293834052
 40
0.9590967586734683
 40
1.0
 40
1.0
 40
1.0
 40
1.0
 10
175.4978476450993
 20
-14.64923252203525
 30
0.0
 10
175.5740269486677
 20
-14.64857646456914
 30
0.0
 10
175.7234631742144
 20
-14.6472895172372
 30
0.0
 10
175.9437338754086
 20
-14.630246006428
 30
0.0
 10
176.1571529162236
 20
-14.60826209037743
 30
0.0
 10
176.3634448185752
 20
-14.57479113832568
 30
0.0
 10
176.5617556073431
 20
-14.52866426088817
 30
0.0
 10
176.7535938503196
 20
-14.47756235279967
 30
0.0
 10
176.9373106276119
 20
-14.4136655272256
 30
0.0
 10
177.1136110377295
 20
-14.34115039058277
 30
0.0
 10
177.2816455620211
 20
-14.2600623507785
 30
0.0
 10
177.4397971774495
 20
-14.16840655089034
 30
0.0
 10
177.5884404196049
 20
-14.06796549798413
 30
0.0
 10
177.7271608365156
 20
-13.95853897680377
 30
0.0
 10
177.8562482506599
 20
-13.8405120177993
 30
0.0
 10
177.9753926013011
 20
-13.71355000847641
 30
0.0
 10
178.0852914850516
 20
-13.57734245679224
 30
0.0
 10
178.1849937547354
 20
-13.43267823494738
 30
0.0
 10
178.274801118468
 20
-13.28183951824732
 30
0.0
 10
178.3515784796923
 20
-13.12504731107467
 30
0.0
 10
178.419495674691
 20
-12.9644742309084
 30
0.0
 10
178.4703017987268
 20
-12.79790679203549
 30
0.0
 10
178.5128684424219
 20
-12.62804186689539
 30
0.0
 10
178.5442330911379
 20
-12.45388137613078
 30
0.0
 10
178.560712170254
 20
-12.27416921712764
 30
0.0
 10
178.5633639355294
 20
-12.15297184932011
 30
0.0
 10
178.5647041516426
 20
-12.09171806237636
 30
0.0
  0
SPLINE
  5
E8
330
1F
100
AcDbEntity
  8
0
  6
Continuous
 62
     7
370
    25
100
AcDbSpline
210
0.0
220
0.0
230
1.0
 70
     8
 71
     3
 72
    23
 73
    19
 74
     0
 42
0.000000001
 43
0.00000001
 40
0.0
 40
0.0
 40
0.0
 40
0.0
 40
0.0559418740314487
 40
0.1107089662900212
 40
0.1640498084891407
 40
0.2167602405684333
 40
0.2696007081305797
 40
0.3232931610840296
 40
0.3775954548204881
 40
0.4334620902246542
 40
0.4909333178132578
 40
0.5506348866735232
 40
0.6131255813639469
 40
0.6798679529470447
 40
0.751363341159775
 40
0.8282649672413975
 40
0.9107970401420711
 40
1.0
 40
1.0
 40
1.0
 40
1.0
 10
178.5647041516426
 20
-12.09171806237636
 30
0.0
 10
178.562940708509
 20
-12.00515324826715
 30
0.0
 10
178.5594508546235
 20
-11.83384148488697
 30
0.0
 10
178.5222800591793
 20
-11.58227072003729
 30
0.0
 10
178.4652263809716
 20
-11.33999679417271
 30
0.0
 10
178.3868814672136
 20
-11.10658090803321
 30
0.0
 10
178.2819274294556
 20
-10.88330575309664
 30
0.0
 10
178.1555195920775
 20
-10.66869057192033
 30
0.0
 10
178.0058705038219
 20
-10.46372492818159
 30
0.0
 10
177.8347868960732
 20
-10.2685362934387
 30
0.0
 10
177.6373269018909
 20
-10.0866457019651
 30
0.0
 10
177.4047024712071
 20
-9.932781615451372
 30
0.0
 10
177.1422706043486
 20
-9.803127369439716
 30
0.0
 10
176.850752664629
 20
-9.69486082400854
 30
0.0
 10
176.5278747156334
 20
-9.612312877990119
 30
0.0
 10
176.1750310598163
 20
-9.555261338337182
 30
0.0
 10
175.7918484579138
 20
-9.519240322711006
 30
0.0
 10
175.5262300075039
 20
-9.514866837054642
 30
0.0
 10
175.3882619319818
 20
-9.512595152243588
 30
0.0
  0
SPLINE
  5
E9
330
1F
100
AcDbEntity
  8
0
  6
Continuous
 62
     7
370
    25
100
AcDbSpline
210
0.0
220
0.0
230
1.0
 70
     8
 71
     3
 72
    23
 73
    19
 74
     0
 42
0.000000001
 43
0.00000001
 40
0.0
 40
0.0
 40
0.0
 40
0.0
 40
0.0759760013778258
 40
0.1481478407297632
 40
0.2172337747939302
 40
0.2833431655068663
 40
0.3472548812513545
 40
0.409524007156627
 40
0.4706594156981865
 40
0.5318312023373041
 40
0.5919914954774748
 40
0.6505190018595179
 40
0.7075730075804306
 40
0.7641724617862137
 40
0.8211202236130722
 40
0.8791003552029313
 40
0.9384134163756573
 40
1.0
 40
1.0
 40
1.0
 40
1.0
 10
175.3882619319818
 20
-9.512595152243588
 30
0.0
 10
175.2770235399622
 20
-9.514259366523893
 30
0.0
 10
175.0601165261013
 20
-9.51750446691965
 30
0.0
 10
174.743885821172
 20
-9.554664290608612
 30
0.0
 10
174.4454755007637
 20
-9.610982080934185
 30
0.0
 10
174.1641877254274
 20
-9.688837377070728
 30
0.0
 10
173.9020903094327
 20
-9.792783692451934
 30
0.0
 10
173.6586799476936
 20
-9.919870312511835
 30
0.0
 10
173.4328061480073
 20
-10.0689460614073
 30
0.0
 10
173.2270286607369
 20
-10.23993249668665
 30
0.0
 10
173.042110002643
 20
-10.42780890126561
 30
0.0
 10
172.880522742998
 20
-10.62857720000935
 30
0.0
 10
172.7457807279331
 20
-10.84205087672876
 30
0.0
 10
172.6332361790726
 20
-11.06540357045837
 30
0.0
 10
172.5465210168122
 20
-11.30159665060137
 30
0.0
 10
172.485221165122
 20
-11.54949852622502
 30
0.0
 10
172.4469583653679
 20
-11.80910433422211
 30
0.0
 10
172.4425152415239
 20
-11.986114188971
 30
0.0
 10
172.4402519030448
 20
-12.07628345489502
 30
0.0
  0
SPLINE
  5
EA
330
1F
100
AcDbEntity
  8
0
  6
Continuous
 62
     7
370
    25
100
AcDbSpline
210
0.0
220
0.0
230
1.0
 70
     8
 71
     3
 72
    23
 73
    19
 74
     0
 42
0.000000001
 43
0.00000001
 40
0.0
 40
0.0
 40
0.0
 40
0.0
 40
0.0610568331758596
 40
0.1195491072443123
 40
0.1768119204410529
 40
0.2329638143038555
 40
0.28859257183202
 40
0.3446775085759258
 40
0.401674151352183
 40
0.4605545907654028
 40
0.5204934420294758
 40
0.5812311564527322
 40
0.6434510088516384
 40
0.7078620323407347
 40
0.7753636743240284
 40
0.8464088438329554
 40
0.9211494057946974
 40
1.0
 40
1.0
 40
1.0
 40
1.0
 10
172.4402519030449
 20
-12.07628345489502
 30
0.0
 10
172.4425470840532
 20
-12.16798190563857
 30
0.0
 10
172.4470410419976
 20
-12.3475272137043
 30
0.0
 10
172.4846583580211
 20
-12.61103542643318
 30
0.0
 10
172.5487002259349
 20
-12.86139774852854
 30
0.0
 10
172.6339544905312
 20
-13.10109561365645
 30
0.0
 10
172.749203607702
 20
-13.32579589805655
 30
0.0
 10
172.8841601101298
 20
-13.5407522610785
 30
0.0
 10
173.049071480015
 20
-13.74011040210588
 30
0.0
 10
173.2343226236256
 20
-13.92874279345359
 30
0.0
 10
173.4448709397478
 20
-14.09799659235679
 30
0.0
 10
173.6756404442582
 20
-14.24793215491574
 30
0.0
 10
173.9294988845494
 20
-14.37056954693098
 30
0.0
 10
174.2027953994566
 20
-14.47287111320254
 30
0.0
 10
174.4972450825299
 20
-14.55311823473755
 30
0.0
 10
174.8128453492378
 20
-14.609218485798
 30
0.0
 10
175.148764275065
 20
-14.64381505285542
 30
0.0
 10
175.3794290257665
 20
-14.64739476843361
 30
0.0
 10
175.4978476450993
 20
-14.64923252203525
 30
0.0
  0
ENDSEC
  0
SECTION
  2
OBJECTS
  0
DICTIONARY
  5
C
330
0
100
AcDbDictionary
281
     1
  3
ACAD_GROUP
350
D
  3
ACAD_LAYOUT
350
1A
  3
ACAD_MLINESTYLE
350
17
  3
ACAD_PLOTSETTINGS
350
19
  3
ACAD_PLOTSTYLENAME
350
E
  3
ACAD_SCALELIST
350
47
  0
DICTIONARY
  5
D
102
{ACAD_REACTORS
330
C
102
}
330
C
100
AcDbDictionary
281
     1
  0
DICTIONARY
  5
1A
102
{ACAD_REACTORS
330
C
102
}
330
C
100
AcDbDictionary
281
     1
  3
Layout1
350
1E
  3
Layout2
350
26
  3
Model
350
22
  0
DICTIONARY
  5
17
102
{ACAD_REACTORS
330
C
102
}
330
C
100
AcDbDictionary
281
     1
  3
Standard
350
18
  0
DICTIONARY
  5
19
102
{ACAD_REACTORS
330
C
102
}
330
C
100
AcDbDictionary
281
     1
  0
ACDBDICTIONARYWDFLT
  5
E
102
{ACAD_REACTORS
330
C
102
}
330
C
100
AcDbDictionary
281
     1
  3
Normal
350
F
100
AcDbDictionaryWithDefault
340
F
  0
DICTIONARY
  5
47
102
{ACAD_REACTORS
330
C
102
}
330
C
100
AcDbDictionary
281
     1
  3
A0
350
48
  3
A1
350
49
  3
A2
350
4A
  3
A3
350
4B
  3
A4
350
4C
  3
A5
350
4D
  3
A6
350
4E
  3
A7
350
4F
  3
A8
350
50
  3
A9
350
51
  3
B0
350
52
  3
B1
350
53
  3
B2
350
54
  3
B3
350
55
  3
B4
350
56
  3
B5
350
57
  3
B6
350
58
  3
B7
350
59
  3
B8
350
5A
  3
B9
350
5B
  3
C0
350
5C
  3
C1
350
5D
  3
C2
350
5E
  3
C3
350
5F
  3
C4
350
60
  3
C5
350
61
  3
C6
350
62
  3
C7
350
63
  3
C8
350
64
  3
C9
350
65
  3
D0
350
66
  3
D1
350
67
  3
D2
350
68
  0
LAYOUT
  5
1E
102
{ACAD_REACTORS
330
1A
102
}
330
1A
100
AcDbPlotSettings
  1

  2
none_device
  4

  6

 40
0.0
 41
0.0
 42
0.0
 43
0.0
 44
0.0
 45
0.0
 46
0.0
 47
0.0
 48
0.0
 49
0.0
140
0.0
141
0.0
142
1.0
143
1.0
 70
   688
 72
     1
 73
     0
 74
     5
  7

 75
    16
147
1.0
148
0.0
149
0.0
100
AcDbLayout
  1
Layout1
 70
     1
 71
     1
 10
0.0
 20
0.0
 11
420.0
 21
297.0
 12
0.0
 22
0.0
 32
0.0
 14
1.0000000000E+20
 24
1.0000000000E+20
 34
1.0000000000E+20
 15
-1.0000000000E+20
 25
-1.0000000000E+20
 35
-1.0000000000E+20
146
0.0
 13
0.0
 23
0.0
 33
0.0
 16
1.0
 26
0.0
 36
0.0
 17
0.0
 27
1.0
 37
0.0
 76
     0
330
1B
  0
LAYOUT
  5
26
102
{ACAD_REACTORS
330
1A
102
}
330
1A
100
AcDbPlotSettings
  1

  2
none_device
  4

  6

 40
0.0
 41
0.0
 42
0.0
 43
0.0
 44
0.0
 45
0.0
 46
0.0
 47
0.0
 48
0.0
 49
0.0
140
0.0
141
0.0
142
1.0
143
1.0
 70
   688
 72
     1
 73
     0
 74
     5
  7

 75
    16
147
1.0
148
0.0
149
0.0
100
AcDbLayout
  1
Layout2
 70
     1
 71
     2
 10
0.0
 20
0.0
 11
0.0
 21
0.0
 12
0.0
 22
0.0
 32
0.0
 14
0.0
 24
0.0
 34
0.0
 15
0.0
 25
0.0
 35
0.0
146
0.0
 13
0.0
 23
0.0
 33
0.0
 16
1.0
 26
0.0
 36
0.0
 17
0.0
 27
1.0
 37
0.0
 76
     0
330
23
  0
LAYOUT
  5
22
102
{ACAD_REACTORS
330
1A
102
}
330
1A
100
AcDbPlotSettings
  1

  2
none_device
  4
ANSI_A_(11.00_x_8.50_Inches)
  6

 40
6.35
 41
19.05
 42
6.35000508
 43
19.05000254
 44
279.4
 45
215.9
 46
133.34999746
 47
88.89999873
 48
0.0
 49
0.0
140
0.0
141
0.0
142
0.0295682867
143
1.0
 70
  1696
 72
     0
 73
     0
 74
     0
  7

 75
     0
147
0.0179189148
148
-1300.4909072572
149
0.0
100
AcDbLayout
  1
Model
 70
     1
 71
     0
 10
0.0
 20
0.0
 11
420.0
 21
297.0
 12
0.0
 22
0.0
 32
0.0
 14
-184.15
 24
-114.3
 34
0.0
 15
184.15
 25
114.3
 35
0.0
146
0.0
 13
0.0
 23
0.0
 33
0.0
 16
1.0
 26
0.0
 36
0.0
 17
0.0
 27
1.0
 37
0.0
 76
     0
330
1F
331
29
  0
MLINESTYLE
  5
18
102
{ACAD_REACTORS
330
17
102
}
330
17
100
AcDbMlineStyle
  2
Standard
 70
     0
  3

 62
   256
 51
90.0
 52
90.0
 71
     2
 49
0.5
 62
   256
  6
BYLAYER
 49
-0.5
 62
   256
  6
BYLAYER
  0
ACDBPLACEHOLDER
  5
F
102
{ACAD_REACTORS
330
E
102
}
330
E
  0
SCALE
  5
48
102
{ACAD_REACTORS
330
47
102
}
330
47
100
AcDbScale
 70
     0
300
1:1
140
1.0
141
1.0
290
     1
  0
SCALE
  5
49
102
{ACAD_REACTORS
330
47
102
}
330
47
100
AcDbScale
 70
     0
300
1:2
140
1.0
141
2.0
290
     0
  0
SCALE
  5
4A
102
{ACAD_REACTORS
330
47
102
}
330
47
100
AcDbScale
 70
     0
300
1:4
140
1.0
141
4.0
290
     0
  0
SCALE
  5
4B
102
{ACAD_REACTORS
330
47
102
}
330
47
100
AcDbScale
 70
     0
300
1:5
140
1.0
141
5.0
290
     0
  0
SCALE
  5
4C
102
{ACAD_REACTORS
330
47
102
}
330
47
100
AcDbScale
 70
     0
300
1:8
140
1.0
141
8.0
290
     0
  0
SCALE
  5
4D
102
{ACAD_REACTORS
330
47
102
}
330
47
100
AcDbScale
 70
     0
300
1:10
140
1.0
141
10.0
290
     0
  0
SCALE
  5
4E
102
{ACAD_REACTORS
330
47
102
}
330
47
100
AcDbScale
 70
     0
300
1:16
140
1.0
141
16.0
290
     0
  0
SCALE
  5
4F
102
{ACAD_REACTORS
330
47
102
}
330
47
100
AcDbScale
 70
     0
300
1:20
140
1.0
141
20.0
290
     0
  0
SCALE
  5
50
102
{ACAD_REACTORS
330
47
102
}
330
47
100
AcDbScale
 70
     0
300
1:30
140
1.0
141
30.0
290
     0
  0
SCALE
  5
51
102
{ACAD_REACTORS
330
47
102
}
330
47
100
AcDbScale
 70
     0
300
1:40
140
1.0
141
40.0
290
     0
  0
SCALE
  5
52
102
{ACAD_REACTORS
330
47
102
}
330
47
100
AcDbScale
 70
     0
300
1:50
140
1.0
141
50.0
290
     0
  0
SCALE
  5
53
102
{ACAD_REACTORS
330
47
102
}
330
47
100
AcDbScale
 70
     0
300
1:100
140
1.0
141
100.0
290
     0
  0
SCALE
  5
54
102
{ACAD_REACTORS
330
47
102
}
330
47
100
AcDbScale
 70
     0
300
2:1
140
2.0
141
1.0
290
     0
  0
SCALE
  5
55
102
{ACAD_REACTORS
330
47
102
}
330
47
100
AcDbScale
 70
     0
300
4:1
140
4.0
141
1.0
290
     0
  0
SCALE
  5
56
102
{ACAD_REACTORS
330
47
102
}
330
47
100
AcDbScale
 70
     0
300
8:1
140
8.0
141
1.0
290
     0
  0
SCALE
  5
57
102
{ACAD_REACTORS
330
47
102
}
330
47
100
AcDbScale
 70
     0
300
10:1
140
10.0
141
1.0
290
     0
  0
SCALE
  5
58
102
{ACAD_REACTORS
330
47
102
}
330
47
100
AcDbScale
 70
     0
300
100:1
140
100.0
141
1.0
290
     0
  0
SCALE
  5
59
102
{ACAD_REACTORS
330
47
102
}
330
47
100
AcDbScale
 70
     0
300
1/128" = 1'-0"
140
0.0078125
141
12.0
290
     0
  0
SCALE
  5
5A
102
{ACAD_REACTORS
330
47
102
}
330
47
100
AcDbScale
 70
     0
300
1/64" = 1'-0"
140
0.015625
141
12.0
290
     0
  0
SCALE
  5
5B
102
{ACAD_REACTORS
330
47
102
}
330
47
100
AcDbScale
 70
     0
300
1/32" = 1'-0"
140
0.03125
141
12.0
290
     0
  0
SCALE
  5
5C
102
{ACAD_REACTORS
330
47
102
}
330
47
100
AcDbScale
 70
     0
300
1/16" = 1'-0"
140
0.0625
141
12.0
290
     0
  0
SCALE
  5
5D
102
{ACAD_REACTORS
330
47
102
}
330
47
100
AcDbScale
 70
     0
300
3/32" = 1'-0"
140
0.09375
141
12.0
290
     0
  0
SCALE
  5
5E
102
{ACAD_REACTORS
330
47
102
}
330
47
100
AcDbScale
 70
     0
300
1/8" = 1'-0"
140
0.125
141
12.0
290
     0
  0
SCALE
  5
5F
102
{ACAD_REACTORS
330
47
102
}
330
47
100
AcDbScale
 70
     0
300
3/16" = 1'-0"
140
0.1875
141
12.0
290
     0
  0
SCALE
  5
60
102
{ACAD_REACTORS
330
47
102
}
330
47
100
AcDbScale
 70
     0
300
1/4" = 1'-0"
140
0.25
141
12.0
290
     0
  0
SCALE
  5
61
102
{ACAD_REACTORS
330
47
102
}
330
47
100
AcDbScale
 70
     0
300
3/8" = 1'-0"
140
0.375
141
12.0
290
     0
  0
SCALE
  5
62
102
{ACAD_REACTORS
330
47
102
}
330
47
100
AcDbScale
 70
     0
300
1/2" = 1'-0"
140
0.5
141
12.0
290
     0
  0
SCALE
  5
63
102
{ACAD_REACTORS
330
47
102
}
330
47
100
AcDbScale
 70
     0
300
3/4" = 1'-0"
140
0.75
141
12.0
290
     0
  0
SCALE
  5
64
102
{ACAD_REACTORS
330
47
102
}
330
47
100
AcDbScale
 70
     0
300
1" = 1'-0"
140
1.0
141
12.0
290
     0
  0
SCALE
  5
65
102
{ACAD_REACTORS
330
47
102
}
330
47
100
AcDbScale
 70
     0
300
1-1/2" = 1'-0"
140
1.5
141
12.0
290
     0
  0
SCALE
  5
66
102
{ACAD_REACTORS
330
47
102
}
330
47
100
AcDbScale
 70
     0
300
3" = 1'-0"
140
3.0
141
12.0
290
     0
  0
SCALE
  5
67
102
{ACAD_REACTORS
330
47
102
}
330
47
100
AcDbScale
 70
     0
300
6" = 1'-0"
140
6.0
141
12.0
290
     0
  0
SCALE
  5
68
102
{ACAD_REACTORS
330
47
102
}
330
47
100
AcDbScale
 70
     0
300
1'-0" = 1'-0"
140
12.0
141
12.0
290
     0
  0
ENDSEC
  0
EOF
