  0
SECTION
  2
HEADER
  9
$ACADVER
  1
AC1015
  9
$ACADMAINTVER
 70
     6
  9
$DWGCODEPAGE
  3
ANSI_1252
  9
$INSBASE
 10
0.0
 20
0.0
 30
0.0
  9
$EXTMIN
 10
-184.15
 20
-114.3
 30
0.0
  9
$EXTMAX
 10
184.15
 20
114.3
 30
0.0
  9
$LIMMIN
 10
0.0
 20
0.0
  9
$LIMMAX
 10
420.0
 20
297.0
  9
$ORTHOMODE
 70
     0
  9
$REGENMODE
 70
     1
  9
$FILLMODE
 70
     1
  9
$QTEXTMODE
 70
     0
  9
$MIRRTEXT
 70
     1
  9
$LTSCALE
 40
1.0
  9
$ATTMODE
 70
     1
  9
$TEXTSIZE
 40
3.175
  9
$TRACEWID
 40
1.0
  9
$TEXTSTYLE
  7
Standard
  9
$CLAYER
  8
0
  9
$CELTYPE
  6
ByLayer
  9
$CECOLOR
 62
   256
  9
$CELTSCALE
 40
1.0
  9
$DISPSILH
 70
     0
  9
$DIMSCALE
 40
1.0
  9
$DIMASZ
 40
3.302
  9
$DIMEXO
 40
1.27
  9
$DIMDLI
 40
3.75
  9
$DIMRND
 40
0.0
  9
$DIMDLE
 40
0.0
  9
$DIMEXE
 40
3.175
  9
$DIMTP
 40
0.0
  9
$DIMTM
 40
0.0
  9
$DIMTXT
 40
3.175
  9
$DIMCEN
 40
2.5
  9
$DIMTSZ
 40
0.0
  9
$DIMTOL
 70
     0
  9
$DIMLIM
 70
     0
  9
$DIMTIH
 70
     1
  9
$DIMTOH
 70
     1
  9
$DIMSE1
 70
     0
  9
$DIMSE2
 70
     0
  9
$DIMTAD
 70
     0
  9
$DIMZIN
 70
     1
  9
$DIMBLK
  1

  9
$DIMASO
 70
     1
  9
$DIMSHO
 70
     1
  9
$DIMPOST
  1

  9
$DIMAPOST
  1

  9
$DIMALT
 70
     0
  9
$DIMALTD
 70
     3
  9
$DIMALTF
 40
0.0393700787
  9
$DIMLFAC
 40
1.0
  9
$DIMTOFL
 70
     1
  9
$DIMTVP
 40
0.0
  9
$DIMTIX
 70
     0
  9
$DIMSOXD
 70
     0
  9
$DIMSAH
 70
     0
  9
$DIMBLK1
  1

  9
$DIMBLK2
  1

  9
$DIMSTYLE
  2
ISO-25
  9
$DIMCLRD
 70
     0
  9
$DIMCLRE
 70
     0
  9
$DIMCLRT
 70
     0
  9
$DIMTFAC
 40
1.0
  9
$DIMGAP
 40
1.524
  9
$DIMJUST
 70
     0
  9
$DIMSD1
 70
     0
  9
$DIMSD2
 70
     0
  9
$DIMTOLJ
 70
     0
  9
$DIMTZIN
 70
     1
  9
$DIMALTZ
 70
     0
  9
$DIMALTTZ
 70
     0
  9
$DIMUPT
 70
     0
  9
$DIMDEC
 70
     3
  9
$DIMTDEC
 70
     3
  9
$DIMALTU
 70
     2
  9
$DIMALTTD
 70
     3
  9
$DIMTXSTY
  7
Standard
  9
$DIMAUNIT
 70
     0
  9
$DIMADEC
 70
     0
  9
$DIMALTRND
 40
0.0
  9
$DIMAZIN
 70
     0
  9
$DIMDSEP
 70
    44
  9
$DIMATFIT
 70
     3
  9
$DIMFRAC
 70
     0
  9
$DIMLDRBLK
  1

  9
$DIMLUNIT
 70
     2
  9
$DIMLWD
 70
    -2
  9
$DIMLWE
 70
    -2
  9
$DIMTMOVE
 70
     0
  9
$LUNITS
 70
     2
  9
$LUPREC
 70
     3
  9
$SKETCHINC
 40
1.0
  9
$FILLETRAD
 40
10.0
  9
$AUNITS
 70
     0
  9
$AUPREC
 70
     0
  9
$MENU
  1
.
  9
$ELEVATION
 40
0.0
  9
$PELEVATION
 40
0.0
  9
$THICKNESS
 40
0.0
  9
$LIMCHECK
 70
     0
  9
$CHAMFERA
 40
0.0
  9
$CHAMFERB
 40
0.0
  9
$CHAMFERC
 40
0.0
  9
$CHAMFERD
 40
0.0
  9
$SKPOLY
 70
     0
  9
$TDCREATE
 40
2458570.420735914
  9
$TDUCREATE
 40
2458570.587402581
  9
$TDUPDATE
 40
2458570.420761088
  9
$TDUUPDATE
 40
2458570.587427754
  9
$TDINDWG
 40
0.0000000116
  9
$TDUSRTIMER
 40
0.0000000116
  9
$USRTIMER
 70
     1
  9
$ANGBASE
 50
0.0
  9
$ANGDIR
 70
     0
  9
$PDMODE
 70
     0
  9
$PDSIZE
 40
-1.0
  9
$PLINEWID
 40
0.0
  9
$SPLFRAME
 70
     0
  9
$SPLINETYPE
 70
     6
  9
$SPLINESEGS
 70
     8
  9
$HANDSEED
  5
ED
  9
$SURFTAB1
 70
     6
  9
$SURFTAB2
 70
     6
  9
$SURFTYPE
 70
     6
  9
$SURFU
 70
     6
  9
$SURFV
 70
     6
  9
$UCSBASE
  2

  9
$UCSNAME
  2

  9
$UCSORG
 10
0.0
 20
0.0
 30
0.0
  9
$UCSXDIR
 10
1.0
 20
0.0
 30
0.0
  9
$UCSYDIR
 10
0.0
 20
1.0
 30
0.0
  9
$UCSORTHOREF
  2

  9
$UCSORTHOVIEW
 70
     0
  9
$UCSORGTOP
 10
0.0
 20
0.0
 30
0.0
  9
$UCSORGBOTTOM
 10
0.0
 20
0.0
 30
0.0
  9
$UCSORGLEFT
 10
0.0
 20
0.0
 30
0.0
  9
$UCSORGRIGHT
 10
0.0
 20
0.0
 30
0.0
  9
$UCSORGFRONT
 10
0.0
 20
0.0
 30
0.0
  9
$UCSORGBACK
 10
0.0
 20
0.0
 30
0.0
  9
$PUCSBASE
  2

  9
$PUCSNAME
  2

  9
$PUCSORG
 10
0.0
 20
0.0
 30
0.0
  9
$PUCSXDIR
 10
1.0
 20
0.0
 30
0.0
  9
$PUCSYDIR
 10
0.0
 20
1.0
 30
0.0
  9
$PUCSORTHOREF
  2

  9
$PUCSORTHOVIEW
 70
     0
  9
$PUCSORGTOP
 10
0.0
 20
0.0
 30
0.0
  9
$PUCSORGBOTTOM
 10
0.0
 20
0.0
 30
0.0
  9
$PUCSORGLEFT
 10
0.0
 20
0.0
 30
0.0
  9
$PUCSORGRIGHT
 10
0.0
 20
0.0
 30
0.0
  9
$PUCSORGFRONT
 10
0.0
 20
0.0
 30
0.0
  9
$PUCSORGBACK
 10
0.0
 20
0.0
 30
0.0
  9
$USERI1
 70
     0
  9
$USERI2
 70
     0
  9
$USERI3
 70
     0
  9
$USERI4
 70
     0
  9
$USERI5
 70
     0
  9
$USERR1
 40
0.0
  9
$USERR2
 40
0.0
  9
$USERR3
 40
0.0
  9
$USERR4
 40
0.0
  9
$USERR5
 40
0.0
  9
$WORLDVIEW
 70
     1
  9
$SHADEDGE
 70
     3
  9
$SHADEDIF
 70
    70
  9
$TILEMODE
 70
     1
  9
$MAXACTVP
 70
    64
  9
$PINSBASE
 10
0.0
 20
0.0
 30
0.0
  9
$PLIMCHECK
 70
     0
  9
$PEXTMIN
 10
1.0000000000E+20
 20
1.0000000000E+20
 30
1.0000000000E+20
  9
$PEXTMAX
 10
-1.0000000000E+20
 20
-1.0000000000E+20
 30
-1.0000000000E+20
  9
$PLIMMIN
 10
0.0
 20
0.0
  9
$PLIMMAX
 10
420.0
 20
297.0
  9
$UNITMODE
 70
     0
  9
$VISRETAIN
 70
     1
  9
$PLINEGEN
 70
     0
  9
$PSLTSCALE
 70
     1
  9
$TREEDEPTH
 70
  3020
  9
$CMLSTYLE
  2
Standard
  9
$CMLJUST
 70
     0
  9
$CMLSCALE
 40
20.0
  9
$PROXYGRAPHICS
 70
     1
  9
$MEASUREMENT
 70
     1
  9
$CELWEIGHT
370
    -1
  9
$ENDCAPS
280
     0
  9
$JOINSTYLE
280
     0
  9
$LWDISPLAY
290
     1
  9
$INSUNITS
 70
     4
  9
$HYPERLINKBASE
  1

  9
$STYLESHEET
  1

  9
$XEDIT
290
     1
  9
$CEPSNTYPE
380
     0
  9
$PSTYLEMODE
290
     1
  9
$FINGERPRINTGUID
  2
{212F8357-94A2-4733-8D81-24504C05671D}
  9
$VERSIONGUID
  2
{FAEB1C32-E019-11D5-929B-00C0DF256EC4}
  9
$EXTNAMES
290
     1
  9
$PSVPSCALE
 40
0.0
  9
$OLESTARTUP
290
     0
  0
ENDSEC
  0
SECTION
  2
CLASSES
  0
CLASS
  1
ACDBDICTIONARYWDFLT
  2
AcDbDictionaryWithDefault
  3
ObjectDBX Classes
 90
        0
280
     0
281
     0
  0
CLASS
  1
VISUALSTYLE
  2
AcDbVisualStyle
  3
ObjectDBX Classes
 90
     4095
280
     0
281
     0
  0
CLASS
  1
MATERIAL
  2
AcDbMaterial
  3
ObjectDBX Classes
 90
     1153
280
     0
281
     0
  0
CLASS
  1
SCALE
  2
AcDbScale
  3
ObjectDBX Classes
 90
     1153
280
     0
281
     0
  0
CLASS
  1
TABLESTYLE
  2
AcDbTableStyle
  3
ObjectDBX Classes
 90
     4095
280
     0
281
     0
  0
CLASS
  1
MLEADERSTYLE
  2
AcDbMLeaderStyle
  3
ACDB_MLEADERSTYLE_CLASS
 90
     4095
280
     0
281
     0
  0
CLASS
  1
SUN
  2
AcDbSun
  3
SCENEOE
 90
     1153
280
     0
281
     0
  0
CLASS
  1
ACDBPLACEHOLDER
  2
AcDbPlaceHolder
  3
ObjectDBX Classes
 90
        0
280
     0
281
     0
  0
CLASS
  1
LAYOUT
  2
AcDbLayout
  3
ObjectDBX Classes
 90
        0
280
     0
281
     0
  0
ENDSEC
  0
SECTION
  2
TABLES
  0
TABLE
  2
VPORT
  5
8
330
0
100
AcDbSymbolTable
 70
     1
  0
VPORT
  5
29
330
8
100
AcDbSymbolTableRecord
100
AcDbViewportTableRecord
  2
*Active
 70
     0
 10
0.0
 20
0.0
 11
1.0
 21
1.0
 12
0.0
 22
0.0
 13
0.0
 23
0.0
 14
10.0
 24
10.0
 15
10.0
 25
10.0
 16
0.0
 26
0.0
 36
1.0
 17
0.0
 27
0.0
 37
0.0
 40
233.172
 41
1.6111111111
 42
50.0
 43
0.0
 44
0.0
 50
0.0
 51
0.0
 71
     0
 72
   100
 73
     1
 74
     3
 75
     0
 76
     0
 77
     0
 78
     0
281
     0
 65
     1
110
0.0
120
0.0
130
0.0
111
1.0
121
0.0
131
0.0
112
0.0
122
1.0
132
0.0
 79
     0
146
0.0
  0
ENDTAB
  0
TABLE
  2
LTYPE
  5
5
330
0
100
AcDbSymbolTable
 70
     6
  0
LTYPE
  5
14
330
5
100
AcDbSymbolTableRecord
100
AcDbLinetypeTableRecord
  2
ByBlock
 70
     0
  3

 72
    65
 73
     0
 40
0.0
  0
LTYPE
  5
15
330
5
100
AcDbSymbolTableRecord
100
AcDbLinetypeTableRecord
  2
ByLayer
 70
     0
  3

 72
    65
 73
     0
 40
0.0
  0
LTYPE
  5
16
330
5
100
AcDbSymbolTableRecord
100
AcDbLinetypeTableRecord
  2
Continuous
 70
     0
  3
Solid line
 72
    65
 73
     0
 40
0.0
  0
LTYPE
  5
6E
330
5
100
AcDbSymbolTableRecord
100
AcDbLinetypeTableRecord
  2
HIDDEN
 70
     0
  3
Hidden __ __ __ __ __ __ __ __ __ __ __ __ __ __
 72
    65
 73
     2
 40
1.905
 49
1.27
 74
     0
 49
-0.635
 74
     0
  0
LTYPE
  5
6F
330
5
100
AcDbSymbolTableRecord
100
AcDbLinetypeTableRecord
  2
PHANTOM
 70
     0
  3
Phantom ______  __  __  ______  __  __  ______
 72
    65
 73
     6
 40
12.7
 49
6.35
 74
     0
 49
-1.27
 74
     0
 49
1.27
 74
     0
 49
-1.27
 74
     0
 49
1.27
 74
     0
 49
-1.27
 74
     0
  0
LTYPE
  5
70
330
5
100
AcDbSymbolTableRecord
100
AcDbLinetypeTableRecord
  2
CENTER
 70
     0
  3
Center ____ _ ____ _ ____ _ ____ _ ____ _ ____
 72
    65
 73
     4
 40
10.16
 49
6.35
 74
     0
 49
-1.27
 74
     0
 49
1.27
 74
     0
 49
-1.27
 74
     0
  0
LTYPE
  5
71
330
5
100
AcDbSymbolTableRecord
100
AcDbLinetypeTableRecord
  2
CENTERX2
 70
     0
  3
Center (2x) ________  __  ________  __  _____
 72
    65
 73
     4
 40
20.32
 49
12.7
 74
     0
 49
-2.54
 74
     0
 49
2.54
 74
     0
 49
-2.54
 74
     0
  0
LTYPE
  5
72
330
5
100
AcDbSymbolTableRecord
100
AcDbLinetypeTableRecord
  2
DOT2
 70
     0
  3
Dot (.5x) ........................................
 72
    65
 73
     2
 40
0.635
 49
0.0
 74
     0
 49
-0.635
 74
     0
  0
ENDTAB
  0
TABLE
  2
LAYER
  5
2
330
0
100
AcDbSymbolTable
 70
     1
  0
LAYER
  5
10
330
2
100
AcDbSymbolTableRecord
100
AcDbLayerTableRecord
  2
0
 70
     0
 62
     7
  6
Continuous
370
    -3
390
F
  0
ENDTAB
  0
TABLE
  2
STYLE
  5
3
330
0
100
AcDbSymbolTable
 70
     1
  0
STYLE
  5
11
330
3
100
AcDbSymbolTableRecord
100
AcDbTextStyleTableRecord
  2
Standard
 70
     0
 40
0.0
 41
1.0
 50
0.0
 71
     0
 42
3.175
  3
txt
  4

  0
ENDTAB
  0
TABLE
  2
VIEW
  5
6
330
0
100
AcDbSymbolTable
 70
     0
  0
ENDTAB
  0
TABLE
  2
UCS
  5
7
330
0
100
AcDbSymbolTable
 70
     0
  0
ENDTAB
  0
TABLE
  2
APPID
  5
9
330
0
100
AcDbSymbolTable
 70
     1
  0
APPID
  5
12
330
9
100
AcDbSymbolTableRecord
100
AcDbRegAppTableRecord
  2
ACAD
 70
     0
  0
ENDTAB
  0
TABLE
  2
DIMSTYLE
  5
A
330
0
100
AcDbSymbolTable
 70
     1
100
AcDbDimStyleTable
  0
DIMSTYLE
105
27
330
A
100
AcDbSymbolTableRecord
100
AcDbDimStyleTableRecord
  2
ISO-25
 70
     0
 41
2.5
 42
0.625
 43
3.75
 44
1.25
 73
     0
 74
     0
 77
     1
 78
     8
140
2.5
141
2.5
143
0.0393700787
147
0.625
171
     3
172
     1
178
     0
271
     2
272
     2
274
     3
278
    44
283
     0
284
     8
340
11
  0
ENDTAB
  0
TABLE
  2
BLOCK_RECORD
  5
1
330
0
100
AcDbSymbolTable
 70
     1
  0
BLOCK_RECORD
  5
1F
330
1
100
AcDbSymbolTableRecord
100
AcDbBlockTableRecord
  2
*Model_Space
340
22
  0
BLOCK_RECORD
  5
1B
330
1
100
AcDbSymbolTableRecord
100
AcDbBlockTableRecord
  2
*Paper_Space
340
1E
  0
BLOCK_RECORD
  5
23
330
1
100
AcDbSymbolTableRecord
100
AcDbBlockTableRecord
  2
*Paper_Space0
340
26
  0
ENDTAB
  0
ENDSEC
  0
SECTION
  2
BLOCKS
  0
BLOCK
  5
20
330
1F
100
AcDbEntity
  8
0
100
AcDbBlockBegin
  2
*Model_Space
 70
     0
 10
0.0
 20
0.0
 30
0.0
  3
*Model_Space
  1

  0
ENDBLK
  5
21
330
1F
100
AcDbEntity
  8
0
100
AcDbBlockEnd
  0
BLOCK
  5
1C
330
1B
100
AcDbEntity
 67
     1
  8
0
100
AcDbBlockBegin
  2
*Paper_Space
 70
     0
 10
0.0
 20
0.0
 30
0.0
  3
*Paper_Space
  1

  0
ENDBLK
  5
1D
330
1B
100
AcDbEntity
 67
     1
  8
0
100
AcDbBlockEnd
  0
BLOCK
  5
24
330
23
100
AcDbEntity
  8
0
100
AcDbBlockBegin
  2
*Paper_Space0
 70
     0
 10
0.0
 20
0.0
 30
0.0
  3
*Paper_Space0
  1

  0
ENDBLK
  5
25
330
23
100
AcDbEntity
  8
0
100
AcDbBlockEnd
  0
ENDSEC
  0
SECTION
  2
ENTITIES
  0
LINE
  5
73
330
1F
100
AcDbEntity
  8
0
  6
Continuous
 62
     7
370
    25
100
AcDbLine
 10
171.0390333909
 20
2.736309345
 30
0.0
 11
170.15
 21
2.736309345
 31
0.0
  0
LINE
  5
74
330
1F
100
AcDbEntity
  8
0
  6
Continuous
 62
     7
370
    25
100
AcDbLine
 10
170.15
 20
2.736309345
 30
0.0
 11
170.15
 21
8.3668541541
 31
0.0
  0
LINE
  5
75
330
1F
100
AcDbEntity
  8
0
  6
Continuous
 62
     7
370
    25
100
AcDbLine
 10
170.15
 20
8.3668541541
 30
0.0
 11
177.8549560547
 21
8.3668541541
 31
0.0
  0
LINE
  5
76
330
1F
100
AcDbEntity
  8
0
  6
Continuous
 62
     7
370
    25
100
AcDbLine
 10
177.8549560547
 20
8.3668541541
 30
0.0
 11
177.8549560547
 21
2.9338723207
 31
0.0
  0
LINE
  5
77
330
1F
100
AcDbEntity
  8
0
  6
Continuous
 62
     7
370
    25
100
AcDbLine
 10
177.8549560547
 20
2.9338723207
 30
0.0
 11
176.9659226638
 21
2.9338723207
 31
0.0
  0
LINE
  5
78
330
1F
100
AcDbEntity
  8
0
  6
Continuous
 62
     7
370
    25
100
AcDbLine
 10
176.9659226638
 20
2.9338723207
 30
0.0
 11
176.9659226638
 21
7.2802577875
 31
0.0
  0
LINE
  5
79
330
1F
100
AcDbEntity
  8
0
  6
Continuous
 62
     7
370
    25
100
AcDbLine
 10
176.9659226638
 20
7.2802577875
 30
0.0
 11
174.5951669546
 21
7.2802577875
 31
0.0
  0
LINE
  5
7A
330
1F
100
AcDbEntity
  8
0
  6
Continuous
 62
     7
370
    25
100
AcDbLine
 10
174.5951669546
 20
7.2802577875
 30
0.0
 11
174.5951669546
 21
3.2302167844
 31
0.0
  0
LINE
  5
7B
330
1F
100
AcDbEntity
  8
0
  6
Continuous
 62
     7
370
    25
100
AcDbLine
 10
174.5951669546
 20
3.2302167844
 30
0.0
 11
173.7061335637
 21
3.2302167844
 31
0.0
  0
LINE
  5
7C
330
1F
100
AcDbEntity
  8
0
  6
Continuous
 62
     7
370
    25
100
AcDbLine
 10
173.7061335637
 20
3.2302167844
 30
0.0
 11
173.7061335637
 21
7.2802577875
 31
0.0
  0
LINE
  5
7D
330
1F
100
AcDbEntity
  8
0
  6
Continuous
 62
     7
370
    25
100
AcDbLine
 10
173.7061335637
 20
7.2802577875
 30
0.0
 11
171.0390333909
 21
7.2802577875
 31
0.0
  0
LINE
  5
7E
330
1F
100
AcDbEntity
  8
0
  6
Continuous
 62
     7
370
    25
100
AcDbLine
 10
171.0390333909
 20
7.2802577875
 30
0.0
 11
171.0390333909
 21
2.736309345
 31
0.0
  0
SPLINE
  5
7F
330
1F
100
AcDbEntity
  8
0
  6
Continuous
 62
     7
370
    25
100
AcDbSpline
210
0.0
220
0.0
230
1.0
 70
     8
 71
     3
 72
    23
 73
    19
 74
     0
 42
0.000000001
 43
0.00000001
 40
0.0
 40
0.0
 40
0.0
 40
0.0
 40
0.0748159666505561
 40
0.1485345605139199
 40
0.2238723272963853
 40
0.3012971209351257
 40
0.340893629019756
 40
0.3803400620654377
 40
0.420126588728463
 40
0.459949907082968
 40
0.5008311555562176
 40
0.5419071755971068
 40
0.5844387941530512
 40
0.6280801713306067
 40
0.7172666799070613
 40
0.8078600064218677
 40
0.9019246558363444
 40
1.0
 40
1.0
 40
1.0
 40
1.0
 10
172.3370838801065
 20
-4.375957782451925
 30
0.0
 10
172.2363869571167
 20
-4.37193671182652
 30
0.0
 10
172.0364700961709
 20
-4.363953550144875
 30
0.0
 10
171.7417833972908
 20
-4.295215648909835
 30
0.0
 10
171.4562336309363
 20
-4.187232041588056
 30
0.0
 10
171.2296341616786
 20
-4.060594513930819
 30
0.0
 10
171.0565450981078
 20
-3.94088377397746
 30
0.0
 10
170.9321365897855
 20
-3.840321105589943
 30
0.0
 10
170.8171019658852
 20
-3.72880288800161
 30
0.0
 10
170.7078374099175
 20
-3.609074586538509
 30
0.0
 10
170.6065722759308
 20
-3.480206623849933
 30
0.0
 10
170.5132720812911
 20
-3.34111256307184
 30
0.0
 10
170.4269655793294
 20
-3.193260476189444
 30
0.0
 10
170.3217960526509
 20
-2.982131414159521
 30
0.0
 10
170.2117787410913
 20
-2.701716944824917
 30
0.0
 10
170.1201600497897
 20
-2.344525204539987
 30
0.0
 10
170.0607247393074
 20
-1.968088374474443
 30
0.0
 10
170.0544310456485
 20
-1.70960360996342
 30
0.0
 10
170.0512185121193
 20
-1.57766344608405
 30
0.0
  0
SPLINE
  5
80
330
1F
100
AcDbEntity
  8
0
  6
Continuous
 62
     7
370
    25
100
AcDbSpline
210
0.0
220
0.0
230
1.0
 70
     8
 71
     3
 72
    31
 73
    27
 74
     0
 42
0.000000001
 43
0.00000001
 40
0.0
 40
0.0
 40
0.0
 40
0.0
 40
0.0524914239297423
 40
0.1031445243599772
 40
0.1513951639948415
 40
0.1980298702965084
 40
0.2428716967116381
 40
0.2863042308343089
 40
0.3278482240868875
 40
0.3683932627176636
 40
0.4078497842878926
 40
0.4468344837555468
 40
0.4851621283359214
 40
0.5235843258395605
 40
0.5616119105623153
 40
0.5999287342377343
 40
0.6385044218754427
 40
0.6777977034331835
 40
0.7172962419434415
 40
0.7566106248152173
 40
0.7960724009495312
 40
0.8358898606988091
 40
0.8757164321439891
 40
0.9162653059694281
 40
0.9577606097175919
 40
1.0
 40
1.0
 40
1.0
 40
1.0
 10
170.0512185121193
 20
-1.577663446084049
 30
0.0
 10
170.0519321240196
 20
-1.493774815156439
 30
0.0
 10
170.0533343561276
 20
-1.328935451152536
 30
0.0
 10
170.0695017257208
 20
-1.087448360992914
 30
0.0
 10
170.0936004468246
 20
-0.8560872622802714
 30
0.0
 10
170.1287576913703
 20
-0.635455896906476
 30
0.0
 10
170.1755820005881
 20
-0.4249323590870583
 30
0.0
 10
170.2303914167003
 20
-0.2247556806180121
 30
0.0
 10
170.2955896132005
 20
-0.0349438672956413
 30
0.0
 10
170.3706532270531
 20
0.1444073290933775
 30
0.0
 10
170.4584756504308
 20
0.3131794198483503
 30
0.0
 10
170.5529672184358
 20
0.4742602219442795
 30
0.0
 10
170.6609355721554
 20
0.6246666730448784
 30
0.0
 10
170.7774953864851
 20
0.7664401079314358
 30
0.0
 10
170.9049552601373
 20
0.8985865068629347
 30
0.0
 10
171.0426673891758
 20
1.020296390820375
 30
0.0
 10
171.1898467836828
 20
1.133703907434801
 30
0.0
 10
171.3468437029783
 20
1.236636861480613
 30
0.0
 10
171.5117986200976
 20
1.328556123428682
 30
0.0
 10
171.6818883463635
 20
1.411227402751183
 30
0.0
 10
171.8583610768977
 20
1.480876647682202
 30
0.0
 10
172.0403210895809
 20
1.537007953757062
 30
0.0
 10
172.2265517386424
 20
1.584553831696777
 30
0.0
 10
172.4186065142389
 20
1.617525841297646
 30
0.0
 10
172.6158825095002
 20
1.641767961357996
 30
0.0
 10
172.7496314433374
 20
1.647048996448844
 30
0.0
 10
172.8171001727764
 20
1.649712978265222
 30
0.0
  0
LINE
  5
81
330
1F
100
AcDbEntity
  8
0
  6
Continuous
 62
     7
370
    25
100
AcDbLine
 10
172.8171001728
 20
1.6497129783
 30
0.0
 11
172.8171001728
 21
0.5631166116
 31
0.0
  0
SPLINE
  5
82
330
1F
100
AcDbEntity
  8
0
  6
Continuous
 62
     7
370
    25
100
AcDbSpline
210
0.0
220
0.0
230
1.0
 70
     8
 71
     3
 72
    19
 73
    15
 74
     0
 42
0.000000001
 43
0.00000001
 40
0.0
 40
0.0
 40
0.0
 40
0.0
 40
0.0938051278846023
 40
0.1802047019423025
 40
0.2603872225598506
 40
0.3350960170104951
 40
0.4070661315378785
 40
0.4814283678149883
 40
0.5592580851148334
 40
0.6426896252344012
 40
0.728560893709952
 40
0.8159605604475632
 40
0.9060264571570037
 40
1.0
 40
1.0
 40
1.0
 40
1.0
 10
172.8171001727763
 20
0.5631166115785236
 30
0.0
 10
172.7195295471985
 20
0.551181810428681
 30
0.0
 10
172.5320911214206
 20
0.528254414747351
 30
0.0
 10
172.2665722772429
 20
0.4638286529903365
 30
0.0
 10
172.027103842809
 20
0.3818944224385245
 30
0.0
 10
171.8133781293815
 20
0.2763228745638576
 30
0.0
 10
171.6228684440683
 20
0.1433152332063143
 30
0.0
 10
171.4531336119919
 20
-0.0203612297321951
 30
0.0
 10
171.3048038027474
 20
-0.2185124423837069
 30
0.0
 10
171.1748590318562
 20
-0.4429847003303689
 30
0.0
 10
171.0704128566333
 20
-0.6914531691330104
 30
0.0
 10
170.9944648733179
 20
-0.9571297761033191
 30
0.0
 10
170.9490545669261
 20
-1.238604250008377
 30
0.0
 10
170.9432273666518
 20
-1.431381136815204
 30
0.0
 10
170.9402519030448
 20
-1.529816162891879
 30
0.0
  0
SPLINE
  5
83
330
1F
100
AcDbEntity
  8
0
  6
Continuous
 62
     7
370
    25
100
AcDbSpline
210
0.0
220
0.0
230
1.0
 70
     8
 71
     3
 72
    19
 73
    15
 74
     0
 42
0.000000001
 43
0.00000001
 40
0.0
 40
0.0
 40
0.0
 40
0.0
 40
0.1056065824491301
 40
0.205294502030291
 40
0.3010003042915567
 40
0.3930753030860882
 40
0.48048732662271
 40
0.5629401060451943
 40
0.6410943740731792
 40
0.7177656570272714
 40
0.7918117124780291
 40
0.8625487575491094
 40
0.9317621811337393
 40
1.0
 40
1.0
 40
1.0
 40
1.0
 10
170.9402519030448
 20
-1.529816162891879
 30
0.0
 10
170.9418196833363
 20
-1.616925728501901
 30
0.0
 10
170.9448673785346
 20
-1.786262851996057
 30
0.0
 10
170.9831388585138
 20
-2.031862140299962
 30
0.0
 10
171.0361407885134
 20
-2.263122392490097
 30
0.0
 10
171.1168374455611
 20
-2.475819975711277
 30
0.0
 10
171.2168034515475
 20
-2.667610301353844
 30
0.0
 10
171.3335621112142
 20
-2.836243923972829
 30
0.0
 10
171.4700548118099
 20
-2.977492406358953
 30
0.0
 10
171.6213284850817
 20
-3.091228496445461
 30
0.0
 10
171.7818081706948
 20
-3.179580467888556
 30
0.0
 10
171.9474072092683
 20
-3.241156077971652
 30
0.0
 10
172.1148526113727
 20
-3.282617797195663
 30
0.0
 10
172.2282900665991
 20
-3.287124204804633
 30
0.0
 10
172.28460621467
 20
-3.289361415765227
 30
0.0
  0
SPLINE
  5
84
330
1F
100
AcDbEntity
  8
0
  6
Continuous
 62
     7
370
    25
100
AcDbSpline
210
0.0
220
0.0
230
1.0
 70
     8
 71
     3
 72
    15
 73
    11
 74
     0
 42
0.000000001
 43
0.00000001
 40
0.0
 40
0.0
 40
0.0
 40
0.0
 40
0.1177987900794475
 40
0.2304740872449115
 40
0.3397536598435695
 40
0.4505653768738533
 40
0.5669138917024851
 40
0.696871496184061
 40
0.8393957262157339
 40
1.0
 40
1.0
 40
1.0
 40
1.0
 10
172.28460621467
 20
-3.289361415765227
 30
0.0
 10
172.3403611067313
 20
-3.286980484646864
 30
0.0
 10
172.4494459101373
 20
-3.282322177664865
 30
0.0
 10
172.6070317725605
 20
-3.24608428899865
 30
0.0
 10
172.7531316382674
 20
-3.186111170465986
 30
0.0
 10
172.8901321223073
 20
-3.103620997136281
 30
0.0
 10
173.0166247954748
 20
-2.990167718544084
 30
0.0
 10
173.1308965921086
 20
-2.845289916345902
 30
0.0
 10
173.237530080495
 20
-2.669664302539439
 30
0.0
 10
173.2946404208642
 20
-2.537999343426385
 30
0.0
 10
173.3248987589126
 20
-2.468240297757665
 30
0.0
  0
SPLINE
  5
85
330
1F
100
AcDbEntity
  8
0
  6
Continuous
 62
     7
370
    25
100
AcDbSpline
210
0.0
220
0.0
230
1.0
 70
     8
 71
     3
 72
    23
 73
    19
 74
     0
 42
0.000000001
 43
0.00000001
 40
0.0
 40
0.0
 40
0.0
 40
0.0
 40
0.0312002304346102
 40
0.0704869884929089
 40
0.1172152781426558
 40
0.1715761829432936
 40
0.2335962817632863
 40
0.3039648669667249
 40
0.3816296779030713
 40
0.4671205866526497
 40
0.5538100774067988
 40
0.6345494703435135
 40
0.7100355793241766
 40
0.779091559226344
 40
0.842965044994846
 40
0.9010008283697416
 40
0.9532460777154976
 40
1.0
 40
1.0
 40
1.0
 40
1.0
 10
173.3248987589126
 20
-2.468240297757665
 30
0.0
 10
173.3360385231897
 20
-2.441095473739999
 30
0.0
 10
173.3612052743796
 20
-2.379770385062036
 30
0.0
 10
173.3945123257367
 20
-2.274659323729673
 30
0.0
 10
173.437633321456
 20
-2.14994600111524
 30
0.0
 10
173.4816644664539
 20
-2.003028916990993
 30
0.0
 10
173.5294880870854
 20
-1.834117371926976
 30
0.0
 10
173.5814138313745
 20
-1.643598744274392
 30
0.0
 10
173.6388595473559
 20
-1.431720008818119
 30
0.0
 10
173.698586397101
 20
-1.204568749069451
 30
0.0
 10
173.7597417379435
 20
-0.9748065554905319
 30
0.0
 10
173.8212796694892
 20
-0.7548835105085231
 30
0.0
 10
173.8828104766858
 20
-0.5522262848184093
 30
0.0
 10
173.9429505693624
 20
-0.365744368807944
 30
0.0
 10
174.002973634304
 20
-0.1965216871314985
 30
0.0
 10
174.0616493131085
 20
-0.0436895213283482
 30
0.0
 10
174.1177254859045
 20
0.092961504212305
 30
0.0
 10
174.1589592543042
 20
0.1764222757863849
 30
0.0
 10
174.178432552631
 20
0.2158379432482577
 30
0.0
  0
SPLINE
  5
86
330
1F
100
AcDbEntity
  8
0
  6
Continuous
 62
     7
370
    25
100
AcDbSpline
210
0.0
220
0.0
230
1.0
 70
     8
 71
     3
 72
    15
 73
    11
 74
     0
 42
0.000000001
 43
0.00000001
 40
0.0
 40
0.0
 40
0.0
 40
0.0
 40
0.1448442363608607
 40
0.2795870721076559
 40
0.4059805123918966
 40
0.5271207453990882
 40
0.6450442430272642
 40
0.7618212876468907
 40
0.8789094726449308
 40
1.0
 40
1.0
 40
1.0
 40
1.0
 10
174.178432552631
 20
0.2158379432482577
 30
0.0
 10
174.227453266079
 20
0.3064928707088825
 30
0.0
 10
174.3220760007485
 20
0.4814804737896283
 30
0.0
 10
174.4905325854974
 20
0.7171659546361987
 30
0.0
 10
174.6792588124373
 20
0.9140708347356422
 30
0.0
 10
174.8844776076105
 20
1.074916628485504
 30
0.0
 10
175.105652176447
 20
1.20012737319766
 30
0.0
 10
175.3407821888017
 20
1.287464351084423
 30
0.0
 10
175.5879374746748
 20
1.345042812242117
 30
0.0
 10
175.7575800697689
 20
1.350562363746773
 30
0.0
 10
175.8438266998681
 20
1.353368514623395
 30
0.0
  0
SPLINE
  5
87
330
1F
100
AcDbEntity
  8
0
  6
Continuous
 62
     7
370
    25
100
AcDbSpline
210
0.0
220
0.0
230
1.0
 70
     8
 71
     3
 72
    23
 73
    19
 74
     0
 42
0.000000001
 43
0.00000001
 40
0.0
 40
0.0
 40
0.0
 40
0.0
 40
0.0750066687427169
 40
0.1491877198362651
 40
0.2236977009263292
 40
0.3006537583615155
 40
0.339818069505026
 40
0.3791740369328032
 40
0.418355051056555
 40
0.4581902312915868
 40
0.4983932796064643
 40
0.5400215645368449
 40
0.5821789238644189
 40
0.6261611767731989
 40
0.7158320129242087
 40
0.8073553152234726
 40
0.90161943354117
 40
1.0
 40
1.0
 40
1.0
 40
1.0
 10
175.8438266998681
 20
1.353368514623395
 30
0.0
 10
175.9393538441477
 20
1.349711142399187
 30
0.0
 10
176.1293566409178
 20
1.342436655585303
 30
0.0
 10
176.408077733732
 20
1.277590874936227
 30
0.0
 10
176.6769023722824
 20
1.174858408079966
 30
0.0
 10
176.8891010358179
 20
1.055430773266706
 30
0.0
 10
177.0504849675366
 20
0.9409554996073204
 30
0.0
 10
177.1665338532796
 20
0.8460051712069392
 30
0.0
 10
177.2731771812273
 20
0.7394844001532692
 30
0.0
 10
177.3740794743998
 20
0.6260531230946309
 30
0.0
 10
177.4652995040127
 20
0.5007932218146384
 30
0.0
 10
177.5500126372787
 20
0.3676035121019098
 30
0.0
 10
177.625917789703
 20
0.2237148456267978
 30
0.0
 10
177.7184627749466
 20
0.0200018559743418
 30
0.0
 10
177.8133449154647
 20
-0.2509542812929564
 30
0.0
 10
177.8955502527625
 20
-0.5921106152821729
 30
0.0
 10
177.9436722732806
 20
-0.9511916044471791
 30
0.0
 10
177.9503349962603
 20
-1.196284123425179
 30
0.0
 10
177.953737542568
 20
-1.32144896189372
 30
0.0
  0
SPLINE
  5
88
330
1F
100
AcDbEntity
  8
0
  6
Continuous
 62
     7
370
    25
100
AcDbSpline
210
0.0
220
0.0
230
1.0
 70
     8
 71
     3
 72
    23
 73
    19
 74
     0
 42
0.000000001
 43
0.00000001
 40
0.0
 40
0.0
 40
0.0
 40
0.0
 40
0.1004854727332226
 40
0.1952903936341697
 40
0.2861058758310013
 40
0.3730143823631299
 40
0.4150615268508793
 40
0.4560917835696063
 40
0.4959829929563461
 40
0.5356144387019331
 40
0.574139451623823
 40
0.6125756118125648
 40
0.6511412804892459
 40
0.689577440677989
 40
0.7661247573396167
 40
0.842383056853743
 40
0.9199279403945375
 40
1.0
 40
1.0
 40
1.0
 40
1.0
 10
177.953737542568
 20
-1.32144896189372
 30
0.0
 10
177.9506428896943
 20
-1.458457697513306
 30
0.0
 10
177.9446285280016
 20
-1.72472991759336
 30
0.0
 10
177.8932418487489
 20
-2.112249480334099
 30
0.0
 10
177.8065838768388
 20
-2.473940213727756
 30
0.0
 10
177.7085230535787
 20
-2.757920024911649
 30
0.0
 10
177.6095712663721
 20
-2.967538932489803
 30
0.0
 10
177.5323437204538
 20
-3.116454718549343
 30
0.0
 10
177.4430589656258
 20
-3.254678403481187
 30
0.0
 10
177.34643867232
 20
-3.383455395943832
 30
0.0
 10
177.2425241613557
 20
-3.503973872054714
 30
0.0
 10
177.128858599895
 20
-3.613166453569674
 30
0.0
 10
177.0092637242626
 20
-3.715660517962163
 30
0.0
 10
176.8379949805774
 20
-3.836392166126959
 30
0.0
 10
176.6095713608486
 20
-3.963703311350114
 30
0.0
 10
176.3168353672581
 20
-4.079710235927494
 30
0.0
 10
176.0051168318621
 20
-4.153165156262123
 30
0.0
 10
175.7906938198668
 20
-4.169895506977407
 30
0.0
 10
175.681763321314
 20
-4.178394806690708
 30
0.0
  0
LINE
  5
89
330
1F
100
AcDbEntity
  8
0
  6
Continuous
 62
     7
370
    25
100
AcDbLine
 10
175.6817633213
 20
-4.1783948067
 30
0.0
 11
175.6817633213
 21
-3.09179844
 31
0.0
  0
SPLINE
  5
8A
330
1F
100
AcDbEntity
  8
0
  6
Continuous
 62
     7
370
    25
100
AcDbSpline
210
0.0
220
0.0
230
1.0
 70
     8
 71
     3
 72
    23
 73
    19
 74
     0
 42
0.000000001
 43
0.00000001
 40
0.0
 40
0.0
 40
0.0
 40
0.0
 40
0.0671623272160568
 40
0.1315519310131722
 40
0.1927004949743782
 40
0.2512273599864285
 40
0.3076841970531339
 40
0.3630386401042379
 40
0.4177188602638047
 40
0.4722504829796635
 40
0.5278243731306195
 40
0.5851876190676839
 40
0.6450203194062396
 40
0.7079225244757801
 40
0.7744112310571091
 40
0.8449245924189533
 40
0.9203954638965637
 40
1.0
 40
1.0
 40
1.0
 40
1.0
 10
175.681763321314
 20
-3.091798440004009
 30
0.0
 10
175.7369912347752
 20
-3.085121666863626
 30
0.0
 10
175.8451670375323
 20
-3.072043763878986
 30
0.0
 10
176.0006277252103
 20
-3.035343897195091
 30
0.0
 10
176.1466735730229
 20
-2.991484402927469
 30
0.0
 10
176.281547317384
 20
-2.935573377702983
 30
0.0
 10
176.4064784505305
 20
-2.869526654426938
 30
0.0
 10
176.5190067244288
 20
-2.789517406226834
 30
0.0
 10
176.6234768028775
 20
-2.701824511037037
 30
0.0
 10
176.7170098001102
 20
-2.602061317252719
 30
0.0
 10
176.799170290453
 20
-2.490043203786533
 30
0.0
 10
176.8703454882641
 20
-2.365689121516813
 30
0.0
 10
176.9305115700621
 20
-2.229038760254233
 30
0.0
 10
176.9797785682933
 20
-2.080142075437724
 30
0.0
 10
177.0179813208647
 20
-1.918989760996714
 30
0.0
 10
177.0460831400865
 20
-1.745209434726454
 30
0.0
 10
177.060475534863
 20
-1.558869965435618
 30
0.0
 10
177.0632697850247
 20
-1.430540804064306
 30
0.0
 10
177.0647041516426
 20
-1.364665862841486
 30
0.0
  0
SPLINE
  5
8B
330
1F
100
AcDbEntity
  8
0
  6
Continuous
 62
     7
370
    25
100
AcDbSpline
210
0.0
220
0.0
230
1.0
 70
     8
 71
     3
 72
    23
 73
    19
 74
     0
 42
0.000000001
 43
0.00000001
 40
0.0
 40
0.0
 40
0.0
 40
0.0
 40
0.0915402491795636
 40
0.1771994092101612
 40
0.2571905613614159
 40
0.3313041270694984
 40
0.4007201746539621
 40
0.4651409511236388
 40
0.5265090667790441
 40
0.5849973562890067
 40
0.6409706111787778
 40
0.6950858833269563
 40
0.7464402754021329
 40
0.7969674410206932
 40
0.8473115451001829
 40
0.8974058009670712
 40
0.9476322069754168
 40
1.0
 40
1.0
 40
1.0
 40
1.0
 10
177.0647041516426
 20
-1.364665862841486
 30
0.0
 10
177.0641886027702
 20
-1.296191701442262
 30
0.0
 10
177.0631906269462
 20
-1.16364256535347
 30
0.0
 10
177.0449707098577
 20
-0.9720316568497415
 30
0.0
 10
177.0200095914022
 20
-0.7944190608058849
 30
0.0
 10
176.9830614335027
 20
-0.6311722408808198
 30
0.0
 10
176.9352594337359
 20
-0.4830662795523149
 30
0.0
 10
176.8787594028045
 20
-0.3481275229128818
 30
0.0
 10
176.8085688240343
 20
-0.2291652006134932
 30
0.0
 10
176.7300171139213
 20
-0.1233374927862496
 30
0.0
 10
176.6422553996661
 20
-0.0325902283276317
 30
0.0
 10
176.5523323738566
 20
0.0482514404199363
 30
0.0
 10
176.4564180722328
 20
0.1149428342201303
 30
0.0
 10
176.357692752375
 20
0.1722185811356455
 30
0.0
 10
176.2519209417926
 20
0.2125971013440776
 30
0.0
 10
176.1436996658713
 20
0.244199871849156
 30
0.0
 10
176.0307499280954
 20
0.2634367604846843
 30
0.0
 10
175.9540012154607
 20
0.265644988447943
 30
0.0
 10
175.9148258942824
 20
0.2667721479366966
 30
0.0
  0
SPLINE
  5
8C
330
1F
100
AcDbEntity
  8
0
  6
Continuous
 62
     7
370
    25
100
AcDbSpline
210
0.0
220
0.0
230
1.0
 70
     8
 71
     3
 72
    11
 73
     7
 74
     0
 42
0.000000001
 43
0.00000001
 40
0.0
 40
0.0
 40
0.0
 40
0.0
 40
0.2627412305282889
 40
0.5099565029432493
 40
0.7533267184204648
 40
1.0
 40
1.0
 40
1.0
 40
1.0
 10
175.9148258942823
 20
0.2667721479366965
 30
0.0
 10
175.8485358391083
 20
0.2639641271589702
 30
0.0
 10
175.719872954153
 20
0.258514017737156
 30
0.0
 10
175.5370817789761
 20
0.2028604320081348
 30
0.0
 10
175.37045577913
 20
0.1172648277762312
 30
0.0
 10
175.2797954235433
 20
0.0329395193845693
 30
0.0
 10
175.234159704355
 20
-0.0095073259793815
 30
0.0
  0
SPLINE
  5
8D
330
1F
100
AcDbEntity
  8
0
  6
Continuous
 62
     7
370
    25
100
AcDbSpline
210
0.0
220
0.0
230
1.0
 70
     8
 71
     3
 72
    23
 73
    19
 74
     0
 42
0.000000001
 43
0.00000001
 40
0.0
 40
0.0
 40
0.0
 40
0.0
 40
0.0327432285933736
 40
0.0724096284093061
 40
0.1196115236461721
 40
0.1746729704771964
 40
0.2373451653072269
 40
0.3083525144271088
 40
0.3876301704355174
 40
0.4752486515278147
 40
0.5633321777983351
 40
0.6451361045263625
 40
0.7202024381750501
 40
0.789134089599801
 40
0.8514970265732927
 40
0.9073305751045094
 40
0.9569686687243106
 40
0.9999999999999999
 40
0.9999999999999999
 40
0.9999999999999999
 40
0.9999999999999999
 10
175.234159704355
 20
-0.0095073259793815
 30
0.0
 10
175.211353151216
 20
-0.036265363624443
 30
0.0
 10
175.1609178670661
 20
-0.095439111787849
 30
0.0
 10
175.0941727755886
 20
-0.2055410192248323
 30
0.0
 10
175.0267348367839
 20
-0.342050915485307
 30
0.0
 10
174.9596988099674
 20
-0.5058817097164562
 30
0.0
 10
174.8922368853781
 20
-0.6967479729867231
 30
0.0
 10
174.8228284269841
 20
-0.9143578687732938
 30
0.0
 10
174.7535299802953
 20
-1.159949087088106
 30
0.0
 10
174.6878617798381
 20
-1.425399641354081
 30
0.0
 10
174.6203233021407
 20
-1.693158030915048
 30
0.0
 10
174.5541598973431
 20
-1.947377480101128
 30
0.0
 10
174.4911052639363
 20
-2.181180376565952
 30
0.0
 10
174.429661482767
 20
-2.393788230270672
 30
0.0
 10
174.3699321998965
 20
-2.585403372841522
 30
0.0
 10
174.3106824319109
 20
-2.755364006034191
 30
0.0
 10
174.25618702861
 20
-2.905044225397728
 30
0.0
 10
174.2178451649349
 20
-2.996741065854617
 30
0.0
 10
174.2000410031049
 20
-3.039320774567435
 30
0.0
  0
SPLINE
  5
8E
330
1F
100
AcDbEntity
  8
0
  6
Continuous
 62
     7
370
    25
100
AcDbSpline
210
0.0
220
0.0
230
1.0
 70
     8
 71
     3
 72
    19
 73
    15
 74
     0
 42
0.000000001
 43
0.00000001
 40
0.0
 40
0.0
 40
0.0
 40
0.0
 40
0.0749447742392463
 40
0.1471040323661748
 40
0.2164033458220617
 40
0.2825535083353223
 40
0.3472370153930515
 40
0.4093960302398533
 40
0.469411828790867
 40
0.5289729556527923
 40
0.6445731037095583
 40
0.7598754644592406
 40
0.8776952064463197
 40
1.0
 40
1.0
 40
1.0
 40
1.0
 10
174.2000410031049
 20
-3.039320774567435
 30
0.0
 10
174.1745007127989
 20
-3.094720645424634
 30
0.0
 10
174.1243694030452
 20
-3.203461307844186
 30
0.0
 10
174.0387443503929
 20
-3.357481489600999
 30
0.0
 10
173.9499517080617
 20
-3.501295096110532
 30
0.0
 10
173.8548089993581
 20
-3.633621889157388
 30
0.0
 10
173.7552742076381
 20
-3.755235267058066
 30
0.0
 10
173.6502085583724
 20
-3.86539499976369
 30
0.0
 10
173.5392799910584
 20
-3.963419414975486
 30
0.0
 10
173.3870957986977
 20
-4.079694723842355
 30
0.0
 10
173.1816078900393
 20
-4.198915332263699
 30
0.0
 10
172.9160619667476
 20
-4.301366498571612
 30
0.0
 10
172.6323396227999
 20
-4.36544769070001
 30
0.0
 10
172.4367203878524
 20
-4.372411064516154
 30
0.0
 10
172.3370838801065
 20
-4.375957782451925
 30
0.0
  0
SPLINE
  5
8F
330
1F
100
AcDbEntity
  8
0
  6
Continuous
 62
     7
370
    25
100
AcDbSpline
210
0.0
220
0.0
230
1.0
 70
     8
 71
     3
 72
    31
 73
    27
 74
     0
 42
0.000000001
 43
0.00000001
 40
0.0
 40
0.0
 40
0.0
 40
0.0
 40
0.0475578552366902
 40
0.0939587433032095
 40
0.1391065558658783
 40
0.1836197400246771
 40
0.2274488900464211
 40
0.2706928248855325
 40
0.313599311211237
 40
0.3562477041775117
 40
0.398351899516372
 40
0.4395407877600366
 40
0.480028207120875
 40
0.5198698942281282
 40
0.559637725906595
 40
0.5992029826732288
 40
0.6391968721421507
 40
0.679436659703796
 40
0.7197866934653601
 40
0.7596242810853118
 40
0.7995642296549561
 40
0.839202071176476
 40
0.8787078412220473
 40
0.9187971748226591
 40
0.9590848268300459
 40
1.0
 40
1.0
 40
1.0
 40
1.0
 10
173.9901303413586
 20
-15.73582888872196
 30
0.0
 10
173.8944008561781
 20
-15.73422350788778
 30
0.0
 10
173.7052707518061
 20
-15.73105180123802
 30
0.0
 10
173.4258677211185
 20
-15.7095907366555
 30
0.0
 10
173.1544857732898
 20
-15.67185472438622
 30
0.0
 10
172.8903156902524
 20
-15.62180433311153
 30
0.0
 10
172.6339074417161
 20
-15.55473832175427
 30
0.0
 10
172.3845258069689
 20
-15.47504072686276
 30
0.0
 10
172.1436564559131
 20
-15.37864178557795
 30
0.0
 10
171.910717724479
 20
-15.26977060107928
 30
0.0
 10
171.6889174220497
 20
-15.14658027441549
 30
0.0
 10
171.4797915755665
 20
-15.01070246863535
 30
0.0
 10
171.2853505044048
 20
-14.86199794574308
 30
0.0
 10
171.1030107059818
 20
-14.70288193733297
 30
0.0
 10
170.9370348736042
 20
-14.5293440762685
 30
0.0
 10
170.7825536648382
 20
-14.34510943724527
 30
0.0
 10
170.6444927265136
 20
-14.1470926620166
 30
0.0
 10
170.5189447976862
 20
-13.93910018020391
 30
0.0
 10
170.4110279577552
 20
-13.72182800842034
 30
0.0
 10
170.3141452889022
 20
-13.50016060996892
 30
0.0
 10
170.2326394462337
 20
-13.27383322530499
 30
0.0
 10
170.1659566477397
 20
-13.04341132852578
 30
0.0
 10
170.1150393013435
 20
-12.80870096577219
 30
0.0
 10
170.0778993181181
 20
-12.57012890461605
 30
0.0
 10
170.0559944191373
 20
-12.32673405429544
 30
0.0
 10
170.0528186616905
 20
-12.16327497054918
 30
0.0
 10
170.0512185121193
 20
-12.08091383713942
 30
0.0
  0
SPLINE
  5
90
330
1F
100
AcDbEntity
  8
0
  6
Continuous
 62
     7
370
    25
100
AcDbSpline
210
0.0
220
0.0
230
1.0
 70
     8
 71
     3
 72
    31
 73
    27
 74
     0
 42
0.000000001
 43
0.00000001
 40
0.0
 40
0.0
 40
0.0
 40
0.0
 40
0.0446984804579258
 40
0.0885364955530212
 40
0.1314134861036351
 40
0.1738196996554009
 40
0.2157216787162941
 40
0.2572556815228526
 40
0.2986228232250986
 40
0.3403804249161512
 40
0.3820239467443907
 40
0.4229656048048201
 40
0.4636294312212907
 40
0.5040460841301617
 40
0.5444234833709047
 40
0.5849501772858712
 40
0.6262528364715425
 40
0.6679684024680352
 40
0.7099331391893698
 40
0.7513736197210502
 40
0.7926116955612454
 40
0.8339429353624753
 40
0.8750039103290264
 40
0.9164427625190655
 40
0.9579052194038317
 40
1.0
 40
1.0
 40
1.0
 40
1.0
 10
170.0512185121193
 20
-12.08091383713942
 30
0.0
 10
170.0525287874729
 20
-11.99235928954263
 30
0.0
 10
170.0551241148044
 20
-11.81695490824866
 30
0.0
 10
170.0810265033595
 20
-11.55770172490272
 30
0.0
 10
170.1205490175236
 20
-11.30490139716568
 30
0.0
 10
170.1775804065683
 20
-11.05927457284917
 30
0.0
 10
170.2520789125733
 20
-10.82120934376929
 30
0.0
 10
170.3417296470166
 20
-10.59066485346832
 30
0.0
 10
170.4470114435117
 20
-10.36708223482414
 30
0.0
 10
170.5690509184238
 20
-10.15199012420157
 30
0.0
 10
170.7037718874625
 20
-9.945588466667473
 30
0.0
 10
170.8529026655224
 20
-9.752061504416819
 30
0.0
 10
171.0131590826642
 20
-9.570855645475106
 30
0.0
 10
171.186954622078
 20
-9.404194744194424
 30
0.0
 10
171.3709847154223
 20
-9.249456035806185
 30
0.0
 10
171.5664418476575
 20
-9.106345782246063
 30
0.0
 10
171.7744798922838
 20
-8.977040925748874
 30
0.0
 10
171.9939386737054
 20
-8.862215955375945
 30
0.0
 10
172.2192616864741
 20
-8.75867656969409
 30
0.0
 10
172.4503278288946
 20
-8.671394585725777
 30
0.0
 10
172.6837834288525
 20
-8.5947037302361
 30
0.0
 10
172.9210536631236
 20
-8.533623992575297
 30
0.0
 10
173.1615948603659
 20
-8.484951740077465
 30
0.0
 10
173.405005789975
 20
-8.452222972742094
 30
0.0
 10
173.6516492331488
 20
-8.42858606587551
 30
0.0
 10
173.8172052052369
 20
-8.426865552354748
 30
0.0
 10
173.9006096179668
 20
-8.425998785556889
 30
0.0
  0
SPLINE
  5
91
330
1F
100
AcDbEntity
  8
0
  6
Continuous
 62
     7
370
    25
100
AcDbSpline
210
0.0
220
0.0
230
1.0
 70
     8
 71
     3
 72
    23
 73
    19
 74
     0
 42
0.000000001
 43
0.00000001
 40
0.0
 40
0.0
 40
0.0
 40
0.0
 40
0.0752245959663771
 40
0.1465713103289104
 40
0.2144952598141384
 40
0.2794534070191464
 40
0.342418255685001
 40
0.4035099350204991
 40
0.4637740862491169
 40
0.5238754400688784
 40
0.5832614231365115
 40
0.6413103871737796
 40
0.6989047823355475
 40
0.7563009154929933
 40
0.8146321189351089
 40
0.874327693149184
 40
0.9357847783626052
 40
0.9999999999999999
 40
0.9999999999999999
 40
0.9999999999999999
 40
0.9999999999999999
 10
173.9006096179668
 20
-8.425998785556889
 30
0.0
 10
174.0550816686954
 20
-8.428694795730635
 30
0.0
 10
174.3560626257032
 20
-8.433947834829743
 30
0.0
 10
174.7944242241091
 20
-8.482451376829513
 30
0.0
 10
175.2063728871605
 20
-8.562468315849701
 30
0.0
 10
175.5938142110228
 20
-8.672539897803523
 30
0.0
 10
175.9538261566755
 20
-8.818938732999731
 30
0.0
 10
176.2908356943121
 20
-8.992648386080148
 30
0.0
 10
176.5989771291601
 20
-9.203414763796605
 30
0.0
 10
176.8818132968959
 20
-9.44156709045664
 30
0.0
 10
177.1318382702723
 20
-9.707645267256371
 30
0.0
 10
177.3539023145689
 20
-9.990924445591107
 30
0.0
 10
177.5391284751326
 20
-10.29496407706655
 30
0.0
 10
177.6920646148936
 20
-10.61694927969677
 30
0.0
 10
177.80948445383
 20
-10.95824956862882
 30
0.0
 10
177.8916890512255
 20
-11.31790626197545
 30
0.0
 10
177.9447189983017
 20
-11.69553482302886
 30
0.0
 10
177.950687696043
 20
-11.95365277802908
 30
0.0
 10
177.953737542568
 20
-12.08554421938382
 30
0.0
  0
SPLINE
  5
92
330
1F
100
AcDbEntity
  8
0
  6
Continuous
 62
     7
370
    25
100
AcDbSpline
210
0.0
220
0.0
230
1.0
 70
     8
 71
     3
 72
    31
 73
    27
 74
     0
 42
0.000000001
 43
0.00000001
 40
0.0
 40
0.0
 40
0.0
 40
0.0
 40
0.0430962105208292
 40
0.0855812793888138
 40
0.1271511541395012
 40
0.1679599364923715
 40
0.2086834522596291
 40
0.2490182191755198
 40
0.2895017121304954
 40
0.3302284186456854
 40
0.3705994125936991
 40
0.4106691352986496
 40
0.4502338309827071
 40
0.4897064582702825
 40
0.529297419885241
 40
0.5690644058753134
 40
0.6097280487617227
 40
0.6507812828120462
 40
0.6925289540416139
 40
0.7342361419164379
 40
0.7767212107844224
 40
0.8195633960985703
 40
0.8633594798189282
 40
0.907844427129512
 40
0.9533366921112013
 40
1.0
 40
1.0
 40
1.0
 40
1.0
 10
177.953737542568
 20
-12.08554421938382
 30
0.0
 10
177.9522320497349
 20
-12.17253832810604
 30
0.0
 10
177.949242413263
 20
-12.34529289361797
 30
0.0
 10
177.926047080433
 20
-12.60115513121401
 30
0.0
 10
177.8857563304777
 20
-12.85012824361555
 30
0.0
 10
177.8297643502897
 20
-13.09239012042936
 30
0.0
 10
177.7591091777381
 20
-13.32818035366985
 30
0.0
 10
177.6725480976482
 20
-13.55798045261864
 30
0.0
 10
177.5683947485184
 20
-13.78031802337999
 30
0.0
 10
177.4505090377381
 20
-13.99577885525492
 30
0.0
 10
177.3171372515108
 20
-14.20100346489128
 30
0.0
 10
177.1728382559718
 20
-14.39580024631458
 30
0.0
 10
177.0144282292134
 20
-14.57697798406754
 30
0.0
 10
176.8442006062886
 20
-14.74561801927981
 30
0.0
 10
176.6620774406605
 20
-14.90208675887443
 30
0.0
 10
176.4657947819131
 20
-15.0444351872906
 30
0.0
 10
176.2583483328682
 20
-15.17554160063016
 30
0.0
 10
176.0381267779112
 20
-15.29258326926803
 30
0.0
 10
175.8095434696166
 20
-15.3974245805068
 30
0.0
 10
175.5714444163611
 20
-15.48698062391674
 30
0.0
 10
175.326741851906
 20
-15.56389465750668
 30
0.0
 10
175.0739721404124
 20
-15.62827447094732
 30
0.0
 10
174.8132258596515
 20
-15.67446963279242
 30
0.0
 10
174.5456254000626
 20
-15.71125506972296
 30
0.0
 10
174.2702964670889
 20
-15.73061631676439
 30
0.0
 10
174.0843068547655
 20
-15.73407670739894
 30
0.0
 10
173.9901303413586
 20
-15.73582888872195
 30
0.0
  0
CIRCLE
  5
93
330
1F
100
AcDbEntity
  8
0
  6
Continuous
 62
     7
370
    25
100
AcDbCircle
 10
55.0333333333
 20
104.775
 30
0.0
 40
2.247900000000044
  0
CIRCLE
  5
94
330
1F
100
AcDbEntity
  8
0
  6
Continuous
 62
     7
370
    25
100
AcDbCircle
 10
-149.225
 20
104.775
 30
0.0
 40
2.247900000000044
  0
CIRCLE
  5
95
330
1F
100
AcDbEntity
  8
0
  6
Continuous
 62
     7
370
    25
100
AcDbCircle
 10
55.0333333333
 20
-104.775
 30
0.0
 40
2.247900000000058
  0
CIRCLE
  5
96
330
1F
100
AcDbEntity
  8
0
  6
Continuous
 62
     7
370
    25
100
AcDbCircle
 10
-149.225
 20
-104.775
 30
0.0
 40
2.247900000000058
  0
CIRCLE
  5
97
330
1F
100
AcDbEntity
  8
0
  6
Continuous
 62
     7
370
    25
100
AcDbCircle
 10
-119.38
 20
53.5178
 30
0.0
 40
33.14699999999852
  0
CIRCLE
  5
98
330
1F
100
AcDbEntity
  8
0
  6
Continuous
 62
     7
370
    25
100
AcDbCircle
 10
0.0642908418
 20
53.5178
 30
0.0
 40
33.14699999999852
  0
CIRCLE
  5
99
330
1F
100
AcDbEntity
  8
0
  6
Continuous
 62
     7
370
    25
100
AcDbCircle
 10
55.0333333333
 20
0.0
 30
0.0
 40
2.247900000000128
  0
CIRCLE
  5
9A
330
1F
100
AcDbEntity
  8
0
  6
Continuous
 62
     7
370
    25
100
AcDbCircle
 10
-171.45
 20
0.0
 30
0.0
 40
2.247900000000004
  0
CIRCLE
  5
9B
330
1F
100
AcDbEntity
  8
0
  6
Continuous
 62
     7
370
    25
100
AcDbCircle
 10
119.5085816836
 20
-53.5178
 30
0.0
 40
33.14699999999839
  0
ARC
  5
9C
330
1F
100
AcDbEntity
  8
0
  6
Continuous
 62
     7
370
    25
100
AcDbCircle
 10
-180.975
 20
-111.125
 30
0.0
 40
3.175000000000011
100
AcDbArc
 50
180.0
 51
270.0
  0
LINE
  5
9D
330
1F
100
AcDbEntity
  8
0
  6
Continuous
 62
     7
370
    25
100
AcDbLine
 10
-180.975
 20
-114.3
 30
0.0
 11
180.975
 21
-114.3
 31
0.0
  0
ARC
  5
9E
330
1F
100
AcDbEntity
  8
0
  6
Continuous
 62
     7
370
    25
100
AcDbCircle
 10
180.975
 20
-111.125
 30
0.0
 40
3.175000000000011
100
AcDbArc
 50
270.0
 51
0.0
  0
LINE
  5
9F
330
1F
100
AcDbEntity
  8
0
  6
Continuous
 62
     7
370
    25
100
AcDbLine
 10
184.15
 20
-111.125
 30
0.0
 11
184.15
 21
111.125
 31
0.0
  0
ARC
  5
A0
330
1F
100
AcDbEntity
  8
0
  6
Continuous
 62
     7
370
    25
100
AcDbCircle
 10
180.975
 20
111.125
 30
0.0
 40
3.175000000000011
100
AcDbArc
 50
0.0
 51
90.0
  0
LINE
  5
A1
330
1F
100
AcDbEntity
  8
0
  6
Continuous
 62
     7
370
    25
100
AcDbLine
 10
180.975
 20
114.3
 30
0.0
 11
-180.975
 21
114.3
 31
0.0
  0
ARC
  5
A2
330
1F
100
AcDbEntity
  8
0
  6
Continuous
 62
     7
370
    25
100
AcDbCircle
 10
-180.975
 20
111.125
 30
0.0
 40
3.175000000000011
100
AcDbArc
 50
90.0
 51
180.0
  0
LINE
  5
A3
330
1F
100
AcDbEntity
  8
0
  6
Continuous
 62
     7
370
    25
100
AcDbLine
 10
-184.15
 20
111.125
 30
0.0
 11
-184.15
 21
-111.125
 31
0.0
  0
CIRCLE
  5
A4
330
1F
100
AcDbEntity
  8
0
  6
Continuous
 62
     7
370
    25
100
AcDbCircle
 10
165.1
 20
0.0
 30
0.0
 40
2.247900000000004
  0
CIRCLE
  5
A5
330
1F
100
AcDbEntity
  8
0
  6
Continuous
 62
     7
370
    25
100
AcDbCircle
 10
-55.0333333333
 20
0.0
 30
0.0
 40
2.247900000000128
  0
CIRCLE
  5
A6
330
1F
100
AcDbEntity
  8
0
  6
Continuous
 62
     7
370
    25
100
AcDbCircle
 10
119.5085816836
 20
53.5178
 30
0.0
 40
33.14699999999854
  0
CIRCLE
  5
A7
330
1F
100
AcDbEntity
  8
0
  6
Continuous
 62
     7
370
    25
100
AcDbCircle
 10
0.0642908418
 20
-53.5178
 30
0.0
 40
33.14699999999853
  0
CIRCLE
  5
A8
330
1F
100
AcDbEntity
  8
0
  6
Continuous
 62
     7
370
    25
100
AcDbCircle
 10
-119.38
 20
-53.5178
 30
0.0
 40
33.14699999999959
  0
CIRCLE
  5
A9
330
1F
100
AcDbEntity
  8
0
  6
Continuous
 62
     7
370
    25
100
AcDbCircle
 10
-55.0333333333
 20
-104.775
 30
0.0
 40
2.247900000000058
  0
CIRCLE
  5
AA
330
1F
100
AcDbEntity
  8
0
  6
Continuous
 62
     7
370
    25
100
AcDbCircle
 10
165.1
 20
-104.775
 30
0.0
 40
2.247900000000087
  0
CIRCLE
  5
AB
330
1F
100
AcDbEntity
  8
0
  6
Continuous
 62
     7
370
    25
100
AcDbCircle
 10
-55.0333333333
 20
104.775
 30
0.0
 40
2.247900000000044
  0
CIRCLE
  5
AC
330
1F
100
AcDbEntity
  8
0
  6
Continuous
 62
     7
370
    25
100
AcDbCircle
 10
165.1
 20
104.775
 30
0.0
 40
2.247900000000072
  0
LINE
  5
AD
330
1F
100
AcDbEntity
  8
0
  6
Continuous
 62
     7
370
    25
100
AcDbLine
 10
176.9659226638
 20
-27.7871704102
 30
0.0
 11
170.15
 21
-27.7871704102
 31
0.0
  0
LINE
  5
AE
330
1F
100
AcDbEntity
  8
0
  6
Continuous
 62
     7
370
    25
100
AcDbLine
 10
170.15
 20
-27.7871704102
 30
0.0
 11
170.15
 21
-26.7005740435
 31
0.0
  0
LINE
  5
AF
330
1F
100
AcDbEntity
  8
0
  6
Continuous
 62
     7
370
    25
100
AcDbLine
 10
170.15
 20
-26.7005740435
 30
0.0
 11
176.9659226638
 21
-26.7005740435
 31
0.0
  0
LINE
  5
B0
330
1F
100
AcDbEntity
  8
0
  6
Continuous
 62
     7
370
    25
100
AcDbLine
 10
176.9659226638
 20
-26.7005740435
 30
0.0
 11
176.9659226638
 21
-24.2310368465
 31
0.0
  0
LINE
  5
B1
330
1F
100
AcDbEntity
  8
0
  6
Continuous
 62
     7
370
    25
100
AcDbLine
 10
176.9659226638
 20
-24.2310368465
 30
0.0
 11
177.8549560547
 21
-24.2310368465
 31
0.0
  0
LINE
  5
B2
330
1F
100
AcDbEntity
  8
0
  6
Continuous
 62
     7
370
    25
100
AcDbLine
 10
177.8549560547
 20
-24.2310368465
 30
0.0
 11
177.8549560547
 21
-30.2567076072
 31
0.0
  0
LINE
  5
B3
330
1F
100
AcDbEntity
  8
0
  6
Continuous
 62
     7
370
    25
100
AcDbLine
 10
177.8549560547
 20
-30.2567076072
 30
0.0
 11
176.9659226638
 21
-30.2567076072
 31
0.0
  0
LINE
  5
B4
330
1F
100
AcDbEntity
  8
0
  6
Continuous
 62
     7
370
    25
100
AcDbLine
 10
176.9659226638
 20
-30.2567076072
 30
0.0
 11
176.9659226638
 21
-27.7871704102
 31
0.0
  0
SPLINE
  5
B5
330
1F
100
AcDbEntity
  8
0
  6
Continuous
 62
     7
370
    25
100
AcDbSpline
210
0.0
220
0.0
230
1.0
 70
     8
 71
     3
 72
    23
 73
    19
 74
     0
 42
0.000000001
 43
0.00000001
 40
0.0
 40
0.0
 40
0.0
 40
0.0
 40
0.069465956462161
 40
0.134131731538135
 40
0.1940016751469157
 40
0.2497749598275609
 40
0.3026071510283605
 40
0.3522433821235504
 40
0.399494895811802
 40
0.4459062730769481
 40
0.4940018822940049
 40
0.5466505452254801
 40
0.6048305056727447
 40
0.6694422059892617
 40
0.7409376460453738
 40
0.8198652327833629
 40
0.9059866510799655
 40
1.0
 40
1.0
 40
1.0
 40
1.0
 10
171.0390333909254
 20
-20.01584554329897
 30
0.0
 10
171.0404689253396
 20
-20.10026607546902
 30
0.0
 10
171.0432407970081
 20
-20.26327357920227
 30
0.0
 10
171.065642220426
 20
-20.49831699821542
 30
0.0
 10
171.1063664947492
 20
-20.71382690891473
 30
0.0
 10
171.1593158033297
 20
-20.91191456650566
 30
0.0
 10
171.2301181790565
 20
-21.09115816081623
 30
0.0
 10
171.3163709040429
 20
-21.25197054778144
 30
0.0
 10
171.4200117245559
 20
-21.39250635804067
 30
0.0
 10
171.5388074144495
 20
-21.51808415107839
 30
0.0
 10
171.6831876871672
 20
-21.62526647299973
 30
0.0
 10
171.855674649513
 20
-21.71338713562363
 30
0.0
 10
172.054662188732
 20
-21.79073277405572
 30
0.0
 10
172.2827050547442
 20
-21.8535117591275
 30
0.0
 10
172.5401489401862
 20
-21.89948061182046
 30
0.0
 10
172.8254950016542
 20
-21.93535252055178
 30
0.0
 10
173.1399482270666
 20
-21.95417682663841
 30
0.0
 10
173.3588335228452
 20
-21.95738714301417
 30
0.0
 10
173.4730709907336
 20
-21.95906262520032
 30
0.0
  0
LINE
  5
B6
330
1F
100
AcDbEntity
  8
0
  6
Continuous
 62
     7
370
    25
100
AcDbLine
 10
173.4730709907
 20
-21.9590626252
 30
0.0
 11
177.8549560547
 21
-21.9590626252
 31
0.0
  0
LINE
  5
B7
330
1F
100
AcDbEntity
  8
0
  6
Continuous
 62
     7
370
    25
100
AcDbLine
 10
177.8549560547
 20
-21.9590626252
 30
0.0
 11
177.8549560547
 21
-23.0456589919
 31
0.0
  0
LINE
  5
B8
330
1F
100
AcDbEntity
  8
0
  6
Continuous
 62
     7
370
    25
100
AcDbLine
 10
177.8549560547
 20
-23.0456589919
 30
0.0
 11
173.422136786
 21
-23.0456589919
 31
0.0
  0
SPLINE
  5
B9
330
1F
100
AcDbEntity
  8
0
  6
Continuous
 62
     7
370
    25
100
AcDbSpline
210
0.0
220
0.0
230
1.0
 70
     8
 71
     3
 72
    31
 73
    27
 74
     0
 42
0.000000001
 43
0.00000001
 40
0.0
 40
0.0
 40
0.0
 40
0.0
 40
0.0546345405169214
 40
0.1063189053531601
 40
0.1551304234917769
 40
0.2014494093670261
 40
0.244979598024179
 40
0.2858437649014232
 40
0.3245131062235003
 40
0.3607620177843745
 40
0.3955290607979377
 40
0.4302448060439576
 40
0.4647713772852549
 40
0.499461445201396
 40
0.5345410502507334
 40
0.5704466434292804
 40
0.6071826965753526
 40
0.6449414673186308
 40
0.6838554483441969
 40
0.7236558167481997
 40
0.764920340397866
 40
0.8080154065420613
 40
0.852800754874335
 40
0.8995334310361868
 40
0.94864251932892
 40
1.0
 40
1.0
 40
1.0
 40
1.0
 10
173.4221367860451
 20
-23.04565899188702
 30
0.0
 10
173.3279780253637
 20
-23.04453003730625
 30
0.0
 10
173.1447449228185
 20
-23.04233308984251
 30
0.0
 10
172.8775155204378
 20
-23.03225643121328
 30
0.0
 10
172.6251520755429
 20
-23.01252697933545
 30
0.0
 10
172.3879845811058
 20
-22.98263983015029
 30
0.0
 10
172.165358077558
 20
-22.94786884597323
 30
0.0
 10
171.9574700204698
 20
-22.90512648313218
 30
0.0
 10
171.7648777901336
 20
-22.85252172773063
 30
0.0
 10
171.58529265286
 20
-22.79289125551618
 30
0.0
 10
171.4179442557704
 20
-22.72031766991389
 30
0.0
 10
171.2584736810306
 20
-22.63794235546187
 30
0.0
 10
171.108464102868
 20
-22.53954072177439
 30
0.0
 10
170.965998728364
 20
-22.42968149913186
 30
0.0
 10
170.8308604333845
 20
-22.30723666554695
 30
0.0
 10
170.7045167967634
 20
-22.17091043700837
 30
0.0
 10
170.5855965622184
 20
-22.02220685801089
 30
0.0
 10
170.4737315913241
 20
-21.86168918980262
 30
0.0
 10
170.3735173852694
 20
-21.68744086921925
 30
0.0
 10
170.2865561525247
 20
-21.49950716608321
 30
0.0
 10
170.2145939459664
 20
-21.29774382328823
 30
0.0
 10
170.1541855206069
 20
-21.08331386781973
 30
0.0
 10
170.1086797960576
 20
-20.85562267208456
 30
0.0
 10
170.0744579811017
 20
-20.61556865889735
 30
0.0
 10
170.0542763939577
 20
-20.36244474164072
 30
0.0
 10
170.0522529009911
 20
-20.18926406958655
 30
0.0
 10
170.0512185121193
 20
-20.10073588444637
 30
0.0
  0
SPLINE
  5
BA
330
1F
100
AcDbEntity
  8
0
  6
Continuous
 62
     7
370
    25
100
AcDbSpline
210
0.0
220
0.0
230
1.0
 70
     8
 71
     3
 72
    31
 73
    27
 74
     0
 42
0.000000001
 43
0.00000001
 40
0.0
 40
0.0
 40
0.0
 40
0.0
 40
0.0497117110988923
 40
0.0968593904936602
 40
0.1421738333918174
 40
0.1857517275056766
 40
0.2272213176895419
 40
0.2670724578338612
 40
0.3056901793414449
 40
0.3429974263452971
 40
0.3793735671704332
 40
0.4149998294920803
 40
0.4498136152616932
 40
0.4845393125111816
 40
0.5190070106215391
 40
0.553713802671952
 40
0.5890849237111325
 40
0.6250984061960128
 40
0.6626301581857199
 40
0.7026959183210422
 40
0.7451786872997197
 40
0.7905047156189549
 40
0.8382417235339722
 40
0.8892908967268072
 40
0.9431957797708851
 40
1.0
 40
1.0
 40
1.0
 40
1.0
 10
170.0512185121193
 20
-20.10073588444637
 30
0.0
 10
170.0524907865076
 20
-20.01427751953829
 30
0.0
 10
170.0549697138884
 20
-19.84582014112667
 30
0.0
 10
170.0717426847738
 20
-19.59896273156237
 30
0.0
 10
170.1014375468718
 20
-19.3641393211562
 30
0.0
 10
170.1405002178211
 20
-19.14067679750229
 30
0.0
 10
170.1929958804531
 20
-18.92967572940401
 30
0.0
 10
170.258309816451
 20
-18.7313882350478
 30
0.0
 10
170.3336429493543
 20
-18.54452217283962
 30
0.0
 10
170.4196539376733
 20
-18.36885049978731
 30
0.0
 10
170.5197244112176
 20
-18.20699545761816
 30
0.0
 10
170.6265976321882
 20
-18.054786854724
 30
0.0
 10
170.7470280217347
 20
-17.91672731181388
 30
0.0
 10
170.8764785734772
 20
-17.79015870174908
 30
0.0
 10
171.0160132446935
 20
-17.67489196426202
 30
0.0
 10
171.1669627814652
 20
-17.57318579166362
 30
0.0
 10
171.3271622057773
 20
-17.48109806857146
 30
0.0
 10
171.5007520982883
 20
-17.40466877796451
 30
0.0
 10
171.6860272539208
 20
-17.3356568077146
 30
0.0
 10
171.8868909308823
 20
-17.27785352693929
 30
0.0
 10
172.1038076221962
 20
-17.22824049524851
 30
0.0
 10
172.3364172903154
 20
-17.18949172747414
 30
0.0
 10
172.5848615296459
 20
-17.15567998257777
 30
0.0
 10
172.8497881823412
 20
-17.13602337326473
 30
0.0
 10
173.1307666640605
 20
-17.12106425326724
 30
0.0
 10
173.323332391079
 20
-17.11954780179785
 30
0.0
 10
173.4221367860451
 20
-17.11876971905048
 30
0.0
  0
LINE
  5
BB
330
1F
100
AcDbEntity
  8
0
  6
Continuous
 62
     7
370
    25
100
AcDbLine
 10
173.422136786
 20
-17.1187697191
 30
0.0
 11
177.8549560547
 21
-17.1187697191
 31
0.0
  0
LINE
  5
BC
330
1F
100
AcDbEntity
  8
0
  6
Continuous
 62
     7
370
    25
100
AcDbLine
 10
177.8549560547
 20
-17.1187697191
 30
0.0
 11
177.8549560547
 21
-18.2053660857
 31
0.0
  0
LINE
  5
BD
330
1F
100
AcDbEntity
  8
0
  6
Continuous
 62
     7
370
    25
100
AcDbLine
 10
177.8549560547
 20
-18.2053660857
 30
0.0
 11
173.4730709907
 21
-18.2053660857
 31
0.0
  0
SPLINE
  5
BE
330
1F
100
AcDbEntity
  8
0
  6
Continuous
 62
     7
370
    25
100
AcDbSpline
210
0.0
220
0.0
230
1.0
 70
     8
 71
     3
 72
    23
 73
    19
 74
     0
 42
0.000000001
 43
0.00000001
 40
0.0
 40
0.0
 40
0.0
 40
0.0
 40
0.0681353881132556
 40
0.1314682363254058
 40
0.1905001738929368
 40
0.2452585731317603
 40
0.2954227570416329
 40
0.3411102337758646
 40
0.3827930623320166
 40
0.4201855338650586
 40
0.4895977156807669
 40
0.5562886770295058
 40
0.6237343717997946
 40
0.6924078074374246
 40
0.7635668524144018
 40
0.8373805803327689
 40
0.9159316212636911
 40
1.0
 40
1.0
 40
1.0
 40
1.0
 10
173.4730709907336
 20
-18.20536608573719
 30
0.0
 10
173.3933216402885
 20
-18.2060760844544
 30
0.0
 10
173.2394440923443
 20
-18.20744603745137
 30
0.0
 10
173.0165351356325
 20
-18.21459349359846
 30
0.0
 10
172.8096771235241
 20
-18.22888741194647
 30
0.0
 10
172.6185535884766
 20
-18.24655774416097
 30
0.0
 10
172.4438569413188
 20
-18.27085368007111
 30
0.0
 10
172.2858357501422
 20
-18.30195925252848
 30
0.0
 10
172.1439755260985
 20
-18.33687435100546
 30
0.0
 10
171.9780026178886
 20
-18.38905343304413
 30
0.0
 10
171.7934559413435
 20
-18.4762024496421
 30
0.0
 10
171.595481423416
 20
-18.61076048271249
 30
0.0
 10
171.4265914011288
 20
-18.77948066821724
 30
0.0
 10
171.2850058060405
 20
-18.97772704278437
 30
0.0
 10
171.1736407344217
 20
-19.20290626573613
 30
0.0
 10
171.0955707278377
 20
-19.45342936107817
 30
0.0
 10
171.0466455740378
 20
-19.72685520523101
 30
0.0
 10
171.0416275358205
 20
-19.91736094313205
 30
0.0
 10
171.0390333909254
 20
-20.01584554329897
 30
0.0
  0
LINE
  5
BF
330
1F
100
AcDbEntity
  8
0
  6
Continuous
 62
     7
370
    25
100
AcDbLine
 10
173.6073520758
 20
14.9852138421
 30
0.0
 11
170.15
 21
14.9852138421
 31
0.0
  0
LINE
  5
C0
330
1F
100
AcDbEntity
  8
0
  6
Continuous
 62
     7
370
    25
100
AcDbLine
 10
170.15
 20
14.9852138421
 30
0.0
 11
170.15
 21
16.0718102088
 31
0.0
  0
LINE
  5
C1
330
1F
100
AcDbEntity
  8
0
  6
Continuous
 62
     7
370
    25
100
AcDbLine
 10
170.15
 20
16.0718102088
 30
0.0
 11
177.8549560547
 21
16.0718102088
 31
0.0
  0
LINE
  5
C2
330
1F
100
AcDbEntity
  8
0
  6
Continuous
 62
     7
370
    25
100
AcDbLine
 10
177.8549560547
 20
16.0718102088
 30
0.0
 11
177.8549560547
 21
12.7286742284
 31
0.0
  0
SPLINE
  5
C3
330
1F
100
AcDbEntity
  8
0
  6
Continuous
 62
     7
370
    25
100
AcDbSpline
210
0.0
220
0.0
230
1.0
 70
     8
 71
     3
 72
    27
 73
    23
 74
     0
 42
0.000000001
 43
0.00000001
 40
0.0
 40
0.0
 40
0.0
 40
0.0
 40
0.0621061165292725
 40
0.1201991193133532
 40
0.1743664957113209
 40
0.2250163311637259
 40
0.2723261893682165
 40
0.3163514369568898
 40
0.3568284293346185
 40
0.3939333102717021
 40
0.4295405551075572
 40
0.4646304759106848
 40
0.499980005092631
 40
0.5354226207535271
 40
0.5715899210807128
 40
0.608131082842468
 40
0.6458808167766361
 40
0.6847317079287517
 40
0.7626039808122821
 40
0.8405143247750522
 40
0.9190816363226305
 40
0.9999999999999999
 40
0.9999999999999999
 40
0.9999999999999999
 40
0.9999999999999999
 10
177.8549560546875
 20
12.72867422837477
 30
0.0
 10
177.8543421687959
 20
12.64995323769187
 30
0.0
 10
177.8531540645053
 20
12.49759797414711
 30
0.0
 10
177.8446641557522
 20
12.27665749637325
 30
0.0
 10
177.8266273383743
 20
12.07091898188606
 30
0.0
 10
177.8064824201226
 20
11.87908577709271
 30
0.0
 10
177.7767380513496
 20
11.70148614270598
 30
0.0
 10
177.7418425523919
 20
11.5380354210231
 30
0.0
 10
177.700600095159
 20
11.38936054265239
 30
0.0
 10
177.6518499181729
 20
11.25433005508057
 30
0.0
 10
177.5967140641096
 20
11.12904154727389
 30
0.0
 10
177.5286492330531
 20
11.01293972516891
 30
0.0
 10
177.454187737582
 20
10.90104854648548
 30
0.0
 10
177.3659988101672
 20
10.79779432022602
 30
0.0
 10
177.271171835371
 20
10.69865730542126
 30
0.0
 10
177.1650189882896
 20
10.60702521654341
 30
0.0
 10
177.0490394093588
 20
10.52245085468578
 30
0.0
 10
176.8832302701131
 20
10.41809364435252
 30
0.0
 10
176.6612777559478
 20
10.30828608485954
 30
0.0
 10
176.3786992915763
 20
10.214565598905
 30
0.0
 10
176.0824888885638
 20
10.15464539739535
 30
0.0
 10
175.8801292470216
 20
10.14819412353447
 30
0.0
 10
175.7774578876984
 20
10.14492093599759
 30
0.0
  0
SPLINE
  5
C4
330
1F
100
AcDbEntity
  8
0
  6
Continuous
 62
     7
370
    25
100
AcDbSpline
210
0.0
220
0.0
230
1.0
 70
     8
 71
     3
 72
    23
 73
    19
 74
     0
 42
0.000000001
 43
0.00000001
 40
0.0
 40
0.0
 40
0.0
 40
0.0
 40
0.0614177481322511
 40
0.1213042644096609
 40
0.1792376967343424
 40
0.2359560699971114
 40
0.2922390962013159
 40
0.3482231672652666
 40
0.4044755521318202
 40
0.4620607339620616
 40
0.5207138638482174
 40
0.5803927339450896
 40
0.6422449964543184
 40
0.7063601780770846
 40
0.774296532950605
 40
0.8452599260881218
 40
0.9206206845448843
 40
1.0
 40
1.0
 40
1.0
 40
1.0
 10
175.7774578876984
 20
10.14492093599759
 30
0.0
 10
175.7115484672786
 20
10.1464286731567
 30
0.0
 10
175.5813728420753
 20
10.1494065574421
 30
0.0
 10
175.3899796229203
 20
10.17221712240324
 30
0.0
 10
175.2071118852815
 20
10.21349186869713
 30
0.0
 10
175.0311644228583
 20
10.26641574136592
 30
0.0
 10
174.8646435653254
 20
10.33886302892591
 30
0.0
 10
174.7040980844295
 20
10.42275223389145
 30
0.0
 10
174.5541245837071
 20
10.52682362198499
 30
0.0
 10
174.4097296047124
 20
10.64303240935085
 30
0.0
 10
174.277358160115
 20
10.77813310264652
 30
0.0
 10
174.1552310912945
 20
10.92852181217382
 30
0.0
 10
174.0497165092929
 20
11.09798352428177
 30
0.0
 10
173.954892756987
 20
11.28339985133865
 30
0.0
 10
173.8719154503101
 20
11.48510723790163
 30
0.0
 10
173.8021489677805
 20
11.7044470015343
 30
0.0
 10
173.7475290220511
 20
11.94064248558443
 30
0.0
 10
173.720168894802
 20
12.10443822946417
 30
0.0
 10
173.7061335637019
 20
12.18846296652769
 30
0.0
  0
SPLINE
  5
C5
330
1F
100
AcDbEntity
  8
0
  6
Continuous
 62
     7
370
    25
100
AcDbSpline
210
0.0
220
0.0
230
1.0
 70
     8
 71
     3
 72
    11
 73
     7
 74
     0
 42
0.000000001
 43
0.00000001
 40
0.0
 40
0.0
 40
0.0
 40
0.0
 40
0.2931027018690639
 40
0.5547385117716536
 40
0.7918948234355778
 40
1.0
 40
1.0
 40
1.0
 40
1.0
 10
173.7061335637019
 20
12.18846296652769
 30
0.0
 10
173.6749205124115
 20
12.12635533372673
 30
0.0
 10
173.6158453776199
 20
12.00880781345495
 30
0.0
 10
173.5210047250983
 20
11.84667127164099
 30
0.0
 10
173.4271490714502
 20
11.70744149161123
 30
0.0
 10
173.3585185686731
 20
11.62713407255539
 30
0.0
 10
173.3264422196608
 20
11.5896001962515
 30
0.0
  0
SPLINE
  5
C6
330
1F
100
AcDbEntity
  8
0
  6
Continuous
 62
     7
370
    25
100
AcDbSpline
210
0.0
220
0.0
230
1.0
 70
     8
 71
     3
 72
    11
 73
     7
 74
     0
 42
0.000000001
 43
0.00000001
 40
0.0
 40
0.0
 40
0.0
 40
0.0
 40
0.229542643844057
 40
0.4707541631011917
 40
0.728168497232976
 40
0.9999999999999999
 40
0.9999999999999999
 40
0.9999999999999999
 40
0.9999999999999999
 10
173.3264422196608
 20
11.5896001962515
 30
0.0
 10
173.2551894114584
 20
11.51669079147288
 30
0.0
 10
173.1090616352328
 20
11.36716560846558
 30
0.0
 10
172.8578549643802
 20
11.16311896732376
 30
0.0
 10
172.5815995234688
 20
10.96121724827004
 30
0.0
 10
172.380287096865
 20
10.83999967259112
 30
0.0
 10
172.2768889109293
 20
10.77773984273275
 30
0.0
  0
LINE
  5
C7
330
1F
100
AcDbEntity
  8
0
  6
Continuous
 62
     7
370
    25
100
AcDbLine
 10
172.2768889109
 20
10.7777398427
 30
0.0
 11
170.15
 21
9.51364549
 31
0.0
  0
LINE
  5
C8
330
1F
100
AcDbEntity
  8
0
  6
Continuous
 62
     7
370
    25
100
AcDbLine
 10
170.15
 20
9.51364549
 30
0.0
 11
170.15
 21
10.7592183138
 31
0.0
  0
LINE
  5
C9
330
1F
100
AcDbEntity
  8
0
  6
Continuous
 62
     7
370
    25
100
AcDbLine
 10
170.15
 20
10.7592183138
 30
0.0
 11
171.7768076285
 21
11.7192508991
 31
0.0
  0
SPLINE
  5
CA
330
1F
100
AcDbEntity
  8
0
  6
Continuous
 62
     7
370
    25
100
AcDbSpline
210
0.0
220
0.0
230
1.0
 70
     8
 71
     3
 72
    21
 73
    17
 74
     0
 42
0.000000001
 43
0.00000001
 40
0.0
 40
0.0
 40
0.0
 40
0.0
 40
0.0807692180630272
 40
0.1565174824176858
 40
0.2279004148225882
 40
0.2942656778107666
 40
0.3568137356501514
 40
0.4143493211949535
 40
0.4675789203754861
 40
0.5163175384894696
 40
0.604285514293782
 40
0.681525348928509
 40
0.7476063910689492
 40
0.8044293290602437
 40
0.9054203970298775
 40
1.0
 40
1.0
 40
1.0
 40
1.0
 10
171.7768076285338
 20
11.7192508990948
 30
0.0
 10
171.8338851695573
 20
11.75377026910776
 30
0.0
 10
171.9444920720114
 20
11.82066314016238
 30
0.0
 10
172.1060438844785
 20
11.91726422749916
 30
0.0
 10
172.2547209690172
 20
12.0120640550872
 30
0.0
 10
172.3950293900908
 20
12.09970208619244
 30
0.0
 10
172.5233210136586
 20
12.18486615549015
 30
0.0
 10
172.6434230739991
 20
12.26277379201687
 30
0.0
 10
172.750587871586
 20
12.33941906704092
 30
0.0
 10
172.8796556050048
 20
12.42855852545909
 30
0.0
 10
173.0201358528931
 20
12.53602905025258
 30
0.0
 10
173.1635462218483
 20
12.66228861905087
 30
0.0
 10
173.2806446563037
 20
12.77944378323968
 30
0.0
 10
173.3937677440361
 20
12.92602086151208
 30
0.0
 10
173.4991754648182
 20
13.10790307662201
 30
0.0
 10
173.5481621232089
 20
13.26218550004901
 30
0.0
 10
173.5718524786142
 20
13.33679776313977
 30
0.0
  0
SPLINE
  5
CB
330
1F
100
AcDbEntity
  8
0
  6
Continuous
 62
     7
370
    25
100
AcDbSpline
210
0.0
220
0.0
230
1.0
 70
     8
 71
     3
 72
    11
 73
     7
 74
     0
 42
0.000000001
 43
0.00000001
 40
0.0
 40
0.0
 40
0.0
 40
0.0
 40
0.1774946570818508
 40
0.4052256231013765
 40
0.6783881083348609
 40
1.0
 40
1.0
 40
1.0
 40
1.0
 10
173.5718524786142
 20
13.33679776313977
 30
0.0
 10
173.5775002554737
 20
13.36811619058414
 30
0.0
 10
173.5903942993545
 20
13.43961709931204
 30
0.0
 10
173.5988154199703
 20
13.56102546391127
 30
0.0
 10
173.6077533128688
 20
13.70812659220576
 30
0.0
 10
173.6074928926475
 20
13.81473328674451
 30
0.0
 10
173.6073520758213
 20
13.87237864274245
 30
0.0
  0
LINE
  5
CC
330
1F
100
AcDbEntity
  8
0
  6
Continuous
 62
     7
370
    25
100
AcDbLine
 10
173.6073520758
 20
13.8723786427
 30
0.0
 11
173.6073520758
 21
14.9852138421
 31
0.0
  0
LINE
  5
CD
330
1F
100
AcDbEntity
  8
0
  6
Continuous
 62
     7
370
    25
100
AcDbLine
 10
177.8549560547
 20
17.8498769907
 30
0.0
 11
170.15
 21
17.8498769907
 31
0.0
  0
LINE
  5
CE
330
1F
100
AcDbEntity
  8
0
  6
Continuous
 62
     7
370
    25
100
AcDbLine
 10
170.15
 20
17.8498769907
 30
0.0
 11
170.15
 21
18.9364733574
 31
0.0
  0
LINE
  5
CF
330
1F
100
AcDbEntity
  8
0
  6
Continuous
 62
     7
370
    25
100
AcDbLine
 10
170.15
 20
18.9364733574
 30
0.0
 11
177.8549560547
 21
18.9364733574
 31
0.0
  0
LINE
  5
D0
330
1F
100
AcDbEntity
  8
0
  6
Continuous
 62
     7
370
    25
100
AcDbLine
 10
177.8549560547
 20
18.9364733574
 30
0.0
 11
177.8549560547
 21
17.8498769907
 31
0.0
  0
LINE
  5
D1
330
1F
100
AcDbEntity
  8
0
  6
Continuous
 62
     7
370
    25
100
AcDbLine
 10
175.9148258943
 20
25.0069044798
 30
0.0
 11
170.15
 21
26.6753855485
 31
0.0
  0
LINE
  5
D2
330
1F
100
AcDbEntity
  8
0
  6
Continuous
 62
     7
370
    25
100
AcDbLine
 10
170.15
 20
26.6753855485
 30
0.0
 11
170.15
 21
27.9610883517
 31
0.0
  0
LINE
  5
D3
330
1F
100
AcDbEntity
  8
0
  6
Continuous
 62
     7
370
    25
100
AcDbLine
 10
170.15
 20
27.9610883517
 30
0.0
 11
177.8549560547
 21
29.9012185121
 31
0.0
  0
LINE
  5
D4
330
1F
100
AcDbEntity
  8
0
  6
Continuous
 62
     7
370
    25
100
AcDbLine
 10
177.8549560547
 20
29.9012185121
 30
0.0
 11
177.8549560547
 21
28.7791225482
 31
0.0
  0
LINE
  5
D5
330
1F
100
AcDbEntity
  8
0
  6
Continuous
 62
     7
370
    25
100
AcDbLine
 10
177.8549560547
 20
28.7791225482
 30
0.0
 11
172.7877744186
 21
27.6354181339
 31
0.0
  0
SPLINE
  5
D6
330
1F
100
AcDbEntity
  8
0
  6
Continuous
 62
     7
370
    25
100
AcDbSpline
210
0.0
220
0.0
230
1.0
 70
     8
 71
     3
 72
     9
 73
     5
 74
     0
 42
0.000000001
 43
0.00000001
 40
0.0
 40
0.0
 40
0.0
 40
0.0
 40
0.502565389921809
 40
0.9999999999999999
 40
0.9999999999999999
 40
0.9999999999999999
 40
0.9999999999999999
 10
172.7877744185618
 20
27.63541813385792
 30
0.0
 10
172.5264393939445
 20
27.57614425766855
 30
0.0
 10
172.006437360661
 20
27.45820164288048
 30
0.0
 10
171.4861463554848
 20
27.3415404154576
 30
0.0
 10
171.2273356021978
 20
27.28350908328325
 30
0.0
  0
SPLINE
  5
D7
330
1F
100
AcDbEntity
  8
0
  6
Continuous
 62
     7
370
    25
100
AcDbSpline
210
0.0
220
0.0
230
1.0
 70
     8
 71
     3
 72
    15
 73
    11
 74
     0
 42
0.000000001
 43
0.00000001
 40
0.0
 40
0.0
 40
0.0
 40
0.0
 40
0.2042261540779066
 40
0.3855417648063241
 40
0.5445479239626404
 40
0.6809444004243496
 40
0.7947315708214939
 40
0.8862118064819342
 40
0.9537405078414399
 40
1.0
 40
1.0
 40
1.0
 40
1.0
 10
171.2273356021978
 20
27.28350908328325
 30
0.0
 10
171.320397543514
 20
27.25603306832538
 30
0.0
 10
171.4960815309705
 20
27.20416335876475
 30
0.0
 10
171.745130512713
 20
27.13404556357023
 30
0.0
 10
171.9624935392308
 20
27.07035981688592
 30
0.0
 10
172.1491839240046
 20
27.01610282921196
 30
0.0
 10
172.3054639563161
 20
26.97217115573343
 30
0.0
 10
172.4294132745184
 20
26.93424104812927
 30
0.0
 10
172.5234592110903
 20
26.90838836053357
 30
0.0
 10
172.5753070479754
 20
26.89306801120832
 30
0.0
 10
172.5963852857932
 20
26.88683967101268
 30
0.0
  0
LINE
  5
D8
330
1F
100
AcDbEntity
  8
0
  6
Continuous
 62
     7
370
    25
100
AcDbLine
 10
172.5963852858
 20
26.886839671
 30
0.0
 11
177.8549560547
 21
25.3649873734
 31
0.0
  0
LINE
  5
D9
330
1F
100
AcDbEntity
  8
0
  6
Continuous
 62
     7
370
    25
100
AcDbLine
 10
177.8549560547
 20
25.3649873734
 30
0.0
 11
177.8549560547
 21
24.0576761197
 31
0.0
  0
LINE
  5
DA
330
1F
100
AcDbEntity
  8
0
  6
Continuous
 62
     7
370
    25
100
AcDbLine
 10
177.8549560547
 20
24.0576761197
 30
0.0
 11
173.9947607236
 21
22.9571886063
 31
0.0
  0
SPLINE
  5
DB
330
1F
100
AcDbEntity
  8
0
  6
Continuous
 62
     7
370
    25
100
AcDbSpline
210
0.0
220
0.0
230
1.0
 70
     8
 71
     3
 72
    11
 73
     7
 74
     0
 42
0.000000001
 43
0.00000001
 40
0.0
 40
0.0
 40
0.0
 40
0.0
 40
0.2603861425240812
 40
0.5134251205046605
 40
0.7599736215259969
 40
1.0
 40
1.0
 40
1.0
 40
1.0
 10
173.994760723603
 20
22.95718860626221
 30
0.0
 10
173.7562929958508
 20
22.89645701971993
 30
0.0
 10
173.2860862457111
 20
22.77670747453812
 30
0.0
 10
172.5856958735674
 20
22.61760087614509
 30
0.0
 10
171.9022971136482
 20
22.47075057073755
 30
0.0
 10
171.4503032414991
 20
22.38616203729135
 30
0.0
 10
171.2273356021978
 20
22.3444346892528
 30
0.0
  0
SPLINE
  5
DC
330
1F
100
AcDbEntity
  8
0
  6
Continuous
 62
     7
370
    25
100
AcDbSpline
210
0.0
220
0.0
230
1.0
 70
     8
 71
     3
 72
    11
 73
     7
 74
     0
 42
0.000000001
 43
0.00000001
 40
0.0
 40
0.0
 40
0.0
 40
0.0
 40
0.2155331472493875
 40
0.4533588666114169
 40
0.7155332054647567
 40
1.0
 40
1.0
 40
1.0
 40
1.0
 10
171.2273356021978
 20
22.3444346892528
 30
0.0
 10
171.3415445921152
 20
22.31867876307746
 30
0.0
 10
171.5817751964863
 20
22.26450297782867
 30
0.0
 10
171.9610783725895
 20
22.1796592855258
 30
0.0
 10
172.3766497390916
 20
22.08542765451742
 30
0.0
 10
172.6663453564495
 20
22.02026290521878
 30
0.0
 10
172.8171001727764
 20
21.9863517956856
 30
0.0
  0
LINE
  5
DD
330
1F
100
AcDbEntity
  8
0
  6
Continuous
 62
     7
370
    25
100
AcDbLine
 10
172.8171001728
 20
21.9863517957
 30
0.0
 11
177.8549560547
 21
20.8488212243
 31
0.0
  0
LINE
  5
DE
330
1F
100
AcDbEntity
  8
0
  6
Continuous
 62
     7
370
    25
100
AcDbLine
 10
177.8549560547
 20
20.8488212243
 30
0.0
 11
177.8549560547
 21
19.7267252604
 31
0.0
  0
LINE
  5
DF
330
1F
100
AcDbEntity
  8
0
  6
Continuous
 62
     7
370
    25
100
AcDbLine
 10
177.8549560547
 20
19.7267252604
 30
0.0
 11
170.15
 21
21.6683988816
 31
0.0
  0
LINE
  5
E0
330
1F
100
AcDbEntity
  8
0
  6
Continuous
 62
     7
370
    25
100
AcDbLine
 10
170.15
 20
21.6683988816
 30
0.0
 11
170.15
 21
22.8630375006
 31
0.0
  0
LINE
  5
E1
330
1F
100
AcDbEntity
  8
0
  6
Continuous
 62
     7
370
    25
100
AcDbLine
 10
170.15
 20
22.8630375006
 30
0.0
 11
176.0383027541
 21
24.4728670609
 31
0.0
  0
SPLINE
  5
E2
330
1F
100
AcDbEntity
  8
0
  6
Continuous
 62
     7
370
    25
100
AcDbSpline
210
0.0
220
0.0
230
1.0
 70
     8
 71
     3
 72
    15
 73
    11
 74
     0
 42
0.000000001
 43
0.00000001
 40
0.0
 40
0.0
 40
0.0
 40
0.0
 40
0.1952799535336465
 40
0.3709591958780585
 40
0.5263022405927674
 40
0.6620399845915286
 40
0.7769964217729657
 40
0.8711733101150912
 40
0.9457569341303121
 40
1.0
 40
1.0
 40
1.0
 40
1.0
 10
176.0383027541332
 20
24.4728670609303
 30
0.0
 10
176.0958663860586
 20
24.48903206864779
 30
0.0
 10
176.2052158519125
 20
24.5197395639935
 30
0.0
 10
176.3612612459356
 20
24.55998989842681
 30
0.0
 10
176.4984967496457
 20
24.59990494017702
 30
0.0
 10
176.618695906891
 20
24.63165342004921
 30
0.0
 10
176.7206474837174
 20
24.65912907115591
 30
0.0
 10
176.8040529831789
 20
24.68345993547737
 30
0.0
 10
176.8705447839801
 20
24.69910889318538
 30
0.0
 10
176.9083367456014
 20
24.71042549256034
 30
0.0
 10
176.9242492235623
 20
24.71519039838742
 30
0.0
  0
SPLINE
  5
E3
330
1F
100
AcDbEntity
  8
0
  6
Continuous
 62
     7
370
    25
100
AcDbSpline
210
0.0
220
0.0
230
1.0
 70
     8
 71
     3
 72
    11
 73
     7
 74
     0
 42
0.000000001
 43
0.00000001
 40
0.0
 40
0.0
 40
0.0
 40
0.0
 40
0.2994325835200442
 40
0.5657804253500597
 40
0.7996368141693483
 40
1.0
 40
1.0
 40
1.0
 40
1.0
 10
176.9242492235623
 20
24.71519039838742
 30
0.0
 10
176.8233399649965
 20
24.74376052535204
 30
0.0
 10
176.6326710586203
 20
24.79774402439654
 30
0.0
 10
176.3642491455021
 20
24.87769109199449
 30
0.0
 10
176.128224928153
 20
24.94477508187716
 30
0.0
 10
175.982204513656
 20
24.98728774123825
 30
0.0
 10
175.9148258942824
 20
25.00690447978484
 30
0.0
  0
LINE
  5
E4
330
1F
100
AcDbEntity
  8
0
  6
Continuous
 62
     7
370
    25
100
AcDbLine
 10
176.9659226638
 20
12.6885442489
 30
0.0
 11
176.9659226638
 21
14.9852138421
 31
0.0
  0
LINE
  5
E5
330
1F
100
AcDbEntity
  8
0
  6
Continuous
 62
     7
370
    25
100
AcDbLine
 10
176.9659226638
 20
14.9852138421
 30
0.0
 11
174.4963854667
 21
14.9852138421
 31
0.0
  0
LINE
  5
E6
330
1F
100
AcDbEntity
  8
0
  6
Continuous
 62
     7
370
    25
100
AcDbLine
 10
174.4963854667
 20
14.9852138421
 30
0.0
 11
174.4963854667
 21
12.9216068219
 31
0.0
  0
SPLINE
  5
E7
330
1F
100
AcDbEntity
  8
0
  6
Continuous
 62
     7
370
    25
100
AcDbSpline
210
0.0
220
0.0
230
1.0
 70
     8
 71
     3
 72
    19
 73
    15
 74
     0
 42
0.000000001
 43
0.00000001
 40
0.0
 40
0.0
 40
0.0
 40
0.0
 40
0.1288172496139545
 40
0.2408117658933634
 40
0.3379313496265694
 40
0.4205906408775354
 40
0.4945039292430393
 40
0.5659986308697242
 40
0.6371279226505366
 40
0.7094472666673751
 40
0.7822163217272267
 40
0.854333945677808
 40
0.9261950543250346
 40
1.0
 40
1.0
 40
1.0
 40
1.0
 10
174.4963854667467
 20
12.92160682189159
 30
0.0
 10
174.4980109527033
 20
12.81813110721492
 30
0.0
 10
174.5010496462383
 20
12.62469296400783
 30
0.0
 10
174.5268148672206
 20
12.35418035580879
 30
0.0
 10
174.5682077307095
 20
12.12322438071126
 30
0.0
 10
174.6276150188917
 20
11.92751422124694
 30
0.0
 10
174.7104660035764
 20
11.76317774284214
 30
0.0
 10
174.813405324454
 20
11.6219972456206
 30
0.0
 10
174.9386548107086
 20
11.50189232257774
 30
0.0
 10
175.0826752693321
 20
11.40373351390668
 30
0.0
 10
175.2398166026193
 20
11.32642118630175
 30
0.0
 10
175.4060506388572
 20
11.27364311014878
 30
0.0
 10
175.5777813324305
 20
11.23687293651145
 30
0.0
 10
175.6949432735942
 20
11.23331832543296
 30
0.0
 10
175.7543059764764
 20
11.23151730268429
 30
0.0
  0
SPLINE
  5
E8
330
1F
100
AcDbEntity
  8
0
  6
Continuous
 62
     7
370
    25
100
AcDbSpline
210
0.0
220
0.0
230
1.0
 70
     8
 71
     3
 72
    23
 73
    19
 74
     0
 42
0.000000001
 43
0.00000001
 40
0.0
 40
0.0
 40
0.0
 40
0.0
 40
0.0603255293380401
 40
0.1181599905079934
 40
0.174186676296376
 40
0.229538818145793
 40
0.2834498146386326
 40
0.3378265119505884
 40
0.3926321025334811
 40
0.4484655764151907
 40
0.5059654091573018
 40
0.565058532229006
 40
0.6266544786228418
 40
0.6922320330373647
 40
0.7611310781257606
 40
0.8353098773394204
 40
0.9153255598322015
 40
1.0
 40
1.0
 40
1.0
 40
1.0
 10
175.7543059764764
 20
11.23151730268429
 30
0.0
 10
175.7975550167268
 20
11.23295140622506
 30
0.0
 10
175.8822671815687
 20
11.23576039377352
 30
0.0
 10
176.0066011201802
 20
11.25048603552557
 30
0.0
 10
176.124747100582
 20
11.27911617925624
 30
0.0
 10
176.2373296557058
 20
11.31692221379701
 30
0.0
 10
176.3435241988219
 20
11.36743874770671
 30
0.0
 10
176.4441536202407
 20
11.42745032911828
 30
0.0
 10
176.5386601910822
 20
11.49906267202809
 30
0.0
 10
176.6273317928446
 20
11.58109049030303
 30
0.0
 10
176.708014284834
 20
11.67527333244821
 30
0.0
 10
176.7776257758264
 20
11.78285228006058
 30
0.0
 10
176.8367805257099
 20
11.90297886430008
 30
0.0
 10
176.8837296896459
 20
12.03579271277409
 30
0.0
 10
176.9212813784086
 20
12.18087543759332
 30
0.0
 10
176.9462633057542
 20
12.33905296274669
 30
0.0
 10
176.9643401451156
 20
12.50960190863286
 30
0.0
 10
176.9653853024027
 20
12.62778243772384
 30
0.0
 10
176.965922663762
 20
12.68854424892327
 30
0.0
  0
SPLINE
  5
E9
330
1F
100
AcDbEntity
  8
0
  6
Continuous
 62
     7
370
    25
100
AcDbSpline
210
0.0
220
0.0
230
1.0
 70
     8
 71
     3
 72
    31
 73
    27
 74
     0
 42
0.000000001
 43
0.00000001
 40
0.0
 40
0.0
 40
0.0
 40
0.0
 40
0.0508529877739496
 40
0.0997551591409434
 40
0.1474416256593683
 40
0.1940910203865051
 40
0.2391773799396065
 40
0.2833474667820906
 40
0.3265859608079079
 40
0.3689462354375677
 40
0.4105829499515162
 40
0.4510627628849016
 40
0.4908901068991299
 40
0.5302704741980243
 40
0.5689310352099183
 40
0.6075732765741216
 40
0.6464165588608533
 40
0.685676872935346
 40
0.7247971620499734
 40
0.7635126299932928
 40
0.8021731910051869
 40
0.8410696053101157
 40
0.8796461298287732
 40
0.9190684293834052
 40
0.9590967586734683
 40
1.0
 40
1.0
 40
1.0
 40
1.0
 10
173.9978476450993
 20
-14.64923252203525
 30
0.0
 10
174.0740269486676
 20
-14.64857646456914
 30
0.0
 10
174.2234631742144
 20
-14.6472895172372
 30
0.0
 10
174.4437338754086
 20
-14.630246006428
 30
0.0
 10
174.6571529162235
 20
-14.60826209037743
 30
0.0
 10
174.8634448185752
 20
-14.57479113832568
 30
0.0
 10
175.0617556073431
 20
-14.52866426088817
 30
0.0
 10
175.2535938503195
 20
-14.47756235279967
 30
0.0
 10
175.4373106276119
 20
-14.4136655272256
 30
0.0
 10
175.6136110377295
 20
-14.34115039058277
 30
0.0
 10
175.7816455620211
 20
-14.2600623507785
 30
0.0
 10
175.9397971774494
 20
-14.16840655089034
 30
0.0
 10
176.0884404196049
 20
-14.06796549798413
 30
0.0
 10
176.2271608365156
 20
-13.95853897680377
 30
0.0
 10
176.3562482506599
 20
-13.8405120177993
 30
0.0
 10
176.4753926013011
 20
-13.71355000847641
 30
0.0
 10
176.5852914850515
 20
-13.57734245679224
 30
0.0
 10
176.6849937547354
 20
-13.43267823494738
 30
0.0
 10
176.7748011184679
 20
-13.28183951824732
 30
0.0
 10
176.8515784796923
 20
-13.12504731107467
 30
0.0
 10
176.9194956746909
 20
-12.9644742309084
 30
0.0
 10
176.9703017987267
 20
-12.79790679203549
 30
0.0
 10
177.0128684424219
 20
-12.62804186689539
 30
0.0
 10
177.0442330911379
 20
-12.45388137613078
 30
0.0
 10
177.060712170254
 20
-12.27416921712764
 30
0.0
 10
177.0633639355294
 20
-12.15297184932011
 30
0.0
 10
177.0647041516426
 20
-12.09171806237636
 30
0.0
  0
SPLINE
  5
EA
330
1F
100
AcDbEntity
  8
0
  6
Continuous
 62
     7
370
    25
100
AcDbSpline
210
0.0
220
0.0
230
1.0
 70
     8
 71
     3
 72
    23
 73
    19
 74
     0
 42
0.000000001
 43
0.00000001
 40
0.0
 40
0.0
 40
0.0
 40
0.0
 40
0.0559418740314487
 40
0.1107089662900213
 40
0.1640498084891408
 40
0.2167602405684334
 40
0.2696007081305823
 40
0.3232931610840292
 40
0.3775954548204878
 40
0.4334620902246538
 40
0.4909333178132575
 40
0.550634886673523
 40
0.6131255813639467
 40
0.6798679529470445
 40
0.7513633411597749
 40
0.8282649672413974
 40
0.9107970401420711
 40
1.0
 40
1.0
 40
1.0
 40
1.0
 10
177.0647041516426
 20
-12.09171806237636
 30
0.0
 10
177.0629407085089
 20
-12.00515324826715
 30
0.0
 10
177.0594508546235
 20
-11.83384148488697
 30
0.0
 10
177.0222800591793
 20
-11.5822707200373
 30
0.0
 10
176.9652263809714
 20
-11.33999679417271
 30
0.0
 10
176.8868814672136
 20
-11.1065809080332
 30
0.0
 10
176.7819274294555
 20
-10.88330575309666
 30
0.0
 10
176.6555195920774
 20
-10.66869057192031
 30
0.0
 10
176.5058705038219
 20
-10.46372492818159
 30
0.0
 10
176.3347868960731
 20
-10.2685362934387
 30
0.0
 10
176.1373269018909
 20
-10.0866457019651
 30
0.0
 10
175.904702471207
 20
-9.93278161545137
 30
0.0
 10
175.6422706043486
 20
-9.80312736943972
 30
0.0
 10
175.350752664629
 20
-9.69486082400854
 30
0.0
 10
175.0278747156333
 20
-9.612312877990119
 30
0.0
 10
174.6750310598163
 20
-9.555261338337182
 30
0.0
 10
174.2918484579137
 20
-9.519240322711003
 30
0.0
 10
174.0262300075038
 20
-9.514866837054642
 30
0.0
 10
173.8882619319817
 20
-9.512595152243588
 30
0.0
  0
SPLINE
  5
EB
330
1F
100
AcDbEntity
  8
0
  6
Continuous
 62
     7
370
    25
100
AcDbSpline
210
0.0
220
0.0
230
1.0
 70
     8
 71
     3
 72
    23
 73
    19
 74
     0
 42
0.000000001
 43
0.00000001
 40
0.0
 40
0.0
 40
0.0
 40
0.0
 40
0.0759760013778258
 40
0.1481478407297632
 40
0.2172337747939302
 40
0.2833431655068602
 40
0.3472548812513544
 40
0.4095240071566268
 40
0.4706594156981864
 40
0.531831202337304
 40
0.5919914954774748
 40
0.6505190018595178
 40
0.7075730075804305
 40
0.7641724617862136
 40
0.8211202236130721
 40
0.8791003552029312
 40
0.9384134163756573
 40
1.0
 40
1.0
 40
1.0
 40
1.0
 10
173.8882619319817
 20
-9.512595152243588
 30
0.0
 10
173.7770235399621
 20
-9.514259366523893
 30
0.0
 10
173.5601165261013
 20
-9.51750446691965
 30
0.0
 10
173.243885821172
 20
-9.554664290608613
 30
0.0
 10
172.9454755007637
 20
-9.610982080934177
 30
0.0
 10
172.6641877254274
 20
-9.688837377070739
 30
0.0
 10
172.4020903094327
 20
-9.792783692451929
 30
0.0
 10
172.1586799476935
 20
-9.919870312511836
 30
0.0
 10
171.9328061480073
 20
-10.0689460614073
 30
0.0
 10
171.7270286607369
 20
-10.23993249668665
 30
0.0
 10
171.5421100026431
 20
-10.42780890126561
 30
0.0
 10
171.380522742998
 20
-10.62857720000935
 30
0.0
 10
171.245780727933
 20
-10.84205087672875
 30
0.0
 10
171.1332361790726
 20
-11.06540357045837
 30
0.0
 10
171.0465210168122
 20
-11.30159665060137
 30
0.0
 10
170.9852211651219
 20
-11.54949852622502
 30
0.0
 10
170.9469583653678
 20
-11.8091043342221
 30
0.0
 10
170.9425152415239
 20
-11.986114188971
 30
0.0
 10
170.9402519030448
 20
-12.07628345489502
 30
0.0
  0
SPLINE
  5
EC
330
1F
100
AcDbEntity
  8
0
  6
Continuous
 62
     7
370
    25
100
AcDbSpline
210
0.0
220
0.0
230
1.0
 70
     8
 71
     3
 72
    23
 73
    19
 74
     0
 42
0.000000001
 43
0.00000001
 40
0.0
 40
0.0
 40
0.0
 40
0.0
 40
0.0610568331758596
 40
0.1195491072443123
 40
0.1768119204410529
 40
0.2329638143038555
 40
0.28859257183202
 40
0.3446775085759258
 40
0.401674151352183
 40
0.4605545907654028
 40
0.5204934420294758
 40
0.5812311564527322
 40
0.6434510088516384
 40
0.7078620323407347
 40
0.7753636743240284
 40
0.8464088438329554
 40
0.9211494057946974
 40
1.0
 40
1.0
 40
1.0
 40
1.0
 10
170.9402519030448
 20
-12.07628345489502
 30
0.0
 10
170.9425470840532
 20
-12.16798190563857
 30
0.0
 10
170.9470410419976
 20
-12.3475272137043
 30
0.0
 10
170.984658358021
 20
-12.61103542643318
 30
0.0
 10
171.0487002259349
 20
-12.86139774852854
 30
0.0
 10
171.1339544905312
 20
-13.10109561365645
 30
0.0
 10
171.2492036077019
 20
-13.32579589805655
 30
0.0
 10
171.3841601101297
 20
-13.5407522610785
 30
0.0
 10
171.549071480015
 20
-13.74011040210588
 30
0.0
 10
171.7343226236255
 20
-13.92874279345359
 30
0.0
 10
171.9448709397477
 20
-14.09799659235679
 30
0.0
 10
172.1756404442582
 20
-14.24793215491574
 30
0.0
 10
172.4294988845494
 20
-14.37056954693098
 30
0.0
 10
172.7027953994566
 20
-14.47287111320254
 30
0.0
 10
172.9972450825299
 20
-14.55311823473755
 30
0.0
 10
173.3128453492377
 20
-14.609218485798
 30
0.0
 10
173.648764275065
 20
-14.64381505285542
 30
0.0
 10
173.8794290257665
 20
-14.64739476843361
 30
0.0
 10
173.9978476450993
 20
-14.64923252203525
 30
0.0
  0
ENDSEC
  0
SECTION
  2
OBJECTS
  0
DICTIONARY
  5
C
330
0
100
AcDbDictionary
281
     1
  3
ACAD_GROUP
350
D
  3
ACAD_LAYOUT
350
1A
  3
ACAD_MLINESTYLE
350
17
  3
ACAD_PLOTSETTINGS
350
19
  3
ACAD_PLOTSTYLENAME
350
E
  3
ACAD_SCALELIST
350
47
  0
DICTIONARY
  5
D
102
{ACAD_REACTORS
330
C
102
}
330
C
100
AcDbDictionary
281
     1
  0
DICTIONARY
  5
1A
102
{ACAD_REACTORS
330
C
102
}
330
C
100
AcDbDictionary
281
     1
  3
Layout1
350
1E
  3
Layout2
350
26
  3
Model
350
22
  0
DICTIONARY
  5
17
102
{ACAD_REACTORS
330
C
102
}
330
C
100
AcDbDictionary
281
     1
  3
Standard
350
18
  0
DICTIONARY
  5
19
102
{ACAD_REACTORS
330
C
102
}
330
C
100
AcDbDictionary
281
     1
  0
ACDBDICTIONARYWDFLT
  5
E
102
{ACAD_REACTORS
330
C
102
}
330
C
100
AcDbDictionary
281
     1
  3
Normal
350
F
100
AcDbDictionaryWithDefault
340
F
  0
DICTIONARY
  5
47
102
{ACAD_REACTORS
330
C
102
}
330
C
100
AcDbDictionary
281
     1
  3
A0
350
48
  3
A1
350
49
  3
A2
350
4A
  3
A3
350
4B
  3
A4
350
4C
  3
A5
350
4D
  3
A6
350
4E
  3
A7
350
4F
  3
A8
350
50
  3
A9
350
51
  3
B0
350
52
  3
B1
350
53
  3
B2
350
54
  3
B3
350
55
  3
B4
350
56
  3
B5
350
57
  3
B6
350
58
  3
B7
350
59
  3
B8
350
5A
  3
B9
350
5B
  3
C0
350
5C
  3
C1
350
5D
  3
C2
350
5E
  3
C3
350
5F
  3
C4
350
60
  3
C5
350
61
  3
C6
350
62
  3
C7
350
63
  3
C8
350
64
  3
C9
350
65
  3
D0
350
66
  3
D1
350
67
  3
D2
350
68
  0
LAYOUT
  5
1E
102
{ACAD_REACTORS
330
1A
102
}
330
1A
100
AcDbPlotSettings
  1

  2
none_device
  4

  6

 40
0.0
 41
0.0
 42
0.0
 43
0.0
 44
0.0
 45
0.0
 46
0.0
 47
0.0
 48
0.0
 49
0.0
140
0.0
141
0.0
142
1.0
143
1.0
 70
   688
 72
     1
 73
     0
 74
     5
  7

 75
    16
147
1.0
148
0.0
149
0.0
100
AcDbLayout
  1
Layout1
 70
     1
 71
     1
 10
0.0
 20
0.0
 11
420.0
 21
297.0
 12
0.0
 22
0.0
 32
0.0
 14
1.0000000000E+20
 24
1.0000000000E+20
 34
1.0000000000E+20
 15
-1.0000000000E+20
 25
-1.0000000000E+20
 35
-1.0000000000E+20
146
0.0
 13
0.0
 23
0.0
 33
0.0
 16
1.0
 26
0.0
 36
0.0
 17
0.0
 27
1.0
 37
0.0
 76
     0
330
1B
  0
LAYOUT
  5
26
102
{ACAD_REACTORS
330
1A
102
}
330
1A
100
AcDbPlotSettings
  1

  2
none_device
  4

  6

 40
0.0
 41
0.0
 42
0.0
 43
0.0
 44
0.0
 45
0.0
 46
0.0
 47
0.0
 48
0.0
 49
0.0
140
0.0
141
0.0
142
1.0
143
1.0
 70
   688
 72
     1
 73
     0
 74
     5
  7

 75
    16
147
1.0
148
0.0
149
0.0
100
AcDbLayout
  1
Layout2
 70
     1
 71
     2
 10
0.0
 20
0.0
 11
0.0
 21
0.0
 12
0.0
 22
0.0
 32
0.0
 14
0.0
 24
0.0
 34
0.0
 15
0.0
 25
0.0
 35
0.0
146
0.0
 13
0.0
 23
0.0
 33
0.0
 16
1.0
 26
0.0
 36
0.0
 17
0.0
 27
1.0
 37
0.0
 76
     0
330
23
  0
LAYOUT
  5
22
102
{ACAD_REACTORS
330
1A
102
}
330
1A
100
AcDbPlotSettings
  1

  2
none_device
  4
ANSI_A_(11.00_x_8.50_Inches)
  6

 40
6.35
 41
19.05
 42
6.35000508
 43
19.05000254
 44
279.4
 45
215.9
 46
133.34999746
 47
88.89999873
 48
0.0
 49
0.0
140
0.0
141
0.0
142
0.0295682867
143
1.0
 70
  1696
 72
     0
 73
     0
 74
     0
  7

 75
     0
147
0.0179189148
148
-1300.4909072572
149
0.0
100
AcDbLayout
  1
Model
 70
     1
 71
     0
 10
0.0
 20
0.0
 11
420.0
 21
297.0
 12
0.0
 22
0.0
 32
0.0
 14
-184.15
 24
-114.3
 34
0.0
 15
184.15
 25
114.3
 35
0.0
146
0.0
 13
0.0
 23
0.0
 33
0.0
 16
1.0
 26
0.0
 36
0.0
 17
0.0
 27
1.0
 37
0.0
 76
     0
330
1F
331
29
  0
MLINESTYLE
  5
18
102
{ACAD_REACTORS
330
17
102
}
330
17
100
AcDbMlineStyle
  2
Standard
 70
     0
  3

 62
   256
 51
90.0
 52
90.0
 71
     2
 49
0.5
 62
   256
  6
BYLAYER
 49
-0.5
 62
   256
  6
BYLAYER
  0
ACDBPLACEHOLDER
  5
F
102
{ACAD_REACTORS
330
E
102
}
330
E
  0
SCALE
  5
48
102
{ACAD_REACTORS
330
47
102
}
330
47
100
AcDbScale
 70
     0
300
1:1
140
1.0
141
1.0
290
     1
  0
SCALE
  5
49
102
{ACAD_REACTORS
330
47
102
}
330
47
100
AcDbScale
 70
     0
300
1:2
140
1.0
141
2.0
290
     0
  0
SCALE
  5
4A
102
{ACAD_REACTORS
330
47
102
}
330
47
100
AcDbScale
 70
     0
300
1:4
140
1.0
141
4.0
290
     0
  0
SCALE
  5
4B
102
{ACAD_REACTORS
330
47
102
}
330
47
100
AcDbScale
 70
     0
300
1:5
140
1.0
141
5.0
290
     0
  0
SCALE
  5
4C
102
{ACAD_REACTORS
330
47
102
}
330
47
100
AcDbScale
 70
     0
300
1:8
140
1.0
141
8.0
290
     0
  0
SCALE
  5
4D
102
{ACAD_REACTORS
330
47
102
}
330
47
100
AcDbScale
 70
     0
300
1:10
140
1.0
141
10.0
290
     0
  0
SCALE
  5
4E
102
{ACAD_REACTORS
330
47
102
}
330
47
100
AcDbScale
 70
     0
300
1:16
140
1.0
141
16.0
290
     0
  0
SCALE
  5
4F
102
{ACAD_REACTORS
330
47
102
}
330
47
100
AcDbScale
 70
     0
300
1:20
140
1.0
141
20.0
290
     0
  0
SCALE
  5
50
102
{ACAD_REACTORS
330
47
102
}
330
47
100
AcDbScale
 70
     0
300
1:30
140
1.0
141
30.0
290
     0
  0
SCALE
  5
51
102
{ACAD_REACTORS
330
47
102
}
330
47
100
AcDbScale
 70
     0
300
1:40
140
1.0
141
40.0
290
     0
  0
SCALE
  5
52
102
{ACAD_REACTORS
330
47
102
}
330
47
100
AcDbScale
 70
     0
300
1:50
140
1.0
141
50.0
290
     0
  0
SCALE
  5
53
102
{ACAD_REACTORS
330
47
102
}
330
47
100
AcDbScale
 70
     0
300
1:100
140
1.0
141
100.0
290
     0
  0
SCALE
  5
54
102
{ACAD_REACTORS
330
47
102
}
330
47
100
AcDbScale
 70
     0
300
2:1
140
2.0
141
1.0
290
     0
  0
SCALE
  5
55
102
{ACAD_REACTORS
330
47
102
}
330
47
100
AcDbScale
 70
     0
300
4:1
140
4.0
141
1.0
290
     0
  0
SCALE
  5
56
102
{ACAD_REACTORS
330
47
102
}
330
47
100
AcDbScale
 70
     0
300
8:1
140
8.0
141
1.0
290
     0
  0
SCALE
  5
57
102
{ACAD_REACTORS
330
47
102
}
330
47
100
AcDbScale
 70
     0
300
10:1
140
10.0
141
1.0
290
     0
  0
SCALE
  5
58
102
{ACAD_REACTORS
330
47
102
}
330
47
100
AcDbScale
 70
     0
300
100:1
140
100.0
141
1.0
290
     0
  0
SCALE
  5
59
102
{ACAD_REACTORS
330
47
102
}
330
47
100
AcDbScale
 70
     0
300
1/128" = 1'-0"
140
0.0078125
141
12.0
290
     0
  0
SCALE
  5
5A
102
{ACAD_REACTORS
330
47
102
}
330
47
100
AcDbScale
 70
     0
300
1/64" = 1'-0"
140
0.015625
141
12.0
290
     0
  0
SCALE
  5
5B
102
{ACAD_REACTORS
330
47
102
}
330
47
100
AcDbScale
 70
     0
300
1/32" = 1'-0"
140
0.03125
141
12.0
290
     0
  0
SCALE
  5
5C
102
{ACAD_REACTORS
330
47
102
}
330
47
100
AcDbScale
 70
     0
300
1/16" = 1'-0"
140
0.0625
141
12.0
290
     0
  0
SCALE
  5
5D
102
{ACAD_REACTORS
330
47
102
}
330
47
100
AcDbScale
 70
     0
300
3/32" = 1'-0"
140
0.09375
141
12.0
290
     0
  0
SCALE
  5
5E
102
{ACAD_REACTORS
330
47
102
}
330
47
100
AcDbScale
 70
     0
300
1/8" = 1'-0"
140
0.125
141
12.0
290
     0
  0
SCALE
  5
5F
102
{ACAD_REACTORS
330
47
102
}
330
47
100
AcDbScale
 70
     0
300
3/16" = 1'-0"
140
0.1875
141
12.0
290
     0
  0
SCALE
  5
60
102
{ACAD_REACTORS
330
47
102
}
330
47
100
AcDbScale
 70
     0
300
1/4" = 1'-0"
140
0.25
141
12.0
290
     0
  0
SCALE
  5
61
102
{ACAD_REACTORS
330
47
102
}
330
47
100
AcDbScale
 70
     0
300
3/8" = 1'-0"
140
0.375
141
12.0
290
     0
  0
SCALE
  5
62
102
{ACAD_REACTORS
330
47
102
}
330
47
100
AcDbScale
 70
     0
300
1/2" = 1'-0"
140
0.5
141
12.0
290
     0
  0
SCALE
  5
63
102
{ACAD_REACTORS
330
47
102
}
330
47
100
AcDbScale
 70
     0
300
3/4" = 1'-0"
140
0.75
141
12.0
290
     0
  0
SCALE
  5
64
102
{ACAD_REACTORS
330
47
102
}
330
47
100
AcDbScale
 70
     0
300
1" = 1'-0"
140
1.0
141
12.0
290
     0
  0
SCALE
  5
65
102
{ACAD_REACTORS
330
47
102
}
330
47
100
AcDbScale
 70
     0
300
1-1/2" = 1'-0"
140
1.5
141
12.0
290
     0
  0
SCALE
  5
66
102
{ACAD_REACTORS
330
47
102
}
330
47
100
AcDbScale
 70
     0
300
3" = 1'-0"
140
3.0
141
12.0
290
     0
  0
SCALE
  5
67
102
{ACAD_REACTORS
330
47
102
}
330
47
100
AcDbScale
 70
     0
300
6" = 1'-0"
140
6.0
141
12.0
290
     0
  0
SCALE
  5
68
102
{ACAD_REACTORS
330
47
102
}
330
47
100
AcDbScale
 70
     0
300
1'-0" = 1'-0"
140
12.0
141
12.0
290
     0
  0
ENDSEC
  0
EOF
