  0
SECTION
  2
HEADER
  9
$ACADVER
  1
AC1009
  9
$DWGCODEPAGE
  3
ansi_1252
  9
$INSBASE
 10
0.0
 20
0.0
 30
0.0
  9
$EXTMIN
 10
-6.5
 20
-2.75
 30
0.0
  9
$EXTMAX
 10
6.5
 20
2.75
 30
0.0
  9
$LIMMIN
 10
0.0
 20
0.0
  9
$LIMMAX
 10
12.0
 20
9.0
  9
$ORTHOMODE
 70
     0
  9
$REGENMODE
 70
     1
  9
$FILLMODE
 70
     1
  9
$QTEXTMODE
 70
     0
  9
$MIRRTEXT
 70
     1
  9
$DRAGMODE
 70
     2
  9
$LTSCALE
 40
1.0
  9
$OSMODE
 70
    37
  9
$ATTMODE
 70
     1
  9
$TEXTSIZE
 40
0.125
  9
$TRACEWID
 40
0.05
  9
$TEXTSTYLE
  7
STANDARD
  9
$CLAYER
  8
0
  9
$CELTYPE
  6
BYLAYER
  9
$CECOLOR
 62
   256
  9
$DIMSCALE
 40
1.0
  9
$DIMASZ
 40
0.13
  9
$DIMEXO
 40
0.05
  9
$DIMDLI
 40
0.38
  9
$DIMRND
 40
0.0
  9
$DIMDLE
 40
0.0
  9
$DIMEXE
 40
0.125
  9
$DIMTP
 40
0.0
  9
$DIMTM
 40
0.0
  9
$DIMTXT
 40
0.125
  9
$DIMCEN
 40
0.09
  9
$DIMTSZ
 40
0.0
  9
$DIMTOL
 70
     0
  9
$DIMLIM
 70
     0
  9
$DIMTIH
 70
     1
  9
$DIMTOH
 70
     1
  9
$DIMSE1
 70
     0
  9
$DIMSE2
 70
     0
  9
$DIMTAD
 70
     0
  9
$DIMZIN
 70
     1
  9
$DIMBLK
  1

  9
$DIMASO
 70
     1
  9
$DIMSHO
 70
     1
  9
$DIMPOST
  1

  9
$DIMAPOST
  1

  9
$DIMALT
 70
     0
  9
$DIMALTD
 70
     2
  9
$DIMALTF
 40
25.4
  9
$DIMLFAC
 40
1.0
  9
$DIMTOFL
 70
     0
  9
$DIMTVP
 40
0.0
  9
$DIMTIX
 70
     0
  9
$DIMSOXD
 70
     0
  9
$DIMSAH
 70
     0
  9
$DIMBLK1
  1

  9
$DIMBLK2
  1

  9
$DIMSTYLE
  2
STANDARD
  9
$DIMCLRD
 70
     0
  9
$DIMCLRE
 70
     0
  9
$DIMCLRT
 70
     0
  9
$DIMTFAC
 40
1.0
  9
$DIMGAP
 40
0.06
  9
$LUNITS
 70
     2
  9
$LUPREC
 70
     3
  9
$SKETCHINC
 40
0.1
  9
$FILLETRAD
 40
0.5
  9
$AUNITS
 70
     0
  9
$AUPREC
 70
     0
  9
$MENU
  1
.
  9
$ELEVATION
 40
0.0
  9
$PELEVATION
 40
0.0
  9
$THICKNESS
 40
0.0
  9
$LIMCHECK
 70
     0
  9
$CHAMFERA
 40
0.0
  9
$CHAMFERB
 40
0.0
  9
$SKPOLY
 70
     0
  9
$TDCREATE
 40
2458534.474641724
  9
$TDUPDATE
 40
2458534.474694826
  9
$TDINDWG
 40
0.0000000116
  9
$TDUSRTIMER
 40
0.0000000116
  9
$USRTIMER
 70
     1
  9
$ANGBASE
 50
0.0
  9
$ANGDIR
 70
     0
  9
$PDMODE
 70
     0
  9
$PDSIZE
 40
-1.0
  9
$PLINEWID
 40
0.0
  9
$COORDS
 70
     1
  9
$SPLFRAME
 70
     0
  9
$SPLINETYPE
 70
     6
  9
$SPLINESEGS
 70
     8
  9
$ATTDIA
 70
     0
  9
$ATTREQ
 70
     1
  9
$HANDLING
 70
     1
  9
$HANDSEED
  5
F5
  9
$SURFTAB1
 70
     6
  9
$SURFTAB2
 70
     6
  9
$SURFTYPE
 70
     6
  9
$SURFU
 70
     6
  9
$SURFV
 70
     6
  9
$UCSNAME
  2

  9
$UCSORG
 10
0.0
 20
0.0
 30
0.0
  9
$UCSXDIR
 10
1.0
 20
0.0
 30
0.0
  9
$UCSYDIR
 10
0.0
 20
1.0
 30
0.0
  9
$PUCSNAME
  2

  9
$PUCSORG
 10
0.0
 20
0.0
 30
0.0
  9
$PUCSXDIR
 10
1.0
 20
0.0
 30
0.0
  9
$PUCSYDIR
 10
0.0
 20
1.0
 30
0.0
  9
$USERI1
 70
     0
  9
$USERI2
 70
     0
  9
$USERI3
 70
     0
  9
$USERI4
 70
     0
  9
$USERI5
 70
     0
  9
$USERR1
 40
0.0
  9
$USERR2
 40
0.0
  9
$USERR3
 40
0.0
  9
$USERR4
 40
0.0
  9
$USERR5
 40
0.0
  9
$WORLDVIEW
 70
     1
  9
$SHADEDGE
 70
     3
  9
$SHADEDIF
 70
    70
  9
$TILEMODE
 70
     1
  9
$MAXACTVP
 70
    64
  9
$PLIMCHECK
 70
     0
  9
$PEXTMIN
 10
1.0000000000E+20
 20
1.0000000000E+20
 30
1.0000000000E+20
  9
$PEXTMAX
 10
-1.0000000000E+20
 20
-1.0000000000E+20
 30
-1.0000000000E+20
  9
$PLIMMIN
 10
0.0
 20
0.0
  9
$PLIMMAX
 10
12.0
 20
9.0
  9
$UNITMODE
 70
     0
  9
$VISRETAIN
 70
     1
  9
$PLINEGEN
 70
     0
  9
$PSLTSCALE
 70
     1
  0
ENDSEC
  0
SECTION
  2
TABLES
  0
TABLE
  2
VPORT
 70
     1
  0
VPORT
  2
*ACTIVE
 70
     0
 10
0.0
 20
0.0
 11
1.0
 21
1.0
 12
0.0
 22
0.0
 13
0.0
 23
0.0
 14
0.5
 24
0.5
 15
0.5
 25
0.5
 16
0.0
 26
0.0
 36
1.0
 17
0.0
 27
0.0
 37
0.0
 40
5.61
 41
2.3636363636
 42
50.0
 43
0.0
 44
0.0
 50
0.0
 51
0.0
 71
     0
 72
   100
 73
     1
 74
     3
 75
     0
 76
     0
 77
     0
 78
     0
  0
ENDTAB
  0
TABLE
  2
LTYPE
 70
     6
  0
LTYPE
  2
CONTINUOUS
 70
     0
  3
Solid line
 72
    65
 73
     0
 40
0.0
  0
LTYPE
  2
HIDDEN
 70
     0
  3
Hidden __ __ __ __ __ __ __ __ __ __ __ __ __ __
 72
    65
 73
     2
 40
0.075
 49
0.05
 49
-0.025
  0
LTYPE
  2
PHANTOM
 70
     0
  3
Phantom ______  __  __  ______  __  __  ______
 72
    65
 73
     6
 40
0.5
 49
0.25
 49
-0.05
 49
0.05
 49
-0.05
 49
0.05
 49
-0.05
  0
LTYPE
  2
CENTER
 70
     0
  3
Center ____ _ ____ _ ____ _ ____ _ ____ _ ____
 72
    65
 73
     4
 40
0.4
 49
0.25
 49
-0.05
 49
0.05
 49
-0.05
  0
LTYPE
  2
CENTERX2
 70
     0
  3
Center (2x) ________  __  ________  __  _____
 72
    65
 73
     4
 40
0.8
 49
0.5
 49
-0.1
 49
0.1
 49
-0.1
  0
LTYPE
  2
DOT2
 70
     0
  3
Dot (.5x) ........................................
 72
    65
 73
     2
 40
0.025
 49
0.0
 49
-0.025
  0
ENDTAB
  0
TABLE
  2
LAYER
 70
     1
  0
LAYER
  2
0
 70
     0
 62
     7
  6
CONTINUOUS
  0
ENDTAB
  0
TABLE
  2
STYLE
 70
     1
  0
STYLE
  2
STANDARD
 70
     0
 40
0.0
 41
1.0
 50
0.0
 71
     0
 42
0.125
  3
txt
  4

  0
ENDTAB
  0
TABLE
  2
VIEW
 70
     0
  0
ENDTAB
  0
TABLE
  2
UCS
 70
     0
  0
ENDTAB
  0
TABLE
  2
APPID
 70
     1
  0
APPID
  2
ACAD
 70
     0
  0
ENDTAB
  0
TABLE
  2
DIMSTYLE
 70
     1
  0
DIMSTYLE
  2
STANDARD
 70
     0
  3

  4

  5

  6

  7

 40
1.0
 41
0.18
 42
0.0625
 43
0.38
 44
0.18
 45
0.0
 46
0.0
 47
0.0
 48
0.0
140
0.18
141
0.09
142
0.0
143
25.4
144
1.0
145
0.0
146
1.0
147
0.09
 71
     0
 72
     0
 73
     1
 74
     1
 75
     0
 76
     0
 77
     0
 78
     0
170
     0
171
     2
172
     0
173
     0
174
     0
175
     0
176
     0
177
     0
178
     0
  0
ENDTAB
  0
ENDSEC
  0
SECTION
  2
BLOCKS
  0
BLOCK
  8
0
  2
$MODEL_SPACE
 70
     0
 10
0.0
 20
0.0
 30
0.0
  3
$MODEL_SPACE
  1

  0
ENDBLK
  5
21
  8
0
  0
BLOCK
 67
     1
  8
0
  2
$PAPER_SPACE
 70
     0
 10
0.0
 20
0.0
 30
0.0
  3
$PAPER_SPACE
  1

  0
ENDBLK
  5
1D
 67
     1
  8
0
  0
ENDSEC
  0
SECTION
  2
ENTITIES
  0
LINE
  5
73
  8
0
  6
CENTERX2
 62
     7
 10
-6.5
 20
-2.75
 30
0.0
 11
-5.5
 21
-2.75
 31
0.0
  0
LINE
  5
74
  8
0
  6
CONTINUOUS
 62
     7
 10
5.2557480315
 20
0.0
 30
0.0
 11
5.3057480315
 21
0.0
 31
0.0
  0
LINE
  5
75
  8
0
  6
CENTERX2
 62
     7
 10
-6.5
 20
1.9625
 30
0.0
 11
-6.5
 21
2.75
 31
0.0
  0
LINE
  5
76
  8
0
  6
CENTERX2
 62
     7
 10
4.271496063
 20
-1.0342519685
 30
0.0
 11
4.271496063
 21
1.0342519685
 31
0.0
  0
LINE
  5
77
  8
0
  6
CONTINUOUS
 62
     7
 10
-5.5
 20
-2.75
 30
0.0
 11
-5.5
 21
2.75
 31
0.0
  0
LINE
  5
78
  8
0
  6
CONTINUOUS
 62
     7
 10
-5.5
 20
1.9625
 30
0.0
 11
-6.5
 21
1.9625
 31
0.0
  0
LINE
  5
79
  8
0
  6
CONTINUOUS
 62
     7
 10
-5.5
 20
-1.9625
 30
0.0
 11
-6.5
 21
-1.9625
 31
0.0
  0
LINE
  5
7A
  8
0
  6
CENTERX2
 62
     7
 10
-6.5
 20
-1.9625
 30
0.0
 11
-6.5
 21
-2.75
 31
0.0
  0
LINE
  5
7B
  8
0
  6
CONTINUOUS
 62
     7
 10
5.3057480315
 20
0.0
 30
0.0
 11
5.3057480315
 21
-1.0342519685
 31
0.0
  0
LINE
  5
7C
  8
0
  6
CENTERX2
 62
     7
 10
5.3057480315
 20
0.0
 30
0.0
 11
3.2372440945
 21
0.0
 31
0.0
  0
LINE
  5
7D
  8
0
  6
CONTINUOUS
 62
     7
 10
4.271496063
 20
1.0342519685
 30
0.0
 11
3.2372440945
 21
1.0342519685
 31
0.0
  0
LINE
  5
7E
  8
0
  6
CONTINUOUS
 62
     7
 10
3.2372440945
 20
1.0342519685
 30
0.0
 11
3.2372440945
 21
0.0
 31
0.0
  0
LINE
  5
7F
  8
0
  6
CONTINUOUS
 62
     7
 10
3.2372440945
 20
0.0
 30
0.0
 11
3.2872440945
 21
0.0
 31
0.0
  0
LINE
  5
80
  8
0
  6
CONTINUOUS
 62
     7
 10
4.271496063
 20
1.0342519685
 30
0.0
 11
4.271496063
 21
0.9842519685
 31
0.0
  0
LINE
  5
81
  8
0
  6
CONTINUOUS
 62
     7
 10
5.3057480315
 20
-1.0342519685
 30
0.0
 11
4.271496063
 21
-1.0342519685
 31
0.0
  0
LINE
  5
82
  8
0
  6
CONTINUOUS
 62
     7
 10
4.271496063
 20
-1.0342519685
 30
0.0
 11
4.271496063
 21
-0.9842519685
 31
0.0
  0
LINE
  5
83
  8
0
  6
CENTERX2
 62
     7
 10
0.309488189
 20
-1.0342519685
 30
0.0
 11
0.309488189
 21
1.0342519685
 31
0.0
  0
LINE
  5
84
  8
0
  6
CENTERX2
 62
     7
 10
1.3437401575
 20
0.0
 30
0.0
 11
-0.7247637795
 21
0.0
 31
0.0
  0
LINE
  5
85
  8
0
  6
CONTINUOUS
 62
     7
 10
0.309488189
 20
1.0342519685
 30
0.0
 11
-0.7247637795
 21
1.0342519685
 31
0.0
  0
LINE
  5
86
  8
0
  6
CONTINUOUS
 62
     7
 10
-0.7247637795
 20
1.0342519685
 30
0.0
 11
-0.7247637795
 21
0.0
 31
0.0
  0
LINE
  5
87
  8
0
  6
CONTINUOUS
 62
     7
 10
-0.7247637795
 20
0.0
 30
0.0
 11
-0.6747637795
 21
0.0
 31
0.0
  0
LINE
  5
88
  8
0
  6
CONTINUOUS
 62
     7
 10
0.309488189
 20
1.0342519685
 30
0.0
 11
0.309488189
 21
0.9842519685
 31
0.0
  0
LINE
  5
89
  8
0
  6
CONTINUOUS
 62
     7
 10
1.2937401575
 20
0.0
 30
0.0
 11
1.3437401575
 21
0.0
 31
0.0
  0
LINE
  5
8A
  8
0
  6
CONTINUOUS
 62
     7
 10
1.3437401575
 20
0.0
 30
0.0
 11
1.3437401575
 21
-1.0342519685
 31
0.0
  0
LINE
  5
8B
  8
0
  6
CONTINUOUS
 62
     7
 10
1.3437401575
 20
-1.0342519685
 30
0.0
 11
0.309488189
 21
-1.0342519685
 31
0.0
  0
LINE
  5
8C
  8
0
  6
CONTINUOUS
 62
     7
 10
0.309488189
 20
-1.0342519685
 30
0.0
 11
0.309488189
 21
-0.9842519685
 31
0.0
  0
LINE
  5
8D
  8
0
  6
CENTERX2
 62
     7
 10
-3.652519685
 20
-1.0342519685
 30
0.0
 11
-3.652519685
 21
1.0342519685
 31
0.0
  0
LINE
  5
8E
  8
0
  6
CENTERX2
 62
     7
 10
-2.6182677165
 20
0.0
 30
0.0
 11
-4.6867716535
 21
0.0
 31
0.0
  0
LINE
  5
8F
  8
0
  6
CONTINUOUS
 62
     7
 10
-3.652519685
 20
0.9842519685
 30
0.0
 11
-3.652519685
 21
1.0342519685
 31
0.0
  0
LINE
  5
90
  8
0
  6
CONTINUOUS
 62
     7
 10
-3.652519685
 20
1.0342519685
 30
0.0
 11
-4.6867716535
 21
1.0342519685
 31
0.0
  0
LINE
  5
91
  8
0
  6
CONTINUOUS
 62
     7
 10
-4.6867716535
 20
1.0342519685
 30
0.0
 11
-4.6867716535
 21
0.0
 31
0.0
  0
LINE
  5
92
  8
0
  6
CONTINUOUS
 62
     7
 10
-4.6867716535
 20
0.0
 30
0.0
 11
-4.6367716535
 21
0.0
 31
0.0
  0
LINE
  5
93
  8
0
  6
CONTINUOUS
 62
     7
 10
-2.6682677165
 20
0.0
 30
0.0
 11
-2.6182677165
 21
0.0
 31
0.0
  0
LINE
  5
94
  8
0
  6
CONTINUOUS
 62
     7
 10
-2.6182677165
 20
0.0
 30
0.0
 11
-2.6182677165
 21
-1.0342519685
 31
0.0
  0
LINE
  5
95
  8
0
  6
CONTINUOUS
 62
     7
 10
-2.6182677165
 20
-1.0342519685
 30
0.0
 11
-3.652519685
 21
-1.0342519685
 31
0.0
  0
LINE
  5
96
  8
0
  6
CONTINUOUS
 62
     7
 10
-3.652519685
 20
-1.0342519685
 30
0.0
 11
-3.652519685
 21
-0.9842519685
 31
0.0
  0
POINT
  5
97
  8
0
  6
CONTINUOUS
 62
     7
 10
4.271496063
 20
0.0
 30
0.0
  0
POINT
  5
98
  8
0
  6
CONTINUOUS
 62
     7
 10
0.309488189
 20
0.0
 30
0.0
  0
POINT
  5
99
  8
0
  6
CONTINUOUS
 62
     7
 10
4.271496063
 20
0.0
 30
0.0
  0
POINT
  5
9A
  8
0
  6
CONTINUOUS
 62
     7
 10
0.309488189
 20
0.0
 30
0.0
  0
POINT
  5
9B
  8
0
  6
CONTINUOUS
 62
     7
 10
-3.652519685
 20
0.0
 30
0.0
  0
POINT
  5
9C
  8
0
  6
CONTINUOUS
 62
     7
 10
-3.652519685
 20
0.0
 30
0.0
  0
LINE
  5
C9
  8
0
  6
CONTINUOUS
 62
     7
 10
-0.5778621512
 20
0.7008300475
 30
0.0
 11
-0.473466465
 21
0.5964343613
 31
0.0
  0
LINE
  5
CA
  8
0
  6
CONTINUOUS
 62
     7
 10
0.9059225503
 20
-0.782954654
 30
0.0
 11
1.0103182365
 21
-0.8873503402
 31
0.0
  0
LINE
  5
CB
  8
0
  6
CONTINUOUS
 62
     7
 10
1.1216736351
 20
-0.8873503402
 30
0.0
 11
1.1968385291
 21
-0.8121854461
 31
0.0
  0
LINE
  5
CC
  8
0
  6
CONTINUOUS
 62
     7
 10
1.1968385291
 20
-0.7008300475
 30
0.0
 11
1.0924428429
 21
-0.5964343613
 31
0.0
  0
LINE
  5
CD
  8
0
  6
CONTINUOUS
 62
     7
 10
-0.2869461723
 20
0.782954654
 30
0.0
 11
-0.3913418585
 21
0.8873503402
 31
0.0
  0
LINE
  5
CE
  8
0
  6
CONTINUOUS
 62
     7
 10
-0.5026972571
 20
0.8873503402
 30
0.0
 11
-0.5778621512
 21
0.8121854461
 31
0.0
  0
LINE
  5
CF
  8
0
  6
CONTINUOUS
 62
     7
 10
-2.7651693449
 20
-0.7008300475
 30
0.0
 11
-2.8695650311
 21
-0.5964343613
 31
0.0
  0
LINE
  5
D0
  8
0
  6
CONTINUOUS
 62
     7
 10
-4.2489540463
 20
0.782954654
 30
0.0
 11
-4.3533497325
 21
0.8873503402
 31
0.0
  0
LINE
  5
D1
  8
0
  6
CONTINUOUS
 62
     7
 10
-4.4647051311
 20
0.8873503402
 30
0.0
 11
-4.5398700252
 21
0.8121854461
 31
0.0
  0
LINE
  5
D2
  8
0
  6
CONTINUOUS
 62
     7
 10
-4.5398700252
 20
0.7008300475
 30
0.0
 11
-4.435474339
 21
0.5964343613
 31
0.0
  0
LINE
  5
D3
  8
0
  6
CONTINUOUS
 62
     7
 10
-3.0560853237
 20
-0.782954654
 30
0.0
 11
-2.9516896375
 21
-0.8873503402
 31
0.0
  0
LINE
  5
D4
  8
0
  6
CONTINUOUS
 62
     7
 10
-2.8403342389
 20
-0.8873503402
 30
0.0
 11
-2.7651693449
 21
-0.8121854461
 31
0.0
  0
LINE
  5
D5
  8
0
  6
CONTINUOUS
 62
     7
 10
3.3841457228
 20
0.7008300475
 30
0.0
 11
3.488541409
 21
0.5964343613
 31
0.0
  0
LINE
  5
D6
  8
0
  6
CONTINUOUS
 62
     7
 10
4.8679304243
 20
-0.782954654
 30
0.0
 11
4.9723261105
 21
-0.8873503402
 31
0.0
  0
LINE
  5
D7
  8
0
  6
CONTINUOUS
 62
     7
 10
5.0836815091
 20
-0.8873503402
 30
0.0
 11
5.1588464032
 21
-0.8121854461
 31
0.0
  0
LINE
  5
D8
  8
0
  6
CONTINUOUS
 62
     7
 10
5.1588464032
 20
-0.7008300475
 30
0.0
 11
5.054450717
 21
-0.5964343613
 31
0.0
  0
LINE
  5
D9
  8
0
  6
CONTINUOUS
 62
     7
 10
3.6750617017
 20
0.782954654
 30
0.0
 11
3.5706660155
 21
0.8873503402
 31
0.0
  0
LINE
  5
DA
  8
0
  6
CONTINUOUS
 62
     7
 10
3.4593106169
 20
0.8873503402
 30
0.0
 11
3.3841457228
 21
0.8121854461
 31
0.0
  0
LINE
  5
DB
  8
0
  6
CONTINUOUS
 62
     7
 10
-6.45
 20
-2.75
 30
0.0
 11
6.45
 21
-2.75
 31
0.0
  0
LINE
  5
DC
  8
0
  6
CONTINUOUS
 62
     7
 10
-6.5
 20
2.7
 30
0.0
 11
-6.5
 21
-2.7
 31
0.0
  0
LINE
  5
DD
  8
0
  6
CONTINUOUS
 62
     7
 10
6.45
 20
2.75
 30
0.0
 11
-6.45
 21
2.75
 31
0.0
  0
LINE
  5
DE
  8
0
  6
CONTINUOUS
 62
     7
 10
6.5
 20
-2.7
 30
0.0
 11
6.5
 21
2.7
 31
0.0
  0
ARC
  5
DF
  8
0
  6
CONTINUOUS
 62
     7
 10
-0.5221844519
 20
0.7565077468
 30
0.0
 40
0.0787401574803154
 50
135.0
 51
225.0
  0
ARC
  5
E0
  8
0
  6
CONTINUOUS
 62
     7
 10
0.309488189
 20
0.0
 30
0.0
 40
0.9842519685039374
 50
142.7007987199
 51
307.2992012801
  0
ARC
  5
E1
  8
0
  6
CONTINUOUS
 62
     7
 10
1.0659959358
 20
-0.8316726409
 30
0.0
 40
0.0787401574803148
 50
225.0
 51
315.0
  0
ARC
  5
E2
  8
0
  6
CONTINUOUS
 62
     7
 10
1.1411608298
 20
-0.7565077468
 30
0.0
 40
0.0787401574803152
 50
315.0
 51
45.0
  0
ARC
  5
E3
  8
0
  6
CONTINUOUS
 62
     7
 10
0.309488189
 20
0.0
 30
0.0
 40
0.9842519685039373
 50
322.7007987199
 51
127.2992012801
  0
ARC
  5
E4
  8
0
  6
CONTINUOUS
 62
     7
 10
-0.4470195578
 20
0.8316726409
 30
0.0
 40
0.0787401574803149
 50
45.0
 51
135.0
  0
ARC
  5
E5
  8
0
  6
CONTINUOUS
 62
     7
 10
-2.8208470442
 20
-0.7565077468
 30
0.0
 40
0.0787401574803139
 50
315.0
 51
45.0
  0
ARC
  5
E6
  8
0
  6
CONTINUOUS
 62
     7
 10
-3.652519685
 20
0.0
 30
0.0
 40
0.9842519685039374
 50
322.7007987199
 51
127.2992012801
  0
ARC
  5
E7
  8
0
  6
CONTINUOUS
 62
     7
 10
-4.4090274318
 20
0.8316726409
 30
0.0
 40
0.0787401574803141
 50
45.0
 51
135.0
  0
ARC
  5
E8
  8
0
  6
CONTINUOUS
 62
     7
 10
-4.4841923259
 20
0.7565077468
 30
0.0
 40
0.0787401574803157
 50
135.0
 51
225.0
  0
ARC
  5
E9
  8
0
  6
CONTINUOUS
 62
     7
 10
-3.652519685
 20
0.0
 30
0.0
 40
0.9842519685039376
 50
142.7007987199
 51
307.2992012801
  0
ARC
  5
EA
  8
0
  6
CONTINUOUS
 62
     7
 10
-2.8960119382
 20
-0.8316726409
 30
0.0
 40
0.0787401574803147
 50
225.0
 51
315.0
  0
ARC
  5
EB
  8
0
  6
CONTINUOUS
 62
     7
 10
3.4398234221
 20
0.7565077468
 30
0.0
 40
0.078740157480315
 50
135.0
 51
225.0
  0
ARC
  5
EC
  8
0
  6
CONTINUOUS
 62
     7
 10
4.271496063
 20
0.0
 30
0.0
 40
0.9842519685039379
 50
142.7007987199
 51
307.2992012801
  0
ARC
  5
ED
  8
0
  6
CONTINUOUS
 62
     7
 10
5.0280038098
 20
-0.8316726409
 30
0.0
 40
0.0787401574803145
 50
225.0
 51
315.0
  0
ARC
  5
EE
  8
0
  6
CONTINUOUS
 62
     7
 10
5.1031687039
 20
-0.7565077468
 30
0.0
 40
0.0787401574803152
 50
315.0
 51
45.0
  0
ARC
  5
EF
  8
0
  6
CONTINUOUS
 62
     7
 10
4.271496063
 20
0.0
 30
0.0
 40
0.9842519685039377
 50
322.7007987199
 51
127.2992012801
  0
ARC
  5
F0
  8
0
  6
CONTINUOUS
 62
     7
 10
3.5149883162
 20
0.8316726409
 30
0.0
 40
0.078740157480314
 50
45.0
 51
135.0
  0
ARC
  5
F1
  8
0
  6
CONTINUOUS
 62
     7
 10
6.45
 20
-2.7
 30
0.0
 40
0.0499999999999989
 50
270.0
 51
0.0
  0
ARC
  5
F2
  8
0
  6
CONTINUOUS
 62
     7
 10
-6.45
 20
-2.7
 30
0.0
 40
0.0499999999999998
 50
180.0
 51
270.0
  0
ARC
  5
F3
  8
0
  6
CONTINUOUS
 62
     7
 10
-6.45
 20
2.7
 30
0.0
 40
0.0499999999999998
 50
90.0
 51
180.0
  0
ARC
  5
F4
  8
0
  6
CONTINUOUS
 62
     7
 10
6.45
 20
2.7
 30
0.0
 40
0.0499999999999976
 50
360.0
 51
90.0
  0
ENDSEC
  0
EOF
