  0
SECTION
  2
HEADER
  9
$ACADVER
  1
AC1009
  9
$DWGCODEPAGE
  3
ansi_1252
  9
$INSBASE
 10
0.0
 20
0.0
 30
0.0
  9
$EXTMIN
 10
-114.3
 20
-184.15
 30
0.0
  9
$EXTMAX
 10
114.3
 20
184.15
 30
0.0
  9
$LIMMIN
 10
0.0
 20
0.0
  9
$LIMMAX
 10
420.0
 20
297.0
  9
$ORTHOMODE
 70
     0
  9
$REGENMODE
 70
     1
  9
$FILLMODE
 70
     1
  9
$QTEXTMODE
 70
     0
  9
$MIRRTEXT
 70
     1
  9
$DRAGMODE
 70
     2
  9
$LTSCALE
 40
1.0
  9
$OSMODE
 70
    37
  9
$ATTMODE
 70
     1
  9
$TEXTSIZE
 40
3.175
  9
$TRACEWID
 40
1.0
  9
$TEXTSTYLE
  7
STANDARD
  9
$CLAYER
  8
0
  9
$CELTYPE
  6
BYLAYER
  9
$CECOLOR
 62
   256
  9
$DIMSCALE
 40
1.0
  9
$DIMASZ
 40
3.302
  9
$DIMEXO
 40
1.27
  9
$DIMDLI
 40
3.75
  9
$DIMRND
 40
0.0
  9
$DIMDLE
 40
0.0
  9
$DIMEXE
 40
3.175
  9
$DIMTP
 40
0.0
  9
$DIMTM
 40
0.0
  9
$DIMTXT
 40
3.175
  9
$DIMCEN
 40
2.5
  9
$DIMTSZ
 40
0.0
  9
$DIMTOL
 70
     0
  9
$DIMLIM
 70
     0
  9
$DIMTIH
 70
     1
  9
$DIMTOH
 70
     1
  9
$DIMSE1
 70
     0
  9
$DIMSE2
 70
     0
  9
$DIMTAD
 70
     0
  9
$DIMZIN
 70
     1
  9
$DIMBLK
  1

  9
$DIMASO
 70
     1
  9
$DIMSHO
 70
     1
  9
$DIMPOST
  1

  9
$DIMAPOST
  1

  9
$DIMALT
 70
     0
  9
$DIMALTD
 70
     3
  9
$DIMALTF
 40
0.0393700787
  9
$DIMLFAC
 40
1.0
  9
$DIMTOFL
 70
     1
  9
$DIMTVP
 40
0.0
  9
$DIMTIX
 70
     0
  9
$DIMSOXD
 70
     0
  9
$DIMSAH
 70
     0
  9
$DIMBLK1
  1

  9
$DIMBLK2
  1

  9
$DIMSTYLE
  2
ISO-25
  9
$DIMCLRD
 70
     0
  9
$DIMCLRE
 70
     0
  9
$DIMCLRT
 70
     0
  9
$DIMTFAC
 40
1.0
  9
$DIMGAP
 40
1.524
  9
$LUNITS
 70
     2
  9
$LUPREC
 70
     3
  9
$SKETCHINC
 40
1.0
  9
$FILLETRAD
 40
10.0
  9
$AUNITS
 70
     0
  9
$AUPREC
 70
     0
  9
$MENU
  1
.
  9
$ELEVATION
 40
0.0
  9
$PELEVATION
 40
0.0
  9
$THICKNESS
 40
0.0
  9
$LIMCHECK
 70
     0
  9
$CHAMFERA
 40
0.0
  9
$CHAMFERB
 40
0.0
  9
$SKPOLY
 70
     0
  9
$TDCREATE
 40
2458617.379026377
  9
$TDUPDATE
 40
2458617.379055891
  9
$TDINDWG
 40
0.0000000116
  9
$TDUSRTIMER
 40
0.0000000116
  9
$USRTIMER
 70
     1
  9
$ANGBASE
 50
0.0
  9
$ANGDIR
 70
     0
  9
$PDMODE
 70
     0
  9
$PDSIZE
 40
-1.0
  9
$PLINEWID
 40
0.0
  9
$COORDS
 70
     1
  9
$SPLFRAME
 70
     0
  9
$SPLINETYPE
 70
     6
  9
$SPLINESEGS
 70
     8
  9
$ATTDIA
 70
     0
  9
$ATTREQ
 70
     1
  9
$HANDLING
 70
     1
  9
$HANDSEED
  5
19B
  9
$SURFTAB1
 70
     6
  9
$SURFTAB2
 70
     6
  9
$SURFTYPE
 70
     6
  9
$SURFU
 70
     6
  9
$SURFV
 70
     6
  9
$UCSNAME
  2

  9
$UCSORG
 10
0.0
 20
0.0
 30
0.0
  9
$UCSXDIR
 10
1.0
 20
0.0
 30
0.0
  9
$UCSYDIR
 10
0.0
 20
1.0
 30
0.0
  9
$PUCSNAME
  2

  9
$PUCSORG
 10
0.0
 20
0.0
 30
0.0
  9
$PUCSXDIR
 10
1.0
 20
0.0
 30
0.0
  9
$PUCSYDIR
 10
0.0
 20
1.0
 30
0.0
  9
$USERI1
 70
     0
  9
$USERI2
 70
     0
  9
$USERI3
 70
     0
  9
$USERI4
 70
     0
  9
$USERI5
 70
     0
  9
$USERR1
 40
0.0
  9
$USERR2
 40
0.0
  9
$USERR3
 40
0.0
  9
$USERR4
 40
0.0
  9
$USERR5
 40
0.0
  9
$WORLDVIEW
 70
     1
  9
$SHADEDGE
 70
     3
  9
$SHADEDIF
 70
    70
  9
$TILEMODE
 70
     1
  9
$MAXACTVP
 70
    64
  9
$PLIMCHECK
 70
     0
  9
$PEXTMIN
 10
1.0000000000E+20
 20
1.0000000000E+20
 30
1.0000000000E+20
  9
$PEXTMAX
 10
-1.0000000000E+20
 20
-1.0000000000E+20
 30
-1.0000000000E+20
  9
$PLIMMIN
 10
0.0
 20
0.0
  9
$PLIMMAX
 10
420.0
 20
297.0
  9
$UNITMODE
 70
     0
  9
$VISRETAIN
 70
     1
  9
$PLINEGEN
 70
     0
  9
$PSLTSCALE
 70
     1
  0
ENDSEC
  0
SECTION
  2
TABLES
  0
TABLE
  2
VPORT
 70
     1
  0
VPORT
  2
*ACTIVE
 70
     0
 10
0.0
 20
0.0
 11
1.0
 21
1.0
 12
0.0
 22
0.0
 13
0.0
 23
0.0
 14
10.0
 24
10.0
 15
10.0
 25
10.0
 16
0.0
 26
0.0
 36
1.0
 17
0.0
 27
0.0
 37
0.0
 40
375.666
 41
0.6206896552
 42
50.0
 43
0.0
 44
0.0
 50
0.0
 51
0.0
 71
     0
 72
   100
 73
     1
 74
     3
 75
     0
 76
     0
 77
     0
 78
     0
  0
ENDTAB
  0
TABLE
  2
LTYPE
 70
     6
  0
LTYPE
  2
CONTINUOUS
 70
     0
  3
Solid line
 72
    65
 73
     0
 40
0.0
  0
LTYPE
  2
HIDDEN
 70
     0
  3
Hidden __ __ __ __ __ __ __ __ __ __ __ __ __ __
 72
    65
 73
     2
 40
1.905
 49
1.27
 49
-0.635
  0
LTYPE
  2
PHANTOM
 70
     0
  3
Phantom ______  __  __  ______  __  __  ______
 72
    65
 73
     6
 40
12.7
 49
6.35
 49
-1.27
 49
1.27
 49
-1.27
 49
1.27
 49
-1.27
  0
LTYPE
  2
CENTER
 70
     0
  3
Center ____ _ ____ _ ____ _ ____ _ ____ _ ____
 72
    65
 73
     4
 40
10.16
 49
6.35
 49
-1.27
 49
1.27
 49
-1.27
  0
LTYPE
  2
CENTERX2
 70
     0
  3
Center (2x) ________  __  ________  __  _____
 72
    65
 73
     4
 40
20.32
 49
12.7
 49
-2.54
 49
2.54
 49
-2.54
  0
LTYPE
  2
DOT2
 70
     0
  3
Dot (.5x) ........................................
 72
    65
 73
     2
 40
0.635
 49
0.0
 49
-0.635
  0
ENDTAB
  0
TABLE
  2
LAYER
 70
     1
  0
LAYER
  2
0
 70
     0
 62
     7
  6
CONTINUOUS
  0
ENDTAB
  0
TABLE
  2
STYLE
 70
     1
  0
STYLE
  2
STANDARD
 70
     0
 40
0.0
 41
1.0
 50
0.0
 71
     0
 42
3.175
  3
txt
  4

  0
ENDTAB
  0
TABLE
  2
VIEW
 70
     0
  0
ENDTAB
  0
TABLE
  2
UCS
 70
     0
  0
ENDTAB
  0
TABLE
  2
APPID
 70
     1
  0
APPID
  2
ACAD
 70
     0
  0
ENDTAB
  0
TABLE
  2
DIMSTYLE
 70
     1
  0
DIMSTYLE
  2
ISO-25
 70
     0
  3

  4

  5

  6

  7

 40
1.0
 41
2.5
 42
0.625
 43
3.75
 44
1.25
 45
0.0
 46
0.0
 47
0.0
 48
0.0
140
2.5
141
2.5
142
0.0
143
0.0393700787
144
1.0
145
0.0
146
1.0
147
0.625
 71
     0
 72
     0
 73
     0
 74
     0
 75
     0
 76
     0
 77
     1
 78
     8
170
     0
171
     3
172
     1
173
     0
174
     0
175
     0
176
     0
177
     0
178
     0
  0
ENDTAB
  0
ENDSEC
  0
SECTION
  2
BLOCKS
  0
BLOCK
  8
0
  2
$MODEL_SPACE
 70
     0
 10
0.0
 20
0.0
 30
0.0
  3
$MODEL_SPACE
  1

  0
ENDBLK
  5
21
  8
0
  0
BLOCK
 67
     1
  8
0
  2
$PAPER_SPACE
 70
     0
 10
0.0
 20
0.0
 30
0.0
  3
$PAPER_SPACE
  1

  0
ENDBLK
  5
1D
 67
     1
  8
0
  0
ENDSEC
  0
SECTION
  2
ENTITIES
  0
POLYLINE
  5
73
  8
0
  6
CONTINUOUS
 62
     7
 66
     1
 10
0.0
 20
0.0
 30
0.0
 70
   128
  0
VERTEX
  5
142
  8
0
  6
CONTINUOUS
 62
     7
 10
-24.7151903984
 20
176.9242492236
 30
0.0
  0
VERTEX
  5
143
  8
0
  6
CONTINUOUS
 62
     7
 10
-24.8786450875
 20
176.3590009282
 30
0.0
  0
VERTEX
  5
144
  8
0
  6
CONTINUOUS
 62
     7
 10
-25.0069044798
 20
175.9148258943
 30
0.0
  0
SEQEND
  5
188
  8
0
  6
CONTINUOUS
 62
     7
  0
POLYLINE
  5
74
  8
0
  6
CONTINUOUS
 62
     7
 66
     1
 10
0.0
 20
0.0
 30
0.0
 70
   128
  0
VERTEX
  5
145
  8
0
  6
CONTINUOUS
 62
     7
 10
-24.4728670609
 20
176.0383027541
 30
0.0
  0
VERTEX
  5
146
  8
0
  6
CONTINUOUS
 62
     7
 10
-24.609147205
 20
176.5342807995
 30
0.0
  0
VERTEX
  5
147
  8
0
  6
CONTINUOUS
 62
     7
 10
-24.7151903984
 20
176.9242492236
 30
0.0
  0
SEQEND
  5
189
  8
0
  6
CONTINUOUS
 62
     7
  0
POLYLINE
  5
7A
  8
0
  6
CONTINUOUS
 62
     7
 66
     1
 10
0.0
 20
0.0
 30
0.0
 70
   128
  0
VERTEX
  5
148
  8
0
  6
CONTINUOUS
 62
     7
 10
-22.3444346893
 20
171.2273356022
 30
0.0
  0
VERTEX
  5
149
  8
0
  6
CONTINUOUS
 62
     7
 10
-22.1441175852
 20
172.117650868
 30
0.0
  0
VERTEX
  5
14A
  8
0
  6
CONTINUOUS
 62
     7
 10
-21.9863517957
 20
172.8171001728
 30
0.0
  0
SEQEND
  5
18A
  8
0
  6
CONTINUOUS
 62
     7
  0
POLYLINE
  5
7B
  8
0
  6
CONTINUOUS
 62
     7
 66
     1
 10
0.0
 20
0.0
 30
0.0
 70
   128
  0
VERTEX
  5
14B
  8
0
  6
CONTINUOUS
 62
     7
 10
-22.9571886063
 20
173.9947607236
 30
0.0
  0
VERTEX
  5
14C
  8
0
  6
CONTINUOUS
 62
     7
 10
-22.5892923789
 20
172.4504342891
 30
0.0
  0
VERTEX
  5
14D
  8
0
  6
CONTINUOUS
 62
     7
 10
-22.3444346893
 20
171.2273356022
 30
0.0
  0
SEQEND
  5
18B
  8
0
  6
CONTINUOUS
 62
     7
  0
POLYLINE
  5
7F
  8
0
  6
CONTINUOUS
 62
     7
 66
     1
 10
0.0
 20
0.0
 30
0.0
 70
   128
  0
VERTEX
  5
14E
  8
0
  6
CONTINUOUS
 62
     7
 10
-27.2835090833
 20
171.2273356022
 30
0.0
  0
VERTEX
  5
14F
  8
0
  6
CONTINUOUS
 62
     7
 10
-27.0612593638
 20
171.9939715467
 30
0.0
  0
VERTEX
  5
150
  8
0
  6
CONTINUOUS
 62
     7
 10
-26.886839671
 20
172.5963852858
 30
0.0
  0
SEQEND
  5
18C
  8
0
  6
CONTINUOUS
 62
     7
  0
POLYLINE
  5
80
  8
0
  6
CONTINUOUS
 62
     7
 66
     1
 10
0.0
 20
0.0
 30
0.0
 70
   128
  0
VERTEX
  5
151
  8
0
  6
CONTINUOUS
 62
     7
 10
-27.6354181339
 20
172.7877744186
 30
0.0
  0
VERTEX
  5
152
  8
0
  6
CONTINUOUS
 62
     7
 10
-27.4377213367
 20
171.9140702436
 30
0.0
  0
VERTEX
  5
153
  8
0
  6
CONTINUOUS
 62
     7
 10
-27.2835090833
 20
171.2273356022
 30
0.0
  0
SEQEND
  5
18D
  8
0
  6
CONTINUOUS
 62
     7
  0
POLYLINE
  5
8B
  8
0
  6
CONTINUOUS
 62
     7
 66
     1
 10
0.0
 20
0.0
 30
0.0
 70
   128
  0
VERTEX
  5
154
  8
0
  6
CONTINUOUS
 62
     7
 10
-13.3367977631
 20
173.5718524786
 30
0.0
  0
VERTEX
  5
155
  8
0
  6
CONTINUOUS
 62
     7
 10
-13.6359497356
 20
173.6030906446
 30
0.0
  0
VERTEX
  5
156
  8
0
  6
CONTINUOUS
 62
     7
 10
-13.8723786427
 20
173.6073520758
 30
0.0
  0
SEQEND
  5
18E
  8
0
  6
CONTINUOUS
 62
     7
  0
POLYLINE
  5
90
  8
0
  6
CONTINUOUS
 62
     7
 66
     1
 10
0.0
 20
0.0
 30
0.0
 70
   128
  0
VERTEX
  5
157
  8
0
  6
CONTINUOUS
 62
     7
 10
-11.5896001963
 20
173.3264422197
 30
0.0
  0
VERTEX
  5
158
  8
0
  6
CONTINUOUS
 62
     7
 10
-11.0980485245
 20
172.767047738
 30
0.0
  0
VERTEX
  5
159
  8
0
  6
CONTINUOUS
 62
     7
 10
-10.7777398427
 20
172.2768889109
 30
0.0
  0
SEQEND
  5
18F
  8
0
  6
CONTINUOUS
 62
     7
  0
POLYLINE
  5
91
  8
0
  6
CONTINUOUS
 62
     7
 66
     1
 10
0.0
 20
0.0
 30
0.0
 70
   128
  0
VERTEX
  5
15A
  8
0
  6
CONTINUOUS
 62
     7
 10
-12.1884629665
 20
173.7061335637
 30
0.0
  0
VERTEX
  5
15B
  8
0
  6
CONTINUOUS
 62
     7
 10
-11.8395617428
 20
173.5142876058
 30
0.0
  0
VERTEX
  5
15C
  8
0
  6
CONTINUOUS
 62
     7
 10
-11.5896001963
 20
173.3264422197
 30
0.0
  0
SEQEND
  5
190
  8
0
  6
CONTINUOUS
 62
     7
  0
POLYLINE
  5
92
  8
0
  6
CONTINUOUS
 62
     7
 66
     1
 10
0.0
 20
0.0
 30
0.0
 70
   128
  0
VERTEX
  5
15D
  8
0
  6
CONTINUOUS
 62
     7
 10
-10.144920936
 20
175.7774578877
 30
0.0
  0
VERTEX
  5
15E
  8
0
  6
CONTINUOUS
 62
     7
 10
-10.3242182317
 20
174.9009860091
 30
0.0
  0
VERTEX
  5
15F
  8
0
  6
CONTINUOUS
 62
     7
 10
-10.8763797932
 20
174.1991746489
 30
0.0
  0
VERTEX
  5
160
  8
0
  6
CONTINUOUS
 62
     7
 10
-12.1884629665
 20
173.7061335637
 30
0.0
  0
SEQEND
  5
191
  8
0
  6
CONTINUOUS
 62
     7
  0
POLYLINE
  5
98
  8
0
  6
CONTINUOUS
 62
     7
 66
     1
 10
0.0
 20
0.0
 30
0.0
 70
   128
  0
VERTEX
  5
161
  8
0
  6
CONTINUOUS
 62
     7
 10
18.2053660857
 20
173.4730709907
 30
0.0
  0
VERTEX
  5
162
  8
0
  6
CONTINUOUS
 62
     7
 10
18.2647148397
 20
172.4924317938
 30
0.0
  0
VERTEX
  5
163
  8
0
  6
CONTINUOUS
 62
     7
 10
18.6242850072
 20
171.5908414187
 30
0.0
  0
VERTEX
  5
164
  8
0
  6
CONTINUOUS
 62
     7
 10
19.2563787835
 20
171.1604418243
 30
0.0
  0
VERTEX
  5
165
  8
0
  6
CONTINUOUS
 62
     7
 10
20.0158455433
 20
171.0390333909
 30
0.0
  0
SEQEND
  5
192
  8
0
  6
CONTINUOUS
 62
     7
  0
POLYLINE
  5
A1
  8
0
  6
CONTINUOUS
 62
     7
 66
     1
 10
0.0
 20
0.0
 30
0.0
 70
   128
  0
VERTEX
  5
166
  8
0
  6
CONTINUOUS
 62
     7
 10
20.0158455433
 20
171.0390333909
 30
0.0
  0
VERTEX
  5
167
  8
0
  6
CONTINUOUS
 62
     7
 10
20.9149184982
 20
171.1643122403
 30
0.0
  0
VERTEX
  5
168
  8
0
  6
CONTINUOUS
 62
     7
 10
21.3207103096
 20
171.3682496966
 30
0.0
  0
VERTEX
  5
169
  8
0
  6
CONTINUOUS
 62
     7
 10
21.6293870506
 20
171.6997723875
 30
0.0
  0
VERTEX
  5
16A
  8
0
  6
CONTINUOUS
 62
     7
 10
21.9006874876
 20
172.5642410446
 30
0.0
  0
VERTEX
  5
16B
  8
0
  6
CONTINUOUS
 62
     7
 10
21.9590626252
 20
173.4730709907
 30
0.0
  0
SEQEND
  5
193
  8
0
  6
CONTINUOUS
 62
     7
  0
CIRCLE
  5
AA
  8
0
  6
CONTINUOUS
 62
     7
 10
-104.775
 20
165.1
 30
0.0
 40
2.247899999999603
  0
CIRCLE
  5
AB
  8
0
  6
CONTINUOUS
 62
     7
 10
-104.775
 20
-55.0333333333
 30
0.0
 40
2.247899999999575
  0
CIRCLE
  5
AC
  8
0
  6
CONTINUOUS
 62
     7
 10
104.775
 20
165.1
 30
0.0
 40
2.247899999999589
  0
CIRCLE
  5
AD
  8
0
  6
CONTINUOUS
 62
     7
 10
104.775
 20
-55.0333333333
 30
0.0
 40
2.247899999999561
  0
CIRCLE
  5
AE
  8
0
  6
CONTINUOUS
 62
     7
 10
53.5178
 20
-119.38
 30
0.0
 40
33.14699999999886
  0
CIRCLE
  5
AF
  8
0
  6
CONTINUOUS
 62
     7
 10
53.5178
 20
0.0642908418
 30
0.0
 40
33.14699999999782
  0
CIRCLE
  5
B0
  8
0
  6
CONTINUOUS
 62
     7
 10
-53.5178
 20
119.5085816836
 30
0.0
 40
33.14699999999786
  0
CIRCLE
  5
B1
  8
0
  6
CONTINUOUS
 62
     7
 10
0.0
 20
-55.0333333333
 30
0.0
 40
2.247899999999643
  0
CIRCLE
  5
B2
  8
0
  6
CONTINUOUS
 62
     7
 10
0.0
 20
165.1
 30
0.0
 40
2.247899999999434
  0
CIRCLE
  5
BB
  8
0
  6
CONTINUOUS
 62
     7
 10
53.5178
 20
119.5085816836
 30
0.0
 40
33.14699999999758
  0
CIRCLE
  5
BC
  8
0
  6
CONTINUOUS
 62
     7
 10
0.0
 20
-171.45
 30
0.0
 40
2.247899999999456
  0
CIRCLE
  5
BD
  8
0
  6
CONTINUOUS
 62
     7
 10
0.0
 20
55.0333333333
 30
0.0
 40
2.247899999999642
  0
CIRCLE
  5
BE
  8
0
  6
CONTINUOUS
 62
     7
 10
-53.5178
 20
0.0642908418
 30
0.0
 40
33.14699999999782
  0
CIRCLE
  5
BF
  8
0
  6
CONTINUOUS
 62
     7
 10
-53.5178
 20
-119.38
 30
0.0
 40
33.14699999999787
  0
CIRCLE
  5
C0
  8
0
  6
CONTINUOUS
 62
     7
 10
104.775
 20
-149.225
 30
0.0
 40
2.247899999999589
  0
CIRCLE
  5
C1
  8
0
  6
CONTINUOUS
 62
     7
 10
104.775
 20
55.0333333333
 30
0.0
 40
2.247899999999561
  0
CIRCLE
  5
C2
  8
0
  6
CONTINUOUS
 62
     7
 10
-104.775
 20
-149.225
 30
0.0
 40
2.247899999999589
  0
CIRCLE
  5
C3
  8
0
  6
CONTINUOUS
 62
     7
 10
-104.775
 20
55.0333333333
 30
0.0
 40
2.247899999999575
  0
POLYLINE
  5
CA
  8
0
  6
CONTINUOUS
 62
     7
 66
     1
 10
0.0
 20
0.0
 30
0.0
 70
   128
  0
VERTEX
  5
16C
  8
0
  6
CONTINUOUS
 62
     7
 10
-0.2667721479
 20
175.9148258943
 30
0.0
  0
VERTEX
  5
16D
  8
0
  6
CONTINUOUS
 62
     7
 10
-0.1823697887
 20
175.5033321475
 30
0.0
  0
VERTEX
  5
16E
  8
0
  6
CONTINUOUS
 62
     7
 10
0.009507326
 20
175.2341597044
 30
0.0
  0
SEQEND
  5
194
  8
0
  6
CONTINUOUS
 62
     7
  0
POLYLINE
  5
CB
  8
0
  6
CONTINUOUS
 62
     7
 66
     1
 10
0.0
 20
0.0
 30
0.0
 70
   128
  0
VERTEX
  5
16F
  8
0
  6
CONTINUOUS
 62
     7
 10
1.3646658628
 20
177.0647041516
 30
0.0
  0
VERTEX
  5
170
  8
0
  6
CONTINUOUS
 62
     7
 10
0.7402939043
 20
177.0069312132
 30
0.0
  0
VERTEX
  5
171
  8
0
  6
CONTINUOUS
 62
     7
 10
0.1674137014
 20
176.7618350078
 30
0.0
  0
VERTEX
  5
172
  8
0
  6
CONTINUOUS
 62
     7
 10
-0.1522797833
 20
176.3901682509
 30
0.0
  0
VERTEX
  5
173
  8
0
  6
CONTINUOUS
 62
     7
 10
-0.2667721479
 20
175.9148258943
 30
0.0
  0
SEQEND
  5
195
  8
0
  6
CONTINUOUS
 62
     7
  0
POLYLINE
  5
CC
  8
0
  6
CONTINUOUS
 62
     7
 66
     1
 10
0.0
 20
0.0
 30
0.0
 70
   128
  0
VERTEX
  5
174
  8
0
  6
CONTINUOUS
 62
     7
 10
3.09179844
 20
175.6817633213
 30
0.0
  0
VERTEX
  5
175
  8
0
  6
CONTINUOUS
 62
     7
 10
2.9007218998
 20
176.3460508978
 30
0.0
  0
VERTEX
  5
176
  8
0
  6
CONTINUOUS
 62
     7
 10
2.421535557
 20
176.8376189684
 30
0.0
  0
VERTEX
  5
177
  8
0
  6
CONTINUOUS
 62
     7
 10
1.3646658628
 20
177.0647041516
 30
0.0
  0
SEQEND
  5
196
  8
0
  6
CONTINUOUS
 62
     7
  0
POLYLINE
  5
CF
  8
0
  6
CONTINUOUS
 62
     7
 66
     1
 10
0.0
 20
0.0
 30
0.0
 70
   128
  0
VERTEX
  5
178
  8
0
  6
CONTINUOUS
 62
     7
 10
-1.3533685146
 20
175.8438266999
 30
0.0
  0
VERTEX
  5
179
  8
0
  6
CONTINUOUS
 62
     7
 10
-1.068250343
 20
176.8606369806
 30
0.0
  0
VERTEX
  5
17A
  8
0
  6
CONTINUOUS
 62
     7
 10
-0.3004699131
 20
177.584881064
 30
0.0
  0
VERTEX
  5
17B
  8
0
  6
CONTINUOUS
 62
     7
 10
1.3214489619
 20
177.9537375426
 30
0.0
  0
SEQEND
  5
197
  8
0
  6
CONTINUOUS
 62
     7
  0
POLYLINE
  5
D1
  8
0
  6
CONTINUOUS
 62
     7
 66
     1
 10
0.0
 20
0.0
 30
0.0
 70
   128
  0
VERTEX
  5
17C
  8
0
  6
CONTINUOUS
 62
     7
 10
2.4682402978
 20
173.3248987589
 30
0.0
  0
VERTEX
  5
17D
  8
0
  6
CONTINUOUS
 62
     7
 10
0.9527022876
 20
173.7663072553
 30
0.0
  0
VERTEX
  5
17E
  8
0
  6
CONTINUOUS
 62
     7
 10
-0.2158379432
 20
174.1784325526
 30
0.0
  0
SEQEND
  5
198
  8
0
  6
CONTINUOUS
 62
     7
  0
POLYLINE
  5
E8
  8
0
  6
CONTINUOUS
 62
     7
 66
     1
 10
0.0
 20
0.0
 30
0.0
 70
   128
  0
VERTEX
  5
17F
  8
0
  6
CONTINUOUS
 62
     7
 10
-11.2315173027
 20
175.7543059765
 30
0.0
  0
VERTEX
  5
180
  8
0
  6
CONTINUOUS
 62
     7
 10
-11.3654047558
 20
176.3358022959
 30
0.0
  0
VERTEX
  5
181
  8
0
  6
CONTINUOUS
 62
     7
 10
-11.773091272
 20
176.7691014231
 30
0.0
  0
VERTEX
  5
182
  8
0
  6
CONTINUOUS
 62
     7
 10
-12.6885442489
 20
176.9659226638
 30
0.0
  0
SEQEND
  5
199
  8
0
  6
CONTINUOUS
 62
     7
  0
POLYLINE
  5
EC
  8
0
  6
CONTINUOUS
 62
     7
 66
     1
 10
0.0
 20
0.0
 30
0.0
 70
   128
  0
VERTEX
  5
183
  8
0
  6
CONTINUOUS
 62
     7
 10
-12.9216068219
 20
174.4963854667
 30
0.0
  0
VERTEX
  5
184
  8
0
  6
CONTINUOUS
 62
     7
 10
-12.2495013868
 20
174.5465499787
 30
0.0
  0
VERTEX
  5
185
  8
0
  6
CONTINUOUS
 62
     7
 10
-11.6360620614
 20
174.8079834076
 30
0.0
  0
VERTEX
  5
186
  8
0
  6
CONTINUOUS
 62
     7
 10
-11.332301359
 20
175.2369259407
 30
0.0
  0
VERTEX
  5
187
  8
0
  6
CONTINUOUS
 62
     7
 10
-11.2315173027
 20
175.7543059765
 30
0.0
  0
SEQEND
  5
19A
  8
0
  6
CONTINUOUS
 62
     7
  0
LINE
  5
ED
  8
0
  6
CONTINUOUS
 62
     7
 10
-22.8630375006
 20
170.15
 30
0.0
 11
-24.4728670609
 21
176.0383027541
 31
0.0
  0
LINE
  5
EE
  8
0
  6
CONTINUOUS
 62
     7
 10
-21.6683988816
 20
170.15
 30
0.0
 11
-22.8630375006
 21
170.15
 31
0.0
  0
LINE
  5
EF
  8
0
  6
CONTINUOUS
 62
     7
 10
-19.7267252604
 20
177.8549560547
 30
0.0
 11
-21.6683988816
 21
170.15
 31
0.0
  0
LINE
  5
F0
  8
0
  6
CONTINUOUS
 62
     7
 10
-20.8488212243
 20
177.8549560547
 30
0.0
 11
-19.7267252604
 21
177.8549560547
 31
0.0
  0
LINE
  5
F1
  8
0
  6
CONTINUOUS
 62
     7
 10
-21.9863517957
 20
172.8171001728
 30
0.0
 11
-20.8488212243
 21
177.8549560547
 31
0.0
  0
LINE
  5
F2
  8
0
  6
CONTINUOUS
 62
     7
 10
-24.0576761197
 20
177.8549560547
 30
0.0
 11
-22.9571886063
 21
173.9947607236
 31
0.0
  0
LINE
  5
F3
  8
0
  6
CONTINUOUS
 62
     7
 10
-25.3649873734
 20
177.8549560547
 30
0.0
 11
-24.0576761197
 21
177.8549560547
 31
0.0
  0
LINE
  5
F4
  8
0
  6
CONTINUOUS
 62
     7
 10
-26.886839671
 20
172.5963852858
 30
0.0
 11
-25.3649873734
 21
177.8549560547
 31
0.0
  0
LINE
  5
F5
  8
0
  6
CONTINUOUS
 62
     7
 10
-28.7791225482
 20
177.8549560547
 30
0.0
 11
-27.6354181339
 21
172.7877744186
 31
0.0
  0
LINE
  5
F6
  8
0
  6
CONTINUOUS
 62
     7
 10
-29.9012185121
 20
177.8549560547
 30
0.0
 11
-28.7791225482
 21
177.8549560547
 31
0.0
  0
LINE
  5
F7
  8
0
  6
CONTINUOUS
 62
     7
 10
-27.9610883517
 20
170.15
 30
0.0
 11
-29.9012185121
 21
177.8549560547
 31
0.0
  0
LINE
  5
F8
  8
0
  6
CONTINUOUS
 62
     7
 10
-26.6753855485
 20
170.15
 30
0.0
 11
-27.9610883517
 21
170.15
 31
0.0
  0
LINE
  5
F9
  8
0
  6
CONTINUOUS
 62
     7
 10
-25.0069044798
 20
175.9148258943
 30
0.0
 11
-26.6753855485
 21
170.15
 31
0.0
  0
LINE
  5
FA
  8
0
  6
CONTINUOUS
 62
     7
 10
-18.9364733574
 20
177.8549560547
 30
0.0
 11
-17.8498769907
 21
177.8549560547
 31
0.0
  0
LINE
  5
FB
  8
0
  6
CONTINUOUS
 62
     7
 10
-18.9364733574
 20
170.15
 30
0.0
 11
-18.9364733574
 21
177.8549560547
 31
0.0
  0
LINE
  5
FC
  8
0
  6
CONTINUOUS
 62
     7
 10
-17.8498769907
 20
170.15
 30
0.0
 11
-18.9364733574
 21
170.15
 31
0.0
  0
LINE
  5
FD
  8
0
  6
CONTINUOUS
 62
     7
 10
-17.8498769907
 20
177.8549560547
 30
0.0
 11
-17.8498769907
 21
170.15
 31
0.0
  0
LINE
  5
FE
  8
0
  6
CONTINUOUS
 62
     7
 10
-13.8723786427
 20
173.6073520758
 30
0.0
 11
-14.9852138421
 21
173.6073520758
 31
0.0
  0
LINE
  5
FF
  8
0
  6
CONTINUOUS
 62
     7
 10
-10.7592183138
 20
170.15
 30
0.0
 11
-11.7192508991
 21
171.7768076285
 31
0.0
  0
LINE
  5
100
  8
0
  6
CONTINUOUS
 62
     7
 10
-9.51364549
 20
170.15
 30
0.0
 11
-10.7592183138
 21
170.15
 31
0.0
  0
LINE
  5
101
  8
0
  6
CONTINUOUS
 62
     7
 10
-10.7777398427
 20
172.2768889109
 30
0.0
 11
-9.51364549
 21
170.15
 31
0.0
  0
LINE
  5
102
  8
0
  6
CONTINUOUS
 62
     7
 10
-16.0718102088
 20
177.8549560547
 30
0.0
 11
-12.7286742284
 21
177.8549560547
 31
0.0
  0
LINE
  5
103
  8
0
  6
CONTINUOUS
 62
     7
 10
-16.0718102088
 20
170.15
 30
0.0
 11
-16.0718102088
 21
177.8549560547
 31
0.0
  0
LINE
  5
104
  8
0
  6
CONTINUOUS
 62
     7
 10
-14.9852138421
 20
170.15
 30
0.0
 11
-16.0718102088
 21
170.15
 31
0.0
  0
LINE
  5
105
  8
0
  6
CONTINUOUS
 62
     7
 10
-14.9852138421
 20
173.6073520758
 30
0.0
 11
-14.9852138421
 21
170.15
 31
0.0
  0
LINE
  5
106
  8
0
  6
CONTINUOUS
 62
     7
 10
18.2053660857
 20
177.8549560547
 30
0.0
 11
18.2053660857
 21
173.4730709907
 31
0.0
  0
LINE
  5
107
  8
0
  6
CONTINUOUS
 62
     7
 10
17.1187697191
 20
177.8549560547
 30
0.0
 11
18.2053660857
 21
177.8549560547
 31
0.0
  0
LINE
  5
108
  8
0
  6
CONTINUOUS
 62
     7
 10
17.1187697191
 20
173.422136786
 30
0.0
 11
17.1187697191
 21
177.8549560547
 31
0.0
  0
LINE
  5
109
  8
0
  6
CONTINUOUS
 62
     7
 10
23.0456589919
 20
177.8549560547
 30
0.0
 11
23.0456589919
 21
173.422136786
 31
0.0
  0
LINE
  5
10A
  8
0
  6
CONTINUOUS
 62
     7
 10
21.9590626252
 20
177.8549560547
 30
0.0
 11
23.0456589919
 21
177.8549560547
 31
0.0
  0
LINE
  5
10B
  8
0
  6
CONTINUOUS
 62
     7
 10
21.9590626252
 20
173.4730709907
 30
0.0
 11
21.9590626252
 21
177.8549560547
 31
0.0
  0
LINE
  5
10C
  8
0
  6
CONTINUOUS
 62
     7
 10
30.2567076072
 20
176.9659226638
 30
0.0
 11
27.7871704102
 21
176.9659226638
 31
0.0
  0
LINE
  5
10D
  8
0
  6
CONTINUOUS
 62
     7
 10
30.2567076072
 20
177.8549560547
 30
0.0
 11
30.2567076072
 21
176.9659226638
 31
0.0
  0
LINE
  5
10E
  8
0
  6
CONTINUOUS
 62
     7
 10
24.2310368465
 20
177.8549560547
 30
0.0
 11
30.2567076072
 21
177.8549560547
 31
0.0
  0
LINE
  5
10F
  8
0
  6
CONTINUOUS
 62
     7
 10
24.2310368465
 20
176.9659226638
 30
0.0
 11
24.2310368465
 21
177.8549560547
 31
0.0
  0
LINE
  5
110
  8
0
  6
CONTINUOUS
 62
     7
 10
26.7005740435
 20
176.9659226638
 30
0.0
 11
24.2310368465
 21
176.9659226638
 31
0.0
  0
LINE
  5
111
  8
0
  6
CONTINUOUS
 62
     7
 10
26.7005740435
 20
170.15
 30
0.0
 11
26.7005740435
 21
176.9659226638
 31
0.0
  0
LINE
  5
112
  8
0
  6
CONTINUOUS
 62
     7
 10
27.7871704102
 20
170.15
 30
0.0
 11
26.7005740435
 21
170.15
 31
0.0
  0
LINE
  5
113
  8
0
  6
CONTINUOUS
 62
     7
 10
27.7871704102
 20
176.9659226638
 30
0.0
 11
27.7871704102
 21
170.15
 31
0.0
  0
LINE
  5
114
  8
0
  6
CONTINUOUS
 62
     7
 10
-111.125
 20
-184.15
 30
0.0
 11
111.125
 21
-184.15
 31
0.0
  0
LINE
  5
115
  8
0
  6
CONTINUOUS
 62
     7
 10
-114.3
 20
180.975
 30
0.0
 11
-114.3
 21
-180.975
 31
0.0
  0
LINE
  5
116
  8
0
  6
CONTINUOUS
 62
     7
 10
111.125
 20
184.15
 30
0.0
 11
-111.125
 21
184.15
 31
0.0
  0
LINE
  5
117
  8
0
  6
CONTINUOUS
 62
     7
 10
114.3
 20
-180.975
 30
0.0
 11
114.3
 21
180.975
 31
0.0
  0
LINE
  5
118
  8
0
  6
CONTINUOUS
 62
     7
 10
4.1783948067
 20
175.6817633213
 30
0.0
 11
3.09179844
 21
175.6817633213
 31
0.0
  0
LINE
  5
119
  8
0
  6
CONTINUOUS
 62
     7
 10
-1.6497129783
 20
172.8171001728
 30
0.0
 11
-0.5631166116
 21
172.8171001728
 31
0.0
  0
LINE
  5
11A
  8
0
  6
CONTINUOUS
 62
     7
 10
-7.2802577875
 20
171.0390333909
 30
0.0
 11
-2.736309345
 21
171.0390333909
 31
0.0
  0
LINE
  5
11B
  8
0
  6
CONTINUOUS
 62
     7
 10
-7.2802577875
 20
173.7061335637
 30
0.0
 11
-7.2802577875
 21
171.0390333909
 31
0.0
  0
LINE
  5
11C
  8
0
  6
CONTINUOUS
 62
     7
 10
-3.2302167844
 20
173.7061335637
 30
0.0
 11
-7.2802577875
 21
173.7061335637
 31
0.0
  0
LINE
  5
11D
  8
0
  6
CONTINUOUS
 62
     7
 10
-3.2302167844
 20
174.5951669546
 30
0.0
 11
-3.2302167844
 21
173.7061335637
 31
0.0
  0
LINE
  5
11E
  8
0
  6
CONTINUOUS
 62
     7
 10
-7.2802577875
 20
174.5951669546
 30
0.0
 11
-3.2302167844
 21
174.5951669546
 31
0.0
  0
LINE
  5
11F
  8
0
  6
CONTINUOUS
 62
     7
 10
-7.2802577875
 20
176.9659226638
 30
0.0
 11
-7.2802577875
 21
174.5951669546
 31
0.0
  0
LINE
  5
120
  8
0
  6
CONTINUOUS
 62
     7
 10
-2.9338723207
 20
176.9659226638
 30
0.0
 11
-7.2802577875
 21
176.9659226638
 31
0.0
  0
LINE
  5
121
  8
0
  6
CONTINUOUS
 62
     7
 10
-2.9338723207
 20
177.8549560547
 30
0.0
 11
-2.9338723207
 21
176.9659226638
 31
0.0
  0
LINE
  5
122
  8
0
  6
CONTINUOUS
 62
     7
 10
-8.3668541541
 20
177.8549560547
 30
0.0
 11
-2.9338723207
 21
177.8549560547
 31
0.0
  0
LINE
  5
123
  8
0
  6
CONTINUOUS
 62
     7
 10
-8.3668541541
 20
170.15
 30
0.0
 11
-8.3668541541
 21
177.8549560547
 31
0.0
  0
LINE
  5
124
  8
0
  6
CONTINUOUS
 62
     7
 10
-2.736309345
 20
170.15
 30
0.0
 11
-8.3668541541
 21
170.15
 31
0.0
  0
LINE
  5
125
  8
0
  6
CONTINUOUS
 62
     7
 10
-2.736309345
 20
171.0390333909
 30
0.0
 11
-2.736309345
 21
170.15
 31
0.0
  0
LINE
  5
126
  8
0
  6
CONTINUOUS
 62
     7
 10
-14.9852138421
 20
174.4963854667
 30
0.0
 11
-12.9216068219
 21
174.4963854667
 31
0.0
  0
LINE
  5
127
  8
0
  6
CONTINUOUS
 62
     7
 10
-14.9852138421
 20
176.9659226638
 30
0.0
 11
-14.9852138421
 21
174.4963854667
 31
0.0
  0
LINE
  5
128
  8
0
  6
CONTINUOUS
 62
     7
 10
-12.6885442489
 20
176.9659226638
 30
0.0
 11
-14.9852138421
 21
176.9659226638
 31
0.0
  0
ARC
  5
129
  8
0
  6
CONTINUOUS
 62
     7
 10
-14.5596584118
 20
170.8435884228
 30
0.0
 40
2.989784762233699
 50
18.1879979575
 51
65.8571558385
  0
ARC
  5
12A
  8
0
  6
CONTINUOUS
 62
     7
 10
-12.2700535466
 20
175.7798990333
 30
0.0
 40
2.125134012692955
 50
359.9341842124
 51
102.4629285893
  0
ARC
  5
12B
  8
0
  6
CONTINUOUS
 62
     7
 10
19.908246791
 20
172.8853454088
 30
0.0
 40
2.840656142123284
 50
169.1074715981
 51
273.8854651123
  0
ARC
  5
12C
  8
0
  6
CONTINUOUS
 62
     7
 10
20.283470919
 20
172.863416751
 30
0.0
 40
2.818128994127962
 50
266.2821797262
 51
11.4351809473
  0
ARC
  5
12D
  8
0
  6
CONTINUOUS
 62
     7
 10
-111.125
 20
-180.975
 30
0.0
 40
3.174999999999983
 50
180.0
 51
270.0
  0
ARC
  5
12E
  8
0
  6
CONTINUOUS
 62
     7
 10
-111.125
 20
180.975
 30
0.0
 40
3.174999999999955
 50
90.0
 51
180.0
  0
ARC
  5
12F
  8
0
  6
CONTINUOUS
 62
     7
 10
111.125
 20
180.975
 30
0.0
 40
3.174999999999983
 50
0.0
 51
90.0
  0
ARC
  5
130
  8
0
  6
CONTINUOUS
 62
     7
 10
111.125
 20
-180.975
 30
0.0
 40
3.174999999999955
 50
270.0
 51
0.0
  0
ARC
  5
131
  8
0
  6
CONTINUOUS
 62
     7
 10
12.0729817182
 20
174.2794993872
 30
0.0
 40
3.674259631403793
 50
355.4829506288
 51
89.8041021131
  0
ARC
  5
132
  8
0
  6
CONTINUOUS
 62
     7
 10
12.0547061054
 20
174.302926077
 30
0.0
 40
3.650941706746465
 50
89.5160386185
 51
186.3265713888
  0
ARC
  5
133
  8
0
  6
CONTINUOUS
 62
     7
 10
12.0854331196
 20
173.7153371131
 30
0.0
 40
3.664121388032187
 50
177.1016622895
 51
269.9293320691
  0
ARC
  5
134
  8
0
  6
CONTINUOUS
 62
     7
 10
12.1068740202
 20
173.6922832463
 30
0.0
 40
3.641157278871999
 50
269.5914975885
 51
4.6920440937
  0
ARC
  5
135
  8
0
  6
CONTINUOUS
 62
     7
 10
2.3880223837
 20
172.3217619189
 30
0.0
 40
1.987994444683448
 50
0.4415970098
 51
70.8758720016
  0
ARC
  5
136
  8
0
  6
CONTINUOUS
 62
     7
 10
8.6045095429
 20
195.4607234165
 30
0.0
 40
21.97698666124129
 50
246.9775968552
 51
255.3313877837
  0
ARC
  5
137
  8
0
  6
CONTINUOUS
 62
     7
 10
1.6905643493
 20
175.4856371186
 30
0.0
 40
2.495549212510237
 50
4.5075462962
 51
98.5057972701
  0
ARC
  5
138
  8
0
  6
CONTINUOUS
 62
     7
 10
0.4994000924
 20
175.8881550644
 30
0.0
 40
1.853298819665953
 50
181.3705671265
 51
247.2986989839
  0
ARC
  5
139
  8
0
  6
CONTINUOUS
 62
     7
 10
2.2019169617
 20
172.2704761779
 30
0.0
 40
1.087536251650534
 50
0.7444480575
 51
75.8248524866
  0
ARC
  5
13A
  8
0
  6
CONTINUOUS
 62
     7
 10
1.7671554079
 20
172.4532718313
 30
0.0
 40
1.531521864208944
 50
261.0849700862
 51
353.6772238079
  0
ARC
  5
13B
  8
0
  6
CONTINUOUS
 62
     7
 10
1.384486267
 20
172.8835617964
 30
0.0
 40
1.948736544561884
 50
181.9544505055
 51
274.2768877733
  0
ARC
  5
13C
  8
0
  6
CONTINUOUS
 62
     7
 10
1.1955104317
 20
172.8711794867
 30
0.0
 40
2.845737307741652
 50
181.0888928392
 51
277.7175447375
  0
ARC
  5
13D
  8
0
  6
CONTINUOUS
 62
     7
 10
1.8447765553
 20
172.5799565634
 30
0.0
 40
2.542806627527375
 50
263.9701504547
 51
354.5191171075
  0
ARC
  5
13E
  8
0
  6
CONTINUOUS
 62
     7
 10
11.958500205
 20
173.650724547
 30
0.0
 40
2.713030565132702
 50
272.4882155369
 51
7.3509515626
  0
ARC
  5
13F
  8
0
  6
CONTINUOUS
 62
     7
 10
12.1341009463
 20
173.5792715712
 30
0.0
 40
2.639652945269212
 50
173.2777050177
 51
268.7449247113
  0
ARC
  5
140
  8
0
  6
CONTINUOUS
 62
     7
 10
12.2162662605
 20
174.3282919677
 30
0.0
 40
2.73924513211347
 50
92.6060271481
 51
189.2439972615
  0
ARC
  5
141
  8
0
  6
CONTINUOUS
 62
     7
 10
11.9835980763
 20
174.3747305805
 30
0.0
 40
2.692145565346389
 50
351.9525286937
 51
87.6983096794
  0
ENDSEC
  0
EOF
