  0
SECTION
  2
HEADER
  9
$ACADVER
  1
AC1015
  9
$ACADMAINTVER
 70
     6
  9
$DWGCODEPAGE
  3
ANSI_1252
  9
$INSBASE
 10
0.0
 20
0.0
 30
0.0
  9
$EXTMIN
 10
-114.3
 20
-184.15
 30
0.0
  9
$EXTMAX
 10
114.3
 20
184.15
 30
0.0
  9
$LIMMIN
 10
0.0
 20
0.0
  9
$LIMMAX
 10
420.0
 20
297.0
  9
$ORTHOMODE
 70
     0
  9
$REGENMODE
 70
     1
  9
$FILLMODE
 70
     1
  9
$QTEXTMODE
 70
     0
  9
$MIRRTEXT
 70
     1
  9
$LTSCALE
 40
1.0
  9
$ATTMODE
 70
     1
  9
$TEXTSIZE
 40
3.175
  9
$TRACEWID
 40
1.0
  9
$TEXTSTYLE
  7
Standard
  9
$CLAYER
  8
0
  9
$CELTYPE
  6
ByLayer
  9
$CECOLOR
 62
   256
  9
$CELTSCALE
 40
1.0
  9
$DISPSILH
 70
     0
  9
$DIMSCALE
 40
1.0
  9
$DIMASZ
 40
3.302
  9
$DIMEXO
 40
1.27
  9
$DIMDLI
 40
3.75
  9
$DIMRND
 40
0.0
  9
$DIMDLE
 40
0.0
  9
$DIMEXE
 40
3.175
  9
$DIMTP
 40
0.0
  9
$DIMTM
 40
0.0
  9
$DIMTXT
 40
3.175
  9
$DIMCEN
 40
2.5
  9
$DIMTSZ
 40
0.0
  9
$DIMTOL
 70
     0
  9
$DIMLIM
 70
     0
  9
$DIMTIH
 70
     1
  9
$DIMTOH
 70
     1
  9
$DIMSE1
 70
     0
  9
$DIMSE2
 70
     0
  9
$DIMTAD
 70
     0
  9
$DIMZIN
 70
     1
  9
$DIMBLK
  1

  9
$DIMASO
 70
     1
  9
$DIMSHO
 70
     1
  9
$DIMPOST
  1

  9
$DIMAPOST
  1

  9
$DIMALT
 70
     0
  9
$DIMALTD
 70
     3
  9
$DIMALTF
 40
0.0393700787
  9
$DIMLFAC
 40
1.0
  9
$DIMTOFL
 70
     1
  9
$DIMTVP
 40
0.0
  9
$DIMTIX
 70
     0
  9
$DIMSOXD
 70
     0
  9
$DIMSAH
 70
     0
  9
$DIMBLK1
  1

  9
$DIMBLK2
  1

  9
$DIMSTYLE
  2
ISO-25
  9
$DIMCLRD
 70
     0
  9
$DIMCLRE
 70
     0
  9
$DIMCLRT
 70
     0
  9
$DIMTFAC
 40
1.0
  9
$DIMGAP
 40
1.524
  9
$DIMJUST
 70
     0
  9
$DIMSD1
 70
     0
  9
$DIMSD2
 70
     0
  9
$DIMTOLJ
 70
     0
  9
$DIMTZIN
 70
     1
  9
$DIMALTZ
 70
     0
  9
$DIMALTTZ
 70
     0
  9
$DIMUPT
 70
     0
  9
$DIMDEC
 70
     3
  9
$DIMTDEC
 70
     3
  9
$DIMALTU
 70
     2
  9
$DIMALTTD
 70
     3
  9
$DIMTXSTY
  7
Standard
  9
$DIMAUNIT
 70
     0
  9
$DIMADEC
 70
     0
  9
$DIMALTRND
 40
0.0
  9
$DIMAZIN
 70
     0
  9
$DIMDSEP
 70
    44
  9
$DIMATFIT
 70
     3
  9
$DIMFRAC
 70
     0
  9
$DIMLDRBLK
  1

  9
$DIMLUNIT
 70
     2
  9
$DIMLWD
 70
    -2
  9
$DIMLWE
 70
    -2
  9
$DIMTMOVE
 70
     0
  9
$LUNITS
 70
     2
  9
$LUPREC
 70
     3
  9
$SKETCHINC
 40
1.0
  9
$FILLETRAD
 40
10.0
  9
$AUNITS
 70
     0
  9
$AUPREC
 70
     0
  9
$MENU
  1
.
  9
$ELEVATION
 40
0.0
  9
$PELEVATION
 40
0.0
  9
$THICKNESS
 40
0.0
  9
$LIMCHECK
 70
     0
  9
$CHAMFERA
 40
0.0
  9
$CHAMFERB
 40
0.0
  9
$CHAMFERC
 40
0.0
  9
$CHAMFERD
 40
0.0
  9
$SKPOLY
 70
     0
  9
$TDCREATE
 40
2458570.506371192
  9
$TDUCREATE
 40
2458570.673037859
  9
$TDUPDATE
 40
2458570.506396123
  9
$TDUUPDATE
 40
2458570.673062789
  9
$TDINDWG
 40
0.0000000116
  9
$TDUSRTIMER
 40
0.0000000116
  9
$USRTIMER
 70
     1
  9
$ANGBASE
 50
0.0
  9
$ANGDIR
 70
     0
  9
$PDMODE
 70
     0
  9
$PDSIZE
 40
-1.0
  9
$PLINEWID
 40
0.0
  9
$SPLFRAME
 70
     0
  9
$SPLINETYPE
 70
     6
  9
$SPLINESEGS
 70
     8
  9
$HANDSEED
  5
E9
  9
$SURFTAB1
 70
     6
  9
$SURFTAB2
 70
     6
  9
$SURFTYPE
 70
     6
  9
$SURFU
 70
     6
  9
$SURFV
 70
     6
  9
$UCSBASE
  2

  9
$UCSNAME
  2

  9
$UCSORG
 10
0.0
 20
0.0
 30
0.0
  9
$UCSXDIR
 10
1.0
 20
0.0
 30
0.0
  9
$UCSYDIR
 10
0.0
 20
1.0
 30
0.0
  9
$UCSORTHOREF
  2

  9
$UCSORTHOVIEW
 70
     0
  9
$UCSORGTOP
 10
0.0
 20
0.0
 30
0.0
  9
$UCSORGBOTTOM
 10
0.0
 20
0.0
 30
0.0
  9
$UCSORGLEFT
 10
0.0
 20
0.0
 30
0.0
  9
$UCSORGRIGHT
 10
0.0
 20
0.0
 30
0.0
  9
$UCSORGFRONT
 10
0.0
 20
0.0
 30
0.0
  9
$UCSORGBACK
 10
0.0
 20
0.0
 30
0.0
  9
$PUCSBASE
  2

  9
$PUCSNAME
  2

  9
$PUCSORG
 10
0.0
 20
0.0
 30
0.0
  9
$PUCSXDIR
 10
1.0
 20
0.0
 30
0.0
  9
$PUCSYDIR
 10
0.0
 20
1.0
 30
0.0
  9
$PUCSORTHOREF
  2

  9
$PUCSORTHOVIEW
 70
     0
  9
$PUCSORGTOP
 10
0.0
 20
0.0
 30
0.0
  9
$PUCSORGBOTTOM
 10
0.0
 20
0.0
 30
0.0
  9
$PUCSORGLEFT
 10
0.0
 20
0.0
 30
0.0
  9
$PUCSORGRIGHT
 10
0.0
 20
0.0
 30
0.0
  9
$PUCSORGFRONT
 10
0.0
 20
0.0
 30
0.0
  9
$PUCSORGBACK
 10
0.0
 20
0.0
 30
0.0
  9
$USERI1
 70
     0
  9
$USERI2
 70
     0
  9
$USERI3
 70
     0
  9
$USERI4
 70
     0
  9
$USERI5
 70
     0
  9
$USERR1
 40
0.0
  9
$USERR2
 40
0.0
  9
$USERR3
 40
0.0
  9
$USERR4
 40
0.0
  9
$USERR5
 40
0.0
  9
$WORLDVIEW
 70
     1
  9
$SHADEDGE
 70
     3
  9
$SHADEDIF
 70
    70
  9
$TILEMODE
 70
     1
  9
$MAXACTVP
 70
    64
  9
$PINSBASE
 10
0.0
 20
0.0
 30
0.0
  9
$PLIMCHECK
 70
     0
  9
$PEXTMIN
 10
1.0000000000E+20
 20
1.0000000000E+20
 30
1.0000000000E+20
  9
$PEXTMAX
 10
-1.0000000000E+20
 20
-1.0000000000E+20
 30
-1.0000000000E+20
  9
$PLIMMIN
 10
0.0
 20
0.0
  9
$PLIMMAX
 10
420.0
 20
297.0
  9
$UNITMODE
 70
     0
  9
$VISRETAIN
 70
     1
  9
$PLINEGEN
 70
     0
  9
$PSLTSCALE
 70
     1
  9
$TREEDEPTH
 70
  3020
  9
$CMLSTYLE
  2
Standard
  9
$CMLJUST
 70
     0
  9
$CMLSCALE
 40
20.0
  9
$PROXYGRAPHICS
 70
     1
  9
$MEASUREMENT
 70
     1
  9
$CELWEIGHT
370
    -1
  9
$ENDCAPS
280
     0
  9
$JOINSTYLE
280
     0
  9
$LWDISPLAY
290
     1
  9
$INSUNITS
 70
     4
  9
$HYPERLINKBASE
  1

  9
$STYLESHEET
  1

  9
$XEDIT
290
     1
  9
$CEPSNTYPE
380
     0
  9
$PSTYLEMODE
290
     1
  9
$FINGERPRINTGUID
  2
{032E3B52-725B-4BE4-B48A-EB856BD1E369}
  9
$VERSIONGUID
  2
{FAEB1C32-E019-11D5-929B-00C0DF256EC4}
  9
$EXTNAMES
290
     1
  9
$PSVPSCALE
 40
0.0
  9
$OLESTARTUP
290
     0
  0
ENDSEC
  0
SECTION
  2
CLASSES
  0
CLASS
  1
ACDBDICTIONARYWDFLT
  2
AcDbDictionaryWithDefault
  3
ObjectDBX Classes
 90
        0
280
     0
281
     0
  0
CLASS
  1
VISUALSTYLE
  2
AcDbVisualStyle
  3
ObjectDBX Classes
 90
     4095
280
     0
281
     0
  0
CLASS
  1
MATERIAL
  2
AcDbMaterial
  3
ObjectDBX Classes
 90
     1153
280
     0
281
     0
  0
CLASS
  1
SCALE
  2
AcDbScale
  3
ObjectDBX Classes
 90
     1153
280
     0
281
     0
  0
CLASS
  1
TABLESTYLE
  2
AcDbTableStyle
  3
ObjectDBX Classes
 90
     4095
280
     0
281
     0
  0
CLASS
  1
MLEADERSTYLE
  2
AcDbMLeaderStyle
  3
ACDB_MLEADERSTYLE_CLASS
 90
     4095
280
     0
281
     0
  0
CLASS
  1
SUN
  2
AcDbSun
  3
SCENEOE
 90
     1153
280
     0
281
     0
  0
CLASS
  1
ACDBPLACEHOLDER
  2
AcDbPlaceHolder
  3
ObjectDBX Classes
 90
        0
280
     0
281
     0
  0
CLASS
  1
LAYOUT
  2
AcDbLayout
  3
ObjectDBX Classes
 90
        0
280
     0
281
     0
  0
ENDSEC
  0
SECTION
  2
TABLES
  0
TABLE
  2
VPORT
  5
8
330
0
100
AcDbSymbolTable
 70
     1
  0
VPORT
  5
29
330
8
100
AcDbSymbolTableRecord
100
AcDbViewportTableRecord
  2
*Active
 70
     0
 10
0.0
 20
0.0
 11
1.0
 21
1.0
 12
0.0
 22
0.0
 13
0.0
 23
0.0
 14
10.0
 24
10.0
 15
10.0
 25
10.0
 16
0.0
 26
0.0
 36
1.0
 17
0.0
 27
0.0
 37
0.0
 40
375.666
 41
0.6206896552
 42
50.0
 43
0.0
 44
0.0
 50
0.0
 51
0.0
 71
     0
 72
   100
 73
     1
 74
     3
 75
     0
 76
     0
 77
     0
 78
     0
281
     0
 65
     1
110
0.0
120
0.0
130
0.0
111
1.0
121
0.0
131
0.0
112
0.0
122
1.0
132
0.0
 79
     0
146
0.0
  0
ENDTAB
  0
TABLE
  2
LTYPE
  5
5
330
0
100
AcDbSymbolTable
 70
     6
  0
LTYPE
  5
14
330
5
100
AcDbSymbolTableRecord
100
AcDbLinetypeTableRecord
  2
ByBlock
 70
     0
  3

 72
    65
 73
     0
 40
0.0
  0
LTYPE
  5
15
330
5
100
AcDbSymbolTableRecord
100
AcDbLinetypeTableRecord
  2
ByLayer
 70
     0
  3

 72
    65
 73
     0
 40
0.0
  0
LTYPE
  5
16
330
5
100
AcDbSymbolTableRecord
100
AcDbLinetypeTableRecord
  2
Continuous
 70
     0
  3
Solid line
 72
    65
 73
     0
 40
0.0
  0
LTYPE
  5
6E
330
5
100
AcDbSymbolTableRecord
100
AcDbLinetypeTableRecord
  2
HIDDEN
 70
     0
  3
Hidden __ __ __ __ __ __ __ __ __ __ __ __ __ __
 72
    65
 73
     2
 40
1.905
 49
1.27
 74
     0
 49
-0.635
 74
     0
  0
LTYPE
  5
6F
330
5
100
AcDbSymbolTableRecord
100
AcDbLinetypeTableRecord
  2
PHANTOM
 70
     0
  3
Phantom ______  __  __  ______  __  __  ______
 72
    65
 73
     6
 40
12.7
 49
6.35
 74
     0
 49
-1.27
 74
     0
 49
1.27
 74
     0
 49
-1.27
 74
     0
 49
1.27
 74
     0
 49
-1.27
 74
     0
  0
LTYPE
  5
70
330
5
100
AcDbSymbolTableRecord
100
AcDbLinetypeTableRecord
  2
CENTER
 70
     0
  3
Center ____ _ ____ _ ____ _ ____ _ ____ _ ____
 72
    65
 73
     4
 40
10.16
 49
6.35
 74
     0
 49
-1.27
 74
     0
 49
1.27
 74
     0
 49
-1.27
 74
     0
  0
LTYPE
  5
71
330
5
100
AcDbSymbolTableRecord
100
AcDbLinetypeTableRecord
  2
CENTERX2
 70
     0
  3
Center (2x) ________  __  ________  __  _____
 72
    65
 73
     4
 40
20.32
 49
12.7
 74
     0
 49
-2.54
 74
     0
 49
2.54
 74
     0
 49
-2.54
 74
     0
  0
LTYPE
  5
72
330
5
100
AcDbSymbolTableRecord
100
AcDbLinetypeTableRecord
  2
DOT2
 70
     0
  3
Dot (.5x) ........................................
 72
    65
 73
     2
 40
0.635
 49
0.0
 74
     0
 49
-0.635
 74
     0
  0
ENDTAB
  0
TABLE
  2
LAYER
  5
2
330
0
100
AcDbSymbolTable
 70
     1
  0
LAYER
  5
10
330
2
100
AcDbSymbolTableRecord
100
AcDbLayerTableRecord
  2
0
 70
     0
 62
     7
  6
Continuous
370
    -3
390
F
  0
ENDTAB
  0
TABLE
  2
STYLE
  5
3
330
0
100
AcDbSymbolTable
 70
     1
  0
STYLE
  5
11
330
3
100
AcDbSymbolTableRecord
100
AcDbTextStyleTableRecord
  2
Standard
 70
     0
 40
0.0
 41
1.0
 50
0.0
 71
     0
 42
3.175
  3
txt
  4

  0
ENDTAB
  0
TABLE
  2
VIEW
  5
6
330
0
100
AcDbSymbolTable
 70
     0
  0
ENDTAB
  0
TABLE
  2
UCS
  5
7
330
0
100
AcDbSymbolTable
 70
     0
  0
ENDTAB
  0
TABLE
  2
APPID
  5
9
330
0
100
AcDbSymbolTable
 70
     1
  0
APPID
  5
12
330
9
100
AcDbSymbolTableRecord
100
AcDbRegAppTableRecord
  2
ACAD
 70
     0
  0
ENDTAB
  0
TABLE
  2
DIMSTYLE
  5
A
330
0
100
AcDbSymbolTable
 70
     1
100
AcDbDimStyleTable
  0
DIMSTYLE
105
27
330
A
100
AcDbSymbolTableRecord
100
AcDbDimStyleTableRecord
  2
ISO-25
 70
     0
 41
2.5
 42
0.625
 43
3.75
 44
1.25
 73
     0
 74
     0
 77
     1
 78
     8
140
2.5
141
2.5
143
0.0393700787
147
0.625
171
     3
172
     1
178
     0
271
     2
272
     2
274
     3
278
    44
283
     0
284
     8
340
11
  0
ENDTAB
  0
TABLE
  2
BLOCK_RECORD
  5
1
330
0
100
AcDbSymbolTable
 70
     1
  0
BLOCK_RECORD
  5
1F
330
1
100
AcDbSymbolTableRecord
100
AcDbBlockTableRecord
  2
*Model_Space
340
22
  0
BLOCK_RECORD
  5
1B
330
1
100
AcDbSymbolTableRecord
100
AcDbBlockTableRecord
  2
*Paper_Space
340
1E
  0
BLOCK_RECORD
  5
23
330
1
100
AcDbSymbolTableRecord
100
AcDbBlockTableRecord
  2
*Paper_Space0
340
26
  0
ENDTAB
  0
ENDSEC
  0
SECTION
  2
BLOCKS
  0
BLOCK
  5
20
330
1F
100
AcDbEntity
  8
0
100
AcDbBlockBegin
  2
*Model_Space
 70
     0
 10
0.0
 20
0.0
 30
0.0
  3
*Model_Space
  1

  0
ENDBLK
  5
21
330
1F
100
AcDbEntity
  8
0
100
AcDbBlockEnd
  0
BLOCK
  5
1C
330
1B
100
AcDbEntity
 67
     1
  8
0
100
AcDbBlockBegin
  2
*Paper_Space
 70
     0
 10
0.0
 20
0.0
 30
0.0
  3
*Paper_Space
  1

  0
ENDBLK
  5
1D
330
1B
100
AcDbEntity
 67
     1
  8
0
100
AcDbBlockEnd
  0
BLOCK
  5
24
330
23
100
AcDbEntity
  8
0
100
AcDbBlockBegin
  2
*Paper_Space0
 70
     0
 10
0.0
 20
0.0
 30
0.0
  3
*Paper_Space0
  1

  0
ENDBLK
  5
25
330
23
100
AcDbEntity
  8
0
100
AcDbBlockEnd
  0
ENDSEC
  0
SECTION
  2
ENTITIES
  0
LINE
  5
73
330
1F
100
AcDbEntity
  8
0
  6
Continuous
 62
     7
370
    25
100
AcDbLine
 10
1.771468099
 20
-174.9204956055
 30
0.0
 11
1.771468099
 21
-174.15
 31
0.0
  0
LINE
  5
74
330
1F
100
AcDbEntity
  8
0
  6
Continuous
 62
     7
370
    25
100
AcDbLine
 10
1.771468099
 20
-174.15
 30
0.0
 11
6.6512736003
 21
-174.15
 31
0.0
  0
LINE
  5
75
330
1F
100
AcDbEntity
  8
0
  6
Continuous
 62
     7
370
    25
100
AcDbLine
 10
6.6512736003
 20
-174.15
 30
0.0
 11
6.6512736003
 21
-180.8276285807
 31
0.0
  0
LINE
  5
76
330
1F
100
AcDbEntity
  8
0
  6
Continuous
 62
     7
370
    25
100
AcDbLine
 10
6.6512736003
 20
-180.8276285807
 30
0.0
 11
1.9426893446
 21
-180.8276285807
 31
0.0
  0
LINE
  5
77
330
1F
100
AcDbEntity
  8
0
  6
Continuous
 62
     7
370
    25
100
AcDbLine
 10
1.9426893446
 20
-180.8276285807
 30
0.0
 11
1.9426893446
 21
-180.0571329753
 31
0.0
  0
LINE
  5
78
330
1F
100
AcDbEntity
  8
0
  6
Continuous
 62
     7
370
    25
100
AcDbLine
 10
1.9426893446
 20
-180.0571329753
 30
0.0
 11
5.7095567491
 21
-180.0571329753
 31
0.0
  0
LINE
  5
79
330
1F
100
AcDbEntity
  8
0
  6
Continuous
 62
     7
370
    25
100
AcDbLine
 10
5.7095567491
 20
-180.0571329753
 30
0.0
 11
5.7095567491
 21
-178.0024780273
 31
0.0
  0
LINE
  5
7A
330
1F
100
AcDbEntity
  8
0
  6
Continuous
 62
     7
370
    25
100
AcDbLine
 10
5.7095567491
 20
-178.0024780273
 30
0.0
 11
2.1995212131
 21
-178.0024780273
 31
0.0
  0
LINE
  5
7B
330
1F
100
AcDbEntity
  8
0
  6
Continuous
 62
     7
370
    25
100
AcDbLine
 10
2.1995212131
 20
-178.0024780273
 30
0.0
 11
2.1995212131
 21
-177.2319824219
 31
0.0
  0
LINE
  5
7C
330
1F
100
AcDbEntity
  8
0
  6
Continuous
 62
     7
370
    25
100
AcDbLine
 10
2.1995212131
 20
-177.2319824219
 30
0.0
 11
5.7095567491
 21
-177.2319824219
 31
0.0
  0
LINE
  5
7D
330
1F
100
AcDbEntity
  8
0
  6
Continuous
 62
     7
370
    25
100
AcDbLine
 10
5.7095567491
 20
-177.2319824219
 30
0.0
 11
5.7095567491
 21
-174.9204956055
 31
0.0
  0
LINE
  5
7E
330
1F
100
AcDbEntity
  8
0
  6
Continuous
 62
     7
370
    25
100
AcDbLine
 10
5.7095567491
 20
-174.9204956055
 30
0.0
 11
1.771468099
 21
-174.9204956055
 31
0.0
  0
SPLINE
  5
7F
330
1F
100
AcDbEntity
  8
0
  6
Continuous
 62
     7
370
    25
100
AcDbSpline
210
0.0
220
0.0
230
1.0
 70
     8
 71
     3
 72
    23
 73
    19
 74
     0
 42
0.000000001
 43
0.00000001
 40
0.0
 40
0.0
 40
0.0
 40
0.0
 40
0.0748117115240066
 40
0.1488996184043135
 40
0.22387556669311
 40
0.3012959568293655
 40
0.340890212879298
 40
0.3803344024257416
 40
0.420118666246841
 40
0.4599397196669023
 40
0.500818643036387
 40
0.5418923268959641
 40
0.5844215264840359
 40
0.6280604215766716
 40
0.7172418577080613
 40
0.8079277750141706
 40
0.9019302338301826
 40
1.0
 40
1.0
 40
1.0
 40
1.0
 10
-4.392496744791663
 20
-176.0454726960923
 30
0.0
 10
-4.388956729786016
 20
-175.9582160644457
 30
0.0
 10
-4.381910949483058
 20
-175.7845470106205
 30
0.0
 10
-4.323029717548373
 20
-175.5289393187446
 30
0.0
 10
-4.228552761700085
 20
-175.281766987516
 30
0.0
 10
-4.119204845655804
 20
-175.0856748214586
 30
0.0
 10
-4.015428245872532
 20
-174.9356739645226
 30
0.0
 10
-3.928279471971271
 20
-174.8278512792229
 30
0.0
 10
-3.831628839045144
 20
-174.7281552074798
 30
0.0
 10
-3.727864782119561
 20
-174.633458837221
 30
0.0
 10
-3.616178845708948
 20
-174.54569682972
 30
0.0
 10
-3.495631672838845
 20
-174.4648325718333
 30
0.0
 10
-3.367489358961968
 20
-174.3900495013823
 30
0.0
 10
-3.184530778869406
 20
-174.2988198379784
 30
0.0
 10
-2.941241490964006
 20
-174.2040816881366
 30
0.0
 10
-2.632292045065402
 20
-174.1219096632865
 30
0.0
 10
-2.305506818166621
 20
-174.0732187950658
 30
0.0
 10
-2.081621479189605
 20
-174.0673737743785
 30
0.0
 10
-1.967308319939503
 20
-174.0643893771701
 30
0.0
  0
SPLINE
  5
80
330
1F
100
AcDbEntity
  8
0
  6
Continuous
 62
     7
370
    25
100
AcDbSpline
210
0.0
220
0.0
230
1.0
 70
     8
 71
     3
 72
    31
 73
    27
 74
     0
 42
0.000000001
 43
0.00000001
 40
0.0
 40
0.0
 40
0.0
 40
0.0
 40
0.0524970732681834
 40
0.1031556251890812
 40
0.1514469001061655
 40
0.1980365750276143
 40
0.2428832275006936
 40
0.2863204360076021
 40
0.3279748327286722
 40
0.368524234979792
 40
0.4079850030197747
 40
0.4469738981777875
 40
0.4853056677336272
 40
0.523527722287356
 40
0.5615593996919295
 40
0.5998803471782271
 40
0.6384601864867868
 40
0.6777576969457358
 40
0.717260486447783
 40
0.7565791004917742
 40
0.7960451236613615
 40
0.8355597236480322
 40
0.8757030562458944
 40
0.9162562941044288
 40
0.9577560637442958
 40
1.0
 40
1.0
 40
1.0
 40
1.0
 10
-1.967308319939503
 20
-174.0643893771701
 30
0.0
 10
-1.894611975789362
 20
-174.0650663609334
 30
0.0
 10
-1.75176521571458
 20
-174.0663966195364
 30
0.0
 10
-1.542326645111558
 20
-174.0795852441282
 30
0.0
 10
-1.342192808780639
 20
-174.10341335449
 30
0.0
 10
-1.150563024183325
 20
-174.1309936896158
 30
0.0
 10
-0.9683412935602808
 20
-174.172446251936
 30
0.0
 10
-0.7944820345033615
 20
-174.219218191247
 30
0.0
 10
-0.6305711297638459
 20
-174.2778951710649
 30
0.0
 10
-0.4748036188511892
 20
-174.3424526956128
 30
0.0
 10
-0.3286055435960531
 20
-174.4187339631432
 30
0.0
 10
-0.1889072531983344
 20
-174.5004895958179
 30
0.0
 10
-0.0590893266900282
 20
-174.5942732920469
 30
0.0
 10
0.0646945433993043
 20
-174.6937302462907
 30
0.0
 10
0.1787095162707777
 20
-174.8043742853169
 30
0.0
 10
0.2842747831532573
 20
-174.9236234330606
 30
0.0
 10
0.3825377374175451
 20
-175.0512067022271
 30
0.0
 10
0.4717562984662584
 20
-175.1872620196051
 30
0.0
 10
0.5514035984892969
 20
-175.3302293288567
 30
0.0
 10
0.6231060634053514
 20
-175.4776237040784
 30
0.0
 10
0.6831117576924022
 20
-175.6302313715842
 30
0.0
 10
0.7325614347856944
 20
-175.7876935627498
 30
0.0
 10
0.7730395312368302
 20
-175.9492954707252
 30
0.0
 10
0.801901647224607
 20
-176.1161135561372
 30
0.0
 10
0.8228537342770212
 20
-176.287101290147
 30
0.0
 10
0.8274384962149147
 20
-176.4030149621082
 30
0.0
 10
0.8297512478298655
 20
-176.4614868164062
 30
0.0
  0
LINE
  5
81
330
1F
100
AcDbEntity
  8
0
  6
Continuous
 62
     7
370
    25
100
AcDbLine
 10
0.8297512478
 20
-176.4614868164
 30
0.0
 11
-0.1119656033
 21
-176.4614868164
 31
0.0
  0
SPLINE
  5
82
330
1F
100
AcDbEntity
  8
0
  6
Continuous
 62
     7
370
    25
100
AcDbSpline
210
0.0
220
0.0
230
1.0
 70
     8
 71
     3
 72
    19
 73
    15
 74
     0
 42
0.000000001
 43
0.00000001
 40
0.0
 40
0.0
 40
0.0
 40
0.0
 40
0.093813437394172
 40
0.180220664957641
 40
0.2604102883577049
 40
0.3346865233629541
 40
0.4070661147979162
 40
0.4814349382811623
 40
0.5592715499458982
 40
0.6424655978377196
 40
0.7285368489066265
 40
0.815944257740895
 40
0.9060181327287865
 40
1.0
 40
1.0
 40
1.0
 40
1.0
 10
-0.1119656032986067
 20
-176.4614868164062
 30
0.0
 10
-0.1223003058560839
 20
-176.3769207666608
 30
0.0
 10
-0.1421538259783907
 20
-176.2144648313355
 30
0.0
 10
-0.1981057286396353
 20
-175.9844125049528
 30
0.0
 10
-0.2685920248297726
 20
-175.7770338887499
 30
0.0
 10
-0.361338467090338
 20
-175.5925418207772
 30
0.0
 10
-0.4752551325514833
 20
-175.4265458291151
 30
0.0
 10
-0.617782751115045
 20
-175.279543527565
 30
0.0
 10
-0.7889338217820778
 20
-175.1505011366451
 30
0.0
 10
-0.9846732608701526
 20
-175.0401619156983
 30
0.0
 10
-1.198851791690335
 20
-174.9472168835297
 30
0.0
 10
-1.429578834677058
 20
-174.8820143324403
 30
0.0
 10
-1.673439367064133
 20
-174.8424754535853
 30
0.0
 10
-1.84052435267781
 20
-174.8374507025578
 30
0.0
 10
-1.925840674506289
 20
-174.8348849826388
 30
0.0
  0
SPLINE
  5
83
330
1F
100
AcDbEntity
  8
0
  6
Continuous
 62
     7
370
    25
100
AcDbSpline
210
0.0
220
0.0
230
1.0
 70
     8
 71
     3
 72
    19
 73
    15
 74
     0
 42
0.000000001
 43
0.00000001
 40
0.0
 40
0.0
 40
0.0
 40
0.0
 40
0.1056286769630305
 40
0.2053374527832048
 40
0.3012118623686868
 40
0.3933061246626496
 40
0.4807364361328824
 40
0.5628486664239363
 40
0.641019285521344
 40
0.7177066092816698
 40
0.791768156300894
 40
0.8625200006447953
 40
0.931747904737299
 40
1.0
 40
1.0
 40
1.0
 40
1.0
 10
-1.925840674506289
 20
-174.8348849826388
 30
0.0
 10
-2.001324280210955
 20
-174.8362886623834
 30
0.0
 10
-2.148061054427228
 20
-174.8390173534128
 30
0.0
 10
-2.361175223558422
 20
-174.8715831724976
 30
0.0
 10
-2.561144255327558
 20
-174.9197614417931
 30
0.0
 10
-2.745807793513394
 20
-174.989052861554
 30
0.0
 10
-2.911454681485793
 20
-175.0761528263914
 30
0.0
 10
-3.058487465231777
 20
-175.1756071611133
 30
0.0
 10
-3.180435602561239
 20
-175.2941310771004
 30
0.0
 10
-3.279079501586752
 20
-175.4251299535666
 30
0.0
 10
-3.355632689778897
 20
-175.5642391190213
 30
0.0
 10
-3.409002882982898
 20
-175.7077515432929
 30
0.0
 10
-3.444935193070874
 20
-175.8528725973395
 30
0.0
 10
-3.448840900807701
 20
-175.9511848352409
 30
0.0
 10
-3.45077989366319
 20
-175.999992052714
 30
0.0
  0
SPLINE
  5
84
330
1F
100
AcDbEntity
  8
0
  6
Continuous
 62
     7
370
    25
100
AcDbSpline
210
0.0
220
0.0
230
1.0
 70
     8
 71
     3
 72
    15
 73
    11
 74
     0
 42
0.000000001
 43
0.00000001
 40
0.0
 40
0.0
 40
0.0
 40
0.0
 40
0.1177602073022879
 40
0.2303985997942726
 40
0.3406497528469432
 40
0.4514251755843616
 40
0.5677355826461936
 40
0.6969707802217732
 40
0.8394483291236463
 40
1.0
 40
1.0
 40
1.0
 40
1.0
 10
-3.450779893663189
 20
-175.9999920527139
 30
0.0
 10
-3.448734217389737
 20
-176.0483204031325
 30
0.0
 10
-3.444731838658984
 20
-176.1428751302504
 30
0.0
 10
-3.412981820153153
 20
-176.2797497638902
 30
0.0
 10
-3.361676939208181
 20
-176.4071077866737
 30
0.0
 10
-3.289708786215482
 20
-176.5260356690286
 30
0.0
 10
-3.191897669385704
 20
-176.6358142401208
 30
0.0
 10
-3.065416139306173
 20
-176.7332649068285
 30
0.0
 10
-2.913787566253815
 20
-176.8259561743093
 30
0.0
 10
-2.799626619227567
 20
-176.8753885461276
 30
0.0
 10
-2.739141591389969
 20
-176.9015789243909
 30
0.0
  0
SPLINE
  5
85
330
1F
100
AcDbEntity
  8
0
  6
Continuous
 62
     7
370
    25
100
AcDbSpline
210
0.0
220
0.0
230
1.0
 70
     8
 71
     3
 72
    23
 73
    19
 74
     0
 42
0.000000001
 43
0.00000001
 40
0.0
 40
0.0
 40
0.0
 40
0.0
 40
0.0312005486837899
 40
0.0704877074756232
 40
0.1172164737641544
 40
0.1715779330579243
 40
0.2335986644965036
 40
0.304114665578319
 40
0.3817802687127411
 40
0.4672720494883081
 40
0.5539624244942414
 40
0.6347026409904399
 40
0.7100326216235958
 40
0.7790893059118832
 40
0.8429634432039236
 40
0.9009998185565118
 40
0.953245600815254
 40
1.0
 40
1.0
 40
1.0
 40
1.0
 10
-2.739141591389969
 20
-176.9015789243909
 30
0.0
 10
-2.715616019170728
 20
-176.9112331780659
 30
0.0
 10
-2.662467477791131
 20
-176.9330438909426
 30
0.0
 10
-2.571372485087647
 20
-176.9619145320236
 30
0.0
 10
-2.463281361063889
 20
-176.9992636199625
 30
0.0
 10
-2.335982466762194
 20
-177.0375290494958
 30
0.0
 10
-2.18934390318825
 20
-177.0785287301408
 30
0.0
 10
-2.024710769727415
 20
-177.125712806575
 30
0.0
 10
-1.840776969493351
 20
-177.1748475945989
 30
0.0
 10
-1.643984004257341
 20
-177.2268639873502
 30
0.0
 10
-1.44478563825858
 20
-177.2796236228399
 30
0.0
 10
-1.254502176568604
 20
-177.3335693360464
 30
0.0
 10
-1.078352586542259
 20
-177.3847343886549
 30
0.0
 10
-0.9170073775904991
 20
-177.4373204941942
 30
0.0
 10
-0.7703120382380398
 20
-177.489221233272
 30
0.0
 10
-0.6378657943305613
 20
-177.5401012265086
 30
0.0
 10
-0.5194330394107
 20
-177.5886943396135
 30
0.0
 10
-0.447100590514029
 20
-177.6244310068112
 30
0.0
 10
-0.4129404491848372
 20
-177.6413082122802
 30
0.0
  0
SPLINE
  5
86
330
1F
100
AcDbEntity
  8
0
  6
Continuous
 62
     7
370
    25
100
AcDbSpline
210
0.0
220
0.0
230
1.0
 70
     8
 71
     3
 72
    15
 73
    11
 74
     0
 42
0.000000001
 43
0.00000001
 40
0.0
 40
0.0
 40
0.0
 40
0.0
 40
0.1448695014226455
 40
0.2796358402521802
 40
0.4065536383061831
 40
0.5277150017052259
 40
0.6456590686327455
 40
0.7617797423287311
 40
0.8788883509231941
 40
0.9999999999999999
 40
0.9999999999999999
 40
0.9999999999999999
 40
0.9999999999999999
 10
-0.4129404491848372
 20
-177.6413082122802
 30
0.0
 10
-0.3343970900337348
 20
-177.6838176767457
 30
0.0
 10
-0.1827879658443007
 20
-177.7658720063165
 30
0.0
 10
0.0220514267033779
 20
-177.9117142730578
 30
0.0
 10
0.1917508398025753
 20
-178.0767041858423
 30
0.0
 10
0.3316960868406422
 20
-178.2544730963351
 30
0.0
 10
0.4397429940239349
 20
-178.4459422721798
 30
0.0
 10
0.5160802425696597
 20
-178.6490146092716
 30
0.0
 10
0.5656561073863355
 20
-178.8628978260974
 30
0.0
 10
0.5704713171795998
 20
-179.0099090236311
 30
0.0
 10
0.5729193793402821
 20
-179.0846498065524
 30
0.0
  0
SPLINE
  5
87
330
1F
100
AcDbEntity
  8
0
  6
Continuous
 62
     7
370
    25
100
AcDbSpline
210
0.0
220
0.0
230
1.0
 70
     8
 71
     3
 72
    23
 73
    19
 74
     0
 42
0.000000001
 43
0.00000001
 40
0.0
 40
0.0
 40
0.0
 40
0.0
 40
0.075003501752121
 40
0.1491814207149436
 40
0.223688255785941
 40
0.3009941454244409
 40
0.3401568029415755
 40
0.3792002499352433
 40
0.4183796097273772
 40
0.4582131080100786
 40
0.4984144588402094
 40
0.5400409861083797
 40
0.5821965654347478
 40
0.6261769612902273
 40
0.7158440112886165
 40
0.8073634492189767
 40
0.9016235874428786
 40
1.0
 40
1.0
 40
1.0
 40
1.0
 10
0.5729193793402821
 20
-179.0846498065524
 30
0.0
 10
0.569745499871797
 20
-179.1674379680912
 30
0.0
 10
0.5634326766405378
 20
-179.3321030206317
 30
0.0
 10
0.5072945773972538
 20
-179.5736913747334
 30
0.0
 10
0.4178830536757023
 20
-179.8069213598614
 30
0.0
 10
0.3148884910137658
 20
-179.9915120063998
 30
0.0
 10
0.2159164343685605
 20
-180.1316688062378
 30
0.0
 10
0.1327354484945263
 20
-180.2310492125339
 30
0.0
 10
0.0409483896047077
 20
-180.3234720059868
 30
0.0
 10
-0.0574374826346089
 20
-180.410854779149
 30
0.0
 10
-0.1659744974040709
 20
-180.4899301766426
 30
0.0
 10
-0.2814115843501365
 20
-180.5633432026141
 30
0.0
 10
-0.4061134429347513
 20
-180.629129050114
 30
0.0
 10
-0.5826652723745039
 20
-180.709334225777
 30
0.0
 10
-0.817493635769298
 20
-180.7915656558703
 30
0.0
 10
-1.11316255397546
 20
-180.8628102017211
 30
0.0
 10
-1.424366051673449
 20
-180.9045159747886
 30
0.0
 10
-1.636779571771116
 20
-180.9102903316513
 30
0.0
 10
-1.745255766974551
 20
-180.913239203559
 30
0.0
  0
SPLINE
  5
88
330
1F
100
AcDbEntity
  8
0
  6
Continuous
 62
     7
370
    25
100
AcDbSpline
210
0.0
220
0.0
230
1.0
 70
     8
 71
     3
 72
    23
 73
    19
 74
     0
 42
0.000000001
 43
0.00000001
 40
0.0
 40
0.0
 40
0.0
 40
0.0
 40
0.1004657318433372
 40
0.1952520278281333
 40
0.285962581054549
 40
0.3728540139618959
 40
0.4148928980710355
 40
0.4560934862860257
 40
0.4959768588387378
 40
0.5353752545353766
 40
0.5741414568377521
 40
0.6123004535055679
 40
0.6508585457575341
 40
0.6892871549641802
 40
0.7658194335102668
 40
0.8424140215159317
 40
0.9199436709640235
 40
0.9999999999999999
 40
0.9999999999999999
 40
0.9999999999999999
 40
0.9999999999999999
 10
-1.745255766974551
 20
-180.913239203559
 30
0.0
 10
-1.864008343665212
 20
-180.9106040362692
 30
0.0
 10
-2.094800286183721
 20
-180.9054826705304
 30
0.0
 10
-2.430387837851324
 20
-180.8603167518689
 30
0.0
 10
-2.744325301184642
 20
-180.7875383615173
 30
0.0
 10
-2.990076793777888
 20
-180.7017948033383
 30
0.0
 10
-3.172239093133873
 20
-180.6165667448071
 30
0.0
 10
-3.300639932793304
 20
-180.547887436231
 30
0.0
 10
-3.42023095675871
 20
-180.470485202492
 30
0.0
 10
-3.533294276347113
 20
-180.3885306099725
 30
0.0
 10
-3.635789240576065
 20
-180.2966852586616
 30
0.0
 10
-3.731948998524355
 20
-180.1997794433965
 30
0.0
 10
-3.820155826872238
 20
-180.095945122445
 30
0.0
 10
-3.924903958155628
 20
-179.9476437409407
 30
0.0
 10
-4.035548840193051
 20
-179.7493113171518
 30
0.0
 10
-4.135470952004365
 20
-179.4949285171652
 30
0.0
 10
-4.199457348051957
 20
-179.2244523180815
 30
0.0
 10
-4.213925456540436
 20
-179.0386072835455
 30
0.0
 10
-4.22127549913194
 20
-178.9441948784721
 30
0.0
  0
LINE
  5
89
330
1F
100
AcDbEntity
  8
0
  6
Continuous
 62
     7
370
    25
100
AcDbLine
 10
-4.2212754991
 20
-178.9441948785
 30
0.0
 11
-3.279558648
 21
-178.9441948785
 31
0.0
  0
SPLINE
  5
8A
330
1F
100
AcDbEntity
  8
0
  6
Continuous
 62
     7
370
    25
100
AcDbSpline
210
0.0
220
0.0
230
1.0
 70
     8
 71
     3
 72
    23
 73
    19
 74
     0
 42
0.000000001
 43
0.00000001
 40
0.0
 40
0.0
 40
0.0
 40
0.0
 40
0.06714104982829
 40
0.1315102546513846
 40
0.1926394464174723
 40
0.2511477698027839
 40
0.3075867210387798
 40
0.3634341680349903
 40
0.4180970652056821
 40
0.472611412009122
 40
0.5281676960517119
 40
0.5855127690028524
 40
0.6453265140189905
 40
0.7080150561965228
 40
0.7744826987967318
 40
0.8449737211450989
 40
0.9204206830432692
 40
1.0
 40
1.0
 40
1.0
 40
1.0
 10
-3.279558648003468
 20
-178.9441948784721
 30
0.0
 10
-3.273771602202527
 20
-178.9920587184025
 30
0.0
 10
-3.262436422474071
 20
-179.0858103918413
 30
0.0
 10
-3.230636993634114
 20
-179.2205479087985
 30
0.0
 10
-3.192600267178033
 20
-179.3471035899285
 30
0.0
 10
-3.144232187584611
 20
-179.4640550681204
 30
0.0
 10
-3.08650624662215
 20
-179.5724365056434
 30
0.0
 10
-3.018033712395242
 20
-179.6710117577528
 30
0.0
 10
-2.941524640433669
 20
-179.7616464645773
 30
0.0
 10
-2.85513314964702
 20
-179.8427500369712
 30
0.0
 10
-2.758041883683006
 20
-179.9139757040162
 30
0.0
 10
-2.650230508769961
 20
-179.9755324821248
 30
0.0
 10
-2.532098756671396
 20
-180.0281451222607
 30
0.0
 10
-2.402500751433243
 20
-180.0687053161757
 30
0.0
 10
-2.263169370107204
 20
-180.10238733174
 30
0.0
 10
-2.11250162909349
 20
-180.126565120718
 30
0.0
 10
-1.951024250582594
 20
-180.1390898092441
 30
0.0
 10
-1.839803256031277
 20
-180.1415042157998
 30
0.0
 10
-1.782710414462615
 20
-180.1427435980902
 30
0.0
  0
SPLINE
  5
8B
330
1F
100
AcDbEntity
  8
0
  6
Continuous
 62
     7
370
    25
100
AcDbSpline
210
0.0
220
0.0
230
1.0
 70
     8
 71
     3
 72
    23
 73
    19
 74
     0
 42
0.000000001
 43
0.00000001
 40
0.0
 40
0.0
 40
0.0
 40
0.0
 40
0.0915140484692246
 40
0.177148691078689
 40
0.2571169481097525
 40
0.3312093009843037
 40
0.4003971905242647
 40
0.4650744791872323
 40
0.5260808284182678
 40
0.584552377371537
 40
0.6405096115594703
 40
0.6946093947988499
 40
0.7465128494332982
 40
0.7970255531332947
 40
0.8473552476901827
 40
0.8974351655462103
 40
0.9476471957195912
 40
1.0
 40
1.0
 40
1.0
 40
1.0
 10
-1.782710414462615
 20
-180.1427435980902
 30
0.0
 10
-1.723364227788726
 20
-180.1423021713366
 30
0.0
 10
-1.608484605854763
 20
-180.1414476777053
 30
0.0
 10
-1.442447662525288
 20
-180.1255843876242
 30
0.0
 10
-1.288428271827446
 20
-180.1042002822705
 30
0.0
 10
-1.147375889146017
 20
-180.0713749001339
 30
0.0
 10
-1.017974288521106
 20
-180.0327550797554
 30
0.0
 10
-0.9024932245731053
 20
-179.9808958591358
 30
0.0
 10
-0.7981802977003635
 20
-179.9224366691108
 30
0.0
 10
-0.7069378986204876
 20
-179.8539126302269
 30
0.0
 10
-0.6282940103008424
 20
-179.7779438151932
 30
0.0
 10
-0.5577100912711866
 20
-179.6999068629947
 30
0.0
 10
-0.5007974944793965
 20
-179.6157192341385
 30
0.0
 10
-0.4506830227645325
 20
-179.5300426144954
 30
0.0
 10
-0.4157653662486248
 20
-179.4383202533861
 30
0.0
 10
-0.3883557967874149
 20
-179.3445427033134
 30
0.0
 10
-0.3716892745285098
 20
-179.2466491512733
 30
0.0
 10
-0.369774726438587
 20
-179.1801341209738
 30
0.0
 10
-0.3687974717881901
 20
-179.1461824417113
 30
0.0
  0
SPLINE
  5
8C
330
1F
100
AcDbEntity
  8
0
  6
Continuous
 62
     7
370
    25
100
AcDbSpline
210
0.0
220
0.0
230
1.0
 70
     8
 71
     3
 72
    11
 73
     7
 74
     0
 42
0.000000001
 43
0.00000001
 40
0.0
 40
0.0
 40
0.0
 40
0.0
 40
0.2627412305282963
 40
0.5099565029432583
 40
0.7533267184204681
 40
1.0
 40
1.0
 40
1.0
 40
1.0
 10
-0.3687974717881901
 20
-179.1461824417113
 30
0.0
 10
-0.3712310897955528
 20
-179.0887310605605
 30
0.0
 10
-0.3759545179611249
 20
-178.9772232269326
 30
0.0
 10
-0.4241876255929419
 20
-178.8188042084458
 30
0.0
 10
-0.4983704825939275
 20
-178.6743950085794
 30
0.0
 10
-0.5714524165333672
 20
-178.5958227004042
 30
0.0
 10
-0.6082396825154578
 20
-178.5562717437743
 30
0.0
  0
SPLINE
  5
8D
330
1F
100
AcDbEntity
  8
0
  6
Continuous
 62
     7
370
    25
100
AcDbSpline
210
0.0
220
0.0
230
1.0
 70
     8
 71
     3
 72
    23
 73
    19
 74
     0
 42
0.000000001
 43
0.00000001
 40
0.0
 40
0.0
 40
0.0
 40
0.0
 40
0.0327434629435836
 40
0.072410146660326
 40
0.1196123797311354
 40
0.1746742206485759
 40
0.2373468640367583
 40
0.3083547213712475
 40
0.3876329447866037
 40
0.4752520529828972
 40
0.5633362096858383
 40
0.6451407219018653
 40
0.7202075928161754
 40
0.7892748382945906
 40
0.8514959637061122
 40
0.9073299118498405
 40
0.9569683607399763
 40
1.0
 40
1.0
 40
1.0
 40
1.0
 10
-0.6082396825154578
 20
-178.5562717437743
 30
0.0
 10
-0.6314299818416259
 20
-178.5365060645007
 30
0.0
 10
-0.6827138969912835
 20
-178.4927954851552
 30
0.0
 10
-0.7781355494080335
 20
-178.434949736871
 30
0.0
 10
-0.8964441295970516
 20
-178.3765035347692
 30
0.0
 10
-1.038430801831096
 20
-178.3184055907465
 30
0.0
 10
-1.203848303293187
 20
-178.2599388357986
 30
0.0
 10
-1.392443217321656
 20
-178.1997837327099
 30
0.0
 10
-1.605290388863087
 20
-178.1397299494051
 30
0.0
 10
-1.835341442783061
 20
-178.0827970283964
 30
0.0
 10
-2.067421449813814
 20
-178.0243401032407
 30
0.0
 10
-2.28766803092914
 20
-177.9667398642617
 30
0.0
 10
-2.490671798120429
 20
-177.9129114148073
 30
0.0
 10
-2.674095347859555
 20
-177.8568712637201
 30
0.0
 10
-2.840956872911599
 20
-177.8077162052295
 30
0.0
 10
-2.987948726571569
 20
-177.7558160541719
 30
0.0
 10
-3.117711710293285
 20
-177.7087172747418
 30
0.0
 10
-3.197177719748282
 20
-177.6754727383284
 30
0.0
 10
-3.234078004625104
 20
-177.6600355360243
 30
0.0
  0
SPLINE
  5
8E
330
1F
100
AcDbEntity
  8
0
  6
Continuous
 62
     7
370
    25
100
AcDbSpline
210
0.0
220
0.0
230
1.0
 70
     8
 71
     3
 72
    19
 73
    15
 74
     0
 42
0.000000001
 43
0.00000001
 40
0.0
 40
0.0
 40
0.0
 40
0.0
 40
0.0749469658775889
 40
0.1471083341849687
 40
0.2164096741868542
 40
0.2829324078001281
 40
0.3472179263984972
 40
0.4093787589848513
 40
0.4693963126005384
 40
0.5289591812310037
 40
0.6445627098265606
 40
0.7598684424067388
 40
0.8776916298410445
 40
1.0
 40
1.0
 40
1.0
 40
1.0
 10
-3.234078004625104
 20
-177.6600355360242
 30
0.0
 10
-3.282099123227403
 20
-177.6379112463931
 30
0.0
 10
-3.376356531523574
 20
-177.5944849735007
 30
0.0
 10
-3.509729215779597
 20
-177.5201265654557
 30
0.0
 10
-3.634989015320048
 20
-177.443572344692
 30
0.0
 10
-3.748235424968236
 20
-177.3592136567118
 30
0.0
 10
-3.855033151875316
 20
-177.2747421371177
 30
0.0
 10
-3.949935025738796
 20
-177.1834212369053
 30
0.0
 10
-4.03498244024169
 20
-177.0873997735185
 30
0.0
 10
-4.135724874775297
 20
-176.9554697807157
 30
0.0
 10
-4.239063496504081
 20
-176.7773979502131
 30
0.0
 10
-4.327850000108757
 20
-176.547252492913
 30
0.0
 10
-4.383388252938877
 20
-176.3013613256465
 30
0.0
 10
-4.389423008407184
 20
-176.1318244438622
 30
0.0
 10
-4.392496744791663
 20
-176.0454726960923
 30
0.0
  0
SPLINE
  5
8F
330
1F
100
AcDbEntity
  8
0
  6
Continuous
 62
     7
370
    25
100
AcDbSpline
210
0.0
220
0.0
230
1.0
 70
     8
 71
     3
 72
    31
 73
    27
 74
     0
 42
0.000000001
 43
0.00000001
 40
0.0
 40
0.0
 40
0.0
 40
0.0
 40
0.0475607904469546
 40
0.0939645423171921
 40
0.1391151413453597
 40
0.1836310728011939
 40
0.2274629279022613
 40
0.2707095317019642
 40
0.3136186661613669
 40
0.3562696913321408
 40
0.3983764852883163
 40
0.4395679156577144
 40
0.4800578338505135
 40
0.5199019799359575
 40
0.5596722660343498
 40
0.5990769790772469
 40
0.6390733369180964
 40
0.6793156080281877
 40
0.719783735968341
 40
0.75962378231347
 40
0.7994802250895913
 40
0.8391921469330814
 40
0.8787003552244698
 40
0.9187921630876992
 40
0.9590823015976628
 40
1.0
 40
1.0
 40
1.0
 40
1.0
 10
-14.23771837022569
 20
-177.4781129625108
 30
0.0
 10
-14.23632704018327
 20
-177.3951474086708
 30
0.0
 10
-14.23357822778087
 20
-177.231234651515
 30
0.0
 10
-14.21497863827622
 20
-176.9890853584957
 30
0.0
 10
-14.18227409504176
 20
-176.7538876694864
 30
0.0
 10
-14.13889708659999
 20
-176.524940267437
 30
0.0
 10
-14.0807732198391
 20
-176.3027197735078
 30
0.0
 10
-14.01170193522451
 20
-176.0865890668525
 30
0.0
 10
-13.92815631775343
 20
-175.8778354690558
 30
0.0
 10
-13.83380080555915
 20
-175.6759558261795
 30
0.0
 10
-13.72703763080109
 20
-175.4837267371272
 30
0.0
 10
-13.60927043404788
 20
-175.3024921645791
 30
0.0
 10
-13.48041655813431
 20
-175.1339481183381
 30
0.0
 10
-13.34243046376329
 20
-174.9760244160097
 30
0.0
 10
-13.19255338146715
 20
-174.8319899442469
 30
0.0
 10
-13.03194297303732
 20
-174.6997008451578
 30
0.0
 10
-12.86092768111698
 20
-174.5797263039061
 30
0.0
 10
-12.6801778557991
 20
-174.4713586497745
 30
0.0
 10
-12.49258125822792
 20
-174.3760711538944
 30
0.0
 10
-12.30041569144069
 20
-174.2918634567209
 30
0.0
 10
-12.10345452292667
 20
-174.223732215716
 30
0.0
 10
-11.90457933232133
 20
-174.1633027578681
 30
0.0
 10
-11.70082872491642
 20
-174.1198508927906
 30
0.0
 10
-11.49412397209752
 20
-174.0874722490452
 30
0.0
 10
-11.28316638789552
 20
-174.0685388252331
 30
0.0
 10
-11.14150392717938
 20
-174.0657796340393
 30
0.0
 10
-11.07012532552083
 20
-174.0643893771701
 30
0.0
  0
SPLINE
  5
90
330
1F
100
AcDbEntity
  8
0
  6
Continuous
 62
     7
370
    25
100
AcDbSpline
210
0.0
220
0.0
230
1.0
 70
     8
 71
     3
 72
    31
 73
    27
 74
     0
 42
0.000000001
 43
0.00000001
 40
0.0
 40
0.0
 40
0.0
 40
0.0
 40
0.0447019208074966
 40
0.0885433100239242
 40
0.1314652882158816
 40
0.1738166415803597
 40
0.2157218457498968
 40
0.2572590453427271
 40
0.2987409660326361
 40
0.3405017817199052
 40
0.3821485087638687
 40
0.4230933180190219
 40
0.4635881478882263
 40
0.5040079115832589
 40
0.5443884185888892
 40
0.5849182317596486
 40
0.6262240699255524
 40
0.6679428466828606
 40
0.7099108133431659
 40
0.7513544834629018
 40
0.7925957333124845
 40
0.8339301542937375
 40
0.8749942896385855
 40
0.9164363312913526
 40
0.9579019794556501
 40
1.0
 40
1.0
 40
1.0
 40
1.0
 10
-11.07012532552083
 20
-174.0643893771701
 30
0.0
 10
-10.99338752697042
 20
-174.0655782649369
 30
0.0
 10
-10.84138916616481
 20
-174.0679331538595
 30
0.0
 10
-10.61649407124341
 20
-174.0896140761348
 30
0.0
 10
-10.39793761382109
 20
-174.1267292599931
 30
0.0
 10
-10.18446954560631
 20
-174.1733190197688
 30
0.0
 10
-9.978465382048634
 20
-174.2387296362251
 30
0.0
 10
-9.778201488502448
 20
-174.3157994616481
 30
0.0
 10
-9.5851625333564
 20
-174.40906544244
 30
0.0
 10
-9.398356806024019
 20
-174.5144233468025
 30
0.0
 10
-9.219457706735904
 20
-174.6312280501982
 30
0.0
 10
-9.052258186288013
 20
-174.7606039798633
 30
0.0
 10
-8.894291211545843
 20
-174.8980082001433
 30
0.0
 10
-8.750367804378573
 20
-175.0487679286784
 30
0.0
 10
-8.616177575071571
 20
-175.2081668854273
 30
0.0
 10
-8.492171182339122
 20
-175.3775883784435
 30
0.0
 10
-8.380100814689657
 20
-175.5578810868605
 30
0.0
 10
-8.280587519279585
 20
-175.748080586677
 30
0.0
 10
-8.190852932234357
 20
-175.9433600215627
 30
0.0
 10
-8.115208666098846
 20
-176.1436174799943
 30
0.0
 10
-8.048743226131704
 20
-176.3459456307549
 30
0.0
 10
-7.995807462025756
 20
-176.5515798433923
 30
0.0
 10
-7.953624840916422
 20
-176.7600488784391
 30
0.0
 10
-7.925259909839412
 20
-176.9710050181241
 30
0.0
 10
-7.904774590392457
 20
-177.1847626686918
 30
0.0
 10
-7.903283478696397
 20
-177.3282445111928
 30
0.0
 10
-7.902532280815969
 20
-177.4005283355712
 30
0.0
  0
SPLINE
  5
91
330
1F
100
AcDbEntity
  8
0
  6
Continuous
 62
     7
370
    25
100
AcDbSpline
210
0.0
220
0.0
230
1.0
 70
     8
 71
     3
 72
    23
 73
    19
 74
     0
 42
0.000000001
 43
0.00000001
 40
0.0
 40
0.0
 40
0.0
 40
0.0
 40
0.0752245959663777
 40
0.1465713103289057
 40
0.2144952598141367
 40
0.2794534070191469
 40
0.3424182556849973
 40
0.4035099350204986
 40
0.4637740862491151
 40
0.5238754400688773
 40
0.583261423136512
 40
0.6413103871737768
 40
0.6989047823355463
 40
0.756300915492992
 40
0.8146321189351089
 40
0.8743276931491835
 40
0.9357847783626051
 40
1.0
 40
1.0
 40
1.0
 40
1.0
 10
-7.902532280815969
 20
-177.4005283355712
 30
0.0
 10
-7.904868822966548
 20
-177.5344041128694
 30
0.0
 10
-7.909421456852443
 20
-177.7952542756094
 30
0.0
 10
-7.951457859918918
 20
-178.1751676608946
 30
0.0
 10
-8.020805873736409
 20
-178.5321898355392
 30
0.0
 10
-8.116201244763046
 20
-178.8679723162197
 30
0.0
 10
-8.243080235266445
 20
-179.1799826691188
 30
0.0
 10
-8.393628601269453
 20
-179.4720576017372
 30
0.0
 10
-8.576292795290398
 20
-179.7391135119388
 30
0.0
 10
-8.782691478395757
 20
-179.9842381906431
 30
0.0
 10
-9.013292564955504
 20
-180.2009265009026
 30
0.0
 10
-9.258801186178973
 20
-180.3933820059597
 30
0.0
 10
-9.522302200124344
 20
-180.553911345115
 30
0.0
 10
-9.801356042403869
 20
-180.6864559995744
 30
0.0
 10
-10.09714962614497
 20
-180.788219859986
 30
0.0
 10
-10.40885209371207
 20
-180.8594638443955
 30
0.0
 10
-10.73613017995834
 20
-180.9054231318614
 30
0.0
 10
-10.9598324076252
 20
-180.9105960032373
 30
0.0
 10
-11.07413832346598
 20
-180.913239203559
 30
0.0
  0
SPLINE
  5
92
330
1F
100
AcDbEntity
  8
0
  6
Continuous
 62
     7
370
    25
100
AcDbSpline
210
0.0
220
0.0
230
1.0
 70
     8
 71
     3
 72
    31
 73
    27
 74
     0
 42
0.000000001
 43
0.00000001
 40
0.0
 40
0.0
 40
0.0
 40
0.0
 40
0.0430906778846524
 40
0.0855702925740406
 40
0.1271348306375776
 40
0.1679383740113608
 40
0.20865666174595
 40
0.2489862505362458
 40
0.2893576933795802
 40
0.3300791714524744
 40
0.3704449826241181
 40
0.4105095612295107
 40
0.4500691776487299
 40
0.4895367374910953
 40
0.5291226164692262
 40
0.5690906136894368
 40
0.6095335908455776
 40
0.6505815545344242
 40
0.6923238662515518
 40
0.7342641111039042
 40
0.7765006698783151
 40
0.8195845639067009
 40
0.8631243689835283
 40
0.9078562579436416
 40
0.9533426826867578
 40
0.9999999999999999
 40
0.9999999999999999
 40
0.9999999999999999
 40
0.9999999999999999
 10
-11.07413832346598
 20
-180.913239203559
 30
0.0
 10
-11.14953330441876
 20
-180.9119346307903
 30
0.0
 10
-11.2992541000863
 20
-180.9093439852265
 30
0.0
 10
-11.52100010415966
 20
-180.889238618242
 30
0.0
 10
-11.73678147925285
 20
-180.8543300913048
 30
0.0
 10
-11.94672469070109
 20
-180.8057667415539
 30
0.0
 10
-12.15113941702546
 20
-180.7446690108018
 30
0.0
 10
-12.34989071220826
 20
-180.6692096653695
 30
0.0
 10
-12.54329616578855
 20
-180.5809338565775
 30
0.0
 10
-12.72962408950874
 20
-180.4783358714938
 30
0.0
 10
-12.90755119167993
 20
-180.3628866191685
 30
0.0
 10
-13.07635125531755
 20
-180.2377860238734
 30
0.0
 10
-13.23340183860281
 20
-180.1005249330652
 30
0.0
 10
-13.37946085567
 20
-179.9529250425174
 30
0.0
 10
-13.51565734160859
 20
-179.7950622509153
 30
0.0
 10
-13.63763874463024
 20
-179.6239882461479
 30
0.0
 10
-13.75262498887956
 20
-179.4451059217411
 30
0.0
 10
-13.85343841679716
 20
-179.2543088270213
 30
0.0
 10
-13.94482814825351
 20
-179.0559812798661
 30
0.0
 10
-14.0214322582728
 20
-178.8492636989093
 30
0.0
 10
-14.0892717153051
 20
-178.6371186392189
 30
0.0
 10
-14.14404827642205
 20
-178.4182284655414
 30
0.0
 10
-14.18487915805684
 20
-178.1919686615439
 30
0.0
 10
-14.21627644483514
 20
-177.9599650891213
 30
0.0
 10
-14.23323026159707
 20
-177.7209283226248
 30
0.0
 10
-14.23620971381217
 20
-177.5597341933344
 30
0.0
 10
-14.23771837022569
 20
-177.4781129625108
 30
0.0
  0
CIRCLE
  5
93
330
1F
100
AcDbEntity
  8
0
  6
Continuous
 62
     7
370
    25
100
AcDbCircle
 10
-80.01
 20
55.0291
 30
0.0
 40
6.349999999999994
  0
CIRCLE
  5
94
330
1F
100
AcDbEntity
  8
0
  6
Continuous
 62
     7
370
    25
100
AcDbCircle
 10
80.01
 20
55.0291
 30
0.0
 40
6.349999999999994
  0
CIRCLE
  5
95
330
1F
100
AcDbEntity
  8
0
  6
Continuous
 62
     7
370
    25
100
AcDbCircle
 10
0.0
 20
-55.0333333333
 30
0.0
 40
6.350000000000001
  0
CIRCLE
  5
96
330
1F
100
AcDbEntity
  8
0
  6
Continuous
 62
     7
370
    25
100
AcDbCircle
 10
80.01
 20
-55.0291
 30
0.0
 40
6.349999999999994
  0
CIRCLE
  5
97
330
1F
100
AcDbEntity
  8
0
  6
Continuous
 62
     7
370
    25
100
AcDbCircle
 10
53.5178
 20
119.38
 30
0.0
 40
24.72700000000002
  0
CIRCLE
  5
98
330
1F
100
AcDbEntity
  8
0
  6
Continuous
 62
     7
370
    25
100
AcDbCircle
 10
-53.5178
 20
-119.38
 30
0.0
 40
24.727
  0
CIRCLE
  5
99
330
1F
100
AcDbEntity
  8
0
  6
Continuous
 62
     7
370
    25
100
AcDbCircle
 10
53.5178
 20
-119.5085816836
 30
0.0
 40
24.72700000000002
  0
ARC
  5
9A
330
1F
100
AcDbEntity
  8
0
  6
Continuous
 62
     7
370
    25
100
AcDbCircle
 10
111.125
 20
180.975
 30
0.0
 40
3.175000000000011
100
AcDbArc
 50
0.0
 51
90.0
  0
LINE
  5
9B
330
1F
100
AcDbEntity
  8
0
  6
Continuous
 62
     7
370
    25
100
AcDbLine
 10
111.125
 20
184.15
 30
0.0
 11
-111.125
 21
184.15
 31
0.0
  0
ARC
  5
9C
330
1F
100
AcDbEntity
  8
0
  6
Continuous
 62
     7
370
    25
100
AcDbCircle
 10
-111.125
 20
180.975
 30
0.0
 40
3.175000000000011
100
AcDbArc
 50
90.0
 51
180.0
  0
LINE
  5
9D
330
1F
100
AcDbEntity
  8
0
  6
Continuous
 62
     7
370
    25
100
AcDbLine
 10
-114.3
 20
180.975
 30
0.0
 11
-114.3
 21
-180.975
 31
0.0
  0
ARC
  5
9E
330
1F
100
AcDbEntity
  8
0
  6
Continuous
 62
     7
370
    25
100
AcDbCircle
 10
-111.125
 20
-180.975
 30
0.0
 40
3.175000000000011
100
AcDbArc
 50
180.0
 51
270.0
  0
LINE
  5
9F
330
1F
100
AcDbEntity
  8
0
  6
Continuous
 62
     7
370
    25
100
AcDbLine
 10
-111.125
 20
-184.15
 30
0.0
 11
111.125
 21
-184.15
 31
0.0
  0
ARC
  5
A0
330
1F
100
AcDbEntity
  8
0
  6
Continuous
 62
     7
370
    25
100
AcDbCircle
 10
111.125
 20
-180.975
 30
0.0
 40
3.174999999999983
100
AcDbArc
 50
270.0
 51
0.0
  0
LINE
  5
A1
330
1F
100
AcDbEntity
  8
0
  6
Continuous
 62
     7
370
    25
100
AcDbLine
 10
114.3
 20
-180.975
 30
0.0
 11
114.3
 21
180.975
 31
0.0
  0
CIRCLE
  5
A2
330
1F
100
AcDbEntity
  8
0
  6
Continuous
 62
     7
370
    25
100
AcDbCircle
 10
53.5178
 20
-0.0642908418
 30
0.0
 40
24.72700000000002
  0
CIRCLE
  5
A3
330
1F
100
AcDbEntity
  8
0
  6
Continuous
 62
     7
370
    25
100
AcDbCircle
 10
-53.5178
 20
119.38
 30
0.0
 40
24.72699999999999
  0
CIRCLE
  5
A4
330
1F
100
AcDbEntity
  8
0
  6
Continuous
 62
     7
370
    25
100
AcDbCircle
 10
-53.5178
 20
0.0642908418
 30
0.0
 40
28.76928198007538
  0
CIRCLE
  5
A5
330
1F
100
AcDbEntity
  8
0
  6
Continuous
 62
     7
370
    25
100
AcDbCircle
 10
0.0
 20
-165.1
 30
0.0
 40
6.349999999999994
  0
CIRCLE
  5
A6
330
1F
100
AcDbEntity
  8
0
  6
Continuous
 62
     7
370
    25
100
AcDbCircle
 10
-80.01
 20
-55.0291
 30
0.0
 40
6.349999999999994
  0
CIRCLE
  5
A7
330
1F
100
AcDbEntity
  8
0
  6
Continuous
 62
     7
370
    25
100
AcDbCircle
 10
0.0
 20
55.0333333333
 30
0.0
 40
6.350000000000001
  0
CIRCLE
  5
A8
330
1F
100
AcDbEntity
  8
0
  6
Continuous
 62
     7
370
    25
100
AcDbCircle
 10
0.0
 20
171.45
 30
0.0
 40
6.349999999999994
  0
LINE
  5
A9
330
1F
100
AcDbEntity
  8
0
  6
Continuous
 62
     7
370
    25
100
AcDbLine
 10
-24.6822143555
 20
-180.0571329753
 30
0.0
 11
-24.6822143555
 21
-174.15
 31
0.0
  0
LINE
  5
AA
330
1F
100
AcDbEntity
  8
0
  6
Continuous
 62
     7
370
    25
100
AcDbLine
 10
-24.6822143555
 20
-174.15
 30
0.0
 11
-23.7404975043
 21
-174.15
 31
0.0
  0
LINE
  5
AB
330
1F
100
AcDbEntity
  8
0
  6
Continuous
 62
     7
370
    25
100
AcDbLine
 10
-23.7404975043
 20
-174.15
 30
0.0
 11
-23.7404975043
 21
-180.0571329753
 31
0.0
  0
LINE
  5
AC
330
1F
100
AcDbEntity
  8
0
  6
Continuous
 62
     7
370
    25
100
AcDbLine
 10
-23.7404975043
 20
-180.0571329753
 30
0.0
 11
-21.6002319336
 21
-180.0571329753
 31
0.0
  0
LINE
  5
AD
330
1F
100
AcDbEntity
  8
0
  6
Continuous
 62
     7
370
    25
100
AcDbLine
 10
-21.6002319336
 20
-180.0571329753
 30
0.0
 11
-21.6002319336
 21
-180.8276285807
 31
0.0
  0
LINE
  5
AE
330
1F
100
AcDbEntity
  8
0
  6
Continuous
 62
     7
370
    25
100
AcDbLine
 10
-21.6002319336
 20
-180.8276285807
 30
0.0
 11
-26.8224799262
 21
-180.8276285807
 31
0.0
  0
LINE
  5
AF
330
1F
100
AcDbEntity
  8
0
  6
Continuous
 62
     7
370
    25
100
AcDbLine
 10
-26.8224799262
 20
-180.8276285807
 30
0.0
 11
-26.8224799262
 21
-180.0571329753
 31
0.0
  0
LINE
  5
B0
330
1F
100
AcDbEntity
  8
0
  6
Continuous
 62
     7
370
    25
100
AcDbLine
 10
-26.8224799262
 20
-180.0571329753
 30
0.0
 11
-24.6822143555
 21
-180.0571329753
 31
0.0
  0
SPLINE
  5
B1
330
1F
100
AcDbEntity
  8
0
  6
Continuous
 62
     7
370
    25
100
AcDbSpline
210
0.0
220
0.0
230
1.0
 70
     8
 71
     3
 72
    23
 73
    19
 74
     0
 42
0.000000001
 43
0.00000001
 40
0.0
 40
0.0
 40
0.0
 40
0.0
 40
0.0694744696082642
 40
0.1341481695616736
 40
0.194025450312318
 40
0.2498055700837765
 40
0.3026442359404424
 40
0.3522865500223075
 40
0.3997954814829288
 40
0.4462125465245892
 40
0.4943140499230354
 40
0.5465949866419653
 40
0.6047820771213891
 40
0.6694016956884096
 40
0.7409058976065585
 40
0.8198431570261241
 40
0.9059751296180065
 40
1.0
 40
1.0
 40
1.0
 40
1.0
 10
-17.94706613752577
 20
-174.9204956054687
 30
0.0
 10
-18.02023042458053
 20
-174.9217399684408
 30
0.0
 10
-18.16150325819871
 20
-174.9241427074025
 30
0.0
 10
-18.36520988577205
 20
-174.9435541537348
 30
0.0
 10
-18.55197722220141
 20
-174.9788591266378
 30
0.0
 10
-18.72367992069008
 20
-175.0247127459473
 30
0.0
 10
-18.87893292014638
 20
-175.0861972273234
 30
0.0
 10
-19.01885125910879
 20
-175.1606556604677
 30
0.0
 10
-19.13973443601085
 20
-175.2521531138864
 30
0.0
 10
-19.24911174066117
 20
-175.3548622615072
 30
0.0
 10
-19.34147620245004
 20
-175.4798953004745
 30
0.0
 10
-19.41865977419825
 20
-175.6284835686576
 30
0.0
 10
-19.48522402303506
 20
-175.8007497152591
 30
0.0
 10
-19.53973443041345
 20
-175.9983311296863
 30
0.0
 10
-19.57954233311837
 20
-176.2214665315865
 30
0.0
 10
-19.61064114911991
 20
-176.4687610785078
 30
0.0
 10
-19.62695259071943
 20
-176.741288823739
 30
0.0
 10
-19.62973529794377
 20
-176.9309891766834
 30
0.0
 10
-19.63118760850694
 20
-177.0299948586358
 30
0.0
  0
LINE
  5
B2
330
1F
100
AcDbEntity
  8
0
  6
Continuous
 62
     7
370
    25
100
AcDbLine
 10
-19.6311876085
 20
-177.0299948586
 30
0.0
 11
-19.6311876085
 21
-180.8276285807
 31
0.0
  0
LINE
  5
B3
330
1F
100
AcDbEntity
  8
0
  6
Continuous
 62
     7
370
    25
100
AcDbLine
 10
-19.6311876085
 20
-180.8276285807
 30
0.0
 11
-20.5729044596
 21
-180.8276285807
 31
0.0
  0
LINE
  5
B4
330
1F
100
AcDbEntity
  8
0
  6
Continuous
 62
     7
370
    25
100
AcDbLine
 10
-20.5729044596
 20
-180.8276285807
 30
0.0
 11
-20.5729044596
 21
-176.9858518812
 31
0.0
  0
SPLINE
  5
B5
330
1F
100
AcDbEntity
  8
0
  6
Continuous
 62
     7
370
    25
100
AcDbSpline
210
0.0
220
0.0
230
1.0
 70
     8
 71
     3
 72
    31
 73
    27
 74
     0
 42
0.000000001
 43
0.00000001
 40
0.0
 40
0.0
 40
0.0
 40
0.0
 40
0.0546407144744602
 40
0.1063309198846489
 40
0.1551479539521619
 40
0.2014721740885494
 40
0.2447125012190166
 40
0.2858735626700151
 40
0.324259277154982
 40
0.3605122850116968
 40
0.3955577268013065
 40
0.4300132653777967
 40
0.4647944888610812
 40
0.4994884769164741
 40
0.534572046124567
 40
0.5704816968023759
 40
0.6070358491176588
 40
0.6447988867778934
 40
0.6837172652645624
 40
0.7235221312955686
 40
0.7648937753014267
 40
0.8079937113888152
 40
0.8527841206740419
 40
0.8995220778459624
 40
0.9486367156944022
 40
1.0
 40
1.0
 40
1.0
 40
1.0
 10
-20.57290445963542
 20
-176.9858518812391
 30
0.0
 10
-20.57192501049353
 20
-176.9042478034521
 30
0.0
 10
-20.5700190008588
 20
-176.7454461343874
 30
0.0
 10
-20.56129993384182
 20
-176.5138448261118
 30
0.0
 10
-20.54415201998086
 20
-176.2951385524036
 30
0.0
 10
-20.51847334772811
 20
-176.090000394575
 30
0.0
 10
-20.48778482161302
 20
-175.8971601870562
 30
0.0
 10
-20.4515296818773
 20
-175.7172692162586
 30
0.0
 10
-20.40532910629059
 20
-175.5504878897831
 30
0.0
 10
-20.35347136278264
 20
-175.39498543679
 30
0.0
 10
-20.29171925610089
 20
-175.249391707209
 30
0.0
 10
-20.21869654495474
 20
-175.1116183468002
 30
0.0
 10
-20.13477149892441
 20
-174.9808001829836
 30
0.0
 10
-20.03899796775913
 20
-174.8572251428995
 30
0.0
 10
-19.93289809219955
 20
-174.7401427041667
 30
0.0
 10
-19.815223272096
 20
-174.6304789731807
 30
0.0
 10
-19.68544541010731
 20
-174.528992676697
 30
0.0
 10
-19.54685502476
 20
-174.4318472552183
 30
0.0
 10
-19.39580243911875
 20
-174.3449692485264
 30
0.0
 10
-19.23262014308936
 20
-174.2700318873378
 30
0.0
 10
-19.0583551790352
 20
-174.2055745424304
 30
0.0
 10
-18.87215902136028
 20
-174.1537548172742
 30
0.0
 10
-18.67488618211426
 20
-174.1141528699584
 30
0.0
 10
-18.46682238988062
 20
-174.0845406449398
 30
0.0
 10
-18.24745312576684
 20
-174.0670367474354
 30
0.0
 10
-18.09736253744038
 20
-174.0652849024018
 30
0.0
 10
-18.02063776652018
 20
-174.0643893771701
 30
0.0
  0
SPLINE
  5
B6
330
1F
100
AcDbEntity
  8
0
  6
Continuous
 62
     7
370
    25
100
AcDbSpline
210
0.0
220
0.0
230
1.0
 70
     8
 71
     3
 72
    31
 73
    27
 74
     0
 42
0.000000001
 43
0.00000001
 40
0.0
 40
0.0
 40
0.0
 40
0.0
 40
0.0497116207271325
 40
0.0968592144113366
 40
0.1421735749316028
 40
0.1857513898244722
 40
0.2272209046200691
 40
0.267071972318327
 40
0.3056896236221021
 40
0.3429968028044797
 40
0.3793728775008134
 40
0.4149990750568781
 40
0.4498127975379231
 40
0.4845384316589771
 40
0.5190060671099208
 40
0.553712796066275
 40
0.5890838528036977
 40
0.6250972698190534
 40
0.6626289535791581
 40
0.7026946408782566
 40
0.745177332626791
 40
0.7902117778847624
 40
0.8382420175970767
 40
0.8892910979867624
 40
0.9431958830362389
 40
1.0
 40
1.0
 40
1.0
 40
1.0
 10
-18.02063776652018
 20
-174.0643893771701
 30
0.0
 10
-17.94570718359985
 20
-174.0654920149733
 30
0.0
 10
-17.79971078897645
 20
-174.0676404187033
 30
0.0
 10
-17.58576770068736
 20
-174.0821769934706
 30
0.0
 10
-17.38225407833544
 20
-174.1079125406224
 30
0.0
 10
-17.18858655783509
 20
-174.1417668554449
 30
0.0
 10
-17.00571896548422
 20
-174.1872630963929
 30
0.0
 10
-16.83386980370545
 20
-174.2438685075904
 30
0.0
 10
-16.67191921647036
 20
-174.3091572227754
 30
0.0
 10
-16.51967043311571
 20
-174.3837000793113
 30
0.0
 10
-16.37939606338891
 20
-174.470427823075
 30
0.0
 10
-16.24748194032754
 20
-174.5630512811585
 30
0.0
 10
-16.12783033848083
 20
-174.6674242857628
 30
0.0
 10
-16.01813753566634
 20
-174.7796147627174
 30
0.0
 10
-15.91823972407718
 20
-174.9005448156423
 30
0.0
 10
-15.83009427041827
 20
-175.0313677303803
 30
0.0
 10
-15.75028530902501
 20
-175.1702072970653
 30
0.0
 10
-15.68404504934319
 20
-175.3206516168936
 30
0.0
 10
-15.62424082033242
 20
-175.4812244299706
 30
0.0
 10
-15.57411949818294
 20
-175.6553021442774
 30
0.0
 10
-15.53132221062192
 20
-175.8428849579068
 30
0.0
 10
-15.49728042202477
 20
-176.0444059857794
 30
0.0
 10
-15.46839197369448
 20
-176.2597867526614
 30
0.0
 10
-15.45119029993949
 20
-176.4898122199863
 30
0.0
 10
-15.43826382582959
 20
-176.7333322513249
 30
0.0
 10
-15.43694418840706
 20
-176.9002217930174
 30
0.0
 10
-15.43626708984375
 20
-176.9858518812391
 30
0.0
  0
LINE
  5
B7
330
1F
100
AcDbEntity
  8
0
  6
Continuous
 62
     7
370
    25
100
AcDbLine
 10
-15.4362670898
 20
-176.9858518812
 30
0.0
 11
-15.4362670898
 21
-180.8276285807
 31
0.0
  0
LINE
  5
B8
330
1F
100
AcDbEntity
  8
0
  6
Continuous
 62
     7
370
    25
100
AcDbLine
 10
-15.4362670898
 20
-180.8276285807
 30
0.0
 11
-16.377983941
 21
-180.8276285807
 31
0.0
  0
LINE
  5
B9
330
1F
100
AcDbEntity
  8
0
  6
Continuous
 62
     7
370
    25
100
AcDbLine
 10
-16.377983941
 20
-180.8276285807
 30
0.0
 11
-16.377983941
 21
-177.0299948586
 31
0.0
  0
SPLINE
  5
BA
330
1F
100
AcDbEntity
  8
0
  6
Continuous
 62
     7
370
    25
100
AcDbSpline
210
0.0
220
0.0
230
1.0
 70
     8
 71
     3
 72
    23
 73
    19
 74
     0
 42
0.000000001
 43
0.00000001
 40
0.0
 40
0.0
 40
0.0
 40
0.0
 40
0.0681523875531081
 40
0.131501036995341
 40
0.1905477027371742
 40
0.2453197639237759
 40
0.295061187567313
 40
0.3407600630993586
 40
0.3824532913135621
 40
0.4198550920819367
 40
0.4892845918911724
 40
0.5563548658519837
 40
0.6235057877707589
 40
0.6921963570884206
 40
0.7633731558925759
 40
0.8373400075978019
 40
0.9159106466220606
 40
0.9999999999999999
 40
0.9999999999999999
 40
0.9999999999999999
 40
0.9999999999999999
 10
-16.37798394097222
 20
-177.0299948586357
 30
0.0
 10
-16.37859998877839
 20
-176.9608788570885
 30
0.0
 10
-16.37978866210678
 20
-176.8275185126788
 30
0.0
 10
-16.38597354362414
 20
-176.6343293822864
 30
0.0
 10
-16.39839430776318
 20
-176.4550571076183
 30
0.0
 10
-16.41355927728931
 20
-176.2898408364502
 30
0.0
 10
-16.43488042512772
 20
-176.1389220173269
 30
0.0
 10
-16.46168221533462
 20
-176.0023911934895
 30
0.0
 10
-16.49197065873468
 20
-175.8794577658954
 30
0.0
 10
-16.53713291362286
 20
-175.7355722573177
 30
0.0
 10
-16.61319995493525
 20
-175.5755829068843
 30
0.0
 10
-16.72841396070824
 20
-175.4028690899866
 30
0.0
 10
-16.8761138943783
 20
-175.2578360742177
 30
0.0
 10
-17.04724502917413
 20
-175.1348233082441
 30
0.0
 10
-17.24280350121406
 20
-175.0388823573122
 30
0.0
 10
-17.45934634088978
 20
-174.9690451073393
 30
0.0
 10
-17.69665150960801
 20
-174.927224185884
 30
0.0
 10
-17.8617276979388
 20
-174.922788628676
 30
0.0
 10
-17.94706613752577
 20
-174.9204956054687
 30
0.0
  0
LINE
  5
BB
330
1F
100
AcDbEntity
  8
0
  6
Continuous
 62
     7
370
    25
100
AcDbLine
 10
12.3871853299
 20
-177.146371799
 30
0.0
 11
12.3871853299
 21
-174.15
 31
0.0
  0
LINE
  5
BC
330
1F
100
AcDbEntity
  8
0
  6
Continuous
 62
     7
370
    25
100
AcDbLine
 10
12.3871853299
 20
-174.15
 30
0.0
 11
13.328902181
 21
-174.15
 31
0.0
  0
LINE
  5
BD
330
1F
100
AcDbEntity
  8
0
  6
Continuous
 62
     7
370
    25
100
AcDbLine
 10
13.328902181
 20
-174.15
 30
0.0
 11
13.328902181
 21
-180.8276285807
 31
0.0
  0
LINE
  5
BE
330
1F
100
AcDbEntity
  8
0
  6
Continuous
 62
     7
370
    25
100
AcDbLine
 10
13.328902181
 20
-180.8276285807
 30
0.0
 11
10.4315176646
 21
-180.8276285807
 31
0.0
  0
SPLINE
  5
BF
330
1F
100
AcDbEntity
  8
0
  6
Continuous
 62
     7
370
    25
100
AcDbSpline
210
0.0
220
0.0
230
1.0
 70
     8
 71
     3
 72
    27
 73
    23
 74
     0
 42
0.000000001
 43
0.00000001
 40
0.0
 40
0.0
 40
0.0
 40
0.0
 40
0.0621037847913073
 40
0.1201946065074408
 40
0.1743599492228165
 40
0.2250078830566554
 40
0.2723159650400798
 40
0.3163395597264798
 40
0.3568150324191085
 40
0.393918520275055
 40
0.4295244282576463
 40
0.4646130316301391
 40
0.4999612336346006
 40
0.5354025186231431
 40
0.5715684610701065
 40
0.6081082509152295
 40
0.6455300397442337
 40
0.6843794722622714
 40
0.7626128937075287
 40
0.8405203125718235
 40
0.9190846743554598
 40
0.9999999999999999
 40
0.9999999999999999
 40
0.9999999999999999
 40
0.9999999999999999
 10
10.43151766459147
 20
-180.8276285807291
 30
0.0
 10
10.36329280599435
 20
-180.8270965462936
 30
0.0
 10
10.23125157757868
 20
-180.826066855916
 30
0.0
 10
10.03976983024582
 20
-180.818708934944
 30
0.0
 10
9.86146311744641
 20
-180.8030770267307
 30
0.0
 10
9.695207674115762
 20
-180.7856180969681
 30
0.0
 10
9.541287988206255
 20
-180.7598396460905
 30
0.0
 10
9.399630705355735
 20
-180.7295968734438
 30
0.0
 10
9.270779113501904
 20
-180.6938534332181
 30
0.0
 10
9.15375279276603
 20
-180.651603204259
 30
0.0
 10
9.045169062491778
 20
-180.6038190622367
 30
0.0
 10
8.944548789129676
 20
-180.5448285728822
 30
0.0
 10
8.847571534715826
 20
-180.4802989130475
 30
0.0
 10
8.758103026950073
 20
-180.4038547880426
 30
0.0
 10
8.67211363517332
 20
-180.321723840041
 30
0.0
 10
8.593203481802803
 20
-180.22979662374
 30
0.0
 10
8.519037225475222
 20
-180.1303739925484
 30
0.0
 10
8.428860855288402
 20
-179.9864001852506
 30
0.0
 10
8.334151114175278
 20
-179.7934135533511
 30
0.0
 10
8.252576009119746
 20
-179.5482260016413
 30
0.0
 10
8.200705013610847
 20
-179.2914851903816
 30
0.0
 10
8.195105725899179
 20
-179.1161102706313
 30
0.0
 10
8.192264811197917
 20
-179.0271301693386
 30
0.0
  0
SPLINE
  5
C0
330
1F
100
AcDbEntity
  8
0
  6
Continuous
 62
     7
370
    25
100
AcDbSpline
210
0.0
220
0.0
230
1.0
 70
     8
 71
     3
 72
    23
 73
    19
 74
     0
 42
0.000000001
 43
0.00000001
 40
0.0
 40
0.0
 40
0.0
 40
0.0
 40
0.0614153619466938
 40
0.1212995515295261
 40
0.1792307330403319
 40
0.235946902696358
 40
0.2922277422078026
 40
0.3482096381939319
 40
0.4044598375581931
 40
0.4620427821046845
 40
0.520693633215465
 40
0.5803701846851843
 40
0.6422200441272157
 40
0.70655285406908
 40
0.7743053019200299
 40
0.8452659380071893
 40
0.9206237685683574
 40
1.0
 40
1.0
 40
1.0
 40
1.0
 10
8.192264811197917
 20
-179.0271301693386
 30
0.0
 10
8.193571516869737
 20
-178.9700086719125
 30
0.0
 10
8.196152350181608
 20
-178.8571897972716
 30
0.0
 10
8.215921504556224
 20
-178.691315670108
 30
0.0
 10
8.251692958343321
 20
-178.5328303116527
 30
0.0
 10
8.297560289271466
 20
-178.380342459511
 30
0.0
 10
8.360348031975938
 20
-178.2360245721831
 30
0.0
 10
8.433051662443962
 20
-178.0968844527916
 30
0.0
 10
8.523248176066634
 20
-177.9669100712975
 30
0.0
 10
8.623957418410905
 20
-177.8417575559203
 30
0.0
 10
8.741064037864604
 20
-177.7270748025388
 30
0.0
 10
8.871326310886591
 20
-177.6210803468657
 30
0.0
 10
9.01866044761618
 20
-177.5301192830563
 30
0.0
 10
9.178234155908399
 20
-177.4455869666599
 30
0.0
 10
9.354159906079785
 20
-177.3761639294803
 30
0.0
 10
9.543784570152555
 20
-177.3150346950375
 30
0.0
 10
9.748575737739726
 20
-177.2679023299899
 30
0.0
 10
9.890519546069017
 20
-177.244161241088
 30
0.0
 10
9.96333457099067
 20
-177.2319824218749
 30
0.0
  0
SPLINE
  5
C1
330
1F
100
AcDbEntity
  8
0
  6
Continuous
 62
     7
370
    25
100
AcDbSpline
210
0.0
220
0.0
230
1.0
 70
     8
 71
     3
 72
    11
 73
     7
 74
     0
 42
0.000000001
 43
0.00000001
 40
0.0
 40
0.0
 40
0.0
 40
0.0
 40
0.2931378033625437
 40
0.5559096193872229
 40
0.7918699011047496
 40
1.0
 40
1.0
 40
1.0
 40
1.0
 10
9.96333457099067
 20
-177.2319824218749
 30
0.0
 10
9.909404211681537
 20
-177.2051006342754
 30
0.0
 10
9.80713010996877
 20
-177.154121728991
 30
0.0
 10
9.667956951753492
 20
-177.0697733881877
 30
0.0
 10
9.5460350758526
 20
-176.9903666431014
 30
0.0
 10
9.476778417045196
 20
-176.9308227796057
 30
0.0
 10
9.444320170084637
 20
-176.9029165903727
 30
0.0
  0
SPLINE
  5
C2
330
1F
100
AcDbEntity
  8
0
  6
Continuous
 62
     7
370
    25
100
AcDbSpline
210
0.0
220
0.0
230
1.0
 70
     8
 71
     3
 72
    11
 73
     7
 74
     0
 42
0.000000001
 43
0.00000001
 40
0.0
 40
0.0
 40
0.0
 40
0.0
 40
0.2295426438440566
 40
0.4707541631011882
 40
0.7281684972329652
 40
1.0
 40
1.0
 40
1.0
 40
1.0
 10
9.444320170084637
 20
-176.9029165903727
 30
0.0
 10
9.381132019276507
 20
-176.8411641565973
 30
0.0
 10
9.251543527336842
 20
-176.7145200838683
 30
0.0
 10
9.074703105013931
 20
-176.4968076357962
 30
0.0
 10
8.899721615167355
 20
-176.2573862536728
 30
0.0
 10
8.794666382912304
 20
-176.0829154839497
 30
0.0
 10
8.740707863701715
 20
-175.9933037228054
 30
0.0
  0
LINE
  5
C3
330
1F
100
AcDbEntity
  8
0
  6
Continuous
 62
     7
370
    25
100
AcDbLine
 10
8.7407078637
 20
-175.9933037228
 30
0.0
 11
7.6451594247
 21
-174.15
 31
0.0
  0
LINE
  5
C4
330
1F
100
AcDbEntity
  8
0
  6
Continuous
 62
     7
370
    25
100
AcDbLine
 10
7.6451594247
 20
-174.15
 30
0.0
 11
8.7246558719
 21
-174.15
 31
0.0
  0
LINE
  5
C5
330
1F
100
AcDbEntity
  8
0
  6
Continuous
 62
     7
370
    25
100
AcDbLine
 10
8.7246558719
 20
-174.15
 30
0.0
 11
9.5566841125
 21
-175.5598999447
 31
0.0
  0
SPLINE
  5
C6
330
1F
100
AcDbEntity
  8
0
  6
Continuous
 62
     7
370
    25
100
AcDbSpline
210
0.0
220
0.0
230
1.0
 70
     8
 71
     3
 72
    21
 73
    17
 74
     0
 42
0.000000001
 43
0.00000001
 40
0.0
 40
0.0
 40
0.0
 40
0.0
 40
0.080756520239459
 40
0.1564928761205781
 40
0.2278645863309013
 40
0.2942194159581892
 40
0.3567576405439948
 40
0.4148044898400783
 40
0.4680257207328376
 40
0.516756676591472
 40
0.6042176202059588
 40
0.6814453118756378
 40
0.747951983416878
 40
0.8047659882074069
 40
0.9054352660002646
 40
1.0
 40
1.0
 40
1.0
 40
1.0
 10
9.55668411254883
 20
-175.5598999447292
 30
0.0
 10
9.586601500830518
 20
-175.6093667509787
 30
0.0
 10
9.644576486928667
 20
-175.7052252991124
 30
0.0
 10
9.72828926741264
 20
-175.8452422479585
 30
0.0
 10
9.810477345500336
 20
-175.9740771214881
 30
0.0
 10
9.88633498828114
 20
-176.0957405599208
 30
0.0
 10
9.96067297423493
 20
-176.2070240496945
 30
0.0
 10
10.02731200499697
 20
-176.312139162426
 30
0.0
 10
10.0942349732439
 20
-176.405131078019
 30
0.0
 10
10.17107739285514
 20
-176.516850282715
 30
0.0
 10
10.26492114439015
 20
-176.6376389483175
 30
0.0
 10
10.37443016696028
 20
-176.7617240395984
 30
0.0
 10
10.47511642710876
 20
-176.8645106193573
 30
0.0
 10
10.60234921524287
 20
-176.9625826805311
 30
0.0
 10
10.76055651587052
 20
-177.0523772291218
 30
0.0
 10
10.89394783185701
 20
-177.0949733602057
 30
0.0
 10
10.95855806138781
 20
-177.1156054814656
 30
0.0
  0
SPLINE
  5
C7
330
1F
100
AcDbEntity
  8
0
  6
Continuous
 62
     7
370
    25
100
AcDbSpline
210
0.0
220
0.0
230
1.0
 70
     8
 71
     3
 72
    11
 73
     7
 74
     0
 42
0.000000001
 43
0.00000001
 40
0.0
 40
0.0
 40
0.0
 40
0.0
 40
0.1774946570818447
 40
0.4052256231013749
 40
0.6783881083348581
 40
1.0
 40
1.0
 40
1.0
 40
1.0
 10
10.95855806138781
 20
-177.1156054814656
 30
0.0
 10
10.98570069850626
 20
-177.1205002214105
 30
0.0
 10
11.04766815273711
 20
-177.1316750594405
 30
0.0
 10
11.15288873538976
 20
-177.1389733639743
 30
0.0
 10
11.28037637991165
 20
-177.1467195378194
 30
0.0
 10
11.37276884851191
 20
-177.1464938402943
 30
0.0
 10
11.42272815704346
 20
-177.1463717990451
 30
0.0
  0
LINE
  5
C8
330
1F
100
AcDbEntity
  8
0
  6
Continuous
 62
     7
370
    25
100
AcDbLine
 10
11.422728157
 20
-177.146371799
 30
0.0
 11
12.3871853299
 21
-177.146371799
 31
0.0
  0
LINE
  5
C9
330
1F
100
AcDbEntity
  8
0
  6
Continuous
 62
     7
370
    25
100
AcDbLine
 10
14.8698933919
 20
-180.8276285807
 30
0.0
 11
14.8698933919
 21
-174.15
 31
0.0
  0
LINE
  5
CA
330
1F
100
AcDbEntity
  8
0
  6
Continuous
 62
     7
370
    25
100
AcDbLine
 10
14.8698933919
 20
-174.15
 30
0.0
 11
15.8116102431
 21
-174.15
 31
0.0
  0
LINE
  5
CB
330
1F
100
AcDbEntity
  8
0
  6
Continuous
 62
     7
370
    25
100
AcDbLine
 10
15.8116102431
 20
-174.15
 30
0.0
 11
15.8116102431
 21
-180.8276285807
 31
0.0
  0
LINE
  5
CC
330
1F
100
AcDbEntity
  8
0
  6
Continuous
 62
     7
370
    25
100
AcDbLine
 10
15.8116102431
 20
-180.8276285807
 30
0.0
 11
14.8698933919
 21
-180.8276285807
 31
0.0
  0
LINE
  5
CD
330
1F
100
AcDbEntity
  8
0
  6
Continuous
 62
     7
370
    25
100
AcDbLine
 10
21.0726505491
 20
-179.1461824417
 30
0.0
 11
22.5186674754
 21
-174.15
 31
0.0
  0
LINE
  5
CE
330
1F
100
AcDbEntity
  8
0
  6
Continuous
 62
     7
370
    25
100
AcDbLine
 10
22.5186674754
 20
-174.15
 30
0.0
 11
23.6329432382
 21
-174.15
 31
0.0
  0
LINE
  5
CF
330
1F
100
AcDbEntity
  8
0
  6
Continuous
 62
     7
370
    25
100
AcDbLine
 10
23.6329432382
 20
-174.15
 30
0.0
 11
25.3143893772
 21
-180.8276285807
 31
0.0
  0
LINE
  5
D0
330
1F
100
AcDbEntity
  8
0
  6
Continuous
 62
     7
370
    25
100
AcDbLine
 10
25.3143893772
 20
-180.8276285807
 30
0.0
 11
24.3419062085
 21
-180.8276285807
 31
0.0
  0
LINE
  5
D1
330
1F
100
AcDbEntity
  8
0
  6
Continuous
 62
     7
370
    25
100
AcDbLine
 10
24.3419062085
 20
-180.8276285807
 30
0.0
 11
23.350695716
 21
-176.4360711628
 31
0.0
  0
SPLINE
  5
D2
330
1F
100
AcDbEntity
  8
0
  6
Continuous
 62
     7
370
    25
100
AcDbSpline
210
0.0
220
0.0
230
1.0
 70
     8
 71
     3
 72
     9
 73
     5
 74
     0
 42
0.000000001
 43
0.00000001
 40
0.0
 40
0.0
 40
0.0
 40
0.0
 40
0.5025653899218117
 40
1.0
 40
1.0
 40
1.0
 40
1.0
 10
23.3506957160102
 20
-176.4360711627536
 30
0.0
 10
23.29932502331275
 20
-176.2095808080853
 30
0.0
 10
23.19710809049641
 20
-175.7589123792396
 30
0.0
 10
23.09600169339658
 20
-175.3079935080869
 30
0.0
 10
23.04570787217881
 20
-175.0836908552381
 30
0.0
  0
SPLINE
  5
D3
330
1F
100
AcDbEntity
  8
0
  6
Continuous
 62
     7
370
    25
100
AcDbSpline
210
0.0
220
0.0
230
1.0
 70
     8
 71
     3
 72
    15
 73
    11
 74
     0
 42
0.000000001
 43
0.00000001
 40
0.0
 40
0.0
 40
0.0
 40
0.0
 40
0.2042261540779185
 40
0.3855417648063131
 40
0.5445479239626312
 40
0.6809444004243677
 40
0.7947315708215043
 40
0.8862118064819426
 40
0.9537405078414527
 40
1.0
 40
1.0
 40
1.0
 40
1.0
 10
23.04570787217881
 20
-175.0836908552381
 30
0.0
 10
23.02189532588199
 20
-175.1643445377121
 30
0.0
 10
22.97694157759612
 20
-175.3166039935077
 30
0.0
 10
22.91617282176086
 20
-175.5324464443513
 30
0.0
 10
22.86097850796779
 20
-175.720827734
 30
0.0
 10
22.81395578531703
 20
-175.8826260674708
 30
0.0
 10
22.7758816683023
 20
-176.0180687621406
 30
0.0
 10
22.7430089083787
 20
-176.1254915045826
 30
0.0
 10
22.72060324579575
 20
-176.206997982945
 30
0.0
 10
22.70732560971387
 20
-176.251932774912
 30
0.0
 10
22.70192771487766
 20
-176.2702005810208
 30
0.0
  0
LINE
  5
D4
330
1F
100
AcDbEntity
  8
0
  6
Continuous
 62
     7
370
    25
100
AcDbLine
 10
22.7019277149
 20
-176.270200581
 30
0.0
 11
21.3829890569
 21
-180.8276285807
 31
0.0
  0
LINE
  5
D5
330
1F
100
AcDbEntity
  8
0
  6
Continuous
 62
     7
370
    25
100
AcDbLine
 10
21.3829890569
 20
-180.8276285807
 30
0.0
 11
20.2499859704
 21
-180.8276285807
 31
0.0
  0
LINE
  5
D6
330
1F
100
AcDbEntity
  8
0
  6
Continuous
 62
     7
370
    25
100
AcDbLine
 10
20.2499859704
 20
-180.8276285807
 30
0.0
 11
19.2962301254
 21
-177.4821259605
 31
0.0
  0
SPLINE
  5
D7
330
1F
100
AcDbEntity
  8
0
  6
Continuous
 62
     7
370
    25
100
AcDbSpline
210
0.0
220
0.0
230
1.0
 70
     8
 71
     3
 72
    11
 73
     7
 74
     0
 42
0.000000001
 43
0.00000001
 40
0.0
 40
0.0
 40
0.0
 40
0.0
 40
0.2603861425240825
 40
0.5134251205046722
 40
0.759973621526005
 40
1.0
 40
1.0
 40
1.0
 40
1.0
 10
19.29623012542724
 20
-177.482125960456
 30
0.0
 10
19.24359608375727
 20
-177.2754539297374
 30
0.0
 10
19.13981314459971
 20
-176.8679414129496
 30
0.0
 10
19.00192075932574
 20
-176.2609364237584
 30
0.0
 10
18.87465049463921
 20
-175.6686574984951
 30
0.0
 10
18.80134043231917
 20
-175.2769294759659
 30
0.0
 10
18.76517673068576
 20
-175.0836908552381
 30
0.0
  0
SPLINE
  5
D8
330
1F
100
AcDbEntity
  8
0
  6
Continuous
 62
     7
370
    25
100
AcDbSpline
210
0.0
220
0.0
230
1.0
 70
     8
 71
     3
 72
    11
 73
     7
 74
     0
 42
0.000000001
 43
0.00000001
 40
0.0
 40
0.0
 40
0.0
 40
0.0
 40
0.2146091143448087
 40
0.4533589181037914
 40
0.7146093161750852
 40
1.0
 40
1.0
 40
1.0
 40
1.0
 10
18.76517673068576
 20
-175.0836908552381
 30
0.0
 10
18.74279619394352
 20
-175.1822128762051
 30
0.0
 10
18.69551760582287
 20
-175.3903393435798
 30
0.0
 10
18.62281150058921
 20
-175.718808574424
 30
0.0
 10
18.54029314117498
 20
-176.0792245538646
 30
0.0
 10
18.48414964895667
 20
-176.330369119941
 30
0.0
 10
18.45483822292751
 20
-176.4614868164062
 30
0.0
  0
LINE
  5
D9
330
1F
100
AcDbEntity
  8
0
  6
Continuous
 62
     7
370
    25
100
AcDbLine
 10
18.4548382229
 20
-176.4614868164
 30
0.0
 11
17.4689783944
 21
-180.8276285807
 31
0.0
  0
LINE
  5
DA
330
1F
100
AcDbEntity
  8
0
  6
Continuous
 62
     7
370
    25
100
AcDbLine
 10
17.4689783944
 20
-180.8276285807
 30
0.0
 11
16.4964952257
 21
-180.8276285807
 31
0.0
  0
LINE
  5
DB
330
1F
100
AcDbEntity
  8
0
  6
Continuous
 62
     7
370
    25
100
AcDbLine
 10
16.4964952257
 20
-180.8276285807
 30
0.0
 11
18.1792790307
 21
-174.15
 31
0.0
  0
LINE
  5
DC
330
1F
100
AcDbEntity
  8
0
  6
Continuous
 62
     7
370
    25
100
AcDbLine
 10
18.1792790307
 20
-174.15
 30
0.0
 11
19.2146325005
 21
-174.15
 31
0.0
  0
LINE
  5
DD
330
1F
100
AcDbEntity
  8
0
  6
Continuous
 62
     7
370
    25
100
AcDbLine
 10
19.2146325005
 20
-174.15
 30
0.0
 11
20.6098181195
 21
-179.2531957202
 31
0.0
  0
SPLINE
  5
DE
330
1F
100
AcDbEntity
  8
0
  6
Continuous
 62
     7
370
    25
100
AcDbSpline
210
0.0
220
0.0
230
1.0
 70
     8
 71
     3
 72
    15
 73
    11
 74
     0
 42
0.000000001
 43
0.00000001
 40
0.0
 40
0.0
 40
0.0
 40
0.0
 40
0.1952799535336409
 40
0.3709591958780741
 40
0.5263022405928001
 40
0.6620399845915411
 40
0.7769964217729867
 40
0.8711733101151212
 40
0.9457569341303442
 40
1.0
 40
1.0
 40
1.0
 40
1.0
 10
20.60981811947293
 20
-179.2531957202487
 30
0.0
 10
20.62382779282809
 20
-179.3030842012508
 30
0.0
 10
20.65044095546103
 20
-179.3978537383242
 30
0.0
 10
20.68532457863657
 20
-179.5330930798108
 30
0.0
 10
20.71991761482008
 20
-179.6520305163596
 30
0.0
 10
20.74743296404264
 20
-179.7562031193054
 30
0.0
 10
20.7712451950018
 20
-179.8445611525551
 30
0.0
 10
20.79233194408038
 20
-179.9168459187551
 30
0.0
 10
20.805894374094
 20
-179.9744721461161
 30
0.0
 10
20.81570209355229
 20
-180.0072251795212
 30
0.0
 10
20.81983167860243
 20
-180.021015993754
 30
0.0
  0
SPLINE
  5
DF
330
1F
100
AcDbEntity
  8
0
  6
Continuous
 62
     7
370
    25
100
AcDbSpline
210
0.0
220
0.0
230
1.0
 70
     8
 71
     3
 72
    11
 73
     7
 74
     0
 42
0.000000001
 43
0.00000001
 40
0.0
 40
0.0
 40
0.0
 40
0.0
 40
0.299433006450163
 40
0.5671911788639327
 40
0.7996365311686587
 40
0.9999999999999999
 40
0.9999999999999999
 40
0.9999999999999999
 40
0.9999999999999999
 10
20.81983167860243
 20
-180.021015993754
 30
0.0
 10
20.84465729696987
 20
-179.9335801948064
 30
0.0
 10
20.89168241258685
 20
-179.7679577924269
 30
0.0
 10
20.96016678556272
 20
-179.5350919187534
 30
0.0
 10
21.01904617425078
 20
-179.3307520290668
 30
0.0
 10
21.05568777508221
 20
-179.204588350102
 30
0.0
 10
21.07265054914686
 20
-179.1461824417114
 30
0.0
  0
SPLINE
  5
E0
330
1F
100
AcDbEntity
  8
0
  6
Continuous
 62
     7
370
    25
100
AcDbSpline
210
0.0
220
0.0
230
1.0
 70
     8
 71
     3
 72
    31
 73
    27
 74
     0
 42
0.000000001
 43
0.00000001
 40
0.0
 40
0.0
 40
0.0
 40
0.0
 40
0.0508466776274402
 40
0.0997427809170242
 40
0.1474233302100598
 40
0.1940669363979499
 40
0.2391477013626628
 40
0.2833123073134259
 40
0.3265454360452032
 40
0.368900454355594
 40
0.4105320023339966
 40
0.4510067922871872
 40
0.490829194283508
 40
0.5302046750280807
 40
0.569114460564225
 40
0.6077519069652265
 40
0.6465903693423957
 40
0.6858458117594887
 40
0.7249612465918653
 40
0.7636719104855927
 40
0.8021977385530135
 40
0.8410893263554301
 40
0.8796610640654374
 40
0.9190784718625333
 40
0.959101834195223
 40
1.0
 40
1.0
 40
1.0
 40
1.0
 10
-13.29600151909722
 20
-177.4848012924194
 30
0.0
 10
-13.29543293601895
 20
-177.5508233555656
 30
0.0
 10
-13.2943175817804
 20
-177.6803347511447
 30
0.0
 10
-13.27954653824305
 20
-177.8712360247531
 30
0.0
 10
-13.2604938140523
 20
-178.0561991962347
 30
0.0
 10
-13.23148564461714
 20
-178.2349855016154
 30
0.0
 10
-13.19150905675861
 20
-178.406854887565
 30
0.0
 10
-13.14722059480087
 20
-178.5731145694089
 30
0.0
 10
-13.09184385816267
 20
-178.7323362420081
 30
0.0
 10
-13.02899555101084
 20
-178.8851282441166
 30
0.0
 10
-12.9587259693534
 20
-179.0307642735856
 30
0.0
 10
-12.87926675145903
 20
-179.1678070156565
 30
0.0
 10
-12.79230587020855
 20
-179.2967111843248
 30
0.0
 10
-12.69694246952844
 20
-179.4169013498068
 30
0.0
 10
-12.59558736367439
 20
-179.5300746969801
 30
0.0
 10
-12.48501404038221
 20
-179.6332890228847
 30
0.0
 10
-12.36704402353667
 20
-179.7285977351709
 30
0.0
 10
-12.24166255214839
 20
-179.8150258054409
 30
0.0
 10
-12.11088177633801
 20
-179.8927180429734
 30
0.0
 10
-11.97536542684665
 20
-179.9597213993187
 30
0.0
 10
-11.83554516784839
 20
-180.0165273977524
 30
0.0
 10
-11.69156475530378
 20
-180.0610395915
 30
0.0
 10
-11.54429050657667
 20
-180.0977888807738
 30
0.0
 10
-11.39336726330446
 20
-180.1250103374358
 30
0.0
 10
-11.23761244325032
 20
-180.1392817329319
 30
0.0
 10
-11.13257530788836
 20
-180.1415813563323
 30
0.0
 10
-11.07948898739285
 20
-180.1427435980902
 30
0.0
  0
SPLINE
  5
E1
330
1F
100
AcDbEntity
  8
0
  6
Continuous
 62
     7
370
    25
100
AcDbSpline
210
0.0
220
0.0
230
1.0
 70
     8
 71
     3
 72
    23
 73
    19
 74
     0
 42
0.000000001
 43
0.00000001
 40
0.0
 40
0.0
 40
0.0
 40
0.0
 40
0.0559436334681676
 40
0.1107124482152113
 40
0.1640549680455866
 40
0.216875097189043
 40
0.2695777362270478
 40
0.3232718778703179
 40
0.3775758794767937
 40
0.4334442719513406
 40
0.4909173070765999
 40
0.5506207536203442
 40
0.6131134137154781
 40
0.6798578844234522
 40
0.7513555212489336
 40
0.8282595659757472
 40
0.9107942346056846
 40
0.9999999999999999
 40
0.9999999999999999
 40
0.9999999999999999
 40
0.9999999999999999
 10
-11.07948898739285
 20
-180.1427435980902
 30
0.0
 10
-11.004461347781
 20
-180.1412283588538
 30
0.0
 10
-10.85598165223241
 20
-180.1382297004704
 30
0.0
 10
-10.63802315973423
 20
-180.1058256686245
 30
0.0
 10
-10.42765585701457
 20
-180.0570419950744
 30
0.0
 10
-10.22634735378455
 20
-179.9865764481779
 30
0.0
 10
-10.0318032520499
 20
-179.8981119972766
 30
0.0
 10
-9.84626235661553
 20
-179.7879703922821
 30
0.0
 10
-9.668543877477973
 20
-179.658461794047
 30
0.0
 10
-9.499403074781334
 20
-179.5101372722237
 30
0.0
 10
-9.34175820937601
 20
-179.3390198595796
 30
0.0
 10
-9.208411133170733
 20
-179.1374078907186
 30
0.0
 10
-9.096043602995382
 20
-178.9099681260923
 30
0.0
 10
-9.002212748882803
 20
-178.6573188962642
 30
0.0
 10
-8.930671150567752
 20
-178.3774914439892
 30
0.0
 10
-8.881226496297284
 20
-178.0716935781232
 30
0.0
 10
-8.850008278817722
 20
-177.7396019988444
 30
0.0
 10
-8.8462179251516
 20
-177.5093993405156
 30
0.0
 10
-8.844249131944444
 20
-177.3898270077175
 30
0.0
  0
SPLINE
  5
E2
330
1F
100
AcDbEntity
  8
0
  6
Continuous
 62
     7
370
    25
100
AcDbSpline
210
0.0
220
0.0
230
1.0
 70
     8
 71
     3
 72
    23
 73
    19
 74
     0
 42
0.000000001
 43
0.00000001
 40
0.0
 40
0.0
 40
0.0
 40
0.0
 40
0.0759760013778243
 40
0.1481478407297592
 40
0.2172337747939296
 40
0.2833431655068629
 40
0.3472548812513532
 40
0.4095240071566222
 40
0.4706594156981838
 40
0.5318312023373022
 40
0.5919914954774751
 40
0.650519001859518
 40
0.7075730075804298
 40
0.7641724617862142
 40
0.8211202236130726
 40
0.8791003552029322
 40
0.9384134163756574
 40
1.0
 40
1.0
 40
1.0
 40
1.0
 10
-8.844249131944444
 20
-177.3898270077175
 30
0.0
 10
-8.845691450987378
 20
-177.2934204013005
 30
0.0
 10
-8.848503871330365
 20
-177.1054343226211
 30
0.0
 10
-8.8807090518608
 20
-176.8313677116824
 30
0.0
 10
-8.929517803476289
 20
-176.5727454339952
 30
0.0
 10
-8.996992393461301
 20
-176.3289626953704
 30
0.0
 10
-9.087079200125004
 20
-176.1018116015084
 30
0.0
 10
-9.197220937510263
 20
-175.8908559546678
 30
0.0
 10
-9.326419919886327
 20
-175.6950986616063
 30
0.0
 10
-9.474608163795097
 20
-175.5167581726387
 30
0.0
 10
-9.637434381096858
 20
-175.3564953356239
 30
0.0
 10
-9.811433573341434
 20
-175.2164530439316
 30
0.0
 10
-9.99644409316493
 20
-175.0996766308754
 30
0.0
 10
-10.19001642773058
 20
-175.0021380218628
 30
0.0
 10
-10.39471709718787
 20
-174.9269848812374
 30
0.0
 10
-10.60956538939501
 20
-174.8738583431056
 30
0.0
 10
-10.83455708965916
 20
-174.8406972499855
 30
0.0
 10
-10.98796563044154
 20
-174.836846542654
 30
0.0
 10
-11.06611232757568
 20
-174.8348849826389
 30
0.0
  0
SPLINE
  5
E3
330
1F
100
AcDbEntity
  8
0
  6
Continuous
 62
     7
370
    25
100
AcDbSpline
210
0.0
220
0.0
230
1.0
 70
     8
 71
     3
 72
    23
 73
    19
 74
     0
 42
0.000000001
 43
0.00000001
 40
0.0
 40
0.0
 40
0.0
 40
0.0
 40
0.0610568331758602
 40
0.1195491072443123
 40
0.1768119204410533
 40
0.2329638143038585
 40
0.2885925718320205
 40
0.3446775085759287
 40
0.4016741513521853
 40
0.4605545907654066
 40
0.5204934420294792
 40
0.5812311564527335
 40
0.6434510088516426
 40
0.7078620323407415
 40
0.7753636743240291
 40
0.8464088438329611
 40
0.9211494057947004
 40
1.0
 40
1.0
 40
1.0
 40
1.0
 10
-11.06611232757568
 20
-174.8348849826388
 30
0.0
 10
-11.14558431822009
 20
-174.8368741395127
 30
0.0
 10
-11.30119025187705
 20
-174.8407689030645
 30
0.0
 10
-11.52956403624209
 20
-174.8733705769516
 30
0.0
 10
-11.7465447153914
 20
-174.9288735291434
 30
0.0
 10
-11.95428286516891
 20
-175.0027605584604
 30
0.0
 10
-12.14902311164903
 20
-175.102643126675
 30
0.0
 10
-12.33531862626803
 20
-175.2196054287792
 30
0.0
 10
-12.5080956818251
 20
-175.362528616013
 30
0.0
 10
-12.67157708765977
 20
-175.5230796071422
 30
0.0
 10
-12.81826371337588
 20
-175.705554814448
 30
0.0
 10
-12.94820786759364
 20
-175.9055550516904
 30
0.0
 10
-13.05449360734018
 20
-176.1255656999428
 30
0.0
 10
-13.14315496477553
 20
-176.3624226795291
 30
0.0
 10
-13.21270247010588
 20
-176.6176124048592
 30
0.0
 10
-13.2613226876916
 20
-176.8911326360061
 30
0.0
 10
-13.29130637914137
 20
-177.182262371723
 30
0.0
 10
-13.29440879930913
 20
-177.382171822331
 30
0.0
 10
-13.29600151909722
 20
-177.4848012924194
 30
0.0
  0
LINE
  5
E4
330
1F
100
AcDbEntity
  8
0
  6
Continuous
 62
     7
370
    25
100
AcDbLine
 10
10.3967383491
 20
-180.0571329753
 30
0.0
 11
12.3871853299
 21
-180.0571329753
 31
0.0
  0
LINE
  5
E5
330
1F
100
AcDbEntity
  8
0
  6
Continuous
 62
     7
370
    25
100
AcDbLine
 10
12.3871853299
 20
-180.0571329753
 30
0.0
 11
12.3871853299
 21
-177.9168674045
 31
0.0
  0
LINE
  5
E6
330
1F
100
AcDbEntity
  8
0
  6
Continuous
 62
     7
370
    25
100
AcDbLine
 10
12.3871853299
 20
-177.9168674045
 30
0.0
 11
10.5987259123
 21
-177.9168674045
 31
0.0
  0
SPLINE
  5
E7
330
1F
100
AcDbEntity
  8
0
  6
Continuous
 62
     7
370
    25
100
AcDbSpline
210
0.0
220
0.0
230
1.0
 70
     8
 71
     3
 72
    19
 73
    15
 74
     0
 42
0.000000001
 43
0.00000001
 40
0.0
 40
0.0
 40
0.0
 40
0.0
 40
0.1288380429995044
 40
0.2408506371773576
 40
0.3379858977314487
 40
0.4208544298319365
 40
0.494779649111241
 40
0.5659088810869707
 40
0.6370496543952355
 40
0.7093806720350334
 40
0.7821614733091768
 40
0.8536820657736314
 40
0.9261831408996514
 40
1.0
 40
1.0
 40
1.0
 40
1.0
 10
10.59872591230604
 20
-177.9168674045139
 30
0.0
 10
10.50904172920227
 20
-177.9182583993325
 30
0.0
 10
10.34138556071049
 20
-177.9208587336794
 30
0.0
 10
10.10700452996956
 20
-177.9434032871926
 30
0.0
 10
9.906514668726517
 20
-177.9786436553355
 30
0.0
 10
9.737355010554412
 20
-178.0321678375497
 30
0.0
 10
9.595192810930444
 20
-178.1038472795723
 30
0.0
 10
9.471980499745912
 20
-178.1915043006608
 30
0.0
 10
9.368380463041975
 20
-178.30025345316
 30
0.0
 10
9.283178379541772
 20
-178.4249504935608
 30
0.0
 10
9.216573602375565
 20
-178.56084439928
 30
0.0
 10
9.17003356062022
 20
-178.7046714153662
 30
0.0
 10
9.138788207499736
 20
-178.8536735874429
 30
0.0
 10
9.135593420569867
 20
-178.9556290328081
 30
0.0
 10
9.133981662326391
 20
-179.0070651796129
 30
0.0
  0
SPLINE
  5
E8
330
1F
100
AcDbEntity
  8
0
  6
Continuous
 62
     7
370
    25
100
AcDbSpline
210
0.0
220
0.0
230
1.0
 70
     8
 71
     3
 72
    23
 73
    19
 74
     0
 42
0.000000001
 43
0.00000001
 40
0.0
 40
0.0
 40
0.0
 40
0.0
 40
0.0603272326790061
 40
0.1181633268525607
 40
0.1741915946005286
 40
0.2288671201359885
 40
0.2834295822545166
 40
0.3378078149372589
 40
0.3926149530011013
 40
0.4484500033868874
 40
0.5059514596840969
 40
0.5650462512987557
 40
0.6266439369048235
 40
0.6922233429555562
 40
0.7611243334651911
 40
0.8353052271782855
 40
0.9153231689797062
 40
1.0
 40
1.0
 40
1.0
 40
1.0
 10
9.13398166232639
 20
-179.0070651796129
 30
0.0
 10
9.135218998243744
 20
-179.0445497553353
 30
0.0
 10
9.137642575821165
 20
-179.1179710275589
 30
0.0
 10
9.150482993802402
 20
-179.2256979043267
 30
0.0
 10
9.174913003673586
 20
-179.3277865415969
 30
0.0
 10
9.208647521056777
 20
-179.4249728453502
 30
0.0
 10
9.251360342225308
 20
-179.5174678202223
 30
0.0
 10
9.303847642403618
 20
-179.604907678372
 30
0.0
 10
9.365838590141088
 20
-179.6868458124127
 30
0.0
 10
9.436949475133487
 20
-179.7636856080744
 30
0.0
 10
9.518568997487023
 20
-179.8336129234731
 30
0.0
 10
9.611805656038241
 20
-179.8939421851806
 30
0.0
 10
9.715914914583916
 20
-179.9452098338429
 30
0.0
 10
9.831020380378337
 20
-179.9858990513509
 30
0.0
 10
9.956758703904205
 20
-180.0184438651388
 30
0.0
 10
10.09384590363783
 20
-180.040094863837
 30
0.0
 10
10.2416549867684
 20
-180.0557614594169
 30
0.0
 10
10.34407811245175
 20
-180.0566672621898
 30
0.0
 10
10.39673834906684
 20
-180.0571329752604
 30
0.0
  0
ENDSEC
  0
SECTION
  2
OBJECTS
  0
DICTIONARY
  5
C
330
0
100
AcDbDictionary
281
     1
  3
ACAD_GROUP
350
D
  3
ACAD_LAYOUT
350
1A
  3
ACAD_MLINESTYLE
350
17
  3
ACAD_PLOTSETTINGS
350
19
  3
ACAD_PLOTSTYLENAME
350
E
  3
ACAD_SCALELIST
350
47
  0
DICTIONARY
  5
D
102
{ACAD_REACTORS
330
C
102
}
330
C
100
AcDbDictionary
281
     1
  0
DICTIONARY
  5
1A
102
{ACAD_REACTORS
330
C
102
}
330
C
100
AcDbDictionary
281
     1
  3
Layout1
350
1E
  3
Layout2
350
26
  3
Model
350
22
  0
DICTIONARY
  5
17
102
{ACAD_REACTORS
330
C
102
}
330
C
100
AcDbDictionary
281
     1
  3
Standard
350
18
  0
DICTIONARY
  5
19
102
{ACAD_REACTORS
330
C
102
}
330
C
100
AcDbDictionary
281
     1
  0
ACDBDICTIONARYWDFLT
  5
E
102
{ACAD_REACTORS
330
C
102
}
330
C
100
AcDbDictionary
281
     1
  3
Normal
350
F
100
AcDbDictionaryWithDefault
340
F
  0
DICTIONARY
  5
47
102
{ACAD_REACTORS
330
C
102
}
330
C
100
AcDbDictionary
281
     1
  3
A0
350
48
  3
A1
350
49
  3
A2
350
4A
  3
A3
350
4B
  3
A4
350
4C
  3
A5
350
4D
  3
A6
350
4E
  3
A7
350
4F
  3
A8
350
50
  3
A9
350
51
  3
B0
350
52
  3
B1
350
53
  3
B2
350
54
  3
B3
350
55
  3
B4
350
56
  3
B5
350
57
  3
B6
350
58
  3
B7
350
59
  3
B8
350
5A
  3
B9
350
5B
  3
C0
350
5C
  3
C1
350
5D
  3
C2
350
5E
  3
C3
350
5F
  3
C4
350
60
  3
C5
350
61
  3
C6
350
62
  3
C7
350
63
  3
C8
350
64
  3
C9
350
65
  3
D0
350
66
  3
D1
350
67
  3
D2
350
68
  0
LAYOUT
  5
1E
102
{ACAD_REACTORS
330
1A
102
}
330
1A
100
AcDbPlotSettings
  1

  2
none_device
  4

  6

 40
0.0
 41
0.0
 42
0.0
 43
0.0
 44
0.0
 45
0.0
 46
0.0
 47
0.0
 48
0.0
 49
0.0
140
0.0
141
0.0
142
1.0
143
1.0
 70
   688
 72
     1
 73
     0
 74
     5
  7

 75
    16
147
1.0
148
0.0
149
0.0
100
AcDbLayout
  1
Layout1
 70
     1
 71
     1
 10
0.0
 20
0.0
 11
420.0
 21
297.0
 12
0.0
 22
0.0
 32
0.0
 14
1.0000000000E+20
 24
1.0000000000E+20
 34
1.0000000000E+20
 15
-1.0000000000E+20
 25
-1.0000000000E+20
 35
-1.0000000000E+20
146
0.0
 13
0.0
 23
0.0
 33
0.0
 16
1.0
 26
0.0
 36
0.0
 17
0.0
 27
1.0
 37
0.0
 76
     0
330
1B
  0
LAYOUT
  5
26
102
{ACAD_REACTORS
330
1A
102
}
330
1A
100
AcDbPlotSettings
  1

  2
none_device
  4

  6

 40
0.0
 41
0.0
 42
0.0
 43
0.0
 44
0.0
 45
0.0
 46
0.0
 47
0.0
 48
0.0
 49
0.0
140
0.0
141
0.0
142
1.0
143
1.0
 70
   688
 72
     1
 73
     0
 74
     5
  7

 75
    16
147
1.0
148
0.0
149
0.0
100
AcDbLayout
  1
Layout2
 70
     1
 71
     2
 10
0.0
 20
0.0
 11
0.0
 21
0.0
 12
0.0
 22
0.0
 32
0.0
 14
0.0
 24
0.0
 34
0.0
 15
0.0
 25
0.0
 35
0.0
146
0.0
 13
0.0
 23
0.0
 33
0.0
 16
1.0
 26
0.0
 36
0.0
 17
0.0
 27
1.0
 37
0.0
 76
     0
330
23
  0
LAYOUT
  5
22
102
{ACAD_REACTORS
330
1A
102
}
330
1A
100
AcDbPlotSettings
  1

  2
none_device
  4
ANSI_A_(11.00_x_8.50_Inches)
  6

 40
6.35
 41
19.05
 42
6.35000508
 43
19.05000254
 44
279.4
 45
215.9
 46
133.34999746
 47
88.89999873
 48
0.0
 49
0.0
140
0.0
141
0.0
142
0.0228482216
143
1.0
 70
  1696
 72
     0
 73
     0
 74
     0
  7

 75
     0
147
0.0179189148
148
-1300.4909072572
149
0.0
100
AcDbLayout
  1
Model
 70
     1
 71
     0
 10
0.0
 20
0.0
 11
420.0
 21
297.0
 12
0.0
 22
0.0
 32
0.0
 14
-114.3
 24
-184.15
 34
0.0
 15
114.3
 25
184.15
 35
0.0
146
0.0
 13
0.0
 23
0.0
 33
0.0
 16
1.0
 26
0.0
 36
0.0
 17
0.0
 27
1.0
 37
0.0
 76
     0
330
1F
331
29
  0
MLINESTYLE
  5
18
102
{ACAD_REACTORS
330
17
102
}
330
17
100
AcDbMlineStyle
  2
Standard
 70
     0
  3

 62
   256
 51
90.0
 52
90.0
 71
     2
 49
0.5
 62
   256
  6
BYLAYER
 49
-0.5
 62
   256
  6
BYLAYER
  0
ACDBPLACEHOLDER
  5
F
102
{ACAD_REACTORS
330
E
102
}
330
E
  0
SCALE
  5
48
102
{ACAD_REACTORS
330
47
102
}
330
47
100
AcDbScale
 70
     0
300
1:1
140
1.0
141
1.0
290
     1
  0
SCALE
  5
49
102
{ACAD_REACTORS
330
47
102
}
330
47
100
AcDbScale
 70
     0
300
1:2
140
1.0
141
2.0
290
     0
  0
SCALE
  5
4A
102
{ACAD_REACTORS
330
47
102
}
330
47
100
AcDbScale
 70
     0
300
1:4
140
1.0
141
4.0
290
     0
  0
SCALE
  5
4B
102
{ACAD_REACTORS
330
47
102
}
330
47
100
AcDbScale
 70
     0
300
1:5
140
1.0
141
5.0
290
     0
  0
SCALE
  5
4C
102
{ACAD_REACTORS
330
47
102
}
330
47
100
AcDbScale
 70
     0
300
1:8
140
1.0
141
8.0
290
     0
  0
SCALE
  5
4D
102
{ACAD_REACTORS
330
47
102
}
330
47
100
AcDbScale
 70
     0
300
1:10
140
1.0
141
10.0
290
     0
  0
SCALE
  5
4E
102
{ACAD_REACTORS
330
47
102
}
330
47
100
AcDbScale
 70
     0
300
1:16
140
1.0
141
16.0
290
     0
  0
SCALE
  5
4F
102
{ACAD_REACTORS
330
47
102
}
330
47
100
AcDbScale
 70
     0
300
1:20
140
1.0
141
20.0
290
     0
  0
SCALE
  5
50
102
{ACAD_REACTORS
330
47
102
}
330
47
100
AcDbScale
 70
     0
300
1:30
140
1.0
141
30.0
290
     0
  0
SCALE
  5
51
102
{ACAD_REACTORS
330
47
102
}
330
47
100
AcDbScale
 70
     0
300
1:40
140
1.0
141
40.0
290
     0
  0
SCALE
  5
52
102
{ACAD_REACTORS
330
47
102
}
330
47
100
AcDbScale
 70
     0
300
1:50
140
1.0
141
50.0
290
     0
  0
SCALE
  5
53
102
{ACAD_REACTORS
330
47
102
}
330
47
100
AcDbScale
 70
     0
300
1:100
140
1.0
141
100.0
290
     0
  0
SCALE
  5
54
102
{ACAD_REACTORS
330
47
102
}
330
47
100
AcDbScale
 70
     0
300
2:1
140
2.0
141
1.0
290
     0
  0
SCALE
  5
55
102
{ACAD_REACTORS
330
47
102
}
330
47
100
AcDbScale
 70
     0
300
4:1
140
4.0
141
1.0
290
     0
  0
SCALE
  5
56
102
{ACAD_REACTORS
330
47
102
}
330
47
100
AcDbScale
 70
     0
300
8:1
140
8.0
141
1.0
290
     0
  0
SCALE
  5
57
102
{ACAD_REACTORS
330
47
102
}
330
47
100
AcDbScale
 70
     0
300
10:1
140
10.0
141
1.0
290
     0
  0
SCALE
  5
58
102
{ACAD_REACTORS
330
47
102
}
330
47
100
AcDbScale
 70
     0
300
100:1
140
100.0
141
1.0
290
     0
  0
SCALE
  5
59
102
{ACAD_REACTORS
330
47
102
}
330
47
100
AcDbScale
 70
     0
300
1/128" = 1'-0"
140
0.0078125
141
12.0
290
     0
  0
SCALE
  5
5A
102
{ACAD_REACTORS
330
47
102
}
330
47
100
AcDbScale
 70
     0
300
1/64" = 1'-0"
140
0.015625
141
12.0
290
     0
  0
SCALE
  5
5B
102
{ACAD_REACTORS
330
47
102
}
330
47
100
AcDbScale
 70
     0
300
1/32" = 1'-0"
140
0.03125
141
12.0
290
     0
  0
SCALE
  5
5C
102
{ACAD_REACTORS
330
47
102
}
330
47
100
AcDbScale
 70
     0
300
1/16" = 1'-0"
140
0.0625
141
12.0
290
     0
  0
SCALE
  5
5D
102
{ACAD_REACTORS
330
47
102
}
330
47
100
AcDbScale
 70
     0
300
3/32" = 1'-0"
140
0.09375
141
12.0
290
     0
  0
SCALE
  5
5E
102
{ACAD_REACTORS
330
47
102
}
330
47
100
AcDbScale
 70
     0
300
1/8" = 1'-0"
140
0.125
141
12.0
290
     0
  0
SCALE
  5
5F
102
{ACAD_REACTORS
330
47
102
}
330
47
100
AcDbScale
 70
     0
300
3/16" = 1'-0"
140
0.1875
141
12.0
290
     0
  0
SCALE
  5
60
102
{ACAD_REACTORS
330
47
102
}
330
47
100
AcDbScale
 70
     0
300
1/4" = 1'-0"
140
0.25
141
12.0
290
     0
  0
SCALE
  5
61
102
{ACAD_REACTORS
330
47
102
}
330
47
100
AcDbScale
 70
     0
300
3/8" = 1'-0"
140
0.375
141
12.0
290
     0
  0
SCALE
  5
62
102
{ACAD_REACTORS
330
47
102
}
330
47
100
AcDbScale
 70
     0
300
1/2" = 1'-0"
140
0.5
141
12.0
290
     0
  0
SCALE
  5
63
102
{ACAD_REACTORS
330
47
102
}
330
47
100
AcDbScale
 70
     0
300
3/4" = 1'-0"
140
0.75
141
12.0
290
     0
  0
SCALE
  5
64
102
{ACAD_REACTORS
330
47
102
}
330
47
100
AcDbScale
 70
     0
300
1" = 1'-0"
140
1.0
141
12.0
290
     0
  0
SCALE
  5
65
102
{ACAD_REACTORS
330
47
102
}
330
47
100
AcDbScale
 70
     0
300
1-1/2" = 1'-0"
140
1.5
141
12.0
290
     0
  0
SCALE
  5
66
102
{ACAD_REACTORS
330
47
102
}
330
47
100
AcDbScale
 70
     0
300
3" = 1'-0"
140
3.0
141
12.0
290
     0
  0
SCALE
  5
67
102
{ACAD_REACTORS
330
47
102
}
330
47
100
AcDbScale
 70
     0
300
6" = 1'-0"
140
6.0
141
12.0
290
     0
  0
SCALE
  5
68
102
{ACAD_REACTORS
330
47
102
}
330
47
100
AcDbScale
 70
     0
300
1'-0" = 1'-0"
140
12.0
141
12.0
290
     0
  0
ENDSEC
  0
EOF
