  0
SECTION
  2
HEADER
  9
$ACADVER
  1
AC1015
  9
$ACADMAINTVER
 70
     6
  9
$DWGCODEPAGE
  3
ANSI_1252
  9
$INSBASE
 10
0.0
 20
0.0
 30
0.0
  9
$EXTMIN
 10
-112.9534582403
 20
-485.9047314161
 30
0.0
  9
$EXTMAX
 10
115.6465417597
 20
-117.6047314161
 30
0.0
  9
$LIMMIN
 10
0.0
 20
0.0
  9
$LIMMAX
 10
420.0
 20
297.0
  9
$ORTHOMODE
 70
     0
  9
$REGENMODE
 70
     1
  9
$FILLMODE
 70
     1
  9
$QTEXTMODE
 70
     0
  9
$MIRRTEXT
 70
     1
  9
$LTSCALE
 40
1.0
  9
$ATTMODE
 70
     1
  9
$TEXTSIZE
 40
3.175
  9
$TRACEWID
 40
1.0
  9
$TEXTSTYLE
  7
Standard
  9
$CLAYER
  8
0
  9
$CELTYPE
  6
ByLayer
  9
$CECOLOR
 62
   256
  9
$CELTSCALE
 40
1.0
  9
$DISPSILH
 70
     0
  9
$DIMSCALE
 40
1.0
  9
$DIMASZ
 40
3.302
  9
$DIMEXO
 40
1.27
  9
$DIMDLI
 40
3.75
  9
$DIMRND
 40
0.0
  9
$DIMDLE
 40
0.0
  9
$DIMEXE
 40
3.175
  9
$DIMTP
 40
0.0
  9
$DIMTM
 40
0.0
  9
$DIMTXT
 40
3.175
  9
$DIMCEN
 40
2.5
  9
$DIMTSZ
 40
0.0
  9
$DIMTOL
 70
     0
  9
$DIMLIM
 70
     0
  9
$DIMTIH
 70
     1
  9
$DIMTOH
 70
     1
  9
$DIMSE1
 70
     0
  9
$DIMSE2
 70
     0
  9
$DIMTAD
 70
     0
  9
$DIMZIN
 70
     1
  9
$DIMBLK
  1

  9
$DIMASO
 70
     1
  9
$DIMSHO
 70
     1
  9
$DIMPOST
  1

  9
$DIMAPOST
  1

  9
$DIMALT
 70
     0
  9
$DIMALTD
 70
     3
  9
$DIMALTF
 40
0.0393700787
  9
$DIMLFAC
 40
1.0
  9
$DIMTOFL
 70
     1
  9
$DIMTVP
 40
0.0
  9
$DIMTIX
 70
     0
  9
$DIMSOXD
 70
     0
  9
$DIMSAH
 70
     0
  9
$DIMBLK1
  1

  9
$DIMBLK2
  1

  9
$DIMSTYLE
  2
ISO-25
  9
$DIMCLRD
 70
     0
  9
$DIMCLRE
 70
     0
  9
$DIMCLRT
 70
     0
  9
$DIMTFAC
 40
1.0
  9
$DIMGAP
 40
1.524
  9
$DIMJUST
 70
     0
  9
$DIMSD1
 70
     0
  9
$DIMSD2
 70
     0
  9
$DIMTOLJ
 70
     0
  9
$DIMTZIN
 70
     1
  9
$DIMALTZ
 70
     0
  9
$DIMALTTZ
 70
     0
  9
$DIMUPT
 70
     0
  9
$DIMDEC
 70
     3
  9
$DIMTDEC
 70
     3
  9
$DIMALTU
 70
     2
  9
$DIMALTTD
 70
     3
  9
$DIMTXSTY
  7
Standard
  9
$DIMAUNIT
 70
     0
  9
$DIMADEC
 70
     0
  9
$DIMALTRND
 40
0.0
  9
$DIMAZIN
 70
     0
  9
$DIMDSEP
 70
    44
  9
$DIMATFIT
 70
     3
  9
$DIMFRAC
 70
     0
  9
$DIMLDRBLK
  1

  9
$DIMLUNIT
 70
     2
  9
$DIMLWD
 70
    -2
  9
$DIMLWE
 70
    -2
  9
$DIMTMOVE
 70
     0
  9
$LUNITS
 70
     2
  9
$LUPREC
 70
     3
  9
$SKETCHINC
 40
1.0
  9
$FILLETRAD
 40
10.0
  9
$AUNITS
 70
     0
  9
$AUPREC
 70
     0
  9
$MENU
  1
.
  9
$ELEVATION
 40
0.0
  9
$PELEVATION
 40
0.0
  9
$THICKNESS
 40
0.0
  9
$LIMCHECK
 70
     0
  9
$CHAMFERA
 40
0.0
  9
$CHAMFERB
 40
0.0
  9
$CHAMFERC
 40
0.0
  9
$CHAMFERD
 40
0.0
  9
$SKPOLY
 70
     0
  9
$TDCREATE
 40
2458603.719285127
  9
$TDUCREATE
 40
2458603.885951794
  9
$TDUPDATE
 40
2458603.719309977
  9
$TDUUPDATE
 40
2458603.885976643
  9
$TDINDWG
 40
0.0000000116
  9
$TDUSRTIMER
 40
0.0000000116
  9
$USRTIMER
 70
     1
  9
$ANGBASE
 50
0.0
  9
$ANGDIR
 70
     0
  9
$PDMODE
 70
     0
  9
$PDSIZE
 40
-1.0
  9
$PLINEWID
 40
0.0
  9
$SPLFRAME
 70
     0
  9
$SPLINETYPE
 70
     6
  9
$SPLINESEGS
 70
     8
  9
$HANDSEED
  5
F5
  9
$SURFTAB1
 70
     6
  9
$SURFTAB2
 70
     6
  9
$SURFTYPE
 70
     6
  9
$SURFU
 70
     6
  9
$SURFV
 70
     6
  9
$UCSBASE
  2

  9
$UCSNAME
  2

  9
$UCSORG
 10
0.0
 20
0.0
 30
0.0
  9
$UCSXDIR
 10
1.0
 20
0.0
 30
0.0
  9
$UCSYDIR
 10
0.0
 20
1.0
 30
0.0
  9
$UCSORTHOREF
  2

  9
$UCSORTHOVIEW
 70
     0
  9
$UCSORGTOP
 10
0.0
 20
0.0
 30
0.0
  9
$UCSORGBOTTOM
 10
0.0
 20
0.0
 30
0.0
  9
$UCSORGLEFT
 10
0.0
 20
0.0
 30
0.0
  9
$UCSORGRIGHT
 10
0.0
 20
0.0
 30
0.0
  9
$UCSORGFRONT
 10
0.0
 20
0.0
 30
0.0
  9
$UCSORGBACK
 10
0.0
 20
0.0
 30
0.0
  9
$PUCSBASE
  2

  9
$PUCSNAME
  2

  9
$PUCSORG
 10
0.0
 20
0.0
 30
0.0
  9
$PUCSXDIR
 10
1.0
 20
0.0
 30
0.0
  9
$PUCSYDIR
 10
0.0
 20
1.0
 30
0.0
  9
$PUCSORTHOREF
  2

  9
$PUCSORTHOVIEW
 70
     0
  9
$PUCSORGTOP
 10
0.0
 20
0.0
 30
0.0
  9
$PUCSORGBOTTOM
 10
0.0
 20
0.0
 30
0.0
  9
$PUCSORGLEFT
 10
0.0
 20
0.0
 30
0.0
  9
$PUCSORGRIGHT
 10
0.0
 20
0.0
 30
0.0
  9
$PUCSORGFRONT
 10
0.0
 20
0.0
 30
0.0
  9
$PUCSORGBACK
 10
0.0
 20
0.0
 30
0.0
  9
$USERI1
 70
     0
  9
$USERI2
 70
     0
  9
$USERI3
 70
     0
  9
$USERI4
 70
     0
  9
$USERI5
 70
     0
  9
$USERR1
 40
0.0
  9
$USERR2
 40
0.0
  9
$USERR3
 40
0.0
  9
$USERR4
 40
0.0
  9
$USERR5
 40
0.0
  9
$WORLDVIEW
 70
     1
  9
$SHADEDGE
 70
     3
  9
$SHADEDIF
 70
    70
  9
$TILEMODE
 70
     1
  9
$MAXACTVP
 70
    64
  9
$PINSBASE
 10
0.0
 20
0.0
 30
0.0
  9
$PLIMCHECK
 70
     0
  9
$PEXTMIN
 10
1.0000000000E+20
 20
1.0000000000E+20
 30
1.0000000000E+20
  9
$PEXTMAX
 10
-1.0000000000E+20
 20
-1.0000000000E+20
 30
-1.0000000000E+20
  9
$PLIMMIN
 10
0.0
 20
0.0
  9
$PLIMMAX
 10
420.0
 20
297.0
  9
$UNITMODE
 70
     0
  9
$VISRETAIN
 70
     1
  9
$PLINEGEN
 70
     0
  9
$PSLTSCALE
 70
     1
  9
$TREEDEPTH
 70
  3020
  9
$CMLSTYLE
  2
Standard
  9
$CMLJUST
 70
     0
  9
$CMLSCALE
 40
20.0
  9
$PROXYGRAPHICS
 70
     1
  9
$MEASUREMENT
 70
     1
  9
$CELWEIGHT
370
    -1
  9
$ENDCAPS
280
     0
  9
$JOINSTYLE
280
     0
  9
$LWDISPLAY
290
     1
  9
$INSUNITS
 70
     4
  9
$HYPERLINKBASE
  1

  9
$STYLESHEET
  1

  9
$XEDIT
290
     1
  9
$CEPSNTYPE
380
     0
  9
$PSTYLEMODE
290
     1
  9
$FINGERPRINTGUID
  2
{A4F51B65-19E4-44D7-A767-2D84AF05240E}
  9
$VERSIONGUID
  2
{FAEB1C32-E019-11D5-929B-00C0DF256EC4}
  9
$EXTNAMES
290
     1
  9
$PSVPSCALE
 40
0.0
  9
$OLESTARTUP
290
     0
  0
ENDSEC
  0
SECTION
  2
CLASSES
  0
CLASS
  1
ACDBDICTIONARYWDFLT
  2
AcDbDictionaryWithDefault
  3
ObjectDBX Classes
 90
        0
280
     0
281
     0
  0
CLASS
  1
VISUALSTYLE
  2
AcDbVisualStyle
  3
ObjectDBX Classes
 90
     4095
280
     0
281
     0
  0
CLASS
  1
MATERIAL
  2
AcDbMaterial
  3
ObjectDBX Classes
 90
     1153
280
     0
281
     0
  0
CLASS
  1
SCALE
  2
AcDbScale
  3
ObjectDBX Classes
 90
     1153
280
     0
281
     0
  0
CLASS
  1
TABLESTYLE
  2
AcDbTableStyle
  3
ObjectDBX Classes
 90
     4095
280
     0
281
     0
  0
CLASS
  1
MLEADERSTYLE
  2
AcDbMLeaderStyle
  3
ACDB_MLEADERSTYLE_CLASS
 90
     4095
280
     0
281
     0
  0
CLASS
  1
SUN
  2
AcDbSun
  3
SCENEOE
 90
     1153
280
     0
281
     0
  0
CLASS
  1
ACDBPLACEHOLDER
  2
AcDbPlaceHolder
  3
ObjectDBX Classes
 90
        0
280
     0
281
     0
  0
CLASS
  1
LAYOUT
  2
AcDbLayout
  3
ObjectDBX Classes
 90
        0
280
     0
281
     0
  0
ENDSEC
  0
SECTION
  2
TABLES
  0
TABLE
  2
VPORT
  5
8
330
0
100
AcDbSymbolTable
 70
     1
  0
VPORT
  5
29
330
8
100
AcDbSymbolTableRecord
100
AcDbViewportTableRecord
  2
*Active
 70
     0
 10
0.0
 20
0.0
 11
1.0
 21
1.0
 12
1.3465417597
 22
-301.7547314161
 13
0.0
 23
0.0
 14
10.0
 24
10.0
 15
10.0
 25
10.0
 16
0.0
 26
0.0
 36
1.0
 17
0.0
 27
0.0
 37
0.0
 40
375.666
 41
0.6206896552
 42
50.0
 43
0.0
 44
0.0
 50
0.0
 51
0.0
 71
     0
 72
   100
 73
     1
 74
     3
 75
     0
 76
     0
 77
     0
 78
     0
281
     0
 65
     1
110
0.0
120
0.0
130
0.0
111
1.0
121
0.0
131
0.0
112
0.0
122
1.0
132
0.0
 79
     0
146
0.0
  0
ENDTAB
  0
TABLE
  2
LTYPE
  5
5
330
0
100
AcDbSymbolTable
 70
     6
  0
LTYPE
  5
14
330
5
100
AcDbSymbolTableRecord
100
AcDbLinetypeTableRecord
  2
ByBlock
 70
     0
  3

 72
    65
 73
     0
 40
0.0
  0
LTYPE
  5
15
330
5
100
AcDbSymbolTableRecord
100
AcDbLinetypeTableRecord
  2
ByLayer
 70
     0
  3

 72
    65
 73
     0
 40
0.0
  0
LTYPE
  5
16
330
5
100
AcDbSymbolTableRecord
100
AcDbLinetypeTableRecord
  2
Continuous
 70
     0
  3
Solid line
 72
    65
 73
     0
 40
0.0
  0
LTYPE
  5
6E
330
5
100
AcDbSymbolTableRecord
100
AcDbLinetypeTableRecord
  2
HIDDEN
 70
     0
  3
Hidden __ __ __ __ __ __ __ __ __ __ __ __ __ __
 72
    65
 73
     2
 40
1.905
 49
1.27
 74
     0
 49
-0.635
 74
     0
  0
LTYPE
  5
6F
330
5
100
AcDbSymbolTableRecord
100
AcDbLinetypeTableRecord
  2
PHANTOM
 70
     0
  3
Phantom ______  __  __  ______  __  __  ______
 72
    65
 73
     6
 40
12.7
 49
6.35
 74
     0
 49
-1.27
 74
     0
 49
1.27
 74
     0
 49
-1.27
 74
     0
 49
1.27
 74
     0
 49
-1.27
 74
     0
  0
LTYPE
  5
70
330
5
100
AcDbSymbolTableRecord
100
AcDbLinetypeTableRecord
  2
CENTER
 70
     0
  3
Center ____ _ ____ _ ____ _ ____ _ ____ _ ____
 72
    65
 73
     4
 40
10.16
 49
6.35
 74
     0
 49
-1.27
 74
     0
 49
1.27
 74
     0
 49
-1.27
 74
     0
  0
LTYPE
  5
71
330
5
100
AcDbSymbolTableRecord
100
AcDbLinetypeTableRecord
  2
CENTERX2
 70
     0
  3
Center (2x) ________  __  ________  __  _____
 72
    65
 73
     4
 40
20.32
 49
12.7
 74
     0
 49
-2.54
 74
     0
 49
2.54
 74
     0
 49
-2.54
 74
     0
  0
LTYPE
  5
72
330
5
100
AcDbSymbolTableRecord
100
AcDbLinetypeTableRecord
  2
DOT2
 70
     0
  3
Dot (.5x) ........................................
 72
    65
 73
     2
 40
0.635
 49
0.0
 74
     0
 49
-0.635
 74
     0
  0
ENDTAB
  0
TABLE
  2
LAYER
  5
2
330
0
100
AcDbSymbolTable
 70
     1
  0
LAYER
  5
10
330
2
100
AcDbSymbolTableRecord
100
AcDbLayerTableRecord
  2
0
 70
     0
 62
     7
  6
Continuous
370
    -3
390
F
  0
ENDTAB
  0
TABLE
  2
STYLE
  5
3
330
0
100
AcDbSymbolTable
 70
     1
  0
STYLE
  5
11
330
3
100
AcDbSymbolTableRecord
100
AcDbTextStyleTableRecord
  2
Standard
 70
     0
 40
0.0
 41
1.0
 50
0.0
 71
     0
 42
3.175
  3
txt
  4

  0
ENDTAB
  0
TABLE
  2
VIEW
  5
6
330
0
100
AcDbSymbolTable
 70
     0
  0
ENDTAB
  0
TABLE
  2
UCS
  5
7
330
0
100
AcDbSymbolTable
 70
     0
  0
ENDTAB
  0
TABLE
  2
APPID
  5
9
330
0
100
AcDbSymbolTable
 70
     1
  0
APPID
  5
12
330
9
100
AcDbSymbolTableRecord
100
AcDbRegAppTableRecord
  2
ACAD
 70
     0
  0
ENDTAB
  0
TABLE
  2
DIMSTYLE
  5
A
330
0
100
AcDbSymbolTable
 70
     1
100
AcDbDimStyleTable
  0
DIMSTYLE
105
27
330
A
100
AcDbSymbolTableRecord
100
AcDbDimStyleTableRecord
  2
ISO-25
 70
     0
 41
2.5
 42
0.625
 43
3.75
 44
1.25
 73
     0
 74
     0
 77
     1
 78
     8
140
2.5
141
2.5
143
0.0393700787
147
0.625
171
     3
172
     1
178
     0
271
     2
272
     2
274
     3
278
    44
283
     0
284
     8
340
11
  0
ENDTAB
  0
TABLE
  2
BLOCK_RECORD
  5
1
330
0
100
AcDbSymbolTable
 70
     1
  0
BLOCK_RECORD
  5
1F
330
1
100
AcDbSymbolTableRecord
100
AcDbBlockTableRecord
  2
*Model_Space
340
22
  0
BLOCK_RECORD
  5
1B
330
1
100
AcDbSymbolTableRecord
100
AcDbBlockTableRecord
  2
*Paper_Space
340
1E
  0
BLOCK_RECORD
  5
23
330
1
100
AcDbSymbolTableRecord
100
AcDbBlockTableRecord
  2
*Paper_Space0
340
26
  0
ENDTAB
  0
ENDSEC
  0
SECTION
  2
BLOCKS
  0
BLOCK
  5
20
330
1F
100
AcDbEntity
  8
0
100
AcDbBlockBegin
  2
*Model_Space
 70
     0
 10
0.0
 20
0.0
 30
0.0
  3
*Model_Space
  1

  0
ENDBLK
  5
21
330
1F
100
AcDbEntity
  8
0
100
AcDbBlockEnd
  0
BLOCK
  5
1C
330
1B
100
AcDbEntity
 67
     1
  8
0
100
AcDbBlockBegin
  2
*Paper_Space
 70
     0
 10
0.0
 20
0.0
 30
0.0
  3
*Paper_Space
  1

  0
ENDBLK
  5
1D
330
1B
100
AcDbEntity
 67
     1
  8
0
100
AcDbBlockEnd
  0
BLOCK
  5
24
330
23
100
AcDbEntity
  8
0
100
AcDbBlockBegin
  2
*Paper_Space0
 70
     0
 10
0.0
 20
0.0
 30
0.0
  3
*Paper_Space0
  1

  0
ENDBLK
  5
25
330
23
100
AcDbEntity
  8
0
100
AcDbBlockEnd
  0
ENDSEC
  0
SECTION
  2
ENTITIES
  0
LINE
  5
73
330
1F
100
AcDbEntity
  8
0
  6
Continuous
 62
     7
370
    25
100
AcDbLine
 10
4.5106568338
 20
-476.6752270216
 30
0.0
 11
4.5106568338
 21
-475.9047314161
 31
0.0
  0
LINE
  5
74
330
1F
100
AcDbEntity
  8
0
  6
Continuous
 62
     7
370
    25
100
AcDbLine
 10
4.5106568338
 20
-475.9047314161
 30
0.0
 11
9.3904623351
 21
-475.9047314161
 31
0.0
  0
LINE
  5
75
330
1F
100
AcDbEntity
  8
0
  6
Continuous
 62
     7
370
    25
100
AcDbLine
 10
9.3904623351
 20
-475.9047314161
 30
0.0
 11
9.3904623351
 21
-482.5823599968
 31
0.0
  0
LINE
  5
76
330
1F
100
AcDbEntity
  8
0
  6
Continuous
 62
     7
370
    25
100
AcDbLine
 10
9.3904623351
 20
-482.5823599968
 30
0.0
 11
4.6818780795
 21
-482.5823599968
 31
0.0
  0
LINE
  5
77
330
1F
100
AcDbEntity
  8
0
  6
Continuous
 62
     7
370
    25
100
AcDbLine
 10
4.6818780795
 20
-482.5823599968
 30
0.0
 11
4.6818780795
 21
-481.8118643914
 31
0.0
  0
LINE
  5
78
330
1F
100
AcDbEntity
  8
0
  6
Continuous
 62
     7
370
    25
100
AcDbLine
 10
4.6818780795
 20
-481.8118643914
 30
0.0
 11
8.448745484
 21
-481.8118643914
 31
0.0
  0
LINE
  5
79
330
1F
100
AcDbEntity
  8
0
  6
Continuous
 62
     7
370
    25
100
AcDbLine
 10
8.448745484
 20
-481.8118643914
 30
0.0
 11
8.448745484
 21
-479.7572094435
 31
0.0
  0
LINE
  5
7A
330
1F
100
AcDbEntity
  8
0
  6
Continuous
 62
     7
370
    25
100
AcDbLine
 10
8.448745484
 20
-479.7572094435
 30
0.0
 11
4.938709948
 21
-479.7572094435
 31
0.0
  0
LINE
  5
7B
330
1F
100
AcDbEntity
  8
0
  6
Continuous
 62
     7
370
    25
100
AcDbLine
 10
4.938709948
 20
-479.7572094435
 30
0.0
 11
4.938709948
 21
-478.986713838
 31
0.0
  0
LINE
  5
7C
330
1F
100
AcDbEntity
  8
0
  6
Continuous
 62
     7
370
    25
100
AcDbLine
 10
4.938709948
 20
-478.986713838
 30
0.0
 11
8.448745484
 21
-478.986713838
 31
0.0
  0
LINE
  5
7D
330
1F
100
AcDbEntity
  8
0
  6
Continuous
 62
     7
370
    25
100
AcDbLine
 10
8.448745484
 20
-478.986713838
 30
0.0
 11
8.448745484
 21
-476.6752270216
 31
0.0
  0
LINE
  5
7E
330
1F
100
AcDbEntity
  8
0
  6
Continuous
 62
     7
370
    25
100
AcDbLine
 10
8.448745484
 20
-476.6752270216
 30
0.0
 11
4.5106568338
 21
-476.6752270216
 31
0.0
  0
SPLINE
  5
7F
330
1F
100
AcDbEntity
  8
0
  6
Continuous
 62
     7
370
    25
100
AcDbSpline
210
0.0
220
0.0
230
1.0
 70
     8
 71
     3
 72
    23
 73
    19
 74
     0
 42
0.000000001
 43
0.00000001
 40
0.0
 40
0.0
 40
0.0
 40
0.0
 40
0.074811711524006
 40
0.1488996184043201
 40
0.223875566693116
 40
0.3012959568293709
 40
0.3408902128793097
 40
0.3803344024257407
 40
0.4201186662468455
 40
0.4599397196669064
 40
0.5008186430363957
 40
0.5418923268959681
 40
0.5844215264840396
 40
0.6280604215766713
 40
0.7172418577080633
 40
0.8079277750141739
 40
0.9019302338301829
 40
0.9999999999999999
 40
0.9999999999999999
 40
0.9999999999999999
 40
0.9999999999999999
 10
-1.653308009912137
 20
-477.8002041122015
 30
0.0
 10
-1.649767994906489
 20
-477.7129474805549
 30
0.0
 10
-1.642722214603529
 20
-477.5392784267297
 30
0.0
 10
-1.583840982668852
 20
-477.2836707348538
 30
0.0
 10
-1.489364026820566
 20
-477.0364984036253
 30
0.0
 10
-1.380016110776256
 20
-476.8404062375677
 30
0.0
 10
-1.276239510993036
 20
-476.6904053806317
 30
0.0
 10
-1.189090737091715
 20
-476.5825826953322
 30
0.0
 10
-1.092440104165632
 20
-476.4828866235891
 30
0.0
 10
-0.988676047240023
 20
-476.3881902533302
 30
0.0
 10
-0.8769901108294408
 20
-476.3004282458292
 30
0.0
 10
-0.7564429379593078
 20
-476.2195639879425
 30
0.0
 10
-0.628300624082453
 20
-476.1447809174915
 30
0.0
 10
-0.4453420439898624
 20
-476.0535512540878
 30
0.0
 10
-0.2020527560844862
 20
-475.9588131042457
 30
0.0
 10
0.1068966898141159
 20
-475.8766410793957
 30
0.0
 10
0.4336819167129098
 20
-475.8279502111749
 30
0.0
 10
0.6575672556899222
 20
-475.8221051904876
 30
0.0
 10
0.7718804149400225
 20
-475.8191207932793
 30
0.0
  0
SPLINE
  5
80
330
1F
100
AcDbEntity
  8
0
  6
Continuous
 62
     7
370
    25
100
AcDbSpline
210
0.0
220
0.0
230
1.0
 70
     8
 71
     3
 72
    31
 73
    27
 74
     0
 42
0.000000001
 43
0.00000001
 40
0.0
 40
0.0
 40
0.0
 40
0.0
 40
0.0524970732681834
 40
0.1031556251890808
 40
0.1514469001061658
 40
0.1980365750276125
 40
0.2428832275006933
 40
0.2863204360076017
 40
0.3279748327286695
 40
0.3685242349797919
 40
0.4079850030197716
 40
0.4469738981777879
 40
0.4853056677336274
 40
0.5235277222873604
 40
0.5615593996919293
 40
0.5998803471782219
 40
0.6384601864867868
 40
0.6777576969457415
 40
0.7172604864477826
 40
0.756579100491768
 40
0.7960451236613553
 40
0.8355597236480324
 40
0.8757030562458944
 40
0.9162562941044288
 40
0.9577560637442958
 40
1.0
 40
1.0
 40
1.0
 40
1.0
 10
0.7718804149400225
 20
-475.8191207932792
 30
0.0
 10
0.844576759090163
 20
-475.8197977770427
 30
0.0
 10
0.9874235191649429
 20
-475.8211280356456
 30
0.0
 10
1.196862089767972
 20
-475.8343166602373
 30
0.0
 10
1.396995926098878
 20
-475.8581447705994
 30
0.0
 10
1.588625710696211
 20
-475.885725105725
 30
0.0
 10
1.770847441319241
 20
-475.9271776680451
 30
0.0
 10
1.944706700376157
 20
-475.9739496073564
 30
0.0
 10
2.108617605115694
 20
-476.0326265871741
 30
0.0
 10
2.264385116028319
 20
-476.0971841117219
 30
0.0
 10
2.41058319128349
 20
-476.1734653792524
 30
0.0
 10
2.55028148168118
 20
-476.2552210119272
 30
0.0
 10
2.680099408189509
 20
-476.3490047081561
 30
0.0
 10
2.803883278278812
 20
-476.4484616624001
 30
0.0
 10
2.917898251150303
 20
-476.5591057014261
 30
0.0
 10
3.023463518032799
 20
-476.6783548491699
 30
0.0
 10
3.12172647229707
 20
-476.8059381183363
 30
0.0
 10
3.210945033345769
 20
-476.9419934357144
 30
0.0
 10
3.290592333368825
 20
-477.0849607449659
 30
0.0
 10
3.362294798284882
 20
-477.2323551201877
 30
0.0
 10
3.422300492571932
 20
-477.3849627876932
 30
0.0
 10
3.471750169665215
 20
-477.5424249788589
 30
0.0
 10
3.512228266116355
 20
-477.7040268868343
 30
0.0
 10
3.541090382104132
 20
-477.8708449722466
 30
0.0
 10
3.562042469156547
 20
-478.0418327062562
 30
0.0
 10
3.56662723109444
 20
-478.1577463782175
 30
0.0
 10
3.568939982709391
 20
-478.2162182325154
 30
0.0
  0
LINE
  5
81
330
1F
100
AcDbEntity
  8
0
  6
Continuous
 62
     7
370
    25
100
AcDbLine
 10
3.5689399827
 20
-478.2162182325
 30
0.0
 11
2.6272231316
 21
-478.2162182325
 31
0.0
  0
SPLINE
  5
82
330
1F
100
AcDbEntity
  8
0
  6
Continuous
 62
     7
370
    25
100
AcDbSpline
210
0.0
220
0.0
230
1.0
 70
     8
 71
     3
 72
    19
 73
    15
 74
     0
 42
0.000000001
 43
0.00000001
 40
0.0
 40
0.0
 40
0.0
 40
0.0
 40
0.0938134373941824
 40
0.1802206649576417
 40
0.2604102883577057
 40
0.3346865233629643
 40
0.4070661147979098
 40
0.4814349382811561
 40
0.5592715499458922
 40
0.6424655978377191
 40
0.7285368489066262
 40
0.8159442577408949
 40
0.9060181327287866
 40
0.9999999999999999
 40
0.9999999999999999
 40
0.9999999999999999
 40
0.9999999999999999
 10
2.627223131580919
 20
-478.2162182325154
 30
0.0
 10
2.616888429023443
 20
-478.1316521827702
 30
0.0
 10
2.597034908901141
 20
-477.9691962474449
 30
0.0
 10
2.541083006239887
 20
-477.7391439210617
 30
0.0
 10
2.470596710049743
 20
-477.5317653048591
 30
0.0
 10
2.377850267789213
 20
-477.3472732368863
 30
0.0
 10
2.263933602328021
 20
-477.1812772452244
 30
0.0
 10
2.121405983764485
 20
-477.0342749436743
 30
0.0
 10
1.950254913097438
 20
-476.9052325527542
 30
0.0
 10
1.754515474009382
 20
-476.7948933318075
 30
0.0
 10
1.540336943189188
 20
-476.7019482996388
 30
0.0
 10
1.309609900202469
 20
-476.6367457485493
 30
0.0
 10
1.065749367815393
 20
-476.5972068696944
 30
0.0
 10
0.8986643822017151
 20
-476.5921821186671
 30
0.0
 10
0.8133480603732366
 20
-476.589616398748
 30
0.0
  0
SPLINE
  5
83
330
1F
100
AcDbEntity
  8
0
  6
Continuous
 62
     7
370
    25
100
AcDbSpline
210
0.0
220
0.0
230
1.0
 70
     8
 71
     3
 72
    19
 73
    15
 74
     0
 42
0.000000001
 43
0.00000001
 40
0.0
 40
0.0
 40
0.0
 40
0.0
 40
0.1056286769630302
 40
0.2053374527832045
 40
0.3012118623686835
 40
0.3933061246626511
 40
0.4807364361328839
 40
0.5628486664239453
 40
0.6410192855213532
 40
0.7177066092816689
 40
0.7917681563008931
 40
0.8625200006447824
 40
0.931747904737299
 40
1.0
 40
1.0
 40
1.0
 40
1.0
 10
0.8133480603732366
 20
-476.589616398748
 30
0.0
 10
0.73786445466857
 20
-476.5910200784926
 30
0.0
 10
0.5911276804522952
 20
-476.5937487695222
 30
0.0
 10
0.3780135113211104
 20
-476.6263145886065
 30
0.0
 10
0.1780444795519547
 20
-476.6744928579022
 30
0.0
 10
-0.0066190586338604
 20
-476.7437842776633
 30
0.0
 10
-0.1722659466062787
 20
-476.8308842425005
 30
0.0
 10
-0.3192987303522444
 20
-476.9303385772225
 30
0.0
 10
-0.4412468676817053
 20
-477.0488624932098
 30
0.0
 10
-0.539890766707236
 20
-477.1798613696758
 30
0.0
 10
-0.6164439548993637
 20
-477.3189705351306
 30
0.0
 10
-0.6698141481033831
 20
-477.4624829594019
 30
0.0
 10
-0.7057464581913442
 20
-477.6076040134487
 30
0.0
 10
-0.709652165928175
 20
-477.7059162513501
 30
0.0
 10
-0.7115911587836644
 20
-477.7547234688232
 30
0.0
  0
SPLINE
  5
84
330
1F
100
AcDbEntity
  8
0
  6
Continuous
 62
     7
370
    25
100
AcDbSpline
210
0.0
220
0.0
230
1.0
 70
     8
 71
     3
 72
    15
 73
    11
 74
     0
 42
0.000000001
 43
0.00000001
 40
0.0
 40
0.0
 40
0.0
 40
0.0
 40
0.117760207302289
 40
0.2303985997942748
 40
0.3406497528469466
 40
0.4514251755843661
 40
0.5677355826461825
 40
0.6969707802217773
 40
0.8394483291236636
 40
1.0
 40
1.0
 40
1.0
 40
1.0
 10
-0.7115911587836643
 20
-477.7547234688232
 30
0.0
 10
-0.7095454825102115
 20
-477.8030518192417
 30
0.0
 10
-0.7055431037794582
 20
-477.8976065463595
 30
0.0
 10
-0.6737930852736298
 20
-478.0344811799997
 30
0.0
 10
-0.6224882043286527
 20
-478.1618392027827
 30
0.0
 10
-0.5505200513359667
 20
-478.280767085138
 30
0.0
 10
-0.45270893450616
 20
-478.3905456562298
 30
0.0
 10
-0.3262274044266511
 20
-478.4879963229377
 30
0.0
 10
-0.1745988313743089
 20
-478.5806875904186
 30
0.0
 10
-0.0604378843480436
 20
-478.6301199622368
 30
0.0
 10
0.0000471434895557
 20
-478.6563103405001
 30
0.0
  0
SPLINE
  5
85
330
1F
100
AcDbEntity
  8
0
  6
Continuous
 62
     7
370
    25
100
AcDbSpline
210
0.0
220
0.0
230
1.0
 70
     8
 71
     3
 72
    23
 73
    19
 74
     0
 42
0.000000001
 43
0.00000001
 40
0.0
 40
0.0
 40
0.0
 40
0.0
 40
0.031200548683794
 40
0.0704877074756271
 40
0.1172164737641581
 40
0.1715779330579245
 40
0.2335986644965067
 40
0.3041146655783218
 40
0.3817802687127436
 40
0.4672720494883103
 40
0.5539624244942433
 40
0.6347026409904446
 40
0.710032621623597
 40
0.7790893059118842
 40
0.8429634432039206
 40
0.9009998185565168
 40
0.9532456008152543
 40
1.0
 40
1.0
 40
1.0
 40
1.0
 10
0.0000471434895557
 20
-478.6563103405002
 30
0.0
 10
0.0235727157087965
 20
-478.6659645941751
 30
0.0
 10
0.0767212570883881
 20
-478.6877753070518
 30
0.0
 10
0.1678162497918796
 20
-478.7166459481329
 30
0.0
 10
0.2759073738156305
 20
-478.7539950360718
 30
0.0
 10
0.4032062681173417
 20
-478.792260465605
 30
0.0
 10
0.5498448316912672
 20
-478.8332601462501
 30
0.0
 10
0.714477965152112
 20
-478.8804442226842
 30
0.0
 10
0.898411765386173
 20
-478.929579010708
 30
0.0
 10
1.095204730622184
 20
-478.9815954034595
 30
0.0
 10
1.294403096620952
 20
-479.0343550389491
 30
0.0
 10
1.48468655831091
 20
-479.0883007521559
 30
0.0
 10
1.660836148337274
 20
-479.1394658047639
 30
0.0
 10
1.822181357289016
 20
-479.1920519103034
 30
0.0
 10
1.968876696641507
 20
-479.2439526493812
 30
0.0
 10
2.101322940548943
 20
-479.2948326426177
 30
0.0
 10
2.219755695468833
 20
-479.3434257557228
 30
0.0
 10
2.292088144365498
 20
-479.3791624229204
 30
0.0
 10
2.326248285694688
 20
-479.3960396283895
 30
0.0
  0
SPLINE
  5
86
330
1F
100
AcDbEntity
  8
0
  6
Continuous
 62
     7
370
    25
100
AcDbSpline
210
0.0
220
0.0
230
1.0
 70
     8
 71
     3
 72
    15
 73
    11
 74
     0
 42
0.000000001
 43
0.00000001
 40
0.0
 40
0.0
 40
0.0
 40
0.0
 40
0.1448695014226538
 40
0.2796358402521893
 40
0.406553638306193
 40
0.5277150017052366
 40
0.6456590686327438
 40
0.7617797423287301
 40
0.8788883509232084
 40
1.0
 40
1.0
 40
1.0
 40
1.0
 10
2.326248285694688
 20
-479.3960396283894
 30
0.0
 10
2.404791644845789
 20
-479.4385490928549
 30
0.0
 10
2.556400769035218
 20
-479.5206034224258
 30
0.0
 10
2.761240161582903
 20
-479.666445689167
 30
0.0
 10
2.930939574682103
 20
-479.8314356019516
 30
0.0
 10
3.070884821720159
 20
-480.0092045124444
 30
0.0
 10
3.178931728903467
 20
-480.2006736882891
 30
0.0
 10
3.255268977449189
 20
-480.4037460253808
 30
0.0
 10
3.304844842265856
 20
-480.6176292422066
 30
0.0
 10
3.309660052059123
 20
-480.7646404397403
 30
0.0
 10
3.312108114219808
 20
-480.8393812226616
 30
0.0
  0
SPLINE
  5
87
330
1F
100
AcDbEntity
  8
0
  6
Continuous
 62
     7
370
    25
100
AcDbSpline
210
0.0
220
0.0
230
1.0
 70
     8
 71
     3
 72
    23
 73
    19
 74
     0
 42
0.000000001
 43
0.00000001
 40
0.0
 40
0.0
 40
0.0
 40
0.0
 40
0.0750035017521209
 40
0.1491814207149354
 40
0.2236882557859405
 40
0.3009941454244404
 40
0.340156802941575
 40
0.3792002499352363
 40
0.4183796097273822
 40
0.458213108010078
 40
0.4984144588402088
 40
0.540040986108379
 40
0.5821965654347472
 40
0.6261769612902301
 40
0.7158440112886165
 40
0.8073634492189786
 40
0.9016235874428783
 40
1.0
 40
1.0
 40
1.0
 40
1.0
 10
3.312108114219808
 20
-480.8393812226616
 30
0.0
 10
3.308934234751324
 20
-480.9221693842003
 30
0.0
 10
3.302621411520068
 20
-481.0868344367409
 30
0.0
 10
3.246483312276768
 20
-481.3284227908426
 30
0.0
 10
3.157071788555238
 20
-481.5616527759705
 30
0.0
 10
3.054077225893285
 20
-481.7462434225091
 30
0.0
 10
2.955105169248099
 20
-481.886400222347
 30
0.0
 10
2.871924183374021
 20
-481.985780628643
 30
0.0
 10
2.780137124484264
 20
-482.0782034220961
 30
0.0
 10
2.681751252244904
 20
-482.1655861952582
 30
0.0
 10
2.573214237475456
 20
-482.2446615927518
 30
0.0
 10
2.457777150529389
 20
-482.3180746187233
 30
0.0
 10
2.333075291944767
 20
-482.3838604662233
 30
0.0
 10
2.156523462505038
 20
-482.4640656418863
 30
0.0
 10
1.921695099110212
 20
-482.5462970719793
 30
0.0
 10
1.626026180904077
 20
-482.6175416178306
 30
0.0
 10
1.314822683206069
 20
-482.6592473908977
 30
0.0
 10
1.102409163108407
 20
-482.6650217477605
 30
0.0
 10
0.9939329679049748
 20
-482.6679706196682
 30
0.0
  0
SPLINE
  5
88
330
1F
100
AcDbEntity
  8
0
  6
Continuous
 62
     7
370
    25
100
AcDbSpline
210
0.0
220
0.0
230
1.0
 70
     8
 71
     3
 72
    23
 73
    19
 74
     0
 42
0.000000001
 43
0.00000001
 40
0.0
 40
0.0
 40
0.0
 40
0.0
 40
0.1004657318433377
 40
0.195252027828133
 40
0.285962581054549
 40
0.3728540139618961
 40
0.4148928980710359
 40
0.4560934862860299
 40
0.4959768588387378
 40
0.5353752545353767
 40
0.5741414568377573
 40
0.6123004535055733
 40
0.6508585457575397
 40
0.6892871549641795
 40
0.7658194335102662
 40
0.8424140215159239
 40
0.9199436709640157
 40
1.0
 40
1.0
 40
1.0
 40
1.0
 10
0.993932967904975
 20
-482.6679706196682
 30
0.0
 10
0.8751803912143143
 20
-482.6653354523784
 30
0.0
 10
0.6443884486958074
 20
-482.6602140866395
 30
0.0
 10
0.308800897028199
 20
-482.6150481679782
 30
0.0
 10
-0.0051365663051178
 20
-482.5422697776264
 30
0.0
 10
-0.2508880588983581
 20
-482.4565262194474
 30
0.0
 10
-0.4330503582543576
 20
-482.3712981609164
 30
0.0
 10
-0.5614511979137622
 20
-482.3026188523402
 30
0.0
 10
-0.6810422218791939
 20
-482.2252166186012
 30
0.0
 10
-0.7941055414675965
 20
-482.1432620260817
 30
0.0
 10
-0.8966005056965313
 20
-482.0514166747708
 30
0.0
 10
-0.992760263644831
 20
-481.9545108595056
 30
0.0
 10
-1.080967091992703
 20
-481.8506765385541
 30
0.0
 10
-1.185715223276119
 20
-481.70237515705
 30
0.0
 10
-1.296360105313515
 20
-481.504042733261
 30
0.0
 10
-1.396282217124845
 20
-481.2496599332745
 30
0.0
 10
-1.460268613172432
 20
-480.9791837341907
 30
0.0
 10
-1.47473672166091
 20
-480.7933386996547
 30
0.0
 10
-1.482086764252414
 20
-480.6989262945813
 30
0.0
  0
LINE
  5
89
330
1F
100
AcDbEntity
  8
0
  6
Continuous
 62
     7
370
    25
100
AcDbLine
 10
-1.4820867643
 20
-480.6989262946
 30
0.0
 11
-0.5403699131
 21
-480.6989262946
 31
0.0
  0
SPLINE
  5
8A
330
1F
100
AcDbEntity
  8
0
  6
Continuous
 62
     7
370
    25
100
AcDbSpline
210
0.0
220
0.0
230
1.0
 70
     8
 71
     3
 72
    23
 73
    19
 74
     0
 42
0.000000001
 43
0.00000001
 40
0.0
 40
0.0
 40
0.0
 40
0.0
 40
0.0671410498283028
 40
0.1315102546513847
 40
0.1926394464174848
 40
0.2511477698027964
 40
0.3075867210387696
 40
0.3634341680350012
 40
0.4180970652056734
 40
0.4726114120091309
 40
0.5281676960517131
 40
0.5855127690028473
 40
0.6453265140189905
 40
0.7080150561965268
 40
0.7744826987967327
 40
0.8449737211450998
 40
0.9204206830432691
 40
1.0
 40
1.0
 40
1.0
 40
1.0
 10
-0.5403699131239426
 20
-480.6989262945813
 30
0.0
 10
-0.5345828673230038
 20
-480.7467901345118
 30
0.0
 10
-0.5232476875945525
 20
-480.8405418079504
 30
0.0
 10
-0.4914482587545793
 20
-480.9752793249078
 30
0.0
 10
-0.4534115322985106
 20
-481.1018350060377
 30
0.0
 10
-0.4050434527051044
 20
-481.2187864842298
 30
0.0
 10
-0.3473175117425859
 20
-481.3271679217524
 30
0.0
 10
-0.2788449775157598
 20
-481.4257431738621
 30
0.0
 10
-0.2023359055541012
 20
-481.5163778806864
 30
0.0
 10
-0.1159444147675264
 20
-481.5974814530804
 30
0.0
 10
-0.0188531488034761
 20
-481.6687071201254
 30
0.0
 10
0.0889582261095768
 20
-481.7302638982341
 30
0.0
 10
0.2070899782081274
 20
-481.7828765383699
 30
0.0
 10
0.3366879834462733
 20
-481.8234367322849
 30
0.0
 10
0.4760193647723275
 20
-481.8571187478491
 30
0.0
 10
0.6266871057860325
 20
-481.8812965368273
 30
0.0
 10
0.7881644842969331
 20
-481.8938212253532
 30
0.0
 10
0.8993854788482488
 20
-481.896235631909
 30
0.0
 10
0.9564783204169106
 20
-481.8974750141994
 30
0.0
  0
SPLINE
  5
8B
330
1F
100
AcDbEntity
  8
0
  6
Continuous
 62
     7
370
    25
100
AcDbSpline
210
0.0
220
0.0
230
1.0
 70
     8
 71
     3
 72
    23
 73
    19
 74
     0
 42
0.000000001
 43
0.00000001
 40
0.0
 40
0.0
 40
0.0
 40
0.0
 40
0.0915140484692231
 40
0.1771486910786877
 40
0.2571169481097523
 40
0.3312093009842994
 40
0.4003971905242553
 40
0.4650744791872278
 40
0.5260808284182695
 40
0.5845523773715294
 40
0.6405096115594618
 40
0.6946093947988409
 40
0.7465128494333003
 40
0.7970255531332837
 40
0.8473552476901842
 40
0.8974351655461975
 40
0.9476471957195778
 40
1.0
 40
1.0
 40
1.0
 40
1.0
 10
0.9564783204169106
 20
-481.8974750141994
 30
0.0
 10
1.015824507090799
 20
-481.8970335874458
 30
0.0
 10
1.130704129024764
 20
-481.8961790938146
 30
0.0
 10
1.296741072354238
 20
-481.8803158037333
 30
0.0
 10
1.450760463052074
 20
-481.8589316983796
 30
0.0
 10
1.591812845733506
 20
-481.826106316243
 30
0.0
 10
1.72121444635843
 20
-481.7874864958646
 30
0.0
 10
1.836695510306423
 20
-481.735627275245
 30
0.0
 10
1.941008437179145
 20
-481.6771680852201
 30
0.0
 10
2.032250836259047
 20
-481.6086440463358
 30
0.0
 10
2.110894724578679
 20
-481.5326752313023
 30
0.0
 10
2.181478643608351
 20
-481.4546382791041
 30
0.0
 10
2.23839124040011
 20
-481.3704506502475
 30
0.0
 10
2.28850571211501
 20
-481.2847740306048
 30
0.0
 10
2.323423368630888
 20
-481.1930516694953
 30
0.0
 10
2.350832938092116
 20
-481.0992741194225
 30
0.0
 10
2.367499460351016
 20
-481.0013805673825
 30
0.0
 10
2.369414008440938
 20
-480.9348655370829
 30
0.0
 10
2.370391263091336
 20
-480.9009138578205
 30
0.0
  0
SPLINE
  5
8C
330
1F
100
AcDbEntity
  8
0
  6
Continuous
 62
     7
370
    25
100
AcDbSpline
210
0.0
220
0.0
230
1.0
 70
     8
 71
     3
 72
    11
 73
     7
 74
     0
 42
0.000000001
 43
0.00000001
 40
0.0
 40
0.0
 40
0.0
 40
0.0
 40
0.2627412305282588
 40
0.5099565029431846
 40
0.7533267184203988
 40
1.0
 40
1.0
 40
1.0
 40
1.0
 10
2.370391263091336
 20
-480.9009138578205
 30
0.0
 10
2.367957645083972
 20
-480.8434624766696
 30
0.0
 10
2.363234216918401
 20
-480.7319546430418
 30
0.0
 10
2.315001109286579
 20
-480.573535624555
 30
0.0
 10
2.240818252285583
 20
-480.4291264246885
 30
0.0
 10
2.167736318346157
 20
-480.3505541165135
 30
0.0
 10
2.130949052364068
 20
-480.3110031598836
 30
0.0
  0
SPLINE
  5
8D
330
1F
100
AcDbEntity
  8
0
  6
Continuous
 62
     7
370
    25
100
AcDbSpline
210
0.0
220
0.0
230
1.0
 70
     8
 71
     3
 72
    23
 73
    19
 74
     0
 42
0.000000001
 43
0.00000001
 40
0.0
 40
0.0
 40
0.0
 40
0.0
 40
0.0327434629435776
 40
0.0724101466603202
 40
0.1196123797311254
 40
0.17467422064857
 40
0.2373468640367529
 40
0.3083547213712455
 40
0.3876329447866022
 40
0.4752520529828914
 40
0.5633362096858331
 40
0.645140721901863
 40
0.7202075928161734
 40
0.7892748382945891
 40
0.8514959637061111
 40
0.907329911849843
 40
0.9569683607399723
 40
1.0
 40
1.0
 40
1.0
 40
1.0
 10
2.130949052364068
 20
-480.3110031598835
 30
0.0
 10
2.107758753037897
 20
-480.29123748061
 30
0.0
 10
2.056474837888232
 20
-480.2475269012645
 30
0.0
 10
1.961053185471501
 20
-480.1896811529801
 30
0.0
 10
1.842744605282458
 20
-480.1312349508785
 30
0.0
 10
1.700757933048439
 20
-480.0731370068557
 30
0.0
 10
1.535340431586331
 20
-480.0146702519078
 30
0.0
 10
1.346745517557875
 20
-479.9545151488191
 30
0.0
 10
1.133898346016446
 20
-479.8944613655143
 30
0.0
 10
0.9038472920964555
 20
-479.8375284445054
 30
0.0
 10
0.6717672850657074
 20
-479.77907151935
 30
0.0
 10
0.4515207039503901
 20
-479.7214712803708
 30
0.0
 10
0.2485169367590949
 20
-479.6676428309165
 30
0.0
 10
0.0650933870199721
 20
-479.6116026798292
 30
0.0
 10
-0.1017681380320828
 20
-479.5624476213386
 30
0.0
 10
-0.2487599916920231
 20
-479.5105474702812
 30
0.0
 10
-0.3785229754137769
 20
-479.463448690851
 30
0.0
 10
-0.457988984868759
 20
-479.4302041544374
 30
0.0
 10
-0.4948892697455784
 20
-479.4147669521334
 30
0.0
  0
SPLINE
  5
8E
330
1F
100
AcDbEntity
  8
0
  6
Continuous
 62
     7
370
    25
100
AcDbSpline
210
0.0
220
0.0
230
1.0
 70
     8
 71
     3
 72
    19
 73
    15
 74
     0
 42
0.000000001
 43
0.00000001
 40
0.0
 40
0.0
 40
0.0
 40
0.0
 40
0.07494696587759
 40
0.1471083341849646
 40
0.216409674186858
 40
0.2829324078001406
 40
0.3472179263985107
 40
0.4093787589848656
 40
0.4693963126005341
 40
0.5289591812310107
 40
0.6445627098265807
 40
0.7598684424067483
 40
0.8776916298410559
 40
1.0
 40
1.0
 40
1.0
 40
1.0
 10
-0.4948892697455784
 20
-479.4147669521334
 30
0.0
 10
-0.5429103883478763
 20
-479.3926426625023
 30
0.0
 10
-0.6371677966440399
 20
-479.3492163896098
 30
0.0
 10
-0.7705404809000872
 20
-479.274857981565
 30
0.0
 10
-0.8958002804405231
 20
-479.1983037608011
 30
0.0
 10
-1.009046690088703
 20
-479.1139450728212
 30
0.0
 10
-1.115844416995794
 20
-479.0294735532268
 30
0.0
 10
-1.210746290859251
 20
-478.9381526530144
 30
0.0
 10
-1.295793705362191
 20
-478.8421311896277
 30
0.0
 10
-1.39653613989576
 20
-478.7102011968249
 30
0.0
 10
-1.499874761624546
 20
-478.5321293663222
 30
0.0
 10
-1.588661265229238
 20
-478.3019839090222
 30
0.0
 10
-1.644199518059347
 20
-478.0560927417556
 30
0.0
 10
-1.650234273527656
 20
-477.8865558599715
 30
0.0
 10
-1.653308009912137
 20
-477.8002041122016
 30
0.0
  0
SPLINE
  5
8F
330
1F
100
AcDbEntity
  8
0
  6
Continuous
 62
     7
370
    25
100
AcDbSpline
210
0.0
220
0.0
230
1.0
 70
     8
 71
     3
 72
    31
 73
    27
 74
     0
 42
0.000000001
 43
0.00000001
 40
0.0
 40
0.0
 40
0.0
 40
0.0
 40
0.0475607904469546
 40
0.0939645423171974
 40
0.1391151413453596
 40
0.1836310728011991
 40
0.2274629279022613
 40
0.2707095317019692
 40
0.313618666161367
 40
0.3562696913321408
 40
0.398376485288321
 40
0.4395679156577102
 40
0.4800578338505134
 40
0.5199019799359575
 40
0.5596722660343535
 40
0.5990769790772471
 40
0.6390733369180966
 40
0.6793156080281879
 40
0.7197837359683434
 40
0.7596237823134684
 40
0.799480225089593
 40
0.8391921469330805
 40
0.878700355224471
 40
0.9187921630876993
 40
0.9590823015976628
 40
1.0
 40
1.0
 40
1.0
 40
1.0
 10
-11.49852963534616
 20
-479.23284437862
 30
0.0
 10
-11.49713830530374
 20
-479.1498788247799
 30
0.0
 10
-11.49438949290134
 20
-478.9859660676241
 30
0.0
 10
-11.4757899033967
 20
-478.7438167746049
 30
0.0
 10
-11.44308536016223
 20
-478.5086190855956
 30
0.0
 10
-11.39970835172048
 20
-478.2796716835462
 30
0.0
 10
-11.34158448495955
 20
-478.0574511896169
 30
0.0
 10
-11.272513200345
 20
-477.8413204829616
 30
0.0
 10
-11.18896758287389
 20
-477.6325668851649
 30
0.0
 10
-11.09461207067961
 20
-477.4306872422887
 30
0.0
 10
-10.98784889592159
 20
-477.2384581532364
 30
0.0
 10
-10.87008169916832
 20
-477.0572235806882
 30
0.0
 10
-10.7412278232548
 20
-476.8886795344473
 30
0.0
 10
-10.60324172888376
 20
-476.7307558321189
 30
0.0
 10
-10.45336464658764
 20
-476.5867213603561
 30
0.0
 10
-10.29275423815779
 20
-476.4544322612671
 30
0.0
 10
-10.12173894623745
 20
-476.3344577200153
 30
0.0
 10
-9.940989120919562
 20
-476.2260900658838
 30
0.0
 10
-9.753392523348415
 20
-476.1308025700034
 30
0.0
 10
-9.561226956561136
 20
-476.0465948728303
 30
0.0
 10
-9.364265788047168
 20
-475.9784636318251
 30
0.0
 10
-9.16539059744178
 20
-475.9180341739772
 30
0.0
 10
-8.961639990036906
 20
-475.8745823088998
 30
0.0
 10
-8.754935237217987
 20
-475.8422036651542
 30
0.0
 10
-8.543977653016002
 20
-475.8232702413425
 30
0.0
 10
-8.402315192299861
 20
-475.8205110501485
 30
0.0
 10
-8.330936590641306
 20
-475.8191207932792
 30
0.0
  0
SPLINE
  5
90
330
1F
100
AcDbEntity
  8
0
  6
Continuous
 62
     7
370
    25
100
AcDbSpline
210
0.0
220
0.0
230
1.0
 70
     8
 71
     3
 72
    31
 73
    27
 74
     0
 42
0.000000001
 43
0.00000001
 40
0.0
 40
0.0
 40
0.0
 40
0.0
 40
0.0447019208074972
 40
0.0885433100239255
 40
0.1314652882158813
 40
0.1738166415803596
 40
0.2157218457498984
 40
0.2572590453427307
 40
0.2987409660326377
 40
0.3405017817199044
 40
0.382148508763874
 40
0.4230933180190273
 40
0.4635881478882249
 40
0.5040079115832616
 40
0.5443884185888921
 40
0.5849182317596519
 40
0.6262240699255603
 40
0.667942846682864
 40
0.7099108133431694
 40
0.7513544834629057
 40
0.7925957333124886
 40
0.833930154293742
 40
0.8749942896385902
 40
0.9164363312913575
 40
0.9579019794556553
 40
1.0
 40
1.0
 40
1.0
 40
1.0
 10
-8.330936590641306
 20
-475.8191207932792
 30
0.0
 10
-8.2541987920909
 20
-475.8203096810462
 30
0.0
 10
-8.102200431285285
 20
-475.822664569969
 30
0.0
 10
-7.877305336363891
 20
-475.8443454922437
 30
0.0
 10
-7.658748878941558
 20
-475.8814606761022
 30
0.0
 10
-7.445280810726777
 20
-475.9280504358779
 30
0.0
 10
-7.239276647169104
 20
-475.9934610523343
 30
0.0
 10
-7.039012753622936
 20
-476.0705308777573
 30
0.0
 10
-6.845973798476878
 20
-476.1637968585492
 30
0.0
 10
-6.659168071144471
 20
-476.2691547629117
 30
0.0
 10
-6.48026897185639
 20
-476.3859594663072
 30
0.0
 10
-6.313069451408508
 20
-476.5153353959726
 30
0.0
 10
-6.155102476666288
 20
-476.6527396162524
 30
0.0
 10
-6.011179069499058
 20
-476.8034993447876
 30
0.0
 10
-5.876988840192047
 20
-476.9628983015365
 30
0.0
 10
-5.752982447459586
 20
-477.1323197945526
 30
0.0
 10
-5.640912079810146
 20
-477.3126125029697
 30
0.0
 10
-5.541398784400053
 20
-477.5028120027864
 30
0.0
 10
-5.451664197354835
 20
-477.6980914376719
 30
0.0
 10
-5.37601993121932
 20
-477.8983488961034
 30
0.0
 10
-5.309554491252179
 20
-478.1006770468641
 30
0.0
 10
-5.256618727146233
 20
-478.3063112595016
 30
0.0
 10
-5.214436106036898
 20
-478.5147802945482
 30
0.0
 10
-5.186071174959885
 20
-478.7257364342332
 30
0.0
 10
-5.165585855512933
 20
-478.9394940848013
 30
0.0
 10
-5.164094743816873
 20
-479.082975927302
 30
0.0
 10
-5.163343545936445
 20
-479.1552597516804
 30
0.0
  0
SPLINE
  5
91
330
1F
100
AcDbEntity
  8
0
  6
Continuous
 62
     7
370
    25
100
AcDbSpline
210
0.0
220
0.0
230
1.0
 70
     8
 71
     3
 72
    23
 73
    19
 74
     0
 42
0.000000001
 43
0.00000001
 40
0.0
 40
0.0
 40
0.0
 40
0.0
 40
0.0752245959663773
 40
0.1465713103289153
 40
0.2144952598141407
 40
0.2794534070191507
 40
0.3424182556850006
 40
0.4035099350205062
 40
0.4637740862491139
 40
0.5238754400688835
 40
0.5832614231365109
 40
0.6413103871737816
 40
0.698904782335548
 40
0.7563009154929956
 40
0.814632118935109
 40
0.8743276931491841
 40
0.9357847783626048
 40
1.0
 40
1.0
 40
1.0
 40
1.0
 10
-5.163343545936445
 20
-479.1552597516804
 30
0.0
 10
-5.165680088087025
 20
-479.2891355289785
 30
0.0
 10
-5.170232721972918
 20
-479.5499856917187
 30
0.0
 10
-5.212269125039382
 20
-479.9298990770036
 30
0.0
 10
-5.281617138856886
 20
-480.2869212516483
 30
0.0
 10
-5.377012509883517
 20
-480.6227037323289
 30
0.0
 10
-5.50389150038693
 20
-480.9347140852281
 30
0.0
 10
-5.654439866389897
 20
-481.2267890178463
 30
0.0
 10
-5.837104060410912
 20
-481.4938449280478
 30
0.0
 10
-6.043502743516187
 20
-481.7389696067523
 30
0.0
 10
-6.274103830076024
 20
-481.9556579170116
 30
0.0
 10
-6.519612451299413
 20
-482.1481134220689
 30
0.0
 10
-6.783113465244834
 20
-482.3086427612241
 30
0.0
 10
-7.062167307524321
 20
-482.4411874156836
 30
0.0
 10
-7.357960891265463
 20
-482.5429512760952
 30
0.0
 10
-7.66966335883253
 20
-482.6141952605046
 30
0.0
 10
-7.996941445078816
 20
-482.6601545479704
 30
0.0
 10
-8.220643672745673
 20
-482.6653274193465
 30
0.0
 10
-8.334949588586456
 20
-482.6679706196682
 30
0.0
  0
SPLINE
  5
92
330
1F
100
AcDbEntity
  8
0
  6
Continuous
 62
     7
370
    25
100
AcDbSpline
210
0.0
220
0.0
230
1.0
 70
     8
 71
     3
 72
    31
 73
    27
 74
     0
 42
0.000000001
 43
0.00000001
 40
0.0
 40
0.0
 40
0.0
 40
0.0
 40
0.0430906778846521
 40
0.0855702925740411
 40
0.1271348306375761
 40
0.1679383740113609
 40
0.2086566617459482
 40
0.2489862505362481
 40
0.2893576933795802
 40
0.3300791714524742
 40
0.3704449826241179
 40
0.4105095612295139
 40
0.4500691776487294
 40
0.4895367374910913
 40
0.529122616469226
 40
0.5690906136894369
 40
0.6095335908455821
 40
0.650581554534424
 40
0.6923238662515566
 40
0.7342641111038991
 40
0.776500669878315
 40
0.8195845639066957
 40
0.8631243689835284
 40
0.9078562579436363
 40
0.9533426826867633
 40
1.0
 40
1.0
 40
1.0
 40
1.0
 10
-8.334949588586456
 20
-482.6679706196682
 30
0.0
 10
-8.41034456953924
 20
-482.6666660468994
 30
0.0
 10
-8.560065365206782
 20
-482.6640754013358
 30
0.0
 10
-8.78181136928012
 20
-482.643970034351
 30
0.0
 10
-8.99759274437333
 20
-482.609061507414
 30
0.0
 10
-9.207535955821552
 20
-482.5604981576629
 30
0.0
 10
-9.411950682145951
 20
-482.4994004269109
 30
0.0
 10
-9.610701977328716
 20
-482.4239410814787
 30
0.0
 10
-9.80410743090903
 20
-482.3356652726866
 30
0.0
 10
-9.990435354629213
 20
-482.233067287603
 30
0.0
 10
-10.16836245680041
 20
-482.1176180352777
 30
0.0
 10
-10.337162520438
 20
-481.9925174399824
 30
0.0
 10
-10.49421310372328
 20
-481.8552563491745
 30
0.0
 10
-10.64027212079049
 20
-481.7076564586266
 30
0.0
 10
-10.77646860672905
 20
-481.5497936670245
 30
0.0
 10
-10.89845000975073
 20
-481.3787196622571
 30
0.0
 10
-11.01343625400001
 20
-481.1998373378503
 30
0.0
 10
-11.11424968191765
 20
-481.0090402431306
 30
0.0
 10
-11.20563941337396
 20
-480.8107126959753
 30
0.0
 10
-11.28224352339329
 20
-480.6039951150184
 30
0.0
 10
-11.35008298042556
 20
-480.3918500553279
 30
0.0
 10
-11.40485954154254
 20
-480.1729598816507
 30
0.0
 10
-11.44569042317729
 20
-479.9467000776529
 30
0.0
 10
-11.47708770995563
 20
-479.7146965052306
 30
0.0
 10
-11.49404152671754
 20
-479.475659738734
 30
0.0
 10
-11.49702097893264
 20
-479.3144656094436
 30
0.0
 10
-11.49852963534616
 20
-479.23284437862
 30
0.0
  0
CIRCLE
  5
93
330
1F
100
AcDbEntity
  8
0
  6
Continuous
 62
     7
370
    25
100
AcDbCircle
 10
-103.4284582403
 20
-466.8547314161
 30
0.0
 40
2.247900000000016
  0
CIRCLE
  5
94
330
1F
100
AcDbEntity
  8
0
  6
Continuous
 62
     7
370
    25
100
AcDbCircle
 10
106.1215417597
 20
-356.7880647494
 30
0.0
 40
2.247900000000016
  0
CIRCLE
  5
95
330
1F
100
AcDbEntity
  8
0
  6
Continuous
 62
     7
370
    25
100
AcDbCircle
 10
106.1215417597
 20
-152.5297314161
 30
0.0
 40
2.247900000000016
  0
CIRCLE
  5
96
330
1F
100
AcDbEntity
  8
0
  6
Continuous
 62
     7
370
    25
100
AcDbCircle
 10
-103.4284582403
 20
-152.5297314161
 30
0.0
 40
2.247900000000016
  0
CIRCLE
  5
97
330
1F
100
AcDbEntity
  8
0
  6
Continuous
 62
     7
370
    25
100
AcDbCircle
 10
-81.2034582403
 20
-447.8047314161
 30
0.0
 40
2.457449999999994
  0
CIRCLE
  5
98
330
1F
100
AcDbEntity
  8
0
  6
Continuous
 62
     7
370
    25
100
AcDbCircle
 10
83.8965417597
 20
-155.7047314161
 30
0.0
 40
2.457450000000023
  0
CIRCLE
  5
99
330
1F
100
AcDbEntity
  8
0
  6
Continuous
 62
     7
370
    25
100
AcDbCircle
 10
-78.6634582403
 20
-246.7256314161
 30
0.0
 40
6.349999999999994
  0
CIRCLE
  5
9A
330
1F
100
AcDbEntity
  8
0
  6
Continuous
 62
     7
370
    25
100
AcDbCircle
 10
81.3565417597
 20
-246.7256314161
 30
0.0
 40
6.349999999999994
  0
CIRCLE
  5
9B
330
1F
100
AcDbEntity
  8
0
  6
Continuous
 62
     7
370
    25
100
AcDbCircle
 10
1.3465417597
 20
-356.7880647494
 30
0.0
 40
6.350000000000023
  0
CIRCLE
  5
9C
330
1F
100
AcDbEntity
  8
0
  6
Continuous
 62
     7
370
    25
100
AcDbCircle
 10
81.3565417597
 20
-356.7838314161
 30
0.0
 40
6.349999999999966
  0
CIRCLE
  5
9D
330
1F
100
AcDbEntity
  8
0
  6
Continuous
 62
     7
370
    25
100
AcDbCircle
 10
54.8643417597
 20
-182.3747314161
 30
0.0
 40
24.72700000000003
  0
CIRCLE
  5
9E
330
1F
100
AcDbEntity
  8
0
  6
Continuous
 62
     7
370
    25
100
AcDbCircle
 10
-52.1712582403
 20
-421.1347314161
 30
0.0
 40
24.72699999999998
  0
CIRCLE
  5
9F
330
1F
100
AcDbEntity
  8
0
  6
Continuous
 62
     7
370
    25
100
AcDbCircle
 10
54.8643417597
 20
-421.2633130997
 30
0.0
 40
24.72699999999998
  0
ARC
  5
A0
330
1F
100
AcDbEntity
  8
0
  6
Continuous
 62
     7
370
    25
100
AcDbCircle
 10
112.4715417597
 20
-120.7797314161
 30
0.0
 40
3.174999999999997
100
AcDbArc
 50
0.0
 51
90.0
  0
LINE
  5
A1
330
1F
100
AcDbEntity
  8
0
  6
Continuous
 62
     7
370
    25
100
AcDbLine
 10
112.4715417597
 20
-117.6047314161
 30
0.0
 11
-109.7784582403
 21
-117.6047314161
 31
0.0
  0
ARC
  5
A2
330
1F
100
AcDbEntity
  8
0
  6
Continuous
 62
     7
370
    25
100
AcDbCircle
 10
-109.7784582403
 20
-120.7797314161
 30
0.0
 40
3.175000000000011
100
AcDbArc
 50
90.0
 51
180.0
  0
LINE
  5
A3
330
1F
100
AcDbEntity
  8
0
  6
Continuous
 62
     7
370
    25
100
AcDbLine
 10
-112.9534582403
 20
-120.7797314161
 30
0.0
 11
-112.9534582403
 21
-482.7297314161
 31
0.0
  0
ARC
  5
A4
330
1F
100
AcDbEntity
  8
0
  6
Continuous
 62
     7
370
    25
100
AcDbCircle
 10
-109.7784582403
 20
-482.7297314161
 30
0.0
 40
3.175000000000011
100
AcDbArc
 50
180.0
 51
270.0
  0
LINE
  5
A5
330
1F
100
AcDbEntity
  8
0
  6
Continuous
 62
     7
370
    25
100
AcDbLine
 10
-109.7784582403
 20
-485.9047314161
 30
0.0
 11
112.4715417597
 21
-485.9047314161
 31
0.0
  0
ARC
  5
A6
330
1F
100
AcDbEntity
  8
0
  6
Continuous
 62
     7
370
    25
100
AcDbCircle
 10
112.4715417597
 20
-482.7297314161
 30
0.0
 40
3.17500000000004
100
AcDbArc
 50
270.0
 51
0.0
  0
LINE
  5
A7
330
1F
100
AcDbEntity
  8
0
  6
Continuous
 62
     7
370
    25
100
AcDbLine
 10
115.6465417597
 20
-482.7297314161
 30
0.0
 11
115.6465417597
 21
-120.7797314161
 31
0.0
  0
CIRCLE
  5
A8
330
1F
100
AcDbEntity
  8
0
  6
Continuous
 62
     7
370
    25
100
AcDbCircle
 10
54.8643417597
 20
-301.8190222579
 30
0.0
 40
24.72700000000003
  0
CIRCLE
  5
A9
330
1F
100
AcDbEntity
  8
0
  6
Continuous
 62
     7
370
    25
100
AcDbCircle
 10
-52.1712582403
 20
-182.3747314161
 30
0.0
 40
24.727
  0
CIRCLE
  5
AA
330
1F
100
AcDbEntity
  8
0
  6
Continuous
 62
     7
370
    25
100
AcDbCircle
 10
-52.1712582403
 20
-301.6904405743
 30
0.0
 40
28.76928198007539
  0
CIRCLE
  5
AB
330
1F
100
AcDbEntity
  8
0
  6
Continuous
 62
     7
370
    25
100
AcDbCircle
 10
1.3465417597
 20
-466.8547314161
 30
0.0
 40
6.350000000000023
  0
CIRCLE
  5
AC
330
1F
100
AcDbEntity
  8
0
  6
Continuous
 62
     7
370
    25
100
AcDbCircle
 10
-78.6634582403
 20
-356.7838314161
 30
0.0
 40
6.350000000000023
  0
CIRCLE
  5
AD
330
1F
100
AcDbEntity
  8
0
  6
Continuous
 62
     7
370
    25
100
AcDbCircle
 10
1.3465417597
 20
-246.7213980828
 30
0.0
 40
6.349999999999994
  0
CIRCLE
  5
AE
330
1F
100
AcDbEntity
  8
0
  6
Continuous
 62
     7
370
    25
100
AcDbCircle
 10
1.3465417597
 20
-130.3047314161
 30
0.0
 40
6.349999999999994
  0
CIRCLE
  5
AF
330
1F
100
AcDbEntity
  8
0
  6
Continuous
 62
     7
370
    25
100
AcDbCircle
 10
-81.2034582403
 20
-155.7047314161
 30
0.0
 40
2.457449999999994
  0
CIRCLE
  5
B0
330
1F
100
AcDbEntity
  8
0
  6
Continuous
 62
     7
370
    25
100
AcDbCircle
 10
83.8965417597
 20
-447.8047314161
 30
0.0
 40
2.457449999999994
  0
CIRCLE
  5
B1
330
1F
100
AcDbEntity
  8
0
  6
Continuous
 62
     7
370
    25
100
AcDbCircle
 10
-103.4284582403
 20
-246.7213980828
 30
0.0
 40
2.247899999999987
  0
CIRCLE
  5
B2
330
1F
100
AcDbEntity
  8
0
  6
Continuous
 62
     7
370
    25
100
AcDbCircle
 10
106.1215417597
 20
-246.7213980828
 30
0.0
 40
2.247899999999987
  0
CIRCLE
  5
B3
330
1F
100
AcDbEntity
  8
0
  6
Continuous
 62
     7
370
    25
100
AcDbCircle
 10
-103.4284582403
 20
-356.7880647494
 30
0.0
 40
2.247900000000016
  0
CIRCLE
  5
B4
330
1F
100
AcDbEntity
  8
0
  6
Continuous
 62
     7
370
    25
100
AcDbCircle
 10
106.1215417597
 20
-466.8547314161
 30
0.0
 40
2.247900000000016
  0
LINE
  5
B5
330
1F
100
AcDbEntity
  8
0
  6
Continuous
 62
     7
370
    25
100
AcDbLine
 10
-21.9430256206
 20
-481.8118643914
 30
0.0
 11
-21.9430256206
 21
-475.9047314161
 31
0.0
  0
LINE
  5
B6
330
1F
100
AcDbEntity
  8
0
  6
Continuous
 62
     7
370
    25
100
AcDbLine
 10
-21.9430256206
 20
-475.9047314161
 30
0.0
 11
-21.0013087695
 21
-475.9047314161
 31
0.0
  0
LINE
  5
B7
330
1F
100
AcDbEntity
  8
0
  6
Continuous
 62
     7
370
    25
100
AcDbLine
 10
-21.0013087695
 20
-475.9047314161
 30
0.0
 11
-21.0013087695
 21
-481.8118643914
 31
0.0
  0
LINE
  5
B8
330
1F
100
AcDbEntity
  8
0
  6
Continuous
 62
     7
370
    25
100
AcDbLine
 10
-21.0013087695
 20
-481.8118643914
 30
0.0
 11
-18.8610431987
 21
-481.8118643914
 31
0.0
  0
LINE
  5
B9
330
1F
100
AcDbEntity
  8
0
  6
Continuous
 62
     7
370
    25
100
AcDbLine
 10
-18.8610431987
 20
-481.8118643914
 30
0.0
 11
-18.8610431987
 21
-482.5823599968
 31
0.0
  0
LINE
  5
BA
330
1F
100
AcDbEntity
  8
0
  6
Continuous
 62
     7
370
    25
100
AcDbLine
 10
-18.8610431987
 20
-482.5823599968
 30
0.0
 11
-24.0832911913
 21
-482.5823599968
 31
0.0
  0
LINE
  5
BB
330
1F
100
AcDbEntity
  8
0
  6
Continuous
 62
     7
370
    25
100
AcDbLine
 10
-24.0832911913
 20
-482.5823599968
 30
0.0
 11
-24.0832911913
 21
-481.8118643914
 31
0.0
  0
LINE
  5
BC
330
1F
100
AcDbEntity
  8
0
  6
Continuous
 62
     7
370
    25
100
AcDbLine
 10
-24.0832911913
 20
-481.8118643914
 30
0.0
 11
-21.9430256206
 21
-481.8118643914
 31
0.0
  0
SPLINE
  5
BD
330
1F
100
AcDbEntity
  8
0
  6
Continuous
 62
     7
370
    25
100
AcDbSpline
210
0.0
220
0.0
230
1.0
 70
     8
 71
     3
 72
    23
 73
    19
 74
     0
 42
0.000000001
 43
0.00000001
 40
0.0
 40
0.0
 40
0.0
 40
0.0
 40
0.0694744696082634
 40
0.1341481695616745
 40
0.1940254503123184
 40
0.249805570083776
 40
0.3026442359404488
 40
0.3522865500223092
 40
0.3997954814829363
 40
0.4462125465245849
 40
0.4943140499230315
 40
0.5465949866419617
 40
0.6047820771213862
 40
0.6694016956884156
 40
0.7409058976065567
 40
0.8198431570261314
 40
0.9059751296180234
 40
1.0
 40
1.0
 40
1.0
 40
1.0
 10
-15.20787740264625
 20
-476.6752270215779
 30
0.0
 10
-15.281041689701
 20
-476.67647138455
 30
0.0
 10
-15.42231452331919
 20
-476.6788741235116
 30
0.0
 10
-15.62602115089252
 20
-476.6982855698439
 30
0.0
 10
-15.81278848732187
 20
-476.733590542747
 30
0.0
 10
-15.98449118581057
 20
-476.7794441620564
 30
0.0
 10
-16.13974418526684
 20
-476.8409286434327
 30
0.0
 10
-16.27966252422928
 20
-476.9153870765768
 30
0.0
 10
-16.40054570113129
 20
-477.0068845299957
 30
0.0
 10
-16.50992300578166
 20
-477.1095936776162
 30
0.0
 10
-16.60228746757051
 20
-477.2346267165837
 30
0.0
 10
-16.67947103931872
 20
-477.3832149847669
 30
0.0
 10
-16.74603528815554
 20
-477.5554811313683
 30
0.0
 10
-16.80054569553391
 20
-477.7530625457954
 30
0.0
 10
-16.84035359823886
 20
-477.9761979476957
 30
0.0
 10
-16.87145241424038
 20
-478.2234924946171
 30
0.0
 10
-16.88776385583991
 20
-478.4960202398483
 30
0.0
 10
-16.89054656306424
 20
-478.6857205927924
 30
0.0
 10
-16.89199887362742
 20
-478.7847262747449
 30
0.0
  0
LINE
  5
BE
330
1F
100
AcDbEntity
  8
0
  6
Continuous
 62
     7
370
    25
100
AcDbLine
 10
-16.8919988736
 20
-478.7847262747
 30
0.0
 11
-16.8919988736
 21
-482.5823599968
 31
0.0
  0
LINE
  5
BF
330
1F
100
AcDbEntity
  8
0
  6
Continuous
 62
     7
370
    25
100
AcDbLine
 10
-16.8919988736
 20
-482.5823599968
 30
0.0
 11
-17.8337157248
 21
-482.5823599968
 31
0.0
  0
LINE
  5
C0
330
1F
100
AcDbEntity
  8
0
  6
Continuous
 62
     7
370
    25
100
AcDbLine
 10
-17.8337157248
 20
-482.5823599968
 30
0.0
 11
-17.8337157248
 21
-478.7405832973
 31
0.0
  0
SPLINE
  5
C1
330
1F
100
AcDbEntity
  8
0
  6
Continuous
 62
     7
370
    25
100
AcDbSpline
210
0.0
220
0.0
230
1.0
 70
     8
 71
     3
 72
    31
 73
    27
 74
     0
 42
0.000000001
 43
0.00000001
 40
0.0
 40
0.0
 40
0.0
 40
0.0
 40
0.0546407144744603
 40
0.106330919884649
 40
0.1551479539521621
 40
0.2014721740885498
 40
0.244712501219017
 40
0.2858735626700153
 40
0.3242592771549823
 40
0.3605122850116913
 40
0.3955577268013071
 40
0.4300132653778028
 40
0.4647944888610821
 40
0.4994884769164697
 40
0.534572046124572
 40
0.5704816968023809
 40
0.6070358491176567
 40
0.6447988867778949
 40
0.6837172652645609
 40
0.7235221312955691
 40
0.764893775301425
 40
0.807993711388816
 40
0.8527841206740415
 40
0.8995220778459615
 40
0.9486367156944018
 40
1.0
 40
1.0
 40
1.0
 40
1.0
 10
-17.83371572475589
 20
-478.7405832973483
 30
0.0
 10
-17.83273627561401
 20
-478.6589792195613
 30
0.0
 10
-17.83083026597927
 20
-478.5001775504965
 30
0.0
 10
-17.82211119896229
 20
-478.2685762422209
 30
0.0
 10
-17.80496328510135
 20
-478.0498699685128
 30
0.0
 10
-17.77928461284859
 20
-477.8447318106843
 30
0.0
 10
-17.74859608673349
 20
-477.6518916031652
 30
0.0
 10
-17.71234094699778
 20
-477.4720006323679
 30
0.0
 10
-17.66614037141107
 20
-477.3052193058923
 30
0.0
 10
-17.61428262790311
 20
-477.1497168528993
 30
0.0
 10
-17.55253052122135
 20
-477.004123123318
 30
0.0
 10
-17.47950781007523
 20
-476.8663497629095
 30
0.0
 10
-17.39558276404489
 20
-476.7355315990927
 30
0.0
 10
-17.29980923287959
 20
-476.6119565590088
 30
0.0
 10
-17.19370935732004
 20
-476.4948741202757
 30
0.0
 10
-17.07603453721651
 20
-476.3852103892901
 30
0.0
 10
-16.94625667522774
 20
-476.283724092806
 30
0.0
 10
-16.8076662898805
 20
-476.1865786713274
 30
0.0
 10
-16.6566137042392
 20
-476.0997006646357
 30
0.0
 10
-16.49343140820985
 20
-476.0247633034469
 30
0.0
 10
-16.31916644415567
 20
-475.9603059585396
 30
0.0
 10
-16.13297028648077
 20
-475.9084862333833
 30
0.0
 10
-15.93569744723473
 20
-475.8688842860677
 30
0.0
 10
-15.72763365500109
 20
-475.8392720610489
 30
0.0
 10
-15.50826439088731
 20
-475.8217681635445
 30
0.0
 10
-15.35817380256086
 20
-475.820016318511
 30
0.0
 10
-15.28144903164066
 20
-475.8191207932792
 30
0.0
  0
SPLINE
  5
C2
330
1F
100
AcDbEntity
  8
0
  6
Continuous
 62
     7
370
    25
100
AcDbSpline
210
0.0
220
0.0
230
1.0
 70
     8
 71
     3
 72
    31
 73
    27
 74
     0
 42
0.000000001
 43
0.00000001
 40
0.0
 40
0.0
 40
0.0
 40
0.0
 40
0.0497116207271325
 40
0.096859214411337
 40
0.1421735749316024
 40
0.1857513898244721
 40
0.2272209046200708
 40
0.2670719723183272
 40
0.3056896236221043
 40
0.3429968028044792
 40
0.3793728775008132
 40
0.4149990750568741
 40
0.4498127975379191
 40
0.4845384316589772
 40
0.5190060671099259
 40
0.5537127960662752
 40
0.5890838528036977
 40
0.6250972698190534
 40
0.6626289535791523
 40
0.7026946408782568
 40
0.7451773326267972
 40
0.7902117778847687
 40
0.8382420175970767
 40
0.8892910979867624
 40
0.9431958830362389
 40
1.0
 40
1.0
 40
1.0
 40
1.0
 10
-15.28144903164066
 20
-475.8191207932792
 30
0.0
 10
-15.20651844872032
 20
-475.8202234310824
 30
0.0
 10
-15.06052205409693
 20
-475.8223718348126
 30
0.0
 10
-14.84657896580784
 20
-475.8369084095799
 30
0.0
 10
-14.6430653434559
 20
-475.8626439567314
 30
0.0
 10
-14.44939782295557
 20
-475.8964982715541
 30
0.0
 10
-14.26653023060471
 20
-475.941994512502
 30
0.0
 10
-14.09468106882591
 20
-475.9985999236995
 30
0.0
 10
-13.93273048159085
 20
-476.0638886388845
 30
0.0
 10
-13.78048169823618
 20
-476.1384314954204
 30
0.0
 10
-13.6402073285094
 20
-476.2251592391843
 30
0.0
 10
-13.508293205448
 20
-476.3177826972675
 30
0.0
 10
-13.38864160360129
 20
-476.4221557018719
 30
0.0
 10
-13.27894880078681
 20
-476.5343461788266
 30
0.0
 10
-13.17905098919768
 20
-476.6552762317516
 30
0.0
 10
-13.09090553553873
 20
-476.7860991464893
 30
0.0
 10
-13.01109657414549
 20
-476.9249387131745
 30
0.0
 10
-12.94485631446368
 20
-477.0753830330027
 30
0.0
 10
-12.88505208545289
 20
-477.2359558460799
 30
0.0
 10
-12.83493076330342
 20
-477.4100335603866
 30
0.0
 10
-12.7921334757424
 20
-477.5976163740161
 30
0.0
 10
-12.75809168714525
 20
-477.7991374018885
 30
0.0
 10
-12.72920323881496
 20
-478.0145181687707
 30
0.0
 10
-12.71200156505997
 20
-478.2445436360954
 30
0.0
 10
-12.69907509095007
 20
-478.4880636674342
 30
0.0
 10
-12.69775545352754
 20
-478.6549532091266
 30
0.0
 10
-12.69707835496422
 20
-478.7405832973483
 30
0.0
  0
LINE
  5
C3
330
1F
100
AcDbEntity
  8
0
  6
Continuous
 62
     7
370
    25
100
AcDbLine
 10
-12.697078355
 20
-478.7405832973
 30
0.0
 11
-12.697078355
 21
-482.5823599968
 31
0.0
  0
LINE
  5
C4
330
1F
100
AcDbEntity
  8
0
  6
Continuous
 62
     7
370
    25
100
AcDbLine
 10
-12.697078355
 20
-482.5823599968
 30
0.0
 11
-13.6387952061
 21
-482.5823599968
 31
0.0
  0
LINE
  5
C5
330
1F
100
AcDbEntity
  8
0
  6
Continuous
 62
     7
370
    25
100
AcDbLine
 10
-13.6387952061
 20
-482.5823599968
 30
0.0
 11
-13.6387952061
 21
-478.7847262747
 31
0.0
  0
SPLINE
  5
C6
330
1F
100
AcDbEntity
  8
0
  6
Continuous
 62
     7
370
    25
100
AcDbSpline
210
0.0
220
0.0
230
1.0
 70
     8
 71
     3
 72
    23
 73
    19
 74
     0
 42
0.000000001
 43
0.00000001
 40
0.0
 40
0.0
 40
0.0
 40
0.0
 40
0.0681523875531088
 40
0.1315010369953242
 40
0.1905477027371671
 40
0.2453197639237694
 40
0.2950611875673163
 40
0.3407600630993534
 40
0.3824532913135486
 40
0.4198550920819321
 40
0.4892845918911765
 40
0.5563548658519739
 40
0.6235057877707567
 40
0.6921963570884185
 40
0.7633731558925752
 40
0.8373400075977993
 40
0.9159106466220603
 40
1.0
 40
1.0
 40
1.0
 40
1.0
 10
-13.6387952060927
 20
-478.7847262747449
 30
0.0
 10
-13.63941125389887
 20
-478.7156102731977
 30
0.0
 10
-13.64059992722725
 20
-478.5822499287881
 30
0.0
 10
-13.64678480874462
 20
-478.3890607983955
 30
0.0
 10
-13.65920557288365
 20
-478.2097885237276
 30
0.0
 10
-13.67437054240979
 20
-478.0445722525593
 30
0.0
 10
-13.69569169024819
 20
-477.893653433436
 30
0.0
 10
-13.72249348045509
 20
-477.7571226095987
 30
0.0
 10
-13.75278192385517
 20
-477.6341891820047
 30
0.0
 10
-13.79794417874332
 20
-477.4903036734267
 30
0.0
 10
-13.8740112200557
 20
-477.3303143229934
 30
0.0
 10
-13.98922522582875
 20
-477.1576005060958
 30
0.0
 10
-14.13692515949877
 20
-477.0125674903269
 30
0.0
 10
-14.30805629429461
 20
-476.8895547243532
 30
0.0
 10
-14.50361476633452
 20
-476.7936137734213
 30
0.0
 10
-14.72015760601026
 20
-476.7237765234485
 30
0.0
 10
-14.95746277472848
 20
-476.6819556019931
 30
0.0
 10
-15.12253896305928
 20
-476.6775200447852
 30
0.0
 10
-15.20787740264625
 20
-476.6752270215779
 30
0.0
  0
LINE
  5
C7
330
1F
100
AcDbEntity
  8
0
  6
Continuous
 62
     7
370
    25
100
AcDbLine
 10
15.1263740647
 20
-478.9011032152
 30
0.0
 11
15.1263740647
 21
-475.9047314161
 31
0.0
  0
LINE
  5
C8
330
1F
100
AcDbEntity
  8
0
  6
Continuous
 62
     7
370
    25
100
AcDbLine
 10
15.1263740647
 20
-475.9047314161
 30
0.0
 11
16.0680909159
 21
-475.9047314161
 31
0.0
  0
LINE
  5
C9
330
1F
100
AcDbEntity
  8
0
  6
Continuous
 62
     7
370
    25
100
AcDbLine
 10
16.0680909159
 20
-475.9047314161
 30
0.0
 11
16.0680909159
 21
-482.5823599968
 31
0.0
  0
LINE
  5
CA
330
1F
100
AcDbEntity
  8
0
  6
Continuous
 62
     7
370
    25
100
AcDbLine
 10
16.0680909159
 20
-482.5823599968
 30
0.0
 11
13.1707063995
 21
-482.5823599968
 31
0.0
  0
SPLINE
  5
CB
330
1F
100
AcDbEntity
  8
0
  6
Continuous
 62
     7
370
    25
100
AcDbSpline
210
0.0
220
0.0
230
1.0
 70
     8
 71
     3
 72
    27
 73
    23
 74
     0
 42
0.000000001
 43
0.00000001
 40
0.0
 40
0.0
 40
0.0
 40
0.0
 40
0.062103784791307
 40
0.1201946065074403
 40
0.1743599492228155
 40
0.2250078830566555
 40
0.2723159650400818
 40
0.3163395597264819
 40
0.3568150324191112
 40
0.393918520275052
 40
0.4295244282576434
 40
0.4646130316301404
 40
0.4999612336346064
 40
0.535402518623144
 40
0.5715684610701129
 40
0.6081082509152367
 40
0.6455300397442336
 40
0.6843794722622789
 40
0.7626128937075364
 40
0.8405203125718312
 40
0.9190846743554514
 40
1.0
 40
1.0
 40
1.0
 40
1.0
 10
13.170706399471
 20
-482.5823599968383
 30
0.0
 10
13.10248154087388
 20
-482.5818279624029
 30
0.0
 10
12.97044031245821
 20
-482.5807982720251
 30
0.0
 10
12.77895856512534
 20
-482.5734403510533
 30
0.0
 10
12.60065185232594
 20
-482.55780844284
 30
0.0
 10
12.43439640899529
 20
-482.5403495130773
 30
0.0
 10
12.28047672308578
 20
-482.5145710621995
 30
0.0
 10
12.13881944023525
 20
-482.4843282895528
 30
0.0
 10
12.00996784838145
 20
-482.4485848493272
 30
0.0
 10
11.89294152764555
 20
-482.4063346203683
 30
0.0
 10
11.7843577973713
 20
-482.3585504783459
 30
0.0
 10
11.6837375240092
 20
-482.2995599889913
 30
0.0
 10
11.58676026959538
 20
-482.2350303291567
 30
0.0
 10
11.49729176182958
 20
-482.1585862041517
 30
0.0
 10
11.41130237005286
 20
-482.0764552561501
 30
0.0
 10
11.33239221668234
 20
-481.9845280398493
 30
0.0
 10
11.25822596035474
 20
-481.8851054086576
 30
0.0
 10
11.16804959016794
 20
-481.7411316013595
 30
0.0
 10
11.07333984905481
 20
-481.5481449694605
 30
0.0
 10
10.99176474399928
 20
-481.3029574177503
 30
0.0
 10
10.93989374849037
 20
-481.0462166064909
 30
0.0
 10
10.9342944607787
 20
-480.8708416867406
 30
0.0
 10
10.93145354607744
 20
-480.7818615854478
 30
0.0
  0
SPLINE
  5
CC
330
1F
100
AcDbEntity
  8
0
  6
Continuous
 62
     7
370
    25
100
AcDbSpline
210
0.0
220
0.0
230
1.0
 70
     8
 71
     3
 72
    23
 73
    19
 74
     0
 42
0.000000001
 43
0.00000001
 40
0.0
 40
0.0
 40
0.0
 40
0.0
 40
0.0614153619466839
 40
0.1212995515295358
 40
0.1792307330403416
 40
0.2359469026963487
 40
0.2922277422078025
 40
0.3482096381939317
 40
0.4044598375581933
 40
0.462042782104692
 40
0.520693633215472
 40
0.5803701846851917
 40
0.6422200441272178
 40
0.706552854069078
 40
0.7743053019200316
 40
0.8452659380071911
 40
0.9206237685683585
 40
1.0
 40
1.0
 40
1.0
 40
1.0
 10
10.93145354607744
 20
-480.7818615854478
 30
0.0
 10
10.93276025174926
 20
-480.7247400880215
 30
0.0
 10
10.93534108506114
 20
-480.6119212133806
 30
0.0
 10
10.95511023943575
 20
-480.4460470862173
 30
0.0
 10
10.99088169322284
 20
-480.2875617277619
 30
0.0
 10
11.03674902415101
 20
-480.1350738756203
 30
0.0
 10
11.09953676685545
 20
-479.9907559882922
 30
0.0
 10
11.17224039732349
 20
-479.8516158689008
 30
0.0
 10
11.26243691094617
 20
-479.7216414874069
 30
0.0
 10
11.36314615329042
 20
-479.5964889720295
 30
0.0
 10
11.48025277274413
 20
-479.4818062186479
 30
0.0
 10
11.61051504576611
 20
-479.3758117629748
 30
0.0
 10
11.75784918249571
 20
-479.2848506991655
 30
0.0
 10
11.91742289078794
 20
-479.2003183827691
 30
0.0
 10
12.09334864095931
 20
-479.1308953455894
 30
0.0
 10
12.28297330503209
 20
-479.0697661111467
 30
0.0
 10
12.48776447261925
 20
-479.0226337460991
 30
0.0
 10
12.62970828094855
 20
-478.9988926571972
 30
0.0
 10
12.7025233058702
 20
-478.9867138379842
 30
0.0
  0
SPLINE
  5
CD
330
1F
100
AcDbEntity
  8
0
  6
Continuous
 62
     7
370
    25
100
AcDbSpline
210
0.0
220
0.0
230
1.0
 70
     8
 71
     3
 72
    11
 73
     7
 74
     0
 42
0.000000001
 43
0.00000001
 40
0.0
 40
0.0
 40
0.0
 40
0.0
 40
0.2931378033625692
 40
0.5559096193872736
 40
0.7918699011047745
 40
0.9999999999999999
 40
0.9999999999999999
 40
0.9999999999999999
 40
0.9999999999999999
 10
12.7025233058702
 20
-478.9867138379842
 30
0.0
 10
12.64859294656106
 20
-478.9598320503846
 30
0.0
 10
12.54631884484829
 20
-478.9088531451001
 30
0.0
 10
12.40714568663303
 20
-478.8245048042967
 30
0.0
 10
12.28522381073213
 20
-478.7450980592105
 30
0.0
 10
12.21596715192473
 20
-478.685554195715
 30
0.0
 10
12.18350890496416
 20
-478.6576480064818
 30
0.0
  0
SPLINE
  5
CE
330
1F
100
AcDbEntity
  8
0
  6
Continuous
 62
     7
370
    25
100
AcDbSpline
210
0.0
220
0.0
230
1.0
 70
     8
 71
     3
 72
    11
 73
     7
 74
     0
 42
0.000000001
 43
0.00000001
 40
0.0
 40
0.0
 40
0.0
 40
0.0
 40
0.2295426438440538
 40
0.4707541631012173
 40
0.7281684972329705
 40
1.0
 40
1.0
 40
1.0
 40
1.0
 10
12.18350890496416
 20
-478.6576480064818
 30
0.0
 10
12.12032075415603
 20
-478.5958955727065
 30
0.0
 10
11.99073226221635
 20
-478.4692514999775
 30
0.0
 10
11.81389183989348
 20
-478.2515390519053
 30
0.0
 10
11.63891035004687
 20
-478.0121176697821
 30
0.0
 10
11.53385511779183
 20
-477.8376469000589
 30
0.0
 10
11.47989659858124
 20
-477.7480351389146
 30
0.0
  0
LINE
  5
CF
330
1F
100
AcDbEntity
  8
0
  6
Continuous
 62
     7
370
    25
100
AcDbLine
 10
11.4798965986
 20
-477.7480351389
 30
0.0
 11
10.3843481596
 21
-475.9047314161
 31
0.0
  0
LINE
  5
D0
330
1F
100
AcDbEntity
  8
0
  6
Continuous
 62
     7
370
    25
100
AcDbLine
 10
10.3843481596
 20
-475.9047314161
 30
0.0
 11
11.4638446068
 21
-475.9047314161
 31
0.0
  0
LINE
  5
D1
330
1F
100
AcDbEntity
  8
0
  6
Continuous
 62
     7
370
    25
100
AcDbLine
 10
11.4638446068
 20
-475.9047314161
 30
0.0
 11
12.2958728474
 21
-477.3146313608
 31
0.0
  0
SPLINE
  5
D2
330
1F
100
AcDbEntity
  8
0
  6
Continuous
 62
     7
370
    25
100
AcDbSpline
210
0.0
220
0.0
230
1.0
 70
     8
 71
     3
 72
    21
 73
    17
 74
     0
 42
0.000000001
 43
0.00000001
 40
0.0
 40
0.0
 40
0.0
 40
0.0
 40
0.0807565202394591
 40
0.1564928761205775
 40
0.2278645863308895
 40
0.2942194159581881
 40
0.3567576405440043
 40
0.4148044898400768
 40
0.4680257207328359
 40
0.516756676591459
 40
0.6042176202059664
 40
0.6814453118756354
 40
0.7479519834168844
 40
0.8047659882074052
 40
0.9054352660002555
 40
1.0
 40
1.0
 40
1.0
 40
1.0
 10
12.29587284742836
 20
-477.3146313608384
 30
0.0
 10
12.32579023571004
 20
-477.3640981670878
 30
0.0
 10
12.3837652218082
 20
-477.4599567152216
 30
0.0
 10
12.46747800229216
 20
-477.5999736640678
 30
0.0
 10
12.54966608037987
 20
-477.7288085375972
 30
0.0
 10
12.62552372316067
 20
-477.8504719760299
 30
0.0
 10
12.69986170911444
 20
-477.9617554658039
 30
0.0
 10
12.76650073987651
 20
-478.0668705785351
 30
0.0
 10
12.83342370812342
 20
-478.1598624941283
 30
0.0
 10
12.91026612773469
 20
-478.2715816988241
 30
0.0
 10
13.00410987926965
 20
-478.3923703644268
 30
0.0
 10
13.11361890183983
 20
-478.5164554557075
 30
0.0
 10
13.21430516198827
 20
-478.6192420354666
 30
0.0
 10
13.34153795012241
 20
-478.7173140966402
 30
0.0
 10
13.49974525075006
 20
-478.8071086452309
 30
0.0
 10
13.63313656673654
 20
-478.8497047763148
 30
0.0
 10
13.69774679626733
 20
-478.8703368975748
 30
0.0
  0
SPLINE
  5
D3
330
1F
100
AcDbEntity
  8
0
  6
Continuous
 62
     7
370
    25
100
AcDbSpline
210
0.0
220
0.0
230
1.0
 70
     8
 71
     3
 72
    11
 73
     7
 74
     0
 42
0.000000001
 43
0.00000001
 40
0.0
 40
0.0
 40
0.0
 40
0.0
 40
0.1774946570818464
 40
0.4052256231013682
 40
0.6783881083348502
 40
1.0
 40
1.0
 40
1.0
 40
1.0
 10
13.69774679626733
 20
-478.8703368975749
 30
0.0
 10
13.72488943338579
 20
-478.8752316375198
 30
0.0
 10
13.78685688761663
 20
-478.8864064755497
 30
0.0
 10
13.8920774702693
 20
-478.8937047800836
 30
0.0
 10
14.01956511479118
 20
-478.9014509539285
 30
0.0
 10
14.11195758339143
 20
-478.9012252564034
 30
0.0
 10
14.16191689192298
 20
-478.9011032151543
 30
0.0
  0
LINE
  5
D4
330
1F
100
AcDbEntity
  8
0
  6
Continuous
 62
     7
370
    25
100
AcDbLine
 10
14.1619168919
 20
-478.9011032152
 30
0.0
 11
15.1263740647
 21
-478.9011032152
 31
0.0
  0
LINE
  5
D5
330
1F
100
AcDbEntity
  8
0
  6
Continuous
 62
     7
370
    25
100
AcDbLine
 10
17.6090821268
 20
-482.5823599968
 30
0.0
 11
17.6090821268
 21
-475.9047314161
 31
0.0
  0
LINE
  5
D6
330
1F
100
AcDbEntity
  8
0
  6
Continuous
 62
     7
370
    25
100
AcDbLine
 10
17.6090821268
 20
-475.9047314161
 30
0.0
 11
18.5507989779
 21
-475.9047314161
 31
0.0
  0
LINE
  5
D7
330
1F
100
AcDbEntity
  8
0
  6
Continuous
 62
     7
370
    25
100
AcDbLine
 10
18.5507989779
 20
-475.9047314161
 30
0.0
 11
18.5507989779
 21
-482.5823599968
 31
0.0
  0
LINE
  5
D8
330
1F
100
AcDbEntity
  8
0
  6
Continuous
 62
     7
370
    25
100
AcDbLine
 10
18.5507989779
 20
-482.5823599968
 30
0.0
 11
17.6090821268
 21
-482.5823599968
 31
0.0
  0
LINE
  5
D9
330
1F
100
AcDbEntity
  8
0
  6
Continuous
 62
     7
370
    25
100
AcDbLine
 10
23.811839284
 20
-480.9009138578
 30
0.0
 11
25.2578562103
 21
-475.9047314161
 31
0.0
  0
LINE
  5
DA
330
1F
100
AcDbEntity
  8
0
  6
Continuous
 62
     7
370
    25
100
AcDbLine
 10
25.2578562103
 20
-475.9047314161
 30
0.0
 11
26.372131973
 21
-475.9047314161
 31
0.0
  0
LINE
  5
DB
330
1F
100
AcDbEntity
  8
0
  6
Continuous
 62
     7
370
    25
100
AcDbLine
 10
26.372131973
 20
-475.9047314161
 30
0.0
 11
28.053578112
 21
-482.5823599968
 31
0.0
  0
LINE
  5
DC
330
1F
100
AcDbEntity
  8
0
  6
Continuous
 62
     7
370
    25
100
AcDbLine
 10
28.053578112
 20
-482.5823599968
 30
0.0
 11
27.0810949433
 21
-482.5823599968
 31
0.0
  0
LINE
  5
DD
330
1F
100
AcDbEntity
  8
0
  6
Continuous
 62
     7
370
    25
100
AcDbLine
 10
27.0810949433
 20
-482.5823599968
 30
0.0
 11
26.0898844509
 21
-478.1908025789
 31
0.0
  0
SPLINE
  5
DE
330
1F
100
AcDbEntity
  8
0
  6
Continuous
 62
     7
370
    25
100
AcDbSpline
210
0.0
220
0.0
230
1.0
 70
     8
 71
     3
 72
     9
 73
     5
 74
     0
 42
0.000000001
 43
0.00000001
 40
0.0
 40
0.0
 40
0.0
 40
0.0
 40
0.502565389921802
 40
1.0
 40
1.0
 40
1.0
 40
1.0
 10
26.08988445088973
 20
-478.1908025788628
 30
0.0
 10
26.03851375819227
 20
-477.9643122241944
 30
0.0
 10
25.93629682537594
 20
-477.5136437953488
 30
0.0
 10
25.83519042827611
 20
-477.0627249241961
 30
0.0
 10
25.78489660705834
 20
-476.8384222713473
 30
0.0
  0
SPLINE
  5
DF
330
1F
100
AcDbEntity
  8
0
  6
Continuous
 62
     7
370
    25
100
AcDbSpline
210
0.0
220
0.0
230
1.0
 70
     8
 71
     3
 72
    15
 73
    11
 74
     0
 42
0.000000001
 43
0.00000001
 40
0.0
 40
0.0
 40
0.0
 40
0.0
 40
0.2042261540779096
 40
0.3855417648063397
 40
0.5445479239626508
 40
0.6809444004243381
 40
0.7947315708215129
 40
0.8862118064819043
 40
0.9537405078414547
 40
1.0
 40
1.0
 40
1.0
 40
1.0
 10
25.78489660705834
 20
-476.8384222713473
 30
0.0
 10
25.76108406076152
 20
-476.9190759538212
 30
0.0
 10
25.71613031247563
 20
-477.0713354096169
 30
0.0
 10
25.6553615566404
 20
-477.2871778604605
 30
0.0
 10
25.60016724284732
 20
-477.4755591501091
 30
0.0
 10
25.55314452019655
 20
-477.6373574835799
 30
0.0
 10
25.51507040318185
 20
-477.7728001782498
 30
0.0
 10
25.4821976432582
 20
-477.8802229206917
 30
0.0
 10
25.45979198067529
 20
-477.961729399054
 30
0.0
 10
25.44651434459341
 20
-478.0066641910213
 30
0.0
 10
25.44111644975718
 20
-478.0249319971299
 30
0.0
  0
LINE
  5
E0
330
1F
100
AcDbEntity
  8
0
  6
Continuous
 62
     7
370
    25
100
AcDbLine
 10
25.4411164498
 20
-478.0249319971
 30
0.0
 11
24.1221777918
 21
-482.5823599968
 31
0.0
  0
LINE
  5
E1
330
1F
100
AcDbEntity
  8
0
  6
Continuous
 62
     7
370
    25
100
AcDbLine
 10
24.1221777918
 20
-482.5823599968
 30
0.0
 11
22.9891747053
 21
-482.5823599968
 31
0.0
  0
LINE
  5
E2
330
1F
100
AcDbEntity
  8
0
  6
Continuous
 62
     7
370
    25
100
AcDbLine
 10
22.9891747053
 20
-482.5823599968
 30
0.0
 11
22.0354188603
 21
-479.2368573766
 31
0.0
  0
SPLINE
  5
E3
330
1F
100
AcDbEntity
  8
0
  6
Continuous
 62
     7
370
    25
100
AcDbSpline
210
0.0
220
0.0
230
1.0
 70
     8
 71
     3
 72
    11
 73
     7
 74
     0
 42
0.000000001
 43
0.00000001
 40
0.0
 40
0.0
 40
0.0
 40
0.0
 40
0.2603861425240795
 40
0.5134251205046665
 40
0.7599736215259856
 40
1.0
 40
1.0
 40
1.0
 40
1.0
 10
22.03541886030677
 20
-479.2368573765651
 30
0.0
 10
21.9827848186368
 20
-479.0301853458465
 30
0.0
 10
21.87900187947923
 20
-478.6226728290588
 30
0.0
 10
21.74110949420527
 20
-478.0156678398675
 30
0.0
 10
21.61383922951872
 20
-477.4233889146042
 30
0.0
 10
21.5405291671987
 20
-477.0316608920751
 30
0.0
 10
21.50436546556529
 20
-476.8384222713473
 30
0.0
  0
SPLINE
  5
E4
330
1F
100
AcDbEntity
  8
0
  6
Continuous
 62
     7
370
    25
100
AcDbSpline
210
0.0
220
0.0
230
1.0
 70
     8
 71
     3
 72
    11
 73
     7
 74
     0
 42
0.000000001
 43
0.00000001
 40
0.0
 40
0.0
 40
0.0
 40
0.0
 40
0.2146091143448237
 40
0.4533589181038019
 40
0.7146093161750715
 40
1.0
 40
1.0
 40
1.0
 40
1.0
 10
21.50436546556529
 20
-476.8384222713473
 30
0.0
 10
21.48198492882305
 20
-476.9369442923143
 30
0.0
 10
21.43470634070241
 20
-477.145070759689
 30
0.0
 10
21.36200023546874
 20
-477.4735399905331
 30
0.0
 10
21.27948187605449
 20
-477.8339559699738
 30
0.0
 10
21.22333838383619
 20
-478.0851005360501
 30
0.0
 10
21.19402695780704
 20
-478.2162182325154
 30
0.0
  0
LINE
  5
E5
330
1F
100
AcDbEntity
  8
0
  6
Continuous
 62
     7
370
    25
100
AcDbLine
 10
21.1940269578
 20
-478.2162182325
 30
0.0
 11
20.2081671293
 21
-482.5823599968
 31
0.0
  0
LINE
  5
E6
330
1F
100
AcDbEntity
  8
0
  6
Continuous
 62
     7
370
    25
100
AcDbLine
 10
20.2081671293
 20
-482.5823599968
 30
0.0
 11
19.2356839606
 21
-482.5823599968
 31
0.0
  0
LINE
  5
E7
330
1F
100
AcDbEntity
  8
0
  6
Continuous
 62
     7
370
    25
100
AcDbLine
 10
19.2356839606
 20
-482.5823599968
 30
0.0
 11
20.9184677656
 21
-475.9047314161
 31
0.0
  0
LINE
  5
E8
330
1F
100
AcDbEntity
  8
0
  6
Continuous
 62
     7
370
    25
100
AcDbLine
 10
20.9184677656
 20
-475.9047314161
 30
0.0
 11
21.9538212354
 21
-475.9047314161
 31
0.0
  0
LINE
  5
E9
330
1F
100
AcDbEntity
  8
0
  6
Continuous
 62
     7
370
    25
100
AcDbLine
 10
21.9538212354
 20
-475.9047314161
 30
0.0
 11
23.3490068544
 21
-481.0079271364
 31
0.0
  0
SPLINE
  5
EA
330
1F
100
AcDbEntity
  8
0
  6
Continuous
 62
     7
370
    25
100
AcDbSpline
210
0.0
220
0.0
230
1.0
 70
     8
 71
     3
 72
    15
 73
    11
 74
     0
 42
0.000000001
 43
0.00000001
 40
0.0
 40
0.0
 40
0.0
 40
0.0
 40
0.1952799535336746
 40
0.3709591958780741
 40
0.5263022405927665
 40
0.662039984591575
 40
0.776996421772987
 40
0.8711733101151216
 40
0.9457569341303108
 40
1.0
 40
1.0
 40
1.0
 40
1.0
 10
23.34900685435245
 20
-481.0079271363579
 30
0.0
 10
23.36301652770762
 20
-481.0578156173599
 30
0.0
 10
23.38962969034057
 20
-481.1525851544334
 30
0.0
 10
23.42451331351608
 20
-481.2878244959199
 30
0.0
 10
23.45910634969963
 20
-481.4067619324689
 30
0.0
 10
23.48662169892216
 20
-481.5109345354145
 30
0.0
 10
23.51043392988134
 20
-481.5992925686645
 30
0.0
 10
23.5315206789599
 20
-481.6715773348642
 30
0.0
 10
23.54508310897353
 20
-481.7292035622253
 30
0.0
 10
23.55489082843182
 20
-481.7619565956303
 30
0.0
 10
23.55902041348196
 20
-481.7757474098632
 30
0.0
  0
SPLINE
  5
EB
330
1F
100
AcDbEntity
  8
0
  6
Continuous
 62
     7
370
    25
100
AcDbSpline
210
0.0
220
0.0
230
1.0
 70
     8
 71
     3
 72
    11
 73
     7
 74
     0
 42
0.000000001
 43
0.00000001
 40
0.0
 40
0.0
 40
0.0
 40
0.0
 40
0.2994330064501544
 40
0.5671911788638869
 40
0.7996365311686354
 40
1.0
 40
1.0
 40
1.0
 40
1.0
 10
23.55902041348196
 20
-481.7757474098632
 30
0.0
 10
23.5838460318494
 20
-481.6883116109155
 30
0.0
 10
23.63087114746637
 20
-481.522689208536
 30
0.0
 10
23.69935552044226
 20
-481.2898233348625
 30
0.0
 10
23.75823490913031
 20
-481.0854834451761
 30
0.0
 10
23.79487650996173
 20
-480.9593197662111
 30
0.0
 10
23.81183928402639
 20
-480.9009138578205
 30
0.0
  0
LINE
  5
EC
330
1F
100
AcDbEntity
  8
0
  6
Continuous
 62
     7
370
    25
100
AcDbLine
 10
13.1359270839
 20
-481.8118643914
 30
0.0
 11
15.1263740647
 21
-481.8118643914
 31
0.0
  0
LINE
  5
ED
330
1F
100
AcDbEntity
  8
0
  6
Continuous
 62
     7
370
    25
100
AcDbLine
 10
15.1263740647
 20
-481.8118643914
 30
0.0
 11
15.1263740647
 21
-479.6715988206
 31
0.0
  0
LINE
  5
EE
330
1F
100
AcDbEntity
  8
0
  6
Continuous
 62
     7
370
    25
100
AcDbLine
 10
15.1263740647
 20
-479.6715988206
 30
0.0
 11
13.3379146472
 21
-479.6715988206
 31
0.0
  0
SPLINE
  5
EF
330
1F
100
AcDbEntity
  8
0
  6
Continuous
 62
     7
370
    25
100
AcDbSpline
210
0.0
220
0.0
230
1.0
 70
     8
 71
     3
 72
    19
 73
    15
 74
     0
 42
0.000000001
 43
0.00000001
 40
0.0
 40
0.0
 40
0.0
 40
0.0
 40
0.1288380429995058
 40
0.2408506371773584
 40
0.3379858977314515
 40
0.4208544298319394
 40
0.4947796491112567
 40
0.5659088810869801
 40
0.6370496543952548
 40
0.7093806720350431
 40
0.7821614733091753
 40
0.8536820657736433
 40
0.9261831408996638
 40
1.0
 40
1.0
 40
1.0
 40
1.0
 10
13.33791464718557
 20
-479.671598820623
 30
0.0
 10
13.24823046408179
 20
-479.6729898154417
 30
0.0
 10
13.08057429559002
 20
-479.6755901497885
 30
0.0
 10
12.84619326484909
 20
-479.6981347033018
 30
0.0
 10
12.64570340360605
 20
-479.7333750714446
 30
0.0
 10
12.47654374543392
 20
-479.7868992536589
 30
0.0
 10
12.33438154581
 20
-479.8585786956815
 30
0.0
 10
12.21116923462541
 20
-479.9462357167699
 30
0.0
 10
12.10756919792152
 20
-480.0549848692692
 30
0.0
 10
12.0223671144213
 20
-480.17968190967
 30
0.0
 10
11.95576233725508
 20
-480.3155758153891
 30
0.0
 10
11.90922229549975
 20
-480.4594028314755
 30
0.0
 10
11.87797694237927
 20
-480.6084050035521
 30
0.0
 10
11.8747821554494
 20
-480.7103604489172
 30
0.0
 10
11.87317039720592
 20
-480.761796595722
 30
0.0
  0
SPLINE
  5
F0
330
1F
100
AcDbEntity
  8
0
  6
Continuous
 62
     7
370
    25
100
AcDbSpline
210
0.0
220
0.0
230
1.0
 70
     8
 71
     3
 72
    23
 73
    19
 74
     0
 42
0.000000001
 43
0.00000001
 40
0.0
 40
0.0
 40
0.0
 40
0.0
 40
0.0603272326790201
 40
0.1181633268525888
 40
0.1741915946005271
 40
0.2288671201360003
 40
0.2834295822545134
 40
0.337807814937281
 40
0.3926149530011101
 40
0.4484500033869077
 40
0.505951459684106
 40
0.5650462512987633
 40
0.6266439369048302
 40
0.6922233429555638
 40
0.7611243334651931
 40
0.8353052271782889
 40
0.915323168979707
 40
1.0
 40
1.0
 40
1.0
 40
1.0
 10
11.87317039720592
 20
-480.761796595722
 30
0.0
 10
11.87440773312327
 20
-480.7992811714445
 30
0.0
 10
11.87683131070069
 20
-480.8727024436682
 30
0.0
 10
11.88967172868192
 20
-480.9804293204358
 30
0.0
 10
11.91410173855313
 20
-481.082517957706
 30
0.0
 10
11.94783625593629
 20
-481.1797042614593
 30
0.0
 10
11.99054907710486
 20
-481.2721992363315
 30
0.0
 10
12.04303637728312
 20
-481.3596390944812
 30
0.0
 10
12.10502732502064
 20
-481.4415772285218
 30
0.0
 10
12.17613821001299
 20
-481.5184170241837
 30
0.0
 10
12.25775773236656
 20
-481.5883443395822
 30
0.0
 10
12.35099439091776
 20
-481.6486736012897
 30
0.0
 10
12.45510364946345
 20
-481.6999412499521
 30
0.0
 10
12.57020911525786
 20
-481.7406304674602
 30
0.0
 10
12.69594743878374
 20
-481.7731752812477
 30
0.0
 10
12.83303463851736
 20
-481.7948262799464
 30
0.0
 10
12.98084372164792
 20
-481.8104928755257
 30
0.0
 10
13.08326684733128
 20
-481.8113986782991
 30
0.0
 10
13.13592708394637
 20
-481.8118643913696
 30
0.0
  0
SPLINE
  5
F1
330
1F
100
AcDbEntity
  8
0
  6
Continuous
 62
     7
370
    25
100
AcDbSpline
210
0.0
220
0.0
230
1.0
 70
     8
 71
     3
 72
    31
 73
    27
 74
     0
 42
0.000000001
 43
0.00000001
 40
0.0
 40
0.0
 40
0.0
 40
0.0
 40
0.0508466776274402
 40
0.0997427809170244
 40
0.1474233302100529
 40
0.1940669363979501
 40
0.2391477013626631
 40
0.283312307313426
 40
0.3265454360451969
 40
0.3689004543555876
 40
0.4105320023339904
 40
0.451006792287187
 40
0.490829194283508
 40
0.5302046750280808
 40
0.5691144605642197
 40
0.6077519069652264
 40
0.6465903693423953
 40
0.6858458117594884
 40
0.7249612465918654
 40
0.7636719104855925
 40
0.8021977385530134
 40
0.8410893263554321
 40
0.8796610640654366
 40
0.9190784718625334
 40
0.9591018341952225
 40
1.0
 40
1.0
 40
1.0
 40
1.0
 10
-10.55681278421769
 20
-479.2395327085285
 30
0.0
 10
-10.55624420113943
 20
-479.3055547716747
 30
0.0
 10
-10.55512884690087
 20
-479.4350661672538
 30
0.0
 10
-10.54035780336352
 20
-479.6259674408623
 30
0.0
 10
-10.52130507917277
 20
-479.8109306123437
 30
0.0
 10
-10.49229690973761
 20
-479.9897169177246
 30
0.0
 10
-10.45232032187909
 20
-480.1615863036742
 30
0.0
 10
-10.40803185992135
 20
-480.3278459855181
 30
0.0
 10
-10.35265512328313
 20
-480.4870676581172
 30
0.0
 10
-10.28980681613132
 20
-480.6398596602259
 30
0.0
 10
-10.21953723447385
 20
-480.7854956896945
 30
0.0
 10
-10.14007801657952
 20
-480.922538431766
 30
0.0
 10
-10.05311713532901
 20
-481.0514426004337
 30
0.0
 10
-9.957753734648932
 20
-481.1716327659161
 30
0.0
 10
-9.85639862879484
 20
-481.2848061130891
 30
0.0
 10
-9.745825305502695
 20
-481.3880204389939
 30
0.0
 10
-9.627855288657141
 20
-481.48332915128
 30
0.0
 10
-9.502473817268857
 20
-481.56975722155
 30
0.0
 10
-9.371693041458482
 20
-481.6474494590826
 30
0.0
 10
-9.23617669196713
 20
-481.714452815428
 30
0.0
 10
-9.096356432968859
 20
-481.7712588138615
 30
0.0
 10
-8.952376020424275
 20
-481.8157710076093
 30
0.0
 10
-8.80510177169713
 20
-481.8525202968829
 30
0.0
 10
-8.654178528424941
 20
-481.879741753545
 30
0.0
 10
-8.498423708370787
 20
-481.894013149041
 30
0.0
 10
-8.393386573008833
 20
-481.8963127724414
 30
0.0
 10
-8.340300252513321
 20
-481.8974750141994
 30
0.0
  0
SPLINE
  5
F2
330
1F
100
AcDbEntity
  8
0
  6
Continuous
 62
     7
370
    25
100
AcDbSpline
210
0.0
220
0.0
230
1.0
 70
     8
 71
     3
 72
    23
 73
    19
 74
     0
 42
0.000000001
 43
0.00000001
 40
0.0
 40
0.0
 40
0.0
 40
0.0
 40
0.0559436334681676
 40
0.1107124482152117
 40
0.1640549680455909
 40
0.2168750971890454
 40
0.2695777362270472
 40
0.3232718778703247
 40
0.3775758794768012
 40
0.4334442719513439
 40
0.4909173070766032
 40
0.5506207536203481
 40
0.6131134137154823
 40
0.6798578844234503
 40
0.7513555212489388
 40
0.828259565975753
 40
0.910794234605684
 40
1.0
 40
1.0
 40
1.0
 40
1.0
 10
-8.340300252513321
 20
-481.8974750141994
 30
0.0
 10
-8.265272612901478
 20
-481.895959774963
 30
0.0
 10
-8.11679291735288
 20
-481.8929611165797
 30
0.0
 10
-7.898834424854697
 20
-481.8605570847337
 30
0.0
 10
-7.688467122135057
 20
-481.8117734111837
 30
0.0
 10
-7.487158618905022
 20
-481.741307864287
 30
0.0
 10
-7.292614517170356
 20
-481.6528434133861
 30
0.0
 10
-7.107073621736019
 20
-481.5427018083912
 30
0.0
 10
-6.929355142598452
 20
-481.4131932101562
 30
0.0
 10
-6.760214339901798
 20
-481.2648686883329
 30
0.0
 10
-6.602569474496484
 20
-481.0937512756886
 30
0.0
 10
-6.469222398291206
 20
-480.892139306828
 30
0.0
 10
-6.356854868115861
 20
-480.6646995422014
 30
0.0
 10
-6.263024014003266
 20
-480.4120503123734
 30
0.0
 10
-6.191482415688236
 20
-480.1322228600985
 30
0.0
 10
-6.142037761417759
 20
-479.8264249942325
 30
0.0
 10
-6.110819543938193
 20
-479.4943334149535
 30
0.0
 10
-6.107029190272073
 20
-479.2641307566248
 30
0.0
 10
-6.105060397064916
 20
-479.1445584238267
 30
0.0
  0
SPLINE
  5
F3
330
1F
100
AcDbEntity
  8
0
  6
Continuous
 62
     7
370
    25
100
AcDbSpline
210
0.0
220
0.0
230
1.0
 70
     8
 71
     3
 72
    23
 73
    19
 74
     0
 42
0.000000001
 43
0.00000001
 40
0.0
 40
0.0
 40
0.0
 40
0.0
 40
0.0759760013778311
 40
0.1481478407297728
 40
0.2172337747939356
 40
0.2833431655068685
 40
0.3472548812513585
 40
0.4095240071566336
 40
0.4706594156981947
 40
0.5318312023373071
 40
0.5919914954774744
 40
0.6505190018595173
 40
0.7075730075804287
 40
0.7641724617862123
 40
0.8211202236130752
 40
0.879100355202931
 40
0.9384134163756579
 40
1.0
 40
1.0
 40
1.0
 40
1.0
 10
-6.105060397064916
 20
-479.1445584238267
 30
0.0
 10
-6.106502716107848
 20
-479.0481518174097
 30
0.0
 10
-6.109315136450837
 20
-478.8601657387301
 30
0.0
 10
-6.141520316981266
 20
-478.5860991277916
 30
0.0
 10
-6.190329068596768
 20
-478.3274768501043
 30
0.0
 10
-6.257803658581774
 20
-478.0836941114796
 30
0.0
 10
-6.347890465245486
 20
-477.8565430176175
 30
0.0
 10
-6.458032202630728
 20
-477.6455873707768
 30
0.0
 10
-6.587231185006792
 20
-477.4498300777155
 30
0.0
 10
-6.73541942891557
 20
-477.2714895887478
 30
0.0
 10
-6.898245646217342
 20
-477.1112267517333
 30
0.0
 10
-7.072244838461909
 20
-476.9711844600405
 30
0.0
 10
-7.2572553582854
 20
-476.8544080469845
 30
0.0
 10
-7.450827692851072
 20
-476.7568694379721
 30
0.0
 10
-7.655528362308316
 20
-476.6817162973464
 30
0.0
 10
-7.870376654515497
 20
-476.6285897592148
 30
0.0
 10
-8.095368354779627
 20
-476.5954286660946
 30
0.0
 10
-8.24877689556201
 20
-476.5915779587633
 30
0.0
 10
-8.326923592696156
 20
-476.589616398748
 30
0.0
  0
SPLINE
  5
F4
330
1F
100
AcDbEntity
  8
0
  6
Continuous
 62
     7
370
    25
100
AcDbSpline
210
0.0
220
0.0
230
1.0
 70
     8
 71
     3
 72
    23
 73
    19
 74
     0
 42
0.000000001
 43
0.00000001
 40
0.0
 40
0.0
 40
0.0
 40
0.0
 40
0.0610568331758592
 40
0.1195491072443137
 40
0.1768119204410548
 40
0.2329638143038572
 40
0.2885925718320196
 40
0.3446775085759236
 40
0.4016741513521803
 40
0.4605545907654066
 40
0.5204934420294793
 40
0.5812311564527397
 40
0.643451008851649
 40
0.7078620323407345
 40
0.775363674324029
 40
0.8464088438329609
 40
0.9211494057947074
 40
1.0
 40
1.0
 40
1.0
 40
1.0
 10
-8.326923592696156
 20
-476.589616398748
 30
0.0
 10
-8.406395583340565
 20
-476.5916055556219
 30
0.0
 10
-8.562001516997537
 20
-476.5955003191737
 30
0.0
 10
-8.790375301362557
 20
-476.6281019930607
 30
0.0
 10
-9.007355980511878
 20
-476.6836049452529
 30
0.0
 10
-9.215094130289387
 20
-476.7574919745692
 30
0.0
 10
-9.409834376769492
 20
-476.8573745427844
 30
0.0
 10
-9.59612989138851
 20
-476.9743368448882
 30
0.0
 10
-9.768906946945581
 20
-477.1172600321222
 30
0.0
 10
-9.932388352780237
 20
-477.2778110232513
 30
0.0
 10
-10.07907497849637
 20
-477.4602862305574
 30
0.0
 10
-10.2090191327141
 20
-477.6602864677996
 30
0.0
 10
-10.31530487246065
 20
-477.8802971160521
 30
0.0
 10
-10.40396622989602
 20
-478.1171540956382
 30
0.0
 10
-10.47351373522635
 20
-478.3723438209684
 30
0.0
 10
-10.52213395281208
 20
-478.6458640521154
 30
0.0
 10
-10.55211764426183
 20
-478.9369937878321
 30
0.0
 10
-10.5552200644296
 20
-479.1369032384401
 30
0.0
 10
-10.55681278421769
 20
-479.2395327085285
 30
0.0
  0
ENDSEC
  0
SECTION
  2
OBJECTS
  0
DICTIONARY
  5
C
330
0
100
AcDbDictionary
281
     1
  3
ACAD_GROUP
350
D
  3
ACAD_LAYOUT
350
1A
  3
ACAD_MLINESTYLE
350
17
  3
ACAD_PLOTSETTINGS
350
19
  3
ACAD_PLOTSTYLENAME
350
E
  3
ACAD_SCALELIST
350
47
  0
DICTIONARY
  5
D
102
{ACAD_REACTORS
330
C
102
}
330
C
100
AcDbDictionary
281
     1
  0
DICTIONARY
  5
1A
102
{ACAD_REACTORS
330
C
102
}
330
C
100
AcDbDictionary
281
     1
  3
Layout1
350
1E
  3
Layout2
350
26
  3
Model
350
22
  0
DICTIONARY
  5
17
102
{ACAD_REACTORS
330
C
102
}
330
C
100
AcDbDictionary
281
     1
  3
Standard
350
18
  0
DICTIONARY
  5
19
102
{ACAD_REACTORS
330
C
102
}
330
C
100
AcDbDictionary
281
     1
  0
ACDBDICTIONARYWDFLT
  5
E
102
{ACAD_REACTORS
330
C
102
}
330
C
100
AcDbDictionary
281
     1
  3
Normal
350
F
100
AcDbDictionaryWithDefault
340
F
  0
DICTIONARY
  5
47
102
{ACAD_REACTORS
330
C
102
}
330
C
100
AcDbDictionary
281
     1
  3
A0
350
48
  3
A1
350
49
  3
A2
350
4A
  3
A3
350
4B
  3
A4
350
4C
  3
A5
350
4D
  3
A6
350
4E
  3
A7
350
4F
  3
A8
350
50
  3
A9
350
51
  3
B0
350
52
  3
B1
350
53
  3
B2
350
54
  3
B3
350
55
  3
B4
350
56
  3
B5
350
57
  3
B6
350
58
  3
B7
350
59
  3
B8
350
5A
  3
B9
350
5B
  3
C0
350
5C
  3
C1
350
5D
  3
C2
350
5E
  3
C3
350
5F
  3
C4
350
60
  3
C5
350
61
  3
C6
350
62
  3
C7
350
63
  3
C8
350
64
  3
C9
350
65
  3
D0
350
66
  3
D1
350
67
  3
D2
350
68
  0
LAYOUT
  5
1E
102
{ACAD_REACTORS
330
1A
102
}
330
1A
100
AcDbPlotSettings
  1

  2
none_device
  4

  6

 40
0.0
 41
0.0
 42
0.0
 43
0.0
 44
0.0
 45
0.0
 46
0.0
 47
0.0
 48
0.0
 49
0.0
140
0.0
141
0.0
142
1.0
143
1.0
 70
   688
 72
     1
 73
     0
 74
     5
  7

 75
    16
147
1.0
148
0.0
149
0.0
100
AcDbLayout
  1
Layout1
 70
     1
 71
     1
 10
0.0
 20
0.0
 11
420.0
 21
297.0
 12
0.0
 22
0.0
 32
0.0
 14
1.0000000000E+20
 24
1.0000000000E+20
 34
1.0000000000E+20
 15
-1.0000000000E+20
 25
-1.0000000000E+20
 35
-1.0000000000E+20
146
0.0
 13
0.0
 23
0.0
 33
0.0
 16
1.0
 26
0.0
 36
0.0
 17
0.0
 27
1.0
 37
0.0
 76
     0
330
1B
  0
LAYOUT
  5
26
102
{ACAD_REACTORS
330
1A
102
}
330
1A
100
AcDbPlotSettings
  1

  2
none_device
  4

  6

 40
0.0
 41
0.0
 42
0.0
 43
0.0
 44
0.0
 45
0.0
 46
0.0
 47
0.0
 48
0.0
 49
0.0
140
0.0
141
0.0
142
1.0
143
1.0
 70
   688
 72
     1
 73
     0
 74
     5
  7

 75
    16
147
1.0
148
0.0
149
0.0
100
AcDbLayout
  1
Layout2
 70
     1
 71
     2
 10
0.0
 20
0.0
 11
0.0
 21
0.0
 12
0.0
 22
0.0
 32
0.0
 14
0.0
 24
0.0
 34
0.0
 15
0.0
 25
0.0
 35
0.0
146
0.0
 13
0.0
 23
0.0
 33
0.0
 16
1.0
 26
0.0
 36
0.0
 17
0.0
 27
1.0
 37
0.0
 76
     0
330
23
  0
LAYOUT
  5
22
102
{ACAD_REACTORS
330
1A
102
}
330
1A
100
AcDbPlotSettings
  1

  2
none_device
  4
ANSI_A_(11.00_x_8.50_Inches)
  6

 40
6.35
 41
19.05
 42
6.35000508
 43
19.05000254
 44
279.4
 45
215.9
 46
132.5685389146
 47
264.021796307
 48
0.0
 49
0.0
140
0.0
141
0.0
142
0.0228482216
143
1.0
 70
  1696
 72
     0
 73
     0
 74
     0
  7

 75
     0
147
0.0179189148
148
-1300.4909072572
149
0.0
100
AcDbLayout
  1
Model
 70
     1
 71
     0
 10
0.0
 20
0.0
 11
420.0
 21
297.0
 12
0.0
 22
0.0
 32
0.0
 14
-112.9534582403
 24
-485.9047314161
 34
0.0
 15
115.6465417597
 25
-117.6047314161
 35
0.0
146
0.0
 13
0.0
 23
0.0
 33
0.0
 16
1.0
 26
0.0
 36
0.0
 17
0.0
 27
1.0
 37
0.0
 76
     0
330
1F
331
29
  0
MLINESTYLE
  5
18
102
{ACAD_REACTORS
330
17
102
}
330
17
100
AcDbMlineStyle
  2
Standard
 70
     0
  3

 62
   256
 51
90.0
 52
90.0
 71
     2
 49
0.5
 62
   256
  6
BYLAYER
 49
-0.5
 62
   256
  6
BYLAYER
  0
ACDBPLACEHOLDER
  5
F
102
{ACAD_REACTORS
330
E
102
}
330
E
  0
SCALE
  5
48
102
{ACAD_REACTORS
330
47
102
}
330
47
100
AcDbScale
 70
     0
300
1:1
140
1.0
141
1.0
290
     1
  0
SCALE
  5
49
102
{ACAD_REACTORS
330
47
102
}
330
47
100
AcDbScale
 70
     0
300
1:2
140
1.0
141
2.0
290
     0
  0
SCALE
  5
4A
102
{ACAD_REACTORS
330
47
102
}
330
47
100
AcDbScale
 70
     0
300
1:4
140
1.0
141
4.0
290
     0
  0
SCALE
  5
4B
102
{ACAD_REACTORS
330
47
102
}
330
47
100
AcDbScale
 70
     0
300
1:5
140
1.0
141
5.0
290
     0
  0
SCALE
  5
4C
102
{ACAD_REACTORS
330
47
102
}
330
47
100
AcDbScale
 70
     0
300
1:8
140
1.0
141
8.0
290
     0
  0
SCALE
  5
4D
102
{ACAD_REACTORS
330
47
102
}
330
47
100
AcDbScale
 70
     0
300
1:10
140
1.0
141
10.0
290
     0
  0
SCALE
  5
4E
102
{ACAD_REACTORS
330
47
102
}
330
47
100
AcDbScale
 70
     0
300
1:16
140
1.0
141
16.0
290
     0
  0
SCALE
  5
4F
102
{ACAD_REACTORS
330
47
102
}
330
47
100
AcDbScale
 70
     0
300
1:20
140
1.0
141
20.0
290
     0
  0
SCALE
  5
50
102
{ACAD_REACTORS
330
47
102
}
330
47
100
AcDbScale
 70
     0
300
1:30
140
1.0
141
30.0
290
     0
  0
SCALE
  5
51
102
{ACAD_REACTORS
330
47
102
}
330
47
100
AcDbScale
 70
     0
300
1:40
140
1.0
141
40.0
290
     0
  0
SCALE
  5
52
102
{ACAD_REACTORS
330
47
102
}
330
47
100
AcDbScale
 70
     0
300
1:50
140
1.0
141
50.0
290
     0
  0
SCALE
  5
53
102
{ACAD_REACTORS
330
47
102
}
330
47
100
AcDbScale
 70
     0
300
1:100
140
1.0
141
100.0
290
     0
  0
SCALE
  5
54
102
{ACAD_REACTORS
330
47
102
}
330
47
100
AcDbScale
 70
     0
300
2:1
140
2.0
141
1.0
290
     0
  0
SCALE
  5
55
102
{ACAD_REACTORS
330
47
102
}
330
47
100
AcDbScale
 70
     0
300
4:1
140
4.0
141
1.0
290
     0
  0
SCALE
  5
56
102
{ACAD_REACTORS
330
47
102
}
330
47
100
AcDbScale
 70
     0
300
8:1
140
8.0
141
1.0
290
     0
  0
SCALE
  5
57
102
{ACAD_REACTORS
330
47
102
}
330
47
100
AcDbScale
 70
     0
300
10:1
140
10.0
141
1.0
290
     0
  0
SCALE
  5
58
102
{ACAD_REACTORS
330
47
102
}
330
47
100
AcDbScale
 70
     0
300
100:1
140
100.0
141
1.0
290
     0
  0
SCALE
  5
59
102
{ACAD_REACTORS
330
47
102
}
330
47
100
AcDbScale
 70
     0
300
1/128" = 1'-0"
140
0.0078125
141
12.0
290
     0
  0
SCALE
  5
5A
102
{ACAD_REACTORS
330
47
102
}
330
47
100
AcDbScale
 70
     0
300
1/64" = 1'-0"
140
0.015625
141
12.0
290
     0
  0
SCALE
  5
5B
102
{ACAD_REACTORS
330
47
102
}
330
47
100
AcDbScale
 70
     0
300
1/32" = 1'-0"
140
0.03125
141
12.0
290
     0
  0
SCALE
  5
5C
102
{ACAD_REACTORS
330
47
102
}
330
47
100
AcDbScale
 70
     0
300
1/16" = 1'-0"
140
0.0625
141
12.0
290
     0
  0
SCALE
  5
5D
102
{ACAD_REACTORS
330
47
102
}
330
47
100
AcDbScale
 70
     0
300
3/32" = 1'-0"
140
0.09375
141
12.0
290
     0
  0
SCALE
  5
5E
102
{ACAD_REACTORS
330
47
102
}
330
47
100
AcDbScale
 70
     0
300
1/8" = 1'-0"
140
0.125
141
12.0
290
     0
  0
SCALE
  5
5F
102
{ACAD_REACTORS
330
47
102
}
330
47
100
AcDbScale
 70
     0
300
3/16" = 1'-0"
140
0.1875
141
12.0
290
     0
  0
SCALE
  5
60
102
{ACAD_REACTORS
330
47
102
}
330
47
100
AcDbScale
 70
     0
300
1/4" = 1'-0"
140
0.25
141
12.0
290
     0
  0
SCALE
  5
61
102
{ACAD_REACTORS
330
47
102
}
330
47
100
AcDbScale
 70
     0
300
3/8" = 1'-0"
140
0.375
141
12.0
290
     0
  0
SCALE
  5
62
102
{ACAD_REACTORS
330
47
102
}
330
47
100
AcDbScale
 70
     0
300
1/2" = 1'-0"
140
0.5
141
12.0
290
     0
  0
SCALE
  5
63
102
{ACAD_REACTORS
330
47
102
}
330
47
100
AcDbScale
 70
     0
300
3/4" = 1'-0"
140
0.75
141
12.0
290
     0
  0
SCALE
  5
64
102
{ACAD_REACTORS
330
47
102
}
330
47
100
AcDbScale
 70
     0
300
1" = 1'-0"
140
1.0
141
12.0
290
     0
  0
SCALE
  5
65
102
{ACAD_REACTORS
330
47
102
}
330
47
100
AcDbScale
 70
     0
300
1-1/2" = 1'-0"
140
1.5
141
12.0
290
     0
  0
SCALE
  5
66
102
{ACAD_REACTORS
330
47
102
}
330
47
100
AcDbScale
 70
     0
300
3" = 1'-0"
140
3.0
141
12.0
290
     0
  0
SCALE
  5
67
102
{ACAD_REACTORS
330
47
102
}
330
47
100
AcDbScale
 70
     0
300
6" = 1'-0"
140
6.0
141
12.0
290
     0
  0
SCALE
  5
68
102
{ACAD_REACTORS
330
47
102
}
330
47
100
AcDbScale
 70
     0
300
1'-0" = 1'-0"
140
12.0
141
12.0
290
     0
  0
ENDSEC
  0
EOF
