  0
SECTION
  2
HEADER
  9
$ACADVER
  1
AC1015
  9
$ACADMAINTVER
 70
     6
  9
$DWGCODEPAGE
  3
ANSI_1252
  9
$INSBASE
 10
0.0
 20
0.0
 30
0.0
  9
$EXTMIN
 10
-114.3
 20
-184.15
 30
0.0
  9
$EXTMAX
 10
114.3
 20
184.15
 30
0.0
  9
$LIMMIN
 10
0.0
 20
0.0
  9
$LIMMAX
 10
420.0
 20
297.0
  9
$ORTHOMODE
 70
     0
  9
$REGENMODE
 70
     1
  9
$FILLMODE
 70
     1
  9
$QTEXTMODE
 70
     0
  9
$MIRRTEXT
 70
     1
  9
$LTSCALE
 40
1.0
  9
$ATTMODE
 70
     1
  9
$TEXTSIZE
 40
3.175
  9
$TRACEWID
 40
1.0
  9
$TEXTSTYLE
  7
Standard
  9
$CLAYER
  8
0
  9
$CELTYPE
  6
ByLayer
  9
$CECOLOR
 62
   256
  9
$CELTSCALE
 40
1.0
  9
$DISPSILH
 70
     0
  9
$DIMSCALE
 40
1.0
  9
$DIMASZ
 40
3.302
  9
$DIMEXO
 40
1.27
  9
$DIMDLI
 40
3.75
  9
$DIMRND
 40
0.0
  9
$DIMDLE
 40
0.0
  9
$DIMEXE
 40
3.175
  9
$DIMTP
 40
0.0
  9
$DIMTM
 40
0.0
  9
$DIMTXT
 40
3.175
  9
$DIMCEN
 40
2.5
  9
$DIMTSZ
 40
0.0
  9
$DIMTOL
 70
     0
  9
$DIMLIM
 70
     0
  9
$DIMTIH
 70
     1
  9
$DIMTOH
 70
     1
  9
$DIMSE1
 70
     0
  9
$DIMSE2
 70
     0
  9
$DIMTAD
 70
     0
  9
$DIMZIN
 70
     1
  9
$DIMBLK
  1

  9
$DIMASO
 70
     1
  9
$DIMSHO
 70
     1
  9
$DIMPOST
  1

  9
$DIMAPOST
  1

  9
$DIMALT
 70
     0
  9
$DIMALTD
 70
     3
  9
$DIMALTF
 40
0.0393700787
  9
$DIMLFAC
 40
1.0
  9
$DIMTOFL
 70
     1
  9
$DIMTVP
 40
0.0
  9
$DIMTIX
 70
     0
  9
$DIMSOXD
 70
     0
  9
$DIMSAH
 70
     0
  9
$DIMBLK1
  1

  9
$DIMBLK2
  1

  9
$DIMSTYLE
  2
ISO-25
  9
$DIMCLRD
 70
     0
  9
$DIMCLRE
 70
     0
  9
$DIMCLRT
 70
     0
  9
$DIMTFAC
 40
1.0
  9
$DIMGAP
 40
1.524
  9
$DIMJUST
 70
     0
  9
$DIMSD1
 70
     0
  9
$DIMSD2
 70
     0
  9
$DIMTOLJ
 70
     0
  9
$DIMTZIN
 70
     1
  9
$DIMALTZ
 70
     0
  9
$DIMALTTZ
 70
     0
  9
$DIMUPT
 70
     0
  9
$DIMDEC
 70
     3
  9
$DIMTDEC
 70
     3
  9
$DIMALTU
 70
     2
  9
$DIMALTTD
 70
     3
  9
$DIMTXSTY
  7
Standard
  9
$DIMAUNIT
 70
     0
  9
$DIMADEC
 70
     0
  9
$DIMALTRND
 40
0.0
  9
$DIMAZIN
 70
     0
  9
$DIMDSEP
 70
    44
  9
$DIMATFIT
 70
     3
  9
$DIMFRAC
 70
     0
  9
$DIMLDRBLK
  1

  9
$DIMLUNIT
 70
     2
  9
$DIMLWD
 70
    -2
  9
$DIMLWE
 70
    -2
  9
$DIMTMOVE
 70
     0
  9
$LUNITS
 70
     2
  9
$LUPREC
 70
     3
  9
$SKETCHINC
 40
1.0
  9
$FILLETRAD
 40
10.0
  9
$AUNITS
 70
     0
  9
$AUPREC
 70
     0
  9
$MENU
  1
.
  9
$ELEVATION
 40
0.0
  9
$PELEVATION
 40
0.0
  9
$THICKNESS
 40
0.0
  9
$LIMCHECK
 70
     0
  9
$CHAMFERA
 40
0.0
  9
$CHAMFERB
 40
0.0
  9
$CHAMFERC
 40
0.0
  9
$CHAMFERD
 40
0.0
  9
$SKPOLY
 70
     0
  9
$TDCREATE
 40
2458565.541031829
  9
$TDUCREATE
 40
2458565.707698496
  9
$TDUPDATE
 40
2458565.541070498
  9
$TDUUPDATE
 40
2458565.707737165
  9
$TDINDWG
 40
0.0000000116
  9
$TDUSRTIMER
 40
0.0000000116
  9
$USRTIMER
 70
     1
  9
$ANGBASE
 50
0.0
  9
$ANGDIR
 70
     0
  9
$PDMODE
 70
     0
  9
$PDSIZE
 40
-1.0
  9
$PLINEWID
 40
0.0
  9
$SPLFRAME
 70
     0
  9
$SPLINETYPE
 70
     6
  9
$SPLINESEGS
 70
     8
  9
$HANDSEED
  5
14C
  9
$SURFTAB1
 70
     6
  9
$SURFTAB2
 70
     6
  9
$SURFTYPE
 70
     6
  9
$SURFU
 70
     6
  9
$SURFV
 70
     6
  9
$UCSBASE
  2

  9
$UCSNAME
  2

  9
$UCSORG
 10
0.0
 20
0.0
 30
0.0
  9
$UCSXDIR
 10
1.0
 20
0.0
 30
0.0
  9
$UCSYDIR
 10
0.0
 20
1.0
 30
0.0
  9
$UCSORTHOREF
  2

  9
$UCSORTHOVIEW
 70
     0
  9
$UCSORGTOP
 10
0.0
 20
0.0
 30
0.0
  9
$UCSORGBOTTOM
 10
0.0
 20
0.0
 30
0.0
  9
$UCSORGLEFT
 10
0.0
 20
0.0
 30
0.0
  9
$UCSORGRIGHT
 10
0.0
 20
0.0
 30
0.0
  9
$UCSORGFRONT
 10
0.0
 20
0.0
 30
0.0
  9
$UCSORGBACK
 10
0.0
 20
0.0
 30
0.0
  9
$PUCSBASE
  2

  9
$PUCSNAME
  2

  9
$PUCSORG
 10
0.0
 20
0.0
 30
0.0
  9
$PUCSXDIR
 10
1.0
 20
0.0
 30
0.0
  9
$PUCSYDIR
 10
0.0
 20
1.0
 30
0.0
  9
$PUCSORTHOREF
  2

  9
$PUCSORTHOVIEW
 70
     0
  9
$PUCSORGTOP
 10
0.0
 20
0.0
 30
0.0
  9
$PUCSORGBOTTOM
 10
0.0
 20
0.0
 30
0.0
  9
$PUCSORGLEFT
 10
0.0
 20
0.0
 30
0.0
  9
$PUCSORGRIGHT
 10
0.0
 20
0.0
 30
0.0
  9
$PUCSORGFRONT
 10
0.0
 20
0.0
 30
0.0
  9
$PUCSORGBACK
 10
0.0
 20
0.0
 30
0.0
  9
$USERI1
 70
     0
  9
$USERI2
 70
     0
  9
$USERI3
 70
     0
  9
$USERI4
 70
     0
  9
$USERI5
 70
     0
  9
$USERR1
 40
0.0
  9
$USERR2
 40
0.0
  9
$USERR3
 40
0.0
  9
$USERR4
 40
0.0
  9
$USERR5
 40
0.0
  9
$WORLDVIEW
 70
     1
  9
$SHADEDGE
 70
     3
  9
$SHADEDIF
 70
    70
  9
$TILEMODE
 70
     1
  9
$MAXACTVP
 70
    64
  9
$PINSBASE
 10
0.0
 20
0.0
 30
0.0
  9
$PLIMCHECK
 70
     0
  9
$PEXTMIN
 10
1.0000000000E+20
 20
1.0000000000E+20
 30
1.0000000000E+20
  9
$PEXTMAX
 10
-1.0000000000E+20
 20
-1.0000000000E+20
 30
-1.0000000000E+20
  9
$PLIMMIN
 10
0.0
 20
0.0
  9
$PLIMMAX
 10
420.0
 20
297.0
  9
$UNITMODE
 70
     0
  9
$VISRETAIN
 70
     1
  9
$PLINEGEN
 70
     0
  9
$PSLTSCALE
 70
     1
  9
$TREEDEPTH
 70
  3020
  9
$CMLSTYLE
  2
Standard
  9
$CMLJUST
 70
     0
  9
$CMLSCALE
 40
20.0
  9
$PROXYGRAPHICS
 70
     1
  9
$MEASUREMENT
 70
     1
  9
$CELWEIGHT
370
    -1
  9
$ENDCAPS
280
     0
  9
$JOINSTYLE
280
     0
  9
$LWDISPLAY
290
     1
  9
$INSUNITS
 70
     4
  9
$HYPERLINKBASE
  1

  9
$STYLESHEET
  1

  9
$XEDIT
290
     1
  9
$CEPSNTYPE
380
     0
  9
$PSTYLEMODE
290
     1
  9
$FINGERPRINTGUID
  2
{714AA371-46F3-4E91-A040-098D68C92D5E}
  9
$VERSIONGUID
  2
{FAEB1C32-E019-11D5-929B-00C0DF256EC4}
  9
$EXTNAMES
290
     1
  9
$PSVPSCALE
 40
0.0
  9
$OLESTARTUP
290
     0
  0
ENDSEC
  0
SECTION
  2
CLASSES
  0
CLASS
  1
ACDBDICTIONARYWDFLT
  2
AcDbDictionaryWithDefault
  3
ObjectDBX Classes
 90
        0
280
     0
281
     0
  0
CLASS
  1
VISUALSTYLE
  2
AcDbVisualStyle
  3
ObjectDBX Classes
 90
     4095
280
     0
281
     0
  0
CLASS
  1
MATERIAL
  2
AcDbMaterial
  3
ObjectDBX Classes
 90
     1153
280
     0
281
     0
  0
CLASS
  1
SCALE
  2
AcDbScale
  3
ObjectDBX Classes
 90
     1153
280
     0
281
     0
  0
CLASS
  1
TABLESTYLE
  2
AcDbTableStyle
  3
ObjectDBX Classes
 90
     4095
280
     0
281
     0
  0
CLASS
  1
MLEADERSTYLE
  2
AcDbMLeaderStyle
  3
ACDB_MLEADERSTYLE_CLASS
 90
     4095
280
     0
281
     0
  0
CLASS
  1
SUN
  2
AcDbSun
  3
SCENEOE
 90
     1153
280
     0
281
     0
  0
CLASS
  1
ACDBPLACEHOLDER
  2
AcDbPlaceHolder
  3
ObjectDBX Classes
 90
        0
280
     0
281
     0
  0
CLASS
  1
LAYOUT
  2
AcDbLayout
  3
ObjectDBX Classes
 90
        0
280
     0
281
     0
  0
ENDSEC
  0
SECTION
  2
TABLES
  0
TABLE
  2
VPORT
  5
8
330
0
100
AcDbSymbolTable
 70
     1
  0
VPORT
  5
29
330
8
100
AcDbSymbolTableRecord
100
AcDbViewportTableRecord
  2
*Active
 70
     0
 10
0.0
 20
0.0
 11
1.0
 21
1.0
 12
0.0
 22
0.0
 13
0.0
 23
0.0
 14
10.0
 24
10.0
 15
10.0
 25
10.0
 16
0.0
 26
0.0
 36
1.0
 17
0.0
 27
0.0
 37
0.0
 40
375.666
 41
0.6206896552
 42
50.0
 43
0.0
 44
0.0
 50
0.0
 51
0.0
 71
     0
 72
   100
 73
     1
 74
     3
 75
     0
 76
     0
 77
     0
 78
     0
281
     0
 65
     1
110
0.0
120
0.0
130
0.0
111
1.0
121
0.0
131
0.0
112
0.0
122
1.0
132
0.0
 79
     0
146
0.0
  0
ENDTAB
  0
TABLE
  2
LTYPE
  5
5
330
0
100
AcDbSymbolTable
 70
     6
  0
LTYPE
  5
14
330
5
100
AcDbSymbolTableRecord
100
AcDbLinetypeTableRecord
  2
ByBlock
 70
     0
  3

 72
    65
 73
     0
 40
0.0
  0
LTYPE
  5
15
330
5
100
AcDbSymbolTableRecord
100
AcDbLinetypeTableRecord
  2
ByLayer
 70
     0
  3

 72
    65
 73
     0
 40
0.0
  0
LTYPE
  5
16
330
5
100
AcDbSymbolTableRecord
100
AcDbLinetypeTableRecord
  2
Continuous
 70
     0
  3
Solid line
 72
    65
 73
     0
 40
0.0
  0
LTYPE
  5
6E
330
5
100
AcDbSymbolTableRecord
100
AcDbLinetypeTableRecord
  2
HIDDEN
 70
     0
  3
Hidden __ __ __ __ __ __ __ __ __ __ __ __ __ __
 72
    65
 73
     2
 40
1.905
 49
1.27
 74
     0
 49
-0.635
 74
     0
  0
LTYPE
  5
6F
330
5
100
AcDbSymbolTableRecord
100
AcDbLinetypeTableRecord
  2
PHANTOM
 70
     0
  3
Phantom ______  __  __  ______  __  __  ______
 72
    65
 73
     6
 40
12.7
 49
6.35
 74
     0
 49
-1.27
 74
     0
 49
1.27
 74
     0
 49
-1.27
 74
     0
 49
1.27
 74
     0
 49
-1.27
 74
     0
  0
LTYPE
  5
70
330
5
100
AcDbSymbolTableRecord
100
AcDbLinetypeTableRecord
  2
CENTER
 70
     0
  3
Center ____ _ ____ _ ____ _ ____ _ ____ _ ____
 72
    65
 73
     4
 40
10.16
 49
6.35
 74
     0
 49
-1.27
 74
     0
 49
1.27
 74
     0
 49
-1.27
 74
     0
  0
LTYPE
  5
71
330
5
100
AcDbSymbolTableRecord
100
AcDbLinetypeTableRecord
  2
CENTERX2
 70
     0
  3
Center (2x) ________  __  ________  __  _____
 72
    65
 73
     4
 40
20.32
 49
12.7
 74
     0
 49
-2.54
 74
     0
 49
2.54
 74
     0
 49
-2.54
 74
     0
  0
LTYPE
  5
72
330
5
100
AcDbSymbolTableRecord
100
AcDbLinetypeTableRecord
  2
DOT2
 70
     0
  3
Dot (.5x) ........................................
 72
    65
 73
     2
 40
0.635
 49
0.0
 74
     0
 49
-0.635
 74
     0
  0
ENDTAB
  0
TABLE
  2
LAYER
  5
2
330
0
100
AcDbSymbolTable
 70
     1
  0
LAYER
  5
10
330
2
100
AcDbSymbolTableRecord
100
AcDbLayerTableRecord
  2
0
 70
     0
 62
     7
  6
Continuous
370
    -3
390
F
  0
ENDTAB
  0
TABLE
  2
STYLE
  5
3
330
0
100
AcDbSymbolTable
 70
     1
  0
STYLE
  5
11
330
3
100
AcDbSymbolTableRecord
100
AcDbTextStyleTableRecord
  2
Standard
 70
     0
 40
0.0
 41
1.0
 50
0.0
 71
     0
 42
3.175
  3
txt
  4

  0
ENDTAB
  0
TABLE
  2
VIEW
  5
6
330
0
100
AcDbSymbolTable
 70
     0
  0
ENDTAB
  0
TABLE
  2
UCS
  5
7
330
0
100
AcDbSymbolTable
 70
     0
  0
ENDTAB
  0
TABLE
  2
APPID
  5
9
330
0
100
AcDbSymbolTable
 70
     1
  0
APPID
  5
12
330
9
100
AcDbSymbolTableRecord
100
AcDbRegAppTableRecord
  2
ACAD
 70
     0
  0
ENDTAB
  0
TABLE
  2
DIMSTYLE
  5
A
330
0
100
AcDbSymbolTable
 70
     1
100
AcDbDimStyleTable
  0
DIMSTYLE
105
27
330
A
100
AcDbSymbolTableRecord
100
AcDbDimStyleTableRecord
  2
ISO-25
 70
     0
 41
2.5
 42
0.625
 43
3.75
 44
1.25
 73
     0
 74
     0
 77
     1
 78
     8
140
2.5
141
2.5
143
0.0393700787
147
0.625
171
     3
172
     1
178
     0
271
     2
272
     2
274
     3
278
    44
283
     0
284
     8
340
11
  0
ENDTAB
  0
TABLE
  2
BLOCK_RECORD
  5
1
330
0
100
AcDbSymbolTable
 70
     1
  0
BLOCK_RECORD
  5
1F
330
1
100
AcDbSymbolTableRecord
100
AcDbBlockTableRecord
  2
*Model_Space
340
22
  0
BLOCK_RECORD
  5
1B
330
1
100
AcDbSymbolTableRecord
100
AcDbBlockTableRecord
  2
*Paper_Space
340
1E
  0
BLOCK_RECORD
  5
23
330
1
100
AcDbSymbolTableRecord
100
AcDbBlockTableRecord
  2
*Paper_Space0
340
26
  0
ENDTAB
  0
ENDSEC
  0
SECTION
  2
BLOCKS
  0
BLOCK
  5
20
330
1F
100
AcDbEntity
  8
0
100
AcDbBlockBegin
  2
*Model_Space
 70
     0
 10
0.0
 20
0.0
 30
0.0
  3
*Model_Space
  1

  0
ENDBLK
  5
21
330
1F
100
AcDbEntity
  8
0
100
AcDbBlockEnd
  0
BLOCK
  5
1C
330
1B
100
AcDbEntity
 67
     1
  8
0
100
AcDbBlockBegin
  2
*Paper_Space
 70
     0
 10
0.0
 20
0.0
 30
0.0
  3
*Paper_Space
  1

  0
ENDBLK
  5
1D
330
1B
100
AcDbEntity
 67
     1
  8
0
100
AcDbBlockEnd
  0
BLOCK
  5
24
330
23
100
AcDbEntity
  8
0
100
AcDbBlockBegin
  2
*Paper_Space0
 70
     0
 10
0.0
 20
0.0
 30
0.0
  3
*Paper_Space0
  1

  0
ENDBLK
  5
25
330
23
100
AcDbEntity
  8
0
100
AcDbBlockEnd
  0
ENDSEC
  0
SECTION
  2
ENTITIES
  0
LINE
  5
73
330
1F
100
AcDbEntity
  8
0
  6
CENTERX2
 62
     7
100
AcDbLine
 10
53.5178
 20
144.2355816836
 30
0.0
 11
53.5178
 21
184.15
 31
0.0
  0
LINE
  5
74
330
1F
100
AcDbEntity
  8
0
  6
CENTERX2
 62
     7
100
AcDbLine
 10
53.5178
 20
-144.107
 30
0.0
 11
53.5178
 21
-184.15
 31
0.0
  0
CIRCLE
  5
75
330
1F
100
AcDbEntity
  8
0
  6
Continuous
 62
     7
370
    25
100
AcDbCircle
 10
53.5178
 20
-119.38
 30
0.0
 40
24.727
  0
CIRCLE
  5
76
330
1F
100
AcDbEntity
  8
0
  6
Continuous
 62
     7
370
    25
100
AcDbCircle
 10
-53.5178
 20
-119.38
 30
0.0
 40
24.727
  0
CIRCLE
  5
77
330
1F
100
AcDbEntity
  8
0
  6
Continuous
 62
     7
370
    25
100
AcDbCircle
 10
-53.5178
 20
0.0642908418
 30
0.0
 40
24.72699999999998
  0
CIRCLE
  5
78
330
1F
100
AcDbEntity
  8
0
  6
Continuous
 62
     7
370
    25
100
AcDbCircle
 10
-53.5178
 20
119.38
 30
0.0
 40
24.72700000000003
  0
CIRCLE
  5
79
330
1F
100
AcDbEntity
  8
0
  6
Continuous
 62
     7
370
    25
100
AcDbCircle
 10
53.5178
 20
0.0642908418
 30
0.0
 40
24.72700000000001
  0
CIRCLE
  5
7A
330
1F
100
AcDbEntity
  8
0
  6
Continuous
 62
     7
370
    25
100
AcDbCircle
 10
53.5178
 20
119.5085816836
 30
0.0
 40
24.72700000000012
  0
CIRCLE
  5
82
330
1F
100
AcDbEntity
  8
0
  6
Continuous
 62
     7
370
    25
100
AcDbCircle
 10
0.0
 20
-55.0333333333
 30
0.0
 40
2.247899999999994
  0
CIRCLE
  5
83
330
1F
100
AcDbEntity
  8
0
  6
Continuous
 62
     7
370
    25
100
AcDbCircle
 10
0.0
 20
55.0333333333
 30
0.0
 40
2.247900000000001
  0
CIRCLE
  5
84
330
1F
100
AcDbEntity
  8
0
  6
Continuous
 62
     7
370
    25
100
AcDbCircle
 10
-104.775
 20
-149.225
 30
0.0
 40
2.247899999999959
  0
CIRCLE
  5
85
330
1F
100
AcDbEntity
  8
0
  6
Continuous
 62
     7
370
    25
100
AcDbCircle
 10
104.775
 20
-149.225
 30
0.0
 40
2.247899999999959
  0
CIRCLE
  5
86
330
1F
100
AcDbEntity
  8
0
  6
Continuous
 62
     7
370
    25
100
AcDbCircle
 10
104.775
 20
165.1
 30
0.0
 40
2.247900000000016
  0
CIRCLE
  5
87
330
1F
100
AcDbEntity
  8
0
  6
Continuous
 62
     7
370
    25
100
AcDbCircle
 10
-104.775
 20
165.1
 30
0.0
 40
2.247900000000044
  0
SPLINE
  5
89
330
1F
100
AcDbEntity
  8
0
  6
HIDDEN
 62
     7
370
    18
100
AcDbSpline
210
0.0
220
0.0
230
1.0
 70
     8
 71
     3
 72
    31
 73
    27
 74
     0
 42
0.000000001
 43
0.00000001
 40
0.0
 40
0.0
 40
0.0
 40
0.0
 40
0.0497116207271325
 40
0.0968592144113374
 40
0.1421735749316028
 40
0.1857513898244715
 40
0.2272209046200691
 40
0.2670719723183277
 40
0.3056896236221021
 40
0.3429968028044797
 40
0.3793728775008134
 40
0.4149990750568781
 40
0.4498127975379231
 40
0.4845384316589771
 40
0.5190060671099208
 40
0.553712796066275
 40
0.5890838528036977
 40
0.6250972698190534
 40
0.6626289535791581
 40
0.7026946408782566
 40
0.745177332626791
 40
0.7902117778847624
 40
0.8382420175970767
 40
0.8892910979867624
 40
0.9431958830362389
 40
1.0
 40
1.0
 40
1.0
 40
1.0
 10
-18.02063776652017
 20
168.8243893771702
 30
0.0
 10
-17.94570718359983
 20
168.8254920149734
 30
0.0
 10
-17.79971078897643
 20
168.8276404187034
 30
0.0
 10
-17.58576770068735
 20
168.8421769934707
 30
0.0
 10
-17.38225407833541
 20
168.8679125406223
 30
0.0
 10
-17.18858655783509
 20
168.9017668554451
 30
0.0
 10
-17.0057189654842
 20
168.9472630963928
 30
0.0
 10
-16.83386980370544
 20
169.0038685075905
 30
0.0
 10
-16.67191921647034
 20
169.0691572227754
 30
0.0
 10
-16.51967043311569
 20
169.1437000793114
 30
0.0
 10
-16.3793960633889
 20
169.230427823075
 30
0.0
 10
-16.24748194032752
 20
169.3230512811586
 30
0.0
 10
-16.12783033848081
 20
169.4274242857628
 30
0.0
 10
-16.01813753566632
 20
169.5396147627174
 30
0.0
 10
-15.91823972407716
 20
169.6605448156424
 30
0.0
 10
-15.83009427041825
 20
169.7913677303803
 30
0.0
 10
-15.75028530902499
 20
169.9302072970655
 30
0.0
 10
-15.68404504934317
 20
170.0806516168936
 30
0.0
 10
-15.6242408203324
 20
170.2412244299706
 30
0.0
 10
-15.57411949818292
 20
170.4153021442775
 30
0.0
 10
-15.5313222106219
 20
170.6028849579068
 30
0.0
 10
-15.49728042202476
 20
170.8044059857795
 30
0.0
 10
-15.46839197369447
 20
171.0197867526614
 30
0.0
 10
-15.45119029993947
 20
171.2498122199863
 30
0.0
 10
-15.43826382582958
 20
171.493332251325
 30
0.0
 10
-15.43694418840704
 20
171.6602217930174
 30
0.0
 10
-15.43626708984373
 20
171.7458518812391
 30
0.0
  0
SPLINE
  5
8A
330
1F
100
AcDbEntity
  8
0
  6
HIDDEN
 62
     7
370
    18
100
AcDbSpline
210
0.0
220
0.0
230
1.0
 70
     8
 71
     3
 72
    11
 73
     7
 74
     0
 42
0.000000001
 43
0.00000001
 40
0.0
 40
0.0
 40
0.0
 40
0.0
 40
0.1774946570818447
 40
0.4052256231013749
 40
0.6783881083348581
 40
1.0
 40
1.0
 40
1.0
 40
1.0
 10
10.95855806138783
 20
171.8756054814657
 30
0.0
 10
10.98570069850628
 20
171.8805002214106
 30
0.0
 10
11.04766815273713
 20
171.8916750594406
 30
0.0
 10
11.15288873538979
 20
171.8989733639744
 30
0.0
 10
11.28037637991167
 20
171.9067195378195
 30
0.0
 10
11.37276884851193
 20
171.9064938402944
 30
0.0
 10
11.42272815704348
 20
171.9063717990451
 30
0.0
  0
SPLINE
  5
8B
330
1F
100
AcDbEntity
  8
0
  6
HIDDEN
 62
     7
370
    18
100
AcDbSpline
210
0.0
220
0.0
230
1.0
 70
     8
 71
     3
 72
    31
 73
    27
 74
     0
 42
0.000000001
 43
0.00000001
 40
0.0
 40
0.0
 40
0.0
 40
0.0
 40
0.0475607904469546
 40
0.0939645423171921
 40
0.1391151413453597
 40
0.183631072801194
 40
0.2274629279022613
 40
0.2707095317019643
 40
0.3136186661613669
 40
0.3562696913321408
 40
0.398376485288321
 40
0.4395679156577146
 40
0.4800578338505138
 40
0.5199019799359578
 40
0.55967226603435
 40
0.5990769790772472
 40
0.6390733369180968
 40
0.6793156080281879
 40
0.7197837359683412
 40
0.7596237823134684
 40
0.7994802250895912
 40
0.8391921469330814
 40
0.8787003552244697
 40
0.9187921630876992
 40
0.9590823015976627
 40
1.0
 40
1.0
 40
1.0
 40
1.0
 10
-14.23771837022567
 20
172.2381129625109
 30
0.0
 10
-14.23632704018325
 20
172.1551474086709
 30
0.0
 10
-14.23357822778085
 20
171.9912346515151
 30
0.0
 10
-14.21497863827619
 20
171.7490853584957
 30
0.0
 10
-14.18227409504173
 20
171.5138876694865
 30
0.0
 10
-14.13889708659997
 20
171.2849402674372
 30
0.0
 10
-14.08077321983908
 20
171.0627197735078
 30
0.0
 10
-14.01170193522448
 20
170.8465890668525
 30
0.0
 10
-13.92815631775341
 20
170.6378354690559
 30
0.0
 10
-13.83380080555911
 20
170.4359558261796
 30
0.0
 10
-13.72703763080109
 20
170.2437267371272
 30
0.0
 10
-13.60927043404785
 20
170.0624921645792
 30
0.0
 10
-13.48041655813429
 20
169.8939481183381
 30
0.0
 10
-13.34243046376327
 20
169.7360244160098
 30
0.0
 10
-13.19255338146712
 20
169.591989944247
 30
0.0
 10
-13.03194297303729
 20
169.4597008451577
 30
0.0
 10
-12.86092768111696
 20
169.3397263039062
 30
0.0
 10
-12.68017785579907
 20
169.2313586497744
 30
0.0
 10
-12.4925812582279
 20
169.1360711538945
 30
0.0
 10
-12.30041569144066
 20
169.051863456721
 30
0.0
 10
-12.10345452292665
 20
168.9837322157161
 30
0.0
 10
-11.9045793323213
 20
168.9233027578681
 30
0.0
 10
-11.70082872491639
 20
168.8798508927907
 30
0.0
 10
-11.49412397209749
 20
168.8474722490453
 30
0.0
 10
-11.2831663878955
 20
168.8285388252332
 30
0.0
 10
-11.14150392717936
 20
168.8257796340394
 30
0.0
 10
-11.07012532552081
 20
168.8243893771701
 30
0.0
  0
SPLINE
  5
8C
330
1F
100
AcDbEntity
  8
0
  6
HIDDEN
 62
     7
370
    18
100
AcDbSpline
210
0.0
220
0.0
230
1.0
 70
     8
 71
     3
 72
    31
 73
    27
 74
     0
 42
0.000000001
 43
0.00000001
 40
0.0
 40
0.0
 40
0.0
 40
0.0
 40
0.0546407144744602
 40
0.1063309198846489
 40
0.1551479539521618
 40
0.2014721740885494
 40
0.2447125012190166
 40
0.2858735626700151
 40
0.3242592771549818
 40
0.3605122850116969
 40
0.3955577268013069
 40
0.4300132653777971
 40
0.4647944888610812
 40
0.4994884769164741
 40
0.534572046124567
 40
0.5704816968023754
 40
0.6070358491176588
 40
0.6447988867778934
 40
0.6837172652645624
 40
0.7235221312955686
 40
0.7648937753014267
 40
0.8079937113888152
 40
0.8527841206740419
 40
0.8995220778459624
 40
0.9486367156944022
 40
1.0
 40
1.0
 40
1.0
 40
1.0
 10
-20.5729044596354
 20
171.7458518812391
 30
0.0
 10
-20.57192501049351
 20
171.6642478034521
 30
0.0
 10
-20.57001900085878
 20
171.5054461343875
 30
0.0
 10
-20.56129993384179
 20
171.2738448261118
 30
0.0
 10
-20.54415201998087
 20
171.0551385524037
 30
0.0
 10
-20.51847334772808
 20
170.8500003945749
 30
0.0
 10
-20.48778482161301
 20
170.6571601870562
 30
0.0
 10
-20.45152968187728
 20
170.4772692162587
 30
0.0
 10
-20.40532910629058
 20
170.3104878897831
 30
0.0
 10
-20.35347136278263
 20
170.1549854367902
 30
0.0
 10
-20.29171925610086
 20
170.009391707209
 30
0.0
 10
-20.21869654495472
 20
169.8716183468004
 30
0.0
 10
-20.13477149892439
 20
169.7408001829837
 30
0.0
 10
-20.03899796775913
 20
169.6172251428996
 30
0.0
 10
-19.93289809219953
 20
169.5001427041667
 30
0.0
 10
-19.81522327209598
 20
169.3904789731807
 30
0.0
 10
-19.6854454101073
 20
169.2889926766971
 30
0.0
 10
-19.54685502475999
 20
169.1918472552183
 30
0.0
 10
-19.39580243911873
 20
169.1049692485264
 30
0.0
 10
-19.23262014308934
 20
169.0300318873379
 30
0.0
 10
-19.05835517903519
 20
168.9655745424304
 30
0.0
 10
-18.87215902136026
 20
168.9137548172743
 30
0.0
 10
-18.67488618211424
 20
168.8741528699585
 30
0.0
 10
-18.4668223898806
 20
168.8445406449399
 30
0.0
 10
-18.24745312576682
 20
168.8270367474354
 30
0.0
 10
-18.09736253744036
 20
168.8252849024019
 30
0.0
 10
-18.02063776652016
 20
168.8243893771701
 30
0.0
  0
SPLINE
  5
8D
330
1F
100
AcDbEntity
  8
0
  6
HIDDEN
 62
     7
370
    18
100
AcDbSpline
210
0.0
220
0.0
230
1.0
 70
     8
 71
     3
 72
    23
 73
    19
 74
     0
 42
0.000000001
 43
0.00000001
 40
0.0
 40
0.0
 40
0.0
 40
0.0
 40
0.075003501752121
 40
0.1491814207149436
 40
0.223688255785941
 40
0.3009941454244409
 40
0.3401568029415755
 40
0.3792002499352433
 40
0.4183796097273772
 40
0.4582131080100786
 40
0.4984144588402094
 40
0.5400409861083797
 40
0.5821965654347478
 40
0.6261769612902273
 40
0.7158440112886165
 40
0.8073634492189767
 40
0.9016235874428786
 40
1.0
 40
1.0
 40
1.0
 40
1.0
 10
0.572919379340306
 20
173.8446498065525
 30
0.0
 10
0.5697454998718209
 20
173.9274379680913
 30
0.0
 10
0.5634326766405616
 20
174.0921030206318
 30
0.0
 10
0.5072945773972776
 20
174.3336913747334
 30
0.0
 10
0.4178830536757261
 20
174.5669213598615
 30
0.0
 10
0.3148884910137896
 20
174.7515120063999
 30
0.0
 10
0.2159164343685843
 20
174.8916688062379
 30
0.0
 10
0.1327354484945501
 20
174.9910492125341
 30
0.0
 10
0.0409483896047315
 20
175.0834720059869
 30
0.0
 10
-0.057437482634585
 20
175.1708547791491
 30
0.0
 10
-0.1659744974040471
 20
175.2499301766427
 30
0.0
 10
-0.2814115843501127
 20
175.3233432026142
 30
0.0
 10
-0.4061134429347273
 20
175.3891290501142
 30
0.0
 10
-0.5826652723744801
 20
175.4693342257771
 30
0.0
 10
-0.8174936357692738
 20
175.5515656558703
 30
0.0
 10
-1.113162553975436
 20
175.6228102017212
 30
0.0
 10
-1.424366051673426
 20
175.6645159747887
 30
0.0
 10
-1.636779571771093
 20
175.6702903316514
 30
0.0
 10
-1.745255766974527
 20
175.673239203559
 30
0.0
  0
SPLINE
  5
8E
330
1F
100
AcDbEntity
  8
0
  6
HIDDEN
 62
     7
370
    18
100
AcDbSpline
210
0.0
220
0.0
230
1.0
 70
     8
 71
     3
 72
    23
 73
    19
 74
     0
 42
0.000000001
 43
0.00000001
 40
0.0
 40
0.0
 40
0.0
 40
0.0
 40
0.0312005486837899
 40
0.0704877074756232
 40
0.1172164737641544
 40
0.1715779330579243
 40
0.2335986644965036
 40
0.304114665578319
 40
0.3817802687127411
 40
0.4672720494883081
 40
0.5539624244942414
 40
0.6347026409904399
 40
0.7100326216235958
 40
0.7790893059118832
 40
0.8429634432039236
 40
0.9009998185565118
 40
0.953245600815254
 40
1.0
 40
1.0
 40
1.0
 40
1.0
 10
-2.739141591389946
 20
171.661578924391
 30
0.0
 10
-2.715616019170704
 20
171.671233178066
 30
0.0
 10
-2.662467477791107
 20
171.6930438909427
 30
0.0
 10
-2.571372485087624
 20
171.7219145320237
 30
0.0
 10
-2.463281361063865
 20
171.7592636199627
 30
0.0
 10
-2.33598246676217
 20
171.7975290494959
 30
0.0
 10
-2.189343903188227
 20
171.838528730141
 30
0.0
 10
-2.024710769727391
 20
171.885712806575
 30
0.0
 10
-1.840776969493328
 20
171.934847594599
 30
0.0
 10
-1.643984004257317
 20
171.9868639873503
 30
0.0
 10
-1.444785638258556
 20
172.0396236228399
 30
0.0
 10
-1.25450217656858
 20
172.0935693360465
 30
0.0
 10
-1.078352586542235
 20
172.144734388655
 30
0.0
 10
-0.9170073775904752
 20
172.1973204941943
 30
0.0
 10
-0.7703120382380161
 20
172.2492212332721
 30
0.0
 10
-0.6378657943305376
 20
172.3001012265086
 30
0.0
 10
-0.519433039410676
 20
172.3486943396137
 30
0.0
 10
-0.4471005905140051
 20
172.3844310068113
 30
0.0
 10
-0.4129404491848134
 20
172.4013082122803
 30
0.0
  0
SPLINE
  5
8F
330
1F
100
AcDbEntity
  8
0
  6
HIDDEN
 62
     7
370
    18
100
AcDbSpline
210
0.0
220
0.0
230
1.0
 70
     8
 71
     3
 72
    15
 73
    11
 74
     0
 42
0.000000001
 43
0.00000001
 40
0.0
 40
0.0
 40
0.0
 40
0.0
 40
0.1177602073022879
 40
0.2303985997942726
 40
0.3406497528469432
 40
0.4514251755843616
 40
0.5677355826461936
 40
0.6969707802217732
 40
0.8394483291236463
 40
1.0
 40
1.0
 40
1.0
 40
1.0
 10
-3.450779893663166
 20
170.759992052714
 30
0.0
 10
-3.448734217389714
 20
170.8083204031326
 30
0.0
 10
-3.444731838658961
 20
170.9028751302505
 30
0.0
 10
-3.41298182015313
 20
171.0397497638903
 30
0.0
 10
-3.361676939208158
 20
171.1671077866739
 30
0.0
 10
-3.289708786215457
 20
171.2860356690287
 30
0.0
 10
-3.191897669385681
 20
171.3958142401209
 30
0.0
 10
-3.065416139306149
 20
171.4932649068285
 30
0.0
 10
-2.913787566253792
 20
171.5859561743094
 30
0.0
 10
-2.799626619227543
 20
171.6353885461278
 30
0.0
 10
-2.739141591389946
 20
171.661578924391
 30
0.0
  0
SPLINE
  5
90
330
1F
100
AcDbEntity
  8
0
  6
HIDDEN
 62
     7
370
    18
100
AcDbSpline
210
0.0
220
0.0
230
1.0
 70
     8
 71
     3
 72
    23
 73
    19
 74
     0
 42
0.000000001
 43
0.00000001
 40
0.0
 40
0.0
 40
0.0
 40
0.0
 40
0.0915140484692246
 40
0.177148691078689
 40
0.2571169481097525
 40
0.3312093009843037
 40
0.4003971905242647
 40
0.4650744791872323
 40
0.5260808284182678
 40
0.584552377371537
 40
0.6405096115594703
 40
0.6946093947988499
 40
0.7465128494332982
 40
0.7970255531332947
 40
0.8473552476901827
 40
0.8974351655462103
 40
0.9476471957195912
 40
1.0
 40
1.0
 40
1.0
 40
1.0
 10
-1.782710414462591
 20
174.9027435980903
 30
0.0
 10
-1.723364227788702
 20
174.9023021713367
 30
0.0
 10
-1.60848460585474
 20
174.9014476777054
 30
0.0
 10
-1.442447662525264
 20
174.8855843876243
 30
0.0
 10
-1.288428271827422
 20
174.8642002822706
 30
0.0
 10
-1.147375889145993
 20
174.831374900134
 30
0.0
 10
-1.017974288521082
 20
174.7927550797555
 30
0.0
 10
-0.9024932245730813
 20
174.7408958591359
 30
0.0
 10
-0.7981802977003395
 20
174.6824366691109
 30
0.0
 10
-0.7069378986204639
 20
174.6139126302269
 30
0.0
 10
-0.6282940103008183
 20
174.5379438151933
 30
0.0
 10
-0.5577100912711629
 20
174.4599068629947
 30
0.0
 10
-0.5007974944793727
 20
174.3757192341386
 30
0.0
 10
-0.4506830227645087
 20
174.2900426144955
 30
0.0
 10
-0.4157653662486009
 20
174.1983202533862
 30
0.0
 10
-0.3883557967873912
 20
174.1045427033134
 30
0.0
 10
-0.3716892745284859
 20
174.0066491512734
 30
0.0
 10
-0.3697747264385631
 20
173.9401341209739
 30
0.0
 10
-0.3687974717881662
 20
173.9061824417115
 30
0.0
  0
SPLINE
  5
91
330
1F
100
AcDbEntity
  8
0
  6
HIDDEN
 62
     7
370
    18
100
AcDbSpline
210
0.0
220
0.0
230
1.0
 70
     8
 71
     3
 72
    19
 73
    15
 74
     0
 42
0.000000001
 43
0.00000001
 40
0.0
 40
0.0
 40
0.0
 40
0.0
 40
0.1056286769630305
 40
0.2053374527832048
 40
0.3012118623686868
 40
0.3933061246626496
 40
0.4807364361328824
 40
0.5628486664239363
 40
0.641019285521344
 40
0.7177066092816698
 40
0.791768156300894
 40
0.8625200006447953
 40
0.931747904737299
 40
1.0
 40
1.0
 40
1.0
 40
1.0
 10
-1.925840674506265
 20
169.5948849826389
 30
0.0
 10
-2.001324280210931
 20
169.5962886623835
 30
0.0
 10
-2.148061054427204
 20
169.5990173534129
 30
0.0
 10
-2.361175223558398
 20
169.6315831724977
 30
0.0
 10
-2.561144255327535
 20
169.6797614417932
 30
0.0
 10
-2.74580779351337
 20
169.7490528615541
 30
0.0
 10
-2.91145468148577
 20
169.8361528263915
 30
0.0
 10
-3.058487465231753
 20
169.9356071611134
 30
0.0
 10
-3.180435602561216
 20
170.0541310771005
 30
0.0
 10
-3.279079501586728
 20
170.1851299535668
 30
0.0
 10
-3.355632689778873
 20
170.3242391190214
 30
0.0
 10
-3.409002882982875
 20
170.467751543293
 30
0.0
 10
-3.444935193070849
 20
170.6128725973396
 30
0.0
 10
-3.448840900807677
 20
170.7111848352409
 30
0.0
 10
-3.450779893663166
 20
170.7599920527141
 30
0.0
  0
SPLINE
  5
92
330
1F
100
AcDbEntity
  8
0
  6
HIDDEN
 62
     7
370
    18
100
AcDbSpline
210
0.0
220
0.0
230
1.0
 70
     8
 71
     3
 72
    23
 73
    19
 74
     0
 42
0.000000001
 43
0.00000001
 40
0.0
 40
0.0
 40
0.0
 40
0.0
 40
0.0327434629435836
 40
0.072410146660326
 40
0.1196123797311354
 40
0.1746742206485759
 40
0.2373468640367583
 40
0.3083547213712475
 40
0.3876329447866037
 40
0.4752520529828972
 40
0.5633362096858383
 40
0.6451407219018653
 40
0.7202075928161754
 40
0.7892748382945906
 40
0.8514959637061122
 40
0.9073299118498405
 40
0.9569683607399763
 40
1.0
 40
1.0
 40
1.0
 40
1.0
 10
-0.6082396825154339
 20
173.3162717437744
 30
0.0
 10
-0.6314299818416022
 20
173.2965060645008
 30
0.0
 10
-0.6827138969912596
 20
173.2527954851554
 30
0.0
 10
-0.7781355494080097
 20
173.1949497368711
 30
0.0
 10
-0.8964441295970276
 20
173.1365035347693
 30
0.0
 10
-1.038430801831072
 20
173.0784055907465
 30
0.0
 10
-1.203848303293164
 20
173.0199388357987
 30
0.0
 10
-1.392443217321632
 20
172.95978373271
 30
0.0
 10
-1.605290388863063
 20
172.8997299494052
 30
0.0
 10
-1.835341442783038
 20
172.8427970283964
 30
0.0
 10
-2.06742144981379
 20
172.7843401032408
 30
0.0
 10
-2.287668030929116
 20
172.7267398642618
 30
0.0
 10
-2.490671798120406
 20
172.6729114148074
 30
0.0
 10
-2.674095347859531
 20
172.6168712637202
 30
0.0
 10
-2.840956872911575
 20
172.5677162052296
 30
0.0
 10
-2.987948726571545
 20
172.5158160541719
 30
0.0
 10
-3.117711710293261
 20
172.4687172747419
 30
0.0
 10
-3.197177719748258
 20
172.4354727383284
 30
0.0
 10
-3.23407800462508
 20
172.4200355360243
 30
0.0
  0
SPLINE
  5
93
330
1F
100
AcDbEntity
  8
0
  6
HIDDEN
 62
     7
370
    18
100
AcDbSpline
210
0.0
220
0.0
230
1.0
 70
     8
 71
     3
 72
    31
 73
    27
 74
     0
 42
0.000000001
 43
0.00000001
 40
0.0
 40
0.0
 40
0.0
 40
0.0
 40
0.0430906778846524
 40
0.0855702925740406
 40
0.1271348306375767
 40
0.1679383740113611
 40
0.2086566617459502
 40
0.248986250536246
 40
0.2893576933795803
 40
0.3300791714524746
 40
0.3704449826241182
 40
0.4105095612295108
 40
0.45006917764873
 40
0.4895367374910916
 40
0.5291226164692264
 40
0.569090613689437
 40
0.6095335908455778
 40
0.6505815545344245
 40
0.6923238662515521
 40
0.7342641111039044
 40
0.7765006698783153
 40
0.819584563906701
 40
0.8631243689835284
 40
0.9078562579436416
 40
0.9533426826867579
 40
1.0
 40
1.0
 40
1.0
 40
1.0
 10
-11.07413832346596
 20
175.673239203559
 30
0.0
 10
-11.14953330441874
 20
175.6719346307904
 30
0.0
 10
-11.29925410008628
 20
175.6693439852266
 30
0.0
 10
-11.52100010415963
 20
175.6492386182421
 30
0.0
 10
-11.73678147925282
 20
175.6143300913048
 30
0.0
 10
-11.94672469070106
 20
175.565766741554
 30
0.0
 10
-12.15113941702543
 20
175.5046690108018
 30
0.0
 10
-12.34989071220825
 20
175.4292096653697
 30
0.0
 10
-12.54329616578852
 20
175.3409338565775
 30
0.0
 10
-12.72962408950872
 20
175.2383358714938
 30
0.0
 10
-12.90755119167991
 20
175.1228866191686
 30
0.0
 10
-13.07635125531753
 20
174.9977860238735
 30
0.0
 10
-13.23340183860277
 20
174.8605249330652
 30
0.0
 10
-13.37946085567
 20
174.7129250425176
 30
0.0
 10
-13.51565734160855
 20
174.5550622509153
 30
0.0
 10
-13.63763874463022
 20
174.383988246148
 30
0.0
 10
-13.75262498887953
 20
174.2051059217413
 30
0.0
 10
-13.85343841679714
 20
174.0143088270214
 30
0.0
 10
-13.94482814825349
 20
173.8159812798662
 30
0.0
 10
-14.02143225827277
 20
173.6092636989094
 30
0.0
 10
-14.08927171530507
 20
173.3971186392189
 30
0.0
 10
-14.14404827642204
 20
173.1782284655415
 30
0.0
 10
-14.1848791580568
 20
172.9519686615438
 30
0.0
 10
-14.21627644483512
 20
172.7199650891215
 30
0.0
 10
-14.23323026159705
 20
172.4809283226249
 30
0.0
 10
-14.23620971381214
 20
172.3197341933345
 30
0.0
 10
-14.23771837022567
 20
172.2381129625109
 30
0.0
  0
SPLINE
  5
94
330
1F
100
AcDbEntity
  8
0
  6
HIDDEN
 62
     7
370
    18
100
AcDbSpline
210
0.0
220
0.0
230
1.0
 70
     8
 71
     3
 72
    15
 73
    11
 74
     0
 42
0.000000001
 43
0.00000001
 40
0.0
 40
0.0
 40
0.0
 40
0.0
 40
0.1448695014226455
 40
0.2796358402521802
 40
0.4065536383061831
 40
0.5277150017052259
 40
0.6456590686327455
 40
0.7617797423287311
 40
0.8788883509231941
 40
0.9999999999999999
 40
0.9999999999999999
 40
0.9999999999999999
 40
0.9999999999999999
 10
-0.4129404491848134
 20
172.4013082122803
 30
0.0
 10
-0.334397090033711
 20
172.4438176767458
 30
0.0
 10
-0.1827879658442768
 20
172.5258720063166
 30
0.0
 10
0.0220514267034017
 20
172.6717142730578
 30
0.0
 10
0.1917508398025992
 20
172.8367041858424
 30
0.0
 10
0.3316960868406661
 20
173.0144730963352
 30
0.0
 10
0.4397429940239587
 20
173.20594227218
 30
0.0
 10
0.5160802425696837
 20
173.4090146092717
 30
0.0
 10
0.5656561073863592
 20
173.6228978260975
 30
0.0
 10
0.5704713171796236
 20
173.7699090236312
 30
0.0
 10
0.572919379340306
 20
173.8446498065525
 30
0.0
  0
SPLINE
  5
95
330
1F
100
AcDbEntity
  8
0
  6
HIDDEN
 62
     7
370
    18
100
AcDbSpline
210
0.0
220
0.0
230
1.0
 70
     8
 71
     3
 72
    23
 73
    19
 74
     0
 42
0.000000001
 43
0.00000001
 40
0.0
 40
0.0
 40
0.0
 40
0.0
 40
0.068152387553108
 40
0.1315010369953409
 40
0.190547702737174
 40
0.2453197639237756
 40
0.2950611875673128
 40
0.3407600630993582
 40
0.3824532913135617
 40
0.4198550920819362
 40
0.4892845918911718
 40
0.5563548658519831
 40
0.6235057877707584
 40
0.6921963570884199
 40
0.763373155892575
 40
0.837340007597801
 40
0.9159106466220608
 40
1.0
 40
1.0
 40
1.0
 40
1.0
 10
-16.3779839409722
 20
171.7899948586358
 30
0.0
 10
-16.37859998877837
 20
171.7208788570886
 30
0.0
 10
-16.37978866210676
 20
171.5875185126789
 30
0.0
 10
-16.38597354362411
 20
171.3943293822864
 30
0.0
 10
-16.39839430776316
 20
171.2150571076184
 30
0.0
 10
-16.4135592772893
 20
171.0498408364502
 30
0.0
 10
-16.43488042512771
 20
170.898922017327
 30
0.0
 10
-16.46168221533459
 20
170.7623911934895
 30
0.0
 10
-16.49197065873467
 20
170.6394577658955
 30
0.0
 10
-16.53713291362283
 20
170.4955722573177
 30
0.0
 10
-16.61319995493523
 20
170.3355829068844
 30
0.0
 10
-16.72841396070823
 20
170.1628690899867
 30
0.0
 10
-16.87611389437829
 20
170.0178360742179
 30
0.0
 10
-17.04724502917411
 20
169.8948233082441
 30
0.0
 10
-17.24280350121404
 20
169.7988823573122
 30
0.0
 10
-17.45934634088976
 20
169.7290451073394
 30
0.0
 10
-17.696651509608
 20
169.6872241858841
 30
0.0
 10
-17.86172769793878
 20
169.6827886286761
 30
0.0
 10
-17.94706613752575
 20
169.6804956054687
 30
0.0
  0
SPLINE
  5
96
330
1F
100
AcDbEntity
  8
0
  6
HIDDEN
 62
     7
370
    18
100
AcDbSpline
210
0.0
220
0.0
230
1.0
 70
     8
 71
     3
 72
    31
 73
    27
 74
     0
 42
0.000000001
 43
0.00000001
 40
0.0
 40
0.0
 40
0.0
 40
0.0
 40
0.0447019208074966
 40
0.0885433100239242
 40
0.1314652882158816
 40
0.1738166415803597
 40
0.2157218457498968
 40
0.2572590453427271
 40
0.2987409660326361
 40
0.3405017817199052
 40
0.3821485087638687
 40
0.4230933180190219
 40
0.4635881478882263
 40
0.5040079115832589
 40
0.5443884185888892
 40
0.5849182317596486
 40
0.6262240699255524
 40
0.6679428466828606
 40
0.7099108133431659
 40
0.7513544834629018
 40
0.7925957333124845
 40
0.8339301542937375
 40
0.8749942896385855
 40
0.9164363312913526
 40
0.9579019794556501
 40
1.0
 40
1.0
 40
1.0
 40
1.0
 10
-11.07012532552081
 20
168.8243893771701
 30
0.0
 10
-10.9933875269704
 20
168.825578264937
 30
0.0
 10
-10.84138916616478
 20
168.8279331538596
 30
0.0
 10
-10.61649407124339
 20
168.8496140761348
 30
0.0
 10
-10.39793761382107
 20
168.8867292599931
 30
0.0
 10
-10.18446954560628
 20
168.9333190197688
 30
0.0
 10
-9.978465382048608
 20
168.9987296362251
 30
0.0
 10
-9.778201488502425
 20
169.0757994616481
 30
0.0
 10
-9.585162533356376
 20
169.1690654424401
 30
0.0
 10
-9.398356806023992
 20
169.2744233468025
 30
0.0
 10
-9.21945770673588
 20
169.3912280501982
 30
0.0
 10
-9.05225818628799
 20
169.5206039798634
 30
0.0
 10
-8.89429121154582
 20
169.6580082001434
 30
0.0
 10
-8.750367804378552
 20
169.8087679286784
 30
0.0
 10
-8.616177575071546
 20
169.9681668854273
 30
0.0
 10
-8.4921711823391
 20
170.1375883784436
 30
0.0
 10
-8.380100814689632
 20
170.3178810868606
 30
0.0
 10
-8.280587519279562
 20
170.5080805866771
 30
0.0
 10
-8.190852932234334
 20
170.7033600215628
 30
0.0
 10
-8.115208666098823
 20
170.9036174799943
 30
0.0
 10
-8.048743226131682
 20
171.105945630755
 30
0.0
 10
-7.995807462025732
 20
171.3115798433923
 30
0.0
 10
-7.953624840916398
 20
171.5200488784391
 30
0.0
 10
-7.925259909839387
 20
171.7310050181242
 30
0.0
 10
-7.904774590392434
 20
171.9447626686919
 30
0.0
 10
-7.903283478696373
 20
172.0882445111929
 30
0.0
 10
-7.902532280815945
 20
172.1605283355713
 30
0.0
  0
SPLINE
  5
97
330
1F
100
AcDbEntity
  8
0
  6
HIDDEN
 62
     7
370
    18
100
AcDbSpline
210
0.0
220
0.0
230
1.0
 70
     8
 71
     3
 72
    23
 73
    19
 74
     0
 42
0.000000001
 43
0.00000001
 40
0.0
 40
0.0
 40
0.0
 40
0.0
 40
0.06714104982829
 40
0.1315102546513846
 40
0.1926394464174723
 40
0.2511477698027839
 40
0.3075867210387798
 40
0.3634341680349903
 40
0.4180970652056821
 40
0.472611412009122
 40
0.5281676960517119
 40
0.5855127690028524
 40
0.6453265140189905
 40
0.7080150561965228
 40
0.7744826987967318
 40
0.8449737211450989
 40
0.9204206830432692
 40
1.0
 40
1.0
 40
1.0
 40
1.0
 10
-3.279558648003444
 20
173.7041948784722
 30
0.0
 10
-3.273771602202503
 20
173.7520587184026
 30
0.0
 10
-3.262436422474048
 20
173.8458103918414
 30
0.0
 10
-3.230636993634088
 20
173.9805479087985
 30
0.0
 10
-3.192600267178009
 20
174.1071035899286
 30
0.0
 10
-3.144232187584587
 20
174.2240550681205
 30
0.0
 10
-3.086506246622126
 20
174.3324365056435
 30
0.0
 10
-3.018033712395218
 20
174.4310117577528
 30
0.0
 10
-2.941524640433645
 20
174.5216464645774
 30
0.0
 10
-2.855133149646997
 20
174.6027500369712
 30
0.0
 10
-2.758041883682982
 20
174.6739757040163
 30
0.0
 10
-2.650230508769937
 20
174.7355324821249
 30
0.0
 10
-2.532098756671372
 20
174.7881451222608
 30
0.0
 10
-2.402500751433219
 20
174.8287053161757
 30
0.0
 10
-2.26316937010718
 20
174.8623873317401
 30
0.0
 10
-2.112501629093466
 20
174.886565120718
 30
0.0
 10
-1.951024250582571
 20
174.8990898092442
 30
0.0
 10
-1.839803256031253
 20
174.9015042157998
 30
0.0
 10
-1.782710414462591
 20
174.9027435980903
 30
0.0
  0
SPLINE
  5
98
330
1F
100
AcDbEntity
  8
0
  6
HIDDEN
 62
     7
370
    18
100
AcDbSpline
210
0.0
220
0.0
230
1.0
 70
     8
 71
     3
 72
    23
 73
    19
 74
     0
 42
0.000000001
 43
0.00000001
 40
0.0
 40
0.0
 40
0.0
 40
0.0
 40
0.0603272326790061
 40
0.1181633268525607
 40
0.1741915946005286
 40
0.2288671201359885
 40
0.2834295822545166
 40
0.3378078149372589
 40
0.3926149530011013
 40
0.4484500033868874
 40
0.5059514596840969
 40
0.5650462512987557
 40
0.6266439369048235
 40
0.6922233429555562
 40
0.7611243334651911
 40
0.8353052271782855
 40
0.9153231689797062
 40
1.0
 40
1.0
 40
1.0
 40
1.0
 10
9.133981662326411
 20
173.7670651796129
 30
0.0
 10
9.135218998243765
 20
173.8045497553354
 30
0.0
 10
9.137642575821186
 20
173.8779710275589
 30
0.0
 10
9.150482993802424
 20
173.9856979043267
 30
0.0
 10
9.174913003673606
 20
174.0877865415969
 30
0.0
 10
9.208647521056797
 20
174.1849728453502
 30
0.0
 10
9.251360342225327
 20
174.2774678202224
 30
0.0
 10
9.303847642403637
 20
174.3649076783721
 30
0.0
 10
9.365838590141111
 20
174.4468458124128
 30
0.0
 10
9.436949475133508
 20
174.5236856080745
 30
0.0
 10
9.518568997487042
 20
174.5936129234731
 30
0.0
 10
9.61180565603826
 20
174.6539421851806
 30
0.0
 10
9.715914914583939
 20
174.705209833843
 30
0.0
 10
9.831020380378359
 20
174.745899051351
 30
0.0
 10
9.956758703904226
 20
174.7784438651389
 30
0.0
 10
10.09384590363786
 20
174.800094863837
 30
0.0
 10
10.24165498676842
 20
174.8157614594169
 30
0.0
 10
10.34407811245178
 20
174.8166672621899
 30
0.0
 10
10.39673834906686
 20
174.8171329752604
 30
0.0
  0
SPLINE
  5
99
330
1F
100
AcDbEntity
  8
0
  6
HIDDEN
 62
     7
370
    18
100
AcDbSpline
210
0.0
220
0.0
230
1.0
 70
     8
 71
     3
 72
    11
 73
     7
 74
     0
 42
0.000000001
 43
0.00000001
 40
0.0
 40
0.0
 40
0.0
 40
0.0
 40
0.2627412305282963
 40
0.5099565029432583
 40
0.7533267184204681
 40
1.0
 40
1.0
 40
1.0
 40
1.0
 10
-0.3687974717881662
 20
173.9061824417115
 30
0.0
 10
-0.3712310897955289
 20
173.8487310605606
 30
0.0
 10
-0.3759545179611012
 20
173.7372232269326
 30
0.0
 10
-0.4241876255929181
 20
173.5788042084459
 30
0.0
 10
-0.4983704825939038
 20
173.4343950085795
 30
0.0
 10
-0.5714524165333433
 20
173.3558227004043
 30
0.0
 10
-0.6082396825154339
 20
173.3162717437744
 30
0.0
  0
SPLINE
  5
9A
330
1F
100
AcDbEntity
  8
0
  6
HIDDEN
 62
     7
370
    18
100
AcDbSpline
210
0.0
220
0.0
230
1.0
 70
     8
 71
     3
 72
    23
 73
    19
 74
     0
 42
0.000000001
 43
0.00000001
 40
0.0
 40
0.0
 40
0.0
 40
0.0
 40
0.0694744696082621
 40
0.1341481695616727
 40
0.1940254503123161
 40
0.2498055700837757
 40
0.3026442359404427
 40
0.3522865500223069
 40
0.3997954814829275
 40
0.446212546524588
 40
0.494314049923035
 40
0.5465949866419648
 40
0.6047820771213888
 40
0.6694016956884092
 40
0.7409058976065583
 40
0.819843157026124
 40
0.9059751296180065
 40
1.0
 40
1.0
 40
1.0
 40
1.0
 10
-17.94706613752575
 20
169.6804956054687
 30
0.0
 10
-18.02023042458051
 20
169.6817399684409
 30
0.0
 10
-18.1615032581987
 20
169.6841427074026
 30
0.0
 10
-18.36520988577204
 20
169.7035541537348
 30
0.0
 10
-18.55197722220138
 20
169.7388591266378
 30
0.0
 10
-18.72367992069006
 20
169.7847127459474
 30
0.0
 10
-18.87893292014636
 20
169.8461972273235
 30
0.0
 10
-19.01885125910877
 20
169.9206556604677
 30
0.0
 10
-19.13973443601083
 20
170.0121531138865
 30
0.0
 10
-19.24911174066115
 20
170.1148622615072
 30
0.0
 10
-19.34147620245002
 20
170.2398953004745
 30
0.0
 10
-19.41865977419823
 20
170.3884835686578
 30
0.0
 10
-19.48522402303504
 20
170.5607497152591
 30
0.0
 10
-19.53973443041342
 20
170.7583311296863
 30
0.0
 10
-19.57954233311836
 20
170.9814665315866
 30
0.0
 10
-19.6106411491199
 20
171.2287610785079
 30
0.0
 10
-19.62695259071941
 20
171.501288823739
 30
0.0
 10
-19.62973529794375
 20
171.6909891766834
 30
0.0
 10
-19.63118760850693
 20
171.7899948586358
 30
0.0
  0
SPLINE
  5
9B
330
1F
100
AcDbEntity
  8
0
  6
HIDDEN
 62
     7
370
    18
100
AcDbSpline
210
0.0
220
0.0
230
1.0
 70
     8
 71
     3
 72
    23
 73
    19
 74
     0
 42
0.000000001
 43
0.00000001
 40
0.0
 40
0.0
 40
0.0
 40
0.0
 40
0.0610568331758602
 40
0.1195491072443123
 40
0.1768119204410533
 40
0.2329638143038585
 40
0.2885925718320205
 40
0.3446775085759287
 40
0.4016741513521853
 40
0.4605545907654066
 40
0.5204934420294792
 40
0.5812311564527335
 40
0.6434510088516426
 40
0.7078620323407415
 40
0.7753636743240291
 40
0.8464088438329611
 40
0.9211494057947004
 40
1.0
 40
1.0
 40
1.0
 40
1.0
 10
-11.06611232757566
 20
169.5948849826389
 30
0.0
 10
-11.14558431822006
 20
169.5968741395128
 30
0.0
 10
-11.30119025187703
 20
169.6007689030646
 30
0.0
 10
-11.52956403624207
 20
169.6333705769516
 30
0.0
 10
-11.74654471539138
 20
169.6888735291435
 30
0.0
 10
-11.95428286516889
 20
169.7627605584605
 30
0.0
 10
-12.149023111649
 20
169.862643126675
 30
0.0
 10
-12.33531862626801
 20
169.9796054287793
 30
0.0
 10
-12.50809568182507
 20
170.122528616013
 30
0.0
 10
-12.67157708765975
 20
170.2830796071423
 30
0.0
 10
-12.81826371337586
 20
170.4655548144481
 30
0.0
 10
-12.94820786759362
 20
170.6655550516905
 30
0.0
 10
-13.05449360734015
 20
170.8855656999429
 30
0.0
 10
-13.1431549647755
 20
171.1224226795292
 30
0.0
 10
-13.21270247010585
 20
171.3776124048592
 30
0.0
 10
-13.26132268769158
 20
171.6511326360061
 30
0.0
 10
-13.29130637914134
 20
171.9422623717231
 30
0.0
 10
-13.29440879930911
 20
172.142171822331
 30
0.0
 10
-13.2960015190972
 20
172.2448012924194
 30
0.0
  0
SPLINE
  5
9C
330
1F
100
AcDbEntity
  8
0
  6
HIDDEN
 62
     7
370
    18
100
AcDbSpline
210
0.0
220
0.0
230
1.0
 70
     8
 71
     3
 72
    23
 73
    19
 74
     0
 42
0.000000001
 43
0.00000001
 40
0.0
 40
0.0
 40
0.0
 40
0.0
 40
0.0748117115240066
 40
0.1488996184043136
 40
0.2238755666931099
 40
0.3012959568293656
 40
0.340890212879298
 40
0.3803344024257416
 40
0.4201186662468411
 40
0.4599397196669023
 40
0.500818643036387
 40
0.5418923268959642
 40
0.584421526484036
 40
0.6280604215766717
 40
0.7172418577080614
 40
0.8079277750141707
 40
0.9019302338301827
 40
1.0
 40
1.0
 40
1.0
 40
1.0
 10
-4.392496744791639
 20
170.8054726960924
 30
0.0
 10
-4.388956729785992
 20
170.7182160644459
 30
0.0
 10
-4.381910949483035
 20
170.5445470106206
 30
0.0
 10
-4.323029717548349
 20
170.2889393187447
 30
0.0
 10
-4.228552761700065
 20
170.0417669875162
 30
0.0
 10
-4.119204845655776
 20
169.8456748214587
 30
0.0
 10
-4.01542824587251
 20
169.6956739645227
 30
0.0
 10
-3.928279471971247
 20
169.587851279223
 30
0.0
 10
-3.831628839045119
 20
169.4881552074798
 30
0.0
 10
-3.727864782119539
 20
169.3934588372212
 30
0.0
 10
-3.616178845708922
 20
169.30569682972
 30
0.0
 10
-3.495631672838821
 20
169.2248325718335
 30
0.0
 10
-3.367489358961945
 20
169.1500495013824
 30
0.0
 10
-3.184530778869382
 20
169.0588198379785
 30
0.0
 10
-2.941241490963982
 20
168.9640816881367
 30
0.0
 10
-2.632292045065377
 20
168.8819096632865
 30
0.0
 10
-2.305506818166598
 20
168.8332187950658
 30
0.0
 10
-2.081621479189581
 20
168.8273737743786
 30
0.0
 10
-1.967308319939479
 20
168.8243893771701
 30
0.0
  0
SPLINE
  5
9D
330
1F
100
AcDbEntity
  8
0
  6
HIDDEN
 62
     7
370
    18
100
AcDbSpline
210
0.0
220
0.0
230
1.0
 70
     8
 71
     3
 72
    21
 73
    17
 74
     0
 42
0.000000001
 43
0.00000001
 40
0.0
 40
0.0
 40
0.0
 40
0.0
 40
0.080756520239459
 40
0.1564928761205781
 40
0.2278645863309013
 40
0.2942194159581892
 40
0.3567576405439948
 40
0.4148044898400783
 40
0.4680257207328376
 40
0.516756676591472
 40
0.6042176202059588
 40
0.6814453118756378
 40
0.747951983416878
 40
0.8047659882074069
 40
0.9054352660002646
 40
1.0
 40
1.0
 40
1.0
 40
1.0
 10
9.556684112548849
 20
170.3198999447293
 30
0.0
 10
9.586601500830538
 20
170.3693667509788
 30
0.0
 10
9.644576486928687
 20
170.4652252991125
 30
0.0
 10
9.72828926741266
 20
170.6052422479586
 30
0.0
 10
9.81047734550036
 20
170.7340771214881
 30
0.0
 10
9.886334988281162
 20
170.8557405599209
 30
0.0
 10
9.96067297423495
 20
170.9670240496946
 30
0.0
 10
10.027312004997
 20
171.072139162426
 30
0.0
 10
10.09423497324392
 20
171.165131078019
 30
0.0
 10
10.17107739285516
 20
171.276850282715
 30
0.0
 10
10.26492114439017
 20
171.3976389483176
 30
0.0
 10
10.3744301669603
 20
171.5217240395985
 30
0.0
 10
10.47511642710878
 20
171.6245106193574
 30
0.0
 10
10.60234921524289
 20
171.7225826805312
 30
0.0
 10
10.76055651587054
 20
171.8123772291218
 30
0.0
 10
10.89394783185703
 20
171.8549733602057
 30
0.0
 10
10.95855806138783
 20
171.8756054814657
 30
0.0
  0
SPLINE
  5
9E
330
1F
100
AcDbEntity
  8
0
  6
HIDDEN
 62
     7
370
    18
100
AcDbSpline
210
0.0
220
0.0
230
1.0
 70
     8
 71
     3
 72
    27
 73
    23
 74
     0
 42
0.000000001
 43
0.00000001
 40
0.0
 40
0.0
 40
0.0
 40
0.0
 40
0.0621037847913073
 40
0.1201946065074408
 40
0.1743599492228165
 40
0.2250078830566554
 40
0.2723159650400798
 40
0.3163395597264798
 40
0.3568150324191085
 40
0.393918520275055
 40
0.4295244282576463
 40
0.4646130316301391
 40
0.4999612336346006
 40
0.5354025186231431
 40
0.5715684610701065
 40
0.6081082509152295
 40
0.6455300397442337
 40
0.6843794722622714
 40
0.7626128937075287
 40
0.8405203125718235
 40
0.9190846743554598
 40
0.9999999999999999
 40
0.9999999999999999
 40
0.9999999999999999
 40
0.9999999999999999
 10
10.43151766459149
 20
175.5876285807292
 30
0.0
 10
10.36329280599437
 20
175.5870965462937
 30
0.0
 10
10.2312515775787
 20
175.5860668559161
 30
0.0
 10
10.03976983024584
 20
175.578708934944
 30
0.0
 10
9.861463117446432
 20
175.5630770267308
 30
0.0
 10
9.695207674115784
 20
175.5456180969681
 30
0.0
 10
9.541287988206278
 20
175.5198396460905
 30
0.0
 10
9.399630705355756
 20
175.4895968734439
 30
0.0
 10
9.270779113501925
 20
175.4538534332181
 30
0.0
 10
9.153752792766051
 20
175.4116032042591
 30
0.0
 10
9.045169062491798
 20
175.3638190622368
 30
0.0
 10
8.944548789129698
 20
175.3048285728822
 30
0.0
 10
8.847571534715847
 20
175.2402989130476
 30
0.0
 10
8.758103026950092
 20
175.1638547880426
 30
0.0
 10
8.67211363517334
 20
175.0817238400411
 30
0.0
 10
8.593203481802824
 20
174.9897966237401
 30
0.0
 10
8.519037225475243
 20
174.8903739925485
 30
0.0
 10
8.428860855288423
 20
174.7464001852506
 30
0.0
 10
8.334151114175299
 20
174.5534135533512
 30
0.0
 10
8.25257600911977
 20
174.3082260016413
 30
0.0
 10
8.200705013610868
 20
174.0514851903817
 30
0.0
 10
8.1951057258992
 20
173.8761102706314
 30
0.0
 10
8.192264811197939
 20
173.7871301693387
 30
0.0
  0
SPLINE
  5
9F
330
1F
100
AcDbEntity
  8
0
  6
HIDDEN
 62
     7
370
    18
100
AcDbSpline
210
0.0
220
0.0
230
1.0
 70
     8
 71
     3
 72
    19
 73
    15
 74
     0
 42
0.000000001
 43
0.00000001
 40
0.0
 40
0.0
 40
0.0
 40
0.0
 40
0.093813437394172
 40
0.180220664957641
 40
0.2604102883577049
 40
0.3346865233629541
 40
0.4070661147979162
 40
0.4814349382811623
 40
0.5592715499458982
 40
0.6424655978377196
 40
0.7285368489066265
 40
0.815944257740895
 40
0.9060181327287865
 40
1.0
 40
1.0
 40
1.0
 40
1.0
 10
-0.1119656032985829
 20
171.2214868164062
 30
0.0
 10
-0.12230030585606
 20
171.1369207666608
 30
0.0
 10
-0.1421538259783669
 20
170.9744648313356
 30
0.0
 10
-0.1981057286396115
 20
170.7444125049528
 30
0.0
 10
-0.2685920248297488
 20
170.53703388875
 30
0.0
 10
-0.3613384670903141
 20
170.3525418207773
 30
0.0
 10
-0.4752551325514595
 20
170.1865458291152
 30
0.0
 10
-0.6177827511150212
 20
170.0395435275651
 30
0.0
 10
-0.788933821782054
 20
169.9105011366451
 30
0.0
 10
-0.9846732608701289
 20
169.8001619156984
 30
0.0
 10
-1.198851791690311
 20
169.7072168835298
 30
0.0
 10
-1.429578834677034
 20
169.6420143324404
 30
0.0
 10
-1.673439367064108
 20
169.6024754535854
 30
0.0
 10
-1.840524352677787
 20
169.597450702558
 30
0.0
 10
-1.925840674506265
 20
169.5948849826389
 30
0.0
  0
SPLINE
  5
A0
330
1F
100
AcDbEntity
  8
0
  6
HIDDEN
 62
     7
370
    18
100
AcDbSpline
210
0.0
220
0.0
230
1.0
 70
     8
 71
     3
 72
    23
 73
    19
 74
     0
 42
0.000000001
 43
0.00000001
 40
0.0
 40
0.0
 40
0.0
 40
0.0
 40
0.0752245959663777
 40
0.1465713103289057
 40
0.2144952598141367
 40
0.2794534070191469
 40
0.3424182556849973
 40
0.4035099350204986
 40
0.4637740862491151
 40
0.5238754400688773
 40
0.583261423136512
 40
0.6413103871737768
 40
0.6989047823355463
 40
0.756300915492992
 40
0.8146321189351089
 40
0.8743276931491835
 40
0.9357847783626051
 40
1.0
 40
1.0
 40
1.0
 40
1.0
 10
-7.902532280815945
 20
172.1605283355713
 30
0.0
 10
-7.904868822966526
 20
172.2944041128694
 30
0.0
 10
-7.909421456852418
 20
172.5552542756095
 30
0.0
 10
-7.951457859918893
 20
172.9351676608946
 30
0.0
 10
-8.020805873736382
 20
173.2921898355392
 30
0.0
 10
-8.11620124476302
 20
173.6279723162198
 30
0.0
 10
-8.243080235266419
 20
173.9399826691188
 30
0.0
 10
-8.393628601269429
 20
174.2320576017372
 30
0.0
 10
-8.576292795290373
 20
174.4991135119388
 30
0.0
 10
-8.78269147839573
 20
174.7442381906431
 30
0.0
 10
-9.013292564955483
 20
174.9609265009027
 30
0.0
 10
-9.258801186178948
 20
175.1533820059597
 30
0.0
 10
-9.52230220012432
 20
175.313911345115
 30
0.0
 10
-9.801356042403844
 20
175.4464559995745
 30
0.0
 10
-10.09714962614495
 20
175.5482198599861
 30
0.0
 10
-10.40885209371204
 20
175.6194638443956
 30
0.0
 10
-10.73613017995831
 20
175.6654231318614
 30
0.0
 10
-10.95983240762518
 20
175.6705960032373
 30
0.0
 10
-11.07413832346596
 20
175.673239203559
 30
0.0
  0
SPLINE
  5
A1
330
1F
100
AcDbEntity
  8
0
  6
HIDDEN
 62
     7
370
    18
100
AcDbSpline
210
0.0
220
0.0
230
1.0
 70
     8
 71
     3
 72
    19
 73
    15
 74
     0
 42
0.000000001
 43
0.00000001
 40
0.0
 40
0.0
 40
0.0
 40
0.0
 40
0.0749469658775889
 40
0.1471083341849687
 40
0.2164096741868542
 40
0.2829324078001281
 40
0.3472179263984972
 40
0.4093787589848512
 40
0.4693963126005387
 40
0.5289591812310039
 40
0.6445627098265606
 40
0.759868442406739
 40
0.8776916298410447
 40
1.0
 40
1.0
 40
1.0
 40
1.0
 10
-3.23407800462508
 20
172.4200355360243
 30
0.0
 10
-3.28209912322738
 20
172.3979112463932
 30
0.0
 10
-3.376356531523551
 20
172.3544849735008
 30
0.0
 10
-3.509729215779572
 20
172.2801265654558
 30
0.0
 10
-3.634989015320025
 20
172.203572344692
 30
0.0
 10
-3.748235424968212
 20
172.1192136567119
 30
0.0
 10
-3.855033151875293
 20
172.0347421371177
 30
0.0
 10
-3.949935025738773
 20
171.9434212369054
 30
0.0
 10
-4.034982440241667
 20
171.8473997735186
 30
0.0
 10
-4.135724874775274
 20
171.7154697807158
 30
0.0
 10
-4.239063496504055
 20
171.5373979502131
 30
0.0
 10
-4.327850000108736
 20
171.3072524929132
 30
0.0
 10
-4.383388252938849
 20
171.0613613256465
 30
0.0
 10
-4.389423008407157
 20
170.8918244438622
 30
0.0
 10
-4.39249674479164
 20
170.8054726960924
 30
0.0
  0
SPLINE
  5
A2
330
1F
100
AcDbEntity
  8
0
  6
HIDDEN
 62
     7
370
    18
100
AcDbSpline
210
0.0
220
0.0
230
1.0
 70
     8
 71
     3
 72
    23
 73
    19
 74
     0
 42
0.000000001
 43
0.00000001
 40
0.0
 40
0.0
 40
0.0
 40
0.0
 40
0.1004657318433372
 40
0.1952520278281333
 40
0.2859625810545491
 40
0.372854013961896
 40
0.4148928980710356
 40
0.4560934862860258
 40
0.4959768588387379
 40
0.5353752545353767
 40
0.5741414568377522
 40
0.612300453505568
 40
0.6508585457575342
 40
0.6892871549641804
 40
0.7658194335102668
 40
0.8424140215159318
 40
0.9199436709640235
 40
1.0
 40
1.0
 40
1.0
 40
1.0
 10
-1.745255766974527
 20
175.673239203559
 30
0.0
 10
-1.864008343665188
 20
175.6706040362693
 30
0.0
 10
-2.094800286183698
 20
175.6654826705306
 30
0.0
 10
-2.4303878378513
 20
175.620316751869
 30
0.0
 10
-2.744325301184619
 20
175.5475383615174
 30
0.0
 10
-2.990076793777862
 20
175.4617948033383
 30
0.0
 10
-3.172239093133851
 20
175.3765667448073
 30
0.0
 10
-3.30063993279328
 20
175.307887436231
 30
0.0
 10
-3.420230956758687
 20
175.2304852024921
 30
0.0
 10
-3.533294276347088
 20
175.1485306099725
 30
0.0
 10
-3.635789240576042
 20
175.0566852586617
 30
0.0
 10
-3.73194899852433
 20
174.9597794433965
 30
0.0
 10
-3.820155826872213
 20
174.855945122445
 30
0.0
 10
-3.924903958155606
 20
174.7076437409409
 30
0.0
 10
-4.035548840193027
 20
174.5093113171518
 30
0.0
 10
-4.13547095200434
 20
174.2549285171654
 30
0.0
 10
-4.199457348051933
 20
173.9844523180816
 30
0.0
 10
-4.213925456540411
 20
173.7986072835456
 30
0.0
 10
-4.221275499131917
 20
173.7041948784722
 30
0.0
  0
SPLINE
  5
A3
330
1F
100
AcDbEntity
  8
0
  6
HIDDEN
 62
     7
370
    18
100
AcDbSpline
210
0.0
220
0.0
230
1.0
 70
     8
 71
     3
 72
    11
 73
     7
 74
     0
 42
0.000000001
 43
0.00000001
 40
0.0
 40
0.0
 40
0.0
 40
0.0
 40
0.299433006450163
 40
0.5671911788639327
 40
0.7996365311686587
 40
0.9999999999999999
 40
0.9999999999999999
 40
0.9999999999999999
 40
0.9999999999999999
 10
20.81983167860245
 20
174.7810159937541
 30
0.0
 10
20.8446572969699
 20
174.6935801948065
 30
0.0
 10
20.89168241258687
 20
174.527957792427
 30
0.0
 10
20.96016678556275
 20
174.2950919187534
 30
0.0
 10
21.0190461742508
 20
174.0907520290668
 30
0.0
 10
21.05568777508224
 20
173.964588350102
 30
0.0
 10
21.07265054914689
 20
173.9061824417115
 30
0.0
  0
SPLINE
  5
A4
330
1F
100
AcDbEntity
  8
0
  6
HIDDEN
 62
     7
370
    18
100
AcDbSpline
210
0.0
220
0.0
230
1.0
 70
     8
 71
     3
 72
    31
 73
    27
 74
     0
 42
0.000000001
 43
0.00000001
 40
0.0
 40
0.0
 40
0.0
 40
0.0
 40
0.0524970732681834
 40
0.1031556251890812
 40
0.1514469001061655
 40
0.1980365750276143
 40
0.2428832275006936
 40
0.2863204360076021
 40
0.3279748327286722
 40
0.368524234979792
 40
0.4079850030197747
 40
0.4469738981777875
 40
0.4853056677336272
 40
0.523527722287356
 40
0.5615593996919295
 40
0.5998803471782271
 40
0.6384601864867868
 40
0.6777576969457358
 40
0.717260486447783
 40
0.7565791004917742
 40
0.7960451236613615
 40
0.8355597236480322
 40
0.8757030562458944
 40
0.9162562941044288
 40
0.9577560637442958
 40
1.0
 40
1.0
 40
1.0
 40
1.0
 10
-1.967308319939479
 20
168.8243893771701
 30
0.0
 10
-1.894611975789338
 20
168.8250663609335
 30
0.0
 10
-1.751765215714556
 20
168.8263966195364
 30
0.0
 10
-1.542326645111535
 20
168.8395852441283
 30
0.0
 10
-1.342192808780614
 20
168.8634133544901
 30
0.0
 10
-1.150563024183301
 20
168.8909936896159
 30
0.0
 10
-0.9683412935602569
 20
168.9324462519361
 30
0.0
 10
-0.7944820345033375
 20
168.9792181912471
 30
0.0
 10
-0.6305711297638221
 20
169.037895171065
 30
0.0
 10
-0.4748036188511652
 20
169.1024526956129
 30
0.0
 10
-0.3286055435960293
 20
169.1787339631433
 30
0.0
 10
-0.1889072531983105
 20
169.260489595818
 30
0.0
 10
-0.0590893266900043
 20
169.354273292047
 30
0.0
 10
0.0646945433993281
 20
169.4537302462908
 30
0.0
 10
0.1787095162708015
 20
169.564374285317
 30
0.0
 10
0.2842747831532812
 20
169.6836234330607
 30
0.0
 10
0.3825377374175689
 20
169.8112067022273
 30
0.0
 10
0.4717562984662822
 20
169.9472620196052
 30
0.0
 10
0.5514035984893209
 20
170.0902293288569
 30
0.0
 10
0.623106063405375
 20
170.2376237040784
 30
0.0
 10
0.6831117576924262
 20
170.3902313715843
 30
0.0
 10
0.7325614347857182
 20
170.5476935627499
 30
0.0
 10
0.7730395312368541
 20
170.7092954707253
 30
0.0
 10
0.8019016472246309
 20
170.8761135561373
 30
0.0
 10
0.8228537342770451
 20
171.0471012901471
 30
0.0
 10
0.8274384962149386
 20
171.1630149621084
 30
0.0
 10
0.8297512478298894
 20
171.2214868164063
 30
0.0
  0
SPLINE
  5
A5
330
1F
100
AcDbEntity
  8
0
  6
HIDDEN
 62
     7
370
    18
100
AcDbSpline
210
0.0
220
0.0
230
1.0
 70
     8
 71
     3
 72
    11
 73
     7
 74
     0
 42
0.000000001
 43
0.00000001
 40
0.0
 40
0.0
 40
0.0
 40
0.0
 40
0.2603861425240825
 40
0.5134251205046722
 40
0.759973621526005
 40
1.0
 40
1.0
 40
1.0
 40
1.0
 10
19.29623012542727
 20
172.242125960456
 30
0.0
 10
19.2435960837573
 20
172.0354539297374
 30
0.0
 10
19.13981314459974
 20
171.6279414129496
 30
0.0
 10
19.00192075932577
 20
171.0209364237585
 30
0.0
 10
18.87465049463923
 20
170.4286574984951
 30
0.0
 10
18.8013404323192
 20
170.036929475966
 30
0.0
 10
18.76517673068579
 20
169.8436908552382
 30
0.0
  0
SPLINE
  5
A6
330
1F
100
AcDbEntity
  8
0
  6
HIDDEN
 62
     7
370
    18
100
AcDbSpline
210
0.0
220
0.0
230
1.0
 70
     8
 71
     3
 72
    19
 73
    15
 74
     0
 42
0.000000001
 43
0.00000001
 40
0.0
 40
0.0
 40
0.0
 40
0.0
 40
0.1288380429995044
 40
0.2408506371773576
 40
0.3379858977314487
 40
0.4208544298319365
 40
0.494779649111241
 40
0.5659088810869707
 40
0.6370496543952355
 40
0.7093806720350334
 40
0.7821614733091768
 40
0.8536820657736314
 40
0.9261831408996514
 40
1.0
 40
1.0
 40
1.0
 40
1.0
 10
10.59872591230607
 20
172.6768674045139
 30
0.0
 10
10.50904172920229
 20
172.6782583993326
 30
0.0
 10
10.34138556071051
 20
172.6808587336794
 30
0.0
 10
10.10700452996958
 20
172.7034032871927
 30
0.0
 10
9.90651466872654
 20
172.7386436553355
 30
0.0
 10
9.737355010554431
 20
172.7921678375497
 30
0.0
 10
9.595192810930463
 20
172.8638472795724
 30
0.0
 10
9.471980499745934
 20
172.9515043006609
 30
0.0
 10
9.368380463041996
 20
173.0602534531601
 30
0.0
 10
9.283178379541793
 20
173.1849504935608
 30
0.0
 10
9.216573602375584
 20
173.32084439928
 30
0.0
 10
9.17003356062024
 20
173.4646714153663
 30
0.0
 10
9.138788207499756
 20
173.6136735874429
 30
0.0
 10
9.135593420569888
 20
173.7156290328082
 30
0.0
 10
9.133981662326411
 20
173.7670651796129
 30
0.0
  0
SPLINE
  5
A7
330
1F
100
AcDbEntity
  8
0
  6
HIDDEN
 62
     7
370
    18
100
AcDbSpline
210
0.0
220
0.0
230
1.0
 70
     8
 71
     3
 72
    11
 73
     7
 74
     0
 42
0.000000001
 43
0.00000001
 40
0.0
 40
0.0
 40
0.0
 40
0.0
 40
0.2931378033625437
 40
0.5559096193872229
 40
0.7918699011047496
 40
1.0
 40
1.0
 40
1.0
 40
1.0
 10
9.963334570990689
 20
171.991982421875
 30
0.0
 10
9.909404211681556
 20
171.9651006342754
 30
0.0
 10
9.807130109968794
 20
171.914121728991
 30
0.0
 10
9.667956951753514
 20
171.8297733881877
 30
0.0
 10
9.546035075852622
 20
171.7503666431014
 30
0.0
 10
9.476778417045217
 20
171.6908227796058
 30
0.0
 10
9.444320170084657
 20
171.6629165903727
 30
0.0
  0
SPLINE
  5
A8
330
1F
100
AcDbEntity
  8
0
  6
HIDDEN
 62
     7
370
    18
100
AcDbSpline
210
0.0
220
0.0
230
1.0
 70
     8
 71
     3
 72
    31
 73
    27
 74
     0
 42
0.000000001
 43
0.00000001
 40
0.0
 40
0.0
 40
0.0
 40
0.0
 40
0.0508466776274402
 40
0.0997427809170243
 40
0.1474233302100599
 40
0.19406693639795
 40
0.2391477013626629
 40
0.283312307313426
 40
0.3265454360452034
 40
0.3689004543555942
 40
0.4105320023339968
 40
0.4510067922871874
 40
0.4908291942835082
 40
0.5302046750280809
 40
0.5691144605642199
 40
0.6077519069652263
 40
0.6465903693423956
 40
0.6858458117594886
 40
0.7249612465918652
 40
0.7636719104855926
 40
0.8021977385530135
 40
0.84108932635543
 40
0.8796610640654374
 40
0.9190784718625332
 40
0.959101834195223
 40
1.0
 40
1.0
 40
1.0
 40
1.0
 10
-13.2960015190972
 20
172.2448012924194
 30
0.0
 10
-13.29543293601893
 20
172.3108233555657
 30
0.0
 10
-13.29431758178037
 20
172.4403347511447
 30
0.0
 10
-13.27954653824302
 20
172.6312360247531
 30
0.0
 10
-13.26049381405228
 20
172.8161991962347
 30
0.0
 10
-13.23148564461712
 20
172.9949855016155
 30
0.0
 10
-13.19150905675859
 20
173.166854887565
 30
0.0
 10
-13.14722059480084
 20
173.333114569409
 30
0.0
 10
-13.09184385816265
 20
173.4923362420082
 30
0.0
 10
-13.02899555101082
 20
173.6451282441167
 30
0.0
 10
-12.95872596935337
 20
173.7907642735856
 30
0.0
 10
-12.87926675145901
 20
173.9278070156567
 30
0.0
 10
-12.79230587020852
 20
174.0567111843249
 30
0.0
 10
-12.69694246952844
 20
174.176901349807
 30
0.0
 10
-12.59558736367434
 20
174.29007469698
 30
0.0
 10
-12.4850140403822
 20
174.3932890228847
 30
0.0
 10
-12.36704402353664
 20
174.4885977351709
 30
0.0
 10
-12.24166255214836
 20
174.5750258054409
 30
0.0
 10
-12.11088177633798
 20
174.6527180429735
 30
0.0
 10
-11.97536542684663
 20
174.7197213993188
 30
0.0
 10
-11.83554516784837
 20
174.7765273977525
 30
0.0
 10
-11.69156475530376
 20
174.8210395915001
 30
0.0
 10
-11.54429050657665
 20
174.8577888807739
 30
0.0
 10
-11.39336726330443
 20
174.8850103374357
 30
0.0
 10
-11.23761244325029
 20
174.899281732932
 30
0.0
 10
-11.13257530788834
 20
174.9015813563324
 30
0.0
 10
-11.07948898739282
 20
174.9027435980903
 30
0.0
  0
SPLINE
  5
A9
330
1F
100
AcDbEntity
  8
0
  6
HIDDEN
 62
     7
370
    18
100
AcDbSpline
210
0.0
220
0.0
230
1.0
 70
     8
 71
     3
 72
    15
 73
    11
 74
     0
 42
0.000000001
 43
0.00000001
 40
0.0
 40
0.0
 40
0.0
 40
0.0
 40
0.1952799535336409
 40
0.3709591958780741
 40
0.5263022405928001
 40
0.6620399845915411
 40
0.7769964217729867
 40
0.8711733101151212
 40
0.9457569341303442
 40
1.0
 40
1.0
 40
1.0
 40
1.0
 10
20.60981811947295
 20
174.0131957202488
 30
0.0
 10
20.62382779282812
 20
174.0630842012508
 30
0.0
 10
20.65044095546106
 20
174.1578537383242
 30
0.0
 10
20.68532457863659
 20
174.2930930798109
 30
0.0
 10
20.7199176148201
 20
174.4120305163597
 30
0.0
 10
20.74743296404267
 20
174.5162031193055
 30
0.0
 10
20.77124519500182
 20
174.6045611525553
 30
0.0
 10
20.79233194408041
 20
174.6768459187551
 30
0.0
 10
20.80589437409402
 20
174.7344721461162
 30
0.0
 10
20.81570209355232
 20
174.7672251795213
 30
0.0
 10
20.81983167860245
 20
174.7810159937541
 30
0.0
  0
SPLINE
  5
AA
330
1F
100
AcDbEntity
  8
0
  6
HIDDEN
 62
     7
370
    18
100
AcDbSpline
210
0.0
220
0.0
230
1.0
 70
     8
 71
     3
 72
    11
 73
     7
 74
     0
 42
0.000000001
 43
0.00000001
 40
0.0
 40
0.0
 40
0.0
 40
0.0
 40
0.2146091143448087
 40
0.4533589181037914
 40
0.7146093161750852
 40
1.0
 40
1.0
 40
1.0
 40
1.0
 10
18.76517673068579
 20
169.8436908552382
 30
0.0
 10
18.74279619394355
 20
169.9422128762052
 30
0.0
 10
18.6955176058229
 20
170.1503393435798
 30
0.0
 10
18.62281150058925
 20
170.4788085744241
 30
0.0
 10
18.54029314117501
 20
170.8392245538647
 30
0.0
 10
18.4841496489567
 20
171.0903691199411
 30
0.0
 10
18.45483822292754
 20
171.2214868164062
 30
0.0
  0
SPLINE
  5
AB
330
1F
100
AcDbEntity
  8
0
  6
HIDDEN
 62
     7
370
    18
100
AcDbSpline
210
0.0
220
0.0
230
1.0
 70
     8
 71
     3
 72
    23
 73
    19
 74
     0
 42
0.000000001
 43
0.00000001
 40
0.0
 40
0.0
 40
0.0
 40
0.0
 40
0.0759760013778243
 40
0.1481478407297592
 40
0.2172337747939296
 40
0.2833431655068629
 40
0.3472548812513532
 40
0.4095240071566222
 40
0.4706594156981838
 40
0.5318312023373022
 40
0.5919914954774751
 40
0.650519001859518
 40
0.7075730075804298
 40
0.7641724617862142
 40
0.8211202236130726
 40
0.8791003552029322
 40
0.9384134163756574
 40
1.0
 40
1.0
 40
1.0
 40
1.0
 10
-8.84424913194442
 20
172.1498270077176
 30
0.0
 10
-8.845691450987353
 20
172.0534204013006
 30
0.0
 10
-8.84850387133034
 20
171.8654343226212
 30
0.0
 10
-8.880709051860775
 20
171.5913677116824
 30
0.0
 10
-8.929517803476266
 20
171.3327454339953
 30
0.0
 10
-8.99699239346128
 20
171.0889626953705
 30
0.0
 10
-9.087079200124977
 20
170.8618116015084
 30
0.0
 10
-9.19722093751024
 20
170.6508559546678
 30
0.0
 10
-9.326419919886302
 20
170.4550986616064
 30
0.0
 10
-9.474608163795072
 20
170.2767581726387
 30
0.0
 10
-9.637434381096833
 20
170.116495335624
 30
0.0
 10
-9.811433573341413
 20
169.9764530439316
 30
0.0
 10
-9.996444093164907
 20
169.8596766308755
 30
0.0
 10
-10.19001642773056
 20
169.7621380218629
 30
0.0
 10
-10.39471709718784
 20
169.6869848812374
 30
0.0
 10
-10.60956538939498
 20
169.6338583431057
 30
0.0
 10
-10.83455708965914
 20
169.6006972499856
 30
0.0
 10
-10.98796563044151
 20
169.5968465426541
 30
0.0
 10
-11.06611232757566
 20
169.5948849826389
 30
0.0
  0
SPLINE
  5
AC
330
1F
100
AcDbEntity
  8
0
  6
HIDDEN
 62
     7
370
    18
100
AcDbSpline
210
0.0
220
0.0
230
1.0
 70
     8
 71
     3
 72
    23
 73
    19
 74
     0
 42
0.000000001
 43
0.00000001
 40
0.0
 40
0.0
 40
0.0
 40
0.0
 40
0.0614153619466938
 40
0.1212995515295261
 40
0.1792307330403319
 40
0.235946902696358
 40
0.2922277422078026
 40
0.3482096381939319
 40
0.4044598375581931
 40
0.4620427821046845
 40
0.520693633215465
 40
0.5803701846851843
 40
0.6422200441272157
 40
0.70655285406908
 40
0.7743053019200299
 40
0.8452659380071893
 40
0.9206237685683574
 40
1.0
 40
1.0
 40
1.0
 40
1.0
 10
8.192264811197939
 20
173.7871301693387
 30
0.0
 10
8.193571516869756
 20
173.7300086719125
 30
0.0
 10
8.196152350181627
 20
173.6171897972716
 30
0.0
 10
8.215921504556247
 20
173.4513156701081
 30
0.0
 10
8.251692958343343
 20
173.2928303116528
 30
0.0
 10
8.29756028927149
 20
173.1403424595111
 30
0.0
 10
8.360348031975958
 20
172.9960245721832
 30
0.0
 10
8.433051662443981
 20
172.8568844527917
 30
0.0
 10
8.523248176066653
 20
172.7269100712977
 30
0.0
 10
8.623957418410926
 20
172.6017575559204
 30
0.0
 10
8.741064037864623
 20
172.4870748025388
 30
0.0
 10
8.871326310886612
 20
172.3810803468657
 30
0.0
 10
9.0186604476162
 20
172.2901192830564
 30
0.0
 10
9.17823415590842
 20
172.2055869666599
 30
0.0
 10
9.354159906079806
 20
172.1361639294804
 30
0.0
 10
9.543784570152576
 20
172.0750346950375
 30
0.0
 10
9.748575737739747
 20
172.0279023299899
 30
0.0
 10
9.890519546069038
 20
172.0041612410881
 30
0.0
 10
9.963334570990689
 20
171.991982421875
 30
0.0
  0
SPLINE
  5
AD
330
1F
100
AcDbEntity
  8
0
  6
HIDDEN
 62
     7
370
    18
100
AcDbSpline
210
0.0
220
0.0
230
1.0
 70
     8
 71
     3
 72
    11
 73
     7
 74
     0
 42
0.000000001
 43
0.00000001
 40
0.0
 40
0.0
 40
0.0
 40
0.0
 40
0.2295426438440566
 40
0.4707541631011882
 40
0.7281684972329652
 40
1.0
 40
1.0
 40
1.0
 40
1.0
 10
9.444320170084659
 20
171.6629165903728
 30
0.0
 10
9.381132019276526
 20
171.6011641565974
 30
0.0
 10
9.25154352733686
 20
171.4745200838684
 30
0.0
 10
9.074703105013954
 20
171.2568076357963
 30
0.0
 10
8.899721615167376
 20
171.0173862536729
 30
0.0
 10
8.794666382912325
 20
170.8429154839497
 30
0.0
 10
8.740707863701736
 20
170.7533037228054
 30
0.0
  0
SPLINE
  5
AE
330
1F
100
AcDbEntity
  8
0
  6
HIDDEN
 62
     7
370
    18
100
AcDbSpline
210
0.0
220
0.0
230
1.0
 70
     8
 71
     3
 72
    23
 73
    19
 74
     0
 42
0.000000001
 43
0.00000001
 40
0.0
 40
0.0
 40
0.0
 40
0.0
 40
0.0559436334681676
 40
0.1107124482152113
 40
0.1640549680455865
 40
0.216875097189043
 40
0.2695777362270477
 40
0.3232718778703179
 40
0.3775758794767937
 40
0.4334442719513406
 40
0.4909173070765999
 40
0.5506207536203441
 40
0.613113413715478
 40
0.6798578844234456
 40
0.7513555212489337
 40
0.8282595659757473
 40
0.9107942346056848
 40
1.0
 40
1.0
 40
1.0
 40
1.0
 10
-11.07948898739282
 20
174.9027435980903
 30
0.0
 10
-11.00446134778098
 20
174.9012283588538
 30
0.0
 10
-10.85598165223238
 20
174.8982297004705
 30
0.0
 10
-10.63802315973421
 20
174.8658256686246
 30
0.0
 10
-10.42765585701455
 20
174.8170419950746
 30
0.0
 10
-10.22634735378452
 20
174.746576448178
 30
0.0
 10
-10.03180325204988
 20
174.6581119972767
 30
0.0
 10
-9.846262356615505
 20
174.5479703922822
 30
0.0
 10
-9.66854387747795
 20
174.4184617940471
 30
0.0
 10
-9.499403074781307
 20
174.2701372722237
 30
0.0
 10
-9.341758209375993
 20
174.0990198595797
 30
0.0
 10
-9.208411133170706
 20
173.8974078907187
 30
0.0
 10
-9.096043602995366
 20
173.6699681260923
 30
0.0
 10
-9.002212748882766
 20
173.4173188962643
 30
0.0
 10
-8.930671150567738
 20
173.1374914439893
 30
0.0
 10
-8.88122649629726
 20
172.8316935781233
 30
0.0
 10
-8.850008278817697
 20
172.4996019988445
 30
0.0
 10
-8.846217925151576
 20
172.2693993405156
 30
0.0
 10
-8.84424913194442
 20
172.1498270077176
 30
0.0
  0
SPLINE
  5
AF
330
1F
100
AcDbEntity
  8
0
  6
HIDDEN
 62
     7
370
    18
100
AcDbSpline
210
0.0
220
0.0
230
1.0
 70
     8
 71
     3
 72
    15
 73
    11
 74
     0
 42
0.000000001
 43
0.00000001
 40
0.0
 40
0.0
 40
0.0
 40
0.0
 40
0.2042261540779185
 40
0.3855417648063131
 40
0.5445479239626312
 40
0.6809444004243677
 40
0.7947315708215043
 40
0.8862118064819426
 40
0.9537405078414527
 40
1.0
 40
1.0
 40
1.0
 40
1.0
 10
23.04570787217884
 20
169.8436908552382
 30
0.0
 10
23.02189532588202
 20
169.9243445377121
 30
0.0
 10
22.97694157759615
 20
170.0766039935077
 30
0.0
 10
22.91617282176089
 20
170.2924464443514
 30
0.0
 10
22.86097850796781
 20
170.4808277340001
 30
0.0
 10
22.81395578531707
 20
170.6426260674708
 30
0.0
 10
22.77588166830232
 20
170.7780687621407
 30
0.0
 10
22.74300890837873
 20
170.8854915045827
 30
0.0
 10
22.72060324579579
 20
170.966997982945
 30
0.0
 10
22.7073256097139
 20
171.0119327749121
 30
0.0
 10
22.70192771487768
 20
171.0302005810208
 30
0.0
  0
SPLINE
  5
D4
330
1F
100
AcDbEntity
  8
0
  6
HIDDEN
 62
     7
370
    18
100
AcDbSpline
210
0.0
220
0.0
230
1.0
 70
     8
 71
     3
 72
     9
 73
     5
 74
     0
 42
0.000000001
 43
0.00000001
 40
0.0
 40
0.0
 40
0.0
 40
0.0
 40
0.5025653899218117
 40
1.0
 40
1.0
 40
1.0
 40
1.0
 10
23.35069571601023
 20
171.1960711627536
 30
0.0
 10
23.29932502331278
 20
170.9695808080854
 30
0.0
 10
23.19710809049645
 20
170.5189123792396
 30
0.0
 10
23.09600169339661
 20
170.0679935080869
 30
0.0
 10
23.04570787217884
 20
169.8436908552382
 30
0.0
  0
SPLINE
  5
E9
330
1F
100
AcDbEntity
  8
0
  6
HIDDEN
 62
     7
370
    18
100
AcDbSpline
210
0.0
220
0.0
230
1.0
 70
     8
 71
     3
 72
    11
 73
     7
 74
     0
 42
0.000000001
 43
0.00000001
 40
0.0
 40
0.0
 40
0.0
 40
0.0
 40
0.2295426438440566
 40
0.4707541631011882
 40
0.7281684972329652
 40
1.0
 40
1.0
 40
1.0
 40
1.0
 10
9.444320170084659
 20
171.6629165903728
 30
0.0
 10
9.381132019276526
 20
171.6011641565974
 30
0.0
 10
9.25154352733686
 20
171.4745200838684
 30
0.0
 10
9.074703105013954
 20
171.2568076357963
 30
0.0
 10
8.899721615167376
 20
171.0173862536729
 30
0.0
 10
8.794666382912325
 20
170.8429154839497
 30
0.0
 10
8.740707863701736
 20
170.7533037228054
 30
0.0
  0
SPLINE
  5
EA
330
1F
100
AcDbEntity
  8
0
  6
HIDDEN
 62
     7
370
    18
100
AcDbSpline
210
0.0
220
0.0
230
1.0
 70
     8
 71
     3
 72
    23
 73
    19
 74
     0
 42
0.000000001
 43
0.00000001
 40
0.0
 40
0.0
 40
0.0
 40
0.0
 40
0.0614153619466938
 40
0.1212995515295261
 40
0.1792307330403319
 40
0.235946902696358
 40
0.2922277422078026
 40
0.3482096381939319
 40
0.4044598375581931
 40
0.4620427821046845
 40
0.520693633215465
 40
0.5803701846851843
 40
0.6422200441272157
 40
0.70655285406908
 40
0.7743053019200299
 40
0.8452659380071893
 40
0.9206237685683574
 40
1.0
 40
1.0
 40
1.0
 40
1.0
 10
8.192264811197939
 20
173.7871301693387
 30
0.0
 10
8.193571516869756
 20
173.7300086719125
 30
0.0
 10
8.196152350181627
 20
173.6171897972716
 30
0.0
 10
8.215921504556247
 20
173.4513156701081
 30
0.0
 10
8.251692958343343
 20
173.2928303116528
 30
0.0
 10
8.29756028927149
 20
173.1403424595111
 30
0.0
 10
8.360348031975958
 20
172.9960245721832
 30
0.0
 10
8.433051662443981
 20
172.8568844527917
 30
0.0
 10
8.523248176066653
 20
172.7269100712977
 30
0.0
 10
8.623957418410926
 20
172.6017575559204
 30
0.0
 10
8.741064037864623
 20
172.4870748025388
 30
0.0
 10
8.871326310886612
 20
172.3810803468657
 30
0.0
 10
9.0186604476162
 20
172.2901192830564
 30
0.0
 10
9.17823415590842
 20
172.2055869666599
 30
0.0
 10
9.354159906079806
 20
172.1361639294804
 30
0.0
 10
9.543784570152576
 20
172.0750346950375
 30
0.0
 10
9.748575737739747
 20
172.0279023299899
 30
0.0
 10
9.890519546069038
 20
172.0041612410881
 30
0.0
 10
9.963334570990689
 20
171.991982421875
 30
0.0
  0
SPLINE
  5
EB
330
1F
100
AcDbEntity
  8
0
  6
HIDDEN
 62
     7
370
    18
100
AcDbSpline
210
0.0
220
0.0
230
1.0
 70
     8
 71
     3
 72
    11
 73
     7
 74
     0
 42
0.000000001
 43
0.00000001
 40
0.0
 40
0.0
 40
0.0
 40
0.0
 40
0.2931378033625437
 40
0.5559096193872229
 40
0.7918699011047496
 40
1.0
 40
1.0
 40
1.0
 40
1.0
 10
9.963334570990689
 20
171.991982421875
 30
0.0
 10
9.909404211681556
 20
171.9651006342754
 30
0.0
 10
9.807130109968794
 20
171.914121728991
 30
0.0
 10
9.667956951753514
 20
171.8297733881877
 30
0.0
 10
9.546035075852622
 20
171.7503666431014
 30
0.0
 10
9.476778417045217
 20
171.6908227796058
 30
0.0
 10
9.444320170084657
 20
171.6629165903727
 30
0.0
  0
SPLINE
  5
EC
330
1F
100
AcDbEntity
  8
0
  6
HIDDEN
 62
     7
370
    18
100
AcDbSpline
210
0.0
220
0.0
230
1.0
 70
     8
 71
     3
 72
    11
 73
     7
 74
     0
 42
0.000000001
 43
0.00000001
 40
0.0
 40
0.0
 40
0.0
 40
0.0
 40
0.2603861425240825
 40
0.5134251205046722
 40
0.759973621526005
 40
1.0
 40
1.0
 40
1.0
 40
1.0
 10
19.29623012542727
 20
172.242125960456
 30
0.0
 10
19.2435960837573
 20
172.0354539297374
 30
0.0
 10
19.13981314459974
 20
171.6279414129496
 30
0.0
 10
19.00192075932577
 20
171.0209364237585
 30
0.0
 10
18.87465049463923
 20
170.4286574984951
 30
0.0
 10
18.8013404323192
 20
170.036929475966
 30
0.0
 10
18.76517673068579
 20
169.8436908552382
 30
0.0
  0
SPLINE
  5
ED
330
1F
100
AcDbEntity
  8
0
  6
HIDDEN
 62
     7
370
    18
100
AcDbSpline
210
0.0
220
0.0
230
1.0
 70
     8
 71
     3
 72
    31
 73
    27
 74
     0
 42
0.000000001
 43
0.00000001
 40
0.0
 40
0.0
 40
0.0
 40
0.0
 40
0.0524970732681834
 40
0.1031556251890812
 40
0.1514469001061655
 40
0.1980365750276143
 40
0.2428832275006936
 40
0.2863204360076021
 40
0.3279748327286722
 40
0.368524234979792
 40
0.4079850030197747
 40
0.4469738981777875
 40
0.4853056677336272
 40
0.523527722287356
 40
0.5615593996919295
 40
0.5998803471782271
 40
0.6384601864867868
 40
0.6777576969457358
 40
0.717260486447783
 40
0.7565791004917742
 40
0.7960451236613615
 40
0.8355597236480322
 40
0.8757030562458944
 40
0.9162562941044288
 40
0.9577560637442958
 40
1.0
 40
1.0
 40
1.0
 40
1.0
 10
-1.967308319939479
 20
168.8243893771701
 30
0.0
 10
-1.894611975789338
 20
168.8250663609335
 30
0.0
 10
-1.751765215714556
 20
168.8263966195364
 30
0.0
 10
-1.542326645111535
 20
168.8395852441283
 30
0.0
 10
-1.342192808780614
 20
168.8634133544901
 30
0.0
 10
-1.150563024183301
 20
168.8909936896159
 30
0.0
 10
-0.9683412935602569
 20
168.9324462519361
 30
0.0
 10
-0.7944820345033375
 20
168.9792181912471
 30
0.0
 10
-0.6305711297638221
 20
169.037895171065
 30
0.0
 10
-0.4748036188511652
 20
169.1024526956129
 30
0.0
 10
-0.3286055435960293
 20
169.1787339631433
 30
0.0
 10
-0.1889072531983105
 20
169.260489595818
 30
0.0
 10
-0.0590893266900043
 20
169.354273292047
 30
0.0
 10
0.0646945433993281
 20
169.4537302462908
 30
0.0
 10
0.1787095162708015
 20
169.564374285317
 30
0.0
 10
0.2842747831532812
 20
169.6836234330607
 30
0.0
 10
0.3825377374175689
 20
169.8112067022273
 30
0.0
 10
0.4717562984662822
 20
169.9472620196052
 30
0.0
 10
0.5514035984893209
 20
170.0902293288569
 30
0.0
 10
0.623106063405375
 20
170.2376237040784
 30
0.0
 10
0.6831117576924262
 20
170.3902313715843
 30
0.0
 10
0.7325614347857182
 20
170.5476935627499
 30
0.0
 10
0.7730395312368541
 20
170.7092954707253
 30
0.0
 10
0.8019016472246309
 20
170.8761135561373
 30
0.0
 10
0.8228537342770451
 20
171.0471012901471
 30
0.0
 10
0.8274384962149386
 20
171.1630149621084
 30
0.0
 10
0.8297512478298894
 20
171.2214868164063
 30
0.0
  0
SPLINE
  5
EE
330
1F
100
AcDbEntity
  8
0
  6
HIDDEN
 62
     7
370
    18
100
AcDbSpline
210
0.0
220
0.0
230
1.0
 70
     8
 71
     3
 72
    23
 73
    19
 74
     0
 42
0.000000001
 43
0.00000001
 40
0.0
 40
0.0
 40
0.0
 40
0.0
 40
0.1004657318433372
 40
0.1952520278281333
 40
0.2859625810545491
 40
0.372854013961896
 40
0.4148928980710356
 40
0.4560934862860258
 40
0.4959768588387379
 40
0.5353752545353767
 40
0.5741414568377522
 40
0.612300453505568
 40
0.6508585457575342
 40
0.6892871549641804
 40
0.7658194335102668
 40
0.8424140215159318
 40
0.9199436709640235
 40
1.0
 40
1.0
 40
1.0
 40
1.0
 10
-1.745255766974527
 20
175.673239203559
 30
0.0
 10
-1.864008343665188
 20
175.6706040362693
 30
0.0
 10
-2.094800286183698
 20
175.6654826705306
 30
0.0
 10
-2.4303878378513
 20
175.620316751869
 30
0.0
 10
-2.744325301184619
 20
175.5475383615174
 30
0.0
 10
-2.990076793777862
 20
175.4617948033383
 30
0.0
 10
-3.172239093133851
 20
175.3765667448073
 30
0.0
 10
-3.30063993279328
 20
175.307887436231
 30
0.0
 10
-3.420230956758687
 20
175.2304852024921
 30
0.0
 10
-3.533294276347088
 20
175.1485306099725
 30
0.0
 10
-3.635789240576042
 20
175.0566852586617
 30
0.0
 10
-3.73194899852433
 20
174.9597794433965
 30
0.0
 10
-3.820155826872213
 20
174.855945122445
 30
0.0
 10
-3.924903958155606
 20
174.7076437409409
 30
0.0
 10
-4.035548840193027
 20
174.5093113171518
 30
0.0
 10
-4.13547095200434
 20
174.2549285171654
 30
0.0
 10
-4.199457348051933
 20
173.9844523180816
 30
0.0
 10
-4.213925456540411
 20
173.7986072835456
 30
0.0
 10
-4.221275499131917
 20
173.7041948784722
 30
0.0
  0
SPLINE
  5
EF
330
1F
100
AcDbEntity
  8
0
  6
HIDDEN
 62
     7
370
    18
100
AcDbSpline
210
0.0
220
0.0
230
1.0
 70
     8
 71
     3
 72
    19
 73
    15
 74
     0
 42
0.000000001
 43
0.00000001
 40
0.0
 40
0.0
 40
0.0
 40
0.0
 40
0.0749469658775889
 40
0.1471083341849687
 40
0.2164096741868542
 40
0.2829324078001281
 40
0.3472179263984972
 40
0.4093787589848512
 40
0.4693963126005387
 40
0.5289591812310039
 40
0.6445627098265606
 40
0.759868442406739
 40
0.8776916298410447
 40
1.0
 40
1.0
 40
1.0
 40
1.0
 10
-3.23407800462508
 20
172.4200355360243
 30
0.0
 10
-3.28209912322738
 20
172.3979112463932
 30
0.0
 10
-3.376356531523551
 20
172.3544849735008
 30
0.0
 10
-3.509729215779572
 20
172.2801265654558
 30
0.0
 10
-3.634989015320025
 20
172.203572344692
 30
0.0
 10
-3.748235424968212
 20
172.1192136567119
 30
0.0
 10
-3.855033151875293
 20
172.0347421371177
 30
0.0
 10
-3.949935025738773
 20
171.9434212369054
 30
0.0
 10
-4.034982440241667
 20
171.8473997735186
 30
0.0
 10
-4.135724874775274
 20
171.7154697807158
 30
0.0
 10
-4.239063496504055
 20
171.5373979502131
 30
0.0
 10
-4.327850000108736
 20
171.3072524929132
 30
0.0
 10
-4.383388252938849
 20
171.0613613256465
 30
0.0
 10
-4.389423008407157
 20
170.8918244438622
 30
0.0
 10
-4.39249674479164
 20
170.8054726960924
 30
0.0
  0
SPLINE
  5
F0
330
1F
100
AcDbEntity
  8
0
  6
HIDDEN
 62
     7
370
    18
100
AcDbSpline
210
0.0
220
0.0
230
1.0
 70
     8
 71
     3
 72
    23
 73
    19
 74
     0
 42
0.000000001
 43
0.00000001
 40
0.0
 40
0.0
 40
0.0
 40
0.0
 40
0.0752245959663777
 40
0.1465713103289057
 40
0.2144952598141367
 40
0.2794534070191469
 40
0.3424182556849973
 40
0.4035099350204986
 40
0.4637740862491151
 40
0.5238754400688773
 40
0.583261423136512
 40
0.6413103871737768
 40
0.6989047823355463
 40
0.756300915492992
 40
0.8146321189351089
 40
0.8743276931491835
 40
0.9357847783626051
 40
1.0
 40
1.0
 40
1.0
 40
1.0
 10
-7.902532280815945
 20
172.1605283355713
 30
0.0
 10
-7.904868822966526
 20
172.2944041128694
 30
0.0
 10
-7.909421456852418
 20
172.5552542756095
 30
0.0
 10
-7.951457859918893
 20
172.9351676608946
 30
0.0
 10
-8.020805873736382
 20
173.2921898355392
 30
0.0
 10
-8.11620124476302
 20
173.6279723162198
 30
0.0
 10
-8.243080235266419
 20
173.9399826691188
 30
0.0
 10
-8.393628601269429
 20
174.2320576017372
 30
0.0
 10
-8.576292795290373
 20
174.4991135119388
 30
0.0
 10
-8.78269147839573
 20
174.7442381906431
 30
0.0
 10
-9.013292564955483
 20
174.9609265009027
 30
0.0
 10
-9.258801186178948
 20
175.1533820059597
 30
0.0
 10
-9.52230220012432
 20
175.313911345115
 30
0.0
 10
-9.801356042403844
 20
175.4464559995745
 30
0.0
 10
-10.09714962614495
 20
175.5482198599861
 30
0.0
 10
-10.40885209371204
 20
175.6194638443956
 30
0.0
 10
-10.73613017995831
 20
175.6654231318614
 30
0.0
 10
-10.95983240762518
 20
175.6705960032373
 30
0.0
 10
-11.07413832346596
 20
175.673239203559
 30
0.0
  0
SPLINE
  5
F1
330
1F
100
AcDbEntity
  8
0
  6
HIDDEN
 62
     7
370
    18
100
AcDbSpline
210
0.0
220
0.0
230
1.0
 70
     8
 71
     3
 72
    19
 73
    15
 74
     0
 42
0.000000001
 43
0.00000001
 40
0.0
 40
0.0
 40
0.0
 40
0.0
 40
0.093813437394172
 40
0.180220664957641
 40
0.2604102883577049
 40
0.3346865233629541
 40
0.4070661147979162
 40
0.4814349382811623
 40
0.5592715499458982
 40
0.6424655978377196
 40
0.7285368489066265
 40
0.815944257740895
 40
0.9060181327287865
 40
1.0
 40
1.0
 40
1.0
 40
1.0
 10
-0.1119656032985829
 20
171.2214868164062
 30
0.0
 10
-0.12230030585606
 20
171.1369207666608
 30
0.0
 10
-0.1421538259783669
 20
170.9744648313356
 30
0.0
 10
-0.1981057286396115
 20
170.7444125049528
 30
0.0
 10
-0.2685920248297488
 20
170.53703388875
 30
0.0
 10
-0.3613384670903141
 20
170.3525418207773
 30
0.0
 10
-0.4752551325514595
 20
170.1865458291152
 30
0.0
 10
-0.6177827511150212
 20
170.0395435275651
 30
0.0
 10
-0.788933821782054
 20
169.9105011366451
 30
0.0
 10
-0.9846732608701289
 20
169.8001619156984
 30
0.0
 10
-1.198851791690311
 20
169.7072168835298
 30
0.0
 10
-1.429578834677034
 20
169.6420143324404
 30
0.0
 10
-1.673439367064108
 20
169.6024754535854
 30
0.0
 10
-1.840524352677787
 20
169.597450702558
 30
0.0
 10
-1.925840674506265
 20
169.5948849826389
 30
0.0
  0
SPLINE
  5
F2
330
1F
100
AcDbEntity
  8
0
  6
HIDDEN
 62
     7
370
    18
100
AcDbSpline
210
0.0
220
0.0
230
1.0
 70
     8
 71
     3
 72
    27
 73
    23
 74
     0
 42
0.000000001
 43
0.00000001
 40
0.0
 40
0.0
 40
0.0
 40
0.0
 40
0.0621037847913073
 40
0.1201946065074408
 40
0.1743599492228165
 40
0.2250078830566554
 40
0.2723159650400798
 40
0.3163395597264798
 40
0.3568150324191085
 40
0.393918520275055
 40
0.4295244282576463
 40
0.4646130316301391
 40
0.4999612336346006
 40
0.5354025186231431
 40
0.5715684610701065
 40
0.6081082509152295
 40
0.6455300397442337
 40
0.6843794722622714
 40
0.7626128937075287
 40
0.8405203125718235
 40
0.9190846743554598
 40
0.9999999999999999
 40
0.9999999999999999
 40
0.9999999999999999
 40
0.9999999999999999
 10
10.43151766459149
 20
175.5876285807292
 30
0.0
 10
10.36329280599437
 20
175.5870965462937
 30
0.0
 10
10.2312515775787
 20
175.5860668559161
 30
0.0
 10
10.03976983024584
 20
175.578708934944
 30
0.0
 10
9.861463117446432
 20
175.5630770267308
 30
0.0
 10
9.695207674115784
 20
175.5456180969681
 30
0.0
 10
9.541287988206278
 20
175.5198396460905
 30
0.0
 10
9.399630705355756
 20
175.4895968734439
 30
0.0
 10
9.270779113501925
 20
175.4538534332181
 30
0.0
 10
9.153752792766051
 20
175.4116032042591
 30
0.0
 10
9.045169062491798
 20
175.3638190622368
 30
0.0
 10
8.944548789129698
 20
175.3048285728822
 30
0.0
 10
8.847571534715847
 20
175.2402989130476
 30
0.0
 10
8.758103026950092
 20
175.1638547880426
 30
0.0
 10
8.67211363517334
 20
175.0817238400411
 30
0.0
 10
8.593203481802824
 20
174.9897966237401
 30
0.0
 10
8.519037225475243
 20
174.8903739925485
 30
0.0
 10
8.428860855288423
 20
174.7464001852506
 30
0.0
 10
8.334151114175299
 20
174.5534135533512
 30
0.0
 10
8.25257600911977
 20
174.3082260016413
 30
0.0
 10
8.200705013610868
 20
174.0514851903817
 30
0.0
 10
8.1951057258992
 20
173.8761102706314
 30
0.0
 10
8.192264811197939
 20
173.7871301693387
 30
0.0
  0
SPLINE
  5
F3
330
1F
100
AcDbEntity
  8
0
  6
HIDDEN
 62
     7
370
    18
100
AcDbSpline
210
0.0
220
0.0
230
1.0
 70
     8
 71
     3
 72
    21
 73
    17
 74
     0
 42
0.000000001
 43
0.00000001
 40
0.0
 40
0.0
 40
0.0
 40
0.0
 40
0.080756520239459
 40
0.1564928761205781
 40
0.2278645863309013
 40
0.2942194159581892
 40
0.3567576405439948
 40
0.4148044898400783
 40
0.4680257207328376
 40
0.516756676591472
 40
0.6042176202059588
 40
0.6814453118756378
 40
0.747951983416878
 40
0.8047659882074069
 40
0.9054352660002646
 40
1.0
 40
1.0
 40
1.0
 40
1.0
 10
9.556684112548849
 20
170.3198999447293
 30
0.0
 10
9.586601500830538
 20
170.3693667509788
 30
0.0
 10
9.644576486928687
 20
170.4652252991125
 30
0.0
 10
9.72828926741266
 20
170.6052422479586
 30
0.0
 10
9.81047734550036
 20
170.7340771214881
 30
0.0
 10
9.886334988281162
 20
170.8557405599209
 30
0.0
 10
9.96067297423495
 20
170.9670240496946
 30
0.0
 10
10.027312004997
 20
171.072139162426
 30
0.0
 10
10.09423497324392
 20
171.165131078019
 30
0.0
 10
10.17107739285516
 20
171.276850282715
 30
0.0
 10
10.26492114439017
 20
171.3976389483176
 30
0.0
 10
10.3744301669603
 20
171.5217240395985
 30
0.0
 10
10.47511642710878
 20
171.6245106193574
 30
0.0
 10
10.60234921524289
 20
171.7225826805312
 30
0.0
 10
10.76055651587054
 20
171.8123772291218
 30
0.0
 10
10.89394783185703
 20
171.8549733602057
 30
0.0
 10
10.95855806138783
 20
171.8756054814657
 30
0.0
  0
SPLINE
  5
F4
330
1F
100
AcDbEntity
  8
0
  6
HIDDEN
 62
     7
370
    18
100
AcDbSpline
210
0.0
220
0.0
230
1.0
 70
     8
 71
     3
 72
    23
 73
    19
 74
     0
 42
0.000000001
 43
0.00000001
 40
0.0
 40
0.0
 40
0.0
 40
0.0
 40
0.0748117115240066
 40
0.1488996184043136
 40
0.2238755666931099
 40
0.3012959568293656
 40
0.340890212879298
 40
0.3803344024257416
 40
0.4201186662468411
 40
0.4599397196669023
 40
0.500818643036387
 40
0.5418923268959642
 40
0.584421526484036
 40
0.6280604215766717
 40
0.7172418577080614
 40
0.8079277750141707
 40
0.9019302338301827
 40
1.0
 40
1.0
 40
1.0
 40
1.0
 10
-4.392496744791639
 20
170.8054726960924
 30
0.0
 10
-4.388956729785992
 20
170.7182160644459
 30
0.0
 10
-4.381910949483035
 20
170.5445470106206
 30
0.0
 10
-4.323029717548349
 20
170.2889393187447
 30
0.0
 10
-4.228552761700065
 20
170.0417669875162
 30
0.0
 10
-4.119204845655776
 20
169.8456748214587
 30
0.0
 10
-4.01542824587251
 20
169.6956739645227
 30
0.0
 10
-3.928279471971247
 20
169.587851279223
 30
0.0
 10
-3.831628839045119
 20
169.4881552074798
 30
0.0
 10
-3.727864782119539
 20
169.3934588372212
 30
0.0
 10
-3.616178845708922
 20
169.30569682972
 30
0.0
 10
-3.495631672838821
 20
169.2248325718335
 30
0.0
 10
-3.367489358961945
 20
169.1500495013824
 30
0.0
 10
-3.184530778869382
 20
169.0588198379785
 30
0.0
 10
-2.941241490963982
 20
168.9640816881367
 30
0.0
 10
-2.632292045065377
 20
168.8819096632865
 30
0.0
 10
-2.305506818166598
 20
168.8332187950658
 30
0.0
 10
-2.081621479189581
 20
168.8273737743786
 30
0.0
 10
-1.967308319939479
 20
168.8243893771701
 30
0.0
  0
SPLINE
  5
F5
330
1F
100
AcDbEntity
  8
0
  6
HIDDEN
 62
     7
370
    18
100
AcDbSpline
210
0.0
220
0.0
230
1.0
 70
     8
 71
     3
 72
    23
 73
    19
 74
     0
 42
0.000000001
 43
0.00000001
 40
0.0
 40
0.0
 40
0.0
 40
0.0
 40
0.0694744696082621
 40
0.1341481695616727
 40
0.1940254503123161
 40
0.2498055700837757
 40
0.3026442359404427
 40
0.3522865500223069
 40
0.3997954814829275
 40
0.446212546524588
 40
0.494314049923035
 40
0.5465949866419648
 40
0.6047820771213888
 40
0.6694016956884092
 40
0.7409058976065583
 40
0.819843157026124
 40
0.9059751296180065
 40
1.0
 40
1.0
 40
1.0
 40
1.0
 10
-17.94706613752575
 20
169.6804956054687
 30
0.0
 10
-18.02023042458051
 20
169.6817399684409
 30
0.0
 10
-18.1615032581987
 20
169.6841427074026
 30
0.0
 10
-18.36520988577204
 20
169.7035541537348
 30
0.0
 10
-18.55197722220138
 20
169.7388591266378
 30
0.0
 10
-18.72367992069006
 20
169.7847127459474
 30
0.0
 10
-18.87893292014636
 20
169.8461972273235
 30
0.0
 10
-19.01885125910877
 20
169.9206556604677
 30
0.0
 10
-19.13973443601083
 20
170.0121531138865
 30
0.0
 10
-19.24911174066115
 20
170.1148622615072
 30
0.0
 10
-19.34147620245002
 20
170.2398953004745
 30
0.0
 10
-19.41865977419823
 20
170.3884835686578
 30
0.0
 10
-19.48522402303504
 20
170.5607497152591
 30
0.0
 10
-19.53973443041342
 20
170.7583311296863
 30
0.0
 10
-19.57954233311836
 20
170.9814665315866
 30
0.0
 10
-19.6106411491199
 20
171.2287610785079
 30
0.0
 10
-19.62695259071941
 20
171.501288823739
 30
0.0
 10
-19.62973529794375
 20
171.6909891766834
 30
0.0
 10
-19.63118760850693
 20
171.7899948586358
 30
0.0
  0
SPLINE
  5
F6
330
1F
100
AcDbEntity
  8
0
  6
HIDDEN
 62
     7
370
    18
100
AcDbSpline
210
0.0
220
0.0
230
1.0
 70
     8
 71
     3
 72
    11
 73
     7
 74
     0
 42
0.000000001
 43
0.00000001
 40
0.0
 40
0.0
 40
0.0
 40
0.0
 40
0.2627412305282963
 40
0.5099565029432583
 40
0.7533267184204681
 40
1.0
 40
1.0
 40
1.0
 40
1.0
 10
-0.3687974717881662
 20
173.9061824417115
 30
0.0
 10
-0.3712310897955289
 20
173.8487310605606
 30
0.0
 10
-0.3759545179611012
 20
173.7372232269326
 30
0.0
 10
-0.4241876255929181
 20
173.5788042084459
 30
0.0
 10
-0.4983704825939038
 20
173.4343950085795
 30
0.0
 10
-0.5714524165333433
 20
173.3558227004043
 30
0.0
 10
-0.6082396825154339
 20
173.3162717437744
 30
0.0
  0
SPLINE
  5
F7
330
1F
100
AcDbEntity
  8
0
  6
HIDDEN
 62
     7
370
    18
100
AcDbSpline
210
0.0
220
0.0
230
1.0
 70
     8
 71
     3
 72
    23
 73
    19
 74
     0
 42
0.000000001
 43
0.00000001
 40
0.0
 40
0.0
 40
0.0
 40
0.0
 40
0.06714104982829
 40
0.1315102546513846
 40
0.1926394464174723
 40
0.2511477698027839
 40
0.3075867210387798
 40
0.3634341680349903
 40
0.4180970652056821
 40
0.472611412009122
 40
0.5281676960517119
 40
0.5855127690028524
 40
0.6453265140189905
 40
0.7080150561965228
 40
0.7744826987967318
 40
0.8449737211450989
 40
0.9204206830432692
 40
1.0
 40
1.0
 40
1.0
 40
1.0
 10
-3.279558648003444
 20
173.7041948784722
 30
0.0
 10
-3.273771602202503
 20
173.7520587184026
 30
0.0
 10
-3.262436422474048
 20
173.8458103918414
 30
0.0
 10
-3.230636993634088
 20
173.9805479087985
 30
0.0
 10
-3.192600267178009
 20
174.1071035899286
 30
0.0
 10
-3.144232187584587
 20
174.2240550681205
 30
0.0
 10
-3.086506246622126
 20
174.3324365056435
 30
0.0
 10
-3.018033712395218
 20
174.4310117577528
 30
0.0
 10
-2.941524640433645
 20
174.5216464645774
 30
0.0
 10
-2.855133149646997
 20
174.6027500369712
 30
0.0
 10
-2.758041883682982
 20
174.6739757040163
 30
0.0
 10
-2.650230508769937
 20
174.7355324821249
 30
0.0
 10
-2.532098756671372
 20
174.7881451222608
 30
0.0
 10
-2.402500751433219
 20
174.8287053161757
 30
0.0
 10
-2.26316937010718
 20
174.8623873317401
 30
0.0
 10
-2.112501629093466
 20
174.886565120718
 30
0.0
 10
-1.951024250582571
 20
174.8990898092442
 30
0.0
 10
-1.839803256031253
 20
174.9015042157998
 30
0.0
 10
-1.782710414462591
 20
174.9027435980903
 30
0.0
  0
SPLINE
  5
F8
330
1F
100
AcDbEntity
  8
0
  6
HIDDEN
 62
     7
370
    18
100
AcDbSpline
210
0.0
220
0.0
230
1.0
 70
     8
 71
     3
 72
    31
 73
    27
 74
     0
 42
0.000000001
 43
0.00000001
 40
0.0
 40
0.0
 40
0.0
 40
0.0
 40
0.0447019208074966
 40
0.0885433100239242
 40
0.1314652882158816
 40
0.1738166415803597
 40
0.2157218457498968
 40
0.2572590453427271
 40
0.2987409660326361
 40
0.3405017817199052
 40
0.3821485087638687
 40
0.4230933180190219
 40
0.4635881478882263
 40
0.5040079115832589
 40
0.5443884185888892
 40
0.5849182317596486
 40
0.6262240699255524
 40
0.6679428466828606
 40
0.7099108133431659
 40
0.7513544834629018
 40
0.7925957333124845
 40
0.8339301542937375
 40
0.8749942896385855
 40
0.9164363312913526
 40
0.9579019794556501
 40
1.0
 40
1.0
 40
1.0
 40
1.0
 10
-11.07012532552081
 20
168.8243893771701
 30
0.0
 10
-10.9933875269704
 20
168.825578264937
 30
0.0
 10
-10.84138916616478
 20
168.8279331538596
 30
0.0
 10
-10.61649407124339
 20
168.8496140761348
 30
0.0
 10
-10.39793761382107
 20
168.8867292599931
 30
0.0
 10
-10.18446954560628
 20
168.9333190197688
 30
0.0
 10
-9.978465382048608
 20
168.9987296362251
 30
0.0
 10
-9.778201488502425
 20
169.0757994616481
 30
0.0
 10
-9.585162533356376
 20
169.1690654424401
 30
0.0
 10
-9.398356806023992
 20
169.2744233468025
 30
0.0
 10
-9.21945770673588
 20
169.3912280501982
 30
0.0
 10
-9.05225818628799
 20
169.5206039798634
 30
0.0
 10
-8.89429121154582
 20
169.6580082001434
 30
0.0
 10
-8.750367804378552
 20
169.8087679286784
 30
0.0
 10
-8.616177575071546
 20
169.9681668854273
 30
0.0
 10
-8.4921711823391
 20
170.1375883784436
 30
0.0
 10
-8.380100814689632
 20
170.3178810868606
 30
0.0
 10
-8.280587519279562
 20
170.5080805866771
 30
0.0
 10
-8.190852932234334
 20
170.7033600215628
 30
0.0
 10
-8.115208666098823
 20
170.9036174799943
 30
0.0
 10
-8.048743226131682
 20
171.105945630755
 30
0.0
 10
-7.995807462025732
 20
171.3115798433923
 30
0.0
 10
-7.953624840916398
 20
171.5200488784391
 30
0.0
 10
-7.925259909839387
 20
171.7310050181242
 30
0.0
 10
-7.904774590392434
 20
171.9447626686919
 30
0.0
 10
-7.903283478696373
 20
172.0882445111929
 30
0.0
 10
-7.902532280815945
 20
172.1605283355713
 30
0.0
  0
SPLINE
  5
F9
330
1F
100
AcDbEntity
  8
0
  6
HIDDEN
 62
     7
370
    18
100
AcDbSpline
210
0.0
220
0.0
230
1.0
 70
     8
 71
     3
 72
    23
 73
    19
 74
     0
 42
0.000000001
 43
0.00000001
 40
0.0
 40
0.0
 40
0.0
 40
0.0
 40
0.068152387553108
 40
0.1315010369953409
 40
0.190547702737174
 40
0.2453197639237756
 40
0.2950611875673128
 40
0.3407600630993582
 40
0.3824532913135617
 40
0.4198550920819362
 40
0.4892845918911718
 40
0.5563548658519831
 40
0.6235057877707584
 40
0.6921963570884199
 40
0.763373155892575
 40
0.837340007597801
 40
0.9159106466220608
 40
1.0
 40
1.0
 40
1.0
 40
1.0
 10
-16.3779839409722
 20
171.7899948586358
 30
0.0
 10
-16.37859998877837
 20
171.7208788570886
 30
0.0
 10
-16.37978866210676
 20
171.5875185126789
 30
0.0
 10
-16.38597354362411
 20
171.3943293822864
 30
0.0
 10
-16.39839430776316
 20
171.2150571076184
 30
0.0
 10
-16.4135592772893
 20
171.0498408364502
 30
0.0
 10
-16.43488042512771
 20
170.898922017327
 30
0.0
 10
-16.46168221533459
 20
170.7623911934895
 30
0.0
 10
-16.49197065873467
 20
170.6394577658955
 30
0.0
 10
-16.53713291362283
 20
170.4955722573177
 30
0.0
 10
-16.61319995493523
 20
170.3355829068844
 30
0.0
 10
-16.72841396070823
 20
170.1628690899867
 30
0.0
 10
-16.87611389437829
 20
170.0178360742179
 30
0.0
 10
-17.04724502917411
 20
169.8948233082441
 30
0.0
 10
-17.24280350121404
 20
169.7988823573122
 30
0.0
 10
-17.45934634088976
 20
169.7290451073394
 30
0.0
 10
-17.696651509608
 20
169.6872241858841
 30
0.0
 10
-17.86172769793878
 20
169.6827886286761
 30
0.0
 10
-17.94706613752575
 20
169.6804956054687
 30
0.0
  0
SPLINE
  5
FA
330
1F
100
AcDbEntity
  8
0
  6
HIDDEN
 62
     7
370
    18
100
AcDbSpline
210
0.0
220
0.0
230
1.0
 70
     8
 71
     3
 72
    15
 73
    11
 74
     0
 42
0.000000001
 43
0.00000001
 40
0.0
 40
0.0
 40
0.0
 40
0.0
 40
0.1448695014226455
 40
0.2796358402521802
 40
0.4065536383061831
 40
0.5277150017052259
 40
0.6456590686327455
 40
0.7617797423287311
 40
0.8788883509231941
 40
0.9999999999999999
 40
0.9999999999999999
 40
0.9999999999999999
 40
0.9999999999999999
 10
-0.4129404491848134
 20
172.4013082122803
 30
0.0
 10
-0.334397090033711
 20
172.4438176767458
 30
0.0
 10
-0.1827879658442768
 20
172.5258720063166
 30
0.0
 10
0.0220514267034017
 20
172.6717142730578
 30
0.0
 10
0.1917508398025992
 20
172.8367041858424
 30
0.0
 10
0.3316960868406661
 20
173.0144730963352
 30
0.0
 10
0.4397429940239587
 20
173.20594227218
 30
0.0
 10
0.5160802425696837
 20
173.4090146092717
 30
0.0
 10
0.5656561073863592
 20
173.6228978260975
 30
0.0
 10
0.5704713171796236
 20
173.7699090236312
 30
0.0
 10
0.572919379340306
 20
173.8446498065525
 30
0.0
  0
SPLINE
  5
FB
330
1F
100
AcDbEntity
  8
0
  6
HIDDEN
 62
     7
370
    18
100
AcDbSpline
210
0.0
220
0.0
230
1.0
 70
     8
 71
     3
 72
    31
 73
    27
 74
     0
 42
0.000000001
 43
0.00000001
 40
0.0
 40
0.0
 40
0.0
 40
0.0
 40
0.0430906778846524
 40
0.0855702925740406
 40
0.1271348306375767
 40
0.1679383740113611
 40
0.2086566617459502
 40
0.248986250536246
 40
0.2893576933795803
 40
0.3300791714524746
 40
0.3704449826241182
 40
0.4105095612295108
 40
0.45006917764873
 40
0.4895367374910916
 40
0.5291226164692264
 40
0.569090613689437
 40
0.6095335908455778
 40
0.6505815545344245
 40
0.6923238662515521
 40
0.7342641111039044
 40
0.7765006698783153
 40
0.819584563906701
 40
0.8631243689835284
 40
0.9078562579436416
 40
0.9533426826867579
 40
1.0
 40
1.0
 40
1.0
 40
1.0
 10
-11.07413832346596
 20
175.673239203559
 30
0.0
 10
-11.14953330441874
 20
175.6719346307904
 30
0.0
 10
-11.29925410008628
 20
175.6693439852266
 30
0.0
 10
-11.52100010415963
 20
175.6492386182421
 30
0.0
 10
-11.73678147925282
 20
175.6143300913048
 30
0.0
 10
-11.94672469070106
 20
175.565766741554
 30
0.0
 10
-12.15113941702543
 20
175.5046690108018
 30
0.0
 10
-12.34989071220825
 20
175.4292096653697
 30
0.0
 10
-12.54329616578852
 20
175.3409338565775
 30
0.0
 10
-12.72962408950872
 20
175.2383358714938
 30
0.0
 10
-12.90755119167991
 20
175.1228866191686
 30
0.0
 10
-13.07635125531753
 20
174.9977860238735
 30
0.0
 10
-13.23340183860277
 20
174.8605249330652
 30
0.0
 10
-13.37946085567
 20
174.7129250425176
 30
0.0
 10
-13.51565734160855
 20
174.5550622509153
 30
0.0
 10
-13.63763874463022
 20
174.383988246148
 30
0.0
 10
-13.75262498887953
 20
174.2051059217413
 30
0.0
 10
-13.85343841679714
 20
174.0143088270214
 30
0.0
 10
-13.94482814825349
 20
173.8159812798662
 30
0.0
 10
-14.02143225827277
 20
173.6092636989094
 30
0.0
 10
-14.08927171530507
 20
173.3971186392189
 30
0.0
 10
-14.14404827642204
 20
173.1782284655415
 30
0.0
 10
-14.1848791580568
 20
172.9519686615438
 30
0.0
 10
-14.21627644483512
 20
172.7199650891215
 30
0.0
 10
-14.23323026159705
 20
172.4809283226249
 30
0.0
 10
-14.23620971381214
 20
172.3197341933345
 30
0.0
 10
-14.23771837022567
 20
172.2381129625109
 30
0.0
  0
SPLINE
  5
FC
330
1F
100
AcDbEntity
  8
0
  6
HIDDEN
 62
     7
370
    18
100
AcDbSpline
210
0.0
220
0.0
230
1.0
 70
     8
 71
     3
 72
    23
 73
    19
 74
     0
 42
0.000000001
 43
0.00000001
 40
0.0
 40
0.0
 40
0.0
 40
0.0
 40
0.0327434629435836
 40
0.072410146660326
 40
0.1196123797311354
 40
0.1746742206485759
 40
0.2373468640367583
 40
0.3083547213712475
 40
0.3876329447866037
 40
0.4752520529828972
 40
0.5633362096858383
 40
0.6451407219018653
 40
0.7202075928161754
 40
0.7892748382945906
 40
0.8514959637061122
 40
0.9073299118498405
 40
0.9569683607399763
 40
1.0
 40
1.0
 40
1.0
 40
1.0
 10
-0.6082396825154339
 20
173.3162717437744
 30
0.0
 10
-0.6314299818416022
 20
173.2965060645008
 30
0.0
 10
-0.6827138969912596
 20
173.2527954851554
 30
0.0
 10
-0.7781355494080097
 20
173.1949497368711
 30
0.0
 10
-0.8964441295970276
 20
173.1365035347693
 30
0.0
 10
-1.038430801831072
 20
173.0784055907465
 30
0.0
 10
-1.203848303293164
 20
173.0199388357987
 30
0.0
 10
-1.392443217321632
 20
172.95978373271
 30
0.0
 10
-1.605290388863063
 20
172.8997299494052
 30
0.0
 10
-1.835341442783038
 20
172.8427970283964
 30
0.0
 10
-2.06742144981379
 20
172.7843401032408
 30
0.0
 10
-2.287668030929116
 20
172.7267398642618
 30
0.0
 10
-2.490671798120406
 20
172.6729114148074
 30
0.0
 10
-2.674095347859531
 20
172.6168712637202
 30
0.0
 10
-2.840956872911575
 20
172.5677162052296
 30
0.0
 10
-2.987948726571545
 20
172.5158160541719
 30
0.0
 10
-3.117711710293261
 20
172.4687172747419
 30
0.0
 10
-3.197177719748258
 20
172.4354727383284
 30
0.0
 10
-3.23407800462508
 20
172.4200355360243
 30
0.0
  0
SPLINE
  5
FD
330
1F
100
AcDbEntity
  8
0
  6
HIDDEN
 62
     7
370
    18
100
AcDbSpline
210
0.0
220
0.0
230
1.0
 70
     8
 71
     3
 72
    31
 73
    27
 74
     0
 42
0.000000001
 43
0.00000001
 40
0.0
 40
0.0
 40
0.0
 40
0.0
 40
0.0546407144744602
 40
0.1063309198846489
 40
0.1551479539521618
 40
0.2014721740885494
 40
0.2447125012190166
 40
0.2858735626700151
 40
0.3242592771549818
 40
0.3605122850116969
 40
0.3955577268013069
 40
0.4300132653777971
 40
0.4647944888610812
 40
0.4994884769164741
 40
0.534572046124567
 40
0.5704816968023754
 40
0.6070358491176588
 40
0.6447988867778934
 40
0.6837172652645624
 40
0.7235221312955686
 40
0.7648937753014267
 40
0.8079937113888152
 40
0.8527841206740419
 40
0.8995220778459624
 40
0.9486367156944022
 40
1.0
 40
1.0
 40
1.0
 40
1.0
 10
-20.5729044596354
 20
171.7458518812391
 30
0.0
 10
-20.57192501049351
 20
171.6642478034521
 30
0.0
 10
-20.57001900085878
 20
171.5054461343875
 30
0.0
 10
-20.56129993384179
 20
171.2738448261118
 30
0.0
 10
-20.54415201998087
 20
171.0551385524037
 30
0.0
 10
-20.51847334772808
 20
170.8500003945749
 30
0.0
 10
-20.48778482161301
 20
170.6571601870562
 30
0.0
 10
-20.45152968187728
 20
170.4772692162587
 30
0.0
 10
-20.40532910629058
 20
170.3104878897831
 30
0.0
 10
-20.35347136278263
 20
170.1549854367902
 30
0.0
 10
-20.29171925610086
 20
170.009391707209
 30
0.0
 10
-20.21869654495472
 20
169.8716183468004
 30
0.0
 10
-20.13477149892439
 20
169.7408001829837
 30
0.0
 10
-20.03899796775913
 20
169.6172251428996
 30
0.0
 10
-19.93289809219953
 20
169.5001427041667
 30
0.0
 10
-19.81522327209598
 20
169.3904789731807
 30
0.0
 10
-19.6854454101073
 20
169.2889926766971
 30
0.0
 10
-19.54685502475999
 20
169.1918472552183
 30
0.0
 10
-19.39580243911873
 20
169.1049692485264
 30
0.0
 10
-19.23262014308934
 20
169.0300318873379
 30
0.0
 10
-19.05835517903519
 20
168.9655745424304
 30
0.0
 10
-18.87215902136026
 20
168.9137548172743
 30
0.0
 10
-18.67488618211424
 20
168.8741528699585
 30
0.0
 10
-18.4668223898806
 20
168.8445406449399
 30
0.0
 10
-18.24745312576682
 20
168.8270367474354
 30
0.0
 10
-18.09736253744036
 20
168.8252849024019
 30
0.0
 10
-18.02063776652016
 20
168.8243893771701
 30
0.0
  0
SPLINE
  5
FE
330
1F
100
AcDbEntity
  8
0
  6
HIDDEN
 62
     7
370
    18
100
AcDbSpline
210
0.0
220
0.0
230
1.0
 70
     8
 71
     3
 72
    31
 73
    27
 74
     0
 42
0.000000001
 43
0.00000001
 40
0.0
 40
0.0
 40
0.0
 40
0.0
 40
0.0475607904469546
 40
0.0939645423171921
 40
0.1391151413453597
 40
0.183631072801194
 40
0.2274629279022613
 40
0.2707095317019643
 40
0.3136186661613669
 40
0.3562696913321408
 40
0.398376485288321
 40
0.4395679156577146
 40
0.4800578338505138
 40
0.5199019799359578
 40
0.55967226603435
 40
0.5990769790772472
 40
0.6390733369180968
 40
0.6793156080281879
 40
0.7197837359683412
 40
0.7596237823134684
 40
0.7994802250895912
 40
0.8391921469330814
 40
0.8787003552244697
 40
0.9187921630876992
 40
0.9590823015976627
 40
1.0
 40
1.0
 40
1.0
 40
1.0
 10
-14.23771837022567
 20
172.2381129625109
 30
0.0
 10
-14.23632704018325
 20
172.1551474086709
 30
0.0
 10
-14.23357822778085
 20
171.9912346515151
 30
0.0
 10
-14.21497863827619
 20
171.7490853584957
 30
0.0
 10
-14.18227409504173
 20
171.5138876694865
 30
0.0
 10
-14.13889708659997
 20
171.2849402674372
 30
0.0
 10
-14.08077321983908
 20
171.0627197735078
 30
0.0
 10
-14.01170193522448
 20
170.8465890668525
 30
0.0
 10
-13.92815631775341
 20
170.6378354690559
 30
0.0
 10
-13.83380080555911
 20
170.4359558261796
 30
0.0
 10
-13.72703763080109
 20
170.2437267371272
 30
0.0
 10
-13.60927043404785
 20
170.0624921645792
 30
0.0
 10
-13.48041655813429
 20
169.8939481183381
 30
0.0
 10
-13.34243046376327
 20
169.7360244160098
 30
0.0
 10
-13.19255338146712
 20
169.591989944247
 30
0.0
 10
-13.03194297303729
 20
169.4597008451577
 30
0.0
 10
-12.86092768111696
 20
169.3397263039062
 30
0.0
 10
-12.68017785579907
 20
169.2313586497744
 30
0.0
 10
-12.4925812582279
 20
169.1360711538945
 30
0.0
 10
-12.30041569144066
 20
169.051863456721
 30
0.0
 10
-12.10345452292665
 20
168.9837322157161
 30
0.0
 10
-11.9045793323213
 20
168.9233027578681
 30
0.0
 10
-11.70082872491639
 20
168.8798508927907
 30
0.0
 10
-11.49412397209749
 20
168.8474722490453
 30
0.0
 10
-11.2831663878955
 20
168.8285388252332
 30
0.0
 10
-11.14150392717936
 20
168.8257796340394
 30
0.0
 10
-11.07012532552081
 20
168.8243893771701
 30
0.0
  0
SPLINE
  5
FF
330
1F
100
AcDbEntity
  8
0
  6
HIDDEN
 62
     7
370
    18
100
AcDbSpline
210
0.0
220
0.0
230
1.0
 70
     8
 71
     3
 72
    11
 73
     7
 74
     0
 42
0.000000001
 43
0.00000001
 40
0.0
 40
0.0
 40
0.0
 40
0.0
 40
0.1774946570818447
 40
0.4052256231013749
 40
0.6783881083348581
 40
1.0
 40
1.0
 40
1.0
 40
1.0
 10
10.95855806138783
 20
171.8756054814657
 30
0.0
 10
10.98570069850628
 20
171.8805002214106
 30
0.0
 10
11.04766815273713
 20
171.8916750594406
 30
0.0
 10
11.15288873538979
 20
171.8989733639744
 30
0.0
 10
11.28037637991167
 20
171.9067195378195
 30
0.0
 10
11.37276884851193
 20
171.9064938402944
 30
0.0
 10
11.42272815704348
 20
171.9063717990451
 30
0.0
  0
SPLINE
  5
100
330
1F
100
AcDbEntity
  8
0
  6
HIDDEN
 62
     7
370
    18
100
AcDbSpline
210
0.0
220
0.0
230
1.0
 70
     8
 71
     3
 72
    31
 73
    27
 74
     0
 42
0.000000001
 43
0.00000001
 40
0.0
 40
0.0
 40
0.0
 40
0.0
 40
0.0497116207271325
 40
0.0968592144113374
 40
0.1421735749316028
 40
0.1857513898244715
 40
0.2272209046200691
 40
0.2670719723183277
 40
0.3056896236221021
 40
0.3429968028044797
 40
0.3793728775008134
 40
0.4149990750568781
 40
0.4498127975379231
 40
0.4845384316589771
 40
0.5190060671099208
 40
0.553712796066275
 40
0.5890838528036977
 40
0.6250972698190534
 40
0.6626289535791581
 40
0.7026946408782566
 40
0.745177332626791
 40
0.7902117778847624
 40
0.8382420175970767
 40
0.8892910979867624
 40
0.9431958830362389
 40
1.0
 40
1.0
 40
1.0
 40
1.0
 10
-18.02063776652017
 20
168.8243893771702
 30
0.0
 10
-17.94570718359983
 20
168.8254920149734
 30
0.0
 10
-17.79971078897643
 20
168.8276404187034
 30
0.0
 10
-17.58576770068735
 20
168.8421769934707
 30
0.0
 10
-17.38225407833541
 20
168.8679125406223
 30
0.0
 10
-17.18858655783509
 20
168.9017668554451
 30
0.0
 10
-17.0057189654842
 20
168.9472630963928
 30
0.0
 10
-16.83386980370544
 20
169.0038685075905
 30
0.0
 10
-16.67191921647034
 20
169.0691572227754
 30
0.0
 10
-16.51967043311569
 20
169.1437000793114
 30
0.0
 10
-16.3793960633889
 20
169.230427823075
 30
0.0
 10
-16.24748194032752
 20
169.3230512811586
 30
0.0
 10
-16.12783033848081
 20
169.4274242857628
 30
0.0
 10
-16.01813753566632
 20
169.5396147627174
 30
0.0
 10
-15.91823972407716
 20
169.6605448156424
 30
0.0
 10
-15.83009427041825
 20
169.7913677303803
 30
0.0
 10
-15.75028530902499
 20
169.9302072970655
 30
0.0
 10
-15.68404504934317
 20
170.0806516168936
 30
0.0
 10
-15.6242408203324
 20
170.2412244299706
 30
0.0
 10
-15.57411949818292
 20
170.4153021442775
 30
0.0
 10
-15.5313222106219
 20
170.6028849579068
 30
0.0
 10
-15.49728042202476
 20
170.8044059857795
 30
0.0
 10
-15.46839197369447
 20
171.0197867526614
 30
0.0
 10
-15.45119029993947
 20
171.2498122199863
 30
0.0
 10
-15.43826382582958
 20
171.493332251325
 30
0.0
 10
-15.43694418840704
 20
171.6602217930174
 30
0.0
 10
-15.43626708984373
 20
171.7458518812391
 30
0.0
  0
SPLINE
  5
101
330
1F
100
AcDbEntity
  8
0
  6
HIDDEN
 62
     7
370
    18
100
AcDbSpline
210
0.0
220
0.0
230
1.0
 70
     8
 71
     3
 72
    23
 73
    19
 74
     0
 42
0.000000001
 43
0.00000001
 40
0.0
 40
0.0
 40
0.0
 40
0.0
 40
0.075003501752121
 40
0.1491814207149436
 40
0.223688255785941
 40
0.3009941454244409
 40
0.3401568029415755
 40
0.3792002499352433
 40
0.4183796097273772
 40
0.4582131080100786
 40
0.4984144588402094
 40
0.5400409861083797
 40
0.5821965654347478
 40
0.6261769612902273
 40
0.7158440112886165
 40
0.8073634492189767
 40
0.9016235874428786
 40
1.0
 40
1.0
 40
1.0
 40
1.0
 10
0.572919379340306
 20
173.8446498065525
 30
0.0
 10
0.5697454998718209
 20
173.9274379680913
 30
0.0
 10
0.5634326766405616
 20
174.0921030206318
 30
0.0
 10
0.5072945773972776
 20
174.3336913747334
 30
0.0
 10
0.4178830536757261
 20
174.5669213598615
 30
0.0
 10
0.3148884910137896
 20
174.7515120063999
 30
0.0
 10
0.2159164343685843
 20
174.8916688062379
 30
0.0
 10
0.1327354484945501
 20
174.9910492125341
 30
0.0
 10
0.0409483896047315
 20
175.0834720059869
 30
0.0
 10
-0.057437482634585
 20
175.1708547791491
 30
0.0
 10
-0.1659744974040471
 20
175.2499301766427
 30
0.0
 10
-0.2814115843501127
 20
175.3233432026142
 30
0.0
 10
-0.4061134429347273
 20
175.3891290501142
 30
0.0
 10
-0.5826652723744801
 20
175.4693342257771
 30
0.0
 10
-0.8174936357692738
 20
175.5515656558703
 30
0.0
 10
-1.113162553975436
 20
175.6228102017212
 30
0.0
 10
-1.424366051673426
 20
175.6645159747887
 30
0.0
 10
-1.636779571771093
 20
175.6702903316514
 30
0.0
 10
-1.745255766974527
 20
175.673239203559
 30
0.0
  0
SPLINE
  5
102
330
1F
100
AcDbEntity
  8
0
  6
HIDDEN
 62
     7
370
    18
100
AcDbSpline
210
0.0
220
0.0
230
1.0
 70
     8
 71
     3
 72
    23
 73
    19
 74
     0
 42
0.000000001
 43
0.00000001
 40
0.0
 40
0.0
 40
0.0
 40
0.0
 40
0.0312005486837899
 40
0.0704877074756232
 40
0.1172164737641544
 40
0.1715779330579243
 40
0.2335986644965036
 40
0.304114665578319
 40
0.3817802687127411
 40
0.4672720494883081
 40
0.5539624244942414
 40
0.6347026409904399
 40
0.7100326216235958
 40
0.7790893059118832
 40
0.8429634432039236
 40
0.9009998185565118
 40
0.953245600815254
 40
1.0
 40
1.0
 40
1.0
 40
1.0
 10
-2.739141591389946
 20
171.661578924391
 30
0.0
 10
-2.715616019170704
 20
171.671233178066
 30
0.0
 10
-2.662467477791107
 20
171.6930438909427
 30
0.0
 10
-2.571372485087624
 20
171.7219145320237
 30
0.0
 10
-2.463281361063865
 20
171.7592636199627
 30
0.0
 10
-2.33598246676217
 20
171.7975290494959
 30
0.0
 10
-2.189343903188227
 20
171.838528730141
 30
0.0
 10
-2.024710769727391
 20
171.885712806575
 30
0.0
 10
-1.840776969493328
 20
171.934847594599
 30
0.0
 10
-1.643984004257317
 20
171.9868639873503
 30
0.0
 10
-1.444785638258556
 20
172.0396236228399
 30
0.0
 10
-1.25450217656858
 20
172.0935693360465
 30
0.0
 10
-1.078352586542235
 20
172.144734388655
 30
0.0
 10
-0.9170073775904752
 20
172.1973204941943
 30
0.0
 10
-0.7703120382380161
 20
172.2492212332721
 30
0.0
 10
-0.6378657943305376
 20
172.3001012265086
 30
0.0
 10
-0.519433039410676
 20
172.3486943396137
 30
0.0
 10
-0.4471005905140051
 20
172.3844310068113
 30
0.0
 10
-0.4129404491848134
 20
172.4013082122803
 30
0.0
  0
SPLINE
  5
103
330
1F
100
AcDbEntity
  8
0
  6
HIDDEN
 62
     7
370
    18
100
AcDbSpline
210
0.0
220
0.0
230
1.0
 70
     8
 71
     3
 72
    15
 73
    11
 74
     0
 42
0.000000001
 43
0.00000001
 40
0.0
 40
0.0
 40
0.0
 40
0.0
 40
0.1177602073022879
 40
0.2303985997942726
 40
0.3406497528469432
 40
0.4514251755843616
 40
0.5677355826461936
 40
0.6969707802217732
 40
0.8394483291236463
 40
1.0
 40
1.0
 40
1.0
 40
1.0
 10
-3.450779893663166
 20
170.759992052714
 30
0.0
 10
-3.448734217389714
 20
170.8083204031326
 30
0.0
 10
-3.444731838658961
 20
170.9028751302505
 30
0.0
 10
-3.41298182015313
 20
171.0397497638903
 30
0.0
 10
-3.361676939208158
 20
171.1671077866739
 30
0.0
 10
-3.289708786215457
 20
171.2860356690287
 30
0.0
 10
-3.191897669385681
 20
171.3958142401209
 30
0.0
 10
-3.065416139306149
 20
171.4932649068285
 30
0.0
 10
-2.913787566253792
 20
171.5859561743094
 30
0.0
 10
-2.799626619227543
 20
171.6353885461278
 30
0.0
 10
-2.739141591389946
 20
171.661578924391
 30
0.0
  0
SPLINE
  5
104
330
1F
100
AcDbEntity
  8
0
  6
HIDDEN
 62
     7
370
    18
100
AcDbSpline
210
0.0
220
0.0
230
1.0
 70
     8
 71
     3
 72
    23
 73
    19
 74
     0
 42
0.000000001
 43
0.00000001
 40
0.0
 40
0.0
 40
0.0
 40
0.0
 40
0.0915140484692246
 40
0.177148691078689
 40
0.2571169481097525
 40
0.3312093009843037
 40
0.4003971905242647
 40
0.4650744791872323
 40
0.5260808284182678
 40
0.584552377371537
 40
0.6405096115594703
 40
0.6946093947988499
 40
0.7465128494332982
 40
0.7970255531332947
 40
0.8473552476901827
 40
0.8974351655462103
 40
0.9476471957195912
 40
1.0
 40
1.0
 40
1.0
 40
1.0
 10
-1.782710414462591
 20
174.9027435980903
 30
0.0
 10
-1.723364227788702
 20
174.9023021713367
 30
0.0
 10
-1.60848460585474
 20
174.9014476777054
 30
0.0
 10
-1.442447662525264
 20
174.8855843876243
 30
0.0
 10
-1.288428271827422
 20
174.8642002822706
 30
0.0
 10
-1.147375889145993
 20
174.831374900134
 30
0.0
 10
-1.017974288521082
 20
174.7927550797555
 30
0.0
 10
-0.9024932245730813
 20
174.7408958591359
 30
0.0
 10
-0.7981802977003395
 20
174.6824366691109
 30
0.0
 10
-0.7069378986204639
 20
174.6139126302269
 30
0.0
 10
-0.6282940103008183
 20
174.5379438151933
 30
0.0
 10
-0.5577100912711629
 20
174.4599068629947
 30
0.0
 10
-0.5007974944793727
 20
174.3757192341386
 30
0.0
 10
-0.4506830227645087
 20
174.2900426144955
 30
0.0
 10
-0.4157653662486009
 20
174.1983202533862
 30
0.0
 10
-0.3883557967873912
 20
174.1045427033134
 30
0.0
 10
-0.3716892745284859
 20
174.0066491512734
 30
0.0
 10
-0.3697747264385631
 20
173.9401341209739
 30
0.0
 10
-0.3687974717881662
 20
173.9061824417115
 30
0.0
  0
SPLINE
  5
105
330
1F
100
AcDbEntity
  8
0
  6
HIDDEN
 62
     7
370
    18
100
AcDbSpline
210
0.0
220
0.0
230
1.0
 70
     8
 71
     3
 72
    19
 73
    15
 74
     0
 42
0.000000001
 43
0.00000001
 40
0.0
 40
0.0
 40
0.0
 40
0.0
 40
0.1056286769630305
 40
0.2053374527832048
 40
0.3012118623686868
 40
0.3933061246626496
 40
0.4807364361328824
 40
0.5628486664239363
 40
0.641019285521344
 40
0.7177066092816698
 40
0.791768156300894
 40
0.8625200006447953
 40
0.931747904737299
 40
1.0
 40
1.0
 40
1.0
 40
1.0
 10
-1.925840674506265
 20
169.5948849826389
 30
0.0
 10
-2.001324280210931
 20
169.5962886623835
 30
0.0
 10
-2.148061054427204
 20
169.5990173534129
 30
0.0
 10
-2.361175223558398
 20
169.6315831724977
 30
0.0
 10
-2.561144255327535
 20
169.6797614417932
 30
0.0
 10
-2.74580779351337
 20
169.7490528615541
 30
0.0
 10
-2.91145468148577
 20
169.8361528263915
 30
0.0
 10
-3.058487465231753
 20
169.9356071611134
 30
0.0
 10
-3.180435602561216
 20
170.0541310771005
 30
0.0
 10
-3.279079501586728
 20
170.1851299535668
 30
0.0
 10
-3.355632689778873
 20
170.3242391190214
 30
0.0
 10
-3.409002882982875
 20
170.467751543293
 30
0.0
 10
-3.444935193070849
 20
170.6128725973396
 30
0.0
 10
-3.448840900807677
 20
170.7111848352409
 30
0.0
 10
-3.450779893663166
 20
170.7599920527141
 30
0.0
  0
SPLINE
  5
106
330
1F
100
AcDbEntity
  8
0
  6
HIDDEN
 62
     7
370
    18
100
AcDbSpline
210
0.0
220
0.0
230
1.0
 70
     8
 71
     3
 72
    23
 73
    19
 74
     0
 42
0.000000001
 43
0.00000001
 40
0.0
 40
0.0
 40
0.0
 40
0.0
 40
0.0559436334681676
 40
0.1107124482152113
 40
0.1640549680455865
 40
0.216875097189043
 40
0.2695777362270477
 40
0.3232718778703179
 40
0.3775758794767937
 40
0.4334442719513406
 40
0.4909173070765999
 40
0.5506207536203441
 40
0.613113413715478
 40
0.6798578844234456
 40
0.7513555212489337
 40
0.8282595659757473
 40
0.9107942346056848
 40
1.0
 40
1.0
 40
1.0
 40
1.0
 10
-11.07948898739282
 20
174.9027435980903
 30
0.0
 10
-11.00446134778098
 20
174.9012283588538
 30
0.0
 10
-10.85598165223238
 20
174.8982297004705
 30
0.0
 10
-10.63802315973421
 20
174.8658256686246
 30
0.0
 10
-10.42765585701455
 20
174.8170419950746
 30
0.0
 10
-10.22634735378452
 20
174.746576448178
 30
0.0
 10
-10.03180325204988
 20
174.6581119972767
 30
0.0
 10
-9.846262356615505
 20
174.5479703922822
 30
0.0
 10
-9.66854387747795
 20
174.4184617940471
 30
0.0
 10
-9.499403074781307
 20
174.2701372722237
 30
0.0
 10
-9.341758209375993
 20
174.0990198595797
 30
0.0
 10
-9.208411133170706
 20
173.8974078907187
 30
0.0
 10
-9.096043602995366
 20
173.6699681260923
 30
0.0
 10
-9.002212748882766
 20
173.4173188962643
 30
0.0
 10
-8.930671150567738
 20
173.1374914439893
 30
0.0
 10
-8.88122649629726
 20
172.8316935781233
 30
0.0
 10
-8.850008278817697
 20
172.4996019988445
 30
0.0
 10
-8.846217925151576
 20
172.2693993405156
 30
0.0
 10
-8.84424913194442
 20
172.1498270077176
 30
0.0
  0
SPLINE
  5
107
330
1F
100
AcDbEntity
  8
0
  6
HIDDEN
 62
     7
370
    18
100
AcDbSpline
210
0.0
220
0.0
230
1.0
 70
     8
 71
     3
 72
    23
 73
    19
 74
     0
 42
0.000000001
 43
0.00000001
 40
0.0
 40
0.0
 40
0.0
 40
0.0
 40
0.0759760013778243
 40
0.1481478407297592
 40
0.2172337747939296
 40
0.2833431655068629
 40
0.3472548812513532
 40
0.4095240071566222
 40
0.4706594156981838
 40
0.5318312023373022
 40
0.5919914954774751
 40
0.650519001859518
 40
0.7075730075804298
 40
0.7641724617862142
 40
0.8211202236130726
 40
0.8791003552029322
 40
0.9384134163756574
 40
1.0
 40
1.0
 40
1.0
 40
1.0
 10
-8.84424913194442
 20
172.1498270077176
 30
0.0
 10
-8.845691450987353
 20
172.0534204013006
 30
0.0
 10
-8.84850387133034
 20
171.8654343226212
 30
0.0
 10
-8.880709051860775
 20
171.5913677116824
 30
0.0
 10
-8.929517803476266
 20
171.3327454339953
 30
0.0
 10
-8.99699239346128
 20
171.0889626953705
 30
0.0
 10
-9.087079200124977
 20
170.8618116015084
 30
0.0
 10
-9.19722093751024
 20
170.6508559546678
 30
0.0
 10
-9.326419919886302
 20
170.4550986616064
 30
0.0
 10
-9.474608163795072
 20
170.2767581726387
 30
0.0
 10
-9.637434381096833
 20
170.116495335624
 30
0.0
 10
-9.811433573341413
 20
169.9764530439316
 30
0.0
 10
-9.996444093164907
 20
169.8596766308755
 30
0.0
 10
-10.19001642773056
 20
169.7621380218629
 30
0.0
 10
-10.39471709718784
 20
169.6869848812374
 30
0.0
 10
-10.60956538939498
 20
169.6338583431057
 30
0.0
 10
-10.83455708965914
 20
169.6006972499856
 30
0.0
 10
-10.98796563044151
 20
169.5968465426541
 30
0.0
 10
-11.06611232757566
 20
169.5948849826389
 30
0.0
  0
SPLINE
  5
108
330
1F
100
AcDbEntity
  8
0
  6
HIDDEN
 62
     7
370
    18
100
AcDbSpline
210
0.0
220
0.0
230
1.0
 70
     8
 71
     3
 72
    31
 73
    27
 74
     0
 42
0.000000001
 43
0.00000001
 40
0.0
 40
0.0
 40
0.0
 40
0.0
 40
0.0508466776274402
 40
0.0997427809170243
 40
0.1474233302100599
 40
0.19406693639795
 40
0.2391477013626629
 40
0.283312307313426
 40
0.3265454360452034
 40
0.3689004543555942
 40
0.4105320023339968
 40
0.4510067922871874
 40
0.4908291942835082
 40
0.5302046750280809
 40
0.5691144605642199
 40
0.6077519069652263
 40
0.6465903693423956
 40
0.6858458117594886
 40
0.7249612465918652
 40
0.7636719104855926
 40
0.8021977385530135
 40
0.84108932635543
 40
0.8796610640654374
 40
0.9190784718625332
 40
0.959101834195223
 40
1.0
 40
1.0
 40
1.0
 40
1.0
 10
-13.2960015190972
 20
172.2448012924194
 30
0.0
 10
-13.29543293601893
 20
172.3108233555657
 30
0.0
 10
-13.29431758178037
 20
172.4403347511447
 30
0.0
 10
-13.27954653824302
 20
172.6312360247531
 30
0.0
 10
-13.26049381405228
 20
172.8161991962347
 30
0.0
 10
-13.23148564461712
 20
172.9949855016155
 30
0.0
 10
-13.19150905675859
 20
173.166854887565
 30
0.0
 10
-13.14722059480084
 20
173.333114569409
 30
0.0
 10
-13.09184385816265
 20
173.4923362420082
 30
0.0
 10
-13.02899555101082
 20
173.6451282441167
 30
0.0
 10
-12.95872596935337
 20
173.7907642735856
 30
0.0
 10
-12.87926675145901
 20
173.9278070156567
 30
0.0
 10
-12.79230587020852
 20
174.0567111843249
 30
0.0
 10
-12.69694246952844
 20
174.176901349807
 30
0.0
 10
-12.59558736367434
 20
174.29007469698
 30
0.0
 10
-12.4850140403822
 20
174.3932890228847
 30
0.0
 10
-12.36704402353664
 20
174.4885977351709
 30
0.0
 10
-12.24166255214836
 20
174.5750258054409
 30
0.0
 10
-12.11088177633798
 20
174.6527180429735
 30
0.0
 10
-11.97536542684663
 20
174.7197213993188
 30
0.0
 10
-11.83554516784837
 20
174.7765273977525
 30
0.0
 10
-11.69156475530376
 20
174.8210395915001
 30
0.0
 10
-11.54429050657665
 20
174.8577888807739
 30
0.0
 10
-11.39336726330443
 20
174.8850103374357
 30
0.0
 10
-11.23761244325029
 20
174.899281732932
 30
0.0
 10
-11.13257530788834
 20
174.9015813563324
 30
0.0
 10
-11.07948898739282
 20
174.9027435980903
 30
0.0
  0
SPLINE
  5
109
330
1F
100
AcDbEntity
  8
0
  6
HIDDEN
 62
     7
370
    18
100
AcDbSpline
210
0.0
220
0.0
230
1.0
 70
     8
 71
     3
 72
    23
 73
    19
 74
     0
 42
0.000000001
 43
0.00000001
 40
0.0
 40
0.0
 40
0.0
 40
0.0
 40
0.0610568331758602
 40
0.1195491072443123
 40
0.1768119204410533
 40
0.2329638143038585
 40
0.2885925718320205
 40
0.3446775085759287
 40
0.4016741513521853
 40
0.4605545907654066
 40
0.5204934420294792
 40
0.5812311564527335
 40
0.6434510088516426
 40
0.7078620323407415
 40
0.7753636743240291
 40
0.8464088438329611
 40
0.9211494057947004
 40
1.0
 40
1.0
 40
1.0
 40
1.0
 10
-11.06611232757566
 20
169.5948849826389
 30
0.0
 10
-11.14558431822006
 20
169.5968741395128
 30
0.0
 10
-11.30119025187703
 20
169.6007689030646
 30
0.0
 10
-11.52956403624207
 20
169.6333705769516
 30
0.0
 10
-11.74654471539138
 20
169.6888735291435
 30
0.0
 10
-11.95428286516889
 20
169.7627605584605
 30
0.0
 10
-12.149023111649
 20
169.862643126675
 30
0.0
 10
-12.33531862626801
 20
169.9796054287793
 30
0.0
 10
-12.50809568182507
 20
170.122528616013
 30
0.0
 10
-12.67157708765975
 20
170.2830796071423
 30
0.0
 10
-12.81826371337586
 20
170.4655548144481
 30
0.0
 10
-12.94820786759362
 20
170.6655550516905
 30
0.0
 10
-13.05449360734015
 20
170.8855656999429
 30
0.0
 10
-13.1431549647755
 20
171.1224226795292
 30
0.0
 10
-13.21270247010585
 20
171.3776124048592
 30
0.0
 10
-13.26132268769158
 20
171.6511326360061
 30
0.0
 10
-13.29130637914134
 20
171.9422623717231
 30
0.0
 10
-13.29440879930911
 20
172.142171822331
 30
0.0
 10
-13.2960015190972
 20
172.2448012924194
 30
0.0
  0
SPLINE
  5
10A
330
1F
100
AcDbEntity
  8
0
  6
HIDDEN
 62
     7
370
    18
100
AcDbSpline
210
0.0
220
0.0
230
1.0
 70
     8
 71
     3
 72
    19
 73
    15
 74
     0
 42
0.000000001
 43
0.00000001
 40
0.0
 40
0.0
 40
0.0
 40
0.0
 40
0.1288380429995044
 40
0.2408506371773576
 40
0.3379858977314487
 40
0.4208544298319365
 40
0.494779649111241
 40
0.5659088810869707
 40
0.6370496543952355
 40
0.7093806720350334
 40
0.7821614733091768
 40
0.8536820657736314
 40
0.9261831408996514
 40
1.0
 40
1.0
 40
1.0
 40
1.0
 10
10.59872591230607
 20
172.6768674045139
 30
0.0
 10
10.50904172920229
 20
172.6782583993326
 30
0.0
 10
10.34138556071051
 20
172.6808587336794
 30
0.0
 10
10.10700452996958
 20
172.7034032871927
 30
0.0
 10
9.90651466872654
 20
172.7386436553355
 30
0.0
 10
9.737355010554431
 20
172.7921678375497
 30
0.0
 10
9.595192810930463
 20
172.8638472795724
 30
0.0
 10
9.471980499745934
 20
172.9515043006609
 30
0.0
 10
9.368380463041996
 20
173.0602534531601
 30
0.0
 10
9.283178379541793
 20
173.1849504935608
 30
0.0
 10
9.216573602375584
 20
173.32084439928
 30
0.0
 10
9.17003356062024
 20
173.4646714153663
 30
0.0
 10
9.138788207499756
 20
173.6136735874429
 30
0.0
 10
9.135593420569888
 20
173.7156290328082
 30
0.0
 10
9.133981662326411
 20
173.7670651796129
 30
0.0
  0
SPLINE
  5
10B
330
1F
100
AcDbEntity
  8
0
  6
HIDDEN
 62
     7
370
    18
100
AcDbSpline
210
0.0
220
0.0
230
1.0
 70
     8
 71
     3
 72
    23
 73
    19
 74
     0
 42
0.000000001
 43
0.00000001
 40
0.0
 40
0.0
 40
0.0
 40
0.0
 40
0.0603272326790061
 40
0.1181633268525607
 40
0.1741915946005286
 40
0.2288671201359885
 40
0.2834295822545166
 40
0.3378078149372589
 40
0.3926149530011013
 40
0.4484500033868874
 40
0.5059514596840969
 40
0.5650462512987557
 40
0.6266439369048235
 40
0.6922233429555562
 40
0.7611243334651911
 40
0.8353052271782855
 40
0.9153231689797062
 40
1.0
 40
1.0
 40
1.0
 40
1.0
 10
9.133981662326411
 20
173.7670651796129
 30
0.0
 10
9.135218998243765
 20
173.8045497553354
 30
0.0
 10
9.137642575821186
 20
173.8779710275589
 30
0.0
 10
9.150482993802424
 20
173.9856979043267
 30
0.0
 10
9.174913003673606
 20
174.0877865415969
 30
0.0
 10
9.208647521056797
 20
174.1849728453502
 30
0.0
 10
9.251360342225327
 20
174.2774678202224
 30
0.0
 10
9.303847642403637
 20
174.3649076783721
 30
0.0
 10
9.365838590141111
 20
174.4468458124128
 30
0.0
 10
9.436949475133508
 20
174.5236856080745
 30
0.0
 10
9.518568997487042
 20
174.5936129234731
 30
0.0
 10
9.61180565603826
 20
174.6539421851806
 30
0.0
 10
9.715914914583939
 20
174.705209833843
 30
0.0
 10
9.831020380378359
 20
174.745899051351
 30
0.0
 10
9.956758703904226
 20
174.7784438651389
 30
0.0
 10
10.09384590363786
 20
174.800094863837
 30
0.0
 10
10.24165498676842
 20
174.8157614594169
 30
0.0
 10
10.34407811245178
 20
174.8166672621899
 30
0.0
 10
10.39673834906686
 20
174.8171329752604
 30
0.0
  0
LINE
  5
10C
330
1F
100
AcDbEntity
  8
0
  6
Continuous
 62
     7
370
    25
100
AcDbLine
 10
111.125
 20
-184.15
 30
0.0
 11
-111.125
 21
-184.15
 31
0.0
  0
LINE
  5
10D
330
1F
100
AcDbEntity
  8
0
  6
Continuous
 62
     7
370
    25
100
AcDbLine
 10
-114.3
 20
-180.975
 30
0.0
 11
-114.3
 21
180.975
 31
0.0
  0
LINE
  5
10E
330
1F
100
AcDbEntity
  8
0
  6
Continuous
 62
     7
370
    25
100
AcDbLine
 10
-111.125
 20
184.15
 30
0.0
 11
111.125
 21
184.15
 31
0.0
  0
LINE
  5
10F
330
1F
100
AcDbEntity
  8
0
  6
Continuous
 62
     7
370
    25
100
AcDbLine
 10
114.3
 20
180.975
 30
0.0
 11
114.3
 21
-180.975
 31
0.0
  0
LINE
  5
110
330
1F
100
AcDbEntity
  8
0
  6
HIDDEN
 62
     7
370
    18
100
AcDbLine
 10
-4.2212754991
 20
173.7041948785
 30
0.0
 11
-3.279558648
 21
173.7041948785
 31
0.0
  0
LINE
  5
111
330
1F
100
AcDbEntity
  8
0
  6
HIDDEN
 62
     7
370
    18
100
AcDbLine
 10
-16.377983941
 20
175.5876285807
 30
0.0
 11
-16.377983941
 21
171.7899948586
 31
0.0
  0
LINE
  5
112
330
1F
100
AcDbEntity
  8
0
  6
HIDDEN
 62
     7
370
    18
100
AcDbLine
 10
-23.7404975043
 20
174.8171329753
 30
0.0
 11
-21.6002319336
 21
174.8171329753
 31
0.0
  0
LINE
  5
113
330
1F
100
AcDbEntity
  8
0
  6
HIDDEN
 62
     7
370
    18
100
AcDbLine
 10
-21.6002319336
 20
174.8171329753
 30
0.0
 11
-21.6002319336
 21
175.5876285807
 31
0.0
  0
LINE
  5
114
330
1F
100
AcDbEntity
  8
0
  6
HIDDEN
 62
     7
370
    18
100
AcDbLine
 10
2.1995212131
 20
171.9919824219
 30
0.0
 11
5.7095567491
 21
171.9919824219
 31
0.0
  0
LINE
  5
115
330
1F
100
AcDbEntity
  8
0
  6
HIDDEN
 62
     7
370
    18
100
AcDbLine
 10
1.9426893446
 20
174.8171329753
 30
0.0
 11
5.7095567491
 21
174.8171329753
 31
0.0
  0
LINE
  5
116
330
1F
100
AcDbEntity
  8
0
  6
HIDDEN
 62
     7
370
    18
100
AcDbLine
 10
6.6512736003
 20
175.5876285807
 30
0.0
 11
1.9426893446
 21
175.5876285807
 31
0.0
  0
LINE
  5
117
330
1F
100
AcDbEntity
  8
0
  6
HIDDEN
 62
     7
370
    18
100
AcDbLine
 10
5.7095567491
 20
174.8171329753
 30
0.0
 11
5.7095567491
 21
172.7624780273
 31
0.0
  0
LINE
  5
118
330
1F
100
AcDbEntity
  8
0
  6
HIDDEN
 62
     7
370
    18
100
AcDbLine
 10
5.7095567491
 20
169.6804956055
 30
0.0
 11
1.771468099
 21
169.6804956055
 31
0.0
  0
LINE
  5
119
330
1F
100
AcDbEntity
  8
0
  6
HIDDEN
 62
     7
370
    18
100
AcDbLine
 10
5.7095567491
 20
171.9919824219
 30
0.0
 11
5.7095567491
 21
169.6804956055
 31
0.0
  0
LINE
  5
11A
330
1F
100
AcDbEntity
  8
0
  6
HIDDEN
 62
     7
370
    18
100
AcDbLine
 10
-15.4362670898
 20
171.7458518812
 30
0.0
 11
-15.4362670898
 21
175.5876285807
 31
0.0
  0
LINE
  5
11B
330
1F
100
AcDbEntity
  8
0
  6
HIDDEN
 62
     7
370
    18
100
AcDbLine
 10
12.3871853299
 20
168.91
 30
0.0
 11
13.328902181
 21
168.91
 31
0.0
  0
LINE
  5
11C
330
1F
100
AcDbEntity
  8
0
  6
HIDDEN
 62
     7
370
    18
100
AcDbLine
 10
-24.6822143555
 20
168.91
 30
0.0
 11
-23.7404975043
 21
168.91
 31
0.0
  0
LINE
  5
11D
330
1F
100
AcDbEntity
  8
0
  6
HIDDEN
 62
     7
370
    18
100
AcDbLine
 10
-15.4362670898
 20
175.5876285807
 30
0.0
 11
-16.377983941
 21
175.5876285807
 31
0.0
  0
LINE
  5
11E
330
1F
100
AcDbEntity
  8
0
  6
HIDDEN
 62
     7
370
    18
100
AcDbLine
 10
8.7407078637
 20
170.7533037228
 30
0.0
 11
7.6451594247
 21
168.91
 31
0.0
  0
LINE
  5
11F
330
1F
100
AcDbEntity
  8
0
  6
HIDDEN
 62
     7
370
    18
100
AcDbLine
 10
7.6451594247
 20
168.91
 30
0.0
 11
8.7246558719
 21
168.91
 31
0.0
  0
LINE
  5
120
330
1F
100
AcDbEntity
  8
0
  6
HIDDEN
 62
     7
370
    18
100
AcDbLine
 10
5.7095567491
 20
172.7624780273
 30
0.0
 11
2.1995212131
 21
172.7624780273
 31
0.0
  0
LINE
  5
121
330
1F
100
AcDbEntity
  8
0
  6
HIDDEN
 62
     7
370
    18
100
AcDbLine
 10
1.9426893446
 20
175.5876285807
 30
0.0
 11
1.9426893446
 21
174.8171329753
 31
0.0
  0
LINE
  5
122
330
1F
100
AcDbEntity
  8
0
  6
HIDDEN
 62
     7
370
    18
100
AcDbLine
 10
-26.8224799262
 20
174.8171329753
 30
0.0
 11
-24.6822143555
 21
174.8171329753
 31
0.0
  0
LINE
  5
123
330
1F
100
AcDbEntity
  8
0
  6
HIDDEN
 62
     7
370
    18
100
AcDbLine
 10
-24.6822143555
 20
174.8171329753
 30
0.0
 11
-24.6822143555
 21
168.91
 31
0.0
  0
LINE
  5
124
330
1F
100
AcDbEntity
  8
0
  6
HIDDEN
 62
     7
370
    18
100
AcDbLine
 10
12.3871853299
 20
171.906371799
 30
0.0
 11
12.3871853299
 21
168.91
 31
0.0
  0
LINE
  5
125
330
1F
100
AcDbEntity
  8
0
  6
HIDDEN
 62
     7
370
    18
100
AcDbLine
 10
-23.7404975043
 20
168.91
 30
0.0
 11
-23.7404975043
 21
174.8171329753
 31
0.0
  0
LINE
  5
126
330
1F
100
AcDbEntity
  8
0
  6
HIDDEN
 62
     7
370
    18
100
AcDbLine
 10
-19.6311876085
 20
175.5876285807
 30
0.0
 11
-20.5729044596
 21
175.5876285807
 31
0.0
  0
LINE
  5
127
330
1F
100
AcDbEntity
  8
0
  6
HIDDEN
 62
     7
370
    18
100
AcDbLine
 10
-20.5729044596
 20
175.5876285807
 30
0.0
 11
-20.5729044596
 21
171.7458518812
 31
0.0
  0
LINE
  5
128
330
1F
100
AcDbEntity
  8
0
  6
HIDDEN
 62
     7
370
    18
100
AcDbLine
 10
-21.6002319336
 20
175.5876285807
 30
0.0
 11
-26.8224799262
 21
175.5876285807
 31
0.0
  0
LINE
  5
129
330
1F
100
AcDbEntity
  8
0
  6
HIDDEN
 62
     7
370
    18
100
AcDbLine
 10
-19.6311876085
 20
171.7899948586
 30
0.0
 11
-19.6311876085
 21
175.5876285807
 31
0.0
  0
LINE
  5
12A
330
1F
100
AcDbEntity
  8
0
  6
HIDDEN
 62
     7
370
    18
100
AcDbLine
 10
12.3871853299
 20
172.6768674045
 30
0.0
 11
10.5987259123
 21
172.6768674045
 31
0.0
  0
LINE
  5
12B
330
1F
100
AcDbEntity
  8
0
  6
HIDDEN
 62
     7
370
    18
100
AcDbLine
 10
17.4689783944
 20
175.5876285807
 30
0.0
 11
16.4964952257
 21
175.5876285807
 31
0.0
  0
LINE
  5
12C
330
1F
100
AcDbEntity
  8
0
  6
HIDDEN
 62
     7
370
    18
100
AcDbLine
 10
14.8698933919
 20
175.5876285807
 30
0.0
 11
14.8698933919
 21
168.91
 31
0.0
  0
LINE
  5
12D
330
1F
100
AcDbEntity
  8
0
  6
HIDDEN
 62
     7
370
    18
100
AcDbLine
 10
15.8116102431
 20
175.5876285807
 30
0.0
 11
14.8698933919
 21
175.5876285807
 31
0.0
  0
LINE
  5
12E
330
1F
100
AcDbEntity
  8
0
  6
HIDDEN
 62
     7
370
    18
100
AcDbLine
 10
14.8698933919
 20
168.91
 30
0.0
 11
15.8116102431
 21
168.91
 31
0.0
  0
LINE
  5
12F
330
1F
100
AcDbEntity
  8
0
  6
HIDDEN
 62
     7
370
    18
100
AcDbLine
 10
15.8116102431
 20
168.91
 30
0.0
 11
15.8116102431
 21
175.5876285807
 31
0.0
  0
LINE
  5
130
330
1F
100
AcDbEntity
  8
0
  6
HIDDEN
 62
     7
370
    18
100
AcDbLine
 10
22.5186674754
 20
168.91
 30
0.0
 11
23.6329432382
 21
168.91
 31
0.0
  0
LINE
  5
131
330
1F
100
AcDbEntity
  8
0
  6
HIDDEN
 62
     7
370
    18
100
AcDbLine
 10
2.1995212131
 20
172.7624780273
 30
0.0
 11
2.1995212131
 21
171.9919824219
 31
0.0
  0
LINE
  5
132
330
1F
100
AcDbEntity
  8
0
  6
HIDDEN
 62
     7
370
    18
100
AcDbLine
 10
25.3143893772
 20
175.5876285807
 30
0.0
 11
24.3419062085
 21
175.5876285807
 31
0.0
  0
LINE
  5
133
330
1F
100
AcDbEntity
  8
0
  6
HIDDEN
 62
     7
370
    18
100
AcDbLine
 10
24.3419062085
 20
175.5876285807
 30
0.0
 11
23.350695716
 21
171.1960711628
 31
0.0
  0
LINE
  5
134
330
1F
100
AcDbEntity
  8
0
  6
HIDDEN
 62
     7
370
    18
100
AcDbLine
 10
1.771468099
 20
169.6804956055
 30
0.0
 11
1.771468099
 21
168.91
 31
0.0
  0
LINE
  5
135
330
1F
100
AcDbEntity
  8
0
  6
HIDDEN
 62
     7
370
    18
100
AcDbLine
 10
22.7019277149
 20
171.030200581
 30
0.0
 11
21.3829890569
 21
175.5876285807
 31
0.0
  0
LINE
  5
136
330
1F
100
AcDbEntity
  8
0
  6
HIDDEN
 62
     7
370
    18
100
AcDbLine
 10
21.3829890569
 20
175.5876285807
 30
0.0
 11
20.2499859704
 21
175.5876285807
 31
0.0
  0
LINE
  5
137
330
1F
100
AcDbEntity
  8
0
  6
HIDDEN
 62
     7
370
    18
100
AcDbLine
 10
13.328902181
 20
168.91
 30
0.0
 11
13.328902181
 21
175.5876285807
 31
0.0
  0
LINE
  5
138
330
1F
100
AcDbEntity
  8
0
  6
HIDDEN
 62
     7
370
    18
100
AcDbLine
 10
23.6329432382
 20
168.91
 30
0.0
 11
25.3143893772
 21
175.5876285807
 31
0.0
  0
LINE
  5
139
330
1F
100
AcDbEntity
  8
0
  6
HIDDEN
 62
     7
370
    18
100
AcDbLine
 10
0.8297512478
 20
171.2214868164
 30
0.0
 11
-0.1119656033
 21
171.2214868164
 31
0.0
  0
LINE
  5
13A
330
1F
100
AcDbEntity
  8
0
  6
HIDDEN
 62
     7
370
    18
100
AcDbLine
 10
18.4548382229
 20
171.2214868164
 30
0.0
 11
17.4689783944
 21
175.5876285807
 31
0.0
  0
LINE
  5
13B
330
1F
100
AcDbEntity
  8
0
  6
HIDDEN
 62
     7
370
    18
100
AcDbLine
 10
8.7246558719
 20
168.91
 30
0.0
 11
9.5566841125
 21
170.3198999447
 31
0.0
  0
LINE
  5
13C
330
1F
100
AcDbEntity
  8
0
  6
HIDDEN
 62
     7
370
    18
100
AcDbLine
 10
16.4964952257
 20
175.5876285807
 30
0.0
 11
18.1792790307
 21
168.91
 31
0.0
  0
LINE
  5
13D
330
1F
100
AcDbEntity
  8
0
  6
HIDDEN
 62
     7
370
    18
100
AcDbLine
 10
18.1792790307
 20
168.91
 30
0.0
 11
19.2146325005
 21
168.91
 31
0.0
  0
LINE
  5
13E
330
1F
100
AcDbEntity
  8
0
  6
HIDDEN
 62
     7
370
    18
100
AcDbLine
 10
19.2146325005
 20
168.91
 30
0.0
 11
20.6098181195
 21
174.0131957202
 31
0.0
  0
LINE
  5
13F
330
1F
100
AcDbEntity
  8
0
  6
HIDDEN
 62
     7
370
    18
100
AcDbLine
 10
20.2499859704
 20
175.5876285807
 30
0.0
 11
19.2962301254
 21
172.2421259605
 31
0.0
  0
LINE
  5
140
330
1F
100
AcDbEntity
  8
0
  6
HIDDEN
 62
     7
370
    18
100
AcDbLine
 10
-26.8224799262
 20
175.5876285807
 30
0.0
 11
-26.8224799262
 21
174.8171329753
 31
0.0
  0
LINE
  5
141
330
1F
100
AcDbEntity
  8
0
  6
HIDDEN
 62
     7
370
    18
100
AcDbLine
 10
21.0726505491
 20
173.9061824417
 30
0.0
 11
22.5186674754
 21
168.91
 31
0.0
  0
LINE
  5
142
330
1F
100
AcDbEntity
  8
0
  6
HIDDEN
 62
     7
370
    18
100
AcDbLine
 10
11.422728157
 20
171.906371799
 30
0.0
 11
12.3871853299
 21
171.906371799
 31
0.0
  0
LINE
  5
143
330
1F
100
AcDbEntity
  8
0
  6
HIDDEN
 62
     7
370
    18
100
AcDbLine
 10
12.3871853299
 20
174.8171329753
 30
0.0
 11
12.3871853299
 21
172.6768674045
 31
0.0
  0
LINE
  5
144
330
1F
100
AcDbEntity
  8
0
  6
HIDDEN
 62
     7
370
    18
100
AcDbLine
 10
13.328902181
 20
175.5876285807
 30
0.0
 11
10.4315176646
 21
175.5876285807
 31
0.0
  0
LINE
  5
145
330
1F
100
AcDbEntity
  8
0
  6
HIDDEN
 62
     7
370
    18
100
AcDbLine
 10
1.771468099
 20
168.91
 30
0.0
 11
6.6512736003
 21
168.91
 31
0.0
  0
LINE
  5
146
330
1F
100
AcDbEntity
  8
0
  6
HIDDEN
 62
     7
370
    18
100
AcDbLine
 10
10.3967383491
 20
174.8171329753
 30
0.0
 11
12.3871853299
 21
174.8171329753
 31
0.0
  0
LINE
  5
147
330
1F
100
AcDbEntity
  8
0
  6
HIDDEN
 62
     7
370
    18
100
AcDbLine
 10
6.6512736003
 20
168.91
 30
0.0
 11
6.6512736003
 21
175.5876285807
 31
0.0
  0
ARC
  5
148
330
1F
100
AcDbEntity
  8
0
  6
Continuous
 62
     7
370
    25
100
AcDbCircle
 10
-111.125
 20
-180.975
 30
0.0
 40
3.174999999999983
100
AcDbArc
 50
180.0
 51
270.0
  0
ARC
  5
149
330
1F
100
AcDbEntity
  8
0
  6
Continuous
 62
     7
370
    25
100
AcDbCircle
 10
-111.125
 20
180.975
 30
0.0
 40
3.174999999999983
100
AcDbArc
 50
90.0
 51
180.0
  0
ARC
  5
14A
330
1F
100
AcDbEntity
  8
0
  6
Continuous
 62
     7
370
    25
100
AcDbCircle
 10
111.125
 20
-180.975
 30
0.0
 40
3.175000000000011
100
AcDbArc
 50
270.0
 51
0.0
  0
ARC
  5
14B
330
1F
100
AcDbEntity
  8
0
  6
Continuous
 62
     7
370
    25
100
AcDbCircle
 10
111.125
 20
180.975
 30
0.0
 40
3.174999999999926
100
AcDbArc
 50
0.0
 51
90.0
  0
ENDSEC
  0
SECTION
  2
OBJECTS
  0
DICTIONARY
  5
C
330
0
100
AcDbDictionary
281
     1
  3
ACAD_GROUP
350
D
  3
ACAD_LAYOUT
350
1A
  3
ACAD_MLINESTYLE
350
17
  3
ACAD_PLOTSETTINGS
350
19
  3
ACAD_PLOTSTYLENAME
350
E
  3
ACAD_SCALELIST
350
47
  0
DICTIONARY
  5
D
102
{ACAD_REACTORS
330
C
102
}
330
C
100
AcDbDictionary
281
     1
  0
DICTIONARY
  5
1A
102
{ACAD_REACTORS
330
C
102
}
330
C
100
AcDbDictionary
281
     1
  3
Layout1
350
1E
  3
Layout2
350
26
  3
Model
350
22
  0
DICTIONARY
  5
17
102
{ACAD_REACTORS
330
C
102
}
330
C
100
AcDbDictionary
281
     1
  3
Standard
350
18
  0
DICTIONARY
  5
19
102
{ACAD_REACTORS
330
C
102
}
330
C
100
AcDbDictionary
281
     1
  0
ACDBDICTIONARYWDFLT
  5
E
102
{ACAD_REACTORS
330
C
102
}
330
C
100
AcDbDictionary
281
     1
  3
Normal
350
F
100
AcDbDictionaryWithDefault
340
F
  0
DICTIONARY
  5
47
102
{ACAD_REACTORS
330
C
102
}
330
C
100
AcDbDictionary
281
     1
  3
A0
350
48
  3
A1
350
49
  3
A2
350
4A
  3
A3
350
4B
  3
A4
350
4C
  3
A5
350
4D
  3
A6
350
4E
  3
A7
350
4F
  3
A8
350
50
  3
A9
350
51
  3
B0
350
52
  3
B1
350
53
  3
B2
350
54
  3
B3
350
55
  3
B4
350
56
  3
B5
350
57
  3
B6
350
58
  3
B7
350
59
  3
B8
350
5A
  3
B9
350
5B
  3
C0
350
5C
  3
C1
350
5D
  3
C2
350
5E
  3
C3
350
5F
  3
C4
350
60
  3
C5
350
61
  3
C6
350
62
  3
C7
350
63
  3
C8
350
64
  3
C9
350
65
  3
D0
350
66
  3
D1
350
67
  3
D2
350
68
  0
LAYOUT
  5
1E
102
{ACAD_REACTORS
330
1A
102
}
330
1A
100
AcDbPlotSettings
  1

  2
none_device
  4

  6

 40
0.0
 41
0.0
 42
0.0
 43
0.0
 44
0.0
 45
0.0
 46
0.0
 47
0.0
 48
0.0
 49
0.0
140
0.0
141
0.0
142
1.0
143
1.0
 70
   688
 72
     1
 73
     0
 74
     5
  7

 75
    16
147
1.0
148
0.0
149
0.0
100
AcDbLayout
  1
Layout1
 70
     1
 71
     1
 10
0.0
 20
0.0
 11
420.0
 21
297.0
 12
0.0
 22
0.0
 32
0.0
 14
1.0000000000E+20
 24
1.0000000000E+20
 34
1.0000000000E+20
 15
-1.0000000000E+20
 25
-1.0000000000E+20
 35
-1.0000000000E+20
146
0.0
 13
0.0
 23
0.0
 33
0.0
 16
1.0
 26
0.0
 36
0.0
 17
0.0
 27
1.0
 37
0.0
 76
     0
330
1B
  0
LAYOUT
  5
26
102
{ACAD_REACTORS
330
1A
102
}
330
1A
100
AcDbPlotSettings
  1

  2
none_device
  4

  6

 40
0.0
 41
0.0
 42
0.0
 43
0.0
 44
0.0
 45
0.0
 46
0.0
 47
0.0
 48
0.0
 49
0.0
140
0.0
141
0.0
142
1.0
143
1.0
 70
   688
 72
     1
 73
     0
 74
     5
  7

 75
    16
147
1.0
148
0.0
149
0.0
100
AcDbLayout
  1
Layout2
 70
     1
 71
     2
 10
0.0
 20
0.0
 11
0.0
 21
0.0
 12
0.0
 22
0.0
 32
0.0
 14
0.0
 24
0.0
 34
0.0
 15
0.0
 25
0.0
 35
0.0
146
0.0
 13
0.0
 23
0.0
 33
0.0
 16
1.0
 26
0.0
 36
0.0
 17
0.0
 27
1.0
 37
0.0
 76
     0
330
23
  0
LAYOUT
  5
22
102
{ACAD_REACTORS
330
1A
102
}
330
1A
100
AcDbPlotSettings
  1

  2
none_device
  4
ANSI_A_(11.00_x_8.50_Inches)
  6

 40
6.35
 41
19.05
 42
6.35000508
 43
19.05000254
 44
279.4
 45
215.9
 46
133.34999746
 47
88.89999873
 48
0.0
 49
0.0
140
0.0
141
0.0
142
0.0228482216
143
1.0
 70
  1696
 72
     0
 73
     0
 74
     0
  7

 75
     0
147
0.0179189148
148
-1300.4909072572
149
0.0
100
AcDbLayout
  1
Model
 70
     1
 71
     0
 10
0.0
 20
0.0
 11
420.0
 21
297.0
 12
0.0
 22
0.0
 32
0.0
 14
-114.3
 24
-184.15
 34
0.0
 15
114.3
 25
184.15
 35
0.0
146
0.0
 13
0.0
 23
0.0
 33
0.0
 16
1.0
 26
0.0
 36
0.0
 17
0.0
 27
1.0
 37
0.0
 76
     0
330
1F
331
29
  0
MLINESTYLE
  5
18
102
{ACAD_REACTORS
330
17
102
}
330
17
100
AcDbMlineStyle
  2
Standard
 70
     0
  3

 62
   256
 51
90.0
 52
90.0
 71
     2
 49
0.5
 62
   256
  6
BYLAYER
 49
-0.5
 62
   256
  6
BYLAYER
  0
ACDBPLACEHOLDER
  5
F
102
{ACAD_REACTORS
330
E
102
}
330
E
  0
SCALE
  5
48
102
{ACAD_REACTORS
330
47
102
}
330
47
100
AcDbScale
 70
     0
300
1:1
140
1.0
141
1.0
290
     1
  0
SCALE
  5
49
102
{ACAD_REACTORS
330
47
102
}
330
47
100
AcDbScale
 70
     0
300
1:2
140
1.0
141
2.0
290
     0
  0
SCALE
  5
4A
102
{ACAD_REACTORS
330
47
102
}
330
47
100
AcDbScale
 70
     0
300
1:4
140
1.0
141
4.0
290
     0
  0
SCALE
  5
4B
102
{ACAD_REACTORS
330
47
102
}
330
47
100
AcDbScale
 70
     0
300
1:5
140
1.0
141
5.0
290
     0
  0
SCALE
  5
4C
102
{ACAD_REACTORS
330
47
102
}
330
47
100
AcDbScale
 70
     0
300
1:8
140
1.0
141
8.0
290
     0
  0
SCALE
  5
4D
102
{ACAD_REACTORS
330
47
102
}
330
47
100
AcDbScale
 70
     0
300
1:10
140
1.0
141
10.0
290
     0
  0
SCALE
  5
4E
102
{ACAD_REACTORS
330
47
102
}
330
47
100
AcDbScale
 70
     0
300
1:16
140
1.0
141
16.0
290
     0
  0
SCALE
  5
4F
102
{ACAD_REACTORS
330
47
102
}
330
47
100
AcDbScale
 70
     0
300
1:20
140
1.0
141
20.0
290
     0
  0
SCALE
  5
50
102
{ACAD_REACTORS
330
47
102
}
330
47
100
AcDbScale
 70
     0
300
1:30
140
1.0
141
30.0
290
     0
  0
SCALE
  5
51
102
{ACAD_REACTORS
330
47
102
}
330
47
100
AcDbScale
 70
     0
300
1:40
140
1.0
141
40.0
290
     0
  0
SCALE
  5
52
102
{ACAD_REACTORS
330
47
102
}
330
47
100
AcDbScale
 70
     0
300
1:50
140
1.0
141
50.0
290
     0
  0
SCALE
  5
53
102
{ACAD_REACTORS
330
47
102
}
330
47
100
AcDbScale
 70
     0
300
1:100
140
1.0
141
100.0
290
     0
  0
SCALE
  5
54
102
{ACAD_REACTORS
330
47
102
}
330
47
100
AcDbScale
 70
     0
300
2:1
140
2.0
141
1.0
290
     0
  0
SCALE
  5
55
102
{ACAD_REACTORS
330
47
102
}
330
47
100
AcDbScale
 70
     0
300
4:1
140
4.0
141
1.0
290
     0
  0
SCALE
  5
56
102
{ACAD_REACTORS
330
47
102
}
330
47
100
AcDbScale
 70
     0
300
8:1
140
8.0
141
1.0
290
     0
  0
SCALE
  5
57
102
{ACAD_REACTORS
330
47
102
}
330
47
100
AcDbScale
 70
     0
300
10:1
140
10.0
141
1.0
290
     0
  0
SCALE
  5
58
102
{ACAD_REACTORS
330
47
102
}
330
47
100
AcDbScale
 70
     0
300
100:1
140
100.0
141
1.0
290
     0
  0
SCALE
  5
59
102
{ACAD_REACTORS
330
47
102
}
330
47
100
AcDbScale
 70
     0
300
1/128" = 1'-0"
140
0.0078125
141
12.0
290
     0
  0
SCALE
  5
5A
102
{ACAD_REACTORS
330
47
102
}
330
47
100
AcDbScale
 70
     0
300
1/64" = 1'-0"
140
0.015625
141
12.0
290
     0
  0
SCALE
  5
5B
102
{ACAD_REACTORS
330
47
102
}
330
47
100
AcDbScale
 70
     0
300
1/32" = 1'-0"
140
0.03125
141
12.0
290
     0
  0
SCALE
  5
5C
102
{ACAD_REACTORS
330
47
102
}
330
47
100
AcDbScale
 70
     0
300
1/16" = 1'-0"
140
0.0625
141
12.0
290
     0
  0
SCALE
  5
5D
102
{ACAD_REACTORS
330
47
102
}
330
47
100
AcDbScale
 70
     0
300
3/32" = 1'-0"
140
0.09375
141
12.0
290
     0
  0
SCALE
  5
5E
102
{ACAD_REACTORS
330
47
102
}
330
47
100
AcDbScale
 70
     0
300
1/8" = 1'-0"
140
0.125
141
12.0
290
     0
  0
SCALE
  5
5F
102
{ACAD_REACTORS
330
47
102
}
330
47
100
AcDbScale
 70
     0
300
3/16" = 1'-0"
140
0.1875
141
12.0
290
     0
  0
SCALE
  5
60
102
{ACAD_REACTORS
330
47
102
}
330
47
100
AcDbScale
 70
     0
300
1/4" = 1'-0"
140
0.25
141
12.0
290
     0
  0
SCALE
  5
61
102
{ACAD_REACTORS
330
47
102
}
330
47
100
AcDbScale
 70
     0
300
3/8" = 1'-0"
140
0.375
141
12.0
290
     0
  0
SCALE
  5
62
102
{ACAD_REACTORS
330
47
102
}
330
47
100
AcDbScale
 70
     0
300
1/2" = 1'-0"
140
0.5
141
12.0
290
     0
  0
SCALE
  5
63
102
{ACAD_REACTORS
330
47
102
}
330
47
100
AcDbScale
 70
     0
300
3/4" = 1'-0"
140
0.75
141
12.0
290
     0
  0
SCALE
  5
64
102
{ACAD_REACTORS
330
47
102
}
330
47
100
AcDbScale
 70
     0
300
1" = 1'-0"
140
1.0
141
12.0
290
     0
  0
SCALE
  5
65
102
{ACAD_REACTORS
330
47
102
}
330
47
100
AcDbScale
 70
     0
300
1-1/2" = 1'-0"
140
1.5
141
12.0
290
     0
  0
SCALE
  5
66
102
{ACAD_REACTORS
330
47
102
}
330
47
100
AcDbScale
 70
     0
300
3" = 1'-0"
140
3.0
141
12.0
290
     0
  0
SCALE
  5
67
102
{ACAD_REACTORS
330
47
102
}
330
47
100
AcDbScale
 70
     0
300
6" = 1'-0"
140
6.0
141
12.0
290
     0
  0
SCALE
  5
68
102
{ACAD_REACTORS
330
47
102
}
330
47
100
AcDbScale
 70
     0
300
1'-0" = 1'-0"
140
12.0
141
12.0
290
     0
  0
ENDSEC
  0
EOF
