  0
SECTION
  2
HEADER
  9
$ACADVER
  1
AC1015
  9
$ACADMAINTVER
 70
     6
  9
$DWGCODEPAGE
  3
ANSI_1252
  9
$INSBASE
 10
0.0
 20
0.0
 30
0.0
  9
$EXTMIN
 10
0.0
 20
-0.25
 30
0.0
  9
$EXTMAX
 10
1.96850394
 20
8.12402
 30
0.0
  9
$LIMMIN
 10
0.0
 20
0.0
  9
$LIMMAX
 10
12.0
 20
9.0
  9
$ORTHOMODE
 70
     0
  9
$REGENMODE
 70
     1
  9
$FILLMODE
 70
     1
  9
$QTEXTMODE
 70
     0
  9
$MIRRTEXT
 70
     1
  9
$LTSCALE
 40
1.0
  9
$ATTMODE
 70
     1
  9
$TEXTSIZE
 40
0.1377952756
  9
$TRACEWID
 40
0.05
  9
$TEXTSTYLE
  7
Standard
  9
$CLAYER
  8
0
  9
$CELTYPE
  6
ByLayer
  9
$CECOLOR
 62
   256
  9
$CELTSCALE
 40
1.0
  9
$DISPSILH
 70
     0
  9
$DIMSCALE
 40
1.0
  9
$DIMASZ
 40
0.13
  9
$DIMEXO
 40
0.0393700787
  9
$DIMDLI
 40
0.38
  9
$DIMRND
 40
0.0
  9
$DIMDLE
 40
0.0
  9
$DIMEXE
 40
0.0393700787
  9
$DIMTP
 40
0.0
  9
$DIMTM
 40
0.0
  9
$DIMTXT
 40
0.1377952756
  9
$DIMCEN
 40
0.09
  9
$DIMTSZ
 40
0.0
  9
$DIMTOL
 70
     0
  9
$DIMLIM
 70
     0
  9
$DIMTIH
 70
     1
  9
$DIMTOH
 70
     1
  9
$DIMSE1
 70
     0
  9
$DIMSE2
 70
     0
  9
$DIMTAD
 70
     1
  9
$DIMZIN
 70
     1
  9
$DIMBLK
  1

  9
$DIMASO
 70
     1
  9
$DIMSHO
 70
     1
  9
$DIMPOST
  1

  9
$DIMAPOST
  1

  9
$DIMALT
 70
     0
  9
$DIMALTD
 70
     2
  9
$DIMALTF
 40
25.4
  9
$DIMLFAC
 40
1.0
  9
$DIMTOFL
 70
     0
  9
$DIMTVP
 40
0.0
  9
$DIMTIX
 70
     0
  9
$DIMSOXD
 70
     0
  9
$DIMSAH
 70
     0
  9
$DIMBLK1
  1

  9
$DIMBLK2
  1

  9
$DIMSTYLE
  2
Standard
  9
$DIMCLRD
 70
     0
  9
$DIMCLRE
 70
     0
  9
$DIMCLRT
 70
     0
  9
$DIMTFAC
 40
1.0
  9
$DIMGAP
 40
0.06
  9
$DIMJUST
 70
     0
  9
$DIMSD1
 70
     0
  9
$DIMSD2
 70
     0
  9
$DIMTOLJ
 70
     1
  9
$DIMTZIN
 70
     1
  9
$DIMALTZ
 70
     0
  9
$DIMALTTZ
 70
     0
  9
$DIMUPT
 70
     0
  9
$DIMDEC
 70
     2
  9
$DIMTDEC
 70
     2
  9
$DIMALTU
 70
     2
  9
$DIMALTTD
 70
     2
  9
$DIMTXSTY
  7
Standard
  9
$DIMAUNIT
 70
     0
  9
$DIMADEC
 70
     2
  9
$DIMALTRND
 40
0.0
  9
$DIMAZIN
 70
     0
  9
$DIMDSEP
 70
    46
  9
$DIMATFIT
 70
     3
  9
$DIMFRAC
 70
     0
  9
$DIMLDRBLK
  1

  9
$DIMLUNIT
 70
     2
  9
$DIMLWD
 70
    -2
  9
$DIMLWE
 70
    -2
  9
$DIMTMOVE
 70
     0
  9
$LUNITS
 70
     2
  9
$LUPREC
 70
     8
  9
$SKETCHINC
 40
0.1
  9
$FILLETRAD
 40
0.5
  9
$AUNITS
 70
     0
  9
$AUPREC
 70
     2
  9
$MENU
  1
.
  9
$ELEVATION
 40
0.0
  9
$PELEVATION
 40
0.0
  9
$THICKNESS
 40
0.0
  9
$LIMCHECK
 70
     0
  9
$CHAMFERA
 40
0.0
  9
$CHAMFERB
 40
0.0
  9
$CHAMFERC
 40
0.0
  9
$CHAMFERD
 40
0.0
  9
$SKPOLY
 70
     0
  9
$TDCREATE
 40
2458324.599012338
  9
$TDUCREATE
 40
2458324.765679005
  9
$TDUPDATE
 40
2458324.599041551
  9
$TDUUPDATE
 40
2458324.765708217
  9
$TDINDWG
 40
0.0000000116
  9
$TDUSRTIMER
 40
0.0000000116
  9
$USRTIMER
 70
     1
  9
$ANGBASE
 50
0.0
  9
$ANGDIR
 70
     0
  9
$PDMODE
 70
     0
  9
$PDSIZE
 40
-1.0
  9
$PLINEWID
 40
0.0
  9
$SPLFRAME
 70
     0
  9
$SPLINETYPE
 70
     6
  9
$SPLINESEGS
 70
     8
  9
$HANDSEED
  5
281
  9
$SURFTAB1
 70
     6
  9
$SURFTAB2
 70
     6
  9
$SURFTYPE
 70
     6
  9
$SURFU
 70
     6
  9
$SURFV
 70
     6
  9
$UCSBASE
  2

  9
$UCSNAME
  2

  9
$UCSORG
 10
0.0
 20
0.0
 30
0.0
  9
$UCSXDIR
 10
1.0
 20
0.0
 30
0.0
  9
$UCSYDIR
 10
0.0
 20
1.0
 30
0.0
  9
$UCSORTHOREF
  2

  9
$UCSORTHOVIEW
 70
     0
  9
$UCSORGTOP
 10
0.0
 20
0.0
 30
0.0
  9
$UCSORGBOTTOM
 10
0.0
 20
0.0
 30
0.0
  9
$UCSORGLEFT
 10
0.0
 20
0.0
 30
0.0
  9
$UCSORGRIGHT
 10
0.0
 20
0.0
 30
0.0
  9
$UCSORGFRONT
 10
0.0
 20
0.0
 30
0.0
  9
$UCSORGBACK
 10
0.0
 20
0.0
 30
0.0
  9
$PUCSBASE
  2

  9
$PUCSNAME
  2

  9
$PUCSORG
 10
0.0
 20
0.0
 30
0.0
  9
$PUCSXDIR
 10
1.0
 20
0.0
 30
0.0
  9
$PUCSYDIR
 10
0.0
 20
1.0
 30
0.0
  9
$PUCSORTHOREF
  2

  9
$PUCSORTHOVIEW
 70
     0
  9
$PUCSORGTOP
 10
0.0
 20
0.0
 30
0.0
  9
$PUCSORGBOTTOM
 10
0.0
 20
0.0
 30
0.0
  9
$PUCSORGLEFT
 10
0.0
 20
0.0
 30
0.0
  9
$PUCSORGRIGHT
 10
0.0
 20
0.0
 30
0.0
  9
$PUCSORGFRONT
 10
0.0
 20
0.0
 30
0.0
  9
$PUCSORGBACK
 10
0.0
 20
0.0
 30
0.0
  9
$USERI1
 70
     0
  9
$USERI2
 70
     0
  9
$USERI3
 70
     0
  9
$USERI4
 70
     0
  9
$USERI5
 70
     0
  9
$USERR1
 40
0.0
  9
$USERR2
 40
0.0
  9
$USERR3
 40
0.0
  9
$USERR4
 40
0.0
  9
$USERR5
 40
0.0
  9
$WORLDVIEW
 70
     1
  9
$SHADEDGE
 70
     3
  9
$SHADEDIF
 70
    70
  9
$TILEMODE
 70
     1
  9
$MAXACTVP
 70
    64
  9
$PINSBASE
 10
0.0
 20
0.0
 30
0.0
  9
$PLIMCHECK
 70
     0
  9
$PEXTMIN
 10
1.0000000000E+20
 20
1.0000000000E+20
 30
1.0000000000E+20
  9
$PEXTMAX
 10
-1.0000000000E+20
 20
-1.0000000000E+20
 30
-1.0000000000E+20
  9
$PLIMMIN
 10
0.0
 20
0.0
  9
$PLIMMAX
 10
12.0
 20
9.0
  9
$UNITMODE
 70
     0
  9
$VISRETAIN
 70
     1
  9
$PLINEGEN
 70
     0
  9
$PSLTSCALE
 70
     1
  9
$TREEDEPTH
 70
  3020
  9
$CMLSTYLE
  2
Standard
  9
$CMLJUST
 70
     0
  9
$CMLSCALE
 40
1.0
  9
$PROXYGRAPHICS
 70
     1
  9
$MEASUREMENT
 70
     0
  9
$CELWEIGHT
370
    -1
  9
$ENDCAPS
280
     0
  9
$JOINSTYLE
280
     0
  9
$LWDISPLAY
290
     1
  9
$INSUNITS
 70
     1
  9
$HYPERLINKBASE
  1

  9
$STYLESHEET
  1

  9
$XEDIT
290
     1
  9
$CEPSNTYPE
380
     0
  9
$PSTYLEMODE
290
     1
  9
$FINGERPRINTGUID
  2
{6CFE5810-B620-40C3-A7DA-269E1AE9B7F0}
  9
$VERSIONGUID
  2
{FAEB1C32-E019-11D5-929B-00C0DF256EC4}
  9
$EXTNAMES
290
     1
  9
$PSVPSCALE
 40
0.0
  9
$OLESTARTUP
290
     0
  0
ENDSEC
  0
SECTION
  2
CLASSES
  0
CLASS
  1
ACDBDICTIONARYWDFLT
  2
AcDbDictionaryWithDefault
  3
ObjectDBX Classes
 90
        0
280
     0
281
     0
  0
CLASS
  1
VISUALSTYLE
  2
AcDbVisualStyle
  3
ObjectDBX Classes
 90
     4095
280
     0
281
     0
  0
CLASS
  1
MATERIAL
  2
AcDbMaterial
  3
ObjectDBX Classes
 90
     1153
280
     0
281
     0
  0
CLASS
  1
SCALE
  2
AcDbScale
  3
ObjectDBX Classes
 90
     1153
280
     0
281
     0
  0
CLASS
  1
TABLESTYLE
  2
AcDbTableStyle
  3
ObjectDBX Classes
 90
     4095
280
     0
281
     0
  0
CLASS
  1
MLEADERSTYLE
  2
AcDbMLeaderStyle
  3
ACDB_MLEADERSTYLE_CLASS
 90
     4095
280
     0
281
     0
  0
CLASS
  1
SUN
  2
AcDbSun
  3
SCENEOE
 90
     1153
280
     0
281
     0
  0
CLASS
  1
ACDBPLACEHOLDER
  2
AcDbPlaceHolder
  3
ObjectDBX Classes
 90
        0
280
     0
281
     0
  0
CLASS
  1
LAYOUT
  2
AcDbLayout
  3
ObjectDBX Classes
 90
        0
280
     0
281
     0
  0
ENDSEC
  0
SECTION
  2
TABLES
  0
TABLE
  2
VPORT
  5
8
330
0
100
AcDbSymbolTable
 70
     1
  0
VPORT
  5
29
330
8
100
AcDbSymbolTableRecord
100
AcDbViewportTableRecord
  2
*Active
 70
     0
 10
0.0
 20
0.0
 11
1.0
 21
1.0
 12
0.98425197
 22
3.93701
 13
0.0
 23
0.0
 14
0.5
 24
0.5
 15
0.5
 25
0.5
 16
0.0
 26
0.0
 36
1.0
 17
0.0
 27
0.0
 37
0.0
 40
8.5415004
 41
0.2350727536
 42
50.0
 43
0.0
 44
0.0
 50
0.0
 51
0.0
 71
     0
 72
   100
 73
     1
 74
     3
 75
     0
 76
     0
 77
     0
 78
     0
281
     0
 65
     1
110
0.0
120
0.0
130
0.0
111
1.0
121
0.0
131
0.0
112
0.0
122
1.0
132
0.0
 79
     0
146
0.0
  0
ENDTAB
  0
TABLE
  2
LTYPE
  5
5
330
0
100
AcDbSymbolTable
 70
     6
  0
LTYPE
  5
14
330
5
100
AcDbSymbolTableRecord
100
AcDbLinetypeTableRecord
  2
ByBlock
 70
     0
  3

 72
    65
 73
     0
 40
0.0
  0
LTYPE
  5
15
330
5
100
AcDbSymbolTableRecord
100
AcDbLinetypeTableRecord
  2
ByLayer
 70
     0
  3

 72
    65
 73
     0
 40
0.0
  0
LTYPE
  5
16
330
5
100
AcDbSymbolTableRecord
100
AcDbLinetypeTableRecord
  2
Continuous
 70
     0
  3
Solid line
 72
    65
 73
     0
 40
0.0
  0
LTYPE
  5
6E
330
5
100
AcDbSymbolTableRecord
100
AcDbLinetypeTableRecord
  2
HIDDEN
 70
     0
  3
Hidden __ __ __ __ __ __ __ __ __ __ __ __ __ __
 72
    65
 73
     2
 40
0.075
 49
0.05
 74
     0
 49
-0.025
 74
     0
  0
LTYPE
  5
6F
330
5
100
AcDbSymbolTableRecord
100
AcDbLinetypeTableRecord
  2
PHANTOM
 70
     0
  3
Phantom ______  __  __  ______  __  __  ______
 72
    65
 73
     6
 40
0.5
 49
0.25
 74
     0
 49
-0.05
 74
     0
 49
0.05
 74
     0
 49
-0.05
 74
     0
 49
0.05
 74
     0
 49
-0.05
 74
     0
  0
LTYPE
  5
70
330
5
100
AcDbSymbolTableRecord
100
AcDbLinetypeTableRecord
  2
CENTER
 70
     0
  3
Center ____ _ ____ _ ____ _ ____ _ ____ _ ____
 72
    65
 73
     4
 40
0.4
 49
0.25
 74
     0
 49
-0.05
 74
     0
 49
0.05
 74
     0
 49
-0.05
 74
     0
  0
LTYPE
  5
71
330
5
100
AcDbSymbolTableRecord
100
AcDbLinetypeTableRecord
  2
CENTERX2
 70
     0
  3
Center (2x) ________  __  ________  __  _____
 72
    65
 73
     4
 40
0.8
 49
0.5
 74
     0
 49
-0.1
 74
     0
 49
0.1
 74
     0
 49
-0.1
 74
     0
  0
LTYPE
  5
72
330
5
100
AcDbSymbolTableRecord
100
AcDbLinetypeTableRecord
  2
DOT2
 70
     0
  3
Dot (.5x) ........................................
 72
    65
 73
     2
 40
0.025
 49
0.0
 74
     0
 49
-0.025
 74
     0
  0
ENDTAB
  0
TABLE
  2
LAYER
  5
2
330
0
100
AcDbSymbolTable
 70
     1
  0
LAYER
  5
10
330
2
100
AcDbSymbolTableRecord
100
AcDbLayerTableRecord
  2
0
 70
     0
 62
     7
  6
Continuous
370
    -3
390
F
  0
ENDTAB
  0
TABLE
  2
STYLE
  5
3
330
0
100
AcDbSymbolTable
 70
     1
  0
STYLE
  5
11
330
3
100
AcDbSymbolTableRecord
100
AcDbTextStyleTableRecord
  2
Standard
 70
     0
 40
0.0
 41
1.0
 50
0.0
 71
     0
 42
0.1377952756
  3
txt
  4

  0
ENDTAB
  0
TABLE
  2
VIEW
  5
6
330
0
100
AcDbSymbolTable
 70
     0
  0
ENDTAB
  0
TABLE
  2
UCS
  5
7
330
0
100
AcDbSymbolTable
 70
     0
  0
ENDTAB
  0
TABLE
  2
APPID
  5
9
330
0
100
AcDbSymbolTable
 70
     1
  0
APPID
  5
12
330
9
100
AcDbSymbolTableRecord
100
AcDbRegAppTableRecord
  2
ACAD
 70
     0
  0
ENDTAB
  0
TABLE
  2
DIMSTYLE
  5
A
330
0
100
AcDbSymbolTable
 70
     1
100
AcDbDimStyleTable
  0
DIMSTYLE
105
27
330
A
100
AcDbSymbolTableRecord
100
AcDbDimStyleTableRecord
  2
Standard
 70
     0
178
     0
340
11
  0
ENDTAB
  0
TABLE
  2
BLOCK_RECORD
  5
1
330
0
100
AcDbSymbolTable
 70
     1
  0
BLOCK_RECORD
  5
1F
330
1
100
AcDbSymbolTableRecord
100
AcDbBlockTableRecord
  2
*Model_Space
340
22
  0
BLOCK_RECORD
  5
1B
330
1
100
AcDbSymbolTableRecord
100
AcDbBlockTableRecord
  2
*Paper_Space
340
1E
  0
BLOCK_RECORD
  5
23
330
1
100
AcDbSymbolTableRecord
100
AcDbBlockTableRecord
  2
*Paper_Space0
340
26
  0
ENDTAB
  0
ENDSEC
  0
SECTION
  2
BLOCKS
  0
BLOCK
  5
20
330
1F
100
AcDbEntity
  8
0
100
AcDbBlockBegin
  2
*Model_Space
 70
     0
 10
0.0
 20
0.0
 30
0.0
  3
*Model_Space
  1

  0
ENDBLK
  5
21
330
1F
100
AcDbEntity
  8
0
100
AcDbBlockEnd
  0
BLOCK
  5
1C
330
1B
100
AcDbEntity
 67
     1
  8
0
100
AcDbBlockBegin
  2
*Paper_Space
 70
     0
 10
0.0
 20
0.0
 30
0.0
  3
*Paper_Space
  1

  0
ENDBLK
  5
1D
330
1B
100
AcDbEntity
 67
     1
  8
0
100
AcDbBlockEnd
  0
BLOCK
  5
24
330
23
100
AcDbEntity
  8
0
100
AcDbBlockBegin
  2
*Paper_Space0
 70
     0
 10
0.0
 20
0.0
 30
0.0
  3
*Paper_Space0
  1

  0
ENDBLK
  5
25
330
23
100
AcDbEntity
  8
0
100
AcDbBlockEnd
  0
ENDSEC
  0
SECTION
  2
ENTITIES
  0
SPLINE
  5
73
330
1F
100
AcDbEntity
  8
0
  6
Continuous
 62
     7
370
    25
100
AcDbSpline
210
0.0
220
0.0
230
1.0
 70
     8
 71
     3
 72
    13
 73
     9
 74
     0
 42
0.000000001
 43
0.00000001
 40
0.0
 40
0.0
 40
0.0
 40
0.0
 40
0.129450945695339
 40
0.2566201255472169
 40
0.3819473118776188
 40
0.5059238020969625
 40
0.753227043883005
 40
0.9999999999999999
 40
0.9999999999999999
 40
0.9999999999999999
 40
0.9999999999999999
 10
0.3318619836243297
 20
0.0939792308570122
 30
0.0
 10
0.3332984160211451
 20
0.0939998837803181
 30
0.0
 10
0.3361459615530133
 20
0.0940408255883765
 30
0.0
 10
0.3403654941832118
 20
0.0944694077014929
 30
0.0
 10
0.3444935947827995
 20
0.0951164908563995
 30
0.0
 10
0.3498684630826382
 20
0.0963338805495757
 30
0.0
 10
0.3564241810411896
 20
0.0984210754354347
 30
0.0
 10
0.361373641036321
 20
0.1007861131169214
 30
0.0
 10
0.3638457149378068
 20
0.1019673627753051
 30
0.0
  0
SPLINE
  5
74
330
1F
100
AcDbEntity
  8
0
  6
Continuous
 62
     7
370
    25
100
AcDbSpline
210
0.0
220
0.0
230
1.0
 70
     8
 71
     3
 72
    23
 73
    19
 74
     0
 42
0.000000001
 43
0.00000001
 40
0.0
 40
0.0
 40
0.0
 40
0.0
 40
0.0840317394051693
 40
0.1627481493312725
 40
0.2368339841853694
 40
0.3065508913091595
 40
0.3719863846278457
 40
0.434019408637498
 40
0.4926908591099678
 40
0.5491834289731914
 40
0.6036840424567055
 40
0.6572913689677627
 40
0.7104988326918849
 40
0.7643749718134192
 40
0.8194274208576797
 40
0.8765172271270816
 40
0.9365368014155032
 40
1.0
 40
1.0
 40
1.0
 40
1.0
 10
0.2899554946935982
 20
0.1489912487161931
 30
0.0
 10
0.2899812304037455
 20
0.1467852329599237
 30
0.0
 10
0.2900310739417685
 20
0.1425127403961636
 30
0.0
 10
0.2905337974290996
 20
0.1363110297322827
 30
0.0
 10
0.2913745835771364
 20
0.1305279674820733
 30
0.0
 10
0.2925060462892179
 20
0.1251484991897946
 30
0.0
 10
0.2940033334830646
 20
0.1201865470761316
 30
0.0
 10
0.2958401607996155
 20
0.1156519016627852
 30
0.0
 10
0.2979959377271908
 20
0.1115204562961563
 30
0.0
 10
0.3004982683508314
 20
0.1078258624505231
 30
0.0
 10
0.3033168363976233
 20
0.1045344218721609
 30
0.0
 10
0.3065026499209776
 20
0.1017308698168642
 30
0.0
 10
0.3099466040043164
 20
0.0992739615468016
 30
0.0
 10
0.3137647140194173
 20
0.09736699465307
 30
0.0
 10
0.3178415862103429
 20
0.0958006723734251
 30
0.0
 10
0.3222527201199509
 20
0.0947749484955905
 30
0.0
 10
0.3269520329073679
 20
0.0940918404034407
 30
0.0
 10
0.330195185591928
 20
0.0940174588110664
 30
0.0
 10
0.3318619836243297
 20
0.0939792308570122
 30
0.0
  0
SPLINE
  5
75
330
1F
100
AcDbEntity
  8
0
  6
Continuous
 62
     7
370
    25
100
AcDbSpline
210
0.0
220
0.0
230
1.0
 70
     8
 71
     3
 72
    23
 73
    19
 74
     0
 42
0.000000001
 43
0.00000001
 40
0.0
 40
0.0
 40
0.0
 40
0.0
 40
0.0600880609779839
 40
0.1176379756965089
 40
0.1740257215812306
 40
0.2293076183001609
 40
0.2841237639615154
 40
0.338589472333363
 40
0.393896314102448
 40
0.4501731553616634
 40
0.508161273727733
 40
0.5681844856238021
 40
0.6313404136763838
 40
0.6978380847396186
 40
0.7674999478350824
 40
0.8409446074175858
 40
0.9181895397340787
 40
1.0
 40
1.0
 40
1.0
 40
1.0
 10
0.3314563363003538
 20
0.203816044733539
 30
0.0
 10
0.3299031668199217
 20
0.2037826416376477
 30
0.0
 10
0.3268624344245367
 20
0.2037172464074018
 30
0.0
 10
0.3224218207390361
 20
0.2029502168841819
 30
0.0
 10
0.318191836195979
 20
0.2018250531725139
 30
0.0
 10
0.3142090860096999
 20
0.2001783799829605
 30
0.0
 10
0.3104737838841931
 20
0.1981300171706643
 30
0.0
 10
0.3070543557559202
 20
0.1955887987169034
 30
0.0
 10
0.3038851747301459
 20
0.1926888902131528
 30
0.0
 10
0.3010337784868345
 20
0.189352055793374
 30
0.0
 10
0.2985045336191208
 20
0.1856194839588698
 30
0.0
 10
0.296287695226614
 20
0.1814932437238181
 30
0.0
 10
0.2943390766212391
 20
0.1769919440023236
 30
0.0
 10
0.2927800147428822
 20
0.1720809711351749
 30
0.0
 10
0.2914803972293973
 20
0.1668223627303027
 30
0.0
 10
0.2905965094979945
 20
0.1611958189095113
 30
0.0
 10
0.2900628522630471
 20
0.155211175424837
 30
0.0
 10
0.2899919588584675
 20
0.1511038564637714
 30
0.0
 10
0.2899554946935982
 20
0.1489912487161931
 30
0.0
  0
SPLINE
  5
76
330
1F
100
AcDbEntity
  8
0
  6
Continuous
 62
     7
370
    25
100
AcDbSpline
210
0.0
220
0.0
230
1.0
 70
     8
 71
     3
 72
    15
 73
    11
 74
     0
 42
0.000000001
 43
0.00000001
 40
0.0
 40
0.0
 40
0.0
 40
0.0
 40
0.1229518253937411
 40
0.2436493340016016
 40
0.3654458018314654
 40
0.4858589981462101
 40
0.6082520122149487
 40
0.7338071751990873
 40
0.8647999477413002
 40
1.0
 40
1.0
 40
1.0
 40
1.0
 10
0.3638457149378068
 20
0.1958279128152461
 30
0.0
 10
0.3626152887329423
 20
0.1964569681846224
 30
0.0
 10
0.3601769961383161
 20
0.1977035452184145
 30
0.0
 10
0.3563905260813544
 20
0.1993014333141675
 30
0.0
 10
0.3525465859926326
 20
0.2006688473984866
 30
0.0
 10
0.3486064588894739
 20
0.2017998472162815
 30
0.0
 10
0.3445670152433094
 20
0.2027136437075565
 30
0.0
 10
0.3403574746041082
 20
0.2033758941129512
 30
0.0
 10
0.335966785460577
 20
0.2037442778822288
 30
0.0
 10
0.3329755784120713
 20
0.2037918717035675
 30
0.0
 10
0.3314563363003538
 20
0.203816044733539
 30
0.0
  0
SPLINE
  5
78
330
1F
100
AcDbEntity
  8
0
  6
Continuous
 62
     7
370
    25
100
AcDbSpline
210
0.0
220
0.0
230
1.0
 70
     8
 71
     3
 72
    13
 73
     9
 74
     0
 42
0.000000001
 43
0.00000001
 40
0.0
 40
0.0
 40
0.0
 40
0.0
 40
0.1371061699383939
 40
0.2698431066498096
 40
0.3974532667587324
 40
0.5204190357232265
 40
0.7614228402333123
 40
0.9999999999999999
 40
0.9999999999999999
 40
0.9999999999999999
 40
0.9999999999999999
 10
0.3306762452927081
 20
0.2197923085701242
 30
0.0
 10
0.3322265840362484
 20
0.2197759583947472
 30
0.0
 10
0.3352778560767737
 20
0.2197437790834887
 30
0.0
 10
0.3397625402045849
 20
0.2194421487165755
 30
0.0
 10
0.3440793072533986
 20
0.2190357433905314
 30
0.0
 10
0.3495654467287633
 20
0.2181378117999663
 30
0.0
 10
0.3562287793420387
 20
0.2166356351768703
 30
0.0
 10
0.3613153155734822
 20
0.2147428256537923
 30
0.0
 10
0.3638457149378068
 20
0.2138012096314046
 30
0.0
  0
SPLINE
  5
79
330
1F
100
AcDbEntity
  8
0
  6
Continuous
 62
     7
370
    25
100
AcDbSpline
210
0.0
220
0.0
230
1.0
 70
     8
 71
     3
 72
    23
 73
    19
 74
     0
 42
0.000000001
 43
0.00000001
 40
0.0
 40
0.0
 40
0.0
 40
0.0
 40
0.0762236969409297
 40
0.1492541184144699
 40
0.2189623431526857
 40
0.2862645951784961
 40
0.3508726152949525
 40
0.4127356938289323
 40
0.4725305916637861
 40
0.5304846429257277
 40
0.5872753430613771
 40
0.6438115245597016
 40
0.7002070789728267
 40
0.7573436374772584
 40
0.8154020232090141
 40
0.8750243939292824
 40
0.9360604522577459
 40
1.0
 40
1.0
 40
1.0
 40
1.0
 10
0.2699851648978661
 20
0.1473686594202898
 30
0.0
 10
0.2700432979699711
 20
0.1500745745750004
 30
0.0
 10
0.270157128717835
 20
0.1553730446981912
 30
0.0
 10
0.2709228027616878
 20
0.1631191390762487
 30
0.0
 10
0.2722850051119668
 20
0.1704565492296553
 30
0.0
 10
0.2740885069905934
 20
0.1773926519934165
 30
0.0
 10
0.2764778525687931
 20
0.1838536242490551
 30
0.0
 10
0.2792748560943469
 20
0.189855318895856
 30
0.0
 10
0.2825586250902771
 20
0.1953346319463073
 30
0.0
 10
0.2862828845326433
 20
0.2003020483929109
 30
0.0
 10
0.2904676015723729
 20
0.2047300823831633
 30
0.0
 10
0.2950588011436802
 20
0.2086519432476352
 30
0.0
 10
0.3000961572058418
 20
0.2120037829291191
 30
0.0
 10
0.3055073564886318
 20
0.2148258323538824
 30
0.0
 10
0.3113153308071613
 20
0.2170559801702477
 30
0.0
 10
0.3174738216285666
 20
0.218621748270277
 30
0.0
 10
0.3239652693310502
 20
0.2196350122855703
 30
0.0
 10
0.3284048723549798
 20
0.2197390706318598
 30
0.0
 10
0.3306762452927081
 20
0.2197923085701242
 30
0.0
  0
SPLINE
  5
7A
330
1F
100
AcDbEntity
  8
0
  6
Continuous
 62
     7
370
    25
100
AcDbSpline
210
0.0
220
0.0
230
1.0
 70
     8
 71
     3
 72
    23
 73
    19
 74
     0
 42
0.000000001
 43
0.00000001
 40
0.0
 40
0.0
 40
0.0
 40
0.0
 40
0.067023146482397
 40
0.1305827730090698
 40
0.190930885779358
 40
0.2488854419887259
 40
0.305201283486186
 40
0.3603754908431921
 40
0.4152850020816809
 40
0.4704616393960714
 40
0.5269161871444932
 40
0.5848545470667013
 40
0.6449086826340928
 40
0.7081609972427749
 40
0.7747989577248987
 40
0.8453791346382021
 40
0.9201393848946394
 40
1.0
 40
1.0
 40
1.0
 40
1.0
 10
0.3296465251626157
 20
0.078002967020427
 30
0.0
 10
0.3273143700185706
 20
0.0780571650689286
 30
0.0
 10
0.3227705772875505
 20
0.0781627604018328
 30
0.0
 10
0.316164914876443
 20
0.0789734097791108
 30
0.0
 10
0.3099797400045768
 20
0.0803482548024977
 30
0.0
 10
0.3041968578069965
 20
0.0822452368799807
 30
0.0
 10
0.298826098096141
 20
0.0847111351650312
 30
0.0
 10
0.2938947569568051
 20
0.0877692455022726
 30
0.0
 10
0.2893715695914734
 20
0.0913395328977938
 30
0.0
 10
0.2852837200858875
 20
0.0954651111134249
 30
0.0
 10
0.281648007092744
 20
0.1001305159239362
 30
0.0
 10
0.2785358484591706
 20
0.1053550096422767
 30
0.0
 10
0.275851461551562
 20
0.111074302758603
 30
0.0
 10
0.2737437459789665
 20
0.1173476036835425
 30
0.0
 10
0.2719950023343143
 20
0.1241075724504001
 30
0.0
 10
0.2708587066868057
 20
0.1314029366974558
 30
0.0
 10
0.270120421841448
 20
0.1392092416971418
 30
0.0
 10
0.2700312312340654
 20
0.1445896931796557
 30
0.0
 10
0.2699851648978661
 20
0.1473686594202898
 30
0.0
  0
SPLINE
  5
7B
330
1F
100
AcDbEntity
  8
0
  6
Continuous
 62
     7
370
    25
100
AcDbSpline
210
0.0
220
0.0
230
1.0
 70
     8
 71
     3
 72
    11
 73
     7
 74
     0
 42
0.000000001
 43
0.00000001
 40
0.0
 40
0.0
 40
0.0
 40
0.0
 40
0.2486186933577395
 40
0.495977929238535
 40
0.7466774047198476
 40
1.0
 40
1.0
 40
1.0
 40
1.0
 10
0.3638457149378068
 20
0.0839940659591461
 30
0.0
 10
0.3611043718007894
 20
0.0830680192664405
 30
0.0
 10
0.3556355726768484
 20
0.0812206170666171
 30
0.0
 10
0.3471332622397003
 20
0.0793802718916538
 30
0.0
 10
0.33845794074062
 20
0.0782148024246931
 30
0.0
 10
0.3325938366872067
 20
0.0780738233910956
 30
0.0
 10
0.3296465251626157
 20
0.078002967020427
 30
0.0
  0
SPLINE
  5
83
330
1F
100
AcDbEntity
  8
0
  6
Continuous
 62
     7
370
    25
100
AcDbSpline
210
0.0
220
0.0
230
1.0
 70
     8
 71
     3
 72
    19
 73
    15
 74
     0
 42
0.000000001
 43
0.00000001
 40
0.0
 40
0.0
 40
0.0
 40
0.0
 40
0.1285428623689031
 40
0.2501833658111105
 40
0.367642395812562
 40
0.4828550484702377
 40
0.540503364623391
 40
0.5992328796241181
 40
0.6596398306386194
 40
0.7216651114752385
 40
0.7863724582546291
 40
0.8542028512456548
 40
0.9255393771011152
 40
1.0
 40
1.0
 40
1.0
 40
1.0
 10
0.8331484651375098
 20
0.1847194168663697
 30
0.0
 10
0.8330837045359818
 20
0.1829464401392635
 30
0.0
 10
0.8329576607793415
 20
0.1794956901176923
 30
0.0
 10
0.8319432532691774
 20
0.1745045064696097
 30
0.0
 10
0.8302499072184386
 20
0.1699054781384806
 30
0.0
 10
0.8282873072454829
 20
0.1663944725901126
 30
0.0
 10
0.826369691897095
 20
0.1638364756707636
 30
0.0
 10
0.824704228712512
 20
0.1620507736754478
 30
0.0
 10
0.8228238675510644
 20
0.1604027031421647
 30
0.0
 10
0.8207520833925288
 20
0.1588607363019223
 30
0.0
 10
0.8184625200640757
 20
0.1574573855791181
 30
0.0
 10
0.8159567922310512
 20
0.1561800333984038
 30
0.0
 10
0.8132444654408133
 20
0.1550256826398975
 30
0.0
 10
0.8113416181676782
 20
0.1543773505978511
 30
0.0
 10
0.8103698077142529
 20
0.154046238445738
 30
0.0
  0
SPLINE
  5
84
330
1F
100
AcDbEntity
  8
0
  6
Continuous
 62
     7
370
    25
100
AcDbSpline
210
0.0
220
0.0
230
1.0
 70
     8
 71
     3
 72
    23
 73
    19
 74
     0
 42
0.000000001
 43
0.00000001
 40
0.0
 40
0.0
 40
0.0
 40
0.0
 40
0.0867985091117842
 40
0.1680325757699646
 40
0.2438549343749077
 40
0.315143064871266
 40
0.3818274405512956
 40
0.4445164656257138
 40
0.5035922754268297
 40
0.5594986595292184
 40
0.6133316326846666
 40
0.6658467966471326
 40
0.7179152797095459
 40
0.7701264042050444
 40
0.8240197862945507
 40
0.8797950640280652
 40
0.9382240930441982
 40
1.0
 40
1.0
 40
1.0
 40
1.0
 10
0.7868734665639621
 20
0.217795275590551
 30
0.0
 10
0.7887466491785596
 20
0.2177769909197963
 30
0.0
 10
0.7923729292015605
 20
0.2177415937642986
 30
0.0
 10
0.7976197854417678
 20
0.2173097249688528
 30
0.0
 10
0.8025117641640999
 20
0.2167133354966258
 30
0.0
 10
0.8070438777830601
 20
0.215822587622605
 30
0.0
 10
0.8112058388671101
 20
0.2146184418757129
 30
0.0
 10
0.815037777704195
 20
0.2132443193420724
 30
0.0
 10
0.8184871040500523
 20
0.211552210753792
 30
0.0
 10
0.8215716241528792
 20
0.2096046744793009
 30
0.0
 10
0.824322102321606
 20
0.2074226665548656
 30
0.0
 10
0.8266714460721258
 20
0.2049266718571122
 30
0.0
 10
0.8286925031704738
 20
0.2022025411874987
 30
0.0
 10
0.8303253635092929
 20
0.1991942717306625
 30
0.0
 10
0.8316091722839157
 20
0.1959368082843846
 30
0.0
 10
0.8325083321021554
 20
0.1924149067321668
 30
0.0
 10
0.8330403494427221
 20
0.1886465354383224
 30
0.0
 10
0.8331117637738155
 20
0.1860525314272343
 30
0.0
 10
0.8331484651375098
 20
0.1847194168663697
 30
0.0
  0
SPLINE
  5
88
330
1F
100
AcDbEntity
  8
0
  6
Continuous
 62
     7
370
    25
100
AcDbSpline
210
0.0
220
0.0
230
1.0
 70
     8
 71
     3
 72
    23
 73
    19
 74
     0
 42
0.000000001
 43
0.00000001
 40
0.0
 40
0.0
 40
0.0
 40
0.0
 40
0.0633260535318752
 40
0.1236454103603152
 40
0.1812826135194396
 40
0.237976813126856
 40
0.2935407629237196
 40
0.3486816025440877
 40
0.4043209273922858
 40
0.4610035301292959
 40
0.51913477549404
 40
0.5793491400874581
 40
0.6418444293279374
 40
0.7078704626648737
 40
0.7766051911033075
 40
0.8476526632478996
 40
0.9221245276930564
 40
1.0
 40
1.0
 40
1.0
 40
1.0
 10
0.8371425310966563
 20
0.1217192670888965
 30
0.0
 10
0.8370947588209054
 20
0.1200939000226752
 30
0.0
 10
0.8370014824787105
 20
0.1169203376943682
 30
0.0
 10
0.8362704978743154
 20
0.1123140006283364
 30
0.0
 10
0.8350880071772648
 20
0.1079821502244169
 30
0.0
 10
0.8333989457971767
 20
0.1039489491413686
 30
0.0
 10
0.8312481260475515
 20
0.1002221868413713
 30
0.0
 10
0.8287526569242823
 20
0.0967479249737211
 30
0.0
 10
0.8257901761077192
 20
0.0936189842743694
 30
0.0
 10
0.8224319877613516
 20
0.0908047509960598
 30
0.0
 10
0.8186952288247127
 20
0.0882990298817139
 30
0.0
 10
0.8145903970270796
 20
0.0861212968647763
 30
0.0
 10
0.8101232473101602
 20
0.0842365991648226
 30
0.0
 10
0.8052971542589745
 20
0.0826916476198309
 30
0.0
 10
0.8001510979925884
 20
0.0814885458684107
 30
0.0
 10
0.7947209284935199
 20
0.0806044786884948
 30
0.0
 10
0.7890041763860581
 20
0.0801197974990607
 30
0.0
 10
0.7850957159616944
 20
0.0800405228606961
 30
0.0
 10
0.7830978260869564
 20
0.0800000000000002
 30
0.0
  0
SPLINE
  5
89
330
1F
100
AcDbEntity
  8
0
  6
Continuous
 62
     7
370
    25
100
AcDbSpline
210
0.0
220
0.0
230
1.0
 70
     8
 71
     3
 72
    21
 73
    17
 74
     0
 42
0.000000001
 43
0.00000001
 40
0.0
 40
0.0
 40
0.0
 40
0.0
 40
0.1193489637753372
 40
0.2383531199390068
 40
0.2981936897039679
 40
0.3568112946136994
 40
0.4157921536839376
 40
0.4750596628706965
 40
0.535086169602962
 40
0.5959423628256221
 40
0.6578312767354697
 40
0.7218988600038792
 40
0.787837944341735
 40
0.855613988032305
 40
0.926356633928863
 40
1.0
 40
1.0
 40
1.0
 40
1.0
 10
0.8103698077142532
 20
0.154046238445738
 30
0.0
 10
0.8121450787168484
 20
0.1536224958680574
 30
0.0
 10
0.8156904918383426
 20
0.1527762349350235
 30
0.0
 10
0.8198645571278049
 20
0.1508984908231191
 30
0.0
 10
0.8230178425261279
 20
0.1491053419641816
 30
0.0
 10
0.8252167601810461
 20
0.1475162683781128
 30
0.0
 10
0.8272831422840127
 20
0.1457746540911614
 30
0.0
 10
0.8291913630657204
 20
0.1438288461905212
 30
0.0
 10
0.8309432113552229
 20
0.1417054191461082
 30
0.0
 10
0.8325161166942338
 20
0.1393941092239355
 30
0.0
 10
0.8338436661516564
 20
0.1368667441435366
 30
0.0
 10
0.8350530947356218
 20
0.1341949964658594
 30
0.0
 10
0.8359750099898533
 20
0.1313139279806092
 30
0.0
 10
0.8366711305938332
 20
0.1282683558271163
 30
0.0
 10
0.8370802448004389
 20
0.1250484548662632
 30
0.0
 10
0.8371214927734965
 20
0.1228437604778771
 30
0.0
 10
0.8371425310966563
 20
0.1217192670888965
 30
0.0
  0
SPLINE
  5
174
330
1F
100
AcDbEntity
  8
0
  6
Continuous
 62
     7
370
    25
100
AcDbSpline
210
0.0
220
0.0
230
1.0
 70
     8
 71
     3
 72
    23
 73
    19
 74
     0
 42
0.000000001
 43
0.00000001
 40
0.0
 40
0.0
 40
0.0
 40
0.0
 40
0.088318541275654
 40
0.1707628188520273
 40
0.2481129497302159
 40
0.3205380252872239
 40
0.3887318452674173
 40
0.4528948993793664
 40
0.5138277762110266
 40
0.5718103414573776
 40
0.6276941631943722
 40
0.6821529786681608
 40
0.7350705858118188
 40
0.7879872864828262
 40
0.8409148638009981
 40
0.8934284582672499
 40
0.946343345946371
 40
1.0
 40
1.0
 40
1.0
 40
1.0
 10
0.3838160447335388
 20
0.1482111577085474
 30
0.0
 10
0.3838720444864452
 20
0.1511771634559731
 30
0.0
 10
0.3839803193234523
 20
0.1569118992752726
 30
0.0
 10
0.3847505214769304
 20
0.1652172394620344
 30
0.0
 10
0.3860753714772969
 20
0.1729108485566016
 30
0.0
 10
0.3879478086791602
 20
0.179997204735084
 30
0.0
 10
0.3902932025806433
 20
0.1864709934677149
 30
0.0
 10
0.3930122638268064
 20
0.192372501834247
 30
0.0
 10
0.3960785030377381
 20
0.1977151909368963
 30
0.0
 10
0.3996061201066389
 20
0.2024246338483388
 30
0.0
 10
0.4034672957147634
 20
0.2065645898030047
 30
0.0
 10
0.4076043356710597
 20
0.210182670166708
 30
0.0
 10
0.4120993768809884
 20
0.2131683127219779
 30
0.0
 10
0.4168487795503218
 20
0.2156165873150006
 30
0.0
 10
0.4218461744026296
 20
0.2174659800444259
 30
0.0
 10
0.426993997334252
 20
0.2188314414663382
 30
0.0
 10
0.4322928213477459
 20
0.2196156932480036
 30
0.0
 10
0.4358716558357741
 20
0.2197331642529016
 30
0.0
 10
0.4376735279014037
 20
0.2197923085701242
 30
0.0
  0
SPLINE
  5
175
330
1F
100
AcDbEntity
  8
0
  6
Continuous
 62
     7
370
    25
100
AcDbSpline
210
0.0
220
0.0
230
1.0
 70
     8
 71
     3
 72
    23
 73
    19
 74
     0
 42
0.000000001
 43
0.00000001
 40
0.0
 40
0.0
 40
0.0
 40
0.0
 40
0.0643822159306435
 40
0.1249677463958894
 40
0.1827770043240015
 40
0.2383292134073842
 40
0.2928323044691579
 40
0.3464198064162148
 40
0.4005873274742644
 40
0.4559702502306643
 40
0.5129066301956678
 40
0.5725400029265809
 40
0.634890765035487
 40
0.7007484886169256
 40
0.7702344352114286
 40
0.8430783624905461
 40
0.9195964992924064
 40
1.0
 40
1.0
 40
1.0
 40
1.0
 10
0.435582884000913
 20
0.078002967020427
 30
0.0
 10
0.4334575460592348
 20
0.0780609794170923
 30
0.0
 10
0.4293322035393792
 20
0.078173583159749
 30
0.0
 10
0.423356205806913
 20
0.0790987154438369
 30
0.0
 10
0.4177991649713929
 20
0.0805802848769693
 30
0.0
 10
0.4126559241655423
 20
0.0826829539283446
 30
0.0
 10
0.4079666956406625
 20
0.0853877147689202
 30
0.0
 10
0.4036619838987178
 20
0.0885950084519805
 30
0.0
 10
0.3998101855738548
 20
0.092377179466194
 30
0.0
 10
0.3963656702782951
 20
0.0966724083820377
 30
0.0
 10
0.3933553285762078
 20
0.1014966354404957
 30
0.0
 10
0.3907803538907689
 20
0.1068196034871298
 30
0.0
 10
0.3885912310013449
 20
0.1126268269072128
 30
0.0
 10
0.3868278656609356
 20
0.1189146101157191
 30
0.0
 10
0.3854658122683829
 20
0.1256538256611241
 30
0.0
 10
0.3845221612491772
 20
0.1328167688635547
 30
0.0
 10
0.3839074031694538
 20
0.1403786793942876
 30
0.0
 10
0.3838469961031321
 20
0.1455575885147655
 30
0.0
 10
0.3838160447335388
 20
0.1482111577085474
 30
0.0
  0
SPLINE
  5
176
330
1F
100
AcDbEntity
  8
0
  6
Continuous
 62
     7
370
    25
100
AcDbSpline
210
0.0
220
0.0
230
1.0
 70
     8
 71
     3
 72
    23
 73
    19
 74
     0
 42
0.000000001
 43
0.00000001
 40
0.0
 40
0.0
 40
0.0
 40
0.0
 40
0.0889426733846292
 40
0.1717495496105864
 40
0.2491397580278967
 40
0.3216955151105378
 40
0.3897623480778749
 40
0.4537064033341819
 40
0.5145872295454175
 40
0.5726195224083516
 40
0.6283126036455573
 40
0.6821501603003122
 40
0.7354013723096053
 40
0.7884122765523396
 40
0.8411592035098792
 40
0.8937922041332553
 40
0.9465264847635294
 40
1.0
 40
1.0
 40
1.0
 40
1.0
 10
0.4896587926509187
 20
0.1498025433641448
 30
0.0
 10
0.4896070051240316
 20
0.1468049436592415
 30
0.0
 10
0.4895070026833598
 20
0.1410165365916514
 30
0.0
 10
0.4886832689684757
 20
0.1326531472440178
 30
0.0
 10
0.4873770423118389
 20
0.1249116740855331
 30
0.0
 10
0.4854712577555353
 20
0.117804261952603
 30
0.0
 10
0.4830790255427878
 20
0.1113323553274696
 30
0.0
 10
0.4803792216874272
 20
0.1054107495729547
 30
0.0
 10
0.4772557527108492
 20
0.1000866286135149
 30
0.0
 10
0.4737569242260173
 20
0.0953402588673503
 30
0.0
 10
0.4698903767669758
 20
0.0912126706789596
 30
0.0
 10
0.4657577185046152
 20
0.087584237819813
 30
0.0
 10
0.4612220784091847
 20
0.0846362495018893
 30
0.0
 10
0.4564468089315384
 20
0.082184581807904
 30
0.0
 10
0.4514327775758902
 20
0.0803227641094374
 30
0.0
 10
0.4462715477405957
 20
0.078968582735392
 30
0.0
 10
0.4409638062342392
 20
0.0781787504573728
 30
0.0
 10
0.4373848282925908
 20
0.078061832758871
 30
0.0
 10
0.4355828840009131
 20
0.078002967020427
 30
0.0
  0
SPLINE
  5
177
330
1F
100
AcDbEntity
  8
0
  6
Continuous
 62
     7
370
    25
100
AcDbSpline
210
0.0
220
0.0
230
1.0
 70
     8
 71
     3
 72
    23
 73
    19
 74
     0
 42
0.000000001
 43
0.00000001
 40
0.0
 40
0.0
 40
0.0
 40
0.0
 40
0.0644875470664177
 40
0.1254843373721425
 40
0.1831673823408932
 40
0.2389312773785304
 40
0.29352353704691
 40
0.3476407773461528
 40
0.4016769044177249
 40
0.4571504352103986
 40
0.5140819907875332
 40
0.5738104218972505
 40
0.6359679882252665
 40
0.7017169949564623
 40
0.7710712621534346
 40
0.8434520464853931
 40
0.9197806054801803
 40
1.0
 40
1.0
 40
1.0
 40
1.0
 10
0.4376735279014037
 20
0.2197923085701242
 30
0.0
 10
0.4397985102180083
 20
0.219732511565865
 30
0.0
 10
0.4439334480479743
 20
0.2196161544116902
 30
0.0
 10
0.4499171701409513
 20
0.2187131846949998
 30
0.0
 10
0.4554686849701642
 20
0.2171772451248861
 30
0.0
 10
0.4605932012717887
 20
0.2150447814077238
 30
0.0
 10
0.4653058531821124
 20
0.2123425155380519
 30
0.0
 10
0.4696014367470737
 20
0.2091125049990411
 30
0.0
 10
0.4734904529045328
 20
0.2053583777564425
 30
0.0
 10
0.4769107883994859
 20
0.2010556718986144
 30
0.0
 10
0.4799580912634384
 20
0.1962635022978662
 30
0.0
 10
0.4826157055398462
 20
0.1909930527012677
 30
0.0
 10
0.4847783742672387
 20
0.1851928500171004
 30
0.0
 10
0.4865898311892971
 20
0.1789462830555449
 30
0.0
 10
0.4879718579544743
 20
0.1722456786101719
 30
0.0
 10
0.4889648361110165
 20
0.1651272884040018
 30
0.0
 10
0.4895643878834929
 20
0.1576034516950054
 30
0.0
 10
0.4896268072722524
 20
0.1524455773306156
 30
0.0
 10
0.4896587926509187
 20
0.1498025433641448
 30
0.0
  0
SPLINE
  5
17B
330
1F
100
AcDbEntity
  8
0
  6
Continuous
 62
     7
370
    25
100
AcDbSpline
210
0.0
220
0.0
230
1.0
 70
     8
 71
     3
 72
    23
 73
    19
 74
     0
 42
0.000000001
 43
0.00000001
 40
0.0
 40
0.0
 40
0.0
 40
0.0
 40
0.0829188246341175
 40
0.1598938815039344
 40
0.2325564233819781
 40
0.3006958272261079
 40
0.3637556764832313
 40
0.4236747435210422
 40
0.4807003096789247
 40
0.5348597706980014
 40
0.5877167410054586
 40
0.6406978721524962
 40
0.6942911149704595
 40
0.7497520955113267
 40
0.8069461275197136
 40
0.8672827812805202
 40
0.931438314916559
 40
1.0
 40
1.0
 40
1.0
 40
1.0
 10
0.7863742083190687
 20
0.0959762638365855
 30
0.0
 10
0.7876334012036991
 20
0.0959923238167171
 30
0.0
 10
0.7900615258035603
 20
0.0960232925692467
 30
0.0
 10
0.7935826108338014
 20
0.096314035321335
 30
0.0
 10
0.7968620540144276
 20
0.0967583405800273
 30
0.0
 10
0.7998823274292647
 20
0.0974525722809188
 30
0.0
 10
0.8026609274288221
 20
0.0982944351181069
 30
0.0
 10
0.8052062581266687
 20
0.0993070676780621
 30
0.0
 10
0.807481016922406
 20
0.1005712297019805
 30
0.0
 10
0.8095494459063739
 20
0.1019694295303596
 30
0.0
 10
0.8113417914428472
 20
0.1036205808949967
 30
0.0
 10
0.8129195252345246
 20
0.1054655582064116
 30
0.0
 10
0.814231612717855
 20
0.1075553728789624
 30
0.0
 10
0.8153263571402861
 20
0.1098354252887392
 30
0.0
 10
0.8161730104715077
 20
0.1123284888305497
 30
0.0
 10
0.8167596341037631
 20
0.1150289003560221
 30
0.0
 10
0.8170980494537148
 20
0.1179454104622325
 30
0.0
 10
0.8171469429380224
 20
0.119960558396275
 30
0.0
 10
0.8171722013009243
 20
0.1210015833618626
 30
0.0
  0
SPLINE
  5
17C
330
1F
100
AcDbEntity
  8
0
  6
Continuous
 62
     7
370
    25
100
AcDbSpline
210
0.0
220
0.0
230
1.0
 70
     8
 71
     3
 72
    23
 73
    19
 74
     0
 42
0.000000001
 43
0.00000001
 40
0.0
 40
0.0
 40
0.0
 40
0.0
 40
0.0592778177595658
 40
0.1163913973692726
 40
0.1721478876575102
 40
0.2264759683575401
 40
0.2808040490575713
 40
0.3347372846926021
 40
0.3892243701867807
 40
0.446043156535728
 40
0.5044213316927059
 40
0.5647247417857296
 40
0.6287090369173675
 40
0.6959470142967986
 40
0.7662050871176808
 40
0.8405626643936539
 40
0.9179353860272985
 40
1.0
 40
1.0
 40
1.0
 40
1.0
 10
0.8171722013009243
 20
0.1210015833618626
 30
0.0
 10
0.8171514921468792
 20
0.1218665330402826
 30
0.0
 10
0.8171108299317579
 20
0.1235648530110645
 30
0.0
 10
0.8166932379112259
 20
0.1260485334874157
 30
0.0
 10
0.8160087601530299
 20
0.12839403829984
 30
0.0
 10
0.815058249740633
 20
0.1306001526197863
 30
0.0
 10
0.8138842506274232
 20
0.1326677690506338
 30
0.0
 10
0.812422637977248
 20
0.1345448955050235
 30
0.0
 10
0.8107565493703704
 20
0.1362921685113549
 30
0.0
 10
0.8088178421032205
 20
0.1378411826897047
 30
0.0
 10
0.8066496538557448
 20
0.1392065431042446
 30
0.0
 10
0.8042856631682682
 20
0.1404402287989354
 30
0.0
 10
0.8016957429670108
 20
0.141495971315528
 30
0.0
 10
0.798885049821025
 20
0.1423607438269618
 30
0.0
 10
0.7958709563269792
 20
0.1430502539638764
 30
0.0
 10
0.7926687173484152
 20
0.1435336660809059
 30
0.0
 10
0.789272656412183
 20
0.1438651189356563
 30
0.0
 10
0.7869471209547261
 20
0.1438914845816668
 30
0.0
 10
0.7857501355129521
 20
0.1439050553463428
 30
0.0
  0
SPLINE
  5
180
330
1F
100
AcDbEntity
  8
0
  6
Continuous
 62
     7
370
    25
100
AcDbSpline
210
0.0
220
0.0
230
1.0
 70
     8
 71
     3
 72
    21
 73
    17
 74
     0
 42
0.000000001
 43
0.00000001
 40
0.0
 40
0.0
 40
0.0
 40
0.0
 40
0.1481099039642209
 40
0.2834111377086835
 40
0.3473298973787489
 40
0.4080164734869353
 40
0.4665361356180693
 40
0.5238711608478798
 40
0.5798789656630147
 40
0.6357582137558752
 40
0.6911959771072477
 40
0.7476673467919072
 40
0.8060331849590986
 40
0.8668726428551387
 40
0.9310300546049194
 40
1.0
 40
1.0
 40
1.0
 40
1.0
 10
0.7855005063905054
 20
0.1598813191829281
 30
0.0
 10
0.7874915373793346
 20
0.1599453494203406
 30
0.0
 10
0.7913014133069679
 20
0.1600678725058816
 30
0.0
 10
0.7959113219274332
 20
0.1608962900882897
 30
0.0
 10
0.799272346286397
 20
0.1618706749066667
 30
0.0
 10
0.8015196613843988
 20
0.1628809568409846
 30
0.0
 10
0.803645744863892
 20
0.1639415497731025
 30
0.0
 10
0.8055399507201437
 20
0.1652736588409325
 30
0.0
 10
0.8072805714127459
 20
0.1667417069036461
 30
0.0
 10
0.8088080084872872
 20
0.1683992075488142
 30
0.0
 10
0.8101385941721021
 20
0.1702260101137864
 30
0.0
 10
0.8112320710608529
 20
0.1722421511750158
 30
0.0
 10
0.8121147644051565
 20
0.174437646628917
 30
0.0
 10
0.8127310981400652
 20
0.1768285398035226
 30
0.0
 10
0.8131140677769945
 20
0.1794128262433633
 30
0.0
 10
0.8131562709408721
 20
0.1812023877697492
 30
0.0
 10
0.8131781353417779
 20
0.1821295147209862
 30
0.0
  0
SPLINE
  5
181
330
1F
100
AcDbEntity
  8
0
  6
Continuous
 62
     7
370
    25
100
AcDbSpline
210
0.0
220
0.0
230
1.0
 70
     8
 71
     3
 72
    21
 73
    17
 74
     0
 42
0.000000001
 43
0.00000001
 40
0.0
 40
0.0
 40
0.0
 40
0.0
 40
0.1048107603491773
 40
0.2057872535497615
 40
0.2552082568884614
 40
0.3053322017717603
 40
0.3546722312657852
 40
0.4066370344808511
 40
0.4608426921562798
 40
0.5189640449736418
 40
0.5822085159551497
 40
0.651135436516612
 40
0.7259770992546059
 40
0.808650075906858
 40
0.9003756127110933
 40
1.0
 40
1.0
 40
1.0
 40
1.0
 10
0.813178135341778
 20
0.1821295147209862
 30
0.0
 10
0.8131208237026725
 20
0.1834664743803239
 30
0.0
 10
0.8130082970425409
 20
0.1860914840213696
 30
0.0
 10
0.8121989479218832
 20
0.1892665251211486
 30
0.0
 10
0.811251108253782
 20
0.1916431694440182
 30
0.0
 10
0.8102917325263483
 20
0.1932899816641954
 30
0.0
 10
0.8090660486266797
 20
0.1947884508730891
 30
0.0
 10
0.8076258778592615
 20
0.1961545795935493
 30
0.0
 10
0.8059574756067565
 20
0.1974289430657092
 30
0.0
 10
0.8039923276319069
 20
0.1985110522729279
 30
0.0
 10
0.8017653165508087
 20
0.1994756607464094
 30
0.0
 10
0.7992618503199456
 20
0.2003162216723344
 30
0.0
 10
0.7964572364048815
 20
0.2010069680117837
 30
0.0
 10
0.7933167218582688
 20
0.2015025379917951
 30
0.0
 10
0.7898320784991675
 20
0.201767909555418
 30
0.0
 10
0.787393960485423
 20
0.2018015152774027
 30
0.0
 10
0.786124579196622
 20
0.2018190117539658
 30
0.0
  0
SPLINE
  5
182
330
1F
100
AcDbEntity
  8
0
  6
Continuous
 62
     7
370
    25
100
AcDbSpline
210
0.0
220
0.0
230
1.0
 70
     8
 71
     3
 72
    23
 73
    19
 74
     0
 42
0.000000001
 43
0.00000001
 40
0.0
 40
0.0
 40
0.0
 40
0.0
 40
0.0837837865740334
 40
0.1633737810051994
 40
0.2401936209728496
 40
0.313170128187614
 40
0.382531534657428
 40
0.4477136714610438
 40
0.5094692673622438
 40
0.5683725021777571
 40
0.6242112973077654
 40
0.6780250935914051
 40
0.7302423316221457
 40
0.7817115669870767
 40
0.8330937936507302
 40
0.8862171938651231
 40
0.9411759468775154
 40
1.0
 40
1.0
 40
1.0
 40
1.0
 10
0.4037863745292709
 20
0.1493344887595571
 30
0.0
 10
0.4038109101789947
 20
0.1473160926052015
 30
0.0
 10
0.4038587533480458
 20
0.1433803309884585
 30
0.0
 10
0.4042153513068558
 20
0.137603342412934
 30
0.0
 10
0.4047539433554129
 20
0.1321021220837849
 30
0.0
 10
0.4055640675409247
 20
0.1268824692522473
 30
0.0
 10
0.4066082640696009
 20
0.1219904162300117
 30
0.0
 10
0.4079199981179353
 20
0.1174430014290495
 30
0.0
 10
0.409472614367129
 20
0.1132396765486867
 30
0.0
 10
0.4112967488692164
 20
0.1093901316770102
 30
0.0
 10
0.4134381573324317
 20
0.10593304815068
 30
0.0
 10
0.4158249470335614
 20
0.1028334545130376
 30
0.0
 10
0.4185861649210794
 20
0.1002176590633276
 30
0.0
 10
0.4215407965210868
 20
0.0979130680948516
 30
0.0
 10
0.4248832998633202
 20
0.0961565344079404
 30
0.0
 10
0.4285155016731027
 20
0.0948716952250562
 30
0.0
 10
0.4324831577480948
 20
0.0941102810890367
 30
0.0
 10
0.4352258670298901
 20
0.0940238924993336
 30
0.0
 10
0.4366438077713112
 20
0.0939792308570122
 30
0.0
  0
SPLINE
  5
183
330
1F
100
AcDbEntity
  8
0
  6
Continuous
 62
     7
370
    25
100
AcDbSpline
210
0.0
220
0.0
230
1.0
 70
     8
 71
     3
 72
    23
 73
    19
 74
     0
 42
0.000000001
 43
0.00000001
 40
0.0
 40
0.0
 40
0.0
 40
0.0
 40
0.0585566710462215
 40
0.1137809323390995
 40
0.167301753254076
 40
0.2204245097997606
 40
0.273938119609758
 40
0.3279881077179525
 40
0.3836976637416858
 40
0.4414831093918352
 40
0.5021868200553877
 40
0.5649165221081723
 40
0.6310585614994578
 40
0.700003142041531
 40
0.772220171481792
 40
0.8460517053743598
 40
0.9217899981312712
 40
1.0
 40
1.0
 40
1.0
 40
1.0
 10
0.4366438077713112
 20
0.0939792308570122
 30
0.0
 10
0.4380315452397199
 20
0.0940315327897074
 30
0.0
 10
0.440728045231545
 20
0.0941331601971199
 30
0.0
 10
0.444620055224409
 20
0.0949705830323029
 30
0.0
 10
0.4482255249428373
 20
0.0963132466905214
 30
0.0
 10
0.4515231623999243
 20
0.0982175065848575
 30
0.0
 10
0.4545306649200079
 20
0.1005681107637107
 30
0.0
 10
0.4572214466285496
 20
0.1033572781737957
 30
0.0
 10
0.4596710545357152
 20
0.106487570225997
 30
0.0
 10
0.461821579092143
 20
0.1100167680431664
 30
0.0
 10
0.4637114070521018
 20
0.113875018009819
 30
0.0
 10
0.4653370746193524
 20
0.1180640086143654
 30
0.0
 10
0.4667077572032359
 20
0.1225479934565663
 30
0.0
 10
0.4677739809428801
 20
0.1273423523984868
 30
0.0
 10
0.4686593778356472
 20
0.1323582535235601
 30
0.0
 10
0.4692224994632517
 20
0.1375818363513322
 30
0.0
 10
0.469623004546448
 20
0.1429627224780685
 30
0.0
 10
0.4696664111149471
 20
0.146608586716633
 30
0.0
 10
0.4696884628551866
 20
0.1484607868309941
 30
0.0
  0
SPLINE
  5
184
330
1F
100
AcDbEntity
  8
0
  6
Continuous
 62
     7
370
    25
100
AcDbSpline
210
0.0
220
0.0
230
1.0
 70
     8
 71
     3
 72
    23
 73
    19
 74
     0
 42
0.000000001
 43
0.00000001
 40
0.0
 40
0.0
 40
0.0
 40
0.0
 40
0.0586315032822179
 40
0.1142681412147299
 40
0.1680141608110735
 40
0.2208233746572738
 40
0.2740594618699012
 40
0.3278720288932259
 40
0.3836527786950408
 40
0.4412825860505792
 40
0.5016807332274332
 40
0.5644906004225347
 40
0.6310115398627069
 40
0.7005718525414805
 40
0.7728075618617453
 40
0.8467334484329999
 40
0.922129770867809
 40
1.0
 40
1.0
 40
1.0
 40
1.0
 10
0.4366438077713112
 20
0.203816044733539
 30
0.0
 10
0.435257304502036
 20
0.2037583366669121
 30
0.0
 10
0.432555119797584
 20
0.2036458682303655
 30
0.0
 10
0.4286346030519366
 20
0.202878967591235
 30
0.0
 10
0.425044729533354
 20
0.2014782961290112
 30
0.0
 10
0.4217629924283878
 20
0.199579387091033
 30
0.0
 10
0.4187857607798309
 20
0.1972267222843566
 30
0.0
 10
0.416129808089831
 20
0.1944272466523616
 30
0.0
 10
0.4136775600768993
 20
0.1913159435753431
 30
0.0
 10
0.4115523292457277
 20
0.187784602724801
 30
0.0
 10
0.4097493218066579
 20
0.1839030568025529
 30
0.0
 10
0.4080839333232919
 20
0.1797313661717047
 30
0.0
 10
0.4067917963039744
 20
0.1752035476696978
 30
0.0
 10
0.4056484784085007
 20
0.1704097294639148
 30
0.0
 10
0.4048301569705638
 20
0.1653700085211746
 30
0.0
 10
0.404249938997525
 20
0.1601621018925094
 30
0.0
 10
0.4038526344755128
 20
0.1548012029588204
 30
0.0
 10
0.403808697576172
 20
0.1511762306320932
 30
0.0
 10
0.4037863745292709
 20
0.1493344887595571
 30
0.0
  0
SPLINE
  5
185
330
1F
100
AcDbEntity
  8
0
  6
Continuous
 62
     7
370
    25
100
AcDbSpline
210
0.0
220
0.0
230
1.0
 70
     8
 71
     3
 72
    23
 73
    19
 74
     0
 42
0.000000001
 43
0.00000001
 40
0.0
 40
0.0
 40
0.0
 40
0.0
 40
0.0827295999635543
 40
0.162111909596608
 40
0.237943161596219
 40
0.3106867198481634
 40
0.3797986252255637
 40
0.445244664760661
 40
0.5072619480488617
 40
0.5662172357349563
 40
0.6225206623707632
 40
0.6762106296450343
 40
0.7289168486551368
 40
0.7803543119827246
 40
0.8322014416117157
 40
0.8852026014625379
 40
0.9408812529247712
 40
1.0
 40
1.0
 40
1.0
 40
1.0
 10
0.4696884628551866
 20
0.1484607868309941
 30
0.0
 10
0.469658261552172
 20
0.1504579891060281
 30
0.0
 10
0.4695990809093772
 20
0.1543715856276985
 30
0.0
 10
0.4693194081210877
 20
0.160112986737849
 30
0.0
 10
0.4686942447527483
 20
0.1655835851626066
 30
0.0
 10
0.4679451951272894
 20
0.1707869444469651
 30
0.0
 10
0.4669315278144604
 20
0.1756934339119642
 30
0.0
 10
0.4656121801364485
 20
0.1802561895915704
 30
0.0
 10
0.4640792428332182
 20
0.1844940375902801
 30
0.0
 10
0.4621984623101648
 20
0.1883486817682986
 30
0.0
 10
0.4600455096478798
 20
0.1918200059858272
 30
0.0
 10
0.4576375473524044
 20
0.1949379307455093
 30
0.0
 10
0.4548778425223949
 20
0.1975840629082641
 30
0.0
 10
0.4518501691930896
 20
0.1998412783293563
 30
0.0
 10
0.4485157297271677
 20
0.2016404401059013
 30
0.0
 10
0.4448456093421282
 20
0.202931327523525
 30
0.0
 10
0.4408452815553339
 20
0.2036817026042687
 30
0.0
 10
0.4380720010256281
 20
0.2037703782525234
 30
0.0
 10
0.4366438077713112
 20
0.203816044733539
 30
0.0
  0
LINE
  5
186
330
1F
100
AcDbEntity
  8
0
  6
Continuous
 62
     7
370
    25
100
AcDbLine
 10
0.3638457149
 20
0.2138012096
 30
0.0
 11
0.3638457149
 21
0.1958279128
 31
0.0
  0
LINE
  5
187
330
1F
100
AcDbEntity
  8
0
  6
Continuous
 62
     7
370
    25
100
AcDbLine
 10
0.3638457149
 20
0.1019673628
 30
0.0
 11
0.3638457149
 21
0.083994066
 31
0.0
  0
LINE
  5
188
330
1F
100
AcDbEntity
  8
0
  6
Continuous
 62
     7
370
    25
100
AcDbLine
 10
0.5395846171
 20
0.0959762638
 30
0.0
 11
0.5994956065
 21
0.0959762638
 31
0.0
  0
LINE
  5
189
330
1F
100
AcDbEntity
  8
0
  6
Continuous
 62
     7
370
    25
100
AcDbLine
 10
0.5395846171
 20
0.2177952756
 30
0.0
 11
0.5395846171
 21
0.0959762638
 31
0.0
  0
LINE
  5
18A
330
1F
100
AcDbEntity
  8
0
  6
Continuous
 62
     7
370
    25
100
AcDbLine
 10
0.5196142873
 20
0.2177952756
 30
0.0
 11
0.5395846171
 21
0.2177952756
 31
0.0
  0
LINE
  5
18B
330
1F
100
AcDbEntity
  8
0
  6
Continuous
 62
     7
370
    25
100
AcDbLine
 10
0.5196142873
 20
0.08
 30
0.0
 11
0.5196142873
 21
0.2177952756
 31
0.0
  0
LINE
  5
18C
330
1F
100
AcDbEntity
  8
0
  6
Continuous
 62
     7
370
    25
100
AcDbLine
 10
0.5994956065
 20
0.08
 30
0.0
 11
0.5196142873
 21
0.08
 31
0.0
  0
LINE
  5
18D
330
1F
100
AcDbEntity
  8
0
  6
Continuous
 62
     7
370
    25
100
AcDbLine
 10
0.5994956065
 20
0.0959762638
 30
0.0
 11
0.5994956065
 21
0.08
 31
0.0
  0
LINE
  5
18E
330
1F
100
AcDbEntity
  8
0
  6
Continuous
 62
     7
370
    25
100
AcDbLine
 10
0.747276047
 20
0.2177952756
 30
0.0
 11
0.7868734666
 21
0.2177952756
 31
0.0
  0
LINE
  5
18F
330
1F
100
AcDbEntity
  8
0
  6
Continuous
 62
     7
370
    25
100
AcDbLine
 10
0.747276047
 20
0.08
 30
0.0
 11
0.747276047
 21
0.2177952756
 31
0.0
  0
LINE
  5
190
330
1F
100
AcDbEntity
  8
0
  6
Continuous
 62
     7
370
    25
100
AcDbLine
 10
0.7830978261
 20
0.08
 30
0.0
 11
0.747276047
 21
0.08
 31
0.0
  0
LINE
  5
191
330
1F
100
AcDbEntity
  8
0
  6
Continuous
 62
     7
370
    25
100
AcDbLine
 10
0.9769348397
 20
0.2177952756
 30
0.0
 11
1.0767864886
 21
0.2177952756
 31
0.0
  0
LINE
  5
192
330
1F
100
AcDbEntity
  8
0
  6
Continuous
 62
     7
370
    25
100
AcDbLine
 10
0.9769348397
 20
0.2018190118
 30
0.0
 11
0.9769348397
 21
0.2177952756
 31
0.0
  0
LINE
  5
193
330
1F
100
AcDbEntity
  8
0
  6
Continuous
 62
     7
370
    25
100
AcDbLine
 10
1.0168754993
 20
0.2018190118
 30
0.0
 11
0.9769348397
 21
0.2018190118
 31
0.0
  0
LINE
  5
194
330
1F
100
AcDbEntity
  8
0
  6
Continuous
 62
     7
370
    25
100
AcDbLine
 10
1.0168754993
 20
0.08
 30
0.0
 11
1.0168754993
 21
0.2018190118
 31
0.0
  0
LINE
  5
195
330
1F
100
AcDbEntity
  8
0
  6
Continuous
 62
     7
370
    25
100
AcDbLine
 10
1.0368458291
 20
0.08
 30
0.0
 11
1.0168754993
 21
0.08
 31
0.0
  0
LINE
  5
196
330
1F
100
AcDbEntity
  8
0
  6
Continuous
 62
     7
370
    25
100
AcDbLine
 10
1.0368458291
 20
0.2018190118
 30
0.0
 11
1.0368458291
 21
0.08
 31
0.0
  0
LINE
  5
197
330
1F
100
AcDbEntity
  8
0
  6
Continuous
 62
     7
370
    25
100
AcDbLine
 10
1.0767864886
 20
0.2018190118
 30
0.0
 11
1.0368458291
 21
0.2018190118
 31
0.0
  0
LINE
  5
198
330
1F
100
AcDbEntity
  8
0
  6
Continuous
 62
     7
370
    25
100
AcDbLine
 10
1.0767864886
 20
0.2177952756
 30
0.0
 11
1.0767864886
 21
0.2018190118
 31
0.0
  0
LINE
  5
199
330
1F
100
AcDbEntity
  8
0
  6
Continuous
 62
     7
370
    25
100
AcDbLine
 10
0.25
 20
5.5560081738
 30
0.0
 11
0.25
 21
5.8613208262
 31
0.0
  0
LINE
  5
19A
330
1F
100
AcDbEntity
  8
0
  6
Continuous
 62
     7
370
    25
100
AcDbLine
 10
0.2063174049
 20
5.906015
 30
0.0
 11
0.0005115787
 21
5.906015
 31
0.0
  0
LINE
  5
19B
330
1F
100
AcDbEntity
  8
0
  6
Continuous
 62
     7
370
    25
100
AcDbLine
 10
0.0005115787
 20
5.906015
 30
0.0
 11
0.0005115787
 21
5.905515
 31
0.0
  0
LINE
  5
19C
330
1F
100
AcDbEntity
  8
0
  6
Continuous
 62
     7
370
    25
100
AcDbLine
 10
0.0005115787
 20
5.905515
 30
0.0
 11
0.0
 21
5.905515
 31
0.0
  0
LINE
  5
19D
330
1F
100
AcDbEntity
  8
0
  6
Continuous
 62
     7
370
    25
100
AcDbLine
 10
0.0
 20
6.299216
 30
0.0
 11
0.0
 21
5.905515
 31
0.0
  0
LINE
  5
19E
330
1F
100
AcDbEntity
  8
0
  6
Continuous
 62
     7
370
    25
100
AcDbLine
 10
0.0
 20
6.299216
 30
0.0
 11
0.0005115787
 21
6.299216
 31
0.0
  0
LINE
  5
19F
330
1F
100
AcDbEntity
  8
0
  6
Continuous
 62
     7
370
    25
100
AcDbLine
 10
0.0005115787
 20
6.299216
 30
0.0
 11
0.0005115787
 21
6.298716
 31
0.0
  0
LINE
  5
1A0
330
1F
100
AcDbEntity
  8
0
  6
Continuous
 62
     7
370
    25
100
AcDbLine
 10
0.0005115787
 20
6.298716
 30
0.0
 11
0.2063174049
 21
6.298716
 31
0.0
  0
LINE
  5
1A1
330
1F
100
AcDbEntity
  8
0
  6
Continuous
 62
     7
370
    25
100
AcDbLine
 10
0.25
 20
6.3434101738
 30
0.0
 11
0.25
 21
6.6487228262
 31
0.0
  0
LINE
  5
1A2
330
1F
100
AcDbEntity
  8
0
  6
Continuous
 62
     7
370
    25
100
AcDbLine
 10
0.2063174049
 20
6.693417
 30
0.0
 11
0.0005115787
 21
6.693417
 31
0.0
  0
LINE
  5
1A3
330
1F
100
AcDbEntity
  8
0
  6
Continuous
 62
     7
370
    25
100
AcDbLine
 10
0.0005115787
 20
6.693417
 30
0.0
 11
0.0005115787
 21
6.692917
 31
0.0
  0
LINE
  5
1A4
330
1F
100
AcDbEntity
  8
0
  6
Continuous
 62
     7
370
    25
100
AcDbLine
 10
0.0005115787
 20
6.692917
 30
0.0
 11
0.0
 21
6.692917
 31
0.0
  0
LINE
  5
1A5
330
1F
100
AcDbEntity
  8
0
  6
Continuous
 62
     7
370
    25
100
AcDbLine
 10
0.0
 20
7.086618
 30
0.0
 11
0.0
 21
6.692917
 31
0.0
  0
LINE
  5
1A6
330
1F
100
AcDbEntity
  8
0
  6
Continuous
 62
     7
370
    25
100
AcDbLine
 10
0.0
 20
7.086618
 30
0.0
 11
0.0005115787
 21
7.086618
 31
0.0
  0
LINE
  5
1A7
330
1F
100
AcDbEntity
  8
0
  6
Continuous
 62
     7
370
    25
100
AcDbLine
 10
0.0005115787
 20
7.086618
 30
0.0
 11
0.0005115787
 21
7.086118
 31
0.0
  0
LINE
  5
1A8
330
1F
100
AcDbEntity
  8
0
  6
Continuous
 62
     7
370
    25
100
AcDbLine
 10
0.0005115787
 20
7.086118
 30
0.0
 11
0.2063174049
 21
7.086118
 31
0.0
  0
LINE
  5
1A9
330
1F
100
AcDbEntity
  8
0
  6
Continuous
 62
     7
370
    25
100
AcDbLine
 10
0.25
 20
7.1308121738
 30
0.0
 11
0.25
 21
7.4361248262
 31
0.0
  0
LINE
  5
1AA
330
1F
100
AcDbEntity
  8
0
  6
Continuous
 62
     7
370
    25
100
AcDbLine
 10
0.2063174049
 20
7.480819
 30
0.0
 11
0.0005115787
 21
7.480819
 31
0.0
  0
LINE
  5
1AB
330
1F
100
AcDbEntity
  8
0
  6
Continuous
 62
     7
370
    25
100
AcDbLine
 10
0.0005115787
 20
7.480819
 30
0.0
 11
0.0005115787
 21
7.480319
 31
0.0
  0
LINE
  5
1AC
330
1F
100
AcDbEntity
  8
0
  6
Continuous
 62
     7
370
    25
100
AcDbLine
 10
0.0005115787
 20
7.480319
 30
0.0
 11
0.0
 21
7.480319
 31
0.0
  0
LINE
  5
1AD
330
1F
100
AcDbEntity
  8
0
  6
Continuous
 62
     7
370
    25
100
AcDbLine
 10
0.0
 20
7.87402
 30
0.0
 11
0.0
 21
7.480319
 31
0.0
  0
LINE
  5
1AE
330
1F
100
AcDbEntity
  8
0
  6
Continuous
 62
     7
370
    25
100
AcDbLine
 10
0.7432072962
 20
7.87402
 30
0.0
 11
0.0
 21
7.87402
 31
0.0
  0
LINE
  5
1AF
330
1F
100
AcDbEntity
  8
0
  6
Continuous
 62
     7
370
    25
100
AcDbLine
 10
0.78740147
 20
8.06152
 30
0.0
 11
0.78740147
 21
7.9182141738
 31
0.0
  0
LINE
  5
1B0
330
1F
100
AcDbEntity
  8
0
  6
Continuous
 62
     7
370
    25
100
AcDbLine
 10
0.84990147
 20
8.12402
 30
0.0
 11
0.78740147
 21
8.06152
 31
0.0
  0
LINE
  5
1B1
330
1F
100
AcDbEntity
  8
0
  6
Continuous
 62
     7
370
    25
100
AcDbLine
 10
1.11860247
 20
8.12402
 30
0.0
 11
0.84990147
 21
8.12402
 31
0.0
  0
LINE
  5
1B2
330
1F
100
AcDbEntity
  8
0
  6
Continuous
 62
     7
370
    25
100
AcDbLine
 10
1.18110247
 20
8.06152
 30
0.0
 11
1.11860247
 21
8.12402
 31
0.0
  0
LINE
  5
1B3
330
1F
100
AcDbEntity
  8
0
  6
Continuous
 62
     7
370
    25
100
AcDbLine
 10
1.18110247
 20
7.9182141738
 30
0.0
 11
1.18110247
 21
8.06152
 31
0.0
  0
LINE
  5
1B4
330
1F
100
AcDbEntity
  8
0
  6
Continuous
 62
     7
370
    25
100
AcDbLine
 10
1.71850394
 20
7.87402
 30
0.0
 11
1.2252966438
 21
7.87402
 31
0.0
  0
LINE
  5
1B5
330
1F
100
AcDbEntity
  8
0
  6
Continuous
 62
     7
370
    25
100
AcDbLine
 10
1.71850394
 20
7.87402
 30
0.0
 11
1.71850394
 21
7.5245131738
 31
0.0
  0
LINE
  5
1B6
330
1F
100
AcDbEntity
  8
0
  6
Continuous
 62
     7
370
    25
100
AcDbLine
 10
1.7621865351
 20
7.479819
 30
0.0
 11
1.9679923613
 21
7.479819
 31
0.0
  0
LINE
  5
1B7
330
1F
100
AcDbEntity
  8
0
  6
Continuous
 62
     7
370
    25
100
AcDbLine
 10
1.9679923613
 20
7.479819
 30
0.0
 11
1.9679923613
 21
7.480319
 31
0.0
  0
LINE
  5
1B8
330
1F
100
AcDbEntity
  8
0
  6
Continuous
 62
     7
370
    25
100
AcDbLine
 10
1.9679923613
 20
7.480319
 30
0.0
 11
1.96850394
 21
7.480319
 31
0.0
  0
LINE
  5
1B9
330
1F
100
AcDbEntity
  8
0
  6
Continuous
 62
     7
370
    25
100
AcDbLine
 10
1.96850394
 20
7.086618
 30
0.0
 11
1.96850394
 21
7.480319
 31
0.0
  0
LINE
  5
1BA
330
1F
100
AcDbEntity
  8
0
  6
Continuous
 62
     7
370
    25
100
AcDbLine
 10
1.96850394
 20
7.086618
 30
0.0
 11
1.9679923613
 21
7.086618
 31
0.0
  0
LINE
  5
1BB
330
1F
100
AcDbEntity
  8
0
  6
Continuous
 62
     7
370
    25
100
AcDbLine
 10
1.9679923613
 20
7.086618
 30
0.0
 11
1.9679923613
 21
7.087118
 31
0.0
  0
LINE
  5
1BC
330
1F
100
AcDbEntity
  8
0
  6
Continuous
 62
     7
370
    25
100
AcDbLine
 10
1.9679923613
 20
7.087118
 30
0.0
 11
1.7621865351
 21
7.087118
 31
0.0
  0
LINE
  5
1BD
330
1F
100
AcDbEntity
  8
0
  6
Continuous
 62
     7
370
    25
100
AcDbLine
 10
1.71850394
 20
7.0424238262
 30
0.0
 11
1.71850394
 21
6.7371111738
 31
0.0
  0
LINE
  5
1BE
330
1F
100
AcDbEntity
  8
0
  6
Continuous
 62
     7
370
    25
100
AcDbLine
 10
1.7621865351
 20
6.692417
 30
0.0
 11
1.9679923613
 21
6.692417
 31
0.0
  0
LINE
  5
1BF
330
1F
100
AcDbEntity
  8
0
  6
Continuous
 62
     7
370
    25
100
AcDbLine
 10
1.9679923613
 20
6.692417
 30
0.0
 11
1.9679923613
 21
6.692917
 31
0.0
  0
LINE
  5
1C0
330
1F
100
AcDbEntity
  8
0
  6
Continuous
 62
     7
370
    25
100
AcDbLine
 10
1.9679923613
 20
6.692917
 30
0.0
 11
1.96850394
 21
6.692917
 31
0.0
  0
LINE
  5
1C1
330
1F
100
AcDbEntity
  8
0
  6
Continuous
 62
     7
370
    25
100
AcDbLine
 10
1.96850394
 20
6.299216
 30
0.0
 11
1.96850394
 21
6.692917
 31
0.0
  0
LINE
  5
1C2
330
1F
100
AcDbEntity
  8
0
  6
Continuous
 62
     7
370
    25
100
AcDbLine
 10
1.96850394
 20
6.299216
 30
0.0
 11
1.9679923613
 21
6.299216
 31
0.0
  0
LINE
  5
1C3
330
1F
100
AcDbEntity
  8
0
  6
Continuous
 62
     7
370
    25
100
AcDbLine
 10
1.9679923613
 20
6.299216
 30
0.0
 11
1.9679923613
 21
6.299716
 31
0.0
  0
LINE
  5
1C4
330
1F
100
AcDbEntity
  8
0
  6
Continuous
 62
     7
370
    25
100
AcDbLine
 10
1.9679923613
 20
6.299716
 30
0.0
 11
1.7621865351
 21
6.299716
 31
0.0
  0
LINE
  5
1C5
330
1F
100
AcDbEntity
  8
0
  6
Continuous
 62
     7
370
    25
100
AcDbLine
 10
1.71850394
 20
6.2550218262
 30
0.0
 11
1.71850394
 21
5.9497091738
 31
0.0
  0
LINE
  5
1C6
330
1F
100
AcDbEntity
  8
0
  6
Continuous
 62
     7
370
    25
100
AcDbLine
 10
1.7621865351
 20
5.905015
 30
0.0
 11
1.9679923613
 21
5.905015
 31
0.0
  0
LINE
  5
1C7
330
1F
100
AcDbEntity
  8
0
  6
Continuous
 62
     7
370
    25
100
AcDbLine
 10
1.9679923613
 20
5.905015
 30
0.0
 11
1.9679923613
 21
5.905515
 31
0.0
  0
LINE
  5
1C8
330
1F
100
AcDbEntity
  8
0
  6
Continuous
 62
     7
370
    25
100
AcDbLine
 10
1.9679923613
 20
5.905515
 30
0.0
 11
1.96850394
 21
5.905515
 31
0.0
  0
LINE
  5
1C9
330
1F
100
AcDbEntity
  8
0
  6
Continuous
 62
     7
370
    25
100
AcDbLine
 10
1.96850394
 20
5.511814
 30
0.0
 11
1.96850394
 21
5.905515
 31
0.0
  0
LINE
  5
1CA
330
1F
100
AcDbEntity
  8
0
  6
Continuous
 62
     7
370
    25
100
AcDbLine
 10
1.96850394
 20
5.511814
 30
0.0
 11
1.9679923613
 21
5.511814
 31
0.0
  0
LINE
  5
1CB
330
1F
100
AcDbEntity
  8
0
  6
Continuous
 62
     7
370
    25
100
AcDbLine
 10
1.9679923613
 20
5.511814
 30
0.0
 11
1.9679923613
 21
5.512314
 31
0.0
  0
LINE
  5
1CC
330
1F
100
AcDbEntity
  8
0
  6
Continuous
 62
     7
370
    25
100
AcDbLine
 10
1.9679923613
 20
5.512314
 30
0.0
 11
1.7621865351
 21
5.512314
 31
0.0
  0
LINE
  5
1CD
330
1F
100
AcDbEntity
  8
0
  6
Continuous
 62
     7
370
    25
100
AcDbLine
 10
1.71850394
 20
5.4676198262
 30
0.0
 11
1.71850394
 21
5.1623071738
 31
0.0
  0
LINE
  5
1CE
330
1F
100
AcDbEntity
  8
0
  6
Continuous
 62
     7
370
    25
100
AcDbLine
 10
1.7621865351
 20
5.117613
 30
0.0
 11
1.9679923613
 21
5.117613
 31
0.0
  0
LINE
  5
1CF
330
1F
100
AcDbEntity
  8
0
  6
Continuous
 62
     7
370
    25
100
AcDbLine
 10
1.9679923613
 20
5.117613
 30
0.0
 11
1.9679923613
 21
5.118113
 31
0.0
  0
LINE
  5
1D0
330
1F
100
AcDbEntity
  8
0
  6
Continuous
 62
     7
370
    25
100
AcDbLine
 10
1.9679923613
 20
5.118113
 30
0.0
 11
1.96850394
 21
5.118113
 31
0.0
  0
LINE
  5
1D1
330
1F
100
AcDbEntity
  8
0
  6
Continuous
 62
     7
370
    25
100
AcDbLine
 10
1.96850394
 20
4.724412
 30
0.0
 11
1.96850394
 21
5.118113
 31
0.0
  0
LINE
  5
1D2
330
1F
100
AcDbEntity
  8
0
  6
Continuous
 62
     7
370
    25
100
AcDbLine
 10
1.96850394
 20
4.724412
 30
0.0
 11
1.9679923613
 21
4.724412
 31
0.0
  0
LINE
  5
1D3
330
1F
100
AcDbEntity
  8
0
  6
Continuous
 62
     7
370
    25
100
AcDbLine
 10
1.9679923613
 20
4.724412
 30
0.0
 11
1.9679923613
 21
4.724912
 31
0.0
  0
LINE
  5
1D4
330
1F
100
AcDbEntity
  8
0
  6
Continuous
 62
     7
370
    25
100
AcDbLine
 10
1.9679923613
 20
4.724912
 30
0.0
 11
1.7621865351
 21
4.724912
 31
0.0
  0
LINE
  5
1D5
330
1F
100
AcDbEntity
  8
0
  6
Continuous
 62
     7
370
    25
100
AcDbLine
 10
1.71850394
 20
4.6802178262
 30
0.0
 11
1.71850394
 21
4.3749051738
 31
0.0
  0
LINE
  5
1D6
330
1F
100
AcDbEntity
  8
0
  6
Continuous
 62
     7
370
    25
100
AcDbLine
 10
1.7621865351
 20
4.330211
 30
0.0
 11
1.9679923613
 21
4.330211
 31
0.0
  0
LINE
  5
1D7
330
1F
100
AcDbEntity
  8
0
  6
Continuous
 62
     7
370
    25
100
AcDbLine
 10
1.9679923613
 20
4.330211
 30
0.0
 11
1.9679923613
 21
4.330711
 31
0.0
  0
LINE
  5
1D8
330
1F
100
AcDbEntity
  8
0
  6
Continuous
 62
     7
370
    25
100
AcDbLine
 10
1.9679923613
 20
4.330711
 30
0.0
 11
1.96850394
 21
4.330711
 31
0.0
  0
LINE
  5
1D9
330
1F
100
AcDbEntity
  8
0
  6
Continuous
 62
     7
370
    25
100
AcDbLine
 10
1.96850394
 20
3.93701
 30
0.0
 11
1.96850394
 21
4.330711
 31
0.0
  0
LINE
  5
1DA
330
1F
100
AcDbEntity
  8
0
  6
Continuous
 62
     7
370
    25
100
AcDbLine
 10
1.96850394
 20
3.93701
 30
0.0
 11
1.9679923613
 21
3.93701
 31
0.0
  0
LINE
  5
1DB
330
1F
100
AcDbEntity
  8
0
  6
Continuous
 62
     7
370
    25
100
AcDbLine
 10
1.9679923613
 20
3.93701
 30
0.0
 11
1.9679923613
 21
3.93751
 31
0.0
  0
LINE
  5
1DC
330
1F
100
AcDbEntity
  8
0
  6
Continuous
 62
     7
370
    25
100
AcDbLine
 10
1.9679923613
 20
3.93751
 30
0.0
 11
1.7621865351
 21
3.93751
 31
0.0
  0
LINE
  5
1DD
330
1F
100
AcDbEntity
  8
0
  6
Continuous
 62
     7
370
    25
100
AcDbLine
 10
1.71850394
 20
3.8928158262
 30
0.0
 11
1.71850394
 21
3.5875031738
 31
0.0
  0
LINE
  5
1DE
330
1F
100
AcDbEntity
  8
0
  6
Continuous
 62
     7
370
    25
100
AcDbLine
 10
1.7621865351
 20
3.542809
 30
0.0
 11
1.9679923613
 21
3.542809
 31
0.0
  0
LINE
  5
1DF
330
1F
100
AcDbEntity
  8
0
  6
Continuous
 62
     7
370
    25
100
AcDbLine
 10
1.9679923613
 20
3.542809
 30
0.0
 11
1.9679923613
 21
3.543309
 31
0.0
  0
LINE
  5
1E0
330
1F
100
AcDbEntity
  8
0
  6
Continuous
 62
     7
370
    25
100
AcDbLine
 10
1.9679923613
 20
3.543309
 30
0.0
 11
1.96850394
 21
3.543309
 31
0.0
  0
LINE
  5
1E1
330
1F
100
AcDbEntity
  8
0
  6
Continuous
 62
     7
370
    25
100
AcDbLine
 10
1.96850394
 20
3.149608
 30
0.0
 11
1.96850394
 21
3.543309
 31
0.0
  0
LINE
  5
1E2
330
1F
100
AcDbEntity
  8
0
  6
Continuous
 62
     7
370
    25
100
AcDbLine
 10
1.96850394
 20
3.149608
 30
0.0
 11
1.9679923613
 21
3.149608
 31
0.0
  0
LINE
  5
1E3
330
1F
100
AcDbEntity
  8
0
  6
Continuous
 62
     7
370
    25
100
AcDbLine
 10
1.9679923613
 20
3.149608
 30
0.0
 11
1.9679923613
 21
3.150108
 31
0.0
  0
LINE
  5
1E4
330
1F
100
AcDbEntity
  8
0
  6
Continuous
 62
     7
370
    25
100
AcDbLine
 10
1.9679923613
 20
3.150108
 30
0.0
 11
1.7621865351
 21
3.150108
 31
0.0
  0
LINE
  5
1E5
330
1F
100
AcDbEntity
  8
0
  6
Continuous
 62
     7
370
    25
100
AcDbLine
 10
1.71850394
 20
3.1054138262
 30
0.0
 11
1.71850394
 21
2.8001011738
 31
0.0
  0
LINE
  5
1E6
330
1F
100
AcDbEntity
  8
0
  6
Continuous
 62
     7
370
    25
100
AcDbLine
 10
1.7621865351
 20
2.755407
 30
0.0
 11
1.9679923613
 21
2.755407
 31
0.0
  0
LINE
  5
1E7
330
1F
100
AcDbEntity
  8
0
  6
Continuous
 62
     7
370
    25
100
AcDbLine
 10
1.9679923613
 20
2.755407
 30
0.0
 11
1.9679923613
 21
2.755907
 31
0.0
  0
LINE
  5
1E8
330
1F
100
AcDbEntity
  8
0
  6
Continuous
 62
     7
370
    25
100
AcDbLine
 10
1.9679923613
 20
2.755907
 30
0.0
 11
1.96850394
 21
2.755907
 31
0.0
  0
LINE
  5
1E9
330
1F
100
AcDbEntity
  8
0
  6
Continuous
 62
     7
370
    25
100
AcDbLine
 10
1.96850394
 20
2.362206
 30
0.0
 11
1.96850394
 21
2.755907
 31
0.0
  0
LINE
  5
1EA
330
1F
100
AcDbEntity
  8
0
  6
Continuous
 62
     7
370
    25
100
AcDbLine
 10
1.96850394
 20
2.362206
 30
0.0
 11
1.9679923613
 21
2.362206
 31
0.0
  0
LINE
  5
1EB
330
1F
100
AcDbEntity
  8
0
  6
Continuous
 62
     7
370
    25
100
AcDbLine
 10
1.9679923613
 20
2.362206
 30
0.0
 11
1.9679923613
 21
2.362706
 31
0.0
  0
LINE
  5
1EC
330
1F
100
AcDbEntity
  8
0
  6
Continuous
 62
     7
370
    25
100
AcDbLine
 10
1.9679923613
 20
2.362706
 30
0.0
 11
1.7621865351
 21
2.362706
 31
0.0
  0
LINE
  5
1ED
330
1F
100
AcDbEntity
  8
0
  6
Continuous
 62
     7
370
    25
100
AcDbLine
 10
1.71850394
 20
2.3180118262
 30
0.0
 11
1.71850394
 21
2.0126991738
 31
0.0
  0
LINE
  5
1EE
330
1F
100
AcDbEntity
  8
0
  6
Continuous
 62
     7
370
    25
100
AcDbLine
 10
1.7621865351
 20
1.968005
 30
0.0
 11
1.9679923613
 21
1.968005
 31
0.0
  0
LINE
  5
1EF
330
1F
100
AcDbEntity
  8
0
  6
Continuous
 62
     7
370
    25
100
AcDbLine
 10
1.9679923613
 20
1.968005
 30
0.0
 11
1.9679923613
 21
1.968505
 31
0.0
  0
LINE
  5
1F0
330
1F
100
AcDbEntity
  8
0
  6
Continuous
 62
     7
370
    25
100
AcDbLine
 10
1.9679923613
 20
1.968505
 30
0.0
 11
1.96850394
 21
1.968505
 31
0.0
  0
LINE
  5
1F1
330
1F
100
AcDbEntity
  8
0
  6
Continuous
 62
     7
370
    25
100
AcDbLine
 10
1.96850394
 20
1.574804
 30
0.0
 11
1.96850394
 21
1.968505
 31
0.0
  0
LINE
  5
1F2
330
1F
100
AcDbEntity
  8
0
  6
Continuous
 62
     7
370
    25
100
AcDbLine
 10
1.96850394
 20
1.574804
 30
0.0
 11
1.9679923613
 21
1.574804
 31
0.0
  0
LINE
  5
1F3
330
1F
100
AcDbEntity
  8
0
  6
Continuous
 62
     7
370
    25
100
AcDbLine
 10
1.9679923613
 20
1.574804
 30
0.0
 11
1.9679923613
 21
1.575304
 31
0.0
  0
LINE
  5
1F4
330
1F
100
AcDbEntity
  8
0
  6
Continuous
 62
     7
370
    25
100
AcDbLine
 10
1.9679923613
 20
1.575304
 30
0.0
 11
1.7621865351
 21
1.575304
 31
0.0
  0
LINE
  5
1F5
330
1F
100
AcDbEntity
  8
0
  6
Continuous
 62
     7
370
    25
100
AcDbLine
 10
1.71850394
 20
1.5306098262
 30
0.0
 11
1.71850394
 21
1.2252971738
 31
0.0
  0
LINE
  5
1F6
330
1F
100
AcDbEntity
  8
0
  6
Continuous
 62
     7
370
    25
100
AcDbLine
 10
1.7621865351
 20
1.180603
 30
0.0
 11
1.9679923613
 21
1.180603
 31
0.0
  0
LINE
  5
1F7
330
1F
100
AcDbEntity
  8
0
  6
Continuous
 62
     7
370
    25
100
AcDbLine
 10
1.9679923613
 20
1.180603
 30
0.0
 11
1.9679923613
 21
1.181103
 31
0.0
  0
LINE
  5
1F8
330
1F
100
AcDbEntity
  8
0
  6
Continuous
 62
     7
370
    25
100
AcDbLine
 10
1.9679923613
 20
1.181103
 30
0.0
 11
1.96850394
 21
1.181103
 31
0.0
  0
LINE
  5
1F9
330
1F
100
AcDbEntity
  8
0
  6
Continuous
 62
     7
370
    25
100
AcDbLine
 10
1.96850394
 20
0.787402
 30
0.0
 11
1.96850394
 21
1.181103
 31
0.0
  0
LINE
  5
1FA
330
1F
100
AcDbEntity
  8
0
  6
Continuous
 62
     7
370
    25
100
AcDbLine
 10
1.96850394
 20
0.787402
 30
0.0
 11
1.9679923613
 21
0.787402
 31
0.0
  0
LINE
  5
1FB
330
1F
100
AcDbEntity
  8
0
  6
Continuous
 62
     7
370
    25
100
AcDbLine
 10
1.9679923613
 20
0.787402
 30
0.0
 11
1.9679923613
 21
0.787902
 31
0.0
  0
LINE
  5
1FC
330
1F
100
AcDbEntity
  8
0
  6
Continuous
 62
     7
370
    25
100
AcDbLine
 10
1.9679923613
 20
0.787902
 30
0.0
 11
1.7621865351
 21
0.787902
 31
0.0
  0
LINE
  5
1FD
330
1F
100
AcDbEntity
  8
0
  6
Continuous
 62
     7
370
    25
100
AcDbLine
 10
1.71850394
 20
0.7432078262
 30
0.0
 11
1.71850394
 21
0.4378951738
 31
0.0
  0
LINE
  5
1FE
330
1F
100
AcDbEntity
  8
0
  6
Continuous
 62
     7
370
    25
100
AcDbLine
 10
1.7621865351
 20
0.393201
 30
0.0
 11
1.9679923613
 21
0.393201
 31
0.0
  0
LINE
  5
1FF
330
1F
100
AcDbEntity
  8
0
  6
Continuous
 62
     7
370
    25
100
AcDbLine
 10
1.9679923613
 20
0.393201
 30
0.0
 11
1.9679923613
 21
0.393701
 31
0.0
  0
LINE
  5
200
330
1F
100
AcDbEntity
  8
0
  6
Continuous
 62
     7
370
    25
100
AcDbLine
 10
1.9679923613
 20
0.393701
 30
0.0
 11
1.96850394
 21
0.393701
 31
0.0
  0
LINE
  5
201
330
1F
100
AcDbEntity
  8
0
  6
Continuous
 62
     7
370
    25
100
AcDbLine
 10
1.96850394
 20
0.0
 30
0.0
 11
1.96850394
 21
0.393701
 31
0.0
  0
LINE
  5
202
330
1F
100
AcDbEntity
  8
0
  6
Continuous
 62
     7
370
    25
100
AcDbLine
 10
1.2252966438
 20
0.0
 30
0.0
 11
1.96850394
 21
0.0
 31
0.0
  0
LINE
  5
203
330
1F
100
AcDbEntity
  8
0
  6
Continuous
 62
     7
370
    25
100
AcDbLine
 10
1.18110247
 20
-0.1875
 30
0.0
 11
1.18110247
 21
-0.0441941738
 31
0.0
  0
LINE
  5
204
330
1F
100
AcDbEntity
  8
0
  6
Continuous
 62
     7
370
    25
100
AcDbLine
 10
1.11860247
 20
-0.25
 30
0.0
 11
1.18110247
 21
-0.1875
 31
0.0
  0
LINE
  5
205
330
1F
100
AcDbEntity
  8
0
  6
Continuous
 62
     7
370
    25
100
AcDbLine
 10
0.84990147
 20
-0.25
 30
0.0
 11
1.11860247
 21
-0.25
 31
0.0
  0
LINE
  5
206
330
1F
100
AcDbEntity
  8
0
  6
Continuous
 62
     7
370
    25
100
AcDbLine
 10
0.78740147
 20
-0.1875
 30
0.0
 11
0.84990147
 21
-0.25
 31
0.0
  0
LINE
  5
207
330
1F
100
AcDbEntity
  8
0
  6
Continuous
 62
     7
370
    25
100
AcDbLine
 10
0.78740147
 20
-0.0441941738
 30
0.0
 11
0.78740147
 21
-0.1875
 31
0.0
  0
LINE
  5
208
330
1F
100
AcDbEntity
  8
0
  6
Continuous
 62
     7
370
    25
100
AcDbLine
 10
0.25
 20
0.0
 30
0.0
 11
0.7432072962
 21
0.0
 31
0.0
  0
LINE
  5
209
330
1F
100
AcDbEntity
  8
0
  6
Continuous
 62
     7
370
    25
100
AcDbLine
 10
0.25
 20
0.0
 30
0.0
 11
0.25
 21
0.3495068262
 31
0.0
  0
LINE
  5
20A
330
1F
100
AcDbEntity
  8
0
  6
Continuous
 62
     7
370
    25
100
AcDbLine
 10
0.2063174049
 20
0.394201
 30
0.0
 11
0.0005115787
 21
0.394201
 31
0.0
  0
LINE
  5
20B
330
1F
100
AcDbEntity
  8
0
  6
Continuous
 62
     7
370
    25
100
AcDbLine
 10
0.0005115787
 20
0.394201
 30
0.0
 11
0.0005115787
 21
0.393701
 31
0.0
  0
LINE
  5
20C
330
1F
100
AcDbEntity
  8
0
  6
Continuous
 62
     7
370
    25
100
AcDbLine
 10
0.0005115787
 20
0.393701
 30
0.0
 11
0.0
 21
0.393701
 31
0.0
  0
LINE
  5
20D
330
1F
100
AcDbEntity
  8
0
  6
Continuous
 62
     7
370
    25
100
AcDbLine
 10
0.0
 20
0.787402
 30
0.0
 11
0.0
 21
0.393701
 31
0.0
  0
LINE
  5
20E
330
1F
100
AcDbEntity
  8
0
  6
Continuous
 62
     7
370
    25
100
AcDbLine
 10
0.0
 20
0.787402
 30
0.0
 11
0.0005115787
 21
0.787402
 31
0.0
  0
LINE
  5
20F
330
1F
100
AcDbEntity
  8
0
  6
Continuous
 62
     7
370
    25
100
AcDbLine
 10
0.0005115787
 20
0.787402
 30
0.0
 11
0.0005115787
 21
0.786902
 31
0.0
  0
LINE
  5
210
330
1F
100
AcDbEntity
  8
0
  6
Continuous
 62
     7
370
    25
100
AcDbLine
 10
0.0005115787
 20
0.786902
 30
0.0
 11
0.2063174049
 21
0.786902
 31
0.0
  0
LINE
  5
211
330
1F
100
AcDbEntity
  8
0
  6
Continuous
 62
     7
370
    25
100
AcDbLine
 10
0.25
 20
0.8315961738
 30
0.0
 11
0.25
 21
1.1369088262
 31
0.0
  0
LINE
  5
212
330
1F
100
AcDbEntity
  8
0
  6
Continuous
 62
     7
370
    25
100
AcDbLine
 10
0.2063174049
 20
1.181603
 30
0.0
 11
0.0005115787
 21
1.181603
 31
0.0
  0
LINE
  5
213
330
1F
100
AcDbEntity
  8
0
  6
Continuous
 62
     7
370
    25
100
AcDbLine
 10
0.0005115787
 20
1.181603
 30
0.0
 11
0.0005115787
 21
1.181103
 31
0.0
  0
LINE
  5
214
330
1F
100
AcDbEntity
  8
0
  6
Continuous
 62
     7
370
    25
100
AcDbLine
 10
0.0005115787
 20
1.181103
 30
0.0
 11
0.0
 21
1.181103
 31
0.0
  0
LINE
  5
215
330
1F
100
AcDbEntity
  8
0
  6
Continuous
 62
     7
370
    25
100
AcDbLine
 10
0.0
 20
1.574804
 30
0.0
 11
0.0
 21
1.181103
 31
0.0
  0
LINE
  5
216
330
1F
100
AcDbEntity
  8
0
  6
Continuous
 62
     7
370
    25
100
AcDbLine
 10
0.0
 20
1.574804
 30
0.0
 11
0.0005115787
 21
1.574804
 31
0.0
  0
LINE
  5
217
330
1F
100
AcDbEntity
  8
0
  6
Continuous
 62
     7
370
    25
100
AcDbLine
 10
0.0005115787
 20
1.574804
 30
0.0
 11
0.0005115787
 21
1.574304
 31
0.0
  0
LINE
  5
218
330
1F
100
AcDbEntity
  8
0
  6
Continuous
 62
     7
370
    25
100
AcDbLine
 10
0.0005115787
 20
1.574304
 30
0.0
 11
0.2063174049
 21
1.574304
 31
0.0
  0
LINE
  5
219
330
1F
100
AcDbEntity
  8
0
  6
Continuous
 62
     7
370
    25
100
AcDbLine
 10
0.25
 20
1.6189981738
 30
0.0
 11
0.25
 21
1.9243108262
 31
0.0
  0
LINE
  5
21A
330
1F
100
AcDbEntity
  8
0
  6
Continuous
 62
     7
370
    25
100
AcDbLine
 10
0.2063174049
 20
1.969005
 30
0.0
 11
0.0005115787
 21
1.969005
 31
0.0
  0
LINE
  5
21B
330
1F
100
AcDbEntity
  8
0
  6
Continuous
 62
     7
370
    25
100
AcDbLine
 10
0.0005115787
 20
1.969005
 30
0.0
 11
0.0005115787
 21
1.968505
 31
0.0
  0
LINE
  5
21C
330
1F
100
AcDbEntity
  8
0
  6
Continuous
 62
     7
370
    25
100
AcDbLine
 10
0.0005115787
 20
1.968505
 30
0.0
 11
0.0
 21
1.968505
 31
0.0
  0
LINE
  5
21D
330
1F
100
AcDbEntity
  8
0
  6
Continuous
 62
     7
370
    25
100
AcDbLine
 10
0.0
 20
2.362206
 30
0.0
 11
0.0
 21
1.968505
 31
0.0
  0
LINE
  5
21E
330
1F
100
AcDbEntity
  8
0
  6
Continuous
 62
     7
370
    25
100
AcDbLine
 10
0.0
 20
2.362206
 30
0.0
 11
0.0005115787
 21
2.362206
 31
0.0
  0
LINE
  5
21F
330
1F
100
AcDbEntity
  8
0
  6
Continuous
 62
     7
370
    25
100
AcDbLine
 10
0.0005115787
 20
2.362206
 30
0.0
 11
0.0005115787
 21
2.361706
 31
0.0
  0
LINE
  5
220
330
1F
100
AcDbEntity
  8
0
  6
Continuous
 62
     7
370
    25
100
AcDbLine
 10
0.0005115787
 20
2.361706
 30
0.0
 11
0.2063174049
 21
2.361706
 31
0.0
  0
LINE
  5
221
330
1F
100
AcDbEntity
  8
0
  6
Continuous
 62
     7
370
    25
100
AcDbLine
 10
0.25
 20
2.4064001738
 30
0.0
 11
0.25
 21
2.7117128262
 31
0.0
  0
LINE
  5
222
330
1F
100
AcDbEntity
  8
0
  6
Continuous
 62
     7
370
    25
100
AcDbLine
 10
0.2063174049
 20
2.756407
 30
0.0
 11
0.0005115787
 21
2.756407
 31
0.0
  0
LINE
  5
223
330
1F
100
AcDbEntity
  8
0
  6
Continuous
 62
     7
370
    25
100
AcDbLine
 10
0.0005115787
 20
2.756407
 30
0.0
 11
0.0005115787
 21
2.755907
 31
0.0
  0
LINE
  5
224
330
1F
100
AcDbEntity
  8
0
  6
Continuous
 62
     7
370
    25
100
AcDbLine
 10
0.0005115787
 20
2.755907
 30
0.0
 11
0.0
 21
2.755907
 31
0.0
  0
LINE
  5
225
330
1F
100
AcDbEntity
  8
0
  6
Continuous
 62
     7
370
    25
100
AcDbLine
 10
0.0
 20
3.149608
 30
0.0
 11
0.0
 21
2.755907
 31
0.0
  0
LINE
  5
226
330
1F
100
AcDbEntity
  8
0
  6
Continuous
 62
     7
370
    25
100
AcDbLine
 10
0.0
 20
3.149608
 30
0.0
 11
0.0005115787
 21
3.149608
 31
0.0
  0
LINE
  5
227
330
1F
100
AcDbEntity
  8
0
  6
Continuous
 62
     7
370
    25
100
AcDbLine
 10
0.0005115787
 20
3.149608
 30
0.0
 11
0.0005115787
 21
3.149108
 31
0.0
  0
LINE
  5
228
330
1F
100
AcDbEntity
  8
0
  6
Continuous
 62
     7
370
    25
100
AcDbLine
 10
0.0005115787
 20
3.149108
 30
0.0
 11
0.2063174049
 21
3.149108
 31
0.0
  0
LINE
  5
229
330
1F
100
AcDbEntity
  8
0
  6
Continuous
 62
     7
370
    25
100
AcDbLine
 10
0.25
 20
3.1938021738
 30
0.0
 11
0.25
 21
3.4991148262
 31
0.0
  0
LINE
  5
22A
330
1F
100
AcDbEntity
  8
0
  6
Continuous
 62
     7
370
    25
100
AcDbLine
 10
0.2063174049
 20
3.543809
 30
0.0
 11
0.0005115787
 21
3.543809
 31
0.0
  0
LINE
  5
22B
330
1F
100
AcDbEntity
  8
0
  6
Continuous
 62
     7
370
    25
100
AcDbLine
 10
0.0005115787
 20
3.543809
 30
0.0
 11
0.0005115787
 21
3.543309
 31
0.0
  0
LINE
  5
22C
330
1F
100
AcDbEntity
  8
0
  6
Continuous
 62
     7
370
    25
100
AcDbLine
 10
0.0005115787
 20
3.543309
 30
0.0
 11
0.0
 21
3.543309
 31
0.0
  0
LINE
  5
22D
330
1F
100
AcDbEntity
  8
0
  6
Continuous
 62
     7
370
    25
100
AcDbLine
 10
0.0
 20
3.93701
 30
0.0
 11
0.0
 21
3.543309
 31
0.0
  0
LINE
  5
22E
330
1F
100
AcDbEntity
  8
0
  6
Continuous
 62
     7
370
    25
100
AcDbLine
 10
0.0
 20
3.93701
 30
0.0
 11
0.0005115787
 21
3.93701
 31
0.0
  0
LINE
  5
22F
330
1F
100
AcDbEntity
  8
0
  6
Continuous
 62
     7
370
    25
100
AcDbLine
 10
0.0005115787
 20
3.93701
 30
0.0
 11
0.0005115787
 21
3.93651
 31
0.0
  0
LINE
  5
230
330
1F
100
AcDbEntity
  8
0
  6
Continuous
 62
     7
370
    25
100
AcDbLine
 10
0.0005115787
 20
3.93651
 30
0.0
 11
0.2063174049
 21
3.93651
 31
0.0
  0
LINE
  5
231
330
1F
100
AcDbEntity
  8
0
  6
Continuous
 62
     7
370
    25
100
AcDbLine
 10
0.25
 20
3.9812041738
 30
0.0
 11
0.25
 21
4.2865168262
 31
0.0
  0
LINE
  5
232
330
1F
100
AcDbEntity
  8
0
  6
Continuous
 62
     7
370
    25
100
AcDbLine
 10
0.2063174049
 20
4.331211
 30
0.0
 11
0.0005115787
 21
4.331211
 31
0.0
  0
LINE
  5
233
330
1F
100
AcDbEntity
  8
0
  6
Continuous
 62
     7
370
    25
100
AcDbLine
 10
0.0005115787
 20
4.331211
 30
0.0
 11
0.0005115787
 21
4.330711
 31
0.0
  0
LINE
  5
234
330
1F
100
AcDbEntity
  8
0
  6
Continuous
 62
     7
370
    25
100
AcDbLine
 10
0.0005115787
 20
4.330711
 30
0.0
 11
0.0
 21
4.330711
 31
0.0
  0
LINE
  5
235
330
1F
100
AcDbEntity
  8
0
  6
Continuous
 62
     7
370
    25
100
AcDbLine
 10
0.0
 20
4.724412
 30
0.0
 11
0.0
 21
4.330711
 31
0.0
  0
LINE
  5
236
330
1F
100
AcDbEntity
  8
0
  6
Continuous
 62
     7
370
    25
100
AcDbLine
 10
0.0
 20
4.724412
 30
0.0
 11
0.0005115787
 21
4.724412
 31
0.0
  0
LINE
  5
237
330
1F
100
AcDbEntity
  8
0
  6
Continuous
 62
     7
370
    25
100
AcDbLine
 10
0.0005115787
 20
4.724412
 30
0.0
 11
0.0005115787
 21
4.723912
 31
0.0
  0
LINE
  5
238
330
1F
100
AcDbEntity
  8
0
  6
Continuous
 62
     7
370
    25
100
AcDbLine
 10
0.0005115787
 20
4.723912
 30
0.0
 11
0.2063174049
 21
4.723912
 31
0.0
  0
LINE
  5
239
330
1F
100
AcDbEntity
  8
0
  6
Continuous
 62
     7
370
    25
100
AcDbLine
 10
0.25
 20
4.7686061738
 30
0.0
 11
0.25
 21
5.0739188262
 31
0.0
  0
LINE
  5
23A
330
1F
100
AcDbEntity
  8
0
  6
Continuous
 62
     7
370
    25
100
AcDbLine
 10
0.2063174049
 20
5.118613
 30
0.0
 11
0.0005115787
 21
5.118613
 31
0.0
  0
LINE
  5
23B
330
1F
100
AcDbEntity
  8
0
  6
Continuous
 62
     7
370
    25
100
AcDbLine
 10
0.0005115787
 20
5.118613
 30
0.0
 11
0.0005115787
 21
5.118113
 31
0.0
  0
LINE
  5
23C
330
1F
100
AcDbEntity
  8
0
  6
Continuous
 62
     7
370
    25
100
AcDbLine
 10
0.0005115787
 20
5.118113
 30
0.0
 11
0.0
 21
5.118113
 31
0.0
  0
LINE
  5
23D
330
1F
100
AcDbEntity
  8
0
  6
Continuous
 62
     7
370
    25
100
AcDbLine
 10
0.0
 20
5.511814
 30
0.0
 11
0.0
 21
5.118113
 31
0.0
  0
LINE
  5
23E
330
1F
100
AcDbEntity
  8
0
  6
Continuous
 62
     7
370
    25
100
AcDbLine
 10
0.0
 20
5.511814
 30
0.0
 11
0.0005115787
 21
5.511814
 31
0.0
  0
LINE
  5
23F
330
1F
100
AcDbEntity
  8
0
  6
Continuous
 62
     7
370
    25
100
AcDbLine
 10
0.0005115787
 20
5.511814
 30
0.0
 11
0.0005115787
 21
5.511314
 31
0.0
  0
LINE
  5
240
330
1F
100
AcDbEntity
  8
0
  6
Continuous
 62
     7
370
    25
100
AcDbLine
 10
0.0005115787
 20
5.511314
 30
0.0
 11
0.2063174049
 21
5.511314
 31
0.0
  0
LINE
  5
241
330
1F
100
AcDbEntity
  8
0
  6
Continuous
 62
     7
370
    25
100
AcDbLine
 10
0.8670980258
 20
0.0959762638
 30
0.0
 11
0.8990505535
 21
0.0959762638
 31
0.0
  0
LINE
  5
242
330
1F
100
AcDbEntity
  8
0
  6
Continuous
 62
     7
370
    25
100
AcDbLine
 10
0.8670980258
 20
0.08
 30
0.0
 11
0.8670980258
 21
0.0959762638
 31
0.0
  0
LINE
  5
243
330
1F
100
AcDbEntity
  8
0
  6
Continuous
 62
     7
370
    25
100
AcDbLine
 10
0.9509734109
 20
0.08
 30
0.0
 11
0.8670980258
 21
0.08
 31
0.0
  0
LINE
  5
244
330
1F
100
AcDbEntity
  8
0
  6
Continuous
 62
     7
370
    25
100
AcDbLine
 10
0.9509734109
 20
0.0959762638
 30
0.0
 11
0.9509734109
 21
0.08
 31
0.0
  0
LINE
  5
245
330
1F
100
AcDbEntity
  8
0
  6
Continuous
 62
     7
370
    25
100
AcDbLine
 10
0.9190208833
 20
0.0959762638
 30
0.0
 11
0.9509734109
 21
0.0959762638
 31
0.0
  0
LINE
  5
246
330
1F
100
AcDbEntity
  8
0
  6
Continuous
 62
     7
370
    25
100
AcDbLine
 10
0.9190208833
 20
0.2018190118
 30
0.0
 11
0.9190208833
 21
0.0959762638
 31
0.0
  0
LINE
  5
247
330
1F
100
AcDbEntity
  8
0
  6
Continuous
 62
     7
370
    25
100
AcDbLine
 10
0.9509734109
 20
0.2018190118
 30
0.0
 11
0.9190208833
 21
0.2018190118
 31
0.0
  0
LINE
  5
248
330
1F
100
AcDbEntity
  8
0
  6
Continuous
 62
     7
370
    25
100
AcDbLine
 10
0.9509734109
 20
0.2177952756
 30
0.0
 11
0.9509734109
 21
0.2018190118
 31
0.0
  0
LINE
  5
249
330
1F
100
AcDbEntity
  8
0
  6
Continuous
 62
     7
370
    25
100
AcDbLine
 10
0.8670980258
 20
0.2177952756
 30
0.0
 11
0.9509734109
 21
0.2177952756
 31
0.0
  0
LINE
  5
24A
330
1F
100
AcDbEntity
  8
0
  6
Continuous
 62
     7
370
    25
100
AcDbLine
 10
0.8670980258
 20
0.2018190118
 30
0.0
 11
0.8670980258
 21
0.2177952756
 31
0.0
  0
LINE
  5
24B
330
1F
100
AcDbEntity
  8
0
  6
Continuous
 62
     7
370
    25
100
AcDbLine
 10
0.8990505535
 20
0.2018190118
 30
0.0
 11
0.8670980258
 21
0.2018190118
 31
0.0
  0
LINE
  5
24C
330
1F
100
AcDbEntity
  8
0
  6
Continuous
 62
     7
370
    25
100
AcDbLine
 10
0.8990505535
 20
0.0959762638
 30
0.0
 11
0.8990505535
 21
0.2018190118
 31
0.0
  0
LINE
  5
24D
330
1F
100
AcDbEntity
  8
0
  6
Continuous
 62
     7
370
    25
100
AcDbLine
 10
0.6134748374
 20
0.0520415383
 30
0.0
 11
0.7312997832
 21
0.0520415383
 31
0.0
  0
LINE
  5
24E
330
1F
100
AcDbEntity
  8
0
  6
Continuous
 62
     7
370
    25
100
AcDbLine
 10
0.6134748374
 20
0.0360652744
 30
0.0
 11
0.6134748374
 21
0.0520415383
 31
0.0
  0
LINE
  5
24F
330
1F
100
AcDbEntity
  8
0
  6
Continuous
 62
     7
370
    25
100
AcDbLine
 10
0.7312997832
 20
0.0360652744
 30
0.0
 11
0.6134748374
 21
0.0360652744
 31
0.0
  0
LINE
  5
250
330
1F
100
AcDbEntity
  8
0
  6
Continuous
 62
     7
370
    25
100
AcDbLine
 10
0.7312997832
 20
0.0520415383
 30
0.0
 11
0.7312997832
 21
0.0360652744
 31
0.0
  0
LINE
  5
251
330
1F
100
AcDbEntity
  8
0
  6
Continuous
 62
     7
370
    25
100
AcDbLine
 10
0.7672463768
 20
0.0959762638
 30
0.0
 11
0.7863742083
 21
0.0959762638
 31
0.0
  0
LINE
  5
252
330
1F
100
AcDbEntity
  8
0
  6
Continuous
 62
     7
370
    25
100
AcDbLine
 10
0.7672463768
 20
0.1439050553
 30
0.0
 11
0.7672463768
 21
0.0959762638
 31
0.0
  0
LINE
  5
253
330
1F
100
AcDbEntity
  8
0
  6
Continuous
 62
     7
370
    25
100
AcDbLine
 10
0.7857501355
 20
0.1439050553
 30
0.0
 11
0.7672463768
 21
0.1439050553
 31
0.0
  0
LINE
  5
254
330
1F
100
AcDbEntity
  8
0
  6
Continuous
 62
     7
370
    25
100
AcDbLine
 10
0.7672463768
 20
0.1598813192
 30
0.0
 11
0.7855005064
 21
0.1598813192
 31
0.0
  0
LINE
  5
255
330
1F
100
AcDbEntity
  8
0
  6
Continuous
 62
     7
370
    25
100
AcDbLine
 10
0.7672463768
 20
0.2018190118
 30
0.0
 11
0.7672463768
 21
0.1598813192
 31
0.0
  0
LINE
  5
256
330
1F
100
AcDbEntity
  8
0
  6
Continuous
 62
     7
370
    25
100
AcDbLine
 10
0.7861245792
 20
0.2018190118
 30
0.0
 11
0.7672463768
 21
0.2018190118
 31
0.0
  0
ARC
  5
257
330
1F
100
AcDbEntity
  8
0
  6
Continuous
 62
     7
370
    25
100
AcDbCircle
 10
0.2279029131
 20
5.8834179131
 30
0.0
 40
0.0312500000000002
100
AcDbArc
 50
315.0
 51
133.6884186394
  0
ARC
  5
258
330
1F
100
AcDbEntity
  8
0
  6
Continuous
 62
     7
370
    25
100
AcDbCircle
 10
0.2279029131
 20
6.3213130869
 30
0.0
 40
0.0312499999999997
100
AcDbArc
 50
226.3115813606
 51
45.0
  0
ARC
  5
259
330
1F
100
AcDbEntity
  8
0
  6
Continuous
 62
     7
370
    25
100
AcDbCircle
 10
0.2279029131
 20
6.6708199131
 30
0.0
 40
0.0312500000000011
100
AcDbArc
 50
315.0
 51
133.6884186394
  0
ARC
  5
25A
330
1F
100
AcDbEntity
  8
0
  6
Continuous
 62
     7
370
    25
100
AcDbCircle
 10
0.2279029131
 20
7.1087150869
 30
0.0
 40
0.0312500000000003
100
AcDbArc
 50
226.3115813606
 51
45.0
  0
ARC
  5
25B
330
1F
100
AcDbEntity
  8
0
  6
Continuous
 62
     7
370
    25
100
AcDbCircle
 10
0.2279029131
 20
7.4582219131
 30
0.0
 40
0.031250000000001
100
AcDbArc
 50
315.0
 51
133.6884186394
  0
ARC
  5
25C
330
1F
100
AcDbEntity
  8
0
  6
Continuous
 62
     7
370
    25
100
AcDbCircle
 10
0.7653043831
 20
7.8961170869
 30
0.0
 40
0.0312500000000007
100
AcDbArc
 50
225.0
 51
45.0
  0
ARC
  5
25D
330
1F
100
AcDbEntity
  8
0
  6
Continuous
 62
     7
370
    25
100
AcDbCircle
 10
1.2031995569
 20
7.8961170869
 30
0.0
 40
0.031250000000001
100
AcDbArc
 50
135.0
 51
315.0
  0
ARC
  5
25E
330
1F
100
AcDbEntity
  8
0
  6
Continuous
 62
     7
370
    25
100
AcDbCircle
 10
1.7406010269
 20
7.5024160869
 30
0.0
 40
0.0312500000000009
100
AcDbArc
 50
135.0
 51
313.6884186394
  0
ARC
  5
25F
330
1F
100
AcDbEntity
  8
0
  6
Continuous
 62
     7
370
    25
100
AcDbCircle
 10
1.7406010269
 20
7.0645209131
 30
0.0
 40
0.0312500000000006
100
AcDbArc
 50
46.3115813606
 51
225.0
  0
ARC
  5
260
330
1F
100
AcDbEntity
  8
0
  6
Continuous
 62
     7
370
    25
100
AcDbCircle
 10
1.7406010269
 20
6.7150140869
 30
0.0
 40
0.0312500000000001
100
AcDbArc
 50
135.0
 51
313.6884186394
  0
ARC
  5
261
330
1F
100
AcDbEntity
  8
0
  6
Continuous
 62
     7
370
    25
100
AcDbCircle
 10
1.7406010269
 20
6.2771189131
 30
0.0
 40
0.0312499999999998
100
AcDbArc
 50
46.3115813606
 51
225.0
  0
ARC
  5
262
330
1F
100
AcDbEntity
  8
0
  6
Continuous
 62
     7
370
    25
100
AcDbCircle
 10
1.7406010269
 20
5.9276120869
 30
0.0
 40
0.0312500000000002
100
AcDbArc
 50
135.0
 51
313.6884186394
  0
ARC
  5
263
330
1F
100
AcDbEntity
  8
0
  6
Continuous
 62
     7
370
    25
100
AcDbCircle
 10
1.7406010269
 20
5.4897169131
 30
0.0
 40
0.0312500000000009
100
AcDbArc
 50
46.3115813606
 51
225.0
  0
ARC
  5
264
330
1F
100
AcDbEntity
  8
0
  6
Continuous
 62
     7
370
    25
100
AcDbCircle
 10
1.7406010269
 20
5.1402100869
 30
0.0
 40
0.0312500000000001
100
AcDbArc
 50
135.0
 51
313.6884186394
  0
ARC
  5
265
330
1F
100
AcDbEntity
  8
0
  6
Continuous
 62
     7
370
    25
100
AcDbCircle
 10
1.7406010269
 20
4.7023149131
 30
0.0
 40
0.0312500000000002
100
AcDbArc
 50
46.3115813606
 51
225.0
  0
ARC
  5
266
330
1F
100
AcDbEntity
  8
0
  6
Continuous
 62
     7
370
    25
100
AcDbCircle
 10
1.7406010269
 20
4.3528080869
 30
0.0
 40
0.0312500000000006
100
AcDbArc
 50
135.0
 51
313.6884186394
  0
ARC
  5
267
330
1F
100
AcDbEntity
  8
0
  6
Continuous
 62
     7
370
    25
100
AcDbCircle
 10
1.7406010269
 20
3.9149129131
 30
0.0
 40
0.0312500000000003
100
AcDbArc
 50
46.3115813606
 51
225.0
  0
ARC
  5
268
330
1F
100
AcDbEntity
  8
0
  6
Continuous
 62
     7
370
    25
100
AcDbCircle
 10
1.7406010269
 20
3.5654060869
 30
0.0
 40
0.0312500000000002
100
AcDbArc
 50
135.0
 51
313.6884186394
  0
ARC
  5
269
330
1F
100
AcDbEntity
  8
0
  6
Continuous
 62
     7
370
    25
100
AcDbCircle
 10
1.7406010269
 20
3.1275109131
 30
0.0
 40
0.0312500000000001
100
AcDbArc
 50
46.3115813606
 51
225.0
  0
ARC
  5
26A
330
1F
100
AcDbEntity
  8
0
  6
Continuous
 62
     7
370
    25
100
AcDbCircle
 10
1.7406010269
 20
2.7780040869
 30
0.0
 40
0.0312499999999999
100
AcDbArc
 50
135.0
 51
313.6884186394
  0
ARC
  5
26B
330
1F
100
AcDbEntity
  8
0
  6
Continuous
 62
     7
370
    25
100
AcDbCircle
 10
1.7406010269
 20
2.3401089131
 30
0.0
 40
0.0312499999999998
100
AcDbArc
 50
46.3115813606
 51
225.0
  0
ARC
  5
26C
330
1F
100
AcDbEntity
  8
0
  6
Continuous
 62
     7
370
    25
100
AcDbCircle
 10
1.7406010269
 20
1.9906020869
 30
0.0
 40
0.0312500000000002
100
AcDbArc
 50
135.0
 51
313.6884186394
  0
ARC
  5
26D
330
1F
100
AcDbEntity
  8
0
  6
Continuous
 62
     7
370
    25
100
AcDbCircle
 10
1.7406010269
 20
1.5527069131
 30
0.0
 40
0.0312499999999999
100
AcDbArc
 50
46.3115813606
 51
225.0
  0
ARC
  5
26E
330
1F
100
AcDbEntity
  8
0
  6
Continuous
 62
     7
370
    25
100
AcDbCircle
 10
1.7406010269
 20
1.2032000869
 30
0.0
 40
0.0312500000000002
100
AcDbArc
 50
135.0
 51
313.6884186394
  0
ARC
  5
26F
330
1F
100
AcDbEntity
  8
0
  6
Continuous
 62
     7
370
    25
100
AcDbCircle
 10
1.7406010269
 20
0.7653049131
 30
0.0
 40
0.0312499999999999
100
AcDbArc
 50
46.3115813606
 51
225.0
  0
ARC
  5
270
330
1F
100
AcDbEntity
  8
0
  6
Continuous
 62
     7
370
    25
100
AcDbCircle
 10
1.7406010269
 20
0.4157980869
 30
0.0
 40
0.03125
100
AcDbArc
 50
135.0
 51
313.6884186394
  0
ARC
  5
271
330
1F
100
AcDbEntity
  8
0
  6
Continuous
 62
     7
370
    25
100
AcDbCircle
 10
1.2031995569
 20
-0.0220970869
 30
0.0
 40
0.0312500000000001
100
AcDbArc
 50
45.0
 51
225.0
  0
ARC
  5
272
330
1F
100
AcDbEntity
  8
0
  6
Continuous
 62
     7
370
    25
100
AcDbCircle
 10
0.7653043831
 20
-0.0220970869
 30
0.0
 40
0.0312500000000001
100
AcDbArc
 50
315.0
 51
135.0
  0
ARC
  5
273
330
1F
100
AcDbEntity
  8
0
  6
Continuous
 62
     7
370
    25
100
AcDbCircle
 10
0.2279029131
 20
0.3716039131
 30
0.0
 40
0.0312500000000001
100
AcDbArc
 50
315.0
 51
133.6884186394
  0
ARC
  5
274
330
1F
100
AcDbEntity
  8
0
  6
Continuous
 62
     7
370
    25
100
AcDbCircle
 10
0.2279029131
 20
0.8094990869
 30
0.0
 40
0.03125
100
AcDbArc
 50
226.3115813606
 51
45.0
  0
ARC
  5
275
330
1F
100
AcDbEntity
  8
0
  6
Continuous
 62
     7
370
    25
100
AcDbCircle
 10
0.2279029131
 20
1.1590059131
 30
0.0
 40
0.0312500000000002
100
AcDbArc
 50
315.0
 51
133.6884186394
  0
ARC
  5
276
330
1F
100
AcDbEntity
  8
0
  6
Continuous
 62
     7
370
    25
100
AcDbCircle
 10
0.2279029131
 20
1.5969010869
 30
0.0
 40
0.03125
100
AcDbArc
 50
226.3115813606
 51
45.0
  0
ARC
  5
277
330
1F
100
AcDbEntity
  8
0
  6
Continuous
 62
     7
370
    25
100
AcDbCircle
 10
0.2279029131
 20
1.9464079131
 30
0.0
 40
0.03125
100
AcDbArc
 50
315.0
 51
133.6884186394
  0
ARC
  5
278
330
1F
100
AcDbEntity
  8
0
  6
Continuous
 62
     7
370
    25
100
AcDbCircle
 10
0.2279029131
 20
2.3843030869
 30
0.0
 40
0.0312500000000004
100
AcDbArc
 50
226.3115813606
 51
45.0
  0
ARC
  5
279
330
1F
100
AcDbEntity
  8
0
  6
Continuous
 62
     7
370
    25
100
AcDbCircle
 10
0.2279029131
 20
2.7338099131
 30
0.0
 40
0.0312500000000001
100
AcDbArc
 50
315.0
 51
133.6884186394
  0
ARC
  5
27A
330
1F
100
AcDbEntity
  8
0
  6
Continuous
 62
     7
370
    25
100
AcDbCircle
 10
0.2279029131
 20
3.1717050869
 30
0.0
 40
0.0312500000000004
100
AcDbArc
 50
226.3115813606
 51
45.0
  0
ARC
  5
27B
330
1F
100
AcDbEntity
  8
0
  6
Continuous
 62
     7
370
    25
100
AcDbCircle
 10
0.2279029131
 20
3.5212119131
 30
0.0
 40
0.0312500000000001
100
AcDbArc
 50
315.0
 51
133.6884186394
  0
ARC
  5
27C
330
1F
100
AcDbEntity
  8
0
  6
Continuous
 62
     7
370
    25
100
AcDbCircle
 10
0.2279029131
 20
3.9591070869
 30
0.0
 40
0.0312500000000008
100
AcDbArc
 50
226.3115813606
 51
45.0
  0
ARC
  5
27D
330
1F
100
AcDbEntity
  8
0
  6
Continuous
 62
     7
370
    25
100
AcDbCircle
 10
0.2279029131
 20
4.3086139131
 30
0.0
 40
0.0312500000000003
100
AcDbArc
 50
315.0
 51
133.6884186394
  0
ARC
  5
27E
330
1F
100
AcDbEntity
  8
0
  6
Continuous
 62
     7
370
    25
100
AcDbCircle
 10
0.2279029131
 20
4.7465090869
 30
0.0
 40
0.0312500000000001
100
AcDbArc
 50
226.3115813606
 51
45.0
  0
ARC
  5
27F
330
1F
100
AcDbEntity
  8
0
  6
Continuous
 62
     7
370
    25
100
AcDbCircle
 10
0.2279029131
 20
5.0960159131
 30
0.0
 40
0.0312500000000004
100
AcDbArc
 50
315.0
 51
133.6884186394
  0
ARC
  5
280
330
1F
100
AcDbEntity
  8
0
  6
Continuous
 62
     7
370
    25
100
AcDbCircle
 10
0.2279029131
 20
5.5339110869
 30
0.0
 40
0.0312500000000013
100
AcDbArc
 50
226.3115813606
 51
45.0
  0
ENDSEC
  0
SECTION
  2
OBJECTS
  0
DICTIONARY
  5
C
330
0
100
AcDbDictionary
281
     1
  3
ACAD_GROUP
350
D
  3
ACAD_LAYOUT
350
1A
  3
ACAD_MLINESTYLE
350
17
  3
ACAD_PLOTSETTINGS
350
19
  3
ACAD_PLOTSTYLENAME
350
E
  3
ACAD_SCALELIST
350
47
  0
DICTIONARY
  5
D
102
{ACAD_REACTORS
330
C
102
}
330
C
100
AcDbDictionary
281
     1
  0
DICTIONARY
  5
1A
102
{ACAD_REACTORS
330
C
102
}
330
C
100
AcDbDictionary
281
     1
  3
Layout1
350
1E
  3
Layout2
350
26
  3
Model
350
22
  0
DICTIONARY
  5
17
102
{ACAD_REACTORS
330
C
102
}
330
C
100
AcDbDictionary
281
     1
  3
Standard
350
18
  0
DICTIONARY
  5
19
102
{ACAD_REACTORS
330
C
102
}
330
C
100
AcDbDictionary
281
     1
  0
ACDBDICTIONARYWDFLT
  5
E
102
{ACAD_REACTORS
330
C
102
}
330
C
100
AcDbDictionary
281
     1
  3
Normal
350
F
100
AcDbDictionaryWithDefault
340
F
  0
DICTIONARY
  5
47
102
{ACAD_REACTORS
330
C
102
}
330
C
100
AcDbDictionary
281
     1
  3
A0
350
48
  3
A1
350
49
  3
A2
350
4A
  3
A3
350
4B
  3
A4
350
4C
  3
A5
350
4D
  3
A6
350
4E
  3
A7
350
4F
  3
A8
350
50
  3
A9
350
51
  3
B0
350
52
  3
B1
350
53
  3
B2
350
54
  3
B3
350
55
  3
B4
350
56
  3
B5
350
57
  3
B6
350
58
  3
B7
350
59
  3
B8
350
5A
  3
B9
350
5B
  3
C0
350
5C
  3
C1
350
5D
  3
C2
350
5E
  3
C3
350
5F
  3
C4
350
60
  3
C5
350
61
  3
C6
350
62
  3
C7
350
63
  3
C8
350
64
  3
C9
350
65
  3
D0
350
66
  3
D1
350
67
  3
D2
350
68
  0
LAYOUT
  5
1E
102
{ACAD_REACTORS
330
1A
102
}
330
1A
100
AcDbPlotSettings
  1

  2
none_device
  4

  6

 40
0.0
 41
0.0
 42
0.0
 43
0.0
 44
0.0
 45
0.0
 46
0.0
 47
0.0
 48
0.0
 49
0.0
140
0.0
141
0.0
142
1.0
143
1.0
 70
   688
 72
     0
 73
     0
 74
     5
  7

 75
    16
147
1.0
148
0.0
149
0.0
100
AcDbLayout
  1
Layout1
 70
     1
 71
     1
 10
0.0
 20
0.0
 11
12.0
 21
9.0
 12
0.0
 22
0.0
 32
0.0
 14
1.0000000000E+20
 24
1.0000000000E+20
 34
1.0000000000E+20
 15
-1.0000000000E+20
 25
-1.0000000000E+20
 35
-1.0000000000E+20
146
0.0
 13
0.0
 23
0.0
 33
0.0
 16
1.0
 26
0.0
 36
0.0
 17
0.0
 27
1.0
 37
0.0
 76
     0
330
1B
  0
LAYOUT
  5
26
102
{ACAD_REACTORS
330
1A
102
}
330
1A
100
AcDbPlotSettings
  1

  2
none_device
  4

  6

 40
0.0
 41
0.0
 42
0.0
 43
0.0
 44
0.0
 45
0.0
 46
0.0
 47
0.0
 48
0.0
 49
0.0
140
0.0
141
0.0
142
1.0
143
1.0
 70
   688
 72
     0
 73
     0
 74
     5
  7

 75
    16
147
1.0
148
0.0
149
0.0
100
AcDbLayout
  1
Layout2
 70
     1
 71
     2
 10
0.0
 20
0.0
 11
0.0
 21
0.0
 12
0.0
 22
0.0
 32
0.0
 14
0.0
 24
0.0
 34
0.0
 15
0.0
 25
0.0
 35
0.0
146
0.0
 13
0.0
 23
0.0
 33
0.0
 16
1.0
 26
0.0
 36
0.0
 17
0.0
 27
1.0
 37
0.0
 76
     0
330
23
  0
LAYOUT
  5
22
102
{ACAD_REACTORS
330
1A
102
}
330
1A
100
AcDbPlotSettings
  1

  2
none_device
  4
ANSI_A_(11.00_x_8.50_Inches)
  6

 40
6.35
 41
19.05
 42
6.35000508
 43
19.05000254
 44
279.4
 45
215.9
 46
108.2276547477
 47
-11.5894262308
 48
0.0
 49
0.0
140
0.0
141
0.0
142
1.004893707
143
1.0
 70
  1696
 72
     0
 73
     0
 74
     0
  7

 75
     0
147
0.5913241897
148
-39.4088153714
149
0.0
100
AcDbLayout
  1
Model
 70
     1
 71
     0
 10
0.0
 20
0.0
 11
12.0
 21
9.0
 12
0.0
 22
0.0
 32
0.0
 14
0.0
 24
-0.25
 34
0.0
 15
1.96850394
 25
8.12402
 35
0.0
146
0.0
 13
0.0
 23
0.0
 33
0.0
 16
1.0
 26
0.0
 36
0.0
 17
0.0
 27
1.0
 37
0.0
 76
     0
330
1F
331
29
  0
MLINESTYLE
  5
18
102
{ACAD_REACTORS
330
17
102
}
330
17
100
AcDbMlineStyle
  2
Standard
 70
     0
  3

 62
   256
 51
90.0
 52
90.0
 71
     2
 49
0.5
 62
   256
  6
BYLAYER
 49
-0.5
 62
   256
  6
BYLAYER
  0
ACDBPLACEHOLDER
  5
F
102
{ACAD_REACTORS
330
E
102
}
330
E
  0
SCALE
  5
48
102
{ACAD_REACTORS
330
47
102
}
330
47
100
AcDbScale
 70
     0
300
1:1
140
1.0
141
1.0
290
     1
  0
SCALE
  5
49
102
{ACAD_REACTORS
330
47
102
}
330
47
100
AcDbScale
 70
     0
300
1:2
140
1.0
141
2.0
290
     0
  0
SCALE
  5
4A
102
{ACAD_REACTORS
330
47
102
}
330
47
100
AcDbScale
 70
     0
300
1:4
140
1.0
141
4.0
290
     0
  0
SCALE
  5
4B
102
{ACAD_REACTORS
330
47
102
}
330
47
100
AcDbScale
 70
     0
300
1:5
140
1.0
141
5.0
290
     0
  0
SCALE
  5
4C
102
{ACAD_REACTORS
330
47
102
}
330
47
100
AcDbScale
 70
     0
300
1:8
140
1.0
141
8.0
290
     0
  0
SCALE
  5
4D
102
{ACAD_REACTORS
330
47
102
}
330
47
100
AcDbScale
 70
     0
300
1:10
140
1.0
141
10.0
290
     0
  0
SCALE
  5
4E
102
{ACAD_REACTORS
330
47
102
}
330
47
100
AcDbScale
 70
     0
300
1:16
140
1.0
141
16.0
290
     0
  0
SCALE
  5
4F
102
{ACAD_REACTORS
330
47
102
}
330
47
100
AcDbScale
 70
     0
300
1:20
140
1.0
141
20.0
290
     0
  0
SCALE
  5
50
102
{ACAD_REACTORS
330
47
102
}
330
47
100
AcDbScale
 70
     0
300
1:30
140
1.0
141
30.0
290
     0
  0
SCALE
  5
51
102
{ACAD_REACTORS
330
47
102
}
330
47
100
AcDbScale
 70
     0
300
1:40
140
1.0
141
40.0
290
     0
  0
SCALE
  5
52
102
{ACAD_REACTORS
330
47
102
}
330
47
100
AcDbScale
 70
     0
300
1:50
140
1.0
141
50.0
290
     0
  0
SCALE
  5
53
102
{ACAD_REACTORS
330
47
102
}
330
47
100
AcDbScale
 70
     0
300
1:100
140
1.0
141
100.0
290
     0
  0
SCALE
  5
54
102
{ACAD_REACTORS
330
47
102
}
330
47
100
AcDbScale
 70
     0
300
2:1
140
2.0
141
1.0
290
     0
  0
SCALE
  5
55
102
{ACAD_REACTORS
330
47
102
}
330
47
100
AcDbScale
 70
     0
300
4:1
140
4.0
141
1.0
290
     0
  0
SCALE
  5
56
102
{ACAD_REACTORS
330
47
102
}
330
47
100
AcDbScale
 70
     0
300
8:1
140
8.0
141
1.0
290
     0
  0
SCALE
  5
57
102
{ACAD_REACTORS
330
47
102
}
330
47
100
AcDbScale
 70
     0
300
10:1
140
10.0
141
1.0
290
     0
  0
SCALE
  5
58
102
{ACAD_REACTORS
330
47
102
}
330
47
100
AcDbScale
 70
     0
300
100:1
140
100.0
141
1.0
290
     0
  0
SCALE
  5
59
102
{ACAD_REACTORS
330
47
102
}
330
47
100
AcDbScale
 70
     0
300
1/128" = 1'-0"
140
0.0078125
141
12.0
290
     0
  0
SCALE
  5
5A
102
{ACAD_REACTORS
330
47
102
}
330
47
100
AcDbScale
 70
     0
300
1/64" = 1'-0"
140
0.015625
141
12.0
290
     0
  0
SCALE
  5
5B
102
{ACAD_REACTORS
330
47
102
}
330
47
100
AcDbScale
 70
     0
300
1/32" = 1'-0"
140
0.03125
141
12.0
290
     0
  0
SCALE
  5
5C
102
{ACAD_REACTORS
330
47
102
}
330
47
100
AcDbScale
 70
     0
300
1/16" = 1'-0"
140
0.0625
141
12.0
290
     0
  0
SCALE
  5
5D
102
{ACAD_REACTORS
330
47
102
}
330
47
100
AcDbScale
 70
     0
300
3/32" = 1'-0"
140
0.09375
141
12.0
290
     0
  0
SCALE
  5
5E
102
{ACAD_REACTORS
330
47
102
}
330
47
100
AcDbScale
 70
     0
300
1/8" = 1'-0"
140
0.125
141
12.0
290
     0
  0
SCALE
  5
5F
102
{ACAD_REACTORS
330
47
102
}
330
47
100
AcDbScale
 70
     0
300
3/16" = 1'-0"
140
0.1875
141
12.0
290
     0
  0
SCALE
  5
60
102
{ACAD_REACTORS
330
47
102
}
330
47
100
AcDbScale
 70
     0
300
1/4" = 1'-0"
140
0.25
141
12.0
290
     0
  0
SCALE
  5
61
102
{ACAD_REACTORS
330
47
102
}
330
47
100
AcDbScale
 70
     0
300
3/8" = 1'-0"
140
0.375
141
12.0
290
     0
  0
SCALE
  5
62
102
{ACAD_REACTORS
330
47
102
}
330
47
100
AcDbScale
 70
     0
300
1/2" = 1'-0"
140
0.5
141
12.0
290
     0
  0
SCALE
  5
63
102
{ACAD_REACTORS
330
47
102
}
330
47
100
AcDbScale
 70
     0
300
3/4" = 1'-0"
140
0.75
141
12.0
290
     0
  0
SCALE
  5
64
102
{ACAD_REACTORS
330
47
102
}
330
47
100
AcDbScale
 70
     0
300
1" = 1'-0"
140
1.0
141
12.0
290
     0
  0
SCALE
  5
65
102
{ACAD_REACTORS
330
47
102
}
330
47
100
AcDbScale
 70
     0
300
1-1/2" = 1'-0"
140
1.5
141
12.0
290
     0
  0
SCALE
  5
66
102
{ACAD_REACTORS
330
47
102
}
330
47
100
AcDbScale
 70
     0
300
3" = 1'-0"
140
3.0
141
12.0
290
     0
  0
SCALE
  5
67
102
{ACAD_REACTORS
330
47
102
}
330
47
100
AcDbScale
 70
     0
300
6" = 1'-0"
140
6.0
141
12.0
290
     0
  0
SCALE
  5
68
102
{ACAD_REACTORS
330
47
102
}
330
47
100
AcDbScale
 70
     0
300
1'-0" = 1'-0"
140
12.0
141
12.0
290
     0
  0
ENDSEC
  0
EOF
