  0
SECTION
  2
HEADER
  9
$ACADVER
  1
AC1015
  9
$ACADMAINTVER
 70
     6
  9
$DWGCODEPAGE
  3
ANSI_1252
  9
$INSBASE
 10
0.0
 20
0.0
 30
0.0
  9
$EXTMIN
 10
0.0
 20
-0.25
 30
0.0
  9
$EXTMAX
 10
1.96850394
 20
8.12402
 30
0.0
  9
$LIMMIN
 10
0.0
 20
0.0
  9
$LIMMAX
 10
12.0
 20
9.0
  9
$ORTHOMODE
 70
     0
  9
$REGENMODE
 70
     1
  9
$FILLMODE
 70
     1
  9
$QTEXTMODE
 70
     0
  9
$MIRRTEXT
 70
     1
  9
$LTSCALE
 40
1.0
  9
$ATTMODE
 70
     1
  9
$TEXTSIZE
 40
0.1377952756
  9
$TRACEWID
 40
0.05
  9
$TEXTSTYLE
  7
Standard
  9
$CLAYER
  8
0
  9
$CELTYPE
  6
ByLayer
  9
$CECOLOR
 62
   256
  9
$CELTSCALE
 40
1.0
  9
$DISPSILH
 70
     0
  9
$DIMSCALE
 40
1.0
  9
$DIMASZ
 40
0.13
  9
$DIMEXO
 40
0.0393700787
  9
$DIMDLI
 40
0.38
  9
$DIMRND
 40
0.0
  9
$DIMDLE
 40
0.0
  9
$DIMEXE
 40
0.0393700787
  9
$DIMTP
 40
0.0
  9
$DIMTM
 40
0.0
  9
$DIMTXT
 40
0.1377952756
  9
$DIMCEN
 40
0.09
  9
$DIMTSZ
 40
0.0
  9
$DIMTOL
 70
     0
  9
$DIMLIM
 70
     0
  9
$DIMTIH
 70
     1
  9
$DIMTOH
 70
     1
  9
$DIMSE1
 70
     0
  9
$DIMSE2
 70
     0
  9
$DIMTAD
 70
     1
  9
$DIMZIN
 70
     1
  9
$DIMBLK
  1

  9
$DIMASO
 70
     1
  9
$DIMSHO
 70
     1
  9
$DIMPOST
  1

  9
$DIMAPOST
  1

  9
$DIMALT
 70
     0
  9
$DIMALTD
 70
     2
  9
$DIMALTF
 40
25.4
  9
$DIMLFAC
 40
1.0
  9
$DIMTOFL
 70
     0
  9
$DIMTVP
 40
0.0
  9
$DIMTIX
 70
     0
  9
$DIMSOXD
 70
     0
  9
$DIMSAH
 70
     0
  9
$DIMBLK1
  1

  9
$DIMBLK2
  1

  9
$DIMSTYLE
  2
Standard
  9
$DIMCLRD
 70
     0
  9
$DIMCLRE
 70
     0
  9
$DIMCLRT
 70
     0
  9
$DIMTFAC
 40
1.0
  9
$DIMGAP
 40
0.06
  9
$DIMJUST
 70
     0
  9
$DIMSD1
 70
     0
  9
$DIMSD2
 70
     0
  9
$DIMTOLJ
 70
     1
  9
$DIMTZIN
 70
     1
  9
$DIMALTZ
 70
     0
  9
$DIMALTTZ
 70
     0
  9
$DIMUPT
 70
     0
  9
$DIMDEC
 70
     2
  9
$DIMTDEC
 70
     2
  9
$DIMALTU
 70
     2
  9
$DIMALTTD
 70
     2
  9
$DIMTXSTY
  7
Standard
  9
$DIMAUNIT
 70
     0
  9
$DIMADEC
 70
     2
  9
$DIMALTRND
 40
0.0
  9
$DIMAZIN
 70
     0
  9
$DIMDSEP
 70
    46
  9
$DIMATFIT
 70
     3
  9
$DIMFRAC
 70
     0
  9
$DIMLDRBLK
  1

  9
$DIMLUNIT
 70
     2
  9
$DIMLWD
 70
    -2
  9
$DIMLWE
 70
    -2
  9
$DIMTMOVE
 70
     0
  9
$LUNITS
 70
     2
  9
$LUPREC
 70
     8
  9
$SKETCHINC
 40
0.1
  9
$FILLETRAD
 40
0.5
  9
$AUNITS
 70
     0
  9
$AUPREC
 70
     2
  9
$MENU
  1
.
  9
$ELEVATION
 40
0.0
  9
$PELEVATION
 40
0.0
  9
$THICKNESS
 40
0.0
  9
$LIMCHECK
 70
     0
  9
$CHAMFERA
 40
0.0
  9
$CHAMFERB
 40
0.0
  9
$CHAMFERC
 40
0.0
  9
$CHAMFERD
 40
0.0
  9
$SKPOLY
 70
     0
  9
$TDCREATE
 40
2458324.598409907
  9
$TDUCREATE
 40
2458324.765076574
  9
$TDUPDATE
 40
2458324.598438484
  9
$TDUUPDATE
 40
2458324.765105151
  9
$TDINDWG
 40
0.0000000116
  9
$TDUSRTIMER
 40
0.0000000116
  9
$USRTIMER
 70
     1
  9
$ANGBASE
 50
0.0
  9
$ANGDIR
 70
     0
  9
$PDMODE
 70
     0
  9
$PDSIZE
 40
-1.0
  9
$PLINEWID
 40
0.0
  9
$SPLFRAME
 70
     0
  9
$SPLINETYPE
 70
     6
  9
$SPLINESEGS
 70
     8
  9
$HANDSEED
  5
291
  9
$SURFTAB1
 70
     6
  9
$SURFTAB2
 70
     6
  9
$SURFTYPE
 70
     6
  9
$SURFU
 70
     6
  9
$SURFV
 70
     6
  9
$UCSBASE
  2

  9
$UCSNAME
  2

  9
$UCSORG
 10
0.0
 20
0.0
 30
0.0
  9
$UCSXDIR
 10
1.0
 20
0.0
 30
0.0
  9
$UCSYDIR
 10
0.0
 20
1.0
 30
0.0
  9
$UCSORTHOREF
  2

  9
$UCSORTHOVIEW
 70
     0
  9
$UCSORGTOP
 10
0.0
 20
0.0
 30
0.0
  9
$UCSORGBOTTOM
 10
0.0
 20
0.0
 30
0.0
  9
$UCSORGLEFT
 10
0.0
 20
0.0
 30
0.0
  9
$UCSORGRIGHT
 10
0.0
 20
0.0
 30
0.0
  9
$UCSORGFRONT
 10
0.0
 20
0.0
 30
0.0
  9
$UCSORGBACK
 10
0.0
 20
0.0
 30
0.0
  9
$PUCSBASE
  2

  9
$PUCSNAME
  2

  9
$PUCSORG
 10
0.0
 20
0.0
 30
0.0
  9
$PUCSXDIR
 10
1.0
 20
0.0
 30
0.0
  9
$PUCSYDIR
 10
0.0
 20
1.0
 30
0.0
  9
$PUCSORTHOREF
  2

  9
$PUCSORTHOVIEW
 70
     0
  9
$PUCSORGTOP
 10
0.0
 20
0.0
 30
0.0
  9
$PUCSORGBOTTOM
 10
0.0
 20
0.0
 30
0.0
  9
$PUCSORGLEFT
 10
0.0
 20
0.0
 30
0.0
  9
$PUCSORGRIGHT
 10
0.0
 20
0.0
 30
0.0
  9
$PUCSORGFRONT
 10
0.0
 20
0.0
 30
0.0
  9
$PUCSORGBACK
 10
0.0
 20
0.0
 30
0.0
  9
$USERI1
 70
     0
  9
$USERI2
 70
     0
  9
$USERI3
 70
     0
  9
$USERI4
 70
     0
  9
$USERI5
 70
     0
  9
$USERR1
 40
0.0
  9
$USERR2
 40
0.0
  9
$USERR3
 40
0.0
  9
$USERR4
 40
0.0
  9
$USERR5
 40
0.0
  9
$WORLDVIEW
 70
     1
  9
$SHADEDGE
 70
     3
  9
$SHADEDIF
 70
    70
  9
$TILEMODE
 70
     1
  9
$MAXACTVP
 70
    64
  9
$PINSBASE
 10
0.0
 20
0.0
 30
0.0
  9
$PLIMCHECK
 70
     0
  9
$PEXTMIN
 10
1.0000000000E+20
 20
1.0000000000E+20
 30
1.0000000000E+20
  9
$PEXTMAX
 10
-1.0000000000E+20
 20
-1.0000000000E+20
 30
-1.0000000000E+20
  9
$PLIMMIN
 10
0.0
 20
0.0
  9
$PLIMMAX
 10
12.0
 20
9.0
  9
$UNITMODE
 70
     0
  9
$VISRETAIN
 70
     1
  9
$PLINEGEN
 70
     0
  9
$PSLTSCALE
 70
     1
  9
$TREEDEPTH
 70
  3020
  9
$CMLSTYLE
  2
Standard
  9
$CMLJUST
 70
     0
  9
$CMLSCALE
 40
1.0
  9
$PROXYGRAPHICS
 70
     1
  9
$MEASUREMENT
 70
     0
  9
$CELWEIGHT
370
    -1
  9
$ENDCAPS
280
     0
  9
$JOINSTYLE
280
     0
  9
$LWDISPLAY
290
     1
  9
$INSUNITS
 70
     1
  9
$HYPERLINKBASE
  1

  9
$STYLESHEET
  1

  9
$XEDIT
290
     1
  9
$CEPSNTYPE
380
     0
  9
$PSTYLEMODE
290
     1
  9
$FINGERPRINTGUID
  2
{D17FBA2F-18F8-45F9-A855-C2478C7EC9B2}
  9
$VERSIONGUID
  2
{FAEB1C32-E019-11D5-929B-00C0DF256EC4}
  9
$EXTNAMES
290
     1
  9
$PSVPSCALE
 40
0.0
  9
$OLESTARTUP
290
     0
  0
ENDSEC
  0
SECTION
  2
CLASSES
  0
CLASS
  1
ACDBDICTIONARYWDFLT
  2
AcDbDictionaryWithDefault
  3
ObjectDBX Classes
 90
        0
280
     0
281
     0
  0
CLASS
  1
VISUALSTYLE
  2
AcDbVisualStyle
  3
ObjectDBX Classes
 90
     4095
280
     0
281
     0
  0
CLASS
  1
MATERIAL
  2
AcDbMaterial
  3
ObjectDBX Classes
 90
     1153
280
     0
281
     0
  0
CLASS
  1
SCALE
  2
AcDbScale
  3
ObjectDBX Classes
 90
     1153
280
     0
281
     0
  0
CLASS
  1
TABLESTYLE
  2
AcDbTableStyle
  3
ObjectDBX Classes
 90
     4095
280
     0
281
     0
  0
CLASS
  1
MLEADERSTYLE
  2
AcDbMLeaderStyle
  3
ACDB_MLEADERSTYLE_CLASS
 90
     4095
280
     0
281
     0
  0
CLASS
  1
SUN
  2
AcDbSun
  3
SCENEOE
 90
     1153
280
     0
281
     0
  0
CLASS
  1
ACDBPLACEHOLDER
  2
AcDbPlaceHolder
  3
ObjectDBX Classes
 90
        0
280
     0
281
     0
  0
CLASS
  1
LAYOUT
  2
AcDbLayout
  3
ObjectDBX Classes
 90
        0
280
     0
281
     0
  0
ENDSEC
  0
SECTION
  2
TABLES
  0
TABLE
  2
VPORT
  5
8
330
0
100
AcDbSymbolTable
 70
     1
  0
VPORT
  5
29
330
8
100
AcDbSymbolTableRecord
100
AcDbViewportTableRecord
  2
*Active
 70
     0
 10
0.0
 20
0.0
 11
1.0
 21
1.0
 12
0.98425197
 22
3.93701
 13
0.0
 23
0.0
 14
0.5
 24
0.5
 15
0.5
 25
0.5
 16
0.0
 26
0.0
 36
1.0
 17
0.0
 27
0.0
 37
0.0
 40
8.5415004
 41
0.2350727536
 42
50.0
 43
0.0
 44
0.0
 50
0.0
 51
0.0
 71
     0
 72
   100
 73
     1
 74
     3
 75
     0
 76
     0
 77
     0
 78
     0
281
     0
 65
     1
110
0.0
120
0.0
130
0.0
111
1.0
121
0.0
131
0.0
112
0.0
122
1.0
132
0.0
 79
     0
146
0.0
  0
ENDTAB
  0
TABLE
  2
LTYPE
  5
5
330
0
100
AcDbSymbolTable
 70
     6
  0
LTYPE
  5
14
330
5
100
AcDbSymbolTableRecord
100
AcDbLinetypeTableRecord
  2
ByBlock
 70
     0
  3

 72
    65
 73
     0
 40
0.0
  0
LTYPE
  5
15
330
5
100
AcDbSymbolTableRecord
100
AcDbLinetypeTableRecord
  2
ByLayer
 70
     0
  3

 72
    65
 73
     0
 40
0.0
  0
LTYPE
  5
16
330
5
100
AcDbSymbolTableRecord
100
AcDbLinetypeTableRecord
  2
Continuous
 70
     0
  3
Solid line
 72
    65
 73
     0
 40
0.0
  0
LTYPE
  5
6E
330
5
100
AcDbSymbolTableRecord
100
AcDbLinetypeTableRecord
  2
HIDDEN
 70
     0
  3
Hidden __ __ __ __ __ __ __ __ __ __ __ __ __ __
 72
    65
 73
     2
 40
0.075
 49
0.05
 74
     0
 49
-0.025
 74
     0
  0
LTYPE
  5
6F
330
5
100
AcDbSymbolTableRecord
100
AcDbLinetypeTableRecord
  2
PHANTOM
 70
     0
  3
Phantom ______  __  __  ______  __  __  ______
 72
    65
 73
     6
 40
0.5
 49
0.25
 74
     0
 49
-0.05
 74
     0
 49
0.05
 74
     0
 49
-0.05
 74
     0
 49
0.05
 74
     0
 49
-0.05
 74
     0
  0
LTYPE
  5
70
330
5
100
AcDbSymbolTableRecord
100
AcDbLinetypeTableRecord
  2
CENTER
 70
     0
  3
Center ____ _ ____ _ ____ _ ____ _ ____ _ ____
 72
    65
 73
     4
 40
0.4
 49
0.25
 74
     0
 49
-0.05
 74
     0
 49
0.05
 74
     0
 49
-0.05
 74
     0
  0
LTYPE
  5
71
330
5
100
AcDbSymbolTableRecord
100
AcDbLinetypeTableRecord
  2
CENTERX2
 70
     0
  3
Center (2x) ________  __  ________  __  _____
 72
    65
 73
     4
 40
0.8
 49
0.5
 74
     0
 49
-0.1
 74
     0
 49
0.1
 74
     0
 49
-0.1
 74
     0
  0
LTYPE
  5
72
330
5
100
AcDbSymbolTableRecord
100
AcDbLinetypeTableRecord
  2
DOT2
 70
     0
  3
Dot (.5x) ........................................
 72
    65
 73
     2
 40
0.025
 49
0.0
 74
     0
 49
-0.025
 74
     0
  0
ENDTAB
  0
TABLE
  2
LAYER
  5
2
330
0
100
AcDbSymbolTable
 70
     1
  0
LAYER
  5
10
330
2
100
AcDbSymbolTableRecord
100
AcDbLayerTableRecord
  2
0
 70
     0
 62
     7
  6
Continuous
370
    -3
390
F
  0
ENDTAB
  0
TABLE
  2
STYLE
  5
3
330
0
100
AcDbSymbolTable
 70
     1
  0
STYLE
  5
11
330
3
100
AcDbSymbolTableRecord
100
AcDbTextStyleTableRecord
  2
Standard
 70
     0
 40
0.0
 41
1.0
 50
0.0
 71
     0
 42
0.1377952756
  3
txt
  4

  0
ENDTAB
  0
TABLE
  2
VIEW
  5
6
330
0
100
AcDbSymbolTable
 70
     0
  0
ENDTAB
  0
TABLE
  2
UCS
  5
7
330
0
100
AcDbSymbolTable
 70
     0
  0
ENDTAB
  0
TABLE
  2
APPID
  5
9
330
0
100
AcDbSymbolTable
 70
     1
  0
APPID
  5
12
330
9
100
AcDbSymbolTableRecord
100
AcDbRegAppTableRecord
  2
ACAD
 70
     0
  0
ENDTAB
  0
TABLE
  2
DIMSTYLE
  5
A
330
0
100
AcDbSymbolTable
 70
     1
100
AcDbDimStyleTable
  0
DIMSTYLE
105
27
330
A
100
AcDbSymbolTableRecord
100
AcDbDimStyleTableRecord
  2
Standard
 70
     0
178
     0
340
11
  0
ENDTAB
  0
TABLE
  2
BLOCK_RECORD
  5
1
330
0
100
AcDbSymbolTable
 70
     1
  0
BLOCK_RECORD
  5
1F
330
1
100
AcDbSymbolTableRecord
100
AcDbBlockTableRecord
  2
*Model_Space
340
22
  0
BLOCK_RECORD
  5
1B
330
1
100
AcDbSymbolTableRecord
100
AcDbBlockTableRecord
  2
*Paper_Space
340
1E
  0
BLOCK_RECORD
  5
23
330
1
100
AcDbSymbolTableRecord
100
AcDbBlockTableRecord
  2
*Paper_Space0
340
26
  0
ENDTAB
  0
ENDSEC
  0
SECTION
  2
BLOCKS
  0
BLOCK
  5
20
330
1F
100
AcDbEntity
  8
0
100
AcDbBlockBegin
  2
*Model_Space
 70
     0
 10
0.0
 20
0.0
 30
0.0
  3
*Model_Space
  1

  0
ENDBLK
  5
21
330
1F
100
AcDbEntity
  8
0
100
AcDbBlockEnd
  0
BLOCK
  5
1C
330
1B
100
AcDbEntity
 67
     1
  8
0
100
AcDbBlockBegin
  2
*Paper_Space
 70
     0
 10
0.0
 20
0.0
 30
0.0
  3
*Paper_Space
  1

  0
ENDBLK
  5
1D
330
1B
100
AcDbEntity
 67
     1
  8
0
100
AcDbBlockEnd
  0
BLOCK
  5
24
330
23
100
AcDbEntity
  8
0
100
AcDbBlockBegin
  2
*Paper_Space0
 70
     0
 10
0.0
 20
0.0
 30
0.0
  3
*Paper_Space0
  1

  0
ENDBLK
  5
25
330
23
100
AcDbEntity
  8
0
100
AcDbBlockEnd
  0
ENDSEC
  0
SECTION
  2
ENTITIES
  0
SPLINE
  5
73
330
1F
100
AcDbEntity
  8
0
  6
Continuous
 62
     7
370
    25
100
AcDbSpline
210
0.0
220
0.0
230
1.0
 70
     8
 71
     3
 72
    13
 73
     9
 74
     0
 42
0.000000001
 43
0.00000001
 40
0.0
 40
0.0
 40
0.0
 40
0.0
 40
0.129450945695339
 40
0.2566201255472169
 40
0.3819473118776188
 40
0.5059238020969625
 40
0.753227043883005
 40
0.9999999999999999
 40
0.9999999999999999
 40
0.9999999999999999
 40
0.9999999999999999
 10
0.3318619836243306
 20
0.0939792308570122
 30
0.0
 10
0.3332984160211461
 20
0.0939998837803181
 30
0.0
 10
0.3361459615530144
 20
0.0940408255883765
 30
0.0
 10
0.3403654941832129
 20
0.0944694077014929
 30
0.0
 10
0.3444935947828003
 20
0.0951164908563995
 30
0.0
 10
0.3498684630826391
 20
0.0963338805495757
 30
0.0
 10
0.3564241810411907
 20
0.0984210754354347
 30
0.0
 10
0.361373641036322
 20
0.1007861131169214
 30
0.0
 10
0.3638457149378077
 20
0.1019673627753051
 30
0.0
  0
SPLINE
  5
74
330
1F
100
AcDbEntity
  8
0
  6
Continuous
 62
     7
370
    25
100
AcDbSpline
210
0.0
220
0.0
230
1.0
 70
     8
 71
     3
 72
    23
 73
    19
 74
     0
 42
0.000000001
 43
0.00000001
 40
0.0
 40
0.0
 40
0.0
 40
0.0
 40
0.0840317394051693
 40
0.1627481493312725
 40
0.2368339841853694
 40
0.3065508913091595
 40
0.3719863846278457
 40
0.434019408637498
 40
0.4926908591099678
 40
0.5491834289731914
 40
0.6036840424567055
 40
0.6572913689677627
 40
0.7104988326918849
 40
0.7643749718134192
 40
0.8194274208576797
 40
0.8765172271270816
 40
0.9365368014155032
 40
1.0
 40
1.0
 40
1.0
 40
1.0
 10
0.2899554946935991
 20
0.1489912487161931
 30
0.0
 10
0.2899812304037465
 20
0.1467852329599237
 30
0.0
 10
0.2900310739417695
 20
0.1425127403961636
 30
0.0
 10
0.2905337974291006
 20
0.1363110297322827
 30
0.0
 10
0.2913745835771372
 20
0.1305279674820733
 30
0.0
 10
0.2925060462892189
 20
0.1251484991897946
 30
0.0
 10
0.2940033334830655
 20
0.1201865470761316
 30
0.0
 10
0.2958401607996164
 20
0.1156519016627852
 30
0.0
 10
0.2979959377271918
 20
0.1115204562961563
 30
0.0
 10
0.3004982683508324
 20
0.1078258624505231
 30
0.0
 10
0.3033168363976242
 20
0.1045344218721609
 30
0.0
 10
0.3065026499209786
 20
0.1017308698168642
 30
0.0
 10
0.3099466040043174
 20
0.0992739615468016
 30
0.0
 10
0.3137647140194182
 20
0.09736699465307
 30
0.0
 10
0.3178415862103439
 20
0.0958006723734251
 30
0.0
 10
0.322252720119952
 20
0.0947749484955905
 30
0.0
 10
0.3269520329073689
 20
0.0940918404034407
 30
0.0
 10
0.3301951855919291
 20
0.0940174588110664
 30
0.0
 10
0.3318619836243306
 20
0.0939792308570122
 30
0.0
  0
SPLINE
  5
75
330
1F
100
AcDbEntity
  8
0
  6
Continuous
 62
     7
370
    25
100
AcDbSpline
210
0.0
220
0.0
230
1.0
 70
     8
 71
     3
 72
    23
 73
    19
 74
     0
 42
0.000000001
 43
0.00000001
 40
0.0
 40
0.0
 40
0.0
 40
0.0
 40
0.0600880609779839
 40
0.1176379756965089
 40
0.1740257215812306
 40
0.2293076183001609
 40
0.2841237639615154
 40
0.338589472333363
 40
0.393896314102448
 40
0.4501731553616634
 40
0.508161273727733
 40
0.5681844856238021
 40
0.6313404136763838
 40
0.6978380847396186
 40
0.7674999478350824
 40
0.8409446074175858
 40
0.9181895397340787
 40
1.0
 40
1.0
 40
1.0
 40
1.0
 10
0.3314563363003548
 20
0.203816044733539
 30
0.0
 10
0.3299031668199228
 20
0.2037826416376477
 30
0.0
 10
0.3268624344245378
 20
0.2037172464074018
 30
0.0
 10
0.3224218207390371
 20
0.2029502168841819
 30
0.0
 10
0.31819183619598
 20
0.2018250531725139
 30
0.0
 10
0.3142090860097008
 20
0.2001783799829605
 30
0.0
 10
0.3104737838841939
 20
0.1981300171706643
 30
0.0
 10
0.3070543557559213
 20
0.1955887987169034
 30
0.0
 10
0.3038851747301468
 20
0.1926888902131528
 30
0.0
 10
0.3010337784868355
 20
0.189352055793374
 30
0.0
 10
0.2985045336191218
 20
0.1856194839588698
 30
0.0
 10
0.2962876952266149
 20
0.1814932437238181
 30
0.0
 10
0.2943390766212399
 20
0.1769919440023236
 30
0.0
 10
0.2927800147428832
 20
0.1720809711351749
 30
0.0
 10
0.2914803972293983
 20
0.1668223627303027
 30
0.0
 10
0.2905965094979953
 20
0.1611958189095113
 30
0.0
 10
0.2900628522630481
 20
0.155211175424837
 30
0.0
 10
0.2899919588584685
 20
0.1511038564637714
 30
0.0
 10
0.2899554946935991
 20
0.1489912487161931
 30
0.0
  0
SPLINE
  5
76
330
1F
100
AcDbEntity
  8
0
  6
Continuous
 62
     7
370
    25
100
AcDbSpline
210
0.0
220
0.0
230
1.0
 70
     8
 71
     3
 72
    15
 73
    11
 74
     0
 42
0.000000001
 43
0.00000001
 40
0.0
 40
0.0
 40
0.0
 40
0.0
 40
0.1229518253937411
 40
0.2436493340016016
 40
0.3654458018314654
 40
0.4858589981462101
 40
0.6082520122149487
 40
0.7338071751990873
 40
0.8647999477413002
 40
1.0
 40
1.0
 40
1.0
 40
1.0
 10
0.3638457149378078
 20
0.1958279128152461
 30
0.0
 10
0.3626152887329432
 20
0.1964569681846224
 30
0.0
 10
0.3601769961383171
 20
0.1977035452184145
 30
0.0
 10
0.3563905260813555
 20
0.1993014333141675
 30
0.0
 10
0.3525465859926335
 20
0.2006688473984866
 30
0.0
 10
0.3486064588894747
 20
0.2017998472162815
 30
0.0
 10
0.3445670152433105
 20
0.2027136437075565
 30
0.0
 10
0.3403574746041091
 20
0.2033758941129512
 30
0.0
 10
0.335966785460578
 20
0.2037442778822288
 30
0.0
 10
0.3329755784120722
 20
0.2037918717035675
 30
0.0
 10
0.3314563363003548
 20
0.203816044733539
 30
0.0
  0
SPLINE
  5
78
330
1F
100
AcDbEntity
  8
0
  6
Continuous
 62
     7
370
    25
100
AcDbSpline
210
0.0
220
0.0
230
1.0
 70
     8
 71
     3
 72
    13
 73
     9
 74
     0
 42
0.000000001
 43
0.00000001
 40
0.0
 40
0.0
 40
0.0
 40
0.0
 40
0.1371061699383939
 40
0.2698431066498096
 40
0.3974532667587324
 40
0.5204190357232265
 40
0.7614228402333123
 40
0.9999999999999999
 40
0.9999999999999999
 40
0.9999999999999999
 40
0.9999999999999999
 10
0.3306762452927091
 20
0.2197923085701242
 30
0.0
 10
0.3322265840362495
 20
0.2197759583947472
 30
0.0
 10
0.3352778560767746
 20
0.2197437790834887
 30
0.0
 10
0.3397625402045857
 20
0.2194421487165755
 30
0.0
 10
0.3440793072533996
 20
0.2190357433905314
 30
0.0
 10
0.3495654467287643
 20
0.2181378117999663
 30
0.0
 10
0.3562287793420398
 20
0.2166356351768703
 30
0.0
 10
0.3613153155734831
 20
0.2147428256537923
 30
0.0
 10
0.3638457149378077
 20
0.2138012096314046
 30
0.0
  0
SPLINE
  5
79
330
1F
100
AcDbEntity
  8
0
  6
Continuous
 62
     7
370
    25
100
AcDbSpline
210
0.0
220
0.0
230
1.0
 70
     8
 71
     3
 72
    23
 73
    19
 74
     0
 42
0.000000001
 43
0.00000001
 40
0.0
 40
0.0
 40
0.0
 40
0.0
 40
0.0762236969409297
 40
0.1492541184144699
 40
0.2189623431526857
 40
0.2862645951784961
 40
0.3508726152949525
 40
0.4127356938289323
 40
0.4725305916637861
 40
0.5304846429257277
 40
0.5872753430613771
 40
0.6438115245597016
 40
0.7002070789728267
 40
0.7573436374772584
 40
0.8154020232090141
 40
0.8750243939292824
 40
0.9360604522577459
 40
1.0
 40
1.0
 40
1.0
 40
1.0
 10
0.2699851648978671
 20
0.1473686594202898
 30
0.0
 10
0.2700432979699719
 20
0.1500745745750004
 30
0.0
 10
0.270157128717836
 20
0.1553730446981912
 30
0.0
 10
0.2709228027616888
 20
0.1631191390762487
 30
0.0
 10
0.2722850051119678
 20
0.1704565492296553
 30
0.0
 10
0.2740885069905943
 20
0.1773926519934165
 30
0.0
 10
0.2764778525687941
 20
0.1838536242490551
 30
0.0
 10
0.2792748560943479
 20
0.189855318895856
 30
0.0
 10
0.2825586250902781
 20
0.1953346319463073
 30
0.0
 10
0.2862828845326442
 20
0.2003020483929109
 30
0.0
 10
0.2904676015723739
 20
0.2047300823831633
 30
0.0
 10
0.2950588011436813
 20
0.2086519432476352
 30
0.0
 10
0.3000961572058429
 20
0.2120037829291191
 30
0.0
 10
0.3055073564886327
 20
0.2148258323538824
 30
0.0
 10
0.3113153308071624
 20
0.2170559801702477
 30
0.0
 10
0.3174738216285676
 20
0.218621748270277
 30
0.0
 10
0.3239652693310512
 20
0.2196350122855703
 30
0.0
 10
0.3284048723549809
 20
0.2197390706318598
 30
0.0
 10
0.3306762452927091
 20
0.2197923085701242
 30
0.0
  0
SPLINE
  5
7A
330
1F
100
AcDbEntity
  8
0
  6
Continuous
 62
     7
370
    25
100
AcDbSpline
210
0.0
220
0.0
230
1.0
 70
     8
 71
     3
 72
    23
 73
    19
 74
     0
 42
0.000000001
 43
0.00000001
 40
0.0
 40
0.0
 40
0.0
 40
0.0
 40
0.067023146482397
 40
0.1305827730090698
 40
0.190930885779358
 40
0.2488854419887259
 40
0.305201283486186
 40
0.3603754908431921
 40
0.4152850020816809
 40
0.4704616393960714
 40
0.5269161871444932
 40
0.5848545470667013
 40
0.6449086826340928
 40
0.7081609972427749
 40
0.7747989577248987
 40
0.8453791346382021
 40
0.9201393848946394
 40
1.0
 40
1.0
 40
1.0
 40
1.0
 10
0.3296465251626165
 20
0.078002967020427
 30
0.0
 10
0.3273143700185714
 20
0.0780571650689286
 30
0.0
 10
0.3227705772875516
 20
0.0781627604018328
 30
0.0
 10
0.3161649148764439
 20
0.0789734097791108
 30
0.0
 10
0.3099797400045776
 20
0.0803482548024977
 30
0.0
 10
0.3041968578069973
 20
0.0822452368799807
 30
0.0
 10
0.2988260980961419
 20
0.0847111351650312
 30
0.0
 10
0.2938947569568061
 20
0.0877692455022726
 30
0.0
 10
0.2893715695914744
 20
0.0913395328977938
 30
0.0
 10
0.2852837200858885
 20
0.0954651111134249
 30
0.0
 10
0.2816480070927448
 20
0.1001305159239362
 30
0.0
 10
0.2785358484591714
 20
0.1053550096422767
 30
0.0
 10
0.275851461551563
 20
0.111074302758603
 30
0.0
 10
0.2737437459789676
 20
0.1173476036835425
 30
0.0
 10
0.2719950023343154
 20
0.1241075724504001
 30
0.0
 10
0.2708587066868067
 20
0.1314029366974558
 30
0.0
 10
0.2701204218414488
 20
0.1392092416971418
 30
0.0
 10
0.2700312312340664
 20
0.1445896931796557
 30
0.0
 10
0.2699851648978671
 20
0.1473686594202898
 30
0.0
  0
SPLINE
  5
7B
330
1F
100
AcDbEntity
  8
0
  6
Continuous
 62
     7
370
    25
100
AcDbSpline
210
0.0
220
0.0
230
1.0
 70
     8
 71
     3
 72
    11
 73
     7
 74
     0
 42
0.000000001
 43
0.00000001
 40
0.0
 40
0.0
 40
0.0
 40
0.0
 40
0.2486186933577395
 40
0.495977929238535
 40
0.7466774047198476
 40
1.0
 40
1.0
 40
1.0
 40
1.0
 10
0.3638457149378077
 20
0.0839940659591461
 30
0.0
 10
0.3611043718007904
 20
0.0830680192664405
 30
0.0
 10
0.3556355726768494
 20
0.0812206170666171
 30
0.0
 10
0.3471332622397011
 20
0.0793802718916538
 30
0.0
 10
0.3384579407406209
 20
0.0782148024246931
 30
0.0
 10
0.3325938366872078
 20
0.0780738233910956
 30
0.0
 10
0.3296465251626165
 20
0.078002967020427
 30
0.0
  0
SPLINE
  5
7D
330
1F
100
AcDbEntity
  8
0
  6
Continuous
 62
     7
370
    25
100
AcDbSpline
210
0.0
220
0.0
230
1.0
 70
     8
 71
     3
 72
    15
 73
    11
 74
     0
 42
0.000000001
 43
0.00000001
 40
0.0
 40
0.0
 40
0.0
 40
0.0
 40
0.1113525621013503
 40
0.2209309255260302
 40
0.3311251909260321
 40
0.4436491882741528
 40
0.5643761418057428
 40
0.6964797497374345
 40
0.8421079019728906
 40
1.0
 40
1.0
 40
1.0
 40
1.0
 10
0.5667941914869349
 20
0.1444979245121536
 30
0.0
 10
0.5677118366992986
 20
0.1441613525435855
 30
0.0
 10
0.5695325061320101
 20
0.1434935712629513
 30
0.0
 10
0.5720357856054971
 20
0.1420064953275378
 30
0.0
 10
0.5743902133894382
 20
0.1402779823071459
 30
0.0
 10
0.5764492140290778
 20
0.1380689482116752
 30
0.0
 10
0.5784623692434926
 20
0.1355808079369951
 30
0.0
 10
0.5804578978359164
 20
0.1327138118688571
 30
0.0
 10
0.5824843267761746
 20
0.1294784322072736
 30
0.0
 10
0.5837604206136301
 20
0.1271454056073999
 30
0.0
 10
0.5844242482597295
 20
0.1259317585301838
 30
0.0
  0
SPLINE
  5
7E
330
1F
100
AcDbEntity
  8
0
  6
Continuous
 62
     7
370
    25
100
AcDbSpline
210
0.0
220
0.0
230
1.0
 70
     8
 71
     3
 72
    23
 73
    19
 74
     0
 42
0.000000001
 43
0.00000001
 40
0.0
 40
0.0
 40
0.0
 40
0.0
 40
0.064544269084465
 40
0.1269342817600568
 40
0.1887265654101722
 40
0.2498083354624799
 40
0.3098390008115379
 40
0.3692223034933693
 40
0.4286832737432363
 40
0.4883798617341077
 40
0.5482501456441783
 40
0.6087657604725566
 40
0.6699858955025275
 40
0.7331387142663516
 40
0.7970632865401306
 40
0.8628148123436751
 40
0.9303182490782778
 40
1.0
 40
1.0
 40
1.0
 40
1.0
 10
0.5955015405682996
 20
0.1809437763893647
 30
0.0
 10
0.5954766038259498
 20
0.1798610302113976
 30
0.0
 10
0.5954275626403494
 20
0.1777316760428835
 30
0.0
 10
0.5950671039903273
 20
0.1745833367687238
 30
0.0
 10
0.5945213083689554
 20
0.171521532941617
 30
0.0
 10
0.5937035004582686
 20
0.1685604444867486
 30
0.0
 10
0.5926722061163018
 20
0.1657116138792665
 30
0.0
 10
0.59142670287734
 20
0.1629772960998991
 30
0.0
 10
0.5899152616951008
 20
0.1603876810281237
 30
0.0
 10
0.5882043834939309
 20
0.1579157934155501
 30
0.0
 10
0.5862577062582145
 20
0.1556015529398304
 30
0.0
 10
0.5841077803331627
 20
0.153437161060657
 30
0.0
 10
0.5817031925570234
 20
0.1514734364447428
 30
0.0
 10
0.5791368162000912
 20
0.1496283440422385
 30
0.0
 10
0.5763384569773369
 20
0.1479958090021425
 30
0.0
 10
0.5733363938360022
 20
0.1466009045445883
 30
0.0
 10
0.5701459034738035
 20
0.1454009484588481
 30
0.0
 10
0.567923193353718
 20
0.1448021021161846
 30
0.0
 10
0.5667941914869349
 20
0.1444979245121536
 30
0.0
  0
SPLINE
  5
7F
330
1F
100
AcDbEntity
  8
0
  6
Continuous
 62
     7
370
    25
100
AcDbSpline
210
0.0
220
0.0
230
1.0
 70
     8
 71
     3
 72
    23
 73
    19
 74
     0
 42
0.000000001
 43
0.00000001
 40
0.0
 40
0.0
 40
0.0
 40
0.0
 40
0.0868773302242267
 40
0.1675014716055822
 40
0.2427475008353493
 40
0.3126603416393028
 40
0.377994603499382
 40
0.4397338850261011
 40
0.4985052936180583
 40
0.5543760393236236
 40
0.6088184466666503
 40
0.6619725906622724
 40
0.71526957509753
 40
0.7692730547064746
 40
0.8244991354528816
 40
0.8807629267760531
 40
0.9393973148271858
 40
1.0
 40
1.0
 40
1.0
 40
1.0
 10
0.5502562621248442
 20
0.217795275590551
 30
0.0
 10
0.5521817089275772
 20
0.2177703291587748
 30
0.0
 10
0.5558940142219921
 20
0.2177222318700689
 30
0.0
 10
0.5612542293841581
 20
0.2172152036774078
 30
0.0
 10
0.5661952982916977
 20
0.2163972644004435
 30
0.0
 10
0.5707096029067602
 20
0.2152006020080201
 30
0.0
 10
0.5748277357603647
 20
0.2137383687881745
 30
0.0
 10
0.578563809480241
 20
0.2119909708225247
 30
0.0
 10
0.5819183339536487
 20
0.2099685358579363
 30
0.0
 10
0.5848784935574878
 20
0.2076609204794351
 30
0.0
 10
0.5874953731622248
 20
0.2051426185213875
 30
0.0
 10
0.5896914361071265
 20
0.2023218101669704
 30
0.0
 10
0.5915536620318708
 20
0.1992835158071559
 30
0.0
 10
0.5930151454577126
 20
0.195981409092385
 30
0.0
 10
0.5941232889212649
 20
0.1924806891461896
 30
0.0
 10
0.5949504557973299
 20
0.1887979510622586
 30
0.0
 10
0.595412256802926
 20
0.1849289406294866
 30
0.0
 10
0.5954714535843524
 20
0.1822867033147515
 30
0.0
 10
0.5955015405682997
 20
0.1809437763893647
 30
0.0
  0
SPLINE
  5
85
330
1F
100
AcDbEntity
  8
0
  6
Continuous
 62
     7
370
    25
100
AcDbSpline
210
0.0
220
0.0
230
1.0
 70
     8
 71
     3
 72
    15
 73
    11
 74
     0
 42
0.000000001
 43
0.00000001
 40
0.0
 40
0.0
 40
0.0
 40
0.0
 40
0.1673918545869996
 40
0.3105326767827676
 40
0.4353739153206068
 40
0.5489839509337423
 40
0.6555634230881724
 40
0.7631611935822846
 40
0.8757123458120003
 40
1.0
 40
1.0
 40
1.0
 40
1.0
 10
0.5645163257446092
 20
0.1230298199817412
 30
0.0
 10
0.5638003514541503
 20
0.124555384776623
 30
0.0
 10
0.5624721302365029
 20
0.1273854969139722
 30
0.0
 10
0.5601335128060163
 20
0.131101673128742
 30
0.0
 10
0.5577113546424267
 20
0.1340957831665298
 30
0.0
 10
0.555087607421545
 20
0.1363976286090431
 30
0.0
 10
0.5522251834132325
 20
0.1380769303385125
 30
0.0
 10
0.5491059485979586
 20
0.1391634089649304
 30
0.0
 10
0.5456846529709953
 20
0.1397949761642223
 30
0.0
 10
0.5433007323835443
 20
0.1398710615145221
 30
0.0
 10
0.5420497047244106
 20
0.1399109893871964
 30
0.0
  0
SPLINE
  5
89
330
1F
100
AcDbEntity
  8
0
  6
Continuous
 62
     7
370
    25
100
AcDbSpline
210
0.0
220
0.0
230
1.0
 70
     8
 71
     3
 72
    19
 73
    15
 74
     0
 42
0.000000001
 43
0.00000001
 40
0.0
 40
0.0
 40
0.0
 40
0.0
 40
0.1285428623689031
 40
0.2501833658111105
 40
0.367642395812562
 40
0.4828550484702377
 40
0.540503364623391
 40
0.5992328796241181
 40
0.6596398306386194
 40
0.7216651114752385
 40
0.7863724582546291
 40
0.8542028512456548
 40
0.9255393771011152
 40
1.0
 40
1.0
 40
1.0
 40
1.0
 10
0.833148465137511
 20
0.1847194168663697
 30
0.0
 10
0.8330837045359829
 20
0.1829464401392635
 30
0.0
 10
0.8329576607793426
 20
0.1794956901176923
 30
0.0
 10
0.8319432532691786
 20
0.1745045064696097
 30
0.0
 10
0.8302499072184398
 20
0.1699054781384806
 30
0.0
 10
0.8282873072454839
 20
0.1663944725901126
 30
0.0
 10
0.8263696918970962
 20
0.1638364756707636
 30
0.0
 10
0.824704228712513
 20
0.1620507736754478
 30
0.0
 10
0.8228238675510655
 20
0.1604027031421647
 30
0.0
 10
0.82075208339253
 20
0.1588607363019223
 30
0.0
 10
0.8184625200640768
 20
0.1574573855791181
 30
0.0
 10
0.8159567922310523
 20
0.1561800333984038
 30
0.0
 10
0.8132444654408141
 20
0.1550256826398975
 30
0.0
 10
0.8113416181676795
 20
0.1543773505978511
 30
0.0
 10
0.810369807714254
 20
0.154046238445738
 30
0.0
  0
SPLINE
  5
8A
330
1F
100
AcDbEntity
  8
0
  6
Continuous
 62
     7
370
    25
100
AcDbSpline
210
0.0
220
0.0
230
1.0
 70
     8
 71
     3
 72
    23
 73
    19
 74
     0
 42
0.000000001
 43
0.00000001
 40
0.0
 40
0.0
 40
0.0
 40
0.0
 40
0.0867985091117842
 40
0.1680325757699646
 40
0.2438549343749077
 40
0.315143064871266
 40
0.3818274405512956
 40
0.4445164656257138
 40
0.5035922754268297
 40
0.5594986595292184
 40
0.6133316326846666
 40
0.6658467966471326
 40
0.7179152797095459
 40
0.7701264042050444
 40
0.8240197862945507
 40
0.8797950640280652
 40
0.9382240930441982
 40
1.0
 40
1.0
 40
1.0
 40
1.0
 10
0.7868734665639632
 20
0.217795275590551
 30
0.0
 10
0.7887466491785607
 20
0.2177769909197963
 30
0.0
 10
0.7923729292015615
 20
0.2177415937642986
 30
0.0
 10
0.797619785441769
 20
0.2173097249688528
 30
0.0
 10
0.8025117641641011
 20
0.2167133354966258
 30
0.0
 10
0.8070438777830611
 20
0.215822587622605
 30
0.0
 10
0.8112058388671115
 20
0.2146184418757129
 30
0.0
 10
0.8150377777041958
 20
0.2132443193420724
 30
0.0
 10
0.8184871040500534
 20
0.211552210753792
 30
0.0
 10
0.8215716241528802
 20
0.2096046744793009
 30
0.0
 10
0.8243221023216071
 20
0.2074226665548656
 30
0.0
 10
0.8266714460721271
 20
0.2049266718571122
 30
0.0
 10
0.8286925031704749
 20
0.2022025411874987
 30
0.0
 10
0.8303253635092941
 20
0.1991942717306625
 30
0.0
 10
0.8316091722839168
 20
0.1959368082843846
 30
0.0
 10
0.8325083321021562
 20
0.1924149067321668
 30
0.0
 10
0.8330403494427232
 20
0.1886465354383224
 30
0.0
 10
0.8331117637738163
 20
0.1860525314272343
 30
0.0
 10
0.833148465137511
 20
0.1847194168663697
 30
0.0
  0
SPLINE
  5
8E
330
1F
100
AcDbEntity
  8
0
  6
Continuous
 62
     7
370
    25
100
AcDbSpline
210
0.0
220
0.0
230
1.0
 70
     8
 71
     3
 72
    23
 73
    19
 74
     0
 42
0.000000001
 43
0.00000001
 40
0.0
 40
0.0
 40
0.0
 40
0.0
 40
0.0633260535318752
 40
0.1236454103603152
 40
0.1812826135194396
 40
0.237976813126856
 40
0.2935407629237196
 40
0.3486816025440877
 40
0.4043209273922858
 40
0.4610035301292959
 40
0.51913477549404
 40
0.5793491400874581
 40
0.6418444293279374
 40
0.7078704626648737
 40
0.7766051911033075
 40
0.8476526632478996
 40
0.9221245276930564
 40
1.0
 40
1.0
 40
1.0
 40
1.0
 10
0.8371425310966574
 20
0.1217192670888965
 30
0.0
 10
0.8370947588209063
 20
0.1200939000226752
 30
0.0
 10
0.8370014824787115
 20
0.1169203376943682
 30
0.0
 10
0.8362704978743164
 20
0.1123140006283364
 30
0.0
 10
0.8350880071772658
 20
0.1079821502244169
 30
0.0
 10
0.8333989457971775
 20
0.1039489491413686
 30
0.0
 10
0.8312481260475527
 20
0.1002221868413713
 30
0.0
 10
0.8287526569242835
 20
0.0967479249737211
 30
0.0
 10
0.8257901761077203
 20
0.0936189842743694
 30
0.0
 10
0.8224319877613527
 20
0.0908047509960598
 30
0.0
 10
0.8186952288247138
 20
0.0882990298817139
 30
0.0
 10
0.8145903970270807
 20
0.0861212968647763
 30
0.0
 10
0.8101232473101612
 20
0.0842365991648226
 30
0.0
 10
0.8052971542589759
 20
0.0826916476198309
 30
0.0
 10
0.8001510979925895
 20
0.0814885458684107
 30
0.0
 10
0.7947209284935208
 20
0.0806044786884948
 30
0.0
 10
0.7890041763860592
 20
0.0801197974990607
 30
0.0
 10
0.7850957159616955
 20
0.0800405228606961
 30
0.0
 10
0.7830978260869574
 20
0.0800000000000002
 30
0.0
  0
SPLINE
  5
8F
330
1F
100
AcDbEntity
  8
0
  6
Continuous
 62
     7
370
    25
100
AcDbSpline
210
0.0
220
0.0
230
1.0
 70
     8
 71
     3
 72
    21
 73
    17
 74
     0
 42
0.000000001
 43
0.00000001
 40
0.0
 40
0.0
 40
0.0
 40
0.0
 40
0.1193489637753372
 40
0.2383531199390068
 40
0.2981936897039679
 40
0.3568112946136994
 40
0.4157921536839376
 40
0.4750596628706965
 40
0.535086169602962
 40
0.5959423628256221
 40
0.6578312767354697
 40
0.7218988600038792
 40
0.787837944341735
 40
0.855613988032305
 40
0.926356633928863
 40
1.0
 40
1.0
 40
1.0
 40
1.0
 10
0.8103698077142543
 20
0.154046238445738
 30
0.0
 10
0.8121450787168495
 20
0.1536224958680574
 30
0.0
 10
0.8156904918383439
 20
0.1527762349350235
 30
0.0
 10
0.8198645571278059
 20
0.1508984908231191
 30
0.0
 10
0.823017842526129
 20
0.1491053419641816
 30
0.0
 10
0.8252167601810471
 20
0.1475162683781128
 30
0.0
 10
0.827283142284014
 20
0.1457746540911614
 30
0.0
 10
0.8291913630657214
 20
0.1438288461905212
 30
0.0
 10
0.830943211355224
 20
0.1417054191461082
 30
0.0
 10
0.8325161166942345
 20
0.1393941092239355
 30
0.0
 10
0.8338436661516577
 20
0.1368667441435366
 30
0.0
 10
0.8350530947356227
 20
0.1341949964658594
 30
0.0
 10
0.8359750099898545
 20
0.1313139279806092
 30
0.0
 10
0.8366711305938342
 20
0.1282683558271163
 30
0.0
 10
0.8370802448004401
 20
0.1250484548662632
 30
0.0
 10
0.8371214927734976
 20
0.1228437604778771
 30
0.0
 10
0.8371425310966574
 20
0.1217192670888965
 30
0.0
  0
SPLINE
  5
17A
330
1F
100
AcDbEntity
  8
0
  6
Continuous
 62
     7
370
    25
100
AcDbSpline
210
0.0
220
0.0
230
1.0
 70
     8
 71
     3
 72
    23
 73
    19
 74
     0
 42
0.000000001
 43
0.00000001
 40
0.0
 40
0.0
 40
0.0
 40
0.0
 40
0.088318541275654
 40
0.1707628188520273
 40
0.2481129497302159
 40
0.3205380252872239
 40
0.3887318452674173
 40
0.4528948993793664
 40
0.5138277762110266
 40
0.5718103414573776
 40
0.6276941631943722
 40
0.6821529786681608
 40
0.7350705858118188
 40
0.7879872864828262
 40
0.8409148638009981
 40
0.8934284582672499
 40
0.946343345946371
 40
1.0
 40
1.0
 40
1.0
 40
1.0
 10
0.3838160447335398
 20
0.1482111577085474
 30
0.0
 10
0.3838720444864462
 20
0.1511771634559731
 30
0.0
 10
0.3839803193234532
 20
0.1569118992752726
 30
0.0
 10
0.3847505214769313
 20
0.1652172394620344
 30
0.0
 10
0.3860753714772978
 20
0.1729108485566016
 30
0.0
 10
0.3879478086791611
 20
0.179997204735084
 30
0.0
 10
0.3902932025806441
 20
0.1864709934677149
 30
0.0
 10
0.3930122638268074
 20
0.192372501834247
 30
0.0
 10
0.3960785030377391
 20
0.1977151909368963
 30
0.0
 10
0.3996061201066398
 20
0.2024246338483388
 30
0.0
 10
0.4034672957147643
 20
0.2065645898030047
 30
0.0
 10
0.4076043356710609
 20
0.210182670166708
 30
0.0
 10
0.4120993768809893
 20
0.2131683127219779
 30
0.0
 10
0.4168487795503228
 20
0.2156165873150006
 30
0.0
 10
0.4218461744026305
 20
0.2174659800444259
 30
0.0
 10
0.4269939973342529
 20
0.2188314414663382
 30
0.0
 10
0.4322928213477469
 20
0.2196156932480036
 30
0.0
 10
0.4358716558357751
 20
0.2197331642529016
 30
0.0
 10
0.4376735279014047
 20
0.2197923085701242
 30
0.0
  0
SPLINE
  5
17B
330
1F
100
AcDbEntity
  8
0
  6
Continuous
 62
     7
370
    25
100
AcDbSpline
210
0.0
220
0.0
230
1.0
 70
     8
 71
     3
 72
    23
 73
    19
 74
     0
 42
0.000000001
 43
0.00000001
 40
0.0
 40
0.0
 40
0.0
 40
0.0
 40
0.0643822159306435
 40
0.1249677463958894
 40
0.1827770043240015
 40
0.2383292134073842
 40
0.2928323044691579
 40
0.3464198064162148
 40
0.4005873274742644
 40
0.4559702502306643
 40
0.5129066301956678
 40
0.5725400029265809
 40
0.634890765035487
 40
0.7007484886169256
 40
0.7702344352114286
 40
0.8430783624905461
 40
0.9195964992924064
 40
1.0
 40
1.0
 40
1.0
 40
1.0
 10
0.4355828840009139
 20
0.078002967020427
 30
0.0
 10
0.4334575460592358
 20
0.0780609794170923
 30
0.0
 10
0.4293322035393802
 20
0.078173583159749
 30
0.0
 10
0.4233562058069139
 20
0.0790987154438369
 30
0.0
 10
0.417799164971394
 20
0.0805802848769693
 30
0.0
 10
0.4126559241655432
 20
0.0826829539283446
 30
0.0
 10
0.4079666956406634
 20
0.0853877147689202
 30
0.0
 10
0.4036619838987187
 20
0.0885950084519805
 30
0.0
 10
0.3998101855738557
 20
0.092377179466194
 30
0.0
 10
0.3963656702782961
 20
0.0966724083820377
 30
0.0
 10
0.3933553285762088
 20
0.1014966354404957
 30
0.0
 10
0.3907803538907698
 20
0.1068196034871298
 30
0.0
 10
0.3885912310013458
 20
0.1126268269072128
 30
0.0
 10
0.3868278656609365
 20
0.1189146101157191
 30
0.0
 10
0.3854658122683838
 20
0.1256538256611241
 30
0.0
 10
0.3845221612491782
 20
0.1328167688635547
 30
0.0
 10
0.3839074031694548
 20
0.1403786793942876
 30
0.0
 10
0.383846996103133
 20
0.1455575885147655
 30
0.0
 10
0.3838160447335398
 20
0.1482111577085474
 30
0.0
  0
SPLINE
  5
17C
330
1F
100
AcDbEntity
  8
0
  6
Continuous
 62
     7
370
    25
100
AcDbSpline
210
0.0
220
0.0
230
1.0
 70
     8
 71
     3
 72
    23
 73
    19
 74
     0
 42
0.000000001
 43
0.00000001
 40
0.0
 40
0.0
 40
0.0
 40
0.0
 40
0.0889426733846292
 40
0.1717495496105864
 40
0.2491397580278967
 40
0.3216955151105378
 40
0.3897623480778749
 40
0.4537064033341819
 40
0.5145872295454175
 40
0.5726195224083516
 40
0.6283126036455573
 40
0.6821501603003122
 40
0.7354013723096053
 40
0.7884122765523396
 40
0.8411592035098792
 40
0.8937922041332553
 40
0.9465264847635294
 40
1.0
 40
1.0
 40
1.0
 40
1.0
 10
0.4896587926509197
 20
0.1498025433641448
 30
0.0
 10
0.4896070051240325
 20
0.1468049436592415
 30
0.0
 10
0.4895070026833608
 20
0.1410165365916514
 30
0.0
 10
0.4886832689684766
 20
0.1326531472440178
 30
0.0
 10
0.48737704231184
 20
0.1249116740855331
 30
0.0
 10
0.4854712577555362
 20
0.117804261952603
 30
0.0
 10
0.4830790255427889
 20
0.1113323553274696
 30
0.0
 10
0.4803792216874281
 20
0.1054107495729547
 30
0.0
 10
0.4772557527108503
 20
0.1000866286135149
 30
0.0
 10
0.4737569242260182
 20
0.0953402588673503
 30
0.0
 10
0.4698903767669768
 20
0.0912126706789596
 30
0.0
 10
0.4657577185046162
 20
0.087584237819813
 30
0.0
 10
0.4612220784091856
 20
0.0846362495018893
 30
0.0
 10
0.4564468089315394
 20
0.082184581807904
 30
0.0
 10
0.4514327775758912
 20
0.0803227641094374
 30
0.0
 10
0.4462715477405965
 20
0.078968582735392
 30
0.0
 10
0.4409638062342404
 20
0.0781787504573728
 30
0.0
 10
0.4373848282925917
 20
0.078061832758871
 30
0.0
 10
0.435582884000914
 20
0.078002967020427
 30
0.0
  0
SPLINE
  5
17D
330
1F
100
AcDbEntity
  8
0
  6
Continuous
 62
     7
370
    25
100
AcDbSpline
210
0.0
220
0.0
230
1.0
 70
     8
 71
     3
 72
    23
 73
    19
 74
     0
 42
0.000000001
 43
0.00000001
 40
0.0
 40
0.0
 40
0.0
 40
0.0
 40
0.0644875470664177
 40
0.1254843373721425
 40
0.1831673823408932
 40
0.2389312773785304
 40
0.29352353704691
 40
0.3476407773461528
 40
0.4016769044177249
 40
0.4571504352103986
 40
0.5140819907875332
 40
0.5738104218972505
 40
0.6359679882252665
 40
0.7017169949564623
 40
0.7710712621534346
 40
0.8434520464853931
 40
0.9197806054801803
 40
1.0
 40
1.0
 40
1.0
 40
1.0
 10
0.4376735279014046
 20
0.2197923085701242
 30
0.0
 10
0.4397985102180091
 20
0.219732511565865
 30
0.0
 10
0.4439334480479751
 20
0.2196161544116902
 30
0.0
 10
0.4499171701409524
 20
0.2187131846949998
 30
0.0
 10
0.4554686849701652
 20
0.2171772451248861
 30
0.0
 10
0.4605932012717897
 20
0.2150447814077238
 30
0.0
 10
0.4653058531821133
 20
0.2123425155380519
 30
0.0
 10
0.4696014367470747
 20
0.2091125049990411
 30
0.0
 10
0.4734904529045337
 20
0.2053583777564425
 30
0.0
 10
0.4769107883994868
 20
0.2010556718986144
 30
0.0
 10
0.4799580912634392
 20
0.1962635022978662
 30
0.0
 10
0.4826157055398472
 20
0.1909930527012677
 30
0.0
 10
0.4847783742672396
 20
0.1851928500171004
 30
0.0
 10
0.4865898311892981
 20
0.1789462830555449
 30
0.0
 10
0.4879718579544752
 20
0.1722456786101719
 30
0.0
 10
0.4889648361110173
 20
0.1651272884040018
 30
0.0
 10
0.4895643878834938
 20
0.1576034516950054
 30
0.0
 10
0.4896268072722535
 20
0.1524455773306156
 30
0.0
 10
0.4896587926509197
 20
0.1498025433641448
 30
0.0
  0
SPLINE
  5
180
330
1F
100
AcDbEntity
  8
0
  6
Continuous
 62
     7
370
    25
100
AcDbSpline
210
0.0
220
0.0
230
1.0
 70
     8
 71
     3
 72
    23
 73
    19
 74
     0
 42
0.000000001
 43
0.00000001
 40
0.0
 40
0.0
 40
0.0
 40
0.0
 40
0.0751634739249789
 40
0.1468242857502609
 40
0.2147004565817461
 40
0.2804081309117745
 40
0.3432989837089075
 40
0.4037240268958641
 40
0.4619008746627814
 40
0.5192753134656093
 40
0.5756421721734666
 40
0.6321926367705145
 40
0.6886003484344202
 40
0.7462950936411836
 40
0.8063376960038231
 40
0.8679986302426616
 40
0.9323916198461158
 40
1.0
 40
1.0
 40
1.0
 40
1.0
 10
0.5480408036631303
 20
0.1558872532237816
 30
0.0
 10
0.5490709498373886
 20
0.1559056641437678
 30
0.0
 10
0.5510832367682028
 20
0.1559416280240384
 30
0.0
 10
0.5540186627019169
 20
0.1562083595800736
 30
0.0
 10
0.556784090839666
 20
0.1567345821954166
 30
0.0
 10
0.5594069598245459
 20
0.1573568869024426
 30
0.0
 10
0.5618491099663757
 20
0.1582394792147136
 30
0.0
 10
0.564098042915425
 20
0.1593072566246277
 30
0.0
 10
0.5661916040355534
 20
0.1605162040914671
 30
0.0
 10
0.5680547484210824
 20
0.1619677512145104
 30
0.0
 10
0.5697629875461473
 20
0.1635638954257183
 30
0.0
 10
0.5712580566090067
 20
0.1653458205342735
 30
0.0
 10
0.5725586473692832
 20
0.1672974605861749
 30
0.0
 10
0.5736086960749974
 20
0.1694454358408209
 30
0.0
 10
0.5745054027345293
 20
0.1717416911162562
 30
0.0
 10
0.5750697667004158
 20
0.1742350411157811
 30
0.0
 10
0.5754674796865172
 20
0.1768641314934569
 30
0.0
 10
0.5755096248756101
 20
0.1786746894160398
 30
0.0
 10
0.5755312107725676
 20
0.1796020198562135
 30
0.0
  0
SPLINE
  5
181
330
1F
100
AcDbEntity
  8
0
  6
Continuous
 62
     7
370
    25
100
AcDbSpline
210
0.0
220
0.0
230
1.0
 70
     8
 71
     3
 72
    23
 73
    19
 74
     0
 42
0.000000001
 43
0.00000001
 40
0.0
 40
0.0
 40
0.0
 40
0.0
 40
0.0710054063752096
 40
0.1375762152107341
 40
0.2003032527046563
 40
0.2604031925983369
 40
0.3177152079427056
 40
0.3738306474914096
 40
0.4294997037542646
 40
0.4848811865589582
 40
0.5408363383570467
 40
0.5986108345938549
 40
0.6580876144125923
 40
0.719485356746933
 40
0.7841756976171746
 40
0.852028402342235
 40
0.9241032974735324
 40
1.0
 40
1.0
 40
1.0
 40
1.0
 10
0.5755312107725676
 20
0.1796020198562135
 30
0.0
 10
0.5755166011952129
 20
0.1805078256547998
 30
0.0
 10
0.5754882944723744
 20
0.1822628657263522
 30
0.0
 10
0.5751749852489467
 20
0.1848033443808098
 30
0.0
 10
0.5746388601633767
 20
0.1871620512951747
 30
0.0
 10
0.5739246932885148
 20
0.1893477342539905
 30
0.0
 10
0.5730324176255547
 20
0.1913809859287721
 30
0.0
 10
0.5718490475712085
 20
0.1931917295660178
 30
0.0
 10
0.5705133489260374
 20
0.1948577380803861
 30
0.0
 10
0.5689704920499054
 20
0.1963353878188616
 30
0.0
 10
0.5672329278987505
 20
0.1976208325944483
 30
0.0
 10
0.5653238143091313
 20
0.1987380477483528
 30
0.0
 10
0.5632608505773322
 20
0.1997120201901746
 30
0.0
 10
0.561023848063319
 20
0.2004980527789653
 30
0.0
 10
0.5586156910657671
 20
0.2010727109985381
 30
0.0
 10
0.5560430926836267
 20
0.2015207477648426
 30
0.0
 10
0.5532978908409595
 20
0.201758945259525
 30
0.0
 10
0.5514111960958574
 20
0.2017986477772142
 30
0.0
 10
0.5504434839666793
 20
0.2018190117539658
 30
0.0
  0
SPLINE
  5
186
330
1F
100
AcDbEntity
  8
0
  6
Continuous
 62
     7
370
    25
100
AcDbSpline
210
0.0
220
0.0
230
1.0
 70
     8
 71
     3
 72
    23
 73
    19
 74
     0
 42
0.000000001
 43
0.00000001
 40
0.0
 40
0.0
 40
0.0
 40
0.0
 40
0.0829188246341175
 40
0.1598938815039344
 40
0.2325564233819781
 40
0.3006958272261079
 40
0.3637556764832313
 40
0.4236747435210422
 40
0.4807003096789247
 40
0.5348597706980014
 40
0.5877167410054586
 40
0.6406978721524962
 40
0.6942911149704595
 40
0.7497520955113267
 40
0.8069461275197136
 40
0.8672827812805202
 40
0.931438314916559
 40
1.0
 40
1.0
 40
1.0
 40
1.0
 10
0.7863742083190698
 20
0.0959762638365855
 30
0.0
 10
0.7876334012037003
 20
0.0959923238167171
 30
0.0
 10
0.7900615258035614
 20
0.0960232925692467
 30
0.0
 10
0.7935826108338024
 20
0.096314035321335
 30
0.0
 10
0.7968620540144288
 20
0.0967583405800273
 30
0.0
 10
0.7998823274292657
 20
0.0974525722809188
 30
0.0
 10
0.8026609274288233
 20
0.0982944351181069
 30
0.0
 10
0.8052062581266697
 20
0.0993070676780621
 30
0.0
 10
0.8074810169224071
 20
0.1005712297019805
 30
0.0
 10
0.809549445906375
 20
0.1019694295303596
 30
0.0
 10
0.8113417914428483
 20
0.1036205808949967
 30
0.0
 10
0.8129195252345257
 20
0.1054655582064116
 30
0.0
 10
0.8142316127178562
 20
0.1075553728789624
 30
0.0
 10
0.8153263571402871
 20
0.1098354252887392
 30
0.0
 10
0.8161730104715089
 20
0.1123284888305497
 30
0.0
 10
0.8167596341037642
 20
0.1150289003560221
 30
0.0
 10
0.8170980494537159
 20
0.1179454104622325
 30
0.0
 10
0.8171469429380235
 20
0.119960558396275
 30
0.0
 10
0.8171722013009254
 20
0.1210015833618626
 30
0.0
  0
SPLINE
  5
187
330
1F
100
AcDbEntity
  8
0
  6
Continuous
 62
     7
370
    25
100
AcDbSpline
210
0.0
220
0.0
230
1.0
 70
     8
 71
     3
 72
    23
 73
    19
 74
     0
 42
0.000000001
 43
0.00000001
 40
0.0
 40
0.0
 40
0.0
 40
0.0
 40
0.0592778177595658
 40
0.1163913973692726
 40
0.1721478876575102
 40
0.2264759683575401
 40
0.2808040490575713
 40
0.3347372846926021
 40
0.3892243701867807
 40
0.446043156535728
 40
0.5044213316927059
 40
0.5647247417857296
 40
0.6287090369173675
 40
0.6959470142967986
 40
0.7662050871176808
 40
0.8405626643936539
 40
0.9179353860272985
 40
1.0
 40
1.0
 40
1.0
 40
1.0
 10
0.8171722013009254
 20
0.1210015833618626
 30
0.0
 10
0.8171514921468804
 20
0.1218665330402826
 30
0.0
 10
0.8171108299317589
 20
0.1235648530110645
 30
0.0
 10
0.816693237911227
 20
0.1260485334874157
 30
0.0
 10
0.8160087601530308
 20
0.12839403829984
 30
0.0
 10
0.8150582497406341
 20
0.1306001526197863
 30
0.0
 10
0.8138842506274243
 20
0.1326677690506338
 30
0.0
 10
0.812422637977249
 20
0.1345448955050235
 30
0.0
 10
0.8107565493703714
 20
0.1362921685113549
 30
0.0
 10
0.8088178421032218
 20
0.1378411826897047
 30
0.0
 10
0.8066496538557458
 20
0.1392065431042446
 30
0.0
 10
0.8042856631682692
 20
0.1404402287989354
 30
0.0
 10
0.801695742967012
 20
0.141495971315528
 30
0.0
 10
0.7988850498210261
 20
0.1423607438269618
 30
0.0
 10
0.7958709563269802
 20
0.1430502539638764
 30
0.0
 10
0.7926687173484163
 20
0.1435336660809059
 30
0.0
 10
0.7892726564121841
 20
0.1438651189356563
 30
0.0
 10
0.7869471209547272
 20
0.1438914845816668
 30
0.0
 10
0.7857501355129531
 20
0.1439050553463428
 30
0.0
  0
SPLINE
  5
18B
330
1F
100
AcDbEntity
  8
0
  6
Continuous
 62
     7
370
    25
100
AcDbSpline
210
0.0
220
0.0
230
1.0
 70
     8
 71
     3
 72
    21
 73
    17
 74
     0
 42
0.000000001
 43
0.00000001
 40
0.0
 40
0.0
 40
0.0
 40
0.0
 40
0.1481099039642209
 40
0.2834111377086835
 40
0.3473298973787489
 40
0.4080164734869353
 40
0.4665361356180693
 40
0.5238711608478798
 40
0.5798789656630147
 40
0.6357582137558752
 40
0.6911959771072477
 40
0.7476673467919072
 40
0.8060331849590986
 40
0.8668726428551387
 40
0.9310300546049194
 40
1.0
 40
1.0
 40
1.0
 40
1.0
 10
0.7855005063905065
 20
0.1598813191829281
 30
0.0
 10
0.7874915373793357
 20
0.1599453494203406
 30
0.0
 10
0.7913014133069691
 20
0.1600678725058816
 30
0.0
 10
0.7959113219274343
 20
0.1608962900882897
 30
0.0
 10
0.799272346286398
 20
0.1618706749066667
 30
0.0
 10
0.8015196613843999
 20
0.1628809568409846
 30
0.0
 10
0.8036457448638932
 20
0.1639415497731025
 30
0.0
 10
0.8055399507201451
 20
0.1652736588409325
 30
0.0
 10
0.807280571412747
 20
0.1667417069036461
 30
0.0
 10
0.8088080084872884
 20
0.1683992075488142
 30
0.0
 10
0.8101385941721033
 20
0.1702260101137864
 30
0.0
 10
0.8112320710608538
 20
0.1722421511750158
 30
0.0
 10
0.8121147644051576
 20
0.174437646628917
 30
0.0
 10
0.812731098140066
 20
0.1768285398035226
 30
0.0
 10
0.8131140677769956
 20
0.1794128262433633
 30
0.0
 10
0.8131562709408733
 20
0.1812023877697492
 30
0.0
 10
0.813178135341779
 20
0.1821295147209862
 30
0.0
  0
SPLINE
  5
18C
330
1F
100
AcDbEntity
  8
0
  6
Continuous
 62
     7
370
    25
100
AcDbSpline
210
0.0
220
0.0
230
1.0
 70
     8
 71
     3
 72
    21
 73
    17
 74
     0
 42
0.000000001
 43
0.00000001
 40
0.0
 40
0.0
 40
0.0
 40
0.0
 40
0.1048107603491773
 40
0.2057872535497615
 40
0.2552082568884614
 40
0.3053322017717603
 40
0.3546722312657852
 40
0.4066370344808511
 40
0.4608426921562798
 40
0.5189640449736418
 40
0.5822085159551497
 40
0.651135436516612
 40
0.7259770992546059
 40
0.808650075906858
 40
0.9003756127110933
 40
1.0
 40
1.0
 40
1.0
 40
1.0
 10
0.8131781353417791
 20
0.1821295147209862
 30
0.0
 10
0.8131208237026738
 20
0.1834664743803239
 30
0.0
 10
0.8130082970425421
 20
0.1860914840213696
 30
0.0
 10
0.8121989479218843
 20
0.1892665251211486
 30
0.0
 10
0.8112511082537831
 20
0.1916431694440182
 30
0.0
 10
0.8102917325263493
 20
0.1932899816641954
 30
0.0
 10
0.8090660486266809
 20
0.1947884508730891
 30
0.0
 10
0.8076258778592625
 20
0.1961545795935493
 30
0.0
 10
0.8059574756067575
 20
0.1974289430657092
 30
0.0
 10
0.8039923276319078
 20
0.1985110522729279
 30
0.0
 10
0.8017653165508098
 20
0.1994756607464094
 30
0.0
 10
0.7992618503199467
 20
0.2003162216723344
 30
0.0
 10
0.7964572364048825
 20
0.2010069680117837
 30
0.0
 10
0.7933167218582698
 20
0.2015025379917951
 30
0.0
 10
0.7898320784991684
 20
0.201767909555418
 30
0.0
 10
0.7873939604854241
 20
0.2018015152774027
 30
0.0
 10
0.7861245791966232
 20
0.2018190117539658
 30
0.0
  0
SPLINE
  5
18D
330
1F
100
AcDbEntity
  8
0
  6
Continuous
 62
     7
370
    25
100
AcDbSpline
210
0.0
220
0.0
230
1.0
 70
     8
 71
     3
 72
    23
 73
    19
 74
     0
 42
0.000000001
 43
0.00000001
 40
0.0
 40
0.0
 40
0.0
 40
0.0
 40
0.0837837865740334
 40
0.1633737810051994
 40
0.2401936209728496
 40
0.313170128187614
 40
0.382531534657428
 40
0.4477136714610438
 40
0.5094692673622438
 40
0.5683725021777571
 40
0.6242112973077654
 40
0.6780250935914051
 40
0.7302423316221457
 40
0.7817115669870767
 40
0.8330937936507302
 40
0.8862171938651231
 40
0.9411759468775154
 40
1.0
 40
1.0
 40
1.0
 40
1.0
 10
0.4037863745292718
 20
0.1493344887595571
 30
0.0
 10
0.4038109101789956
 20
0.1473160926052015
 30
0.0
 10
0.4038587533480467
 20
0.1433803309884585
 30
0.0
 10
0.4042153513068567
 20
0.137603342412934
 30
0.0
 10
0.4047539433554138
 20
0.1321021220837849
 30
0.0
 10
0.4055640675409257
 20
0.1268824692522473
 30
0.0
 10
0.4066082640696019
 20
0.1219904162300117
 30
0.0
 10
0.4079199981179361
 20
0.1174430014290495
 30
0.0
 10
0.4094726143671301
 20
0.1132396765486867
 30
0.0
 10
0.4112967488692174
 20
0.1093901316770102
 30
0.0
 10
0.4134381573324327
 20
0.10593304815068
 30
0.0
 10
0.4158249470335623
 20
0.1028334545130376
 30
0.0
 10
0.4185861649210804
 20
0.1002176590633276
 30
0.0
 10
0.4215407965210878
 20
0.0979130680948516
 30
0.0
 10
0.4248832998633211
 20
0.0961565344079404
 30
0.0
 10
0.4285155016731035
 20
0.0948716952250562
 30
0.0
 10
0.4324831577480958
 20
0.0941102810890367
 30
0.0
 10
0.435225867029891
 20
0.0940238924993336
 30
0.0
 10
0.4366438077713122
 20
0.0939792308570122
 30
0.0
  0
SPLINE
  5
18E
330
1F
100
AcDbEntity
  8
0
  6
Continuous
 62
     7
370
    25
100
AcDbSpline
210
0.0
220
0.0
230
1.0
 70
     8
 71
     3
 72
    23
 73
    19
 74
     0
 42
0.000000001
 43
0.00000001
 40
0.0
 40
0.0
 40
0.0
 40
0.0
 40
0.0586315032822179
 40
0.1142681412147299
 40
0.1680141608110735
 40
0.2208233746572738
 40
0.2740594618699012
 40
0.3278720288932259
 40
0.3836527786950408
 40
0.4412825860505792
 40
0.5016807332274332
 40
0.5644906004225347
 40
0.6310115398627069
 40
0.7005718525414805
 40
0.7728075618617453
 40
0.8467334484329999
 40
0.922129770867809
 40
1.0
 40
1.0
 40
1.0
 40
1.0
 10
0.4366438077713122
 20
0.203816044733539
 30
0.0
 10
0.4352573045020369
 20
0.2037583366669121
 30
0.0
 10
0.432555119797585
 20
0.2036458682303655
 30
0.0
 10
0.4286346030519375
 20
0.202878967591235
 30
0.0
 10
0.4250447295333549
 20
0.2014782961290112
 30
0.0
 10
0.4217629924283888
 20
0.199579387091033
 30
0.0
 10
0.4187857607798318
 20
0.1972267222843566
 30
0.0
 10
0.4161298080898319
 20
0.1944272466523616
 30
0.0
 10
0.4136775600769002
 20
0.1913159435753431
 30
0.0
 10
0.4115523292457286
 20
0.187784602724801
 30
0.0
 10
0.409749321806659
 20
0.1839030568025529
 30
0.0
 10
0.4080839333232928
 20
0.1797313661717047
 30
0.0
 10
0.4067917963039753
 20
0.1752035476696978
 30
0.0
 10
0.4056484784085017
 20
0.1704097294639148
 30
0.0
 10
0.4048301569705647
 20
0.1653700085211746
 30
0.0
 10
0.404249938997526
 20
0.1601621018925094
 30
0.0
 10
0.4038526344755137
 20
0.1548012029588204
 30
0.0
 10
0.403808697576173
 20
0.1511762306320932
 30
0.0
 10
0.4037863745292718
 20
0.1493344887595571
 30
0.0
  0
SPLINE
  5
18F
330
1F
100
AcDbEntity
  8
0
  6
Continuous
 62
     7
370
    25
100
AcDbSpline
210
0.0
220
0.0
230
1.0
 70
     8
 71
     3
 72
    23
 73
    19
 74
     0
 42
0.000000001
 43
0.00000001
 40
0.0
 40
0.0
 40
0.0
 40
0.0
 40
0.0827295999635543
 40
0.162111909596608
 40
0.237943161596219
 40
0.3106867198481634
 40
0.3797986252255637
 40
0.445244664760661
 40
0.5072619480488617
 40
0.5662172357349563
 40
0.6225206623707632
 40
0.6762106296450343
 40
0.7289168486551368
 40
0.7803543119827246
 40
0.8322014416117157
 40
0.8852026014625379
 40
0.9408812529247712
 40
1.0
 40
1.0
 40
1.0
 40
1.0
 10
0.4696884628551876
 20
0.1484607868309941
 30
0.0
 10
0.469658261552173
 20
0.1504579891060281
 30
0.0
 10
0.4695990809093782
 20
0.1543715856276985
 30
0.0
 10
0.4693194081210888
 20
0.160112986737849
 30
0.0
 10
0.4686942447527492
 20
0.1655835851626066
 30
0.0
 10
0.4679451951272903
 20
0.1707869444469651
 30
0.0
 10
0.4669315278144615
 20
0.1756934339119642
 30
0.0
 10
0.4656121801364493
 20
0.1802561895915704
 30
0.0
 10
0.4640792428332192
 20
0.1844940375902801
 30
0.0
 10
0.4621984623101656
 20
0.1883486817682986
 30
0.0
 10
0.4600455096478808
 20
0.1918200059858272
 30
0.0
 10
0.4576375473524053
 20
0.1949379307455093
 30
0.0
 10
0.454877842522396
 20
0.1975840629082641
 30
0.0
 10
0.4518501691930904
 20
0.1998412783293563
 30
0.0
 10
0.4485157297271688
 20
0.2016404401059013
 30
0.0
 10
0.4448456093421291
 20
0.202931327523525
 30
0.0
 10
0.4408452815553348
 20
0.2036817026042687
 30
0.0
 10
0.438072001025629
 20
0.2037703782525234
 30
0.0
 10
0.4366438077713122
 20
0.203816044733539
 30
0.0
  0
SPLINE
  5
190
330
1F
100
AcDbEntity
  8
0
  6
Continuous
 62
     7
370
    25
100
AcDbSpline
210
0.0
220
0.0
230
1.0
 70
     8
 71
     3
 72
    23
 73
    19
 74
     0
 42
0.000000001
 43
0.00000001
 40
0.0
 40
0.0
 40
0.0
 40
0.0
 40
0.0585566710462215
 40
0.1137809323390995
 40
0.167301753254076
 40
0.2204245097997606
 40
0.273938119609758
 40
0.3279881077179525
 40
0.3836976637416858
 40
0.4414831093918352
 40
0.5021868200553877
 40
0.5649165221081723
 40
0.6310585614994578
 40
0.700003142041531
 40
0.772220171481792
 40
0.8460517053743598
 40
0.9217899981312712
 40
1.0
 40
1.0
 40
1.0
 40
1.0
 10
0.4366438077713122
 20
0.0939792308570122
 30
0.0
 10
0.4380315452397208
 20
0.0940315327897074
 30
0.0
 10
0.440728045231546
 20
0.0941331601971199
 30
0.0
 10
0.4446200552244099
 20
0.0949705830323029
 30
0.0
 10
0.4482255249428383
 20
0.0963132466905214
 30
0.0
 10
0.4515231623999253
 20
0.0982175065848575
 30
0.0
 10
0.4545306649200088
 20
0.1005681107637107
 30
0.0
 10
0.4572214466285507
 20
0.1033572781737957
 30
0.0
 10
0.4596710545357162
 20
0.106487570225997
 30
0.0
 10
0.4618215790921438
 20
0.1100167680431664
 30
0.0
 10
0.4637114070521027
 20
0.113875018009819
 30
0.0
 10
0.4653370746193534
 20
0.1180640086143654
 30
0.0
 10
0.4667077572032369
 20
0.1225479934565663
 30
0.0
 10
0.4677739809428811
 20
0.1273423523984868
 30
0.0
 10
0.4686593778356482
 20
0.1323582535235601
 30
0.0
 10
0.4692224994632526
 20
0.1375818363513322
 30
0.0
 10
0.469623004546449
 20
0.1429627224780685
 30
0.0
 10
0.4696664111149481
 20
0.146608586716633
 30
0.0
 10
0.4696884628551876
 20
0.1484607868309941
 30
0.0
  0
LINE
  5
191
330
1F
100
AcDbEntity
  8
0
  6
Continuous
 62
     7
370
    25
100
AcDbLine
 10
0.3638457149
 20
0.2138012096
 30
0.0
 11
0.3638457149
 21
0.1958279128
 31
0.0
  0
LINE
  5
192
330
1F
100
AcDbEntity
  8
0
  6
Continuous
 62
     7
370
    25
100
AcDbLine
 10
0.3638457149
 20
0.1019673628
 30
0.0
 11
0.3638457149
 21
0.083994066
 31
0.0
  0
LINE
  5
193
330
1F
100
AcDbEntity
  8
0
  6
Continuous
 62
     7
370
    25
100
AcDbLine
 10
0.5136231884
 20
0.2177952756
 30
0.0
 11
0.5502562621
 21
0.2177952756
 31
0.0
  0
LINE
  5
194
330
1F
100
AcDbEntity
  8
0
  6
Continuous
 62
     7
370
    25
100
AcDbLine
 10
0.5136231884
 20
0.08
 30
0.0
 11
0.5136231884
 21
0.2177952756
 31
0.0
  0
LINE
  5
195
330
1F
100
AcDbEntity
  8
0
  6
Continuous
 62
     7
370
    25
100
AcDbLine
 10
0.5335935182
 20
0.08
 30
0.0
 11
0.5136231884
 21
0.08
 31
0.0
  0
LINE
  5
196
330
1F
100
AcDbEntity
  8
0
  6
Continuous
 62
     7
370
    25
100
AcDbLine
 10
0.5335935182
 20
0.1399109894
 30
0.0
 11
0.5335935182
 21
0.08
 31
0.0
  0
LINE
  5
197
330
1F
100
AcDbEntity
  8
0
  6
Continuous
 62
     7
370
    25
100
AcDbLine
 10
0.5420497047
 20
0.1399109894
 30
0.0
 11
0.5335935182
 21
0.1399109894
 31
0.0
  0
LINE
  5
198
330
1F
100
AcDbEntity
  8
0
  6
Continuous
 62
     7
370
    25
100
AcDbLine
 10
0.5843306373
 20
0.08
 30
0.0
 11
0.5645163257
 21
0.12302982
 31
0.0
  0
LINE
  5
199
330
1F
100
AcDbEntity
  8
0
  6
Continuous
 62
     7
370
    25
100
AcDbLine
 10
0.6054867055
 20
0.08
 30
0.0
 11
0.5843306373
 21
0.08
 31
0.0
  0
LINE
  5
19A
330
1F
100
AcDbEntity
  8
0
  6
Continuous
 62
     7
370
    25
100
AcDbLine
 10
0.5844242483
 20
0.1259317585
 30
0.0
 11
0.6054867055
 21
0.08
 31
0.0
  0
LINE
  5
19B
330
1F
100
AcDbEntity
  8
0
  6
Continuous
 62
     7
370
    25
100
AcDbLine
 10
0.747276047
 20
0.2177952756
 30
0.0
 11
0.7868734666
 21
0.2177952756
 31
0.0
  0
LINE
  5
19C
330
1F
100
AcDbEntity
  8
0
  6
Continuous
 62
     7
370
    25
100
AcDbLine
 10
0.747276047
 20
0.08
 30
0.0
 11
0.747276047
 21
0.2177952756
 31
0.0
  0
LINE
  5
19D
330
1F
100
AcDbEntity
  8
0
  6
Continuous
 62
     7
370
    25
100
AcDbLine
 10
0.7830978261
 20
0.08
 30
0.0
 11
0.747276047
 21
0.08
 31
0.0
  0
LINE
  5
19E
330
1F
100
AcDbEntity
  8
0
  6
Continuous
 62
     7
370
    25
100
AcDbLine
 10
0.9769348397
 20
0.2177952756
 30
0.0
 11
1.0767864886
 21
0.2177952756
 31
0.0
  0
LINE
  5
19F
330
1F
100
AcDbEntity
  8
0
  6
Continuous
 62
     7
370
    25
100
AcDbLine
 10
0.9769348397
 20
0.2018190118
 30
0.0
 11
0.9769348397
 21
0.2177952756
 31
0.0
  0
LINE
  5
1A0
330
1F
100
AcDbEntity
  8
0
  6
Continuous
 62
     7
370
    25
100
AcDbLine
 10
1.0168754993
 20
0.2018190118
 30
0.0
 11
0.9769348397
 21
0.2018190118
 31
0.0
  0
LINE
  5
1A1
330
1F
100
AcDbEntity
  8
0
  6
Continuous
 62
     7
370
    25
100
AcDbLine
 10
1.0168754993
 20
0.08
 30
0.0
 11
1.0168754993
 21
0.2018190118
 31
0.0
  0
LINE
  5
1A2
330
1F
100
AcDbEntity
  8
0
  6
Continuous
 62
     7
370
    25
100
AcDbLine
 10
1.0368458291
 20
0.08
 30
0.0
 11
1.0168754993
 21
0.08
 31
0.0
  0
LINE
  5
1A3
330
1F
100
AcDbEntity
  8
0
  6
Continuous
 62
     7
370
    25
100
AcDbLine
 10
1.0368458291
 20
0.2018190118
 30
0.0
 11
1.0368458291
 21
0.08
 31
0.0
  0
LINE
  5
1A4
330
1F
100
AcDbEntity
  8
0
  6
Continuous
 62
     7
370
    25
100
AcDbLine
 10
1.0767864886
 20
0.2018190118
 30
0.0
 11
1.0368458291
 21
0.2018190118
 31
0.0
  0
LINE
  5
1A5
330
1F
100
AcDbEntity
  8
0
  6
Continuous
 62
     7
370
    25
100
AcDbLine
 10
1.0767864886
 20
0.2177952756
 30
0.0
 11
1.0767864886
 21
0.2018190118
 31
0.0
  0
LINE
  5
1A6
330
1F
100
AcDbEntity
  8
0
  6
Continuous
 62
     7
370
    25
100
AcDbLine
 10
0.0
 20
6.299216
 30
0.0
 11
0.0
 21
5.905515
 31
0.0
  0
LINE
  5
1A7
330
1F
100
AcDbEntity
  8
0
  6
Continuous
 62
     7
370
    25
100
AcDbLine
 10
0.0
 20
6.299216
 30
0.0
 11
0.0005115787
 21
6.299216
 31
0.0
  0
LINE
  5
1A8
330
1F
100
AcDbEntity
  8
0
  6
Continuous
 62
     7
370
    25
100
AcDbLine
 10
0.0005115787
 20
6.299216
 30
0.0
 11
0.0005115787
 21
6.298716
 31
0.0
  0
LINE
  5
1A9
330
1F
100
AcDbEntity
  8
0
  6
Continuous
 62
     7
370
    25
100
AcDbLine
 10
0.0005115787
 20
6.298716
 30
0.0
 11
0.2063174049
 21
6.298716
 31
0.0
  0
LINE
  5
1AA
330
1F
100
AcDbEntity
  8
0
  6
Continuous
 62
     7
370
    25
100
AcDbLine
 10
0.25
 20
6.3434101738
 30
0.0
 11
0.25
 21
6.6487228262
 31
0.0
  0
LINE
  5
1AB
330
1F
100
AcDbEntity
  8
0
  6
Continuous
 62
     7
370
    25
100
AcDbLine
 10
0.2063174049
 20
6.693417
 30
0.0
 11
0.0005115787
 21
6.693417
 31
0.0
  0
LINE
  5
1AC
330
1F
100
AcDbEntity
  8
0
  6
Continuous
 62
     7
370
    25
100
AcDbLine
 10
0.0005115787
 20
6.693417
 30
0.0
 11
0.0005115787
 21
6.692917
 31
0.0
  0
LINE
  5
1AD
330
1F
100
AcDbEntity
  8
0
  6
Continuous
 62
     7
370
    25
100
AcDbLine
 10
0.0005115787
 20
6.692917
 30
0.0
 11
0.0
 21
6.692917
 31
0.0
  0
LINE
  5
1AE
330
1F
100
AcDbEntity
  8
0
  6
Continuous
 62
     7
370
    25
100
AcDbLine
 10
0.0
 20
7.086618
 30
0.0
 11
0.0
 21
6.692917
 31
0.0
  0
LINE
  5
1AF
330
1F
100
AcDbEntity
  8
0
  6
Continuous
 62
     7
370
    25
100
AcDbLine
 10
0.0
 20
7.086618
 30
0.0
 11
0.0005115787
 21
7.086618
 31
0.0
  0
LINE
  5
1B0
330
1F
100
AcDbEntity
  8
0
  6
Continuous
 62
     7
370
    25
100
AcDbLine
 10
0.0005115787
 20
7.086618
 30
0.0
 11
0.0005115787
 21
7.086118
 31
0.0
  0
LINE
  5
1B1
330
1F
100
AcDbEntity
  8
0
  6
Continuous
 62
     7
370
    25
100
AcDbLine
 10
0.0005115787
 20
7.086118
 30
0.0
 11
0.2063174049
 21
7.086118
 31
0.0
  0
LINE
  5
1B2
330
1F
100
AcDbEntity
  8
0
  6
Continuous
 62
     7
370
    25
100
AcDbLine
 10
0.25
 20
7.1308121738
 30
0.0
 11
0.25
 21
7.4361248262
 31
0.0
  0
LINE
  5
1B3
330
1F
100
AcDbEntity
  8
0
  6
Continuous
 62
     7
370
    25
100
AcDbLine
 10
0.2063174049
 20
7.480819
 30
0.0
 11
0.0005115787
 21
7.480819
 31
0.0
  0
LINE
  5
1B4
330
1F
100
AcDbEntity
  8
0
  6
Continuous
 62
     7
370
    25
100
AcDbLine
 10
0.0005115787
 20
7.480819
 30
0.0
 11
0.0005115787
 21
7.480319
 31
0.0
  0
LINE
  5
1B5
330
1F
100
AcDbEntity
  8
0
  6
Continuous
 62
     7
370
    25
100
AcDbLine
 10
0.0005115787
 20
7.480319
 30
0.0
 11
0.0
 21
7.480319
 31
0.0
  0
LINE
  5
1B6
330
1F
100
AcDbEntity
  8
0
  6
Continuous
 62
     7
370
    25
100
AcDbLine
 10
0.0
 20
7.87402
 30
0.0
 11
0.0
 21
7.480319
 31
0.0
  0
LINE
  5
1B7
330
1F
100
AcDbEntity
  8
0
  6
Continuous
 62
     7
370
    25
100
AcDbLine
 10
0.7432072962
 20
7.87402
 30
0.0
 11
0.0
 21
7.87402
 31
0.0
  0
LINE
  5
1B8
330
1F
100
AcDbEntity
  8
0
  6
Continuous
 62
     7
370
    25
100
AcDbLine
 10
0.78740147
 20
8.06152
 30
0.0
 11
0.78740147
 21
7.9182141738
 31
0.0
  0
LINE
  5
1B9
330
1F
100
AcDbEntity
  8
0
  6
Continuous
 62
     7
370
    25
100
AcDbLine
 10
0.84990147
 20
8.12402
 30
0.0
 11
0.78740147
 21
8.06152
 31
0.0
  0
LINE
  5
1BA
330
1F
100
AcDbEntity
  8
0
  6
Continuous
 62
     7
370
    25
100
AcDbLine
 10
1.11860247
 20
8.12402
 30
0.0
 11
0.84990147
 21
8.12402
 31
0.0
  0
LINE
  5
1BB
330
1F
100
AcDbEntity
  8
0
  6
Continuous
 62
     7
370
    25
100
AcDbLine
 10
1.18110247
 20
8.06152
 30
0.0
 11
1.11860247
 21
8.12402
 31
0.0
  0
LINE
  5
1BC
330
1F
100
AcDbEntity
  8
0
  6
Continuous
 62
     7
370
    25
100
AcDbLine
 10
1.18110247
 20
7.9182141738
 30
0.0
 11
1.18110247
 21
8.06152
 31
0.0
  0
LINE
  5
1BD
330
1F
100
AcDbEntity
  8
0
  6
Continuous
 62
     7
370
    25
100
AcDbLine
 10
1.96850394
 20
7.87402
 30
0.0
 11
1.2252966438
 21
7.87402
 31
0.0
  0
LINE
  5
1BE
330
1F
100
AcDbEntity
  8
0
  6
Continuous
 62
     7
370
    25
100
AcDbLine
 10
1.96850394
 20
7.480319
 30
0.0
 11
1.96850394
 21
7.87402
 31
0.0
  0
LINE
  5
1BF
330
1F
100
AcDbEntity
  8
0
  6
Continuous
 62
     7
370
    25
100
AcDbLine
 10
1.96850394
 20
7.480319
 30
0.0
 11
1.9679923613
 21
7.480319
 31
0.0
  0
LINE
  5
1C0
330
1F
100
AcDbEntity
  8
0
  6
Continuous
 62
     7
370
    25
100
AcDbLine
 10
1.9679923613
 20
7.480319
 30
0.0
 11
1.9679923613
 21
7.480819
 31
0.0
  0
LINE
  5
1C1
330
1F
100
AcDbEntity
  8
0
  6
Continuous
 62
     7
370
    25
100
AcDbLine
 10
1.9679923613
 20
7.480819
 30
0.0
 11
1.7621865351
 21
7.480819
 31
0.0
  0
LINE
  5
1C2
330
1F
100
AcDbEntity
  8
0
  6
Continuous
 62
     7
370
    25
100
AcDbLine
 10
1.71850394
 20
7.4361248262
 30
0.0
 11
1.71850394
 21
7.1308121738
 31
0.0
  0
LINE
  5
1C3
330
1F
100
AcDbEntity
  8
0
  6
Continuous
 62
     7
370
    25
100
AcDbLine
 10
1.7621865351
 20
7.086118
 30
0.0
 11
1.9679923613
 21
7.086118
 31
0.0
  0
LINE
  5
1C4
330
1F
100
AcDbEntity
  8
0
  6
Continuous
 62
     7
370
    25
100
AcDbLine
 10
1.9679923613
 20
7.086118
 30
0.0
 11
1.9679923613
 21
7.086618
 31
0.0
  0
LINE
  5
1C5
330
1F
100
AcDbEntity
  8
0
  6
Continuous
 62
     7
370
    25
100
AcDbLine
 10
1.9679923613
 20
7.086618
 30
0.0
 11
1.96850394
 21
7.086618
 31
0.0
  0
LINE
  5
1C6
330
1F
100
AcDbEntity
  8
0
  6
Continuous
 62
     7
370
    25
100
AcDbLine
 10
1.96850394
 20
6.692917
 30
0.0
 11
1.96850394
 21
7.086618
 31
0.0
  0
LINE
  5
1C7
330
1F
100
AcDbEntity
  8
0
  6
Continuous
 62
     7
370
    25
100
AcDbLine
 10
1.96850394
 20
6.692917
 30
0.0
 11
1.9679923613
 21
6.692917
 31
0.0
  0
LINE
  5
1C8
330
1F
100
AcDbEntity
  8
0
  6
Continuous
 62
     7
370
    25
100
AcDbLine
 10
1.9679923613
 20
6.692917
 30
0.0
 11
1.9679923613
 21
6.693417
 31
0.0
  0
LINE
  5
1C9
330
1F
100
AcDbEntity
  8
0
  6
Continuous
 62
     7
370
    25
100
AcDbLine
 10
1.9679923613
 20
6.693417
 30
0.0
 11
1.7621865351
 21
6.693417
 31
0.0
  0
LINE
  5
1CA
330
1F
100
AcDbEntity
  8
0
  6
Continuous
 62
     7
370
    25
100
AcDbLine
 10
1.71850394
 20
6.6487228262
 30
0.0
 11
1.71850394
 21
6.3434101738
 31
0.0
  0
LINE
  5
1CB
330
1F
100
AcDbEntity
  8
0
  6
Continuous
 62
     7
370
    25
100
AcDbLine
 10
1.7621865351
 20
6.298716
 30
0.0
 11
1.9679923613
 21
6.298716
 31
0.0
  0
LINE
  5
1CC
330
1F
100
AcDbEntity
  8
0
  6
Continuous
 62
     7
370
    25
100
AcDbLine
 10
1.9679923613
 20
6.298716
 30
0.0
 11
1.9679923613
 21
6.299216
 31
0.0
  0
LINE
  5
1CD
330
1F
100
AcDbEntity
  8
0
  6
Continuous
 62
     7
370
    25
100
AcDbLine
 10
1.9679923613
 20
6.299216
 30
0.0
 11
1.96850394
 21
6.299216
 31
0.0
  0
LINE
  5
1CE
330
1F
100
AcDbEntity
  8
0
  6
Continuous
 62
     7
370
    25
100
AcDbLine
 10
1.96850394
 20
5.905515
 30
0.0
 11
1.96850394
 21
6.299216
 31
0.0
  0
LINE
  5
1CF
330
1F
100
AcDbEntity
  8
0
  6
Continuous
 62
     7
370
    25
100
AcDbLine
 10
1.96850394
 20
5.905515
 30
0.0
 11
1.9679923613
 21
5.905515
 31
0.0
  0
LINE
  5
1D0
330
1F
100
AcDbEntity
  8
0
  6
Continuous
 62
     7
370
    25
100
AcDbLine
 10
1.9679923613
 20
5.905515
 30
0.0
 11
1.9679923613
 21
5.906015
 31
0.0
  0
LINE
  5
1D1
330
1F
100
AcDbEntity
  8
0
  6
Continuous
 62
     7
370
    25
100
AcDbLine
 10
1.9679923613
 20
5.906015
 30
0.0
 11
1.7621865351
 21
5.906015
 31
0.0
  0
LINE
  5
1D2
330
1F
100
AcDbEntity
  8
0
  6
Continuous
 62
     7
370
    25
100
AcDbLine
 10
1.71850394
 20
5.8613208262
 30
0.0
 11
1.71850394
 21
5.5560081738
 31
0.0
  0
LINE
  5
1D3
330
1F
100
AcDbEntity
  8
0
  6
Continuous
 62
     7
370
    25
100
AcDbLine
 10
1.7621865351
 20
5.511314
 30
0.0
 11
1.9679923613
 21
5.511314
 31
0.0
  0
LINE
  5
1D4
330
1F
100
AcDbEntity
  8
0
  6
Continuous
 62
     7
370
    25
100
AcDbLine
 10
1.9679923613
 20
5.511314
 30
0.0
 11
1.9679923613
 21
5.511814
 31
0.0
  0
LINE
  5
1D5
330
1F
100
AcDbEntity
  8
0
  6
Continuous
 62
     7
370
    25
100
AcDbLine
 10
1.9679923613
 20
5.511814
 30
0.0
 11
1.96850394
 21
5.511814
 31
0.0
  0
LINE
  5
1D6
330
1F
100
AcDbEntity
  8
0
  6
Continuous
 62
     7
370
    25
100
AcDbLine
 10
1.96850394
 20
5.118113
 30
0.0
 11
1.96850394
 21
5.511814
 31
0.0
  0
LINE
  5
1D7
330
1F
100
AcDbEntity
  8
0
  6
Continuous
 62
     7
370
    25
100
AcDbLine
 10
1.96850394
 20
5.118113
 30
0.0
 11
1.9679923613
 21
5.118113
 31
0.0
  0
LINE
  5
1D8
330
1F
100
AcDbEntity
  8
0
  6
Continuous
 62
     7
370
    25
100
AcDbLine
 10
1.9679923613
 20
5.118113
 30
0.0
 11
1.9679923613
 21
5.118613
 31
0.0
  0
LINE
  5
1D9
330
1F
100
AcDbEntity
  8
0
  6
Continuous
 62
     7
370
    25
100
AcDbLine
 10
1.9679923613
 20
5.118613
 30
0.0
 11
1.7621865351
 21
5.118613
 31
0.0
  0
LINE
  5
1DA
330
1F
100
AcDbEntity
  8
0
  6
Continuous
 62
     7
370
    25
100
AcDbLine
 10
1.71850394
 20
5.0739188262
 30
0.0
 11
1.71850394
 21
4.7686061738
 31
0.0
  0
LINE
  5
1DB
330
1F
100
AcDbEntity
  8
0
  6
Continuous
 62
     7
370
    25
100
AcDbLine
 10
1.7621865351
 20
4.723912
 30
0.0
 11
1.9679923613
 21
4.723912
 31
0.0
  0
LINE
  5
1DC
330
1F
100
AcDbEntity
  8
0
  6
Continuous
 62
     7
370
    25
100
AcDbLine
 10
1.9679923613
 20
4.723912
 30
0.0
 11
1.9679923613
 21
4.724412
 31
0.0
  0
LINE
  5
1DD
330
1F
100
AcDbEntity
  8
0
  6
Continuous
 62
     7
370
    25
100
AcDbLine
 10
1.9679923613
 20
4.724412
 30
0.0
 11
1.96850394
 21
4.724412
 31
0.0
  0
LINE
  5
1DE
330
1F
100
AcDbEntity
  8
0
  6
Continuous
 62
     7
370
    25
100
AcDbLine
 10
1.96850394
 20
4.330711
 30
0.0
 11
1.96850394
 21
4.724412
 31
0.0
  0
LINE
  5
1DF
330
1F
100
AcDbEntity
  8
0
  6
Continuous
 62
     7
370
    25
100
AcDbLine
 10
1.96850394
 20
4.330711
 30
0.0
 11
1.9679923613
 21
4.330711
 31
0.0
  0
LINE
  5
1E0
330
1F
100
AcDbEntity
  8
0
  6
Continuous
 62
     7
370
    25
100
AcDbLine
 10
1.9679923613
 20
4.330711
 30
0.0
 11
1.9679923613
 21
4.331211
 31
0.0
  0
LINE
  5
1E1
330
1F
100
AcDbEntity
  8
0
  6
Continuous
 62
     7
370
    25
100
AcDbLine
 10
1.9679923613
 20
4.331211
 30
0.0
 11
1.7621865351
 21
4.331211
 31
0.0
  0
LINE
  5
1E2
330
1F
100
AcDbEntity
  8
0
  6
Continuous
 62
     7
370
    25
100
AcDbLine
 10
1.71850394
 20
4.2865168262
 30
0.0
 11
1.71850394
 21
3.9812041738
 31
0.0
  0
LINE
  5
1E3
330
1F
100
AcDbEntity
  8
0
  6
Continuous
 62
     7
370
    25
100
AcDbLine
 10
1.7621865351
 20
3.93651
 30
0.0
 11
1.9679923613
 21
3.93651
 31
0.0
  0
LINE
  5
1E4
330
1F
100
AcDbEntity
  8
0
  6
Continuous
 62
     7
370
    25
100
AcDbLine
 10
1.9679923613
 20
3.93651
 30
0.0
 11
1.9679923613
 21
3.93701
 31
0.0
  0
LINE
  5
1E5
330
1F
100
AcDbEntity
  8
0
  6
Continuous
 62
     7
370
    25
100
AcDbLine
 10
1.9679923613
 20
3.93701
 30
0.0
 11
1.96850394
 21
3.93701
 31
0.0
  0
LINE
  5
1E6
330
1F
100
AcDbEntity
  8
0
  6
Continuous
 62
     7
370
    25
100
AcDbLine
 10
1.96850394
 20
3.543309
 30
0.0
 11
1.96850394
 21
3.93701
 31
0.0
  0
LINE
  5
1E7
330
1F
100
AcDbEntity
  8
0
  6
Continuous
 62
     7
370
    25
100
AcDbLine
 10
1.96850394
 20
3.543309
 30
0.0
 11
1.9679923613
 21
3.543309
 31
0.0
  0
LINE
  5
1E8
330
1F
100
AcDbEntity
  8
0
  6
Continuous
 62
     7
370
    25
100
AcDbLine
 10
1.9679923613
 20
3.543309
 30
0.0
 11
1.9679923613
 21
3.543809
 31
0.0
  0
LINE
  5
1E9
330
1F
100
AcDbEntity
  8
0
  6
Continuous
 62
     7
370
    25
100
AcDbLine
 10
1.9679923613
 20
3.543809
 30
0.0
 11
1.7621865351
 21
3.543809
 31
0.0
  0
LINE
  5
1EA
330
1F
100
AcDbEntity
  8
0
  6
Continuous
 62
     7
370
    25
100
AcDbLine
 10
1.71850394
 20
3.4991148262
 30
0.0
 11
1.71850394
 21
3.1938021738
 31
0.0
  0
LINE
  5
1EB
330
1F
100
AcDbEntity
  8
0
  6
Continuous
 62
     7
370
    25
100
AcDbLine
 10
1.7621865351
 20
3.149108
 30
0.0
 11
1.9679923613
 21
3.149108
 31
0.0
  0
LINE
  5
1EC
330
1F
100
AcDbEntity
  8
0
  6
Continuous
 62
     7
370
    25
100
AcDbLine
 10
1.9679923613
 20
3.149108
 30
0.0
 11
1.9679923613
 21
3.149608
 31
0.0
  0
LINE
  5
1ED
330
1F
100
AcDbEntity
  8
0
  6
Continuous
 62
     7
370
    25
100
AcDbLine
 10
1.9679923613
 20
3.149608
 30
0.0
 11
1.96850394
 21
3.149608
 31
0.0
  0
LINE
  5
1EE
330
1F
100
AcDbEntity
  8
0
  6
Continuous
 62
     7
370
    25
100
AcDbLine
 10
1.96850394
 20
2.755907
 30
0.0
 11
1.96850394
 21
3.149608
 31
0.0
  0
LINE
  5
1EF
330
1F
100
AcDbEntity
  8
0
  6
Continuous
 62
     7
370
    25
100
AcDbLine
 10
1.96850394
 20
2.755907
 30
0.0
 11
1.9679923613
 21
2.755907
 31
0.0
  0
LINE
  5
1F0
330
1F
100
AcDbEntity
  8
0
  6
Continuous
 62
     7
370
    25
100
AcDbLine
 10
1.9679923613
 20
2.755907
 30
0.0
 11
1.9679923613
 21
2.756407
 31
0.0
  0
LINE
  5
1F1
330
1F
100
AcDbEntity
  8
0
  6
Continuous
 62
     7
370
    25
100
AcDbLine
 10
1.9679923613
 20
2.756407
 30
0.0
 11
1.7621865351
 21
2.756407
 31
0.0
  0
LINE
  5
1F2
330
1F
100
AcDbEntity
  8
0
  6
Continuous
 62
     7
370
    25
100
AcDbLine
 10
1.71850394
 20
2.7117128262
 30
0.0
 11
1.71850394
 21
2.4064001738
 31
0.0
  0
LINE
  5
1F3
330
1F
100
AcDbEntity
  8
0
  6
Continuous
 62
     7
370
    25
100
AcDbLine
 10
1.7621865351
 20
2.361706
 30
0.0
 11
1.9679923613
 21
2.361706
 31
0.0
  0
LINE
  5
1F4
330
1F
100
AcDbEntity
  8
0
  6
Continuous
 62
     7
370
    25
100
AcDbLine
 10
1.9679923613
 20
2.361706
 30
0.0
 11
1.9679923613
 21
2.362206
 31
0.0
  0
LINE
  5
1F5
330
1F
100
AcDbEntity
  8
0
  6
Continuous
 62
     7
370
    25
100
AcDbLine
 10
1.9679923613
 20
2.362206
 30
0.0
 11
1.96850394
 21
2.362206
 31
0.0
  0
LINE
  5
1F6
330
1F
100
AcDbEntity
  8
0
  6
Continuous
 62
     7
370
    25
100
AcDbLine
 10
1.96850394
 20
1.968505
 30
0.0
 11
1.96850394
 21
2.362206
 31
0.0
  0
LINE
  5
1F7
330
1F
100
AcDbEntity
  8
0
  6
Continuous
 62
     7
370
    25
100
AcDbLine
 10
1.96850394
 20
1.968505
 30
0.0
 11
1.9679923613
 21
1.968505
 31
0.0
  0
LINE
  5
1F8
330
1F
100
AcDbEntity
  8
0
  6
Continuous
 62
     7
370
    25
100
AcDbLine
 10
1.9679923613
 20
1.968505
 30
0.0
 11
1.9679923613
 21
1.969005
 31
0.0
  0
LINE
  5
1F9
330
1F
100
AcDbEntity
  8
0
  6
Continuous
 62
     7
370
    25
100
AcDbLine
 10
1.9679923613
 20
1.969005
 30
0.0
 11
1.7621865351
 21
1.969005
 31
0.0
  0
LINE
  5
1FA
330
1F
100
AcDbEntity
  8
0
  6
Continuous
 62
     7
370
    25
100
AcDbLine
 10
1.71850394
 20
1.9243108262
 30
0.0
 11
1.71850394
 21
1.6189981738
 31
0.0
  0
LINE
  5
1FB
330
1F
100
AcDbEntity
  8
0
  6
Continuous
 62
     7
370
    25
100
AcDbLine
 10
1.7621865351
 20
1.574304
 30
0.0
 11
1.9679923613
 21
1.574304
 31
0.0
  0
LINE
  5
1FC
330
1F
100
AcDbEntity
  8
0
  6
Continuous
 62
     7
370
    25
100
AcDbLine
 10
1.9679923613
 20
1.574304
 30
0.0
 11
1.9679923613
 21
1.574804
 31
0.0
  0
LINE
  5
1FD
330
1F
100
AcDbEntity
  8
0
  6
Continuous
 62
     7
370
    25
100
AcDbLine
 10
1.9679923613
 20
1.574804
 30
0.0
 11
1.96850394
 21
1.574804
 31
0.0
  0
LINE
  5
1FE
330
1F
100
AcDbEntity
  8
0
  6
Continuous
 62
     7
370
    25
100
AcDbLine
 10
1.96850394
 20
1.181103
 30
0.0
 11
1.96850394
 21
1.574804
 31
0.0
  0
LINE
  5
1FF
330
1F
100
AcDbEntity
  8
0
  6
Continuous
 62
     7
370
    25
100
AcDbLine
 10
1.96850394
 20
1.181103
 30
0.0
 11
1.9679923613
 21
1.181103
 31
0.0
  0
LINE
  5
200
330
1F
100
AcDbEntity
  8
0
  6
Continuous
 62
     7
370
    25
100
AcDbLine
 10
1.9679923613
 20
1.181103
 30
0.0
 11
1.9679923613
 21
1.181603
 31
0.0
  0
LINE
  5
201
330
1F
100
AcDbEntity
  8
0
  6
Continuous
 62
     7
370
    25
100
AcDbLine
 10
1.9679923613
 20
1.181603
 30
0.0
 11
1.7621865351
 21
1.181603
 31
0.0
  0
LINE
  5
202
330
1F
100
AcDbEntity
  8
0
  6
Continuous
 62
     7
370
    25
100
AcDbLine
 10
1.71850394
 20
1.1369088262
 30
0.0
 11
1.71850394
 21
0.8315961738
 31
0.0
  0
LINE
  5
203
330
1F
100
AcDbEntity
  8
0
  6
Continuous
 62
     7
370
    25
100
AcDbLine
 10
1.7621865351
 20
0.786902
 30
0.0
 11
1.9679923613
 21
0.786902
 31
0.0
  0
LINE
  5
204
330
1F
100
AcDbEntity
  8
0
  6
Continuous
 62
     7
370
    25
100
AcDbLine
 10
1.9679923613
 20
0.786902
 30
0.0
 11
1.9679923613
 21
0.787402
 31
0.0
  0
LINE
  5
205
330
1F
100
AcDbEntity
  8
0
  6
Continuous
 62
     7
370
    25
100
AcDbLine
 10
1.9679923613
 20
0.787402
 30
0.0
 11
1.96850394
 21
0.787402
 31
0.0
  0
LINE
  5
206
330
1F
100
AcDbEntity
  8
0
  6
Continuous
 62
     7
370
    25
100
AcDbLine
 10
1.96850394
 20
0.393701
 30
0.0
 11
1.96850394
 21
0.787402
 31
0.0
  0
LINE
  5
207
330
1F
100
AcDbEntity
  8
0
  6
Continuous
 62
     7
370
    25
100
AcDbLine
 10
1.96850394
 20
0.393701
 30
0.0
 11
1.9679923613
 21
0.393701
 31
0.0
  0
LINE
  5
208
330
1F
100
AcDbEntity
  8
0
  6
Continuous
 62
     7
370
    25
100
AcDbLine
 10
1.9679923613
 20
0.393701
 30
0.0
 11
1.9679923613
 21
0.394201
 31
0.0
  0
LINE
  5
209
330
1F
100
AcDbEntity
  8
0
  6
Continuous
 62
     7
370
    25
100
AcDbLine
 10
1.9679923613
 20
0.394201
 30
0.0
 11
1.7621865351
 21
0.394201
 31
0.0
  0
LINE
  5
20A
330
1F
100
AcDbEntity
  8
0
  6
Continuous
 62
     7
370
    25
100
AcDbLine
 10
1.71850394
 20
0.3495068262
 30
0.0
 11
1.71850394
 21
0.0
 31
0.0
  0
LINE
  5
20B
330
1F
100
AcDbEntity
  8
0
  6
Continuous
 62
     7
370
    25
100
AcDbLine
 10
1.2252966438
 20
0.0
 30
0.0
 11
1.71850394
 21
0.0
 31
0.0
  0
LINE
  5
20C
330
1F
100
AcDbEntity
  8
0
  6
Continuous
 62
     7
370
    25
100
AcDbLine
 10
1.18110247
 20
-0.1875
 30
0.0
 11
1.18110247
 21
-0.0441941738
 31
0.0
  0
LINE
  5
20D
330
1F
100
AcDbEntity
  8
0
  6
Continuous
 62
     7
370
    25
100
AcDbLine
 10
1.11860247
 20
-0.25
 30
0.0
 11
1.18110247
 21
-0.1875
 31
0.0
  0
LINE
  5
20E
330
1F
100
AcDbEntity
  8
0
  6
Continuous
 62
     7
370
    25
100
AcDbLine
 10
0.84990147
 20
-0.25
 30
0.0
 11
1.11860247
 21
-0.25
 31
0.0
  0
LINE
  5
20F
330
1F
100
AcDbEntity
  8
0
  6
Continuous
 62
     7
370
    25
100
AcDbLine
 10
0.78740147
 20
-0.1875
 30
0.0
 11
0.84990147
 21
-0.25
 31
0.0
  0
LINE
  5
210
330
1F
100
AcDbEntity
  8
0
  6
Continuous
 62
     7
370
    25
100
AcDbLine
 10
0.78740147
 20
-0.0441941738
 30
0.0
 11
0.78740147
 21
-0.1875
 31
0.0
  0
LINE
  5
211
330
1F
100
AcDbEntity
  8
0
  6
Continuous
 62
     7
370
    25
100
AcDbLine
 10
0.25
 20
0.0
 30
0.0
 11
0.7432072962
 21
0.0
 31
0.0
  0
LINE
  5
212
330
1F
100
AcDbEntity
  8
0
  6
Continuous
 62
     7
370
    25
100
AcDbLine
 10
0.25
 20
0.0
 30
0.0
 11
0.25
 21
0.3495068262
 31
0.0
  0
LINE
  5
213
330
1F
100
AcDbEntity
  8
0
  6
Continuous
 62
     7
370
    25
100
AcDbLine
 10
0.2063174049
 20
0.394201
 30
0.0
 11
0.0005115787
 21
0.394201
 31
0.0
  0
LINE
  5
214
330
1F
100
AcDbEntity
  8
0
  6
Continuous
 62
     7
370
    25
100
AcDbLine
 10
0.0005115787
 20
0.394201
 30
0.0
 11
0.0005115787
 21
0.393701
 31
0.0
  0
LINE
  5
215
330
1F
100
AcDbEntity
  8
0
  6
Continuous
 62
     7
370
    25
100
AcDbLine
 10
0.0005115787
 20
0.393701
 30
0.0
 11
0.0
 21
0.393701
 31
0.0
  0
LINE
  5
216
330
1F
100
AcDbEntity
  8
0
  6
Continuous
 62
     7
370
    25
100
AcDbLine
 10
0.0
 20
0.787402
 30
0.0
 11
0.0
 21
0.393701
 31
0.0
  0
LINE
  5
217
330
1F
100
AcDbEntity
  8
0
  6
Continuous
 62
     7
370
    25
100
AcDbLine
 10
0.0
 20
0.787402
 30
0.0
 11
0.0005115787
 21
0.787402
 31
0.0
  0
LINE
  5
218
330
1F
100
AcDbEntity
  8
0
  6
Continuous
 62
     7
370
    25
100
AcDbLine
 10
0.0005115787
 20
0.787402
 30
0.0
 11
0.0005115787
 21
0.786902
 31
0.0
  0
LINE
  5
219
330
1F
100
AcDbEntity
  8
0
  6
Continuous
 62
     7
370
    25
100
AcDbLine
 10
0.0005115787
 20
0.786902
 30
0.0
 11
0.2063174049
 21
0.786902
 31
0.0
  0
LINE
  5
21A
330
1F
100
AcDbEntity
  8
0
  6
Continuous
 62
     7
370
    25
100
AcDbLine
 10
0.25
 20
0.8315961738
 30
0.0
 11
0.25
 21
1.1369088262
 31
0.0
  0
LINE
  5
21B
330
1F
100
AcDbEntity
  8
0
  6
Continuous
 62
     7
370
    25
100
AcDbLine
 10
0.2063174049
 20
1.181603
 30
0.0
 11
0.0005115787
 21
1.181603
 31
0.0
  0
LINE
  5
21C
330
1F
100
AcDbEntity
  8
0
  6
Continuous
 62
     7
370
    25
100
AcDbLine
 10
0.0005115787
 20
1.181603
 30
0.0
 11
0.0005115787
 21
1.181103
 31
0.0
  0
LINE
  5
21D
330
1F
100
AcDbEntity
  8
0
  6
Continuous
 62
     7
370
    25
100
AcDbLine
 10
0.0005115787
 20
1.181103
 30
0.0
 11
0.0
 21
1.181103
 31
0.0
  0
LINE
  5
21E
330
1F
100
AcDbEntity
  8
0
  6
Continuous
 62
     7
370
    25
100
AcDbLine
 10
0.0
 20
1.574804
 30
0.0
 11
0.0
 21
1.181103
 31
0.0
  0
LINE
  5
21F
330
1F
100
AcDbEntity
  8
0
  6
Continuous
 62
     7
370
    25
100
AcDbLine
 10
0.0
 20
1.574804
 30
0.0
 11
0.0005115787
 21
1.574804
 31
0.0
  0
LINE
  5
220
330
1F
100
AcDbEntity
  8
0
  6
Continuous
 62
     7
370
    25
100
AcDbLine
 10
0.0005115787
 20
1.574804
 30
0.0
 11
0.0005115787
 21
1.574304
 31
0.0
  0
LINE
  5
221
330
1F
100
AcDbEntity
  8
0
  6
Continuous
 62
     7
370
    25
100
AcDbLine
 10
0.0005115787
 20
1.574304
 30
0.0
 11
0.2063174049
 21
1.574304
 31
0.0
  0
LINE
  5
222
330
1F
100
AcDbEntity
  8
0
  6
Continuous
 62
     7
370
    25
100
AcDbLine
 10
0.25
 20
1.6189981738
 30
0.0
 11
0.25
 21
1.9243108262
 31
0.0
  0
LINE
  5
223
330
1F
100
AcDbEntity
  8
0
  6
Continuous
 62
     7
370
    25
100
AcDbLine
 10
0.2063174049
 20
1.969005
 30
0.0
 11
0.0005115787
 21
1.969005
 31
0.0
  0
LINE
  5
224
330
1F
100
AcDbEntity
  8
0
  6
Continuous
 62
     7
370
    25
100
AcDbLine
 10
0.0005115787
 20
1.969005
 30
0.0
 11
0.0005115787
 21
1.968505
 31
0.0
  0
LINE
  5
225
330
1F
100
AcDbEntity
  8
0
  6
Continuous
 62
     7
370
    25
100
AcDbLine
 10
0.0005115787
 20
1.968505
 30
0.0
 11
0.0
 21
1.968505
 31
0.0
  0
LINE
  5
226
330
1F
100
AcDbEntity
  8
0
  6
Continuous
 62
     7
370
    25
100
AcDbLine
 10
0.0
 20
2.362206
 30
0.0
 11
0.0
 21
1.968505
 31
0.0
  0
LINE
  5
227
330
1F
100
AcDbEntity
  8
0
  6
Continuous
 62
     7
370
    25
100
AcDbLine
 10
0.0
 20
2.362206
 30
0.0
 11
0.0005115787
 21
2.362206
 31
0.0
  0
LINE
  5
228
330
1F
100
AcDbEntity
  8
0
  6
Continuous
 62
     7
370
    25
100
AcDbLine
 10
0.0005115787
 20
2.362206
 30
0.0
 11
0.0005115787
 21
2.361706
 31
0.0
  0
LINE
  5
229
330
1F
100
AcDbEntity
  8
0
  6
Continuous
 62
     7
370
    25
100
AcDbLine
 10
0.0005115787
 20
2.361706
 30
0.0
 11
0.2063174049
 21
2.361706
 31
0.0
  0
LINE
  5
22A
330
1F
100
AcDbEntity
  8
0
  6
Continuous
 62
     7
370
    25
100
AcDbLine
 10
0.25
 20
2.4064001738
 30
0.0
 11
0.25
 21
2.7117128262
 31
0.0
  0
LINE
  5
22B
330
1F
100
AcDbEntity
  8
0
  6
Continuous
 62
     7
370
    25
100
AcDbLine
 10
0.2063174049
 20
2.756407
 30
0.0
 11
0.0005115787
 21
2.756407
 31
0.0
  0
LINE
  5
22C
330
1F
100
AcDbEntity
  8
0
  6
Continuous
 62
     7
370
    25
100
AcDbLine
 10
0.0005115787
 20
2.756407
 30
0.0
 11
0.0005115787
 21
2.755907
 31
0.0
  0
LINE
  5
22D
330
1F
100
AcDbEntity
  8
0
  6
Continuous
 62
     7
370
    25
100
AcDbLine
 10
0.0005115787
 20
2.755907
 30
0.0
 11
0.0
 21
2.755907
 31
0.0
  0
LINE
  5
22E
330
1F
100
AcDbEntity
  8
0
  6
Continuous
 62
     7
370
    25
100
AcDbLine
 10
0.0
 20
3.149608
 30
0.0
 11
0.0
 21
2.755907
 31
0.0
  0
LINE
  5
22F
330
1F
100
AcDbEntity
  8
0
  6
Continuous
 62
     7
370
    25
100
AcDbLine
 10
0.0
 20
3.149608
 30
0.0
 11
0.0005115787
 21
3.149608
 31
0.0
  0
LINE
  5
230
330
1F
100
AcDbEntity
  8
0
  6
Continuous
 62
     7
370
    25
100
AcDbLine
 10
0.0005115787
 20
3.149608
 30
0.0
 11
0.0005115787
 21
3.149108
 31
0.0
  0
LINE
  5
231
330
1F
100
AcDbEntity
  8
0
  6
Continuous
 62
     7
370
    25
100
AcDbLine
 10
0.0005115787
 20
3.149108
 30
0.0
 11
0.2063174049
 21
3.149108
 31
0.0
  0
LINE
  5
232
330
1F
100
AcDbEntity
  8
0
  6
Continuous
 62
     7
370
    25
100
AcDbLine
 10
0.25
 20
3.1938021738
 30
0.0
 11
0.25
 21
3.4991148262
 31
0.0
  0
LINE
  5
233
330
1F
100
AcDbEntity
  8
0
  6
Continuous
 62
     7
370
    25
100
AcDbLine
 10
0.2063174049
 20
3.543809
 30
0.0
 11
0.0005115787
 21
3.543809
 31
0.0
  0
LINE
  5
234
330
1F
100
AcDbEntity
  8
0
  6
Continuous
 62
     7
370
    25
100
AcDbLine
 10
0.0005115787
 20
3.543809
 30
0.0
 11
0.0005115787
 21
3.543309
 31
0.0
  0
LINE
  5
235
330
1F
100
AcDbEntity
  8
0
  6
Continuous
 62
     7
370
    25
100
AcDbLine
 10
0.0005115787
 20
3.543309
 30
0.0
 11
0.0
 21
3.543309
 31
0.0
  0
LINE
  5
236
330
1F
100
AcDbEntity
  8
0
  6
Continuous
 62
     7
370
    25
100
AcDbLine
 10
0.0
 20
3.93701
 30
0.0
 11
0.0
 21
3.543309
 31
0.0
  0
LINE
  5
237
330
1F
100
AcDbEntity
  8
0
  6
Continuous
 62
     7
370
    25
100
AcDbLine
 10
0.0
 20
3.93701
 30
0.0
 11
0.0005115787
 21
3.93701
 31
0.0
  0
LINE
  5
238
330
1F
100
AcDbEntity
  8
0
  6
Continuous
 62
     7
370
    25
100
AcDbLine
 10
0.0005115787
 20
3.93701
 30
0.0
 11
0.0005115787
 21
3.93651
 31
0.0
  0
LINE
  5
239
330
1F
100
AcDbEntity
  8
0
  6
Continuous
 62
     7
370
    25
100
AcDbLine
 10
0.0005115787
 20
3.93651
 30
0.0
 11
0.2063174049
 21
3.93651
 31
0.0
  0
LINE
  5
23A
330
1F
100
AcDbEntity
  8
0
  6
Continuous
 62
     7
370
    25
100
AcDbLine
 10
0.25
 20
3.9812041738
 30
0.0
 11
0.25
 21
4.2865168262
 31
0.0
  0
LINE
  5
23B
330
1F
100
AcDbEntity
  8
0
  6
Continuous
 62
     7
370
    25
100
AcDbLine
 10
0.2063174049
 20
4.331211
 30
0.0
 11
0.0005115787
 21
4.331211
 31
0.0
  0
LINE
  5
23C
330
1F
100
AcDbEntity
  8
0
  6
Continuous
 62
     7
370
    25
100
AcDbLine
 10
0.0005115787
 20
4.331211
 30
0.0
 11
0.0005115787
 21
4.330711
 31
0.0
  0
LINE
  5
23D
330
1F
100
AcDbEntity
  8
0
  6
Continuous
 62
     7
370
    25
100
AcDbLine
 10
0.0005115787
 20
4.330711
 30
0.0
 11
0.0
 21
4.330711
 31
0.0
  0
LINE
  5
23E
330
1F
100
AcDbEntity
  8
0
  6
Continuous
 62
     7
370
    25
100
AcDbLine
 10
0.0
 20
4.724412
 30
0.0
 11
0.0
 21
4.330711
 31
0.0
  0
LINE
  5
23F
330
1F
100
AcDbEntity
  8
0
  6
Continuous
 62
     7
370
    25
100
AcDbLine
 10
0.0
 20
4.724412
 30
0.0
 11
0.0005115787
 21
4.724412
 31
0.0
  0
LINE
  5
240
330
1F
100
AcDbEntity
  8
0
  6
Continuous
 62
     7
370
    25
100
AcDbLine
 10
0.0005115787
 20
4.724412
 30
0.0
 11
0.0005115787
 21
4.723912
 31
0.0
  0
LINE
  5
241
330
1F
100
AcDbEntity
  8
0
  6
Continuous
 62
     7
370
    25
100
AcDbLine
 10
0.0005115787
 20
4.723912
 30
0.0
 11
0.2063174049
 21
4.723912
 31
0.0
  0
LINE
  5
242
330
1F
100
AcDbEntity
  8
0
  6
Continuous
 62
     7
370
    25
100
AcDbLine
 10
0.25
 20
4.7686061738
 30
0.0
 11
0.25
 21
5.0739188262
 31
0.0
  0
LINE
  5
243
330
1F
100
AcDbEntity
  8
0
  6
Continuous
 62
     7
370
    25
100
AcDbLine
 10
0.2063174049
 20
5.118613
 30
0.0
 11
0.0005115787
 21
5.118613
 31
0.0
  0
LINE
  5
244
330
1F
100
AcDbEntity
  8
0
  6
Continuous
 62
     7
370
    25
100
AcDbLine
 10
0.0005115787
 20
5.118613
 30
0.0
 11
0.0005115787
 21
5.118113
 31
0.0
  0
LINE
  5
245
330
1F
100
AcDbEntity
  8
0
  6
Continuous
 62
     7
370
    25
100
AcDbLine
 10
0.0005115787
 20
5.118113
 30
0.0
 11
0.0
 21
5.118113
 31
0.0
  0
LINE
  5
246
330
1F
100
AcDbEntity
  8
0
  6
Continuous
 62
     7
370
    25
100
AcDbLine
 10
0.0
 20
5.511814
 30
0.0
 11
0.0
 21
5.118113
 31
0.0
  0
LINE
  5
247
330
1F
100
AcDbEntity
  8
0
  6
Continuous
 62
     7
370
    25
100
AcDbLine
 10
0.0
 20
5.511814
 30
0.0
 11
0.0005115787
 21
5.511814
 31
0.0
  0
LINE
  5
248
330
1F
100
AcDbEntity
  8
0
  6
Continuous
 62
     7
370
    25
100
AcDbLine
 10
0.0005115787
 20
5.511814
 30
0.0
 11
0.0005115787
 21
5.511314
 31
0.0
  0
LINE
  5
249
330
1F
100
AcDbEntity
  8
0
  6
Continuous
 62
     7
370
    25
100
AcDbLine
 10
0.0005115787
 20
5.511314
 30
0.0
 11
0.2063174049
 21
5.511314
 31
0.0
  0
LINE
  5
24A
330
1F
100
AcDbEntity
  8
0
  6
Continuous
 62
     7
370
    25
100
AcDbLine
 10
0.25
 20
5.5560081738
 30
0.0
 11
0.25
 21
5.8613208262
 31
0.0
  0
LINE
  5
24B
330
1F
100
AcDbEntity
  8
0
  6
Continuous
 62
     7
370
    25
100
AcDbLine
 10
0.2063174049
 20
5.906015
 30
0.0
 11
0.0005115787
 21
5.906015
 31
0.0
  0
LINE
  5
24C
330
1F
100
AcDbEntity
  8
0
  6
Continuous
 62
     7
370
    25
100
AcDbLine
 10
0.0005115787
 20
5.906015
 30
0.0
 11
0.0005115787
 21
5.905515
 31
0.0
  0
LINE
  5
24D
330
1F
100
AcDbEntity
  8
0
  6
Continuous
 62
     7
370
    25
100
AcDbLine
 10
0.0005115787
 20
5.905515
 30
0.0
 11
0.0
 21
5.905515
 31
0.0
  0
LINE
  5
24E
330
1F
100
AcDbEntity
  8
0
  6
Continuous
 62
     7
370
    25
100
AcDbLine
 10
0.8670980258
 20
0.0959762638
 30
0.0
 11
0.8990505535
 21
0.0959762638
 31
0.0
  0
LINE
  5
24F
330
1F
100
AcDbEntity
  8
0
  6
Continuous
 62
     7
370
    25
100
AcDbLine
 10
0.8670980258
 20
0.08
 30
0.0
 11
0.8670980258
 21
0.0959762638
 31
0.0
  0
LINE
  5
250
330
1F
100
AcDbEntity
  8
0
  6
Continuous
 62
     7
370
    25
100
AcDbLine
 10
0.9509734109
 20
0.08
 30
0.0
 11
0.8670980258
 21
0.08
 31
0.0
  0
LINE
  5
251
330
1F
100
AcDbEntity
  8
0
  6
Continuous
 62
     7
370
    25
100
AcDbLine
 10
0.9509734109
 20
0.0959762638
 30
0.0
 11
0.9509734109
 21
0.08
 31
0.0
  0
LINE
  5
252
330
1F
100
AcDbEntity
  8
0
  6
Continuous
 62
     7
370
    25
100
AcDbLine
 10
0.9190208833
 20
0.0959762638
 30
0.0
 11
0.9509734109
 21
0.0959762638
 31
0.0
  0
LINE
  5
253
330
1F
100
AcDbEntity
  8
0
  6
Continuous
 62
     7
370
    25
100
AcDbLine
 10
0.9190208833
 20
0.2018190118
 30
0.0
 11
0.9190208833
 21
0.0959762638
 31
0.0
  0
LINE
  5
254
330
1F
100
AcDbEntity
  8
0
  6
Continuous
 62
     7
370
    25
100
AcDbLine
 10
0.9509734109
 20
0.2018190118
 30
0.0
 11
0.9190208833
 21
0.2018190118
 31
0.0
  0
LINE
  5
255
330
1F
100
AcDbEntity
  8
0
  6
Continuous
 62
     7
370
    25
100
AcDbLine
 10
0.9509734109
 20
0.2177952756
 30
0.0
 11
0.9509734109
 21
0.2018190118
 31
0.0
  0
LINE
  5
256
330
1F
100
AcDbEntity
  8
0
  6
Continuous
 62
     7
370
    25
100
AcDbLine
 10
0.8670980258
 20
0.2177952756
 30
0.0
 11
0.9509734109
 21
0.2177952756
 31
0.0
  0
LINE
  5
257
330
1F
100
AcDbEntity
  8
0
  6
Continuous
 62
     7
370
    25
100
AcDbLine
 10
0.8670980258
 20
0.2018190118
 30
0.0
 11
0.8670980258
 21
0.2177952756
 31
0.0
  0
LINE
  5
258
330
1F
100
AcDbEntity
  8
0
  6
Continuous
 62
     7
370
    25
100
AcDbLine
 10
0.8990505535
 20
0.2018190118
 30
0.0
 11
0.8670980258
 21
0.2018190118
 31
0.0
  0
LINE
  5
259
330
1F
100
AcDbEntity
  8
0
  6
Continuous
 62
     7
370
    25
100
AcDbLine
 10
0.8990505535
 20
0.0959762638
 30
0.0
 11
0.8990505535
 21
0.2018190118
 31
0.0
  0
LINE
  5
25A
330
1F
100
AcDbEntity
  8
0
  6
Continuous
 62
     7
370
    25
100
AcDbLine
 10
0.6134748374
 20
0.0520415383
 30
0.0
 11
0.7312997832
 21
0.0520415383
 31
0.0
  0
LINE
  5
25B
330
1F
100
AcDbEntity
  8
0
  6
Continuous
 62
     7
370
    25
100
AcDbLine
 10
0.6134748374
 20
0.0360652744
 30
0.0
 11
0.6134748374
 21
0.0520415383
 31
0.0
  0
LINE
  5
25C
330
1F
100
AcDbEntity
  8
0
  6
Continuous
 62
     7
370
    25
100
AcDbLine
 10
0.7312997832
 20
0.0360652744
 30
0.0
 11
0.6134748374
 21
0.0360652744
 31
0.0
  0
LINE
  5
25D
330
1F
100
AcDbEntity
  8
0
  6
Continuous
 62
     7
370
    25
100
AcDbLine
 10
0.7312997832
 20
0.0520415383
 30
0.0
 11
0.7312997832
 21
0.0360652744
 31
0.0
  0
LINE
  5
25E
330
1F
100
AcDbEntity
  8
0
  6
Continuous
 62
     7
370
    25
100
AcDbLine
 10
0.5335935182
 20
0.1558872532
 30
0.0
 11
0.5480408037
 21
0.1558872532
 31
0.0
  0
LINE
  5
25F
330
1F
100
AcDbEntity
  8
0
  6
Continuous
 62
     7
370
    25
100
AcDbLine
 10
0.5335935182
 20
0.2018190118
 30
0.0
 11
0.5335935182
 21
0.1558872532
 31
0.0
  0
LINE
  5
260
330
1F
100
AcDbEntity
  8
0
  6
Continuous
 62
     7
370
    25
100
AcDbLine
 10
0.550443484
 20
0.2018190118
 30
0.0
 11
0.5335935182
 21
0.2018190118
 31
0.0
  0
LINE
  5
261
330
1F
100
AcDbEntity
  8
0
  6
Continuous
 62
     7
370
    25
100
AcDbLine
 10
0.7672463768
 20
0.0959762638
 30
0.0
 11
0.7863742083
 21
0.0959762638
 31
0.0
  0
LINE
  5
262
330
1F
100
AcDbEntity
  8
0
  6
Continuous
 62
     7
370
    25
100
AcDbLine
 10
0.7672463768
 20
0.1439050553
 30
0.0
 11
0.7672463768
 21
0.0959762638
 31
0.0
  0
LINE
  5
263
330
1F
100
AcDbEntity
  8
0
  6
Continuous
 62
     7
370
    25
100
AcDbLine
 10
0.7857501355
 20
0.1439050553
 30
0.0
 11
0.7672463768
 21
0.1439050553
 31
0.0
  0
LINE
  5
264
330
1F
100
AcDbEntity
  8
0
  6
Continuous
 62
     7
370
    25
100
AcDbLine
 10
0.7672463768
 20
0.1598813192
 30
0.0
 11
0.7855005064
 21
0.1598813192
 31
0.0
  0
LINE
  5
265
330
1F
100
AcDbEntity
  8
0
  6
Continuous
 62
     7
370
    25
100
AcDbLine
 10
0.7672463768
 20
0.2018190118
 30
0.0
 11
0.7672463768
 21
0.1598813192
 31
0.0
  0
LINE
  5
266
330
1F
100
AcDbEntity
  8
0
  6
Continuous
 62
     7
370
    25
100
AcDbLine
 10
0.7861245792
 20
0.2018190118
 30
0.0
 11
0.7672463768
 21
0.2018190118
 31
0.0
  0
ARC
  5
267
330
1F
100
AcDbEntity
  8
0
  6
Continuous
 62
     7
370
    25
100
AcDbCircle
 10
0.2279029131
 20
6.3213130869
 30
0.0
 40
0.0312500000000006
100
AcDbArc
 50
226.3115813606
 51
45.0
  0
ARC
  5
268
330
1F
100
AcDbEntity
  8
0
  6
Continuous
 62
     7
370
    25
100
AcDbCircle
 10
0.2279029131
 20
6.6708199131
 30
0.0
 40
0.0312500000000002
100
AcDbArc
 50
315.0
 51
133.6884186394
  0
ARC
  5
269
330
1F
100
AcDbEntity
  8
0
  6
Continuous
 62
     7
370
    25
100
AcDbCircle
 10
0.2279029131
 20
7.1087150869
 30
0.0
 40
0.0312500000000003
100
AcDbArc
 50
226.3115813606
 51
45.0
  0
ARC
  5
26A
330
1F
100
AcDbEntity
  8
0
  6
Continuous
 62
     7
370
    25
100
AcDbCircle
 10
0.2279029131
 20
7.4582219131
 30
0.0
 40
0.0312500000000005
100
AcDbArc
 50
315.0
 51
133.6884186394
  0
ARC
  5
26B
330
1F
100
AcDbEntity
  8
0
  6
Continuous
 62
     7
370
    25
100
AcDbCircle
 10
0.7653043831
 20
7.8961170869
 30
0.0
 40
0.0312500000000007
100
AcDbArc
 50
225.0
 51
45.0
  0
ARC
  5
26C
330
1F
100
AcDbEntity
  8
0
  6
Continuous
 62
     7
370
    25
100
AcDbCircle
 10
1.2031995569
 20
7.8961170869
 30
0.0
 40
0.031250000000001
100
AcDbArc
 50
135.0
 51
315.0
  0
ARC
  5
26D
330
1F
100
AcDbEntity
  8
0
  6
Continuous
 62
     7
370
    25
100
AcDbCircle
 10
1.7406010269
 20
7.4582219131
 30
0.0
 40
0.0312500000000002
100
AcDbArc
 50
46.3115813606
 51
225.0
  0
ARC
  5
26E
330
1F
100
AcDbEntity
  8
0
  6
Continuous
 62
     7
370
    25
100
AcDbCircle
 10
1.7406010269
 20
7.1087150869
 30
0.0
 40
0.0312500000000009
100
AcDbArc
 50
135.0
 51
313.6884186394
  0
ARC
  5
26F
330
1F
100
AcDbEntity
  8
0
  6
Continuous
 62
     7
370
    25
100
AcDbCircle
 10
1.7406010269
 20
6.6708199131
 30
0.0
 40
0.0312500000000005
100
AcDbArc
 50
46.3115813606
 51
225.0
  0
ARC
  5
270
330
1F
100
AcDbEntity
  8
0
  6
Continuous
 62
     7
370
    25
100
AcDbCircle
 10
1.7406010269
 20
6.3213130869
 30
0.0
 40
0.0312500000000006
100
AcDbArc
 50
135.0
 51
313.6884186394
  0
ARC
  5
271
330
1F
100
AcDbEntity
  8
0
  6
Continuous
 62
     7
370
    25
100
AcDbCircle
 10
1.7406010269
 20
5.8834179131
 30
0.0
 40
0.0312500000000005
100
AcDbArc
 50
46.3115813606
 51
225.0
  0
ARC
  5
272
330
1F
100
AcDbEntity
  8
0
  6
Continuous
 62
     7
370
    25
100
AcDbCircle
 10
1.7406010269
 20
5.5339110869
 30
0.0
 40
0.0312500000000004
100
AcDbArc
 50
135.0
 51
313.6884186394
  0
ARC
  5
273
330
1F
100
AcDbEntity
  8
0
  6
Continuous
 62
     7
370
    25
100
AcDbCircle
 10
1.7406010269
 20
5.0960159131
 30
0.0
 40
0.0312500000000009
100
AcDbArc
 50
46.3115813606
 51
225.0
  0
ARC
  5
274
330
1F
100
AcDbEntity
  8
0
  6
Continuous
 62
     7
370
    25
100
AcDbCircle
 10
1.7406010269
 20
4.7465090869
 30
0.0
 40
0.0312500000000008
100
AcDbArc
 50
135.0
 51
313.6884186394
  0
ARC
  5
275
330
1F
100
AcDbEntity
  8
0
  6
Continuous
 62
     7
370
    25
100
AcDbCircle
 10
1.7406010269
 20
4.3086139131
 30
0.0
 40
0.0312500000000002
100
AcDbArc
 50
46.3115813606
 51
225.0
  0
ARC
  5
276
330
1F
100
AcDbEntity
  8
0
  6
Continuous
 62
     7
370
    25
100
AcDbCircle
 10
1.7406010269
 20
3.9591070869
 30
0.0
 40
0.0312500000000002
100
AcDbArc
 50
135.0
 51
313.6884186394
  0
ARC
  5
277
330
1F
100
AcDbEntity
  8
0
  6
Continuous
 62
     7
370
    25
100
AcDbCircle
 10
1.7406010269
 20
3.5212119131
 30
0.0
 40
0.0312500000000002
100
AcDbArc
 50
46.3115813606
 51
225.0
  0
ARC
  5
278
330
1F
100
AcDbEntity
  8
0
  6
Continuous
 62
     7
370
    25
100
AcDbCircle
 10
1.7406010269
 20
3.1717050869
 30
0.0
 40
0.0312500000000005
100
AcDbArc
 50
135.0
 51
313.6884186394
  0
ARC
  5
279
330
1F
100
AcDbEntity
  8
0
  6
Continuous
 62
     7
370
    25
100
AcDbCircle
 10
1.7406010269
 20
2.7338099131
 30
0.0
 40
0.0312500000000002
100
AcDbArc
 50
46.3115813606
 51
225.0
  0
ARC
  5
27A
330
1F
100
AcDbEntity
  8
0
  6
Continuous
 62
     7
370
    25
100
AcDbCircle
 10
1.7406010269
 20
2.3843030869
 30
0.0
 40
0.0312499999999999
100
AcDbArc
 50
135.0
 51
313.6884186394
  0
ARC
  5
27B
330
1F
100
AcDbEntity
  8
0
  6
Continuous
 62
     7
370
    25
100
AcDbCircle
 10
1.7406010269
 20
1.9464079131
 30
0.0
 40
0.0312500000000002
100
AcDbArc
 50
46.3115813606
 51
225.0
  0
ARC
  5
27C
330
1F
100
AcDbEntity
  8
0
  6
Continuous
 62
     7
370
    25
100
AcDbCircle
 10
1.7406010269
 20
1.5969010869
 30
0.0
 40
0.03125
100
AcDbArc
 50
135.0
 51
313.6884186394
  0
ARC
  5
27D
330
1F
100
AcDbEntity
  8
0
  6
Continuous
 62
     7
370
    25
100
AcDbCircle
 10
1.7406010269
 20
1.1590059131
 30
0.0
 40
0.0312500000000002
100
AcDbArc
 50
46.3115813606
 51
225.0
  0
ARC
  5
27E
330
1F
100
AcDbEntity
  8
0
  6
Continuous
 62
     7
370
    25
100
AcDbCircle
 10
1.7406010269
 20
0.8094990869
 30
0.0
 40
0.03125
100
AcDbArc
 50
135.0
 51
313.6884186394
  0
ARC
  5
27F
330
1F
100
AcDbEntity
  8
0
  6
Continuous
 62
     7
370
    25
100
AcDbCircle
 10
1.7406010269
 20
0.3716039131
 30
0.0
 40
0.0312500000000002
100
AcDbArc
 50
46.3115813606
 51
225.0
  0
ARC
  5
280
330
1F
100
AcDbEntity
  8
0
  6
Continuous
 62
     7
370
    25
100
AcDbCircle
 10
1.2031995569
 20
-0.0220970869
 30
0.0
 40
0.0312500000000001
100
AcDbArc
 50
45.0
 51
225.0
  0
ARC
  5
281
330
1F
100
AcDbEntity
  8
0
  6
Continuous
 62
     7
370
    25
100
AcDbCircle
 10
0.7653043831
 20
-0.0220970869
 30
0.0
 40
0.0312500000000001
100
AcDbArc
 50
315.0
 51
135.0
  0
ARC
  5
282
330
1F
100
AcDbEntity
  8
0
  6
Continuous
 62
     7
370
    25
100
AcDbCircle
 10
0.2279029131
 20
0.3716039131
 30
0.0
 40
0.03125
100
AcDbArc
 50
315.0
 51
133.6884186394
  0
ARC
  5
283
330
1F
100
AcDbEntity
  8
0
  6
Continuous
 62
     7
370
    25
100
AcDbCircle
 10
0.2279029131
 20
0.8094990869
 30
0.0
 40
0.0312500000000001
100
AcDbArc
 50
226.3115813606
 51
45.0
  0
ARC
  5
284
330
1F
100
AcDbEntity
  8
0
  6
Continuous
 62
     7
370
    25
100
AcDbCircle
 10
0.2279029131
 20
1.1590059131
 30
0.0
 40
0.0312500000000001
100
AcDbArc
 50
315.0
 51
133.6884186394
  0
ARC
  5
285
330
1F
100
AcDbEntity
  8
0
  6
Continuous
 62
     7
370
    25
100
AcDbCircle
 10
0.2279029131
 20
1.5969010869
 30
0.0
 40
0.0312500000000001
100
AcDbArc
 50
226.3115813606
 51
45.0
  0
ARC
  5
286
330
1F
100
AcDbEntity
  8
0
  6
Continuous
 62
     7
370
    25
100
AcDbCircle
 10
0.2279029131
 20
1.9464079131
 30
0.0
 40
0.03125
100
AcDbArc
 50
315.0
 51
133.6884186394
  0
ARC
  5
287
330
1F
100
AcDbEntity
  8
0
  6
Continuous
 62
     7
370
    25
100
AcDbCircle
 10
0.2279029131
 20
2.3843030869
 30
0.0
 40
0.03125
100
AcDbArc
 50
226.3115813606
 51
45.0
  0
ARC
  5
288
330
1F
100
AcDbEntity
  8
0
  6
Continuous
 62
     7
370
    25
100
AcDbCircle
 10
0.2279029131
 20
2.7338099131
 30
0.0
 40
0.0312500000000004
100
AcDbArc
 50
315.0
 51
133.6884186394
  0
ARC
  5
289
330
1F
100
AcDbEntity
  8
0
  6
Continuous
 62
     7
370
    25
100
AcDbCircle
 10
0.2279029131
 20
3.1717050869
 30
0.0
 40
0.0312500000000003
100
AcDbArc
 50
226.3115813606
 51
45.0
  0
ARC
  5
28A
330
1F
100
AcDbEntity
  8
0
  6
Continuous
 62
     7
370
    25
100
AcDbCircle
 10
0.2279029131
 20
3.5212119131
 30
0.0
 40
0.0312500000000004
100
AcDbArc
 50
315.0
 51
133.6884186394
  0
ARC
  5
28B
330
1F
100
AcDbEntity
  8
0
  6
Continuous
 62
     7
370
    25
100
AcDbCircle
 10
0.2279029131
 20
3.9591070869
 30
0.0
 40
0.0312500000000008
100
AcDbArc
 50
226.3115813606
 51
45.0
  0
ARC
  5
28C
330
1F
100
AcDbEntity
  8
0
  6
Continuous
 62
     7
370
    25
100
AcDbCircle
 10
0.2279029131
 20
4.3086139131
 30
0.0
 40
0.0312500000000001
100
AcDbArc
 50
315.0
 51
133.6884186394
  0
ARC
  5
28D
330
1F
100
AcDbEntity
  8
0
  6
Continuous
 62
     7
370
    25
100
AcDbCircle
 10
0.2279029131
 20
4.7465090869
 30
0.0
 40
0.0312500000000002
100
AcDbArc
 50
226.3115813606
 51
45.0
  0
ARC
  5
28E
330
1F
100
AcDbEntity
  8
0
  6
Continuous
 62
     7
370
    25
100
AcDbCircle
 10
0.2279029131
 20
5.0960159131
 30
0.0
 40
0.0312500000000004
100
AcDbArc
 50
315.0
 51
133.6884186394
  0
ARC
  5
28F
330
1F
100
AcDbEntity
  8
0
  6
Continuous
 62
     7
370
    25
100
AcDbCircle
 10
0.2279029131
 20
5.5339110869
 30
0.0
 40
0.0312500000000012
100
AcDbArc
 50
226.3115813606
 51
45.0
  0
ARC
  5
290
330
1F
100
AcDbEntity
  8
0
  6
Continuous
 62
     7
370
    25
100
AcDbCircle
 10
0.2279029131
 20
5.8834179131
 30
0.0
 40
0.0312500000000002
100
AcDbArc
 50
315.0
 51
133.6884186394
  0
ENDSEC
  0
SECTION
  2
OBJECTS
  0
DICTIONARY
  5
C
330
0
100
AcDbDictionary
281
     1
  3
ACAD_GROUP
350
D
  3
ACAD_LAYOUT
350
1A
  3
ACAD_MLINESTYLE
350
17
  3
ACAD_PLOTSETTINGS
350
19
  3
ACAD_PLOTSTYLENAME
350
E
  3
ACAD_SCALELIST
350
47
  0
DICTIONARY
  5
D
102
{ACAD_REACTORS
330
C
102
}
330
C
100
AcDbDictionary
281
     1
  0
DICTIONARY
  5
1A
102
{ACAD_REACTORS
330
C
102
}
330
C
100
AcDbDictionary
281
     1
  3
Layout1
350
1E
  3
Layout2
350
26
  3
Model
350
22
  0
DICTIONARY
  5
17
102
{ACAD_REACTORS
330
C
102
}
330
C
100
AcDbDictionary
281
     1
  3
Standard
350
18
  0
DICTIONARY
  5
19
102
{ACAD_REACTORS
330
C
102
}
330
C
100
AcDbDictionary
281
     1
  0
ACDBDICTIONARYWDFLT
  5
E
102
{ACAD_REACTORS
330
C
102
}
330
C
100
AcDbDictionary
281
     1
  3
Normal
350
F
100
AcDbDictionaryWithDefault
340
F
  0
DICTIONARY
  5
47
102
{ACAD_REACTORS
330
C
102
}
330
C
100
AcDbDictionary
281
     1
  3
A0
350
48
  3
A1
350
49
  3
A2
350
4A
  3
A3
350
4B
  3
A4
350
4C
  3
A5
350
4D
  3
A6
350
4E
  3
A7
350
4F
  3
A8
350
50
  3
A9
350
51
  3
B0
350
52
  3
B1
350
53
  3
B2
350
54
  3
B3
350
55
  3
B4
350
56
  3
B5
350
57
  3
B6
350
58
  3
B7
350
59
  3
B8
350
5A
  3
B9
350
5B
  3
C0
350
5C
  3
C1
350
5D
  3
C2
350
5E
  3
C3
350
5F
  3
C4
350
60
  3
C5
350
61
  3
C6
350
62
  3
C7
350
63
  3
C8
350
64
  3
C9
350
65
  3
D0
350
66
  3
D1
350
67
  3
D2
350
68
  0
LAYOUT
  5
1E
102
{ACAD_REACTORS
330
1A
102
}
330
1A
100
AcDbPlotSettings
  1

  2
none_device
  4

  6

 40
0.0
 41
0.0
 42
0.0
 43
0.0
 44
0.0
 45
0.0
 46
0.0
 47
0.0
 48
0.0
 49
0.0
140
0.0
141
0.0
142
1.0
143
1.0
 70
   688
 72
     0
 73
     0
 74
     5
  7

 75
    16
147
1.0
148
0.0
149
0.0
100
AcDbLayout
  1
Layout1
 70
     1
 71
     1
 10
0.0
 20
0.0
 11
12.0
 21
9.0
 12
0.0
 22
0.0
 32
0.0
 14
1.0000000000E+20
 24
1.0000000000E+20
 34
1.0000000000E+20
 15
-1.0000000000E+20
 25
-1.0000000000E+20
 35
-1.0000000000E+20
146
0.0
 13
0.0
 23
0.0
 33
0.0
 16
1.0
 26
0.0
 36
0.0
 17
0.0
 27
1.0
 37
0.0
 76
     0
330
1B
  0
LAYOUT
  5
26
102
{ACAD_REACTORS
330
1A
102
}
330
1A
100
AcDbPlotSettings
  1

  2
none_device
  4

  6

 40
0.0
 41
0.0
 42
0.0
 43
0.0
 44
0.0
 45
0.0
 46
0.0
 47
0.0
 48
0.0
 49
0.0
140
0.0
141
0.0
142
1.0
143
1.0
 70
   688
 72
     0
 73
     0
 74
     5
  7

 75
    16
147
1.0
148
0.0
149
0.0
100
AcDbLayout
  1
Layout2
 70
     1
 71
     2
 10
0.0
 20
0.0
 11
0.0
 21
0.0
 12
0.0
 22
0.0
 32
0.0
 14
0.0
 24
0.0
 34
0.0
 15
0.0
 25
0.0
 35
0.0
146
0.0
 13
0.0
 23
0.0
 33
0.0
 16
1.0
 26
0.0
 36
0.0
 17
0.0
 27
1.0
 37
0.0
 76
     0
330
23
  0
LAYOUT
  5
22
102
{ACAD_REACTORS
330
1A
102
}
330
1A
100
AcDbPlotSettings
  1

  2
none_device
  4
ANSI_A_(11.00_x_8.50_Inches)
  6

 40
6.35
 41
19.05
 42
6.35000508
 43
19.05000254
 44
279.4
 45
215.9
 46
108.2276547477
 47
-11.5894262308
 48
0.0
 49
0.0
140
0.0
141
0.0
142
1.004893707
143
1.0
 70
  1696
 72
     0
 73
     0
 74
     0
  7

 75
     0
147
0.5913241897
148
-39.4088153714
149
0.0
100
AcDbLayout
  1
Model
 70
     1
 71
     0
 10
0.0
 20
0.0
 11
12.0
 21
9.0
 12
0.0
 22
0.0
 32
0.0
 14
0.0
 24
-0.25
 34
0.0
 15
1.96850394
 25
8.12402
 35
0.0
146
0.0
 13
0.0
 23
0.0
 33
0.0
 16
1.0
 26
0.0
 36
0.0
 17
0.0
 27
1.0
 37
0.0
 76
     0
330
1F
331
29
  0
MLINESTYLE
  5
18
102
{ACAD_REACTORS
330
17
102
}
330
17
100
AcDbMlineStyle
  2
Standard
 70
     0
  3

 62
   256
 51
90.0
 52
90.0
 71
     2
 49
0.5
 62
   256
  6
BYLAYER
 49
-0.5
 62
   256
  6
BYLAYER
  0
ACDBPLACEHOLDER
  5
F
102
{ACAD_REACTORS
330
E
102
}
330
E
  0
SCALE
  5
48
102
{ACAD_REACTORS
330
47
102
}
330
47
100
AcDbScale
 70
     0
300
1:1
140
1.0
141
1.0
290
     1
  0
SCALE
  5
49
102
{ACAD_REACTORS
330
47
102
}
330
47
100
AcDbScale
 70
     0
300
1:2
140
1.0
141
2.0
290
     0
  0
SCALE
  5
4A
102
{ACAD_REACTORS
330
47
102
}
330
47
100
AcDbScale
 70
     0
300
1:4
140
1.0
141
4.0
290
     0
  0
SCALE
  5
4B
102
{ACAD_REACTORS
330
47
102
}
330
47
100
AcDbScale
 70
     0
300
1:5
140
1.0
141
5.0
290
     0
  0
SCALE
  5
4C
102
{ACAD_REACTORS
330
47
102
}
330
47
100
AcDbScale
 70
     0
300
1:8
140
1.0
141
8.0
290
     0
  0
SCALE
  5
4D
102
{ACAD_REACTORS
330
47
102
}
330
47
100
AcDbScale
 70
     0
300
1:10
140
1.0
141
10.0
290
     0
  0
SCALE
  5
4E
102
{ACAD_REACTORS
330
47
102
}
330
47
100
AcDbScale
 70
     0
300
1:16
140
1.0
141
16.0
290
     0
  0
SCALE
  5
4F
102
{ACAD_REACTORS
330
47
102
}
330
47
100
AcDbScale
 70
     0
300
1:20
140
1.0
141
20.0
290
     0
  0
SCALE
  5
50
102
{ACAD_REACTORS
330
47
102
}
330
47
100
AcDbScale
 70
     0
300
1:30
140
1.0
141
30.0
290
     0
  0
SCALE
  5
51
102
{ACAD_REACTORS
330
47
102
}
330
47
100
AcDbScale
 70
     0
300
1:40
140
1.0
141
40.0
290
     0
  0
SCALE
  5
52
102
{ACAD_REACTORS
330
47
102
}
330
47
100
AcDbScale
 70
     0
300
1:50
140
1.0
141
50.0
290
     0
  0
SCALE
  5
53
102
{ACAD_REACTORS
330
47
102
}
330
47
100
AcDbScale
 70
     0
300
1:100
140
1.0
141
100.0
290
     0
  0
SCALE
  5
54
102
{ACAD_REACTORS
330
47
102
}
330
47
100
AcDbScale
 70
     0
300
2:1
140
2.0
141
1.0
290
     0
  0
SCALE
  5
55
102
{ACAD_REACTORS
330
47
102
}
330
47
100
AcDbScale
 70
     0
300
4:1
140
4.0
141
1.0
290
     0
  0
SCALE
  5
56
102
{ACAD_REACTORS
330
47
102
}
330
47
100
AcDbScale
 70
     0
300
8:1
140
8.0
141
1.0
290
     0
  0
SCALE
  5
57
102
{ACAD_REACTORS
330
47
102
}
330
47
100
AcDbScale
 70
     0
300
10:1
140
10.0
141
1.0
290
     0
  0
SCALE
  5
58
102
{ACAD_REACTORS
330
47
102
}
330
47
100
AcDbScale
 70
     0
300
100:1
140
100.0
141
1.0
290
     0
  0
SCALE
  5
59
102
{ACAD_REACTORS
330
47
102
}
330
47
100
AcDbScale
 70
     0
300
1/128" = 1'-0"
140
0.0078125
141
12.0
290
     0
  0
SCALE
  5
5A
102
{ACAD_REACTORS
330
47
102
}
330
47
100
AcDbScale
 70
     0
300
1/64" = 1'-0"
140
0.015625
141
12.0
290
     0
  0
SCALE
  5
5B
102
{ACAD_REACTORS
330
47
102
}
330
47
100
AcDbScale
 70
     0
300
1/32" = 1'-0"
140
0.03125
141
12.0
290
     0
  0
SCALE
  5
5C
102
{ACAD_REACTORS
330
47
102
}
330
47
100
AcDbScale
 70
     0
300
1/16" = 1'-0"
140
0.0625
141
12.0
290
     0
  0
SCALE
  5
5D
102
{ACAD_REACTORS
330
47
102
}
330
47
100
AcDbScale
 70
     0
300
3/32" = 1'-0"
140
0.09375
141
12.0
290
     0
  0
SCALE
  5
5E
102
{ACAD_REACTORS
330
47
102
}
330
47
100
AcDbScale
 70
     0
300
1/8" = 1'-0"
140
0.125
141
12.0
290
     0
  0
SCALE
  5
5F
102
{ACAD_REACTORS
330
47
102
}
330
47
100
AcDbScale
 70
     0
300
3/16" = 1'-0"
140
0.1875
141
12.0
290
     0
  0
SCALE
  5
60
102
{ACAD_REACTORS
330
47
102
}
330
47
100
AcDbScale
 70
     0
300
1/4" = 1'-0"
140
0.25
141
12.0
290
     0
  0
SCALE
  5
61
102
{ACAD_REACTORS
330
47
102
}
330
47
100
AcDbScale
 70
     0
300
3/8" = 1'-0"
140
0.375
141
12.0
290
     0
  0
SCALE
  5
62
102
{ACAD_REACTORS
330
47
102
}
330
47
100
AcDbScale
 70
     0
300
1/2" = 1'-0"
140
0.5
141
12.0
290
     0
  0
SCALE
  5
63
102
{ACAD_REACTORS
330
47
102
}
330
47
100
AcDbScale
 70
     0
300
3/4" = 1'-0"
140
0.75
141
12.0
290
     0
  0
SCALE
  5
64
102
{ACAD_REACTORS
330
47
102
}
330
47
100
AcDbScale
 70
     0
300
1" = 1'-0"
140
1.0
141
12.0
290
     0
  0
SCALE
  5
65
102
{ACAD_REACTORS
330
47
102
}
330
47
100
AcDbScale
 70
     0
300
1-1/2" = 1'-0"
140
1.5
141
12.0
290
     0
  0
SCALE
  5
66
102
{ACAD_REACTORS
330
47
102
}
330
47
100
AcDbScale
 70
     0
300
3" = 1'-0"
140
3.0
141
12.0
290
     0
  0
SCALE
  5
67
102
{ACAD_REACTORS
330
47
102
}
330
47
100
AcDbScale
 70
     0
300
6" = 1'-0"
140
6.0
141
12.0
290
     0
  0
SCALE
  5
68
102
{ACAD_REACTORS
330
47
102
}
330
47
100
AcDbScale
 70
     0
300
1'-0" = 1'-0"
140
12.0
141
12.0
290
     0
  0
ENDSEC
  0
EOF
