  0
SECTION
  2
HEADER
  9
$ACADVER
  1
AC1015
  9
$ACADMAINTVER
 70
     6
  9
$DWGCODEPAGE
  3
ANSI_1252
  9
$INSBASE
 10
0.0
 20
0.0
 30
0.0
  9
$EXTMIN
 10
-3.56
 20
-3.69125
 30
0.0
  9
$EXTMAX
 10
3.56
 20
3.69125
 30
0.0
  9
$LIMMIN
 10
0.0
 20
0.0
  9
$LIMMAX
 10
12.0
 20
9.0
  9
$ORTHOMODE
 70
     0
  9
$REGENMODE
 70
     1
  9
$FILLMODE
 70
     1
  9
$QTEXTMODE
 70
     0
  9
$MIRRTEXT
 70
     1
  9
$LTSCALE
 40
1.0
  9
$ATTMODE
 70
     1
  9
$TEXTSIZE
 40
0.125
  9
$TRACEWID
 40
0.05
  9
$TEXTSTYLE
  7
Standard
  9
$CLAYER
  8
0
  9
$CELTYPE
  6
ByLayer
  9
$CECOLOR
 62
   256
  9
$CELTSCALE
 40
1.0
  9
$DISPSILH
 70
     0
  9
$DIMSCALE
 40
1.0
  9
$DIMASZ
 40
0.13
  9
$DIMEXO
 40
0.05
  9
$DIMDLI
 40
0.38
  9
$DIMRND
 40
0.0
  9
$DIMDLE
 40
0.0
  9
$DIMEXE
 40
0.125
  9
$DIMTP
 40
0.0
  9
$DIMTM
 40
0.0
  9
$DIMTXT
 40
0.125
  9
$DIMCEN
 40
0.09
  9
$DIMTSZ
 40
0.0
  9
$DIMTOL
 70
     0
  9
$DIMLIM
 70
     0
  9
$DIMTIH
 70
     1
  9
$DIMTOH
 70
     1
  9
$DIMSE1
 70
     0
  9
$DIMSE2
 70
     0
  9
$DIMTAD
 70
     0
  9
$DIMZIN
 70
     1
  9
$DIMBLK
  1

  9
$DIMASO
 70
     1
  9
$DIMSHO
 70
     1
  9
$DIMPOST
  1

  9
$DIMAPOST
  1

  9
$DIMALT
 70
     0
  9
$DIMALTD
 70
     2
  9
$DIMALTF
 40
25.4
  9
$DIMLFAC
 40
1.0
  9
$DIMTOFL
 70
     0
  9
$DIMTVP
 40
0.0
  9
$DIMTIX
 70
     0
  9
$DIMSOXD
 70
     0
  9
$DIMSAH
 70
     0
  9
$DIMBLK1
  1

  9
$DIMBLK2
  1

  9
$DIMSTYLE
  2
Standard
  9
$DIMCLRD
 70
     0
  9
$DIMCLRE
 70
     0
  9
$DIMCLRT
 70
     0
  9
$DIMTFAC
 40
1.0
  9
$DIMGAP
 40
0.06
  9
$DIMJUST
 70
     0
  9
$DIMSD1
 70
     0
  9
$DIMSD2
 70
     0
  9
$DIMTOLJ
 70
     1
  9
$DIMTZIN
 70
     1
  9
$DIMALTZ
 70
     0
  9
$DIMALTTZ
 70
     0
  9
$DIMUPT
 70
     0
  9
$DIMDEC
 70
     3
  9
$DIMTDEC
 70
     3
  9
$DIMALTU
 70
     2
  9
$DIMALTTD
 70
     2
  9
$DIMTXSTY
  7
Standard
  9
$DIMAUNIT
 70
     0
  9
$DIMADEC
 70
     0
  9
$DIMALTRND
 40
0.0
  9
$DIMAZIN
 70
     0
  9
$DIMDSEP
 70
    46
  9
$DIMATFIT
 70
     3
  9
$DIMFRAC
 70
     0
  9
$DIMLDRBLK
  1

  9
$DIMLUNIT
 70
     2
  9
$DIMLWD
 70
    -2
  9
$DIMLWE
 70
    -2
  9
$DIMTMOVE
 70
     0
  9
$LUNITS
 70
     2
  9
$LUPREC
 70
     3
  9
$SKETCHINC
 40
0.1
  9
$FILLETRAD
 40
0.5
  9
$AUNITS
 70
     0
  9
$AUPREC
 70
     0
  9
$MENU
  1
.
  9
$ELEVATION
 40
0.0
  9
$PELEVATION
 40
0.0
  9
$THICKNESS
 40
0.0
  9
$LIMCHECK
 70
     0
  9
$CHAMFERA
 40
0.0
  9
$CHAMFERB
 40
0.0
  9
$CHAMFERC
 40
0.0
  9
$CHAMFERD
 40
0.0
  9
$SKPOLY
 70
     0
  9
$TDCREATE
 40
2458334.480709086
  9
$TDUCREATE
 40
2458334.647375752
  9
$TDUPDATE
 40
2458334.480737616
  9
$TDUUPDATE
 40
2458334.647404282
  9
$TDINDWG
 40
0.0000000116
  9
$TDUSRTIMER
 40
0.0000000116
  9
$USRTIMER
 70
     1
  9
$ANGBASE
 50
0.0
  9
$ANGDIR
 70
     0
  9
$PDMODE
 70
     0
  9
$PDSIZE
 40
-1.0
  9
$PLINEWID
 40
0.0
  9
$SPLFRAME
 70
     0
  9
$SPLINETYPE
 70
     6
  9
$SPLINESEGS
 70
     8
  9
$HANDSEED
  5
141
  9
$SURFTAB1
 70
     6
  9
$SURFTAB2
 70
     6
  9
$SURFTYPE
 70
     6
  9
$SURFU
 70
     6
  9
$SURFV
 70
     6
  9
$UCSBASE
  2

  9
$UCSNAME
  2

  9
$UCSORG
 10
0.0
 20
0.0
 30
0.0
  9
$UCSXDIR
 10
1.0
 20
0.0
 30
0.0
  9
$UCSYDIR
 10
0.0
 20
1.0
 30
0.0
  9
$UCSORTHOREF
  2

  9
$UCSORTHOVIEW
 70
     0
  9
$UCSORGTOP
 10
0.0
 20
0.0
 30
0.0
  9
$UCSORGBOTTOM
 10
0.0
 20
0.0
 30
0.0
  9
$UCSORGLEFT
 10
0.0
 20
0.0
 30
0.0
  9
$UCSORGRIGHT
 10
0.0
 20
0.0
 30
0.0
  9
$UCSORGFRONT
 10
0.0
 20
0.0
 30
0.0
  9
$UCSORGBACK
 10
0.0
 20
0.0
 30
0.0
  9
$PUCSBASE
  2

  9
$PUCSNAME
  2

  9
$PUCSORG
 10
0.0
 20
0.0
 30
0.0
  9
$PUCSXDIR
 10
1.0
 20
0.0
 30
0.0
  9
$PUCSYDIR
 10
0.0
 20
1.0
 30
0.0
  9
$PUCSORTHOREF
  2

  9
$PUCSORTHOVIEW
 70
     0
  9
$PUCSORGTOP
 10
0.0
 20
0.0
 30
0.0
  9
$PUCSORGBOTTOM
 10
0.0
 20
0.0
 30
0.0
  9
$PUCSORGLEFT
 10
0.0
 20
0.0
 30
0.0
  9
$PUCSORGRIGHT
 10
0.0
 20
0.0
 30
0.0
  9
$PUCSORGFRONT
 10
0.0
 20
0.0
 30
0.0
  9
$PUCSORGBACK
 10
0.0
 20
0.0
 30
0.0
  9
$USERI1
 70
     0
  9
$USERI2
 70
     0
  9
$USERI3
 70
     0
  9
$USERI4
 70
     0
  9
$USERI5
 70
     0
  9
$USERR1
 40
0.0
  9
$USERR2
 40
0.0
  9
$USERR3
 40
0.0
  9
$USERR4
 40
0.0
  9
$USERR5
 40
0.0
  9
$WORLDVIEW
 70
     1
  9
$SHADEDGE
 70
     3
  9
$SHADEDIF
 70
    70
  9
$TILEMODE
 70
     1
  9
$MAXACTVP
 70
    64
  9
$PINSBASE
 10
0.0
 20
0.0
 30
0.0
  9
$PLIMCHECK
 70
     0
  9
$PEXTMIN
 10
1.0000000000E+20
 20
1.0000000000E+20
 30
1.0000000000E+20
  9
$PEXTMAX
 10
-1.0000000000E+20
 20
-1.0000000000E+20
 30
-1.0000000000E+20
  9
$PLIMMIN
 10
0.0
 20
0.0
  9
$PLIMMAX
 10
12.0
 20
9.0
  9
$UNITMODE
 70
     0
  9
$VISRETAIN
 70
     1
  9
$PLINEGEN
 70
     0
  9
$PSLTSCALE
 70
     1
  9
$TREEDEPTH
 70
  3020
  9
$CMLSTYLE
  2
Standard
  9
$CMLJUST
 70
     0
  9
$CMLSCALE
 40
1.0
  9
$PROXYGRAPHICS
 70
     1
  9
$MEASUREMENT
 70
     0
  9
$CELWEIGHT
370
    -1
  9
$ENDCAPS
280
     0
  9
$JOINSTYLE
280
     0
  9
$LWDISPLAY
290
     1
  9
$INSUNITS
 70
     1
  9
$HYPERLINKBASE
  1

  9
$STYLESHEET
  1

  9
$XEDIT
290
     1
  9
$CEPSNTYPE
380
     0
  9
$PSTYLEMODE
290
     1
  9
$FINGERPRINTGUID
  2
{A9C38672-72C7-460F-B15D-708390F3370D}
  9
$VERSIONGUID
  2
{FAEB1C32-E019-11D5-929B-00C0DF256EC4}
  9
$EXTNAMES
290
     1
  9
$PSVPSCALE
 40
0.0
  9
$OLESTARTUP
290
     0
  0
ENDSEC
  0
SECTION
  2
CLASSES
  0
CLASS
  1
ACDBDICTIONARYWDFLT
  2
AcDbDictionaryWithDefault
  3
ObjectDBX Classes
 90
        0
280
     0
281
     0
  0
CLASS
  1
VISUALSTYLE
  2
AcDbVisualStyle
  3
ObjectDBX Classes
 90
     4095
280
     0
281
     0
  0
CLASS
  1
MATERIAL
  2
AcDbMaterial
  3
ObjectDBX Classes
 90
     1153
280
     0
281
     0
  0
CLASS
  1
SCALE
  2
AcDbScale
  3
ObjectDBX Classes
 90
     1153
280
     0
281
     0
  0
CLASS
  1
TABLESTYLE
  2
AcDbTableStyle
  3
ObjectDBX Classes
 90
     4095
280
     0
281
     0
  0
CLASS
  1
MLEADERSTYLE
  2
AcDbMLeaderStyle
  3
ACDB_MLEADERSTYLE_CLASS
 90
     4095
280
     0
281
     0
  0
CLASS
  1
SUN
  2
AcDbSun
  3
SCENEOE
 90
     1153
280
     0
281
     0
  0
CLASS
  1
ACDBPLACEHOLDER
  2
AcDbPlaceHolder
  3
ObjectDBX Classes
 90
        0
280
     0
281
     0
  0
CLASS
  1
LAYOUT
  2
AcDbLayout
  3
ObjectDBX Classes
 90
        0
280
     0
281
     0
  0
ENDSEC
  0
SECTION
  2
TABLES
  0
TABLE
  2
VPORT
  5
8
330
0
100
AcDbSymbolTable
 70
     1
  0
VPORT
  5
29
330
8
100
AcDbSymbolTableRecord
100
AcDbViewportTableRecord
  2
*Active
 70
     0
 10
0.0
 20
0.0
 11
1.0
 21
1.0
 12
0.0
 22
0.0
 13
0.0
 23
0.0
 14
0.5
 24
0.5
 15
0.5
 25
0.5
 16
0.0
 26
0.0
 36
1.0
 17
0.0
 27
0.0
 37
0.0
 40
7.53015
 41
0.9644429394
 42
50.0
 43
0.0
 44
0.0
 50
0.0
 51
0.0
 71
     0
 72
   100
 73
     1
 74
     3
 75
     0
 76
     0
 77
     0
 78
     0
281
     0
 65
     1
110
0.0
120
0.0
130
0.0
111
1.0
121
0.0
131
0.0
112
0.0
122
1.0
132
0.0
 79
     0
146
0.0
  0
ENDTAB
  0
TABLE
  2
LTYPE
  5
5
330
0
100
AcDbSymbolTable
 70
     6
  0
LTYPE
  5
14
330
5
100
AcDbSymbolTableRecord
100
AcDbLinetypeTableRecord
  2
ByBlock
 70
     0
  3

 72
    65
 73
     0
 40
0.0
  0
LTYPE
  5
15
330
5
100
AcDbSymbolTableRecord
100
AcDbLinetypeTableRecord
  2
ByLayer
 70
     0
  3

 72
    65
 73
     0
 40
0.0
  0
LTYPE
  5
16
330
5
100
AcDbSymbolTableRecord
100
AcDbLinetypeTableRecord
  2
Continuous
 70
     0
  3
Solid line
 72
    65
 73
     0
 40
0.0
  0
LTYPE
  5
6E
330
5
100
AcDbSymbolTableRecord
100
AcDbLinetypeTableRecord
  2
HIDDEN
 70
     0
  3
Hidden __ __ __ __ __ __ __ __ __ __ __ __ __ __
 72
    65
 73
     2
 40
0.075
 49
0.05
 74
     0
 49
-0.025
 74
     0
  0
LTYPE
  5
6F
330
5
100
AcDbSymbolTableRecord
100
AcDbLinetypeTableRecord
  2
PHANTOM
 70
     0
  3
Phantom ______  __  __  ______  __  __  ______
 72
    65
 73
     6
 40
0.5
 49
0.25
 74
     0
 49
-0.05
 74
     0
 49
0.05
 74
     0
 49
-0.05
 74
     0
 49
0.05
 74
     0
 49
-0.05
 74
     0
  0
LTYPE
  5
70
330
5
100
AcDbSymbolTableRecord
100
AcDbLinetypeTableRecord
  2
CENTER
 70
     0
  3
Center ____ _ ____ _ ____ _ ____ _ ____ _ ____
 72
    65
 73
     4
 40
0.4
 49
0.25
 74
     0
 49
-0.05
 74
     0
 49
0.05
 74
     0
 49
-0.05
 74
     0
  0
LTYPE
  5
71
330
5
100
AcDbSymbolTableRecord
100
AcDbLinetypeTableRecord
  2
CENTERX2
 70
     0
  3
Center (2x) ________  __  ________  __  _____
 72
    65
 73
     4
 40
0.8
 49
0.5
 74
     0
 49
-0.1
 74
     0
 49
0.1
 74
     0
 49
-0.1
 74
     0
  0
LTYPE
  5
72
330
5
100
AcDbSymbolTableRecord
100
AcDbLinetypeTableRecord
  2
DOT2
 70
     0
  3
Dot (.5x) ........................................
 72
    65
 73
     2
 40
0.025
 49
0.0
 74
     0
 49
-0.025
 74
     0
  0
ENDTAB
  0
TABLE
  2
LAYER
  5
2
330
0
100
AcDbSymbolTable
 70
     1
  0
LAYER
  5
10
330
2
100
AcDbSymbolTableRecord
100
AcDbLayerTableRecord
  2
0
 70
     0
 62
     7
  6
Continuous
370
    -3
390
F
  0
ENDTAB
  0
TABLE
  2
STYLE
  5
3
330
0
100
AcDbSymbolTable
 70
     1
  0
STYLE
  5
11
330
3
100
AcDbSymbolTableRecord
100
AcDbTextStyleTableRecord
  2
Standard
 70
     0
 40
0.0
 41
1.0
 50
0.0
 71
     0
 42
0.125
  3
txt
  4

  0
ENDTAB
  0
TABLE
  2
VIEW
  5
6
330
0
100
AcDbSymbolTable
 70
     0
  0
ENDTAB
  0
TABLE
  2
UCS
  5
7
330
0
100
AcDbSymbolTable
 70
     0
  0
ENDTAB
  0
TABLE
  2
APPID
  5
9
330
0
100
AcDbSymbolTable
 70
     1
  0
APPID
  5
12
330
9
100
AcDbSymbolTableRecord
100
AcDbRegAppTableRecord
  2
ACAD
 70
     0
  0
ENDTAB
  0
TABLE
  2
DIMSTYLE
  5
A
330
0
100
AcDbSymbolTable
 70
     1
100
AcDbDimStyleTable
  0
DIMSTYLE
105
27
330
A
100
AcDbSymbolTableRecord
100
AcDbDimStyleTableRecord
  2
Standard
 70
     0
178
     0
340
11
  0
ENDTAB
  0
TABLE
  2
BLOCK_RECORD
  5
1
330
0
100
AcDbSymbolTable
 70
     1
  0
BLOCK_RECORD
  5
1F
330
1
100
AcDbSymbolTableRecord
100
AcDbBlockTableRecord
  2
*Model_Space
340
22
  0
BLOCK_RECORD
  5
1B
330
1
100
AcDbSymbolTableRecord
100
AcDbBlockTableRecord
  2
*Paper_Space
340
1E
  0
BLOCK_RECORD
  5
23
330
1
100
AcDbSymbolTableRecord
100
AcDbBlockTableRecord
  2
*Paper_Space0
340
26
  0
ENDTAB
  0
ENDSEC
  0
SECTION
  2
BLOCKS
  0
BLOCK
  5
20
330
1F
100
AcDbEntity
  8
0
100
AcDbBlockBegin
  2
*Model_Space
 70
     0
 10
0.0
 20
0.0
 30
0.0
  3
*Model_Space
  1

  0
ENDBLK
  5
21
330
1F
100
AcDbEntity
  8
0
100
AcDbBlockEnd
  0
BLOCK
  5
1C
330
1B
100
AcDbEntity
 67
     1
  8
0
100
AcDbBlockBegin
  2
*Paper_Space
 70
     0
 10
0.0
 20
0.0
 30
0.0
  3
*Paper_Space
  1

  0
ENDBLK
  5
1D
330
1B
100
AcDbEntity
 67
     1
  8
0
100
AcDbBlockEnd
  0
BLOCK
  5
24
330
23
100
AcDbEntity
  8
0
100
AcDbBlockBegin
  2
*Paper_Space0
 70
     0
 10
0.0
 20
0.0
 30
0.0
  3
*Paper_Space0
  1

  0
ENDBLK
  5
25
330
23
100
AcDbEntity
  8
0
100
AcDbBlockEnd
  0
ENDSEC
  0
SECTION
  2
ENTITIES
  0
SPLINE
  5
CA
330
1F
100
AcDbEntity
  8
0
  6
Continuous
 62
     7
370
    25
100
AcDbSpline
210
0.0
220
0.0
230
1.0
 70
     8
 71
     3
 72
    23
 73
    19
 74
     0
 42
0.000000001
 43
0.00000001
 40
0.0
 40
0.0
 40
0.0
 40
0.0
 40
0.0867985091117869
 40
0.1680325757699649
 40
0.2438549343749119
 40
0.3151430648712644
 40
0.3818274405512914
 40
0.4445164656257146
 40
0.5035922754268282
 40
0.5594986595292137
 40
0.6133316326846681
 40
0.6658467966471318
 40
0.7179152797095456
 40
0.7701264042050429
 40
0.824019786294545
 40
0.8797950640280592
 40
0.9382240930441936
 40
0.9999999999999999
 40
0.9999999999999999
 40
0.9999999999999999
 40
0.9999999999999999
 10
-3.088934556159422
 20
-3.46625
 30
0.0
 10
-3.087235311930466
 20
-3.466266586808471
 30
0.0
 10
-3.083945757909601
 20
-3.466298697085244
 30
0.0
 10
-3.07918610974884
 20
-3.466690463778255
 30
0.0
 10
-3.074748386193582
 20
-3.467231474228061
 30
0.0
 10
-3.070637111696382
 20
-3.468039509799495
 30
0.0
 10
-3.06686161842728
 20
-3.469131842012746
 30
0.0
 10
-3.063385502482209
 20
-3.470378367453977
 30
0.0
 10
-3.060256470725611
 20
-3.471913351673345
 30
0.0
 10
-3.057458370346618
 20
-3.473680045293777
 30
0.0
 10
-3.05496329372213
 20
-3.475659438196657
 30
0.0
 10
-3.052832103319873
 20
-3.477923661958191
 30
0.0
 10
-3.050998715809229
 20
-3.480394837637055
 30
0.0
 10
-3.049517478216158
 20
-3.483123767787186
 30
0.0
 10
-3.04835288025632
 20
-3.486078752484879
 30
0.0
 10
-3.047537213849775
 20
-3.489273620321535
 30
0.0
 10
-3.047054598119403
 20
-3.492692071423806
 30
0.0
 10
-3.046989815119054
 20
-3.495045203633866
 30
0.0
 10
-3.046956521739132
 20
-3.496254528985507
 30
0.0
  0
SPLINE
  5
CB
330
1F
100
AcDbEntity
  8
0
  6
Continuous
 62
     7
370
    25
100
AcDbSpline
210
0.0
220
0.0
230
1.0
 70
     8
 71
     3
 72
    23
 73
    19
 74
     0
 42
0.000000001
 43
0.00000001
 40
0.0
 40
0.0
 40
0.0
 40
0.0
 40
0.0868773302242242
 40
0.1675014716055864
 40
0.2427475008353532
 40
0.3126603416393071
 40
0.3779946034993816
 40
0.4397338850260999
 40
0.4985052936180583
 40
0.554376039323627
 40
0.6088184466666452
 40
0.6619725906622702
 40
0.7152695750975365
 40
0.7692730547064782
 40
0.8244991354528857
 40
0.8807629267760522
 40
0.9393973148271874
 40
0.9999999999999999
 40
0.9999999999999999
 40
0.9999999999999999
 40
0.9999999999999999
 10
-3.303580163043479
 20
-3.466250000000002
 30
0.0
 10
-3.301833507729572
 20
-3.466272629977399
 30
0.0
 10
-3.29846591649821
 20
-3.466316261089297
 30
0.0
 10
-3.293603435601102
 20
-3.466776208092639
 30
0.0
 10
-3.289121180234977
 20
-3.467518195865314
 30
0.0
 10
-3.285026061048455
 20
-3.468603739607011
 30
0.0
 10
-3.281290326245543
 20
-3.469930194027873
 30
0.0
 10
-3.277901173656798
 20
-3.471515333610998
 30
0.0
 10
-3.274858140741636
 20
-3.473349971043159
 30
0.0
 10
-3.27217285310101
 20
-3.475443307850799
 30
0.0
 10
-3.26979896945957
 20
-3.477727767484172
 30
0.0
 10
-3.267806826645266
 20
-3.480286643634249
 30
0.0
 10
-3.266117521699248
 20
-3.483042810660653
 30
0.0
 10
-3.264791747448663
 20
-3.486038293180481
 30
0.0
 10
-3.263786503021012
 20
-3.48921394627453
 30
0.0
 10
-3.263036144497724
 20
-3.492554715822095
 30
0.0
 10
-3.262617225014078
 20
-3.496064461000397
 30
0.0
 10
-3.26256352507664
 20
-3.498461347707335
 30
0.0
 10
-3.262536231884059
 20
-3.499679574275364
 30
0.0
  0
SPLINE
  5
CC
330
1F
100
AcDbEntity
  8
0
  6
Continuous
 62
     7
370
    25
100
AcDbSpline
210
0.0
220
0.0
230
1.0
 70
     8
 71
     3
 72
    21
 73
    17
 74
     0
 42
0.000000001
 43
0.00000001
 40
0.0
 40
0.0
 40
0.0
 40
0.0
 40
0.1193489637753278
 40
0.2383531199390041
 40
0.2981936897039664
 40
0.3568112946136998
 40
0.4157921536839352
 40
0.4750596628706943
 40
0.5350861696029635
 40
0.5959423628256171
 40
0.6578312767354761
 40
0.7218988600038793
 40
0.7878379443417356
 40
0.8556139880323025
 40
0.9263566339288651
 40
1.0
 40
1.0
 40
1.0
 40
1.0
 10
-3.067620018115943
 20
-3.524079483695652
 30
0.0
 10
-3.066009593706446
 20
-3.524463878748263
 30
0.0
 10
-3.062793397517663
 20
-3.525231558308944
 30
0.0
 10
-3.059006924005077
 20
-3.526934940467597
 30
0.0
 10
-3.056146443679456
 20
-3.528561582646779
 30
0.0
 10
-3.054151711235353
 20
-3.530003099399856
 30
0.0
 10
-3.052277207470518
 20
-3.531582992360161
 30
0.0
 10
-3.050546178618542
 20
-3.533348118098599
 30
0.0
 10
-3.04895700195592
 20
-3.535274369774601
 30
0.0
 10
-3.047530152112675
 20
-3.537371058061144
 30
0.0
 10
-3.046325875104869
 20
-3.53966373924122
 30
0.0
 10
-3.045228750603702
 20
-3.542087396063114
 30
0.0
 10
-3.044392441765935
 20
-3.544700936760447
 30
0.0
 10
-3.043760960932324
 20
-3.547463705785403
 30
0.0
 10
-3.043389835902046
 20
-3.550384615942745
 30
0.0
 10
-3.043352418097916
 20
-3.552384588709355
 30
0.0
 10
-3.043333333333335
 20
-3.553404664855072
 30
0.0
  0
SPLINE
  5
CD
330
1F
100
AcDbEntity
  8
0
  6
Continuous
 62
     7
370
    25
100
AcDbSpline
210
0.0
220
0.0
230
1.0
 70
     8
 71
     3
 72
    23
 73
    19
 74
     0
 42
0.000000001
 43
0.00000001
 40
0.0
 40
0.0
 40
0.0
 40
0.0
 40
0.0633260535318788
 40
0.1236454103603177
 40
0.1812826135194417
 40
0.2379768131268579
 40
0.2935407629237187
 40
0.3486816025440927
 40
0.4043209273922869
 40
0.4610035301292922
 40
0.51913477549404
 40
0.5793491400874602
 40
0.6418444293279431
 40
0.7078704626648712
 40
0.7766051911033065
 40
0.8476526632479
 40
0.9221245276930592
 40
0.9999999999999999
 40
0.9999999999999999
 40
0.9999999999999999
 40
0.9999999999999999
 10
-3.043333333333335
 20
-3.553404664855072
 30
0.0
 10
-3.043376669612052
 20
-3.554879104979431
 30
0.0
 10
-3.043461284579615
 20
-3.557757979377253
 30
0.0
 10
-3.044124392042173
 20
-3.561936585144295
 30
0.0
 10
-3.045197080031639
 20
-3.565866192296422
 30
0.0
 10
-3.046729299997862
 20
-3.56952488185033
 30
0.0
 10
-3.048680400770738
 20
-3.572905587651043
 30
0.0
 10
-3.050944147761131
 20
-3.576057239488124
 30
0.0
 10
-3.0536315410733
 20
-3.578895635693966
 30
0.0
 10
-3.056677897644646
 20
-3.581448547310716
 30
0.0
 10
-3.060067671822883
 20
-3.583721594321588
 30
0.0
 10
-3.06379134066788
 20
-3.585697109272668
 30
0.0
 10
-3.06784368362537
 20
-3.587406799329054
 30
0.0
 10
-3.07222163946466
 20
-3.588808291087723
 30
0.0
 10
-3.076889847649168
 20
-3.589899676247943
 30
0.0
 10
-3.081815787123322
 20
-3.590701651475436
 30
0.0
 10
-3.087001697963664
 20
-3.591141326554425
 30
0.0
 10
-3.09054722992005
 20
-3.591213239976369
 30
0.0
 10
-3.092359601449277
 20
-3.59125
 30
0.0
  0
SPLINE
  5
CE
330
1F
100
AcDbEntity
  8
0
  6
Continuous
 62
     7
370
    25
100
AcDbSpline
210
0.0
220
0.0
230
1.0
 70
     8
 71
     3
 72
    15
 73
    11
 74
     0
 42
0.000000001
 43
0.00000001
 40
0.0
 40
0.0
 40
0.0
 40
0.0
 40
0.1673918545870109
 40
0.3105326767827581
 40
0.4353739153206178
 40
0.548983950933742
 40
0.6555634230881776
 40
0.7631611935822888
 40
0.875712345811997
 40
0.9999999999999999
 40
0.9999999999999999
 40
0.9999999999999999
 40
0.9999999999999999
 10
-3.290644248188407
 20
-3.552215806159422
 30
0.0
 10
-3.291293739151895
 20
-3.550831900952637
 30
0.0
 10
-3.29249862554219
 20
-3.548264584942328
 30
0.0
 10
-3.294620085639846
 20
-3.544893482233215
 30
0.0
 10
-3.296817329116815
 20
-3.542177396698935
 30
0.0
 10
-3.299197442667187
 20
-3.540089294047513
 30
0.0
 10
-3.301794070160442
 20
-3.538565927478638
 30
0.0
 10
-3.304623661742869
 20
-3.537580336153243
 30
0.0
 10
-3.307727265633043
 20
-3.5370074144796
 30
0.0
 10
-3.309889822165945
 20
-3.536938394197543
 30
0.0
 10
-3.311024682971016
 20
-3.536902173913046
 30
0.0
  0
SPLINE
  5
CF
330
1F
100
AcDbEntity
  8
0
  6
Continuous
 62
     7
370
    25
100
AcDbSpline
210
0.0
220
0.0
230
1.0
 70
     8
 71
     3
 72
    15
 73
    11
 74
     0
 42
0.000000001
 43
0.00000001
 40
0.0
 40
0.0
 40
0.0
 40
0.0
 40
0.1113525621013444
 40
0.2209309255260217
 40
0.3311251909260219
 40
0.4436491882741611
 40
0.5643761418057314
 40
0.696479749737423
 40
0.8421079019728958
 40
1.0
 40
1.0
 40
1.0
 40
1.0
 10
-3.288577898550726
 20
-3.532741168478263
 30
0.0
 10
-3.287745463250939
 20
-3.533046487335463
 30
0.0
 10
-3.286093855979837
 20
-3.533652260354325
 30
0.0
 10
-3.283823023886029
 20
-3.535001250667163
 30
0.0
 10
-3.281687221539171
 20
-3.536569258907092
 30
0.0
 10
-3.279819413816067
 20
-3.53857316840798
 30
0.0
 10
-3.277993194442992
 20
-3.540830267085727
 30
0.0
 10
-3.27618296493415
 20
-3.543431042090396
 30
0.0
 10
-3.274344704395486
 20
-3.546365993640546
 30
0.0
 10
-3.273187104985795
 20
-3.548482382056145
 30
0.0
 10
-3.272584918478262
 20
-3.549583333333335
 30
0.0
  0
SPLINE
  5
D0
330
1F
100
AcDbEntity
  8
0
  6
Continuous
 62
     7
370
    25
100
AcDbSpline
210
0.0
220
0.0
230
1.0
 70
     8
 71
     3
 72
    23
 73
    19
 74
     0
 42
0.000000001
 43
0.00000001
 40
0.0
 40
0.0
 40
0.0
 40
0.0
 40
0.0645442690844721
 40
0.1269342817600583
 40
0.1887265654101734
 40
0.2498083354624796
 40
0.3098390008115393
 40
0.3692223034933703
 40
0.428683273743242
 40
0.4883798617341064
 40
0.5482501456441825
 40
0.6087657604725554
 40
0.6699858955025224
 40
0.7331387142663585
 40
0.7970632865401301
 40
0.8628148123436772
 40
0.93031824907828
 40
1.0
 40
1.0
 40
1.0
 40
1.0
 10
-3.262536231884059
 20
-3.499679574275364
 30
0.0
 10
-3.262558853071762
 20
-3.500661779736805
 30
0.0
 10
-3.262603340432985
 20
-3.5025934081611
 30
0.0
 10
-3.262930327922648
 20
-3.505449401645516
 30
0.0
 10
-3.263425442522037
 20
-3.508226895117249
 30
0.0
 10
-3.264167311126731
 20
-3.510913025358453
 30
0.0
 10
-3.265102842422658
 20
-3.513497321695239
 30
0.0
 10
-3.26623269178943
 20
-3.51597773853795
 30
0.0
 10
-3.267603784861889
 20
-3.518326889353061
 30
0.0
 10
-3.269155795801522
 20
-3.520569244544467
 30
0.0
 10
-3.270921710151065
 20
-3.522668591261727
 30
0.0
 10
-3.272872000097362
 20
-3.524632003894976
 30
0.0
 10
-3.27505330472286
 20
-3.5264133826537
 30
0.0
 10
-3.277381374703791
 20
-3.5280871450474
 30
0.0
 10
-3.279919886284432
 20
-3.529568087548057
 30
0.0
 10
-3.282643186419787
 20
-3.530833465163127
 30
0.0
 10
-3.285537416962637
 20
-3.531921996755189
 30
0.0
 10
-3.287553732571573
 20
-3.532465235937464
 30
0.0
 10
-3.288577898550726
 20
-3.532741168478263
 30
0.0
  0
SPLINE
  5
D1
330
1F
100
AcDbEntity
  8
0
  6
Continuous
 62
     7
370
    25
100
AcDbSpline
210
0.0
220
0.0
230
1.0
 70
     8
 71
     3
 72
    19
 73
    15
 74
     0
 42
0.000000001
 43
0.00000001
 40
0.0
 40
0.0
 40
0.0
 40
0.0
 40
0.1285428623688962
 40
0.2501833658111052
 40
0.3676423958125689
 40
0.4828550484702397
 40
0.5405033646233882
 40
0.5992328796241186
 40
0.6596398306386236
 40
0.7216651114752398
 40
0.786372458254628
 40
0.8542028512456622
 40
0.9255393771011248
 40
0.9999999999999999
 40
0.9999999999999999
 40
0.9999999999999999
 40
0.9999999999999999
 10
-3.046956521739132
 20
-3.496254528985507
 30
0.0
 10
-3.047015268856232
 20
-3.497862872159383
 30
0.0
 10
-3.047129608549755
 20
-3.500993195393237
 30
0.0
 10
-3.048049821076833
 20
-3.505520911988282
 30
0.0
 10
-3.049585927851433
 20
-3.509692887688665
 30
0.0
 10
-3.051366286398328
 20
-3.512877871293257
 30
0.0
 10
-3.053105837464364
 20
-3.515198339927235
 30
0.0
 10
-3.054616650496094
 20
-3.516818226737273
 30
0.0
 10
-3.056322406692551
 20
-3.518313262149608
 30
0.0
 10
-3.058201810893507
 20
-3.519712046354685
 30
0.0
 10
-3.06027877191289
 20
-3.520985085938943
 30
0.0
 10
-3.062551825018562
 20
-3.522143826845734
 30
0.0
 10
-3.065012292892563
 20
-3.52319098789095
 30
0.0
 10
-3.066738447204623
 20
-3.52377911767195
 30
0.0
 10
-3.067620018115944
 20
-3.524079483695652
 30
0.0
  0
SPLINE
  5
D5
330
1F
100
AcDbEntity
  8
0
  6
Continuous
 62
     7
370
    25
100
AcDbSpline
210
0.0
220
0.0
230
1.0
 70
     8
 71
     3
 72
    21
 73
    17
 74
     0
 42
0.000000001
 43
0.00000001
 40
0.0
 40
0.0
 40
0.0
 40
0.0
 40
0.1048107603491844
 40
0.2057872535497587
 40
0.2552082568884543
 40
0.3053322017717544
 40
0.3546722312657806
 40
0.4066370344808435
 40
0.4608426921562794
 40
0.518964044973634
 40
0.5822085159551459
 40
0.6511354365166028
 40
0.7259770992546039
 40
0.8086500759068662
 40
0.9003756127110988
 40
1.0
 40
1.0
 40
1.0
 40
1.0
 10
-3.065072463768117
 20
-3.498603940217392
 30
0.0
 10
-3.065124453612162
 20
-3.497391126812135
 30
0.0
 10
-3.065226531368139
 20
-3.49500986806633
 30
0.0
 10
-3.065960726641879
 20
-3.492129652211529
 30
0.0
 10
-3.066820552626514
 20
-3.48997369629007
 30
0.0
 10
-3.067690843464972
 20
-3.488479802347479
 30
0.0
 10
-3.06880271385967
 20
-3.487120476707985
 30
0.0
 10
-3.0701091544844
 20
-3.48588120279728
 30
0.0
 10
-3.071622633670601
 20
-3.484725173076106
 30
0.0
 10
-3.073405303619215
 20
-3.483743545438131
 30
0.0
 10
-3.075425520814211
 20
-3.482868507751472
 30
0.0
 10
-3.077696522323637
 20
-3.482105998911527
 30
0.0
 10
-3.08024070780373
 20
-3.481479393303595
 30
0.0
 10
-3.083089603142443
 20
-3.481029840536014
 30
0.0
 10
-3.086250672475342
 20
-3.480789110617585
 30
0.0
 10
-3.088462393816382
 20
-3.480758625426927
 30
0.0
 10
-3.089613903985509
 20
-3.480742753623189
 30
0.0
  0
SPLINE
  5
D6
330
1F
100
AcDbEntity
  8
0
  6
Continuous
 62
     7
370
    25
100
AcDbSpline
210
0.0
220
0.0
230
1.0
 70
     8
 71
     3
 72
    21
 73
    17
 74
     0
 42
0.000000001
 43
0.00000001
 40
0.0
 40
0.0
 40
0.0
 40
0.0
 40
0.148109903964214
 40
0.2834111377086774
 40
0.3473298973787479
 40
0.4080164734869326
 40
0.4665361356180676
 40
0.5238711608478851
 40
0.5798789656630096
 40
0.6357582137558717
 40
0.6911959771072494
 40
0.7476673467918996
 40
0.8060331849590906
 40
0.8668726428551429
 40
0.931030054604913
 40
1.0
 40
1.0
 40
1.0
 40
1.0
 10
-3.090180027173914
 20
-3.518786231884058
 30
0.0
 10
-3.088373877634047
 20
-3.518728147311548
 30
0.0
 10
-3.084917775899694
 20
-3.518617001369664
 30
0.0
 10
-3.08073593022256
 20
-3.517865508277053
 30
0.0
 10
-3.07768700098264
 20
-3.516981602048951
 30
0.0
 10
-3.07564836514374
 20
-3.516065132008536
 30
0.0
 10
-3.073719703701628
 20
-3.515103022705828
 30
0.0
 10
-3.07200138838917
 20
-3.513894609480011
 30
0.0
 10
-3.070422396760883
 20
-3.512562880165979
 30
0.0
 10
-3.069036793128976
 20
-3.511059290295005
 30
0.0
 10
-3.067829761829181
 20
-3.50940211939678
 30
0.0
 10
-3.0668378220801
 20
-3.507573191434094
 30
0.0
 10
-3.066037093117767
 20
-3.505581563415197
 30
0.0
 10
-3.065477990372528
 20
-3.503412681749661
 30
0.0
 10
-3.065130582201886
 20
-3.50106836476495
 30
0.0
 10
-3.065092297903225
 20
-3.499444976808871
 30
0.0
 10
-3.065072463768117
 20
-3.498603940217392
 30
0.0
  0
SPLINE
  5
DA
330
1F
100
AcDbEntity
  8
0
  6
Continuous
 62
     7
370
    25
100
AcDbSpline
210
0.0
220
0.0
230
1.0
 70
     8
 71
     3
 72
    23
 73
    19
 74
     0
 42
0.000000001
 43
0.00000001
 40
0.0
 40
0.0
 40
0.0
 40
0.0
 40
0.0829188246341117
 40
0.1598938815039282
 40
0.2325564233819837
 40
0.3006958272261079
 40
0.363755676483234
 40
0.4236747435210462
 40
0.4807003096789301
 40
0.5348597706980014
 40
0.5877167410054601
 40
0.6406978721524978
 40
0.6942911149704587
 40
0.7497520955113244
 40
0.8069461275197168
 40
0.8672827812805188
 40
0.9314383149165653
 40
1.0
 40
1.0
 40
1.0
 40
1.0
 10
-3.089387454710147
 20
-3.576757246376812
 30
0.0
 10
-3.088245186879089
 20
-3.57674267768055
 30
0.0
 10
-3.086042530992072
 20
-3.576714584597899
 30
0.0
 10
-3.082848403857497
 20
-3.576450839387074
 30
0.0
 10
-3.079873480400785
 20
-3.576047791045262
 30
0.0
 10
-3.077133660945897
 20
-3.575418023716595
 30
0.0
 10
-3.074613073803442
 20
-3.574654333857147
 30
0.0
 10
-3.072304095241822
 20
-3.573735731463471
 30
0.0
 10
-3.070240564048547
 20
-3.572588955913202
 30
0.0
 10
-3.068364203470235
 20
-3.571320588926032
 30
0.0
 10
-3.066738290019289
 20
-3.569822758759538
 30
0.0
 10
-3.065307060079697
 20
-3.568149100769899
 30
0.0
 10
-3.064116809291248
 20
-3.566253340316942
 30
0.0
 10
-3.06312371970804
 20
-3.564185007059501
 30
0.0
 10
-3.062355684186149
 20
-3.561923442275144
 30
0.0
 10
-3.061823532748316
 20
-3.559473783248467
 30
0.0
 10
-3.06151654168086
 20
-3.556828091937831
 30
0.0
 10
-3.061472188305809
 20
-3.555000064883379
 30
0.0
 10
-3.06144927536232
 20
-3.554055706521739
 30
0.0
  0
SPLINE
  5
DB
330
1F
100
AcDbEntity
  8
0
  6
Continuous
 62
     7
370
    25
100
AcDbSpline
210
0.0
220
0.0
230
1.0
 70
     8
 71
     3
 72
    23
 73
    19
 74
     0
 42
0.000000001
 43
0.00000001
 40
0.0
 40
0.0
 40
0.0
 40
0.0
 40
0.0592778177595751
 40
0.1163913973692767
 40
0.1721478876575167
 40
0.226475968357549
 40
0.2808040490575756
 40
0.3347372846926086
 40
0.3892243701867867
 40
0.446043156535733
 40
0.5044213316927103
 40
0.5647247417857331
 40
0.6287090369173698
 40
0.6959470142968082
 40
0.7662050871176791
 40
0.8405626643936596
 40
0.917935386027302
 40
1.0
 40
1.0
 40
1.0
 40
1.0
 10
-3.06144927536232
 20
-3.554055706521739
 30
0.0
 10
-3.061468061523489
 20
-3.553271073599173
 30
0.0
 10
-3.061504947961492
 20
-3.551730454768534
 30
0.0
 10
-3.061883763580119
 20
-3.549477401764988
 30
0.0
 10
-3.062504682689339
 20
-3.547349693828002
 30
0.0
 10
-3.063366931420584
 20
-3.545348432980623
 30
0.0
 10
-3.064431916330425
 20
-3.543472809504067
 30
0.0
 10
-3.06575780780594
 20
-3.541769987649014
 30
0.0
 10
-3.067269188185037
 20
-3.540184961421843
 30
0.0
 10
-3.069027872634523
 20
-3.538779784274339
 30
0.0
 10
-3.070994729116161
 20
-3.537541207326863
 30
0.0
 10
-3.073139206382658
 20
-3.536422078160967
 30
0.0
 10
-3.075488633993797
 20
-3.535464368878056
 30
0.0
 10
-3.0780383342048
 20
-3.534679896671257
 30
0.0
 10
-3.080772547588684
 20
-3.534054412475626
 30
0.0
 10
-3.083677435804954
 20
-3.533615888626608
 30
0.0
 10
-3.086758148225678
 20
-3.53331521353694
 30
0.0
 10
-3.088867741104942
 20
-3.533291296129487
 30
0.0
 10
-3.089953577898552
 20
-3.533278985507247
 30
0.0
  0
SPLINE
  5
DF
330
1F
100
AcDbEntity
  8
0
  6
Continuous
 62
     7
370
    25
100
AcDbSpline
210
0.0
220
0.0
230
1.0
 70
     8
 71
     3
 72
    23
 73
    19
 74
     0
 42
0.000000001
 43
0.00000001
 40
0.0
 40
0.0
 40
0.0
 40
0.0
 40
0.0751634739249831
 40
0.1468242857502597
 40
0.2147004565817484
 40
0.2804081309117752
 40
0.3432989837089113
 40
0.403724026895872
 40
0.4619008746627881
 40
0.5192753134656174
 40
0.5756421721734637
 40
0.6321926367705204
 40
0.6886003484344195
 40
0.7462950936411857
 40
0.8063376960038262
 40
0.8679986302426593
 40
0.9323916198461115
 40
0.9999999999999999
 40
0.9999999999999999
 40
0.9999999999999999
 40
0.9999999999999999
 10
-3.30558990036232
 20
-3.522409420289857
 30
0.0
 10
-3.304655410618529
 20
-3.522392718955297
 30
0.0
 10
-3.302829978902719
 20
-3.522360094578196
 30
0.0
 10
-3.300167128234277
 20
-3.522118130952364
 30
0.0
 10
-3.297658489852177
 20
-3.521640771865587
 30
0.0
 10
-3.295279172987321
 20
-3.521076252595643
 30
0.0
 10
-3.293063793930091
 20
-3.520275615283798
 30
0.0
 10
-3.291023690469167
 20
-3.519306988633375
 30
0.0
 10
-3.28912453145305
 20
-3.518210300574171
 30
0.0
 10
-3.287434393331892
 20
-3.516893539969695
 30
0.0
 10
-3.285884776411297
 20
-3.51544560914953
 30
0.0
 10
-3.284528535189988
 20
-3.513829148515338
 30
0.0
 10
-3.283348713571738
 20
-3.512058732182544
 30
0.0
 10
-3.282396169388698
 20
-3.510110211772972
 30
0.0
 10
-3.281582728347552
 20
-3.508027180201685
 30
0.0
 10
-3.281070769607069
 20
-3.505765355559258
 30
0.0
 10
-3.280709987112533
 20
-3.503380395002367
 30
0.0
 10
-3.280671755405285
 20
-3.501737960315452
 30
0.0
 10
-3.280652173913045
 20
-3.500896739130437
 30
0.0
  0
SPLINE
  5
E0
330
1F
100
AcDbEntity
  8
0
  6
Continuous
 62
     7
370
    25
100
AcDbSpline
210
0.0
220
0.0
230
1.0
 70
     8
 71
     3
 72
    23
 73
    19
 74
     0
 42
0.000000001
 43
0.00000001
 40
0.0
 40
0.0
 40
0.0
 40
0.0
 40
0.0710054063752064
 40
0.1375762152107313
 40
0.200303252704658
 40
0.2604031925983404
 40
0.3177152079427074
 40
0.3738306474914093
 40
0.429499703754267
 40
0.4848811865589636
 40
0.5408363383570451
 40
0.5986108345938608
 40
0.6580876144125944
 40
0.7194853567469219
 40
0.7841756976171761
 40
0.8520284023422264
 40
0.9241032974735243
 40
0.9999999999999999
 40
0.9999999999999999
 40
0.9999999999999999
 40
0.9999999999999999
 10
-3.280652173913045
 20
-3.500896739130436
 30
0.0
 10
-3.280665426886788
 20
-3.500075043870291
 30
0.0
 10
-3.28069110512822
 20
-3.498482971805383
 30
0.0
 10
-3.280975321352329
 20
-3.496178394740266
 30
0.0
 10
-3.281461663394239
 20
-3.494038710610809
 30
0.0
 10
-3.282109514773579
 20
-3.492055983926738
 30
0.0
 10
-3.282918936267836
 20
-3.490211534193188
 30
0.0
 10
-3.283992421959993
 20
-3.488568931036543
 30
0.0
 10
-3.285204091445254
 20
-3.487057623312794
 30
0.0
 10
-3.286603683040031
 20
-3.485717183907178
 30
0.0
 10
-3.28817990194858
 20
-3.484551101860753
 30
0.0
 10
-3.289911740704877
 20
-3.483537628113997
 30
0.0
 10
-3.291783143518722
 20
-3.482654095970342
 30
0.0
 10
-3.293812424370722
 20
-3.481941052121941
 30
0.0
 10
-3.295996966789927
 20
-3.481419755022756
 30
0.0
 10
-3.298330681036584
 20
-3.481013321670466
 30
0.0
 10
-3.300820971279576
 20
-3.480797242514575
 30
0.0
 10
-3.302532472941203
 20
-3.480761226659243
 30
0.0
 10
-3.303410326086958
 20
-3.48074275362319
 30
0.0
  0
LINE
  5
E1
330
1F
100
AcDbEntity
  8
0
  6
Continuous
 62
     7
370
    25
100
AcDbLine
 10
-3.450942029
 20
-3.46625
 30
0.0
 11
-3.3603623188
 21
-3.46625
 31
0.0
  0
LINE
  5
E2
330
1F
100
AcDbEntity
  8
0
  6
Continuous
 62
     7
370
    25
100
AcDbLine
 10
-3.450942029
 20
-3.4807427536
 30
0.0
 11
-3.450942029
 21
-3.46625
 31
0.0
  0
LINE
  5
E3
330
1F
100
AcDbEntity
  8
0
  6
Continuous
 62
     7
370
    25
100
AcDbLine
 10
-3.4147101449
 20
-3.4807427536
 30
0.0
 11
-3.450942029
 21
-3.4807427536
 31
0.0
  0
LINE
  5
E4
330
1F
100
AcDbEntity
  8
0
  6
Continuous
 62
     7
370
    25
100
AcDbLine
 10
-3.4147101449
 20
-3.59125
 30
0.0
 11
-3.4147101449
 21
-3.4807427536
 31
0.0
  0
LINE
  5
E5
330
1F
100
AcDbEntity
  8
0
  6
Continuous
 62
     7
370
    25
100
AcDbLine
 10
-3.3965942029
 20
-3.59125
 30
0.0
 11
-3.4147101449
 21
-3.59125
 31
0.0
  0
LINE
  5
E6
330
1F
100
AcDbEntity
  8
0
  6
Continuous
 62
     7
370
    25
100
AcDbLine
 10
-3.3965942029
 20
-3.4807427536
 30
0.0
 11
-3.3965942029
 21
-3.59125
 31
0.0
  0
LINE
  5
E7
330
1F
100
AcDbEntity
  8
0
  6
Continuous
 62
     7
370
    25
100
AcDbLine
 10
-3.3603623188
 20
-3.4807427536
 30
0.0
 11
-3.3965942029
 21
-3.4807427536
 31
0.0
  0
LINE
  5
E8
330
1F
100
AcDbEntity
  8
0
  6
Continuous
 62
     7
370
    25
100
AcDbLine
 10
-3.3603623188
 20
-3.46625
 30
0.0
 11
-3.3603623188
 21
-3.4807427536
 31
0.0
  0
LINE
  5
E9
330
1F
100
AcDbEntity
  8
0
  6
Continuous
 62
     7
370
    25
100
AcDbLine
 10
-3.2462318841
 20
-3.6166123188
 30
0.0
 11
-3.1393478261
 21
-3.6166123188
 31
0.0
  0
LINE
  5
EA
330
1F
100
AcDbEntity
  8
0
  6
Continuous
 62
     7
370
    25
100
AcDbLine
 10
-3.2462318841
 20
-3.6311050725
 30
0.0
 11
-3.2462318841
 21
-3.6166123188
 31
0.0
  0
LINE
  5
EB
330
1F
100
AcDbEntity
  8
0
  6
Continuous
 62
     7
370
    25
100
AcDbLine
 10
-3.1393478261
 20
-3.6311050725
 30
0.0
 11
-3.2462318841
 21
-3.6311050725
 31
0.0
  0
LINE
  5
EC
330
1F
100
AcDbEntity
  8
0
  6
Continuous
 62
     7
370
    25
100
AcDbLine
 10
-3.1393478261
 20
-3.6166123188
 30
0.0
 11
-3.1393478261
 21
-3.6311050725
 31
0.0
  0
LINE
  5
ED
330
1F
100
AcDbEntity
  8
0
  6
Continuous
 62
     7
370
    25
100
AcDbLine
 10
-3.0161594203
 20
-3.5767572464
 30
0.0
 11
-2.987173913
 21
-3.5767572464
 31
0.0
  0
LINE
  5
EE
330
1F
100
AcDbEntity
  8
0
  6
Continuous
 62
     7
370
    25
100
AcDbLine
 10
-3.0161594203
 20
-3.59125
 30
0.0
 11
-3.0161594203
 21
-3.5767572464
 31
0.0
  0
LINE
  5
EF
330
1F
100
AcDbEntity
  8
0
  6
Continuous
 62
     7
370
    25
100
AcDbLine
 10
-2.9400724638
 20
-3.59125
 30
0.0
 11
-3.0161594203
 21
-3.59125
 31
0.0
  0
LINE
  5
F0
330
1F
100
AcDbEntity
  8
0
  6
Continuous
 62
     7
370
    25
100
AcDbLine
 10
-2.9400724638
 20
-3.5767572464
 30
0.0
 11
-2.9400724638
 21
-3.59125
 31
0.0
  0
LINE
  5
F1
330
1F
100
AcDbEntity
  8
0
  6
Continuous
 62
     7
370
    25
100
AcDbLine
 10
-2.969057971
 20
-3.5767572464
 30
0.0
 11
-2.9400724638
 21
-3.5767572464
 31
0.0
  0
LINE
  5
F2
330
1F
100
AcDbEntity
  8
0
  6
Continuous
 62
     7
370
    25
100
AcDbLine
 10
-2.969057971
 20
-3.4807427536
 30
0.0
 11
-2.969057971
 21
-3.5767572464
 31
0.0
  0
LINE
  5
F3
330
1F
100
AcDbEntity
  8
0
  6
Continuous
 62
     7
370
    25
100
AcDbLine
 10
-2.9400724638
 20
-3.4807427536
 30
0.0
 11
-2.969057971
 21
-3.4807427536
 31
0.0
  0
LINE
  5
F4
330
1F
100
AcDbEntity
  8
0
  6
Continuous
 62
     7
370
    25
100
AcDbLine
 10
-2.9400724638
 20
-3.46625
 30
0.0
 11
-2.9400724638
 21
-3.4807427536
 31
0.0
  0
LINE
  5
F5
330
1F
100
AcDbEntity
  8
0
  6
Continuous
 62
     7
370
    25
100
AcDbLine
 10
-3.0161594203
 20
-3.46625
 30
0.0
 11
-2.9400724638
 21
-3.46625
 31
0.0
  0
LINE
  5
F6
330
1F
100
AcDbEntity
  8
0
  6
Continuous
 62
     7
370
    25
100
AcDbLine
 10
-3.0161594203
 20
-3.4807427536
 30
0.0
 11
-3.0161594203
 21
-3.46625
 31
0.0
  0
LINE
  5
F7
330
1F
100
AcDbEntity
  8
0
  6
Continuous
 62
     7
370
    25
100
AcDbLine
 10
-2.987173913
 20
-3.4807427536
 30
0.0
 11
-3.0161594203
 21
-3.4807427536
 31
0.0
  0
LINE
  5
F8
330
1F
100
AcDbEntity
  8
0
  6
Continuous
 62
     7
370
    25
100
AcDbLine
 10
-2.987173913
 20
-3.5767572464
 30
0.0
 11
-2.987173913
 21
-3.4807427536
 31
0.0
  0
LINE
  5
F9
330
1F
100
AcDbEntity
  8
0
  6
Continuous
 62
     7
370
    25
100
AcDbLine
 10
-3.56
 20
-3.69125
 30
0.0
 11
3.56
 21
-3.69125
 31
0.0
  0
LINE
  5
FA
330
1F
100
AcDbEntity
  8
0
  6
Continuous
 62
     7
370
    25
100
AcDbLine
 10
-0.35
 20
0.3558058262
 30
0.0
 11
-0.35
 21
-0.3558058262
 31
0.0
  0
LINE
  5
FB
330
1F
100
AcDbEntity
  8
0
  6
Continuous
 62
     7
370
    25
100
AcDbLine
 10
-0.3058058262
 20
-0.4
 30
0.0
 11
0.3058058262
 21
-0.4
 31
0.0
  0
LINE
  5
FC
330
1F
100
AcDbEntity
  8
0
  6
Continuous
 62
     7
370
    25
100
AcDbLine
 10
0.35
 20
-0.3558058262
 30
0.0
 11
0.35
 21
0.3558058262
 31
0.0
  0
LINE
  5
FD
330
1F
100
AcDbEntity
  8
0
  6
Continuous
 62
     7
370
    25
100
AcDbLine
 10
0.3058058262
 20
0.4
 30
0.0
 11
-0.3058058262
 21
0.4
 31
0.0
  0
LINE
  5
FE
330
1F
100
AcDbEntity
  8
0
  6
Continuous
 62
     7
370
    25
100
AcDbLine
 10
-1.6316941738
 20
-1.5375
 30
0.0
 11
-2.2433058262
 21
-1.5375
 31
0.0
  0
LINE
  5
FF
330
1F
100
AcDbEntity
  8
0
  6
Continuous
 62
     7
370
    25
100
AcDbLine
 10
-2.2875
 20
-1.5816941738
 30
0.0
 11
-2.2875
 21
-2.2933058262
 31
0.0
  0
LINE
  5
100
330
1F
100
AcDbEntity
  8
0
  6
Continuous
 62
     7
370
    25
100
AcDbLine
 10
-2.2433058262
 20
-2.3375
 30
0.0
 11
-1.6316941738
 21
-2.3375
 31
0.0
  0
LINE
  5
101
330
1F
100
AcDbEntity
  8
0
  6
Continuous
 62
     7
370
    25
100
AcDbLine
 10
-1.5875
 20
-2.2933058262
 30
0.0
 11
-1.5875
 21
-1.5816941738
 31
0.0
  0
LINE
  5
102
330
1F
100
AcDbEntity
  8
0
  6
Continuous
 62
     7
370
    25
100
AcDbLine
 10
-1.5875
 20
1.5816941738
 30
0.0
 11
-1.5875
 21
2.2933058262
 31
0.0
  0
LINE
  5
103
330
1F
100
AcDbEntity
  8
0
  6
Continuous
 62
     7
370
    25
100
AcDbLine
 10
-1.6316941738
 20
2.3375
 30
0.0
 11
-2.2433058262
 21
2.3375
 31
0.0
  0
LINE
  5
104
330
1F
100
AcDbEntity
  8
0
  6
Continuous
 62
     7
370
    25
100
AcDbLine
 10
-2.2875
 20
2.2933058262
 30
0.0
 11
-2.2875
 21
1.5816941738
 31
0.0
  0
LINE
  5
105
330
1F
100
AcDbEntity
  8
0
  6
Continuous
 62
     7
370
    25
100
AcDbLine
 10
-2.2433058262
 20
1.5375
 30
0.0
 11
-1.6316941738
 21
1.5375
 31
0.0
  0
LINE
  5
106
330
1F
100
AcDbEntity
  8
0
  6
Continuous
 62
     7
370
    25
100
AcDbLine
 10
2.2433058262
 20
2.3375
 30
0.0
 11
1.6316941738
 21
2.3375
 31
0.0
  0
LINE
  5
107
330
1F
100
AcDbEntity
  8
0
  6
Continuous
 62
     7
370
    25
100
AcDbLine
 10
1.5875
 20
2.2933058262
 30
0.0
 11
1.5875
 21
1.5816941738
 31
0.0
  0
LINE
  5
108
330
1F
100
AcDbEntity
  8
0
  6
Continuous
 62
     7
370
    25
100
AcDbLine
 10
1.6316941738
 20
1.5375
 30
0.0
 11
2.2433058262
 21
1.5375
 31
0.0
  0
LINE
  5
109
330
1F
100
AcDbEntity
  8
0
  6
Continuous
 62
     7
370
    25
100
AcDbLine
 10
2.2875
 20
1.5816941738
 30
0.0
 11
2.2875
 21
2.2933058262
 31
0.0
  0
LINE
  5
10A
330
1F
100
AcDbEntity
  8
0
  6
Continuous
 62
     7
370
    25
100
AcDbLine
 10
2.2433058262
 20
-1.5375
 30
0.0
 11
1.6316941738
 21
-1.5375
 31
0.0
  0
LINE
  5
10B
330
1F
100
AcDbEntity
  8
0
  6
Continuous
 62
     7
370
    25
100
AcDbLine
 10
1.5875
 20
-1.5816941738
 30
0.0
 11
1.5875
 21
-2.2933058262
 31
0.0
  0
LINE
  5
10C
330
1F
100
AcDbEntity
  8
0
  6
Continuous
 62
     7
370
    25
100
AcDbLine
 10
1.6316941738
 20
-2.3375
 30
0.0
 11
2.2433058262
 21
-2.3375
 31
0.0
  0
LINE
  5
10D
330
1F
100
AcDbEntity
  8
0
  6
Continuous
 62
     7
370
    25
100
AcDbLine
 10
2.2875
 20
-2.2933058262
 30
0.0
 11
2.2875
 21
-1.5816941738
 31
0.0
  0
LINE
  5
10E
330
1F
100
AcDbEntity
  8
0
  6
Continuous
 62
     7
370
    25
100
AcDbLine
 10
-2.9165217391
 20
-3.46625
 30
0.0
 11
-2.825942029
 21
-3.46625
 31
0.0
  0
LINE
  5
10F
330
1F
100
AcDbEntity
  8
0
  6
Continuous
 62
     7
370
    25
100
AcDbLine
 10
-2.9165217391
 20
-3.4807427536
 30
0.0
 11
-2.9165217391
 21
-3.46625
 31
0.0
  0
LINE
  5
110
330
1F
100
AcDbEntity
  8
0
  6
Continuous
 62
     7
370
    25
100
AcDbLine
 10
-2.8802898551
 20
-3.4807427536
 30
0.0
 11
-2.9165217391
 21
-3.4807427536
 31
0.0
  0
LINE
  5
111
330
1F
100
AcDbEntity
  8
0
  6
Continuous
 62
     7
370
    25
100
AcDbLine
 10
-2.8802898551
 20
-3.59125
 30
0.0
 11
-2.8802898551
 21
-3.4807427536
 31
0.0
  0
LINE
  5
112
330
1F
100
AcDbEntity
  8
0
  6
Continuous
 62
     7
370
    25
100
AcDbLine
 10
-2.862173913
 20
-3.59125
 30
0.0
 11
-2.8802898551
 21
-3.59125
 31
0.0
  0
LINE
  5
113
330
1F
100
AcDbEntity
  8
0
  6
Continuous
 62
     7
370
    25
100
AcDbLine
 10
-2.862173913
 20
-3.4807427536
 30
0.0
 11
-2.862173913
 21
-3.59125
 31
0.0
  0
LINE
  5
114
330
1F
100
AcDbEntity
  8
0
  6
Continuous
 62
     7
370
    25
100
AcDbLine
 10
-2.825942029
 20
-3.4807427536
 30
0.0
 11
-2.862173913
 21
-3.4807427536
 31
0.0
  0
LINE
  5
115
330
1F
100
AcDbEntity
  8
0
  6
Continuous
 62
     7
370
    25
100
AcDbLine
 10
-2.825942029
 20
-3.46625
 30
0.0
 11
-2.825942029
 21
-3.4807427536
 31
0.0
  0
LINE
  5
116
330
1F
100
AcDbEntity
  8
0
  6
Continuous
 62
     7
370
    25
100
AcDbLine
 10
-3.1248550725
 20
-3.46625
 30
0.0
 11
-3.0889345562
 21
-3.46625
 31
0.0
  0
LINE
  5
117
330
1F
100
AcDbEntity
  8
0
  6
Continuous
 62
     7
370
    25
100
AcDbLine
 10
-3.1248550725
 20
-3.59125
 30
0.0
 11
-3.1248550725
 21
-3.46625
 31
0.0
  0
LINE
  5
118
330
1F
100
AcDbEntity
  8
0
  6
Continuous
 62
     7
370
    25
100
AcDbLine
 10
-3.0923596014
 20
-3.59125
 30
0.0
 11
-3.1248550725
 21
-3.59125
 31
0.0
  0
LINE
  5
119
330
1F
100
AcDbEntity
  8
0
  6
Continuous
 62
     7
370
    25
100
AcDbLine
 10
-3.3368115942
 20
-3.46625
 30
0.0
 11
-3.303580163
 21
-3.46625
 31
0.0
  0
LINE
  5
11A
330
1F
100
AcDbEntity
  8
0
  6
Continuous
 62
     7
370
    25
100
AcDbLine
 10
-3.3368115942
 20
-3.59125
 30
0.0
 11
-3.3368115942
 21
-3.46625
 31
0.0
  0
LINE
  5
11B
330
1F
100
AcDbEntity
  8
0
  6
Continuous
 62
     7
370
    25
100
AcDbLine
 10
-3.3186956522
 20
-3.59125
 30
0.0
 11
-3.3368115942
 21
-3.59125
 31
0.0
  0
LINE
  5
11C
330
1F
100
AcDbEntity
  8
0
  6
Continuous
 62
     7
370
    25
100
AcDbLine
 10
-3.3186956522
 20
-3.5369021739
 30
0.0
 11
-3.3186956522
 21
-3.59125
 31
0.0
  0
LINE
  5
11D
330
1F
100
AcDbEntity
  8
0
  6
Continuous
 62
     7
370
    25
100
AcDbLine
 10
-3.272669837
 20
-3.59125
 30
0.0
 11
-3.2906442482
 21
-3.5522158062
 31
0.0
  0
LINE
  5
11E
330
1F
100
AcDbEntity
  8
0
  6
Continuous
 62
     7
370
    25
100
AcDbLine
 10
-3.2534782609
 20
-3.59125
 30
0.0
 11
-3.272669837
 21
-3.59125
 31
0.0
  0
LINE
  5
11F
330
1F
100
AcDbEntity
  8
0
  6
Continuous
 62
     7
370
    25
100
AcDbLine
 10
-3.2725849185
 20
-3.5495833333
 30
0.0
 11
-3.2534782609
 21
-3.59125
 31
0.0
  0
LINE
  5
120
330
1F
100
AcDbEntity
  8
0
  6
Continuous
 62
     7
370
    25
100
AcDbLine
 10
3.56
 20
-3.69125
 30
0.0
 11
3.56
 21
3.69125
 31
0.0
  0
LINE
  5
121
330
1F
100
AcDbEntity
  8
0
  6
Continuous
 62
     7
370
    25
100
AcDbLine
 10
3.56
 20
3.69125
 30
0.0
 11
-3.56
 21
3.69125
 31
0.0
  0
LINE
  5
122
330
1F
100
AcDbEntity
  8
0
  6
Continuous
 62
     7
370
    25
100
AcDbLine
 10
-3.56
 20
3.69125
 30
0.0
 11
-3.56
 21
-3.69125
 31
0.0
  0
LINE
  5
123
330
1F
100
AcDbEntity
  8
0
  6
Continuous
 62
     7
370
    25
100
AcDbLine
 10
-3.311024683
 20
-3.5369021739
 30
0.0
 11
-3.3186956522
 21
-3.5369021739
 31
0.0
  0
LINE
  5
124
330
1F
100
AcDbEntity
  8
0
  6
Continuous
 62
     7
370
    25
100
AcDbLine
 10
-3.089613904
 20
-3.4807427536
 30
0.0
 11
-3.1067391304
 21
-3.4807427536
 31
0.0
  0
LINE
  5
125
330
1F
100
AcDbEntity
  8
0
  6
Continuous
 62
     7
370
    25
100
AcDbLine
 10
-3.1067391304
 20
-3.4807427536
 30
0.0
 11
-3.1067391304
 21
-3.5187862319
 31
0.0
  0
LINE
  5
126
330
1F
100
AcDbEntity
  8
0
  6
Continuous
 62
     7
370
    25
100
AcDbLine
 10
-3.1067391304
 20
-3.5187862319
 30
0.0
 11
-3.0901800272
 21
-3.5187862319
 31
0.0
  0
LINE
  5
127
330
1F
100
AcDbEntity
  8
0
  6
Continuous
 62
     7
370
    25
100
AcDbLine
 10
-3.0899535779
 20
-3.5332789855
 30
0.0
 11
-3.1067391304
 21
-3.5332789855
 31
0.0
  0
LINE
  5
128
330
1F
100
AcDbEntity
  8
0
  6
Continuous
 62
     7
370
    25
100
AcDbLine
 10
-3.1067391304
 20
-3.5332789855
 30
0.0
 11
-3.1067391304
 21
-3.5767572464
 31
0.0
  0
LINE
  5
129
330
1F
100
AcDbEntity
  8
0
  6
Continuous
 62
     7
370
    25
100
AcDbLine
 10
-3.1067391304
 20
-3.5767572464
 30
0.0
 11
-3.0893874547
 21
-3.5767572464
 31
0.0
  0
LINE
  5
12A
330
1F
100
AcDbEntity
  8
0
  6
Continuous
 62
     7
370
    25
100
AcDbLine
 10
-3.3186956522
 20
-3.4807427536
 30
0.0
 11
-3.3186956522
 21
-3.5224094203
 31
0.0
  0
LINE
  5
12B
330
1F
100
AcDbEntity
  8
0
  6
Continuous
 62
     7
370
    25
100
AcDbLine
 10
-3.3034103261
 20
-3.4807427536
 30
0.0
 11
-3.3186956522
 21
-3.4807427536
 31
0.0
  0
LINE
  5
12C
330
1F
100
AcDbEntity
  8
0
  6
Continuous
 62
     7
370
    25
100
AcDbLine
 10
-3.3186956522
 20
-3.5224094203
 30
0.0
 11
-3.3055899004
 21
-3.5224094203
 31
0.0
  0
ARC
  5
12D
330
1F
100
AcDbEntity
  8
0
  6
Continuous
 62
     7
370
    25
100
AcDbCircle
 10
-0.3279029131
 20
0.3779029131
 30
0.0
 40
0.03125
100
AcDbArc
 50
45.0
 51
225.0
  0
ARC
  5
12E
330
1F
100
AcDbEntity
  8
0
  6
Continuous
 62
     7
370
    25
100
AcDbCircle
 10
-0.3279029131
 20
-0.3779029131
 30
0.0
 40
0.03125
100
AcDbArc
 50
135.0
 51
315.0
  0
ARC
  5
12F
330
1F
100
AcDbEntity
  8
0
  6
Continuous
 62
     7
370
    25
100
AcDbCircle
 10
0.3279029131
 20
-0.3779029131
 30
0.0
 40
0.0312500000000001
100
AcDbArc
 50
225.0
 51
45.0
  0
ARC
  5
130
330
1F
100
AcDbEntity
  8
0
  6
Continuous
 62
     7
370
    25
100
AcDbCircle
 10
0.3279029131
 20
0.3779029131
 30
0.0
 40
0.0312500000000001
100
AcDbArc
 50
315.0
 51
135.0
  0
ARC
  5
131
330
1F
100
AcDbEntity
  8
0
  6
Continuous
 62
     7
370
    25
100
AcDbCircle
 10
-1.6095970869
 20
-1.5595970869
 30
0.0
 40
0.0312500000000001
100
AcDbArc
 50
315.0
 51
135.0
  0
ARC
  5
132
330
1F
100
AcDbEntity
  8
0
  6
Continuous
 62
     7
370
    25
100
AcDbCircle
 10
-2.2654029131
 20
-1.5595970869
 30
0.0
 40
0.0312499999999999
100
AcDbArc
 50
45.0
 51
225.0
  0
ARC
  5
133
330
1F
100
AcDbEntity
  8
0
  6
Continuous
 62
     7
370
    25
100
AcDbCircle
 10
-2.2654029131
 20
-2.3154029131
 30
0.0
 40
0.0312499999999999
100
AcDbArc
 50
135.0
 51
315.0
  0
ARC
  5
134
330
1F
100
AcDbEntity
  8
0
  6
Continuous
 62
     7
370
    25
100
AcDbCircle
 10
-1.6095970869
 20
-2.3154029131
 30
0.0
 40
0.0312500000000001
100
AcDbArc
 50
225.0
 51
45.0
  0
ARC
  5
135
330
1F
100
AcDbEntity
  8
0
  6
Continuous
 62
     7
370
    25
100
AcDbCircle
 10
-1.6095970869
 20
1.5595970869
 30
0.0
 40
0.0312500000000002
100
AcDbArc
 50
225.0
 51
45.0
  0
ARC
  5
136
330
1F
100
AcDbEntity
  8
0
  6
Continuous
 62
     7
370
    25
100
AcDbCircle
 10
-1.6095970869
 20
2.3154029131
 30
0.0
 40
0.0312499999999999
100
AcDbArc
 50
315.0
 51
135.0
  0
ARC
  5
137
330
1F
100
AcDbEntity
  8
0
  6
Continuous
 62
     7
370
    25
100
AcDbCircle
 10
-2.2654029131
 20
2.3154029131
 30
0.0
 40
0.0312499999999999
100
AcDbArc
 50
45.0
 51
225.0
  0
ARC
  5
138
330
1F
100
AcDbEntity
  8
0
  6
Continuous
 62
     7
370
    25
100
AcDbCircle
 10
-2.2654029131
 20
1.5595970869
 30
0.0
 40
0.0312499999999999
100
AcDbArc
 50
135.0
 51
315.0
  0
ARC
  5
139
330
1F
100
AcDbEntity
  8
0
  6
Continuous
 62
     7
370
    25
100
AcDbCircle
 10
2.2654029131
 20
2.3154029131
 30
0.0
 40
0.0312500000000002
100
AcDbArc
 50
315.0
 51
135.0
  0
ARC
  5
13A
330
1F
100
AcDbEntity
  8
0
  6
Continuous
 62
     7
370
    25
100
AcDbCircle
 10
1.6095970869
 20
2.3154029131
 30
0.0
 40
0.0312499999999999
100
AcDbArc
 50
45.0
 51
225.0
  0
ARC
  5
13B
330
1F
100
AcDbEntity
  8
0
  6
Continuous
 62
     7
370
    25
100
AcDbCircle
 10
1.6095970869
 20
1.5595970869
 30
0.0
 40
0.0312500000000001
100
AcDbArc
 50
135.0
 51
315.0
  0
ARC
  5
13C
330
1F
100
AcDbEntity
  8
0
  6
Continuous
 62
     7
370
    25
100
AcDbCircle
 10
2.2654029131
 20
1.5595970869
 30
0.0
 40
0.0312499999999999
100
AcDbArc
 50
225.0
 51
45.0
  0
ARC
  5
13D
330
1F
100
AcDbEntity
  8
0
  6
Continuous
 62
     7
370
    25
100
AcDbCircle
 10
2.2654029131
 20
-1.5595970869
 30
0.0
 40
0.0312500000000002
100
AcDbArc
 50
315.0
 51
135.0
  0
ARC
  5
13E
330
1F
100
AcDbEntity
  8
0
  6
Continuous
 62
     7
370
    25
100
AcDbCircle
 10
1.6095970869
 20
-1.5595970869
 30
0.0
 40
0.0312500000000001
100
AcDbArc
 50
45.0
 51
225.0
  0
ARC
  5
13F
330
1F
100
AcDbEntity
  8
0
  6
Continuous
 62
     7
370
    25
100
AcDbCircle
 10
1.6095970869
 20
-2.3154029131
 30
0.0
 40
0.0312499999999999
100
AcDbArc
 50
135.0
 51
315.0
  0
ARC
  5
140
330
1F
100
AcDbEntity
  8
0
  6
Continuous
 62
     7
370
    25
100
AcDbCircle
 10
2.2654029131
 20
-2.3154029131
 30
0.0
 40
0.0312499999999999
100
AcDbArc
 50
225.0
 51
45.0
  0
ENDSEC
  0
SECTION
  2
OBJECTS
  0
DICTIONARY
  5
C
330
0
100
AcDbDictionary
281
     1
  3
ACAD_GROUP
350
D
  3
ACAD_LAYOUT
350
1A
  3
ACAD_MLINESTYLE
350
17
  3
ACAD_PLOTSETTINGS
350
19
  3
ACAD_PLOTSTYLENAME
350
E
  3
ACAD_SCALELIST
350
47
  0
DICTIONARY
  5
D
102
{ACAD_REACTORS
330
C
102
}
330
C
100
AcDbDictionary
281
     1
  0
DICTIONARY
  5
1A
102
{ACAD_REACTORS
330
C
102
}
330
C
100
AcDbDictionary
281
     1
  3
Layout1
350
1E
  3
Layout2
350
26
  3
Model
350
22
  0
DICTIONARY
  5
17
102
{ACAD_REACTORS
330
C
102
}
330
C
100
AcDbDictionary
281
     1
  3
Standard
350
18
  0
DICTIONARY
  5
19
102
{ACAD_REACTORS
330
C
102
}
330
C
100
AcDbDictionary
281
     1
  0
ACDBDICTIONARYWDFLT
  5
E
102
{ACAD_REACTORS
330
C
102
}
330
C
100
AcDbDictionary
281
     1
  3
Normal
350
F
100
AcDbDictionaryWithDefault
340
F
  0
DICTIONARY
  5
47
102
{ACAD_REACTORS
330
C
102
}
330
C
100
AcDbDictionary
281
     1
  3
A0
350
48
  3
A1
350
49
  3
A2
350
4A
  3
A3
350
4B
  3
A4
350
4C
  3
A5
350
4D
  3
A6
350
4E
  3
A7
350
4F
  3
A8
350
50
  3
A9
350
51
  3
B0
350
52
  3
B1
350
53
  3
B2
350
54
  3
B3
350
55
  3
B4
350
56
  3
B5
350
57
  3
B6
350
58
  3
B7
350
59
  3
B8
350
5A
  3
B9
350
5B
  3
C0
350
5C
  3
C1
350
5D
  3
C2
350
5E
  3
C3
350
5F
  3
C4
350
60
  3
C5
350
61
  3
C6
350
62
  3
C7
350
63
  3
C8
350
64
  3
C9
350
65
  3
D0
350
66
  3
D1
350
67
  3
D2
350
68
  0
LAYOUT
  5
1E
102
{ACAD_REACTORS
330
1A
102
}
330
1A
100
AcDbPlotSettings
  1

  2
none_device
  4

  6

 40
0.0
 41
0.0
 42
0.0
 43
0.0
 44
0.0
 45
0.0
 46
0.0
 47
0.0
 48
0.0
 49
0.0
140
0.0
141
0.0
142
1.0
143
1.0
 70
   688
 72
     0
 73
     0
 74
     5
  7

 75
    16
147
1.0
148
0.0
149
0.0
100
AcDbLayout
  1
Layout1
 70
     1
 71
     1
 10
0.0
 20
0.0
 11
12.0
 21
9.0
 12
0.0
 22
0.0
 32
0.0
 14
1.0000000000E+20
 24
1.0000000000E+20
 34
1.0000000000E+20
 15
-1.0000000000E+20
 25
-1.0000000000E+20
 35
-1.0000000000E+20
146
0.0
 13
0.0
 23
0.0
 33
0.0
 16
1.0
 26
0.0
 36
0.0
 17
0.0
 27
1.0
 37
0.0
 76
     0
330
1B
  0
LAYOUT
  5
26
102
{ACAD_REACTORS
330
1A
102
}
330
1A
100
AcDbPlotSettings
  1

  2
none_device
  4

  6

 40
0.0
 41
0.0
 42
0.0
 43
0.0
 44
0.0
 45
0.0
 46
0.0
 47
0.0
 48
0.0
 49
0.0
140
0.0
141
0.0
142
1.0
143
1.0
 70
   688
 72
     0
 73
     0
 74
     5
  7

 75
    16
147
1.0
148
0.0
149
0.0
100
AcDbLayout
  1
Layout2
 70
     1
 71
     2
 10
0.0
 20
0.0
 11
0.0
 21
0.0
 12
0.0
 22
0.0
 32
0.0
 14
0.0
 24
0.0
 34
0.0
 15
0.0
 25
0.0
 35
0.0
146
0.0
 13
0.0
 23
0.0
 33
0.0
 16
1.0
 26
0.0
 36
0.0
 17
0.0
 27
1.0
 37
0.0
 76
     0
330
23
  0
LAYOUT
  5
22
102
{ACAD_REACTORS
330
1A
102
}
330
1A
100
AcDbPlotSettings
  1

  2
none_device
  4
ANSI_A_(11.00_x_8.50_Inches)
  6

 40
6.35
 41
19.05
 42
6.35000508
 43
19.05000254
 44
279.4
 45
215.9
 46
133.34999746
 47
88.89999873
 48
0.0
 49
0.0
140
0.0
141
0.0
142
1.1398577718
143
1.0
 70
  1696
 72
     0
 73
     0
 74
     0
  7

 75
     0
147
0.5913241897
148
-39.4088153714
149
0.0
100
AcDbLayout
  1
Model
 70
     1
 71
     0
 10
0.0
 20
0.0
 11
12.0
 21
9.0
 12
0.0
 22
0.0
 32
0.0
 14
-3.56
 24
-3.69125
 34
0.0
 15
3.56
 25
3.69125
 35
0.0
146
0.0
 13
0.0
 23
0.0
 33
0.0
 16
1.0
 26
0.0
 36
0.0
 17
0.0
 27
1.0
 37
0.0
 76
     0
330
1F
331
29
  0
MLINESTYLE
  5
18
102
{ACAD_REACTORS
330
17
102
}
330
17
100
AcDbMlineStyle
  2
Standard
 70
     0
  3

 62
   256
 51
90.0
 52
90.0
 71
     2
 49
0.5
 62
   256
  6
BYLAYER
 49
-0.5
 62
   256
  6
BYLAYER
  0
ACDBPLACEHOLDER
  5
F
102
{ACAD_REACTORS
330
E
102
}
330
E
  0
SCALE
  5
48
102
{ACAD_REACTORS
330
47
102
}
330
47
100
AcDbScale
 70
     0
300
1:1
140
1.0
141
1.0
290
     1
  0
SCALE
  5
49
102
{ACAD_REACTORS
330
47
102
}
330
47
100
AcDbScale
 70
     0
300
1:2
140
1.0
141
2.0
290
     0
  0
SCALE
  5
4A
102
{ACAD_REACTORS
330
47
102
}
330
47
100
AcDbScale
 70
     0
300
1:4
140
1.0
141
4.0
290
     0
  0
SCALE
  5
4B
102
{ACAD_REACTORS
330
47
102
}
330
47
100
AcDbScale
 70
     0
300
1:5
140
1.0
141
5.0
290
     0
  0
SCALE
  5
4C
102
{ACAD_REACTORS
330
47
102
}
330
47
100
AcDbScale
 70
     0
300
1:8
140
1.0
141
8.0
290
     0
  0
SCALE
  5
4D
102
{ACAD_REACTORS
330
47
102
}
330
47
100
AcDbScale
 70
     0
300
1:10
140
1.0
141
10.0
290
     0
  0
SCALE
  5
4E
102
{ACAD_REACTORS
330
47
102
}
330
47
100
AcDbScale
 70
     0
300
1:16
140
1.0
141
16.0
290
     0
  0
SCALE
  5
4F
102
{ACAD_REACTORS
330
47
102
}
330
47
100
AcDbScale
 70
     0
300
1:20
140
1.0
141
20.0
290
     0
  0
SCALE
  5
50
102
{ACAD_REACTORS
330
47
102
}
330
47
100
AcDbScale
 70
     0
300
1:30
140
1.0
141
30.0
290
     0
  0
SCALE
  5
51
102
{ACAD_REACTORS
330
47
102
}
330
47
100
AcDbScale
 70
     0
300
1:40
140
1.0
141
40.0
290
     0
  0
SCALE
  5
52
102
{ACAD_REACTORS
330
47
102
}
330
47
100
AcDbScale
 70
     0
300
1:50
140
1.0
141
50.0
290
     0
  0
SCALE
  5
53
102
{ACAD_REACTORS
330
47
102
}
330
47
100
AcDbScale
 70
     0
300
1:100
140
1.0
141
100.0
290
     0
  0
SCALE
  5
54
102
{ACAD_REACTORS
330
47
102
}
330
47
100
AcDbScale
 70
     0
300
2:1
140
2.0
141
1.0
290
     0
  0
SCALE
  5
55
102
{ACAD_REACTORS
330
47
102
}
330
47
100
AcDbScale
 70
     0
300
4:1
140
4.0
141
1.0
290
     0
  0
SCALE
  5
56
102
{ACAD_REACTORS
330
47
102
}
330
47
100
AcDbScale
 70
     0
300
8:1
140
8.0
141
1.0
290
     0
  0
SCALE
  5
57
102
{ACAD_REACTORS
330
47
102
}
330
47
100
AcDbScale
 70
     0
300
10:1
140
10.0
141
1.0
290
     0
  0
SCALE
  5
58
102
{ACAD_REACTORS
330
47
102
}
330
47
100
AcDbScale
 70
     0
300
100:1
140
100.0
141
1.0
290
     0
  0
SCALE
  5
59
102
{ACAD_REACTORS
330
47
102
}
330
47
100
AcDbScale
 70
     0
300
1/128" = 1'-0"
140
0.0078125
141
12.0
290
     0
  0
SCALE
  5
5A
102
{ACAD_REACTORS
330
47
102
}
330
47
100
AcDbScale
 70
     0
300
1/64" = 1'-0"
140
0.015625
141
12.0
290
     0
  0
SCALE
  5
5B
102
{ACAD_REACTORS
330
47
102
}
330
47
100
AcDbScale
 70
     0
300
1/32" = 1'-0"
140
0.03125
141
12.0
290
     0
  0
SCALE
  5
5C
102
{ACAD_REACTORS
330
47
102
}
330
47
100
AcDbScale
 70
     0
300
1/16" = 1'-0"
140
0.0625
141
12.0
290
     0
  0
SCALE
  5
5D
102
{ACAD_REACTORS
330
47
102
}
330
47
100
AcDbScale
 70
     0
300
3/32" = 1'-0"
140
0.09375
141
12.0
290
     0
  0
SCALE
  5
5E
102
{ACAD_REACTORS
330
47
102
}
330
47
100
AcDbScale
 70
     0
300
1/8" = 1'-0"
140
0.125
141
12.0
290
     0
  0
SCALE
  5
5F
102
{ACAD_REACTORS
330
47
102
}
330
47
100
AcDbScale
 70
     0
300
3/16" = 1'-0"
140
0.1875
141
12.0
290
     0
  0
SCALE
  5
60
102
{ACAD_REACTORS
330
47
102
}
330
47
100
AcDbScale
 70
     0
300
1/4" = 1'-0"
140
0.25
141
12.0
290
     0
  0
SCALE
  5
61
102
{ACAD_REACTORS
330
47
102
}
330
47
100
AcDbScale
 70
     0
300
3/8" = 1'-0"
140
0.375
141
12.0
290
     0
  0
SCALE
  5
62
102
{ACAD_REACTORS
330
47
102
}
330
47
100
AcDbScale
 70
     0
300
1/2" = 1'-0"
140
0.5
141
12.0
290
     0
  0
SCALE
  5
63
102
{ACAD_REACTORS
330
47
102
}
330
47
100
AcDbScale
 70
     0
300
3/4" = 1'-0"
140
0.75
141
12.0
290
     0
  0
SCALE
  5
64
102
{ACAD_REACTORS
330
47
102
}
330
47
100
AcDbScale
 70
     0
300
1" = 1'-0"
140
1.0
141
12.0
290
     0
  0
SCALE
  5
65
102
{ACAD_REACTORS
330
47
102
}
330
47
100
AcDbScale
 70
     0
300
1-1/2" = 1'-0"
140
1.5
141
12.0
290
     0
  0
SCALE
  5
66
102
{ACAD_REACTORS
330
47
102
}
330
47
100
AcDbScale
 70
     0
300
3" = 1'-0"
140
3.0
141
12.0
290
     0
  0
SCALE
  5
67
102
{ACAD_REACTORS
330
47
102
}
330
47
100
AcDbScale
 70
     0
300
6" = 1'-0"
140
6.0
141
12.0
290
     0
  0
SCALE
  5
68
102
{ACAD_REACTORS
330
47
102
}
330
47
100
AcDbScale
 70
     0
300
1'-0" = 1'-0"
140
12.0
141
12.0
290
     0
  0
ENDSEC
  0
EOF
