  0
SECTION
  2
HEADER
  9
$ACADVER
  1
AC1015
  9
$ACADMAINTVER
 70
     6
  9
$DWGCODEPAGE
  3
ANSI_1252
  9
$INSBASE
 10
0.0
 20
0.0
 30
0.0
  9
$EXTMIN
 10
-0.25
 20
-0.25
 30
0.0
  9
$EXTMAX
 10
11.56102362
 20
11.56102362
 30
0.0
  9
$LIMMIN
 10
0.0
 20
0.0
  9
$LIMMAX
 10
12.0
 20
9.0
  9
$ORTHOMODE
 70
     0
  9
$REGENMODE
 70
     1
  9
$FILLMODE
 70
     1
  9
$QTEXTMODE
 70
     0
  9
$MIRRTEXT
 70
     1
  9
$LTSCALE
 40
1.0
  9
$ATTMODE
 70
     1
  9
$TEXTSIZE
 40
0.1377952756
  9
$TRACEWID
 40
0.05
  9
$TEXTSTYLE
  7
Standard
  9
$CLAYER
  8
0
  9
$CELTYPE
  6
ByLayer
  9
$CECOLOR
 62
   256
  9
$CELTSCALE
 40
1.0
  9
$DISPSILH
 70
     0
  9
$DIMSCALE
 40
1.0
  9
$DIMASZ
 40
0.13
  9
$DIMEXO
 40
0.0393700787
  9
$DIMDLI
 40
0.38
  9
$DIMRND
 40
0.0
  9
$DIMDLE
 40
0.0
  9
$DIMEXE
 40
0.0393700787
  9
$DIMTP
 40
0.0
  9
$DIMTM
 40
0.0
  9
$DIMTXT
 40
0.1377952756
  9
$DIMCEN
 40
0.09
  9
$DIMTSZ
 40
0.0
  9
$DIMTOL
 70
     0
  9
$DIMLIM
 70
     0
  9
$DIMTIH
 70
     1
  9
$DIMTOH
 70
     1
  9
$DIMSE1
 70
     0
  9
$DIMSE2
 70
     0
  9
$DIMTAD
 70
     1
  9
$DIMZIN
 70
     1
  9
$DIMBLK
  1

  9
$DIMASO
 70
     1
  9
$DIMSHO
 70
     1
  9
$DIMPOST
  1

  9
$DIMAPOST
  1

  9
$DIMALT
 70
     0
  9
$DIMALTD
 70
     2
  9
$DIMALTF
 40
25.4
  9
$DIMLFAC
 40
1.0
  9
$DIMTOFL
 70
     0
  9
$DIMTVP
 40
0.0
  9
$DIMTIX
 70
     0
  9
$DIMSOXD
 70
     0
  9
$DIMSAH
 70
     0
  9
$DIMBLK1
  1

  9
$DIMBLK2
  1

  9
$DIMSTYLE
  2
Standard
  9
$DIMCLRD
 70
     0
  9
$DIMCLRE
 70
     0
  9
$DIMCLRT
 70
     0
  9
$DIMTFAC
 40
1.0
  9
$DIMGAP
 40
0.06
  9
$DIMJUST
 70
     0
  9
$DIMSD1
 70
     0
  9
$DIMSD2
 70
     0
  9
$DIMTOLJ
 70
     1
  9
$DIMTZIN
 70
     1
  9
$DIMALTZ
 70
     0
  9
$DIMALTTZ
 70
     0
  9
$DIMUPT
 70
     0
  9
$DIMDEC
 70
     2
  9
$DIMTDEC
 70
     2
  9
$DIMALTU
 70
     2
  9
$DIMALTTD
 70
     2
  9
$DIMTXSTY
  7
Standard
  9
$DIMAUNIT
 70
     0
  9
$DIMADEC
 70
     2
  9
$DIMALTRND
 40
0.0
  9
$DIMAZIN
 70
     0
  9
$DIMDSEP
 70
    46
  9
$DIMATFIT
 70
     3
  9
$DIMFRAC
 70
     0
  9
$DIMLDRBLK
  1

  9
$DIMLUNIT
 70
     2
  9
$DIMLWD
 70
    -2
  9
$DIMLWE
 70
    -2
  9
$DIMTMOVE
 70
     0
  9
$LUNITS
 70
     2
  9
$LUPREC
 70
     8
  9
$SKETCHINC
 40
0.1
  9
$FILLETRAD
 40
0.5
  9
$AUNITS
 70
     0
  9
$AUPREC
 70
     2
  9
$MENU
  1
.
  9
$ELEVATION
 40
0.0
  9
$PELEVATION
 40
0.0
  9
$THICKNESS
 40
0.0
  9
$LIMCHECK
 70
     0
  9
$CHAMFERA
 40
0.0
  9
$CHAMFERB
 40
0.0
  9
$CHAMFERC
 40
0.0
  9
$CHAMFERD
 40
0.0
  9
$SKPOLY
 70
     0
  9
$TDCREATE
 40
2458324.539172697
  9
$TDUCREATE
 40
2458324.705839363
  9
$TDUPDATE
 40
2458324.53920221
  9
$TDUUPDATE
 40
2458324.705868877
  9
$TDINDWG
 40
0.0000000116
  9
$TDUSRTIMER
 40
0.0000000116
  9
$USRTIMER
 70
     1
  9
$ANGBASE
 50
0.0
  9
$ANGDIR
 70
     0
  9
$PDMODE
 70
     0
  9
$PDSIZE
 40
-1.0
  9
$PLINEWID
 40
0.0
  9
$SPLFRAME
 70
     0
  9
$SPLINETYPE
 70
     6
  9
$SPLINESEGS
 70
     8
  9
$HANDSEED
  5
27D
  9
$SURFTAB1
 70
     6
  9
$SURFTAB2
 70
     6
  9
$SURFTYPE
 70
     6
  9
$SURFU
 70
     6
  9
$SURFV
 70
     6
  9
$UCSBASE
  2

  9
$UCSNAME
  2

  9
$UCSORG
 10
0.0
 20
0.0
 30
0.0
  9
$UCSXDIR
 10
1.0
 20
0.0
 30
0.0
  9
$UCSYDIR
 10
0.0
 20
1.0
 30
0.0
  9
$UCSORTHOREF
  2

  9
$UCSORTHOVIEW
 70
     0
  9
$UCSORGTOP
 10
0.0
 20
0.0
 30
0.0
  9
$UCSORGBOTTOM
 10
0.0
 20
0.0
 30
0.0
  9
$UCSORGLEFT
 10
0.0
 20
0.0
 30
0.0
  9
$UCSORGRIGHT
 10
0.0
 20
0.0
 30
0.0
  9
$UCSORGFRONT
 10
0.0
 20
0.0
 30
0.0
  9
$UCSORGBACK
 10
0.0
 20
0.0
 30
0.0
  9
$PUCSBASE
  2

  9
$PUCSNAME
  2

  9
$PUCSORG
 10
0.0
 20
0.0
 30
0.0
  9
$PUCSXDIR
 10
1.0
 20
0.0
 30
0.0
  9
$PUCSYDIR
 10
0.0
 20
1.0
 30
0.0
  9
$PUCSORTHOREF
  2

  9
$PUCSORTHOVIEW
 70
     0
  9
$PUCSORGTOP
 10
0.0
 20
0.0
 30
0.0
  9
$PUCSORGBOTTOM
 10
0.0
 20
0.0
 30
0.0
  9
$PUCSORGLEFT
 10
0.0
 20
0.0
 30
0.0
  9
$PUCSORGRIGHT
 10
0.0
 20
0.0
 30
0.0
  9
$PUCSORGFRONT
 10
0.0
 20
0.0
 30
0.0
  9
$PUCSORGBACK
 10
0.0
 20
0.0
 30
0.0
  9
$USERI1
 70
     0
  9
$USERI2
 70
     0
  9
$USERI3
 70
     0
  9
$USERI4
 70
     0
  9
$USERI5
 70
     0
  9
$USERR1
 40
0.0
  9
$USERR2
 40
0.0
  9
$USERR3
 40
0.0
  9
$USERR4
 40
0.0
  9
$USERR5
 40
0.0
  9
$WORLDVIEW
 70
     1
  9
$SHADEDGE
 70
     3
  9
$SHADEDIF
 70
    70
  9
$TILEMODE
 70
     1
  9
$MAXACTVP
 70
    64
  9
$PINSBASE
 10
0.0
 20
0.0
 30
0.0
  9
$PLIMCHECK
 70
     0
  9
$PEXTMIN
 10
1.0000000000E+20
 20
1.0000000000E+20
 30
1.0000000000E+20
  9
$PEXTMAX
 10
-1.0000000000E+20
 20
-1.0000000000E+20
 30
-1.0000000000E+20
  9
$PLIMMIN
 10
0.0
 20
0.0
  9
$PLIMMAX
 10
12.0
 20
9.0
  9
$UNITMODE
 70
     0
  9
$VISRETAIN
 70
     1
  9
$PLINEGEN
 70
     0
  9
$PSLTSCALE
 70
     1
  9
$TREEDEPTH
 70
  3020
  9
$CMLSTYLE
  2
Standard
  9
$CMLJUST
 70
     0
  9
$CMLSCALE
 40
1.0
  9
$PROXYGRAPHICS
 70
     1
  9
$MEASUREMENT
 70
     0
  9
$CELWEIGHT
370
    -1
  9
$ENDCAPS
280
     0
  9
$JOINSTYLE
280
     0
  9
$LWDISPLAY
290
     1
  9
$INSUNITS
 70
     1
  9
$HYPERLINKBASE
  1

  9
$STYLESHEET
  1

  9
$XEDIT
290
     1
  9
$CEPSNTYPE
380
     0
  9
$PSTYLEMODE
290
     1
  9
$FINGERPRINTGUID
  2
{F590C322-81AF-4FAC-BBB9-D1AA15CB614B}
  9
$VERSIONGUID
  2
{FAEB1C32-E019-11D5-929B-00C0DF256EC4}
  9
$EXTNAMES
290
     1
  9
$PSVPSCALE
 40
0.0
  9
$OLESTARTUP
290
     0
  0
ENDSEC
  0
SECTION
  2
CLASSES
  0
CLASS
  1
ACDBDICTIONARYWDFLT
  2
AcDbDictionaryWithDefault
  3
ObjectDBX Classes
 90
        0
280
     0
281
     0
  0
CLASS
  1
VISUALSTYLE
  2
AcDbVisualStyle
  3
ObjectDBX Classes
 90
     4095
280
     0
281
     0
  0
CLASS
  1
MATERIAL
  2
AcDbMaterial
  3
ObjectDBX Classes
 90
     1153
280
     0
281
     0
  0
CLASS
  1
SCALE
  2
AcDbScale
  3
ObjectDBX Classes
 90
     1153
280
     0
281
     0
  0
CLASS
  1
TABLESTYLE
  2
AcDbTableStyle
  3
ObjectDBX Classes
 90
     4095
280
     0
281
     0
  0
CLASS
  1
MLEADERSTYLE
  2
AcDbMLeaderStyle
  3
ACDB_MLEADERSTYLE_CLASS
 90
     4095
280
     0
281
     0
  0
CLASS
  1
SUN
  2
AcDbSun
  3
SCENEOE
 90
     1153
280
     0
281
     0
  0
CLASS
  1
ACDBPLACEHOLDER
  2
AcDbPlaceHolder
  3
ObjectDBX Classes
 90
        0
280
     0
281
     0
  0
CLASS
  1
LAYOUT
  2
AcDbLayout
  3
ObjectDBX Classes
 90
        0
280
     0
281
     0
  0
ENDSEC
  0
SECTION
  2
TABLES
  0
TABLE
  2
VPORT
  5
8
330
0
100
AcDbSymbolTable
 70
     1
  0
VPORT
  5
29
330
8
100
AcDbSymbolTableRecord
100
AcDbViewportTableRecord
  2
*Active
 70
     0
 10
0.0
 20
0.0
 11
1.0
 21
1.0
 12
5.65551181
 22
5.65551181
 13
0.0
 23
0.0
 14
0.5
 24
0.5
 15
0.5
 25
0.5
 16
0.0
 26
0.0
 36
1.0
 17
0.0
 27
0.0
 37
0.0
 40
12.0472440924
 41
1.0
 42
50.0
 43
0.0
 44
0.0
 50
0.0
 51
0.0
 71
     0
 72
   100
 73
     1
 74
     3
 75
     0
 76
     0
 77
     0
 78
     0
281
     0
 65
     1
110
0.0
120
0.0
130
0.0
111
1.0
121
0.0
131
0.0
112
0.0
122
1.0
132
0.0
 79
     0
146
0.0
  0
ENDTAB
  0
TABLE
  2
LTYPE
  5
5
330
0
100
AcDbSymbolTable
 70
     6
  0
LTYPE
  5
14
330
5
100
AcDbSymbolTableRecord
100
AcDbLinetypeTableRecord
  2
ByBlock
 70
     0
  3

 72
    65
 73
     0
 40
0.0
  0
LTYPE
  5
15
330
5
100
AcDbSymbolTableRecord
100
AcDbLinetypeTableRecord
  2
ByLayer
 70
     0
  3

 72
    65
 73
     0
 40
0.0
  0
LTYPE
  5
16
330
5
100
AcDbSymbolTableRecord
100
AcDbLinetypeTableRecord
  2
Continuous
 70
     0
  3
Solid line
 72
    65
 73
     0
 40
0.0
  0
LTYPE
  5
6E
330
5
100
AcDbSymbolTableRecord
100
AcDbLinetypeTableRecord
  2
HIDDEN
 70
     0
  3
Hidden __ __ __ __ __ __ __ __ __ __ __ __ __ __
 72
    65
 73
     2
 40
0.075
 49
0.05
 74
     0
 49
-0.025
 74
     0
  0
LTYPE
  5
6F
330
5
100
AcDbSymbolTableRecord
100
AcDbLinetypeTableRecord
  2
PHANTOM
 70
     0
  3
Phantom ______  __  __  ______  __  __  ______
 72
    65
 73
     6
 40
0.5
 49
0.25
 74
     0
 49
-0.05
 74
     0
 49
0.05
 74
     0
 49
-0.05
 74
     0
 49
0.05
 74
     0
 49
-0.05
 74
     0
  0
LTYPE
  5
70
330
5
100
AcDbSymbolTableRecord
100
AcDbLinetypeTableRecord
  2
CENTER
 70
     0
  3
Center ____ _ ____ _ ____ _ ____ _ ____ _ ____
 72
    65
 73
     4
 40
0.4
 49
0.25
 74
     0
 49
-0.05
 74
     0
 49
0.05
 74
     0
 49
-0.05
 74
     0
  0
LTYPE
  5
71
330
5
100
AcDbSymbolTableRecord
100
AcDbLinetypeTableRecord
  2
CENTERX2
 70
     0
  3
Center (2x) ________  __  ________  __  _____
 72
    65
 73
     4
 40
0.8
 49
0.5
 74
     0
 49
-0.1
 74
     0
 49
0.1
 74
     0
 49
-0.1
 74
     0
  0
LTYPE
  5
72
330
5
100
AcDbSymbolTableRecord
100
AcDbLinetypeTableRecord
  2
DOT2
 70
     0
  3
Dot (.5x) ........................................
 72
    65
 73
     2
 40
0.025
 49
0.0
 74
     0
 49
-0.025
 74
     0
  0
ENDTAB
  0
TABLE
  2
LAYER
  5
2
330
0
100
AcDbSymbolTable
 70
     1
  0
LAYER
  5
10
330
2
100
AcDbSymbolTableRecord
100
AcDbLayerTableRecord
  2
0
 70
     0
 62
     7
  6
Continuous
370
    -3
390
F
  0
ENDTAB
  0
TABLE
  2
STYLE
  5
3
330
0
100
AcDbSymbolTable
 70
     1
  0
STYLE
  5
11
330
3
100
AcDbSymbolTableRecord
100
AcDbTextStyleTableRecord
  2
Standard
 70
     0
 40
0.0
 41
1.0
 50
0.0
 71
     0
 42
0.1377952756
  3
txt
  4

  0
ENDTAB
  0
TABLE
  2
VIEW
  5
6
330
0
100
AcDbSymbolTable
 70
     0
  0
ENDTAB
  0
TABLE
  2
UCS
  5
7
330
0
100
AcDbSymbolTable
 70
     0
  0
ENDTAB
  0
TABLE
  2
APPID
  5
9
330
0
100
AcDbSymbolTable
 70
     1
  0
APPID
  5
12
330
9
100
AcDbSymbolTableRecord
100
AcDbRegAppTableRecord
  2
ACAD
 70
     0
  0
ENDTAB
  0
TABLE
  2
DIMSTYLE
  5
A
330
0
100
AcDbSymbolTable
 70
     1
100
AcDbDimStyleTable
  0
DIMSTYLE
105
27
330
A
100
AcDbSymbolTableRecord
100
AcDbDimStyleTableRecord
  2
Standard
 70
     0
178
     0
340
11
  0
ENDTAB
  0
TABLE
  2
BLOCK_RECORD
  5
1
330
0
100
AcDbSymbolTable
 70
     1
  0
BLOCK_RECORD
  5
1F
330
1
100
AcDbSymbolTableRecord
100
AcDbBlockTableRecord
  2
*Model_Space
340
22
  0
BLOCK_RECORD
  5
1B
330
1
100
AcDbSymbolTableRecord
100
AcDbBlockTableRecord
  2
*Paper_Space
340
1E
  0
BLOCK_RECORD
  5
23
330
1
100
AcDbSymbolTableRecord
100
AcDbBlockTableRecord
  2
*Paper_Space0
340
26
  0
ENDTAB
  0
ENDSEC
  0
SECTION
  2
BLOCKS
  0
BLOCK
  5
20
330
1F
100
AcDbEntity
  8
0
100
AcDbBlockBegin
  2
*Model_Space
 70
     0
 10
0.0
 20
0.0
 30
0.0
  3
*Model_Space
  1

  0
ENDBLK
  5
21
330
1F
100
AcDbEntity
  8
0
100
AcDbBlockEnd
  0
BLOCK
  5
1C
330
1B
100
AcDbEntity
 67
     1
  8
0
100
AcDbBlockBegin
  2
*Paper_Space
 70
     0
 10
0.0
 20
0.0
 30
0.0
  3
*Paper_Space
  1

  0
ENDBLK
  5
1D
330
1B
100
AcDbEntity
 67
     1
  8
0
100
AcDbBlockEnd
  0
BLOCK
  5
24
330
23
100
AcDbEntity
  8
0
100
AcDbBlockBegin
  2
*Paper_Space0
 70
     0
 10
0.0
 20
0.0
 30
0.0
  3
*Paper_Space0
  1

  0
ENDBLK
  5
25
330
23
100
AcDbEntity
  8
0
100
AcDbBlockEnd
  0
ENDSEC
  0
SECTION
  2
ENTITIES
  0
SPLINE
  5
82
330
1F
100
AcDbEntity
  8
0
  6
Continuous
 62
     7
370
    25
100
AcDbSpline
210
0.0
220
0.0
230
1.0
 70
     8
 71
     3
 72
    19
 73
    15
 74
     0
 42
0.000000001
 43
0.00000001
 40
0.0
 40
0.0
 40
0.0
 40
0.0
 40
0.1285428623689006
 40
0.2501833658111073
 40
0.3676423958125613
 40
0.482855048470234
 40
0.5405033646233902
 40
0.5992328796241182
 40
0.6596398306386149
 40
0.7216651114752358
 40
0.7863724582546209
 40
0.8542028512456524
 40
0.9255393771011088
 40
1.0
 40
1.0
 40
1.0
 40
1.0
 10
2.504855858512743
 20
0.5015616270348774
 30
0.0
 10
2.504791097911214
 20
0.4997886503077706
 30
0.0
 10
2.504665054154575
 20
0.4963379002862
 30
0.0
 10
2.503650646644412
 20
0.4913467166381173
 30
0.0
 10
2.501957300593672
 20
0.4867476883069877
 30
0.0
 10
2.499994700620716
 20
0.4832366827586198
 30
0.0
 10
2.498077085272328
 20
0.4806786858392707
 30
0.0
 10
2.496411622087745
 20
0.478892983843956
 30
0.0
 10
2.494531260926298
 20
0.4772449133106723
 30
0.0
 10
2.492459476767761
 20
0.4757029464704294
 30
0.0
 10
2.49016991343931
 20
0.4742995957476258
 30
0.0
 10
2.487664185606284
 20
0.4730222435669109
 30
0.0
 10
2.484951858816047
 20
0.4718678928084051
 30
0.0
 10
2.483049011542911
 20
0.4712195607663587
 30
0.0
 10
2.482077201089486
 20
0.4708884486142451
 30
0.0
  0
SPLINE
  5
86
330
1F
100
AcDbEntity
  8
0
  6
Continuous
 62
     7
370
    25
100
AcDbSpline
210
0.0
220
0.0
230
1.0
 70
     8
 71
     3
 72
    21
 73
    17
 74
     0
 42
0.000000001
 43
0.00000001
 40
0.0
 40
0.0
 40
0.0
 40
0.0
 40
0.1193489637753423
 40
0.2383531199390113
 40
0.2981936897039725
 40
0.3568112946137043
 40
0.4157921536839347
 40
0.4750596628706984
 40
0.535086169602961
 40
0.5959423628256206
 40
0.6578312767354728
 40
0.7218988600038817
 40
0.7878379443417358
 40
0.855613988032304
 40
0.926356633928862
 40
1.0
 40
1.0
 40
1.0
 40
1.0
 10
2.482077201089487
 20
0.4708884486142451
 30
0.0
 10
2.483852472092081
 20
0.470464706036565
 30
0.0
 10
2.487397885213575
 20
0.4696184451035306
 30
0.0
 10
2.491571950503038
 20
0.4677407009916267
 30
0.0
 10
2.494725235901361
 20
0.4659475521326887
 30
0.0
 10
2.49692415355628
 20
0.4643584785466199
 30
0.0
 10
2.498990535659247
 20
0.4626168642596679
 30
0.0
 10
2.500898756440953
 20
0.4606710563590283
 30
0.0
 10
2.502650604730456
 20
0.4585476293146158
 30
0.0
 10
2.504223510069466
 20
0.4562363193924426
 30
0.0
 10
2.50555105952689
 20
0.4537089543120443
 30
0.0
 10
2.506760488110855
 20
0.451037206634367
 30
0.0
 10
2.507682403365086
 20
0.4481561381491163
 30
0.0
 10
2.508378523969066
 20
0.4451105659956234
 30
0.0
 10
2.508787638175672
 20
0.4418906650347708
 30
0.0
 10
2.50882888614873
 20
0.4396859706463841
 30
0.0
 10
2.508849924471889
 20
0.4385614772574036
 30
0.0
  0
CIRCLE
  5
F7
330
1F
100
AcDbEntity
  8
0
  6
Continuous
 62
     7
370
    25
100
AcDbCircle
 10
0.5511811024
 20
0.5511811024
 30
0.0
 40
0.3937007874015762
  0
CIRCLE
  5
F8
330
1F
100
AcDbEntity
  8
0
  6
Continuous
 62
     7
370
    25
100
AcDbCircle
 10
10.7598425176
 20
0.5511811024
 30
0.0
 40
0.3937007874014355
  0
CIRCLE
  5
F9
330
1F
100
AcDbEntity
  8
0
  6
Continuous
 62
     7
370
    25
100
AcDbCircle
 10
10.7598425176
 20
10.7598425176
 30
0.0
 40
0.3937007874014622
  0
CIRCLE
  5
FA
330
1F
100
AcDbEntity
  8
0
  6
Continuous
 62
     7
370
    25
100
AcDbCircle
 10
0.5511811024
 20
10.7598425176
 30
0.0
 40
0.3937007874015747
  0
SPLINE
  5
14E
330
1F
100
AcDbEntity
  8
0
  6
Continuous
 62
     7
370
    25
100
AcDbSpline
210
0.0
220
0.0
230
1.0
 70
     8
 71
     3
 72
    19
 73
    15
 74
     0
 42
0.000000001
 43
0.00000001
 40
0.0
 40
0.0
 40
0.0
 40
0.0
 40
0.1285428623689021
 40
0.2501833658111099
 40
0.3676423958125625
 40
0.4828550484702362
 40
0.540503364623393
 40
0.599232879624117
 40
0.659639830638624
 40
0.7216651114752402
 40
0.7863724582546314
 40
0.8542028512456576
 40
0.9255393771011207
 40
1.0
 40
1.0
 40
1.0
 40
1.0
 10
2.151381021128285
 20
0.5015616270348774
 30
0.0
 10
2.151316260526757
 20
0.4997886503077706
 30
0.0
 10
2.151190216770116
 20
0.4963379002862
 30
0.0
 10
2.150175809259952
 20
0.4913467166381173
 30
0.0
 10
2.148482463209214
 20
0.4867476883069877
 30
0.0
 10
2.146519863236258
 20
0.4832366827586198
 30
0.0
 10
2.14460224788787
 20
0.4806786858392707
 30
0.0
 10
2.142936784703288
 20
0.478892983843955
 30
0.0
 10
2.141056423541839
 20
0.4772449133106723
 30
0.0
 10
2.138984639383305
 20
0.4757029464704294
 30
0.0
 10
2.136695076054851
 20
0.4742995957476258
 30
0.0
 10
2.134189348221827
 20
0.4730222435669109
 30
0.0
 10
2.131477021431588
 20
0.4718678928084051
 30
0.0
 10
2.129574174158453
 20
0.4712195607663587
 30
0.0
 10
2.128602363705028
 20
0.4708884486142451
 30
0.0
  0
SPLINE
  5
15B
330
1F
100
AcDbEntity
  8
0
  6
Continuous
 62
     7
370
    25
100
AcDbSpline
210
0.0
220
0.0
230
1.0
 70
     8
 71
     3
 72
    23
 73
    19
 74
     0
 42
0.000000001
 43
0.00000001
 40
0.0
 40
0.0
 40
0.0
 40
0.0
 40
0.0633260535318749
 40
0.1236454103603156
 40
0.1812826135194394
 40
0.2379768131268559
 40
0.2935407629237205
 40
0.3486816025440867
 40
0.4043209273922863
 40
0.4610035301292951
 40
0.5191347754940406
 40
0.5793491400874592
 40
0.6418444293279398
 40
0.7078704626648749
 40
0.7766051911033087
 40
0.8476526632479009
 40
0.9221245276930597
 40
1.0
 40
1.0
 40
1.0
 40
1.0
 10
2.155375087087431
 20
0.4385614772574036
 30
0.0
 10
2.155327314811681
 20
0.4369361101911823
 30
0.0
 10
2.155234038469485
 20
0.4337625478628759
 30
0.0
 10
2.154503053865091
 20
0.429156210796844
 30
0.0
 10
2.15332056316804
 20
0.4248243603929245
 30
0.0
 10
2.151631501787952
 20
0.4207911593098757
 30
0.0
 10
2.149480682038327
 20
0.4170643970098784
 30
0.0
 10
2.146985212915058
 20
0.4135901351422288
 30
0.0
 10
2.144022732098493
 20
0.4104611944428765
 30
0.0
 10
2.140664543752127
 20
0.4076469611645669
 30
0.0
 10
2.136927784815488
 20
0.4051412400502216
 30
0.0
 10
2.132822953017855
 20
0.402963507033284
 30
0.0
 10
2.128355803300935
 20
0.4010788093333303
 30
0.0
 10
2.123529710249751
 20
0.399533857788338
 30
0.0
 10
2.118383653983363
 20
0.3983307560369178
 30
0.0
 10
2.112953484484295
 20
0.3974466888570024
 30
0.0
 10
2.107236732376833
 20
0.3969620076675683
 30
0.0
 10
2.10332827195247
 20
0.3968827330292032
 30
0.0
 10
2.101330382077732
 20
0.3968422101685073
 30
0.0
  0
SPLINE
  5
15C
330
1F
100
AcDbEntity
  8
0
  6
Continuous
 62
     7
370
    25
100
AcDbSpline
210
0.0
220
0.0
230
1.0
 70
     8
 71
     3
 72
    19
 73
    15
 74
     0
 42
0.000000001
 43
0.00000001
 40
0.0
 40
0.0
 40
0.0
 40
0.0
 40
0.128542862368902
 40
0.2501833658111098
 40
0.3676423958125623
 40
0.482855048470236
 40
0.5405033646233927
 40
0.5992328796241166
 40
0.6596398306386188
 40
0.7216651114752402
 40
0.7863724582546314
 40
0.8542028512456576
 40
0.9255393771011207
 40
1.0
 40
1.0
 40
1.0
 40
1.0
 10
2.033556075333466
 20
0.5015616270348774
 30
0.0
 10
2.033491314731938
 20
0.4997886503077706
 30
0.0
 10
2.033365270975297
 20
0.4963379002862
 30
0.0
 10
2.032350863465134
 20
0.4913467166381173
 30
0.0
 10
2.030657517414394
 20
0.4867476883069877
 30
0.0
 10
2.028694917441438
 20
0.4832366827586198
 30
0.0
 10
2.026777302093051
 20
0.4806786858392707
 30
0.0
 10
2.025111838908468
 20
0.478892983843955
 30
0.0
 10
2.02323147774702
 20
0.4772449133106723
 30
0.0
 10
2.021159693588484
 20
0.4757029464704294
 30
0.0
 10
2.018870130260031
 20
0.4742995957476258
 30
0.0
 10
2.016364402427008
 20
0.473022243566912
 30
0.0
 10
2.013652075636768
 20
0.4718678928084051
 30
0.0
 10
2.011749228363634
 20
0.4712195607663587
 30
0.0
 10
2.010777417910209
 20
0.4708884486142451
 30
0.0
  0
SPLINE
  5
15D
330
1F
100
AcDbEntity
  8
0
  6
Continuous
 62
     7
370
    25
100
AcDbSpline
210
0.0
220
0.0
230
1.0
 70
     8
 71
     3
 72
    23
 73
    19
 74
     0
 42
0.000000001
 43
0.00000001
 40
0.0
 40
0.0
 40
0.0
 40
0.0
 40
0.0867985091117822
 40
0.1680325757699649
 40
0.2438549343749079
 40
0.3151430648712643
 40
0.3818274405512958
 40
0.4445164656257104
 40
0.5035922754268299
 40
0.559498659529217
 40
0.6133316326846674
 40
0.6658467966471305
 40
0.7179152797095444
 40
0.7701264042050439
 40
0.8240197862945497
 40
0.8797950640280637
 40
0.9382240930441976
 40
1.0
 40
1.0
 40
1.0
 40
1.0
 10
1.987281076759918
 20
0.5346374857590587
 30
0.0
 10
1.989154259374515
 20
0.5346192010883039
 30
0.0
 10
1.992780539397516
 20
0.5345838039328062
 30
0.0
 10
1.998027395637723
 20
0.534151935137361
 30
0.0
 10
2.002919374360057
 20
0.5335555456651335
 30
0.0
 10
2.007451487979016
 20
0.5326647977911121
 30
0.0
 10
2.011613449063067
 20
0.53146065204422
 30
0.0
 10
2.01544538790015
 20
0.5300865295105789
 30
0.0
 10
2.018894714246009
 20
0.528394420922299
 30
0.0
 10
2.021979234348834
 20
0.526446884647808
 30
0.0
 10
2.024729712517562
 20
0.5242648767233733
 30
0.0
 10
2.027079056268081
 20
0.5217688820256193
 30
0.0
 10
2.02910011336643
 20
0.5190447513560063
 30
0.0
 10
2.030732973705249
 20
0.5160364818991701
 30
0.0
 10
2.032016782479872
 20
0.5127790184528923
 30
0.0
 10
2.032915942298111
 20
0.5092571169006744
 30
0.0
 10
2.033447959638679
 20
0.5054887456068294
 30
0.0
 10
2.033519373969772
 20
0.502894741595742
 30
0.0
 10
2.033556075333466
 20
0.5015616270348774
 30
0.0
  0
SPLINE
  5
15E
330
1F
100
AcDbEntity
  8
0
  6
Continuous
 62
     7
370
    25
100
AcDbSpline
210
0.0
220
0.0
230
1.0
 70
     8
 71
     3
 72
    23
 73
    19
 74
     0
 42
0.000000001
 43
0.00000001
 40
0.0
 40
0.0
 40
0.0
 40
0.0
 40
0.0867985091117822
 40
0.1680325757699649
 40
0.2438549343749079
 40
0.3151430648712643
 40
0.3818274405512918
 40
0.4445164656257103
 40
0.5035922754268298
 40
0.5594986595292168
 40
0.6133316326846674
 40
0.6658467966471305
 40
0.7179152797095444
 40
0.7701264042050439
 40
0.8240197862945497
 40
0.8797950640280637
 40
0.9382240930441976
 40
1.0
 40
1.0
 40
1.0
 40
1.0
 10
2.105106022554737
 20
0.5346374857590587
 30
0.0
 10
2.106979205169334
 20
0.5346192010883039
 30
0.0
 10
2.110605485192336
 20
0.5345838039328062
 30
0.0
 10
2.115852341432543
 20
0.534151935137361
 30
0.0
 10
2.120744320154874
 20
0.5335555456651335
 30
0.0
 10
2.125276433773835
 20
0.5326647977911121
 30
0.0
 10
2.129438394857885
 20
0.53146065204422
 30
0.0
 10
2.133270333694969
 20
0.5300865295105789
 30
0.0
 10
2.136719660040828
 20
0.528394420922299
 30
0.0
 10
2.139804180143654
 20
0.526446884647808
 30
0.0
 10
2.142554658312382
 20
0.5242648767233733
 30
0.0
 10
2.1449040020629
 20
0.5217688820256193
 30
0.0
 10
2.14692505916125
 20
0.5190447513560063
 30
0.0
 10
2.148557919500068
 20
0.5160364818991701
 30
0.0
 10
2.149841728274691
 20
0.5127790184528923
 30
0.0
 10
2.15074088809293
 20
0.5092571169006744
 30
0.0
 10
2.151272905433498
 20
0.5054887456068294
 30
0.0
 10
2.151344319764591
 20
0.502894741595742
 30
0.0
 10
2.151381021128285
 20
0.5015616270348774
 30
0.0
  0
SPLINE
  5
15F
330
1F
100
AcDbEntity
  8
0
  6
Continuous
 62
     7
370
    25
100
AcDbSpline
210
0.0
220
0.0
230
1.0
 70
     8
 71
     3
 72
    23
 73
    19
 74
     0
 42
0.000000001
 43
0.00000001
 40
0.0
 40
0.0
 40
0.0
 40
0.0
 40
0.0633260535318749
 40
0.1236454103603156
 40
0.1812826135194394
 40
0.2379768131268559
 40
0.2935407629237205
 40
0.3486816025440867
 40
0.4043209273922863
 40
0.4610035301292951
 40
0.5191347754940406
 40
0.5793491400874592
 40
0.6418444293279398
 40
0.7078704626648749
 40
0.7766051911033087
 40
0.8476526632479009
 40
0.9221245276930597
 40
1.0
 40
1.0
 40
1.0
 40
1.0
 10
2.037550141292612
 20
0.4385614772574036
 30
0.0
 10
2.037502369016861
 20
0.4369361101911823
 30
0.0
 10
2.037409092674666
 20
0.4337625478628759
 30
0.0
 10
2.036678108070272
 20
0.429156210796844
 30
0.0
 10
2.035495617373221
 20
0.4248243603929245
 30
0.0
 10
2.033806555993132
 20
0.4207911593098757
 30
0.0
 10
2.031655736243508
 20
0.4170643970098784
 30
0.0
 10
2.029160267120238
 20
0.4135901351422288
 30
0.0
 10
2.026197786303674
 20
0.4104611944428765
 30
0.0
 10
2.022839597957307
 20
0.4076469611645669
 30
0.0
 10
2.019102839020669
 20
0.4051412400502216
 30
0.0
 10
2.014998007223035
 20
0.402963507033284
 30
0.0
 10
2.010530857506116
 20
0.4010788093333303
 30
0.0
 10
2.005704764454931
 20
0.399533857788338
 30
0.0
 10
2.000558708188544
 20
0.3983307560369178
 30
0.0
 10
1.995128538689476
 20
0.3974466888570024
 30
0.0
 10
1.989411786582013
 20
0.3969620076675683
 30
0.0
 10
1.98550332615765
 20
0.3968827330292032
 30
0.0
 10
1.983505436282913
 20
0.3968422101685073
 30
0.0
  0
SPLINE
  5
160
330
1F
100
AcDbEntity
  8
0
  6
Continuous
 62
     7
370
    25
100
AcDbSpline
210
0.0
220
0.0
230
1.0
 70
     8
 71
     3
 72
    23
 73
    19
 74
     0
 42
0.000000001
 43
0.00000001
 40
0.0
 40
0.0
 40
0.0
 40
0.0
 40
0.0633260535318749
 40
0.123645410360315
 40
0.1812826135194387
 40
0.2379768131268565
 40
0.2935407629237194
 40
0.3486816025440898
 40
0.404320927392287
 40
0.4610035301292957
 40
0.519134775494044
 40
0.5793491400874594
 40
0.6418444293279402
 40
0.7078704626648716
 40
0.7766051911033125
 40
0.8476526632479046
 40
0.9221245276930597
 40
1.0
 40
1.0
 40
1.0
 40
1.0
 10
2.508849924471889
 20
0.4385614772574036
 30
0.0
 10
2.508802152196138
 20
0.4369361101911823
 30
0.0
 10
2.508708875853944
 20
0.4337625478628759
 30
0.0
 10
2.507977891249549
 20
0.429156210796844
 30
0.0
 10
2.506795400552499
 20
0.4248243603929245
 30
0.0
 10
2.505106339172409
 20
0.4207911593098757
 30
0.0
 10
2.502955519422785
 20
0.4170643970098784
 30
0.0
 10
2.500460050299514
 20
0.4135901351422288
 30
0.0
 10
2.497497569482953
 20
0.4104611944428765
 30
0.0
 10
2.494139381136584
 20
0.4076469611645669
 30
0.0
 10
2.490402622199947
 20
0.4051412400502216
 30
0.0
 10
2.486297790402312
 20
0.402963507033284
 30
0.0
 10
2.481830640685394
 20
0.4010788093333303
 30
0.0
 10
2.477004547634209
 20
0.399533857788338
 30
0.0
 10
2.47185849136782
 20
0.3983307560369178
 30
0.0
 10
2.466428321868753
 20
0.3974466888570024
 30
0.0
 10
2.46071156976129
 20
0.3969620076675683
 30
0.0
 10
2.456803109336928
 20
0.3968827330292032
 30
0.0
 10
2.45480521946219
 20
0.3968422101685073
 30
0.0
  0
SPLINE
  5
161
330
1F
100
AcDbEntity
  8
0
  6
Continuous
 62
     7
370
    25
100
AcDbSpline
210
0.0
220
0.0
230
1.0
 70
     8
 71
     3
 72
    21
 73
    17
 74
     0
 42
0.000000001
 43
0.00000001
 40
0.0
 40
0.0
 40
0.0
 40
0.0
 40
0.1193489637753372
 40
0.2383531199390013
 40
0.2981936897039681
 40
0.3568112946137001
 40
0.4157921536839354
 40
0.4750596628706952
 40
0.5350861696029581
 40
0.5959423628256214
 40
0.6578312767354683
 40
0.7218988600038775
 40
0.7878379443417338
 40
0.8556139880323037
 40
0.9263566339288621
 40
1.0
 40
1.0
 40
1.0
 40
1.0
 10
2.128602363705028
 20
0.4708884486142451
 30
0.0
 10
2.130377634707624
 20
0.470464706036565
 30
0.0
 10
2.133923047829117
 20
0.4696184451035306
 30
0.0
 10
2.138097113118581
 20
0.4677407009916267
 30
0.0
 10
2.141250398516902
 20
0.4659475521326887
 30
0.0
 10
2.143449316171822
 20
0.4643584785466199
 30
0.0
 10
2.145515698274788
 20
0.462616864259669
 30
0.0
 10
2.147423919056494
 20
0.4606710563590283
 30
0.0
 10
2.149175767345998
 20
0.4585476293146158
 30
0.0
 10
2.150748672685008
 20
0.4562363193924426
 30
0.0
 10
2.152076222142432
 20
0.4537089543120443
 30
0.0
 10
2.153285650726396
 20
0.451037206634367
 30
0.0
 10
2.154207565980629
 20
0.4481561381491163
 30
0.0
 10
2.154903686584608
 20
0.4451105659956234
 30
0.0
 10
2.155312800791214
 20
0.4418906650347708
 30
0.0
 10
2.155354048764272
 20
0.4396859706463841
 30
0.0
 10
2.155375087087431
 20
0.4385614772574036
 30
0.0
  0
SPLINE
  5
162
330
1F
100
AcDbEntity
  8
0
  6
Continuous
 62
     7
370
    25
100
AcDbSpline
210
0.0
220
0.0
230
1.0
 70
     8
 71
     3
 72
    23
 73
    19
 74
     0
 42
0.000000001
 43
0.00000001
 40
0.0
 40
0.0
 40
0.0
 40
0.0
 40
0.0867985091117822
 40
0.1680325757699649
 40
0.2438549343749038
 40
0.3151430648712686
 40
0.3818274405512961
 40
0.4445164656257147
 40
0.5035922754268266
 40
0.5594986595292172
 40
0.6133316326846645
 40
0.6658467966471334
 40
0.7179152797095473
 40
0.7701264042050426
 40
0.8240197862945501
 40
0.8797950640280632
 40
0.9382240930441975
 40
1.0
 40
1.0
 40
1.0
 40
1.0
 10
2.458580859939195
 20
0.5346374857590587
 30
0.0
 10
2.460454042553792
 20
0.5346192010883039
 30
0.0
 10
2.464080322576794
 20
0.5345838039328062
 30
0.0
 10
2.469327178817
 20
0.534151935137361
 30
0.0
 10
2.474219157539333
 20
0.5335555456651335
 30
0.0
 10
2.478751271158294
 20
0.5326647977911121
 30
0.0
 10
2.482913232242344
 20
0.53146065204422
 30
0.0
 10
2.486745171079428
 20
0.53008652951058
 30
0.0
 10
2.490194497425285
 20
0.528394420922299
 30
0.0
 10
2.493279017528113
 20
0.526446884647808
 30
0.0
 10
2.49602949569684
 20
0.5242648767233733
 30
0.0
 10
2.498378839447359
 20
0.5217688820256193
 30
0.0
 10
2.500399896545708
 20
0.5190447513560063
 30
0.0
 10
2.502032756884525
 20
0.516036481899169
 30
0.0
 10
2.50331656565915
 20
0.5127790184528923
 30
0.0
 10
2.504215725477387
 20
0.5092571169006744
 30
0.0
 10
2.504747742817956
 20
0.5054887456068294
 30
0.0
 10
2.504819157149049
 20
0.502894741595742
 30
0.0
 10
2.504855858512743
 20
0.5015616270348774
 30
0.0
  0
SPLINE
  5
163
330
1F
100
AcDbEntity
  8
0
  6
Continuous
 62
     7
370
    25
100
AcDbSpline
210
0.0
220
0.0
230
1.0
 70
     8
 71
     3
 72
    21
 73
    17
 74
     0
 42
0.000000001
 43
0.00000001
 40
0.0
 40
0.0
 40
0.0
 40
0.0
 40
0.1193489637753372
 40
0.2383531199390013
 40
0.2981936897039681
 40
0.3568112946137001
 40
0.4157921536839354
 40
0.4750596628706952
 40
0.5350861696029581
 40
0.5959423628256214
 40
0.6578312767354683
 40
0.7218988600038775
 40
0.7878379443417338
 40
0.8556139880323037
 40
0.9263566339288621
 40
1.0
 40
1.0
 40
1.0
 40
1.0
 10
2.010777417910209
 20
0.4708884486142451
 30
0.0
 10
2.012552688912804
 20
0.470464706036565
 30
0.0
 10
2.016098102034298
 20
0.4696184451035306
 30
0.0
 10
2.020272167323761
 20
0.4677407009916267
 30
0.0
 10
2.023425452722083
 20
0.4659475521326887
 30
0.0
 10
2.025624370377002
 20
0.4643584785466199
 30
0.0
 10
2.027690752479969
 20
0.462616864259669
 30
0.0
 10
2.029598973261675
 20
0.4606710563590283
 30
0.0
 10
2.031350821551179
 20
0.4585476293146158
 30
0.0
 10
2.032923726890189
 20
0.4562363193924426
 30
0.0
 10
2.034251276347613
 20
0.4537089543120443
 30
0.0
 10
2.035460704931577
 20
0.451037206634367
 30
0.0
 10
2.036382620185809
 20
0.4481561381491163
 30
0.0
 10
2.037078740789789
 20
0.4451105659956234
 30
0.0
 10
2.037487854996394
 20
0.4418906650347708
 30
0.0
 10
2.037529102969452
 20
0.4396859706463841
 30
0.0
 10
2.037550141292612
 20
0.4385614772574036
 30
0.0
  0
SPLINE
  5
167
330
1F
100
AcDbEntity
  8
0
  6
Continuous
 62
     7
370
    25
100
AcDbSpline
210
0.0
220
0.0
230
1.0
 70
     8
 71
     3
 72
    21
 73
    17
 74
     0
 42
0.000000001
 43
0.00000001
 40
0.0
 40
0.0
 40
0.0
 40
0.0
 40
0.1481099039642273
 40
0.2834111377086895
 40
0.3473298973787515
 40
0.4080164734869347
 40
0.4665361356180682
 40
0.5238711608478812
 40
0.5798789656630172
 40
0.6357582137558793
 40
0.6911959771072469
 40
0.747667346791907
 40
0.8060331849591
 40
0.8668726428551391
 40
0.9310300546049198
 40
1.0
 40
1.0
 40
1.0
 40
1.0
 10
2.103733062381281
 20
0.4767235293514351
 30
0.0
 10
2.10572409337011
 20
0.4767875595888477
 30
0.0
 10
2.109533969297743
 20
0.4769100826743887
 30
0.0
 10
2.114143877918209
 20
0.4777385002567974
 30
0.0
 10
2.117504902277172
 20
0.4787128850751738
 30
0.0
 10
2.119752217375174
 20
0.4797231670094917
 30
0.0
 10
2.121878300854666
 20
0.4807837599416096
 30
0.0
 10
2.123772506710919
 20
0.4821158690094396
 30
0.0
 10
2.125513127403521
 20
0.4835839170721531
 30
0.0
 10
2.127040564478062
 20
0.4852414177173207
 30
0.0
 10
2.128371150162877
 20
0.4870682202822935
 30
0.0
 10
2.129464627051628
 20
0.4890843613435235
 30
0.0
 10
2.130347320395932
 20
0.4912798567974241
 30
0.0
 10
2.13096365413084
 20
0.4936707499720297
 30
0.0
 10
2.13134662376777
 20
0.4962550364118704
 30
0.0
 10
2.131388826931647
 20
0.4980445979382568
 30
0.0
 10
2.131410691332552
 20
0.4989717248894939
 30
0.0
  0
SPLINE
  5
168
330
1F
100
AcDbEntity
  8
0
  6
Continuous
 62
     7
370
    25
100
AcDbSpline
210
0.0
220
0.0
230
1.0
 70
     8
 71
     3
 72
    21
 73
    17
 74
     0
 42
0.000000001
 43
0.00000001
 40
0.0
 40
0.0
 40
0.0
 40
0.0
 40
0.1048107603491781
 40
0.2057872535497624
 40
0.2552082568884605
 40
0.3053322017717602
 40
0.3546722312657828
 40
0.4066370344808519
 40
0.4608426921562795
 40
0.5189640449736423
 40
0.5822085159551534
 40
0.6511354365166087
 40
0.7259770992546093
 40
0.8086500759068579
 40
0.9003756127110932
 40
1.0
 40
1.0
 40
1.0
 40
1.0
 10
2.131410691332553
 20
0.4989717248894939
 30
0.0
 10
2.131353379693448
 20
0.5003086845488315
 30
0.0
 10
2.131240853033317
 20
0.5029336941898778
 30
0.0
 10
2.130431503912658
 20
0.5061087352896563
 30
0.0
 10
2.129483664244557
 20
0.5084853796125253
 30
0.0
 10
2.128524288517123
 20
0.5101321918327031
 30
0.0
 10
2.127298604617456
 20
0.5116306610415962
 30
0.0
 10
2.125858433850036
 20
0.512996789762057
 30
0.0
 10
2.124190031597531
 20
0.5142711532342163
 30
0.0
 10
2.122224883622683
 20
0.5153532624414355
 30
0.0
 10
2.119997872541583
 20
0.5163178709149164
 30
0.0
 10
2.117494406310721
 20
0.517158431840842
 30
0.0
 10
2.114689792395656
 20
0.5178491781802907
 30
0.0
 10
2.111549277849043
 20
0.5183447481603027
 30
0.0
 10
2.108064634489943
 20
0.5186101197239251
 30
0.0
 10
2.105626516476198
 20
0.5186437254459098
 30
0.0
 10
2.104357135187397
 20
0.5186612219224729
 30
0.0
  0
SPLINE
  5
16C
330
1F
100
AcDbEntity
  8
0
  6
Continuous
 62
     7
370
    25
100
AcDbSpline
210
0.0
220
0.0
230
1.0
 70
     8
 71
     3
 72
    21
 73
    17
 74
     0
 42
0.000000001
 43
0.00000001
 40
0.0
 40
0.0
 40
0.0
 40
0.0
 40
0.1048107603491775
 40
0.2057872535497634
 40
0.2552082568884614
 40
0.305332201771761
 40
0.3546722312657836
 40
0.4066370344808526
 40
0.4608426921562802
 40
0.518964044973643
 40
0.582208515955154
 40
0.6511354365166091
 40
0.7259770992546095
 40
0.8086500759068581
 40
0.9003756127110933
 40
1.0
 40
1.0
 40
1.0
 40
1.0
 10
2.013585745537733
 20
0.4989717248894939
 30
0.0
 10
2.013528433898628
 20
0.5003086845488315
 30
0.0
 10
2.013415907238497
 20
0.5029336941898767
 30
0.0
 10
2.012606558117839
 20
0.5061087352896563
 30
0.0
 10
2.011658718449738
 20
0.5084853796125253
 30
0.0
 10
2.010699342722304
 20
0.5101321918327031
 30
0.0
 10
2.009473658822637
 20
0.5116306610415962
 30
0.0
 10
2.008033488055217
 20
0.512996789762057
 30
0.0
 10
2.006365085802712
 20
0.5142711532342163
 30
0.0
 10
2.004399937827863
 20
0.5153532624414355
 30
0.0
 10
2.002172926746764
 20
0.5163178709149164
 30
0.0
 10
1.999669460515901
 20
0.517158431840842
 30
0.0
 10
1.996864846600838
 20
0.5178491781802907
 30
0.0
 10
1.993724332054224
 20
0.5183447481603027
 30
0.0
 10
1.990239688695123
 20
0.5186101197239251
 30
0.0
 10
1.987801570681379
 20
0.5186437254459109
 30
0.0
 10
1.986532189392578
 20
0.5186612219224729
 30
0.0
  0
SPLINE
  5
16D
330
1F
100
AcDbEntity
  8
0
  6
Continuous
 62
     7
370
    25
100
AcDbSpline
210
0.0
220
0.0
230
1.0
 70
     8
 71
     3
 72
    21
 73
    17
 74
     0
 42
0.000000001
 43
0.00000001
 40
0.0
 40
0.0
 40
0.0
 40
0.0
 40
0.1481099039642273
 40
0.2834111377086895
 40
0.3473298973787515
 40
0.4080164734869347
 40
0.4665361356180682
 40
0.5238711608478812
 40
0.5798789656630172
 40
0.6357582137558793
 40
0.6911959771072469
 40
0.747667346791907
 40
0.8060331849591
 40
0.8668726428551391
 40
0.9310300546049198
 40
1.0
 40
1.0
 40
1.0
 40
1.0
 10
1.985908116586461
 20
0.4767235293514351
 30
0.0
 10
1.98789914757529
 20
0.4767875595888477
 30
0.0
 10
1.991709023502924
 20
0.4769100826743887
 30
0.0
 10
1.996318932123389
 20
0.4777385002567974
 30
0.0
 10
1.999679956482353
 20
0.4787128850751738
 30
0.0
 10
2.001927271580354
 20
0.4797231670094917
 30
0.0
 10
2.004053355059847
 20
0.4807837599416096
 30
0.0
 10
2.0059475609161
 20
0.4821158690094396
 30
0.0
 10
2.007688181608702
 20
0.4835839170721531
 30
0.0
 10
2.009215618683243
 20
0.4852414177173207
 30
0.0
 10
2.010546204368058
 20
0.4870682202822935
 30
0.0
 10
2.011639681256809
 20
0.4890843613435235
 30
0.0
 10
2.012522374601112
 20
0.4912798567974241
 30
0.0
 10
2.01313870833602
 20
0.4936707499720297
 30
0.0
 10
2.013521677972951
 20
0.4962550364118704
 30
0.0
 10
2.013563881136828
 20
0.4980445979382568
 30
0.0
 10
2.013585745537733
 20
0.4989717248894939
 30
0.0
  0
SPLINE
  5
171
330
1F
100
AcDbEntity
  8
0
  6
Continuous
 62
     7
370
    25
100
AcDbSpline
210
0.0
220
0.0
230
1.0
 70
     8
 71
     3
 72
    23
 73
    19
 74
     0
 42
0.000000001
 43
0.00000001
 40
0.0
 40
0.0
 40
0.0
 40
0.0
 40
0.0592778177595659
 40
0.1163913973692726
 40
0.172147887657512
 40
0.2264759683575402
 40
0.2808040490575709
 40
0.3347372846926026
 40
0.3892243701867855
 40
0.4460431565357301
 40
0.5044213316927054
 40
0.5647247417857264
 40
0.6287090369173645
 40
0.6959470142967956
 40
0.7662050871176778
 40
0.840562664393654
 40
0.9179353860272986
 40
1.0
 40
1.0
 40
1.0
 40
1.0
 10
2.488879594676157
 20
0.4378437935303697
 30
0.0
 10
2.488858885522113
 20
0.4387087432087903
 30
0.0
 10
2.488818223306991
 20
0.4404070631795721
 30
0.0
 10
2.488400631286458
 20
0.4428907436559227
 30
0.0
 10
2.487716153528263
 20
0.4452362484683476
 30
0.0
 10
2.486765643115866
 20
0.447442362788294
 30
0.0
 10
2.485591644002657
 20
0.4495099792191414
 30
0.0
 10
2.484130031352482
 20
0.4513871056735311
 30
0.0
 10
2.482463942745602
 20
0.453134378679862
 30
0.0
 10
2.480525235478455
 20
0.4546833928582117
 30
0.0
 10
2.478357047230977
 20
0.4560487532727517
 30
0.0
 10
2.475993056543502
 20
0.4572824389674425
 30
0.0
 10
2.473403136342244
 20
0.4583381814840351
 30
0.0
 10
2.470592443196259
 20
0.4592029539954695
 30
0.0
 10
2.467578349702213
 20
0.4598924641323835
 30
0.0
 10
2.464376110723649
 20
0.4603758762494136
 30
0.0
 10
2.460980049787416
 20
0.460707329104164
 30
0.0
 10
2.458654514329959
 20
0.4607336947501744
 30
0.0
 10
2.457457528888185
 20
0.4607472655148505
 30
0.0
  0
SPLINE
  5
172
330
1F
100
AcDbEntity
  8
0
  6
Continuous
 62
     7
370
    25
100
AcDbSpline
210
0.0
220
0.0
230
1.0
 70
     8
 71
     3
 72
    23
 73
    19
 74
     0
 42
0.000000001
 43
0.00000001
 40
0.0
 40
0.0
 40
0.0
 40
0.0
 40
0.0829188246341177
 40
0.1598938815039289
 40
0.2325564233819787
 40
0.3006958272261088
 40
0.3637556764832324
 40
0.4236747435210374
 40
0.4807003096789255
 40
0.5348597706980053
 40
0.5877167410054615
 40
0.6406978721524974
 40
0.6942911149704586
 40
0.7497520955113282
 40
0.8069461275197123
 40
0.8672827812805188
 40
0.9314383149165602
 40
1.0
 40
1.0
 40
1.0
 40
1.0
 10
2.458081601694302
 20
0.4128184740050931
 30
0.0
 10
2.459340794578932
 20
0.4128345339852247
 30
0.0
 10
2.461768919178792
 20
0.4128655027377544
 30
0.0
 10
2.465290004209036
 20
0.4131562454898426
 30
0.0
 10
2.46856944738966
 20
0.4136005507485338
 30
0.0
 10
2.471589720804498
 20
0.4142947824494264
 30
0.0
 10
2.474368320804055
 20
0.4151366452866145
 30
0.0
 10
2.476913651501901
 20
0.4161492778465692
 30
0.0
 10
2.47918841029764
 20
0.4174134398704882
 30
0.0
 10
2.481256839281607
 20
0.4188116396988673
 30
0.0
 10
2.483049184818081
 20
0.4204627910635044
 30
0.0
 10
2.484626918609757
 20
0.4223077683749181
 30
0.0
 10
2.485939006093088
 20
0.4243975830474695
 30
0.0
 10
2.487033750515521
 20
0.4266776354572463
 30
0.0
 10
2.48788040384674
 20
0.4291706989990579
 30
0.0
 10
2.488467027478996
 20
0.4318711105245298
 30
0.0
 10
2.488805442828948
 20
0.4347876206307396
 30
0.0
 10
2.488854336313255
 20
0.4368027685647826
 30
0.0
 10
2.488879594676157
 20
0.4378437935303697
 30
0.0
  0
SPLINE
  5
176
330
1F
100
AcDbEntity
  8
0
  6
Continuous
 62
     7
370
    25
100
AcDbSpline
210
0.0
220
0.0
230
1.0
 70
     8
 71
     3
 72
    23
 73
    19
 74
     0
 42
0.000000001
 43
0.00000001
 40
0.0
 40
0.0
 40
0.0
 40
0.0
 40
0.0829188246341178
 40
0.1598938815039352
 40
0.2325564233819792
 40
0.3006958272261037
 40
0.3637556764832331
 40
0.4236747435210383
 40
0.4807003096789212
 40
0.5348597706980012
 40
0.5877167410054575
 40
0.6406978721524935
 40
0.6942911149704579
 40
0.749752095511325
 40
0.8069461275197133
 40
0.8672827812805199
 40
0.9314383149165598
 40
1.0
 40
1.0
 40
1.0
 40
1.0
 10
2.104606764309844
 20
0.4128184740050931
 30
0.0
 10
2.105865957194474
 20
0.4128345339852247
 30
0.0
 10
2.108294081794336
 20
0.4128655027377544
 30
0.0
 10
2.111815166824577
 20
0.4131562454898426
 30
0.0
 10
2.115094610005203
 20
0.4136005507485338
 30
0.0
 10
2.11811488342004
 20
0.4142947824494264
 30
0.0
 10
2.120893483419597
 20
0.4151366452866145
 30
0.0
 10
2.123438814117443
 20
0.4161492778465692
 30
0.0
 10
2.125713572913181
 20
0.4174134398704882
 30
0.0
 10
2.127782001897149
 20
0.4188116396988673
 30
0.0
 10
2.129574347433623
 20
0.4204627910635044
 30
0.0
 10
2.131152081225299
 20
0.4223077683749192
 30
0.0
 10
2.132464168708629
 20
0.4243975830474695
 30
0.0
 10
2.13355891313106
 20
0.4266776354572463
 30
0.0
 10
2.134405566462283
 20
0.4291706989990579
 30
0.0
 10
2.134992190094539
 20
0.4318711105245298
 30
0.0
 10
2.135330605444489
 20
0.4347876206307396
 30
0.0
 10
2.135379498928798
 20
0.4368027685647826
 30
0.0
 10
2.135404757291699
 20
0.4378437935303697
 30
0.0
  0
SPLINE
  5
177
330
1F
100
AcDbEntity
  8
0
  6
Continuous
 62
     7
370
    25
100
AcDbSpline
210
0.0
220
0.0
230
1.0
 70
     8
 71
     3
 72
    23
 73
    19
 74
     0
 42
0.000000001
 43
0.00000001
 40
0.0
 40
0.0
 40
0.0
 40
0.0
 40
0.0592778177595662
 40
0.116391397369272
 40
0.1721478876575115
 40
0.2264759683575397
 40
0.2808040490575704
 40
0.3347372846926022
 40
0.3892243701867808
 40
0.4460431565357303
 40
0.5044213316927056
 40
0.5647247417857322
 40
0.6287090369173702
 40
0.6959470142967955
 40
0.7662050871176777
 40
0.8405626643936539
 40
0.9179353860272985
 40
1.0
 40
1.0
 40
1.0
 40
1.0
 10
2.135404757291699
 20
0.4378437935303697
 30
0.0
 10
2.135384048137654
 20
0.4387087432087903
 30
0.0
 10
2.135343385922533
 20
0.4404070631795721
 30
0.0
 10
2.134925793902
 20
0.4428907436559227
 30
0.0
 10
2.134241316143805
 20
0.4452362484683476
 30
0.0
 10
2.133290805731408
 20
0.447442362788294
 30
0.0
 10
2.132116806618199
 20
0.4495099792191414
 30
0.0
 10
2.130655193968023
 20
0.4513871056735311
 30
0.0
 10
2.128989105361146
 20
0.4531343786798631
 30
0.0
 10
2.127050398093996
 20
0.4546833928582117
 30
0.0
 10
2.12488220984652
 20
0.4560487532727528
 30
0.0
 10
2.122518219159042
 20
0.4572824389674425
 30
0.0
 10
2.119928298957785
 20
0.4583381814840351
 30
0.0
 10
2.117117605811801
 20
0.4592029539954695
 30
0.0
 10
2.114103512317754
 20
0.4598924641323835
 30
0.0
 10
2.11090127333919
 20
0.4603758762494136
 30
0.0
 10
2.107505212402958
 20
0.460707329104164
 30
0.0
 10
2.105179676945501
 20
0.4607336947501744
 30
0.0
 10
2.103982691503727
 20
0.4607472655148505
 30
0.0
  0
SPLINE
  5
17B
330
1F
100
AcDbEntity
  8
0
  6
Continuous
 62
     7
370
    25
100
AcDbSpline
210
0.0
220
0.0
230
1.0
 70
     8
 71
     3
 72
    21
 73
    17
 74
     0
 42
0.000000001
 43
0.00000001
 40
0.0
 40
0.0
 40
0.0
 40
0.0
 40
0.1481099039642203
 40
0.2834111377086824
 40
0.3473298973787508
 40
0.40801647348694
 40
0.4665361356180674
 40
0.5238711608478861
 40
0.5798789656630168
 40
0.6357582137558742
 40
0.6911959771072497
 40
0.7476673467919065
 40
0.8060331849590995
 40
0.8668726428551401
 40
0.9310300546049198
 40
1.0
 40
1.0
 40
1.0
 40
1.0
 10
2.457207899765738
 20
0.4767235293514351
 30
0.0
 10
2.459198930754567
 20
0.4767875595888488
 30
0.0
 10
2.4630088066822
 20
0.4769100826743887
 30
0.0
 10
2.467618715302667
 20
0.4777385002567974
 30
0.0
 10
2.47097973966163
 20
0.4787128850751738
 30
0.0
 10
2.473227054759632
 20
0.4797231670094917
 30
0.0
 10
2.475353138239126
 20
0.4807837599416096
 30
0.0
 10
2.477247344095377
 20
0.4821158690094396
 30
0.0
 10
2.478987964787979
 20
0.4835839170721531
 30
0.0
 10
2.48051540186252
 20
0.4852414177173218
 30
0.0
 10
2.481845987547336
 20
0.4870682202822935
 30
0.0
 10
2.482939464436086
 20
0.4890843613435235
 30
0.0
 10
2.48382215778039
 20
0.4912798567974241
 30
0.0
 10
2.484438491515298
 20
0.4936707499720297
 30
0.0
 10
2.484821461152227
 20
0.4962550364118704
 30
0.0
 10
2.484863664316106
 20
0.4980445979382558
 30
0.0
 10
2.484885528717011
 20
0.4989717248894939
 30
0.0
  0
SPLINE
  5
17C
330
1F
100
AcDbEntity
  8
0
  6
Continuous
 62
     7
370
    25
100
AcDbSpline
210
0.0
220
0.0
230
1.0
 70
     8
 71
     3
 72
    21
 73
    17
 74
     0
 42
0.000000001
 43
0.00000001
 40
0.0
 40
0.0
 40
0.0
 40
0.0
 40
0.1048107603491776
 40
0.2057872535497654
 40
0.2552082568884608
 40
0.3053322017717605
 40
0.3546722312657831
 40
0.4066370344808522
 40
0.4608426921562856
 40
0.5189640449736422
 40
0.5822085159551533
 40
0.6511354365166085
 40
0.7259770992546023
 40
0.8086500759068651
 40
0.9003756127110933
 40
1.0
 40
1.0
 40
1.0
 40
1.0
 10
2.484885528717011
 20
0.4989717248894939
 30
0.0
 10
2.484828217077906
 20
0.5003086845488315
 30
0.0
 10
2.484715690417775
 20
0.5029336941898778
 30
0.0
 10
2.483906341297117
 20
0.5061087352896563
 30
0.0
 10
2.482958501629015
 20
0.5084853796125253
 30
0.0
 10
2.481999125901582
 20
0.5101321918327031
 30
0.0
 10
2.480773442001913
 20
0.5116306610415962
 30
0.0
 10
2.479333271234495
 20
0.512996789762057
 30
0.0
 10
2.477664868981988
 20
0.5142711532342163
 30
0.0
 10
2.47569972100714
 20
0.5153532624414355
 30
0.0
 10
2.473472709926042
 20
0.5163178709149164
 30
0.0
 10
2.470969243695178
 20
0.517158431840842
 30
0.0
 10
2.468164629780115
 20
0.5178491781802907
 30
0.0
 10
2.465024115233502
 20
0.5183447481603027
 30
0.0
 10
2.461539471874401
 20
0.5186101197239261
 30
0.0
 10
2.459101353860657
 20
0.5186437254459109
 30
0.0
 10
2.457831972571855
 20
0.5186612219224729
 30
0.0
  0
SPLINE
  5
180
330
1F
100
AcDbEntity
  8
0
  6
Continuous
 62
     7
370
    25
100
AcDbSpline
210
0.0
220
0.0
230
1.0
 70
     8
 71
     3
 72
    23
 73
    19
 74
     0
 42
0.000000001
 43
0.00000001
 40
0.0
 40
0.0
 40
0.0
 40
0.0
 40
0.0592778177595659
 40
0.1163913973692726
 40
0.172147887657512
 40
0.2264759683575402
 40
0.2808040490575709
 40
0.3347372846926026
 40
0.3892243701867812
 40
0.4460431565357306
 40
0.5044213316927059
 40
0.5647247417857325
 40
0.6287090369173705
 40
0.6959470142967957
 40
0.7662050871176779
 40
0.840562664393654
 40
0.9179353860272986
 40
1.0
 40
1.0
 40
1.0
 40
1.0
 10
2.01757981149688
 20
0.4378437935303697
 30
0.0
 10
2.017559102342835
 20
0.4387087432087903
 30
0.0
 10
2.017518440127713
 20
0.4404070631795721
 30
0.0
 10
2.017100848107182
 20
0.4428907436559227
 30
0.0
 10
2.016416370348985
 20
0.4452362484683476
 30
0.0
 10
2.015465859936588
 20
0.447442362788294
 30
0.0
 10
2.014291860823379
 20
0.4495099792191414
 30
0.0
 10
2.012830248173204
 20
0.4513871056735311
 30
0.0
 10
2.011164159566326
 20
0.453134378679862
 30
0.0
 10
2.009225452299177
 20
0.4546833928582117
 30
0.0
 10
2.007057264051701
 20
0.4560487532727528
 30
0.0
 10
2.004693273364223
 20
0.4572824389674425
 30
0.0
 10
2.002103353162967
 20
0.4583381814840351
 30
0.0
 10
1.999292660016981
 20
0.4592029539954695
 30
0.0
 10
1.996278566522935
 20
0.4598924641323835
 30
0.0
 10
1.993076327544371
 20
0.4603758762494136
 30
0.0
 10
1.989680266608139
 20
0.460707329104164
 30
0.0
 10
1.987354731150682
 20
0.4607336947501744
 30
0.0
 10
1.986157745708908
 20
0.4607472655148505
 30
0.0
  0
SPLINE
  5
181
330
1F
100
AcDbEntity
  8
0
  6
Continuous
 62
     7
370
    25
100
AcDbSpline
210
0.0
220
0.0
230
1.0
 70
     8
 71
     3
 72
    23
 73
    19
 74
     0
 42
0.000000001
 43
0.00000001
 40
0.0
 40
0.0
 40
0.0
 40
0.0
 40
0.0829188246341177
 40
0.159893881503935
 40
0.2325564233819789
 40
0.3006958272261033
 40
0.3637556764832326
 40
0.4236747435210377
 40
0.4807003096789206
 40
0.5348597706980004
 40
0.5877167410054567
 40
0.6406978721524965
 40
0.6942911149704577
 40
0.7497520955113248
 40
0.806946127519713
 40
0.8672827812805195
 40
0.9314383149165602
 40
1.0
 40
1.0
 40
1.0
 40
1.0
 10
1.986781818515025
 20
0.4128184740050931
 30
0.0
 10
1.988041011399655
 20
0.4128345339852247
 30
0.0
 10
1.990469135999516
 20
0.4128655027377544
 30
0.0
 10
1.993990221029758
 20
0.4131562454898426
 30
0.0
 10
1.997269664210383
 20
0.4136005507485338
 30
0.0
 10
2.000289937625221
 20
0.4142947824494264
 30
0.0
 10
2.003068537624777
 20
0.4151366452866145
 30
0.0
 10
2.005613868322624
 20
0.4161492778465692
 30
0.0
 10
2.007888627118362
 20
0.4174134398704882
 30
0.0
 10
2.00995705610233
 20
0.4188116396988673
 30
0.0
 10
2.011749401638802
 20
0.4204627910635044
 30
0.0
 10
2.013327135430481
 20
0.4223077683749181
 30
0.0
 10
2.01463922291381
 20
0.4243975830474695
 30
0.0
 10
2.015733967336241
 20
0.4266776354572463
 30
0.0
 10
2.016580620667463
 20
0.4291706989990579
 30
0.0
 10
2.017167244299719
 20
0.4318711105245298
 30
0.0
 10
2.01750565964967
 20
0.4347876206307396
 30
0.0
 10
2.017554553133978
 20
0.4368027685647826
 30
0.0
 10
2.01757981149688
 20
0.4378437935303697
 30
0.0
  0
LINE
  5
186
330
1F
100
AcDbEntity
  8
0
  6
Continuous
 62
     7
370
    25
100
AcDbLine
 10
1.9476836572
 20
0.5346374858
 30
0.0
 11
1.9872810768
 21
0.5346374858
 31
0.0
  0
LINE
  5
187
330
1F
100
AcDbEntity
  8
0
  6
Continuous
 62
     7
370
    25
100
AcDbLine
 10
1.9476836572
 20
0.3968422102
 30
0.0
 11
1.9476836572
 21
0.5346374858
 31
0.0
  0
LINE
  5
188
330
1F
100
AcDbEntity
  8
0
  6
Continuous
 62
     7
370
    25
100
AcDbLine
 10
1.9835054363
 20
0.3968422102
 30
0.0
 11
1.9476836572
 21
0.3968422102
 31
0.0
  0
LINE
  5
189
330
1F
100
AcDbEntity
  8
0
  6
Continuous
 62
     7
370
    25
100
AcDbLine
 10
2.1853305818
 20
0.412818474
 30
0.0
 11
2.2172831095
 21
0.412818474
 31
0.0
  0
LINE
  5
18A
330
1F
100
AcDbEntity
  8
0
  6
Continuous
 62
     7
370
    25
100
AcDbLine
 10
2.1853305818
 20
0.3968422102
 30
0.0
 11
2.1853305818
 21
0.412818474
 31
0.0
  0
LINE
  5
18B
330
1F
100
AcDbEntity
  8
0
  6
Continuous
 62
     7
370
    25
100
AcDbLine
 10
2.2692059669
 20
0.3968422102
 30
0.0
 11
2.1853305818
 21
0.3968422102
 31
0.0
  0
LINE
  5
18C
330
1F
100
AcDbEntity
  8
0
  6
Continuous
 62
     7
370
    25
100
AcDbLine
 10
2.2692059669
 20
0.412818474
 30
0.0
 11
2.2692059669
 21
0.3968422102
 31
0.0
  0
LINE
  5
18D
330
1F
100
AcDbEntity
  8
0
  6
Continuous
 62
     7
370
    25
100
AcDbLine
 10
2.2372534392
 20
0.412818474
 30
0.0
 11
2.2692059669
 21
0.412818474
 31
0.0
  0
LINE
  5
18E
330
1F
100
AcDbEntity
  8
0
  6
Continuous
 62
     7
370
    25
100
AcDbLine
 10
2.2372534392
 20
0.5186612219
 30
0.0
 11
2.2372534392
 21
0.412818474
 31
0.0
  0
LINE
  5
18F
330
1F
100
AcDbEntity
  8
0
  6
Continuous
 62
     7
370
    25
100
AcDbLine
 10
2.2692059669
 20
0.5186612219
 30
0.0
 11
2.2372534392
 21
0.5186612219
 31
0.0
  0
LINE
  5
190
330
1F
100
AcDbEntity
  8
0
  6
Continuous
 62
     7
370
    25
100
AcDbLine
 10
2.2692059669
 20
0.5346374858
 30
0.0
 11
2.2692059669
 21
0.5186612219
 31
0.0
  0
LINE
  5
191
330
1F
100
AcDbEntity
  8
0
  6
Continuous
 62
     7
370
    25
100
AcDbLine
 10
2.1853305818
 20
0.5346374858
 30
0.0
 11
2.2692059669
 21
0.5346374858
 31
0.0
  0
LINE
  5
192
330
1F
100
AcDbEntity
  8
0
  6
Continuous
 62
     7
370
    25
100
AcDbLine
 10
2.1853305818
 20
0.5186612219
 30
0.0
 11
2.1853305818
 21
0.5346374858
 31
0.0
  0
LINE
  5
193
330
1F
100
AcDbEntity
  8
0
  6
Continuous
 62
     7
370
    25
100
AcDbLine
 10
2.2172831095
 20
0.5186612219
 30
0.0
 11
2.1853305818
 21
0.5186612219
 31
0.0
  0
LINE
  5
194
330
1F
100
AcDbEntity
  8
0
  6
Continuous
 62
     7
370
    25
100
AcDbLine
 10
2.2172831095
 20
0.412818474
 30
0.0
 11
2.2172831095
 21
0.5186612219
 31
0.0
  0
LINE
  5
195
330
1F
100
AcDbEntity
  8
0
  6
Continuous
 62
     7
370
    25
100
AcDbLine
 10
2.4189834404
 20
0.5346374858
 30
0.0
 11
2.4585808599
 21
0.5346374858
 31
0.0
  0
LINE
  5
196
330
1F
100
AcDbEntity
  8
0
  6
Continuous
 62
     7
370
    25
100
AcDbLine
 10
2.4189834404
 20
0.3968422102
 30
0.0
 11
2.4189834404
 21
0.5346374858
 31
0.0
  0
LINE
  5
197
330
1F
100
AcDbEntity
  8
0
  6
Continuous
 62
     7
370
    25
100
AcDbLine
 10
2.4548052195
 20
0.3968422102
 30
0.0
 11
2.4189834404
 21
0.3968422102
 31
0.0
  0
LINE
  5
198
330
1F
100
AcDbEntity
  8
0
  6
Continuous
 62
     7
370
    25
100
AcDbLine
 10
2.648642233
 20
0.5346374858
 30
0.0
 11
2.748493882
 21
0.5346374858
 31
0.0
  0
LINE
  5
199
330
1F
100
AcDbEntity
  8
0
  6
Continuous
 62
     7
370
    25
100
AcDbLine
 10
2.648642233
 20
0.5186612219
 30
0.0
 11
2.648642233
 21
0.5346374858
 31
0.0
  0
LINE
  5
19A
330
1F
100
AcDbEntity
  8
0
  6
Continuous
 62
     7
370
    25
100
AcDbLine
 10
2.6885828926
 20
0.5186612219
 30
0.0
 11
2.648642233
 21
0.5186612219
 31
0.0
  0
LINE
  5
19B
330
1F
100
AcDbEntity
  8
0
  6
Continuous
 62
     7
370
    25
100
AcDbLine
 10
2.6885828926
 20
0.3968422102
 30
0.0
 11
2.6885828926
 21
0.5186612219
 31
0.0
  0
LINE
  5
19C
330
1F
100
AcDbEntity
  8
0
  6
Continuous
 62
     7
370
    25
100
AcDbLine
 10
2.7085532224
 20
0.3968422102
 30
0.0
 11
2.6885828926
 21
0.3968422102
 31
0.0
  0
LINE
  5
19D
330
1F
100
AcDbEntity
  8
0
  6
Continuous
 62
     7
370
    25
100
AcDbLine
 10
2.7085532224
 20
0.5186612219
 30
0.0
 11
2.7085532224
 21
0.3968422102
 31
0.0
  0
LINE
  5
19E
330
1F
100
AcDbEntity
  8
0
  6
Continuous
 62
     7
370
    25
100
AcDbLine
 10
2.748493882
 20
0.5186612219
 30
0.0
 11
2.7085532224
 21
0.5186612219
 31
0.0
  0
LINE
  5
19F
330
1F
100
AcDbEntity
  8
0
  6
Continuous
 62
     7
370
    25
100
AcDbLine
 10
2.748493882
 20
0.5346374858
 30
0.0
 11
2.748493882
 21
0.5186612219
 31
0.0
  0
LINE
  5
1A0
330
1F
100
AcDbEntity
  8
0
  6
Continuous
 62
     7
370
    25
100
AcDbLine
 10
9.21801181
 20
2.0059555591
 30
0.0
 11
9.21801181
 21
9.3050680609
 31
0.0
  0
LINE
  5
1A1
330
1F
100
AcDbEntity
  8
0
  6
Continuous
 62
     7
370
    25
100
AcDbLine
 10
9.1738180609
 20
9.34926181
 30
0.0
 11
2.1372055591
 21
9.34926181
 31
0.0
  0
LINE
  5
1A2
330
1F
100
AcDbEntity
  8
0
  6
Continuous
 62
     7
370
    25
100
AcDbLine
 10
2.09301181
 20
9.3050680609
 30
0.0
 11
2.09301181
 21
2.0059555591
 31
0.0
  0
LINE
  5
1A3
330
1F
100
AcDbEntity
  8
0
  6
Continuous
 62
     7
370
    25
100
AcDbLine
 10
2.1372055591
 20
1.96176181
 30
0.0
 11
9.1738180609
 21
1.96176181
 31
0.0
  0
LINE
  5
1A4
330
1F
100
AcDbEntity
  8
0
  6
Continuous
 62
     7
370
    25
100
AcDbLine
 10
10.8303418159
 20
9.8423927376
 30
0.0
 11
10.7218789241
 21
9.8423927376
 31
0.0
  0
LINE
  5
1A5
330
1F
100
AcDbEntity
  8
0
  6
Continuous
 62
     7
370
    25
100
AcDbLine
 10
10.677685175
 20
9.7981989885
 30
0.0
 11
10.677685175
 21
9.6365864868
 31
0.0
  0
LINE
  5
1A6
330
1F
100
AcDbEntity
  8
0
  6
Continuous
 62
     7
370
    25
100
AcDbLine
 10
10.7218789241
 20
9.5923927376
 30
0.0
 11
10.8303418159
 21
9.5923927376
 31
0.0
  0
LINE
  5
1A7
330
1F
100
AcDbEntity
  8
0
  6
Continuous
 62
     7
370
    25
100
AcDbLine
 10
10.874535565
 20
9.6365864868
 30
0.0
 11
10.874535565
 21
9.7981989885
 31
0.0
  0
LINE
  5
1A8
330
1F
100
AcDbEntity
  8
0
  6
Continuous
 62
     7
370
    25
100
AcDbLine
 10
9.8423927376
 20
10.7218789241
 30
0.0
 11
9.8423927376
 21
10.8303418159
 31
0.0
  0
LINE
  5
1A9
330
1F
100
AcDbEntity
  8
0
  6
Continuous
 62
     7
370
    25
100
AcDbLine
 10
9.7981989885
 20
10.874535565
 30
0.0
 11
9.6365864868
 21
10.874535565
 31
0.0
  0
LINE
  5
1AA
330
1F
100
AcDbEntity
  8
0
  6
Continuous
 62
     7
370
    25
100
AcDbLine
 10
9.5923927376
 20
10.8303418159
 30
0.0
 11
9.5923927376
 21
10.7218789241
 31
0.0
  0
LINE
  5
1AB
330
1F
100
AcDbEntity
  8
0
  6
Continuous
 62
     7
370
    25
100
AcDbLine
 10
9.6365864868
 20
10.677685175
 30
0.0
 11
9.7981989885
 21
10.677685175
 31
0.0
  0
LINE
  5
1AC
330
1F
100
AcDbEntity
  8
0
  6
Continuous
 62
     7
370
    25
100
AcDbLine
 10
9.8423927376
 20
0.4806818041
 30
0.0
 11
9.8423927376
 21
0.5891446959
 31
0.0
  0
LINE
  5
1AD
330
1F
100
AcDbEntity
  8
0
  6
Continuous
 62
     7
370
    25
100
AcDbLine
 10
9.7981989885
 20
0.633338445
 30
0.0
 11
9.6365864868
 21
0.633338445
 31
0.0
  0
LINE
  5
1AE
330
1F
100
AcDbEntity
  8
0
  6
Continuous
 62
     7
370
    25
100
AcDbLine
 10
9.5923927376
 20
0.5891446959
 30
0.0
 11
9.5923927376
 21
0.4806818041
 31
0.0
  0
LINE
  5
1AF
330
1F
100
AcDbEntity
  8
0
  6
Continuous
 62
     7
370
    25
100
AcDbLine
 10
9.6365864868
 20
0.436488055
 30
0.0
 11
9.7981989885
 21
0.436488055
 31
0.0
  0
LINE
  5
1B0
330
1F
100
AcDbEntity
  8
0
  6
Continuous
 62
     7
370
    25
100
AcDbLine
 10
10.7218789241
 20
1.4686308824
 30
0.0
 11
10.8303418159
 21
1.4686308824
 31
0.0
  0
LINE
  5
1B1
330
1F
100
AcDbEntity
  8
0
  6
Continuous
 62
     7
370
    25
100
AcDbLine
 10
10.874535565
 20
1.5128246315
 30
0.0
 11
10.874535565
 21
1.6744371332
 31
0.0
  0
LINE
  5
1B2
330
1F
100
AcDbEntity
  8
0
  6
Continuous
 62
     7
370
    25
100
AcDbLine
 10
10.8303418159
 20
1.7186308824
 30
0.0
 11
10.7218789241
 21
1.7186308824
 31
0.0
  0
LINE
  5
1B3
330
1F
100
AcDbEntity
  8
0
  6
Continuous
 62
     7
370
    25
100
AcDbLine
 10
10.677685175
 20
1.6744371332
 30
0.0
 11
10.677685175
 21
1.5128246315
 31
0.0
  0
LINE
  5
1B4
330
1F
100
AcDbEntity
  8
0
  6
Continuous
 62
     7
370
    25
100
AcDbLine
 10
0.4806818041
 20
1.4686308824
 30
0.0
 11
0.5891446959
 21
1.4686308824
 31
0.0
  0
LINE
  5
1B5
330
1F
100
AcDbEntity
  8
0
  6
Continuous
 62
     7
370
    25
100
AcDbLine
 10
0.633338445
 20
1.5128246315
 30
0.0
 11
0.633338445
 21
1.6744371332
 31
0.0
  0
LINE
  5
1B6
330
1F
100
AcDbEntity
  8
0
  6
Continuous
 62
     7
370
    25
100
AcDbLine
 10
0.5891446959
 20
1.7186308824
 30
0.0
 11
0.4806818041
 21
1.7186308824
 31
0.0
  0
LINE
  5
1B7
330
1F
100
AcDbEntity
  8
0
  6
Continuous
 62
     7
370
    25
100
AcDbLine
 10
0.436488055
 20
1.6744371332
 30
0.0
 11
0.436488055
 21
1.5128246315
 31
0.0
  0
LINE
  5
1B8
330
1F
100
AcDbEntity
  8
0
  6
Continuous
 62
     7
370
    25
100
AcDbLine
 10
1.4686308824
 20
0.5891446959
 30
0.0
 11
1.4686308824
 21
0.4806818041
 31
0.0
  0
LINE
  5
1B9
330
1F
100
AcDbEntity
  8
0
  6
Continuous
 62
     7
370
    25
100
AcDbLine
 10
1.5128246315
 20
0.436488055
 30
0.0
 11
1.6744371332
 21
0.436488055
 31
0.0
  0
LINE
  5
1BA
330
1F
100
AcDbEntity
  8
0
  6
Continuous
 62
     7
370
    25
100
AcDbLine
 10
1.7186308824
 20
0.4806818041
 30
0.0
 11
1.7186308824
 21
0.5891446959
 31
0.0
  0
LINE
  5
1BB
330
1F
100
AcDbEntity
  8
0
  6
Continuous
 62
     7
370
    25
100
AcDbLine
 10
1.6744371332
 20
0.633338445
 30
0.0
 11
1.5128246315
 21
0.633338445
 31
0.0
  0
LINE
  5
1BC
330
1F
100
AcDbEntity
  8
0
  6
Continuous
 62
     7
370
    25
100
AcDbLine
 10
1.5128246315
 20
10.677685175
 30
0.0
 11
1.6744371332
 21
10.677685175
 31
0.0
  0
LINE
  5
1BD
330
1F
100
AcDbEntity
  8
0
  6
Continuous
 62
     7
370
    25
100
AcDbLine
 10
1.7186308824
 20
10.7218789241
 30
0.0
 11
1.7186308824
 21
10.8303418159
 31
0.0
  0
LINE
  5
1BE
330
1F
100
AcDbEntity
  8
0
  6
Continuous
 62
     7
370
    25
100
AcDbLine
 10
1.6744371332
 20
10.874535565
 30
0.0
 11
1.5128246315
 21
10.874535565
 31
0.0
  0
LINE
  5
1BF
330
1F
100
AcDbEntity
  8
0
  6
Continuous
 62
     7
370
    25
100
AcDbLine
 10
1.4686308824
 20
10.8303418159
 30
0.0
 11
1.4686308824
 21
10.7218789241
 31
0.0
  0
LINE
  5
1C0
330
1F
100
AcDbEntity
  8
0
  6
Continuous
 62
     7
370
    25
100
AcDbLine
 10
0.436488055
 20
9.7981989885
 30
0.0
 11
0.436488055
 21
9.6365864868
 31
0.0
  0
LINE
  5
1C1
330
1F
100
AcDbEntity
  8
0
  6
Continuous
 62
     7
370
    25
100
AcDbLine
 10
0.4806818041
 20
9.5923927376
 30
0.0
 11
0.5891446959
 21
9.5923927376
 31
0.0
  0
LINE
  5
1C2
330
1F
100
AcDbEntity
  8
0
  6
Continuous
 62
     7
370
    25
100
AcDbLine
 10
0.633338445
 20
9.6365864868
 30
0.0
 11
0.633338445
 21
9.7981989885
 31
0.0
  0
LINE
  5
1C3
330
1F
100
AcDbEntity
  8
0
  6
Continuous
 62
     7
370
    25
100
AcDbLine
 10
0.5891446959
 20
9.8423927376
 30
0.0
 11
0.4806818041
 21
9.8423927376
 31
0.0
  0
LINE
  5
1C4
330
1F
100
AcDbEntity
  8
0
  6
Continuous
 62
     7
370
    25
100
AcDbLine
 10
0.2948680009
 20
9.71801181
 30
0.0
 11
0.2432554991
 21
9.71801181
 31
0.0
  0
LINE
  5
1C5
330
1F
100
AcDbEntity
  8
0
  6
Continuous
 62
     7
370
    25
100
AcDbLine
 10
0.19906175
 20
9.6738180609
 30
0.0
 11
0.19906175
 21
1.6372055591
 31
0.0
  0
LINE
  5
1C6
330
1F
100
AcDbEntity
  8
0
  6
Continuous
 62
     7
370
    25
100
AcDbLine
 10
0.2432554991
 20
1.59301181
 30
0.0
 11
0.2948680009
 21
1.59301181
 31
0.0
  0
LINE
  5
1C7
330
1F
100
AcDbEntity
  8
0
  6
Continuous
 62
     7
370
    25
100
AcDbLine
 10
0.33906175
 20
1.6372055591
 30
0.0
 11
0.33906175
 21
9.6738180609
 31
0.0
  0
LINE
  5
1C8
330
1F
100
AcDbEntity
  8
0
  6
Continuous
 62
     7
370
    25
100
AcDbLine
 10
1.59301181
 20
0.2948680009
 30
0.0
 11
1.59301181
 21
0.2432554991
 31
0.0
  0
LINE
  5
1C9
330
1F
100
AcDbEntity
  8
0
  6
Continuous
 62
     7
370
    25
100
AcDbLine
 10
1.6372055591
 20
0.19906175
 30
0.0
 11
9.6738180609
 21
0.19906175
 31
0.0
  0
LINE
  5
1CA
330
1F
100
AcDbEntity
  8
0
  6
Continuous
 62
     7
370
    25
100
AcDbLine
 10
9.71801181
 20
0.2432554991
 30
0.0
 11
9.71801181
 21
0.2948680009
 31
0.0
  0
LINE
  5
1CB
330
1F
100
AcDbEntity
  8
0
  6
Continuous
 62
     7
370
    25
100
AcDbLine
 10
9.6738180609
 20
0.33906175
 30
0.0
 11
1.6372055591
 21
0.33906175
 31
0.0
  0
LINE
  5
1CC
330
1F
100
AcDbEntity
  8
0
  6
Continuous
 62
     7
370
    25
100
AcDbLine
 10
10.97196187
 20
9.6738180609
 30
0.0
 11
10.97196187
 21
1.6372055591
 31
0.0
  0
LINE
  5
1CD
330
1F
100
AcDbEntity
  8
0
  6
Continuous
 62
     7
370
    25
100
AcDbLine
 10
11.0161556191
 20
1.59301181
 30
0.0
 11
11.0677681209
 21
1.59301181
 31
0.0
  0
LINE
  5
1CE
330
1F
100
AcDbEntity
  8
0
  6
Continuous
 62
     7
370
    25
100
AcDbLine
 10
11.11196187
 20
1.6372055591
 30
0.0
 11
11.11196187
 21
9.6738180609
 31
0.0
  0
LINE
  5
1CF
330
1F
100
AcDbEntity
  8
0
  6
Continuous
 62
     7
370
    25
100
AcDbLine
 10
11.0677681209
 20
9.71801181
 30
0.0
 11
11.0161556191
 21
9.71801181
 31
0.0
  0
LINE
  5
1D0
330
1F
100
AcDbEntity
  8
0
  6
Continuous
 62
     7
370
    25
100
AcDbLine
 10
9.71801181
 20
11.0161556191
 30
0.0
 11
9.71801181
 21
11.0677681209
 31
0.0
  0
LINE
  5
1D1
330
1F
100
AcDbEntity
  8
0
  6
Continuous
 62
     7
370
    25
100
AcDbLine
 10
9.6738180609
 20
11.11196187
 30
0.0
 11
1.6372055591
 21
11.11196187
 31
0.0
  0
LINE
  5
1D2
330
1F
100
AcDbEntity
  8
0
  6
Continuous
 62
     7
370
    25
100
AcDbLine
 10
1.59301181
 20
11.0677681209
 30
0.0
 11
1.59301181
 21
11.0161556191
 31
0.0
  0
LINE
  5
1D3
330
1F
100
AcDbEntity
  8
0
  6
Continuous
 62
     7
370
    25
100
AcDbLine
 10
1.6372055591
 20
10.97196187
 30
0.0
 11
9.6738180609
 21
10.97196187
 31
0.0
  0
LINE
  5
1D4
330
1F
100
AcDbEntity
  8
0
  6
Continuous
 62
     7
370
    25
100
AcDbLine
 10
11.56102362
 20
5.852362205
 30
0.0
 11
11.3552173691
 21
5.852362205
 31
0.0
  0
LINE
  5
1D5
330
1F
100
AcDbEntity
  8
0
  6
Continuous
 62
     7
370
    25
100
AcDbLine
 10
11.56102362
 20
5.458661415
 30
0.0
 11
11.56102362
 21
5.852362205
 31
0.0
  0
LINE
  5
1D6
330
1F
100
AcDbEntity
  8
0
  6
Continuous
 62
     7
370
    25
100
AcDbLine
 10
11.3552173691
 20
5.458661415
 30
0.0
 11
11.56102362
 21
5.458661415
 31
0.0
  0
LINE
  5
1D7
330
1F
100
AcDbEntity
  8
0
  6
Continuous
 62
     7
370
    25
100
AcDbLine
 10
11.31102362
 20
2.1563984738
 30
0.0
 11
11.31102362
 21
5.4144676659
 31
0.0
  0
LINE
  5
1D8
330
1F
100
AcDbEntity
  8
0
  6
Continuous
 62
     7
370
    25
100
AcDbLine
 10
11.56102362
 20
2.1122047247
 30
0.0
 11
11.3552173691
 21
2.1122047247
 31
0.0
  0
LINE
  5
1D9
330
1F
100
AcDbEntity
  8
0
  6
Continuous
 62
     7
370
    25
100
AcDbLine
 10
11.56102362
 20
1.7185039347
 30
0.0
 11
11.56102362
 21
2.1122047247
 31
0.0
  0
LINE
  5
1DA
330
1F
100
AcDbEntity
  8
0
  6
Continuous
 62
     7
370
    25
100
AcDbLine
 10
11.3552173691
 20
1.7185039347
 30
0.0
 11
11.56102362
 21
1.7185039347
 31
0.0
  0
LINE
  5
1DB
330
1F
100
AcDbEntity
  8
0
  6
Continuous
 62
     7
370
    25
100
AcDbLine
 10
11.31102362
 20
0.0
 30
0.0
 11
11.31102362
 21
1.6743101856
 31
0.0
  0
LINE
  5
1DC
330
1F
100
AcDbEntity
  8
0
  6
Continuous
 62
     7
370
    25
100
AcDbLine
 10
9.6367134344
 20
0.0
 30
0.0
 11
11.31102362
 21
0.0
 31
0.0
  0
LINE
  5
1DD
330
1F
100
AcDbEntity
  8
0
  6
Continuous
 62
     7
370
    25
100
AcDbLine
 10
9.5925196853
 20
-0.25
 30
0.0
 11
9.5925196853
 21
-0.0441937491
 31
0.0
  0
LINE
  5
1DE
330
1F
100
AcDbEntity
  8
0
  6
Continuous
 62
     7
370
    25
100
AcDbLine
 10
9.1988188953
 20
-0.25
 30
0.0
 11
9.5925196853
 21
-0.25
 31
0.0
  0
LINE
  5
1DF
330
1F
100
AcDbEntity
  8
0
  6
Continuous
 62
     7
370
    25
100
AcDbLine
 10
9.1988188953
 20
-0.0441937491
 30
0.0
 11
9.1988188953
 21
-0.25
 31
0.0
  0
LINE
  5
1E0
330
1F
100
AcDbEntity
  8
0
  6
Continuous
 62
     7
370
    25
100
AcDbLine
 10
5.852362205
 20
-0.25
 30
0.0
 11
5.852362205
 21
-0.0441937491
 31
0.0
  0
LINE
  5
1E1
330
1F
100
AcDbEntity
  8
0
  6
Continuous
 62
     7
370
    25
100
AcDbLine
 10
5.458661415
 20
-0.25
 30
0.0
 11
5.852362205
 21
-0.25
 31
0.0
  0
LINE
  5
1E2
330
1F
100
AcDbEntity
  8
0
  6
Continuous
 62
     7
370
    25
100
AcDbLine
 10
5.458661415
 20
-0.0441937491
 30
0.0
 11
5.458661415
 21
-0.25
 31
0.0
  0
LINE
  5
1E3
330
1F
100
AcDbEntity
  8
0
  6
Continuous
 62
     7
370
    25
100
AcDbLine
 10
2.1563984738
 20
0.0
 30
0.0
 11
5.4144676659
 21
0.0
 31
0.0
  0
LINE
  5
1E4
330
1F
100
AcDbEntity
  8
0
  6
Continuous
 62
     7
370
    25
100
AcDbLine
 10
2.1122047247
 20
-0.25
 30
0.0
 11
2.1122047247
 21
-0.0441937491
 31
0.0
  0
LINE
  5
1E5
330
1F
100
AcDbEntity
  8
0
  6
Continuous
 62
     7
370
    25
100
AcDbLine
 10
1.7185039347
 20
-0.25
 30
0.0
 11
2.1122047247
 21
-0.25
 31
0.0
  0
LINE
  5
1E6
330
1F
100
AcDbEntity
  8
0
  6
Continuous
 62
     7
370
    25
100
AcDbLine
 10
1.7185039347
 20
-0.0441937491
 30
0.0
 11
1.7185039347
 21
-0.25
 31
0.0
  0
LINE
  5
1E7
330
1F
100
AcDbEntity
  8
0
  6
Continuous
 62
     7
370
    25
100
AcDbLine
 10
0.0
 20
1.6743101856
 30
0.0
 11
0.0
 21
0.0
 31
0.0
  0
LINE
  5
1E8
330
1F
100
AcDbEntity
  8
0
  6
Continuous
 62
     7
370
    25
100
AcDbLine
 10
-0.25
 20
1.7185039347
 30
0.0
 11
-0.0441937491
 21
1.7185039347
 31
0.0
  0
LINE
  5
1E9
330
1F
100
AcDbEntity
  8
0
  6
Continuous
 62
     7
370
    25
100
AcDbLine
 10
-0.25
 20
2.1122047247
 30
0.0
 11
-0.25
 21
1.7185039347
 31
0.0
  0
LINE
  5
1EA
330
1F
100
AcDbEntity
  8
0
  6
Continuous
 62
     7
370
    25
100
AcDbLine
 10
-0.0441937491
 20
2.1122047247
 30
0.0
 11
-0.25
 21
2.1122047247
 31
0.0
  0
LINE
  5
1EB
330
1F
100
AcDbEntity
  8
0
  6
Continuous
 62
     7
370
    25
100
AcDbLine
 10
0.0
 20
5.4144676659
 30
0.0
 11
0.0
 21
2.1563984738
 31
0.0
  0
LINE
  5
1EC
330
1F
100
AcDbEntity
  8
0
  6
Continuous
 62
     7
370
    25
100
AcDbLine
 10
-0.25
 20
5.458661415
 30
0.0
 11
-0.0441937491
 21
5.458661415
 31
0.0
  0
LINE
  5
1ED
330
1F
100
AcDbEntity
  8
0
  6
Continuous
 62
     7
370
    25
100
AcDbLine
 10
-0.25
 20
5.852362205
 30
0.0
 11
-0.25
 21
5.458661415
 31
0.0
  0
LINE
  5
1EE
330
1F
100
AcDbEntity
  8
0
  6
Continuous
 62
     7
370
    25
100
AcDbLine
 10
-0.0441937491
 20
5.852362205
 30
0.0
 11
-0.25
 21
5.852362205
 31
0.0
  0
LINE
  5
1EF
330
1F
100
AcDbEntity
  8
0
  6
Continuous
 62
     7
370
    25
100
AcDbLine
 10
0.0
 20
9.1546251462
 30
0.0
 11
0.0
 21
5.8965559541
 31
0.0
  0
LINE
  5
1F0
330
1F
100
AcDbEntity
  8
0
  6
Continuous
 62
     7
370
    25
100
AcDbLine
 10
-0.25
 20
9.1988188953
 30
0.0
 11
-0.0441937491
 21
9.1988188953
 31
0.0
  0
LINE
  5
1F1
330
1F
100
AcDbEntity
  8
0
  6
Continuous
 62
     7
370
    25
100
AcDbLine
 10
-0.25
 20
9.5925196853
 30
0.0
 11
-0.25
 21
9.1988188953
 31
0.0
  0
LINE
  5
1F2
330
1F
100
AcDbEntity
  8
0
  6
Continuous
 62
     7
370
    25
100
AcDbLine
 10
-0.0441937491
 20
9.5925196853
 30
0.0
 11
-0.25
 21
9.5925196853
 31
0.0
  0
LINE
  5
1F3
330
1F
100
AcDbEntity
  8
0
  6
Continuous
 62
     7
370
    25
100
AcDbLine
 10
0.0
 20
11.31102362
 30
0.0
 11
0.0
 21
9.6367134344
 31
0.0
  0
LINE
  5
1F4
330
1F
100
AcDbEntity
  8
0
  6
Continuous
 62
     7
370
    25
100
AcDbLine
 10
1.6743101856
 20
11.31102362
 30
0.0
 11
0.0
 21
11.31102362
 31
0.0
  0
LINE
  5
1F5
330
1F
100
AcDbEntity
  8
0
  6
Continuous
 62
     7
370
    25
100
AcDbLine
 10
1.7185039347
 20
11.56102362
 30
0.0
 11
1.7185039347
 21
11.3552173691
 31
0.0
  0
LINE
  5
1F6
330
1F
100
AcDbEntity
  8
0
  6
Continuous
 62
     7
370
    25
100
AcDbLine
 10
2.1122047247
 20
11.56102362
 30
0.0
 11
1.7185039347
 21
11.56102362
 31
0.0
  0
LINE
  5
1F7
330
1F
100
AcDbEntity
  8
0
  6
Continuous
 62
     7
370
    25
100
AcDbLine
 10
2.1122047247
 20
11.3552173691
 30
0.0
 11
2.1122047247
 21
11.56102362
 31
0.0
  0
LINE
  5
1F8
330
1F
100
AcDbEntity
  8
0
  6
Continuous
 62
     7
370
    25
100
AcDbLine
 10
5.4144676659
 20
11.31102362
 30
0.0
 11
2.1563984738
 21
11.31102362
 31
0.0
  0
LINE
  5
1F9
330
1F
100
AcDbEntity
  8
0
  6
Continuous
 62
     7
370
    25
100
AcDbLine
 10
5.458661415
 20
11.56102362
 30
0.0
 11
5.458661415
 21
11.3552173691
 31
0.0
  0
LINE
  5
1FA
330
1F
100
AcDbEntity
  8
0
  6
Continuous
 62
     7
370
    25
100
AcDbLine
 10
5.852362205
 20
11.56102362
 30
0.0
 11
5.458661415
 21
11.56102362
 31
0.0
  0
LINE
  5
1FB
330
1F
100
AcDbEntity
  8
0
  6
Continuous
 62
     7
370
    25
100
AcDbLine
 10
5.852362205
 20
11.3552173691
 30
0.0
 11
5.852362205
 21
11.56102362
 31
0.0
  0
LINE
  5
1FC
330
1F
100
AcDbEntity
  8
0
  6
Continuous
 62
     7
370
    25
100
AcDbLine
 10
9.1988188953
 20
11.56102362
 30
0.0
 11
9.1988188953
 21
11.3552173691
 31
0.0
  0
LINE
  5
1FD
330
1F
100
AcDbEntity
  8
0
  6
Continuous
 62
     7
370
    25
100
AcDbLine
 10
9.5925196853
 20
11.56102362
 30
0.0
 11
9.1988188953
 21
11.56102362
 31
0.0
  0
LINE
  5
1FE
330
1F
100
AcDbEntity
  8
0
  6
Continuous
 62
     7
370
    25
100
AcDbLine
 10
11.31102362
 20
9.6367134344
 30
0.0
 11
11.31102362
 21
11.31102362
 31
0.0
  0
LINE
  5
1FF
330
1F
100
AcDbEntity
  8
0
  6
Continuous
 62
     7
370
    25
100
AcDbLine
 10
11.56102362
 20
9.5925196853
 30
0.0
 11
11.3552173691
 21
9.5925196853
 31
0.0
  0
LINE
  5
200
330
1F
100
AcDbEntity
  8
0
  6
Continuous
 62
     7
370
    25
100
AcDbLine
 10
11.56102362
 20
9.1988188953
 30
0.0
 11
11.56102362
 21
9.5925196853
 31
0.0
  0
LINE
  5
201
330
1F
100
AcDbEntity
  8
0
  6
Continuous
 62
     7
370
    25
100
AcDbLine
 10
11.31102362
 20
5.8965559541
 30
0.0
 11
11.31102362
 21
9.1546251462
 31
0.0
  0
LINE
  5
202
330
1F
100
AcDbEntity
  8
0
  6
Continuous
 62
     7
370
    25
100
AcDbLine
 10
2.5388054192
 20
0.412818474
 30
0.0
 11
2.5707579468
 21
0.412818474
 31
0.0
  0
LINE
  5
203
330
1F
100
AcDbEntity
  8
0
  6
Continuous
 62
     7
370
    25
100
AcDbLine
 10
2.5388054192
 20
0.3968422102
 30
0.0
 11
2.5388054192
 21
0.412818474
 31
0.0
  0
LINE
  5
204
330
1F
100
AcDbEntity
  8
0
  6
Continuous
 62
     7
370
    25
100
AcDbLine
 10
2.6226808043
 20
0.3968422102
 30
0.0
 11
2.5388054192
 21
0.3968422102
 31
0.0
  0
LINE
  5
205
330
1F
100
AcDbEntity
  8
0
  6
Continuous
 62
     7
370
    25
100
AcDbLine
 10
2.6226808043
 20
0.412818474
 30
0.0
 11
2.6226808043
 21
0.3968422102
 31
0.0
  0
LINE
  5
206
330
1F
100
AcDbEntity
  8
0
  6
Continuous
 62
     7
370
    25
100
AcDbLine
 10
2.5907282766
 20
0.412818474
 30
0.0
 11
2.6226808043
 21
0.412818474
 31
0.0
  0
LINE
  5
207
330
1F
100
AcDbEntity
  8
0
  6
Continuous
 62
     7
370
    25
100
AcDbLine
 10
2.5907282766
 20
0.5186612219
 30
0.0
 11
2.5907282766
 21
0.412818474
 31
0.0
  0
LINE
  5
208
330
1F
100
AcDbEntity
  8
0
  6
Continuous
 62
     7
370
    25
100
AcDbLine
 10
2.6226808043
 20
0.5186612219
 30
0.0
 11
2.5907282766
 21
0.5186612219
 31
0.0
  0
LINE
  5
209
330
1F
100
AcDbEntity
  8
0
  6
Continuous
 62
     7
370
    25
100
AcDbLine
 10
2.6226808043
 20
0.5346374858
 30
0.0
 11
2.6226808043
 21
0.5186612219
 31
0.0
  0
LINE
  5
20A
330
1F
100
AcDbEntity
  8
0
  6
Continuous
 62
     7
370
    25
100
AcDbLine
 10
2.5388054192
 20
0.5346374858
 30
0.0
 11
2.6226808043
 21
0.5346374858
 31
0.0
  0
LINE
  5
20B
330
1F
100
AcDbEntity
  8
0
  6
Continuous
 62
     7
370
    25
100
AcDbLine
 10
2.5388054192
 20
0.5186612219
 30
0.0
 11
2.5388054192
 21
0.5346374858
 31
0.0
  0
LINE
  5
20C
330
1F
100
AcDbEntity
  8
0
  6
Continuous
 62
     7
370
    25
100
AcDbLine
 10
2.5707579468
 20
0.5186612219
 30
0.0
 11
2.5388054192
 21
0.5186612219
 31
0.0
  0
LINE
  5
20D
330
1F
100
AcDbEntity
  8
0
  6
Continuous
 62
     7
370
    25
100
AcDbLine
 10
2.5707579468
 20
0.412818474
 30
0.0
 11
2.5707579468
 21
0.5186612219
 31
0.0
  0
LINE
  5
20E
330
1F
100
AcDbEntity
  8
0
  6
Continuous
 62
     7
370
    25
100
AcDbLine
 10
2.2851822308
 20
0.3688837485
 30
0.0
 11
2.4030071766
 21
0.3688837485
 31
0.0
  0
LINE
  5
20F
330
1F
100
AcDbEntity
  8
0
  6
Continuous
 62
     7
370
    25
100
AcDbLine
 10
2.2851822308
 20
0.3529074846
 30
0.0
 11
2.2851822308
 21
0.3688837485
 31
0.0
  0
LINE
  5
210
330
1F
100
AcDbEntity
  8
0
  6
Continuous
 62
     7
370
    25
100
AcDbLine
 10
2.4030071766
 20
0.3529074846
 30
0.0
 11
2.2851822308
 21
0.3529074846
 31
0.0
  0
LINE
  5
211
330
1F
100
AcDbEntity
  8
0
  6
Continuous
 62
     7
370
    25
100
AcDbLine
 10
2.4030071766
 20
0.3688837485
 30
0.0
 11
2.4030071766
 21
0.3529074846
 31
0.0
  0
LINE
  5
212
330
1F
100
AcDbEntity
  8
0
  6
Continuous
 62
     7
370
    25
100
AcDbLine
 10
2.065508603
 20
0.5346374858
 30
0.0
 11
2.1051060226
 21
0.5346374858
 31
0.0
  0
LINE
  5
213
330
1F
100
AcDbEntity
  8
0
  6
Continuous
 62
     7
370
    25
100
AcDbLine
 10
2.065508603
 20
0.3968422102
 30
0.0
 11
2.065508603
 21
0.5346374858
 31
0.0
  0
LINE
  5
214
330
1F
100
AcDbEntity
  8
0
  6
Continuous
 62
     7
370
    25
100
AcDbLine
 10
2.1013303821
 20
0.3968422102
 30
0.0
 11
2.065508603
 21
0.3968422102
 31
0.0
  0
LINE
  5
215
330
1F
100
AcDbEntity
  8
0
  6
Continuous
 62
     7
370
    25
100
AcDbLine
 10
9.5925196853
 20
11.3552173691
 30
0.0
 11
9.5925196853
 21
11.56102362
 31
0.0
  0
LINE
  5
216
330
1F
100
AcDbEntity
  8
0
  6
Continuous
 62
     7
370
    25
100
AcDbLine
 10
11.3552173691
 20
9.1988188953
 30
0.0
 11
11.56102362
 21
9.1988188953
 31
0.0
  0
LINE
  5
217
330
1F
100
AcDbEntity
  8
0
  6
Continuous
 62
     7
370
    25
100
AcDbLine
 10
9.1546251462
 20
11.31102362
 30
0.0
 11
5.8965559541
 21
11.31102362
 31
0.0
  0
LINE
  5
218
330
1F
100
AcDbEntity
  8
0
  6
Continuous
 62
     7
370
    25
100
AcDbLine
 10
11.31102362
 20
11.31102362
 30
0.0
 11
9.6367134344
 21
11.31102362
 31
0.0
  0
LINE
  5
219
330
1F
100
AcDbEntity
  8
0
  6
Continuous
 62
     7
370
    25
100
AcDbLine
 10
0.0
 20
0.0
 30
0.0
 11
1.6743101856
 21
0.0
 31
0.0
  0
LINE
  5
21A
330
1F
100
AcDbEntity
  8
0
  6
Continuous
 62
     7
370
    25
100
AcDbLine
 10
5.8965559541
 20
0.0
 30
0.0
 11
9.1546251462
 21
0.0
 31
0.0
  0
LINE
  5
21B
330
1F
100
AcDbEntity
  8
0
  6
Continuous
 62
     7
370
    25
100
AcDbLine
 10
2.0854789328
 20
0.4767235294
 30
0.0
 11
2.1037330624
 21
0.4767235294
 31
0.0
  0
LINE
  5
21C
330
1F
100
AcDbEntity
  8
0
  6
Continuous
 62
     7
370
    25
100
AcDbLine
 10
2.0854789328
 20
0.5186612219
 30
0.0
 11
2.0854789328
 21
0.4767235294
 31
0.0
  0
LINE
  5
21D
330
1F
100
AcDbEntity
  8
0
  6
Continuous
 62
     7
370
    25
100
AcDbLine
 10
2.1043571352
 20
0.5186612219
 30
0.0
 11
2.0854789328
 21
0.5186612219
 31
0.0
  0
LINE
  5
21E
330
1F
100
AcDbEntity
  8
0
  6
Continuous
 62
     7
370
    25
100
AcDbLine
 10
1.967653987
 20
0.4767235294
 30
0.0
 11
1.9859081166
 21
0.4767235294
 31
0.0
  0
LINE
  5
21F
330
1F
100
AcDbEntity
  8
0
  6
Continuous
 62
     7
370
    25
100
AcDbLine
 10
1.967653987
 20
0.5186612219
 30
0.0
 11
1.967653987
 21
0.4767235294
 31
0.0
  0
LINE
  5
220
330
1F
100
AcDbEntity
  8
0
  6
Continuous
 62
     7
370
    25
100
AcDbLine
 10
1.9865321894
 20
0.5186612219
 30
0.0
 11
1.967653987
 21
0.5186612219
 31
0.0
  0
LINE
  5
221
330
1F
100
AcDbEntity
  8
0
  6
Continuous
 62
     7
370
    25
100
AcDbLine
 10
2.4389537702
 20
0.412818474
 30
0.0
 11
2.4580816017
 21
0.412818474
 31
0.0
  0
LINE
  5
222
330
1F
100
AcDbEntity
  8
0
  6
Continuous
 62
     7
370
    25
100
AcDbLine
 10
2.4389537702
 20
0.4607472655
 30
0.0
 11
2.4389537702
 21
0.412818474
 31
0.0
  0
LINE
  5
223
330
1F
100
AcDbEntity
  8
0
  6
Continuous
 62
     7
370
    25
100
AcDbLine
 10
2.4574575289
 20
0.4607472655
 30
0.0
 11
2.4389537702
 21
0.4607472655
 31
0.0
  0
LINE
  5
224
330
1F
100
AcDbEntity
  8
0
  6
Continuous
 62
     7
370
    25
100
AcDbLine
 10
2.0854789328
 20
0.412818474
 30
0.0
 11
2.1046067643
 21
0.412818474
 31
0.0
  0
LINE
  5
225
330
1F
100
AcDbEntity
  8
0
  6
Continuous
 62
     7
370
    25
100
AcDbLine
 10
2.0854789328
 20
0.4607472655
 30
0.0
 11
2.0854789328
 21
0.412818474
 31
0.0
  0
LINE
  5
226
330
1F
100
AcDbEntity
  8
0
  6
Continuous
 62
     7
370
    25
100
AcDbLine
 10
2.1039826915
 20
0.4607472655
 30
0.0
 11
2.0854789328
 21
0.4607472655
 31
0.0
  0
LINE
  5
227
330
1F
100
AcDbEntity
  8
0
  6
Continuous
 62
     7
370
    25
100
AcDbLine
 10
2.4389537702
 20
0.4767235294
 30
0.0
 11
2.4572078998
 21
0.4767235294
 31
0.0
  0
LINE
  5
228
330
1F
100
AcDbEntity
  8
0
  6
Continuous
 62
     7
370
    25
100
AcDbLine
 10
2.4389537702
 20
0.5186612219
 30
0.0
 11
2.4389537702
 21
0.4767235294
 31
0.0
  0
LINE
  5
229
330
1F
100
AcDbEntity
  8
0
  6
Continuous
 62
     7
370
    25
100
AcDbLine
 10
2.4578319726
 20
0.5186612219
 30
0.0
 11
2.4389537702
 21
0.5186612219
 31
0.0
  0
LINE
  5
22A
330
1F
100
AcDbEntity
  8
0
  6
Continuous
 62
     7
370
    25
100
AcDbLine
 10
1.967653987
 20
0.412818474
 30
0.0
 11
1.9867818185
 21
0.412818474
 31
0.0
  0
LINE
  5
22B
330
1F
100
AcDbEntity
  8
0
  6
Continuous
 62
     7
370
    25
100
AcDbLine
 10
1.967653987
 20
0.4607472655
 30
0.0
 11
1.967653987
 21
0.412818474
 31
0.0
  0
LINE
  5
22C
330
1F
100
AcDbEntity
  8
0
  6
Continuous
 62
     7
370
    25
100
AcDbLine
 10
1.9861577457
 20
0.4607472655
 30
0.0
 11
1.967653987
 21
0.4607472655
 31
0.0
  0
LINE
  5
22D
330
1F
100
AcDbEntity
  8
0
  6
Continuous
 62
     7
370
    25
100
AcDbLine
 10
9.09301181
 20
2.08676181
 30
0.0
 11
9.09301181
 21
9.22426181
 31
0.0
  0
LINE
  5
22E
330
1F
100
AcDbEntity
  8
0
  6
Continuous
 62
     7
370
    25
100
AcDbLine
 10
2.21801181
 20
9.22426181
 30
0.0
 11
2.21801181
 21
2.08676181
 31
0.0
  0
LINE
  5
22F
330
1F
100
AcDbEntity
  8
0
  6
Continuous
 62
     7
370
    25
100
AcDbLine
 10
2.21801181
 20
2.08676181
 30
0.0
 11
9.09301181
 21
2.08676181
 31
0.0
  0
LINE
  5
230
330
1F
100
AcDbEntity
  8
0
  6
Continuous
 62
     7
370
    25
100
AcDbLine
 10
9.09301181
 20
9.22426181
 30
0.0
 11
2.21801181
 21
9.22426181
 31
0.0
  0
ARC
  5
231
330
1F
100
AcDbEntity
  8
0
  6
Continuous
 62
     7
370
    25
100
AcDbCircle
 10
9.19601181
 20
1.98376181
 30
0.0
 40
0.0312500000000009
100
AcDbArc
 50
224.7488120841
 51
45.2511879159
  0
ARC
  5
232
330
1F
100
AcDbEntity
  8
0
  6
Continuous
 62
     7
370
    25
100
AcDbCircle
 10
9.19601181
 20
9.32726181
 30
0.0
 40
0.0312500000000011
100
AcDbArc
 50
314.7488120841
 51
135.2511879159
  0
ARC
  5
233
330
1F
100
AcDbEntity
  8
0
  6
Continuous
 62
     7
370
    25
100
AcDbCircle
 10
2.11501181
 20
9.32726181
 30
0.0
 40
0.0312499999999999
100
AcDbArc
 50
44.7488120841
 51
225.2511879159
  0
ARC
  5
234
330
1F
100
AcDbEntity
  8
0
  6
Continuous
 62
     7
370
    25
100
AcDbCircle
 10
2.11501181
 20
1.98376181
 30
0.0
 40
0.0312500000000002
100
AcDbArc
 50
134.7488120841
 51
315.2511879159
  0
ARC
  5
235
330
1F
100
AcDbEntity
  8
0
  6
Continuous
 62
     7
370
    25
100
AcDbCircle
 10
10.699685175
 20
9.8203927376
 30
0.0
 40
0.0312499999999998
100
AcDbArc
 50
44.7488120841
 51
225.2511879159
  0
ARC
  5
236
330
1F
100
AcDbEntity
  8
0
  6
Continuous
 62
     7
370
    25
100
AcDbCircle
 10
10.699685175
 20
9.6143927376
 30
0.0
 40
0.0312500000000024
100
AcDbArc
 50
134.7488120841
 51
315.2511879159
  0
ARC
  5
237
330
1F
100
AcDbEntity
  8
0
  6
Continuous
 62
     7
370
    25
100
AcDbCircle
 10
10.852535565
 20
9.6143927376
 30
0.0
 40
0.0312499999999998
100
AcDbArc
 50
224.7488120841
 51
45.2511879159
  0
ARC
  5
238
330
1F
100
AcDbEntity
  8
0
  6
Continuous
 62
     7
370
    25
100
AcDbCircle
 10
10.852535565
 20
9.8203927376
 30
0.0
 40
0.0312499999999999
100
AcDbArc
 50
314.7488120841
 51
135.2511879159
  0
ARC
  5
239
330
1F
100
AcDbEntity
  8
0
  6
Continuous
 62
     7
370
    25
100
AcDbCircle
 10
9.8203927376
 20
10.852535565
 30
0.0
 40
0.0312500000000011
100
AcDbArc
 50
314.7488120841
 51
135.2511879159
  0
ARC
  5
23A
330
1F
100
AcDbEntity
  8
0
  6
Continuous
 62
     7
370
    25
100
AcDbCircle
 10
9.6143927376
 20
10.852535565
 30
0.0
 40
0.0312500000000024
100
AcDbArc
 50
44.7488120841
 51
225.2511879159
  0
ARC
  5
23B
330
1F
100
AcDbEntity
  8
0
  6
Continuous
 62
     7
370
    25
100
AcDbCircle
 10
9.6143927376
 20
10.699685175
 30
0.0
 40
0.0312500000000011
100
AcDbArc
 50
134.7488120841
 51
315.2511879159
  0
ARC
  5
23C
330
1F
100
AcDbEntity
  8
0
  6
Continuous
 62
     7
370
    25
100
AcDbCircle
 10
9.8203927376
 20
10.699685175
 30
0.0
 40
0.0312500000000011
100
AcDbArc
 50
224.7488120841
 51
45.2511879159
  0
ARC
  5
23D
330
1F
100
AcDbEntity
  8
0
  6
Continuous
 62
     7
370
    25
100
AcDbCircle
 10
9.8203927376
 20
0.611338445
 30
0.0
 40
0.031250000000001
100
AcDbArc
 50
314.7488120841
 51
135.2511879159
  0
ARC
  5
23E
330
1F
100
AcDbEntity
  8
0
  6
Continuous
 62
     7
370
    25
100
AcDbCircle
 10
9.6143927376
 20
0.611338445
 30
0.0
 40
0.0312500000000017
100
AcDbArc
 50
44.7488120841
 51
225.2511879159
  0
ARC
  5
23F
330
1F
100
AcDbEntity
  8
0
  6
Continuous
 62
     7
370
    25
100
AcDbCircle
 10
9.6143927376
 20
0.458488055
 30
0.0
 40
0.0312500000000015
100
AcDbArc
 50
134.7488120841
 51
315.2511879159
  0
ARC
  5
240
330
1F
100
AcDbEntity
  8
0
  6
Continuous
 62
     7
370
    25
100
AcDbCircle
 10
9.8203927376
 20
0.458488055
 30
0.0
 40
0.0312500000000014
100
AcDbArc
 50
224.7488120841
 51
45.2511879159
  0
ARC
  5
241
330
1F
100
AcDbEntity
  8
0
  6
Continuous
 62
     7
370
    25
100
AcDbCircle
 10
10.852535565
 20
1.4906308824
 30
0.0
 40
0.0312500000000009
100
AcDbArc
 50
224.7488120841
 51
45.2511879159
  0
ARC
  5
242
330
1F
100
AcDbEntity
  8
0
  6
Continuous
 62
     7
370
    25
100
AcDbCircle
 10
10.852535565
 20
1.6966308824
 30
0.0
 40
0.0312500000000005
100
AcDbArc
 50
314.7488120841
 51
135.2511879159
  0
ARC
  5
243
330
1F
100
AcDbEntity
  8
0
  6
Continuous
 62
     7
370
    25
100
AcDbCircle
 10
10.699685175
 20
1.6966308824
 30
0.0
 40
0.0312499999999998
100
AcDbArc
 50
44.7488120841
 51
225.2511879159
  0
ARC
  5
244
330
1F
100
AcDbEntity
  8
0
  6
Continuous
 62
     7
370
    25
100
AcDbCircle
 10
10.699685175
 20
1.4906308824
 30
0.0
 40
0.0312500000000003
100
AcDbArc
 50
134.7488120841
 51
315.2511879159
  0
ARC
  5
245
330
1F
100
AcDbEntity
  8
0
  6
Continuous
 62
     7
370
    25
100
AcDbCircle
 10
0.611338445
 20
1.4906308824
 30
0.0
 40
0.0312500000000001
100
AcDbArc
 50
224.7488120841
 51
45.2511879159
  0
ARC
  5
246
330
1F
100
AcDbEntity
  8
0
  6
Continuous
 62
     7
370
    25
100
AcDbCircle
 10
0.611338445
 20
1.6966308824
 30
0.0
 40
0.03125
100
AcDbArc
 50
314.7488120841
 51
135.2511879159
  0
ARC
  5
247
330
1F
100
AcDbEntity
  8
0
  6
Continuous
 62
     7
370
    25
100
AcDbCircle
 10
0.458488055
 20
1.6966308824
 30
0.0
 40
0.0312500000000004
100
AcDbArc
 50
44.7488120841
 51
225.2511879159
  0
ARC
  5
248
330
1F
100
AcDbEntity
  8
0
  6
Continuous
 62
     7
370
    25
100
AcDbCircle
 10
0.458488055
 20
1.4906308824
 30
0.0
 40
0.0312500000000001
100
AcDbArc
 50
134.7488120841
 51
315.2511879159
  0
ARC
  5
249
330
1F
100
AcDbEntity
  8
0
  6
Continuous
 62
     7
370
    25
100
AcDbCircle
 10
1.4906308824
 20
0.458488055
 30
0.0
 40
0.0312499999999997
100
AcDbArc
 50
134.7488120841
 51
315.2511879159
  0
ARC
  5
24A
330
1F
100
AcDbEntity
  8
0
  6
Continuous
 62
     7
370
    25
100
AcDbCircle
 10
1.6966308824
 20
0.458488055
 30
0.0
 40
0.0312500000000001
100
AcDbArc
 50
224.7488120841
 51
45.2511879159
  0
ARC
  5
24B
330
1F
100
AcDbEntity
  8
0
  6
Continuous
 62
     7
370
    25
100
AcDbCircle
 10
1.6966308824
 20
0.611338445
 30
0.0
 40
0.0312499999999998
100
AcDbArc
 50
314.7488120841
 51
135.2511879159
  0
ARC
  5
24C
330
1F
100
AcDbEntity
  8
0
  6
Continuous
 62
     7
370
    25
100
AcDbCircle
 10
1.4906308824
 20
0.611338445
 30
0.0
 40
0.0312500000000002
100
AcDbArc
 50
44.7488120841
 51
225.2511879159
  0
ARC
  5
24D
330
1F
100
AcDbEntity
  8
0
  6
Continuous
 62
     7
370
    25
100
AcDbCircle
 10
1.4906308824
 20
10.699685175
 30
0.0
 40
0.0312500000000005
100
AcDbArc
 50
134.7488120841
 51
315.2511879159
  0
ARC
  5
24E
330
1F
100
AcDbEntity
  8
0
  6
Continuous
 62
     7
370
    25
100
AcDbCircle
 10
1.6966308824
 20
10.699685175
 30
0.0
 40
0.0312500000000002
100
AcDbArc
 50
224.7488120841
 51
45.2511879159
  0
ARC
  5
24F
330
1F
100
AcDbEntity
  8
0
  6
Continuous
 62
     7
370
    25
100
AcDbCircle
 10
1.6966308824
 20
10.852535565
 30
0.0
 40
0.0312500000000016
100
AcDbArc
 50
314.7488120841
 51
135.2511879159
  0
ARC
  5
250
330
1F
100
AcDbEntity
  8
0
  6
Continuous
 62
     7
370
    25
100
AcDbCircle
 10
1.4906308824
 20
10.852535565
 30
0.0
 40
0.0312500000000011
100
AcDbArc
 50
44.7488120841
 51
225.2511879159
  0
ARC
  5
251
330
1F
100
AcDbEntity
  8
0
  6
Continuous
 62
     7
370
    25
100
AcDbCircle
 10
0.458488055
 20
9.8203927376
 30
0.0
 40
0.0312500000000007
100
AcDbArc
 50
44.7488120841
 51
225.2511879159
  0
ARC
  5
252
330
1F
100
AcDbEntity
  8
0
  6
Continuous
 62
     7
370
    25
100
AcDbCircle
 10
0.458488055
 20
9.6143927376
 30
0.0
 40
0.0312500000000001
100
AcDbArc
 50
134.7488120841
 51
315.2511879159
  0
ARC
  5
253
330
1F
100
AcDbEntity
  8
0
  6
Continuous
 62
     7
370
    25
100
AcDbCircle
 10
0.611338445
 20
9.6143927376
 30
0.0
 40
0.0312500000000007
100
AcDbArc
 50
224.7488120841
 51
45.2511879159
  0
ARC
  5
254
330
1F
100
AcDbEntity
  8
0
  6
Continuous
 62
     7
370
    25
100
AcDbCircle
 10
0.611338445
 20
9.8203927376
 30
0.0
 40
0.0312500000000013
100
AcDbArc
 50
314.7488120841
 51
135.2511879159
  0
ARC
  5
255
330
1F
100
AcDbEntity
  8
0
  6
Continuous
 62
     7
370
    25
100
AcDbCircle
 10
0.31706175
 20
9.69601181
 30
0.0
 40
0.0312500000000023
100
AcDbArc
 50
314.7488120841
 51
135.2511879159
  0
ARC
  5
256
330
1F
100
AcDbEntity
  8
0
  6
Continuous
 62
     7
370
    25
100
AcDbCircle
 10
0.22106175
 20
9.69601181
 30
0.0
 40
0.031250000000002
100
AcDbArc
 50
44.7488120841
 51
225.2511879159
  0
ARC
  5
257
330
1F
100
AcDbEntity
  8
0
  6
Continuous
 62
     7
370
    25
100
AcDbCircle
 10
0.22106175
 20
1.61501181
 30
0.0
 40
0.0312500000000007
100
AcDbArc
 50
134.7488120841
 51
315.2511879159
  0
ARC
  5
258
330
1F
100
AcDbEntity
  8
0
  6
Continuous
 62
     7
370
    25
100
AcDbCircle
 10
0.31706175
 20
1.61501181
 30
0.0
 40
0.0312500000000007
100
AcDbArc
 50
224.7488120841
 51
45.2511879159
  0
ARC
  5
259
330
1F
100
AcDbEntity
  8
0
  6
Continuous
 62
     7
370
    25
100
AcDbCircle
 10
1.61501181
 20
0.31706175
 30
0.0
 40
0.0312500000000025
100
AcDbArc
 50
44.7488120841
 51
225.2511879159
  0
ARC
  5
25A
330
1F
100
AcDbEntity
  8
0
  6
Continuous
 62
     7
370
    25
100
AcDbCircle
 10
1.61501181
 20
0.22106175
 30
0.0
 40
0.0312500000000024
100
AcDbArc
 50
134.7488120841
 51
315.2511879159
  0
ARC
  5
25B
330
1F
100
AcDbEntity
  8
0
  6
Continuous
 62
     7
370
    25
100
AcDbCircle
 10
9.69601181
 20
0.22106175
 30
0.0
 40
0.0312500000000011
100
AcDbArc
 50
224.7488120841
 51
45.2511879159
  0
ARC
  5
25C
330
1F
100
AcDbEntity
  8
0
  6
Continuous
 62
     7
370
    25
100
AcDbCircle
 10
9.69601181
 20
0.31706175
 30
0.0
 40
0.0312500000000008
100
AcDbArc
 50
314.7488120841
 51
135.2511879159
  0
ARC
  5
25D
330
1F
100
AcDbEntity
  8
0
  6
Continuous
 62
     7
370
    25
100
AcDbCircle
 10
10.99396187
 20
9.69601181
 30
0.0
 40
0.0312500000000011
100
AcDbArc
 50
44.7488120841
 51
225.2511879159
  0
ARC
  5
25E
330
1F
100
AcDbEntity
  8
0
  6
Continuous
 62
     7
370
    25
100
AcDbCircle
 10
10.99396187
 20
1.61501181
 30
0.0
 40
0.0312500000000022
100
AcDbArc
 50
134.7488120841
 51
315.2511879159
  0
ARC
  5
25F
330
1F
100
AcDbEntity
  8
0
  6
Continuous
 62
     7
370
    25
100
AcDbCircle
 10
11.08996187
 20
1.61501181
 30
0.0
 40
0.0312500000000027
100
AcDbArc
 50
224.7488120841
 51
45.2511879159
  0
ARC
  5
260
330
1F
100
AcDbEntity
  8
0
  6
Continuous
 62
     7
370
    25
100
AcDbCircle
 10
11.08996187
 20
9.69601181
 30
0.0
 40
0.0312500000000011
100
AcDbArc
 50
314.7488120841
 51
135.2511879159
  0
ARC
  5
261
330
1F
100
AcDbEntity
  8
0
  6
Continuous
 62
     7
370
    25
100
AcDbCircle
 10
9.69601181
 20
10.99396187
 30
0.0
 40
0.0312500000000024
100
AcDbArc
 50
224.7488120841
 51
45.2511879159
  0
ARC
  5
262
330
1F
100
AcDbEntity
  8
0
  6
Continuous
 62
     7
370
    25
100
AcDbCircle
 10
9.69601181
 20
11.08996187
 30
0.0
 40
0.0312500000000036
100
AcDbArc
 50
314.7488120841
 51
135.2511879159
  0
ARC
  5
263
330
1F
100
AcDbEntity
  8
0
  6
Continuous
 62
     7
370
    25
100
AcDbCircle
 10
1.61501181
 20
11.08996187
 30
0.0
 40
0.0312500000000017
100
AcDbArc
 50
44.7488120841
 51
225.2511879159
  0
ARC
  5
264
330
1F
100
AcDbEntity
  8
0
  6
Continuous
 62
     7
370
    25
100
AcDbCircle
 10
1.61501181
 20
10.99396187
 30
0.0
 40
0.0312500000000007
100
AcDbArc
 50
134.7488120841
 51
315.2511879159
  0
ARC
  5
265
330
1F
100
AcDbEntity
  8
0
  6
Continuous
 62
     7
370
    25
100
AcDbCircle
 10
11.33302362
 20
5.436661415
 30
0.0
 40
0.0312499999999998
100
AcDbArc
 50
44.7488120841
 51
225.2511879159
  0
ARC
  5
266
330
1F
100
AcDbEntity
  8
0
  6
Continuous
 62
     7
370
    25
100
AcDbCircle
 10
11.33302362
 20
2.1342047247
 30
0.0
 40
0.0312499999999987
100
AcDbArc
 50
134.7488120842
 51
315.2511879159
  0
ARC
  5
267
330
1F
100
AcDbEntity
  8
0
  6
Continuous
 62
     7
370
    25
100
AcDbCircle
 10
11.33302362
 20
1.6965039347
 30
0.0
 40
0.0312500000000007
100
AcDbArc
 50
44.7488120841
 51
225.2511879158
  0
ARC
  5
268
330
1F
100
AcDbEntity
  8
0
  6
Continuous
 62
     7
370
    25
100
AcDbCircle
 10
9.6145196853
 20
-0.022
 30
0.0
 40
0.0312500000000001
100
AcDbArc
 50
44.7488120841
 51
225.2511879159
  0
ARC
  5
269
330
1F
100
AcDbEntity
  8
0
  6
Continuous
 62
     7
370
    25
100
AcDbCircle
 10
9.1768188953
 20
-0.022
 30
0.0
 40
0.0312499999999994
100
AcDbArc
 50
314.7488120841
 51
135.2511879159
  0
ARC
  5
26A
330
1F
100
AcDbEntity
  8
0
  6
Continuous
 62
     7
370
    25
100
AcDbCircle
 10
5.874362205
 20
-0.022
 30
0.0
 40
0.0312499999999993
100
AcDbArc
 50
44.7488120841
 51
225.2511879159
  0
ARC
  5
26B
330
1F
100
AcDbEntity
  8
0
  6
Continuous
 62
     7
370
    25
100
AcDbCircle
 10
5.436661415
 20
-0.022
 30
0.0
 40
0.0312499999999996
100
AcDbArc
 50
314.7488120841
 51
135.2511879159
  0
ARC
  5
26C
330
1F
100
AcDbEntity
  8
0
  6
Continuous
 62
     7
370
    25
100
AcDbCircle
 10
2.1342047247
 20
-0.022
 30
0.0
 40
0.0312499999999998
100
AcDbArc
 50
44.7488120841
 51
225.2511879159
  0
ARC
  5
26D
330
1F
100
AcDbEntity
  8
0
  6
Continuous
 62
     7
370
    25
100
AcDbCircle
 10
1.6965039347
 20
-0.022
 30
0.0
 40
0.0312500000000002
100
AcDbArc
 50
314.7488120841
 51
135.2511879159
  0
ARC
  5
26E
330
1F
100
AcDbEntity
  8
0
  6
Continuous
 62
     7
370
    25
100
AcDbCircle
 10
-0.022
 20
1.6965039347
 30
0.0
 40
0.0312499999999997
100
AcDbArc
 50
314.7488120841
 51
135.2511879159
  0
ARC
  5
26F
330
1F
100
AcDbEntity
  8
0
  6
Continuous
 62
     7
370
    25
100
AcDbCircle
 10
-0.022
 20
2.1342047247
 30
0.0
 40
0.0312499999999993
100
AcDbArc
 50
224.7488120841
 51
45.251187916
  0
ARC
  5
270
330
1F
100
AcDbEntity
  8
0
  6
Continuous
 62
     7
370
    25
100
AcDbCircle
 10
-0.022
 20
5.436661415
 30
0.0
 40
0.0312500000000005
100
AcDbArc
 50
314.7488120841
 51
135.2511879159
  0
ARC
  5
271
330
1F
100
AcDbEntity
  8
0
  6
Continuous
 62
     7
370
    25
100
AcDbCircle
 10
-0.022
 20
5.874362205
 30
0.0
 40
0.0312499999999997
100
AcDbArc
 50
224.7488120841
 51
45.2511879159
  0
ARC
  5
272
330
1F
100
AcDbEntity
  8
0
  6
Continuous
 62
     7
370
    25
100
AcDbCircle
 10
-0.022
 20
9.1768188953
 30
0.0
 40
0.0312500000000001
100
AcDbArc
 50
314.7488120841
 51
135.2511879159
  0
ARC
  5
273
330
1F
100
AcDbEntity
  8
0
  6
Continuous
 62
     7
370
    25
100
AcDbCircle
 10
1.6965039347
 20
11.33302362
 30
0.0
 40
0.0312499999999997
100
AcDbArc
 50
224.7488120841
 51
45.2511879159
  0
ARC
  5
274
330
1F
100
AcDbEntity
  8
0
  6
Continuous
 62
     7
370
    25
100
AcDbCircle
 10
2.1342047247
 20
11.33302362
 30
0.0
 40
0.0312499999999995
100
AcDbArc
 50
134.7488120841
 51
315.2511879159
  0
ARC
  5
275
330
1F
100
AcDbEntity
  8
0
  6
Continuous
 62
     7
370
    25
100
AcDbCircle
 10
9.1768188953
 20
11.33302362
 30
0.0
 40
0.0312500000000011
100
AcDbArc
 50
224.7488120841
 51
45.2511879159
  0
ARC
  5
276
330
1F
100
AcDbEntity
  8
0
  6
Continuous
 62
     7
370
    25
100
AcDbCircle
 10
9.6145196853
 20
11.33302362
 30
0.0
 40
0.0312499999999999
100
AcDbArc
 50
134.7488120841
 51
315.2511879159
  0
ARC
  5
277
330
1F
100
AcDbEntity
  8
0
  6
Continuous
 62
     7
370
    25
100
AcDbCircle
 10
11.33302362
 20
9.6145196853
 30
0.0
 40
0.0312500000000013
100
AcDbArc
 50
134.748812084
 51
315.2511879159
  0
ARC
  5
278
330
1F
100
AcDbEntity
  8
0
  6
Continuous
 62
     7
370
    25
100
AcDbCircle
 10
11.33302362
 20
9.1768188953
 30
0.0
 40
0.0312500000000001
100
AcDbArc
 50
44.7488120841
 51
225.251187916
  0
ARC
  5
279
330
1F
100
AcDbEntity
  8
0
  6
Continuous
 62
     7
370
    25
100
AcDbCircle
 10
11.33302362
 20
5.874362205
 30
0.0
 40
0.0312499999999999
100
AcDbArc
 50
134.7488120841
 51
315.2511879159
  0
ARC
  5
27A
330
1F
100
AcDbEntity
  8
0
  6
Continuous
 62
     7
370
    25
100
AcDbCircle
 10
-0.022
 20
9.6145196853
 30
0.0
 40
0.0312499999999995
100
AcDbArc
 50
224.7488120841
 51
45.2511879159
  0
ARC
  5
27B
330
1F
100
AcDbEntity
  8
0
  6
Continuous
 62
     7
370
    25
100
AcDbCircle
 10
5.436661415
 20
11.33302362
 30
0.0
 40
0.0312499999999999
100
AcDbArc
 50
224.7488120841
 51
45.2511879159
  0
ARC
  5
27C
330
1F
100
AcDbEntity
  8
0
  6
Continuous
 62
     7
370
    25
100
AcDbCircle
 10
5.874362205
 20
11.33302362
 30
0.0
 40
0.0312500000000024
100
AcDbArc
 50
134.7488120841
 51
315.2511879159
  0
ENDSEC
  0
SECTION
  2
OBJECTS
  0
DICTIONARY
  5
C
330
0
100
AcDbDictionary
281
     1
  3
ACAD_GROUP
350
D
  3
ACAD_LAYOUT
350
1A
  3
ACAD_MLINESTYLE
350
17
  3
ACAD_PLOTSETTINGS
350
19
  3
ACAD_PLOTSTYLENAME
350
E
  3
ACAD_SCALELIST
350
47
  0
DICTIONARY
  5
D
102
{ACAD_REACTORS
330
C
102
}
330
C
100
AcDbDictionary
281
     1
  0
DICTIONARY
  5
1A
102
{ACAD_REACTORS
330
C
102
}
330
C
100
AcDbDictionary
281
     1
  3
Layout1
350
1E
  3
Layout2
350
26
  3
Model
350
22
  0
DICTIONARY
  5
17
102
{ACAD_REACTORS
330
C
102
}
330
C
100
AcDbDictionary
281
     1
  3
Standard
350
18
  0
DICTIONARY
  5
19
102
{ACAD_REACTORS
330
C
102
}
330
C
100
AcDbDictionary
281
     1
  0
ACDBDICTIONARYWDFLT
  5
E
102
{ACAD_REACTORS
330
C
102
}
330
C
100
AcDbDictionary
281
     1
  3
Normal
350
F
100
AcDbDictionaryWithDefault
340
F
  0
DICTIONARY
  5
47
102
{ACAD_REACTORS
330
C
102
}
330
C
100
AcDbDictionary
281
     1
  3
A0
350
48
  3
A1
350
49
  3
A2
350
4A
  3
A3
350
4B
  3
A4
350
4C
  3
A5
350
4D
  3
A6
350
4E
  3
A7
350
4F
  3
A8
350
50
  3
A9
350
51
  3
B0
350
52
  3
B1
350
53
  3
B2
350
54
  3
B3
350
55
  3
B4
350
56
  3
B5
350
57
  3
B6
350
58
  3
B7
350
59
  3
B8
350
5A
  3
B9
350
5B
  3
C0
350
5C
  3
C1
350
5D
  3
C2
350
5E
  3
C3
350
5F
  3
C4
350
60
  3
C5
350
61
  3
C6
350
62
  3
C7
350
63
  3
C8
350
64
  3
C9
350
65
  3
D0
350
66
  3
D1
350
67
  3
D2
350
68
  0
LAYOUT
  5
1E
102
{ACAD_REACTORS
330
1A
102
}
330
1A
100
AcDbPlotSettings
  1

  2
none_device
  4

  6

 40
0.0
 41
0.0
 42
0.0
 43
0.0
 44
0.0
 45
0.0
 46
0.0
 47
0.0
 48
0.0
 49
0.0
140
0.0
141
0.0
142
1.0
143
1.0
 70
   688
 72
     0
 73
     0
 74
     5
  7

 75
    16
147
1.0
148
0.0
149
0.0
100
AcDbLayout
  1
Layout1
 70
     1
 71
     1
 10
0.0
 20
0.0
 11
12.0
 21
9.0
 12
0.0
 22
0.0
 32
0.0
 14
1.0000000000E+20
 24
1.0000000000E+20
 34
1.0000000000E+20
 15
-1.0000000000E+20
 25
-1.0000000000E+20
 35
-1.0000000000E+20
146
0.0
 13
0.0
 23
0.0
 33
0.0
 16
1.0
 26
0.0
 36
0.0
 17
0.0
 27
1.0
 37
0.0
 76
     0
330
1B
  0
LAYOUT
  5
26
102
{ACAD_REACTORS
330
1A
102
}
330
1A
100
AcDbPlotSettings
  1

  2
none_device
  4

  6

 40
0.0
 41
0.0
 42
0.0
 43
0.0
 44
0.0
 45
0.0
 46
0.0
 47
0.0
 48
0.0
 49
0.0
140
0.0
141
0.0
142
1.0
143
1.0
 70
   688
 72
     0
 73
     0
 74
     5
  7

 75
    16
147
1.0
148
0.0
149
0.0
100
AcDbLayout
  1
Layout2
 70
     1
 71
     2
 10
0.0
 20
0.0
 11
0.0
 21
0.0
 12
0.0
 22
0.0
 32
0.0
 14
0.0
 24
0.0
 34
0.0
 15
0.0
 25
0.0
 35
0.0
146
0.0
 13
0.0
 23
0.0
 33
0.0
 16
1.0
 26
0.0
 36
0.0
 17
0.0
 27
1.0
 37
0.0
 76
     0
330
23
  0
LAYOUT
  5
22
102
{ACAD_REACTORS
330
1A
102
}
330
1A
100
AcDbPlotSettings
  1

  2
none_device
  4
ANSI_A_(11.00_x_8.50_Inches)
  6

 40
6.35
 41
19.05
 42
6.35000508
 43
19.05000254
 44
279.4
 45
215.9
 46
31.0036819608
 47
-13.4463167692
 48
0.0
 49
0.0
140
0.0
141
0.0
142
0.7124700001
143
1.0
 70
  1696
 72
     0
 73
     0
 74
     0
  7

 75
     0
147
0.5913241897
148
-39.4088153714
149
0.0
100
AcDbLayout
  1
Model
 70
     1
 71
     0
 10
0.0
 20
0.0
 11
12.0
 21
9.0
 12
0.0
 22
0.0
 32
0.0
 14
-0.25
 24
-0.25
 34
0.0
 15
11.56102362
 25
11.56102362
 35
0.0
146
0.0
 13
0.0
 23
0.0
 33
0.0
 16
1.0
 26
0.0
 36
0.0
 17
0.0
 27
1.0
 37
0.0
 76
     0
330
1F
331
29
  0
MLINESTYLE
  5
18
102
{ACAD_REACTORS
330
17
102
}
330
17
100
AcDbMlineStyle
  2
Standard
 70
     0
  3

 62
   256
 51
90.0
 52
90.0
 71
     2
 49
0.5
 62
   256
  6
BYLAYER
 49
-0.5
 62
   256
  6
BYLAYER
  0
ACDBPLACEHOLDER
  5
F
102
{ACAD_REACTORS
330
E
102
}
330
E
  0
SCALE
  5
48
102
{ACAD_REACTORS
330
47
102
}
330
47
100
AcDbScale
 70
     0
300
1:1
140
1.0
141
1.0
290
     1
  0
SCALE
  5
49
102
{ACAD_REACTORS
330
47
102
}
330
47
100
AcDbScale
 70
     0
300
1:2
140
1.0
141
2.0
290
     0
  0
SCALE
  5
4A
102
{ACAD_REACTORS
330
47
102
}
330
47
100
AcDbScale
 70
     0
300
1:4
140
1.0
141
4.0
290
     0
  0
SCALE
  5
4B
102
{ACAD_REACTORS
330
47
102
}
330
47
100
AcDbScale
 70
     0
300
1:5
140
1.0
141
5.0
290
     0
  0
SCALE
  5
4C
102
{ACAD_REACTORS
330
47
102
}
330
47
100
AcDbScale
 70
     0
300
1:8
140
1.0
141
8.0
290
     0
  0
SCALE
  5
4D
102
{ACAD_REACTORS
330
47
102
}
330
47
100
AcDbScale
 70
     0
300
1:10
140
1.0
141
10.0
290
     0
  0
SCALE
  5
4E
102
{ACAD_REACTORS
330
47
102
}
330
47
100
AcDbScale
 70
     0
300
1:16
140
1.0
141
16.0
290
     0
  0
SCALE
  5
4F
102
{ACAD_REACTORS
330
47
102
}
330
47
100
AcDbScale
 70
     0
300
1:20
140
1.0
141
20.0
290
     0
  0
SCALE
  5
50
102
{ACAD_REACTORS
330
47
102
}
330
47
100
AcDbScale
 70
     0
300
1:30
140
1.0
141
30.0
290
     0
  0
SCALE
  5
51
102
{ACAD_REACTORS
330
47
102
}
330
47
100
AcDbScale
 70
     0
300
1:40
140
1.0
141
40.0
290
     0
  0
SCALE
  5
52
102
{ACAD_REACTORS
330
47
102
}
330
47
100
AcDbScale
 70
     0
300
1:50
140
1.0
141
50.0
290
     0
  0
SCALE
  5
53
102
{ACAD_REACTORS
330
47
102
}
330
47
100
AcDbScale
 70
     0
300
1:100
140
1.0
141
100.0
290
     0
  0
SCALE
  5
54
102
{ACAD_REACTORS
330
47
102
}
330
47
100
AcDbScale
 70
     0
300
2:1
140
2.0
141
1.0
290
     0
  0
SCALE
  5
55
102
{ACAD_REACTORS
330
47
102
}
330
47
100
AcDbScale
 70
     0
300
4:1
140
4.0
141
1.0
290
     0
  0
SCALE
  5
56
102
{ACAD_REACTORS
330
47
102
}
330
47
100
AcDbScale
 70
     0
300
8:1
140
8.0
141
1.0
290
     0
  0
SCALE
  5
57
102
{ACAD_REACTORS
330
47
102
}
330
47
100
AcDbScale
 70
     0
300
10:1
140
10.0
141
1.0
290
     0
  0
SCALE
  5
58
102
{ACAD_REACTORS
330
47
102
}
330
47
100
AcDbScale
 70
     0
300
100:1
140
100.0
141
1.0
290
     0
  0
SCALE
  5
59
102
{ACAD_REACTORS
330
47
102
}
330
47
100
AcDbScale
 70
     0
300
1/128" = 1'-0"
140
0.0078125
141
12.0
290
     0
  0
SCALE
  5
5A
102
{ACAD_REACTORS
330
47
102
}
330
47
100
AcDbScale
 70
     0
300
1/64" = 1'-0"
140
0.015625
141
12.0
290
     0
  0
SCALE
  5
5B
102
{ACAD_REACTORS
330
47
102
}
330
47
100
AcDbScale
 70
     0
300
1/32" = 1'-0"
140
0.03125
141
12.0
290
     0
  0
SCALE
  5
5C
102
{ACAD_REACTORS
330
47
102
}
330
47
100
AcDbScale
 70
     0
300
1/16" = 1'-0"
140
0.0625
141
12.0
290
     0
  0
SCALE
  5
5D
102
{ACAD_REACTORS
330
47
102
}
330
47
100
AcDbScale
 70
     0
300
3/32" = 1'-0"
140
0.09375
141
12.0
290
     0
  0
SCALE
  5
5E
102
{ACAD_REACTORS
330
47
102
}
330
47
100
AcDbScale
 70
     0
300
1/8" = 1'-0"
140
0.125
141
12.0
290
     0
  0
SCALE
  5
5F
102
{ACAD_REACTORS
330
47
102
}
330
47
100
AcDbScale
 70
     0
300
3/16" = 1'-0"
140
0.1875
141
12.0
290
     0
  0
SCALE
  5
60
102
{ACAD_REACTORS
330
47
102
}
330
47
100
AcDbScale
 70
     0
300
1/4" = 1'-0"
140
0.25
141
12.0
290
     0
  0
SCALE
  5
61
102
{ACAD_REACTORS
330
47
102
}
330
47
100
AcDbScale
 70
     0
300
3/8" = 1'-0"
140
0.375
141
12.0
290
     0
  0
SCALE
  5
62
102
{ACAD_REACTORS
330
47
102
}
330
47
100
AcDbScale
 70
     0
300
1/2" = 1'-0"
140
0.5
141
12.0
290
     0
  0
SCALE
  5
63
102
{ACAD_REACTORS
330
47
102
}
330
47
100
AcDbScale
 70
     0
300
3/4" = 1'-0"
140
0.75
141
12.0
290
     0
  0
SCALE
  5
64
102
{ACAD_REACTORS
330
47
102
}
330
47
100
AcDbScale
 70
     0
300
1" = 1'-0"
140
1.0
141
12.0
290
     0
  0
SCALE
  5
65
102
{ACAD_REACTORS
330
47
102
}
330
47
100
AcDbScale
 70
     0
300
1-1/2" = 1'-0"
140
1.5
141
12.0
290
     0
  0
SCALE
  5
66
102
{ACAD_REACTORS
330
47
102
}
330
47
100
AcDbScale
 70
     0
300
3" = 1'-0"
140
3.0
141
12.0
290
     0
  0
SCALE
  5
67
102
{ACAD_REACTORS
330
47
102
}
330
47
100
AcDbScale
 70
     0
300
6" = 1'-0"
140
6.0
141
12.0
290
     0
  0
SCALE
  5
68
102
{ACAD_REACTORS
330
47
102
}
330
47
100
AcDbScale
 70
     0
300
1'-0" = 1'-0"
140
12.0
141
12.0
290
     0
  0
ENDSEC
  0
EOF
