  0
SECTION
  2
HEADER
  9
$ACADVER
  1
AC1015
  9
$ACADMAINTVER
 70
     6
  9
$DWGCODEPAGE
  3
ANSI_1252
  9
$INSBASE
 10
0.0
 20
0.0
 30
0.0
  9
$EXTMIN
 10
0.0
 20
-0.25
 30
0.0
  9
$EXTMAX
 10
0.8833384474
 20
8.124015748
 30
0.0
  9
$LIMMIN
 10
0.0
 20
0.0
  9
$LIMMAX
 10
12.0
 20
9.0
  9
$ORTHOMODE
 70
     0
  9
$REGENMODE
 70
     1
  9
$FILLMODE
 70
     1
  9
$QTEXTMODE
 70
     0
  9
$MIRRTEXT
 70
     1
  9
$LTSCALE
 40
1.0
  9
$ATTMODE
 70
     1
  9
$TEXTSIZE
 40
0.1377952756
  9
$TRACEWID
 40
0.05
  9
$TEXTSTYLE
  7
Standard
  9
$CLAYER
  8
0
  9
$CELTYPE
  6
ByLayer
  9
$CECOLOR
 62
   256
  9
$CELTSCALE
 40
1.0
  9
$DISPSILH
 70
     0
  9
$DIMSCALE
 40
1.0
  9
$DIMASZ
 40
0.13
  9
$DIMEXO
 40
0.0393700787
  9
$DIMDLI
 40
0.38
  9
$DIMRND
 40
0.0
  9
$DIMDLE
 40
0.0
  9
$DIMEXE
 40
0.0393700787
  9
$DIMTP
 40
0.0
  9
$DIMTM
 40
0.0
  9
$DIMTXT
 40
0.1377952756
  9
$DIMCEN
 40
0.09
  9
$DIMTSZ
 40
0.0
  9
$DIMTOL
 70
     0
  9
$DIMLIM
 70
     0
  9
$DIMTIH
 70
     1
  9
$DIMTOH
 70
     1
  9
$DIMSE1
 70
     0
  9
$DIMSE2
 70
     0
  9
$DIMTAD
 70
     1
  9
$DIMZIN
 70
     1
  9
$DIMBLK
  1

  9
$DIMASO
 70
     1
  9
$DIMSHO
 70
     1
  9
$DIMPOST
  1

  9
$DIMAPOST
  1

  9
$DIMALT
 70
     0
  9
$DIMALTD
 70
     2
  9
$DIMALTF
 40
25.4
  9
$DIMLFAC
 40
1.0
  9
$DIMTOFL
 70
     0
  9
$DIMTVP
 40
0.0
  9
$DIMTIX
 70
     0
  9
$DIMSOXD
 70
     0
  9
$DIMSAH
 70
     0
  9
$DIMBLK1
  1

  9
$DIMBLK2
  1

  9
$DIMSTYLE
  2
Standard
  9
$DIMCLRD
 70
     0
  9
$DIMCLRE
 70
     0
  9
$DIMCLRT
 70
     0
  9
$DIMTFAC
 40
1.0
  9
$DIMGAP
 40
0.06
  9
$DIMJUST
 70
     0
  9
$DIMSD1
 70
     0
  9
$DIMSD2
 70
     0
  9
$DIMTOLJ
 70
     1
  9
$DIMTZIN
 70
     1
  9
$DIMALTZ
 70
     0
  9
$DIMALTTZ
 70
     0
  9
$DIMUPT
 70
     0
  9
$DIMDEC
 70
     2
  9
$DIMTDEC
 70
     2
  9
$DIMALTU
 70
     2
  9
$DIMALTTD
 70
     2
  9
$DIMTXSTY
  7
Standard
  9
$DIMAUNIT
 70
     0
  9
$DIMADEC
 70
     2
  9
$DIMALTRND
 40
0.0
  9
$DIMAZIN
 70
     0
  9
$DIMDSEP
 70
    46
  9
$DIMATFIT
 70
     3
  9
$DIMFRAC
 70
     0
  9
$DIMLDRBLK
  1

  9
$DIMLUNIT
 70
     2
  9
$DIMLWD
 70
    -2
  9
$DIMLWE
 70
    -2
  9
$DIMTMOVE
 70
     0
  9
$LUNITS
 70
     2
  9
$LUPREC
 70
     8
  9
$SKETCHINC
 40
0.1
  9
$FILLETRAD
 40
0.5
  9
$AUNITS
 70
     0
  9
$AUPREC
 70
     2
  9
$MENU
  1
.
  9
$ELEVATION
 40
0.0
  9
$PELEVATION
 40
0.0
  9
$THICKNESS
 40
0.0
  9
$LIMCHECK
 70
     0
  9
$CHAMFERA
 40
0.0
  9
$CHAMFERB
 40
0.0
  9
$CHAMFERC
 40
0.0
  9
$CHAMFERD
 40
0.0
  9
$SKPOLY
 70
     0
  9
$TDCREATE
 40
2458324.604076354
  9
$TDUCREATE
 40
2458324.770743021
  9
$TDUPDATE
 40
2458324.604105613
  9
$TDUUPDATE
 40
2458324.77077228
  9
$TDINDWG
 40
0.0000000116
  9
$TDUSRTIMER
 40
0.0000000116
  9
$USRTIMER
 70
     1
  9
$ANGBASE
 50
0.0
  9
$ANGDIR
 70
     0
  9
$PDMODE
 70
     0
  9
$PDSIZE
 40
-1.0
  9
$PLINEWID
 40
0.0
  9
$SPLFRAME
 70
     0
  9
$SPLINETYPE
 70
     6
  9
$SPLINESEGS
 70
     8
  9
$HANDSEED
  5
205
  9
$SURFTAB1
 70
     6
  9
$SURFTAB2
 70
     6
  9
$SURFTYPE
 70
     6
  9
$SURFU
 70
     6
  9
$SURFV
 70
     6
  9
$UCSBASE
  2

  9
$UCSNAME
  2

  9
$UCSORG
 10
0.0
 20
0.0
 30
0.0
  9
$UCSXDIR
 10
1.0
 20
0.0
 30
0.0
  9
$UCSYDIR
 10
0.0
 20
1.0
 30
0.0
  9
$UCSORTHOREF
  2

  9
$UCSORTHOVIEW
 70
     0
  9
$UCSORGTOP
 10
0.0
 20
0.0
 30
0.0
  9
$UCSORGBOTTOM
 10
0.0
 20
0.0
 30
0.0
  9
$UCSORGLEFT
 10
0.0
 20
0.0
 30
0.0
  9
$UCSORGRIGHT
 10
0.0
 20
0.0
 30
0.0
  9
$UCSORGFRONT
 10
0.0
 20
0.0
 30
0.0
  9
$UCSORGBACK
 10
0.0
 20
0.0
 30
0.0
  9
$PUCSBASE
  2

  9
$PUCSNAME
  2

  9
$PUCSORG
 10
0.0
 20
0.0
 30
0.0
  9
$PUCSXDIR
 10
1.0
 20
0.0
 30
0.0
  9
$PUCSYDIR
 10
0.0
 20
1.0
 30
0.0
  9
$PUCSORTHOREF
  2

  9
$PUCSORTHOVIEW
 70
     0
  9
$PUCSORGTOP
 10
0.0
 20
0.0
 30
0.0
  9
$PUCSORGBOTTOM
 10
0.0
 20
0.0
 30
0.0
  9
$PUCSORGLEFT
 10
0.0
 20
0.0
 30
0.0
  9
$PUCSORGRIGHT
 10
0.0
 20
0.0
 30
0.0
  9
$PUCSORGFRONT
 10
0.0
 20
0.0
 30
0.0
  9
$PUCSORGBACK
 10
0.0
 20
0.0
 30
0.0
  9
$USERI1
 70
     0
  9
$USERI2
 70
     0
  9
$USERI3
 70
     0
  9
$USERI4
 70
     0
  9
$USERI5
 70
     0
  9
$USERR1
 40
0.0
  9
$USERR2
 40
0.0
  9
$USERR3
 40
0.0
  9
$USERR4
 40
0.0
  9
$USERR5
 40
0.0
  9
$WORLDVIEW
 70
     1
  9
$SHADEDGE
 70
     3
  9
$SHADEDIF
 70
    70
  9
$TILEMODE
 70
     1
  9
$MAXACTVP
 70
    64
  9
$PINSBASE
 10
0.0
 20
0.0
 30
0.0
  9
$PLIMCHECK
 70
     0
  9
$PEXTMIN
 10
1.0000000000E+20
 20
1.0000000000E+20
 30
1.0000000000E+20
  9
$PEXTMAX
 10
-1.0000000000E+20
 20
-1.0000000000E+20
 30
-1.0000000000E+20
  9
$PLIMMIN
 10
0.0
 20
0.0
  9
$PLIMMAX
 10
12.0
 20
9.0
  9
$UNITMODE
 70
     0
  9
$VISRETAIN
 70
     1
  9
$PLINEGEN
 70
     0
  9
$PSLTSCALE
 70
     1
  9
$TREEDEPTH
 70
  3020
  9
$CMLSTYLE
  2
Standard
  9
$CMLJUST
 70
     0
  9
$CMLSCALE
 40
1.0
  9
$PROXYGRAPHICS
 70
     1
  9
$MEASUREMENT
 70
     0
  9
$CELWEIGHT
370
    -1
  9
$ENDCAPS
280
     0
  9
$JOINSTYLE
280
     0
  9
$LWDISPLAY
290
     1
  9
$INSUNITS
 70
     1
  9
$HYPERLINKBASE
  1

  9
$STYLESHEET
  1

  9
$XEDIT
290
     1
  9
$CEPSNTYPE
380
     0
  9
$PSTYLEMODE
290
     1
  9
$FINGERPRINTGUID
  2
{3A610BD9-279E-4FA3-9D3F-33EA3994EC6B}
  9
$VERSIONGUID
  2
{FAEB1C32-E019-11D5-929B-00C0DF256EC4}
  9
$EXTNAMES
290
     1
  9
$PSVPSCALE
 40
0.0
  9
$OLESTARTUP
290
     0
  0
ENDSEC
  0
SECTION
  2
CLASSES
  0
CLASS
  1
ACDBDICTIONARYWDFLT
  2
AcDbDictionaryWithDefault
  3
ObjectDBX Classes
 90
        0
280
     0
281
     0
  0
CLASS
  1
VISUALSTYLE
  2
AcDbVisualStyle
  3
ObjectDBX Classes
 90
     4095
280
     0
281
     0
  0
CLASS
  1
MATERIAL
  2
AcDbMaterial
  3
ObjectDBX Classes
 90
     1153
280
     0
281
     0
  0
CLASS
  1
SCALE
  2
AcDbScale
  3
ObjectDBX Classes
 90
     1153
280
     0
281
     0
  0
CLASS
  1
TABLESTYLE
  2
AcDbTableStyle
  3
ObjectDBX Classes
 90
     4095
280
     0
281
     0
  0
CLASS
  1
MLEADERSTYLE
  2
AcDbMLeaderStyle
  3
ACDB_MLEADERSTYLE_CLASS
 90
     4095
280
     0
281
     0
  0
CLASS
  1
SUN
  2
AcDbSun
  3
SCENEOE
 90
     1153
280
     0
281
     0
  0
CLASS
  1
ACDBPLACEHOLDER
  2
AcDbPlaceHolder
  3
ObjectDBX Classes
 90
        0
280
     0
281
     0
  0
CLASS
  1
LAYOUT
  2
AcDbLayout
  3
ObjectDBX Classes
 90
        0
280
     0
281
     0
  0
ENDSEC
  0
SECTION
  2
TABLES
  0
TABLE
  2
VPORT
  5
8
330
0
100
AcDbSymbolTable
 70
     1
  0
VPORT
  5
29
330
8
100
AcDbSymbolTableRecord
100
AcDbViewportTableRecord
  2
*Active
 70
     0
 10
0.0
 20
0.0
 11
1.0
 21
1.0
 12
0.4416692237
 22
3.937007874
 13
0.0
 23
0.0
 14
0.5
 24
0.5
 15
0.5
 25
0.5
 16
0.0
 26
0.0
 36
1.0
 17
0.0
 27
0.0
 37
0.0
 40
8.541496063
 41
0.1054856444
 42
50.0
 43
0.0
 44
0.0
 50
0.0
 51
0.0
 71
     0
 72
   100
 73
     1
 74
     3
 75
     0
 76
     0
 77
     0
 78
     0
281
     0
 65
     1
110
0.0
120
0.0
130
0.0
111
1.0
121
0.0
131
0.0
112
0.0
122
1.0
132
0.0
 79
     0
146
0.0
  0
ENDTAB
  0
TABLE
  2
LTYPE
  5
5
330
0
100
AcDbSymbolTable
 70
     6
  0
LTYPE
  5
14
330
5
100
AcDbSymbolTableRecord
100
AcDbLinetypeTableRecord
  2
ByBlock
 70
     0
  3

 72
    65
 73
     0
 40
0.0
  0
LTYPE
  5
15
330
5
100
AcDbSymbolTableRecord
100
AcDbLinetypeTableRecord
  2
ByLayer
 70
     0
  3

 72
    65
 73
     0
 40
0.0
  0
LTYPE
  5
16
330
5
100
AcDbSymbolTableRecord
100
AcDbLinetypeTableRecord
  2
Continuous
 70
     0
  3
Solid line
 72
    65
 73
     0
 40
0.0
  0
LTYPE
  5
6E
330
5
100
AcDbSymbolTableRecord
100
AcDbLinetypeTableRecord
  2
HIDDEN
 70
     0
  3
Hidden __ __ __ __ __ __ __ __ __ __ __ __ __ __
 72
    65
 73
     2
 40
0.075
 49
0.05
 74
     0
 49
-0.025
 74
     0
  0
LTYPE
  5
6F
330
5
100
AcDbSymbolTableRecord
100
AcDbLinetypeTableRecord
  2
PHANTOM
 70
     0
  3
Phantom ______  __  __  ______  __  __  ______
 72
    65
 73
     6
 40
0.5
 49
0.25
 74
     0
 49
-0.05
 74
     0
 49
0.05
 74
     0
 49
-0.05
 74
     0
 49
0.05
 74
     0
 49
-0.05
 74
     0
  0
LTYPE
  5
70
330
5
100
AcDbSymbolTableRecord
100
AcDbLinetypeTableRecord
  2
CENTER
 70
     0
  3
Center ____ _ ____ _ ____ _ ____ _ ____ _ ____
 72
    65
 73
     4
 40
0.4
 49
0.25
 74
     0
 49
-0.05
 74
     0
 49
0.05
 74
     0
 49
-0.05
 74
     0
  0
LTYPE
  5
71
330
5
100
AcDbSymbolTableRecord
100
AcDbLinetypeTableRecord
  2
CENTERX2
 70
     0
  3
Center (2x) ________  __  ________  __  _____
 72
    65
 73
     4
 40
0.8
 49
0.5
 74
     0
 49
-0.1
 74
     0
 49
0.1
 74
     0
 49
-0.1
 74
     0
  0
LTYPE
  5
72
330
5
100
AcDbSymbolTableRecord
100
AcDbLinetypeTableRecord
  2
DOT2
 70
     0
  3
Dot (.5x) ........................................
 72
    65
 73
     2
 40
0.025
 49
0.0
 74
     0
 49
-0.025
 74
     0
  0
ENDTAB
  0
TABLE
  2
LAYER
  5
2
330
0
100
AcDbSymbolTable
 70
     1
  0
LAYER
  5
10
330
2
100
AcDbSymbolTableRecord
100
AcDbLayerTableRecord
  2
0
 70
     0
 62
     7
  6
Continuous
370
    -3
390
F
  0
ENDTAB
  0
TABLE
  2
STYLE
  5
3
330
0
100
AcDbSymbolTable
 70
     1
  0
STYLE
  5
11
330
3
100
AcDbSymbolTableRecord
100
AcDbTextStyleTableRecord
  2
Standard
 70
     0
 40
0.0
 41
1.0
 50
0.0
 71
     0
 42
0.1377952756
  3
txt
  4

  0
ENDTAB
  0
TABLE
  2
VIEW
  5
6
330
0
100
AcDbSymbolTable
 70
     0
  0
ENDTAB
  0
TABLE
  2
UCS
  5
7
330
0
100
AcDbSymbolTable
 70
     0
  0
ENDTAB
  0
TABLE
  2
APPID
  5
9
330
0
100
AcDbSymbolTable
 70
     1
  0
APPID
  5
12
330
9
100
AcDbSymbolTableRecord
100
AcDbRegAppTableRecord
  2
ACAD
 70
     0
  0
ENDTAB
  0
TABLE
  2
DIMSTYLE
  5
A
330
0
100
AcDbSymbolTable
 70
     1
100
AcDbDimStyleTable
  0
DIMSTYLE
105
27
330
A
100
AcDbSymbolTableRecord
100
AcDbDimStyleTableRecord
  2
Standard
 70
     0
178
     0
340
11
  0
ENDTAB
  0
TABLE
  2
BLOCK_RECORD
  5
1
330
0
100
AcDbSymbolTable
 70
     1
  0
BLOCK_RECORD
  5
1F
330
1
100
AcDbSymbolTableRecord
100
AcDbBlockTableRecord
  2
*Model_Space
340
22
  0
BLOCK_RECORD
  5
1B
330
1
100
AcDbSymbolTableRecord
100
AcDbBlockTableRecord
  2
*Paper_Space
340
1E
  0
BLOCK_RECORD
  5
23
330
1
100
AcDbSymbolTableRecord
100
AcDbBlockTableRecord
  2
*Paper_Space0
340
26
  0
ENDTAB
  0
ENDSEC
  0
SECTION
  2
BLOCKS
  0
BLOCK
  5
20
330
1F
100
AcDbEntity
  8
0
100
AcDbBlockBegin
  2
*Model_Space
 70
     0
 10
0.0
 20
0.0
 30
0.0
  3
*Model_Space
  1

  0
ENDBLK
  5
21
330
1F
100
AcDbEntity
  8
0
100
AcDbBlockEnd
  0
BLOCK
  5
1C
330
1B
100
AcDbEntity
 67
     1
  8
0
100
AcDbBlockBegin
  2
*Paper_Space
 70
     0
 10
0.0
 20
0.0
 30
0.0
  3
*Paper_Space
  1

  0
ENDBLK
  5
1D
330
1B
100
AcDbEntity
 67
     1
  8
0
100
AcDbBlockEnd
  0
BLOCK
  5
24
330
23
100
AcDbEntity
  8
0
100
AcDbBlockBegin
  2
*Paper_Space0
 70
     0
 10
0.0
 20
0.0
 30
0.0
  3
*Paper_Space0
  1

  0
ENDBLK
  5
25
330
23
100
AcDbEntity
  8
0
100
AcDbBlockEnd
  0
ENDSEC
  0
SECTION
  2
ENTITIES
  0
SPLINE
  5
73
330
1F
100
AcDbEntity
  8
0
  6
Continuous
 62
     7
370
    25
100
AcDbSpline
210
0.0
220
0.0
230
1.0
 70
     8
 71
     3
 72
    23
 73
    19
 74
     0
 42
0.000000001
 43
0.00000001
 40
0.0
 40
0.0
 40
0.0
 40
0.0
 40
0.0840477517007219
 40
0.162779161083335
 40
0.2368791130352379
 40
0.3066093047551788
 40
0.3720572668441897
 40
0.4337351778946351
 40
0.4924178082452301
 40
0.5489211427996498
 40
0.6034321414059421
 40
0.6573141737654427
 40
0.7103054840779963
 40
0.7643737787446951
 40
0.8192981803549694
 40
0.8764936974147594
 40
0.9365247084670631
 40
1.0
 40
1.0
 40
1.0
 40
1.0
 10
0.7760572474028795
 20
7.116569667921935
 30
0.0
 10
0.7782632673854698
 20
7.116595392977855
 30
0.0
 10
0.7825357681345414
 20
7.116645215881342
 30
0.0
 10
0.7887374215017011
 20
7.117148083809261
 30
0.0
 10
0.7945206823680947
 20
7.117988369261314
 30
0.0
 10
0.7998994732930383
 20
7.119121539563872
 30
0.0
 10
0.804854498171586
 20
7.120610231647847
 30
0.0
 10
0.809372746571223
 20
7.122462109346316
 30
0.0
 10
0.8134964225627359
 20
7.124609858895809
 30
0.0
 10
0.817194061796179
 20
7.127110449832625
 30
0.0
 10
0.8204784544859485
 20
7.129943392978628
 30
0.0
 10
0.8233269688607068
 20
7.133094169626352
 30
0.0
 10
0.825727271277956
 20
7.136582559022882
 30
0.0
 10
0.8277023134954722
 20
7.140360268262356
 30
0.0
 10
0.8291944341800717
 20
7.144469881405133
 30
0.0
 10
0.830288329266548
 20
7.148860021673039
 30
0.0
 10
0.83095253562645
 20
7.153567404631691
 30
0.0
 10
0.8310296386470138
 20
7.156809765677862
 30
0.0
 10
0.8310692652620603
 20
7.158476156852665
 30
0.0
  0
SPLINE
  5
74
330
1F
100
AcDbEntity
  8
0
  6
Continuous
 62
     7
370
    25
100
AcDbSpline
210
0.0
220
0.0
230
1.0
 70
     8
 71
     3
 72
    23
 73
    19
 74
     0
 42
0.000000001
 43
0.00000001
 40
0.0
 40
0.0
 40
0.0
 40
0.0
 40
0.0600826055276028
 40
0.1176272952363741
 40
0.1740099216257142
 40
0.2292867992503318
 40
0.2840979681033468
 40
0.3385587314833693
 40
0.3935885077845276
 40
0.449860239617502
 40
0.5078430931889069
 40
0.5682152875755652
 40
0.6313654816432844
 40
0.6974741430353558
 40
0.7675210567289249
 40
0.8409590482031508
 40
0.9181969673811058
 40
1.0
 40
1.0
 40
1.0
 40
1.0
 10
0.721232451385534
 20
7.158070509528692
 30
0.0
 10
0.7212658515442342
 20
7.156517337337711
 30
0.0
 10
0.7213312410241657
 20
7.153476599635723
 30
0.0
 10
0.7220983120025559
 20
7.149036024206582
 30
0.0
 10
0.7232233236587398
 20
7.144805899341122
 30
0.0
 10
0.7248705505509868
 20
7.140823660132083
 30
0.0
 10
0.7269168760434179
 20
7.137086477892764
 30
0.0
 10
0.7294614644763437
 20
7.133679688649418
 30
0.0
 10
0.7323270702341008
 20
7.130488502496005
 30
0.0
 10
0.7356676368364271
 20
7.127650672276227
 30
0.0
 10
0.7394026281277315
 20
7.125108988939431
 30
0.0
 10
0.7435495650677241
 20
7.122910060278122
 30
0.0
 10
0.7480476783006265
 20
7.120959095567882
 30
0.0
 10
0.7529540416704804
 20
7.119383139928518
 30
0.0
 10
0.758217159020904
 20
7.118100160190329
 30
0.0
 10
0.7638523842773964
 20
7.117209528405464
 30
0.0
 10
0.7698374006269292
 20
7.116677340472076
 30
0.0
 10
0.7739446668045646
 20
7.116606239070484
 30
0.0
 10
0.7760572474028795
 20
7.116569667921935
 30
0.0
  0
SPLINE
  5
75
330
1F
100
AcDbEntity
  8
0
  6
Continuous
 62
     7
370
    25
100
AcDbSpline
210
0.0
220
0.0
230
1.0
 70
     8
 71
     3
 72
    15
 73
    11
 74
     0
 42
0.000000001
 43
0.00000001
 40
0.0
 40
0.0
 40
0.0
 40
0.0
 40
0.1229444772723858
 40
0.2436347724863736
 40
0.365423961243923
 40
0.4860894073594507
 40
0.6082754247324067
 40
0.7338230840087265
 40
0.8648080278685497
 40
1.0
 40
1.0
 40
1.0
 40
1.0
 10
0.7292205833038267
 20
7.190459888166143
 30
0.0
 10
0.7285918345113803
 20
7.189229377056642
 30
0.0
 10
0.7273458650103721
 20
7.186790916209466
 30
0.0
 10
0.7257434708923434
 20
7.183005694068267
 30
0.0
 10
0.7243922331466595
 20
7.179154255051139
 30
0.0
 10
0.7231973804790992
 20
7.175231102606803
 30
0.0
 10
0.7223485952908086
 20
7.171175647103915
 30
0.0
 10
0.7216686212262272
 20
7.166972586546997
 30
0.0
 10
0.7213052689228229
 20
7.162580710924846
 30
0.0
 10
0.7212569783151568
 20
7.159589668186723
 30
0.0
 10
0.7212324513855339
 20
7.158070509528691
 30
0.0
  0
SPLINE
  5
77
330
1F
100
AcDbEntity
  8
0
  6
Continuous
 62
     7
370
    25
100
AcDbSpline
210
0.0
220
0.0
230
1.0
 70
     8
 71
     3
 72
    13
 73
     9
 74
     0
 42
0.000000001
 43
0.00000001
 40
0.0
 40
0.0
 40
0.0
 40
0.0
 40
0.1371061699384143
 40
0.2698431066498384
 40
0.397453266758754
 40
0.5204190357232241
 40
0.7614228402333076
 40
1.0
 40
1.0
 40
1.0
 40
1.0
 10
0.7052561875489483
 20
7.157290418521044
 30
0.0
 10
0.7052725377243252
 20
7.158840757264584
 30
0.0
 10
0.7053047170355841
 20
7.161892029305109
 30
0.0
 10
0.705606347402497
 20
7.16637671343292
 30
0.0
 10
0.706012752728541
 20
7.170693480481736
 30
0.0
 10
0.706910684319106
 20
7.176179619957098
 30
0.0
 10
0.7084128609422021
 20
7.182842952570373
 30
0.0
 10
0.7103056704652801
 20
7.187929488801819
 30
0.0
 10
0.7112472864876679
 20
7.190459888166143
 30
0.0
  0
SPLINE
  5
78
330
1F
100
AcDbEntity
  8
0
  6
Continuous
 62
     7
370
    25
100
AcDbSpline
210
0.0
220
0.0
230
1.0
 70
     8
 71
     3
 72
    23
 73
    19
 74
     0
 42
0.000000001
 43
0.00000001
 40
0.0
 40
0.0
 40
0.0
 40
0.0
 40
0.0762239501281073
 40
0.1489631040034448
 40
0.2189597488319218
 40
0.2862622244111399
 40
0.3508704591317534
 40
0.4127337431522011
 40
0.4725288396037868
 40
0.530483083367842
 40
0.5872739721413739
 40
0.6438103414321719
 40
0.7002060831706501
 40
0.7573428314617878
 40
0.8154014100422124
 40
0.8750239788061434
 40
0.936060239874018
 40
1.0
 40
1.0
 40
1.0
 40
1.0
 10
0.7776798366987828
 20
7.096599338126203
 30
0.0
 10
0.7749738383499101
 20
7.096656791885136
 30
0.0
 10
0.7696855541190507
 20
7.096769072739814
 30
0.0
 10
0.7619406866609458
 20
7.097543055185184
 30
0.0
 10
0.754601533493258
 20
7.098894693035767
 30
0.0
 10
0.7476559267460628
 20
7.100703161185093
 30
0.0
 10
0.7411948511176216
 20
7.103091904989201
 30
0.0
 10
0.7351931824842052
 20
7.105889059948984
 30
0.0
 10
0.7297138628300541
 20
7.109172790502162
 30
0.0
 10
0.7247464480732945
 20
7.112897059781776
 30
0.0
 10
0.7203184136441492
 20
7.117081774266536
 30
0.0
 10
0.7163965528958984
 20
7.121672974514415
 30
0.0
 10
0.7130447131833141
 20
7.126710330395528
 30
0.0
 10
0.71022266376701
 20
7.13212152972756
 30
0.0
 10
0.7079925159483197
 20
7.137929504032558
 30
0.0
 10
0.7064267478489353
 20
7.144087994857717
 30
0.0
 10
0.7054134838334651
 20
7.150579442559169
 30
0.0
 10
0.7053094254872001
 20
7.155019045583242
 30
0.0
 10
0.7052561875489483
 20
7.157290418521044
 30
0.0
  0
SPLINE
  5
79
330
1F
100
AcDbEntity
  8
0
  6
Continuous
 62
     7
370
    25
100
AcDbSpline
210
0.0
220
0.0
230
1.0
 70
     8
 71
     3
 72
    23
 73
    19
 74
     0
 42
0.000000001
 43
0.00000001
 40
0.0
 40
0.0
 40
0.0
 40
0.0
 40
0.067028865295879
 40
0.1305939151079211
 40
0.1909471771381139
 40
0.2489066783749131
 40
0.3053533745238703
 40
0.3603757235099153
 40
0.415289919954487
 40
0.4706838953538869
 40
0.527143260140093
 40
0.5848306567979946
 40
0.6451609551869211
 40
0.7081360958033104
 40
0.774779742232559
 40
0.8453659414663434
 40
0.9201325707119784
 40
1.0
 40
1.0
 40
1.0
 40
1.0
 10
0.8470455290986458
 20
7.156260698390952
 30
0.0
 10
0.846991243224343
 20
7.153928586330756
 30
0.0
 10
0.8468854767783648
 20
7.149384877541011
 30
0.0
 10
0.8460760395741755
 20
7.142778620485949
 30
0.0
 10
0.8446969182797615
 20
7.136595543382744
 30
0.0
 10
0.8428136403308717
 20
7.130801092740612
 30
0.0
 10
0.8402935562998897
 20
7.125458026772676
 30
0.0
 10
0.8372853316488177
 20
7.120499691431927
 30
0.0
 10
0.8337065949591846
 20
7.115976567625768
 30
0.0
 10
0.829553727126524
 20
7.111906521605672
 30
0.0
 10
0.8248919335945756
 20
7.108271940431591
 30
0.0
 10
0.8196823038161045
 20
7.105131624336065
 30
0.0
 10
0.8139566948447474
 20
7.10248225481883
 30
0.0
 10
0.8076936483958482
 20
7.100349600013925
 30
0.0
 10
0.8009402574666373
 20
7.098610883515447
 30
0.0
 10
0.7936457530007057
 20
7.097472383633342
 30
0.0
 10
0.7858392009188571
 20
7.096734732236466
 30
0.0
 10
0.7804587847171321
 20
7.096645451179166
 30
0.0
 10
0.7776798366987829
 20
7.096599338126204
 30
0.0
  0
SPLINE
  5
7A
330
1F
100
AcDbEntity
  8
0
  6
Continuous
 62
     7
370
    25
100
AcDbSpline
210
0.0
220
0.0
230
1.0
 70
     8
 71
     3
 72
    11
 73
     7
 74
     0
 42
0.000000001
 43
0.00000001
 40
0.0
 40
0.0
 40
0.0
 40
0.0
 40
0.248618693357735
 40
0.4959779292385362
 40
0.7466774047198412
 40
0.9999999999999999
 40
0.9999999999999999
 40
0.9999999999999999
 40
0.9999999999999999
 10
0.8410544301599263
 20
7.190459888166144
 30
0.0
 10
0.8419804768526321
 20
7.187718545029127
 30
0.0
 10
0.8438278790524562
 20
7.182249745905187
 30
0.0
 10
0.8456682242274189
 20
7.173747435468038
 30
0.0
 10
0.8468336936943796
 20
7.165072113968956
 30
0.0
 10
0.846974672727977
 20
7.159208009915543
 30
0.0
 10
0.8470455290986458
 20
7.156260698390952
 30
0.0
  0
SPLINE
  5
7C
330
1F
100
AcDbEntity
  8
0
  6
Continuous
 62
     7
370
    25
100
AcDbSpline
210
0.0
220
0.0
230
1.0
 70
     8
 71
     3
 72
    15
 73
    11
 74
     0
 42
0.000000001
 43
0.00000001
 40
0.0
 40
0.0
 40
0.0
 40
0.0
 40
0.1294417094910493
 40
0.2566018159404622
 40
0.3819200602929471
 40
0.5060967178998492
 40
0.6301210788114269
 40
0.7531741357245026
 40
0.8762879005063057
 40
1.0
 40
1.0
 40
1.0
 40
1.0
 10
0.8310692652620603
 20
7.158476156852665
 30
0.0
 10
0.8310488266491571
 20
7.159912628357477
 30
0.0
 10
0.8310083096843641
 20
7.162760251416
 30
0.0
 10
0.8305765993751189
 20
7.166979213203732
 30
0.0
 10
0.8299407991577642
 20
7.171111730342256
 30
0.0
 10
0.8289818747720273
 20
7.175146799313739
 30
0.0
 10
0.827825194306129
 20
7.179100366295541
 30
0.0
 10
0.8264976882093935
 20
7.182989413953142
 30
0.0
 10
0.8248900088099731
 20
7.186768376866333
 30
0.0
 10
0.8236850654736106
 20
7.189227397415238
 30
0.0
 10
0.8230811333437673
 20
7.190459888166143
 30
0.0
  0
SPLINE
  5
7F
330
1F
100
AcDbEntity
  8
0
  6
Continuous
 62
     7
370
    25
100
AcDbSpline
210
0.0
220
0.0
230
1.0
 70
     8
 71
     3
 72
    29
 73
    25
 74
     0
 42
0.000000001
 43
0.00000001
 40
0.0
 40
0.0
 40
0.0
 40
0.0
 40
0.0852171857061018
 40
0.1671663307474873
 40
0.2070641745736223
 40
0.2461140111268735
 40
0.284125808614681
 40
0.3218525284452828
 40
0.3588397221957919
 40
0.395620608430198
 40
0.4320739099708457
 40
0.4685518824081498
 40
0.505370457639543
 40
0.5425940453332105
 40
0.5807082635190876
 40
0.619831944641761
 40
0.6602450784005572
 40
0.7020586562824512
 40
0.7456979488823328
 40
0.79139739308851
 40
0.8394572581662965
 40
0.890029251114048
 40
0.9435792499698523
 40
1.0
 40
1.0
 40
1.0
 40
1.0
 10
0.7746218799488114
 20
7.316272965879254
 30
0.0
 10
0.7778603229783942
 20
7.316207338916434
 30
0.0
 10
0.7842130162069315
 20
7.316078601755239
 30
0.0
 10
0.7920294994885064
 20
7.315072786019529
 30
0.0
 10
0.7980354677437759
 20
7.313927680813813
 30
0.0
 10
0.8023357435622882
 20
7.312797357750595
 30
0.0
 10
0.8064866214546033
 20
7.311453825390221
 30
0.0
 10
0.8104675814734801
 20
7.309866818976118
 30
0.0
 10
0.8142948322390756
 20
7.308047843765893
 30
0.0
 10
0.8179582714735388
 20
7.30600907587091
 30
0.0
 10
0.8213872539481574
 20
7.303632550569423
 30
0.0
 10
0.824687610929041
 20
7.301081751731376
 30
0.0
 10
0.8277916460775351
 20
7.298244706358416
 30
0.0
 10
0.8306365960273688
 20
7.295065215267855
 30
0.0
 10
0.8332661988661101
 20
7.291596498511836
 30
0.0
 10
0.8356444557144964
 20
7.287804657484156
 30
0.0
 10
0.8377456340886928
 20
7.283698301349877
 30
0.0
 10
0.8396908618983899
 20
7.279324306857024
 30
0.0
 10
0.84123839355761
 20
7.274582678907093
 30
0.0
 10
0.8426350613262047
 20
7.269551728547343
 30
0.0
 10
0.8437207903730866
 20
7.264172112235413
 30
0.0
 10
0.8444915156028688
 20
7.258439782864892
 30
0.0
 10
0.8449646452908424
 20
7.25235509380348
 30
0.0
 10
0.8450200636171107
 20
7.248177100692342
 30
0.0
 10
0.8450484961190727
 20
7.246033571550829
 30
0.0
  0
SPLINE
  5
80
330
1F
100
AcDbEntity
  8
0
  6
Continuous
 62
     7
370
    25
100
AcDbSpline
210
0.0
220
0.0
230
1.0
 70
     8
 71
     3
 72
    23
 73
    19
 74
     0
 42
0.000000001
 43
0.00000001
 40
0.0
 40
0.0
 40
0.0
 40
0.0
 40
0.0732358418510546
 40
0.1421551750349096
 40
0.2068992568259532
 40
0.2681883711078162
 40
0.3264045425663591
 40
0.3823804415609553
 40
0.4367579535255976
 40
0.4906271321329783
 40
0.544844880344778
 40
0.600092835349046
 40
0.6577386600611459
 40
0.7183587513215012
 40
0.7822306476837632
 40
0.8503119303370121
 40
0.9226833265092151
 40
1.0
 40
1.0
 40
1.0
 40
1.0
 10
0.7072532205285218
 20
7.252055874129854
 30
0.0
 10
0.7072961619081598
 20
7.254668535926303
 30
0.0
 10
0.7073795137094692
 20
7.259739869655714
 30
0.0
 10
0.7081632869440735
 20
7.267088726223522
 30
0.0
 10
0.7094714585201722
 20
7.273924462392609
 30
0.0
 10
0.7112554230164767
 20
7.280260988057582
 30
0.0
 10
0.7136139766142251
 20
7.286070994660543
 30
0.0
 10
0.7164447156074579
 20
7.291390203613051
 30
0.0
 10
0.7198476568752669
 20
7.296177902277433
 30
0.0
 10
0.7237786544094118
 20
7.300454556108524
 30
0.0
 10
0.7282377133477702
 20
7.304229270888402
 30
0.0
 10
0.7332658894144505
 20
7.307457036975212
 30
0.0
 10
0.7388211396889417
 20
7.310210339583572
 30
0.0
 10
0.7449311156915225
 20
7.312454190747196
 30
0.0
 10
0.7515971564681336
 20
7.314147948114493
 30
0.0
 10
0.7587845246005336
 20
7.31538582092943
 30
0.0
 10
0.7665240261477917
 20
7.316141730228398
 30
0.0
 10
0.7718637916832924
 20
7.3162282676768
 30
0.0
 10
0.7746218799488114
 20
7.316272965879254
 30
0.0
  0
SPLINE
  5
96
330
1F
100
AcDbEntity
  8
0
  6
Continuous
 62
     7
370
    25
100
AcDbSpline
210
0.0
220
0.0
230
1.0
 70
     8
 71
     3
 72
    23
 73
    19
 74
     0
 42
0.000000001
 43
0.00000001
 40
0.0
 40
0.0
 40
0.0
 40
0.0
 40
0.0867985091117858
 40
0.1680325757699678
 40
0.2438549343749147
 40
0.3151430648712785
 40
0.381827440551298
 40
0.4445164656257232
 40
0.5035922754268357
 40
0.5594986595292187
 40
0.613331632684665
 40
0.6658467966471385
 40
0.7179152797095536
 40
0.7701264042050427
 40
0.8240197862945507
 40
0.8797950640280665
 40
0.9382240930442004
 40
1.0
 40
1.0
 40
1.0
 40
1.0
 10
0.7072532205285215
 20
7.731312585587116
 30
0.0
 10
0.7072715051992762
 20
7.733185768201714
 30
0.0
 10
0.7073069023547743
 20
7.736812048224716
 30
0.0
 10
0.7077387711502193
 20
7.742058904464918
 30
0.0
 10
0.7083351606224471
 20
7.746950883187258
 30
0.0
 10
0.7092259084964673
 20
7.751482996806215
 30
0.0
 10
0.7104300542433604
 20
7.755644957890266
 30
0.0
 10
0.7118041767769999
 20
7.759476896727349
 30
0.0
 10
0.7134962853652811
 20
7.762926223073207
 30
0.0
 10
0.7154438216397718
 20
7.766010743176034
 30
0.0
 10
0.7176258295642073
 20
7.768761221344758
 30
0.0
 10
0.7201218242619603
 20
7.77111056509528
 30
0.0
 10
0.7228459549315738
 20
7.77313162219363
 30
0.0
 10
0.7258542243884107
 20
7.774764482532445
 30
0.0
 10
0.7291116878346878
 20
7.776048291307073
 30
0.0
 10
0.7326335893869058
 20
7.776947451125308
 30
0.0
 10
0.7364019606807505
 20
7.777479468465879
 30
0.0
 10
0.7389959646918384
 20
7.77755088279697
 30
0.0
 10
0.7403290792527026
 20
7.777587584160664
 30
0.0
  0
SPLINE
  5
9A
330
1F
100
AcDbEntity
  8
0
  6
Continuous
 62
     7
370
    25
100
AcDbSpline
210
0.0
220
0.0
230
1.0
 70
     8
 71
     3
 72
    23
 73
    19
 74
     0
 42
0.000000001
 43
0.00000001
 40
0.0
 40
0.0
 40
0.0
 40
0.0
 40
0.0633238088076254
 40
0.1236410274904582
 40
0.1812761875785161
 40
0.2379683775416005
 40
0.2935303577581965
 40
0.3486692427963213
 40
0.4043065953924173
 40
0.4609871888961723
 40
0.5191163736774973
 40
0.5795207166721347
 40
0.6418571249002998
 40
0.707880817806563
 40
0.7766131097989654
 40
0.8476580635175015
 40
0.9221272881518483
 40
1.0
 40
1.0
 40
1.0
 40
1.0
 10
0.8033292290301761
 20
7.781581650119811
 30
0.0
 10
0.8049545959956339
 20
7.781533877792393
 30
0.0
 10
0.8081281581271974
 20
7.78144060134932
 30
0.0
 10
0.8127344965944175
 20
7.780709617463383
 30
0.0
 10
0.8170663419817051
 20
7.779527124194055
 30
0.0
 10
0.8210995612225455
 20
7.777838072124371
 30
0.0
 10
0.8248262574253126
 20
7.775687218483395
 30
0.0
 10
0.828300763891984
 20
7.773191874778271
 30
0.0
 10
0.8314287792723957
 20
7.77022891950443
 30
0.0
 10
0.8342465656640367
 20
7.766872553016881
 30
0.0
 10
0.836741217895752
 20
7.763124606589705
 30
0.0
 10
0.8389730912500286
 20
7.759046457946265
 30
0.0
 10
0.8408002558768994
 20
7.75455282429674
 30
0.0
 10
0.842360536648597
 20
7.74973790951136
 30
0.0
 10
0.843558909682891
 20
7.744589755372995
 30
0.0
 10
0.8444443135182762
 20
7.739160178874519
 30
0.0
 10
0.8449286191222896
 20
7.733443260140443
 30
0.0
 10
0.8450079463673716
 20
7.729534823054787
 30
0.0
 10
0.8450484961190726
 20
7.727536945110111
 30
0.0
  0
SPLINE
  5
9B
330
1F
100
AcDbEntity
  8
0
  6
Continuous
 62
     7
370
    25
100
AcDbSpline
210
0.0
220
0.0
230
1.0
 70
     8
 71
     3
 72
    21
 73
    17
 74
     0
 42
0.000000001
 43
0.00000001
 40
0.0
 40
0.0
 40
0.0
 40
0.0
 40
0.1193489637753419
 40
0.2383531199390212
 40
0.298193689703983
 40
0.356811294613703
 40
0.4157921536839432
 40
0.4750596628706972
 40
0.5350861696029694
 40
0.5959423628256275
 40
0.6578312767354795
 40
0.721898860003888
 40
0.7878379443417369
 40
0.8556139880323076
 40
0.9263566339288638
 40
1.0
 40
1.0
 40
1.0
 40
1.0
 10
0.7710022576733351
 20
7.754808926737408
 30
0.0
 10
0.7714260002510156
 20
7.756584197740004
 30
0.0
 10
0.7722722611840496
 20
7.760129610861498
 30
0.0
 10
0.7741500052959535
 20
7.764303676150958
 30
0.0
 10
0.775943154154891
 20
7.767456961549284
 30
0.0
 10
0.77753222774096
 20
7.769655879204197
 30
0.0
 10
0.7792738420279115
 20
7.77172226130717
 30
0.0
 10
0.7812196499285516
 20
7.773630482088873
 30
0.0
 10
0.7833430769729642
 20
7.77538233037838
 30
0.0
 10
0.7856543868951371
 20
7.776955235717388
 30
0.0
 10
0.7881817519755355
 20
7.778282785174811
 30
0.0
 10
0.7908534996532134
 20
7.779492213758776
 30
0.0
 10
0.793734568138464
 20
7.780414129013009
 30
0.0
 10
0.7967801402919562
 20
7.781110249616986
 30
0.0
 10
0.8000000412528093
 20
7.781519363823593
 30
0.0
 10
0.8022047356411957
 20
7.781560611796651
 30
0.0
 10
0.8033292290301761
 20
7.781581650119811
 30
0.0
  0
SPLINE
  5
9C
330
1F
100
AcDbEntity
  8
0
  6
Continuous
 62
     7
370
    25
100
AcDbSpline
210
0.0
220
0.0
230
1.0
 70
     8
 71
     3
 72
    19
 73
    15
 74
     0
 42
0.000000001
 43
0.00000001
 40
0.0
 40
0.0
 40
0.0
 40
0.0
 40
0.1285624800504034
 40
0.2502215477645555
 40
0.3669909880171187
 40
0.4822212239546619
 40
0.5398783381560758
 40
0.5991717161991092
 40
0.6595878862733306
 40
0.7216226331524992
 40
0.7863398553002725
 40
0.8541806002861272
 40
0.9255280132279439
 40
1.0
 40
1.0
 40
1.0
 40
1.0
 10
0.7403290792527026
 20
7.777587584160664
 30
0.0
 10
0.742101883534378
 20
7.777522395676311
 30
0.0
 10
0.7455522979248792
 20
7.77739551913002
 30
0.0
 10
0.7505362596598126
 20
7.776388973870158
 30
0.0
 10
0.7551181680586666
 20
7.774679879346256
 30
0.0
 10
0.7586258972206092
 20
7.772730014369771
 30
0.0
 10
0.7611817784567496
 20
7.770798553767538
 30
0.0
 10
0.7629978637589383
 20
7.769154762240604
 30
0.0
 10
0.7646443520424215
 20
7.767261415886681
 30
0.0
 10
0.7661881683517108
 20
7.765191647737901
 30
0.0
 10
0.7675909933714276
 20
7.76290151136793
 30
0.0
 10
0.76886849637957
 20
7.760395947944018
 30
0.0
 10
0.7700228044490689
 20
7.757683574620718
 30
0.0
 10
0.770671142468492
 20
7.75578073386321
 30
0.0
 10
0.7710022576733349
 20
7.754808926737407
 30
0.0
  0
SPLINE
  5
A8
330
1F
100
AcDbEntity
  8
0
  6
Continuous
 62
     7
370
    25
100
AcDbSpline
210
0.0
220
0.0
230
1.0
 70
     8
 71
     3
 72
    23
 73
    19
 74
     0
 42
0.000000001
 43
0.00000001
 40
0.0
 40
0.0
 40
0.0
 40
0.0
 40
0.0742149842916864
 40
0.144926471487037
 40
0.2126554212774035
 40
0.277900609655191
 40
0.3406317460113413
 40
0.4013614374701683
 40
0.4602739040129382
 40
0.5182523520608359
 40
0.5756620042123047
 40
0.6328091233534332
 40
0.69040401234905
 40
0.7492572894169601
 40
0.8095254664623837
 40
0.8709648334872667
 40
0.9344536069854738
 40
1.0
 40
1.0
 40
1.0
 40
1.0
 10
0.7776798366987828
 20
7.328255163756694
 30
0.0
 10
0.7749210534714823
 20
7.328315082021376
 30
0.0
 10
0.7695337220242516
 20
7.328432089964725
 30
0.0
 10
0.7616700347727208
 20
7.329343964887267
 30
0.0
 10
0.754245264308091
 20
7.330867906519225
 30
0.0
 10
0.7472746073848604
 20
7.332982247445312
 30
0.0
 10
0.7407802999830777
 20
7.335664995577263
 30
0.0
 10
0.7348158211926374
 20
7.338904239158901
 30
0.0
 10
0.7292928378251978
 20
7.342542522658968
 30
0.0
 10
0.7243521261305681
 20
7.346756139480792
 30
0.0
 10
0.7199306336047487
 20
7.351416537258763
 30
0.0
 10
0.7160670894242368
 20
7.356534773957823
 30
0.0
 10
0.7127830352770819
 20
7.362102184405399
 30
0.0
 10
0.7100245498149309
 20
7.368075446828808
 30
0.0
 10
0.7078799518083845
 20
7.374448082884607
 30
0.0
 10
0.7063520079259064
 20
7.381169269589948
 30
0.0
 10
0.705437457595881
 20
7.388203289697655
 30
0.0
 10
0.7053172498498511
 20
7.393000001029653
 30
0.0
 10
0.7052561875489483
 20
7.395436601335149
 30
0.0
  0
SPLINE
  5
A9
330
1F
100
AcDbEntity
  8
0
  6
Continuous
 62
     7
370
    25
100
AcDbSpline
210
0.0
220
0.0
230
1.0
 70
     8
 71
     3
 72
    23
 73
    19
 74
     0
 42
0.000000001
 43
0.00000001
 40
0.0
 40
0.0
 40
0.0
 40
0.0
 40
0.0664738333188723
 40
0.129830726310912
 40
0.1909405314342768
 40
0.2499586523309136
 40
0.3075816076267331
 40
0.3634317083303949
 40
0.4192725287824149
 40
0.4749817129218682
 40
0.5313521339516611
 40
0.5893098920022956
 40
0.6495075646130785
 40
0.712599416286998
 40
0.7785645337777387
 40
0.8481993859162352
 40
0.9217781163779797
 40
1.0
 40
1.0
 40
1.0
 40
1.0
 10
0.8470455290986458
 20
7.390818462569887
 30
0.0
 10
0.8469906080401581
 20
7.388465633876266
 30
0.0
 10
0.8468833411569767
 20
7.383870299999367
 30
0.0
 10
0.8460744176712627
 20
7.377148256646438
 30
0.0
 10
0.8446627355936852
 20
7.370800844173345
 30
0.0
 10
0.8427382208954384
 20
7.364800664001502
 30
0.0
 10
0.840243909085927
 20
7.35921519283271
 30
0.0
 10
0.8372172008603447
 20
7.354029955581441
 30
0.0
 10
0.8336596768677107
 20
7.349275601930267
 30
0.0
 10
0.8295425035493252
 20
7.344968789758285
 30
0.0
 10
0.8248770335224411
 20
7.341149148900998
 30
0.0
 10
0.8197063397809229
 20
7.337745313365854
 30
0.0
 10
0.8139440336955264
 20
7.334899492443414
 30
0.0
 10
0.8077006779249534
 20
7.332452195170374
 30
0.0
 10
0.8009184775657721
 20
7.330547151657952
 30
0.0
 10
0.7936245981266263
 20
7.329237156663543
 30
0.0
 10
0.7858221987802165
 20
7.32840915287282
 30
0.0
 10
0.780448743677425
 20
7.328307529585431
 30
0.0
 10
0.7776798366987828
 20
7.328255163756694
 30
0.0
  0
SPLINE
  5
AA
330
1F
100
AcDbEntity
  8
0
  6
Continuous
 62
     7
370
    25
100
AcDbSpline
210
0.0
220
0.0
230
1.0
 70
     8
 71
     3
 72
    15
 73
    11
 74
     0
 42
0.000000001
 43
0.00000001
 40
0.0
 40
0.0
 40
0.0
 40
0.0
 40
0.1215625292905876
 40
0.246632991957053
 40
0.3746616108674935
 40
0.5029290309551362
 40
0.63158731019911
 40
0.7582745454851076
 40
0.8812488739967883
 40
1.0
 40
1.0
 40
1.0
 40
1.0
 10
0.8385893425757657
 20
7.430103845714929
 30
0.0
 10
0.8392569542854839
 20
7.428604657794981
 30
0.0
 10
0.8406114429950747
 20
7.425563019846509
 30
0.0
 10
0.8422425386565022
 20
7.420773842584355
 30
0.0
 10
0.8437751221184513
 20
7.415858882254766
 30
0.0
 10
0.8449162937475293
 20
7.410788267811518
 30
0.0
 10
0.8459177596914144
 20
7.405707622634845
 30
0.0
 10
0.8465370737086207
 20
7.400638006426322
 30
0.0
 10
0.8469792205994264
 20
7.395683669121124
 30
0.0
 10
0.8470236852137131
 20
7.392421198468478
 30
0.0
 10
0.8470455290986458
 20
7.390818462569887
 30
0.0
  0
SPLINE
  5
B0
330
1F
100
AcDbEntity
  8
0
  6
Continuous
 62
     7
370
    25
100
AcDbSpline
210
0.0
220
0.0
230
1.0
 70
     8
 71
     3
 72
    15
 73
    11
 74
     0
 42
0.000000001
 43
0.00000001
 40
0.0
 40
0.0
 40
0.0
 40
0.0
 40
0.1181467727921454
 40
0.2453595789397939
 40
0.378304460318895
 40
0.5101699972349333
 40
0.6425997679432801
 40
0.7712816068497601
 40
0.8918619680624076
 40
1.0
 40
1.0
 40
1.0
 40
1.0
 10
0.8310692652620603
 20
7.392753088268848
 30
0.0
 10
0.8310543115341371
 20
7.393450231946465
 30
0.0
 10
0.8310232565988219
 20
7.394898014862227
 30
0.0
 10
0.8308586990216446
 20
7.397125025852209
 30
0.0
 10
0.8306229304810729
 20
7.399427201268887
 30
0.0
 10
0.830258616808506
 20
7.401742917283373
 30
0.0
 10
0.8298912622562378
 20
7.404034430519072
 30
0.0
 10
0.8293330821705502
 20
7.406217634413077
 30
0.0
 10
0.8288137975429986
 20
7.40826346108101
 30
0.0
 10
0.8283536709007796
 20
7.409533188792397
 30
0.0
 10
0.8281361230733122
 20
7.410133515919196
 30
0.0
  0
SPLINE
  5
B1
330
1F
100
AcDbEntity
  8
0
  6
Continuous
 62
     7
370
    25
100
AcDbSpline
210
0.0
220
0.0
230
1.0
 70
     8
 71
     3
 72
    23
 73
    19
 74
     0
 42
0.000000001
 43
0.00000001
 40
0.0
 40
0.0
 40
0.0
 40
0.0
 40
0.0776926921617875
 40
0.1513392742650673
 40
0.2212327312897128
 40
0.2875436524260427
 40
0.3508703177692949
 40
0.4108574784137747
 40
0.4684120070324644
 40
0.5240364429001748
 40
0.5788169698750626
 40
0.6330165744829467
 40
0.6877848345668505
 40
0.7439542020448643
 40
0.8025219656723253
 40
0.8640985142188867
 40
0.9296211511298647
 40
1.0
 40
1.0
 40
1.0
 40
1.0
 10
0.7762444692447146
 20
7.348225493552427
 30
0.0
 10
0.778335853665717
 20
7.348254962244343
 30
0.0
 10
0.7824097065813124
 20
7.348312364946239
 30
0.0
 10
0.7883526763270073
 20
7.348771307472465
 30
0.0
 10
0.7939432258283211
 20
7.349598022033132
 30
0.0
 10
0.7992136598461009
 20
7.350655152811735
 30
0.0
 10
0.80411212321587
 20
7.352118364324045
 30
0.0
 10
0.8086360966190431
 20
7.353933501154016
 30
0.0
 10
0.8127870283641898
 20
7.356075525016127
 30
0.0
 10
0.8165298795031396
 20
7.358629580074796
 30
0.0
 10
0.8198953635597672
 20
7.361529104684919
 30
0.0
 10
0.8228194282504956
 20
7.364844783798792
 30
0.0
 10
0.8253310429624409
 20
7.368525300009461
 30
0.0
 10
0.8274354729466461
 20
7.372585223056118
 30
0.0
 10
0.8291059052151224
 20
7.377042606780024
 30
0.0
 10
0.83022258891118
 20
7.381923142620752
 30
0.0
 10
0.8309754073448087
 20
7.387196236353449
 30
0.0
 10
0.8310372427612984
 20
7.390857198184081
 30
0.0
 10
0.8310692652620603
 20
7.392753088268848
 30
0.0
  0
SPLINE
  5
B2
330
1F
100
AcDbEntity
  8
0
  6
Continuous
 62
     7
370
    25
100
AcDbSpline
210
0.0
220
0.0
230
1.0
 70
     8
 71
     3
 72
    23
 73
    19
 74
     0
 42
0.000000001
 43
0.00000001
 40
0.0
 40
0.0
 40
0.0
 40
0.0
 40
0.0670941814273002
 40
0.1309682097883662
 40
0.1922050918633988
 40
0.2517550137278278
 40
0.3096665216125742
 40
0.3664909861681805
 40
0.4232477774466336
 40
0.4800977581528592
 40
0.5380593300261126
 40
0.5972979270905512
 40
0.6584506770665415
 40
0.7220585008632517
 40
0.787924494381938
 40
0.855981221773477
 40
0.926465511451615
 40
1.0
 40
1.0
 40
1.0
 40
1.0
 10
0.7212324513855339
 20
7.395561415896372
 30
0.0
 10
0.7212767160184678
 20
7.39372782052095
 30
0.0
 10
0.7213631208245024
 20
7.390148632300945
 30
0.0
 10
0.722143259369567
 20
7.384945943117395
 30
0.0
 10
0.7233288285391714
 20
7.380033601141299
 30
0.0
 10
0.7250991972385818
 20
7.375471421048755
 30
0.0
 10
0.7272870193056935
 20
7.371233636807103
 30
0.0
 10
0.7299027053673183
 20
7.367337022513755
 30
0.0
 10
0.732896266928591
 20
7.363758543066061
 30
0.0
 10
0.7363357105197381
 20
7.3605604596216
 30
0.0
 10
0.7401513112081609
 20
7.357707884364394
 30
0.0
 10
0.7443707531186284
 20
7.355258885697105
 30
0.0
 10
0.7489060808404031
 20
7.353077993550597
 30
0.0
 10
0.7538166030221795
 20
7.351325913147142
 30
0.0
 10
0.7590276986343346
 20
7.349899737024908
 30
0.0
 10
0.7645397887542127
 20
7.348982641020084
 30
0.0
 10
0.770299079470833
 20
7.348305530170836
 30
0.0
 10
0.774234886935406
 20
7.348252546475543
 30
0.0
 10
0.7762444692447146
 20
7.348225493552427
 30
0.0
  0
SPLINE
  5
B3
330
1F
100
AcDbEntity
  8
0
  6
Continuous
 62
     7
370
    25
100
AcDbSpline
210
0.0
220
0.0
230
1.0
 70
     8
 71
     3
 72
    13
 73
     9
 74
     0
 42
0.000000001
 43
0.00000001
 40
0.0
 40
0.0
 40
0.0
 40
0.0
 40
0.2432432115958511
 40
0.4850313067569408
 40
0.6072204693392883
 40
0.7333344144511441
 40
0.86470861093666
 40
1.0
 40
1.0
 40
1.0
 40
1.0
 10
0.7292205833038267
 20
7.430103845714927
 30
0.0
 10
0.7280414556988456
 20
7.427452737592482
 30
0.0
 10
0.7256902542025118
 20
7.422166380663761
 30
0.0
 10
0.7235799646858465
 20
7.415219695426641
 30
0.0
 10
0.7223612067454261
 20
7.409503377732293
 30
0.0
 10
0.7217152092651653
 20
7.405021176012374
 30
0.0
 10
0.7212933508341288
 20
7.400354102758551
 30
0.0
 10
0.7212529490295951
 20
7.397174546912584
 30
0.0
 10
0.7212324513855339
 20
7.395561415896372
 30
0.0
  0
SPLINE
  5
B5
330
1F
100
AcDbEntity
  8
0
  6
Continuous
 62
     7
370
    25
100
AcDbSpline
210
0.0
220
0.0
230
1.0
 70
     8
 71
     3
 72
    13
 73
     9
 74
     0
 42
0.000000001
 43
0.00000001
 40
0.0
 40
0.0
 40
0.0
 40
0.0
 40
0.262998097795298
 40
0.5143503813365788
 40
0.6373173557455131
 40
0.7592268647186299
 40
0.8797571536174069
 40
0.9999999999999999
 40
0.9999999999999999
 40
0.9999999999999999
 40
0.9999999999999999
 10
0.7052561875489484
 20
7.39543660133515
 30
0.0
 10
0.7053285568956464
 20
7.39853943648572
 30
0.0
 10
0.7054700910032435
 20
7.404607710196815
 30
0.0
 10
0.7063911149195585
 20
7.412080198132169
 30
0.0
 10
0.7074460673642767
 20
7.417840845515734
 30
0.0
 10
0.7085456124028335
 20
7.422009974889489
 30
0.0
 10
0.7097198534401494
 20
7.426126675099769
 30
0.0
 10
0.7107385475214706
 20
7.428779177723468
 30
0.0
 10
0.7112472864876679
 20
7.430103845714927
 30
0.0
  0
SPLINE
  5
100
330
1F
100
AcDbEntity
  8
0
  6
Continuous
 62
     7
370
    25
100
AcDbSpline
210
0.0
220
0.0
230
1.0
 70
     8
 71
     3
 72
    23
 73
    19
 74
     0
 42
0.000000001
 43
0.00000001
 40
0.0
 40
0.0
 40
0.0
 40
0.0
 40
0.0592754843717704
 40
0.11638681578587
 40
0.1721411112984106
 40
0.2271234294162446
 40
0.2808323591930798
 40
0.3347634718222733
 40
0.3892484125090875
 40
0.4460649622665457
 40
0.5044408394488785
 40
0.5647418757831079
 40
0.6287236522631093
 40
0.6959589829142757
 40
0.7662142901250776
 40
0.8405689404197675
 40
0.917938616385228
 40
1.0
 40
1.0
 40
1.0
 40
1.0
 10
0.8040469127572103
 20
7.761611320324079
 30
0.0
 10
0.8031820309531121
 20
7.761590463707388
 30
0.0
 10
0.8014838442528768
 20
7.761549511950847
 30
0.0
 10
0.7989991998019682
 20
7.761134014245738
 30
0.0
 10
0.7966480215777503
 20
7.760439169684259
 30
0.0
 10
0.7944291068440219
 20
7.759514739258177
 30
0.0
 10
0.7923766801594965
 20
7.758312234855818
 30
0.0
 10
0.7905027683816087
 20
7.756863273293692
 30
0.0
 10
0.7887565620296811
 20
7.755195241286345
 30
0.0
 10
0.7872072476346024
 20
7.75325708100173
 30
0.0
 10
0.7858419714628723
 20
7.751088739267325
 30
0.0
 10
0.7846082619773163
 20
7.748724791925824
 30
0.0
 10
0.7835525263515042
 20
7.746134859169846
 30
0.0
 10
0.7826877518483663
 20
7.743324169652664
 30
0.0
 10
0.7819982422839501
 20
7.74031007511555
 30
0.0
 10
0.7815148300014925
 20
7.737107836438389
 30
0.0
 10
0.7811833771933974
 20
7.733711775417152
 30
0.0
 10
0.7811570115407971
 20
7.7313862399717
 30
0.0
 10
0.78114344077273
 20
7.730189254536106
 30
0.0
  0
SPLINE
  5
101
330
1F
100
AcDbEntity
  8
0
  6
Continuous
 62
     7
370
    25
100
AcDbSpline
210
0.0
220
0.0
230
1.0
 70
     8
 71
     3
 72
    23
 73
    19
 74
     0
 42
0.000000001
 43
0.00000001
 40
0.0
 40
0.0
 40
0.0
 40
0.0
 40
0.0829393962718719
 40
0.1599335501681297
 40
0.232614119164838
 40
0.3007704279656003
 40
0.3638459219738674
 40
0.4240417381824276
 40
0.4807553548122273
 40
0.5353212059651731
 40
0.5881912897538039
 40
0.6411855651855449
 40
0.694215270522924
 40
0.7496900105835007
 40
0.8068982320707427
 40
0.8672498549750514
 40
0.931421305194626
 40
1.0
 40
1.0
 40
1.0
 40
1.0
 10
0.8290722322824869
 20
7.730813327342224
 30
0.0
 10
0.8290562054544276
 20
7.732072535266136
 30
0.0
 10
0.8290253006296434
 20
7.734500688866516
 30
0.0
 10
0.828734112976216
 20
7.738021572069361
 30
0.0
 10
0.8282913494401692
 20
7.741301714645193
 30
0.0
 10
0.8275918961654155
 20
7.744319619317691
 30
0.0
 10
0.8267664631505937
 20
7.747110002301325
 30
0.0
 10
0.8256931865681701
 20
7.749626810076414
 30
0.0
 10
0.8244903521113722
 20
7.751940657035314
 30
0.0
 10
0.8230413397462515
 20
7.753977063424522
 30
0.0
 10
0.8214002727117334
 20
7.755783981418231
 30
0.0
 10
0.8195546078910434
 20
7.757347649455895
 30
0.0
 10
0.8174890652659434
 20
7.758680371304724
 30
0.0
 10
0.8152119848416136
 20
7.759763828774131
 30
0.0
 10
0.8127203193467237
 20
7.760612602870983
 30
0.0
 10
0.8100195048478467
 20
7.761198615213205
 30
0.0
 10
0.8071031108357879
 20
7.761537206672045
 30
0.0
 10
0.8050879462995095
 20
7.761586074971611
 30
0.0
 10
0.8040469127572103
 20
7.761611320324079
 30
0.0
  0
SPLINE
  5
105
330
1F
100
AcDbEntity
  8
0
  6
Continuous
 62
     7
370
    25
100
AcDbSpline
210
0.0
220
0.0
230
1.0
 70
     8
 71
     3
 72
    21
 73
    17
 74
     0
 42
0.000000001
 43
0.00000001
 40
0.0
 40
0.0
 40
0.0
 40
0.0
 40
0.1047633243107761
 40
0.2064859233861081
 40
0.2558845593972118
 40
0.3052831954083078
 40
0.3552380568850461
 40
0.4071793414805432
 40
0.4608728664309213
 40
0.5193733596188769
 40
0.5825892069443317
 40
0.6514849320441941
 40
0.7261011185900063
 40
0.8087366784876976
 40
0.9004207014619389
 40
1.0
 40
1.0
 40
1.0
 40
1.0
 10
0.7429189813980868
 20
7.757617254364933
 30
0.0
 10
0.7415820165755083
 20
7.757559245278459
 30
0.0
 10
0.7389468919482491
 20
7.75744491080249
 30
0.0
 10
0.7357623678730668
 20
7.75663883236435
 30
0.0
 10
0.7333784050578287
 20
7.755699976213208
 30
0.0
 10
0.7317512289796133
 20
7.754711101827032
 30
0.0
 10
0.7302315633142492
 20
7.753516292023025
 30
0.0
 10
0.7288592947758911
 20
7.752074067216756
 30
0.0
 10
0.7276288612371397
 20
7.750377162578117
 30
0.0
 10
0.7264962260079109
 20
7.748443242943004
 30
0.0
 10
0.7255474479668861
 20
7.746201775500889
 30
0.0
 10
0.7246909574654071
 20
7.74370629951547
 30
0.0
 10
0.7240535240916369
 20
7.740890831580611
 30
0.0
 10
0.7235421048965396
 20
7.737756808608836
 30
0.0
 10
0.7232816923169566
 20
7.734270919815676
 30
0.0
 10
0.7232473594317752
 20
7.731832984426803
 30
0.0
 10
0.7232294843651071
 20
7.730563698219776
 30
0.0
  0
SPLINE
  5
106
330
1F
100
AcDbEntity
  8
0
  6
Continuous
 62
     7
370
    25
100
AcDbSpline
210
0.0
220
0.0
230
1.0
 70
     8
 71
     3
 72
    21
 73
    17
 74
     0
 42
0.000000001
 43
0.00000001
 40
0.0
 40
0.0
 40
0.0
 40
0.0
 40
0.148133976102511
 40
0.2835966824732856
 40
0.3475258307884139
 40
0.4079202590614792
 40
0.4664494323283244
 40
0.5237937761561644
 40
0.5798106838576311
 40
0.6356990139426568
 40
0.6911457875321758
 40
0.7476263354458648
 40
0.8060016597479495
 40
0.8668510058135526
 40
0.9310188449962514
 40
1.0
 40
1.0
 40
1.0
 40
1.0
 10
0.7651671769361444
 20
7.72993962541366
 30
0.0
 10
0.7651066242845148
 20
7.731931113045611
 30
0.0
 10
0.7649906986098725
 20
7.73574373794415
 30
0.0
 10
0.7641229156332844
 20
7.740350386812793
 30
0.0
 10
0.7631386613560326
 20
7.743703507073468
 30
0.0
 10
0.7621747981114894
 20
7.745966309803766
 30
0.0
 10
0.7611045997717198
 20
7.748083857052848
 30
0.0
 10
0.7597754445996924
 20
7.74997933032406
 30
0.0
 10
0.758306628475444
 20
7.751719621467907
 30
0.0
 10
0.7566493311901252
 20
7.753247145797162
 30
0.0
 10
0.7548224744009614
 20
7.754577708216241
 30
0.0
 10
0.752806348189906
 20
7.755671191476692
 30
0.0
 10
0.7506108485687425
 20
7.756553883032967
 30
0.0
 10
0.7482199565801818
 20
7.757170217276763
 30
0.0
 10
0.7456356698021585
 20
7.75755318676859
 30
0.0
 10
0.7438461083242229
 20
7.757595389953257
 30
0.0
 10
0.7429189813980867
 20
7.757617254364932
 30
0.0
  0
SPLINE
  5
10A
330
1F
100
AcDbEntity
  8
0
  6
Continuous
 62
     7
370
    25
100
AcDbSpline
210
0.0
220
0.0
230
1.0
 70
     8
 71
     3
 72
    23
 73
    19
 74
     0
 42
0.000000001
 43
0.00000001
 40
0.0
 40
0.0
 40
0.0
 40
0.0
 40
0.0883296116166976
 40
0.1698443360497303
 40
0.2444446040553417
 40
0.3132731369903962
 40
0.3767926758750824
 40
0.4357962190697989
 40
0.4914864034334444
 40
0.5444721269427069
 40
0.596140458726343
 40
0.6471725006713059
 40
0.6994708409309984
 40
0.7530938739164134
 40
0.809128435493655
 40
0.8687523405526317
 40
0.9323607532707583
 40
1.0
 40
1.0
 40
1.0
 40
1.0
 10
0.7762132656044088
 20
7.296302636083522
 30
0.0
 10
0.773861679389583
 20
7.296277362246652
 30
0.0
 10
0.769339938695715
 20
7.296228764523148
 30
0.0
 10
0.7628466848468464
 20
7.295732069583503
 30
0.0
 10
0.7569130453967859
 20
7.294901559314313
 30
0.0
 10
0.7515212983549269
 20
7.293735400754163
 30
0.0
 10
0.7466609485638414
 20
7.292195459107043
 30
0.0
 10
0.7422618462487461
 20
7.29038799215297
 30
0.0
 10
0.7384124706717785
 20
7.288105904440501
 30
0.0
 10
0.7349790917976488
 20
7.28554928242096
 30
0.0
 10
0.7320724597875474
 20
7.282576492998365
 30
0.0
 10
0.7295480066295975
 20
7.279296529751169
 30
0.0
 10
0.727544740306817
 20
7.275614769912059
 30
0.0
 10
0.7259012949480802
 20
7.271619841780129
 30
0.0
 10
0.7247054107210295
 20
7.267266256136307
 30
0.0
 10
0.7238279158577888
 20
7.262570622860707
 30
0.0
 10
0.723347140326399
 20
7.257505655519394
 30
0.0
 10
0.7232694978619633
 20
7.254012242898865
 30
0.0
 10
0.7232294843651073
 20
7.252211892331382
 30
0.0
  0
SPLINE
  5
10B
330
1F
100
AcDbEntity
  8
0
  6
Continuous
 62
     7
370
    25
100
AcDbSpline
210
0.0
220
0.0
230
1.0
 70
     8
 71
     3
 72
    23
 73
    19
 74
     0
 42
0.000000001
 43
0.00000001
 40
0.0
 40
0.0
 40
0.0
 40
0.0
 40
0.0695230522484244
 40
0.1351395536057829
 40
0.1971044783958592
 40
0.2557731263339922
 40
0.3122413857256034
 40
0.3670858759926315
 40
0.4212755739180878
 40
0.4753386553504187
 40
0.5306861661271185
 40
0.5875941633439018
 40
0.6469836539089852
 40
0.7093314558363192
 40
0.7752228398830494
 40
0.8455985977115955
 40
0.9204053698763258
 40
1.0
 40
1.0
 40
1.0
 40
1.0
 10
0.8290722322824872
 20
7.250152452071197
 30
0.0
 10
0.8290255804825266
 20
7.252015452512947
 30
0.0
 10
0.8289348982811889
 20
7.255636770046101
 30
0.0
 10
0.8283701964206066
 20
7.260898991790326
 30
0.0
 10
0.827291334590178
 20
7.26578110903306
 30
0.0
 10
0.8258635825558016
 20
7.270314200622399
 30
0.0
 10
0.8240315500142025
 20
7.274498357725351
 30
0.0
 10
0.8217254021849507
 20
7.278300513410386
 30
0.0
 10
0.8190358914865897
 20
7.281759941540911
 30
0.0
 10
0.8159065630876272
 20
7.284848308152593
 30
0.0
 10
0.8123638968323134
 20
7.287572276180062
 30
0.0
 10
0.808392936182709
 20
7.28991354640426
 30
0.0
 10
0.8040359884895161
 20
7.291917787485896
 30
0.0
 10
0.7992655267614404
 20
7.293535265693549
 30
0.0
 10
0.794081684509423
 20
7.294770340062333
 30
0.0
 10
0.788492079900637
 20
7.295669456769108
 30
0.0
 10
0.7824848343492711
 20
7.296194511809182
 30
0.0
 10
0.7783465632906852
 20
7.296265857205118
 30
0.0
 10
0.7762132656044088
 20
7.296302636083522
 30
0.0
  0
LINE
  5
14D
330
1F
100
AcDbEntity
  8
0
  6
Continuous
 62
     7
370
    25
100
AcDbLine
 10
0.7112472865
 20
7.1904598882
 30
0.0
 11
0.7292205833
 21
7.1904598882
 31
0.0
  0
LINE
  5
14E
330
1F
100
AcDbEntity
  8
0
  6
Continuous
 62
     7
370
    25
100
AcDbLine
 10
0.8230811333
 20
7.1904598882
 30
0.0
 11
0.8410544302
 21
7.1904598882
 31
0.0
  0
LINE
  5
14F
330
1F
100
AcDbEntity
  8
0
  6
Continuous
 62
     7
370
    25
100
AcDbLine
 10
0.8450484961
 20
7.2164213169
 30
0.0
 11
0.7072532205
 21
7.2164213169
 31
0.0
  0
LINE
  5
150
330
1F
100
AcDbEntity
  8
0
  6
Continuous
 62
     7
370
    25
100
AcDbLine
 10
0.8450484961
 20
7.2460335716
 30
0.0
 11
0.8450484961
 21
7.2164213169
 31
0.0
  0
LINE
  5
151
330
1F
100
AcDbEntity
  8
0
  6
Continuous
 62
     7
370
    25
100
AcDbLine
 10
0.7072532205
 20
7.2164213169
 30
0.0
 11
0.7072532205
 21
7.2520558741
 31
0.0
  0
LINE
  5
152
330
1F
100
AcDbEntity
  8
0
  6
Continuous
 62
     7
370
    25
100
AcDbLine
 10
0.8450484961
 20
7.8115371448
 30
0.0
 11
0.8290722323
 21
7.8115371448
 31
0.0
  0
LINE
  5
153
330
1F
100
AcDbEntity
  8
0
  6
Continuous
 62
     7
370
    25
100
AcDbLine
 10
0.8450484961
 20
7.89541253
 30
0.0
 11
0.8450484961
 21
7.8115371448
 31
0.0
  0
LINE
  5
154
330
1F
100
AcDbEntity
  8
0
  6
Continuous
 62
     7
370
    25
100
AcDbLine
 10
0.8290722323
 20
7.89541253
 30
0.0
 11
0.8450484961
 21
7.89541253
 31
0.0
  0
LINE
  5
155
330
1F
100
AcDbEntity
  8
0
  6
Continuous
 62
     7
370
    25
100
AcDbLine
 10
0.8290722323
 20
7.8634600023
 30
0.0
 11
0.8290722323
 21
7.89541253
 31
0.0
  0
LINE
  5
156
330
1F
100
AcDbEntity
  8
0
  6
Continuous
 62
     7
370
    25
100
AcDbLine
 10
0.7232294844
 20
7.8634600023
 30
0.0
 11
0.8290722323
 21
7.8634600023
 31
0.0
  0
LINE
  5
157
330
1F
100
AcDbEntity
  8
0
  6
Continuous
 62
     7
370
    25
100
AcDbLine
 10
0.7232294844
 20
7.89541253
 30
0.0
 11
0.7232294844
 21
7.8634600023
 31
0.0
  0
LINE
  5
158
330
1F
100
AcDbEntity
  8
0
  6
Continuous
 62
     7
370
    25
100
AcDbLine
 10
0.7072532205
 20
7.89541253
 30
0.0
 11
0.7232294844
 21
7.89541253
 31
0.0
  0
LINE
  5
159
330
1F
100
AcDbEntity
  8
0
  6
Continuous
 62
     7
370
    25
100
AcDbLine
 10
0.7072532205
 20
7.8115371448
 30
0.0
 11
0.7072532205
 21
7.89541253
 31
0.0
  0
LINE
  5
15A
330
1F
100
AcDbEntity
  8
0
  6
Continuous
 62
     7
370
    25
100
AcDbLine
 10
0.7232294844
 20
7.8115371448
 30
0.0
 11
0.7072532205
 21
7.8115371448
 31
0.0
  0
LINE
  5
15B
330
1F
100
AcDbEntity
  8
0
  6
Continuous
 62
     7
370
    25
100
AcDbLine
 10
0.7232294844
 20
7.8434896725
 30
0.0
 11
0.7232294844
 21
7.8115371448
 31
0.0
  0
LINE
  5
15C
330
1F
100
AcDbEntity
  8
0
  6
Continuous
 62
     7
370
    25
100
AcDbLine
 10
0.8290722323
 20
7.8434896725
 30
0.0
 11
0.7232294844
 21
7.8434896725
 31
0.0
  0
LINE
  5
15D
330
1F
100
AcDbEntity
  8
0
  6
Continuous
 62
     7
370
    25
100
AcDbLine
 10
0.8290722323
 20
7.8115371448
 30
0.0
 11
0.8290722323
 21
7.8434896725
 31
0.0
  0
LINE
  5
15E
330
1F
100
AcDbEntity
  8
0
  6
Continuous
 62
     7
370
    25
100
AcDbLine
 10
0.7232294844
 20
7.9213739587
 30
0.0
 11
0.7072532205
 21
7.9213739587
 31
0.0
  0
LINE
  5
15F
330
1F
100
AcDbEntity
  8
0
  6
Continuous
 62
     7
370
    25
100
AcDbLine
 10
0.7232294844
 20
7.9613146183
 30
0.0
 11
0.7232294844
 21
7.9213739587
 31
0.0
  0
LINE
  5
160
330
1F
100
AcDbEntity
  8
0
  6
Continuous
 62
     7
370
    25
100
AcDbLine
 10
0.8450484961
 20
7.9613146183
 30
0.0
 11
0.7232294844
 21
7.9613146183
 31
0.0
  0
LINE
  5
161
330
1F
100
AcDbEntity
  8
0
  6
Continuous
 62
     7
370
    25
100
AcDbLine
 10
0.8450484961
 20
7.9812849481
 30
0.0
 11
0.8450484961
 21
7.9613146183
 31
0.0
  0
LINE
  5
162
330
1F
100
AcDbEntity
  8
0
  6
Continuous
 62
     7
370
    25
100
AcDbLine
 10
0.7232294844
 20
7.9812849481
 30
0.0
 11
0.8450484961
 21
7.9812849481
 31
0.0
  0
LINE
  5
163
330
1F
100
AcDbEntity
  8
0
  6
Continuous
 62
     7
370
    25
100
AcDbLine
 10
0.7232294844
 20
8.0212256077
 30
0.0
 11
0.7232294844
 21
7.9812849481
 31
0.0
  0
LINE
  5
164
330
1F
100
AcDbEntity
  8
0
  6
Continuous
 62
     7
370
    25
100
AcDbLine
 10
0.7072532205
 20
8.0212256077
 30
0.0
 11
0.7232294844
 21
8.0212256077
 31
0.0
  0
LINE
  5
165
330
1F
100
AcDbEntity
  8
0
  6
Continuous
 62
     7
370
    25
100
AcDbLine
 10
0.7072532205
 20
7.9213739587
 30
0.0
 11
0.7072532205
 21
8.0212256077
 31
0.0
  0
LINE
  5
166
330
1F
100
AcDbEntity
  8
0
  6
Continuous
 62
     7
370
    25
100
AcDbLine
 10
0.7072532205
 20
7.691715166
 30
0.0
 11
0.7072532205
 21
7.7313125856
 31
0.0
  0
LINE
  5
167
330
1F
100
AcDbEntity
  8
0
  6
Continuous
 62
     7
370
    25
100
AcDbLine
 10
0.8450484961
 20
7.691715166
 30
0.0
 11
0.7072532205
 21
7.691715166
 31
0.0
  0
LINE
  5
168
330
1F
100
AcDbEntity
  8
0
  6
Continuous
 62
     7
370
    25
100
AcDbLine
 10
0.8450484961
 20
7.7275369451
 30
0.0
 11
0.8450484961
 21
7.691715166
 31
0.0
  0
LINE
  5
169
330
1F
100
AcDbEntity
  8
0
  6
Continuous
 62
     7
370
    25
100
AcDbLine
 10
0.7072532205
 20
7.5159762638
 30
0.0
 11
0.8270751993
 21
7.5159762638
 31
0.0
  0
LINE
  5
16A
330
1F
100
AcDbEntity
  8
0
  6
Continuous
 62
     7
370
    25
100
AcDbLine
 10
0.7072532205
 20
7.4981277816
 30
0.0
 11
0.7072532205
 21
7.5159762638
 31
0.0
  0
LINE
  5
16B
330
1F
100
AcDbEntity
  8
0
  6
Continuous
 62
     7
370
    25
100
AcDbLine
 10
0.7292205833
 20
7.4540682415
 30
0.0
 11
0.7072532205
 21
7.4981277816
 31
0.0
  0
LINE
  5
16C
330
1F
100
AcDbEntity
  8
0
  6
Continuous
 62
     7
370
    25
100
AcDbLine
 10
0.7451968471
 20
7.4608394314
 30
0.0
 11
0.7292205833
 21
7.4540682415
 31
0.0
  0
LINE
  5
16D
330
1F
100
AcDbEntity
  8
0
  6
Continuous
 62
     7
370
    25
100
AcDbLine
 10
0.7252265173
 20
7.4940089011
 30
0.0
 11
0.7451968471
 21
7.4608394314
 31
0.0
  0
LINE
  5
16E
330
1F
100
AcDbEntity
  8
0
  6
Continuous
 62
     7
370
    25
100
AcDbLine
 10
0.8270751993
 20
7.4940089011
 30
0.0
 11
0.7252265173
 21
7.4940089011
 31
0.0
  0
LINE
  5
16F
330
1F
100
AcDbEntity
  8
0
  6
Continuous
 62
     7
370
    25
100
AcDbLine
 10
0.8270751993
 20
7.4580623074
 30
0.0
 11
0.8270751993
 21
7.4940089011
 31
0.0
  0
LINE
  5
170
330
1F
100
AcDbEntity
  8
0
  6
Continuous
 62
     7
370
    25
100
AcDbLine
 10
0.8450484961
 20
7.4580623074
 30
0.0
 11
0.8270751993
 21
7.4580623074
 31
0.0
  0
LINE
  5
171
330
1F
100
AcDbEntity
  8
0
  6
Continuous
 62
     7
370
    25
100
AcDbLine
 10
0.8450484961
 20
7.5459317585
 30
0.0
 11
0.8450484961
 21
7.4580623074
 31
0.0
  0
LINE
  5
172
330
1F
100
AcDbEntity
  8
0
  6
Continuous
 62
     7
370
    25
100
AcDbLine
 10
0.8270751993
 20
7.5459317585
 30
0.0
 11
0.8450484961
 21
7.5459317585
 31
0.0
  0
LINE
  5
173
330
1F
100
AcDbEntity
  8
0
  6
Continuous
 62
     7
370
    25
100
AcDbLine
 10
0.8270751993
 20
7.5159762638
 30
0.0
 11
0.8270751993
 21
7.5459317585
 31
0.0
  0
LINE
  5
174
330
1F
100
AcDbEntity
  8
0
  6
Continuous
 62
     7
370
    25
100
AcDbLine
 10
0.7671642099
 20
7.4301038457
 30
0.0
 11
0.8385893426
 21
7.4301038457
 31
0.0
  0
LINE
  5
175
330
1F
100
AcDbEntity
  8
0
  6
Continuous
 62
     7
370
    25
100
AcDbLine
 10
0.7671642099
 20
7.3824246833
 30
0.0
 11
0.7671642099
 21
7.4301038457
 31
0.0
  0
LINE
  5
176
330
1F
100
AcDbEntity
  8
0
  6
Continuous
 62
     7
370
    25
100
AcDbLine
 10
0.7831404738
 20
7.3824246833
 30
0.0
 11
0.7671642099
 21
7.3824246833
 31
0.0
  0
LINE
  5
177
330
1F
100
AcDbEntity
  8
0
  6
Continuous
 62
     7
370
    25
100
AcDbLine
 10
0.7831404738
 20
7.4101335159
 30
0.0
 11
0.7831404738
 21
7.3824246833
 31
0.0
  0
LINE
  5
178
330
1F
100
AcDbEntity
  8
0
  6
Continuous
 62
     7
370
    25
100
AcDbLine
 10
0.8281361231
 20
7.4101335159
 30
0.0
 11
0.7831404738
 21
7.4101335159
 31
0.0
  0
LINE
  5
179
330
1F
100
AcDbEntity
  8
0
  6
Continuous
 62
     7
370
    25
100
AcDbLine
 10
0.7112472865
 20
7.4301038457
 30
0.0
 11
0.7292205833
 21
7.4301038457
 31
0.0
  0
LINE
  5
17A
330
1F
100
AcDbEntity
  8
0
  6
Continuous
 62
     7
370
    25
100
AcDbLine
 10
0.6864880537
 20
8.092765748
 30
0.0
 11
0.6864880537
 21
7.9182099219
 31
0.0
  0
LINE
  5
17B
330
1F
100
AcDbEntity
  8
0
  6
Continuous
 62
     7
370
    25
100
AcDbLine
 10
0.7177380537
 20
8.124015748
 30
0.0
 11
0.6864880537
 21
8.092765748
 31
0.0
  0
LINE
  5
17C
330
1F
100
AcDbEntity
  8
0
  6
Continuous
 62
     7
370
    25
100
AcDbLine
 10
0.8520884474
 20
8.124015748
 30
0.0
 11
0.7177380537
 21
8.124015748
 31
0.0
  0
LINE
  5
17D
330
1F
100
AcDbEntity
  8
0
  6
Continuous
 62
     7
370
    25
100
AcDbLine
 10
0.8833384474
 20
8.092765748
 30
0.0
 11
0.8520884474
 21
8.124015748
 31
0.0
  0
LINE
  5
17E
330
1F
100
AcDbEntity
  8
0
  6
Continuous
 62
     7
370
    25
100
AcDbLine
 10
0.8730069578
 20
7.6757389022
 30
0.0
 11
0.8833384474
 21
7.6757389022
 31
0.0
  0
LINE
  5
17F
330
1F
100
AcDbEntity
  8
0
  6
Continuous
 62
     7
370
    25
100
AcDbLine
 10
0.8730069578
 20
7.5579139564
 30
0.0
 11
0.8730069578
 21
7.6757389022
 31
0.0
  0
LINE
  5
180
330
1F
100
AcDbEntity
  8
0
  6
Continuous
 62
     7
370
    25
100
AcDbLine
 10
0.8833384474
 20
7.5579139564
 30
0.0
 11
0.8730069578
 21
7.5579139564
 31
0.0
  0
LINE
  5
181
330
1F
100
AcDbEntity
  8
0
  6
Continuous
 62
     7
370
    25
100
AcDbLine
 10
0.8833384474
 20
7.0866141732
 30
0.0
 11
0.8833384474
 21
8.092765748
 31
0.0
  0
LINE
  5
182
330
1F
100
AcDbEntity
  8
0
  6
Continuous
 62
     7
370
    25
100
AcDbLine
 10
0.7507559259
 20
7.0866141732
 30
0.0
 11
0.8833384474
 21
7.0866141732
 31
0.0
  0
LINE
  5
183
330
1F
100
AcDbEntity
  8
0
  6
Continuous
 62
     7
370
    25
100
AcDbLine
 10
0.7065617521
 20
6.7371075597
 30
0.0
 11
0.7065617521
 21
7.0424199994
 31
0.0
  0
LINE
  5
184
330
1F
100
AcDbEntity
  8
0
  6
Continuous
 62
     7
370
    25
100
AcDbLine
 10
0.8833384474
 20
6.6929133858
 30
0.0
 11
0.7507559259
 21
6.6929133858
 31
0.0
  0
LINE
  5
185
330
1F
100
AcDbEntity
  8
0
  6
Continuous
 62
     7
370
    25
100
AcDbLine
 10
0.8833384474
 20
6.2992125984
 30
0.0
 11
0.8833384474
 21
6.6929133858
 31
0.0
  0
LINE
  5
186
330
1F
100
AcDbEntity
  8
0
  6
Continuous
 62
     7
370
    25
100
AcDbLine
 10
0.7507559259
 20
6.2992125984
 30
0.0
 11
0.8833384474
 21
6.2992125984
 31
0.0
  0
LINE
  5
187
330
1F
100
AcDbEntity
  8
0
  6
Continuous
 62
     7
370
    25
100
AcDbLine
 10
0.7065617521
 20
5.9497059848
 30
0.0
 11
0.7065617521
 21
6.2550184246
 31
0.0
  0
LINE
  5
188
330
1F
100
AcDbEntity
  8
0
  6
Continuous
 62
     7
370
    25
100
AcDbLine
 10
0.8833384474
 20
5.905511811
 30
0.0
 11
0.7507559259
 21
5.905511811
 31
0.0
  0
LINE
  5
189
330
1F
100
AcDbEntity
  8
0
  6
Continuous
 62
     7
370
    25
100
AcDbLine
 10
0.8833384474
 20
5.5118110236
 30
0.0
 11
0.8833384474
 21
5.905511811
 31
0.0
  0
LINE
  5
18A
330
1F
100
AcDbEntity
  8
0
  6
Continuous
 62
     7
370
    25
100
AcDbLine
 10
0.7507559259
 20
5.5118110236
 30
0.0
 11
0.8833384474
 21
5.5118110236
 31
0.0
  0
LINE
  5
18B
330
1F
100
AcDbEntity
  8
0
  6
Continuous
 62
     7
370
    25
100
AcDbLine
 10
0.7065617521
 20
5.16230441
 30
0.0
 11
0.7065617521
 21
5.4676168498
 31
0.0
  0
LINE
  5
18C
330
1F
100
AcDbEntity
  8
0
  6
Continuous
 62
     7
370
    25
100
AcDbLine
 10
0.8833384474
 20
5.1181102362
 30
0.0
 11
0.7507559259
 21
5.1181102362
 31
0.0
  0
LINE
  5
18D
330
1F
100
AcDbEntity
  8
0
  6
Continuous
 62
     7
370
    25
100
AcDbLine
 10
0.8833384474
 20
4.7244094488
 30
0.0
 11
0.8833384474
 21
5.1181102362
 31
0.0
  0
LINE
  5
18E
330
1F
100
AcDbEntity
  8
0
  6
Continuous
 62
     7
370
    25
100
AcDbLine
 10
0.7507559259
 20
4.7244094488
 30
0.0
 11
0.8833384474
 21
4.7244094488
 31
0.0
  0
LINE
  5
18F
330
1F
100
AcDbEntity
  8
0
  6
Continuous
 62
     7
370
    25
100
AcDbLine
 10
0.7065617521
 20
4.3749028352
 30
0.0
 11
0.7065617521
 21
4.680215275
 31
0.0
  0
LINE
  5
190
330
1F
100
AcDbEntity
  8
0
  6
Continuous
 62
     7
370
    25
100
AcDbLine
 10
0.8833384474
 20
4.3307086614
 30
0.0
 11
0.7507559259
 21
4.3307086614
 31
0.0
  0
LINE
  5
191
330
1F
100
AcDbEntity
  8
0
  6
Continuous
 62
     7
370
    25
100
AcDbLine
 10
0.8833384474
 20
3.937007874
 30
0.0
 11
0.8833384474
 21
4.3307086614
 31
0.0
  0
LINE
  5
192
330
1F
100
AcDbEntity
  8
0
  6
Continuous
 62
     7
370
    25
100
AcDbLine
 10
0.7507559259
 20
3.937007874
 30
0.0
 11
0.8833384474
 21
3.937007874
 31
0.0
  0
LINE
  5
193
330
1F
100
AcDbEntity
  8
0
  6
Continuous
 62
     7
370
    25
100
AcDbLine
 10
0.7065617521
 20
3.5875012604
 30
0.0
 11
0.7065617521
 21
3.8928137002
 31
0.0
  0
LINE
  5
194
330
1F
100
AcDbEntity
  8
0
  6
Continuous
 62
     7
370
    25
100
AcDbLine
 10
0.8833384474
 20
3.5433070866
 30
0.0
 11
0.7507559259
 21
3.5433070866
 31
0.0
  0
LINE
  5
195
330
1F
100
AcDbEntity
  8
0
  6
Continuous
 62
     7
370
    25
100
AcDbLine
 10
0.8833384474
 20
3.1496062992
 30
0.0
 11
0.8833384474
 21
3.5433070866
 31
0.0
  0
LINE
  5
196
330
1F
100
AcDbEntity
  8
0
  6
Continuous
 62
     7
370
    25
100
AcDbLine
 10
0.7507559259
 20
3.1496062992
 30
0.0
 11
0.8833384474
 21
3.1496062992
 31
0.0
  0
LINE
  5
197
330
1F
100
AcDbEntity
  8
0
  6
Continuous
 62
     7
370
    25
100
AcDbLine
 10
0.7065617521
 20
2.8000996856
 30
0.0
 11
0.7065617521
 21
3.1054121254
 31
0.0
  0
LINE
  5
198
330
1F
100
AcDbEntity
  8
0
  6
Continuous
 62
     7
370
    25
100
AcDbLine
 10
0.8833384474
 20
2.7559055118
 30
0.0
 11
0.7507559259
 21
2.7559055118
 31
0.0
  0
LINE
  5
199
330
1F
100
AcDbEntity
  8
0
  6
Continuous
 62
     7
370
    25
100
AcDbLine
 10
0.8833384474
 20
2.3622047244
 30
0.0
 11
0.8833384474
 21
2.7559055118
 31
0.0
  0
LINE
  5
19A
330
1F
100
AcDbEntity
  8
0
  6
Continuous
 62
     7
370
    25
100
AcDbLine
 10
0.7507559259
 20
2.3622047244
 30
0.0
 11
0.8833384474
 21
2.3622047244
 31
0.0
  0
LINE
  5
19B
330
1F
100
AcDbEntity
  8
0
  6
Continuous
 62
     7
370
    25
100
AcDbLine
 10
0.7065617521
 20
2.0126981108
 30
0.0
 11
0.7065617521
 21
2.3180105506
 31
0.0
  0
LINE
  5
19C
330
1F
100
AcDbEntity
  8
0
  6
Continuous
 62
     7
370
    25
100
AcDbLine
 10
0.8833384474
 20
1.968503937
 30
0.0
 11
0.7507559259
 21
1.968503937
 31
0.0
  0
LINE
  5
19D
330
1F
100
AcDbEntity
  8
0
  6
Continuous
 62
     7
370
    25
100
AcDbLine
 10
0.8833384474
 20
1.5748031496
 30
0.0
 11
0.8833384474
 21
1.968503937
 31
0.0
  0
LINE
  5
19E
330
1F
100
AcDbEntity
  8
0
  6
Continuous
 62
     7
370
    25
100
AcDbLine
 10
0.7507559259
 20
1.5748031496
 30
0.0
 11
0.8833384474
 21
1.5748031496
 31
0.0
  0
LINE
  5
19F
330
1F
100
AcDbEntity
  8
0
  6
Continuous
 62
     7
370
    25
100
AcDbLine
 10
0.7065617521
 20
1.225296536
 30
0.0
 11
0.7065617521
 21
1.5306089758
 31
0.0
  0
LINE
  5
1A0
330
1F
100
AcDbEntity
  8
0
  6
Continuous
 62
     7
370
    25
100
AcDbLine
 10
0.8833384474
 20
1.1811023622
 30
0.0
 11
0.7507559259
 21
1.1811023622
 31
0.0
  0
LINE
  5
1A1
330
1F
100
AcDbEntity
  8
0
  6
Continuous
 62
     7
370
    25
100
AcDbLine
 10
0.8833384474
 20
0.7874015748
 30
0.0
 11
0.8833384474
 21
1.1811023622
 31
0.0
  0
LINE
  5
1A2
330
1F
100
AcDbEntity
  8
0
  6
Continuous
 62
     7
370
    25
100
AcDbLine
 10
0.7507559259
 20
0.7874015748
 30
0.0
 11
0.8833384474
 21
0.7874015748
 31
0.0
  0
LINE
  5
1A3
330
1F
100
AcDbEntity
  8
0
  6
Continuous
 62
     7
370
    25
100
AcDbLine
 10
0.7065617521
 20
0.4378949612
 30
0.0
 11
0.7065617521
 21
0.743207401
 31
0.0
  0
LINE
  5
1A4
330
1F
100
AcDbEntity
  8
0
  6
Continuous
 62
     7
370
    25
100
AcDbLine
 10
0.8833384474
 20
0.3937007874
 30
0.0
 11
0.7507559259
 21
0.3937007874
 31
0.0
  0
LINE
  5
1A5
330
1F
100
AcDbEntity
  8
0
  6
Continuous
 62
     7
370
    25
100
AcDbLine
 10
0.8833384474
 20
-0.21875
 30
0.0
 11
0.8833384474
 21
0.3937007874
 31
0.0
  0
LINE
  5
1A6
330
1F
100
AcDbEntity
  8
0
  6
Continuous
 62
     7
370
    25
100
AcDbLine
 10
0.8520884474
 20
-0.25
 30
0.0
 11
0.8833384474
 21
-0.21875
 31
0.0
  0
LINE
  5
1A7
330
1F
100
AcDbEntity
  8
0
  6
Continuous
 62
     7
370
    25
100
AcDbLine
 10
0.7177380537
 20
-0.25
 30
0.0
 11
0.8520884474
 21
-0.25
 31
0.0
  0
LINE
  5
1A8
330
1F
100
AcDbEntity
  8
0
  6
Continuous
 62
     7
370
    25
100
AcDbLine
 10
0.6864880537
 20
-0.21875
 30
0.0
 11
0.7177380537
 21
-0.25
 31
0.0
  0
LINE
  5
1A9
330
1F
100
AcDbEntity
  8
0
  6
Continuous
 62
     7
370
    25
100
AcDbLine
 10
0.6864880537
 20
-0.0441941738
 30
0.0
 11
0.6864880537
 21
-0.21875
 31
0.0
  0
LINE
  5
1AA
330
1F
100
AcDbEntity
  8
0
  6
Continuous
 62
     7
370
    25
100
AcDbLine
 10
0.58906175
 20
7.874015748
 30
0.0
 11
0.58906175
 21
0.0
 31
0.0
  0
LINE
  5
1AB
330
1F
100
AcDbEntity
  8
0
  6
Continuous
 62
     7
370
    25
100
AcDbLine
 10
0.7811434408
 20
7.7116854958
 30
0.0
 11
0.8290722323
 21
7.7116854958
 31
0.0
  0
LINE
  5
1AC
330
1F
100
AcDbEntity
  8
0
  6
Continuous
 62
     7
370
    25
100
AcDbLine
 10
0.7811434408
 20
7.7301892545
 30
0.0
 11
0.7811434408
 21
7.7116854958
 31
0.0
  0
LINE
  5
1AD
330
1F
100
AcDbEntity
  8
0
  6
Continuous
 62
     7
370
    25
100
AcDbLine
 10
0.8290722323
 20
7.7116854958
 30
0.0
 11
0.8290722323
 21
7.7308133273
 31
0.0
  0
LINE
  5
1AE
330
1F
100
AcDbEntity
  8
0
  6
Continuous
 62
     7
370
    25
100
AcDbLine
 10
0.7232294844
 20
7.7116854958
 30
0.0
 11
0.7651671769
 21
7.7116854958
 31
0.0
  0
LINE
  5
1AF
330
1F
100
AcDbEntity
  8
0
  6
Continuous
 62
     7
370
    25
100
AcDbLine
 10
0.7232294844
 20
7.7305636982
 30
0.0
 11
0.7232294844
 21
7.7116854958
 31
0.0
  0
LINE
  5
1B0
330
1F
100
AcDbEntity
  8
0
  6
Continuous
 62
     7
370
    25
100
AcDbLine
 10
0.7651671769
 20
7.7116854958
 30
0.0
 11
0.7651671769
 21
7.7299396254
 31
0.0
  0
LINE
  5
1B1
330
1F
100
AcDbEntity
  8
0
  6
Continuous
 62
     7
370
    25
100
AcDbLine
 10
0.7232294844
 20
7.2363916467
 30
0.0
 11
0.8290722323
 21
7.2363916467
 31
0.0
  0
LINE
  5
1B2
330
1F
100
AcDbEntity
  8
0
  6
Continuous
 62
     7
370
    25
100
AcDbLine
 10
0.7232294844
 20
7.2522118923
 30
0.0
 11
0.7232294844
 21
7.2363916467
 31
0.0
  0
LINE
  5
1B3
330
1F
100
AcDbEntity
  8
0
  6
Continuous
 62
     7
370
    25
100
AcDbLine
 10
0.8290722323
 20
7.2363916467
 30
0.0
 11
0.8290722323
 21
7.2501524521
 31
0.0
  0
LINE
  5
1B4
330
1F
100
AcDbEntity
  8
0
  6
Continuous
 62
     7
370
    25
100
AcDbLine
 10
0.0
 20
0.0
 30
0.0
 11
0.6422938799
 21
0.0
 31
0.0
  0
LINE
  5
1B5
330
1F
100
AcDbEntity
  8
0
  6
Continuous
 62
     7
370
    25
100
AcDbLine
 10
0.0
 20
0.3937007874
 30
0.0
 11
0.0
 21
0.0
 31
0.0
  0
LINE
  5
1B6
330
1F
100
AcDbEntity
  8
0
  6
Continuous
 62
     7
370
    25
100
AcDbLine
 10
0.2058058262
 20
0.3937007874
 30
0.0
 11
0.0
 21
0.3937007874
 31
0.0
  0
LINE
  5
1B7
330
1F
100
AcDbEntity
  8
0
  6
Continuous
 62
     7
370
    25
100
AcDbLine
 10
0.25
 20
0.743207401
 30
0.0
 11
0.25
 21
0.4378949612
 31
0.0
  0
LINE
  5
1B8
330
1F
100
AcDbEntity
  8
0
  6
Continuous
 62
     7
370
    25
100
AcDbLine
 10
0.0
 20
0.7874015748
 30
0.0
 11
0.2058058262
 21
0.7874015748
 31
0.0
  0
LINE
  5
1B9
330
1F
100
AcDbEntity
  8
0
  6
Continuous
 62
     7
370
    25
100
AcDbLine
 10
0.0
 20
1.1811023622
 30
0.0
 11
0.0
 21
0.7874015748
 31
0.0
  0
LINE
  5
1BA
330
1F
100
AcDbEntity
  8
0
  6
Continuous
 62
     7
370
    25
100
AcDbLine
 10
0.2058058262
 20
1.1811023622
 30
0.0
 11
0.0
 21
1.1811023622
 31
0.0
  0
LINE
  5
1BB
330
1F
100
AcDbEntity
  8
0
  6
Continuous
 62
     7
370
    25
100
AcDbLine
 10
0.25
 20
1.5306089758
 30
0.0
 11
0.25
 21
1.225296536
 31
0.0
  0
LINE
  5
1BC
330
1F
100
AcDbEntity
  8
0
  6
Continuous
 62
     7
370
    25
100
AcDbLine
 10
0.0
 20
1.5748031496
 30
0.0
 11
0.2058058262
 21
1.5748031496
 31
0.0
  0
LINE
  5
1BD
330
1F
100
AcDbEntity
  8
0
  6
Continuous
 62
     7
370
    25
100
AcDbLine
 10
0.0
 20
1.968503937
 30
0.0
 11
0.0
 21
1.5748031496
 31
0.0
  0
LINE
  5
1BE
330
1F
100
AcDbEntity
  8
0
  6
Continuous
 62
     7
370
    25
100
AcDbLine
 10
0.2058058262
 20
1.968503937
 30
0.0
 11
0.0
 21
1.968503937
 31
0.0
  0
LINE
  5
1BF
330
1F
100
AcDbEntity
  8
0
  6
Continuous
 62
     7
370
    25
100
AcDbLine
 10
0.25
 20
2.3180105506
 30
0.0
 11
0.25
 21
2.0126981108
 31
0.0
  0
LINE
  5
1C0
330
1F
100
AcDbEntity
  8
0
  6
Continuous
 62
     7
370
    25
100
AcDbLine
 10
0.0
 20
2.3622047244
 30
0.0
 11
0.2058058262
 21
2.3622047244
 31
0.0
  0
LINE
  5
1C1
330
1F
100
AcDbEntity
  8
0
  6
Continuous
 62
     7
370
    25
100
AcDbLine
 10
0.0
 20
2.7559055118
 30
0.0
 11
0.0
 21
2.3622047244
 31
0.0
  0
LINE
  5
1C2
330
1F
100
AcDbEntity
  8
0
  6
Continuous
 62
     7
370
    25
100
AcDbLine
 10
0.2058058262
 20
2.7559055118
 30
0.0
 11
0.0
 21
2.7559055118
 31
0.0
  0
LINE
  5
1C3
330
1F
100
AcDbEntity
  8
0
  6
Continuous
 62
     7
370
    25
100
AcDbLine
 10
0.25
 20
3.1054121254
 30
0.0
 11
0.25
 21
2.8000996856
 31
0.0
  0
LINE
  5
1C4
330
1F
100
AcDbEntity
  8
0
  6
Continuous
 62
     7
370
    25
100
AcDbLine
 10
0.0
 20
3.1496062992
 30
0.0
 11
0.2058058262
 21
3.1496062992
 31
0.0
  0
LINE
  5
1C5
330
1F
100
AcDbEntity
  8
0
  6
Continuous
 62
     7
370
    25
100
AcDbLine
 10
0.0
 20
3.5433070866
 30
0.0
 11
0.0
 21
3.1496062992
 31
0.0
  0
LINE
  5
1C6
330
1F
100
AcDbEntity
  8
0
  6
Continuous
 62
     7
370
    25
100
AcDbLine
 10
0.2058058262
 20
3.5433070866
 30
0.0
 11
0.0
 21
3.5433070866
 31
0.0
  0
LINE
  5
1C7
330
1F
100
AcDbEntity
  8
0
  6
Continuous
 62
     7
370
    25
100
AcDbLine
 10
0.25
 20
3.8928137002
 30
0.0
 11
0.25
 21
3.5875012604
 31
0.0
  0
LINE
  5
1C8
330
1F
100
AcDbEntity
  8
0
  6
Continuous
 62
     7
370
    25
100
AcDbLine
 10
0.0
 20
3.937007874
 30
0.0
 11
0.2058058262
 21
3.937007874
 31
0.0
  0
LINE
  5
1C9
330
1F
100
AcDbEntity
  8
0
  6
Continuous
 62
     7
370
    25
100
AcDbLine
 10
0.0
 20
4.3307086614
 30
0.0
 11
0.0
 21
3.937007874
 31
0.0
  0
LINE
  5
1CA
330
1F
100
AcDbEntity
  8
0
  6
Continuous
 62
     7
370
    25
100
AcDbLine
 10
0.2058058262
 20
4.3307086614
 30
0.0
 11
0.0
 21
4.3307086614
 31
0.0
  0
LINE
  5
1CB
330
1F
100
AcDbEntity
  8
0
  6
Continuous
 62
     7
370
    25
100
AcDbLine
 10
0.25
 20
4.680215275
 30
0.0
 11
0.25
 21
4.3749028352
 31
0.0
  0
LINE
  5
1CC
330
1F
100
AcDbEntity
  8
0
  6
Continuous
 62
     7
370
    25
100
AcDbLine
 10
0.0
 20
4.7244094488
 30
0.0
 11
0.2058058262
 21
4.7244094488
 31
0.0
  0
LINE
  5
1CD
330
1F
100
AcDbEntity
  8
0
  6
Continuous
 62
     7
370
    25
100
AcDbLine
 10
0.0
 20
5.1181102362
 30
0.0
 11
0.0
 21
4.7244094488
 31
0.0
  0
LINE
  5
1CE
330
1F
100
AcDbEntity
  8
0
  6
Continuous
 62
     7
370
    25
100
AcDbLine
 10
0.2058058262
 20
5.1181102362
 30
0.0
 11
0.0
 21
5.1181102362
 31
0.0
  0
LINE
  5
1CF
330
1F
100
AcDbEntity
  8
0
  6
Continuous
 62
     7
370
    25
100
AcDbLine
 10
0.25
 20
5.4676168498
 30
0.0
 11
0.25
 21
5.16230441
 31
0.0
  0
LINE
  5
1D0
330
1F
100
AcDbEntity
  8
0
  6
Continuous
 62
     7
370
    25
100
AcDbLine
 10
0.0
 20
5.5118110236
 30
0.0
 11
0.2058058262
 21
5.5118110236
 31
0.0
  0
LINE
  5
1D1
330
1F
100
AcDbEntity
  8
0
  6
Continuous
 62
     7
370
    25
100
AcDbLine
 10
0.0
 20
5.905511811
 30
0.0
 11
0.0
 21
5.5118110236
 31
0.0
  0
LINE
  5
1D2
330
1F
100
AcDbEntity
  8
0
  6
Continuous
 62
     7
370
    25
100
AcDbLine
 10
0.2058058262
 20
5.905511811
 30
0.0
 11
0.0
 21
5.905511811
 31
0.0
  0
LINE
  5
1D3
330
1F
100
AcDbEntity
  8
0
  6
Continuous
 62
     7
370
    25
100
AcDbLine
 10
0.25
 20
6.2550184246
 30
0.0
 11
0.25
 21
5.9497059848
 31
0.0
  0
LINE
  5
1D4
330
1F
100
AcDbEntity
  8
0
  6
Continuous
 62
     7
370
    25
100
AcDbLine
 10
0.0
 20
6.2992125984
 30
0.0
 11
0.2058058262
 21
6.2992125984
 31
0.0
  0
LINE
  5
1D5
330
1F
100
AcDbEntity
  8
0
  6
Continuous
 62
     7
370
    25
100
AcDbLine
 10
0.0
 20
6.6929133858
 30
0.0
 11
0.0
 21
6.2992125984
 31
0.0
  0
LINE
  5
1D6
330
1F
100
AcDbEntity
  8
0
  6
Continuous
 62
     7
370
    25
100
AcDbLine
 10
0.2058058262
 20
6.6929133858
 30
0.0
 11
0.0
 21
6.6929133858
 31
0.0
  0
LINE
  5
1D7
330
1F
100
AcDbEntity
  8
0
  6
Continuous
 62
     7
370
    25
100
AcDbLine
 10
0.25
 20
7.0424199994
 30
0.0
 11
0.25
 21
6.7371075597
 31
0.0
  0
LINE
  5
1D8
330
1F
100
AcDbEntity
  8
0
  6
Continuous
 62
     7
370
    25
100
AcDbLine
 10
0.0
 20
7.0866141732
 30
0.0
 11
0.2058058262
 21
7.0866141732
 31
0.0
  0
LINE
  5
1D9
330
1F
100
AcDbEntity
  8
0
  6
Continuous
 62
     7
370
    25
100
AcDbLine
 10
0.0
 20
7.4803149606
 30
0.0
 11
0.0
 21
7.0866141732
 31
0.0
  0
LINE
  5
1DA
330
1F
100
AcDbEntity
  8
0
  6
Continuous
 62
     7
370
    25
100
AcDbLine
 10
0.2058058262
 20
7.4803149606
 30
0.0
 11
0.0
 21
7.4803149606
 31
0.0
  0
LINE
  5
1DB
330
1F
100
AcDbEntity
  8
0
  6
Continuous
 62
     7
370
    25
100
AcDbLine
 10
0.25
 20
7.874015748
 30
0.0
 11
0.25
 21
7.5245091345
 31
0.0
  0
LINE
  5
1DC
330
1F
100
AcDbEntity
  8
0
  6
Continuous
 62
     7
370
    25
100
AcDbLine
 10
0.6422938799
 20
7.874015748
 30
0.0
 11
0.25
 21
7.874015748
 31
0.0
  0
LINE
  5
1DD
330
1F
100
AcDbEntity
  8
0
  6
Continuous
 62
     7
370
    25
100
AcDbLine
 10
0.4489646631
 20
7.874015748
 30
0.0
 11
0.4489646631
 21
0.0
 31
0.0
  0
ARC
  5
1DE
330
1F
100
AcDbEntity
  8
0
  6
Continuous
 62
     7
370
    25
100
AcDbCircle
 10
0.6643909668
 20
7.8961128349
 30
0.0
 40
0.0312499999999924
100
AcDbArc
 50
225.0000000001
 51
45.0000000001
  0
ARC
  5
1DF
330
1F
100
AcDbEntity
  8
0
  6
Continuous
 62
     7
370
    25
100
AcDbCircle
 10
0.728658839
 20
7.0645170863
 30
0.0
 40
0.0312499999999908
100
AcDbArc
 50
45.0
 51
225.0
  0
ARC
  5
1E0
330
1F
100
AcDbEntity
  8
0
  6
Continuous
 62
     7
370
    25
100
AcDbCircle
 10
0.728658839
 20
6.7150104727
 30
0.0
 40
0.0312499999999802
100
AcDbArc
 50
134.9999999999
 51
314.9999999999
  0
ARC
  5
1E1
330
1F
100
AcDbEntity
  8
0
  6
Continuous
 62
     7
370
    25
100
AcDbCircle
 10
0.728658839
 20
6.2771155115
 30
0.0
 40
0.0312499999999626
100
AcDbArc
 50
44.9999999999
 51
224.9999999999
  0
ARC
  5
1E2
330
1F
100
AcDbEntity
  8
0
  6
Continuous
 62
     7
370
    25
100
AcDbCircle
 10
0.728658839
 20
5.9276088979
 30
0.0
 40
0.0312500000000353
100
AcDbArc
 50
135.0000000001
 51
315.0000000001
  0
ARC
  5
1E3
330
1F
100
AcDbEntity
  8
0
  6
Continuous
 62
     7
370
    25
100
AcDbCircle
 10
0.728658839
 20
5.4897139367
 30
0.0
 40
0.0312499999999718
100
AcDbArc
 50
44.9999999999
 51
224.9999999999
  0
ARC
  5
1E4
330
1F
100
AcDbEntity
  8
0
  6
Continuous
 62
     7
370
    25
100
AcDbCircle
 10
0.728658839
 20
5.1402073231
 30
0.0
 40
0.0312500000000103
100
AcDbArc
 50
135.0000000001
 51
315.0000000001
  0
ARC
  5
1E5
330
1F
100
AcDbEntity
  8
0
  6
Continuous
 62
     7
370
    25
100
AcDbCircle
 10
0.728658839
 20
4.7023123619
 30
0.0
 40
0.0312499999999753
100
AcDbArc
 50
44.9999999999
 51
224.9999999999
  0
ARC
  5
1E6
330
1F
100
AcDbEntity
  8
0
  6
Continuous
 62
     7
370
    25
100
AcDbCircle
 10
0.728658839
 20
4.3528057483
 30
0.0
 40
0.0312500000000109
100
AcDbArc
 50
135.0000000001
 51
315.0000000001
  0
ARC
  5
1E7
330
1F
100
AcDbEntity
  8
0
  6
Continuous
 62
     7
370
    25
100
AcDbCircle
 10
0.728658839
 20
3.9149107871
 30
0.0
 40
0.031249999999975
100
AcDbArc
 50
44.9999999999
 51
224.9999999999
  0
ARC
  5
1E8
330
1F
100
AcDbEntity
  8
0
  6
Continuous
 62
     7
370
    25
100
AcDbCircle
 10
0.728658839
 20
3.5654041735
 30
0.0
 40
0.0312500000000108
100
AcDbArc
 50
135.0000000001
 51
315.0000000001
  0
ARC
  5
1E9
330
1F
100
AcDbEntity
  8
0
  6
Continuous
 62
     7
370
    25
100
AcDbCircle
 10
0.728658839
 20
3.1275092123
 30
0.0
 40
0.0312499999999754
100
AcDbArc
 50
44.9999999999
 51
224.9999999999
  0
ARC
  5
1EA
330
1F
100
AcDbEntity
  8
0
  6
Continuous
 62
     7
370
    25
100
AcDbCircle
 10
0.728658839
 20
2.7780025987
 30
0.0
 40
0.0312499999999612
100
AcDbArc
 50
135.0000000001
 51
315.0000000001
  0
ARC
  5
1EB
330
1F
100
AcDbEntity
  8
0
  6
Continuous
 62
     7
370
    25
100
AcDbCircle
 10
0.728658839
 20
2.3401076375
 30
0.0
 40
0.0312499999999734
100
AcDbArc
 50
44.9999999998
 51
224.9999999998
  0
ARC
  5
1EC
330
1F
100
AcDbEntity
  8
0
  6
Continuous
 62
     7
370
    25
100
AcDbCircle
 10
0.728658839
 20
1.9906010239
 30
0.0
 40
0.0312499999999611
100
AcDbArc
 50
135.0000000001
 51
315.0000000002
  0
ARC
  5
1ED
330
1F
100
AcDbEntity
  8
0
  6
Continuous
 62
     7
370
    25
100
AcDbCircle
 10
0.728658839
 20
1.5527060627
 30
0.0
 40
0.0312499999999485
100
AcDbArc
 50
44.9999999998
 51
224.9999999998
  0
ARC
  5
1EE
330
1F
100
AcDbEntity
  8
0
  6
Continuous
 62
     7
370
    25
100
AcDbCircle
 10
0.728658839
 20
1.2031994491
 30
0.0
 40
0.0312499999999487
100
AcDbArc
 50
135.0000000002
 51
315.0000000001
  0
ARC
  5
1EF
330
1F
100
AcDbEntity
  8
0
  6
Continuous
 62
     7
370
    25
100
AcDbCircle
 10
0.728658839
 20
0.7653044879
 30
0.0
 40
0.0312499999999486
100
AcDbArc
 50
44.9999999998
 51
224.9999999998
  0
ARC
  5
1F0
330
1F
100
AcDbEntity
  8
0
  6
Continuous
 62
     7
370
    25
100
AcDbCircle
 10
0.728658839
 20
0.4157978743
 30
0.0
 40
0.0312499999999919
100
AcDbArc
 50
135.0000000003
 51
315.0000000003
  0
ARC
  5
1F1
330
1F
100
AcDbEntity
  8
0
  6
Continuous
 62
     7
370
    25
100
AcDbCircle
 10
0.6643909668
 20
-0.0220970869
 30
0.0
 40
0.0312500000000104
100
AcDbArc
 50
315.0
 51
135.0
  0
ARC
  5
1F2
330
1F
100
AcDbEntity
  8
0
  6
Continuous
 62
     7
370
    25
100
AcDbCircle
 10
0.2279029131
 20
0.4157978743
 30
0.0
 40
0.0312499999999794
100
AcDbArc
 50
225.0
 51
45.0
  0
ARC
  5
1F3
330
1F
100
AcDbEntity
  8
0
  6
Continuous
 62
     7
370
    25
100
AcDbCircle
 10
0.2279029131
 20
0.7653044879
 30
0.0
 40
0.0312499999999795
100
AcDbArc
 50
315.0
 51
135.0
  0
ARC
  5
1F4
330
1F
100
AcDbEntity
  8
0
  6
Continuous
 62
     7
370
    25
100
AcDbCircle
 10
0.2279029131
 20
1.2031994491
 30
0.0
 40
0.0312499999999918
100
AcDbArc
 50
225.0000000001
 51
45.0000000001
  0
ARC
  5
1F5
330
1F
100
AcDbEntity
  8
0
  6
Continuous
 62
     7
370
    25
100
AcDbCircle
 10
0.2279029131
 20
1.5527060627
 30
0.0
 40
0.0312499999999612
100
AcDbArc
 50
314.9999999999
 51
134.9999999999
  0
ARC
  5
1F6
330
1F
100
AcDbEntity
  8
0
  6
Continuous
 62
     7
370
    25
100
AcDbCircle
 10
0.2279029131
 20
1.9906010239
 30
0.0
 40
0.0312499999999795
100
AcDbArc
 50
225.0
 51
45.0
  0
ARC
  5
1F7
330
1F
100
AcDbEntity
  8
0
  6
Continuous
 62
     7
370
    25
100
AcDbCircle
 10
0.2279029131
 20
2.3401076375
 30
0.0
 40
0.0312499999999671
100
AcDbArc
 50
315.0
 51
134.9999999999
  0
ARC
  5
1F8
330
1F
100
AcDbEntity
  8
0
  6
Continuous
 62
     7
370
    25
100
AcDbCircle
 10
0.2279029131
 20
2.7780025987
 30
0.0
 40
0.0312499999999718
100
AcDbArc
 50
225.0000000001
 51
45.0000000002
  0
ARC
  5
1F9
330
1F
100
AcDbEntity
  8
0
  6
Continuous
 62
     7
370
    25
100
AcDbCircle
 10
0.2279029131
 20
3.1275092123
 30
0.0
 40
0.0312499999999796
100
AcDbArc
 50
315.0
 51
135.0
  0
ARC
  5
1FA
330
1F
100
AcDbEntity
  8
0
  6
Continuous
 62
     7
370
    25
100
AcDbCircle
 10
0.2279029131
 20
3.5654041735
 30
0.0
 40
0.0312499999999842
100
AcDbArc
 50
225.0000000001
 51
45.0000000001
  0
ARC
  5
1FB
330
1F
100
AcDbEntity
  8
0
  6
Continuous
 62
     7
370
    25
100
AcDbCircle
 10
0.2279029131
 20
3.9149107871
 30
0.0
 40
0.0312499999999677
100
AcDbArc
 50
315.0
 51
134.9999999999
  0
ARC
  5
1FC
330
1F
100
AcDbEntity
  8
0
  6
Continuous
 62
     7
370
    25
100
AcDbCircle
 10
0.2279029131
 20
4.3528057483
 30
0.0
 40
0.0312499999999724
100
AcDbArc
 50
225.0000000001
 51
45.0000000002
  0
ARC
  5
1FD
330
1F
100
AcDbEntity
  8
0
  6
Continuous
 62
     7
370
    25
100
AcDbCircle
 10
0.2279029131
 20
4.7023123619
 30
0.0
 40
0.0312499999999803
100
AcDbArc
 50
315.0
 51
135.0
  0
ARC
  5
1FE
330
1F
100
AcDbEntity
  8
0
  6
Continuous
 62
     7
370
    25
100
AcDbCircle
 10
0.2279029131
 20
5.1402073231
 30
0.0
 40
0.0312499999999917
100
AcDbArc
 50
225.0000000001
 51
45.0000000001
  0
ARC
  5
1FF
330
1F
100
AcDbEntity
  8
0
  6
Continuous
 62
     7
370
    25
100
AcDbCircle
 10
0.2279029131
 20
5.4897139367
 30
0.0
 40
0.031249999999956
100
AcDbArc
 50
315.0
 51
135.0
  0
ARC
  5
200
330
1F
100
AcDbEntity
  8
0
  6
Continuous
 62
     7
370
    25
100
AcDbCircle
 10
0.2279029131
 20
5.9276088979
 30
0.0
 40
0.031249999999963
100
AcDbArc
 50
225.0000000001
 51
45.0000000001
  0
ARC
  5
201
330
1F
100
AcDbEntity
  8
0
  6
Continuous
 62
     7
370
    25
100
AcDbCircle
 10
0.2279029131
 20
6.2771155115
 30
0.0
 40
0.0312499999999548
100
AcDbArc
 50
315.0
 51
135.0
  0
ARC
  5
202
330
1F
100
AcDbEntity
  8
0
  6
Continuous
 62
     7
370
    25
100
AcDbCircle
 10
0.2279029131
 20
6.7150104727
 30
0.0
 40
0.0312499999999757
100
AcDbArc
 50
225.0000000001
 51
45.0000000001
  0
ARC
  5
203
330
1F
100
AcDbEntity
  8
0
  6
Continuous
 62
     7
370
    25
100
AcDbCircle
 10
0.2279029131
 20
7.0645170863
 30
0.0
 40
0.0312499999999494
100
AcDbArc
 50
314.9999999999
 51
134.9999999999
  0
ARC
  5
204
330
1F
100
AcDbEntity
  8
0
  6
Continuous
 62
     7
370
    25
100
AcDbCircle
 10
0.2279029131
 20
7.5024120475
 30
0.0
 40
0.0312499999999746
100
AcDbArc
 50
225.0000000001
 51
45.0000000001
  0
ENDSEC
  0
SECTION
  2
OBJECTS
  0
DICTIONARY
  5
C
330
0
100
AcDbDictionary
281
     1
  3
ACAD_GROUP
350
D
  3
ACAD_LAYOUT
350
1A
  3
ACAD_MLINESTYLE
350
17
  3
ACAD_PLOTSETTINGS
350
19
  3
ACAD_PLOTSTYLENAME
350
E
  3
ACAD_SCALELIST
350
47
  0
DICTIONARY
  5
D
102
{ACAD_REACTORS
330
C
102
}
330
C
100
AcDbDictionary
281
     1
  0
DICTIONARY
  5
1A
102
{ACAD_REACTORS
330
C
102
}
330
C
100
AcDbDictionary
281
     1
  3
Layout1
350
1E
  3
Layout2
350
26
  3
Model
350
22
  0
DICTIONARY
  5
17
102
{ACAD_REACTORS
330
C
102
}
330
C
100
AcDbDictionary
281
     1
  3
Standard
350
18
  0
DICTIONARY
  5
19
102
{ACAD_REACTORS
330
C
102
}
330
C
100
AcDbDictionary
281
     1
  0
ACDBDICTIONARYWDFLT
  5
E
102
{ACAD_REACTORS
330
C
102
}
330
C
100
AcDbDictionary
281
     1
  3
Normal
350
F
100
AcDbDictionaryWithDefault
340
F
  0
DICTIONARY
  5
47
102
{ACAD_REACTORS
330
C
102
}
330
C
100
AcDbDictionary
281
     1
  3
A0
350
48
  3
A1
350
49
  3
A2
350
4A
  3
A3
350
4B
  3
A4
350
4C
  3
A5
350
4D
  3
A6
350
4E
  3
A7
350
4F
  3
A8
350
50
  3
A9
350
51
  3
B0
350
52
  3
B1
350
53
  3
B2
350
54
  3
B3
350
55
  3
B4
350
56
  3
B5
350
57
  3
B6
350
58
  3
B7
350
59
  3
B8
350
5A
  3
B9
350
5B
  3
C0
350
5C
  3
C1
350
5D
  3
C2
350
5E
  3
C3
350
5F
  3
C4
350
60
  3
C5
350
61
  3
C6
350
62
  3
C7
350
63
  3
C8
350
64
  3
C9
350
65
  3
D0
350
66
  3
D1
350
67
  3
D2
350
68
  0
LAYOUT
  5
1E
102
{ACAD_REACTORS
330
1A
102
}
330
1A
100
AcDbPlotSettings
  1

  2
none_device
  4

  6

 40
0.0
 41
0.0
 42
0.0
 43
0.0
 44
0.0
 45
0.0
 46
0.0
 47
0.0
 48
0.0
 49
0.0
140
0.0
141
0.0
142
1.0
143
1.0
 70
   688
 72
     0
 73
     0
 74
     5
  7

 75
    16
147
1.0
148
0.0
149
0.0
100
AcDbLayout
  1
Layout1
 70
     1
 71
     1
 10
0.0
 20
0.0
 11
12.0
 21
9.0
 12
0.0
 22
0.0
 32
0.0
 14
1.0000000000E+20
 24
1.0000000000E+20
 34
1.0000000000E+20
 15
-1.0000000000E+20
 25
-1.0000000000E+20
 35
-1.0000000000E+20
146
0.0
 13
0.0
 23
0.0
 33
0.0
 16
1.0
 26
0.0
 36
0.0
 17
0.0
 27
1.0
 37
0.0
 76
     0
330
1B
  0
LAYOUT
  5
26
102
{ACAD_REACTORS
330
1A
102
}
330
1A
100
AcDbPlotSettings
  1

  2
none_device
  4

  6

 40
0.0
 41
0.0
 42
0.0
 43
0.0
 44
0.0
 45
0.0
 46
0.0
 47
0.0
 48
0.0
 49
0.0
140
0.0
141
0.0
142
1.0
143
1.0
 70
   688
 72
     0
 73
     0
 74
     5
  7

 75
    16
147
1.0
148
0.0
149
0.0
100
AcDbLayout
  1
Layout2
 70
     1
 71
     2
 10
0.0
 20
0.0
 11
0.0
 21
0.0
 12
0.0
 22
0.0
 32
0.0
 14
0.0
 24
0.0
 34
0.0
 15
0.0
 25
0.0
 35
0.0
146
0.0
 13
0.0
 23
0.0
 33
0.0
 16
1.0
 26
0.0
 36
0.0
 17
0.0
 27
1.0
 37
0.0
 76
     0
330
23
  0
LAYOUT
  5
22
102
{ACAD_REACTORS
330
1A
102
}
330
1A
100
AcDbPlotSettings
  1

  2
none_device
  4
ANSI_A_(11.00_x_8.50_Inches)
  6

 40
6.35
 41
19.05
 42
6.35000508
 43
19.05000254
 44
279.4
 45
215.9
 46
122.0766938999
 47
-11.5894229907
 48
0.0
 49
0.0
140
0.0
141
0.0
142
1.0048942172
143
1.0
 70
  1696
 72
     0
 73
     0
 74
     0
  7

 75
     0
147
0.5913241897
148
-39.4088153714
149
0.0
100
AcDbLayout
  1
Model
 70
     1
 71
     0
 10
0.0
 20
0.0
 11
12.0
 21
9.0
 12
0.0
 22
0.0
 32
0.0
 14
0.0
 24
-0.25
 34
0.0
 15
0.8833384474
 25
8.124015748
 35
0.0
146
0.0
 13
0.0
 23
0.0
 33
0.0
 16
1.0
 26
0.0
 36
0.0
 17
0.0
 27
1.0
 37
0.0
 76
     0
330
1F
331
29
  0
MLINESTYLE
  5
18
102
{ACAD_REACTORS
330
17
102
}
330
17
100
AcDbMlineStyle
  2
Standard
 70
     0
  3

 62
   256
 51
90.0
 52
90.0
 71
     2
 49
0.5
 62
   256
  6
BYLAYER
 49
-0.5
 62
   256
  6
BYLAYER
  0
ACDBPLACEHOLDER
  5
F
102
{ACAD_REACTORS
330
E
102
}
330
E
  0
SCALE
  5
48
102
{ACAD_REACTORS
330
47
102
}
330
47
100
AcDbScale
 70
     0
300
1:1
140
1.0
141
1.0
290
     1
  0
SCALE
  5
49
102
{ACAD_REACTORS
330
47
102
}
330
47
100
AcDbScale
 70
     0
300
1:2
140
1.0
141
2.0
290
     0
  0
SCALE
  5
4A
102
{ACAD_REACTORS
330
47
102
}
330
47
100
AcDbScale
 70
     0
300
1:4
140
1.0
141
4.0
290
     0
  0
SCALE
  5
4B
102
{ACAD_REACTORS
330
47
102
}
330
47
100
AcDbScale
 70
     0
300
1:5
140
1.0
141
5.0
290
     0
  0
SCALE
  5
4C
102
{ACAD_REACTORS
330
47
102
}
330
47
100
AcDbScale
 70
     0
300
1:8
140
1.0
141
8.0
290
     0
  0
SCALE
  5
4D
102
{ACAD_REACTORS
330
47
102
}
330
47
100
AcDbScale
 70
     0
300
1:10
140
1.0
141
10.0
290
     0
  0
SCALE
  5
4E
102
{ACAD_REACTORS
330
47
102
}
330
47
100
AcDbScale
 70
     0
300
1:16
140
1.0
141
16.0
290
     0
  0
SCALE
  5
4F
102
{ACAD_REACTORS
330
47
102
}
330
47
100
AcDbScale
 70
     0
300
1:20
140
1.0
141
20.0
290
     0
  0
SCALE
  5
50
102
{ACAD_REACTORS
330
47
102
}
330
47
100
AcDbScale
 70
     0
300
1:30
140
1.0
141
30.0
290
     0
  0
SCALE
  5
51
102
{ACAD_REACTORS
330
47
102
}
330
47
100
AcDbScale
 70
     0
300
1:40
140
1.0
141
40.0
290
     0
  0
SCALE
  5
52
102
{ACAD_REACTORS
330
47
102
}
330
47
100
AcDbScale
 70
     0
300
1:50
140
1.0
141
50.0
290
     0
  0
SCALE
  5
53
102
{ACAD_REACTORS
330
47
102
}
330
47
100
AcDbScale
 70
     0
300
1:100
140
1.0
141
100.0
290
     0
  0
SCALE
  5
54
102
{ACAD_REACTORS
330
47
102
}
330
47
100
AcDbScale
 70
     0
300
2:1
140
2.0
141
1.0
290
     0
  0
SCALE
  5
55
102
{ACAD_REACTORS
330
47
102
}
330
47
100
AcDbScale
 70
     0
300
4:1
140
4.0
141
1.0
290
     0
  0
SCALE
  5
56
102
{ACAD_REACTORS
330
47
102
}
330
47
100
AcDbScale
 70
     0
300
8:1
140
8.0
141
1.0
290
     0
  0
SCALE
  5
57
102
{ACAD_REACTORS
330
47
102
}
330
47
100
AcDbScale
 70
     0
300
10:1
140
10.0
141
1.0
290
     0
  0
SCALE
  5
58
102
{ACAD_REACTORS
330
47
102
}
330
47
100
AcDbScale
 70
     0
300
100:1
140
100.0
141
1.0
290
     0
  0
SCALE
  5
59
102
{ACAD_REACTORS
330
47
102
}
330
47
100
AcDbScale
 70
     0
300
1/128" = 1'-0"
140
0.0078125
141
12.0
290
     0
  0
SCALE
  5
5A
102
{ACAD_REACTORS
330
47
102
}
330
47
100
AcDbScale
 70
     0
300
1/64" = 1'-0"
140
0.015625
141
12.0
290
     0
  0
SCALE
  5
5B
102
{ACAD_REACTORS
330
47
102
}
330
47
100
AcDbScale
 70
     0
300
1/32" = 1'-0"
140
0.03125
141
12.0
290
     0
  0
SCALE
  5
5C
102
{ACAD_REACTORS
330
47
102
}
330
47
100
AcDbScale
 70
     0
300
1/16" = 1'-0"
140
0.0625
141
12.0
290
     0
  0
SCALE
  5
5D
102
{ACAD_REACTORS
330
47
102
}
330
47
100
AcDbScale
 70
     0
300
3/32" = 1'-0"
140
0.09375
141
12.0
290
     0
  0
SCALE
  5
5E
102
{ACAD_REACTORS
330
47
102
}
330
47
100
AcDbScale
 70
     0
300
1/8" = 1'-0"
140
0.125
141
12.0
290
     0
  0
SCALE
  5
5F
102
{ACAD_REACTORS
330
47
102
}
330
47
100
AcDbScale
 70
     0
300
3/16" = 1'-0"
140
0.1875
141
12.0
290
     0
  0
SCALE
  5
60
102
{ACAD_REACTORS
330
47
102
}
330
47
100
AcDbScale
 70
     0
300
1/4" = 1'-0"
140
0.25
141
12.0
290
     0
  0
SCALE
  5
61
102
{ACAD_REACTORS
330
47
102
}
330
47
100
AcDbScale
 70
     0
300
3/8" = 1'-0"
140
0.375
141
12.0
290
     0
  0
SCALE
  5
62
102
{ACAD_REACTORS
330
47
102
}
330
47
100
AcDbScale
 70
     0
300
1/2" = 1'-0"
140
0.5
141
12.0
290
     0
  0
SCALE
  5
63
102
{ACAD_REACTORS
330
47
102
}
330
47
100
AcDbScale
 70
     0
300
3/4" = 1'-0"
140
0.75
141
12.0
290
     0
  0
SCALE
  5
64
102
{ACAD_REACTORS
330
47
102
}
330
47
100
AcDbScale
 70
     0
300
1" = 1'-0"
140
1.0
141
12.0
290
     0
  0
SCALE
  5
65
102
{ACAD_REACTORS
330
47
102
}
330
47
100
AcDbScale
 70
     0
300
1-1/2" = 1'-0"
140
1.5
141
12.0
290
     0
  0
SCALE
  5
66
102
{ACAD_REACTORS
330
47
102
}
330
47
100
AcDbScale
 70
     0
300
3" = 1'-0"
140
3.0
141
12.0
290
     0
  0
SCALE
  5
67
102
{ACAD_REACTORS
330
47
102
}
330
47
100
AcDbScale
 70
     0
300
6" = 1'-0"
140
6.0
141
12.0
290
     0
  0
SCALE
  5
68
102
{ACAD_REACTORS
330
47
102
}
330
47
100
AcDbScale
 70
     0
300
1'-0" = 1'-0"
140
12.0
141
12.0
290
     0
  0
ENDSEC
  0
EOF
