  0
SECTION
  2
HEADER
  9
$ACADVER
  1
AC1009
  9
$FILLMODE
 70
0
  9
$EXTMIN
 10
-1.073418
 20
-0.027800
 30
0.000000
  9
$EXTMAX
 10
15.909000
 20
13.988000
 30
0.000000
  0
ENDSEC
  0
SECTION
  2
TABLES
  0
TABLE
  2
LTYPE
 70
1
  0
LTYPE
  2
CONTINUOUS
 70
64
  3
Solid line
 72
65
 73
0
 40
0
  0
ENDTAB
  0
TABLE
  2
LAYER
 70
255
  0
LAYER
  2
20
 70
64
 62
53
  6
CONTINUOUS
  0
ENDTAB
  0
ENDSEC
  0
SECTION
  2
BLOCKS
  0
BLOCK
  8
0
  2
RECT
 70
64
 10
0.000000
 20
0.000000
 30
0.000000
  3
RECT
  0
SOLID
  8
0
 10
-0.500000
 20
-0.500000
 30
0.000000
 11
0.500000
 21
-0.500000
 31
0.000000
 12
-0.500000
 22
0.500000
 32
0.000000
 13
0.500000
 23
0.500000
 33
0.000000
  0
ENDBLK
  8
0
  0
BLOCK
  8
0
  2
PIE
 70
64
 10
0.000000
 20
0.000000
 30
0.000000
  3
PIE
  0
CIRCLE
  8
0
 10
0.000000
 20
0.000000
 30
0.000000
 40
0.500000
  0
ENDBLK
  8
0
  0
BLOCK
  8
0
  2
OCTAGONP
 70
64
 10
0.000000
 20
0.000000
 30
0.000000
  3
OCTAGONP
  0
POLYLINE
  8
0
 66
1
 10
0.000000
 20
0.000000
 30
0.000000
 40
0.000000
 41
0.000000
 70
1
  0
VERTEX
  8
0
 10
-0.500000
 20
-0.207107
 30
0.000000
  0
VERTEX
  8
0
 10
-0.500000
 20
0.207107
 30
0.000000
  0
VERTEX
  8
0
 10
-0.207107
 20
0.500000
 30
0.000000
  0
VERTEX
  8
0
 10
0.207107
 20
0.500000
 30
0.000000
  0
VERTEX
  8
0
 10
0.500000
 20
0.207107
 30
0.000000
  0
VERTEX
  8
0
 10
0.500000
 20
-0.207107
 30
0.000000
  0
VERTEX
  8
0
 10
0.207107
 20
-0.500000
 30
0.000000
  0
VERTEX
  8
0
 10
-0.207107
 20
-0.500000
 30
0.000000
  0
SEQEND
  8
0
  0
ENDBLK
  8
0
  0
BLOCK
  8
0
  2
SQUAREP
 70
64
 10
0.000000
 20
0.000000
 30
0.000000
  3
SQUAREP
  0
SOLID
  8
0
 10
-0.500000
 20
-0.500000
 30
0.000000
 11
0.500000
 21
-0.500000
 31
0.000000
 12
-0.500000
 22
0.500000
 32
0.000000
 13
0.500000
 23
0.500000
 33
0.000000
  0
ENDBLK
  8
0
  0
BLOCK
  8
0
  2
ROUNDP
 70
64
 10
0.000000
 20
0.000000
 30
0.000000
  3
ROUNDP
  0
CIRCLE
  8
0
 10
0.000000
 20
0.000000
 30
0.000000
 40
0.500000
  0
ENDBLK
  8
0
  0
BLOCK
  8
0
  2
ANNULUSP
 70
64
 10
0.000000
 20
0.000000
 30
0.000000
  3
ANNULUSP
  0
CIRCLE
  8
0
 10
0.000000
 20
0.000000
 30
0.000000
 40
0.500000
  0
ENDBLK
  8
0
  0
BLOCK
  8
0
  2
THERMALP
 70
64
 10
0.000000
 20
0.000000
 30
0.000000
  3
THERMALP
  0
POLYLINE
  8
0
 66
1
 10
0.000000
 20
0.000000
 30
0.000000
 40
0.000000
 41
0.000000
 70
1
  0
VERTEX
  8
0
 10
-0.237868
 20
0.400000
 30
0.000000
  0
VERTEX
  8
0
 10
0.237868
 20
0.400000
 30
0.000000
 42
1.000000
  0
VERTEX
  8
0
 10
0.237868
 20
0.500000
 30
0.000000
  0
VERTEX
  8
0
 10
-0.237868
 20
0.500000
 30
0.000000
 42
1.000000
  0
SEQEND
  8
0
  0
POLYLINE
  8
0
 66
1
 10
0.000000
 20
0.000000
 30
0.000000
 40
0.000000
 41
0.000000
 70
1
  0
VERTEX
  8
0
 10
0.400000
 20
0.237868
 30
0.000000
  0
VERTEX
  8
0
 10
0.400000
 20
-0.237868
 30
0.000000
 42
1.000000
  0
VERTEX
  8
0
 10
0.500000
 20
-0.237868
 30
0.000000
  0
VERTEX
  8
0
 10
0.500000
 20
0.237868
 30
0.000000
 42
1.000000
  0
SEQEND
  8
0
  0
POLYLINE
  8
0
 66
1
 10
0.000000
 20
0.000000
 30
0.000000
 40
0.000000
 41
0.000000
 70
1
  0
VERTEX
  8
0
 10
0.237868
 20
-0.400000
 30
0.000000
  0
VERTEX
  8
0
 10
-0.237868
 20
-0.400000
 30
0.000000
 42
1.000000
  0
VERTEX
  8
0
 10
-0.237868
 20
-0.500000
 30
0.000000
  0
VERTEX
  8
0
 10
0.237868
 20
-0.500000
 30
0.000000
 42
1.000000
  0
SEQEND
  8
0
  0
POLYLINE
  8
0
 66
1
 10
0.000000
 20
0.000000
 30
0.000000
 40
0.000000
 41
0.000000
 70
1
  0
VERTEX
  8
0
 10
-0.400000
 20
-0.237868
 30
0.000000
  0
VERTEX
  8
0
 10
-0.400000
 20
0.237868
 30
0.000000
 42
1.000000
  0
VERTEX
  8
0
 10
-0.500000
 20
0.237868
 30
0.000000
  0
VERTEX
  8
0
 10
-0.500000
 20
-0.237868
 30
0.000000
 42
1.000000
  0
SEQEND
  8
0
  0
ENDBLK
  8
0
  0
BLOCK
  8
0
  2
OCTAGONV
 70
64
 10
0.000000
 20
0.000000
 30
0.000000
  3
OCTAGONV
  0
POLYLINE
  8
0
 66
1
 10
0.000000
 20
0.000000
 30
0.000000
 40
0.000000
 41
0.000000
 70
1
  0
VERTEX
  8
0
 10
-0.500000
 20
-0.207107
 30
0.000000
  0
VERTEX
  8
0
 10
-0.500000
 20
0.207107
 30
0.000000
  0
VERTEX
  8
0
 10
-0.207107
 20
0.500000
 30
0.000000
  0
VERTEX
  8
0
 10
0.207107
 20
0.500000
 30
0.000000
  0
VERTEX
  8
0
 10
0.500000
 20
0.207107
 30
0.000000
  0
VERTEX
  8
0
 10
0.500000
 20
-0.207107
 30
0.000000
  0
VERTEX
  8
0
 10
0.207107
 20
-0.500000
 30
0.000000
  0
VERTEX
  8
0
 10
-0.207107
 20
-0.500000
 30
0.000000
  0
SEQEND
  8
0
  0
ENDBLK
  8
0
  0
BLOCK
  8
0
  2
SQUAREV
 70
64
 10
0.000000
 20
0.000000
 30
0.000000
  3
SQUAREV
  0
SOLID
  8
0
 10
-0.500000
 20
-0.500000
 30
0.000000
 11
0.500000
 21
-0.500000
 31
0.000000
 12
-0.500000
 22
0.500000
 32
0.000000
 13
0.500000
 23
0.500000
 33
0.000000
  0
ENDBLK
  8
0
  0
BLOCK
  8
0
  2
ROUNDV
 70
64
 10
0.000000
 20
0.000000
 30
0.000000
  3
ROUNDV
  0
CIRCLE
  8
0
 10
0.000000
 20
0.000000
 30
0.000000
 40
0.500000
  0
ENDBLK
  8
0
  0
BLOCK
  8
0
  2
ANNULUSV
 70
64
 10
0.000000
 20
0.000000
 30
0.000000
  3
ANNULUSV
  0
CIRCLE
  8
0
 10
0.000000
 20
0.000000
 30
0.000000
 40
0.500000
  0
ENDBLK
  8
0
  0
BLOCK
  8
0
  2
THERMALV
 70
64
 10
0.000000
 20
0.000000
 30
0.000000
  3
THERMALV
  0
POLYLINE
  8
0
 66
1
 10
0.000000
 20
0.000000
 30
0.000000
 40
0.000000
 41
0.000000
 70
1
  0
VERTEX
  8
0
 10
-0.237868
 20
0.400000
 30
0.000000
  0
VERTEX
  8
0
 10
0.237868
 20
0.400000
 30
0.000000
 42
1.000000
  0
VERTEX
  8
0
 10
0.237868
 20
0.500000
 30
0.000000
  0
VERTEX
  8
0
 10
-0.237868
 20
0.500000
 30
0.000000
 42
1.000000
  0
SEQEND
  8
0
  0
POLYLINE
  8
0
 66
1
 10
0.000000
 20
0.000000
 30
0.000000
 40
0.000000
 41
0.000000
 70
1
  0
VERTEX
  8
0
 10
0.400000
 20
0.237868
 30
0.000000
  0
VERTEX
  8
0
 10
0.400000
 20
-0.237868
 30
0.000000
 42
1.000000
  0
VERTEX
  8
0
 10
0.500000
 20
-0.237868
 30
0.000000
  0
VERTEX
  8
0
 10
0.500000
 20
0.237868
 30
0.000000
 42
1.000000
  0
SEQEND
  8
0
  0
POLYLINE
  8
0
 66
1
 10
0.000000
 20
0.000000
 30
0.000000
 40
0.000000
 41
0.000000
 70
1
  0
VERTEX
  8
0
 10
0.237868
 20
-0.400000
 30
0.000000
  0
VERTEX
  8
0
 10
-0.237868
 20
-0.400000
 30
0.000000
 42
1.000000
  0
VERTEX
  8
0
 10
-0.237868
 20
-0.500000
 30
0.000000
  0
VERTEX
  8
0
 10
0.237868
 20
-0.500000
 30
0.000000
 42
1.000000
  0
SEQEND
  8
0
  0
POLYLINE
  8
0
 66
1
 10
0.000000
 20
0.000000
 30
0.000000
 40
0.000000
 41
0.000000
 70
1
  0
VERTEX
  8
0
 10
-0.400000
 20
-0.237868
 30
0.000000
  0
VERTEX
  8
0
 10
-0.400000
 20
0.237868
 30
0.000000
 42
1.000000
  0
VERTEX
  8
0
 10
-0.500000
 20
0.237868
 30
0.000000
  0
VERTEX
  8
0
 10
-0.500000
 20
-0.237868
 30
0.000000
 42
1.000000
  0
SEQEND
  8
0
  0
ENDBLK
  8
0
  0
BLOCK
  8
0
  2
LONGP100
 70
64
 10
0.000000
 20
0.000000
 30
0.000000
  3
LONGP100
  0
POLYLINE
  8
0
 66
1
 10
0.000000
 20
0.000000
 30
0.000000
 40
0.000000
 41
0.000000
 70
1
  0
VERTEX
  8
0
 10
-0.500000
 20
-0.500000
 30
0.000000
  0
VERTEX
  8
0
 10
0.500000
 20
-0.500000
 30
0.000000
 42
1.000000
  0
VERTEX
  8
0
 10
0.500000
 20
0.500000
 30
0.000000
  0
VERTEX
  8
0
 10
-0.500000
 20
0.500000
 30
0.000000
 42
1.000000
  0
SEQEND
  8
0
  0
ENDBLK
  8
0
  0
ENDSEC
  0
SECTION
  2
ENTITIES
  0
POLYLINE
  8
20
 66
1
 10
0.000000
 20
0.000000
 30
0.000000
 40
0.000000
 41
0.000000
 70
1
  0
VERTEX
  8
20
 10
7.479865
 20
11.100492
 30
0.000000
  0
VERTEX
  8
20
 10
5.969397
 20
11.100492
 30
0.000000
 42
1.000000
  0
VERTEX
  8
20
 10
5.969397
 20
11.099508
 30
0.000000
  0
VERTEX
  8
20
 10
7.479865
 20
11.099508
 30
0.000000
 42
1.000000
  0
SEQEND
  8
0
  0
POLYLINE
  8
20
 66
1
 10
0.000000
 20
0.000000
 30
0.000000
 40
0.000000
 41
0.000000
 70
1
  0
VERTEX
  8
20
 10
5.968905
 20
11.210000
 30
0.000000
  0
VERTEX
  8
20
 10
5.968905
 20
11.100000
 30
0.000000
 42
1.000000
  0
VERTEX
  8
20
 10
5.969889
 20
11.100000
 30
0.000000
  0
VERTEX
  8
20
 10
5.969889
 20
11.210000
 30
0.000000
 42
1.000000
  0
SEQEND
  8
0
  0
LINE
  8
20
 10
5.969397
 20
11.210000
 30
0.000000
 11
0.000000
 21
11.210000
 31
0.000000
  0
LINE
  8
20
 10
0.000000
 20
11.210000
 30
0.000000
 11
0.000000
 21
10.440000
 31
0.000000
  0
LINE
  8
20
 10
0.000000
 20
0.780000
 30
0.000000
 11
0.000000
 21
0.000000
 31
0.000000
  0
LINE
  8
20
 10
0.000000
 20
0.000000
 30
0.000000
 11
11.210000
 21
0.000000
 31
0.000000
  0
LINE
  8
20
 10
11.210000
 20
0.000000
 30
0.000000
 11
11.210000
 21
11.210000
 31
0.000000
  0
LINE
  8
20
 10
11.210000
 20
11.210000
 30
0.000000
 11
8.840000
 21
11.210000
 31
0.000000
  0
LINE
  8
20
 10
8.847519
 20
11.210000
 30
0.000000
 11
7.479865
 21
11.212234
 31
0.000000
  0
POLYLINE
  8
20
 66
1
 10
0.000000
 20
0.000000
 30
0.000000
 40
0.000000
 41
0.000000
 70
1
  0
VERTEX
  8
20
 10
7.479373
 20
11.212234
 30
0.000000
  0
VERTEX
  8
20
 10
7.479373
 20
11.100000
 30
0.000000
 42
1.000000
  0
VERTEX
  8
20
 10
7.480357
 20
11.100000
 30
0.000000
  0
VERTEX
  8
20
 10
7.480357
 20
11.212234
 30
0.000000
 42
1.000000
  0
SEQEND
  8
0
  0
POLYLINE
  8
20
 66
1
 10
0.000000
 20
0.000000
 30
0.000000
 40
0.000000
 41
0.000000
 70
1
  0
VERTEX
  8
20
 10
3.608784
 20
11.012726
 30
0.000000
  0
VERTEX
  8
20
 10
3.258784
 20
11.012726
 30
0.000000
 42
1.000000
  0
VERTEX
  8
20
 10
3.258784
 20
11.011742
 30
0.000000
  0
VERTEX
  8
20
 10
3.608784
 20
11.011742
 30
0.000000
 42
1.000000
  0
SEQEND
  8
0
  0
POLYLINE
  8
20
 66
1
 10
0.000000
 20
0.000000
 30
0.000000
 40
0.000000
 41
0.000000
 70
1
  0
VERTEX
  8
20
 10
3.609276
 20
10.762234
 30
0.000000
  0
VERTEX
  8
20
 10
3.609276
 20
11.012234
 30
0.000000
 42
1.000000
  0
VERTEX
  8
20
 10
3.608292
 20
11.012234
 30
0.000000
  0
VERTEX
  8
20
 10
3.608292
 20
10.762234
 30
0.000000
 42
1.000000
  0
SEQEND
  8
0
  0
POLYLINE
  8
20
 66
1
 10
0.000000
 20
0.000000
 30
0.000000
 40
0.000000
 41
0.000000
 70
1
  0
VERTEX
  8
20
 10
3.258784
 20
10.761742
 30
0.000000
  0
VERTEX
  8
20
 10
3.608784
 20
10.761742
 30
0.000000
 42
1.000000
  0
VERTEX
  8
20
 10
3.608784
 20
10.762726
 30
0.000000
  0
VERTEX
  8
20
 10
3.258784
 20
10.762726
 30
0.000000
 42
1.000000
  0
SEQEND
  8
0
  0
POLYLINE
  8
20
 66
1
 10
0.000000
 20
0.000000
 30
0.000000
 40
0.000000
 41
0.000000
 70
1
  0
VERTEX
  8
20
 10
3.258292
 20
11.012234
 30
0.000000
  0
VERTEX
  8
20
 10
3.258292
 20
10.762234
 30
0.000000
 42
1.000000
  0
VERTEX
  8
20
 10
3.259276
 20
10.762234
 30
0.000000
  0
VERTEX
  8
20
 10
3.259276
 20
11.012234
 30
0.000000
 42
1.000000
  0
SEQEND
  8
0
  0
POLYLINE
  8
20
 66
1
 10
0.000000
 20
0.000000
 30
0.000000
 40
0.000000
 41
0.000000
 70
1
  0
VERTEX
  8
20
 10
3.608784
 20
9.462726
 30
0.000000
  0
VERTEX
  8
20
 10
3.258784
 20
9.462726
 30
0.000000
 42
1.000000
  0
VERTEX
  8
20
 10
3.258784
 20
9.461742
 30
0.000000
  0
VERTEX
  8
20
 10
3.608784
 20
9.461742
 30
0.000000
 42
1.000000
  0
SEQEND
  8
0
  0
POLYLINE
  8
20
 66
1
 10
0.000000
 20
0.000000
 30
0.000000
 40
0.000000
 41
0.000000
 70
1
  0
VERTEX
  8
20
 10
3.609276
 20
9.212234
 30
0.000000
  0
VERTEX
  8
20
 10
3.609276
 20
9.462234
 30
0.000000
 42
1.000000
  0
VERTEX
  8
20
 10
3.608292
 20
9.462234
 30
0.000000
  0
VERTEX
  8
20
 10
3.608292
 20
9.212234
 30
0.000000
 42
1.000000
  0
SEQEND
  8
0
  0
POLYLINE
  8
20
 66
1
 10
0.000000
 20
0.000000
 30
0.000000
 40
0.000000
 41
0.000000
 70
1
  0
VERTEX
  8
20
 10
3.258784
 20
9.211742
 30
0.000000
  0
VERTEX
  8
20
 10
3.608784
 20
9.211742
 30
0.000000
 42
1.000000
  0
VERTEX
  8
20
 10
3.608784
 20
9.212726
 30
0.000000
  0
VERTEX
  8
20
 10
3.258784
 20
9.212726
 30
0.000000
 42
1.000000
  0
SEQEND
  8
0
  0
POLYLINE
  8
20
 66
1
 10
0.000000
 20
0.000000
 30
0.000000
 40
0.000000
 41
0.000000
 70
1
  0
VERTEX
  8
20
 10
3.258292
 20
9.462234
 30
0.000000
  0
VERTEX
  8
20
 10
3.258292
 20
9.212234
 30
0.000000
 42
1.000000
  0
VERTEX
  8
20
 10
3.259276
 20
9.212234
 30
0.000000
  0
VERTEX
  8
20
 10
3.259276
 20
9.462234
 30
0.000000
 42
1.000000
  0
SEQEND
  8
0
  0
POLYLINE
  8
20
 66
1
 10
0.000000
 20
0.000000
 30
0.000000
 40
0.000000
 41
0.000000
 70
1
  0
VERTEX
  8
20
 10
7.958784
 20
9.462726
 30
0.000000
  0
VERTEX
  8
20
 10
7.608784
 20
9.462726
 30
0.000000
 42
1.000000
  0
VERTEX
  8
20
 10
7.608784
 20
9.461742
 30
0.000000
  0
VERTEX
  8
20
 10
7.958784
 20
9.461742
 30
0.000000
 42
1.000000
  0
SEQEND
  8
0
  0
POLYLINE
  8
20
 66
1
 10
0.000000
 20
0.000000
 30
0.000000
 40
0.000000
 41
0.000000
 70
1
  0
VERTEX
  8
20
 10
7.959276
 20
9.212234
 30
0.000000
  0
VERTEX
  8
20
 10
7.959276
 20
9.462234
 30
0.000000
 42
1.000000
  0
VERTEX
  8
20
 10
7.958292
 20
9.462234
 30
0.000000
  0
VERTEX
  8
20
 10
7.958292
 20
9.212234
 30
0.000000
 42
1.000000
  0
SEQEND
  8
0
  0
POLYLINE
  8
20
 66
1
 10
0.000000
 20
0.000000
 30
0.000000
 40
0.000000
 41
0.000000
 70
1
  0
VERTEX
  8
20
 10
7.608784
 20
9.211742
 30
0.000000
  0
VERTEX
  8
20
 10
7.958784
 20
9.211742
 30
0.000000
 42
1.000000
  0
VERTEX
  8
20
 10
7.958784
 20
9.212726
 30
0.000000
  0
VERTEX
  8
20
 10
7.608784
 20
9.212726
 30
0.000000
 42
1.000000
  0
SEQEND
  8
0
  0
POLYLINE
  8
20
 66
1
 10
0.000000
 20
0.000000
 30
0.000000
 40
0.000000
 41
0.000000
 70
1
  0
VERTEX
  8
20
 10
7.608292
 20
9.462234
 30
0.000000
  0
VERTEX
  8
20
 10
7.608292
 20
9.212234
 30
0.000000
 42
1.000000
  0
VERTEX
  8
20
 10
7.609276
 20
9.212234
 30
0.000000
  0
VERTEX
  8
20
 10
7.609276
 20
9.462234
 30
0.000000
 42
1.000000
  0
SEQEND
  8
0
  0
POLYLINE
  8
20
 66
1
 10
0.000000
 20
0.000000
 30
0.000000
 40
0.000000
 41
0.000000
 70
1
  0
VERTEX
  8
20
 10
7.608784
 20
10.761742
 30
0.000000
  0
VERTEX
  8
20
 10
7.958784
 20
10.761742
 30
0.000000
 42
1.000000
  0
VERTEX
  8
20
 10
7.958784
 20
10.762726
 30
0.000000
  0
VERTEX
  8
20
 10
7.608784
 20
10.762726
 30
0.000000
 42
1.000000
  0
SEQEND
  8
0
  0
POLYLINE
  8
20
 66
1
 10
0.000000
 20
0.000000
 30
0.000000
 40
0.000000
 41
0.000000
 70
1
  0
VERTEX
  8
20
 10
7.608292
 20
11.012234
 30
0.000000
  0
VERTEX
  8
20
 10
7.608292
 20
10.762234
 30
0.000000
 42
1.000000
  0
VERTEX
  8
20
 10
7.609276
 20
10.762234
 30
0.000000
  0
VERTEX
  8
20
 10
7.609276
 20
11.012234
 30
0.000000
 42
1.000000
  0
SEQEND
  8
0
  0
POLYLINE
  8
20
 66
1
 10
0.000000
 20
0.000000
 30
0.000000
 40
0.000000
 41
0.000000
 70
1
  0
VERTEX
  8
20
 10
7.608784
 20
11.011742
 30
0.000000
  0
VERTEX
  8
20
 10
7.958784
 20
11.011742
 30
0.000000
 42
1.000000
  0
VERTEX
  8
20
 10
7.958784
 20
11.012726
 30
0.000000
  0
VERTEX
  8
20
 10
7.608784
 20
11.012726
 30
0.000000
 42
1.000000
  0
SEQEND
  8
0
  0
POLYLINE
  8
20
 66
1
 10
0.000000
 20
0.000000
 30
0.000000
 40
0.000000
 41
0.000000
 70
1
  0
VERTEX
  8
20
 10
7.958292
 20
11.012234
 30
0.000000
  0
VERTEX
  8
20
 10
7.958292
 20
10.762234
 30
0.000000
 42
1.000000
  0
VERTEX
  8
20
 10
7.959276
 20
10.762234
 30
0.000000
  0
VERTEX
  8
20
 10
7.959276
 20
11.012234
 30
0.000000
 42
1.000000
  0
SEQEND
  8
0
  0
POLYLINE
  8
20
 66
1
 10
0.000000
 20
0.000000
 30
0.000000
 40
0.000000
 41
0.000000
 70
1
  0
VERTEX
  8
20
 10
7.958292
 20
0.450026
 30
0.000000
  0
VERTEX
  8
20
 10
7.958292
 20
0.200026
 30
0.000000
 42
1.000000
  0
VERTEX
  8
20
 10
7.959276
 20
0.200026
 30
0.000000
  0
VERTEX
  8
20
 10
7.959276
 20
0.450026
 30
0.000000
 42
1.000000
  0
SEQEND
  8
0
  0
POLYLINE
  8
20
 66
1
 10
0.000000
 20
0.000000
 30
0.000000
 40
0.000000
 41
0.000000
 70
1
  0
VERTEX
  8
20
 10
7.958784
 20
0.200518
 30
0.000000
  0
VERTEX
  8
20
 10
7.608784
 20
0.200518
 30
0.000000
 42
1.000000
  0
VERTEX
  8
20
 10
7.608784
 20
0.199533
 30
0.000000
  0
VERTEX
  8
20
 10
7.958784
 20
0.199533
 30
0.000000
 42
1.000000
  0
SEQEND
  8
0
  0
POLYLINE
  8
20
 66
1
 10
0.000000
 20
0.000000
 30
0.000000
 40
0.000000
 41
0.000000
 70
1
  0
VERTEX
  8
20
 10
7.609276
 20
0.200026
 30
0.000000
  0
VERTEX
  8
20
 10
7.609276
 20
0.450026
 30
0.000000
 42
1.000000
  0
VERTEX
  8
20
 10
7.608292
 20
0.450026
 30
0.000000
  0
VERTEX
  8
20
 10
7.608292
 20
0.200026
 30
0.000000
 42
1.000000
  0
SEQEND
  8
0
  0
POLYLINE
  8
20
 66
1
 10
0.000000
 20
0.000000
 30
0.000000
 40
0.000000
 41
0.000000
 70
1
  0
VERTEX
  8
20
 10
7.608784
 20
0.449533
 30
0.000000
  0
VERTEX
  8
20
 10
7.958784
 20
0.449533
 30
0.000000
 42
1.000000
  0
VERTEX
  8
20
 10
7.958784
 20
0.450518
 30
0.000000
  0
VERTEX
  8
20
 10
7.608784
 20
0.450518
 30
0.000000
 42
1.000000
  0
SEQEND
  8
0
  0
POLYLINE
  8
20
 66
1
 10
0.000000
 20
0.000000
 30
0.000000
 40
0.000000
 41
0.000000
 70
1
  0
VERTEX
  8
20
 10
7.958292
 20
2.000026
 30
0.000000
  0
VERTEX
  8
20
 10
7.958292
 20
1.750026
 30
0.000000
 42
1.000000
  0
VERTEX
  8
20
 10
7.959276
 20
1.750026
 30
0.000000
  0
VERTEX
  8
20
 10
7.959276
 20
2.000026
 30
0.000000
 42
1.000000
  0
SEQEND
  8
0
  0
POLYLINE
  8
20
 66
1
 10
0.000000
 20
0.000000
 30
0.000000
 40
0.000000
 41
0.000000
 70
1
  0
VERTEX
  8
20
 10
7.958784
 20
1.750518
 30
0.000000
  0
VERTEX
  8
20
 10
7.608784
 20
1.750518
 30
0.000000
 42
1.000000
  0
VERTEX
  8
20
 10
7.608784
 20
1.749533
 30
0.000000
  0
VERTEX
  8
20
 10
7.958784
 20
1.749533
 30
0.000000
 42
1.000000
  0
SEQEND
  8
0
  0
POLYLINE
  8
20
 66
1
 10
0.000000
 20
0.000000
 30
0.000000
 40
0.000000
 41
0.000000
 70
1
  0
VERTEX
  8
20
 10
7.609276
 20
1.750026
 30
0.000000
  0
VERTEX
  8
20
 10
7.609276
 20
2.000026
 30
0.000000
 42
1.000000
  0
VERTEX
  8
20
 10
7.608292
 20
2.000026
 30
0.000000
  0
VERTEX
  8
20
 10
7.608292
 20
1.750026
 30
0.000000
 42
1.000000
  0
SEQEND
  8
0
  0
POLYLINE
  8
20
 66
1
 10
0.000000
 20
0.000000
 30
0.000000
 40
0.000000
 41
0.000000
 70
1
  0
VERTEX
  8
20
 10
7.608784
 20
1.999533
 30
0.000000
  0
VERTEX
  8
20
 10
7.958784
 20
1.999533
 30
0.000000
 42
1.000000
  0
VERTEX
  8
20
 10
7.958784
 20
2.000518
 30
0.000000
  0
VERTEX
  8
20
 10
7.608784
 20
2.000518
 30
0.000000
 42
1.000000
  0
SEQEND
  8
0
  0
POLYLINE
  8
20
 66
1
 10
0.000000
 20
0.000000
 30
0.000000
 40
0.000000
 41
0.000000
 70
1
  0
VERTEX
  8
20
 10
3.608292
 20
0.450026
 30
0.000000
  0
VERTEX
  8
20
 10
3.608292
 20
0.200026
 30
0.000000
 42
1.000000
  0
VERTEX
  8
20
 10
3.609276
 20
0.200026
 30
0.000000
  0
VERTEX
  8
20
 10
3.609276
 20
0.450026
 30
0.000000
 42
1.000000
  0
SEQEND
  8
0
  0
POLYLINE
  8
20
 66
1
 10
0.000000
 20
0.000000
 30
0.000000
 40
0.000000
 41
0.000000
 70
1
  0
VERTEX
  8
20
 10
3.608784
 20
0.200518
 30
0.000000
  0
VERTEX
  8
20
 10
3.258784
 20
0.200518
 30
0.000000
 42
1.000000
  0
VERTEX
  8
20
 10
3.258784
 20
0.199533
 30
0.000000
  0
VERTEX
  8
20
 10
3.608784
 20
0.199533
 30
0.000000
 42
1.000000
  0
SEQEND
  8
0
  0
POLYLINE
  8
20
 66
1
 10
0.000000
 20
0.000000
 30
0.000000
 40
0.000000
 41
0.000000
 70
1
  0
VERTEX
  8
20
 10
3.259276
 20
0.200026
 30
0.000000
  0
VERTEX
  8
20
 10
3.259276
 20
0.450026
 30
0.000000
 42
1.000000
  0
VERTEX
  8
20
 10
3.258292
 20
0.450026
 30
0.000000
  0
VERTEX
  8
20
 10
3.258292
 20
0.200026
 30
0.000000
 42
1.000000
  0
SEQEND
  8
0
  0
POLYLINE
  8
20
 66
1
 10
0.000000
 20
0.000000
 30
0.000000
 40
0.000000
 41
0.000000
 70
1
  0
VERTEX
  8
20
 10
3.258784
 20
0.449533
 30
0.000000
  0
VERTEX
  8
20
 10
3.608784
 20
0.449533
 30
0.000000
 42
1.000000
  0
VERTEX
  8
20
 10
3.608784
 20
0.450518
 30
0.000000
  0
VERTEX
  8
20
 10
3.258784
 20
0.450518
 30
0.000000
 42
1.000000
  0
SEQEND
  8
0
  0
POLYLINE
  8
20
 66
1
 10
0.000000
 20
0.000000
 30
0.000000
 40
0.000000
 41
0.000000
 70
1
  0
VERTEX
  8
20
 10
3.608292
 20
2.000026
 30
0.000000
  0
VERTEX
  8
20
 10
3.608292
 20
1.750026
 30
0.000000
 42
1.000000
  0
VERTEX
  8
20
 10
3.609276
 20
1.750026
 30
0.000000
  0
VERTEX
  8
20
 10
3.609276
 20
2.000026
 30
0.000000
 42
1.000000
  0
SEQEND
  8
0
  0
POLYLINE
  8
20
 66
1
 10
0.000000
 20
0.000000
 30
0.000000
 40
0.000000
 41
0.000000
 70
1
  0
VERTEX
  8
20
 10
3.608784
 20
1.750518
 30
0.000000
  0
VERTEX
  8
20
 10
3.258784
 20
1.750518
 30
0.000000
 42
1.000000
  0
VERTEX
  8
20
 10
3.258784
 20
1.749533
 30
0.000000
  0
VERTEX
  8
20
 10
3.608784
 20
1.749533
 30
0.000000
 42
1.000000
  0
SEQEND
  8
0
  0
POLYLINE
  8
20
 66
1
 10
0.000000
 20
0.000000
 30
0.000000
 40
0.000000
 41
0.000000
 70
1
  0
VERTEX
  8
20
 10
3.259276
 20
1.750026
 30
0.000000
  0
VERTEX
  8
20
 10
3.259276
 20
2.000026
 30
0.000000
 42
1.000000
  0
VERTEX
  8
20
 10
3.258292
 20
2.000026
 30
0.000000
  0
VERTEX
  8
20
 10
3.258292
 20
1.750026
 30
0.000000
 42
1.000000
  0
SEQEND
  8
0
  0
POLYLINE
  8
20
 66
1
 10
0.000000
 20
0.000000
 30
0.000000
 40
0.000000
 41
0.000000
 70
1
  0
VERTEX
  8
20
 10
3.258784
 20
1.999533
 30
0.000000
  0
VERTEX
  8
20
 10
3.608784
 20
1.999533
 30
0.000000
 42
1.000000
  0
VERTEX
  8
20
 10
3.608784
 20
2.000518
 30
0.000000
  0
VERTEX
  8
20
 10
3.258784
 20
2.000518
 30
0.000000
 42
1.000000
  0
SEQEND
  8
0
  0
LINE
  8
20
 10
0.000000
 20
10.440000
 30
0.000000
 11
0.380000
 21
10.060000
 31
0.000000
  0
LINE
  8
20
 10
0.380000
 20
10.060000
 30
0.000000
 11
0.380000
 21
1.160000
 31
0.000000
  0
LINE
  8
20
 10
0.380000
 20
1.160000
 30
0.000000
 11
0.000000
 21
0.780000
 31
0.000000
  0
LINE
  8
20
 10
9.330000
 20
9.970000
 30
0.000000
 11
9.330000
 21
9.170000
 31
0.000000
  0
LINE
  8
20
 10
9.330000
 20
9.170000
 30
0.000000
 11
10.030000
 21
9.170000
 31
0.000000
  0
LINE
  8
20
 10
10.030000
 20
9.170000
 30
0.000000
 11
10.030000
 21
9.740000
 31
0.000000
  0
LINE
  8
20
 10
10.670000
 20
9.970000
 30
0.000000
 11
9.330000
 21
9.970000
 31
0.000000
  0
LINE
  8
20
 10
10.030000
 20
9.740000
 30
0.000000
 11
10.670000
 21
9.740000
 31
0.000000
  0
LINE
  8
20
 10
10.670000
 20
9.740000
 30
0.000000
 11
10.670000
 21
9.970000
 31
0.000000
  0
CIRCLE
  8
20
 10
10.814770
 20
0.476546
 30
0.000000
 40
0.349502
  0
CIRCLE
  8
20
 10
10.814770
 20
0.476546
 30
0.000000
 40
0.350487
  0
CIRCLE
  8
20
 10
0.550131
 20
0.476546
 30
0.000000
 40
0.349502
  0
CIRCLE
  8
20
 10
0.550131
 20
0.476546
 30
0.000000
 40
0.350487
  0
CIRCLE
  8
20
 10
4.714480
 20
9.279379
 30
0.000000
 40
0.046728
  0
CIRCLE
  8
20
 10
4.714480
 20
9.279379
 30
0.000000
 40
0.047713
  0
CIRCLE
  8
20
 10
3.769981
 20
10.223789
 30
0.000000
 40
0.046728
  0
CIRCLE
  8
20
 10
3.769981
 20
10.223789
 30
0.000000
 40
0.047713
  0
CIRCLE
  8
20
 10
2.312910
 20
2.674450
 30
0.000000
 40
0.046728
  0
CIRCLE
  8
20
 10
2.312910
 20
2.674450
 30
0.000000
 40
0.047713
  0
CIRCLE
  8
20
 10
1.368500
 20
1.729951
 30
0.000000
 40
0.046728
  0
CIRCLE
  8
20
 10
1.368500
 20
1.729951
 30
0.000000
 40
0.047713
  0
CIRCLE
  8
20
 10
1.880000
 20
6.710000
 30
0.000000
 40
0.499508
  0
CIRCLE
  8
20
 10
1.880000
 20
6.710000
 30
0.000000
 40
0.500492
  0
CIRCLE
  8
20
 10
1.880055
 20
2.210026
 30
0.000000
 40
0.499508
  0
CIRCLE
  8
20
 10
1.880055
 20
2.210026
 30
0.000000
 40
0.500492
  0
CIRCLE
  8
20
 10
10.814770
 20
10.735713
 30
0.000000
 40
0.349502
  0
CIRCLE
  8
20
 10
10.814770
 20
10.735713
 30
0.000000
 40
0.350487
  0
CIRCLE
  8
20
 10
6.613784
 20
1.020026
 30
0.000000
 40
0.749508
  0
CIRCLE
  8
20
 10
6.613784
 20
1.020026
 30
0.000000
 40
0.750492
  0
CIRCLE
  8
20
 10
4.250055
 20
9.712234
 30
0.000000
 40
0.499508
  0
CIRCLE
  8
20
 10
4.250055
 20
9.712234
 30
0.000000
 40
0.500492
  0
CIRCLE
  8
20
 10
0.550131
 20
10.735713
 30
0.000000
 40
0.349502
  0
CIRCLE
  8
20
 10
0.550131
 20
10.735713
 30
0.000000
 40
0.350487
  0
CIRCLE
  8
20
 10
4.505000
 20
2.263000
 30
0.000000
 40
0.062500
  0
CIRCLE
  8
20
 10
6.705000
 20
2.263000
 30
0.000000
 40
0.062500
  0
CIRCLE
  8
20
 10
8.144000
 20
3.406000
 30
0.000000
 40
0.062500
  0
CIRCLE
  8
20
 10
8.144000
 20
5.606000
 30
0.000000
 40
0.062500
  0
CIRCLE
  8
20
 10
8.144000
 20
7.806000
 30
0.000000
 40
0.062500
  0
CIRCLE
  8
20
 10
6.705000
 20
8.948000
 30
0.000000
 40
0.062500
  0
CIRCLE
  8
20
 10
4.505000
 20
8.948000
 30
0.000000
 40
0.062500
  0
CIRCLE
  8
20
 10
3.066000
 20
7.806000
 30
0.000000
 40
0.062500
  0
CIRCLE
  8
20
 10
3.066000
 20
5.606000
 30
0.000000
 40
0.062500
  0
CIRCLE
  8
20
 10
3.066000
 20
3.406000
 30
0.000000
 40
0.062500
  0
CIRCLE
  8
20
 10
5.605000
 20
5.605000
 30
0.000000
 40
0.280000
  0
CIRCLE
  8
20
 10
9.623000
 20
1.305000
 30
0.000000
 40
0.100000
  0
CIRCLE
  8
20
 10
10.122700
 20
1.713400
 30
0.000000
 40
0.055000
  0
CIRCLE
  8
20
 10
6.534600
 20
11.081700
 30
0.000000
 40
0.062992
  0
CIRCLE
  8
20
 10
6.084600
 20
11.081700
 30
0.000000
 40
0.062992
  0
CIRCLE
  8
20
 10
7.364600
 20
11.081700
 30
0.000000
 40
0.062992
  0
CIRCLE
  8
20
 10
6.914600
 20
11.081700
 30
0.000000
 40
0.062992
  0
ENDSEC
  0
EOF
