  0
SECTION
  2
HEADER
  9
$ACADVER
  1
AC1015
  9
$ACADMAINTVER
 70
     6
  9
$DWGCODEPAGE
  3
ANSI_1252
  9
$INSBASE
 10
0.0
 20
0.0
 30
0.0
  9
$EXTMIN
 10
-0.8833384474
 20
-0.25
 30
0.0
  9
$EXTMAX
 10
0.0
 20
8.124015748
 30
0.0
  9
$LIMMIN
 10
0.0
 20
0.0
  9
$LIMMAX
 10
12.0
 20
9.0
  9
$ORTHOMODE
 70
     0
  9
$REGENMODE
 70
     1
  9
$FILLMODE
 70
     1
  9
$QTEXTMODE
 70
     0
  9
$MIRRTEXT
 70
     1
  9
$LTSCALE
 40
1.0
  9
$ATTMODE
 70
     1
  9
$TEXTSIZE
 40
0.1377952756
  9
$TRACEWID
 40
0.05
  9
$TEXTSTYLE
  7
Standard
  9
$CLAYER
  8
0
  9
$CELTYPE
  6
ByLayer
  9
$CECOLOR
 62
   256
  9
$CELTSCALE
 40
1.0
  9
$DISPSILH
 70
     0
  9
$DIMSCALE
 40
1.0
  9
$DIMASZ
 40
0.13
  9
$DIMEXO
 40
0.0393700787
  9
$DIMDLI
 40
0.38
  9
$DIMRND
 40
0.0
  9
$DIMDLE
 40
0.0
  9
$DIMEXE
 40
0.0393700787
  9
$DIMTP
 40
0.0
  9
$DIMTM
 40
0.0
  9
$DIMTXT
 40
0.1377952756
  9
$DIMCEN
 40
0.09
  9
$DIMTSZ
 40
0.0
  9
$DIMTOL
 70
     0
  9
$DIMLIM
 70
     0
  9
$DIMTIH
 70
     1
  9
$DIMTOH
 70
     1
  9
$DIMSE1
 70
     0
  9
$DIMSE2
 70
     0
  9
$DIMTAD
 70
     1
  9
$DIMZIN
 70
     1
  9
$DIMBLK
  1

  9
$DIMASO
 70
     1
  9
$DIMSHO
 70
     1
  9
$DIMPOST
  1

  9
$DIMAPOST
  1

  9
$DIMALT
 70
     0
  9
$DIMALTD
 70
     2
  9
$DIMALTF
 40
25.4
  9
$DIMLFAC
 40
1.0
  9
$DIMTOFL
 70
     0
  9
$DIMTVP
 40
0.0
  9
$DIMTIX
 70
     0
  9
$DIMSOXD
 70
     0
  9
$DIMSAH
 70
     0
  9
$DIMBLK1
  1

  9
$DIMBLK2
  1

  9
$DIMSTYLE
  2
Standard
  9
$DIMCLRD
 70
     0
  9
$DIMCLRE
 70
     0
  9
$DIMCLRT
 70
     0
  9
$DIMTFAC
 40
1.0
  9
$DIMGAP
 40
0.06
  9
$DIMJUST
 70
     0
  9
$DIMSD1
 70
     0
  9
$DIMSD2
 70
     0
  9
$DIMTOLJ
 70
     1
  9
$DIMTZIN
 70
     1
  9
$DIMALTZ
 70
     0
  9
$DIMALTTZ
 70
     0
  9
$DIMUPT
 70
     0
  9
$DIMDEC
 70
     2
  9
$DIMTDEC
 70
     2
  9
$DIMALTU
 70
     2
  9
$DIMALTTD
 70
     2
  9
$DIMTXSTY
  7
Standard
  9
$DIMAUNIT
 70
     0
  9
$DIMADEC
 70
     2
  9
$DIMALTRND
 40
0.0
  9
$DIMAZIN
 70
     0
  9
$DIMDSEP
 70
    46
  9
$DIMATFIT
 70
     3
  9
$DIMFRAC
 70
     0
  9
$DIMLDRBLK
  1

  9
$DIMLUNIT
 70
     2
  9
$DIMLWD
 70
    -2
  9
$DIMLWE
 70
    -2
  9
$DIMTMOVE
 70
     0
  9
$LUNITS
 70
     2
  9
$LUPREC
 70
     8
  9
$SKETCHINC
 40
0.1
  9
$FILLETRAD
 40
0.5
  9
$AUNITS
 70
     0
  9
$AUPREC
 70
     2
  9
$MENU
  1
.
  9
$ELEVATION
 40
0.0
  9
$PELEVATION
 40
0.0
  9
$THICKNESS
 40
0.0
  9
$LIMCHECK
 70
     0
  9
$CHAMFERA
 40
0.0
  9
$CHAMFERB
 40
0.0
  9
$CHAMFERC
 40
0.0
  9
$CHAMFERD
 40
0.0
  9
$SKPOLY
 70
     0
  9
$TDCREATE
 40
2458324.603745139
  9
$TDUCREATE
 40
2458324.770411806
  9
$TDUPDATE
 40
2458324.603773657
  9
$TDUUPDATE
 40
2458324.770440324
  9
$TDINDWG
 40
0.0000000116
  9
$TDUSRTIMER
 40
0.0000000116
  9
$USRTIMER
 70
     1
  9
$ANGBASE
 50
0.0
  9
$ANGDIR
 70
     0
  9
$PDMODE
 70
     0
  9
$PDSIZE
 40
-1.0
  9
$PLINEWID
 40
0.0
  9
$SPLFRAME
 70
     0
  9
$SPLINETYPE
 70
     6
  9
$SPLINESEGS
 70
     8
  9
$HANDSEED
  5
203
  9
$SURFTAB1
 70
     6
  9
$SURFTAB2
 70
     6
  9
$SURFTYPE
 70
     6
  9
$SURFU
 70
     6
  9
$SURFV
 70
     6
  9
$UCSBASE
  2

  9
$UCSNAME
  2

  9
$UCSORG
 10
0.0
 20
0.0
 30
0.0
  9
$UCSXDIR
 10
1.0
 20
0.0
 30
0.0
  9
$UCSYDIR
 10
0.0
 20
1.0
 30
0.0
  9
$UCSORTHOREF
  2

  9
$UCSORTHOVIEW
 70
     0
  9
$UCSORGTOP
 10
0.0
 20
0.0
 30
0.0
  9
$UCSORGBOTTOM
 10
0.0
 20
0.0
 30
0.0
  9
$UCSORGLEFT
 10
0.0
 20
0.0
 30
0.0
  9
$UCSORGRIGHT
 10
0.0
 20
0.0
 30
0.0
  9
$UCSORGFRONT
 10
0.0
 20
0.0
 30
0.0
  9
$UCSORGBACK
 10
0.0
 20
0.0
 30
0.0
  9
$PUCSBASE
  2

  9
$PUCSNAME
  2

  9
$PUCSORG
 10
0.0
 20
0.0
 30
0.0
  9
$PUCSXDIR
 10
1.0
 20
0.0
 30
0.0
  9
$PUCSYDIR
 10
0.0
 20
1.0
 30
0.0
  9
$PUCSORTHOREF
  2

  9
$PUCSORTHOVIEW
 70
     0
  9
$PUCSORGTOP
 10
0.0
 20
0.0
 30
0.0
  9
$PUCSORGBOTTOM
 10
0.0
 20
0.0
 30
0.0
  9
$PUCSORGLEFT
 10
0.0
 20
0.0
 30
0.0
  9
$PUCSORGRIGHT
 10
0.0
 20
0.0
 30
0.0
  9
$PUCSORGFRONT
 10
0.0
 20
0.0
 30
0.0
  9
$PUCSORGBACK
 10
0.0
 20
0.0
 30
0.0
  9
$USERI1
 70
     0
  9
$USERI2
 70
     0
  9
$USERI3
 70
     0
  9
$USERI4
 70
     0
  9
$USERI5
 70
     0
  9
$USERR1
 40
0.0
  9
$USERR2
 40
0.0
  9
$USERR3
 40
0.0
  9
$USERR4
 40
0.0
  9
$USERR5
 40
0.0
  9
$WORLDVIEW
 70
     1
  9
$SHADEDGE
 70
     3
  9
$SHADEDIF
 70
    70
  9
$TILEMODE
 70
     1
  9
$MAXACTVP
 70
    64
  9
$PINSBASE
 10
0.0
 20
0.0
 30
0.0
  9
$PLIMCHECK
 70
     0
  9
$PEXTMIN
 10
1.0000000000E+20
 20
1.0000000000E+20
 30
1.0000000000E+20
  9
$PEXTMAX
 10
-1.0000000000E+20
 20
-1.0000000000E+20
 30
-1.0000000000E+20
  9
$PLIMMIN
 10
0.0
 20
0.0
  9
$PLIMMAX
 10
12.0
 20
9.0
  9
$UNITMODE
 70
     0
  9
$VISRETAIN
 70
     1
  9
$PLINEGEN
 70
     0
  9
$PSLTSCALE
 70
     1
  9
$TREEDEPTH
 70
  3020
  9
$CMLSTYLE
  2
Standard
  9
$CMLJUST
 70
     0
  9
$CMLSCALE
 40
1.0
  9
$PROXYGRAPHICS
 70
     1
  9
$MEASUREMENT
 70
     0
  9
$CELWEIGHT
370
    -1
  9
$ENDCAPS
280
     0
  9
$JOINSTYLE
280
     0
  9
$LWDISPLAY
290
     1
  9
$INSUNITS
 70
     1
  9
$HYPERLINKBASE
  1

  9
$STYLESHEET
  1

  9
$XEDIT
290
     1
  9
$CEPSNTYPE
380
     0
  9
$PSTYLEMODE
290
     1
  9
$FINGERPRINTGUID
  2
{3CD4C154-499F-441D-81EF-851450972927}
  9
$VERSIONGUID
  2
{FAEB1C32-E019-11D5-929B-00C0DF256EC4}
  9
$EXTNAMES
290
     1
  9
$PSVPSCALE
 40
0.0
  9
$OLESTARTUP
290
     0
  0
ENDSEC
  0
SECTION
  2
CLASSES
  0
CLASS
  1
ACDBDICTIONARYWDFLT
  2
AcDbDictionaryWithDefault
  3
ObjectDBX Classes
 90
        0
280
     0
281
     0
  0
CLASS
  1
VISUALSTYLE
  2
AcDbVisualStyle
  3
ObjectDBX Classes
 90
     4095
280
     0
281
     0
  0
CLASS
  1
MATERIAL
  2
AcDbMaterial
  3
ObjectDBX Classes
 90
     1153
280
     0
281
     0
  0
CLASS
  1
SCALE
  2
AcDbScale
  3
ObjectDBX Classes
 90
     1153
280
     0
281
     0
  0
CLASS
  1
TABLESTYLE
  2
AcDbTableStyle
  3
ObjectDBX Classes
 90
     4095
280
     0
281
     0
  0
CLASS
  1
MLEADERSTYLE
  2
AcDbMLeaderStyle
  3
ACDB_MLEADERSTYLE_CLASS
 90
     4095
280
     0
281
     0
  0
CLASS
  1
SUN
  2
AcDbSun
  3
SCENEOE
 90
     1153
280
     0
281
     0
  0
CLASS
  1
ACDBPLACEHOLDER
  2
AcDbPlaceHolder
  3
ObjectDBX Classes
 90
        0
280
     0
281
     0
  0
CLASS
  1
LAYOUT
  2
AcDbLayout
  3
ObjectDBX Classes
 90
        0
280
     0
281
     0
  0
ENDSEC
  0
SECTION
  2
TABLES
  0
TABLE
  2
VPORT
  5
8
330
0
100
AcDbSymbolTable
 70
     1
  0
VPORT
  5
29
330
8
100
AcDbSymbolTableRecord
100
AcDbViewportTableRecord
  2
*Active
 70
     0
 10
0.0
 20
0.0
 11
1.0
 21
1.0
 12
-0.4416692237
 22
3.937007874
 13
0.0
 23
0.0
 14
0.5
 24
0.5
 15
0.5
 25
0.5
 16
0.0
 26
0.0
 36
1.0
 17
0.0
 27
0.0
 37
0.0
 40
8.541496063
 41
0.1054856444
 42
50.0
 43
0.0
 44
0.0
 50
0.0
 51
0.0
 71
     0
 72
   100
 73
     1
 74
     3
 75
     0
 76
     0
 77
     0
 78
     0
281
     0
 65
     1
110
0.0
120
0.0
130
0.0
111
1.0
121
0.0
131
0.0
112
0.0
122
1.0
132
0.0
 79
     0
146
0.0
  0
ENDTAB
  0
TABLE
  2
LTYPE
  5
5
330
0
100
AcDbSymbolTable
 70
     6
  0
LTYPE
  5
14
330
5
100
AcDbSymbolTableRecord
100
AcDbLinetypeTableRecord
  2
ByBlock
 70
     0
  3

 72
    65
 73
     0
 40
0.0
  0
LTYPE
  5
15
330
5
100
AcDbSymbolTableRecord
100
AcDbLinetypeTableRecord
  2
ByLayer
 70
     0
  3

 72
    65
 73
     0
 40
0.0
  0
LTYPE
  5
16
330
5
100
AcDbSymbolTableRecord
100
AcDbLinetypeTableRecord
  2
Continuous
 70
     0
  3
Solid line
 72
    65
 73
     0
 40
0.0
  0
LTYPE
  5
6E
330
5
100
AcDbSymbolTableRecord
100
AcDbLinetypeTableRecord
  2
HIDDEN
 70
     0
  3
Hidden __ __ __ __ __ __ __ __ __ __ __ __ __ __
 72
    65
 73
     2
 40
0.075
 49
0.05
 74
     0
 49
-0.025
 74
     0
  0
LTYPE
  5
6F
330
5
100
AcDbSymbolTableRecord
100
AcDbLinetypeTableRecord
  2
PHANTOM
 70
     0
  3
Phantom ______  __  __  ______  __  __  ______
 72
    65
 73
     6
 40
0.5
 49
0.25
 74
     0
 49
-0.05
 74
     0
 49
0.05
 74
     0
 49
-0.05
 74
     0
 49
0.05
 74
     0
 49
-0.05
 74
     0
  0
LTYPE
  5
70
330
5
100
AcDbSymbolTableRecord
100
AcDbLinetypeTableRecord
  2
CENTER
 70
     0
  3
Center ____ _ ____ _ ____ _ ____ _ ____ _ ____
 72
    65
 73
     4
 40
0.4
 49
0.25
 74
     0
 49
-0.05
 74
     0
 49
0.05
 74
     0
 49
-0.05
 74
     0
  0
LTYPE
  5
71
330
5
100
AcDbSymbolTableRecord
100
AcDbLinetypeTableRecord
  2
CENTERX2
 70
     0
  3
Center (2x) ________  __  ________  __  _____
 72
    65
 73
     4
 40
0.8
 49
0.5
 74
     0
 49
-0.1
 74
     0
 49
0.1
 74
     0
 49
-0.1
 74
     0
  0
LTYPE
  5
72
330
5
100
AcDbSymbolTableRecord
100
AcDbLinetypeTableRecord
  2
DOT2
 70
     0
  3
Dot (.5x) ........................................
 72
    65
 73
     2
 40
0.025
 49
0.0
 74
     0
 49
-0.025
 74
     0
  0
ENDTAB
  0
TABLE
  2
LAYER
  5
2
330
0
100
AcDbSymbolTable
 70
     1
  0
LAYER
  5
10
330
2
100
AcDbSymbolTableRecord
100
AcDbLayerTableRecord
  2
0
 70
     0
 62
     7
  6
Continuous
370
    -3
390
F
  0
ENDTAB
  0
TABLE
  2
STYLE
  5
3
330
0
100
AcDbSymbolTable
 70
     1
  0
STYLE
  5
11
330
3
100
AcDbSymbolTableRecord
100
AcDbTextStyleTableRecord
  2
Standard
 70
     0
 40
0.0
 41
1.0
 50
0.0
 71
     0
 42
0.1377952756
  3
txt
  4

  0
ENDTAB
  0
TABLE
  2
VIEW
  5
6
330
0
100
AcDbSymbolTable
 70
     0
  0
ENDTAB
  0
TABLE
  2
UCS
  5
7
330
0
100
AcDbSymbolTable
 70
     0
  0
ENDTAB
  0
TABLE
  2
APPID
  5
9
330
0
100
AcDbSymbolTable
 70
     1
  0
APPID
  5
12
330
9
100
AcDbSymbolTableRecord
100
AcDbRegAppTableRecord
  2
ACAD
 70
     0
  0
ENDTAB
  0
TABLE
  2
DIMSTYLE
  5
A
330
0
100
AcDbSymbolTable
 70
     1
100
AcDbDimStyleTable
  0
DIMSTYLE
105
27
330
A
100
AcDbSymbolTableRecord
100
AcDbDimStyleTableRecord
  2
Standard
 70
     0
178
     0
340
11
  0
ENDTAB
  0
TABLE
  2
BLOCK_RECORD
  5
1
330
0
100
AcDbSymbolTable
 70
     1
  0
BLOCK_RECORD
  5
1F
330
1
100
AcDbSymbolTableRecord
100
AcDbBlockTableRecord
  2
*Model_Space
340
22
  0
BLOCK_RECORD
  5
1B
330
1
100
AcDbSymbolTableRecord
100
AcDbBlockTableRecord
  2
*Paper_Space
340
1E
  0
BLOCK_RECORD
  5
23
330
1
100
AcDbSymbolTableRecord
100
AcDbBlockTableRecord
  2
*Paper_Space0
340
26
  0
ENDTAB
  0
ENDSEC
  0
SECTION
  2
BLOCKS
  0
BLOCK
  5
20
330
1F
100
AcDbEntity
  8
0
100
AcDbBlockBegin
  2
*Model_Space
 70
     0
 10
0.0
 20
0.0
 30
0.0
  3
*Model_Space
  1

  0
ENDBLK
  5
21
330
1F
100
AcDbEntity
  8
0
100
AcDbBlockEnd
  0
BLOCK
  5
1C
330
1B
100
AcDbEntity
 67
     1
  8
0
100
AcDbBlockBegin
  2
*Paper_Space
 70
     0
 10
0.0
 20
0.0
 30
0.0
  3
*Paper_Space
  1

  0
ENDBLK
  5
1D
330
1B
100
AcDbEntity
 67
     1
  8
0
100
AcDbBlockEnd
  0
BLOCK
  5
24
330
23
100
AcDbEntity
  8
0
100
AcDbBlockBegin
  2
*Paper_Space0
 70
     0
 10
0.0
 20
0.0
 30
0.0
  3
*Paper_Space0
  1

  0
ENDBLK
  5
25
330
23
100
AcDbEntity
  8
0
100
AcDbBlockEnd
  0
ENDSEC
  0
SECTION
  2
ENTITIES
  0
SPLINE
  5
B3
330
1F
100
AcDbEntity
  8
0
  6
Continuous
 62
     7
370
    25
100
AcDbSpline
210
0.0
220
0.0
230
1.0
 70
     8
 71
     3
 72
    29
 73
    25
 74
     0
 42
0.000000001
 43
0.00000001
 40
0.0
 40
0.0
 40
0.0
 40
0.0
 40
0.0852100005665864
 40
0.1674239262518863
 40
0.2070497596627996
 40
0.2460963037050219
 40
0.2841048962047055
 40
0.3217279568549751
 40
0.358830407251476
 40
0.3956081922827978
 40
0.43228495186786
 40
0.468759848642444
 40
0.5053742214351429
 40
0.5427985207477511
 40
0.5806915688339935
 40
0.6198119512193883
 40
0.6602216775199132
 40
0.7020317298642264
 40
0.7457557203094632
 40
0.7914513113388468
 40
0.8395071242194994
 40
0.8900385233654935
 40
0.943584007120152
 40
0.9999999999999999
 40
0.9999999999999999
 40
0.9999999999999999
 40
0.9999999999999999
 10
-0.3285380469176974
 20
7.644356955380566
 30
0.0
 10
-0.3317762845521739
 20
7.644423803025923
 30
0.0
 10
-0.3381388999176909
 20
7.644555147881831
 30
0.0
 10
-0.3459578556892031
 20
7.645547836427943
 30
0.0
 10
-0.3519607931502282
 20
7.64670755630173
 30
0.0
 10
-0.3562534006297217
 20
7.647828679226116
 30
0.0
 10
-0.3603940664279649
 20
7.649187398333845
 30
0.0
 10
-0.3643994794782056
 20
7.650716414379049
 30
0.0
 10
-0.3682025419916972
 20
7.65259033644658
 30
0.0
 10
-0.371879926037351
 20
7.654627114633507
 30
0.0
 10
-0.3753299595544388
 20
7.656988937087585
 30
0.0
 10
-0.3786316588391687
 20
7.659540404880418
 30
0.0
 10
-0.3817204141118794
 20
7.662395625891818
 30
0.0
 10
-0.3845327057444956
 20
7.665591394042917
 30
0.0
 10
-0.387194082649855
 20
7.66903486113381
 30
0.0
 10
-0.3895579697230263
 20
7.672827036533612
 30
0.0
 10
-0.3916648909995596
 20
7.676930328946792
 30
0.0
 10
-0.393598271460071
 20
7.681312177187403
 30
0.0
 10
-0.3951962957985854
 20
7.686040222528293
 30
0.0
 10
-0.3965767031075264
 20
7.69107960901203
 30
0.0
 10
-0.3976793535052665
 20
7.696454731898505
 30
0.0
 10
-0.3983956128776763
 20
7.702193200290152
 30
0.0
 10
-0.3988841248453732
 20
7.708274369106535
 30
0.0
 10
-0.3989373538318826
 20
7.712452665148242
 30
0.0
 10
-0.3989646630879587
 20
7.714596349708992
 30
0.0
  0
SPLINE
  5
B4
330
1F
100
AcDbEntity
  8
0
  6
Continuous
 62
     7
370
    25
100
AcDbSpline
210
0.0
220
0.0
230
1.0
 70
     8
 71
     3
 72
    23
 73
    19
 74
     0
 42
0.000000001
 43
0.00000001
 40
0.0
 40
0.0
 40
0.0
 40
0.0
 40
0.0732377853762721
 40
0.1421589475342827
 40
0.2069047474970911
 40
0.2681954882631473
 40
0.3264132046564445
 40
0.3823905891336748
 40
0.4367695441631205
 40
0.4906401523452076
 40
0.544859339382017
 40
0.6001087605508159
 40
0.6577561150618663
 40
0.7182774182895166
 40
0.7822248685431529
 40
0.850307957930459
 40
0.9226812746873092
 40
1.0
 40
1.0
 40
1.0
 40
1.0
 10
-0.2611693874974076
 20
7.708574047129969
 30
0.0
 10
-0.2612123288736102
 20
7.705961385323573
 30
0.0
 10
-0.261295680668251
 20
7.700890051574853
 30
0.0
 10
-0.2620794539496676
 20
7.693541195142586
 30
0.0
 10
-0.2633876253633106
 20
7.686705458503096
 30
0.0
 10
-0.2651715904186386
 20
7.680368934456838
 30
0.0
 10
-0.267530142077869
 20
7.674558922240689
 30
0.0
 10
-0.270360887898869
 20
7.669239733058713
 30
0.0
 10
-0.2737638046592696
 20
7.664451963430489
 30
0.0
 10
-0.2776948925016044
 20
7.660175571096493
 30
0.0
 10
-0.2821536107143119
 20
7.656399869708781
 30
0.0
 10
-0.2871831025454019
 20
7.653175913559602
 30
0.0
 10
-0.2927299151088816
 20
7.650409078857892
 30
0.0
 10
-0.2988597697257038
 20
7.648225829208222
 30
0.0
 10
-0.3055065894624735
 20
7.646467880650177
 30
0.0
 10
-0.3127019006951589
 20
7.645248350998747
 30
0.0
 10
-0.3204398584109707
 20
7.644487014377156
 30
0.0
 10
-0.3257798446530986
 20
7.644401252820497
 30
0.0
 10
-0.3285380469176974
 20
7.644356955380566
 30
0.0
  0
SPLINE
  5
B7
330
1F
100
AcDbEntity
  8
0
  6
Continuous
 62
     7
370
    25
100
AcDbSpline
210
0.0
220
0.0
230
1.0
 70
     8
 71
     3
 72
    23
 73
    19
 74
     0
 42
0.000000001
 43
0.00000001
 40
0.0
 40
0.0
 40
0.0
 40
0.0
 40
0.056431889250379
 40
0.1112872399091224
 40
0.1644610488604649
 40
0.2160910840122851
 40
0.2675887085198338
 40
0.3209838413756769
 40
0.3755005813617053
 40
0.431750695357861
 40
0.4905402679260209
 40
0.5521413822149678
 40
0.616572645229739
 40
0.6846573465782941
 40
0.7564689536896869
 40
0.8330610983104851
 40
0.9141230973547475
 40
0.9999999999999999
 40
0.9999999999999999
 40
0.9999999999999999
 40
0.9999999999999999
 10
-0.2992066250302159
 20
7.42268629464794
 30
0.0
 10
-0.3004971028501212
 20
7.422710680599237
 30
0.0
 10
-0.3030420063904583
 20
7.422758771231117
 30
0.0
 10
-0.3067903415224996
 20
7.423126723333509
 30
0.0
 10
-0.3103813543017582
 20
7.423799571834094
 30
0.0
 10
-0.3138542949254189
 20
7.424659605117298
 30
0.0
 10
-0.3172346317758971
 20
7.425849048036229
 30
0.0
 10
-0.3205907404686296
 20
7.427277555463383
 30
0.0
 10
-0.3239399587702528
 20
7.42897811026393
 30
0.0
 10
-0.3272988206231985
 20
7.430919546389999
 30
0.0
 10
-0.3306630202345021
 20
7.433157801334737
 30
0.0
 10
-0.3341058681035414
 20
7.435611345301858
 30
0.0
 10
-0.3375718991880789
 20
7.438387031482034
 30
0.0
 10
-0.3411343171313277
 20
7.441411321873172
 30
0.0
 10
-0.344787024030563
 20
7.444753567487567
 30
0.0
 10
-0.3486267846721492
 20
7.448329824728551
 30
0.0
 10
-0.3526206991036809
 20
7.452211147320923
 30
0.0
 10
-0.3553241973982477
 20
7.454906215283052
 30
0.0
 10
-0.3567149341138631
 20
7.45629261525732
 30
0.0
  0
SPLINE
  5
B8
330
1F
100
AcDbEntity
  8
0
  6
Continuous
 62
     7
370
    25
100
AcDbSpline
210
0.0
220
0.0
230
1.0
 70
     8
 71
     3
 72
    23
 73
    19
 74
     0
 42
0.000000001
 43
0.00000001
 40
0.0
 40
0.0
 40
0.0
 40
0.0
 40
0.0688122913113789
 40
0.1347082445670197
 40
0.1985358459961524
 40
0.2610265955821039
 40
0.3213770243824697
 40
0.3807459525572616
 40
0.4389115945790181
 40
0.4969561421418339
 40
0.5548550420427201
 40
0.6130710657474021
 40
0.6727885945159002
 40
0.7339113425174956
 40
0.7968564538800387
 40
0.8618348509814141
 40
0.9292334708356359
 40
0.9999999999999999
 40
0.9999999999999999
 40
0.9999999999999999
 40
0.9999999999999999
 10
-0.2591723545178343
 20
7.463407045247051
 30
0.0
 10
-0.259194484003912
 20
7.461928045043589
 30
0.0
 10
-0.2592378051049229
 20
7.459032726237522
 30
0.0
 10
-0.2598078888835121
 20
7.454799905613236
 30
0.0
 10
-0.2606182626773395
 20
7.450746817483866
 30
0.0
 10
-0.2618534372561371
 20
7.446924911634321
 30
0.0
 10
-0.2633495654545254
 20
7.443304511279232
 30
0.0
 10
-0.2651517991437971
 20
7.439927285758412
 30
0.0
 10
-0.2672929173058669
 20
7.436813203660535
 30
0.0
 10
-0.2697349514690867
 20
7.433974526833639
 30
0.0
 10
-0.2724449836915361
 20
7.431381139284881
 30
0.0
 10
-0.2755236942703231
 20
7.429180982912976
 30
0.0
 10
-0.2788187223087849
 20
7.427185282807387
 30
0.0
 10
-0.2824360830871603
 20
7.425587033459072
 30
0.0
 10
-0.2862753450790682
 20
7.424242866814326
 30
0.0
 10
-0.2903875005021167
 20
7.423376013001575
 30
0.0
 10
-0.2947168292893219
 20
7.422782888926519
 30
0.0
 10
-0.2976859017775084
 20
7.42271901176337
 30
0.0
 10
-0.2992066250302159
 20
7.42268629464794
 30
0.0
  0
SPLINE
  5
B9
330
1F
100
AcDbEntity
  8
0
  6
Continuous
 62
     7
370
    25
100
AcDbSpline
210
0.0
220
0.0
230
1.0
 70
     8
 71
     3
 72
    15
 73
    11
 74
     0
 42
0.000000001
 43
0.00000001
 40
0.0
 40
0.0
 40
0.0
 40
0.0
 40
0.1202360894095318
 40
0.2397221497017648
 40
0.3589183337224012
 40
0.4787771470022972
 40
0.6013100830884635
 40
0.7271708742997689
 40
0.8601794120457413
 40
1.0
 40
1.0
 40
1.0
 40
1.0
 10
-0.2771144476936874
 20
7.504564646810442
 30
0.0
 10
-0.2757979111628001
 20
7.503257891865873
 30
0.0
 10
-0.2731730506163944
 20
7.500652533474865
 30
0.0
 10
-0.2697213003391748
 20
7.496312486914443
 30
0.0
 10
-0.2666512845561924
 20
7.491710245201028
 30
0.0
 10
-0.2639608415267838
 20
7.486818189367884
 30
0.0
 10
-0.2617836577082753
 20
7.481558894594952
 30
0.0
 10
-0.2602539967205673
 20
7.475866608884949
 30
0.0
 10
-0.2593497472815197
 20
7.469770514048104
 30
0.0
 10
-0.259232461576428
 20
7.465563217709433
 30
0.0
 10
-0.2591723545178343
 20
7.463407045247051
 30
0.0
  0
SPLINE
  5
BB
330
1F
100
AcDbEntity
  8
0
  6
Continuous
 62
     7
370
    25
100
AcDbSpline
210
0.0
220
0.0
230
1.0
 70
     8
 71
     3
 72
    15
 73
    11
 74
     0
 42
0.000000001
 43
0.00000001
 40
0.0
 40
0.0
 40
0.0
 40
0.0
 40
0.1280115940998064
 40
0.2529675784492343
 40
0.3742001908359356
 40
0.4966233809389302
 40
0.6202624621832273
 40
0.7446421892505707
 40
0.870526256793732
 40
1.0
 40
1.0
 40
1.0
 40
1.0
 10
-0.27514861835442
 20
7.466059354673046
 30
0.0
 10
-0.2751986321499613
 20
7.467456002455409
 30
0.0
 10
-0.2752974659222936
 20
7.470215960332157
 30
0.0
 10
-0.2760189407730576
 20
7.474248605721331
 30
0.0
 10
-0.2772516228634866
 20
7.478088401351325
 30
0.0
 10
-0.2789988852297529
 20
7.481704729951988
 30
0.0
 10
-0.281101535540854
 20
7.48515995658092
 30
0.0
 10
-0.2834809591078039
 20
7.488475969760793
 30
0.0
 10
-0.2861420551361672
 20
7.491657818905697
 30
0.0
 10
-0.288123300776165
 20
7.49361721530838
 30
0.0
 10
-0.2891278492114324
 20
7.494610685552882
 30
0.0
  0
SPLINE
  5
BC
330
1F
100
AcDbEntity
  8
0
  6
Continuous
 62
     7
370
    25
100
AcDbSpline
210
0.0
220
0.0
230
1.0
 70
     8
 71
     3
 72
    19
 73
    15
 74
     0
 42
0.000000001
 43
0.00000001
 40
0.0
 40
0.0
 40
0.0
 40
0.0
 40
0.127593207669443
 40
0.2511720985330259
 40
0.3708400688081664
 40
0.4856160391470568
 40
0.5430963201311533
 40
0.6006536303384667
 40
0.6602318653793732
 40
0.7210768018008684
 40
0.7847679043167707
 40
0.8521107909440242
 40
0.9235580901882576
 40
1.0
 40
1.0
 40
1.0
 40
1.0
 10
-0.3006419924842842
 20
7.442656624443673
 30
0.0
 10
-0.2989730316611238
 20
7.442723901761033
 30
0.0
 10
-0.2956876185895392
 20
7.442856339727701
 30
0.0
 10
-0.2909187256431255
 20
7.443860929610613
 30
0.0
 10
-0.2865314943998869
 20
7.445554206139835
 30
0.0
 10
-0.2832715742065544
 20
7.447590753995294
 30
0.0
 10
-0.281003794455833
 20
7.449575026169465
 30
0.0
 10
-0.2795333255282479
 20
7.45133000093869
 30
0.0
 10
-0.2782182235345472
 20
7.453254386877536
 30
0.0
 10
-0.2771163900534788
 20
7.455402320630546
 30
0.0
 10
-0.2762484278834589
 20
7.457760852692454
 30
0.0
 10
-0.2755823949425935
 20
7.460328303302139
 30
0.0
 10
-0.2752168132900746
 20
7.463126079756599
 30
0.0
 10
-0.2751718561073775
 20
7.46505982710974
 30
0.0
 10
-0.27514861835442
 20
7.466059354673047
 30
0.0
  0
SPLINE
  5
BD
330
1F
100
AcDbEntity
  8
0
  6
Continuous
 62
     7
370
    25
100
AcDbSpline
210
0.0
220
0.0
230
1.0
 70
     8
 71
     3
 72
    21
 73
    17
 74
     0
 42
0.000000001
 43
0.00000001
 40
0.0
 40
0.0
 40
0.0
 40
0.0
 40
0.1048369534335657
 40
0.2005293226302802
 40
0.2883104714185855
 40
0.3674290546429294
 40
0.4395337560671868
 40
0.5063882637814897
 40
0.5679938771642654
 40
0.6249383914834384
 40
0.6773954983659735
 40
0.7271351327202157
 40
0.7735160916017418
 40
0.8178156128065246
 40
0.9063177687674379
 40
1.0
 40
1.0
 40
1.0
 40
1.0
 10
-0.3469481946981379
 20
7.469866198790357
 30
0.0
 10
-0.3455683984491122
 20
7.468510374423738
 30
0.0
 10
-0.3429291610607397
 20
7.465916989811355
 30
0.0
 10
-0.3390783439494136
 20
7.462246220787254
 30
0.0
 10
-0.335504661668456
 20
7.45897342439909
 30
0.0
 10
-0.3321736835786832
 20
7.456082917616462
 30
0.0
 10
-0.3290718035836929
 20
7.453517622010964
 30
0.0
 10
-0.3260998656306673
 20
7.451310709553281
 30
0.0
 10
-0.3232910946384464
 20
7.449355210381747
 30
0.0
 10
-0.3206029115205075
 20
7.447701955712653
 30
0.0
 10
-0.3180279189448262
 20
7.446280668748297
 30
0.0
 10
-0.3154917720909114
 20
7.445235425919692
 30
0.0
 10
-0.3130843789979872
 20
7.444266804077272
 30
0.0
 10
-0.3098700046484735
 20
7.443468664026084
 30
0.0
 10
-0.3057366033365979
 20
7.442778420966411
 30
0.0
 10
-0.3023720840576303
 20
7.442697985627825
 30
0.0
 10
-0.3006419924842842
 20
7.442656624443673
 30
0.0
  0
SPLINE
  5
C2
330
1F
100
AcDbEntity
  8
0
  6
Continuous
 62
     7
370
    25
100
AcDbSpline
210
0.0
220
0.0
230
1.0
 70
     8
 71
     3
 72
    19
 73
    15
 74
     0
 42
0.000000001
 43
0.00000001
 40
0.0
 40
0.0
 40
0.0
 40
0.0
 40
0.1284981655153678
 40
0.2500963721884951
 40
0.3672550338555867
 40
0.4824276248329286
 40
0.5400558955452486
 40
0.5987649891512627
 40
0.6591509354939158
 40
0.72176189392987
 40
0.7864467407061562
 40
0.8542535477501754
 40
0.9255652685080247
 40
1.0
 40
1.0
 40
1.0
 40
1.0
 10
-0.2942452462215887
 20
7.183042337099157
 30
0.0
 10
-0.2960185726545445
 20
7.183106148349466
 30
0.0
 10
-0.2994700033096783
 20
7.183230344380926
 30
0.0
 10
-0.3044528259749579
 20
7.184257164963102
 30
0.0
 10
-0.3090661384804987
 20
7.185901190084483
 30
0.0
 10
-0.3125695406353047
 20
7.187873686663306
 30
0.0
 10
-0.3151286051964763
 20
7.189789423007837
 30
0.0
 10
-0.3169125666750855
 20
7.191456391949679
 30
0.0
 10
-0.3185725748357792
 20
7.193338279108496
 30
0.0
 10
-0.3200936527662288
 20
7.195435909648189
 30
0.0
 10
-0.3215089607382685
 20
7.197727042667136
 30
0.0
 10
-0.3227841461496927
 20
7.200234366077275
 30
0.0
 10
-0.3239391101735204
 20
7.202946241267928
 30
0.0
 10
-0.3245873563452615
 20
7.204849151774698
 30
0.0
 10
-0.324918424642221
 20
7.205820994522416
 30
0.0
  0
SPLINE
  5
C3
330
1F
100
AcDbEntity
  8
0
  6
Continuous
 62
     7
370
    25
100
AcDbSpline
210
0.0
220
0.0
230
1.0
 70
     8
 71
     3
 72
    23
 73
    19
 74
     0
 42
0.000000001
 43
0.00000001
 40
0.0
 40
0.0
 40
0.0
 40
0.0
 40
0.0867985091117857
 40
0.1680325757699677
 40
0.2438549343749145
 40
0.3151430648712786
 40
0.3818274405512974
 40
0.4445164656257234
 40
0.5035922754268348
 40
0.5594986595292181
 40
0.6133316326846646
 40
0.6658467966471385
 40
0.7179152797095528
 40
0.7701264042050429
 40
0.8240197862945503
 40
0.8797950640280656
 40
0.938224093044199
 40
1.0
 40
1.0
 40
1.0
 40
1.0
 10
-0.2611693874974075
 20
7.229317335672706
 30
0.0
 10
-0.2611876721681622
 20
7.227444153058107
 30
0.0
 10
-0.2612230693236602
 20
7.223817873035105
 30
0.0
 10
-0.2616549381191057
 20
7.2185710167949
 30
0.0
 10
-0.262251327591333
 20
7.213679038072567
 30
0.0
 10
-0.2631420754653534
 20
7.209146924453608
 30
0.0
 10
-0.2643462212122461
 20
7.204984963369555
 30
0.0
 10
-0.2657203437458862
 20
7.201153024532473
 30
0.0
 10
-0.2674124523341669
 20
7.197703698186614
 30
0.0
 10
-0.2693599886086578
 20
7.194619178083787
 30
0.0
 10
-0.2715419965330932
 20
7.191868699915061
 30
0.0
 10
-0.2740379912308463
 20
7.189519356164539
 30
0.0
 10
-0.2767621219004598
 20
7.187498299066192
 30
0.0
 10
-0.2797703913572968
 20
7.185865438727372
 30
0.0
 10
-0.2830278548035737
 20
7.184581629952754
 30
0.0
 10
-0.2865497563557919
 20
7.18368247013451
 30
0.0
 10
-0.2903181276496362
 20
7.183150452793944
 30
0.0
 10
-0.2929121316607243
 20
7.183079038462851
 30
0.0
 10
-0.2942452462215887
 20
7.183042337099158
 30
0.0
  0
SPLINE
  5
C7
330
1F
100
AcDbEntity
  8
0
  6
Continuous
 62
     7
370
    25
100
AcDbSpline
210
0.0
220
0.0
230
1.0
 70
     8
 71
     3
 72
    23
 73
    19
 74
     0
 42
0.000000001
 43
0.00000001
 40
0.0
 40
0.0
 40
0.0
 40
0.0
 40
0.0633136828901969
 40
0.1236212564302757
 40
0.1812472002554001
 40
0.2377750500866911
 40
0.2933281455562343
 40
0.3486975841341418
 40
0.4040492171251571
 40
0.4607207470078135
 40
0.5188406365282202
 40
0.5790432383433307
 40
0.6418998801688248
 40
0.707527382749185
 40
0.7762486839700853
 40
0.8476824240526382
 40
0.9221397405400544
 40
1.0
 40
1.0
 40
1.0
 40
1.0
 10
-0.3572453959990622
 20
7.179048271140011
 30
0.0
 10
-0.3588706715055825
 20
7.17909627843832
 30
0.0
 10
-0.3620440550617062
 20
7.179190013666847
 30
0.0
 10
-0.3666516653269865
 20
7.179917730124449
 30
0.0
 10
-0.370975109370378
 20
7.181110859751684
 30
0.0
 10
-0.3750213245555855
 20
7.18275540616927
 30
0.0
 10
-0.3787535592492651
 20
7.184908242074271
 30
0.0
 10
-0.3821957137180857
 20
7.187442536348911
 30
0.0
 10
-0.3853576543821233
 20
7.190366576969791
 30
0.0
 10
-0.3881581171133399
 20
7.193729811711659
 30
0.0
 10
-0.3906651138804044
 20
7.197464164764218
 30
0.0
 10
-0.3928520592251084
 20
7.20157610593541
 30
0.0
 10
-0.3947139386240973
 20
7.206052070810355
 30
0.0
 10
-0.396279967277742
 20
7.210870399413263
 30
0.0
 10
-0.3974785109618336
 20
7.216018768269353
 30
0.0
 10
-0.3983575960839216
 20
7.221459829009787
 30
0.0
 10
-0.3988453263458957
 20
7.227186573031943
 30
0.0
 10
-0.398924296083535
 20
7.231095068408462
 30
0.0
 10
-0.3989646630879586
 20
7.23309297614971
 30
0.0
  0
SPLINE
  5
C8
330
1F
100
AcDbEntity
  8
0
  6
Continuous
 62
     7
370
    25
100
AcDbSpline
210
0.0
220
0.0
230
1.0
 70
     8
 71
     3
 72
    21
 73
    17
 74
     0
 42
0.000000001
 43
0.00000001
 40
0.0
 40
0.0
 40
0.0
 40
0.0
 40
0.1193297730280921
 40
0.2389392893391203
 40
0.2981816001673404
 40
0.3573455066324168
 40
0.416316881860291
 40
0.4755748611127
 40
0.535160925541601
 40
0.5960073333770582
 40
0.6578862958431202
 40
0.7219435773480404
 40
0.7878720589939074
 40
0.8556372046181419
 40
0.9263684754328034
 40
1.0
 40
1.0
 40
1.0
 40
1.0
 10
-0.3249184246422209
 20
7.205820994522414
 30
0.0
 10
-0.3253452043324611
 20
7.204047299185747
 30
0.0
 10
-0.3261997642071904
 20
7.20049575046079
 30
0.0
 10
-0.3280418815319377
 20
7.196302154276451
 30
0.0
 10
-0.329878971213331
 20
7.193164909740188
 30
0.0
 10
-0.3314361233819971
 20
7.190944479979599
 30
0.0
 10
-0.3331932296175801
 20
7.188879465253684
 30
0.0
 10
-0.3351250059427959
 20
7.186965623240842
 30
0.0
 10
-0.337270403572478
 20
7.185250806586282
 30
0.0
 10
-0.3395689828262102
 20
7.183672780934627
 30
0.0
 10
-0.3420983590823123
 20
7.182347669675004
 30
0.0
 10
-0.3447695432030838
 20
7.181137557877137
 30
0.0
 10
-0.3476507695540621
 20
7.180215834007411
 30
0.0
 10
-0.3506962975266041
 20
7.179519659841777
 30
0.0
 10
-0.3539162108171735
 20
7.179110560582792
 30
0.0
 10
-0.3561209034867514
 20
7.179069310525978
 30
0.0
 10
-0.3572453959990622
 20
7.179048271140011
 30
0.0
  0
SPLINE
  5
E1
330
1F
100
AcDbEntity
  8
0
  6
Continuous
 62
     7
370
    25
100
AcDbSpline
210
0.0
220
0.0
230
1.0
 70
     8
 71
     3
 72
    13
 73
     9
 74
     0
 42
0.000000001
 43
0.00000001
 40
0.0
 40
0.0
 40
0.0
 40
0.0
 40
0.2629292473005725
 40
0.5152299907304633
 40
0.6381806707120407
 40
0.7590042309196198
 40
0.8797730870689299
 40
1.0
 40
1.0
 40
1.0
 40
1.0
 10
-0.2591723545178343
 20
7.565193319924673
 30
0.0
 10
-0.2592286885058332
 20
7.562090134947804
 30
0.0
 10
-0.2593390792684149
 20
7.556009206396567
 30
0.0
 10
-0.2603045371410052
 20
7.548528871244639
 30
0.0
 10
-0.2613693845737311
 20
7.542772946441993
 30
0.0
 10
-0.2624168189043535
 20
7.53859982909744
 30
0.0
 10
-0.263646605581783
 20
7.534509480657748
 30
0.0
 10
-0.2646585960750787
 20
7.531851885145239
 30
0.0
 10
-0.265163453456554
 20
7.530526075544895
 30
0.0
  0
SPLINE
  5
E2
330
1F
100
AcDbEntity
  8
0
  6
Continuous
 62
     7
370
    25
100
AcDbSpline
210
0.0
220
0.0
230
1.0
 70
     8
 71
     3
 72
    23
 73
    19
 74
     0
 42
0.000000001
 43
0.00000001
 40
0.0
 40
0.0
 40
0.0
 40
0.0
 40
0.0742303142068715
 40
0.145234480271601
 40
0.2127033262666406
 40
0.2780441841825321
 40
0.3407882783397109
 40
0.4013981533794567
 40
0.4600902964053069
 40
0.5180807205345802
 40
0.5755022312764234
 40
0.6326611547788665
 40
0.6904112556728927
 40
0.749414955750645
 40
0.8096955818459647
 40
0.8709381798649896
 40
0.9344400676624485
 40
1.0
 40
1.0
 40
1.0
 40
1.0
 10
-0.3315960036676688
 20
7.632374757503128
 30
0.0
 10
-0.3288372541358479
 20
7.632314322726119
 30
0.0
 10
-0.3234396539945238
 20
7.632196079747851
 30
0.0
 10
-0.3155754287445356
 20
7.631289975060138
 30
0.0
 10
-0.3081462514822668
 20
7.629766219878198
 30
0.0
 10
-0.3011949030262467
 20
7.627611158745127
 30
0.0
 10
-0.2947061929566273
 20
7.624927348288721
 30
0.0
 10
-0.2887272951851242
 20
7.621740765031927
 30
0.0
 10
-0.2832378378991009
 20
7.618074890225994
 30
0.0
 10
-0.2782991763818168
 20
7.613875153250037
 30
0.0
 10
-0.2738751703046908
 20
7.609214660945188
 30
0.0
 10
-0.2700228943457336
 20
7.604084423620868
 30
0.0
 10
-0.2666779408271028
 20
7.598539038471858
 30
0.0
 10
-0.263986874606772
 20
7.592521000812214
 30
0.0
 10
-0.2618380307692883
 20
7.586157241272348
 30
0.0
 10
-0.2602544043811029
 20
7.579455559892336
 30
0.0
 10
-0.2593569864350794
 20
7.5724259358132
 30
0.0
 10
-0.2592345492923041
 20
7.567629685861425
 30
0.0
 10
-0.2591723545178343
 20
7.565193319924673
 30
0.0
  0
SPLINE
  5
E3
330
1F
100
AcDbEntity
  8
0
  6
Continuous
 62
     7
370
    25
100
AcDbSpline
210
0.0
220
0.0
230
1.0
 70
     8
 71
     3
 72
    23
 73
    19
 74
     0
 42
0.000000001
 43
0.00000001
 40
0.0
 40
0.0
 40
0.0
 40
0.0
 40
0.0664816656448716
 40
0.1298821460390477
 40
0.1909362123956012
 40
0.2499612871436958
 40
0.3075910319046083
 40
0.363447713185528
 40
0.4190602458144784
 40
0.4747759939275965
 40
0.5313404747473057
 40
0.5893050617114018
 40
0.6495098271551499
 40
0.712228691053892
 40
0.7784844991333963
 40
0.8481814999024901
 40
0.9217688998297192
 40
1.0
 40
1.0
 40
1.0
 40
1.0
 10
-0.400961696067532
 20
7.569811458689936
 30
0.0
 10
-0.4009115320727062
 20
7.572164972897595
 30
0.0
 10
-0.4008135290031583
 20
7.576762924423918
 30
0.0
 10
-0.3999381258453131
 20
7.583474443435875
 30
0.0
 10
-0.3985912966879786
 20
7.589833755899195
 30
0.0
 10
-0.396651404511717
 20
7.595828873199419
 30
0.0
 10
-0.394159464516974
 20
7.601413843471041
 30
0.0
 10
-0.3911426719773011
 20
7.606596540957397
 30
0.0
 10
-0.3875664293725712
 20
7.6113270637301
 30
0.0
 10
-0.3834497784114673
 20
7.615628878886622
 30
0.0
 10
-0.3788041283437866
 20
7.619483927533871
 30
0.0
 10
-0.373620503891232
 20
7.622881558871971
 30
0.0
 10
-0.3678747925674512
 20
7.625729794649608
 30
0.0
 10
-0.3616244292353187
 20
7.628152718550576
 30
0.0
 10
-0.3548404665558398
 20
7.630038191647104
 30
0.0
 10
-0.34754491636421
 20
7.631404710800506
 30
0.0
 10
-0.3397377479277688
 20
7.632217433844801
 30
0.0
 10
-0.3343647005488252
 20
7.632321257723692
 30
0.0
 10
-0.3315960036676688
 20
7.632374757503128
 30
0.0
  0
SPLINE
  5
E4
330
1F
100
AcDbEntity
  8
0
  6
Continuous
 62
     7
370
    25
100
AcDbSpline
210
0.0
220
0.0
230
1.0
 70
     8
 71
     3
 72
    15
 73
    11
 74
     0
 42
0.000000001
 43
0.00000001
 40
0.0
 40
0.0
 40
0.0
 40
0.0
 40
0.1215529129440537
 40
0.2468721241304404
 40
0.3746699835809454
 40
0.5031054740837426
 40
0.631612644569927
 40
0.757525424741317
 40
0.8812582679439901
 40
1.0
 40
1.0
 40
1.0
 40
1.0
 10
-0.3925055095446517
 20
7.530526075544895
 30
0.0
 10
-0.3931690095946993
 20
7.532026645152936
 30
0.0
 10
-0.3945165681414144
 20
7.535074279286663
 30
0.0
 10
-0.3962119281030224
 20
7.539842429126361
 30
0.0
 10
-0.3976655351267204
 20
7.544783493952185
 30
0.0
 10
-0.3988886399041655
 20
7.549831650886412
 30
0.0
 10
-0.3998161436729614
 20
7.554917204593302
 30
0.0
 10
-0.4004615184258001
 20
7.559980254526337
 30
0.0
 10
-0.4008929723779656
 20
7.564936189370377
 30
0.0
 10
-0.4009391047011758
 20
7.568208823616377
 30
0.0
 10
-0.400961696067532
 20
7.569811458689936
 30
0.0
  0
SPLINE
  5
EA
330
1F
100
AcDbEntity
  8
0
  6
Continuous
 62
     7
370
    25
100
AcDbSpline
210
0.0
220
0.0
230
1.0
 70
     8
 71
     3
 72
    15
 73
    11
 74
     0
 42
0.000000001
 43
0.00000001
 40
0.0
 40
0.0
 40
0.0
 40
0.0
 40
0.118136757966916
 40
0.2453387807982668
 40
0.3782723929761811
 40
0.5118702985903361
 40
0.6425533320088282
 40
0.7708253199693226
 40
0.8918711344870568
 40
1.0
 40
1.0
 40
1.0
 40
1.0
 10
-0.3849854322309464
 20
7.567876832990976
 30
0.0
 10
-0.3849704150352324
 20
7.56717970082573
 30
0.0
 10
-0.3849392282941124
 20
7.565731941818119
 30
0.0
 10
-0.3847757336153988
 20
7.563504738029833
 30
0.0
 10
-0.3845346324828874
 20
7.561193099738966
 30
0.0
 10
-0.3841855877517167
 20
7.558874528711907
 30
0.0
 10
-0.3837889730854769
 20
7.55659169233501
 30
0.0
 10
-0.3833010551947481
 20
7.554401694857614
 30
0.0
 10
-0.3827199875913185
 20
7.55237205097488
 30
0.0
 10
-0.3822663327922554
 20
7.55109767810285
 30
0.0
 10
-0.3820522900421983
 20
7.550496405340628
 30
0.0
  0
SPLINE
  5
EB
330
1F
100
AcDbEntity
  8
0
  6
Continuous
 62
     7
370
    25
100
AcDbSpline
210
0.0
220
0.0
230
1.0
 70
     8
 71
     3
 72
    23
 73
    19
 74
     0
 42
0.000000001
 43
0.00000001
 40
0.0
 40
0.0
 40
0.0
 40
0.0
 40
0.077707532847482
 40
0.1509829028083273
 40
0.2212722041361055
 40
0.2876756950577945
 40
0.3509047016722381
 40
0.4109033209310612
 40
0.4686489001308796
 40
0.5246038787116023
 40
0.5791037570141526
 40
0.6330250054536406
 40
0.6878037272490812
 40
0.7439838240750581
 40
0.8024287518953677
 40
0.8641079447113149
 40
0.9295917945008799
 40
1.0
 40
1.0
 40
1.0
 40
1.0
 10
-0.3301606362136006
 20
7.612404427707395
 30
0.0
 10
-0.3322521597042315
 20
7.612375894736015
 30
0.0
 10
-0.3363159135815686
 20
7.612320456213046
 30
0.0
 10
-0.3422569276066829
 20
7.611849607616265
 30
0.0
 10
-0.3478548799899484
 20
7.611049690027702
 30
0.0
 10
-0.3531198930718298
 20
7.609923942901605
 30
0.0
 10
-0.3580326617507134
 20
7.608519757991074
 30
0.0
 10
-0.3625623927461341
 20
7.606702887179592
 30
0.0
 10
-0.3666966202888486
 20
7.604506138376231
 30
0.0
 10
-0.3704754971147148
 20
7.601993539221363
 30
0.0
 10
-0.3737993409464836
 20
7.59905674864156
 30
0.0
 10
-0.3767484030631966
 20
7.59578623193225
 30
0.0
 10
-0.3792417909888294
 20
7.592101515270303
 30
0.0
 10
-0.3813635494890564
 20
7.588052766179836
 30
0.0
 10
-0.3829686622972097
 20
7.583574608639482
 30
0.0
 10
-0.3841648053154759
 20
7.578715958099557
 30
0.0
 10
-0.384837323002672
 20
7.573428936509401
 30
0.0
 10
-0.3849348840399706
 20
7.569771710118057
 30
0.0
 10
-0.3849854322309463
 20
7.567876832990975
 30
0.0
  0
SPLINE
  5
EC
330
1F
100
AcDbEntity
  8
0
  6
Continuous
 62
     7
370
    25
100
AcDbSpline
210
0.0
220
0.0
230
1.0
 70
     8
 71
     3
 72
    23
 73
    19
 74
     0
 42
0.000000001
 43
0.00000001
 40
0.0
 40
0.0
 40
0.0
 40
0.0
 40
0.067114453152346
 40
0.1310077803067344
 40
0.1918936695800701
 40
0.2514615837594339
 40
0.3093905889314235
 40
0.3665491820258445
 40
0.4232796530147766
 40
0.4801468102801791
 40
0.5378209936256294
 40
0.5972718592278128
 40
0.6582803692241679
 40
0.7219074113835945
 40
0.7877933055446632
 40
0.855937708177939
 40
0.9264432938628239
 40
1.0
 40
1.0
 40
1.0
 40
1.0
 10
-0.27514861835442
 20
7.56506850536345
 30
0.0
 10
-0.2751931873458137
 20
7.566902016402222
 30
0.0
 10
-0.2752801862612298
 20
7.570481039996621
 30
0.0
 10
-0.2760545997105134
 20
7.575674901515791
 30
0.0
 10
-0.2772515745001782
 20
7.580573497347602
 30
0.0
 10
-0.2790123022083189
 20
7.585129259147582
 30
0.0
 10
-0.2812162719974231
 20
7.589366186690396
 30
0.0
 10
-0.2837953945352823
 20
7.593298941185735
 30
0.0
 10
-0.2868574920930894
 20
7.596830315758018
 30
0.0
 10
-0.2902755358170822
 20
7.600033298588369
 30
0.0
 10
-0.294081624369134
 20
7.602892553750214
 30
0.0
 10
-0.2982697745441619
 20
7.605382989346733
 30
0.0
 10
-0.3028323035781054
 20
7.607509848049518
 30
0.0
 10
-0.3077306575737215
 20
7.609278829211374
 30
0.0
 10
-0.3129480057803208
 20
7.610687857617417
 30
0.0
 10
-0.318451958848888
 20
7.611658759623532
 30
0.0
 10
-0.3242158257374846
 20
7.612321276370634
 30
0.0
 10
-0.3281512497108892
 20
7.612376321988226
 30
0.0
 10
-0.3301606362136006
 20
7.612404427707395
 30
0.0
  0
SPLINE
  5
ED
330
1F
100
AcDbEntity
  8
0
  6
Continuous
 62
     7
370
    25
100
AcDbSpline
210
0.0
220
0.0
230
1.0
 70
     8
 71
     3
 72
    13
 73
     9
 74
     0
 42
0.000000001
 43
0.00000001
 40
0.0
 40
0.0
 40
0.0
 40
0.0
 40
0.2440551001113753
 40
0.4850160308760498
 40
0.6072088180420239
 40
0.7333265041611087
 40
0.8647045976924139
 40
1.0
 40
1.0
 40
1.0
 40
1.0
 10
-0.2831367502727128
 20
7.530526075544896
 30
0.0
 10
-0.2819593673037777
 20
7.533188204901652
 30
0.0
 10
-0.279619528414308
 20
7.538478712716088
 30
0.0
 10
-0.2774919726470388
 20
7.545419279938094
 30
0.0
 10
-0.2762777834502793
 20
7.551126676642711
 30
0.0
 10
-0.2756312604642907
 20
7.555608707636122
 30
0.0
 10
-0.2752095482610274
 20
7.560275828396483
 30
0.0
 10
-0.2751691262500931
 20
7.563455377677784
 30
0.0
 10
-0.27514861835442
 20
7.56506850536345
 30
0.0
  0
SPLINE
  5
EF
330
1F
100
AcDbEntity
  8
0
  6
Continuous
 62
     7
370
    25
100
AcDbSpline
210
0.0
220
0.0
230
1.0
 70
     8
 71
     3
 72
    13
 73
     9
 74
     0
 42
0.000000001
 43
0.00000001
 40
0.0
 40
0.0
 40
0.0
 40
0.0
 40
0.1294465544730137
 40
0.2566114205043959
 40
0.382860421150678
 40
0.5068327058516495
 40
0.7532354148910916
 40
1.0
 40
1.0
 40
1.0
 40
1.0
 10
-0.3849854322309463
 20
7.802153764407156
 30
0.0
 10
-0.3849649392910854
 20
7.800717308003876
 30
0.0
 10
-0.3849243146299703
 20
7.797869714882233
 30
0.0
 10
-0.3844923524745046
 20
7.793640302529726
 30
0.0
 10
-0.3838515994704352
 20
7.789500848224689
 30
0.0
 10
-0.3826338552535841
 20
7.784125316383146
 30
0.0
 10
-0.3805365426457415
 20
7.777583548795385
 30
0.0
 10
-0.3781776247322487
 20
7.772642413562224
 30
0.0
 10
-0.3769973003126535
 20
7.770170033093679
 30
0.0
  0
SPLINE
  5
F0
330
1F
100
AcDbEntity
  8
0
  6
Continuous
 62
     7
370
    25
100
AcDbSpline
210
0.0
220
0.0
230
1.0
 70
     8
 71
     3
 72
    23
 73
    19
 74
     0
 42
0.000000001
 43
0.00000001
 40
0.0
 40
0.0
 40
0.0
 40
0.0
 40
0.0840459183828568
 40
0.1627756104119839
 40
0.2368739460355143
 40
0.3066026167438442
 40
0.372165453821074
 40
0.4340606592918758
 40
0.4929277549516333
 40
0.5494298570093998
 40
0.6039396665774892
 40
0.6572607910538735
 40
0.7108024035465526
 40
0.7643352139547633
 40
0.819396952196801
 40
0.87649639143459
 40
0.936526093041694
 40
1.0
 40
1.0
 40
1.0
 40
1.0
 10
-0.3299734143717657
 20
7.844060253337887
 30
0.0
 10
-0.3321793890838391
 20
7.844034396690996
 30
0.0
 10
-0.3364518021554109
 20
7.843984318929197
 30
0.0
 10
-0.3426540692601708
 20
7.843483234995219
 30
0.0
 10
-0.3484352026362237
 20
7.842636765418423
 30
0.0
 10
-0.353824242491086
 20
7.841524067631487
 30
0.0
 10
-0.3587628545474166
 20
7.839960524827442
 30
0.0
 10
-0.3633303731316663
 20
7.838193172809239
 30
0.0
 10
-0.3674338635196397
 20
7.835979272968229
 30
0.0
 10
-0.3711422872008683
 20
7.833490917720691
 30
0.0
 10
-0.374416711957317
 20
7.830665929068251
 30
0.0
 10
-0.3772561572011853
 20
7.827509919466269
 30
0.0
 10
-0.3796699378607814
 20
7.824045571735134
 30
0.0
 10
-0.381608068717165
 20
7.820246469155291
 30
0.0
 10
-0.383161997289369
 20
7.816173010159178
 30
0.0
 10
-0.384190284251954
 20
7.811763357021091
 30
0.0
 10
-0.3848726675612925
 20
7.807063625504743
 30
0.0
 10
-0.3849471516166717
 20
7.803820532016159
 30
0.0
 10
-0.3849854322309463
 20
7.802153764407156
 30
0.0
  0
SPLINE
  5
F1
330
1F
100
AcDbEntity
  8
0
  6
Continuous
 62
     7
370
    25
100
AcDbSpline
210
0.0
220
0.0
230
1.0
 70
     8
 71
     3
 72
    23
 73
    19
 74
     0
 42
0.000000001
 43
0.00000001
 40
0.0
 40
0.0
 40
0.0
 40
0.0
 40
0.0600915961993676
 40
0.1180425330726208
 40
0.1740451709400319
 40
0.229330320114436
 40
0.2841496908292687
 40
0.3386186036369552
 40
0.393633019629272
 40
0.4499131718805275
 40
0.5081323368848819
 40
0.5681590801869908
 40
0.6313187239558629
 40
0.6978203073435132
 40
0.7674862689254859
 40
0.840935249551574
 40
0.9181847264969215
 40
1.0
 40
1.0
 40
1.0
 40
1.0
 10
-0.27514861835442
 20
7.802559411731131
 30
0.0
 10
-0.2751830569078725
 20
7.804112386151338
 30
0.0
 10
-0.275250707200792
 20
7.807163012960284
 30
0.0
 10
-0.2760053683575516
 20
7.811606431242885
 30
0.0
 10
-0.2771464026586434
 20
7.81583238281028
 30
0.0
 10
-0.2787851365946094
 20
7.819807205198875
 30
0.0
 10
-0.28083630484616
 20
7.823540615564323
 30
0.0
 10
-0.2833658110763818
 20
7.82696009456663
 30
0.0
 10
-0.2862858685535047
 20
7.830101125317868
 30
0.0
 10
-0.2896207491340744
 20
7.832948403398895
 30
0.0
 10
-0.2933350149128003
 20
7.835515926264753
 30
0.0
 10
-0.2974728470489766
 20
7.837725903474956
 30
0.0
 10
-0.3019723059862808
 20
7.839677293316973
 30
0.0
 10
-0.306883810816727
 20
7.841235554343066
 30
0.0
 10
-0.3121422659914848
 20
7.842535402539168
 30
0.0
 10
-0.3177688540698635
 20
7.843419223642305
 30
0.0
 10
-0.3237534849640413
 20
7.843952899831813
 30
0.0
 10
-0.3278608057074405
 20
7.84402379055315
 30
0.0
 10
-0.3299734143717657
 20
7.844060253337887
 30
0.0
  0
SPLINE
  5
F2
330
1F
100
AcDbEntity
  8
0
  6
Continuous
 62
     7
370
    25
100
AcDbSpline
210
0.0
220
0.0
230
1.0
 70
     8
 71
     3
 72
    15
 73
    11
 74
     0
 42
0.000000001
 43
0.00000001
 40
0.0
 40
0.0
 40
0.0
 40
0.0
 40
0.1229465867926254
 40
0.2436389528488822
 40
0.3645582777771513
 40
0.4849663436540115
 40
0.6073541429308681
 40
0.7338185168609895
 40
0.86480570820192
 40
0.9999999999999999
 40
0.9999999999999999
 40
0.9999999999999999
 40
0.9999999999999999
 10
-0.2831367502727128
 20
7.770170033093679
 30
0.0
 10
-0.2825074013326687
 20
7.771400355349042
 30
0.0
 10
-0.2812602425401475
 20
7.773838441950573
 30
0.0
 10
-0.2796704717296313
 20
7.777617401295451
 30
0.0
 10
-0.2782892554977869
 20
7.78144603277502
 30
0.0
 10
-0.2771662166381716
 20
7.785378506269755
 30
0.0
 10
-0.27624700217446
 20
7.789427233627085
 30
0.0
 10
-0.2755917548227076
 20
7.793648366077591
 30
0.0
 10
-0.2752198257745567
 20
7.798048872193144
 30
0.0
 10
-0.2751726029527373
 20
7.801040139177722
 30
0.0
 10
-0.27514861835442
 20
7.802559411731131
 30
0.0
  0
SPLINE
  5
F4
330
1F
100
AcDbEntity
  8
0
  6
Continuous
 62
     7
370
    25
100
AcDbSpline
210
0.0
220
0.0
230
1.0
 70
     8
 71
     3
 72
    13
 73
     9
 74
     0
 42
0.000000001
 43
0.00000001
 40
0.0
 40
0.0
 40
0.0
 40
0.0
 40
0.1371043592389841
 40
0.2698395429534732
 40
0.3974480177724828
 40
0.5213207983111571
 40
0.7614259910143962
 40
1.0
 40
1.0
 40
1.0
 40
1.0
 10
-0.2591723545178343
 20
7.803339502738778
 30
0.0
 10
-0.2591887587692121
 20
7.801789172942044
 30
0.0
 10
-0.259221044509205
 20
7.79873791851002
 30
0.0
 10
-0.2595219060656351
 20
7.794253107183478
 30
0.0
 10
-0.2599320414727278
 20
7.789926564934869
 30
0.0
 10
-0.2608183128824323
 20
7.784438299838672
 30
0.0
 10
-0.2623357965333978
 20
7.777778137160705
 30
0.0
 10
-0.2642229132984152
 20
7.772700653885662
 30
0.0
 10
-0.265163453456554
 20
7.770170033093679
 30
0.0
  0
SPLINE
  5
F5
330
1F
100
AcDbEntity
  8
0
  6
Continuous
 62
     7
370
    25
100
AcDbSpline
210
0.0
220
0.0
230
1.0
 70
     8
 71
     3
 72
    23
 73
    19
 74
     0
 42
0.000000001
 43
0.00000001
 40
0.0
 40
0.0
 40
0.0
 40
0.0
 40
0.0762250991228331
 40
0.149256864036005
 40
0.2189663710999969
 40
0.2863457126534337
 40
0.3508545246023346
 40
0.4127187411457879
 40
0.4725147389446573
 40
0.5304698563071076
 40
0.5872616011426978
 40
0.6437988226589446
 40
0.7001954145030616
 40
0.7573330240697215
 40
0.8153924778212762
 40
0.8747323437465174
 40
0.9360592760503507
 40
1.0
 40
1.0
 40
1.0
 40
1.0
 10
-0.3315960036676688
 20
7.864030583133619
 30
0.0
 10
-0.3288899843226742
 20
7.863972810949686
 30
0.0
 10
-0.3235913101838082
 20
7.86385968685931
 30
0.0
 10
-0.3158466746893613
 20
7.863088959620282
 30
0.0
 10
-0.3085014196671431
 20
7.861744260109114
 30
0.0
 10
-0.3015845659411386
 20
7.859877159660857
 30
0.0
 10
-0.2951035867790737
 20
7.857548623216911
 30
0.0
 10
-0.2891104137707035
 20
7.854737788103958
 30
0.0
 10
-0.2836297591003432
 20
7.851457914876294
 30
0.0
 10
-0.278662681675415
 20
7.847732659567558
 30
0.0
 10
-0.2742345752125668
 20
7.84354819741903
 30
0.0
 10
-0.2703126759313298
 20
7.838956944249797
 30
0.0
 10
-0.2669610617856126
 20
7.833919550598546
 30
0.0
 10
-0.2641381334291458
 20
7.828508558787163
 30
0.0
 10
-0.261914974817218
 20
7.822709194318501
 30
0.0
 10
-0.2603343932612071
 20
7.816554169376015
 30
0.0
 10
-0.2593327625316529
 20
7.810060269463365
 30
0.0
 10
-0.2592265625001651
 20
7.805610705998409
 30
0.0
 10
-0.2591723545178343
 20
7.803339502738778
 30
0.0
  0
SPLINE
  5
F6
330
1F
100
AcDbEntity
  8
0
  6
Continuous
 62
     7
370
    25
100
AcDbSpline
210
0.0
220
0.0
230
1.0
 70
     8
 71
     3
 72
    23
 73
    19
 74
     0
 42
0.000000001
 43
0.00000001
 40
0.0
 40
0.0
 40
0.0
 40
0.0
 40
0.0670325867641338
 40
0.1306011657320694
 40
0.1909577785984688
 40
0.2489204977689596
 40
0.3049729679952984
 40
0.3601549466983126
 40
0.4150721920000875
 40
0.4702566010027563
 40
0.5267191004345043
 40
0.5848204792238246
 40
0.6448830734803275
 40
0.7081442972450573
 40
0.7747184915464314
 40
0.8453573561242305
 40
0.9201281364417356
 40
1.0
 40
1.0
 40
1.0
 40
1.0
 10
-0.400961696067532
 20
7.80436922286887
 30
0.0
 10
-0.4009074617295492
 20
7.806701361242602
 30
0.0
 10
-0.4008017956929961
 20
7.811245121299628
 30
0.0
 10
-0.3999916471837035
 20
7.817851015174853
 30
0.0
 10
-0.3986150352119542
 20
7.824035373493946
 30
0.0
 10
-0.3967272141731292
 20
7.829812143847771
 30
0.0
 10
-0.3942445869726469
 20
7.835164636254533
 30
0.0
 10
-0.3911965503235926
 20
7.840090420375454
 30
0.0
 10
-0.3876245068563758
 20
7.84461227067809
 30
0.0
 10
-0.383500932047238
 20
7.848703041215235
 30
0.0
 10
-0.3788248159836795
 20
7.852331393938829
 30
0.0
 10
-0.3736199051120457
 20
7.855486939204519
 30
0.0
 10
-0.367888132637719
 20
7.858158683371607
 30
0.0
 10
-0.3616228917983878
 20
7.860284618096418
 30
0.0
 10
-0.3548482011820228
 20
7.861968334079526
 30
0.0
 10
-0.3475662405409012
 20
7.863172058763486
 30
0.0
 10
-0.3397546409028609
 20
7.863891132540955
 30
0.0
 10
-0.3343747040866779
 20
7.863983088508096
 30
0.0
 10
-0.3315960036676688
 20
7.864030583133619
 30
0.0
  0
SPLINE
  5
F7
330
1F
100
AcDbEntity
  8
0
  6
Continuous
 62
     7
370
    25
100
AcDbSpline
210
0.0
220
0.0
230
1.0
 70
     8
 71
     3
 72
    11
 73
     7
 74
     0
 42
0.000000001
 43
0.00000001
 40
0.0
 40
0.0
 40
0.0
 40
0.0
 40
0.2486221215478425
 40
0.4968578887023173
 40
0.7466739116678761
 40
1.0
 40
1.0
 40
1.0
 40
1.0
 10
-0.3949705971288123
 20
7.770170033093679
 30
0.0
 10
-0.3958973838124627
 20
7.772911225768866
 30
0.0
 10
-0.3977495169695974
 20
7.778389351354152
 30
0.0
 10
-0.3995770704099546
 20
7.786894235973721
 30
0.0
 10
-0.4007524707853362
 20
7.795567771953293
 30
0.0
 10
-0.4008916307001513
 20
7.801421792781021
 30
0.0
 10
-0.400961696067532
 20
7.80436922286887
 30
0.0
  0
SPLINE
  5
13D
330
1F
100
AcDbEntity
  8
0
  6
Continuous
 62
     7
370
    25
100
AcDbSpline
210
0.0
220
0.0
230
1.0
 70
     8
 71
     3
 72
    21
 73
    17
 74
     0
 42
0.000000001
 43
0.00000001
 40
0.0
 40
0.0
 40
0.0
 40
0.0
 40
0.1047889917100664
 40
0.2055496718085525
 40
0.2552762233233118
 40
0.3053897577290606
 40
0.3547195395606088
 40
0.4060868444291544
 40
0.4609349112815289
 40
0.519044192602124
 40
0.5822755280423862
 40
0.6504153112792017
 40
0.7260340123579366
 40
0.8086898182713514
 40
0.9003963041680083
 40
1.0
 40
1.0
 40
1.0
 40
1.0
 10
-0.2968351483669727
 20
7.203012666894891
 30
0.0
 10
-0.2955001135193904
 20
7.203076081919454
 30
0.0
 10
-0.2928813654019087
 20
7.203200474160223
 30
0.0
 10
-0.2896818384462404
 20
7.203936944906382
 30
0.0
 10
-0.2873294851672343
 20
7.204948097678547
 30
0.0
 10
-0.2856718992127475
 20
7.205894844302632
 30
0.0
 10
-0.2841887200098258
 20
7.207126645456516
 30
0.0
 10
-0.2827884769494513
 20
7.208535788405916
 30
0.0
 10
-0.2815480343749254
 20
7.210232545738731
 30
0.0
 10
-0.2804503702685989
 20
7.212196266528789
 30
0.0
 10
-0.2794970686602273
 20
7.214418130088823
 30
0.0
 10
-0.2786363678861122
 20
7.216914810236335
 30
0.0
 10
-0.277963858852021
 20
7.219724853754756
 30
0.0
 10
-0.2774607042744857
 20
7.222873684930649
 30
0.0
 10
-0.2771971612626686
 20
7.226358837218288
 30
0.0
 10
-0.2771632874100413
 20
7.228796880605031
 30
0.0
 10
-0.2771456513339932
 20
7.230066223040046
 30
0.0
  0
SPLINE
  5
141
330
1F
100
AcDbEntity
  8
0
  6
Continuous
 62
     7
370
    25
100
AcDbSpline
210
0.0
220
0.0
230
1.0
 70
     8
 71
     3
 72
    21
 73
    17
 74
     0
 42
0.000000001
 43
0.00000001
 40
0.0
 40
0.0
 40
0.0
 40
0.0
 40
0.148085523558802
 40
0.2833644853359886
 40
0.3472727233242998
 40
0.4079493098012253
 40
0.4671464882916038
 40
0.5244720755896983
 40
0.5804706609471814
 40
0.6358181716802309
 40
0.6912468094086075
 40
0.7477088833280887
 40
0.8060651138812126
 40
0.8668945569800742
 40
0.9310414077635228
 40
1.0
 40
1.0
 40
1.0
 40
1.0
 10
-0.3190833439050304
 20
7.230690295846161
 30
0.0
 10
-0.3190194227836584
 20
7.22869920670253
 30
0.0
 10
-0.3188971084937505
 20
7.224889219494568
 30
0.0
 10
-0.318067477868666
 20
7.220279957380865
 30
0.0
 10
-0.3170954222892191
 20
7.216917691623923
 30
0.0
 10
-0.3160747940733285
 20
7.214665435847516
 30
0.0
 10
-0.3150330991917251
 20
7.212518770014462
 30
0.0
 10
-0.3136882874185595
 20
7.210621985077219
 30
0.0
 10
-0.3122336947730108
 20
7.208877806291354
 30
0.0
 10
-0.3105542046329456
 20
7.207384672738358
 30
0.0
 10
-0.3087401730663756
 20
7.206050561496279
 30
0.0
 10
-0.306722086727533
 20
7.204959191737886
 30
0.0
 10
-0.3045271371582567
 20
7.204075907089771
 30
0.0
 10
-0.3021360886193866
 20
7.203459741645886
 30
0.0
 10
-0.2995518464792973
 20
7.203076724023335
 30
0.0
 10
-0.297762278606254
 20
7.203034527734176
 30
0.0
 10
-0.2968351483669727
 20
7.20301266689489
 30
0.0
  0
SPLINE
  5
142
330
1F
100
AcDbEntity
  8
0
  6
Continuous
 62
     7
370
    25
100
AcDbSpline
210
0.0
220
0.0
230
1.0
 70
     8
 71
     3
 72
    23
 73
    19
 74
     0
 42
0.000000001
 43
0.00000001
 40
0.0
 40
0.0
 40
0.0
 40
0.0
 40
0.0883493599775915
 40
0.169913215348757
 40
0.2444758941720992
 40
0.3133198154993746
 40
0.3768535558138495
 40
0.4360240898309639
 40
0.491530310428376
 40
0.5442171346423968
 40
0.5958970182130742
 40
0.6469404696860886
 40
0.6991013667120661
 40
0.7525895191463942
 40
0.809012808897058
 40
0.8687229967561653
 40
0.932345630774117
 40
1.0
 40
1.0
 40
1.0
 40
1.0
 10
-0.3301294325732949
 20
7.6643272851763
 30
0.0
 10
-0.3277773440049213
 20
7.664347332190861
 30
0.0
 10
-0.3232538145584288
 20
7.664385886547144
 30
0.0
 10
-0.3167678139328697
 20
7.664951596152334
 30
0.0
 10
-0.3108255978835926
 20
7.66571486981571
 30
0.0
 10
-0.3054397824537128
 20
7.66690158774969
 30
0.0
 10
-0.3005666918937349
 20
7.6684214051005
 30
0.0
 10
-0.2961969816845975
 20
7.6702891078134
 30
0.0
 10
-0.2923209267083562
 20
7.67250625839509
 30
0.0
 10
-0.2889270761364643
 20
7.675094903138135
 30
0.0
 10
-0.2860143657440492
 20
7.678049189948624
 30
0.0
 10
-0.2835133456997981
 20
7.681339024834009
 30
0.0
 10
-0.2814387970485792
 20
7.684972537411125
 30
0.0
 10
-0.279853102673136
 20
7.688997233302943
 30
0.0
 10
-0.2786637671548439
 20
7.693356744539695
 30
0.0
 10
-0.2777326990751864
 20
7.698055391720473
 30
0.0
 10
-0.2772664950766123
 20
7.70312480898027
 30
0.0
 10
-0.277186748960176
 20
7.706617863110845
 30
0.0
 10
-0.2771456513339932
 20
7.708418028928437
 30
0.0
  0
SPLINE
  5
145
330
1F
100
AcDbEntity
  8
0
  6
Continuous
 62
     7
370
    25
100
AcDbSpline
210
0.0
220
0.0
230
1.0
 70
     8
 71
     3
 72
    23
 73
    19
 74
     0
 42
0.000000001
 43
0.00000001
 40
0.0
 40
0.0
 40
0.0
 40
0.0
 40
0.0695251730037897
 40
0.1351436759497265
 40
0.1971104909394198
 40
0.2557809285263941
 40
0.3122509104454282
 40
0.3670970737078619
 40
0.421288424654711
 40
0.4756296674491481
 40
0.5306718500147061
 40
0.5875815831728287
 40
0.6469728853755867
 40
0.7093225891819565
 40
0.7752159832023814
 40
0.8455938877975195
 40
0.9204029418940469
 40
1.0
 40
1.0
 40
1.0
 40
1.0
 10
-0.3829883992513731
 20
7.710477469188623
 30
0.0
 10
-0.3829417485183793
 20
7.708614467611183
 30
0.0
 10
-0.3828510683910217
 20
7.704993147870466
 30
0.0
 10
-0.3822863519155994
 20
7.699730941682414
 30
0.0
 10
-0.3812075410934858
 20
7.694848770145958
 30
0.0
 10
-0.3797796125632061
 20
7.690315866420491
 30
0.0
 10
-0.3779482018477892
 20
7.686131047439979
 30
0.0
 10
-0.3756398238314717
 20
7.682331265586773
 30
0.0
 10
-0.3729539403269118
 20
7.678857258473009
 30
0.0
 10
-0.3697933948497179
 20
7.675803118348573
 30
0.0
 10
-0.3662792193519027
 20
7.673045797829742
 30
0.0
 10
-0.3623073231479032
 20
7.670718553501948
 30
0.0
 10
-0.3579526669347325
 20
7.668711507749348
 30
0.0
 10
-0.3531815453578522
 20
7.667094837167666
 30
0.0
 10
-0.3479978951399908
 20
7.665859527757508
 30
0.0
 10
-0.342408234087954
 20
7.664960480134791
 30
0.0
 10
-0.3364010048395775
 20
7.664435405140576
 30
0.0
 10
-0.3322627314573954
 20
7.66436406258862
 30
0.0
 10
-0.3301294325732948
 20
7.664327285176299
 30
0.0
  0
SPLINE
  5
147
330
1F
100
AcDbEntity
  8
0
  6
Continuous
 62
     7
370
    25
100
AcDbSpline
210
0.0
220
0.0
230
1.0
 70
     8
 71
     3
 72
    23
 73
    19
 74
     0
 42
0.000000001
 43
0.00000001
 40
0.0
 40
0.0
 40
0.0
 40
0.0
 40
0.0592559504113908
 40
0.1163484610516581
 40
0.1718878797275641
 40
0.2261959190174744
 40
0.2805039583073909
 40
0.3344172981890724
 40
0.3893814971395212
 40
0.4456260187748948
 40
0.5039826584582162
 40
0.5648973851339298
 40
0.6288580767168616
 40
0.6960712502773015
 40
0.7669986651658407
 40
0.8406242451728666
 40
0.9186785141792441
 40
1.0
 40
1.0
 40
1.0
 40
1.0
 10
-0.3579630797260963
 20
7.199018600935743
 30
0.0
 10
-0.3570978595283193
 20
7.199038358897896
 30
0.0
 10
-0.3553990083955084
 20
7.199077153457325
 30
0.0
 10
-0.3529220016576133
 20
7.199507762358856
 30
0.0
 10
-0.350565152610218
 20
7.200141774061365
 30
0.0
 10
-0.3483648161627334
 20
7.20110361516953
 30
0.0
 10
-0.3462984790904081
 20
7.202276392995222
 30
0.0
 10
-0.3444073906548952
 20
7.203735006816544
 30
0.0
 10
-0.3426938574143259
 20
7.205433226867
 30
0.0
 10
-0.3411124794044241
 20
7.207342502451479
 30
0.0
 10
-0.3397512035723866
 20
7.209517494613049
 30
0.0
 10
-0.3385323407050817
 20
7.211898672119955
 30
0.0
 10
-0.3374679991972815
 20
7.214494576029936
 30
0.0
 10
-0.3365987978772911
 20
7.217315097754148
 30
0.0
 10
-0.3359225779287778
 20
7.220331816087683
 30
0.0
 10
-0.3354248658491638
 20
7.223542017134948
 30
0.0
 10
-0.3351026837776366
 20
7.226928864282977
 30
0.0
 10
-0.3350741613245446
 20
7.229254176211313
 30
0.0
 10
-0.3350596077416161
 20
7.230440666723715
 30
0.0
  0
SPLINE
  5
14B
330
1F
100
AcDbEntity
  8
0
  6
Continuous
 62
     7
370
    25
100
AcDbSpline
210
0.0
220
0.0
230
1.0
 70
     8
 71
     3
 72
    23
 73
    19
 74
     0
 42
0.000000001
 43
0.00000001
 40
0.0
 40
0.0
 40
0.0
 40
0.0
 40
0.0828887745299741
 40
0.1598359353401792
 40
0.232472144030807
 40
0.3005868538903194
 40
0.3642788647146306
 40
0.4241762168497846
 40
0.4811811167210014
 40
0.5353209501410148
 40
0.5881587648771266
 40
0.6411206954564386
 40
0.6946945158750351
 40
0.7498427863239585
 40
0.8070160909929862
 40
0.8673308785160996
 40
0.9314631619375512
 40
1.0
 40
1.0
 40
1.0
 40
1.0
 10
-0.382988399251373
 20
7.229816593917597
 30
0.0
 10
-0.38297236955432
 20
7.22855739181457
 30
0.0
 10
-0.382941459197203
 20
7.226129249438706
 30
0.0
 10
-0.3826503100457159
 20
7.222608288119499
 30
0.0
 10
-0.3822074130883739
 20
7.219328416241347
 30
0.0
 10
-0.3815061649618403
 20
7.216299891668215
 30
0.0
 10
-0.3806766557322304
 20
7.213507099603341
 30
0.0
 10
-0.3796569108655357
 20
7.210953560875734
 30
0.0
 10
-0.3783936249192262
 20
7.208678480849469
 30
0.0
 10
-0.3769951084502051
 20
7.206610339566954
 30
0.0
 10
-0.3753443932221332
 20
7.204817170439354
 30
0.0
 10
-0.3734979740430155
 20
7.203242457636862
 30
0.0
 10
-0.3714173822669328
 20
7.201921234760971
 30
0.0
 10
-0.3691205039515393
 20
7.200872554991829
 30
0.0
 10
-0.3666374745781663
 20
7.200015043745725
 30
0.0
 10
-0.3639353838957899
 20
7.199431968742364
 30
0.0
 10
-0.3610193575443223
 20
7.199092531054317
 30
0.0
 10
-0.3590041404301326
 20
7.199043783771163
 30
0.0
 10
-0.3579630797260963
 20
7.199018600935743
 30
0.0
  0
LINE
  5
14E
330
1F
100
AcDbEntity
  8
0
  6
Continuous
 62
     7
370
    25
100
AcDbLine
 10
-0.25
 20
7.874015748
 30
0.0
 11
-0.25
 21
7.5245091345
 31
0.0
  0
LINE
  5
14F
330
1F
100
AcDbEntity
  8
0
  6
Continuous
 62
     7
370
    25
100
AcDbLine
 10
-0.2058058262
 20
7.4803149606
 30
0.0
 11
0.0
 21
7.4803149606
 31
0.0
  0
LINE
  5
150
330
1F
100
AcDbEntity
  8
0
  6
Continuous
 62
     7
370
    25
100
AcDbLine
 10
0.0
 20
7.4803149606
 30
0.0
 11
0.0
 21
7.0866141732
 31
0.0
  0
LINE
  5
151
330
1F
100
AcDbEntity
  8
0
  6
Continuous
 62
     7
370
    25
100
AcDbLine
 10
0.0
 20
7.0866141732
 30
0.0
 11
-0.2058058262
 21
7.0866141732
 31
0.0
  0
LINE
  5
152
330
1F
100
AcDbEntity
  8
0
  6
Continuous
 62
     7
370
    25
100
AcDbLine
 10
-0.25
 20
7.0424199994
 30
0.0
 11
-0.25
 21
6.7371075597
 31
0.0
  0
LINE
  5
153
330
1F
100
AcDbEntity
  8
0
  6
Continuous
 62
     7
370
    25
100
AcDbLine
 10
-0.2058058262
 20
6.6929133858
 30
0.0
 11
0.0
 21
6.6929133858
 31
0.0
  0
LINE
  5
154
330
1F
100
AcDbEntity
  8
0
  6
Continuous
 62
     7
370
    25
100
AcDbLine
 10
0.0
 20
6.6929133858
 30
0.0
 11
0.0
 21
6.2992125984
 31
0.0
  0
LINE
  5
155
330
1F
100
AcDbEntity
  8
0
  6
Continuous
 62
     7
370
    25
100
AcDbLine
 10
0.0
 20
6.2992125984
 30
0.0
 11
-0.2058058262
 21
6.2992125984
 31
0.0
  0
LINE
  5
156
330
1F
100
AcDbEntity
  8
0
  6
Continuous
 62
     7
370
    25
100
AcDbLine
 10
-0.25
 20
6.2550184246
 30
0.0
 11
-0.25
 21
5.9497059848
 31
0.0
  0
LINE
  5
157
330
1F
100
AcDbEntity
  8
0
  6
Continuous
 62
     7
370
    25
100
AcDbLine
 10
-0.2058058262
 20
5.905511811
 30
0.0
 11
0.0
 21
5.905511811
 31
0.0
  0
LINE
  5
158
330
1F
100
AcDbEntity
  8
0
  6
Continuous
 62
     7
370
    25
100
AcDbLine
 10
0.0
 20
5.905511811
 30
0.0
 11
0.0
 21
5.5118110236
 31
0.0
  0
LINE
  5
159
330
1F
100
AcDbEntity
  8
0
  6
Continuous
 62
     7
370
    25
100
AcDbLine
 10
0.0
 20
5.5118110236
 30
0.0
 11
-0.2058058262
 21
5.5118110236
 31
0.0
  0
LINE
  5
15A
330
1F
100
AcDbEntity
  8
0
  6
Continuous
 62
     7
370
    25
100
AcDbLine
 10
-0.25
 20
5.4676168498
 30
0.0
 11
-0.25
 21
5.16230441
 31
0.0
  0
LINE
  5
15B
330
1F
100
AcDbEntity
  8
0
  6
Continuous
 62
     7
370
    25
100
AcDbLine
 10
-0.2058058262
 20
5.1181102362
 30
0.0
 11
0.0
 21
5.1181102362
 31
0.0
  0
LINE
  5
15C
330
1F
100
AcDbEntity
  8
0
  6
Continuous
 62
     7
370
    25
100
AcDbLine
 10
0.0
 20
5.1181102362
 30
0.0
 11
0.0
 21
4.7244094488
 31
0.0
  0
LINE
  5
15D
330
1F
100
AcDbEntity
  8
0
  6
Continuous
 62
     7
370
    25
100
AcDbLine
 10
0.0
 20
4.7244094488
 30
0.0
 11
-0.2058058262
 21
4.7244094488
 31
0.0
  0
LINE
  5
15E
330
1F
100
AcDbEntity
  8
0
  6
Continuous
 62
     7
370
    25
100
AcDbLine
 10
-0.25
 20
4.680215275
 30
0.0
 11
-0.25
 21
4.3749028352
 31
0.0
  0
LINE
  5
15F
330
1F
100
AcDbEntity
  8
0
  6
Continuous
 62
     7
370
    25
100
AcDbLine
 10
-0.2058058262
 20
4.3307086614
 30
0.0
 11
0.0
 21
4.3307086614
 31
0.0
  0
LINE
  5
160
330
1F
100
AcDbEntity
  8
0
  6
Continuous
 62
     7
370
    25
100
AcDbLine
 10
0.0
 20
4.3307086614
 30
0.0
 11
0.0
 21
3.937007874
 31
0.0
  0
LINE
  5
161
330
1F
100
AcDbEntity
  8
0
  6
Continuous
 62
     7
370
    25
100
AcDbLine
 10
0.0
 20
3.937007874
 30
0.0
 11
-0.2058058262
 21
3.937007874
 31
0.0
  0
LINE
  5
162
330
1F
100
AcDbEntity
  8
0
  6
Continuous
 62
     7
370
    25
100
AcDbLine
 10
-0.25
 20
3.8928137002
 30
0.0
 11
-0.25
 21
3.5875012604
 31
0.0
  0
LINE
  5
163
330
1F
100
AcDbEntity
  8
0
  6
Continuous
 62
     7
370
    25
100
AcDbLine
 10
-0.2058058262
 20
3.5433070866
 30
0.0
 11
0.0
 21
3.5433070866
 31
0.0
  0
LINE
  5
164
330
1F
100
AcDbEntity
  8
0
  6
Continuous
 62
     7
370
    25
100
AcDbLine
 10
0.0
 20
3.5433070866
 30
0.0
 11
0.0
 21
3.1496062992
 31
0.0
  0
LINE
  5
165
330
1F
100
AcDbEntity
  8
0
  6
Continuous
 62
     7
370
    25
100
AcDbLine
 10
0.0
 20
3.1496062992
 30
0.0
 11
-0.2058058262
 21
3.1496062992
 31
0.0
  0
LINE
  5
166
330
1F
100
AcDbEntity
  8
0
  6
Continuous
 62
     7
370
    25
100
AcDbLine
 10
-0.25
 20
3.1054121254
 30
0.0
 11
-0.25
 21
2.8000996856
 31
0.0
  0
LINE
  5
167
330
1F
100
AcDbEntity
  8
0
  6
Continuous
 62
     7
370
    25
100
AcDbLine
 10
-0.2058058262
 20
2.7559055118
 30
0.0
 11
0.0
 21
2.7559055118
 31
0.0
  0
LINE
  5
168
330
1F
100
AcDbEntity
  8
0
  6
Continuous
 62
     7
370
    25
100
AcDbLine
 10
0.0
 20
2.7559055118
 30
0.0
 11
0.0
 21
2.3622047244
 31
0.0
  0
LINE
  5
169
330
1F
100
AcDbEntity
  8
0
  6
Continuous
 62
     7
370
    25
100
AcDbLine
 10
0.0
 20
2.3622047244
 30
0.0
 11
-0.2058058262
 21
2.3622047244
 31
0.0
  0
LINE
  5
16A
330
1F
100
AcDbEntity
  8
0
  6
Continuous
 62
     7
370
    25
100
AcDbLine
 10
-0.25
 20
2.3180105506
 30
0.0
 11
-0.25
 21
2.0126981108
 31
0.0
  0
LINE
  5
16B
330
1F
100
AcDbEntity
  8
0
  6
Continuous
 62
     7
370
    25
100
AcDbLine
 10
-0.2058058262
 20
1.968503937
 30
0.0
 11
0.0
 21
1.968503937
 31
0.0
  0
LINE
  5
16C
330
1F
100
AcDbEntity
  8
0
  6
Continuous
 62
     7
370
    25
100
AcDbLine
 10
0.0
 20
1.968503937
 30
0.0
 11
0.0
 21
1.5748031496
 31
0.0
  0
LINE
  5
16D
330
1F
100
AcDbEntity
  8
0
  6
Continuous
 62
     7
370
    25
100
AcDbLine
 10
0.0
 20
1.5748031496
 30
0.0
 11
-0.2058058262
 21
1.5748031496
 31
0.0
  0
LINE
  5
16E
330
1F
100
AcDbEntity
  8
0
  6
Continuous
 62
     7
370
    25
100
AcDbLine
 10
-0.25
 20
1.5306089758
 30
0.0
 11
-0.25
 21
1.225296536
 31
0.0
  0
LINE
  5
16F
330
1F
100
AcDbEntity
  8
0
  6
Continuous
 62
     7
370
    25
100
AcDbLine
 10
-0.2058058262
 20
1.1811023622
 30
0.0
 11
0.0
 21
1.1811023622
 31
0.0
  0
LINE
  5
170
330
1F
100
AcDbEntity
  8
0
  6
Continuous
 62
     7
370
    25
100
AcDbLine
 10
0.0
 20
1.1811023622
 30
0.0
 11
0.0
 21
0.7874015748
 31
0.0
  0
LINE
  5
171
330
1F
100
AcDbEntity
  8
0
  6
Continuous
 62
     7
370
    25
100
AcDbLine
 10
0.0
 20
0.7874015748
 30
0.0
 11
-0.2058058262
 21
0.7874015748
 31
0.0
  0
LINE
  5
172
330
1F
100
AcDbEntity
  8
0
  6
Continuous
 62
     7
370
    25
100
AcDbLine
 10
-0.25
 20
0.743207401
 30
0.0
 11
-0.25
 21
0.4378949612
 31
0.0
  0
LINE
  5
173
330
1F
100
AcDbEntity
  8
0
  6
Continuous
 62
     7
370
    25
100
AcDbLine
 10
-0.2058058262
 20
0.3937007874
 30
0.0
 11
0.0
 21
0.3937007874
 31
0.0
  0
LINE
  5
174
330
1F
100
AcDbEntity
  8
0
  6
Continuous
 62
     7
370
    25
100
AcDbLine
 10
0.0
 20
0.3937007874
 30
0.0
 11
0.0
 21
0.0
 31
0.0
  0
LINE
  5
175
330
1F
100
AcDbEntity
  8
0
  6
Continuous
 62
     7
370
    25
100
AcDbLine
 10
-0.44906175
 20
7.874015748
 30
0.0
 11
-0.44906175
 21
0.0
 31
0.0
  0
LINE
  5
176
330
1F
100
AcDbEntity
  8
0
  6
Continuous
 62
     7
370
    25
100
AcDbLine
 10
-0.2611693875
 20
7.7442086044
 30
0.0
 11
-0.2611693875
 21
7.7085740471
 31
0.0
  0
LINE
  5
177
330
1F
100
AcDbEntity
  8
0
  6
Continuous
 62
     7
370
    25
100
AcDbLine
 10
-0.3989646631
 20
7.7442086044
 30
0.0
 11
-0.2611693875
 21
7.7442086044
 31
0.0
  0
LINE
  5
178
330
1F
100
AcDbEntity
  8
0
  6
Continuous
 62
     7
370
    25
100
AcDbLine
 10
-0.3989646631
 20
7.7145963497
 30
0.0
 11
-0.3989646631
 21
7.7442086044
 31
0.0
  0
LINE
  5
179
330
1F
100
AcDbEntity
  8
0
  6
Continuous
 62
     7
370
    25
100
AcDbLine
 10
-0.3809913663
 20
7.4806002511
 30
0.0
 11
-0.3809913663
 21
7.4146981627
 31
0.0
  0
LINE
  5
17A
330
1F
100
AcDbEntity
  8
0
  6
Continuous
 62
     7
370
    25
100
AcDbLine
 10
-0.3567149341
 20
7.4562926153
 30
0.0
 11
-0.3809913663
 21
7.4806002511
 31
0.0
  0
LINE
  5
17B
330
1F
100
AcDbEntity
  8
0
  6
Continuous
 62
     7
370
    25
100
AcDbLine
 10
-0.2891278492
 20
7.4946106856
 30
0.0
 11
-0.2771144477
 21
7.5045646468
 31
0.0
  0
LINE
  5
17C
330
1F
100
AcDbEntity
  8
0
  6
Continuous
 62
     7
370
    25
100
AcDbLine
 10
-0.3820210864
 20
7.5045646468
 30
0.0
 11
-0.3469481947
 21
7.4698661988
 31
0.0
  0
LINE
  5
17D
330
1F
100
AcDbEntity
  8
0
  6
Continuous
 62
     7
370
    25
100
AcDbLine
 10
-0.3989646631
 20
7.5045646468
 30
0.0
 11
-0.3820210864
 21
7.5045646468
 31
0.0
  0
LINE
  5
17E
330
1F
100
AcDbEntity
  8
0
  6
Continuous
 62
     7
370
    25
100
AcDbLine
 10
-0.3989646631
 20
7.4146981627
 30
0.0
 11
-0.3989646631
 21
7.5045646468
 31
0.0
  0
LINE
  5
17F
330
1F
100
AcDbEntity
  8
0
  6
Continuous
 62
     7
370
    25
100
AcDbLine
 10
-0.3809913663
 20
7.4146981627
 30
0.0
 11
-0.3989646631
 21
7.4146981627
 31
0.0
  0
LINE
  5
180
330
1F
100
AcDbEntity
  8
0
  6
Continuous
 62
     7
370
    25
100
AcDbLine
 10
-0.2611693875
 20
7.2689147552
 30
0.0
 11
-0.2611693875
 21
7.2293173357
 31
0.0
  0
LINE
  5
181
330
1F
100
AcDbEntity
  8
0
  6
Continuous
 62
     7
370
    25
100
AcDbLine
 10
-0.3989646631
 20
7.2689147552
 30
0.0
 11
-0.2611693875
 21
7.2689147552
 31
0.0
  0
LINE
  5
182
330
1F
100
AcDbEntity
  8
0
  6
Continuous
 62
     7
370
    25
100
AcDbLine
 10
-0.3989646631
 20
7.2330929761
 30
0.0
 11
-0.3989646631
 21
7.2689147552
 31
0.0
  0
LINE
  5
183
330
1F
100
AcDbEntity
  8
0
  6
Continuous
 62
     7
370
    25
100
AcDbLine
 10
-0.2611693875
 20
7.0392559626
 30
0.0
 11
-0.2611693875
 21
6.9394043136
 31
0.0
  0
LINE
  5
184
330
1F
100
AcDbEntity
  8
0
  6
Continuous
 62
     7
370
    25
100
AcDbLine
 10
-0.2771456513
 20
7.0392559626
 30
0.0
 11
-0.2611693875
 21
7.0392559626
 31
0.0
  0
LINE
  5
185
330
1F
100
AcDbEntity
  8
0
  6
Continuous
 62
     7
370
    25
100
AcDbLine
 10
-0.2771456513
 20
6.999315303
 30
0.0
 11
-0.2771456513
 21
7.0392559626
 31
0.0
  0
LINE
  5
186
330
1F
100
AcDbEntity
  8
0
  6
Continuous
 62
     7
370
    25
100
AcDbLine
 10
-0.3989646631
 20
6.999315303
 30
0.0
 11
-0.2771456513
 21
6.999315303
 31
0.0
  0
LINE
  5
187
330
1F
100
AcDbEntity
  8
0
  6
Continuous
 62
     7
370
    25
100
AcDbLine
 10
-0.3989646631
 20
6.9793449732
 30
0.0
 11
-0.3989646631
 21
6.999315303
 31
0.0
  0
LINE
  5
188
330
1F
100
AcDbEntity
  8
0
  6
Continuous
 62
     7
370
    25
100
AcDbLine
 10
-0.2771456513
 20
6.9793449732
 30
0.0
 11
-0.3989646631
 21
6.9793449732
 31
0.0
  0
LINE
  5
189
330
1F
100
AcDbEntity
  8
0
  6
Continuous
 62
     7
370
    25
100
AcDbLine
 10
-0.2771456513
 20
6.9394043136
 30
0.0
 11
-0.2771456513
 21
6.9793449732
 31
0.0
  0
LINE
  5
18A
330
1F
100
AcDbEntity
  8
0
  6
Continuous
 62
     7
370
    25
100
AcDbLine
 10
-0.2611693875
 20
6.9394043136
 30
0.0
 11
-0.2771456513
 21
6.9394043136
 31
0.0
  0
LINE
  5
18B
330
1F
100
AcDbEntity
  8
0
  6
Continuous
 62
     7
370
    25
100
AcDbLine
 10
-0.3829883993
 20
7.1490927764
 30
0.0
 11
-0.3829883993
 21
7.1171402488
 31
0.0
  0
LINE
  5
18C
330
1F
100
AcDbEntity
  8
0
  6
Continuous
 62
     7
370
    25
100
AcDbLine
 10
-0.3989646631
 20
7.1490927764
 30
0.0
 11
-0.3829883993
 21
7.1490927764
 31
0.0
  0
LINE
  5
18D
330
1F
100
AcDbEntity
  8
0
  6
Continuous
 62
     7
370
    25
100
AcDbLine
 10
-0.3989646631
 20
7.0652173913
 30
0.0
 11
-0.3989646631
 21
7.1490927764
 31
0.0
  0
LINE
  5
18E
330
1F
100
AcDbEntity
  8
0
  6
Continuous
 62
     7
370
    25
100
AcDbLine
 10
-0.3829883993
 20
7.0652173913
 30
0.0
 11
-0.3989646631
 21
7.0652173913
 31
0.0
  0
LINE
  5
18F
330
1F
100
AcDbEntity
  8
0
  6
Continuous
 62
     7
370
    25
100
AcDbLine
 10
-0.3829883993
 20
7.097169919
 30
0.0
 11
-0.3829883993
 21
7.0652173913
 31
0.0
  0
LINE
  5
190
330
1F
100
AcDbEntity
  8
0
  6
Continuous
 62
     7
370
    25
100
AcDbLine
 10
-0.2771456513
 20
7.097169919
 30
0.0
 11
-0.3829883993
 21
7.097169919
 31
0.0
  0
LINE
  5
191
330
1F
100
AcDbEntity
  8
0
  6
Continuous
 62
     7
370
    25
100
AcDbLine
 10
-0.2771456513
 20
7.0652173913
 30
0.0
 11
-0.2771456513
 21
7.097169919
 31
0.0
  0
LINE
  5
192
330
1F
100
AcDbEntity
  8
0
  6
Continuous
 62
     7
370
    25
100
AcDbLine
 10
-0.2611693875
 20
7.0652173913
 30
0.0
 11
-0.2771456513
 21
7.0652173913
 31
0.0
  0
LINE
  5
193
330
1F
100
AcDbEntity
  8
0
  6
Continuous
 62
     7
370
    25
100
AcDbLine
 10
-0.2611693875
 20
7.1490927764
 30
0.0
 11
-0.2611693875
 21
7.0652173913
 31
0.0
  0
LINE
  5
194
330
1F
100
AcDbEntity
  8
0
  6
Continuous
 62
     7
370
    25
100
AcDbLine
 10
-0.2771456513
 20
7.1490927764
 30
0.0
 11
-0.2611693875
 21
7.1490927764
 31
0.0
  0
LINE
  5
195
330
1F
100
AcDbEntity
  8
0
  6
Continuous
 62
     7
370
    25
100
AcDbLine
 10
-0.2771456513
 20
7.1171402488
 30
0.0
 11
-0.2771456513
 21
7.1490927764
 31
0.0
  0
LINE
  5
196
330
1F
100
AcDbEntity
  8
0
  6
Continuous
 62
     7
370
    25
100
AcDbLine
 10
-0.3829883993
 20
7.1171402488
 30
0.0
 11
-0.2771456513
 21
7.1171402488
 31
0.0
  0
LINE
  5
197
330
1F
100
AcDbEntity
  8
0
  6
Continuous
 62
     7
370
    25
100
AcDbLine
 10
-0.4269231248
 20
7.4027159649
 30
0.0
 11
-0.4269231248
 21
7.2848910191
 31
0.0
  0
LINE
  5
198
330
1F
100
AcDbEntity
  8
0
  6
Continuous
 62
     7
370
    25
100
AcDbLine
 10
-0.4428993886
 20
7.4027159649
 30
0.0
 11
-0.4269231248
 21
7.4027159649
 31
0.0
  0
LINE
  5
199
330
1F
100
AcDbEntity
  8
0
  6
Continuous
 62
     7
370
    25
100
AcDbLine
 10
-0.4428993886
 20
7.2848910191
 30
0.0
 11
-0.4428993886
 21
7.4027159649
 31
0.0
  0
LINE
  5
19A
330
1F
100
AcDbEntity
  8
0
  6
Continuous
 62
     7
370
    25
100
AcDbLine
 10
-0.4269231248
 20
7.2848910191
 30
0.0
 11
-0.4428993886
 21
7.2848910191
 31
0.0
  0
LINE
  5
19B
330
1F
100
AcDbEntity
  8
0
  6
Continuous
 62
     7
370
    25
100
AcDbLine
 10
-0.3210803769
 20
7.5305260755
 30
0.0
 11
-0.3925055095
 21
7.5305260755
 31
0.0
  0
LINE
  5
19C
330
1F
100
AcDbEntity
  8
0
  6
Continuous
 62
     7
370
    25
100
AcDbLine
 10
-0.3210803769
 20
7.5782052379
 30
0.0
 11
-0.3210803769
 21
7.5305260755
 31
0.0
  0
LINE
  5
19D
330
1F
100
AcDbEntity
  8
0
  6
Continuous
 62
     7
370
    25
100
AcDbLine
 10
-0.3370566407
 20
7.5782052379
 30
0.0
 11
-0.3210803769
 21
7.5782052379
 31
0.0
  0
LINE
  5
19E
330
1F
100
AcDbEntity
  8
0
  6
Continuous
 62
     7
370
    25
100
AcDbLine
 10
-0.3370566407
 20
7.5504964053
 30
0.0
 11
-0.3370566407
 21
7.5782052379
 31
0.0
  0
LINE
  5
19F
330
1F
100
AcDbEntity
  8
0
  6
Continuous
 62
     7
370
    25
100
AcDbLine
 10
-0.38205229
 20
7.5504964053
 30
0.0
 11
-0.3370566407
 21
7.5504964053
 31
0.0
  0
LINE
  5
1A0
330
1F
100
AcDbEntity
  8
0
  6
Continuous
 62
     7
370
    25
100
AcDbLine
 10
-0.2651634535
 20
7.5305260755
 30
0.0
 11
-0.2831367503
 21
7.5305260755
 31
0.0
  0
LINE
  5
1A1
330
1F
100
AcDbEntity
  8
0
  6
Continuous
 62
     7
370
    25
100
AcDbLine
 10
-0.2651634535
 20
7.7701700331
 30
0.0
 11
-0.2831367503
 21
7.7701700331
 31
0.0
  0
LINE
  5
1A2
330
1F
100
AcDbEntity
  8
0
  6
Continuous
 62
     7
370
    25
100
AcDbLine
 10
-0.3769973003
 20
7.7701700331
 30
0.0
 11
-0.3949705971
 21
7.7701700331
 31
0.0
  0
LINE
  5
1A3
330
1F
100
AcDbEntity
  8
0
  6
Continuous
 62
     7
370
    25
100
AcDbLine
 10
-0.6864880537
 20
-0.0441941738
 30
0.0
 11
-0.6864880537
 21
-0.21875
 31
0.0
  0
LINE
  5
1A4
330
1F
100
AcDbEntity
  8
0
  6
Continuous
 62
     7
370
    25
100
AcDbLine
 10
-0.7177380537
 20
-0.25
 30
0.0
 11
-0.6864880537
 21
-0.21875
 31
0.0
  0
LINE
  5
1A5
330
1F
100
AcDbEntity
  8
0
  6
Continuous
 62
     7
370
    25
100
AcDbLine
 10
-0.7177380537
 20
-0.25
 30
0.0
 11
-0.8520884474
 21
-0.25
 31
0.0
  0
LINE
  5
1A6
330
1F
100
AcDbEntity
  8
0
  6
Continuous
 62
     7
370
    25
100
AcDbLine
 10
-0.8833384474
 20
-0.21875
 30
0.0
 11
-0.8520884474
 21
-0.25
 31
0.0
  0
LINE
  5
1A7
330
1F
100
AcDbEntity
  8
0
  6
Continuous
 62
     7
370
    25
100
AcDbLine
 10
-0.8833384474
 20
-0.21875
 30
0.0
 11
-0.8833384474
 21
0.3937007874
 31
0.0
  0
LINE
  5
1A8
330
1F
100
AcDbEntity
  8
0
  6
Continuous
 62
     7
370
    25
100
AcDbLine
 10
-0.8833384474
 20
0.3937007874
 30
0.0
 11
-0.7507559259
 21
0.3937007874
 31
0.0
  0
LINE
  5
1A9
330
1F
100
AcDbEntity
  8
0
  6
Continuous
 62
     7
370
    25
100
AcDbLine
 10
-0.7065617521
 20
0.4378949612
 30
0.0
 11
-0.7065617521
 21
0.743207401
 31
0.0
  0
LINE
  5
1AA
330
1F
100
AcDbEntity
  8
0
  6
Continuous
 62
     7
370
    25
100
AcDbLine
 10
-0.7507559259
 20
0.7874015748
 30
0.0
 11
-0.8833384474
 21
0.7874015748
 31
0.0
  0
LINE
  5
1AB
330
1F
100
AcDbEntity
  8
0
  6
Continuous
 62
     7
370
    25
100
AcDbLine
 10
-0.8833384474
 20
0.7874015748
 30
0.0
 11
-0.8833384474
 21
1.1811023622
 31
0.0
  0
LINE
  5
1AC
330
1F
100
AcDbEntity
  8
0
  6
Continuous
 62
     7
370
    25
100
AcDbLine
 10
-0.8833384474
 20
1.1811023622
 30
0.0
 11
-0.7507559259
 21
1.1811023622
 31
0.0
  0
LINE
  5
1AD
330
1F
100
AcDbEntity
  8
0
  6
Continuous
 62
     7
370
    25
100
AcDbLine
 10
-0.7065617521
 20
1.225296536
 30
0.0
 11
-0.7065617521
 21
1.5306089758
 31
0.0
  0
LINE
  5
1AE
330
1F
100
AcDbEntity
  8
0
  6
Continuous
 62
     7
370
    25
100
AcDbLine
 10
-0.7507559259
 20
1.5748031496
 30
0.0
 11
-0.8833384474
 21
1.5748031496
 31
0.0
  0
LINE
  5
1AF
330
1F
100
AcDbEntity
  8
0
  6
Continuous
 62
     7
370
    25
100
AcDbLine
 10
-0.8833384474
 20
1.5748031496
 30
0.0
 11
-0.8833384474
 21
1.968503937
 31
0.0
  0
LINE
  5
1B0
330
1F
100
AcDbEntity
  8
0
  6
Continuous
 62
     7
370
    25
100
AcDbLine
 10
-0.8833384474
 20
1.968503937
 30
0.0
 11
-0.7507559259
 21
1.968503937
 31
0.0
  0
LINE
  5
1B1
330
1F
100
AcDbEntity
  8
0
  6
Continuous
 62
     7
370
    25
100
AcDbLine
 10
-0.7065617521
 20
2.0126981108
 30
0.0
 11
-0.7065617521
 21
2.3180105506
 31
0.0
  0
LINE
  5
1B2
330
1F
100
AcDbEntity
  8
0
  6
Continuous
 62
     7
370
    25
100
AcDbLine
 10
-0.7507559259
 20
2.3622047244
 30
0.0
 11
-0.8833384474
 21
2.3622047244
 31
0.0
  0
LINE
  5
1B3
330
1F
100
AcDbEntity
  8
0
  6
Continuous
 62
     7
370
    25
100
AcDbLine
 10
-0.8833384474
 20
2.3622047244
 30
0.0
 11
-0.8833384474
 21
2.7559055118
 31
0.0
  0
LINE
  5
1B4
330
1F
100
AcDbEntity
  8
0
  6
Continuous
 62
     7
370
    25
100
AcDbLine
 10
-0.8833384474
 20
2.7559055118
 30
0.0
 11
-0.7507559259
 21
2.7559055118
 31
0.0
  0
LINE
  5
1B5
330
1F
100
AcDbEntity
  8
0
  6
Continuous
 62
     7
370
    25
100
AcDbLine
 10
-0.7065617521
 20
2.8000996856
 30
0.0
 11
-0.7065617521
 21
3.1054121254
 31
0.0
  0
LINE
  5
1B6
330
1F
100
AcDbEntity
  8
0
  6
Continuous
 62
     7
370
    25
100
AcDbLine
 10
-0.7507559259
 20
3.1496062992
 30
0.0
 11
-0.8833384474
 21
3.1496062992
 31
0.0
  0
LINE
  5
1B7
330
1F
100
AcDbEntity
  8
0
  6
Continuous
 62
     7
370
    25
100
AcDbLine
 10
-0.8833384474
 20
3.1496062992
 30
0.0
 11
-0.8833384474
 21
3.5433070866
 31
0.0
  0
LINE
  5
1B8
330
1F
100
AcDbEntity
  8
0
  6
Continuous
 62
     7
370
    25
100
AcDbLine
 10
-0.8833384474
 20
3.5433070866
 30
0.0
 11
-0.7507559259
 21
3.5433070866
 31
0.0
  0
LINE
  5
1B9
330
1F
100
AcDbEntity
  8
0
  6
Continuous
 62
     7
370
    25
100
AcDbLine
 10
-0.7065617521
 20
3.5875012604
 30
0.0
 11
-0.7065617521
 21
3.8928137002
 31
0.0
  0
LINE
  5
1BA
330
1F
100
AcDbEntity
  8
0
  6
Continuous
 62
     7
370
    25
100
AcDbLine
 10
-0.7507559259
 20
3.937007874
 30
0.0
 11
-0.8833384474
 21
3.937007874
 31
0.0
  0
LINE
  5
1BB
330
1F
100
AcDbEntity
  8
0
  6
Continuous
 62
     7
370
    25
100
AcDbLine
 10
-0.8833384474
 20
3.937007874
 30
0.0
 11
-0.8833384474
 21
4.3307086614
 31
0.0
  0
LINE
  5
1BC
330
1F
100
AcDbEntity
  8
0
  6
Continuous
 62
     7
370
    25
100
AcDbLine
 10
-0.8833384474
 20
4.3307086614
 30
0.0
 11
-0.7507559259
 21
4.3307086614
 31
0.0
  0
LINE
  5
1BD
330
1F
100
AcDbEntity
  8
0
  6
Continuous
 62
     7
370
    25
100
AcDbLine
 10
-0.7065617521
 20
4.3749028352
 30
0.0
 11
-0.7065617521
 21
4.680215275
 31
0.0
  0
LINE
  5
1BE
330
1F
100
AcDbEntity
  8
0
  6
Continuous
 62
     7
370
    25
100
AcDbLine
 10
-0.7507559259
 20
4.7244094488
 30
0.0
 11
-0.8833384474
 21
4.7244094488
 31
0.0
  0
LINE
  5
1BF
330
1F
100
AcDbEntity
  8
0
  6
Continuous
 62
     7
370
    25
100
AcDbLine
 10
-0.8833384474
 20
4.7244094488
 30
0.0
 11
-0.8833384474
 21
5.1181102362
 31
0.0
  0
LINE
  5
1C0
330
1F
100
AcDbEntity
  8
0
  6
Continuous
 62
     7
370
    25
100
AcDbLine
 10
-0.8833384474
 20
5.1181102362
 30
0.0
 11
-0.7507559259
 21
5.1181102362
 31
0.0
  0
LINE
  5
1C1
330
1F
100
AcDbEntity
  8
0
  6
Continuous
 62
     7
370
    25
100
AcDbLine
 10
-0.7065617521
 20
5.16230441
 30
0.0
 11
-0.7065617521
 21
5.4676168498
 31
0.0
  0
LINE
  5
1C2
330
1F
100
AcDbEntity
  8
0
  6
Continuous
 62
     7
370
    25
100
AcDbLine
 10
-0.7507559259
 20
5.5118110236
 30
0.0
 11
-0.8833384474
 21
5.5118110236
 31
0.0
  0
LINE
  5
1C3
330
1F
100
AcDbEntity
  8
0
  6
Continuous
 62
     7
370
    25
100
AcDbLine
 10
-0.8833384474
 20
5.5118110236
 30
0.0
 11
-0.8833384474
 21
5.905511811
 31
0.0
  0
LINE
  5
1C4
330
1F
100
AcDbEntity
  8
0
  6
Continuous
 62
     7
370
    25
100
AcDbLine
 10
-0.8833384474
 20
5.905511811
 30
0.0
 11
-0.7507559259
 21
5.905511811
 31
0.0
  0
LINE
  5
1C5
330
1F
100
AcDbEntity
  8
0
  6
Continuous
 62
     7
370
    25
100
AcDbLine
 10
-0.7065617521
 20
5.9497059848
 30
0.0
 11
-0.7065617521
 21
6.2550184246
 31
0.0
  0
LINE
  5
1C6
330
1F
100
AcDbEntity
  8
0
  6
Continuous
 62
     7
370
    25
100
AcDbLine
 10
-0.7507559259
 20
6.2992125984
 30
0.0
 11
-0.8833384474
 21
6.2992125984
 31
0.0
  0
LINE
  5
1C7
330
1F
100
AcDbEntity
  8
0
  6
Continuous
 62
     7
370
    25
100
AcDbLine
 10
-0.8833384474
 20
6.2992125984
 30
0.0
 11
-0.8833384474
 21
6.6929133858
 31
0.0
  0
LINE
  5
1C8
330
1F
100
AcDbEntity
  8
0
  6
Continuous
 62
     7
370
    25
100
AcDbLine
 10
-0.8833384474
 20
6.6929133858
 30
0.0
 11
-0.7507559259
 21
6.6929133858
 31
0.0
  0
LINE
  5
1C9
330
1F
100
AcDbEntity
  8
0
  6
Continuous
 62
     7
370
    25
100
AcDbLine
 10
-0.7065617521
 20
6.7371075597
 30
0.0
 11
-0.7065617521
 21
7.0424199994
 31
0.0
  0
LINE
  5
1CA
330
1F
100
AcDbEntity
  8
0
  6
Continuous
 62
     7
370
    25
100
AcDbLine
 10
-0.7507559259
 20
7.0866141732
 30
0.0
 11
-0.8833384474
 21
7.0866141732
 31
0.0
  0
LINE
  5
1CB
330
1F
100
AcDbEntity
  8
0
  6
Continuous
 62
     7
370
    25
100
AcDbLine
 10
-0.8833384474
 20
7.0866141732
 30
0.0
 11
-0.8833384474
 21
8.092765748
 31
0.0
  0
LINE
  5
1CC
330
1F
100
AcDbEntity
  8
0
  6
Continuous
 62
     7
370
    25
100
AcDbLine
 10
-0.8520884474
 20
8.124015748
 30
0.0
 11
-0.8833384474
 21
8.092765748
 31
0.0
  0
LINE
  5
1CD
330
1F
100
AcDbEntity
  8
0
  6
Continuous
 62
     7
370
    25
100
AcDbLine
 10
-0.8520884474
 20
8.124015748
 30
0.0
 11
-0.7177380537
 21
8.124015748
 31
0.0
  0
LINE
  5
1CE
330
1F
100
AcDbEntity
  8
0
  6
Continuous
 62
     7
370
    25
100
AcDbLine
 10
-0.6864880537
 20
8.092765748
 30
0.0
 11
-0.7177380537
 21
8.124015748
 31
0.0
  0
LINE
  5
1CF
330
1F
100
AcDbEntity
  8
0
  6
Continuous
 62
     7
370
    25
100
AcDbLine
 10
-0.6864880537
 20
8.092765748
 30
0.0
 11
-0.6864880537
 21
7.9182099219
 31
0.0
  0
LINE
  5
1D0
330
1F
100
AcDbEntity
  8
0
  6
Continuous
 62
     7
370
    25
100
AcDbLine
 10
-0.6422938799
 20
7.874015748
 30
0.0
 11
-0.25
 21
7.874015748
 31
0.0
  0
LINE
  5
1D1
330
1F
100
AcDbEntity
  8
0
  6
Continuous
 62
     7
370
    25
100
AcDbLine
 10
-0.5891588369
 20
7.874015748
 30
0.0
 11
-0.5891588369
 21
0.0
 31
0.0
  0
LINE
  5
1D2
330
1F
100
AcDbEntity
  8
0
  6
Continuous
 62
     7
370
    25
100
AcDbLine
 10
0.0
 20
0.0
 30
0.0
 11
-0.6422938799
 21
0.0
 31
0.0
  0
LINE
  5
1D3
330
1F
100
AcDbEntity
  8
0
  6
Continuous
 62
     7
370
    25
100
AcDbLine
 10
-0.2771456513
 20
7.230066223
 30
0.0
 11
-0.2771456513
 21
7.2489444254
 31
0.0
  0
LINE
  5
1D4
330
1F
100
AcDbEntity
  8
0
  6
Continuous
 62
     7
370
    25
100
AcDbLine
 10
-0.2771456513
 20
7.2489444254
 30
0.0
 11
-0.3190833439
 21
7.2489444254
 31
0.0
  0
LINE
  5
1D5
330
1F
100
AcDbEntity
  8
0
  6
Continuous
 62
     7
370
    25
100
AcDbLine
 10
-0.3190833439
 20
7.2489444254
 30
0.0
 11
-0.3190833439
 21
7.2306902958
 31
0.0
  0
LINE
  5
1D6
330
1F
100
AcDbEntity
  8
0
  6
Continuous
 62
     7
370
    25
100
AcDbLine
 10
-0.2771456513
 20
7.7084180289
 30
0.0
 11
-0.2771456513
 21
7.7242382746
 31
0.0
  0
LINE
  5
1D7
330
1F
100
AcDbEntity
  8
0
  6
Continuous
 62
     7
370
    25
100
AcDbLine
 10
-0.3829883993
 20
7.7242382746
 30
0.0
 11
-0.3829883993
 21
7.7104774692
 31
0.0
  0
LINE
  5
1D8
330
1F
100
AcDbEntity
  8
0
  6
Continuous
 62
     7
370
    25
100
AcDbLine
 10
-0.2771456513
 20
7.7242382746
 30
0.0
 11
-0.3829883993
 21
7.7242382746
 31
0.0
  0
LINE
  5
1D9
330
1F
100
AcDbEntity
  8
0
  6
Continuous
 62
     7
370
    25
100
AcDbLine
 10
-0.3350596077
 20
7.2304406667
 30
0.0
 11
-0.3350596077
 21
7.2489444254
 31
0.0
  0
LINE
  5
1DA
330
1F
100
AcDbEntity
  8
0
  6
Continuous
 62
     7
370
    25
100
AcDbLine
 10
-0.3350596077
 20
7.2489444254
 30
0.0
 11
-0.3829883993
 21
7.2489444254
 31
0.0
  0
LINE
  5
1DB
330
1F
100
AcDbEntity
  8
0
  6
Continuous
 62
     7
370
    25
100
AcDbLine
 10
-0.3829883993
 20
7.2489444254
 30
0.0
 11
-0.3829883993
 21
7.2298165939
 31
0.0
  0
ARC
  5
1DC
330
1F
100
AcDbEntity
  8
0
  6
Continuous
 62
     7
370
    25
100
AcDbCircle
 10
-0.2279029131
 20
7.5024120475
 30
0.0
 40
0.031249999999975
100
AcDbArc
 50
134.9999999999
 51
314.9999999999
  0
ARC
  5
1DD
330
1F
100
AcDbEntity
  8
0
  6
Continuous
 62
     7
370
    25
100
AcDbCircle
 10
-0.2279029131
 20
7.0645170863
 30
0.0
 40
0.0312499999999493
100
AcDbArc
 50
45.0000000001
 51
225.0000000001
  0
ARC
  5
1DE
330
1F
100
AcDbEntity
  8
0
  6
Continuous
 62
     7
370
    25
100
AcDbCircle
 10
-0.2279029131
 20
6.7150104727
 30
0.0
 40
0.0312499999999757
100
AcDbArc
 50
134.9999999999
 51
314.9999999999
  0
ARC
  5
1DF
330
1F
100
AcDbEntity
  8
0
  6
Continuous
 62
     7
370
    25
100
AcDbCircle
 10
-0.2279029131
 20
6.2771155115
 30
0.0
 40
0.0312499999999545
100
AcDbArc
 50
45.0
 51
225.0
  0
ARC
  5
1E0
330
1F
100
AcDbEntity
  8
0
  6
Continuous
 62
     7
370
    25
100
AcDbCircle
 10
-0.2279029131
 20
5.9276088979
 30
0.0
 40
0.031249999999963
100
AcDbArc
 50
134.9999999999
 51
314.9999999999
  0
ARC
  5
1E1
330
1F
100
AcDbEntity
  8
0
  6
Continuous
 62
     7
370
    25
100
AcDbCircle
 10
-0.2279029131
 20
5.4897139367
 30
0.0
 40
0.0312499999999556
100
AcDbArc
 50
45.0
 51
225.0
  0
ARC
  5
1E2
330
1F
100
AcDbEntity
  8
0
  6
Continuous
 62
     7
370
    25
100
AcDbCircle
 10
-0.2279029131
 20
5.1402073231
 30
0.0
 40
0.0312499999999918
100
AcDbArc
 50
134.9999999999
 51
314.9999999999
  0
ARC
  5
1E3
330
1F
100
AcDbEntity
  8
0
  6
Continuous
 62
     7
370
    25
100
AcDbCircle
 10
-0.2279029131
 20
4.7023123619
 30
0.0
 40
0.0312499999999802
100
AcDbArc
 50
45.0
 51
225.0
  0
ARC
  5
1E4
330
1F
100
AcDbEntity
  8
0
  6
Continuous
 62
     7
370
    25
100
AcDbCircle
 10
-0.2279029131
 20
4.3528057483
 30
0.0
 40
0.0312499999999726
100
AcDbArc
 50
134.9999999998
 51
314.9999999999
  0
ARC
  5
1E5
330
1F
100
AcDbEntity
  8
0
  6
Continuous
 62
     7
370
    25
100
AcDbCircle
 10
-0.2279029131
 20
3.9149107871
 30
0.0
 40
0.0312499999999677
100
AcDbArc
 50
45.0000000001
 51
225.0
  0
ARC
  5
1E6
330
1F
100
AcDbEntity
  8
0
  6
Continuous
 62
     7
370
    25
100
AcDbCircle
 10
-0.2279029131
 20
3.5654041735
 30
0.0
 40
0.031249999999984
100
AcDbArc
 50
134.9999999999
 51
314.9999999999
  0
ARC
  5
1E7
330
1F
100
AcDbEntity
  8
0
  6
Continuous
 62
     7
370
    25
100
AcDbCircle
 10
-0.2279029131
 20
3.1275092123
 30
0.0
 40
0.0312499999999795
100
AcDbArc
 50
45.0
 51
225.0
  0
ARC
  5
1E8
330
1F
100
AcDbEntity
  8
0
  6
Continuous
 62
     7
370
    25
100
AcDbCircle
 10
-0.2279029131
 20
2.7780025987
 30
0.0
 40
0.0312499999999719
100
AcDbArc
 50
134.9999999998
 51
314.9999999999
  0
ARC
  5
1E9
330
1F
100
AcDbEntity
  8
0
  6
Continuous
 62
     7
370
    25
100
AcDbCircle
 10
-0.2279029131
 20
2.3401076375
 30
0.0
 40
0.0312499999999671
100
AcDbArc
 50
45.0000000001
 51
225.0
  0
ARC
  5
1EA
330
1F
100
AcDbEntity
  8
0
  6
Continuous
 62
     7
370
    25
100
AcDbCircle
 10
-0.2279029131
 20
1.9906010239
 30
0.0
 40
0.0312499999999795
100
AcDbArc
 50
135.0
 51
315.0
  0
ARC
  5
1EB
330
1F
100
AcDbEntity
  8
0
  6
Continuous
 62
     7
370
    25
100
AcDbCircle
 10
-0.2279029131
 20
1.5527060627
 30
0.0
 40
0.0312499999999609
100
AcDbArc
 50
45.0000000001
 51
225.0000000001
  0
ARC
  5
1EC
330
1F
100
AcDbEntity
  8
0
  6
Continuous
 62
     7
370
    25
100
AcDbCircle
 10
-0.2279029131
 20
1.2031994491
 30
0.0
 40
0.0312499999999919
100
AcDbArc
 50
134.9999999999
 51
314.9999999999
  0
ARC
  5
1ED
330
1F
100
AcDbEntity
  8
0
  6
Continuous
 62
     7
370
    25
100
AcDbCircle
 10
-0.2279029131
 20
0.7653044879
 30
0.0
 40
0.0312499999999795
100
AcDbArc
 50
45.0
 51
225.0
  0
ARC
  5
1EE
330
1F
100
AcDbEntity
  8
0
  6
Continuous
 62
     7
370
    25
100
AcDbCircle
 10
-0.2279029131
 20
0.4157978743
 30
0.0
 40
0.0312499999999794
100
AcDbArc
 50
135.0
 51
315.0
  0
ARC
  5
1EF
330
1F
100
AcDbEntity
  8
0
  6
Continuous
 62
     7
370
    25
100
AcDbCircle
 10
-0.6643909668
 20
-0.0220970869
 30
0.0
 40
0.0312500000000104
100
AcDbArc
 50
45.0
 51
225.0
  0
ARC
  5
1F0
330
1F
100
AcDbEntity
  8
0
  6
Continuous
 62
     7
370
    25
100
AcDbCircle
 10
-0.728658839
 20
0.4157978743
 30
0.0
 40
0.0312499999999919
100
AcDbArc
 50
224.9999999997
 51
44.9999999997
  0
ARC
  5
1F1
330
1F
100
AcDbEntity
  8
0
  6
Continuous
 62
     7
370
    25
100
AcDbCircle
 10
-0.728658839
 20
0.7653044879
 30
0.0
 40
0.0312499999999487
100
AcDbArc
 50
315.0000000002
 51
135.0000000002
  0
ARC
  5
1F2
330
1F
100
AcDbEntity
  8
0
  6
Continuous
 62
     7
370
    25
100
AcDbCircle
 10
-0.728658839
 20
1.2031994491
 30
0.0
 40
0.0312499999999487
100
AcDbArc
 50
224.9999999999
 51
44.9999999998
  0
ARC
  5
1F3
330
1F
100
AcDbEntity
  8
0
  6
Continuous
 62
     7
370
    25
100
AcDbCircle
 10
-0.728658839
 20
1.5527060627
 30
0.0
 40
0.0312499999999486
100
AcDbArc
 50
315.0000000002
 51
135.0000000002
  0
ARC
  5
1F4
330
1F
100
AcDbEntity
  8
0
  6
Continuous
 62
     7
370
    25
100
AcDbCircle
 10
-0.728658839
 20
1.9906010239
 30
0.0
 40
0.0312499999999611
100
AcDbArc
 50
224.9999999998
 51
44.9999999999
  0
ARC
  5
1F5
330
1F
100
AcDbEntity
  8
0
  6
Continuous
 62
     7
370
    25
100
AcDbCircle
 10
-0.728658839
 20
2.3401076375
 30
0.0
 40
0.0312499999999732
100
AcDbArc
 50
315.0000000002
 51
135.0000000002
  0
ARC
  5
1F6
330
1F
100
AcDbEntity
  8
0
  6
Continuous
 62
     7
370
    25
100
AcDbCircle
 10
-0.728658839
 20
2.7780025987
 30
0.0
 40
0.0312499999999612
100
AcDbArc
 50
224.9999999999
 51
44.9999999999
  0
ARC
  5
1F7
330
1F
100
AcDbEntity
  8
0
  6
Continuous
 62
     7
370
    25
100
AcDbCircle
 10
-0.728658839
 20
3.1275092123
 30
0.0
 40
0.0312499999999754
100
AcDbArc
 50
315.0000000001
 51
135.0000000001
  0
ARC
  5
1F8
330
1F
100
AcDbEntity
  8
0
  6
Continuous
 62
     7
370
    25
100
AcDbCircle
 10
-0.728658839
 20
3.5654041735
 30
0.0
 40
0.0312500000000108
100
AcDbArc
 50
224.9999999999
 51
44.9999999999
  0
ARC
  5
1F9
330
1F
100
AcDbEntity
  8
0
  6
Continuous
 62
     7
370
    25
100
AcDbCircle
 10
-0.728658839
 20
3.9149107871
 30
0.0
 40
0.0312499999999751
100
AcDbArc
 50
315.0000000001
 51
135.0000000001
  0
ARC
  5
1FA
330
1F
100
AcDbEntity
  8
0
  6
Continuous
 62
     7
370
    25
100
AcDbCircle
 10
-0.728658839
 20
4.3528057483
 30
0.0
 40
0.0312500000000104
100
AcDbArc
 50
224.9999999999
 51
44.9999999999
  0
ARC
  5
1FB
330
1F
100
AcDbEntity
  8
0
  6
Continuous
 62
     7
370
    25
100
AcDbCircle
 10
-0.728658839
 20
4.7023123619
 30
0.0
 40
0.0312499999999753
100
AcDbArc
 50
315.0000000001
 51
135.0000000001
  0
ARC
  5
1FC
330
1F
100
AcDbEntity
  8
0
  6
Continuous
 62
     7
370
    25
100
AcDbCircle
 10
-0.728658839
 20
5.1402073231
 30
0.0
 40
0.0312500000000101
100
AcDbArc
 50
224.9999999999
 51
44.9999999999
  0
ARC
  5
1FD
330
1F
100
AcDbEntity
  8
0
  6
Continuous
 62
     7
370
    25
100
AcDbCircle
 10
-0.728658839
 20
5.4897139367
 30
0.0
 40
0.0312499999999722
100
AcDbArc
 50
315.0000000001
 51
135.0000000001
  0
ARC
  5
1FE
330
1F
100
AcDbEntity
  8
0
  6
Continuous
 62
     7
370
    25
100
AcDbCircle
 10
-0.728658839
 20
5.9276088979
 30
0.0
 40
0.031250000000035
100
AcDbArc
 50
224.9999999999
 51
44.9999999999
  0
ARC
  5
1FF
330
1F
100
AcDbEntity
  8
0
  6
Continuous
 62
     7
370
    25
100
AcDbCircle
 10
-0.728658839
 20
6.2771155115
 30
0.0
 40
0.031249999999963
100
AcDbArc
 50
315.0000000002
 51
135.0000000001
  0
ARC
  5
200
330
1F
100
AcDbEntity
  8
0
  6
Continuous
 62
     7
370
    25
100
AcDbCircle
 10
-0.728658839
 20
6.7150104727
 30
0.0
 40
0.0312499999999802
100
AcDbArc
 50
225.0000000001
 51
45.0000000001
  0
ARC
  5
201
330
1F
100
AcDbEntity
  8
0
  6
Continuous
 62
     7
370
    25
100
AcDbCircle
 10
-0.728658839
 20
7.0645170863
 30
0.0
 40
0.0312499999999908
100
AcDbArc
 50
315.0
 51
135.0
  0
ARC
  5
202
330
1F
100
AcDbEntity
  8
0
  6
Continuous
 62
     7
370
    25
100
AcDbCircle
 10
-0.6643909668
 20
7.8961128349
 30
0.0
 40
0.0312499999999928
100
AcDbArc
 50
134.9999999999
 51
314.9999999999
  0
ENDSEC
  0
SECTION
  2
OBJECTS
  0
DICTIONARY
  5
C
330
0
100
AcDbDictionary
281
     1
  3
ACAD_GROUP
350
D
  3
ACAD_LAYOUT
350
1A
  3
ACAD_MLINESTYLE
350
17
  3
ACAD_PLOTSETTINGS
350
19
  3
ACAD_PLOTSTYLENAME
350
E
  3
ACAD_SCALELIST
350
47
  0
DICTIONARY
  5
D
102
{ACAD_REACTORS
330
C
102
}
330
C
100
AcDbDictionary
281
     1
  0
DICTIONARY
  5
1A
102
{ACAD_REACTORS
330
C
102
}
330
C
100
AcDbDictionary
281
     1
  3
Layout1
350
1E
  3
Layout2
350
26
  3
Model
350
22
  0
DICTIONARY
  5
17
102
{ACAD_REACTORS
330
C
102
}
330
C
100
AcDbDictionary
281
     1
  3
Standard
350
18
  0
DICTIONARY
  5
19
102
{ACAD_REACTORS
330
C
102
}
330
C
100
AcDbDictionary
281
     1
  0
ACDBDICTIONARYWDFLT
  5
E
102
{ACAD_REACTORS
330
C
102
}
330
C
100
AcDbDictionary
281
     1
  3
Normal
350
F
100
AcDbDictionaryWithDefault
340
F
  0
DICTIONARY
  5
47
102
{ACAD_REACTORS
330
C
102
}
330
C
100
AcDbDictionary
281
     1
  3
A0
350
48
  3
A1
350
49
  3
A2
350
4A
  3
A3
350
4B
  3
A4
350
4C
  3
A5
350
4D
  3
A6
350
4E
  3
A7
350
4F
  3
A8
350
50
  3
A9
350
51
  3
B0
350
52
  3
B1
350
53
  3
B2
350
54
  3
B3
350
55
  3
B4
350
56
  3
B5
350
57
  3
B6
350
58
  3
B7
350
59
  3
B8
350
5A
  3
B9
350
5B
  3
C0
350
5C
  3
C1
350
5D
  3
C2
350
5E
  3
C3
350
5F
  3
C4
350
60
  3
C5
350
61
  3
C6
350
62
  3
C7
350
63
  3
C8
350
64
  3
C9
350
65
  3
D0
350
66
  3
D1
350
67
  3
D2
350
68
  0
LAYOUT
  5
1E
102
{ACAD_REACTORS
330
1A
102
}
330
1A
100
AcDbPlotSettings
  1

  2
none_device
  4

  6

 40
0.0
 41
0.0
 42
0.0
 43
0.0
 44
0.0
 45
0.0
 46
0.0
 47
0.0
 48
0.0
 49
0.0
140
0.0
141
0.0
142
1.0
143
1.0
 70
   688
 72
     0
 73
     0
 74
     5
  7

 75
    16
147
1.0
148
0.0
149
0.0
100
AcDbLayout
  1
Layout1
 70
     1
 71
     1
 10
0.0
 20
0.0
 11
12.0
 21
9.0
 12
0.0
 22
0.0
 32
0.0
 14
1.0000000000E+20
 24
1.0000000000E+20
 34
1.0000000000E+20
 15
-1.0000000000E+20
 25
-1.0000000000E+20
 35
-1.0000000000E+20
146
0.0
 13
0.0
 23
0.0
 33
0.0
 16
1.0
 26
0.0
 36
0.0
 17
0.0
 27
1.0
 37
0.0
 76
     0
330
1B
  0
LAYOUT
  5
26
102
{ACAD_REACTORS
330
1A
102
}
330
1A
100
AcDbPlotSettings
  1

  2
none_device
  4

  6

 40
0.0
 41
0.0
 42
0.0
 43
0.0
 44
0.0
 45
0.0
 46
0.0
 47
0.0
 48
0.0
 49
0.0
140
0.0
141
0.0
142
1.0
143
1.0
 70
   688
 72
     0
 73
     0
 74
     5
  7

 75
    16
147
1.0
148
0.0
149
0.0
100
AcDbLayout
  1
Layout2
 70
     1
 71
     2
 10
0.0
 20
0.0
 11
0.0
 21
0.0
 12
0.0
 22
0.0
 32
0.0
 14
0.0
 24
0.0
 34
0.0
 15
0.0
 25
0.0
 35
0.0
146
0.0
 13
0.0
 23
0.0
 33
0.0
 16
1.0
 26
0.0
 36
0.0
 17
0.0
 27
1.0
 37
0.0
 76
     0
330
23
  0
LAYOUT
  5
22
102
{ACAD_REACTORS
330
1A
102
}
330
1A
100
AcDbPlotSettings
  1

  2
none_device
  4
ANSI_A_(11.00_x_8.50_Inches)
  6

 40
6.35
 41
19.05
 42
6.35000508
 43
19.05000254
 44
279.4
 45
215.9
 46
144.6233010201
 47
-11.5894229907
 48
0.0
 49
0.0
140
0.0
141
0.0
142
1.0048942172
143
1.0
 70
  1696
 72
     0
 73
     0
 74
     0
  7

 75
     0
147
0.5913241897
148
-39.4088153714
149
0.0
100
AcDbLayout
  1
Model
 70
     1
 71
     0
 10
0.0
 20
0.0
 11
12.0
 21
9.0
 12
0.0
 22
0.0
 32
0.0
 14
-0.8833384474
 24
-0.25
 34
0.0
 15
0.0
 25
8.124015748
 35
0.0
146
0.0
 13
0.0
 23
0.0
 33
0.0
 16
1.0
 26
0.0
 36
0.0
 17
0.0
 27
1.0
 37
0.0
 76
     0
330
1F
331
29
  0
MLINESTYLE
  5
18
102
{ACAD_REACTORS
330
17
102
}
330
17
100
AcDbMlineStyle
  2
Standard
 70
     0
  3

 62
   256
 51
90.0
 52
90.0
 71
     2
 49
0.5
 62
   256
  6
BYLAYER
 49
-0.5
 62
   256
  6
BYLAYER
  0
ACDBPLACEHOLDER
  5
F
102
{ACAD_REACTORS
330
E
102
}
330
E
  0
SCALE
  5
48
102
{ACAD_REACTORS
330
47
102
}
330
47
100
AcDbScale
 70
     0
300
1:1
140
1.0
141
1.0
290
     1
  0
SCALE
  5
49
102
{ACAD_REACTORS
330
47
102
}
330
47
100
AcDbScale
 70
     0
300
1:2
140
1.0
141
2.0
290
     0
  0
SCALE
  5
4A
102
{ACAD_REACTORS
330
47
102
}
330
47
100
AcDbScale
 70
     0
300
1:4
140
1.0
141
4.0
290
     0
  0
SCALE
  5
4B
102
{ACAD_REACTORS
330
47
102
}
330
47
100
AcDbScale
 70
     0
300
1:5
140
1.0
141
5.0
290
     0
  0
SCALE
  5
4C
102
{ACAD_REACTORS
330
47
102
}
330
47
100
AcDbScale
 70
     0
300
1:8
140
1.0
141
8.0
290
     0
  0
SCALE
  5
4D
102
{ACAD_REACTORS
330
47
102
}
330
47
100
AcDbScale
 70
     0
300
1:10
140
1.0
141
10.0
290
     0
  0
SCALE
  5
4E
102
{ACAD_REACTORS
330
47
102
}
330
47
100
AcDbScale
 70
     0
300
1:16
140
1.0
141
16.0
290
     0
  0
SCALE
  5
4F
102
{ACAD_REACTORS
330
47
102
}
330
47
100
AcDbScale
 70
     0
300
1:20
140
1.0
141
20.0
290
     0
  0
SCALE
  5
50
102
{ACAD_REACTORS
330
47
102
}
330
47
100
AcDbScale
 70
     0
300
1:30
140
1.0
141
30.0
290
     0
  0
SCALE
  5
51
102
{ACAD_REACTORS
330
47
102
}
330
47
100
AcDbScale
 70
     0
300
1:40
140
1.0
141
40.0
290
     0
  0
SCALE
  5
52
102
{ACAD_REACTORS
330
47
102
}
330
47
100
AcDbScale
 70
     0
300
1:50
140
1.0
141
50.0
290
     0
  0
SCALE
  5
53
102
{ACAD_REACTORS
330
47
102
}
330
47
100
AcDbScale
 70
     0
300
1:100
140
1.0
141
100.0
290
     0
  0
SCALE
  5
54
102
{ACAD_REACTORS
330
47
102
}
330
47
100
AcDbScale
 70
     0
300
2:1
140
2.0
141
1.0
290
     0
  0
SCALE
  5
55
102
{ACAD_REACTORS
330
47
102
}
330
47
100
AcDbScale
 70
     0
300
4:1
140
4.0
141
1.0
290
     0
  0
SCALE
  5
56
102
{ACAD_REACTORS
330
47
102
}
330
47
100
AcDbScale
 70
     0
300
8:1
140
8.0
141
1.0
290
     0
  0
SCALE
  5
57
102
{ACAD_REACTORS
330
47
102
}
330
47
100
AcDbScale
 70
     0
300
10:1
140
10.0
141
1.0
290
     0
  0
SCALE
  5
58
102
{ACAD_REACTORS
330
47
102
}
330
47
100
AcDbScale
 70
     0
300
100:1
140
100.0
141
1.0
290
     0
  0
SCALE
  5
59
102
{ACAD_REACTORS
330
47
102
}
330
47
100
AcDbScale
 70
     0
300
1/128" = 1'-0"
140
0.0078125
141
12.0
290
     0
  0
SCALE
  5
5A
102
{ACAD_REACTORS
330
47
102
}
330
47
100
AcDbScale
 70
     0
300
1/64" = 1'-0"
140
0.015625
141
12.0
290
     0
  0
SCALE
  5
5B
102
{ACAD_REACTORS
330
47
102
}
330
47
100
AcDbScale
 70
     0
300
1/32" = 1'-0"
140
0.03125
141
12.0
290
     0
  0
SCALE
  5
5C
102
{ACAD_REACTORS
330
47
102
}
330
47
100
AcDbScale
 70
     0
300
1/16" = 1'-0"
140
0.0625
141
12.0
290
     0
  0
SCALE
  5
5D
102
{ACAD_REACTORS
330
47
102
}
330
47
100
AcDbScale
 70
     0
300
3/32" = 1'-0"
140
0.09375
141
12.0
290
     0
  0
SCALE
  5
5E
102
{ACAD_REACTORS
330
47
102
}
330
47
100
AcDbScale
 70
     0
300
1/8" = 1'-0"
140
0.125
141
12.0
290
     0
  0
SCALE
  5
5F
102
{ACAD_REACTORS
330
47
102
}
330
47
100
AcDbScale
 70
     0
300
3/16" = 1'-0"
140
0.1875
141
12.0
290
     0
  0
SCALE
  5
60
102
{ACAD_REACTORS
330
47
102
}
330
47
100
AcDbScale
 70
     0
300
1/4" = 1'-0"
140
0.25
141
12.0
290
     0
  0
SCALE
  5
61
102
{ACAD_REACTORS
330
47
102
}
330
47
100
AcDbScale
 70
     0
300
3/8" = 1'-0"
140
0.375
141
12.0
290
     0
  0
SCALE
  5
62
102
{ACAD_REACTORS
330
47
102
}
330
47
100
AcDbScale
 70
     0
300
1/2" = 1'-0"
140
0.5
141
12.0
290
     0
  0
SCALE
  5
63
102
{ACAD_REACTORS
330
47
102
}
330
47
100
AcDbScale
 70
     0
300
3/4" = 1'-0"
140
0.75
141
12.0
290
     0
  0
SCALE
  5
64
102
{ACAD_REACTORS
330
47
102
}
330
47
100
AcDbScale
 70
     0
300
1" = 1'-0"
140
1.0
141
12.0
290
     0
  0
SCALE
  5
65
102
{ACAD_REACTORS
330
47
102
}
330
47
100
AcDbScale
 70
     0
300
1-1/2" = 1'-0"
140
1.5
141
12.0
290
     0
  0
SCALE
  5
66
102
{ACAD_REACTORS
330
47
102
}
330
47
100
AcDbScale
 70
     0
300
3" = 1'-0"
140
3.0
141
12.0
290
     0
  0
SCALE
  5
67
102
{ACAD_REACTORS
330
47
102
}
330
47
100
AcDbScale
 70
     0
300
6" = 1'-0"
140
6.0
141
12.0
290
     0
  0
SCALE
  5
68
102
{ACAD_REACTORS
330
47
102
}
330
47
100
AcDbScale
 70
     0
300
1'-0" = 1'-0"
140
12.0
141
12.0
290
     0
  0
ENDSEC
  0
EOF
