  0
SECTION
  2
HEADER
  9
$ACADVER
  1
AC1015
  9
$ACADMAINTVER
 70
     6
  9
$DWGCODEPAGE
  3
ANSI_1252
  9
$INSBASE
 10
0.0
 20
0.0
 30
0.0
  9
$EXTMIN
 10
-1.3578790575
 20
-7.874015748
 30
0.0
  9
$EXTMAX
 10
0.1767766953
 20
0.0
 30
0.0
  9
$LIMMIN
 10
0.0
 20
0.0
  9
$LIMMAX
 10
12.0
 20
9.0
  9
$ORTHOMODE
 70
     0
  9
$REGENMODE
 70
     1
  9
$FILLMODE
 70
     1
  9
$QTEXTMODE
 70
     0
  9
$MIRRTEXT
 70
     1
  9
$LTSCALE
 40
1.0
  9
$ATTMODE
 70
     1
  9
$TEXTSIZE
 40
0.1377952756
  9
$TRACEWID
 40
0.05
  9
$TEXTSTYLE
  7
Standard
  9
$CLAYER
  8
0
  9
$CELTYPE
  6
ByLayer
  9
$CECOLOR
 62
   256
  9
$CELTSCALE
 40
1.0
  9
$DISPSILH
 70
     0
  9
$DIMSCALE
 40
1.0
  9
$DIMASZ
 40
0.13
  9
$DIMEXO
 40
0.0393700787
  9
$DIMDLI
 40
0.38
  9
$DIMRND
 40
0.0
  9
$DIMDLE
 40
0.0
  9
$DIMEXE
 40
0.0393700787
  9
$DIMTP
 40
0.0
  9
$DIMTM
 40
0.0
  9
$DIMTXT
 40
0.1377952756
  9
$DIMCEN
 40
0.09
  9
$DIMTSZ
 40
0.0
  9
$DIMTOL
 70
     0
  9
$DIMLIM
 70
     0
  9
$DIMTIH
 70
     1
  9
$DIMTOH
 70
     1
  9
$DIMSE1
 70
     0
  9
$DIMSE2
 70
     0
  9
$DIMTAD
 70
     1
  9
$DIMZIN
 70
     1
  9
$DIMBLK
  1

  9
$DIMASO
 70
     1
  9
$DIMSHO
 70
     1
  9
$DIMPOST
  1

  9
$DIMAPOST
  1

  9
$DIMALT
 70
     0
  9
$DIMALTD
 70
     2
  9
$DIMALTF
 40
25.4
  9
$DIMLFAC
 40
1.0
  9
$DIMTOFL
 70
     0
  9
$DIMTVP
 40
0.0
  9
$DIMTIX
 70
     0
  9
$DIMSOXD
 70
     0
  9
$DIMSAH
 70
     0
  9
$DIMBLK1
  1

  9
$DIMBLK2
  1

  9
$DIMSTYLE
  2
Standard
  9
$DIMCLRD
 70
     0
  9
$DIMCLRE
 70
     0
  9
$DIMCLRT
 70
     0
  9
$DIMTFAC
 40
1.0
  9
$DIMGAP
 40
0.06
  9
$DIMJUST
 70
     0
  9
$DIMSD1
 70
     0
  9
$DIMSD2
 70
     0
  9
$DIMTOLJ
 70
     1
  9
$DIMTZIN
 70
     1
  9
$DIMALTZ
 70
     0
  9
$DIMALTTZ
 70
     0
  9
$DIMUPT
 70
     0
  9
$DIMDEC
 70
     2
  9
$DIMTDEC
 70
     2
  9
$DIMALTU
 70
     2
  9
$DIMALTTD
 70
     2
  9
$DIMTXSTY
  7
Standard
  9
$DIMAUNIT
 70
     0
  9
$DIMADEC
 70
     2
  9
$DIMALTRND
 40
0.0
  9
$DIMAZIN
 70
     0
  9
$DIMDSEP
 70
    46
  9
$DIMATFIT
 70
     3
  9
$DIMFRAC
 70
     0
  9
$DIMLDRBLK
  1

  9
$DIMLUNIT
 70
     2
  9
$DIMLWD
 70
    -2
  9
$DIMLWE
 70
    -2
  9
$DIMTMOVE
 70
     0
  9
$LUNITS
 70
     2
  9
$LUPREC
 70
     8
  9
$SKETCHINC
 40
0.1
  9
$FILLETRAD
 40
0.5
  9
$AUNITS
 70
     0
  9
$AUPREC
 70
     2
  9
$MENU
  1
.
  9
$ELEVATION
 40
0.0
  9
$PELEVATION
 40
0.0
  9
$THICKNESS
 40
0.0
  9
$LIMCHECK
 70
     0
  9
$CHAMFERA
 40
0.0
  9
$CHAMFERB
 40
0.0
  9
$CHAMFERC
 40
0.0
  9
$CHAMFERD
 40
0.0
  9
$SKPOLY
 70
     0
  9
$TDCREATE
 40
2458324.603266435
  9
$TDUCREATE
 40
2458324.769933102
  9
$TDUPDATE
 40
2458324.603295081
  9
$TDUUPDATE
 40
2458324.769961748
  9
$TDINDWG
 40
0.0000000116
  9
$TDUSRTIMER
 40
0.0000000116
  9
$USRTIMER
 70
     1
  9
$ANGBASE
 50
0.0
  9
$ANGDIR
 70
     0
  9
$PDMODE
 70
     0
  9
$PDSIZE
 40
-1.0
  9
$PLINEWID
 40
0.0
  9
$SPLFRAME
 70
     0
  9
$SPLINETYPE
 70
     6
  9
$SPLINESEGS
 70
     8
  9
$HANDSEED
  5
1BD
  9
$SURFTAB1
 70
     6
  9
$SURFTAB2
 70
     6
  9
$SURFTYPE
 70
     6
  9
$SURFU
 70
     6
  9
$SURFV
 70
     6
  9
$UCSBASE
  2

  9
$UCSNAME
  2

  9
$UCSORG
 10
0.0
 20
0.0
 30
0.0
  9
$UCSXDIR
 10
1.0
 20
0.0
 30
0.0
  9
$UCSYDIR
 10
0.0
 20
1.0
 30
0.0
  9
$UCSORTHOREF
  2

  9
$UCSORTHOVIEW
 70
     0
  9
$UCSORGTOP
 10
0.0
 20
0.0
 30
0.0
  9
$UCSORGBOTTOM
 10
0.0
 20
0.0
 30
0.0
  9
$UCSORGLEFT
 10
0.0
 20
0.0
 30
0.0
  9
$UCSORGRIGHT
 10
0.0
 20
0.0
 30
0.0
  9
$UCSORGFRONT
 10
0.0
 20
0.0
 30
0.0
  9
$UCSORGBACK
 10
0.0
 20
0.0
 30
0.0
  9
$PUCSBASE
  2

  9
$PUCSNAME
  2

  9
$PUCSORG
 10
0.0
 20
0.0
 30
0.0
  9
$PUCSXDIR
 10
1.0
 20
0.0
 30
0.0
  9
$PUCSYDIR
 10
0.0
 20
1.0
 30
0.0
  9
$PUCSORTHOREF
  2

  9
$PUCSORTHOVIEW
 70
     0
  9
$PUCSORGTOP
 10
0.0
 20
0.0
 30
0.0
  9
$PUCSORGBOTTOM
 10
0.0
 20
0.0
 30
0.0
  9
$PUCSORGLEFT
 10
0.0
 20
0.0
 30
0.0
  9
$PUCSORGRIGHT
 10
0.0
 20
0.0
 30
0.0
  9
$PUCSORGFRONT
 10
0.0
 20
0.0
 30
0.0
  9
$PUCSORGBACK
 10
0.0
 20
0.0
 30
0.0
  9
$USERI1
 70
     0
  9
$USERI2
 70
     0
  9
$USERI3
 70
     0
  9
$USERI4
 70
     0
  9
$USERI5
 70
     0
  9
$USERR1
 40
0.0
  9
$USERR2
 40
0.0
  9
$USERR3
 40
0.0
  9
$USERR4
 40
0.0
  9
$USERR5
 40
0.0
  9
$WORLDVIEW
 70
     1
  9
$SHADEDGE
 70
     3
  9
$SHADEDIF
 70
    70
  9
$TILEMODE
 70
     1
  9
$MAXACTVP
 70
    64
  9
$PINSBASE
 10
0.0
 20
0.0
 30
0.0
  9
$PLIMCHECK
 70
     0
  9
$PEXTMIN
 10
1.0000000000E+20
 20
1.0000000000E+20
 30
1.0000000000E+20
  9
$PEXTMAX
 10
-1.0000000000E+20
 20
-1.0000000000E+20
 30
-1.0000000000E+20
  9
$PLIMMIN
 10
0.0
 20
0.0
  9
$PLIMMAX
 10
12.0
 20
9.0
  9
$UNITMODE
 70
     0
  9
$VISRETAIN
 70
     1
  9
$PLINEGEN
 70
     0
  9
$PSLTSCALE
 70
     1
  9
$TREEDEPTH
 70
  3020
  9
$CMLSTYLE
  2
Standard
  9
$CMLJUST
 70
     0
  9
$CMLSCALE
 40
1.0
  9
$PROXYGRAPHICS
 70
     1
  9
$MEASUREMENT
 70
     0
  9
$CELWEIGHT
370
    -1
  9
$ENDCAPS
280
     0
  9
$JOINSTYLE
280
     0
  9
$LWDISPLAY
290
     1
  9
$INSUNITS
 70
     1
  9
$HYPERLINKBASE
  1

  9
$STYLESHEET
  1

  9
$XEDIT
290
     1
  9
$CEPSNTYPE
380
     0
  9
$PSTYLEMODE
290
     1
  9
$FINGERPRINTGUID
  2
{A26E1C4D-D0F0-4FCF-BFBA-8871E3C1F07C}
  9
$VERSIONGUID
  2
{FAEB1C32-E019-11D5-929B-00C0DF256EC4}
  9
$EXTNAMES
290
     1
  9
$PSVPSCALE
 40
0.0
  9
$OLESTARTUP
290
     0
  0
ENDSEC
  0
SECTION
  2
CLASSES
  0
CLASS
  1
ACDBDICTIONARYWDFLT
  2
AcDbDictionaryWithDefault
  3
ObjectDBX Classes
 90
        0
280
     0
281
     0
  0
CLASS
  1
VISUALSTYLE
  2
AcDbVisualStyle
  3
ObjectDBX Classes
 90
     4095
280
     0
281
     0
  0
CLASS
  1
MATERIAL
  2
AcDbMaterial
  3
ObjectDBX Classes
 90
     1153
280
     0
281
     0
  0
CLASS
  1
SCALE
  2
AcDbScale
  3
ObjectDBX Classes
 90
     1153
280
     0
281
     0
  0
CLASS
  1
TABLESTYLE
  2
AcDbTableStyle
  3
ObjectDBX Classes
 90
     4095
280
     0
281
     0
  0
CLASS
  1
MLEADERSTYLE
  2
AcDbMLeaderStyle
  3
ACDB_MLEADERSTYLE_CLASS
 90
     4095
280
     0
281
     0
  0
CLASS
  1
SUN
  2
AcDbSun
  3
SCENEOE
 90
     1153
280
     0
281
     0
  0
CLASS
  1
ACDBPLACEHOLDER
  2
AcDbPlaceHolder
  3
ObjectDBX Classes
 90
        0
280
     0
281
     0
  0
CLASS
  1
LAYOUT
  2
AcDbLayout
  3
ObjectDBX Classes
 90
        0
280
     0
281
     0
  0
ENDSEC
  0
SECTION
  2
TABLES
  0
TABLE
  2
VPORT
  5
8
330
0
100
AcDbSymbolTable
 70
     1
  0
VPORT
  5
29
330
8
100
AcDbSymbolTableRecord
100
AcDbViewportTableRecord
  2
*Active
 70
     0
 10
0.0
 20
0.0
 11
1.0
 21
1.0
 12
-0.5905511811
 22
-3.937007874
 13
0.0
 23
0.0
 14
0.5
 24
0.5
 15
0.5
 25
0.5
 16
0.0
 26
0.0
 36
1.0
 17
0.0
 27
0.0
 37
0.0
 40
8.031496063
 41
0.1949012806
 42
50.0
 43
0.0
 44
0.0
 50
0.0
 51
0.0
 71
     0
 72
   100
 73
     1
 74
     3
 75
     0
 76
     0
 77
     0
 78
     0
281
     0
 65
     1
110
0.0
120
0.0
130
0.0
111
1.0
121
0.0
131
0.0
112
0.0
122
1.0
132
0.0
 79
     0
146
0.0
  0
ENDTAB
  0
TABLE
  2
LTYPE
  5
5
330
0
100
AcDbSymbolTable
 70
     6
  0
LTYPE
  5
14
330
5
100
AcDbSymbolTableRecord
100
AcDbLinetypeTableRecord
  2
ByBlock
 70
     0
  3

 72
    65
 73
     0
 40
0.0
  0
LTYPE
  5
15
330
5
100
AcDbSymbolTableRecord
100
AcDbLinetypeTableRecord
  2
ByLayer
 70
     0
  3

 72
    65
 73
     0
 40
0.0
  0
LTYPE
  5
16
330
5
100
AcDbSymbolTableRecord
100
AcDbLinetypeTableRecord
  2
Continuous
 70
     0
  3
Solid line
 72
    65
 73
     0
 40
0.0
  0
LTYPE
  5
6E
330
5
100
AcDbSymbolTableRecord
100
AcDbLinetypeTableRecord
  2
HIDDEN
 70
     0
  3
Hidden __ __ __ __ __ __ __ __ __ __ __ __ __ __
 72
    65
 73
     2
 40
0.075
 49
0.05
 74
     0
 49
-0.025
 74
     0
  0
LTYPE
  5
6F
330
5
100
AcDbSymbolTableRecord
100
AcDbLinetypeTableRecord
  2
PHANTOM
 70
     0
  3
Phantom ______  __  __  ______  __  __  ______
 72
    65
 73
     6
 40
0.5
 49
0.25
 74
     0
 49
-0.05
 74
     0
 49
0.05
 74
     0
 49
-0.05
 74
     0
 49
0.05
 74
     0
 49
-0.05
 74
     0
  0
LTYPE
  5
70
330
5
100
AcDbSymbolTableRecord
100
AcDbLinetypeTableRecord
  2
CENTER
 70
     0
  3
Center ____ _ ____ _ ____ _ ____ _ ____ _ ____
 72
    65
 73
     4
 40
0.4
 49
0.25
 74
     0
 49
-0.05
 74
     0
 49
0.05
 74
     0
 49
-0.05
 74
     0
  0
LTYPE
  5
71
330
5
100
AcDbSymbolTableRecord
100
AcDbLinetypeTableRecord
  2
CENTERX2
 70
     0
  3
Center (2x) ________  __  ________  __  _____
 72
    65
 73
     4
 40
0.8
 49
0.5
 74
     0
 49
-0.1
 74
     0
 49
0.1
 74
     0
 49
-0.1
 74
     0
  0
LTYPE
  5
72
330
5
100
AcDbSymbolTableRecord
100
AcDbLinetypeTableRecord
  2
DOT2
 70
     0
  3
Dot (.5x) ........................................
 72
    65
 73
     2
 40
0.025
 49
0.0
 74
     0
 49
-0.025
 74
     0
  0
ENDTAB
  0
TABLE
  2
LAYER
  5
2
330
0
100
AcDbSymbolTable
 70
     1
  0
LAYER
  5
10
330
2
100
AcDbSymbolTableRecord
100
AcDbLayerTableRecord
  2
0
 70
     0
 62
     7
  6
Continuous
370
    -3
390
F
  0
ENDTAB
  0
TABLE
  2
STYLE
  5
3
330
0
100
AcDbSymbolTable
 70
     1
  0
STYLE
  5
11
330
3
100
AcDbSymbolTableRecord
100
AcDbTextStyleTableRecord
  2
Standard
 70
     0
 40
0.0
 41
1.0
 50
0.0
 71
     0
 42
0.1377952756
  3
txt
  4

  0
ENDTAB
  0
TABLE
  2
VIEW
  5
6
330
0
100
AcDbSymbolTable
 70
     0
  0
ENDTAB
  0
TABLE
  2
UCS
  5
7
330
0
100
AcDbSymbolTable
 70
     0
  0
ENDTAB
  0
TABLE
  2
APPID
  5
9
330
0
100
AcDbSymbolTable
 70
     1
  0
APPID
  5
12
330
9
100
AcDbSymbolTableRecord
100
AcDbRegAppTableRecord
  2
ACAD
 70
     0
  0
ENDTAB
  0
TABLE
  2
DIMSTYLE
  5
A
330
0
100
AcDbSymbolTable
 70
     1
100
AcDbDimStyleTable
  0
DIMSTYLE
105
27
330
A
100
AcDbSymbolTableRecord
100
AcDbDimStyleTableRecord
  2
Standard
 70
     0
178
     0
340
11
  0
ENDTAB
  0
TABLE
  2
BLOCK_RECORD
  5
1
330
0
100
AcDbSymbolTable
 70
     1
  0
BLOCK_RECORD
  5
1F
330
1
100
AcDbSymbolTableRecord
100
AcDbBlockTableRecord
  2
*Model_Space
340
22
  0
BLOCK_RECORD
  5
1B
330
1
100
AcDbSymbolTableRecord
100
AcDbBlockTableRecord
  2
*Paper_Space
340
1E
  0
BLOCK_RECORD
  5
23
330
1
100
AcDbSymbolTableRecord
100
AcDbBlockTableRecord
  2
*Paper_Space0
340
26
  0
ENDTAB
  0
ENDSEC
  0
SECTION
  2
BLOCKS
  0
BLOCK
  5
20
330
1F
100
AcDbEntity
  8
0
100
AcDbBlockBegin
  2
*Model_Space
 70
     0
 10
0.0
 20
0.0
 30
0.0
  3
*Model_Space
  1

  0
ENDBLK
  5
21
330
1F
100
AcDbEntity
  8
0
100
AcDbBlockEnd
  0
BLOCK
  5
1C
330
1B
100
AcDbEntity
 67
     1
  8
0
100
AcDbBlockBegin
  2
*Paper_Space
 70
     0
 10
0.0
 20
0.0
 30
0.0
  3
*Paper_Space
  1

  0
ENDBLK
  5
1D
330
1B
100
AcDbEntity
 67
     1
  8
0
100
AcDbBlockEnd
  0
BLOCK
  5
24
330
23
100
AcDbEntity
  8
0
100
AcDbBlockBegin
  2
*Paper_Space0
 70
     0
 10
0.0
 20
0.0
 30
0.0
  3
*Paper_Space0
  1

  0
ENDBLK
  5
25
330
23
100
AcDbEntity
  8
0
100
AcDbBlockEnd
  0
ENDSEC
  0
SECTION
  2
ENTITIES
  0
SPLINE
  5
73
330
1F
100
AcDbEntity
  8
0
  6
Continuous
 62
     7
370
    25
100
AcDbSpline
210
0.0
220
0.0
230
1.0
 70
     8
 71
     3
 72
    13
 73
     9
 74
     0
 42
0.000000001
 43
0.00000001
 40
0.0
 40
0.0
 40
0.0
 40
0.0
 40
0.1294465544730155
 40
0.2566114205044115
 40
0.3828604211506729
 40
0.5068327058516401
 40
0.7532354148910859
 40
0.9999999999999999
 40
0.9999999999999999
 40
0.9999999999999999
 40
0.9999999999999999
 10
-1.10924037858044
 20
-7.810036517174473
 30
0.0
 10
-1.107803922177161
 20
-7.810016024234612
 30
0.0
 10
-1.104956329055515
 20
-7.809975399573496
 30
0.0
 10
-1.100726916703011
 20
-7.809543437418036
 30
0.0
 10
-1.096587462397972
 20
-7.808902684413964
 30
0.0
 10
-1.091211930556431
 20
-7.807684940197111
 30
0.0
 10
-1.084670162968669
 20
-7.805587627589268
 30
0.0
 10
-1.079729027735508
 20
-7.803228709675777
 30
0.0
 10
-1.077256647266962
 20
-7.802048385256181
 30
0.0
  0
SPLINE
  5
74
330
1F
100
AcDbEntity
  8
0
  6
Continuous
 62
     7
370
    25
100
AcDbSpline
210
0.0
220
0.0
230
1.0
 70
     8
 71
     3
 72
    23
 73
    19
 74
     0
 42
0.000000001
 43
0.00000001
 40
0.0
 40
0.0
 40
0.0
 40
0.0
 40
0.0840459183828658
 40
0.1627756104119859
 40
0.2368739460355231
 40
0.3066026167438468
 40
0.3721654538210822
 40
0.4340606592918734
 40
0.4929277549516374
 40
0.549429857009405
 40
0.6039396665774953
 40
0.6572607910538817
 40
0.710802403546565
 40
0.7643352139547706
 40
0.8193969521968041
 40
0.8764963914345923
 40
0.9365260930417011
 40
1.0
 40
1.0
 40
1.0
 40
1.0
 10
-1.151146867511171
 20
-7.755024499315293
 30
0.0
 10
-1.151121010864279
 20
-7.757230474027367
 30
0.0
 10
-1.151070933102478
 20
-7.761502887098939
 30
0.0
 10
-1.150569849168502
 20
-7.767705154203697
 30
0.0
 10
-1.149723379591708
 20
-7.77348628757975
 30
0.0
 10
-1.148610681804769
 20
-7.778875327434613
 30
0.0
 10
-1.147047139000726
 20
-7.783813939490944
 30
0.0
 10
-1.145279786982526
 20
-7.788381458075195
 30
0.0
 10
-1.143065887141512
 20
-7.792484948463166
 30
0.0
 10
-1.140577531893975
 20
-7.796193372144399
 30
0.0
 10
-1.137752543241534
 20
-7.799467796900844
 30
0.0
 10
-1.134596533639552
 20
-7.802307242144712
 30
0.0
 10
-1.131132185908416
 20
-7.80472102280431
 30
0.0
 10
-1.127333083328575
 20
-7.806659153660693
 30
0.0
 10
-1.123259624332462
 20
-7.808213082232896
 30
0.0
 10
-1.118849971194378
 20
-7.809241369195482
 30
0.0
 10
-1.114150239678026
 20
-7.80992375250482
 30
0.0
 10
-1.11090714618944
 20
-7.809998236560201
 30
0.0
 10
-1.10924037858044
 20
-7.810036517174473
 30
0.0
  0
SPLINE
  5
75
330
1F
100
AcDbEntity
  8
0
  6
Continuous
 62
     7
370
    25
100
AcDbSpline
210
0.0
220
0.0
230
1.0
 70
     8
 71
     3
 72
    23
 73
    19
 74
     0
 42
0.000000001
 43
0.00000001
 40
0.0
 40
0.0
 40
0.0
 40
0.0
 40
0.0600915961993574
 40
0.1180425330726113
 40
0.1740451709400293
 40
0.2293303201144361
 40
0.2841496908292592
 40
0.3386186036369541
 40
0.3936330196292654
 40
0.4499131718805329
 40
0.5081323368848771
 40
0.5681590801869927
 40
0.6313187239558643
 40
0.697820307343506
 40
0.7674862689254841
 40
0.8409352495515741
 40
0.9181847264969221
 40
1.0
 40
1.0
 40
1.0
 40
1.0
 10
-1.109646025904415
 20
-7.700199703297947
 30
0.0
 10
-1.111199000324622
 20
-7.700234141851397
 30
0.0
 10
-1.114249627133569
 20
-7.700301792144317
 30
0.0
 10
-1.118693045416169
 20
-7.701056453301083
 30
0.0
 10
-1.122918996983564
 20
-7.702197487602168
 30
0.0
 10
-1.126893819372155
 20
-7.70383622153814
 30
0.0
 10
-1.130627229737608
 20
-7.705887389789688
 30
0.0
 10
-1.134046708739912
 20
-7.708416896019907
 30
0.0
 10
-1.137187739491152
 20
-7.711336953497031
 30
0.0
 10
-1.140035017572181
 20
-7.714671834077604
 30
0.0
 10
-1.142602540438036
 20
-7.718386099856327
 30
0.0
 10
-1.144812517648241
 20
-7.722523931992507
 30
0.0
 10
-1.146763907490254
 20
-7.727023390929807
 30
0.0
 10
-1.148322168516351
 20
-7.731934895760254
 30
0.0
 10
-1.149622016712449
 20
-7.737193350935012
 30
0.0
 10
-1.150505837815591
 20
-7.74281993901339
 30
0.0
 10
-1.151039514005094
 20
-7.748804569907568
 30
0.0
 10
-1.151110404726432
 20
-7.752911890650966
 30
0.0
 10
-1.151146867511171
 20
-7.755024499315293
 30
0.0
  0
SPLINE
  5
76
330
1F
100
AcDbEntity
  8
0
  6
Continuous
 62
     7
370
    25
100
AcDbSpline
210
0.0
220
0.0
230
1.0
 70
     8
 71
     3
 72
    15
 73
    11
 74
     0
 42
0.000000001
 43
0.00000001
 40
0.0
 40
0.0
 40
0.0
 40
0.0
 40
0.1229465867926069
 40
0.2436389528488801
 40
0.3645582777771632
 40
0.4849663436539922
 40
0.6073541429308448
 40
0.7338185168609782
 40
0.8648057082019021
 40
1.0
 40
1.0
 40
1.0
 40
1.0
 10
-1.077256647266962
 20
-7.70818783521624
 30
0.0
 10
-1.078486969522326
 20
-7.707558486276197
 30
0.0
 10
-1.08092505612386
 20
-7.706311327483679
 30
0.0
 10
-1.084704015468733
 20
-7.704721556673159
 30
0.0
 10
-1.088532646948303
 20
-7.703340340441314
 30
0.0
 10
-1.092465120443037
 20
-7.702217301581699
 30
0.0
 10
-1.096513847800366
 20
-7.701298087117986
 30
0.0
 10
-1.100734980250876
 20
-7.700642839766237
 30
0.0
 10
-1.105135486366428
 20
-7.700270910718083
 30
0.0
 10
-1.108126753351006
 20
-7.700223687896265
 30
0.0
 10
-1.109646025904415
 20
-7.700199703297947
 30
0.0
  0
SPLINE
  5
78
330
1F
100
AcDbEntity
  8
0
  6
Continuous
 62
     7
370
    25
100
AcDbSpline
210
0.0
220
0.0
230
1.0
 70
     8
 71
     3
 72
    13
 73
     9
 74
     0
 42
0.000000001
 43
0.00000001
 40
0.0
 40
0.0
 40
0.0
 40
0.0
 40
0.1371043592389617
 40
0.2698395429534437
 40
0.3974480177724631
 40
0.5213207983111531
 40
0.7614259910144042
 40
1.0
 40
1.0
 40
1.0
 40
1.0
 10
-1.110426116912061
 20
-7.684223439461362
 30
0.0
 10
-1.108875787115327
 20
-7.684239843712739
 30
0.0
 10
-1.105824532683302
 20
-7.684272129452731
 30
0.0
 10
-1.101339721356762
 20
-7.684572991009159
 30
0.0
 10
-1.097013179108154
 20
-7.684983126416258
 30
0.0
 10
-1.091524914011955
 20
-7.685869397825959
 30
0.0
 10
-1.084864751333987
 20
-7.687386881476926
 30
0.0
 10
-1.079787268058946
 20
-7.689273998241943
 30
0.0
 10
-1.077256647266962
 20
-7.690214538400081
 30
0.0
  0
SPLINE
  5
79
330
1F
100
AcDbEntity
  8
0
  6
Continuous
 62
     7
370
    25
100
AcDbSpline
210
0.0
220
0.0
230
1.0
 70
     8
 71
     3
 72
    23
 73
    19
 74
     0
 42
0.000000001
 43
0.00000001
 40
0.0
 40
0.0
 40
0.0
 40
0.0
 40
0.0762250991228266
 40
0.1492568640360034
 40
0.2189663710999975
 40
0.2863457126534285
 40
0.350854524602332
 40
0.4127187411457849
 40
0.4725147389446502
 40
0.5304698563071019
 40
0.5872616011426958
 40
0.6437988226589371
 40
0.7001954145030604
 40
0.7573330240697146
 40
0.8153924778212723
 40
0.8747323437465097
 40
0.9360592760503408
 40
1.0
 40
1.0
 40
1.0
 40
1.0
 10
-1.171117197306903
 20
-7.756647088611196
 30
0.0
 10
-1.171059425122972
 20
-7.753941069266203
 30
0.0
 10
-1.170946301032594
 20
-7.748642395127335
 30
0.0
 10
-1.170175573793567
 20
-7.740897759632888
 30
0.0
 10
-1.168830874282396
 20
-7.733552504610671
 30
0.0
 10
-1.166963773834139
 20
-7.726635650884666
 30
0.0
 10
-1.164635237390195
 20
-7.720154671722602
 30
0.0
 10
-1.161824402277241
 20
-7.714161498714231
 30
0.0
 10
-1.158544529049574
 20
-7.708680844043872
 30
0.0
 10
-1.154819273740842
 20
-7.703713766618939
 30
0.0
 10
-1.150634811592312
 20
-7.699285660156097
 30
0.0
 10
-1.146043558423083
 20
-7.695363760874854
 30
0.0
 10
-1.141006164771828
 20
-7.692012146729141
 30
0.0
 10
-1.135595172960446
 20
-7.689189218372673
 30
0.0
 10
-1.129795808491783
 20
-7.686966059760743
 30
0.0
 10
-1.123640783549296
 20
-7.685385478204739
 30
0.0
 10
-1.117146883636649
 20
-7.684383847475178
 30
0.0
 10
-1.112697320171692
 20
-7.684277647443691
 30
0.0
 10
-1.110426116912061
 20
-7.684223439461362
 30
0.0
  0
SPLINE
  5
7A
330
1F
100
AcDbEntity
  8
0
  6
Continuous
 62
     7
370
    25
100
AcDbSpline
210
0.0
220
0.0
230
1.0
 70
     8
 71
     3
 72
    23
 73
    19
 74
     0
 42
0.000000001
 43
0.00000001
 40
0.0
 40
0.0
 40
0.0
 40
0.0
 40
0.0670325867641375
 40
0.1306011657320678
 40
0.190957778598473
 40
0.2489204977689592
 40
0.3049729679952951
 40
0.3601549466983138
 40
0.415072192000086
 40
0.4702566010027547
 40
0.5267191004344992
 40
0.5848204792238201
 40
0.6448830734803275
 40
0.7081442972450518
 40
0.7747184915464246
 40
0.845357356124226
 40
0.9201281364417371
 40
1.0
 40
1.0
 40
1.0
 40
1.0
 10
-1.111455837042154
 20
-7.826012781011059
 30
0.0
 10
-1.113787975415886
 20
-7.825958546673077
 30
0.0
 10
-1.118331735472912
 20
-7.825852880636525
 30
0.0
 10
-1.124937629348137
 20
-7.825042732127231
 30
0.0
 10
-1.131121987667228
 20
-7.823666120155481
 30
0.0
 10
-1.136898758021057
 20
-7.82177829911666
 30
0.0
 10
-1.142251250427813
 20
-7.819295671916175
 30
0.0
 10
-1.147177034548738
 20
-7.81624763526712
 30
0.0
 10
-1.151698884851374
 20
-7.812675591799906
 30
0.0
 10
-1.15578965538852
 20
-7.808552016990761
 30
0.0
 10
-1.15941800811211
 20
-7.803875900927208
 30
0.0
 10
-1.1625735533778
 20
-7.798670990055573
 30
0.0
 10
-1.165245297544891
 20
-7.792939217581247
 30
0.0
 10
-1.1673712322697
 20
-7.786673976741914
 30
0.0
 10
-1.169054948252809
 20
-7.779899286125551
 30
0.0
 10
-1.170258672936771
 20
-7.77261732548443
 30
0.0
 10
-1.170977746714238
 20
-7.764805725846387
 30
0.0
 10
-1.171069702681379
 20
-7.759425789030204
 30
0.0
 10
-1.171117197306903
 20
-7.756647088611196
 30
0.0
  0
SPLINE
  5
7B
330
1F
100
AcDbEntity
  8
0
  6
Continuous
 62
     7
370
    25
100
AcDbSpline
210
0.0
220
0.0
230
1.0
 70
     8
 71
     3
 72
    11
 73
     7
 74
     0
 42
0.000000001
 43
0.00000001
 40
0.0
 40
0.0
 40
0.0
 40
0.0
 40
0.2486221215478417
 40
0.4968578887023163
 40
0.746673911667881
 40
0.9999999999999999
 40
0.9999999999999999
 40
0.9999999999999999
 40
0.9999999999999999
 10
-1.077256647266962
 20
-7.82002168207234
 30
0.0
 10
-1.079997839942149
 20
-7.820948468755991
 30
0.0
 10
-1.085475965527436
 20
-7.822800601913124
 30
0.0
 10
-1.093980850147003
 20
-7.824628155353482
 30
0.0
 10
-1.102654386126574
 20
-7.825803555728863
 30
0.0
 10
-1.108508406954303
 20
-7.825942715643679
 30
0.0
 10
-1.111455837042154
 20
-7.826012781011059
 30
0.0
  0
SPLINE
  5
105
330
1F
100
AcDbEntity
  8
0
  6
Continuous
 62
     7
370
    25
100
AcDbSpline
210
0.0
220
0.0
230
1.0
 70
     8
 71
     3
 72
    19
 73
    15
 74
     0
 42
0.000000001
 43
0.00000001
 40
0.0
 40
0.0
 40
0.0
 40
0.0
 40
0.1284981655153785
 40
0.2500963721884937
 40
0.3672550338555952
 40
0.4824276248329271
 40
0.5400558955452536
 40
0.5987649891512564
 40
0.6591509354939198
 40
0.7217618939298664
 40
0.7864467407061667
 40
0.8542535477501711
 40
0.925565268508034
 40
1.0
 40
1.0
 40
1.0
 40
1.0
 10
-0.7257788428620785
 20
-7.719296331165116
 30
0.0
 10
-0.7258426541123862
 20
-7.721069657598072
 30
0.0
 10
-0.7259668501438451
 20
-7.724521088253204
 30
0.0
 10
-0.7269936707260239
 20
-7.729503910918486
 30
0.0
 10
-0.7286376958474031
 20
-7.734117223424024
 30
0.0
 10
-0.7306101924262318
 20
-7.737620625578834
 30
0.0
 10
-0.7325259287707551
 20
-7.740179690140002
 30
0.0
 10
-0.7341928977126031
 20
-7.741963651618613
 30
0.0
 10
-0.7360747848714141
 20
-7.743623659779308
 30
0.0
 10
-0.7381724154111148
 20
-7.745144737709755
 30
0.0
 10
-0.740463548430056
 20
-7.746560045681798
 30
0.0
 10
-0.7429708718401978
 20
-7.747835231093219
 30
0.0
 10
-0.7456827470308502
 20
-7.74899019511705
 30
0.0
 10
-0.7475856575376182
 20
-7.749638441288788
 30
0.0
 10
-0.7485575002853354
 20
-7.749969509585748
 30
0.0
  0
SPLINE
  5
106
330
1F
100
AcDbEntity
  8
0
  6
Continuous
 62
     7
370
    25
100
AcDbSpline
210
0.0
220
0.0
230
1.0
 70
     8
 71
     3
 72
    23
 73
    19
 74
     0
 42
0.000000001
 43
0.00000001
 40
0.0
 40
0.0
 40
0.0
 40
0.0
 40
0.0867985091117843
 40
0.1680325757699647
 40
0.2438549343749068
 40
0.315143064871266
 40
0.3818274405512954
 40
0.4445164656257089
 40
0.5035922754268302
 40
0.559498659529216
 40
0.6133316326846711
 40
0.6658467966471363
 40
0.7179152797095483
 40
0.7701264042050384
 40
0.8240197862945471
 40
0.8797950640280581
 40
0.9382240930441976
 40
1.0
 40
1.0
 40
1.0
 40
1.0
 10
-0.7720538414356264
 20
-7.686220472440935
 30
0.0
 10
-0.7701806588210288
 20
-7.686238757111688
 30
0.0
 10
-0.766554378798028
 20
-7.686274154267188
 30
0.0
 10
-0.7613075225578206
 20
-7.686706023062633
 30
0.0
 10
-0.7564155438354883
 20
-7.687302412534861
 30
0.0
 10
-0.7518834302165281
 20
-7.68819316040888
 30
0.0
 10
-0.7477214691324783
 20
-7.689397306155773
 30
0.0
 10
-0.7438895302953931
 20
-7.690771428689414
 30
0.0
 10
-0.7404402039495361
 20
-7.692463537277693
 30
0.0
 10
-0.737355683846709
 20
-7.694411073552185
 30
0.0
 10
-0.734605205677982
 20
-7.696593081476618
 30
0.0
 10
-0.7322558619274633
 20
-7.699089076174379
 30
0.0
 10
-0.7302348048291144
 20
-7.701813206843986
 30
0.0
 10
-0.7286019444902954
 20
-7.704821476300824
 30
0.0
 10
-0.7273181357156726
 20
-7.7080789397471
 30
0.0
 10
-0.7264189758974332
 20
-7.71160084129932
 30
0.0
 10
-0.7258869585568662
 20
-7.715369212593164
 30
0.0
 10
-0.7258155442257727
 20
-7.717963216604251
 30
0.0
 10
-0.7257788428620785
 20
-7.719296331165116
 30
0.0
  0
SPLINE
  5
10A
330
1F
100
AcDbEntity
  8
0
  6
Continuous
 62
     7
370
    25
100
AcDbSpline
210
0.0
220
0.0
230
1.0
 70
     8
 71
     3
 72
    23
 73
    19
 74
     0
 42
0.000000001
 43
0.00000001
 40
0.0
 40
0.0
 40
0.0
 40
0.0
 40
0.063313682890201
 40
0.1236212564302733
 40
0.181247200255395
 40
0.2377750500866865
 40
0.2933281455562319
 40
0.3486975841341323
 40
0.4040492171251532
 40
0.4607207470078063
 40
0.5188406365282113
 40
0.5790432383433344
 40
0.641899880168824
 40
0.7075273827491839
 40
0.7762486839700847
 40
0.8476824240526295
 40
0.922139740540054
 40
1.0
 40
1.0
 40
1.0
 40
1.0
 10
-0.7217847769029321
 20
-7.782296480942589
 30
0.0
 10
-0.7218327842012412
 20
-7.78392175644911
 30
0.0
 10
-0.7219265194297712
 20
-7.787095140005233
 30
0.0
 10
-0.7226542358873702
 20
-7.791702750270514
 30
0.0
 10
-0.7238473655146073
 20
-7.796026194313906
 30
0.0
 10
-0.7254919119321901
 20
-7.800072409499113
 30
0.0
 10
-0.7276447478371912
 20
-7.803804644192792
 30
0.0
 10
-0.7301790421118332
 20
-7.807246798661613
 30
0.0
 10
-0.7331030827327143
 20
-7.810408739325648
 30
0.0
 10
-0.7364663174745808
 20
-7.813209202056869
 30
0.0
 10
-0.7402006705271401
 20
-7.815716198823931
 30
0.0
 10
-0.7443126116983314
 20
-7.817903144168636
 30
0.0
 10
-0.7487885765732766
 20
-7.819765023567625
 30
0.0
 10
-0.7536069051761848
 20
-7.821331052221269
 30
0.0
 10
-0.7587552740322728
 20
-7.82252959590536
 30
0.0
 10
-0.7641963347727061
 20
-7.823408681027449
 30
0.0
 10
-0.7699230787948653
 20
-7.823896411289423
 30
0.0
 10
-0.7738315741713823
 20
-7.823975381027062
 30
0.0
 10
-0.775829481912632
 20
-7.824015748031486
 30
0.0
  0
SPLINE
  5
10B
330
1F
100
AcDbEntity
  8
0
  6
Continuous
 62
     7
370
    25
100
AcDbSpline
210
0.0
220
0.0
230
1.0
 70
     8
 71
     3
 72
    21
 73
    17
 74
     0
 42
0.000000001
 43
0.00000001
 40
0.0
 40
0.0
 40
0.0
 40
0.0
 40
0.1193297730280843
 40
0.238939289339104
 40
0.29818160016732
 40
0.3573455066324192
 40
0.4163168818602794
 40
0.4755748611126905
 40
0.5351609255415939
 40
0.5960073333770475
 40
0.6578862958431106
 40
0.7219435773480256
 40
0.7878720589939027
 40
0.8556372046181299
 40
0.926368475432793
 40
1.0
 40
1.0
 40
1.0
 40
1.0
 10
-0.7485575002853354
 20
-7.749969509585748
 30
0.0
 10
-0.7467838049486686
 20
-7.750396289275989
 30
0.0
 10
-0.7432322562237119
 20
-7.751250849150717
 30
0.0
 10
-0.7390386600393698
 20
-7.753092966475466
 30
0.0
 10
-0.735901415503111
 20
-7.754930056156859
 30
0.0
 10
-0.7336809857425209
 20
-7.756487208325527
 30
0.0
 10
-0.731615971016608
 20
-7.758244314561106
 30
0.0
 10
-0.7297021290037605
 20
-7.760176090886325
 30
0.0
 10
-0.7279873123492037
 20
-7.762321488516005
 30
0.0
 10
-0.7264092866975497
 20
-7.764620067769736
 30
0.0
 10
-0.7250841754379294
 20
-7.76714944402584
 30
0.0
 10
-0.7238740636400566
 20
-7.769820628146612
 30
0.0
 10
-0.7229523397703327
 20
-7.772701854497591
 30
0.0
 10
-0.7222561656046984
 20
-7.775747382470129
 30
0.0
 10
-0.7218470663457115
 20
-7.778967295760701
 30
0.0
 10
-0.7218058162889004
 20
-7.781171988430279
 30
0.0
 10
-0.7217847769029321
 20
-7.782296480942589
 30
0.0
  0
SPLINE
  5
116
330
1F
100
AcDbEntity
  8
0
  6
Continuous
 62
     7
370
    25
100
AcDbSpline
210
0.0
220
0.0
230
1.0
 70
     8
 71
     3
 72
    21
 73
    17
 74
     0
 42
0.000000001
 43
0.00000001
 40
0.0
 40
0.0
 40
0.0
 40
0.0
 40
0.1047889917100669
 40
0.2055496718085617
 40
0.2552762233233328
 40
0.3053897577290914
 40
0.3547195395606322
 40
0.4060868444291559
 40
0.4609349112815269
 40
0.5190441926021238
 40
0.5822755280424002
 40
0.6504153112792129
 40
0.7260340123579417
 40
0.8086898182713607
 40
0.9003963041680231
 40
1.0
 40
1.0
 40
1.0
 40
1.0
 10
-0.7457491726578105
 20
-7.7218862333105
 30
0.0
 10
-0.7458125876823749
 20
-7.720551198462917
 30
0.0
 10
-0.7459369799231462
 20
-7.717932450345435
 30
0.0
 10
-0.7466734506692992
 20
-7.714732923389768
 30
0.0
 10
-0.7476846034414697
 20
-7.712380570110764
 30
0.0
 10
-0.7486313500655538
 20
-7.710722984156273
 30
0.0
 10
-0.7498631512194367
 20
-7.709239804953355
 30
0.0
 10
-0.7512722941688412
 20
-7.707839561892979
 30
0.0
 10
-0.752969051501652
 20
-7.706599119318454
 30
0.0
 10
-0.7549327722917112
 20
-7.705501455212126
 30
0.0
 10
-0.7571546358517423
 20
-7.704548153603755
 30
0.0
 10
-0.759651315999257
 20
-7.703687452829638
 30
0.0
 10
-0.7624613595176768
 20
-7.703014943795549
 30
0.0
 10
-0.7656101906935715
 20
-7.702511789218013
 30
0.0
 10
-0.769095342981207
 20
-7.702248246206197
 30
0.0
 10
-0.771533386367952
 20
-7.702214372353569
 30
0.0
 10
-0.7728027288029665
 20
-7.702196736277521
 30
0.0
  0
SPLINE
  5
11A
330
1F
100
AcDbEntity
  8
0
  6
Continuous
 62
     7
370
    25
100
AcDbSpline
210
0.0
220
0.0
230
1.0
 70
     8
 71
     3
 72
    21
 73
    17
 74
     0
 42
0.000000001
 43
0.00000001
 40
0.0
 40
0.0
 40
0.0
 40
0.0
 40
0.1480855235588024
 40
0.283364485336005
 40
0.3472727233243122
 40
0.4079493098012271
 40
0.4671464882916178
 40
0.524472075589722
 40
0.5804706609471932
 40
0.63581817168025
 40
0.6912468094086132
 40
0.7477088833280977
 40
0.806065113881232
 40
0.8668945569800888
 40
0.9310414077635226
 40
1.0
 40
1.0
 40
1.0
 40
1.0
 10
-0.773426801609083
 20
-7.744134428848558
 30
0.0
 10
-0.7714357124654502
 20
-7.744070507727185
 30
0.0
 10
-0.7676257252574871
 20
-7.743948193437278
 30
0.0
 10
-0.7630164631437869
 20
-7.743118562812195
 30
0.0
 10
-0.7596541973868453
 20
-7.742146507232748
 30
0.0
 10
-0.7574019416104377
 20
-7.741125879016854
 30
0.0
 10
-0.7552552757773828
 20
-7.740084184135252
 30
0.0
 10
-0.7533584908401391
 20
-7.738739372362088
 30
0.0
 10
-0.7516143120542775
 20
-7.737284779716539
 30
0.0
 10
-0.7501211785012767
 20
-7.735605289576472
 30
0.0
 10
-0.7487870672591986
 20
-7.733791258009901
 30
0.0
 10
-0.7476956975008057
 20
-7.73177317167106
 30
0.0
 10
-0.7468124128526921
 20
-7.729578222101789
 30
0.0
 10
-0.7461962474088059
 20
-7.727187173562911
 30
0.0
 10
-0.745813229786257
 20
-7.724602931422828
 30
0.0
 10
-0.7457710334970972
 20
-7.722813363549781
 30
0.0
 10
-0.7457491726578105
 20
-7.7218862333105
 30
0.0
  0
SPLINE
  5
11B
330
1F
100
AcDbEntity
  8
0
  6
Continuous
 62
     7
370
    25
100
AcDbSpline
210
0.0
220
0.0
230
1.0
 70
     8
 71
     3
 72
    23
 73
    19
 74
     0
 42
0.000000001
 43
0.00000001
 40
0.0
 40
0.0
 40
0.0
 40
0.0
 40
0.0592559504114046
 40
0.1163484610516524
 40
0.1718878797275517
 40
0.2261959190174802
 40
0.2805039583074013
 40
0.3344172981890676
 40
0.3893814971395181
 40
0.445626018774895
 40
0.5039826584582235
 40
0.5648973851339377
 40
0.628858076716865
 40
0.6960712502772997
 40
0.7669986651658527
 40
0.8406242451728765
 40
0.9186785141792438
 40
1.0
 40
1.0
 40
1.0
 40
1.0
 10
-0.7417551066986642
 20
-7.783014164669623
 30
0.0
 10
-0.7417748646608165
 20
-7.782148944471846
 30
0.0
 10
-0.7418136592202484
 20
-7.780450093339036
 30
0.0
 10
-0.7422442681217782
 20
-7.77797308660114
 30
0.0
 10
-0.7428782798242856
 20
-7.775616237553746
 30
0.0
 10
-0.743840120932455
 20
-7.773415901106265
 30
0.0
 10
-0.7450128987581435
 20
-7.771349564033934
 30
0.0
 10
-0.7464715125794656
 20
-7.769458475598423
 30
0.0
 10
-0.7481697326299208
 20
-7.767744942357853
 30
0.0
 10
-0.7500790082144013
 20
-7.766163564347949
 30
0.0
 10
-0.7522540003759688
 20
-7.764802288515914
 30
0.0
 10
-0.7546351778828776
 20
-7.763583425648611
 30
0.0
 10
-0.7572310817928554
 20
-7.762519084140807
 30
0.0
 10
-0.7600516035170698
 20
-7.761649882820819
 30
0.0
 10
-0.7630683218506058
 20
-7.760973662872306
 30
0.0
 10
-0.7662785228978677
 20
-7.760475950792691
 30
0.0
 10
-0.7696653700458992
 20
-7.760153768721163
 30
0.0
 10
-0.7719906819742358
 20
-7.760125246268073
 30
0.0
 10
-0.7731771724866363
 20
-7.760110692685144
 30
0.0
  0
SPLINE
  5
11F
330
1F
100
AcDbEntity
  8
0
  6
Continuous
 62
     7
370
    25
100
AcDbSpline
210
0.0
220
0.0
230
1.0
 70
     8
 71
     3
 72
    23
 73
    19
 74
     0
 42
0.000000001
 43
0.00000001
 40
0.0
 40
0.0
 40
0.0
 40
0.0
 40
0.0828887745299857
 40
0.1598359353401955
 40
0.2324721440308175
 40
0.3005868538903164
 40
0.3642788647146276
 40
0.4241762168497916
 40
0.4811811167209936
 40
0.5353209501410332
 40
0.5881587648771377
 40
0.6411206954564423
 40
0.6946945158750377
 40
0.7498427863239591
 40
0.8070160909929897
 40
0.8673308785160994
 40
0.9314631619375541
 40
1.0
 40
1.0
 40
1.0
 40
1.0
 10
-0.7725530996805197
 20
-7.8080394841949
 30
0.0
 10
-0.7712938975774924
 20
-7.808023454497847
 30
0.0
 10
-0.7688657552016285
 20
-7.807992544140732
 30
0.0
 10
-0.7653447938824215
 20
-7.807701394989241
 30
0.0
 10
-0.7620649220042686
 20
-7.807258498031903
 30
0.0
 10
-0.759036397431135
 20
-7.806557249905365
 30
0.0
 10
-0.7562436053662657
 20
-7.805727740675758
 30
0.0
 10
-0.7536900666386527
 20
-7.804707995809061
 30
0.0
 10
-0.7514149866123908
 20
-7.803444709862756
 30
0.0
 10
-0.7493468453298767
 20
-7.802046193393735
 30
0.0
 10
-0.7475536762022756
 20
-7.800395478165658
 30
0.0
 10
-0.745978963399785
 20
-7.798549058986546
 30
0.0
 10
-0.7446577405238918
 20
-7.796468467210459
 30
0.0
 10
-0.7436090607547489
 20
-7.794171588895069
 30
0.0
 10
-0.7427515495086494
 20
-7.791688559521694
 30
0.0
 10
-0.7421684745052799
 20
-7.788986468839317
 30
0.0
 10
-0.7418290368172428
 20
-7.78607044248785
 30
0.0
 10
-0.7417802895340851
 20
-7.784055225373661
 30
0.0
 10
-0.7417551066986642
 20
-7.783014164669623
 30
0.0
  0
LINE
  5
120
330
1F
100
AcDbEntity
  8
0
  6
Continuous
 62
     7
370
    25
100
AcDbLine
 10
-1.0772566473
 20
-7.6902145384
 30
0.0
 11
-1.0772566473
 21
-7.7081878352
 31
0.0
  0
LINE
  5
121
330
1F
100
AcDbEntity
  8
0
  6
Continuous
 62
     7
370
    25
100
AcDbLine
 10
-1.0772566473
 20
-7.8020483853
 30
0.0
 11
-1.0772566473
 21
-7.8200216821
 31
0.0
  0
LINE
  5
122
330
1F
100
AcDbEntity
  8
0
  6
Continuous
 62
     7
370
    25
100
AcDbLine
 10
-0.9454524706
 20
-7.8519742097
 30
0.0
 11
-0.8276275248
 21
-7.8519742097
 31
0.0
  0
LINE
  5
123
330
1F
100
AcDbEntity
  8
0
  6
Continuous
 62
     7
370
    25
100
AcDbLine
 10
-0.9454524706
 20
-7.8679504736
 30
0.0
 11
-0.9454524706
 21
-7.8519742097
 31
0.0
  0
LINE
  5
124
330
1F
100
AcDbEntity
  8
0
  6
Continuous
 62
     7
370
    25
100
AcDbLine
 10
-0.8276275248
 20
-7.8679504736
 30
0.0
 11
-0.9454524706
 21
-7.8679504736
 31
0.0
  0
LINE
  5
125
330
1F
100
AcDbEntity
  8
0
  6
Continuous
 62
     7
370
    25
100
AcDbLine
 10
-0.8276275248
 20
-7.8519742097
 30
0.0
 11
-0.8276275248
 21
-7.8679504736
 31
0.0
  0
LINE
  5
126
330
1F
100
AcDbEntity
  8
0
  6
Continuous
 62
     7
370
    25
100
AcDbLine
 10
-0.6918292822
 20
-7.8080394842
 30
0.0
 11
-0.6598767545
 21
-7.8080394842
 31
0.0
  0
LINE
  5
127
330
1F
100
AcDbEntity
  8
0
  6
Continuous
 62
     7
370
    25
100
AcDbLine
 10
-0.6918292822
 20
-7.824015748
 30
0.0
 11
-0.6918292822
 21
-7.8080394842
 31
0.0
  0
LINE
  5
128
330
1F
100
AcDbEntity
  8
0
  6
Continuous
 62
     7
370
    25
100
AcDbLine
 10
-0.6079538971
 20
-7.824015748
 30
0.0
 11
-0.6918292822
 21
-7.824015748
 31
0.0
  0
LINE
  5
129
330
1F
100
AcDbEntity
  8
0
  6
Continuous
 62
     7
370
    25
100
AcDbLine
 10
-0.6079538971
 20
-7.8080394842
 30
0.0
 11
-0.6079538971
 21
-7.824015748
 31
0.0
  0
LINE
  5
12A
330
1F
100
AcDbEntity
  8
0
  6
Continuous
 62
     7
370
    25
100
AcDbLine
 10
-0.6399064247
 20
-7.8080394842
 30
0.0
 11
-0.6079538971
 21
-7.8080394842
 31
0.0
  0
LINE
  5
12B
330
1F
100
AcDbEntity
  8
0
  6
Continuous
 62
     7
370
    25
100
AcDbLine
 10
-0.6399064247
 20
-7.7021967363
 30
0.0
 11
-0.6399064247
 21
-7.8080394842
 31
0.0
  0
LINE
  5
12C
330
1F
100
AcDbEntity
  8
0
  6
Continuous
 62
     7
370
    25
100
AcDbLine
 10
-0.6079538971
 20
-7.7021967363
 30
0.0
 11
-0.6399064247
 21
-7.7021967363
 31
0.0
  0
LINE
  5
12D
330
1F
100
AcDbEntity
  8
0
  6
Continuous
 62
     7
370
    25
100
AcDbLine
 10
-0.6079538971
 20
-7.6862204724
 30
0.0
 11
-0.6079538971
 21
-7.7021967363
 31
0.0
  0
LINE
  5
12E
330
1F
100
AcDbEntity
  8
0
  6
Continuous
 62
     7
370
    25
100
AcDbLine
 10
-0.6918292822
 20
-7.6862204724
 30
0.0
 11
-0.6079538971
 21
-7.6862204724
 31
0.0
  0
LINE
  5
12F
330
1F
100
AcDbEntity
  8
0
  6
Continuous
 62
     7
370
    25
100
AcDbLine
 10
-0.6918292822
 20
-7.7021967363
 30
0.0
 11
-0.6918292822
 21
-7.6862204724
 31
0.0
  0
LINE
  5
130
330
1F
100
AcDbEntity
  8
0
  6
Continuous
 62
     7
370
    25
100
AcDbLine
 10
-0.6598767545
 20
-7.7021967363
 30
0.0
 11
-0.6918292822
 21
-7.7021967363
 31
0.0
  0
LINE
  5
131
330
1F
100
AcDbEntity
  8
0
  6
Continuous
 62
     7
370
    25
100
AcDbLine
 10
-0.6598767545
 20
-7.8080394842
 30
0.0
 11
-0.6598767545
 21
-7.7021967363
 31
0.0
  0
LINE
  5
132
330
1F
100
AcDbEntity
  8
0
  6
Continuous
 62
     7
370
    25
100
AcDbLine
 10
0.1767766953
 20
-4.3302086614
 30
0.0
 11
0.0436825951
 21
-4.3302086614
 31
0.0
  0
LINE
  5
133
330
1F
100
AcDbEntity
  8
0
  6
Continuous
 62
     7
370
    25
100
AcDbLine
 10
0.0
 20
-4.3749028352
 30
0.0
 11
0.0
 21
-4.680215275
 31
0.0
  0
LINE
  5
134
330
1F
100
AcDbEntity
  8
0
  6
Continuous
 62
     7
370
    25
100
AcDbLine
 10
0.1767766953
 20
-4.7249094488
 30
0.0
 11
0.0436825951
 21
-4.7249094488
 31
0.0
  0
LINE
  5
135
330
1F
100
AcDbEntity
  8
0
  6
Continuous
 62
     7
370
    25
100
AcDbLine
 10
0.1767766953
 20
-4.7249094488
 30
0.0
 11
0.1767766953
 21
-5.1176102362
 31
0.0
  0
LINE
  5
136
330
1F
100
AcDbEntity
  8
0
  6
Continuous
 62
     7
370
    25
100
AcDbLine
 10
0.1767766953
 20
-5.1176102362
 30
0.0
 11
0.0436825951
 21
-5.1176102362
 31
0.0
  0
LINE
  5
137
330
1F
100
AcDbEntity
  8
0
  6
Continuous
 62
     7
370
    25
100
AcDbLine
 10
0.0
 20
-5.16230441
 30
0.0
 11
0.0
 21
-5.4676168498
 31
0.0
  0
LINE
  5
138
330
1F
100
AcDbEntity
  8
0
  6
Continuous
 62
     7
370
    25
100
AcDbLine
 10
0.1767766953
 20
-5.5123110236
 30
0.0
 11
0.0436825951
 21
-5.5123110236
 31
0.0
  0
LINE
  5
139
330
1F
100
AcDbEntity
  8
0
  6
Continuous
 62
     7
370
    25
100
AcDbLine
 10
0.1767766953
 20
-5.5123110236
 30
0.0
 11
0.1767766953
 21
-5.905011811
 31
0.0
  0
LINE
  5
13A
330
1F
100
AcDbEntity
  8
0
  6
Continuous
 62
     7
370
    25
100
AcDbLine
 10
0.1767766953
 20
-5.905011811
 30
0.0
 11
0.0436825951
 21
-5.905011811
 31
0.0
  0
LINE
  5
13B
330
1F
100
AcDbEntity
  8
0
  6
Continuous
 62
     7
370
    25
100
AcDbLine
 10
0.0
 20
-5.9497059848
 30
0.0
 11
0.0
 21
-6.2550184246
 31
0.0
  0
LINE
  5
13C
330
1F
100
AcDbEntity
  8
0
  6
Continuous
 62
     7
370
    25
100
AcDbLine
 10
0.1767766953
 20
-6.2997125984
 30
0.0
 11
0.0436825951
 21
-6.2997125984
 31
0.0
  0
LINE
  5
13D
330
1F
100
AcDbEntity
  8
0
  6
Continuous
 62
     7
370
    25
100
AcDbLine
 10
0.1767766953
 20
-6.2997125984
 30
0.0
 11
0.1767766953
 21
-6.6924133858
 31
0.0
  0
LINE
  5
13E
330
1F
100
AcDbEntity
  8
0
  6
Continuous
 62
     7
370
    25
100
AcDbLine
 10
0.1767766953
 20
-6.6924133858
 30
0.0
 11
0.0436825951
 21
-6.6924133858
 31
0.0
  0
LINE
  5
13F
330
1F
100
AcDbEntity
  8
0
  6
Continuous
 62
     7
370
    25
100
AcDbLine
 10
0.0
 20
-6.7371075597
 30
0.0
 11
0.0
 21
-7.0424199994
 31
0.0
  0
LINE
  5
140
330
1F
100
AcDbEntity
  8
0
  6
Continuous
 62
     7
370
    25
100
AcDbLine
 10
0.1767766953
 20
-7.0871141732
 30
0.0
 11
0.0436825951
 21
-7.0871141732
 31
0.0
  0
LINE
  5
141
330
1F
100
AcDbEntity
  8
0
  6
Continuous
 62
     7
370
    25
100
AcDbLine
 10
0.1767766953
 20
-7.0871141732
 30
0.0
 11
0.1767766953
 21
-7.4798149606
 31
0.0
  0
LINE
  5
142
330
1F
100
AcDbEntity
  8
0
  6
Continuous
 62
     7
370
    25
100
AcDbLine
 10
0.1767766953
 20
-7.4798149606
 30
0.0
 11
0.0436825951
 21
-7.4798149606
 31
0.0
  0
LINE
  5
143
330
1F
100
AcDbEntity
  8
0
  6
Continuous
 62
     7
370
    25
100
AcDbLine
 10
0.0
 20
-7.5245091345
 30
0.0
 11
0.0
 21
-7.874015748
 31
0.0
  0
LINE
  5
144
330
1F
100
AcDbEntity
  8
0
  6
Continuous
 62
     7
370
    25
100
AcDbLine
 10
0.0
 20
-7.874015748
 30
0.0
 11
-1.1811023622
 21
-7.874015748
 31
0.0
  0
LINE
  5
145
330
1F
100
AcDbEntity
  8
0
  6
Continuous
 62
     7
370
    25
100
AcDbLine
 10
-1.1811023622
 20
-7.874015748
 30
0.0
 11
-1.1811023622
 21
-7.5245091345
 31
0.0
  0
LINE
  5
146
330
1F
100
AcDbEntity
  8
0
  6
Continuous
 62
     7
370
    25
100
AcDbLine
 10
-1.3578790575
 20
-7.4798149606
 30
0.0
 11
-1.2247849573
 21
-7.4798149606
 31
0.0
  0
LINE
  5
147
330
1F
100
AcDbEntity
  8
0
  6
Continuous
 62
     7
370
    25
100
AcDbLine
 10
-1.3578790575
 20
-7.4798149606
 30
0.0
 11
-1.3578790575
 21
-7.0871141732
 31
0.0
  0
LINE
  5
148
330
1F
100
AcDbEntity
  8
0
  6
Continuous
 62
     7
370
    25
100
AcDbLine
 10
-1.3578790575
 20
-7.0871141732
 30
0.0
 11
-1.2247849573
 21
-7.0871141732
 31
0.0
  0
LINE
  5
149
330
1F
100
AcDbEntity
  8
0
  6
Continuous
 62
     7
370
    25
100
AcDbLine
 10
-1.1811023622
 20
-7.0424199994
 30
0.0
 11
-1.1811023622
 21
-6.7371075597
 31
0.0
  0
LINE
  5
14A
330
1F
100
AcDbEntity
  8
0
  6
Continuous
 62
     7
370
    25
100
AcDbLine
 10
-1.3578790575
 20
-6.6924133858
 30
0.0
 11
-1.2247849573
 21
-6.6924133858
 31
0.0
  0
LINE
  5
14B
330
1F
100
AcDbEntity
  8
0
  6
Continuous
 62
     7
370
    25
100
AcDbLine
 10
-1.3578790575
 20
-6.6924133858
 30
0.0
 11
-1.3578790575
 21
-6.2997125984
 31
0.0
  0
LINE
  5
14C
330
1F
100
AcDbEntity
  8
0
  6
Continuous
 62
     7
370
    25
100
AcDbLine
 10
-1.3578790575
 20
-6.2997125984
 30
0.0
 11
-1.2247849573
 21
-6.2997125984
 31
0.0
  0
LINE
  5
14D
330
1F
100
AcDbEntity
  8
0
  6
Continuous
 62
     7
370
    25
100
AcDbLine
 10
-1.1811023622
 20
-6.2550184246
 30
0.0
 11
-1.1811023622
 21
-5.9497059848
 31
0.0
  0
LINE
  5
14E
330
1F
100
AcDbEntity
  8
0
  6
Continuous
 62
     7
370
    25
100
AcDbLine
 10
-1.3578790575
 20
-5.905011811
 30
0.0
 11
-1.2247849573
 21
-5.905011811
 31
0.0
  0
LINE
  5
14F
330
1F
100
AcDbEntity
  8
0
  6
Continuous
 62
     7
370
    25
100
AcDbLine
 10
-1.3578790575
 20
-5.905011811
 30
0.0
 11
-1.3578790575
 21
-5.5123110236
 31
0.0
  0
LINE
  5
150
330
1F
100
AcDbEntity
  8
0
  6
Continuous
 62
     7
370
    25
100
AcDbLine
 10
-1.3578790575
 20
-5.5123110236
 30
0.0
 11
-1.2247849573
 21
-5.5123110236
 31
0.0
  0
LINE
  5
151
330
1F
100
AcDbEntity
  8
0
  6
Continuous
 62
     7
370
    25
100
AcDbLine
 10
-1.1811023622
 20
-5.4676168498
 30
0.0
 11
-1.1811023622
 21
-5.16230441
 31
0.0
  0
LINE
  5
152
330
1F
100
AcDbEntity
  8
0
  6
Continuous
 62
     7
370
    25
100
AcDbLine
 10
-1.3578790575
 20
-5.1176102362
 30
0.0
 11
-1.2247849573
 21
-5.1176102362
 31
0.0
  0
LINE
  5
153
330
1F
100
AcDbEntity
  8
0
  6
Continuous
 62
     7
370
    25
100
AcDbLine
 10
-1.3578790575
 20
-5.1176102362
 30
0.0
 11
-1.3578790575
 21
-4.7249094488
 31
0.0
  0
LINE
  5
154
330
1F
100
AcDbEntity
  8
0
  6
Continuous
 62
     7
370
    25
100
AcDbLine
 10
-1.3578790575
 20
-4.7249094488
 30
0.0
 11
-1.2247849573
 21
-4.7249094488
 31
0.0
  0
LINE
  5
155
330
1F
100
AcDbEntity
  8
0
  6
Continuous
 62
     7
370
    25
100
AcDbLine
 10
-1.1811023622
 20
-4.680215275
 30
0.0
 11
-1.1811023622
 21
-4.3749028352
 31
0.0
  0
LINE
  5
156
330
1F
100
AcDbEntity
  8
0
  6
Continuous
 62
     7
370
    25
100
AcDbLine
 10
-1.3578790575
 20
-4.3302086614
 30
0.0
 11
-1.2247849573
 21
-4.3302086614
 31
0.0
  0
LINE
  5
157
330
1F
100
AcDbEntity
  8
0
  6
Continuous
 62
     7
370
    25
100
AcDbLine
 10
-1.3578790575
 20
-4.3302086614
 30
0.0
 11
-1.3578790575
 21
-3.937507874
 31
0.0
  0
LINE
  5
158
330
1F
100
AcDbEntity
  8
0
  6
Continuous
 62
     7
370
    25
100
AcDbLine
 10
-1.3578790575
 20
-3.937507874
 30
0.0
 11
-1.2247849573
 21
-3.937507874
 31
0.0
  0
LINE
  5
159
330
1F
100
AcDbEntity
  8
0
  6
Continuous
 62
     7
370
    25
100
AcDbLine
 10
-1.1811023622
 20
-3.8928137002
 30
0.0
 11
-1.1811023622
 21
-3.5875012604
 31
0.0
  0
LINE
  5
15A
330
1F
100
AcDbEntity
  8
0
  6
Continuous
 62
     7
370
    25
100
AcDbLine
 10
-1.3578790575
 20
-3.5428070866
 30
0.0
 11
-1.2247849573
 21
-3.5428070866
 31
0.0
  0
LINE
  5
15B
330
1F
100
AcDbEntity
  8
0
  6
Continuous
 62
     7
370
    25
100
AcDbLine
 10
-1.3578790575
 20
-3.5428070866
 30
0.0
 11
-1.3578790575
 21
-3.1501062992
 31
0.0
  0
LINE
  5
15C
330
1F
100
AcDbEntity
  8
0
  6
Continuous
 62
     7
370
    25
100
AcDbLine
 10
-1.3578790575
 20
-3.1501062992
 30
0.0
 11
-1.2247849573
 21
-3.1501062992
 31
0.0
  0
LINE
  5
15D
330
1F
100
AcDbEntity
  8
0
  6
Continuous
 62
     7
370
    25
100
AcDbLine
 10
-1.1811023622
 20
-3.1054121254
 30
0.0
 11
-1.1811023622
 21
-2.8000996856
 31
0.0
  0
LINE
  5
15E
330
1F
100
AcDbEntity
  8
0
  6
Continuous
 62
     7
370
    25
100
AcDbLine
 10
-1.3578790575
 20
-2.7554055118
 30
0.0
 11
-1.2247849573
 21
-2.7554055118
 31
0.0
  0
LINE
  5
15F
330
1F
100
AcDbEntity
  8
0
  6
Continuous
 62
     7
370
    25
100
AcDbLine
 10
-1.3578790575
 20
-2.7554055118
 30
0.0
 11
-1.3578790575
 21
-2.3627047244
 31
0.0
  0
LINE
  5
160
330
1F
100
AcDbEntity
  8
0
  6
Continuous
 62
     7
370
    25
100
AcDbLine
 10
-1.3578790575
 20
-2.3627047244
 30
0.0
 11
-1.2247849573
 21
-2.3627047244
 31
0.0
  0
LINE
  5
161
330
1F
100
AcDbEntity
  8
0
  6
Continuous
 62
     7
370
    25
100
AcDbLine
 10
-1.1811023622
 20
-2.3180105506
 30
0.0
 11
-1.1811023622
 21
-2.0126981108
 31
0.0
  0
LINE
  5
162
330
1F
100
AcDbEntity
  8
0
  6
Continuous
 62
     7
370
    25
100
AcDbLine
 10
-1.3578790575
 20
-1.968003937
 30
0.0
 11
-1.2247849573
 21
-1.968003937
 31
0.0
  0
LINE
  5
163
330
1F
100
AcDbEntity
  8
0
  6
Continuous
 62
     7
370
    25
100
AcDbLine
 10
-1.3578790575
 20
-1.968003937
 30
0.0
 11
-1.3578790575
 21
-1.5753031496
 31
0.0
  0
LINE
  5
164
330
1F
100
AcDbEntity
  8
0
  6
Continuous
 62
     7
370
    25
100
AcDbLine
 10
-1.3578790575
 20
-1.5753031496
 30
0.0
 11
-1.2247849573
 21
-1.5753031496
 31
0.0
  0
LINE
  5
165
330
1F
100
AcDbEntity
  8
0
  6
Continuous
 62
     7
370
    25
100
AcDbLine
 10
-1.1811023622
 20
-1.5306089758
 30
0.0
 11
-1.1811023622
 21
-1.225296536
 31
0.0
  0
LINE
  5
166
330
1F
100
AcDbEntity
  8
0
  6
Continuous
 62
     7
370
    25
100
AcDbLine
 10
-1.3578790575
 20
-1.1806023622
 30
0.0
 11
-1.2247849573
 21
-1.1806023622
 31
0.0
  0
LINE
  5
167
330
1F
100
AcDbEntity
  8
0
  6
Continuous
 62
     7
370
    25
100
AcDbLine
 10
-1.3578790575
 20
-1.1806023622
 30
0.0
 11
-1.3578790575
 21
-0.7874015748
 31
0.0
  0
LINE
  5
168
330
1F
100
AcDbEntity
  8
0
  6
Continuous
 62
     7
370
    25
100
AcDbLine
 10
-1.3578790575
 20
-0.7874015748
 30
0.0
 11
-1.225296536
 21
-0.7874015748
 31
0.0
  0
LINE
  5
169
330
1F
100
AcDbEntity
  8
0
  6
Continuous
 62
     7
370
    25
100
AcDbLine
 10
-1.1811023622
 20
-0.743207401
 30
0.0
 11
-1.1811023622
 21
0.0
 31
0.0
  0
LINE
  5
16A
330
1F
100
AcDbEntity
  8
0
  6
Continuous
 62
     7
370
    25
100
AcDbLine
 10
-1.1811023622
 20
0.0
 30
0.0
 11
0.0
 21
0.0
 31
0.0
  0
LINE
  5
16B
330
1F
100
AcDbEntity
  8
0
  6
Continuous
 62
     7
370
    25
100
AcDbLine
 10
0.0
 20
0.0
 30
0.0
 11
0.0
 21
-0.743207401
 31
0.0
  0
LINE
  5
16C
330
1F
100
AcDbEntity
  8
0
  6
Continuous
 62
     7
370
    25
100
AcDbLine
 10
0.0441941738
 20
-0.7874015748
 30
0.0
 11
0.1767766953
 21
-0.7874015748
 31
0.0
  0
LINE
  5
16D
330
1F
100
AcDbEntity
  8
0
  6
Continuous
 62
     7
370
    25
100
AcDbLine
 10
0.1767766953
 20
-0.7874015748
 30
0.0
 11
0.1767766953
 21
-1.1806023622
 31
0.0
  0
LINE
  5
16E
330
1F
100
AcDbEntity
  8
0
  6
Continuous
 62
     7
370
    25
100
AcDbLine
 10
0.1767766953
 20
-1.1806023622
 30
0.0
 11
0.0436825951
 21
-1.1806023622
 31
0.0
  0
LINE
  5
16F
330
1F
100
AcDbEntity
  8
0
  6
Continuous
 62
     7
370
    25
100
AcDbLine
 10
0.0
 20
-1.225296536
 30
0.0
 11
0.0
 21
-1.5306089758
 31
0.0
  0
LINE
  5
170
330
1F
100
AcDbEntity
  8
0
  6
Continuous
 62
     7
370
    25
100
AcDbLine
 10
0.1767766953
 20
-1.5753031496
 30
0.0
 11
0.0436825951
 21
-1.5753031496
 31
0.0
  0
LINE
  5
171
330
1F
100
AcDbEntity
  8
0
  6
Continuous
 62
     7
370
    25
100
AcDbLine
 10
0.1767766953
 20
-1.5753031496
 30
0.0
 11
0.1767766953
 21
-1.968003937
 31
0.0
  0
LINE
  5
172
330
1F
100
AcDbEntity
  8
0
  6
Continuous
 62
     7
370
    25
100
AcDbLine
 10
0.1767766953
 20
-1.968003937
 30
0.0
 11
0.0436825951
 21
-1.968003937
 31
0.0
  0
LINE
  5
173
330
1F
100
AcDbEntity
  8
0
  6
Continuous
 62
     7
370
    25
100
AcDbLine
 10
0.0
 20
-2.0126981108
 30
0.0
 11
0.0
 21
-2.3180105506
 31
0.0
  0
LINE
  5
174
330
1F
100
AcDbEntity
  8
0
  6
Continuous
 62
     7
370
    25
100
AcDbLine
 10
0.1767766953
 20
-2.3627047244
 30
0.0
 11
0.0436825951
 21
-2.3627047244
 31
0.0
  0
LINE
  5
175
330
1F
100
AcDbEntity
  8
0
  6
Continuous
 62
     7
370
    25
100
AcDbLine
 10
0.1767766953
 20
-2.3627047244
 30
0.0
 11
0.1767766953
 21
-2.7554055118
 31
0.0
  0
LINE
  5
176
330
1F
100
AcDbEntity
  8
0
  6
Continuous
 62
     7
370
    25
100
AcDbLine
 10
0.1767766953
 20
-2.7554055118
 30
0.0
 11
0.0436825951
 21
-2.7554055118
 31
0.0
  0
LINE
  5
177
330
1F
100
AcDbEntity
  8
0
  6
Continuous
 62
     7
370
    25
100
AcDbLine
 10
0.0
 20
-2.8000996856
 30
0.0
 11
0.0
 21
-3.1054121254
 31
0.0
  0
LINE
  5
178
330
1F
100
AcDbEntity
  8
0
  6
Continuous
 62
     7
370
    25
100
AcDbLine
 10
0.1767766953
 20
-3.1501062992
 30
0.0
 11
0.0436825951
 21
-3.1501062992
 31
0.0
  0
LINE
  5
179
330
1F
100
AcDbEntity
  8
0
  6
Continuous
 62
     7
370
    25
100
AcDbLine
 10
0.1767766953
 20
-3.1501062992
 30
0.0
 11
0.1767766953
 21
-3.5428070866
 31
0.0
  0
LINE
  5
17A
330
1F
100
AcDbEntity
  8
0
  6
Continuous
 62
     7
370
    25
100
AcDbLine
 10
0.1767766953
 20
-3.5428070866
 30
0.0
 11
0.0436825951
 21
-3.5428070866
 31
0.0
  0
LINE
  5
17B
330
1F
100
AcDbEntity
  8
0
  6
Continuous
 62
     7
370
    25
100
AcDbLine
 10
0.0
 20
-3.5875012604
 30
0.0
 11
0.0
 21
-3.8928137002
 31
0.0
  0
LINE
  5
17C
330
1F
100
AcDbEntity
  8
0
  6
Continuous
 62
     7
370
    25
100
AcDbLine
 10
0.1767766953
 20
-3.937507874
 30
0.0
 11
0.0436825951
 21
-3.937507874
 31
0.0
  0
LINE
  5
17D
330
1F
100
AcDbEntity
  8
0
  6
Continuous
 62
     7
370
    25
100
AcDbLine
 10
0.1767766953
 20
-3.937507874
 30
0.0
 11
0.1767766953
 21
-4.3302086614
 31
0.0
  0
LINE
  5
17E
330
1F
100
AcDbEntity
  8
0
  6
Continuous
 62
     7
370
    25
100
AcDbLine
 10
-0.5819924683
 20
-7.6862204724
 30
0.0
 11
-0.4821408194
 21
-7.6862204724
 31
0.0
  0
LINE
  5
17F
330
1F
100
AcDbEntity
  8
0
  6
Continuous
 62
     7
370
    25
100
AcDbLine
 10
-0.5819924683
 20
-7.7021967363
 30
0.0
 11
-0.5819924683
 21
-7.6862204724
 31
0.0
  0
LINE
  5
180
330
1F
100
AcDbEntity
  8
0
  6
Continuous
 62
     7
370
    25
100
AcDbLine
 10
-0.5420518087
 20
-7.7021967363
 30
0.0
 11
-0.5819924683
 21
-7.7021967363
 31
0.0
  0
LINE
  5
181
330
1F
100
AcDbEntity
  8
0
  6
Continuous
 62
     7
370
    25
100
AcDbLine
 10
-0.5420518087
 20
-7.824015748
 30
0.0
 11
-0.5420518087
 21
-7.7021967363
 31
0.0
  0
LINE
  5
182
330
1F
100
AcDbEntity
  8
0
  6
Continuous
 62
     7
370
    25
100
AcDbLine
 10
-0.5220814789
 20
-7.824015748
 30
0.0
 11
-0.5420518087
 21
-7.824015748
 31
0.0
  0
LINE
  5
183
330
1F
100
AcDbEntity
  8
0
  6
Continuous
 62
     7
370
    25
100
AcDbLine
 10
-0.5220814789
 20
-7.7021967363
 30
0.0
 11
-0.5220814789
 21
-7.824015748
 31
0.0
  0
LINE
  5
184
330
1F
100
AcDbEntity
  8
0
  6
Continuous
 62
     7
370
    25
100
AcDbLine
 10
-0.4821408194
 20
-7.7021967363
 30
0.0
 11
-0.5220814789
 21
-7.7021967363
 31
0.0
  0
LINE
  5
185
330
1F
100
AcDbEntity
  8
0
  6
Continuous
 62
     7
370
    25
100
AcDbLine
 10
-0.4821408194
 20
-7.6862204724
 30
0.0
 11
-0.4821408194
 21
-7.7021967363
 31
0.0
  0
LINE
  5
186
330
1F
100
AcDbEntity
  8
0
  6
Continuous
 62
     7
370
    25
100
AcDbLine
 10
-0.811651261
 20
-7.6862204724
 30
0.0
 11
-0.7720538414
 21
-7.6862204724
 31
0.0
  0
LINE
  5
187
330
1F
100
AcDbEntity
  8
0
  6
Continuous
 62
     7
370
    25
100
AcDbLine
 10
-0.811651261
 20
-7.824015748
 30
0.0
 11
-0.811651261
 21
-7.6862204724
 31
0.0
  0
LINE
  5
188
330
1F
100
AcDbEntity
  8
0
  6
Continuous
 62
     7
370
    25
100
AcDbLine
 10
-0.7758294819
 20
-7.824015748
 30
0.0
 11
-0.811651261
 21
-7.824015748
 31
0.0
  0
LINE
  5
189
330
1F
100
AcDbEntity
  8
0
  6
Continuous
 62
     7
370
    25
100
AcDbLine
 10
-1.0413100536
 20
-7.6862204724
 30
0.0
 11
-0.9634257674
 21
-7.6862204724
 31
0.0
  0
LINE
  5
18A
330
1F
100
AcDbEntity
  8
0
  6
Continuous
 62
     7
370
    25
100
AcDbLine
 10
-1.0413100536
 20
-7.824015748
 30
0.0
 11
-1.0413100536
 21
-7.6862204724
 31
0.0
  0
LINE
  5
18B
330
1F
100
AcDbEntity
  8
0
  6
Continuous
 62
     7
370
    25
100
AcDbLine
 10
-1.0213397238
 20
-7.824015748
 30
0.0
 11
-1.0413100536
 21
-7.824015748
 31
0.0
  0
LINE
  5
18C
330
1F
100
AcDbEntity
  8
0
  6
Continuous
 62
     7
370
    25
100
AcDbLine
 10
-1.0213397238
 20
-7.7621077257
 30
0.0
 11
-1.0213397238
 21
-7.824015748
 31
0.0
  0
LINE
  5
18D
330
1F
100
AcDbEntity
  8
0
  6
Continuous
 62
     7
370
    25
100
AcDbLine
 10
-0.9664837242
 20
-7.7621077257
 30
0.0
 11
-1.0213397238
 21
-7.7621077257
 31
0.0
  0
LINE
  5
18E
330
1F
100
AcDbEntity
  8
0
  6
Continuous
 62
     7
370
    25
100
AcDbLine
 10
-0.9664837242
 20
-7.7461314618
 30
0.0
 11
-0.9664837242
 21
-7.7621077257
 31
0.0
  0
LINE
  5
18F
330
1F
100
AcDbEntity
  8
0
  6
Continuous
 62
     7
370
    25
100
AcDbLine
 10
-1.0213397238
 20
-7.7461314618
 30
0.0
 11
-0.9664837242
 21
-7.7461314618
 31
0.0
  0
LINE
  5
190
330
1F
100
AcDbEntity
  8
0
  6
Continuous
 62
     7
370
    25
100
AcDbLine
 10
-1.0213397238
 20
-7.7021967363
 30
0.0
 11
-1.0213397238
 21
-7.7461314618
 31
0.0
  0
LINE
  5
191
330
1F
100
AcDbEntity
  8
0
  6
Continuous
 62
     7
370
    25
100
AcDbLine
 10
-0.9634257674
 20
-7.7021967363
 30
0.0
 11
-1.0213397238
 21
-7.7021967363
 31
0.0
  0
LINE
  5
192
330
1F
100
AcDbEntity
  8
0
  6
Continuous
 62
     7
370
    25
100
AcDbLine
 10
-0.9634257674
 20
-7.6862204724
 30
0.0
 11
-0.9634257674
 21
-7.7021967363
 31
0.0
  0
LINE
  5
193
330
1F
100
AcDbEntity
  8
0
  6
Continuous
 62
     7
370
    25
100
AcDbLine
 10
-0.7728027288
 20
-7.7021967363
 30
0.0
 11
-0.7916809312
 21
-7.7021967363
 31
0.0
  0
LINE
  5
194
330
1F
100
AcDbEntity
  8
0
  6
Continuous
 62
     7
370
    25
100
AcDbLine
 10
-0.7916809312
 20
-7.7021967363
 30
0.0
 11
-0.7916809312
 21
-7.7441344288
 31
0.0
  0
LINE
  5
195
330
1F
100
AcDbEntity
  8
0
  6
Continuous
 62
     7
370
    25
100
AcDbLine
 10
-0.7916809312
 20
-7.7441344288
 30
0.0
 11
-0.7734268016
 21
-7.7441344288
 31
0.0
  0
LINE
  5
196
330
1F
100
AcDbEntity
  8
0
  6
Continuous
 62
     7
370
    25
100
AcDbLine
 10
-0.7731771725
 20
-7.7601106927
 30
0.0
 11
-0.7916809312
 21
-7.7601106927
 31
0.0
  0
LINE
  5
197
330
1F
100
AcDbEntity
  8
0
  6
Continuous
 62
     7
370
    25
100
AcDbLine
 10
-0.7916809312
 20
-7.7601106927
 30
0.0
 11
-0.7916809312
 21
-7.8080394842
 31
0.0
  0
LINE
  5
198
330
1F
100
AcDbEntity
  8
0
  6
Continuous
 62
     7
370
    25
100
AcDbLine
 10
-0.7916809312
 20
-7.8080394842
 30
0.0
 11
-0.7725530997
 21
-7.8080394842
 31
0.0
  0
ARC
  5
199
330
1F
100
AcDbEntity
  8
0
  6
Continuous
 62
     7
370
    25
100
AcDbCircle
 10
0.0220970869
 20
-4.3528057483
 30
0.0
 40
0.0312500000000044
100
AcDbArc
 50
46.3115813605
 51
225.0
  0
ARC
  5
19A
330
1F
100
AcDbEntity
  8
0
  6
Continuous
 62
     7
370
    25
100
AcDbCircle
 10
0.0220970869
 20
-4.7023123619
 30
0.0
 40
0.0312500000000041
100
AcDbArc
 50
134.9999999999
 51
313.6884186392
  0
ARC
  5
19B
330
1F
100
AcDbEntity
  8
0
  6
Continuous
 62
     7
370
    25
100
AcDbCircle
 10
0.0220970869
 20
-5.1402073231
 30
0.0
 40
0.0312499999999795
100
AcDbArc
 50
46.3115813606
 51
225.0
  0
ARC
  5
19C
330
1F
100
AcDbEntity
  8
0
  6
Continuous
 62
     7
370
    25
100
AcDbCircle
 10
0.0220970869
 20
-5.4897139367
 30
0.0
 40
0.0312499999999801
100
AcDbArc
 50
134.9999999999
 51
313.6884186392
  0
ARC
  5
19D
330
1F
100
AcDbEntity
  8
0
  6
Continuous
 62
     7
370
    25
100
AcDbCircle
 10
0.0220970869
 20
-5.9276088979
 30
0.0
 40
0.0312500000000053
100
AcDbArc
 50
46.3115813605
 51
225.0
  0
ARC
  5
19E
330
1F
100
AcDbEntity
  8
0
  6
Continuous
 62
     7
370
    25
100
AcDbCircle
 10
0.0220970869
 20
-6.2771155115
 30
0.0
 40
0.0312499999999806
100
AcDbArc
 50
135.0
 51
313.6884186391
  0
ARC
  5
19F
330
1F
100
AcDbEntity
  8
0
  6
Continuous
 62
     7
370
    25
100
AcDbCircle
 10
0.0220970869
 20
-6.7150104727
 30
0.0
 40
0.0312500000000048
100
AcDbArc
 50
46.3115813606
 51
225.0
  0
ARC
  5
1A0
330
1F
100
AcDbEntity
  8
0
  6
Continuous
 62
     7
370
    25
100
AcDbCircle
 10
0.0220970869
 20
-7.0645170863
 30
0.0
 40
0.0312500000000045
100
AcDbArc
 50
135.0
 51
313.6884186392
  0
ARC
  5
1A1
330
1F
100
AcDbEntity
  8
0
  6
Continuous
 62
     7
370
    25
100
AcDbCircle
 10
0.0220970869
 20
-7.5024120475
 30
0.0
 40
0.0312499999999794
100
AcDbArc
 50
46.3115813606
 51
225.0000000001
  0
ARC
  5
1A2
330
1F
100
AcDbEntity
  8
0
  6
Continuous
 62
     7
370
    25
100
AcDbCircle
 10
-1.2031994491
 20
-7.5024120475
 30
0.0
 40
0.031250000000005
100
AcDbArc
 50
315.0
 51
133.6884186394
  0
ARC
  5
1A3
330
1F
100
AcDbEntity
  8
0
  6
Continuous
 62
     7
370
    25
100
AcDbCircle
 10
-1.2031994491
 20
-7.0645170863
 30
0.0
 40
0.031250000000004
100
AcDbArc
 50
226.3115813608
 51
45.0
  0
ARC
  5
1A4
330
1F
100
AcDbEntity
  8
0
  6
Continuous
 62
     7
370
    25
100
AcDbCircle
 10
-1.2031994491
 20
-6.7150104727
 30
0.0
 40
0.0312499999999805
100
AcDbArc
 50
315.0
 51
133.6884186394
  0
ARC
  5
1A5
330
1F
100
AcDbEntity
  8
0
  6
Continuous
 62
     7
370
    25
100
AcDbCircle
 10
-1.2031994491
 20
-6.2771155115
 30
0.0
 40
0.0312500000000048
100
AcDbArc
 50
226.3115813607
 51
45.0
  0
ARC
  5
1A6
330
1F
100
AcDbEntity
  8
0
  6
Continuous
 62
     7
370
    25
100
AcDbCircle
 10
-1.2031994491
 20
-5.9276088979
 30
0.0
 40
0.031250000000005
100
AcDbArc
 50
314.9999999999
 51
133.6884186395
  0
ARC
  5
1A7
330
1F
100
AcDbEntity
  8
0
  6
Continuous
 62
     7
370
    25
100
AcDbCircle
 10
-1.2031994491
 20
-5.4897139367
 30
0.0
 40
0.0312500000000042
100
AcDbArc
 50
226.3115813607
 51
45.0
  0
ARC
  5
1A8
330
1F
100
AcDbEntity
  8
0
  6
Continuous
 62
     7
370
    25
100
AcDbCircle
 10
-1.2031994491
 20
-5.1402073231
 30
0.0
 40
0.03124999999998
100
AcDbArc
 50
314.9999999998
 51
133.6884186394
  0
ARC
  5
1A9
330
1F
100
AcDbEntity
  8
0
  6
Continuous
 62
     7
370
    25
100
AcDbCircle
 10
-1.2031994491
 20
-4.7023123619
 30
0.0
 40
0.0312499999999797
100
AcDbArc
 50
226.3115813609
 51
45.0
  0
ARC
  5
1AA
330
1F
100
AcDbEntity
  8
0
  6
Continuous
 62
     7
370
    25
100
AcDbCircle
 10
-1.2031994491
 20
-4.3528057483
 30
0.0
 40
0.0312500000000287
100
AcDbArc
 50
315.0000000001
 51
133.6884186394
  0
ARC
  5
1AB
330
1F
100
AcDbEntity
  8
0
  6
Continuous
 62
     7
370
    25
100
AcDbCircle
 10
-1.2031994491
 20
-3.9149107871
 30
0.0
 40
0.0312500000000043
100
AcDbArc
 50
226.3115813607
 51
45.0
  0
ARC
  5
1AC
330
1F
100
AcDbEntity
  8
0
  6
Continuous
 62
     7
370
    25
100
AcDbCircle
 10
-1.2031994491
 20
-3.5654041735
 30
0.0
 40
0.0312499999999797
100
AcDbArc
 50
315.0000000001
 51
133.6884186394
  0
ARC
  5
1AD
330
1F
100
AcDbEntity
  8
0
  6
Continuous
 62
     7
370
    25
100
AcDbCircle
 10
-1.2031994491
 20
-3.1275092123
 30
0.0
 40
0.0312499999999796
100
AcDbArc
 50
226.3115813608
 51
45.0000000001
  0
ARC
  5
1AE
330
1F
100
AcDbEntity
  8
0
  6
Continuous
 62
     7
370
    25
100
AcDbCircle
 10
-1.2031994491
 20
-2.7780025987
 30
0.0
 40
0.0312500000000041
100
AcDbArc
 50
314.9999999999
 51
133.6884186395
  0
ARC
  5
1AF
330
1F
100
AcDbEntity
  8
0
  6
Continuous
 62
     7
370
    25
100
AcDbCircle
 10
-1.2031994491
 20
-2.3401076375
 30
0.0
 40
0.0312499999999547
100
AcDbArc
 50
226.3115813609
 51
45.0
  0
ARC
  5
1B0
330
1F
100
AcDbEntity
  8
0
  6
Continuous
 62
     7
370
    25
100
AcDbCircle
 10
-1.2031994491
 20
-1.9906010239
 30
0.0
 40
0.0312500000000289
100
AcDbArc
 50
315.0
 51
133.6884186395
  0
ARC
  5
1B1
330
1F
100
AcDbEntity
  8
0
  6
Continuous
 62
     7
370
    25
100
AcDbCircle
 10
-1.2031994491
 20
-1.5527060627
 30
0.0
 40
0.0312499999999796
100
AcDbArc
 50
226.3115813607
 51
44.9999999999
  0
ARC
  5
1B2
330
1F
100
AcDbEntity
  8
0
  6
Continuous
 62
     7
370
    25
100
AcDbCircle
 10
-1.2031994491
 20
-1.2031994491
 30
0.0
 40
0.0312499999999794
100
AcDbArc
 50
315.0
 51
133.6884186394
  0
ARC
  5
1B3
330
1F
100
AcDbEntity
  8
0
  6
Continuous
 62
     7
370
    25
100
AcDbCircle
 10
-1.2031994491
 20
-0.7653044879
 30
0.0
 40
0.0312499999999794
100
AcDbArc
 50
224.9999999999
 51
45.0
  0
ARC
  5
1B4
330
1F
100
AcDbEntity
  8
0
  6
Continuous
 62
     7
370
    25
100
AcDbCircle
 10
0.0220970869
 20
-0.7653044879
 30
0.0
 40
0.0312500000000041
100
AcDbArc
 50
135.0
 51
315.0
  0
ARC
  5
1B5
330
1F
100
AcDbEntity
  8
0
  6
Continuous
 62
     7
370
    25
100
AcDbCircle
 10
0.0220970869
 20
-1.2031994491
 30
0.0
 40
0.0312500000000289
100
AcDbArc
 50
46.3115813605
 51
225.0
  0
ARC
  5
1B6
330
1F
100
AcDbEntity
  8
0
  6
Continuous
 62
     7
370
    25
100
AcDbCircle
 10
0.0220970869
 20
-1.5527060627
 30
0.0
 40
0.0312500000000042
100
AcDbArc
 50
134.9999999999
 51
313.6884186393
  0
ARC
  5
1B7
330
1F
100
AcDbEntity
  8
0
  6
Continuous
 62
     7
370
    25
100
AcDbCircle
 10
0.0220970869
 20
-1.9906010239
 30
0.0
 40
0.0312500000000047
100
AcDbArc
 50
46.3115813606
 51
225.0
  0
ARC
  5
1B8
330
1F
100
AcDbEntity
  8
0
  6
Continuous
 62
     7
370
    25
100
AcDbCircle
 10
0.0220970869
 20
-2.3401076375
 30
0.0
 40
0.0312500000000045
100
AcDbArc
 50
134.9999999999
 51
313.6884186392
  0
ARC
  5
1B9
330
1F
100
AcDbEntity
  8
0
  6
Continuous
 62
     7
370
    25
100
AcDbCircle
 10
0.0220970869
 20
-2.7780025987
 30
0.0
 40
0.0312499999999553
100
AcDbArc
 50
46.3115813604
 51
224.9999999999
  0
ARC
  5
1BA
330
1F
100
AcDbEntity
  8
0
  6
Continuous
 62
     7
370
    25
100
AcDbCircle
 10
0.0220970869
 20
-3.1275092123
 30
0.0
 40
0.0312500000000291
100
AcDbArc
 50
134.9999999998
 51
313.6884186392
  0
ARC
  5
1BB
330
1F
100
AcDbEntity
  8
0
  6
Continuous
 62
     7
370
    25
100
AcDbCircle
 10
0.0220970869
 20
-3.5654041735
 30
0.0
 40
0.0312500000000043
100
AcDbArc
 50
46.3115813606
 51
225.0
  0
ARC
  5
1BC
330
1F
100
AcDbEntity
  8
0
  6
Continuous
 62
     7
370
    25
100
AcDbCircle
 10
0.0220970869
 20
-3.9149107871
 30
0.0
 40
0.0312499999999795
100
AcDbArc
 50
134.9999999999
 51
313.6884186392
  0
ENDSEC
  0
SECTION
  2
OBJECTS
  0
DICTIONARY
  5
C
330
0
100
AcDbDictionary
281
     1
  3
ACAD_GROUP
350
D
  3
ACAD_LAYOUT
350
1A
  3
ACAD_MLINESTYLE
350
17
  3
ACAD_PLOTSETTINGS
350
19
  3
ACAD_PLOTSTYLENAME
350
E
  3
ACAD_SCALELIST
350
47
  0
DICTIONARY
  5
D
102
{ACAD_REACTORS
330
C
102
}
330
C
100
AcDbDictionary
281
     1
  0
DICTIONARY
  5
1A
102
{ACAD_REACTORS
330
C
102
}
330
C
100
AcDbDictionary
281
     1
  3
Layout1
350
1E
  3
Layout2
350
26
  3
Model
350
22
  0
DICTIONARY
  5
17
102
{ACAD_REACTORS
330
C
102
}
330
C
100
AcDbDictionary
281
     1
  3
Standard
350
18
  0
DICTIONARY
  5
19
102
{ACAD_REACTORS
330
C
102
}
330
C
100
AcDbDictionary
281
     1
  0
ACDBDICTIONARYWDFLT
  5
E
102
{ACAD_REACTORS
330
C
102
}
330
C
100
AcDbDictionary
281
     1
  3
Normal
350
F
100
AcDbDictionaryWithDefault
340
F
  0
DICTIONARY
  5
47
102
{ACAD_REACTORS
330
C
102
}
330
C
100
AcDbDictionary
281
     1
  3
A0
350
48
  3
A1
350
49
  3
A2
350
4A
  3
A3
350
4B
  3
A4
350
4C
  3
A5
350
4D
  3
A6
350
4E
  3
A7
350
4F
  3
A8
350
50
  3
A9
350
51
  3
B0
350
52
  3
B1
350
53
  3
B2
350
54
  3
B3
350
55
  3
B4
350
56
  3
B5
350
57
  3
B6
350
58
  3
B7
350
59
  3
B8
350
5A
  3
B9
350
5B
  3
C0
350
5C
  3
C1
350
5D
  3
C2
350
5E
  3
C3
350
5F
  3
C4
350
60
  3
C5
350
61
  3
C6
350
62
  3
C7
350
63
  3
C8
350
64
  3
C9
350
65
  3
D0
350
66
  3
D1
350
67
  3
D2
350
68
  0
LAYOUT
  5
1E
102
{ACAD_REACTORS
330
1A
102
}
330
1A
100
AcDbPlotSettings
  1

  2
none_device
  4

  6

 40
0.0
 41
0.0
 42
0.0
 43
0.0
 44
0.0
 45
0.0
 46
0.0
 47
0.0
 48
0.0
 49
0.0
140
0.0
141
0.0
142
1.0
143
1.0
 70
   688
 72
     0
 73
     0
 74
     5
  7

 75
    16
147
1.0
148
0.0
149
0.0
100
AcDbLayout
  1
Layout1
 70
     1
 71
     1
 10
0.0
 20
0.0
 11
12.0
 21
9.0
 12
0.0
 22
0.0
 32
0.0
 14
1.0000000000E+20
 24
1.0000000000E+20
 34
1.0000000000E+20
 15
-1.0000000000E+20
 25
-1.0000000000E+20
 35
-1.0000000000E+20
146
0.0
 13
0.0
 23
0.0
 33
0.0
 16
1.0
 26
0.0
 36
0.0
 17
0.0
 27
1.0
 37
0.0
 76
     0
330
1B
  0
LAYOUT
  5
26
102
{ACAD_REACTORS
330
1A
102
}
330
1A
100
AcDbPlotSettings
  1

  2
none_device
  4

  6

 40
0.0
 41
0.0
 42
0.0
 43
0.0
 44
0.0
 45
0.0
 46
0.0
 47
0.0
 48
0.0
 49
0.0
140
0.0
141
0.0
142
1.0
143
1.0
 70
   688
 72
     0
 73
     0
 74
     5
  7

 75
    16
147
1.0
148
0.0
149
0.0
100
AcDbLayout
  1
Layout2
 70
     1
 71
     2
 10
0.0
 20
0.0
 11
0.0
 21
0.0
 12
0.0
 22
0.0
 32
0.0
 14
0.0
 24
0.0
 34
0.0
 15
0.0
 25
0.0
 35
0.0
146
0.0
 13
0.0
 23
0.0
 33
0.0
 16
1.0
 26
0.0
 36
0.0
 17
0.0
 27
1.0
 37
0.0
 76
     0
330
23
  0
LAYOUT
  5
22
102
{ACAD_REACTORS
330
1A
102
}
330
1A
100
AcDbPlotSettings
  1

  2
none_device
  4
ANSI_A_(11.00_x_8.50_Inches)
  6

 40
6.35
 41
19.05
 42
6.35000508
 43
19.05000254
 44
279.4
 45
215.9
 46
149.38057246
 47
195.77049873
 48
0.0
 49
0.0
140
0.0
141
0.0
142
1.068705
143
1.0
 70
  1696
 72
     0
 73
     0
 74
     0
  7

 75
     0
147
0.5913241897
148
-39.4088153714
149
0.0
100
AcDbLayout
  1
Model
 70
     1
 71
     0
 10
0.0
 20
0.0
 11
12.0
 21
9.0
 12
0.0
 22
0.0
 32
0.0
 14
-1.3578790575
 24
-7.874015748
 34
0.0
 15
0.1767766953
 25
0.0
 35
0.0
146
0.0
 13
0.0
 23
0.0
 33
0.0
 16
1.0
 26
0.0
 36
0.0
 17
0.0
 27
1.0
 37
0.0
 76
     0
330
1F
331
29
  0
MLINESTYLE
  5
18
102
{ACAD_REACTORS
330
17
102
}
330
17
100
AcDbMlineStyle
  2
Standard
 70
     0
  3

 62
   256
 51
90.0
 52
90.0
 71
     2
 49
0.5
 62
   256
  6
BYLAYER
 49
-0.5
 62
   256
  6
BYLAYER
  0
ACDBPLACEHOLDER
  5
F
102
{ACAD_REACTORS
330
E
102
}
330
E
  0
SCALE
  5
48
102
{ACAD_REACTORS
330
47
102
}
330
47
100
AcDbScale
 70
     0
300
1:1
140
1.0
141
1.0
290
     1
  0
SCALE
  5
49
102
{ACAD_REACTORS
330
47
102
}
330
47
100
AcDbScale
 70
     0
300
1:2
140
1.0
141
2.0
290
     0
  0
SCALE
  5
4A
102
{ACAD_REACTORS
330
47
102
}
330
47
100
AcDbScale
 70
     0
300
1:4
140
1.0
141
4.0
290
     0
  0
SCALE
  5
4B
102
{ACAD_REACTORS
330
47
102
}
330
47
100
AcDbScale
 70
     0
300
1:5
140
1.0
141
5.0
290
     0
  0
SCALE
  5
4C
102
{ACAD_REACTORS
330
47
102
}
330
47
100
AcDbScale
 70
     0
300
1:8
140
1.0
141
8.0
290
     0
  0
SCALE
  5
4D
102
{ACAD_REACTORS
330
47
102
}
330
47
100
AcDbScale
 70
     0
300
1:10
140
1.0
141
10.0
290
     0
  0
SCALE
  5
4E
102
{ACAD_REACTORS
330
47
102
}
330
47
100
AcDbScale
 70
     0
300
1:16
140
1.0
141
16.0
290
     0
  0
SCALE
  5
4F
102
{ACAD_REACTORS
330
47
102
}
330
47
100
AcDbScale
 70
     0
300
1:20
140
1.0
141
20.0
290
     0
  0
SCALE
  5
50
102
{ACAD_REACTORS
330
47
102
}
330
47
100
AcDbScale
 70
     0
300
1:30
140
1.0
141
30.0
290
     0
  0
SCALE
  5
51
102
{ACAD_REACTORS
330
47
102
}
330
47
100
AcDbScale
 70
     0
300
1:40
140
1.0
141
40.0
290
     0
  0
SCALE
  5
52
102
{ACAD_REACTORS
330
47
102
}
330
47
100
AcDbScale
 70
     0
300
1:50
140
1.0
141
50.0
290
     0
  0
SCALE
  5
53
102
{ACAD_REACTORS
330
47
102
}
330
47
100
AcDbScale
 70
     0
300
1:100
140
1.0
141
100.0
290
     0
  0
SCALE
  5
54
102
{ACAD_REACTORS
330
47
102
}
330
47
100
AcDbScale
 70
     0
300
2:1
140
2.0
141
1.0
290
     0
  0
SCALE
  5
55
102
{ACAD_REACTORS
330
47
102
}
330
47
100
AcDbScale
 70
     0
300
4:1
140
4.0
141
1.0
290
     0
  0
SCALE
  5
56
102
{ACAD_REACTORS
330
47
102
}
330
47
100
AcDbScale
 70
     0
300
8:1
140
8.0
141
1.0
290
     0
  0
SCALE
  5
57
102
{ACAD_REACTORS
330
47
102
}
330
47
100
AcDbScale
 70
     0
300
10:1
140
10.0
141
1.0
290
     0
  0
SCALE
  5
58
102
{ACAD_REACTORS
330
47
102
}
330
47
100
AcDbScale
 70
     0
300
100:1
140
100.0
141
1.0
290
     0
  0
SCALE
  5
59
102
{ACAD_REACTORS
330
47
102
}
330
47
100
AcDbScale
 70
     0
300
1/128" = 1'-0"
140
0.0078125
141
12.0
290
     0
  0
SCALE
  5
5A
102
{ACAD_REACTORS
330
47
102
}
330
47
100
AcDbScale
 70
     0
300
1/64" = 1'-0"
140
0.015625
141
12.0
290
     0
  0
SCALE
  5
5B
102
{ACAD_REACTORS
330
47
102
}
330
47
100
AcDbScale
 70
     0
300
1/32" = 1'-0"
140
0.03125
141
12.0
290
     0
  0
SCALE
  5
5C
102
{ACAD_REACTORS
330
47
102
}
330
47
100
AcDbScale
 70
     0
300
1/16" = 1'-0"
140
0.0625
141
12.0
290
     0
  0
SCALE
  5
5D
102
{ACAD_REACTORS
330
47
102
}
330
47
100
AcDbScale
 70
     0
300
3/32" = 1'-0"
140
0.09375
141
12.0
290
     0
  0
SCALE
  5
5E
102
{ACAD_REACTORS
330
47
102
}
330
47
100
AcDbScale
 70
     0
300
1/8" = 1'-0"
140
0.125
141
12.0
290
     0
  0
SCALE
  5
5F
102
{ACAD_REACTORS
330
47
102
}
330
47
100
AcDbScale
 70
     0
300
3/16" = 1'-0"
140
0.1875
141
12.0
290
     0
  0
SCALE
  5
60
102
{ACAD_REACTORS
330
47
102
}
330
47
100
AcDbScale
 70
     0
300
1/4" = 1'-0"
140
0.25
141
12.0
290
     0
  0
SCALE
  5
61
102
{ACAD_REACTORS
330
47
102
}
330
47
100
AcDbScale
 70
     0
300
3/8" = 1'-0"
140
0.375
141
12.0
290
     0
  0
SCALE
  5
62
102
{ACAD_REACTORS
330
47
102
}
330
47
100
AcDbScale
 70
     0
300
1/2" = 1'-0"
140
0.5
141
12.0
290
     0
  0
SCALE
  5
63
102
{ACAD_REACTORS
330
47
102
}
330
47
100
AcDbScale
 70
     0
300
3/4" = 1'-0"
140
0.75
141
12.0
290
     0
  0
SCALE
  5
64
102
{ACAD_REACTORS
330
47
102
}
330
47
100
AcDbScale
 70
     0
300
1" = 1'-0"
140
1.0
141
12.0
290
     0
  0
SCALE
  5
65
102
{ACAD_REACTORS
330
47
102
}
330
47
100
AcDbScale
 70
     0
300
1-1/2" = 1'-0"
140
1.5
141
12.0
290
     0
  0
SCALE
  5
66
102
{ACAD_REACTORS
330
47
102
}
330
47
100
AcDbScale
 70
     0
300
3" = 1'-0"
140
3.0
141
12.0
290
     0
  0
SCALE
  5
67
102
{ACAD_REACTORS
330
47
102
}
330
47
100
AcDbScale
 70
     0
300
6" = 1'-0"
140
6.0
141
12.0
290
     0
  0
SCALE
  5
68
102
{ACAD_REACTORS
330
47
102
}
330
47
100
AcDbScale
 70
     0
300
1'-0" = 1'-0"
140
12.0
141
12.0
290
     0
  0
ENDSEC
  0
EOF
