  0
SECTION
  2
HEADER
  9
$ACADVER
  1
AC1015
  9
$ACADMAINTVER
 70
     6
  9
$DWGCODEPAGE
  3
ANSI_1252
  9
$INSBASE
 10
0.0
 20
0.0
 30
0.0
  9
$EXTMIN
 10
-0.25
 20
-11.56102362
 30
0.0
  9
$EXTMAX
 10
11.56102362
 20
0.25
 30
0.0
  9
$LIMMIN
 10
0.0
 20
0.0
  9
$LIMMAX
 10
12.0
 20
9.0
  9
$ORTHOMODE
 70
     0
  9
$REGENMODE
 70
     1
  9
$FILLMODE
 70
     1
  9
$QTEXTMODE
 70
     0
  9
$MIRRTEXT
 70
     1
  9
$LTSCALE
 40
1.0
  9
$ATTMODE
 70
     1
  9
$TEXTSIZE
 40
0.1377952756
  9
$TRACEWID
 40
0.05
  9
$TEXTSTYLE
  7
Standard
  9
$CLAYER
  8
0
  9
$CELTYPE
  6
ByLayer
  9
$CECOLOR
 62
   256
  9
$CELTSCALE
 40
1.0
  9
$DISPSILH
 70
     0
  9
$DIMSCALE
 40
1.0
  9
$DIMASZ
 40
0.13
  9
$DIMEXO
 40
0.0393700787
  9
$DIMDLI
 40
0.38
  9
$DIMRND
 40
0.0
  9
$DIMDLE
 40
0.0
  9
$DIMEXE
 40
0.0393700787
  9
$DIMTP
 40
0.0
  9
$DIMTM
 40
0.0
  9
$DIMTXT
 40
0.1377952756
  9
$DIMCEN
 40
0.09
  9
$DIMTSZ
 40
0.0
  9
$DIMTOL
 70
     0
  9
$DIMLIM
 70
     0
  9
$DIMTIH
 70
     1
  9
$DIMTOH
 70
     1
  9
$DIMSE1
 70
     0
  9
$DIMSE2
 70
     0
  9
$DIMTAD
 70
     1
  9
$DIMZIN
 70
     1
  9
$DIMBLK
  1

  9
$DIMASO
 70
     1
  9
$DIMSHO
 70
     1
  9
$DIMPOST
  1

  9
$DIMAPOST
  1

  9
$DIMALT
 70
     0
  9
$DIMALTD
 70
     2
  9
$DIMALTF
 40
25.4
  9
$DIMLFAC
 40
1.0
  9
$DIMTOFL
 70
     0
  9
$DIMTVP
 40
0.0
  9
$DIMTIX
 70
     0
  9
$DIMSOXD
 70
     0
  9
$DIMSAH
 70
     0
  9
$DIMBLK1
  1

  9
$DIMBLK2
  1

  9
$DIMSTYLE
  2
Standard
  9
$DIMCLRD
 70
     0
  9
$DIMCLRE
 70
     0
  9
$DIMCLRT
 70
     0
  9
$DIMTFAC
 40
1.0
  9
$DIMGAP
 40
0.06
  9
$DIMJUST
 70
     0
  9
$DIMSD1
 70
     0
  9
$DIMSD2
 70
     0
  9
$DIMTOLJ
 70
     1
  9
$DIMTZIN
 70
     1
  9
$DIMALTZ
 70
     0
  9
$DIMALTTZ
 70
     0
  9
$DIMUPT
 70
     0
  9
$DIMDEC
 70
     2
  9
$DIMTDEC
 70
     2
  9
$DIMALTU
 70
     2
  9
$DIMALTTD
 70
     2
  9
$DIMTXSTY
  7
Standard
  9
$DIMAUNIT
 70
     0
  9
$DIMADEC
 70
     2
  9
$DIMALTRND
 40
0.0
  9
$DIMAZIN
 70
     0
  9
$DIMDSEP
 70
    46
  9
$DIMATFIT
 70
     3
  9
$DIMFRAC
 70
     0
  9
$DIMLDRBLK
  1

  9
$DIMLUNIT
 70
     2
  9
$DIMLWD
 70
    -2
  9
$DIMLWE
 70
    -2
  9
$DIMTMOVE
 70
     0
  9
$LUNITS
 70
     2
  9
$LUPREC
 70
     8
  9
$SKETCHINC
 40
0.1
  9
$FILLETRAD
 40
0.5
  9
$AUNITS
 70
     0
  9
$AUPREC
 70
     2
  9
$MENU
  1
.
  9
$ELEVATION
 40
0.0
  9
$PELEVATION
 40
0.0
  9
$THICKNESS
 40
0.0
  9
$LIMCHECK
 70
     0
  9
$CHAMFERA
 40
0.0
  9
$CHAMFERB
 40
0.0
  9
$CHAMFERC
 40
0.0
  9
$CHAMFERD
 40
0.0
  9
$SKPOLY
 70
     0
  9
$TDCREATE
 40
2458367.409190451
  9
$TDUCREATE
 40
2458367.575857118
  9
$TDUPDATE
 40
2458367.409223866
  9
$TDUUPDATE
 40
2458367.575890532
  9
$TDINDWG
 40
0.0000000116
  9
$TDUSRTIMER
 40
0.0000000116
  9
$USRTIMER
 70
     1
  9
$ANGBASE
 50
0.0
  9
$ANGDIR
 70
     0
  9
$PDMODE
 70
     0
  9
$PDSIZE
 40
-1.0
  9
$PLINEWID
 40
0.0
  9
$SPLFRAME
 70
     0
  9
$SPLINETYPE
 70
     6
  9
$SPLINESEGS
 70
     8
  9
$HANDSEED
  5
331
  9
$SURFTAB1
 70
     6
  9
$SURFTAB2
 70
     6
  9
$SURFTYPE
 70
     6
  9
$SURFU
 70
     6
  9
$SURFV
 70
     6
  9
$UCSBASE
  2

  9
$UCSNAME
  2

  9
$UCSORG
 10
0.0
 20
0.0
 30
0.0
  9
$UCSXDIR
 10
1.0
 20
0.0
 30
0.0
  9
$UCSYDIR
 10
0.0
 20
1.0
 30
0.0
  9
$UCSORTHOREF
  2

  9
$UCSORTHOVIEW
 70
     0
  9
$UCSORGTOP
 10
0.0
 20
0.0
 30
0.0
  9
$UCSORGBOTTOM
 10
0.0
 20
0.0
 30
0.0
  9
$UCSORGLEFT
 10
0.0
 20
0.0
 30
0.0
  9
$UCSORGRIGHT
 10
0.0
 20
0.0
 30
0.0
  9
$UCSORGFRONT
 10
0.0
 20
0.0
 30
0.0
  9
$UCSORGBACK
 10
0.0
 20
0.0
 30
0.0
  9
$PUCSBASE
  2

  9
$PUCSNAME
  2

  9
$PUCSORG
 10
0.0
 20
0.0
 30
0.0
  9
$PUCSXDIR
 10
1.0
 20
0.0
 30
0.0
  9
$PUCSYDIR
 10
0.0
 20
1.0
 30
0.0
  9
$PUCSORTHOREF
  2

  9
$PUCSORTHOVIEW
 70
     0
  9
$PUCSORGTOP
 10
0.0
 20
0.0
 30
0.0
  9
$PUCSORGBOTTOM
 10
0.0
 20
0.0
 30
0.0
  9
$PUCSORGLEFT
 10
0.0
 20
0.0
 30
0.0
  9
$PUCSORGRIGHT
 10
0.0
 20
0.0
 30
0.0
  9
$PUCSORGFRONT
 10
0.0
 20
0.0
 30
0.0
  9
$PUCSORGBACK
 10
0.0
 20
0.0
 30
0.0
  9
$USERI1
 70
     0
  9
$USERI2
 70
     0
  9
$USERI3
 70
     0
  9
$USERI4
 70
     0
  9
$USERI5
 70
     0
  9
$USERR1
 40
0.0
  9
$USERR2
 40
0.0
  9
$USERR3
 40
0.0
  9
$USERR4
 40
0.0
  9
$USERR5
 40
0.0
  9
$WORLDVIEW
 70
     1
  9
$SHADEDGE
 70
     3
  9
$SHADEDIF
 70
    70
  9
$TILEMODE
 70
     1
  9
$MAXACTVP
 70
    64
  9
$PINSBASE
 10
0.0
 20
0.0
 30
0.0
  9
$PLIMCHECK
 70
     0
  9
$PEXTMIN
 10
1.0000000000E+20
 20
1.0000000000E+20
 30
1.0000000000E+20
  9
$PEXTMAX
 10
-1.0000000000E+20
 20
-1.0000000000E+20
 30
-1.0000000000E+20
  9
$PLIMMIN
 10
0.0
 20
0.0
  9
$PLIMMAX
 10
12.0
 20
9.0
  9
$UNITMODE
 70
     0
  9
$VISRETAIN
 70
     1
  9
$PLINEGEN
 70
     0
  9
$PSLTSCALE
 70
     1
  9
$TREEDEPTH
 70
  3020
  9
$CMLSTYLE
  2
Standard
  9
$CMLJUST
 70
     0
  9
$CMLSCALE
 40
1.0
  9
$PROXYGRAPHICS
 70
     1
  9
$MEASUREMENT
 70
     0
  9
$CELWEIGHT
370
    -1
  9
$ENDCAPS
280
     0
  9
$JOINSTYLE
280
     0
  9
$LWDISPLAY
290
     1
  9
$INSUNITS
 70
     1
  9
$HYPERLINKBASE
  1

  9
$STYLESHEET
  1

  9
$XEDIT
290
     1
  9
$CEPSNTYPE
380
     0
  9
$PSTYLEMODE
290
     1
  9
$FINGERPRINTGUID
  2
{BE725570-9EA4-4E8D-ADC3-F9229B11770D}
  9
$VERSIONGUID
  2
{FAEB1C32-E019-11D5-929B-00C0DF256EC4}
  9
$EXTNAMES
290
     1
  9
$PSVPSCALE
 40
0.0
  9
$OLESTARTUP
290
     0
  0
ENDSEC
  0
SECTION
  2
CLASSES
  0
CLASS
  1
ACDBDICTIONARYWDFLT
  2
AcDbDictionaryWithDefault
  3
ObjectDBX Classes
 90
        0
280
     0
281
     0
  0
CLASS
  1
VISUALSTYLE
  2
AcDbVisualStyle
  3
ObjectDBX Classes
 90
     4095
280
     0
281
     0
  0
CLASS
  1
MATERIAL
  2
AcDbMaterial
  3
ObjectDBX Classes
 90
     1153
280
     0
281
     0
  0
CLASS
  1
SCALE
  2
AcDbScale
  3
ObjectDBX Classes
 90
     1153
280
     0
281
     0
  0
CLASS
  1
TABLESTYLE
  2
AcDbTableStyle
  3
ObjectDBX Classes
 90
     4095
280
     0
281
     0
  0
CLASS
  1
MLEADERSTYLE
  2
AcDbMLeaderStyle
  3
ACDB_MLEADERSTYLE_CLASS
 90
     4095
280
     0
281
     0
  0
CLASS
  1
SUN
  2
AcDbSun
  3
SCENEOE
 90
     1153
280
     0
281
     0
  0
CLASS
  1
ACDBPLACEHOLDER
  2
AcDbPlaceHolder
  3
ObjectDBX Classes
 90
        0
280
     0
281
     0
  0
CLASS
  1
LAYOUT
  2
AcDbLayout
  3
ObjectDBX Classes
 90
        0
280
     0
281
     0
  0
ENDSEC
  0
SECTION
  2
TABLES
  0
TABLE
  2
VPORT
  5
8
330
0
100
AcDbSymbolTable
 70
     1
  0
VPORT
  5
29
330
8
100
AcDbSymbolTableRecord
100
AcDbViewportTableRecord
  2
*Active
 70
     0
 10
0.0
 20
0.0
 11
1.0
 21
1.0
 12
5.65551181
 22
-5.65551181
 13
0.0
 23
0.0
 14
0.5
 24
0.5
 15
0.5
 25
0.5
 16
0.0
 26
0.0
 36
1.0
 17
0.0
 27
0.0
 37
0.0
 40
12.0472440924
 41
1.0
 42
50.0
 43
0.0
 44
0.0
 50
0.0
 51
0.0
 71
     0
 72
   100
 73
     1
 74
     3
 75
     0
 76
     0
 77
     0
 78
     0
281
     0
 65
     1
110
0.0
120
0.0
130
0.0
111
1.0
121
0.0
131
0.0
112
0.0
122
1.0
132
0.0
 79
     0
146
0.0
  0
ENDTAB
  0
TABLE
  2
LTYPE
  5
5
330
0
100
AcDbSymbolTable
 70
     6
  0
LTYPE
  5
14
330
5
100
AcDbSymbolTableRecord
100
AcDbLinetypeTableRecord
  2
ByBlock
 70
     0
  3

 72
    65
 73
     0
 40
0.0
  0
LTYPE
  5
15
330
5
100
AcDbSymbolTableRecord
100
AcDbLinetypeTableRecord
  2
ByLayer
 70
     0
  3

 72
    65
 73
     0
 40
0.0
  0
LTYPE
  5
16
330
5
100
AcDbSymbolTableRecord
100
AcDbLinetypeTableRecord
  2
Continuous
 70
     0
  3
Solid line
 72
    65
 73
     0
 40
0.0
  0
LTYPE
  5
6E
330
5
100
AcDbSymbolTableRecord
100
AcDbLinetypeTableRecord
  2
HIDDEN
 70
     0
  3
Hidden __ __ __ __ __ __ __ __ __ __ __ __ __ __
 72
    65
 73
     2
 40
0.075
 49
0.05
 74
     0
 49
-0.025
 74
     0
  0
LTYPE
  5
6F
330
5
100
AcDbSymbolTableRecord
100
AcDbLinetypeTableRecord
  2
PHANTOM
 70
     0
  3
Phantom ______  __  __  ______  __  __  ______
 72
    65
 73
     6
 40
0.5
 49
0.25
 74
     0
 49
-0.05
 74
     0
 49
0.05
 74
     0
 49
-0.05
 74
     0
 49
0.05
 74
     0
 49
-0.05
 74
     0
  0
LTYPE
  5
70
330
5
100
AcDbSymbolTableRecord
100
AcDbLinetypeTableRecord
  2
CENTER
 70
     0
  3
Center ____ _ ____ _ ____ _ ____ _ ____ _ ____
 72
    65
 73
     4
 40
0.4
 49
0.25
 74
     0
 49
-0.05
 74
     0
 49
0.05
 74
     0
 49
-0.05
 74
     0
  0
LTYPE
  5
71
330
5
100
AcDbSymbolTableRecord
100
AcDbLinetypeTableRecord
  2
CENTERX2
 70
     0
  3
Center (2x) ________  __  ________  __  _____
 72
    65
 73
     4
 40
0.8
 49
0.5
 74
     0
 49
-0.1
 74
     0
 49
0.1
 74
     0
 49
-0.1
 74
     0
  0
LTYPE
  5
72
330
5
100
AcDbSymbolTableRecord
100
AcDbLinetypeTableRecord
  2
DOT2
 70
     0
  3
Dot (.5x) ........................................
 72
    65
 73
     2
 40
0.025
 49
0.0
 74
     0
 49
-0.025
 74
     0
  0
ENDTAB
  0
TABLE
  2
LAYER
  5
2
330
0
100
AcDbSymbolTable
 70
     1
  0
LAYER
  5
10
330
2
100
AcDbSymbolTableRecord
100
AcDbLayerTableRecord
  2
0
 70
     0
 62
     7
  6
Continuous
370
    -3
390
F
  0
ENDTAB
  0
TABLE
  2
STYLE
  5
3
330
0
100
AcDbSymbolTable
 70
     1
  0
STYLE
  5
11
330
3
100
AcDbSymbolTableRecord
100
AcDbTextStyleTableRecord
  2
Standard
 70
     0
 40
0.0
 41
1.0
 50
0.0
 71
     0
 42
0.1377952756
  3
txt
  4

  0
ENDTAB
  0
TABLE
  2
VIEW
  5
6
330
0
100
AcDbSymbolTable
 70
     0
  0
ENDTAB
  0
TABLE
  2
UCS
  5
7
330
0
100
AcDbSymbolTable
 70
     0
  0
ENDTAB
  0
TABLE
  2
APPID
  5
9
330
0
100
AcDbSymbolTable
 70
     1
  0
APPID
  5
12
330
9
100
AcDbSymbolTableRecord
100
AcDbRegAppTableRecord
  2
ACAD
 70
     0
  0
ENDTAB
  0
TABLE
  2
DIMSTYLE
  5
A
330
0
100
AcDbSymbolTable
 70
     1
100
AcDbDimStyleTable
  0
DIMSTYLE
105
27
330
A
100
AcDbSymbolTableRecord
100
AcDbDimStyleTableRecord
  2
Standard
 70
     0
178
     0
340
11
  0
ENDTAB
  0
TABLE
  2
BLOCK_RECORD
  5
1
330
0
100
AcDbSymbolTable
 70
     1
  0
BLOCK_RECORD
  5
1F
330
1
100
AcDbSymbolTableRecord
100
AcDbBlockTableRecord
  2
*Model_Space
340
22
  0
BLOCK_RECORD
  5
1B
330
1
100
AcDbSymbolTableRecord
100
AcDbBlockTableRecord
  2
*Paper_Space
340
1E
  0
BLOCK_RECORD
  5
23
330
1
100
AcDbSymbolTableRecord
100
AcDbBlockTableRecord
  2
*Paper_Space0
340
26
  0
ENDTAB
  0
ENDSEC
  0
SECTION
  2
BLOCKS
  0
BLOCK
  5
20
330
1F
100
AcDbEntity
  8
0
100
AcDbBlockBegin
  2
*Model_Space
 70
     0
 10
0.0
 20
0.0
 30
0.0
  3
*Model_Space
  1

  0
ENDBLK
  5
21
330
1F
100
AcDbEntity
  8
0
100
AcDbBlockEnd
  0
BLOCK
  5
1C
330
1B
100
AcDbEntity
 67
     1
  8
0
100
AcDbBlockBegin
  2
*Paper_Space
 70
     0
 10
0.0
 20
0.0
 30
0.0
  3
*Paper_Space
  1

  0
ENDBLK
  5
1D
330
1B
100
AcDbEntity
 67
     1
  8
0
100
AcDbBlockEnd
  0
BLOCK
  5
24
330
23
100
AcDbEntity
  8
0
100
AcDbBlockBegin
  2
*Paper_Space0
 70
     0
 10
0.0
 20
0.0
 30
0.0
  3
*Paper_Space0
  1

  0
ENDBLK
  5
25
330
23
100
AcDbEntity
  8
0
100
AcDbBlockEnd
  0
ENDSEC
  0
SECTION
  2
ENTITIES
  0
CIRCLE
  5
73
330
1F
100
AcDbEntity
  8
0
  6
Continuous
 62
     7
370
    25
100
AcDbCircle
 10
0.08
 20
-0.32
 30
0.0
 40
0.0312499999999998
  0
CIRCLE
  5
74
330
1F
100
AcDbEntity
  8
0
  6
Continuous
 62
     7
370
    25
100
AcDbCircle
 10
0.08
 20
-0.24
 30
0.0
 40
0.0312500000000001
  0
CIRCLE
  5
14E
330
1F
100
AcDbEntity
  8
0
  6
Continuous
 62
     7
370
    25
100
AcDbCircle
 10
0.5511811024
 20
-10.7598425176
 30
0.0
 40
0.3937007874014391
  0
CIRCLE
  5
159
330
1F
100
AcDbEntity
  8
0
  6
Continuous
 62
     7
370
    25
100
AcDbCircle
 10
6.76051181
 20
-1.93051181
 30
0.0
 40
0.4995080000000038
  0
CIRCLE
  5
166
330
1F
100
AcDbEntity
  8
0
  6
Continuous
 62
     7
370
    25
100
AcDbCircle
 10
9.76274581
 20
-4.30056681
 30
0.0
 40
0.49950800000002
  0
CIRCLE
  5
195
330
1F
100
AcDbEntity
  8
0
  6
Continuous
 62
     7
370
    25
100
AcDbCircle
 10
9.32989131
 20
-4.76499181
 30
0.0
 40
0.067145499999997
  0
CIRCLE
  5
196
330
1F
100
AcDbEntity
  8
0
  6
Continuous
 62
     7
370
    25
100
AcDbCircle
 10
10.27430081
 20
-3.82049281
 30
0.0
 40
0.0671454999999983
  0
CIRCLE
  5
197
330
1F
100
AcDbEntity
  8
0
  6
Continuous
 62
     7
370
    25
100
AcDbCircle
 10
0.08
 20
-0.08
 30
0.0
 40
0.0312500000000002
  0
CIRCLE
  5
198
330
1F
100
AcDbEntity
  8
0
  6
Continuous
 62
     7
370
    25
100
AcDbCircle
 10
0.08
 20
-0.16
 30
0.0
 40
0.0312499999999996
  0
LINE
  5
1DE
330
1F
100
AcDbEntity
  8
0
  6
Continuous
 62
     7
370
    25
100
AcDbLine
 10
9.5925196853
 20
-11.56102362
 30
0.0
 11
9.5925196853
 21
-11.3552173691
 31
0.0
  0
LINE
  5
1DF
330
1F
100
AcDbEntity
  8
0
  6
Continuous
 62
     7
370
    25
100
AcDbLine
 10
9.1988188953
 20
-11.56102362
 30
0.0
 11
9.5925196853
 21
-11.56102362
 31
0.0
  0
LINE
  5
1E0
330
1F
100
AcDbEntity
  8
0
  6
Continuous
 62
     7
370
    25
100
AcDbLine
 10
9.1988188953
 20
-11.3552173691
 30
0.0
 11
9.1988188953
 21
-11.56102362
 31
0.0
  0
LINE
  5
1E1
330
1F
100
AcDbEntity
  8
0
  6
Continuous
 62
     7
370
    25
100
AcDbLine
 10
5.8965559541
 20
-11.31102362
 30
0.0
 11
9.1546251462
 21
-11.31102362
 31
0.0
  0
LINE
  5
1E2
330
1F
100
AcDbEntity
  8
0
  6
Continuous
 62
     7
370
    25
100
AcDbLine
 10
5.458661415
 20
-11.56102362
 30
0.0
 11
5.852362205
 21
-11.56102362
 31
0.0
  0
LINE
  5
1E3
330
1F
100
AcDbEntity
  8
0
  6
Continuous
 62
     7
370
    25
100
AcDbLine
 10
2.1563984738
 20
-11.31102362
 30
0.0
 11
5.4144676659
 21
-11.31102362
 31
0.0
  0
LINE
  5
1E4
330
1F
100
AcDbEntity
  8
0
  6
Continuous
 62
     7
370
    25
100
AcDbLine
 10
2.1122047247
 20
-11.56102362
 30
0.0
 11
2.1122047247
 21
-11.3552173691
 31
0.0
  0
LINE
  5
1E5
330
1F
100
AcDbEntity
  8
0
  6
Continuous
 62
     7
370
    25
100
AcDbLine
 10
1.7185039347
 20
-11.56102362
 30
0.0
 11
2.1122047247
 21
-11.56102362
 31
0.0
  0
LINE
  5
1E6
330
1F
100
AcDbEntity
  8
0
  6
Continuous
 62
     7
370
    25
100
AcDbLine
 10
1.7185039347
 20
-11.3552173691
 30
0.0
 11
1.7185039347
 21
-11.56102362
 31
0.0
  0
LINE
  5
1E7
330
1F
100
AcDbEntity
  8
0
  6
Continuous
 62
     7
370
    25
100
AcDbLine
 10
0.0
 20
-11.31102362
 30
0.0
 11
1.6743101856
 21
-11.31102362
 31
0.0
  0
LINE
  5
1E8
330
1F
100
AcDbEntity
  8
0
  6
Continuous
 62
     7
370
    25
100
AcDbLine
 10
0.0
 20
-9.6367134344
 30
0.0
 11
0.0
 21
-11.31102362
 31
0.0
  0
LINE
  5
1E9
330
1F
100
AcDbEntity
  8
0
  6
Continuous
 62
     7
370
    25
100
AcDbLine
 10
-0.25
 20
-9.5925196853
 30
0.0
 11
-0.0441937491
 21
-9.5925196853
 31
0.0
  0
LINE
  5
1EA
330
1F
100
AcDbEntity
  8
0
  6
Continuous
 62
     7
370
    25
100
AcDbLine
 10
-0.25
 20
-9.1988188953
 30
0.0
 11
-0.25
 21
-9.5925196853
 31
0.0
  0
LINE
  5
1EB
330
1F
100
AcDbEntity
  8
0
  6
Continuous
 62
     7
370
    25
100
AcDbLine
 10
-0.0441937491
 20
-9.1988188953
 30
0.0
 11
-0.25
 21
-9.1988188953
 31
0.0
  0
LINE
  5
1EC
330
1F
100
AcDbEntity
  8
0
  6
Continuous
 62
     7
370
    25
100
AcDbLine
 10
0.0
 20
-5.8965559541
 30
0.0
 11
0.0
 21
-9.1546251462
 31
0.0
  0
LINE
  5
1ED
330
1F
100
AcDbEntity
  8
0
  6
Continuous
 62
     7
370
    25
100
AcDbLine
 10
-0.25
 20
-5.852362205
 30
0.0
 11
-0.0441937491
 21
-5.852362205
 31
0.0
  0
LINE
  5
1EE
330
1F
100
AcDbEntity
  8
0
  6
Continuous
 62
     7
370
    25
100
AcDbLine
 10
-0.25
 20
-5.458661415
 30
0.0
 11
-0.25
 21
-5.852362205
 31
0.0
  0
LINE
  5
1EF
330
1F
100
AcDbEntity
  8
0
  6
Continuous
 62
     7
370
    25
100
AcDbLine
 10
-0.0441937491
 20
-5.458661415
 30
0.0
 11
-0.25
 21
-5.458661415
 31
0.0
  0
LINE
  5
1F0
330
1F
100
AcDbEntity
  8
0
  6
Continuous
 62
     7
370
    25
100
AcDbLine
 10
0.0
 20
-2.1563984738
 30
0.0
 11
0.0
 21
-5.4144676659
 31
0.0
  0
LINE
  5
1F1
330
1F
100
AcDbEntity
  8
0
  6
Continuous
 62
     7
370
    25
100
AcDbLine
 10
-0.25
 20
-2.1122047247
 30
0.0
 11
-0.0441937491
 21
-2.1122047247
 31
0.0
  0
LINE
  5
1F2
330
1F
100
AcDbEntity
  8
0
  6
Continuous
 62
     7
370
    25
100
AcDbLine
 10
-0.25
 20
-1.7185039347
 30
0.0
 11
-0.25
 21
-2.1122047247
 31
0.0
  0
LINE
  5
1F3
330
1F
100
AcDbEntity
  8
0
  6
Continuous
 62
     7
370
    25
100
AcDbLine
 10
-0.0441937491
 20
-1.7185039347
 30
0.0
 11
-0.25
 21
-1.7185039347
 31
0.0
  0
LINE
  5
1F4
330
1F
100
AcDbEntity
  8
0
  6
Continuous
 62
     7
370
    25
100
AcDbLine
 10
0.0
 20
0.0
 30
0.0
 11
0.0
 21
-1.6743101856
 31
0.0
  0
LINE
  5
1F5
330
1F
100
AcDbEntity
  8
0
  6
Continuous
 62
     7
370
    25
100
AcDbLine
 10
1.6743101856
 20
0.0
 30
0.0
 11
0.0
 21
0.0
 31
0.0
  0
LINE
  5
1F6
330
1F
100
AcDbEntity
  8
0
  6
Continuous
 62
     7
370
    25
100
AcDbLine
 10
2.1122047247
 20
0.25
 30
0.0
 11
1.7185039347
 21
0.25
 31
0.0
  0
LINE
  5
1F7
330
1F
100
AcDbEntity
  8
0
  6
Continuous
 62
     7
370
    25
100
AcDbLine
 10
5.4144676659
 20
0.0
 30
0.0
 11
2.1563984738
 21
0.0
 31
0.0
  0
LINE
  5
1F8
330
1F
100
AcDbEntity
  8
0
  6
Continuous
 62
     7
370
    25
100
AcDbLine
 10
5.852362205
 20
0.25
 30
0.0
 11
5.458661415
 21
0.25
 31
0.0
  0
LINE
  5
1F9
330
1F
100
AcDbEntity
  8
0
  6
Continuous
 62
     7
370
    25
100
AcDbLine
 10
9.1546251462
 20
0.0
 30
0.0
 11
5.8965559541
 21
0.0
 31
0.0
  0
LINE
  5
1FA
330
1F
100
AcDbEntity
  8
0
  6
Continuous
 62
     7
370
    25
100
AcDbLine
 10
9.5925196853
 20
0.25
 30
0.0
 11
9.1988188953
 21
0.25
 31
0.0
  0
LINE
  5
1FB
330
1F
100
AcDbEntity
  8
0
  6
Continuous
 62
     7
370
    25
100
AcDbLine
 10
11.56102362
 20
-1.7185039347
 30
0.0
 11
11.3552173691
 21
-1.7185039347
 31
0.0
  0
LINE
  5
1FC
330
1F
100
AcDbEntity
  8
0
  6
Continuous
 62
     7
370
    25
100
AcDbLine
 10
11.56102362
 20
-2.1122047247
 30
0.0
 11
11.56102362
 21
-1.7185039347
 31
0.0
  0
LINE
  5
1FD
330
1F
100
AcDbEntity
  8
0
  6
Continuous
 62
     7
370
    25
100
AcDbLine
 10
11.3552173691
 20
-2.1122047247
 30
0.0
 11
11.56102362
 21
-2.1122047247
 31
0.0
  0
LINE
  5
1FE
330
1F
100
AcDbEntity
  8
0
  6
Continuous
 62
     7
370
    25
100
AcDbLine
 10
11.31102362
 20
-5.4144676659
 30
0.0
 11
11.31102362
 21
-2.1563984738
 31
0.0
  0
LINE
  5
1FF
330
1F
100
AcDbEntity
  8
0
  6
Continuous
 62
     7
370
    25
100
AcDbLine
 10
11.56102362
 20
-5.458661415
 30
0.0
 11
11.3552173691
 21
-5.458661415
 31
0.0
  0
LINE
  5
200
330
1F
100
AcDbEntity
  8
0
  6
Continuous
 62
     7
370
    25
100
AcDbLine
 10
11.56102362
 20
-5.852362205
 30
0.0
 11
11.56102362
 21
-5.458661415
 31
0.0
  0
LINE
  5
201
330
1F
100
AcDbEntity
  8
0
  6
Continuous
 62
     7
370
    25
100
AcDbLine
 10
11.3552173691
 20
-5.852362205
 30
0.0
 11
11.56102362
 21
-5.852362205
 31
0.0
  0
LINE
  5
202
330
1F
100
AcDbEntity
  8
0
  6
Continuous
 62
     7
370
    25
100
AcDbLine
 10
11.31102362
 20
-9.1546251462
 30
0.0
 11
11.31102362
 21
-5.8965559541
 31
0.0
  0
LINE
  5
203
330
1F
100
AcDbEntity
  8
0
  6
Continuous
 62
     7
370
    25
100
AcDbLine
 10
11.56102362
 20
-9.1988188953
 30
0.0
 11
11.3552173691
 21
-9.1988188953
 31
0.0
  0
LINE
  5
204
330
1F
100
AcDbEntity
  8
0
  6
Continuous
 62
     7
370
    25
100
AcDbLine
 10
11.56102362
 20
-9.5925196853
 30
0.0
 11
11.56102362
 21
-9.1988188953
 31
0.0
  0
LINE
  5
205
330
1F
100
AcDbEntity
  8
0
  6
Continuous
 62
     7
370
    25
100
AcDbLine
 10
11.3552173691
 20
-9.5925196853
 30
0.0
 11
11.56102362
 21
-9.5925196853
 31
0.0
  0
LINE
  5
206
330
1F
100
AcDbEntity
  8
0
  6
Continuous
 62
     7
370
    25
100
AcDbLine
 10
11.24852362
 20
-10.06102362
 30
0.0
 11
10.37352362
 21
-10.06102362
 31
0.0
  0
LINE
  5
207
330
1F
100
AcDbEntity
  8
0
  6
Continuous
 62
     7
370
    25
100
AcDbLine
 10
10.31102362
 20
-10.12352362
 30
0.0
 11
10.31102362
 21
-11.24852362
 31
0.0
  0
LINE
  5
208
330
1F
100
AcDbEntity
  8
0
  6
Continuous
 62
     7
370
    25
100
AcDbLine
 10
9.6367134344
 20
-11.31102362
 30
0.0
 11
10.24852362
 21
-11.31102362
 31
0.0
  0
LINE
  5
209
330
1F
100
AcDbEntity
  8
0
  6
Continuous
 62
     7
370
    25
100
AcDbLine
 10
9.8423927376
 20
-10.8303418159
 30
0.0
 11
9.8423927376
 21
-10.7218789241
 31
0.0
  0
LINE
  5
20A
330
1F
100
AcDbEntity
  8
0
  6
Continuous
 62
     7
370
    25
100
AcDbLine
 10
9.7981989885
 20
-10.677685175
 30
0.0
 11
9.6365864868
 21
-10.677685175
 31
0.0
  0
LINE
  5
20B
330
1F
100
AcDbEntity
  8
0
  6
Continuous
 62
     7
370
    25
100
AcDbLine
 10
9.5923927376
 20
-10.7218789241
 30
0.0
 11
9.5923927376
 21
-10.8303418159
 31
0.0
  0
LINE
  5
20C
330
1F
100
AcDbEntity
  8
0
  6
Continuous
 62
     7
370
    25
100
AcDbLine
 10
9.6365864868
 20
-10.874535565
 30
0.0
 11
9.7981989885
 21
-10.874535565
 31
0.0
  0
LINE
  5
20D
330
1F
100
AcDbEntity
  8
0
  6
Continuous
 62
     7
370
    25
100
AcDbLine
 10
10.7218789241
 20
-9.8423927376
 30
0.0
 11
10.8303418159
 21
-9.8423927376
 31
0.0
  0
LINE
  5
20E
330
1F
100
AcDbEntity
  8
0
  6
Continuous
 62
     7
370
    25
100
AcDbLine
 10
10.874535565
 20
-9.7981989885
 30
0.0
 11
10.874535565
 21
-9.6365864868
 31
0.0
  0
LINE
  5
20F
330
1F
100
AcDbEntity
  8
0
  6
Continuous
 62
     7
370
    25
100
AcDbLine
 10
10.8303418159
 20
-9.5923927376
 30
0.0
 11
10.7218789241
 21
-9.5923927376
 31
0.0
  0
LINE
  5
210
330
1F
100
AcDbEntity
  8
0
  6
Continuous
 62
     7
370
    25
100
AcDbLine
 10
10.677685175
 20
-9.6365864868
 30
0.0
 11
10.677685175
 21
-9.7981989885
 31
0.0
  0
LINE
  5
211
330
1F
100
AcDbEntity
  8
0
  6
Continuous
 62
     7
370
    25
100
AcDbLine
 10
0.4806818041
 20
-9.8423927376
 30
0.0
 11
0.5891446959
 21
-9.8423927376
 31
0.0
  0
LINE
  5
212
330
1F
100
AcDbEntity
  8
0
  6
Continuous
 62
     7
370
    25
100
AcDbLine
 10
0.633338445
 20
-9.7981989885
 30
0.0
 11
0.633338445
 21
-9.6365864868
 31
0.0
  0
LINE
  5
213
330
1F
100
AcDbEntity
  8
0
  6
Continuous
 62
     7
370
    25
100
AcDbLine
 10
0.5891446959
 20
-9.5923927376
 30
0.0
 11
0.4806818041
 21
-9.5923927376
 31
0.0
  0
LINE
  5
214
330
1F
100
AcDbEntity
  8
0
  6
Continuous
 62
     7
370
    25
100
AcDbLine
 10
0.436488055
 20
-9.6365864868
 30
0.0
 11
0.436488055
 21
-9.7981989885
 31
0.0
  0
LINE
  5
215
330
1F
100
AcDbEntity
  8
0
  6
Continuous
 62
     7
370
    25
100
AcDbLine
 10
1.4686308824
 20
-10.7218789241
 30
0.0
 11
1.4686308824
 21
-10.8303418159
 31
0.0
  0
LINE
  5
216
330
1F
100
AcDbEntity
  8
0
  6
Continuous
 62
     7
370
    25
100
AcDbLine
 10
1.5128246315
 20
-10.874535565
 30
0.0
 11
1.6744371332
 21
-10.874535565
 31
0.0
  0
LINE
  5
217
330
1F
100
AcDbEntity
  8
0
  6
Continuous
 62
     7
370
    25
100
AcDbLine
 10
1.7186308824
 20
-10.8303418159
 30
0.0
 11
1.7186308824
 21
-10.7218789241
 31
0.0
  0
LINE
  5
218
330
1F
100
AcDbEntity
  8
0
  6
Continuous
 62
     7
370
    25
100
AcDbLine
 10
1.7186308824
 20
-10.7281579001
 30
0.0
 11
1.9184775369
 21
-10.7281579001
 31
0.0
  0
LINE
  5
219
330
1F
100
AcDbEntity
  8
0
  6
Continuous
 62
     7
370
    25
100
AcDbLine
 10
2.0184775369
 20
-10.6281579001
 30
0.0
 11
2.0184775369
 21
-9.7182657199
 31
0.0
  0
LINE
  5
21A
330
1F
100
AcDbEntity
  8
0
  6
Continuous
 62
     7
370
    25
100
AcDbLine
 10
1.9184775369
 20
-9.6182657199
 30
0.0
 11
1.6093460831
 21
-9.6182657199
 31
0.0
  0
LINE
  5
21B
330
1F
100
AcDbEntity
  8
0
  6
Continuous
 62
     7
370
    25
100
AcDbLine
 10
1.5093460831
 20
-9.9549695222
 30
0.0
 11
1.5093460831
 21
-10.6746591134
 31
0.0
  0
LINE
  5
21C
330
1F
100
AcDbEntity
  8
0
  6
Continuous
 62
     7
370
    25
100
AcDbLine
 10
1.4686308824
 20
-0.4806818041
 30
0.0
 11
1.4686308824
 21
-0.5891446959
 31
0.0
  0
LINE
  5
21D
330
1F
100
AcDbEntity
  8
0
  6
Continuous
 62
     7
370
    25
100
AcDbLine
 10
1.5128246315
 20
-0.633338445
 30
0.0
 11
1.6744371332
 21
-0.633338445
 31
0.0
  0
LINE
  5
21E
330
1F
100
AcDbEntity
  8
0
  6
Continuous
 62
     7
370
    25
100
AcDbLine
 10
1.7186308824
 20
-0.5891446959
 30
0.0
 11
1.7186308824
 21
-0.4806818041
 31
0.0
  0
LINE
  5
21F
330
1F
100
AcDbEntity
  8
0
  6
Continuous
 62
     7
370
    25
100
AcDbLine
 10
1.6744371332
 20
-0.436488055
 30
0.0
 11
1.5128246315
 21
-0.436488055
 31
0.0
  0
LINE
  5
220
330
1F
100
AcDbEntity
  8
0
  6
Continuous
 62
     7
370
    25
100
AcDbLine
 10
10.81068881
 20
-1.15216531
 30
0.0
 11
10.49568881
 21
-1.15216531
 31
0.0
  0
LINE
  5
221
330
1F
100
AcDbEntity
  8
0
  6
Continuous
 62
     7
370
    25
100
AcDbLine
 10
10.43318881
 20
-1.21466531
 30
0.0
 11
10.43318881
 21
-2.17236531
 31
0.0
  0
LINE
  5
222
330
1F
100
AcDbEntity
  8
0
  6
Continuous
 62
     7
370
    25
100
AcDbLine
 10
10.49568881
 20
-2.23486531
 30
0.0
 11
10.81068881
 21
-2.23486531
 31
0.0
  0
LINE
  5
223
330
1F
100
AcDbEntity
  8
0
  6
Continuous
 62
     7
370
    25
100
AcDbLine
 10
10.87318881
 20
-2.17236531
 30
0.0
 11
10.87318881
 21
-1.7200830885
 31
0.0
  0
LINE
  5
224
330
1F
100
AcDbEntity
  8
0
  6
Continuous
 62
     7
370
    25
100
AcDbLine
 10
10.874535565
 20
-1.6744371332
 30
0.0
 11
10.874535565
 21
-1.5128246315
 31
0.0
  0
LINE
  5
225
330
1F
100
AcDbEntity
  8
0
  6
Continuous
 62
     7
370
    25
100
AcDbLine
 10
10.87318881
 20
-1.4671786763
 30
0.0
 11
10.87318881
 21
-1.21466531
 31
0.0
  0
LINE
  5
226
330
1F
100
AcDbEntity
  8
0
  6
Continuous
 62
     7
370
    25
100
AcDbLine
 10
9.71801181
 20
-0.2948680009
 30
0.0
 11
9.71801181
 21
-0.2432554991
 31
0.0
  0
LINE
  5
227
330
1F
100
AcDbEntity
  8
0
  6
Continuous
 62
     7
370
    25
100
AcDbLine
 10
9.6738180609
 20
-0.19906175
 30
0.0
 11
1.6372055591
 21
-0.19906175
 31
0.0
  0
LINE
  5
228
330
1F
100
AcDbEntity
  8
0
  6
Continuous
 62
     7
370
    25
100
AcDbLine
 10
1.59301181
 20
-0.2432554991
 30
0.0
 11
1.59301181
 21
-0.2948680009
 31
0.0
  0
LINE
  5
229
330
1F
100
AcDbEntity
  8
0
  6
Continuous
 62
     7
370
    25
100
AcDbLine
 10
1.6372055591
 20
-0.33906175
 30
0.0
 11
9.6738180609
 21
-0.33906175
 31
0.0
  0
LINE
  5
22A
330
1F
100
AcDbEntity
  8
0
  6
Continuous
 62
     7
370
    25
100
AcDbLine
 10
9.6738180609
 20
-10.97196187
 30
0.0
 11
1.6372055591
 21
-10.97196187
 31
0.0
  0
LINE
  5
22B
330
1F
100
AcDbEntity
  8
0
  6
Continuous
 62
     7
370
    25
100
AcDbLine
 10
1.59301181
 20
-11.0161556191
 30
0.0
 11
1.59301181
 21
-11.0677681209
 31
0.0
  0
LINE
  5
22C
330
1F
100
AcDbEntity
  8
0
  6
Continuous
 62
     7
370
    25
100
AcDbLine
 10
1.6372055591
 20
-11.11196187
 30
0.0
 11
9.6738180609
 21
-11.11196187
 31
0.0
  0
LINE
  5
22D
330
1F
100
AcDbEntity
  8
0
  6
Continuous
 62
     7
370
    25
100
AcDbLine
 10
9.71801181
 20
-11.0677681209
 30
0.0
 11
9.71801181
 21
-11.0161556191
 31
0.0
  0
LINE
  5
22E
330
1F
100
AcDbEntity
  8
0
  6
Continuous
 62
     7
370
    25
100
AcDbLine
 10
10.33134581
 20
-6.07311181
 30
0.0
 11
10.33134581
 21
-7.47711181
 31
0.0
  0
LINE
  5
22F
330
1F
100
AcDbEntity
  8
0
  6
Continuous
 62
     7
370
    25
100
AcDbLine
 10
10.39434581
 20
-7.54011181
 30
0.0
 11
10.92196187
 21
-7.54011181
 31
0.0
  0
LINE
  5
230
330
1F
100
AcDbEntity
  8
0
  6
Continuous
 62
     7
370
    25
100
AcDbLine
 10
10.97196187
 20
-7.6560237062
 30
0.0
 11
10.8544696633
 21
-7.6560237062
 31
0.0
  0
LINE
  5
231
330
1F
100
AcDbEntity
  8
0
  6
Continuous
 62
     7
370
    25
100
AcDbLine
 10
10.8102754895
 20
-7.7002178801
 30
0.0
 11
10.8102754895
 21
-7.8618295111
 31
0.0
  0
LINE
  5
232
330
1F
100
AcDbEntity
  8
0
  6
Continuous
 62
     7
370
    25
100
AcDbLine
 10
10.8544696633
 20
-7.9060236849
 30
0.0
 11
10.97196187
 21
-7.9060236849
 31
0.0
  0
LINE
  5
233
330
1F
100
AcDbEntity
  8
0
  6
Continuous
 62
     7
370
    25
100
AcDbLine
 10
10.92196187
 20
-8.9267213709
 30
0.0
 11
10.5885959222
 21
-8.9267213709
 31
0.0
  0
LINE
  5
234
330
1F
100
AcDbEntity
  8
0
  6
Continuous
 62
     7
370
    25
100
AcDbLine
 10
10.5255959222
 20
-8.9897213709
 30
0.0
 11
10.5255959222
 21
-9.485432834
 31
0.0
  0
LINE
  5
235
330
1F
100
AcDbEntity
  8
0
  6
Continuous
 62
     7
370
    25
100
AcDbLine
 10
10.5885959222
 20
-9.548432834
 30
0.0
 11
10.92196187
 21
-9.548432834
 31
0.0
  0
LINE
  5
236
330
1F
100
AcDbEntity
  8
0
  6
Continuous
 62
     7
370
    25
100
AcDbLine
 10
10.97196187
 20
-7.9060236849
 30
0.0
 11
10.97196187
 21
-9.6738180609
 31
0.0
  0
LINE
  5
237
330
1F
100
AcDbEntity
  8
0
  6
Continuous
 62
     7
370
    25
100
AcDbLine
 10
11.0161556191
 20
-9.71801181
 30
0.0
 11
11.0677681209
 21
-9.71801181
 31
0.0
  0
LINE
  5
238
330
1F
100
AcDbEntity
  8
0
  6
Continuous
 62
     7
370
    25
100
AcDbLine
 10
11.11196187
 20
-9.6738180609
 30
0.0
 11
11.11196187
 21
-1.6372055591
 31
0.0
  0
LINE
  5
239
330
1F
100
AcDbEntity
  8
0
  6
Continuous
 62
     7
370
    25
100
AcDbLine
 10
11.0677681209
 20
-1.59301181
 30
0.0
 11
11.0161556191
 21
-1.59301181
 31
0.0
  0
LINE
  5
23A
330
1F
100
AcDbEntity
  8
0
  6
Continuous
 62
     7
370
    25
100
AcDbLine
 10
10.97196187
 20
-1.6372055591
 30
0.0
 11
10.97196187
 21
-3.4060236293
 31
0.0
  0
LINE
  5
23B
330
1F
100
AcDbEntity
  8
0
  6
Continuous
 62
     7
370
    25
100
AcDbLine
 10
10.97196187
 20
-3.4060236293
 30
0.0
 11
10.8544696633
 21
-3.4060236293
 31
0.0
  0
LINE
  5
23C
330
1F
100
AcDbEntity
  8
0
  6
Continuous
 62
     7
370
    25
100
AcDbLine
 10
10.8102754895
 20
-3.4502178032
 30
0.0
 11
10.8102754895
 21
-3.6118294342
 31
0.0
  0
LINE
  5
23D
330
1F
100
AcDbEntity
  8
0
  6
Continuous
 62
     7
370
    25
100
AcDbLine
 10
10.8544696634
 20
-3.6560236079
 30
0.0
 11
10.97196187
 21
-3.6560236079
 31
0.0
  0
LINE
  5
23E
330
1F
100
AcDbEntity
  8
0
  6
Continuous
 62
     7
370
    25
100
AcDbLine
 10
10.97196187
 20
-3.6560236079
 30
0.0
 11
10.97196187
 21
-7.6560237062
 31
0.0
  0
LINE
  5
23F
330
1F
100
AcDbEntity
  8
0
  6
Continuous
 62
     7
370
    25
100
AcDbLine
 10
10.39434581
 20
-6.01011181
 30
0.0
 11
10.92196187
 21
-6.01011181
 31
0.0
  0
LINE
  5
240
330
1F
100
AcDbEntity
  8
0
  6
Continuous
 62
     7
370
    25
100
AcDbLine
 10
0.7477681209
 20
-2.1031943765
 30
0.0
 11
0.7477681209
 21
-0.8922879099
 31
0.0
  0
LINE
  5
241
330
1F
100
AcDbEntity
  8
0
  6
Continuous
 62
     7
370
    25
100
AcDbLine
 10
0.2432554991
 20
-0.7965015721
 30
0.0
 11
0.2432554991
 21
-1.59301181
 31
0.0
  0
LINE
  5
242
330
1F
100
AcDbEntity
  8
0
  6
Continuous
 62
     7
370
    25
100
AcDbLine
 10
0.19906175
 20
-1.6372055591
 30
0.0
 11
0.19906175
 21
-9.6738180609
 31
0.0
  0
LINE
  5
243
330
1F
100
AcDbEntity
  8
0
  6
Continuous
 62
     7
370
    25
100
AcDbLine
 10
0.2432554991
 20
-9.71801181
 30
0.0
 11
0.2948680009
 21
-9.71801181
 31
0.0
  0
LINE
  5
244
330
1F
100
AcDbEntity
  8
0
  6
Continuous
 62
     7
370
    25
100
AcDbLine
 10
0.33906175
 20
-9.6738180609
 30
0.0
 11
0.33906175
 21
-7.9060236849
 31
0.0
  0
LINE
  5
245
330
1F
100
AcDbEntity
  8
0
  6
Continuous
 62
     7
370
    25
100
AcDbLine
 10
0.33906175
 20
-7.9060236849
 30
0.0
 11
0.4565539587
 21
-7.9060236849
 31
0.0
  0
LINE
  5
246
330
1F
100
AcDbEntity
  8
0
  6
Continuous
 62
     7
370
    25
100
AcDbLine
 10
0.5007481326
 20
-7.8618295111
 30
0.0
 11
0.5007481326
 21
-7.7002178801
 31
0.0
  0
LINE
  5
247
330
1F
100
AcDbEntity
  8
0
  6
Continuous
 62
     7
370
    25
100
AcDbLine
 10
0.4565539587
 20
-7.6560237062
 30
0.0
 11
0.33906175
 21
-7.6560237062
 31
0.0
  0
LINE
  5
248
330
1F
100
AcDbEntity
  8
0
  6
Continuous
 62
     7
370
    25
100
AcDbLine
 10
0.33906175
 20
-7.6560237062
 30
0.0
 11
0.33906175
 21
-7.0823908013
 31
0.0
  0
LINE
  5
249
330
1F
100
AcDbEntity
  8
0
  6
Continuous
 62
     7
370
    25
100
AcDbLine
 10
0.7524307126
 20
-7.387843263
 30
0.0
 11
0.6311029045
 21
-7.8406448074
 31
0.0
  0
LINE
  5
24A
330
1F
100
AcDbEntity
  8
0
  6
Continuous
 62
     7
370
    25
100
AcDbLine
 10
0.8629251028
 20
-7.9027613783
 30
0.0
 11
0.984252911
 21
-7.4499598338
 31
0.0
  0
LINE
  5
24B
330
1F
100
AcDbEntity
  8
0
  6
Continuous
 62
     7
370
    25
100
AcDbLine
 10
1.3886449074
 20
-5.940748357
 30
0.0
 11
1.5099727155
 21
-5.4879468126
 31
0.0
  0
LINE
  5
24C
330
1F
100
AcDbEntity
  8
0
  6
Continuous
 62
     7
370
    25
100
AcDbLine
 10
1.2781505172
 20
-5.4258302417
 30
0.0
 11
1.156822709
 21
-5.8786317862
 31
0.0
  0
LINE
  5
24D
330
1F
100
AcDbEntity
  8
0
  6
Continuous
 62
     7
370
    25
100
AcDbLine
 10
0.38906175
 20
-5.37551181
 30
0.0
 11
0.4741990484
 21
-5.37551181
 31
0.0
  0
LINE
  5
24E
330
1F
100
AcDbEntity
  8
0
  6
Continuous
 62
     7
370
    25
100
AcDbLine
 10
0.5371990484
 20
-5.31251181
 30
0.0
 11
0.5371990484
 21
-4.12851181
 31
0.0
  0
LINE
  5
24F
330
1F
100
AcDbEntity
  8
0
  6
Continuous
 62
     7
370
    25
100
AcDbLine
 10
0.4741990484
 20
-4.06551181
 30
0.0
 11
0.38906175
 21
-4.06551181
 31
0.0
  0
LINE
  5
250
330
1F
100
AcDbEntity
  8
0
  6
Continuous
 62
     7
370
    25
100
AcDbLine
 10
0.33906175
 20
-3.6560236079
 30
0.0
 11
0.33906175
 21
-6.2462008187
 31
0.0
  0
LINE
  5
251
330
1F
100
AcDbEntity
  8
0
  6
Continuous
 62
     7
370
    25
100
AcDbLine
 10
0.4565539586
 20
-3.6560236079
 30
0.0
 11
0.33906175
 21
-3.6560236079
 31
0.0
  0
LINE
  5
252
330
1F
100
AcDbEntity
  8
0
  6
Continuous
 62
     7
370
    25
100
AcDbLine
 10
0.5007481326
 20
-3.6118294342
 30
0.0
 11
0.5007481326
 21
-3.4502178032
 31
0.0
  0
LINE
  5
253
330
1F
100
AcDbEntity
  8
0
  6
Continuous
 62
     7
370
    25
100
AcDbLine
 10
0.4565539587
 20
-3.4060236293
 30
0.0
 11
0.33906175
 21
-3.4060236293
 31
0.0
  0
LINE
  5
254
330
1F
100
AcDbEntity
  8
0
  6
Continuous
 62
     7
370
    25
100
AcDbLine
 10
0.33906175
 20
-3.4060236293
 30
0.0
 11
0.33906175
 21
-1.6372055591
 31
0.0
  0
LINE
  5
255
330
1F
100
AcDbEntity
  8
0
  6
Continuous
 62
     7
370
    25
100
AcDbLine
 10
0.38906175
 20
-2.1661943765
 30
0.0
 11
0.6847681209
 21
-2.1661943765
 31
0.0
  0
LINE
  5
256
330
1F
100
AcDbEntity
  8
0
  6
Continuous
 62
     7
370
    25
100
AcDbLine
 10
9.13551181
 20
-0.46851181
 30
0.0
 11
9.13551181
 21
-1.00751181
 31
0.0
  0
LINE
  5
257
330
1F
100
AcDbEntity
  8
0
  6
Continuous
 62
     7
370
    25
100
AcDbLine
 10
9.19851181
 20
-1.07051181
 30
0.0
 11
10.39751181
 21
-1.07051181
 31
0.0
  0
LINE
  5
258
330
1F
100
AcDbEntity
  8
0
  6
Continuous
 62
     7
370
    25
100
AcDbLine
 10
10.46051181
 20
-1.00751181
 30
0.0
 11
10.46051181
 21
-0.9182023374
 31
0.0
  0
LINE
  5
259
330
1F
100
AcDbEntity
  8
0
  6
Continuous
 62
     7
370
    25
100
AcDbLine
 10
10.3616165557
 20
-0.40551181
 30
0.0
 11
9.19851181
 21
-0.40551181
 31
0.0
  0
LINE
  5
25A
330
1F
100
AcDbEntity
  8
0
  6
Continuous
 62
     7
370
    25
100
AcDbLine
 10
2.5636312531
 20
-2.3750816093
 30
0.0
 11
2.6718345999
 21
-2.4832849561
 31
0.0
  0
LINE
  5
25B
330
1F
100
AcDbEntity
  8
0
  6
Continuous
 62
     7
370
    25
100
AcDbLine
 10
2.8132559561
 20
-2.3418635999
 30
0.0
 11
2.7050526093
 21
-2.2336602531
 31
0.0
  0
LINE
  5
25C
330
1F
100
AcDbEntity
  8
0
  6
Continuous
 62
     7
370
    25
100
AcDbLine
 10
1.9574443669
 20
-1.4860520107
 30
0.0
 11
1.8492410201
 21
-1.3778486639
 31
0.0
  0
LINE
  5
25D
330
1F
100
AcDbEntity
  8
0
  6
Continuous
 62
     7
370
    25
100
AcDbLine
 10
1.7078196639
 20
-1.5192700201
 30
0.0
 11
1.8160230107
 21
-1.6274733669
 31
0.0
  0
LINE
  5
25E
330
1F
100
AcDbEntity
  8
0
  6
Continuous
 62
     7
370
    25
100
AcDbLine
 10
9.2115253342
 20
-8.2091732956
 30
0.0
 11
9.2115253342
 21
-3.287913454
 31
0.0
  0
LINE
  5
25F
330
1F
100
AcDbEntity
  8
0
  6
Continuous
 62
     7
370
    25
100
AcDbLine
 10
8.7665744986
 20
-2.8429626184
 30
0.0
 11
2.5461021256
 21
-2.8429626184
 31
0.0
  0
LINE
  5
260
330
1F
100
AcDbEntity
  8
0
  6
Continuous
 62
     7
370
    25
100
AcDbLine
 10
2.10115129
 20
-3.287913454
 30
0.0
 11
2.10115129
 21
-8.2091732956
 31
0.0
  0
LINE
  5
261
330
1F
100
AcDbEntity
  8
0
  6
Continuous
 62
     7
370
    25
100
AcDbLine
 10
2.10115129
 20
-8.18303181
 30
0.0
 11
1.59855081
 21
-8.18303181
 31
0.0
  0
LINE
  5
262
330
1F
100
AcDbEntity
  8
0
  6
Continuous
 62
     7
370
    25
100
AcDbLine
 10
1.53555081
 20
-8.24603181
 30
0.0
 11
1.53555081
 21
-9.04499181
 31
0.0
  0
LINE
  5
263
330
1F
100
AcDbEntity
  8
0
  6
Continuous
 62
     7
370
    25
100
AcDbLine
 10
1.59855081
 20
-9.10799181
 30
0.0
 11
2.47924381
 21
-9.10799181
 31
0.0
  0
LINE
  5
264
330
1F
100
AcDbEntity
  8
0
  6
Continuous
 62
     7
370
    25
100
AcDbLine
 10
2.54224381
 20
-9.04499181
 30
0.0
 11
2.54224381
 21
-8.4572736768
 31
0.0
  0
LINE
  5
265
330
1F
100
AcDbEntity
  8
0
  6
Continuous
 62
     7
370
    25
100
AcDbLine
 10
2.3492516712
 20
-8.4572736768
 30
0.0
 11
8.963424953
 21
-8.4572736768
 31
0.0
  0
LINE
  5
266
330
1F
100
AcDbEntity
  8
0
  6
Continuous
 62
     7
370
    25
100
AcDbLine
 10
2.0507484402
 20
-7.8618295111
 30
0.0
 11
2.0507484402
 21
-7.7002178801
 31
0.0
  0
LINE
  5
267
330
1F
100
AcDbEntity
  8
0
  6
Continuous
 62
     7
370
    25
100
AcDbLine
 10
2.0065542663
 20
-7.6560237062
 30
0.0
 11
1.8449424887
 21
-7.6560237062
 31
0.0
  0
LINE
  5
268
330
1F
100
AcDbEntity
  8
0
  6
Continuous
 62
     7
370
    25
100
AcDbLine
 10
1.8007483149
 20
-7.7002178801
 30
0.0
 11
1.8007483149
 21
-7.8618295111
 31
0.0
  0
LINE
  5
269
330
1F
100
AcDbEntity
  8
0
  6
Continuous
 62
     7
370
    25
100
AcDbLine
 10
1.8449424887
 20
-7.9060236849
 30
0.0
 11
2.0065542663
 21
-7.9060236849
 31
0.0
  0
LINE
  5
26A
330
1F
100
AcDbEntity
  8
0
  6
Continuous
 62
     7
370
    25
100
AcDbLine
 10
9.2602751819
 20
-7.7002178801
 30
0.0
 11
9.2602751819
 21
-7.8618295111
 31
0.0
  0
LINE
  5
26B
330
1F
100
AcDbEntity
  8
0
  6
Continuous
 62
     7
370
    25
100
AcDbLine
 10
9.3044693557
 20
-7.9060236849
 30
0.0
 11
9.4660811333
 21
-7.9060236849
 31
0.0
  0
LINE
  5
26C
330
1F
100
AcDbEntity
  8
0
  6
Continuous
 62
     7
370
    25
100
AcDbLine
 10
9.5102753072
 20
-7.8618295111
 30
0.0
 11
9.5102753072
 21
-7.7002178801
 31
0.0
  0
LINE
  5
26D
330
1F
100
AcDbEntity
  8
0
  6
Continuous
 62
     7
370
    25
100
AcDbLine
 10
9.4660811333
 20
-7.6560237062
 30
0.0
 11
9.3044693557
 21
-7.6560237062
 31
0.0
  0
LINE
  5
26E
330
1F
100
AcDbEntity
  8
0
  6
Continuous
 62
     7
370
    25
100
AcDbLine
 10
9.2602751819
 20
-3.4502178031
 30
0.0
 11
9.2602751819
 21
-3.6118294342
 31
0.0
  0
LINE
  5
26F
330
1F
100
AcDbEntity
  8
0
  6
Continuous
 62
     7
370
    25
100
AcDbLine
 10
9.3044693557
 20
-3.6560236079
 30
0.0
 11
9.4660811333
 21
-3.6560236079
 31
0.0
  0
LINE
  5
270
330
1F
100
AcDbEntity
  8
0
  6
Continuous
 62
     7
370
    25
100
AcDbLine
 10
9.5102753072
 20
-3.6118294342
 30
0.0
 11
9.5102753072
 21
-3.4502178031
 31
0.0
  0
LINE
  5
271
330
1F
100
AcDbEntity
  8
0
  6
Continuous
 62
     7
370
    25
100
AcDbLine
 10
9.4660811333
 20
-3.4060236293
 30
0.0
 11
9.3044693557
 21
-3.4060236293
 31
0.0
  0
LINE
  5
272
330
1F
100
AcDbEntity
  8
0
  6
Continuous
 62
     7
370
    25
100
AcDbLine
 10
2.0507484402
 20
-3.6118294342
 30
0.0
 11
2.0507484402
 21
-3.4502178031
 31
0.0
  0
LINE
  5
273
330
1F
100
AcDbEntity
  8
0
  6
Continuous
 62
     7
370
    25
100
AcDbLine
 10
2.0065542663
 20
-3.4060236293
 30
0.0
 11
1.8449424887
 21
-3.4060236293
 31
0.0
  0
LINE
  5
274
330
1F
100
AcDbEntity
  8
0
  6
Continuous
 62
     7
370
    25
100
AcDbLine
 10
1.8007483149
 20
-3.4502178031
 30
0.0
 11
1.8007483149
 21
-3.6118294342
 31
0.0
  0
LINE
  5
275
330
1F
100
AcDbEntity
  8
0
  6
Continuous
 62
     7
370
    25
100
AcDbLine
 10
1.8449424887
 20
-3.6560236079
 30
0.0
 11
2.0065542663
 21
-3.6560236079
 31
0.0
  0
LINE
  5
276
330
1F
100
AcDbEntity
  8
0
  6
Continuous
 62
     7
370
    25
100
AcDbLine
 10
5.95511181
 20
-1.17981181
 30
0.0
 11
5.18111181
 21
-1.17981181
 31
0.0
  0
LINE
  5
277
330
1F
100
AcDbEntity
  8
0
  6
Continuous
 62
     7
370
    25
100
AcDbLine
 10
5.11811181
 20
-1.24281181
 30
0.0
 11
5.11811181
 21
-2.66681181
 31
0.0
  0
LINE
  5
278
330
1F
100
AcDbEntity
  8
0
  6
Continuous
 62
     7
370
    25
100
AcDbLine
 10
5.18111181
 20
-2.72981181
 30
0.0
 11
5.95511181
 21
-2.72981181
 31
0.0
  0
LINE
  5
279
330
1F
100
AcDbEntity
  8
0
  6
Continuous
 62
     7
370
    25
100
AcDbLine
 10
6.01811181
 20
-2.66681181
 30
0.0
 11
6.01811181
 21
-1.24281181
 31
0.0
  0
LINE
  5
27A
330
1F
100
AcDbEntity
  8
0
  6
Continuous
 62
     7
370
    25
100
AcDbLine
 10
5.458661415
 20
0.25
 30
0.0
 11
5.458661415
 21
0.0441937491
 31
0.0
  0
LINE
  5
27B
330
1F
100
AcDbEntity
  8
0
  6
Continuous
 62
     7
370
    25
100
AcDbLine
 10
11.31102362
 20
-1.6743101856
 30
0.0
 11
11.31102362
 21
0.0
 31
0.0
  0
LINE
  5
27C
330
1F
100
AcDbEntity
  8
0
  6
Continuous
 62
     7
370
    25
100
AcDbLine
 10
5.852362205
 20
0.0441937491
 30
0.0
 11
5.852362205
 21
0.25
 31
0.0
  0
LINE
  5
27D
330
1F
100
AcDbEntity
  8
0
  6
Continuous
 62
     7
370
    25
100
AcDbLine
 10
9.1988188953
 20
0.25
 30
0.0
 11
9.1988188953
 21
0.0441937491
 31
0.0
  0
LINE
  5
27E
330
1F
100
AcDbEntity
  8
0
  6
Continuous
 62
     7
370
    25
100
AcDbLine
 10
11.31102362
 20
-9.99852362
 30
0.0
 11
11.31102362
 21
-9.6367134344
 31
0.0
  0
LINE
  5
27F
330
1F
100
AcDbEntity
  8
0
  6
Continuous
 62
     7
370
    25
100
AcDbLine
 10
9.5925196853
 20
0.0441937491
 30
0.0
 11
9.5925196853
 21
0.25
 31
0.0
  0
LINE
  5
280
330
1F
100
AcDbEntity
  8
0
  6
Continuous
 62
     7
370
    25
100
AcDbLine
 10
1.7185039347
 20
0.25
 30
0.0
 11
1.7185039347
 21
0.0441937491
 31
0.0
  0
LINE
  5
281
330
1F
100
AcDbEntity
  8
0
  6
Continuous
 62
     7
370
    25
100
AcDbLine
 10
11.31102362
 20
0.0
 30
0.0
 11
9.6367134344
 21
0.0
 31
0.0
  0
LINE
  5
282
330
1F
100
AcDbEntity
  8
0
  6
Continuous
 62
     7
370
    25
100
AcDbLine
 10
2.1122047247
 20
0.0441937491
 30
0.0
 11
2.1122047247
 21
0.25
 31
0.0
  0
LINE
  5
283
330
1F
100
AcDbEntity
  8
0
  6
Continuous
 62
     7
370
    25
100
AcDbLine
 10
5.852362205
 20
-11.56102362
 30
0.0
 11
5.852362205
 21
-11.3552173691
 31
0.0
  0
LINE
  5
284
330
1F
100
AcDbEntity
  8
0
  6
Continuous
 62
     7
370
    25
100
AcDbLine
 10
5.458661415
 20
-11.3552173691
 30
0.0
 11
5.458661415
 21
-11.56102362
 31
0.0
  0
LINE
  5
285
330
1F
100
AcDbEntity
  8
0
  6
Continuous
 62
     7
370
    25
100
AcDbLine
 10
0.2432554991
 20
-1.59301181
 30
0.0
 11
0.2948680009
 21
-1.59301181
 31
0.0
  0
LINE
  5
286
330
1F
100
AcDbEntity
  8
0
  6
Continuous
 62
     7
370
    25
100
AcDbLine
 10
0.5891446959
 20
-1.7186308824
 30
0.0
 11
0.4806818041
 21
-1.7186308824
 31
0.0
  0
LINE
  5
287
330
1F
100
AcDbEntity
  8
0
  6
Continuous
 62
     7
370
    25
100
AcDbLine
 10
0.633338445
 20
-1.5128246315
 30
0.0
 11
0.633338445
 21
-1.6744371332
 31
0.0
  0
LINE
  5
288
330
1F
100
AcDbEntity
  8
0
  6
Continuous
 62
     7
370
    25
100
AcDbLine
 10
0.4806818041
 20
-1.4686308824
 30
0.0
 11
0.5891446959
 21
-1.4686308824
 31
0.0
  0
LINE
  5
289
330
1F
100
AcDbEntity
  8
0
  6
Continuous
 62
     7
370
    25
100
AcDbLine
 10
0.436488055
 20
-1.6744371332
 30
0.0
 11
0.436488055
 21
-1.5128246315
 31
0.0
  0
LINE
  5
28A
330
1F
100
AcDbEntity
  8
0
  6
Continuous
 62
     7
370
    25
100
AcDbLine
 10
9.6365864868
 20
-0.633338445
 30
0.0
 11
9.7981989885
 21
-0.633338445
 31
0.0
  0
LINE
  5
28B
330
1F
100
AcDbEntity
  8
0
  6
Continuous
 62
     7
370
    25
100
AcDbLine
 10
9.8423927376
 20
-0.5891446959
 30
0.0
 11
9.8423927376
 21
-0.4806818041
 31
0.0
  0
LINE
  5
28C
330
1F
100
AcDbEntity
  8
0
  6
Continuous
 62
     7
370
    25
100
AcDbLine
 10
9.7981989885
 20
-0.436488055
 30
0.0
 11
9.6365864868
 21
-0.436488055
 31
0.0
  0
LINE
  5
28D
330
1F
100
AcDbEntity
  8
0
  6
Continuous
 62
     7
370
    25
100
AcDbLine
 10
9.5923927376
 20
-0.4806818041
 30
0.0
 11
9.5923927376
 21
-0.5891446959
 31
0.0
  0
LINE
  5
28E
330
1F
100
AcDbEntity
  8
0
  6
Continuous
 62
     7
370
    25
100
AcDbLine
 10
10.8303418159
 20
-1.4686308824
 30
0.0
 11
10.7218789241
 21
-1.4686308824
 31
0.0
  0
LINE
  5
28F
330
1F
100
AcDbEntity
  8
0
  6
Continuous
 62
     7
370
    25
100
AcDbLine
 10
10.677685175
 20
-1.5128246315
 30
0.0
 11
10.677685175
 21
-1.6744371332
 31
0.0
  0
LINE
  5
290
330
1F
100
AcDbEntity
  8
0
  6
Continuous
 62
     7
370
    25
100
AcDbLine
 10
10.7218789241
 20
-1.7186308824
 30
0.0
 11
10.8303418159
 21
-1.7186308824
 31
0.0
  0
LINE
  5
291
330
1F
100
AcDbEntity
  8
0
  6
Continuous
 62
     7
370
    25
100
AcDbLine
 10
1.6744371332
 20
-10.677685175
 30
0.0
 11
1.5128246315
 21
-10.677685175
 31
0.0
  0
ARC
  5
292
330
1F
100
AcDbEntity
  8
0
  6
Continuous
 62
     7
370
    25
100
AcDbCircle
 10
-0.022
 20
-9.6145196853
 30
0.0
 40
0.031250000000001
100
AcDbArc
 50
314.7488120841
 51
135.2511879159
  0
ARC
  5
293
330
1F
100
AcDbEntity
  8
0
  6
Continuous
 62
     7
370
    25
100
AcDbCircle
 10
-0.022
 20
-9.1768188953
 30
0.0
 40
0.0312499999999994
100
AcDbArc
 50
224.7488120841
 51
45.2511879159
  0
ARC
  5
294
330
1F
100
AcDbEntity
  8
0
  6
Continuous
 62
     7
370
    25
100
AcDbCircle
 10
-0.022
 20
-5.874362205
 30
0.0
 40
0.0312499999999999
100
AcDbArc
 50
314.7488120841
 51
135.2511879159
  0
ARC
  5
295
330
1F
100
AcDbEntity
  8
0
  6
Continuous
 62
     7
370
    25
100
AcDbCircle
 10
-0.022
 20
-5.436661415
 30
0.0
 40
0.0312499999999998
100
AcDbArc
 50
224.7488120841
 51
45.2511879159
  0
ARC
  5
296
330
1F
100
AcDbEntity
  8
0
  6
Continuous
 62
     7
370
    25
100
AcDbCircle
 10
-0.022
 20
-2.1342047247
 30
0.0
 40
0.0312499999999996
100
AcDbArc
 50
314.7488120841
 51
135.2511879159
  0
ARC
  5
297
330
1F
100
AcDbEntity
  8
0
  6
Continuous
 62
     7
370
    25
100
AcDbCircle
 10
-0.022
 20
-1.6965039347
 30
0.0
 40
0.0312499999999997
100
AcDbArc
 50
224.7488120841
 51
45.2511879159
  0
ARC
  5
298
330
1F
100
AcDbEntity
  8
0
  6
Continuous
 62
     7
370
    25
100
AcDbCircle
 10
5.436661415
 20
0.022
 30
0.0
 40
0.0312500000000005
100
AcDbArc
 50
224.7488120841
 51
45.2511879159
  0
ARC
  5
299
330
1F
100
AcDbEntity
  8
0
  6
Continuous
 62
     7
370
    25
100
AcDbCircle
 10
11.33302362
 20
-1.6965039347
 30
0.0
 40
0.0312499999999994
100
AcDbArc
 50
134.7488120841
 51
315.2511879159
  0
ARC
  5
29A
330
1F
100
AcDbEntity
  8
0
  6
Continuous
 62
     7
370
    25
100
AcDbCircle
 10
11.33302362
 20
-2.1342047247
 30
0.0
 40
0.0312500000000014
100
AcDbArc
 50
44.7488120841
 51
225.2511879159
  0
ARC
  5
29B
330
1F
100
AcDbEntity
  8
0
  6
Continuous
 62
     7
370
    25
100
AcDbCircle
 10
11.33302362
 20
-5.436661415
 30
0.0
 40
0.0312499999999992
100
AcDbArc
 50
134.7488120841
 51
315.2511879159
  0
ARC
  5
29C
330
1F
100
AcDbEntity
  8
0
  6
Continuous
 62
     7
370
    25
100
AcDbCircle
 10
11.33302362
 20
-5.874362205
 30
0.0
 40
0.0312500000000017
100
AcDbArc
 50
44.7488120841
 51
225.2511879159
  0
ARC
  5
29D
330
1F
100
AcDbEntity
  8
0
  6
Continuous
 62
     7
370
    25
100
AcDbCircle
 10
11.33302362
 20
-9.6145196853
 30
0.0
 40
0.0312500000000036
100
AcDbArc
 50
44.7488120841
 51
225.2511879159
  0
ARC
  5
29E
330
1F
100
AcDbEntity
  8
0
  6
Continuous
 62
     7
370
    25
100
AcDbCircle
 10
11.24852362
 20
-9.99852362
 30
0.0
 40
0.0625000000000018
100
AcDbArc
 50
270.0
 51
360.0
  0
ARC
  5
29F
330
1F
100
AcDbEntity
  8
0
  6
Continuous
 62
     7
370
    25
100
AcDbCircle
 10
10.37352362
 20
-10.12352362
 30
0.0
 40
0.0625
100
AcDbArc
 50
90.0
 51
180.0
  0
ARC
  5
2A0
330
1F
100
AcDbEntity
  8
0
  6
Continuous
 62
     7
370
    25
100
AcDbCircle
 10
10.24852362
 20
-11.24852362
 30
0.0
 40
0.0625
100
AcDbArc
 50
270.0
 51
0.0
  0
ARC
  5
2A1
330
1F
100
AcDbEntity
  8
0
  6
Continuous
 62
     7
370
    25
100
AcDbCircle
 10
9.8203927376
 20
-10.699685175
 30
0.0
 40
0.0312500000000011
100
AcDbArc
 50
314.7488120841
 51
135.2511879159
  0
ARC
  5
2A2
330
1F
100
AcDbEntity
  8
0
  6
Continuous
 62
     7
370
    25
100
AcDbCircle
 10
9.6143927376
 20
-10.699685175
 30
0.0
 40
0.0312499999999999
100
AcDbArc
 50
44.7488120841
 51
225.2511879159
  0
ARC
  5
2A3
330
1F
100
AcDbEntity
  8
0
  6
Continuous
 62
     7
370
    25
100
AcDbCircle
 10
9.6143927376
 20
-10.852535565
 30
0.0
 40
0.0312499999999986
100
AcDbArc
 50
134.7488120841
 51
315.2511879159
  0
ARC
  5
2A4
330
1F
100
AcDbEntity
  8
0
  6
Continuous
 62
     7
370
    25
100
AcDbCircle
 10
9.8203927376
 20
-10.852535565
 30
0.0
 40
0.0312499999999999
100
AcDbArc
 50
224.7488120841
 51
45.2511879159
  0
ARC
  5
2A5
330
1F
100
AcDbEntity
  8
0
  6
Continuous
 62
     7
370
    25
100
AcDbCircle
 10
10.852535565
 20
-9.8203927376
 30
0.0
 40
0.0312499999999998
100
AcDbArc
 50
224.7488120841
 51
45.2511879159
  0
ARC
  5
2A6
330
1F
100
AcDbEntity
  8
0
  6
Continuous
 62
     7
370
    25
100
AcDbCircle
 10
10.852535565
 20
-9.6143927376
 30
0.0
 40
0.0312500000000049
100
AcDbArc
 50
314.7488120841
 51
135.2511879159
  0
ARC
  5
2A7
330
1F
100
AcDbEntity
  8
0
  6
Continuous
 62
     7
370
    25
100
AcDbCircle
 10
10.699685175
 20
-9.6143927376
 30
0.0
 40
0.0312500000000024
100
AcDbArc
 50
44.7488120841
 51
225.2511879159
  0
ARC
  5
2A8
330
1F
100
AcDbEntity
  8
0
  6
Continuous
 62
     7
370
    25
100
AcDbCircle
 10
10.699685175
 20
-9.8203927376
 30
0.0
 40
0.0312499999999999
100
AcDbArc
 50
134.7488120841
 51
315.2511879159
  0
ARC
  5
2A9
330
1F
100
AcDbEntity
  8
0
  6
Continuous
 62
     7
370
    25
100
AcDbCircle
 10
0.611338445
 20
-9.8203927376
 30
0.0
 40
0.0312500000000014
100
AcDbArc
 50
224.7488120841
 51
45.2511879159
  0
ARC
  5
2AA
330
1F
100
AcDbEntity
  8
0
  6
Continuous
 62
     7
370
    25
100
AcDbCircle
 10
0.611338445
 20
-9.6143927376
 30
0.0
 40
0.0312500000000009
100
AcDbArc
 50
314.7488120841
 51
135.2511879159
  0
ARC
  5
2AB
330
1F
100
AcDbEntity
  8
0
  6
Continuous
 62
     7
370
    25
100
AcDbCircle
 10
0.458488055
 20
-9.6143927376
 30
0.0
 40
0.0312500000000017
100
AcDbArc
 50
44.7488120841
 51
225.2511879159
  0
ARC
  5
2AC
330
1F
100
AcDbEntity
  8
0
  6
Continuous
 62
     7
370
    25
100
AcDbCircle
 10
0.458488055
 20
-9.8203927376
 30
0.0
 40
0.0312500000000003
100
AcDbArc
 50
134.7488120841
 51
315.2511879159
  0
ARC
  5
2AD
330
1F
100
AcDbEntity
  8
0
  6
Continuous
 62
     7
370
    25
100
AcDbCircle
 10
1.4906308824
 20
-10.699685175
 30
0.0
 40
0.0312499999999997
100
AcDbArc
 50
44.748812084
 51
225.2511879159
  0
ARC
  5
2AE
330
1F
100
AcDbEntity
  8
0
  6
Continuous
 62
     7
370
    25
100
AcDbCircle
 10
1.4906308824
 20
-10.852535565
 30
0.0
 40
0.0312499999999997
100
AcDbArc
 50
134.7488120841
 51
315.2511879159
  0
ARC
  5
2AF
330
1F
100
AcDbEntity
  8
0
  6
Continuous
 62
     7
370
    25
100
AcDbCircle
 10
1.6966308824
 20
-10.852535565
 30
0.0
 40
0.0312499999999999
100
AcDbArc
 50
224.7488120841
 51
45.2511879159
  0
ARC
  5
2B0
330
1F
100
AcDbEntity
  8
0
  6
Continuous
 62
     7
370
    25
100
AcDbCircle
 10
1.9184775369
 20
-10.6281579001
 30
0.0
 40
0.100000000000005
100
AcDbArc
 50
270.0
 51
0.0
  0
ARC
  5
2B1
330
1F
100
AcDbEntity
  8
0
  6
Continuous
 62
     7
370
    25
100
AcDbCircle
 10
1.9184775369
 20
-9.7182657199
 30
0.0
 40
0.1000000000000014
100
AcDbArc
 50
0.0
 51
90.0
  0
ARC
  5
2B2
330
1F
100
AcDbEntity
  8
0
  6
Continuous
 62
     7
370
    25
100
AcDbCircle
 10
1.6093460831
 20
-9.7182657199
 30
0.0
 40
0.1000000000012484
100
AcDbArc
 50
90.0
 51
95.6839225
  0
ARC
  5
2B3
330
1F
100
AcDbEntity
  8
0
  6
Continuous
 62
     7
370
    25
100
AcDbCircle
 10
1.35551181
 20
-9.67351181
 30
0.0
 40
0.2500000000000006
100
AcDbArc
 50
12.6513455597
 51
290.2498281845
  0
ARC
  5
2B4
330
1F
100
AcDbEntity
  8
0
  6
Continuous
 62
     7
370
    25
100
AcDbCircle
 10
1.4593460831
 20
-9.9549695222
 30
0.0
 40
0.0500000000000021
100
AcDbArc
 50
0.0
 51
110.2498281845
  0
ARC
  5
2B5
330
1F
100
AcDbEntity
  8
0
  6
Continuous
 62
     7
370
    25
100
AcDbCircle
 10
1.4906308824
 20
-0.611338445
 30
0.0
 40
0.0312499999999998
100
AcDbArc
 50
134.7488120841
 51
315.2511879159
  0
ARC
  5
2B6
330
1F
100
AcDbEntity
  8
0
  6
Continuous
 62
     7
370
    25
100
AcDbCircle
 10
1.6966308824
 20
-0.611338445
 30
0.0
 40
0.03125
100
AcDbArc
 50
224.7488120841
 51
45.2511879159
  0
ARC
  5
2B7
330
1F
100
AcDbEntity
  8
0
  6
Continuous
 62
     7
370
    25
100
AcDbCircle
 10
1.6966308824
 20
-0.458488055
 30
0.0
 40
0.03125
100
AcDbArc
 50
314.7488120841
 51
135.2511879159
  0
ARC
  5
2B8
330
1F
100
AcDbEntity
  8
0
  6
Continuous
 62
     7
370
    25
100
AcDbCircle
 10
1.4906308824
 20
-0.458488055
 30
0.0
 40
0.0312500000000003
100
AcDbArc
 50
44.7488120841
 51
225.2511879159
  0
ARC
  5
2B9
330
1F
100
AcDbEntity
  8
0
  6
Continuous
 62
     7
370
    25
100
AcDbCircle
 10
10.49568881
 20
-1.21466531
 30
0.0
 40
0.0625000000000022
100
AcDbArc
 50
90.0
 51
180.0
  0
ARC
  5
2BA
330
1F
100
AcDbEntity
  8
0
  6
Continuous
 62
     7
370
    25
100
AcDbCircle
 10
10.49568881
 20
-2.17236531
 30
0.0
 40
0.0625000000000058
100
AcDbArc
 50
180.0
 51
270.0
  0
ARC
  5
2BB
330
1F
100
AcDbEntity
  8
0
  6
Continuous
 62
     7
370
    25
100
AcDbCircle
 10
10.81068881
 20
-2.17236531
 30
0.0
 40
0.0625
100
AcDbArc
 50
270.0
 51
0.0
  0
ARC
  5
2BC
330
1F
100
AcDbEntity
  8
0
  6
Continuous
 62
     7
370
    25
100
AcDbCircle
 10
10.852535565
 20
-1.6966308824
 30
0.0
 40
0.0312500000000005
100
AcDbArc
 50
224.7488120841
 51
45.2511879159
  0
ARC
  5
2BD
330
1F
100
AcDbEntity
  8
0
  6
Continuous
 62
     7
370
    25
100
AcDbCircle
 10
10.852535565
 20
-1.4906308824
 30
0.0
 40
0.0312500000000019
100
AcDbArc
 50
314.7488120841
 51
135.2511879159
  0
ARC
  5
2BE
330
1F
100
AcDbEntity
  8
0
  6
Continuous
 62
     7
370
    25
100
AcDbCircle
 10
10.81068881
 20
-1.21466531
 30
0.0
 40
0.0625000000000018
100
AcDbArc
 50
0.0
 51
90.0
  0
ARC
  5
2BF
330
1F
100
AcDbEntity
  8
0
  6
Continuous
 62
     7
370
    25
100
AcDbCircle
 10
9.69601181
 20
-0.31706175
 30
0.0
 40
0.0312500000000028
100
AcDbArc
 50
224.7488120841
 51
45.2511879159
  0
ARC
  5
2C0
330
1F
100
AcDbEntity
  8
0
  6
Continuous
 62
     7
370
    25
100
AcDbCircle
 10
9.69601181
 20
-0.22106175
 30
0.0
 40
0.031250000000003
100
AcDbArc
 50
314.7488120841
 51
135.2511879159
  0
ARC
  5
2C1
330
1F
100
AcDbEntity
  8
0
  6
Continuous
 62
     7
370
    25
100
AcDbCircle
 10
1.61501181
 20
-0.22106175
 30
0.0
 40
0.0312500000000009
100
AcDbArc
 50
44.7488120841
 51
225.2511879159
  0
ARC
  5
2C2
330
1F
100
AcDbEntity
  8
0
  6
Continuous
 62
     7
370
    25
100
AcDbCircle
 10
1.61501181
 20
-0.31706175
 30
0.0
 40
0.0312500000000004
100
AcDbArc
 50
134.7488120841
 51
315.2511879159
  0
ARC
  5
2C3
330
1F
100
AcDbEntity
  8
0
  6
Continuous
 62
     7
370
    25
100
AcDbCircle
 10
9.69601181
 20
-10.99396187
 30
0.0
 40
0.0312499999999999
100
AcDbArc
 50
314.7488120841
 51
135.2511879159
  0
ARC
  5
2C4
330
1F
100
AcDbEntity
  8
0
  6
Continuous
 62
     7
370
    25
100
AcDbCircle
 10
1.61501181
 20
-10.99396187
 30
0.0
 40
0.0312500000000032
100
AcDbArc
 50
44.7488120841
 51
225.2511879159
  0
ARC
  5
2C5
330
1F
100
AcDbEntity
  8
0
  6
Continuous
 62
     7
370
    25
100
AcDbCircle
 10
1.61501181
 20
-11.08996187
 30
0.0
 40
0.0312500000000038
100
AcDbArc
 50
134.7488120841
 51
315.2511879159
  0
ARC
  5
2C6
330
1F
100
AcDbEntity
  8
0
  6
Continuous
 62
     7
370
    25
100
AcDbCircle
 10
9.69601181
 20
-11.08996187
 30
0.0
 40
0.0312500000000024
100
AcDbArc
 50
224.7488120841
 51
45.2511879159
  0
ARC
  5
2C7
330
1F
100
AcDbEntity
  8
0
  6
Continuous
 62
     7
370
    25
100
AcDbCircle
 10
10.39434581
 20
-6.07311181
 30
0.0
 40
0.0630000000000006
100
AcDbArc
 50
90.0
 51
180.0
  0
ARC
  5
2C8
330
1F
100
AcDbEntity
  8
0
  6
Continuous
 62
     7
370
    25
100
AcDbCircle
 10
10.39434581
 20
-7.47711181
 30
0.0
 40
0.0630000000000024
100
AcDbArc
 50
180.0
 51
270.0
  0
ARC
  5
2C9
330
1F
100
AcDbEntity
  8
0
  6
Continuous
 62
     7
370
    25
100
AcDbCircle
 10
10.92196187
 20
-7.59011181
 30
0.0
 40
0.0500000000000007
100
AcDbArc
 50
0.0
 51
90.0
  0
ARC
  5
2CA
330
1F
100
AcDbEntity
  8
0
  6
Continuous
 62
     7
370
    25
100
AcDbCircle
 10
10.8323725764
 20
-7.6781207932
 30
0.0
 40
0.0312500000000028
100
AcDbArc
 50
45.0
 51
225.0
  0
ARC
  5
2CB
330
1F
100
AcDbEntity
  8
0
  6
Continuous
 62
     7
370
    25
100
AcDbCircle
 10
10.8323725764
 20
-7.883926598
 30
0.0
 40
0.0312500000000059
100
AcDbArc
 50
135.0
 51
315.0
  0
ARC
  5
2CC
330
1F
100
AcDbEntity
  8
0
  6
Continuous
 62
     7
370
    25
100
AcDbCircle
 10
10.92196187
 20
-8.8767213709
 30
0.0
 40
0.0500000000000025
100
AcDbArc
 50
270.0
 51
360.0
  0
ARC
  5
2CD
330
1F
100
AcDbEntity
  8
0
  6
Continuous
 62
     7
370
    25
100
AcDbCircle
 10
10.5885959222
 20
-8.9897213709
 30
0.0
 40
0.0630000000000006
100
AcDbArc
 50
90.0
 51
180.0
  0
ARC
  5
2CE
330
1F
100
AcDbEntity
  8
0
  6
Continuous
 62
     7
370
    25
100
AcDbCircle
 10
10.5885959222
 20
-9.485432834
 30
0.0
 40
0.0630000000000042
100
AcDbArc
 50
180.0
 51
270.0
  0
ARC
  5
2CF
330
1F
100
AcDbEntity
  8
0
  6
Continuous
 62
     7
370
    25
100
AcDbCircle
 10
10.92196187
 20
-9.598432834
 30
0.0
 40
0.0500000000000007
100
AcDbArc
 50
0.0
 51
90.0
  0
ARC
  5
2D0
330
1F
100
AcDbEntity
  8
0
  6
Continuous
 62
     7
370
    25
100
AcDbCircle
 10
10.99396187
 20
-9.69601181
 30
0.0
 40
0.0312500000000037
100
AcDbArc
 50
134.7488120841
 51
315.2511879159
  0
ARC
  5
2D1
330
1F
100
AcDbEntity
  8
0
  6
Continuous
 62
     7
370
    25
100
AcDbCircle
 10
11.08996187
 20
-9.69601181
 30
0.0
 40
0.0312500000000011
100
AcDbArc
 50
224.7488120841
 51
45.2511879159
  0
ARC
  5
2D2
330
1F
100
AcDbEntity
  8
0
  6
Continuous
 62
     7
370
    25
100
AcDbCircle
 10
11.08996187
 20
-1.61501181
 30
0.0
 40
0.0312499999999999
100
AcDbArc
 50
314.7488120841
 51
135.2511879159
  0
ARC
  5
2D3
330
1F
100
AcDbEntity
  8
0
  6
Continuous
 62
     7
370
    25
100
AcDbCircle
 10
10.99396187
 20
-1.61501181
 30
0.0
 40
0.0312500000000029
100
AcDbArc
 50
44.7488120841
 51
225.2511879159
  0
ARC
  5
2D4
330
1F
100
AcDbEntity
  8
0
  6
Continuous
 62
     7
370
    25
100
AcDbCircle
 10
10.8323725764
 20
-3.4281207163
 30
0.0
 40
0.0312499999999965
100
AcDbArc
 50
45.0
 51
224.9999999999
  0
ARC
  5
2D5
330
1F
100
AcDbEntity
  8
0
  6
Continuous
 62
     7
370
    25
100
AcDbCircle
 10
10.8323725764
 20
-3.6339265211
 30
0.0
 40
0.0312500000000128
100
AcDbArc
 50
135.0000001296
 51
315.0000001297
  0
ARC
  5
2D6
330
1F
100
AcDbEntity
  8
0
  6
Continuous
 62
     7
370
    25
100
AcDbCircle
 10
10.92196187
 20
-5.96011181
 30
0.0
 40
0.0500000000000043
100
AcDbArc
 50
270.0
 51
360.0
  0
ARC
  5
2D7
330
1F
100
AcDbEntity
  8
0
  6
Continuous
 62
     7
370
    25
100
AcDbCircle
 10
0.6847681209
 20
-2.1031943765
 30
0.0
 40
0.0629999999999988
100
AcDbArc
 50
270.0
 51
0.0
  0
ARC
  5
2D8
330
1F
100
AcDbEntity
  8
0
  6
Continuous
 62
     7
370
    25
100
AcDbCircle
 10
0.5511811024
 20
-0.5511811024
 30
0.0
 40
0.3937007874015758
100
AcDbArc
 50
299.9557509654
 51
218.5438930591
  0
ARC
  5
2D9
330
1F
100
AcDbEntity
  8
0
  6
Continuous
 62
     7
370
    25
100
AcDbCircle
 10
0.22106175
 20
-1.61501181
 30
0.0
 40
0.031250000000002
100
AcDbArc
 50
44.7488120841
 51
225.2511879159
  0
ARC
  5
2DA
330
1F
100
AcDbEntity
  8
0
  6
Continuous
 62
     7
370
    25
100
AcDbCircle
 10
0.22106175
 20
-9.69601181
 30
0.0
 40
0.0312500000000018
100
AcDbArc
 50
134.7488120841
 51
315.2511879159
  0
ARC
  5
2DB
330
1F
100
AcDbEntity
  8
0
  6
Continuous
 62
     7
370
    25
100
AcDbCircle
 10
0.31706175
 20
-9.69601181
 30
0.0
 40
0.0312500000000015
100
AcDbArc
 50
224.7488120841
 51
45.2511879159
  0
ARC
  5
2DC
330
1F
100
AcDbEntity
  8
0
  6
Continuous
 62
     7
370
    25
100
AcDbCircle
 10
0.4786510457
 20
-7.883926598
 30
0.0
 40
0.0312500000000041
100
AcDbArc
 50
225.0
 51
45.0
  0
ARC
  5
2DD
330
1F
100
AcDbEntity
  8
0
  6
Continuous
 62
     7
370
    25
100
AcDbCircle
 10
0.4786510457
 20
-7.6781207932
 30
0.0
 40
0.031250000000002
100
AcDbArc
 50
315.0
 51
135.0
  0
ARC
  5
2DE
330
1F
100
AcDbEntity
  8
0
  6
Continuous
 62
     7
370
    25
100
AcDbCircle
 10
0.38906175
 20
-7.0823908013
 30
0.0
 40
0.0499999999999997
100
AcDbArc
 50
31.5296916614
 51
180.0
  0
ARC
  5
2DF
330
1F
100
AcDbEntity
  8
0
  6
Continuous
 62
     7
370
    25
100
AcDbCircle
 10
1.07053781
 20
-6.66429581
 30
0.0
 40
0.7495080000000057
100
AcDbArc
 50
211.5296916614
 51
242.7234333233
  0
ARC
  5
2E0
330
1F
100
AcDbEntity
  8
0
  6
Continuous
 62
     7
370
    25
100
AcDbCircle
 10
0.7041344213
 20
-7.3749023107
 30
0.0
 40
0.05
100
AcDbArc
 50
345.0
 51
62.7234333233
  0
ARC
  5
2E1
330
1F
100
AcDbEntity
  8
0
  6
Continuous
 62
     7
370
    25
100
AcDbCircle
 10
0.7470140036
 20
-7.8717030929
 30
0.0
 40
0.1200000000000001
100
AcDbArc
 50
165.0
 51
345.0
  0
ARC
  5
2E2
330
1F
100
AcDbEntity
  8
0
  6
Continuous
 62
     7
370
    25
100
AcDbCircle
 10
1.0325492023
 20
-7.462900786
 30
0.0
 40
0.05
100
AcDbArc
 50
87.2765666767
 51
165.0
  0
ARC
  5
2E3
330
1F
100
AcDbEntity
  8
0
  6
Continuous
 62
     7
370
    25
100
AcDbCircle
 10
1.07053781
 20
-6.66429581
 30
0.0
 40
0.7495079999999985
100
AcDbArc
 50
267.2765666767
 51
62.7234333233
  0
ARC
  5
2E4
330
1F
100
AcDbEntity
  8
0
  6
Continuous
 62
     7
370
    25
100
AcDbCircle
 10
1.4369411987
 20
-5.9536893093
 30
0.0
 40
0.0499999999999959
100
AcDbArc
 50
165.0
 51
242.7234333233
  0
ARC
  5
2E5
330
1F
100
AcDbEntity
  8
0
  6
Continuous
 62
     7
370
    25
100
AcDbCircle
 10
1.3940616164
 20
-5.4568885271
 30
0.0
 40
0.1200000000000004
100
AcDbArc
 50
345.0
 51
165.0
  0
ARC
  5
2E6
330
1F
100
AcDbEntity
  8
0
  6
Continuous
 62
     7
370
    25
100
AcDbCircle
 10
1.1085264177
 20
-5.865690834
 30
0.0
 40
0.0500000000000001
100
AcDbArc
 50
267.2765666767
 51
345.0
  0
ARC
  5
2E7
330
1F
100
AcDbEntity
  8
0
  6
Continuous
 62
     7
370
    25
100
AcDbCircle
 10
1.07053781
 20
-6.66429581
 30
0.0
 40
0.7495079999999992
100
AcDbArc
 50
87.2765666767
 51
148.4703083387
  0
ARC
  5
2E8
330
1F
100
AcDbEntity
  8
0
  6
Continuous
 62
     7
370
    25
100
AcDbCircle
 10
0.38906175
 20
-6.2462008187
 30
0.0
 40
0.0500000000000005
100
AcDbArc
 50
180.0
 51
328.4703083387
  0
ARC
  5
2E9
330
1F
100
AcDbEntity
  8
0
  6
Continuous
 62
     7
370
    25
100
AcDbCircle
 10
0.38906175
 20
-5.42551181
 30
0.0
 40
0.05
100
AcDbArc
 50
90.0
 51
180.0
  0
ARC
  5
2EA
330
1F
100
AcDbEntity
  8
0
  6
Continuous
 62
     7
370
    25
100
AcDbCircle
 10
0.4741990484
 20
-5.31251181
 30
0.0
 40
0.0630000000000015
100
AcDbArc
 50
270.0
 51
0.0
  0
ARC
  5
2EB
330
1F
100
AcDbEntity
  8
0
  6
Continuous
 62
     7
370
    25
100
AcDbCircle
 10
0.4741990484
 20
-4.12851181
 30
0.0
 40
0.0629999999999989
100
AcDbArc
 50
0.0
 51
90.0
  0
ARC
  5
2EC
330
1F
100
AcDbEntity
  8
0
  6
Continuous
 62
     7
370
    25
100
AcDbCircle
 10
0.38906175
 20
-4.01551181
 30
0.0
 40
0.05
100
AcDbArc
 50
180.0
 51
270.0
  0
ARC
  5
2ED
330
1F
100
AcDbEntity
  8
0
  6
Continuous
 62
     7
370
    25
100
AcDbCircle
 10
0.4786510456
 20
-3.6339265211
 30
0.0
 40
0.0312500000000134
100
AcDbArc
 50
224.9999998703
 51
44.9999998704
  0
ARC
  5
2EE
330
1F
100
AcDbEntity
  8
0
  6
Continuous
 62
     7
370
    25
100
AcDbCircle
 10
0.4786510457
 20
-3.4281207163
 30
0.0
 40
0.0312499999999946
100
AcDbArc
 50
315.0000000001
 51
135.0
  0
ARC
  5
2EF
330
1F
100
AcDbEntity
  8
0
  6
Continuous
 62
     7
370
    25
100
AcDbCircle
 10
0.38906175
 20
-2.2161943765
 30
0.0
 40
0.0499999999999998
100
AcDbArc
 50
90.0
 51
180.0
  0
ARC
  5
2F0
330
1F
100
AcDbEntity
  8
0
  6
Continuous
 62
     7
370
    25
100
AcDbCircle
 10
9.19851181
 20
-0.46851181
 30
0.0
 40
0.0630000000000024
100
AcDbArc
 50
90.0
 51
180.0
  0
ARC
  5
2F1
330
1F
100
AcDbEntity
  8
0
  6
Continuous
 62
     7
370
    25
100
AcDbCircle
 10
9.19851181
 20
-1.00751181
 30
0.0
 40
0.0630000000000006
100
AcDbArc
 50
180.0
 51
270.0
  0
ARC
  5
2F2
330
1F
100
AcDbEntity
  8
0
  6
Continuous
 62
     7
370
    25
100
AcDbCircle
 10
10.39751181
 20
-1.00751181
 30
0.0
 40
0.0630000000000024
100
AcDbArc
 50
270.0
 51
0.0
  0
ARC
  5
2F3
330
1F
100
AcDbEntity
  8
0
  6
Continuous
 62
     7
370
    25
100
AcDbCircle
 10
10.51051181
 20
-0.9182023374
 30
0.0
 40
0.0500000000000007
100
AcDbArc
 50
55.8103241565
 51
180.0
  0
ARC
  5
2F4
330
1F
100
AcDbEntity
  8
0
  6
Continuous
 62
     7
370
    25
100
AcDbCircle
 10
10.7598425176
 20
-0.5511811024
 30
0.0
 40
0.3937007874015752
100
AcDbArc
 50
235.8103241565
 51
153.8326938779
  0
ARC
  5
2F5
330
1F
100
AcDbEntity
  8
0
  6
Continuous
 62
     7
370
    25
100
AcDbCircle
 10
10.3616165557
 20
-0.35551181
 30
0.0
 40
0.0500000000000035
100
AcDbArc
 50
270.0
 51
333.8326938779
  0
ARC
  5
2F6
330
1F
100
AcDbEntity
  8
0
  6
Continuous
 62
     7
370
    25
100
AcDbCircle
 10
2.528275914
 20
-2.4104369484
 30
0.0
 40
0.0500000000000012
100
AcDbArc
 50
45.0
 51
119.1588372839
  0
ARC
  5
2F7
330
1F
100
AcDbEntity
  8
0
  6
Continuous
 62
     7
370
    25
100
AcDbCircle
 10
2.742545278
 20
-2.412574278
 30
0.0
 40
0.1000000000000007
100
AcDbArc
 50
225.0
 51
45.0
  0
ARC
  5
2F8
330
1F
100
AcDbEntity
  8
0
  6
Continuous
 62
     7
370
    25
100
AcDbCircle
 10
2.7404079484
 20
-2.198304914
 30
0.0
 40
0.049999999999998
100
AcDbArc
 50
150.8411627161
 51
225.0
  0
ARC
  5
2F9
330
1F
100
AcDbEntity
  8
0
  6
Continuous
 62
     7
370
    25
100
AcDbCircle
 10
2.26053781
 20
-1.93056681
 30
0.0
 40
0.4995080000000009
100
AcDbArc
 50
330.8411627161
 51
119.1588372839
  0
ARC
  5
2FA
330
1F
100
AcDbEntity
  8
0
  6
Continuous
 62
     7
370
    25
100
AcDbCircle
 10
1.992799706
 20
-1.4506966716
 30
0.0
 40
0.0500000000000023
100
AcDbArc
 50
225.0
 51
299.1588372839
  0
ARC
  5
2FB
330
1F
100
AcDbEntity
  8
0
  6
Continuous
 62
     7
370
    25
100
AcDbCircle
 10
1.778530342
 20
-1.448559342
 30
0.0
 40
0.1000000000000004
100
AcDbArc
 50
45.0
 51
225.0
  0
ARC
  5
2FC
330
1F
100
AcDbEntity
  8
0
  6
Continuous
 62
     7
370
    25
100
AcDbCircle
 10
1.7806676716
 20
-1.662828706
 30
0.0
 40
0.049999999999997
100
AcDbArc
 50
330.8411627161
 51
45.0
  0
ARC
  5
2FD
330
1F
100
AcDbEntity
  8
0
  6
Continuous
 62
     7
370
    25
100
AcDbCircle
 10
2.26053781
 20
-1.93056681
 30
0.0
 40
0.4995080000000013
100
AcDbArc
 50
150.8411627161
 51
299.1588372839
  0
ARC
  5
2FE
330
1F
100
AcDbEntity
  8
0
  6
Continuous
 62
     7
370
    25
100
AcDbCircle
 10
8.963424953
 20
-8.2091732956
 30
0.0
 40
0.248100381188852
100
AcDbArc
 50
270.0
 51
0.0
  0
ARC
  5
2FF
330
1F
100
AcDbEntity
  8
0
  6
Continuous
 62
     7
370
    25
100
AcDbCircle
 10
8.7665744986
 20
-3.287913454
 30
0.0
 40
0.444950835598938
100
AcDbArc
 50
0.0
 51
90.0
  0
ARC
  5
300
330
1F
100
AcDbEntity
  8
0
  6
Continuous
 62
     7
370
    25
100
AcDbCircle
 10
2.5461021256
 20
-3.287913454
 30
0.0
 40
0.4449508355989389
100
AcDbArc
 50
90.0
 51
180.0
  0
ARC
  5
301
330
1F
100
AcDbEntity
  8
0
  6
Continuous
 62
     7
370
    25
100
AcDbCircle
 10
1.59855081
 20
-8.24603181
 30
0.0
 40
0.0629999999999997
100
AcDbArc
 50
90.0
 51
180.0
  0
ARC
  5
302
330
1F
100
AcDbEntity
  8
0
  6
Continuous
 62
     7
370
    25
100
AcDbCircle
 10
1.59855081
 20
-9.04499181
 30
0.0
 40
0.0629999999999988
100
AcDbArc
 50
180.0
 51
270.0
  0
ARC
  5
303
330
1F
100
AcDbEntity
  8
0
  6
Continuous
 62
     7
370
    25
100
AcDbCircle
 10
2.47924381
 20
-9.04499181
 30
0.0
 40
0.0630000000000006
100
AcDbArc
 50
270.0
 51
0.0
  0
ARC
  5
304
330
1F
100
AcDbEntity
  8
0
  6
Continuous
 62
     7
370
    25
100
AcDbCircle
 10
2.0286513533
 20
-7.883926598
 30
0.0
 40
0.0312499999999984
100
AcDbArc
 50
225.0
 51
45.0
  0
ARC
  5
305
330
1F
100
AcDbEntity
  8
0
  6
Continuous
 62
     7
370
    25
100
AcDbCircle
 10
2.0286513533
 20
-7.6781207932
 30
0.0
 40
0.0312499999999993
100
AcDbArc
 50
315.0
 51
135.0
  0
ARC
  5
306
330
1F
100
AcDbEntity
  8
0
  6
Continuous
 62
     7
370
    25
100
AcDbCircle
 10
1.8228454018
 20
-7.6781207932
 30
0.0
 40
0.0312500000000114
100
AcDbArc
 50
44.9999999999
 51
224.9999999999
  0
ARC
  5
307
330
1F
100
AcDbEntity
  8
0
  6
Continuous
 62
     7
370
    25
100
AcDbCircle
 10
1.8228454018
 20
-7.883926598
 30
0.0
 40
0.0312500000000172
100
AcDbArc
 50
135.0
 51
315.0
  0
ARC
  5
308
330
1F
100
AcDbEntity
  8
0
  6
Continuous
 62
     7
370
    25
100
AcDbCircle
 10
9.2823722688
 20
-7.6781207932
 30
0.0
 40
0.031249999999999
100
AcDbArc
 50
45.0
 51
225.0
  0
ARC
  5
309
330
1F
100
AcDbEntity
  8
0
  6
Continuous
 62
     7
370
    25
100
AcDbCircle
 10
9.2823722688
 20
-7.883926598
 30
0.0
 40
0.0312499999999984
100
AcDbArc
 50
135.0
 51
315.0
  0
ARC
  5
30A
330
1F
100
AcDbEntity
  8
0
  6
Continuous
 62
     7
370
    25
100
AcDbCircle
 10
9.4881782203
 20
-7.883926598
 30
0.0
 40
0.031250000000016
100
AcDbArc
 50
225.0
 51
45.0
  0
ARC
  5
30B
330
1F
100
AcDbEntity
  8
0
  6
Continuous
 62
     7
370
    25
100
AcDbCircle
 10
9.4881782203
 20
-7.6781207932
 30
0.0
 40
0.0312500000000109
100
AcDbArc
 50
315.0000000001
 51
135.0000000001
  0
ARC
  5
30C
330
1F
100
AcDbEntity
  8
0
  6
Continuous
 62
     7
370
    25
100
AcDbCircle
 10
9.2823722688
 20
-3.4281207162
 30
0.0
 40
0.0312499999999987
100
AcDbArc
 50
44.9999999352
 51
224.9999999352
  0
ARC
  5
30D
330
1F
100
AcDbEntity
  8
0
  6
Continuous
 62
     7
370
    25
100
AcDbCircle
 10
9.2823722688
 20
-3.6339265211
 30
0.0
 40
0.0312500000000116
100
AcDbArc
 50
135.0000000648
 51
315.0000000648
  0
ARC
  5
30E
330
1F
100
AcDbEntity
  8
0
  6
Continuous
 62
     7
370
    25
100
AcDbCircle
 10
9.4881782202
 20
-3.6339265211
 30
0.0
 40
0.0312500000000109
100
AcDbArc
 50
224.9999999352
 51
44.9999999352
  0
ARC
  5
30F
330
1F
100
AcDbEntity
  8
0
  6
Continuous
 62
     7
370
    25
100
AcDbCircle
 10
9.4881782202
 20
-3.4281207162
 30
0.0
 40
0.0312499999999981
100
AcDbArc
 50
315.0000000649
 51
135.0000000648
  0
ARC
  5
310
330
1F
100
AcDbEntity
  8
0
  6
Continuous
 62
     7
370
    25
100
AcDbCircle
 10
2.0286513532
 20
-3.6339265211
 30
0.0
 40
0.0312500000000103
100
AcDbArc
 50
224.9999999352
 51
44.9999999352
  0
ARC
  5
311
330
1F
100
AcDbEntity
  8
0
  6
Continuous
 62
     7
370
    25
100
AcDbCircle
 10
2.0286513532
 20
-3.4281207162
 30
0.0
 40
0.0312499999999977
100
AcDbArc
 50
315.0000000648
 51
135.0000000648
  0
ARC
  5
312
330
1F
100
AcDbEntity
  8
0
  6
Continuous
 62
     7
370
    25
100
AcDbCircle
 10
1.8228454018
 20
-3.4281207162
 30
0.0
 40
0.0312499999999985
100
AcDbArc
 50
44.9999999352
 51
224.9999999351
  0
ARC
  5
313
330
1F
100
AcDbEntity
  8
0
  6
Continuous
 62
     7
370
    25
100
AcDbCircle
 10
1.8228454018
 20
-3.6339265211
 30
0.0
 40
0.0312500000000111
100
AcDbArc
 50
135.0000000648
 51
315.0000000648
  0
ARC
  5
314
330
1F
100
AcDbEntity
  8
0
  6
Continuous
 62
     7
370
    25
100
AcDbCircle
 10
5.95511181
 20
-1.24281181
 30
0.0
 40
0.0630000000000015
100
AcDbArc
 50
0.0
 51
90.0
  0
ARC
  5
315
330
1F
100
AcDbEntity
  8
0
  6
Continuous
 62
     7
370
    25
100
AcDbCircle
 10
5.18111181
 20
-1.24281181
 30
0.0
 40
0.0629999999999979
100
AcDbArc
 50
90.0
 51
180.0
  0
ARC
  5
316
330
1F
100
AcDbEntity
  8
0
  6
Continuous
 62
     7
370
    25
100
AcDbCircle
 10
5.18111181
 20
-2.66681181
 30
0.0
 40
0.0630000000000006
100
AcDbArc
 50
180.0
 51
270.0
  0
ARC
  5
317
330
1F
100
AcDbEntity
  8
0
  6
Continuous
 62
     7
370
    25
100
AcDbCircle
 10
5.95511181
 20
-2.66681181
 30
0.0
 40
0.0629999999999997
100
AcDbArc
 50
270.0
 51
0.0
  0
ARC
  5
318
330
1F
100
AcDbEntity
  8
0
  6
Continuous
 62
     7
370
    25
100
AcDbCircle
 10
5.874362205
 20
0.022
 30
0.0
 40
0.0312499999999999
100
AcDbArc
 50
134.7488120841
 51
315.2511879159
  0
ARC
  5
319
330
1F
100
AcDbEntity
  8
0
  6
Continuous
 62
     7
370
    25
100
AcDbCircle
 10
9.1768188953
 20
0.022
 30
0.0
 40
0.0312500000000001
100
AcDbArc
 50
224.7488120841
 51
45.2511879159
  0
ARC
  5
31A
330
1F
100
AcDbEntity
  8
0
  6
Continuous
 62
     7
370
    25
100
AcDbCircle
 10
9.6145196853
 20
0.022
 30
0.0
 40
0.0312499999999993
100
AcDbArc
 50
134.7488120841
 51
315.2511879159
  0
ARC
  5
31B
330
1F
100
AcDbEntity
  8
0
  6
Continuous
 62
     7
370
    25
100
AcDbCircle
 10
1.6965039347
 20
0.022
 30
0.0
 40
0.0312499999999992
100
AcDbArc
 50
224.7488120841
 51
45.2511879159
  0
ARC
  5
31C
330
1F
100
AcDbEntity
  8
0
  6
Continuous
 62
     7
370
    25
100
AcDbCircle
 10
2.1342047247
 20
0.022
 30
0.0
 40
0.0312499999999993
100
AcDbArc
 50
134.7488120841
 51
315.251187916
  0
ARC
  5
31D
330
1F
100
AcDbEntity
  8
0
  6
Continuous
 62
     7
370
    25
100
AcDbCircle
 10
11.33302362
 20
-9.1768188953
 30
0.0
 40
0.0312499999999998
100
AcDbArc
 50
134.7488120841
 51
315.2511879159
  0
ARC
  5
31E
330
1F
100
AcDbEntity
  8
0
  6
Continuous
 62
     7
370
    25
100
AcDbCircle
 10
5.874362205
 20
-11.33302362
 30
0.0
 40
0.0312500000000011
100
AcDbArc
 50
44.7488120841
 51
225.2511879159
  0
ARC
  5
31F
330
1F
100
AcDbEntity
  8
0
  6
Continuous
 62
     7
370
    25
100
AcDbCircle
 10
5.436661415
 20
-11.33302362
 30
0.0
 40
0.0312499999999999
100
AcDbArc
 50
314.7488120841
 51
135.2511879159
  0
ARC
  5
320
330
1F
100
AcDbEntity
  8
0
  6
Continuous
 62
     7
370
    25
100
AcDbCircle
 10
2.1342047247
 20
-11.33302362
 30
0.0
 40
0.0312499999999993
100
AcDbArc
 50
44.7488120842
 51
225.2511879159
  0
ARC
  5
321
330
1F
100
AcDbEntity
  8
0
  6
Continuous
 62
     7
370
    25
100
AcDbCircle
 10
1.6965039347
 20
-11.33302362
 30
0.0
 40
0.03125
100
AcDbArc
 50
314.7488120841
 51
135.2511879158
  0
ARC
  5
322
330
1F
100
AcDbEntity
  8
0
  6
Continuous
 62
     7
370
    25
100
AcDbCircle
 10
9.6145196853
 20
-11.33302362
 30
0.0
 40
0.0312500000000011
100
AcDbArc
 50
44.748812084
 51
225.2511879159
  0
ARC
  5
323
330
1F
100
AcDbEntity
  8
0
  6
Continuous
 62
     7
370
    25
100
AcDbCircle
 10
9.1768188953
 20
-11.33302362
 30
0.0
 40
0.0312500000000026
100
AcDbArc
 50
314.7488120841
 51
135.251187916
  0
ARC
  5
324
330
1F
100
AcDbEntity
  8
0
  6
Continuous
 62
     7
370
    25
100
AcDbCircle
 10
2.3492516712
 20
-8.2091732956
 30
0.0
 40
0.2481003811888467
100
AcDbArc
 50
180.0
 51
270.0
  0
ARC
  5
325
330
1F
100
AcDbEntity
  8
0
  6
Continuous
 62
     7
370
    25
100
AcDbCircle
 10
0.31706175
 20
-1.61501181
 30
0.0
 40
0.0312500000000028
100
AcDbArc
 50
314.7488120841
 51
135.2511879159
  0
ARC
  5
326
330
1F
100
AcDbEntity
  8
0
  6
Continuous
 62
     7
370
    25
100
AcDbCircle
 10
0.611338445
 20
-1.6966308824
 30
0.0
 40
0.0312500000000001
100
AcDbArc
 50
224.7488120841
 51
45.2511879159
  0
ARC
  5
327
330
1F
100
AcDbEntity
  8
0
  6
Continuous
 62
     7
370
    25
100
AcDbCircle
 10
0.611338445
 20
-1.4906308824
 30
0.0
 40
0.03125
100
AcDbArc
 50
314.7488120841
 51
135.2511879159
  0
ARC
  5
328
330
1F
100
AcDbEntity
  8
0
  6
Continuous
 62
     7
370
    25
100
AcDbCircle
 10
0.458488055
 20
-1.4906308824
 30
0.0
 40
0.03125
100
AcDbArc
 50
44.7488120841
 51
225.2511879159
  0
ARC
  5
329
330
1F
100
AcDbEntity
  8
0
  6
Continuous
 62
     7
370
    25
100
AcDbCircle
 10
0.458488055
 20
-1.6966308824
 30
0.0
 40
0.0312499999999997
100
AcDbArc
 50
134.7488120841
 51
315.2511879159
  0
ARC
  5
32A
330
1F
100
AcDbEntity
  8
0
  6
Continuous
 62
     7
370
    25
100
AcDbCircle
 10
9.6143927376
 20
-0.458488055
 30
0.0
 40
0.0312499999999996
100
AcDbArc
 50
44.7488120841
 51
225.2511879159
  0
ARC
  5
32B
330
1F
100
AcDbEntity
  8
0
  6
Continuous
 62
     7
370
    25
100
AcDbCircle
 10
9.6143927376
 20
-0.611338445
 30
0.0
 40
0.0312499999999999
100
AcDbArc
 50
134.7488120841
 51
315.2511879159
  0
ARC
  5
32C
330
1F
100
AcDbEntity
  8
0
  6
Continuous
 62
     7
370
    25
100
AcDbCircle
 10
9.8203927376
 20
-0.611338445
 30
0.0
 40
0.0312500000000017
100
AcDbArc
 50
224.7488120841
 51
45.2511879159
  0
ARC
  5
32D
330
1F
100
AcDbEntity
  8
0
  6
Continuous
 62
     7
370
    25
100
AcDbCircle
 10
9.8203927376
 20
-0.458488055
 30
0.0
 40
0.0312500000000007
100
AcDbArc
 50
314.7488120841
 51
135.2511879159
  0
ARC
  5
32E
330
1F
100
AcDbEntity
  8
0
  6
Continuous
 62
     7
370
    25
100
AcDbCircle
 10
10.699685175
 20
-1.4906308824
 30
0.0
 40
0.0312500000000017
100
AcDbArc
 50
44.7488120841
 51
225.2511879159
  0
ARC
  5
32F
330
1F
100
AcDbEntity
  8
0
  6
Continuous
 62
     7
370
    25
100
AcDbCircle
 10
10.699685175
 20
-1.6966308824
 30
0.0
 40
0.0312500000000016
100
AcDbArc
 50
134.7488120841
 51
315.2511879159
  0
ARC
  5
330
330
1F
100
AcDbEntity
  8
0
  6
Continuous
 62
     7
370
    25
100
AcDbCircle
 10
1.6966308824
 20
-10.699685175
 30
0.0
 40
0.03125
100
AcDbArc
 50
314.7488120841
 51
135.2511879159
  0
ENDSEC
  0
SECTION
  2
OBJECTS
  0
DICTIONARY
  5
C
330
0
100
AcDbDictionary
281
     1
  3
ACAD_GROUP
350
D
  3
ACAD_LAYOUT
350
1A
  3
ACAD_MLINESTYLE
350
17
  3
ACAD_PLOTSETTINGS
350
19
  3
ACAD_PLOTSTYLENAME
350
E
  3
ACAD_SCALELIST
350
47
  0
DICTIONARY
  5
D
102
{ACAD_REACTORS
330
C
102
}
330
C
100
AcDbDictionary
281
     1
  0
DICTIONARY
  5
1A
102
{ACAD_REACTORS
330
C
102
}
330
C
100
AcDbDictionary
281
     1
  3
Layout1
350
1E
  3
Layout2
350
26
  3
Model
350
22
  0
DICTIONARY
  5
17
102
{ACAD_REACTORS
330
C
102
}
330
C
100
AcDbDictionary
281
     1
  3
Standard
350
18
  0
DICTIONARY
  5
19
102
{ACAD_REACTORS
330
C
102
}
330
C
100
AcDbDictionary
281
     1
  0
ACDBDICTIONARYWDFLT
  5
E
102
{ACAD_REACTORS
330
C
102
}
330
C
100
AcDbDictionary
281
     1
  3
Normal
350
F
100
AcDbDictionaryWithDefault
340
F
  0
DICTIONARY
  5
47
102
{ACAD_REACTORS
330
C
102
}
330
C
100
AcDbDictionary
281
     1
  3
A0
350
48
  3
A1
350
49
  3
A2
350
4A
  3
A3
350
4B
  3
A4
350
4C
  3
A5
350
4D
  3
A6
350
4E
  3
A7
350
4F
  3
A8
350
50
  3
A9
350
51
  3
B0
350
52
  3
B1
350
53
  3
B2
350
54
  3
B3
350
55
  3
B4
350
56
  3
B5
350
57
  3
B6
350
58
  3
B7
350
59
  3
B8
350
5A
  3
B9
350
5B
  3
C0
350
5C
  3
C1
350
5D
  3
C2
350
5E
  3
C3
350
5F
  3
C4
350
60
  3
C5
350
61
  3
C6
350
62
  3
C7
350
63
  3
C8
350
64
  3
C9
350
65
  3
D0
350
66
  3
D1
350
67
  3
D2
350
68
  0
LAYOUT
  5
1E
102
{ACAD_REACTORS
330
1A
102
}
330
1A
100
AcDbPlotSettings
  1

  2
none_device
  4

  6

 40
0.0
 41
0.0
 42
0.0
 43
0.0
 44
0.0
 45
0.0
 46
0.0
 47
0.0
 48
0.0
 49
0.0
140
0.0
141
0.0
142
1.0
143
1.0
 70
   688
 72
     0
 73
     0
 74
     5
  7

 75
    16
147
1.0
148
0.0
149
0.0
100
AcDbLayout
  1
Layout1
 70
     1
 71
     1
 10
0.0
 20
0.0
 11
12.0
 21
9.0
 12
0.0
 22
0.0
 32
0.0
 14
1.0000000000E+20
 24
1.0000000000E+20
 34
1.0000000000E+20
 15
-1.0000000000E+20
 25
-1.0000000000E+20
 35
-1.0000000000E+20
146
0.0
 13
0.0
 23
0.0
 33
0.0
 16
1.0
 26
0.0
 36
0.0
 17
0.0
 27
1.0
 37
0.0
 76
     0
330
1B
  0
LAYOUT
  5
26
102
{ACAD_REACTORS
330
1A
102
}
330
1A
100
AcDbPlotSettings
  1

  2
none_device
  4

  6

 40
0.0
 41
0.0
 42
0.0
 43
0.0
 44
0.0
 45
0.0
 46
0.0
 47
0.0
 48
0.0
 49
0.0
140
0.0
141
0.0
142
1.0
143
1.0
 70
   688
 72
     0
 73
     0
 74
     5
  7

 75
    16
147
1.0
148
0.0
149
0.0
100
AcDbLayout
  1
Layout2
 70
     1
 71
     2
 10
0.0
 20
0.0
 11
0.0
 21
0.0
 12
0.0
 22
0.0
 32
0.0
 14
0.0
 24
0.0
 34
0.0
 15
0.0
 25
0.0
 35
0.0
146
0.0
 13
0.0
 23
0.0
 33
0.0
 16
1.0
 26
0.0
 36
0.0
 17
0.0
 27
1.0
 37
0.0
 76
     0
330
23
  0
LAYOUT
  5
22
102
{ACAD_REACTORS
330
1A
102
}
330
1A
100
AcDbPlotSettings
  1

  2
none_device
  4
ANSI_A_(11.00_x_8.50_Inches)
  6

 40
6.35
 41
19.05
 42
6.35000508
 43
19.05000254
 44
279.4
 45
215.9
 46
31.0036819608
 47
191.2463142292
 48
0.0
 49
0.0
140
0.0
141
0.0
142
0.7124700001
143
1.0
 70
  1696
 72
     0
 73
     0
 74
     0
  7

 75
     0
147
0.5913241897
148
-39.4088153714
149
0.0
100
AcDbLayout
  1
Model
 70
     1
 71
     0
 10
0.0
 20
0.0
 11
12.0
 21
9.0
 12
0.0
 22
0.0
 32
0.0
 14
-0.25
 24
-11.56102362
 34
0.0
 15
11.56102362
 25
0.25
 35
0.0
146
0.0
 13
0.0
 23
0.0
 33
0.0
 16
1.0
 26
0.0
 36
0.0
 17
0.0
 27
1.0
 37
0.0
 76
     0
330
1F
331
29
  0
MLINESTYLE
  5
18
102
{ACAD_REACTORS
330
17
102
}
330
17
100
AcDbMlineStyle
  2
Standard
 70
     0
  3

 62
   256
 51
90.0
 52
90.0
 71
     2
 49
0.5
 62
   256
  6
BYLAYER
 49
-0.5
 62
   256
  6
BYLAYER
  0
ACDBPLACEHOLDER
  5
F
102
{ACAD_REACTORS
330
E
102
}
330
E
  0
SCALE
  5
48
102
{ACAD_REACTORS
330
47
102
}
330
47
100
AcDbScale
 70
     0
300
1:1
140
1.0
141
1.0
290
     1
  0
SCALE
  5
49
102
{ACAD_REACTORS
330
47
102
}
330
47
100
AcDbScale
 70
     0
300
1:2
140
1.0
141
2.0
290
     0
  0
SCALE
  5
4A
102
{ACAD_REACTORS
330
47
102
}
330
47
100
AcDbScale
 70
     0
300
1:4
140
1.0
141
4.0
290
     0
  0
SCALE
  5
4B
102
{ACAD_REACTORS
330
47
102
}
330
47
100
AcDbScale
 70
     0
300
1:5
140
1.0
141
5.0
290
     0
  0
SCALE
  5
4C
102
{ACAD_REACTORS
330
47
102
}
330
47
100
AcDbScale
 70
     0
300
1:8
140
1.0
141
8.0
290
     0
  0
SCALE
  5
4D
102
{ACAD_REACTORS
330
47
102
}
330
47
100
AcDbScale
 70
     0
300
1:10
140
1.0
141
10.0
290
     0
  0
SCALE
  5
4E
102
{ACAD_REACTORS
330
47
102
}
330
47
100
AcDbScale
 70
     0
300
1:16
140
1.0
141
16.0
290
     0
  0
SCALE
  5
4F
102
{ACAD_REACTORS
330
47
102
}
330
47
100
AcDbScale
 70
     0
300
1:20
140
1.0
141
20.0
290
     0
  0
SCALE
  5
50
102
{ACAD_REACTORS
330
47
102
}
330
47
100
AcDbScale
 70
     0
300
1:30
140
1.0
141
30.0
290
     0
  0
SCALE
  5
51
102
{ACAD_REACTORS
330
47
102
}
330
47
100
AcDbScale
 70
     0
300
1:40
140
1.0
141
40.0
290
     0
  0
SCALE
  5
52
102
{ACAD_REACTORS
330
47
102
}
330
47
100
AcDbScale
 70
     0
300
1:50
140
1.0
141
50.0
290
     0
  0
SCALE
  5
53
102
{ACAD_REACTORS
330
47
102
}
330
47
100
AcDbScale
 70
     0
300
1:100
140
1.0
141
100.0
290
     0
  0
SCALE
  5
54
102
{ACAD_REACTORS
330
47
102
}
330
47
100
AcDbScale
 70
     0
300
2:1
140
2.0
141
1.0
290
     0
  0
SCALE
  5
55
102
{ACAD_REACTORS
330
47
102
}
330
47
100
AcDbScale
 70
     0
300
4:1
140
4.0
141
1.0
290
     0
  0
SCALE
  5
56
102
{ACAD_REACTORS
330
47
102
}
330
47
100
AcDbScale
 70
     0
300
8:1
140
8.0
141
1.0
290
     0
  0
SCALE
  5
57
102
{ACAD_REACTORS
330
47
102
}
330
47
100
AcDbScale
 70
     0
300
10:1
140
10.0
141
1.0
290
     0
  0
SCALE
  5
58
102
{ACAD_REACTORS
330
47
102
}
330
47
100
AcDbScale
 70
     0
300
100:1
140
100.0
141
1.0
290
     0
  0
SCALE
  5
59
102
{ACAD_REACTORS
330
47
102
}
330
47
100
AcDbScale
 70
     0
300
1/128" = 1'-0"
140
0.0078125
141
12.0
290
     0
  0
SCALE
  5
5A
102
{ACAD_REACTORS
330
47
102
}
330
47
100
AcDbScale
 70
     0
300
1/64" = 1'-0"
140
0.015625
141
12.0
290
     0
  0
SCALE
  5
5B
102
{ACAD_REACTORS
330
47
102
}
330
47
100
AcDbScale
 70
     0
300
1/32" = 1'-0"
140
0.03125
141
12.0
290
     0
  0
SCALE
  5
5C
102
{ACAD_REACTORS
330
47
102
}
330
47
100
AcDbScale
 70
     0
300
1/16" = 1'-0"
140
0.0625
141
12.0
290
     0
  0
SCALE
  5
5D
102
{ACAD_REACTORS
330
47
102
}
330
47
100
AcDbScale
 70
     0
300
3/32" = 1'-0"
140
0.09375
141
12.0
290
     0
  0
SCALE
  5
5E
102
{ACAD_REACTORS
330
47
102
}
330
47
100
AcDbScale
 70
     0
300
1/8" = 1'-0"
140
0.125
141
12.0
290
     0
  0
SCALE
  5
5F
102
{ACAD_REACTORS
330
47
102
}
330
47
100
AcDbScale
 70
     0
300
3/16" = 1'-0"
140
0.1875
141
12.0
290
     0
  0
SCALE
  5
60
102
{ACAD_REACTORS
330
47
102
}
330
47
100
AcDbScale
 70
     0
300
1/4" = 1'-0"
140
0.25
141
12.0
290
     0
  0
SCALE
  5
61
102
{ACAD_REACTORS
330
47
102
}
330
47
100
AcDbScale
 70
     0
300
3/8" = 1'-0"
140
0.375
141
12.0
290
     0
  0
SCALE
  5
62
102
{ACAD_REACTORS
330
47
102
}
330
47
100
AcDbScale
 70
     0
300
1/2" = 1'-0"
140
0.5
141
12.0
290
     0
  0
SCALE
  5
63
102
{ACAD_REACTORS
330
47
102
}
330
47
100
AcDbScale
 70
     0
300
3/4" = 1'-0"
140
0.75
141
12.0
290
     0
  0
SCALE
  5
64
102
{ACAD_REACTORS
330
47
102
}
330
47
100
AcDbScale
 70
     0
300
1" = 1'-0"
140
1.0
141
12.0
290
     0
  0
SCALE
  5
65
102
{ACAD_REACTORS
330
47
102
}
330
47
100
AcDbScale
 70
     0
300
1-1/2" = 1'-0"
140
1.5
141
12.0
290
     0
  0
SCALE
  5
66
102
{ACAD_REACTORS
330
47
102
}
330
47
100
AcDbScale
 70
     0
300
3" = 1'-0"
140
3.0
141
12.0
290
     0
  0
SCALE
  5
67
102
{ACAD_REACTORS
330
47
102
}
330
47
100
AcDbScale
 70
     0
300
6" = 1'-0"
140
6.0
141
12.0
290
     0
  0
SCALE
  5
68
102
{ACAD_REACTORS
330
47
102
}
330
47
100
AcDbScale
 70
     0
300
1'-0" = 1'-0"
140
12.0
141
12.0
290
     0
  0
ENDSEC
  0
EOF
