  0
SECTION
  2
HEADER
  9
$ACADVER
  1
AC1015
  9
$ACADMAINTVER
 70
     6
  9
$DWGCODEPAGE
  3
ANSI_1252
  9
$INSBASE
 10
0.0
 20
0.0
 30
0.0
  9
$EXTMIN
 10
0.0
 20
-0.0000000013
 30
0.0
  9
$EXTMAX
 10
11.811023622
 20
1.9685039392
 30
0.0
  9
$LIMMIN
 10
0.0
 20
0.0
  9
$LIMMAX
 10
12.0
 20
9.0
  9
$ORTHOMODE
 70
     0
  9
$REGENMODE
 70
     1
  9
$FILLMODE
 70
     1
  9
$QTEXTMODE
 70
     0
  9
$MIRRTEXT
 70
     1
  9
$LTSCALE
 40
1.0
  9
$ATTMODE
 70
     1
  9
$TEXTSIZE
 40
0.1377952756
  9
$TRACEWID
 40
0.05
  9
$TEXTSTYLE
  7
Standard
  9
$CLAYER
  8
0
  9
$CELTYPE
  6
ByLayer
  9
$CECOLOR
 62
   256
  9
$CELTSCALE
 40
1.0
  9
$DISPSILH
 70
     0
  9
$DIMSCALE
 40
1.0
  9
$DIMASZ
 40
0.13
  9
$DIMEXO
 40
0.0393700787
  9
$DIMDLI
 40
0.38
  9
$DIMRND
 40
0.0
  9
$DIMDLE
 40
0.0
  9
$DIMEXE
 40
0.0393700787
  9
$DIMTP
 40
0.0
  9
$DIMTM
 40
0.0
  9
$DIMTXT
 40
0.1377952756
  9
$DIMCEN
 40
0.09
  9
$DIMTSZ
 40
0.0
  9
$DIMTOL
 70
     0
  9
$DIMLIM
 70
     0
  9
$DIMTIH
 70
     1
  9
$DIMTOH
 70
     1
  9
$DIMSE1
 70
     0
  9
$DIMSE2
 70
     0
  9
$DIMTAD
 70
     1
  9
$DIMZIN
 70
     1
  9
$DIMBLK
  1

  9
$DIMASO
 70
     1
  9
$DIMSHO
 70
     1
  9
$DIMPOST
  1

  9
$DIMAPOST
  1

  9
$DIMALT
 70
     0
  9
$DIMALTD
 70
     2
  9
$DIMALTF
 40
25.4
  9
$DIMLFAC
 40
1.0
  9
$DIMTOFL
 70
     0
  9
$DIMTVP
 40
0.0
  9
$DIMTIX
 70
     0
  9
$DIMSOXD
 70
     0
  9
$DIMSAH
 70
     0
  9
$DIMBLK1
  1

  9
$DIMBLK2
  1

  9
$DIMSTYLE
  2
Standard
  9
$DIMCLRD
 70
     0
  9
$DIMCLRE
 70
     0
  9
$DIMCLRT
 70
     0
  9
$DIMTFAC
 40
1.0
  9
$DIMGAP
 40
0.06
  9
$DIMJUST
 70
     0
  9
$DIMSD1
 70
     0
  9
$DIMSD2
 70
     0
  9
$DIMTOLJ
 70
     1
  9
$DIMTZIN
 70
     1
  9
$DIMALTZ
 70
     0
  9
$DIMALTTZ
 70
     0
  9
$DIMUPT
 70
     0
  9
$DIMDEC
 70
     2
  9
$DIMTDEC
 70
     2
  9
$DIMALTU
 70
     2
  9
$DIMALTTD
 70
     2
  9
$DIMTXSTY
  7
Standard
  9
$DIMAUNIT
 70
     0
  9
$DIMADEC
 70
     2
  9
$DIMALTRND
 40
0.0
  9
$DIMAZIN
 70
     0
  9
$DIMDSEP
 70
    46
  9
$DIMATFIT
 70
     3
  9
$DIMFRAC
 70
     0
  9
$DIMLDRBLK
  1

  9
$DIMLUNIT
 70
     2
  9
$DIMLWD
 70
    -2
  9
$DIMLWE
 70
    -2
  9
$DIMTMOVE
 70
     0
  9
$LUNITS
 70
     2
  9
$LUPREC
 70
     8
  9
$SKETCHINC
 40
0.1
  9
$FILLETRAD
 40
0.5
  9
$AUNITS
 70
     0
  9
$AUPREC
 70
     2
  9
$MENU
  1
.
  9
$ELEVATION
 40
0.0
  9
$PELEVATION
 40
0.0
  9
$THICKNESS
 40
0.0
  9
$LIMCHECK
 70
     0
  9
$CHAMFERA
 40
0.0
  9
$CHAMFERB
 40
0.0
  9
$CHAMFERC
 40
0.0
  9
$CHAMFERD
 40
0.0
  9
$SKPOLY
 70
     0
  9
$TDCREATE
 40
2458325.357138287
  9
$TDUCREATE
 40
2458325.523804954
  9
$TDUPDATE
 40
2458325.357167431
  9
$TDUUPDATE
 40
2458325.523834097
  9
$TDINDWG
 40
0.0000000116
  9
$TDUSRTIMER
 40
0.0000000116
  9
$USRTIMER
 70
     1
  9
$ANGBASE
 50
0.0
  9
$ANGDIR
 70
     0
  9
$PDMODE
 70
     0
  9
$PDSIZE
 40
-1.0
  9
$PLINEWID
 40
0.0
  9
$SPLFRAME
 70
     0
  9
$SPLINETYPE
 70
     6
  9
$SPLINESEGS
 70
     8
  9
$HANDSEED
  5
200
  9
$SURFTAB1
 70
     6
  9
$SURFTAB2
 70
     6
  9
$SURFTYPE
 70
     6
  9
$SURFU
 70
     6
  9
$SURFV
 70
     6
  9
$UCSBASE
  2

  9
$UCSNAME
  2

  9
$UCSORG
 10
0.0
 20
0.0
 30
0.0
  9
$UCSXDIR
 10
1.0
 20
0.0
 30
0.0
  9
$UCSYDIR
 10
0.0
 20
1.0
 30
0.0
  9
$UCSORTHOREF
  2

  9
$UCSORTHOVIEW
 70
     0
  9
$UCSORGTOP
 10
0.0
 20
0.0
 30
0.0
  9
$UCSORGBOTTOM
 10
0.0
 20
0.0
 30
0.0
  9
$UCSORGLEFT
 10
0.0
 20
0.0
 30
0.0
  9
$UCSORGRIGHT
 10
0.0
 20
0.0
 30
0.0
  9
$UCSORGFRONT
 10
0.0
 20
0.0
 30
0.0
  9
$UCSORGBACK
 10
0.0
 20
0.0
 30
0.0
  9
$PUCSBASE
  2

  9
$PUCSNAME
  2

  9
$PUCSORG
 10
0.0
 20
0.0
 30
0.0
  9
$PUCSXDIR
 10
1.0
 20
0.0
 30
0.0
  9
$PUCSYDIR
 10
0.0
 20
1.0
 30
0.0
  9
$PUCSORTHOREF
  2

  9
$PUCSORTHOVIEW
 70
     0
  9
$PUCSORGTOP
 10
0.0
 20
0.0
 30
0.0
  9
$PUCSORGBOTTOM
 10
0.0
 20
0.0
 30
0.0
  9
$PUCSORGLEFT
 10
0.0
 20
0.0
 30
0.0
  9
$PUCSORGRIGHT
 10
0.0
 20
0.0
 30
0.0
  9
$PUCSORGFRONT
 10
0.0
 20
0.0
 30
0.0
  9
$PUCSORGBACK
 10
0.0
 20
0.0
 30
0.0
  9
$USERI1
 70
     0
  9
$USERI2
 70
     0
  9
$USERI3
 70
     0
  9
$USERI4
 70
     0
  9
$USERI5
 70
     0
  9
$USERR1
 40
0.0
  9
$USERR2
 40
0.0
  9
$USERR3
 40
0.0
  9
$USERR4
 40
0.0
  9
$USERR5
 40
0.0
  9
$WORLDVIEW
 70
     1
  9
$SHADEDGE
 70
     3
  9
$SHADEDIF
 70
    70
  9
$TILEMODE
 70
     1
  9
$MAXACTVP
 70
    64
  9
$PINSBASE
 10
0.0
 20
0.0
 30
0.0
  9
$PLIMCHECK
 70
     0
  9
$PEXTMIN
 10
1.0000000000E+20
 20
1.0000000000E+20
 30
1.0000000000E+20
  9
$PEXTMAX
 10
-1.0000000000E+20
 20
-1.0000000000E+20
 30
-1.0000000000E+20
  9
$PLIMMIN
 10
0.0
 20
0.0
  9
$PLIMMAX
 10
12.0
 20
9.0
  9
$UNITMODE
 70
     0
  9
$VISRETAIN
 70
     1
  9
$PLINEGEN
 70
     0
  9
$PSLTSCALE
 70
     1
  9
$TREEDEPTH
 70
  3020
  9
$CMLSTYLE
  2
Standard
  9
$CMLJUST
 70
     0
  9
$CMLSCALE
 40
1.0
  9
$PROXYGRAPHICS
 70
     1
  9
$MEASUREMENT
 70
     0
  9
$CELWEIGHT
370
    -1
  9
$ENDCAPS
280
     0
  9
$JOINSTYLE
280
     0
  9
$LWDISPLAY
290
     1
  9
$INSUNITS
 70
     1
  9
$HYPERLINKBASE
  1

  9
$STYLESHEET
  1

  9
$XEDIT
290
     1
  9
$CEPSNTYPE
380
     0
  9
$PSTYLEMODE
290
     1
  9
$FINGERPRINTGUID
  2
{4CB7291B-EC83-4D93-AAB1-6F99EA1AC99F}
  9
$VERSIONGUID
  2
{FAEB1C32-E019-11D5-929B-00C0DF256EC4}
  9
$EXTNAMES
290
     1
  9
$PSVPSCALE
 40
0.0
  9
$OLESTARTUP
290
     0
  0
ENDSEC
  0
SECTION
  2
CLASSES
  0
CLASS
  1
ACDBDICTIONARYWDFLT
  2
AcDbDictionaryWithDefault
  3
ObjectDBX Classes
 90
        0
280
     0
281
     0
  0
CLASS
  1
VISUALSTYLE
  2
AcDbVisualStyle
  3
ObjectDBX Classes
 90
     4095
280
     0
281
     0
  0
CLASS
  1
MATERIAL
  2
AcDbMaterial
  3
ObjectDBX Classes
 90
     1153
280
     0
281
     0
  0
CLASS
  1
SCALE
  2
AcDbScale
  3
ObjectDBX Classes
 90
     1153
280
     0
281
     0
  0
CLASS
  1
TABLESTYLE
  2
AcDbTableStyle
  3
ObjectDBX Classes
 90
     4095
280
     0
281
     0
  0
CLASS
  1
MLEADERSTYLE
  2
AcDbMLeaderStyle
  3
ACDB_MLEADERSTYLE_CLASS
 90
     4095
280
     0
281
     0
  0
CLASS
  1
SUN
  2
AcDbSun
  3
SCENEOE
 90
     1153
280
     0
281
     0
  0
CLASS
  1
ACDBPLACEHOLDER
  2
AcDbPlaceHolder
  3
ObjectDBX Classes
 90
        0
280
     0
281
     0
  0
CLASS
  1
LAYOUT
  2
AcDbLayout
  3
ObjectDBX Classes
 90
        0
280
     0
281
     0
  0
ENDSEC
  0
SECTION
  2
TABLES
  0
TABLE
  2
VPORT
  5
8
330
0
100
AcDbSymbolTable
 70
     1
  0
VPORT
  5
29
330
8
100
AcDbSymbolTableRecord
100
AcDbViewportTableRecord
  2
*Active
 70
     0
 10
0.0
 20
0.0
 11
1.0
 21
1.0
 12
5.905511811
 22
0.9842519689
 13
0.0
 23
0.0
 14
0.5
 24
0.5
 15
0.5
 25
0.5
 16
0.0
 26
0.0
 36
1.0
 17
0.0
 27
0.0
 37
0.0
 40
2.0078740193
 41
5.9999999894
 42
50.0
 43
0.0
 44
0.0
 50
0.0
 51
0.0
 71
     0
 72
   100
 73
     1
 74
     3
 75
     0
 76
     0
 77
     0
 78
     0
281
     0
 65
     1
110
0.0
120
0.0
130
0.0
111
1.0
121
0.0
131
0.0
112
0.0
122
1.0
132
0.0
 79
     0
146
0.0
  0
ENDTAB
  0
TABLE
  2
LTYPE
  5
5
330
0
100
AcDbSymbolTable
 70
     6
  0
LTYPE
  5
14
330
5
100
AcDbSymbolTableRecord
100
AcDbLinetypeTableRecord
  2
ByBlock
 70
     0
  3

 72
    65
 73
     0
 40
0.0
  0
LTYPE
  5
15
330
5
100
AcDbSymbolTableRecord
100
AcDbLinetypeTableRecord
  2
ByLayer
 70
     0
  3

 72
    65
 73
     0
 40
0.0
  0
LTYPE
  5
16
330
5
100
AcDbSymbolTableRecord
100
AcDbLinetypeTableRecord
  2
Continuous
 70
     0
  3
Solid line
 72
    65
 73
     0
 40
0.0
  0
LTYPE
  5
6E
330
5
100
AcDbSymbolTableRecord
100
AcDbLinetypeTableRecord
  2
HIDDEN
 70
     0
  3
Hidden __ __ __ __ __ __ __ __ __ __ __ __ __ __
 72
    65
 73
     2
 40
0.075
 49
0.05
 74
     0
 49
-0.025
 74
     0
  0
LTYPE
  5
6F
330
5
100
AcDbSymbolTableRecord
100
AcDbLinetypeTableRecord
  2
PHANTOM
 70
     0
  3
Phantom ______  __  __  ______  __  __  ______
 72
    65
 73
     6
 40
0.5
 49
0.25
 74
     0
 49
-0.05
 74
     0
 49
0.05
 74
     0
 49
-0.05
 74
     0
 49
0.05
 74
     0
 49
-0.05
 74
     0
  0
LTYPE
  5
70
330
5
100
AcDbSymbolTableRecord
100
AcDbLinetypeTableRecord
  2
CENTER
 70
     0
  3
Center ____ _ ____ _ ____ _ ____ _ ____ _ ____
 72
    65
 73
     4
 40
0.4
 49
0.25
 74
     0
 49
-0.05
 74
     0
 49
0.05
 74
     0
 49
-0.05
 74
     0
  0
LTYPE
  5
71
330
5
100
AcDbSymbolTableRecord
100
AcDbLinetypeTableRecord
  2
CENTERX2
 70
     0
  3
Center (2x) ________  __  ________  __  _____
 72
    65
 73
     4
 40
0.8
 49
0.5
 74
     0
 49
-0.1
 74
     0
 49
0.1
 74
     0
 49
-0.1
 74
     0
  0
LTYPE
  5
72
330
5
100
AcDbSymbolTableRecord
100
AcDbLinetypeTableRecord
  2
DOT2
 70
     0
  3
Dot (.5x) ........................................
 72
    65
 73
     2
 40
0.025
 49
0.0
 74
     0
 49
-0.025
 74
     0
  0
ENDTAB
  0
TABLE
  2
LAYER
  5
2
330
0
100
AcDbSymbolTable
 70
     1
  0
LAYER
  5
10
330
2
100
AcDbSymbolTableRecord
100
AcDbLayerTableRecord
  2
0
 70
     0
 62
     7
  6
Continuous
370
    -3
390
F
  0
ENDTAB
  0
TABLE
  2
STYLE
  5
3
330
0
100
AcDbSymbolTable
 70
     1
  0
STYLE
  5
11
330
3
100
AcDbSymbolTableRecord
100
AcDbTextStyleTableRecord
  2
Standard
 70
     0
 40
0.0
 41
1.0
 50
0.0
 71
     0
 42
0.1377952756
  3
txt
  4

  0
ENDTAB
  0
TABLE
  2
VIEW
  5
6
330
0
100
AcDbSymbolTable
 70
     0
  0
ENDTAB
  0
TABLE
  2
UCS
  5
7
330
0
100
AcDbSymbolTable
 70
     0
  0
ENDTAB
  0
TABLE
  2
APPID
  5
9
330
0
100
AcDbSymbolTable
 70
     1
  0
APPID
  5
12
330
9
100
AcDbSymbolTableRecord
100
AcDbRegAppTableRecord
  2
ACAD
 70
     0
  0
ENDTAB
  0
TABLE
  2
DIMSTYLE
  5
A
330
0
100
AcDbSymbolTable
 70
     1
100
AcDbDimStyleTable
  0
DIMSTYLE
105
27
330
A
100
AcDbSymbolTableRecord
100
AcDbDimStyleTableRecord
  2
Standard
 70
     0
178
     0
340
11
  0
ENDTAB
  0
TABLE
  2
BLOCK_RECORD
  5
1
330
0
100
AcDbSymbolTable
 70
     1
  0
BLOCK_RECORD
  5
1F
330
1
100
AcDbSymbolTableRecord
100
AcDbBlockTableRecord
  2
*Model_Space
340
22
  0
BLOCK_RECORD
  5
1B
330
1
100
AcDbSymbolTableRecord
100
AcDbBlockTableRecord
  2
*Paper_Space
340
1E
  0
BLOCK_RECORD
  5
23
330
1
100
AcDbSymbolTableRecord
100
AcDbBlockTableRecord
  2
*Paper_Space0
340
26
  0
ENDTAB
  0
ENDSEC
  0
SECTION
  2
BLOCKS
  0
BLOCK
  5
20
330
1F
100
AcDbEntity
  8
0
100
AcDbBlockBegin
  2
*Model_Space
 70
     0
 10
0.0
 20
0.0
 30
0.0
  3
*Model_Space
  1

  0
ENDBLK
  5
21
330
1F
100
AcDbEntity
  8
0
100
AcDbBlockEnd
  0
BLOCK
  5
1C
330
1B
100
AcDbEntity
 67
     1
  8
0
100
AcDbBlockBegin
  2
*Paper_Space
 70
     0
 10
0.0
 20
0.0
 30
0.0
  3
*Paper_Space
  1

  0
ENDBLK
  5
1D
330
1B
100
AcDbEntity
 67
     1
  8
0
100
AcDbBlockEnd
  0
BLOCK
  5
24
330
23
100
AcDbEntity
  8
0
100
AcDbBlockBegin
  2
*Paper_Space0
 70
     0
 10
0.0
 20
0.0
 30
0.0
  3
*Paper_Space0
  1

  0
ENDBLK
  5
25
330
23
100
AcDbEntity
  8
0
100
AcDbBlockEnd
  0
ENDSEC
  0
SECTION
  2
ENTITIES
  0
SPLINE
  5
7E
330
1F
100
AcDbEntity
  8
0
  6
Continuous
 62
     7
370
    25
100
AcDbSpline
210
0.0
220
0.0
230
1.0
 70
     8
 71
     3
 72
    23
 73
    19
 74
     0
 42
0.000000001
 43
0.00000001
 40
0.0
 40
0.0
 40
0.0
 40
0.0
 40
0.0633260535318749
 40
0.1236454103603147
 40
0.1812826135194386
 40
0.2379768131268563
 40
0.2935407629237227
 40
0.3486816025440929
 40
0.4043209273922848
 40
0.4610035301292991
 40
0.5191347754940476
 40
0.5793491400874565
 40
0.6418444293279374
 40
0.7078704626648754
 40
0.7766051911033093
 40
0.8476526632479082
 40
0.9221245276930564
 40
1.0
 40
1.0
 40
1.0
 40
1.0
 10
5.399594710305313
 20
0.1106169048841722
 30
0.0
 10
5.399546938029562
 20
0.1089915378179506
 30
0.0
 10
5.399453661687367
 20
0.1058179754896438
 30
0.0
 10
5.398722677082972
 20
0.1012116384236122
 30
0.0
 10
5.397540186385923
 20
0.0968797880196923
 30
0.0
 10
5.395851125005834
 20
0.0928465869366442
 30
0.0
 10
5.393700305256206
 20
0.0891198246366469
 30
0.0
 10
5.39120483613294
 20
0.0856455627689972
 30
0.0
 10
5.388242355316377
 20
0.0825166220696447
 30
0.0
 10
5.384884166970008
 20
0.0797023887913355
 30
0.0
 10
5.381147408033369
 20
0.0771966676769897
 30
0.0
 10
5.377042576235734
 20
0.0750189346600518
 30
0.0
 10
5.372575426518819
 20
0.0731342369600985
 30
0.0
 10
5.367749333467631
 20
0.0715892854151067
 30
0.0
 10
5.362603277201243
 20
0.0703861836636867
 30
0.0
 10
5.357173107702177
 20
0.0695021164837705
 30
0.0
 10
5.351456355594713
 20
0.0690174352943362
 30
0.0
 10
5.347547895170352
 20
0.0689381606559716
 30
0.0
 10
5.345550005295613
 20
0.0688976377952756
 30
0.0
  0
SPLINE
  5
7F
330
1F
100
AcDbEntity
  8
0
  6
Continuous
 62
     7
370
    25
100
AcDbSpline
210
0.0
220
0.0
230
1.0
 70
     8
 71
     3
 72
    21
 73
    17
 74
     0
 42
0.000000001
 43
0.00000001
 40
0.0
 40
0.0
 40
0.0
 40
0.0
 40
0.1193489637753418
 40
0.2383531199390214
 40
0.298193689703982
 40
0.3568112946137033
 40
0.4157921536839432
 40
0.4750596628706974
 40
0.5350861696029681
 40
0.5959423628256277
 40
0.6578312767354789
 40
0.7218988600038878
 40
0.7878379443417376
 40
0.8556139880323058
 40
0.9263566339288631
 40
1.0
 40
1.0
 40
1.0
 40
1.0
 10
5.372821986922909
 20
0.1429438762410134
 30
0.0
 10
5.374597257925504
 20
0.1425201336633329
 30
0.0
 10
5.378142671046998
 20
0.1416738727302989
 30
0.0
 10
5.382316736336464
 20
0.1397961286183949
 30
0.0
 10
5.385470021734786
 20
0.1380029797594576
 30
0.0
 10
5.3876689393897
 20
0.1364139061733881
 30
0.0
 10
5.389735321492669
 20
0.134672291886437
 30
0.0
 10
5.391643542274377
 20
0.1327264839857965
 30
0.0
 10
5.39339539056388
 20
0.1306030569413843
 30
0.0
 10
5.394968295902889
 20
0.1282917470192112
 30
0.0
 10
5.396295845360314
 20
0.1257643819388126
 30
0.0
 10
5.397505273944276
 20
0.1230926342611351
 30
0.0
 10
5.398427189198512
 20
0.1202115657758844
 30
0.0
 10
5.399123309802487
 20
0.1171659936223921
 30
0.0
 10
5.399532424009096
 20
0.1139460926615391
 30
0.0
 10
5.399573671982152
 20
0.1117413982731526
 30
0.0
 10
5.399594710305313
 20
0.1106169048841722
 30
0.0
  0
SPLINE
  5
102
330
1F
100
AcDbEntity
  8
0
  6
Continuous
 62
     7
370
    25
100
AcDbSpline
210
0.0
220
0.0
230
1.0
 70
     8
 71
     3
 72
    19
 73
    15
 74
     0
 42
0.000000001
 43
0.00000001
 40
0.0
 40
0.0
 40
0.0
 40
0.0
 40
0.128542862368903
 40
0.2501833658111106
 40
0.3676423958125599
 40
0.4828550484702407
 40
0.5405033646233887
 40
0.5992328796241175
 40
0.6596398306386239
 40
0.7216651114752352
 40
0.7863724582546314
 40
0.8542028512456515
 40
0.925539377101121
 40
1.0
 40
1.0
 40
1.0
 40
1.0
 10
4.80647591537207
 20
0.1736170546616456
 30
0.0
 10
4.806411154770541
 20
0.1718440779345391
 30
0.0
 10
4.806285111013902
 20
0.1683933279129681
 30
0.0
 10
4.805270703503738
 20
0.1634021442648855
 30
0.0
 10
4.803577357452999
 20
0.1588031159337558
 30
0.0
 10
4.801614757480043
 20
0.1552921103853888
 30
0.0
 10
4.799697142131656
 20
0.152734113466039
 30
0.0
 10
4.798031678947071
 20
0.1509484114707237
 30
0.0
 10
4.796151317785625
 20
0.1493003409374409
 30
0.0
 10
4.794079533627091
 20
0.1477583740971976
 30
0.0
 10
4.791789970298636
 20
0.146355023374394
 30
0.0
 10
4.789284242465611
 20
0.1450776711936795
 30
0.0
 10
4.786571915675374
 20
0.1439233204351732
 30
0.0
 10
4.78466906840224
 20
0.1432749883931269
 30
0.0
 10
4.783697257948814
 20
0.1429438762410134
 30
0.0
  0
SPLINE
  5
106
330
1F
100
AcDbEntity
  8
0
  6
Continuous
 62
     7
370
    25
100
AcDbSpline
210
0.0
220
0.0
230
1.0
 70
     8
 71
     3
 72
    15
 73
    11
 74
     0
 42
0.000000001
 43
0.00000001
 40
0.0
 40
0.0
 40
0.0
 40
0.0
 40
0.1113525621013423
 40
0.2209309255260327
 40
0.3311251909260255
 40
0.443649188274151
 40
0.5643761418057418
 40
0.6964797497374327
 40
0.8421079019728891
 40
1.0
 40
1.0
 40
1.0
 40
1.0
 10
5.011421424900771
 20
0.133395562307429
 30
0.0
 10
5.012339070113134
 20
0.1330589903388609
 30
0.0
 10
5.014159739545845
 20
0.132391209058227
 30
0.0
 10
5.01666301901933
 20
0.1309041331228138
 30
0.0
 10
5.019017446803274
 20
0.1291756201024215
 30
0.0
 10
5.021076447442915
 20
0.1269665860069512
 30
0.0
 10
5.02308960265733
 20
0.1244784457322708
 30
0.0
 10
5.025085131249752
 20
0.1216114496641328
 30
0.0
 10
5.02711156019001
 20
0.1183760700025493
 30
0.0
 10
5.028387654027466
 20
0.1160430434026756
 30
0.0
 10
5.029051481673566
 20
0.1148293963254594
 30
0.0
  0
SPLINE
  5
10C
330
1F
100
AcDbEntity
  8
0
  6
Continuous
 62
     7
370
    25
100
AcDbSpline
210
0.0
220
0.0
230
1.0
 70
     8
 71
     3
 72
    15
 73
    11
 74
     0
 42
0.000000001
 43
0.00000001
 40
0.0
 40
0.0
 40
0.0
 40
0.0
 40
0.1673918545869923
 40
0.3105326767827729
 40
0.4353739153206118
 40
0.5489839509337321
 40
0.6555634230881608
 40
0.7631611935822608
 40
0.8757123458119882
 40
0.9999999999999999
 40
0.9999999999999999
 40
0.9999999999999999
 40
0.9999999999999999
 10
5.009143559158446
 20
0.1119274577770172
 30
0.0
 10
5.008427584867987
 20
0.1134530225718987
 30
0.0
 10
5.007099363650341
 20
0.1162831347092485
 30
0.0
 10
5.004760746219851
 20
0.1199993109240174
 30
0.0
 10
5.002338588056262
 20
0.1229934209618052
 30
0.0
 10
4.99971484083538
 20
0.1252952664043188
 30
0.0
 10
4.996852416827068
 20
0.1269745681337882
 30
0.0
 10
4.993733182011796
 20
0.1280610467602065
 30
0.0
 10
4.990311886384832
 20
0.1286926139594979
 30
0.0
 10
4.987927965797381
 20
0.1287686993097981
 30
0.0
 10
4.986676938138246
 20
0.1288086271824718
 30
0.0
  0
CIRCLE
  5
120
330
1F
100
AcDbEntity
  8
0
  6
Continuous
 62
     7
370
    25
100
AcDbCircle
 10
2.4
 20
1.0
 30
0.0
 40
0.3250000000000002
  0
SPLINE
  5
125
330
1F
100
AcDbEntity
  8
0
  6
Continuous
 62
     7
370
    25
100
AcDbSpline
210
0.0
220
0.0
230
1.0
 70
     8
 71
     3
 72
    23
 73
    19
 74
     0
 42
0.000000001
 43
0.00000001
 40
0.0
 40
0.0
 40
0.0
 40
0.0
 40
0.0867985091117865
 40
0.1680325757699607
 40
0.2438549343749081
 40
0.3151430648712645
 40
0.3818274405512921
 40
0.4445164656257105
 40
0.5035922754268303
 40
0.5594986595292208
 40
0.613331632684668
 40
0.6658467966471306
 40
0.7179152797095454
 40
0.770126404205044
 40
0.8240197862945519
 40
0.8797950640280655
 40
0.9382240930441981
 40
1.0
 40
1.0
 40
1.0
 40
1.0
 10
4.760200916798523
 20
0.2066929133858268
 30
0.0
 10
4.762074099413121
 20
0.2066746287150721
 30
0.0
 10
4.765700379436121
 20
0.2066392315595741
 30
0.0
 10
4.770947235676328
 20
0.2062073627641287
 30
0.0
 10
4.775839214398662
 20
0.2056109732919015
 30
0.0
 10
4.78037132801762
 20
0.2047202254178807
 30
0.0
 10
4.784533289101671
 20
0.2035160796709884
 30
0.0
 10
4.788365227938756
 20
0.2021419571373481
 30
0.0
 10
4.791814554284613
 20
0.2004498485490674
 30
0.0
 10
4.79489907438744
 20
0.1985023122745766
 30
0.0
 10
4.797649552556167
 20
0.1963203043501413
 30
0.0
 10
4.799998896306686
 20
0.1938243096523876
 30
0.0
 10
4.802019953405035
 20
0.1911001789827743
 30
0.0
 10
4.803652813743853
 20
0.1880919095259379
 30
0.0
 10
4.804936622518476
 20
0.1848344460796606
 30
0.0
 10
4.805835782336715
 20
0.1813125445274425
 30
0.0
 10
4.806367799677283
 20
0.1775441732335981
 30
0.0
 10
4.806439214008376
 20
0.17495016922251
 30
0.0
 10
4.80647591537207
 20
0.1736170546616456
 30
0.0
  0
SPLINE
  5
126
330
1F
100
AcDbEntity
  8
0
  6
Continuous
 62
     7
370
    25
100
AcDbSpline
210
0.0
220
0.0
230
1.0
 70
     8
 71
     3
 72
    23
 73
    19
 74
     0
 42
0.000000001
 43
0.00000001
 40
0.0
 40
0.0
 40
0.0
 40
0.0
 40
0.0867985091117857
 40
0.1680325757699678
 40
0.2438549343749145
 40
0.3151430648712786
 40
0.3818274405512976
 40
0.4445164656257233
 40
0.503592275426835
 40
0.559498659529218
 40
0.6133316326846642
 40
0.6658467966471385
 40
0.7179152797095528
 40
0.7701264042050429
 40
0.8240197862945503
 40
0.8797950640280656
 40
0.938224093044199
 40
1.0
 40
1.0
 40
1.0
 40
1.0
 10
5.349325645772618
 20
0.206692913385827
 30
0.0
 10
5.351198828387216
 20
0.2066746287150721
 30
0.0
 10
5.354825108410216
 20
0.2066392315595742
 30
0.0
 10
5.360071964650425
 20
0.2062073627641287
 30
0.0
 10
5.364963943372757
 20
0.2056109732919015
 30
0.0
 10
5.369496056991716
 20
0.204720225417881
 30
0.0
 10
5.373658018075769
 20
0.2035160796709882
 30
0.0
 10
5.377489956912852
 20
0.2021419571373482
 30
0.0
 10
5.380939283258708
 20
0.2004498485490674
 30
0.0
 10
5.384023803361536
 20
0.1985023122745766
 30
0.0
 10
5.386774281530263
 20
0.1963203043501411
 30
0.0
 10
5.389123625280783
 20
0.1938243096523881
 30
0.0
 10
5.391144682379132
 20
0.1911001789827745
 30
0.0
 10
5.392777542717949
 20
0.1880919095259376
 30
0.0
 10
5.394061351492573
 20
0.1848344460796606
 30
0.0
 10
5.394960511310811
 20
0.1813125445274425
 30
0.0
 10
5.395492528651378
 20
0.1775441732335981
 30
0.0
 10
5.395563942982473
 20
0.17495016922251
 30
0.0
 10
5.395600644346167
 20
0.1736170546616456
 30
0.0
  0
SPLINE
  5
127
330
1F
100
AcDbEntity
  8
0
  6
Continuous
 62
     7
370
    25
100
AcDbSpline
210
0.0
220
0.0
230
1.0
 70
     8
 71
     3
 72
    23
 73
    19
 74
     0
 42
0.000000001
 43
0.00000001
 40
0.0
 40
0.0
 40
0.0
 40
0.0
 40
0.0633260535318748
 40
0.1236454103603157
 40
0.1812826135194397
 40
0.237976813126855
 40
0.2935407629237213
 40
0.3486816025440874
 40
0.4043209273922894
 40
0.4610035301292981
 40
0.5191347754940411
 40
0.5793491400874623
 40
0.6418444293279368
 40
0.707870462664875
 40
0.7766051911033088
 40
0.847652663247901
 40
0.9221245276930562
 40
1.0
 40
1.0
 40
1.0
 40
1.0
 10
4.810469981331217
 20
0.1106169048841722
 30
0.0
 10
4.810422209055466
 20
0.1089915378179506
 30
0.0
 10
4.810328932713272
 20
0.1058179754896436
 30
0.0
 10
4.809597948108876
 20
0.1012116384236123
 30
0.0
 10
4.808415457411827
 20
0.0968797880196925
 30
0.0
 10
4.806726396031737
 20
0.092846586936644
 30
0.0
 10
4.804575576282112
 20
0.0891198246366472
 30
0.0
 10
4.802080107158843
 20
0.0856455627689966
 30
0.0
 10
4.79911762634228
 20
0.0825166220696452
 30
0.0
 10
4.795759437995912
 20
0.0797023887913355
 30
0.0
 10
4.792022679059276
 20
0.0771966676769893
 30
0.0
 10
4.78791784726164
 20
0.0750189346600522
 30
0.0
 10
4.783450697544721
 20
0.0731342369600982
 30
0.0
 10
4.778624604493535
 20
0.0715892854151069
 30
0.0
 10
4.773478548227149
 20
0.0703861836636867
 30
0.0
 10
4.76804837872808
 20
0.0695021164837705
 30
0.0
 10
4.762331626620619
 20
0.0690174352943362
 30
0.0
 10
4.758423166196255
 20
0.0689381606559716
 30
0.0
 10
4.756425276321517
 20
0.0688976377952756
 30
0.0
  0
SPLINE
  5
128
330
1F
100
AcDbEntity
  8
0
  6
Continuous
 62
     7
370
    25
100
AcDbSpline
210
0.0
220
0.0
230
1.0
 70
     8
 71
     3
 72
    19
 73
    15
 74
     0
 42
0.000000001
 43
0.00000001
 40
0.0
 40
0.0
 40
0.0
 40
0.0
 40
0.1285428623689014
 40
0.2501833658111048
 40
0.3676423958125573
 40
0.4828550484702301
 40
0.5405033646233929
 40
0.5992328796241211
 40
0.6596398306386171
 40
0.7216651114752382
 40
0.7863724582546224
 40
0.8542028512456532
 40
0.9255393771011097
 40
1.0
 40
1.0
 40
1.0
 40
1.0
 10
5.395600644346167
 20
0.1736170546616456
 30
0.0
 10
5.395535883744638
 20
0.1718440779345392
 30
0.0
 10
5.395409839987997
 20
0.1683933279129683
 30
0.0
 10
5.394395432477838
 20
0.1634021442648854
 30
0.0
 10
5.392702086427095
 20
0.1588031159337562
 30
0.0
 10
5.390739486454142
 20
0.1552921103853881
 30
0.0
 10
5.388821871105749
 20
0.1527341134660393
 30
0.0
 10
5.387156407921168
 20
0.1509484114707239
 30
0.0
 10
5.385276046759723
 20
0.1493003409374405
 30
0.0
 10
5.383204262601184
 20
0.147758374097198
 30
0.0
 10
5.380914699272733
 20
0.1463550233743935
 30
0.0
 10
5.378408971439709
 20
0.1450776711936797
 30
0.0
 10
5.375696644649469
 20
0.1439233204351729
 30
0.0
 10
5.373793797376333
 20
0.1432749883931268
 30
0.0
 10
5.372821986922909
 20
0.1429438762410134
 30
0.0
  0
SPLINE
  5
129
330
1F
100
AcDbEntity
  8
0
  6
Continuous
 62
     7
370
    25
100
AcDbSpline
210
0.0
220
0.0
230
1.0
 70
     8
 71
     3
 72
    23
 73
    19
 74
     0
 42
0.000000001
 43
0.00000001
 40
0.0
 40
0.0
 40
0.0
 40
0.0
 40
0.064544269084464
 40
0.1269342817600575
 40
0.1887265654101702
 40
0.2498083354624774
 40
0.3098390008115396
 40
0.369222303493363
 40
0.4286832737432378
 40
0.4883798617341001
 40
0.5482501456441818
 40
0.6087657604725509
 40
0.6699858955025203
 40
0.7331387142663527
 40
0.7970632865401313
 40
0.8628148123436654
 40
0.9303182490782677
 40
1.0
 40
1.0
 40
1.0
 40
1.0
 10
5.040128773982135
 20
0.1698414141846401
 30
0.0
 10
5.040103837239786
 20
0.168758668006673
 30
0.0
 10
5.040054796054187
 20
0.1666293138381589
 30
0.0
 10
5.039694337404164
 20
0.1634809745639995
 30
0.0
 10
5.039148541782792
 20
0.1604191707368928
 30
0.0
 10
5.038330733872107
 20
0.1574580822820242
 30
0.0
 10
5.037299439530134
 20
0.1546092516745427
 30
0.0
 10
5.03605393629118
 20
0.1518749338951746
 30
0.0
 10
5.034542495108933
 20
0.1492853188233997
 30
0.0
 10
5.032831616907768
 20
0.1468134312108251
 30
0.0
 10
5.030884939672052
 20
0.1444991907351069
 30
0.0
 10
5.028735013746997
 20
0.1423347988559323
 30
0.0
 10
5.02633042597086
 20
0.1403710742400184
 30
0.0
 10
5.023764049613926
 20
0.1385259818375143
 30
0.0
 10
5.020965690391173
 20
0.136893446797418
 30
0.0
 10
5.01796362724984
 20
0.135498542339864
 30
0.0
 10
5.01477313688764
 20
0.1342985862541236
 30
0.0
 10
5.012550426767554
 20
0.1336997399114601
 30
0.0
 10
5.011421424900772
 20
0.133395562307429
 30
0.0
  0
SPLINE
  5
12A
330
1F
100
AcDbEntity
  8
0
  6
Continuous
 62
     7
370
    25
100
AcDbSpline
210
0.0
220
0.0
230
1.0
 70
     8
 71
     3
 72
    21
 73
    17
 74
     0
 42
0.000000001
 43
0.00000001
 40
0.0
 40
0.0
 40
0.0
 40
0.0
 40
0.1193489637753318
 40
0.2383531199390018
 40
0.2981936897039633
 40
0.3568112946136949
 40
0.4157921536839357
 40
0.4750596628706904
 40
0.5350861696029622
 40
0.5959423628256223
 40
0.657831276735469
 40
0.7218988600038787
 40
0.7878379443417327
 40
0.8556139880323047
 40
0.9263566339288629
 40
1.0
 40
1.0
 40
1.0
 40
1.0
 10
4.783697257948814
 20
0.1429438762410134
 30
0.0
 10
4.785472528951409
 20
0.1425201336633329
 30
0.0
 10
4.789017942072903
 20
0.1416738727302989
 30
0.0
 10
4.793192007362367
 20
0.1397961286183947
 30
0.0
 10
4.796345292760687
 20
0.1380029797594573
 30
0.0
 10
4.798544210415607
 20
0.1364139061733884
 30
0.0
 10
4.800610592518573
 20
0.134672291886437
 30
0.0
 10
4.802518813300282
 20
0.1327264839857967
 30
0.0
 10
4.804270661589784
 20
0.1306030569413843
 30
0.0
 10
4.805843566928795
 20
0.1282917470192114
 30
0.0
 10
4.807171116386217
 20
0.1257643819388125
 30
0.0
 10
4.808380544970182
 20
0.1230926342611351
 30
0.0
 10
4.809302460224414
 20
0.1202115657758844
 30
0.0
 10
4.809998580828394
 20
0.1171659936223921
 30
0.0
 10
4.810407695035
 20
0.1139460926615391
 30
0.0
 10
4.810448943008057
 20
0.1117413982731526
 30
0.0
 10
4.810469981331217
 20
0.1106169048841722
 30
0.0
  0
SPLINE
  5
12B
330
1F
100
AcDbEntity
  8
0
  6
Continuous
 62
     7
370
    25
100
AcDbSpline
210
0.0
220
0.0
230
1.0
 70
     8
 71
     3
 72
    23
 73
    19
 74
     0
 42
0.000000001
 43
0.00000001
 40
0.0
 40
0.0
 40
0.0
 40
0.0
 40
0.0868773302242187
 40
0.1675014716055805
 40
0.2427475008353539
 40
0.3126603416392966
 40
0.3779946034993797
 40
0.4397338850261037
 40
0.4985052936180523
 40
0.5543760393236227
 40
0.6088184466666434
 40
0.6619725906622709
 40
0.7152695750975254
 40
0.7692730547064747
 40
0.8244991354528809
 40
0.8807629267760528
 40
0.939397314827186
 40
1.0
 40
1.0
 40
1.0
 40
1.0
 10
4.994883495538681
 20
0.206692913385827
 30
0.0
 10
4.996808942341414
 20
0.2066679669540508
 30
0.0
 10
5.000521247635828
 20
0.2066198696653446
 30
0.0
 10
5.005881462797995
 20
0.2061128414726833
 30
0.0
 10
5.010822531705535
 20
0.2052949021957192
 30
0.0
 10
5.015336836320595
 20
0.2040982398032957
 30
0.0
 10
5.019454969174201
 20
0.2026360065834499
 30
0.0
 10
5.023191042894078
 20
0.2008886086178004
 30
0.0
 10
5.026545567367484
 20
0.1988661736532116
 30
0.0
 10
5.029505726971323
 20
0.196558558274711
 30
0.0
 10
5.032122606576062
 20
0.1940402563166626
 30
0.0
 10
5.034318669520962
 20
0.1912194479622467
 30
0.0
 10
5.036180895445708
 20
0.1881811536024314
 30
0.0
 10
5.037642378871549
 20
0.1848790468876612
 30
0.0
 10
5.038750522335101
 20
0.1813783269414654
 30
0.0
 10
5.039577689211168
 20
0.1776955888575342
 30
0.0
 10
5.040039490216762
 20
0.1738265784247624
 30
0.0
 10
5.040098686998189
 20
0.171184341110027
 30
0.0
 10
5.040128773982135
 20
0.1698414141846401
 30
0.0
  0
SPLINE
  5
12F
330
1F
100
AcDbEntity
  8
0
  6
Continuous
 62
     7
370
    25
100
AcDbSpline
210
0.0
220
0.0
230
1.0
 70
     8
 71
     3
 72
    21
 73
    17
 74
     0
 42
0.000000001
 43
0.00000001
 40
0.0
 40
0.0
 40
0.0
 40
0.0
 40
0.1048107603491764
 40
0.205787253549763
 40
0.25520825688846
 40
0.3053322017717515
 40
0.354672231265774
 40
0.4066370344808527
 40
0.460842692156287
 40
0.5189640449736426
 40
0.5822085159551404
 40
0.6511354365166092
 40
0.725977099254603
 40
0.8086500759068513
 40
0.9003756127110791
 40
1.0
 40
1.0
 40
1.0
 40
1.0
 10
5.375630314550434
 20
0.1710271525162617
 30
0.0
 10
5.375573002911329
 20
0.1723641121755995
 30
0.0
 10
5.3754604762512
 20
0.1749891218166455
 30
0.0
 10
5.374651127130536
 20
0.178164162916424
 30
0.0
 10
5.373703287462439
 20
0.1805408072392937
 30
0.0
 10
5.372743911735004
 20
0.1821876194594711
 30
0.0
 10
5.371518227835337
 20
0.1836860886683647
 30
0.0
 10
5.370078057067918
 20
0.185052217388825
 30
0.0
 10
5.368409654815411
 20
0.1863265808609845
 30
0.0
 10
5.366444506840562
 20
0.1874086900682033
 30
0.0
 10
5.364217495759465
 20
0.1883732985416854
 30
0.0
 10
5.361714029528602
 20
0.1892138594676098
 30
0.0
 10
5.358909415613536
 20
0.1899046058070596
 30
0.0
 10
5.355768901066925
 20
0.1904001757870709
 30
0.0
 10
5.352284257707825
 20
0.1906655473506938
 30
0.0
 10
5.34984613969408
 20
0.1906991530726787
 30
0.0
 10
5.348576758405279
 20
0.1907166495492412
 30
0.0
  0
SPLINE
  5
130
330
1F
100
AcDbEntity
  8
0
  6
Continuous
 62
     7
370
    25
100
AcDbSpline
210
0.0
220
0.0
230
1.0
 70
     8
 71
     3
 72
    21
 73
    17
 74
     0
 42
0.000000001
 43
0.00000001
 40
0.0
 40
0.0
 40
0.0
 40
0.0
 40
0.1481099039642217
 40
0.2834111377086715
 40
0.3473298973787404
 40
0.4080164734869428
 40
0.4665361356180588
 40
0.5238711608478894
 40
0.5798789656630091
 40
0.6357582137558676
 40
0.6911959771072442
 40
0.7476673467919008
 40
0.8060331849590952
 40
0.866872642855139
 40
0.93103005460492
 40
1.0
 40
1.0
 40
1.0
 40
1.0
 10
5.347952685599162
 20
0.1487789569782039
 30
0.0
 10
5.349943716587991
 20
0.1488429872156165
 30
0.0
 10
5.353753592515624
 20
0.1489655103011574
 30
0.0
 10
5.358363501136089
 20
0.1497939278835654
 30
0.0
 10
5.361724525495053
 20
0.1507683127019426
 30
0.0
 10
5.363971840593056
 20
0.1517785946362596
 30
0.0
 10
5.366097924072548
 20
0.1528391875683786
 30
0.0
 10
5.3679921299288
 20
0.1541712966362078
 30
0.0
 10
5.369732750621402
 20
0.1556393446989218
 30
0.0
 10
5.371260187695943
 20
0.1572968453440899
 30
0.0
 10
5.37259077338076
 20
0.1591236479090621
 30
0.0
 10
5.373684250269509
 20
0.1611397889702916
 30
0.0
 10
5.374566943613813
 20
0.163335284424193
 30
0.0
 10
5.375183277348722
 20
0.165726177598798
 30
0.0
 10
5.375566246985652
 20
0.168310464038639
 30
0.0
 10
5.375608450149529
 20
0.1701000255650247
 30
0.0
 10
5.375630314550435
 20
0.1710271525162617
 30
0.0
  0
SPLINE
  5
134
330
1F
100
AcDbEntity
  8
0
  6
Continuous
 62
     7
370
    25
100
AcDbSpline
210
0.0
220
0.0
230
1.0
 70
     8
 71
     3
 72
    23
 73
    19
 74
     0
 42
0.000000001
 43
0.00000001
 40
0.0
 40
0.0
 40
0.0
 40
0.0
 40
0.0710054063752078
 40
0.1375762152107342
 40
0.2003032527046511
 40
0.2604031925983291
 40
0.3177152079427008
 40
0.3738306474914019
 40
0.4294997037542629
 40
0.4848811865589519
 40
0.5408363383570466
 40
0.5986108345938495
 40
0.658087614412591
 40
0.7194853567469173
 40
0.7841756976171597
 40
0.8520284023422314
 40
0.9241032974735244
 40
0.9999999999999999
 40
0.9999999999999999
 40
0.9999999999999999
 40
0.9999999999999999
 10
5.020158444186404
 20
0.1684996576514893
 30
0.0
 10
5.020143834609049
 20
0.1694054634500752
 30
0.0
 10
5.020115527886213
 20
0.1711605035216282
 30
0.0
 10
5.019802218662782
 20
0.1737009821760854
 30
0.0
 10
5.019266093577214
 20
0.1760596890904504
 30
0.0
 10
5.018551926702352
 20
0.1782453720492664
 30
0.0
 10
5.017659651039392
 20
0.1802786237240475
 30
0.0
 10
5.016476280985043
 20
0.1820893673612935
 30
0.0
 10
5.015140582339874
 20
0.1837553758756614
 30
0.0
 10
5.013597725463744
 20
0.1852330256141374
 30
0.0
 10
5.011860161312587
 20
0.1865184703897236
 30
0.0
 10
5.009951047722966
 20
0.1876356855436286
 30
0.0
 10
5.007888083991168
 20
0.1886096579854505
 30
0.0
 10
5.005651081477157
 20
0.1893956905742413
 30
0.0
 10
5.003242924479604
 20
0.1899703487938137
 30
0.0
 10
5.000670326097463
 20
0.190418385560118
 30
0.0
 10
4.997925124254794
 20
0.190656583054801
 30
0.0
 10
4.996038429509692
 20
0.1906962855724897
 30
0.0
 10
4.995070717380515
 20
0.1907166495492412
 30
0.0
  0
SPLINE
  5
135
330
1F
100
AcDbEntity
  8
0
  6
Continuous
 62
     7
370
    25
100
AcDbSpline
210
0.0
220
0.0
230
1.0
 70
     8
 71
     3
 72
    23
 73
    19
 74
     0
 42
0.000000001
 43
0.00000001
 40
0.0
 40
0.0
 40
0.0
 40
0.0
 40
0.0751634739249996
 40
0.1468242857502625
 40
0.2147004565817453
 40
0.2804081309117876
 40
0.3432989837089229
 40
0.4037240268958695
 40
0.4619008746627905
 40
0.5192753134656111
 40
0.5756421721734727
 40
0.6321926367705156
 40
0.6886003484344243
 40
0.7462950936411826
 40
0.8063376960038238
 40
0.8679986302426642
 40
0.9323916198461174
 40
1.0
 40
1.0
 40
1.0
 40
1.0
 10
4.992668037076966
 20
0.1447848910190574
 30
0.0
 10
4.993698183251225
 20
0.1448033019390436
 30
0.0
 10
4.995710470182042
 20
0.1448392658193141
 30
0.0
 10
4.998645896115751
 20
0.145105997375349
 30
0.0
 10
5.001411324253502
 20
0.1456322199906923
 30
0.0
 10
5.004034193238382
 20
0.146254524697718
 30
0.0
 10
5.006476343380214
 20
0.147137117009989
 30
0.0
 10
5.00872527632926
 20
0.1482048944199035
 30
0.0
 10
5.010818837449391
 20
0.1494138418867428
 30
0.0
 10
5.012681981834918
 20
0.1508653890097864
 30
0.0
 10
5.014390220959982
 20
0.1524615332209937
 30
0.0
 10
5.015885290022842
 20
0.1542434583295496
 30
0.0
 10
5.017185880783122
 20
0.1561950983814502
 30
0.0
 10
5.018235929488831
 20
0.1583430736360966
 30
0.0
 10
5.019132636148369
 20
0.1606393289115316
 30
0.0
 10
5.019697000114252
 20
0.1631326789110569
 30
0.0
 10
5.020094713100354
 20
0.1657617692887323
 30
0.0
 10
5.020136858289447
 20
0.1675723272113155
 30
0.0
 10
5.020158444186404
 20
0.1684996576514893
 30
0.0
  0
SPLINE
  5
139
330
1F
100
AcDbEntity
  8
0
  6
Continuous
 62
     7
370
    25
100
AcDbSpline
210
0.0
220
0.0
230
1.0
 70
     8
 71
     3
 72
    23
 73
    19
 74
     0
 42
0.000000001
 43
0.00000001
 40
0.0
 40
0.0
 40
0.0
 40
0.0
 40
0.0592778177595645
 40
0.1163913973692708
 40
0.1721478876575134
 40
0.2264759683575367
 40
0.280804049057566
 40
0.3347372846926058
 40
0.3892243701867884
 40
0.4460431565357328
 40
0.5044213316926971
 40
0.5647247417857177
 40
0.6287090369173666
 40
0.6959470142967973
 40
0.7662050871176668
 40
0.8405626643936426
 40
0.9179353860272991
 40
1.0
 40
1.0
 40
1.0
 40
1.0
 10
5.37962438050958
 20
0.109899221157138
 30
0.0
 10
5.379603671355535
 20
0.1107641708355583
 30
0.0
 10
5.379563009140414
 20
0.1124624908063403
 30
0.0
 10
5.379145417119884
 20
0.1149461712826913
 30
0.0
 10
5.378460939361685
 20
0.1172916760951154
 30
0.0
 10
5.37751042894929
 20
0.1194977904150621
 30
0.0
 10
5.376336429836082
 20
0.1215654068459099
 30
0.0
 10
5.374874817185902
 20
0.1234425333002988
 30
0.0
 10
5.373208728579027
 20
0.1251898063066308
 30
0.0
 10
5.371270021311878
 20
0.1267388204849804
 30
0.0
 10
5.369101833064403
 20
0.1281041808995207
 30
0.0
 10
5.366737842376923
 20
0.1293378665942111
 30
0.0
 10
5.36414792217567
 20
0.1303936091108037
 30
0.0
 10
5.36133722902968
 20
0.1312583816222375
 30
0.0
 10
5.358323135535636
 20
0.1319478917591521
 30
0.0
 10
5.355120896557072
 20
0.1324313038761817
 30
0.0
 10
5.351724835620841
 20
0.132762756730932
 30
0.0
 10
5.349399300163382
 20
0.1327891223769427
 30
0.0
 10
5.348202314721608
 20
0.1328026931416182
 30
0.0
  0
SPLINE
  5
13A
330
1F
100
AcDbEntity
  8
0
  6
Continuous
 62
     7
370
    25
100
AcDbSpline
210
0.0
220
0.0
230
1.0
 70
     8
 71
     3
 72
    23
 73
    19
 74
     0
 42
0.000000001
 43
0.00000001
 40
0.0
 40
0.0
 40
0.0
 40
0.0
 40
0.0829188246341062
 40
0.1598938815039178
 40
0.232556423381968
 40
0.3006958272261101
 40
0.363755676483234
 40
0.4236747435210287
 40
0.4807003096789275
 40
0.5348597706980072
 40
0.5877167410054559
 40
0.6406978721524921
 40
0.6942911149704591
 40
0.7497520955113242
 40
0.8069461275197126
 40
0.8672827812805172
 40
0.9314383149165592
 40
0.9999999999999999
 40
0.9999999999999999
 40
0.9999999999999999
 40
0.9999999999999999
 10
5.348826387527725
 20
0.0848739016318613
 30
0.0
 10
5.350085580412355
 20
0.0848899616119931
 30
0.0
 10
5.352513705012215
 20
0.0849209303645227
 30
0.0
 10
5.356034790042459
 20
0.0852116731166107
 30
0.0
 10
5.359314233223083
 20
0.0856559783753027
 30
0.0
 10
5.362334506637922
 20
0.0863502100761945
 30
0.0
 10
5.365113106637476
 20
0.0871920729133823
 30
0.0
 10
5.367658437335325
 20
0.0882047054733379
 30
0.0
 10
5.369933196131065
 20
0.0894688674972561
 30
0.0
 10
5.37200162511503
 20
0.0908670673256352
 30
0.0
 10
5.373793970651505
 20
0.0925182186902727
 30
0.0
 10
5.375371704443179
 20
0.0943631960016872
 30
0.0
 10
5.376683791926514
 20
0.0964530106742377
 30
0.0
 10
5.377778536348941
 20
0.0987330630840149
 30
0.0
 10
5.378625189680166
 20
0.1012261266258255
 30
0.0
 10
5.37921181331242
 20
0.1039265381512978
 30
0.0
 10
5.379550228662372
 20
0.1068430482575082
 30
0.0
 10
5.379599122146679
 20
0.1088581961915504
 30
0.0
 10
5.37962438050958
 20
0.109899221157138
 30
0.0
  0
SPLINE
  5
13E
330
1F
100
AcDbEntity
  8
0
  6
Continuous
 62
     7
370
    25
100
AcDbSpline
210
0.0
220
0.0
230
1.0
 70
     8
 71
     3
 72
    21
 73
    17
 74
     0
 42
0.000000001
 43
0.00000001
 40
0.0
 40
0.0
 40
0.0
 40
0.0
 40
0.1481099039642216
 40
0.2834111377086846
 40
0.3473298973787405
 40
0.4080164734869304
 40
0.4665361356180702
 40
0.5238711608478785
 40
0.5798789656630087
 40
0.6357582137558763
 40
0.6911959771072443
 40
0.747667346791908
 40
0.8060331849590965
 40
0.8668726428551377
 40
0.9310300546049178
 40
1.0
 40
1.0
 40
1.0
 40
1.0
 10
4.758827956625066
 20
0.1487789569782039
 30
0.0
 10
4.760818987613896
 20
0.1488429872156165
 30
0.0
 10
4.764628863541528
 20
0.1489655103011574
 30
0.0
 10
4.769238772161994
 20
0.1497939278835653
 30
0.0
 10
4.772599796520958
 20
0.1507683127019424
 30
0.0
 10
4.77484711161896
 20
0.1517785946362601
 30
0.0
 10
4.776973195098452
 20
0.1528391875683779
 30
0.0
 10
4.778867400954705
 20
0.1541712966362085
 30
0.0
 10
4.780608021647306
 20
0.1556393446989218
 30
0.0
 10
4.782135458721847
 20
0.1572968453440896
 30
0.0
 10
4.783466044406662
 20
0.1591236479090623
 30
0.0
 10
4.784559521295414
 20
0.1611397889702914
 30
0.0
 10
4.785442214639716
 20
0.163335284424193
 30
0.0
 10
4.786058548374627
 20
0.165726177598798
 30
0.0
 10
4.786441518011554
 20
0.168310464038639
 30
0.0
 10
4.786483721175434
 20
0.1701000255650247
 30
0.0
 10
4.786505585576339
 20
0.1710271525162617
 30
0.0
  0
SPLINE
  5
13F
330
1F
100
AcDbEntity
  8
0
  6
Continuous
 62
     7
370
    25
100
AcDbSpline
210
0.0
220
0.0
230
1.0
 70
     8
 71
     3
 72
    21
 73
    17
 74
     0
 42
0.000000001
 43
0.00000001
 40
0.0
 40
0.0
 40
0.0
 40
0.0
 40
0.1048107603491785
 40
0.2057872535497627
 40
0.2552082568884593
 40
0.3053322017717666
 40
0.3546722312657896
 40
0.4066370344808481
 40
0.460842692156283
 40
0.5189640449736391
 40
0.5822085159551507
 40
0.6511354365166201
 40
0.7259770992546145
 40
0.8086500759068637
 40
0.9003756127111068
 40
1.0
 40
1.0
 40
1.0
 40
1.0
 10
4.786505585576339
 20
0.1710271525162617
 30
0.0
 10
4.786448273937234
 20
0.1723641121755995
 30
0.0
 10
4.786335747277101
 20
0.1749891218166455
 30
0.0
 10
4.785526398156444
 20
0.1781641629164242
 30
0.0
 10
4.784578558488343
 20
0.180540807239294
 30
0.0
 10
4.783619182760908
 20
0.1821876194594708
 30
0.0
 10
4.782393498861241
 20
0.1836860886683645
 30
0.0
 10
4.780953328093821
 20
0.1850522173888253
 30
0.0
 10
4.779284925841317
 20
0.1863265808609846
 30
0.0
 10
4.777319777866468
 20
0.1874086900682035
 30
0.0
 10
4.775092766785369
 20
0.1883732985416852
 30
0.0
 10
4.772589300554507
 20
0.1892138594676098
 30
0.0
 10
4.769784686639442
 20
0.1899046058070596
 30
0.0
 10
4.76664417209283
 20
0.1904001757870708
 30
0.0
 10
4.763159528733728
 20
0.1906655473506938
 30
0.0
 10
4.760721410719984
 20
0.1906991530726787
 30
0.0
 10
4.759452029431183
 20
0.1907166495492412
 30
0.0
  0
SPLINE
  5
143
330
1F
100
AcDbEntity
  8
0
  6
Continuous
 62
     7
370
    25
100
AcDbSpline
210
0.0
220
0.0
230
1.0
 70
     8
 71
     3
 72
    23
 73
    19
 74
     0
 42
0.000000001
 43
0.00000001
 40
0.0
 40
0.0
 40
0.0
 40
0.0
 40
0.0829188246341173
 40
0.15989388150394
 40
0.2325564233819777
 40
0.3006958272261073
 40
0.3637556764832306
 40
0.4236747435210467
 40
0.480700309678924
 40
0.5348597706980031
 40
0.5877167410054599
 40
0.6406978721524955
 40
0.6942911149704619
 40
0.7497520955113268
 40
0.8069461275197146
 40
0.8672827812805206
 40
0.9314383149165594
 40
1.0
 40
1.0
 40
1.0
 40
1.0
 10
4.759701658553629
 20
0.0848739016318613
 30
0.0
 10
4.760960851438259
 20
0.0848899616119931
 30
0.0
 10
4.763388976038121
 20
0.0849209303645227
 30
0.0
 10
4.76691006106836
 20
0.0852116731166106
 30
0.0
 10
4.770189504248989
 20
0.0856559783753027
 30
0.0
 10
4.773209777663825
 20
0.0863502100761945
 30
0.0
 10
4.775988377663383
 20
0.0871920729133826
 30
0.0
 10
4.778533708361229
 20
0.0882047054733374
 30
0.0
 10
4.780808467156969
 20
0.0894688674972563
 30
0.0
 10
4.782876896140935
 20
0.0908670673256353
 30
0.0
 10
4.784669241677407
 20
0.0925182186902724
 30
0.0
 10
4.786246975469086
 20
0.0943631960016872
 30
0.0
 10
4.787559062952416
 20
0.0964530106742375
 30
0.0
 10
4.788653807374846
 20
0.0987330630840149
 30
0.0
 10
4.789500460706068
 20
0.1012261266258255
 30
0.0
 10
4.790087084338327
 20
0.1039265381512976
 30
0.0
 10
4.790425499688273
 20
0.1068430482575084
 30
0.0
 10
4.790474393172583
 20
0.1088581961915504
 30
0.0
 10
4.790499651535485
 20
0.109899221157138
 30
0.0
  0
SPLINE
  5
144
330
1F
100
AcDbEntity
  8
0
  6
Continuous
 62
     7
370
    25
100
AcDbSpline
210
0.0
220
0.0
230
1.0
 70
     8
 71
     3
 72
    23
 73
    19
 74
     0
 42
0.000000001
 43
0.00000001
 40
0.0
 40
0.0
 40
0.0
 40
0.0
 40
0.0592778177595662
 40
0.1163913973692726
 40
0.1721478876575082
 40
0.2264759683575411
 40
0.2808040490575708
 40
0.3347372846925952
 40
0.3892243701867779
 40
0.4460431565357226
 40
0.504421331692708
 40
0.5647247417857287
 40
0.628709036917366
 40
0.6959470142967967
 40
0.7662050871176787
 40
0.8405626643936421
 40
0.9179353860272988
 40
0.9999999999999999
 40
0.9999999999999999
 40
0.9999999999999999
 40
0.9999999999999999
 10
4.790499651535485
 20
0.109899221157138
 30
0.0
 10
4.79047894238144
 20
0.1107641708355583
 30
0.0
 10
4.790438280166318
 20
0.1124624908063403
 30
0.0
 10
4.790020688145787
 20
0.1149461712826912
 30
0.0
 10
4.78933621038759
 20
0.1172916760951158
 30
0.0
 10
4.788385699975194
 20
0.119497790415062
 30
0.0
 10
4.787211700861985
 20
0.1215654068459096
 30
0.0
 10
4.785750088211809
 20
0.1234425333002992
 30
0.0
 10
4.78408399960493
 20
0.1251898063066306
 30
0.0
 10
4.782145292337781
 20
0.1267388204849806
 30
0.0
 10
4.779977104090306
 20
0.1281041808995203
 30
0.0
 10
4.77761311340283
 20
0.1293378665942111
 30
0.0
 10
4.775023193201571
 20
0.1303936091108037
 30
0.0
 10
4.772212500055586
 20
0.1312583816222376
 30
0.0
 10
4.769198406561538
 20
0.1319478917591518
 30
0.0
 10
4.765996167582977
 20
0.1324313038761819
 30
0.0
 10
4.762600106646742
 20
0.132762756730932
 30
0.0
 10
4.760274571189287
 20
0.1327891223769427
 30
0.0
 10
4.759077585747513
 20
0.1328026931416182
 30
0.0
  0
LINE
  5
145
330
1F
100
AcDbEntity
  8
0
  6
Continuous
 62
     7
370
    25
100
AcDbLine
 10
5.5393870189
 20
0.2066929134
 30
0.0
 11
5.6392386679
 21
0.2066929134
 31
0.0
  0
LINE
  5
146
330
1F
100
AcDbEntity
  8
0
  6
Continuous
 62
     7
370
    25
100
AcDbLine
 10
5.5393870189
 20
0.1907166495
 30
0.0
 11
5.5393870189
 21
0.2066929134
 31
0.0
  0
LINE
  5
147
330
1F
100
AcDbEntity
  8
0
  6
Continuous
 62
     7
370
    25
100
AcDbLine
 10
5.5793276785
 20
0.1907166495
 30
0.0
 11
5.5393870189
 21
0.1907166495
 31
0.0
  0
LINE
  5
148
330
1F
100
AcDbEntity
  8
0
  6
Continuous
 62
     7
370
    25
100
AcDbLine
 10
5.5793276785
 20
0.0688976378
 30
0.0
 11
5.5793276785
 21
0.1907166495
 31
0.0
  0
LINE
  5
149
330
1F
100
AcDbEntity
  8
0
  6
Continuous
 62
     7
370
    25
100
AcDbLine
 10
5.5992980083
 20
0.0688976378
 30
0.0
 11
5.5793276785
 21
0.0688976378
 31
0.0
  0
LINE
  5
14A
330
1F
100
AcDbEntity
  8
0
  6
Continuous
 62
     7
370
    25
100
AcDbLine
 10
5.5992980083
 20
0.1907166495
 30
0.0
 11
5.5992980083
 21
0.0688976378
 31
0.0
  0
LINE
  5
14B
330
1F
100
AcDbEntity
  8
0
  6
Continuous
 62
     7
370
    25
100
AcDbLine
 10
5.6392386679
 20
0.1907166495
 30
0.0
 11
5.5992980083
 21
0.1907166495
 31
0.0
  0
LINE
  5
14C
330
1F
100
AcDbEntity
  8
0
  6
Continuous
 62
     7
370
    25
100
AcDbLine
 10
5.6392386679
 20
0.2066929134
 30
0.0
 11
5.6392386679
 21
0.1907166495
 31
0.0
  0
LINE
  5
14D
330
1F
100
AcDbEntity
  8
0
  6
Continuous
 62
     7
370
    25
100
AcDbLine
 10
5.3097282262
 20
0.2066929134
 30
0.0
 11
5.3493256458
 21
0.2066929134
 31
0.0
  0
LINE
  5
14E
330
1F
100
AcDbEntity
  8
0
  6
Continuous
 62
     7
370
    25
100
AcDbLine
 10
5.3097282262
 20
0.0688976378
 30
0.0
 11
5.3097282262
 21
0.2066929134
 31
0.0
  0
LINE
  5
14F
330
1F
100
AcDbEntity
  8
0
  6
Continuous
 62
     7
370
    25
100
AcDbLine
 10
5.3455500053
 20
0.0688976378
 30
0.0
 11
5.3097282262
 21
0.0688976378
 31
0.0
  0
LINE
  5
150
330
1F
100
AcDbEntity
  8
0
  6
Continuous
 62
     7
370
    25
100
AcDbLine
 10
5.1459715219
 20
0.2066929134
 30
0.0
 11
5.1659418517
 21
0.2066929134
 31
0.0
  0
LINE
  5
151
330
1F
100
AcDbEntity
  8
0
  6
Continuous
 62
     7
370
    25
100
AcDbLine
 10
5.1459715219
 20
0.148778957
 30
0.0
 11
5.1459715219
 21
0.2066929134
 31
0.0
  0
LINE
  5
152
330
1F
100
AcDbEntity
  8
0
  6
Continuous
 62
     7
370
    25
100
AcDbLine
 10
5.0900545985
 20
0.148778957
 30
0.0
 11
5.1459715219
 21
0.148778957
 31
0.0
  0
LINE
  5
153
330
1F
100
AcDbEntity
  8
0
  6
Continuous
 62
     7
370
    25
100
AcDbLine
 10
5.0900545985
 20
0.2066929134
 30
0.0
 11
5.0900545985
 21
0.148778957
 31
0.0
  0
LINE
  5
154
330
1F
100
AcDbEntity
  8
0
  6
Continuous
 62
     7
370
    25
100
AcDbLine
 10
5.0700842687
 20
0.2066929134
 30
0.0
 11
5.0900545985
 21
0.2066929134
 31
0.0
  0
LINE
  5
155
330
1F
100
AcDbEntity
  8
0
  6
Continuous
 62
     7
370
    25
100
AcDbLine
 10
5.0700842687
 20
0.0688976378
 30
0.0
 11
5.0700842687
 21
0.2066929134
 31
0.0
  0
LINE
  5
156
330
1F
100
AcDbEntity
  8
0
  6
Continuous
 62
     7
370
    25
100
AcDbLine
 10
5.0900545985
 20
0.0688976378
 30
0.0
 11
5.0700842687
 21
0.0688976378
 31
0.0
  0
LINE
  5
157
330
1F
100
AcDbEntity
  8
0
  6
Continuous
 62
     7
370
    25
100
AcDbLine
 10
5.0900545985
 20
0.1328026931
 30
0.0
 11
5.0900545985
 21
0.0688976378
 31
0.0
  0
LINE
  5
158
330
1F
100
AcDbEntity
  8
0
  6
Continuous
 62
     7
370
    25
100
AcDbLine
 10
5.1459715219
 20
0.1328026931
 30
0.0
 11
5.0900545985
 21
0.1328026931
 31
0.0
  0
LINE
  5
159
330
1F
100
AcDbEntity
  8
0
  6
Continuous
 62
     7
370
    25
100
AcDbLine
 10
5.1459715219
 20
0.0688976378
 30
0.0
 11
5.1459715219
 21
0.1328026931
 31
0.0
  0
LINE
  5
15A
330
1F
100
AcDbEntity
  8
0
  6
Continuous
 62
     7
370
    25
100
AcDbLine
 10
5.1659418517
 20
0.0688976378
 30
0.0
 11
5.1459715219
 21
0.0688976378
 31
0.0
  0
LINE
  5
15B
330
1F
100
AcDbEntity
  8
0
  6
Continuous
 62
     7
370
    25
100
AcDbLine
 10
5.1659418517
 20
0.2066929134
 30
0.0
 11
5.1659418517
 21
0.0688976378
 31
0.0
  0
LINE
  5
15C
330
1F
100
AcDbEntity
  8
0
  6
Continuous
 62
     7
370
    25
100
AcDbLine
 10
4.8663869048
 20
0.0848739016
 30
0.0
 11
4.9262978941
 21
0.0848739016
 31
0.0
  0
LINE
  5
15D
330
1F
100
AcDbEntity
  8
0
  6
Continuous
 62
     7
370
    25
100
AcDbLine
 10
4.8663869048
 20
0.2066929134
 30
0.0
 11
4.8663869048
 21
0.0848739016
 31
0.0
  0
LINE
  5
15E
330
1F
100
AcDbEntity
  8
0
  6
Continuous
 62
     7
370
    25
100
AcDbLine
 10
4.846416575
 20
0.2066929134
 30
0.0
 11
4.8663869048
 21
0.2066929134
 31
0.0
  0
LINE
  5
15F
330
1F
100
AcDbEntity
  8
0
  6
Continuous
 62
     7
370
    25
100
AcDbLine
 10
4.846416575
 20
0.0688976378
 30
0.0
 11
4.846416575
 21
0.2066929134
 31
0.0
  0
LINE
  5
160
330
1F
100
AcDbEntity
  8
0
  6
Continuous
 62
     7
370
    25
100
AcDbLine
 10
4.9262978941
 20
0.0688976378
 30
0.0
 11
4.846416575
 21
0.0688976378
 31
0.0
  0
LINE
  5
161
330
1F
100
AcDbEntity
  8
0
  6
Continuous
 62
     7
370
    25
100
AcDbLine
 10
4.9262978941
 20
0.0848739016
 30
0.0
 11
4.9262978941
 21
0.0688976378
 31
0.0
  0
LINE
  5
162
330
1F
100
AcDbEntity
  8
0
  6
Continuous
 62
     7
370
    25
100
AcDbLine
 10
4.5967874525
 20
0.2066929134
 30
0.0
 11
4.6966391015
 21
0.2066929134
 31
0.0
  0
LINE
  5
163
330
1F
100
AcDbEntity
  8
0
  6
Continuous
 62
     7
370
    25
100
AcDbLine
 10
4.5967874525
 20
0.1907166495
 30
0.0
 11
4.5967874525
 21
0.2066929134
 31
0.0
  0
LINE
  5
164
330
1F
100
AcDbEntity
  8
0
  6
Continuous
 62
     7
370
    25
100
AcDbLine
 10
4.6367281121
 20
0.1907166495
 30
0.0
 11
4.5967874525
 21
0.1907166495
 31
0.0
  0
LINE
  5
165
330
1F
100
AcDbEntity
  8
0
  6
Continuous
 62
     7
370
    25
100
AcDbLine
 10
4.6367281121
 20
0.0688976378
 30
0.0
 11
4.6367281121
 21
0.1907166495
 31
0.0
  0
LINE
  5
166
330
1F
100
AcDbEntity
  8
0
  6
Continuous
 62
     7
370
    25
100
AcDbLine
 10
4.6566984419
 20
0.0688976378
 30
0.0
 11
4.6367281121
 21
0.0688976378
 31
0.0
  0
LINE
  5
167
330
1F
100
AcDbEntity
  8
0
  6
Continuous
 62
     7
370
    25
100
AcDbLine
 10
4.6566984419
 20
0.1907166495
 30
0.0
 11
4.6566984419
 21
0.0688976378
 31
0.0
  0
LINE
  5
168
330
1F
100
AcDbEntity
  8
0
  6
Continuous
 62
     7
370
    25
100
AcDbLine
 10
4.6966391015
 20
0.1907166495
 30
0.0
 11
4.6566984419
 21
0.1907166495
 31
0.0
  0
LINE
  5
169
330
1F
100
AcDbEntity
  8
0
  6
Continuous
 62
     7
370
    25
100
AcDbLine
 10
4.6966391015
 20
0.2066929134
 30
0.0
 11
4.6966391015
 21
0.1907166495
 31
0.0
  0
LINE
  5
16A
330
1F
100
AcDbEntity
  8
0
  6
Continuous
 62
     7
370
    25
100
AcDbLine
 10
3.6997055601
 20
1.1811023592
 30
0.0
 11
3.8613180619
 21
1.1811023592
 31
0.0
  0
LINE
  5
16B
330
1F
100
AcDbEntity
  8
0
  6
Continuous
 62
     7
370
    25
100
AcDbLine
 10
3.905511811
 20
1.2252961083
 30
0.0
 11
3.905511811
 21
1.5306093974
 31
0.0
  0
LINE
  5
16C
330
1F
100
AcDbEntity
  8
0
  6
Continuous
 62
     7
370
    25
100
AcDbLine
 10
3.8613180619
 20
1.5748031466
 30
0.0
 11
3.6997055601
 21
1.5748031466
 31
0.0
  0
LINE
  5
16D
330
1F
100
AcDbEntity
  8
0
  6
Continuous
 62
     7
370
    25
100
AcDbLine
 10
3.655511811
 20
1.5306093974
 30
0.0
 11
3.655511811
 21
1.2252961083
 31
0.0
  0
LINE
  5
16E
330
1F
100
AcDbEntity
  8
0
  6
Continuous
 62
     7
370
    25
100
AcDbLine
 10
9.4930126454
 20
1.8435039392
 30
0.0
 11
9.7983259373
 21
1.8435039392
 31
0.0
  0
LINE
  5
16F
330
1F
100
AcDbEntity
  8
0
  6
Continuous
 62
     7
370
    25
100
AcDbLine
 10
9.8425196863
 20
1.8876976884
 30
0.0
 11
9.8425196863
 21
1.9685039392
 31
0.0
  0
LINE
  5
170
330
1F
100
AcDbEntity
  8
0
  6
Continuous
 62
     7
370
    25
100
AcDbLine
 10
11.561023622
 20
1.9685039383
 30
0.0
 11
9.8425196863
 21
1.9685039392
 31
0.0
  0
LINE
  5
171
330
1F
100
AcDbEntity
  8
0
  6
Continuous
 62
     7
370
    25
100
AcDbLine
 10
11.561023622
 20
1.6189968974
 30
0.0
 11
11.561023622
 21
1.9685039383
 31
0.0
  0
LINE
  5
172
330
1F
100
AcDbEntity
  8
0
  6
Continuous
 62
     7
370
    25
100
AcDbLine
 10
11.811023622
 20
1.5748031483
 30
0.0
 11
11.6052173712
 21
1.5748031483
 31
0.0
  0
LINE
  5
173
330
1F
100
AcDbEntity
  8
0
  6
Continuous
 62
     7
370
    25
100
AcDbLine
 10
11.811023622
 20
1.1811023635
 30
0.0
 11
11.811023622
 21
1.5748031483
 31
0.0
  0
LINE
  5
174
330
1F
100
AcDbEntity
  8
0
  6
Continuous
 62
     7
370
    25
100
AcDbLine
 10
11.6052173712
 20
1.1811023635
 30
0.0
 11
11.811023622
 21
1.1811023635
 31
0.0
  0
LINE
  5
175
330
1F
100
AcDbEntity
  8
0
  6
Continuous
 62
     7
370
    25
100
AcDbLine
 10
11.561023622
 20
0.8315953213
 30
0.0
 11
11.561023622
 21
1.1369086144
 31
0.0
  0
LINE
  5
176
330
1F
100
AcDbEntity
  8
0
  6
Continuous
 62
     7
370
    25
100
AcDbLine
 10
11.811023622
 20
0.7874015735
 30
0.0
 11
11.6052173725
 21
0.7874015735
 31
0.0
  0
LINE
  5
177
330
1F
100
AcDbEntity
  8
0
  6
Continuous
 62
     7
370
    25
100
AcDbLine
 10
11.811023622
 20
0.3937007887
 30
0.0
 11
11.811023622
 21
0.7874015735
 31
0.0
  0
LINE
  5
178
330
1F
100
AcDbEntity
  8
0
  6
Continuous
 62
     7
370
    25
100
AcDbLine
 10
11.6052173699
 20
0.3937007887
 30
0.0
 11
11.811023622
 21
0.3937007887
 31
0.0
  0
LINE
  5
179
330
1F
100
AcDbEntity
  8
0
  6
Continuous
 62
     7
370
    25
100
AcDbLine
 10
11.561023622
 20
-0.0000000013
 30
0.0
 11
11.561023622
 21
0.3495070383
 31
0.0
  0
LINE
  5
17A
330
1F
100
AcDbEntity
  8
0
  6
Continuous
 62
     7
370
    25
100
AcDbLine
 10
11.0236220485
 20
0.0
 30
0.0
 11
11.561023622
 21
-0.0000000013
 31
0.0
  0
LINE
  5
17B
330
1F
100
AcDbEntity
  8
0
  6
Continuous
 62
     7
370
    25
100
AcDbLine
 10
11.0236220485
 20
0.0
 30
0.0
 11
11.0236220485
 21
0.2058062509
 31
0.0
  0
LINE
  5
17C
330
1F
100
AcDbEntity
  8
0
  6
Continuous
 62
     7
370
    25
100
AcDbLine
 10
10.6299212585
 20
0.2058062509
 30
0.0
 11
10.6299212585
 21
0.0
 31
0.0
  0
LINE
  5
17D
330
1F
100
AcDbEntity
  8
0
  6
Continuous
 62
     7
370
    25
100
AcDbLine
 10
9.8425196863
 20
0.0
 30
0.0
 11
10.6299212585
 21
0.0
 31
0.0
  0
LINE
  5
17E
330
1F
100
AcDbEntity
  8
0
  6
Continuous
 62
     7
370
    25
100
AcDbLine
 10
9.8425196863
 20
0.0
 30
0.0
 11
9.8425196863
 21
0.2058062509
 31
0.0
  0
LINE
  5
17F
330
1F
100
AcDbEntity
  8
0
  6
Continuous
 62
     7
370
    25
100
AcDbLine
 10
9.7983259372
 20
0.25
 30
0.0
 11
9.4930126455
 21
0.25
 31
0.0
  0
LINE
  5
180
330
1F
100
AcDbEntity
  8
0
  6
Continuous
 62
     7
370
    25
100
AcDbLine
 10
9.4488188963
 20
0.2058062509
 30
0.0
 11
9.4488188963
 21
0.0
 31
0.0
  0
LINE
  5
181
330
1F
100
AcDbEntity
  8
0
  6
Continuous
 62
     7
370
    25
100
AcDbLine
 10
6.102362206
 20
0.0
 30
0.0
 11
9.4488188963
 21
0.0
 31
0.0
  0
LINE
  5
182
330
1F
100
AcDbEntity
  8
0
  6
Continuous
 62
     7
370
    25
100
AcDbLine
 10
6.102362206
 20
0.0
 30
0.0
 11
6.102362206
 21
0.2058062509
 31
0.0
  0
LINE
  5
183
330
1F
100
AcDbEntity
  8
0
  6
Continuous
 62
     7
370
    25
100
AcDbLine
 10
6.0581684569
 20
0.25
 30
0.0
 11
5.7528551651
 21
0.25
 31
0.0
  0
LINE
  5
184
330
1F
100
AcDbEntity
  8
0
  6
Continuous
 62
     7
370
    25
100
AcDbLine
 10
5.708661416
 20
0.2058062509
 30
0.0
 11
5.708661416
 21
0.0
 31
0.0
  0
LINE
  5
185
330
1F
100
AcDbEntity
  8
0
  6
Continuous
 62
     7
370
    25
100
AcDbLine
 10
2.3622047257
 20
0.0
 30
0.0
 11
5.708661416
 21
0.0
 31
0.0
  0
LINE
  5
186
330
1F
100
AcDbEntity
  8
0
  6
Continuous
 62
     7
370
    25
100
AcDbLine
 10
2.3622047257
 20
0.0
 30
0.0
 11
2.3622047257
 21
0.2058062509
 31
0.0
  0
LINE
  5
187
330
1F
100
AcDbEntity
  8
0
  6
Continuous
 62
     7
370
    25
100
AcDbLine
 10
2.3180109766
 20
0.25
 30
0.0
 11
2.0126976848
 21
0.25
 31
0.0
  0
LINE
  5
188
330
1F
100
AcDbEntity
  8
0
  6
Continuous
 62
     7
370
    25
100
AcDbLine
 10
1.9685039357
 20
0.2058062509
 30
0.0
 11
1.9685039357
 21
0.0
 31
0.0
  0
LINE
  5
189
330
1F
100
AcDbEntity
  8
0
  6
Continuous
 62
     7
370
    25
100
AcDbLine
 10
1.1811023635
 20
0.0
 30
0.0
 11
1.9685039357
 21
0.0
 31
0.0
  0
LINE
  5
18A
330
1F
100
AcDbEntity
  8
0
  6
Continuous
 62
     7
370
    25
100
AcDbLine
 10
1.1811023635
 20
0.0
 30
0.0
 11
1.1811023635
 21
0.2058062509
 31
0.0
  0
LINE
  5
18B
330
1F
100
AcDbEntity
  8
0
  6
Continuous
 62
     7
370
    25
100
AcDbLine
 10
1.1369086144
 20
0.25
 30
0.0
 11
0.8315953226
 21
0.25
 31
0.0
  0
LINE
  5
18C
330
1F
100
AcDbEntity
  8
0
  6
Continuous
 62
     7
370
    25
100
AcDbLine
 10
0.7874015735
 20
0.2058062509
 30
0.0
 11
0.7874015735
 21
0.0
 31
0.0
  0
LINE
  5
18D
330
1F
100
AcDbEntity
  8
0
  6
Continuous
 62
     7
370
    25
100
AcDbLine
 10
0.25
 20
-0.0000000013
 30
0.0
 11
0.7874015735
 21
0.0
 31
0.0
  0
LINE
  5
18E
330
1F
100
AcDbEntity
  8
0
  6
Continuous
 62
     7
370
    25
100
AcDbLine
 10
0.25
 20
-0.0000000013
 30
0.0
 11
0.25
 21
0.3495070383
 31
0.0
  0
LINE
  5
18F
330
1F
100
AcDbEntity
  8
0
  6
Continuous
 62
     7
370
    25
100
AcDbLine
 10
0.2058062522
 20
0.3937007887
 30
0.0
 11
0.0
 21
0.3937007887
 31
0.0
  0
LINE
  5
190
330
1F
100
AcDbEntity
  8
0
  6
Continuous
 62
     7
370
    25
100
AcDbLine
 10
0.0
 20
0.7874015735
 30
0.0
 11
0.0
 21
0.3937007887
 31
0.0
  0
LINE
  5
191
330
1F
100
AcDbEntity
  8
0
  6
Continuous
 62
     7
370
    25
100
AcDbLine
 10
0.0
 20
0.7874015735
 30
0.0
 11
0.2058062496
 21
0.7874015735
 31
0.0
  0
LINE
  5
192
330
1F
100
AcDbEntity
  8
0
  6
Continuous
 62
     7
370
    25
100
AcDbLine
 10
0.25
 20
0.8315953213
 30
0.0
 11
0.25
 21
1.1369086144
 31
0.0
  0
LINE
  5
193
330
1F
100
AcDbEntity
  8
0
  6
Continuous
 62
     7
370
    25
100
AcDbLine
 10
0.2058062509
 20
1.1811023635
 30
0.0
 11
0.0
 21
1.1811023635
 31
0.0
  0
LINE
  5
194
330
1F
100
AcDbEntity
  8
0
  6
Continuous
 62
     7
370
    25
100
AcDbLine
 10
0.0
 20
1.5748031483
 30
0.0
 11
0.0
 21
1.1811023635
 31
0.0
  0
LINE
  5
195
330
1F
100
AcDbEntity
  8
0
  6
Continuous
 62
     7
370
    25
100
AcDbLine
 10
0.0
 20
1.5748031483
 30
0.0
 11
0.2058062509
 21
1.5748031483
 31
0.0
  0
LINE
  5
196
330
1F
100
AcDbEntity
  8
0
  6
Continuous
 62
     7
370
    25
100
AcDbLine
 10
0.25
 20
1.6189968974
 30
0.0
 11
0.25
 21
1.968503937
 31
0.0
  0
LINE
  5
197
330
1F
100
AcDbEntity
  8
0
  6
Continuous
 62
     7
370
    25
100
AcDbLine
 10
1.9685039357
 20
1.9685039374
 30
0.0
 11
0.25
 21
1.968503937
 31
0.0
  0
LINE
  5
198
330
1F
100
AcDbEntity
  8
0
  6
Continuous
 62
     7
370
    25
100
AcDbLine
 10
1.9685039357
 20
1.9685039374
 30
0.0
 11
1.9685039357
 21
1.8876976864
 31
0.0
  0
LINE
  5
199
330
1F
100
AcDbEntity
  8
0
  6
Continuous
 62
     7
370
    25
100
AcDbLine
 10
2.0126976849
 20
1.8435039374
 30
0.0
 11
2.3180109765
 21
1.8435039374
 31
0.0
  0
LINE
  5
19A
330
1F
100
AcDbEntity
  8
0
  6
Continuous
 62
     7
370
    25
100
AcDbLine
 10
2.3622047257
 20
1.8876976864
 30
0.0
 11
2.3622047257
 21
1.9685039374
 31
0.0
  0
LINE
  5
19B
330
1F
100
AcDbEntity
  8
0
  6
Continuous
 62
     7
370
    25
100
AcDbLine
 10
5.708661416
 20
1.9685039383
 30
0.0
 11
2.3622047257
 21
1.9685039374
 31
0.0
  0
LINE
  5
19C
330
1F
100
AcDbEntity
  8
0
  6
Continuous
 62
     7
370
    25
100
AcDbLine
 10
5.708661416
 20
1.9685039383
 30
0.0
 11
5.708661416
 21
1.8876976874
 31
0.0
  0
LINE
  5
19D
330
1F
100
AcDbEntity
  8
0
  6
Continuous
 62
     7
370
    25
100
AcDbLine
 10
5.7528551651
 20
1.8435039383
 30
0.0
 11
6.0581684569
 21
1.8435039383
 31
0.0
  0
LINE
  5
19E
330
1F
100
AcDbEntity
  8
0
  6
Continuous
 62
     7
370
    25
100
AcDbLine
 10
6.102362206
 20
1.8876976874
 30
0.0
 11
6.102362206
 21
1.9685039383
 31
0.0
  0
LINE
  5
19F
330
1F
100
AcDbEntity
  8
0
  6
Continuous
 62
     7
370
    25
100
AcDbLine
 10
9.4488188963
 20
1.9685039392
 30
0.0
 11
6.102362206
 21
1.9685039383
 31
0.0
  0
LINE
  5
1A0
330
1F
100
AcDbEntity
  8
0
  6
Continuous
 62
     7
370
    25
100
AcDbLine
 10
9.4488188963
 20
1.9685039392
 30
0.0
 11
9.4488188963
 21
1.8876976884
 31
0.0
  0
LINE
  5
1A1
330
1F
100
AcDbEntity
  8
0
  6
Continuous
 62
     7
370
    25
100
AcDbLine
 10
7.905511811
 20
1.5306093957
 30
0.0
 11
7.905511811
 21
1.2252961065
 31
0.0
  0
LINE
  5
1A2
330
1F
100
AcDbEntity
  8
0
  6
Continuous
 62
     7
370
    25
100
AcDbLine
 10
7.9497055601
 20
1.1811023574
 30
0.0
 11
8.1113180619
 21
1.1811023574
 31
0.0
  0
LINE
  5
1A3
330
1F
100
AcDbEntity
  8
0
  6
Continuous
 62
     7
370
    25
100
AcDbLine
 10
8.155511811
 20
1.2252961065
 30
0.0
 11
8.155511811
 21
1.5306093957
 31
0.0
  0
LINE
  5
1A4
330
1F
100
AcDbEntity
  8
0
  6
Continuous
 62
     7
370
    25
100
AcDbLine
 10
8.1113180619
 20
1.5748031448
 30
0.0
 11
7.9497055601
 21
1.5748031448
 31
0.0
  0
LINE
  5
1A5
330
1F
100
AcDbEntity
  8
0
  6
Continuous
 62
     7
370
    25
100
AcDbLine
 10
7.905511811
 20
0.7432078257
 30
0.0
 11
7.905511811
 21
0.4378945365
 31
0.0
  0
LINE
  5
1A6
330
1F
100
AcDbEntity
  8
0
  6
Continuous
 62
     7
370
    25
100
AcDbLine
 10
7.9497055601
 20
0.3937007874
 30
0.0
 11
8.1113180619
 21
0.3937007874
 31
0.0
  0
LINE
  5
1A7
330
1F
100
AcDbEntity
  8
0
  6
Continuous
 62
     7
370
    25
100
AcDbLine
 10
8.155511811
 20
0.4378945365
 30
0.0
 11
8.155511811
 21
0.7432078257
 31
0.0
  0
LINE
  5
1A8
330
1F
100
AcDbEntity
  8
0
  6
Continuous
 62
     7
370
    25
100
AcDbLine
 10
8.1113180619
 20
0.7874015748
 30
0.0
 11
7.9497055601
 21
0.7874015748
 31
0.0
  0
LINE
  5
1A9
330
1F
100
AcDbEntity
  8
0
  6
Continuous
 62
     7
370
    25
100
AcDbLine
 10
3.655511811
 20
0.7432078257
 30
0.0
 11
3.655511811
 21
0.4378945365
 31
0.0
  0
LINE
  5
1AA
330
1F
100
AcDbEntity
  8
0
  6
Continuous
 62
     7
370
    25
100
AcDbLine
 10
3.6997055601
 20
0.3937007874
 30
0.0
 11
3.8613180619
 21
0.3937007874
 31
0.0
  0
LINE
  5
1AB
330
1F
100
AcDbEntity
  8
0
  6
Continuous
 62
     7
370
    25
100
AcDbLine
 10
3.905511811
 20
0.4378945365
 30
0.0
 11
3.905511811
 21
0.7432078257
 31
0.0
  0
LINE
  5
1AC
330
1F
100
AcDbEntity
  8
0
  6
Continuous
 62
     7
370
    25
100
AcDbLine
 10
3.8613180619
 20
0.7874015748
 30
0.0
 11
3.6997055601
 21
0.7874015748
 31
0.0
  0
LINE
  5
1AD
330
1F
100
AcDbEntity
  8
0
  6
Continuous
 62
     7
370
    25
100
AcDbLine
 10
4.7206034973
 20
0.2066929134
 30
0.0
 11
4.7602009168
 21
0.2066929134
 31
0.0
  0
LINE
  5
1AE
330
1F
100
AcDbEntity
  8
0
  6
Continuous
 62
     7
370
    25
100
AcDbLine
 10
4.7206034973
 20
0.0688976378
 30
0.0
 11
4.7206034973
 21
0.2066929134
 31
0.0
  0
LINE
  5
1AF
330
1F
100
AcDbEntity
  8
0
  6
Continuous
 62
     7
370
    25
100
AcDbLine
 10
4.7564252763
 20
0.0688976378
 30
0.0
 11
4.7206034973
 21
0.0688976378
 31
0.0
  0
LINE
  5
1B0
330
1F
100
AcDbEntity
  8
0
  6
Continuous
 62
     7
370
    25
100
AcDbLine
 10
4.9582504218
 20
0.2066929134
 30
0.0
 11
4.9948834955
 21
0.2066929134
 31
0.0
  0
LINE
  5
1B1
330
1F
100
AcDbEntity
  8
0
  6
Continuous
 62
     7
370
    25
100
AcDbLine
 10
4.9582504218
 20
0.0688976378
 30
0.0
 11
4.9582504218
 21
0.2066929134
 31
0.0
  0
LINE
  5
1B2
330
1F
100
AcDbEntity
  8
0
  6
Continuous
 62
     7
370
    25
100
AcDbLine
 10
4.9782207516
 20
0.0688976378
 30
0.0
 11
4.9582504218
 21
0.0688976378
 31
0.0
  0
LINE
  5
1B3
330
1F
100
AcDbEntity
  8
0
  6
Continuous
 62
     7
370
    25
100
AcDbLine
 10
4.9782207516
 20
0.1288086272
 30
0.0
 11
4.9782207516
 21
0.0688976378
 31
0.0
  0
LINE
  5
1B4
330
1F
100
AcDbEntity
  8
0
  6
Continuous
 62
     7
370
    25
100
AcDbLine
 10
4.9866769381
 20
0.1288086272
 30
0.0
 11
4.9782207516
 21
0.1288086272
 31
0.0
  0
LINE
  5
1B5
330
1F
100
AcDbEntity
  8
0
  6
Continuous
 62
     7
370
    25
100
AcDbLine
 10
5.0289578708
 20
0.0688976378
 30
0.0
 11
5.0091435592
 21
0.1119274578
 31
0.0
  0
LINE
  5
1B6
330
1F
100
AcDbEntity
  8
0
  6
Continuous
 62
     7
370
    25
100
AcDbLine
 10
5.0501139389
 20
0.0688976378
 30
0.0
 11
5.0289578708
 21
0.0688976378
 31
0.0
  0
LINE
  5
1B7
330
1F
100
AcDbEntity
  8
0
  6
Continuous
 62
     7
370
    25
100
AcDbLine
 10
5.0290514817
 20
0.1148293963
 30
0.0
 11
5.0501139389
 21
0.0688976378
 31
0.0
  0
LINE
  5
1B8
330
1F
100
AcDbEntity
  8
0
  6
Continuous
 62
     7
370
    25
100
AcDbLine
 10
5.1759270166
 20
0.0409391761
 30
0.0
 11
5.2937519624
 21
0.0409391761
 31
0.0
  0
LINE
  5
1B9
330
1F
100
AcDbEntity
  8
0
  6
Continuous
 62
     7
370
    25
100
AcDbLine
 10
5.1759270166
 20
0.0249629122
 30
0.0
 11
5.1759270166
 21
0.0409391761
 31
0.0
  0
LINE
  5
1BA
330
1F
100
AcDbEntity
  8
0
  6
Continuous
 62
     7
370
    25
100
AcDbLine
 10
5.2937519624
 20
0.0249629122
 30
0.0
 11
5.1759270166
 21
0.0249629122
 31
0.0
  0
LINE
  5
1BB
330
1F
100
AcDbEntity
  8
0
  6
Continuous
 62
     7
370
    25
100
AcDbLine
 10
5.2937519624
 20
0.0409391761
 30
0.0
 11
5.2937519624
 21
0.0249629122
 31
0.0
  0
LINE
  5
1BC
330
1F
100
AcDbEntity
  8
0
  6
Continuous
 62
     7
370
    25
100
AcDbLine
 10
5.429550205
 20
0.0848739016
 30
0.0
 11
5.4615027327
 21
0.0848739016
 31
0.0
  0
LINE
  5
1BD
330
1F
100
AcDbEntity
  8
0
  6
Continuous
 62
     7
370
    25
100
AcDbLine
 10
5.429550205
 20
0.0688976378
 30
0.0
 11
5.429550205
 21
0.0848739016
 31
0.0
  0
LINE
  5
1BE
330
1F
100
AcDbEntity
  8
0
  6
Continuous
 62
     7
370
    25
100
AcDbLine
 10
5.5134255901
 20
0.0688976378
 30
0.0
 11
5.429550205
 21
0.0688976378
 31
0.0
  0
LINE
  5
1BF
330
1F
100
AcDbEntity
  8
0
  6
Continuous
 62
     7
370
    25
100
AcDbLine
 10
5.5134255901
 20
0.0848739016
 30
0.0
 11
5.5134255901
 21
0.0688976378
 31
0.0
  0
LINE
  5
1C0
330
1F
100
AcDbEntity
  8
0
  6
Continuous
 62
     7
370
    25
100
AcDbLine
 10
5.4814730625
 20
0.0848739016
 30
0.0
 11
5.5134255901
 21
0.0848739016
 31
0.0
  0
LINE
  5
1C1
330
1F
100
AcDbEntity
  8
0
  6
Continuous
 62
     7
370
    25
100
AcDbLine
 10
5.4814730625
 20
0.1907166495
 30
0.0
 11
5.4814730625
 21
0.0848739016
 31
0.0
  0
LINE
  5
1C2
330
1F
100
AcDbEntity
  8
0
  6
Continuous
 62
     7
370
    25
100
AcDbLine
 10
5.5134255901
 20
0.1907166495
 30
0.0
 11
5.4814730625
 21
0.1907166495
 31
0.0
  0
LINE
  5
1C3
330
1F
100
AcDbEntity
  8
0
  6
Continuous
 62
     7
370
    25
100
AcDbLine
 10
5.5134255901
 20
0.2066929134
 30
0.0
 11
5.5134255901
 21
0.1907166495
 31
0.0
  0
LINE
  5
1C4
330
1F
100
AcDbEntity
  8
0
  6
Continuous
 62
     7
370
    25
100
AcDbLine
 10
5.429550205
 20
0.2066929134
 30
0.0
 11
5.5134255901
 21
0.2066929134
 31
0.0
  0
LINE
  5
1C5
330
1F
100
AcDbEntity
  8
0
  6
Continuous
 62
     7
370
    25
100
AcDbLine
 10
5.429550205
 20
0.1907166495
 30
0.0
 11
5.429550205
 21
0.2066929134
 31
0.0
  0
LINE
  5
1C6
330
1F
100
AcDbEntity
  8
0
  6
Continuous
 62
     7
370
    25
100
AcDbLine
 10
5.4615027327
 20
0.1907166495
 30
0.0
 11
5.429550205
 21
0.1907166495
 31
0.0
  0
LINE
  5
1C7
330
1F
100
AcDbEntity
  8
0
  6
Continuous
 62
     7
370
    25
100
AcDbLine
 10
5.4615027327
 20
0.0848739016
 30
0.0
 11
5.4615027327
 21
0.1907166495
 31
0.0
  0
LINE
  5
1C8
330
1F
100
AcDbEntity
  8
0
  6
Continuous
 62
     7
370
    25
100
AcDbLine
 10
10.9794282994
 20
0.25
 30
0.0
 11
10.6741150077
 21
0.25
 31
0.0
  0
LINE
  5
1C9
330
1F
100
AcDbEntity
  8
0
  6
Continuous
 62
     7
370
    25
100
AcDbLine
 10
5.329698556
 20
0.148778957
 30
0.0
 11
5.3479526856
 21
0.148778957
 31
0.0
  0
LINE
  5
1CA
330
1F
100
AcDbEntity
  8
0
  6
Continuous
 62
     7
370
    25
100
AcDbLine
 10
5.329698556
 20
0.1907166495
 30
0.0
 11
5.329698556
 21
0.148778957
 31
0.0
  0
LINE
  5
1CB
330
1F
100
AcDbEntity
  8
0
  6
Continuous
 62
     7
370
    25
100
AcDbLine
 10
5.3485767584
 20
0.1907166495
 30
0.0
 11
5.329698556
 21
0.1907166495
 31
0.0
  0
LINE
  5
1CC
330
1F
100
AcDbEntity
  8
0
  6
Continuous
 62
     7
370
    25
100
AcDbLine
 10
4.9782207516
 20
0.144784891
 30
0.0
 11
4.9926680371
 21
0.144784891
 31
0.0
  0
LINE
  5
1CD
330
1F
100
AcDbEntity
  8
0
  6
Continuous
 62
     7
370
    25
100
AcDbLine
 10
4.9782207516
 20
0.1907166495
 30
0.0
 11
4.9782207516
 21
0.144784891
 31
0.0
  0
LINE
  5
1CE
330
1F
100
AcDbEntity
  8
0
  6
Continuous
 62
     7
370
    25
100
AcDbLine
 10
4.9950707174
 20
0.1907166495
 30
0.0
 11
4.9782207516
 21
0.1907166495
 31
0.0
  0
LINE
  5
1CF
330
1F
100
AcDbEntity
  8
0
  6
Continuous
 62
     7
370
    25
100
AcDbLine
 10
5.329698556
 20
0.0848739016
 30
0.0
 11
5.3488263875
 21
0.0848739016
 31
0.0
  0
LINE
  5
1D0
330
1F
100
AcDbEntity
  8
0
  6
Continuous
 62
     7
370
    25
100
AcDbLine
 10
5.329698556
 20
0.1328026931
 30
0.0
 11
5.329698556
 21
0.0848739016
 31
0.0
  0
LINE
  5
1D1
330
1F
100
AcDbEntity
  8
0
  6
Continuous
 62
     7
370
    25
100
AcDbLine
 10
5.3482023147
 20
0.1328026931
 30
0.0
 11
5.329698556
 21
0.1328026931
 31
0.0
  0
LINE
  5
1D2
330
1F
100
AcDbEntity
  8
0
  6
Continuous
 62
     7
370
    25
100
AcDbLine
 10
4.740573827
 20
0.148778957
 30
0.0
 11
4.7588279566
 21
0.148778957
 31
0.0
  0
LINE
  5
1D3
330
1F
100
AcDbEntity
  8
0
  6
Continuous
 62
     7
370
    25
100
AcDbLine
 10
4.740573827
 20
0.1907166495
 30
0.0
 11
4.740573827
 21
0.148778957
 31
0.0
  0
LINE
  5
1D4
330
1F
100
AcDbEntity
  8
0
  6
Continuous
 62
     7
370
    25
100
AcDbLine
 10
4.7594520294
 20
0.1907166495
 30
0.0
 11
4.740573827
 21
0.1907166495
 31
0.0
  0
LINE
  5
1D5
330
1F
100
AcDbEntity
  8
0
  6
Continuous
 62
     7
370
    25
100
AcDbLine
 10
4.740573827
 20
0.0848739016
 30
0.0
 11
4.7597016586
 21
0.0848739016
 31
0.0
  0
LINE
  5
1D6
330
1F
100
AcDbEntity
  8
0
  6
Continuous
 62
     7
370
    25
100
AcDbLine
 10
4.740573827
 20
0.1328026931
 30
0.0
 11
4.740573827
 21
0.0848739016
 31
0.0
  0
LINE
  5
1D7
330
1F
100
AcDbEntity
  8
0
  6
Continuous
 62
     7
370
    25
100
AcDbLine
 10
4.7590775857
 20
0.1328026931
 30
0.0
 11
4.740573827
 21
0.1328026931
 31
0.0
  0
ARC
  5
1D8
330
1F
100
AcDbEntity
  8
0
  6
Continuous
 62
     7
370
    25
100
AcDbCircle
 10
3.677511811
 20
1.2031023592
 30
0.0
 40
0.0312499999999997
100
AcDbArc
 50
134.7488120841
 51
315.2511879159
  0
ARC
  5
1D9
330
1F
100
AcDbEntity
  8
0
  6
Continuous
 62
     7
370
    25
100
AcDbCircle
 10
3.883511811
 20
1.2031023592
 30
0.0
 40
0.0312499999999994
100
AcDbArc
 50
224.7488120841
 51
45.2511879159
  0
ARC
  5
1DA
330
1F
100
AcDbEntity
  8
0
  6
Continuous
 62
     7
370
    25
100
AcDbCircle
 10
3.883511811
 20
1.5528031466
 30
0.0
 40
0.0312499999999994
100
AcDbArc
 50
314.7488120841
 51
135.2511879159
  0
ARC
  5
1DB
330
1F
100
AcDbEntity
  8
0
  6
Continuous
 62
     7
370
    25
100
AcDbCircle
 10
3.677511811
 20
1.5528031466
 30
0.0
 40
0.0312499999999995
100
AcDbArc
 50
44.7488120841
 51
225.2511879159
  0
ARC
  5
1DC
330
1F
100
AcDbEntity
  8
0
  6
Continuous
 62
     7
370
    25
100
AcDbCircle
 10
9.8205196863
 20
1.8655039393
 30
0.0
 40
0.0312500000000014
100
AcDbArc
 50
224.7488123544
 51
45.2511879159
  0
ARC
  5
1DD
330
1F
100
AcDbEntity
  8
0
  6
Continuous
 62
     7
370
    25
100
AcDbCircle
 10
11.583023622
 20
1.5968031483
 30
0.0
 40
0.0312499999999998
100
AcDbArc
 50
134.7488120841
 51
315.2511879159
  0
ARC
  5
1DE
330
1F
100
AcDbEntity
  8
0
  6
Continuous
 62
     7
370
    25
100
AcDbCircle
 10
11.583023622
 20
0.8094015722
 30
0.0
 40
0.0312499999999997
100
AcDbArc
 50
134.7488120841
 51
315.25119127
  0
ARC
  5
1DF
330
1F
100
AcDbEntity
  8
0
  6
Continuous
 62
     7
370
    25
100
AcDbCircle
 10
11.583023622
 20
0.3717007874
 30
0.0
 40
0.0312500000000019
100
AcDbArc
 50
44.7488154381
 51
225.2511879159
  0
ARC
  5
1E0
330
1F
100
AcDbEntity
  8
0
  6
Continuous
 62
     7
370
    25
100
AcDbCircle
 10
11.0016220485
 20
0.228
 30
0.0
 40
0.0312500000000016
100
AcDbArc
 50
314.7488120841
 51
135.2511879159
  0
ARC
  5
1E1
330
1F
100
AcDbEntity
  8
0
  6
Continuous
 62
     7
370
    25
100
AcDbCircle
 10
10.6519212585
 20
0.228
 30
0.0
 40
0.0312500000000009
100
AcDbArc
 50
44.7488120841
 51
225.2511879159
  0
ARC
  5
1E2
330
1F
100
AcDbEntity
  8
0
  6
Continuous
 62
     7
370
    25
100
AcDbCircle
 10
9.4708188963
 20
0.228
 30
0.0
 40
0.0312500000000003
100
AcDbArc
 50
44.7488120841
 51
225.2511879159
  0
ARC
  5
1E3
330
1F
100
AcDbEntity
  8
0
  6
Continuous
 62
     7
370
    25
100
AcDbCircle
 10
6.080362206
 20
0.228
 30
0.0
 40
0.0312499999999999
100
AcDbArc
 50
314.7488120841
 51
135.2511879159
  0
ARC
  5
1E4
330
1F
100
AcDbEntity
  8
0
  6
Continuous
 62
     7
370
    25
100
AcDbCircle
 10
5.730661416
 20
0.228
 30
0.0
 40
0.0312499999999996
100
AcDbArc
 50
44.7488120841
 51
225.2511879159
  0
ARC
  5
1E5
330
1F
100
AcDbEntity
  8
0
  6
Continuous
 62
     7
370
    25
100
AcDbCircle
 10
2.3402047257
 20
0.228
 30
0.0
 40
0.0312499999999998
100
AcDbArc
 50
314.7488120841
 51
135.2511879159
  0
ARC
  5
1E6
330
1F
100
AcDbEntity
  8
0
  6
Continuous
 62
     7
370
    25
100
AcDbCircle
 10
1.9905039357
 20
0.228
 30
0.0
 40
0.0312499999999997
100
AcDbArc
 50
44.7488120841
 51
225.2511879159
  0
ARC
  5
1E7
330
1F
100
AcDbEntity
  8
0
  6
Continuous
 62
     7
370
    25
100
AcDbCircle
 10
1.1591023635
 20
0.228
 30
0.0
 40
0.0312499999999997
100
AcDbArc
 50
314.7488120841
 51
135.2511879159
  0
ARC
  5
1E8
330
1F
100
AcDbEntity
  8
0
  6
Continuous
 62
     7
370
    25
100
AcDbCircle
 10
0.228
 20
0.3717007874
 30
0.0
 40
0.0312499999999995
100
AcDbArc
 50
314.7488120841
 51
135.2511845618
  0
ARC
  5
1E9
330
1F
100
AcDbEntity
  8
0
  6
Continuous
 62
     7
370
    25
100
AcDbCircle
 10
0.228
 20
0.8094015722
 30
0.0
 40
0.0312499999999995
100
AcDbArc
 50
224.74880873
 51
45.2511879159
  0
ARC
  5
1EA
330
1F
100
AcDbEntity
  8
0
  6
Continuous
 62
     7
370
    25
100
AcDbCircle
 10
0.228
 20
1.1591023635
 30
0.0
 40
0.0312499999999995
100
AcDbArc
 50
314.7488120841
 51
135.2511879159
  0
ARC
  5
1EB
330
1F
100
AcDbEntity
  8
0
  6
Continuous
 62
     7
370
    25
100
AcDbCircle
 10
0.228
 20
1.5968031483
 30
0.0
 40
0.0312499999999996
100
AcDbArc
 50
224.7488120841
 51
45.2511879159
  0
ARC
  5
1EC
330
1F
100
AcDbEntity
  8
0
  6
Continuous
 62
     7
370
    25
100
AcDbCircle
 10
1.9905039357
 20
1.8655039373
 30
0.0
 40
0.0312500000000004
100
AcDbArc
 50
134.7488120841
 51
315.2511881863
  0
ARC
  5
1ED
330
1F
100
AcDbEntity
  8
0
  6
Continuous
 62
     7
370
    25
100
AcDbCircle
 10
2.3402047257
 20
1.8655039373
 30
0.0
 40
0.0312500000000002
100
AcDbArc
 50
224.7488118137
 51
45.2511879159
  0
ARC
  5
1EE
330
1F
100
AcDbEntity
  8
0
  6
Continuous
 62
     7
370
    25
100
AcDbCircle
 10
5.730661416
 20
1.8655039383
 30
0.0
 40
0.0312500000000005
100
AcDbArc
 50
134.7488120841
 51
315.2511879159
  0
ARC
  5
1EF
330
1F
100
AcDbEntity
  8
0
  6
Continuous
 62
     7
370
    25
100
AcDbCircle
 10
6.080362206
 20
1.8655039383
 30
0.0
 40
0.0312500000000008
100
AcDbArc
 50
224.7488120841
 51
45.2511879159
  0
ARC
  5
1F0
330
1F
100
AcDbEntity
  8
0
  6
Continuous
 62
     7
370
    25
100
AcDbCircle
 10
9.4708188963
 20
1.8655039393
 30
0.0
 40
0.0312500000000015
100
AcDbArc
 50
134.7488120841
 51
315.2511876456
  0
ARC
  5
1F1
330
1F
100
AcDbEntity
  8
0
  6
Continuous
 62
     7
370
    25
100
AcDbCircle
 10
7.927511811
 20
1.2031023574
 30
0.0
 40
0.03125
100
AcDbArc
 50
134.7488120841
 51
315.2511879159
  0
ARC
  5
1F2
330
1F
100
AcDbEntity
  8
0
  6
Continuous
 62
     7
370
    25
100
AcDbCircle
 10
8.133511811
 20
1.2031023574
 30
0.0
 40
0.03125
100
AcDbArc
 50
224.7488120841
 51
45.2511879159
  0
ARC
  5
1F3
330
1F
100
AcDbEntity
  8
0
  6
Continuous
 62
     7
370
    25
100
AcDbCircle
 10
8.133511811
 20
1.5528031448
 30
0.0
 40
0.0312500000000005
100
AcDbArc
 50
314.7488120841
 51
135.2511879159
  0
ARC
  5
1F4
330
1F
100
AcDbEntity
  8
0
  6
Continuous
 62
     7
370
    25
100
AcDbCircle
 10
7.927511811
 20
1.5528031448
 30
0.0
 40
0.0312500000000005
100
AcDbArc
 50
44.7488120841
 51
225.2511879159
  0
ARC
  5
1F5
330
1F
100
AcDbEntity
  8
0
  6
Continuous
 62
     7
370
    25
100
AcDbCircle
 10
7.927511811
 20
0.4157007874
 30
0.0
 40
0.0312500000000001
100
AcDbArc
 50
134.7488120841
 51
315.2511879159
  0
ARC
  5
1F6
330
1F
100
AcDbEntity
  8
0
  6
Continuous
 62
     7
370
    25
100
AcDbCircle
 10
8.133511811
 20
0.4157007874
 30
0.0
 40
0.0312499999999996
100
AcDbArc
 50
224.7488120841
 51
45.2511879159
  0
ARC
  5
1F7
330
1F
100
AcDbEntity
  8
0
  6
Continuous
 62
     7
370
    25
100
AcDbCircle
 10
8.133511811
 20
0.7654015748
 30
0.0
 40
0.0312499999999994
100
AcDbArc
 50
314.7488120841
 51
135.2511879159
  0
ARC
  5
1F8
330
1F
100
AcDbEntity
  8
0
  6
Continuous
 62
     7
370
    25
100
AcDbCircle
 10
7.927511811
 20
0.7654015748
 30
0.0
 40
0.0312499999999997
100
AcDbArc
 50
44.7488120841
 51
225.2511879159
  0
ARC
  5
1F9
330
1F
100
AcDbEntity
  8
0
  6
Continuous
 62
     7
370
    25
100
AcDbCircle
 10
3.677511811
 20
0.4157007874
 30
0.0
 40
0.0312499999999993
100
AcDbArc
 50
134.7488120841
 51
315.2511879159
  0
ARC
  5
1FA
330
1F
100
AcDbEntity
  8
0
  6
Continuous
 62
     7
370
    25
100
AcDbCircle
 10
3.883511811
 20
0.4157007874
 30
0.0
 40
0.0312499999999993
100
AcDbArc
 50
224.7488120841
 51
45.2511879159
  0
ARC
  5
1FB
330
1F
100
AcDbEntity
  8
0
  6
Continuous
 62
     7
370
    25
100
AcDbCircle
 10
3.883511811
 20
0.7654015748
 30
0.0
 40
0.0312499999999998
100
AcDbArc
 50
314.7488120841
 51
135.2511879159
  0
ARC
  5
1FC
330
1F
100
AcDbEntity
  8
0
  6
Continuous
 62
     7
370
    25
100
AcDbCircle
 10
3.677511811
 20
0.7654015748
 30
0.0
 40
0.0312499999999995
100
AcDbArc
 50
44.7488120841
 51
225.2511879159
  0
ARC
  5
1FD
330
1F
100
AcDbEntity
  8
0
  6
Continuous
 62
     7
370
    25
100
AcDbCircle
 10
0.8094015735
 20
0.228
 30
0.0
 40
0.0312499999999995
100
AcDbArc
 50
44.7488120841
 51
225.2511879159
  0
ARC
  5
1FE
330
1F
100
AcDbEntity
  8
0
  6
Continuous
 62
     7
370
    25
100
AcDbCircle
 10
11.583023622
 20
1.1591023635
 30
0.0
 40
0.0312500000000017
100
AcDbArc
 50
44.7488120841
 51
225.2511879159
  0
ARC
  5
1FF
330
1F
100
AcDbEntity
  8
0
  6
Continuous
 62
     7
370
    25
100
AcDbCircle
 10
9.8205196863
 20
0.228
 30
0.0
 40
0.0312500000000007
100
AcDbArc
 50
314.7488120841
 51
135.2511879159
  0
ENDSEC
  0
SECTION
  2
OBJECTS
  0
DICTIONARY
  5
C
330
0
100
AcDbDictionary
281
     1
  3
ACAD_GROUP
350
D
  3
ACAD_LAYOUT
350
1A
  3
ACAD_MLINESTYLE
350
17
  3
ACAD_PLOTSETTINGS
350
19
  3
ACAD_PLOTSTYLENAME
350
E
  3
ACAD_SCALELIST
350
47
  0
DICTIONARY
  5
D
102
{ACAD_REACTORS
330
C
102
}
330
C
100
AcDbDictionary
281
     1
  0
DICTIONARY
  5
1A
102
{ACAD_REACTORS
330
C
102
}
330
C
100
AcDbDictionary
281
     1
  3
Layout1
350
1E
  3
Layout2
350
26
  3
Model
350
22
  0
DICTIONARY
  5
17
102
{ACAD_REACTORS
330
C
102
}
330
C
100
AcDbDictionary
281
     1
  3
Standard
350
18
  0
DICTIONARY
  5
19
102
{ACAD_REACTORS
330
C
102
}
330
C
100
AcDbDictionary
281
     1
  0
ACDBDICTIONARYWDFLT
  5
E
102
{ACAD_REACTORS
330
C
102
}
330
C
100
AcDbDictionary
281
     1
  3
Normal
350
F
100
AcDbDictionaryWithDefault
340
F
  0
DICTIONARY
  5
47
102
{ACAD_REACTORS
330
C
102
}
330
C
100
AcDbDictionary
281
     1
  3
A0
350
48
  3
A1
350
49
  3
A2
350
4A
  3
A3
350
4B
  3
A4
350
4C
  3
A5
350
4D
  3
A6
350
4E
  3
A7
350
4F
  3
A8
350
50
  3
A9
350
51
  3
B0
350
52
  3
B1
350
53
  3
B2
350
54
  3
B3
350
55
  3
B4
350
56
  3
B5
350
57
  3
B6
350
58
  3
B7
350
59
  3
B8
350
5A
  3
B9
350
5B
  3
C0
350
5C
  3
C1
350
5D
  3
C2
350
5E
  3
C3
350
5F
  3
C4
350
60
  3
C5
350
61
  3
C6
350
62
  3
C7
350
63
  3
C8
350
64
  3
C9
350
65
  3
D0
350
66
  3
D1
350
67
  3
D2
350
68
  0
LAYOUT
  5
1E
102
{ACAD_REACTORS
330
1A
102
}
330
1A
100
AcDbPlotSettings
  1

  2
none_device
  4

  6

 40
0.0
 41
0.0
 42
0.0
 43
0.0
 44
0.0
 45
0.0
 46
0.0
 47
0.0
 48
0.0
 49
0.0
140
0.0
141
0.0
142
1.0
143
1.0
 70
   688
 72
     0
 73
     0
 74
     5
  7

 75
    16
147
1.0
148
0.0
149
0.0
100
AcDbLayout
  1
Layout1
 70
     1
 71
     1
 10
0.0
 20
0.0
 11
12.0
 21
9.0
 12
0.0
 22
0.0
 32
0.0
 14
1.0000000000E+20
 24
1.0000000000E+20
 34
1.0000000000E+20
 15
-1.0000000000E+20
 25
-1.0000000000E+20
 35
-1.0000000000E+20
146
0.0
 13
0.0
 23
0.0
 33
0.0
 16
1.0
 26
0.0
 36
0.0
 17
0.0
 27
1.0
 37
0.0
 76
     0
330
1B
  0
LAYOUT
  5
26
102
{ACAD_REACTORS
330
1A
102
}
330
1A
100
AcDbPlotSettings
  1

  2
none_device
  4

  6

 40
0.0
 41
0.0
 42
0.0
 43
0.0
 44
0.0
 45
0.0
 46
0.0
 47
0.0
 48
0.0
 49
0.0
140
0.0
141
0.0
142
1.0
143
1.0
 70
   688
 72
     0
 73
     0
 74
     5
  7

 75
    16
147
1.0
148
0.0
149
0.0
100
AcDbLayout
  1
Layout2
 70
     1
 71
     2
 10
0.0
 20
0.0
 11
0.0
 21
0.0
 12
0.0
 22
0.0
 32
0.0
 14
0.0
 24
0.0
 34
0.0
 15
0.0
 25
0.0
 35
0.0
146
0.0
 13
0.0
 23
0.0
 33
0.0
 16
1.0
 26
0.0
 36
0.0
 17
0.0
 27
1.0
 37
0.0
 76
     0
330
23
  0
LAYOUT
  5
22
102
{ACAD_REACTORS
330
1A
102
}
330
1A
100
AcDbPlotSettings
  1

  2
none_device
  4
ANSI_A_(11.00_x_8.50_Inches)
  6

 40
6.35
 41
19.05
 42
6.35000508
 43
19.05000254
 44
279.4
 45
215.9
 46
-4.95300254
 47
65.8494987196
 48
0.0
 49
0.0
140
0.0
141
0.0
142
0.92202
143
1.0
 70
  1696
 72
     0
 73
     0
 74
     0
  7

 75
     0
147
0.5913241897
148
-39.4088153714
149
0.0
100
AcDbLayout
  1
Model
 70
     1
 71
     0
 10
0.0
 20
0.0
 11
12.0
 21
9.0
 12
0.0
 22
0.0
 32
0.0
 14
0.0
 24
-0.0000000013
 34
0.0
 15
11.811023622
 25
1.9685039392
 35
0.0
146
0.0
 13
0.0
 23
0.0
 33
0.0
 16
1.0
 26
0.0
 36
0.0
 17
0.0
 27
1.0
 37
0.0
 76
     0
330
1F
331
29
  0
MLINESTYLE
  5
18
102
{ACAD_REACTORS
330
17
102
}
330
17
100
AcDbMlineStyle
  2
Standard
 70
     0
  3

 62
   256
 51
90.0
 52
90.0
 71
     2
 49
0.5
 62
   256
  6
BYLAYER
 49
-0.5
 62
   256
  6
BYLAYER
  0
ACDBPLACEHOLDER
  5
F
102
{ACAD_REACTORS
330
E
102
}
330
E
  0
SCALE
  5
48
102
{ACAD_REACTORS
330
47
102
}
330
47
100
AcDbScale
 70
     0
300
1:1
140
1.0
141
1.0
290
     1
  0
SCALE
  5
49
102
{ACAD_REACTORS
330
47
102
}
330
47
100
AcDbScale
 70
     0
300
1:2
140
1.0
141
2.0
290
     0
  0
SCALE
  5
4A
102
{ACAD_REACTORS
330
47
102
}
330
47
100
AcDbScale
 70
     0
300
1:4
140
1.0
141
4.0
290
     0
  0
SCALE
  5
4B
102
{ACAD_REACTORS
330
47
102
}
330
47
100
AcDbScale
 70
     0
300
1:5
140
1.0
141
5.0
290
     0
  0
SCALE
  5
4C
102
{ACAD_REACTORS
330
47
102
}
330
47
100
AcDbScale
 70
     0
300
1:8
140
1.0
141
8.0
290
     0
  0
SCALE
  5
4D
102
{ACAD_REACTORS
330
47
102
}
330
47
100
AcDbScale
 70
     0
300
1:10
140
1.0
141
10.0
290
     0
  0
SCALE
  5
4E
102
{ACAD_REACTORS
330
47
102
}
330
47
100
AcDbScale
 70
     0
300
1:16
140
1.0
141
16.0
290
     0
  0
SCALE
  5
4F
102
{ACAD_REACTORS
330
47
102
}
330
47
100
AcDbScale
 70
     0
300
1:20
140
1.0
141
20.0
290
     0
  0
SCALE
  5
50
102
{ACAD_REACTORS
330
47
102
}
330
47
100
AcDbScale
 70
     0
300
1:30
140
1.0
141
30.0
290
     0
  0
SCALE
  5
51
102
{ACAD_REACTORS
330
47
102
}
330
47
100
AcDbScale
 70
     0
300
1:40
140
1.0
141
40.0
290
     0
  0
SCALE
  5
52
102
{ACAD_REACTORS
330
47
102
}
330
47
100
AcDbScale
 70
     0
300
1:50
140
1.0
141
50.0
290
     0
  0
SCALE
  5
53
102
{ACAD_REACTORS
330
47
102
}
330
47
100
AcDbScale
 70
     0
300
1:100
140
1.0
141
100.0
290
     0
  0
SCALE
  5
54
102
{ACAD_REACTORS
330
47
102
}
330
47
100
AcDbScale
 70
     0
300
2:1
140
2.0
141
1.0
290
     0
  0
SCALE
  5
55
102
{ACAD_REACTORS
330
47
102
}
330
47
100
AcDbScale
 70
     0
300
4:1
140
4.0
141
1.0
290
     0
  0
SCALE
  5
56
102
{ACAD_REACTORS
330
47
102
}
330
47
100
AcDbScale
 70
     0
300
8:1
140
8.0
141
1.0
290
     0
  0
SCALE
  5
57
102
{ACAD_REACTORS
330
47
102
}
330
47
100
AcDbScale
 70
     0
300
10:1
140
10.0
141
1.0
290
     0
  0
SCALE
  5
58
102
{ACAD_REACTORS
330
47
102
}
330
47
100
AcDbScale
 70
     0
300
100:1
140
100.0
141
1.0
290
     0
  0
SCALE
  5
59
102
{ACAD_REACTORS
330
47
102
}
330
47
100
AcDbScale
 70
     0
300
1/128" = 1'-0"
140
0.0078125
141
12.0
290
     0
  0
SCALE
  5
5A
102
{ACAD_REACTORS
330
47
102
}
330
47
100
AcDbScale
 70
     0
300
1/64" = 1'-0"
140
0.015625
141
12.0
290
     0
  0
SCALE
  5
5B
102
{ACAD_REACTORS
330
47
102
}
330
47
100
AcDbScale
 70
     0
300
1/32" = 1'-0"
140
0.03125
141
12.0
290
     0
  0
SCALE
  5
5C
102
{ACAD_REACTORS
330
47
102
}
330
47
100
AcDbScale
 70
     0
300
1/16" = 1'-0"
140
0.0625
141
12.0
290
     0
  0
SCALE
  5
5D
102
{ACAD_REACTORS
330
47
102
}
330
47
100
AcDbScale
 70
     0
300
3/32" = 1'-0"
140
0.09375
141
12.0
290
     0
  0
SCALE
  5
5E
102
{ACAD_REACTORS
330
47
102
}
330
47
100
AcDbScale
 70
     0
300
1/8" = 1'-0"
140
0.125
141
12.0
290
     0
  0
SCALE
  5
5F
102
{ACAD_REACTORS
330
47
102
}
330
47
100
AcDbScale
 70
     0
300
3/16" = 1'-0"
140
0.1875
141
12.0
290
     0
  0
SCALE
  5
60
102
{ACAD_REACTORS
330
47
102
}
330
47
100
AcDbScale
 70
     0
300
1/4" = 1'-0"
140
0.25
141
12.0
290
     0
  0
SCALE
  5
61
102
{ACAD_REACTORS
330
47
102
}
330
47
100
AcDbScale
 70
     0
300
3/8" = 1'-0"
140
0.375
141
12.0
290
     0
  0
SCALE
  5
62
102
{ACAD_REACTORS
330
47
102
}
330
47
100
AcDbScale
 70
     0
300
1/2" = 1'-0"
140
0.5
141
12.0
290
     0
  0
SCALE
  5
63
102
{ACAD_REACTORS
330
47
102
}
330
47
100
AcDbScale
 70
     0
300
3/4" = 1'-0"
140
0.75
141
12.0
290
     0
  0
SCALE
  5
64
102
{ACAD_REACTORS
330
47
102
}
330
47
100
AcDbScale
 70
     0
300
1" = 1'-0"
140
1.0
141
12.0
290
     0
  0
SCALE
  5
65
102
{ACAD_REACTORS
330
47
102
}
330
47
100
AcDbScale
 70
     0
300
1-1/2" = 1'-0"
140
1.5
141
12.0
290
     0
  0
SCALE
  5
66
102
{ACAD_REACTORS
330
47
102
}
330
47
100
AcDbScale
 70
     0
300
3" = 1'-0"
140
3.0
141
12.0
290
     0
  0
SCALE
  5
67
102
{ACAD_REACTORS
330
47
102
}
330
47
100
AcDbScale
 70
     0
300
6" = 1'-0"
140
6.0
141
12.0
290
     0
  0
SCALE
  5
68
102
{ACAD_REACTORS
330
47
102
}
330
47
100
AcDbScale
 70
     0
300
1'-0" = 1'-0"
140
12.0
141
12.0
290
     0
  0
ENDSEC
  0
EOF
